<?xml version="1.0" encoding="UTF-8"?>
<!DOCTYPE svg  PUBLIC '-//W3C//DTD SVG 1.1//EN'  'http://www.w3.org/Graphics/SVG/1.1/DTD/svg11.dtd'>
<svg width="760pt" height="400pt" version="1.1" viewBox="0 0 760 400" xmlns="http://www.w3.org/2000/svg" xmlns:xlink="http://www.w3.org/1999/xlink">
<metadata>
<rdf:RDF xmlns:cc="http://creativecommons.org/ns#" xmlns:dc="http://purl.org/dc/elements/1.1/" xmlns:rdf="http://www.w3.org/1999/02/22-rdf-syntax-ns#">
<cc:Work>
<dc:type rdf:resource="http://purl.org/dc/dcmitype/StillImage"/>
<dc:date>2021-04-14T07:13:00.534889</dc:date>
<dc:format>image/svg+xml</dc:format>
<dc:creator>
<cc:Agent>
<dc:title>Matplotlib v3.3.3, https://matplotlib.org/</dc:title>
</cc:Agent>
</dc:creator>
</cc:Work>
</rdf:RDF>
</metadata>
<defs>
<style type="text/css">*{stroke-linecap:butt;stroke-linejoin:round;}</style>
</defs>
<path d="m0 400h760v-400h-760z" fill="#fff"/>
<g fill="none" stroke="#000">
<path d="m180.49 18.182-145.94 273.98" clip-path="url(#a)"/>
<path d="m180.49 18.182-99.621 91.693" clip-path="url(#a)"/>
<path d="m180.49 18.182 220.08 91.693" clip-path="url(#a)"/>
<path d="m180.49 18.182 25.487 273.98" clip-path="url(#a)"/>
<path d="m34.545 292.16v89.658" clip-path="url(#a)"/>
<path d="m80.866 109.87-30.736 182.29" clip-path="url(#a)"/>
<path d="m80.866 109.87-9.9567 182.29" clip-path="url(#a)"/>
<path d="m80.866 109.87 40.693 91.382" clip-path="url(#a)"/>
<path d="m400.56 109.87-121.86 91.382" clip-path="url(#a)"/>
<path d="m400.56 109.87-38.745 182.29" clip-path="url(#a)"/>
<path d="m400.56 109.87 160.61 91.382" clip-path="url(#a)"/>
<path d="m278.7 201.26-25.974 90.905" clip-path="url(#a)"/>
<path d="m278.7 201.26 25.974 90.905" clip-path="url(#a)"/>
<path d="m361.82 292.16v89.658" clip-path="url(#a)"/>
<path d="m561.17 201.26-137.01 90.905" clip-path="url(#a)"/>
<path d="m561.17 201.26-69.481 90.905" clip-path="url(#a)"/>
<path d="m561.17 201.26 42.208 90.905" clip-path="url(#a)"/>
<path d="m561.17 201.26 164.29 90.905" clip-path="url(#a)"/>
<path d="m424.16 292.16v89.658" clip-path="url(#a)"/>
<path d="m491.69 292.16v89.658" clip-path="url(#a)"/>
<path d="m603.38 292.16-38.961 89.658" clip-path="url(#a)"/>
<path d="m603.38 292.16 38.961 89.658" clip-path="url(#a)"/>
<path d="m252.73 292.16v89.658" clip-path="url(#a)"/>
<path d="m304.68 292.16v89.658" clip-path="url(#a)"/>
<path d="m50.13 292.16v89.658" clip-path="url(#a)"/>
<path d="m70.909 292.16v89.658" clip-path="url(#a)"/>
<path d="m121.56 201.26-24.675 90.905" clip-path="url(#a)"/>
<path d="m121.56 201.26 24.675 90.905" clip-path="url(#a)"/>
<path d="m96.883 292.16v89.658" clip-path="url(#a)"/>
<path d="m146.23 292.16-18.182 89.658" clip-path="url(#a)"/>
<path d="m146.23 292.16 18.182 89.658" clip-path="url(#a)"/>
<path d="m205.97 292.16v89.658" clip-path="url(#a)"/>
<path d="m725.45 292.16v89.658" clip-path="url(#a)"/>
</g>
<path d="m112 160.09 2.0956-3.9342q1.1283-2.1182-0.9899-3.2466l-6.8335-3.64q-2.1182-1.1283-3.2466 0.9899l-2.0956 3.9342q-1.1283 2.1182 0.9899 3.2466l6.8335 3.64q2.1182 1.1283 3.2466-0.9899z" clip-path="url(#a)" fill="#fff" stroke="#fff"/>
<g clip-path="url(#a)">
<g transform="translate(108.42 158.18) rotate(-61.957) scale(.08 -.08)">
<defs>
<path id="ak" d="m9.8125 72.906h9.8594v-64.609h35.5v-8.2969h-45.359z"/>
</defs>
<use xlink:href="#ak"/>
</g>
</g>
<path d="m132.71 70.68 4.4266-4.0743q1.7659-1.6253 0.14054-3.3912l-5.2434-5.6968q-1.6253-1.7659-3.3912-0.14054l-4.4266 4.0743q-1.7659 1.6253-0.14054 3.3912l5.2434 5.6968q1.6253 1.7659 3.3912 0.14054z" clip-path="url(#a)" fill="#fff" stroke="#fff"/>
<g clip-path="url(#a)">
<g transform="translate(129.96 67.689) rotate(-42.627) scale(.08 -.08)">
<defs>
<path id="v" d="m9.8125 72.906h9.8594v-29.891h35.844v29.891h9.8594v-72.906h-9.8594v34.719h-35.844v-34.719h-9.8594z"/>
</defs>
<use xlink:href="#v"/>
</g>
</g>
<path d="m285.34 68.66 5.5535 2.3138q2.2154 0.92303 3.1384-1.2924l2.9777-7.147q0.92303-2.2154-1.2924-3.1384l-5.5535-2.3138q-2.2154-0.92303-3.1384 1.2924l-2.9777 7.147q-0.92303 2.2154 1.2924 3.1384z" clip-path="url(#a)" fill="#fff" stroke="#fff"/>
<g clip-path="url(#a)">
<g transform="translate(286.9 64.909) rotate(22.619) scale(.08 -.08)">
<use xlink:href="#v"/>
</g>
</g>
<path d="m186.72 152.84 0.54232 5.8298q0.2223 2.3897 2.612 2.1674l7.7092-0.71715q2.3897-0.2223 2.1674-2.612l-0.54232-5.8298q-0.2223-2.3897-2.612-2.1674l-7.7092 0.71715q-2.3897 0.2223-2.1674 2.612z" clip-path="url(#a)" fill="#fff" stroke="#fff"/>
<g clip-path="url(#a)">
<g transform="translate(190.76 152.46) rotate(84.685) scale(.08 -.08)">
<defs>
<path id="t" d="m8.6875 72.906h9.9219v-44.297q0-11.719 4.2344-16.875 4.25-5.1406 13.781-5.1406 9.4688 0 13.719 5.1406 4.25 5.1562 4.25 16.875v44.297h9.9062v-45.516q0-14.25-7.0625-21.531-7.0469-7.2812-20.812-7.2812-13.828 0-20.891 7.2812-7.0469 7.2812-7.0469 21.531z"/>
</defs>
<use xlink:href="#t"/>
</g>
</g>
<path d="m28.274 320.09v33.808q0 2.4 2.4 2.4h7.7425q2.4 0 2.4-2.4v-33.808q0-2.4-2.4-2.4h-7.7425q-2.4 0-2.4 2.4z" clip-path="url(#a)" fill="#fff" stroke="#fff"/>
<g clip-path="url(#a)">
<g transform="translate(32.338 320.09) rotate(90) scale(.08 -.08)">
<defs>
<path id="k" d="m-0.29688 72.906h61.672v-8.3125h-25.875v-64.594h-9.9062v64.594h-25.891z"/>
<path id="e" d="m56.203 29.594v-4.3906h-41.312q0.59375-9.2812 5.5938-14.141t13.938-4.8594q5.1719 0 10.031 1.2656t9.6562 3.8125v-8.5q-4.8438-2.0469-9.9219-3.125t-10.297-1.0781q-13.094 0-20.734 7.6094-7.6406 7.625-7.6406 20.625 0 13.422 7.25 21.297 7.25 7.8906 19.562 7.8906 11.031 0 17.453-7.1094 6.4219-7.0938 6.4219-19.297zm-8.9844 2.6406q-0.09375 7.3594-4.125 11.75-4.0312 4.4062-10.672 4.4062-7.5156 0-12.031-4.25t-5.2031-11.969z"/>
<path id="i" d="m41.109 46.297q-1.5156 0.875-3.2969 1.2812-1.7812 0.42188-3.9219 0.42188-7.625 0-11.703-4.9531t-4.0781-14.234v-28.812h-9.0312v54.688h9.0312v-8.5q2.8438 4.9844 7.375 7.3906 4.5469 2.4219 11.047 2.4219 0.92188 0 2.0469-0.125 1.125-0.10938 2.4844-0.35938z"/>
<path id="l" d="m52 44.188q3.375 6.0625 8.0625 8.9375t11.031 2.875q8.5469 0 13.188-5.9844 4.6406-5.9688 4.6406-17v-33.016h-9.0312v32.719q0 7.8594-2.7969 11.656-2.7812 3.8125-8.4844 3.8125-6.9844 0-11.047-4.6406-4.0469-4.625-4.0469-12.641v-30.906h-9.0312v32.719q0 7.9062-2.7812 11.688t-8.5938 3.7812q-6.8906 0-10.953-4.6562-4.0469-4.6562-4.0469-12.625v-30.906h-9.0312v54.688h9.0312v-8.5q3.0781 5.0312 7.375 7.4219t10.203 2.3906q5.9688 0 10.141-3.0312 4.1719-3.0156 6.1719-8.7812z"/>
<path id="d" d="m9.4219 54.688h8.9844v-54.688h-8.9844zm0 21.297h8.9844v-11.391h-8.9844z"/>
<path id="g" d="m54.891 33.016v-33.016h-8.9844v32.719q0 7.7656-3.0312 11.609-3.0312 3.8594-9.0781 3.8594-7.2812 0-11.484-4.6406-4.2031-4.625-4.2031-12.641v-30.906h-9.0312v54.688h9.0312v-8.5q3.2344 4.9375 7.5938 7.375 4.375 2.4375 10.094 2.4375 9.4219 0 14.25-5.8281 4.8438-5.8281 4.8438-17.156z"/>
<path id="h" d="m34.281 27.484q-10.891 0-15.094-2.4844t-4.2031-8.5q0-4.7812 3.1562-7.5938 3.1562-2.7969 8.5625-2.7969 7.4844 0 12 5.2969t4.5156 14.078v2zm17.922 3.7188v-31.203h-8.9844v8.2969q-3.0781-4.9688-7.6719-7.3438t-11.234-2.375q-8.3906 0-13.359 4.7188-4.9531 4.7188-4.9531 12.625 0 9.2188 6.1719 13.906 6.1875 4.6875 18.438 4.6875h12.609v0.89062q0 6.2031-4.0781 9.5938t-11.453 3.3906q-4.6875 0-9.1406-1.125-4.4375-1.125-8.5312-3.375v8.3125q4.9219 1.9062 9.5625 2.8438 4.6406 0.95312 9.0312 0.95312 11.875 0 17.734-6.1562 5.8594-6.1406 5.8594-18.641z"/>
<path id="j" d="m9.4219 75.984h8.9844v-75.984h-8.9844z"/>
</defs>
<use xlink:href="#k"/>
<use x="44.083984" xlink:href="#e"/>
<use x="105.607422" xlink:href="#i"/>
<use x="144.970703" xlink:href="#l"/>
<use x="242.382812" xlink:href="#d"/>
<use x="270.166016" xlink:href="#g"/>
<use x="333.544922" xlink:href="#h"/>
<use x="394.824219" xlink:href="#j"/>
</g>
</g>
<path d="m71.227 204.76 0.90989-5.3963q0.39904-2.3666-1.9676-2.7656l-7.6347-1.2873q-2.3666-0.39904-2.7656 1.9676l-0.90989 5.3963q-0.39904 2.3666 1.9676 2.7656l7.6347 1.2873q2.3666 0.39904 2.7656-1.9676z" clip-path="url(#a)" fill="#fff" stroke="#fff"/>
<g clip-path="url(#a)">
<g transform="translate(67.22 204.08) rotate(-80.429) scale(.08 -.08)">
<defs>
<path id="r" d="m34.188 63.188-13.391-36.281h26.812zm-5.5781 9.7188h11.188l27.781-72.906h-10.25l-6.6406 18.703h-32.859l-6.6406-18.703h-10.406z"/>
</defs>
<use xlink:href="#r"/>
</g>
</g>
<path d="m82.018 203.77 0.26309-4.8166q0.1309-2.3964-2.2655-2.5273l-7.731-0.42228q-2.3964-0.1309-2.5273 2.2655l-0.26309 4.8166q-0.1309 2.3964 2.2655 2.5273l7.731 0.42228q2.3964 0.1309 2.5273-2.2655z" clip-path="url(#a)" fill="#fff" stroke="#fff"/>
<g clip-path="url(#a)">
<g transform="translate(77.96 203.55) rotate(-86.874) scale(.08 -.08)">
<defs>
<path id="ai" d="m19.672 64.797v-27.391h12.406q6.8906 0 10.641 3.5625 3.7656 3.5625 3.7656 10.156 0 6.5469-3.7656 10.109-3.75 3.5625-10.641 3.5625zm-9.8594 8.1094h22.266q12.266 0 18.531-5.5469 6.2812-5.5469 6.2812-16.234 0-10.797-6.2812-16.312-6.2656-5.5156-18.531-5.5156h-12.406v-29.297h-9.8594z"/>
</defs>
<use xlink:href="#ai"/>
</g>
</g>
<path d="m94.37 155.62 2.2262 4.9992q0.97631 2.1924 3.1688 1.2161l7.0729-3.1496q2.1924-0.97631 1.2161-3.1688l-2.2262-4.9992q-0.97631-2.1924-3.1688-1.2161l-7.0729 3.1496q-2.1924 0.97631-1.2161 3.1688z" clip-path="url(#a)" fill="#fff" stroke="#fff"/>
<g clip-path="url(#a)">
<g transform="translate(98.082 153.96) rotate(65.996) scale(.08 -.08)">
<use xlink:href="#r"/>
</g>
</g>
<path d="m341.21 162.22 4.3783-3.2832q1.9201-1.4399 0.48026-3.36l-4.645-6.1944q-1.4399-1.9201-3.36-0.48026l-4.3783 3.2832q-1.9201 1.4399-0.48026 3.36l4.645 6.1944q1.4399 1.9201 3.36 0.48026z" clip-path="url(#a)" fill="#fff" stroke="#fff"/>
<g clip-path="url(#a)">
<g transform="translate(338.77 158.97) rotate(-36.866) scale(.08 -.08)">
<use xlink:href="#r"/>
</g>
</g>
<path d="m386.85 204.57 0.95662-4.5007q0.49897-2.3476-1.8486-2.8465l-7.5733-1.6097q-2.3476-0.49897-2.8465 1.8486l-0.95662 4.5007q-0.49897 2.3476 1.8486 2.8465l7.5733 1.6097q2.3476 0.49897 2.8465-1.8486z" clip-path="url(#a)" fill="#fff" stroke="#fff"/>
<g clip-path="url(#a)">
<g transform="translate(382.87 203.73) rotate(-78) scale(.08 -.08)">
<defs>
<path id="p" d="m9.8125 72.906h41.891v-8.3125h-32.031v-21.484h28.906v-8.2969h-28.906v-34.812h-9.8594z"/>
</defs>
<use xlink:href="#p"/>
</g>
</g>
<path d="m475.56 159.76 4.4142 2.5116q2.086 1.1869 3.2729-0.8991l3.8289-6.7295q1.1869-2.086-0.8991-3.2729l-4.4142-2.5116q-2.086-1.1869-3.2729 0.8991l-3.8289 6.7295q-1.1869 2.086 0.8991 3.2729z" clip-path="url(#a)" fill="#fff" stroke="#fff"/>
<g clip-path="url(#a)">
<g transform="translate(477.57 156.23) rotate(29.639) scale(.08 -.08)">
<defs>
<path id="ah" d="m53.516 70.516v-9.625q-5.6094 2.6875-10.594 4-4.9844 1.3281-9.625 1.3281-8.0469 0-12.422-3.125t-4.375-8.8906q0-4.8438 2.9062-7.3125 2.9062-2.4531 11.016-3.9688l5.9531-1.2188q11.031-2.1094 16.281-7.4062t5.25-14.172q0-10.609-7.1094-16.078-7.0938-5.4688-20.812-5.4688-5.1719 0-11.016 1.1719-5.8281 1.1719-12.078 3.4688v10.156q6-3.3594 11.766-5.0781 5.7656-1.7031 11.328-1.7031 8.4375 0 13.031 3.3125 4.5938 3.3281 4.5938 9.4844 0 5.3594-3.2969 8.3906t-10.812 4.5469l-6.0156 1.1719q-11.031 2.1875-15.969 6.875-4.9219 4.6875-4.9219 13.047 0 9.6719 6.8125 15.234t18.766 5.5625q5.1406 0 10.453-0.9375 5.3281-0.92188 10.891-2.7656z"/>
</defs>
<use xlink:href="#ah"/>
</g>
</g>
<path d="m271.11 250.64 1.2641-4.4242q0.65936-2.3076-1.6483-2.967l-7.4446-2.1271q-2.3076-0.65936-2.967 1.6483l-1.2641 4.4242q-0.65936 2.3076 1.6483 2.967l7.4446 2.1271q2.3076 0.65936 2.967-1.6483z" clip-path="url(#a)" fill="#fff" stroke="#fff"/>
<g clip-path="url(#a)">
<g transform="translate(267.2 249.53) rotate(-74.054) scale(.08 -.08)">
<use xlink:href="#p"/>
</g>
</g>
<path d="m284.89 245.75 1.5347 5.3713q0.65936 2.3076 2.967 1.6483l7.4446-2.1271q2.3076-0.65936 1.6483-2.967l-1.5347-5.3713q-0.65936-2.3076-2.967-1.6483l-7.4446 2.1271q-2.3076 0.65936-1.6483 2.967z" clip-path="url(#a)" fill="#fff" stroke="#fff"/>
<g clip-path="url(#a)">
<g transform="translate(288.8 244.63) rotate(74.054) scale(.08 -.08)">
<defs>
<path id="q" d="m64.406 67.281v-10.391q-4.9844 4.6406-10.625 6.9219-5.6406 2.2969-11.984 2.2969-12.5 0-19.141-7.6406t-6.6406-22.094q0-14.406 6.6406-22.047t19.141-7.6406q6.3438 0 11.984 2.2969t10.625 6.9375v-10.312q-5.1719-3.5156-10.969-5.2812-5.7812-1.75-12.219-1.75-16.562 0-26.094 10.125-9.5156 10.141-9.5156 27.672 0 17.578 9.5156 27.703 9.5312 10.141 26.094 10.141 6.5312 0 12.312-1.7344 5.7969-1.7344 10.875-5.2031z"/>
</defs>
<use xlink:href="#q"/>
</g>
</g>
<path d="m355.55 320.09v33.808q0 2.4 2.4 2.4h7.7425q2.4 0 2.4-2.4v-33.808q0-2.4-2.4-2.4h-7.7425q-2.4 0-2.4 2.4z" clip-path="url(#a)" fill="#fff" stroke="#fff"/>
<g clip-path="url(#a)">
<g transform="translate(359.61 320.09) rotate(90) scale(.08 -.08)">
<use xlink:href="#k"/>
<use x="44.083984" xlink:href="#e"/>
<use x="105.607422" xlink:href="#i"/>
<use x="144.970703" xlink:href="#l"/>
<use x="242.382812" xlink:href="#d"/>
<use x="270.166016" xlink:href="#g"/>
<use x="333.544922" xlink:href="#h"/>
<use x="394.824219" xlink:href="#j"/>
</g>
</g>
<path d="m493.81 253.47 4.632-3.0732q1.9999-1.3269 0.673-3.3267l-4.2805-6.4516q-1.3269-1.9999-3.3267-0.673l-4.632 3.0732q-1.9999 1.3269-0.673 3.3267l4.2805 6.4516q1.3269 1.9999 3.3267 0.673z" clip-path="url(#a)" fill="#fff" stroke="#fff"/>
<g clip-path="url(#a)">
<g transform="translate(491.57 250.08) rotate(-33.563) scale(.08 -.08)">
<defs>
<path id="u" d="m44.391 34.188q3.1719-1.0781 6.1719-4.5938t6.0312-9.6719l10.016-19.922h-10.609l-9.3125 18.703q-3.625 7.3281-7.0156 9.7188t-9.25 2.3906h-10.75v-30.812h-9.8594v72.906h22.266q12.5 0 18.656-5.2344 6.1562-5.2188 6.1562-15.766 0-6.8906-3.2031-11.438-3.2031-4.5312-9.2969-6.2812zm-24.719 30.609v-25.875h12.406q7.125 0 10.766 3.2969t3.6406 9.6875-3.6406 9.6406-10.766 3.25z"/>
</defs>
<use xlink:href="#u"/>
</g>
</g>
<path d="m530.01 252.34 2.7941-3.6557q1.4574-1.9068-0.44939-3.3642l-6.1515-4.7017q-1.9068-1.4574-3.3642 0.44939l-2.7941 3.6557q-1.4574 1.9068 0.44939 3.3642l6.1515 4.7017q1.9068 1.4574 3.3642-0.44939z" clip-path="url(#a)" fill="#fff" stroke="#fff"/>
<g clip-path="url(#a)">
<g transform="translate(526.79 249.88) rotate(-52.609) scale(.08 -.08)">
<use xlink:href="#p"/>
</g>
</g>
<path d="m575.41 246.82 2.3525 5.0667q1.0107 2.1768 3.1875 1.1661l7.0225-3.2606q2.1768-1.0107 1.1661-3.1875l-2.3525-5.0667q-1.0107-2.1768-3.1875-1.1661l-7.0225 3.2606q-2.1768 1.0107-1.1661 3.1875z" clip-path="url(#a)" fill="#fff" stroke="#fff"/>
<g clip-path="url(#a)">
<g transform="translate(579.09 245.1) rotate(65.094) scale(.08 -.08)">
<use xlink:href="#q"/>
</g>
</g>
<path d="m637.71 250.78 5.123 2.8347q2.1 1.162 3.2619-0.93798l3.7486-6.7745q1.162-2.1-0.93798-3.2619l-5.123-2.8347q-2.1-1.162-3.2619 0.93798l-3.7486 6.7745q-1.162 2.1 0.93798 3.2619z" clip-path="url(#a)" fill="#fff" stroke="#fff"/>
<g clip-path="url(#a)">
<g transform="translate(639.68 247.22) rotate(28.957) scale(.08 -.08)">
<use xlink:href="#t"/>
</g>
</g>
<path d="m417.88 320.09v33.808q0 2.4 2.4 2.4h7.7425q2.4 0 2.4-2.4v-33.808q0-2.4-2.4-2.4h-7.7425q-2.4 0-2.4 2.4z" clip-path="url(#a)" fill="#fff" stroke="#fff"/>
<g clip-path="url(#a)">
<g transform="translate(421.95 320.09) rotate(90) scale(.08 -.08)">
<use xlink:href="#k"/>
<use x="44.083984" xlink:href="#e"/>
<use x="105.607422" xlink:href="#i"/>
<use x="144.970703" xlink:href="#l"/>
<use x="242.382812" xlink:href="#d"/>
<use x="270.166016" xlink:href="#g"/>
<use x="333.544922" xlink:href="#h"/>
<use x="394.824219" xlink:href="#j"/>
</g>
</g>
<path d="m485.42 320.09v33.808q0 2.4 2.4 2.4h7.7425q2.4 0 2.4-2.4v-33.808q0-2.4-2.4-2.4h-7.7425q-2.4 0-2.4 2.4z" clip-path="url(#a)" fill="#fff" stroke="#fff"/>
<g clip-path="url(#a)">
<g transform="translate(489.48 320.09) rotate(90) scale(.08 -.08)">
<use xlink:href="#k"/>
<use x="44.083984" xlink:href="#e"/>
<use x="105.607422" xlink:href="#i"/>
<use x="144.970703" xlink:href="#l"/>
<use x="242.382812" xlink:href="#d"/>
<use x="270.166016" xlink:href="#g"/>
<use x="333.544922" xlink:href="#h"/>
<use x="394.824219" xlink:href="#j"/>
</g>
</g>
<path d="m582.91 354.99 13.474-31.006q0.95652-2.2012-1.2446-3.1577l-7.101-3.0858q-2.2012-0.95652-3.1577 1.2446l-13.474 31.006q-0.95652 2.2012 1.2446 3.1577l7.101 3.0858q2.2012 0.95652 3.1577-1.2446z" clip-path="url(#a)" fill="#fff" stroke="#fff"/>
<g clip-path="url(#a)">
<g transform="translate(579.18 353.37) rotate(-66.512) scale(.08 -.08)">
<use xlink:href="#k"/>
<use x="44.083984" xlink:href="#e"/>
<use x="105.607422" xlink:href="#i"/>
<use x="144.970703" xlink:href="#l"/>
<use x="242.382812" xlink:href="#d"/>
<use x="270.166016" xlink:href="#g"/>
<use x="333.544922" xlink:href="#h"/>
<use x="394.824219" xlink:href="#j"/>
</g>
</g>
<path d="m610.37 323.99 13.474 31.006q0.95652 2.2012 3.1577 1.2446l7.101-3.0858q2.2012-0.95652 1.2446-3.1577l-13.474-31.006q-0.95652-2.2012-3.1577-1.2446l-7.101 3.0858q-2.2012 0.95652-1.2446 3.1577z" clip-path="url(#a)" fill="#fff" stroke="#fff"/>
<g clip-path="url(#a)">
<g transform="translate(614.1 322.37) rotate(66.512) scale(.08 -.08)">
<use xlink:href="#k"/>
<use x="44.083984" xlink:href="#e"/>
<use x="105.607422" xlink:href="#i"/>
<use x="144.970703" xlink:href="#l"/>
<use x="242.382812" xlink:href="#d"/>
<use x="270.166016" xlink:href="#g"/>
<use x="333.544922" xlink:href="#h"/>
<use x="394.824219" xlink:href="#j"/>
</g>
</g>
<path d="m246.46 320.09v33.808q0 2.4 2.4 2.4h7.7425q2.4 0 2.4-2.4v-33.808q0-2.4-2.4-2.4h-7.7425q-2.4 0-2.4 2.4z" clip-path="url(#a)" fill="#fff" stroke="#fff"/>
<g clip-path="url(#a)">
<g transform="translate(250.52 320.09) rotate(90) scale(.08 -.08)">
<use xlink:href="#k"/>
<use x="44.083984" xlink:href="#e"/>
<use x="105.607422" xlink:href="#i"/>
<use x="144.970703" xlink:href="#l"/>
<use x="242.382812" xlink:href="#d"/>
<use x="270.166016" xlink:href="#g"/>
<use x="333.544922" xlink:href="#h"/>
<use x="394.824219" xlink:href="#j"/>
</g>
</g>
<path d="m298.4 320.09v33.808q0 2.4 2.4 2.4h7.7425q2.4 0 2.4-2.4v-33.808q0-2.4-2.4-2.4h-7.7425q-2.4 0-2.4 2.4z" clip-path="url(#a)" fill="#fff" stroke="#fff"/>
<g clip-path="url(#a)">
<g transform="translate(302.47 320.09) rotate(90) scale(.08 -.08)">
<use xlink:href="#k"/>
<use x="44.083984" xlink:href="#e"/>
<use x="105.607422" xlink:href="#i"/>
<use x="144.970703" xlink:href="#l"/>
<use x="242.382812" xlink:href="#d"/>
<use x="270.166016" xlink:href="#g"/>
<use x="333.544922" xlink:href="#h"/>
<use x="394.824219" xlink:href="#j"/>
</g>
</g>
<path d="m43.859 320.09v33.808q0 2.4 2.4 2.4h7.7425q2.4 0 2.4-2.4v-33.808q0-2.4-2.4-2.4h-7.7425q-2.4 0-2.4 2.4z" clip-path="url(#a)" fill="#fff" stroke="#fff"/>
<g clip-path="url(#a)">
<g transform="translate(47.922 320.09) rotate(90) scale(.08 -.08)">
<use xlink:href="#k"/>
<use x="44.083984" xlink:href="#e"/>
<use x="105.607422" xlink:href="#i"/>
<use x="144.970703" xlink:href="#l"/>
<use x="242.382812" xlink:href="#d"/>
<use x="270.166016" xlink:href="#g"/>
<use x="333.544922" xlink:href="#h"/>
<use x="394.824219" xlink:href="#j"/>
</g>
</g>
<path d="m64.638 320.09v33.808q0 2.4 2.4 2.4h7.7425q2.4 0 2.4-2.4v-33.808q0-2.4-2.4-2.4h-7.7425q-2.4 0-2.4 2.4z" clip-path="url(#a)" fill="#fff" stroke="#fff"/>
<g clip-path="url(#a)">
<g transform="translate(68.702 320.09) rotate(90) scale(.08 -.08)">
<use xlink:href="#k"/>
<use x="44.083984" xlink:href="#e"/>
<use x="105.607422" xlink:href="#i"/>
<use x="144.970703" xlink:href="#l"/>
<use x="242.382812" xlink:href="#d"/>
<use x="270.166016" xlink:href="#g"/>
<use x="333.544922" xlink:href="#h"/>
<use x="394.824219" xlink:href="#j"/>
</g>
</g>
<path d="m114.54 251.03 1.4562-5.3646q0.62871-2.3162-1.6875-2.9449l-7.4721-2.0282q-2.3162-0.62871-2.9449 1.6875l-1.4562 5.3646q-0.62871 2.3162 1.6875 2.9449l7.4721 2.0282q2.3162 0.62871 2.9449-1.6875z" clip-path="url(#a)" fill="#fff" stroke="#fff"/>
<g clip-path="url(#a)">
<g transform="translate(110.62 249.97) rotate(-74.813) scale(.08 -.08)">
<use xlink:href="#u"/>
</g>
</g>
<path d="m127.11 245.66 1.4634 5.3912q0.62871 2.3162 2.9449 1.6875l7.4721-2.0282q2.3162-0.62871 1.6875-2.9449l-1.4634-5.3912q-0.62871-2.3162-2.9449-1.6875l-7.4721 2.0282q-2.3162 0.62871-1.6875 2.9449z" clip-path="url(#a)" fill="#fff" stroke="#fff"/>
<g clip-path="url(#a)">
<g transform="translate(131.03 244.59) rotate(74.813) scale(.08 -.08)">
<use xlink:href="#q"/>
</g>
</g>
<path d="m90.612 320.09v33.808q0 2.4 2.4 2.4h7.7425q2.4 0 2.4-2.4v-33.808q0-2.4-2.4-2.4h-7.7425q-2.4 0-2.4 2.4z" clip-path="url(#a)" fill="#fff" stroke="#fff"/>
<g clip-path="url(#a)">
<g transform="translate(94.676 320.09) rotate(90) scale(.08 -.08)">
<use xlink:href="#k"/>
<use x="44.083984" xlink:href="#e"/>
<use x="105.607422" xlink:href="#i"/>
<use x="144.970703" xlink:href="#l"/>
<use x="242.382812" xlink:href="#d"/>
<use x="270.166016" xlink:href="#g"/>
<use x="333.544922" xlink:href="#h"/>
<use x="394.824219" xlink:href="#j"/>
</g>
</g>
<path d="m139.93 354.8 6.7191-33.133q0.47699-2.3521-1.8751-2.8291l-7.588-1.5388q-2.3521-0.47699-2.8291 1.8751l-6.7191 33.133q-0.47699 2.3521 1.8751 2.8291l7.588 1.5388q2.3521 0.47699 2.8291-1.8751z" clip-path="url(#a)" fill="#fff" stroke="#fff"/>
<g clip-path="url(#a)">
<g transform="translate(135.95 353.99) rotate(-78.536) scale(.08 -.08)">
<use xlink:href="#k"/>
<use x="44.083984" xlink:href="#e"/>
<use x="105.607422" xlink:href="#i"/>
<use x="144.970703" xlink:href="#l"/>
<use x="242.382812" xlink:href="#d"/>
<use x="270.166016" xlink:href="#g"/>
<use x="333.544922" xlink:href="#h"/>
<use x="394.824219" xlink:href="#j"/>
</g>
</g>
<path d="m145.82 321.67 6.7191 33.133q0.47699 2.3521 2.8291 1.8751l7.588-1.5388q2.3521-0.47699 1.8751-2.8291l-6.7191-33.133q-0.47699-2.3521-2.8291-1.8751l-7.588 1.5388q-2.3521 0.47699-1.8751 2.8291z" clip-path="url(#a)" fill="#fff" stroke="#fff"/>
<g clip-path="url(#a)">
<g transform="translate(149.8 320.86) rotate(78.536) scale(.08 -.08)">
<use xlink:href="#k"/>
<use x="44.083984" xlink:href="#e"/>
<use x="105.607422" xlink:href="#i"/>
<use x="144.970703" xlink:href="#l"/>
<use x="242.382812" xlink:href="#d"/>
<use x="270.166016" xlink:href="#g"/>
<use x="333.544922" xlink:href="#h"/>
<use x="394.824219" xlink:href="#j"/>
</g>
</g>
<path d="m199.7 320.09v33.808q0 2.4 2.4 2.4h7.7425q2.4 0 2.4-2.4v-33.808q0-2.4-2.4-2.4h-7.7425q-2.4 0-2.4 2.4z" clip-path="url(#a)" fill="#fff" stroke="#fff"/>
<g clip-path="url(#a)">
<g transform="translate(203.77 320.09) rotate(90) scale(.08 -.08)">
<use xlink:href="#k"/>
<use x="44.083984" xlink:href="#e"/>
<use x="105.607422" xlink:href="#i"/>
<use x="144.970703" xlink:href="#l"/>
<use x="242.382812" xlink:href="#d"/>
<use x="270.166016" xlink:href="#g"/>
<use x="333.544922" xlink:href="#h"/>
<use x="394.824219" xlink:href="#j"/>
</g>
</g>
<path d="m719.18 320.09v33.808q0 2.4 2.4 2.4h7.7425q2.4 0 2.4-2.4v-33.808q0-2.4-2.4-2.4h-7.7425q-2.4 0-2.4 2.4z" clip-path="url(#a)" fill="#fff" stroke="#fff"/>
<g clip-path="url(#a)">
<g transform="translate(723.25 320.09) rotate(90) scale(.08 -.08)">
<use xlink:href="#k"/>
<use x="44.083984" xlink:href="#e"/>
<use x="105.607422" xlink:href="#i"/>
<use x="144.970703" xlink:href="#l"/>
<use x="242.382812" xlink:href="#d"/>
<use x="270.166016" xlink:href="#g"/>
<use x="333.544922" xlink:href="#h"/>
<use x="394.824219" xlink:href="#j"/>
</g>
</g>
<defs>
<path id="b" d="m0 8.6603c2.2967 0 4.4997-0.9125 6.1237-2.5365 1.624-1.624 2.5365-3.827 2.5365-6.1237s-0.9125-4.4997-2.5365-6.1237c-1.624-1.624-3.827-2.5365-6.1237-2.5365s-4.4997 0.9125-6.1237 2.5365c-1.624 1.624-2.5365 3.827-2.5365 6.1237s0.9125 4.4997 2.5365 6.1237c1.624 1.624 3.827 2.5365 6.1237 2.5365z"/>
</defs>
<g clip-path="url(#a)" fill="#ffffff" stroke="#ffffff">
<use x="34.545455" y="381.818182" xlink:href="#b"/>
<use x="50.12987" y="381.818182" xlink:href="#b"/>
<use x="70.909091" y="381.818182" xlink:href="#b"/>
<use x="96.883117" y="381.818182" xlink:href="#b"/>
<use x="128.051948" y="381.818182" xlink:href="#b"/>
<use x="164.415584" y="381.818182" xlink:href="#b"/>
<use x="205.974026" y="381.818182" xlink:href="#b"/>
<use x="252.727273" y="381.818182" xlink:href="#b"/>
<use x="304.675325" y="381.818182" xlink:href="#b"/>
<use x="361.818182" y="381.818182" xlink:href="#b"/>
<use x="424.155844" y="381.818182" xlink:href="#b"/>
<use x="491.688312" y="381.818182" xlink:href="#b"/>
<use x="564.415584" y="381.818182" xlink:href="#b"/>
<use x="642.337662" y="381.818182" xlink:href="#b"/>
<use x="725.454545" y="381.818182" xlink:href="#b"/>
<use x="180.487013" y="18.181818" xlink:href="#b"/>
<use x="34.545455" y="292.160663" xlink:href="#b"/>
<use x="80.865801" y="109.874369" xlink:href="#b"/>
<use x="400.562771" y="109.874369" xlink:href="#b"/>
<use x="278.701299" y="201.25591" xlink:href="#b"/>
<use x="361.818182" y="292.160663" xlink:href="#b"/>
<use x="561.168831" y="201.25591" xlink:href="#b"/>
<use x="424.155844" y="292.160663" xlink:href="#b"/>
<use x="491.688312" y="292.160663" xlink:href="#b"/>
<use x="603.376623" y="292.160663" xlink:href="#b"/>
<use x="252.727273" y="292.160663" xlink:href="#b"/>
<use x="304.675325" y="292.160663" xlink:href="#b"/>
<use x="50.12987" y="292.160663" xlink:href="#b"/>
<use x="70.909091" y="292.160663" xlink:href="#b"/>
<use x="121.558442" y="201.25591" xlink:href="#b"/>
<use x="96.883117" y="292.160663" xlink:href="#b"/>
<use x="146.233766" y="292.160663" xlink:href="#b"/>
<use x="205.974026" y="292.160663" xlink:href="#b"/>
<use x="725.454545" y="292.160663" xlink:href="#b"/>
</g>
<g clip-path="url(#a)">
<g transform="translate(20.188 384.58) scale(.1 -.1)">
<defs>
<path id="ag" d="m3.3281 72.906h9.9531l15.328-61.625 15.281 61.625h11.094l15.328-61.625 15.281 61.625h10.016l-18.312-72.906h-12.406l-15.375 63.281-15.531-63.281h-12.406z"/>
<path id="s" d="m54.891 33.016v-33.016h-8.9844v32.719q0 7.7656-3.0312 11.609-3.0312 3.8594-9.0781 3.8594-7.2812 0-11.484-4.6406-4.2031-4.625-4.2031-12.641v-30.906h-9.0312v75.984h9.0312v-29.797q3.2344 4.9375 7.5938 7.375 4.375 2.4375 10.094 2.4375 9.4219 0 14.25-5.8281 4.8438-5.8281 4.8438-17.156z"/>
</defs>
<use xlink:href="#ag"/>
<use x="98.876953" xlink:href="#s"/>
<use x="162.255859" xlink:href="#e"/>
<use x="223.779297" xlink:href="#g"/>
</g>
</g>
<g clip-path="url(#a)">
<g transform="translate(48.655 384.58) scale(.1 -.1)">
<defs>
<path id="al" d="m9.8125 72.906h9.8594v-72.906h-9.8594z"/>
</defs>
<use xlink:href="#al"/>
</g>
</g>
<g clip-path="url(#a)">
<g transform="translate(53.222 384.58) scale(.1 -.1)">
<defs>
<path id="ap" d="m2.9844 54.688h9.5156l17.094-45.891 17.094 45.891h9.5156l-20.516-54.688h-12.203z"/>
<path id="av" d="m45.406 46.391v29.594h8.9844v-75.984h-8.9844v8.2031q-2.8281-4.875-7.1562-7.25-4.3125-2.375-10.375-2.375-9.9062 0-16.141 7.9062-6.2188 7.9219-6.2188 20.812t6.2188 20.797q6.2344 7.9062 16.141 7.9062 6.0625 0 10.375-2.375 4.3281-2.3594 7.1562-7.2344zm-30.609-19.094q0-9.9062 4.0781-15.547t11.203-5.6406 11.219 5.6406q4.1094 5.6406 4.1094 15.547t-4.1094 15.547q-4.0938 5.6406-11.219 5.6406t-11.203-5.6406-4.0781-15.547z"/>
</defs>
<use xlink:href="#h"/>
<use x="61.279297" xlink:href="#i"/>
<use x="100.642578" xlink:href="#i"/>
<use x="141.755859" xlink:href="#d"/>
<use x="169.539062" xlink:href="#ap"/>
<use x="228.71875" xlink:href="#e"/>
<use x="290.242188" xlink:href="#av"/>
</g>
</g>
<g clip-path="url(#a)">
<g transform="translate(92.325 384.58) scale(.1 -.1)">
<use xlink:href="#d"/>
<use x="27.783203" xlink:href="#g"/>
</g>
</g>
<g clip-path="url(#a)">
<g transform="translate(117.15 384.58) scale(.1 -.1)">
<defs>
<path id="aj" d="m9.8125 72.906h13.281l32.328-60.984v60.984h9.5625v-72.906h-13.281l-32.312 60.984v-60.984h-9.5781z"/>
<path id="ac" d="m4.2031 54.688h8.9844l11.234-42.672 11.172 42.672h10.594l11.234-42.672 11.188 42.672h8.9844l-14.312-54.688h-10.594l-11.766 44.828-11.812-44.828h-10.609z"/>
</defs>
<use xlink:href="#aj"/>
<use x="74.804688" xlink:href="#e"/>
<use x="136.328125" xlink:href="#ac"/>
</g>
</g>
<g clip-path="url(#a)">
<g transform="translate(154.01 384.58) scale(.1 -.1)">
<defs>
<path id="af" d="m-0.20312 72.906h10.609l20.203-29.984 20.078 29.984h10.594l-25.781-38.188v-34.719h-9.9062v34.719z"/>
<path id="o" d="m30.609 48.391q-7.2188 0-11.422-5.6406t-4.2031-15.453 4.1719-15.453q4.1875-5.6406 11.453-5.6406 7.1875 0 11.375 5.6562 4.2031 5.6719 4.2031 15.438 0 9.7188-4.2031 15.406-4.1875 5.6875-11.375 5.6875zm0 7.6094q11.719 0 18.406-7.625 6.7031-7.6094 6.7031-21.078 0-13.422-6.7031-21.078-6.6875-7.6406-18.406-7.6406-11.766 0-18.438 7.6406-6.6562 7.6562-6.6562 21.078 0 13.469 6.6562 21.078 6.6719 7.625 18.438 7.625z"/>
<path id="at" d="m9.0781 75.984h9.0312v-44.875l26.812 23.578h11.469l-29-25.578 30.234-29.109h-11.719l-27.797 26.703v-26.703h-9.0312z"/>
</defs>
<use xlink:href="#af"/>
<use x="47.833984" xlink:href="#o"/>
<use x="109.015625" xlink:href="#i"/>
<use x="150.128906" xlink:href="#at"/>
</g>
</g>
<g clip-path="url(#a)">
<g transform="translate(204.38 384.58) scale(.1 -.1)">
<defs>
<path id="ao" d="m11.719 12.406h10.297v-8.4062l-8-15.625h-6.2969l4 15.625z"/>
</defs>
<use xlink:href="#ao"/>
</g>
</g>
<g clip-path="url(#a)">
<g transform="translate(244.52 384.58) scale(.1 -.1)">
<defs>
<path id="m" d="m18.312 70.219v-15.531h18.5v-6.9844h-18.5v-29.688q0-6.6875 1.8281-8.5938t7.4531-1.9062h9.2188v-7.5156h-9.2188q-10.406 0-14.359 3.875-3.9531 3.8906-3.9531 14.141v29.688h-6.5938v6.9844h6.5938v15.531z"/>
</defs>
<use xlink:href="#m"/>
<use x="39.208984" xlink:href="#s"/>
<use x="102.587891" xlink:href="#e"/>
</g>
</g>
<g clip-path="url(#a)">
<g transform="translate(283.07 384.58) scale(.1 -.1)">
<defs>
<path id="ar" d="m14.797 27.297q0-9.9062 4.0781-15.547t11.203-5.6406 11.219 5.6406q4.1094 5.6406 4.1094 15.547t-4.1094 15.547q-4.0938 5.6406-11.219 5.6406t-11.203-5.6406-4.0781-15.547zm30.609-19.094q-2.8281-4.875-7.1562-7.25-4.3125-2.375-10.375-2.375-9.9062 0-16.141 7.9062-6.2188 7.9219-6.2188 20.812t6.2188 20.797q6.2344 7.9062 16.141 7.9062 6.0625 0 10.375-2.375 4.3281-2.3594 7.1562-7.2344v8.2969h8.9844v-75.484h-8.9844z"/>
<path id="aq" d="m8.5 21.578v33.109h8.9844v-32.766q0-7.7656 3.0156-11.656 3.0312-3.875 9.0938-3.875 7.2656 0 11.484 4.6406 4.2344 4.6406 4.2344 12.656v31h8.9844v-54.688h-8.9844v8.4062q-3.2656-4.9844-7.5938-7.4062-4.3125-2.4219-10.031-2.4219-9.4219 0-14.312 5.8594-4.875 5.8594-4.875 17.141z"/>
<path id="ad" d="m44.281 53.078v-8.5q-3.7969 1.9531-7.9062 2.9219-4.0938 0.98438-8.5 0.98438-6.6875 0-10.031-2.0469t-3.3438-6.1562q0-3.125 2.3906-4.9062t9.625-3.3906l3.0781-0.6875q9.5625-2.0469 13.594-5.7812t4.0312-10.422q0-7.625-6.0312-12.078-6.0312-4.4375-16.578-4.4375-4.3906 0-9.1562 0.85938t-10.031 2.5625v9.2812q4.9844-2.5938 9.8125-3.8906 4.8281-1.2812 9.5781-1.2812 6.3438 0 9.75 2.1719 3.4219 2.1719 3.4219 6.125 0 3.6562-2.4688 5.6094-2.4531 1.9531-10.812 3.7656l-3.125 0.73438q-8.3438 1.75-12.062 5.3906-3.7031 3.6406-3.7031 9.9844 0 7.7188 5.4688 11.906 5.4688 4.2031 15.531 4.2031 4.9688 0 9.3594-0.73438 4.4062-0.71875 8.1094-2.1875z"/>
</defs>
<use xlink:href="#ar"/>
<use x="63.476562" xlink:href="#aq"/>
<use x="126.855469" xlink:href="#e"/>
<use x="188.378906" xlink:href="#ad"/>
<use x="240.478516" xlink:href="#m"/>
<use x="279.6875" xlink:href="#d"/>
<use x="307.470703" xlink:href="#o"/>
<use x="368.652344" xlink:href="#g"/>
</g>
</g>
<g clip-path="url(#a)">
<g transform="translate(352.06 384.58) scale(.1 -.1)">
<use xlink:href="#ac"/>
<use x="81.787109" xlink:href="#h"/>
<use x="143.066406" xlink:href="#ad"/>
</g>
</g>
<g clip-path="url(#a)">
<g transform="translate(419.13 384.58) scale(.1 -.1)">
<use xlink:href="#h"/>
<use x="61.279297" xlink:href="#m"/>
</g>
</g>
<g clip-path="url(#a)">
<g transform="translate(483.48 384.58) scale(.1 -.1)">
<use xlink:href="#m"/>
<use x="39.208984" xlink:href="#s"/>
<use x="102.587891" xlink:href="#e"/>
</g>
</g>
<g clip-path="url(#a)">
<g transform="translate(547.67 384.58) scale(.1 -.1)">
<defs>
<path id="ae" d="m48.688 27.297q0 9.9062-4.0781 15.547t-11.203 5.6406q-7.1406 0-11.219-5.6406t-4.0781-15.547 4.0781-15.547 11.219-5.6406q7.125 0 11.203 5.6406t4.0781 15.547zm-30.578 19.094q2.8438 4.875 7.1562 7.2344 4.3281 2.375 10.328 2.375 9.9688 0 16.188-7.9062 6.2344-7.9062 6.2344-20.797t-6.2344-20.812q-6.2188-7.9062-16.188-7.9062-6 0-10.328 2.375-4.3125 2.375-7.1562 7.25v-8.2031h-9.0312v75.984h9.0312z"/>
<path id="au" d="m45.406 27.984q0 9.7656-4.0312 15.125-4.0156 5.375-11.297 5.375-7.2188 0-11.25-5.375-4.0312-5.3594-4.0312-15.125 0-9.7188 4.0312-15.094t11.25-5.375q7.2812 0 11.297 5.375 4.0312 5.375 4.0312 15.094zm8.9844-21.203q0-13.953-6.2031-20.766-6.1875-6.8125-18.984-6.8125-4.7344 0-8.9375 0.70312t-8.1562 2.1719v8.7344q3.9531-2.1406 7.8125-3.1562 3.8594-1.0312 7.8594-1.0312 8.8438 0 13.234 4.6094t4.3906 13.938v4.4531q-2.7812-4.8438-7.125-7.2344t-10.406-2.3906q-10.047 0-16.203 7.6562-6.1562 7.6719-6.1562 20.328 0 12.688 6.1562 20.344 6.1562 7.6719 16.203 7.6719 6.0625 0 10.406-2.3906t7.125-7.2188v8.2969h8.9844z"/>
</defs>
<use xlink:href="#ae"/>
<use x="63.476562" xlink:href="#o"/>
<use x="124.658203" xlink:href="#d"/>
<use x="152.441406" xlink:href="#j"/>
<use x="180.224609" xlink:href="#d"/>
<use x="208.007812" xlink:href="#g"/>
<use x="271.386719" xlink:href="#au"/>
</g>
</g>
<g clip-path="url(#a)">
<g transform="translate(629.59 384.58) scale(.1 -.1)">
<defs>
<path id="as" d="m18.109 8.2031v-29h-9.0312v75.484h9.0312v-8.2969q2.8438 4.875 7.1562 7.2344 4.3281 2.375 10.328 2.375 9.9688 0 16.188-7.9062 6.2344-7.9062 6.2344-20.797t-6.2344-20.812q-6.2188-7.9062-16.188-7.9062-6 0-10.328 2.375-4.3125 2.375-7.1562 7.25zm30.578 19.094q0 9.9062-4.0781 15.547t-11.203 5.6406q-7.1406 0-11.219-5.6406t-4.0781-15.547 4.0781-15.547 11.219-5.6406q7.125 0 11.203 5.6406t4.0781 15.547z"/>
</defs>
<use xlink:href="#as"/>
<use x="63.476562" xlink:href="#o"/>
<use x="124.658203" xlink:href="#d"/>
<use x="152.441406" xlink:href="#g"/>
<use x="215.820312" xlink:href="#m"/>
</g>
</g>
<g clip-path="url(#a)">
<g transform="translate(723.87 384.58) scale(.1 -.1)">
<defs>
<path id="f" d="m10.688 12.406h10.312v-12.406h-10.312z"/>
</defs>
<use xlink:href="#f"/>
</g>
</g>
<g clip-path="url(#a)">
<g transform="translate(172.54 20.941) scale(.1 -.1)">
<defs>
<path id="c" d="m12.406 8.2969h16.109v55.625l-17.531-3.5156v8.9844l17.438 3.5156h9.8594v-64.609h16.109v-8.2969h-41.984z"/>
</defs>
<use xlink:href="#c"/>
<use x="63.623047" xlink:href="#f"/>
<use x="95.410156" xlink:href="#c"/>
</g>
</g>
<g clip-path="url(#a)">
<g transform="translate(26.594 294.92) scale(.1 -.1)">
<defs>
<path id="n" d="m19.188 8.2969h34.422v-8.2969h-46.281v8.2969q5.6094 5.8125 15.297 15.594 9.7031 9.7969 12.188 12.641 4.7344 5.3125 6.6094 9 1.8906 3.6875 1.8906 7.25 0 5.8125-4.0781 9.4688-4.0781 3.6719-10.625 3.6719-4.6406 0-9.7969-1.6094-5.1406-1.6094-11-4.8906v9.9688q5.9531 2.3906 11.125 3.6094 5.1875 1.2188 9.4844 1.2188 11.328 0 18.062-5.6719 6.7344-5.6562 6.7344-15.125 0-4.5-1.6875-8.5312-1.6719-4.0156-6.125-9.4844-1.2188-1.4219-7.7656-8.1875-6.5312-6.7656-18.453-18.922z"/>
</defs>
<use xlink:href="#c"/>
<use x="63.623047" xlink:href="#f"/>
<use x="95.410156" xlink:href="#n"/>
</g>
</g>
<g clip-path="url(#a)">
<g transform="translate(72.914 112.63) scale(.1 -.1)">
<defs>
<path id="aa" d="m40.578 39.312q7.0781-1.5156 11.047-6.3125 3.9844-4.7812 3.9844-11.812 0-10.781-7.4219-16.703-7.4219-5.9062-21.094-5.9062-4.5781 0-9.4375 0.90625t-10.031 2.7188v9.5156q4.0938-2.3906 8.9688-3.6094 4.8906-1.2188 10.219-1.2188 9.2656 0 14.125 3.6562t4.8594 10.641q0 6.4531-4.5156 10.078-4.5156 3.6406-12.562 3.6406h-8.5v8.1094h8.8906q7.2656 0 11.125 2.9062t3.8594 8.375q0 5.6094-3.9844 8.6094-3.9688 3.0156-11.391 3.0156-4.0625 0-8.7031-0.89062-4.6406-0.875-10.203-2.7188v8.7812q5.625 1.5625 10.531 2.3438t9.25 0.78125q11.234 0 17.766-5.1094 6.5469-5.0938 6.5469-13.781 0-6.0625-3.4688-10.234t-9.8594-5.7812z"/>
</defs>
<use xlink:href="#c"/>
<use x="63.623047" xlink:href="#f"/>
<use x="95.410156" xlink:href="#aa"/>
</g>
</g>
<g clip-path="url(#a)">
<g transform="translate(392.61 112.63) scale(.1 -.1)">
<defs>
<path id="z" d="m37.797 64.312-24.906-38.922h24.906zm-2.5938 8.5938h12.406v-47.516h10.406v-8.2031h-10.406v-17.188h-9.8125v17.188h-32.906v9.5156z"/>
</defs>
<use xlink:href="#c"/>
<use x="63.623047" xlink:href="#f"/>
<use x="95.410156" xlink:href="#z"/>
</g>
</g>
<g clip-path="url(#a)">
<g transform="translate(270.75 204.02) scale(.1 -.1)">
<defs>
<path id="y" d="m8.2031 72.906h46.875v-4.2031l-26.469-68.703h-10.297l24.906 64.594h-35.016z"/>
</defs>
<use xlink:href="#c"/>
<use x="63.623047" xlink:href="#f"/>
<use x="95.410156" xlink:href="#y"/>
</g>
</g>
<g clip-path="url(#a)">
<g transform="translate(353.87 294.92) scale(.1 -.1)">
<defs>
<path id="x" d="m31.781 34.625q-7.0312 0-11.062-3.7656-4.0156-3.7656-4.0156-10.344 0-6.5938 4.0156-10.359 4.0312-3.7656 11.062-3.7656t11.078 3.7812q4.0625 3.7969 4.0625 10.344 0 6.5781-4.0312 10.344-4.0156 3.7656-11.109 3.7656zm-9.8594 4.1875q-6.3438 1.5625-9.8906 5.9062-3.5312 4.3594-3.5312 10.609 0 8.7344 6.2188 13.812 6.2344 5.0781 17.062 5.0781 10.891 0 17.094-5.0781t6.2031-13.812q0-6.25-3.5469-10.609-3.5312-4.3438-9.8281-5.9062 7.125-1.6562 11.094-6.5 3.9844-4.8281 3.9844-11.797 0-10.609-6.4688-16.281-6.4688-5.6562-18.531-5.6562-12.047 0-18.531 5.6562-6.4688 5.6719-6.4688 16.281 0 6.9688 4 11.797 4.0156 4.8438 11.141 6.5zm-3.6094 15.578q0-5.6562 3.5312-8.8281 3.5469-3.1719 9.9375-3.1719 6.3594 0 9.9375 3.1719 3.5938 3.1719 3.5938 8.8281 0 5.6719-3.5938 8.8438-3.5781 3.1719-9.9375 3.1719-6.3906 0-9.9375-3.1719-3.5312-3.1719-3.5312-8.8438z"/>
</defs>
<use xlink:href="#c"/>
<use x="63.623047" xlink:href="#f"/>
<use x="95.410156" xlink:href="#x"/>
</g>
</g>
<g clip-path="url(#a)">
<g transform="translate(553.22 204.02) scale(.1 -.1)">
<defs>
<path id="w" d="m10.984 1.5156v8.9844q3.7188-1.7656 7.5156-2.6875 3.8125-0.92188 7.4844-0.92188 9.7656 0 14.906 6.5625 5.1562 6.5625 5.8906 19.953-2.8281-4.2031-7.1875-6.4531-4.3438-2.25-9.6094-2.25-10.938 0-17.312 6.6094-6.375 6.625-6.375 18.109 0 11.219 6.6406 18 6.6406 6.7969 17.672 6.7969 12.656 0 19.312-9.7031 6.6719-9.6875 6.6719-28.141 0-17.234-8.1875-27.516-8.1719-10.281-21.984-10.281-3.7188 0-7.5312 0.73438-3.7969 0.73438-7.9062 2.2031zm19.625 30.906q6.6406 0 10.516 4.5312 3.8906 4.5469 3.8906 12.469 0 7.8594-3.8906 12.422-3.875 4.5625-10.516 4.5625t-10.516-4.5625-3.875-12.422q0-7.9219 3.875-12.469 3.875-4.5312 10.516-4.5312z"/>
</defs>
<use xlink:href="#c"/>
<use x="63.623047" xlink:href="#f"/>
<use x="95.410156" xlink:href="#w"/>
</g>
</g>
<g clip-path="url(#a)">
<g transform="translate(413.02 294.92) scale(.1 -.1)">
<defs>
<path id="ab" d="m31.781 66.406q-7.6094 0-11.453-7.5-3.8281-7.4844-3.8281-22.531 0-14.984 3.8281-22.484 3.8438-7.5 11.453-7.5 7.6719 0 11.5 7.5 3.8438 7.5 3.8438 22.484 0 15.047-3.8438 22.531-3.8281 7.5-11.5 7.5zm0 7.8125q12.266 0 18.734-9.7031 6.4688-9.6875 6.4688-28.141 0-18.406-6.4688-28.109-6.4688-9.6875-18.734-9.6875-12.25 0-18.719 9.6875-6.4688 9.7031-6.4688 28.109 0 18.453 6.4688 28.141 6.4688 9.7031 18.719 9.7031z"/>
</defs>
<use xlink:href="#c"/>
<use x="63.623047" xlink:href="#f"/>
<use x="95.410156" xlink:href="#c"/>
<use x="159.033203" xlink:href="#ab"/>
</g>
</g>
<g clip-path="url(#a)">
<g transform="translate(480.56 294.92) scale(.1 -.1)">
<use xlink:href="#c"/>
<use x="63.623047" xlink:href="#f"/>
<use x="95.410156" xlink:href="#c"/>
<use x="159.033203" xlink:href="#c"/>
</g>
</g>
<g clip-path="url(#a)">
<g transform="translate(592.24 294.92) scale(.1 -.1)">
<use xlink:href="#c"/>
<use x="63.623047" xlink:href="#f"/>
<use x="95.410156" xlink:href="#c"/>
<use x="159.033203" xlink:href="#n"/>
</g>
</g>
<g clip-path="url(#a)">
<g transform="translate(241.59 294.92) scale(.1 -.1)">
<use xlink:href="#c"/>
<use x="63.623047" xlink:href="#f"/>
<use x="95.410156" xlink:href="#c"/>
<use x="159.033203" xlink:href="#aa"/>
</g>
</g>
<g clip-path="url(#a)">
<g transform="translate(293.54 294.92) scale(.1 -.1)">
<use xlink:href="#c"/>
<use x="63.623047" xlink:href="#f"/>
<use x="95.410156" xlink:href="#c"/>
<use x="159.033203" xlink:href="#z"/>
</g>
</g>
<g clip-path="url(#a)">
<g transform="translate(38.997 294.92) scale(.1 -.1)">
<defs>
<path id="an" d="m10.797 72.906h38.719v-8.3125h-29.688v-17.859q2.1406 0.73438 4.2812 1.0938 2.1562 0.35938 4.3125 0.35938 12.203 0 19.328-6.6875 7.1406-6.6875 7.1406-18.109 0-11.766-7.3281-18.297-7.3281-6.5156-20.656-6.5156-4.5938 0-9.3594 0.78125-4.75 0.78125-9.8281 2.3438v9.9219q4.3906-2.3906 9.0781-3.5625t9.9062-1.1719q8.4531 0 13.375 4.4375 4.9375 4.4375 4.9375 12.062 0 7.6094-4.9375 12.047-4.9219 4.4531-13.375 4.4531-3.9531 0-7.8906-0.875-3.9219-0.875-8.0156-2.7344z"/>
</defs>
<use xlink:href="#c"/>
<use x="63.623047" xlink:href="#f"/>
<use x="95.410156" xlink:href="#c"/>
<use x="159.033203" xlink:href="#an"/>
</g>
</g>
<g clip-path="url(#a)">
<g transform="translate(59.776 294.92) scale(.1 -.1)">
<defs>
<path id="am" d="m33.016 40.375q-6.6406 0-10.531-4.5469-3.875-4.5312-3.875-12.438 0-7.8594 3.875-12.438 3.8906-4.5625 10.531-4.5625t10.516 4.5625q3.875 4.5781 3.875 12.438 0 7.9062-3.875 12.438-3.875 4.5469-10.516 4.5469zm19.578 30.922v-8.9844q-3.7188 1.75-7.5 2.6719-3.7812 0.9375-7.5 0.9375-9.7656 0-14.922-6.5938-5.1406-6.5938-5.875-19.922 2.875 4.25 7.2188 6.5156 4.3594 2.2656 9.5781 2.2656 10.984 0 17.359-6.6719 6.375-6.6562 6.375-18.125 0-11.234-6.6406-18.031-6.6406-6.7812-17.672-6.7812-12.656 0-19.344 9.6875-6.6875 9.7031-6.6875 28.109 0 17.281 8.2031 27.562t22.016 10.281q3.7188 0 7.5-0.73438t7.8906-2.1875z"/>
</defs>
<use xlink:href="#c"/>
<use x="63.623047" xlink:href="#f"/>
<use x="95.410156" xlink:href="#c"/>
<use x="159.033203" xlink:href="#am"/>
</g>
</g>
<g clip-path="url(#a)">
<g transform="translate(110.43 204.02) scale(.1 -.1)">
<use xlink:href="#c"/>
<use x="63.623047" xlink:href="#f"/>
<use x="95.410156" xlink:href="#c"/>
<use x="159.033203" xlink:href="#y"/>
</g>
</g>
<g clip-path="url(#a)">
<g transform="translate(85.75 294.92) scale(.1 -.1)">
<use xlink:href="#c"/>
<use x="63.623047" xlink:href="#f"/>
<use x="95.410156" xlink:href="#c"/>
<use x="159.033203" xlink:href="#x"/>
</g>
</g>
<g clip-path="url(#a)">
<g transform="translate(135.1 294.92) scale(.1 -.1)">
<use xlink:href="#c"/>
<use x="63.623047" xlink:href="#f"/>
<use x="95.410156" xlink:href="#c"/>
<use x="159.033203" xlink:href="#w"/>
</g>
</g>
<g clip-path="url(#a)">
<g transform="translate(194.84 294.92) scale(.1 -.1)">
<use xlink:href="#c"/>
<use x="63.623047" xlink:href="#f"/>
<use x="95.410156" xlink:href="#n"/>
<use x="159.033203" xlink:href="#ab"/>
</g>
</g>
<g clip-path="url(#a)">
<g transform="translate(714.32 294.92) scale(.1 -.1)">
<use xlink:href="#c"/>
<use x="63.623047" xlink:href="#f"/>
<use x="95.410156" xlink:href="#n"/>
<use x="159.033203" xlink:href="#c"/>
</g>
</g>
<defs>
<clipPath id="a">
<rect width="760" height="400"/>
</clipPath>
</defs>
</svg>
