<?xml version="1.0" encoding="UTF-8"?>
<!DOCTYPE svg  PUBLIC '-//W3C//DTD SVG 1.1//EN'  'http://www.w3.org/Graphics/SVG/1.1/DTD/svg11.dtd'>
<svg width="1368pt" height="720pt" version="1.1" viewBox="0 0 1368 720" xmlns="http://www.w3.org/2000/svg" xmlns:xlink="http://www.w3.org/1999/xlink">
<defs>
<style type="text/css">*{stroke-linecap:butt;stroke-linejoin:round;}</style>
</defs>
<path d="m0 720h1368v-720h-1368z" fill="#fff"/>
<g fill="none" stroke="#000">
<path d="m532.36 33.834-128.61 135.08" clip-path="url(#a)"/>
<path d="m532.36 33.834-278.7 524.53" clip-path="url(#a)"/>
<path d="m532.36 33.834 390.71 524.53" clip-path="url(#a)"/>
<path d="m532.36 33.834 574.01 267.15" clip-path="url(#a)"/>
<path d="m532.36 33.834-326.52 524.53" clip-path="url(#a)"/>
<path d="m532.36 33.834-230.89 524.53" clip-path="url(#a)"/>
<path d="m403.75 168.92-293.53 261.65" clip-path="url(#a)"/>
<path d="m403.75 168.92-54.456 389.45" clip-path="url(#a)"/>
<path d="m403.75 168.92 41.174 261.65" clip-path="url(#a)"/>
<path d="m403.75 168.92 306.82 132.07" clip-path="url(#a)"/>
<path d="m253.66 558.37v127.8" clip-path="url(#a)"/>
<path d="m923.08 558.37v127.8" clip-path="url(#a)"/>
<path d="m1106.4 300.99-111.57 129.58" clip-path="url(#a)"/>
<path d="m1106.4 300.99-15.938 257.38" clip-path="url(#a)"/>
<path d="m1106.4 300.99 127.51 129.58" clip-path="url(#a)"/>
<path d="m994.8 430.57-23.908 127.8" clip-path="url(#a)"/>
<path d="m994.8 430.57 23.908 127.8" clip-path="url(#a)"/>
<path d="m1090.4 558.37-23.908 127.8" clip-path="url(#a)"/>
<path d="m1090.4 558.37 23.908 127.8" clip-path="url(#a)"/>
<path d="m1233.9 430.57-71.723 127.8" clip-path="url(#a)"/>
<path d="m1233.9 430.57-23.908 127.8" clip-path="url(#a)"/>
<path d="m1233.9 430.57 23.908 127.8" clip-path="url(#a)"/>
<path d="m1233.9 430.57 71.723 127.8" clip-path="url(#a)"/>
<path d="m1162.2 558.37v127.8" clip-path="url(#a)"/>
<path d="m1210 558.37v127.8" clip-path="url(#a)"/>
<path d="m1257.8 558.37v127.8" clip-path="url(#a)"/>
<path d="m970.89 558.37v127.8" clip-path="url(#a)"/>
<path d="m1018.7 558.37v127.8" clip-path="url(#a)"/>
<path d="m110.22 430.57-47.815 127.8" clip-path="url(#a)"/>
<path d="m110.22 430.57v127.8" clip-path="url(#a)"/>
<path d="m110.22 430.57 47.815 127.8" clip-path="url(#a)"/>
<path d="m349.29 558.37v127.8" clip-path="url(#a)"/>
<path d="m444.92 430.57-47.815 127.8" clip-path="url(#a)"/>
<path d="m444.92 430.57v127.8" clip-path="url(#a)"/>
<path d="m444.92 430.57 47.815 127.8" clip-path="url(#a)"/>
<path d="m710.56 300.99-42.503 129.58" clip-path="url(#a)"/>
<path d="m710.56 300.99-10.626 129.58" clip-path="url(#a)"/>
<path d="m710.56 300.99 69.067 257.38" clip-path="url(#a)"/>
<path d="m710.56 300.99 37.19 129.58" clip-path="url(#a)"/>
<path d="m710.56 300.99-74.38 257.38" clip-path="url(#a)"/>
<path d="m710.56 300.99 21.251 257.38" clip-path="url(#a)"/>
<path d="m668.06 430.57 207.2 127.8" clip-path="url(#a)" stroke-dasharray="3.7,1.6"/>
<path d="m668.06 430.57-127.51 127.8" clip-path="url(#a)"/>
<path d="m668.06 430.57-79.692 127.8" clip-path="url(#a)"/>
<path d="m699.94 430.57 175.32 127.8" clip-path="url(#a)" stroke-dasharray="3.7,1.6"/>
<path d="m699.94 430.57-15.938 127.8" clip-path="url(#a)"/>
<path d="m699.94 430.57-159.38 127.8" clip-path="url(#a)" stroke-dasharray="3.7,1.6"/>
<path d="m779.63 558.37v127.8" clip-path="url(#a)"/>
<path d="m747.75 430.57 79.692 127.8" clip-path="url(#a)"/>
<path d="m747.75 430.57 127.51 127.8" clip-path="url(#a)"/>
<path d="m747.75 430.57-207.2 127.8" clip-path="url(#a)" stroke-dasharray="3.7,1.6"/>
<path d="m827.45 558.37v127.8" clip-path="url(#a)"/>
<path d="m875.26 558.37v127.8" clip-path="url(#a)"/>
<path d="m684 558.37v127.8" clip-path="url(#a)"/>
<path d="m540.55 558.37v127.8" clip-path="url(#a)"/>
<path d="m588.37 558.37v127.8" clip-path="url(#a)"/>
<path d="m397.11 558.37v127.8" clip-path="url(#a)"/>
<path d="m444.92 558.37v127.8" clip-path="url(#a)"/>
<path d="m492.74 558.37v127.8" clip-path="url(#a)"/>
<path d="m62.4 558.37v127.8" clip-path="url(#a)"/>
<path d="m110.22 558.37v127.8" clip-path="url(#a)"/>
<path d="m158.03 558.37v127.8" clip-path="url(#a)"/>
<path d="m1014.7 168.92-91.646 389.45" clip-path="url(#a)"/>
<path d="m1014.7 168.92 91.646 132.07" clip-path="url(#a)"/>
<path d="m328.7 33.834 75.044 135.08" clip-path="url(#a)"/>
<path d="m328.7 33.834-75.044 524.53" clip-path="url(#a)"/>
<path d="m205.85 558.37v127.8" clip-path="url(#a)"/>
<path d="m301.48 558.37v127.8" clip-path="url(#a)"/>
<path d="m636.18 558.37v127.8" clip-path="url(#a)"/>
<path d="m731.82 558.37v127.8" clip-path="url(#a)"/>
<path d="m1305.6 558.37v127.8" clip-path="url(#a)"/>
</g>
<path d="m470.52 107.88 4.1485-4.3572q1.6549-1.7382-0.08322-3.3931l-5.6074-5.3389q-1.7382-1.6549-3.3931 0.08322l-4.1485 4.3572q-1.6549 1.7382 0.083219 3.3931l5.6074 5.3389q1.7382 1.6549 3.3931-0.083219z" clip-path="url(#a)" fill="#fff" stroke="#fff"/>
<g clip-path="url(#a)">
<defs>
<path id="an" d="m9.8125 72.906h9.8594v-29.891h35.844v29.891h9.8594v-72.906h-9.8594v34.719h-35.844v-34.719h-9.8594z"/>
</defs>
<g transform="translate(467.58 105.08) rotate(-46.405) scale(.08 -.08)">
<use xlink:href="#an"/>
</g>
</g>
<path d="m397.5 301.01 2.0915-3.9364q1.1261-2.1194-0.99329-3.2455l-6.8373-3.6329q-2.1194-1.1261-3.2455 0.99329l-2.0915 3.9364q-1.1261 2.1194 0.99329 3.2455l6.8373 3.6329q2.1194 1.1261 3.2455-0.99329z" clip-path="url(#a)" fill="#fff" stroke="#fff"/>
<g clip-path="url(#a)">
<defs>
<path id="u" d="m9.8125 72.906h9.8594v-64.609h35.5v-8.2969h-45.359z"/>
</defs>
<g transform="translate(393.92 299.1) rotate(-62.017) scale(.08 -.08)">
<use xlink:href="#u"/>
</g>
</g>
<path d="m721.36 298.06 2.6628 3.5748q1.4337 1.9247 3.3584 0.49103l6.2092-4.6251q1.9247-1.4337 0.49103-3.3584l-2.6628-3.5748q-1.4337-1.9247-3.3584-0.49103l-6.2092 4.6251q-1.9247 1.4337-0.49103 3.3584z" clip-path="url(#a)" fill="#fff" stroke="#fff"/>
<g clip-path="url(#a)">
<g transform="translate(724.62 295.63) rotate(53.318) scale(.08 -.08)">
<use xlink:href="#u"/>
</g>
</g>
<path d="m813.99 171.83 5.4544 2.5386q2.1759 1.0127 3.1886-1.1632l3.267-7.0195q1.0127-2.1759-1.1632-3.1886l-5.4544-2.5386q-2.1759-1.0127-3.1886 1.1632l-3.267 7.0195q-1.0127 2.1759 1.1632 3.1886z" clip-path="url(#a)" fill="#fff" stroke="#fff"/>
<g clip-path="url(#a)">
<g transform="translate(815.71 168.14) rotate(24.958) scale(.08 -.08)">
<use xlink:href="#an"/>
</g>
</g>
<path d="m372.88 301.9 3.0942-4.9706q1.2683-2.0375-0.76917-3.3058l-6.573-4.0917q-2.0375-1.2683-3.3058 0.76917l-3.0942 4.9706q-1.2683 2.0375 0.76917 3.3058l6.573 4.0917q2.0375 1.2683 3.3058-0.76917z" clip-path="url(#a)" fill="#fff" stroke="#fff"/>
<g clip-path="url(#a)">
<defs>
<path id="y" d="m8.6875 72.906h9.9219v-44.297q0-11.719 4.2344-16.875 4.25-5.1406 13.781-5.1406 9.4688 0 13.719 5.1406 4.25 5.1562 4.25 16.875v44.297h9.9062v-45.516q0-14.25-7.0625-21.531-7.0469-7.2812-20.812-7.2812-13.828 0-20.891 7.2812-7.0469 7.2812-7.0469 21.531z"/>
</defs>
<g transform="translate(369.43 299.75) rotate(-58.098) scale(.08 -.08)">
<use xlink:href="#y"/>
</g>
</g>
<path d="m421.48 301.31 2.3588-5.3588q0.9669-2.1966-1.2297-3.1635l-7.0864-3.1192q-2.1966-0.9669-3.1635 1.2297l-2.3588 5.3588q-0.9669 2.1966 1.2297 3.1635l7.0864 3.1192q2.1966 0.9669 3.1635-1.2297z" clip-path="url(#a)" fill="#fff" stroke="#fff"/>
<g clip-path="url(#a)">
<g transform="translate(417.76 299.67) rotate(-66.242) scale(.08 -.08)">
<use xlink:href="#y"/>
</g>
</g>
<path d="m258.86 306.47 4.5983-4.0989q1.7916-1.597 0.1946-3.3885l-5.1519-5.7797q-1.597-1.7916-3.3885-0.1946l-4.5983 4.0989q-1.7916 1.597-0.1946 3.3885l5.1519 5.7797q1.597 1.7916 3.3885 0.1946z" clip-path="url(#a)" fill="#fff" stroke="#fff"/>
<g clip-path="url(#a)">
<defs>
<path id="at" d="m19.672 64.797v-56.688h11.922q15.094 0 22.094 6.8281 7 6.8438 7 21.594 0 14.641-7 21.453t-22.094 6.8125zm-9.8594 8.1094h20.266q21.188 0 31.094-8.8125 9.9219-8.8125 9.9219-27.562 0-18.859-9.9688-27.703-9.9531-8.8281-31.047-8.8281h-20.266z"/>
</defs>
<g transform="translate(256.15 303.44) rotate(-41.713) scale(.08 -.08)">
<use xlink:href="#at"/>
</g>
</g>
<path d="m382.35 367.22 0.75784-5.4198q0.33236-2.3769-2.0445-2.7092l-7.6679-1.0722q-2.3769-0.33236-2.7092 2.0445l-0.75784 5.4198q-0.33236 2.3769 2.0445 2.7092l7.6679 1.0722q2.3769 0.33236 2.7092-2.0445z" clip-path="url(#a)" fill="#fff" stroke="#fff"/>
<g clip-path="url(#a)">
<defs>
<path id="v" d="m34.188 63.188-13.391-36.281h26.812zm-5.5781 9.7188h11.188l27.781-72.906h-10.25l-6.6406 18.703h-32.859l-6.6406-18.703h-10.406z"/>
</defs>
<g transform="translate(378.33 366.66) rotate(-82.04) scale(.08 -.08)">
<use xlink:href="#v"/>
</g>
</g>
<path d="m417.77 298.33 0.74986 4.7651q0.37308 2.3708 2.7439 1.9977l7.6484-1.2036q2.3708-0.37308 1.9977-2.7439l-0.74986-4.7651q-0.37308-2.3708-2.7439-1.9977l-7.6484 1.2036q-2.3708 0.37308-1.9977 2.7439z" clip-path="url(#a)" fill="#fff" stroke="#fff"/>
<g clip-path="url(#a)">
<defs>
<path id="al" d="m19.672 64.797v-27.391h12.406q6.8906 0 10.641 3.5625 3.7656 3.5625 3.7656 10.156 0 6.5469-3.7656 10.109-3.75 3.5625-10.641 3.5625zm-9.8594 8.1094h22.266q12.266 0 18.531-5.5469 6.2812-5.5469 6.2812-16.234 0-10.797-6.2812-16.312-6.2656-5.5156-18.531-5.5156h-12.406v-29.297h-9.8594z"/>
</defs>
<g transform="translate(421.78 297.7) rotate(81.057) scale(.08 -.08)">
<use xlink:href="#al"/>
</g>
</g>
<path d="m552.16 239.63 5.0266 2.1638q2.2044 0.94893 3.1534-1.2555l3.0613-7.1116q0.94893-2.2044-1.2555-3.1534l-5.0266-2.1638q-2.2044-0.94893-3.1534 1.2555l-3.0613 7.1116q-0.94893 2.2044 1.2555 3.1534z" clip-path="url(#a)" fill="#fff" stroke="#fff"/>
<g clip-path="url(#a)">
<g transform="translate(553.77 235.9) rotate(23.29) scale(.08 -.08)">
<use xlink:href="#v"/>
</g>
</g>
<path d="m247.39 604.62v35.285q0 2.4 2.4 2.4h7.7425q2.4 0 2.4-2.4v-35.285q0-2.4-2.4-2.4h-7.7425q-2.4 0-2.4 2.4z" clip-path="url(#a)" fill="#fff" stroke="#fff"/>
<g clip-path="url(#a)">
<defs>
<path id="l" d="m-0.29688 72.906h61.672v-8.3125h-25.875v-64.594h-9.9062v64.594h-25.891z"/>
<path id="g" d="m56.203 29.594v-4.3906h-41.312q0.59375-9.2812 5.5938-14.141t13.938-4.8594q5.1719 0 10.031 1.2656t9.6562 3.8125v-8.5q-4.8438-2.0469-9.9219-3.125t-10.297-1.0781q-13.094 0-20.734 7.6094-7.6406 7.625-7.6406 20.625 0 13.422 7.25 21.297 7.25 7.8906 19.562 7.8906 11.031 0 17.453-7.1094 6.4219-7.0938 6.4219-19.297zm-8.9844 2.6406q-0.09375 7.3594-4.125 11.75-4.0312 4.4062-10.672 4.4062-7.5156 0-12.031-4.25t-5.2031-11.969z"/>
<path id="k" d="m41.109 46.297q-1.5156 0.875-3.2969 1.2812-1.7812 0.42188-3.9219 0.42188-7.625 0-11.703-4.9531t-4.0781-14.234v-28.812h-9.0312v54.688h9.0312v-8.5q2.8438 4.9844 7.375 7.3906 4.5469 2.4219 11.047 2.4219 0.92188 0 2.0469-0.125 1.125-0.10938 2.4844-0.35938z"/>
<path id="j" d="m52 44.188q3.375 6.0625 8.0625 8.9375t11.031 2.875q8.5469 0 13.188-5.9844 4.6406-5.9688 4.6406-17v-33.016h-9.0312v32.719q0 7.8594-2.7969 11.656-2.7812 3.8125-8.4844 3.8125-6.9844 0-11.047-4.6406-4.0469-4.625-4.0469-12.641v-30.906h-9.0312v32.719q0 7.9062-2.7812 11.688t-8.5938 3.7812q-6.8906 0-10.953-4.6562-4.0469-4.6562-4.0469-12.625v-30.906h-9.0312v54.688h9.0312v-8.5q3.0781 5.0312 7.375 7.4219t10.203 2.3906q5.9688 0 10.141-3.0312 4.1719-3.0156 6.1719-8.7812z"/>
<path id="f" d="m9.4219 54.688h8.9844v-54.688h-8.9844zm0 21.297h8.9844v-11.391h-8.9844z"/>
<path id="h" d="m54.891 33.016v-33.016h-8.9844v32.719q0 7.7656-3.0312 11.609-3.0312 3.8594-9.0781 3.8594-7.2812 0-11.484-4.6406-4.2031-4.625-4.2031-12.641v-30.906h-9.0312v54.688h9.0312v-8.5q3.2344 4.9375 7.5938 7.375 4.375 2.4375 10.094 2.4375 9.4219 0 14.25-5.8281 4.8438-5.8281 4.8438-17.156z"/>
<path id="d" d="m34.281 27.484q-10.891 0-15.094-2.4844t-4.2031-8.5q0-4.7812 3.1562-7.5938 3.1562-2.7969 8.5625-2.7969 7.4844 0 12 5.2969t4.5156 14.078v2zm17.922 3.7188v-31.203h-8.9844v8.2969q-3.0781-4.9688-7.6719-7.3438t-11.234-2.375q-8.3906 0-13.359 4.7188-4.9531 4.7188-4.9531 12.625 0 9.2188 6.1719 13.906 6.1875 4.6875 18.438 4.6875h12.609v0.89062q0 6.2031-4.0781 9.5938t-11.453 3.3906q-4.6875 0-9.1406-1.125-4.4375-1.125-8.5312-3.375v8.3125q4.9219 1.9062 9.5625 2.8438 4.6406 0.95312 9.0312 0.95312 11.875 0 17.734-6.1562 5.8594-6.1406 5.8594-18.641z"/>
<path id="i" d="m9.4219 75.984h8.9844v-75.984h-8.9844z"/>
</defs>
<g transform="translate(251.45 604.62) rotate(90) scale(.08 -.08)">
<use xlink:href="#l"/>
<use x="60.818359" xlink:href="#g"/>
<use x="122.341797" xlink:href="#k"/>
<use x="163.439453" xlink:href="#j"/>
<use x="260.851562" xlink:href="#f"/>
<use x="288.634766" xlink:href="#h"/>
<use x="352.013672" xlink:href="#d"/>
<use x="413.292969" xlink:href="#i"/>
</g>
</g>
<path d="m916.81 604.62v35.285q0 2.4 2.4 2.4h7.7425q2.4 0 2.4-2.4v-35.285q0-2.4-2.4-2.4h-7.7425q-2.4 0-2.4 2.4z" clip-path="url(#a)" fill="#fff" stroke="#fff"/>
<g clip-path="url(#a)">
<g transform="translate(920.87 604.62) rotate(90) scale(.08 -.08)">
<use xlink:href="#l"/>
<use x="60.818359" xlink:href="#g"/>
<use x="122.341797" xlink:href="#k"/>
<use x="163.439453" xlink:href="#j"/>
<use x="260.851562" xlink:href="#f"/>
<use x="288.634766" xlink:href="#h"/>
<use x="352.013672" xlink:href="#d"/>
<use x="413.292969" xlink:href="#i"/>
</g>
</g>
<path d="m1053.6 371.94 3.5707-4.1471q1.566-1.8187-0.25276-3.3847l-5.8673-5.0519q-1.8187-1.566-3.3847 0.25276l-3.5707 4.1471q-1.566 1.8187 0.25276 3.3847l5.8673 5.0519q1.8187 1.566 3.3847-0.25276z" clip-path="url(#a)" fill="#fff" stroke="#fff"/>
<g clip-path="url(#a)">
<g transform="translate(1050.5 369.29) rotate(-49.271) scale(.08 -.08)">
<use xlink:href="#v"/>
</g>
</g>
<path d="m1104.5 432.47 0.29815-4.8145q0.14834-2.3954-2.2471-2.5438l-7.7277-0.47855q-2.3954-0.14834-2.5438 2.2471l-0.29815 4.8145q-0.14834 2.3954 2.2471 2.5438l7.7277 0.47855q2.3954 0.14834 2.5438-2.2471z" clip-path="url(#a)" fill="#fff" stroke="#fff"/>
<g clip-path="url(#a)">
<g transform="translate(1100.5 432.22) rotate(-86.456) scale(.08 -.08)">
<use xlink:href="#al"/>
</g>
</g>
<path d="m1163.7 368.23 3.8384 3.9007q1.6833 1.7107 3.394 0.027326l5.5187-5.4305q1.7107-1.6833 0.027326-3.394l-3.8384-3.9007q-1.6833-1.7107-3.394-0.027326l-5.5187 5.4305q-1.7107 1.6833-0.027326 3.394z" clip-path="url(#a)" fill="#fff" stroke="#fff"/>
<g clip-path="url(#a)">
<g transform="translate(1166.6 365.38) rotate(45.461) scale(.08 -.08)">
<use xlink:href="#v"/>
</g>
</g>
<path d="m988.55 498.1 0.92952-4.9688q0.44132-2.3591-1.9178-2.8004l-7.6105-1.4237q-2.3591-0.44132-2.8004 1.9178l-0.92952 4.9688q-0.44132 2.3591 1.9178 2.8004l7.6105 1.4237q2.3591 0.44132 2.8004-1.9178z" clip-path="url(#a)" fill="#fff" stroke="#fff"/>
<g clip-path="url(#a)">
<defs>
<path id="p" d="m9.8125 72.906h46.094v-8.3125h-36.234v-21.578h34.719v-8.2969h-34.719v-26.422h37.109v-8.2969h-46.969z"/>
</defs>
<g transform="translate(984.55 497.36) rotate(-79.404) scale(.08 -.08)">
<use xlink:href="#p"/>
</g>
</g>
<path d="m1000.1 492.87 1.0272 5.491q0.44132 2.3591 2.8004 1.9178l7.6105-1.4237q2.3591-0.44132 1.9178-2.8004l-1.0272-5.491q-0.44132-2.3591-2.8004-1.9178l-7.6105 1.4237q-2.3591 0.44132-1.9178 2.8004z" clip-path="url(#a)" fill="#fff" stroke="#fff"/>
<g clip-path="url(#a)">
<defs>
<path id="q" d="m64.406 67.281v-10.391q-4.9844 4.6406-10.625 6.9219-5.6406 2.2969-11.984 2.2969-12.5 0-19.141-7.6406t-6.6406-22.094q0-14.406 6.6406-22.047t19.141-7.6406q6.3438 0 11.984 2.2969t10.625 6.9375v-10.312q-5.1719-3.5156-10.969-5.2812-5.7812-1.75-12.219-1.75-16.562 0-26.094 10.125-9.5156 10.141-9.5156 27.672 0 17.578 9.5156 27.703 9.5312 10.141 26.094 10.141 6.5312 0 12.312-1.7344 5.7969-1.7344 10.875-5.2031z"/>
</defs>
<g transform="translate(1004.1 492.13) rotate(79.404) scale(.08 -.08)">
<use xlink:href="#q"/>
</g>
</g>
<path d="m1081.4 640.76 6.4883-34.683q0.44132-2.3591-1.9178-2.8004l-7.6105-1.4237q-2.3591-0.44132-2.8004 1.9178l-6.4883 34.683q-0.44132 2.3591 1.9178 2.8004l7.6105 1.4237q2.3591 0.44132 2.8004-1.9178z" clip-path="url(#a)" fill="#fff" stroke="#fff"/>
<g clip-path="url(#a)">
<g transform="translate(1077.4 640.01) rotate(-79.404) scale(.08 -.08)">
<use xlink:href="#l"/>
<use x="60.818359" xlink:href="#g"/>
<use x="122.341797" xlink:href="#k"/>
<use x="163.439453" xlink:href="#j"/>
<use x="260.851562" xlink:href="#f"/>
<use x="288.634766" xlink:href="#h"/>
<use x="352.013672" xlink:href="#d"/>
<use x="413.292969" xlink:href="#i"/>
</g>
</g>
<path d="m1093 606.08 6.4883 34.683q0.44132 2.3591 2.8004 1.9178l7.6105-1.4237q2.3591-0.44132 1.9178-2.8004l-6.4883-34.683q-0.44132-2.3591-2.8004-1.9178l-7.6105 1.4237q-2.3591 0.44132-1.9178 2.8004z" clip-path="url(#a)" fill="#fff" stroke="#fff"/>
<g clip-path="url(#a)">
<g transform="translate(1097 605.33) rotate(79.404) scale(.08 -.08)">
<use xlink:href="#l"/>
<use x="60.818359" xlink:href="#g"/>
<use x="122.341797" xlink:href="#k"/>
<use x="163.439453" xlink:href="#j"/>
<use x="260.851562" xlink:href="#f"/>
<use x="288.634766" xlink:href="#h"/>
<use x="352.013672" xlink:href="#d"/>
<use x="413.292969" xlink:href="#i"/>
</g>
</g>
<path d="m1202.1 499.96 2.7205-4.8475q1.1746-2.0929-0.91835-3.2675l-6.7519-3.7893q-2.0929-1.1746-3.2675 0.91835l-2.7205 4.8475q-1.1746 2.0929 0.91835 3.2675l6.7519 3.7893q2.0929 1.1746 3.2675-0.91835z" clip-path="url(#a)" fill="#fff" stroke="#fff"/>
<g clip-path="url(#a)">
<defs>
<path id="z" d="m44.391 34.188q3.1719-1.0781 6.1719-4.5938t6.0312-9.6719l10.016-19.922h-10.609l-9.3125 18.703q-3.625 7.3281-7.0156 9.7188t-9.25 2.3906h-10.75v-30.812h-9.8594v72.906h22.266q12.5 0 18.656-5.2344 6.1562-5.2188 6.1562-15.766 0-6.8906-3.2031-11.438-3.2031-4.5312-9.2969-6.2812zm-24.719 30.609v-25.875h12.406q7.125 0 10.766 3.2969t3.6406 9.6875-3.6406 9.6406-10.766 3.25z"/>
</defs>
<g transform="translate(1198.6 497.97) rotate(-60.698) scale(.08 -.08)">
<use xlink:href="#z"/>
</g>
</g>
<path d="m1227.6 498.1 0.92952-4.9688q0.44132-2.3591-1.9178-2.8004l-7.6105-1.4237q-2.3591-0.44132-2.8004 1.9178l-0.92952 4.9688q-0.44132 2.3591 1.9178 2.8004l7.6105 1.4237q2.3591 0.44132 2.8004-1.9178z" clip-path="url(#a)" fill="#fff" stroke="#fff"/>
<g clip-path="url(#a)">
<g transform="translate(1223.6 497.36) rotate(-79.404) scale(.08 -.08)">
<use xlink:href="#p"/>
</g>
</g>
<path d="m1239.2 492.87 1.0272 5.491q0.44132 2.3591 2.8004 1.9178l7.6105-1.4237q2.3591-0.44132 1.9178-2.8004l-1.0272-5.491q-0.44132-2.3591-2.8004-1.9178l-7.6105 1.4237q-2.3591 0.44132-1.9178 2.8004z" clip-path="url(#a)" fill="#fff" stroke="#fff"/>
<g clip-path="url(#a)">
<g transform="translate(1243.1 492.13) rotate(79.404) scale(.08 -.08)">
<use xlink:href="#q"/>
</g>
</g>
<path d="m1262.8 494.98 2.8655 5.1059q1.1746 2.0929 3.2675 0.91835l6.7519-3.7893q2.0929-1.1746 0.91835-3.2675l-2.8655-5.1059q-1.1746-2.0929-3.2675-0.91835l-6.7519 3.7893q-2.0929 1.1746-0.91835 3.2675z" clip-path="url(#a)" fill="#fff" stroke="#fff"/>
<g clip-path="url(#a)">
<g transform="translate(1266.4 492.99) rotate(60.698) scale(.08 -.08)">
<use xlink:href="#y"/>
</g>
</g>
<path d="m1155.9 604.62v35.285q0 2.4 2.4 2.4h7.7425q2.4 0 2.4-2.4v-35.285q0-2.4-2.4-2.4h-7.7425q-2.4 0-2.4 2.4z" clip-path="url(#a)" fill="#fff" stroke="#fff"/>
<g clip-path="url(#a)">
<g transform="translate(1159.9 604.62) rotate(90) scale(.08 -.08)">
<use xlink:href="#l"/>
<use x="60.818359" xlink:href="#g"/>
<use x="122.341797" xlink:href="#k"/>
<use x="163.439453" xlink:href="#j"/>
<use x="260.851562" xlink:href="#f"/>
<use x="288.634766" xlink:href="#h"/>
<use x="352.013672" xlink:href="#d"/>
<use x="413.292969" xlink:href="#i"/>
</g>
</g>
<path d="m1203.7 604.62v35.285q0 2.4 2.4 2.4h7.7425q2.4 0 2.4-2.4v-35.285q0-2.4-2.4-2.4h-7.7425q-2.4 0-2.4 2.4z" clip-path="url(#a)" fill="#fff" stroke="#fff"/>
<g clip-path="url(#a)">
<g transform="translate(1207.8 604.62) rotate(90) scale(.08 -.08)">
<use xlink:href="#l"/>
<use x="60.818359" xlink:href="#g"/>
<use x="122.341797" xlink:href="#k"/>
<use x="163.439453" xlink:href="#j"/>
<use x="260.851562" xlink:href="#f"/>
<use x="288.634766" xlink:href="#h"/>
<use x="352.013672" xlink:href="#d"/>
<use x="413.292969" xlink:href="#i"/>
</g>
</g>
<path d="m1251.5 604.62v35.285q0 2.4 2.4 2.4h7.7425q2.4 0 2.4-2.4v-35.285q0-2.4-2.4-2.4h-7.7425q-2.4 0-2.4 2.4z" clip-path="url(#a)" fill="#fff" stroke="#fff"/>
<g clip-path="url(#a)">
<g transform="translate(1255.6 604.62) rotate(90) scale(.08 -.08)">
<use xlink:href="#l"/>
<use x="60.818359" xlink:href="#g"/>
<use x="122.341797" xlink:href="#k"/>
<use x="163.439453" xlink:href="#j"/>
<use x="260.851562" xlink:href="#f"/>
<use x="288.634766" xlink:href="#h"/>
<use x="352.013672" xlink:href="#d"/>
<use x="413.292969" xlink:href="#i"/>
</g>
</g>
<path d="m964.62 604.62v35.285q0 2.4 2.4 2.4h7.7425q2.4 0 2.4-2.4v-35.285q0-2.4-2.4-2.4h-7.7425q-2.4 0-2.4 2.4z" clip-path="url(#a)" fill="#fff" stroke="#fff"/>
<g clip-path="url(#a)">
<g transform="translate(968.68 604.62) rotate(90) scale(.08 -.08)">
<use xlink:href="#l"/>
<use x="60.818359" xlink:href="#g"/>
<use x="122.341797" xlink:href="#k"/>
<use x="163.439453" xlink:href="#j"/>
<use x="260.851562" xlink:href="#f"/>
<use x="288.634766" xlink:href="#h"/>
<use x="352.013672" xlink:href="#d"/>
<use x="413.292969" xlink:href="#i"/>
</g>
</g>
<path d="m1012.4 604.62v35.285q0 2.4 2.4 2.4h7.7425q2.4 0 2.4-2.4v-35.285q0-2.4-2.4-2.4h-7.7425q-2.4 0-2.4 2.4z" clip-path="url(#a)" fill="#fff" stroke="#fff"/>
<g clip-path="url(#a)">
<g transform="translate(1016.5 604.62) rotate(90) scale(.08 -.08)">
<use xlink:href="#l"/>
<use x="60.818359" xlink:href="#g"/>
<use x="122.341797" xlink:href="#k"/>
<use x="163.439453" xlink:href="#j"/>
<use x="260.851562" xlink:href="#f"/>
<use x="288.634766" xlink:href="#h"/>
<use x="352.013672" xlink:href="#d"/>
<use x="413.292969" xlink:href="#i"/>
</g>
</g>
<path d="m91.207 499.27 1.9479-5.2063q0.84101-2.2478-1.4068-3.0888l-7.2516-2.7131q-2.2478-0.84101-3.0888 1.4068l-1.9479 5.2063q-0.84101 2.2478 1.4068 3.0888l7.2516 2.7131q2.2478 0.84101 3.0888-1.4068z" clip-path="url(#a)" fill="#fff" stroke="#fff"/>
<g clip-path="url(#a)">
<g transform="translate(87.401 497.84) rotate(-69.487) scale(.08 -.08)">
<use xlink:href="#z"/>
</g>
</g>
<path d="m103.94 491.94v5.055q0 2.4 2.4 2.4h7.7425q2.4 0 2.4-2.4v-5.055q0-2.4-2.4-2.4h-7.7425q-2.4 0-2.4 2.4z" clip-path="url(#a)" fill="#fff" stroke="#fff"/>
<g clip-path="url(#a)">
<g transform="translate(108.01 491.94) rotate(90) scale(.08 -.08)">
<use xlink:href="#p"/>
</g>
</g>
<path d="m127.27 494.05 1.9575 5.232q0.84101 2.2478 3.0888 1.4068l7.2516-2.7131q2.2478-0.84101 1.4068-3.0888l-1.9575-5.232q-0.84101-2.2478-3.0888-1.4068l-7.2516 2.7131q-2.2478 0.84101-1.4068 3.0888z" clip-path="url(#a)" fill="#fff" stroke="#fff"/>
<g clip-path="url(#a)">
<g transform="translate(131.08 492.62) rotate(69.487) scale(.08 -.08)">
<use xlink:href="#q"/>
</g>
</g>
<path d="m343.02 604.62v35.285q0 2.4 2.4 2.4h7.7425q2.4 0 2.4-2.4v-35.285q0-2.4-2.4-2.4h-7.7425q-2.4 0-2.4 2.4z" clip-path="url(#a)" fill="#fff" stroke="#fff"/>
<g clip-path="url(#a)">
<g transform="translate(347.08 604.62) rotate(90) scale(.08 -.08)">
<use xlink:href="#l"/>
<use x="60.818359" xlink:href="#g"/>
<use x="122.341797" xlink:href="#k"/>
<use x="163.439453" xlink:href="#j"/>
<use x="260.851562" xlink:href="#f"/>
<use x="288.634766" xlink:href="#h"/>
<use x="352.013672" xlink:href="#d"/>
<use x="413.292969" xlink:href="#i"/>
</g>
</g>
<path d="m426.08 498.82 1.6124-4.3095q0.84101-2.2478-1.4068-3.0888l-7.2516-2.7131q-2.2478-0.84101-3.0888 1.4068l-1.6124 4.3095q-0.84101 2.2478 1.4068 3.0888l7.2516 2.7131q2.2478 0.84101 3.0888-1.4068z" clip-path="url(#a)" fill="#fff" stroke="#fff"/>
<g clip-path="url(#a)">
<defs>
<path id="as" d="m9.8125 72.906h41.891v-8.3125h-32.031v-21.484h28.906v-8.2969h-28.906v-34.812h-9.8594z"/>
</defs>
<g transform="translate(422.28 497.39) rotate(-69.487) scale(.08 -.08)">
<use xlink:href="#as"/>
</g>
</g>
<path d="m438.65 491.94v5.055q0 2.4 2.4 2.4h7.7425q2.4 0 2.4-2.4v-5.055q0-2.4-2.4-2.4h-7.7425q-2.4 0-2.4 2.4z" clip-path="url(#a)" fill="#fff" stroke="#fff"/>
<g clip-path="url(#a)">
<g transform="translate(442.72 491.94) rotate(90) scale(.08 -.08)">
<use xlink:href="#p"/>
</g>
</g>
<path d="m461.98 494.05 1.9575 5.232q0.84101 2.2478 3.0888 1.4068l7.2516-2.7131q2.2478-0.84101 1.4068-3.0888l-1.9575-5.232q-0.84101-2.2478-3.0888-1.4068l-7.2516 2.7131q-2.2478 0.84101-1.4068 3.0888z" clip-path="url(#a)" fill="#fff" stroke="#fff"/>
<g clip-path="url(#a)">
<g transform="translate(465.78 492.62) rotate(69.487) scale(.08 -.08)">
<use xlink:href="#q"/>
</g>
</g>
<path d="m694.4 370.39 1.7411-5.308q0.74801-2.2805-1.5324-3.0285l-7.3568-2.4131q-2.2805-0.74801-3.0285 1.5324l-1.7411 5.308q-0.74801 2.2805 1.5324 3.0285l7.3568 2.4131q2.2805 0.74801 3.0285-1.5324z" clip-path="url(#a)" fill="#fff" stroke="#fff"/>
<g clip-path="url(#a)">
<g transform="translate(690.54 369.12) rotate(-71.84) scale(.08 -.08)">
<use xlink:href="#q"/>
</g>
</g>
<path d="m711.27 369.07 0.45655-5.5676q0.19615-2.392-2.1958-2.5881l-7.7166-0.63278q-2.392-0.19615-2.5881 2.1958l-0.45655 5.5676q-0.19615 2.392 2.1958 2.5881l7.7166 0.63278q2.392 0.19615 2.5881-2.1958z" clip-path="url(#a)" fill="#fff" stroke="#fff"/>
<g clip-path="url(#a)">
<g transform="translate(707.22 368.74) rotate(-85.312) scale(.08 -.08)">
<use xlink:href="#q"/>
</g>
</g>
<path d="m738.26 428.41 1.5512 5.7805q0.62203 2.318 2.94 1.696l7.4779-2.0067q2.318-0.62203 1.696-2.94l-1.5512-5.7805q-0.62203-2.318-2.94-1.696l-7.4779 2.0067q-2.318 0.62203-1.696 2.94z" clip-path="url(#a)" fill="#fff" stroke="#fff"/>
<g clip-path="url(#a)">
<defs>
<path id="ar" d="m9.8125 72.906h13.281l32.328-60.984v60.984h9.5625v-72.906h-13.281l-32.312 60.984v-60.984h-9.5781z"/>
</defs>
<g transform="translate(742.19 427.36) rotate(74.979) scale(.08 -.08)">
<use xlink:href="#ar"/>
</g>
</g>
<path d="m722.36 364.82 1.5411 5.3695q0.66209 2.3069 2.969 1.6448l7.4421-2.1359q2.3069-0.66209 1.6448-2.969l-1.5411-5.3695q-0.66209-2.3069-2.969-1.6448l-7.4421 2.1359q-2.3069 0.66209-1.6448 2.969z" clip-path="url(#a)" fill="#fff" stroke="#fff"/>
<g clip-path="url(#a)">
<g transform="translate(726.27 363.7) rotate(73.986) scale(.08 -.08)">
<use xlink:href="#q"/>
</g>
</g>
<path d="m678.59 434.23 1.6255-5.6248q0.66631-2.3057-1.6393-2.972l-7.4381-2.1495q-2.3057-0.66631-2.972 1.6393l-1.6255 5.6248q-0.66631 2.3057 1.6393 2.972l7.4381 2.1495q2.3057 0.66631 2.972-1.6393z" clip-path="url(#a)" fill="#fff" stroke="#fff"/>
<g clip-path="url(#a)">
<g transform="translate(674.68 433.1) rotate(-73.881) scale(.08 -.08)">
<use xlink:href="#y"/>
</g>
</g>
<path d="m714.7 427.28 0.4818 5.8351q0.19749 2.3919 2.5894 2.1944l7.7162-0.63712q2.3919-0.19749 2.1944-2.5894l-0.4818-5.8351q-0.19749-2.3919-2.5894-2.1944l-7.7162 0.63712q-2.3919 0.19749-2.1944 2.5894z" clip-path="url(#a)" fill="#fff" stroke="#fff"/>
<g clip-path="url(#a)">
<g transform="translate(718.75 426.94) rotate(85.28) scale(.08 -.08)">
<use xlink:href="#y"/>
</g>
</g>
<path d="m765.99 498.34 4.7546 2.9326q2.0427 1.2599 3.3026-0.78277l4.0646-6.5898q1.2599-2.0427-0.78277-3.3026l-4.7546-2.9326q-2.0427-1.2599-3.3026 0.78277l-4.0646 6.5898q-1.2599 2.0427 0.78277 3.3026z" clip-path="url(#a)" fill="#fff" stroke="#fff"/>
<g clip-path="url(#a)">
<g transform="translate(768.13 494.88) rotate(31.666) scale(.08 -.08)">
<use xlink:href="#q"/>
</g>
</g>
<path d="m606.96 500.68 3.5703-3.5785q1.6951-1.699-0.003883-3.3941l-5.481-5.4685q-1.699-1.6951-3.3941 0.003883l-3.5703 3.5785q-1.6951 1.699 0.003882 3.3941l5.481 5.4685q1.699 1.6951 3.3941-0.003882z" clip-path="url(#a)" fill="#fff" stroke="#fff"/>
<g clip-path="url(#a)">
<g transform="translate(604.09 497.81) rotate(-45.066) scale(.08 -.08)">
<use xlink:href="#p"/>
</g>
</g>
<path d="m632.2 499.93 2.6747-4.2894q1.2699-2.0365-0.7666-3.3064l-6.5698-4.0968q-2.0365-1.2699-3.3064 0.7666l-2.6747 4.2894q-1.2699 2.0365 0.7666 3.3064l6.5698 4.0968q2.0365 1.2699 3.3064-0.7666z" clip-path="url(#a)" fill="#fff" stroke="#fff"/>
<g clip-path="url(#a)">
<g transform="translate(628.75 497.78) rotate(-58.053) scale(.08 -.08)">
<use xlink:href="#p"/>
</g>
</g>
<path d="m781.65 497.89 4.5142 3.2906q1.9394 1.4137 3.3532-0.5257l4.5607-6.2567q1.4137-1.9394-0.5257-3.3532l-4.5142-3.2906q-1.9394-1.4137-3.3532 0.5257l-4.5607 6.2567q-1.4137 1.9394 0.5257 3.3532z" clip-path="url(#a)" fill="#fff" stroke="#fff"/>
<g clip-path="url(#a)">
<g transform="translate(784.04 494.6) rotate(36.09) scale(.08 -.08)">
<use xlink:href="#q"/>
</g>
</g>
<path d="m697.88 497.75 0.62558-5.0161q0.29701-2.3816-2.0845-2.6786l-7.683-0.95818q-2.3816-0.29701-2.6786 2.0845l-0.62558 5.0161q-0.29701 2.3816 2.0845 2.6786l7.683 0.95818q2.3816 0.29701 2.6786-2.0845z" clip-path="url(#a)" fill="#fff" stroke="#fff"/>
<g clip-path="url(#a)">
<g transform="translate(693.85 497.25) rotate(-82.891) scale(.08 -.08)">
<use xlink:href="#p"/>
</g>
</g>
<path d="m622.2 500.94 3.9438-3.1622q1.8724-1.5014 0.37105-3.3738l-4.8434-6.0405q-1.5014-1.8724-3.3738-0.37105l-3.9438 3.1622q-1.8724 1.5014-0.37105 3.3738l4.8434 6.0405q1.5014 1.8724 3.3738 0.37105z" clip-path="url(#a)" fill="#fff" stroke="#fff"/>
<g clip-path="url(#a)">
<g transform="translate(619.66 497.77) rotate(-38.724) scale(.08 -.08)">
<use xlink:href="#p"/>
</g>
</g>
<path d="m773.36 604.62v35.285q0 2.4 2.4 2.4h7.7425q2.4 0 2.4-2.4v-35.285q0-2.4-2.4-2.4h-7.7425q-2.4 0-2.4 2.4z" clip-path="url(#a)" fill="#fff" stroke="#fff"/>
<g clip-path="url(#a)">
<g transform="translate(777.42 604.62) rotate(90) scale(.08 -.08)">
<use xlink:href="#l"/>
<use x="60.818359" xlink:href="#g"/>
<use x="122.341797" xlink:href="#k"/>
<use x="163.439453" xlink:href="#j"/>
<use x="260.851562" xlink:href="#f"/>
<use x="288.634766" xlink:href="#h"/>
<use x="352.013672" xlink:href="#d"/>
<use x="413.292969" xlink:href="#i"/>
</g>
</g>
<path d="m780.94 495.64 2.6747 4.2894q1.2699 2.0365 3.3064 0.7666l6.5698-4.0968q2.0365-1.2699 0.7666-3.3064l-2.6747-4.2894q-1.2699-2.0365-3.3064-0.7666l-6.5698 4.0968q-2.0365 1.2699-0.7666 3.3064z" clip-path="url(#a)" fill="#fff" stroke="#fff"/>
<g clip-path="url(#a)">
<g transform="translate(784.39 493.49) rotate(58.053) scale(.08 -.08)">
<use xlink:href="#p"/>
</g>
</g>
<path d="m805.1 496.92 3.9456 3.9546q1.6951 1.699 3.3941 0.003882l5.481-5.4685q1.699-1.6951 0.003882-3.3941l-3.9456-3.9546q-1.6951-1.699-3.3941-0.003883l-5.481 5.4685q-1.699 1.6951-0.003882 3.3941z" clip-path="url(#a)" fill="#fff" stroke="#fff"/>
<g clip-path="url(#a)">
<g transform="translate(807.97 494.05) rotate(45.066) scale(.08 -.08)">
<use xlink:href="#q"/>
</g>
</g>
<path d="m645.29 501.13 4.3024-2.6537q2.0427-1.2599 0.78277-3.3026l-4.0646-6.5898q-1.2599-2.0427-3.3026-0.78277l-4.3024 2.6537q-2.0427 1.2599-0.78277 3.3026l4.0646 6.5898q1.2599 2.0427 3.3026 0.78277z" clip-path="url(#a)" fill="#fff" stroke="#fff"/>
<g clip-path="url(#a)">
<g transform="translate(643.16 497.67) rotate(-31.666) scale(.08 -.08)">
<use xlink:href="#p"/>
</g>
</g>
<path d="m821.17 604.62v35.285q0 2.4 2.4 2.4h7.7425q2.4 0 2.4-2.4v-35.285q0-2.4-2.4-2.4h-7.7425q-2.4 0-2.4 2.4z" clip-path="url(#a)" fill="#fff" stroke="#fff"/>
<g clip-path="url(#a)">
<g transform="translate(825.24 604.62) rotate(90) scale(.08 -.08)">
<use xlink:href="#l"/>
<use x="60.818359" xlink:href="#g"/>
<use x="122.341797" xlink:href="#k"/>
<use x="163.439453" xlink:href="#j"/>
<use x="260.851562" xlink:href="#f"/>
<use x="288.634766" xlink:href="#h"/>
<use x="352.013672" xlink:href="#d"/>
<use x="413.292969" xlink:href="#i"/>
</g>
</g>
<path d="m868.99 604.62v35.285q0 2.4 2.4 2.4h7.7425q2.4 0 2.4-2.4v-35.285q0-2.4-2.4-2.4h-7.7425q-2.4 0-2.4 2.4z" clip-path="url(#a)" fill="#fff" stroke="#fff"/>
<g clip-path="url(#a)">
<g transform="translate(873.05 604.62) rotate(90) scale(.08 -.08)">
<use xlink:href="#l"/>
<use x="60.818359" xlink:href="#g"/>
<use x="122.341797" xlink:href="#k"/>
<use x="163.439453" xlink:href="#j"/>
<use x="260.851562" xlink:href="#f"/>
<use x="288.634766" xlink:href="#h"/>
<use x="352.013672" xlink:href="#d"/>
<use x="413.292969" xlink:href="#i"/>
</g>
</g>
<path d="m677.73 604.62v35.285q0 2.4 2.4 2.4h7.7425q2.4 0 2.4-2.4v-35.285q0-2.4-2.4-2.4h-7.7425q-2.4 0-2.4 2.4z" clip-path="url(#a)" fill="#fff" stroke="#fff"/>
<g clip-path="url(#a)">
<g transform="translate(681.79 604.62) rotate(90) scale(.08 -.08)">
<use xlink:href="#l"/>
<use x="60.818359" xlink:href="#g"/>
<use x="122.341797" xlink:href="#k"/>
<use x="163.439453" xlink:href="#j"/>
<use x="260.851562" xlink:href="#f"/>
<use x="288.634766" xlink:href="#h"/>
<use x="352.013672" xlink:href="#d"/>
<use x="413.292969" xlink:href="#i"/>
</g>
</g>
<path d="m534.28 604.62v35.285q0 2.4 2.4 2.4h7.7425q2.4 0 2.4-2.4v-35.285q0-2.4-2.4-2.4h-7.7425q-2.4 0-2.4 2.4z" clip-path="url(#a)" fill="#fff" stroke="#fff"/>
<g clip-path="url(#a)">
<g transform="translate(538.35 604.62) rotate(90) scale(.08 -.08)">
<use xlink:href="#l"/>
<use x="60.818359" xlink:href="#g"/>
<use x="122.341797" xlink:href="#k"/>
<use x="163.439453" xlink:href="#j"/>
<use x="260.851562" xlink:href="#f"/>
<use x="288.634766" xlink:href="#h"/>
<use x="352.013672" xlink:href="#d"/>
<use x="413.292969" xlink:href="#i"/>
</g>
</g>
<path d="m582.1 604.62v35.285q0 2.4 2.4 2.4h7.7425q2.4 0 2.4-2.4v-35.285q0-2.4-2.4-2.4h-7.7425q-2.4 0-2.4 2.4z" clip-path="url(#a)" fill="#fff" stroke="#fff"/>
<g clip-path="url(#a)">
<g transform="translate(586.16 604.62) rotate(90) scale(.08 -.08)">
<use xlink:href="#l"/>
<use x="60.818359" xlink:href="#g"/>
<use x="122.341797" xlink:href="#k"/>
<use x="163.439453" xlink:href="#j"/>
<use x="260.851562" xlink:href="#f"/>
<use x="288.634766" xlink:href="#h"/>
<use x="352.013672" xlink:href="#d"/>
<use x="413.292969" xlink:href="#i"/>
</g>
</g>
<path d="m390.84 604.62v35.285q0 2.4 2.4 2.4h7.7425q2.4 0 2.4-2.4v-35.285q0-2.4-2.4-2.4h-7.7425q-2.4 0-2.4 2.4z" clip-path="url(#a)" fill="#fff" stroke="#fff"/>
<g clip-path="url(#a)">
<g transform="translate(394.9 604.62) rotate(90) scale(.08 -.08)">
<use xlink:href="#l"/>
<use x="60.818359" xlink:href="#g"/>
<use x="122.341797" xlink:href="#k"/>
<use x="163.439453" xlink:href="#j"/>
<use x="260.851562" xlink:href="#f"/>
<use x="288.634766" xlink:href="#h"/>
<use x="352.013672" xlink:href="#d"/>
<use x="413.292969" xlink:href="#i"/>
</g>
</g>
<path d="m438.65 604.62v35.285q0 2.4 2.4 2.4h7.7425q2.4 0 2.4-2.4v-35.285q0-2.4-2.4-2.4h-7.7425q-2.4 0-2.4 2.4z" clip-path="url(#a)" fill="#fff" stroke="#fff"/>
<g clip-path="url(#a)">
<g transform="translate(442.72 604.62) rotate(90) scale(.08 -.08)">
<use xlink:href="#l"/>
<use x="60.818359" xlink:href="#g"/>
<use x="122.341797" xlink:href="#k"/>
<use x="163.439453" xlink:href="#j"/>
<use x="260.851562" xlink:href="#f"/>
<use x="288.634766" xlink:href="#h"/>
<use x="352.013672" xlink:href="#d"/>
<use x="413.292969" xlink:href="#i"/>
</g>
</g>
<path d="m486.47 604.62v35.285q0 2.4 2.4 2.4h7.7425q2.4 0 2.4-2.4v-35.285q0-2.4-2.4-2.4h-7.7425q-2.4 0-2.4 2.4z" clip-path="url(#a)" fill="#fff" stroke="#fff"/>
<g clip-path="url(#a)">
<g transform="translate(490.53 604.62) rotate(90) scale(.08 -.08)">
<use xlink:href="#l"/>
<use x="60.818359" xlink:href="#g"/>
<use x="122.341797" xlink:href="#k"/>
<use x="163.439453" xlink:href="#j"/>
<use x="260.851562" xlink:href="#f"/>
<use x="288.634766" xlink:href="#h"/>
<use x="352.013672" xlink:href="#d"/>
<use x="413.292969" xlink:href="#i"/>
</g>
</g>
<path d="m56.129 604.62v35.285q0 2.4 2.4 2.4h7.7425q2.4 0 2.4-2.4v-35.285q0-2.4-2.4-2.4h-7.7425q-2.4 0-2.4 2.4z" clip-path="url(#a)" fill="#fff" stroke="#fff"/>
<g clip-path="url(#a)">
<g transform="translate(60.192 604.62) rotate(90) scale(.08 -.08)">
<use xlink:href="#l"/>
<use x="60.818359" xlink:href="#g"/>
<use x="122.341797" xlink:href="#k"/>
<use x="163.439453" xlink:href="#j"/>
<use x="260.851562" xlink:href="#f"/>
<use x="288.634766" xlink:href="#h"/>
<use x="352.013672" xlink:href="#d"/>
<use x="413.292969" xlink:href="#i"/>
</g>
</g>
<path d="m103.94 604.62v35.285q0 2.4 2.4 2.4h7.7425q2.4 0 2.4-2.4v-35.285q0-2.4-2.4-2.4h-7.7425q-2.4 0-2.4 2.4z" clip-path="url(#a)" fill="#fff" stroke="#fff"/>
<g clip-path="url(#a)">
<g transform="translate(108.01 604.62) rotate(90) scale(.08 -.08)">
<use xlink:href="#l"/>
<use x="60.818359" xlink:href="#g"/>
<use x="122.341797" xlink:href="#k"/>
<use x="163.439453" xlink:href="#j"/>
<use x="260.851562" xlink:href="#f"/>
<use x="288.634766" xlink:href="#h"/>
<use x="352.013672" xlink:href="#d"/>
<use x="413.292969" xlink:href="#i"/>
</g>
</g>
<path d="m151.76 604.62v35.285q0 2.4 2.4 2.4h7.7425q2.4 0 2.4-2.4v-35.285q0-2.4-2.4-2.4h-7.7425q-2.4 0-2.4 2.4z" clip-path="url(#a)" fill="#fff" stroke="#fff"/>
<g clip-path="url(#a)">
<g transform="translate(155.82 604.62) rotate(90) scale(.08 -.08)">
<use xlink:href="#l"/>
<use x="60.818359" xlink:href="#g"/>
<use x="122.341797" xlink:href="#k"/>
<use x="163.439453" xlink:href="#j"/>
<use x="260.851562" xlink:href="#f"/>
<use x="288.634766" xlink:href="#h"/>
<use x="352.013672" xlink:href="#d"/>
<use x="413.292969" xlink:href="#i"/>
</g>
</g>
<path d="m973.86 369.95 2.2944-9.7499q0.54976-2.3362-1.7864-2.8859l-7.5366-1.7735q-2.3362-0.54976-2.8859 1.7864l-2.2944 9.7499q-0.54976 2.3362 1.7864 2.8859l7.5366 1.7735q2.3362 0.54976 2.8859-1.7864z" clip-path="url(#a)" fill="#fff" stroke="#fff"/>
<g clip-path="url(#a)">
<g transform="translate(969.9 369.02) rotate(-76.758) scale(.08 -.08)">
<use xlink:href="#u"/>
<use x="55.712891" xlink:href="#z"/>
</g>
</g>
<path d="m1052.6 234.45 5.6625 8.1603q1.3682 1.9718 3.34 0.60355l6.3611-4.414q1.9718-1.3682 0.60355-3.34l-5.6625-8.1603q-1.3682-1.9718-3.34-0.60355l-6.3611 4.414q-1.9718 1.3682-0.60355 3.34z" clip-path="url(#a)" fill="#fff" stroke="#fff"/>
<g clip-path="url(#a)">
<g transform="translate(1055.9 232.13) rotate(55.243) scale(.08 -.08)">
<use xlink:href="#u"/>
<use x="55.744141" xlink:href="#v"/>
</g>
</g>
<path d="m358.33 100.08 4.8236 8.6826q1.1655 2.098 3.2635 0.93247l6.7682-3.76q2.098-1.1655 0.93247-3.2635l-4.8236-8.6826q-1.1655-2.098-3.2635-0.93247l-6.7682 3.76q-2.098 1.1655-0.93247 3.2635z" clip-path="url(#a)" fill="#fff" stroke="#fff"/>
<g clip-path="url(#a)">
<g transform="translate(361.89 98.106) rotate(60.946) scale(.08 -.08)">
<use xlink:href="#u"/>
<use x="55.744141" xlink:href="#v"/>
</g>
</g>
<path d="m296.68 301.95 1.4186-9.9153q0.3399-2.3758-2.0359-2.7157l-7.6645-1.0965q-2.3758-0.3399-2.7157 2.0359l-1.4186 9.9153q-0.3399 2.3758 2.0359 2.7157l7.6645 1.0965q2.3758 0.3399 2.7157-2.0359z" clip-path="url(#a)" fill="#fff" stroke="#fff"/>
<g clip-path="url(#a)">
<g transform="translate(292.66 301.37) rotate(-81.858) scale(.08 -.08)">
<use xlink:href="#u"/>
<use x="55.712891" xlink:href="#z"/>
</g>
</g>
<path d="m199.57 604.62v35.285q0 2.4 2.4 2.4h7.7425q2.4 0 2.4-2.4v-35.285q0-2.4-2.4-2.4h-7.7425q-2.4 0-2.4 2.4z" clip-path="url(#a)" fill="#fff" stroke="#fff"/>
<g clip-path="url(#a)">
<g transform="translate(203.64 604.62) rotate(90) scale(.08 -.08)">
<use xlink:href="#l"/>
<use x="60.818359" xlink:href="#g"/>
<use x="122.341797" xlink:href="#k"/>
<use x="163.439453" xlink:href="#j"/>
<use x="260.851562" xlink:href="#f"/>
<use x="288.634766" xlink:href="#h"/>
<use x="352.013672" xlink:href="#d"/>
<use x="413.292969" xlink:href="#i"/>
</g>
</g>
<path d="m295.21 604.62v35.285q0 2.4 2.4 2.4h7.7425q2.4 0 2.4-2.4v-35.285q0-2.4-2.4-2.4h-7.7425q-2.4 0-2.4 2.4z" clip-path="url(#a)" fill="#fff" stroke="#fff"/>
<g clip-path="url(#a)">
<g transform="translate(299.27 604.62) rotate(90) scale(.08 -.08)">
<use xlink:href="#l"/>
<use x="60.818359" xlink:href="#g"/>
<use x="122.341797" xlink:href="#k"/>
<use x="163.439453" xlink:href="#j"/>
<use x="260.851562" xlink:href="#f"/>
<use x="288.634766" xlink:href="#h"/>
<use x="352.013672" xlink:href="#d"/>
<use x="413.292969" xlink:href="#i"/>
</g>
</g>
<path d="m629.91 604.62v35.285q0 2.4 2.4 2.4h7.7425q2.4 0 2.4-2.4v-35.285q0-2.4-2.4-2.4h-7.7425q-2.4 0-2.4 2.4z" clip-path="url(#a)" fill="#fff" stroke="#fff"/>
<g clip-path="url(#a)">
<g transform="translate(633.98 604.62) rotate(90) scale(.08 -.08)">
<use xlink:href="#l"/>
<use x="60.818359" xlink:href="#g"/>
<use x="122.341797" xlink:href="#k"/>
<use x="163.439453" xlink:href="#j"/>
<use x="260.851562" xlink:href="#f"/>
<use x="288.634766" xlink:href="#h"/>
<use x="352.013672" xlink:href="#d"/>
<use x="413.292969" xlink:href="#i"/>
</g>
</g>
<path d="m725.54 604.62v35.285q0 2.4 2.4 2.4h7.7425q2.4 0 2.4-2.4v-35.285q0-2.4-2.4-2.4h-7.7425q-2.4 0-2.4 2.4z" clip-path="url(#a)" fill="#fff" stroke="#fff"/>
<g clip-path="url(#a)">
<g transform="translate(729.61 604.62) rotate(90) scale(.08 -.08)">
<use xlink:href="#l"/>
<use x="60.818359" xlink:href="#g"/>
<use x="122.341797" xlink:href="#k"/>
<use x="163.439453" xlink:href="#j"/>
<use x="260.851562" xlink:href="#f"/>
<use x="288.634766" xlink:href="#h"/>
<use x="352.013672" xlink:href="#d"/>
<use x="413.292969" xlink:href="#i"/>
</g>
</g>
<path d="m1299.3 604.62v35.285q0 2.4 2.4 2.4h7.7425q2.4 0 2.4-2.4v-35.285q0-2.4-2.4-2.4h-7.7425q-2.4 0-2.4 2.4z" clip-path="url(#a)" fill="#fff" stroke="#fff"/>
<g clip-path="url(#a)">
<g transform="translate(1303.4 604.62) rotate(90) scale(.08 -.08)">
<use xlink:href="#l"/>
<use x="60.818359" xlink:href="#g"/>
<use x="122.341797" xlink:href="#k"/>
<use x="163.439453" xlink:href="#j"/>
<use x="260.851562" xlink:href="#f"/>
<use x="288.634766" xlink:href="#h"/>
<use x="352.013672" xlink:href="#d"/>
<use x="413.292969" xlink:href="#i"/>
</g>
</g>
<defs>
<path id="b" d="m0 8.6603c2.2967 0 4.4997-0.9125 6.1237-2.5365 1.624-1.624 2.5365-3.827 2.5365-6.1237s-0.9125-4.4997-2.5365-6.1237c-1.624-1.624-3.827-2.5365-6.1237-2.5365s-4.4997 0.9125-6.1237 2.5365c-1.624 1.624-2.5365 3.827-2.5365 6.1237s0.9125 4.4997 2.5365 6.1237c1.624 1.624 3.827 2.5365 6.1237 2.5365z"/>
</defs>
<g clip-path="url(#a)">
<use x="62.399762" y="686.165949" fill="#ffffff" stroke="#ffffff" xlink:href="#b"/>
</g>
<g clip-path="url(#a)">
<use x="110.215165" y="686.165949" fill="#ffffff" stroke="#ffffff" xlink:href="#b"/>
</g>
<g clip-path="url(#a)">
<use x="158.030568" y="686.165949" fill="#ffffff" stroke="#ffffff" xlink:href="#b"/>
</g>
<g clip-path="url(#a)">
<use x="205.845971" y="686.165949" fill="#ffffff" stroke="#ffffff" xlink:href="#b"/>
</g>
<g clip-path="url(#a)">
<use x="253.661374" y="686.165949" fill="#ffffff" stroke="#ffffff" xlink:href="#b"/>
</g>
<g clip-path="url(#a)">
<use x="301.476777" y="686.165949" fill="#ffffff" stroke="#ffffff" xlink:href="#b"/>
</g>
<g clip-path="url(#a)">
<use x="349.29218" y="686.165949" fill="#ffffff" stroke="#ffffff" xlink:href="#b"/>
</g>
<g clip-path="url(#a)">
<use x="397.107583" y="686.165949" fill="#ffffff" stroke="#ffffff" xlink:href="#b"/>
</g>
<g clip-path="url(#a)">
<use x="444.922985" y="686.165949" fill="#ffffff" stroke="#ffffff" xlink:href="#b"/>
</g>
<g clip-path="url(#a)">
<use x="492.738388" y="686.165949" fill="#ffffff" stroke="#ffffff" xlink:href="#b"/>
</g>
<g clip-path="url(#a)">
<use x="540.553791" y="686.165949" fill="#ffffff" stroke="#ffffff" xlink:href="#b"/>
</g>
<g clip-path="url(#a)">
<use x="588.369194" y="686.165949" fill="#ffffff" stroke="#ffffff" xlink:href="#b"/>
</g>
<g clip-path="url(#a)">
<use x="636.184597" y="686.165949" fill="#ffffff" stroke="#ffffff" xlink:href="#b"/>
</g>
<g clip-path="url(#a)">
<use x="684" y="686.165949" fill="#ffffff" stroke="#ffffff" xlink:href="#b"/>
</g>
<g clip-path="url(#a)">
<use x="731.815403" y="686.165949" fill="#ffffff" stroke="#ffffff" xlink:href="#b"/>
</g>
<g clip-path="url(#a)">
<use x="779.630806" y="686.165949" fill="#ffffff" stroke="#ffffff" xlink:href="#b"/>
</g>
<g clip-path="url(#a)">
<use x="827.446209" y="686.165949" fill="#ffffff" stroke="#ffffff" xlink:href="#b"/>
</g>
<g clip-path="url(#a)">
<use x="875.261612" y="686.165949" fill="#ffffff" stroke="#ffffff" xlink:href="#b"/>
</g>
<g clip-path="url(#a)">
<use x="923.077015" y="686.165949" fill="#ffffff" stroke="#ffffff" xlink:href="#b"/>
</g>
<g clip-path="url(#a)">
<use x="970.892417" y="686.165949" fill="#ffffff" stroke="#ffffff" xlink:href="#b"/>
</g>
<g clip-path="url(#a)">
<use x="1018.70782" y="686.165949" fill="#ffffff" stroke="#ffffff" xlink:href="#b"/>
</g>
<g clip-path="url(#a)">
<use x="1066.523223" y="686.165949" fill="#ffffff" stroke="#ffffff" xlink:href="#b"/>
</g>
<g clip-path="url(#a)">
<use x="1114.338626" y="686.165949" fill="#ffffff" stroke="#ffffff" xlink:href="#b"/>
</g>
<g clip-path="url(#a)">
<use x="1162.154029" y="686.165949" fill="#ffffff" stroke="#ffffff" xlink:href="#b"/>
</g>
<g clip-path="url(#a)">
<use x="1209.969432" y="686.165949" fill="#ffffff" stroke="#ffffff" xlink:href="#b"/>
</g>
<g clip-path="url(#a)">
<use x="1257.784835" y="686.165949" fill="#ffffff" stroke="#ffffff" xlink:href="#b"/>
</g>
<g clip-path="url(#a)">
<use x="1305.600238" y="686.165949" fill="#ffffff" stroke="#ffffff" xlink:href="#b"/>
</g>
<g clip-path="url(#a)">
<use x="532.36319" y="33.834051" fill="#ffffff" stroke="#ffffff" xlink:href="#b"/>
</g>
<g clip-path="url(#a)">
<use x="403.748611" y="168.916079" fill="#ffffff" stroke="#ffffff" xlink:href="#b"/>
</g>
<g clip-path="url(#a)">
<use x="253.661374" y="558.366178" fill="#ffffff" stroke="#ffffff" xlink:href="#b"/>
</g>
<g clip-path="url(#a)">
<use x="923.077015" y="558.366178" fill="#ffffff" stroke="#ffffff" xlink:href="#b"/>
</g>
<g clip-path="url(#a)">
<use x="1106.369392" y="300.9888" fill="#ffffff" stroke="#ffffff" xlink:href="#b"/>
</g>
<g clip-path="url(#a)">
<use x="994.800119" y="430.566407" fill="#ffffff" stroke="#ffffff" xlink:href="#b"/>
</g>
<g clip-path="url(#a)">
<use x="1090.430925" y="558.366178" fill="#ffffff" stroke="#ffffff" xlink:href="#b"/>
</g>
<g clip-path="url(#a)">
<use x="1233.877133" y="430.566407" fill="#ffffff" stroke="#ffffff" xlink:href="#b"/>
</g>
<g clip-path="url(#a)">
<use x="1162.154029" y="558.366178" fill="#ffffff" stroke="#ffffff" xlink:href="#b"/>
</g>
<g clip-path="url(#a)">
<use x="1209.969432" y="558.366178" fill="#ffffff" stroke="#ffffff" xlink:href="#b"/>
</g>
<g clip-path="url(#a)">
<use x="1257.784835" y="558.366178" fill="#ffffff" stroke="#ffffff" xlink:href="#b"/>
</g>
<g clip-path="url(#a)">
<use x="970.892417" y="558.366178" fill="#ffffff" stroke="#ffffff" xlink:href="#b"/>
</g>
<g clip-path="url(#a)">
<use x="1018.70782" y="558.366178" fill="#ffffff" stroke="#ffffff" xlink:href="#b"/>
</g>
<g clip-path="url(#a)">
<use x="110.215165" y="430.566407" fill="#ffffff" stroke="#ffffff" xlink:href="#b"/>
</g>
<g clip-path="url(#a)">
<use x="349.29218" y="558.366178" fill="#ffffff" stroke="#ffffff" xlink:href="#b"/>
</g>
<g clip-path="url(#a)">
<use x="444.922985" y="430.566407" fill="#ffffff" stroke="#ffffff" xlink:href="#b"/>
</g>
<g clip-path="url(#a)">
<use x="710.564113" y="300.9888" fill="#ffffff" stroke="#ffffff" xlink:href="#b"/>
</g>
<g clip-path="url(#a)">
<use x="668.061532" y="430.566407" fill="#ffffff" stroke="#ffffff" xlink:href="#b"/>
</g>
<g clip-path="url(#a)">
<use x="699.938468" y="430.566407" fill="#ffffff" stroke="#ffffff" xlink:href="#b"/>
</g>
<g clip-path="url(#a)">
<use x="779.630806" y="558.366178" fill="#ffffff" stroke="#ffffff" xlink:href="#b"/>
</g>
<g clip-path="url(#a)">
<use x="747.753871" y="430.566407" fill="#ffffff" stroke="#ffffff" xlink:href="#b"/>
</g>
<g clip-path="url(#a)">
<use x="827.446209" y="558.366178" fill="#ffffff" stroke="#ffffff" xlink:href="#b"/>
</g>
<g clip-path="url(#a)">
<use x="875.261612" y="558.366178" fill="#ffffff" stroke="#ffffff" xlink:href="#b"/>
</g>
<g clip-path="url(#a)">
<use x="684" y="558.366178" fill="#ffffff" stroke="#ffffff" xlink:href="#b"/>
</g>
<g clip-path="url(#a)">
<use x="540.553791" y="558.366178" fill="#ffffff" stroke="#ffffff" xlink:href="#b"/>
</g>
<g clip-path="url(#a)">
<use x="588.369194" y="558.366178" fill="#ffffff" stroke="#ffffff" xlink:href="#b"/>
</g>
<g clip-path="url(#a)">
<use x="397.107583" y="558.366178" fill="#ffffff" stroke="#ffffff" xlink:href="#b"/>
</g>
<g clip-path="url(#a)">
<use x="444.922985" y="558.366178" fill="#ffffff" stroke="#ffffff" xlink:href="#b"/>
</g>
<g clip-path="url(#a)">
<use x="492.738388" y="558.366178" fill="#ffffff" stroke="#ffffff" xlink:href="#b"/>
</g>
<g clip-path="url(#a)">
<use x="62.399762" y="558.366178" fill="#ffffff" stroke="#ffffff" xlink:href="#b"/>
</g>
<g clip-path="url(#a)">
<use x="110.215165" y="558.366178" fill="#ffffff" stroke="#ffffff" xlink:href="#b"/>
</g>
<g clip-path="url(#a)">
<use x="158.030568" y="558.366178" fill="#ffffff" stroke="#ffffff" xlink:href="#b"/>
</g>
<g clip-path="url(#a)">
<use x="1014.723203" y="168.916079" fill="#808080" stroke="#808080" xlink:href="#b"/>
</g>
<g clip-path="url(#a)">
<use x="328.704992" y="33.834051" fill="#808080" stroke="#808080" xlink:href="#b"/>
</g>
<g clip-path="url(#a)">
<use x="205.845971" y="558.366178" fill="#ffffff" stroke="#ffffff" xlink:href="#b"/>
</g>
<g clip-path="url(#a)">
<use x="301.476777" y="558.366178" fill="#ffffff" stroke="#ffffff" xlink:href="#b"/>
</g>
<g clip-path="url(#a)">
<use x="636.184597" y="558.366178" fill="#ffffff" stroke="#ffffff" xlink:href="#b"/>
</g>
<g clip-path="url(#a)">
<use x="731.815403" y="558.366178" fill="#ffffff" stroke="#ffffff" xlink:href="#b"/>
</g>
<g clip-path="url(#a)">
<use x="1305.600238" y="558.366178" fill="#ffffff" stroke="#ffffff" xlink:href="#b"/>
</g>
<g clip-path="url(#a)">
<defs>
<path id="am" d="m9.8125 72.906h9.8594v-72.906h-9.8594z"/>
</defs>
<g transform="translate(57.756 688.93) scale(.1 -.1)">
<use xlink:href="#am"/>
<use x="29.492188" xlink:href="#h"/>
</g>
</g>
<g clip-path="url(#a)">
<defs>
<path id="o" d="m18.312 70.219v-15.531h18.5v-6.9844h-18.5v-29.688q0-6.6875 1.8281-8.5938t7.4531-1.9062h9.2188v-7.5156h-9.2188q-10.406 0-14.359 3.875-3.9531 3.8906-3.9531 14.141v29.688h-6.5938v6.9844h6.5938v15.531z"/>
<path id="x" d="m54.891 33.016v-33.016h-8.9844v32.719q0 7.7656-3.0312 11.609-3.0312 3.8594-9.0781 3.8594-7.2812 0-11.484-4.6406-4.2031-4.625-4.2031-12.641v-30.906h-9.0312v75.984h9.0312v-29.797q3.2344 4.9375 7.5938 7.375 4.375 2.4375 10.094 2.4375 9.4219 0 14.25-5.8281 4.8438-5.8281 4.8438-17.156z"/>
</defs>
<g transform="translate(102.01 688.93) scale(.1 -.1)">
<use xlink:href="#o"/>
<use x="39.208984" xlink:href="#x"/>
<use x="102.587891" xlink:href="#g"/>
</g>
</g>
<g clip-path="url(#a)">
<g transform="translate(132.55 688.93) scale(.1 -.1)">
<use xlink:href="#j"/>
<use x="97.412109" xlink:href="#g"/>
<use x="158.935547" xlink:href="#d"/>
<use x="220.214844" xlink:href="#h"/>
<use x="283.59375" xlink:href="#o"/>
<use x="322.802734" xlink:href="#f"/>
<use x="350.585938" xlink:href="#j"/>
<use x="447.998047" xlink:href="#g"/>
</g>
</g>
<g clip-path="url(#a)">
<defs>
<path id="ae" d="m11.719 12.406h10.297v-8.4062l-8-15.625h-6.2969l4 15.625z"/>
</defs>
<g transform="translate(204.26 688.93) scale(.1 -.1)">
<use xlink:href="#ae"/>
</g>
</g>
<g clip-path="url(#a)">
<g transform="translate(242.29 688.93) scale(.1 -.1)">
<use xlink:href="#o"/>
<use x="39.208984" xlink:href="#x"/>
<use x="102.587891" xlink:href="#g"/>
<use x="164.111328" xlink:href="#h"/>
</g>
</g>
<g clip-path="url(#a)">
<g transform="translate(299.89 688.93) scale(.1 -.1)">
<use xlink:href="#ae"/>
</g>
</g>
<g clip-path="url(#a)">
<g transform="translate(347.82 688.93) scale(.1 -.1)">
<use xlink:href="#am"/>
</g>
</g>
<g clip-path="url(#a)">
<defs>
<path id="ai" d="m4.2031 54.688h8.9844l11.234-42.672 11.172 42.672h10.594l11.234-42.672 11.188 42.672h8.9844l-14.312-54.688h-10.594l-11.766 44.828-11.812-44.828h-10.609z"/>
<path id="w" d="m44.281 53.078v-8.5q-3.7969 1.9531-7.9062 2.9219-4.0938 0.98438-8.5 0.98438-6.6875 0-10.031-2.0469t-3.3438-6.1562q0-3.125 2.3906-4.9062t9.625-3.3906l3.0781-0.6875q9.5625-2.0469 13.594-5.7812t4.0312-10.422q0-7.625-6.0312-12.078-6.0312-4.4375-16.578-4.4375-4.3906 0-9.1562 0.85938t-10.031 2.5625v9.2812q4.9844-2.5938 9.8125-3.8906 4.8281-1.2812 9.5781-1.2812 6.3438 0 9.75 2.1719 3.4219 2.1719 3.4219 6.125 0 3.6562-2.4688 5.6094-2.4531 1.9531-10.812 3.7656l-3.125 0.73438q-8.3438 1.75-12.062 5.3906-3.7031 3.6406-3.7031 9.9844 0 7.7188 5.4688 11.906 5.4688 4.2031 15.531 4.2031 4.9688 0 9.3594-0.73438 4.4062-0.71875 8.1094-2.1875z"/>
</defs>
<g transform="translate(387.35 688.93) scale(.1 -.1)">
<use xlink:href="#ai"/>
<use x="81.787109" xlink:href="#d"/>
<use x="143.066406" xlink:href="#w"/>
</g>
</g>
<g clip-path="url(#a)">
<defs>
<path id="ak" d="m48.688 27.297q0 9.9062-4.0781 15.547t-11.203 5.6406q-7.1406 0-11.219-5.6406t-4.0781-15.547 4.0781-15.547 11.219-5.6406q7.125 0 11.203 5.6406t4.0781 15.547zm-30.578 19.094q2.8438 4.875 7.1562 7.2344 4.3281 2.375 10.328 2.375 9.9688 0 16.188-7.9062 6.2344-7.9062 6.2344-20.797t-6.2344-20.812q-6.2188-7.9062-16.188-7.9062-6 0-10.328 2.375-4.3125 2.375-7.1562 7.25v-8.2031h-9.0312v75.984h9.0312z"/>
<path id="ao" d="m8.5 21.578v33.109h8.9844v-32.766q0-7.7656 3.0156-11.656 3.0312-3.875 9.0938-3.875 7.2656 0 11.484 4.6406 4.2344 4.6406 4.2344 12.656v31h8.9844v-54.688h-8.9844v8.4062q-3.2656-4.9844-7.5938-7.4062-4.3125-2.4219-10.031-2.4219-9.4219 0-14.312 5.8594-4.875 5.8594-4.875 17.141z"/>
<path id="ah" d="m32.172-5.0781q-3.7969-9.7656-7.4219-12.734-3.6094-2.9844-9.6562-2.9844h-7.1875v7.5156h5.2812q3.7031 0 5.75 1.7656 2.0625 1.75 4.5469 8.2969l1.6094 4.0938-22.109 53.812h9.5156l17.094-42.766 17.094 42.766h9.5156z"/>
</defs>
<g transform="translate(433.02 688.93) scale(.1 -.1)">
<use xlink:href="#ak"/>
<use x="63.476562" xlink:href="#ao"/>
<use x="126.855469" xlink:href="#w"/>
<use x="178.955078" xlink:href="#ah"/>
</g>
</g>
<g clip-path="url(#a)">
<defs>
<path id="t" d="m48.781 52.594v-8.4062q-3.8125 2.1094-7.6406 3.1562t-7.7344 1.0469q-8.75 0-13.594-5.5469-4.8281-5.5312-4.8281-15.547t4.8281-15.562q4.8438-5.5312 13.594-5.5312 3.9062 0 7.7344 1.0469t7.6406 3.1562v-8.3125q-3.7656-1.75-7.7969-2.625-4.0156-0.89062-8.5625-0.89062-12.359 0-19.641 7.7656-7.2656 7.7656-7.2656 20.953 0 13.375 7.3438 21.031 7.3594 7.6719 20.156 7.6719 4.1406 0 8.0938-0.85938 3.9531-0.84375 7.6719-2.5469z"/>
<path id="ax" d="m37.109 75.984v-7.4844h-8.5938q-4.8281 0-6.7188-1.9531-1.875-1.9531-1.875-7.0312v-4.8281h14.797v-6.9844h-14.797v-47.703h-9.0312v47.703h-8.5938v6.9844h8.5938v3.8125q0 9.125 4.25 13.297 4.25 4.1875 13.469 4.1875z"/>
<path id="aj" d="m45.406 27.984q0 9.7656-4.0312 15.125-4.0156 5.375-11.297 5.375-7.2188 0-11.25-5.375-4.0312-5.3594-4.0312-15.125 0-9.7188 4.0312-15.094t11.25-5.375q7.2812 0 11.297 5.375 4.0312 5.375 4.0312 15.094zm8.9844-21.203q0-13.953-6.2031-20.766-6.1875-6.8125-18.984-6.8125-4.7344 0-8.9375 0.70312t-8.1562 2.1719v8.7344q3.9531-2.1406 7.8125-3.1562 3.8594-1.0312 7.8594-1.0312 8.8438 0 13.234 4.6094t4.3906 13.938v4.4531q-2.7812-4.8438-7.125-7.2344t-10.406-2.3906q-10.047 0-16.203 7.6562-6.1562 7.6719-6.1562 20.328 0 12.688 6.1562 20.344 6.1562 7.6719 16.203 7.6719 6.0625 0 10.406-2.3906t7.125-7.2188v8.2969h8.9844z"/>
</defs>
<g transform="translate(466.49 688.93) scale(.1 -.1)">
<use xlink:href="#t"/>
<use x="54.980469" xlink:href="#i"/>
<use x="82.763672" xlink:href="#d"/>
<use x="144.042969" xlink:href="#w"/>
<use x="196.142578" xlink:href="#w"/>
<use x="248.242188" xlink:href="#f"/>
<use x="276.025391" xlink:href="#ax"/>
<use x="311.214844" xlink:href="#ah"/>
<use x="370.394531" xlink:href="#f"/>
<use x="398.177734" xlink:href="#h"/>
<use x="461.556641" xlink:href="#aj"/>
</g>
</g>
<g clip-path="url(#a)">
<g transform="translate(532.72 688.93) scale(.1 -.1)">
<use xlink:href="#j"/>
<use x="97.412109" xlink:href="#ah"/>
</g>
</g>
<g clip-path="url(#a)">
<defs>
<path id="s" d="m30.609 48.391q-7.2188 0-11.422-5.6406t-4.2031-15.453 4.1719-15.453q4.1875-5.6406 11.453-5.6406 7.1875 0 11.375 5.6562 4.2031 5.6719 4.2031 15.438 0 9.7188-4.2031 15.406-4.1875 5.6875-11.375 5.6875zm0 7.6094q11.719 0 18.406-7.625 6.7031-7.6094 6.7031-21.078 0-13.422-6.7031-21.078-6.6875-7.6406-18.406-7.6406-11.766 0-18.438 7.6406-6.6562 7.6562-6.6562 21.078 0 13.469 6.6562 21.078 6.6719 7.625 18.438 7.625z"/>
</defs>
<g transform="translate(554.53 688.93) scale(.1 -.1)">
<use xlink:href="#j"/>
<use x="97.412109" xlink:href="#f"/>
<use x="125.195312" xlink:href="#h"/>
<use x="188.574219" xlink:href="#g"/>
<use x="250.097656" xlink:href="#k"/>
<use x="291.210938" xlink:href="#d"/>
<use x="352.490234" xlink:href="#i"/>
<use x="380.273438" xlink:href="#s"/>
<use x="441.455078" xlink:href="#aj"/>
<use x="504.931641" xlink:href="#f"/>
<use x="532.714844" xlink:href="#t"/>
<use x="587.695312" xlink:href="#d"/>
<use x="648.974609" xlink:href="#i"/>
</g>
</g>
<g clip-path="url(#a)">
<g transform="translate(634.6 688.93) scale(.1 -.1)">
<use xlink:href="#ae"/>
</g>
</g>
<g clip-path="url(#a)">
<g transform="translate(660.98 688.93) scale(.1 -.1)">
<use xlink:href="#ak"/>
<use x="63.476562" xlink:href="#s"/>
<use x="124.658203" xlink:href="#o"/>
<use x="163.867188" xlink:href="#d"/>
<use x="225.146484" xlink:href="#h"/>
<use x="288.525391" xlink:href="#f"/>
<use x="316.308594" xlink:href="#t"/>
<use x="371.289062" xlink:href="#d"/>
<use x="432.568359" xlink:href="#i"/>
</g>
</g>
<g clip-path="url(#a)">
<g transform="translate(730.23 688.93) scale(.1 -.1)">
<use xlink:href="#ae"/>
</g>
</g>
<g clip-path="url(#a)">
<defs>
<path id="ap" d="m45.406 46.391v29.594h8.9844v-75.984h-8.9844v8.2031q-2.8281-4.875-7.1562-7.25-4.3125-2.375-10.375-2.375-9.9062 0-16.141 7.9062-6.2188 7.9219-6.2188 20.812t6.2188 20.797q6.2344 7.9062 16.141 7.9062 6.0625 0 10.375-2.375 4.3281-2.3594 7.1562-7.2344zm-30.609-19.094q0-9.9062 4.0781-15.547t11.203-5.6406 11.219 5.6406q4.1094 5.6406 4.1094 15.547t-4.1094 15.547q-4.0938 5.6406-11.219 5.6406t-11.203-5.6406-4.0781-15.547z"/>
</defs>
<g transform="translate(770.22 688.93) scale(.1 -.1)">
<use xlink:href="#d"/>
<use x="61.279297" xlink:href="#h"/>
<use x="124.658203" xlink:href="#ap"/>
</g>
</g>
<g clip-path="url(#a)">
<defs>
<path id="au" d="m5.5156 54.688h42.672v-8.2031l-33.781-39.312h33.781v-7.1719h-43.891v8.2031l33.797 39.312h-32.578z"/>
</defs>
<g transform="translate(802.49 688.93) scale(.1 -.1)">
<use xlink:href="#au"/>
<use x="52.490234" xlink:href="#s"/>
<use x="113.671875" xlink:href="#s"/>
<use x="174.853516" xlink:href="#i"/>
<use x="202.636719" xlink:href="#s"/>
<use x="263.818359" xlink:href="#aj"/>
<use x="327.294922" xlink:href="#f"/>
<use x="355.078125" xlink:href="#t"/>
<use x="410.058594" xlink:href="#d"/>
<use x="471.337891" xlink:href="#i"/>
</g>
</g>
<g clip-path="url(#a)">
<g transform="translate(851.6 688.93) scale(.1 -.1)">
<use xlink:href="#o"/>
<use x="39.208984" xlink:href="#k"/>
<use x="80.291016" xlink:href="#g"/>
<use x="141.814453" xlink:href="#d"/>
<use x="203.09375" xlink:href="#w"/>
<use x="255.193359" xlink:href="#ao"/>
<use x="318.572266" xlink:href="#k"/>
<use x="359.654297" xlink:href="#g"/>
<use x="421.177734" xlink:href="#w"/>
</g>
</g>
<g clip-path="url(#a)">
<g transform="translate(909.57 688.93) scale(.1 -.1)">
<use xlink:href="#ai"/>
<use x="81.787109" xlink:href="#x"/>
<use x="145.166016" xlink:href="#g"/>
<use x="206.689453" xlink:href="#h"/>
</g>
</g>
<g clip-path="url(#a)">
<g transform="translate(960.74 688.93) scale(.1 -.1)">
<use xlink:href="#o"/>
<use x="39.208984" xlink:href="#x"/>
<use x="102.587891" xlink:href="#d"/>
<use x="163.867188" xlink:href="#o"/>
</g>
</g>
<g clip-path="url(#a)">
<g transform="translate(998.63 688.93) scale(.1 -.1)">
<use xlink:href="#f"/>
<use x="27.783203" xlink:href="#h"/>
<use x="91.162109" xlink:href="#t"/>
<use x="146.142578" xlink:href="#f"/>
<use x="173.925781" xlink:href="#ap"/>
<use x="237.402344" xlink:href="#g"/>
<use x="298.925781" xlink:href="#h"/>
<use x="362.304688" xlink:href="#o"/>
</g>
</g>
<g clip-path="url(#a)">
<defs>
<path id="aw" d="m9.0781 75.984h9.0312v-44.875l26.812 23.578h11.469l-29-25.578 30.234-29.109h-11.719l-27.797 26.703v-26.703h-9.0312z"/>
</defs>
<g transform="translate(1055.5 688.93) scale(.1 -.1)">
<use xlink:href="#o"/>
<use x="39.208984" xlink:href="#s"/>
<use x="100.390625" xlink:href="#s"/>
<use x="161.572266" xlink:href="#aw"/>
</g>
</g>
<g clip-path="url(#a)">
<defs>
<path id="av" d="m18.109 8.2031v-29h-9.0312v75.484h9.0312v-8.2969q2.8438 4.875 7.1562 7.2344 4.3281 2.375 10.328 2.375 9.9688 0 16.188-7.9062 6.2344-7.9062 6.2344-20.797t-6.2344-20.812q-6.2188-7.9062-16.188-7.9062-6 0-10.328 2.375-4.3125 2.375-7.1562 7.25zm30.578 19.094q0 9.9062-4.0781 15.547t-11.203 5.6406q-7.1406 0-11.219-5.6406t-4.0781-15.547 4.0781-15.547 11.219-5.6406q7.125 0 11.203 5.6406t4.0781 15.547z"/>
</defs>
<g transform="translate(1100.9 688.93) scale(.1 -.1)">
<use xlink:href="#av"/>
<use x="63.476562" xlink:href="#i"/>
<use x="91.259766" xlink:href="#d"/>
<use x="152.539062" xlink:href="#t"/>
<use x="207.519531" xlink:href="#g"/>
</g>
</g>
<g clip-path="url(#a)">
<g transform="translate(1151.5 688.93) scale(.1 -.1)">
<use xlink:href="#ai"/>
<use x="81.787109" xlink:href="#f"/>
<use x="109.570312" xlink:href="#o"/>
<use x="148.779297" xlink:href="#x"/>
</g>
</g>
<g clip-path="url(#a)">
<g transform="translate(1201.8 688.93) scale(.1 -.1)">
<use xlink:href="#o"/>
<use x="39.208984" xlink:href="#x"/>
<use x="102.587891" xlink:href="#g"/>
</g>
</g>
<g clip-path="url(#a)">
<defs>
<path id="aq" d="m53.516 70.516v-9.625q-5.6094 2.6875-10.594 4-4.9844 1.3281-9.625 1.3281-8.0469 0-12.422-3.125t-4.375-8.8906q0-4.8438 2.9062-7.3125 2.9062-2.4531 11.016-3.9688l5.9531-1.2188q11.031-2.1094 16.281-7.4062t5.25-14.172q0-10.609-7.1094-16.078-7.0938-5.4688-20.812-5.4688-5.1719 0-11.016 1.1719-5.8281 1.1719-12.078 3.4688v10.156q6-3.3594 11.766-5.0781 5.7656-1.7031 11.328-1.7031 8.4375 0 13.031 3.3125 4.5938 3.3281 4.5938 9.4844 0 5.3594-3.2969 8.3906t-10.812 4.5469l-6.0156 1.1719q-11.031 2.1875-15.969 6.875-4.9219 4.6875-4.9219 13.047 0 9.6719 6.8125 15.234t18.766 5.5625q5.1406 0 10.453-0.9375 5.3281-0.92188 10.891-2.7656z"/>
</defs>
<g transform="translate(1242.4 688.93) scale(.1 -.1)">
<use xlink:href="#aq"/>
<use x="63.476562" xlink:href="#t"/>
<use x="118.457031" xlink:href="#s"/>
<use x="179.638672" xlink:href="#o"/>
<use x="218.847656" xlink:href="#f"/>
<use x="246.630859" xlink:href="#d"/>
</g>
</g>
<g clip-path="url(#a)">
<defs>
<path id="e" d="m10.688 12.406h10.312v-12.406h-10.312z"/>
</defs>
<g transform="translate(1304 688.93) scale(.1 -.1)">
<use xlink:href="#e"/>
</g>
</g>
<g clip-path="url(#a)">
<defs>
<path id="c" d="m12.406 8.2969h16.109v55.625l-17.531-3.5156v8.9844l17.438 3.5156h9.8594v-64.609h16.109v-8.2969h-41.984z"/>
</defs>
<g transform="translate(524.41 36.593) scale(.1 -.1)">
<use xlink:href="#c"/>
<use x="63.623047" xlink:href="#e"/>
<use x="95.410156" xlink:href="#c"/>
</g>
</g>
<g clip-path="url(#a)">
<defs>
<path id="n" d="m19.188 8.2969h34.422v-8.2969h-46.281v8.2969q5.6094 5.8125 15.297 15.594 9.7031 9.7969 12.188 12.641 4.7344 5.3125 6.6094 9 1.8906 3.6875 1.8906 7.25 0 5.8125-4.0781 9.4688-4.0781 3.6719-10.625 3.6719-4.6406 0-9.7969-1.6094-5.1406-1.6094-11-4.8906v9.9688q5.9531 2.3906 11.125 3.6094 5.1875 1.2188 9.4844 1.2188 11.328 0 18.062-5.6719 6.7344-5.6562 6.7344-15.125 0-4.5-1.6875-8.5312-1.6719-4.0156-6.125-9.4844-1.2188-1.4219-7.7656-8.1875-6.5312-6.7656-18.453-18.922z"/>
</defs>
<g transform="translate(395.8 171.68) scale(.1 -.1)">
<use xlink:href="#c"/>
<use x="63.623047" xlink:href="#e"/>
<use x="95.410156" xlink:href="#n"/>
</g>
</g>
<g clip-path="url(#a)">
<defs>
<path id="r" d="m37.797 64.312-24.906-38.922h24.906zm-2.5938 8.5938h12.406v-47.516h10.406v-8.2031h-10.406v-17.188h-9.8125v17.188h-32.906v9.5156z"/>
</defs>
<g transform="translate(245.71 561.13) scale(.1 -.1)">
<use xlink:href="#c"/>
<use x="63.623047" xlink:href="#e"/>
<use x="95.410156" xlink:href="#r"/>
</g>
</g>
<g clip-path="url(#a)">
<defs>
<path id="ac" d="m33.016 40.375q-6.6406 0-10.531-4.5469-3.875-4.5312-3.875-12.438 0-7.8594 3.875-12.438 3.8906-4.5625 10.531-4.5625t10.516 4.5625q3.875 4.5781 3.875 12.438 0 7.9062-3.875 12.438-3.875 4.5469-10.516 4.5469zm19.578 30.922v-8.9844q-3.7188 1.75-7.5 2.6719-3.7812 0.9375-7.5 0.9375-9.7656 0-14.922-6.5938-5.1406-6.5938-5.875-19.922 2.875 4.25 7.2188 6.5156 4.3594 2.2656 9.5781 2.2656 10.984 0 17.359-6.6719 6.375-6.6562 6.375-18.125 0-11.234-6.6406-18.031-6.6406-6.7812-17.672-6.7812-12.656 0-19.344 9.6875-6.6875 9.7031-6.6875 28.109 0 17.281 8.2031 27.562t22.016 10.281q3.7188 0 7.5-0.73438t7.8906-2.1875z"/>
</defs>
<g transform="translate(915.13 561.13) scale(.1 -.1)">
<use xlink:href="#c"/>
<use x="63.623047" xlink:href="#e"/>
<use x="95.410156" xlink:href="#ac"/>
</g>
</g>
<g clip-path="url(#a)">
<defs>
<path id="ab" d="m8.2031 72.906h46.875v-4.2031l-26.469-68.703h-10.297l24.906 64.594h-35.016z"/>
</defs>
<g transform="translate(1098.4 303.75) scale(.1 -.1)">
<use xlink:href="#c"/>
<use x="63.623047" xlink:href="#e"/>
<use x="95.410156" xlink:href="#ab"/>
</g>
</g>
<g clip-path="url(#a)">
<defs>
<path id="aa" d="m10.984 1.5156v8.9844q3.7188-1.7656 7.5156-2.6875 3.8125-0.92188 7.4844-0.92188 9.7656 0 14.906 6.5625 5.1562 6.5625 5.8906 19.953-2.8281-4.2031-7.1875-6.4531-4.3438-2.25-9.6094-2.25-10.938 0-17.312 6.6094-6.375 6.625-6.375 18.109 0 11.219 6.6406 18 6.6406 6.7969 17.672 6.7969 12.656 0 19.312-9.7031 6.6719-9.6875 6.6719-28.141 0-17.234-8.1875-27.516-8.1719-10.281-21.984-10.281-3.7188 0-7.5312 0.73438-3.7969 0.73438-7.9062 2.2031zm19.625 30.906q6.6406 0 10.516 4.5312 3.8906 4.5469 3.8906 12.469 0 7.8594-3.8906 12.422-3.875 4.5625-10.516 4.5625t-10.516-4.5625-3.875-12.422q0-7.9219 3.875-12.469 3.875-4.5312 10.516-4.5312z"/>
</defs>
<g transform="translate(986.85 433.33) scale(.1 -.1)">
<use xlink:href="#c"/>
<use x="63.623047" xlink:href="#e"/>
<use x="95.410156" xlink:href="#aa"/>
</g>
</g>
<g clip-path="url(#a)">
<defs>
<path id="ad" d="m31.781 66.406q-7.6094 0-11.453-7.5-3.8281-7.4844-3.8281-22.531 0-14.984 3.8281-22.484 3.8438-7.5 11.453-7.5 7.6719 0 11.5 7.5 3.8438 7.5 3.8438 22.484 0 15.047-3.8438 22.531-3.8281 7.5-11.5 7.5zm0 7.8125q12.266 0 18.734-9.7031 6.4688-9.6875 6.4688-28.141 0-18.406-6.4688-28.109-6.4688-9.6875-18.734-9.6875-12.25 0-18.719 9.6875-6.4688 9.7031-6.4688 28.109 0 18.453 6.4688 28.141 6.4688 9.7031 18.719 9.7031z"/>
</defs>
<g transform="translate(1079.3 561.13) scale(.1 -.1)">
<use xlink:href="#c"/>
<use x="63.623047" xlink:href="#e"/>
<use x="95.410156" xlink:href="#c"/>
<use x="159.033203" xlink:href="#ad"/>
</g>
</g>
<g clip-path="url(#a)">
<g transform="translate(1222.7 433.33) scale(.1 -.1)">
<use xlink:href="#c"/>
<use x="63.623047" xlink:href="#e"/>
<use x="95.410156" xlink:href="#c"/>
<use x="159.033203" xlink:href="#c"/>
</g>
</g>
<g clip-path="url(#a)">
<g transform="translate(1151 561.13) scale(.1 -.1)">
<use xlink:href="#c"/>
<use x="63.623047" xlink:href="#e"/>
<use x="95.410156" xlink:href="#c"/>
<use x="159.033203" xlink:href="#n"/>
</g>
</g>
<g clip-path="url(#a)">
<defs>
<path id="m" d="m40.578 39.312q7.0781-1.5156 11.047-6.3125 3.9844-4.7812 3.9844-11.812 0-10.781-7.4219-16.703-7.4219-5.9062-21.094-5.9062-4.5781 0-9.4375 0.90625t-10.031 2.7188v9.5156q4.0938-2.3906 8.9688-3.6094 4.8906-1.2188 10.219-1.2188 9.2656 0 14.125 3.6562t4.8594 10.641q0 6.4531-4.5156 10.078-4.5156 3.6406-12.562 3.6406h-8.5v8.1094h8.8906q7.2656 0 11.125 2.9062t3.8594 8.375q0 5.6094-3.9844 8.6094-3.9688 3.0156-11.391 3.0156-4.0625 0-8.7031-0.89062-4.6406-0.875-10.203-2.7188v8.7812q5.625 1.5625 10.531 2.3438t9.25 0.78125q11.234 0 17.766-5.1094 6.5469-5.0938 6.5469-13.781 0-6.0625-3.4688-10.234t-9.8594-5.7812z"/>
</defs>
<g transform="translate(1198.8 561.13) scale(.1 -.1)">
<use xlink:href="#c"/>
<use x="63.623047" xlink:href="#e"/>
<use x="95.410156" xlink:href="#c"/>
<use x="159.033203" xlink:href="#m"/>
</g>
</g>
<g clip-path="url(#a)">
<g transform="translate(1246.7 561.13) scale(.1 -.1)">
<use xlink:href="#c"/>
<use x="63.623047" xlink:href="#e"/>
<use x="95.410156" xlink:href="#c"/>
<use x="159.033203" xlink:href="#r"/>
</g>
</g>
<g clip-path="url(#a)">
<defs>
<path id="ag" d="m10.797 72.906h38.719v-8.3125h-29.688v-17.859q2.1406 0.73438 4.2812 1.0938 2.1562 0.35938 4.3125 0.35938 12.203 0 19.328-6.6875 7.1406-6.6875 7.1406-18.109 0-11.766-7.3281-18.297-7.3281-6.5156-20.656-6.5156-4.5938 0-9.3594 0.78125-4.75 0.78125-9.8281 2.3438v9.9219q4.3906-2.3906 9.0781-3.5625t9.9062-1.1719q8.4531 0 13.375 4.4375 4.9375 4.4375 4.9375 12.062 0 7.6094-4.9375 12.047-4.9219 4.4531-13.375 4.4531-3.9531 0-7.8906-0.875-3.9219-0.875-8.0156-2.7344z"/>
</defs>
<g transform="translate(959.76 561.13) scale(.1 -.1)">
<use xlink:href="#c"/>
<use x="63.623047" xlink:href="#e"/>
<use x="95.410156" xlink:href="#c"/>
<use x="159.033203" xlink:href="#ag"/>
</g>
</g>
<g clip-path="url(#a)">
<g transform="translate(1007.6 561.13) scale(.1 -.1)">
<use xlink:href="#c"/>
<use x="63.623047" xlink:href="#e"/>
<use x="95.410156" xlink:href="#c"/>
<use x="159.033203" xlink:href="#ac"/>
</g>
</g>
<g clip-path="url(#a)">
<g transform="translate(99.082 433.33) scale(.1 -.1)">
<use xlink:href="#c"/>
<use x="63.623047" xlink:href="#e"/>
<use x="95.410156" xlink:href="#c"/>
<use x="159.033203" xlink:href="#ab"/>
</g>
</g>
<g clip-path="url(#a)">
<defs>
<path id="af" d="m31.781 34.625q-7.0312 0-11.062-3.7656-4.0156-3.7656-4.0156-10.344 0-6.5938 4.0156-10.359 4.0312-3.7656 11.062-3.7656t11.078 3.7812q4.0625 3.7969 4.0625 10.344 0 6.5781-4.0312 10.344-4.0156 3.7656-11.109 3.7656zm-9.8594 4.1875q-6.3438 1.5625-9.8906 5.9062-3.5312 4.3594-3.5312 10.609 0 8.7344 6.2188 13.812 6.2344 5.0781 17.062 5.0781 10.891 0 17.094-5.0781t6.2031-13.812q0-6.25-3.5469-10.609-3.5312-4.3438-9.8281-5.9062 7.125-1.6562 11.094-6.5 3.9844-4.8281 3.9844-11.797 0-10.609-6.4688-16.281-6.4688-5.6562-18.531-5.6562-12.047 0-18.531 5.6562-6.4688 5.6719-6.4688 16.281 0 6.9688 4 11.797 4.0156 4.8438 11.141 6.5zm-3.6094 15.578q0-5.6562 3.5312-8.8281 3.5469-3.1719 9.9375-3.1719 6.3594 0 9.9375 3.1719 3.5938 3.1719 3.5938 8.8281 0 5.6719-3.5938 8.8438-3.5781 3.1719-9.9375 3.1719-6.3906 0-9.9375-3.1719-3.5312-3.1719-3.5312-8.8438z"/>
</defs>
<g transform="translate(338.16 561.13) scale(.1 -.1)">
<use xlink:href="#c"/>
<use x="63.623047" xlink:href="#e"/>
<use x="95.410156" xlink:href="#c"/>
<use x="159.033203" xlink:href="#af"/>
</g>
</g>
<g clip-path="url(#a)">
<g transform="translate(433.79 433.33) scale(.1 -.1)">
<use xlink:href="#c"/>
<use x="63.623047" xlink:href="#e"/>
<use x="95.410156" xlink:href="#c"/>
<use x="159.033203" xlink:href="#aa"/>
</g>
</g>
<g clip-path="url(#a)">
<g transform="translate(699.43 303.75) scale(.1 -.1)">
<use xlink:href="#c"/>
<use x="63.623047" xlink:href="#e"/>
<use x="95.410156" xlink:href="#n"/>
<use x="159.033203" xlink:href="#ad"/>
</g>
</g>
<g clip-path="url(#a)">
<g transform="translate(656.93 433.33) scale(.1 -.1)">
<use xlink:href="#c"/>
<use x="63.623047" xlink:href="#e"/>
<use x="95.410156" xlink:href="#n"/>
<use x="159.033203" xlink:href="#c"/>
</g>
</g>
<g clip-path="url(#a)">
<g transform="translate(688.81 433.33) scale(.1 -.1)">
<use xlink:href="#c"/>
<use x="63.623047" xlink:href="#e"/>
<use x="95.410156" xlink:href="#n"/>
<use x="159.033203" xlink:href="#m"/>
</g>
</g>
<g clip-path="url(#a)">
<g transform="translate(768.5 561.13) scale(.1 -.1)">
<use xlink:href="#c"/>
<use x="63.623047" xlink:href="#e"/>
<use x="95.410156" xlink:href="#n"/>
<use x="159.033203" xlink:href="#ag"/>
</g>
</g>
<g clip-path="url(#a)">
<g transform="translate(736.62 433.33) scale(.1 -.1)">
<use xlink:href="#c"/>
<use x="63.623047" xlink:href="#e"/>
<use x="95.410156" xlink:href="#n"/>
<use x="159.033203" xlink:href="#ac"/>
</g>
</g>
<g clip-path="url(#a)">
<g transform="translate(816.31 561.13) scale(.1 -.1)">
<use xlink:href="#c"/>
<use x="63.623047" xlink:href="#e"/>
<use x="95.410156" xlink:href="#n"/>
<use x="159.033203" xlink:href="#ab"/>
</g>
</g>
<g clip-path="url(#a)">
<g transform="translate(864.13 561.13) scale(.1 -.1)">
<use xlink:href="#c"/>
<use x="63.623047" xlink:href="#e"/>
<use x="95.410156" xlink:href="#n"/>
<use x="159.033203" xlink:href="#af"/>
</g>
</g>
<g clip-path="url(#a)">
<g transform="translate(672.87 561.13) scale(.1 -.1)">
<use xlink:href="#c"/>
<use x="63.623047" xlink:href="#e"/>
<use x="95.410156" xlink:href="#n"/>
<use x="159.033203" xlink:href="#aa"/>
</g>
</g>
<g clip-path="url(#a)">
<g transform="translate(529.42 561.13) scale(.1 -.1)">
<use xlink:href="#c"/>
<use x="63.623047" xlink:href="#e"/>
<use x="95.410156" xlink:href="#m"/>
<use x="159.033203" xlink:href="#ad"/>
</g>
</g>
<g clip-path="url(#a)">
<g transform="translate(577.24 561.13) scale(.1 -.1)">
<use xlink:href="#c"/>
<use x="63.623047" xlink:href="#e"/>
<use x="95.410156" xlink:href="#m"/>
<use x="159.033203" xlink:href="#c"/>
</g>
</g>
<g clip-path="url(#a)">
<g transform="translate(385.97 561.13) scale(.1 -.1)">
<use xlink:href="#c"/>
<use x="63.623047" xlink:href="#e"/>
<use x="95.410156" xlink:href="#m"/>
<use x="159.033203" xlink:href="#n"/>
</g>
</g>
<g clip-path="url(#a)">
<g transform="translate(433.79 561.13) scale(.1 -.1)">
<use xlink:href="#c"/>
<use x="63.623047" xlink:href="#e"/>
<use x="95.410156" xlink:href="#m"/>
<use x="159.033203" xlink:href="#m"/>
</g>
</g>
<g clip-path="url(#a)">
<g transform="translate(481.61 561.13) scale(.1 -.1)">
<use xlink:href="#c"/>
<use x="63.623047" xlink:href="#e"/>
<use x="95.410156" xlink:href="#m"/>
<use x="159.033203" xlink:href="#r"/>
</g>
</g>
<g clip-path="url(#a)">
<g transform="translate(51.267 561.13) scale(.1 -.1)">
<use xlink:href="#c"/>
<use x="63.623047" xlink:href="#e"/>
<use x="95.410156" xlink:href="#m"/>
<use x="159.033203" xlink:href="#ag"/>
</g>
</g>
<g clip-path="url(#a)">
<g transform="translate(99.082 561.13) scale(.1 -.1)">
<use xlink:href="#c"/>
<use x="63.623047" xlink:href="#e"/>
<use x="95.410156" xlink:href="#m"/>
<use x="159.033203" xlink:href="#ac"/>
</g>
</g>
<g clip-path="url(#a)">
<g transform="translate(146.9 561.13) scale(.1 -.1)">
<use xlink:href="#c"/>
<use x="63.623047" xlink:href="#e"/>
<use x="95.410156" xlink:href="#m"/>
<use x="159.033203" xlink:href="#ab"/>
</g>
</g>
<g clip-path="url(#a)">
<g transform="translate(1003.6 171.68) scale(.1 -.1)">
<use xlink:href="#c"/>
<use x="63.623047" xlink:href="#e"/>
<use x="95.410156" xlink:href="#m"/>
<use x="159.033203" xlink:href="#af"/>
</g>
</g>
<g clip-path="url(#a)">
<g transform="translate(317.57 36.593) scale(.1 -.1)">
<use xlink:href="#c"/>
<use x="63.623047" xlink:href="#e"/>
<use x="95.410156" xlink:href="#m"/>
<use x="159.033203" xlink:href="#aa"/>
</g>
</g>
<g clip-path="url(#a)">
<g transform="translate(194.71 561.13) scale(.1 -.1)">
<use xlink:href="#c"/>
<use x="63.623047" xlink:href="#e"/>
<use x="95.410156" xlink:href="#r"/>
<use x="159.033203" xlink:href="#ad"/>
</g>
</g>
<g clip-path="url(#a)">
<g transform="translate(290.34 561.13) scale(.1 -.1)">
<use xlink:href="#c"/>
<use x="63.623047" xlink:href="#e"/>
<use x="95.410156" xlink:href="#r"/>
<use x="159.033203" xlink:href="#c"/>
</g>
</g>
<g clip-path="url(#a)">
<g transform="translate(625.05 561.13) scale(.1 -.1)">
<use xlink:href="#c"/>
<use x="63.623047" xlink:href="#e"/>
<use x="95.410156" xlink:href="#r"/>
<use x="159.033203" xlink:href="#n"/>
</g>
</g>
<g clip-path="url(#a)">
<g transform="translate(720.68 561.13) scale(.1 -.1)">
<use xlink:href="#c"/>
<use x="63.623047" xlink:href="#e"/>
<use x="95.410156" xlink:href="#r"/>
<use x="159.033203" xlink:href="#m"/>
</g>
</g>
<g clip-path="url(#a)">
<g transform="translate(1294.5 561.13) scale(.1 -.1)">
<use xlink:href="#c"/>
<use x="63.623047" xlink:href="#e"/>
<use x="95.410156" xlink:href="#r"/>
<use x="159.033203" xlink:href="#r"/>
</g>
</g>
<defs>
<clipPath id="a">
<rect width="1368" height="720"/>
</clipPath>
</defs>
</svg>
