<?xml version="1.0" encoding="UTF-8"?>
<!DOCTYPE svg  PUBLIC '-//W3C//DTD SVG 1.1//EN'  'http://www.w3.org/Graphics/SVG/1.1/DTD/svg11.dtd'>
<svg width="1317.3pt" height="693.33pt" version="1.1" viewBox="0 0 1317.3 693.33" xmlns="http://www.w3.org/2000/svg" xmlns:xlink="http://www.w3.org/1999/xlink">
<defs>
<style type="text/css">*{stroke-linecap:butt;stroke-linejoin:round;}</style>
</defs>
<path d="m0 693.33h1317.3v-693.33h-1317.3z" fill="#fff"/>
<g fill="none" stroke="#000">
<path d="m425.06 32.429-293.13 322.38" clip-path="url(#a)"/>
<path d="m425.06 32.429-53.704 526.92" clip-path="url(#a)"/>
<path d="m425.06 32.429 113.89 526.92" clip-path="url(#a)"/>
<path d="m425.06 32.429 340.35 110.08" clip-path="url(#a)"/>
<path d="m425.06 32.429-173.42 526.92" clip-path="url(#a)"/>
<path d="m425.06 32.429 66.008 526.92" clip-path="url(#a)"/>
<path d="m131.93 354.81-71.827 204.53" clip-path="url(#a)"/>
<path d="m131.93 354.81v102.97" clip-path="url(#a)"/>
<path d="m131.93 354.81 71.827 204.53" clip-path="url(#a)"/>
<path d="m371.36 559.34-71.827 101.56" clip-path="url(#a)"/>
<path d="m371.36 559.34-23.942 101.56" clip-path="url(#a)"/>
<path d="m371.36 559.34 23.942 101.56" clip-path="url(#a)"/>
<path d="m371.36 559.34 71.827 101.56" clip-path="url(#a)"/>
<path d="m538.95 559.34v101.56" clip-path="url(#a)"/>
<path d="m765.41 142.51-130.69 315.28" clip-path="url(#a)"/>
<path d="m765.41 142.51-10.974 315.28" clip-path="url(#a)"/>
<path d="m765.41 142.51 141.66 107.35" clip-path="url(#a)"/>
<path d="m634.72 457.78-47.885 101.56" clip-path="url(#a)"/>
<path d="m634.72 457.78v101.56" clip-path="url(#a)"/>
<path d="m634.72 457.78 47.885 101.56" clip-path="url(#a)"/>
<path d="m754.44 457.78-23.942 101.56" clip-path="url(#a)"/>
<path d="m754.44 457.78 23.942 101.56" clip-path="url(#a)"/>
<path d="m907.07 249.86-56.863 207.93" clip-path="url(#a)"/>
<path d="m907.07 249.86 38.906 207.93" clip-path="url(#a)"/>
<path d="m907.07 249.86 242.42 104.96" clip-path="url(#a)"/>
<path d="m907.07 249.86-224.46 309.49" clip-path="url(#a)" stroke-dasharray="3.7,1.6"/>
<path d="m850.21 457.78-23.942 101.56" clip-path="url(#a)"/>
<path d="m850.21 457.78 23.942 101.56" clip-path="url(#a)"/>
<path d="m945.98 457.78-23.942 101.56" clip-path="url(#a)"/>
<path d="m945.98 457.78 23.942 101.56" clip-path="url(#a)"/>
<path d="m1149.5 354.81-131.68 204.53" clip-path="url(#a)"/>
<path d="m1149.5 354.81-35.914 102.97" clip-path="url(#a)"/>
<path d="m1149.5 354.81 59.856 204.53" clip-path="url(#a)"/>
<path d="m1149.5 354.81 107.74 204.53" clip-path="url(#a)"/>
<path d="m1017.8 559.34v101.56" clip-path="url(#a)"/>
<path d="m1113.6 457.78-47.885 101.56" clip-path="url(#a)"/>
<path d="m1113.6 457.78v101.56" clip-path="url(#a)"/>
<path d="m1113.6 457.78 47.885 101.56" clip-path="url(#a)"/>
<path d="m1209.3 559.34v101.56" clip-path="url(#a)"/>
<path d="m1065.7 559.34v101.56" clip-path="url(#a)"/>
<path d="m1113.6 559.34v101.56" clip-path="url(#a)"/>
<path d="m1161.5 559.34v101.56" clip-path="url(#a)"/>
<path d="m922.03 559.34v101.56" clip-path="url(#a)"/>
<path d="m969.92 559.34v101.56" clip-path="url(#a)"/>
<path d="m826.26 559.34v101.56" clip-path="url(#a)"/>
<path d="m874.15 559.34v101.56" clip-path="url(#a)"/>
<path d="m730.49 559.34v101.56" clip-path="url(#a)"/>
<path d="m778.38 559.34v101.56" clip-path="url(#a)"/>
<path d="m586.84 559.34v101.56" clip-path="url(#a)"/>
<path d="m634.72 559.34v101.56" clip-path="url(#a)"/>
<path d="m682.61 559.34v101.56" clip-path="url(#a)"/>
<path d="m60.105 559.34v101.56" clip-path="url(#a)"/>
<path d="m131.93 457.78-23.942 101.56" clip-path="url(#a)"/>
<path d="m131.93 457.78 23.942 101.56" clip-path="url(#a)"/>
<path d="m203.76 559.34v101.56" clip-path="url(#a)"/>
<path d="m107.99 559.34v101.56" clip-path="url(#a)"/>
<path d="m155.88 559.34v101.56" clip-path="url(#a)"/>
<path d="m478.77 32.429-346.83 322.38" clip-path="url(#a)"/>
<path d="m478.77 32.429 60.189 526.92" clip-path="url(#a)"/>
<path d="m478.77 32.429 286.64 110.08" clip-path="url(#a)"/>
<path d="m251.65 559.34v101.56" clip-path="url(#a)"/>
<path d="m491.07 559.34v101.56" clip-path="url(#a)"/>
<path d="m1257.2 559.34v101.56" clip-path="url(#a)"/>
</g>
<path d="m281.11 200.06 4.0474-4.4513q1.6146-1.7757-0.16113-3.3903l-5.7285-5.2087q-1.7757-1.6146-3.3903 0.16113l-4.0474 4.4513q-1.6146 1.7757 0.16113 3.3903l5.7285 5.2087q1.7757 1.6146 3.3903-0.16114z" clip-path="url(#a)" fill="#fff" stroke="#fff"/>
<g clip-path="url(#a)">
<defs>
<path id="am" d="m9.8125 72.906h9.8594v-29.891h35.844v29.891h9.8594v-72.906h-9.8594v34.719h-35.844v-34.719h-9.8594z"/>
</defs>
<g transform="translate(278.11 197.33) rotate(-47.721) scale(.08 -.08)">
<use xlink:href="#am"/>
</g>
</g>
<path d="m404.13 299.61 0.62853-6.1668q0.24335-2.3876-2.1443-2.631l-7.7026-0.78506q-2.3876-0.24335-2.631 2.1443l-0.62853 6.1668q-0.24335 2.3876 2.1443 2.631l7.7026 0.78506q2.3876 0.24335 2.631-2.1443z" clip-path="url(#a)" fill="#fff" stroke="#fff"/>
<g clip-path="url(#a)">
<defs>
<path id="ar" d="m59.516 10.406v19.578h-16.109v8.1094h25.875v-31.312q-5.7031-4.0469-12.594-6.125-6.875-2.0781-14.688-2.0781-17.094 0-26.75 9.9844-9.6406 10-9.6406 27.812 0 17.875 9.6406 27.859 9.6562 9.9844 26.75 9.9844 7.125 0 13.547-1.7656 6.4219-1.75 11.844-5.1719v-10.5q-5.4688 4.6406-11.625 6.9844t-12.938 2.3438q-13.391 0-20.109-7.4688-6.7031-7.4688-6.7031-22.266 0-14.75 6.7031-22.219 6.7188-7.4688 20.109-7.4688 5.2188 0 9.3125 0.90625 4.1094 0.90625 7.375 2.8125z"/>
</defs>
<g transform="translate(400.09 299.19) rotate(-84.18) scale(.08 -.08)">
<use xlink:href="#ar"/>
</g>
</g>
<path d="m475.41 295.03 0.94174 4.3569q0.50705 2.3458 2.8529 1.8388l7.5677-1.6358q2.3458-0.50705 1.8388-2.8529l-0.94174-4.3569q-0.50705-2.3458-2.8529-1.8388l-7.5677 1.6358q-2.3458 0.50705-1.8388 2.8529z" clip-path="url(#a)" fill="#fff" stroke="#fff"/>
<g clip-path="url(#a)">
<defs>
<path id="x" d="m9.8125 72.906h9.8594v-64.609h35.5v-8.2969h-45.359z"/>
</defs>
<g transform="translate(479.38 294.17) rotate(77.803) scale(.08 -.08)">
<use xlink:href="#x"/>
</g>
</g>
<path d="m590.44 92.51 5.7243 1.8514q2.2835 0.73857 3.0221-1.545l2.3827-7.3668q0.73857-2.2835-1.545-3.0221l-5.7243-1.8514q-2.2835-0.73857-3.0221 1.545l-2.3827 7.3668q-0.73857 2.2835 1.545 3.0221z" clip-path="url(#a)" fill="#fff" stroke="#fff"/>
<g clip-path="url(#a)">
<g transform="translate(591.69 88.643) rotate(17.923) scale(.08 -.08)">
<use xlink:href="#am"/>
</g>
</g>
<path d="m343.4 300.63 1.8304-5.5615q0.75029-2.2797-1.5294-3.03l-7.3544-2.4205q-2.2797-0.75029-3.03 1.5294l-1.8304 5.5615q-0.75029 2.2797 1.5294 3.03l7.3544 2.4205q2.2797 0.75029 3.03-1.5294z" clip-path="url(#a)" fill="#fff" stroke="#fff"/>
<g clip-path="url(#a)">
<defs>
<path id="ae" d="m8.6875 72.906h9.9219v-44.297q0-11.719 4.2344-16.875 4.25-5.1406 13.781-5.1406 9.4688 0 13.719 5.1406 4.25 5.1562 4.25 16.875v44.297h9.9062v-45.516q0-14.25-7.0625-21.531-7.0469-7.2812-20.812-7.2812-13.828 0-20.891 7.2812-7.0469 7.2812-7.0469 21.531z"/>
</defs>
<g transform="translate(339.53 299.36) rotate(-71.783) scale(.08 -.08)">
<use xlink:href="#ae"/>
</g>
</g>
<path d="m451.48 293.76 0.72778 5.8096q0.29832 2.3814 2.6797 2.0831l7.6825-0.9624q2.3814-0.29832 2.0831-2.6797l-0.72778-5.8096q-0.29832-2.3814-2.6797-2.0831l-7.6825 0.9624q-2.3814 0.29832-2.0831 2.6797z" clip-path="url(#a)" fill="#fff" stroke="#fff"/>
<g clip-path="url(#a)">
<g transform="translate(455.51 293.26) rotate(82.86) scale(.08 -.08)">
<use xlink:href="#ae"/>
</g>
</g>
<path d="m101.03 461.74 1.8133-5.1634q0.79522-2.2644-1.4692-3.0596l-7.3051-2.5654q-2.2644-0.79521-3.0596 1.4692l-1.8133 5.1634q-0.79522 2.2644 1.4692 3.0596l7.3051 2.5654q2.2644 0.79522 3.0596-1.4692z" clip-path="url(#a)" fill="#fff" stroke="#fff"/>
<g clip-path="url(#a)">
<defs>
<path id="p" d="m34.188 63.188-13.391-36.281h26.812zm-5.5781 9.7188h11.188l27.781-72.906h-10.25l-6.6406 18.703h-32.859l-6.6406-18.703h-10.406z"/>
</defs>
<g transform="translate(97.195 460.39) rotate(-70.65) scale(.08 -.08)">
<use xlink:href="#p"/>
</g>
</g>
<path d="m125.66 403.76v5.0788q0 2.4 2.4 2.4h7.7425q2.4 0 2.4-2.4v-5.0788q0-2.4-2.4-2.4h-7.7425q-2.4 0-2.4 2.4z" clip-path="url(#a)" fill="#fff" stroke="#fff"/>
<g clip-path="url(#a)">
<defs>
<path id="af" d="m53.516 70.516v-9.625q-5.6094 2.6875-10.594 4-4.9844 1.3281-9.625 1.3281-8.0469 0-12.422-3.125t-4.375-8.8906q0-4.8438 2.9062-7.3125 2.9062-2.4531 11.016-3.9688l5.9531-1.2188q11.031-2.1094 16.281-7.4062t5.25-14.172q0-10.609-7.1094-16.078-7.0938-5.4688-20.812-5.4688-5.1719 0-11.016 1.1719-5.8281 1.1719-12.078 3.4688v10.156q6-3.3594 11.766-5.0781 5.7656-1.7031 11.328-1.7031 8.4375 0 13.031 3.3125 4.5938 3.3281 4.5938 9.4844 0 5.3594-3.2969 8.3906t-10.812 4.5469l-6.0156 1.1719q-11.031 2.1875-15.969 6.875-4.9219 4.6875-4.9219 13.047 0 9.6719 6.8125 15.234t18.766 5.5625q5.1406 0 10.453-0.9375 5.3281-0.92188 10.891-2.7656z"/>
</defs>
<g transform="translate(129.73 403.76) rotate(90) scale(.08 -.08)">
<use xlink:href="#af"/>
</g>
</g>
<path d="m161.02 456.57 1.8133 5.1634q0.79522 2.2644 3.0596 1.4692l7.3051-2.5654q2.2644-0.79522 1.4692-3.0596l-1.8133-5.1634q-0.79522-2.2644-3.0596-1.4692l-7.3051 2.5654q-2.2644 0.79521-1.4692 3.0596z" clip-path="url(#a)" fill="#fff" stroke="#fff"/>
<g clip-path="url(#a)">
<g transform="translate(164.86 455.23) rotate(70.65) scale(.08 -.08)">
<use xlink:href="#p"/>
</g>
</g>
<path d="m330.38 628.15 20.374-28.808q1.3858-1.9595-0.57366-3.3453l-6.3213-4.4707q-1.9595-1.3858-3.3453 0.57366l-20.374 28.808q-1.3858 1.9595 0.57366 3.3453l6.3213 4.4707q1.9595 1.3858 3.3453-0.57366z" clip-path="url(#a)" fill="#fff" stroke="#fff"/>
<g clip-path="url(#a)">
<defs>
<path id="k" d="m-0.29688 72.906h61.672v-8.3125h-25.875v-64.594h-9.9062v64.594h-25.891z"/>
<path id="h" d="m56.203 29.594v-4.3906h-41.312q0.59375-9.2812 5.5938-14.141t13.938-4.8594q5.1719 0 10.031 1.2656t9.6562 3.8125v-8.5q-4.8438-2.0469-9.9219-3.125t-10.297-1.0781q-13.094 0-20.734 7.6094-7.6406 7.625-7.6406 20.625 0 13.422 7.25 21.297 7.25 7.8906 19.562 7.8906 11.031 0 17.453-7.1094 6.4219-7.0938 6.4219-19.297zm-8.9844 2.6406q-0.09375 7.3594-4.125 11.75-4.0312 4.4062-10.672 4.4062-7.5156 0-12.031-4.25t-5.2031-11.969z"/>
<path id="i" d="m41.109 46.297q-1.5156 0.875-3.2969 1.2812-1.7812 0.42188-3.9219 0.42188-7.625 0-11.703-4.9531t-4.0781-14.234v-28.812h-9.0312v54.688h9.0312v-8.5q2.8438 4.9844 7.375 7.3906 4.5469 2.4219 11.047 2.4219 0.92188 0 2.0469-0.125 1.125-0.10938 2.4844-0.35938z"/>
<path id="j" d="m52 44.188q3.375 6.0625 8.0625 8.9375t11.031 2.875q8.5469 0 13.188-5.9844 4.6406-5.9688 4.6406-17v-33.016h-9.0312v32.719q0 7.8594-2.7969 11.656-2.7812 3.8125-8.4844 3.8125-6.9844 0-11.047-4.6406-4.0469-4.625-4.0469-12.641v-30.906h-9.0312v32.719q0 7.9062-2.7812 11.688t-8.5938 3.7812q-6.8906 0-10.953-4.6562-4.0469-4.6562-4.0469-12.625v-30.906h-9.0312v54.688h9.0312v-8.5q3.0781 5.0312 7.375 7.4219t10.203 2.3906q5.9688 0 10.141-3.0312 4.1719-3.0156 6.1719-8.7812z"/>
<path id="g" d="m9.4219 54.688h8.9844v-54.688h-8.9844zm0 21.297h8.9844v-11.391h-8.9844z"/>
<path id="f" d="m54.891 33.016v-33.016h-8.9844v32.719q0 7.7656-3.0312 11.609-3.0312 3.8594-9.0781 3.8594-7.2812 0-11.484-4.6406-4.2031-4.625-4.2031-12.641v-30.906h-9.0312v54.688h9.0312v-8.5q3.2344 4.9375 7.5938 7.375 4.375 2.4375 10.094 2.4375 9.4219 0 14.25-5.8281 4.8438-5.8281 4.8438-17.156z"/>
<path id="d" d="m34.281 27.484q-10.891 0-15.094-2.4844t-4.2031-8.5q0-4.7812 3.1562-7.5938 3.1562-2.7969 8.5625-2.7969 7.4844 0 12 5.2969t4.5156 14.078v2zm17.922 3.7188v-31.203h-8.9844v8.2969q-3.0781-4.9688-7.6719-7.3438t-11.234-2.375q-8.3906 0-13.359 4.7188-4.9531 4.7188-4.9531 12.625 0 9.2188 6.1719 13.906 6.1875 4.6875 18.438 4.6875h12.609v0.89062q0 6.2031-4.0781 9.5938t-11.453 3.3906q-4.6875 0-9.1406-1.125-4.4375-1.125-8.5312-3.375v8.3125q4.9219 1.9062 9.5625 2.8438 4.6406 0.95312 9.0312 0.95312 11.875 0 17.734-6.1562 5.8594-6.1406 5.8594-18.641z"/>
<path id="l" d="m9.4219 75.984h8.9844v-75.984h-8.9844z"/>
</defs>
<g transform="translate(327.06 625.8) rotate(-54.731) scale(.08 -.08)">
<use xlink:href="#k"/>
<use x="60.818359" xlink:href="#h"/>
<use x="122.341797" xlink:href="#i"/>
<use x="163.439453" xlink:href="#j"/>
<use x="260.851562" xlink:href="#g"/>
<use x="288.634766" xlink:href="#f"/>
<use x="352.013672" xlink:href="#d"/>
<use x="413.292969" xlink:href="#l"/>
</g>
</g>
<path d="m361.44 628.74 8.0964-34.344q0.5507-2.336-1.7853-2.8867l-7.5359-1.7766q-2.336-0.5507-2.8867 1.7853l-8.0964 34.344q-0.5507 2.336 1.7853 2.8867l7.5359 1.7766q2.336 0.5507 2.8867-1.7853z" clip-path="url(#a)" fill="#fff" stroke="#fff"/>
<g clip-path="url(#a)">
<g transform="translate(357.49 627.8) rotate(-76.735) scale(.08 -.08)">
<use xlink:href="#k"/>
<use x="60.818359" xlink:href="#h"/>
<use x="122.341797" xlink:href="#i"/>
<use x="163.439453" xlink:href="#j"/>
<use x="260.851562" xlink:href="#g"/>
<use x="288.634766" xlink:href="#f"/>
<use x="352.013672" xlink:href="#d"/>
<use x="413.292969" xlink:href="#l"/>
</g>
</g>
<path d="m373.18 594.39 8.0964 34.344q0.5507 2.336 2.8867 1.7853l7.5359-1.7766q2.336-0.5507 1.7853-2.8867l-8.0964-34.344q-0.5507-2.336-2.8867-1.7853l-7.5359 1.7766q-2.336 0.5507-1.7853 2.8867z" clip-path="url(#a)" fill="#fff" stroke="#fff"/>
<g clip-path="url(#a)">
<g transform="translate(377.13 593.46) rotate(76.735) scale(.08 -.08)">
<use xlink:href="#k"/>
<use x="60.818359" xlink:href="#h"/>
<use x="122.341797" xlink:href="#i"/>
<use x="163.439453" xlink:href="#j"/>
<use x="260.851562" xlink:href="#g"/>
<use x="288.634766" xlink:href="#f"/>
<use x="352.013672" xlink:href="#d"/>
<use x="413.292969" xlink:href="#l"/>
</g>
</g>
<path d="m391.96 599.34 20.374 28.808q1.3858 1.9595 3.3453 0.57366l6.3213-4.4707q1.9595-1.3858 0.57366-3.3453l-20.374-28.808q-1.3858-1.9595-3.3453-0.57366l-6.3213 4.4707q-1.9595 1.3858-0.57366 3.3453z" clip-path="url(#a)" fill="#fff" stroke="#fff"/>
<g clip-path="url(#a)">
<g transform="translate(395.28 597) rotate(54.731) scale(.08 -.08)">
<use xlink:href="#k"/>
<use x="60.818359" xlink:href="#h"/>
<use x="122.341797" xlink:href="#i"/>
<use x="163.439453" xlink:href="#j"/>
<use x="260.851562" xlink:href="#g"/>
<use x="288.634766" xlink:href="#f"/>
<use x="352.013672" xlink:href="#d"/>
<use x="413.292969" xlink:href="#l"/>
</g>
</g>
<path d="m532.68 592.48v35.285q0 2.4 2.4 2.4h7.7425q2.4 0 2.4-2.4v-35.285q0-2.4-2.4-2.4h-7.7425q-2.4 0-2.4 2.4z" clip-path="url(#a)" fill="#fff" stroke="#fff"/>
<g clip-path="url(#a)">
<g transform="translate(536.75 592.48) rotate(90) scale(.08 -.08)">
<use xlink:href="#k"/>
<use x="60.818359" xlink:href="#h"/>
<use x="122.341797" xlink:href="#i"/>
<use x="163.439453" xlink:href="#j"/>
<use x="260.851562" xlink:href="#g"/>
<use x="288.634766" xlink:href="#f"/>
<use x="352.013672" xlink:href="#d"/>
<use x="413.292969" xlink:href="#l"/>
</g>
</g>
<path d="m704.81 305.08 2.0955-5.0554q0.91901-2.2171-1.2981-3.1361l-7.1524-2.9648q-2.2171-0.919-3.1361 1.2981l-2.0955 5.0554q-0.91901 2.2171 1.2981 3.1361l7.1524 2.9648q2.2171 0.919 3.1361-1.2981z" clip-path="url(#a)" fill="#fff" stroke="#fff"/>
<g clip-path="url(#a)">
<g transform="translate(701.06 303.52) rotate(-67.485) scale(.08 -.08)">
<use xlink:href="#p"/>
</g>
</g>
<path d="m766.11 302.77 0.1678-4.8208q0.083485-2.3985-2.3151-2.482l-7.7378-0.26932q-2.3985-0.083485-2.482 2.3151l-0.1678 4.8208q-0.083485 2.3985 2.3151 2.482l7.7378 0.26932q2.3985 0.083485 2.482-2.3151z" clip-path="url(#a)" fill="#fff" stroke="#fff"/>
<g clip-path="url(#a)">
<defs>
<path id="al" d="m19.672 64.797v-27.391h12.406q6.8906 0 10.641 3.5625 3.7656 3.5625 3.7656 10.156 0 6.5469-3.7656 10.109-3.75 3.5625-10.641 3.5625zm-9.8594 8.1094h22.266q12.266 0 18.531-5.5469 6.2812-5.5469 6.2812-16.234 0-10.797-6.2812-16.312-6.2656-5.5156-18.531-5.5156h-12.406v-29.297h-9.8594z"/>
</defs>
<g transform="translate(762.05 302.63) rotate(-88.007) scale(.08 -.08)">
<use xlink:href="#al"/>
</g>
</g>
<path d="m830.27 199.53 4.3616 3.3052q1.9128 1.4495 3.3623-0.46332l4.6762-6.1709q1.4495-1.9128-0.46332-3.3623l-4.3616-3.3052q-1.9128-1.4495-3.3623 0.46332l-4.6762 6.1709q-1.4495 1.9128 0.46332 3.3623z" clip-path="url(#a)" fill="#fff" stroke="#fff"/>
<g clip-path="url(#a)">
<g transform="translate(832.73 196.29) rotate(37.154) scale(.08 -.08)">
<use xlink:href="#p"/>
</g>
</g>
<path d="m615.38 513.53 2.1558-4.5723q1.0235-2.1708-1.1473-3.1943l-7.0031-3.3019q-2.1708-1.0235-3.1943 1.1473l-2.1558 4.5723q-1.0235 2.1708 1.1473 3.1943l7.0031 3.3019q2.1708 1.0235 3.1943-1.1473z" clip-path="url(#a)" fill="#fff" stroke="#fff"/>
<g clip-path="url(#a)">
<defs>
<path id="u" d="m9.8125 72.906h46.094v-8.3125h-36.234v-21.578h34.719v-8.2969h-34.719v-26.422h37.109v-8.2969h-46.969z"/>
</defs>
<g transform="translate(611.7 511.79) rotate(-64.756) scale(.08 -.08)">
<use xlink:href="#u"/>
</g>
</g>
<path d="m628.45 506.04v5.055q0 2.4 2.4 2.4h7.7425q2.4 0 2.4-2.4v-5.055q0-2.4-2.4-2.4h-7.7425q-2.4 0-2.4 2.4z" clip-path="url(#a)" fill="#fff" stroke="#fff"/>
<g clip-path="url(#a)">
<g transform="translate(632.52 506.04) rotate(90) scale(.08 -.08)">
<use xlink:href="#u"/>
</g>
</g>
<path d="m651.8 508.71 2.3824 5.0528q1.0235 2.1708 3.1943 1.1473l7.0031-3.3019q2.1708-1.0235 1.1473-3.1943l-2.3824-5.0528q-1.0235-2.1708-3.1943-1.1473l-7.0031 3.3019q-2.1708 1.0235-1.1473 3.1943z" clip-path="url(#a)" fill="#fff" stroke="#fff"/>
<g clip-path="url(#a)">
<defs>
<path id="r" d="m64.406 67.281v-10.391q-4.9844 4.6406-10.625 6.9219-5.6406 2.2969-11.984 2.2969-12.5 0-19.141-7.6406t-6.6406-22.094q0-14.406 6.6406-22.047t19.141-7.6406q6.3438 0 11.984 2.2969t10.625 6.9375v-10.312q-5.1719-3.5156-10.969-5.2812-5.7812-1.75-12.219-1.75-16.562 0-26.094 10.125-9.5156 10.141-9.5156 27.672 0 17.578 9.5156 27.703 9.5312 10.141 26.094 10.141 6.5312 0 12.312-1.7344 5.7969-1.7344 10.875-5.2031z"/>
</defs>
<g transform="translate(655.48 506.98) rotate(64.756) scale(.08 -.08)">
<use xlink:href="#r"/>
</g>
</g>
<path d="m748.04 512.24 1.0558-4.4785q0.5507-2.336-1.7853-2.8867l-7.5359-1.7766q-2.336-0.5507-2.8867 1.7853l-1.0558 4.4785q-0.5507 2.336 1.7853 2.8867l7.5359 1.7766q2.336 0.5507 2.8867-1.7853z" clip-path="url(#a)" fill="#fff" stroke="#fff"/>
<g clip-path="url(#a)">
<defs>
<path id="an" d="m9.8125 72.906h41.891v-8.3125h-32.031v-21.484h28.906v-8.2969h-28.906v-34.812h-9.8594z"/>
</defs>
<g transform="translate(744.09 511.31) rotate(-76.735) scale(.08 -.08)">
<use xlink:href="#an"/>
</g>
</g>
<path d="m759.66 507.28 1.2818 5.4372q0.5507 2.336 2.8867 1.7853l7.5359-1.7766q2.336-0.5507 1.7853-2.8867l-1.2818-5.4372q-0.5507-2.336-2.8867-1.7853l-7.5359 1.7766q-2.336 0.5507-1.7853 2.8867z" clip-path="url(#a)" fill="#fff" stroke="#fff"/>
<g clip-path="url(#a)">
<g transform="translate(763.62 506.35) rotate(76.735) scale(.08 -.08)">
<use xlink:href="#r"/>
</g>
</g>
<path d="m884.05 357.8 1.2724-4.6529q0.63309-2.315-1.6819-2.9481l-7.4683-2.0424q-2.315-0.63309-2.9481 1.6819l-1.2724 4.6529q-0.63309 2.315 1.6819 2.9481l7.4683 2.0424q2.315 0.63309 2.9481-1.6819z" clip-path="url(#a)" fill="#fff" stroke="#fff"/>
<g clip-path="url(#a)">
<g transform="translate(880.13 356.73) rotate(-74.705) scale(.08 -.08)">
<use xlink:href="#al"/>
</g>
</g>
<path d="m919.86 352.28 1.0065 5.3791q0.44141 2.3591 2.8005 1.9176l7.6104-1.424q2.3591-0.44141 1.9176-2.8005l-1.0065-5.3791q-0.44141-2.3591-2.8005-1.9176l-7.6104 1.424q-2.3591 0.44141-1.9176 2.8005z" clip-path="url(#a)" fill="#fff" stroke="#fff"/>
<g clip-path="url(#a)">
<g transform="translate(923.85 351.54) rotate(79.402) scale(.08 -.08)">
<use xlink:href="#p"/>
</g>
</g>
<path d="m1023.3 307 5.022 2.1743q2.2024 0.95356 3.156-1.2489l3.0762-7.1052q0.95356-2.2024-1.2489-3.156l-5.022-2.1743q-2.2024-0.95356-3.156 1.2489l-3.0762 7.1052q-0.95356 2.2024 1.2489 3.156z" clip-path="url(#a)" fill="#fff" stroke="#fff"/>
<g clip-path="url(#a)">
<g transform="translate(1024.9 303.27) rotate(23.41) scale(.08 -.08)">
<use xlink:href="#p"/>
</g>
</g>
<path d="m798.31 410.5 3.2129-4.43q1.4091-1.9428-0.53377-3.3519l-6.2676-4.5457q-1.9428-1.4091-3.3519 0.53377l-3.2129 4.43q-1.4091 1.9428 0.53377 3.3519l6.2676 4.5457q1.9428 1.4091 3.3519-0.53377z" clip-path="url(#a)" fill="#fff" stroke="#fff"/>
<g clip-path="url(#a)">
<g transform="translate(795.02 408.11) rotate(-54.048) scale(.08 -.08)">
<use xlink:href="#p"/>
</g>
</g>
<path d="m843.7 512.71 1.2755-5.4104q0.5507-2.336-1.7853-2.8867l-7.5359-1.7766q-2.336-0.5507-2.8867 1.7853l-1.2755 5.4104q-0.5507 2.336 1.7853 2.8867l7.5359 1.7766q2.336 0.5507 2.8867-1.7853z" clip-path="url(#a)" fill="#fff" stroke="#fff"/>
<g clip-path="url(#a)">
<defs>
<path id="w" d="m44.391 34.188q3.1719-1.0781 6.1719-4.5938t6.0312-9.6719l10.016-19.922h-10.609l-9.3125 18.703q-3.625 7.3281-7.0156 9.7188t-9.25 2.3906h-10.75v-30.812h-9.8594v72.906h22.266q12.5 0 18.656-5.2344 6.1562-5.2188 6.1562-15.766 0-6.8906-3.2031-11.438-3.2031-4.5312-9.2969-6.2812zm-24.719 30.609v-25.875h12.406q7.125 0 10.766 3.2969t3.6406 9.6875-3.6406 9.6406-10.766 3.25z"/>
</defs>
<g transform="translate(839.75 511.78) rotate(-76.735) scale(.08 -.08)">
<use xlink:href="#w"/>
</g>
</g>
<path d="m855.43 507.28 1.2818 5.4372q0.5507 2.336 2.8867 1.7853l7.5359-1.7766q2.336-0.5507 1.7853-2.8867l-1.2818-5.4372q-0.5507-2.336-2.8867-1.7853l-7.5359 1.7766q-2.336 0.5507-1.7853 2.8867z" clip-path="url(#a)" fill="#fff" stroke="#fff"/>
<g clip-path="url(#a)">
<g transform="translate(859.39 506.35) rotate(76.735) scale(.08 -.08)">
<use xlink:href="#r"/>
</g>
</g>
<path d="m939.53 512.46 1.1599-4.9201q0.5507-2.336-1.7853-2.8867l-7.5359-1.7766q-2.336-0.5507-2.8867 1.7853l-1.1599 4.9201q-0.5507 2.336 1.7853 2.8867l7.5359 1.7766q2.336 0.5507 2.8867-1.7853z" clip-path="url(#a)" fill="#fff" stroke="#fff"/>
<g clip-path="url(#a)">
<g transform="translate(935.57 511.53) rotate(-76.735) scale(.08 -.08)">
<use xlink:href="#u"/>
</g>
</g>
<path d="m951.2 507.28 1.2818 5.4372q0.5507 2.336 2.8867 1.7853l7.5359-1.7766q2.336-0.5507 1.7853-2.8867l-1.2818-5.4372q-0.5507-2.336-2.8867-1.7853l-7.5359 1.7766q-2.336 0.5507-1.7853 2.8867z" clip-path="url(#a)" fill="#fff" stroke="#fff"/>
<g clip-path="url(#a)">
<g transform="translate(955.16 506.35) rotate(76.735) scale(.08 -.08)">
<use xlink:href="#r"/>
</g>
</g>
<path d="m1087.4 462.81 3.0091-4.6738q1.2992-2.0179-0.71874-3.3171l-6.51-4.1913q-2.0179-1.2992-3.3171 0.71874l-3.0091 4.6738q-1.2992 2.0179 0.71874 3.3171l6.51 4.1913q2.0179 1.2992 3.3171-0.71874z" clip-path="url(#a)" fill="#fff" stroke="#fff"/>
<g clip-path="url(#a)">
<g transform="translate(1084 460.61) rotate(-57.226) scale(.08 -.08)">
<use xlink:href="#w"/>
</g>
</g>
<path d="m1136.6 410.75 1.6647-4.773q0.79035-2.2661-1.4758-3.0565l-7.3106-2.5497q-2.2661-0.79035-3.0565 1.4758l-1.6647 4.773q-0.79035 2.2661 1.4758 3.0565l7.3106 2.5497q2.2661 0.79035 3.0565-1.4758z" clip-path="url(#a)" fill="#fff" stroke="#fff"/>
<g clip-path="url(#a)">
<g transform="translate(1132.8 409.41) rotate(-70.773) scale(.08 -.08)">
<use xlink:href="#u"/>
</g>
</g>
<path d="m1172.6 456.16 1.569 5.3614q0.67408 2.3034 2.9775 1.6293l7.4308-2.1746q2.3034-0.67408 1.6293-2.9775l-1.569-5.3614q-0.67408-2.3034-2.9775-1.6293l-7.4308 2.1746q-2.3034 0.67408-1.6293 2.9775z" clip-path="url(#a)" fill="#fff" stroke="#fff"/>
<g clip-path="url(#a)">
<g transform="translate(1176.5 455.02) rotate(73.688) scale(.08 -.08)">
<use xlink:href="#r"/>
</g>
</g>
<path d="m1196.4 457.41 2.7288 5.1802q1.1185 2.1234 3.2419 1.0049l6.8502-3.6085q2.1234-1.1185 1.0049-3.2419l-2.7288-5.1802q-1.1185-2.1234-3.2419-1.0049l-6.8502 3.6085q-2.1234 1.1185-1.0049 3.242z" clip-path="url(#a)" fill="#fff" stroke="#fff"/>
<g clip-path="url(#a)">
<g transform="translate(1200 455.52) rotate(62.221) scale(.08 -.08)">
<use xlink:href="#ae"/>
</g>
</g>
<path d="m1011.5 592.48v35.285q0 2.4 2.4 2.4h7.7425q2.4 0 2.4-2.4v-35.285q0-2.4-2.4-2.4h-7.7425q-2.4 0-2.4 2.4z" clip-path="url(#a)" fill="#fff" stroke="#fff"/>
<g clip-path="url(#a)">
<g transform="translate(1015.6 592.48) rotate(90) scale(.08 -.08)">
<use xlink:href="#k"/>
<use x="60.818359" xlink:href="#h"/>
<use x="122.341797" xlink:href="#i"/>
<use x="163.439453" xlink:href="#j"/>
<use x="260.851562" xlink:href="#g"/>
<use x="288.634766" xlink:href="#f"/>
<use x="352.013672" xlink:href="#d"/>
<use x="413.292969" xlink:href="#l"/>
</g>
</g>
<path d="m1094.2 513.53 2.1558-4.5723q1.0235-2.1708-1.1473-3.1943l-7.0031-3.3019q-2.1708-1.0235-3.1943 1.1473l-2.1558 4.5723q-1.0235 2.1708 1.1473 3.1943l7.0031 3.3019q2.1708 1.0235 3.1943-1.1473z" clip-path="url(#a)" fill="#fff" stroke="#fff"/>
<g clip-path="url(#a)">
<g transform="translate(1090.5 511.79) rotate(-64.756) scale(.08 -.08)">
<use xlink:href="#u"/>
</g>
</g>
<path d="m1107.3 505.77v5.5862q0 2.4 2.4 2.4h7.7425q2.4 0 2.4-2.4v-5.5862q0-2.4-2.4-2.4h-7.7425q-2.4 0-2.4 2.4z" clip-path="url(#a)" fill="#fff" stroke="#fff"/>
<g clip-path="url(#a)">
<g transform="translate(1111.4 505.77) rotate(90) scale(.08 -.08)">
<use xlink:href="#r"/>
</g>
</g>
<path d="m1130.7 508.73 2.3706 5.0279q1.0235 2.1708 3.1943 1.1473l7.0031-3.3019q2.1708-1.0235 1.1473-3.1943l-2.3706-5.0279q-1.0235-2.1708-3.1943-1.1473l-7.0031 3.3019q-2.1708 1.0235-1.1473 3.1943z" clip-path="url(#a)" fill="#fff" stroke="#fff"/>
<g clip-path="url(#a)">
<g transform="translate(1134.3 506.99) rotate(64.756) scale(.08 -.08)">
<use xlink:href="#w"/>
</g>
</g>
<path d="m1203.1 592.48v35.285q0 2.4 2.4 2.4h7.7425q2.4 0 2.4-2.4v-35.285q0-2.4-2.4-2.4h-7.7425q-2.4 0-2.4 2.4z" clip-path="url(#a)" fill="#fff" stroke="#fff"/>
<g clip-path="url(#a)">
<g transform="translate(1207.1 592.48) rotate(90) scale(.08 -.08)">
<use xlink:href="#k"/>
<use x="60.818359" xlink:href="#h"/>
<use x="122.341797" xlink:href="#i"/>
<use x="163.439453" xlink:href="#j"/>
<use x="260.851562" xlink:href="#g"/>
<use x="288.634766" xlink:href="#f"/>
<use x="352.013672" xlink:href="#d"/>
<use x="413.292969" xlink:href="#l"/>
</g>
</g>
<path d="m1059.4 592.48v35.285q0 2.4 2.4 2.4h7.7425q2.4 0 2.4-2.4v-35.285q0-2.4-2.4-2.4h-7.7425q-2.4 0-2.4 2.4z" clip-path="url(#a)" fill="#fff" stroke="#fff"/>
<g clip-path="url(#a)">
<g transform="translate(1063.5 592.48) rotate(90) scale(.08 -.08)">
<use xlink:href="#k"/>
<use x="60.818359" xlink:href="#h"/>
<use x="122.341797" xlink:href="#i"/>
<use x="163.439453" xlink:href="#j"/>
<use x="260.851562" xlink:href="#g"/>
<use x="288.634766" xlink:href="#f"/>
<use x="352.013672" xlink:href="#d"/>
<use x="413.292969" xlink:href="#l"/>
</g>
</g>
<path d="m1107.3 592.48v35.285q0 2.4 2.4 2.4h7.7425q2.4 0 2.4-2.4v-35.285q0-2.4-2.4-2.4h-7.7425q-2.4 0-2.4 2.4z" clip-path="url(#a)" fill="#fff" stroke="#fff"/>
<g clip-path="url(#a)">
<g transform="translate(1111.4 592.48) rotate(90) scale(.08 -.08)">
<use xlink:href="#k"/>
<use x="60.818359" xlink:href="#h"/>
<use x="122.341797" xlink:href="#i"/>
<use x="163.439453" xlink:href="#j"/>
<use x="260.851562" xlink:href="#g"/>
<use x="288.634766" xlink:href="#f"/>
<use x="352.013672" xlink:href="#d"/>
<use x="413.292969" xlink:href="#l"/>
</g>
</g>
<path d="m1155.2 592.48v35.285q0 2.4 2.4 2.4h7.7425q2.4 0 2.4-2.4v-35.285q0-2.4-2.4-2.4h-7.7425q-2.4 0-2.4 2.4z" clip-path="url(#a)" fill="#fff" stroke="#fff"/>
<g clip-path="url(#a)">
<g transform="translate(1159.3 592.48) rotate(90) scale(.08 -.08)">
<use xlink:href="#k"/>
<use x="60.818359" xlink:href="#h"/>
<use x="122.341797" xlink:href="#i"/>
<use x="163.439453" xlink:href="#j"/>
<use x="260.851562" xlink:href="#g"/>
<use x="288.634766" xlink:href="#f"/>
<use x="352.013672" xlink:href="#d"/>
<use x="413.292969" xlink:href="#l"/>
</g>
</g>
<path d="m915.76 592.48v35.285q0 2.4 2.4 2.4h7.7425q2.4 0 2.4-2.4v-35.285q0-2.4-2.4-2.4h-7.7425q-2.4 0-2.4 2.4z" clip-path="url(#a)" fill="#fff" stroke="#fff"/>
<g clip-path="url(#a)">
<g transform="translate(919.83 592.48) rotate(90) scale(.08 -.08)">
<use xlink:href="#k"/>
<use x="60.818359" xlink:href="#h"/>
<use x="122.341797" xlink:href="#i"/>
<use x="163.439453" xlink:href="#j"/>
<use x="260.851562" xlink:href="#g"/>
<use x="288.634766" xlink:href="#f"/>
<use x="352.013672" xlink:href="#d"/>
<use x="413.292969" xlink:href="#l"/>
</g>
</g>
<path d="m963.65 592.48v35.285q0 2.4 2.4 2.4h7.7425q2.4 0 2.4-2.4v-35.285q0-2.4-2.4-2.4h-7.7425q-2.4 0-2.4 2.4z" clip-path="url(#a)" fill="#fff" stroke="#fff"/>
<g clip-path="url(#a)">
<g transform="translate(967.71 592.48) rotate(90) scale(.08 -.08)">
<use xlink:href="#k"/>
<use x="60.818359" xlink:href="#h"/>
<use x="122.341797" xlink:href="#i"/>
<use x="163.439453" xlink:href="#j"/>
<use x="260.851562" xlink:href="#g"/>
<use x="288.634766" xlink:href="#f"/>
<use x="352.013672" xlink:href="#d"/>
<use x="413.292969" xlink:href="#l"/>
</g>
</g>
<path d="m819.99 592.48v35.285q0 2.4 2.4 2.4h7.7425q2.4 0 2.4-2.4v-35.285q0-2.4-2.4-2.4h-7.7425q-2.4 0-2.4 2.4z" clip-path="url(#a)" fill="#fff" stroke="#fff"/>
<g clip-path="url(#a)">
<g transform="translate(824.06 592.48) rotate(90) scale(.08 -.08)">
<use xlink:href="#k"/>
<use x="60.818359" xlink:href="#h"/>
<use x="122.341797" xlink:href="#i"/>
<use x="163.439453" xlink:href="#j"/>
<use x="260.851562" xlink:href="#g"/>
<use x="288.634766" xlink:href="#f"/>
<use x="352.013672" xlink:href="#d"/>
<use x="413.292969" xlink:href="#l"/>
</g>
</g>
<path d="m867.88 592.48v35.285q0 2.4 2.4 2.4h7.7425q2.4 0 2.4-2.4v-35.285q0-2.4-2.4-2.4h-7.7425q-2.4 0-2.4 2.4z" clip-path="url(#a)" fill="#fff" stroke="#fff"/>
<g clip-path="url(#a)">
<g transform="translate(871.94 592.48) rotate(90) scale(.08 -.08)">
<use xlink:href="#k"/>
<use x="60.818359" xlink:href="#h"/>
<use x="122.341797" xlink:href="#i"/>
<use x="163.439453" xlink:href="#j"/>
<use x="260.851562" xlink:href="#g"/>
<use x="288.634766" xlink:href="#f"/>
<use x="352.013672" xlink:href="#d"/>
<use x="413.292969" xlink:href="#l"/>
</g>
</g>
<path d="m724.22 592.48v35.285q0 2.4 2.4 2.4h7.7425q2.4 0 2.4-2.4v-35.285q0-2.4-2.4-2.4h-7.7425q-2.4 0-2.4 2.4z" clip-path="url(#a)" fill="#fff" stroke="#fff"/>
<g clip-path="url(#a)">
<g transform="translate(728.29 592.48) rotate(90) scale(.08 -.08)">
<use xlink:href="#k"/>
<use x="60.818359" xlink:href="#h"/>
<use x="122.341797" xlink:href="#i"/>
<use x="163.439453" xlink:href="#j"/>
<use x="260.851562" xlink:href="#g"/>
<use x="288.634766" xlink:href="#f"/>
<use x="352.013672" xlink:href="#d"/>
<use x="413.292969" xlink:href="#l"/>
</g>
</g>
<path d="m772.11 592.48v35.285q0 2.4 2.4 2.4h7.7425q2.4 0 2.4-2.4v-35.285q0-2.4-2.4-2.4h-7.7425q-2.4 0-2.4 2.4z" clip-path="url(#a)" fill="#fff" stroke="#fff"/>
<g clip-path="url(#a)">
<g transform="translate(776.17 592.48) rotate(90) scale(.08 -.08)">
<use xlink:href="#k"/>
<use x="60.818359" xlink:href="#h"/>
<use x="122.341797" xlink:href="#i"/>
<use x="163.439453" xlink:href="#j"/>
<use x="260.851562" xlink:href="#g"/>
<use x="288.634766" xlink:href="#f"/>
<use x="352.013672" xlink:href="#d"/>
<use x="413.292969" xlink:href="#l"/>
</g>
</g>
<path d="m580.57 592.48v35.285q0 2.4 2.4 2.4h7.7425q2.4 0 2.4-2.4v-35.285q0-2.4-2.4-2.4h-7.7425q-2.4 0-2.4 2.4z" clip-path="url(#a)" fill="#fff" stroke="#fff"/>
<g clip-path="url(#a)">
<g transform="translate(584.63 592.48) rotate(90) scale(.08 -.08)">
<use xlink:href="#k"/>
<use x="60.818359" xlink:href="#h"/>
<use x="122.341797" xlink:href="#i"/>
<use x="163.439453" xlink:href="#j"/>
<use x="260.851562" xlink:href="#g"/>
<use x="288.634766" xlink:href="#f"/>
<use x="352.013672" xlink:href="#d"/>
<use x="413.292969" xlink:href="#l"/>
</g>
</g>
<path d="m628.45 592.48v35.285q0 2.4 2.4 2.4h7.7425q2.4 0 2.4-2.4v-35.285q0-2.4-2.4-2.4h-7.7425q-2.4 0-2.4 2.4z" clip-path="url(#a)" fill="#fff" stroke="#fff"/>
<g clip-path="url(#a)">
<g transform="translate(632.52 592.48) rotate(90) scale(.08 -.08)">
<use xlink:href="#k"/>
<use x="60.818359" xlink:href="#h"/>
<use x="122.341797" xlink:href="#i"/>
<use x="163.439453" xlink:href="#j"/>
<use x="260.851562" xlink:href="#g"/>
<use x="288.634766" xlink:href="#f"/>
<use x="352.013672" xlink:href="#d"/>
<use x="413.292969" xlink:href="#l"/>
</g>
</g>
<path d="m676.34 592.48v35.285q0 2.4 2.4 2.4h7.7425q2.4 0 2.4-2.4v-35.285q0-2.4-2.4-2.4h-7.7425q-2.4 0-2.4 2.4z" clip-path="url(#a)" fill="#fff" stroke="#fff"/>
<g clip-path="url(#a)">
<g transform="translate(680.4 592.48) rotate(90) scale(.08 -.08)">
<use xlink:href="#k"/>
<use x="60.818359" xlink:href="#h"/>
<use x="122.341797" xlink:href="#i"/>
<use x="163.439453" xlink:href="#j"/>
<use x="260.851562" xlink:href="#g"/>
<use x="288.634766" xlink:href="#f"/>
<use x="352.013672" xlink:href="#d"/>
<use x="413.292969" xlink:href="#l"/>
</g>
</g>
<path d="m53.834 592.48v35.285q0 2.4 2.4 2.4h7.7425q2.4 0 2.4-2.4v-35.285q0-2.4-2.4-2.4h-7.7425q-2.4 0-2.4 2.4z" clip-path="url(#a)" fill="#fff" stroke="#fff"/>
<g clip-path="url(#a)">
<g transform="translate(57.898 592.48) rotate(90) scale(.08 -.08)">
<use xlink:href="#k"/>
<use x="60.818359" xlink:href="#h"/>
<use x="122.341797" xlink:href="#i"/>
<use x="163.439453" xlink:href="#j"/>
<use x="260.851562" xlink:href="#g"/>
<use x="288.634766" xlink:href="#f"/>
<use x="352.013672" xlink:href="#d"/>
<use x="413.292969" xlink:href="#l"/>
</g>
</g>
<path d="m125.54 512.24 1.0558-4.4785q0.5507-2.336-1.7853-2.8867l-7.5359-1.7766q-2.336-0.5507-2.8867 1.7853l-1.0558 4.4785q-0.5507 2.336 1.7853 2.8867l7.5359 1.7766q2.336 0.5507 2.8867-1.7853z" clip-path="url(#a)" fill="#fff" stroke="#fff"/>
<g clip-path="url(#a)">
<g transform="translate(121.58 511.31) rotate(-76.735) scale(.08 -.08)">
<use xlink:href="#an"/>
</g>
</g>
<path d="m137.16 507.28 1.2818 5.4372q0.5507 2.336 2.8867 1.7853l7.5359-1.7766q2.336-0.5507 1.7853-2.8867l-1.2818-5.4372q-0.5507-2.336-2.8867-1.7853l-7.5359 1.7766q-2.336 0.5507-1.7853 2.8867z" clip-path="url(#a)" fill="#fff" stroke="#fff"/>
<g clip-path="url(#a)">
<g transform="translate(141.11 506.35) rotate(76.735) scale(.08 -.08)">
<use xlink:href="#r"/>
</g>
</g>
<path d="m197.49 592.48v35.285q0 2.4 2.4 2.4h7.7425q2.4 0 2.4-2.4v-35.285q0-2.4-2.4-2.4h-7.7425q-2.4 0-2.4 2.4z" clip-path="url(#a)" fill="#fff" stroke="#fff"/>
<g clip-path="url(#a)">
<g transform="translate(201.55 592.48) rotate(90) scale(.08 -.08)">
<use xlink:href="#k"/>
<use x="60.818359" xlink:href="#h"/>
<use x="122.341797" xlink:href="#i"/>
<use x="163.439453" xlink:href="#j"/>
<use x="260.851562" xlink:href="#g"/>
<use x="288.634766" xlink:href="#f"/>
<use x="352.013672" xlink:href="#d"/>
<use x="413.292969" xlink:href="#l"/>
</g>
</g>
<path d="m101.72 592.48v35.285q0 2.4 2.4 2.4h7.7425q2.4 0 2.4-2.4v-35.285q0-2.4-2.4-2.4h-7.7425q-2.4 0-2.4 2.4z" clip-path="url(#a)" fill="#fff" stroke="#fff"/>
<g clip-path="url(#a)">
<g transform="translate(105.78 592.48) rotate(90) scale(.08 -.08)">
<use xlink:href="#k"/>
<use x="60.818359" xlink:href="#h"/>
<use x="122.341797" xlink:href="#i"/>
<use x="163.439453" xlink:href="#j"/>
<use x="260.851562" xlink:href="#g"/>
<use x="288.634766" xlink:href="#f"/>
<use x="352.013672" xlink:href="#d"/>
<use x="413.292969" xlink:href="#l"/>
</g>
</g>
<path d="m149.6 592.48v35.285q0 2.4 2.4 2.4h7.7425q2.4 0 2.4-2.4v-35.285q0-2.4-2.4-2.4h-7.7425q-2.4 0-2.4 2.4z" clip-path="url(#a)" fill="#fff" stroke="#fff"/>
<g clip-path="url(#a)">
<g transform="translate(153.67 592.48) rotate(90) scale(.08 -.08)">
<use xlink:href="#k"/>
<use x="60.818359" xlink:href="#h"/>
<use x="122.341797" xlink:href="#i"/>
<use x="163.439453" xlink:href="#j"/>
<use x="260.851562" xlink:href="#g"/>
<use x="288.634766" xlink:href="#f"/>
<use x="352.013672" xlink:href="#d"/>
<use x="413.292969" xlink:href="#l"/>
</g>
</g>
<path d="m305.98 201.59 7.2751-6.7622q1.7579-1.634 0.12392-3.3918l-5.2712-5.671q-1.634-1.7579-3.3918-0.12392l-7.2751 6.7622q-1.7579 1.634-0.12392 3.3918l5.2712 5.671q1.634 1.7579 3.3918 0.12392z" clip-path="url(#a)" fill="#fff" stroke="#fff"/>
<g clip-path="url(#a)">
<g transform="translate(303.21 198.62) rotate(-42.908) scale(.08 -.08)">
<use xlink:href="#x"/>
<use x="55.744141" xlink:href="#p"/>
</g>
</g>
<path d="m502.06 291.62 1.1367 9.9515q0.27238 2.3845 2.6569 2.1121l7.6925-0.8787q2.3845-0.27238 2.1121-2.6569l-1.1367-9.9515q-0.27238-2.3845-2.6569-2.1121l-7.6925 0.8787q-2.3845 0.27238-2.1121 2.6569z" clip-path="url(#a)" fill="#fff" stroke="#fff"/>
<g clip-path="url(#a)">
<g transform="translate(506.1 291.16) rotate(83.483) scale(.08 -.08)">
<use xlink:href="#x"/>
<use x="55.712891" xlink:href="#w"/>
</g>
</g>
<path d="m615.2 91.542 9.2723 3.5608q2.2405 0.8604 3.1009-1.3801l2.7757-7.2278q0.86041-2.2405-1.3801-3.1009l-9.2723-3.5608q-2.2405-0.8604-3.1009 1.3801l-2.7757 7.2278q-0.8604 2.2405 1.3801 3.1009z" clip-path="url(#a)" fill="#fff" stroke="#fff"/>
<g clip-path="url(#a)">
<g transform="translate(616.66 87.749) rotate(21.008) scale(.08 -.08)">
<use xlink:href="#x"/>
<use x="55.744141" xlink:href="#p"/>
</g>
</g>
<path d="m245.37 592.48v35.285q0 2.4 2.4 2.4h7.7425q2.4 0 2.4-2.4v-35.285q0-2.4-2.4-2.4h-7.7425q-2.4 0-2.4 2.4z" clip-path="url(#a)" fill="#fff" stroke="#fff"/>
<g clip-path="url(#a)">
<g transform="translate(249.44 592.48) rotate(90) scale(.08 -.08)">
<use xlink:href="#k"/>
<use x="60.818359" xlink:href="#h"/>
<use x="122.341797" xlink:href="#i"/>
<use x="163.439453" xlink:href="#j"/>
<use x="260.851562" xlink:href="#g"/>
<use x="288.634766" xlink:href="#f"/>
<use x="352.013672" xlink:href="#d"/>
<use x="413.292969" xlink:href="#l"/>
</g>
</g>
<path d="m484.8 592.48v35.285q0 2.4 2.4 2.4h7.7425q2.4 0 2.4-2.4v-35.285q0-2.4-2.4-2.4h-7.7425q-2.4 0-2.4 2.4z" clip-path="url(#a)" fill="#fff" stroke="#fff"/>
<g clip-path="url(#a)">
<g transform="translate(488.86 592.48) rotate(90) scale(.08 -.08)">
<use xlink:href="#k"/>
<use x="60.818359" xlink:href="#h"/>
<use x="122.341797" xlink:href="#i"/>
<use x="163.439453" xlink:href="#j"/>
<use x="260.851562" xlink:href="#g"/>
<use x="288.634766" xlink:href="#f"/>
<use x="352.013672" xlink:href="#d"/>
<use x="413.292969" xlink:href="#l"/>
</g>
</g>
<path d="m1251 592.48v35.285q0 2.4 2.4 2.4h7.7425q2.4 0 2.4-2.4v-35.285q0-2.4-2.4-2.4h-7.7425q-2.4 0-2.4 2.4z" clip-path="url(#a)" fill="#fff" stroke="#fff"/>
<g clip-path="url(#a)">
<g transform="translate(1255 592.48) rotate(90) scale(.08 -.08)">
<use xlink:href="#k"/>
<use x="60.818359" xlink:href="#h"/>
<use x="122.341797" xlink:href="#i"/>
<use x="163.439453" xlink:href="#j"/>
<use x="260.851562" xlink:href="#g"/>
<use x="288.634766" xlink:href="#f"/>
<use x="352.013672" xlink:href="#d"/>
<use x="413.292969" xlink:href="#l"/>
</g>
</g>
<defs>
<path id="b" d="m0 8.6603c2.2967 0 4.4997-0.9125 6.1237-2.5365 1.624-1.624 2.5365-3.827 2.5365-6.1237s-0.9125-4.4997-2.5365-6.1237c-1.624-1.624-3.827-2.5365-6.1237-2.5365s-4.4997 0.9125-6.1237 2.5365c-1.624 1.624-2.5365 3.827-2.5365 6.1237s0.9125 4.4997 2.5365 6.1237c1.624 1.624 3.827 2.5365 6.1237 2.5365z"/>
</defs>
<g clip-path="url(#a)">
<use x="60.105443" y="660.904816" fill="#ffffff" stroke="#ffffff" xlink:href="#b"/>
</g>
<g clip-path="url(#a)">
<use x="107.990341" y="660.904816" fill="#ffffff" stroke="#ffffff" xlink:href="#b"/>
</g>
<g clip-path="url(#a)">
<use x="155.875239" y="660.904816" fill="#ffffff" stroke="#ffffff" xlink:href="#b"/>
</g>
<g clip-path="url(#a)">
<use x="203.760137" y="660.904816" fill="#ffffff" stroke="#ffffff" xlink:href="#b"/>
</g>
<g clip-path="url(#a)">
<use x="251.645035" y="660.904816" fill="#ffffff" stroke="#ffffff" xlink:href="#b"/>
</g>
<g clip-path="url(#a)">
<use x="299.529933" y="660.904816" fill="#ffffff" stroke="#ffffff" xlink:href="#b"/>
</g>
<g clip-path="url(#a)">
<use x="347.41483" y="660.904816" fill="#ffffff" stroke="#ffffff" xlink:href="#b"/>
</g>
<g clip-path="url(#a)">
<use x="395.299728" y="660.904816" fill="#ffffff" stroke="#ffffff" xlink:href="#b"/>
</g>
<g clip-path="url(#a)">
<use x="443.184626" y="660.904816" fill="#ffffff" stroke="#ffffff" xlink:href="#b"/>
</g>
<g clip-path="url(#a)">
<use x="491.069524" y="660.904816" fill="#ffffff" stroke="#ffffff" xlink:href="#b"/>
</g>
<g clip-path="url(#a)">
<use x="538.954422" y="660.904816" fill="#ffffff" stroke="#ffffff" xlink:href="#b"/>
</g>
<g clip-path="url(#a)">
<use x="586.83932" y="660.904816" fill="#ffffff" stroke="#ffffff" xlink:href="#b"/>
</g>
<g clip-path="url(#a)">
<use x="634.724218" y="660.904816" fill="#ffffff" stroke="#ffffff" xlink:href="#b"/>
</g>
<g clip-path="url(#a)">
<use x="682.609116" y="660.904816" fill="#ffffff" stroke="#ffffff" xlink:href="#b"/>
</g>
<g clip-path="url(#a)">
<use x="730.494013" y="660.904816" fill="#ffffff" stroke="#ffffff" xlink:href="#b"/>
</g>
<g clip-path="url(#a)">
<use x="778.378911" y="660.904816" fill="#ffffff" stroke="#ffffff" xlink:href="#b"/>
</g>
<g clip-path="url(#a)">
<use x="826.263809" y="660.904816" fill="#ffffff" stroke="#ffffff" xlink:href="#b"/>
</g>
<g clip-path="url(#a)">
<use x="874.148707" y="660.904816" fill="#ffffff" stroke="#ffffff" xlink:href="#b"/>
</g>
<g clip-path="url(#a)">
<use x="922.033605" y="660.904816" fill="#ffffff" stroke="#ffffff" xlink:href="#b"/>
</g>
<g clip-path="url(#a)">
<use x="969.918503" y="660.904816" fill="#ffffff" stroke="#ffffff" xlink:href="#b"/>
</g>
<g clip-path="url(#a)">
<use x="1017.803401" y="660.904816" fill="#ffffff" stroke="#ffffff" xlink:href="#b"/>
</g>
<g clip-path="url(#a)">
<use x="1065.688299" y="660.904816" fill="#ffffff" stroke="#ffffff" xlink:href="#b"/>
</g>
<g clip-path="url(#a)">
<use x="1113.573196" y="660.904816" fill="#ffffff" stroke="#ffffff" xlink:href="#b"/>
</g>
<g clip-path="url(#a)">
<use x="1161.458094" y="660.904816" fill="#ffffff" stroke="#ffffff" xlink:href="#b"/>
</g>
<g clip-path="url(#a)">
<use x="1209.342992" y="660.904816" fill="#ffffff" stroke="#ffffff" xlink:href="#b"/>
</g>
<g clip-path="url(#a)">
<use x="1257.22789" y="660.904816" fill="#ffffff" stroke="#ffffff" xlink:href="#b"/>
</g>
<g clip-path="url(#a)">
<use x="425.061523" y="32.428517" fill="#ffffff" stroke="#ffffff" xlink:href="#b"/>
</g>
<g clip-path="url(#a)">
<use x="131.93279" y="354.811405" fill="#ffffff" stroke="#ffffff" xlink:href="#b"/>
</g>
<g clip-path="url(#a)">
<use x="371.357279" y="559.344617" fill="#ffffff" stroke="#ffffff" xlink:href="#b"/>
</g>
<g clip-path="url(#a)">
<use x="538.954422" y="559.344617" fill="#ffffff" stroke="#ffffff" xlink:href="#b"/>
</g>
<g clip-path="url(#a)">
<use x="765.410085" y="142.508289" fill="#ffffff" stroke="#ffffff" xlink:href="#b"/>
</g>
<g clip-path="url(#a)">
<use x="634.724218" y="457.784418" fill="#ffffff" stroke="#ffffff" xlink:href="#b"/>
</g>
<g clip-path="url(#a)">
<use x="754.436462" y="457.784418" fill="#ffffff" stroke="#ffffff" xlink:href="#b"/>
</g>
<g clip-path="url(#a)">
<use x="907.069574" y="249.855568" fill="#ffffff" stroke="#ffffff" xlink:href="#b"/>
</g>
<g clip-path="url(#a)">
<use x="850.206258" y="457.784418" fill="#ffffff" stroke="#ffffff" xlink:href="#b"/>
</g>
<g clip-path="url(#a)">
<use x="945.976054" y="457.784418" fill="#ffffff" stroke="#ffffff" xlink:href="#b"/>
</g>
<g clip-path="url(#a)">
<use x="1149.48687" y="354.811405" fill="#ffffff" stroke="#ffffff" xlink:href="#b"/>
</g>
<g clip-path="url(#a)">
<use x="1017.803401" y="559.344617" fill="#ffffff" stroke="#ffffff" xlink:href="#b"/>
</g>
<g clip-path="url(#a)">
<use x="1113.573196" y="457.784418" fill="#ffffff" stroke="#ffffff" xlink:href="#b"/>
</g>
<g clip-path="url(#a)">
<use x="1209.342992" y="559.344617" fill="#ffffff" stroke="#ffffff" xlink:href="#b"/>
</g>
<g clip-path="url(#a)">
<use x="1065.688299" y="559.344617" fill="#ffffff" stroke="#ffffff" xlink:href="#b"/>
</g>
<g clip-path="url(#a)">
<use x="1113.573196" y="559.344617" fill="#ffffff" stroke="#ffffff" xlink:href="#b"/>
</g>
<g clip-path="url(#a)">
<use x="1161.458094" y="559.344617" fill="#ffffff" stroke="#ffffff" xlink:href="#b"/>
</g>
<g clip-path="url(#a)">
<use x="922.033605" y="559.344617" fill="#ffffff" stroke="#ffffff" xlink:href="#b"/>
</g>
<g clip-path="url(#a)">
<use x="969.918503" y="559.344617" fill="#ffffff" stroke="#ffffff" xlink:href="#b"/>
</g>
<g clip-path="url(#a)">
<use x="826.263809" y="559.344617" fill="#ffffff" stroke="#ffffff" xlink:href="#b"/>
</g>
<g clip-path="url(#a)">
<use x="874.148707" y="559.344617" fill="#ffffff" stroke="#ffffff" xlink:href="#b"/>
</g>
<g clip-path="url(#a)">
<use x="730.494013" y="559.344617" fill="#ffffff" stroke="#ffffff" xlink:href="#b"/>
</g>
<g clip-path="url(#a)">
<use x="778.378911" y="559.344617" fill="#ffffff" stroke="#ffffff" xlink:href="#b"/>
</g>
<g clip-path="url(#a)">
<use x="586.83932" y="559.344617" fill="#ffffff" stroke="#ffffff" xlink:href="#b"/>
</g>
<g clip-path="url(#a)">
<use x="634.724218" y="559.344617" fill="#ffffff" stroke="#ffffff" xlink:href="#b"/>
</g>
<g clip-path="url(#a)">
<use x="682.609116" y="559.344617" fill="#ffffff" stroke="#ffffff" xlink:href="#b"/>
</g>
<g clip-path="url(#a)">
<use x="60.105443" y="559.344617" fill="#ffffff" stroke="#ffffff" xlink:href="#b"/>
</g>
<g clip-path="url(#a)">
<use x="131.93279" y="457.784418" fill="#ffffff" stroke="#ffffff" xlink:href="#b"/>
</g>
<g clip-path="url(#a)">
<use x="203.760137" y="559.344617" fill="#ffffff" stroke="#ffffff" xlink:href="#b"/>
</g>
<g clip-path="url(#a)">
<use x="107.990341" y="559.344617" fill="#ffffff" stroke="#ffffff" xlink:href="#b"/>
</g>
<g clip-path="url(#a)">
<use x="155.875239" y="559.344617" fill="#ffffff" stroke="#ffffff" xlink:href="#b"/>
</g>
<g clip-path="url(#a)">
<use x="478.765766" y="32.428517" fill="#808080" stroke="#808080" xlink:href="#b"/>
</g>
<g clip-path="url(#a)">
<use x="251.645035" y="559.344617" fill="#ffffff" stroke="#ffffff" xlink:href="#b"/>
</g>
<g clip-path="url(#a)">
<use x="491.069524" y="559.344617" fill="#ffffff" stroke="#ffffff" xlink:href="#b"/>
</g>
<g clip-path="url(#a)">
<use x="1257.22789" y="559.344617" fill="#ffffff" stroke="#ffffff" xlink:href="#b"/>
</g>
<g clip-path="url(#a)">
<defs>
<path id="q" d="m30.609 48.391q-7.2188 0-11.422-5.6406t-4.2031-15.453 4.1719-15.453q4.1875-5.6406 11.453-5.6406 7.1875 0 11.375 5.6562 4.2031 5.6719 4.2031 15.438 0 9.7188-4.2031 15.406-4.1875 5.6875-11.375 5.6875zm0 7.6094q11.719 0 18.406-7.625 6.7031-7.6094 6.7031-21.078 0-13.422-6.7031-21.078-6.6875-7.6406-18.406-7.6406-11.766 0-18.438 7.6406-6.6562 7.6562-6.6562 21.078 0 13.469 6.6562 21.078 6.6719 7.625 18.438 7.625z"/>
<path id="o" d="m18.312 70.219v-15.531h18.5v-6.9844h-18.5v-29.688q0-6.6875 1.8281-8.5938t7.4531-1.9062h9.2188v-7.5156h-9.2188q-10.406 0-14.359 3.875-3.9531 3.8906-3.9531 14.141v29.688h-6.5938v6.9844h6.5938v15.531z"/>
<path id="s" d="m54.891 33.016v-33.016h-8.9844v32.719q0 7.7656-3.0312 11.609-3.0312 3.8594-9.0781 3.8594-7.2812 0-11.484-4.6406-4.2031-4.625-4.2031-12.641v-30.906h-9.0312v75.984h9.0312v-29.797q3.2344 4.9375 7.5938 7.375 4.375 2.4375 10.094 2.4375 9.4219 0 14.25-5.8281 4.8438-5.8281 4.8438-17.156z"/>
<path id="ak" d="m45.406 27.984q0 9.7656-4.0312 15.125-4.0156 5.375-11.297 5.375-7.2188 0-11.25-5.375-4.0312-5.3594-4.0312-15.125 0-9.7188 4.0312-15.094t11.25-5.375q7.2812 0 11.297 5.375 4.0312 5.375 4.0312 15.094zm8.9844-21.203q0-13.953-6.2031-20.766-6.1875-6.8125-18.984-6.8125-4.7344 0-8.9375 0.70312t-8.1562 2.1719v8.7344q3.9531-2.1406 7.8125-3.1562 3.8594-1.0312 7.8594-1.0312 8.8438 0 13.234 4.6094t4.3906 13.938v4.4531q-2.7812-4.8438-7.125-7.2344t-10.406-2.3906q-10.047 0-16.203 7.6562-6.1562 7.6719-6.1562 20.328 0 12.688 6.1562 20.344 6.1562 7.6719 16.203 7.6719 6.0625 0 10.406-2.3906t7.125-7.2188v8.2969h8.9844z"/>
</defs>
<g transform="translate(33.064 663.66) scale(.1 -.1)">
<use xlink:href="#af"/>
<use x="63.476562" xlink:href="#q"/>
<use x="124.658203" xlink:href="#j"/>
<use x="222.070312" xlink:href="#h"/>
<use x="283.59375" xlink:href="#o"/>
<use x="322.802734" xlink:href="#s"/>
<use x="386.181641" xlink:href="#g"/>
<use x="413.964844" xlink:href="#f"/>
<use x="477.34375" xlink:href="#ak"/>
</g>
</g>
<g clip-path="url(#a)">
<defs>
<path id="ab" d="m4.2031 54.688h8.9844l11.234-42.672 11.172 42.672h10.594l11.234-42.672 11.188 42.672h8.9844l-14.312-54.688h-10.594l-11.766 44.828-11.812-44.828h-10.609z"/>
<path id="t" d="m44.281 53.078v-8.5q-3.7969 1.9531-7.9062 2.9219-4.0938 0.98438-8.5 0.98438-6.6875 0-10.031-2.0469t-3.3438-6.1562q0-3.125 2.3906-4.9062t9.625-3.3906l3.0781-0.6875q9.5625-2.0469 13.594-5.7812t4.0312-10.422q0-7.625-6.0312-12.078-6.0312-4.4375-16.578-4.4375-4.3906 0-9.1562 0.85938t-10.031 2.5625v9.2812q4.9844-2.5938 9.8125-3.8906 4.8281-1.2812 9.5781-1.2812 6.3438 0 9.75 2.1719 3.4219 2.1719 3.4219 6.125 0 3.6562-2.4688 5.6094-2.4531 1.9531-10.812 3.7656l-3.125 0.73438q-8.3438 1.75-12.062 5.3906-3.7031 3.6406-3.7031 9.9844 0 7.7188 5.4688 11.906 5.4688 4.2031 15.531 4.2031 4.9688 0 9.3594-0.73438 4.4062-0.71875 8.1094-2.1875z"/>
</defs>
<g transform="translate(98.233 663.66) scale(.1 -.1)">
<use xlink:href="#ab"/>
<use x="81.787109" xlink:href="#d"/>
<use x="143.066406" xlink:href="#t"/>
</g>
</g>
<g clip-path="url(#a)">
<defs>
<path id="ac" d="m8.5 21.578v33.109h8.9844v-32.766q0-7.7656 3.0156-11.656 3.0312-3.875 9.0938-3.875 7.2656 0 11.484 4.6406 4.2344 4.6406 4.2344 12.656v31h8.9844v-54.688h-8.9844v8.4062q-3.2656-4.9844-7.5938-7.4062-4.3125-2.4219-10.031-2.4219-9.4219 0-14.312 5.8594-4.875 5.8594-4.875 17.141z"/>
</defs>
<g transform="translate(147.69 663.66) scale(.1 -.1)">
<use xlink:href="#q"/>
<use x="61.181641" xlink:href="#ac"/>
<use x="124.560547" xlink:href="#o"/>
</g>
</g>
<g clip-path="url(#a)">
<g transform="translate(190.42 663.66) scale(.1 -.1)">
<use xlink:href="#o"/>
<use x="39.208984" xlink:href="#s"/>
<use x="102.587891" xlink:href="#h"/>
<use x="164.111328" xlink:href="#i"/>
<use x="205.193359" xlink:href="#h"/>
</g>
</g>
<g clip-path="url(#a)">
<defs>
<path id="ao" d="m11.719 12.406h10.297v-8.4062l-8-15.625h-6.2969l4 15.625z"/>
</defs>
<g transform="translate(250.06 663.66) scale(.1 -.1)">
<use xlink:href="#ao"/>
</g>
</g>
<g clip-path="url(#a)">
<g transform="translate(289.38 663.66) scale(.1 -.1)">
<use xlink:href="#o"/>
<use x="39.208984" xlink:href="#s"/>
<use x="102.587891" xlink:href="#d"/>
<use x="163.867188" xlink:href="#o"/>
</g>
</g>
<g clip-path="url(#a)">
<defs>
<path id="v" d="m48.781 52.594v-8.4062q-3.8125 2.1094-7.6406 3.1562t-7.7344 1.0469q-8.75 0-13.594-5.5469-4.8281-5.5312-4.8281-15.547t4.8281-15.562q4.8438-5.5312 13.594-5.5312 3.9062 0 7.7344 1.0469t7.6406 3.1562v-8.3125q-3.7656-1.75-7.7969-2.625-4.0156-0.89062-8.5625-0.89062-12.359 0-19.641 7.7656-7.2656 7.7656-7.2656 20.953 0 13.375 7.3438 21.031 7.3594 7.6719 20.156 7.6719 4.1406 0 8.0938-0.85938 3.9531-0.84375 7.6719-2.5469z"/>
</defs>
<g transform="translate(333.46 663.66) scale(.1 -.1)">
<use xlink:href="#j"/>
<use x="97.412109" xlink:href="#ac"/>
<use x="160.791016" xlink:href="#v"/>
<use x="215.771484" xlink:href="#s"/>
</g>
</g>
<g clip-path="url(#a)">
<g transform="translate(385.54 663.66) scale(.1 -.1)">
<use xlink:href="#ab"/>
<use x="81.787109" xlink:href="#d"/>
<use x="143.066406" xlink:href="#t"/>
</g>
</g>
<g clip-path="url(#a)">
<g transform="translate(425.72 663.66) scale(.1 -.1)">
<use xlink:href="#v"/>
<use x="54.980469" xlink:href="#h"/>
<use x="116.503906" xlink:href="#i"/>
<use x="157.617188" xlink:href="#o"/>
<use x="196.826172" xlink:href="#d"/>
<use x="258.105469" xlink:href="#g"/>
<use x="285.888672" xlink:href="#f"/>
</g>
</g>
<g clip-path="url(#a)">
<g transform="translate(489.48 663.66) scale(.1 -.1)">
<use xlink:href="#ao"/>
</g>
</g>
<g clip-path="url(#a)">
<defs>
<path id="ad" d="m45.406 46.391v29.594h8.9844v-75.984h-8.9844v8.2031q-2.8281-4.875-7.1562-7.25-4.3125-2.375-10.375-2.375-9.9062 0-16.141 7.9062-6.2188 7.9219-6.2188 20.812t6.2188 20.797q6.2344 7.9062 16.141 7.9062 6.0625 0 10.375-2.375 4.3281-2.3594 7.1562-7.2344zm-30.609-19.094q0-9.9062 4.0781-15.547t11.203-5.6406 11.219 5.6406q4.1094 5.6406 4.1094 15.547t-4.1094 15.547q-4.0938 5.6406-11.219 5.6406t-11.203-5.6406-4.0781-15.547z"/>
</defs>
<g transform="translate(529.55 663.66) scale(.1 -.1)">
<use xlink:href="#d"/>
<use x="61.279297" xlink:href="#f"/>
<use x="124.658203" xlink:href="#ad"/>
</g>
</g>
<g clip-path="url(#a)">
<defs>
<path id="as" d="m32.172-5.0781q-3.7969-9.7656-7.4219-12.734-3.6094-2.9844-9.6562-2.9844h-7.1875v7.5156h5.2812q3.7031 0 5.75 1.7656 2.0625 1.75 4.5469 8.2969l1.6094 4.0938-22.109 53.812h9.5156l17.094-42.766 17.094 42.766h9.5156z"/>
</defs>
<g transform="translate(577.65 663.66) scale(.1 -.1)">
<use xlink:href="#d"/>
<use x="61.279297" xlink:href="#f"/>
<use x="124.658203" xlink:href="#as"/>
</g>
</g>
<g clip-path="url(#a)">
<defs>
<path id="ap" d="m48.688 27.297q0 9.9062-4.0781 15.547t-11.203 5.6406q-7.1406 0-11.219-5.6406t-4.0781-15.547 4.0781-15.547 11.219-5.6406q7.125 0 11.203 5.6406t4.0781 15.547zm-30.578 19.094q2.8438 4.875 7.1562 7.2344 4.3281 2.375 10.328 2.375 9.9688 0 16.188-7.9062 6.2344-7.9062 6.2344-20.797t-6.2344-20.812q-6.2188-7.9062-16.188-7.9062-6 0-10.328 2.375-4.3125 2.375-7.1562 7.25v-8.2031h-9.0312v75.984h9.0312z"/>
</defs>
<g transform="translate(612.46 663.66) scale(.1 -.1)">
<use xlink:href="#ad"/>
<use x="63.476562" xlink:href="#q"/>
<use x="124.658203" xlink:href="#ac"/>
<use x="188.037109" xlink:href="#ap"/>
<use x="251.513672" xlink:href="#o"/>
<use x="290.722656" xlink:href="#g"/>
<use x="318.505859" xlink:href="#f"/>
<use x="381.884766" xlink:href="#ak"/>
</g>
</g>
<g clip-path="url(#a)">
<g transform="translate(662.79 663.66) scale(.1 -.1)">
<use xlink:href="#k"/>
<use x="61.083984" xlink:href="#s"/>
<use x="124.462891" xlink:href="#q"/>
<use x="185.644531" xlink:href="#j"/>
<use x="283.056641" xlink:href="#d"/>
<use x="344.335938" xlink:href="#t"/>
</g>
</g>
<g clip-path="url(#a)">
<g transform="translate(720.74 663.66) scale(.1 -.1)">
<use xlink:href="#ab"/>
<use x="81.787109" xlink:href="#d"/>
<use x="143.066406" xlink:href="#t"/>
</g>
</g>
<g clip-path="url(#a)">
<defs>
<path id="at" d="m2.9844 54.688h9.5156l17.094-45.891 17.094 45.891h9.5156l-20.516-54.688h-12.203z"/>
</defs>
<g transform="translate(761.26 663.66) scale(.1 -.1)">
<use xlink:href="#g"/>
<use x="27.783203" xlink:href="#f"/>
<use x="91.162109" xlink:href="#at"/>
<use x="150.341797" xlink:href="#g"/>
<use x="178.125" xlink:href="#o"/>
<use x="217.333984" xlink:href="#h"/>
<use x="278.857422" xlink:href="#ad"/>
</g>
</g>
<g clip-path="url(#a)">
<g transform="translate(821.24 663.66) scale(.1 -.1)">
<use xlink:href="#o"/>
<use x="39.208984" xlink:href="#q"/>
</g>
</g>
<g clip-path="url(#a)">
<defs>
<path id="au" d="m18.109 8.2031v-29h-9.0312v75.484h9.0312v-8.2969q2.8438 4.875 7.1562 7.2344 4.3281 2.375 10.328 2.375 9.9688 0 16.188-7.9062 6.2344-7.9062 6.2344-20.797t-6.2344-20.812q-6.2188-7.9062-16.188-7.9062-6 0-10.328 2.375-4.3125 2.375-7.1562 7.25zm30.578 19.094q0 9.9062-4.0781 15.547t-11.203 5.6406q-7.1406 0-11.219-5.6406t-4.0781-15.547 4.0781-15.547 11.219-5.6406q7.125 0 11.203 5.6406t4.0781 15.547z"/>
</defs>
<g transform="translate(860.7 663.66) scale(.1 -.1)">
<use xlink:href="#au"/>
<use x="63.476562" xlink:href="#l"/>
<use x="91.259766" xlink:href="#d"/>
<use x="152.539062" xlink:href="#v"/>
<use x="207.519531" xlink:href="#h"/>
</g>
</g>
<g clip-path="url(#a)">
<g transform="translate(914.87 663.66) scale(.1 -.1)">
<use xlink:href="#s"/>
<use x="63.378906" xlink:href="#g"/>
<use x="91.162109" xlink:href="#t"/>
</g>
</g>
<g clip-path="url(#a)">
<defs>
<path id="av" d="m37.109 75.984v-7.4844h-8.5938q-4.8281 0-6.7188-1.9531-1.875-1.9531-1.875-7.0312v-4.8281h14.797v-6.9844h-14.797v-47.703h-9.0312v47.703h-8.5938v6.9844h8.5938v3.8125q0 9.125 4.25 13.297 4.25 4.1875 13.469 4.1875z"/>
</defs>
<g transform="translate(955.29 663.66) scale(.1 -.1)">
<use xlink:href="#av"/>
<use x="35.205078" xlink:href="#g"/>
<use x="62.988281" xlink:href="#f"/>
<use x="126.367188" xlink:href="#ak"/>
<use x="189.84375" xlink:href="#h"/>
<use x="251.367188" xlink:href="#i"/>
</g>
</g>
<g clip-path="url(#a)">
<g transform="translate(1011.6 663.66) scale(.1 -.1)">
<use xlink:href="#q"/>
<use x="61.181641" xlink:href="#f"/>
</g>
</g>
<g clip-path="url(#a)">
<g transform="translate(1057.5 663.66) scale(.1 -.1)">
<use xlink:href="#o"/>
<use x="39.208984" xlink:href="#s"/>
<use x="102.587891" xlink:href="#h"/>
</g>
</g>
<g clip-path="url(#a)">
<g transform="translate(1098.2 663.66) scale(.1 -.1)">
<use xlink:href="#af"/>
<use x="63.476562" xlink:href="#v"/>
<use x="118.457031" xlink:href="#q"/>
<use x="179.638672" xlink:href="#o"/>
<use x="218.847656" xlink:href="#g"/>
<use x="246.630859" xlink:href="#d"/>
</g>
</g>
<g clip-path="url(#a)">
<defs>
<path id="aq" d="m12.703 72.906h10.297v-7.4219l-8.0156-15.578h-6.2969l4.0156 15.578z"/>
</defs>
<g transform="translate(1157.3 663.66) scale(.1 -.1)">
<use xlink:href="#aq"/>
<use x="31.787109" xlink:href="#t"/>
</g>
</g>
<g clip-path="url(#a)">
<g transform="translate(1192.7 663.66) scale(.1 -.1)">
<use xlink:href="#ab"/>
<use x="81.787109" xlink:href="#q"/>
<use x="142.96875" xlink:href="#ac"/>
<use x="206.347656" xlink:href="#f"/>
<use x="269.726562" xlink:href="#ad"/>
</g>
</g>
<g clip-path="url(#a)">
<defs>
<path id="e" d="m10.688 12.406h10.312v-12.406h-10.312z"/>
</defs>
<g transform="translate(1255.6 663.66) scale(.1 -.1)">
<use xlink:href="#e"/>
</g>
</g>
<g clip-path="url(#a)">
<defs>
<path id="c" d="m12.406 8.2969h16.109v55.625l-17.531-3.5156v8.9844l17.438 3.5156h9.8594v-64.609h16.109v-8.2969h-41.984z"/>
</defs>
<g transform="translate(417.11 35.188) scale(.1 -.1)">
<use xlink:href="#c"/>
<use x="63.623047" xlink:href="#e"/>
<use x="95.410156" xlink:href="#c"/>
</g>
</g>
<g clip-path="url(#a)">
<defs>
<path id="m" d="m19.188 8.2969h34.422v-8.2969h-46.281v8.2969q5.6094 5.8125 15.297 15.594 9.7031 9.7969 12.188 12.641 4.7344 5.3125 6.6094 9 1.8906 3.6875 1.8906 7.25 0 5.8125-4.0781 9.4688-4.0781 3.6719-10.625 3.6719-4.6406 0-9.7969-1.6094-5.1406-1.6094-11-4.8906v9.9688q5.9531 2.3906 11.125 3.6094 5.1875 1.2188 9.4844 1.2188 11.328 0 18.062-5.6719 6.7344-5.6562 6.7344-15.125 0-4.5-1.6875-8.5312-1.6719-4.0156-6.125-9.4844-1.2188-1.4219-7.7656-8.1875-6.5312-6.7656-18.453-18.922z"/>
</defs>
<g transform="translate(123.98 357.57) scale(.1 -.1)">
<use xlink:href="#c"/>
<use x="63.623047" xlink:href="#e"/>
<use x="95.410156" xlink:href="#m"/>
</g>
</g>
<g clip-path="url(#a)">
<defs>
<path id="aa" d="m37.797 64.312-24.906-38.922h24.906zm-2.5938 8.5938h12.406v-47.516h10.406v-8.2031h-10.406v-17.188h-9.8125v17.188h-32.906v9.5156z"/>
</defs>
<g transform="translate(363.41 562.1) scale(.1 -.1)">
<use xlink:href="#c"/>
<use x="63.623047" xlink:href="#e"/>
<use x="95.410156" xlink:href="#aa"/>
</g>
</g>
<g clip-path="url(#a)">
<defs>
<path id="z" d="m33.016 40.375q-6.6406 0-10.531-4.5469-3.875-4.5312-3.875-12.438 0-7.8594 3.875-12.438 3.8906-4.5625 10.531-4.5625t10.516 4.5625q3.875 4.5781 3.875 12.438 0 7.9062-3.875 12.438-3.875 4.5469-10.516 4.5469zm19.578 30.922v-8.9844q-3.7188 1.75-7.5 2.6719-3.7812 0.9375-7.5 0.9375-9.7656 0-14.922-6.5938-5.1406-6.5938-5.875-19.922 2.875 4.25 7.2188 6.5156 4.3594 2.2656 9.5781 2.2656 10.984 0 17.359-6.6719 6.375-6.6562 6.375-18.125 0-11.234-6.6406-18.031-6.6406-6.7812-17.672-6.7812-12.656 0-19.344 9.6875-6.6875 9.7031-6.6875 28.109 0 17.281 8.2031 27.562t22.016 10.281q3.7188 0 7.5-0.73438t7.8906-2.1875z"/>
</defs>
<g transform="translate(531 562.1) scale(.1 -.1)">
<use xlink:href="#c"/>
<use x="63.623047" xlink:href="#e"/>
<use x="95.410156" xlink:href="#z"/>
</g>
</g>
<g clip-path="url(#a)">
<defs>
<path id="y" d="m8.2031 72.906h46.875v-4.2031l-26.469-68.703h-10.297l24.906 64.594h-35.016z"/>
</defs>
<g transform="translate(757.46 145.27) scale(.1 -.1)">
<use xlink:href="#c"/>
<use x="63.623047" xlink:href="#e"/>
<use x="95.410156" xlink:href="#y"/>
</g>
</g>
<g clip-path="url(#a)">
<defs>
<path id="ag" d="m10.984 1.5156v8.9844q3.7188-1.7656 7.5156-2.6875 3.8125-0.92188 7.4844-0.92188 9.7656 0 14.906 6.5625 5.1562 6.5625 5.8906 19.953-2.8281-4.2031-7.1875-6.4531-4.3438-2.25-9.6094-2.25-10.938 0-17.312 6.6094-6.375 6.625-6.375 18.109 0 11.219 6.6406 18 6.6406 6.7969 17.672 6.7969 12.656 0 19.312-9.7031 6.6719-9.6875 6.6719-28.141 0-17.234-8.1875-27.516-8.1719-10.281-21.984-10.281-3.7188 0-7.5312 0.73438-3.7969 0.73438-7.9062 2.2031zm19.625 30.906q6.6406 0 10.516 4.5312 3.8906 4.5469 3.8906 12.469 0 7.8594-3.8906 12.422-3.875 4.5625-10.516 4.5625t-10.516-4.5625-3.875-12.422q0-7.9219 3.875-12.469 3.875-4.5312 10.516-4.5312z"/>
</defs>
<g transform="translate(626.77 460.54) scale(.1 -.1)">
<use xlink:href="#c"/>
<use x="63.623047" xlink:href="#e"/>
<use x="95.410156" xlink:href="#ag"/>
</g>
</g>
<g clip-path="url(#a)">
<defs>
<path id="aj" d="m31.781 66.406q-7.6094 0-11.453-7.5-3.8281-7.4844-3.8281-22.531 0-14.984 3.8281-22.484 3.8438-7.5 11.453-7.5 7.6719 0 11.5 7.5 3.8438 7.5 3.8438 22.484 0 15.047-3.8438 22.531-3.8281 7.5-11.5 7.5zm0 7.8125q12.266 0 18.734-9.7031 6.4688-9.6875 6.4688-28.141 0-18.406-6.4688-28.109-6.4688-9.6875-18.734-9.6875-12.25 0-18.719 9.6875-6.4688 9.7031-6.4688 28.109 0 18.453 6.4688 28.141 6.4688 9.7031 18.719 9.7031z"/>
</defs>
<g transform="translate(743.3 460.54) scale(.1 -.1)">
<use xlink:href="#c"/>
<use x="63.623047" xlink:href="#e"/>
<use x="95.410156" xlink:href="#c"/>
<use x="159.033203" xlink:href="#aj"/>
</g>
</g>
<g clip-path="url(#a)">
<g transform="translate(895.94 252.61) scale(.1 -.1)">
<use xlink:href="#c"/>
<use x="63.623047" xlink:href="#e"/>
<use x="95.410156" xlink:href="#c"/>
<use x="159.033203" xlink:href="#c"/>
</g>
</g>
<g clip-path="url(#a)">
<g transform="translate(839.07 460.54) scale(.1 -.1)">
<use xlink:href="#c"/>
<use x="63.623047" xlink:href="#e"/>
<use x="95.410156" xlink:href="#c"/>
<use x="159.033203" xlink:href="#m"/>
</g>
</g>
<g clip-path="url(#a)">
<defs>
<path id="n" d="m40.578 39.312q7.0781-1.5156 11.047-6.3125 3.9844-4.7812 3.9844-11.812 0-10.781-7.4219-16.703-7.4219-5.9062-21.094-5.9062-4.5781 0-9.4375 0.90625t-10.031 2.7188v9.5156q4.0938-2.3906 8.9688-3.6094 4.8906-1.2188 10.219-1.2188 9.2656 0 14.125 3.6562t4.8594 10.641q0 6.4531-4.5156 10.078-4.5156 3.6406-12.562 3.6406h-8.5v8.1094h8.8906q7.2656 0 11.125 2.9062t3.8594 8.375q0 5.6094-3.9844 8.6094-3.9688 3.0156-11.391 3.0156-4.0625 0-8.7031-0.89062-4.6406-0.875-10.203-2.7188v8.7812q5.625 1.5625 10.531 2.3438t9.25 0.78125q11.234 0 17.766-5.1094 6.5469-5.0938 6.5469-13.781 0-6.0625-3.4688-10.234t-9.8594-5.7812z"/>
</defs>
<g transform="translate(934.84 460.54) scale(.1 -.1)">
<use xlink:href="#c"/>
<use x="63.623047" xlink:href="#e"/>
<use x="95.410156" xlink:href="#c"/>
<use x="159.033203" xlink:href="#n"/>
</g>
</g>
<g clip-path="url(#a)">
<g transform="translate(1138.4 357.57) scale(.1 -.1)">
<use xlink:href="#c"/>
<use x="63.623047" xlink:href="#e"/>
<use x="95.410156" xlink:href="#c"/>
<use x="159.033203" xlink:href="#aa"/>
</g>
</g>
<g clip-path="url(#a)">
<defs>
<path id="ai" d="m10.797 72.906h38.719v-8.3125h-29.688v-17.859q2.1406 0.73438 4.2812 1.0938 2.1562 0.35938 4.3125 0.35938 12.203 0 19.328-6.6875 7.1406-6.6875 7.1406-18.109 0-11.766-7.3281-18.297-7.3281-6.5156-20.656-6.5156-4.5938 0-9.3594 0.78125-4.75 0.78125-9.8281 2.3438v9.9219q4.3906-2.3906 9.0781-3.5625t9.9062-1.1719q8.4531 0 13.375 4.4375 4.9375 4.4375 4.9375 12.062 0 7.6094-4.9375 12.047-4.9219 4.4531-13.375 4.4531-3.9531 0-7.8906-0.875-3.9219-0.875-8.0156-2.7344z"/>
</defs>
<g transform="translate(1006.7 562.1) scale(.1 -.1)">
<use xlink:href="#c"/>
<use x="63.623047" xlink:href="#e"/>
<use x="95.410156" xlink:href="#c"/>
<use x="159.033203" xlink:href="#ai"/>
</g>
</g>
<g clip-path="url(#a)">
<g transform="translate(1102.4 460.54) scale(.1 -.1)">
<use xlink:href="#c"/>
<use x="63.623047" xlink:href="#e"/>
<use x="95.410156" xlink:href="#c"/>
<use x="159.033203" xlink:href="#z"/>
</g>
</g>
<g clip-path="url(#a)">
<g transform="translate(1198.2 562.1) scale(.1 -.1)">
<use xlink:href="#c"/>
<use x="63.623047" xlink:href="#e"/>
<use x="95.410156" xlink:href="#c"/>
<use x="159.033203" xlink:href="#y"/>
</g>
</g>
<g clip-path="url(#a)">
<defs>
<path id="ah" d="m31.781 34.625q-7.0312 0-11.062-3.7656-4.0156-3.7656-4.0156-10.344 0-6.5938 4.0156-10.359 4.0312-3.7656 11.062-3.7656t11.078 3.7812q4.0625 3.7969 4.0625 10.344 0 6.5781-4.0312 10.344-4.0156 3.7656-11.109 3.7656zm-9.8594 4.1875q-6.3438 1.5625-9.8906 5.9062-3.5312 4.3594-3.5312 10.609 0 8.7344 6.2188 13.812 6.2344 5.0781 17.062 5.0781 10.891 0 17.094-5.0781t6.2031-13.812q0-6.25-3.5469-10.609-3.5312-4.3438-9.8281-5.9062 7.125-1.6562 11.094-6.5 3.9844-4.8281 3.9844-11.797 0-10.609-6.4688-16.281-6.4688-5.6562-18.531-5.6562-12.047 0-18.531 5.6562-6.4688 5.6719-6.4688 16.281 0 6.9688 4 11.797 4.0156 4.8438 11.141 6.5zm-3.6094 15.578q0-5.6562 3.5312-8.8281 3.5469-3.1719 9.9375-3.1719 6.3594 0 9.9375 3.1719 3.5938 3.1719 3.5938 8.8281 0 5.6719-3.5938 8.8438-3.5781 3.1719-9.9375 3.1719-6.3906 0-9.9375-3.1719-3.5312-3.1719-3.5312-8.8438z"/>
</defs>
<g transform="translate(1054.6 562.1) scale(.1 -.1)">
<use xlink:href="#c"/>
<use x="63.623047" xlink:href="#e"/>
<use x="95.410156" xlink:href="#c"/>
<use x="159.033203" xlink:href="#ah"/>
</g>
</g>
<g clip-path="url(#a)">
<g transform="translate(1102.4 562.1) scale(.1 -.1)">
<use xlink:href="#c"/>
<use x="63.623047" xlink:href="#e"/>
<use x="95.410156" xlink:href="#c"/>
<use x="159.033203" xlink:href="#ag"/>
</g>
</g>
<g clip-path="url(#a)">
<g transform="translate(1150.3 562.1) scale(.1 -.1)">
<use xlink:href="#c"/>
<use x="63.623047" xlink:href="#e"/>
<use x="95.410156" xlink:href="#m"/>
<use x="159.033203" xlink:href="#aj"/>
</g>
</g>
<g clip-path="url(#a)">
<g transform="translate(910.9 562.1) scale(.1 -.1)">
<use xlink:href="#c"/>
<use x="63.623047" xlink:href="#e"/>
<use x="95.410156" xlink:href="#m"/>
<use x="159.033203" xlink:href="#c"/>
</g>
</g>
<g clip-path="url(#a)">
<g transform="translate(958.79 562.1) scale(.1 -.1)">
<use xlink:href="#c"/>
<use x="63.623047" xlink:href="#e"/>
<use x="95.410156" xlink:href="#m"/>
<use x="159.033203" xlink:href="#m"/>
</g>
</g>
<g clip-path="url(#a)">
<g transform="translate(815.13 562.1) scale(.1 -.1)">
<use xlink:href="#c"/>
<use x="63.623047" xlink:href="#e"/>
<use x="95.410156" xlink:href="#m"/>
<use x="159.033203" xlink:href="#n"/>
</g>
</g>
<g clip-path="url(#a)">
<g transform="translate(863.02 562.1) scale(.1 -.1)">
<use xlink:href="#c"/>
<use x="63.623047" xlink:href="#e"/>
<use x="95.410156" xlink:href="#m"/>
<use x="159.033203" xlink:href="#aa"/>
</g>
</g>
<g clip-path="url(#a)">
<g transform="translate(719.36 562.1) scale(.1 -.1)">
<use xlink:href="#c"/>
<use x="63.623047" xlink:href="#e"/>
<use x="95.410156" xlink:href="#m"/>
<use x="159.033203" xlink:href="#ai"/>
</g>
</g>
<g clip-path="url(#a)">
<g transform="translate(767.25 562.1) scale(.1 -.1)">
<use xlink:href="#c"/>
<use x="63.623047" xlink:href="#e"/>
<use x="95.410156" xlink:href="#m"/>
<use x="159.033203" xlink:href="#z"/>
</g>
</g>
<g clip-path="url(#a)">
<g transform="translate(575.71 562.1) scale(.1 -.1)">
<use xlink:href="#c"/>
<use x="63.623047" xlink:href="#e"/>
<use x="95.410156" xlink:href="#m"/>
<use x="159.033203" xlink:href="#y"/>
</g>
</g>
<g clip-path="url(#a)">
<g transform="translate(623.59 562.1) scale(.1 -.1)">
<use xlink:href="#c"/>
<use x="63.623047" xlink:href="#e"/>
<use x="95.410156" xlink:href="#m"/>
<use x="159.033203" xlink:href="#ah"/>
</g>
</g>
<g clip-path="url(#a)">
<g transform="translate(671.48 562.1) scale(.1 -.1)">
<use xlink:href="#c"/>
<use x="63.623047" xlink:href="#e"/>
<use x="95.410156" xlink:href="#m"/>
<use x="159.033203" xlink:href="#ag"/>
</g>
</g>
<g clip-path="url(#a)">
<g transform="translate(48.973 562.1) scale(.1 -.1)">
<use xlink:href="#c"/>
<use x="63.623047" xlink:href="#e"/>
<use x="95.410156" xlink:href="#n"/>
<use x="159.033203" xlink:href="#aj"/>
</g>
</g>
<g clip-path="url(#a)">
<g transform="translate(120.8 460.54) scale(.1 -.1)">
<use xlink:href="#c"/>
<use x="63.623047" xlink:href="#e"/>
<use x="95.410156" xlink:href="#n"/>
<use x="159.033203" xlink:href="#c"/>
</g>
</g>
<g clip-path="url(#a)">
<g transform="translate(192.63 562.1) scale(.1 -.1)">
<use xlink:href="#c"/>
<use x="63.623047" xlink:href="#e"/>
<use x="95.410156" xlink:href="#n"/>
<use x="159.033203" xlink:href="#m"/>
</g>
</g>
<g clip-path="url(#a)">
<g transform="translate(96.858 562.1) scale(.1 -.1)">
<use xlink:href="#c"/>
<use x="63.623047" xlink:href="#e"/>
<use x="95.410156" xlink:href="#n"/>
<use x="159.033203" xlink:href="#n"/>
</g>
</g>
<g clip-path="url(#a)">
<g transform="translate(144.74 562.1) scale(.1 -.1)">
<use xlink:href="#c"/>
<use x="63.623047" xlink:href="#e"/>
<use x="95.410156" xlink:href="#n"/>
<use x="159.033203" xlink:href="#aa"/>
</g>
</g>
<g clip-path="url(#a)">
<g transform="translate(467.63 35.188) scale(.1 -.1)">
<use xlink:href="#c"/>
<use x="63.623047" xlink:href="#e"/>
<use x="95.410156" xlink:href="#n"/>
<use x="159.033203" xlink:href="#ai"/>
</g>
</g>
<g clip-path="url(#a)">
<g transform="translate(240.51 562.1) scale(.1 -.1)">
<use xlink:href="#c"/>
<use x="63.623047" xlink:href="#e"/>
<use x="95.410156" xlink:href="#n"/>
<use x="159.033203" xlink:href="#z"/>
</g>
</g>
<g clip-path="url(#a)">
<g transform="translate(479.94 562.1) scale(.1 -.1)">
<use xlink:href="#c"/>
<use x="63.623047" xlink:href="#e"/>
<use x="95.410156" xlink:href="#n"/>
<use x="159.033203" xlink:href="#y"/>
</g>
</g>
<g clip-path="url(#a)">
<g transform="translate(1246.1 562.1) scale(.1 -.1)">
<use xlink:href="#c"/>
<use x="63.623047" xlink:href="#e"/>
<use x="95.410156" xlink:href="#n"/>
<use x="159.033203" xlink:href="#ah"/>
</g>
</g>
<defs>
<clipPath id="a">
<rect width="1317.3" height="693.33"/>
</clipPath>
</defs>
</svg>
