<?xml version="1.0" encoding="utf-8" standalone="no"?>
<!DOCTYPE svg PUBLIC "-//W3C//DTD SVG 1.1//EN"
  "http://www.w3.org/Graphics/SVG/1.1/DTD/svg11.dtd">
<!-- Created with matplotlib (https://matplotlib.org/) -->
<svg height="426.666667pt" version="1.1" viewBox="0 0 810.666667 426.666667" width="810.666667pt" xmlns="http://www.w3.org/2000/svg" xmlns:xlink="http://www.w3.org/1999/xlink">
 <defs>
  <style type="text/css">
*{stroke-linecap:butt;stroke-linejoin:round;}
  </style>
 </defs>
 <g id="figure_1">
  <g id="patch_1">
   <path d="M 0 426.666667 
L 810.666667 426.666667 
L 810.666667 0 
L 0 0 
z
" style="fill:#ffffff;"/>
  </g>
  <g id="axes_1">
   <g id="LineCollection_1">
    <path clip-path="url(#p0dae6d54c8)" d="M 379.429484 20.498151 
L 172.198689 100.361078 
" style="fill:none;stroke:#000000;"/>
    <path clip-path="url(#p0dae6d54c8)" d="M 379.429484 20.498151 
L 528.035778 330.61099 
" style="fill:none;stroke:#000000;"/>
    <path clip-path="url(#p0dae6d54c8)" d="M 379.429484 20.498151 
L 438.053985 178.444849 
" style="fill:none;stroke:#000000;"/>
    <path clip-path="url(#p0dae6d54c8)" d="M 172.198689 100.361078 
L 37.226 330.61099 
" style="fill:none;stroke:#000000;"/>
    <path clip-path="url(#p0dae6d54c8)" d="M 172.198689 100.361078 
L 86.306978 330.61099 
" style="fill:none;stroke:#000000;"/>
    <path clip-path="url(#p0dae6d54c8)" d="M 172.198689 100.361078 
L 184.468933 255.053464 
" style="fill:none;stroke:#000000;"/>
    <path clip-path="url(#p0dae6d54c8)" d="M 172.198689 100.361078 
L 380.792844 178.444849 
" style="fill:none;stroke:#000000;"/>
    <path clip-path="url(#p0dae6d54c8)" d="M 528.035778 330.61099 
L 528.035778 406.168516 
" style="fill:none;stroke:#000000;"/>
    <path clip-path="url(#p0dae6d54c8)" d="M 438.053985 178.444849 
L 577.116756 330.61099 
" style="fill:none;stroke:#000000;"/>
    <path clip-path="url(#p0dae6d54c8)" d="M 438.053985 178.444849 
L 699.8192 255.053464 
" style="fill:none;stroke:#000000;"/>
    <path clip-path="url(#p0dae6d54c8)" d="M 438.053985 178.444849 
L 37.226 330.61099 
" style="fill:none;stroke:#000000;stroke-dasharray:3.7,1.6;stroke-dashoffset:0;"/>
    <path clip-path="url(#p0dae6d54c8)" d="M 577.116756 330.61099 
L 577.116756 406.168516 
" style="fill:none;stroke:#000000;"/>
    <path clip-path="url(#p0dae6d54c8)" d="M 699.8192 255.053464 
L 626.197734 330.61099 
" style="fill:none;stroke:#000000;"/>
    <path clip-path="url(#p0dae6d54c8)" d="M 699.8192 255.053464 
L 675.278711 330.61099 
" style="fill:none;stroke:#000000;"/>
    <path clip-path="url(#p0dae6d54c8)" d="M 699.8192 255.053464 
L 724.359689 330.61099 
" style="fill:none;stroke:#000000;"/>
    <path clip-path="url(#p0dae6d54c8)" d="M 699.8192 255.053464 
L 773.440667 330.61099 
" style="fill:none;stroke:#000000;"/>
    <path clip-path="url(#p0dae6d54c8)" d="M 626.197734 330.61099 
L 626.197734 406.168516 
" style="fill:none;stroke:#000000;"/>
    <path clip-path="url(#p0dae6d54c8)" d="M 675.278711 330.61099 
L 675.278711 406.168516 
" style="fill:none;stroke:#000000;"/>
    <path clip-path="url(#p0dae6d54c8)" d="M 724.359689 330.61099 
L 724.359689 406.168516 
" style="fill:none;stroke:#000000;"/>
    <path clip-path="url(#p0dae6d54c8)" d="M 37.226 330.61099 
L 37.226 406.168516 
" style="fill:none;stroke:#000000;"/>
    <path clip-path="url(#p0dae6d54c8)" d="M 86.306978 330.61099 
L 86.306978 406.168516 
" style="fill:none;stroke:#000000;"/>
    <path clip-path="url(#p0dae6d54c8)" d="M 184.468933 255.053464 
L 135.387955 330.61099 
" style="fill:none;stroke:#000000;"/>
    <path clip-path="url(#p0dae6d54c8)" d="M 184.468933 255.053464 
L 184.468933 330.61099 
" style="fill:none;stroke:#000000;"/>
    <path clip-path="url(#p0dae6d54c8)" d="M 184.468933 255.053464 
L 233.549911 330.61099 
" style="fill:none;stroke:#000000;"/>
    <path clip-path="url(#p0dae6d54c8)" d="M 380.792844 178.444849 
L 282.630889 330.61099 
" style="fill:none;stroke:#000000;"/>
    <path clip-path="url(#p0dae6d54c8)" d="M 380.792844 178.444849 
L 380.792844 255.053464 
" style="fill:none;stroke:#000000;"/>
    <path clip-path="url(#p0dae6d54c8)" d="M 380.792844 178.444849 
L 478.9548 330.61099 
" style="fill:none;stroke:#000000;"/>
    <path clip-path="url(#p0dae6d54c8)" d="M 282.630889 330.61099 
L 282.630889 406.168516 
" style="fill:none;stroke:#000000;"/>
    <path clip-path="url(#p0dae6d54c8)" d="M 380.792844 255.053464 
L 331.711867 330.61099 
" style="fill:none;stroke:#000000;"/>
    <path clip-path="url(#p0dae6d54c8)" d="M 380.792844 255.053464 
L 380.792844 330.61099 
" style="fill:none;stroke:#000000;"/>
    <path clip-path="url(#p0dae6d54c8)" d="M 380.792844 255.053464 
L 429.873822 330.61099 
" style="fill:none;stroke:#000000;"/>
    <path clip-path="url(#p0dae6d54c8)" d="M 478.9548 330.61099 
L 478.9548 406.168516 
" style="fill:none;stroke:#000000;"/>
    <path clip-path="url(#p0dae6d54c8)" d="M 331.711867 330.61099 
L 331.711867 406.168516 
" style="fill:none;stroke:#000000;"/>
    <path clip-path="url(#p0dae6d54c8)" d="M 380.792844 330.61099 
L 380.792844 406.168516 
" style="fill:none;stroke:#000000;"/>
    <path clip-path="url(#p0dae6d54c8)" d="M 429.873822 330.61099 
L 429.873822 406.168516 
" style="fill:none;stroke:#000000;"/>
    <path clip-path="url(#p0dae6d54c8)" d="M 135.387955 330.61099 
L 135.387955 406.168516 
" style="fill:none;stroke:#000000;"/>
    <path clip-path="url(#p0dae6d54c8)" d="M 184.468933 330.61099 
L 184.468933 406.168516 
" style="fill:none;stroke:#000000;"/>
    <path clip-path="url(#p0dae6d54c8)" d="M 233.549911 330.61099 
L 233.549911 406.168516 
" style="fill:none;stroke:#000000;"/>
    <path clip-path="url(#p0dae6d54c8)" d="M 379.429484 20.498151 
L 172.198689 100.361078 
" style="fill:none;stroke:#000000;"/>
    <path clip-path="url(#p0dae6d54c8)" d="M 379.429484 20.498151 
L 528.035778 330.61099 
" style="fill:none;stroke:#000000;"/>
    <path clip-path="url(#p0dae6d54c8)" d="M 379.429484 20.498151 
L 438.053985 178.444849 
" style="fill:none;stroke:#000000;"/>
    <path clip-path="url(#p0dae6d54c8)" d="M 773.440667 330.61099 
L 773.440667 406.168516 
" style="fill:none;stroke:#000000;"/>
   </g>
   <g id="text_1">
    <g id="patch_2">
     <path clip-path="url(#p0dae6d54c8)" d="M 275.26234 67.363082 
L 280.876138 65.199627 
Q 283.115592 64.336583 282.252548 62.097129 
L 279.468331 54.872557 
Q 278.605287 52.633103 276.365833 53.496147 
L 270.752034 55.659601 
Q 268.51258 56.522646 269.375625 58.7621 
L 272.159842 65.986672 
Q 273.022886 68.226126 275.26234 67.363082 
z
" style="fill:#ffffff;stroke:#ffffff;stroke-linejoin:miter;"/>
    </g>
    <g clip-path="url(#p0dae6d54c8)">
     <!-- H -->
     <defs>
      <path d="M 9.8125 72.90625 
L 19.671875 72.90625 
L 19.671875 43.015625 
L 55.515625 43.015625 
L 55.515625 72.90625 
L 65.375 72.90625 
L 65.375 0 
L 55.515625 0 
L 55.515625 34.71875 
L 19.671875 34.71875 
L 19.671875 0 
L 9.8125 0 
z
" id="DejaVuSans-72"/>
     </defs>
     <g transform="translate(273.801008 63.571173)rotate(-21.075743)scale(0.08 -0.08)">
      <use xlink:href="#DejaVuSans-72"/>
     </g>
    </g>
   </g>
   <g id="text_2">
    <g id="patch_3">
     <path clip-path="url(#p0dae6d54c8)" d="M 447.114049 176.254765 
L 449.040336 180.274556 
Q 450.077484 182.438886 452.241814 181.401738 
L 459.224032 178.055854 
Q 461.388362 177.018706 460.351213 174.854376 
L 458.424926 170.834584 
Q 457.387778 168.670254 455.223448 169.707403 
L 448.24123 173.053287 
Q 446.0769 174.090435 447.114049 176.254765 
z
" style="fill:#ffffff;stroke:#ffffff;stroke-linejoin:miter;"/>
    </g>
    <g clip-path="url(#p0dae6d54c8)">
     <!-- L -->
     <defs>
      <path d="M 9.8125 72.90625 
L 19.671875 72.90625 
L 19.671875 8.296875 
L 55.171875 8.296875 
L 55.171875 0 
L 9.8125 0 
z
" id="DejaVuSans-76"/>
     </defs>
     <g transform="translate(450.778755 174.498635)rotate(-295.603774)scale(0.08 -0.08)">
      <use xlink:href="#DejaVuSans-76"/>
     </g>
    </g>
   </g>
   <g id="text_3">
    <g id="patch_4">
     <path clip-path="url(#p0dae6d54c8)" d="M 401.815665 98.833576 
L 403.909142 104.473844 
Q 404.744271 106.723857 406.994284 105.888728 
L 414.252921 103.194566 
Q 416.502934 102.359437 415.667805 100.109424 
L 413.574327 94.469156 
Q 412.739198 92.219143 410.489185 93.054272 
L 403.230549 95.748434 
Q 400.980535 96.583563 401.815665 98.833576 
z
" style="fill:#ffffff;stroke:#ffffff;stroke-linejoin:miter;"/>
    </g>
    <g clip-path="url(#p0dae6d54c8)">
     <!-- H -->
     <g transform="translate(405.625452 97.419511)rotate(-290.363232)scale(0.08 -0.08)">
      <use xlink:href="#DejaVuSans-72"/>
     </g>
    </g>
   </g>
   <g id="text_4">
    <g id="patch_5">
     <path clip-path="url(#p0dae6d54c8)" d="M 108.738789 221.018067 
L 111.506317 216.296939 
Q 112.720035 214.226459 110.649554 213.012741 
L 103.970098 209.097238 
Q 101.899617 207.883521 100.6859 209.954002 
L 97.918371 214.675129 
Q 96.704653 216.745609 98.775134 217.959327 
L 105.454591 221.87483 
Q 107.525071 223.088547 108.738789 221.018067 
z
" style="fill:#ffffff;stroke:#ffffff;stroke-linejoin:miter;"/>
    </g>
    <g clip-path="url(#p0dae6d54c8)">
     <!-- A -->
     <defs>
      <path d="M 34.1875 63.1875 
L 20.796875 26.90625 
L 47.609375 26.90625 
z
M 28.609375 72.90625 
L 39.796875 72.90625 
L 67.578125 0 
L 57.328125 0 
L 50.6875 18.703125 
L 17.828125 18.703125 
L 11.1875 0 
L 0.78125 0 
z
" id="DejaVuSans-65"/>
     </defs>
     <g transform="translate(105.232991 218.962965)rotate(-59.621133)scale(0.08 -0.08)">
      <use xlink:href="#DejaVuSans-65"/>
     </g>
    </g>
   </g>
   <g id="text_5">
    <g id="patch_6">
     <path clip-path="url(#p0dae6d54c8)" d="M 134.324479 219.833431 
L 135.932663 215.522371 
Q 136.771488 213.273733 134.52285 212.434908 
L 127.26865 209.728824 
Q 125.020012 208.889999 124.181188 211.138637 
L 122.573003 215.449697 
Q 121.734178 217.698335 123.982816 218.53716 
L 131.237016 221.243244 
Q 133.485654 222.082069 134.324479 219.833431 
z
" style="fill:#ffffff;stroke:#ffffff;stroke-linejoin:miter;"/>
    </g>
    <g clip-path="url(#p0dae6d54c8)">
     <!-- F -->
     <defs>
      <path d="M 9.8125 72.90625 
L 51.703125 72.90625 
L 51.703125 64.59375 
L 19.671875 64.59375 
L 19.671875 43.109375 
L 48.578125 43.109375 
L 48.578125 34.8125 
L 19.671875 34.8125 
L 19.671875 0 
L 9.8125 0 
z
" id="DejaVuSans-70"/>
     </defs>
     <g transform="translate(130.517019 218.413109)rotate(-69.542629)scale(0.08 -0.08)">
      <use xlink:href="#DejaVuSans-70"/>
     </g>
    </g>
   </g>
   <g id="text_6">
    <g id="patch_7">
     <path clip-path="url(#p0dae6d54c8)" d="M 171.891485 175.798828 
L 172.272908 180.607474 
Q 172.462681 182.999959 174.855166 182.810187 
L 182.573424 182.197972 
Q 184.965909 182.0082 184.776137 179.615714 
L 184.394713 174.807068 
Q 184.204941 172.414583 181.812455 172.604355 
L 174.094198 173.21657 
Q 171.701713 173.406342 171.891485 175.798828 
z
" style="fill:#ffffff;stroke:#ffffff;stroke-linejoin:miter;"/>
    </g>
    <g clip-path="url(#p0dae6d54c8)">
     <!-- P -->
     <defs>
      <path d="M 19.671875 64.796875 
L 19.671875 37.40625 
L 32.078125 37.40625 
Q 38.96875 37.40625 42.71875 40.96875 
Q 46.484375 44.53125 46.484375 51.125 
Q 46.484375 57.671875 42.71875 61.234375 
Q 38.96875 64.796875 32.078125 64.796875 
z
M 9.8125 72.90625 
L 32.078125 72.90625 
Q 44.34375 72.90625 50.609375 67.359375 
Q 56.890625 61.8125 56.890625 51.125 
Q 56.890625 40.328125 50.609375 34.8125 
Q 44.34375 29.296875 32.078125 29.296875 
L 19.671875 29.296875 
L 19.671875 0 
L 9.8125 0 
z
" id="DejaVuSans-80"/>
     </defs>
     <g transform="translate(175.942511 175.477499)rotate(-274.535222)scale(0.08 -0.08)">
      <use xlink:href="#DejaVuSans-80"/>
     </g>
    </g>
   </g>
   <g id="text_7">
    <g id="patch_8">
     <path clip-path="url(#p0dae6d54c8)" d="M 271.734624 144.31694 
L 276.859808 146.235468 
Q 279.10749 147.076851 279.948873 144.829168 
L 282.663208 137.578052 
Q 283.504591 135.33037 281.256909 134.488987 
L 276.131725 132.570459 
Q 273.884043 131.729077 273.04266 133.976759 
L 270.328325 141.227875 
Q 269.486942 143.475558 271.734624 144.31694 
z
" style="fill:#ffffff;stroke:#ffffff;stroke-linejoin:miter;"/>
    </g>
    <g clip-path="url(#p0dae6d54c8)">
     <!-- A -->
     <g transform="translate(273.159278 140.511099)rotate(-339.477444)scale(0.08 -0.08)">
      <use xlink:href="#DejaVuSans-65"/>
     </g>
    </g>
   </g>
   <g id="text_8">
    <g id="patch_9">
     <path clip-path="url(#p0dae6d54c8)" d="M 521.764528 350.747253 
L 521.764528 386.032253 
Q 521.764528 388.432253 524.164528 388.432253 
L 531.907028 388.432253 
Q 534.307028 388.432253 534.307028 386.032253 
L 534.307028 350.747253 
Q 534.307028 348.347253 531.907028 348.347253 
L 524.164528 348.347253 
Q 521.764528 348.347253 521.764528 350.747253 
z
" style="fill:#ffffff;stroke:#ffffff;stroke-linejoin:miter;"/>
    </g>
    <g clip-path="url(#p0dae6d54c8)">
     <!-- Terminal -->
     <defs>
      <path d="M -0.296875 72.90625 
L 61.375 72.90625 
L 61.375 64.59375 
L 35.5 64.59375 
L 35.5 0 
L 25.59375 0 
L 25.59375 64.59375 
L -0.296875 64.59375 
z
" id="DejaVuSans-84"/>
      <path d="M 56.203125 29.59375 
L 56.203125 25.203125 
L 14.890625 25.203125 
Q 15.484375 15.921875 20.484375 11.0625 
Q 25.484375 6.203125 34.421875 6.203125 
Q 39.59375 6.203125 44.453125 7.46875 
Q 49.3125 8.734375 54.109375 11.28125 
L 54.109375 2.78125 
Q 49.265625 0.734375 44.1875 -0.34375 
Q 39.109375 -1.421875 33.890625 -1.421875 
Q 20.796875 -1.421875 13.15625 6.1875 
Q 5.515625 13.8125 5.515625 26.8125 
Q 5.515625 40.234375 12.765625 48.109375 
Q 20.015625 56 32.328125 56 
Q 43.359375 56 49.78125 48.890625 
Q 56.203125 41.796875 56.203125 29.59375 
z
M 47.21875 32.234375 
Q 47.125 39.59375 43.09375 43.984375 
Q 39.0625 48.390625 32.421875 48.390625 
Q 24.90625 48.390625 20.390625 44.140625 
Q 15.875 39.890625 15.1875 32.171875 
z
" id="DejaVuSans-101"/>
      <path d="M 41.109375 46.296875 
Q 39.59375 47.171875 37.8125 47.578125 
Q 36.03125 48 33.890625 48 
Q 26.265625 48 22.1875 43.046875 
Q 18.109375 38.09375 18.109375 28.8125 
L 18.109375 0 
L 9.078125 0 
L 9.078125 54.6875 
L 18.109375 54.6875 
L 18.109375 46.1875 
Q 20.953125 51.171875 25.484375 53.578125 
Q 30.03125 56 36.53125 56 
Q 37.453125 56 38.578125 55.875 
Q 39.703125 55.765625 41.0625 55.515625 
z
" id="DejaVuSans-114"/>
      <path d="M 52 44.1875 
Q 55.375 50.25 60.0625 53.125 
Q 64.75 56 71.09375 56 
Q 79.640625 56 84.28125 50.015625 
Q 88.921875 44.046875 88.921875 33.015625 
L 88.921875 0 
L 79.890625 0 
L 79.890625 32.71875 
Q 79.890625 40.578125 77.09375 44.375 
Q 74.3125 48.1875 68.609375 48.1875 
Q 61.625 48.1875 57.5625 43.546875 
Q 53.515625 38.921875 53.515625 30.90625 
L 53.515625 0 
L 44.484375 0 
L 44.484375 32.71875 
Q 44.484375 40.625 41.703125 44.40625 
Q 38.921875 48.1875 33.109375 48.1875 
Q 26.21875 48.1875 22.15625 43.53125 
Q 18.109375 38.875 18.109375 30.90625 
L 18.109375 0 
L 9.078125 0 
L 9.078125 54.6875 
L 18.109375 54.6875 
L 18.109375 46.1875 
Q 21.1875 51.21875 25.484375 53.609375 
Q 29.78125 56 35.6875 56 
Q 41.65625 56 45.828125 52.96875 
Q 50 49.953125 52 44.1875 
z
" id="DejaVuSans-109"/>
      <path d="M 9.421875 54.6875 
L 18.40625 54.6875 
L 18.40625 0 
L 9.421875 0 
z
M 9.421875 75.984375 
L 18.40625 75.984375 
L 18.40625 64.59375 
L 9.421875 64.59375 
z
" id="DejaVuSans-105"/>
      <path d="M 54.890625 33.015625 
L 54.890625 0 
L 45.90625 0 
L 45.90625 32.71875 
Q 45.90625 40.484375 42.875 44.328125 
Q 39.84375 48.1875 33.796875 48.1875 
Q 26.515625 48.1875 22.3125 43.546875 
Q 18.109375 38.921875 18.109375 30.90625 
L 18.109375 0 
L 9.078125 0 
L 9.078125 54.6875 
L 18.109375 54.6875 
L 18.109375 46.1875 
Q 21.34375 51.125 25.703125 53.5625 
Q 30.078125 56 35.796875 56 
Q 45.21875 56 50.046875 50.171875 
Q 54.890625 44.34375 54.890625 33.015625 
z
" id="DejaVuSans-110"/>
      <path d="M 34.28125 27.484375 
Q 23.390625 27.484375 19.1875 25 
Q 14.984375 22.515625 14.984375 16.5 
Q 14.984375 11.71875 18.140625 8.90625 
Q 21.296875 6.109375 26.703125 6.109375 
Q 34.1875 6.109375 38.703125 11.40625 
Q 43.21875 16.703125 43.21875 25.484375 
L 43.21875 27.484375 
z
M 52.203125 31.203125 
L 52.203125 0 
L 43.21875 0 
L 43.21875 8.296875 
Q 40.140625 3.328125 35.546875 0.953125 
Q 30.953125 -1.421875 24.3125 -1.421875 
Q 15.921875 -1.421875 10.953125 3.296875 
Q 6 8.015625 6 15.921875 
Q 6 25.140625 12.171875 29.828125 
Q 18.359375 34.515625 30.609375 34.515625 
L 43.21875 34.515625 
L 43.21875 35.40625 
Q 43.21875 41.609375 39.140625 45 
Q 35.0625 48.390625 27.6875 48.390625 
Q 23 48.390625 18.546875 47.265625 
Q 14.109375 46.140625 10.015625 43.890625 
L 10.015625 52.203125 
Q 14.9375 54.109375 19.578125 55.046875 
Q 24.21875 56 28.609375 56 
Q 40.484375 56 46.34375 49.84375 
Q 52.203125 43.703125 52.203125 31.203125 
z
" id="DejaVuSans-97"/>
      <path d="M 9.421875 75.984375 
L 18.40625 75.984375 
L 18.40625 0 
L 9.421875 0 
z
" id="DejaVuSans-108"/>
     </defs>
     <g transform="translate(525.828278 350.747253)rotate(-270)scale(0.08 -0.08)">
      <use xlink:href="#DejaVuSans-84"/>
      <use x="60.818359" xlink:href="#DejaVuSans-101"/>
      <use x="122.341797" xlink:href="#DejaVuSans-114"/>
      <use x="163.439453" xlink:href="#DejaVuSans-109"/>
      <use x="260.851562" xlink:href="#DejaVuSans-105"/>
      <use x="288.634766" xlink:href="#DejaVuSans-110"/>
      <use x="352.013672" xlink:href="#DejaVuSans-97"/>
      <use x="413.292969" xlink:href="#DejaVuSans-108"/>
     </g>
    </g>
   </g>
   <g id="text_9">
    <g id="patch_10">
     <path clip-path="url(#p0dae6d54c8)" d="M 501.404067 257.060298 
L 504.508113 260.456826 
Q 506.127175 262.228447 507.898795 260.609385 
L 513.614116 255.386223 
Q 515.385736 253.767161 513.766674 251.995541 
L 510.662628 248.599013 
Q 509.043566 246.827393 507.271946 248.446455 
L 501.556625 253.669616 
Q 499.785005 255.288678 501.404067 257.060298 
z
" style="fill:#ffffff;stroke:#ffffff;stroke-linejoin:miter;"/>
    </g>
    <g clip-path="url(#p0dae6d54c8)">
     <!-- F -->
     <g transform="translate(504.403826 254.318855)rotate(-312.423807)scale(0.08 -0.08)">
      <use xlink:href="#DejaVuSans-70"/>
     </g>
    </g>
   </g>
   <g id="text_10">
    <g id="patch_11">
     <path clip-path="url(#p0dae6d54c8)" d="M 564.737978 222.054685 
L 569.612272 223.481204 
Q 571.915655 224.155315 572.589767 221.851932 
L 574.764479 214.421123 
Q 575.438591 212.11774 573.135208 211.443628 
L 568.260913 210.017109 
Q 565.95753 209.342998 565.283419 211.646381 
L 563.108706 219.07719 
Q 562.434595 221.380574 564.737978 222.054685 
z
" style="fill:#ffffff;stroke:#ffffff;stroke-linejoin:miter;"/>
    </g>
    <g clip-path="url(#p0dae6d54c8)">
     <!-- S -->
     <defs>
      <path d="M 53.515625 70.515625 
L 53.515625 60.890625 
Q 47.90625 63.578125 42.921875 64.890625 
Q 37.9375 66.21875 33.296875 66.21875 
Q 25.25 66.21875 20.875 63.09375 
Q 16.5 59.96875 16.5 54.203125 
Q 16.5 49.359375 19.40625 46.890625 
Q 22.3125 44.4375 30.421875 42.921875 
L 36.375 41.703125 
Q 47.40625 39.59375 52.65625 34.296875 
Q 57.90625 29 57.90625 20.125 
Q 57.90625 9.515625 50.796875 4.046875 
Q 43.703125 -1.421875 29.984375 -1.421875 
Q 24.8125 -1.421875 18.96875 -0.25 
Q 13.140625 0.921875 6.890625 3.21875 
L 6.890625 13.375 
Q 12.890625 10.015625 18.65625 8.296875 
Q 24.421875 6.59375 29.984375 6.59375 
Q 38.421875 6.59375 43.015625 9.90625 
Q 47.609375 13.234375 47.609375 19.390625 
Q 47.609375 24.75 44.3125 27.78125 
Q 41.015625 30.8125 33.5 32.328125 
L 27.484375 33.5 
Q 16.453125 35.6875 11.515625 40.375 
Q 6.59375 45.0625 6.59375 53.421875 
Q 6.59375 63.09375 13.40625 68.65625 
Q 20.21875 74.21875 32.171875 74.21875 
Q 37.3125 74.21875 42.625 73.28125 
Q 47.953125 72.359375 53.515625 70.515625 
z
" id="DejaVuSans-83"/>
     </defs>
     <g transform="translate(565.879403 218.15453)rotate(-343.687276)scale(0.08 -0.08)">
      <use xlink:href="#DejaVuSans-83"/>
     </g>
    </g>
   </g>
   <g id="text_11">
    <g id="patch_12">
     <path clip-path="url(#p0dae6d54c8)" d="M 237.307638 261.362039 
L 242.42387 259.419766 
Q 244.667626 258.567969 243.81583 256.324213 
L 241.0679 249.085761 
Q 240.216104 246.842005 237.972347 247.693801 
L 232.856115 249.636074 
Q 230.612359 250.48787 231.464155 252.731626 
L 234.212085 259.970078 
Q 235.063881 262.213835 237.307638 261.362039 
z
" style="fill:#ffffff;stroke:#ffffff;stroke-linejoin:miter;"/>
    </g>
    <g clip-path="url(#p0dae6d54c8)">
     <!-- A -->
     <g transform="translate(235.865351 257.562845)rotate(-20.788241)scale(0.08 -0.08)">
      <use xlink:href="#DejaVuSans-65"/>
     </g>
    </g>
   </g>
   <g id="text_12">
    <g id="patch_13">
     <path clip-path="url(#p0dae6d54c8)" d="M 570.845506 350.747253 
L 570.845506 386.032253 
Q 570.845506 388.432253 573.245506 388.432253 
L 580.988006 388.432253 
Q 583.388006 388.432253 583.388006 386.032253 
L 583.388006 350.747253 
Q 583.388006 348.347253 580.988006 348.347253 
L 573.245506 348.347253 
Q 570.845506 348.347253 570.845506 350.747253 
z
" style="fill:#ffffff;stroke:#ffffff;stroke-linejoin:miter;"/>
    </g>
    <g clip-path="url(#p0dae6d54c8)">
     <!-- Terminal -->
     <g transform="translate(574.909256 350.747253)rotate(-270)scale(0.08 -0.08)">
      <use xlink:href="#DejaVuSans-84"/>
      <use x="60.818359" xlink:href="#DejaVuSans-101"/>
      <use x="122.341797" xlink:href="#DejaVuSans-114"/>
      <use x="163.439453" xlink:href="#DejaVuSans-109"/>
      <use x="260.851562" xlink:href="#DejaVuSans-105"/>
      <use x="288.634766" xlink:href="#DejaVuSans-110"/>
      <use x="352.013672" xlink:href="#DejaVuSans-97"/>
      <use x="413.292969" xlink:href="#DejaVuSans-108"/>
     </g>
    </g>
   </g>
   <g id="text_13">
    <g id="patch_14">
     <path clip-path="url(#p0dae6d54c8)" d="M 665.736213 299.019006 
L 669.263952 295.398497 
Q 670.938843 293.67956 669.219907 292.00467 
L 663.674547 286.601403 
Q 661.955611 284.926512 660.28072 286.645448 
L 656.752982 290.265957 
Q 655.078091 291.984893 656.797027 293.659784 
L 662.342387 299.063051 
Q 664.061323 300.737942 665.736213 299.019006 
z
" style="fill:#ffffff;stroke:#ffffff;stroke-linejoin:miter;"/>
    </g>
    <g clip-path="url(#p0dae6d54c8)">
     <!-- E -->
     <defs>
      <path d="M 9.8125 72.90625 
L 55.90625 72.90625 
L 55.90625 64.59375 
L 19.671875 64.59375 
L 19.671875 43.015625 
L 54.390625 43.015625 
L 54.390625 34.71875 
L 19.671875 34.71875 
L 19.671875 8.296875 
L 56.78125 8.296875 
L 56.78125 0 
L 9.8125 0 
z
" id="DejaVuSans-69"/>
     </defs>
     <g transform="translate(662.825661 296.183032)rotate(-45.743548)scale(0.08 -0.08)">
      <use xlink:href="#DejaVuSans-69"/>
     </g>
    </g>
   </g>
   <g id="text_14">
    <g id="patch_15">
     <path clip-path="url(#p0dae6d54c8)" d="M 692.73273 297.173347 
L 694.294256 292.365576 
Q 695.035633 290.082955 692.753012 289.341577 
L 685.389181 286.949863 
Q 683.106559 286.208486 682.365182 288.491107 
L 680.803656 293.298878 
Q 680.062279 295.581499 682.3449 296.322876 
L 689.708731 298.714591 
Q 691.991352 299.455968 692.73273 297.173347 
z
" style="fill:#ffffff;stroke:#ffffff;stroke-linejoin:miter;"/>
    </g>
    <g clip-path="url(#p0dae6d54c8)">
     <!-- E -->
     <g transform="translate(688.867729 295.918025)rotate(-72.006612)scale(0.08 -0.08)">
      <use xlink:href="#DejaVuSans-69"/>
     </g>
    </g>
   </g>
   <g id="text_15">
    <g id="patch_16">
     <path clip-path="url(#p0dae6d54c8)" d="M 705.262091 292.112942 
L 706.987724 297.425981 
Q 707.729102 299.708602 710.011723 298.967225 
L 717.375554 296.57551 
Q 719.658175 295.834133 718.916798 293.551512 
L 717.191165 288.238473 
Q 716.449788 285.955852 714.167166 286.697229 
L 706.803335 289.088943 
Q 704.520714 289.830321 705.262091 292.112942 
z
" style="fill:#ffffff;stroke:#ffffff;stroke-linejoin:miter;"/>
    </g>
    <g clip-path="url(#p0dae6d54c8)">
     <!-- C -->
     <defs>
      <path d="M 64.40625 67.28125 
L 64.40625 56.890625 
Q 59.421875 61.53125 53.78125 63.8125 
Q 48.140625 66.109375 41.796875 66.109375 
Q 29.296875 66.109375 22.65625 58.46875 
Q 16.015625 50.828125 16.015625 36.375 
Q 16.015625 21.96875 22.65625 14.328125 
Q 29.296875 6.6875 41.796875 6.6875 
Q 48.140625 6.6875 53.78125 8.984375 
Q 59.421875 11.28125 64.40625 15.921875 
L 64.40625 5.609375 
Q 59.234375 2.09375 53.4375 0.328125 
Q 47.65625 -1.421875 41.21875 -1.421875 
Q 24.65625 -1.421875 15.125 8.703125 
Q 5.609375 18.84375 5.609375 36.375 
Q 5.609375 53.953125 15.125 64.078125 
Q 24.65625 74.21875 41.21875 74.21875 
Q 47.75 74.21875 53.53125 72.484375 
Q 59.328125 70.75 64.40625 67.28125 
z
" id="DejaVuSans-67"/>
     </defs>
     <g transform="translate(709.127092 290.85762)rotate(-287.993388)scale(0.08 -0.08)">
      <use xlink:href="#DejaVuSans-67"/>
     </g>
    </g>
   </g>
   <g id="text_16">
    <g id="patch_17">
     <path clip-path="url(#p0dae6d54c8)" d="M 730.0953 295.112007 
L 734.181336 299.305495 
Q 735.856226 301.024431 737.575162 299.34954 
L 743.120522 293.946273 
Q 744.839458 292.271383 743.164567 290.552447 
L 739.078532 286.358959 
Q 737.403641 284.640023 735.684705 286.314913 
L 730.139346 291.71818 
Q 728.420409 293.393071 730.0953 295.112007 
z
" style="fill:#ffffff;stroke:#ffffff;stroke-linejoin:miter;"/>
    </g>
    <g clip-path="url(#p0dae6d54c8)">
     <!-- U -->
     <defs>
      <path d="M 8.6875 72.90625 
L 18.609375 72.90625 
L 18.609375 28.609375 
Q 18.609375 16.890625 22.84375 11.734375 
Q 27.09375 6.59375 36.625 6.59375 
Q 46.09375 6.59375 50.34375 11.734375 
Q 54.59375 16.890625 54.59375 28.609375 
L 54.59375 72.90625 
L 64.5 72.90625 
L 64.5 27.390625 
Q 64.5 13.140625 57.4375 5.859375 
Q 50.390625 -1.421875 36.625 -1.421875 
Q 22.796875 -1.421875 15.734375 5.859375 
Q 8.6875 13.140625 8.6875 27.390625 
z
" id="DejaVuSans-85"/>
     </defs>
     <g transform="translate(733.005853 292.276033)rotate(-314.256452)scale(0.08 -0.08)">
      <use xlink:href="#DejaVuSans-85"/>
     </g>
    </g>
   </g>
   <g id="text_17">
    <g id="patch_18">
     <path clip-path="url(#p0dae6d54c8)" d="M 619.926484 350.747253 
L 619.926484 386.032253 
Q 619.926484 388.432253 622.326484 388.432253 
L 630.068984 388.432253 
Q 632.468984 388.432253 632.468984 386.032253 
L 632.468984 350.747253 
Q 632.468984 348.347253 630.068984 348.347253 
L 622.326484 348.347253 
Q 619.926484 348.347253 619.926484 350.747253 
z
" style="fill:#ffffff;stroke:#ffffff;stroke-linejoin:miter;"/>
    </g>
    <g clip-path="url(#p0dae6d54c8)">
     <!-- Terminal -->
     <g transform="translate(623.990234 350.747253)rotate(-270)scale(0.08 -0.08)">
      <use xlink:href="#DejaVuSans-84"/>
      <use x="60.818359" xlink:href="#DejaVuSans-101"/>
      <use x="122.341797" xlink:href="#DejaVuSans-114"/>
      <use x="163.439453" xlink:href="#DejaVuSans-109"/>
      <use x="260.851562" xlink:href="#DejaVuSans-105"/>
      <use x="288.634766" xlink:href="#DejaVuSans-110"/>
      <use x="352.013672" xlink:href="#DejaVuSans-97"/>
      <use x="413.292969" xlink:href="#DejaVuSans-108"/>
     </g>
    </g>
   </g>
   <g id="text_18">
    <g id="patch_19">
     <path clip-path="url(#p0dae6d54c8)" d="M 669.007461 350.747253 
L 669.007461 386.032253 
Q 669.007461 388.432253 671.407461 388.432253 
L 679.149961 388.432253 
Q 681.549961 388.432253 681.549961 386.032253 
L 681.549961 350.747253 
Q 681.549961 348.347253 679.149961 348.347253 
L 671.407461 348.347253 
Q 669.007461 348.347253 669.007461 350.747253 
z
" style="fill:#ffffff;stroke:#ffffff;stroke-linejoin:miter;"/>
    </g>
    <g clip-path="url(#p0dae6d54c8)">
     <!-- Terminal -->
     <g transform="translate(673.071211 350.747253)rotate(-270)scale(0.08 -0.08)">
      <use xlink:href="#DejaVuSans-84"/>
      <use x="60.818359" xlink:href="#DejaVuSans-101"/>
      <use x="122.341797" xlink:href="#DejaVuSans-114"/>
      <use x="163.439453" xlink:href="#DejaVuSans-109"/>
      <use x="260.851562" xlink:href="#DejaVuSans-105"/>
      <use x="288.634766" xlink:href="#DejaVuSans-110"/>
      <use x="352.013672" xlink:href="#DejaVuSans-97"/>
      <use x="413.292969" xlink:href="#DejaVuSans-108"/>
     </g>
    </g>
   </g>
   <g id="text_19">
    <g id="patch_20">
     <path clip-path="url(#p0dae6d54c8)" d="M 718.088439 350.747253 
L 718.088439 386.032253 
Q 718.088439 388.432253 720.488439 388.432253 
L 728.230939 388.432253 
Q 730.630939 388.432253 730.630939 386.032253 
L 730.630939 350.747253 
Q 730.630939 348.347253 728.230939 348.347253 
L 720.488439 348.347253 
Q 718.088439 348.347253 718.088439 350.747253 
z
" style="fill:#ffffff;stroke:#ffffff;stroke-linejoin:miter;"/>
    </g>
    <g clip-path="url(#p0dae6d54c8)">
     <!-- Terminal -->
     <g transform="translate(722.152189 350.747253)rotate(-270)scale(0.08 -0.08)">
      <use xlink:href="#DejaVuSans-84"/>
      <use x="60.818359" xlink:href="#DejaVuSans-101"/>
      <use x="122.341797" xlink:href="#DejaVuSans-114"/>
      <use x="163.439453" xlink:href="#DejaVuSans-109"/>
      <use x="260.851562" xlink:href="#DejaVuSans-105"/>
      <use x="288.634766" xlink:href="#DejaVuSans-110"/>
      <use x="352.013672" xlink:href="#DejaVuSans-97"/>
      <use x="413.292969" xlink:href="#DejaVuSans-108"/>
     </g>
    </g>
   </g>
   <g id="text_20">
    <g id="patch_21">
     <path clip-path="url(#p0dae6d54c8)" d="M 30.95475 350.747253 
L 30.95475 386.032253 
Q 30.95475 388.432253 33.35475 388.432253 
L 41.09725 388.432253 
Q 43.49725 388.432253 43.49725 386.032253 
L 43.49725 350.747253 
Q 43.49725 348.347253 41.09725 348.347253 
L 33.35475 348.347253 
Q 30.95475 348.347253 30.95475 350.747253 
z
" style="fill:#ffffff;stroke:#ffffff;stroke-linejoin:miter;"/>
    </g>
    <g clip-path="url(#p0dae6d54c8)">
     <!-- Terminal -->
     <g transform="translate(35.0185 350.747253)rotate(-270)scale(0.08 -0.08)">
      <use xlink:href="#DejaVuSans-84"/>
      <use x="60.818359" xlink:href="#DejaVuSans-101"/>
      <use x="122.341797" xlink:href="#DejaVuSans-114"/>
      <use x="163.439453" xlink:href="#DejaVuSans-109"/>
      <use x="260.851562" xlink:href="#DejaVuSans-105"/>
      <use x="288.634766" xlink:href="#DejaVuSans-110"/>
      <use x="352.013672" xlink:href="#DejaVuSans-97"/>
      <use x="413.292969" xlink:href="#DejaVuSans-108"/>
     </g>
    </g>
   </g>
   <g id="text_21">
    <g id="patch_22">
     <path clip-path="url(#p0dae6d54c8)" d="M 80.035728 350.747253 
L 80.035728 386.032253 
Q 80.035728 388.432253 82.435728 388.432253 
L 90.178228 388.432253 
Q 92.578228 388.432253 92.578228 386.032253 
L 92.578228 350.747253 
Q 92.578228 348.347253 90.178228 348.347253 
L 82.435728 348.347253 
Q 80.035728 348.347253 80.035728 350.747253 
z
" style="fill:#ffffff;stroke:#ffffff;stroke-linejoin:miter;"/>
    </g>
    <g clip-path="url(#p0dae6d54c8)">
     <!-- Terminal -->
     <g transform="translate(84.099478 350.747253)rotate(-270)scale(0.08 -0.08)">
      <use xlink:href="#DejaVuSans-84"/>
      <use x="60.818359" xlink:href="#DejaVuSans-101"/>
      <use x="122.341797" xlink:href="#DejaVuSans-114"/>
      <use x="163.439453" xlink:href="#DejaVuSans-109"/>
      <use x="260.851562" xlink:href="#DejaVuSans-105"/>
      <use x="288.634766" xlink:href="#DejaVuSans-110"/>
      <use x="352.013672" xlink:href="#DejaVuSans-97"/>
      <use x="413.292969" xlink:href="#DejaVuSans-108"/>
     </g>
    </g>
   </g>
   <g id="text_22">
    <g id="patch_23">
     <path clip-path="url(#p0dae6d54c8)" d="M 163.665997 298.590771 
L 166.709069 293.906125 
Q 168.016452 291.893478 166.003805 290.586094 
L 159.510922 286.36842 
Q 157.498275 285.061036 156.190892 287.073683 
L 153.14782 291.758329 
Q 151.840436 293.770976 153.853083 295.078359 
L 160.345966 299.296034 
Q 162.358613 300.603417 163.665997 298.590771 
z
" style="fill:#ffffff;stroke:#ffffff;stroke-linejoin:miter;"/>
    </g>
    <g clip-path="url(#p0dae6d54c8)">
     <!-- C -->
     <g transform="translate(160.258124 296.37707)rotate(-56.992882)scale(0.08 -0.08)">
      <use xlink:href="#DejaVuSans-67"/>
     </g>
    </g>
   </g>
   <g id="text_23">
    <g id="patch_24">
     <path clip-path="url(#p0dae6d54c8)" d="M 178.197683 289.839727 
L 178.197683 295.824727 
Q 178.197683 298.224727 180.597683 298.224727 
L 188.340183 298.224727 
Q 190.740183 298.224727 190.740183 295.824727 
L 190.740183 289.839727 
Q 190.740183 287.439727 188.340183 287.439727 
L 180.597683 287.439727 
Q 178.197683 287.439727 178.197683 289.839727 
z
" style="fill:#ffffff;stroke:#ffffff;stroke-linejoin:miter;"/>
    </g>
    <g clip-path="url(#p0dae6d54c8)">
     <!-- N -->
     <defs>
      <path d="M 9.8125 72.90625 
L 23.09375 72.90625 
L 55.421875 11.921875 
L 55.421875 72.90625 
L 64.984375 72.90625 
L 64.984375 0 
L 51.703125 0 
L 19.390625 60.984375 
L 19.390625 0 
L 9.8125 0 
z
" id="DejaVuSans-78"/>
     </defs>
     <g transform="translate(182.261433 289.839727)rotate(-270)scale(0.08 -0.08)">
      <use xlink:href="#DejaVuSans-78"/>
     </g>
    </g>
   </g>
   <g id="text_24">
    <g id="patch_25">
     <path clip-path="url(#p0dae6d54c8)" d="M 202.228798 293.906125 
L 205.27187 298.590771 
Q 206.579253 300.603417 208.5919 299.296034 
L 215.084783 295.078359 
Q 217.09743 293.770976 215.790046 291.758329 
L 212.746975 287.073683 
Q 211.439591 285.061036 209.426944 286.36842 
L 202.934061 290.586094 
Q 200.921414 291.893478 202.228798 293.906125 
z
" style="fill:#ffffff;stroke:#ffffff;stroke-linejoin:miter;"/>
    </g>
    <g clip-path="url(#p0dae6d54c8)">
     <!-- C -->
     <g transform="translate(205.63667 291.692425)rotate(-303.007118)scale(0.08 -0.08)">
      <use xlink:href="#DejaVuSans-67"/>
     </g>
    </g>
   </g>
   <g id="text_25">
    <g id="patch_26">
     <path clip-path="url(#p0dae6d54c8)" d="M 335.611601 260.051406 
L 338.35186 255.803583 
Q 339.652874 253.786812 337.636103 252.485799 
L 331.129916 248.288676 
Q 329.113145 246.987662 327.812132 249.004433 
L 325.071873 253.252257 
Q 323.77086 255.269027 325.78763 256.570041 
L 332.293817 260.767164 
Q 334.310588 262.068177 335.611601 260.051406 
z
" style="fill:#ffffff;stroke:#ffffff;stroke-linejoin:miter;"/>
    </g>
    <g clip-path="url(#p0dae6d54c8)">
     <!-- E -->
     <g transform="translate(332.196746 257.848493)rotate(-57.17405)scale(0.08 -0.08)">
      <use xlink:href="#DejaVuSans-69"/>
     </g>
    </g>
   </g>
   <g id="text_26">
    <g id="patch_27">
     <path clip-path="url(#p0dae6d54c8)" d="M 374.521594 214.221657 
L 374.521594 219.276657 
Q 374.521594 221.676657 376.921594 221.676657 
L 384.664094 221.676657 
Q 387.064094 221.676657 387.064094 219.276657 
L 387.064094 214.221657 
Q 387.064094 211.821657 384.664094 211.821657 
L 376.921594 211.821657 
Q 374.521594 211.821657 374.521594 214.221657 
z
" style="fill:#ffffff;stroke:#ffffff;stroke-linejoin:miter;"/>
    </g>
    <g clip-path="url(#p0dae6d54c8)">
     <!-- E -->
     <g transform="translate(378.585344 214.221657)rotate(-270)scale(0.08 -0.08)">
      <use xlink:href="#DejaVuSans-69"/>
     </g>
    </g>
   </g>
   <g id="text_27">
    <g id="patch_28">
     <path clip-path="url(#p0dae6d54c8)" d="M 423.089836 255.580372 
L 426.11808 260.274616 
Q 427.419093 262.291387 429.435864 260.990374 
L 435.942051 256.793251 
Q 437.958822 255.492238 436.657808 253.475467 
L 433.629564 248.781223 
Q 432.328551 246.764452 430.31178 248.065465 
L 423.805594 252.262588 
Q 421.788823 253.563602 423.089836 255.580372 
z
" style="fill:#ffffff;stroke:#ffffff;stroke-linejoin:miter;"/>
    </g>
    <g clip-path="url(#p0dae6d54c8)">
     <!-- C -->
     <g transform="translate(426.504691 253.377459)rotate(-302.82595)scale(0.08 -0.08)">
      <use xlink:href="#DejaVuSans-67"/>
     </g>
    </g>
   </g>
   <g id="text_28">
    <g id="patch_29">
     <path clip-path="url(#p0dae6d54c8)" d="M 276.359639 350.747253 
L 276.359639 386.032253 
Q 276.359639 388.432253 278.759639 388.432253 
L 286.502139 388.432253 
Q 288.902139 388.432253 288.902139 386.032253 
L 288.902139 350.747253 
Q 288.902139 348.347253 286.502139 348.347253 
L 278.759639 348.347253 
Q 276.359639 348.347253 276.359639 350.747253 
z
" style="fill:#ffffff;stroke:#ffffff;stroke-linejoin:miter;"/>
    </g>
    <g clip-path="url(#p0dae6d54c8)">
     <!-- Terminal -->
     <g transform="translate(280.423389 350.747253)rotate(-270)scale(0.08 -0.08)">
      <use xlink:href="#DejaVuSans-84"/>
      <use x="60.818359" xlink:href="#DejaVuSans-101"/>
      <use x="122.341797" xlink:href="#DejaVuSans-114"/>
      <use x="163.439453" xlink:href="#DejaVuSans-109"/>
      <use x="260.851562" xlink:href="#DejaVuSans-105"/>
      <use x="288.634766" xlink:href="#DejaVuSans-110"/>
      <use x="352.013672" xlink:href="#DejaVuSans-97"/>
      <use x="413.292969" xlink:href="#DejaVuSans-108"/>
     </g>
    </g>
   </g>
   <g id="text_29">
    <g id="patch_30">
     <path clip-path="url(#p0dae6d54c8)" d="M 359.989908 298.590771 
L 363.03298 293.906125 
Q 364.340364 291.893478 362.327717 290.586094 
L 355.834834 286.36842 
Q 353.822187 285.061036 352.514803 287.073683 
L 349.471731 291.758329 
Q 348.164347 293.770976 350.176994 295.078359 
L 356.669877 299.296034 
Q 358.682524 300.603417 359.989908 298.590771 
z
" style="fill:#ffffff;stroke:#ffffff;stroke-linejoin:miter;"/>
    </g>
    <g clip-path="url(#p0dae6d54c8)">
     <!-- C -->
     <g transform="translate(356.582035 296.37707)rotate(-56.992882)scale(0.08 -0.08)">
      <use xlink:href="#DejaVuSans-67"/>
     </g>
    </g>
   </g>
   <g id="text_30">
    <g id="patch_31">
     <path clip-path="url(#p0dae6d54c8)" d="M 374.521594 289.839727 
L 374.521594 295.824727 
Q 374.521594 298.224727 376.921594 298.224727 
L 384.664094 298.224727 
Q 387.064094 298.224727 387.064094 295.824727 
L 387.064094 289.839727 
Q 387.064094 287.439727 384.664094 287.439727 
L 376.921594 287.439727 
Q 374.521594 287.439727 374.521594 289.839727 
z
" style="fill:#ffffff;stroke:#ffffff;stroke-linejoin:miter;"/>
    </g>
    <g clip-path="url(#p0dae6d54c8)">
     <!-- N -->
     <g transform="translate(378.585344 289.839727)rotate(-270)scale(0.08 -0.08)">
      <use xlink:href="#DejaVuSans-78"/>
     </g>
    </g>
   </g>
   <g id="text_31">
    <g id="patch_32">
     <path clip-path="url(#p0dae6d54c8)" d="M 398.552709 293.906125 
L 401.595781 298.590771 
Q 402.903165 300.603417 404.915812 299.296034 
L 411.408694 295.078359 
Q 413.421341 293.770976 412.113958 291.758329 
L 409.070886 287.073683 
Q 407.763502 285.061036 405.750855 286.36842 
L 399.257972 290.586094 
Q 397.245325 291.893478 398.552709 293.906125 
z
" style="fill:#ffffff;stroke:#ffffff;stroke-linejoin:miter;"/>
    </g>
    <g clip-path="url(#p0dae6d54c8)">
     <!-- C -->
     <g transform="translate(401.960582 291.692425)rotate(-303.007118)scale(0.08 -0.08)">
      <use xlink:href="#DejaVuSans-67"/>
     </g>
    </g>
   </g>
   <g id="text_32">
    <g id="patch_33">
     <path clip-path="url(#p0dae6d54c8)" d="M 472.68355 350.747253 
L 472.68355 386.032253 
Q 472.68355 388.432253 475.08355 388.432253 
L 482.82605 388.432253 
Q 485.22605 388.432253 485.22605 386.032253 
L 485.22605 350.747253 
Q 485.22605 348.347253 482.82605 348.347253 
L 475.08355 348.347253 
Q 472.68355 348.347253 472.68355 350.747253 
z
" style="fill:#ffffff;stroke:#ffffff;stroke-linejoin:miter;"/>
    </g>
    <g clip-path="url(#p0dae6d54c8)">
     <!-- Terminal -->
     <g transform="translate(476.7473 350.747253)rotate(-270)scale(0.08 -0.08)">
      <use xlink:href="#DejaVuSans-84"/>
      <use x="60.818359" xlink:href="#DejaVuSans-101"/>
      <use x="122.341797" xlink:href="#DejaVuSans-114"/>
      <use x="163.439453" xlink:href="#DejaVuSans-109"/>
      <use x="260.851562" xlink:href="#DejaVuSans-105"/>
      <use x="288.634766" xlink:href="#DejaVuSans-110"/>
      <use x="352.013672" xlink:href="#DejaVuSans-97"/>
      <use x="413.292969" xlink:href="#DejaVuSans-108"/>
     </g>
    </g>
   </g>
   <g id="text_33">
    <g id="patch_34">
     <path clip-path="url(#p0dae6d54c8)" d="M 325.440617 350.747253 
L 325.440617 386.032253 
Q 325.440617 388.432253 327.840617 388.432253 
L 335.583117 388.432253 
Q 337.983117 388.432253 337.983117 386.032253 
L 337.983117 350.747253 
Q 337.983117 348.347253 335.583117 348.347253 
L 327.840617 348.347253 
Q 325.440617 348.347253 325.440617 350.747253 
z
" style="fill:#ffffff;stroke:#ffffff;stroke-linejoin:miter;"/>
    </g>
    <g clip-path="url(#p0dae6d54c8)">
     <!-- Terminal -->
     <g transform="translate(329.504367 350.747253)rotate(-270)scale(0.08 -0.08)">
      <use xlink:href="#DejaVuSans-84"/>
      <use x="60.818359" xlink:href="#DejaVuSans-101"/>
      <use x="122.341797" xlink:href="#DejaVuSans-114"/>
      <use x="163.439453" xlink:href="#DejaVuSans-109"/>
      <use x="260.851562" xlink:href="#DejaVuSans-105"/>
      <use x="288.634766" xlink:href="#DejaVuSans-110"/>
      <use x="352.013672" xlink:href="#DejaVuSans-97"/>
      <use x="413.292969" xlink:href="#DejaVuSans-108"/>
     </g>
    </g>
   </g>
   <g id="text_34">
    <g id="patch_35">
     <path clip-path="url(#p0dae6d54c8)" d="M 374.521594 350.747253 
L 374.521594 386.032253 
Q 374.521594 388.432253 376.921594 388.432253 
L 384.664094 388.432253 
Q 387.064094 388.432253 387.064094 386.032253 
L 387.064094 350.747253 
Q 387.064094 348.347253 384.664094 348.347253 
L 376.921594 348.347253 
Q 374.521594 348.347253 374.521594 350.747253 
z
" style="fill:#ffffff;stroke:#ffffff;stroke-linejoin:miter;"/>
    </g>
    <g clip-path="url(#p0dae6d54c8)">
     <!-- Terminal -->
     <g transform="translate(378.585344 350.747253)rotate(-270)scale(0.08 -0.08)">
      <use xlink:href="#DejaVuSans-84"/>
      <use x="60.818359" xlink:href="#DejaVuSans-101"/>
      <use x="122.341797" xlink:href="#DejaVuSans-114"/>
      <use x="163.439453" xlink:href="#DejaVuSans-109"/>
      <use x="260.851562" xlink:href="#DejaVuSans-105"/>
      <use x="288.634766" xlink:href="#DejaVuSans-110"/>
      <use x="352.013672" xlink:href="#DejaVuSans-97"/>
      <use x="413.292969" xlink:href="#DejaVuSans-108"/>
     </g>
    </g>
   </g>
   <g id="text_35">
    <g id="patch_36">
     <path clip-path="url(#p0dae6d54c8)" d="M 423.602572 350.747253 
L 423.602572 386.032253 
Q 423.602572 388.432253 426.002572 388.432253 
L 433.745072 388.432253 
Q 436.145072 388.432253 436.145072 386.032253 
L 436.145072 350.747253 
Q 436.145072 348.347253 433.745072 348.347253 
L 426.002572 348.347253 
Q 423.602572 348.347253 423.602572 350.747253 
z
" style="fill:#ffffff;stroke:#ffffff;stroke-linejoin:miter;"/>
    </g>
    <g clip-path="url(#p0dae6d54c8)">
     <!-- Terminal -->
     <g transform="translate(427.666322 350.747253)rotate(-270)scale(0.08 -0.08)">
      <use xlink:href="#DejaVuSans-84"/>
      <use x="60.818359" xlink:href="#DejaVuSans-101"/>
      <use x="122.341797" xlink:href="#DejaVuSans-114"/>
      <use x="163.439453" xlink:href="#DejaVuSans-109"/>
      <use x="260.851562" xlink:href="#DejaVuSans-105"/>
      <use x="288.634766" xlink:href="#DejaVuSans-110"/>
      <use x="352.013672" xlink:href="#DejaVuSans-97"/>
      <use x="413.292969" xlink:href="#DejaVuSans-108"/>
     </g>
    </g>
   </g>
   <g id="text_36">
    <g id="patch_37">
     <path clip-path="url(#p0dae6d54c8)" d="M 129.116705 350.747253 
L 129.116705 386.032253 
Q 129.116705 388.432253 131.516705 388.432253 
L 139.259205 388.432253 
Q 141.659205 388.432253 141.659205 386.032253 
L 141.659205 350.747253 
Q 141.659205 348.347253 139.259205 348.347253 
L 131.516705 348.347253 
Q 129.116705 348.347253 129.116705 350.747253 
z
" style="fill:#ffffff;stroke:#ffffff;stroke-linejoin:miter;"/>
    </g>
    <g clip-path="url(#p0dae6d54c8)">
     <!-- Terminal -->
     <g transform="translate(133.180455 350.747253)rotate(-270)scale(0.08 -0.08)">
      <use xlink:href="#DejaVuSans-84"/>
      <use x="60.818359" xlink:href="#DejaVuSans-101"/>
      <use x="122.341797" xlink:href="#DejaVuSans-114"/>
      <use x="163.439453" xlink:href="#DejaVuSans-109"/>
      <use x="260.851562" xlink:href="#DejaVuSans-105"/>
      <use x="288.634766" xlink:href="#DejaVuSans-110"/>
      <use x="352.013672" xlink:href="#DejaVuSans-97"/>
      <use x="413.292969" xlink:href="#DejaVuSans-108"/>
     </g>
    </g>
   </g>
   <g id="text_37">
    <g id="patch_38">
     <path clip-path="url(#p0dae6d54c8)" d="M 178.197683 350.747253 
L 178.197683 386.032253 
Q 178.197683 388.432253 180.597683 388.432253 
L 188.340183 388.432253 
Q 190.740183 388.432253 190.740183 386.032253 
L 190.740183 350.747253 
Q 190.740183 348.347253 188.340183 348.347253 
L 180.597683 348.347253 
Q 178.197683 348.347253 178.197683 350.747253 
z
" style="fill:#ffffff;stroke:#ffffff;stroke-linejoin:miter;"/>
    </g>
    <g clip-path="url(#p0dae6d54c8)">
     <!-- Terminal -->
     <g transform="translate(182.261433 350.747253)rotate(-270)scale(0.08 -0.08)">
      <use xlink:href="#DejaVuSans-84"/>
      <use x="60.818359" xlink:href="#DejaVuSans-101"/>
      <use x="122.341797" xlink:href="#DejaVuSans-114"/>
      <use x="163.439453" xlink:href="#DejaVuSans-109"/>
      <use x="260.851562" xlink:href="#DejaVuSans-105"/>
      <use x="288.634766" xlink:href="#DejaVuSans-110"/>
      <use x="352.013672" xlink:href="#DejaVuSans-97"/>
      <use x="413.292969" xlink:href="#DejaVuSans-108"/>
     </g>
    </g>
   </g>
   <g id="text_38">
    <g id="patch_39">
     <path clip-path="url(#p0dae6d54c8)" d="M 227.278661 350.747253 
L 227.278661 386.032253 
Q 227.278661 388.432253 229.678661 388.432253 
L 237.421161 388.432253 
Q 239.821161 388.432253 239.821161 386.032253 
L 239.821161 350.747253 
Q 239.821161 348.347253 237.421161 348.347253 
L 229.678661 348.347253 
Q 227.278661 348.347253 227.278661 350.747253 
z
" style="fill:#ffffff;stroke:#ffffff;stroke-linejoin:miter;"/>
    </g>
    <g clip-path="url(#p0dae6d54c8)">
     <!-- Terminal -->
     <g transform="translate(231.342411 350.747253)rotate(-270)scale(0.08 -0.08)">
      <use xlink:href="#DejaVuSans-84"/>
      <use x="60.818359" xlink:href="#DejaVuSans-101"/>
      <use x="122.341797" xlink:href="#DejaVuSans-114"/>
      <use x="163.439453" xlink:href="#DejaVuSans-109"/>
      <use x="260.851562" xlink:href="#DejaVuSans-105"/>
      <use x="288.634766" xlink:href="#DejaVuSans-110"/>
      <use x="352.013672" xlink:href="#DejaVuSans-97"/>
      <use x="413.292969" xlink:href="#DejaVuSans-108"/>
     </g>
    </g>
   </g>
   <g id="text_39">
    <g id="patch_40">
     <path clip-path="url(#p0dae6d54c8)" d="M 273.435202 68.067227 
L 282.703276 64.495482 
Q 284.94273 63.632438 284.079686 61.392984 
L 281.295469 54.168412 
Q 280.432425 51.928958 278.192971 52.792002 
L 268.924897 56.363747 
Q 266.685442 57.226791 267.548487 59.466245 
L 270.332704 66.690817 
Q 271.195748 68.930271 273.435202 68.067227 
z
" style="fill:#ffffff;stroke:#ffffff;stroke-linejoin:miter;"/>
    </g>
    <g clip-path="url(#p0dae6d54c8)">
     <!-- LA -->
     <g transform="translate(271.97387 64.275318)rotate(-21.075743)scale(0.08 -0.08)">
      <use xlink:href="#DejaVuSans-76"/>
      <use x="55.744141" xlink:href="#DejaVuSans-65"/>
     </g>
    </g>
   </g>
   <g id="text_40">
    <g id="patch_41">
     <path clip-path="url(#p0dae6d54c8)" d="M 445.912955 173.748313 
L 450.241429 182.781008 
Q 451.278577 184.945338 453.442907 183.908189 
L 460.425125 180.562306 
Q 462.589455 179.525157 461.552307 177.360827 
L 457.223833 168.328133 
Q 456.186684 166.163803 454.022355 167.200951 
L 447.040137 170.546835 
Q 444.875807 171.583983 445.912955 173.748313 
z
" style="fill:#ffffff;stroke:#ffffff;stroke-linejoin:miter;"/>
    </g>
    <g clip-path="url(#p0dae6d54c8)">
     <!-- LR -->
     <defs>
      <path d="M 44.390625 34.1875 
Q 47.5625 33.109375 50.5625 29.59375 
Q 53.5625 26.078125 56.59375 19.921875 
L 66.609375 0 
L 56 0 
L 46.6875 18.703125 
Q 43.0625 26.03125 39.671875 28.421875 
Q 36.28125 30.8125 30.421875 30.8125 
L 19.671875 30.8125 
L 19.671875 0 
L 9.8125 0 
L 9.8125 72.90625 
L 32.078125 72.90625 
Q 44.578125 72.90625 50.734375 67.671875 
Q 56.890625 62.453125 56.890625 51.90625 
Q 56.890625 45.015625 53.6875 40.46875 
Q 50.484375 35.9375 44.390625 34.1875 
z
M 19.671875 64.796875 
L 19.671875 38.921875 
L 32.078125 38.921875 
Q 39.203125 38.921875 42.84375 42.21875 
Q 46.484375 45.515625 46.484375 51.90625 
Q 46.484375 58.296875 42.84375 61.546875 
Q 39.203125 64.796875 32.078125 64.796875 
z
" id="DejaVuSans-82"/>
     </defs>
     <g transform="translate(449.577662 171.992183)rotate(-295.603774)scale(0.08 -0.08)">
      <use xlink:href="#DejaVuSans-76"/>
      <use x="55.712891" xlink:href="#DejaVuSans-82"/>
     </g>
    </g>
   </g>
   <g id="text_41">
    <g id="patch_42">
     <path clip-path="url(#p0dae6d54c8)" d="M 401.134295 96.997823 
L 404.590512 106.309597 
Q 405.425641 108.55961 407.675654 107.724481 
L 414.93429 105.030319 
Q 417.184304 104.19519 416.349174 101.945177 
L 412.892957 92.633403 
Q 412.057828 90.38339 409.807815 91.218519 
L 402.549179 93.912681 
Q 400.299166 94.74781 401.134295 96.997823 
z
" style="fill:#ffffff;stroke:#ffffff;stroke-linejoin:miter;"/>
    </g>
    <g clip-path="url(#p0dae6d54c8)">
     <!-- LA -->
     <g transform="translate(404.944083 95.583758)rotate(-290.363232)scale(0.08 -0.08)">
      <use xlink:href="#DejaVuSans-76"/>
      <use x="55.744141" xlink:href="#DejaVuSans-65"/>
     </g>
    </g>
   </g>
   <g id="text_42">
    <g id="patch_43">
     <path clip-path="url(#p0dae6d54c8)" d="M 767.169417 350.747253 
L 767.169417 386.032253 
Q 767.169417 388.432253 769.569417 388.432253 
L 777.311917 388.432253 
Q 779.711917 388.432253 779.711917 386.032253 
L 779.711917 350.747253 
Q 779.711917 348.347253 777.311917 348.347253 
L 769.569417 348.347253 
Q 767.169417 348.347253 767.169417 350.747253 
z
" style="fill:#ffffff;stroke:#ffffff;stroke-linejoin:miter;"/>
    </g>
    <g clip-path="url(#p0dae6d54c8)">
     <!-- Terminal -->
     <g transform="translate(771.233167 350.747253)rotate(-270)scale(0.08 -0.08)">
      <use xlink:href="#DejaVuSans-84"/>
      <use x="60.818359" xlink:href="#DejaVuSans-101"/>
      <use x="122.341797" xlink:href="#DejaVuSans-114"/>
      <use x="163.439453" xlink:href="#DejaVuSans-109"/>
      <use x="260.851562" xlink:href="#DejaVuSans-105"/>
      <use x="288.634766" xlink:href="#DejaVuSans-110"/>
      <use x="352.013672" xlink:href="#DejaVuSans-97"/>
      <use x="413.292969" xlink:href="#DejaVuSans-108"/>
     </g>
    </g>
   </g>
   <g id="PathCollection_1">
    <defs>
     <path d="M 0 8.660254 
C 2.296726 8.660254 4.499694 7.747755 6.123724 6.123724 
C 7.747755 4.499694 8.660254 2.296726 8.660254 0 
C 8.660254 -2.296726 7.747755 -4.499694 6.123724 -6.123724 
C 4.499694 -7.747755 2.296726 -8.660254 0 -8.660254 
C -2.296726 -8.660254 -4.499694 -7.747755 -6.123724 -6.123724 
C -7.747755 -4.499694 -8.660254 -2.296726 -8.660254 0 
C -8.660254 2.296726 -7.747755 4.499694 -6.123724 6.123724 
C -4.499694 7.747755 -2.296726 8.660254 0 8.660254 
z
" id="C0_0_a9e2176b09"/>
    </defs>
    <g clip-path="url(#p0dae6d54c8)">
     <use style="fill:#ffffff;stroke:#ffffff;" x="37.226" xlink:href="#C0_0_a9e2176b09" y="406.168516"/>
    </g>
    <g clip-path="url(#p0dae6d54c8)">
     <use style="fill:#ffffff;stroke:#ffffff;" x="86.306978" xlink:href="#C0_0_a9e2176b09" y="406.168516"/>
    </g>
    <g clip-path="url(#p0dae6d54c8)">
     <use style="fill:#ffffff;stroke:#ffffff;" x="135.387955" xlink:href="#C0_0_a9e2176b09" y="406.168516"/>
    </g>
    <g clip-path="url(#p0dae6d54c8)">
     <use style="fill:#ffffff;stroke:#ffffff;" x="184.468933" xlink:href="#C0_0_a9e2176b09" y="406.168516"/>
    </g>
    <g clip-path="url(#p0dae6d54c8)">
     <use style="fill:#ffffff;stroke:#ffffff;" x="233.549911" xlink:href="#C0_0_a9e2176b09" y="406.168516"/>
    </g>
    <g clip-path="url(#p0dae6d54c8)">
     <use style="fill:#ffffff;stroke:#ffffff;" x="282.630889" xlink:href="#C0_0_a9e2176b09" y="406.168516"/>
    </g>
    <g clip-path="url(#p0dae6d54c8)">
     <use style="fill:#ffffff;stroke:#ffffff;" x="331.711867" xlink:href="#C0_0_a9e2176b09" y="406.168516"/>
    </g>
    <g clip-path="url(#p0dae6d54c8)">
     <use style="fill:#ffffff;stroke:#ffffff;" x="380.792844" xlink:href="#C0_0_a9e2176b09" y="406.168516"/>
    </g>
    <g clip-path="url(#p0dae6d54c8)">
     <use style="fill:#ffffff;stroke:#ffffff;" x="429.873822" xlink:href="#C0_0_a9e2176b09" y="406.168516"/>
    </g>
    <g clip-path="url(#p0dae6d54c8)">
     <use style="fill:#ffffff;stroke:#ffffff;" x="478.9548" xlink:href="#C0_0_a9e2176b09" y="406.168516"/>
    </g>
    <g clip-path="url(#p0dae6d54c8)">
     <use style="fill:#ffffff;stroke:#ffffff;" x="528.035778" xlink:href="#C0_0_a9e2176b09" y="406.168516"/>
    </g>
    <g clip-path="url(#p0dae6d54c8)">
     <use style="fill:#ffffff;stroke:#ffffff;" x="577.116756" xlink:href="#C0_0_a9e2176b09" y="406.168516"/>
    </g>
    <g clip-path="url(#p0dae6d54c8)">
     <use style="fill:#ffffff;stroke:#ffffff;" x="626.197734" xlink:href="#C0_0_a9e2176b09" y="406.168516"/>
    </g>
    <g clip-path="url(#p0dae6d54c8)">
     <use style="fill:#ffffff;stroke:#ffffff;" x="675.278711" xlink:href="#C0_0_a9e2176b09" y="406.168516"/>
    </g>
    <g clip-path="url(#p0dae6d54c8)">
     <use style="fill:#ffffff;stroke:#ffffff;" x="724.359689" xlink:href="#C0_0_a9e2176b09" y="406.168516"/>
    </g>
    <g clip-path="url(#p0dae6d54c8)">
     <use style="fill:#ffffff;stroke:#ffffff;" x="773.440667" xlink:href="#C0_0_a9e2176b09" y="406.168516"/>
    </g>
    <g clip-path="url(#p0dae6d54c8)">
     <use style="fill:#ffffff;stroke:#ffffff;" x="379.429484" xlink:href="#C0_0_a9e2176b09" y="20.498151"/>
    </g>
    <g clip-path="url(#p0dae6d54c8)">
     <use style="fill:#ffffff;stroke:#ffffff;" x="172.198689" xlink:href="#C0_0_a9e2176b09" y="100.361078"/>
    </g>
    <g clip-path="url(#p0dae6d54c8)">
     <use style="fill:#ffffff;stroke:#ffffff;" x="528.035778" xlink:href="#C0_0_a9e2176b09" y="330.61099"/>
    </g>
    <g clip-path="url(#p0dae6d54c8)">
     <use style="fill:#ffffff;stroke:#ffffff;" x="438.053985" xlink:href="#C0_0_a9e2176b09" y="178.444849"/>
    </g>
    <g clip-path="url(#p0dae6d54c8)">
     <use style="fill:#ffffff;stroke:#ffffff;" x="577.116756" xlink:href="#C0_0_a9e2176b09" y="330.61099"/>
    </g>
    <g clip-path="url(#p0dae6d54c8)">
     <use style="fill:#ffffff;stroke:#ffffff;" x="699.8192" xlink:href="#C0_0_a9e2176b09" y="255.053464"/>
    </g>
    <g clip-path="url(#p0dae6d54c8)">
     <use style="fill:#ffffff;stroke:#ffffff;" x="626.197734" xlink:href="#C0_0_a9e2176b09" y="330.61099"/>
    </g>
    <g clip-path="url(#p0dae6d54c8)">
     <use style="fill:#ffffff;stroke:#ffffff;" x="675.278711" xlink:href="#C0_0_a9e2176b09" y="330.61099"/>
    </g>
    <g clip-path="url(#p0dae6d54c8)">
     <use style="fill:#ffffff;stroke:#ffffff;" x="724.359689" xlink:href="#C0_0_a9e2176b09" y="330.61099"/>
    </g>
    <g clip-path="url(#p0dae6d54c8)">
     <use style="fill:#ffffff;stroke:#ffffff;" x="37.226" xlink:href="#C0_0_a9e2176b09" y="330.61099"/>
    </g>
    <g clip-path="url(#p0dae6d54c8)">
     <use style="fill:#ffffff;stroke:#ffffff;" x="86.306978" xlink:href="#C0_0_a9e2176b09" y="330.61099"/>
    </g>
    <g clip-path="url(#p0dae6d54c8)">
     <use style="fill:#ffffff;stroke:#ffffff;" x="184.468933" xlink:href="#C0_0_a9e2176b09" y="255.053464"/>
    </g>
    <g clip-path="url(#p0dae6d54c8)">
     <use style="fill:#ffffff;stroke:#ffffff;" x="380.792844" xlink:href="#C0_0_a9e2176b09" y="178.444849"/>
    </g>
    <g clip-path="url(#p0dae6d54c8)">
     <use style="fill:#ffffff;stroke:#ffffff;" x="282.630889" xlink:href="#C0_0_a9e2176b09" y="330.61099"/>
    </g>
    <g clip-path="url(#p0dae6d54c8)">
     <use style="fill:#ffffff;stroke:#ffffff;" x="380.792844" xlink:href="#C0_0_a9e2176b09" y="255.053464"/>
    </g>
    <g clip-path="url(#p0dae6d54c8)">
     <use style="fill:#ffffff;stroke:#ffffff;" x="478.9548" xlink:href="#C0_0_a9e2176b09" y="330.61099"/>
    </g>
    <g clip-path="url(#p0dae6d54c8)">
     <use style="fill:#ffffff;stroke:#ffffff;" x="331.711867" xlink:href="#C0_0_a9e2176b09" y="330.61099"/>
    </g>
    <g clip-path="url(#p0dae6d54c8)">
     <use style="fill:#ffffff;stroke:#ffffff;" x="380.792844" xlink:href="#C0_0_a9e2176b09" y="330.61099"/>
    </g>
    <g clip-path="url(#p0dae6d54c8)">
     <use style="fill:#ffffff;stroke:#ffffff;" x="429.873822" xlink:href="#C0_0_a9e2176b09" y="330.61099"/>
    </g>
    <g clip-path="url(#p0dae6d54c8)">
     <use style="fill:#ffffff;stroke:#ffffff;" x="135.387955" xlink:href="#C0_0_a9e2176b09" y="330.61099"/>
    </g>
    <g clip-path="url(#p0dae6d54c8)">
     <use style="fill:#ffffff;stroke:#ffffff;" x="184.468933" xlink:href="#C0_0_a9e2176b09" y="330.61099"/>
    </g>
    <g clip-path="url(#p0dae6d54c8)">
     <use style="fill:#ffffff;stroke:#ffffff;" x="233.549911" xlink:href="#C0_0_a9e2176b09" y="330.61099"/>
    </g>
    <g clip-path="url(#p0dae6d54c8)">
     <use style="fill:#808080;stroke:#808080;" x="379.429484" xlink:href="#C0_0_a9e2176b09" y="20.498151"/>
    </g>
    <g clip-path="url(#p0dae6d54c8)">
     <use style="fill:#ffffff;stroke:#ffffff;" x="773.440667" xlink:href="#C0_0_a9e2176b09" y="330.61099"/>
    </g>
   </g>
   <g id="text_43">
    <g clip-path="url(#p0dae6d54c8)">
     <!-- I -->
     <defs>
      <path d="M 9.8125 72.90625 
L 19.671875 72.90625 
L 19.671875 0 
L 9.8125 0 
z
" id="DejaVuSans-73"/>
     </defs>
     <g transform="translate(35.751 408.927891)scale(0.1 -0.1)">
      <use xlink:href="#DejaVuSans-73"/>
     </g>
    </g>
   </g>
   <g id="text_44">
    <g clip-path="url(#p0dae6d54c8)">
     <!-- had -->
     <defs>
      <path d="M 54.890625 33.015625 
L 54.890625 0 
L 45.90625 0 
L 45.90625 32.71875 
Q 45.90625 40.484375 42.875 44.328125 
Q 39.84375 48.1875 33.796875 48.1875 
Q 26.515625 48.1875 22.3125 43.546875 
Q 18.109375 38.921875 18.109375 30.90625 
L 18.109375 0 
L 9.078125 0 
L 9.078125 75.984375 
L 18.109375 75.984375 
L 18.109375 46.1875 
Q 21.34375 51.125 25.703125 53.5625 
Q 30.078125 56 35.796875 56 
Q 45.21875 56 50.046875 50.171875 
Q 54.890625 44.34375 54.890625 33.015625 
z
" id="DejaVuSans-104"/>
      <path d="M 45.40625 46.390625 
L 45.40625 75.984375 
L 54.390625 75.984375 
L 54.390625 0 
L 45.40625 0 
L 45.40625 8.203125 
Q 42.578125 3.328125 38.25 0.953125 
Q 33.9375 -1.421875 27.875 -1.421875 
Q 17.96875 -1.421875 11.734375 6.484375 
Q 5.515625 14.40625 5.515625 27.296875 
Q 5.515625 40.1875 11.734375 48.09375 
Q 17.96875 56 27.875 56 
Q 33.9375 56 38.25 53.625 
Q 42.578125 51.265625 45.40625 46.390625 
z
M 14.796875 27.296875 
Q 14.796875 17.390625 18.875 11.75 
Q 22.953125 6.109375 30.078125 6.109375 
Q 37.203125 6.109375 41.296875 11.75 
Q 45.40625 17.390625 45.40625 27.296875 
Q 45.40625 37.203125 41.296875 42.84375 
Q 37.203125 48.484375 30.078125 48.484375 
Q 22.953125 48.484375 18.875 42.84375 
Q 14.796875 37.203125 14.796875 27.296875 
z
" id="DejaVuSans-100"/>
     </defs>
     <g transform="translate(76.899946 408.927891)scale(0.1 -0.1)">
      <use xlink:href="#DejaVuSans-104"/>
      <use x="63.378906" xlink:href="#DejaVuSans-97"/>
      <use x="124.658203" xlink:href="#DejaVuSans-100"/>
     </g>
    </g>
   </g>
   <g id="text_45">
    <g clip-path="url(#p0dae6d54c8)">
     <!-- read -->
     <g transform="translate(124.019205 408.927891)scale(0.1 -0.1)">
      <use xlink:href="#DejaVuSans-114"/>
      <use x="41.082031" xlink:href="#DejaVuSans-101"/>
      <use x="102.605469" xlink:href="#DejaVuSans-97"/>
      <use x="163.884766" xlink:href="#DejaVuSans-100"/>
     </g>
    </g>
   </g>
   <g id="text_46">
    <g clip-path="url(#p0dae6d54c8)">
     <!-- and -->
     <g transform="translate(175.061902 408.927891)scale(0.1 -0.1)">
      <use xlink:href="#DejaVuSans-97"/>
      <use x="61.279297" xlink:href="#DejaVuSans-110"/>
      <use x="124.658203" xlink:href="#DejaVuSans-100"/>
     </g>
    </g>
   </g>
   <g id="text_47">
    <g clip-path="url(#p0dae6d54c8)">
     <!-- reread -->
     <g transform="translate(217.050692 408.927891)scale(0.1 -0.1)">
      <use xlink:href="#DejaVuSans-114"/>
      <use x="41.082031" xlink:href="#DejaVuSans-101"/>
      <use x="102.605469" xlink:href="#DejaVuSans-114"/>
      <use x="143.6875" xlink:href="#DejaVuSans-101"/>
      <use x="205.210938" xlink:href="#DejaVuSans-97"/>
      <use x="266.490234" xlink:href="#DejaVuSans-100"/>
     </g>
    </g>
   </g>
   <g id="text_48">
    <g clip-path="url(#p0dae6d54c8)">
     <!-- every -->
     <defs>
      <path d="M 2.984375 54.6875 
L 12.5 54.6875 
L 29.59375 8.796875 
L 46.6875 54.6875 
L 56.203125 54.6875 
L 35.6875 0 
L 23.484375 0 
z
" id="DejaVuSans-118"/>
      <path d="M 32.171875 -5.078125 
Q 28.375 -14.84375 24.75 -17.8125 
Q 21.140625 -20.796875 15.09375 -20.796875 
L 7.90625 -20.796875 
L 7.90625 -13.28125 
L 13.1875 -13.28125 
Q 16.890625 -13.28125 18.9375 -11.515625 
Q 21 -9.765625 23.484375 -3.21875 
L 25.09375 0.875 
L 2.984375 54.6875 
L 12.5 54.6875 
L 29.59375 11.921875 
L 46.6875 54.6875 
L 56.203125 54.6875 
z
" id="DejaVuSans-121"/>
     </defs>
     <g transform="translate(268.503545 408.927891)scale(0.1 -0.1)">
      <use xlink:href="#DejaVuSans-101"/>
      <use x="61.523438" xlink:href="#DejaVuSans-118"/>
      <use x="120.703125" xlink:href="#DejaVuSans-101"/>
      <use x="182.226562" xlink:href="#DejaVuSans-114"/>
      <use x="223.339844" xlink:href="#DejaVuSans-121"/>
     </g>
    </g>
   </g>
   <g id="text_49">
    <g clip-path="url(#p0dae6d54c8)">
     <!-- American -->
     <defs>
      <path d="M 48.78125 52.59375 
L 48.78125 44.1875 
Q 44.96875 46.296875 41.140625 47.34375 
Q 37.3125 48.390625 33.40625 48.390625 
Q 24.65625 48.390625 19.8125 42.84375 
Q 14.984375 37.3125 14.984375 27.296875 
Q 14.984375 17.28125 19.8125 11.734375 
Q 24.65625 6.203125 33.40625 6.203125 
Q 37.3125 6.203125 41.140625 7.25 
Q 44.96875 8.296875 48.78125 10.40625 
L 48.78125 2.09375 
Q 45.015625 0.34375 40.984375 -0.53125 
Q 36.96875 -1.421875 32.421875 -1.421875 
Q 20.0625 -1.421875 12.78125 6.34375 
Q 5.515625 14.109375 5.515625 27.296875 
Q 5.515625 40.671875 12.859375 48.328125 
Q 20.21875 56 33.015625 56 
Q 37.15625 56 41.109375 55.140625 
Q 45.0625 54.296875 48.78125 52.59375 
z
" id="DejaVuSans-99"/>
     </defs>
     <g transform="translate(307.918117 408.927891)scale(0.1 -0.1)">
      <use xlink:href="#DejaVuSans-65"/>
      <use x="68.408203" xlink:href="#DejaVuSans-109"/>
      <use x="165.820312" xlink:href="#DejaVuSans-101"/>
      <use x="227.34375" xlink:href="#DejaVuSans-114"/>
      <use x="268.457031" xlink:href="#DejaVuSans-105"/>
      <use x="296.240234" xlink:href="#DejaVuSans-99"/>
      <use x="351.220703" xlink:href="#DejaVuSans-97"/>
      <use x="412.5" xlink:href="#DejaVuSans-110"/>
     </g>
    </g>
   </g>
   <g id="text_50">
    <g clip-path="url(#p0dae6d54c8)">
     <!-- and -->
     <g transform="translate(371.385813 408.927891)scale(0.1 -0.1)">
      <use xlink:href="#DejaVuSans-97"/>
      <use x="61.279297" xlink:href="#DejaVuSans-110"/>
      <use x="124.658203" xlink:href="#DejaVuSans-100"/>
     </g>
    </g>
   </g>
   <g id="text_51">
    <g clip-path="url(#p0dae6d54c8)">
     <!-- European -->
     <defs>
      <path d="M 8.5 21.578125 
L 8.5 54.6875 
L 17.484375 54.6875 
L 17.484375 21.921875 
Q 17.484375 14.15625 20.5 10.265625 
Q 23.53125 6.390625 29.59375 6.390625 
Q 36.859375 6.390625 41.078125 11.03125 
Q 45.3125 15.671875 45.3125 23.6875 
L 45.3125 54.6875 
L 54.296875 54.6875 
L 54.296875 0 
L 45.3125 0 
L 45.3125 8.40625 
Q 42.046875 3.421875 37.71875 1 
Q 33.40625 -1.421875 27.6875 -1.421875 
Q 18.265625 -1.421875 13.375 4.4375 
Q 8.5 10.296875 8.5 21.578125 
z
M 31.109375 56 
z
" id="DejaVuSans-117"/>
      <path d="M 30.609375 48.390625 
Q 23.390625 48.390625 19.1875 42.75 
Q 14.984375 37.109375 14.984375 27.296875 
Q 14.984375 17.484375 19.15625 11.84375 
Q 23.34375 6.203125 30.609375 6.203125 
Q 37.796875 6.203125 41.984375 11.859375 
Q 46.1875 17.53125 46.1875 27.296875 
Q 46.1875 37.015625 41.984375 42.703125 
Q 37.796875 48.390625 30.609375 48.390625 
z
M 30.609375 56 
Q 42.328125 56 49.015625 48.375 
Q 55.71875 40.765625 55.71875 27.296875 
Q 55.71875 13.875 49.015625 6.21875 
Q 42.328125 -1.421875 30.609375 -1.421875 
Q 18.84375 -1.421875 12.171875 6.21875 
Q 5.515625 13.875 5.515625 27.296875 
Q 5.515625 40.765625 12.171875 48.375 
Q 18.84375 56 30.609375 56 
z
" id="DejaVuSans-111"/>
      <path d="M 18.109375 8.203125 
L 18.109375 -20.796875 
L 9.078125 -20.796875 
L 9.078125 54.6875 
L 18.109375 54.6875 
L 18.109375 46.390625 
Q 20.953125 51.265625 25.265625 53.625 
Q 29.59375 56 35.59375 56 
Q 45.5625 56 51.78125 48.09375 
Q 58.015625 40.1875 58.015625 27.296875 
Q 58.015625 14.40625 51.78125 6.484375 
Q 45.5625 -1.421875 35.59375 -1.421875 
Q 29.59375 -1.421875 25.265625 0.953125 
Q 20.953125 3.328125 18.109375 8.203125 
z
M 48.6875 27.296875 
Q 48.6875 37.203125 44.609375 42.84375 
Q 40.53125 48.484375 33.40625 48.484375 
Q 26.265625 48.484375 22.1875 42.84375 
Q 18.109375 37.203125 18.109375 27.296875 
Q 18.109375 17.390625 22.1875 11.75 
Q 26.265625 6.109375 33.40625 6.109375 
Q 40.53125 6.109375 44.609375 11.75 
Q 48.6875 17.390625 48.6875 27.296875 
z
" id="DejaVuSans-112"/>
     </defs>
     <g transform="translate(405.948822 408.927891)scale(0.1 -0.1)">
      <use xlink:href="#DejaVuSans-69"/>
      <use x="63.183594" xlink:href="#DejaVuSans-117"/>
      <use x="126.5625" xlink:href="#DejaVuSans-114"/>
      <use x="167.644531" xlink:href="#DejaVuSans-111"/>
      <use x="228.826172" xlink:href="#DejaVuSans-112"/>
      <use x="292.302734" xlink:href="#DejaVuSans-101"/>
      <use x="353.826172" xlink:href="#DejaVuSans-97"/>
      <use x="415.105469" xlink:href="#DejaVuSans-110"/>
     </g>
    </g>
   </g>
   <g id="text_52">
    <g clip-path="url(#p0dae6d54c8)">
     <!-- newspaper -->
     <defs>
      <path d="M 4.203125 54.6875 
L 13.1875 54.6875 
L 24.421875 12.015625 
L 35.59375 54.6875 
L 46.1875 54.6875 
L 57.421875 12.015625 
L 68.609375 54.6875 
L 77.59375 54.6875 
L 63.28125 0 
L 52.6875 0 
L 40.921875 44.828125 
L 29.109375 0 
L 18.5 0 
z
" id="DejaVuSans-119"/>
      <path d="M 44.28125 53.078125 
L 44.28125 44.578125 
Q 40.484375 46.53125 36.375 47.5 
Q 32.28125 48.484375 27.875 48.484375 
Q 21.1875 48.484375 17.84375 46.4375 
Q 14.5 44.390625 14.5 40.28125 
Q 14.5 37.15625 16.890625 35.375 
Q 19.28125 33.59375 26.515625 31.984375 
L 29.59375 31.296875 
Q 39.15625 29.25 43.1875 25.515625 
Q 47.21875 21.78125 47.21875 15.09375 
Q 47.21875 7.46875 41.1875 3.015625 
Q 35.15625 -1.421875 24.609375 -1.421875 
Q 20.21875 -1.421875 15.453125 -0.5625 
Q 10.6875 0.296875 5.421875 2 
L 5.421875 11.28125 
Q 10.40625 8.6875 15.234375 7.390625 
Q 20.0625 6.109375 24.8125 6.109375 
Q 31.15625 6.109375 34.5625 8.28125 
Q 37.984375 10.453125 37.984375 14.40625 
Q 37.984375 18.0625 35.515625 20.015625 
Q 33.0625 21.96875 24.703125 23.78125 
L 21.578125 24.515625 
Q 13.234375 26.265625 9.515625 29.90625 
Q 5.8125 33.546875 5.8125 39.890625 
Q 5.8125 47.609375 11.28125 51.796875 
Q 16.75 56 26.8125 56 
Q 31.78125 56 36.171875 55.265625 
Q 40.578125 54.546875 44.28125 53.078125 
z
" id="DejaVuSans-115"/>
     </defs>
     <g transform="translate(451.471206 408.927891)scale(0.1 -0.1)">
      <use xlink:href="#DejaVuSans-110"/>
      <use x="63.378906" xlink:href="#DejaVuSans-101"/>
      <use x="124.902344" xlink:href="#DejaVuSans-119"/>
      <use x="206.689453" xlink:href="#DejaVuSans-115"/>
      <use x="258.789062" xlink:href="#DejaVuSans-112"/>
      <use x="322.265625" xlink:href="#DejaVuSans-97"/>
      <use x="383.544922" xlink:href="#DejaVuSans-112"/>
      <use x="447.021484" xlink:href="#DejaVuSans-101"/>
      <use x="508.544922" xlink:href="#DejaVuSans-114"/>
     </g>
    </g>
   </g>
   <g id="text_53">
    <g clip-path="url(#p0dae6d54c8)">
     <!-- without -->
     <defs>
      <path d="M 18.3125 70.21875 
L 18.3125 54.6875 
L 36.8125 54.6875 
L 36.8125 47.703125 
L 18.3125 47.703125 
L 18.3125 18.015625 
Q 18.3125 11.328125 20.140625 9.421875 
Q 21.96875 7.515625 27.59375 7.515625 
L 36.8125 7.515625 
L 36.8125 0 
L 27.59375 0 
Q 17.1875 0 13.234375 3.875 
Q 9.28125 7.765625 9.28125 18.015625 
L 9.28125 47.703125 
L 2.6875 47.703125 
L 2.6875 54.6875 
L 9.28125 54.6875 
L 9.28125 70.21875 
z
" id="DejaVuSans-116"/>
     </defs>
     <g transform="translate(509.240465 408.927891)scale(0.1 -0.1)">
      <use xlink:href="#DejaVuSans-119"/>
      <use x="81.787109" xlink:href="#DejaVuSans-105"/>
      <use x="109.570312" xlink:href="#DejaVuSans-116"/>
      <use x="148.779297" xlink:href="#DejaVuSans-104"/>
      <use x="212.158203" xlink:href="#DejaVuSans-111"/>
      <use x="273.339844" xlink:href="#DejaVuSans-117"/>
      <use x="336.71875" xlink:href="#DejaVuSans-116"/>
     </g>
    </g>
   </g>
   <g id="text_54">
    <g clip-path="url(#p0dae6d54c8)">
     <!-- being -->
     <defs>
      <path d="M 48.6875 27.296875 
Q 48.6875 37.203125 44.609375 42.84375 
Q 40.53125 48.484375 33.40625 48.484375 
Q 26.265625 48.484375 22.1875 42.84375 
Q 18.109375 37.203125 18.109375 27.296875 
Q 18.109375 17.390625 22.1875 11.75 
Q 26.265625 6.109375 33.40625 6.109375 
Q 40.53125 6.109375 44.609375 11.75 
Q 48.6875 17.390625 48.6875 27.296875 
z
M 18.109375 46.390625 
Q 20.953125 51.265625 25.265625 53.625 
Q 29.59375 56 35.59375 56 
Q 45.5625 56 51.78125 48.09375 
Q 58.015625 40.1875 58.015625 27.296875 
Q 58.015625 14.40625 51.78125 6.484375 
Q 45.5625 -1.421875 35.59375 -1.421875 
Q 29.59375 -1.421875 25.265625 0.953125 
Q 20.953125 3.328125 18.109375 8.203125 
L 18.109375 0 
L 9.078125 0 
L 9.078125 75.984375 
L 18.109375 75.984375 
z
" id="DejaVuSans-98"/>
      <path d="M 45.40625 27.984375 
Q 45.40625 37.75 41.375 43.109375 
Q 37.359375 48.484375 30.078125 48.484375 
Q 22.859375 48.484375 18.828125 43.109375 
Q 14.796875 37.75 14.796875 27.984375 
Q 14.796875 18.265625 18.828125 12.890625 
Q 22.859375 7.515625 30.078125 7.515625 
Q 37.359375 7.515625 41.375 12.890625 
Q 45.40625 18.265625 45.40625 27.984375 
z
M 54.390625 6.78125 
Q 54.390625 -7.171875 48.1875 -13.984375 
Q 42 -20.796875 29.203125 -20.796875 
Q 24.46875 -20.796875 20.265625 -20.09375 
Q 16.0625 -19.390625 12.109375 -17.921875 
L 12.109375 -9.1875 
Q 16.0625 -11.328125 19.921875 -12.34375 
Q 23.78125 -13.375 27.78125 -13.375 
Q 36.625 -13.375 41.015625 -8.765625 
Q 45.40625 -4.15625 45.40625 5.171875 
L 45.40625 9.625 
Q 42.625 4.78125 38.28125 2.390625 
Q 33.9375 0 27.875 0 
Q 17.828125 0 11.671875 7.65625 
Q 5.515625 15.328125 5.515625 27.984375 
Q 5.515625 40.671875 11.671875 48.328125 
Q 17.828125 56 27.875 56 
Q 33.9375 56 38.28125 53.609375 
Q 42.625 51.21875 45.40625 46.390625 
L 45.40625 54.6875 
L 54.390625 54.6875 
z
" id="DejaVuSans-103"/>
     </defs>
     <g transform="translate(563.133943 408.927891)scale(0.1 -0.1)">
      <use xlink:href="#DejaVuSans-98"/>
      <use x="63.476562" xlink:href="#DejaVuSans-101"/>
      <use x="125" xlink:href="#DejaVuSans-105"/>
      <use x="152.783203" xlink:href="#DejaVuSans-110"/>
      <use x="216.162109" xlink:href="#DejaVuSans-103"/>
     </g>
    </g>
   </g>
   <g id="text_55">
    <g clip-path="url(#p0dae6d54c8)">
     <!-- any -->
     <g transform="translate(617.005546 408.927891)scale(0.1 -0.1)">
      <use xlink:href="#DejaVuSans-97"/>
      <use x="61.279297" xlink:href="#DejaVuSans-110"/>
      <use x="124.658203" xlink:href="#DejaVuSans-121"/>
     </g>
    </g>
   </g>
   <g id="text_56">
    <g clip-path="url(#p0dae6d54c8)">
     <!-- farther -->
     <defs>
      <path d="M 37.109375 75.984375 
L 37.109375 68.5 
L 28.515625 68.5 
Q 23.6875 68.5 21.796875 66.546875 
Q 19.921875 64.59375 19.921875 59.515625 
L 19.921875 54.6875 
L 34.71875 54.6875 
L 34.71875 47.703125 
L 19.921875 47.703125 
L 19.921875 0 
L 10.890625 0 
L 10.890625 47.703125 
L 2.296875 47.703125 
L 2.296875 54.6875 
L 10.890625 54.6875 
L 10.890625 58.5 
Q 10.890625 67.625 15.140625 71.796875 
Q 19.390625 75.984375 28.609375 75.984375 
z
" id="DejaVuSans-102"/>
     </defs>
     <g transform="translate(658.138086 408.927891)scale(0.1 -0.1)">
      <use xlink:href="#DejaVuSans-102"/>
      <use x="35.205078" xlink:href="#DejaVuSans-97"/>
      <use x="96.484375" xlink:href="#DejaVuSans-114"/>
      <use x="137.597656" xlink:href="#DejaVuSans-116"/>
      <use x="176.806641" xlink:href="#DejaVuSans-104"/>
      <use x="240.185547" xlink:href="#DejaVuSans-101"/>
      <use x="301.708984" xlink:href="#DejaVuSans-114"/>
     </g>
    </g>
   </g>
   <g id="text_57">
    <g clip-path="url(#p0dae6d54c8)">
     <!-- along -->
     <g transform="translate(710.50422 408.927891)scale(0.1 -0.1)">
      <use xlink:href="#DejaVuSans-97"/>
      <use x="61.279297" xlink:href="#DejaVuSans-108"/>
      <use x="89.0625" xlink:href="#DejaVuSans-111"/>
      <use x="150.244141" xlink:href="#DejaVuSans-110"/>
      <use x="213.623047" xlink:href="#DejaVuSans-103"/>
     </g>
    </g>
   </g>
   <g id="text_58">
    <g clip-path="url(#p0dae6d54c8)">
     <!-- . -->
     <defs>
      <path d="M 10.6875 12.40625 
L 21 12.40625 
L 21 0 
L 10.6875 0 
z
" id="DejaVuSans-46"/>
     </defs>
     <g transform="translate(771.851604 408.927891)scale(0.1 -0.1)">
      <use xlink:href="#DejaVuSans-46"/>
     </g>
    </g>
   </g>
   <g id="text_59">
    <g clip-path="url(#p0dae6d54c8)">
     <!-- 1.1 -->
     <defs>
      <path d="M 12.40625 8.296875 
L 28.515625 8.296875 
L 28.515625 63.921875 
L 10.984375 60.40625 
L 10.984375 69.390625 
L 28.421875 72.90625 
L 38.28125 72.90625 
L 38.28125 8.296875 
L 54.390625 8.296875 
L 54.390625 0 
L 12.40625 0 
z
" id="DejaVuSans-49"/>
     </defs>
     <g transform="translate(371.477921 23.257526)scale(0.1 -0.1)">
      <use xlink:href="#DejaVuSans-49"/>
      <use x="63.623047" xlink:href="#DejaVuSans-46"/>
      <use x="95.410156" xlink:href="#DejaVuSans-49"/>
     </g>
    </g>
   </g>
   <g id="text_60">
    <g clip-path="url(#p0dae6d54c8)">
     <!-- 1.2 -->
     <defs>
      <path d="M 19.1875 8.296875 
L 53.609375 8.296875 
L 53.609375 0 
L 7.328125 0 
L 7.328125 8.296875 
Q 12.9375 14.109375 22.625 23.890625 
Q 32.328125 33.6875 34.8125 36.53125 
Q 39.546875 41.84375 41.421875 45.53125 
Q 43.3125 49.21875 43.3125 52.78125 
Q 43.3125 58.59375 39.234375 62.25 
Q 35.15625 65.921875 28.609375 65.921875 
Q 23.96875 65.921875 18.8125 64.3125 
Q 13.671875 62.703125 7.8125 59.421875 
L 7.8125 69.390625 
Q 13.765625 71.78125 18.9375 73 
Q 24.125 74.21875 28.421875 74.21875 
Q 39.75 74.21875 46.484375 68.546875 
Q 53.21875 62.890625 53.21875 53.421875 
Q 53.21875 48.921875 51.53125 44.890625 
Q 49.859375 40.875 45.40625 35.40625 
Q 44.1875 33.984375 37.640625 27.21875 
Q 31.109375 20.453125 19.1875 8.296875 
z
" id="DejaVuSans-50"/>
     </defs>
     <g transform="translate(164.247126 103.120453)scale(0.1 -0.1)">
      <use xlink:href="#DejaVuSans-49"/>
      <use x="63.623047" xlink:href="#DejaVuSans-46"/>
      <use x="95.410156" xlink:href="#DejaVuSans-50"/>
     </g>
    </g>
   </g>
   <g id="text_61">
    <g clip-path="url(#p0dae6d54c8)">
     <!-- 1.3 -->
     <defs>
      <path d="M 40.578125 39.3125 
Q 47.65625 37.796875 51.625 33 
Q 55.609375 28.21875 55.609375 21.1875 
Q 55.609375 10.40625 48.1875 4.484375 
Q 40.765625 -1.421875 27.09375 -1.421875 
Q 22.515625 -1.421875 17.65625 -0.515625 
Q 12.796875 0.390625 7.625 2.203125 
L 7.625 11.71875 
Q 11.71875 9.328125 16.59375 8.109375 
Q 21.484375 6.890625 26.8125 6.890625 
Q 36.078125 6.890625 40.9375 10.546875 
Q 45.796875 14.203125 45.796875 21.1875 
Q 45.796875 27.640625 41.28125 31.265625 
Q 36.765625 34.90625 28.71875 34.90625 
L 20.21875 34.90625 
L 20.21875 43.015625 
L 29.109375 43.015625 
Q 36.375 43.015625 40.234375 45.921875 
Q 44.09375 48.828125 44.09375 54.296875 
Q 44.09375 59.90625 40.109375 62.90625 
Q 36.140625 65.921875 28.71875 65.921875 
Q 24.65625 65.921875 20.015625 65.03125 
Q 15.375 64.15625 9.8125 62.3125 
L 9.8125 71.09375 
Q 15.4375 72.65625 20.34375 73.4375 
Q 25.25 74.21875 29.59375 74.21875 
Q 40.828125 74.21875 47.359375 69.109375 
Q 53.90625 64.015625 53.90625 55.328125 
Q 53.90625 49.265625 50.4375 45.09375 
Q 46.96875 40.921875 40.578125 39.3125 
z
" id="DejaVuSans-51"/>
     </defs>
     <g transform="translate(520.084215 333.370365)scale(0.1 -0.1)">
      <use xlink:href="#DejaVuSans-49"/>
      <use x="63.623047" xlink:href="#DejaVuSans-46"/>
      <use x="95.410156" xlink:href="#DejaVuSans-51"/>
     </g>
    </g>
   </g>
   <g id="text_62">
    <g clip-path="url(#p0dae6d54c8)">
     <!-- 1.4 -->
     <defs>
      <path d="M 37.796875 64.3125 
L 12.890625 25.390625 
L 37.796875 25.390625 
z
M 35.203125 72.90625 
L 47.609375 72.90625 
L 47.609375 25.390625 
L 58.015625 25.390625 
L 58.015625 17.1875 
L 47.609375 17.1875 
L 47.609375 0 
L 37.796875 0 
L 37.796875 17.1875 
L 4.890625 17.1875 
L 4.890625 26.703125 
z
" id="DejaVuSans-52"/>
     </defs>
     <g transform="translate(430.102423 181.204224)scale(0.1 -0.1)">
      <use xlink:href="#DejaVuSans-49"/>
      <use x="63.623047" xlink:href="#DejaVuSans-46"/>
      <use x="95.410156" xlink:href="#DejaVuSans-52"/>
     </g>
    </g>
   </g>
   <g id="text_63">
    <g clip-path="url(#p0dae6d54c8)">
     <!-- 1.6 -->
     <defs>
      <path d="M 33.015625 40.375 
Q 26.375 40.375 22.484375 35.828125 
Q 18.609375 31.296875 18.609375 23.390625 
Q 18.609375 15.53125 22.484375 10.953125 
Q 26.375 6.390625 33.015625 6.390625 
Q 39.65625 6.390625 43.53125 10.953125 
Q 47.40625 15.53125 47.40625 23.390625 
Q 47.40625 31.296875 43.53125 35.828125 
Q 39.65625 40.375 33.015625 40.375 
z
M 52.59375 71.296875 
L 52.59375 62.3125 
Q 48.875 64.0625 45.09375 64.984375 
Q 41.3125 65.921875 37.59375 65.921875 
Q 27.828125 65.921875 22.671875 59.328125 
Q 17.53125 52.734375 16.796875 39.40625 
Q 19.671875 43.65625 24.015625 45.921875 
Q 28.375 48.1875 33.59375 48.1875 
Q 44.578125 48.1875 50.953125 41.515625 
Q 57.328125 34.859375 57.328125 23.390625 
Q 57.328125 12.15625 50.6875 5.359375 
Q 44.046875 -1.421875 33.015625 -1.421875 
Q 20.359375 -1.421875 13.671875 8.265625 
Q 6.984375 17.96875 6.984375 36.375 
Q 6.984375 53.65625 15.1875 63.9375 
Q 23.390625 74.21875 37.203125 74.21875 
Q 40.921875 74.21875 44.703125 73.484375 
Q 48.484375 72.75 52.59375 71.296875 
z
" id="DejaVuSans-54"/>
     </defs>
     <g transform="translate(569.165193 333.370365)scale(0.1 -0.1)">
      <use xlink:href="#DejaVuSans-49"/>
      <use x="63.623047" xlink:href="#DejaVuSans-46"/>
      <use x="95.410156" xlink:href="#DejaVuSans-54"/>
     </g>
    </g>
   </g>
   <g id="text_64">
    <g clip-path="url(#p0dae6d54c8)">
     <!-- 1.7 -->
     <defs>
      <path d="M 8.203125 72.90625 
L 55.078125 72.90625 
L 55.078125 68.703125 
L 28.609375 0 
L 18.3125 0 
L 43.21875 64.59375 
L 8.203125 64.59375 
z
" id="DejaVuSans-55"/>
     </defs>
     <g transform="translate(691.867638 257.812839)scale(0.1 -0.1)">
      <use xlink:href="#DejaVuSans-49"/>
      <use x="63.623047" xlink:href="#DejaVuSans-46"/>
      <use x="95.410156" xlink:href="#DejaVuSans-55"/>
     </g>
    </g>
   </g>
   <g id="text_65">
    <g clip-path="url(#p0dae6d54c8)">
     <!-- 1.8 -->
     <defs>
      <path d="M 31.78125 34.625 
Q 24.75 34.625 20.71875 30.859375 
Q 16.703125 27.09375 16.703125 20.515625 
Q 16.703125 13.921875 20.71875 10.15625 
Q 24.75 6.390625 31.78125 6.390625 
Q 38.8125 6.390625 42.859375 10.171875 
Q 46.921875 13.96875 46.921875 20.515625 
Q 46.921875 27.09375 42.890625 30.859375 
Q 38.875 34.625 31.78125 34.625 
z
M 21.921875 38.8125 
Q 15.578125 40.375 12.03125 44.71875 
Q 8.5 49.078125 8.5 55.328125 
Q 8.5 64.0625 14.71875 69.140625 
Q 20.953125 74.21875 31.78125 74.21875 
Q 42.671875 74.21875 48.875 69.140625 
Q 55.078125 64.0625 55.078125 55.328125 
Q 55.078125 49.078125 51.53125 44.71875 
Q 48 40.375 41.703125 38.8125 
Q 48.828125 37.15625 52.796875 32.3125 
Q 56.78125 27.484375 56.78125 20.515625 
Q 56.78125 9.90625 50.3125 4.234375 
Q 43.84375 -1.421875 31.78125 -1.421875 
Q 19.734375 -1.421875 13.25 4.234375 
Q 6.78125 9.90625 6.78125 20.515625 
Q 6.78125 27.484375 10.78125 32.3125 
Q 14.796875 37.15625 21.921875 38.8125 
z
M 18.3125 54.390625 
Q 18.3125 48.734375 21.84375 45.5625 
Q 25.390625 42.390625 31.78125 42.390625 
Q 38.140625 42.390625 41.71875 45.5625 
Q 45.3125 48.734375 45.3125 54.390625 
Q 45.3125 60.0625 41.71875 63.234375 
Q 38.140625 66.40625 31.78125 66.40625 
Q 25.390625 66.40625 21.84375 63.234375 
Q 18.3125 60.0625 18.3125 54.390625 
z
" id="DejaVuSans-56"/>
     </defs>
     <g transform="translate(618.246171 333.370365)scale(0.1 -0.1)">
      <use xlink:href="#DejaVuSans-49"/>
      <use x="63.623047" xlink:href="#DejaVuSans-46"/>
      <use x="95.410156" xlink:href="#DejaVuSans-56"/>
     </g>
    </g>
   </g>
   <g id="text_66">
    <g clip-path="url(#p0dae6d54c8)">
     <!-- 1.9 -->
     <defs>
      <path d="M 10.984375 1.515625 
L 10.984375 10.5 
Q 14.703125 8.734375 18.5 7.8125 
Q 22.3125 6.890625 25.984375 6.890625 
Q 35.75 6.890625 40.890625 13.453125 
Q 46.046875 20.015625 46.78125 33.40625 
Q 43.953125 29.203125 39.59375 26.953125 
Q 35.25 24.703125 29.984375 24.703125 
Q 19.046875 24.703125 12.671875 31.3125 
Q 6.296875 37.9375 6.296875 49.421875 
Q 6.296875 60.640625 12.9375 67.421875 
Q 19.578125 74.21875 30.609375 74.21875 
Q 43.265625 74.21875 49.921875 64.515625 
Q 56.59375 54.828125 56.59375 36.375 
Q 56.59375 19.140625 48.40625 8.859375 
Q 40.234375 -1.421875 26.421875 -1.421875 
Q 22.703125 -1.421875 18.890625 -0.6875 
Q 15.09375 0.046875 10.984375 1.515625 
z
M 30.609375 32.421875 
Q 37.25 32.421875 41.125 36.953125 
Q 45.015625 41.5 45.015625 49.421875 
Q 45.015625 57.28125 41.125 61.84375 
Q 37.25 66.40625 30.609375 66.40625 
Q 23.96875 66.40625 20.09375 61.84375 
Q 16.21875 57.28125 16.21875 49.421875 
Q 16.21875 41.5 20.09375 36.953125 
Q 23.96875 32.421875 30.609375 32.421875 
z
" id="DejaVuSans-57"/>
     </defs>
     <g transform="translate(667.327149 333.370365)scale(0.1 -0.1)">
      <use xlink:href="#DejaVuSans-49"/>
      <use x="63.623047" xlink:href="#DejaVuSans-46"/>
      <use x="95.410156" xlink:href="#DejaVuSans-57"/>
     </g>
    </g>
   </g>
   <g id="text_67">
    <g clip-path="url(#p0dae6d54c8)">
     <!-- 1.10 -->
     <defs>
      <path d="M 31.78125 66.40625 
Q 24.171875 66.40625 20.328125 58.90625 
Q 16.5 51.421875 16.5 36.375 
Q 16.5 21.390625 20.328125 13.890625 
Q 24.171875 6.390625 31.78125 6.390625 
Q 39.453125 6.390625 43.28125 13.890625 
Q 47.125 21.390625 47.125 36.375 
Q 47.125 51.421875 43.28125 58.90625 
Q 39.453125 66.40625 31.78125 66.40625 
z
M 31.78125 74.21875 
Q 44.046875 74.21875 50.515625 64.515625 
Q 56.984375 54.828125 56.984375 36.375 
Q 56.984375 17.96875 50.515625 8.265625 
Q 44.046875 -1.421875 31.78125 -1.421875 
Q 19.53125 -1.421875 13.0625 8.265625 
Q 6.59375 17.96875 6.59375 36.375 
Q 6.59375 54.828125 13.0625 64.515625 
Q 19.53125 74.21875 31.78125 74.21875 
z
" id="DejaVuSans-48"/>
     </defs>
     <g transform="translate(713.226877 333.370365)scale(0.1 -0.1)">
      <use xlink:href="#DejaVuSans-49"/>
      <use x="63.623047" xlink:href="#DejaVuSans-46"/>
      <use x="95.410156" xlink:href="#DejaVuSans-49"/>
      <use x="159.033203" xlink:href="#DejaVuSans-48"/>
     </g>
    </g>
   </g>
   <g id="text_68">
    <g clip-path="url(#p0dae6d54c8)">
     <!-- 1.11 -->
     <g transform="translate(26.093187 333.370365)scale(0.1 -0.1)">
      <use xlink:href="#DejaVuSans-49"/>
      <use x="63.623047" xlink:href="#DejaVuSans-46"/>
      <use x="95.410156" xlink:href="#DejaVuSans-49"/>
      <use x="159.033203" xlink:href="#DejaVuSans-49"/>
     </g>
    </g>
   </g>
   <g id="text_69">
    <g clip-path="url(#p0dae6d54c8)">
     <!-- 1.12 -->
     <g transform="translate(75.174165 333.370365)scale(0.1 -0.1)">
      <use xlink:href="#DejaVuSans-49"/>
      <use x="63.623047" xlink:href="#DejaVuSans-46"/>
      <use x="95.410156" xlink:href="#DejaVuSans-49"/>
      <use x="159.033203" xlink:href="#DejaVuSans-50"/>
     </g>
    </g>
   </g>
   <g id="text_70">
    <g clip-path="url(#p0dae6d54c8)">
     <!-- 1.13 -->
     <g transform="translate(173.336121 257.812839)scale(0.1 -0.1)">
      <use xlink:href="#DejaVuSans-49"/>
      <use x="63.623047" xlink:href="#DejaVuSans-46"/>
      <use x="95.410156" xlink:href="#DejaVuSans-49"/>
      <use x="159.033203" xlink:href="#DejaVuSans-51"/>
     </g>
    </g>
   </g>
   <g id="text_71">
    <g clip-path="url(#p0dae6d54c8)">
     <!-- 1.14 -->
     <g transform="translate(369.660032 181.204224)scale(0.1 -0.1)">
      <use xlink:href="#DejaVuSans-49"/>
      <use x="63.623047" xlink:href="#DejaVuSans-46"/>
      <use x="95.410156" xlink:href="#DejaVuSans-49"/>
      <use x="159.033203" xlink:href="#DejaVuSans-52"/>
     </g>
    </g>
   </g>
   <g id="text_72">
    <g clip-path="url(#p0dae6d54c8)">
     <!-- 1.15 -->
     <defs>
      <path d="M 10.796875 72.90625 
L 49.515625 72.90625 
L 49.515625 64.59375 
L 19.828125 64.59375 
L 19.828125 46.734375 
Q 21.96875 47.46875 24.109375 47.828125 
Q 26.265625 48.1875 28.421875 48.1875 
Q 40.625 48.1875 47.75 41.5 
Q 54.890625 34.8125 54.890625 23.390625 
Q 54.890625 11.625 47.5625 5.09375 
Q 40.234375 -1.421875 26.90625 -1.421875 
Q 22.3125 -1.421875 17.546875 -0.640625 
Q 12.796875 0.140625 7.71875 1.703125 
L 7.71875 11.625 
Q 12.109375 9.234375 16.796875 8.0625 
Q 21.484375 6.890625 26.703125 6.890625 
Q 35.15625 6.890625 40.078125 11.328125 
Q 45.015625 15.765625 45.015625 23.390625 
Q 45.015625 31 40.078125 35.4375 
Q 35.15625 39.890625 26.703125 39.890625 
Q 22.75 39.890625 18.8125 39.015625 
Q 14.890625 38.140625 10.796875 36.28125 
z
" id="DejaVuSans-53"/>
     </defs>
     <g transform="translate(271.498076 333.370365)scale(0.1 -0.1)">
      <use xlink:href="#DejaVuSans-49"/>
      <use x="63.623047" xlink:href="#DejaVuSans-46"/>
      <use x="95.410156" xlink:href="#DejaVuSans-49"/>
      <use x="159.033203" xlink:href="#DejaVuSans-53"/>
     </g>
    </g>
   </g>
   <g id="text_73">
    <g clip-path="url(#p0dae6d54c8)">
     <!-- 1.16 -->
     <g transform="translate(369.660032 257.812839)scale(0.1 -0.1)">
      <use xlink:href="#DejaVuSans-49"/>
      <use x="63.623047" xlink:href="#DejaVuSans-46"/>
      <use x="95.410156" xlink:href="#DejaVuSans-49"/>
      <use x="159.033203" xlink:href="#DejaVuSans-54"/>
     </g>
    </g>
   </g>
   <g id="text_74">
    <g clip-path="url(#p0dae6d54c8)">
     <!-- 1.17 -->
     <g transform="translate(467.821988 333.370365)scale(0.1 -0.1)">
      <use xlink:href="#DejaVuSans-49"/>
      <use x="63.623047" xlink:href="#DejaVuSans-46"/>
      <use x="95.410156" xlink:href="#DejaVuSans-49"/>
      <use x="159.033203" xlink:href="#DejaVuSans-55"/>
     </g>
    </g>
   </g>
   <g id="text_75">
    <g clip-path="url(#p0dae6d54c8)">
     <!-- 1.18 -->
     <g transform="translate(320.579054 333.370365)scale(0.1 -0.1)">
      <use xlink:href="#DejaVuSans-49"/>
      <use x="63.623047" xlink:href="#DejaVuSans-46"/>
      <use x="95.410156" xlink:href="#DejaVuSans-49"/>
      <use x="159.033203" xlink:href="#DejaVuSans-56"/>
     </g>
    </g>
   </g>
   <g id="text_76">
    <g clip-path="url(#p0dae6d54c8)">
     <!-- 1.19 -->
     <g transform="translate(369.660032 333.370365)scale(0.1 -0.1)">
      <use xlink:href="#DejaVuSans-49"/>
      <use x="63.623047" xlink:href="#DejaVuSans-46"/>
      <use x="95.410156" xlink:href="#DejaVuSans-49"/>
      <use x="159.033203" xlink:href="#DejaVuSans-57"/>
     </g>
    </g>
   </g>
   <g id="text_77">
    <g clip-path="url(#p0dae6d54c8)">
     <!-- 1.20 -->
     <g transform="translate(418.74101 333.370365)scale(0.1 -0.1)">
      <use xlink:href="#DejaVuSans-49"/>
      <use x="63.623047" xlink:href="#DejaVuSans-46"/>
      <use x="95.410156" xlink:href="#DejaVuSans-50"/>
      <use x="159.033203" xlink:href="#DejaVuSans-48"/>
     </g>
    </g>
   </g>
   <g id="text_78">
    <g clip-path="url(#p0dae6d54c8)">
     <!-- 1.21 -->
     <g transform="translate(124.255143 333.370365)scale(0.1 -0.1)">
      <use xlink:href="#DejaVuSans-49"/>
      <use x="63.623047" xlink:href="#DejaVuSans-46"/>
      <use x="95.410156" xlink:href="#DejaVuSans-50"/>
      <use x="159.033203" xlink:href="#DejaVuSans-49"/>
     </g>
    </g>
   </g>
   <g id="text_79">
    <g clip-path="url(#p0dae6d54c8)">
     <!-- 1.22 -->
     <g transform="translate(173.336121 333.370365)scale(0.1 -0.1)">
      <use xlink:href="#DejaVuSans-49"/>
      <use x="63.623047" xlink:href="#DejaVuSans-46"/>
      <use x="95.410156" xlink:href="#DejaVuSans-50"/>
      <use x="159.033203" xlink:href="#DejaVuSans-50"/>
     </g>
    </g>
   </g>
   <g id="text_80">
    <g clip-path="url(#p0dae6d54c8)">
     <!-- 1.23 -->
     <g transform="translate(222.417098 333.370365)scale(0.1 -0.1)">
      <use xlink:href="#DejaVuSans-49"/>
      <use x="63.623047" xlink:href="#DejaVuSans-46"/>
      <use x="95.410156" xlink:href="#DejaVuSans-50"/>
      <use x="159.033203" xlink:href="#DejaVuSans-51"/>
     </g>
    </g>
   </g>
   <g id="text_81">
    <g clip-path="url(#p0dae6d54c8)">
     <!-- 1.24 -->
     <g transform="translate(368.296671 23.257526)scale(0.1 -0.1)">
      <use xlink:href="#DejaVuSans-49"/>
      <use x="63.623047" xlink:href="#DejaVuSans-46"/>
      <use x="95.410156" xlink:href="#DejaVuSans-50"/>
      <use x="159.033203" xlink:href="#DejaVuSans-52"/>
     </g>
    </g>
   </g>
   <g id="text_82">
    <g clip-path="url(#p0dae6d54c8)">
     <!-- 1.25 -->
     <g transform="translate(762.307854 333.370365)scale(0.1 -0.1)">
      <use xlink:href="#DejaVuSans-49"/>
      <use x="63.623047" xlink:href="#DejaVuSans-46"/>
      <use x="95.410156" xlink:href="#DejaVuSans-50"/>
      <use x="159.033203" xlink:href="#DejaVuSans-53"/>
     </g>
    </g>
   </g>
  </g>
 </g>
 <defs>
  <clipPath id="p0dae6d54c8">
   <rect height="426.666667" width="810.666667" x="0" y="0"/>
  </clipPath>
 </defs>
</svg>
