<?xml version="1.0" encoding="UTF-8"?>
<!DOCTYPE svg  PUBLIC '-//W3C//DTD SVG 1.1//EN'  'http://www.w3.org/Graphics/SVG/1.1/DTD/svg11.dtd'>
<svg width="1317.3pt" height="693.33pt" version="1.1" viewBox="0 0 1317.3 693.33" xmlns="http://www.w3.org/2000/svg" xmlns:xlink="http://www.w3.org/1999/xlink">
<metadata>
<rdf:RDF xmlns:cc="http://creativecommons.org/ns#" xmlns:dc="http://purl.org/dc/elements/1.1/" xmlns:rdf="http://www.w3.org/1999/02/22-rdf-syntax-ns#">
<cc:Work>
<dc:type rdf:resource="http://purl.org/dc/dcmitype/StillImage"/>
<dc:date>2021-05-26T07:25:54.663142</dc:date>
<dc:format>image/svg+xml</dc:format>
<dc:creator>
<cc:Agent>
<dc:title>Matplotlib v3.3.3, https://matplotlib.org/</dc:title>
</cc:Agent>
</dc:creator>
</cc:Work>
</rdf:RDF>
</metadata>
<defs>
<style type="text/css">*{stroke-linecap:butt;stroke-linejoin:round;}</style>
</defs>
<path d="m0 693.33h1317.3v-693.33h-1317.3z" fill="#fff"/>
<g fill="none" stroke="#000">
<path d="m382.33 31.515-322.46 474.9" clip-path="url(#a)"/>
<path d="m382.33 31.515-285.3 158.93" clip-path="url(#a)"/>
<path d="m382.33 31.515-242.83 474.9" clip-path="url(#a)"/>
<path d="m382.33 31.515-189.22 158.93" clip-path="url(#a)"/>
<path d="m382.33 31.515-42.172 474.9" clip-path="url(#a)"/>
<path d="m382.33 31.515-55.974 158.93" clip-path="url(#a)"/>
<path d="m382.33 31.515 336.85 474.9" clip-path="url(#a)"/>
<path d="m382.33 31.515 527.95 158.93" clip-path="url(#a)"/>
<path d="m382.33 31.515 273.15 474.9" clip-path="url(#a)"/>
<path d="m59.879 506.41v155.41" clip-path="url(#a)"/>
<path d="m97.038 190.45-21.234 158.39" clip-path="url(#a)"/>
<path d="m97.038 190.45 1.0617 315.96" clip-path="url(#a)"/>
<path d="m97.038 190.45 20.172 315.96" clip-path="url(#a)"/>
<path d="m139.5 506.41v155.41" clip-path="url(#a)"/>
<path d="m193.12 190.45-28.135 315.96" clip-path="url(#a)"/>
<path d="m193.12 190.45 33.443 158.39" clip-path="url(#a)"/>
<path d="m193.12 190.45 105.64 315.96" clip-path="url(#a)"/>
<path d="m193.12 190.45-110.95 315.96" clip-path="url(#a)" stroke-dasharray="3.7,1.6"/>
<path d="m340.16 506.41v155.41" clip-path="url(#a)"/>
<path d="m326.36 190.45 58.392 315.96" clip-path="url(#a)"/>
<path d="m326.36 190.45 185.79 158.39" clip-path="url(#a)"/>
<path d="m326.36 190.45-244.19 315.96" clip-path="url(#a)" stroke-dasharray="3.7,1.6"/>
<path d="m719.18 506.41v155.41" clip-path="url(#a)"/>
<path d="m910.28 190.45-124.22 315.96" clip-path="url(#a)"/>
<path d="m910.28 190.45-54.146 315.96" clip-path="url(#a)"/>
<path d="m910.28 190.45 178.36 158.39" clip-path="url(#a)"/>
<path d="m786.07 506.41v155.41" clip-path="url(#a)"/>
<path d="m856.14 506.41v155.41" clip-path="url(#a)"/>
<path d="m1088.6 348.84 168.81 157.57" clip-path="url(#a)"/>
<path d="m1088.6 348.84-159.25 157.57" clip-path="url(#a)"/>
<path d="m1088.6 348.84-82.811 157.57" clip-path="url(#a)"/>
<path d="m1088.6 348.84-3.185 157.57" clip-path="url(#a)"/>
<path d="m1088.6 348.84 79.626 157.57" clip-path="url(#a)"/>
<path d="m1088.6 348.84 165.62 157.57" clip-path="url(#a)"/>
<path d="m929.4 506.41v155.41" clip-path="url(#a)"/>
<path d="m1005.8 506.41v155.41" clip-path="url(#a)"/>
<path d="m1085.5 506.41v155.41" clip-path="url(#a)"/>
<path d="m1168.3 506.41v155.41" clip-path="url(#a)"/>
<path d="m384.75 506.41v155.41" clip-path="url(#a)"/>
<path d="m512.15 348.84-79.626 157.57" clip-path="url(#a)"/>
<path d="m512.15 348.84-28.665 157.57" clip-path="url(#a)"/>
<path d="m512.15 348.84 25.48 157.57" clip-path="url(#a)"/>
<path d="m512.15 348.84 82.811 157.57" clip-path="url(#a)"/>
<path d="m432.53 506.41v155.41" clip-path="url(#a)"/>
<path d="m483.49 506.41v155.41" clip-path="url(#a)"/>
<path d="m537.64 506.41v155.41" clip-path="url(#a)"/>
<path d="m594.97 506.41v155.41" clip-path="url(#a)"/>
<path d="m164.99 506.41v155.41" clip-path="url(#a)"/>
<path d="m226.56 348.84-32.912 312.97" clip-path="url(#a)"/>
<path d="m226.56 348.84 33.974 312.97" clip-path="url(#a)"/>
<path d="m226.56 348.84-1.0617 157.57" clip-path="url(#a)"/>
<path d="m298.76 506.41v155.41" clip-path="url(#a)"/>
<path d="m75.804 348.84-6.3701 157.57" clip-path="url(#a)"/>
<path d="m75.804 348.84 6.3701 157.57" clip-path="url(#a)"/>
<path d="m98.099 506.41v155.41" clip-path="url(#a)"/>
<path d="m117.21 506.41v155.41" clip-path="url(#a)"/>
<path d="m69.434 506.41v155.41" clip-path="url(#a)"/>
<path d="m82.174 506.41v155.41" clip-path="url(#a)"/>
<path d="m225.5 506.41v155.41" clip-path="url(#a)"/>
<path d="m655.48 506.41v155.41" clip-path="url(#a)"/>
<path d="m1254.3 506.41v155.41" clip-path="url(#a)"/>
</g>
<path d="m225.04 274.33 2.504-3.6877q1.3482-1.9855-0.63736-3.3337l-6.4054-4.3493q-1.9855-1.3482-3.3337 0.63736l-2.504 3.6877q-1.3482 1.9855 0.63736 3.3337l6.4054 4.3493q1.9855 1.3482 3.3337-0.63736z" clip-path="url(#a)" fill="#fff" stroke="#fff"/>
<g clip-path="url(#a)">
<g transform="translate(221.68 272.05) rotate(-55.823) scale(.08 -.08)">
<defs>
<path id="s" d="m9.8125 72.906h9.8594v-64.609h35.5v-8.2969h-45.359z"/>
</defs>
<use xlink:href="#s"/>
</g>
</g>
<path d="m240.11 117.92 5.2557-2.9279q2.0966-1.168 0.92863-3.2646l-3.768-6.7638q-1.168-2.0966-3.2646-0.92863l-5.2557 2.9279q-2.0966 1.168-0.92863 3.2646l3.768 6.7638q1.168 2.0966 3.2646 0.92863z" clip-path="url(#a)" fill="#fff" stroke="#fff"/>
<g clip-path="url(#a)">
<g transform="translate(238.13 114.37) rotate(-29.121) scale(.08 -.08)">
<defs>
<path id="u" d="m9.8125 72.906h9.8594v-29.891h35.844v29.891h9.8594v-72.906h-9.8594v34.719h-35.844v-34.719h-9.8594z"/>
</defs>
<use xlink:href="#u"/>
</g>
</g>
<path d="m265.49 273.8 2.0294-3.9688q1.0926-2.1369-1.0442-3.2295l-6.8936-3.5249q-2.1369-1.0926-3.2295 1.0442l-2.0294 3.9688q-1.0926 2.1369 1.0442 3.2295l6.8936 3.5249q2.1369 1.0926 3.2295-1.0442z" clip-path="url(#a)" fill="#fff" stroke="#fff"/>
<g clip-path="url(#a)">
<g transform="translate(261.87 271.95) rotate(-62.918) scale(.08 -.08)">
<use xlink:href="#s"/>
</g>
</g>
<path d="m289.46 117.72 4.6068-3.8695q1.8377-1.5436 0.2941-3.3813l-4.9798-5.9286q-1.5436-1.8377-3.3813-0.2941l-4.6068 3.8695q-1.8377 1.5436-0.2941 3.3813l4.9798 5.9286q1.5436 1.8377 3.3813 0.2941z" clip-path="url(#a)" fill="#fff" stroke="#fff"/>
<g clip-path="url(#a)">
<g transform="translate(286.84 114.61) rotate(-40.029) scale(.08 -.08)">
<use xlink:href="#u"/>
</g>
</g>
<path d="m367.3 271.74 0.39429-4.44q0.21229-2.3906-2.1783-2.6029l-7.7122-0.68486q-2.3906-0.21229-2.6029 2.1783l-0.39429 4.44q-0.21229 2.3906 2.1783 2.6029l7.7122 0.68486q2.3906 0.21229 2.6029-2.1783z" clip-path="url(#a)" fill="#fff" stroke="#fff"/>
<g clip-path="url(#a)">
<g transform="translate(363.25 271.38) rotate(-84.925) scale(.08 -.08)">
<use xlink:href="#s"/>
</g>
</g>
<path d="m359.26 115.9 1.9985-5.6746q0.79725-2.2637-1.4665-3.061l-7.3028-2.572q-2.2637-0.79725-3.061 1.4665l-1.9985 5.6746q-0.79725 2.2637 1.4665 3.061l7.3028 2.572q2.2637 0.79725 3.061-1.4665z" clip-path="url(#a)" fill="#fff" stroke="#fff"/>
<g clip-path="url(#a)">
<g transform="translate(355.43 114.55) rotate(-70.598) scale(.08 -.08)">
<use xlink:href="#u"/>
</g>
</g>
<path d="m544.35 270.77 2.5789 3.6358q1.3885 1.9576 3.3461 0.56905l6.3152-4.4794q1.9576-1.3885 0.56905-3.3461l-2.5789-3.6358q-1.3885-1.9576-3.3461-0.56905l-6.3152 4.4794q-1.9576 1.3885-0.56905 3.3461z" clip-path="url(#a)" fill="#fff" stroke="#fff"/>
<g clip-path="url(#a)">
<g transform="translate(547.67 268.42) rotate(54.652) scale(.08 -.08)">
<use xlink:href="#s"/>
</g>
</g>
<path d="m641.62 116.12 5.7609 1.7342q2.2981 0.69183 2.99-1.6063l2.2319-7.4138q0.69183-2.2981-1.6063-2.99l-5.7609-1.7342q-2.2981-0.69183-2.99 1.6063l-2.2319 7.4138q-0.69183 2.2981 1.6063 2.99z" clip-path="url(#a)" fill="#fff" stroke="#fff"/>
<g clip-path="url(#a)">
<g transform="translate(642.79 112.23) rotate(16.754) scale(.08 -.08)">
<use xlink:href="#u"/>
</g>
</g>
<path d="m512.01 269.55 2.9192 5.0754q1.1966 2.0804 3.277 0.88382l6.7115-3.8603q2.0804-1.1966 0.88382-3.277l-2.9192-5.0754q-1.1966-2.0804-3.277-0.88382l-6.7115 3.8603q-2.0804 1.1966-0.88382 3.277z" clip-path="url(#a)" fill="#fff" stroke="#fff"/>
<g clip-path="url(#a)">
<g transform="translate(515.54 267.53) rotate(60.094) scale(.08 -.08)">
<defs>
<path id="ae" d="m8.6875 72.906h9.9219v-44.297q0-11.719 4.2344-16.875 4.25-5.1406 13.781-5.1406 9.4688 0 13.719 5.1406 4.25 5.1562 4.25 16.875v44.297h9.9062v-45.516q0-14.25-7.0625-21.531-7.0469-7.2812-20.812-7.2812-13.828 0-20.891 7.2812-7.0469 7.2812-7.0469 21.531z"/>
</defs>
<use xlink:href="#ae"/>
</g>
</g>
<path d="m53.608 567.21v33.808q0 2.4 2.4 2.4h7.7425q2.4 0 2.4-2.4v-33.808q0-2.4-2.4-2.4h-7.7425q-2.4 0-2.4 2.4z" clip-path="url(#a)" fill="#fff" stroke="#fff"/>
<g clip-path="url(#a)">
<g transform="translate(57.671 567.21) rotate(90) scale(.08 -.08)">
<defs>
<path id="k" d="m-0.29688 72.906h61.672v-8.3125h-25.875v-64.594h-9.9062v64.594h-25.891z"/>
<path id="d" d="m56.203 29.594v-4.3906h-41.312q0.59375-9.2812 5.5938-14.141t13.938-4.8594q5.1719 0 10.031 1.2656t9.6562 3.8125v-8.5q-4.8438-2.0469-9.9219-3.125t-10.297-1.0781q-13.094 0-20.734 7.6094-7.6406 7.625-7.6406 20.625 0 13.422 7.25 21.297 7.25 7.8906 19.562 7.8906 11.031 0 17.453-7.1094 6.4219-7.0938 6.4219-19.297zm-8.9844 2.6406q-0.09375 7.3594-4.125 11.75-4.0312 4.4062-10.672 4.4062-7.5156 0-12.031-4.25t-5.2031-11.969z"/>
<path id="g" d="m41.109 46.297q-1.5156 0.875-3.2969 1.2812-1.7812 0.42188-3.9219 0.42188-7.625 0-11.703-4.9531t-4.0781-14.234v-28.812h-9.0312v54.688h9.0312v-8.5q2.8438 4.9844 7.375 7.3906 4.5469 2.4219 11.047 2.4219 0.92188 0 2.0469-0.125 1.125-0.10938 2.4844-0.35938z"/>
<path id="j" d="m52 44.188q3.375 6.0625 8.0625 8.9375t11.031 2.875q8.5469 0 13.188-5.9844 4.6406-5.9688 4.6406-17v-33.016h-9.0312v32.719q0 7.8594-2.7969 11.656-2.7812 3.8125-8.4844 3.8125-6.9844 0-11.047-4.6406-4.0469-4.625-4.0469-12.641v-30.906h-9.0312v32.719q0 7.9062-2.7812 11.688t-8.5938 3.7812q-6.8906 0-10.953-4.6562-4.0469-4.6562-4.0469-12.625v-30.906h-9.0312v54.688h9.0312v-8.5q3.0781 5.0312 7.375 7.4219t10.203 2.3906q5.9688 0 10.141-3.0312 4.1719-3.0156 6.1719-8.7812z"/>
<path id="h" d="m9.4219 54.688h8.9844v-54.688h-8.9844zm0 21.297h8.9844v-11.391h-8.9844z"/>
<path id="i" d="m54.891 33.016v-33.016h-8.9844v32.719q0 7.7656-3.0312 11.609-3.0312 3.8594-9.0781 3.8594-7.2812 0-11.484-4.6406-4.2031-4.625-4.2031-12.641v-30.906h-9.0312v54.688h9.0312v-8.5q3.2344 4.9375 7.5938 7.375 4.375 2.4375 10.094 2.4375 9.4219 0 14.25-5.8281 4.8438-5.8281 4.8438-17.156z"/>
<path id="e" d="m34.281 27.484q-10.891 0-15.094-2.4844t-4.2031-8.5q0-4.7812 3.1562-7.5938 3.1562-2.7969 8.5625-2.7969 7.4844 0 12 5.2969t4.5156 14.078v2zm17.922 3.7188v-31.203h-8.9844v8.2969q-3.0781-4.9688-7.6719-7.3438t-11.234-2.375q-8.3906 0-13.359 4.7188-4.9531 4.7188-4.9531 12.625 0 9.2188 6.1719 13.906 6.1875 4.6875 18.438 4.6875h12.609v0.89062q0 6.2031-4.0781 9.5938t-11.453 3.3906q-4.6875 0-9.1406-1.125-4.4375-1.125-8.5312-3.375v8.3125q4.9219 1.9062 9.5625 2.8438 4.6406 0.95312 9.0312 0.95312 11.875 0 17.734-6.1562 5.8594-6.1406 5.8594-18.641z"/>
<path id="l" d="m9.4219 75.984h8.9844v-75.984h-8.9844z"/>
</defs>
<use xlink:href="#k"/>
<use x="44.083984" xlink:href="#d"/>
<use x="105.607422" xlink:href="#g"/>
<use x="144.970703" xlink:href="#j"/>
<use x="242.382812" xlink:href="#h"/>
<use x="270.166016" xlink:href="#i"/>
<use x="333.544922" xlink:href="#e"/>
<use x="394.824219" xlink:href="#l"/>
</g>
</g>
<path d="m92.273 273.19 0.72711-5.424q0.31888-2.3787-2.0598-2.6976l-7.6739-1.0287q-2.3787-0.31888-2.6976 2.0598l-0.72711 5.424q-0.31888 2.3787 2.0598 2.6976l7.6739 1.0287q2.3787 0.31888 2.6976-2.0598z" clip-path="url(#a)" fill="#fff" stroke="#fff"/>
<g clip-path="url(#a)">
<g transform="translate(88.245 272.65) rotate(-82.365) scale(.08 -.08)">
<defs>
<path id="o" d="m34.188 63.188-13.391-36.281h26.812zm-5.5781 9.7188h11.188l27.781-72.906h-10.25l-6.6406 18.703h-32.859l-6.6406-18.703h-10.406z"/>
</defs>
<use xlink:href="#o"/>
</g>
</g>
<path d="m91.29 346.15 0.015461 4.6012q0.008065 2.4 2.4081 2.3919l7.7425-0.026016q2.4-0.008064 2.3919-2.4081l-0.01546-4.6012q-0.008065-2.4-2.4081-2.3919l-7.7425 0.026016q-2.4 0.008064-2.3919 2.4081z" clip-path="url(#a)" fill="#fff" stroke="#fff"/>
<g clip-path="url(#a)">
<g transform="translate(95.353 346.14) rotate(89.807) scale(.08 -.08)">
<defs>
<path id="v" d="m9.8125 72.906h41.891v-8.3125h-32.031v-21.484h28.906v-8.2969h-28.906v-34.812h-9.8594z"/>
</defs>
<use xlink:href="#v"/>
</g>
</g>
<path d="m100.7 346.3 0.32358 5.0684q0.15291 2.3951 2.548 2.2422l7.7268-0.4933q2.3951-0.15291 2.2422-2.548l-0.32358-5.0684q-0.15291-2.3951-2.548-2.2422l-7.7268 0.4933q-2.3951 0.15291-2.2422 2.548z" clip-path="url(#a)" fill="#fff" stroke="#fff"/>
<g clip-path="url(#a)">
<g transform="translate(104.76 346.04) rotate(86.347) scale(.08 -.08)">
<defs>
<path id="af" d="m53.516 70.516v-9.625q-5.6094 2.6875-10.594 4-4.9844 1.3281-9.625 1.3281-8.0469 0-12.422-3.125t-4.375-8.8906q0-4.8438 2.9062-7.3125 2.9062-2.4531 11.016-3.9688l5.9531-1.2188q11.031-2.1094 16.281-7.4062t5.25-14.172q0-10.609-7.1094-16.078-7.0938-5.4688-20.812-5.4688-5.1719 0-11.016 1.1719-5.8281 1.1719-12.078 3.4688v10.156q6-3.3594 11.766-5.0781 5.7656-1.7031 11.328-1.7031 8.4375 0 13.031 3.3125 4.5938 3.3281 4.5938 9.4844 0 5.3594-3.2969 8.3906t-10.812 4.5469l-6.0156 1.1719q-11.031 2.1875-15.969 6.875-4.9219 4.6875-4.9219 13.047 0 9.6719 6.8125 15.234t18.766 5.5625q5.1406 0 10.453-0.9375 5.3281-0.92188 10.891-2.7656z"/>
</defs>
<use xlink:href="#af"/>
</g>
</g>
<path d="m133.23 567.21v33.808q0 2.4 2.4 2.4h7.7425q2.4 0 2.4-2.4v-33.808q0-2.4-2.4-2.4h-7.7425q-2.4 0-2.4 2.4z" clip-path="url(#a)" fill="#fff" stroke="#fff"/>
<g clip-path="url(#a)">
<g transform="translate(137.3 567.21) rotate(90) scale(.08 -.08)">
<use xlink:href="#k"/>
<use x="44.083984" xlink:href="#d"/>
<use x="105.607422" xlink:href="#g"/>
<use x="144.970703" xlink:href="#j"/>
<use x="242.382812" xlink:href="#h"/>
<use x="270.166016" xlink:href="#i"/>
<use x="333.544922" xlink:href="#e"/>
<use x="394.824219" xlink:href="#l"/>
</g>
</g>
<path d="m185.09 351.28 0.4081-4.5831q0.21286-2.3905-2.1777-2.6034l-7.712-0.6867q-2.3905-0.21286-2.6034 2.1777l-0.4081 4.5831q-0.21286 2.3905 2.1777 2.6034l7.712 0.6867q2.3905 0.21286 2.6034-2.1777z" clip-path="url(#a)" fill="#fff" stroke="#fff"/>
<g clip-path="url(#a)">
<g transform="translate(181.05 350.92) rotate(-84.912) scale(.08 -.08)">
<use xlink:href="#v"/>
</g>
</g>
<path d="m203.07 267.93 1.2725 6.0271q0.4958 2.3482 2.844 1.8524l7.5755-1.5995q2.3482-0.4958 1.8524-2.844l-1.2725-6.0271q-0.4958-2.3482-2.844-1.8524l-7.5755 1.5995q-2.3482 0.4958-1.8524 2.844z" clip-path="url(#a)" fill="#fff" stroke="#fff"/>
<g clip-path="url(#a)">
<g transform="translate(207.05 267.09) rotate(78.078) scale(.08 -.08)">
<defs>
<path id="am" d="m19.672 64.797v-56.688h11.922q15.094 0 22.094 6.8281 7 6.8438 7 21.594 0 14.641-7 21.453t-22.094 6.8125zm-9.8594 8.1094h20.266q21.188 0 31.094-8.8125 9.9219-8.8125 9.9219-27.562 0-18.859-9.9688-27.703-9.9531-8.8281-31.047-8.8281h-20.266z"/>
</defs>
<use xlink:href="#am"/>
</g>
</g>
<path d="m239.23 348.13 1.5295 4.5748q0.761 2.2762 3.0372 1.5152l7.343-2.455q2.2762-0.761 1.5152-3.0372l-1.5295-4.5748q-0.761-2.2762-3.0372-1.5152l-7.343 2.455q-2.2762 0.761-1.5152 3.0372z" clip-path="url(#a)" fill="#fff" stroke="#fff"/>
<g clip-path="url(#a)">
<g transform="translate(243.08 346.84) rotate(71.513) scale(.08 -.08)">
<defs>
<path id="t" d="m19.672 64.797v-27.391h12.406q6.8906 0 10.641 3.5625 3.7656 3.5625 3.7656 10.156 0 6.5469-3.7656 10.109-3.75 3.5625-10.641 3.5625zm-9.8594 8.1094h22.266q12.266 0 18.531-5.5469 6.2812-5.5469 6.2812-16.234 0-10.797-6.2812-16.312-6.2656-5.5156-18.531-5.5156h-12.406v-29.297h-9.8594z"/>
</defs>
<use xlink:href="#t"/>
</g>
</g>
<path d="m142.66 353.09 1.8131-5.1634q0.79513-2.2645-1.4693-3.0596l-7.3052-2.5651q-2.2645-0.79513-3.0596 1.4693l-1.8131 5.1634q-0.79513 2.2645 1.4693 3.0596l7.3052 2.5651q2.2645 0.79513 3.0596-1.4693z" clip-path="url(#a)" fill="#fff" stroke="#fff"/>
<g clip-path="url(#a)">
<g transform="translate(138.82 351.74) rotate(-70.652) scale(.08 -.08)">
<use xlink:href="#o"/>
</g>
</g>
<path d="m333.89 567.21v33.808q0 2.4 2.4 2.4h7.7425q2.4 0 2.4-2.4v-33.808q0-2.4-2.4-2.4h-7.7425q-2.4 0-2.4 2.4z" clip-path="url(#a)" fill="#fff" stroke="#fff"/>
<g clip-path="url(#a)">
<g transform="translate(337.95 567.21) rotate(90) scale(.08 -.08)">
<use xlink:href="#k"/>
<use x="44.083984" xlink:href="#d"/>
<use x="105.607422" xlink:href="#g"/>
<use x="144.970703" xlink:href="#j"/>
<use x="242.382812" xlink:href="#h"/>
<use x="270.166016" xlink:href="#i"/>
<use x="333.544922" xlink:href="#e"/>
<use x="394.824219" xlink:href="#l"/>
</g>
</g>
<path d="m348.93 347.07 0.92296 4.9942q0.43615 2.36 2.7962 1.9239l7.6136-1.407q2.36-0.43615 1.9239-2.7962l-0.92296-4.9942q-0.43615-2.36-2.7962-1.9239l-7.6136 1.407q-2.36 0.43615-1.9239 2.7962z" clip-path="url(#a)" fill="#fff" stroke="#fff"/>
<g clip-path="url(#a)">
<g transform="translate(352.92 346.33) rotate(79.529) scale(.08 -.08)">
<use xlink:href="#af"/>
</g>
</g>
<path d="m413.11 272.64 4.1645 3.5504q1.8264 1.557 3.3834-0.26934l5.0231-5.892q1.557-1.8264-0.26934-3.3834l-4.1645-3.5504q-1.8264-1.557-3.3834 0.26934l-5.0231 5.892q-1.557 1.8264 0.26934 3.3834z" clip-path="url(#a)" fill="#fff" stroke="#fff"/>
<g clip-path="url(#a)">
<g transform="translate(415.74 269.55) rotate(40.449) scale(.08 -.08)">
<use xlink:href="#o"/>
</g>
</g>
<path d="m207.56 354.43 3.3464-4.3301q1.4676-1.899-0.43139-3.3666l-6.1262-4.7345q-1.899-1.4676-3.3666 0.43139l-3.3464 4.3301q-1.4676 1.899 0.43139 3.3666l6.1262 4.7345q1.899 1.4676 3.3666-0.43139z" clip-path="url(#a)" fill="#fff" stroke="#fff"/>
<g clip-path="url(#a)">
<g transform="translate(204.34 351.95) rotate(-52.302) scale(.08 -.08)">
<use xlink:href="#o"/>
</g>
</g>
<path d="m712.91 567.21v33.808q0 2.4 2.4 2.4h7.7425q2.4 0 2.4-2.4v-33.808q0-2.4-2.4-2.4h-7.7425q-2.4 0-2.4 2.4z" clip-path="url(#a)" fill="#fff" stroke="#fff"/>
<g clip-path="url(#a)">
<g transform="translate(716.97 567.21) rotate(90) scale(.08 -.08)">
<use xlink:href="#k"/>
<use x="44.083984" xlink:href="#d"/>
<use x="105.607422" xlink:href="#g"/>
<use x="144.970703" xlink:href="#j"/>
<use x="242.382812" xlink:href="#h"/>
<use x="270.166016" xlink:href="#i"/>
<use x="333.544922" xlink:href="#e"/>
<use x="394.824219" xlink:href="#l"/>
</g>
</g>
<path d="m851.51 357.44 5.2421-13.334q0.87811-2.2336-1.3555-3.1117l-7.4453-2.927q-2.2336-0.87811-3.1117 1.3555l-5.2421 13.334q-0.87811 2.2336 1.3555 3.1117l7.4453 2.927q2.2336 0.87811 3.1117-1.3555z" clip-path="url(#a)" fill="#fff" stroke="#fff"/>
<g clip-path="url(#a)">
<g transform="translate(847.52 355.87) rotate(-68.538) scale(.08 -.08)">
<defs>
<path id="aw" d="m21 76.422v-100h-8.2969v100z"/>
</defs>
<use xlink:href="#o"/>
<use x="68.408203" xlink:href="#aw"/>
<use x="102.099609" xlink:href="#am"/>
</g>
</g>
<path d="m888.99 351.87 0.81476-4.7544q0.40537-2.3655-1.9601-2.7709l-7.6313-1.3077q-2.3655-0.40537-2.7709 1.9601l-0.81476 4.7544q-0.40537 2.3655 1.9601 2.7709l7.6313 1.3077q2.3655 0.40537 2.7709-1.9601z" clip-path="url(#a)" fill="#fff" stroke="#fff"/>
<g clip-path="url(#a)">
<g transform="translate(884.98 351.18) rotate(-80.276) scale(.08 -.08)">
<use xlink:href="#t"/>
</g>
</g>
<path d="m993.26 272.52 4.0919 3.6338q1.7945 1.5936 3.3882-0.2009l5.1411-5.7892q1.5936-1.7945-0.2009-3.3882l-4.0919-3.6338q-1.7945-1.5936-3.3882 0.2009l-5.1411 5.7892q-1.5936 1.7945 0.2009 3.3882z" clip-path="url(#a)" fill="#fff" stroke="#fff"/>
<g clip-path="url(#a)">
<g transform="translate(995.95 269.48) rotate(41.607) scale(.08 -.08)">
<use xlink:href="#o"/>
</g>
</g>
<path d="m779.8 567.21v33.808q0 2.4 2.4 2.4h7.7425q2.4 0 2.4-2.4v-33.808q0-2.4-2.4-2.4h-7.7425q-2.4 0-2.4 2.4z" clip-path="url(#a)" fill="#fff" stroke="#fff"/>
<g clip-path="url(#a)">
<g transform="translate(783.86 567.21) rotate(90) scale(.08 -.08)">
<use xlink:href="#k"/>
<use x="44.083984" xlink:href="#d"/>
<use x="105.607422" xlink:href="#g"/>
<use x="144.970703" xlink:href="#j"/>
<use x="242.382812" xlink:href="#h"/>
<use x="270.166016" xlink:href="#i"/>
<use x="333.544922" xlink:href="#e"/>
<use x="394.824219" xlink:href="#l"/>
</g>
</g>
<path d="m849.87 567.21v33.808q0 2.4 2.4 2.4h7.7425q2.4 0 2.4-2.4v-33.808q0-2.4-2.4-2.4h-7.7425q-2.4 0-2.4 2.4z" clip-path="url(#a)" fill="#fff" stroke="#fff"/>
<g clip-path="url(#a)">
<g transform="translate(853.93 567.21) rotate(90) scale(.08 -.08)">
<use xlink:href="#k"/>
<use x="44.083984" xlink:href="#d"/>
<use x="105.607422" xlink:href="#g"/>
<use x="144.970703" xlink:href="#j"/>
<use x="242.382812" xlink:href="#h"/>
<use x="270.166016" xlink:href="#i"/>
<use x="333.544922" xlink:href="#e"/>
<use x="394.824219" xlink:href="#l"/>
</g>
</g>
<path d="m1166.8 430.35 4.0005 3.7342q1.7545 1.6376 3.3921-0.11681l5.2831-5.6599q1.6376-1.7545-0.11681-3.3921l-4.0005-3.7342q-1.7545-1.6376-3.3921 0.11681l-5.2831 5.6599q-1.6376 1.7545 0.11681 3.3921z" clip-path="url(#a)" fill="#fff" stroke="#fff"/>
<g clip-path="url(#a)">
<g transform="translate(1169.5 427.37) rotate(43.028) scale(.08 -.08)">
<use xlink:href="#o"/>
</g>
</g>
<path d="m1011.5 434.01 3.8902-3.849q1.7061-1.688 0.018039-3.3941l-5.4456-5.5038q-1.688-1.7061-3.3941-0.018039l-3.8902 3.849q-1.7061 1.688-0.018039 3.3941l5.4456 5.5038q1.688 1.7061 3.3941 0.018039z" clip-path="url(#a)" fill="#fff" stroke="#fff"/>
<g clip-path="url(#a)">
<g transform="translate(1008.6 431.12) rotate(-44.695) scale(.08 -.08)">
<use xlink:href="#o"/>
</g>
</g>
<path d="m1051.7 432.58 2.1406-4.073q1.1165-2.1245-1.0079-3.241l-6.8536-3.602q-2.1245-1.1165-3.241 1.0079l-2.1406 4.073q-1.1165 2.1245 1.0079 3.241l6.8536 3.602q2.1245 1.1165 3.241-1.0079z" clip-path="url(#a)" fill="#fff" stroke="#fff"/>
<g clip-path="url(#a)">
<g transform="translate(1048.1 430.69) rotate(-62.276) scale(.08 -.08)">
<use xlink:href="#v"/>
</g>
</g>
<path d="m1093.3 430.17 0.097486-4.8228q0.048503-2.3995-2.351-2.448l-7.7409-0.15647q-2.3995-0.048503-2.448 2.351l-0.097486 4.8228q-0.048503 2.3995 2.351 2.448l7.7409 0.15647q2.3995 0.048503 2.448-2.351z" clip-path="url(#a)" fill="#fff" stroke="#fff"/>
<g clip-path="url(#a)">
<g transform="translate(1089.2 430.08) rotate(-88.842) scale(.08 -.08)">
<use xlink:href="#t"/>
</g>
</g>
<path d="m1121.6 428.01 2.4682 4.8843q1.0825 2.142 3.2245 1.0596l6.9103-3.4921q2.142-1.0825 1.0596-3.2245l-2.4682-4.8843q-1.0825-2.142-3.2245-1.0596l-6.9103 3.4921q-2.142 1.0825-1.0596 3.2245z" clip-path="url(#a)" fill="#fff" stroke="#fff"/>
<g clip-path="url(#a)">
<g transform="translate(1125.3 426.18) rotate(63.191) scale(.08 -.08)">
<use xlink:href="#o"/>
</g>
</g>
<path d="m1165 430.15 4.242 4.0357q1.7388 1.6543 3.3931-0.084555l5.3367-5.6095q1.6543-1.7388-0.084556-3.3931l-4.242-4.0357q-1.7388-1.6543-3.3931 0.084556l-5.3367 5.6095q-1.6543 1.7388 0.084556 3.3931z" clip-path="url(#a)" fill="#fff" stroke="#fff"/>
<g clip-path="url(#a)">
<g transform="translate(1167.8 427.21) rotate(43.572) scale(.08 -.08)">
<use xlink:href="#ae"/>
</g>
</g>
<path d="m923.12 567.21v33.808q0 2.4 2.4 2.4h7.7425q2.4 0 2.4-2.4v-33.808q0-2.4-2.4-2.4h-7.7425q-2.4 0-2.4 2.4z" clip-path="url(#a)" fill="#fff" stroke="#fff"/>
<g clip-path="url(#a)">
<g transform="translate(927.19 567.21) rotate(90) scale(.08 -.08)">
<use xlink:href="#k"/>
<use x="44.083984" xlink:href="#d"/>
<use x="105.607422" xlink:href="#g"/>
<use x="144.970703" xlink:href="#j"/>
<use x="242.382812" xlink:href="#h"/>
<use x="270.166016" xlink:href="#i"/>
<use x="333.544922" xlink:href="#e"/>
<use x="394.824219" xlink:href="#l"/>
</g>
</g>
<path d="m999.56 567.21v33.808q0 2.4 2.4 2.4h7.7425q2.4 0 2.4-2.4v-33.808q0-2.4-2.4-2.4h-7.7425q-2.4 0-2.4 2.4z" clip-path="url(#a)" fill="#fff" stroke="#fff"/>
<g clip-path="url(#a)">
<g transform="translate(1003.6 567.21) rotate(90) scale(.08 -.08)">
<use xlink:href="#k"/>
<use x="44.083984" xlink:href="#d"/>
<use x="105.607422" xlink:href="#g"/>
<use x="144.970703" xlink:href="#j"/>
<use x="242.382812" xlink:href="#h"/>
<use x="270.166016" xlink:href="#i"/>
<use x="333.544922" xlink:href="#e"/>
<use x="394.824219" xlink:href="#l"/>
</g>
</g>
<path d="m1079.2 567.21v33.808q0 2.4 2.4 2.4h7.7425q2.4 0 2.4-2.4v-33.808q0-2.4-2.4-2.4h-7.7425q-2.4 0-2.4 2.4z" clip-path="url(#a)" fill="#fff" stroke="#fff"/>
<g clip-path="url(#a)">
<g transform="translate(1083.3 567.21) rotate(90) scale(.08 -.08)">
<use xlink:href="#k"/>
<use x="44.083984" xlink:href="#d"/>
<use x="105.607422" xlink:href="#g"/>
<use x="144.970703" xlink:href="#j"/>
<use x="242.382812" xlink:href="#h"/>
<use x="270.166016" xlink:href="#i"/>
<use x="333.544922" xlink:href="#e"/>
<use x="394.824219" xlink:href="#l"/>
</g>
</g>
<path d="m1162 567.21v33.808q0 2.4 2.4 2.4h7.7425q2.4 0 2.4-2.4v-33.808q0-2.4-2.4-2.4h-7.7425q-2.4 0-2.4 2.4z" clip-path="url(#a)" fill="#fff" stroke="#fff"/>
<g clip-path="url(#a)">
<g transform="translate(1166.1 567.21) rotate(90) scale(.08 -.08)">
<use xlink:href="#k"/>
<use x="44.083984" xlink:href="#d"/>
<use x="105.607422" xlink:href="#g"/>
<use x="144.970703" xlink:href="#j"/>
<use x="242.382812" xlink:href="#h"/>
<use x="270.166016" xlink:href="#i"/>
<use x="333.544922" xlink:href="#e"/>
<use x="394.824219" xlink:href="#l"/>
</g>
</g>
<path d="m378.48 567.21v33.808q0 2.4 2.4 2.4h7.7425q2.4 0 2.4-2.4v-33.808q0-2.4-2.4-2.4h-7.7425q-2.4 0-2.4 2.4z" clip-path="url(#a)" fill="#fff" stroke="#fff"/>
<g clip-path="url(#a)">
<g transform="translate(382.55 567.21) rotate(90) scale(.08 -.08)">
<use xlink:href="#k"/>
<use x="44.083984" xlink:href="#d"/>
<use x="105.607422" xlink:href="#g"/>
<use x="144.970703" xlink:href="#j"/>
<use x="242.382812" xlink:href="#h"/>
<use x="270.166016" xlink:href="#i"/>
<use x="333.544922" xlink:href="#e"/>
<use x="394.824219" xlink:href="#l"/>
</g>
</g>
<path d="m476.69 432.94 2.5071-4.9612q1.0825-2.142-1.0596-3.2245l-6.9103-3.4921q-2.142-1.0825-3.2245 1.0596l-2.5071 4.9612q-1.0825 2.142 1.0596 3.2245l6.9103 3.4921q2.142 1.0825 3.2245-1.0596z" clip-path="url(#a)" fill="#fff" stroke="#fff"/>
<g clip-path="url(#a)">
<g transform="translate(473.06 431.1) rotate(-63.191) scale(.08 -.08)">
<defs>
<path id="as" d="m44.391 34.188q3.1719-1.0781 6.1719-4.5938t6.0312-9.6719l10.016-19.922h-10.609l-9.3125 18.703q-3.625 7.3281-7.0156 9.7188t-9.25 2.3906h-10.75v-30.812h-9.8594v72.906h22.266q12.5 0 18.656-5.2344 6.1562-5.2188 6.1562-15.766 0-6.8906-3.2031-11.438-3.2031-4.5312-9.2969-6.2812zm-24.719 30.609v-25.875h12.406q7.125 0 10.766 3.2969t3.6406 9.6875-3.6406 9.6406-10.766 3.25z"/>
</defs>
<use xlink:href="#as"/>
</g>
</g>
<path d="m503.54 431.24 0.90477-4.9734q0.42957-2.3612-1.9317-2.7908l-7.6175-1.3858q-2.3612-0.42957-2.7908 1.9317l-0.90477 4.9734q-0.42957 2.3612 1.9317 2.7908l7.6175 1.3858q2.3612 0.42957 2.7908-1.9317z" clip-path="url(#a)" fill="#fff" stroke="#fff"/>
<g clip-path="url(#a)">
<g transform="translate(499.54 430.51) rotate(-79.689) scale(.08 -.08)">
<defs>
<path id="al" d="m9.8125 72.906h46.094v-8.3125h-36.234v-21.578h34.719v-8.2969h-34.719v-26.422h37.109v-8.2969h-46.969z"/>
</defs>
<use xlink:href="#al"/>
</g>
</g>
<path d="m518.3 426.13 0.80696 4.9902q0.38313 2.3692 2.7523 1.9861l7.6432-1.236q2.3692-0.38313 1.9861-2.7523l-0.80696-4.9902q-0.38313-2.3692-2.7523-1.9861l-7.6432 1.236q-2.3692 0.38313-1.9861 2.7523z" clip-path="url(#a)" fill="#fff" stroke="#fff"/>
<g clip-path="url(#a)">
<g transform="translate(522.31 425.49) rotate(80.814) scale(.08 -.08)">
<use xlink:href="#al"/>
</g>
</g>
<path d="m546.71 428.07 2.5988 4.9449q1.1165 2.1245 3.241 1.0079l6.8536-3.602q2.1245-1.1165 1.0079-3.241l-2.5988-4.9449q-1.1165-2.1245-3.241-1.0079l-6.8536 3.602q-2.1245 1.1165-1.0079 3.241z" clip-path="url(#a)" fill="#fff" stroke="#fff"/>
<g clip-path="url(#a)">
<g transform="translate(550.31 426.18) rotate(62.276) scale(.08 -.08)">
<defs>
<path id="ah" d="m64.406 67.281v-10.391q-4.9844 4.6406-10.625 6.9219-5.6406 2.2969-11.984 2.2969-12.5 0-19.141-7.6406t-6.6406-22.094q0-14.406 6.6406-22.047t19.141-7.6406q6.3438 0 11.984 2.2969t10.625 6.9375v-10.312q-5.1719-3.5156-10.969-5.2812-5.7812-1.75-12.219-1.75-16.562 0-26.094 10.125-9.5156 10.141-9.5156 27.672 0 17.578 9.5156 27.703 9.5312 10.141 26.094 10.141 6.5312 0 12.312-1.7344 5.7969-1.7344 10.875-5.2031z"/>
</defs>
<use xlink:href="#ah"/>
</g>
</g>
<path d="m426.26 567.21v33.808q0 2.4 2.4 2.4h7.7425q2.4 0 2.4-2.4v-33.808q0-2.4-2.4-2.4h-7.7425q-2.4 0-2.4 2.4z" clip-path="url(#a)" fill="#fff" stroke="#fff"/>
<g clip-path="url(#a)">
<g transform="translate(430.32 567.21) rotate(90) scale(.08 -.08)">
<use xlink:href="#k"/>
<use x="44.083984" xlink:href="#d"/>
<use x="105.607422" xlink:href="#g"/>
<use x="144.970703" xlink:href="#j"/>
<use x="242.382812" xlink:href="#h"/>
<use x="270.166016" xlink:href="#i"/>
<use x="333.544922" xlink:href="#e"/>
<use x="394.824219" xlink:href="#l"/>
</g>
</g>
<path d="m477.22 567.21v33.808q0 2.4 2.4 2.4h7.7425q2.4 0 2.4-2.4v-33.808q0-2.4-2.4-2.4h-7.7425q-2.4 0-2.4 2.4z" clip-path="url(#a)" fill="#fff" stroke="#fff"/>
<g clip-path="url(#a)">
<g transform="translate(481.28 567.21) rotate(90) scale(.08 -.08)">
<use xlink:href="#k"/>
<use x="44.083984" xlink:href="#d"/>
<use x="105.607422" xlink:href="#g"/>
<use x="144.970703" xlink:href="#j"/>
<use x="242.382812" xlink:href="#h"/>
<use x="270.166016" xlink:href="#i"/>
<use x="333.544922" xlink:href="#e"/>
<use x="394.824219" xlink:href="#l"/>
</g>
</g>
<path d="m531.36 567.21v33.808q0 2.4 2.4 2.4h7.7425q2.4 0 2.4-2.4v-33.808q0-2.4-2.4-2.4h-7.7425q-2.4 0-2.4 2.4z" clip-path="url(#a)" fill="#fff" stroke="#fff"/>
<g clip-path="url(#a)">
<g transform="translate(535.43 567.21) rotate(90) scale(.08 -.08)">
<use xlink:href="#k"/>
<use x="44.083984" xlink:href="#d"/>
<use x="105.607422" xlink:href="#g"/>
<use x="144.970703" xlink:href="#j"/>
<use x="242.382812" xlink:href="#h"/>
<use x="270.166016" xlink:href="#i"/>
<use x="333.544922" xlink:href="#e"/>
<use x="394.824219" xlink:href="#l"/>
</g>
</g>
<path d="m588.69 567.21v33.808q0 2.4 2.4 2.4h7.7425q2.4 0 2.4-2.4v-33.808q0-2.4-2.4-2.4h-7.7425q-2.4 0-2.4 2.4z" clip-path="url(#a)" fill="#fff" stroke="#fff"/>
<g clip-path="url(#a)">
<g transform="translate(592.76 567.21) rotate(90) scale(.08 -.08)">
<use xlink:href="#k"/>
<use x="44.083984" xlink:href="#d"/>
<use x="105.607422" xlink:href="#g"/>
<use x="144.970703" xlink:href="#j"/>
<use x="242.382812" xlink:href="#h"/>
<use x="270.166016" xlink:href="#i"/>
<use x="333.544922" xlink:href="#e"/>
<use x="394.824219" xlink:href="#l"/>
</g>
</g>
<path d="m158.71 567.21v33.808q0 2.4 2.4 2.4h7.7425q2.4 0 2.4-2.4v-33.808q0-2.4-2.4-2.4h-7.7425q-2.4 0-2.4 2.4z" clip-path="url(#a)" fill="#fff" stroke="#fff"/>
<g clip-path="url(#a)">
<g transform="translate(162.78 567.21) rotate(90) scale(.08 -.08)">
<use xlink:href="#k"/>
<use x="44.083984" xlink:href="#d"/>
<use x="105.607422" xlink:href="#g"/>
<use x="144.970703" xlink:href="#j"/>
<use x="242.382812" xlink:href="#h"/>
<use x="270.166016" xlink:href="#i"/>
<use x="333.544922" xlink:href="#e"/>
<use x="394.824219" xlink:href="#l"/>
</g>
</g>
<path d="m214.58 522.8 3.5357-33.622q0.251-2.3868-2.1358-2.6378l-7.7-0.80973q-2.3868-0.251-2.6378 2.1358l-3.5357 33.622q-0.251 2.3868 2.1358 2.6378l7.7 0.80973q2.3868 0.251 2.6378-2.1358z" clip-path="url(#a)" fill="#fff" stroke="#fff"/>
<g clip-path="url(#a)">
<g transform="translate(210.53 522.37) rotate(-83.997) scale(.08 -.08)">
<use xlink:href="#k"/>
<use x="44.083984" xlink:href="#d"/>
<use x="105.607422" xlink:href="#g"/>
<use x="144.970703" xlink:href="#j"/>
<use x="242.382812" xlink:href="#h"/>
<use x="270.166016" xlink:href="#i"/>
<use x="333.544922" xlink:href="#e"/>
<use x="394.824219" xlink:href="#l"/>
</g>
</g>
<path d="m235.49 489.2 3.6484 33.61q0.259 2.386 2.645 2.127l7.6973-0.83555q2.386-0.259 2.127-2.645l-3.6484-33.61q-0.259-2.386-2.645-2.127l-7.6973 0.83555q-2.386 0.259-2.127 2.645z" clip-path="url(#a)" fill="#fff" stroke="#fff"/>
<g clip-path="url(#a)">
<g transform="translate(239.53 488.76) rotate(83.805) scale(.08 -.08)">
<use xlink:href="#k"/>
<use x="44.083984" xlink:href="#d"/>
<use x="105.607422" xlink:href="#g"/>
<use x="144.970703" xlink:href="#j"/>
<use x="242.382812" xlink:href="#h"/>
<use x="270.166016" xlink:href="#i"/>
<use x="333.544922" xlink:href="#e"/>
<use x="394.824219" xlink:href="#l"/>
</g>
</g>
<path d="m232.28 430.6 0.03945-5.8549q0.01617-2.3999-2.3838-2.4161l-7.7423-0.052167q-2.3999-0.016171-2.4161 2.3838l-0.03945 5.8549q-0.016171 2.3999 2.3838 2.4161l7.7423 0.052167q2.3999 0.016171 2.4161-2.3838z" clip-path="url(#a)" fill="#fff" stroke="#fff"/>
<g clip-path="url(#a)">
<g transform="translate(228.22 430.57) rotate(-89.614) scale(.08 -.08)">
<use xlink:href="#ae"/>
</g>
</g>
<path d="m292.49 567.21v33.808q0 2.4 2.4 2.4h7.7425q2.4 0 2.4-2.4v-33.808q0-2.4-2.4-2.4h-7.7425q-2.4 0-2.4 2.4z" clip-path="url(#a)" fill="#fff" stroke="#fff"/>
<g clip-path="url(#a)">
<g transform="translate(296.55 567.21) rotate(90) scale(.08 -.08)">
<use xlink:href="#k"/>
<use x="44.083984" xlink:href="#d"/>
<use x="105.607422" xlink:href="#g"/>
<use x="144.970703" xlink:href="#j"/>
<use x="242.382812" xlink:href="#h"/>
<use x="270.166016" xlink:href="#i"/>
<use x="333.544922" xlink:href="#e"/>
<use x="394.824219" xlink:href="#l"/>
</g>
</g>
<path d="m78.792 430.18 0.18586-4.5975q0.096947-2.398-2.3011-2.495l-7.7362-0.31275q-2.398-0.096946-2.495 2.3011l-0.18586 4.5975q-0.096947 2.398 2.3011 2.495l7.7362 0.31275q2.398 0.096947 2.495-2.3011z" clip-path="url(#a)" fill="#fff" stroke="#fff"/>
<g clip-path="url(#a)">
<g transform="translate(74.732 430.02) rotate(-87.685) scale(.08 -.08)">
<use xlink:href="#v"/>
</g>
</g>
<path d="m72.61 425.09 0.22565 5.5817q0.096946 2.398 2.495 2.3011l7.7362-0.31275q2.398-0.096947 2.3011-2.495l-0.22565-5.5817q-0.096947-2.398-2.495-2.3011l-7.7362 0.31275q-2.398 0.096947-2.3011 2.495z" clip-path="url(#a)" fill="#fff" stroke="#fff"/>
<g clip-path="url(#a)">
<g transform="translate(76.671 424.93) rotate(87.685) scale(.08 -.08)">
<use xlink:href="#ah"/>
</g>
</g>
<path d="m91.828 567.21v33.808q0 2.4 2.4 2.4h7.7425q2.4 0 2.4-2.4v-33.808q0-2.4-2.4-2.4h-7.7425q-2.4 0-2.4 2.4z" clip-path="url(#a)" fill="#fff" stroke="#fff"/>
<g clip-path="url(#a)">
<g transform="translate(95.892 567.21) rotate(90) scale(.08 -.08)">
<use xlink:href="#k"/>
<use x="44.083984" xlink:href="#d"/>
<use x="105.607422" xlink:href="#g"/>
<use x="144.970703" xlink:href="#j"/>
<use x="242.382812" xlink:href="#h"/>
<use x="270.166016" xlink:href="#i"/>
<use x="333.544922" xlink:href="#e"/>
<use x="394.824219" xlink:href="#l"/>
</g>
</g>
<path d="m110.94 567.21v33.808q0 2.4 2.4 2.4h7.7425q2.4 0 2.4-2.4v-33.808q0-2.4-2.4-2.4h-7.7425q-2.4 0-2.4 2.4z" clip-path="url(#a)" fill="#fff" stroke="#fff"/>
<g clip-path="url(#a)">
<g transform="translate(115 567.21) rotate(90) scale(.08 -.08)">
<use xlink:href="#k"/>
<use x="44.083984" xlink:href="#d"/>
<use x="105.607422" xlink:href="#g"/>
<use x="144.970703" xlink:href="#j"/>
<use x="242.382812" xlink:href="#h"/>
<use x="270.166016" xlink:href="#i"/>
<use x="333.544922" xlink:href="#e"/>
<use x="394.824219" xlink:href="#l"/>
</g>
</g>
<path d="m63.163 567.21v33.808q0 2.4 2.4 2.4h7.7425q2.4 0 2.4-2.4v-33.808q0-2.4-2.4-2.4h-7.7425q-2.4 0-2.4 2.4z" clip-path="url(#a)" fill="#fff" stroke="#fff"/>
<g clip-path="url(#a)">
<g transform="translate(67.226 567.21) rotate(90) scale(.08 -.08)">
<use xlink:href="#k"/>
<use x="44.083984" xlink:href="#d"/>
<use x="105.607422" xlink:href="#g"/>
<use x="144.970703" xlink:href="#j"/>
<use x="242.382812" xlink:href="#h"/>
<use x="270.166016" xlink:href="#i"/>
<use x="333.544922" xlink:href="#e"/>
<use x="394.824219" xlink:href="#l"/>
</g>
</g>
<path d="m75.903 567.21v33.808q0 2.4 2.4 2.4h7.7425q2.4 0 2.4-2.4v-33.808q0-2.4-2.4-2.4h-7.7425q-2.4 0-2.4 2.4z" clip-path="url(#a)" fill="#fff" stroke="#fff"/>
<g clip-path="url(#a)">
<g transform="translate(79.967 567.21) rotate(90) scale(.08 -.08)">
<use xlink:href="#k"/>
<use x="44.083984" xlink:href="#d"/>
<use x="105.607422" xlink:href="#g"/>
<use x="144.970703" xlink:href="#j"/>
<use x="242.382812" xlink:href="#h"/>
<use x="270.166016" xlink:href="#i"/>
<use x="333.544922" xlink:href="#e"/>
<use x="394.824219" xlink:href="#l"/>
</g>
</g>
<path d="m219.23 567.21v33.808q0 2.4 2.4 2.4h7.7425q2.4 0 2.4-2.4v-33.808q0-2.4-2.4-2.4h-7.7425q-2.4 0-2.4 2.4z" clip-path="url(#a)" fill="#fff" stroke="#fff"/>
<g clip-path="url(#a)">
<g transform="translate(223.29 567.21) rotate(90) scale(.08 -.08)">
<use xlink:href="#k"/>
<use x="44.083984" xlink:href="#d"/>
<use x="105.607422" xlink:href="#g"/>
<use x="144.970703" xlink:href="#j"/>
<use x="242.382812" xlink:href="#h"/>
<use x="270.166016" xlink:href="#i"/>
<use x="333.544922" xlink:href="#e"/>
<use x="394.824219" xlink:href="#l"/>
</g>
</g>
<path d="m649.21 567.21v33.808q0 2.4 2.4 2.4h7.7425q2.4 0 2.4-2.4v-33.808q0-2.4-2.4-2.4h-7.7425q-2.4 0-2.4 2.4z" clip-path="url(#a)" fill="#fff" stroke="#fff"/>
<g clip-path="url(#a)">
<g transform="translate(653.27 567.21) rotate(90) scale(.08 -.08)">
<use xlink:href="#k"/>
<use x="44.083984" xlink:href="#d"/>
<use x="105.607422" xlink:href="#g"/>
<use x="144.970703" xlink:href="#j"/>
<use x="242.382812" xlink:href="#h"/>
<use x="270.166016" xlink:href="#i"/>
<use x="333.544922" xlink:href="#e"/>
<use x="394.824219" xlink:href="#l"/>
</g>
</g>
<path d="m1248 567.21v33.808q0 2.4 2.4 2.4h7.7425q2.4 0 2.4-2.4v-33.808q0-2.4-2.4-2.4h-7.7425q-2.4 0-2.4 2.4z" clip-path="url(#a)" fill="#fff" stroke="#fff"/>
<g clip-path="url(#a)">
<g transform="translate(1252.1 567.21) rotate(90) scale(.08 -.08)">
<use xlink:href="#k"/>
<use x="44.083984" xlink:href="#d"/>
<use x="105.607422" xlink:href="#g"/>
<use x="144.970703" xlink:href="#j"/>
<use x="242.382812" xlink:href="#h"/>
<use x="270.166016" xlink:href="#i"/>
<use x="333.544922" xlink:href="#e"/>
<use x="394.824219" xlink:href="#l"/>
</g>
</g>
<defs>
<path id="b" d="m0 8.6603c2.2967 0 4.4997-0.9125 6.1237-2.5365 1.624-1.624 2.5365-3.827 2.5365-6.1237s-0.9125-4.4997-2.5365-6.1237c-1.624-1.624-3.827-2.5365-6.1237-2.5365s-4.4997 0.9125-6.1237 2.5365c-1.624 1.624-2.5365 3.827-2.5365 6.1237s0.9125 4.4997 2.5365 6.1237c1.624 1.624 3.827 2.5365 6.1237 2.5365z"/>
</defs>
<g clip-path="url(#a)" fill="#ffffff" stroke="#ffffff">
<use x="59.878788" y="661.818182" xlink:href="#b"/>
<use x="69.433914" y="661.818182" xlink:href="#b"/>
<use x="82.174081" y="661.818182" xlink:href="#b"/>
<use x="98.099291" y="661.818182" xlink:href="#b"/>
<use x="117.209542" y="661.818182" xlink:href="#b"/>
<use x="139.504836" y="661.818182" xlink:href="#b"/>
<use x="164.985171" y="661.818182" xlink:href="#b"/>
<use x="193.650548" y="661.818182" xlink:href="#b"/>
<use x="225.500967" y="661.818182" xlink:href="#b"/>
<use x="260.536428" y="661.818182" xlink:href="#b"/>
<use x="298.756931" y="661.818182" xlink:href="#b"/>
<use x="340.162476" y="661.818182" xlink:href="#b"/>
<use x="384.753063" y="661.818182" xlink:href="#b"/>
<use x="432.528691" y="661.818182" xlink:href="#b"/>
<use x="483.489362" y="661.818182" xlink:href="#b"/>
<use x="537.635074" y="661.818182" xlink:href="#b"/>
<use x="594.965828" y="661.818182" xlink:href="#b"/>
<use x="655.481625" y="661.818182" xlink:href="#b"/>
<use x="719.182463" y="661.818182" xlink:href="#b"/>
<use x="786.068343" y="661.818182" xlink:href="#b"/>
<use x="856.139265" y="661.818182" xlink:href="#b"/>
<use x="929.395229" y="661.818182" xlink:href="#b"/>
<use x="1005.836235" y="661.818182" xlink:href="#b"/>
<use x="1085.462282" y="661.818182" xlink:href="#b"/>
<use x="1168.273372" y="661.818182" xlink:href="#b"/>
<use x="1254.269504" y="661.818182" xlink:href="#b"/>
<use x="1257.454545" y="506.411816" xlink:href="#b"/>
<use x="382.33479" y="31.515152" xlink:href="#b"/>
<use x="59.878788" y="506.411816" xlink:href="#b"/>
<use x="97.03761" y="190.448906" xlink:href="#b"/>
<use x="139.504836" y="506.411816" xlink:href="#b"/>
<use x="193.119708" y="190.448906" xlink:href="#b"/>
<use x="340.162476" y="506.411816" xlink:href="#b"/>
<use x="326.360628" y="190.448906" xlink:href="#b"/>
<use x="719.182463" y="506.411816" xlink:href="#b"/>
<use x="910.284977" y="190.448906" xlink:href="#b"/>
<use x="786.068343" y="506.411816" xlink:href="#b"/>
<use x="856.139265" y="506.411816" xlink:href="#b"/>
<use x="1088.647324" y="348.843577" xlink:href="#b"/>
<use x="929.395229" y="506.411816" xlink:href="#b"/>
<use x="1005.836235" y="506.411816" xlink:href="#b"/>
<use x="1085.462282" y="506.411816" xlink:href="#b"/>
<use x="1168.273372" y="506.411816" xlink:href="#b"/>
<use x="384.753063" y="506.411816" xlink:href="#b"/>
<use x="512.154739" y="348.843577" xlink:href="#b"/>
<use x="432.528691" y="506.411816" xlink:href="#b"/>
<use x="483.489362" y="506.411816" xlink:href="#b"/>
<use x="537.635074" y="506.411816" xlink:href="#b"/>
<use x="594.965828" y="506.411816" xlink:href="#b"/>
<use x="164.985171" y="506.411816" xlink:href="#b"/>
<use x="226.562648" y="348.843577" xlink:href="#b"/>
<use x="298.756931" y="506.411816" xlink:href="#b"/>
<use x="75.803997" y="348.843577" xlink:href="#b"/>
<use x="98.099291" y="506.411816" xlink:href="#b"/>
<use x="117.209542" y="506.411816" xlink:href="#b"/>
<use x="69.433914" y="506.411816" xlink:href="#b"/>
<use x="82.174081" y="506.411816" xlink:href="#b"/>
<use x="225.500967" y="506.411816" xlink:href="#b"/>
<use x="655.481625" y="506.411816" xlink:href="#b"/>
<use x="1254.269504" y="506.411816" xlink:href="#b"/>
</g>
<g clip-path="url(#a)">
<g transform="translate(53.645 664.58) scale(.1 -.1)">
<defs>
<path id="p" d="m30.609 48.391q-7.2188 0-11.422-5.6406t-4.2031-15.453 4.1719-15.453q4.1875-5.6406 11.453-5.6406 7.1875 0 11.375 5.6562 4.2031 5.6719 4.2031 15.438 0 9.7188-4.2031 15.406-4.1875 5.6875-11.375 5.6875zm0 7.6094q11.719 0 18.406-7.625 6.7031-7.6094 6.7031-21.078 0-13.422-6.7031-21.078-6.6875-7.6406-18.406-7.6406-11.766 0-18.438 7.6406-6.6562 7.6562-6.6562 21.078 0 13.469 6.6562 21.078 6.6719 7.625 18.438 7.625z"/>
</defs>
<use xlink:href="#af"/>
<use x="63.476562" xlink:href="#p"/>
</g>
</g>
<g clip-path="url(#a)">
<g transform="translate(61.228 664.58) scale(.1 -.1)">
<defs>
<path id="q" d="m18.312 70.219v-15.531h18.5v-6.9844h-18.5v-29.688q0-6.6875 1.8281-8.5938t7.4531-1.9062h9.2188v-7.5156h-9.2188q-10.406 0-14.359 3.875-3.9531 3.8906-3.9531 14.141v29.688h-6.5938v6.9844h6.5938v15.531z"/>
<path id="ab" d="m54.891 33.016v-33.016h-8.9844v32.719q0 7.7656-3.0312 11.609-3.0312 3.8594-9.0781 3.8594-7.2812 0-11.484-4.6406-4.2031-4.625-4.2031-12.641v-30.906h-9.0312v75.984h9.0312v-29.797q3.2344 4.9375 7.5938 7.375 4.375 2.4375 10.094 2.4375 9.4219 0 14.25-5.8281 4.8438-5.8281 4.8438-17.156z"/>
</defs>
<use xlink:href="#q"/>
<use x="39.208984" xlink:href="#ab"/>
<use x="102.587891" xlink:href="#d"/>
</g>
</g>
<g clip-path="url(#a)">
<g transform="translate(65.694 664.58) scale(.1 -.1)">
<defs>
<path id="r" d="m37.109 75.984v-7.4844h-8.5938q-4.8281 0-6.7188-1.9531-1.875-1.9531-1.875-7.0312v-4.8281h14.797v-6.9844h-14.797v-47.703h-9.0312v47.703h-8.5938v6.9844h8.5938v3.8125q0 9.125 4.25 13.297 4.25 4.1875 13.469 4.1875z"/>
<path id="ac" d="m45.406 27.984q0 9.7656-4.0312 15.125-4.0156 5.375-11.297 5.375-7.2188 0-11.25-5.375-4.0312-5.3594-4.0312-15.125 0-9.7188 4.0312-15.094t11.25-5.375q7.2812 0 11.297 5.375 4.0312 5.375 4.0312 15.094zm8.9844-21.203q0-13.953-6.2031-20.766-6.1875-6.8125-18.984-6.8125-4.7344 0-8.9375 0.70312t-8.1562 2.1719v8.7344q3.9531-2.1406 7.8125-3.1562 3.8594-1.0312 7.8594-1.0312 8.8438 0 13.234 4.6094t4.3906 13.938v4.4531q-2.7812-4.8438-7.125-7.2344t-10.406-2.3906q-10.047 0-16.203 7.6562-6.1562 7.6719-6.1562 20.328 0 12.688 6.1562 20.344 6.1562 7.6719 16.203 7.6719 6.0625 0 10.406-2.3906t7.125-7.2188v8.2969h8.9844z"/>
</defs>
<use xlink:href="#r"/>
<use x="35.205078" xlink:href="#g"/>
<use x="76.318359" xlink:href="#h"/>
<use x="104.101562" xlink:href="#ac"/>
<use x="167.578125" xlink:href="#e"/>
<use x="228.857422" xlink:href="#q"/>
<use x="268.066406" xlink:href="#d"/>
</g>
</g>
<g clip-path="url(#a)">
<g transform="translate(88.341 664.58) scale(.1 -.1)">
<defs>
<path id="z" d="m4.2031 54.688h8.9844l11.234-42.672 11.172 42.672h10.594l11.234-42.672 11.188 42.672h8.9844l-14.312-54.688h-10.594l-11.766 44.828-11.812-44.828h-10.609z"/>
<path id="aa" d="m44.281 53.078v-8.5q-3.7969 1.9531-7.9062 2.9219-4.0938 0.98438-8.5 0.98438-6.6875 0-10.031-2.0469t-3.3438-6.1562q0-3.125 2.3906-4.9062t9.625-3.3906l3.0781-0.6875q9.5625-2.0469 13.594-5.7812t4.0312-10.422q0-7.625-6.0312-12.078-6.0312-4.4375-16.578-4.4375-4.3906 0-9.1562 0.85938t-10.031 2.5625v9.2812q4.9844-2.5938 9.8125-3.8906 4.8281-1.2812 9.5781-1.2812 6.3438 0 9.75 2.1719 3.4219 2.1719 3.4219 6.125 0 3.6562-2.4688 5.6094-2.4531 1.9531-10.812 3.7656l-3.125 0.73438q-8.3438 1.75-12.062 5.3906-3.7031 3.6406-3.7031 9.9844 0 7.7188 5.4688 11.906 5.4688 4.2031 15.531 4.2031 4.9688 0 9.3594-0.73438 4.4062-0.71875 8.1094-2.1875z"/>
</defs>
<use xlink:href="#z"/>
<use x="81.787109" xlink:href="#e"/>
<use x="143.066406" xlink:href="#aa"/>
</g>
</g>
<g clip-path="url(#a)">
<g transform="translate(93.802 664.58) scale(.1 -.1)">
<defs>
<path id="ay" d="m14.797 27.297q0-9.9062 4.0781-15.547t11.203-5.6406 11.219 5.6406q4.1094 5.6406 4.1094 15.547t-4.1094 15.547q-4.0938 5.6406-11.219 5.6406t-11.203-5.6406-4.0781-15.547zm30.609-19.094q-2.8281-4.875-7.1562-7.25-4.3125-2.375-10.375-2.375-9.9062 0-16.141 7.9062-6.2188 7.9219-6.2188 20.812t6.2188 20.797q6.2344 7.9062 16.141 7.9062 6.0625 0 10.375-2.375 4.3281-2.3594 7.1562-7.2344v8.2969h8.9844v-75.484h-8.9844z"/>
<path id="aq" d="m8.5 21.578v33.109h8.9844v-32.766q0-7.7656 3.0156-11.656 3.0312-3.875 9.0938-3.875 7.2656 0 11.484 4.6406 4.2344 4.6406 4.2344 12.656v31h8.9844v-54.688h-8.9844v8.4062q-3.2656-4.9844-7.5938-7.4062-4.3125-2.4219-10.031-2.4219-9.4219 0-14.312 5.8594-4.875 5.8594-4.875 17.141z"/>
<path id="ar" d="m18.109 8.2031v-29h-9.0312v75.484h9.0312v-8.2969q2.8438 4.875 7.1562 7.2344 4.3281 2.375 10.328 2.375 9.9688 0 16.188-7.9062 6.2344-7.9062 6.2344-20.797t-6.2344-20.812q-6.2188-7.9062-16.188-7.9062-6 0-10.328 2.375-4.3125 2.375-7.1562 7.25zm30.578 19.094q0 9.9062-4.0781 15.547t-11.203 5.6406q-7.1406 0-11.219-5.6406t-4.0781-15.547 4.0781-15.547 11.219-5.6406q7.125 0 11.203 5.6406t4.0781 15.547z"/>
<path id="ad" d="m45.406 46.391v29.594h8.9844v-75.984h-8.9844v8.2031q-2.8281-4.875-7.1562-7.25-4.3125-2.375-10.375-2.375-9.9062 0-16.141 7.9062-6.2188 7.9219-6.2188 20.812t6.2188 20.797q6.2344 7.9062 16.141 7.9062 6.0625 0 10.375-2.375 4.3281-2.3594 7.1562-7.2344zm-30.609-19.094q0-9.9062 4.0781-15.547t11.203-5.6406 11.219 5.6406q4.1094 5.6406 4.1094 15.547t-4.1094 15.547q-4.0938 5.6406-11.219 5.6406t-11.203-5.6406-4.0781-15.547z"/>
</defs>
<use xlink:href="#d"/>
<use x="61.523438" xlink:href="#ay"/>
<use x="125" xlink:href="#aq"/>
<use x="188.378906" xlink:href="#h"/>
<use x="216.162109" xlink:href="#ar"/>
<use x="279.638672" xlink:href="#ar"/>
<use x="343.115234" xlink:href="#d"/>
<use x="404.638672" xlink:href="#ad"/>
</g>
</g>
<g clip-path="url(#a)">
<g transform="translate(132.63 664.58) scale(.1 -.1)">
<use xlink:href="#r"/>
<use x="35.205078" xlink:href="#p"/>
<use x="96.386719" xlink:href="#g"/>
</g>
</g>
<g clip-path="url(#a)">
<g transform="translate(161.92 664.58) scale(.1 -.1)">
<use xlink:href="#e"/>
</g>
</g>
<g clip-path="url(#a)">
<g transform="translate(186.77 664.58) scale(.1 -.1)">
<use xlink:href="#r"/>
<use x="35.205078" xlink:href="#e"/>
<use x="96.484375" xlink:href="#g"/>
</g>
</g>
<g clip-path="url(#a)">
<g transform="translate(223.7 664.58) scale(.1 -.1)">
<defs>
<path id="au" d="m4.8906 31.391h26.312v-8h-26.312z"/>
</defs>
<use xlink:href="#au"/>
</g>
</g>
<g clip-path="url(#a)">
<g transform="translate(253.96 664.58) scale(.1 -.1)">
<use xlink:href="#p"/>
<use x="61.181641" xlink:href="#r"/>
<use x="96.386719" xlink:href="#r"/>
</g>
</g>
<g clip-path="url(#a)">
<g transform="translate(280.46 664.58) scale(.1 -.1)">
<defs>
<path id="ax" d="m2.9844 54.688h9.5156l17.094-45.891 17.094 45.891h9.5156l-20.516-54.688h-12.203z"/>
<path id="ap" d="m32.172-5.0781q-3.7969-9.7656-7.4219-12.734-3.6094-2.9844-9.6562-2.9844h-7.1875v7.5156h5.2812q3.7031 0 5.75 1.7656 2.0625 1.75 4.5469 8.2969l1.6094 4.0938-22.109 53.812h9.5156l17.094-42.766 17.094 42.766h9.5156z"/>
</defs>
<use xlink:href="#ax"/>
<use x="59.179688" xlink:href="#p"/>
<use x="120.361328" xlink:href="#ap"/>
<use x="179.541016" xlink:href="#e"/>
<use x="240.820312" xlink:href="#ac"/>
<use x="304.296875" xlink:href="#d"/>
</g>
</g>
<g clip-path="url(#a)">
<g transform="translate(330.76 664.58) scale(.1 -.1)">
<use xlink:href="#e"/>
<use x="61.279297" xlink:href="#i"/>
<use x="124.658203" xlink:href="#ad"/>
</g>
</g>
<g clip-path="url(#a)">
<g transform="translate(368.6 664.58) scale(.1 -.1)">
<use xlink:href="#e"/>
<use x="61.279297" xlink:href="#g"/>
<use x="100.642578" xlink:href="#j"/>
<use x="198.054688" xlink:href="#d"/>
<use x="259.578125" xlink:href="#ad"/>
</g>
</g>
<g clip-path="url(#a)">
<g transform="translate(421.92 664.58) scale(.1 -.1)">
<use xlink:href="#z"/>
<use x="81.787109" xlink:href="#h"/>
<use x="109.570312" xlink:href="#q"/>
<use x="148.779297" xlink:href="#ab"/>
</g>
</g>
<g clip-path="url(#a)">
<g transform="translate(459.92 664.58) scale(.1 -.1)">
<use xlink:href="#r"/>
<use x="35.205078" xlink:href="#d"/>
<use x="96.728516" xlink:href="#e"/>
<use x="158.007812" xlink:href="#g"/>
<use x="199.121094" xlink:href="#aa"/>
<use x="251.220703" xlink:href="#p"/>
<use x="312.402344" xlink:href="#j"/>
<use x="409.814453" xlink:href="#d"/>
</g>
</g>
<g clip-path="url(#a)">
<g transform="translate(520.98 664.58) scale(.1 -.1)">
<use xlink:href="#r"/>
<use x="35.205078" xlink:href="#h"/>
<use x="62.988281" xlink:href="#aa"/>
<use x="115.087891" xlink:href="#ab"/>
<use x="178.466797" xlink:href="#h"/>
<use x="206.25" xlink:href="#i"/>
<use x="269.628906" xlink:href="#ac"/>
</g>
</g>
<g clip-path="url(#a)">
<g transform="translate(583.6 664.58) scale(.1 -.1)">
<use xlink:href="#ac"/>
<use x="63.476562" xlink:href="#d"/>
<use x="125" xlink:href="#e"/>
<use x="186.279297" xlink:href="#g"/>
</g>
</g>
<g clip-path="url(#a)">
<g transform="translate(653.89 664.58) scale(.1 -.1)">
<defs>
<path id="av" d="m11.719 12.406h10.297v-8.4062l-8-15.625h-6.2969l4 15.625z"/>
</defs>
<use xlink:href="#av"/>
</g>
</g>
<g clip-path="url(#a)">
<g transform="translate(710.88 664.58) scale(.1 -.1)">
<defs>
<path id="ak" d="m48.688 27.297q0 9.9062-4.0781 15.547t-11.203 5.6406q-7.1406 0-11.219-5.6406t-4.0781-15.547 4.0781-15.547 11.219-5.6406q7.125 0 11.203 5.6406t4.0781 15.547zm-30.578 19.094q2.8438 4.875 7.1562 7.2344 4.3281 2.375 10.328 2.375 9.9688 0 16.188-7.9062 6.2344-7.9062 6.2344-20.797t-6.2344-20.812q-6.2188-7.9062-16.188-7.9062-6 0-10.328 2.375-4.3125 2.375-7.1562 7.25v-8.2031h-9.0312v75.984h9.0312z"/>
</defs>
<use xlink:href="#ak"/>
<use x="63.476562" xlink:href="#aq"/>
<use x="126.855469" xlink:href="#q"/>
</g>
</g>
<g clip-path="url(#a)">
<g transform="translate(767.47 664.58) scale(.1 -.1)">
<use xlink:href="#i"/>
<use x="63.378906" xlink:href="#p"/>
<use x="124.560547" xlink:href="#ak"/>
<use x="188.037109" xlink:href="#p"/>
<use x="249.21875" xlink:href="#ad"/>
<use x="312.695312" xlink:href="#ap"/>
</g>
</g>
<g clip-path="url(#a)">
<g transform="translate(842.91 664.58) scale(.1 -.1)">
<defs>
<path id="az" d="m9.0781 75.984h9.0312v-44.875l26.812 23.578h11.469l-29-25.578 30.234-29.109h-11.719l-27.797 26.703v-26.703h-9.0312z"/>
</defs>
<use xlink:href="#az"/>
<use x="57.910156" xlink:href="#i"/>
<use x="121.289062" xlink:href="#d"/>
<use x="182.8125" xlink:href="#z"/>
</g>
</g>
<g clip-path="url(#a)">
<g transform="translate(914.04 664.58) scale(.1 -.1)">
<use xlink:href="#z"/>
<use x="81.787109" xlink:href="#ab"/>
<use x="145.166016" xlink:href="#d"/>
<use x="206.689453" xlink:href="#g"/>
<use x="245.552734" xlink:href="#d"/>
</g>
</g>
<g clip-path="url(#a)">
<g transform="translate(1000.8 664.58) scale(.1 -.1)">
<use xlink:href="#q"/>
<use x="39.208984" xlink:href="#p"/>
</g>
</g>
<g clip-path="url(#a)">
<g transform="translate(1072.7 664.58) scale(.1 -.1)">
<use xlink:href="#aa"/>
<use x="52.099609" xlink:href="#q"/>
<use x="91.308594" xlink:href="#d"/>
<use x="152.832031" xlink:href="#d"/>
<use x="214.355469" xlink:href="#g"/>
</g>
</g>
<g clip-path="url(#a)">
<g transform="translate(1164.9 664.58) scale(.1 -.1)">
<use xlink:href="#h"/>
<use x="27.783203" xlink:href="#q"/>
</g>
</g>
<g clip-path="url(#a)">
<g transform="translate(1252.7 664.58) scale(.1 -.1)">
<defs>
<path id="f" d="m10.688 12.406h10.312v-12.406h-10.312z"/>
</defs>
<use xlink:href="#f"/>
</g>
</g>
<g clip-path="url(#a)">
<g transform="translate(1236.4 509.17) scale(.1 -.1)">
<defs>
<path id="ag" d="m9.8125 72.906h9.8594v-72.906h-9.8594z"/>
<path id="at" d="m9.8125 72.906h14.703l18.594-49.609 18.703 49.609h14.703v-72.906h-9.625v64.016l-18.797-50h-9.9062l-18.797 50v-64.016h-9.5781z"/>
</defs>
<use xlink:href="#ag"/>
<use x="29.492188" xlink:href="#at"/>
<use x="115.771484" xlink:href="#t"/>
<use x="176.074219" xlink:href="#s"/>
<use x="231.787109" xlink:href="#ag"/>
<use x="261.279297" xlink:href="#ah"/>
<use x="331.103516" xlink:href="#ag"/>
<use x="360.595703" xlink:href="#k"/>
</g>
</g>
<g clip-path="url(#a)">
<g transform="translate(374.38 34.275) scale(.1 -.1)">
<defs>
<path id="c" d="m12.406 8.2969h16.109v55.625l-17.531-3.5156v8.9844l17.438 3.5156h9.8594v-64.609h16.109v-8.2969h-41.984z"/>
</defs>
<use xlink:href="#c"/>
<use x="63.623047" xlink:href="#f"/>
<use x="95.410156" xlink:href="#c"/>
</g>
</g>
<g clip-path="url(#a)">
<g transform="translate(51.927 509.17) scale(.1 -.1)">
<defs>
<path id="m" d="m19.188 8.2969h34.422v-8.2969h-46.281v8.2969q5.6094 5.8125 15.297 15.594 9.7031 9.7969 12.188 12.641 4.7344 5.3125 6.6094 9 1.8906 3.6875 1.8906 7.25 0 5.8125-4.0781 9.4688-4.0781 3.6719-10.625 3.6719-4.6406 0-9.7969-1.6094-5.1406-1.6094-11-4.8906v9.9688q5.9531 2.3906 11.125 3.6094 5.1875 1.2188 9.4844 1.2188 11.328 0 18.062-5.6719 6.7344-5.6562 6.7344-15.125 0-4.5-1.6875-8.5312-1.6719-4.0156-6.125-9.4844-1.2188-1.4219-7.7656-8.1875-6.5312-6.7656-18.453-18.922z"/>
</defs>
<use xlink:href="#c"/>
<use x="63.623047" xlink:href="#f"/>
<use x="95.410156" xlink:href="#m"/>
</g>
</g>
<g clip-path="url(#a)">
<g transform="translate(89.086 193.21) scale(.1 -.1)">
<defs>
<path id="n" d="m40.578 39.312q7.0781-1.5156 11.047-6.3125 3.9844-4.7812 3.9844-11.812 0-10.781-7.4219-16.703-7.4219-5.9062-21.094-5.9062-4.5781 0-9.4375 0.90625t-10.031 2.7188v9.5156q4.0938-2.3906 8.9688-3.6094 4.8906-1.2188 10.219-1.2188 9.2656 0 14.125 3.6562t4.8594 10.641q0 6.4531-4.5156 10.078-4.5156 3.6406-12.562 3.6406h-8.5v8.1094h8.8906q7.2656 0 11.125 2.9062t3.8594 8.375q0 5.6094-3.9844 8.6094-3.9688 3.0156-11.391 3.0156-4.0625 0-8.7031-0.89062-4.6406-0.875-10.203-2.7188v8.7812q5.625 1.5625 10.531 2.3438t9.25 0.78125q11.234 0 17.766-5.1094 6.5469-5.0938 6.5469-13.781 0-6.0625-3.4688-10.234t-9.8594-5.7812z"/>
</defs>
<use xlink:href="#c"/>
<use x="63.623047" xlink:href="#f"/>
<use x="95.410156" xlink:href="#n"/>
</g>
</g>
<g clip-path="url(#a)">
<g transform="translate(131.55 509.17) scale(.1 -.1)">
<defs>
<path id="y" d="m37.797 64.312-24.906-38.922h24.906zm-2.5938 8.5938h12.406v-47.516h10.406v-8.2031h-10.406v-17.188h-9.8125v17.188h-32.906v9.5156z"/>
</defs>
<use xlink:href="#c"/>
<use x="63.623047" xlink:href="#f"/>
<use x="95.410156" xlink:href="#y"/>
</g>
</g>
<g clip-path="url(#a)">
<g transform="translate(185.17 193.21) scale(.1 -.1)">
<defs>
<path id="aj" d="m10.797 72.906h38.719v-8.3125h-29.688v-17.859q2.1406 0.73438 4.2812 1.0938 2.1562 0.35938 4.3125 0.35938 12.203 0 19.328-6.6875 7.1406-6.6875 7.1406-18.109 0-11.766-7.3281-18.297-7.3281-6.5156-20.656-6.5156-4.5938 0-9.3594 0.78125-4.75 0.78125-9.8281 2.3438v9.9219q4.3906-2.3906 9.0781-3.5625t9.9062-1.1719q8.4531 0 13.375 4.4375 4.9375 4.4375 4.9375 12.062 0 7.6094-4.9375 12.047-4.9219 4.4531-13.375 4.4531-3.9531 0-7.8906-0.875-3.9219-0.875-8.0156-2.7344z"/>
</defs>
<use xlink:href="#c"/>
<use x="63.623047" xlink:href="#f"/>
<use x="95.410156" xlink:href="#aj"/>
</g>
</g>
<g clip-path="url(#a)">
<g transform="translate(332.21 509.17) scale(.1 -.1)">
<defs>
<path id="x" d="m33.016 40.375q-6.6406 0-10.531-4.5469-3.875-4.5312-3.875-12.438 0-7.8594 3.875-12.438 3.8906-4.5625 10.531-4.5625t10.516 4.5625q3.875 4.5781 3.875 12.438 0 7.9062-3.875 12.438-3.875 4.5469-10.516 4.5469zm19.578 30.922v-8.9844q-3.7188 1.75-7.5 2.6719-3.7812 0.9375-7.5 0.9375-9.7656 0-14.922-6.5938-5.1406-6.5938-5.875-19.922 2.875 4.25 7.2188 6.5156 4.3594 2.2656 9.5781 2.2656 10.984 0 17.359-6.6719 6.375-6.6562 6.375-18.125 0-11.234-6.6406-18.031-6.6406-6.7812-17.672-6.7812-12.656 0-19.344 9.6875-6.6875 9.7031-6.6875 28.109 0 17.281 8.2031 27.562t22.016 10.281q3.7188 0 7.5-0.73438t7.8906-2.1875z"/>
</defs>
<use xlink:href="#c"/>
<use x="63.623047" xlink:href="#f"/>
<use x="95.410156" xlink:href="#x"/>
</g>
</g>
<g clip-path="url(#a)">
<g transform="translate(318.41 193.21) scale(.1 -.1)">
<defs>
<path id="w" d="m8.2031 72.906h46.875v-4.2031l-26.469-68.703h-10.297l24.906 64.594h-35.016z"/>
</defs>
<use xlink:href="#c"/>
<use x="63.623047" xlink:href="#f"/>
<use x="95.410156" xlink:href="#w"/>
</g>
</g>
<g clip-path="url(#a)">
<g transform="translate(711.23 509.17) scale(.1 -.1)">
<defs>
<path id="ai" d="m31.781 34.625q-7.0312 0-11.062-3.7656-4.0156-3.7656-4.0156-10.344 0-6.5938 4.0156-10.359 4.0312-3.7656 11.062-3.7656t11.078 3.7812q4.0625 3.7969 4.0625 10.344 0 6.5781-4.0312 10.344-4.0156 3.7656-11.109 3.7656zm-9.8594 4.1875q-6.3438 1.5625-9.8906 5.9062-3.5312 4.3594-3.5312 10.609 0 8.7344 6.2188 13.812 6.2344 5.0781 17.062 5.0781 10.891 0 17.094-5.0781t6.2031-13.812q0-6.25-3.5469-10.609-3.5312-4.3438-9.8281-5.9062 7.125-1.6562 11.094-6.5 3.9844-4.8281 3.9844-11.797 0-10.609-6.4688-16.281-6.4688-5.6562-18.531-5.6562-12.047 0-18.531 5.6562-6.4688 5.6719-6.4688 16.281 0 6.9688 4 11.797 4.0156 4.8438 11.141 6.5zm-3.6094 15.578q0-5.6562 3.5312-8.8281 3.5469-3.1719 9.9375-3.1719 6.3594 0 9.9375 3.1719 3.5938 3.1719 3.5938 8.8281 0 5.6719-3.5938 8.8438-3.5781 3.1719-9.9375 3.1719-6.3906 0-9.9375-3.1719-3.5312-3.1719-3.5312-8.8438z"/>
</defs>
<use xlink:href="#c"/>
<use x="63.623047" xlink:href="#f"/>
<use x="95.410156" xlink:href="#ai"/>
</g>
</g>
<g clip-path="url(#a)">
<g transform="translate(902.33 193.21) scale(.1 -.1)">
<defs>
<path id="an" d="m10.984 1.5156v8.9844q3.7188-1.7656 7.5156-2.6875 3.8125-0.92188 7.4844-0.92188 9.7656 0 14.906 6.5625 5.1562 6.5625 5.8906 19.953-2.8281-4.2031-7.1875-6.4531-4.3438-2.25-9.6094-2.25-10.938 0-17.312 6.6094-6.375 6.625-6.375 18.109 0 11.219 6.6406 18 6.6406 6.7969 17.672 6.7969 12.656 0 19.312-9.7031 6.6719-9.6875 6.6719-28.141 0-17.234-8.1875-27.516-8.1719-10.281-21.984-10.281-3.7188 0-7.5312 0.73438-3.7969 0.73438-7.9062 2.2031zm19.625 30.906q6.6406 0 10.516 4.5312 3.8906 4.5469 3.8906 12.469 0 7.8594-3.8906 12.422-3.875 4.5625-10.516 4.5625t-10.516-4.5625-3.875-12.422q0-7.9219 3.875-12.469 3.875-4.5312 10.516-4.5312z"/>
</defs>
<use xlink:href="#c"/>
<use x="63.623047" xlink:href="#f"/>
<use x="95.410156" xlink:href="#an"/>
</g>
</g>
<g clip-path="url(#a)">
<g transform="translate(774.94 509.17) scale(.1 -.1)">
<use xlink:href="#c"/>
<use x="63.623047" xlink:href="#f"/>
<use x="95.410156" xlink:href="#c"/>
<use x="159.033203" xlink:href="#m"/>
</g>
</g>
<g clip-path="url(#a)">
<g transform="translate(845.01 509.17) scale(.1 -.1)">
<use xlink:href="#c"/>
<use x="63.623047" xlink:href="#f"/>
<use x="95.410156" xlink:href="#c"/>
<use x="159.033203" xlink:href="#n"/>
</g>
</g>
<g clip-path="url(#a)">
<g transform="translate(1077.5 351.6) scale(.1 -.1)">
<use xlink:href="#c"/>
<use x="63.623047" xlink:href="#f"/>
<use x="95.410156" xlink:href="#c"/>
<use x="159.033203" xlink:href="#y"/>
</g>
</g>
<g clip-path="url(#a)">
<g transform="translate(918.26 509.17) scale(.1 -.1)">
<use xlink:href="#c"/>
<use x="63.623047" xlink:href="#f"/>
<use x="95.410156" xlink:href="#c"/>
<use x="159.033203" xlink:href="#x"/>
</g>
</g>
<g clip-path="url(#a)">
<g transform="translate(994.7 509.17) scale(.1 -.1)">
<use xlink:href="#c"/>
<use x="63.623047" xlink:href="#f"/>
<use x="95.410156" xlink:href="#c"/>
<use x="159.033203" xlink:href="#w"/>
</g>
</g>
<g clip-path="url(#a)">
<g transform="translate(1074.3 509.17) scale(.1 -.1)">
<use xlink:href="#c"/>
<use x="63.623047" xlink:href="#f"/>
<use x="95.410156" xlink:href="#c"/>
<use x="159.033203" xlink:href="#ai"/>
</g>
</g>
<g clip-path="url(#a)">
<g transform="translate(1157.1 509.17) scale(.1 -.1)">
<use xlink:href="#c"/>
<use x="63.623047" xlink:href="#f"/>
<use x="95.410156" xlink:href="#c"/>
<use x="159.033203" xlink:href="#an"/>
</g>
</g>
<g clip-path="url(#a)">
<g transform="translate(373.62 509.17) scale(.1 -.1)">
<defs>
<path id="ao" d="m31.781 66.406q-7.6094 0-11.453-7.5-3.8281-7.4844-3.8281-22.531 0-14.984 3.8281-22.484 3.8438-7.5 11.453-7.5 7.6719 0 11.5 7.5 3.8438 7.5 3.8438 22.484 0 15.047-3.8438 22.531-3.8281 7.5-11.5 7.5zm0 7.8125q12.266 0 18.734-9.7031 6.4688-9.6875 6.4688-28.141 0-18.406-6.4688-28.109-6.4688-9.6875-18.734-9.6875-12.25 0-18.719 9.6875-6.4688 9.7031-6.4688 28.109 0 18.453 6.4688 28.141 6.4688 9.7031 18.719 9.7031z"/>
</defs>
<use xlink:href="#c"/>
<use x="63.623047" xlink:href="#f"/>
<use x="95.410156" xlink:href="#m"/>
<use x="159.033203" xlink:href="#ao"/>
</g>
</g>
<g clip-path="url(#a)">
<g transform="translate(501.02 351.6) scale(.1 -.1)">
<use xlink:href="#c"/>
<use x="63.623047" xlink:href="#f"/>
<use x="95.410156" xlink:href="#m"/>
<use x="159.033203" xlink:href="#c"/>
</g>
</g>
<g clip-path="url(#a)">
<g transform="translate(421.4 509.17) scale(.1 -.1)">
<use xlink:href="#c"/>
<use x="63.623047" xlink:href="#f"/>
<use x="95.410156" xlink:href="#m"/>
<use x="159.033203" xlink:href="#m"/>
</g>
</g>
<g clip-path="url(#a)">
<g transform="translate(472.36 509.17) scale(.1 -.1)">
<use xlink:href="#c"/>
<use x="63.623047" xlink:href="#f"/>
<use x="95.410156" xlink:href="#m"/>
<use x="159.033203" xlink:href="#n"/>
</g>
</g>
<g clip-path="url(#a)">
<g transform="translate(526.5 509.17) scale(.1 -.1)">
<use xlink:href="#c"/>
<use x="63.623047" xlink:href="#f"/>
<use x="95.410156" xlink:href="#m"/>
<use x="159.033203" xlink:href="#y"/>
</g>
</g>
<g clip-path="url(#a)">
<g transform="translate(583.83 509.17) scale(.1 -.1)">
<use xlink:href="#c"/>
<use x="63.623047" xlink:href="#f"/>
<use x="95.410156" xlink:href="#m"/>
<use x="159.033203" xlink:href="#aj"/>
</g>
</g>
<g clip-path="url(#a)">
<g transform="translate(153.85 509.17) scale(.1 -.1)">
<use xlink:href="#c"/>
<use x="63.623047" xlink:href="#f"/>
<use x="95.410156" xlink:href="#m"/>
<use x="159.033203" xlink:href="#x"/>
</g>
</g>
<g clip-path="url(#a)">
<g transform="translate(215.43 351.6) scale(.1 -.1)">
<use xlink:href="#c"/>
<use x="63.623047" xlink:href="#f"/>
<use x="95.410156" xlink:href="#m"/>
<use x="159.033203" xlink:href="#w"/>
</g>
</g>
<g clip-path="url(#a)">
<g transform="translate(287.62 509.17) scale(.1 -.1)">
<use xlink:href="#c"/>
<use x="63.623047" xlink:href="#f"/>
<use x="95.410156" xlink:href="#m"/>
<use x="159.033203" xlink:href="#ai"/>
</g>
</g>
<g clip-path="url(#a)">
<g transform="translate(64.671 351.6) scale(.1 -.1)">
<use xlink:href="#c"/>
<use x="63.623047" xlink:href="#f"/>
<use x="95.410156" xlink:href="#n"/>
<use x="159.033203" xlink:href="#ao"/>
</g>
</g>
<g clip-path="url(#a)">
<g transform="translate(86.966 509.17) scale(.1 -.1)">
<use xlink:href="#c"/>
<use x="63.623047" xlink:href="#f"/>
<use x="95.410156" xlink:href="#n"/>
<use x="159.033203" xlink:href="#c"/>
</g>
</g>
<g clip-path="url(#a)">
<g transform="translate(106.08 509.17) scale(.1 -.1)">
<use xlink:href="#c"/>
<use x="63.623047" xlink:href="#f"/>
<use x="95.410156" xlink:href="#n"/>
<use x="159.033203" xlink:href="#m"/>
</g>
</g>
<g clip-path="url(#a)">
<g transform="translate(58.301 509.17) scale(.1 -.1)">
<use xlink:href="#c"/>
<use x="63.623047" xlink:href="#f"/>
<use x="95.410156" xlink:href="#n"/>
<use x="159.033203" xlink:href="#n"/>
</g>
</g>
<g clip-path="url(#a)">
<g transform="translate(71.041 509.17) scale(.1 -.1)">
<use xlink:href="#c"/>
<use x="63.623047" xlink:href="#f"/>
<use x="95.410156" xlink:href="#n"/>
<use x="159.033203" xlink:href="#y"/>
</g>
</g>
<g clip-path="url(#a)">
<g transform="translate(214.37 509.17) scale(.1 -.1)">
<use xlink:href="#c"/>
<use x="63.623047" xlink:href="#f"/>
<use x="95.410156" xlink:href="#n"/>
<use x="159.033203" xlink:href="#aj"/>
</g>
</g>
<g clip-path="url(#a)">
<g transform="translate(644.35 509.17) scale(.1 -.1)">
<use xlink:href="#c"/>
<use x="63.623047" xlink:href="#f"/>
<use x="95.410156" xlink:href="#n"/>
<use x="159.033203" xlink:href="#x"/>
</g>
</g>
<g clip-path="url(#a)">
<g transform="translate(1243.1 509.17) scale(.1 -.1)">
<use xlink:href="#c"/>
<use x="63.623047" xlink:href="#f"/>
<use x="95.410156" xlink:href="#n"/>
<use x="159.033203" xlink:href="#w"/>
</g>
</g>
<defs>
<clipPath id="a">
<rect width="1317.3" height="693.33"/>
</clipPath>
</defs>
</svg>
