<?xml version="1.0" encoding="UTF-8"?>
<!DOCTYPE svg  PUBLIC '-//W3C//DTD SVG 1.1//EN'  'http://www.w3.org/Graphics/SVG/1.1/DTD/svg11.dtd'>
<svg width="709.33pt" height="373.33pt" version="1.1" viewBox="0 0 709.33 373.33" xmlns="http://www.w3.org/2000/svg" xmlns:xlink="http://www.w3.org/1999/xlink">
<metadata>
<rdf:RDF xmlns:cc="http://creativecommons.org/ns#" xmlns:dc="http://purl.org/dc/elements/1.1/" xmlns:rdf="http://www.w3.org/1999/02/22-rdf-syntax-ns#">
<cc:Work>
<dc:type rdf:resource="http://purl.org/dc/dcmitype/StillImage"/>
<dc:date>2021-03-10T07:19:46.044513</dc:date>
<dc:format>image/svg+xml</dc:format>
<dc:creator>
<cc:Agent>
<dc:title>Matplotlib v3.3.3, https://matplotlib.org/</dc:title>
</cc:Agent>
</dc:creator>
</cc:Work>
</rdf:RDF>
</metadata>
<defs>
<style type="text/css">*{stroke-linecap:butt;stroke-linejoin:round;}</style>
</defs>
<path d="m0 373.33h709.33v-373.33h-709.33z" fill="#fff"/>
<g fill="none" stroke="#000">
<path d="m220.43 16.97-188.19 255.71" clip-path="url(#a)"/>
<path d="m220.43 16.97-123.89 170.87" clip-path="url(#a)"/>
<path d="m220.43 16.97 159.04 255.71" clip-path="url(#a)"/>
<path d="m220.43 16.97 61.974 85.58" clip-path="url(#a)"/>
<path d="m220.43 16.97 91.063 85.58" clip-path="url(#a)"/>
<path d="m32.242 272.68v83.68" clip-path="url(#a)"/>
<path d="m96.544 187.84 34.906 84.844" clip-path="url(#a)" stroke-dasharray="3.7,1.6"/>
<path d="m96.544 187.84-36.744 84.844" clip-path="url(#a)"/>
<path d="m96.544 187.84 1.8372 84.844" clip-path="url(#a)"/>
<path d="m379.47 272.68v83.68" clip-path="url(#a)"/>
<path d="m282.4 102.55-150.95 170.13" clip-path="url(#a)"/>
<path d="m282.4 102.55-112.37 170.13" clip-path="url(#a)"/>
<path d="m282.4 102.55-68.282 170.13" clip-path="url(#a)"/>
<path d="m282.4 102.55-18.678 170.13" clip-path="url(#a)"/>
<path d="m282.4 102.55 36.437 170.13" clip-path="url(#a)"/>
<path d="m282.4 102.55 313.85 85.289" clip-path="url(#a)"/>
<path d="m311.49 102.55 134.11 170.13" clip-path="url(#a)"/>
<path d="m311.49 102.55-180.04 170.13" clip-path="url(#a)" stroke-dasharray="3.7,1.6"/>
<path d="m311.49 102.55-141.46 170.13" clip-path="url(#a)" stroke-dasharray="3.7,1.6"/>
<path d="m311.49 102.55-97.37 170.13" clip-path="url(#a)" stroke-dasharray="3.7,1.6"/>
<path d="m311.49 102.55 284.76 85.289" clip-path="url(#a)" stroke-dasharray="3.7,1.6"/>
<path d="m445.61 272.68v83.68" clip-path="url(#a)"/>
<path d="m131.45 272.68v83.68" clip-path="url(#a)"/>
<path d="m170.03 272.68v83.68" clip-path="url(#a)"/>
<path d="m214.12 272.68v83.68" clip-path="url(#a)"/>
<path d="m263.73 272.68v83.68" clip-path="url(#a)"/>
<path d="m318.84 272.68v83.68" clip-path="url(#a)"/>
<path d="m596.26 187.84-78.999 84.844" clip-path="url(#a)"/>
<path d="m596.26 187.84-1.8372 84.844" clip-path="url(#a)"/>
<path d="m596.26 187.84 80.836 84.844" clip-path="url(#a)"/>
<path d="m517.26 272.68v83.68" clip-path="url(#a)"/>
<path d="m594.42 272.68v83.68" clip-path="url(#a)"/>
<path d="m59.8 272.68-11.023 83.68" clip-path="url(#a)"/>
<path d="m59.8 272.68 11.023 83.68" clip-path="url(#a)"/>
<path d="m98.381 272.68v83.68" clip-path="url(#a)"/>
<path d="m677.09 272.68v83.68" clip-path="url(#a)"/>
</g>
<path d="m130.07 150.34 2.6421-3.5901q1.4225-1.933-0.51044-3.3555l-6.2359-4.5892q-1.933-1.4225-3.3555 0.51044l-2.6421 3.5901q-1.4225 1.933 0.51044 3.3555l6.2359 4.5892q1.933 1.4225 3.3555-0.51044z" clip-path="url(#a)" fill="#fff" stroke="#fff"/>
<g clip-path="url(#a)">
<g transform="translate(126.79 147.93) rotate(-53.649) scale(.08 -.08)">
<defs>
<path id="x" d="m9.8125 72.906h9.8594v-64.609h35.5v-8.2969h-45.359z"/>
</defs>
<use xlink:href="#x"/>
</g>
</g>
<path d="m161.8 108.52 3.5315-4.8707q1.4088-1.943-0.53426-3.3518l-6.2683-4.5448q-1.943-1.4088-3.3518 0.53426l-3.5315 4.8707q-1.4088 1.943 0.53426 3.3518l6.2683 4.5448q1.943 1.4088 3.3518-0.53426z" clip-path="url(#a)" fill="#fff" stroke="#fff"/>
<g clip-path="url(#a)">
<g transform="translate(158.51 106.14) rotate(-54.056) scale(.08 -.08)">
<defs>
<path id="s" d="m9.8125 72.906h9.8594v-29.891h35.844v29.891h9.8594v-72.906h-9.8594v34.719h-35.844v-34.719h-9.8594z"/>
</defs>
<use xlink:href="#s"/>
</g>
</g>
<path d="m293.45 146.25 2.3541 3.7852q1.2675 2.038 3.3055 0.77049l6.5747-4.089q2.038-1.2675 0.77049-3.3055l-2.3541-3.7852q-1.2675-2.038-3.3055-0.77049l-6.5747 4.089q-2.038 1.2675-0.77049 3.3055z" clip-path="url(#a)" fill="#fff" stroke="#fff"/>
<g clip-path="url(#a)">
<g transform="translate(296.9 144.1) rotate(58.121) scale(.08 -.08)">
<use xlink:href="#x"/>
</g>
</g>
<path d="m244.57 61.001 3.5287 4.8727q1.4077 1.9438 3.3515 0.53617l6.2709-4.5412q1.9438-1.4077 0.53617-3.3515l-3.5287-4.8727q-1.4077-1.9438-3.3515-0.53617l-6.2709 4.5412q-1.9438 1.4077-0.53617 3.3515z" clip-path="url(#a)" fill="#fff" stroke="#fff"/>
<g clip-path="url(#a)">
<g transform="translate(247.87 58.618) rotate(54.089) scale(.08 -.08)">
<use xlink:href="#s"/>
</g>
</g>
<path d="m259.47 62.269 4.3841 4.1201q1.7489 1.6436 3.3925-0.1053l5.3023-5.642q1.6436-1.7489-0.1053-3.3925l-4.3841-4.1201q-1.7489-1.6436-3.3925 0.1053l-5.3023 5.642q-1.6436 1.7489 0.1053 3.3925z" clip-path="url(#a)" fill="#fff" stroke="#fff"/>
<g clip-path="url(#a)">
<g transform="translate(262.26 59.308) rotate(43.222) scale(.08 -.08)">
<use xlink:href="#s"/>
</g>
</g>
<path d="m25.971 297.62v33.808q0 2.4 2.4 2.4h7.7425q2.4 0 2.4-2.4v-33.808q0-2.4-2.4-2.4h-7.7425q-2.4 0-2.4 2.4z" clip-path="url(#a)" fill="#fff" stroke="#fff"/>
<g clip-path="url(#a)">
<g transform="translate(30.035 297.62) rotate(90) scale(.08 -.08)">
<defs>
<path id="j" d="m-0.29688 72.906h61.672v-8.3125h-25.875v-64.594h-9.9062v64.594h-25.891z"/>
<path id="d" d="m56.203 29.594v-4.3906h-41.312q0.59375-9.2812 5.5938-14.141t13.938-4.8594q5.1719 0 10.031 1.2656t9.6562 3.8125v-8.5q-4.8438-2.0469-9.9219-3.125t-10.297-1.0781q-13.094 0-20.734 7.6094-7.6406 7.625-7.6406 20.625 0 13.422 7.25 21.297 7.25 7.8906 19.562 7.8906 11.031 0 17.453-7.1094 6.4219-7.0938 6.4219-19.297zm-8.9844 2.6406q-0.09375 7.3594-4.125 11.75-4.0312 4.4062-10.672 4.4062-7.5156 0-12.031-4.25t-5.2031-11.969z"/>
<path id="h" d="m41.109 46.297q-1.5156 0.875-3.2969 1.2812-1.7812 0.42188-3.9219 0.42188-7.625 0-11.703-4.9531t-4.0781-14.234v-28.812h-9.0312v54.688h9.0312v-8.5q2.8438 4.9844 7.375 7.3906 4.5469 2.4219 11.047 2.4219 0.92188 0 2.0469-0.125 1.125-0.10938 2.4844-0.35938z"/>
<path id="l" d="m52 44.188q3.375 6.0625 8.0625 8.9375t11.031 2.875q8.5469 0 13.188-5.9844 4.6406-5.9688 4.6406-17v-33.016h-9.0312v32.719q0 7.8594-2.7969 11.656-2.7812 3.8125-8.4844 3.8125-6.9844 0-11.047-4.6406-4.0469-4.625-4.0469-12.641v-30.906h-9.0312v32.719q0 7.9062-2.7812 11.688t-8.5938 3.7812q-6.8906 0-10.953-4.6562-4.0469-4.6562-4.0469-12.625v-30.906h-9.0312v54.688h9.0312v-8.5q3.0781 5.0312 7.375 7.4219t10.203 2.3906q5.9688 0 10.141-3.0312 4.1719-3.0156 6.1719-8.7812z"/>
<path id="i" d="m9.4219 54.688h8.9844v-54.688h-8.9844zm0 21.297h8.9844v-11.391h-8.9844z"/>
<path id="f" d="m54.891 33.016v-33.016h-8.9844v32.719q0 7.7656-3.0312 11.609-3.0312 3.8594-9.0781 3.8594-7.2812 0-11.484-4.6406-4.2031-4.625-4.2031-12.641v-30.906h-9.0312v54.688h9.0312v-8.5q3.2344 4.9375 7.5938 7.375 4.375 2.4375 10.094 2.4375 9.4219 0 14.25-5.8281 4.8438-5.8281 4.8438-17.156z"/>
<path id="g" d="m34.281 27.484q-10.891 0-15.094-2.4844t-4.2031-8.5q0-4.7812 3.1562-7.5938 3.1562-2.7969 8.5625-2.7969 7.4844 0 12 5.2969t4.5156 14.078v2zm17.922 3.7188v-31.203h-8.9844v8.2969q-3.0781-4.9688-7.6719-7.3438t-11.234-2.375q-8.3906 0-13.359 4.7188-4.9531 4.7188-4.9531 12.625 0 9.2188 6.1719 13.906 6.1875 4.6875 18.438 4.6875h12.609v0.89062q0 6.2031-4.0781 9.5938t-11.453 3.3906q-4.6875 0-9.1406-1.125-4.4375-1.125-8.5312-3.375v8.3125q4.9219 1.9062 9.5625 2.8438 4.6406 0.95312 9.0312 0.95312 11.875 0 17.734-6.1562 5.8594-6.1406 5.8594-18.641z"/>
<path id="k" d="m9.4219 75.984h8.9844v-75.984h-8.9844z"/>
</defs>
<use xlink:href="#j"/>
<use x="44.083984" xlink:href="#d"/>
<use x="105.607422" xlink:href="#h"/>
<use x="144.970703" xlink:href="#l"/>
<use x="242.382812" xlink:href="#i"/>
<use x="270.166016" xlink:href="#f"/>
<use x="333.544922" xlink:href="#g"/>
<use x="394.824219" xlink:href="#k"/>
</g>
</g>
<path d="m107.16 230.12 2.0821 5.0609q0.91314 2.2195 3.1326 1.3064l7.1602-2.9458q2.2195-0.91314 1.3064-3.1326l-2.0821-5.0609q-0.91314-2.2195-3.1326-1.3064l-7.1602 2.9458q-2.2195 0.91314-1.3064 3.1326z" clip-path="url(#a)" fill="#fff" stroke="#fff"/>
<g clip-path="url(#a)">
<g transform="translate(110.91 228.57) rotate(67.637) scale(.08 -.08)">
<defs>
<path id="m" d="m34.188 63.188-13.391-36.281h26.812zm-5.5781 9.7188h11.188l27.781-72.906h-10.25l-6.6406 18.703h-32.859l-6.6406-18.703h-10.406z"/>
</defs>
<use xlink:href="#m"/>
</g>
</g>
<path d="m82.968 234.97 1.917-4.4265q0.95377-2.2023-1.2486-3.1561l-7.1049-3.0769q-2.2023-0.95377-3.1561 1.2486l-1.917 4.4265q-0.95377 2.2023 1.2486 3.1561l7.1049 3.0769q2.2023 0.95377 3.1561-1.2486z" clip-path="url(#a)" fill="#fff" stroke="#fff"/>
<g clip-path="url(#a)">
<g transform="translate(79.239 233.35) rotate(-66.584) scale(.08 -.08)">
<defs>
<path id="r" d="m19.672 64.797v-27.391h12.406q6.8906 0 10.641 3.5625 3.7656 3.5625 3.7656 10.156 0 6.5469-3.7656 10.109-3.75 3.5625-10.641 3.5625zm-9.8594 8.1094h22.266q12.266 0 18.531-5.5469 6.2812-5.5469 6.2812-16.234 0-10.797-6.2812-16.312-6.2656-5.5156-18.531-5.5156h-12.406v-29.297h-9.8594z"/>
</defs>
<use xlink:href="#r"/>
</g>
</g>
<path d="m91.129 227.47 0.12675 5.8536q0.051956 2.3994 2.4514 2.3475l7.7407-0.16761q2.3994-0.051956 2.3475-2.4514l-0.12675-5.8536q-0.051956-2.3994-2.4514-2.3475l-7.7407 0.16761q-2.3994 0.051956-2.3475 2.4514z" clip-path="url(#a)" fill="#fff" stroke="#fff"/>
<g clip-path="url(#a)">
<g transform="translate(95.192 227.38) rotate(88.76) scale(.08 -.08)">
<defs>
<path id="w" d="m8.6875 72.906h9.9219v-44.297q0-11.719 4.2344-16.875 4.25-5.1406 13.781-5.1406 9.4688 0 13.719 5.1406 4.25 5.1562 4.25 16.875v44.297h9.9062v-45.516q0-14.25-7.0625-21.531-7.0469-7.2812-20.812-7.2812-13.828 0-20.891 7.2812-7.0469 7.2812-7.0469 21.531z"/>
</defs>
<use xlink:href="#w"/>
</g>
</g>
<path d="m373.2 297.62v33.808q0 2.4 2.4 2.4h7.7425q2.4 0 2.4-2.4v-33.808q0-2.4-2.4-2.4h-7.7425q-2.4 0-2.4 2.4z" clip-path="url(#a)" fill="#fff" stroke="#fff"/>
<g clip-path="url(#a)">
<g transform="translate(377.26 297.62) rotate(90) scale(.08 -.08)">
<use xlink:href="#j"/>
<use x="44.083984" xlink:href="#d"/>
<use x="105.607422" xlink:href="#h"/>
<use x="144.970703" xlink:href="#l"/>
<use x="242.382812" xlink:href="#i"/>
<use x="270.166016" xlink:href="#f"/>
<use x="333.544922" xlink:href="#g"/>
<use x="394.824219" xlink:href="#k"/>
</g>
</g>
<path d="m209.8 193.83 3.632-4.0935q1.5928-1.7952-0.20238-3.3881l-5.7915-5.1386q-1.7952-1.5928-3.3881 0.20238l-3.632 4.0935q-1.5928 1.7952 0.20238 3.3881l5.7915 5.1386q1.7952 1.5928 3.3881-0.20238z" clip-path="url(#a)" fill="#fff" stroke="#fff"/>
<g clip-path="url(#a)">
<g transform="translate(206.76 191.13) rotate(-48.418) scale(.08 -.08)">
<use xlink:href="#m"/>
</g>
</g>
<path d="m229.75 193.64 3.395-5.14q1.3227-2.0026-0.67988-3.3253l-6.4605-4.2672q-2.0026-1.3227-3.3253 0.67988l-3.395 5.14q-1.3227 2.0026 0.67988 3.3253l6.4605 4.2672q2.0026 1.3227 3.3253-0.67988z" clip-path="url(#a)" fill="#fff" stroke="#fff"/>
<g clip-path="url(#a)">
<g transform="translate(226.36 191.4) rotate(-56.555) scale(.08 -.08)">
<defs>
<path id="o" d="m19.672 64.797v-56.688h11.922q15.094 0 22.094 6.8281 7 6.8438 7 21.594 0 14.641-7 21.453t-22.094 6.8125zm-9.8594 8.1094h20.266q21.188 0 31.094-8.8125 9.9219-8.8125 9.9219-27.562 0-18.859-9.9688-27.703-9.9531-8.8281-31.047-8.8281h-20.266z"/>
</defs>
<use xlink:href="#o"/>
</g>
</g>
<path d="m252.94 192.81 2.2944-5.7168q0.89391-2.2273-1.3334-3.1212l-7.1854-2.8838q-2.2273-0.89391-3.1212 1.3334l-2.2944 5.7168q-0.89391 2.2273 1.3334 3.1212l7.1854 2.8838q2.2273 0.89391 3.1212-1.3334z" clip-path="url(#a)" fill="#fff" stroke="#fff"/>
<g clip-path="url(#a)">
<g transform="translate(249.17 191.3) rotate(-68.132) scale(.08 -.08)">
<use xlink:href="#o"/>
</g>
</g>
<path d="m279.05 190.59 0.50213-4.5738q0.26191-2.3857-2.1238-2.6476l-7.6963-0.84492q-2.3857-0.26191-2.6476 2.1238l-0.50213 4.5738q-0.26191 2.3857 2.1238 2.6476l7.6963 0.84492q2.3857 0.26191 2.6476-2.1238z" clip-path="url(#a)" fill="#fff" stroke="#fff"/>
<g clip-path="url(#a)">
<g transform="translate(275.01 190.14) rotate(-83.735) scale(.08 -.08)">
<defs>
<path id="ag" d="m9.8125 72.906h41.891v-8.3125h-32.031v-21.484h28.906v-8.2969h-28.906v-34.812h-9.8594z"/>
</defs>
<use xlink:href="#ag"/>
</g>
</g>
<path d="m293.99 186.57 1.0102 4.7168q0.50261 2.3468 2.8494 1.8442l7.5708-1.6214q2.3468-0.50261 1.8442-2.8494l-1.0102-4.7168q-0.50261-2.3468-2.8494-1.8442l-7.5708 1.6214q-2.3468 0.50261-1.8442 2.8494z" clip-path="url(#a)" fill="#fff" stroke="#fff"/>
<g clip-path="url(#a)">
<g transform="translate(297.96 185.72) rotate(77.912) scale(.08 -.08)">
<use xlink:href="#r"/>
</g>
</g>
<path d="m435.04 150.53 5.281 1.4351q2.316 0.62938 2.9454-1.6866l2.0304-7.4715q0.62938-2.316-1.6866-2.9454l-5.281-1.4351q-2.316-0.62938-2.9454 1.6866l-2.0304 7.4715q-0.62938 2.316 1.6866 2.9454z" clip-path="url(#a)" fill="#fff" stroke="#fff"/>
<g clip-path="url(#a)">
<g transform="translate(436.11 146.61) rotate(15.203) scale(.08 -.08)">
<use xlink:href="#m"/>
</g>
</g>
<path d="m372.13 189.6 2.9862 3.7883q1.4858 1.8848 3.3706 0.39904l6.0805-4.7931q1.8848-1.4858 0.39904-3.3706l-2.9862-3.7883q-1.4858-1.8848-3.3706-0.39904l-6.0805 4.7931q-1.8848 1.4858-0.39904 3.3706z" clip-path="url(#a)" fill="#fff" stroke="#fff"/>
<g clip-path="url(#a)">
<g transform="translate(375.32 187.09) rotate(51.752) scale(.08 -.08)">
<use xlink:href="#r"/>
</g>
</g>
<path d="m223.79 194.05 3.9776-3.7586q1.7444-1.6484 0.096008-3.3928l-5.3177-5.6274q-1.6484-1.7444-3.3928-0.096008l-3.9776 3.7586q-1.7444 1.6484-0.096008 3.3928l5.3177 5.6274q1.6484 1.7444 3.3928 0.096008z" clip-path="url(#a)" fill="#fff" stroke="#fff"/>
<g clip-path="url(#a)">
<g transform="translate(221 191.1) rotate(-43.379) scale(.08 -.08)">
<use xlink:href="#m"/>
</g>
</g>
<path d="m243.61 193.99 3.9383-4.7366q1.5344-1.8454-0.31099-3.3798l-5.9534-4.9501q-1.8454-1.5344-3.3798 0.31099l-3.9383 4.7366q-1.5344 1.8454 0.31099 3.3798l5.9534 4.9501q1.8454 1.5344 3.3798-0.31099z" clip-path="url(#a)" fill="#fff" stroke="#fff"/>
<g clip-path="url(#a)">
<g transform="translate(240.49 191.4) rotate(-50.257) scale(.08 -.08)">
<use xlink:href="#o"/>
</g>
</g>
<path d="m266.72 193.4 3.0598-5.3463q1.1921-2.083-0.89086-3.2751l-6.7198-3.8458q-2.083-1.1921-3.2751 0.89086l-3.0598 5.3463q-1.1921 2.083 0.89086 3.2751l6.7198 3.8458q2.083 1.1921 3.2751-0.89086z" clip-path="url(#a)" fill="#fff" stroke="#fff"/>
<g clip-path="url(#a)">
<g transform="translate(263.19 191.39) rotate(-60.217) scale(.08 -.08)">
<use xlink:href="#o"/>
</g>
</g>
<path d="m449.45 150.42 5.2424 1.5702q2.2991 0.6886 2.9877-1.6105l2.2215-7.417q0.6886-2.2991-1.6105-2.9877l-5.2424-1.5702q-2.2991-0.6886-2.9877 1.6105l-2.2215 7.417q-0.6886 2.2991 1.6105 2.9877z" clip-path="url(#a)" fill="#fff" stroke="#fff"/>
<g clip-path="url(#a)">
<g transform="translate(450.62 146.52) rotate(16.674) scale(.08 -.08)">
<use xlink:href="#m"/>
</g>
</g>
<path d="m439.34 297.62v33.808q0 2.4 2.4 2.4h7.7425q2.4 0 2.4-2.4v-33.808q0-2.4-2.4-2.4h-7.7425q-2.4 0-2.4 2.4z" clip-path="url(#a)" fill="#fff" stroke="#fff"/>
<g clip-path="url(#a)">
<g transform="translate(443.4 297.62) rotate(90) scale(.08 -.08)">
<use xlink:href="#j"/>
<use x="44.083984" xlink:href="#d"/>
<use x="105.607422" xlink:href="#h"/>
<use x="144.970703" xlink:href="#l"/>
<use x="242.382812" xlink:href="#i"/>
<use x="270.166016" xlink:href="#f"/>
<use x="333.544922" xlink:href="#g"/>
<use x="394.824219" xlink:href="#k"/>
</g>
</g>
<path d="m125.18 297.62v33.808q0 2.4 2.4 2.4h7.7425q2.4 0 2.4-2.4v-33.808q0-2.4-2.4-2.4h-7.7425q-2.4 0-2.4 2.4z" clip-path="url(#a)" fill="#fff" stroke="#fff"/>
<g clip-path="url(#a)">
<g transform="translate(129.24 297.62) rotate(90) scale(.08 -.08)">
<use xlink:href="#j"/>
<use x="44.083984" xlink:href="#d"/>
<use x="105.607422" xlink:href="#h"/>
<use x="144.970703" xlink:href="#l"/>
<use x="242.382812" xlink:href="#i"/>
<use x="270.166016" xlink:href="#f"/>
<use x="333.544922" xlink:href="#g"/>
<use x="394.824219" xlink:href="#k"/>
</g>
</g>
<path d="m163.76 297.62v33.808q0 2.4 2.4 2.4h7.7425q2.4 0 2.4-2.4v-33.808q0-2.4-2.4-2.4h-7.7425q-2.4 0-2.4 2.4z" clip-path="url(#a)" fill="#fff" stroke="#fff"/>
<g clip-path="url(#a)">
<g transform="translate(167.82 297.62) rotate(90) scale(.08 -.08)">
<use xlink:href="#j"/>
<use x="44.083984" xlink:href="#d"/>
<use x="105.607422" xlink:href="#h"/>
<use x="144.970703" xlink:href="#l"/>
<use x="242.382812" xlink:href="#i"/>
<use x="270.166016" xlink:href="#f"/>
<use x="333.544922" xlink:href="#g"/>
<use x="394.824219" xlink:href="#k"/>
</g>
</g>
<path d="m207.85 297.62v33.808q0 2.4 2.4 2.4h7.7425q2.4 0 2.4-2.4v-33.808q0-2.4-2.4-2.4h-7.7425q-2.4 0-2.4 2.4z" clip-path="url(#a)" fill="#fff" stroke="#fff"/>
<g clip-path="url(#a)">
<g transform="translate(211.92 297.62) rotate(90) scale(.08 -.08)">
<use xlink:href="#j"/>
<use x="44.083984" xlink:href="#d"/>
<use x="105.607422" xlink:href="#h"/>
<use x="144.970703" xlink:href="#l"/>
<use x="242.382812" xlink:href="#i"/>
<use x="270.166016" xlink:href="#f"/>
<use x="333.544922" xlink:href="#g"/>
<use x="394.824219" xlink:href="#k"/>
</g>
</g>
<path d="m257.46 297.62v33.808q0 2.4 2.4 2.4h7.7425q2.4 0 2.4-2.4v-33.808q0-2.4-2.4-2.4h-7.7425q-2.4 0-2.4 2.4z" clip-path="url(#a)" fill="#fff" stroke="#fff"/>
<g clip-path="url(#a)">
<g transform="translate(261.52 297.62) rotate(90) scale(.08 -.08)">
<use xlink:href="#j"/>
<use x="44.083984" xlink:href="#d"/>
<use x="105.607422" xlink:href="#h"/>
<use x="144.970703" xlink:href="#l"/>
<use x="242.382812" xlink:href="#i"/>
<use x="270.166016" xlink:href="#f"/>
<use x="333.544922" xlink:href="#g"/>
<use x="394.824219" xlink:href="#k"/>
</g>
</g>
<path d="m312.57 297.62v33.808q0 2.4 2.4 2.4h7.7425q2.4 0 2.4-2.4v-33.808q0-2.4-2.4-2.4h-7.7425q-2.4 0-2.4 2.4z" clip-path="url(#a)" fill="#fff" stroke="#fff"/>
<g clip-path="url(#a)">
<g transform="translate(316.63 297.62) rotate(90) scale(.08 -.08)">
<use xlink:href="#j"/>
<use x="44.083984" xlink:href="#d"/>
<use x="105.607422" xlink:href="#h"/>
<use x="144.970703" xlink:href="#l"/>
<use x="242.382812" xlink:href="#i"/>
<use x="270.166016" xlink:href="#f"/>
<use x="333.544922" xlink:href="#g"/>
<use x="394.824219" xlink:href="#k"/>
</g>
</g>
<path d="m559.62 236.38 3.4447-3.6996q1.6355-1.7565-0.12102-3.392l-5.6665-5.2761q-1.7565-1.6355-3.392 0.12102l-3.4447 3.6996q-1.6355 1.7565 0.12102 3.392l5.6665 5.2761q1.7565 1.6355 3.392-0.12102z" clip-path="url(#a)" fill="#fff" stroke="#fff"/>
<g clip-path="url(#a)">
<g transform="translate(556.65 233.62) rotate(-47.043) scale(.08 -.08)">
<defs>
<path id="ah" d="m9.8125 72.906h46.094v-8.3125h-36.234v-21.578h34.719v-8.2969h-34.719v-26.422h37.109v-8.2969h-46.969z"/>
</defs>
<use xlink:href="#ah"/>
</g>
</g>
<path d="m601.55 233.19 0.12093-5.5849q0.051956-2.3994-2.3475-2.4514l-7.7407-0.16761q-2.3994-0.051956-2.4514 2.3475l-0.12093 5.5849q-0.051956 2.3994 2.3475 2.4514l7.7407 0.16761q2.3994 0.051956 2.4514-2.3475z" clip-path="url(#a)" fill="#fff" stroke="#fff"/>
<g clip-path="url(#a)">
<g transform="translate(597.48 233.1) rotate(-88.76) scale(.08 -.08)">
<defs>
<path id="ai" d="m64.406 67.281v-10.391q-4.9844 4.6406-10.625 6.9219-5.6406 2.2969-11.984 2.2969-12.5 0-19.141-7.6406t-6.6406-22.094q0-14.406 6.6406-22.047t19.141-7.6406q6.3438 0 11.984 2.2969t10.625 6.9375v-10.312q-5.1719-3.5156-10.969-5.2812-5.7812-1.75-12.219-1.75-16.562 0-26.094 10.125-9.5156 10.141-9.5156 27.672 0 17.578 9.5156 27.703 9.5312 10.141 26.094 10.141 6.5312 0 12.312-1.7344 5.7969-1.7344 10.875-5.2031z"/>
</defs>
<use xlink:href="#ai"/>
</g>
</g>
<path d="m630.11 232.47 4.0388 4.239q1.6555 1.7376 3.3931 0.082098l5.6056-5.3407q1.7376-1.6555 0.082099-3.3931l-4.0388-4.239q-1.6555-1.7376-3.3931-0.082098l-5.6056 5.3407q-1.7376 1.6555-0.082098 3.3931z" clip-path="url(#a)" fill="#fff" stroke="#fff"/>
<g clip-path="url(#a)">
<g transform="translate(633.06 229.66) rotate(46.386) scale(.08 -.08)">
<use xlink:href="#w"/>
</g>
</g>
<path d="m510.99 297.62v33.808q0 2.4 2.4 2.4h7.7425q2.4 0 2.4-2.4v-33.808q0-2.4-2.4-2.4h-7.7425q-2.4 0-2.4 2.4z" clip-path="url(#a)" fill="#fff" stroke="#fff"/>
<g clip-path="url(#a)">
<g transform="translate(515.05 297.62) rotate(90) scale(.08 -.08)">
<use xlink:href="#j"/>
<use x="44.083984" xlink:href="#d"/>
<use x="105.607422" xlink:href="#h"/>
<use x="144.970703" xlink:href="#l"/>
<use x="242.382812" xlink:href="#i"/>
<use x="270.166016" xlink:href="#f"/>
<use x="333.544922" xlink:href="#g"/>
<use x="394.824219" xlink:href="#k"/>
</g>
</g>
<path d="m588.15 297.62v33.808q0 2.4 2.4 2.4h7.7425q2.4 0 2.4-2.4v-33.808q0-2.4-2.4-2.4h-7.7425q-2.4 0-2.4 2.4z" clip-path="url(#a)" fill="#fff" stroke="#fff"/>
<g clip-path="url(#a)">
<g transform="translate(592.21 297.62) rotate(90) scale(.08 -.08)">
<use xlink:href="#j"/>
<use x="44.083984" xlink:href="#d"/>
<use x="105.607422" xlink:href="#h"/>
<use x="144.970703" xlink:href="#l"/>
<use x="242.382812" xlink:href="#i"/>
<use x="270.166016" xlink:href="#f"/>
<use x="333.544922" xlink:href="#g"/>
<use x="394.824219" xlink:href="#k"/>
</g>
</g>
<path d="m58.298 332.1 4.4153-33.518q0.31344-2.3794-2.066-2.6929l-7.6762-1.0112q-2.3794-0.31344-2.6929 2.066l-4.4153 33.518q-0.31344 2.3794 2.066 2.6929l7.6762 1.0112q2.3794 0.31344 2.6929-2.066z" clip-path="url(#a)" fill="#fff" stroke="#fff"/>
<g clip-path="url(#a)">
<g transform="translate(54.269 331.57) rotate(-82.496) scale(.08 -.08)">
<use xlink:href="#j"/>
<use x="44.083984" xlink:href="#d"/>
<use x="105.607422" xlink:href="#h"/>
<use x="144.970703" xlink:href="#l"/>
<use x="242.382812" xlink:href="#i"/>
<use x="270.166016" xlink:href="#f"/>
<use x="333.544922" xlink:href="#g"/>
<use x="394.824219" xlink:href="#k"/>
</g>
</g>
<path d="m56.886 298.58 4.4153 33.518q0.31344 2.3794 2.6929 2.066l7.6762-1.0112q2.3794-0.31344 2.066-2.6929l-4.4153-33.518q-0.31344-2.3794-2.6929-2.066l-7.6762 1.0112q-2.3794 0.31344-2.066 2.6929z" clip-path="url(#a)" fill="#fff" stroke="#fff"/>
<g clip-path="url(#a)">
<g transform="translate(60.915 298.05) rotate(82.496) scale(.08 -.08)">
<use xlink:href="#j"/>
<use x="44.083984" xlink:href="#d"/>
<use x="105.607422" xlink:href="#h"/>
<use x="144.970703" xlink:href="#l"/>
<use x="242.382812" xlink:href="#i"/>
<use x="270.166016" xlink:href="#f"/>
<use x="333.544922" xlink:href="#g"/>
<use x="394.824219" xlink:href="#k"/>
</g>
</g>
<path d="m92.109 297.62v33.808q0 2.4 2.4 2.4h7.7425q2.4 0 2.4-2.4v-33.808q0-2.4-2.4-2.4h-7.7425q-2.4 0-2.4 2.4z" clip-path="url(#a)" fill="#fff" stroke="#fff"/>
<g clip-path="url(#a)">
<g transform="translate(96.173 297.62) rotate(90) scale(.08 -.08)">
<use xlink:href="#j"/>
<use x="44.083984" xlink:href="#d"/>
<use x="105.607422" xlink:href="#h"/>
<use x="144.970703" xlink:href="#l"/>
<use x="242.382812" xlink:href="#i"/>
<use x="270.166016" xlink:href="#f"/>
<use x="333.544922" xlink:href="#g"/>
<use x="394.824219" xlink:href="#k"/>
</g>
</g>
<path d="m670.82 297.62v33.808q0 2.4 2.4 2.4h7.7425q2.4 0 2.4-2.4v-33.808q0-2.4-2.4-2.4h-7.7425q-2.4 0-2.4 2.4z" clip-path="url(#a)" fill="#fff" stroke="#fff"/>
<g clip-path="url(#a)">
<g transform="translate(674.88 297.62) rotate(90) scale(.08 -.08)">
<use xlink:href="#j"/>
<use x="44.083984" xlink:href="#d"/>
<use x="105.607422" xlink:href="#h"/>
<use x="144.970703" xlink:href="#l"/>
<use x="242.382812" xlink:href="#i"/>
<use x="270.166016" xlink:href="#f"/>
<use x="333.544922" xlink:href="#g"/>
<use x="394.824219" xlink:href="#k"/>
</g>
</g>
<defs>
<path id="b" d="m0 8.6603c2.2967 0 4.4997-0.9125 6.1237-2.5365 1.624-1.624 2.5365-3.827 2.5365-6.1237s-0.9125-4.4997-2.5365-6.1237c-1.624-1.624-3.827-2.5365-6.1237-2.5365s-4.4997 0.9125-6.1237 2.5365c-1.624 1.624-2.5365 3.827-2.5365 6.1237s0.9125 4.4997 2.5365 6.1237c1.624 1.624 3.827 2.5365 6.1237 2.5365z"/>
</defs>
<g clip-path="url(#a)" fill="#ffffff" stroke="#ffffff">
<use x="32.242424" y="356.363636" xlink:href="#b"/>
<use x="48.777001" y="356.363636" xlink:href="#b"/>
<use x="70.823103" y="356.363636" xlink:href="#b"/>
<use x="98.38073" y="356.363636" xlink:href="#b"/>
<use x="131.449883" y="356.363636" xlink:href="#b"/>
<use x="170.030562" y="356.363636" xlink:href="#b"/>
<use x="214.122766" y="356.363636" xlink:href="#b"/>
<use x="263.726496" y="356.363636" xlink:href="#b"/>
<use x="318.841751" y="356.363636" xlink:href="#b"/>
<use x="379.468531" y="356.363636" xlink:href="#b"/>
<use x="445.606838" y="356.363636" xlink:href="#b"/>
<use x="517.256669" y="356.363636" xlink:href="#b"/>
<use x="594.418026" y="356.363636" xlink:href="#b"/>
<use x="677.090909" y="356.363636" xlink:href="#b"/>
<use x="220.430401" y="16.969697" xlink:href="#b"/>
<use x="32.242424" y="272.683286" xlink:href="#b"/>
<use x="96.543555" y="187.838849" xlink:href="#b"/>
<use x="379.468531" y="272.683286" xlink:href="#b"/>
<use x="282.404443" y="102.549411" xlink:href="#b"/>
<use x="311.49305" y="102.549411" xlink:href="#b"/>
<use x="445.606838" y="272.683286" xlink:href="#b"/>
<use x="131.449883" y="272.683286" xlink:href="#b"/>
<use x="170.030562" y="272.683286" xlink:href="#b"/>
<use x="214.122766" y="272.683286" xlink:href="#b"/>
<use x="263.726496" y="272.683286" xlink:href="#b"/>
<use x="318.841751" y="272.683286" xlink:href="#b"/>
<use x="596.255202" y="187.838849" xlink:href="#b"/>
<use x="517.256669" y="272.683286" xlink:href="#b"/>
<use x="594.418026" y="272.683286" xlink:href="#b"/>
<use x="59.800052" y="272.683286" xlink:href="#b"/>
<use x="98.38073" y="272.683286" xlink:href="#b"/>
<use x="677.090909" y="272.683286" xlink:href="#b"/>
</g>
<g clip-path="url(#a)">
<g transform="translate(26.979 359.12) scale(.1 -.1)">
<defs>
<path id="n" d="m30.609 48.391q-7.2188 0-11.422-5.6406t-4.2031-15.453 4.1719-15.453q4.1875-5.6406 11.453-5.6406 7.1875 0 11.375 5.6562 4.2031 5.6719 4.2031 15.438 0 9.7188-4.2031 15.406-4.1875 5.6875-11.375 5.6875zm0 7.6094q11.719 0 18.406-7.625 6.7031-7.6094 6.7031-21.078 0-13.422-6.7031-21.078-6.6875-7.6406-18.406-7.6406-11.766 0-18.438 7.6406-6.6562 7.6562-6.6562 21.078 0 13.469 6.6562 21.078 6.6719 7.625 18.438 7.625z"/>
</defs>
<use xlink:href="#j"/>
<use x="44.083984" xlink:href="#n"/>
</g>
</g>
<g clip-path="url(#a)">
<g transform="translate(38.399 359.12) scale(.1 -.1)">
<defs>
<path id="v" d="m48.781 52.594v-8.4062q-3.8125 2.1094-7.6406 3.1562t-7.7344 1.0469q-8.75 0-13.594-5.5469-4.8281-5.5312-4.8281-15.547t4.8281-15.562q4.8438-5.5312 13.594-5.5312 3.9062 0 7.7344 1.0469t7.6406 3.1562v-8.3125q-3.7656-1.75-7.7969-2.625-4.0156-0.89062-8.5625-0.89062-12.359 0-19.641 7.7656-7.2656 7.7656-7.2656 20.953 0 13.375 7.3438 21.031 7.3594 7.6719 20.156 7.6719 4.1406 0 8.0938-0.85938 3.9531-0.84375 7.6719-2.5469z"/>
<path id="p" d="m44.281 53.078v-8.5q-3.7969 1.9531-7.9062 2.9219-4.0938 0.98438-8.5 0.98438-6.6875 0-10.031-2.0469t-3.3438-6.1562q0-3.125 2.3906-4.9062t9.625-3.3906l3.0781-0.6875q9.5625-2.0469 13.594-5.7812t4.0312-10.422q0-7.625-6.0312-12.078-6.0312-4.4375-16.578-4.4375-4.3906 0-9.1562 0.85938t-10.031 2.5625v9.2812q4.9844-2.5938 9.8125-3.8906 4.8281-1.2812 9.5781-1.2812 6.3438 0 9.75 2.1719 3.4219 2.1719 3.4219 6.125 0 3.6562-2.4688 5.6094-2.4531 1.9531-10.812 3.7656l-3.125 0.73438q-8.3438 1.75-12.062 5.3906-3.7031 3.6406-3.7031 9.9844 0 7.7188 5.4688 11.906 5.4688 4.2031 15.531 4.2031 4.9688 0 9.3594-0.73438 4.4062-0.71875 8.1094-2.1875z"/>
<path id="t" d="m18.312 70.219v-15.531h18.5v-6.9844h-18.5v-29.688q0-6.6875 1.8281-8.5938t7.4531-1.9062h9.2188v-7.5156h-9.2188q-10.406 0-14.359 3.875-3.9531 3.8906-3.9531 14.141v29.688h-6.5938v6.9844h6.5938v15.531z"/>
</defs>
<use xlink:href="#v"/>
<use x="54.980469" xlink:href="#g"/>
<use x="116.259766" xlink:href="#p"/>
<use x="168.359375" xlink:href="#t"/>
</g>
</g>
<g clip-path="url(#a)">
<g transform="translate(64.243 359.12) scale(.1 -.1)">
<defs>
<path id="q" d="m37.109 75.984v-7.4844h-8.5938q-4.8281 0-6.7188-1.9531-1.875-1.9531-1.875-7.0312v-4.8281h14.797v-6.9844h-14.797v-47.703h-9.0312v47.703h-8.5938v6.9844h8.5938v3.8125q0 9.125 4.25 13.297 4.25 4.1875 13.469 4.1875z"/>
</defs>
<use xlink:href="#n"/>
<use x="61.181641" xlink:href="#q"/>
<use x="96.386719" xlink:href="#q"/>
</g>
</g>
<g clip-path="url(#a)">
<g transform="translate(96.792 359.12) scale(.1 -.1)">
<defs>
<path id="al" d="m11.719 12.406h10.297v-8.4062l-8-15.625h-6.2969l4 15.625z"/>
</defs>
<use xlink:href="#al"/>
</g>
</g>
<g clip-path="url(#a)">
<g transform="translate(125.2 359.12) scale(.1 -.1)">
<defs>
<path id="af" d="m54.891 33.016v-33.016h-8.9844v32.719q0 7.7656-3.0312 11.609-3.0312 3.8594-9.0781 3.8594-7.2812 0-11.484-4.6406-4.2031-4.625-4.2031-12.641v-30.906h-9.0312v75.984h9.0312v-29.797q3.2344 4.9375 7.5938 7.375 4.375 2.4375 10.094 2.4375 9.4219 0 14.25-5.8281 4.8438-5.8281 4.8438-17.156z"/>
</defs>
<use xlink:href="#af"/>
<use x="63.378906" xlink:href="#d"/>
</g>
</g>
<g clip-path="url(#a)">
<g transform="translate(151.28 359.12) scale(.1 -.1)">
<defs>
<path id="u" d="m45.406 46.391v29.594h8.9844v-75.984h-8.9844v8.2031q-2.8281-4.875-7.1562-7.25-4.3125-2.375-10.375-2.375-9.9062 0-16.141 7.9062-6.2188 7.9219-6.2188 20.812t6.2188 20.797q6.2344 7.9062 16.141 7.9062 6.0625 0 10.375-2.375 4.3281-2.3594 7.1562-7.2344zm-30.609-19.094q0-9.9062 4.0781-15.547t11.203-5.6406 11.219 5.6406q4.1094 5.6406 4.1094 15.547t-4.1094 15.547q-4.0938 5.6406-11.219 5.6406t-11.203-5.6406-4.0781-15.547z"/>
</defs>
<use xlink:href="#f"/>
<use x="63.378906" xlink:href="#d"/>
<use x="124.902344" xlink:href="#d"/>
<use x="186.425781" xlink:href="#u"/>
<use x="249.902344" xlink:href="#d"/>
<use x="311.425781" xlink:href="#u"/>
</g>
</g>
<g clip-path="url(#a)">
<g transform="translate(203.55 359.12) scale(.1 -.1)">
<defs>
<path id="an" d="m32.172-5.0781q-3.7969-9.7656-7.4219-12.734-3.6094-2.9844-9.6562-2.9844h-7.1875v7.5156h5.2812q3.7031 0 5.75 1.7656 2.0625 1.75 4.5469 8.2969l1.6094 4.0938-22.109 53.812h9.5156l17.094-42.766 17.094 42.766h9.5156z"/>
</defs>
<use xlink:href="#n"/>
<use x="61.181641" xlink:href="#f"/>
<use x="124.560547" xlink:href="#k"/>
<use x="152.34375" xlink:href="#an"/>
</g>
</g>
<g clip-path="url(#a)">
<g transform="translate(258.71 359.12) scale(.1 -.1)">
<use xlink:href="#t"/>
<use x="39.208984" xlink:href="#n"/>
</g>
</g>
<g clip-path="url(#a)">
<g transform="translate(310.67 359.12) scale(.1 -.1)">
<use xlink:href="#q"/>
<use x="35.205078" xlink:href="#i"/>
<use x="62.988281" xlink:href="#h"/>
<use x="101.851562" xlink:href="#d"/>
</g>
</g>
<g clip-path="url(#a)">
<g transform="translate(370.06 359.12) scale(.1 -.1)">
<use xlink:href="#g"/>
<use x="61.279297" xlink:href="#f"/>
<use x="124.658203" xlink:href="#u"/>
</g>
</g>
<g clip-path="url(#a)">
<g transform="translate(432.19 359.12) scale(.1 -.1)">
<defs>
<path id="ap" d="m9.0781 75.984h9.0312v-44.875l26.812 23.578h11.469l-29-25.578 30.234-29.109h-11.719l-27.797 26.703v-26.703h-9.0312z"/>
</defs>
<use xlink:href="#p"/>
<use x="52.099609" xlink:href="#t"/>
<use x="91.308594" xlink:href="#n"/>
<use x="152.490234" xlink:href="#ap"/>
<use x="206.775391" xlink:href="#d"/>
</g>
</g>
<g clip-path="url(#a)">
<g transform="translate(510.09 359.12) scale(.1 -.1)">
<use xlink:href="#af"/>
<use x="63.378906" xlink:href="#i"/>
<use x="91.162109" xlink:href="#p"/>
</g>
</g>
<g clip-path="url(#a)">
<g transform="translate(572.86 359.12) scale(.1 -.1)">
<defs>
<path id="ao" d="m8.5 21.578v33.109h8.9844v-32.766q0-7.7656 3.0156-11.656 3.0312-3.875 9.0938-3.875 7.2656 0 11.484 4.6406 4.2344 4.6406 4.2344 12.656v31h8.9844v-54.688h-8.9844v8.4062q-3.2656-4.9844-7.5938-7.4062-4.3125-2.4219-10.031-2.4219-9.4219 0-14.312 5.8594-4.875 5.8594-4.875 17.141z"/>
</defs>
<use xlink:href="#q"/>
<use x="35.205078" xlink:href="#ao"/>
<use x="98.583984" xlink:href="#h"/>
<use x="137.947266" xlink:href="#f"/>
<use x="201.326172" xlink:href="#g"/>
<use x="262.605469" xlink:href="#v"/>
<use x="317.585938" xlink:href="#d"/>
<use x="379.109375" xlink:href="#p"/>
</g>
</g>
<g clip-path="url(#a)">
<g transform="translate(675.09 359.12) scale(.1 -.1)">
<defs>
<path id="am" d="m15.094 12.406h9.9062v-12.406h-9.9062zm0 60.5h9.9062v-31.984l-0.96875-17.438h-7.9219l-1.0156 17.438z"/>
</defs>
<use xlink:href="#am"/>
</g>
</g>
<g clip-path="url(#a)">
<g transform="translate(212.48 19.729) scale(.1 -.1)">
<defs>
<path id="c" d="m12.406 8.2969h16.109v55.625l-17.531-3.5156v8.9844l17.438 3.5156h9.8594v-64.609h16.109v-8.2969h-41.984z"/>
<path id="e" d="m10.688 12.406h10.312v-12.406h-10.312z"/>
</defs>
<use xlink:href="#c"/>
<use x="63.623047" xlink:href="#e"/>
<use x="95.410156" xlink:href="#c"/>
</g>
</g>
<g clip-path="url(#a)">
<g transform="translate(24.291 275.44) scale(.1 -.1)">
<defs>
<path id="ae" d="m19.188 8.2969h34.422v-8.2969h-46.281v8.2969q5.6094 5.8125 15.297 15.594 9.7031 9.7969 12.188 12.641 4.7344 5.3125 6.6094 9 1.8906 3.6875 1.8906 7.25 0 5.8125-4.0781 9.4688-4.0781 3.6719-10.625 3.6719-4.6406 0-9.7969-1.6094-5.1406-1.6094-11-4.8906v9.9688q5.9531 2.3906 11.125 3.6094 5.1875 1.2188 9.4844 1.2188 11.328 0 18.062-5.6719 6.7344-5.6562 6.7344-15.125 0-4.5-1.6875-8.5312-1.6719-4.0156-6.125-9.4844-1.2188-1.4219-7.7656-8.1875-6.5312-6.7656-18.453-18.922z"/>
</defs>
<use xlink:href="#c"/>
<use x="63.623047" xlink:href="#e"/>
<use x="95.410156" xlink:href="#ae"/>
</g>
</g>
<g clip-path="url(#a)">
<g transform="translate(88.592 190.6) scale(.1 -.1)">
<defs>
<path id="ad" d="m40.578 39.312q7.0781-1.5156 11.047-6.3125 3.9844-4.7812 3.9844-11.812 0-10.781-7.4219-16.703-7.4219-5.9062-21.094-5.9062-4.5781 0-9.4375 0.90625t-10.031 2.7188v9.5156q4.0938-2.3906 8.9688-3.6094 4.8906-1.2188 10.219-1.2188 9.2656 0 14.125 3.6562t4.8594 10.641q0 6.4531-4.5156 10.078-4.5156 3.6406-12.562 3.6406h-8.5v8.1094h8.8906q7.2656 0 11.125 2.9062t3.8594 8.375q0 5.6094-3.9844 8.6094-3.9688 3.0156-11.391 3.0156-4.0625 0-8.7031-0.89062-4.6406-0.875-10.203-2.7188v8.7812q5.625 1.5625 10.531 2.3438t9.25 0.78125q11.234 0 17.766-5.1094 6.5469-5.0938 6.5469-13.781 0-6.0625-3.4688-10.234t-9.8594-5.7812z"/>
</defs>
<use xlink:href="#c"/>
<use x="63.623047" xlink:href="#e"/>
<use x="95.410156" xlink:href="#ad"/>
</g>
</g>
<g clip-path="url(#a)">
<g transform="translate(371.52 275.44) scale(.1 -.1)">
<defs>
<path id="ac" d="m37.797 64.312-24.906-38.922h24.906zm-2.5938 8.5938h12.406v-47.516h10.406v-8.2031h-10.406v-17.188h-9.8125v17.188h-32.906v9.5156z"/>
</defs>
<use xlink:href="#c"/>
<use x="63.623047" xlink:href="#e"/>
<use x="95.410156" xlink:href="#ac"/>
</g>
</g>
<g clip-path="url(#a)">
<g transform="translate(274.45 105.31) scale(.1 -.1)">
<defs>
<path id="ab" d="m33.016 40.375q-6.6406 0-10.531-4.5469-3.875-4.5312-3.875-12.438 0-7.8594 3.875-12.438 3.8906-4.5625 10.531-4.5625t10.516 4.5625q3.875 4.5781 3.875 12.438 0 7.9062-3.875 12.438-3.875 4.5469-10.516 4.5469zm19.578 30.922v-8.9844q-3.7188 1.75-7.5 2.6719-3.7812 0.9375-7.5 0.9375-9.7656 0-14.922-6.5938-5.1406-6.5938-5.875-19.922 2.875 4.25 7.2188 6.5156 4.3594 2.2656 9.5781 2.2656 10.984 0 17.359-6.6719 6.375-6.6562 6.375-18.125 0-11.234-6.6406-18.031-6.6406-6.7812-17.672-6.7812-12.656 0-19.344 9.6875-6.6875 9.7031-6.6875 28.109 0 17.281 8.2031 27.562t22.016 10.281q3.7188 0 7.5-0.73438t7.8906-2.1875z"/>
</defs>
<use xlink:href="#c"/>
<use x="63.623047" xlink:href="#e"/>
<use x="95.410156" xlink:href="#ab"/>
</g>
</g>
<g clip-path="url(#a)">
<g transform="translate(303.54 105.31) scale(.1 -.1)">
<defs>
<path id="aa" d="m8.2031 72.906h46.875v-4.2031l-26.469-68.703h-10.297l24.906 64.594h-35.016z"/>
</defs>
<use xlink:href="#c"/>
<use x="63.623047" xlink:href="#e"/>
<use x="95.410156" xlink:href="#aa"/>
</g>
</g>
<g clip-path="url(#a)">
<g transform="translate(437.66 275.44) scale(.1 -.1)">
<defs>
<path id="z" d="m31.781 34.625q-7.0312 0-11.062-3.7656-4.0156-3.7656-4.0156-10.344 0-6.5938 4.0156-10.359 4.0312-3.7656 11.062-3.7656t11.078 3.7812q4.0625 3.7969 4.0625 10.344 0 6.5781-4.0312 10.344-4.0156 3.7656-11.109 3.7656zm-9.8594 4.1875q-6.3438 1.5625-9.8906 5.9062-3.5312 4.3594-3.5312 10.609 0 8.7344 6.2188 13.812 6.2344 5.0781 17.062 5.0781 10.891 0 17.094-5.0781t6.2031-13.812q0-6.25-3.5469-10.609-3.5312-4.3438-9.8281-5.9062 7.125-1.6562 11.094-6.5 3.9844-4.8281 3.9844-11.797 0-10.609-6.4688-16.281-6.4688-5.6562-18.531-5.6562-12.047 0-18.531 5.6562-6.4688 5.6719-6.4688 16.281 0 6.9688 4 11.797 4.0156 4.8438 11.141 6.5zm-3.6094 15.578q0-5.6562 3.5312-8.8281 3.5469-3.1719 9.9375-3.1719 6.3594 0 9.9375 3.1719 3.5938 3.1719 3.5938 8.8281 0 5.6719-3.5938 8.8438-3.5781 3.1719-9.9375 3.1719-6.3906 0-9.9375-3.1719-3.5312-3.1719-3.5312-8.8438z"/>
</defs>
<use xlink:href="#c"/>
<use x="63.623047" xlink:href="#e"/>
<use x="95.410156" xlink:href="#z"/>
</g>
</g>
<g clip-path="url(#a)">
<g transform="translate(123.5 275.44) scale(.1 -.1)">
<defs>
<path id="y" d="m10.984 1.5156v8.9844q3.7188-1.7656 7.5156-2.6875 3.8125-0.92188 7.4844-0.92188 9.7656 0 14.906 6.5625 5.1562 6.5625 5.8906 19.953-2.8281-4.2031-7.1875-6.4531-4.3438-2.25-9.6094-2.25-10.938 0-17.312 6.6094-6.375 6.625-6.375 18.109 0 11.219 6.6406 18 6.6406 6.7969 17.672 6.7969 12.656 0 19.312-9.7031 6.6719-9.6875 6.6719-28.141 0-17.234-8.1875-27.516-8.1719-10.281-21.984-10.281-3.7188 0-7.5312 0.73438-3.7969 0.73438-7.9062 2.2031zm19.625 30.906q6.6406 0 10.516 4.5312 3.8906 4.5469 3.8906 12.469 0 7.8594-3.8906 12.422-3.875 4.5625-10.516 4.5625t-10.516-4.5625-3.875-12.422q0-7.9219 3.875-12.469 3.875-4.5312 10.516-4.5312z"/>
</defs>
<use xlink:href="#c"/>
<use x="63.623047" xlink:href="#e"/>
<use x="95.410156" xlink:href="#y"/>
</g>
</g>
<g clip-path="url(#a)">
<g transform="translate(158.9 275.44) scale(.1 -.1)">
<defs>
<path id="ak" d="m31.781 66.406q-7.6094 0-11.453-7.5-3.8281-7.4844-3.8281-22.531 0-14.984 3.8281-22.484 3.8438-7.5 11.453-7.5 7.6719 0 11.5 7.5 3.8438 7.5 3.8438 22.484 0 15.047-3.8438 22.531-3.8281 7.5-11.5 7.5zm0 7.8125q12.266 0 18.734-9.7031 6.4688-9.6875 6.4688-28.141 0-18.406-6.4688-28.109-6.4688-9.6875-18.734-9.6875-12.25 0-18.719 9.6875-6.4688 9.7031-6.4688 28.109 0 18.453 6.4688 28.141 6.4688 9.7031 18.719 9.7031z"/>
</defs>
<use xlink:href="#c"/>
<use x="63.623047" xlink:href="#e"/>
<use x="95.410156" xlink:href="#c"/>
<use x="159.033203" xlink:href="#ak"/>
</g>
</g>
<g clip-path="url(#a)">
<g transform="translate(202.99 275.44) scale(.1 -.1)">
<use xlink:href="#c"/>
<use x="63.623047" xlink:href="#e"/>
<use x="95.410156" xlink:href="#c"/>
<use x="159.033203" xlink:href="#c"/>
</g>
</g>
<g clip-path="url(#a)">
<g transform="translate(252.59 275.44) scale(.1 -.1)">
<use xlink:href="#c"/>
<use x="63.623047" xlink:href="#e"/>
<use x="95.410156" xlink:href="#c"/>
<use x="159.033203" xlink:href="#ae"/>
</g>
</g>
<g clip-path="url(#a)">
<g transform="translate(307.71 275.44) scale(.1 -.1)">
<use xlink:href="#c"/>
<use x="63.623047" xlink:href="#e"/>
<use x="95.410156" xlink:href="#c"/>
<use x="159.033203" xlink:href="#ad"/>
</g>
</g>
<g clip-path="url(#a)">
<g transform="translate(585.12 190.6) scale(.1 -.1)">
<use xlink:href="#c"/>
<use x="63.623047" xlink:href="#e"/>
<use x="95.410156" xlink:href="#c"/>
<use x="159.033203" xlink:href="#ac"/>
</g>
</g>
<g clip-path="url(#a)">
<g transform="translate(506.12 275.44) scale(.1 -.1)">
<defs>
<path id="aj" d="m10.797 72.906h38.719v-8.3125h-29.688v-17.859q2.1406 0.73438 4.2812 1.0938 2.1562 0.35938 4.3125 0.35938 12.203 0 19.328-6.6875 7.1406-6.6875 7.1406-18.109 0-11.766-7.3281-18.297-7.3281-6.5156-20.656-6.5156-4.5938 0-9.3594 0.78125-4.75 0.78125-9.8281 2.3438v9.9219q4.3906-2.3906 9.0781-3.5625t9.9062-1.1719q8.4531 0 13.375 4.4375 4.9375 4.4375 4.9375 12.062 0 7.6094-4.9375 12.047-4.9219 4.4531-13.375 4.4531-3.9531 0-7.8906-0.875-3.9219-0.875-8.0156-2.7344z"/>
</defs>
<use xlink:href="#c"/>
<use x="63.623047" xlink:href="#e"/>
<use x="95.410156" xlink:href="#c"/>
<use x="159.033203" xlink:href="#aj"/>
</g>
</g>
<g clip-path="url(#a)">
<g transform="translate(583.29 275.44) scale(.1 -.1)">
<use xlink:href="#c"/>
<use x="63.623047" xlink:href="#e"/>
<use x="95.410156" xlink:href="#c"/>
<use x="159.033203" xlink:href="#ab"/>
</g>
</g>
<g clip-path="url(#a)">
<g transform="translate(48.667 275.44) scale(.1 -.1)">
<use xlink:href="#c"/>
<use x="63.623047" xlink:href="#e"/>
<use x="95.410156" xlink:href="#c"/>
<use x="159.033203" xlink:href="#aa"/>
</g>
</g>
<g clip-path="url(#a)">
<g transform="translate(87.248 275.44) scale(.1 -.1)">
<use xlink:href="#c"/>
<use x="63.623047" xlink:href="#e"/>
<use x="95.410156" xlink:href="#c"/>
<use x="159.033203" xlink:href="#z"/>
</g>
</g>
<g clip-path="url(#a)">
<g transform="translate(665.96 275.44) scale(.1 -.1)">
<use xlink:href="#c"/>
<use x="63.623047" xlink:href="#e"/>
<use x="95.410156" xlink:href="#c"/>
<use x="159.033203" xlink:href="#y"/>
</g>
</g>
<defs>
<clipPath id="a">
<rect width="709.33" height="373.33"/>
</clipPath>
</defs>
</svg>
