<?xml version="1.0" encoding="UTF-8"?>
<!DOCTYPE svg  PUBLIC '-//W3C//DTD SVG 1.1//EN'  'http://www.w3.org/Graphics/SVG/1.1/DTD/svg11.dtd'>
<svg width="1570.7pt" height="826.67pt" version="1.1" viewBox="0 0 1570.7 826.67" xmlns="http://www.w3.org/2000/svg" xmlns:xlink="http://www.w3.org/1999/xlink">
<metadata>
<rdf:RDF xmlns:cc="http://creativecommons.org/ns#" xmlns:dc="http://purl.org/dc/elements/1.1/" xmlns:rdf="http://www.w3.org/1999/02/22-rdf-syntax-ns#">
<cc:Work>
<dc:type rdf:resource="http://purl.org/dc/dcmitype/StillImage"/>
<dc:date>2021-02-17T10:20:23.319010</dc:date>
<dc:format>image/svg+xml</dc:format>
<dc:creator>
<cc:Agent>
<dc:title>Matplotlib v3.3.3, https://matplotlib.org/</dc:title>
</cc:Agent>
</dc:creator>
</cc:Work>
</rdf:RDF>
</metadata>
<defs>
<style type="text/css">*{stroke-linecap:butt;stroke-linejoin:round;}</style>
</defs>
<path d="m0 826.67h1570.7v-826.67h-1570.7z" fill="#fff"/>
<g fill="none" stroke="#000">
<path d="m506.5 37.576-435.1 646.22" clip-path="url(#a)"/>
<path d="m506.5 37.576-401.46 108.35" clip-path="url(#a)"/>
<path d="m506.5 37.576 651.56 432.15" clip-path="url(#a)"/>
<path d="m506.5 37.576 185.01 646.22" clip-path="url(#a)"/>
<path d="m71.394 683.8v105.29" clip-path="url(#a)"/>
<path d="m105.03 145.93-33.638 537.87" clip-path="url(#a)" stroke-dasharray="3.7,1.6"/>
<path d="m105.03 145.93-20.039 537.87" clip-path="url(#a)"/>
<path d="m105.03 145.93 53.678 108.17" clip-path="url(#a)"/>
<path d="m1158.1 469.73-406.72 214.07" clip-path="url(#a)"/>
<path d="m1158.1 469.73-277.98 214.07" clip-path="url(#a)"/>
<path d="m1158.1 469.73-140.18 214.07" clip-path="url(#a)"/>
<path d="m1158.1 469.73-28.671 107.32" clip-path="url(#a)"/>
<path d="m1158.1 469.73 88.279 214.07" clip-path="url(#a)"/>
<path d="m1158.1 469.73 169.87 214.07" clip-path="url(#a)"/>
<path d="m1158.1 469.73 254.19 214.07" clip-path="url(#a)"/>
<path d="m1158.1 469.73 341.22 214.07" clip-path="url(#a)"/>
<path d="m751.34 683.8v105.29" clip-path="url(#a)"/>
<path d="m880.07 683.8-66.181 105.29" clip-path="url(#a)"/>
<path d="m880.07 683.8-0.90659 105.29" clip-path="url(#a)"/>
<path d="m880.07 683.8 67.088 105.29" clip-path="url(#a)"/>
<path d="m1017.9 683.8v105.29" clip-path="url(#a)"/>
<path d="m1129.4 577.05-38.077 106.76" clip-path="url(#a)"/>
<path d="m1129.4 577.05 38.077 106.76" clip-path="url(#a)"/>
<path d="m1246.3 683.8v105.29" clip-path="url(#a)"/>
<path d="m1327.9 683.8v105.29" clip-path="url(#a)"/>
<path d="m1412.2 683.8v105.29" clip-path="url(#a)"/>
<path d="m1091.3 683.8v105.29" clip-path="url(#a)"/>
<path d="m1167.5 683.8v105.29" clip-path="url(#a)"/>
<path d="m84.993 683.8-5.4395 105.29" clip-path="url(#a)"/>
<path d="m84.993 683.8 5.4395 105.29" clip-path="url(#a)"/>
<path d="m158.71 254.1-54.679 429.7" clip-path="url(#a)"/>
<path d="m158.71 254.1-38.36 429.7" clip-path="url(#a)"/>
<path d="m158.71 254.1 93.039 107.95" clip-path="url(#a)"/>
<path d="m104.03 683.8v105.29" clip-path="url(#a)"/>
<path d="m120.35 683.8v105.29" clip-path="url(#a)"/>
<path d="m251.75 362.05-112.36 321.75" clip-path="url(#a)"/>
<path d="m251.75 362.05-74.057 107.68" clip-path="url(#a)"/>
<path d="m251.75 362.05 58.985 321.75" clip-path="url(#a)"/>
<path d="m251.75 362.05 127.43 107.68" clip-path="url(#a)"/>
<path d="m139.39 683.8v105.29" clip-path="url(#a)"/>
<path d="m177.69 469.73-57.342 214.07" clip-path="url(#a)" stroke-dasharray="3.7,1.6"/>
<path d="m177.69 469.73-16.545 214.07" clip-path="url(#a)"/>
<path d="m177.69 469.73 7.9327 214.07" clip-path="url(#a)"/>
<path d="m177.69 469.73 65.954 107.32" clip-path="url(#a)"/>
<path d="m310.73 683.8v105.29" clip-path="url(#a)"/>
<path d="m379.18 469.73-258.83 214.07" clip-path="url(#a)" stroke-dasharray="3.7,1.6"/>
<path d="m379.18 469.73-30.371 214.07" clip-path="url(#a)"/>
<path d="m379.18 469.73 10.426 214.07" clip-path="url(#a)"/>
<path d="m379.18 469.73 77.06 214.07" clip-path="url(#a)"/>
<path d="m379.18 469.73 201.72 107.32" clip-path="url(#a)"/>
<path d="m348.81 683.8v105.29" clip-path="url(#a)"/>
<path d="m389.61 683.8v105.29" clip-path="url(#a)"/>
<path d="m456.24 683.8-23.118 105.29" clip-path="url(#a)"/>
<path d="m456.24 683.8 23.118 105.29" clip-path="url(#a)"/>
<path d="m580.9 577.05-52.582 106.76" clip-path="url(#a)"/>
<path d="m580.9 577.05-0.90659 106.76" clip-path="url(#a)"/>
<path d="m580.9 577.05 53.489 106.76" clip-path="url(#a)"/>
<path d="m528.32 683.8v105.29" clip-path="url(#a)"/>
<path d="m579.99 683.8v105.29" clip-path="url(#a)"/>
<path d="m634.39 683.8v105.29" clip-path="url(#a)"/>
<path d="m161.15 683.8v105.29" clip-path="url(#a)"/>
<path d="m185.62 683.8v105.29" clip-path="url(#a)"/>
<path d="m243.65 577.05-30.824 106.76" clip-path="url(#a)"/>
<path d="m243.65 577.05-0.90659 106.76" clip-path="url(#a)"/>
<path d="m243.65 577.05 31.731 106.76" clip-path="url(#a)"/>
<path d="m212.82 683.8v105.29" clip-path="url(#a)"/>
<path d="m242.74 683.8v105.29" clip-path="url(#a)"/>
<path d="m275.38 683.8v105.29" clip-path="url(#a)"/>
<path d="m691.5 683.8v105.29" clip-path="url(#a)"/>
<path d="m1499.3 683.8v105.29" clip-path="url(#a)"/>
</g>
<path d="m292.9 366.04 2.4895-3.6975q1.3404-1.9908-0.6504-3.3312l-6.4224-4.3242q-1.9908-1.3404-3.3312 0.6504l-2.4895 3.6975q-1.3404 1.9908 0.6504 3.3312l6.4224 4.3242q1.9908 1.3404 3.3312-0.6504z" clip-path="url(#a)" fill="#fff" stroke="#fff"/>
<g clip-path="url(#a)">
<g transform="translate(289.53 363.77) rotate(-56.048) scale(.08 -.08)">
<defs>
<path id="ao" d="m9.8125 72.906h9.8594v-64.609h35.5v-8.2969h-45.359z"/>
</defs>
<use xlink:href="#ao"/>
</g>
</g>
<path d="m304.49 98.59 5.8084-1.5676q2.3171-0.62536 1.6917-2.9425l-2.0174-7.475q-0.62536-2.3171-2.9425-1.6917l-5.8084 1.5676q-2.3171 0.62536-1.6917 2.9425l2.0174 7.475q0.62536 2.3171 2.9425 1.6917z" clip-path="url(#a)" fill="#fff" stroke="#fff"/>
<g clip-path="url(#a)">
<g transform="translate(303.43 94.667) rotate(-15.104) scale(.08 -.08)">
<defs>
<path id="y" d="m9.8125 72.906h9.8594v-29.891h35.844v29.891h9.8594v-72.906h-9.8594v34.719h-35.844v-34.719h-9.8594z"/>
</defs>
<use xlink:href="#y"/>
</g>
</g>
<path d="m826.3 257.22 5.0137 3.3254q2.0001 1.3266 3.3266-0.6735l4.2795-6.4523q1.3266-2.0001-0.6735-3.3266l-5.0137-3.3254q-2.0001-1.3266-3.3266 0.6735l-4.2795 6.4523q-1.3266 2.0001 0.6735 3.3266z" clip-path="url(#a)" fill="#fff" stroke="#fff"/>
<g clip-path="url(#a)">
<g transform="translate(828.55 253.83) rotate(33.555) scale(.08 -.08)">
<use xlink:href="#y"/>
</g>
</g>
<path d="m592.16 359.6 1.6115 5.6289q0.66055 2.3073 2.9679 1.6468l7.4435-2.131q2.3073-0.66055 1.6468-2.9679l-1.6115-5.6289q-0.66055-2.3073-2.9679-1.6468l-7.4435 2.131q-2.3073 0.66055-1.6468 2.9679z" clip-path="url(#a)" fill="#fff" stroke="#fff"/>
<g clip-path="url(#a)">
<g transform="translate(596.07 358.48) rotate(74.024) scale(.08 -.08)">
<defs>
<path id="am" d="m8.6875 72.906h9.9219v-44.297q0-11.719 4.2344-16.875 4.25-5.1406 13.781-5.1406 9.4688 0 13.719 5.1406 4.25 5.1562 4.25 16.875v44.297h9.9062v-45.516q0-14.25-7.0625-21.531-7.0469-7.2812-20.812-7.2812-13.828 0-20.891 7.2812-7.0469 7.2812-7.0469 21.531z"/>
</defs>
<use xlink:href="#am"/>
</g>
</g>
<path d="m65.123 719.54v33.808q0 2.4 2.4 2.4h7.7425q2.4 0 2.4-2.4v-33.808q0-2.4-2.4-2.4h-7.7425q-2.4 0-2.4 2.4z" clip-path="url(#a)" fill="#fff" stroke="#fff"/>
<g clip-path="url(#a)">
<g transform="translate(69.186 719.54) rotate(90) scale(.08 -.08)">
<defs>
<path id="l" d="m-0.29688 72.906h61.672v-8.3125h-25.875v-64.594h-9.9062v64.594h-25.891z"/>
<path id="d" d="m56.203 29.594v-4.3906h-41.312q0.59375-9.2812 5.5938-14.141t13.938-4.8594q5.1719 0 10.031 1.2656t9.6562 3.8125v-8.5q-4.8438-2.0469-9.9219-3.125t-10.297-1.0781q-13.094 0-20.734 7.6094-7.6406 7.625-7.6406 20.625 0 13.422 7.25 21.297 7.25 7.8906 19.562 7.8906 11.031 0 17.453-7.1094 6.4219-7.0938 6.4219-19.297zm-8.9844 2.6406q-0.09375 7.3594-4.125 11.75-4.0312 4.4062-10.672 4.4062-7.5156 0-12.031-4.25t-5.2031-11.969z"/>
<path id="h" d="m41.109 46.297q-1.5156 0.875-3.2969 1.2812-1.7812 0.42188-3.9219 0.42188-7.625 0-11.703-4.9531t-4.0781-14.234v-28.812h-9.0312v54.688h9.0312v-8.5q2.8438 4.9844 7.375 7.3906 4.5469 2.4219 11.047 2.4219 0.92188 0 2.0469-0.125 1.125-0.10938 2.4844-0.35938z"/>
<path id="k" d="m52 44.188q3.375 6.0625 8.0625 8.9375t11.031 2.875q8.5469 0 13.188-5.9844 4.6406-5.9688 4.6406-17v-33.016h-9.0312v32.719q0 7.8594-2.7969 11.656-2.7812 3.8125-8.4844 3.8125-6.9844 0-11.047-4.6406-4.0469-4.625-4.0469-12.641v-30.906h-9.0312v32.719q0 7.9062-2.7812 11.688t-8.5938 3.7812q-6.8906 0-10.953-4.6562-4.0469-4.6562-4.0469-12.625v-30.906h-9.0312v54.688h9.0312v-8.5q3.0781 5.0312 7.375 7.4219t10.203 2.3906q5.9688 0 10.141-3.0312 4.1719-3.0156 6.1719-8.7812z"/>
<path id="f" d="m9.4219 54.688h8.9844v-54.688h-8.9844zm0 21.297h8.9844v-11.391h-8.9844z"/>
<path id="g" d="m54.891 33.016v-33.016h-8.9844v32.719q0 7.7656-3.0312 11.609-3.0312 3.8594-9.0781 3.8594-7.2812 0-11.484-4.6406-4.2031-4.625-4.2031-12.641v-30.906h-9.0312v54.688h9.0312v-8.5q3.2344 4.9375 7.5938 7.375 4.375 2.4375 10.094 2.4375 9.4219 0 14.25-5.8281 4.8438-5.8281 4.8438-17.156z"/>
<path id="e" d="m34.281 27.484q-10.891 0-15.094-2.4844t-4.2031-8.5q0-4.7812 3.1562-7.5938 3.1562-2.7969 8.5625-2.7969 7.4844 0 12 5.2969t4.5156 14.078v2zm17.922 3.7188v-31.203h-8.9844v8.2969q-3.0781-4.9688-7.6719-7.3438t-11.234-2.375q-8.3906 0-13.359 4.7188-4.9531 4.7188-4.9531 12.625 0 9.2188 6.1719 13.906 6.1875 4.6875 18.438 4.6875h12.609v0.89062q0 6.2031-4.0781 9.5938t-11.453 3.3906q-4.6875 0-9.1406-1.125-4.4375-1.125-8.5312-3.375v8.3125q4.9219 1.9062 9.5625 2.8438 4.6406 0.95312 9.0312 0.95312 11.875 0 17.734-6.1562 5.8594-6.1406 5.8594-18.641z"/>
<path id="j" d="m9.4219 75.984h8.9844v-75.984h-8.9844z"/>
</defs>
<use xlink:href="#l"/>
<use x="44.083984" xlink:href="#d"/>
<use x="105.607422" xlink:href="#h"/>
<use x="144.970703" xlink:href="#k"/>
<use x="242.382812" xlink:href="#f"/>
<use x="270.166016" xlink:href="#g"/>
<use x="333.544922" xlink:href="#e"/>
<use x="394.824219" xlink:href="#j"/>
</g>
</g>
<path d="m94.28 418.33 0.38449-6.148q0.1498-2.3953-2.2455-2.5451l-7.7274-0.48327q-2.3953-0.1498-2.5451 2.2455l-0.38449 6.148q-0.1498 2.3953 2.2455 2.5451l7.7274 0.48327q2.3953 0.1498 2.5451-2.2455z" clip-path="url(#a)" fill="#fff" stroke="#fff"/>
<g clip-path="url(#a)">
<g transform="translate(90.224 418.08) rotate(-86.421) scale(.08 -.08)">
<defs>
<path id="af" d="m19.672 64.797v-56.688h11.922q15.094 0 22.094 6.8281 7 6.8438 7 21.594 0 14.641-7 21.453t-22.094 6.8125zm-9.8594 8.1094h20.266q21.188 0 31.094-8.8125 9.9219-8.8125 9.9219-27.562 0-18.859-9.9688-27.703-9.9531-8.8281-31.047-8.8281h-20.266z"/>
</defs>
<use xlink:href="#af"/>
</g>
</g>
<path d="m101.19 417.51 0.17959-4.8204q0.089355-2.3983-2.309-2.4877l-7.7371-0.28826q-2.3983-0.089354-2.4877 2.309l-0.17959 4.8204q-0.089355 2.3983 2.309 2.4877l7.7371 0.28826q2.3983 0.089354 2.4877-2.309z" clip-path="url(#a)" fill="#fff" stroke="#fff"/>
<g clip-path="url(#a)">
<g transform="translate(97.129 417.36) rotate(-87.866) scale(.08 -.08)">
<defs>
<path id="u" d="m19.672 64.797v-27.391h12.406q6.8906 0 10.641 3.5625 3.7656 3.5625 3.7656 10.156 0 6.5469-3.7656 10.109-3.75 3.5625-10.641 3.5625zm-9.8594 8.1094h22.266q12.266 0 18.531-5.5469 6.2812-5.5469 6.2812-16.234 0-10.797-6.2812-16.312-6.2656-5.5156-18.531-5.5156h-12.406v-29.297h-9.8594z"/>
</defs>
<use xlink:href="#u"/>
</g>
</g>
<path d="m125.04 200.35 2.4326 4.9021q1.0668 2.1499 3.2167 1.083l6.9355-3.4416q2.1499-1.0668 1.083-3.2167l-2.4326-4.9021q-1.0668-2.1499-3.2167-1.083l-6.9355 3.4416q-2.1499 1.0668-1.083 3.2167z" clip-path="url(#a)" fill="#fff" stroke="#fff"/>
<g clip-path="url(#a)">
<g transform="translate(128.68 198.54) rotate(63.608) scale(.08 -.08)">
<defs>
<path id="q" d="m34.188 63.188-13.391-36.281h26.812zm-5.5781 9.7188h11.188l27.781-72.906h-10.25l-6.6406 18.703h-32.859l-6.6406-18.703h-10.406z"/>
</defs>
<use xlink:href="#q"/>
</g>
</g>
<path d="m955.58 583.39 4.0717-2.1431q2.1238-1.1178 1.006-3.2416l-3.6061-6.8514q-1.1178-2.1238-3.2416-1.006l-4.0717 2.1431q-2.1238 1.1178-1.006 3.2416l3.6061 6.8514q1.1178 2.1238 3.2416 1.006z" clip-path="url(#a)" fill="#fff" stroke="#fff"/>
<g clip-path="url(#a)">
<g transform="translate(953.69 579.79) rotate(-27.759) scale(.08 -.08)">
<defs>
<path id="v" d="m9.8125 72.906h41.891v-8.3125h-32.031v-21.484h28.906v-8.2969h-28.906v-34.812h-9.8594z"/>
</defs>
<use xlink:href="#v"/>
</g>
</g>
<path d="m1020.4 583.63 4.9113-3.7821q1.9015-1.4643 0.43719-3.3658l-4.724-6.1344q-1.4643-1.9015-3.3658-0.43719l-4.9113 3.7821q-1.9015 1.4643-0.43719 3.3658l4.724 6.1344q1.4643 1.9015 3.3658 0.43719z" clip-path="url(#a)" fill="#fff" stroke="#fff"/>
<g clip-path="url(#a)">
<g transform="translate(1018 580.41) rotate(-37.599) scale(.08 -.08)">
<defs>
<path id="as" d="m59.516 10.406v19.578h-16.109v8.1094h25.875v-31.312q-5.7031-4.0469-12.594-6.125-6.875-2.0781-14.688-2.0781-17.094 0-26.75 9.9844-9.6406 10-9.6406 27.812 0 17.875 9.6406 27.859 9.6562 9.9844 26.75 9.9844 7.125 0 13.547-1.7656 6.4219-1.75 11.844-5.1719v-10.5q-5.4688 4.6406-11.625 6.9844t-12.938 2.3438q-13.391 0-20.109-7.4688-6.7031-7.4688-6.7031-22.266 0-14.75 6.7031-22.219 6.7188-7.4688 20.109-7.4688 5.2188 0 9.3125 0.90625 4.1094 0.90625 7.375 2.8125z"/>
</defs>
<use xlink:href="#as"/>
</g>
</g>
<path d="m1092 582.13 2.5207-3.8494q1.3148-2.0078-0.69302-3.3226l-6.4773-4.2416q-2.0078-1.3148-3.3226 0.69302l-2.5207 3.8494q-1.3148 2.0078 0.69302 3.3226l6.4773 4.2416q2.0078 1.3148 3.3226-0.69302z" clip-path="url(#a)" fill="#fff" stroke="#fff"/>
<g clip-path="url(#a)">
<g transform="translate(1088.6 579.9) rotate(-56.782) scale(.08 -.08)">
<use xlink:href="#v"/>
</g>
</g>
<path d="m1149.1 527.65 1.4125-5.2871q0.61947-2.3187-1.6992-2.9381l-7.4801-1.9984q-2.3187-0.61947-2.9381 1.6992l-1.4125 5.2871q-0.61947 2.3187 1.6992 2.9381l7.4801 1.9984q2.3187 0.61947 2.9381-1.6992z" clip-path="url(#a)" fill="#fff" stroke="#fff"/>
<g clip-path="url(#a)">
<g transform="translate(1145.1 526.6) rotate(-75.042) scale(.08 -.08)">
<use xlink:href="#q"/>
</g>
</g>
<path d="m1195.5 577.03 1.7542 4.2537q0.91498 2.2187 3.1337 1.3038l7.1578-2.9517q2.2187-0.91498 1.3038-3.1337l-1.7542-4.2537q-0.91498-2.2187-3.1337-1.3038l-7.1578 2.9517q-2.2187 0.91498-1.3038 3.1337z" clip-path="url(#a)" fill="#fff" stroke="#fff"/>
<g clip-path="url(#a)">
<g transform="translate(1199.3 575.48) rotate(67.59) scale(.08 -.08)">
<use xlink:href="#v"/>
</g>
</g>
<path d="m1236.2 578.25 3.8291 4.8253q1.4918 1.88 3.3718 0.38815l6.065-4.8128q1.88-1.4918 0.38815-3.3718l-3.8291-4.8253q-1.4918-1.88-3.3718-0.38815l-6.065 4.8128q-1.88 1.4918-0.38815 3.3718z" clip-path="url(#a)" fill="#fff" stroke="#fff"/>
<g clip-path="url(#a)">
<g transform="translate(1239.3 575.72) rotate(51.567) scale(.08 -.08)">
<use xlink:href="#af"/>
</g>
</g>
<path d="m1279.3 580.01 3.6896 3.1073q1.8357 1.546 3.3817-0.28971l4.9875-5.9221q1.546-1.8357-0.28971-3.3817l-3.6896-3.1073q-1.8357-1.546-3.3817 0.28971l-4.9875 5.9221q-1.546 1.8357 0.28971 3.3817z" clip-path="url(#a)" fill="#fff" stroke="#fff"/>
<g clip-path="url(#a)">
<g transform="translate(1281.9 576.9) rotate(40.103) scale(.08 -.08)">
<use xlink:href="#u"/>
</g>
</g>
<path d="m1322.9 580.52 4.9597 3.1116q2.033 1.2755 3.3085-0.75756l4.1147-6.5586q1.2755-2.033-0.75756-3.3085l-4.9597-3.1116q-2.033-1.2755-3.3085 0.75756l-4.1147 6.5586q-1.2755 2.033 0.75756 3.3085z" clip-path="url(#a)" fill="#fff" stroke="#fff"/>
<g clip-path="url(#a)">
<g transform="translate(1325 577.08) rotate(32.103) scale(.08 -.08)">
<use xlink:href="#am"/>
</g>
</g>
<path d="m745.06 719.54v33.808q0 2.4 2.4 2.4h7.7425q2.4 0 2.4-2.4v-33.808q0-2.4-2.4-2.4h-7.7425q-2.4 0-2.4 2.4z" clip-path="url(#a)" fill="#fff" stroke="#fff"/>
<g clip-path="url(#a)">
<g transform="translate(749.13 719.54) rotate(90) scale(.08 -.08)">
<use xlink:href="#l"/>
<use x="44.083984" xlink:href="#d"/>
<use x="105.607422" xlink:href="#h"/>
<use x="144.970703" xlink:href="#k"/>
<use x="242.382812" xlink:href="#f"/>
<use x="270.166016" xlink:href="#g"/>
<use x="333.544922" xlink:href="#e"/>
<use x="394.824219" xlink:href="#j"/>
</g>
</g>
<path d="m843.3 754.09 17.991-28.623q1.2772-2.0319-0.75475-3.3091l-6.5551-4.1203q-2.0319-1.2772-3.3091 0.75475l-17.991 28.623q-1.2772 2.0319 0.75475 3.3091l6.5551 4.1203q2.0319 1.2772 3.3091-0.75475z" clip-path="url(#a)" fill="#fff" stroke="#fff"/>
<g clip-path="url(#a)">
<g transform="translate(839.85 751.93) rotate(-57.848) scale(.08 -.08)">
<use xlink:href="#l"/>
<use x="44.083984" xlink:href="#d"/>
<use x="105.607422" xlink:href="#h"/>
<use x="144.970703" xlink:href="#k"/>
<use x="242.382812" xlink:href="#f"/>
<use x="270.166016" xlink:href="#g"/>
<use x="333.544922" xlink:href="#e"/>
<use x="394.824219" xlink:href="#j"/>
</g>
</g>
<path d="m885.74 753.4 0.29108-33.806q0.020664-2.3999-2.3792-2.4206l-7.7422-0.066663q-2.3999-0.020665-2.4206 2.3792l-0.29108 33.806q-0.020664 2.3999 2.3792 2.4206l7.7422 0.066663q2.3999 0.020664 2.4206-2.3792z" clip-path="url(#a)" fill="#fff" stroke="#fff"/>
<g clip-path="url(#a)">
<g transform="translate(881.68 753.37) rotate(-89.507) scale(.08 -.08)">
<use xlink:href="#l"/>
<use x="44.083984" xlink:href="#d"/>
<use x="105.607422" xlink:href="#h"/>
<use x="144.970703" xlink:href="#k"/>
<use x="242.382812" xlink:href="#f"/>
<use x="270.166016" xlink:href="#g"/>
<use x="333.544922" xlink:href="#e"/>
<use x="394.824219" xlink:href="#j"/>
</g>
</g>
<path d="m899.24 725.56 18.167 28.512q1.2897 2.024 3.3137 0.73439l6.5297-4.1605q2.024-1.2897 0.73439-3.3137l-18.167-28.512q-1.2897-2.0241-3.3137-0.73439l-6.5297 4.1605q-2.024 1.2897-0.73439 3.3137z" clip-path="url(#a)" fill="#fff" stroke="#fff"/>
<g clip-path="url(#a)">
<g transform="translate(902.67 723.38) rotate(57.496) scale(.08 -.08)">
<use xlink:href="#l"/>
<use x="44.083984" xlink:href="#d"/>
<use x="105.607422" xlink:href="#h"/>
<use x="144.970703" xlink:href="#k"/>
<use x="242.382812" xlink:href="#f"/>
<use x="270.166016" xlink:href="#g"/>
<use x="333.544922" xlink:href="#e"/>
<use x="394.824219" xlink:href="#j"/>
</g>
</g>
<path d="m1011.6 719.54v33.808q0 2.4 2.4 2.4h7.7425q2.4 0 2.4-2.4v-33.808q0-2.4-2.4-2.4h-7.7425q-2.4 0-2.4 2.4z" clip-path="url(#a)" fill="#fff" stroke="#fff"/>
<g clip-path="url(#a)">
<g transform="translate(1015.7 719.54) rotate(90) scale(.08 -.08)">
<use xlink:href="#l"/>
<use x="44.083984" xlink:href="#d"/>
<use x="105.607422" xlink:href="#h"/>
<use x="144.970703" xlink:href="#k"/>
<use x="242.382812" xlink:href="#f"/>
<use x="270.166016" xlink:href="#g"/>
<use x="333.544922" xlink:href="#e"/>
<use x="394.824219" xlink:href="#j"/>
</g>
</g>
<path d="m1115.2 635.43 2.0694-5.802q0.80627-2.2605-1.4542-3.0668l-7.2925-2.6011q-2.2605-0.80627-3.0668 1.4542l-2.0694 5.802q-0.80627 2.2605 1.4542 3.0668l7.2925 2.6011q2.2605 0.80627 3.0668-1.4542z" clip-path="url(#a)" fill="#fff" stroke="#fff"/>
<g clip-path="url(#a)">
<g transform="translate(1111.4 634.07) rotate(-70.37) scale(.08 -.08)">
<use xlink:href="#af"/>
</g>
</g>
<path d="m1140.2 626.45 4.3643 12.236q0.80627 2.2605 3.0668 1.4542l7.5351-2.6876q2.2605-0.80627 1.4542-3.0668l-4.3643-12.236q-0.80627-2.2605-3.0668-1.4542l-7.5351 2.6876q-2.2605 0.80627-1.4542 3.0668z" clip-path="url(#a)" fill="#fff" stroke="#fff"/>
<g clip-path="url(#a)">
<g transform="translate(1144.2 625.01) rotate(70.37) scale(.08 -.08)">
<defs>
<path id="au" d="m21 76.422v-100h-8.2969v100z"/>
</defs>
<use xlink:href="#q"/>
<use x="68.408203" xlink:href="#au"/>
<use x="102.099609" xlink:href="#u"/>
</g>
</g>
<path d="m1240.1 719.54v33.808q0 2.4 2.4 2.4h7.7425q2.4 0 2.4-2.4v-33.808q0-2.4-2.4-2.4h-7.7425q-2.4 0-2.4 2.4z" clip-path="url(#a)" fill="#fff" stroke="#fff"/>
<g clip-path="url(#a)">
<g transform="translate(1244.1 719.54) rotate(90) scale(.08 -.08)">
<use xlink:href="#l"/>
<use x="44.083984" xlink:href="#d"/>
<use x="105.607422" xlink:href="#h"/>
<use x="144.970703" xlink:href="#k"/>
<use x="242.382812" xlink:href="#f"/>
<use x="270.166016" xlink:href="#g"/>
<use x="333.544922" xlink:href="#e"/>
<use x="394.824219" xlink:href="#j"/>
</g>
</g>
<path d="m1321.7 719.54v33.808q0 2.4 2.4 2.4h7.7425q2.4 0 2.4-2.4v-33.808q0-2.4-2.4-2.4h-7.7425q-2.4 0-2.4 2.4z" clip-path="url(#a)" fill="#fff" stroke="#fff"/>
<g clip-path="url(#a)">
<g transform="translate(1325.7 719.54) rotate(90) scale(.08 -.08)">
<use xlink:href="#l"/>
<use x="44.083984" xlink:href="#d"/>
<use x="105.607422" xlink:href="#h"/>
<use x="144.970703" xlink:href="#k"/>
<use x="242.382812" xlink:href="#f"/>
<use x="270.166016" xlink:href="#g"/>
<use x="333.544922" xlink:href="#e"/>
<use x="394.824219" xlink:href="#j"/>
</g>
</g>
<path d="m1406 719.54v33.808q0 2.4 2.4 2.4h7.7425q2.4 0 2.4-2.4v-33.808q0-2.4-2.4-2.4h-7.7425q-2.4 0-2.4 2.4z" clip-path="url(#a)" fill="#fff" stroke="#fff"/>
<g clip-path="url(#a)">
<g transform="translate(1410 719.54) rotate(90) scale(.08 -.08)">
<use xlink:href="#l"/>
<use x="44.083984" xlink:href="#d"/>
<use x="105.607422" xlink:href="#h"/>
<use x="144.970703" xlink:href="#k"/>
<use x="242.382812" xlink:href="#f"/>
<use x="270.166016" xlink:href="#g"/>
<use x="333.544922" xlink:href="#e"/>
<use x="394.824219" xlink:href="#j"/>
</g>
</g>
<path d="m1085 719.54v33.808q0 2.4 2.4 2.4h7.7425q2.4 0 2.4-2.4v-33.808q0-2.4-2.4-2.4h-7.7425q-2.4 0-2.4 2.4z" clip-path="url(#a)" fill="#fff" stroke="#fff"/>
<g clip-path="url(#a)">
<g transform="translate(1089.1 719.54) rotate(90) scale(.08 -.08)">
<use xlink:href="#l"/>
<use x="44.083984" xlink:href="#d"/>
<use x="105.607422" xlink:href="#h"/>
<use x="144.970703" xlink:href="#k"/>
<use x="242.382812" xlink:href="#f"/>
<use x="270.166016" xlink:href="#g"/>
<use x="333.544922" xlink:href="#e"/>
<use x="394.824219" xlink:href="#j"/>
</g>
</g>
<path d="m1161.2 719.54v33.808q0 2.4 2.4 2.4h7.7425q2.4 0 2.4-2.4v-33.808q0-2.4-2.4-2.4h-7.7425q-2.4 0-2.4 2.4z" clip-path="url(#a)" fill="#fff" stroke="#fff"/>
<g clip-path="url(#a)">
<g transform="translate(1165.3 719.54) rotate(90) scale(.08 -.08)">
<use xlink:href="#l"/>
<use x="44.083984" xlink:href="#d"/>
<use x="105.607422" xlink:href="#h"/>
<use x="144.970703" xlink:href="#k"/>
<use x="242.382812" xlink:href="#f"/>
<use x="270.166016" xlink:href="#g"/>
<use x="333.544922" xlink:href="#e"/>
<use x="394.824219" xlink:href="#j"/>
</g>
</g>
<path d="m87.664 753.65 1.7442-33.762q0.12382-2.3968-2.273-2.5206l-7.7322-0.39946q-2.3968-0.12382-2.5206 2.273l-1.7442 33.762q-0.12382 2.3968 2.273 2.5206l7.7322 0.39946q2.3968 0.12382 2.5206-2.273z" clip-path="url(#a)" fill="#fff" stroke="#fff"/>
<g clip-path="url(#a)">
<g transform="translate(83.605 753.44) rotate(-87.043) scale(.08 -.08)">
<use xlink:href="#l"/>
<use x="44.083984" xlink:href="#d"/>
<use x="105.607422" xlink:href="#h"/>
<use x="144.970703" xlink:href="#k"/>
<use x="242.382812" xlink:href="#f"/>
<use x="270.166016" xlink:href="#g"/>
<use x="333.544922" xlink:href="#e"/>
<use x="394.824219" xlink:href="#j"/>
</g>
</g>
<path d="m80.578 719.89 1.7442 33.762q0.12382 2.3968 2.5206 2.273l7.7322-0.39946q2.3968-0.12382 2.273-2.5206l-1.7442-33.762q-0.12382-2.3968-2.5206-2.273l-7.7322 0.39946q-2.3968 0.12382-2.273 2.5206z" clip-path="url(#a)" fill="#fff" stroke="#fff"/>
<g clip-path="url(#a)">
<g transform="translate(84.636 719.68) rotate(87.043) scale(.08 -.08)">
<use xlink:href="#l"/>
<use x="44.083984" xlink:href="#d"/>
<use x="105.607422" xlink:href="#h"/>
<use x="144.970703" xlink:href="#k"/>
<use x="242.382812" xlink:href="#f"/>
<use x="270.166016" xlink:href="#g"/>
<use x="333.544922" xlink:href="#e"/>
<use x="394.824219" xlink:href="#j"/>
</g>
</g>
<path d="m137.27 472.25 0.63809-5.0146q0.30295-2.3808-2.0779-2.6838l-7.6806-0.97733q-2.3808-0.30295-2.6838 2.0779l-0.63809 5.0146q-0.30295 2.3808 2.0779 2.6838l7.6806 0.97734q2.3808 0.30295 2.6838-2.0779z" clip-path="url(#a)" fill="#fff" stroke="#fff"/>
<g clip-path="url(#a)">
<g transform="translate(133.24 471.73) rotate(-82.748) scale(.08 -.08)">
<defs>
<path id="z" d="m9.8125 72.906h46.094v-8.3125h-36.234v-21.578h34.719v-8.2969h-34.719v-26.422h37.109v-8.2969h-46.969z"/>
</defs>
<use xlink:href="#z"/>
</g>
</g>
<path d="m145.53 472.29 0.49672-5.5641q0.2134-2.3905-2.1771-2.6039l-7.7118-0.68844q-2.3905-0.2134-2.6039 2.1771l-0.49672 5.5641q-0.2134 2.3905 2.1771 2.6039l7.7118 0.68844q2.3905 0.2134 2.6039-2.1771z" clip-path="url(#a)" fill="#fff" stroke="#fff"/>
<g clip-path="url(#a)">
<g transform="translate(141.48 471.93) rotate(-84.899) scale(.08 -.08)">
<defs>
<path id="ag" d="m64.406 67.281v-10.391q-4.9844 4.6406-10.625 6.9219-5.6406 2.2969-11.984 2.2969-12.5 0-19.141-7.6406t-6.6406-22.094q0-14.406 6.6406-22.047t19.141-7.6406q6.3438 0 11.984 2.2969t10.625 6.9375v-10.312q-5.1719-3.5156-10.969-5.2812-5.7812-1.75-12.219-1.75-16.562 0-26.094 10.125-9.5156 10.141-9.5156 27.672 0 17.578 9.5156 27.703 9.5312 10.141 26.094 10.141 6.5312 0 12.312-1.7344 5.7969-1.7344 10.875-5.2031z"/>
</defs>
<use xlink:href="#ag"/>
</g>
</g>
<path d="m198.83 310.25 3.3001 3.8291q1.5668 1.818 3.3848 0.25116l5.8649-5.0546q1.818-1.5668 0.25116-3.3848l-3.3001-3.8291q-1.5668-1.818-3.3848-0.25116l-5.8649 5.0546q-1.818 1.5668-0.25116 3.3848z" clip-path="url(#a)" fill="#fff" stroke="#fff"/>
<g clip-path="url(#a)">
<g transform="translate(201.91 307.6) rotate(49.244) scale(.08 -.08)">
<use xlink:href="#z"/>
</g>
</g>
<path d="m97.76 719.54v33.808q0 2.4 2.4 2.4h7.7425q2.4 0 2.4-2.4v-33.808q0-2.4-2.4-2.4h-7.7425q-2.4 0-2.4 2.4z" clip-path="url(#a)" fill="#fff" stroke="#fff"/>
<g clip-path="url(#a)">
<g transform="translate(101.82 719.54) rotate(90) scale(.08 -.08)">
<use xlink:href="#l"/>
<use x="44.083984" xlink:href="#d"/>
<use x="105.607422" xlink:href="#h"/>
<use x="144.970703" xlink:href="#k"/>
<use x="242.382812" xlink:href="#f"/>
<use x="270.166016" xlink:href="#g"/>
<use x="333.544922" xlink:href="#e"/>
<use x="394.824219" xlink:href="#j"/>
</g>
</g>
<path d="m114.08 719.54v33.808q0 2.4 2.4 2.4h7.7425q2.4 0 2.4-2.4v-33.808q0-2.4-2.4-2.4h-7.7425q-2.4 0-2.4 2.4z" clip-path="url(#a)" fill="#fff" stroke="#fff"/>
<g clip-path="url(#a)">
<g transform="translate(118.14 719.54) rotate(90) scale(.08 -.08)">
<use xlink:href="#l"/>
<use x="44.083984" xlink:href="#d"/>
<use x="105.607422" xlink:href="#h"/>
<use x="144.970703" xlink:href="#k"/>
<use x="242.382812" xlink:href="#f"/>
<use x="270.166016" xlink:href="#g"/>
<use x="333.544922" xlink:href="#e"/>
<use x="394.824219" xlink:href="#j"/>
</g>
</g>
<path d="m200.57 527.62 1.8327-5.248q0.79126-2.2658-1.4746-3.0571l-7.3096-2.5526q-2.2658-0.79126-3.0571 1.4746l-1.8327 5.248q-0.79126 2.2658 1.4746 3.0571l7.3096 2.5526q2.2658 0.79126 3.0571-1.4746z" clip-path="url(#a)" fill="#fff" stroke="#fff"/>
<g clip-path="url(#a)">
<g transform="translate(196.74 526.28) rotate(-70.75) scale(.08 -.08)">
<defs>
<path id="an" d="m44.391 34.188q3.1719-1.0781 6.1719-4.5938t6.0312-9.6719l10.016-19.922h-10.609l-9.3125 18.703q-3.625 7.3281-7.0156 9.7188t-9.25 2.3906h-10.75v-30.812h-9.8594v72.906h22.266q12.5 0 18.656-5.2344 6.1562-5.2188 6.1562-15.766 0-6.8906-3.2031-11.438-3.2031-4.5312-9.2969-6.2812zm-24.719 30.609v-25.875h12.406q7.125 0 10.766 3.2969t3.6406 9.6875-3.6406 9.6406-10.766 3.25z"/>
</defs>
<use xlink:href="#an"/>
</g>
</g>
<path d="m218.18 421.92 3.4092-4.9571q1.36-1.9775-0.61747-3.3375l-6.3794-4.3874q-1.9775-1.36-3.3375 0.61747l-3.4092 4.9571q-1.36 1.9775 0.61747 3.3375l6.3794 4.3874q1.9775 1.36 3.3375-0.61747z" clip-path="url(#a)" fill="#fff" stroke="#fff"/>
<g clip-path="url(#a)">
<g transform="translate(214.83 419.62) rotate(-55.482) scale(.08 -.08)">
<use xlink:href="#y"/>
</g>
</g>
<path d="m274.67 521.86 0.80378 4.3844q0.43277 2.3607 2.7934 1.9279l7.6156-1.3961q2.3607-0.43277 1.9279-2.7934l-0.80378-4.3844q-0.43277-2.3607-2.7934-1.9279l-7.6156 1.3961q-2.3607 0.43277-1.9279 2.7934z" clip-path="url(#a)" fill="#fff" stroke="#fff"/>
<g clip-path="url(#a)">
<g transform="translate(278.67 521.13) rotate(79.612) scale(.08 -.08)">
<use xlink:href="#ao"/>
</g>
</g>
<path d="m309.12 418.74 4.5953 3.8831q1.8332 1.549 3.3822-0.28414l4.9972-5.9139q1.549-1.8332-0.28414-3.3822l-4.5953-3.8831q-1.8332-1.549-3.3822 0.28414l-4.9972 5.9139q-1.549 1.8332 0.28414 3.3822z" clip-path="url(#a)" fill="#fff" stroke="#fff"/>
<g clip-path="url(#a)">
<g transform="translate(311.74 415.63) rotate(40.198) scale(.08 -.08)">
<use xlink:href="#y"/>
</g>
</g>
<path d="m133.12 719.54v33.808q0 2.4 2.4 2.4h7.7425q2.4 0 2.4-2.4v-33.808q0-2.4-2.4-2.4h-7.7425q-2.4 0-2.4 2.4z" clip-path="url(#a)" fill="#fff" stroke="#fff"/>
<g clip-path="url(#a)">
<g transform="translate(137.18 719.54) rotate(90) scale(.08 -.08)">
<use xlink:href="#l"/>
<use x="44.083984" xlink:href="#d"/>
<use x="105.607422" xlink:href="#h"/>
<use x="144.970703" xlink:href="#k"/>
<use x="242.382812" xlink:href="#f"/>
<use x="270.166016" xlink:href="#g"/>
<use x="333.544922" xlink:href="#e"/>
<use x="394.824219" xlink:href="#j"/>
</g>
</g>
<path d="m154.37 581.03 1.416-5.2861q0.62098-2.3183-1.6973-2.9393l-7.4788-2.0033q-2.3183-0.62098-2.9393 1.6973l-1.416 5.2861q-0.62098 2.3183 1.6973 2.9393l7.4788 2.0033q2.3183 0.62098 2.9393-1.6973z" clip-path="url(#a)" fill="#fff" stroke="#fff"/>
<g clip-path="url(#a)">
<g transform="translate(150.45 579.98) rotate(-75.005) scale(.08 -.08)">
<use xlink:href="#q"/>
</g>
</g>
<path d="m175.49 579.65 0.37171-4.8094q0.18494-2.3929-2.2079-2.5778l-7.7195-0.59663q-2.3929-0.18494-2.5778 2.2079l-0.37171 4.8094q-0.18494 2.3929 2.2079 2.5778l7.7195 0.59663q2.3929 0.18494 2.5778-2.2079z" clip-path="url(#a)" fill="#fff" stroke="#fff"/>
<g clip-path="url(#a)">
<g transform="translate(171.43 579.34) rotate(-85.58) scale(.08 -.08)">
<use xlink:href="#u"/>
</g>
</g>
<path d="m175.29 574.26 0.20265 5.4687q0.088874 2.3984 2.4872 2.3095l7.7372-0.28671q2.3984-0.088874 2.3095-2.4872l-0.20265-5.4687q-0.088874-2.3984-2.4872-2.3095l-7.7372 0.28671q-2.3984 0.088874-2.3095 2.4872z" clip-path="url(#a)" fill="#fff" stroke="#fff"/>
<g clip-path="url(#a)">
<g transform="translate(179.35 574.11) rotate(87.878) scale(.08 -.08)">
<use xlink:href="#q"/>
</g>
</g>
<path d="m203.89 524.34 2.8654 4.6624q1.2566 2.0447 3.3014 0.78806l6.5963-4.054q2.0447-1.2566 0.78806-3.3014l-2.8654-4.6624q-1.2566-2.0447-3.3014-0.78806l-6.5963 4.054q-2.0447 1.2567-0.78806 3.3014z" clip-path="url(#a)" fill="#fff" stroke="#fff"/>
<g clip-path="url(#a)">
<g transform="translate(207.36 522.21) rotate(58.426) scale(.08 -.08)">
<use xlink:href="#q"/>
</g>
</g>
<path d="m304.46 719.54v33.808q0 2.4 2.4 2.4h7.7425q2.4 0 2.4-2.4v-33.808q0-2.4-2.4-2.4h-7.7425q-2.4 0-2.4 2.4z" clip-path="url(#a)" fill="#fff" stroke="#fff"/>
<g clip-path="url(#a)">
<g transform="translate(308.53 719.54) rotate(90) scale(.08 -.08)">
<use xlink:href="#l"/>
<use x="44.083984" xlink:href="#d"/>
<use x="105.607422" xlink:href="#h"/>
<use x="144.970703" xlink:href="#k"/>
<use x="242.382812" xlink:href="#f"/>
<use x="270.166016" xlink:href="#g"/>
<use x="333.544922" xlink:href="#e"/>
<use x="394.824219" xlink:href="#j"/>
</g>
</g>
<path d="m251.65 583.34 4.2171-3.4878q1.8494-1.5296 0.31983-3.379l-4.9345-5.9663q-1.5296-1.8494-3.379-0.31983l-4.2171 3.4878q-1.8494 1.5296-0.31983 3.379l4.9345 5.9663q1.5296 1.8494 3.379 0.31983z" clip-path="url(#a)" fill="#fff" stroke="#fff"/>
<g clip-path="url(#a)">
<g transform="translate(249.06 580.21) rotate(-39.593) scale(.08 -.08)">
<use xlink:href="#q"/>
</g>
</g>
<path d="m369.87 580.03 0.67758-4.7759q0.33712-2.3762-2.0391-2.7133l-7.6657-1.0876q-2.3762-0.33712-2.7133 2.0391l-0.67757 4.7759q-0.33712 2.3762 2.0391 2.7133l7.6657 1.0876q2.3762 0.33712 2.7133-2.0391z" clip-path="url(#a)" fill="#fff" stroke="#fff"/>
<g clip-path="url(#a)">
<g transform="translate(365.84 579.46) rotate(-81.925) scale(.08 -.08)">
<use xlink:href="#u"/>
</g>
</g>
<path d="m378.02 574.77 0.22383 4.5958q0.11675 2.3972 2.5139 2.2804l7.7333-0.37663q2.3972-0.11675 2.2804-2.5139l-0.22383-4.5958q-0.11675-2.3972-2.5139-2.2804l-7.7333 0.37663q-2.3972 0.11675-2.2804 2.5139z" clip-path="url(#a)" fill="#fff" stroke="#fff"/>
<g clip-path="url(#a)">
<g transform="translate(382.08 574.57) rotate(87.212) scale(.08 -.08)">
<use xlink:href="#v"/>
</g>
</g>
<path d="m410.88 576.32 1.8535 5.149q0.81288 2.2581 3.071 1.4453l7.2849-2.6224q2.2581-0.81288 1.4453-3.071l-1.8535-5.149q-0.81288-2.2581-3.071-1.4453l-7.2849 2.6224q-2.2581 0.81288-1.4453 3.071z" clip-path="url(#a)" fill="#fff" stroke="#fff"/>
<g clip-path="url(#a)">
<g transform="translate(414.71 574.94) rotate(70.202) scale(.08 -.08)">
<use xlink:href="#q"/>
</g>
</g>
<path d="m474.68 527.64 4.8313 2.5703q2.1188 1.1272 3.246-0.99158l3.6365-6.8354q1.1272-2.1188-0.99158-3.246l-4.8313-2.5703q-2.1188-1.1272-3.246 0.99158l-3.6365 6.8354q-1.1272 2.1188 0.99158 3.246z" clip-path="url(#a)" fill="#fff" stroke="#fff"/>
<g clip-path="url(#a)">
<g transform="translate(476.59 524.05) rotate(28.013) scale(.08 -.08)">
<use xlink:href="#q"/>
</g>
</g>
<path d="m342.54 719.54v33.808q0 2.4 2.4 2.4h7.7425q2.4 0 2.4-2.4v-33.808q0-2.4-2.4-2.4h-7.7425q-2.4 0-2.4 2.4z" clip-path="url(#a)" fill="#fff" stroke="#fff"/>
<g clip-path="url(#a)">
<g transform="translate(346.6 719.54) rotate(90) scale(.08 -.08)">
<use xlink:href="#l"/>
<use x="44.083984" xlink:href="#d"/>
<use x="105.607422" xlink:href="#h"/>
<use x="144.970703" xlink:href="#k"/>
<use x="242.382812" xlink:href="#f"/>
<use x="270.166016" xlink:href="#g"/>
<use x="333.544922" xlink:href="#e"/>
<use x="394.824219" xlink:href="#j"/>
</g>
</g>
<path d="m383.34 719.54v33.808q0 2.4 2.4 2.4h7.7425q2.4 0 2.4-2.4v-33.808q0-2.4-2.4-2.4h-7.7425q-2.4 0-2.4 2.4z" clip-path="url(#a)" fill="#fff" stroke="#fff"/>
<g clip-path="url(#a)">
<g transform="translate(387.4 719.54) rotate(90) scale(.08 -.08)">
<use xlink:href="#l"/>
<use x="44.083984" xlink:href="#d"/>
<use x="105.607422" xlink:href="#h"/>
<use x="144.970703" xlink:href="#k"/>
<use x="242.382812" xlink:href="#f"/>
<use x="270.166016" xlink:href="#g"/>
<use x="333.544922" xlink:href="#e"/>
<use x="394.824219" xlink:href="#j"/>
</g>
</g>
<path d="m447.18 754.3 7.2502-33.021q0.5147-2.3442-1.8295-2.8589l-7.5624-1.6604q-2.3442-0.5147-2.8589 1.8295l-7.2502 33.021q-0.51469 2.3442 1.8295 2.8589l7.5624 1.6604q2.3442 0.51469 2.8589-1.8295z" clip-path="url(#a)" fill="#fff" stroke="#fff"/>
<g clip-path="url(#a)">
<g transform="translate(443.21 753.43) rotate(-77.616) scale(.08 -.08)">
<use xlink:href="#l"/>
<use x="44.083984" xlink:href="#d"/>
<use x="105.607422" xlink:href="#h"/>
<use x="144.970703" xlink:href="#k"/>
<use x="242.382812" xlink:href="#f"/>
<use x="270.166016" xlink:href="#g"/>
<use x="333.544922" xlink:href="#e"/>
<use x="394.824219" xlink:href="#j"/>
</g>
</g>
<path d="m458.05 721.28 7.2502 33.021q0.5147 2.3442 2.8589 1.8295l7.5624-1.6604q2.3442-0.51469 1.8295-2.8589l-7.2502-33.021q-0.51469-2.3442-2.8589-1.8295l-7.5624 1.6604q-2.3442 0.5147-1.8295 2.8589z" clip-path="url(#a)" fill="#fff" stroke="#fff"/>
<g clip-path="url(#a)">
<g transform="translate(462.02 720.41) rotate(77.616) scale(.08 -.08)">
<use xlink:href="#l"/>
<use x="44.083984" xlink:href="#d"/>
<use x="105.607422" xlink:href="#h"/>
<use x="144.970703" xlink:href="#k"/>
<use x="242.382812" xlink:href="#f"/>
<use x="270.166016" xlink:href="#g"/>
<use x="333.544922" xlink:href="#e"/>
<use x="394.824219" xlink:href="#j"/>
</g>
</g>
<path d="m559.12 635.46 2.2336-4.5348q1.0605-2.153-1.0925-3.2135l-6.9457-3.4211q-2.153-1.0605-3.2135 1.0925l-2.2336 4.5348q-1.0605 2.153 1.0925 3.2135l6.9457 3.4211q2.153 1.0605 3.2135-1.0925z" clip-path="url(#a)" fill="#fff" stroke="#fff"/>
<g clip-path="url(#a)">
<g transform="translate(555.47 633.67) rotate(-63.777) scale(.08 -.08)">
<use xlink:href="#z"/>
</g>
</g>
<path d="m586.69 633 0.042927-5.0548q0.020381-2.3999-2.3795-2.4203l-7.7422-0.065749q-2.3999-0.020381-2.4203 2.3795l-0.042927 5.0548q-0.02038 2.3999 2.3795 2.4203l7.7422 0.065749q2.3999 0.020381 2.4203-2.3795z" clip-path="url(#a)" fill="#fff" stroke="#fff"/>
<g clip-path="url(#a)">
<g transform="translate(582.63 632.97) rotate(-89.513) scale(.08 -.08)">
<use xlink:href="#z"/>
</g>
</g>
<path d="m600.78 630.74 2.5024 4.9944q1.0751 2.1457 3.2208 1.0706l6.9222-3.4683q2.1457-1.0751 1.0706-3.2208l-2.5024-4.9944q-1.0751-2.1457-3.2208-1.0706l-6.9222 3.4683q-2.1457 1.0751-1.0706 3.2208z" clip-path="url(#a)" fill="#fff" stroke="#fff"/>
<g clip-path="url(#a)">
<g transform="translate(604.42 628.91) rotate(63.387) scale(.08 -.08)">
<use xlink:href="#ag"/>
</g>
</g>
<path d="m522.04 719.54v33.808q0 2.4 2.4 2.4h7.7425q2.4 0 2.4-2.4v-33.808q0-2.4-2.4-2.4h-7.7425q-2.4 0-2.4 2.4z" clip-path="url(#a)" fill="#fff" stroke="#fff"/>
<g clip-path="url(#a)">
<g transform="translate(526.11 719.54) rotate(90) scale(.08 -.08)">
<use xlink:href="#l"/>
<use x="44.083984" xlink:href="#d"/>
<use x="105.607422" xlink:href="#h"/>
<use x="144.970703" xlink:href="#k"/>
<use x="242.382812" xlink:href="#f"/>
<use x="270.166016" xlink:href="#g"/>
<use x="333.544922" xlink:href="#e"/>
<use x="394.824219" xlink:href="#j"/>
</g>
</g>
<path d="m573.72 719.54v33.808q0 2.4 2.4 2.4h7.7425q2.4 0 2.4-2.4v-33.808q0-2.4-2.4-2.4h-7.7425q-2.4 0-2.4 2.4z" clip-path="url(#a)" fill="#fff" stroke="#fff"/>
<g clip-path="url(#a)">
<g transform="translate(577.78 719.54) rotate(90) scale(.08 -.08)">
<use xlink:href="#l"/>
<use x="44.083984" xlink:href="#d"/>
<use x="105.607422" xlink:href="#h"/>
<use x="144.970703" xlink:href="#k"/>
<use x="242.382812" xlink:href="#f"/>
<use x="270.166016" xlink:href="#g"/>
<use x="333.544922" xlink:href="#e"/>
<use x="394.824219" xlink:href="#j"/>
</g>
</g>
<path d="m628.11 719.54v33.808q0 2.4 2.4 2.4h7.7425q2.4 0 2.4-2.4v-33.808q0-2.4-2.4-2.4h-7.7425q-2.4 0-2.4 2.4z" clip-path="url(#a)" fill="#fff" stroke="#fff"/>
<g clip-path="url(#a)">
<g transform="translate(632.18 719.54) rotate(90) scale(.08 -.08)">
<use xlink:href="#l"/>
<use x="44.083984" xlink:href="#d"/>
<use x="105.607422" xlink:href="#h"/>
<use x="144.970703" xlink:href="#k"/>
<use x="242.382812" xlink:href="#f"/>
<use x="270.166016" xlink:href="#g"/>
<use x="333.544922" xlink:href="#e"/>
<use x="394.824219" xlink:href="#j"/>
</g>
</g>
<path d="m154.88 719.54v33.808q0 2.4 2.4 2.4h7.7425q2.4 0 2.4-2.4v-33.808q0-2.4-2.4-2.4h-7.7425q-2.4 0-2.4 2.4z" clip-path="url(#a)" fill="#fff" stroke="#fff"/>
<g clip-path="url(#a)">
<g transform="translate(158.94 719.54) rotate(90) scale(.08 -.08)">
<use xlink:href="#l"/>
<use x="44.083984" xlink:href="#d"/>
<use x="105.607422" xlink:href="#h"/>
<use x="144.970703" xlink:href="#k"/>
<use x="242.382812" xlink:href="#f"/>
<use x="270.166016" xlink:href="#g"/>
<use x="333.544922" xlink:href="#e"/>
<use x="394.824219" xlink:href="#j"/>
</g>
</g>
<path d="m179.35 719.54v33.808q0 2.4 2.4 2.4h7.7425q2.4 0 2.4-2.4v-33.808q0-2.4-2.4-2.4h-7.7425q-2.4 0-2.4 2.4z" clip-path="url(#a)" fill="#fff" stroke="#fff"/>
<g clip-path="url(#a)">
<g transform="translate(183.42 719.54) rotate(90) scale(.08 -.08)">
<use xlink:href="#l"/>
<use x="44.083984" xlink:href="#d"/>
<use x="105.607422" xlink:href="#h"/>
<use x="144.970703" xlink:href="#k"/>
<use x="242.382812" xlink:href="#f"/>
<use x="270.166016" xlink:href="#g"/>
<use x="333.544922" xlink:href="#e"/>
<use x="394.824219" xlink:href="#j"/>
</g>
</g>
<path d="m233.49 634.83 1.542-5.3406q0.66577-2.3058-1.64-2.9716l-7.4386-2.1478q-2.3058-0.66577-2.9716 1.64l-1.542 5.3406q-0.66577 2.3058 1.64 2.9716l7.4386 2.1478q2.3058 0.66577 2.9716-1.64z" clip-path="url(#a)" fill="#fff" stroke="#fff"/>
<g clip-path="url(#a)">
<g transform="translate(229.58 633.71) rotate(-73.895) scale(.08 -.08)">
<use xlink:href="#an"/>
</g>
</g>
<path d="m249.44 632.78 0.039073-4.6011q0.020381-2.3999-2.3795-2.4203l-7.7422-0.065748q-2.3999-0.020381-2.4203 2.3795l-0.039074 4.6011q-0.02038 2.3999 2.3795 2.4203l7.7422 0.065748q2.3999 0.020381 2.4203-2.3795z" clip-path="url(#a)" fill="#fff" stroke="#fff"/>
<g clip-path="url(#a)">
<g transform="translate(245.38 632.74) rotate(-89.513) scale(.08 -.08)">
<use xlink:href="#v"/>
</g>
</g>
<path d="m252.7 629.53 1.5916 5.3547q0.68378 2.3005 2.9843 1.6167l7.4216-2.2059q2.3005-0.68378 1.6167-2.9843l-1.5916-5.3547q-0.68378-2.3005-2.9843-1.6167l-7.4216 2.2059q-2.3005 0.68378-1.6167 2.9843z" clip-path="url(#a)" fill="#fff" stroke="#fff"/>
<g clip-path="url(#a)">
<g transform="translate(256.6 628.37) rotate(73.447) scale(.08 -.08)">
<use xlink:href="#ag"/>
</g>
</g>
<path d="m206.55 719.54v33.808q0 2.4 2.4 2.4h7.7425q2.4 0 2.4-2.4v-33.808q0-2.4-2.4-2.4h-7.7425q-2.4 0-2.4 2.4z" clip-path="url(#a)" fill="#fff" stroke="#fff"/>
<g clip-path="url(#a)">
<g transform="translate(210.61 719.54) rotate(90) scale(.08 -.08)">
<use xlink:href="#l"/>
<use x="44.083984" xlink:href="#d"/>
<use x="105.607422" xlink:href="#h"/>
<use x="144.970703" xlink:href="#k"/>
<use x="242.382812" xlink:href="#f"/>
<use x="270.166016" xlink:href="#g"/>
<use x="333.544922" xlink:href="#e"/>
<use x="394.824219" xlink:href="#j"/>
</g>
</g>
<path d="m236.47 719.54v33.808q0 2.4 2.4 2.4h7.7425q2.4 0 2.4-2.4v-33.808q0-2.4-2.4-2.4h-7.7425q-2.4 0-2.4 2.4z" clip-path="url(#a)" fill="#fff" stroke="#fff"/>
<g clip-path="url(#a)">
<g transform="translate(240.53 719.54) rotate(90) scale(.08 -.08)">
<use xlink:href="#l"/>
<use x="44.083984" xlink:href="#d"/>
<use x="105.607422" xlink:href="#h"/>
<use x="144.970703" xlink:href="#k"/>
<use x="242.382812" xlink:href="#f"/>
<use x="270.166016" xlink:href="#g"/>
<use x="333.544922" xlink:href="#e"/>
<use x="394.824219" xlink:href="#j"/>
</g>
</g>
<path d="m269.11 719.54v33.808q0 2.4 2.4 2.4h7.7425q2.4 0 2.4-2.4v-33.808q0-2.4-2.4-2.4h-7.7425q-2.4 0-2.4 2.4z" clip-path="url(#a)" fill="#fff" stroke="#fff"/>
<g clip-path="url(#a)">
<g transform="translate(273.17 719.54) rotate(90) scale(.08 -.08)">
<use xlink:href="#l"/>
<use x="44.083984" xlink:href="#d"/>
<use x="105.607422" xlink:href="#h"/>
<use x="144.970703" xlink:href="#k"/>
<use x="242.382812" xlink:href="#f"/>
<use x="270.166016" xlink:href="#g"/>
<use x="333.544922" xlink:href="#e"/>
<use x="394.824219" xlink:href="#j"/>
</g>
</g>
<path d="m685.23 719.54v33.808q0 2.4 2.4 2.4h7.7425q2.4 0 2.4-2.4v-33.808q0-2.4-2.4-2.4h-7.7425q-2.4 0-2.4 2.4z" clip-path="url(#a)" fill="#fff" stroke="#fff"/>
<g clip-path="url(#a)">
<g transform="translate(689.29 719.54) rotate(90) scale(.08 -.08)">
<use xlink:href="#l"/>
<use x="44.083984" xlink:href="#d"/>
<use x="105.607422" xlink:href="#h"/>
<use x="144.970703" xlink:href="#k"/>
<use x="242.382812" xlink:href="#f"/>
<use x="270.166016" xlink:href="#g"/>
<use x="333.544922" xlink:href="#e"/>
<use x="394.824219" xlink:href="#j"/>
</g>
</g>
<path d="m1493 719.54v33.808q0 2.4 2.4 2.4h7.7425q2.4 0 2.4-2.4v-33.808q0-2.4-2.4-2.4h-7.7425q-2.4 0-2.4 2.4z" clip-path="url(#a)" fill="#fff" stroke="#fff"/>
<g clip-path="url(#a)">
<g transform="translate(1497.1 719.54) rotate(90) scale(.08 -.08)">
<use xlink:href="#l"/>
<use x="44.083984" xlink:href="#d"/>
<use x="105.607422" xlink:href="#h"/>
<use x="144.970703" xlink:href="#k"/>
<use x="242.382812" xlink:href="#f"/>
<use x="270.166016" xlink:href="#g"/>
<use x="333.544922" xlink:href="#e"/>
<use x="394.824219" xlink:href="#j"/>
</g>
</g>
<defs>
<path id="b" d="m0 8.6603c2.2967 0 4.4997-0.9125 6.1237-2.5365 1.624-1.624 2.5365-3.827 2.5365-6.1237s-0.9125-4.4997-2.5365-6.1237c-1.624-1.624-3.827-2.5365-6.1237-2.5365s-4.4997 0.9125-6.1237 2.5365c-1.624 1.624-2.5365 3.827-2.5365 6.1237s0.9125 4.4997 2.5365 6.1237c1.624 1.624 3.827 2.5365 6.1237 2.5365z"/>
</defs>
<g clip-path="url(#a)" fill="#ffffff" stroke="#ffffff">
<use x="71.393939" y="789.090909" xlink:href="#b"/>
<use x="79.553247" y="789.090909" xlink:href="#b"/>
<use x="90.432323" y="789.090909" xlink:href="#b"/>
<use x="104.031169" y="789.090909" xlink:href="#b"/>
<use x="120.349784" y="789.090909" xlink:href="#b"/>
<use x="139.388167" y="789.090909" xlink:href="#b"/>
<use x="161.14632" y="789.090909" xlink:href="#b"/>
<use x="185.624242" y="789.090909" xlink:href="#b"/>
<use x="212.821934" y="789.090909" xlink:href="#b"/>
<use x="242.739394" y="789.090909" xlink:href="#b"/>
<use x="275.376623" y="789.090909" xlink:href="#b"/>
<use x="310.733622" y="789.090909" xlink:href="#b"/>
<use x="348.81039" y="789.090909" xlink:href="#b"/>
<use x="389.606926" y="789.090909" xlink:href="#b"/>
<use x="433.123232" y="789.090909" xlink:href="#b"/>
<use x="479.359307" y="789.090909" xlink:href="#b"/>
<use x="528.315152" y="789.090909" xlink:href="#b"/>
<use x="579.990765" y="789.090909" xlink:href="#b"/>
<use x="634.386147" y="789.090909" xlink:href="#b"/>
<use x="691.501299" y="789.090909" xlink:href="#b"/>
<use x="751.336219" y="789.090909" xlink:href="#b"/>
<use x="813.890909" y="789.090909" xlink:href="#b"/>
<use x="879.165368" y="789.090909" xlink:href="#b"/>
<use x="947.159596" y="789.090909" xlink:href="#b"/>
<use x="1017.873593" y="789.090909" xlink:href="#b"/>
<use x="1091.307359" y="789.090909" xlink:href="#b"/>
<use x="1167.460895" y="789.090909" xlink:href="#b"/>
<use x="1246.334199" y="789.090909" xlink:href="#b"/>
<use x="1327.927273" y="789.090909" xlink:href="#b"/>
<use x="1412.240115" y="789.090909" xlink:href="#b"/>
<use x="1499.272727" y="789.090909" xlink:href="#b"/>
<use x="506.495615" y="37.575758" xlink:href="#b"/>
<use x="71.393939" y="683.800522" xlink:href="#b"/>
<use x="105.032195" y="145.927271" xlink:href="#b"/>
<use x="1158.055026" y="469.730418" xlink:href="#b"/>
<use x="751.336219" y="683.800522" xlink:href="#b"/>
<use x="880.071958" y="683.800522" xlink:href="#b"/>
<use x="1017.873593" y="683.800522" xlink:href="#b"/>
<use x="1129.384127" y="577.045431" xlink:href="#b"/>
<use x="1246.334199" y="683.800522" xlink:href="#b"/>
<use x="1327.927273" y="683.800522" xlink:href="#b"/>
<use x="1412.240115" y="683.800522" xlink:href="#b"/>
<use x="1091.307359" y="683.800522" xlink:href="#b"/>
<use x="1167.460895" y="683.800522" xlink:href="#b"/>
<use x="84.992785" y="683.800522" xlink:href="#b"/>
<use x="158.709861" y="254.097508" xlink:href="#b"/>
<use x="104.031169" y="683.800522" xlink:href="#b"/>
<use x="120.349784" y="683.800522" xlink:href="#b"/>
<use x="251.748629" y="362.050166" xlink:href="#b"/>
<use x="139.388167" y="683.800522" xlink:href="#b"/>
<use x="177.691582" y="469.730418" xlink:href="#b"/>
<use x="310.733622" y="683.800522" xlink:href="#b"/>
<use x="379.181145" y="469.730418" xlink:href="#b"/>
<use x="348.81039" y="683.800522" xlink:href="#b"/>
<use x="389.606926" y="683.800522" xlink:href="#b"/>
<use x="456.24127" y="683.800522" xlink:href="#b"/>
<use x="580.897354" y="577.045431" xlink:href="#b"/>
<use x="528.315152" y="683.800522" xlink:href="#b"/>
<use x="579.990765" y="683.800522" xlink:href="#b"/>
<use x="634.386147" y="683.800522" xlink:href="#b"/>
<use x="161.14632" y="683.800522" xlink:href="#b"/>
<use x="185.624242" y="683.800522" xlink:href="#b"/>
<use x="243.645984" y="577.045431" xlink:href="#b"/>
<use x="212.821934" y="683.800522" xlink:href="#b"/>
<use x="242.739394" y="683.800522" xlink:href="#b"/>
<use x="275.376623" y="683.800522" xlink:href="#b"/>
<use x="691.501299" y="683.800522" xlink:href="#b"/>
<use x="1499.272727" y="683.800522" xlink:href="#b"/>
</g>
<g clip-path="url(#a)">
<g transform="translate(51.856 791.85) scale(.1 -.1)">
<defs>
<path id="ar" d="m3.3281 72.906h9.9531l15.328-61.625 15.281 61.625h11.094l15.328-61.625 15.281 61.625h10.016l-18.312-72.906h-12.406l-15.375 63.281-15.531-63.281h-12.406z"/>
<path id="m" d="m18.312 70.219v-15.531h18.5v-6.9844h-18.5v-29.688q0-6.6875 1.8281-8.5938t7.4531-1.9062h9.2188v-7.5156h-9.2188q-10.406 0-14.359 3.875-3.9531 3.8906-3.9531 14.141v29.688h-6.5938v6.9844h6.5938v15.531z"/>
<path id="t" d="m54.891 33.016v-33.016h-8.9844v32.719q0 7.7656-3.0312 11.609-3.0312 3.8594-9.0781 3.8594-7.2812 0-11.484-4.6406-4.2031-4.625-4.2031-12.641v-30.906h-9.0312v75.984h9.0312v-29.797q3.2344 4.9375 7.5938 7.375 4.375 2.4375 10.094 2.4375 9.4219 0 14.25-5.8281 4.8438-5.8281 4.8438-17.156z"/>
<path id="r" d="m30.609 48.391q-7.2188 0-11.422-5.6406t-4.2031-15.453 4.1719-15.453q4.1875-5.6406 11.453-5.6406 7.1875 0 11.375 5.6562 4.2031 5.6719 4.2031 15.438 0 9.7188-4.2031 15.406-4.1875 5.6875-11.375 5.6875zm0 7.6094q11.719 0 18.406-7.625 6.7031-7.6094 6.7031-21.078 0-13.422-6.7031-21.078-6.6875-7.6406-18.406-7.6406-11.766 0-18.438 7.6406-6.6562 7.6562-6.6562 21.078 0 13.469 6.6562 21.078 6.6719 7.625 18.438 7.625z"/>
<path id="w" d="m8.5 21.578v33.109h8.9844v-32.766q0-7.7656 3.0156-11.656 3.0312-3.875 9.0938-3.875 7.2656 0 11.484 4.6406 4.2344 4.6406 4.2344 12.656v31h8.9844v-54.688h-8.9844v8.4062q-3.2656-4.9844-7.5938-7.4062-4.3125-2.4219-10.031-2.4219-9.4219 0-14.312 5.8594-4.875 5.8594-4.875 17.141z"/>
</defs>
<use xlink:href="#ar"/>
<use x="96.626953" xlink:href="#f"/>
<use x="124.410156" xlink:href="#m"/>
<use x="163.619141" xlink:href="#t"/>
<use x="226.998047" xlink:href="#r"/>
<use x="288.179688" xlink:href="#w"/>
<use x="351.558594" xlink:href="#m"/>
</g>
</g>
<g clip-path="url(#a)">
<g transform="translate(61.65 791.85) scale(.1 -.1)">
<defs>
<path id="ak" d="m45.406 27.984q0 9.7656-4.0312 15.125-4.0156 5.375-11.297 5.375-7.2188 0-11.25-5.375-4.0312-5.3594-4.0312-15.125 0-9.7188 4.0312-15.094t11.25-5.375q7.2812 0 11.297 5.375 4.0312 5.375 4.0312 15.094zm8.9844-21.203q0-13.953-6.2031-20.766-6.1875-6.8125-18.984-6.8125-4.7344 0-8.9375 0.70312t-8.1562 2.1719v8.7344q3.9531-2.1406 7.8125-3.1562 3.8594-1.0312 7.8594-1.0312 8.8438 0 13.234 4.6094t4.3906 13.938v4.4531q-2.7812-4.8438-7.125-7.2344t-10.406-2.3906q-10.047 0-16.203 7.6562-6.1562 7.6719-6.1562 20.328 0 12.688 6.1562 20.344 6.1562 7.6719 16.203 7.6719 6.0625 0 10.406-2.3906t7.125-7.2188v8.2969h8.9844z"/>
</defs>
<use xlink:href="#ak"/>
<use x="63.476562" xlink:href="#d"/>
<use x="125" xlink:href="#m"/>
<use x="164.208984" xlink:href="#m"/>
<use x="203.417969" xlink:href="#f"/>
<use x="231.201172" xlink:href="#g"/>
<use x="294.580078" xlink:href="#ak"/>
</g>
</g>
<g clip-path="url(#a)">
<g transform="translate(80.855 791.85) scale(.1 -.1)">
<use xlink:href="#f"/>
<use x="27.783203" xlink:href="#g"/>
<use x="91.162109" xlink:href="#m"/>
<use x="130.371094" xlink:href="#r"/>
</g>
</g>
<g clip-path="url(#a)">
<g transform="translate(90.162 791.85) scale(.1 -.1)">
<defs>
<path id="p" d="m44.281 53.078v-8.5q-3.7969 1.9531-7.9062 2.9219-4.0938 0.98438-8.5 0.98438-6.6875 0-10.031-2.0469t-3.3438-6.1562q0-3.125 2.3906-4.9062t9.625-3.3906l3.0781-0.6875q9.5625-2.0469 13.594-5.7812t4.0312-10.422q0-7.625-6.0312-12.078-6.0312-4.4375-16.578-4.4375-4.3906 0-9.1562 0.85938t-10.031 2.5625v9.2812q4.9844-2.5938 9.8125-3.8906 4.8281-1.2812 9.5781-1.2812 6.3438 0 9.75 2.1719 3.4219 2.1719 3.4219 6.125 0 3.6562-2.4688 5.6094-2.4531 1.9531-10.812 3.7656l-3.125 0.73438q-8.3438 1.75-12.062 5.3906-3.7031 3.6406-3.7031 9.9844 0 7.7188 5.4688 11.906 5.4688 4.2031 15.531 4.2031 4.9688 0 9.3594-0.73438 4.4062-0.71875 8.1094-2.1875z"/>
</defs>
<use xlink:href="#m"/>
<use x="39.208984" xlink:href="#t"/>
<use x="102.587891" xlink:href="#r"/>
<use x="163.769531" xlink:href="#p"/>
<use x="215.869141" xlink:href="#d"/>
</g>
</g>
<g clip-path="url(#a)">
<g transform="translate(102.54 791.85) scale(.1 -.1)">
<use xlink:href="#h"/>
<use x="41.113281" xlink:href="#w"/>
<use x="104.492188" xlink:href="#k"/>
<use x="201.904297" xlink:href="#r"/>
<use x="263.085938" xlink:href="#h"/>
<use x="304.199219" xlink:href="#p"/>
</g>
</g>
<g clip-path="url(#a)">
<g transform="translate(129.24 791.85) scale(.1 -.1)">
<use xlink:href="#m"/>
<use x="39.208984" xlink:href="#t"/>
<use x="102.587891" xlink:href="#e"/>
<use x="163.867188" xlink:href="#m"/>
</g>
</g>
<g clip-path="url(#a)">
<g transform="translate(147.16 791.85) scale(.1 -.1)">
<defs>
<path id="x" d="m18.109 8.2031v-29h-9.0312v75.484h9.0312v-8.2969q2.8438 4.875 7.1562 7.2344 4.3281 2.375 10.328 2.375 9.9688 0 16.188-7.9062 6.2344-7.9062 6.2344-20.797t-6.2344-20.812q-6.2188-7.9062-16.188-7.9062-6 0-10.328 2.375-4.3125 2.375-7.1562 7.25zm30.578 19.094q0 9.9062-4.0781 15.547t-11.203 5.6406q-7.1406 0-11.219-5.6406t-4.0781-15.547 4.0781-15.547 11.219-5.6406q7.125 0 11.203 5.6406t4.0781 15.547z"/>
</defs>
<use xlink:href="#w"/>
<use x="63.378906" xlink:href="#x"/>
<use x="126.855469" xlink:href="#p"/>
<use x="178.955078" xlink:href="#d"/>
<use x="240.478516" xlink:href="#m"/>
</g>
</g>
<g clip-path="url(#a)">
<g transform="translate(165.52 791.85) scale(.1 -.1)">
<defs>
<path id="ae" d="m48.781 52.594v-8.4062q-3.8125 2.1094-7.6406 3.1562t-7.7344 1.0469q-8.75 0-13.594-5.5469-4.8281-5.5312-4.8281-15.547t4.8281-15.562q4.8438-5.5312 13.594-5.5312 3.9062 0 7.7344 1.0469t7.6406 3.1562v-8.3125q-3.7656-1.75-7.7969-2.625-4.0156-0.89062-8.5625-0.89062-12.359 0-19.641 7.7656-7.2656 7.7656-7.2656 20.953 0 13.375 7.3438 21.031 7.3594 7.6719 20.156 7.6719 4.1406 0 8.0938-0.85938 3.9531-0.84375 7.6719-2.5469z"/>
<path id="ap" d="m2.9844 54.688h9.5156l17.094-45.891 17.094 45.891h9.5156l-20.516-54.688h-12.203z"/>
</defs>
<use xlink:href="#ae"/>
<use x="54.980469" xlink:href="#f"/>
<use x="82.763672" xlink:href="#ap"/>
<use x="141.943359" xlink:href="#f"/>
<use x="169.726562" xlink:href="#j"/>
<use x="197.509766" xlink:href="#f"/>
<use x="225.292969" xlink:href="#e"/>
<use x="286.572266" xlink:href="#g"/>
<use x="349.951172" xlink:href="#p"/>
</g>
</g>
<g clip-path="url(#a)">
<g transform="translate(208.26 791.85) scale(.1 -.1)">
<use xlink:href="#f"/>
<use x="27.783203" xlink:href="#g"/>
</g>
</g>
<g clip-path="url(#a)">
<g transform="translate(234.53 791.85) scale(.1 -.1)">
<use xlink:href="#m"/>
<use x="39.208984" xlink:href="#t"/>
<use x="102.587891" xlink:href="#d"/>
</g>
</g>
<g clip-path="url(#a)">
<g transform="translate(253.78 791.85) scale(.1 -.1)">
<use xlink:href="#p"/>
<use x="52.099609" xlink:href="#d"/>
<use x="113.623047" xlink:href="#e"/>
<use x="174.902344" xlink:href="#x"/>
<use x="238.378906" xlink:href="#r"/>
<use x="299.560547" xlink:href="#h"/>
<use x="340.673828" xlink:href="#m"/>
<use x="379.882812" xlink:href="#p"/>
</g>
</g>
<g clip-path="url(#a)">
<g transform="translate(301.33 791.85) scale(.1 -.1)">
<defs>
<path id="s" d="m45.406 46.391v29.594h8.9844v-75.984h-8.9844v8.2031q-2.8281-4.875-7.1562-7.25-4.3125-2.375-10.375-2.375-9.9062 0-16.141 7.9062-6.2188 7.9219-6.2188 20.812t6.2188 20.797q6.2344 7.9062 16.141 7.9062 6.0625 0 10.375-2.375 4.3281-2.3594 7.1562-7.2344zm-30.609-19.094q0-9.9062 4.0781-15.547t11.203-5.6406 11.219 5.6406q4.1094 5.6406 4.1094 15.547t-4.1094 15.547q-4.0938 5.6406-11.219 5.6406t-11.203-5.6406-4.0781-15.547z"/>
</defs>
<use xlink:href="#e"/>
<use x="61.279297" xlink:href="#g"/>
<use x="124.658203" xlink:href="#s"/>
</g>
</g>
<g clip-path="url(#a)">
<g transform="translate(324.85 791.85) scale(.1 -.1)">
<use xlink:href="#s"/>
<use x="63.476562" xlink:href="#d"/>
<use x="125" xlink:href="#h"/>
<use x="166.113281" xlink:href="#e"/>
<use x="227.392578" xlink:href="#g"/>
<use x="290.771484" xlink:href="#ak"/>
<use x="354.248047" xlink:href="#d"/>
<use x="415.771484" xlink:href="#s"/>
</g>
</g>
<g clip-path="url(#a)">
<g transform="translate(381.4 791.85) scale(.1 -.1)">
<use xlink:href="#m"/>
<use x="39.208984" xlink:href="#t"/>
<use x="102.587891" xlink:href="#d"/>
</g>
</g>
<g clip-path="url(#a)">
<g transform="translate(418.08 791.85) scale(.1 -.1)">
<defs>
<path id="al" d="m48.688 27.297q0 9.9062-4.0781 15.547t-11.203 5.6406q-7.1406 0-11.219-5.6406t-4.0781-15.547 4.0781-15.547 11.219-5.6406q7.125 0 11.203 5.6406t4.0781 15.547zm-30.578 19.094q2.8438 4.875 7.1562 7.2344 4.3281 2.375 10.328 2.375 9.9688 0 16.188-7.9062 6.2344-7.9062 6.2344-20.797t-6.2344-20.812q-6.2188-7.9062-16.188-7.9062-6 0-10.328 2.375-4.3125 2.375-7.1562 7.25v-8.2031h-9.0312v75.984h9.0312z"/>
</defs>
<use xlink:href="#x"/>
<use x="63.476562" xlink:href="#w"/>
<use x="126.855469" xlink:href="#al"/>
<use x="190.332031" xlink:href="#j"/>
<use x="218.115234" xlink:href="#f"/>
<use x="245.898438" xlink:href="#ae"/>
</g>
</g>
<g clip-path="url(#a)">
<g transform="translate(466.76 791.85) scale(.1 -.1)">
<use xlink:href="#k"/>
<use x="97.412109" xlink:href="#f"/>
<use x="125.195312" xlink:href="#g"/>
<use x="188.574219" xlink:href="#s"/>
</g>
</g>
<g clip-path="url(#a)">
<g transform="translate(516.03 791.85) scale(.1 -.1)">
<use xlink:href="#d"/>
<use x="61.523438" xlink:href="#ap"/>
<use x="120.703125" xlink:href="#d"/>
<use x="182.226562" xlink:href="#g"/>
</g>
</g>
<g clip-path="url(#a)">
<g transform="translate(573.11 791.85) scale(.1 -.1)">
<defs>
<path id="aq" d="m37.109 75.984v-7.4844h-8.5938q-4.8281 0-6.7188-1.9531-1.875-1.9531-1.875-7.0312v-4.8281h14.797v-6.9844h-14.797v-47.703h-9.0312v47.703h-8.5938v6.9844h8.5938v3.8125q0 9.125 4.25 13.297 4.25 4.1875 13.469 4.1875z"/>
</defs>
<use xlink:href="#aq"/>
<use x="35.205078" xlink:href="#e"/>
<use x="96.484375" xlink:href="#h"/>
</g>
</g>
<g clip-path="url(#a)">
<g transform="translate(619.03 791.85) scale(.1 -.1)">
<use xlink:href="#f"/>
<use x="27.783203" xlink:href="#g"/>
<use x="91.162109" xlink:href="#j"/>
<use x="118.945312" xlink:href="#e"/>
<use x="180.224609" xlink:href="#g"/>
<use x="243.603516" xlink:href="#s"/>
</g>
</g>
<g clip-path="url(#a)">
<g transform="translate(689.91 791.85) scale(.1 -.1)">
<defs>
<path id="at" d="m11.719 12.406h10.297v-8.4062l-8-15.625h-6.2969l4 15.625z"/>
</defs>
<use xlink:href="#at"/>
</g>
</g>
<g clip-path="url(#a)">
<g transform="translate(747.99 791.85) scale(.1 -.1)">
<use xlink:href="#f"/>
<use x="27.783203" xlink:href="#m"/>
</g>
</g>
<g clip-path="url(#a)">
<g transform="translate(801.29 791.85) scale(.1 -.1)">
<use xlink:href="#k"/>
<use x="97.412109" xlink:href="#w"/>
<use x="160.791016" xlink:href="#p"/>
<use x="212.890625" xlink:href="#m"/>
</g>
</g>
<g clip-path="url(#a)">
<g transform="translate(872.91 791.85) scale(.1 -.1)">
<use xlink:href="#al"/>
<use x="63.476562" xlink:href="#d"/>
</g>
</g>
<g clip-path="url(#a)">
<g transform="translate(936.93 791.85) scale(.1 -.1)">
<use xlink:href="#p"/>
<use x="52.099609" xlink:href="#e"/>
<use x="113.378906" xlink:href="#f"/>
<use x="141.162109" xlink:href="#s"/>
</g>
</g>
<g clip-path="url(#a)">
<g transform="translate(1007.7 791.85) scale(.1 -.1)">
<use xlink:href="#m"/>
<use x="39.208984" xlink:href="#t"/>
<use x="102.587891" xlink:href="#e"/>
<use x="163.867188" xlink:href="#m"/>
</g>
</g>
<g clip-path="url(#a)">
<g transform="translate(1061 791.85) scale(.1 -.1)">
<use xlink:href="#x"/>
<use x="63.476562" xlink:href="#h"/>
<use x="102.339844" xlink:href="#r"/>
<use x="163.521484" xlink:href="#aq"/>
<use x="198.726562" xlink:href="#d"/>
<use x="260.25" xlink:href="#p"/>
<use x="312.349609" xlink:href="#p"/>
<use x="364.449219" xlink:href="#f"/>
<use x="392.232422" xlink:href="#r"/>
<use x="453.414062" xlink:href="#g"/>
<use x="516.792969" xlink:href="#e"/>
<use x="578.072266" xlink:href="#j"/>
</g>
</g>
<g clip-path="url(#a)">
<g transform="translate(1147.6 791.85) scale(.1 -.1)">
<use xlink:href="#p"/>
<use x="52.099609" xlink:href="#d"/>
<use x="113.623047" xlink:href="#e"/>
<use x="174.902344" xlink:href="#k"/>
<use x="272.314453" xlink:href="#d"/>
<use x="333.837891" xlink:href="#g"/>
</g>
</g>
<g clip-path="url(#a)">
<g transform="translate(1234.1 791.85) scale(.1 -.1)">
<defs>
<path id="aw" d="m4.2031 54.688h8.9844l11.234-42.672 11.172 42.672h10.594l11.234-42.672 11.188 42.672h8.9844l-14.312-54.688h-10.594l-11.766 44.828-11.812-44.828h-10.609z"/>
</defs>
<use xlink:href="#aw"/>
<use x="81.787109" xlink:href="#d"/>
<use x="143.310547" xlink:href="#h"/>
<use x="182.173828" xlink:href="#d"/>
</g>
</g>
<g clip-path="url(#a)">
<g transform="translate(1303.1 791.85) scale(.1 -.1)">
<defs>
<path id="av" d="m32.172-5.0781q-3.7969-9.7656-7.4219-12.734-3.6094-2.9844-9.6562-2.9844h-7.1875v7.5156h5.2812q3.7031 0 5.75 1.7656 2.0625 1.75 4.5469 8.2969l1.6094 4.0938-22.109 53.812h9.5156l17.094-42.766 17.094 42.766h9.5156z"/>
</defs>
<use xlink:href="#d"/>
<use x="61.523438" xlink:href="#p"/>
<use x="113.623047" xlink:href="#x"/>
<use x="177.099609" xlink:href="#d"/>
<use x="238.623047" xlink:href="#ae"/>
<use x="293.603516" xlink:href="#f"/>
<use x="321.386719" xlink:href="#e"/>
<use x="382.666016" xlink:href="#j"/>
<use x="410.449219" xlink:href="#j"/>
<use x="438.232422" xlink:href="#av"/>
</g>
</g>
<g clip-path="url(#a)">
<g transform="translate(1391.6 791.85) scale(.1 -.1)">
<use xlink:href="#e"/>
<use x="61.279297" xlink:href="#j"/>
<use x="89.0625" xlink:href="#e"/>
<use x="150.341797" xlink:href="#h"/>
<use x="189.705078" xlink:href="#k"/>
<use x="287.117188" xlink:href="#d"/>
<use x="348.640625" xlink:href="#s"/>
</g>
</g>
<g clip-path="url(#a)">
<g transform="translate(1497.7 791.85) scale(.1 -.1)">
<defs>
<path id="i" d="m10.688 12.406h10.312v-12.406h-10.312z"/>
</defs>
<use xlink:href="#i"/>
</g>
</g>
<g clip-path="url(#a)">
<g transform="translate(498.54 40.335) scale(.1 -.1)">
<defs>
<path id="c" d="m12.406 8.2969h16.109v55.625l-17.531-3.5156v8.9844l17.438 3.5156h9.8594v-64.609h16.109v-8.2969h-41.984z"/>
</defs>
<use xlink:href="#c"/>
<use x="63.623047" xlink:href="#i"/>
<use x="95.410156" xlink:href="#c"/>
</g>
</g>
<g clip-path="url(#a)">
<g transform="translate(63.442 686.56) scale(.1 -.1)">
<defs>
<path id="o" d="m19.188 8.2969h34.422v-8.2969h-46.281v8.2969q5.6094 5.8125 15.297 15.594 9.7031 9.7969 12.188 12.641 4.7344 5.3125 6.6094 9 1.8906 3.6875 1.8906 7.25 0 5.8125-4.0781 9.4688-4.0781 3.6719-10.625 3.6719-4.6406 0-9.7969-1.6094-5.1406-1.6094-11-4.8906v9.9688q5.9531 2.3906 11.125 3.6094 5.1875 1.2188 9.4844 1.2188 11.328 0 18.062-5.6719 6.7344-5.6562 6.7344-15.125 0-4.5-1.6875-8.5312-1.6719-4.0156-6.125-9.4844-1.2188-1.4219-7.7656-8.1875-6.5312-6.7656-18.453-18.922z"/>
</defs>
<use xlink:href="#c"/>
<use x="63.623047" xlink:href="#i"/>
<use x="95.410156" xlink:href="#o"/>
</g>
</g>
<g clip-path="url(#a)">
<g transform="translate(97.081 148.69) scale(.1 -.1)">
<defs>
<path id="n" d="m40.578 39.312q7.0781-1.5156 11.047-6.3125 3.9844-4.7812 3.9844-11.812 0-10.781-7.4219-16.703-7.4219-5.9062-21.094-5.9062-4.5781 0-9.4375 0.90625t-10.031 2.7188v9.5156q4.0938-2.3906 8.9688-3.6094 4.8906-1.2188 10.219-1.2188 9.2656 0 14.125 3.6562t4.8594 10.641q0 6.4531-4.5156 10.078-4.5156 3.6406-12.562 3.6406h-8.5v8.1094h8.8906q7.2656 0 11.125 2.9062t3.8594 8.375q0 5.6094-3.9844 8.6094-3.9688 3.0156-11.391 3.0156-4.0625 0-8.7031-0.89062-4.6406-0.875-10.203-2.7188v8.7812q5.625 1.5625 10.531 2.3438t9.25 0.78125q11.234 0 17.766-5.1094 6.5469-5.0938 6.5469-13.781 0-6.0625-3.4688-10.234t-9.8594-5.7812z"/>
</defs>
<use xlink:href="#c"/>
<use x="63.623047" xlink:href="#i"/>
<use x="95.410156" xlink:href="#n"/>
</g>
</g>
<g clip-path="url(#a)">
<g transform="translate(1150.1 472.49) scale(.1 -.1)">
<defs>
<path id="ad" d="m37.797 64.312-24.906-38.922h24.906zm-2.5938 8.5938h12.406v-47.516h10.406v-8.2031h-10.406v-17.188h-9.8125v17.188h-32.906v9.5156z"/>
</defs>
<use xlink:href="#c"/>
<use x="63.623047" xlink:href="#i"/>
<use x="95.410156" xlink:href="#ad"/>
</g>
</g>
<g clip-path="url(#a)">
<g transform="translate(743.38 686.56) scale(.1 -.1)">
<defs>
<path id="ac" d="m8.2031 72.906h46.875v-4.2031l-26.469-68.703h-10.297l24.906 64.594h-35.016z"/>
</defs>
<use xlink:href="#c"/>
<use x="63.623047" xlink:href="#i"/>
<use x="95.410156" xlink:href="#ac"/>
</g>
</g>
<g clip-path="url(#a)">
<g transform="translate(872.12 686.56) scale(.1 -.1)">
<defs>
<path id="ab" d="m31.781 34.625q-7.0312 0-11.062-3.7656-4.0156-3.7656-4.0156-10.344 0-6.5938 4.0156-10.359 4.0312-3.7656 11.062-3.7656t11.078 3.7812q4.0625 3.7969 4.0625 10.344 0 6.5781-4.0312 10.344-4.0156 3.7656-11.109 3.7656zm-9.8594 4.1875q-6.3438 1.5625-9.8906 5.9062-3.5312 4.3594-3.5312 10.609 0 8.7344 6.2188 13.812 6.2344 5.0781 17.062 5.0781 10.891 0 17.094-5.0781t6.2031-13.812q0-6.25-3.5469-10.609-3.5312-4.3438-9.8281-5.9062 7.125-1.6562 11.094-6.5 3.9844-4.8281 3.9844-11.797 0-10.609-6.4688-16.281-6.4688-5.6562-18.531-5.6562-12.047 0-18.531 5.6562-6.4688 5.6719-6.4688 16.281 0 6.9688 4 11.797 4.0156 4.8438 11.141 6.5zm-3.6094 15.578q0-5.6562 3.5312-8.8281 3.5469-3.1719 9.9375-3.1719 6.3594 0 9.9375 3.1719 3.5938 3.1719 3.5938 8.8281 0 5.6719-3.5938 8.8438-3.5781 3.1719-9.9375 3.1719-6.3906 0-9.9375-3.1719-3.5312-3.1719-3.5312-8.8438z"/>
</defs>
<use xlink:href="#c"/>
<use x="63.623047" xlink:href="#i"/>
<use x="95.410156" xlink:href="#ab"/>
</g>
</g>
<g clip-path="url(#a)">
<g transform="translate(1009.9 686.56) scale(.1 -.1)">
<defs>
<path id="aa" d="m10.984 1.5156v8.9844q3.7188-1.7656 7.5156-2.6875 3.8125-0.92188 7.4844-0.92188 9.7656 0 14.906 6.5625 5.1562 6.5625 5.8906 19.953-2.8281-4.2031-7.1875-6.4531-4.3438-2.25-9.6094-2.25-10.938 0-17.312 6.6094-6.375 6.625-6.375 18.109 0 11.219 6.6406 18 6.6406 6.7969 17.672 6.7969 12.656 0 19.312-9.7031 6.6719-9.6875 6.6719-28.141 0-17.234-8.1875-27.516-8.1719-10.281-21.984-10.281-3.7188 0-7.5312 0.73438-3.7969 0.73438-7.9062 2.2031zm19.625 30.906q6.6406 0 10.516 4.5312 3.8906 4.5469 3.8906 12.469 0 7.8594-3.8906 12.422-3.875 4.5625-10.516 4.5625t-10.516-4.5625-3.875-12.422q0-7.9219 3.875-12.469 3.875-4.5312 10.516-4.5312z"/>
</defs>
<use xlink:href="#c"/>
<use x="63.623047" xlink:href="#i"/>
<use x="95.410156" xlink:href="#aa"/>
</g>
</g>
<g clip-path="url(#a)">
<g transform="translate(1118.3 579.8) scale(.1 -.1)">
<defs>
<path id="aj" d="m31.781 66.406q-7.6094 0-11.453-7.5-3.8281-7.4844-3.8281-22.531 0-14.984 3.8281-22.484 3.8438-7.5 11.453-7.5 7.6719 0 11.5 7.5 3.8438 7.5 3.8438 22.484 0 15.047-3.8438 22.531-3.8281 7.5-11.5 7.5zm0 7.8125q12.266 0 18.734-9.7031 6.4688-9.6875 6.4688-28.141 0-18.406-6.4688-28.109-6.4688-9.6875-18.734-9.6875-12.25 0-18.719 9.6875-6.4688 9.7031-6.4688 28.109 0 18.453 6.4688 28.141 6.4688 9.7031 18.719 9.7031z"/>
</defs>
<use xlink:href="#c"/>
<use x="63.623047" xlink:href="#i"/>
<use x="95.410156" xlink:href="#c"/>
<use x="159.033203" xlink:href="#aj"/>
</g>
</g>
<g clip-path="url(#a)">
<g transform="translate(1235.2 686.56) scale(.1 -.1)">
<use xlink:href="#c"/>
<use x="63.623047" xlink:href="#i"/>
<use x="95.410156" xlink:href="#c"/>
<use x="159.033203" xlink:href="#c"/>
</g>
</g>
<g clip-path="url(#a)">
<g transform="translate(1316.8 686.56) scale(.1 -.1)">
<use xlink:href="#c"/>
<use x="63.623047" xlink:href="#i"/>
<use x="95.410156" xlink:href="#c"/>
<use x="159.033203" xlink:href="#o"/>
</g>
</g>
<g clip-path="url(#a)">
<g transform="translate(1401.1 686.56) scale(.1 -.1)">
<use xlink:href="#c"/>
<use x="63.623047" xlink:href="#i"/>
<use x="95.410156" xlink:href="#c"/>
<use x="159.033203" xlink:href="#n"/>
</g>
</g>
<g clip-path="url(#a)">
<g transform="translate(1080.2 686.56) scale(.1 -.1)">
<use xlink:href="#c"/>
<use x="63.623047" xlink:href="#i"/>
<use x="95.410156" xlink:href="#c"/>
<use x="159.033203" xlink:href="#ad"/>
</g>
</g>
<g clip-path="url(#a)">
<g transform="translate(1156.3 686.56) scale(.1 -.1)">
<defs>
<path id="ai" d="m10.797 72.906h38.719v-8.3125h-29.688v-17.859q2.1406 0.73438 4.2812 1.0938 2.1562 0.35938 4.3125 0.35938 12.203 0 19.328-6.6875 7.1406-6.6875 7.1406-18.109 0-11.766-7.3281-18.297-7.3281-6.5156-20.656-6.5156-4.5938 0-9.3594 0.78125-4.75 0.78125-9.8281 2.3438v9.9219q4.3906-2.3906 9.0781-3.5625t9.9062-1.1719q8.4531 0 13.375 4.4375 4.9375 4.4375 4.9375 12.062 0 7.6094-4.9375 12.047-4.9219 4.4531-13.375 4.4531-3.9531 0-7.8906-0.875-3.9219-0.875-8.0156-2.7344z"/>
</defs>
<use xlink:href="#c"/>
<use x="63.623047" xlink:href="#i"/>
<use x="95.410156" xlink:href="#c"/>
<use x="159.033203" xlink:href="#ai"/>
</g>
</g>
<g clip-path="url(#a)">
<g transform="translate(73.86 686.56) scale(.1 -.1)">
<defs>
<path id="ah" d="m33.016 40.375q-6.6406 0-10.531-4.5469-3.875-4.5312-3.875-12.438 0-7.8594 3.875-12.438 3.8906-4.5625 10.531-4.5625t10.516 4.5625q3.875 4.5781 3.875 12.438 0 7.9062-3.875 12.438-3.875 4.5469-10.516 4.5469zm19.578 30.922v-8.9844q-3.7188 1.75-7.5 2.6719-3.7812 0.9375-7.5 0.9375-9.7656 0-14.922-6.5938-5.1406-6.5938-5.875-19.922 2.875 4.25 7.2188 6.5156 4.3594 2.2656 9.5781 2.2656 10.984 0 17.359-6.6719 6.375-6.6562 6.375-18.125 0-11.234-6.6406-18.031-6.6406-6.7812-17.672-6.7812-12.656 0-19.344 9.6875-6.6875 9.7031-6.6875 28.109 0 17.281 8.2031 27.562t22.016 10.281q3.7188 0 7.5-0.73438t7.8906-2.1875z"/>
</defs>
<use xlink:href="#c"/>
<use x="63.623047" xlink:href="#i"/>
<use x="95.410156" xlink:href="#c"/>
<use x="159.033203" xlink:href="#ah"/>
</g>
</g>
<g clip-path="url(#a)">
<g transform="translate(147.58 256.86) scale(.1 -.1)">
<use xlink:href="#c"/>
<use x="63.623047" xlink:href="#i"/>
<use x="95.410156" xlink:href="#c"/>
<use x="159.033203" xlink:href="#ac"/>
</g>
</g>
<g clip-path="url(#a)">
<g transform="translate(92.898 686.56) scale(.1 -.1)">
<use xlink:href="#c"/>
<use x="63.623047" xlink:href="#i"/>
<use x="95.410156" xlink:href="#c"/>
<use x="159.033203" xlink:href="#ab"/>
</g>
</g>
<g clip-path="url(#a)">
<g transform="translate(109.22 686.56) scale(.1 -.1)">
<use xlink:href="#c"/>
<use x="63.623047" xlink:href="#i"/>
<use x="95.410156" xlink:href="#c"/>
<use x="159.033203" xlink:href="#aa"/>
</g>
</g>
<g clip-path="url(#a)">
<g transform="translate(240.62 364.81) scale(.1 -.1)">
<use xlink:href="#c"/>
<use x="63.623047" xlink:href="#i"/>
<use x="95.410156" xlink:href="#o"/>
<use x="159.033203" xlink:href="#aj"/>
</g>
</g>
<g clip-path="url(#a)">
<g transform="translate(128.26 686.56) scale(.1 -.1)">
<use xlink:href="#c"/>
<use x="63.623047" xlink:href="#i"/>
<use x="95.410156" xlink:href="#o"/>
<use x="159.033203" xlink:href="#c"/>
</g>
</g>
<g clip-path="url(#a)">
<g transform="translate(166.56 472.49) scale(.1 -.1)">
<use xlink:href="#c"/>
<use x="63.623047" xlink:href="#i"/>
<use x="95.410156" xlink:href="#o"/>
<use x="159.033203" xlink:href="#o"/>
</g>
</g>
<g clip-path="url(#a)">
<g transform="translate(299.6 686.56) scale(.1 -.1)">
<use xlink:href="#c"/>
<use x="63.623047" xlink:href="#i"/>
<use x="95.410156" xlink:href="#o"/>
<use x="159.033203" xlink:href="#n"/>
</g>
</g>
<g clip-path="url(#a)">
<g transform="translate(368.05 472.49) scale(.1 -.1)">
<use xlink:href="#c"/>
<use x="63.623047" xlink:href="#i"/>
<use x="95.410156" xlink:href="#o"/>
<use x="159.033203" xlink:href="#ad"/>
</g>
</g>
<g clip-path="url(#a)">
<g transform="translate(337.68 686.56) scale(.1 -.1)">
<use xlink:href="#c"/>
<use x="63.623047" xlink:href="#i"/>
<use x="95.410156" xlink:href="#o"/>
<use x="159.033203" xlink:href="#ai"/>
</g>
</g>
<g clip-path="url(#a)">
<g transform="translate(378.47 686.56) scale(.1 -.1)">
<use xlink:href="#c"/>
<use x="63.623047" xlink:href="#i"/>
<use x="95.410156" xlink:href="#o"/>
<use x="159.033203" xlink:href="#ah"/>
</g>
</g>
<g clip-path="url(#a)">
<g transform="translate(445.11 686.56) scale(.1 -.1)">
<use xlink:href="#c"/>
<use x="63.623047" xlink:href="#i"/>
<use x="95.410156" xlink:href="#o"/>
<use x="159.033203" xlink:href="#ac"/>
</g>
</g>
<g clip-path="url(#a)">
<g transform="translate(569.76 579.8) scale(.1 -.1)">
<use xlink:href="#c"/>
<use x="63.623047" xlink:href="#i"/>
<use x="95.410156" xlink:href="#o"/>
<use x="159.033203" xlink:href="#ab"/>
</g>
</g>
<g clip-path="url(#a)">
<g transform="translate(517.18 686.56) scale(.1 -.1)">
<use xlink:href="#c"/>
<use x="63.623047" xlink:href="#i"/>
<use x="95.410156" xlink:href="#o"/>
<use x="159.033203" xlink:href="#aa"/>
</g>
</g>
<g clip-path="url(#a)">
<g transform="translate(568.86 686.56) scale(.1 -.1)">
<use xlink:href="#c"/>
<use x="63.623047" xlink:href="#i"/>
<use x="95.410156" xlink:href="#n"/>
<use x="159.033203" xlink:href="#aj"/>
</g>
</g>
<g clip-path="url(#a)">
<g transform="translate(623.25 686.56) scale(.1 -.1)">
<use xlink:href="#c"/>
<use x="63.623047" xlink:href="#i"/>
<use x="95.410156" xlink:href="#n"/>
<use x="159.033203" xlink:href="#c"/>
</g>
</g>
<g clip-path="url(#a)">
<g transform="translate(150.01 686.56) scale(.1 -.1)">
<use xlink:href="#c"/>
<use x="63.623047" xlink:href="#i"/>
<use x="95.410156" xlink:href="#n"/>
<use x="159.033203" xlink:href="#o"/>
</g>
</g>
<g clip-path="url(#a)">
<g transform="translate(174.49 686.56) scale(.1 -.1)">
<use xlink:href="#c"/>
<use x="63.623047" xlink:href="#i"/>
<use x="95.410156" xlink:href="#n"/>
<use x="159.033203" xlink:href="#n"/>
</g>
</g>
<g clip-path="url(#a)">
<g transform="translate(232.51 579.8) scale(.1 -.1)">
<use xlink:href="#c"/>
<use x="63.623047" xlink:href="#i"/>
<use x="95.410156" xlink:href="#n"/>
<use x="159.033203" xlink:href="#ad"/>
</g>
</g>
<g clip-path="url(#a)">
<g transform="translate(201.69 686.56) scale(.1 -.1)">
<use xlink:href="#c"/>
<use x="63.623047" xlink:href="#i"/>
<use x="95.410156" xlink:href="#n"/>
<use x="159.033203" xlink:href="#ai"/>
</g>
</g>
<g clip-path="url(#a)">
<g transform="translate(231.61 686.56) scale(.1 -.1)">
<use xlink:href="#c"/>
<use x="63.623047" xlink:href="#i"/>
<use x="95.410156" xlink:href="#n"/>
<use x="159.033203" xlink:href="#ah"/>
</g>
</g>
<g clip-path="url(#a)">
<g transform="translate(264.24 686.56) scale(.1 -.1)">
<use xlink:href="#c"/>
<use x="63.623047" xlink:href="#i"/>
<use x="95.410156" xlink:href="#n"/>
<use x="159.033203" xlink:href="#ac"/>
</g>
</g>
<g clip-path="url(#a)">
<g transform="translate(680.37 686.56) scale(.1 -.1)">
<use xlink:href="#c"/>
<use x="63.623047" xlink:href="#i"/>
<use x="95.410156" xlink:href="#n"/>
<use x="159.033203" xlink:href="#ab"/>
</g>
</g>
<g clip-path="url(#a)">
<g transform="translate(1488.1 686.56) scale(.1 -.1)">
<use xlink:href="#c"/>
<use x="63.623047" xlink:href="#i"/>
<use x="95.410156" xlink:href="#n"/>
<use x="159.033203" xlink:href="#aa"/>
</g>
</g>
<defs>
<clipPath id="a">
<rect width="1570.7" height="826.67"/>
</clipPath>
</defs>
</svg>
