<?xml version="1.0" encoding="UTF-8"?>
<!DOCTYPE svg  PUBLIC '-//W3C//DTD SVG 1.1//EN'  'http://www.w3.org/Graphics/SVG/1.1/DTD/svg11.dtd'>
<svg width="1925.3pt" height="1013.3pt" version="1.1" viewBox="0 0 1925.3 1013.3" xmlns="http://www.w3.org/2000/svg" xmlns:xlink="http://www.w3.org/1999/xlink">
<metadata>
<rdf:RDF xmlns:cc="http://creativecommons.org/ns#" xmlns:dc="http://purl.org/dc/elements/1.1/" xmlns:rdf="http://www.w3.org/1999/02/22-rdf-syntax-ns#">
<cc:Work>
<dc:type rdf:resource="http://purl.org/dc/dcmitype/StillImage"/>
<dc:date>2021-05-12T07:23:57.240237</dc:date>
<dc:format>image/svg+xml</dc:format>
<dc:creator>
<cc:Agent>
<dc:title>Matplotlib v3.3.3, https://matplotlib.org/</dc:title>
</cc:Agent>
</dc:creator>
</cc:Work>
</rdf:RDF>
</metadata>
<defs>
<style type="text/css">*{stroke-linecap:butt;stroke-linejoin:round;}</style>
</defs>
<path d="m0 1013.3h1925.3v-1013.3h-1925.3z" fill="#fff"/>
<g fill="none" stroke="#000">
<path d="m561.96 46.061-364.95 397.74" clip-path="url(#a)"/>
<path d="m561.96 46.061 140.53 792.15" clip-path="url(#a)"/>
<path d="m561.96 46.061 135.71 132.82" clip-path="url(#a)"/>
<path d="m561.96 46.061 88.714 792.15" clip-path="url(#a)"/>
<path d="m197.01 443.8-101.99 263.54" clip-path="url(#a)"/>
<path d="m197.01 443.8-28.965 132" clip-path="url(#a)"/>
<path d="m197.01 443.8 7.6402 394.4" clip-path="url(#a)"/>
<path d="m197.01 443.8 32.419 394.4" clip-path="url(#a)"/>
<path d="m197.01 443.8 173.36 132" clip-path="url(#a)"/>
<path d="m197.01 443.8-82.465 394.4" clip-path="url(#a)"/>
<path d="m702.49 838.21v129.07" clip-path="url(#a)"/>
<path d="m697.67 178.88 145.98 396.92" clip-path="url(#a)"/>
<path d="m697.67 178.88 540.14 132.6" clip-path="url(#a)"/>
<path d="m697.67 178.88-468.24 659.33" clip-path="url(#a)" stroke-dasharray="3.7,1.6"/>
<path d="m697.67 178.88-515.54 659.33" clip-path="url(#a)" stroke-dasharray="3.7,1.6"/>
<path d="m697.67 178.88 297.66 659.33" clip-path="url(#a)"/>
<path d="m843.65 575.8-87.102 262.41" clip-path="url(#a)"/>
<path d="m843.65 575.8-1.5018 131.55" clip-path="url(#a)"/>
<path d="m843.65 575.8 88.604 262.41" clip-path="url(#a)"/>
<path d="m1237.8 311.47-177.16 526.73" clip-path="url(#a)"/>
<path d="m1237.8 311.47-109.58 526.73" clip-path="url(#a)"/>
<path d="m1237.8 311.47-39.747 526.73" clip-path="url(#a)"/>
<path d="m1237.8 311.47 32.338 526.73" clip-path="url(#a)"/>
<path d="m1237.8 311.47 294.15 132.33" clip-path="url(#a)"/>
<path d="m1060.7 838.21v129.07" clip-path="url(#a)"/>
<path d="m1128.2 838.21v129.07" clip-path="url(#a)"/>
<path d="m1198.1 838.21v129.07" clip-path="url(#a)"/>
<path d="m1270.2 838.21v129.07" clip-path="url(#a)"/>
<path d="m1532 443.8-187.47 394.4" clip-path="url(#a)"/>
<path d="m1532 443.8 11.138 132" clip-path="url(#a)"/>
<path d="m1532 443.8 176.33 263.54" clip-path="url(#a)"/>
<path d="m1344.5 838.21v129.07" clip-path="url(#a)"/>
<path d="m1543.1 575.8 165.19 131.55" clip-path="url(#a)" stroke-dasharray="3.7,1.6"/>
<path d="m1543.1 575.8-122.02 262.41" clip-path="url(#a)"/>
<path d="m1543.1 575.8-43.176 262.41" clip-path="url(#a)"/>
<path d="m1708.3 707.35-127.27 130.86" clip-path="url(#a)"/>
<path d="m1708.3 707.35-43.927 130.86" clip-path="url(#a)"/>
<path d="m1708.3 707.35 41.674 130.86" clip-path="url(#a)"/>
<path d="m1708.3 707.35 129.53 130.86" clip-path="url(#a)"/>
<path d="m1581 838.21v129.07" clip-path="url(#a)"/>
<path d="m1664.4 838.21v129.07" clip-path="url(#a)"/>
<path d="m1750 838.21v129.07" clip-path="url(#a)"/>
<path d="m1421.1 838.21v129.07" clip-path="url(#a)"/>
<path d="m1499.9 838.21v129.07" clip-path="url(#a)"/>
<path d="m756.55 838.21v129.07" clip-path="url(#a)"/>
<path d="m842.15 707.35-29.284 130.86" clip-path="url(#a)"/>
<path d="m842.15 707.35 29.284 130.86" clip-path="url(#a)"/>
<path d="m932.26 838.21v129.07" clip-path="url(#a)"/>
<path d="m812.87 838.21v129.07" clip-path="url(#a)"/>
<path d="m871.43 838.21v129.07" clip-path="url(#a)"/>
<path d="m95.024 707.35-7.5088 130.86" clip-path="url(#a)"/>
<path d="m95.024 707.35-0.75088 130.86" clip-path="url(#a)"/>
<path d="m95.024 707.35 8.2597 130.86" clip-path="url(#a)"/>
<path d="m168.05 575.8-14.079 131.55" clip-path="url(#a)"/>
<path d="m168.05 575.8 14.079 262.41" clip-path="url(#a)"/>
<path d="m204.65 838.21v129.07" clip-path="url(#a)"/>
<path d="m229.43 838.21v129.07" clip-path="url(#a)"/>
<path d="m370.37 575.8-113.91 262.41" clip-path="url(#a)"/>
<path d="m370.37 575.8-84.624 262.41" clip-path="url(#a)"/>
<path d="m370.37 575.8-18.547 131.55" clip-path="url(#a)"/>
<path d="m370.37 575.8 55.04 262.41" clip-path="url(#a)"/>
<path d="m370.37 575.8 162.04 131.55" clip-path="url(#a)"/>
<path d="m256.46 838.21v129.07" clip-path="url(#a)"/>
<path d="m285.75 838.21v129.07" clip-path="url(#a)"/>
<path d="m351.83 707.35-34.541 130.86" clip-path="url(#a)"/>
<path d="m351.83 707.35 35.291 130.86" clip-path="url(#a)"/>
<path d="m351.83 707.35-0.75088 130.86" clip-path="url(#a)"/>
<path d="m425.41 838.21v129.07" clip-path="url(#a)"/>
<path d="m532.41 707.35-66.453 130.86" clip-path="url(#a)"/>
<path d="m532.41 707.35-23.653 130.86" clip-path="url(#a)"/>
<path d="m532.41 707.35 21.4 130.86" clip-path="url(#a)"/>
<path d="m532.41 707.35 68.706 130.86" clip-path="url(#a)"/>
<path d="m465.96 838.21v129.07" clip-path="url(#a)"/>
<path d="m508.76 838.21v129.07" clip-path="url(#a)"/>
<path d="m553.81 838.21v129.07" clip-path="url(#a)"/>
<path d="m601.12 838.21v129.07" clip-path="url(#a)"/>
<path d="m317.28 838.21v129.07" clip-path="url(#a)"/>
<path d="m387.12 838.21v129.07" clip-path="url(#a)"/>
<path d="m153.97 707.35 28.158 130.86" clip-path="url(#a)" stroke-dasharray="3.7,1.6"/>
<path d="m153.97 707.35-25.905 130.86" clip-path="url(#a)"/>
<path d="m153.97 707.35-10.137 130.86" clip-path="url(#a)"/>
<path d="m153.97 707.35 7.8842 130.86" clip-path="url(#a)"/>
<path d="m182.13 838.21v129.07" clip-path="url(#a)"/>
<path d="m128.06 838.21v129.07" clip-path="url(#a)"/>
<path d="m143.83 838.21v129.07" clip-path="url(#a)"/>
<path d="m161.85 838.21v129.07" clip-path="url(#a)"/>
<path d="m87.515 838.21v129.07" clip-path="url(#a)"/>
<path d="m94.273 838.21v129.07" clip-path="url(#a)"/>
<path d="m103.28 838.21v129.07" clip-path="url(#a)"/>
<path d="m114.55 838.21v129.07" clip-path="url(#a)"/>
<path d="m351.07 838.21v129.07" clip-path="url(#a)"/>
<path d="m650.68 838.21v129.07" clip-path="url(#a)"/>
<path d="m995.33 838.21v129.07" clip-path="url(#a)"/>
<path d="m1837.8 838.21v129.07" clip-path="url(#a)"/>
</g>
<path d="m382.07 251.39 4.0675-4.433q1.6226-1.7684-0.1458-3.391l-5.7049-5.2345q-1.7684-1.6226-3.391 0.1458l-4.0675 4.433q-1.6226 1.7684 0.1458 3.391l5.7049 5.2345q1.7684 1.6226 3.391-0.1458z" clip-path="url(#a)" fill="#fff" stroke="#fff"/>
<g clip-path="url(#a)">
<g transform="translate(379.08 248.64) rotate(-47.462) scale(.08 -.08)">
<defs>
<path id="ap" d="m9.8125 72.906h9.8594v-29.891h35.844v29.891h9.8594v-72.906h-9.8594v34.719h-35.844v-34.719h-9.8594z"/>
</defs>
<use xlink:href="#ap"/>
</g>
</g>
<path d="m625.66 441.03 0.7786 4.389q0.41921 2.3631 2.7823 1.9439l7.6235-1.3524q2.3631-0.41921 1.9439-2.7823l-0.7786-4.389q-0.41921-2.3631-2.7823-1.9439l-7.6235 1.3524q-2.3631 0.41921-1.9439 2.7823z" clip-path="url(#a)" fill="#fff" stroke="#fff"/>
<g clip-path="url(#a)">
<g transform="translate(629.66 440.32) rotate(79.941) scale(.08 -.08)">
<defs>
<path id="at" d="m9.8125 72.906h9.8594v-64.609h35.5v-8.2969h-45.359z"/>
</defs>
<use xlink:href="#at"/>
</g>
</g>
<path d="m623.28 114.85 4.2997 4.2081q1.7152 1.6787 3.3939-0.036546l5.4155-5.5334q1.6787-1.7152-0.036546-3.3939l-4.2997-4.2081q-1.7152-1.6787-3.3939 0.036546l-5.4155 5.5334q-1.6787 1.7152 0.036546 3.3939z" clip-path="url(#a)" fill="#fff" stroke="#fff"/>
<g clip-path="url(#a)">
<g transform="translate(626.12 111.94) rotate(44.383) scale(.08 -.08)">
<use xlink:href="#ap"/>
</g>
</g>
<path d="m599.76 439.92 0.65164 5.8186q0.26711 2.3851 2.6522 2.118l7.6944-0.86171q2.3851-0.26711 2.118-2.6522l-0.65164-5.8186q-0.26711-2.3851-2.6522-2.118l-7.6944 0.86171q-2.3851 0.26711-2.118 2.6522z" clip-path="url(#a)" fill="#fff" stroke="#fff"/>
<g clip-path="url(#a)">
<g transform="translate(603.8 439.47) rotate(83.61) scale(.08 -.08)">
<defs>
<path id="ac" d="m8.6875 72.906h9.9219v-44.297q0-11.719 4.2344-16.875 4.25-5.1406 13.781-5.1406 9.4688 0 13.719 5.1406 4.25 5.1562 4.25 16.875v44.297h9.9062v-45.516q0-14.25-7.0625-21.531-7.0469-7.2812-20.812-7.2812-13.828 0-20.891 7.2812-7.0469 7.2812-7.0469 21.531z"/>
</defs>
<use xlink:href="#ac"/>
</g>
</g>
<path d="m150.98 580.12 1.7635-4.5569q0.86618-2.2382-1.3721-3.1044l-7.2207-2.7943q-2.2382-0.86618-3.1044 1.3721l-1.7635 4.5569q-0.86618 2.2382 1.3721 3.1044l7.2207 2.7943q2.2382 0.86618 3.1044-1.3721z" clip-path="url(#a)" fill="#fff" stroke="#fff"/>
<g clip-path="url(#a)">
<g transform="translate(147.2 578.65) rotate(-68.844) scale(.08 -.08)">
<defs>
<path id="l" d="m-0.29688 72.906h61.672v-8.3125h-25.875v-64.594h-9.9062v64.594h-25.891z"/>
</defs>
<use xlink:href="#l"/>
</g>
</g>
<path d="m188.07 513.82 1.173-5.3453q0.51442-2.3442-1.8298-2.8586l-7.5626-1.6595q-2.3442-0.51442-2.8586 1.8298l-1.173 5.3453q-0.51442 2.3442 1.8298 2.8586l7.5626 1.6595q2.3442 0.51442 2.8586-1.8298z" clip-path="url(#a)" fill="#fff" stroke="#fff"/>
<g clip-path="url(#a)">
<g transform="translate(184.1 512.95) rotate(-77.623) scale(.08 -.08)">
<defs>
<path id="v" d="m34.188 63.188-13.391-36.281h26.812zm-5.5781 9.7188h11.188l27.781-72.906h-10.25l-6.6406 18.703h-32.859l-6.6406-18.703h-10.406z"/>
</defs>
<use xlink:href="#v"/>
</g>
</g>
<path d="m194.52 638.83 0.089116 4.6004q0.046483 2.3996 2.446 2.3531l7.741-0.14996q2.3996-0.046483 2.3531-2.446l-0.089117-4.6004q-0.046483-2.3995-2.446-2.3531l-7.741 0.14996q-2.3996 0.046483-2.3531 2.446z" clip-path="url(#a)" fill="#fff" stroke="#fff"/>
<g clip-path="url(#a)">
<g transform="translate(198.58 638.75) rotate(88.89) scale(.08 -.08)">
<defs>
<path id="aq" d="m9.8125 72.906h41.891v-8.3125h-32.031v-21.484h28.906v-8.2969h-28.906v-34.812h-9.8594z"/>
</defs>
<use xlink:href="#aq"/>
</g>
</g>
<path d="m206.77 639.12 0.39517 4.8075q0.19661 2.3919 2.5885 2.1953l7.7165-0.63428q2.3919-0.19661 2.1953-2.5885l-0.39517-4.8075q-0.19661-2.3919-2.5885-2.1953l-7.7165 0.63428q-2.3919 0.19661-2.1953 2.5885z" clip-path="url(#a)" fill="#fff" stroke="#fff"/>
<g clip-path="url(#a)">
<g transform="translate(210.82 638.78) rotate(85.301) scale(.08 -.08)">
<defs>
<path id="ao" d="m19.672 64.797v-27.391h12.406q6.8906 0 10.641 3.5625 3.7656 3.5625 3.7656 10.156 0 6.5469-3.7656 10.109-3.75 3.5625-10.641 3.5625zm-9.8594 8.1094h22.266q12.266 0 18.531-5.5469 6.2812-5.5469 6.2812-16.234 0-10.797-6.2812-16.312-6.2656-5.5156-18.531-5.5156h-12.406v-29.297h-9.8594z"/>
</defs>
<use xlink:href="#ao"/>
</g>
</g>
<path d="m277.72 513.13 4.3541 3.3152q1.9095 1.4539 3.3634-0.45562l4.6903-6.1601q1.4539-1.9095-0.45562-3.3634l-4.3541-3.3152q-1.9095-1.4539-3.3634 0.45562l-4.6903 6.1601q-1.4539 1.9095 0.45562 3.3634z" clip-path="url(#a)" fill="#fff" stroke="#fff"/>
<g clip-path="url(#a)">
<g transform="translate(280.18 509.9) rotate(37.285) scale(.08 -.08)">
<use xlink:href="#v"/>
</g>
</g>
<path d="m161.32 645.15 1.1983-5.7311q0.49119-2.3492-1.858-2.8404l-7.5786-1.5846q-2.3492-0.49119-2.8404 1.858l-1.1983 5.7311q-0.49119 2.3492 1.858 2.8404l7.5786 1.5846q2.3492 0.49119 2.8404-1.858z" clip-path="url(#a)" fill="#fff" stroke="#fff"/>
<g clip-path="url(#a)">
<g transform="translate(157.34 644.32) rotate(-78.19) scale(.08 -.08)">
<use xlink:href="#ac"/>
</g>
</g>
<path d="m696.22 885.84v33.808q0 2.4 2.4 2.4h7.7425q2.4 0 2.4-2.4v-33.808q0-2.4-2.4-2.4h-7.7425q-2.4 0-2.4 2.4z" clip-path="url(#a)" fill="#fff" stroke="#fff"/>
<g clip-path="url(#a)">
<g transform="translate(700.28 885.84) rotate(90) scale(.08 -.08)">
<defs>
<path id="d" d="m56.203 29.594v-4.3906h-41.312q0.59375-9.2812 5.5938-14.141t13.938-4.8594q5.1719 0 10.031 1.2656t9.6562 3.8125v-8.5q-4.8438-2.0469-9.9219-3.125t-10.297-1.0781q-13.094 0-20.734 7.6094-7.6406 7.625-7.6406 20.625 0 13.422 7.25 21.297 7.25 7.8906 19.562 7.8906 11.031 0 17.453-7.1094 6.4219-7.0938 6.4219-19.297zm-8.9844 2.6406q-0.09375 7.3594-4.125 11.75-4.0312 4.4062-10.672 4.4062-7.5156 0-12.031-4.25t-5.2031-11.969z"/>
<path id="f" d="m41.109 46.297q-1.5156 0.875-3.2969 1.2812-1.7812 0.42188-3.9219 0.42188-7.625 0-11.703-4.9531t-4.0781-14.234v-28.812h-9.0312v54.688h9.0312v-8.5q2.8438 4.9844 7.375 7.3906 4.5469 2.4219 11.047 2.4219 0.92188 0 2.0469-0.125 1.125-0.10938 2.4844-0.35938z"/>
<path id="k" d="m52 44.188q3.375 6.0625 8.0625 8.9375t11.031 2.875q8.5469 0 13.188-5.9844 4.6406-5.9688 4.6406-17v-33.016h-9.0312v32.719q0 7.8594-2.7969 11.656-2.7812 3.8125-8.4844 3.8125-6.9844 0-11.047-4.6406-4.0469-4.625-4.0469-12.641v-30.906h-9.0312v32.719q0 7.9062-2.7812 11.688t-8.5938 3.7812q-6.8906 0-10.953-4.6562-4.0469-4.6562-4.0469-12.625v-30.906h-9.0312v54.688h9.0312v-8.5q3.0781 5.0312 7.375 7.4219t10.203 2.3906q5.9688 0 10.141-3.0312 4.1719-3.0156 6.1719-8.7812z"/>
<path id="i" d="m9.4219 54.688h8.9844v-54.688h-8.9844zm0 21.297h8.9844v-11.391h-8.9844z"/>
<path id="h" d="m54.891 33.016v-33.016h-8.9844v32.719q0 7.7656-3.0312 11.609-3.0312 3.8594-9.0781 3.8594-7.2812 0-11.484-4.6406-4.2031-4.625-4.2031-12.641v-30.906h-9.0312v54.688h9.0312v-8.5q3.2344 4.9375 7.5938 7.375 4.375 2.4375 10.094 2.4375 9.4219 0 14.25-5.8281 4.8438-5.8281 4.8438-17.156z"/>
<path id="g" d="m34.281 27.484q-10.891 0-15.094-2.4844t-4.2031-8.5q0-4.7812 3.1562-7.5938 3.1562-2.7969 8.5625-2.7969 7.4844 0 12 5.2969t4.5156 14.078v2zm17.922 3.7188v-31.203h-8.9844v8.2969q-3.0781-4.9688-7.6719-7.3438t-11.234-2.375q-8.3906 0-13.359 4.7188-4.9531 4.7188-4.9531 12.625 0 9.2188 6.1719 13.906 6.1875 4.6875 18.438 4.6875h12.609v0.89062q0 6.2031-4.0781 9.5938t-11.453 3.3906q-4.6875 0-9.1406-1.125-4.4375-1.125-8.5312-3.375v8.3125q4.9219 1.9062 9.5625 2.8438 4.6406 0.95312 9.0312 0.95312 11.875 0 17.734-6.1562 5.8594-6.1406 5.8594-18.641z"/>
<path id="j" d="m9.4219 75.984h8.9844v-75.984h-8.9844z"/>
</defs>
<use xlink:href="#l"/>
<use x="44.083984" xlink:href="#d"/>
<use x="105.607422" xlink:href="#f"/>
<use x="144.970703" xlink:href="#k"/>
<use x="242.382812" xlink:href="#i"/>
<use x="270.166016" xlink:href="#h"/>
<use x="333.544922" xlink:href="#g"/>
<use x="394.824219" xlink:href="#j"/>
</g>
</g>
<path d="m763.93 377.21 1.6866 4.5859q0.82843 2.2525 3.0809 1.4241l7.2666-2.6726q2.2525-0.82843 1.4241-3.0809l-1.6866-4.5859q-0.82843-2.2525-3.0809-1.4241l-7.2666 2.6726q-2.2525 0.82843-1.4241 3.0809z" clip-path="url(#a)" fill="#fff" stroke="#fff"/>
<g clip-path="url(#a)">
<g transform="translate(767.75 375.81) rotate(69.807) scale(.08 -.08)">
<use xlink:href="#l"/>
</g>
</g>
<path d="m963.59 250.61 5.3147 1.3047q2.3308 0.57217 2.903-1.7586l1.8458-7.5193q0.57217-2.3308-1.7586-2.903l-5.3147-1.3047q-2.3308-0.57217-2.903 1.7586l-1.8458 7.5193q-0.57217 2.3308 1.7586 2.903z" clip-path="url(#a)" fill="#fff" stroke="#fff"/>
<g clip-path="url(#a)">
<g transform="translate(964.56 246.67) rotate(13.792) scale(.08 -.08)">
<use xlink:href="#v"/>
</g>
</g>
<path d="m467.27 514.14 2.793-3.9329q1.3896-1.9568-0.56712-3.3464l-6.3126-4.483q-1.9568-1.3896-3.3464 0.56712l-2.793 3.9329q-1.3896 1.9568 0.56712 3.3464l6.3126 4.483q1.9568 1.3896 3.3464-0.56712z" clip-path="url(#a)" fill="#fff" stroke="#fff"/>
<g clip-path="url(#a)">
<g transform="translate(463.95 511.79) rotate(-54.619) scale(.08 -.08)">
<use xlink:href="#ao"/>
</g>
</g>
<path d="m443.15 514.56 3.3709-4.3111q1.4783-1.8906-0.4123-3.369l-6.0993-4.7692q-1.8906-1.4783-3.369 0.4123l-3.3709 4.3111q-1.4783 1.8906 0.4123 3.369l6.0993 4.7692q1.8906 1.4783 3.369-0.4123z" clip-path="url(#a)" fill="#fff" stroke="#fff"/>
<g clip-path="url(#a)">
<g transform="translate(439.95 512.06) rotate(-51.977) scale(.08 -.08)">
<use xlink:href="#v"/>
</g>
</g>
<path d="m839.58 508.46 2.4092 5.3364q0.98753 2.1874 3.1749 1.1999l7.0567-3.1858q2.1874-0.98753 1.1999-3.1749l-2.4092-5.3364q-0.98753-2.1874-3.1749-1.1999l-7.0567 3.1858q-2.1874 0.98753-1.1999 3.1749z" clip-path="url(#a)" fill="#fff" stroke="#fff"/>
<g clip-path="url(#a)">
<g transform="translate(843.28 506.78) rotate(65.703) scale(.08 -.08)">
<use xlink:href="#ac"/>
</g>
</g>
<path d="m805.18 711.62 1.7512-5.2757q0.75608-2.2778-1.5217-3.0339l-7.3483-2.4391q-2.2778-0.75608-3.0339 1.5217l-1.7512 5.2757q-0.75608 2.2778 1.5217 3.0339l7.3483 2.4391q2.2778 0.75608 3.0339-1.5217z" clip-path="url(#a)" fill="#fff" stroke="#fff"/>
<g clip-path="url(#a)">
<g transform="translate(801.32 710.34) rotate(-71.637) scale(.08 -.08)">
<defs>
<path id="y" d="m44.391 34.188q3.1719-1.0781 6.1719-4.5938t6.0312-9.6719l10.016-19.922h-10.609l-9.3125 18.703q-3.625 7.3281-7.0156 9.7188t-9.25 2.3906h-10.75v-30.812h-9.8594v72.906h22.266q12.5 0 18.656-5.2344 6.1562-5.2188 6.1562-15.766 0-6.8906-3.2031-11.438-3.2031-4.5312-9.2969-6.2812zm-24.719 30.609v-25.875h12.406q7.125 0 10.766 3.2969t3.6406 9.6875-3.6406 9.6406-10.766 3.25z"/>
</defs>
<use xlink:href="#y"/>
</g>
</g>
<path d="m849.14 644.79 0.071888-6.2971q0.027397-2.3998-2.3724-2.4272l-7.742-0.088384q-2.3998-0.027397-2.4272 2.3724l-0.071889 6.2971q-0.027397 2.3998 2.3724 2.4272l7.742 0.088383q2.3998 0.027397 2.4272-2.3724z" clip-path="url(#a)" fill="#fff" stroke="#fff"/>
<g clip-path="url(#a)">
<g transform="translate(845.07 644.75) rotate(-89.346) scale(.08 -.08)">
<defs>
<path id="z" d="m39.406 66.219q-10.75 0-17.078-8.0156-6.3125-8-6.3125-21.828 0-13.766 6.3125-21.781 6.3281-8 17.078-8 10.734 0 17.016 8 6.2812 8.0156 6.2812 21.781 0 13.828-6.2812 21.828-6.2812 8.0156-17.016 8.0156zm13.812-64.906 13-14.203h-11.922l-10.797 11.672q-1.6094-0.09375-2.4688-0.14062-0.84375-0.0625-1.625-0.0625-15.375 0-24.594 10.281-9.2031 10.281-9.2031 27.516 0 17.281 9.2031 27.562 9.2188 10.281 24.594 10.281 15.328 0 24.5-10.281 9.1875-10.281 9.1875-27.562 0-12.688-5.1094-21.734-5.0938-9.0312-14.766-13.328z"/>
</defs>
<use xlink:href="#z"/>
</g>
</g>
<path d="m881.12 706.36 1.7871 5.2927q0.76779 2.2739 3.0417 1.5061l7.3356-2.4769q2.2739-0.76779 1.5061-3.0417l-1.7871-5.2927q-0.76779-2.2739-3.0417-1.5061l-7.3356 2.4769q-2.2739 0.76779-1.5061 3.0417z" clip-path="url(#a)" fill="#fff" stroke="#fff"/>
<g clip-path="url(#a)">
<g transform="translate(884.97 705.06) rotate(71.342) scale(.08 -.08)">
<defs>
<path id="t" d="m64.406 67.281v-10.391q-4.9844 4.6406-10.625 6.9219-5.6406 2.2969-11.984 2.2969-12.5 0-19.141-7.6406t-6.6406-22.094q0-14.406 6.6406-22.047t19.141-7.6406q6.3438 0 11.984 2.2969t10.625 6.9375v-10.312q-5.1719-3.5156-10.969-5.2812-5.7812-1.75-12.219-1.75-16.562 0-26.094 10.125-9.5156 10.141-9.5156 27.672 0 17.578 9.5156 27.703 9.5312 10.141 26.094 10.141 6.5312 0 12.312-1.7344 5.7969-1.7344 10.875-5.2031z"/>
</defs>
<use xlink:href="#t"/>
</g>
</g>
<path d="m1154.3 579.47 1.7721-5.2687q0.76509-2.2748-1.5097-3.0399l-7.3385-2.4682q-2.2748-0.76509-3.0399 1.5097l-1.772 5.2687q-0.76509 2.2748 1.5097 3.0399l7.3385 2.4682q2.2748 0.76509 3.0399-1.5097z" clip-path="url(#a)" fill="#fff" stroke="#fff"/>
<g clip-path="url(#a)">
<g transform="translate(1150.4 578.18) rotate(-71.41) scale(.08 -.08)">
<use xlink:href="#y"/>
</g>
</g>
<path d="m1188.5 579.2 1.2826-6.1655q0.48882-2.3497-1.8609-2.8385l-7.5802-1.5769q-2.3497-0.48882-2.8385 1.8609l-1.2826 6.1655q-0.48882 2.3497 1.8609 2.8385l7.5802 1.5769q2.3497 0.48882 2.8385-1.8609z" clip-path="url(#a)" fill="#fff" stroke="#fff"/>
<g clip-path="url(#a)">
<g transform="translate(1184.5 578.37) rotate(-78.248) scale(.08 -.08)">
<use xlink:href="#z"/>
</g>
</g>
<path d="m1224 577.83 0.38036-5.0407q0.18059-2.3932-2.2126-2.5738l-7.7206-0.58258q-2.3932-0.18059-2.5738 2.2126l-0.38036 5.0407q-0.18059 2.3932 2.2126 2.5738l7.7206 0.58258q2.3932 0.18059 2.5738-2.2126z" clip-path="url(#a)" fill="#fff" stroke="#fff"/>
<g clip-path="url(#a)">
<g transform="translate(1220 577.53) rotate(-85.685) scale(.08 -.08)">
<defs>
<path id="u" d="m9.8125 72.906h46.094v-8.3125h-36.234v-21.578h34.719v-8.2969h-34.719v-26.422h37.109v-8.2969h-46.969z"/>
</defs>
<use xlink:href="#u"/>
</g>
</g>
<path d="m1247.6 572.44 0.34231 5.5758q0.14707 2.3955 2.5426 2.2484l7.728-0.47444q2.3955-0.14707 2.2484-2.5426l-0.34232-5.5758q-0.14707-2.3955-2.5426-2.2484l-7.728 0.47445q-2.3955 0.14707-2.2484 2.5426z" clip-path="url(#a)" fill="#fff" stroke="#fff"/>
<g clip-path="url(#a)">
<g transform="translate(1251.6 572.19) rotate(86.487) scale(.08 -.08)">
<use xlink:href="#t"/>
</g>
</g>
<path d="m1380 382.32 4.61 2.0739q2.1887 0.98465 3.1734-1.2041l3.1765-7.0609q0.98465-2.1887-1.2041-3.1734l-4.61-2.0739q-2.1887-0.98465-3.1734 1.2041l-3.1765 7.0609q-0.98465 2.1887 1.2041 3.1734z" clip-path="url(#a)" fill="#fff" stroke="#fff"/>
<g clip-path="url(#a)">
<g transform="translate(1381.7 378.62) rotate(24.222) scale(.08 -.08)">
<use xlink:href="#u"/>
</g>
</g>
<path d="m1054.4 885.84v33.808q0 2.4 2.4 2.4h7.7425q2.4 0 2.4-2.4v-33.808q0-2.4-2.4-2.4h-7.7425q-2.4 0-2.4 2.4z" clip-path="url(#a)" fill="#fff" stroke="#fff"/>
<g clip-path="url(#a)">
<g transform="translate(1058.4 885.84) rotate(90) scale(.08 -.08)">
<use xlink:href="#l"/>
<use x="44.083984" xlink:href="#d"/>
<use x="105.607422" xlink:href="#f"/>
<use x="144.970703" xlink:href="#k"/>
<use x="242.382812" xlink:href="#i"/>
<use x="270.166016" xlink:href="#h"/>
<use x="333.544922" xlink:href="#g"/>
<use x="394.824219" xlink:href="#j"/>
</g>
</g>
<path d="m1122 885.84v33.808q0 2.4 2.4 2.4h7.7425q2.4 0 2.4-2.4v-33.808q0-2.4-2.4-2.4h-7.7425q-2.4 0-2.4 2.4z" clip-path="url(#a)" fill="#fff" stroke="#fff"/>
<g clip-path="url(#a)">
<g transform="translate(1126 885.84) rotate(90) scale(.08 -.08)">
<use xlink:href="#l"/>
<use x="44.083984" xlink:href="#d"/>
<use x="105.607422" xlink:href="#f"/>
<use x="144.970703" xlink:href="#k"/>
<use x="242.382812" xlink:href="#i"/>
<use x="270.166016" xlink:href="#h"/>
<use x="333.544922" xlink:href="#g"/>
<use x="394.824219" xlink:href="#j"/>
</g>
</g>
<path d="m1191.8 885.84v33.808q0 2.4 2.4 2.4h7.7425q2.4 0 2.4-2.4v-33.808q0-2.4-2.4-2.4h-7.7425q-2.4 0-2.4 2.4z" clip-path="url(#a)" fill="#fff" stroke="#fff"/>
<g clip-path="url(#a)">
<g transform="translate(1195.9 885.84) rotate(90) scale(.08 -.08)">
<use xlink:href="#l"/>
<use x="44.083984" xlink:href="#d"/>
<use x="105.607422" xlink:href="#f"/>
<use x="144.970703" xlink:href="#k"/>
<use x="242.382812" xlink:href="#i"/>
<use x="270.166016" xlink:href="#h"/>
<use x="333.544922" xlink:href="#g"/>
<use x="394.824219" xlink:href="#j"/>
</g>
</g>
<path d="m1263.9 885.84v33.808q0 2.4 2.4 2.4h7.7425q2.4 0 2.4-2.4v-33.808q0-2.4-2.4-2.4h-7.7425q-2.4 0-2.4 2.4z" clip-path="url(#a)" fill="#fff" stroke="#fff"/>
<g clip-path="url(#a)">
<g transform="translate(1267.9 885.84) rotate(90) scale(.08 -.08)">
<use xlink:href="#l"/>
<use x="44.083984" xlink:href="#d"/>
<use x="105.607422" xlink:href="#f"/>
<use x="144.970703" xlink:href="#k"/>
<use x="242.382812" xlink:href="#i"/>
<use x="270.166016" xlink:href="#h"/>
<use x="333.544922" xlink:href="#g"/>
<use x="394.824219" xlink:href="#j"/>
</g>
</g>
<path d="m1442.7 646.21 2.3864-5.0205q1.0303-2.1676-1.1373-3.1979l-6.9927-3.3238q-2.1676-1.0303-3.1979 1.1373l-2.3864 5.0205q-1.0303 2.1676 1.1373 3.1979l6.9927 3.3238q2.1676 1.0303 3.1979-1.1373z" clip-path="url(#a)" fill="#fff" stroke="#fff"/>
<g clip-path="url(#a)">
<g transform="translate(1439 644.46) rotate(-64.577) scale(.08 -.08)">
<use xlink:href="#y"/>
</g>
</g>
<path d="m1531.1 507.81 0.42504 5.0371q0.2018 2.3915 2.5933 2.1897l7.7151-0.65102q2.3915-0.2018 2.1897-2.5933l-0.42504-5.0371q-0.2018-2.3915-2.5933-2.1897l-7.7151 0.65102q-2.3915 0.2018-2.1897 2.5933z" clip-path="url(#a)" fill="#fff" stroke="#fff"/>
<g clip-path="url(#a)">
<g transform="translate(1535.1 507.47) rotate(85.177) scale(.08 -.08)">
<use xlink:href="#u"/>
</g>
</g>
<path d="m1613.4 576.74 3.1065 4.6429q1.3346 1.9947 3.3293 0.66008l6.435-4.3055q1.9947-1.3346 0.66008-3.3293l-3.1065-4.6429q-1.3346-1.9947-3.3293-0.66008l-6.435 4.3055q-1.9947 1.3346-0.66008 3.3293z" clip-path="url(#a)" fill="#fff" stroke="#fff"/>
<g clip-path="url(#a)">
<g transform="translate(1616.7 574.48) rotate(56.214) scale(.08 -.08)">
<use xlink:href="#t"/>
</g>
</g>
<path d="m1338.2 885.84v33.808q0 2.4 2.4 2.4h7.7425q2.4 0 2.4-2.4v-33.808q0-2.4-2.4-2.4h-7.7425q-2.4 0-2.4 2.4z" clip-path="url(#a)" fill="#fff" stroke="#fff"/>
<g clip-path="url(#a)">
<g transform="translate(1342.3 885.84) rotate(90) scale(.08 -.08)">
<use xlink:href="#l"/>
<use x="44.083984" xlink:href="#d"/>
<use x="105.607422" xlink:href="#f"/>
<use x="144.970703" xlink:href="#k"/>
<use x="242.382812" xlink:href="#i"/>
<use x="270.166016" xlink:href="#h"/>
<use x="333.544922" xlink:href="#g"/>
<use x="394.824219" xlink:href="#j"/>
</g>
</g>
<path d="m1619.6 644.77 4.281 3.409q1.8774 1.4951 3.3725-0.3824l4.8231-6.0567q1.4951-1.8774-0.3824-3.3725l-4.281-3.409q-1.8774-1.4951-3.3725 0.3824l-4.8231 6.0567q-1.4951 1.8774 0.3824 3.3725z" clip-path="url(#a)" fill="#fff" stroke="#fff"/>
<g clip-path="url(#a)">
<g transform="translate(1622.2 641.59) rotate(38.531) scale(.08 -.08)">
<use xlink:href="#v"/>
</g>
</g>
<path d="m1486.5 712.44 2.5973-5.5857q1.0119-2.1762-1.1643-3.1882l-7.0206-3.2645q-2.1762-1.0119-3.1882 1.1643l-2.5973 5.5857q-1.0119 2.1762 1.1643 3.1882l7.0206 3.2645q2.1762 1.0119 3.1882-1.1643z" clip-path="url(#a)" fill="#fff" stroke="#fff"/>
<g clip-path="url(#a)">
<g transform="translate(1482.8 710.73) rotate(-65.062) scale(.08 -.08)">
<defs>
<path id="au" d="m19.672 64.797v-56.688h11.922q15.094 0 22.094 6.8281 7 6.8438 7 21.594 0 14.641-7 21.453t-22.094 6.8125zm-9.8594 8.1094h20.266q21.188 0 31.094-8.8125 9.9219-8.8125 9.9219-27.562 0-18.859-9.9688-27.703-9.9531-8.8281-31.047-8.8281h-20.266z"/>
</defs>
<use xlink:href="#au"/>
</g>
</g>
<path d="m1527.3 710.53 0.82455-5.0114q0.38965-2.3682-1.9785-2.7578l-7.6398-1.257q-2.3682-0.38965-2.7578 1.9785l-0.82455 5.0114q-0.38965 2.3682 1.9785 2.7578l7.6398 1.257q2.3682 0.38965 2.7578-1.9785z" clip-path="url(#a)" fill="#fff" stroke="#fff"/>
<g clip-path="url(#a)">
<g transform="translate(1523.3 709.87) rotate(-80.656) scale(.08 -.08)">
<defs>
<path id="an" d="m53.516 70.516v-9.625q-5.6094 2.6875-10.594 4-4.9844 1.3281-9.625 1.3281-8.0469 0-12.422-3.125t-4.375-8.8906q0-4.8438 2.9062-7.3125 2.9062-2.4531 11.016-3.9688l5.9531-1.2188q11.031-2.1094 16.281-7.4062t5.25-14.172q0-10.609-7.1094-16.078-7.0938-5.4688-20.812-5.4688-5.1719 0-11.016 1.1719-5.8281 1.1719-12.078 3.4688v10.156q6-3.3594 11.766-5.0781 5.7656-1.7031 11.328-1.7031 8.4375 0 13.031 3.3125 4.5938 3.3281 4.5938 9.4844 0 5.3594-3.2969 8.3906t-10.812 4.5469l-6.0156 1.1719q-11.031 2.1875-15.969 6.875-4.9219 4.6875-4.9219 13.047 0 9.6719 6.8125 15.234t18.766 5.5625q5.1406 0 10.453-0.9375 5.3281-0.92188 10.891-2.7656z"/>
</defs>
<use xlink:href="#an"/>
</g>
</g>
<path d="m1647.2 779.15 3.8948-4.0046q1.6733-1.7205-0.047156-3.3938l-5.5503-5.3982q-1.7205-1.6733-3.3938 0.047157l-3.8948 4.0046q-1.6733 1.7205 0.047157 3.3938l5.5503 5.3982q1.7205 1.6733 3.3938-0.047157z" clip-path="url(#a)" fill="#fff" stroke="#fff"/>
<g clip-path="url(#a)">
<g transform="translate(1644.3 776.32) rotate(-45.796) scale(.08 -.08)">
<use xlink:href="#t"/>
</g>
</g>
<path d="m1691.3 777.61 1.9046-5.6739q0.76374-2.2752-1.5115-3.039l-7.34-2.4638q-2.2752-0.76374-3.039 1.5115l-1.9046 5.6739q-0.76374 2.2752 1.5115 3.039l7.34 2.4638q2.2752 0.76374 3.039-1.5115z" clip-path="url(#a)" fill="#fff" stroke="#fff"/>
<g clip-path="url(#a)">
<g transform="translate(1687.5 776.32) rotate(-71.444) scale(.08 -.08)">
<defs>
<path id="as" d="m9.8125 72.906h13.281l32.328-60.984v60.984h9.5625v-72.906h-13.281l-32.312 60.984v-60.984h-9.5781z"/>
</defs>
<use xlink:href="#as"/>
</g>
</g>
<path d="m1722.3 772.02 1.6951 5.3229q0.72826 2.2868 3.0151 1.5586l7.3774-2.3494q2.2868-0.72826 1.5586-3.0151l-1.6951-5.3229q-0.72826-2.2868-3.0151-1.5586l-7.3774 2.3494q-2.2868 0.72826-1.5586 3.0151z" clip-path="url(#a)" fill="#fff" stroke="#fff"/>
<g clip-path="url(#a)">
<g transform="translate(1726.2 770.78) rotate(72.335) scale(.08 -.08)">
<use xlink:href="#t"/>
</g>
</g>
<path d="m1766.5 775.11 4.1188 4.1613q1.6883 1.7057 3.3941 0.01739l5.5028-5.4467q1.7057-1.6883 0.01739-3.3941l-4.1188-4.1613q-1.6883-1.7057-3.3941-0.01739l-5.5028 5.4467q-1.7057 1.6883-0.01739 3.3941z" clip-path="url(#a)" fill="#fff" stroke="#fff"/>
<g clip-path="url(#a)">
<g transform="translate(1769.4 772.25) rotate(45.294) scale(.08 -.08)">
<use xlink:href="#ac"/>
</g>
</g>
<path d="m1574.7 885.84v33.808q0 2.4 2.4 2.4h7.7425q2.4 0 2.4-2.4v-33.808q0-2.4-2.4-2.4h-7.7425q-2.4 0-2.4 2.4z" clip-path="url(#a)" fill="#fff" stroke="#fff"/>
<g clip-path="url(#a)">
<g transform="translate(1578.8 885.84) rotate(90) scale(.08 -.08)">
<use xlink:href="#l"/>
<use x="44.083984" xlink:href="#d"/>
<use x="105.607422" xlink:href="#f"/>
<use x="144.970703" xlink:href="#k"/>
<use x="242.382812" xlink:href="#i"/>
<use x="270.166016" xlink:href="#h"/>
<use x="333.544922" xlink:href="#g"/>
<use x="394.824219" xlink:href="#j"/>
</g>
</g>
<path d="m1658.1 885.84v33.808q0 2.4 2.4 2.4h7.7425q2.4 0 2.4-2.4v-33.808q0-2.4-2.4-2.4h-7.7425q-2.4 0-2.4 2.4z" clip-path="url(#a)" fill="#fff" stroke="#fff"/>
<g clip-path="url(#a)">
<g transform="translate(1662.2 885.84) rotate(90) scale(.08 -.08)">
<use xlink:href="#l"/>
<use x="44.083984" xlink:href="#d"/>
<use x="105.607422" xlink:href="#f"/>
<use x="144.970703" xlink:href="#k"/>
<use x="242.382812" xlink:href="#i"/>
<use x="270.166016" xlink:href="#h"/>
<use x="333.544922" xlink:href="#g"/>
<use x="394.824219" xlink:href="#j"/>
</g>
</g>
<path d="m1743.7 885.84v33.808q0 2.4 2.4 2.4h7.7425q2.4 0 2.4-2.4v-33.808q0-2.4-2.4-2.4h-7.7425q-2.4 0-2.4 2.4z" clip-path="url(#a)" fill="#fff" stroke="#fff"/>
<g clip-path="url(#a)">
<g transform="translate(1747.8 885.84) rotate(90) scale(.08 -.08)">
<use xlink:href="#l"/>
<use x="44.083984" xlink:href="#d"/>
<use x="105.607422" xlink:href="#f"/>
<use x="144.970703" xlink:href="#k"/>
<use x="242.382812" xlink:href="#i"/>
<use x="270.166016" xlink:href="#h"/>
<use x="333.544922" xlink:href="#g"/>
<use x="394.824219" xlink:href="#j"/>
</g>
</g>
<path d="m1414.8 885.84v33.808q0 2.4 2.4 2.4h7.7425q2.4 0 2.4-2.4v-33.808q0-2.4-2.4-2.4h-7.7425q-2.4 0-2.4 2.4z" clip-path="url(#a)" fill="#fff" stroke="#fff"/>
<g clip-path="url(#a)">
<g transform="translate(1418.9 885.84) rotate(90) scale(.08 -.08)">
<use xlink:href="#l"/>
<use x="44.083984" xlink:href="#d"/>
<use x="105.607422" xlink:href="#f"/>
<use x="144.970703" xlink:href="#k"/>
<use x="242.382812" xlink:href="#i"/>
<use x="270.166016" xlink:href="#h"/>
<use x="333.544922" xlink:href="#g"/>
<use x="394.824219" xlink:href="#j"/>
</g>
</g>
<path d="m1493.7 885.84v33.808q0 2.4 2.4 2.4h7.7425q2.4 0 2.4-2.4v-33.808q0-2.4-2.4-2.4h-7.7425q-2.4 0-2.4 2.4z" clip-path="url(#a)" fill="#fff" stroke="#fff"/>
<g clip-path="url(#a)">
<g transform="translate(1497.7 885.84) rotate(90) scale(.08 -.08)">
<use xlink:href="#l"/>
<use x="44.083984" xlink:href="#d"/>
<use x="105.607422" xlink:href="#f"/>
<use x="144.970703" xlink:href="#k"/>
<use x="242.382812" xlink:href="#i"/>
<use x="270.166016" xlink:href="#h"/>
<use x="333.544922" xlink:href="#g"/>
<use x="394.824219" xlink:href="#j"/>
</g>
</g>
<path d="m750.28 885.84v33.808q0 2.4 2.4 2.4h7.7425q2.4 0 2.4-2.4v-33.808q0-2.4-2.4-2.4h-7.7425q-2.4 0-2.4 2.4z" clip-path="url(#a)" fill="#fff" stroke="#fff"/>
<g clip-path="url(#a)">
<g transform="translate(754.34 885.84) rotate(90) scale(.08 -.08)">
<use xlink:href="#l"/>
<use x="44.083984" xlink:href="#d"/>
<use x="105.607422" xlink:href="#f"/>
<use x="144.970703" xlink:href="#k"/>
<use x="242.382812" xlink:href="#i"/>
<use x="270.166016" xlink:href="#h"/>
<use x="333.544922" xlink:href="#g"/>
<use x="394.824219" xlink:href="#j"/>
</g>
</g>
<path d="m833.02 776.87 1.2199-5.4514q0.52411-2.3421-1.818-2.8662l-7.5556-1.6908q-2.3421-0.52411-2.8662 1.818l-1.2199 5.4514q-0.52411 2.3421 1.818 2.8662l7.5556 1.6908q2.3421 0.52411 2.8662-1.818z" clip-path="url(#a)" fill="#fff" stroke="#fff"/>
<g clip-path="url(#a)">
<g transform="translate(829.05 775.98) rotate(-77.386) scale(.08 -.08)">
<use xlink:href="#t"/>
</g>
</g>
<path d="m850.12 771.68 1.1039 4.933q0.52411 2.3421 2.8662 1.818l7.5556-1.6908q2.3421-0.52411 1.818-2.8662l-1.1039-4.933q-0.52411-2.3421-2.8662-1.818l-7.5556 1.6908q-2.3421 0.52411-1.818 2.8662z" clip-path="url(#a)" fill="#fff" stroke="#fff"/>
<g clip-path="url(#a)">
<g transform="translate(854.09 770.79) rotate(77.386) scale(.08 -.08)">
<use xlink:href="#u"/>
</g>
</g>
<path d="m925.98 885.84v33.808q0 2.4 2.4 2.4h7.7425q2.4 0 2.4-2.4v-33.808q0-2.4-2.4-2.4h-7.7425q-2.4 0-2.4 2.4z" clip-path="url(#a)" fill="#fff" stroke="#fff"/>
<g clip-path="url(#a)">
<g transform="translate(930.05 885.84) rotate(90) scale(.08 -.08)">
<use xlink:href="#l"/>
<use x="44.083984" xlink:href="#d"/>
<use x="105.607422" xlink:href="#f"/>
<use x="144.970703" xlink:href="#k"/>
<use x="242.382812" xlink:href="#i"/>
<use x="270.166016" xlink:href="#h"/>
<use x="333.544922" xlink:href="#g"/>
<use x="394.824219" xlink:href="#j"/>
</g>
</g>
<path d="m806.59 885.84v33.808q0 2.4 2.4 2.4h7.7425q2.4 0 2.4-2.4v-33.808q0-2.4-2.4-2.4h-7.7425q-2.4 0-2.4 2.4z" clip-path="url(#a)" fill="#fff" stroke="#fff"/>
<g clip-path="url(#a)">
<g transform="translate(810.66 885.84) rotate(90) scale(.08 -.08)">
<use xlink:href="#l"/>
<use x="44.083984" xlink:href="#d"/>
<use x="105.607422" xlink:href="#f"/>
<use x="144.970703" xlink:href="#k"/>
<use x="242.382812" xlink:href="#i"/>
<use x="270.166016" xlink:href="#h"/>
<use x="333.544922" xlink:href="#g"/>
<use x="394.824219" xlink:href="#j"/>
</g>
</g>
<path d="m865.16 885.84v33.808q0 2.4 2.4 2.4h7.7425q2.4 0 2.4-2.4v-33.808q0-2.4-2.4-2.4h-7.7425q-2.4 0-2.4 2.4z" clip-path="url(#a)" fill="#fff" stroke="#fff"/>
<g clip-path="url(#a)">
<g transform="translate(869.23 885.84) rotate(90) scale(.08 -.08)">
<use xlink:href="#l"/>
<use x="44.083984" xlink:href="#d"/>
<use x="105.607422" xlink:href="#f"/>
<use x="144.970703" xlink:href="#k"/>
<use x="242.382812" xlink:href="#i"/>
<use x="270.166016" xlink:href="#h"/>
<use x="333.544922" xlink:href="#g"/>
<use x="394.824219" xlink:href="#j"/>
</g>
</g>
<path d="m97.35 776.28 0.36076-6.2872q0.13749-2.3961-2.2586-2.5335l-7.7298-0.44354q-2.3961-0.13748-2.5335 2.2586l-0.36076 6.2872q-0.13749 2.3961 2.2586 2.5335l7.7298 0.44354q2.3961 0.13749 2.5335-2.2586z" clip-path="url(#a)" fill="#fff" stroke="#fff"/>
<g clip-path="url(#a)">
<g transform="translate(93.293 776.05) rotate(-86.716) scale(.08 -.08)">
<use xlink:href="#z"/>
</g>
</g>
<path d="m100.9 775.61 0.032053-5.5862q0.013771-2.4-2.3862-2.4137l-7.7424-0.044425q-2.4-0.013771-2.4137 2.3862l-0.032054 5.5862q-0.013771 2.4 2.3862 2.4137l7.7424 0.044425q2.4 0.013771 2.4137-2.3862z" clip-path="url(#a)" fill="#fff" stroke="#fff"/>
<g clip-path="url(#a)">
<g transform="translate(96.84 775.58) rotate(-89.671) scale(.08 -.08)">
<use xlink:href="#t"/>
</g>
</g>
<path d="m92.72 770.4 0.35016 5.5477q0.15118 2.3952 2.5464 2.2441l7.7271-0.48772q2.3952-0.15118 2.2441-2.5464l-0.35016-5.5477q-0.15118-2.3952-2.5464-2.2441l-7.7271 0.48772q-2.3952 0.15118-2.2441 2.5464z" clip-path="url(#a)" fill="#fff" stroke="#fff"/>
<g clip-path="url(#a)">
<g transform="translate(96.776 770.14) rotate(86.388) scale(.08 -.08)">
<use xlink:href="#y"/>
</g>
</g>
<path d="m166.97 644.75 0.53794-5.0263q0.2554-2.3864-2.131-2.6418l-7.6985-0.82394q-2.3864-0.2554-2.6418 2.131l-0.53794 5.0263q-0.2554 2.3864 2.131 2.6418l7.6985 0.82394q2.3864 0.2554 2.6418-2.131z" clip-path="url(#a)" fill="#fff" stroke="#fff"/>
<g clip-path="url(#a)">
<g transform="translate(162.93 644.32) rotate(-83.891) scale(.08 -.08)">
<use xlink:href="#u"/>
</g>
</g>
<path d="m168.67 704.55 0.29929 5.5782q0.12858 2.3966 2.5251 2.268l7.7314-0.41481q2.3966-0.12858 2.268-2.5251l-0.29929-5.5782q-0.12858-2.3966-2.5251-2.268l-7.7314 0.41481q-2.3966 0.12858-2.268 2.5251z" clip-path="url(#a)" fill="#fff" stroke="#fff"/>
<g clip-path="url(#a)">
<g transform="translate(172.73 704.33) rotate(86.929) scale(.08 -.08)">
<use xlink:href="#t"/>
</g>
</g>
<path d="m198.38 885.84v33.808q0 2.4 2.4 2.4h7.7425q2.4 0 2.4-2.4v-33.808q0-2.4-2.4-2.4h-7.7425q-2.4 0-2.4 2.4z" clip-path="url(#a)" fill="#fff" stroke="#fff"/>
<g clip-path="url(#a)">
<g transform="translate(202.45 885.84) rotate(90) scale(.08 -.08)">
<use xlink:href="#l"/>
<use x="44.083984" xlink:href="#d"/>
<use x="105.607422" xlink:href="#f"/>
<use x="144.970703" xlink:href="#k"/>
<use x="242.382812" xlink:href="#i"/>
<use x="270.166016" xlink:href="#h"/>
<use x="333.544922" xlink:href="#g"/>
<use x="394.824219" xlink:href="#j"/>
</g>
</g>
<path d="m223.16 885.84v33.808q0 2.4 2.4 2.4h7.7425q2.4 0 2.4-2.4v-33.808q0-2.4-2.4-2.4h-7.7425q-2.4 0-2.4 2.4z" clip-path="url(#a)" fill="#fff" stroke="#fff"/>
<g clip-path="url(#a)">
<g transform="translate(227.22 885.84) rotate(90) scale(.08 -.08)">
<use xlink:href="#l"/>
<use x="44.083984" xlink:href="#d"/>
<use x="105.607422" xlink:href="#f"/>
<use x="144.970703" xlink:href="#k"/>
<use x="242.382812" xlink:href="#i"/>
<use x="270.166016" xlink:href="#h"/>
<use x="333.544922" xlink:href="#g"/>
<use x="394.824219" xlink:href="#j"/>
</g>
</g>
<path d="m318.06 712.05 2.2134-5.0991q0.95566-2.2015-1.2459-3.1572l-7.1022-3.083q-2.2015-0.95566-3.1572 1.2459l-2.2134 5.0991q-0.95566 2.2015 1.2459 3.1572l7.1022 3.083q2.2015 0.95566 3.1572-1.2459z" clip-path="url(#a)" fill="#fff" stroke="#fff"/>
<g clip-path="url(#a)">
<g transform="translate(314.34 710.43) rotate(-66.535) scale(.08 -.08)">
<use xlink:href="#y"/>
</g>
</g>
<path d="m333.06 711.92 1.9329-5.9935q0.73662-2.2842-1.5475-3.0208l-7.3688-2.3764q-2.2842-0.73662-3.0208 1.5475l-1.9329 5.9935q-0.73662 2.2842 1.5475 3.0208l7.3688 2.3764q2.2842 0.73662 3.0208-1.5475z" clip-path="url(#a)" fill="#fff" stroke="#fff"/>
<g clip-path="url(#a)">
<g transform="translate(329.19 710.68) rotate(-72.126) scale(.08 -.08)">
<use xlink:href="#z"/>
</g>
</g>
<path d="m366.96 644.95 0.70572-5.0055q0.33506-2.3765-2.0414-2.7116l-7.6667-1.0809q-2.3765-0.33506-2.7116 2.0414l-0.70572 5.0055q-0.33506 2.3765 2.0414 2.7116l7.6667 1.0809q2.3765 0.33506 2.7116-2.0414z" clip-path="url(#a)" fill="#fff" stroke="#fff"/>
<g clip-path="url(#a)">
<g transform="translate(362.93 644.38) rotate(-81.975) scale(.08 -.08)">
<use xlink:href="#u"/>
</g>
</g>
<path d="m391.18 705.56 1.1467 5.4673q0.49267 2.3489 2.8416 1.8562l7.5776-1.5894q2.3489-0.49267 1.8562-2.8416l-1.1467-5.4673q-0.49267-2.3489-2.8416-1.8562l-7.5776 1.5894q-2.3489 0.49267-1.8562 2.8416z" clip-path="url(#a)" fill="#fff" stroke="#fff"/>
<g clip-path="url(#a)">
<g transform="translate(395.16 704.72) rotate(78.154) scale(.08 -.08)">
<use xlink:href="#t"/>
</g>
</g>
<path d="m445.48 644.85 3.9246 3.186q1.8633 1.5127 3.376-0.35063l4.8799-6.0111q1.5127-1.8633-0.35063-3.376l-3.9246-3.186q-1.8633-1.5127-3.376 0.35063l-4.8799 6.0111q-1.5127 1.8633 0.35063 3.376z" clip-path="url(#a)" fill="#fff" stroke="#fff"/>
<g clip-path="url(#a)">
<g transform="translate(448.04 641.69) rotate(39.07) scale(.08 -.08)">
<use xlink:href="#u"/>
</g>
</g>
<path d="m250.19 885.84v33.808q0 2.4 2.4 2.4h7.7425q2.4 0 2.4-2.4v-33.808q0-2.4-2.4-2.4h-7.7425q-2.4 0-2.4 2.4z" clip-path="url(#a)" fill="#fff" stroke="#fff"/>
<g clip-path="url(#a)">
<g transform="translate(254.26 885.84) rotate(90) scale(.08 -.08)">
<use xlink:href="#l"/>
<use x="44.083984" xlink:href="#d"/>
<use x="105.607422" xlink:href="#f"/>
<use x="144.970703" xlink:href="#k"/>
<use x="242.382812" xlink:href="#i"/>
<use x="270.166016" xlink:href="#h"/>
<use x="333.544922" xlink:href="#g"/>
<use x="394.824219" xlink:href="#j"/>
</g>
</g>
<path d="m279.48 885.84v33.808q0 2.4 2.4 2.4h7.7425q2.4 0 2.4-2.4v-33.808q0-2.4-2.4-2.4h-7.7425q-2.4 0-2.4 2.4z" clip-path="url(#a)" fill="#fff" stroke="#fff"/>
<g clip-path="url(#a)">
<g transform="translate(283.54 885.84) rotate(90) scale(.08 -.08)">
<use xlink:href="#l"/>
<use x="44.083984" xlink:href="#d"/>
<use x="105.607422" xlink:href="#f"/>
<use x="144.970703" xlink:href="#k"/>
<use x="242.382812" xlink:href="#i"/>
<use x="270.166016" xlink:href="#h"/>
<use x="333.544922" xlink:href="#g"/>
<use x="394.824219" xlink:href="#j"/>
</g>
</g>
<path d="m339.81 777.42 1.6072-6.089q0.6125-2.3205-1.708-2.933l-7.4861-1.9759q-2.3205-0.6125-2.933 1.708l-1.6072 6.089q-0.6125 2.3205 1.708 2.933l7.4861 1.9759q2.3205 0.6125 2.933-1.708z" clip-path="url(#a)" fill="#fff" stroke="#fff"/>
<g clip-path="url(#a)">
<g transform="translate(335.89 776.38) rotate(-75.214) scale(.08 -.08)">
<use xlink:href="#z"/>
</g>
</g>
<path d="m362.69 771.71 1.4546 5.3936q0.62492 2.3172 2.9421 1.6923l7.4754-2.016q2.3172-0.62492 1.6923-2.9421l-1.4546-5.3936q-0.62492-2.3172-2.9421-1.6923l-7.4754 2.016q-2.3172 0.62492-1.6923 2.9421z" clip-path="url(#a)" fill="#fff" stroke="#fff"/>
<g clip-path="url(#a)">
<g transform="translate(366.61 770.65) rotate(74.907) scale(.08 -.08)">
<use xlink:href="#t"/>
</g>
</g>
<path d="m357.7 775.74 0.033596-5.8549q0.013771-2.4-2.3862-2.4137l-7.7424-0.044425q-2.4-0.013771-2.4137 2.3862l-0.033595 5.8549q-0.013771 2.4 2.3862 2.4137l7.7424 0.044426q2.4 0.013771 2.4137-2.3862z" clip-path="url(#a)" fill="#fff" stroke="#fff"/>
<g clip-path="url(#a)">
<g transform="translate(353.64 775.72) rotate(-89.671) scale(.08 -.08)">
<use xlink:href="#ac"/>
</g>
</g>
<path d="m419.14 885.84v33.808q0 2.4 2.4 2.4h7.7425q2.4 0 2.4-2.4v-33.808q0-2.4-2.4-2.4h-7.7425q-2.4 0-2.4 2.4z" clip-path="url(#a)" fill="#fff" stroke="#fff"/>
<g clip-path="url(#a)">
<g transform="translate(423.2 885.84) rotate(90) scale(.08 -.08)">
<use xlink:href="#l"/>
<use x="44.083984" xlink:href="#d"/>
<use x="105.607422" xlink:href="#f"/>
<use x="144.970703" xlink:href="#k"/>
<use x="242.382812" xlink:href="#i"/>
<use x="270.166016" xlink:href="#h"/>
<use x="333.544922" xlink:href="#g"/>
<use x="394.824219" xlink:href="#j"/>
</g>
</g>
<path d="m503.52 778.09 2.5169-4.9563q1.0867-2.1399-1.0532-3.2266l-6.9034-3.5056q-2.1399-1.0867-3.2266 1.0532l-2.5169 4.9563q-1.0867 2.1399 1.0532 3.2266l6.9034 3.5056q2.1399 1.0867 3.2266-1.0532z" clip-path="url(#a)" fill="#fff" stroke="#fff"/>
<g clip-path="url(#a)">
<g transform="translate(499.9 776.25) rotate(-63.078) scale(.08 -.08)">
<use xlink:href="#y"/>
</g>
</g>
<path d="m526.2 776.99 1.1201-6.1971q0.42688-2.3617-1.9349-2.7886l-7.619-1.3771q-2.3617-0.42688-2.7886 1.9349l-1.1201 6.1971q-0.42688 2.3617 1.9349 2.7886l7.619 1.3771q2.3617 0.42688 2.7886-1.9349z" clip-path="url(#a)" fill="#fff" stroke="#fff"/>
<g clip-path="url(#a)">
<g transform="translate(522.2 776.27) rotate(-79.755) scale(.08 -.08)">
<use xlink:href="#z"/>
</g>
</g>
<path d="m536.52 771.29 0.81582 4.9887q0.38733 2.3685 2.7559 1.9812l7.641-1.2496q2.3685-0.38733 1.9812-2.7559l-0.81582-4.9887q-0.38733-2.3685-2.7559-1.9812l-7.641 1.2496q-2.3685 0.38733-1.9812 2.7559z" clip-path="url(#a)" fill="#fff" stroke="#fff"/>
<g clip-path="url(#a)">
<g transform="translate(540.53 770.64) rotate(80.712) scale(.08 -.08)">
<use xlink:href="#u"/>
</g>
</g>
<path d="m559.91 773.22 2.5968 4.946q1.1156 2.1249 3.2406 1.0093l6.8551-3.5991q2.1249-1.1156 1.0093-3.2406l-2.5968-4.946q-1.1156-2.1249-3.2406-1.0093l-6.8551 3.5991q-2.1249 1.1156-1.0093 3.2406z" clip-path="url(#a)" fill="#fff" stroke="#fff"/>
<g clip-path="url(#a)">
<g transform="translate(563.51 771.33) rotate(62.299) scale(.08 -.08)">
<use xlink:href="#t"/>
</g>
</g>
<path d="m459.69 885.84v33.808q0 2.4 2.4 2.4h7.7425q2.4 0 2.4-2.4v-33.808q0-2.4-2.4-2.4h-7.7425q-2.4 0-2.4 2.4z" clip-path="url(#a)" fill="#fff" stroke="#fff"/>
<g clip-path="url(#a)">
<g transform="translate(463.75 885.84) rotate(90) scale(.08 -.08)">
<use xlink:href="#l"/>
<use x="44.083984" xlink:href="#d"/>
<use x="105.607422" xlink:href="#f"/>
<use x="144.970703" xlink:href="#k"/>
<use x="242.382812" xlink:href="#i"/>
<use x="270.166016" xlink:href="#h"/>
<use x="333.544922" xlink:href="#g"/>
<use x="394.824219" xlink:href="#j"/>
</g>
</g>
<path d="m502.49 885.84v33.808q0 2.4 2.4 2.4h7.7425q2.4 0 2.4-2.4v-33.808q0-2.4-2.4-2.4h-7.7425q-2.4 0-2.4 2.4z" clip-path="url(#a)" fill="#fff" stroke="#fff"/>
<g clip-path="url(#a)">
<g transform="translate(506.55 885.84) rotate(90) scale(.08 -.08)">
<use xlink:href="#l"/>
<use x="44.083984" xlink:href="#d"/>
<use x="105.607422" xlink:href="#f"/>
<use x="144.970703" xlink:href="#k"/>
<use x="242.382812" xlink:href="#i"/>
<use x="270.166016" xlink:href="#h"/>
<use x="333.544922" xlink:href="#g"/>
<use x="394.824219" xlink:href="#j"/>
</g>
</g>
<path d="m547.54 885.84v33.808q0 2.4 2.4 2.4h7.7425q2.4 0 2.4-2.4v-33.808q0-2.4-2.4-2.4h-7.7425q-2.4 0-2.4 2.4z" clip-path="url(#a)" fill="#fff" stroke="#fff"/>
<g clip-path="url(#a)">
<g transform="translate(551.6 885.84) rotate(90) scale(.08 -.08)">
<use xlink:href="#l"/>
<use x="44.083984" xlink:href="#d"/>
<use x="105.607422" xlink:href="#f"/>
<use x="144.970703" xlink:href="#k"/>
<use x="242.382812" xlink:href="#i"/>
<use x="270.166016" xlink:href="#h"/>
<use x="333.544922" xlink:href="#g"/>
<use x="394.824219" xlink:href="#j"/>
</g>
</g>
<path d="m594.85 885.84v33.808q0 2.4 2.4 2.4h7.7425q2.4 0 2.4-2.4v-33.808q0-2.4-2.4-2.4h-7.7425q-2.4 0-2.4 2.4z" clip-path="url(#a)" fill="#fff" stroke="#fff"/>
<g clip-path="url(#a)">
<g transform="translate(598.91 885.84) rotate(90) scale(.08 -.08)">
<use xlink:href="#l"/>
<use x="44.083984" xlink:href="#d"/>
<use x="105.607422" xlink:href="#f"/>
<use x="144.970703" xlink:href="#k"/>
<use x="242.382812" xlink:href="#i"/>
<use x="270.166016" xlink:href="#h"/>
<use x="333.544922" xlink:href="#g"/>
<use x="394.824219" xlink:href="#j"/>
</g>
</g>
<path d="m311.01 885.84v33.808q0 2.4 2.4 2.4h7.7425q2.4 0 2.4-2.4v-33.808q0-2.4-2.4-2.4h-7.7425q-2.4 0-2.4 2.4z" clip-path="url(#a)" fill="#fff" stroke="#fff"/>
<g clip-path="url(#a)">
<g transform="translate(315.08 885.84) rotate(90) scale(.08 -.08)">
<use xlink:href="#l"/>
<use x="44.083984" xlink:href="#d"/>
<use x="105.607422" xlink:href="#f"/>
<use x="144.970703" xlink:href="#k"/>
<use x="242.382812" xlink:href="#i"/>
<use x="270.166016" xlink:href="#h"/>
<use x="333.544922" xlink:href="#g"/>
<use x="394.824219" xlink:href="#j"/>
</g>
</g>
<path d="m380.85 885.84v33.808q0 2.4 2.4 2.4h7.7425q2.4 0 2.4-2.4v-33.808q0-2.4-2.4-2.4h-7.7425q-2.4 0-2.4 2.4z" clip-path="url(#a)" fill="#fff" stroke="#fff"/>
<g clip-path="url(#a)">
<g transform="translate(384.91 885.84) rotate(90) scale(.08 -.08)">
<use xlink:href="#l"/>
<use x="44.083984" xlink:href="#d"/>
<use x="105.607422" xlink:href="#f"/>
<use x="144.970703" xlink:href="#k"/>
<use x="242.382812" xlink:href="#i"/>
<use x="270.166016" xlink:href="#h"/>
<use x="333.544922" xlink:href="#g"/>
<use x="394.824219" xlink:href="#j"/>
</g>
</g>
<path d="m161.34 771.42 1.1512 5.35q0.50486 2.3463 2.8512 1.8414l7.5693-1.6287q2.3463-0.50486 1.8414-2.8512l-1.1512-5.35q-0.50486-2.3463-2.8512-1.8414l-7.5693 1.6287q-2.3463 0.50486-1.8414 2.8512z" clip-path="url(#a)" fill="#fff" stroke="#fff"/>
<g clip-path="url(#a)">
<g transform="translate(165.31 770.57) rotate(77.857) scale(.08 -.08)">
<use xlink:href="#v"/>
</g>
</g>
<path d="m146.72 776.25 0.89353-4.5137q0.46606-2.3543-1.8882-2.8204l-7.5951-1.5035q-2.3543-0.46606-2.8204 1.8882l-0.89353 4.5137q-0.46606 2.3543 1.8882 2.8204l7.5951 1.5035q2.3543 0.46606 2.8204-1.8883z" clip-path="url(#a)" fill="#fff" stroke="#fff"/>
<g clip-path="url(#a)">
<g transform="translate(142.73 775.46) rotate(-78.802) scale(.08 -.08)">
<use xlink:href="#aq"/>
</g>
</g>
<path d="m154.94 775.99 0.42265-5.4562q0.18536-2.3928-2.2075-2.5782l-7.7194-0.59797q-2.3928-0.18536-2.5782 2.2075l-0.42265 5.4562q-0.18536 2.3928 2.2075 2.5782l7.7194 0.59797q2.3928 0.18536 2.5782-2.2075z" clip-path="url(#a)" fill="#fff" stroke="#fff"/>
<g clip-path="url(#a)">
<g transform="translate(150.89 775.68) rotate(-85.571) scale(.08 -.08)">
<use xlink:href="#v"/>
</g>
</g>
<path d="m151.5 770.62 0.30544 5.0696q0.14434 2.3957 2.54 2.2513l7.7285-0.46563q2.3957-0.14434 2.2513-2.54l-0.30544-5.0696q-0.14434-2.3957-2.54-2.2513l-7.7285 0.46563q-2.3957 0.14434-2.2513 2.54z" clip-path="url(#a)" fill="#fff" stroke="#fff"/>
<g clip-path="url(#a)">
<g transform="translate(155.55 770.37) rotate(86.552) scale(.08 -.08)">
<use xlink:href="#an"/>
</g>
</g>
<path d="m175.85 885.84v33.808q0 2.4 2.4 2.4h7.7425q2.4 0 2.4-2.4v-33.808q0-2.4-2.4-2.4h-7.7425q-2.4 0-2.4 2.4z" clip-path="url(#a)" fill="#fff" stroke="#fff"/>
<g clip-path="url(#a)">
<g transform="translate(179.92 885.84) rotate(90) scale(.08 -.08)">
<use xlink:href="#l"/>
<use x="44.083984" xlink:href="#d"/>
<use x="105.607422" xlink:href="#f"/>
<use x="144.970703" xlink:href="#k"/>
<use x="242.382812" xlink:href="#i"/>
<use x="270.166016" xlink:href="#h"/>
<use x="333.544922" xlink:href="#g"/>
<use x="394.824219" xlink:href="#j"/>
</g>
</g>
<path d="m121.79 885.84v33.808q0 2.4 2.4 2.4h7.7425q2.4 0 2.4-2.4v-33.808q0-2.4-2.4-2.4h-7.7425q-2.4 0-2.4 2.4z" clip-path="url(#a)" fill="#fff" stroke="#fff"/>
<g clip-path="url(#a)">
<g transform="translate(125.86 885.84) rotate(90) scale(.08 -.08)">
<use xlink:href="#l"/>
<use x="44.083984" xlink:href="#d"/>
<use x="105.607422" xlink:href="#f"/>
<use x="144.970703" xlink:href="#k"/>
<use x="242.382812" xlink:href="#i"/>
<use x="270.166016" xlink:href="#h"/>
<use x="333.544922" xlink:href="#g"/>
<use x="394.824219" xlink:href="#j"/>
</g>
</g>
<path d="m137.56 885.84v33.808q0 2.4 2.4 2.4h7.7425q2.4 0 2.4-2.4v-33.808q0-2.4-2.4-2.4h-7.7425q-2.4 0-2.4 2.4z" clip-path="url(#a)" fill="#fff" stroke="#fff"/>
<g clip-path="url(#a)">
<g transform="translate(141.62 885.84) rotate(90) scale(.08 -.08)">
<use xlink:href="#l"/>
<use x="44.083984" xlink:href="#d"/>
<use x="105.607422" xlink:href="#f"/>
<use x="144.970703" xlink:href="#k"/>
<use x="242.382812" xlink:href="#i"/>
<use x="270.166016" xlink:href="#h"/>
<use x="333.544922" xlink:href="#g"/>
<use x="394.824219" xlink:href="#j"/>
</g>
</g>
<path d="m155.58 885.84v33.808q0 2.4 2.4 2.4h7.7425q2.4 0 2.4-2.4v-33.808q0-2.4-2.4-2.4h-7.7425q-2.4 0-2.4 2.4z" clip-path="url(#a)" fill="#fff" stroke="#fff"/>
<g clip-path="url(#a)">
<g transform="translate(159.64 885.84) rotate(90) scale(.08 -.08)">
<use xlink:href="#l"/>
<use x="44.083984" xlink:href="#d"/>
<use x="105.607422" xlink:href="#f"/>
<use x="144.970703" xlink:href="#k"/>
<use x="242.382812" xlink:href="#i"/>
<use x="270.166016" xlink:href="#h"/>
<use x="333.544922" xlink:href="#g"/>
<use x="394.824219" xlink:href="#j"/>
</g>
</g>
<path d="m81.244 885.84v33.808q0 2.4 2.4 2.4h7.7425q2.4 0 2.4-2.4v-33.808q0-2.4-2.4-2.4h-7.7425q-2.4 0-2.4 2.4z" clip-path="url(#a)" fill="#fff" stroke="#fff"/>
<g clip-path="url(#a)">
<g transform="translate(85.308 885.84) rotate(90) scale(.08 -.08)">
<use xlink:href="#l"/>
<use x="44.083984" xlink:href="#d"/>
<use x="105.607422" xlink:href="#f"/>
<use x="144.970703" xlink:href="#k"/>
<use x="242.382812" xlink:href="#i"/>
<use x="270.166016" xlink:href="#h"/>
<use x="333.544922" xlink:href="#g"/>
<use x="394.824219" xlink:href="#j"/>
</g>
</g>
<path d="m88.002 885.84v33.808q0 2.4 2.4 2.4h7.7425q2.4 0 2.4-2.4v-33.808q0-2.4-2.4-2.4h-7.7425q-2.4 0-2.4 2.4z" clip-path="url(#a)" fill="#fff" stroke="#fff"/>
<g clip-path="url(#a)">
<g transform="translate(92.066 885.84) rotate(90) scale(.08 -.08)">
<use xlink:href="#l"/>
<use x="44.083984" xlink:href="#d"/>
<use x="105.607422" xlink:href="#f"/>
<use x="144.970703" xlink:href="#k"/>
<use x="242.382812" xlink:href="#i"/>
<use x="270.166016" xlink:href="#h"/>
<use x="333.544922" xlink:href="#g"/>
<use x="394.824219" xlink:href="#j"/>
</g>
</g>
<path d="m97.012 885.84v33.808q0 2.4 2.4 2.4h7.7425q2.4 0 2.4-2.4v-33.808q0-2.4-2.4-2.4h-7.7425q-2.4 0-2.4 2.4z" clip-path="url(#a)" fill="#fff" stroke="#fff"/>
<g clip-path="url(#a)">
<g transform="translate(101.08 885.84) rotate(90) scale(.08 -.08)">
<use xlink:href="#l"/>
<use x="44.083984" xlink:href="#d"/>
<use x="105.607422" xlink:href="#f"/>
<use x="144.970703" xlink:href="#k"/>
<use x="242.382812" xlink:href="#i"/>
<use x="270.166016" xlink:href="#h"/>
<use x="333.544922" xlink:href="#g"/>
<use x="394.824219" xlink:href="#j"/>
</g>
</g>
<path d="m108.28 885.84v33.808q0 2.4 2.4 2.4h7.7425q2.4 0 2.4-2.4v-33.808q0-2.4-2.4-2.4h-7.7425q-2.4 0-2.4 2.4z" clip-path="url(#a)" fill="#fff" stroke="#fff"/>
<g clip-path="url(#a)">
<g transform="translate(112.34 885.84) rotate(90) scale(.08 -.08)">
<use xlink:href="#l"/>
<use x="44.083984" xlink:href="#d"/>
<use x="105.607422" xlink:href="#f"/>
<use x="144.970703" xlink:href="#k"/>
<use x="242.382812" xlink:href="#i"/>
<use x="270.166016" xlink:href="#h"/>
<use x="333.544922" xlink:href="#g"/>
<use x="394.824219" xlink:href="#j"/>
</g>
</g>
<path d="m344.8 885.84v33.808q0 2.4 2.4 2.4h7.7425q2.4 0 2.4-2.4v-33.808q0-2.4-2.4-2.4h-7.7425q-2.4 0-2.4 2.4z" clip-path="url(#a)" fill="#fff" stroke="#fff"/>
<g clip-path="url(#a)">
<g transform="translate(348.87 885.84) rotate(90) scale(.08 -.08)">
<use xlink:href="#l"/>
<use x="44.083984" xlink:href="#d"/>
<use x="105.607422" xlink:href="#f"/>
<use x="144.970703" xlink:href="#k"/>
<use x="242.382812" xlink:href="#i"/>
<use x="270.166016" xlink:href="#h"/>
<use x="333.544922" xlink:href="#g"/>
<use x="394.824219" xlink:href="#j"/>
</g>
</g>
<path d="m644.4 885.84v33.808q0 2.4 2.4 2.4h7.7425q2.4 0 2.4-2.4v-33.808q0-2.4-2.4-2.4h-7.7425q-2.4 0-2.4 2.4z" clip-path="url(#a)" fill="#fff" stroke="#fff"/>
<g clip-path="url(#a)">
<g transform="translate(648.47 885.84) rotate(90) scale(.08 -.08)">
<use xlink:href="#l"/>
<use x="44.083984" xlink:href="#d"/>
<use x="105.607422" xlink:href="#f"/>
<use x="144.970703" xlink:href="#k"/>
<use x="242.382812" xlink:href="#i"/>
<use x="270.166016" xlink:href="#h"/>
<use x="333.544922" xlink:href="#g"/>
<use x="394.824219" xlink:href="#j"/>
</g>
</g>
<path d="m989.06 885.84v33.808q0 2.4 2.4 2.4h7.7425q2.4 0 2.4-2.4v-33.808q0-2.4-2.4-2.4h-7.7425q-2.4 0-2.4 2.4z" clip-path="url(#a)" fill="#fff" stroke="#fff"/>
<g clip-path="url(#a)">
<g transform="translate(993.12 885.84) rotate(90) scale(.08 -.08)">
<use xlink:href="#l"/>
<use x="44.083984" xlink:href="#d"/>
<use x="105.607422" xlink:href="#f"/>
<use x="144.970703" xlink:href="#k"/>
<use x="242.382812" xlink:href="#i"/>
<use x="270.166016" xlink:href="#h"/>
<use x="333.544922" xlink:href="#g"/>
<use x="394.824219" xlink:href="#j"/>
</g>
</g>
<path d="m1831.5 885.84v33.808q0 2.4 2.4 2.4h7.7425q2.4 0 2.4-2.4v-33.808q0-2.4-2.4-2.4h-7.7425q-2.4 0-2.4 2.4z" clip-path="url(#a)" fill="#fff" stroke="#fff"/>
<g clip-path="url(#a)">
<g transform="translate(1835.6 885.84) rotate(90) scale(.08 -.08)">
<use xlink:href="#l"/>
<use x="44.083984" xlink:href="#d"/>
<use x="105.607422" xlink:href="#f"/>
<use x="144.970703" xlink:href="#k"/>
<use x="242.382812" xlink:href="#i"/>
<use x="270.166016" xlink:href="#h"/>
<use x="333.544922" xlink:href="#g"/>
<use x="394.824219" xlink:href="#j"/>
</g>
</g>
<defs>
<path id="b" d="m0 8.6603c2.2967 0 4.4997-0.9125 6.1237-2.5365 1.624-1.624 2.5365-3.827 2.5365-6.1237s-0.9125-4.4997-2.5365-6.1237c-1.624-1.624-3.827-2.5365-6.1237-2.5365s-4.4997 0.9125-6.1237 2.5365c-1.624 1.624-2.5365 3.827-2.5365 6.1237s0.9125 4.4997 2.5365 6.1237c1.624 1.624 3.827 2.5365 6.1237 2.5365z"/>
</defs>
<g clip-path="url(#a)" fill="#ffffff" stroke="#ffffff">
<use x="87.515152" y="967.272727" xlink:href="#b"/>
<use x="94.273078" y="967.272727" xlink:href="#b"/>
<use x="103.283647" y="967.272727" xlink:href="#b"/>
<use x="114.546859" y="967.272727" xlink:href="#b"/>
<use x="128.062712" y="967.272727" xlink:href="#b"/>
<use x="143.831208" y="967.272727" xlink:href="#b"/>
<use x="161.852346" y="967.272727" xlink:href="#b"/>
<use x="182.126126" y="967.272727" xlink:href="#b"/>
<use x="204.652549" y="967.272727" xlink:href="#b"/>
<use x="229.431613" y="967.272727" xlink:href="#b"/>
<use x="256.46332" y="967.272727" xlink:href="#b"/>
<use x="285.74767" y="967.272727" xlink:href="#b"/>
<use x="317.284661" y="967.272727" xlink:href="#b"/>
<use x="351.074295" y="967.272727" xlink:href="#b"/>
<use x="387.116571" y="967.272727" xlink:href="#b"/>
<use x="425.411489" y="967.272727" xlink:href="#b"/>
<use x="465.95905" y="967.272727" xlink:href="#b"/>
<use x="508.759253" y="967.272727" xlink:href="#b"/>
<use x="553.812098" y="967.272727" xlink:href="#b"/>
<use x="601.117585" y="967.272727" xlink:href="#b"/>
<use x="650.675715" y="967.272727" xlink:href="#b"/>
<use x="702.486486" y="967.272727" xlink:href="#b"/>
<use x="756.549901" y="967.272727" xlink:href="#b"/>
<use x="812.865957" y="967.272727" xlink:href="#b"/>
<use x="871.434655" y="967.272727" xlink:href="#b"/>
<use x="932.255996" y="967.272727" xlink:href="#b"/>
<use x="995.329979" y="967.272727" xlink:href="#b"/>
<use x="1060.656605" y="967.272727" xlink:href="#b"/>
<use x="1128.235872" y="967.272727" xlink:href="#b"/>
<use x="1198.067782" y="967.272727" xlink:href="#b"/>
<use x="1270.152334" y="967.272727" xlink:href="#b"/>
<use x="1344.489528" y="967.272727" xlink:href="#b"/>
<use x="1421.079365" y="967.272727" xlink:href="#b"/>
<use x="1499.921844" y="967.272727" xlink:href="#b"/>
<use x="1581.016965" y="967.272727" xlink:href="#b"/>
<use x="1664.364728" y="967.272727" xlink:href="#b"/>
<use x="1749.965134" y="967.272727" xlink:href="#b"/>
<use x="1837.818182" y="967.272727" xlink:href="#b"/>
<use x="561.961344" y="46.060606" xlink:href="#b"/>
<use x="197.012337" y="443.80343" xlink:href="#b"/>
<use x="702.486486" y="838.207092" xlink:href="#b"/>
<use x="697.670838" y="178.87859" xlink:href="#b"/>
<use x="843.652068" y="575.798577" xlink:href="#b"/>
<use x="1237.814403" y="311.474365" xlink:href="#b"/>
<use x="1060.656605" y="838.207092" xlink:href="#b"/>
<use x="1128.235872" y="838.207092" xlink:href="#b"/>
<use x="1198.067782" y="838.207092" xlink:href="#b"/>
<use x="1270.152334" y="838.207092" xlink:href="#b"/>
<use x="1531.959423" y="443.80343" xlink:href="#b"/>
<use x="1344.489528" y="838.207092" xlink:href="#b"/>
<use x="1543.097487" y="575.798577" xlink:href="#b"/>
<use x="1708.291252" y="707.346012" xlink:href="#b"/>
<use x="1581.016965" y="838.207092" xlink:href="#b"/>
<use x="1664.364728" y="838.207092" xlink:href="#b"/>
<use x="1749.965134" y="838.207092" xlink:href="#b"/>
<use x="1421.079365" y="838.207092" xlink:href="#b"/>
<use x="1499.921844" y="838.207092" xlink:href="#b"/>
<use x="756.549901" y="838.207092" xlink:href="#b"/>
<use x="842.150306" y="707.346012" xlink:href="#b"/>
<use x="932.255996" y="838.207092" xlink:href="#b"/>
<use x="812.865957" y="838.207092" xlink:href="#b"/>
<use x="871.434655" y="838.207092" xlink:href="#b"/>
<use x="95.023959" y="707.346012" xlink:href="#b"/>
<use x="168.047112" y="575.798577" xlink:href="#b"/>
<use x="204.652549" y="838.207092" xlink:href="#b"/>
<use x="229.431613" y="838.207092" xlink:href="#b"/>
<use x="370.37193" y="575.798577" xlink:href="#b"/>
<use x="256.46332" y="838.207092" xlink:href="#b"/>
<use x="285.74767" y="838.207092" xlink:href="#b"/>
<use x="351.825176" y="707.346012" xlink:href="#b"/>
<use x="425.411489" y="838.207092" xlink:href="#b"/>
<use x="532.411996" y="707.346012" xlink:href="#b"/>
<use x="465.95905" y="838.207092" xlink:href="#b"/>
<use x="508.759253" y="838.207092" xlink:href="#b"/>
<use x="553.812098" y="838.207092" xlink:href="#b"/>
<use x="601.117585" y="838.207092" xlink:href="#b"/>
<use x="317.284661" y="838.207092" xlink:href="#b"/>
<use x="387.116571" y="838.207092" xlink:href="#b"/>
<use x="153.968098" y="707.346012" xlink:href="#b"/>
<use x="182.126126" y="838.207092" xlink:href="#b"/>
<use x="128.062712" y="838.207092" xlink:href="#b"/>
<use x="143.831208" y="838.207092" xlink:href="#b"/>
<use x="161.852346" y="838.207092" xlink:href="#b"/>
<use x="87.515152" y="838.207092" xlink:href="#b"/>
<use x="94.273078" y="838.207092" xlink:href="#b"/>
<use x="103.283647" y="838.207092" xlink:href="#b"/>
<use x="114.546859" y="838.207092" xlink:href="#b"/>
<use x="351.074295" y="838.207092" xlink:href="#b"/>
<use x="650.675715" y="838.207092" xlink:href="#b"/>
<use x="995.329979" y="838.207092" xlink:href="#b"/>
<use x="1837.818182" y="838.207092" xlink:href="#b"/>
</g>
<g clip-path="url(#a)">
<g transform="translate(74.664 970.03) scale(.1 -.1)">
<defs>
<path id="ak" d="m45.406 27.984q0 9.7656-4.0312 15.125-4.0156 5.375-11.297 5.375-7.2188 0-11.25-5.375-4.0312-5.3594-4.0312-15.125 0-9.7188 4.0312-15.094t11.25-5.375q7.2812 0 11.297 5.375 4.0312 5.375 4.0312 15.094zm8.9844-21.203q0-13.953-6.2031-20.766-6.1875-6.8125-18.984-6.8125-4.7344 0-8.9375 0.70312t-8.1562 2.1719v8.7344q3.9531-2.1406 7.8125-3.1562 3.8594-1.0312 7.8594-1.0312 8.8438 0 13.234 4.6094t4.3906 13.938v4.4531q-2.7812-4.8438-7.125-7.2344t-10.406-2.3906q-10.047 0-16.203 7.6562-6.1562 7.6719-6.1562 20.328 0 12.688 6.1562 20.344 6.1562 7.6719 16.203 7.6719 6.0625 0 10.406-2.3906t7.125-7.2188v8.2969h8.9844z"/>
<path id="af" d="m54.891 33.016v-33.016h-8.9844v32.719q0 7.7656-3.0312 11.609-3.0312 3.8594-9.0781 3.8594-7.2812 0-11.484-4.6406-4.2031-4.625-4.2031-12.641v-30.906h-9.0312v75.984h9.0312v-29.797q3.2344 4.9375 7.5938 7.375 4.375 2.4375 10.094 2.4375 9.4219 0 14.25-5.8281 4.8438-5.8281 4.8438-17.156z"/>
<path id="r" d="m18.312 70.219v-15.531h18.5v-6.9844h-18.5v-29.688q0-6.6875 1.8281-8.5938t7.4531-1.9062h9.2188v-7.5156h-9.2188q-10.406 0-14.359 3.875-3.9531 3.8906-3.9531 14.141v29.688h-6.5938v6.9844h6.5938v15.531z"/>
</defs>
<use xlink:href="#u"/>
<use x="63.183594" xlink:href="#i"/>
<use x="90.966797" xlink:href="#ak"/>
<use x="154.443359" xlink:href="#af"/>
<use x="217.822266" xlink:href="#r"/>
</g>
</g>
<g clip-path="url(#a)">
<g transform="translate(80.513 970.03) scale(.1 -.1)">
<defs>
<path id="ad" d="m32.172-5.0781q-3.7969-9.7656-7.4219-12.734-3.6094-2.9844-9.6562-2.9844h-7.1875v7.5156h5.2812q3.7031 0 5.75 1.7656 2.0625 1.75 4.5469 8.2969l1.6094 4.0938-22.109 53.812h9.5156l17.094-42.766 17.094 42.766h9.5156z"/>
<path id="o" d="m44.281 53.078v-8.5q-3.7969 1.9531-7.9062 2.9219-4.0938 0.98438-8.5 0.98438-6.6875 0-10.031-2.0469t-3.3438-6.1562q0-3.125 2.3906-4.9062t9.625-3.3906l3.0781-0.6875q9.5625-2.0469 13.594-5.7812t4.0312-10.422q0-7.625-6.0312-12.078-6.0312-4.4375-16.578-4.4375-4.3906 0-9.1562 0.85938t-10.031 2.5625v9.2812q4.9844-2.5938 9.8125-3.8906 4.8281-1.2812 9.5781-1.2812 6.3438 0 9.75 2.1719 3.4219 2.1719 3.4219 6.125 0 3.6562-2.4688 5.6094-2.4531 1.9531-10.812 3.7656l-3.125 0.73438q-8.3438 1.75-12.062 5.3906-3.7031 3.6406-3.7031 9.9844 0 7.7188 5.4688 11.906 5.4688 4.2031 15.531 4.2031 4.9688 0 9.3594-0.73438 4.4062-0.71875 8.1094-2.1875z"/>
</defs>
<use xlink:href="#ad"/>
<use x="59.179688" xlink:href="#d"/>
<use x="120.703125" xlink:href="#g"/>
<use x="181.982422" xlink:href="#f"/>
<use x="223.095703" xlink:href="#o"/>
</g>
</g>
<g clip-path="url(#a)">
<g transform="translate(91.738 970.03) scale(.1 -.1)">
<use xlink:href="#j"/>
<use x="27.783203" xlink:href="#g"/>
<use x="89.0625" xlink:href="#r"/>
<use x="128.271484" xlink:href="#d"/>
<use x="189.794922" xlink:href="#f"/>
</g>
</g>
<g clip-path="url(#a)">
<g transform="translate(112.96 970.03) scale(.1 -.1)">
<defs>
<path id="ah" d="m11.719 12.406h10.297v-8.4062l-8-15.625h-6.2969l4 15.625z"/>
</defs>
<use xlink:href="#ah"/>
</g>
</g>
<g clip-path="url(#a)">
<g transform="translate(119.86 970.03) scale(.1 -.1)">
<use xlink:href="#r"/>
<use x="39.208984" xlink:href="#af"/>
<use x="102.587891" xlink:href="#d"/>
</g>
</g>
<g clip-path="url(#a)">
<g transform="translate(120.79 970.03) scale(.1 -.1)">
<defs>
<path id="aj" d="m48.781 52.594v-8.4062q-3.8125 2.1094-7.6406 3.1562t-7.7344 1.0469q-8.75 0-13.594-5.5469-4.8281-5.5312-4.8281-15.547t4.8281-15.562q4.8438-5.5312 13.594-5.5312 3.9062 0 7.7344 1.0469t7.6406 3.1562v-8.3125q-3.7656-1.75-7.7969-2.625-4.0156-0.89062-8.5625-0.89062-12.359 0-19.641 7.7656-7.2656 7.7656-7.2656 20.953 0 13.375 7.3438 21.031 7.3594 7.6719 20.156 7.6719 4.1406 0 8.0938-0.85938 3.9531-0.84375 7.6719-2.5469z"/>
<path id="s" d="m30.609 48.391q-7.2188 0-11.422-5.6406t-4.2031-15.453 4.1719-15.453q4.1875-5.6406 11.453-5.6406 7.1875 0 11.375 5.6562 4.2031 5.6719 4.2031 15.438 0 9.7188-4.2031 15.406-4.1875 5.6875-11.375 5.6875zm0 7.6094q11.719 0 18.406-7.625 6.7031-7.6094 6.7031-21.078 0-13.422-6.7031-21.078-6.6875-7.6406-18.406-7.6406-11.766 0-18.438 7.6406-6.6562 7.6562-6.6562 21.078 0 13.469 6.6562 21.078 6.6719 7.625 18.438 7.625z"/>
<path id="ai" d="m18.109 8.2031v-29h-9.0312v75.484h9.0312v-8.2969q2.8438 4.875 7.1562 7.2344 4.3281 2.375 10.328 2.375 9.9688 0 16.188-7.9062 6.2344-7.9062 6.2344-20.797t-6.2344-20.812q-6.2188-7.9062-16.188-7.9062-6 0-10.328 2.375-4.3125 2.375-7.1562 7.25zm30.578 19.094q0 9.9062-4.0781 15.547t-11.203 5.6406q-7.1406 0-11.219-5.6406t-4.0781-15.547 4.0781-15.547 11.219-5.6406q7.125 0 11.203 5.6406t4.0781 15.547z"/>
</defs>
<use xlink:href="#aj"/>
<use x="54.980469" xlink:href="#s"/>
<use x="116.162109" xlink:href="#k"/>
<use x="213.574219" xlink:href="#ai"/>
<use x="277.050781" xlink:href="#g"/>
<use x="338.330078" xlink:href="#h"/>
<use x="401.708984" xlink:href="#ad"/>
</g>
</g>
<g clip-path="url(#a)">
<g transform="translate(157.87 970.03) scale(.1 -.1)">
<defs>
<path id="aw" d="m17.922 72.906v-27.109h-8.2969v27.109z"/>
</defs>
<use xlink:href="#aw"/>
<use x="27.490234" xlink:href="#o"/>
</g>
</g>
<g clip-path="url(#a)">
<g transform="translate(166.21 970.03) scale(.1 -.1)">
<use xlink:href="#g"/>
<use x="61.279297" xlink:href="#o"/>
<use x="113.378906" xlink:href="#o"/>
<use x="165.478516" xlink:href="#d"/>
<use x="227.001953" xlink:href="#r"/>
<use x="266.210938" xlink:href="#o"/>
</g>
</g>
<g clip-path="url(#a)">
<g transform="translate(192.47 970.03) scale(.1 -.1)">
<defs>
<path id="ae" d="m4.2031 54.688h8.9844l11.234-42.672 11.172 42.672h10.594l11.234-42.672 11.188 42.672h8.9844l-14.312-54.688h-10.594l-11.766 44.828-11.812-44.828h-10.609z"/>
</defs>
<use xlink:href="#ae"/>
<use x="81.787109" xlink:href="#d"/>
<use x="143.310547" xlink:href="#f"/>
<use x="182.173828" xlink:href="#d"/>
</g>
</g>
<g clip-path="url(#a)">
<g transform="translate(205.19 970.03) scale(.1 -.1)">
<defs>
<path id="al" d="m45.406 46.391v29.594h8.9844v-75.984h-8.9844v8.2031q-2.8281-4.875-7.1562-7.25-4.3125-2.375-10.375-2.375-9.9062 0-16.141 7.9062-6.2188 7.9219-6.2188 20.812t6.2188 20.797q6.2344 7.9062 16.141 7.9062 6.0625 0 10.375-2.375 4.3281-2.3594 7.1562-7.2344zm-30.609-19.094q0-9.9062 4.0781-15.547t11.203-5.6406 11.219 5.6406q4.1094 5.6406 4.1094 15.547t-4.1094 15.547q-4.0938 5.6406-11.219 5.6406t-11.203-5.6406-4.0781-15.547z"/>
</defs>
<use xlink:href="#i"/>
<use x="27.783203" xlink:href="#h"/>
<use x="91.162109" xlink:href="#aj"/>
<use x="146.142578" xlink:href="#f"/>
<use x="185.005859" xlink:href="#d"/>
<use x="246.529297" xlink:href="#g"/>
<use x="307.808594" xlink:href="#o"/>
<use x="359.908203" xlink:href="#d"/>
<use x="421.431641" xlink:href="#al"/>
</g>
</g>
<g clip-path="url(#a)">
<g transform="translate(250.33 970.03) scale(.1 -.1)">
<defs>
<path id="am" d="m48.688 27.297q0 9.9062-4.0781 15.547t-11.203 5.6406q-7.1406 0-11.219-5.6406t-4.0781-15.547 4.0781-15.547 11.219-5.6406q7.125 0 11.203 5.6406t4.0781 15.547zm-30.578 19.094q2.8438 4.875 7.1562 7.2344 4.3281 2.375 10.328 2.375 9.9688 0 16.188-7.9062 6.2344-7.9062 6.2344-20.797t-6.2344-20.812q-6.2188-7.9062-16.188-7.9062-6 0-10.328 2.375-4.3125 2.375-7.1562 7.25v-8.2031h-9.0312v75.984h9.0312z"/>
</defs>
<use xlink:href="#am"/>
<use x="63.476562" xlink:href="#ad"/>
</g>
</g>
<g clip-path="url(#a)">
<g transform="translate(275.7 970.03) scale(.1 -.1)">
<defs>
<path id="ar" d="m37.109 75.984v-7.4844h-8.5938q-4.8281 0-6.7188-1.9531-1.875-1.9531-1.875-7.0312v-4.8281h14.797v-6.9844h-14.797v-47.703h-9.0312v47.703h-8.5938v6.9844h8.5938v3.8125q0 9.125 4.25 13.297 4.25 4.1875 13.469 4.1875z"/>
<path id="ay" d="m8.5 21.578v33.109h8.9844v-32.766q0-7.7656 3.0156-11.656 3.0312-3.875 9.0938-3.875 7.2656 0 11.484 4.6406 4.2344 4.6406 4.2344 12.656v31h8.9844v-54.688h-8.9844v8.4062q-3.2656-4.9844-7.5938-7.4062-4.3125-2.4219-10.031-2.4219-9.4219 0-14.312 5.8594-4.875 5.8594-4.875 17.141z"/>
</defs>
<use xlink:href="#ar"/>
<use x="35.205078" xlink:href="#s"/>
<use x="96.386719" xlink:href="#ay"/>
<use x="159.765625" xlink:href="#f"/>
</g>
</g>
<g clip-path="url(#a)">
<g transform="translate(307.74 970.03) scale(.1 -.1)">
<defs>
<path id="ab" d="m33.016 40.375q-6.6406 0-10.531-4.5469-3.875-4.5312-3.875-12.438 0-7.8594 3.875-12.438 3.8906-4.5625 10.531-4.5625t10.516 4.5625q3.875 4.5781 3.875 12.438 0 7.9062-3.875 12.438-3.875 4.5469-10.516 4.5469zm19.578 30.922v-8.9844q-3.7188 1.75-7.5 2.6719-3.7812 0.9375-7.5 0.9375-9.7656 0-14.922-6.5938-5.1406-6.5938-5.875-19.922 2.875 4.25 7.2188 6.5156 4.3594 2.2656 9.5781 2.2656 10.984 0 17.359-6.6719 6.375-6.6562 6.375-18.125 0-11.234-6.6406-18.031-6.6406-6.7812-17.672-6.7812-12.656 0-19.344 9.6875-6.6875 9.7031-6.6875 28.109 0 17.281 8.2031 27.562t22.016 10.281q3.7188 0 7.5-0.73438t7.8906-2.1875z"/>
<path id="p" d="m10.797 72.906h38.719v-8.3125h-29.688v-17.859q2.1406 0.73438 4.2812 1.0938 2.1562 0.35938 4.3125 0.35938 12.203 0 19.328-6.6875 7.1406-6.6875 7.1406-18.109 0-11.766-7.3281-18.297-7.3281-6.5156-20.656-6.5156-4.5938 0-9.3594 0.78125-4.75 0.78125-9.8281 2.3438v9.9219q4.3906-2.3906 9.0781-3.5625t9.9062-1.1719q8.4531 0 13.375 4.4375 4.9375 4.4375 4.9375 12.062 0 7.6094-4.9375 12.047-4.9219 4.4531-13.375 4.4531-3.9531 0-7.8906-0.875-3.9219-0.875-8.0156-2.7344z"/>
<path id="x" d="m31.781 66.406q-7.6094 0-11.453-7.5-3.8281-7.4844-3.8281-22.531 0-14.984 3.8281-22.484 3.8438-7.5 11.453-7.5 7.6719 0 11.5 7.5 3.8438 7.5 3.8438 22.484 0 15.047-3.8438 22.531-3.8281 7.5-11.5 7.5zm0 7.8125q12.266 0 18.734-9.7031 6.4688-9.6875 6.4688-28.141 0-18.406-6.4688-28.109-6.4688-9.6875-18.734-9.6875-12.25 0-18.719 9.6875-6.4688 9.7031-6.4688 28.109 0 18.453 6.4688 28.141 6.4688 9.7031 18.719 9.7031z"/>
</defs>
<use xlink:href="#ab"/>
<use x="63.623047" xlink:href="#p"/>
<use x="127.246094" xlink:href="#x"/>
</g>
</g>
<g clip-path="url(#a)">
<g transform="translate(349.27 970.03) scale(.1 -.1)">
<defs>
<path id="av" d="m4.8906 31.391h26.312v-8h-26.312z"/>
</defs>
<use xlink:href="#av"/>
</g>
</g>
<g clip-path="url(#a)">
<g transform="translate(357.7 970.03) scale(.1 -.1)">
<use xlink:href="#af"/>
<use x="63.378906" xlink:href="#s"/>
<use x="124.560547" xlink:href="#f"/>
<use x="165.673828" xlink:href="#o"/>
<use x="217.773438" xlink:href="#d"/>
<use x="279.296875" xlink:href="#ai"/>
<use x="342.773438" xlink:href="#s"/>
<use x="403.955078" xlink:href="#ae"/>
<use x="485.742188" xlink:href="#d"/>
<use x="547.265625" xlink:href="#f"/>
</g>
</g>
<g clip-path="url(#a)">
<g transform="translate(412.47 970.03) scale(.1 -.1)">
<use xlink:href="#o"/>
<use x="52.099609" xlink:href="#af"/>
<use x="115.478516" xlink:href="#i"/>
<use x="143.261719" xlink:href="#ai"/>
<use x="206.738281" xlink:href="#o"/>
</g>
</g>
<g clip-path="url(#a)">
<g transform="translate(460.93 970.03) scale(.1 -.1)">
<use xlink:href="#g"/>
<use x="61.279297" xlink:href="#r"/>
</g>
</g>
<g clip-path="url(#a)">
<g transform="translate(494.45 970.03) scale(.1 -.1)">
<defs>
<path id="c" d="m12.406 8.2969h16.109v55.625l-17.531-3.5156v8.9844l17.438 3.5156h9.8594v-64.609h16.109v-8.2969h-41.984z"/>
<path id="w" d="m31.781 34.625q-7.0312 0-11.062-3.7656-4.0156-3.7656-4.0156-10.344 0-6.5938 4.0156-10.359 4.0312-3.7656 11.062-3.7656t11.078 3.7812q4.0625 3.7969 4.0625 10.344 0 6.5781-4.0312 10.344-4.0156 3.7656-11.109 3.7656zm-9.8594 4.1875q-6.3438 1.5625-9.8906 5.9062-3.5312 4.3594-3.5312 10.609 0 8.7344 6.2188 13.812 6.2344 5.0781 17.062 5.0781 10.891 0 17.094-5.0781t6.2031-13.812q0-6.25-3.5469-10.609-3.5312-4.3438-9.8281-5.9062 7.125-1.6562 11.094-6.5 3.9844-4.8281 3.9844-11.797 0-10.609-6.4688-16.281-6.4688-5.6562-18.531-5.6562-12.047 0-18.531 5.6562-6.4688 5.6719-6.4688 16.281 0 6.9688 4 11.797 4.0156 4.8438 11.141 6.5zm-3.6094 15.578q0-5.6562 3.5312-8.8281 3.5469-3.1719 9.9375-3.1719 6.3594 0 9.9375 3.1719 3.5938 3.1719 3.5938 8.8281 0 5.6719-3.5938 8.8438-3.5781 3.1719-9.9375 3.1719-6.3906 0-9.9375-3.1719-3.5312-3.1719-3.5312-8.8438z"/>
<path id="m" d="m19.188 8.2969h34.422v-8.2969h-46.281v8.2969q5.6094 5.8125 15.297 15.594 9.7031 9.7969 12.188 12.641 4.7344 5.3125 6.6094 9 1.8906 3.6875 1.8906 7.25 0 5.8125-4.0781 9.4688-4.0781 3.6719-10.625 3.6719-4.6406 0-9.7969-1.6094-5.1406-1.6094-11-4.8906v9.9688q5.9531 2.3906 11.125 3.6094 5.1875 1.2188 9.4844 1.2188 11.328 0 18.062-5.6719 6.7344-5.6562 6.7344-15.125 0-4.5-1.6875-8.5312-1.6719-4.0156-6.125-9.4844-1.2188-1.4219-7.7656-8.1875-6.5312-6.7656-18.453-18.922z"/>
</defs>
<use xlink:href="#c"/>
<use x="63.623047" xlink:href="#ah"/>
<use x="95.410156" xlink:href="#w"/>
<use x="159.033203" xlink:href="#m"/>
<use x="222.65625" xlink:href="#x"/>
</g>
</g>
<g clip-path="url(#a)">
<g transform="translate(537.71 970.03) scale(.1 -.1)">
<use xlink:href="#k"/>
<use x="97.412109" xlink:href="#d"/>
<use x="158.935547" xlink:href="#r"/>
<use x="198.144531" xlink:href="#f"/>
<use x="239.257812" xlink:href="#i"/>
<use x="267.041016" xlink:href="#aj"/>
</g>
</g>
<g clip-path="url(#a)">
<g transform="translate(590.32 970.03) scale(.1 -.1)">
<use xlink:href="#r"/>
<use x="39.208984" xlink:href="#s"/>
<use x="100.390625" xlink:href="#h"/>
<use x="163.769531" xlink:href="#o"/>
</g>
</g>
<g clip-path="url(#a)">
<g transform="translate(649.09 970.03) scale(.1 -.1)">
<use xlink:href="#ah"/>
</g>
</g>
<g clip-path="url(#a)">
<g transform="translate(693.08 970.03) scale(.1 -.1)">
<use xlink:href="#g"/>
<use x="61.279297" xlink:href="#h"/>
<use x="124.658203" xlink:href="#al"/>
</g>
</g>
<g clip-path="url(#a)">
<g transform="translate(751.99 970.03) scale(.1 -.1)">
<use xlink:href="#i"/>
<use x="27.783203" xlink:href="#h"/>
</g>
</g>
<g clip-path="url(#a)">
<g transform="translate(803.76 970.03) scale(.1 -.1)">
<use xlink:href="#r"/>
<use x="39.208984" xlink:href="#ae"/>
<use x="120.996094" xlink:href="#s"/>
</g>
</g>
<g clip-path="url(#a)">
<g transform="translate(858.49 970.03) scale(.1 -.1)">
<use xlink:href="#k"/>
<use x="97.412109" xlink:href="#s"/>
<use x="158.59375" xlink:href="#f"/>
<use x="197.457031" xlink:href="#d"/>
</g>
</g>
<g clip-path="url(#a)">
<g transform="translate(918.5 970.03) scale(.1 -.1)">
<use xlink:href="#ad"/>
<use x="59.179688" xlink:href="#d"/>
<use x="120.703125" xlink:href="#g"/>
<use x="181.982422" xlink:href="#f"/>
<use x="223.095703" xlink:href="#o"/>
</g>
</g>
<g clip-path="url(#a)">
<g transform="translate(993.74 970.03) scale(.1 -.1)">
<use xlink:href="#ah"/>
</g>
</g>
<g clip-path="url(#a)">
<g transform="translate(1054.5 970.03) scale(.1 -.1)">
<use xlink:href="#am"/>
<use x="63.476562" xlink:href="#ad"/>
</g>
</g>
<g clip-path="url(#a)">
<g transform="translate(1119.1 970.03) scale(.1 -.1)">
<use xlink:href="#r"/>
<use x="39.208984" xlink:href="#ae"/>
<use x="120.996094" xlink:href="#s"/>
</g>
</g>
<g clip-path="url(#a)">
<g transform="translate(1184.7 970.03) scale(.1 -.1)">
<use xlink:href="#s"/>
<use x="61.181641" xlink:href="#r"/>
<use x="100.390625" xlink:href="#af"/>
<use x="163.769531" xlink:href="#d"/>
<use x="225.292969" xlink:href="#f"/>
</g>
</g>
<g clip-path="url(#a)">
<g transform="translate(1251.8 970.03) scale(.1 -.1)">
<defs>
<path id="ax" d="m2.9844 54.688h9.5156l17.094-45.891 17.094 45.891h9.5156l-20.516-54.688h-12.203z"/>
</defs>
<use xlink:href="#ax"/>
<use x="59.179688" xlink:href="#d"/>
<use x="120.703125" xlink:href="#o"/>
<use x="172.802734" xlink:href="#o"/>
<use x="224.902344" xlink:href="#d"/>
<use x="286.425781" xlink:href="#j"/>
<use x="314.208984" xlink:href="#o"/>
</g>
</g>
<g clip-path="url(#a)">
<g transform="translate(1339.7 970.03) scale(.1 -.1)">
<use xlink:href="#s"/>
<use x="61.181641" xlink:href="#ar"/>
</g>
</g>
<g clip-path="url(#a)">
<g transform="translate(1412.3 970.03) scale(.1 -.1)">
<use xlink:href="#o"/>
<use x="52.099609" xlink:href="#r"/>
<use x="91.308594" xlink:href="#i"/>
<use x="119.091797" xlink:href="#j"/>
<use x="146.875" xlink:href="#j"/>
</g>
</g>
<g clip-path="url(#a)">
<g transform="translate(1481.6 970.03) scale(.1 -.1)">
<use xlink:href="#ak"/>
<use x="63.476562" xlink:href="#f"/>
<use x="102.339844" xlink:href="#d"/>
<use x="163.863281" xlink:href="#g"/>
<use x="225.142578" xlink:href="#r"/>
<use x="264.351562" xlink:href="#d"/>
<use x="325.875" xlink:href="#f"/>
</g>
</g>
<g clip-path="url(#a)">
<g transform="translate(1565.6 970.03) scale(.1 -.1)">
<use xlink:href="#ai"/>
<use x="63.476562" xlink:href="#s"/>
<use x="124.658203" xlink:href="#ae"/>
<use x="206.445312" xlink:href="#d"/>
<use x="267.96875" xlink:href="#f"/>
</g>
</g>
<g clip-path="url(#a)">
<g transform="translate(1655 970.03) scale(.1 -.1)">
<use xlink:href="#g"/>
<use x="61.279297" xlink:href="#h"/>
<use x="124.658203" xlink:href="#al"/>
</g>
</g>
<g clip-path="url(#a)">
<g transform="translate(1729.3 970.03) scale(.1 -.1)">
<use xlink:href="#r"/>
<use x="39.208984" xlink:href="#s"/>
<use x="100.390625" xlink:href="#h"/>
<use x="163.769531" xlink:href="#h"/>
<use x="227.148438" xlink:href="#g"/>
<use x="288.427734" xlink:href="#ak"/>
<use x="351.904297" xlink:href="#d"/>
</g>
</g>
<g clip-path="url(#a)">
<g transform="translate(1836.2 970.03) scale(.1 -.1)">
<defs>
<path id="e" d="m10.688 12.406h10.312v-12.406h-10.312z"/>
</defs>
<use xlink:href="#e"/>
</g>
</g>
<g clip-path="url(#a)">
<g transform="translate(554.01 48.82) scale(.1 -.1)">
<use xlink:href="#c"/>
<use x="63.623047" xlink:href="#e"/>
<use x="95.410156" xlink:href="#c"/>
</g>
</g>
<g clip-path="url(#a)">
<g transform="translate(189.06 446.56) scale(.1 -.1)">
<use xlink:href="#c"/>
<use x="63.623047" xlink:href="#e"/>
<use x="95.410156" xlink:href="#m"/>
</g>
</g>
<g clip-path="url(#a)">
<g transform="translate(694.53 840.97) scale(.1 -.1)">
<defs>
<path id="q" d="m40.578 39.312q7.0781-1.5156 11.047-6.3125 3.9844-4.7812 3.9844-11.812 0-10.781-7.4219-16.703-7.4219-5.9062-21.094-5.9062-4.5781 0-9.4375 0.90625t-10.031 2.7188v9.5156q4.0938-2.3906 8.9688-3.6094 4.8906-1.2188 10.219-1.2188 9.2656 0 14.125 3.6562t4.8594 10.641q0 6.4531-4.5156 10.078-4.5156 3.6406-12.562 3.6406h-8.5v8.1094h8.8906q7.2656 0 11.125 2.9062t3.8594 8.375q0 5.6094-3.9844 8.6094-3.9688 3.0156-11.391 3.0156-4.0625 0-8.7031-0.89062-4.6406-0.875-10.203-2.7188v8.7812q5.625 1.5625 10.531 2.3438t9.25 0.78125q11.234 0 17.766-5.1094 6.5469-5.0938 6.5469-13.781 0-6.0625-3.4688-10.234t-9.8594-5.7812z"/>
</defs>
<use xlink:href="#c"/>
<use x="63.623047" xlink:href="#e"/>
<use x="95.410156" xlink:href="#q"/>
</g>
</g>
<g clip-path="url(#a)">
<g transform="translate(689.72 181.64) scale(.1 -.1)">
<defs>
<path id="n" d="m37.797 64.312-24.906-38.922h24.906zm-2.5938 8.5938h12.406v-47.516h10.406v-8.2031h-10.406v-17.188h-9.8125v17.188h-32.906v9.5156z"/>
</defs>
<use xlink:href="#c"/>
<use x="63.623047" xlink:href="#e"/>
<use x="95.410156" xlink:href="#n"/>
</g>
</g>
<g clip-path="url(#a)">
<g transform="translate(835.7 578.56) scale(.1 -.1)">
<defs>
<path id="aa" d="m8.2031 72.906h46.875v-4.2031l-26.469-68.703h-10.297l24.906 64.594h-35.016z"/>
</defs>
<use xlink:href="#c"/>
<use x="63.623047" xlink:href="#e"/>
<use x="95.410156" xlink:href="#aa"/>
</g>
</g>
<g clip-path="url(#a)">
<g transform="translate(1229.9 314.23) scale(.1 -.1)">
<use xlink:href="#c"/>
<use x="63.623047" xlink:href="#e"/>
<use x="95.410156" xlink:href="#w"/>
</g>
</g>
<g clip-path="url(#a)">
<g transform="translate(1049.5 840.97) scale(.1 -.1)">
<use xlink:href="#c"/>
<use x="63.623047" xlink:href="#e"/>
<use x="95.410156" xlink:href="#c"/>
<use x="159.033203" xlink:href="#x"/>
</g>
</g>
<g clip-path="url(#a)">
<g transform="translate(1117.1 840.97) scale(.1 -.1)">
<use xlink:href="#c"/>
<use x="63.623047" xlink:href="#e"/>
<use x="95.410156" xlink:href="#c"/>
<use x="159.033203" xlink:href="#c"/>
</g>
</g>
<g clip-path="url(#a)">
<g transform="translate(1186.9 840.97) scale(.1 -.1)">
<use xlink:href="#c"/>
<use x="63.623047" xlink:href="#e"/>
<use x="95.410156" xlink:href="#c"/>
<use x="159.033203" xlink:href="#m"/>
</g>
</g>
<g clip-path="url(#a)">
<g transform="translate(1259 840.97) scale(.1 -.1)">
<use xlink:href="#c"/>
<use x="63.623047" xlink:href="#e"/>
<use x="95.410156" xlink:href="#c"/>
<use x="159.033203" xlink:href="#q"/>
</g>
</g>
<g clip-path="url(#a)">
<g transform="translate(1520.8 446.56) scale(.1 -.1)">
<use xlink:href="#c"/>
<use x="63.623047" xlink:href="#e"/>
<use x="95.410156" xlink:href="#c"/>
<use x="159.033203" xlink:href="#n"/>
</g>
</g>
<g clip-path="url(#a)">
<g transform="translate(1333.4 840.97) scale(.1 -.1)">
<use xlink:href="#c"/>
<use x="63.623047" xlink:href="#e"/>
<use x="95.410156" xlink:href="#c"/>
<use x="159.033203" xlink:href="#p"/>
</g>
</g>
<g clip-path="url(#a)">
<g transform="translate(1532 578.56) scale(.1 -.1)">
<use xlink:href="#c"/>
<use x="63.623047" xlink:href="#e"/>
<use x="95.410156" xlink:href="#c"/>
<use x="159.033203" xlink:href="#ab"/>
</g>
</g>
<g clip-path="url(#a)">
<g transform="translate(1697.2 710.11) scale(.1 -.1)">
<use xlink:href="#c"/>
<use x="63.623047" xlink:href="#e"/>
<use x="95.410156" xlink:href="#c"/>
<use x="159.033203" xlink:href="#aa"/>
</g>
</g>
<g clip-path="url(#a)">
<g transform="translate(1569.9 840.97) scale(.1 -.1)">
<use xlink:href="#c"/>
<use x="63.623047" xlink:href="#e"/>
<use x="95.410156" xlink:href="#c"/>
<use x="159.033203" xlink:href="#w"/>
</g>
</g>
<g clip-path="url(#a)">
<g transform="translate(1653.2 840.97) scale(.1 -.1)">
<defs>
<path id="ag" d="m10.984 1.5156v8.9844q3.7188-1.7656 7.5156-2.6875 3.8125-0.92188 7.4844-0.92188 9.7656 0 14.906 6.5625 5.1562 6.5625 5.8906 19.953-2.8281-4.2031-7.1875-6.4531-4.3438-2.25-9.6094-2.25-10.938 0-17.312 6.6094-6.375 6.625-6.375 18.109 0 11.219 6.6406 18 6.6406 6.7969 17.672 6.7969 12.656 0 19.312-9.7031 6.6719-9.6875 6.6719-28.141 0-17.234-8.1875-27.516-8.1719-10.281-21.984-10.281-3.7188 0-7.5312 0.73438-3.7969 0.73438-7.9062 2.2031zm19.625 30.906q6.6406 0 10.516 4.5312 3.8906 4.5469 3.8906 12.469 0 7.8594-3.8906 12.422-3.875 4.5625-10.516 4.5625t-10.516-4.5625-3.875-12.422q0-7.9219 3.875-12.469 3.875-4.5312 10.516-4.5312z"/>
</defs>
<use xlink:href="#c"/>
<use x="63.623047" xlink:href="#e"/>
<use x="95.410156" xlink:href="#c"/>
<use x="159.033203" xlink:href="#ag"/>
</g>
</g>
<g clip-path="url(#a)">
<g transform="translate(1738.8 840.97) scale(.1 -.1)">
<use xlink:href="#c"/>
<use x="63.623047" xlink:href="#e"/>
<use x="95.410156" xlink:href="#m"/>
<use x="159.033203" xlink:href="#x"/>
</g>
</g>
<g clip-path="url(#a)">
<g transform="translate(1409.9 840.97) scale(.1 -.1)">
<use xlink:href="#c"/>
<use x="63.623047" xlink:href="#e"/>
<use x="95.410156" xlink:href="#m"/>
<use x="159.033203" xlink:href="#c"/>
</g>
</g>
<g clip-path="url(#a)">
<g transform="translate(1488.8 840.97) scale(.1 -.1)">
<use xlink:href="#c"/>
<use x="63.623047" xlink:href="#e"/>
<use x="95.410156" xlink:href="#m"/>
<use x="159.033203" xlink:href="#m"/>
</g>
</g>
<g clip-path="url(#a)">
<g transform="translate(745.42 840.97) scale(.1 -.1)">
<use xlink:href="#c"/>
<use x="63.623047" xlink:href="#e"/>
<use x="95.410156" xlink:href="#m"/>
<use x="159.033203" xlink:href="#q"/>
</g>
</g>
<g clip-path="url(#a)">
<g transform="translate(831.02 710.11) scale(.1 -.1)">
<use xlink:href="#c"/>
<use x="63.623047" xlink:href="#e"/>
<use x="95.410156" xlink:href="#m"/>
<use x="159.033203" xlink:href="#n"/>
</g>
</g>
<g clip-path="url(#a)">
<g transform="translate(921.12 840.97) scale(.1 -.1)">
<use xlink:href="#c"/>
<use x="63.623047" xlink:href="#e"/>
<use x="95.410156" xlink:href="#m"/>
<use x="159.033203" xlink:href="#p"/>
</g>
</g>
<g clip-path="url(#a)">
<g transform="translate(801.73 840.97) scale(.1 -.1)">
<use xlink:href="#c"/>
<use x="63.623047" xlink:href="#e"/>
<use x="95.410156" xlink:href="#m"/>
<use x="159.033203" xlink:href="#ab"/>
</g>
</g>
<g clip-path="url(#a)">
<g transform="translate(860.3 840.97) scale(.1 -.1)">
<use xlink:href="#c"/>
<use x="63.623047" xlink:href="#e"/>
<use x="95.410156" xlink:href="#m"/>
<use x="159.033203" xlink:href="#aa"/>
</g>
</g>
<g clip-path="url(#a)">
<g transform="translate(83.891 710.11) scale(.1 -.1)">
<use xlink:href="#c"/>
<use x="63.623047" xlink:href="#e"/>
<use x="95.410156" xlink:href="#m"/>
<use x="159.033203" xlink:href="#w"/>
</g>
</g>
<g clip-path="url(#a)">
<g transform="translate(156.91 578.56) scale(.1 -.1)">
<use xlink:href="#c"/>
<use x="63.623047" xlink:href="#e"/>
<use x="95.410156" xlink:href="#m"/>
<use x="159.033203" xlink:href="#ag"/>
</g>
</g>
<g clip-path="url(#a)">
<g transform="translate(193.52 840.97) scale(.1 -.1)">
<use xlink:href="#c"/>
<use x="63.623047" xlink:href="#e"/>
<use x="95.410156" xlink:href="#q"/>
<use x="159.033203" xlink:href="#x"/>
</g>
</g>
<g clip-path="url(#a)">
<g transform="translate(218.3 840.97) scale(.1 -.1)">
<use xlink:href="#c"/>
<use x="63.623047" xlink:href="#e"/>
<use x="95.410156" xlink:href="#q"/>
<use x="159.033203" xlink:href="#c"/>
</g>
</g>
<g clip-path="url(#a)">
<g transform="translate(359.24 578.56) scale(.1 -.1)">
<use xlink:href="#c"/>
<use x="63.623047" xlink:href="#e"/>
<use x="95.410156" xlink:href="#q"/>
<use x="159.033203" xlink:href="#m"/>
</g>
</g>
<g clip-path="url(#a)">
<g transform="translate(245.33 840.97) scale(.1 -.1)">
<use xlink:href="#c"/>
<use x="63.623047" xlink:href="#e"/>
<use x="95.410156" xlink:href="#q"/>
<use x="159.033203" xlink:href="#n"/>
</g>
</g>
<g clip-path="url(#a)">
<g transform="translate(274.61 840.97) scale(.1 -.1)">
<use xlink:href="#c"/>
<use x="63.623047" xlink:href="#e"/>
<use x="95.410156" xlink:href="#q"/>
<use x="159.033203" xlink:href="#p"/>
</g>
</g>
<g clip-path="url(#a)">
<g transform="translate(340.69 710.11) scale(.1 -.1)">
<use xlink:href="#c"/>
<use x="63.623047" xlink:href="#e"/>
<use x="95.410156" xlink:href="#q"/>
<use x="159.033203" xlink:href="#ab"/>
</g>
</g>
<g clip-path="url(#a)">
<g transform="translate(414.28 840.97) scale(.1 -.1)">
<use xlink:href="#c"/>
<use x="63.623047" xlink:href="#e"/>
<use x="95.410156" xlink:href="#q"/>
<use x="159.033203" xlink:href="#aa"/>
</g>
</g>
<g clip-path="url(#a)">
<g transform="translate(521.28 710.11) scale(.1 -.1)">
<use xlink:href="#c"/>
<use x="63.623047" xlink:href="#e"/>
<use x="95.410156" xlink:href="#q"/>
<use x="159.033203" xlink:href="#w"/>
</g>
</g>
<g clip-path="url(#a)">
<g transform="translate(454.83 840.97) scale(.1 -.1)">
<use xlink:href="#c"/>
<use x="63.623047" xlink:href="#e"/>
<use x="95.410156" xlink:href="#q"/>
<use x="159.033203" xlink:href="#ag"/>
</g>
</g>
<g clip-path="url(#a)">
<g transform="translate(497.63 840.97) scale(.1 -.1)">
<use xlink:href="#c"/>
<use x="63.623047" xlink:href="#e"/>
<use x="95.410156" xlink:href="#n"/>
<use x="159.033203" xlink:href="#x"/>
</g>
</g>
<g clip-path="url(#a)">
<g transform="translate(542.68 840.97) scale(.1 -.1)">
<use xlink:href="#c"/>
<use x="63.623047" xlink:href="#e"/>
<use x="95.410156" xlink:href="#n"/>
<use x="159.033203" xlink:href="#c"/>
</g>
</g>
<g clip-path="url(#a)">
<g transform="translate(589.98 840.97) scale(.1 -.1)">
<use xlink:href="#c"/>
<use x="63.623047" xlink:href="#e"/>
<use x="95.410156" xlink:href="#n"/>
<use x="159.033203" xlink:href="#m"/>
</g>
</g>
<g clip-path="url(#a)">
<g transform="translate(306.15 840.97) scale(.1 -.1)">
<use xlink:href="#c"/>
<use x="63.623047" xlink:href="#e"/>
<use x="95.410156" xlink:href="#n"/>
<use x="159.033203" xlink:href="#q"/>
</g>
</g>
<g clip-path="url(#a)">
<g transform="translate(375.98 840.97) scale(.1 -.1)">
<use xlink:href="#c"/>
<use x="63.623047" xlink:href="#e"/>
<use x="95.410156" xlink:href="#n"/>
<use x="159.033203" xlink:href="#n"/>
</g>
</g>
<g clip-path="url(#a)">
<g transform="translate(142.84 710.11) scale(.1 -.1)">
<use xlink:href="#c"/>
<use x="63.623047" xlink:href="#e"/>
<use x="95.410156" xlink:href="#n"/>
<use x="159.033203" xlink:href="#ab"/>
</g>
</g>
<g clip-path="url(#a)">
<g transform="translate(170.99 840.97) scale(.1 -.1)">
<use xlink:href="#c"/>
<use x="63.623047" xlink:href="#e"/>
<use x="95.410156" xlink:href="#n"/>
<use x="159.033203" xlink:href="#aa"/>
</g>
</g>
<g clip-path="url(#a)">
<g transform="translate(116.93 840.97) scale(.1 -.1)">
<use xlink:href="#c"/>
<use x="63.623047" xlink:href="#e"/>
<use x="95.410156" xlink:href="#n"/>
<use x="159.033203" xlink:href="#w"/>
</g>
</g>
<g clip-path="url(#a)">
<g transform="translate(132.7 840.97) scale(.1 -.1)">
<use xlink:href="#c"/>
<use x="63.623047" xlink:href="#e"/>
<use x="95.410156" xlink:href="#n"/>
<use x="159.033203" xlink:href="#ag"/>
</g>
</g>
<g clip-path="url(#a)">
<g transform="translate(150.72 840.97) scale(.1 -.1)">
<use xlink:href="#c"/>
<use x="63.623047" xlink:href="#e"/>
<use x="95.410156" xlink:href="#p"/>
<use x="159.033203" xlink:href="#x"/>
</g>
</g>
<g clip-path="url(#a)">
<g transform="translate(76.382 840.97) scale(.1 -.1)">
<use xlink:href="#c"/>
<use x="63.623047" xlink:href="#e"/>
<use x="95.410156" xlink:href="#p"/>
<use x="159.033203" xlink:href="#c"/>
</g>
</g>
<g clip-path="url(#a)">
<g transform="translate(83.14 840.97) scale(.1 -.1)">
<use xlink:href="#c"/>
<use x="63.623047" xlink:href="#e"/>
<use x="95.410156" xlink:href="#p"/>
<use x="159.033203" xlink:href="#m"/>
</g>
</g>
<g clip-path="url(#a)">
<g transform="translate(92.151 840.97) scale(.1 -.1)">
<use xlink:href="#c"/>
<use x="63.623047" xlink:href="#e"/>
<use x="95.410156" xlink:href="#p"/>
<use x="159.033203" xlink:href="#q"/>
</g>
</g>
<g clip-path="url(#a)">
<g transform="translate(103.41 840.97) scale(.1 -.1)">
<use xlink:href="#c"/>
<use x="63.623047" xlink:href="#e"/>
<use x="95.410156" xlink:href="#p"/>
<use x="159.033203" xlink:href="#n"/>
</g>
</g>
<g clip-path="url(#a)">
<g transform="translate(339.94 840.97) scale(.1 -.1)">
<use xlink:href="#c"/>
<use x="63.623047" xlink:href="#e"/>
<use x="95.410156" xlink:href="#p"/>
<use x="159.033203" xlink:href="#p"/>
</g>
</g>
<g clip-path="url(#a)">
<g transform="translate(639.54 840.97) scale(.1 -.1)">
<use xlink:href="#c"/>
<use x="63.623047" xlink:href="#e"/>
<use x="95.410156" xlink:href="#p"/>
<use x="159.033203" xlink:href="#ab"/>
</g>
</g>
<g clip-path="url(#a)">
<g transform="translate(984.2 840.97) scale(.1 -.1)">
<use xlink:href="#c"/>
<use x="63.623047" xlink:href="#e"/>
<use x="95.410156" xlink:href="#p"/>
<use x="159.033203" xlink:href="#aa"/>
</g>
</g>
<g clip-path="url(#a)">
<g transform="translate(1826.7 840.97) scale(.1 -.1)">
<use xlink:href="#c"/>
<use x="63.623047" xlink:href="#e"/>
<use x="95.410156" xlink:href="#p"/>
<use x="159.033203" xlink:href="#w"/>
</g>
</g>
<defs>
<clipPath id="a">
<rect width="1925.3" height="1013.3"/>
</clipPath>
</defs>
</svg>
