<?xml version="1.0" encoding="UTF-8"?>
<!DOCTYPE svg  PUBLIC '-//W3C//DTD SVG 1.1//EN'  'http://www.w3.org/Graphics/SVG/1.1/DTD/svg11.dtd'>
<svg width="1469.3pt" height="773.33pt" version="1.1" viewBox="0 0 1469.3 773.33" xmlns="http://www.w3.org/2000/svg" xmlns:xlink="http://www.w3.org/1999/xlink">
<metadata>
<rdf:RDF xmlns:cc="http://creativecommons.org/ns#" xmlns:dc="http://purl.org/dc/elements/1.1/" xmlns:rdf="http://www.w3.org/1999/02/22-rdf-syntax-ns#">
<cc:Work>
<dc:type rdf:resource="http://purl.org/dc/dcmitype/StillImage"/>
<dc:date>2021-04-14T07:14:26.134745</dc:date>
<dc:format>image/svg+xml</dc:format>
<dc:creator>
<cc:Agent>
<dc:title>Matplotlib v3.3.3, https://matplotlib.org/</dc:title>
</cc:Agent>
</dc:creator>
</cc:Work>
</rdf:RDF>
</metadata>
<defs>
<style type="text/css">*{stroke-linecap:butt;stroke-linejoin:round;}</style>
</defs>
<path d="m0 773.33h1469.3v-773.33h-1469.3z" fill="#fff"/>
<g fill="none" stroke="#000">
<path d="m473.64 35.152-402.51 424.38" clip-path="url(#a)"/>
<path d="m473.64 35.152-355.93 141.86" clip-path="url(#a)"/>
<path d="m473.64 35.152-190.01 564.67" clip-path="url(#a)"/>
<path d="m473.64 35.152-152.42 564.67" clip-path="url(#a)"/>
<path d="m473.64 35.152-43.998 283.36" clip-path="url(#a)"/>
<path d="m473.64 35.152 78.88 564.67" clip-path="url(#a)"/>
<path d="m473.64 35.152 197.13 283.36" clip-path="url(#a)"/>
<path d="m473.64 35.152 641.71 283.36" clip-path="url(#a)"/>
<path d="m473.64 35.152-224.7 564.67" clip-path="url(#a)"/>
<path d="m473.64 35.152 451.85 564.67" clip-path="url(#a)"/>
<path d="m71.125 459.53-4.3369 140.29" clip-path="url(#a)"/>
<path d="m71.125 459.53 4.3369 140.29" clip-path="url(#a)"/>
<path d="m117.71 177.01-30.679 422.81" clip-path="url(#a)"/>
<path d="m117.71 177.01-16.223 422.81" clip-path="url(#a)"/>
<path d="m117.71 177.01 46.903 141.5" clip-path="url(#a)"/>
<path d="m283.63 599.82v138.36" clip-path="url(#a)"/>
<path d="m321.22 599.82v138.36" clip-path="url(#a)"/>
<path d="m429.64 318.51-46.26 141.02" clip-path="url(#a)"/>
<path d="m429.64 318.51 46.26 141.02" clip-path="url(#a)"/>
<path d="m552.52 599.82v138.36" clip-path="url(#a)"/>
<path d="m670.77 318.51-63.318 281.31" clip-path="url(#a)"/>
<path d="m670.77 318.51-5.4934 281.31" clip-path="url(#a)"/>
<path d="m670.77 318.51 120.28 141.02" clip-path="url(#a)"/>
<path d="m670.77 318.51 118.83 281.31" clip-path="url(#a)"/>
<path d="m670.77 318.51-170.29 281.31" clip-path="url(#a)" stroke-dasharray="3.7,1.6"/>
<path d="m1115.3 318.51-117.58 281.31" clip-path="url(#a)"/>
<path d="m1115.3 318.51-42.405 281.31" clip-path="url(#a)"/>
<path d="m1115.3 318.51 159.98 141.02" clip-path="url(#a)"/>
<path d="m997.77 599.82v138.36" clip-path="url(#a)"/>
<path d="m1072.9 599.82v138.36" clip-path="url(#a)"/>
<path d="m1275.3 459.53-124.32 140.29" clip-path="url(#a)"/>
<path d="m1275.3 459.53-43.369 140.29" clip-path="url(#a)"/>
<path d="m1275.3 459.53 40.478 140.29" clip-path="url(#a)"/>
<path d="m1275.3 459.53 127.22 140.29" clip-path="url(#a)"/>
<path d="m1151 599.82v138.36" clip-path="url(#a)"/>
<path d="m1232 599.82v138.36" clip-path="url(#a)"/>
<path d="m1315.8 599.82v138.36" clip-path="url(#a)"/>
<path d="m607.45 599.82v138.36" clip-path="url(#a)"/>
<path d="m665.28 599.82v138.36" clip-path="url(#a)"/>
<path d="m791.05 459.53-65.053 140.29" clip-path="url(#a)"/>
<path d="m791.05 459.53 65.053 140.29" clip-path="url(#a)"/>
<path d="m789.6 599.82v138.36" clip-path="url(#a)"/>
<path d="m725.99 599.82v138.36" clip-path="url(#a)"/>
<path d="m856.1 599.82v138.36" clip-path="url(#a)"/>
<path d="m383.38 459.53-21.684 140.29" clip-path="url(#a)"/>
<path d="m383.38 459.53 21.684 140.29" clip-path="url(#a)"/>
<path d="m475.9 459.53-24.576 140.29" clip-path="url(#a)"/>
<path d="m475.9 459.53 24.576 140.29" clip-path="url(#a)"/>
<path d="m451.32 599.82v138.36" clip-path="url(#a)"/>
<path d="m500.48 599.82v138.36" clip-path="url(#a)"/>
<path d="m361.7 599.82v138.36" clip-path="url(#a)"/>
<path d="m405.06 599.82v138.36" clip-path="url(#a)"/>
<path d="m87.027 599.82v138.36" clip-path="url(#a)"/>
<path d="m101.48 599.82v138.36" clip-path="url(#a)"/>
<path d="m164.61 318.51-35.659 141.02" clip-path="url(#a)"/>
<path d="m164.61 318.51-2.4094 281.31" clip-path="url(#a)"/>
<path d="m164.61 318.51 38.068 281.31" clip-path="url(#a)"/>
<path d="m128.95 459.53-10.119 140.29" clip-path="url(#a)"/>
<path d="m128.95 459.53 10.119 140.29" clip-path="url(#a)"/>
<path d="m162.2 599.82v138.36" clip-path="url(#a)"/>
<path d="m202.68 599.82-14.456 138.36" clip-path="url(#a)"/>
<path d="m202.68 599.82 14.456 138.36" clip-path="url(#a)"/>
<path d="m118.83 599.82v138.36" clip-path="url(#a)"/>
<path d="m139.07 599.82v138.36" clip-path="url(#a)"/>
<path d="m66.788 599.82v138.36" clip-path="url(#a)"/>
<path d="m75.462 599.82v138.36" clip-path="url(#a)"/>
<path d="m248.94 599.82v138.36" clip-path="url(#a)"/>
<path d="m925.49 599.82v138.36" clip-path="url(#a)"/>
<path d="m1402.5 599.82v138.36" clip-path="url(#a)"/>
</g>
<path d="m275.4 253.28 3.0675-3.2342q1.6516-1.7413-0.089736-3.3929l-5.6176-5.3281q-1.7413-1.6516-3.3929 0.089736l-3.0675 3.2342q-1.6516 1.7413 0.089736 3.3929l5.6176 5.3281q1.7413 1.6516 3.3929-0.089736z" clip-path="url(#a)" fill="#fff" stroke="#fff"/>
<g clip-path="url(#a)">
<g transform="translate(272.45 250.48) rotate(-46.515) scale(.08 -.08)">
<defs>
<path id="v" d="m9.8125 72.906h9.8594v-64.609h35.5v-8.2969h-45.359z"/>
</defs>
<use xlink:href="#v"/>
</g>
</g>
<path d="m295.2 113.02 5.5887-2.2274q2.2295-0.88856 1.3409-3.118l-2.8666-7.1923q-0.88856-2.2295-3.118-1.3409l-5.5887 2.2274q-2.2295 0.88857-1.3409 3.118l2.8666 7.1923q0.88857 2.2295 3.118 1.3409z" clip-path="url(#a)" fill="#fff" stroke="#fff"/>
<g clip-path="url(#a)">
<g transform="translate(293.7 109.25) rotate(-21.73) scale(.08 -.08)">
<defs>
<path id="z" d="m9.8125 72.906h9.8594v-29.891h35.844v29.891h9.8594v-72.906h-9.8594v34.719h-35.844v-34.719h-9.8594z"/>
</defs>
<use xlink:href="#z"/>
</g>
</g>
<path d="m383.87 321.6 1.4216-4.2247q0.76541-2.2747-1.5093-3.0401l-7.3382-2.4692q-2.2747-0.76541-3.0401 1.5093l-1.4216 4.2247q-0.76541 2.2747 1.5093 3.0401l7.3382 2.4692q2.2747 0.76541 3.0401-1.5093z" clip-path="url(#a)" fill="#fff" stroke="#fff"/>
<g clip-path="url(#a)">
<g transform="translate(380.02 320.3) rotate(-71.402) scale(.08 -.08)">
<use xlink:href="#v"/>
</g>
</g>
<path d="m402.9 321.27 1.1616-4.3035q0.62544-2.3171-1.6916-2.9425l-7.475-2.0177q-2.3171-0.62544-2.9425 1.6916l-1.1616 4.3035q-0.62544 2.3171 1.6916 2.9425l7.475 2.0177q2.3171 0.62544 2.9425-1.6916z" clip-path="url(#a)" fill="#fff" stroke="#fff"/>
<g clip-path="url(#a)">
<g transform="translate(398.98 320.21) rotate(-74.894) scale(.08 -.08)">
<use xlink:href="#v"/>
</g>
</g>
<path d="m457.37 180.77 0.9231-5.945q0.36824-2.3716-2.0033-2.7398l-7.6508-1.188q-2.3716-0.36824-2.7398 2.0033l-0.9231 5.945q-0.36824 2.3716 2.0033 2.7398l7.6508 1.188q2.3716 0.36824 2.7398-2.0033z" clip-path="url(#a)" fill="#fff" stroke="#fff"/>
<g clip-path="url(#a)">
<g transform="translate(453.36 180.14) rotate(-81.174) scale(.08 -.08)">
<use xlink:href="#z"/>
</g>
</g>
<path d="m506.56 316.15 0.61669 4.4146q0.33204 2.3769 2.709 2.0449l7.668-1.0712q2.3769-0.33204 2.0449-2.709l-0.61669-4.4146q-0.33204-2.3769-2.709-2.0449l-7.668 1.0712q-2.3769 0.33204-2.0449 2.709z" clip-path="url(#a)" fill="#fff" stroke="#fff"/>
<g clip-path="url(#a)">
<g transform="translate(510.58 315.58) rotate(82.048) scale(.08 -.08)">
<use xlink:href="#v"/>
</g>
</g>
<path d="m565.34 177.94 3.4358 4.9387q1.3706 1.9701 3.3407 0.59953l6.3557-4.4216q1.9701-1.3706 0.59953-3.3407l-3.4358-4.9387q-1.3706-1.9701-3.3407-0.59953l-6.3557 4.4216q-1.9701 1.3706-0.59953 3.3407z" clip-path="url(#a)" fill="#fff" stroke="#fff"/>
<g clip-path="url(#a)">
<g transform="translate(568.67 175.62) rotate(55.174) scale(.08 -.08)">
<use xlink:href="#z"/>
</g>
</g>
<path d="m789.21 181.35 5.5036 2.4302q2.1955 0.96946 3.1649-1.226l3.1275-7.0827q0.96946-2.1955-1.226-3.1649l-5.5036-2.4302q-2.1955-0.96946-3.1649 1.226l-3.1275 7.0827q-0.96946 2.1955 1.226 3.1649z" clip-path="url(#a)" fill="#fff" stroke="#fff"/>
<g clip-path="url(#a)">
<g transform="translate(790.85 177.64) rotate(23.825) scale(.08 -.08)">
<use xlink:href="#z"/>
</g>
</g>
<path d="m366.03 322.52 2.1648-5.4401q0.88737-2.2299-1.3426-3.1173l-7.1938-2.8627q-2.2299-0.88737-3.1173 1.3426l-2.1648 5.4401q-0.88737 2.2299 1.3426 3.1173l7.1938 2.8627q2.2299 0.88737 3.1173-1.3426z" clip-path="url(#a)" fill="#fff" stroke="#fff"/>
<g clip-path="url(#a)">
<g transform="translate(362.26 321.02) rotate(-68.301) scale(.08 -.08)">
<defs>
<path id="ag" d="m8.6875 72.906h9.9219v-44.297q0-11.719 4.2344-16.875 4.25-5.1406 13.781-5.1406 9.4688 0 13.719 5.1406 4.25 5.1562 4.25 16.875v44.297h9.9062v-45.516q0-14.25-7.0625-21.531-7.0469-7.2812-20.812-7.2812-13.828 0-20.891 7.2812-7.0469 7.2812-7.0469 21.531z"/>
</defs>
<use xlink:href="#ag"/>
</g>
</g>
<path d="m692.84 319.12 3.6582 4.5715q1.4995 1.8739 3.3734 0.3744l6.0453-4.8375q1.8739-1.4995 0.3744-3.3734l-3.6582-4.5715q-1.4995-1.8739-3.3734-0.3744l-6.0453 4.8375q-1.8739 1.4995-0.3744 3.3734z" clip-path="url(#a)" fill="#fff" stroke="#fff"/>
<g clip-path="url(#a)">
<g transform="translate(696.01 316.58) rotate(51.333) scale(.08 -.08)">
<use xlink:href="#ag"/>
</g>
</g>
<path d="m75.139 532.65 0.17176-5.5561q0.074159-2.3989-2.3247-2.473l-7.7388-0.23924q-2.3989-0.074159-2.473 2.3247l-0.17176 5.5561q-0.07416 2.3989 2.3247 2.473l7.7388 0.23924q2.3989 0.074159 2.473-2.3247z" clip-path="url(#a)" fill="#fff" stroke="#fff"/>
<g clip-path="url(#a)">
<g transform="translate(71.077 532.52) rotate(-88.229) scale(.08 -.08)">
<defs>
<path id="y" d="m44.391 34.188q3.1719-1.0781 6.1719-4.5938t6.0312-9.6719l10.016-19.922h-10.609l-9.3125 18.703q-3.625 7.3281-7.0156 9.7188t-9.25 2.3906h-10.75v-30.812h-9.8594v72.906h22.266q12.5 0 18.656-5.2344 6.1562-5.2188 6.1562-15.766 0-6.8906-3.2031-11.438-3.2031-4.5312-9.2969-6.2812zm-24.719 30.609v-25.875h12.406q7.125 0 10.766 3.2969t3.6406 9.6875-3.6406 9.6406-10.766 3.25z"/>
</defs>
<use xlink:href="#y"/>
</g>
</g>
<path d="m66.939 527.08 0.17261 5.5836q0.07416 2.3989 2.473 2.3247l7.7388-0.23924q2.3989-0.074159 2.3247-2.473l-0.17261-5.5836q-0.074159-2.3989-2.473-2.3247l-7.7388 0.23924q-2.3989 0.074159-2.3247 2.473z" clip-path="url(#a)" fill="#fff" stroke="#fff"/>
<g clip-path="url(#a)">
<g transform="translate(71 526.95) rotate(88.229) scale(.08 -.08)">
<defs>
<path id="p" d="m64.406 67.281v-10.391q-4.9844 4.6406-10.625 6.9219-5.6406 2.2969-11.984 2.2969-12.5 0-19.141-7.6406t-6.6406-22.094q0-14.406 6.6406-22.047t19.141-7.6406q6.3438 0 11.984 2.2969t10.625 6.9375v-10.312q-5.1719-3.5156-10.969-5.2812-5.7812-1.75-12.219-1.75-16.562 0-26.094 10.125-9.5156 10.141-9.5156 27.672 0 17.578 9.5156 27.703 9.5312 10.141 26.094 10.141 6.5312 0 12.312-1.7344 5.7969-1.7344 10.875-5.2031z"/>
</defs>
<use xlink:href="#p"/>
</g>
</g>
<path d="m108.42 391.6 0.39605-5.4582q0.17369-2.3937-2.22-2.5674l-7.7222-0.56033q-2.3937-0.17369-2.5674 2.22l-0.39605 5.4582q-0.17369 2.3937 2.22 2.5674l7.7222 0.56033q2.3937 0.17369 2.5674-2.22z" clip-path="url(#a)" fill="#fff" stroke="#fff"/>
<g clip-path="url(#a)">
<g transform="translate(104.37 391.3) rotate(-85.85) scale(.08 -.08)">
<defs>
<path id="r" d="m34.188 63.188-13.391-36.281h26.812zm-5.5781 9.7188h11.188l27.781-72.906h-10.25l-6.6406 18.703h-32.859l-6.6406-18.703h-10.406z"/>
</defs>
<use xlink:href="#r"/>
</g>
</g>
<path d="m115.76 391.19 0.19473-5.075q0.09202-2.3982-2.3062-2.4903l-7.7368-0.29686q-2.3982-0.09202-2.4903 2.3062l-0.19473 5.075q-0.09202 2.3982 2.3062 2.4903l7.7368 0.29686q2.3982 0.09202 2.4903-2.3062z" clip-path="url(#a)" fill="#fff" stroke="#fff"/>
<g clip-path="url(#a)">
<g transform="translate(111.7 391.04) rotate(-87.803) scale(.08 -.08)">
<defs>
<path id="ah" d="m53.516 70.516v-9.625q-5.6094 2.6875-10.594 4-4.9844 1.3281-9.625 1.3281-8.0469 0-12.422-3.125t-4.375-8.8906q0-4.8438 2.9062-7.3125 2.9062-2.4531 11.016-3.9688l5.9531-1.2188q11.031-2.1094 16.281-7.4062t5.25-14.172q0-10.609-7.1094-16.078-7.0938-5.4688-20.812-5.4688-5.1719 0-11.016 1.1719-5.8281 1.1719-12.078 3.4688v10.156q6-3.3594 11.766-5.0781 5.7656-1.7031 11.328-1.7031 8.4375 0 13.031 3.3125 4.5938 3.3281 4.5938 9.4844 0 5.3594-3.2969 8.3906t-10.812 4.5469l-6.0156 1.1719q-11.031 2.1875-15.969 6.875-4.9219 4.6875-4.9219 13.047 0 9.6719 6.8125 15.234t18.766 5.5625q5.1406 0 10.453-0.9375 5.3281-0.92188 10.891-2.7656z"/>
</defs>
<use xlink:href="#ah"/>
</g>
</g>
<path d="m134.34 247.14 1.7218 5.1946q0.75511 2.2781 3.0332 1.523l7.3493-2.436q2.2781-0.75511 1.523-3.0332l-1.7218-5.1946q-0.75511-2.2781-3.0332-1.523l-7.3493 2.436q-2.2781 0.75511-1.523 3.0332z" clip-path="url(#a)" fill="#fff" stroke="#fff"/>
<g clip-path="url(#a)">
<g transform="translate(138.2 245.86) rotate(71.662) scale(.08 -.08)">
<use xlink:href="#r"/>
</g>
</g>
<path d="m277.36 652.1v33.808q0 2.4 2.4 2.4h7.7425q2.4 0 2.4-2.4v-33.808q0-2.4-2.4-2.4h-7.7425q-2.4 0-2.4 2.4z" clip-path="url(#a)" fill="#fff" stroke="#fff"/>
<g clip-path="url(#a)">
<g transform="translate(281.42 652.1) rotate(90) scale(.08 -.08)">
<defs>
<path id="l" d="m-0.29688 72.906h61.672v-8.3125h-25.875v-64.594h-9.9062v64.594h-25.891z"/>
<path id="d" d="m56.203 29.594v-4.3906h-41.312q0.59375-9.2812 5.5938-14.141t13.938-4.8594q5.1719 0 10.031 1.2656t9.6562 3.8125v-8.5q-4.8438-2.0469-9.9219-3.125t-10.297-1.0781q-13.094 0-20.734 7.6094-7.6406 7.625-7.6406 20.625 0 13.422 7.25 21.297 7.25 7.8906 19.562 7.8906 11.031 0 17.453-7.1094 6.4219-7.0938 6.4219-19.297zm-8.9844 2.6406q-0.09375 7.3594-4.125 11.75-4.0312 4.4062-10.672 4.4062-7.5156 0-12.031-4.25t-5.2031-11.969z"/>
<path id="i" d="m41.109 46.297q-1.5156 0.875-3.2969 1.2812-1.7812 0.42188-3.9219 0.42188-7.625 0-11.703-4.9531t-4.0781-14.234v-28.812h-9.0312v54.688h9.0312v-8.5q2.8438 4.9844 7.375 7.3906 4.5469 2.4219 11.047 2.4219 0.92188 0 2.0469-0.125 1.125-0.10938 2.4844-0.35938z"/>
<path id="k" d="m52 44.188q3.375 6.0625 8.0625 8.9375t11.031 2.875q8.5469 0 13.188-5.9844 4.6406-5.9688 4.6406-17v-33.016h-9.0312v32.719q0 7.8594-2.7969 11.656-2.7812 3.8125-8.4844 3.8125-6.9844 0-11.047-4.6406-4.0469-4.625-4.0469-12.641v-30.906h-9.0312v32.719q0 7.9062-2.7812 11.688t-8.5938 3.7812q-6.8906 0-10.953-4.6562-4.0469-4.6562-4.0469-12.625v-30.906h-9.0312v54.688h9.0312v-8.5q3.0781 5.0312 7.375 7.4219t10.203 2.3906q5.9688 0 10.141-3.0312 4.1719-3.0156 6.1719-8.7812z"/>
<path id="h" d="m9.4219 54.688h8.9844v-54.688h-8.9844zm0 21.297h8.9844v-11.391h-8.9844z"/>
<path id="j" d="m54.891 33.016v-33.016h-8.9844v32.719q0 7.7656-3.0312 11.609-3.0312 3.8594-9.0781 3.8594-7.2812 0-11.484-4.6406-4.2031-4.625-4.2031-12.641v-30.906h-9.0312v54.688h9.0312v-8.5q3.2344 4.9375 7.5938 7.375 4.375 2.4375 10.094 2.4375 9.4219 0 14.25-5.8281 4.8438-5.8281 4.8438-17.156z"/>
<path id="f" d="m34.281 27.484q-10.891 0-15.094-2.4844t-4.2031-8.5q0-4.7812 3.1562-7.5938 3.1562-2.7969 8.5625-2.7969 7.4844 0 12 5.2969t4.5156 14.078v2zm17.922 3.7188v-31.203h-8.9844v8.2969q-3.0781-4.9688-7.6719-7.3438t-11.234-2.375q-8.3906 0-13.359 4.7188-4.9531 4.7188-4.9531 12.625 0 9.2188 6.1719 13.906 6.1875 4.6875 18.438 4.6875h12.609v0.89062q0 6.2031-4.0781 9.5938t-11.453 3.3906q-4.6875 0-9.1406-1.125-4.4375-1.125-8.5312-3.375v8.3125q4.9219 1.9062 9.5625 2.8438 4.6406 0.95312 9.0312 0.95312 11.875 0 17.734-6.1562 5.8594-6.1406 5.8594-18.641z"/>
<path id="g" d="m9.4219 75.984h8.9844v-75.984h-8.9844z"/>
</defs>
<use xlink:href="#l"/>
<use x="44.083984" xlink:href="#d"/>
<use x="105.607422" xlink:href="#i"/>
<use x="144.970703" xlink:href="#k"/>
<use x="242.382812" xlink:href="#h"/>
<use x="270.166016" xlink:href="#j"/>
<use x="333.544922" xlink:href="#f"/>
<use x="394.824219" xlink:href="#g"/>
</g>
</g>
<path d="m314.95 652.1v33.808q0 2.4 2.4 2.4h7.7425q2.4 0 2.4-2.4v-33.808q0-2.4-2.4-2.4h-7.7425q-2.4 0-2.4 2.4z" clip-path="url(#a)" fill="#fff" stroke="#fff"/>
<g clip-path="url(#a)">
<g transform="translate(319.01 652.1) rotate(90) scale(.08 -.08)">
<use xlink:href="#l"/>
<use x="44.083984" xlink:href="#d"/>
<use x="105.607422" xlink:href="#i"/>
<use x="144.970703" xlink:href="#k"/>
<use x="242.382812" xlink:href="#h"/>
<use x="270.166016" xlink:href="#j"/>
<use x="333.544922" xlink:href="#f"/>
<use x="394.824219" xlink:href="#g"/>
</g>
</g>
<path d="m411.71 393.3 1.523-4.6428q0.74806-2.2804-1.5324-3.0285l-7.3568-2.4133q-2.2804-0.74806-3.0285 1.5324l-1.523 4.6428q-0.74806 2.2804 1.5324 3.0285l7.3568 2.4133q2.2804 0.74806 3.0285-1.5324z" clip-path="url(#a)" fill="#fff" stroke="#fff"/>
<g clip-path="url(#a)">
<g transform="translate(407.85 392.03) rotate(-71.839) scale(.08 -.08)">
<use xlink:href="#l"/>
</g>
</g>
<path d="m446.02 388.57 1.583 4.8257q0.74806 2.2804 3.0285 1.5324l7.3568-2.4133q2.2804-0.74806 1.5324-3.0285l-1.583-4.8257q-0.74806-2.2804-3.0285-1.5324l-7.3568 2.4133q-2.2804 0.74806-1.5324 3.0285z" clip-path="url(#a)" fill="#fff" stroke="#fff"/>
<g clip-path="url(#a)">
<g transform="translate(449.88 387.3) rotate(71.839) scale(.08 -.08)">
<use xlink:href="#ah"/>
</g>
</g>
<path d="m546.25 652.1v33.808q0 2.4 2.4 2.4h7.7425q2.4 0 2.4-2.4v-33.808q0-2.4-2.4-2.4h-7.7425q-2.4 0-2.4 2.4z" clip-path="url(#a)" fill="#fff" stroke="#fff"/>
<g clip-path="url(#a)">
<g transform="translate(550.31 652.1) rotate(90) scale(.08 -.08)">
<use xlink:href="#l"/>
<use x="44.083984" xlink:href="#d"/>
<use x="105.607422" xlink:href="#i"/>
<use x="144.970703" xlink:href="#k"/>
<use x="242.382812" xlink:href="#h"/>
<use x="270.166016" xlink:href="#j"/>
<use x="333.544922" xlink:href="#f"/>
<use x="394.824219" xlink:href="#g"/>
</g>
</g>
<path d="m644.55 463.55 1.3527-6.0096q0.52702-2.3414-1.8144-2.8684l-7.5535-1.7002q-2.3414-0.52702-2.8684 1.8144l-1.3527 6.0096q-0.52702 2.3414 1.8144 2.8684l7.5535 1.7002q2.3414 0.52702 2.8684-1.8144z" clip-path="url(#a)" fill="#fff" stroke="#fff"/>
<g clip-path="url(#a)">
<g transform="translate(640.59 462.66) rotate(-77.315) scale(.08 -.08)">
<defs>
<path id="am" d="m19.672 64.797v-56.688h11.922q15.094 0 22.094 6.8281 7 6.8438 7 21.594 0 14.641-7 21.453t-22.094 6.8125zm-9.8594 8.1094h20.266q21.188 0 31.094-8.8125 9.9219-8.8125 9.9219-27.562 0-18.859-9.9688-27.703-9.9531-8.8281-31.047-8.8281h-20.266z"/>
</defs>
<use xlink:href="#am"/>
</g>
</g>
<path d="m674.24 462.02 0.10685-5.4715q0.046859-2.3995-2.3527-2.4464l-7.741-0.15117q-2.3995-0.046858-2.4464 2.3527l-0.10685 5.4715q-0.046859 2.3995 2.3527 2.4464l7.741 0.15117q2.3995 0.046858 2.4464-2.3527z" clip-path="url(#a)" fill="#fff" stroke="#fff"/>
<g clip-path="url(#a)">
<g transform="translate(670.18 461.95) rotate(-88.881) scale(.08 -.08)">
<use xlink:href="#r"/>
</g>
</g>
<path d="m724.49 391.16 3.2957 3.8642q1.5574 1.826 3.3835 0.26863l5.8909-5.0243q1.826-1.5574 0.26863-3.3835l-3.2957-3.8642q-1.5574-1.826-3.3835-0.26863l-5.8909 5.0243q-1.826 1.5574-0.26863 3.3835z" clip-path="url(#a)" fill="#fff" stroke="#fff"/>
<g clip-path="url(#a)">
<g transform="translate(727.58 388.52) rotate(49.539) scale(.08 -.08)">
<use xlink:href="#ah"/>
</g>
</g>
<path d="m723.21 458.77 2.397 5.6745q0.93391 2.2108 3.1447 1.2769l7.1323-3.0128q2.2108-0.93391 1.2769-3.1447l-2.397-5.6745q-0.93391-2.2108-3.1447-1.2769l-7.1323 3.0128q-2.2108 0.93391-1.2769 3.1447z" clip-path="url(#a)" fill="#fff" stroke="#fff"/>
<g clip-path="url(#a)">
<g transform="translate(726.95 457.19) rotate(67.1) scale(.08 -.08)">
<use xlink:href="#am"/>
</g>
</g>
<path d="m589.57 464.76 2.834-4.6815q1.2429-2.0531-0.81022-3.296l-6.6234-4.0096q-2.0531-1.2429-3.296 0.81022l-2.834 4.6815q-1.2429 2.0531 0.81022 3.296l6.6234 4.0096q2.0531 1.2429 3.296-0.81022z" clip-path="url(#a)" fill="#fff" stroke="#fff"/>
<g clip-path="url(#a)">
<g transform="translate(586.09 462.65) rotate(-58.811) scale(.08 -.08)">
<use xlink:href="#r"/>
</g>
</g>
<path d="m1061.3 464.11 2.1104-5.0492q0.92553-2.2144-1.2888-3.1399l-7.1436-2.9858q-2.2144-0.92553-3.1399 1.2888l-2.1104 5.0492q-0.92553 2.2144 1.2888 3.1399l7.1436 2.9858q2.2144 0.92553 3.1399-1.2888z" clip-path="url(#a)" fill="#fff" stroke="#fff"/>
<g clip-path="url(#a)">
<g transform="translate(1057.5 462.54) rotate(-67.317) scale(.08 -.08)">
<use xlink:href="#r"/>
</g>
</g>
<path d="m1100 462.49 0.71902-4.7699q0.35774-2.3732-2.0154-2.7309l-7.656-1.1541q-2.3732-0.35774-2.7309 2.0154l-0.71902 4.7699q-0.35774 2.3732 2.0154 2.7309l7.656 1.1541q2.3732 0.35774 2.7309-2.0154z" clip-path="url(#a)" fill="#fff" stroke="#fff"/>
<g clip-path="url(#a)">
<g transform="translate(1096 461.88) rotate(-81.428) scale(.08 -.08)">
<defs>
<path id="ao" d="m19.672 64.797v-27.391h12.406q6.8906 0 10.641 3.5625 3.7656 3.5625 3.7656 10.156 0 6.5469-3.7656 10.109-3.75 3.5625-10.641 3.5625zm-9.8594 8.1094h22.266q12.266 0 18.531-5.5469 6.2812-5.5469 6.2812-16.234 0-10.797-6.2812-16.312-6.2656-5.5156-18.531-5.5156h-12.406v-29.297h-9.8594z"/>
</defs>
<use xlink:href="#ao"/>
</g>
</g>
<path d="m1189.1 391.92 4.1053 3.6187q1.8004 1.587 3.3874-0.21338l5.1198-5.8081q1.587-1.8004-0.21338-3.3874l-4.1053-3.6187q-1.8004-1.587-3.3874 0.21338l-5.1198 5.8081q-1.587 1.8004 0.21338 3.3874z" clip-path="url(#a)" fill="#fff" stroke="#fff"/>
<g clip-path="url(#a)">
<g transform="translate(1191.8 388.87) rotate(41.396) scale(.08 -.08)">
<use xlink:href="#r"/>
</g>
</g>
<path d="m991.5 652.1v33.808q0 2.4 2.4 2.4h7.7425q2.4 0 2.4-2.4v-33.808q0-2.4-2.4-2.4h-7.7425q-2.4 0-2.4 2.4z" clip-path="url(#a)" fill="#fff" stroke="#fff"/>
<g clip-path="url(#a)">
<g transform="translate(995.56 652.1) rotate(90) scale(.08 -.08)">
<use xlink:href="#l"/>
<use x="44.083984" xlink:href="#d"/>
<use x="105.607422" xlink:href="#i"/>
<use x="144.970703" xlink:href="#k"/>
<use x="242.382812" xlink:href="#h"/>
<use x="270.166016" xlink:href="#j"/>
<use x="333.544922" xlink:href="#f"/>
<use x="394.824219" xlink:href="#g"/>
</g>
</g>
<path d="m1066.7 652.1v33.808q0 2.4 2.4 2.4h7.7425q2.4 0 2.4-2.4v-33.808q0-2.4-2.4-2.4h-7.7425q-2.4 0-2.4 2.4z" clip-path="url(#a)" fill="#fff" stroke="#fff"/>
<g clip-path="url(#a)">
<g transform="translate(1070.7 652.1) rotate(90) scale(.08 -.08)">
<use xlink:href="#l"/>
<use x="44.083984" xlink:href="#d"/>
<use x="105.607422" xlink:href="#i"/>
<use x="144.970703" xlink:href="#k"/>
<use x="242.382812" xlink:href="#h"/>
<use x="270.166016" xlink:href="#j"/>
<use x="333.544922" xlink:href="#f"/>
<use x="394.824219" xlink:href="#g"/>
</g>
</g>
<path d="m1216.3 535.56 3.0518-3.4436q1.5918-1.7962-0.20437-3.388l-5.7945-5.1352q-1.7962-1.5918-3.388 0.20437l-3.0518 3.4436q-1.5918 1.7962 0.20437 3.388l5.7945 5.1352q1.7962 1.5918 3.388-0.20437z" clip-path="url(#a)" fill="#fff" stroke="#fff"/>
<g clip-path="url(#a)">
<g transform="translate(1213.3 532.86) rotate(-48.452) scale(.08 -.08)">
<defs>
<path id="ap" d="m9.8125 72.906h41.891v-8.3125h-32.031v-21.484h28.906v-8.2969h-28.906v-34.812h-9.8594z"/>
</defs>
<use xlink:href="#ap"/>
</g>
</g>
<path d="m1258.9 533.94 1.493-4.8295q0.70885-2.2929-1.5841-3.0018l-7.3971-2.2868q-2.2929-0.70885-3.0018 1.5841l-1.493 4.8295q-0.70885 2.2929 1.5841 3.0018l7.3971 2.2868q2.2929 0.70885 3.0018-1.5841z" clip-path="url(#a)" fill="#fff" stroke="#fff"/>
<g clip-path="url(#a)">
<g transform="translate(1255 532.74) rotate(-72.821) scale(.08 -.08)">
<defs>
<path id="aq" d="m9.8125 72.906h46.094v-8.3125h-36.234v-21.578h34.719v-8.2969h-34.719v-26.422h37.109v-8.2969h-46.969z"/>
</defs>
<use xlink:href="#aq"/>
</g>
</g>
<path d="m1288.8 528.73 1.5487 5.3673q0.66534 2.3059 2.9713 1.6406l7.439-2.1464q2.3059-0.66534 1.6406-2.9713l-1.5487-5.3673q-0.66534-2.3059-2.9713-1.6406l-7.439 2.1464q-2.3059 0.66534-1.6406 2.9713z" clip-path="url(#a)" fill="#fff" stroke="#fff"/>
<g clip-path="url(#a)">
<g transform="translate(1292.7 527.61) rotate(73.905) scale(.08 -.08)">
<use xlink:href="#p"/>
</g>
</g>
<path d="m1332.3 531.72 3.9331 4.3372q1.6122 1.7779 3.3901 0.16565l5.7354-5.2011q1.7779-1.6122 0.16565-3.3901l-3.9331-4.3372q-1.6122-1.7779-3.3901-0.16565l-5.7354 5.2011q-1.7779 1.6122-0.16565 3.3901z" clip-path="url(#a)" fill="#fff" stroke="#fff"/>
<g clip-path="url(#a)">
<g transform="translate(1335.3 528.99) rotate(47.797) scale(.08 -.08)">
<use xlink:href="#ag"/>
</g>
</g>
<path d="m1144.7 652.1v33.808q0 2.4 2.4 2.4h7.7425q2.4 0 2.4-2.4v-33.808q0-2.4-2.4-2.4h-7.7425q-2.4 0-2.4 2.4z" clip-path="url(#a)" fill="#fff" stroke="#fff"/>
<g clip-path="url(#a)">
<g transform="translate(1148.8 652.1) rotate(90) scale(.08 -.08)">
<use xlink:href="#l"/>
<use x="44.083984" xlink:href="#d"/>
<use x="105.607422" xlink:href="#i"/>
<use x="144.970703" xlink:href="#k"/>
<use x="242.382812" xlink:href="#h"/>
<use x="270.166016" xlink:href="#j"/>
<use x="333.544922" xlink:href="#f"/>
<use x="394.824219" xlink:href="#g"/>
</g>
</g>
<path d="m1225.7 652.1v33.808q0 2.4 2.4 2.4h7.7425q2.4 0 2.4-2.4v-33.808q0-2.4-2.4-2.4h-7.7425q-2.4 0-2.4 2.4z" clip-path="url(#a)" fill="#fff" stroke="#fff"/>
<g clip-path="url(#a)">
<g transform="translate(1229.8 652.1) rotate(90) scale(.08 -.08)">
<use xlink:href="#l"/>
<use x="44.083984" xlink:href="#d"/>
<use x="105.607422" xlink:href="#i"/>
<use x="144.970703" xlink:href="#k"/>
<use x="242.382812" xlink:href="#h"/>
<use x="270.166016" xlink:href="#j"/>
<use x="333.544922" xlink:href="#f"/>
<use x="394.824219" xlink:href="#g"/>
</g>
</g>
<path d="m1309.5 652.1v33.808q0 2.4 2.4 2.4h7.7425q2.4 0 2.4-2.4v-33.808q0-2.4-2.4-2.4h-7.7425q-2.4 0-2.4 2.4z" clip-path="url(#a)" fill="#fff" stroke="#fff"/>
<g clip-path="url(#a)">
<g transform="translate(1313.6 652.1) rotate(90) scale(.08 -.08)">
<use xlink:href="#l"/>
<use x="44.083984" xlink:href="#d"/>
<use x="105.607422" xlink:href="#i"/>
<use x="144.970703" xlink:href="#k"/>
<use x="242.382812" xlink:href="#h"/>
<use x="270.166016" xlink:href="#j"/>
<use x="333.544922" xlink:href="#f"/>
<use x="394.824219" xlink:href="#g"/>
</g>
</g>
<path d="m601.18 652.1v33.808q0 2.4 2.4 2.4h7.7425q2.4 0 2.4-2.4v-33.808q0-2.4-2.4-2.4h-7.7425q-2.4 0-2.4 2.4z" clip-path="url(#a)" fill="#fff" stroke="#fff"/>
<g clip-path="url(#a)">
<g transform="translate(605.24 652.1) rotate(90) scale(.08 -.08)">
<use xlink:href="#l"/>
<use x="44.083984" xlink:href="#d"/>
<use x="105.607422" xlink:href="#i"/>
<use x="144.970703" xlink:href="#k"/>
<use x="242.382812" xlink:href="#h"/>
<use x="270.166016" xlink:href="#j"/>
<use x="333.544922" xlink:href="#f"/>
<use x="394.824219" xlink:href="#g"/>
</g>
</g>
<path d="m659.01 652.1v33.808q0 2.4 2.4 2.4h7.7425q2.4 0 2.4-2.4v-33.808q0-2.4-2.4-2.4h-7.7425q-2.4 0-2.4 2.4z" clip-path="url(#a)" fill="#fff" stroke="#fff"/>
<g clip-path="url(#a)">
<g transform="translate(663.07 652.1) rotate(90) scale(.08 -.08)">
<use xlink:href="#l"/>
<use x="44.083984" xlink:href="#d"/>
<use x="105.607422" xlink:href="#i"/>
<use x="144.970703" xlink:href="#k"/>
<use x="242.382812" xlink:href="#h"/>
<use x="270.166016" xlink:href="#j"/>
<use x="333.544922" xlink:href="#f"/>
<use x="394.824219" xlink:href="#g"/>
</g>
</g>
<path d="m763.04 534.84 2.3385-5.0429q1.0096-2.1773-1.1676-3.1869l-7.024-3.2572q-2.1773-1.0096-3.1869 1.1676l-2.3385 5.0429q-1.0096 2.1773 1.1676 3.1869l7.024 3.2572q2.1773 1.0096 3.1869-1.1676z" clip-path="url(#a)" fill="#fff" stroke="#fff"/>
<g clip-path="url(#a)">
<g transform="translate(759.35 533.13) rotate(-65.122) scale(.08 -.08)">
<use xlink:href="#y"/>
</g>
</g>
<path d="m816.71 529.78 2.3501 5.0679q1.0096 2.1773 3.1869 1.1676l7.024-3.2572q2.1773-1.0096 1.1676-3.1869l-2.3501-5.0679q-1.0096-2.1773-3.1869-1.1676l-7.024 3.2572q-2.1773 1.0096-1.1676 3.1869z" clip-path="url(#a)" fill="#fff" stroke="#fff"/>
<g clip-path="url(#a)">
<g transform="translate(820.39 528.07) rotate(65.122) scale(.08 -.08)">
<use xlink:href="#p"/>
</g>
</g>
<path d="m783.33 652.1v33.808q0 2.4 2.4 2.4h7.7425q2.4 0 2.4-2.4v-33.808q0-2.4-2.4-2.4h-7.7425q-2.4 0-2.4 2.4z" clip-path="url(#a)" fill="#fff" stroke="#fff"/>
<g clip-path="url(#a)">
<g transform="translate(787.39 652.1) rotate(90) scale(.08 -.08)">
<use xlink:href="#l"/>
<use x="44.083984" xlink:href="#d"/>
<use x="105.607422" xlink:href="#i"/>
<use x="144.970703" xlink:href="#k"/>
<use x="242.382812" xlink:href="#h"/>
<use x="270.166016" xlink:href="#j"/>
<use x="333.544922" xlink:href="#f"/>
<use x="394.824219" xlink:href="#g"/>
</g>
</g>
<path d="m719.72 652.1v33.808q0 2.4 2.4 2.4h7.7425q2.4 0 2.4-2.4v-33.808q0-2.4-2.4-2.4h-7.7425q-2.4 0-2.4 2.4z" clip-path="url(#a)" fill="#fff" stroke="#fff"/>
<g clip-path="url(#a)">
<g transform="translate(723.79 652.1) rotate(90) scale(.08 -.08)">
<use xlink:href="#l"/>
<use x="44.083984" xlink:href="#d"/>
<use x="105.607422" xlink:href="#i"/>
<use x="144.970703" xlink:href="#k"/>
<use x="242.382812" xlink:href="#h"/>
<use x="270.166016" xlink:href="#j"/>
<use x="333.544922" xlink:href="#f"/>
<use x="394.824219" xlink:href="#g"/>
</g>
</g>
<path d="m849.83 652.1v33.808q0 2.4 2.4 2.4h7.7425q2.4 0 2.4-2.4v-33.808q0-2.4-2.4-2.4h-7.7425q-2.4 0-2.4 2.4z" clip-path="url(#a)" fill="#fff" stroke="#fff"/>
<g clip-path="url(#a)">
<g transform="translate(853.89 652.1) rotate(90) scale(.08 -.08)">
<use xlink:href="#l"/>
<use x="44.083984" xlink:href="#d"/>
<use x="105.607422" xlink:href="#i"/>
<use x="144.970703" xlink:href="#k"/>
<use x="242.382812" xlink:href="#h"/>
<use x="270.166016" xlink:href="#j"/>
<use x="333.544922" xlink:href="#f"/>
<use x="394.824219" xlink:href="#g"/>
</g>
</g>
<path d="m378.25 533.75 0.962-6.2236q0.36662-2.3718-2.0052-2.7385l-7.6516-1.1827q-2.3718-0.36662-2.7385 2.0052l-0.962 6.2236q-0.36662 2.3718 2.0052 2.7385l7.6516 1.1827q2.3718 0.36662 2.7385-2.0052z" clip-path="url(#a)" fill="#fff" stroke="#fff"/>
<g clip-path="url(#a)">
<g transform="translate(374.24 533.13) rotate(-81.213) scale(.08 -.08)">
<defs>
<path id="ai" d="m39.406 66.219q-10.75 0-17.078-8.0156-6.3125-8-6.3125-21.828 0-13.766 6.3125-21.781 6.3281-8 17.078-8 10.734 0 17.016 8 6.2812 8.0156 6.2812 21.781 0 13.828-6.2812 21.828-6.2812 8.0156-17.016 8.0156zm13.812-64.906 13-14.203h-11.922l-10.797 11.672q-1.6094-0.09375-2.4688-0.14062-0.84375-0.0625-1.625-0.0625-15.375 0-24.594 10.281-9.2031 10.281-9.2031 27.516 0 17.281 9.2031 27.562 9.2188 10.281 24.594 10.281 15.328 0 24.5-10.281 9.1875-10.281 9.1875-27.562 0-12.688-5.1094-21.734-5.0938-9.0312-14.766-13.328z"/>
</defs>
<use xlink:href="#ai"/>
</g>
</g>
<path d="m387.6 527.88 0.85335 5.5207q0.36662 2.3718 2.7385 2.0052l7.6516-1.1827q2.3718-0.36662 2.0052-2.7385l-0.85335-5.5207q-0.36662-2.3718-2.7385-2.0052l-7.6516 1.1827q-2.3718 0.36662-2.0052 2.7385z" clip-path="url(#a)" fill="#fff" stroke="#fff"/>
<g clip-path="url(#a)">
<g transform="translate(391.61 527.25) rotate(81.213) scale(.08 -.08)">
<use xlink:href="#p"/>
</g>
</g>
<path d="m469.31 533.5 0.95919-5.4754q0.41413-2.364-1.9499-2.7781l-7.6264-1.336q-2.364-0.41413-2.7781 1.9499l-0.95919 5.4754q-0.41413 2.364 1.9499 2.7781l7.6264 1.336q2.364 0.41413 2.7781-1.9499z" clip-path="url(#a)" fill="#fff" stroke="#fff"/>
<g clip-path="url(#a)">
<g transform="translate(465.31 532.8) rotate(-80.064) scale(.08 -.08)">
<use xlink:href="#y"/>
</g>
</g>
<path d="m481.53 528.01 0.96393 5.5025q0.41413 2.364 2.7781 1.9499l7.6264-1.336q2.364-0.41413 1.9499-2.7781l-0.96393-5.5025q-0.41413-2.364-2.7781-1.9499l-7.6264 1.336q-2.364 0.41413-1.9499 2.7781z" clip-path="url(#a)" fill="#fff" stroke="#fff"/>
<g clip-path="url(#a)">
<g transform="translate(485.53 527.31) rotate(80.064) scale(.08 -.08)">
<use xlink:href="#p"/>
</g>
</g>
<path d="m445.05 652.1v33.808q0 2.4 2.4 2.4h7.7425q2.4 0 2.4-2.4v-33.808q0-2.4-2.4-2.4h-7.7425q-2.4 0-2.4 2.4z" clip-path="url(#a)" fill="#fff" stroke="#fff"/>
<g clip-path="url(#a)">
<g transform="translate(449.12 652.1) rotate(90) scale(.08 -.08)">
<use xlink:href="#l"/>
<use x="44.083984" xlink:href="#d"/>
<use x="105.607422" xlink:href="#i"/>
<use x="144.970703" xlink:href="#k"/>
<use x="242.382812" xlink:href="#h"/>
<use x="270.166016" xlink:href="#j"/>
<use x="333.544922" xlink:href="#f"/>
<use x="394.824219" xlink:href="#g"/>
</g>
</g>
<path d="m494.2 652.1v33.808q0 2.4 2.4 2.4h7.7425q2.4 0 2.4-2.4v-33.808q0-2.4-2.4-2.4h-7.7425q-2.4 0-2.4 2.4z" clip-path="url(#a)" fill="#fff" stroke="#fff"/>
<g clip-path="url(#a)">
<g transform="translate(498.27 652.1) rotate(90) scale(.08 -.08)">
<use xlink:href="#l"/>
<use x="44.083984" xlink:href="#d"/>
<use x="105.607422" xlink:href="#i"/>
<use x="144.970703" xlink:href="#k"/>
<use x="242.382812" xlink:href="#h"/>
<use x="270.166016" xlink:href="#j"/>
<use x="333.544922" xlink:href="#f"/>
<use x="394.824219" xlink:href="#g"/>
</g>
</g>
<path d="m355.42 652.1v33.808q0 2.4 2.4 2.4h7.7425q2.4 0 2.4-2.4v-33.808q0-2.4-2.4-2.4h-7.7425q-2.4 0-2.4 2.4z" clip-path="url(#a)" fill="#fff" stroke="#fff"/>
<g clip-path="url(#a)">
<g transform="translate(359.49 652.1) rotate(90) scale(.08 -.08)">
<use xlink:href="#l"/>
<use x="44.083984" xlink:href="#d"/>
<use x="105.607422" xlink:href="#i"/>
<use x="144.970703" xlink:href="#k"/>
<use x="242.382812" xlink:href="#h"/>
<use x="270.166016" xlink:href="#j"/>
<use x="333.544922" xlink:href="#f"/>
<use x="394.824219" xlink:href="#g"/>
</g>
</g>
<path d="m398.79 652.1v33.808q0 2.4 2.4 2.4h7.7425q2.4 0 2.4-2.4v-33.808q0-2.4-2.4-2.4h-7.7425q-2.4 0-2.4 2.4z" clip-path="url(#a)" fill="#fff" stroke="#fff"/>
<g clip-path="url(#a)">
<g transform="translate(402.86 652.1) rotate(90) scale(.08 -.08)">
<use xlink:href="#l"/>
<use x="44.083984" xlink:href="#d"/>
<use x="105.607422" xlink:href="#i"/>
<use x="144.970703" xlink:href="#k"/>
<use x="242.382812" xlink:href="#h"/>
<use x="270.166016" xlink:href="#j"/>
<use x="333.544922" xlink:href="#f"/>
<use x="394.824219" xlink:href="#g"/>
</g>
</g>
<path d="m80.755 652.1v33.808q0 2.4 2.4 2.4h7.7425q2.4 0 2.4-2.4v-33.808q0-2.4-2.4-2.4h-7.7425q-2.4 0-2.4 2.4z" clip-path="url(#a)" fill="#fff" stroke="#fff"/>
<g clip-path="url(#a)">
<g transform="translate(84.819 652.1) rotate(90) scale(.08 -.08)">
<use xlink:href="#l"/>
<use x="44.083984" xlink:href="#d"/>
<use x="105.607422" xlink:href="#i"/>
<use x="144.970703" xlink:href="#k"/>
<use x="242.382812" xlink:href="#h"/>
<use x="270.166016" xlink:href="#j"/>
<use x="333.544922" xlink:href="#f"/>
<use x="394.824219" xlink:href="#g"/>
</g>
</g>
<path d="m95.212 652.1v33.808q0 2.4 2.4 2.4h7.7425q2.4 0 2.4-2.4v-33.808q0-2.4-2.4-2.4h-7.7425q-2.4 0-2.4 2.4z" clip-path="url(#a)" fill="#fff" stroke="#fff"/>
<g clip-path="url(#a)">
<g transform="translate(99.275 652.1) rotate(90) scale(.08 -.08)">
<use xlink:href="#l"/>
<use x="44.083984" xlink:href="#d"/>
<use x="105.607422" xlink:href="#i"/>
<use x="144.970703" xlink:href="#k"/>
<use x="242.382812" xlink:href="#h"/>
<use x="270.166016" xlink:href="#j"/>
<use x="333.544922" xlink:href="#f"/>
<use x="394.824219" xlink:href="#g"/>
</g>
</g>
<path d="m152.09 393.61 1.5438-6.1053q0.58835-2.3268-1.7384-2.9151l-7.5062-1.898q-2.3268-0.58835-2.9151 1.7384l-1.5438 6.1053q-0.58835 2.3268 1.7384 2.9151l7.5062 1.898q2.3268 0.58835 2.9151-1.7384z" clip-path="url(#a)" fill="#fff" stroke="#fff"/>
<g clip-path="url(#a)">
<g transform="translate(148.15 392.62) rotate(-75.81) scale(.08 -.08)">
<use xlink:href="#ai"/>
</g>
</g>
<path d="m169.65 462 0.047608-5.5585q0.020555-2.3999-2.3794-2.4205l-7.7422-0.066311q-2.3999-0.020555-2.4205 2.3794l-0.047608 5.5585q-0.020555 2.3999 2.3794 2.4205l7.7422 0.066311q2.3999 0.020555 2.4205-2.3794z" clip-path="url(#a)" fill="#fff" stroke="#fff"/>
<g clip-path="url(#a)">
<g transform="translate(165.59 461.96) rotate(-89.509) scale(.08 -.08)">
<use xlink:href="#y"/>
</g>
</g>
<path d="m177.05 457.24 0.74913 5.5358q0.32185 2.3783 2.7002 2.0565l7.6726-1.0383q2.3783-0.32185 2.0565-2.7002l-0.74913-5.5358q-0.32185-2.3783-2.7002-2.0565l-7.6726 1.0383q-2.3783 0.32185-2.0565 2.7002z" clip-path="url(#a)" fill="#fff" stroke="#fff"/>
<g clip-path="url(#a)">
<g transform="translate(181.08 456.69) rotate(82.293) scale(.08 -.08)">
<use xlink:href="#p"/>
</g>
</g>
<path d="m129.92 533.27 0.45309-6.2812q0.17267-2.3938-2.2211-2.5665l-7.7224-0.55705q-2.3938-0.17267-2.5665 2.2211l-0.45309 6.2812q-0.17267 2.3938 2.2211 2.5665l7.7224 0.55705q2.3938 0.17267 2.5665-2.2211z" clip-path="url(#a)" fill="#fff" stroke="#fff"/>
<g clip-path="url(#a)">
<g transform="translate(125.87 532.98) rotate(-85.874) scale(.08 -.08)">
<use xlink:href="#ai"/>
</g>
</g>
<path d="m127.55 527.34 0.40191 5.5718q0.17267 2.3938 2.5665 2.2211l7.7224-0.55705q2.3938-0.17267 2.2211-2.5665l-0.40191-5.5718q-0.17267-2.3938-2.5665-2.2211l-7.7224 0.55705q-2.3938 0.17267-2.2211 2.5665z" clip-path="url(#a)" fill="#fff" stroke="#fff"/>
<g clip-path="url(#a)">
<g transform="translate(131.61 527.05) rotate(85.874) scale(.08 -.08)">
<use xlink:href="#p"/>
</g>
</g>
<path d="m155.93 652.1v33.808q0 2.4 2.4 2.4h7.7425q2.4 0 2.4-2.4v-33.808q0-2.4-2.4-2.4h-7.7425q-2.4 0-2.4 2.4z" clip-path="url(#a)" fill="#fff" stroke="#fff"/>
<g clip-path="url(#a)">
<g transform="translate(159.99 652.1) rotate(90) scale(.08 -.08)">
<use xlink:href="#l"/>
<use x="44.083984" xlink:href="#d"/>
<use x="105.607422" xlink:href="#i"/>
<use x="144.970703" xlink:href="#k"/>
<use x="242.382812" xlink:href="#h"/>
<use x="270.166016" xlink:href="#j"/>
<use x="333.544922" xlink:href="#f"/>
<use x="394.824219" xlink:href="#g"/>
</g>
</g>
<path d="m199.93 686.47 3.5132-33.624q0.2494-2.387-2.1376-2.6364l-7.7006-0.80457q-2.387-0.2494-2.6364 2.1376l-3.5132 33.624q-0.2494 2.387 2.1376 2.6364l7.7006 0.80457q2.387 0.2494 2.6364-2.1376z" clip-path="url(#a)" fill="#fff" stroke="#fff"/>
<g clip-path="url(#a)">
<g transform="translate(195.89 686.04) rotate(-84.035) scale(.08 -.08)">
<use xlink:href="#l"/>
<use x="44.083984" xlink:href="#d"/>
<use x="105.607422" xlink:href="#i"/>
<use x="144.970703" xlink:href="#k"/>
<use x="242.382812" xlink:href="#h"/>
<use x="270.166016" xlink:href="#j"/>
<use x="333.544922" xlink:href="#f"/>
<use x="394.824219" xlink:href="#g"/>
</g>
</g>
<path d="m201.91 652.84 3.5132 33.624q0.2494 2.387 2.6364 2.1376l7.7006-0.80457q2.387-0.2494 2.1376-2.6364l-3.5132-33.624q-0.2494-2.387-2.6364-2.1376l-7.7006 0.80457q-2.387 0.2494-2.1376 2.6364z" clip-path="url(#a)" fill="#fff" stroke="#fff"/>
<g clip-path="url(#a)">
<g transform="translate(205.95 652.42) rotate(84.035) scale(.08 -.08)">
<use xlink:href="#l"/>
<use x="44.083984" xlink:href="#d"/>
<use x="105.607422" xlink:href="#i"/>
<use x="144.970703" xlink:href="#k"/>
<use x="242.382812" xlink:href="#h"/>
<use x="270.166016" xlink:href="#j"/>
<use x="333.544922" xlink:href="#f"/>
<use x="394.824219" xlink:href="#g"/>
</g>
</g>
<path d="m112.56 652.1v33.808q0 2.4 2.4 2.4h7.7425q2.4 0 2.4-2.4v-33.808q0-2.4-2.4-2.4h-7.7425q-2.4 0-2.4 2.4z" clip-path="url(#a)" fill="#fff" stroke="#fff"/>
<g clip-path="url(#a)">
<g transform="translate(116.62 652.1) rotate(90) scale(.08 -.08)">
<use xlink:href="#l"/>
<use x="44.083984" xlink:href="#d"/>
<use x="105.607422" xlink:href="#i"/>
<use x="144.970703" xlink:href="#k"/>
<use x="242.382812" xlink:href="#h"/>
<use x="270.166016" xlink:href="#j"/>
<use x="333.544922" xlink:href="#f"/>
<use x="394.824219" xlink:href="#g"/>
</g>
</g>
<path d="m132.8 652.1v33.808q0 2.4 2.4 2.4h7.7425q2.4 0 2.4-2.4v-33.808q0-2.4-2.4-2.4h-7.7425q-2.4 0-2.4 2.4z" clip-path="url(#a)" fill="#fff" stroke="#fff"/>
<g clip-path="url(#a)">
<g transform="translate(136.86 652.1) rotate(90) scale(.08 -.08)">
<use xlink:href="#l"/>
<use x="44.083984" xlink:href="#d"/>
<use x="105.607422" xlink:href="#i"/>
<use x="144.970703" xlink:href="#k"/>
<use x="242.382812" xlink:href="#h"/>
<use x="270.166016" xlink:href="#j"/>
<use x="333.544922" xlink:href="#f"/>
<use x="394.824219" xlink:href="#g"/>
</g>
</g>
<path d="m60.517 652.1v33.808q0 2.4 2.4 2.4h7.7425q2.4 0 2.4-2.4v-33.808q0-2.4-2.4-2.4h-7.7425q-2.4 0-2.4 2.4z" clip-path="url(#a)" fill="#fff" stroke="#fff"/>
<g clip-path="url(#a)">
<g transform="translate(64.58 652.1) rotate(90) scale(.08 -.08)">
<use xlink:href="#l"/>
<use x="44.083984" xlink:href="#d"/>
<use x="105.607422" xlink:href="#i"/>
<use x="144.970703" xlink:href="#k"/>
<use x="242.382812" xlink:href="#h"/>
<use x="270.166016" xlink:href="#j"/>
<use x="333.544922" xlink:href="#f"/>
<use x="394.824219" xlink:href="#g"/>
</g>
</g>
<path d="m69.19 652.1v33.808q0 2.4 2.4 2.4h7.7425q2.4 0 2.4-2.4v-33.808q0-2.4-2.4-2.4h-7.7425q-2.4 0-2.4 2.4z" clip-path="url(#a)" fill="#fff" stroke="#fff"/>
<g clip-path="url(#a)">
<g transform="translate(73.254 652.1) rotate(90) scale(.08 -.08)">
<use xlink:href="#l"/>
<use x="44.083984" xlink:href="#d"/>
<use x="105.607422" xlink:href="#i"/>
<use x="144.970703" xlink:href="#k"/>
<use x="242.382812" xlink:href="#h"/>
<use x="270.166016" xlink:href="#j"/>
<use x="333.544922" xlink:href="#f"/>
<use x="394.824219" xlink:href="#g"/>
</g>
</g>
<path d="m242.67 652.1v33.808q0 2.4 2.4 2.4h7.7425q2.4 0 2.4-2.4v-33.808q0-2.4-2.4-2.4h-7.7425q-2.4 0-2.4 2.4z" clip-path="url(#a)" fill="#fff" stroke="#fff"/>
<g clip-path="url(#a)">
<g transform="translate(246.73 652.1) rotate(90) scale(.08 -.08)">
<use xlink:href="#l"/>
<use x="44.083984" xlink:href="#d"/>
<use x="105.607422" xlink:href="#i"/>
<use x="144.970703" xlink:href="#k"/>
<use x="242.382812" xlink:href="#h"/>
<use x="270.166016" xlink:href="#j"/>
<use x="333.544922" xlink:href="#f"/>
<use x="394.824219" xlink:href="#g"/>
</g>
</g>
<path d="m919.22 652.1v33.808q0 2.4 2.4 2.4h7.7425q2.4 0 2.4-2.4v-33.808q0-2.4-2.4-2.4h-7.7425q-2.4 0-2.4 2.4z" clip-path="url(#a)" fill="#fff" stroke="#fff"/>
<g clip-path="url(#a)">
<g transform="translate(923.28 652.1) rotate(90) scale(.08 -.08)">
<use xlink:href="#l"/>
<use x="44.083984" xlink:href="#d"/>
<use x="105.607422" xlink:href="#i"/>
<use x="144.970703" xlink:href="#k"/>
<use x="242.382812" xlink:href="#h"/>
<use x="270.166016" xlink:href="#j"/>
<use x="333.544922" xlink:href="#f"/>
<use x="394.824219" xlink:href="#g"/>
</g>
</g>
<path d="m1396.3 652.1v33.808q0 2.4 2.4 2.4h7.7425q2.4 0 2.4-2.4v-33.808q0-2.4-2.4-2.4h-7.7425q-2.4 0-2.4 2.4z" clip-path="url(#a)" fill="#fff" stroke="#fff"/>
<g clip-path="url(#a)">
<g transform="translate(1400.3 652.1) rotate(90) scale(.08 -.08)">
<use xlink:href="#l"/>
<use x="44.083984" xlink:href="#d"/>
<use x="105.607422" xlink:href="#i"/>
<use x="144.970703" xlink:href="#k"/>
<use x="242.382812" xlink:href="#h"/>
<use x="270.166016" xlink:href="#j"/>
<use x="333.544922" xlink:href="#f"/>
<use x="394.824219" xlink:href="#g"/>
</g>
</g>
<defs>
<path id="b" d="m0 8.6603c2.2967 0 4.4997-0.9125 6.1237-2.5365 1.624-1.624 2.5365-3.827 2.5365-6.1237s-0.9125-4.4997-2.5365-6.1237c-1.624-1.624-3.827-2.5365-6.1237-2.5365s-4.4997 0.9125-6.1237 2.5365c-1.624 1.624-2.5365 3.827-2.5365 6.1237s0.9125 4.4997 2.5365 6.1237c1.624 1.624 3.827 2.5365 6.1237 2.5365z"/>
</defs>
<g clip-path="url(#a)" fill="#ffffff" stroke="#ffffff">
<use x="66.787879" y="738.181818" xlink:href="#b"/>
<use x="75.461629" y="738.181818" xlink:href="#b"/>
<use x="87.02663" y="738.181818" xlink:href="#b"/>
<use x="101.482881" y="738.181818" xlink:href="#b"/>
<use x="118.830382" y="738.181818" xlink:href="#b"/>
<use x="139.069133" y="738.181818" xlink:href="#b"/>
<use x="162.199134" y="738.181818" xlink:href="#b"/>
<use x="188.220386" y="738.181818" xlink:href="#b"/>
<use x="217.132887" y="738.181818" xlink:href="#b"/>
<use x="248.936639" y="738.181818" xlink:href="#b"/>
<use x="283.631641" y="738.181818" xlink:href="#b"/>
<use x="321.217893" y="738.181818" xlink:href="#b"/>
<use x="361.695396" y="738.181818" xlink:href="#b"/>
<use x="405.064148" y="738.181818" xlink:href="#b"/>
<use x="451.324151" y="738.181818" xlink:href="#b"/>
<use x="500.475403" y="738.181818" xlink:href="#b"/>
<use x="552.517906" y="738.181818" xlink:href="#b"/>
<use x="607.451659" y="738.181818" xlink:href="#b"/>
<use x="665.276663" y="738.181818" xlink:href="#b"/>
<use x="725.992916" y="738.181818" xlink:href="#b"/>
<use x="789.60042" y="738.181818" xlink:href="#b"/>
<use x="856.099174" y="738.181818" xlink:href="#b"/>
<use x="925.489177" y="738.181818" xlink:href="#b"/>
<use x="997.770432" y="738.181818" xlink:href="#b"/>
<use x="1072.942936" y="738.181818" xlink:href="#b"/>
<use x="1151.00669" y="738.181818" xlink:href="#b"/>
<use x="1231.961695" y="738.181818" xlink:href="#b"/>
<use x="1315.80795" y="738.181818" xlink:href="#b"/>
<use x="1402.545455" y="738.181818" xlink:href="#b"/>
<use x="473.638177" y="35.151515" xlink:href="#b"/>
<use x="71.124754" y="459.534648" xlink:href="#b"/>
<use x="117.706007" y="177.01119" xlink:href="#b"/>
<use x="283.631641" y="599.820612" xlink:href="#b"/>
<use x="321.217893" y="599.820612" xlink:href="#b"/>
<use x="429.639774" y="318.512898" xlink:href="#b"/>
<use x="552.517906" y="599.820612" xlink:href="#b"/>
<use x="670.770038" y="318.512898" xlink:href="#b"/>
<use x="1115.347938" y="318.512898" xlink:href="#b"/>
<use x="997.770432" y="599.820612" xlink:href="#b"/>
<use x="1072.942936" y="599.820612" xlink:href="#b"/>
<use x="1275.330447" y="459.534648" xlink:href="#b"/>
<use x="1151.00669" y="599.820612" xlink:href="#b"/>
<use x="1231.961695" y="599.820612" xlink:href="#b"/>
<use x="1315.80795" y="599.820612" xlink:href="#b"/>
<use x="607.451659" y="599.820612" xlink:href="#b"/>
<use x="665.276663" y="599.820612" xlink:href="#b"/>
<use x="791.046045" y="459.534648" xlink:href="#b"/>
<use x="789.60042" y="599.820612" xlink:href="#b"/>
<use x="725.992916" y="599.820612" xlink:href="#b"/>
<use x="856.099174" y="599.820612" xlink:href="#b"/>
<use x="383.379772" y="459.534648" xlink:href="#b"/>
<use x="475.899777" y="459.534648" xlink:href="#b"/>
<use x="451.324151" y="599.820612" xlink:href="#b"/>
<use x="500.475403" y="599.820612" xlink:href="#b"/>
<use x="361.695396" y="599.820612" xlink:href="#b"/>
<use x="405.064148" y="599.820612" xlink:href="#b"/>
<use x="87.02663" y="599.820612" xlink:href="#b"/>
<use x="101.482881" y="599.820612" xlink:href="#b"/>
<use x="164.608509" y="318.512898" xlink:href="#b"/>
<use x="128.949757" y="459.534648" xlink:href="#b"/>
<use x="162.199134" y="599.820612" xlink:href="#b"/>
<use x="202.676636" y="599.820612" xlink:href="#b"/>
<use x="118.830382" y="599.820612" xlink:href="#b"/>
<use x="139.069133" y="599.820612" xlink:href="#b"/>
<use x="66.787879" y="599.820612" xlink:href="#b"/>
<use x="75.461629" y="599.820612" xlink:href="#b"/>
<use x="248.936639" y="599.820612" xlink:href="#b"/>
<use x="925.489177" y="599.820612" xlink:href="#b"/>
<use x="1402.545455" y="599.820612" xlink:href="#b"/>
</g>
<g clip-path="url(#a)">
<g transform="translate(60.398 740.94) scale(.1 -.1)">
<defs>
<path id="ar" d="m19.672 34.812v-26.703h15.828q7.9531 0 11.781 3.2969 3.8438 3.2969 3.8438 10.078 0 6.8438-3.8438 10.078-3.8281 3.25-11.781 3.25zm0 29.984v-21.969h14.609q7.2188 0 10.75 2.7031 3.5469 2.7188 3.5469 8.2812 0 5.5156-3.5469 8.25-3.5312 2.7344-10.75 2.7344zm-9.8594 8.1094h25.203q11.281 0 17.375-4.6875 6.1094-4.6875 6.1094-13.328 0-6.7031-3.125-10.656t-9.1875-4.9219q7.2812-1.5625 11.312-6.5312 4.0312-4.9531 4.0312-12.375 0-9.7656-6.6406-15.094-6.6406-5.3125-18.906-5.3125h-26.172z"/>
<path id="s" d="m32.172-5.0781q-3.7969-9.7656-7.4219-12.734-3.6094-2.9844-9.6562-2.9844h-7.1875v7.5156h5.2812q3.7031 0 5.75 1.7656 2.0625 1.75 4.5469 8.2969l1.6094 4.0938-22.109 53.812h9.5156l17.094-42.766 17.094 42.766h9.5156z"/>
</defs>
<use xlink:href="#ar"/>
<use x="68.603516" xlink:href="#s"/>
</g>
</g>
<g clip-path="url(#a)">
<g transform="translate(64.087 740.94) scale(.1 -.1)">
<defs>
<path id="o" d="m18.312 70.219v-15.531h18.5v-6.9844h-18.5v-29.688q0-6.6875 1.8281-8.5938t7.4531-1.9062h9.2188v-7.5156h-9.2188q-10.406 0-14.359 3.875-3.9531 3.8906-3.9531 14.141v29.688h-6.5938v6.9844h6.5938v15.531z"/>
<path id="x" d="m54.891 33.016v-33.016h-8.9844v32.719q0 7.7656-3.0312 11.609-3.0312 3.8594-9.0781 3.8594-7.2812 0-11.484-4.6406-4.2031-4.625-4.2031-12.641v-30.906h-9.0312v75.984h9.0312v-29.797q3.2344 4.9375 7.5938 7.375 4.375 2.4375 10.094 2.4375 9.4219 0 14.25-5.8281 4.8438-5.8281 4.8438-17.156z"/>
</defs>
<use xlink:href="#o"/>
<use x="39.208984" xlink:href="#x"/>
<use x="102.587891" xlink:href="#d"/>
<use x="164.111328" xlink:href="#j"/>
</g>
</g>
<g clip-path="url(#a)">
<g transform="translate(83.677 740.94) scale(.1 -.1)">
<use xlink:href="#h"/>
<use x="27.783203" xlink:href="#o"/>
</g>
</g>
<g clip-path="url(#a)">
<g transform="translate(94.07 740.94) scale(.1 -.1)">
<use xlink:href="#g"/>
<use x="27.783203" xlink:href="#f"/>
<use x="89.0625" xlink:href="#s"/>
</g>
</g>
<g clip-path="url(#a)">
<g transform="translate(109.29 740.94) scale(.1 -.1)">
<defs>
<path id="m" d="m40.578 39.312q7.0781-1.5156 11.047-6.3125 3.9844-4.7812 3.9844-11.812 0-10.781-7.4219-16.703-7.4219-5.9062-21.094-5.9062-4.5781 0-9.4375 0.90625t-10.031 2.7188v9.5156q4.0938-2.3906 8.9688-3.6094 4.8906-1.2188 10.219-1.2188 9.2656 0 14.125 3.6562t4.8594 10.641q0 6.4531-4.5156 10.078-4.5156 3.6406-12.562 3.6406h-8.5v8.1094h8.8906q7.2656 0 11.125 2.9062t3.8594 8.375q0 5.6094-3.9844 8.6094-3.9688 3.0156-11.391 3.0156-4.0625 0-8.7031-0.89062-4.6406-0.875-10.203-2.7188v8.7812q5.625 1.5625 10.531 2.3438t9.25 0.78125q11.234 0 17.766-5.1094 6.5469-5.0938 6.5469-13.781 0-6.0625-3.4688-10.234t-9.8594-5.7812z"/>
<path id="w" d="m31.781 66.406q-7.6094 0-11.453-7.5-3.8281-7.4844-3.8281-22.531 0-14.984 3.8281-22.484 3.8438-7.5 11.453-7.5 7.6719 0 11.5 7.5 3.8438 7.5 3.8438 22.484 0 15.047-3.8438 22.531-3.8281 7.5-11.5 7.5zm0 7.8125q12.266 0 18.734-9.7031 6.4688-9.6875 6.4688-28.141 0-18.406-6.4688-28.109-6.4688-9.6875-18.734-9.6875-12.25 0-18.719 9.6875-6.4688 9.7031-6.4688 28.109 0 18.453 6.4688 28.141 6.4688 9.7031 18.719 9.7031z"/>
</defs>
<use xlink:href="#m"/>
<use x="63.623047" xlink:href="#w"/>
<use x="127.246094" xlink:href="#w"/>
</g>
</g>
<g clip-path="url(#a)">
<g transform="translate(125.74 740.94) scale(.1 -.1)">
<defs>
<path id="ak" d="m44.281 53.078v-8.5q-3.7969 1.9531-7.9062 2.9219-4.0938 0.98438-8.5 0.98438-6.6875 0-10.031-2.0469t-3.3438-6.1562q0-3.125 2.3906-4.9062t9.625-3.3906l3.0781-0.6875q9.5625-2.0469 13.594-5.7812t4.0312-10.422q0-7.625-6.0312-12.078-6.0312-4.4375-16.578-4.4375-4.3906 0-9.1562 0.85938t-10.031 2.5625v9.2812q4.9844-2.5938 9.8125-3.8906 4.8281-1.2812 9.5781-1.2812 6.3438 0 9.75 2.1719 3.4219 2.1719 3.4219 6.125 0 3.6562-2.4688 5.6094-2.4531 1.9531-10.812 3.7656l-3.125 0.73438q-8.3438 1.75-12.062 5.3906-3.7031 3.6406-3.7031 9.9844 0 7.7188 5.4688 11.906 5.4688 4.2031 15.531 4.2031 4.9688 0 9.3594-0.73438 4.4062-0.71875 8.1094-2.1875z"/>
</defs>
<use xlink:href="#k"/>
<use x="97.412109" xlink:href="#h"/>
<use x="125.195312" xlink:href="#g"/>
<use x="152.978516" xlink:href="#d"/>
<use x="214.501953" xlink:href="#ak"/>
</g>
</g>
<g clip-path="url(#a)">
<g transform="translate(150.57 740.94) scale(.1 -.1)">
<defs>
<path id="ae" d="m37.109 75.984v-7.4844h-8.5938q-4.8281 0-6.7188-1.9531-1.875-1.9531-1.875-7.0312v-4.8281h14.797v-6.9844h-14.797v-47.703h-9.0312v47.703h-8.5938v6.9844h8.5938v3.8125q0 9.125 4.25 13.297 4.25 4.1875 13.469 4.1875z"/>
<path id="t" d="m30.609 48.391q-7.2188 0-11.422-5.6406t-4.2031-15.453 4.1719-15.453q4.1875-5.6406 11.453-5.6406 7.1875 0 11.375 5.6562 4.2031 5.6719 4.2031 15.438 0 9.7188-4.2031 15.406-4.1875 5.6875-11.375 5.6875zm0 7.6094q11.719 0 18.406-7.625 6.7031-7.6094 6.7031-21.078 0-13.422-6.7031-21.078-6.6875-7.6406-18.406-7.6406-11.766 0-18.438 7.6406-6.6562 7.6562-6.6562 21.078 0 13.469 6.6562 21.078 6.6719 7.625 18.438 7.625z"/>
</defs>
<use xlink:href="#ae"/>
<use x="35.205078" xlink:href="#i"/>
<use x="74.068359" xlink:href="#t"/>
<use x="135.25" xlink:href="#k"/>
</g>
</g>
<g clip-path="url(#a)">
<g transform="translate(175.41 740.94) scale(.1 -.1)">
<defs>
<path id="al" d="m18.109 8.2031v-29h-9.0312v75.484h9.0312v-8.2969q2.8438 4.875 7.1562 7.2344 4.3281 2.375 10.328 2.375 9.9688 0 16.188-7.9062 6.2344-7.9062 6.2344-20.797t-6.2344-20.812q-6.2188-7.9062-16.188-7.9062-6 0-10.328 2.375-4.3125 2.375-7.1562 7.25zm30.578 19.094q0 9.9062-4.0781 15.547t-11.203 5.6406q-7.1406 0-11.219-5.6406t-4.0781-15.547 4.0781-15.547 11.219-5.6406q7.125 0 11.203 5.6406t4.0781 15.547z"/>
</defs>
<use xlink:href="#p"/>
<use x="69.824219" xlink:href="#f"/>
<use x="131.103516" xlink:href="#al"/>
<use x="194.580078" xlink:href="#d"/>
</g>
</g>
<g clip-path="url(#a)">
<g transform="translate(204.06 740.94) scale(.1 -.1)">
<use xlink:href="#p"/>
<use x="69.824219" xlink:href="#g"/>
<use x="97.607422" xlink:href="#d"/>
<use x="159.130859" xlink:href="#f"/>
<use x="220.410156" xlink:href="#i"/>
</g>
</g>
<g clip-path="url(#a)">
<g transform="translate(247.35 740.94) scale(.1 -.1)">
<defs>
<path id="an" d="m11.719 12.406h10.297v-8.4062l-8-15.625h-6.2969l4 15.625z"/>
</defs>
<use xlink:href="#an"/>
</g>
</g>
<g clip-path="url(#a)">
<g transform="translate(274.22 740.94) scale(.1 -.1)">
<defs>
<path id="u" d="m45.406 46.391v29.594h8.9844v-75.984h-8.9844v8.2031q-2.8281-4.875-7.1562-7.25-4.3125-2.375-10.375-2.375-9.9062 0-16.141 7.9062-6.2188 7.9219-6.2188 20.812t6.2188 20.797q6.2344 7.9062 16.141 7.9062 6.0625 0 10.375-2.375 4.3281-2.3594 7.1562-7.2344zm-30.609-19.094q0-9.9062 4.0781-15.547t11.203-5.6406 11.219 5.6406q4.1094 5.6406 4.1094 15.547t-4.1094 15.547q-4.0938 5.6406-11.219 5.6406t-11.203-5.6406-4.0781-15.547z"/>
</defs>
<use xlink:href="#f"/>
<use x="61.279297" xlink:href="#j"/>
<use x="124.658203" xlink:href="#u"/>
</g>
</g>
<g clip-path="url(#a)">
<g transform="translate(309.39 740.94) scale(.1 -.1)">
<use xlink:href="#f"/>
<use x="61.279297" xlink:href="#ae"/>
<use x="94.734375" xlink:href="#o"/>
<use x="133.943359" xlink:href="#d"/>
<use x="195.466797" xlink:href="#i"/>
</g>
</g>
<g clip-path="url(#a)">
<g transform="translate(348.47 740.94) scale(.1 -.1)">
<use xlink:href="#o"/>
<use x="39.208984" xlink:href="#x"/>
<use x="102.587891" xlink:href="#i"/>
<use x="141.451172" xlink:href="#d"/>
<use x="202.974609" xlink:href="#d"/>
</g>
</g>
<g clip-path="url(#a)">
<g transform="translate(393.26 740.94) scale(.1 -.1)">
<use xlink:href="#u"/>
<use x="63.476562" xlink:href="#f"/>
<use x="124.755859" xlink:href="#s"/>
<use x="183.935547" xlink:href="#ak"/>
</g>
</g>
<g clip-path="url(#a)">
<g transform="translate(446.5 740.94) scale(.1 -.1)">
<use xlink:href="#t"/>
<use x="61.181641" xlink:href="#ae"/>
</g>
</g>
<g clip-path="url(#a)">
<g transform="translate(486.81 740.94) scale(.1 -.1)">
<use xlink:href="#u"/>
<use x="63.476562" xlink:href="#d"/>
<use x="125" xlink:href="#g"/>
<use x="152.783203" xlink:href="#f"/>
<use x="214.0625" xlink:href="#s"/>
</g>
</g>
<g clip-path="url(#a)">
<g transform="translate(542.36 740.94) scale(.1 -.1)">
<use xlink:href="#o"/>
<use x="39.208984" xlink:href="#x"/>
<use x="102.587891" xlink:href="#f"/>
<use x="163.867188" xlink:href="#o"/>
</g>
</g>
<g clip-path="url(#a)">
<g transform="translate(595.27 740.94) scale(.1 -.1)">
<use xlink:href="#ae"/>
<use x="35.205078" xlink:href="#h"/>
<use x="62.988281" xlink:href="#g"/>
<use x="90.771484" xlink:href="#g"/>
<use x="118.554688" xlink:href="#d"/>
<use x="180.078125" xlink:href="#u"/>
</g>
</g>
<g clip-path="url(#a)">
<g transform="translate(642.33 740.94) scale(.1 -.1)">
<defs>
<path id="au" d="m2.9844 54.688h9.5156l17.094-45.891 17.094 45.891h9.5156l-20.516-54.688h-12.203z"/>
</defs>
<use xlink:href="#v"/>
<use x="55.712891" xlink:href="#h"/>
<use x="83.496094" xlink:href="#au"/>
<use x="142.675781" xlink:href="#d"/>
<use x="204.199219" xlink:href="#i"/>
<use x="245.3125" xlink:href="#al"/>
<use x="308.789062" xlink:href="#t"/>
<use x="369.970703" xlink:href="#t"/>
<use x="431.152344" xlink:href="#g"/>
</g>
</g>
<g clip-path="url(#a)">
<g transform="translate(715.39 740.94) scale(.1 -.1)">
<defs>
<path id="at" d="m4.2031 54.688h8.9844l11.234-42.672 11.172 42.672h10.594l11.234-42.672 11.188 42.672h8.9844l-14.312-54.688h-10.594l-11.766 44.828-11.812-44.828h-10.609z"/>
</defs>
<use xlink:href="#at"/>
<use x="81.787109" xlink:href="#h"/>
<use x="109.570312" xlink:href="#o"/>
<use x="148.779297" xlink:href="#x"/>
</g>
</g>
<g clip-path="url(#a)">
<g transform="translate(775.58 740.94) scale(.1 -.1)">
<defs>
<path id="af" d="m48.781 52.594v-8.4062q-3.8125 2.1094-7.6406 3.1562t-7.7344 1.0469q-8.75 0-13.594-5.5469-4.8281-5.5312-4.8281-15.547t4.8281-15.562q4.8438-5.5312 13.594-5.5312 3.9062 0 7.7344 1.0469t7.6406 3.1562v-8.3125q-3.7656-1.75-7.7969-2.625-4.0156-0.89062-8.5625-0.89062-12.359 0-19.641 7.7656-7.2656 7.7656-7.2656 20.953 0 13.375 7.3438 21.031 7.3594 7.6719 20.156 7.6719 4.1406 0 8.0938-0.85938 3.9531-0.84375 7.6719-2.5469z"/>
<path id="av" d="m8.5 21.578v33.109h8.9844v-32.766q0-7.7656 3.0156-11.656 3.0312-3.875 9.0938-3.875 7.2656 0 11.484 4.6406 4.2344 4.6406 4.2344 12.656v31h8.9844v-54.688h-8.9844v8.4062q-3.2656-4.9844-7.5938-7.4062-4.3125-2.4219-10.031-2.4219-9.4219 0-14.312 5.8594-4.875 5.8594-4.875 17.141z"/>
</defs>
<use xlink:href="#f"/>
<use x="61.279297" xlink:href="#af"/>
<use x="116.259766" xlink:href="#av"/>
<use x="179.638672" xlink:href="#o"/>
<use x="218.847656" xlink:href="#d"/>
</g>
</g>
<g clip-path="url(#a)">
<g transform="translate(837.52 740.94) scale(.1 -.1)">
<defs>
<path id="as" d="m54.891 54.688-19.781-26.609 20.797-28.078h-10.594l-15.922 21.484-15.906-21.484h-10.609l21.25 28.609-19.438 26.078h10.594l14.5-19.484 14.5 19.484z"/>
</defs>
<use xlink:href="#f"/>
<use x="61.279297" xlink:href="#j"/>
<use x="124.658203" xlink:href="#as"/>
<use x="183.837891" xlink:href="#h"/>
<use x="211.621094" xlink:href="#d"/>
<use x="273.144531" xlink:href="#o"/>
<use x="312.353516" xlink:href="#s"/>
</g>
</g>
<g clip-path="url(#a)">
<g transform="translate(923.9 740.94) scale(.1 -.1)">
<use xlink:href="#an"/>
</g>
</g>
<g clip-path="url(#a)">
<g transform="translate(994.42 740.94) scale(.1 -.1)">
<use xlink:href="#h"/>
<use x="27.783203" xlink:href="#o"/>
</g>
</g>
<g clip-path="url(#a)">
<g transform="translate(1053.5 740.94) scale(.1 -.1)">
<use xlink:href="#d"/>
<use x="61.523438" xlink:href="#j"/>
<use x="124.902344" xlink:href="#o"/>
<use x="164.111328" xlink:href="#d"/>
<use x="225.634766" xlink:href="#i"/>
<use x="264.498047" xlink:href="#d"/>
<use x="326.021484" xlink:href="#u"/>
</g>
</g>
<g clip-path="url(#a)">
<g transform="translate(1142.8 740.94) scale(.1 -.1)">
<use xlink:href="#o"/>
<use x="39.208984" xlink:href="#x"/>
<use x="102.587891" xlink:href="#d"/>
</g>
</g>
<g clip-path="url(#a)">
<g transform="translate(1208.9 740.94) scale(.1 -.1)">
<use xlink:href="#af"/>
<use x="54.980469" xlink:href="#t"/>
<use x="116.162109" xlink:href="#k"/>
<use x="213.574219" xlink:href="#al"/>
<use x="277.050781" xlink:href="#f"/>
<use x="338.330078" xlink:href="#j"/>
<use x="401.708984" xlink:href="#s"/>
</g>
</g>
<g clip-path="url(#a)">
<g transform="translate(1301.3 740.94) scale(.1 -.1)">
<defs>
<path id="aw" d="m9.0781 75.984h9.0312v-44.875l26.812 23.578h11.469l-29-25.578 30.234-29.109h-11.719l-27.797 26.703v-26.703h-9.0312z"/>
</defs>
<use xlink:href="#u"/>
<use x="63.476562" xlink:href="#t"/>
<use x="124.658203" xlink:href="#af"/>
<use x="179.638672" xlink:href="#aw"/>
<use x="237.548828" xlink:href="#ak"/>
</g>
</g>
<g clip-path="url(#a)">
<g transform="translate(1401 740.94) scale(.1 -.1)">
<defs>
<path id="e" d="m10.688 12.406h10.312v-12.406h-10.312z"/>
</defs>
<use xlink:href="#e"/>
</g>
</g>
<g clip-path="url(#a)">
<g transform="translate(465.69 37.911) scale(.1 -.1)">
<defs>
<path id="c" d="m12.406 8.2969h16.109v55.625l-17.531-3.5156v8.9844l17.438 3.5156h9.8594v-64.609h16.109v-8.2969h-41.984z"/>
</defs>
<use xlink:href="#c"/>
<use x="63.623047" xlink:href="#e"/>
<use x="95.410156" xlink:href="#c"/>
</g>
</g>
<g clip-path="url(#a)">
<g transform="translate(63.173 462.29) scale(.1 -.1)">
<defs>
<path id="n" d="m19.188 8.2969h34.422v-8.2969h-46.281v8.2969q5.6094 5.8125 15.297 15.594 9.7031 9.7969 12.188 12.641 4.7344 5.3125 6.6094 9 1.8906 3.6875 1.8906 7.25 0 5.8125-4.0781 9.4688-4.0781 3.6719-10.625 3.6719-4.6406 0-9.7969-1.6094-5.1406-1.6094-11-4.8906v9.9688q5.9531 2.3906 11.125 3.6094 5.1875 1.2188 9.4844 1.2188 11.328 0 18.062-5.6719 6.7344-5.6562 6.7344-15.125 0-4.5-1.6875-8.5312-1.6719-4.0156-6.125-9.4844-1.2188-1.4219-7.7656-8.1875-6.5312-6.7656-18.453-18.922z"/>
</defs>
<use xlink:href="#c"/>
<use x="63.623047" xlink:href="#e"/>
<use x="95.410156" xlink:href="#n"/>
</g>
</g>
<g clip-path="url(#a)">
<g transform="translate(109.75 179.77) scale(.1 -.1)">
<use xlink:href="#c"/>
<use x="63.623047" xlink:href="#e"/>
<use x="95.410156" xlink:href="#m"/>
</g>
</g>
<g clip-path="url(#a)">
<g transform="translate(275.68 602.58) scale(.1 -.1)">
<defs>
<path id="q" d="m37.797 64.312-24.906-38.922h24.906zm-2.5938 8.5938h12.406v-47.516h10.406v-8.2031h-10.406v-17.188h-9.8125v17.188h-32.906v9.5156z"/>
</defs>
<use xlink:href="#c"/>
<use x="63.623047" xlink:href="#e"/>
<use x="95.410156" xlink:href="#q"/>
</g>
</g>
<g clip-path="url(#a)">
<g transform="translate(313.27 602.58) scale(.1 -.1)">
<defs>
<path id="ad" d="m10.797 72.906h38.719v-8.3125h-29.688v-17.859q2.1406 0.73438 4.2812 1.0938 2.1562 0.35938 4.3125 0.35938 12.203 0 19.328-6.6875 7.1406-6.6875 7.1406-18.109 0-11.766-7.3281-18.297-7.3281-6.5156-20.656-6.5156-4.5938 0-9.3594 0.78125-4.75 0.78125-9.8281 2.3438v9.9219q4.3906-2.3906 9.0781-3.5625t9.9062-1.1719q8.4531 0 13.375 4.4375 4.9375 4.4375 4.9375 12.062 0 7.6094-4.9375 12.047-4.9219 4.4531-13.375 4.4531-3.9531 0-7.8906-0.875-3.9219-0.875-8.0156-2.7344z"/>
</defs>
<use xlink:href="#c"/>
<use x="63.623047" xlink:href="#e"/>
<use x="95.410156" xlink:href="#ad"/>
</g>
</g>
<g clip-path="url(#a)">
<g transform="translate(421.69 321.27) scale(.1 -.1)">
<defs>
<path id="ac" d="m33.016 40.375q-6.6406 0-10.531-4.5469-3.875-4.5312-3.875-12.438 0-7.8594 3.875-12.438 3.8906-4.5625 10.531-4.5625t10.516 4.5625q3.875 4.5781 3.875 12.438 0 7.9062-3.875 12.438-3.875 4.5469-10.516 4.5469zm19.578 30.922v-8.9844q-3.7188 1.75-7.5 2.6719-3.7812 0.9375-7.5 0.9375-9.7656 0-14.922-6.5938-5.1406-6.5938-5.875-19.922 2.875 4.25 7.2188 6.5156 4.3594 2.2656 9.5781 2.2656 10.984 0 17.359-6.6719 6.375-6.6562 6.375-18.125 0-11.234-6.6406-18.031-6.6406-6.7812-17.672-6.7812-12.656 0-19.344 9.6875-6.6875 9.7031-6.6875 28.109 0 17.281 8.2031 27.562t22.016 10.281q3.7188 0 7.5-0.73438t7.8906-2.1875z"/>
</defs>
<use xlink:href="#c"/>
<use x="63.623047" xlink:href="#e"/>
<use x="95.410156" xlink:href="#ac"/>
</g>
</g>
<g clip-path="url(#a)">
<g transform="translate(544.57 602.58) scale(.1 -.1)">
<defs>
<path id="ab" d="m8.2031 72.906h46.875v-4.2031l-26.469-68.703h-10.297l24.906 64.594h-35.016z"/>
</defs>
<use xlink:href="#c"/>
<use x="63.623047" xlink:href="#e"/>
<use x="95.410156" xlink:href="#ab"/>
</g>
</g>
<g clip-path="url(#a)">
<g transform="translate(662.82 321.27) scale(.1 -.1)">
<defs>
<path id="aj" d="m31.781 34.625q-7.0312 0-11.062-3.7656-4.0156-3.7656-4.0156-10.344 0-6.5938 4.0156-10.359 4.0312-3.7656 11.062-3.7656t11.078 3.7812q4.0625 3.7969 4.0625 10.344 0 6.5781-4.0312 10.344-4.0156 3.7656-11.109 3.7656zm-9.8594 4.1875q-6.3438 1.5625-9.8906 5.9062-3.5312 4.3594-3.5312 10.609 0 8.7344 6.2188 13.812 6.2344 5.0781 17.062 5.0781 10.891 0 17.094-5.0781t6.2031-13.812q0-6.25-3.5469-10.609-3.5312-4.3438-9.8281-5.9062 7.125-1.6562 11.094-6.5 3.9844-4.8281 3.9844-11.797 0-10.609-6.4688-16.281-6.4688-5.6562-18.531-5.6562-12.047 0-18.531 5.6562-6.4688 5.6719-6.4688 16.281 0 6.9688 4 11.797 4.0156 4.8438 11.141 6.5zm-3.6094 15.578q0-5.6562 3.5312-8.8281 3.5469-3.1719 9.9375-3.1719 6.3594 0 9.9375 3.1719 3.5938 3.1719 3.5938 8.8281 0 5.6719-3.5938 8.8438-3.5781 3.1719-9.9375 3.1719-6.3906 0-9.9375-3.1719-3.5312-3.1719-3.5312-8.8438z"/>
</defs>
<use xlink:href="#c"/>
<use x="63.623047" xlink:href="#e"/>
<use x="95.410156" xlink:href="#aj"/>
</g>
</g>
<g clip-path="url(#a)">
<g transform="translate(1107.4 321.27) scale(.1 -.1)">
<defs>
<path id="aa" d="m10.984 1.5156v8.9844q3.7188-1.7656 7.5156-2.6875 3.8125-0.92188 7.4844-0.92188 9.7656 0 14.906 6.5625 5.1562 6.5625 5.8906 19.953-2.8281-4.2031-7.1875-6.4531-4.3438-2.25-9.6094-2.25-10.938 0-17.312 6.6094-6.375 6.625-6.375 18.109 0 11.219 6.6406 18 6.6406 6.7969 17.672 6.7969 12.656 0 19.312-9.7031 6.6719-9.6875 6.6719-28.141 0-17.234-8.1875-27.516-8.1719-10.281-21.984-10.281-3.7188 0-7.5312 0.73438-3.7969 0.73438-7.9062 2.2031zm19.625 30.906q6.6406 0 10.516 4.5312 3.8906 4.5469 3.8906 12.469 0 7.8594-3.8906 12.422-3.875 4.5625-10.516 4.5625t-10.516-4.5625-3.875-12.422q0-7.9219 3.875-12.469 3.875-4.5312 10.516-4.5312z"/>
</defs>
<use xlink:href="#c"/>
<use x="63.623047" xlink:href="#e"/>
<use x="95.410156" xlink:href="#aa"/>
</g>
</g>
<g clip-path="url(#a)">
<g transform="translate(986.64 602.58) scale(.1 -.1)">
<use xlink:href="#c"/>
<use x="63.623047" xlink:href="#e"/>
<use x="95.410156" xlink:href="#c"/>
<use x="159.033203" xlink:href="#n"/>
</g>
</g>
<g clip-path="url(#a)">
<g transform="translate(1061.8 602.58) scale(.1 -.1)">
<use xlink:href="#c"/>
<use x="63.623047" xlink:href="#e"/>
<use x="95.410156" xlink:href="#c"/>
<use x="159.033203" xlink:href="#m"/>
</g>
</g>
<g clip-path="url(#a)">
<g transform="translate(1264.2 462.29) scale(.1 -.1)">
<use xlink:href="#c"/>
<use x="63.623047" xlink:href="#e"/>
<use x="95.410156" xlink:href="#c"/>
<use x="159.033203" xlink:href="#q"/>
</g>
</g>
<g clip-path="url(#a)">
<g transform="translate(1139.9 602.58) scale(.1 -.1)">
<use xlink:href="#c"/>
<use x="63.623047" xlink:href="#e"/>
<use x="95.410156" xlink:href="#c"/>
<use x="159.033203" xlink:href="#ad"/>
</g>
</g>
<g clip-path="url(#a)">
<g transform="translate(1220.8 602.58) scale(.1 -.1)">
<use xlink:href="#c"/>
<use x="63.623047" xlink:href="#e"/>
<use x="95.410156" xlink:href="#c"/>
<use x="159.033203" xlink:href="#ac"/>
</g>
</g>
<g clip-path="url(#a)">
<g transform="translate(1304.7 602.58) scale(.1 -.1)">
<use xlink:href="#c"/>
<use x="63.623047" xlink:href="#e"/>
<use x="95.410156" xlink:href="#c"/>
<use x="159.033203" xlink:href="#ab"/>
</g>
</g>
<g clip-path="url(#a)">
<g transform="translate(596.32 602.58) scale(.1 -.1)">
<use xlink:href="#c"/>
<use x="63.623047" xlink:href="#e"/>
<use x="95.410156" xlink:href="#c"/>
<use x="159.033203" xlink:href="#aa"/>
</g>
</g>
<g clip-path="url(#a)">
<g transform="translate(654.14 602.58) scale(.1 -.1)">
<use xlink:href="#c"/>
<use x="63.623047" xlink:href="#e"/>
<use x="95.410156" xlink:href="#n"/>
<use x="159.033203" xlink:href="#w"/>
</g>
</g>
<g clip-path="url(#a)">
<g transform="translate(779.91 462.29) scale(.1 -.1)">
<use xlink:href="#c"/>
<use x="63.623047" xlink:href="#e"/>
<use x="95.410156" xlink:href="#n"/>
<use x="159.033203" xlink:href="#c"/>
</g>
</g>
<g clip-path="url(#a)">
<g transform="translate(778.47 602.58) scale(.1 -.1)">
<use xlink:href="#c"/>
<use x="63.623047" xlink:href="#e"/>
<use x="95.410156" xlink:href="#n"/>
<use x="159.033203" xlink:href="#n"/>
</g>
</g>
<g clip-path="url(#a)">
<g transform="translate(714.86 602.58) scale(.1 -.1)">
<use xlink:href="#c"/>
<use x="63.623047" xlink:href="#e"/>
<use x="95.410156" xlink:href="#n"/>
<use x="159.033203" xlink:href="#m"/>
</g>
</g>
<g clip-path="url(#a)">
<g transform="translate(844.97 602.58) scale(.1 -.1)">
<use xlink:href="#c"/>
<use x="63.623047" xlink:href="#e"/>
<use x="95.410156" xlink:href="#n"/>
<use x="159.033203" xlink:href="#q"/>
</g>
</g>
<g clip-path="url(#a)">
<g transform="translate(372.25 462.29) scale(.1 -.1)">
<use xlink:href="#c"/>
<use x="63.623047" xlink:href="#e"/>
<use x="95.410156" xlink:href="#n"/>
<use x="159.033203" xlink:href="#ad"/>
</g>
</g>
<g clip-path="url(#a)">
<g transform="translate(464.77 462.29) scale(.1 -.1)">
<use xlink:href="#c"/>
<use x="63.623047" xlink:href="#e"/>
<use x="95.410156" xlink:href="#n"/>
<use x="159.033203" xlink:href="#ac"/>
</g>
</g>
<g clip-path="url(#a)">
<g transform="translate(440.19 602.58) scale(.1 -.1)">
<use xlink:href="#c"/>
<use x="63.623047" xlink:href="#e"/>
<use x="95.410156" xlink:href="#n"/>
<use x="159.033203" xlink:href="#ab"/>
</g>
</g>
<g clip-path="url(#a)">
<g transform="translate(489.34 602.58) scale(.1 -.1)">
<use xlink:href="#c"/>
<use x="63.623047" xlink:href="#e"/>
<use x="95.410156" xlink:href="#n"/>
<use x="159.033203" xlink:href="#aj"/>
</g>
</g>
<g clip-path="url(#a)">
<g transform="translate(350.56 602.58) scale(.1 -.1)">
<use xlink:href="#c"/>
<use x="63.623047" xlink:href="#e"/>
<use x="95.410156" xlink:href="#n"/>
<use x="159.033203" xlink:href="#aa"/>
</g>
</g>
<g clip-path="url(#a)">
<g transform="translate(393.93 602.58) scale(.1 -.1)">
<use xlink:href="#c"/>
<use x="63.623047" xlink:href="#e"/>
<use x="95.410156" xlink:href="#m"/>
<use x="159.033203" xlink:href="#w"/>
</g>
</g>
<g clip-path="url(#a)">
<g transform="translate(75.894 602.58) scale(.1 -.1)">
<use xlink:href="#c"/>
<use x="63.623047" xlink:href="#e"/>
<use x="95.410156" xlink:href="#m"/>
<use x="159.033203" xlink:href="#c"/>
</g>
</g>
<g clip-path="url(#a)">
<g transform="translate(90.35 602.58) scale(.1 -.1)">
<use xlink:href="#c"/>
<use x="63.623047" xlink:href="#e"/>
<use x="95.410156" xlink:href="#m"/>
<use x="159.033203" xlink:href="#n"/>
</g>
</g>
<g clip-path="url(#a)">
<g transform="translate(153.48 321.27) scale(.1 -.1)">
<use xlink:href="#c"/>
<use x="63.623047" xlink:href="#e"/>
<use x="95.410156" xlink:href="#m"/>
<use x="159.033203" xlink:href="#m"/>
</g>
</g>
<g clip-path="url(#a)">
<g transform="translate(117.82 462.29) scale(.1 -.1)">
<use xlink:href="#c"/>
<use x="63.623047" xlink:href="#e"/>
<use x="95.410156" xlink:href="#m"/>
<use x="159.033203" xlink:href="#q"/>
</g>
</g>
<g clip-path="url(#a)">
<g transform="translate(151.07 602.58) scale(.1 -.1)">
<use xlink:href="#c"/>
<use x="63.623047" xlink:href="#e"/>
<use x="95.410156" xlink:href="#m"/>
<use x="159.033203" xlink:href="#ad"/>
</g>
</g>
<g clip-path="url(#a)">
<g transform="translate(191.54 602.58) scale(.1 -.1)">
<use xlink:href="#c"/>
<use x="63.623047" xlink:href="#e"/>
<use x="95.410156" xlink:href="#m"/>
<use x="159.033203" xlink:href="#ac"/>
</g>
</g>
<g clip-path="url(#a)">
<g transform="translate(107.7 602.58) scale(.1 -.1)">
<use xlink:href="#c"/>
<use x="63.623047" xlink:href="#e"/>
<use x="95.410156" xlink:href="#m"/>
<use x="159.033203" xlink:href="#ab"/>
</g>
</g>
<g clip-path="url(#a)">
<g transform="translate(127.94 602.58) scale(.1 -.1)">
<use xlink:href="#c"/>
<use x="63.623047" xlink:href="#e"/>
<use x="95.410156" xlink:href="#m"/>
<use x="159.033203" xlink:href="#aj"/>
</g>
</g>
<g clip-path="url(#a)">
<g transform="translate(55.655 602.58) scale(.1 -.1)">
<use xlink:href="#c"/>
<use x="63.623047" xlink:href="#e"/>
<use x="95.410156" xlink:href="#m"/>
<use x="159.033203" xlink:href="#aa"/>
</g>
</g>
<g clip-path="url(#a)">
<g transform="translate(64.329 602.58) scale(.1 -.1)">
<use xlink:href="#c"/>
<use x="63.623047" xlink:href="#e"/>
<use x="95.410156" xlink:href="#q"/>
<use x="159.033203" xlink:href="#w"/>
</g>
</g>
<g clip-path="url(#a)">
<g transform="translate(237.8 602.58) scale(.1 -.1)">
<use xlink:href="#c"/>
<use x="63.623047" xlink:href="#e"/>
<use x="95.410156" xlink:href="#q"/>
<use x="159.033203" xlink:href="#c"/>
</g>
</g>
<g clip-path="url(#a)">
<g transform="translate(914.36 602.58) scale(.1 -.1)">
<use xlink:href="#c"/>
<use x="63.623047" xlink:href="#e"/>
<use x="95.410156" xlink:href="#q"/>
<use x="159.033203" xlink:href="#n"/>
</g>
</g>
<g clip-path="url(#a)">
<g transform="translate(1391.4 602.58) scale(.1 -.1)">
<use xlink:href="#c"/>
<use x="63.623047" xlink:href="#e"/>
<use x="95.410156" xlink:href="#q"/>
<use x="159.033203" xlink:href="#m"/>
</g>
</g>
<defs>
<clipPath id="a">
<rect width="1469.3" height="773.33"/>
</clipPath>
</defs>
</svg>
