<?xml version="1.0" encoding="UTF-8"?>
<!DOCTYPE svg  PUBLIC '-//W3C//DTD SVG 1.1//EN'  'http://www.w3.org/Graphics/SVG/1.1/DTD/svg11.dtd'>
<svg width="1621.3pt" height="853.33pt" version="1.1" viewBox="0 0 1621.3 853.33" xmlns="http://www.w3.org/2000/svg" xmlns:xlink="http://www.w3.org/1999/xlink">
<metadata>
<rdf:RDF xmlns:cc="http://creativecommons.org/ns#" xmlns:dc="http://purl.org/dc/elements/1.1/" xmlns:rdf="http://www.w3.org/1999/02/22-rdf-syntax-ns#">
<cc:Work>
<dc:type rdf:resource="http://purl.org/dc/dcmitype/StillImage"/>
<dc:date>2021-03-02T06:47:15.623916</dc:date>
<dc:format>image/svg+xml</dc:format>
<dc:creator>
<cc:Agent>
<dc:title>Matplotlib v3.3.3, https://matplotlib.org/</dc:title>
</cc:Agent>
</dc:creator>
</cc:Work>
</rdf:RDF>
</metadata>
<defs>
<style type="text/css">*{stroke-linecap:butt;stroke-linejoin:round;}</style>
</defs>
<path d="m0 853.33h1621.3v-853.33h-1621.3z" fill="#fff"/>
<g fill="none" stroke="#000">
<path d="m571.96 38.788-479.55 468.28" clip-path="url(#a)"/>
<path d="m571.96 38.788-387.32 623.08" clip-path="url(#a)"/>
<path d="m571.96 38.788-283.97 156.53" clip-path="url(#a)"/>
<path d="m571.96 38.788 104 623.08" clip-path="url(#a)"/>
<path d="m571.96 38.788 316.85 312.67" clip-path="url(#a)"/>
<path d="m571.96 38.788 642.86 623.08" clip-path="url(#a)"/>
<path d="m571.96 38.788 449.7 312.67" clip-path="url(#a)"/>
<path d="m571.96 38.788-411.09 623.08" clip-path="url(#a)"/>
<path d="m571.96 38.788 48.525 623.08" clip-path="url(#a)"/>
<path d="m92.407 507.07-18.71 154.8" clip-path="url(#a)"/>
<path d="m92.407 507.07-10.786 154.8" clip-path="url(#a)"/>
<path d="m92.407 507.07-0.22012 154.8" clip-path="url(#a)"/>
<path d="m92.407 507.07 29.717 154.8" clip-path="url(#a)"/>
<path d="m184.64 661.87v152.67" clip-path="url(#a)"/>
<path d="m287.99 195.32-76.933 466.55" clip-path="url(#a)"/>
<path d="m287.99 195.32-47.877 466.55" clip-path="url(#a)"/>
<path d="m287.99 195.32-16.179 466.55" clip-path="url(#a)"/>
<path d="m287.99 195.32 140.99 156.14" clip-path="url(#a)"/>
<path d="m675.95 661.87v152.67" clip-path="url(#a)"/>
<path d="m888.81 351.46-154.75 310.41" clip-path="url(#a)"/>
<path d="m888.81 351.46-93.992 310.41" clip-path="url(#a)"/>
<path d="m888.81 351.46 36.32 155.61" clip-path="url(#a)"/>
<path d="m888.81 351.46 212.42 155.61" clip-path="url(#a)"/>
<path d="m1214.8 661.87v152.67" clip-path="url(#a)"/>
<path d="m1021.7 351.46 397.87 155.61" clip-path="url(#a)"/>
<path d="m1021.7 351.46-287.59 310.41" clip-path="url(#a)" stroke-dasharray="3.7,1.6"/>
<path d="m1021.7 351.46-226.84 310.41" clip-path="url(#a)" stroke-dasharray="3.7,1.6"/>
<path d="m1021.7 351.46 116.55 310.41" clip-path="url(#a)" stroke-dasharray="3.7,1.6"/>
<path d="m1419.5 507.07-125.47 154.8" clip-path="url(#a)"/>
<path d="m1419.5 507.07-43.584 154.8" clip-path="url(#a)"/>
<path d="m1419.5 507.07 40.943 154.8" clip-path="url(#a)"/>
<path d="m1419.5 507.07 128.11 154.8" clip-path="url(#a)"/>
<path d="m1294.1 661.87v152.67" clip-path="url(#a)"/>
<path d="m1375.9 661.87v152.67" clip-path="url(#a)"/>
<path d="m1460.5 661.87v152.67" clip-path="url(#a)"/>
<path d="m734.06 661.87v152.67" clip-path="url(#a)"/>
<path d="m794.82 661.87v152.67" clip-path="url(#a)"/>
<path d="m925.13 507.07-66.917 154.8" clip-path="url(#a)"/>
<path d="m925.13 507.07-0.88049 154.8" clip-path="url(#a)"/>
<path d="m925.13 507.07 67.798 154.8" clip-path="url(#a)"/>
<path d="m1101.2 507.07-36.981 154.8" clip-path="url(#a)"/>
<path d="m1101.2 507.07 36.981 154.8" clip-path="url(#a)"/>
<path d="m1064.2 661.87v152.67" clip-path="url(#a)"/>
<path d="m1138.2 661.87v152.67" clip-path="url(#a)"/>
<path d="m858.21 661.87v152.67" clip-path="url(#a)"/>
<path d="m924.25 661.87v152.67" clip-path="url(#a)"/>
<path d="m992.93 661.87v152.67" clip-path="url(#a)"/>
<path d="m211.05 661.87v152.67" clip-path="url(#a)"/>
<path d="m240.11 661.87v152.67" clip-path="url(#a)"/>
<path d="m271.81 661.87v152.67" clip-path="url(#a)"/>
<path d="m428.97 351.46-104.34 155.61" clip-path="url(#a)"/>
<path d="m428.97 351.46-46.226 310.41" clip-path="url(#a)"/>
<path d="m428.97 351.46-3.9622 310.41" clip-path="url(#a)"/>
<path d="m428.97 351.46 40.943 310.41" clip-path="url(#a)"/>
<path d="m428.97 351.46 113.58 155.61" clip-path="url(#a)"/>
<path d="m324.64 507.07-18.49 154.8" clip-path="url(#a)"/>
<path d="m324.64 507.07 18.49 154.8" clip-path="url(#a)"/>
<path d="m382.75 661.87v152.67" clip-path="url(#a)"/>
<path d="m425.01 661.87v152.67" clip-path="url(#a)"/>
<path d="m469.92 661.87v152.67" clip-path="url(#a)"/>
<path d="m542.56 507.07-25.094 154.8" clip-path="url(#a)"/>
<path d="m542.56 507.07 25.094 154.8" clip-path="url(#a)"/>
<path d="m517.46 661.87v152.67" clip-path="url(#a)"/>
<path d="m567.65 661.87v152.67" clip-path="url(#a)"/>
<path d="m306.15 661.87v152.67" clip-path="url(#a)"/>
<path d="m343.13 661.87v152.67" clip-path="url(#a)"/>
<path d="m73.697 661.87v152.67" clip-path="url(#a)"/>
<path d="m81.621 661.87v152.67" clip-path="url(#a)"/>
<path d="m92.187 661.87v152.67" clip-path="url(#a)"/>
<path d="m122.12 661.87-16.729 152.67" clip-path="url(#a)"/>
<path d="m122.12 661.87-0.88049 152.67" clip-path="url(#a)"/>
<path d="m122.12 661.87 17.61 152.67" clip-path="url(#a)"/>
<path d="m160.87 661.87v152.67" clip-path="url(#a)"/>
<path d="m620.48 661.87v152.67" clip-path="url(#a)"/>
<path d="m1547.6 661.87v152.67" clip-path="url(#a)"/>
</g>
<path d="m334.41 279.52 4.3044-4.2033q1.7171-1.6768 0.040332-3.3939l-5.4093-5.5394q-1.6768-1.7171-3.3939-0.040332l-4.3044 4.2033q-1.7171 1.6768-0.040333 3.3939l5.4093 5.5394q1.6768 1.7171 3.3939 0.040333z" clip-path="url(#a)" fill="#fff" stroke="#fff"/>
<g clip-path="url(#a)">
<g transform="translate(331.57 276.61) rotate(-44.319) scale(.08 -.08)">
<defs>
<path id="w" d="m9.8125 72.906h9.8594v-29.891h35.844v29.891h9.8594v-72.906h-9.8594v34.719h-35.844v-34.719h-9.8594z"/>
</defs>
<use xlink:href="#w"/>
</g>
</g>
<path d="m382.45 355.53 2.3532-3.7857q1.267-2.0383-0.77126-3.3053l-6.5756-4.0875q-2.0383-1.267-3.3053 0.77126l-2.3532 3.7857q-1.267 2.0383 0.77126 3.3053l6.5756 4.0875q2.0383 1.267 3.3053-0.77126z" clip-path="url(#a)" fill="#fff" stroke="#fff"/>
<g clip-path="url(#a)">
<g transform="translate(379 353.39) rotate(-58.134) scale(.08 -.08)">
<defs>
<path id="ad" d="m9.8125 72.906h9.8594v-64.609h35.5v-8.2969h-45.359z"/>
</defs>
<use xlink:href="#ad"/>
</g>
</g>
<path d="m430.36 124 5.2688-2.9043q2.1018-1.1586 0.94322-3.2604l-3.7377-6.7806q-1.1586-2.1018-3.2604-0.94322l-5.2688 2.9043q-2.1018 1.1586-0.94322 3.2604l3.7377 6.7806q1.1586 2.1018 3.2604 0.94322z" clip-path="url(#a)" fill="#fff" stroke="#fff"/>
<g clip-path="url(#a)">
<g transform="translate(428.4 120.44) rotate(-28.865) scale(.08 -.08)">
<use xlink:href="#w"/>
</g>
</g>
<path d="m617.4 349.16 0.73383 4.3967q0.39511 2.3673 2.7624 1.9721l7.6369-1.2746q2.3673-0.39511 1.9721-2.7624l-0.73383-4.3967q-0.39511-2.3673-2.7624-1.9721l-7.6369 1.2746q-2.3673 0.39511-1.9721 2.7624z" clip-path="url(#a)" fill="#fff" stroke="#fff"/>
<g clip-path="url(#a)">
<g transform="translate(621.41 348.49) rotate(80.524) scale(.08 -.08)">
<use xlink:href="#ad"/>
</g>
</g>
<path d="m723.84 197.48 4.2823 4.2258q1.7083 1.6858 3.394-0.022532l5.4383-5.511q1.6858-1.7083-0.022532-3.394l-4.2823-4.2258q-1.7083-1.6858-3.394 0.022532l-5.4383 5.511q-1.6858 1.7083 0.022532 3.394z" clip-path="url(#a)" fill="#fff" stroke="#fff"/>
<g clip-path="url(#a)">
<g transform="translate(726.69 194.58) rotate(44.62) scale(.08 -.08)">
<use xlink:href="#w"/>
</g>
</g>
<path d="m887.42 353.28 3.2008 3.1023q1.7234 1.6703 3.3937-0.053005l5.3886-5.5596q1.6703-1.7234-0.053004-3.3937l-3.2008-3.1023q-1.7234-1.6703-3.3937 0.053004l-5.3886 5.5596q-1.6703 1.7234 0.053004 3.3937z" clip-path="url(#a)" fill="#fff" stroke="#fff"/>
<g clip-path="url(#a)">
<g transform="translate(890.25 350.36) rotate(44.105) scale(.08 -.08)">
<use xlink:href="#ad"/>
</g>
</g>
<path d="m790.76 198.56 4.9396 3.4345q1.9705 1.3701 3.3406-0.60041l4.42-6.3569q1.3701-1.9705-0.60041-3.3406l-4.9396-3.4345q-1.9705-1.3701-3.3406 0.60041l-4.42 6.3569q-1.3701 1.9705 0.60041 3.3406z" clip-path="url(#a)" fill="#fff" stroke="#fff"/>
<g clip-path="url(#a)">
<g transform="translate(793.08 195.22) rotate(34.811) scale(.08 -.08)">
<use xlink:href="#w"/>
</g>
</g>
<path d="m370.03 356.23 3.2244-4.8872q1.3217-2.0033-0.68158-3.325l-6.4626-4.2639q-2.0033-1.3217-3.325 0.68158l-3.2244 4.8872q-1.3217 2.0033 0.68158 3.325l6.4626 4.2639q2.0033 1.3217 3.325-0.68158z" clip-path="url(#a)" fill="#fff" stroke="#fff"/>
<g clip-path="url(#a)">
<g transform="translate(366.64 353.99) rotate(-56.584) scale(.08 -.08)">
<defs>
<path id="ac" d="m8.6875 72.906h9.9219v-44.297q0-11.719 4.2344-16.875 4.25-5.1406 13.781-5.1406 9.4688 0 13.719 5.1406 4.25 5.1562 4.25 16.875v44.297h9.9062v-45.516q0-14.25-7.0625-21.531-7.0469-7.2812-20.812-7.2812-13.828 0-20.891 7.2812-7.0469 7.2812-7.0469 21.531z"/>
</defs>
<use xlink:href="#ac"/>
</g>
</g>
<path d="m589.74 347.9 0.4546 5.8373q0.18634 2.3928 2.5791 2.2064l7.7191-0.60115q2.3928-0.18634 2.2064-2.5791l-0.4546-5.8373q-0.18634-2.3928-2.5791-2.2064l-7.7191 0.60115q-2.3928 0.18634-2.2064 2.5791z" clip-path="url(#a)" fill="#fff" stroke="#fff"/>
<g clip-path="url(#a)">
<g transform="translate(593.79 347.58) rotate(85.547) scale(.08 -.08)">
<use xlink:href="#ac"/>
</g>
</g>
<path d="m88.95 587.94 0.65668-5.433q0.28799-2.3827-2.0947-2.6706l-7.6866-0.92907q-2.3827-0.28799-2.6706 2.0947l-0.65668 5.433q-0.28799 2.3827 2.0947 2.6706l7.6866 0.92907q2.3827 0.28799 2.6706-2.0947z" clip-path="url(#a)" fill="#fff" stroke="#fff"/>
<g clip-path="url(#a)">
<g transform="translate(84.915 587.45) rotate(-83.108) scale(.08 -.08)">
<defs>
<path id="p" d="m34.188 63.188-13.391-36.281h26.812zm-5.5781 9.7188h11.188l27.781-72.906h-10.25l-6.6406 18.703h-32.859l-6.6406-18.703h-10.406z"/>
</defs>
<use xlink:href="#p"/>
</g>
</g>
<path d="m93.103 587.31 0.3353-4.8121q0.16682-2.3942-2.2274-2.561l-7.7238-0.53818q-2.3942-0.16682-2.561 2.2274l-0.3353 4.8121q-0.16682 2.3942 2.2274 2.561l7.7238 0.53818q2.3942 0.16682 2.561-2.2274z" clip-path="url(#a)" fill="#fff" stroke="#fff"/>
<g clip-path="url(#a)">
<g transform="translate(89.049 587.03) rotate(-86.014) scale(.08 -.08)">
<defs>
<path id="v" d="m19.672 64.797v-27.391h12.406q6.8906 0 10.641 3.5625 3.7656 3.5625 3.7656 10.156 0 6.5469-3.7656 10.109-3.75 3.5625-10.641 3.5625zm-9.8594 8.1094h22.266q12.266 0 18.531-5.5469 6.2812-5.5469 6.2812-16.234 0-10.797-6.2812-16.312-6.2656-5.5156-18.531-5.5156h-12.406v-29.297h-9.8594z"/>
</defs>
<use xlink:href="#v"/>
</g>
</g>
<path d="m98.565 587.22 0.007782-5.4725q0.003412-2.4-2.3966-2.4034l-7.7425-0.01101q-2.4-0.003413-2.4034 2.3966l-0.007782 5.4725q-0.003412 2.4 2.3966 2.4034l7.7425 0.011009q2.4 0.003413 2.4034-2.3966z" clip-path="url(#a)" fill="#fff" stroke="#fff"/>
<g clip-path="url(#a)">
<g transform="translate(94.501 587.21) rotate(-89.919) scale(.08 -.08)">
<use xlink:href="#p"/>
</g>
</g>
<path d="m100.53 582.63 1.1613 6.0495q0.45246 2.357 2.8094 1.9045l7.6037-1.4597q2.357-0.45246 1.9045-2.8094l-1.1613-6.0495q-0.45246-2.357-2.8094-1.9045l-7.6037 1.4597q-2.357 0.45246-1.9045 2.8094z" clip-path="url(#a)" fill="#fff" stroke="#fff"/>
<g clip-path="url(#a)">
<g transform="translate(104.52 581.86) rotate(79.133) scale(.08 -.08)">
<defs>
<path id="y" d="m19.672 64.797v-56.688h11.922q15.094 0 22.094 6.8281 7 6.8438 7 21.594 0 14.641-7 21.453t-22.094 6.8125zm-9.8594 8.1094h20.266q21.188 0 31.094-8.8125 9.9219-8.8125 9.9219-27.562 0-18.859-9.9688-27.703-9.9531-8.8281-31.047-8.8281h-20.266z"/>
</defs>
<use xlink:href="#y"/>
</g>
</g>
<path d="m178.37 721.3v33.808q0 2.4 2.4 2.4h7.7425q2.4 0 2.4-2.4v-33.808q0-2.4-2.4-2.4h-7.7425q-2.4 0-2.4 2.4z" clip-path="url(#a)" fill="#fff" stroke="#fff"/>
<g clip-path="url(#a)">
<g transform="translate(182.43 721.3) rotate(90) scale(.08 -.08)">
<defs>
<path id="l" d="m-0.29688 72.906h61.672v-8.3125h-25.875v-64.594h-9.9062v64.594h-25.891z"/>
<path id="e" d="m56.203 29.594v-4.3906h-41.312q0.59375-9.2812 5.5938-14.141t13.938-4.8594q5.1719 0 10.031 1.2656t9.6562 3.8125v-8.5q-4.8438-2.0469-9.9219-3.125t-10.297-1.0781q-13.094 0-20.734 7.6094-7.6406 7.625-7.6406 20.625 0 13.422 7.25 21.297 7.25 7.8906 19.562 7.8906 11.031 0 17.453-7.1094 6.4219-7.0938 6.4219-19.297zm-8.9844 2.6406q-0.09375 7.3594-4.125 11.75-4.0312 4.4062-10.672 4.4062-7.5156 0-12.031-4.25t-5.2031-11.969z"/>
<path id="k" d="m41.109 46.297q-1.5156 0.875-3.2969 1.2812-1.7812 0.42188-3.9219 0.42188-7.625 0-11.703-4.9531t-4.0781-14.234v-28.812h-9.0312v54.688h9.0312v-8.5q2.8438 4.9844 7.375 7.3906 4.5469 2.4219 11.047 2.4219 0.92188 0 2.0469-0.125 1.125-0.10938 2.4844-0.35938z"/>
<path id="j" d="m52 44.188q3.375 6.0625 8.0625 8.9375t11.031 2.875q8.5469 0 13.188-5.9844 4.6406-5.9688 4.6406-17v-33.016h-9.0312v32.719q0 7.8594-2.7969 11.656-2.7812 3.8125-8.4844 3.8125-6.9844 0-11.047-4.6406-4.0469-4.625-4.0469-12.641v-30.906h-9.0312v32.719q0 7.9062-2.7812 11.688t-8.5938 3.7812q-6.8906 0-10.953-4.6562-4.0469-4.6562-4.0469-12.625v-30.906h-9.0312v54.688h9.0312v-8.5q3.0781 5.0312 7.375 7.4219t10.203 2.3906q5.9688 0 10.141-3.0312 4.1719-3.0156 6.1719-8.7812z"/>
<path id="g" d="m9.4219 54.688h8.9844v-54.688h-8.9844zm0 21.297h8.9844v-11.391h-8.9844z"/>
<path id="h" d="m54.891 33.016v-33.016h-8.9844v32.719q0 7.7656-3.0312 11.609-3.0312 3.8594-9.0781 3.8594-7.2812 0-11.484-4.6406-4.2031-4.625-4.2031-12.641v-30.906h-9.0312v54.688h9.0312v-8.5q3.2344 4.9375 7.5938 7.375 4.375 2.4375 10.094 2.4375 9.4219 0 14.25-5.8281 4.8438-5.8281 4.8438-17.156z"/>
<path id="d" d="m34.281 27.484q-10.891 0-15.094-2.4844t-4.2031-8.5q0-4.7812 3.1562-7.5938 3.1562-2.7969 8.5625-2.7969 7.4844 0 12 5.2969t4.5156 14.078v2zm17.922 3.7188v-31.203h-8.9844v8.2969q-3.0781-4.9688-7.6719-7.3438t-11.234-2.375q-8.3906 0-13.359 4.7188-4.9531 4.7188-4.9531 12.625 0 9.2188 6.1719 13.906 6.1875 4.6875 18.438 4.6875h12.609v0.89062q0 6.2031-4.0781 9.5938t-11.453 3.3906q-4.6875 0-9.1406-1.125-4.4375-1.125-8.5312-3.375v8.3125q4.9219 1.9062 9.5625 2.8438 4.6406 0.95312 9.0312 0.95312 11.875 0 17.734-6.1562 5.8594-6.1406 5.8594-18.641z"/>
<path id="i" d="m9.4219 75.984h8.9844v-75.984h-8.9844z"/>
</defs>
<use xlink:href="#l"/>
<use x="44.083984" xlink:href="#e"/>
<use x="105.607422" xlink:href="#k"/>
<use x="144.970703" xlink:href="#j"/>
<use x="242.382812" xlink:href="#g"/>
<use x="270.166016" xlink:href="#h"/>
<use x="333.544922" xlink:href="#d"/>
<use x="394.824219" xlink:href="#i"/>
</g>
</g>
<path d="m255.26 432.32 0.89038-5.3996q0.39048-2.368-1.9775-2.7585l-7.6393-1.2597q-2.368-0.39048-2.7585 1.9775l-0.89038 5.3996q-0.39048 2.368 1.9775 2.7585l7.6393 1.2597q2.368 0.39048 2.7585-1.9775z" clip-path="url(#a)" fill="#fff" stroke="#fff"/>
<g clip-path="url(#a)">
<g transform="translate(251.25 431.66) rotate(-80.636) scale(.08 -.08)">
<use xlink:href="#p"/>
</g>
</g>
<path d="m270.05 431.53 0.46971-4.5772q0.245-2.3875-2.1425-2.6325l-7.7021-0.79038q-2.3875-0.245-2.6325 2.1425l-0.46971 4.5772q-0.245 2.3875 2.1425 2.6325l7.7021 0.79038q2.3875 0.245 2.6325-2.1425z" clip-path="url(#a)" fill="#fff" stroke="#fff"/>
<g clip-path="url(#a)">
<g transform="translate(266.01 431.11) rotate(-84.141) scale(.08 -.08)">
<defs>
<path id="x" d="m9.8125 72.906h41.891v-8.3125h-32.031v-21.484h28.906v-8.2969h-28.906v-34.812h-9.8594z"/>
</defs>
<use xlink:href="#x"/>
</g>
</g>
<path d="m286.08 431.35 0.17602-5.0757q0.083177-2.3986-2.3154-2.4817l-7.7378-0.26833q-2.3986-0.083178-2.4817 2.3154l-0.17602 5.0757q-0.083177 2.3986 2.3154 2.4817l7.7378 0.26833q2.3986 0.083177 2.4817-2.3154z" clip-path="url(#a)" fill="#fff" stroke="#fff"/>
<g clip-path="url(#a)">
<g transform="translate(282.01 431.21) rotate(-88.014) scale(.08 -.08)">
<defs>
<path id="an" d="m53.516 70.516v-9.625q-5.6094 2.6875-10.594 4-4.9844 1.3281-9.625 1.3281-8.0469 0-12.422-3.125t-4.375-8.8906q0-4.8438 2.9062-7.3125 2.9062-2.4531 11.016-3.9688l5.9531-1.2188q11.031-2.1094 16.281-7.4062t5.25-14.172q0-10.609-7.1094-16.078-7.0938-5.4688-20.812-5.4688-5.1719 0-11.016 1.1719-5.8281 1.1719-12.078 3.4688v10.156q6-3.3594 11.766-5.0781 5.7656-1.7031 11.328-1.7031 8.4375 0 13.031 3.3125 4.5938 3.3281 4.5938 9.4844 0 5.3594-3.2969 8.3906t-10.812 4.5469l-6.0156 1.1719q-11.031 2.1875-15.969 6.875-4.9219 4.6875-4.9219 13.047 0 9.6719 6.8125 15.234t18.766 5.5625q5.1406 0 10.453-0.9375 5.3281-0.92188 10.891-2.7656z"/>
</defs>
<use xlink:href="#an"/>
</g>
</g>
<path d="m351.99 275.56 3.6676 4.0617q1.6084 1.7813 3.3897 0.17285l5.7465-5.1889q1.7813-1.6084 0.17285-3.3897l-3.6676-4.0617q-1.6084-1.7813-3.3897-0.17285l-5.7465 5.1889q-1.7813 1.6084-0.17285 3.3897z" clip-path="url(#a)" fill="#fff" stroke="#fff"/>
<g clip-path="url(#a)">
<g transform="translate(355.01 272.84) rotate(47.919) scale(.08 -.08)">
<use xlink:href="#p"/>
</g>
</g>
<path d="m669.68 721.3v33.808q0 2.4 2.4 2.4h7.7425q2.4 0 2.4-2.4v-33.808q0-2.4-2.4-2.4h-7.7425q-2.4 0-2.4 2.4z" clip-path="url(#a)" fill="#fff" stroke="#fff"/>
<g clip-path="url(#a)">
<g transform="translate(673.74 721.3) rotate(90) scale(.08 -.08)">
<use xlink:href="#l"/>
<use x="44.083984" xlink:href="#e"/>
<use x="105.607422" xlink:href="#k"/>
<use x="144.970703" xlink:href="#j"/>
<use x="242.382812" xlink:href="#g"/>
<use x="270.166016" xlink:href="#h"/>
<use x="333.544922" xlink:href="#d"/>
<use x="394.824219" xlink:href="#i"/>
</g>
</g>
<path d="m815.83 511.91 2.4416-4.8976q1.0708-2.1479-1.0771-3.2187l-6.9292-3.4544q-2.1479-1.0708-3.2187 1.0771l-2.4416 4.8976q-1.0708 2.1479 1.0771 3.2187l6.9292 3.4544q2.1479 1.0708 3.2187-1.0771z" clip-path="url(#a)" fill="#fff" stroke="#fff"/>
<g clip-path="url(#a)">
<g transform="translate(812.19 510.1) rotate(-63.503) scale(.08 -.08)">
<use xlink:href="#p"/>
</g>
</g>
<path d="m847.12 510.79 1.398-4.6167q0.69554-2.297-1.6015-2.9925l-7.4102-2.2438q-2.297-0.69554-2.9925 1.6015l-1.398 4.6167q-0.69554 2.297 1.6015 2.9925l7.4102 2.2438q2.297 0.69554 2.9925-1.6015z" clip-path="url(#a)" fill="#fff" stroke="#fff"/>
<g clip-path="url(#a)">
<g transform="translate(843.23 509.61) rotate(-73.154) scale(.08 -.08)">
<use xlink:href="#v"/>
</g>
</g>
<path d="m900.24 428.03 1.2439 5.3293q0.54551 2.3372 2.8827 1.7917l7.5398-1.7598q2.3372-0.54551 1.7917-2.8827l-1.2439-5.3293q-0.54551-2.3372-2.8827-1.7917l-7.5398 1.7598q-2.3372 0.54551-1.7917 2.8827z" clip-path="url(#a)" fill="#fff" stroke="#fff"/>
<g clip-path="url(#a)">
<g transform="translate(904.2 427.1) rotate(76.862) scale(.08 -.08)">
<use xlink:href="#p"/>
</g>
</g>
<path d="m988.83 432.51 4.9693 3.6403q1.9361 1.4183 3.3544-0.51778l4.5755-6.2459q1.4183-1.9361-0.51778-3.3544l-4.9693-3.6403q-1.9361-1.4183-3.3544 0.51778l-4.5755 6.2459q-1.4183 1.9361 0.51777 3.3544z" clip-path="url(#a)" fill="#fff" stroke="#fff"/>
<g clip-path="url(#a)">
<g transform="translate(991.23 429.23) rotate(36.225) scale(.08 -.08)">
<use xlink:href="#y"/>
</g>
</g>
<path d="m1208.5 721.3v33.808q0 2.4 2.4 2.4h7.7425q2.4 0 2.4-2.4v-33.808q0-2.4-2.4-2.4h-7.7425q-2.4 0-2.4 2.4z" clip-path="url(#a)" fill="#fff" stroke="#fff"/>
<g clip-path="url(#a)">
<g transform="translate(1212.6 721.3) rotate(90) scale(.08 -.08)">
<use xlink:href="#l"/>
<use x="44.083984" xlink:href="#e"/>
<use x="105.607422" xlink:href="#k"/>
<use x="144.970703" xlink:href="#j"/>
<use x="242.382812" xlink:href="#g"/>
<use x="270.166016" xlink:href="#h"/>
<use x="333.544922" xlink:href="#d"/>
<use x="394.824219" xlink:href="#i"/>
</g>
</g>
<path d="m1215.8 434.11 5.0966 1.9933q2.2351 0.87418 3.1093-1.361l2.8201-7.2106q0.87418-2.2351-1.361-3.1093l-5.0966-1.9933q-2.2351-0.87418-3.1093 1.361l-2.8201 7.2106q-0.87418 2.2351 1.361 3.1093z" clip-path="url(#a)" fill="#fff" stroke="#fff"/>
<g clip-path="url(#a)">
<g transform="translate(1217.2 430.33) rotate(21.361) scale(.08 -.08)">
<use xlink:href="#p"/>
</g>
</g>
<path d="m880.6 512.94 3.7193-4.0144q1.6311-1.7605-0.12942-3.3916l-5.6795-5.262q-1.7605-1.6311-3.3916 0.12942l-3.7193 4.0144q-1.6311 1.7605 0.12942 3.3916l5.6796 5.262q1.7605 1.6311 3.3916-0.12942z" clip-path="url(#a)" fill="#fff" stroke="#fff"/>
<g clip-path="url(#a)">
<g transform="translate(877.62 510.17) rotate(-47.185) scale(.08 -.08)">
<use xlink:href="#p"/>
</g>
</g>
<path d="m911.88 512.31 2.8461-3.8947q1.416-1.9377-0.52171-3.3538l-6.2512-4.5682q-1.9377-1.416-3.3538 0.5217l-2.8461 3.8947q-1.416 1.9377 0.5217 3.3538l6.2512 4.5682q1.9377 1.416 3.3538-0.5217z" clip-path="url(#a)" fill="#fff" stroke="#fff"/>
<g clip-path="url(#a)">
<g transform="translate(908.6 509.92) rotate(-53.842) scale(.08 -.08)">
<use xlink:href="#v"/>
</g>
</g>
<path d="m1073 505.99 2.1654 5.7669q0.84366 2.2468 3.0905 1.4032l7.2484-2.7217q2.2468-0.84366 1.4032-3.0905l-2.1654-5.7669q-0.84366-2.2468-3.0905-1.4032l-7.2484 2.7217q-2.2468 0.84366-1.4032 3.0905z" clip-path="url(#a)" fill="#fff" stroke="#fff"/>
<g clip-path="url(#a)">
<g transform="translate(1076.8 504.56) rotate(69.419) scale(.08 -.08)">
<use xlink:href="#y"/>
</g>
</g>
<path d="m1359.9 590.59 3.5175-4.3397q1.5112-1.8645-0.35325-3.3757l-6.0148-4.8752q-1.8645-1.5112-3.3757 0.35325l-3.5175 4.3397q-1.5112 1.8645 0.35325 3.3757l6.0148 4.8752q1.8645 1.5112 3.3757-0.35325z" clip-path="url(#a)" fill="#fff" stroke="#fff"/>
<g clip-path="url(#a)">
<g transform="translate(1356.7 588.03) rotate(-50.974) scale(.08 -.08)">
<defs>
<path id="s" d="m64.406 67.281v-10.391q-4.9844 4.6406-10.625 6.9219-5.6406 2.2969-11.984 2.2969-12.5 0-19.141-7.6406t-6.6406-22.094q0-14.406 6.6406-22.047t19.141-7.6406q6.3438 0 11.984 2.2969t10.625 6.9375v-10.312q-5.1719-3.5156-10.969-5.2812-5.7812-1.75-12.219-1.75-16.562 0-26.094 10.125-9.5156 10.141-9.5156 27.672 0 17.578 9.5156 27.703 9.5312 10.141 26.094 10.141 6.5312 0 12.312-1.7344 5.7969-1.7344 10.875-5.2031z"/>
</defs>
<use xlink:href="#s"/>
</g>
</g>
<path d="m1403 589.05 1.622-5.761q0.65044-2.3102-1.6597-2.9606l-7.4527-2.0984q-2.3102-0.65044-2.9606 1.6597l-1.622 5.761q-0.65044 2.3102 1.6597 2.9606l7.4527 2.0984q2.3102 0.65044 2.9606-1.6597z" clip-path="url(#a)" fill="#fff" stroke="#fff"/>
<g clip-path="url(#a)">
<g transform="translate(1399 587.95) rotate(-74.275) scale(.08 -.08)">
<defs>
<path id="ak" d="m9.8125 72.906h13.281l32.328-60.984v60.984h9.5625v-72.906h-13.281l-32.312 60.984v-60.984h-9.5781z"/>
</defs>
<use xlink:href="#ak"/>
</g>
</g>
<path d="m1433.2 583.38 1.4284 5.4005q0.61368 2.3202 2.9339 1.7065l7.4851-1.9797q2.3202-0.61368 1.7065-2.9339l-1.4284-5.4005q-0.61368-2.3202-2.9339-1.7065l-7.4851 1.9797q-2.3202 0.61368-1.7065 2.9339z" clip-path="url(#a)" fill="#fff" stroke="#fff"/>
<g clip-path="url(#a)">
<g transform="translate(1437.1 582.34) rotate(75.185) scale(.08 -.08)">
<use xlink:href="#s"/>
</g>
</g>
<path d="m1476.9 586.21 3.733 4.5106q1.5302 1.8489 3.3791 0.31876l5.9647-4.9364q1.8489-1.5302 0.31875-3.3791l-3.733-4.5106q-1.5302-1.8489-3.3791-0.31876l-5.9647 4.9364q-1.8489 1.5302-0.31875 3.3791z" clip-path="url(#a)" fill="#fff" stroke="#fff"/>
<g clip-path="url(#a)">
<g transform="translate(1480 583.62) rotate(50.389) scale(.08 -.08)">
<use xlink:href="#ac"/>
</g>
</g>
<path d="m1287.8 721.3v33.808q0 2.4 2.4 2.4h7.7425q2.4 0 2.4-2.4v-33.808q0-2.4-2.4-2.4h-7.7425q-2.4 0-2.4 2.4z" clip-path="url(#a)" fill="#fff" stroke="#fff"/>
<g clip-path="url(#a)">
<g transform="translate(1291.8 721.3) rotate(90) scale(.08 -.08)">
<use xlink:href="#l"/>
<use x="44.083984" xlink:href="#e"/>
<use x="105.607422" xlink:href="#k"/>
<use x="144.970703" xlink:href="#j"/>
<use x="242.382812" xlink:href="#g"/>
<use x="270.166016" xlink:href="#h"/>
<use x="333.544922" xlink:href="#d"/>
<use x="394.824219" xlink:href="#i"/>
</g>
</g>
<path d="m1369.7 721.3v33.808q0 2.4 2.4 2.4h7.7425q2.4 0 2.4-2.4v-33.808q0-2.4-2.4-2.4h-7.7425q-2.4 0-2.4 2.4z" clip-path="url(#a)" fill="#fff" stroke="#fff"/>
<g clip-path="url(#a)">
<g transform="translate(1373.7 721.3) rotate(90) scale(.08 -.08)">
<use xlink:href="#l"/>
<use x="44.083984" xlink:href="#e"/>
<use x="105.607422" xlink:href="#k"/>
<use x="144.970703" xlink:href="#j"/>
<use x="242.382812" xlink:href="#g"/>
<use x="270.166016" xlink:href="#h"/>
<use x="333.544922" xlink:href="#d"/>
<use x="394.824219" xlink:href="#i"/>
</g>
</g>
<path d="m1454.2 721.3v33.808q0 2.4 2.4 2.4h7.7425q2.4 0 2.4-2.4v-33.808q0-2.4-2.4-2.4h-7.7425q-2.4 0-2.4 2.4z" clip-path="url(#a)" fill="#fff" stroke="#fff"/>
<g clip-path="url(#a)">
<g transform="translate(1458.3 721.3) rotate(90) scale(.08 -.08)">
<use xlink:href="#l"/>
<use x="44.083984" xlink:href="#e"/>
<use x="105.607422" xlink:href="#k"/>
<use x="144.970703" xlink:href="#j"/>
<use x="242.382812" xlink:href="#g"/>
<use x="270.166016" xlink:href="#h"/>
<use x="333.544922" xlink:href="#d"/>
<use x="394.824219" xlink:href="#i"/>
</g>
</g>
<path d="m727.79 721.3v33.808q0 2.4 2.4 2.4h7.7425q2.4 0 2.4-2.4v-33.808q0-2.4-2.4-2.4h-7.7425q-2.4 0-2.4 2.4z" clip-path="url(#a)" fill="#fff" stroke="#fff"/>
<g clip-path="url(#a)">
<g transform="translate(731.86 721.3) rotate(90) scale(.08 -.08)">
<use xlink:href="#l"/>
<use x="44.083984" xlink:href="#e"/>
<use x="105.607422" xlink:href="#k"/>
<use x="144.970703" xlink:href="#j"/>
<use x="242.382812" xlink:href="#g"/>
<use x="270.166016" xlink:href="#h"/>
<use x="333.544922" xlink:href="#d"/>
<use x="394.824219" xlink:href="#i"/>
</g>
</g>
<path d="m788.55 721.3v33.808q0 2.4 2.4 2.4h7.7425q2.4 0 2.4-2.4v-33.808q0-2.4-2.4-2.4h-7.7425q-2.4 0-2.4 2.4z" clip-path="url(#a)" fill="#fff" stroke="#fff"/>
<g clip-path="url(#a)">
<g transform="translate(792.61 721.3) rotate(90) scale(.08 -.08)">
<use xlink:href="#l"/>
<use x="44.083984" xlink:href="#e"/>
<use x="105.607422" xlink:href="#k"/>
<use x="144.970703" xlink:href="#j"/>
<use x="242.382812" xlink:href="#g"/>
<use x="270.166016" xlink:href="#h"/>
<use x="333.544922" xlink:href="#d"/>
<use x="394.824219" xlink:href="#i"/>
</g>
</g>
<path d="m896.32 589.52 2.2166-5.1277q0.95232-2.203-1.2507-3.1553l-7.1069-3.0722q-2.203-0.95232-3.1553 1.2507l-2.2166 5.1277q-0.95232 2.203 1.2507 3.1553l7.1069 3.0722q2.203 0.95232 3.1553-1.2507z" clip-path="url(#a)" fill="#fff" stroke="#fff"/>
<g clip-path="url(#a)">
<g transform="translate(892.59 587.91) rotate(-66.622) scale(.08 -.08)">
<use xlink:href="#s"/>
</g>
</g>
<path d="m930.94 587.5 0.034042-5.9849q0.013651-2.4-2.3863-2.4136l-7.7424-0.044038q-2.4-0.013651-2.4136 2.3863l-0.034042 5.9849q-0.013651 2.4 2.3863 2.4136l7.7424 0.044039q2.4 0.013651 2.4136-2.3863z" clip-path="url(#a)" fill="#fff" stroke="#fff"/>
<g clip-path="url(#a)">
<g transform="translate(926.88 587.48) rotate(-89.674) scale(.08 -.08)">
<use xlink:href="#ak"/>
</g>
</g>
<path d="m952.16 584.43 2.2411 5.117q0.96284 2.1984 3.1612 1.2356l7.0921-3.1062q2.1984-0.96284 1.2356-3.1612l-2.2411-5.117q-0.96284-2.1984-3.1612-1.2356l-7.0921 3.1062q-2.1984 0.96284-1.2356 3.1612z" clip-path="url(#a)" fill="#fff" stroke="#fff"/>
<g clip-path="url(#a)">
<g transform="translate(955.89 582.8) rotate(66.348) scale(.08 -.08)">
<use xlink:href="#s"/>
</g>
</g>
<path d="m1088.3 588.39 1.1746-4.9166q0.55766-2.3343-1.7767-2.892l-7.5306-1.799q-2.3343-0.55766-2.892 1.7767l-1.1746 4.9166q-0.55766 2.3343 1.7767 2.892l7.5306 1.799q2.3343 0.55766 2.892-1.7767z" clip-path="url(#a)" fill="#fff" stroke="#fff"/>
<g clip-path="url(#a)">
<g transform="translate(1084.3 587.44) rotate(-76.564) scale(.08 -.08)">
<defs>
<path id="ap" d="m9.8125 72.906h46.094v-8.3125h-36.234v-21.578h34.719v-8.2969h-34.719v-26.422h37.109v-8.2969h-46.969z"/>
</defs>
<use xlink:href="#ap"/>
</g>
</g>
<path d="m1113 583.21 1.298 5.4334q0.55766 2.3343 2.892 1.7767l7.5306-1.799q2.3343-0.55766 1.7767-2.892l-1.298-5.4334q-0.55766-2.3343-2.892-1.7767l-7.5306 1.799q-2.3343 0.55766-1.7767 2.892z" clip-path="url(#a)" fill="#fff" stroke="#fff"/>
<g clip-path="url(#a)">
<g transform="translate(1116.9 582.27) rotate(76.564) scale(.08 -.08)">
<use xlink:href="#s"/>
</g>
</g>
<path d="m1058 721.3v33.808q0 2.4 2.4 2.4h7.7425q2.4 0 2.4-2.4v-33.808q0-2.4-2.4-2.4h-7.7425q-2.4 0-2.4 2.4z" clip-path="url(#a)" fill="#fff" stroke="#fff"/>
<g clip-path="url(#a)">
<g transform="translate(1062 721.3) rotate(90) scale(.08 -.08)">
<use xlink:href="#l"/>
<use x="44.083984" xlink:href="#e"/>
<use x="105.607422" xlink:href="#k"/>
<use x="144.970703" xlink:href="#j"/>
<use x="242.382812" xlink:href="#g"/>
<use x="270.166016" xlink:href="#h"/>
<use x="333.544922" xlink:href="#d"/>
<use x="394.824219" xlink:href="#i"/>
</g>
</g>
<path d="m1131.9 721.3v33.808q0 2.4 2.4 2.4h7.7425q2.4 0 2.4-2.4v-33.808q0-2.4-2.4-2.4h-7.7425q-2.4 0-2.4 2.4z" clip-path="url(#a)" fill="#fff" stroke="#fff"/>
<g clip-path="url(#a)">
<g transform="translate(1136 721.3) rotate(90) scale(.08 -.08)">
<use xlink:href="#l"/>
<use x="44.083984" xlink:href="#e"/>
<use x="105.607422" xlink:href="#k"/>
<use x="144.970703" xlink:href="#j"/>
<use x="242.382812" xlink:href="#g"/>
<use x="270.166016" xlink:href="#h"/>
<use x="333.544922" xlink:href="#d"/>
<use x="394.824219" xlink:href="#i"/>
</g>
</g>
<path d="m851.94 721.3v33.808q0 2.4 2.4 2.4h7.7425q2.4 0 2.4-2.4v-33.808q0-2.4-2.4-2.4h-7.7425q-2.4 0-2.4 2.4z" clip-path="url(#a)" fill="#fff" stroke="#fff"/>
<g clip-path="url(#a)">
<g transform="translate(856.01 721.3) rotate(90) scale(.08 -.08)">
<use xlink:href="#l"/>
<use x="44.083984" xlink:href="#e"/>
<use x="105.607422" xlink:href="#k"/>
<use x="144.970703" xlink:href="#j"/>
<use x="242.382812" xlink:href="#g"/>
<use x="270.166016" xlink:href="#h"/>
<use x="333.544922" xlink:href="#d"/>
<use x="394.824219" xlink:href="#i"/>
</g>
</g>
<path d="m917.98 721.3v33.808q0 2.4 2.4 2.4h7.7425q2.4 0 2.4-2.4v-33.808q0-2.4-2.4-2.4h-7.7425q-2.4 0-2.4 2.4z" clip-path="url(#a)" fill="#fff" stroke="#fff"/>
<g clip-path="url(#a)">
<g transform="translate(922.04 721.3) rotate(90) scale(.08 -.08)">
<use xlink:href="#l"/>
<use x="44.083984" xlink:href="#e"/>
<use x="105.607422" xlink:href="#k"/>
<use x="144.970703" xlink:href="#j"/>
<use x="242.382812" xlink:href="#g"/>
<use x="270.166016" xlink:href="#h"/>
<use x="333.544922" xlink:href="#d"/>
<use x="394.824219" xlink:href="#i"/>
</g>
</g>
<path d="m986.66 721.3v33.808q0 2.4 2.4 2.4h7.7425q2.4 0 2.4-2.4v-33.808q0-2.4-2.4-2.4h-7.7425q-2.4 0-2.4 2.4z" clip-path="url(#a)" fill="#fff" stroke="#fff"/>
<g clip-path="url(#a)">
<g transform="translate(990.72 721.3) rotate(90) scale(.08 -.08)">
<use xlink:href="#l"/>
<use x="44.083984" xlink:href="#e"/>
<use x="105.607422" xlink:href="#k"/>
<use x="144.970703" xlink:href="#j"/>
<use x="242.382812" xlink:href="#g"/>
<use x="270.166016" xlink:href="#h"/>
<use x="333.544922" xlink:href="#d"/>
<use x="394.824219" xlink:href="#i"/>
</g>
</g>
<path d="m204.78 721.3v33.808q0 2.4 2.4 2.4h7.7425q2.4 0 2.4-2.4v-33.808q0-2.4-2.4-2.4h-7.7425q-2.4 0-2.4 2.4z" clip-path="url(#a)" fill="#fff" stroke="#fff"/>
<g clip-path="url(#a)">
<g transform="translate(208.85 721.3) rotate(90) scale(.08 -.08)">
<use xlink:href="#l"/>
<use x="44.083984" xlink:href="#e"/>
<use x="105.607422" xlink:href="#k"/>
<use x="144.970703" xlink:href="#j"/>
<use x="242.382812" xlink:href="#g"/>
<use x="270.166016" xlink:href="#h"/>
<use x="333.544922" xlink:href="#d"/>
<use x="394.824219" xlink:href="#i"/>
</g>
</g>
<path d="m233.84 721.3v33.808q0 2.4 2.4 2.4h7.7425q2.4 0 2.4-2.4v-33.808q0-2.4-2.4-2.4h-7.7425q-2.4 0-2.4 2.4z" clip-path="url(#a)" fill="#fff" stroke="#fff"/>
<g clip-path="url(#a)">
<g transform="translate(237.9 721.3) rotate(90) scale(.08 -.08)">
<use xlink:href="#l"/>
<use x="44.083984" xlink:href="#e"/>
<use x="105.607422" xlink:href="#k"/>
<use x="144.970703" xlink:href="#j"/>
<use x="242.382812" xlink:href="#g"/>
<use x="270.166016" xlink:href="#h"/>
<use x="333.544922" xlink:href="#d"/>
<use x="394.824219" xlink:href="#i"/>
</g>
</g>
<path d="m265.54 721.3v33.808q0 2.4 2.4 2.4h7.7425q2.4 0 2.4-2.4v-33.808q0-2.4-2.4-2.4h-7.7425q-2.4 0-2.4 2.4z" clip-path="url(#a)" fill="#fff" stroke="#fff"/>
<g clip-path="url(#a)">
<g transform="translate(269.6 721.3) rotate(90) scale(.08 -.08)">
<use xlink:href="#l"/>
<use x="44.083984" xlink:href="#e"/>
<use x="105.607422" xlink:href="#k"/>
<use x="144.970703" xlink:href="#j"/>
<use x="242.382812" xlink:href="#g"/>
<use x="270.166016" xlink:href="#h"/>
<use x="333.544922" xlink:href="#d"/>
<use x="394.824219" xlink:href="#i"/>
</g>
</g>
<path d="m380.49 435.03 3.0477-4.5453q1.3366-1.9934-0.6568-3.33l-6.4307-4.3119q-1.9934-1.3366-3.33 0.6568l-3.0477 4.5453q-1.3366 1.9934 0.6568 3.33l6.4307 4.3119q1.9934 1.3366 3.33-0.6568z" clip-path="url(#a)" fill="#fff" stroke="#fff"/>
<g clip-path="url(#a)">
<g transform="translate(377.12 432.77) rotate(-56.158) scale(.08 -.08)">
<use xlink:href="#p"/>
</g>
</g>
<path d="m411.73 509.87 0.67774-4.5511q0.35351-2.3738-2.0203-2.7273l-7.658-1.1404q-2.3738-0.35351-2.7273 2.0203l-0.67774 4.5511q-0.35351 2.3738 2.0203 2.7273l7.658 1.1404q2.3738 0.35351 2.7273-2.0203z" clip-path="url(#a)" fill="#fff" stroke="#fff"/>
<g clip-path="url(#a)">
<g transform="translate(407.71 509.27) rotate(-81.53) scale(.08 -.08)">
<use xlink:href="#x"/>
</g>
</g>
<path d="m433.22 509.83 0.078623-6.1595q0.030632-2.3998-2.3692-2.4304l-7.7419-0.098821q-2.3998-0.030633-2.4304 2.3692l-0.078623 6.1595q-0.030632 2.3998 2.3692 2.4304l7.7419 0.098821q2.3998 0.030632 2.4304-2.3692z" clip-path="url(#a)" fill="#fff" stroke="#fff"/>
<g clip-path="url(#a)">
<g transform="translate(429.16 509.77) rotate(-89.269) scale(.08 -.08)">
<use xlink:href="#y"/>
</g>
</g>
<path d="m442.91 505.1 0.63079 4.7823q0.31384 2.3794 2.6932 2.0656l7.676-1.0125q2.3794-0.31384 2.0656-2.6932l-0.63079-4.7823q-0.31384-2.3794-2.6932-2.0656l-7.676 1.0125q-2.3794 0.31384-2.0656 2.6932z" clip-path="url(#a)" fill="#fff" stroke="#fff"/>
<g clip-path="url(#a)">
<g transform="translate(446.94 504.56) rotate(82.486) scale(.08 -.08)">
<use xlink:href="#v"/>
</g>
</g>
<path d="m479.09 430.75 3.2264 4.4202q1.415 1.9385 3.3535 0.52355l6.2538-4.5647q1.9385-1.415 0.52355-3.3535l-3.2264-4.4202q-1.415-1.9385-3.3535-0.52355l-6.2538 4.5647q-1.9385 1.415-0.52356 3.3535z" clip-path="url(#a)" fill="#fff" stroke="#fff"/>
<g clip-path="url(#a)">
<g transform="translate(482.37 428.36) rotate(53.874) scale(.08 -.08)">
<use xlink:href="#p"/>
</g>
</g>
<path d="m321.35 587.5 0.54573-4.5688q0.28465-2.3831-2.0984-2.6677l-7.6878-0.9183q-2.3831-0.28465-2.6677 2.0984l-0.54573 4.5688q-0.28465 2.3831 2.0984 2.6677l7.6878 0.9183q2.3831 0.28465 2.6677-2.0984z" clip-path="url(#a)" fill="#fff" stroke="#fff"/>
<g clip-path="url(#a)">
<g transform="translate(317.31 587.02) rotate(-83.188) scale(.08 -.08)">
<use xlink:href="#x"/>
</g>
</g>
<path d="m327.32 582.44 0.66255 5.5468q0.28465 2.3831 2.6677 2.0984l7.6879-0.9183q2.3831-0.28465 2.0984-2.6677l-0.66255-5.5468q-0.28465-2.3831-2.6677-2.0984l-7.6878 0.9183q-2.3831 0.28465-2.0984 2.6677z" clip-path="url(#a)" fill="#fff" stroke="#fff"/>
<g clip-path="url(#a)">
<g transform="translate(331.36 581.96) rotate(83.188) scale(.08 -.08)">
<use xlink:href="#s"/>
</g>
</g>
<path d="m376.48 721.3v33.808q0 2.4 2.4 2.4h7.7425q2.4 0 2.4-2.4v-33.808q0-2.4-2.4-2.4h-7.7425q-2.4 0-2.4 2.4z" clip-path="url(#a)" fill="#fff" stroke="#fff"/>
<g clip-path="url(#a)">
<g transform="translate(380.54 721.3) rotate(90) scale(.08 -.08)">
<use xlink:href="#l"/>
<use x="44.083984" xlink:href="#e"/>
<use x="105.607422" xlink:href="#k"/>
<use x="144.970703" xlink:href="#j"/>
<use x="242.382812" xlink:href="#g"/>
<use x="270.166016" xlink:href="#h"/>
<use x="333.544922" xlink:href="#d"/>
<use x="394.824219" xlink:href="#i"/>
</g>
</g>
<path d="m418.74 721.3v33.808q0 2.4 2.4 2.4h7.7425q2.4 0 2.4-2.4v-33.808q0-2.4-2.4-2.4h-7.7425q-2.4 0-2.4 2.4z" clip-path="url(#a)" fill="#fff" stroke="#fff"/>
<g clip-path="url(#a)">
<g transform="translate(422.8 721.3) rotate(90) scale(.08 -.08)">
<use xlink:href="#l"/>
<use x="44.083984" xlink:href="#e"/>
<use x="105.607422" xlink:href="#k"/>
<use x="144.970703" xlink:href="#j"/>
<use x="242.382812" xlink:href="#g"/>
<use x="270.166016" xlink:href="#h"/>
<use x="333.544922" xlink:href="#d"/>
<use x="394.824219" xlink:href="#i"/>
</g>
</g>
<path d="m463.65 721.3v33.808q0 2.4 2.4 2.4h7.7425q2.4 0 2.4-2.4v-33.808q0-2.4-2.4-2.4h-7.7425q-2.4 0-2.4 2.4z" clip-path="url(#a)" fill="#fff" stroke="#fff"/>
<g clip-path="url(#a)">
<g transform="translate(467.71 721.3) rotate(90) scale(.08 -.08)">
<use xlink:href="#l"/>
<use x="44.083984" xlink:href="#e"/>
<use x="105.607422" xlink:href="#k"/>
<use x="144.970703" xlink:href="#j"/>
<use x="242.382812" xlink:href="#g"/>
<use x="270.166016" xlink:href="#h"/>
<use x="333.544922" xlink:href="#d"/>
<use x="394.824219" xlink:href="#i"/>
</g>
</g>
<path d="m535.83 587.75 0.73628-4.542q0.38404-2.3691-1.985-2.7531l-7.6427-1.2389q-2.3691-0.38404-2.7531 1.985l-0.73628 4.542q-0.38404 2.3691 1.985 2.7531l7.6427 1.2389q2.3691 0.38404 2.7531-1.985z" clip-path="url(#a)" fill="#fff" stroke="#fff"/>
<g clip-path="url(#a)">
<g transform="translate(531.82 587.1) rotate(-80.792) scale(.08 -.08)">
<use xlink:href="#x"/>
</g>
</g>
<path d="m548.47 582.72 0.8939 5.5143q0.38404 2.3691 2.7531 1.985l7.6427-1.2389q2.3691-0.38404 1.985-2.7531l-0.8939-5.5143q-0.38404-2.3691-2.7531-1.985l-7.6427 1.2389q-2.3691 0.38404-1.985 2.7531z" clip-path="url(#a)" fill="#fff" stroke="#fff"/>
<g clip-path="url(#a)">
<g transform="translate(552.48 582.07) rotate(80.792) scale(.08 -.08)">
<use xlink:href="#s"/>
</g>
</g>
<path d="m511.19 721.3v33.808q0 2.4 2.4 2.4h7.7425q2.4 0 2.4-2.4v-33.808q0-2.4-2.4-2.4h-7.7425q-2.4 0-2.4 2.4z" clip-path="url(#a)" fill="#fff" stroke="#fff"/>
<g clip-path="url(#a)">
<g transform="translate(515.26 721.3) rotate(90) scale(.08 -.08)">
<use xlink:href="#l"/>
<use x="44.083984" xlink:href="#e"/>
<use x="105.607422" xlink:href="#k"/>
<use x="144.970703" xlink:href="#j"/>
<use x="242.382812" xlink:href="#g"/>
<use x="270.166016" xlink:href="#h"/>
<use x="333.544922" xlink:href="#d"/>
<use x="394.824219" xlink:href="#i"/>
</g>
</g>
<path d="m561.38 721.3v33.808q0 2.4 2.4 2.4h7.7425q2.4 0 2.4-2.4v-33.808q0-2.4-2.4-2.4h-7.7425q-2.4 0-2.4 2.4z" clip-path="url(#a)" fill="#fff" stroke="#fff"/>
<g clip-path="url(#a)">
<g transform="translate(565.44 721.3) rotate(90) scale(.08 -.08)">
<use xlink:href="#l"/>
<use x="44.083984" xlink:href="#e"/>
<use x="105.607422" xlink:href="#k"/>
<use x="144.970703" xlink:href="#j"/>
<use x="242.382812" xlink:href="#g"/>
<use x="270.166016" xlink:href="#h"/>
<use x="333.544922" xlink:href="#d"/>
<use x="394.824219" xlink:href="#i"/>
</g>
</g>
<path d="m299.87 721.3v33.808q0 2.4 2.4 2.4h7.7425q2.4 0 2.4-2.4v-33.808q0-2.4-2.4-2.4h-7.7425q-2.4 0-2.4 2.4z" clip-path="url(#a)" fill="#fff" stroke="#fff"/>
<g clip-path="url(#a)">
<g transform="translate(303.94 721.3) rotate(90) scale(.08 -.08)">
<use xlink:href="#l"/>
<use x="44.083984" xlink:href="#e"/>
<use x="105.607422" xlink:href="#k"/>
<use x="144.970703" xlink:href="#j"/>
<use x="242.382812" xlink:href="#g"/>
<use x="270.166016" xlink:href="#h"/>
<use x="333.544922" xlink:href="#d"/>
<use x="394.824219" xlink:href="#i"/>
</g>
</g>
<path d="m336.86 721.3v33.808q0 2.4 2.4 2.4h7.7425q2.4 0 2.4-2.4v-33.808q0-2.4-2.4-2.4h-7.7425q-2.4 0-2.4 2.4z" clip-path="url(#a)" fill="#fff" stroke="#fff"/>
<g clip-path="url(#a)">
<g transform="translate(340.92 721.3) rotate(90) scale(.08 -.08)">
<use xlink:href="#l"/>
<use x="44.083984" xlink:href="#e"/>
<use x="105.607422" xlink:href="#k"/>
<use x="144.970703" xlink:href="#j"/>
<use x="242.382812" xlink:href="#g"/>
<use x="270.166016" xlink:href="#h"/>
<use x="333.544922" xlink:href="#d"/>
<use x="394.824219" xlink:href="#i"/>
</g>
</g>
<path d="m67.426 721.3v33.808q0 2.4 2.4 2.4h7.7425q2.4 0 2.4-2.4v-33.808q0-2.4-2.4-2.4h-7.7425q-2.4 0-2.4 2.4z" clip-path="url(#a)" fill="#fff" stroke="#fff"/>
<g clip-path="url(#a)">
<g transform="translate(71.489 721.3) rotate(90) scale(.08 -.08)">
<use xlink:href="#l"/>
<use x="44.083984" xlink:href="#e"/>
<use x="105.607422" xlink:href="#k"/>
<use x="144.970703" xlink:href="#j"/>
<use x="242.382812" xlink:href="#g"/>
<use x="270.166016" xlink:href="#h"/>
<use x="333.544922" xlink:href="#d"/>
<use x="394.824219" xlink:href="#i"/>
</g>
</g>
<path d="m75.35 721.3v33.808q0 2.4 2.4 2.4h7.7425q2.4 0 2.4-2.4v-33.808q0-2.4-2.4-2.4h-7.7425q-2.4 0-2.4 2.4z" clip-path="url(#a)" fill="#fff" stroke="#fff"/>
<g clip-path="url(#a)">
<g transform="translate(79.414 721.3) rotate(90) scale(.08 -.08)">
<use xlink:href="#l"/>
<use x="44.083984" xlink:href="#e"/>
<use x="105.607422" xlink:href="#k"/>
<use x="144.970703" xlink:href="#j"/>
<use x="242.382812" xlink:href="#g"/>
<use x="270.166016" xlink:href="#h"/>
<use x="333.544922" xlink:href="#d"/>
<use x="394.824219" xlink:href="#i"/>
</g>
</g>
<path d="m85.916 721.3v33.808q0 2.4 2.4 2.4h7.7425q2.4 0 2.4-2.4v-33.808q0-2.4-2.4-2.4h-7.7425q-2.4 0-2.4 2.4z" clip-path="url(#a)" fill="#fff" stroke="#fff"/>
<g clip-path="url(#a)">
<g transform="translate(89.98 721.3) rotate(90) scale(.08 -.08)">
<use xlink:href="#l"/>
<use x="44.083984" xlink:href="#e"/>
<use x="105.607422" xlink:href="#k"/>
<use x="144.970703" xlink:href="#j"/>
<use x="242.382812" xlink:href="#g"/>
<use x="270.166016" xlink:href="#h"/>
<use x="333.544922" xlink:href="#d"/>
<use x="394.824219" xlink:href="#i"/>
</g>
</g>
<path d="m118.15 755.69 3.6824-33.606q0.26142-2.3857-2.1243-2.6471l-7.6964-0.84334q-2.3857-0.26142-2.6471 2.1243l-3.6824 33.606q-0.26142 2.3857 2.1243 2.6471l7.6964 0.84334q2.3857 0.26142 2.6471-2.1243z" clip-path="url(#a)" fill="#fff" stroke="#fff"/>
<g clip-path="url(#a)">
<g transform="translate(114.11 755.25) rotate(-83.747) scale(.08 -.08)">
<use xlink:href="#l"/>
<use x="44.083984" xlink:href="#e"/>
<use x="105.607422" xlink:href="#k"/>
<use x="144.970703" xlink:href="#j"/>
<use x="242.382812" xlink:href="#g"/>
<use x="270.166016" xlink:href="#h"/>
<use x="333.544922" xlink:href="#d"/>
<use x="394.824219" xlink:href="#i"/>
</g>
</g>
<path d="m127.86 755.15 0.19497-33.807q0.013841-2.4-2.3861-2.4138l-7.7424-0.044651q-2.4-0.013841-2.4138 2.3861l-0.19497 33.807q-0.013841 2.4 2.3861 2.4138l7.7424 0.044651q2.4 0.01384 2.4138-2.3861z" clip-path="url(#a)" fill="#fff" stroke="#fff"/>
<g clip-path="url(#a)">
<g transform="translate(123.79 755.12) rotate(-89.67) scale(.08 -.08)">
<use xlink:href="#l"/>
<use x="44.083984" xlink:href="#e"/>
<use x="105.607422" xlink:href="#k"/>
<use x="144.970703" xlink:href="#j"/>
<use x="242.382812" xlink:href="#g"/>
<use x="270.166016" xlink:href="#h"/>
<use x="333.544922" xlink:href="#d"/>
<use x="394.824219" xlink:href="#i"/>
</g>
</g>
<path d="m122.76 722.13 3.8737 33.585q0.275 2.3842 2.6592 2.1092l7.6915-0.88716q2.3842-0.275 2.1092-2.6592l-3.8737-33.585q-0.275-2.3842-2.6592-2.1092l-7.6915 0.88716q-2.3842 0.275-2.1092 2.6592z" clip-path="url(#a)" fill="#fff" stroke="#fff"/>
<g clip-path="url(#a)">
<g transform="translate(126.8 721.67) rotate(83.42) scale(.08 -.08)">
<use xlink:href="#l"/>
<use x="44.083984" xlink:href="#e"/>
<use x="105.607422" xlink:href="#k"/>
<use x="144.970703" xlink:href="#j"/>
<use x="242.382812" xlink:href="#g"/>
<use x="270.166016" xlink:href="#h"/>
<use x="333.544922" xlink:href="#d"/>
<use x="394.824219" xlink:href="#i"/>
</g>
</g>
<path d="m154.59 721.3v33.808q0 2.4 2.4 2.4h7.7425q2.4 0 2.4-2.4v-33.808q0-2.4-2.4-2.4h-7.7425q-2.4 0-2.4 2.4z" clip-path="url(#a)" fill="#fff" stroke="#fff"/>
<g clip-path="url(#a)">
<g transform="translate(158.66 721.3) rotate(90) scale(.08 -.08)">
<use xlink:href="#l"/>
<use x="44.083984" xlink:href="#e"/>
<use x="105.607422" xlink:href="#k"/>
<use x="144.970703" xlink:href="#j"/>
<use x="242.382812" xlink:href="#g"/>
<use x="270.166016" xlink:href="#h"/>
<use x="333.544922" xlink:href="#d"/>
<use x="394.824219" xlink:href="#i"/>
</g>
</g>
<path d="m614.21 721.3v33.808q0 2.4 2.4 2.4h7.7425q2.4 0 2.4-2.4v-33.808q0-2.4-2.4-2.4h-7.7425q-2.4 0-2.4 2.4z" clip-path="url(#a)" fill="#fff" stroke="#fff"/>
<g clip-path="url(#a)">
<g transform="translate(618.27 721.3) rotate(90) scale(.08 -.08)">
<use xlink:href="#l"/>
<use x="44.083984" xlink:href="#e"/>
<use x="105.607422" xlink:href="#k"/>
<use x="144.970703" xlink:href="#j"/>
<use x="242.382812" xlink:href="#g"/>
<use x="270.166016" xlink:href="#h"/>
<use x="333.544922" xlink:href="#d"/>
<use x="394.824219" xlink:href="#i"/>
</g>
</g>
<path d="m1541.4 721.3v33.808q0 2.4 2.4 2.4h7.7425q2.4 0 2.4-2.4v-33.808q0-2.4-2.4-2.4h-7.7425q-2.4 0-2.4 2.4z" clip-path="url(#a)" fill="#fff" stroke="#fff"/>
<g clip-path="url(#a)">
<g transform="translate(1545.4 721.3) rotate(90) scale(.08 -.08)">
<use xlink:href="#l"/>
<use x="44.083984" xlink:href="#e"/>
<use x="105.607422" xlink:href="#k"/>
<use x="144.970703" xlink:href="#j"/>
<use x="242.382812" xlink:href="#g"/>
<use x="270.166016" xlink:href="#h"/>
<use x="333.544922" xlink:href="#d"/>
<use x="394.824219" xlink:href="#i"/>
</g>
</g>
<defs>
<path id="b" d="m0 8.6603c2.2967 0 4.4997-0.9125 6.1237-2.5365 1.624-1.624 2.5365-3.827 2.5365-6.1237s-0.9125-4.4997-2.5365-6.1237c-1.624-1.624-3.827-2.5365-6.1237-2.5365s-4.4997 0.9125-6.1237 2.5365c-1.624 1.624-2.5365 3.827-2.5365 6.1237s0.9125 4.4997 2.5365 6.1237c1.624 1.624 3.827 2.5365 6.1237 2.5365z"/>
</defs>
<g clip-path="url(#a)" fill="#ffffff" stroke="#ffffff">
<use x="73.69697" y="814.545455" xlink:href="#b"/>
<use x="81.621375" y="814.545455" xlink:href="#b"/>
<use x="92.187249" y="814.545455" xlink:href="#b"/>
<use x="105.394591" y="814.545455" xlink:href="#b"/>
<use x="121.243402" y="814.545455" xlink:href="#b"/>
<use x="139.733681" y="814.545455" xlink:href="#b"/>
<use x="160.865428" y="814.545455" xlink:href="#b"/>
<use x="184.638645" y="814.545455" xlink:href="#b"/>
<use x="211.053329" y="814.545455" xlink:href="#b"/>
<use x="240.109482" y="814.545455" xlink:href="#b"/>
<use x="271.807103" y="814.545455" xlink:href="#b"/>
<use x="306.146193" y="814.545455" xlink:href="#b"/>
<use x="343.126751" y="814.545455" xlink:href="#b"/>
<use x="382.748778" y="814.545455" xlink:href="#b"/>
<use x="425.012273" y="814.545455" xlink:href="#b"/>
<use x="469.917237" y="814.545455" xlink:href="#b"/>
<use x="517.463669" y="814.545455" xlink:href="#b"/>
<use x="567.651569" y="814.545455" xlink:href="#b"/>
<use x="620.480938" y="814.545455" xlink:href="#b"/>
<use x="675.951776" y="814.545455" xlink:href="#b"/>
<use x="734.064082" y="814.545455" xlink:href="#b"/>
<use x="794.817856" y="814.545455" xlink:href="#b"/>
<use x="858.213099" y="814.545455" xlink:href="#b"/>
<use x="924.24981" y="814.545455" xlink:href="#b"/>
<use x="992.92799" y="814.545455" xlink:href="#b"/>
<use x="1064.247638" y="814.545455" xlink:href="#b"/>
<use x="1138.208754" y="814.545455" xlink:href="#b"/>
<use x="1214.811339" y="814.545455" xlink:href="#b"/>
<use x="1294.055393" y="814.545455" xlink:href="#b"/>
<use x="1375.940915" y="814.545455" xlink:href="#b"/>
<use x="1460.467905" y="814.545455" xlink:href="#b"/>
<use x="1547.636364" y="814.545455" xlink:href="#b"/>
<use x="571.956185" y="38.787879" xlink:href="#b"/>
<use x="92.407371" y="507.072715" xlink:href="#b"/>
<use x="184.638645" y="661.87102" xlink:href="#b"/>
<use x="287.986098" y="195.322692" xlink:href="#b"/>
<use x="675.951776" y="661.87102" xlink:href="#b"/>
<use x="888.810108" y="351.462508" xlink:href="#b"/>
<use x="1214.811339" y="661.87102" xlink:href="#b"/>
<use x="1021.653959" y="351.462508" xlink:href="#b"/>
<use x="1419.525144" y="507.072715" xlink:href="#b"/>
<use x="1294.055393" y="661.87102" xlink:href="#b"/>
<use x="1375.940915" y="661.87102" xlink:href="#b"/>
<use x="1460.467905" y="661.87102" xlink:href="#b"/>
<use x="734.064082" y="661.87102" xlink:href="#b"/>
<use x="794.817856" y="661.87102" xlink:href="#b"/>
<use x="925.130299" y="507.072715" xlink:href="#b"/>
<use x="1101.228196" y="507.072715" xlink:href="#b"/>
<use x="1064.247638" y="661.87102" xlink:href="#b"/>
<use x="1138.208754" y="661.87102" xlink:href="#b"/>
<use x="858.213099" y="661.87102" xlink:href="#b"/>
<use x="924.24981" y="661.87102" xlink:href="#b"/>
<use x="992.92799" y="661.87102" xlink:href="#b"/>
<use x="211.053329" y="661.87102" xlink:href="#b"/>
<use x="240.109482" y="661.87102" xlink:href="#b"/>
<use x="271.807103" y="661.87102" xlink:href="#b"/>
<use x="428.974476" y="351.462508" xlink:href="#b"/>
<use x="324.636472" y="507.072715" xlink:href="#b"/>
<use x="382.748778" y="661.87102" xlink:href="#b"/>
<use x="425.012273" y="661.87102" xlink:href="#b"/>
<use x="469.917237" y="661.87102" xlink:href="#b"/>
<use x="542.557619" y="507.072715" xlink:href="#b"/>
<use x="517.463669" y="661.87102" xlink:href="#b"/>
<use x="567.651569" y="661.87102" xlink:href="#b"/>
<use x="306.146193" y="661.87102" xlink:href="#b"/>
<use x="343.126751" y="661.87102" xlink:href="#b"/>
<use x="73.69697" y="661.87102" xlink:href="#b"/>
<use x="81.621375" y="661.87102" xlink:href="#b"/>
<use x="92.187249" y="661.87102" xlink:href="#b"/>
<use x="122.123891" y="661.87102" xlink:href="#b"/>
<use x="160.865428" y="661.87102" xlink:href="#b"/>
<use x="620.480938" y="661.87102" xlink:href="#b"/>
<use x="1547.636364" y="661.87102" xlink:href="#b"/>
</g>
<g clip-path="url(#a)">
<g transform="translate(55.518 817.3) scale(.1 -.1)">
<defs>
<path id="av" d="m30.609 48.391q-7.2188 0-11.422-5.6406t-4.2031-15.453 4.1719-15.453q4.1875-5.6406 11.453-5.6406 7.1875 0 11.375 5.6562 4.2031 5.6719 4.2031 15.438 0 9.7188-4.2031 15.406-4.1875 5.6875-11.375 5.6875zm0 7.6094q11.719 0 18.406-7.625 6.7031-7.6094 6.7031-21.078 0-13.422-6.7031-21.078-6.6875-7.6406-18.406-7.6406-11.766 0-18.438 7.6406-6.6562 7.6562-6.6562 21.078 0 13.469 6.6562 21.078 6.6719 7.625 18.438 7.625z"/>
<path id="m" d="m44.281 53.078v-8.5q-3.7969 1.9531-7.9062 2.9219-4.0938 0.98438-8.5 0.98438-6.6875 0-10.031-2.0469t-3.3438-6.1562q0-3.125 2.3906-4.9062t9.625-3.3906l3.0781-0.6875q9.5625-2.0469 13.594-5.7812t4.0312-10.422q0-7.625-6.0312-12.078-6.0312-4.4375-16.578-4.4375-4.3906 0-9.1562 0.85938t-10.031 2.5625v9.2812q4.9844-2.5938 9.8125-3.8906 4.8281-1.2812 9.5781-1.2812 6.3438 0 9.75 2.1719 3.4219 2.1719 3.4219 6.125 0 3.6562-2.4688 5.6094-2.4531 1.9531-10.812 3.7656l-3.125 0.73438q-8.3438 1.75-12.062 5.3906-3.7031 3.6406-3.7031 9.9844 0 7.7188 5.4688 11.906 5.4688 4.2031 15.531 4.2031 4.9688 0 9.3594-0.73438 4.4062-0.71875 8.1094-2.1875z"/>
</defs>
<use xlink:href="#s"/>
<use x="69.824219" xlink:href="#av"/>
<use x="131.005859" xlink:href="#h"/>
<use x="194.384766" xlink:href="#m"/>
<use x="246.484375" xlink:href="#e"/>
<use x="308.007812" xlink:href="#g"/>
<use x="335.791016" xlink:href="#i"/>
</g>
</g>
<g clip-path="url(#a)">
<g transform="translate(73.884 817.3) scale(.1 -.1)">
<defs>
<path id="r" d="m45.406 46.391v29.594h8.9844v-75.984h-8.9844v8.2031q-2.8281-4.875-7.1562-7.25-4.3125-2.375-10.375-2.375-9.9062 0-16.141 7.9062-6.2188 7.9219-6.2188 20.812t6.2188 20.797q6.2344 7.9062 16.141 7.9062 6.0625 0 10.375-2.375 4.3281-2.3594 7.1562-7.2344zm-30.609-19.094q0-9.9062 4.0781-15.547t11.203-5.6406 11.219 5.6406q4.1094 5.6406 4.1094 15.547t-4.1094 15.547q-4.0938 5.6406-11.219 5.6406t-11.203-5.6406-4.0781-15.547z"/>
</defs>
<use xlink:href="#r"/>
<use x="63.476562" xlink:href="#g"/>
<use x="91.259766" xlink:href="#r"/>
</g>
</g>
<g clip-path="url(#a)">
<g transform="translate(79.111 817.3) scale(.1 -.1)">
<defs>
<path id="t" d="m18.312 70.219v-15.531h18.5v-6.9844h-18.5v-29.688q0-6.6875 1.8281-8.5938t7.4531-1.9062h9.2188v-7.5156h-9.2188q-10.406 0-14.359 3.875-3.9531 3.8906-3.9531 14.141v29.688h-6.5938v6.9844h6.5938v15.531z"/>
<path id="u" d="m54.891 33.016v-33.016h-8.9844v32.719q0 7.7656-3.0312 11.609-3.0312 3.8594-9.0781 3.8594-7.2812 0-11.484-4.6406-4.2031-4.625-4.2031-12.641v-30.906h-9.0312v75.984h9.0312v-29.797q3.2344 4.9375 7.5938 7.375 4.375 2.4375 10.094 2.4375 9.4219 0 14.25-5.8281 4.8438-5.8281 4.8438-17.156z"/>
</defs>
<use xlink:href="#t"/>
<use x="39.208984" xlink:href="#u"/>
<use x="102.587891" xlink:href="#e"/>
<use x="164.111328" xlink:href="#j"/>
</g>
</g>
<g clip-path="url(#a)">
<g transform="translate(100.84 817.3) scale(.1 -.1)">
<use xlink:href="#g"/>
<use x="27.783203" xlink:href="#h"/>
</g>
</g>
<g clip-path="url(#a)">
<g transform="translate(118.18 817.3) scale(.1 -.1)">
<use xlink:href="#d"/>
</g>
</g>
<g clip-path="url(#a)">
<g transform="translate(127.75 817.3) scale(.1 -.1)">
<defs>
<path id="am" d="m37.109 75.984v-7.4844h-8.5938q-4.8281 0-6.7188-1.9531-1.875-1.9531-1.875-7.0312v-4.8281h14.797v-6.9844h-14.797v-47.703h-9.0312v47.703h-8.5938v6.9844h8.5938v3.8125q0 9.125 4.25 13.297 4.25 4.1875 13.469 4.1875z"/>
</defs>
<use xlink:href="#am"/>
<use x="35.205078" xlink:href="#i"/>
<use x="62.988281" xlink:href="#d"/>
<use x="124.267578" xlink:href="#m"/>
<use x="176.367188" xlink:href="#u"/>
</g>
</g>
<g clip-path="url(#a)">
<g transform="translate(159.28 817.3) scale(.1 -.1)">
<defs>
<path id="al" d="m11.719 12.406h10.297v-8.4062l-8-15.625h-6.2969l4 15.625z"/>
</defs>
<use xlink:href="#al"/>
</g>
</g>
<g clip-path="url(#a)">
<g transform="translate(175.23 817.3) scale(.1 -.1)">
<use xlink:href="#d"/>
<use x="61.279297" xlink:href="#h"/>
<use x="124.658203" xlink:href="#r"/>
</g>
</g>
<g clip-path="url(#a)">
<g transform="translate(209.58 817.3) scale(.1 -.1)">
<defs>
<path id="ao" d="m9.8125 72.906h9.8594v-72.906h-9.8594z"/>
</defs>
<use xlink:href="#ao"/>
</g>
</g>
<g clip-path="url(#a)">
<g transform="translate(230.35 817.3) scale(.1 -.1)">
<defs>
<path id="at" d="m4.2031 54.688h8.9844l11.234-42.672 11.172 42.672h10.594l11.234-42.672 11.188 42.672h8.9844l-14.312-54.688h-10.594l-11.766 44.828-11.812-44.828h-10.609z"/>
</defs>
<use xlink:href="#at"/>
<use x="81.787109" xlink:href="#d"/>
<use x="143.066406" xlink:href="#m"/>
</g>
</g>
<g clip-path="url(#a)">
<g transform="translate(261.01 817.3) scale(.1 -.1)">
<defs>
<path id="ah" d="m8.5 21.578v33.109h8.9844v-32.766q0-7.7656 3.0156-11.656 3.0312-3.875 9.0938-3.875 7.2656 0 11.484 4.6406 4.2344 4.6406 4.2344 12.656v31h8.9844v-54.688h-8.9844v8.4062q-3.2656-4.9844-7.5938-7.4062-4.3125-2.4219-10.031-2.4219-9.4219 0-14.312 5.8594-4.875 5.8594-4.875 17.141z"/>
</defs>
<use xlink:href="#m"/>
<use x="52.099609" xlink:href="#ah"/>
<use x="115.478516" xlink:href="#k"/>
<use x="154.341797" xlink:href="#e"/>
</g>
</g>
<g clip-path="url(#a)">
<g transform="translate(297.94 817.3) scale(.1 -.1)">
<use xlink:href="#t"/>
<use x="39.208984" xlink:href="#u"/>
<use x="102.587891" xlink:href="#e"/>
</g>
</g>
<g clip-path="url(#a)">
<g transform="translate(335.5 817.3) scale(.1 -.1)">
<use xlink:href="#i"/>
<use x="27.783203" xlink:href="#d"/>
<use x="89.0625" xlink:href="#r"/>
</g>
</g>
<g clip-path="url(#a)">
<g transform="translate(373.34 817.3) scale(.1 -.1)">
<use xlink:href="#u"/>
<use x="63.378906" xlink:href="#d"/>
<use x="124.658203" xlink:href="#r"/>
</g>
</g>
<g clip-path="url(#a)">
<g transform="translate(418.51 817.3) scale(.1 -.1)">
<defs>
<path id="aq" d="m17.922 72.906v-27.109h-8.2969v27.109z"/>
</defs>
<use xlink:href="#h"/>
<use x="63.378906" xlink:href="#aq"/>
<use x="90.869141" xlink:href="#t"/>
</g>
</g>
<g clip-path="url(#a)">
<g transform="translate(452.2 817.3) scale(.1 -.1)">
<use xlink:href="#j"/>
<use x="97.412109" xlink:href="#g"/>
<use x="125.195312" xlink:href="#m"/>
<use x="177.294922" xlink:href="#m"/>
<use x="229.394531" xlink:href="#e"/>
<use x="290.917969" xlink:href="#r"/>
</g>
</g>
<g clip-path="url(#a)">
<g transform="translate(514.4 817.3) scale(.1 -.1)">
<use xlink:href="#d"/>
</g>
</g>
<g clip-path="url(#a)">
<g transform="translate(554.79 817.3) scale(.1 -.1)">
<defs>
<path id="aw" d="m45.406 27.984q0 9.7656-4.0312 15.125-4.0156 5.375-11.297 5.375-7.2188 0-11.25-5.375-4.0312-5.3594-4.0312-15.125 0-9.7188 4.0312-15.094t11.25-5.375q7.2812 0 11.297 5.375 4.0312 5.375 4.0312 15.094zm8.9844-21.203q0-13.953-6.2031-20.766-6.1875-6.8125-18.984-6.8125-4.7344 0-8.9375 0.70312t-8.1562 2.1719v8.7344q3.9531-2.1406 7.8125-3.1562 3.8594-1.0312 7.8594-1.0312 8.8438 0 13.234 4.6094t4.3906 13.938v4.4531q-2.7812-4.8438-7.125-7.2344t-10.406-2.3906q-10.047 0-16.203 7.6562-6.1562 7.6719-6.1562 20.328 0 12.688 6.1562 20.344 6.1562 7.6719 16.203 7.6719 6.0625 0 10.406-2.3906t7.125-7.2188v8.2969h8.9844z"/>
</defs>
<use xlink:href="#t"/>
<use x="39.208984" xlink:href="#u"/>
<use x="102.587891" xlink:href="#g"/>
<use x="130.371094" xlink:href="#h"/>
<use x="193.75" xlink:href="#aw"/>
</g>
</g>
<g clip-path="url(#a)">
<g transform="translate(618.89 817.3) scale(.1 -.1)">
<use xlink:href="#al"/>
</g>
</g>
<g clip-path="url(#a)">
<g transform="translate(655.04 817.3) scale(.1 -.1)">
<defs>
<path id="aj" d="m48.688 27.297q0 9.9062-4.0781 15.547t-11.203 5.6406q-7.1406 0-11.219-5.6406t-4.0781-15.547 4.0781-15.547 11.219-5.6406q7.125 0 11.203 5.6406t4.0781 15.547zm-30.578 19.094q2.8438 4.875 7.1562 7.2344 4.3281 2.375 10.328 2.375 9.9688 0 16.188-7.9062 6.2344-7.9062 6.2344-20.797t-6.2344-20.812q-6.2188-7.9062-16.188-7.9062-6 0-10.328 2.375-4.3125 2.375-7.1562 7.25v-8.2031h-9.0312v75.984h9.0312z"/>
<path id="ai" d="m48.781 52.594v-8.4062q-3.8125 2.1094-7.6406 3.1562t-7.7344 1.0469q-8.75 0-13.594-5.5469-4.8281-5.5312-4.8281-15.547t4.8281-15.562q4.8438-5.5312 13.594-5.5312 3.9062 0 7.7344 1.0469t7.6406 3.1562v-8.3125q-3.7656-1.75-7.7969-2.625-4.0156-0.89062-8.5625-0.89062-12.359 0-19.641 7.7656-7.2656 7.7656-7.2656 20.953 0 13.375 7.3438 21.031 7.3594 7.6719 20.156 7.6719 4.1406 0 8.0938-0.85938 3.9531-0.84375 7.6719-2.5469z"/>
</defs>
<use xlink:href="#aj"/>
<use x="63.476562" xlink:href="#e"/>
<use x="125" xlink:href="#ai"/>
<use x="179.980469" xlink:href="#d"/>
<use x="241.259766" xlink:href="#ah"/>
<use x="304.638672" xlink:href="#m"/>
<use x="356.738281" xlink:href="#e"/>
</g>
</g>
<g clip-path="url(#a)">
<g transform="translate(727.82 817.3) scale(.1 -.1)">
<use xlink:href="#u"/>
<use x="63.378906" xlink:href="#e"/>
</g>
</g>
<g clip-path="url(#a)">
<g transform="translate(771.62 817.3) scale(.1 -.1)">
<use xlink:href="#ai"/>
<use x="54.980469" xlink:href="#i"/>
<use x="82.763672" xlink:href="#d"/>
<use x="144.042969" xlink:href="#m"/>
<use x="196.142578" xlink:href="#m"/>
<use x="248.242188" xlink:href="#g"/>
<use x="276.025391" xlink:href="#am"/>
<use x="311.230469" xlink:href="#g"/>
<use x="339.013672" xlink:href="#e"/>
<use x="400.537109" xlink:href="#r"/>
</g>
</g>
<g clip-path="url(#a)">
<g transform="translate(844.43 817.3) scale(.1 -.1)">
<use xlink:href="#m"/>
<use x="52.099609" xlink:href="#u"/>
<use x="115.478516" xlink:href="#g"/>
<use x="143.261719" xlink:href="#k"/>
<use x="184.375" xlink:href="#t"/>
<use x="223.583984" xlink:href="#m"/>
</g>
</g>
<g clip-path="url(#a)">
<g transform="translate(914.84 817.3) scale(.1 -.1)">
<use xlink:href="#d"/>
<use x="61.279297" xlink:href="#h"/>
<use x="124.658203" xlink:href="#r"/>
</g>
</g>
<g clip-path="url(#a)">
<g transform="translate(981.2 817.3) scale(.1 -.1)">
<use xlink:href="#m"/>
<use x="52.099609" xlink:href="#ah"/>
<use x="115.478516" xlink:href="#g"/>
<use x="143.261719" xlink:href="#t"/>
<use x="182.470703" xlink:href="#m"/>
</g>
</g>
<g clip-path="url(#a)">
<g transform="translate(1058.6 817.3) scale(.1 -.1)">
<use xlink:href="#d"/>
<use x="61.279297" xlink:href="#m"/>
</g>
</g>
<g clip-path="url(#a)">
<g transform="translate(1117.6 817.3) scale(.1 -.1)">
<defs>
<path id="as" d="m54.891 54.688-19.781-26.609 20.797-28.078h-10.594l-15.922 21.484-15.906-21.484h-10.609l21.25 28.609-19.438 26.078h10.594l14.5-19.484 14.5 19.484z"/>
<path id="au" d="m18.109 8.2031v-29h-9.0312v75.484h9.0312v-8.2969q2.8438 4.875 7.1562 7.2344 4.3281 2.375 10.328 2.375 9.9688 0 16.188-7.9062 6.2344-7.9062 6.2344-20.797t-6.2344-20.812q-6.2188-7.9062-16.188-7.9062-6 0-10.328 2.375-4.3125 2.375-7.1562 7.25zm30.578 19.094q0 9.9062-4.0781 15.547t-11.203 5.6406q-7.1406 0-11.219-5.6406t-4.0781-15.547 4.0781-15.547 11.219-5.6406q7.125 0 11.203 5.6406t4.0781 15.547z"/>
<path id="ar" d="m32.172-5.0781q-3.7969-9.7656-7.4219-12.734-3.6094-2.9844-9.6562-2.9844h-7.1875v7.5156h5.2812q3.7031 0 5.75 1.7656 2.0625 1.75 4.5469 8.2969l1.6094 4.0938-22.109 53.812h9.5156l17.094-42.766 17.094 42.766h9.5156z"/>
</defs>
<use xlink:href="#e"/>
<use x="59.773438" xlink:href="#as"/>
<use x="118.953125" xlink:href="#au"/>
<use x="182.429688" xlink:href="#e"/>
<use x="243.953125" xlink:href="#k"/>
<use x="285.066406" xlink:href="#t"/>
<use x="324.275391" xlink:href="#i"/>
<use x="352.058594" xlink:href="#ar"/>
</g>
</g>
<g clip-path="url(#a)">
<g transform="translate(1209.1 817.3) scale(.1 -.1)">
<use xlink:href="#d"/>
<use x="61.279297" xlink:href="#m"/>
</g>
</g>
<g clip-path="url(#a)">
<g transform="translate(1281.7 817.3) scale(.1 -.1)">
<use xlink:href="#aj"/>
<use x="63.476562" xlink:href="#g"/>
<use x="91.259766" xlink:href="#k"/>
<use x="130.623047" xlink:href="#r"/>
<use x="194.099609" xlink:href="#m"/>
</g>
</g>
<g clip-path="url(#a)">
<g transform="translate(1366.5 817.3) scale(.1 -.1)">
<use xlink:href="#d"/>
<use x="61.279297" xlink:href="#h"/>
<use x="124.658203" xlink:href="#r"/>
</g>
</g>
<g clip-path="url(#a)">
<g transform="translate(1435.7 817.3) scale(.1 -.1)">
<use xlink:href="#j"/>
<use x="97.412109" xlink:href="#d"/>
<use x="158.691406" xlink:href="#j"/>
<use x="256.103516" xlink:href="#j"/>
<use x="353.515625" xlink:href="#d"/>
<use x="414.794922" xlink:href="#i"/>
<use x="442.578125" xlink:href="#m"/>
</g>
</g>
<g clip-path="url(#a)">
<g transform="translate(1546 817.3) scale(.1 -.1)">
<defs>
<path id="f" d="m10.688 12.406h10.312v-12.406h-10.312z"/>
</defs>
<use xlink:href="#f"/>
</g>
</g>
<g clip-path="url(#a)">
<g transform="translate(564 41.547) scale(.1 -.1)">
<defs>
<path id="c" d="m12.406 8.2969h16.109v55.625l-17.531-3.5156v8.9844l17.438 3.5156h9.8594v-64.609h16.109v-8.2969h-41.984z"/>
</defs>
<use xlink:href="#c"/>
<use x="63.623047" xlink:href="#f"/>
<use x="95.410156" xlink:href="#c"/>
</g>
</g>
<g clip-path="url(#a)">
<g transform="translate(84.456 509.83) scale(.1 -.1)">
<defs>
<path id="o" d="m19.188 8.2969h34.422v-8.2969h-46.281v8.2969q5.6094 5.8125 15.297 15.594 9.7031 9.7969 12.188 12.641 4.7344 5.3125 6.6094 9 1.8906 3.6875 1.8906 7.25 0 5.8125-4.0781 9.4688-4.0781 3.6719-10.625 3.6719-4.6406 0-9.7969-1.6094-5.1406-1.6094-11-4.8906v9.9688q5.9531 2.3906 11.125 3.6094 5.1875 1.2188 9.4844 1.2188 11.328 0 18.062-5.6719 6.7344-5.6562 6.7344-15.125 0-4.5-1.6875-8.5312-1.6719-4.0156-6.125-9.4844-1.2188-1.4219-7.7656-8.1875-6.5312-6.7656-18.453-18.922z"/>
</defs>
<use xlink:href="#c"/>
<use x="63.623047" xlink:href="#f"/>
<use x="95.410156" xlink:href="#o"/>
</g>
</g>
<g clip-path="url(#a)">
<g transform="translate(176.69 664.63) scale(.1 -.1)">
<defs>
<path id="n" d="m40.578 39.312q7.0781-1.5156 11.047-6.3125 3.9844-4.7812 3.9844-11.812 0-10.781-7.4219-16.703-7.4219-5.9062-21.094-5.9062-4.5781 0-9.4375 0.90625t-10.031 2.7188v9.5156q4.0938-2.3906 8.9688-3.6094 4.8906-1.2188 10.219-1.2188 9.2656 0 14.125 3.6562t4.8594 10.641q0 6.4531-4.5156 10.078-4.5156 3.6406-12.562 3.6406h-8.5v8.1094h8.8906q7.2656 0 11.125 2.9062t3.8594 8.375q0 5.6094-3.9844 8.6094-3.9688 3.0156-11.391 3.0156-4.0625 0-8.7031-0.89062-4.6406-0.875-10.203-2.7188v8.7812q5.625 1.5625 10.531 2.3438t9.25 0.78125q11.234 0 17.766-5.1094 6.5469-5.0938 6.5469-13.781 0-6.0625-3.4688-10.234t-9.8594-5.7812z"/>
</defs>
<use xlink:href="#c"/>
<use x="63.623047" xlink:href="#f"/>
<use x="95.410156" xlink:href="#n"/>
</g>
</g>
<g clip-path="url(#a)">
<g transform="translate(280.03 198.08) scale(.1 -.1)">
<defs>
<path id="q" d="m37.797 64.312-24.906-38.922h24.906zm-2.5938 8.5938h12.406v-47.516h10.406v-8.2031h-10.406v-17.188h-9.8125v17.188h-32.906v9.5156z"/>
</defs>
<use xlink:href="#c"/>
<use x="63.623047" xlink:href="#f"/>
<use x="95.410156" xlink:href="#q"/>
</g>
</g>
<g clip-path="url(#a)">
<g transform="translate(668 664.63) scale(.1 -.1)">
<defs>
<path id="af" d="m10.797 72.906h38.719v-8.3125h-29.688v-17.859q2.1406 0.73438 4.2812 1.0938 2.1562 0.35938 4.3125 0.35938 12.203 0 19.328-6.6875 7.1406-6.6875 7.1406-18.109 0-11.766-7.3281-18.297-7.3281-6.5156-20.656-6.5156-4.5938 0-9.3594 0.78125-4.75 0.78125-9.8281 2.3438v9.9219q4.3906-2.3906 9.0781-3.5625t9.9062-1.1719q8.4531 0 13.375 4.4375 4.9375 4.4375 4.9375 12.062 0 7.6094-4.9375 12.047-4.9219 4.4531-13.375 4.4531-3.9531 0-7.8906-0.875-3.9219-0.875-8.0156-2.7344z"/>
</defs>
<use xlink:href="#c"/>
<use x="63.623047" xlink:href="#f"/>
<use x="95.410156" xlink:href="#af"/>
</g>
</g>
<g clip-path="url(#a)">
<g transform="translate(880.86 354.22) scale(.1 -.1)">
<defs>
<path id="ab" d="m33.016 40.375q-6.6406 0-10.531-4.5469-3.875-4.5312-3.875-12.438 0-7.8594 3.875-12.438 3.8906-4.5625 10.531-4.5625t10.516 4.5625q3.875 4.5781 3.875 12.438 0 7.9062-3.875 12.438-3.875 4.5469-10.516 4.5469zm19.578 30.922v-8.9844q-3.7188 1.75-7.5 2.6719-3.7812 0.9375-7.5 0.9375-9.7656 0-14.922-6.5938-5.1406-6.5938-5.875-19.922 2.875 4.25 7.2188 6.5156 4.3594 2.2656 9.5781 2.2656 10.984 0 17.359-6.6719 6.375-6.6562 6.375-18.125 0-11.234-6.6406-18.031-6.6406-6.7812-17.672-6.7812-12.656 0-19.344 9.6875-6.6875 9.7031-6.6875 28.109 0 17.281 8.2031 27.562t22.016 10.281q3.7188 0 7.5-0.73438t7.8906-2.1875z"/>
</defs>
<use xlink:href="#c"/>
<use x="63.623047" xlink:href="#f"/>
<use x="95.410156" xlink:href="#ab"/>
</g>
</g>
<g clip-path="url(#a)">
<g transform="translate(1206.9 664.63) scale(.1 -.1)">
<defs>
<path id="aa" d="m8.2031 72.906h46.875v-4.2031l-26.469-68.703h-10.297l24.906 64.594h-35.016z"/>
</defs>
<use xlink:href="#c"/>
<use x="63.623047" xlink:href="#f"/>
<use x="95.410156" xlink:href="#aa"/>
</g>
</g>
<g clip-path="url(#a)">
<g transform="translate(1013.7 354.22) scale(.1 -.1)">
<defs>
<path id="z" d="m31.781 34.625q-7.0312 0-11.062-3.7656-4.0156-3.7656-4.0156-10.344 0-6.5938 4.0156-10.359 4.0312-3.7656 11.062-3.7656t11.078 3.7812q4.0625 3.7969 4.0625 10.344 0 6.5781-4.0312 10.344-4.0156 3.7656-11.109 3.7656zm-9.8594 4.1875q-6.3438 1.5625-9.8906 5.9062-3.5312 4.3594-3.5312 10.609 0 8.7344 6.2188 13.812 6.2344 5.0781 17.062 5.0781 10.891 0 17.094-5.0781t6.2031-13.812q0-6.25-3.5469-10.609-3.5312-4.3438-9.8281-5.9062 7.125-1.6562 11.094-6.5 3.9844-4.8281 3.9844-11.797 0-10.609-6.4688-16.281-6.4688-5.6562-18.531-5.6562-12.047 0-18.531 5.6562-6.4688 5.6719-6.4688 16.281 0 6.9688 4 11.797 4.0156 4.8438 11.141 6.5zm-3.6094 15.578q0-5.6562 3.5312-8.8281 3.5469-3.1719 9.9375-3.1719 6.3594 0 9.9375 3.1719 3.5938 3.1719 3.5938 8.8281 0 5.6719-3.5938 8.8438-3.5781 3.1719-9.9375 3.1719-6.3906 0-9.9375-3.1719-3.5312-3.1719-3.5312-8.8438z"/>
</defs>
<use xlink:href="#c"/>
<use x="63.623047" xlink:href="#f"/>
<use x="95.410156" xlink:href="#z"/>
</g>
</g>
<g clip-path="url(#a)">
<g transform="translate(1408.4 509.83) scale(.1 -.1)">
<use xlink:href="#c"/>
<use x="63.623047" xlink:href="#f"/>
<use x="95.410156" xlink:href="#c"/>
<use x="159.033203" xlink:href="#c"/>
</g>
</g>
<g clip-path="url(#a)">
<g transform="translate(1282.9 664.63) scale(.1 -.1)">
<use xlink:href="#c"/>
<use x="63.623047" xlink:href="#f"/>
<use x="95.410156" xlink:href="#c"/>
<use x="159.033203" xlink:href="#o"/>
</g>
</g>
<g clip-path="url(#a)">
<g transform="translate(1364.8 664.63) scale(.1 -.1)">
<use xlink:href="#c"/>
<use x="63.623047" xlink:href="#f"/>
<use x="95.410156" xlink:href="#c"/>
<use x="159.033203" xlink:href="#n"/>
</g>
</g>
<g clip-path="url(#a)">
<g transform="translate(1449.3 664.63) scale(.1 -.1)">
<use xlink:href="#c"/>
<use x="63.623047" xlink:href="#f"/>
<use x="95.410156" xlink:href="#c"/>
<use x="159.033203" xlink:href="#q"/>
</g>
</g>
<g clip-path="url(#a)">
<g transform="translate(722.93 664.63) scale(.1 -.1)">
<use xlink:href="#c"/>
<use x="63.623047" xlink:href="#f"/>
<use x="95.410156" xlink:href="#c"/>
<use x="159.033203" xlink:href="#ab"/>
</g>
</g>
<g clip-path="url(#a)">
<g transform="translate(783.69 664.63) scale(.1 -.1)">
<use xlink:href="#c"/>
<use x="63.623047" xlink:href="#f"/>
<use x="95.410156" xlink:href="#c"/>
<use x="159.033203" xlink:href="#aa"/>
</g>
</g>
<g clip-path="url(#a)">
<g transform="translate(914 509.83) scale(.1 -.1)">
<use xlink:href="#c"/>
<use x="63.623047" xlink:href="#f"/>
<use x="95.410156" xlink:href="#c"/>
<use x="159.033203" xlink:href="#z"/>
</g>
</g>
<g clip-path="url(#a)">
<g transform="translate(1090.1 509.83) scale(.1 -.1)">
<defs>
<path id="ae" d="m10.984 1.5156v8.9844q3.7188-1.7656 7.5156-2.6875 3.8125-0.92188 7.4844-0.92188 9.7656 0 14.906 6.5625 5.1562 6.5625 5.8906 19.953-2.8281-4.2031-7.1875-6.4531-4.3438-2.25-9.6094-2.25-10.938 0-17.312 6.6094-6.375 6.625-6.375 18.109 0 11.219 6.6406 18 6.6406 6.7969 17.672 6.7969 12.656 0 19.312-9.7031 6.6719-9.6875 6.6719-28.141 0-17.234-8.1875-27.516-8.1719-10.281-21.984-10.281-3.7188 0-7.5312 0.73438-3.7969 0.73438-7.9062 2.2031zm19.625 30.906q6.6406 0 10.516 4.5312 3.8906 4.5469 3.8906 12.469 0 7.8594-3.8906 12.422-3.875 4.5625-10.516 4.5625t-10.516-4.5625-3.875-12.422q0-7.9219 3.875-12.469 3.875-4.5312 10.516-4.5312z"/>
</defs>
<use xlink:href="#c"/>
<use x="63.623047" xlink:href="#f"/>
<use x="95.410156" xlink:href="#c"/>
<use x="159.033203" xlink:href="#ae"/>
</g>
</g>
<g clip-path="url(#a)">
<g transform="translate(1053.1 664.63) scale(.1 -.1)">
<defs>
<path id="ag" d="m31.781 66.406q-7.6094 0-11.453-7.5-3.8281-7.4844-3.8281-22.531 0-14.984 3.8281-22.484 3.8438-7.5 11.453-7.5 7.6719 0 11.5 7.5 3.8438 7.5 3.8438 22.484 0 15.047-3.8438 22.531-3.8281 7.5-11.5 7.5zm0 7.8125q12.266 0 18.734-9.7031 6.4688-9.6875 6.4688-28.141 0-18.406-6.4688-28.109-6.4688-9.6875-18.734-9.6875-12.25 0-18.719 9.6875-6.4688 9.7031-6.4688 28.109 0 18.453 6.4688 28.141 6.4688 9.7031 18.719 9.7031z"/>
</defs>
<use xlink:href="#c"/>
<use x="63.623047" xlink:href="#f"/>
<use x="95.410156" xlink:href="#o"/>
<use x="159.033203" xlink:href="#ag"/>
</g>
</g>
<g clip-path="url(#a)">
<g transform="translate(1127.1 664.63) scale(.1 -.1)">
<use xlink:href="#c"/>
<use x="63.623047" xlink:href="#f"/>
<use x="95.410156" xlink:href="#o"/>
<use x="159.033203" xlink:href="#c"/>
</g>
</g>
<g clip-path="url(#a)">
<g transform="translate(847.08 664.63) scale(.1 -.1)">
<use xlink:href="#c"/>
<use x="63.623047" xlink:href="#f"/>
<use x="95.410156" xlink:href="#o"/>
<use x="159.033203" xlink:href="#o"/>
</g>
</g>
<g clip-path="url(#a)">
<g transform="translate(913.12 664.63) scale(.1 -.1)">
<use xlink:href="#c"/>
<use x="63.623047" xlink:href="#f"/>
<use x="95.410156" xlink:href="#o"/>
<use x="159.033203" xlink:href="#n"/>
</g>
</g>
<g clip-path="url(#a)">
<g transform="translate(981.8 664.63) scale(.1 -.1)">
<use xlink:href="#c"/>
<use x="63.623047" xlink:href="#f"/>
<use x="95.410156" xlink:href="#o"/>
<use x="159.033203" xlink:href="#q"/>
</g>
</g>
<g clip-path="url(#a)">
<g transform="translate(199.92 664.63) scale(.1 -.1)">
<use xlink:href="#c"/>
<use x="63.623047" xlink:href="#f"/>
<use x="95.410156" xlink:href="#o"/>
<use x="159.033203" xlink:href="#af"/>
</g>
</g>
<g clip-path="url(#a)">
<g transform="translate(228.98 664.63) scale(.1 -.1)">
<use xlink:href="#c"/>
<use x="63.623047" xlink:href="#f"/>
<use x="95.410156" xlink:href="#o"/>
<use x="159.033203" xlink:href="#ab"/>
</g>
</g>
<g clip-path="url(#a)">
<g transform="translate(260.67 664.63) scale(.1 -.1)">
<use xlink:href="#c"/>
<use x="63.623047" xlink:href="#f"/>
<use x="95.410156" xlink:href="#o"/>
<use x="159.033203" xlink:href="#aa"/>
</g>
</g>
<g clip-path="url(#a)">
<g transform="translate(417.84 354.22) scale(.1 -.1)">
<use xlink:href="#c"/>
<use x="63.623047" xlink:href="#f"/>
<use x="95.410156" xlink:href="#o"/>
<use x="159.033203" xlink:href="#z"/>
</g>
</g>
<g clip-path="url(#a)">
<g transform="translate(313.5 509.83) scale(.1 -.1)">
<use xlink:href="#c"/>
<use x="63.623047" xlink:href="#f"/>
<use x="95.410156" xlink:href="#o"/>
<use x="159.033203" xlink:href="#ae"/>
</g>
</g>
<g clip-path="url(#a)">
<g transform="translate(371.62 664.63) scale(.1 -.1)">
<use xlink:href="#c"/>
<use x="63.623047" xlink:href="#f"/>
<use x="95.410156" xlink:href="#n"/>
<use x="159.033203" xlink:href="#ag"/>
</g>
</g>
<g clip-path="url(#a)">
<g transform="translate(413.88 664.63) scale(.1 -.1)">
<use xlink:href="#c"/>
<use x="63.623047" xlink:href="#f"/>
<use x="95.410156" xlink:href="#n"/>
<use x="159.033203" xlink:href="#c"/>
</g>
</g>
<g clip-path="url(#a)">
<g transform="translate(458.78 664.63) scale(.1 -.1)">
<use xlink:href="#c"/>
<use x="63.623047" xlink:href="#f"/>
<use x="95.410156" xlink:href="#n"/>
<use x="159.033203" xlink:href="#o"/>
</g>
</g>
<g clip-path="url(#a)">
<g transform="translate(531.42 509.83) scale(.1 -.1)">
<use xlink:href="#c"/>
<use x="63.623047" xlink:href="#f"/>
<use x="95.410156" xlink:href="#n"/>
<use x="159.033203" xlink:href="#n"/>
</g>
</g>
<g clip-path="url(#a)">
<g transform="translate(506.33 664.63) scale(.1 -.1)">
<use xlink:href="#c"/>
<use x="63.623047" xlink:href="#f"/>
<use x="95.410156" xlink:href="#n"/>
<use x="159.033203" xlink:href="#q"/>
</g>
</g>
<g clip-path="url(#a)">
<g transform="translate(556.52 664.63) scale(.1 -.1)">
<use xlink:href="#c"/>
<use x="63.623047" xlink:href="#f"/>
<use x="95.410156" xlink:href="#n"/>
<use x="159.033203" xlink:href="#af"/>
</g>
</g>
<g clip-path="url(#a)">
<g transform="translate(295.01 664.63) scale(.1 -.1)">
<use xlink:href="#c"/>
<use x="63.623047" xlink:href="#f"/>
<use x="95.410156" xlink:href="#n"/>
<use x="159.033203" xlink:href="#ab"/>
</g>
</g>
<g clip-path="url(#a)">
<g transform="translate(331.99 664.63) scale(.1 -.1)">
<use xlink:href="#c"/>
<use x="63.623047" xlink:href="#f"/>
<use x="95.410156" xlink:href="#n"/>
<use x="159.033203" xlink:href="#aa"/>
</g>
</g>
<g clip-path="url(#a)">
<g transform="translate(62.564 664.63) scale(.1 -.1)">
<use xlink:href="#c"/>
<use x="63.623047" xlink:href="#f"/>
<use x="95.410156" xlink:href="#n"/>
<use x="159.033203" xlink:href="#z"/>
</g>
</g>
<g clip-path="url(#a)">
<g transform="translate(70.489 664.63) scale(.1 -.1)">
<use xlink:href="#c"/>
<use x="63.623047" xlink:href="#f"/>
<use x="95.410156" xlink:href="#n"/>
<use x="159.033203" xlink:href="#ae"/>
</g>
</g>
<g clip-path="url(#a)">
<g transform="translate(81.054 664.63) scale(.1 -.1)">
<use xlink:href="#c"/>
<use x="63.623047" xlink:href="#f"/>
<use x="95.410156" xlink:href="#q"/>
<use x="159.033203" xlink:href="#ag"/>
</g>
</g>
<g clip-path="url(#a)">
<g transform="translate(110.99 664.63) scale(.1 -.1)">
<use xlink:href="#c"/>
<use x="63.623047" xlink:href="#f"/>
<use x="95.410156" xlink:href="#q"/>
<use x="159.033203" xlink:href="#c"/>
</g>
</g>
<g clip-path="url(#a)">
<g transform="translate(149.73 664.63) scale(.1 -.1)">
<use xlink:href="#c"/>
<use x="63.623047" xlink:href="#f"/>
<use x="95.410156" xlink:href="#q"/>
<use x="159.033203" xlink:href="#o"/>
</g>
</g>
<g clip-path="url(#a)">
<g transform="translate(609.35 664.63) scale(.1 -.1)">
<use xlink:href="#c"/>
<use x="63.623047" xlink:href="#f"/>
<use x="95.410156" xlink:href="#q"/>
<use x="159.033203" xlink:href="#n"/>
</g>
</g>
<g clip-path="url(#a)">
<g transform="translate(1536.5 664.63) scale(.1 -.1)">
<use xlink:href="#c"/>
<use x="63.623047" xlink:href="#f"/>
<use x="95.410156" xlink:href="#q"/>
<use x="159.033203" xlink:href="#q"/>
</g>
</g>
<defs>
<clipPath id="a">
<rect width="1621.3" height="853.33"/>
</clipPath>
</defs>
</svg>
