<?xml version="1.0" encoding="UTF-8"?>
<!DOCTYPE svg  PUBLIC '-//W3C//DTD SVG 1.1//EN'  'http://www.w3.org/Graphics/SVG/1.1/DTD/svg11.dtd'>
<svg width="1165.3pt" height="613.33pt" version="1.1" viewBox="0 0 1165.3 613.33" xmlns="http://www.w3.org/2000/svg" xmlns:xlink="http://www.w3.org/1999/xlink">
<defs>
<style type="text/css">*{stroke-linecap:butt;stroke-linejoin:round;}</style>
</defs>
<path d="m0 613.33h1165.3v-613.33h-1165.3z" fill="#fff"/>
<g fill="none" stroke="#000">
<path d="m445.67 28.985-392.45 446.56" clip-path="url(#a)"/>
<path d="m445.67 28.985-231.31 227.44" clip-path="url(#a)"/>
<path d="m445.67 28.985-70.178 446.56" clip-path="url(#a)"/>
<path d="m445.67 28.985 44.92 227.44" clip-path="url(#a)"/>
<path d="m445.67 28.985 489.01 115" clip-path="url(#a)"/>
<path d="m445.67 28.985 160.02 446.56" clip-path="url(#a)"/>
<path d="m53.216 475.55v108.8" clip-path="url(#a)"/>
<path d="m214.35 256.43-69.059 110.32" clip-path="url(#a)"/>
<path d="m214.35 256.43 69.059 110.32" clip-path="url(#a)"/>
<path d="m375.49 475.55v108.8" clip-path="url(#a)"/>
<path d="m490.59 256.43-46.039 110.32" clip-path="url(#a)"/>
<path d="m490.59 256.43 46.039 110.32" clip-path="url(#a)"/>
<path d="m934.67 143.99 177.44 440.36" clip-path="url(#a)"/>
<path d="m934.67 143.99-221.56 112.44" clip-path="url(#a)"/>
<path d="m934.67 143.99 50.835 222.76" clip-path="url(#a)"/>
<path d="m934.67 143.99-6.714 331.56" clip-path="url(#a)"/>
<path d="m713.11 256.43-61.386 219.12" clip-path="url(#a)"/>
<path d="m713.11 256.43-15.346 219.12" clip-path="url(#a)"/>
<path d="m713.11 256.43 76.732 110.32" clip-path="url(#a)"/>
<path d="m985.51 366.74-103.59 108.8" clip-path="url(#a)"/>
<path d="m985.51 366.74-11.51 108.8" clip-path="url(#a)"/>
<path d="m985.51 366.74 34.529 108.8" clip-path="url(#a)"/>
<path d="m985.51 366.74 80.569 108.8" clip-path="url(#a)"/>
<path d="m927.96 475.55v108.8" clip-path="url(#a)"/>
<path d="m881.92 475.55v108.8" clip-path="url(#a)"/>
<path d="m974 475.55v108.8" clip-path="url(#a)"/>
<path d="m1020 475.55v108.8" clip-path="url(#a)"/>
<path d="m651.73 475.55v108.8" clip-path="url(#a)"/>
<path d="m697.76 475.55v108.8" clip-path="url(#a)"/>
<path d="m789.84 366.74-46.039 108.8" clip-path="url(#a)"/>
<path d="m789.84 366.74v108.8" clip-path="url(#a)"/>
<path d="m789.84 366.74 46.039 108.8" clip-path="url(#a)"/>
<path d="m743.8 475.55v108.8" clip-path="url(#a)"/>
<path d="m789.84 475.55v108.8" clip-path="url(#a)"/>
<path d="m835.88 475.55v108.8" clip-path="url(#a)"/>
<path d="m444.55 366.74-23.02 108.8" clip-path="url(#a)"/>
<path d="m444.55 366.74 23.02 108.8" clip-path="url(#a)"/>
<path d="m536.63 366.74-23.02 108.8" clip-path="url(#a)"/>
<path d="m536.63 366.74 23.02 108.8" clip-path="url(#a)"/>
<path d="m513.61 475.55v108.8" clip-path="url(#a)"/>
<path d="m559.65 475.55v108.8" clip-path="url(#a)"/>
<path d="m421.53 475.55v108.8" clip-path="url(#a)"/>
<path d="m467.57 475.55v108.8" clip-path="url(#a)"/>
<path d="m145.29 366.74-46.039 108.8" clip-path="url(#a)"/>
<path d="m145.29 366.74v108.8" clip-path="url(#a)"/>
<path d="m145.29 366.74 46.039 108.8" clip-path="url(#a)"/>
<path d="m283.41 366.74-46.039 108.8" clip-path="url(#a)"/>
<path d="m283.41 366.74v108.8" clip-path="url(#a)"/>
<path d="m283.41 366.74 46.039 108.8" clip-path="url(#a)"/>
<path d="m237.37 475.55v108.8" clip-path="url(#a)"/>
<path d="m283.41 475.55v108.8" clip-path="url(#a)"/>
<path d="m329.45 475.55v108.8" clip-path="url(#a)"/>
<path d="m99.255 475.55v108.8" clip-path="url(#a)"/>
<path d="m145.29 475.55v108.8" clip-path="url(#a)"/>
<path d="m191.33 475.55v108.8" clip-path="url(#a)"/>
<path d="m360.14 143.99-145.79 112.44" clip-path="url(#a)"/>
<path d="m360.14 143.99 15.346 331.56" clip-path="url(#a)"/>
<path d="m360.14 143.99 130.44 112.44" clip-path="url(#a)"/>
<path d="m133.78 143.99-80.569 331.56" clip-path="url(#a)"/>
<path d="m133.78 143.99 80.569 112.44" clip-path="url(#a)"/>
<path d="m605.69 475.55v108.8" clip-path="url(#a)"/>
<path d="m1066.1 475.55v108.8" clip-path="url(#a)"/>
</g>
<path d="m252.68 258.08 2.9425-3.3482q1.5843-1.8028-0.21844-3.3871l-5.8158-5.1111q-1.8028-1.5843-3.3871 0.21844l-2.9425 3.3482q-1.5843 1.8028 0.21844 3.3871l5.8158 5.1111q1.8028 1.5843 3.3871-0.21844z" clip-path="url(#a)" fill="#fff" stroke="#fff"/>
<g clip-path="url(#a)">
<defs>
<path id="q" d="m9.8125 72.906h9.8594v-64.609h35.5v-8.2969h-45.359z"/>
</defs>
<g transform="translate(249.63 255.4) rotate(-48.69) scale(.08 -.08)">
<use xlink:href="#q"/>
</g>
</g>
<path d="m332.26 149.29 4.2899-4.2181q1.7113-1.6827 0.028649-3.394l-5.4284-5.5208q-1.6827-1.7113-3.394-0.028649l-4.2899 4.2181q-1.7113 1.6827-0.02865 3.394l5.4284 5.5208q1.6827 1.7113 3.394 0.028649z" clip-path="url(#a)" fill="#fff" stroke="#fff"/>
<g clip-path="url(#a)">
<defs>
<path id="af" d="m9.8125 72.906h9.8594v-29.891h35.844v29.891h9.8594v-72.906h-9.8594v34.719h-35.844v-34.719h-9.8594z"/>
</defs>
<g transform="translate(329.41 146.39) rotate(-44.516) scale(.08 -.08)">
<use xlink:href="#af"/>
</g>
</g>
<path d="m416.43 255.44 0.69201-4.4035q0.37259-2.3709-1.9983-2.7435l-7.6486-1.202q-2.3709-0.37259-2.7435 1.9983l-0.69201 4.4035q-0.37259 2.3709 1.9983 2.7435l7.6486 1.202q2.3709 0.37259 2.7435-1.9983z" clip-path="url(#a)" fill="#fff" stroke="#fff"/>
<g clip-path="url(#a)">
<g transform="translate(412.41 254.81) rotate(-81.069) scale(.08 -.08)">
<use xlink:href="#q"/>
</g>
</g>
<path d="m461.39 140.97 1.1657 5.9022q0.46502 2.3545 2.8195 1.8895l7.5958-1.5002q2.3545-0.46502 1.8895-2.8195l-1.1657-5.9022q-0.46502-2.3545-2.8195-1.8895l-7.5958 1.5002q-2.3545 0.46502-1.8895 2.8195z" clip-path="url(#a)" fill="#fff" stroke="#fff"/>
<g clip-path="url(#a)">
<g transform="translate(465.38 140.18) rotate(78.828) scale(.08 -.08)">
<use xlink:href="#af"/>
</g>
</g>
<path d="m685.81 91.902 5.8565 1.3773q2.3363 0.54943 2.8857-1.7868l1.7725-7.5369q0.54943-2.3363-1.7868-2.8857l-5.8565-1.3773q-2.3363-0.54943-2.8857 1.7868l-1.7725 7.5369q-0.54943 2.3363 1.7868 2.8857z" clip-path="url(#a)" fill="#fff" stroke="#fff"/>
<g clip-path="url(#a)">
<g transform="translate(686.74 87.946) rotate(13.234) scale(.08 -.08)">
<use xlink:href="#af"/>
</g>
</g>
<path d="m518.79 251.63 1.9751 5.5118q0.80959 2.2593 3.0689 1.4497l7.2887-2.6118q2.2593-0.8096 1.4497-3.0689l-1.9751-5.5118q-0.80959-2.2593-3.0689-1.4497l-7.2887 2.6118q-2.2593 0.8096-1.4497 3.0689z" clip-path="url(#a)" fill="#fff" stroke="#fff"/>
<g clip-path="url(#a)">
<defs>
<path id="an" d="m8.6875 72.906h9.9219v-44.297q0-11.719 4.2344-16.875 4.25-5.1406 13.781-5.1406 9.4688 0 13.719 5.1406 4.25 5.1562 4.25 16.875v44.297h9.9062v-45.516q0-14.25-7.0625-21.531-7.0469-7.2812-20.812-7.2812-13.828 0-20.891 7.2812-7.0469 7.2812-7.0469 21.531z"/>
</defs>
<g transform="translate(522.61 250.25) rotate(70.286) scale(.08 -.08)">
<use xlink:href="#an"/>
</g>
</g>
<path d="m46.945 512.3v35.285q0 2.4 2.4 2.4h7.7425q2.4 0 2.4-2.4v-35.285q0-2.4-2.4-2.4h-7.7425q-2.4 0-2.4 2.4z" clip-path="url(#a)" fill="#fff" stroke="#fff"/>
<g clip-path="url(#a)">
<defs>
<path id="k" d="m-0.29688 72.906h61.672v-8.3125h-25.875v-64.594h-9.9062v64.594h-25.891z"/>
<path id="d" d="m56.203 29.594v-4.3906h-41.312q0.59375-9.2812 5.5938-14.141t13.938-4.8594q5.1719 0 10.031 1.2656t9.6562 3.8125v-8.5q-4.8438-2.0469-9.9219-3.125t-10.297-1.0781q-13.094 0-20.734 7.6094-7.6406 7.625-7.6406 20.625 0 13.422 7.25 21.297 7.25 7.8906 19.562 7.8906 11.031 0 17.453-7.1094 6.4219-7.0938 6.4219-19.297zm-8.9844 2.6406q-0.09375 7.3594-4.125 11.75-4.0312 4.4062-10.672 4.4062-7.5156 0-12.031-4.25t-5.2031-11.969z"/>
<path id="i" d="m41.109 46.297q-1.5156 0.875-3.2969 1.2812-1.7812 0.42188-3.9219 0.42188-7.625 0-11.703-4.9531t-4.0781-14.234v-28.812h-9.0312v54.688h9.0312v-8.5q2.8438 4.9844 7.375 7.3906 4.5469 2.4219 11.047 2.4219 0.92188 0 2.0469-0.125 1.125-0.10938 2.4844-0.35938z"/>
<path id="l" d="m52 44.188q3.375 6.0625 8.0625 8.9375t11.031 2.875q8.5469 0 13.188-5.9844 4.6406-5.9688 4.6406-17v-33.016h-9.0312v32.719q0 7.8594-2.7969 11.656-2.7812 3.8125-8.4844 3.8125-6.9844 0-11.047-4.6406-4.0469-4.625-4.0469-12.641v-30.906h-9.0312v32.719q0 7.9062-2.7812 11.688t-8.5938 3.7812q-6.8906 0-10.953-4.6562-4.0469-4.6562-4.0469-12.625v-30.906h-9.0312v54.688h9.0312v-8.5q3.0781 5.0312 7.375 7.4219t10.203 2.3906q5.9688 0 10.141-3.0312 4.1719-3.0156 6.1719-8.7812z"/>
<path id="h" d="m9.4219 54.688h8.9844v-54.688h-8.9844zm0 21.297h8.9844v-11.391h-8.9844z"/>
<path id="f" d="m54.891 33.016v-33.016h-8.9844v32.719q0 7.7656-3.0312 11.609-3.0312 3.8594-9.0781 3.8594-7.2812 0-11.484-4.6406-4.2031-4.625-4.2031-12.641v-30.906h-9.0312v54.688h9.0312v-8.5q3.2344 4.9375 7.5938 7.375 4.375 2.4375 10.094 2.4375 9.4219 0 14.25-5.8281 4.8438-5.8281 4.8438-17.156z"/>
<path id="g" d="m34.281 27.484q-10.891 0-15.094-2.4844t-4.2031-8.5q0-4.7812 3.1562-7.5938 3.1562-2.7969 8.5625-2.7969 7.4844 0 12 5.2969t4.5156 14.078v2zm17.922 3.7188v-31.203h-8.9844v8.2969q-3.0781-4.9688-7.6719-7.3438t-11.234-2.375q-8.3906 0-13.359 4.7188-4.9531 4.7188-4.9531 12.625 0 9.2188 6.1719 13.906 6.1875 4.6875 18.438 4.6875h12.609v0.89062q0 6.2031-4.0781 9.5938t-11.453 3.3906q-4.6875 0-9.1406-1.125-4.4375-1.125-8.5312-3.375v8.3125q4.9219 1.9062 9.5625 2.8438 4.6406 0.95312 9.0312 0.95312 11.875 0 17.734-6.1562 5.8594-6.1406 5.8594-18.641z"/>
<path id="j" d="m9.4219 75.984h8.9844v-75.984h-8.9844z"/>
</defs>
<g transform="translate(51.009 512.3) rotate(90) scale(.08 -.08)">
<use xlink:href="#k"/>
<use x="60.818359" xlink:href="#d"/>
<use x="122.341797" xlink:href="#i"/>
<use x="163.439453" xlink:href="#l"/>
<use x="260.851562" xlink:href="#h"/>
<use x="288.634766" xlink:href="#f"/>
<use x="352.013672" xlink:href="#g"/>
<use x="413.292969" xlink:href="#j"/>
</g>
</g>
<path d="m183.69 317.23 2.9038-4.6386q1.2735-2.0343-0.7608-3.3077l-6.5627-4.1083q-2.0343-1.2735-3.3077 0.7608l-2.9038 4.6386q-1.2735 2.0343 0.7608 3.3077l6.5626 4.1083q2.0343 1.2735 3.3077-0.7608z" clip-path="url(#a)" fill="#fff" stroke="#fff"/>
<g clip-path="url(#a)">
<defs>
<path id="t" d="m34.188 63.188-13.391-36.281h26.812zm-5.5781 9.7188h11.188l27.781-72.906h-10.25l-6.6406 18.703h-32.859l-6.6406-18.703h-10.406z"/>
</defs>
<g transform="translate(180.24 315.08) rotate(-57.953) scale(.08 -.08)">
<use xlink:href="#t"/>
</g>
</g>
<path d="m242.22 312.76 2.6949 4.3048q1.2735 2.0343 3.3077 0.7608l6.5626-4.1083q2.0343-1.2735 0.7608-3.3077l-2.6949-4.3048q-1.2735-2.0343-3.3077-0.7608l-6.5626 4.1083q-2.0343 1.2735-0.7608 3.3077z" clip-path="url(#a)" fill="#fff" stroke="#fff"/>
<g clip-path="url(#a)">
<defs>
<path id="ao" d="m53.516 70.516v-9.625q-5.6094 2.6875-10.594 4-4.9844 1.3281-9.625 1.3281-8.0469 0-12.422-3.125t-4.375-8.8906q0-4.8438 2.9062-7.3125 2.9062-2.4531 11.016-3.9688l5.9531-1.2188q11.031-2.1094 16.281-7.4062t5.25-14.172q0-10.609-7.1094-16.078-7.0938-5.4688-20.812-5.4688-5.1719 0-11.016 1.1719-5.8281 1.1719-12.078 3.4688v10.156q6-3.3594 11.766-5.0781 5.7656-1.7031 11.328-1.7031 8.4375 0 13.031 3.3125 4.5938 3.3281 4.5938 9.4844 0 5.3594-3.2969 8.3906t-10.812 4.5469l-6.0156 1.1719q-11.031 2.1875-15.969 6.875-4.9219 4.6875-4.9219 13.047 0 9.6719 6.8125 15.234t18.766 5.5625q5.1406 0 10.453-0.9375 5.3281-0.92188 10.891-2.7656z"/>
</defs>
<g transform="translate(245.66 310.6) rotate(57.953) scale(.08 -.08)">
<use xlink:href="#ao"/>
</g>
</g>
<path d="m369.22 512.3v35.285q0 2.4 2.4 2.4h7.7425q2.4 0 2.4-2.4v-35.285q0-2.4-2.4-2.4h-7.7425q-2.4 0-2.4 2.4z" clip-path="url(#a)" fill="#fff" stroke="#fff"/>
<g clip-path="url(#a)">
<g transform="translate(373.28 512.3) rotate(90) scale(.08 -.08)">
<use xlink:href="#k"/>
<use x="60.818359" xlink:href="#d"/>
<use x="122.341797" xlink:href="#i"/>
<use x="163.439453" xlink:href="#l"/>
<use x="260.851562" xlink:href="#h"/>
<use x="288.634766" xlink:href="#f"/>
<use x="352.013672" xlink:href="#g"/>
<use x="413.292969" xlink:href="#j"/>
</g>
</g>
<path d="m472.3 316.53 2.1077-5.0503q0.92435-2.2149-1.2905-3.1392l-7.1452-2.982q-2.2149-0.92435-3.1392 1.2905l-2.1077 5.0503q-0.92434 2.2149 1.2905 3.1392l7.1452 2.982q2.2149 0.92435 3.1392-1.2905z" clip-path="url(#a)" fill="#fff" stroke="#fff"/>
<g clip-path="url(#a)">
<g transform="translate(468.55 314.96) rotate(-67.347) scale(.08 -.08)">
<use xlink:href="#t"/>
</g>
</g>
<path d="m506.89 311.77 1.8578 4.4516q0.92434 2.2149 3.1392 1.2905l7.1452-2.982q2.2149-0.92434 1.2905-3.1392l-1.8578-4.4516q-0.92435-2.2149-3.1392-1.2905l-7.1452 2.982q-2.2149 0.92434-1.2905 3.1392z" clip-path="url(#a)" fill="#fff" stroke="#fff"/>
<g clip-path="url(#a)">
<defs>
<path id="ad" d="m19.672 64.797v-27.391h12.406q6.8906 0 10.641 3.5625 3.7656 3.5625 3.7656 10.156 0 6.5469-3.7656 10.109-3.75 3.5625-10.641 3.5625zm-9.8594 8.1094h22.266q12.266 0 18.531-5.5469 6.2812-5.5469 6.2812-16.234 0-10.797-6.2812-16.312-6.2656-5.5156-18.531-5.5156h-12.406v-29.297h-9.8594z"/>
</defs>
<g transform="translate(510.64 310.21) rotate(67.347) scale(.08 -.08)">
<use xlink:href="#ad"/>
</g>
</g>
<path d="m1016.6 363.97 2.0453 5.0759q0.89699 2.2261 3.1231 1.3291l7.1814-2.8937q2.2261-0.89699 1.3291-3.1231l-2.0453-5.0759q-0.89699-2.2261-3.1231-1.3291l-7.1814 2.8937q-2.2261 0.89699-1.3291 3.1231z" clip-path="url(#a)" fill="#fff" stroke="#fff"/>
<g clip-path="url(#a)">
<g transform="translate(1020.3 362.45) rotate(68.053) scale(.08 -.08)">
<use xlink:href="#t"/>
</g>
</g>
<path d="m824.29 207.04 4.8801-2.4766q2.1402-1.0861 1.0541-3.2263l-3.5038-6.9043q-1.0861-2.1402-3.2263-1.0541l-4.8801 2.4766q-2.1402 1.0861-1.0541 3.2263l3.5038 6.9043q1.0861 2.1402 3.2263 1.0541z" clip-path="url(#a)" fill="#fff" stroke="#fff"/>
<g clip-path="url(#a)">
<g transform="translate(822.45 203.41) rotate(-26.907) scale(.08 -.08)">
<use xlink:href="#t"/>
</g>
</g>
<path d="m953.44 254.41 1.0732 4.7028q0.53397 2.3398 2.8738 1.8059l7.5484-1.7226q2.3398-0.53397 1.8059-2.8738l-1.0732-4.7028q-0.53397-2.3398-2.8738-1.8059l-7.5484 1.7226q-2.3398 0.53397-1.8059 2.8738z" clip-path="url(#a)" fill="#fff" stroke="#fff"/>
<g clip-path="url(#a)">
<g transform="translate(957.4 253.51) rotate(77.145) scale(.08 -.08)">
<use xlink:href="#ad"/>
</g>
</g>
<path d="m937.53 312.97 0.12471-6.1587q0.04859-2.3995-2.3509-2.4481l-7.7409-0.15675q-2.3995-0.04859-2.4481 2.3509l-0.12471 6.1587q-0.04859 2.3995 2.3509 2.4481l7.7409 0.15675q2.3995 0.04859 2.4481-2.3509z" clip-path="url(#a)" fill="#fff" stroke="#fff"/>
<g clip-path="url(#a)">
<defs>
<path id="at" d="m19.672 64.797v-56.688h11.922q15.094 0 22.094 6.8281 7 6.8438 7 21.594 0 14.641-7 21.453t-22.094 6.8125zm-9.8594 8.1094h20.266q21.188 0 31.094-8.8125 9.9219-8.8125 9.9219-27.562 0-18.859-9.9688-27.703-9.9531-8.8281-31.047-8.8281h-20.266z"/>
</defs>
<g transform="translate(933.46 312.89) rotate(-88.84) scale(.08 -.08)">
<use xlink:href="#at"/>
</g>
</g>
<path d="m687.78 370.11 1.3636-4.8676q0.64743-2.311-1.6636-2.9585l-7.4555-2.0886q-2.311-0.64743-2.9585 1.6636l-1.3636 4.8676q-0.64743 2.311 1.6636 2.9585l7.4555 2.0886q2.311 0.64743 2.9585-1.6636z" clip-path="url(#a)" fill="#fff" stroke="#fff"/>
<g clip-path="url(#a)">
<defs>
<path id="s" d="m9.8125 72.906h46.094v-8.3125h-36.234v-21.578h34.719v-8.2969h-34.719v-26.422h37.109v-8.2969h-46.969z"/>
</defs>
<g transform="translate(683.86 369.02) rotate(-74.35) scale(.08 -.08)">
<use xlink:href="#s"/>
</g>
</g>
<path d="m711.5 369.21 0.39029-5.5726q0.16768-2.3941-2.2265-2.5618l-7.7236-0.54094q-2.3941-0.16768-2.5618 2.2265l-0.39029 5.5726q-0.16768 2.3941 2.2265 2.5618l7.7236 0.54094q2.3941 0.16768 2.5618-2.2265z" clip-path="url(#a)" fill="#fff" stroke="#fff"/>
<g clip-path="url(#a)">
<defs>
<path id="r" d="m64.406 67.281v-10.391q-4.9844 4.6406-10.625 6.9219-5.6406 2.2969-11.984 2.2969-12.5 0-19.141-7.6406t-6.6406-22.094q0-14.406 6.6406-22.047t19.141-7.6406q6.3438 0 11.984 2.2969t10.625 6.9375v-10.312q-5.1719-3.5156-10.969-5.2812-5.7812-1.75-12.219-1.75-16.562 0-26.094 10.125-9.5156 10.141-9.5156 27.672 0 17.578 9.5156 27.703 9.5312 10.141 26.094 10.141 6.5312 0 12.312-1.7344 5.7969-1.7344 10.875-5.2031z"/>
</defs>
<g transform="translate(707.44 368.93) rotate(-85.994) scale(.08 -.08)">
<use xlink:href="#r"/>
</g>
</g>
<path d="m744.89 313.09 2.8865 4.1498q1.3704 1.9703 3.3407 0.59981l6.3561-4.4211q1.9703-1.3704 0.59981-3.3407l-2.8865-4.1498q-1.3704-1.9703-3.3407-0.59981l-6.3561 4.4211q-1.9703 1.3704-0.59981 3.3407z" clip-path="url(#a)" fill="#fff" stroke="#fff"/>
<g clip-path="url(#a)">
<g transform="translate(748.22 310.77) rotate(55.179) scale(.08 -.08)">
<use xlink:href="#s"/>
</g>
</g>
<path d="m936.51 427.3 3.4856-3.6611q1.6549-1.7382-0.083303-3.3931l-5.6075-5.3388q-1.7382-1.6549-3.3931 0.083302l-3.4856 3.6611q-1.6549 1.7382 0.083303 3.3931l5.6075 5.3388q1.7382 1.6549 3.3931-0.083303z" clip-path="url(#a)" fill="#fff" stroke="#fff"/>
<g clip-path="url(#a)">
<g transform="translate(933.57 424.5) rotate(-46.406) scale(.08 -.08)">
<use xlink:href="#s"/>
</g>
</g>
<path d="m985.75 424.09 0.48405-4.5757q0.25248-2.3867-2.1342-2.6392l-7.6995-0.8145q-2.3867-0.25248-2.6392 2.1342l-0.48405 4.5757q-0.25248 2.3867 2.1342 2.6392l7.6995 0.8145q2.3867 0.25248 2.6392-2.1342z" clip-path="url(#a)" fill="#fff" stroke="#fff"/>
<g clip-path="url(#a)">
<defs>
<path id="ag" d="m9.8125 72.906h41.891v-8.3125h-32.031v-21.484h28.906v-8.2969h-28.906v-34.812h-9.8594z"/>
</defs>
<g transform="translate(981.71 423.66) rotate(-83.961) scale(.08 -.08)">
<use xlink:href="#ag"/>
</g>
</g>
<path d="m995.95 420.38 1.6898 5.3245q0.72598 2.2876 3.0135 1.5616l7.3798-2.342q2.2876-0.72598 1.5616-3.0135l-1.6898-5.3245q-0.72598-2.2876-3.0135-1.5616l-7.3798 2.342q-2.2876 0.72598-1.5616 3.0135z" clip-path="url(#a)" fill="#fff" stroke="#fff"/>
<g clip-path="url(#a)">
<g transform="translate(999.83 419.15) rotate(72.393) scale(.08 -.08)">
<use xlink:href="#r"/>
</g>
</g>
<path d="m1019 422.52 3.4843 4.7054q1.4282 1.9288 3.357 0.50051l6.2222-4.6076q1.9288-1.4283 0.50051-3.357l-3.4843-4.7054q-1.4282-1.9288-3.357-0.50051l-6.2222 4.6076q-1.9288 1.4282-0.50051 3.357z" clip-path="url(#a)" fill="#fff" stroke="#fff"/>
<g clip-path="url(#a)">
<g transform="translate(1022.3 420.11) rotate(53.48) scale(.08 -.08)">
<use xlink:href="#an"/>
</g>
</g>
<path d="m921.69 512.3v35.285q0 2.4 2.4 2.4h7.7425q2.4 0 2.4-2.4v-35.285q0-2.4-2.4-2.4h-7.7425q-2.4 0-2.4 2.4z" clip-path="url(#a)" fill="#fff" stroke="#fff"/>
<g clip-path="url(#a)">
<g transform="translate(925.75 512.3) rotate(90) scale(.08 -.08)">
<use xlink:href="#k"/>
<use x="60.818359" xlink:href="#d"/>
<use x="122.341797" xlink:href="#i"/>
<use x="163.439453" xlink:href="#l"/>
<use x="260.851562" xlink:href="#h"/>
<use x="288.634766" xlink:href="#f"/>
<use x="352.013672" xlink:href="#g"/>
<use x="413.292969" xlink:href="#j"/>
</g>
</g>
<path d="m875.65 512.3v35.285q0 2.4 2.4 2.4h7.7425q2.4 0 2.4-2.4v-35.285q0-2.4-2.4-2.4h-7.7425q-2.4 0-2.4 2.4z" clip-path="url(#a)" fill="#fff" stroke="#fff"/>
<g clip-path="url(#a)">
<g transform="translate(879.71 512.3) rotate(90) scale(.08 -.08)">
<use xlink:href="#k"/>
<use x="60.818359" xlink:href="#d"/>
<use x="122.341797" xlink:href="#i"/>
<use x="163.439453" xlink:href="#l"/>
<use x="260.851562" xlink:href="#h"/>
<use x="288.634766" xlink:href="#f"/>
<use x="352.013672" xlink:href="#g"/>
<use x="413.292969" xlink:href="#j"/>
</g>
</g>
<path d="m967.73 512.3v35.285q0 2.4 2.4 2.4h7.7425q2.4 0 2.4-2.4v-35.285q0-2.4-2.4-2.4h-7.7425q-2.4 0-2.4 2.4z" clip-path="url(#a)" fill="#fff" stroke="#fff"/>
<g clip-path="url(#a)">
<g transform="translate(971.79 512.3) rotate(90) scale(.08 -.08)">
<use xlink:href="#k"/>
<use x="60.818359" xlink:href="#d"/>
<use x="122.341797" xlink:href="#i"/>
<use x="163.439453" xlink:href="#l"/>
<use x="260.851562" xlink:href="#h"/>
<use x="288.634766" xlink:href="#f"/>
<use x="352.013672" xlink:href="#g"/>
<use x="413.292969" xlink:href="#j"/>
</g>
</g>
<path d="m1013.8 512.3v35.285q0 2.4 2.4 2.4h7.7425q2.4 0 2.4-2.4v-35.285q0-2.4-2.4-2.4h-7.7425q-2.4 0-2.4 2.4z" clip-path="url(#a)" fill="#fff" stroke="#fff"/>
<g clip-path="url(#a)">
<g transform="translate(1017.8 512.3) rotate(90) scale(.08 -.08)">
<use xlink:href="#k"/>
<use x="60.818359" xlink:href="#d"/>
<use x="122.341797" xlink:href="#i"/>
<use x="163.439453" xlink:href="#l"/>
<use x="260.851562" xlink:href="#h"/>
<use x="288.634766" xlink:href="#f"/>
<use x="352.013672" xlink:href="#g"/>
<use x="413.292969" xlink:href="#j"/>
</g>
</g>
<path d="m645.45 512.3v35.285q0 2.4 2.4 2.4h7.7425q2.4 0 2.4-2.4v-35.285q0-2.4-2.4-2.4h-7.7425q-2.4 0-2.4 2.4z" clip-path="url(#a)" fill="#fff" stroke="#fff"/>
<g clip-path="url(#a)">
<g transform="translate(649.52 512.3) rotate(90) scale(.08 -.08)">
<use xlink:href="#k"/>
<use x="60.818359" xlink:href="#d"/>
<use x="122.341797" xlink:href="#i"/>
<use x="163.439453" xlink:href="#l"/>
<use x="260.851562" xlink:href="#h"/>
<use x="288.634766" xlink:href="#f"/>
<use x="352.013672" xlink:href="#g"/>
<use x="413.292969" xlink:href="#j"/>
</g>
</g>
<path d="m691.49 512.3v35.285q0 2.4 2.4 2.4h7.7425q2.4 0 2.4-2.4v-35.285q0-2.4-2.4-2.4h-7.7425q-2.4 0-2.4 2.4z" clip-path="url(#a)" fill="#fff" stroke="#fff"/>
<g clip-path="url(#a)">
<g transform="translate(695.56 512.3) rotate(90) scale(.08 -.08)">
<use xlink:href="#k"/>
<use x="60.818359" xlink:href="#d"/>
<use x="122.341797" xlink:href="#i"/>
<use x="163.439453" xlink:href="#l"/>
<use x="260.851562" xlink:href="#h"/>
<use x="288.634766" xlink:href="#f"/>
<use x="352.013672" xlink:href="#g"/>
<use x="413.292969" xlink:href="#j"/>
</g>
</g>
<path d="m771.52 426.15 2.1662-5.1193q0.93526-2.2103-1.275-3.1455l-7.1304-3.0172q-2.2103-0.93526-3.1455 1.275l-2.1662 5.1193q-0.93526 2.2103 1.275 3.1455l7.1304 3.0172q2.2103 0.93526 3.1455-1.275z" clip-path="url(#a)" fill="#fff" stroke="#fff"/>
<g clip-path="url(#a)">
<defs>
<path id="w" d="m44.391 34.188q3.1719-1.0781 6.1719-4.5938t6.0312-9.6719l10.016-19.922h-10.609l-9.3125 18.703q-3.625 7.3281-7.0156 9.7188t-9.25 2.3906h-10.75v-30.812h-9.8594v72.906h22.266q12.5 0 18.656-5.2344 6.1562-5.2188 6.1562-15.766 0-6.8906-3.2031-11.438-3.2031-4.5312-9.2969-6.2812zm-24.719 30.609v-25.875h12.406q7.125 0 10.766 3.2969t3.6406 9.6875-3.6406 9.6406-10.766 3.25z"/>
</defs>
<g transform="translate(767.77 424.56) rotate(-67.065) scale(.08 -.08)">
<use xlink:href="#w"/>
</g>
</g>
<path d="m783.57 418.62v5.055q0 2.4 2.4 2.4h7.7425q2.4 0 2.4-2.4v-5.055q0-2.4-2.4-2.4h-7.7425q-2.4 0-2.4 2.4z" clip-path="url(#a)" fill="#fff" stroke="#fff"/>
<g clip-path="url(#a)">
<g transform="translate(787.64 418.62) rotate(90) scale(.08 -.08)">
<use xlink:href="#s"/>
</g>
</g>
<path d="m806 421.02 2.1769 5.1446q0.93526 2.2103 3.1455 1.275l7.1304-3.0172q2.2103-0.93526 1.275-3.1455l-2.1769-5.1446q-0.93526-2.2103-3.1455-1.275l-7.1304 3.0172q-2.2103 0.93526-1.275 3.1455z" clip-path="url(#a)" fill="#fff" stroke="#fff"/>
<g clip-path="url(#a)">
<g transform="translate(809.74 419.43) rotate(67.065) scale(.08 -.08)">
<use xlink:href="#r"/>
</g>
</g>
<path d="m737.53 512.3v35.285q0 2.4 2.4 2.4h7.7425q2.4 0 2.4-2.4v-35.285q0-2.4-2.4-2.4h-7.7425q-2.4 0-2.4 2.4z" clip-path="url(#a)" fill="#fff" stroke="#fff"/>
<g clip-path="url(#a)">
<g transform="translate(741.6 512.3) rotate(90) scale(.08 -.08)">
<use xlink:href="#k"/>
<use x="60.818359" xlink:href="#d"/>
<use x="122.341797" xlink:href="#i"/>
<use x="163.439453" xlink:href="#l"/>
<use x="260.851562" xlink:href="#h"/>
<use x="288.634766" xlink:href="#f"/>
<use x="352.013672" xlink:href="#g"/>
<use x="413.292969" xlink:href="#j"/>
</g>
</g>
<path d="m783.57 512.3v35.285q0 2.4 2.4 2.4h7.7425q2.4 0 2.4-2.4v-35.285q0-2.4-2.4-2.4h-7.7425q-2.4 0-2.4 2.4z" clip-path="url(#a)" fill="#fff" stroke="#fff"/>
<g clip-path="url(#a)">
<g transform="translate(787.64 512.3) rotate(90) scale(.08 -.08)">
<use xlink:href="#k"/>
<use x="60.818359" xlink:href="#d"/>
<use x="122.341797" xlink:href="#i"/>
<use x="163.439453" xlink:href="#l"/>
<use x="260.851562" xlink:href="#h"/>
<use x="288.634766" xlink:href="#f"/>
<use x="352.013672" xlink:href="#g"/>
<use x="413.292969" xlink:href="#j"/>
</g>
</g>
<path d="m829.61 512.3v35.285q0 2.4 2.4 2.4h7.7425q2.4 0 2.4-2.4v-35.285q0-2.4-2.4-2.4h-7.7425q-2.4 0-2.4 2.4z" clip-path="url(#a)" fill="#fff" stroke="#fff"/>
<g clip-path="url(#a)">
<g transform="translate(833.67 512.3) rotate(90) scale(.08 -.08)">
<use xlink:href="#k"/>
<use x="60.818359" xlink:href="#d"/>
<use x="122.341797" xlink:href="#i"/>
<use x="163.439453" xlink:href="#l"/>
<use x="260.851562" xlink:href="#h"/>
<use x="288.634766" xlink:href="#f"/>
<use x="352.013672" xlink:href="#g"/>
<use x="413.292969" xlink:href="#j"/>
</g>
</g>
<path d="m438.65 424.92 1.0463-4.9455q0.49678-2.348-1.8512-2.8448l-7.5748-1.6026q-2.348-0.49678-2.8448 1.8512l-1.0463 4.9455q-0.49678 2.348 1.8512 2.8448l7.5748 1.6026q2.348 0.49678 2.8448-1.8512z" clip-path="url(#a)" fill="#fff" stroke="#fff"/>
<g clip-path="url(#a)">
<g transform="translate(434.68 424.07) rotate(-78.054) scale(.08 -.08)">
<use xlink:href="#s"/>
</g>
</g>
<path d="m449.35 419.71 1.1563 5.4653q0.49678 2.348 2.8448 1.8512l7.5748-1.6026q2.348-0.49678 1.8512-2.8448l-1.1563-5.4653q-0.49678-2.348-2.8448-1.8512l-7.5748 1.6026q-2.348 0.49678-1.8512 2.8448z" clip-path="url(#a)" fill="#fff" stroke="#fff"/>
<g clip-path="url(#a)">
<g transform="translate(453.32 418.87) rotate(78.054) scale(.08 -.08)">
<use xlink:href="#r"/>
</g>
</g>
<path d="m530.78 424.69 0.95241-4.5016q0.49678-2.348-1.8512-2.8448l-7.5748-1.6026q-2.348-0.49678-2.8448 1.8512l-0.95241 4.5016q-0.49678 2.348 1.8512 2.8448l7.5748 1.6026q2.348 0.49678 2.8448-1.8512z" clip-path="url(#a)" fill="#fff" stroke="#fff"/>
<g clip-path="url(#a)">
<g transform="translate(526.8 423.85) rotate(-78.054) scale(.08 -.08)">
<use xlink:href="#ag"/>
</g>
</g>
<path d="m541.42 419.71 1.1563 5.4653q0.49678 2.348 2.8448 1.8512l7.5748-1.6026q2.348-0.49678 1.8512-2.8448l-1.1563-5.4653q-0.49678-2.348-2.8448-1.8512l-7.5748 1.6026q-2.348 0.49678-1.8512 2.8448z" clip-path="url(#a)" fill="#fff" stroke="#fff"/>
<g clip-path="url(#a)">
<g transform="translate(545.4 418.87) rotate(78.054) scale(.08 -.08)">
<use xlink:href="#r"/>
</g>
</g>
<path d="m507.34 512.3v35.285q0 2.4 2.4 2.4h7.7425q2.4 0 2.4-2.4v-35.285q0-2.4-2.4-2.4h-7.7425q-2.4 0-2.4 2.4z" clip-path="url(#a)" fill="#fff" stroke="#fff"/>
<g clip-path="url(#a)">
<g transform="translate(511.4 512.3) rotate(90) scale(.08 -.08)">
<use xlink:href="#k"/>
<use x="60.818359" xlink:href="#d"/>
<use x="122.341797" xlink:href="#i"/>
<use x="163.439453" xlink:href="#l"/>
<use x="260.851562" xlink:href="#h"/>
<use x="288.634766" xlink:href="#f"/>
<use x="352.013672" xlink:href="#g"/>
<use x="413.292969" xlink:href="#j"/>
</g>
</g>
<path d="m553.38 512.3v35.285q0 2.4 2.4 2.4h7.7425q2.4 0 2.4-2.4v-35.285q0-2.4-2.4-2.4h-7.7425q-2.4 0-2.4 2.4z" clip-path="url(#a)" fill="#fff" stroke="#fff"/>
<g clip-path="url(#a)">
<g transform="translate(557.44 512.3) rotate(90) scale(.08 -.08)">
<use xlink:href="#k"/>
<use x="60.818359" xlink:href="#d"/>
<use x="122.341797" xlink:href="#i"/>
<use x="163.439453" xlink:href="#l"/>
<use x="260.851562" xlink:href="#h"/>
<use x="288.634766" xlink:href="#f"/>
<use x="352.013672" xlink:href="#g"/>
<use x="413.292969" xlink:href="#j"/>
</g>
</g>
<path d="m415.26 512.3v35.285q0 2.4 2.4 2.4h7.7425q2.4 0 2.4-2.4v-35.285q0-2.4-2.4-2.4h-7.7425q-2.4 0-2.4 2.4z" clip-path="url(#a)" fill="#fff" stroke="#fff"/>
<g clip-path="url(#a)">
<g transform="translate(419.32 512.3) rotate(90) scale(.08 -.08)">
<use xlink:href="#k"/>
<use x="60.818359" xlink:href="#d"/>
<use x="122.341797" xlink:href="#i"/>
<use x="163.439453" xlink:href="#l"/>
<use x="260.851562" xlink:href="#h"/>
<use x="288.634766" xlink:href="#f"/>
<use x="352.013672" xlink:href="#g"/>
<use x="413.292969" xlink:href="#j"/>
</g>
</g>
<path d="m461.3 512.3v35.285q0 2.4 2.4 2.4h7.7425q2.4 0 2.4-2.4v-35.285q0-2.4-2.4-2.4h-7.7425q-2.4 0-2.4 2.4z" clip-path="url(#a)" fill="#fff" stroke="#fff"/>
<g clip-path="url(#a)">
<g transform="translate(465.36 512.3) rotate(90) scale(.08 -.08)">
<use xlink:href="#k"/>
<use x="60.818359" xlink:href="#d"/>
<use x="122.341797" xlink:href="#i"/>
<use x="163.439453" xlink:href="#l"/>
<use x="260.851562" xlink:href="#h"/>
<use x="288.634766" xlink:href="#f"/>
<use x="352.013672" xlink:href="#g"/>
<use x="413.292969" xlink:href="#j"/>
</g>
</g>
<path d="m127.07 425.92 1.9699-4.6554q0.93526-2.2103-1.275-3.1455l-7.1304-3.0172q-2.2103-0.93526-3.1455 1.275l-1.9699 4.6554q-0.93526 2.2103 1.275 3.1455l7.1304 3.0172q2.2103 0.93526 3.1455-1.275z" clip-path="url(#a)" fill="#fff" stroke="#fff"/>
<g clip-path="url(#a)">
<g transform="translate(123.32 424.33) rotate(-67.065) scale(.08 -.08)">
<use xlink:href="#s"/>
</g>
</g>
<path d="m139.02 418.62v5.055q0 2.4 2.4 2.4h7.7425q2.4 0 2.4-2.4v-5.055q0-2.4-2.4-2.4h-7.7425q-2.4 0-2.4 2.4z" clip-path="url(#a)" fill="#fff" stroke="#fff"/>
<g clip-path="url(#a)">
<g transform="translate(143.09 418.62) rotate(90) scale(.08 -.08)">
<use xlink:href="#s"/>
</g>
</g>
<path d="m161.45 421.02 2.1769 5.1446q0.93526 2.2103 3.1455 1.275l7.1304-3.0172q2.2103-0.93526 1.275-3.1455l-2.1769-5.1446q-0.93526-2.2103-3.1455-1.275l-7.1304 3.0172q-2.2103 0.93526-1.275 3.1455z" clip-path="url(#a)" fill="#fff" stroke="#fff"/>
<g clip-path="url(#a)">
<g transform="translate(165.19 419.43) rotate(67.065) scale(.08 -.08)">
<use xlink:href="#r"/>
</g>
</g>
<path d="m265.27 425.71 1.7931-4.2375q0.93526-2.2103-1.275-3.1455l-7.1304-3.0172q-2.2103-0.93526-3.1455 1.275l-1.7931 4.2375q-0.93526 2.2103 1.275 3.1455l7.1304 3.0172q2.2103 0.93526 3.1455-1.275z" clip-path="url(#a)" fill="#fff" stroke="#fff"/>
<g clip-path="url(#a)">
<g transform="translate(261.53 424.12) rotate(-67.065) scale(.08 -.08)">
<use xlink:href="#ag"/>
</g>
</g>
<path d="m277.14 418.37v5.5588q0 2.4 2.4 2.4h7.7425q2.4 0 2.4-2.4v-5.5588q0-2.4-2.4-2.4h-7.7425q-2.4 0-2.4 2.4z" clip-path="url(#a)" fill="#fff" stroke="#fff"/>
<g clip-path="url(#a)">
<g transform="translate(281.2 418.37) rotate(90) scale(.08 -.08)">
<use xlink:href="#w"/>
</g>
</g>
<path d="m299.57 421.02 2.1769 5.1446q0.93526 2.2103 3.1455 1.275l7.1304-3.0172q2.2103-0.93526 1.275-3.1455l-2.1769-5.1446q-0.93526-2.2103-3.1455-1.275l-7.1304 3.0172q-2.2103 0.93526-1.275 3.1455z" clip-path="url(#a)" fill="#fff" stroke="#fff"/>
<g clip-path="url(#a)">
<g transform="translate(303.31 419.43) rotate(67.065) scale(.08 -.08)">
<use xlink:href="#r"/>
</g>
</g>
<path d="m231.1 512.3v35.285q0 2.4 2.4 2.4h7.7425q2.4 0 2.4-2.4v-35.285q0-2.4-2.4-2.4h-7.7425q-2.4 0-2.4 2.4z" clip-path="url(#a)" fill="#fff" stroke="#fff"/>
<g clip-path="url(#a)">
<g transform="translate(235.17 512.3) rotate(90) scale(.08 -.08)">
<use xlink:href="#k"/>
<use x="60.818359" xlink:href="#d"/>
<use x="122.341797" xlink:href="#i"/>
<use x="163.439453" xlink:href="#l"/>
<use x="260.851562" xlink:href="#h"/>
<use x="288.634766" xlink:href="#f"/>
<use x="352.013672" xlink:href="#g"/>
<use x="413.292969" xlink:href="#j"/>
</g>
</g>
<path d="m277.14 512.3v35.285q0 2.4 2.4 2.4h7.7425q2.4 0 2.4-2.4v-35.285q0-2.4-2.4-2.4h-7.7425q-2.4 0-2.4 2.4z" clip-path="url(#a)" fill="#fff" stroke="#fff"/>
<g clip-path="url(#a)">
<g transform="translate(281.2 512.3) rotate(90) scale(.08 -.08)">
<use xlink:href="#k"/>
<use x="60.818359" xlink:href="#d"/>
<use x="122.341797" xlink:href="#i"/>
<use x="163.439453" xlink:href="#l"/>
<use x="260.851562" xlink:href="#h"/>
<use x="288.634766" xlink:href="#f"/>
<use x="352.013672" xlink:href="#g"/>
<use x="413.292969" xlink:href="#j"/>
</g>
</g>
<path d="m323.18 512.3v35.285q0 2.4 2.4 2.4h7.7425q2.4 0 2.4-2.4v-35.285q0-2.4-2.4-2.4h-7.7425q-2.4 0-2.4 2.4z" clip-path="url(#a)" fill="#fff" stroke="#fff"/>
<g clip-path="url(#a)">
<g transform="translate(327.24 512.3) rotate(90) scale(.08 -.08)">
<use xlink:href="#k"/>
<use x="60.818359" xlink:href="#d"/>
<use x="122.341797" xlink:href="#i"/>
<use x="163.439453" xlink:href="#l"/>
<use x="260.851562" xlink:href="#h"/>
<use x="288.634766" xlink:href="#f"/>
<use x="352.013672" xlink:href="#g"/>
<use x="413.292969" xlink:href="#j"/>
</g>
</g>
<path d="m92.984 512.3v35.285q0 2.4 2.4 2.4h7.7425q2.4 0 2.4-2.4v-35.285q0-2.4-2.4-2.4h-7.7425q-2.4 0-2.4 2.4z" clip-path="url(#a)" fill="#fff" stroke="#fff"/>
<g clip-path="url(#a)">
<g transform="translate(97.048 512.3) rotate(90) scale(.08 -.08)">
<use xlink:href="#k"/>
<use x="60.818359" xlink:href="#d"/>
<use x="122.341797" xlink:href="#i"/>
<use x="163.439453" xlink:href="#l"/>
<use x="260.851562" xlink:href="#h"/>
<use x="288.634766" xlink:href="#f"/>
<use x="352.013672" xlink:href="#g"/>
<use x="413.292969" xlink:href="#j"/>
</g>
</g>
<path d="m139.02 512.3v35.285q0 2.4 2.4 2.4h7.7425q2.4 0 2.4-2.4v-35.285q0-2.4-2.4-2.4h-7.7425q-2.4 0-2.4 2.4z" clip-path="url(#a)" fill="#fff" stroke="#fff"/>
<g clip-path="url(#a)">
<g transform="translate(143.09 512.3) rotate(90) scale(.08 -.08)">
<use xlink:href="#k"/>
<use x="60.818359" xlink:href="#d"/>
<use x="122.341797" xlink:href="#i"/>
<use x="163.439453" xlink:href="#l"/>
<use x="260.851562" xlink:href="#h"/>
<use x="288.634766" xlink:href="#f"/>
<use x="352.013672" xlink:href="#g"/>
<use x="413.292969" xlink:href="#j"/>
</g>
</g>
<path d="m185.06 512.3v35.285q0 2.4 2.4 2.4h7.7425q2.4 0 2.4-2.4v-35.285q0-2.4-2.4-2.4h-7.7425q-2.4 0-2.4 2.4z" clip-path="url(#a)" fill="#fff" stroke="#fff"/>
<g clip-path="url(#a)">
<g transform="translate(189.13 512.3) rotate(90) scale(.08 -.08)">
<use xlink:href="#k"/>
<use x="60.818359" xlink:href="#d"/>
<use x="122.341797" xlink:href="#i"/>
<use x="163.439453" xlink:href="#l"/>
<use x="260.851562" xlink:href="#h"/>
<use x="288.634766" xlink:href="#f"/>
<use x="352.013672" xlink:href="#g"/>
<use x="413.292969" xlink:href="#j"/>
</g>
</g>
<path d="m287.15 208.21 7.8651-6.0659q1.9004-1.4657 0.43474-3.3662l-4.7284-6.1309q-1.4657-1.9004-3.3662-0.43474l-7.8651 6.0659q-1.9004 1.4657-0.43474 3.3662l4.7284 6.1309q1.4657 1.9004 3.3662 0.43474z" clip-path="url(#a)" fill="#fff" stroke="#fff"/>
<g clip-path="url(#a)">
<g transform="translate(284.66 204.99) rotate(-37.641) scale(.08 -.08)">
<use xlink:href="#q"/>
<use x="55.744141" xlink:href="#t"/>
</g>
</g>
<path d="m361.32 305.05 0.46311 10.006q0.11097 2.3974 2.5084 2.2865l7.7342-0.35798q2.3974-0.11097 2.2865-2.5084l-0.46311-10.006q-0.11097-2.3974-2.5084-2.2865l-7.7342 0.35798q-2.3974 0.11097-2.2865 2.5084z" clip-path="url(#a)" fill="#fff" stroke="#fff"/>
<g clip-path="url(#a)">
<g transform="translate(365.38 304.87) rotate(87.35) scale(.08 -.08)">
<use xlink:href="#q"/>
<use x="55.712891" xlink:href="#w"/>
</g>
</g>
<path d="m417.51 201.71 7.5233 6.4849q1.8179 1.567 3.3848-0.2509l5.0551-5.8645q1.567-1.8179-0.2509-3.3848l-7.5233-6.4849q-1.8179-1.567-3.3848 0.2509l-5.0551 5.8645q-1.567 1.8179 0.2509 3.3848z" clip-path="url(#a)" fill="#fff" stroke="#fff"/>
<g clip-path="url(#a)">
<g transform="translate(420.16 198.64) rotate(40.761) scale(.08 -.08)">
<use xlink:href="#q"/>
<use x="55.744141" xlink:href="#t"/>
</g>
</g>
<path d="m98.412 316.11 2.3651-9.733q0.56671-2.3321-1.7654-2.8988l-7.5236-1.8282q-2.3321-0.56671-2.8988 1.7654l-2.3651 9.733q-0.56671 2.3321 1.7654 2.8988l7.5236 1.8282q2.3321 0.56671 2.8988-1.7654z" clip-path="url(#a)" fill="#fff" stroke="#fff"/>
<g clip-path="url(#a)">
<g transform="translate(94.463 315.15) rotate(-76.342) scale(.08 -.08)">
<use xlink:href="#q"/>
<use x="55.712891" xlink:href="#w"/>
</g>
</g>
<path d="m166.08 199.82 5.7852 8.0738q1.3979 1.9509 3.3488 0.55298l6.2936-4.5096q1.9509-1.3979 0.55298-3.3488l-5.7852-8.0738q-1.3979-1.9509-3.3488-0.55298l-6.2936 4.5096q-1.9509 1.3979-0.55298 3.3488z" clip-path="url(#a)" fill="#fff" stroke="#fff"/>
<g clip-path="url(#a)">
<g transform="translate(169.38 197.46) rotate(54.377) scale(.08 -.08)">
<use xlink:href="#q"/>
<use x="55.744141" xlink:href="#t"/>
</g>
</g>
<path d="m599.42 512.3v35.285q0 2.4 2.4 2.4h7.7425q2.4 0 2.4-2.4v-35.285q0-2.4-2.4-2.4h-7.7425q-2.4 0-2.4 2.4z" clip-path="url(#a)" fill="#fff" stroke="#fff"/>
<g clip-path="url(#a)">
<g transform="translate(603.48 512.3) rotate(90) scale(.08 -.08)">
<use xlink:href="#k"/>
<use x="60.818359" xlink:href="#d"/>
<use x="122.341797" xlink:href="#i"/>
<use x="163.439453" xlink:href="#l"/>
<use x="260.851562" xlink:href="#h"/>
<use x="288.634766" xlink:href="#f"/>
<use x="352.013672" xlink:href="#g"/>
<use x="413.292969" xlink:href="#j"/>
</g>
</g>
<path d="m1059.8 512.3v35.285q0 2.4 2.4 2.4h7.7425q2.4 0 2.4-2.4v-35.285q0-2.4-2.4-2.4h-7.7425q-2.4 0-2.4 2.4z" clip-path="url(#a)" fill="#fff" stroke="#fff"/>
<g clip-path="url(#a)">
<g transform="translate(1063.9 512.3) rotate(90) scale(.08 -.08)">
<use xlink:href="#k"/>
<use x="60.818359" xlink:href="#d"/>
<use x="122.341797" xlink:href="#i"/>
<use x="163.439453" xlink:href="#l"/>
<use x="260.851562" xlink:href="#h"/>
<use x="288.634766" xlink:href="#f"/>
<use x="352.013672" xlink:href="#g"/>
<use x="413.292969" xlink:href="#j"/>
</g>
</g>
<defs>
<path id="b" d="m0 8.6603c2.2967 0 4.4997-0.9125 6.1237-2.5365 1.624-1.624 2.5365-3.827 2.5365-6.1237s-0.9125-4.4997-2.5365-6.1237c-1.624-1.624-3.827-2.5365-6.1237-2.5365s-4.4997 0.9125-6.1237 2.5365c-1.624 1.624-2.5365 3.827-2.5365 6.1237s0.9125 4.4997 2.5365 6.1237c1.624 1.624 3.827 2.5365 6.1237 2.5365z"/>
</defs>
<g clip-path="url(#a)">
<use x="53.21604" y="584.348418" fill="#ffffff" stroke="#ffffff" xlink:href="#b"/>
</g>
<g clip-path="url(#a)">
<use x="99.255225" y="584.348418" fill="#ffffff" stroke="#ffffff" xlink:href="#b"/>
</g>
<g clip-path="url(#a)">
<use x="145.29441" y="584.348418" fill="#ffffff" stroke="#ffffff" xlink:href="#b"/>
</g>
<g clip-path="url(#a)">
<use x="191.333595" y="584.348418" fill="#ffffff" stroke="#ffffff" xlink:href="#b"/>
</g>
<g clip-path="url(#a)">
<use x="237.37278" y="584.348418" fill="#ffffff" stroke="#ffffff" xlink:href="#b"/>
</g>
<g clip-path="url(#a)">
<use x="283.411965" y="584.348418" fill="#ffffff" stroke="#ffffff" xlink:href="#b"/>
</g>
<g clip-path="url(#a)">
<use x="329.45115" y="584.348418" fill="#ffffff" stroke="#ffffff" xlink:href="#b"/>
</g>
<g clip-path="url(#a)">
<use x="375.490335" y="584.348418" fill="#ffffff" stroke="#ffffff" xlink:href="#b"/>
</g>
<g clip-path="url(#a)">
<use x="421.529519" y="584.348418" fill="#ffffff" stroke="#ffffff" xlink:href="#b"/>
</g>
<g clip-path="url(#a)">
<use x="467.568704" y="584.348418" fill="#ffffff" stroke="#ffffff" xlink:href="#b"/>
</g>
<g clip-path="url(#a)">
<use x="513.607889" y="584.348418" fill="#ffffff" stroke="#ffffff" xlink:href="#b"/>
</g>
<g clip-path="url(#a)">
<use x="559.647074" y="584.348418" fill="#ffffff" stroke="#ffffff" xlink:href="#b"/>
</g>
<g clip-path="url(#a)">
<use x="605.686259" y="584.348418" fill="#ffffff" stroke="#ffffff" xlink:href="#b"/>
</g>
<g clip-path="url(#a)">
<use x="651.725444" y="584.348418" fill="#ffffff" stroke="#ffffff" xlink:href="#b"/>
</g>
<g clip-path="url(#a)">
<use x="697.764629" y="584.348418" fill="#ffffff" stroke="#ffffff" xlink:href="#b"/>
</g>
<g clip-path="url(#a)">
<use x="743.803814" y="584.348418" fill="#ffffff" stroke="#ffffff" xlink:href="#b"/>
</g>
<g clip-path="url(#a)">
<use x="789.842999" y="584.348418" fill="#ffffff" stroke="#ffffff" xlink:href="#b"/>
</g>
<g clip-path="url(#a)">
<use x="835.882184" y="584.348418" fill="#ffffff" stroke="#ffffff" xlink:href="#b"/>
</g>
<g clip-path="url(#a)">
<use x="881.921369" y="584.348418" fill="#ffffff" stroke="#ffffff" xlink:href="#b"/>
</g>
<g clip-path="url(#a)">
<use x="927.960554" y="584.348418" fill="#ffffff" stroke="#ffffff" xlink:href="#b"/>
</g>
<g clip-path="url(#a)">
<use x="973.999738" y="584.348418" fill="#ffffff" stroke="#ffffff" xlink:href="#b"/>
</g>
<g clip-path="url(#a)">
<use x="1020.038923" y="584.348418" fill="#ffffff" stroke="#ffffff" xlink:href="#b"/>
</g>
<g clip-path="url(#a)">
<use x="1066.078108" y="584.348418" fill="#ffffff" stroke="#ffffff" xlink:href="#b"/>
</g>
<g clip-path="url(#a)">
<use x="445.66812" y="28.984916" fill="#ffffff" stroke="#ffffff" xlink:href="#b"/>
</g>
<g clip-path="url(#a)">
<use x="53.21604" y="475.545937" fill="#ffffff" stroke="#ffffff" xlink:href="#b"/>
</g>
<g clip-path="url(#a)">
<use x="214.353187" y="256.427415" fill="#ffffff" stroke="#ffffff" xlink:href="#b"/>
</g>
<g clip-path="url(#a)">
<use x="375.490335" y="475.545937" fill="#ffffff" stroke="#ffffff" xlink:href="#b"/>
</g>
<g clip-path="url(#a)">
<use x="490.588297" y="256.427415" fill="#ffffff" stroke="#ffffff" xlink:href="#b"/>
</g>
<g clip-path="url(#a)">
<use x="934.674601" y="143.987154" fill="#ffffff" stroke="#ffffff" xlink:href="#b"/>
</g>
<g clip-path="url(#a)">
<use x="1112.117293" y="584.348418" fill="#ffffff" stroke="#ffffff" xlink:href="#b"/>
</g>
<g clip-path="url(#a)">
<use x="713.111024" y="256.427415" fill="#ffffff" stroke="#ffffff" xlink:href="#b"/>
</g>
<g clip-path="url(#a)">
<use x="985.509535" y="366.743457" fill="#ffffff" stroke="#ffffff" xlink:href="#b"/>
</g>
<g clip-path="url(#a)">
<use x="927.960554" y="475.545937" fill="#ffffff" stroke="#ffffff" xlink:href="#b"/>
</g>
<g clip-path="url(#a)">
<use x="881.921369" y="475.545937" fill="#ffffff" stroke="#ffffff" xlink:href="#b"/>
</g>
<g clip-path="url(#a)">
<use x="973.999738" y="475.545937" fill="#ffffff" stroke="#ffffff" xlink:href="#b"/>
</g>
<g clip-path="url(#a)">
<use x="1020.038923" y="475.545937" fill="#ffffff" stroke="#ffffff" xlink:href="#b"/>
</g>
<g clip-path="url(#a)">
<use x="651.725444" y="475.545937" fill="#ffffff" stroke="#ffffff" xlink:href="#b"/>
</g>
<g clip-path="url(#a)">
<use x="697.764629" y="475.545937" fill="#ffffff" stroke="#ffffff" xlink:href="#b"/>
</g>
<g clip-path="url(#a)">
<use x="789.842999" y="366.743457" fill="#ffffff" stroke="#ffffff" xlink:href="#b"/>
</g>
<g clip-path="url(#a)">
<use x="743.803814" y="475.545937" fill="#ffffff" stroke="#ffffff" xlink:href="#b"/>
</g>
<g clip-path="url(#a)">
<use x="789.842999" y="475.545937" fill="#ffffff" stroke="#ffffff" xlink:href="#b"/>
</g>
<g clip-path="url(#a)">
<use x="835.882184" y="475.545937" fill="#ffffff" stroke="#ffffff" xlink:href="#b"/>
</g>
<g clip-path="url(#a)">
<use x="444.549112" y="366.743457" fill="#ffffff" stroke="#ffffff" xlink:href="#b"/>
</g>
<g clip-path="url(#a)">
<use x="536.627482" y="366.743457" fill="#ffffff" stroke="#ffffff" xlink:href="#b"/>
</g>
<g clip-path="url(#a)">
<use x="513.607889" y="475.545937" fill="#ffffff" stroke="#ffffff" xlink:href="#b"/>
</g>
<g clip-path="url(#a)">
<use x="559.647074" y="475.545937" fill="#ffffff" stroke="#ffffff" xlink:href="#b"/>
</g>
<g clip-path="url(#a)">
<use x="421.529519" y="475.545937" fill="#ffffff" stroke="#ffffff" xlink:href="#b"/>
</g>
<g clip-path="url(#a)">
<use x="467.568704" y="475.545937" fill="#ffffff" stroke="#ffffff" xlink:href="#b"/>
</g>
<g clip-path="url(#a)">
<use x="145.29441" y="366.743457" fill="#ffffff" stroke="#ffffff" xlink:href="#b"/>
</g>
<g clip-path="url(#a)">
<use x="283.411965" y="366.743457" fill="#ffffff" stroke="#ffffff" xlink:href="#b"/>
</g>
<g clip-path="url(#a)">
<use x="237.37278" y="475.545937" fill="#ffffff" stroke="#ffffff" xlink:href="#b"/>
</g>
<g clip-path="url(#a)">
<use x="283.411965" y="475.545937" fill="#ffffff" stroke="#ffffff" xlink:href="#b"/>
</g>
<g clip-path="url(#a)">
<use x="329.45115" y="475.545937" fill="#ffffff" stroke="#ffffff" xlink:href="#b"/>
</g>
<g clip-path="url(#a)">
<use x="99.255225" y="475.545937" fill="#ffffff" stroke="#ffffff" xlink:href="#b"/>
</g>
<g clip-path="url(#a)">
<use x="145.29441" y="475.545937" fill="#ffffff" stroke="#ffffff" xlink:href="#b"/>
</g>
<g clip-path="url(#a)">
<use x="191.333595" y="475.545937" fill="#ffffff" stroke="#ffffff" xlink:href="#b"/>
</g>
<g clip-path="url(#a)">
<use x="360.14394" y="143.987154" fill="#808080" stroke="#808080" xlink:href="#b"/>
</g>
<g clip-path="url(#a)">
<use x="133.784614" y="143.987154" fill="#808080" stroke="#808080" xlink:href="#b"/>
</g>
<g clip-path="url(#a)">
<use x="605.686259" y="475.545937" fill="#ffffff" stroke="#ffffff" xlink:href="#b"/>
</g>
<g clip-path="url(#a)">
<use x="1066.078108" y="475.545937" fill="#ffffff" stroke="#ffffff" xlink:href="#b"/>
</g>
<g clip-path="url(#a)">
<defs>
<path id="u" d="m48.781 52.594v-8.4062q-3.8125 2.1094-7.6406 3.1562t-7.7344 1.0469q-8.75 0-13.594-5.5469-4.8281-5.5312-4.8281-15.547t4.8281-15.562q4.8438-5.5312 13.594-5.5312 3.9062 0 7.7344 1.0469t7.6406 3.1562v-8.3125q-3.7656-1.75-7.7969-2.625-4.0156-0.89062-8.5625-0.89062-12.359 0-19.641 7.7656-7.2656 7.7656-7.2656 20.953 0 13.375 7.3438 21.031 7.3594 7.6719 20.156 7.6719 4.1406 0 8.0938-0.85938 3.9531-0.84375 7.6719-2.5469z"/>
</defs>
<g transform="translate(39.658 587.11) scale(.1 -.1)">
<use xlink:href="#ao"/>
<use x="63.476562" xlink:href="#h"/>
<use x="91.259766" xlink:href="#f"/>
<use x="154.638672" xlink:href="#u"/>
<use x="209.619141" xlink:href="#d"/>
</g>
</g>
<g clip-path="url(#a)">
<defs>
<path id="o" d="m18.312 70.219v-15.531h18.5v-6.9844h-18.5v-29.688q0-6.6875 1.8281-8.5938t7.4531-1.9062h9.2188v-7.5156h-9.2188q-10.406 0-14.359 3.875-3.9531 3.8906-3.9531 14.141v29.688h-6.5938v6.9844h6.5938v15.531z"/>
<path id="al" d="m54.891 33.016v-33.016h-8.9844v32.719q0 7.7656-3.0312 11.609-3.0312 3.8594-9.0781 3.8594-7.2812 0-11.484-4.6406-4.2031-4.625-4.2031-12.641v-30.906h-9.0312v75.984h9.0312v-29.797q3.2344 4.9375 7.5938 7.375 4.375 2.4375 10.094 2.4375 9.4219 0 14.25-5.8281 4.8438-5.8281 4.8438-17.156z"/>
</defs>
<g transform="translate(91.05 587.11) scale(.1 -.1)">
<use xlink:href="#o"/>
<use x="39.208984" xlink:href="#al"/>
<use x="102.587891" xlink:href="#d"/>
</g>
</g>
<g clip-path="url(#a)">
<defs>
<path id="aw" d="m18.109 8.2031v-29h-9.0312v75.484h9.0312v-8.2969q2.8438 4.875 7.1562 7.2344 4.3281 2.375 10.328 2.375 9.9688 0 16.188-7.9062 6.2344-7.9062 6.2344-20.797t-6.2344-20.812q-6.2188-7.9062-16.188-7.9062-6 0-10.328 2.375-4.3125 2.375-7.1562 7.25zm30.578 19.094q0 9.9062-4.0781 15.547t-11.203 5.6406q-7.1406 0-11.219-5.6406t-4.0781-15.547 4.0781-15.547 11.219-5.6406q7.125 0 11.203 5.6406t4.0781 15.547z"/>
<path id="aa" d="m8.5 21.578v33.109h8.9844v-32.766q0-7.7656 3.0156-11.656 3.0312-3.875 9.0938-3.875 7.2656 0 11.484 4.6406 4.2344 4.6406 4.2344 12.656v31h8.9844v-54.688h-8.9844v8.4062q-3.2656-4.9844-7.5938-7.4062-4.3125-2.4219-10.031-2.4219-9.4219 0-14.312 5.8594-4.875 5.8594-4.875 17.141z"/>
<path id="ac" d="m48.688 27.297q0 9.9062-4.0781 15.547t-11.203 5.6406q-7.1406 0-11.219-5.6406t-4.0781-15.547 4.0781-15.547 11.219-5.6406q7.125 0 11.203 5.6406t4.0781 15.547zm-30.578 19.094q2.8438 4.875 7.1562 7.2344 4.3281 2.375 10.328 2.375 9.9688 0 16.188-7.9062 6.2344-7.9062 6.2344-20.797t-6.2344-20.812q-6.2188-7.9062-16.188-7.9062-6 0-10.328 2.375-4.3125 2.375-7.1562 7.25v-8.2031h-9.0312v75.984h9.0312z"/>
</defs>
<g transform="translate(130.25 587.11) scale(.1 -.1)">
<use xlink:href="#aw"/>
<use x="63.476562" xlink:href="#aa"/>
<use x="126.855469" xlink:href="#ac"/>
<use x="190.332031" xlink:href="#j"/>
<use x="218.115234" xlink:href="#h"/>
<use x="245.898438" xlink:href="#u"/>
</g>
</g>
<g clip-path="url(#a)">
<defs>
<path id="p" d="m44.281 53.078v-8.5q-3.7969 1.9531-7.9062 2.9219-4.0938 0.98438-8.5 0.98438-6.6875 0-10.031-2.0469t-3.3438-6.1562q0-3.125 2.3906-4.9062t9.625-3.3906l3.0781-0.6875q9.5625-2.0469 13.594-5.7812t4.0312-10.422q0-7.625-6.0312-12.078-6.0312-4.4375-16.578-4.4375-4.3906 0-9.1562 0.85938t-10.031 2.5625v9.2812q4.9844-2.5938 9.8125-3.8906 4.8281-1.2812 9.5781-1.2812 6.3438 0 9.75 2.1719 3.4219 2.1719 3.4219 6.125 0 3.6562-2.4688 5.6094-2.4531 1.9531-10.812 3.7656l-3.125 0.73438q-8.3438 1.75-12.062 5.3906-3.7031 3.6406-3.7031 9.9844 0 7.7188 5.4688 11.906 5.4688 4.2031 15.531 4.2031 4.9688 0 9.3594-0.73438 4.4062-0.71875 8.1094-2.1875z"/>
</defs>
<g transform="translate(172.04 587.11) scale(.1 -.1)">
<use xlink:href="#h"/>
<use x="27.783203" xlink:href="#f"/>
<use x="91.162109" xlink:href="#o"/>
<use x="130.371094" xlink:href="#d"/>
<use x="191.894531" xlink:href="#i"/>
<use x="232.976562" xlink:href="#d"/>
<use x="294.5" xlink:href="#p"/>
<use x="346.599609" xlink:href="#o"/>
</g>
</g>
<g clip-path="url(#a)">
<defs>
<path id="ap" d="m4.2031 54.688h8.9844l11.234-42.672 11.172 42.672h10.594l11.234-42.672 11.188 42.672h8.9844l-14.312-54.688h-10.594l-11.766 44.828-11.812-44.828h-10.609z"/>
</defs>
<g transform="translate(227.61 587.11) scale(.1 -.1)">
<use xlink:href="#ap"/>
<use x="81.787109" xlink:href="#g"/>
<use x="143.066406" xlink:href="#p"/>
</g>
</g>
<g clip-path="url(#a)">
<g transform="translate(278.39 587.11) scale(.1 -.1)">
<use xlink:href="#g"/>
<use x="61.279297" xlink:href="#o"/>
</g>
</g>
<g clip-path="url(#a)">
<defs>
<path id="ax" d="m9.0781 75.984h9.0312v-44.875l26.812 23.578h11.469l-29-25.578 30.234-29.109h-11.719l-27.797 26.703v-26.703h-9.0312z"/>
</defs>
<g transform="translate(315.85 587.11) scale(.1 -.1)">
<use xlink:href="#p"/>
<use x="52.099609" xlink:href="#o"/>
<use x="91.308594" xlink:href="#g"/>
<use x="152.587891" xlink:href="#ax"/>
<use x="210.451172" xlink:href="#d"/>
</g>
</g>
<g clip-path="url(#a)">
<defs>
<path id="ab" d="m45.406 46.391v29.594h8.9844v-75.984h-8.9844v8.2031q-2.8281-4.875-7.1562-7.25-4.3125-2.375-10.375-2.375-9.9062 0-16.141 7.9062-6.2188 7.9219-6.2188 20.812t6.2188 20.797q6.2344 7.9062 16.141 7.9062 6.0625 0 10.375-2.375 4.3281-2.3594 7.1562-7.2344zm-30.609-19.094q0-9.9062 4.0781-15.547t11.203-5.6406 11.219 5.6406q4.1094 5.6406 4.1094 15.547t-4.1094 15.547q-4.0938 5.6406-11.219 5.6406t-11.203-5.6406-4.0781-15.547z"/>
</defs>
<g transform="translate(366.08 587.11) scale(.1 -.1)">
<use xlink:href="#g"/>
<use x="61.279297" xlink:href="#f"/>
<use x="124.658203" xlink:href="#ab"/>
</g>
</g>
<g clip-path="url(#a)">
<defs>
<path id="v" d="m30.609 48.391q-7.2188 0-11.422-5.6406t-4.2031-15.453 4.1719-15.453q4.1875-5.6406 11.453-5.6406 7.1875 0 11.375 5.6562 4.2031 5.6719 4.2031 15.438 0 9.7188-4.2031 15.406-4.1875 5.6875-11.375 5.6875zm0 7.6094q11.719 0 18.406-7.625 6.7031-7.6094 6.7031-21.078 0-13.422-6.7031-21.078-6.6875-7.6406-18.406-7.6406-11.766 0-18.438 7.6406-6.6562 7.6562-6.6562 21.078 0 13.469 6.6562 21.078 6.6719 7.625 18.438 7.625z"/>
</defs>
<g transform="translate(389.42 587.11) scale(.1 -.1)">
<use xlink:href="#o"/>
<use x="39.208984" xlink:href="#i"/>
<use x="80.322266" xlink:href="#g"/>
<use x="141.601562" xlink:href="#f"/>
<use x="204.980469" xlink:href="#p"/>
<use x="257.080078" xlink:href="#v"/>
<use x="318.261719" xlink:href="#u"/>
<use x="373.242188" xlink:href="#d"/>
<use x="434.765625" xlink:href="#g"/>
<use x="496.044922" xlink:href="#f"/>
<use x="559.423828" xlink:href="#h"/>
<use x="587.207031" xlink:href="#u"/>
</g>
</g>
<g clip-path="url(#a)">
<defs>
<path id="aq" d="m2.9844 54.688h9.5156l17.094-45.891 17.094 45.891h9.5156l-20.516-54.688h-12.203z"/>
</defs>
<g transform="translate(453.06 587.11) scale(.1 -.1)">
<use xlink:href="#o"/>
<use x="39.208984" xlink:href="#i"/>
<use x="80.322266" xlink:href="#g"/>
<use x="141.601562" xlink:href="#aq"/>
<use x="200.78125" xlink:href="#d"/>
<use x="262.304688" xlink:href="#j"/>
</g>
</g>
<g clip-path="url(#a)">
<g transform="translate(503.85 587.11) scale(.1 -.1)">
<use xlink:href="#ap"/>
<use x="81.787109" xlink:href="#g"/>
<use x="143.066406" xlink:href="#p"/>
</g>
</g>
<g clip-path="url(#a)">
<defs>
<path id="am" d="m37.109 75.984v-7.4844h-8.5938q-4.8281 0-6.7188-1.9531-1.875-1.9531-1.875-7.0312v-4.8281h14.797v-6.9844h-14.797v-47.703h-9.0312v47.703h-8.5938v6.9844h8.5938v3.8125q0 9.125 4.25 13.297 4.25 4.1875 13.469 4.1875z"/>
<path id="ar" d="m45.406 27.984q0 9.7656-4.0312 15.125-4.0156 5.375-11.297 5.375-7.2188 0-11.25-5.375-4.0312-5.3594-4.0312-15.125 0-9.7188 4.0312-15.094t11.25-5.375q7.2812 0 11.297 5.375 4.0312 5.375 4.0312 15.094zm8.9844-21.203q0-13.953-6.2031-20.766-6.1875-6.8125-18.984-6.8125-4.7344 0-8.9375 0.70312t-8.1562 2.1719v8.7344q3.9531-2.1406 7.8125-3.1562 3.8594-1.0312 7.8594-1.0312 8.8438 0 13.234 4.6094t4.3906 13.938v4.4531q-2.7812-4.8438-7.125-7.2344t-10.406-2.3906q-10.047 0-16.203 7.6562-6.1562 7.6719-6.1562 20.328 0 12.688 6.1562 20.344 6.1562 7.6719 16.203 7.6719 6.0625 0 10.406-2.3906t7.125-7.2188v8.2969h8.9844z"/>
</defs>
<g transform="translate(537.49 587.11) scale(.1 -.1)">
<use xlink:href="#p"/>
<use x="52.099609" xlink:href="#aa"/>
<use x="115.478516" xlink:href="#am"/>
<use x="150.683594" xlink:href="#am"/>
<use x="185.888672" xlink:href="#d"/>
<use x="247.412109" xlink:href="#i"/>
<use x="288.525391" xlink:href="#h"/>
<use x="316.308594" xlink:href="#f"/>
<use x="379.6875" xlink:href="#ar"/>
</g>
</g>
<g clip-path="url(#a)">
<defs>
<path id="au" d="m11.719 12.406h10.297v-8.4062l-8-15.625h-6.2969l4 15.625z"/>
</defs>
<g transform="translate(604.1 587.11) scale(.1 -.1)">
<use xlink:href="#au"/>
</g>
</g>
<g clip-path="url(#a)">
<g transform="translate(643.52 587.11) scale(.1 -.1)">
<use xlink:href="#o"/>
<use x="39.208984" xlink:href="#al"/>
<use x="102.587891" xlink:href="#d"/>
</g>
</g>
<g clip-path="url(#a)">
<defs>
<path id="av" d="m32.172-5.0781q-3.7969-9.7656-7.4219-12.734-3.6094-2.9844-9.6562-2.9844h-7.1875v7.5156h5.2812q3.7031 0 5.75 1.7656 2.0625 1.75 4.5469 8.2969l1.6094 4.0938-22.109 53.812h9.5156l17.094-42.766 17.094 42.766h9.5156z"/>
</defs>
<g transform="translate(676.41 587.11) scale(.1 -.1)">
<use xlink:href="#p"/>
<use x="52.099609" xlink:href="#h"/>
<use x="79.882812" xlink:href="#f"/>
<use x="143.261719" xlink:href="#u"/>
<use x="198.242188" xlink:href="#d"/>
<use x="259.765625" xlink:href="#i"/>
<use x="300.878906" xlink:href="#h"/>
<use x="328.662109" xlink:href="#o"/>
<use x="367.871094" xlink:href="#av"/>
</g>
</g>
<g clip-path="url(#a)">
<g transform="translate(738.98 587.11) scale(.1 -.1)">
<use xlink:href="#v"/>
<use x="61.181641" xlink:href="#am"/>
</g>
</g>
<g clip-path="url(#a)">
<g transform="translate(775.96 587.11) scale(.1 -.1)">
<use xlink:href="#o"/>
<use x="39.208984" xlink:href="#al"/>
<use x="102.587891" xlink:href="#d"/>
<use x="164.111328" xlink:href="#p"/>
<use x="216.210938" xlink:href="#d"/>
</g>
</g>
<g clip-path="url(#a)">
<g transform="translate(802.71 587.11) scale(.1 -.1)">
<use xlink:href="#ar"/>
<use x="63.476562" xlink:href="#v"/>
<use x="124.658203" xlink:href="#aq"/>
<use x="183.837891" xlink:href="#d"/>
<use x="245.361328" xlink:href="#i"/>
<use x="286.458984" xlink:href="#f"/>
<use x="349.837891" xlink:href="#l"/>
<use x="447.25" xlink:href="#d"/>
<use x="508.773438" xlink:href="#f"/>
<use x="572.152344" xlink:href="#o"/>
<use x="611.361328" xlink:href="#p"/>
</g>
</g>
<g clip-path="url(#a)">
<g transform="translate(868.38 587.11) scale(.1 -.1)">
<use xlink:href="#u"/>
<use x="54.980469" xlink:href="#v"/>
<use x="116.162109" xlink:href="#aa"/>
<use x="179.541016" xlink:href="#j"/>
<use x="207.324219" xlink:href="#ab"/>
</g>
</g>
<g clip-path="url(#a)">
<g transform="translate(919.77 587.11) scale(.1 -.1)">
<use xlink:href="#f"/>
<use x="63.378906" xlink:href="#v"/>
<use x="124.560547" xlink:href="#o"/>
</g>
</g>
<g clip-path="url(#a)">
<g transform="translate(967.75 587.11) scale(.1 -.1)">
<use xlink:href="#ac"/>
<use x="63.476562" xlink:href="#d"/>
</g>
</g>
<g clip-path="url(#a)">
<g transform="translate(999.25 587.11) scale(.1 -.1)">
<use xlink:href="#ab"/>
<use x="63.476562" xlink:href="#v"/>
<use x="124.658203" xlink:href="#aa"/>
<use x="188.037109" xlink:href="#ac"/>
<use x="251.513672" xlink:href="#o"/>
<use x="290.722656" xlink:href="#d"/>
<use x="352.246094" xlink:href="#ab"/>
</g>
</g>
<g clip-path="url(#a)">
<defs>
<path id="e" d="m10.688 12.406h10.312v-12.406h-10.312z"/>
</defs>
<g transform="translate(1064.5 587.11) scale(.1 -.1)">
<use xlink:href="#e"/>
</g>
</g>
<g clip-path="url(#a)">
<defs>
<path id="c" d="m12.406 8.2969h16.109v55.625l-17.531-3.5156v8.9844l17.438 3.5156h9.8594v-64.609h16.109v-8.2969h-41.984z"/>
</defs>
<g transform="translate(437.72 31.744) scale(.1 -.1)">
<use xlink:href="#c"/>
<use x="63.623047" xlink:href="#e"/>
<use x="95.410156" xlink:href="#c"/>
</g>
</g>
<g clip-path="url(#a)">
<defs>
<path id="n" d="m19.188 8.2969h34.422v-8.2969h-46.281v8.2969q5.6094 5.8125 15.297 15.594 9.7031 9.7969 12.188 12.641 4.7344 5.3125 6.6094 9 1.8906 3.6875 1.8906 7.25 0 5.8125-4.0781 9.4688-4.0781 3.6719-10.625 3.6719-4.6406 0-9.7969-1.6094-5.1406-1.6094-11-4.8906v9.9688q5.9531 2.3906 11.125 3.6094 5.1875 1.2188 9.4844 1.2188 11.328 0 18.062-5.6719 6.7344-5.6562 6.7344-15.125 0-4.5-1.6875-8.5312-1.6719-4.0156-6.125-9.4844-1.2188-1.4219-7.7656-8.1875-6.5312-6.7656-18.453-18.922z"/>
</defs>
<g transform="translate(45.264 478.31) scale(.1 -.1)">
<use xlink:href="#c"/>
<use x="63.623047" xlink:href="#e"/>
<use x="95.410156" xlink:href="#n"/>
</g>
</g>
<g clip-path="url(#a)">
<defs>
<path id="m" d="m40.578 39.312q7.0781-1.5156 11.047-6.3125 3.9844-4.7812 3.9844-11.812 0-10.781-7.4219-16.703-7.4219-5.9062-21.094-5.9062-4.5781 0-9.4375 0.90625t-10.031 2.7188v9.5156q4.0938-2.3906 8.9688-3.6094 4.8906-1.2188 10.219-1.2188 9.2656 0 14.125 3.6562t4.8594 10.641q0 6.4531-4.5156 10.078-4.5156 3.6406-12.562 3.6406h-8.5v8.1094h8.8906q7.2656 0 11.125 2.9062t3.8594 8.375q0 5.6094-3.9844 8.6094-3.9688 3.0156-11.391 3.0156-4.0625 0-8.7031-0.89062-4.6406-0.875-10.203-2.7188v8.7812q5.625 1.5625 10.531 2.3438t9.25 0.78125q11.234 0 17.766-5.1094 6.5469-5.0938 6.5469-13.781 0-6.0625-3.4688-10.234t-9.8594-5.7812z"/>
</defs>
<g transform="translate(206.4 259.19) scale(.1 -.1)">
<use xlink:href="#c"/>
<use x="63.623047" xlink:href="#e"/>
<use x="95.410156" xlink:href="#m"/>
</g>
</g>
<g clip-path="url(#a)">
<defs>
<path id="z" d="m37.797 64.312-24.906-38.922h24.906zm-2.5938 8.5938h12.406v-47.516h10.406v-8.2031h-10.406v-17.188h-9.8125v17.188h-32.906v9.5156z"/>
</defs>
<g transform="translate(367.54 478.31) scale(.1 -.1)">
<use xlink:href="#c"/>
<use x="63.623047" xlink:href="#e"/>
<use x="95.410156" xlink:href="#z"/>
</g>
</g>
<g clip-path="url(#a)">
<defs>
<path id="y" d="m10.797 72.906h38.719v-8.3125h-29.688v-17.859q2.1406 0.73438 4.2812 1.0938 2.1562 0.35938 4.3125 0.35938 12.203 0 19.328-6.6875 7.1406-6.6875 7.1406-18.109 0-11.766-7.3281-18.297-7.3281-6.5156-20.656-6.5156-4.5938 0-9.3594 0.78125-4.75 0.78125-9.8281 2.3438v9.9219q4.3906-2.3906 9.0781-3.5625t9.9062-1.1719q8.4531 0 13.375 4.4375 4.9375 4.4375 4.9375 12.062 0 7.6094-4.9375 12.047-4.9219 4.4531-13.375 4.4531-3.9531 0-7.8906-0.875-3.9219-0.875-8.0156-2.7344z"/>
</defs>
<g transform="translate(482.64 259.19) scale(.1 -.1)">
<use xlink:href="#c"/>
<use x="63.623047" xlink:href="#e"/>
<use x="95.410156" xlink:href="#y"/>
</g>
</g>
<g clip-path="url(#a)">
<defs>
<path id="x" d="m8.2031 72.906h46.875v-4.2031l-26.469-68.703h-10.297l24.906 64.594h-35.016z"/>
</defs>
<g transform="translate(926.72 146.75) scale(.1 -.1)">
<use xlink:href="#c"/>
<use x="63.623047" xlink:href="#e"/>
<use x="95.410156" xlink:href="#x"/>
</g>
</g>
<g clip-path="url(#a)">
<defs>
<path id="ae" d="m9.8125 72.906h9.8594v-72.906h-9.8594z"/>
<path id="as" d="m9.8125 72.906h14.703l18.594-49.609 18.703 49.609h14.703v-72.906h-9.625v64.016l-18.797-50h-9.9062l-18.797 50v-64.016h-9.5781z"/>
</defs>
<g transform="translate(1091 587.11) scale(.1 -.1)">
<use xlink:href="#ae"/>
<use x="29.492188" xlink:href="#as"/>
<use x="115.771484" xlink:href="#ad"/>
<use x="176.074219" xlink:href="#q"/>
<use x="231.787109" xlink:href="#ae"/>
<use x="261.279297" xlink:href="#r"/>
<use x="331.103516" xlink:href="#ae"/>
<use x="360.595703" xlink:href="#k"/>
</g>
</g>
<g clip-path="url(#a)">
<defs>
<path id="ak" d="m31.781 66.406q-7.6094 0-11.453-7.5-3.8281-7.4844-3.8281-22.531 0-14.984 3.8281-22.484 3.8438-7.5 11.453-7.5 7.6719 0 11.5 7.5 3.8438 7.5 3.8438 22.484 0 15.047-3.8438 22.531-3.8281 7.5-11.5 7.5zm0 7.8125q12.266 0 18.734-9.7031 6.4688-9.6875 6.4688-28.141 0-18.406-6.4688-28.109-6.4688-9.6875-18.734-9.6875-12.25 0-18.719 9.6875-6.4688 9.7031-6.4688 28.109 0 18.453 6.4688 28.141 6.4688 9.7031 18.719 9.7031z"/>
</defs>
<g transform="translate(701.98 259.19) scale(.1 -.1)">
<use xlink:href="#c"/>
<use x="63.623047" xlink:href="#e"/>
<use x="95.410156" xlink:href="#c"/>
<use x="159.033203" xlink:href="#ak"/>
</g>
</g>
<g clip-path="url(#a)">
<g transform="translate(974.38 369.5) scale(.1 -.1)">
<use xlink:href="#c"/>
<use x="63.623047" xlink:href="#e"/>
<use x="95.410156" xlink:href="#c"/>
<use x="159.033203" xlink:href="#c"/>
</g>
</g>
<g clip-path="url(#a)">
<g transform="translate(916.83 478.31) scale(.1 -.1)">
<use xlink:href="#c"/>
<use x="63.623047" xlink:href="#e"/>
<use x="95.410156" xlink:href="#c"/>
<use x="159.033203" xlink:href="#n"/>
</g>
</g>
<g clip-path="url(#a)">
<g transform="translate(870.79 478.31) scale(.1 -.1)">
<use xlink:href="#c"/>
<use x="63.623047" xlink:href="#e"/>
<use x="95.410156" xlink:href="#c"/>
<use x="159.033203" xlink:href="#m"/>
</g>
</g>
<g clip-path="url(#a)">
<g transform="translate(962.87 478.31) scale(.1 -.1)">
<use xlink:href="#c"/>
<use x="63.623047" xlink:href="#e"/>
<use x="95.410156" xlink:href="#c"/>
<use x="159.033203" xlink:href="#z"/>
</g>
</g>
<g clip-path="url(#a)">
<g transform="translate(1008.9 478.31) scale(.1 -.1)">
<use xlink:href="#c"/>
<use x="63.623047" xlink:href="#e"/>
<use x="95.410156" xlink:href="#c"/>
<use x="159.033203" xlink:href="#y"/>
</g>
</g>
<g clip-path="url(#a)">
<defs>
<path id="aj" d="m33.016 40.375q-6.6406 0-10.531-4.5469-3.875-4.5312-3.875-12.438 0-7.8594 3.875-12.438 3.8906-4.5625 10.531-4.5625t10.516 4.5625q3.875 4.5781 3.875 12.438 0 7.9062-3.875 12.438-3.875 4.5469-10.516 4.5469zm19.578 30.922v-8.9844q-3.7188 1.75-7.5 2.6719-3.7812 0.9375-7.5 0.9375-9.7656 0-14.922-6.5938-5.1406-6.5938-5.875-19.922 2.875 4.25 7.2188 6.5156 4.3594 2.2656 9.5781 2.2656 10.984 0 17.359-6.6719 6.375-6.6562 6.375-18.125 0-11.234-6.6406-18.031-6.6406-6.7812-17.672-6.7812-12.656 0-19.344 9.6875-6.6875 9.7031-6.6875 28.109 0 17.281 8.2031 27.562t22.016 10.281q3.7188 0 7.5-0.73438t7.8906-2.1875z"/>
</defs>
<g transform="translate(640.59 478.31) scale(.1 -.1)">
<use xlink:href="#c"/>
<use x="63.623047" xlink:href="#e"/>
<use x="95.410156" xlink:href="#c"/>
<use x="159.033203" xlink:href="#aj"/>
</g>
</g>
<g clip-path="url(#a)">
<g transform="translate(686.63 478.31) scale(.1 -.1)">
<use xlink:href="#c"/>
<use x="63.623047" xlink:href="#e"/>
<use x="95.410156" xlink:href="#c"/>
<use x="159.033203" xlink:href="#x"/>
</g>
</g>
<g clip-path="url(#a)">
<defs>
<path id="ai" d="m31.781 34.625q-7.0312 0-11.062-3.7656-4.0156-3.7656-4.0156-10.344 0-6.5938 4.0156-10.359 4.0312-3.7656 11.062-3.7656t11.078 3.7812q4.0625 3.7969 4.0625 10.344 0 6.5781-4.0312 10.344-4.0156 3.7656-11.109 3.7656zm-9.8594 4.1875q-6.3438 1.5625-9.8906 5.9062-3.5312 4.3594-3.5312 10.609 0 8.7344 6.2188 13.812 6.2344 5.0781 17.062 5.0781 10.891 0 17.094-5.0781t6.2031-13.812q0-6.25-3.5469-10.609-3.5312-4.3438-9.8281-5.9062 7.125-1.6562 11.094-6.5 3.9844-4.8281 3.9844-11.797 0-10.609-6.4688-16.281-6.4688-5.6562-18.531-5.6562-12.047 0-18.531 5.6562-6.4688 5.6719-6.4688 16.281 0 6.9688 4 11.797 4.0156 4.8438 11.141 6.5zm-3.6094 15.578q0-5.6562 3.5312-8.8281 3.5469-3.1719 9.9375-3.1719 6.3594 0 9.9375 3.1719 3.5938 3.1719 3.5938 8.8281 0 5.6719-3.5938 8.8438-3.5781 3.1719-9.9375 3.1719-6.3906 0-9.9375-3.1719-3.5312-3.1719-3.5312-8.8438z"/>
</defs>
<g transform="translate(778.71 369.5) scale(.1 -.1)">
<use xlink:href="#c"/>
<use x="63.623047" xlink:href="#e"/>
<use x="95.410156" xlink:href="#c"/>
<use x="159.033203" xlink:href="#ai"/>
</g>
</g>
<g clip-path="url(#a)">
<defs>
<path id="ah" d="m10.984 1.5156v8.9844q3.7188-1.7656 7.5156-2.6875 3.8125-0.92188 7.4844-0.92188 9.7656 0 14.906 6.5625 5.1562 6.5625 5.8906 19.953-2.8281-4.2031-7.1875-6.4531-4.3438-2.25-9.6094-2.25-10.938 0-17.312 6.6094-6.375 6.625-6.375 18.109 0 11.219 6.6406 18 6.6406 6.7969 17.672 6.7969 12.656 0 19.312-9.7031 6.6719-9.6875 6.6719-28.141 0-17.234-8.1875-27.516-8.1719-10.281-21.984-10.281-3.7188 0-7.5312 0.73438-3.7969 0.73438-7.9062 2.2031zm19.625 30.906q6.6406 0 10.516 4.5312 3.8906 4.5469 3.8906 12.469 0 7.8594-3.8906 12.422-3.875 4.5625-10.516 4.5625t-10.516-4.5625-3.875-12.422q0-7.9219 3.875-12.469 3.875-4.5312 10.516-4.5312z"/>
</defs>
<g transform="translate(732.67 478.31) scale(.1 -.1)">
<use xlink:href="#c"/>
<use x="63.623047" xlink:href="#e"/>
<use x="95.410156" xlink:href="#c"/>
<use x="159.033203" xlink:href="#ah"/>
</g>
</g>
<g clip-path="url(#a)">
<g transform="translate(778.71 478.31) scale(.1 -.1)">
<use xlink:href="#c"/>
<use x="63.623047" xlink:href="#e"/>
<use x="95.410156" xlink:href="#n"/>
<use x="159.033203" xlink:href="#ak"/>
</g>
</g>
<g clip-path="url(#a)">
<g transform="translate(824.75 478.31) scale(.1 -.1)">
<use xlink:href="#c"/>
<use x="63.623047" xlink:href="#e"/>
<use x="95.410156" xlink:href="#n"/>
<use x="159.033203" xlink:href="#c"/>
</g>
</g>
<g clip-path="url(#a)">
<g transform="translate(433.42 369.5) scale(.1 -.1)">
<use xlink:href="#c"/>
<use x="63.623047" xlink:href="#e"/>
<use x="95.410156" xlink:href="#n"/>
<use x="159.033203" xlink:href="#n"/>
</g>
</g>
<g clip-path="url(#a)">
<g transform="translate(525.49 369.5) scale(.1 -.1)">
<use xlink:href="#c"/>
<use x="63.623047" xlink:href="#e"/>
<use x="95.410156" xlink:href="#n"/>
<use x="159.033203" xlink:href="#m"/>
</g>
</g>
<g clip-path="url(#a)">
<g transform="translate(502.48 478.31) scale(.1 -.1)">
<use xlink:href="#c"/>
<use x="63.623047" xlink:href="#e"/>
<use x="95.410156" xlink:href="#n"/>
<use x="159.033203" xlink:href="#z"/>
</g>
</g>
<g clip-path="url(#a)">
<g transform="translate(548.51 478.31) scale(.1 -.1)">
<use xlink:href="#c"/>
<use x="63.623047" xlink:href="#e"/>
<use x="95.410156" xlink:href="#n"/>
<use x="159.033203" xlink:href="#y"/>
</g>
</g>
<g clip-path="url(#a)">
<g transform="translate(410.4 478.31) scale(.1 -.1)">
<use xlink:href="#c"/>
<use x="63.623047" xlink:href="#e"/>
<use x="95.410156" xlink:href="#n"/>
<use x="159.033203" xlink:href="#aj"/>
</g>
</g>
<g clip-path="url(#a)">
<g transform="translate(456.44 478.31) scale(.1 -.1)">
<use xlink:href="#c"/>
<use x="63.623047" xlink:href="#e"/>
<use x="95.410156" xlink:href="#n"/>
<use x="159.033203" xlink:href="#x"/>
</g>
</g>
<g clip-path="url(#a)">
<g transform="translate(134.16 369.5) scale(.1 -.1)">
<use xlink:href="#c"/>
<use x="63.623047" xlink:href="#e"/>
<use x="95.410156" xlink:href="#n"/>
<use x="159.033203" xlink:href="#ai"/>
</g>
</g>
<g clip-path="url(#a)">
<g transform="translate(272.28 369.5) scale(.1 -.1)">
<use xlink:href="#c"/>
<use x="63.623047" xlink:href="#e"/>
<use x="95.410156" xlink:href="#n"/>
<use x="159.033203" xlink:href="#ah"/>
</g>
</g>
<g clip-path="url(#a)">
<g transform="translate(226.24 478.31) scale(.1 -.1)">
<use xlink:href="#c"/>
<use x="63.623047" xlink:href="#e"/>
<use x="95.410156" xlink:href="#m"/>
<use x="159.033203" xlink:href="#ak"/>
</g>
</g>
<g clip-path="url(#a)">
<g transform="translate(272.28 478.31) scale(.1 -.1)">
<use xlink:href="#c"/>
<use x="63.623047" xlink:href="#e"/>
<use x="95.410156" xlink:href="#m"/>
<use x="159.033203" xlink:href="#c"/>
</g>
</g>
<g clip-path="url(#a)">
<g transform="translate(318.32 478.31) scale(.1 -.1)">
<use xlink:href="#c"/>
<use x="63.623047" xlink:href="#e"/>
<use x="95.410156" xlink:href="#m"/>
<use x="159.033203" xlink:href="#n"/>
</g>
</g>
<g clip-path="url(#a)">
<g transform="translate(88.122 478.31) scale(.1 -.1)">
<use xlink:href="#c"/>
<use x="63.623047" xlink:href="#e"/>
<use x="95.410156" xlink:href="#m"/>
<use x="159.033203" xlink:href="#m"/>
</g>
</g>
<g clip-path="url(#a)">
<g transform="translate(134.16 478.31) scale(.1 -.1)">
<use xlink:href="#c"/>
<use x="63.623047" xlink:href="#e"/>
<use x="95.410156" xlink:href="#m"/>
<use x="159.033203" xlink:href="#z"/>
</g>
</g>
<g clip-path="url(#a)">
<g transform="translate(180.2 478.31) scale(.1 -.1)">
<use xlink:href="#c"/>
<use x="63.623047" xlink:href="#e"/>
<use x="95.410156" xlink:href="#m"/>
<use x="159.033203" xlink:href="#y"/>
</g>
</g>
<g clip-path="url(#a)">
<g transform="translate(349.01 146.75) scale(.1 -.1)">
<use xlink:href="#c"/>
<use x="63.623047" xlink:href="#e"/>
<use x="95.410156" xlink:href="#m"/>
<use x="159.033203" xlink:href="#aj"/>
</g>
</g>
<g clip-path="url(#a)">
<g transform="translate(122.65 146.75) scale(.1 -.1)">
<use xlink:href="#c"/>
<use x="63.623047" xlink:href="#e"/>
<use x="95.410156" xlink:href="#m"/>
<use x="159.033203" xlink:href="#x"/>
</g>
</g>
<g clip-path="url(#a)">
<g transform="translate(594.55 478.31) scale(.1 -.1)">
<use xlink:href="#c"/>
<use x="63.623047" xlink:href="#e"/>
<use x="95.410156" xlink:href="#m"/>
<use x="159.033203" xlink:href="#ai"/>
</g>
</g>
<g clip-path="url(#a)">
<g transform="translate(1054.9 478.31) scale(.1 -.1)">
<use xlink:href="#c"/>
<use x="63.623047" xlink:href="#e"/>
<use x="95.410156" xlink:href="#m"/>
<use x="159.033203" xlink:href="#ah"/>
</g>
</g>
<defs>
<clipPath id="a">
<rect width="1165.3" height="613.33"/>
</clipPath>
</defs>
</svg>
