<?xml version="1.0" encoding="UTF-8"?>
<!DOCTYPE svg  PUBLIC '-//W3C//DTD SVG 1.1//EN'  'http://www.w3.org/Graphics/SVG/1.1/DTD/svg11.dtd'>
<svg width="506.67pt" height="266.67pt" version="1.1" viewBox="0 0 506.67 266.67" xmlns="http://www.w3.org/2000/svg" xmlns:xlink="http://www.w3.org/1999/xlink">
<metadata>
<rdf:RDF xmlns:cc="http://creativecommons.org/ns#" xmlns:dc="http://purl.org/dc/elements/1.1/" xmlns:rdf="http://www.w3.org/1999/02/22-rdf-syntax-ns#">
<cc:Work>
<dc:type rdf:resource="http://purl.org/dc/dcmitype/StillImage"/>
<dc:date>2021-03-03T07:09:32.595312</dc:date>
<dc:format>image/svg+xml</dc:format>
<dc:creator>
<cc:Agent>
<dc:title>Matplotlib v3.3.3, https://matplotlib.org/</dc:title>
</cc:Agent>
</dc:creator>
</cc:Work>
</rdf:RDF>
</metadata>
<defs>
<style type="text/css">*{stroke-linecap:butt;stroke-linejoin:round;}</style>
</defs>
<path d="m0 266.67h506.67v-266.67h-506.67z" fill="#fff"/>
<g fill="none" stroke="#000">
<path d="m259.65 12.121v61.128" clip-path="url(#a)"/>
<path d="m259.65 73.25-213.35 60.921" clip-path="url(#a)"/>
<path d="m259.65 73.25-13.293 60.921" clip-path="url(#a)"/>
<path d="m259.65 73.25 77.432 121.52" clip-path="url(#a)"/>
<path d="m259.65 73.25-131.93 121.52" clip-path="url(#a)"/>
<path d="m259.65 73.25-90.061 121.52" clip-path="url(#a)"/>
<path d="m259.65 73.25 147.22 121.52" clip-path="url(#a)"/>
<path d="m259.65 73.25 223.99 121.52" clip-path="url(#a)"/>
<path d="m46.293 134.17 46.526 60.603" clip-path="url(#a)"/>
<path d="m46.293 134.17 46.526 60.603" clip-path="url(#a)"/>
<path d="m46.293 134.17 46.526 60.603" clip-path="url(#a)"/>
<path d="m46.293 134.17-23.263 60.603" clip-path="url(#a)"/>
<path d="m46.293 134.17 25.589 60.603" clip-path="url(#a)"/>
<path d="m46.293 134.17-2.3263 60.603" clip-path="url(#a)"/>
<path d="m246.35 134.17-27.916 60.603" clip-path="url(#a)"/>
<path d="m246.35 134.17 27.916 60.603" clip-path="url(#a)"/>
<path d="m337.08 194.77v59.772" clip-path="url(#a)"/>
<path d="m218.44 194.77v59.772" clip-path="url(#a)"/>
<path d="m274.27 194.77v59.772" clip-path="url(#a)"/>
<path d="m23.03 194.77v59.772" clip-path="url(#a)"/>
<path d="m71.882 194.77v59.772" clip-path="url(#a)"/>
<path d="m43.967 194.77v59.772" clip-path="url(#a)"/>
<path d="m127.71 194.77v59.772" clip-path="url(#a)"/>
<path d="m169.59 194.77v59.772" clip-path="url(#a)"/>
<path d="m406.87 194.77v59.772" clip-path="url(#a)"/>
<path d="m483.64 194.77v59.772" clip-path="url(#a)"/>
</g>
<path d="m253.38 39.677v6.0162q0 2.4 2.4 2.4h7.7425q2.4 0 2.4-2.4v-6.0162q0-2.4-2.4-2.4h-7.7425q-2.4 0-2.4 2.4z" clip-path="url(#a)" fill="#fff" stroke="#fff"/>
<g clip-path="url(#a)">
<g transform="translate(257.44 39.677) rotate(90) scale(.08 -.08)">
<defs>
<path id="ab" d="m9.8125 72.906h9.8594v-29.891h35.844v29.891h9.8594v-72.906h-9.8594v34.719h-35.844v-34.719h-9.8594z"/>
</defs>
<use xlink:href="#ab"/>
</g>
</g>
<path d="m152.06 110.49 5.2622-1.5026q2.3078-0.65896 1.6488-2.9667l-2.1258-7.4449q-0.65896-2.3078-2.9667-1.6488l-5.2622 1.5026q-2.3078 0.65896-1.6488 2.9667l2.1258 7.4449q0.65896 2.3078 2.9667 1.6488z" clip-path="url(#a)" fill="#fff" stroke="#fff"/>
<g clip-path="url(#a)">
<g transform="translate(150.95 106.58) rotate(-15.936) scale(.08 -.08)">
<defs>
<path id="p" d="m34.188 63.188-13.391-36.281h26.812zm-5.5781 9.7188h11.188l27.781-72.906h-10.25l-6.6406 18.703h-32.859l-6.6406-18.703h-10.406z"/>
</defs>
<use xlink:href="#p"/>
</g>
</g>
<path d="m258.54 107.72 1.1667-5.3467q0.51165-2.3448-1.8332-2.8565l-7.5645-1.6506q-2.3448-0.51165-2.8565 1.8332l-1.1667 5.3467q-0.51165 2.3448 1.8332 2.8565l7.5645 1.6506q2.3448 0.51165 2.8565-1.8332z" clip-path="url(#a)" fill="#fff" stroke="#fff"/>
<g clip-path="url(#a)">
<g transform="translate(254.57 106.85) rotate(-77.691) scale(.08 -.08)">
<use xlink:href="#p"/>
</g>
</g>
<path d="m291.78 135.35 2.5921 4.0681q1.2897 2.024 3.3137 0.73437l6.5296-4.1605q2.024-1.2897 0.73437-3.3137l-2.5921-4.0681q-1.2897-2.024-3.3137-0.73437l-6.5296 4.1605q-2.024 1.2897-0.73437 3.3137z" clip-path="url(#a)" fill="#fff" stroke="#fff"/>
<g clip-path="url(#a)">
<g transform="translate(295.21 133.16) rotate(57.496) scale(.08 -.08)">
<defs>
<path id="n" d="m19.672 64.797v-27.391h12.406q6.8906 0 10.641 3.5625 3.7656 3.5625 3.7656 10.156 0 6.5469-3.7656 10.109-3.75 3.5625-10.641 3.5625zm-9.8594 8.1094h22.266q12.266 0 18.531-5.5469 6.2812-5.5469 6.2812-16.234 0-10.797-6.2812-16.312-6.2656-5.5156-18.531-5.5156h-12.406v-29.297h-9.8594z"/>
</defs>
<use xlink:href="#n"/>
</g>
</g>
<path d="m195.78 140.61 4.3065-3.9667q1.7653-1.626 0.13928-3.3913l-5.2455-5.6948q-1.626-1.7653-3.3913-0.13928l-4.3065 3.9667q-1.7653 1.626-0.13928 3.3913l5.2455 5.6948q1.626 1.7653 3.3913 0.13928z" clip-path="url(#a)" fill="#fff" stroke="#fff"/>
<g clip-path="url(#a)">
<g transform="translate(193.02 137.62) rotate(-42.648) scale(.08 -.08)">
<defs>
<path id="o" d="m8.6875 72.906h9.9219v-44.297q0-11.719 4.2344-16.875 4.25-5.1406 13.781-5.1406 9.4688 0 13.719 5.1406 4.25 5.1562 4.25 16.875v44.297h9.9062v-45.516q0-14.25-7.0625-21.531-7.0469-7.2812-20.812-7.2812-13.828 0-20.891 7.2812-7.0469 7.2812-7.0469 21.531z"/>
</defs>
<use xlink:href="#o"/>
</g>
</g>
<path d="m217.91 140.1 3.4861-4.704q1.429-1.9282-0.49923-3.3572l-6.2205-4.61q-1.9282-1.429-3.3572 0.49923l-3.4861 4.704q-1.429 1.9282 0.49923 3.3572l6.2205 4.61q1.9282 1.429 3.3572-0.49923z" clip-path="url(#a)" fill="#fff" stroke="#fff"/>
<g clip-path="url(#a)">
<g transform="translate(214.65 137.68) rotate(-53.458) scale(.08 -.08)">
<use xlink:href="#o"/>
</g>
</g>
<path d="m327.01 136.98 4.5154 3.7272q1.8509 1.5278 3.3787-0.32307l4.9288-5.971q1.5278-1.8509-0.32307-3.3787l-4.5154-3.7272q-1.8509-1.5278-3.3787 0.32307l-4.9288 5.971q-1.5278 1.8509 0.32306 3.3787z" clip-path="url(#a)" fill="#fff" stroke="#fff"/>
<g clip-path="url(#a)">
<g transform="translate(329.6 133.85) rotate(39.538) scale(.08 -.08)">
<use xlink:href="#o"/>
</g>
</g>
<path d="m366.08 138.13 5.1464 2.7921q2.1095 1.1445 3.254-0.96501l3.6922-6.8054q1.1445-2.1095-0.96501-3.254l-5.1464-2.7921q-2.1095-1.1445-3.254 0.96501l-3.6922 6.8054q-1.1445 2.1095 0.96501 3.254z" clip-path="url(#a)" fill="#fff" stroke="#fff"/>
<g clip-path="url(#a)">
<g transform="translate(368.02 134.56) rotate(28.482) scale(.08 -.08)">
<use xlink:href="#o"/>
</g>
</g>
<path d="m62.916 166.12 3.3325 4.3408q1.4615 1.9037 3.3652 0.4422l6.1414-4.7148q1.9037-1.4615 0.4422-3.3652l-3.3325-4.3408q-1.4615-1.9037-3.3652-0.4422l-6.1414 4.7148q-1.9037 1.4615-0.4422 3.3652z" clip-path="url(#a)" fill="#fff" stroke="#fff"/>
<g clip-path="url(#a)">
<g transform="translate(66.139 163.65) rotate(52.486) scale(.08 -.08)">
<use xlink:href="#p"/>
</g>
</g>
<path d="m62.706 165.85 3.7512 4.8861q1.4615 1.9037 3.3652 0.4422l6.1414-4.7148q1.9037-1.4615 0.4422-3.3652l-3.7512-4.8861q-1.4615-1.9037-3.3652-0.4422l-6.1414 4.7148q-1.9037 1.4615-0.4422 3.3652z" clip-path="url(#a)" fill="#fff" stroke="#fff"/>
<g clip-path="url(#a)">
<g transform="translate(65.93 163.37) rotate(52.486) scale(.08 -.08)">
<defs>
<path id="u" d="m19.672 64.797v-56.688h11.922q15.094 0 22.094 6.8281 7 6.8438 7 21.594 0 14.641-7 21.453t-22.094 6.8125zm-9.8594 8.1094h20.266q21.188 0 31.094-8.8125 9.9219-8.8125 9.9219-27.562 0-18.859-9.9688-27.703-9.9531-8.8281-31.047-8.8281h-20.266z"/>
</defs>
<use xlink:href="#u"/>
</g>
</g>
<path d="m63.113 166.38 2.9374 3.8262q1.4615 1.9037 3.3652 0.4422l6.1414-4.7148q1.9037-1.4615 0.4422-3.3652l-2.9374-3.8262q-1.4615-1.9037-3.3652-0.4422l-6.1414 4.7148q-1.9037 1.4615-0.4422 3.3652z" clip-path="url(#a)" fill="#fff" stroke="#fff"/>
<g clip-path="url(#a)">
<g transform="translate(66.336 163.9) rotate(52.486) scale(.08 -.08)">
<use xlink:href="#n"/>
</g>
</g>
<path d="m39.413 169.6 2.2075-5.7509q0.86007-2.2406-1.3805-3.1007l-7.2283-2.7746q-2.2406-0.86007-3.1007 1.3805l-2.2075 5.7509q-0.86007 2.2406 1.3805 3.1007l7.2283 2.7746q2.2406 0.86007 3.1007-1.3805z" clip-path="url(#a)" fill="#fff" stroke="#fff"/>
<g clip-path="url(#a)">
<g transform="translate(35.619 168.14) rotate(-69) scale(.08 -.08)">
<use xlink:href="#u"/>
</g>
</g>
<path d="m52.105 164.06 2.4112 5.7106q0.93357 2.211 3.1446 1.2774l7.1327-3.0117q2.211-0.93357 1.2774-3.1446l-2.4112-5.7106q-0.93357-2.211-3.1446-1.2774l-7.1327 3.0117q-2.211 0.93357-1.2774 3.1446z" clip-path="url(#a)" fill="#fff" stroke="#fff"/>
<g clip-path="url(#a)">
<g transform="translate(55.849 162.48) rotate(67.108) scale(.08 -.08)">
<defs>
<path id="ac" d="m59.516 10.406v19.578h-16.109v8.1094h25.875v-31.312q-5.7031-4.0469-12.594-6.125-6.875-2.0781-14.688-2.0781-17.094 0-26.75 9.9844-9.6406 10-9.6406 27.812 0 17.875 9.6406 27.859 9.6562 9.9844 26.75 9.9844 7.125 0 13.547-1.7656 6.4219-1.75 11.844-5.1719v-10.5q-5.4688 4.6406-11.625 6.9844t-12.938 2.3438q-13.391 0-20.109-7.4688-6.7031-7.4688-6.7031-22.266 0-14.75 6.7031-22.219 6.7188-7.4688 20.109-7.4688 5.2188 0 9.3125 0.90625 4.1094 0.90625 7.375 2.8125z"/>
</defs>
<use xlink:href="#ac"/>
</g>
</g>
<path d="m51.284 167.64 0.22458-5.8507q0.092058-2.3982-2.3062-2.4903l-7.7368-0.29698q-2.3982-0.092057-2.4903 2.3062l-0.22458 5.8507q-0.092058 2.3982 2.3062 2.4903l7.7368 0.29698q2.3982 0.092057 2.4903-2.3062z" clip-path="url(#a)" fill="#fff" stroke="#fff"/>
<g clip-path="url(#a)">
<g transform="translate(47.224 167.48) rotate(-87.802) scale(.08 -.08)">
<use xlink:href="#o"/>
</g>
</g>
<path d="m237.13 169.19 1.9251-4.1792q1.0041-2.1799-1.1758-3.184l-7.0323-3.2393q-2.1799-1.0041-3.184 1.1758l-1.9251 4.1792q-1.0041 2.1799 1.1758 3.184l7.0323 3.2393q2.1799 1.0041 3.184-1.1758z" clip-path="url(#a)" fill="#fff" stroke="#fff"/>
<g clip-path="url(#a)">
<g transform="translate(233.44 167.49) rotate(-65.268) scale(.08 -.08)">
<defs>
<path id="ad" d="m9.8125 72.906h41.891v-8.3125h-32.031v-21.484h28.906v-8.2969h-28.906v-34.812h-9.8594z"/>
</defs>
<use xlink:href="#ad"/>
</g>
</g>
<path d="m251.78 161.25 5.4352 11.8q1.0041 2.1799 3.184 1.1758l7.2662-3.347q2.1799-1.0041 1.1758-3.184l-5.4352-11.8q-1.0041-2.1799-3.184-1.1758l-7.2662 3.347q-2.1799 1.0041-1.1758 3.184z" clip-path="url(#a)" fill="#fff" stroke="#fff"/>
<g clip-path="url(#a)">
<g transform="translate(255.67 159.46) rotate(65.268) scale(.08 -.08)">
<defs>
<path id="ag" d="m21 76.422v-100h-8.2969v100z"/>
</defs>
<use xlink:href="#p"/>
<use x="68.408203" xlink:href="#ag"/>
<use x="102.099609" xlink:href="#n"/>
</g>
</g>
<path d="m330.81 207.76v33.808q0 2.4 2.4 2.4h7.7425q2.4 0 2.4-2.4v-33.808q0-2.4-2.4-2.4h-7.7425q-2.4 0-2.4 2.4z" clip-path="url(#a)" fill="#fff" stroke="#fff"/>
<g clip-path="url(#a)">
<g transform="translate(334.87 207.76) rotate(90) scale(.08 -.08)">
<defs>
<path id="f" d="m-0.29688 72.906h61.672v-8.3125h-25.875v-64.594h-9.9062v64.594h-25.891z"/>
<path id="d" d="m56.203 29.594v-4.3906h-41.312q0.59375-9.2812 5.5938-14.141t13.938-4.8594q5.1719 0 10.031 1.2656t9.6562 3.8125v-8.5q-4.8438-2.0469-9.9219-3.125t-10.297-1.0781q-13.094 0-20.734 7.6094-7.6406 7.625-7.6406 20.625 0 13.422 7.25 21.297 7.25 7.8906 19.562 7.8906 11.031 0 17.453-7.1094 6.4219-7.0938 6.4219-19.297zm-8.9844 2.6406q-0.09375 7.3594-4.125 11.75-4.0312 4.4062-10.672 4.4062-7.5156 0-12.031-4.25t-5.2031-11.969z"/>
<path id="g" d="m41.109 46.297q-1.5156 0.875-3.2969 1.2812-1.7812 0.42188-3.9219 0.42188-7.625 0-11.703-4.9531t-4.0781-14.234v-28.812h-9.0312v54.688h9.0312v-8.5q2.8438 4.9844 7.375 7.3906 4.5469 2.4219 11.047 2.4219 0.92188 0 2.0469-0.125 1.125-0.10938 2.4844-0.35938z"/>
<path id="l" d="m52 44.188q3.375 6.0625 8.0625 8.9375t11.031 2.875q8.5469 0 13.188-5.9844 4.6406-5.9688 4.6406-17v-33.016h-9.0312v32.719q0 7.8594-2.7969 11.656-2.7812 3.8125-8.4844 3.8125-6.9844 0-11.047-4.6406-4.0469-4.625-4.0469-12.641v-30.906h-9.0312v32.719q0 7.9062-2.7812 11.688t-8.5938 3.7812q-6.8906 0-10.953-4.6562-4.0469-4.6562-4.0469-12.625v-30.906h-9.0312v54.688h9.0312v-8.5q3.0781 5.0312 7.375 7.4219t10.203 2.3906q5.9688 0 10.141-3.0312 4.1719-3.0156 6.1719-8.7812z"/>
<path id="h" d="m9.4219 54.688h8.9844v-54.688h-8.9844zm0 21.297h8.9844v-11.391h-8.9844z"/>
<path id="i" d="m54.891 33.016v-33.016h-8.9844v32.719q0 7.7656-3.0312 11.609-3.0312 3.8594-9.0781 3.8594-7.2812 0-11.484-4.6406-4.2031-4.625-4.2031-12.641v-30.906h-9.0312v54.688h9.0312v-8.5q3.2344 4.9375 7.5938 7.375 4.375 2.4375 10.094 2.4375 9.4219 0 14.25-5.8281 4.8438-5.8281 4.8438-17.156z"/>
<path id="k" d="m34.281 27.484q-10.891 0-15.094-2.4844t-4.2031-8.5q0-4.7812 3.1562-7.5938 3.1562-2.7969 8.5625-2.7969 7.4844 0 12 5.2969t4.5156 14.078v2zm17.922 3.7188v-31.203h-8.9844v8.2969q-3.0781-4.9688-7.6719-7.3438t-11.234-2.375q-8.3906 0-13.359 4.7188-4.9531 4.7188-4.9531 12.625 0 9.2188 6.1719 13.906 6.1875 4.6875 18.438 4.6875h12.609v0.89062q0 6.2031-4.0781 9.5938t-11.453 3.3906q-4.6875 0-9.1406-1.125-4.4375-1.125-8.5312-3.375v8.3125q4.9219 1.9062 9.5625 2.8438 4.6406 0.95312 9.0312 0.95312 11.875 0 17.734-6.1562 5.8594-6.1406 5.8594-18.641z"/>
<path id="j" d="m9.4219 75.984h8.9844v-75.984h-8.9844z"/>
</defs>
<use xlink:href="#f"/>
<use x="44.083984" xlink:href="#d"/>
<use x="105.607422" xlink:href="#g"/>
<use x="144.970703" xlink:href="#l"/>
<use x="242.382812" xlink:href="#h"/>
<use x="270.166016" xlink:href="#i"/>
<use x="333.544922" xlink:href="#k"/>
<use x="394.824219" xlink:href="#j"/>
</g>
</g>
<path d="m212.17 207.76v33.808q0 2.4 2.4 2.4h7.7425q2.4 0 2.4-2.4v-33.808q0-2.4-2.4-2.4h-7.7425q-2.4 0-2.4 2.4z" clip-path="url(#a)" fill="#fff" stroke="#fff"/>
<g clip-path="url(#a)">
<g transform="translate(216.23 207.76) rotate(90) scale(.08 -.08)">
<use xlink:href="#f"/>
<use x="44.083984" xlink:href="#d"/>
<use x="105.607422" xlink:href="#g"/>
<use x="144.970703" xlink:href="#l"/>
<use x="242.382812" xlink:href="#h"/>
<use x="270.166016" xlink:href="#i"/>
<use x="333.544922" xlink:href="#k"/>
<use x="394.824219" xlink:href="#j"/>
</g>
</g>
<path d="m268 207.76v33.808q0 2.4 2.4 2.4h7.7425q2.4 0 2.4-2.4v-33.808q0-2.4-2.4-2.4h-7.7425q-2.4 0-2.4 2.4z" clip-path="url(#a)" fill="#fff" stroke="#fff"/>
<g clip-path="url(#a)">
<g transform="translate(272.06 207.76) rotate(90) scale(.08 -.08)">
<use xlink:href="#f"/>
<use x="44.083984" xlink:href="#d"/>
<use x="105.607422" xlink:href="#g"/>
<use x="144.970703" xlink:href="#l"/>
<use x="242.382812" xlink:href="#h"/>
<use x="270.166016" xlink:href="#i"/>
<use x="333.544922" xlink:href="#k"/>
<use x="394.824219" xlink:href="#j"/>
</g>
</g>
<path d="m16.759 207.76v33.808q0 2.4 2.4 2.4h7.7425q2.4 0 2.4-2.4v-33.808q0-2.4-2.4-2.4h-7.7425q-2.4 0-2.4 2.4z" clip-path="url(#a)" fill="#fff" stroke="#fff"/>
<g clip-path="url(#a)">
<g transform="translate(20.823 207.76) rotate(90) scale(.08 -.08)">
<use xlink:href="#f"/>
<use x="44.083984" xlink:href="#d"/>
<use x="105.607422" xlink:href="#g"/>
<use x="144.970703" xlink:href="#l"/>
<use x="242.382812" xlink:href="#h"/>
<use x="270.166016" xlink:href="#i"/>
<use x="333.544922" xlink:href="#k"/>
<use x="394.824219" xlink:href="#j"/>
</g>
</g>
<path d="m65.611 207.76v33.808q0 2.4 2.4 2.4h7.7425q2.4 0 2.4-2.4v-33.808q0-2.4-2.4-2.4h-7.7425q-2.4 0-2.4 2.4z" clip-path="url(#a)" fill="#fff" stroke="#fff"/>
<g clip-path="url(#a)">
<g transform="translate(69.675 207.76) rotate(90) scale(.08 -.08)">
<use xlink:href="#f"/>
<use x="44.083984" xlink:href="#d"/>
<use x="105.607422" xlink:href="#g"/>
<use x="144.970703" xlink:href="#l"/>
<use x="242.382812" xlink:href="#h"/>
<use x="270.166016" xlink:href="#i"/>
<use x="333.544922" xlink:href="#k"/>
<use x="394.824219" xlink:href="#j"/>
</g>
</g>
<path d="m37.696 207.76v33.808q0 2.4 2.4 2.4h7.7425q2.4 0 2.4-2.4v-33.808q0-2.4-2.4-2.4h-7.7425q-2.4 0-2.4 2.4z" clip-path="url(#a)" fill="#fff" stroke="#fff"/>
<g clip-path="url(#a)">
<g transform="translate(41.759 207.76) rotate(90) scale(.08 -.08)">
<use xlink:href="#f"/>
<use x="44.083984" xlink:href="#d"/>
<use x="105.607422" xlink:href="#g"/>
<use x="144.970703" xlink:href="#l"/>
<use x="242.382812" xlink:href="#h"/>
<use x="270.166016" xlink:href="#i"/>
<use x="333.544922" xlink:href="#k"/>
<use x="394.824219" xlink:href="#j"/>
</g>
</g>
<path d="m121.44 207.76v33.808q0 2.4 2.4 2.4h7.7425q2.4 0 2.4-2.4v-33.808q0-2.4-2.4-2.4h-7.7425q-2.4 0-2.4 2.4z" clip-path="url(#a)" fill="#fff" stroke="#fff"/>
<g clip-path="url(#a)">
<g transform="translate(125.51 207.76) rotate(90) scale(.08 -.08)">
<use xlink:href="#f"/>
<use x="44.083984" xlink:href="#d"/>
<use x="105.607422" xlink:href="#g"/>
<use x="144.970703" xlink:href="#l"/>
<use x="242.382812" xlink:href="#h"/>
<use x="270.166016" xlink:href="#i"/>
<use x="333.544922" xlink:href="#k"/>
<use x="394.824219" xlink:href="#j"/>
</g>
</g>
<path d="m163.32 207.76v33.808q0 2.4 2.4 2.4h7.7425q2.4 0 2.4-2.4v-33.808q0-2.4-2.4-2.4h-7.7425q-2.4 0-2.4 2.4z" clip-path="url(#a)" fill="#fff" stroke="#fff"/>
<g clip-path="url(#a)">
<g transform="translate(167.38 207.76) rotate(90) scale(.08 -.08)">
<use xlink:href="#f"/>
<use x="44.083984" xlink:href="#d"/>
<use x="105.607422" xlink:href="#g"/>
<use x="144.970703" xlink:href="#l"/>
<use x="242.382812" xlink:href="#h"/>
<use x="270.166016" xlink:href="#i"/>
<use x="333.544922" xlink:href="#k"/>
<use x="394.824219" xlink:href="#j"/>
</g>
</g>
<path d="m400.6 207.76v33.808q0 2.4 2.4 2.4h7.7425q2.4 0 2.4-2.4v-33.808q0-2.4-2.4-2.4h-7.7425q-2.4 0-2.4 2.4z" clip-path="url(#a)" fill="#fff" stroke="#fff"/>
<g clip-path="url(#a)">
<g transform="translate(404.66 207.76) rotate(90) scale(.08 -.08)">
<use xlink:href="#f"/>
<use x="44.083984" xlink:href="#d"/>
<use x="105.607422" xlink:href="#g"/>
<use x="144.970703" xlink:href="#l"/>
<use x="242.382812" xlink:href="#h"/>
<use x="270.166016" xlink:href="#i"/>
<use x="333.544922" xlink:href="#k"/>
<use x="394.824219" xlink:href="#j"/>
</g>
</g>
<path d="m477.37 207.76v33.808q0 2.4 2.4 2.4h7.7425q2.4 0 2.4-2.4v-33.808q0-2.4-2.4-2.4h-7.7425q-2.4 0-2.4 2.4z" clip-path="url(#a)" fill="#fff" stroke="#fff"/>
<g clip-path="url(#a)">
<g transform="translate(481.43 207.76) rotate(90) scale(.08 -.08)">
<use xlink:href="#f"/>
<use x="44.083984" xlink:href="#d"/>
<use x="105.607422" xlink:href="#g"/>
<use x="144.970703" xlink:href="#l"/>
<use x="242.382812" xlink:href="#h"/>
<use x="270.166016" xlink:href="#i"/>
<use x="333.544922" xlink:href="#k"/>
<use x="394.824219" xlink:href="#j"/>
</g>
</g>
<defs>
<path id="b" d="m0 8.6603c2.2967 0 4.4997-0.9125 6.1237-2.5365 1.624-1.624 2.5365-3.827 2.5365-6.1237s-0.9125-4.4997-2.5365-6.1237c-1.624-1.624-3.827-2.5365-6.1237-2.5365s-4.4997 0.9125-6.1237 2.5365c-1.624 1.624-2.5365 3.827-2.5365 6.1237s0.9125 4.4997 2.5365 6.1237c1.624 1.624 3.827 2.5365 6.1237 2.5365z"/>
</defs>
<g clip-path="url(#a)" fill="#ffffff" stroke="#ffffff">
<use x="23.030303" y="254.545455" xlink:href="#b"/>
<use x="43.966942" y="254.545455" xlink:href="#b"/>
<use x="71.882461" y="254.545455" xlink:href="#b"/>
<use x="127.713499" y="254.545455" xlink:href="#b"/>
<use x="169.586777" y="254.545455" xlink:href="#b"/>
<use x="218.438935" y="254.545455" xlink:href="#b"/>
<use x="274.269972" y="254.545455" xlink:href="#b"/>
<use x="337.07989" y="254.545455" xlink:href="#b"/>
<use x="406.868687" y="254.545455" xlink:href="#b"/>
<use x="483.636364" y="254.545455" xlink:href="#b"/>
<use x="92.8191" y="194.773775" xlink:href="#b"/>
<use x="92.8191" y="194.773775" xlink:href="#b"/>
<use x="92.8191" y="194.773775" xlink:href="#b"/>
<use x="259.647558" y="12.121212" xlink:href="#b"/>
<use x="259.647558" y="73.249579" xlink:href="#b"/>
<use x="46.293235" y="134.170607" xlink:href="#b"/>
<use x="246.354454" y="134.170607" xlink:href="#b"/>
<use x="337.07989" y="194.773775" xlink:href="#b"/>
<use x="218.438935" y="194.773775" xlink:href="#b"/>
<use x="274.269972" y="194.773775" xlink:href="#b"/>
<use x="23.030303" y="194.773775" xlink:href="#b"/>
<use x="71.882461" y="194.773775" xlink:href="#b"/>
<use x="43.966942" y="194.773775" xlink:href="#b"/>
<use x="127.713499" y="194.773775" xlink:href="#b"/>
<use x="169.586777" y="194.773775" xlink:href="#b"/>
<use x="406.868687" y="194.773775" xlink:href="#b"/>
<use x="483.636364" y="194.773775" xlink:href="#b"/>
</g>
<g clip-path="url(#a)">
<g transform="translate(13.912 257.3) scale(.1 -.1)">
<defs>
<path id="ah" d="m32.172-5.0781q-3.7969-9.7656-7.4219-12.734-3.6094-2.9844-9.6562-2.9844h-7.1875v7.5156h5.2812q3.7031 0 5.75 1.7656 2.0625 1.75 4.5469 8.2969l1.6094 4.0938-22.109 53.812h9.5156l17.094-42.766 17.094 42.766h9.5156z"/>
</defs>
<use xlink:href="#p"/>
<use x="61.658203" xlink:href="#ah"/>
<use x="120.837891" xlink:href="#d"/>
</g>
</g>
<g clip-path="url(#a)">
<g transform="translate(42.378 257.3) scale(.1 -.1)">
<defs>
<path id="z" d="m11.719 12.406h10.297v-8.4062l-8-15.625h-6.2969l4 15.625z"/>
</defs>
<use xlink:href="#z"/>
</g>
</g>
<g clip-path="url(#a)">
<g transform="translate(65.833 257.3) scale(.1 -.1)">
<defs>
<path id="aj" d="m44.281 53.078v-8.5q-3.7969 1.9531-7.9062 2.9219-4.0938 0.98438-8.5 0.98438-6.6875 0-10.031-2.0469t-3.3438-6.1562q0-3.125 2.3906-4.9062t9.625-3.3906l3.0781-0.6875q9.5625-2.0469 13.594-5.7812t4.0312-10.422q0-7.625-6.0312-12.078-6.0312-4.4375-16.578-4.4375-4.3906 0-9.1562 0.85938t-10.031 2.5625v9.2812q4.9844-2.5938 9.8125-3.8906 4.8281-1.2812 9.5781-1.2812 6.3438 0 9.75 2.1719 3.4219 2.1719 3.4219 6.125 0 3.6562-2.4688 5.6094-2.4531 1.9531-10.812 3.7656l-3.125 0.73438q-8.3438 1.75-12.062 5.3906-3.7031 3.6406-3.7031 9.9844 0 7.7188 5.4688 11.906 5.4688 4.2031 15.531 4.2031 4.9688 0 9.3594-0.73438 4.4062-0.71875 8.1094-2.1875z"/>
</defs>
<use xlink:href="#aj"/>
<use x="52.099609" xlink:href="#h"/>
<use x="79.882812" xlink:href="#g"/>
</g>
</g>
<g clip-path="url(#a)">
<g transform="translate(126.12 257.3) scale(.1 -.1)">
<use xlink:href="#z"/>
</g>
</g>
<g clip-path="url(#a)">
<g transform="translate(167.29 257.3) scale(.1 -.1)">
<defs>
<path id="aa" d="m17.922 72.906v-27.109h-8.2969v27.109zm18.453 0v-27.109h-8.2969v27.109z"/>
</defs>
<use xlink:href="#aa"/>
</g>
</g>
<g clip-path="url(#a)">
<g transform="translate(210.23 257.3) scale(.1 -.1)">
<defs>
<path id="ai" d="m18.312 70.219v-15.531h18.5v-6.9844h-18.5v-29.688q0-6.6875 1.8281-8.5938t7.4531-1.9062h9.2188v-7.5156h-9.2188q-10.406 0-14.359 3.875-3.9531 3.8906-3.9531 14.141v29.688h-6.5938v6.9844h6.5938v15.531z"/>
<path id="al" d="m54.891 33.016v-33.016h-8.9844v32.719q0 7.7656-3.0312 11.609-3.0312 3.8594-9.0781 3.8594-7.2812 0-11.484-4.6406-4.2031-4.625-4.2031-12.641v-30.906h-9.0312v75.984h9.0312v-29.797q3.2344 4.9375 7.5938 7.375 4.375 2.4375 10.094 2.4375 9.4219 0 14.25-5.8281 4.8438-5.8281 4.8438-17.156z"/>
</defs>
<use xlink:href="#ai"/>
<use x="39.208984" xlink:href="#al"/>
<use x="102.587891" xlink:href="#d"/>
</g>
</g>
<g clip-path="url(#a)">
<g transform="translate(252.08 257.3) scale(.1 -.1)">
<defs>
<path id="am" d="m45.406 27.984q0 9.7656-4.0312 15.125-4.0156 5.375-11.297 5.375-7.2188 0-11.25-5.375-4.0312-5.3594-4.0312-15.125 0-9.7188 4.0312-15.094t11.25-5.375q7.2812 0 11.297 5.375 4.0312 5.375 4.0312 15.094zm8.9844-21.203q0-13.953-6.2031-20.766-6.1875-6.8125-18.984-6.8125-4.7344 0-8.9375 0.70312t-8.1562 2.1719v8.7344q3.9531-2.1406 7.8125-3.1562 3.8594-1.0312 7.8594-1.0312 8.8438 0 13.234 4.6094t4.3906 13.938v4.4531q-2.7812-4.8438-7.125-7.2344t-10.406-2.3906q-10.047 0-16.203 7.6562-6.1562 7.6719-6.1562 20.328 0 12.688 6.1562 20.344 6.1562 7.6719 16.203 7.6719 6.0625 0 10.406-2.3906t7.125-7.2188v8.2969h8.9844z"/>
</defs>
<use xlink:href="#d"/>
<use x="61.523438" xlink:href="#i"/>
<use x="124.902344" xlink:href="#am"/>
<use x="188.378906" xlink:href="#h"/>
<use x="216.162109" xlink:href="#i"/>
<use x="279.541016" xlink:href="#d"/>
<use x="341.064453" xlink:href="#d"/>
<use x="402.587891" xlink:href="#g"/>
</g>
</g>
<g clip-path="url(#a)">
<g transform="translate(319.86 257.3) scale(.1 -.1)">
<defs>
<path id="ak" d="m18.109 8.2031v-29h-9.0312v75.484h9.0312v-8.2969q2.8438 4.875 7.1562 7.2344 4.3281 2.375 10.328 2.375 9.9688 0 16.188-7.9062 6.2344-7.9062 6.2344-20.797t-6.2344-20.812q-6.2188-7.9062-16.188-7.9062-6 0-10.328 2.375-4.3125 2.375-7.1562 7.25zm30.578 19.094q0 9.9062-4.0781 15.547t-11.203 5.6406q-7.1406 0-11.219-5.6406t-4.0781-15.547 4.0781-15.547 11.219-5.6406q7.125 0 11.203 5.6406t4.0781 15.547z"/>
<path id="an" d="m45.406 46.391v29.594h8.9844v-75.984h-8.9844v8.2031q-2.8281-4.875-7.1562-7.25-4.3125-2.375-10.375-2.375-9.9062 0-16.141 7.9062-6.2188 7.9219-6.2188 20.812t6.2188 20.797q6.2344 7.9062 16.141 7.9062 6.0625 0 10.375-2.375 4.3281-2.3594 7.1562-7.2344zm-30.609-19.094q0-9.9062 4.0781-15.547t11.203-5.6406 11.219 5.6406q4.1094 5.6406 4.1094 15.547t-4.1094 15.547q-4.0938 5.6406-11.219 5.6406t-11.203-5.6406-4.0781-15.547z"/>
</defs>
<use xlink:href="#g"/>
<use x="38.863281" xlink:href="#d"/>
<use x="100.386719" xlink:href="#ak"/>
<use x="163.863281" xlink:href="#j"/>
<use x="191.646484" xlink:href="#h"/>
<use x="219.429688" xlink:href="#d"/>
<use x="280.953125" xlink:href="#an"/>
</g>
</g>
<g clip-path="url(#a)">
<g transform="translate(405.28 257.3) scale(.1 -.1)">
<defs>
<path id="e" d="m10.688 12.406h10.312v-12.406h-10.312z"/>
</defs>
<use xlink:href="#e"/>
</g>
</g>
<g clip-path="url(#a)">
<g transform="translate(481.34 257.3) scale(.1 -.1)">
<use xlink:href="#aa"/>
</g>
</g>
<g clip-path="url(#a)">
<g transform="translate(71.734 197.53) scale(.1 -.1)">
<defs>
<path id="m" d="m9.8125 72.906h9.8594v-72.906h-9.8594z"/>
<path id="q" d="m9.8125 72.906h14.703l18.594-49.609 18.703 49.609h14.703v-72.906h-9.625v64.016l-18.797-50h-9.9062l-18.797 50v-64.016h-9.5781z"/>
<path id="r" d="m9.8125 72.906h9.8594v-64.609h35.5v-8.2969h-45.359z"/>
<path id="s" d="m64.406 67.281v-10.391q-4.9844 4.6406-10.625 6.9219-5.6406 2.2969-11.984 2.2969-12.5 0-19.141-7.6406t-6.6406-22.094q0-14.406 6.6406-22.047t19.141-7.6406q6.3438 0 11.984 2.2969t10.625 6.9375v-10.312q-5.1719-3.5156-10.969-5.2812-5.7812-1.75-12.219-1.75-16.562 0-26.094 10.125-9.5156 10.141-9.5156 27.672 0 17.578 9.5156 27.703 9.5312 10.141 26.094 10.141 6.5312 0 12.312-1.7344 5.7969-1.7344 10.875-5.2031z"/>
</defs>
<use xlink:href="#m"/>
<use x="29.492188" xlink:href="#q"/>
<use x="115.771484" xlink:href="#n"/>
<use x="176.074219" xlink:href="#r"/>
<use x="231.787109" xlink:href="#m"/>
<use x="261.279297" xlink:href="#s"/>
<use x="331.103516" xlink:href="#m"/>
<use x="360.595703" xlink:href="#f"/>
</g>
</g>
<g clip-path="url(#a)">
<g transform="translate(71.734 197.53) scale(.1 -.1)">
<use xlink:href="#m"/>
<use x="29.492188" xlink:href="#q"/>
<use x="115.771484" xlink:href="#n"/>
<use x="176.074219" xlink:href="#r"/>
<use x="231.787109" xlink:href="#m"/>
<use x="261.279297" xlink:href="#s"/>
<use x="331.103516" xlink:href="#m"/>
<use x="360.595703" xlink:href="#f"/>
</g>
</g>
<g clip-path="url(#a)">
<g transform="translate(71.734 197.53) scale(.1 -.1)">
<use xlink:href="#m"/>
<use x="29.492188" xlink:href="#q"/>
<use x="115.771484" xlink:href="#n"/>
<use x="176.074219" xlink:href="#r"/>
<use x="231.787109" xlink:href="#m"/>
<use x="261.279297" xlink:href="#s"/>
<use x="331.103516" xlink:href="#m"/>
<use x="360.595703" xlink:href="#f"/>
</g>
</g>
<g clip-path="url(#a)">
<g transform="translate(251.7 14.881) scale(.1 -.1)">
<defs>
<path id="c" d="m12.406 8.2969h16.109v55.625l-17.531-3.5156v8.9844l17.438 3.5156h9.8594v-64.609h16.109v-8.2969h-41.984z"/>
</defs>
<use xlink:href="#c"/>
<use x="63.623047" xlink:href="#e"/>
<use x="95.410156" xlink:href="#c"/>
</g>
</g>
<g clip-path="url(#a)">
<g transform="translate(251.7 76.009) scale(.1 -.1)">
<defs>
<path id="t" d="m19.188 8.2969h34.422v-8.2969h-46.281v8.2969q5.6094 5.8125 15.297 15.594 9.7031 9.7969 12.188 12.641 4.7344 5.3125 6.6094 9 1.8906 3.6875 1.8906 7.25 0 5.8125-4.0781 9.4688-4.0781 3.6719-10.625 3.6719-4.6406 0-9.7969-1.6094-5.1406-1.6094-11-4.8906v9.9688q5.9531 2.3906 11.125 3.6094 5.1875 1.2188 9.4844 1.2188 11.328 0 18.062-5.6719 6.7344-5.6562 6.7344-15.125 0-4.5-1.6875-8.5312-1.6719-4.0156-6.125-9.4844-1.2188-1.4219-7.7656-8.1875-6.5312-6.7656-18.453-18.922z"/>
</defs>
<use xlink:href="#c"/>
<use x="63.623047" xlink:href="#e"/>
<use x="95.410156" xlink:href="#t"/>
</g>
</g>
<g clip-path="url(#a)">
<g transform="translate(38.342 136.93) scale(.1 -.1)">
<defs>
<path id="x" d="m10.797 72.906h38.719v-8.3125h-29.688v-17.859q2.1406 0.73438 4.2812 1.0938 2.1562 0.35938 4.3125 0.35938 12.203 0 19.328-6.6875 7.1406-6.6875 7.1406-18.109 0-11.766-7.3281-18.297-7.3281-6.5156-20.656-6.5156-4.5938 0-9.3594 0.78125-4.75 0.78125-9.8281 2.3438v9.9219q4.3906-2.3906 9.0781-3.5625t9.9062-1.1719q8.4531 0 13.375 4.4375 4.9375 4.4375 4.9375 12.062 0 7.6094-4.9375 12.047-4.9219 4.4531-13.375 4.4531-3.9531 0-7.8906-0.875-3.9219-0.875-8.0156-2.7344z"/>
</defs>
<use xlink:href="#c"/>
<use x="63.623047" xlink:href="#e"/>
<use x="95.410156" xlink:href="#x"/>
</g>
</g>
<g clip-path="url(#a)">
<g transform="translate(238.4 136.93) scale(.1 -.1)">
<defs>
<path id="w" d="m33.016 40.375q-6.6406 0-10.531-4.5469-3.875-4.5312-3.875-12.438 0-7.8594 3.875-12.438 3.8906-4.5625 10.531-4.5625t10.516 4.5625q3.875 4.5781 3.875 12.438 0 7.9062-3.875 12.438-3.875 4.5469-10.516 4.5469zm19.578 30.922v-8.9844q-3.7188 1.75-7.5 2.6719-3.7812 0.9375-7.5 0.9375-9.7656 0-14.922-6.5938-5.1406-6.5938-5.875-19.922 2.875 4.25 7.2188 6.5156 4.3594 2.2656 9.5781 2.2656 10.984 0 17.359-6.6719 6.375-6.6562 6.375-18.125 0-11.234-6.6406-18.031-6.6406-6.7812-17.672-6.7812-12.656 0-19.344 9.6875-6.6875 9.7031-6.6875 28.109 0 17.281 8.2031 27.562t22.016 10.281q3.7188 0 7.5-0.73438t7.8906-2.1875z"/>
</defs>
<use xlink:href="#c"/>
<use x="63.623047" xlink:href="#e"/>
<use x="95.410156" xlink:href="#w"/>
</g>
</g>
<g clip-path="url(#a)">
<g transform="translate(329.13 197.53) scale(.1 -.1)">
<defs>
<path id="v" d="m8.2031 72.906h46.875v-4.2031l-26.469-68.703h-10.297l24.906 64.594h-35.016z"/>
</defs>
<use xlink:href="#c"/>
<use x="63.623047" xlink:href="#e"/>
<use x="95.410156" xlink:href="#v"/>
</g>
</g>
<g clip-path="url(#a)">
<g transform="translate(207.31 197.53) scale(.1 -.1)">
<defs>
<path id="y" d="m31.781 66.406q-7.6094 0-11.453-7.5-3.8281-7.4844-3.8281-22.531 0-14.984 3.8281-22.484 3.8438-7.5 11.453-7.5 7.6719 0 11.5 7.5 3.8438 7.5 3.8438 22.484 0 15.047-3.8438 22.531-3.8281 7.5-11.5 7.5zm0 7.8125q12.266 0 18.734-9.7031 6.4688-9.6875 6.4688-28.141 0-18.406-6.4688-28.109-6.4688-9.6875-18.734-9.6875-12.25 0-18.719 9.6875-6.4688 9.7031-6.4688 28.109 0 18.453 6.4688 28.141 6.4688 9.7031 18.719 9.7031z"/>
</defs>
<use xlink:href="#c"/>
<use x="63.623047" xlink:href="#e"/>
<use x="95.410156" xlink:href="#c"/>
<use x="159.033203" xlink:href="#y"/>
</g>
</g>
<g clip-path="url(#a)">
<g transform="translate(263.14 197.53) scale(.1 -.1)">
<use xlink:href="#c"/>
<use x="63.623047" xlink:href="#e"/>
<use x="95.410156" xlink:href="#c"/>
<use x="159.033203" xlink:href="#c"/>
</g>
</g>
<g clip-path="url(#a)">
<g transform="translate(11.897 197.53) scale(.1 -.1)">
<use xlink:href="#c"/>
<use x="63.623047" xlink:href="#e"/>
<use x="95.410156" xlink:href="#c"/>
<use x="159.033203" xlink:href="#x"/>
</g>
</g>
<g clip-path="url(#a)">
<g transform="translate(60.75 197.53) scale(.1 -.1)">
<use xlink:href="#c"/>
<use x="63.623047" xlink:href="#e"/>
<use x="95.410156" xlink:href="#c"/>
<use x="159.033203" xlink:href="#w"/>
</g>
</g>
<g clip-path="url(#a)">
<g transform="translate(32.834 197.53) scale(.1 -.1)">
<use xlink:href="#c"/>
<use x="63.623047" xlink:href="#e"/>
<use x="95.410156" xlink:href="#c"/>
<use x="159.033203" xlink:href="#v"/>
</g>
</g>
<g clip-path="url(#a)">
<g transform="translate(116.58 197.53) scale(.1 -.1)">
<defs>
<path id="af" d="m31.781 34.625q-7.0312 0-11.062-3.7656-4.0156-3.7656-4.0156-10.344 0-6.5938 4.0156-10.359 4.0312-3.7656 11.062-3.7656t11.078 3.7812q4.0625 3.7969 4.0625 10.344 0 6.5781-4.0312 10.344-4.0156 3.7656-11.109 3.7656zm-9.8594 4.1875q-6.3438 1.5625-9.8906 5.9062-3.5312 4.3594-3.5312 10.609 0 8.7344 6.2188 13.812 6.2344 5.0781 17.062 5.0781 10.891 0 17.094-5.0781t6.2031-13.812q0-6.25-3.5469-10.609-3.5312-4.3438-9.8281-5.9062 7.125-1.6562 11.094-6.5 3.9844-4.8281 3.9844-11.797 0-10.609-6.4688-16.281-6.4688-5.6562-18.531-5.6562-12.047 0-18.531 5.6562-6.4688 5.6719-6.4688 16.281 0 6.9688 4 11.797 4.0156 4.8438 11.141 6.5zm-3.6094 15.578q0-5.6562 3.5312-8.8281 3.5469-3.1719 9.9375-3.1719 6.3594 0 9.9375 3.1719 3.5938 3.1719 3.5938 8.8281 0 5.6719-3.5938 8.8438-3.5781 3.1719-9.9375 3.1719-6.3906 0-9.9375-3.1719-3.5312-3.1719-3.5312-8.8438z"/>
</defs>
<use xlink:href="#c"/>
<use x="63.623047" xlink:href="#e"/>
<use x="95.410156" xlink:href="#c"/>
<use x="159.033203" xlink:href="#af"/>
</g>
</g>
<g clip-path="url(#a)">
<g transform="translate(158.45 197.53) scale(.1 -.1)">
<defs>
<path id="ae" d="m10.984 1.5156v8.9844q3.7188-1.7656 7.5156-2.6875 3.8125-0.92188 7.4844-0.92188 9.7656 0 14.906 6.5625 5.1562 6.5625 5.8906 19.953-2.8281-4.2031-7.1875-6.4531-4.3438-2.25-9.6094-2.25-10.938 0-17.312 6.6094-6.375 6.625-6.375 18.109 0 11.219 6.6406 18 6.6406 6.7969 17.672 6.7969 12.656 0 19.312-9.7031 6.6719-9.6875 6.6719-28.141 0-17.234-8.1875-27.516-8.1719-10.281-21.984-10.281-3.7188 0-7.5312 0.73438-3.7969 0.73438-7.9062 2.2031zm19.625 30.906q6.6406 0 10.516 4.5312 3.8906 4.5469 3.8906 12.469 0 7.8594-3.8906 12.422-3.875 4.5625-10.516 4.5625t-10.516-4.5625-3.875-12.422q0-7.9219 3.875-12.469 3.875-4.5312 10.516-4.5312z"/>
</defs>
<use xlink:href="#c"/>
<use x="63.623047" xlink:href="#e"/>
<use x="95.410156" xlink:href="#c"/>
<use x="159.033203" xlink:href="#ae"/>
</g>
</g>
<g clip-path="url(#a)">
<g transform="translate(395.74 197.53) scale(.1 -.1)">
<use xlink:href="#c"/>
<use x="63.623047" xlink:href="#e"/>
<use x="95.410156" xlink:href="#t"/>
<use x="159.033203" xlink:href="#y"/>
</g>
</g>
<g clip-path="url(#a)">
<g transform="translate(472.5 197.53) scale(.1 -.1)">
<use xlink:href="#c"/>
<use x="63.623047" xlink:href="#e"/>
<use x="95.410156" xlink:href="#t"/>
<use x="159.033203" xlink:href="#c"/>
</g>
</g>
<defs>
<clipPath id="a">
<rect width="506.67" height="266.67"/>
</clipPath>
</defs>
</svg>
