<?xml version="1.0" encoding="UTF-8"?>
<!DOCTYPE svg  PUBLIC '-//W3C//DTD SVG 1.1//EN'  'http://www.w3.org/Graphics/SVG/1.1/DTD/svg11.dtd'>
<svg width="1114.7pt" height="586.67pt" version="1.1" viewBox="0 0 1114.7 586.67" xmlns="http://www.w3.org/2000/svg" xmlns:xlink="http://www.w3.org/1999/xlink">
<metadata>
<rdf:RDF xmlns:cc="http://creativecommons.org/ns#" xmlns:dc="http://purl.org/dc/elements/1.1/" xmlns:rdf="http://www.w3.org/1999/02/22-rdf-syntax-ns#">
<cc:Work>
<dc:type rdf:resource="http://purl.org/dc/dcmitype/StillImage"/>
<dc:date>2021-04-07T07:23:03.715695</dc:date>
<dc:format>image/svg+xml</dc:format>
<dc:creator>
<cc:Agent>
<dc:title>Matplotlib v3.3.3, https://matplotlib.org/</dc:title>
</cc:Agent>
</dc:creator>
</cc:Work>
</rdf:RDF>
</metadata>
<defs>
<style type="text/css">*{stroke-linecap:butt;stroke-linejoin:round;}</style>
</defs>
<path d="m0 586.67h1114.7v-586.67h-1114.7z" fill="#fff"/>
<g fill="none" stroke="#000">
<path d="m623.27 26.667v89.698" clip-path="url(#a)"/>
<path d="m623.27 116.37-473.04 89.518" clip-path="url(#a)"/>
<path d="m623.27 116.37 50.984 356.32" clip-path="url(#a)"/>
<path d="m623.27 116.37 121.51 356.32" clip-path="url(#a)"/>
<path d="m623.27 116.37 316.38 267.8" clip-path="url(#a)"/>
<path d="m623.27 116.37-15.829 356.32" clip-path="url(#a)"/>
<path d="m150.23 205.88-84.096 89.292" clip-path="url(#a)"/>
<path d="m150.23 205.88-6.7664 266.81" clip-path="url(#a)"/>
<path d="m150.23 205.88 123.61 89.292" clip-path="url(#a)"/>
<path d="m150.23 205.88-32.749 266.81" clip-path="url(#a)"/>
<path d="m674.26 472.69v87.31" clip-path="url(#a)"/>
<path d="m744.78 472.69v87.31" clip-path="url(#a)"/>
<path d="m939.65 384.16-120.63 88.525" clip-path="url(#a)"/>
<path d="m939.65 384.16-42.686 88.525" clip-path="url(#a)"/>
<path d="m939.65 384.16 38.974 88.525" clip-path="url(#a)"/>
<path d="m939.65 384.16 124.35 88.525" clip-path="url(#a)"/>
<path d="m819.02 472.69v87.31" clip-path="url(#a)"/>
<path d="m896.97 472.69v87.31" clip-path="url(#a)"/>
<path d="m978.63 472.69v87.31" clip-path="url(#a)"/>
<path d="m66.133 295.18-15.466 177.51" clip-path="url(#a)"/>
<path d="m66.133 295.18-4.3305 177.51" clip-path="url(#a)"/>
<path d="m66.133 295.18 19.796 88.989" clip-path="url(#a)"/>
<path d="m143.46 472.69v87.31" clip-path="url(#a)"/>
<path d="m273.84 295.18-100.68 177.51" clip-path="url(#a)"/>
<path d="m273.84 295.18-67.277 177.51" clip-path="url(#a)"/>
<path d="m273.84 295.18 1.3919 88.989" clip-path="url(#a)"/>
<path d="m273.84 295.18 166.57 88.989" clip-path="url(#a)"/>
<path d="m173.16 472.69v87.31" clip-path="url(#a)"/>
<path d="m206.56 472.69v87.31" clip-path="url(#a)"/>
<path d="m275.23 384.16-31.551 88.525" clip-path="url(#a)"/>
<path d="m275.23 384.16 31.551 88.525" clip-path="url(#a)"/>
<path d="m440.41 384.16-63.101 88.525" clip-path="url(#a)"/>
<path d="m440.41 384.16-11.136 88.525" clip-path="url(#a)"/>
<path d="m440.41 384.16 74.237 88.525" clip-path="url(#a)"/>
<path d="m377.31 472.69v87.31" clip-path="url(#a)"/>
<path d="m429.27 472.69v87.31" clip-path="url(#a)"/>
<path d="m514.65 472.69-29.695 87.31" clip-path="url(#a)"/>
<path d="m514.65 472.69 29.695 87.31" clip-path="url(#a)"/>
<path d="m243.68 472.69v87.31" clip-path="url(#a)"/>
<path d="m306.78 472.69-22.271 87.31" clip-path="url(#a)"/>
<path d="m306.78 472.69 22.271 87.31" clip-path="url(#a)"/>
<path d="m50.667 472.69v87.31" clip-path="url(#a)"/>
<path d="m61.802 472.69v87.31" clip-path="url(#a)"/>
<path d="m85.929 384.16-9.2796 88.525" clip-path="url(#a)"/>
<path d="m85.929 384.16 9.2796 88.525" clip-path="url(#a)"/>
<path d="m76.65 472.69v87.31" clip-path="url(#a)"/>
<path d="m95.209 472.69v87.31" clip-path="url(#a)"/>
<path d="m117.48 472.69v87.31" clip-path="url(#a)"/>
<path d="m607.44 472.69v87.31" clip-path="url(#a)"/>
<path d="m1064 472.69v87.31" clip-path="url(#a)"/>
</g>
<path d="m617 68.508v6.0162q0 2.4 2.4 2.4h7.7425q2.4 0 2.4-2.4v-6.0162q0-2.4-2.4-2.4h-7.7425q-2.4 0-2.4 2.4z" clip-path="url(#a)" fill="#fff" stroke="#fff"/>
<g clip-path="url(#a)">
<g transform="translate(621.07 68.508) rotate(90) scale(.08 -.08)">
<defs>
<path id="at" d="m9.8125 72.906h9.8594v-29.891h35.844v29.891h9.8594v-72.906h-9.8594v34.719h-35.844v-34.719h-9.8594z"/>
</defs>
<use xlink:href="#at"/>
</g>
</g>
<path d="m385.23 167.79 5.3771-1.0175q2.3581-0.44625 1.9119-2.8044l-1.4396-7.6075q-0.44625-2.3581-2.8044-1.9119l-5.3771 1.0175q-2.3581 0.44625-1.9119 2.8044l1.4396 7.6075q0.44625 2.3581 2.8044 1.9119z" clip-path="url(#a)" fill="#fff" stroke="#fff"/>
<g clip-path="url(#a)">
<g transform="translate(384.47 163.8) rotate(-10.716) scale(.08 -.08)">
<defs>
<path id="v" d="m34.188 63.188-13.391-36.281h26.812zm-5.5781 9.7188h11.188l27.781-72.906h-10.25l-6.6406 18.703h-32.859l-6.6406-18.703h-10.406z"/>
</defs>
<use xlink:href="#v"/>
</g>
</g>
<path d="m642.23 293.14 0.65172 4.5549q0.33994 2.3758 2.7157 2.0359l7.6644-1.0966q2.3758-0.33994 2.0359-2.7157l-0.65172-4.5549q-0.33994-2.3758-2.7157-2.0359l-7.6644 1.0966q-2.3758 0.33994-2.0359 2.7157z" clip-path="url(#a)" fill="#fff" stroke="#fff"/>
<g clip-path="url(#a)">
<g transform="translate(646.25 292.56) rotate(81.857) scale(.08 -.08)">
<defs>
<path id="z" d="m9.8125 72.906h41.891v-8.3125h-32.031v-21.484h28.906v-8.2969h-28.906v-34.812h-9.8594z"/>
</defs>
<use xlink:href="#z"/>
</g>
</g>
<path d="m677.27 294.15 1.6392 4.8069q0.77461 2.2716 3.0462 1.4969l7.3281-2.4989q2.2716-0.77461 1.4969-3.0462l-1.6392-4.8069q-0.77461-2.2716-3.0462-1.4969l-7.3281 2.4989q-2.2716 0.77461-1.4969 3.0462z" clip-path="url(#a)" fill="#fff" stroke="#fff"/>
<g clip-path="url(#a)">
<g transform="translate(681.12 292.84) rotate(71.17) scale(.08 -.08)">
<defs>
<path id="aq" d="m53.516 70.516v-9.625q-5.6094 2.6875-10.594 4-4.9844 1.3281-9.625 1.3281-8.0469 0-12.422-3.125t-4.375-8.8906q0-4.8438 2.9062-7.3125 2.9062-2.4531 11.016-3.9688l5.9531-1.2188q11.031-2.1094 16.281-7.4062t5.25-14.172q0-10.609-7.1094-16.078-7.0938-5.4688-20.812-5.4688-5.1719 0-11.016 1.1719-5.8281 1.1719-12.078 3.4688v10.156q6-3.3594 11.766-5.0781 5.7656-1.7031 11.328-1.7031 8.4375 0 13.031 3.3125 4.5938 3.3281 4.5938 9.4844 0 5.3594-3.2969 8.3906t-10.812 4.5469l-6.0156 1.1719q-11.031 2.1875-15.969 6.875-4.9219 4.6875-4.9219 13.047 0 9.6719 6.8125 15.234t18.766 5.5625q5.1406 0 10.453-0.9375 5.3281-0.92188 10.891-2.7656z"/>
</defs>
<use xlink:href="#aq"/>
</g>
</g>
<path d="m775.32 253.28 4.177 3.5356q1.8319 1.5506 3.3824-0.28129l5.0022-5.9097q1.5506-1.8319-0.28129-3.3824l-4.177-3.5356q-1.8319-1.5506-3.3824 0.28129l-5.0022 5.9097q-1.5506 1.8319 0.28129 3.3824z" clip-path="url(#a)" fill="#fff" stroke="#fff"/>
<g clip-path="url(#a)">
<g transform="translate(777.95 250.18) rotate(40.246) scale(.08 -.08)">
<use xlink:href="#v"/>
</g>
</g>
<path d="m621.49 297.73 0.25985-5.8492q0.10651-2.3976-2.2911-2.5041l-7.7349-0.34362q-2.3976-0.10651-2.5041 2.2911l-0.25985 5.8492q-0.10651 2.3976 2.2911 2.5041l7.7349 0.34362q2.3976 0.10651 2.5041-2.2911z" clip-path="url(#a)" fill="#fff" stroke="#fff"/>
<g clip-path="url(#a)">
<g transform="translate(617.43 297.55) rotate(-87.456) scale(.08 -.08)">
<defs>
<path id="y" d="m8.6875 72.906h9.9219v-44.297q0-11.719 4.2344-16.875 4.25-5.1406 13.781-5.1406 9.4688 0 13.719 5.1406 4.25 5.1562 4.25 16.875v44.297h9.9062v-45.516q0-14.25-7.0625-21.531-7.0469-7.2812-20.812-7.2812-13.828 0-20.891 7.2812-7.0469 7.2812-7.0469 21.531z"/>
</defs>
<use xlink:href="#y"/>
</g>
</g>
<path d="m110.83 256.86 3.83-4.0666q1.6455-1.7471-0.10166-3.3926l-5.6363-5.3083q-1.7471-1.6455-3.3926 0.10166l-3.83 4.0666q-1.6455 1.7471 0.10166 3.3926l5.6363 5.3083q1.7471 1.6455 3.3926-0.10166z" clip-path="url(#a)" fill="#fff" stroke="#fff"/>
<g clip-path="url(#a)">
<g transform="translate(107.87 254.08) rotate(-46.716) scale(.08 -.08)">
<defs>
<path id="o" d="m64.406 67.281v-10.391q-4.9844 4.6406-10.625 6.9219-5.6406 2.2969-11.984 2.2969-12.5 0-19.141-7.6406t-6.6406-22.094q0-14.406 6.6406-22.047t19.141-7.6406q6.3438 0 11.984 2.2969t10.625 6.9375v-10.312q-5.1719-3.5156-10.969-5.2812-5.7812-1.75-12.219-1.75-16.562 0-26.094 10.125-9.5156 10.141-9.5156 27.672 0 17.578 9.5156 27.703 9.5312 10.141 26.094 10.141 6.5312 0 12.312-1.7344 5.7969-1.7344 10.875-5.2031z"/>
</defs>
<use xlink:href="#o"/>
</g>
</g>
<path d="m153.04 342.44 0.15174-5.9831q0.060846-2.3992-2.3384-2.4601l-7.74-0.19629q-2.3992-0.060846-2.4601 2.3384l-0.15173 5.9831q-0.060846 2.3992 2.3384 2.4601l7.74 0.19629q2.3992 0.060845 2.4601-2.3384z" clip-path="url(#a)" fill="#fff" stroke="#fff"/>
<g clip-path="url(#a)">
<g transform="translate(148.98 342.33) rotate(-88.547) scale(.08 -.08)">
<defs>
<path id="aj" d="m9.8125 72.906h13.281l32.328-60.984v60.984h9.5625v-72.906h-13.281l-32.312 60.984v-60.984h-9.5781z"/>
</defs>
<use xlink:href="#aj"/>
</g>
</g>
<path d="m206.1 253.98 4.5284 3.2711q1.9455 1.4054 3.3509-0.54016l4.5337-6.2763q1.4054-1.9455-0.54016-3.3509l-4.5284-3.2711q-1.9455-1.4054-3.3509 0.54016l-4.5337 6.2763q-1.4054 1.9455 0.54016 3.3509z" clip-path="url(#a)" fill="#fff" stroke="#fff"/>
<g clip-path="url(#a)">
<g transform="translate(208.48 250.68) rotate(35.843) scale(.08 -.08)">
<use xlink:href="#o"/>
</g>
</g>
<path d="m139.72 342.96 0.71332-5.8114q0.29239-2.3821-2.0897-2.6745l-7.6848-0.94328q-2.3821-0.2924-2.6745 2.0897l-0.71332 5.8114q-0.2924 2.3821 2.0897 2.6745l7.6848 0.94328q2.3821 0.2924 2.6745-2.0897z" clip-path="url(#a)" fill="#fff" stroke="#fff"/>
<g clip-path="url(#a)">
<g transform="translate(135.69 342.46) rotate(-83.002) scale(.08 -.08)">
<use xlink:href="#y"/>
</g>
</g>
<path d="m667.99 499.44v33.808q0 2.4 2.4 2.4h7.7425q2.4 0 2.4-2.4v-33.808q0-2.4-2.4-2.4h-7.7425q-2.4 0-2.4 2.4z" clip-path="url(#a)" fill="#fff" stroke="#fff"/>
<g clip-path="url(#a)">
<g transform="translate(672.05 499.44) rotate(90) scale(.08 -.08)">
<defs>
<path id="j" d="m-0.29688 72.906h61.672v-8.3125h-25.875v-64.594h-9.9062v64.594h-25.891z"/>
<path id="d" d="m56.203 29.594v-4.3906h-41.312q0.59375-9.2812 5.5938-14.141t13.938-4.8594q5.1719 0 10.031 1.2656t9.6562 3.8125v-8.5q-4.8438-2.0469-9.9219-3.125t-10.297-1.0781q-13.094 0-20.734 7.6094-7.6406 7.625-7.6406 20.625 0 13.422 7.25 21.297 7.25 7.8906 19.562 7.8906 11.031 0 17.453-7.1094 6.4219-7.0938 6.4219-19.297zm-8.9844 2.6406q-0.09375 7.3594-4.125 11.75-4.0312 4.4062-10.672 4.4062-7.5156 0-12.031-4.25t-5.2031-11.969z"/>
<path id="e" d="m41.109 46.297q-1.5156 0.875-3.2969 1.2812-1.7812 0.42188-3.9219 0.42188-7.625 0-11.703-4.9531t-4.0781-14.234v-28.812h-9.0312v54.688h9.0312v-8.5q2.8438 4.9844 7.375 7.3906 4.5469 2.4219 11.047 2.4219 0.92188 0 2.0469-0.125 1.125-0.10938 2.4844-0.35938z"/>
<path id="l" d="m52 44.188q3.375 6.0625 8.0625 8.9375t11.031 2.875q8.5469 0 13.188-5.9844 4.6406-5.9688 4.6406-17v-33.016h-9.0312v32.719q0 7.8594-2.7969 11.656-2.7812 3.8125-8.4844 3.8125-6.9844 0-11.047-4.6406-4.0469-4.625-4.0469-12.641v-30.906h-9.0312v32.719q0 7.9062-2.7812 11.688t-8.5938 3.7812q-6.8906 0-10.953-4.6562-4.0469-4.6562-4.0469-12.625v-30.906h-9.0312v54.688h9.0312v-8.5q3.0781 5.0312 7.375 7.4219t10.203 2.3906q5.9688 0 10.141-3.0312 4.1719-3.0156 6.1719-8.7812z"/>
<path id="g" d="m9.4219 54.688h8.9844v-54.688h-8.9844zm0 21.297h8.9844v-11.391h-8.9844z"/>
<path id="i" d="m54.891 33.016v-33.016h-8.9844v32.719q0 7.7656-3.0312 11.609-3.0312 3.8594-9.0781 3.8594-7.2812 0-11.484-4.6406-4.2031-4.625-4.2031-12.641v-30.906h-9.0312v54.688h9.0312v-8.5q3.2344 4.9375 7.5938 7.375 4.375 2.4375 10.094 2.4375 9.4219 0 14.25-5.8281 4.8438-5.8281 4.8438-17.156z"/>
<path id="h" d="m34.281 27.484q-10.891 0-15.094-2.4844t-4.2031-8.5q0-4.7812 3.1562-7.5938 3.1562-2.7969 8.5625-2.7969 7.4844 0 12 5.2969t4.5156 14.078v2zm17.922 3.7188v-31.203h-8.9844v8.2969q-3.0781-4.9688-7.6719-7.3438t-11.234-2.375q-8.3906 0-13.359 4.7188-4.9531 4.7188-4.9531 12.625 0 9.2188 6.1719 13.906 6.1875 4.6875 18.438 4.6875h12.609v0.89062q0 6.2031-4.0781 9.5938t-11.453 3.3906q-4.6875 0-9.1406-1.125-4.4375-1.125-8.5312-3.375v8.3125q4.9219 1.9062 9.5625 2.8438 4.6406 0.95312 9.0312 0.95312 11.875 0 17.734-6.1562 5.8594-6.1406 5.8594-18.641z"/>
<path id="k" d="m9.4219 75.984h8.9844v-75.984h-8.9844z"/>
</defs>
<use xlink:href="#j"/>
<use x="44.083984" xlink:href="#d"/>
<use x="105.607422" xlink:href="#e"/>
<use x="144.970703" xlink:href="#l"/>
<use x="242.382812" xlink:href="#g"/>
<use x="270.166016" xlink:href="#i"/>
<use x="333.544922" xlink:href="#h"/>
<use x="394.824219" xlink:href="#k"/>
</g>
</g>
<path d="m738.51 499.44v33.808q0 2.4 2.4 2.4h7.7425q2.4 0 2.4-2.4v-33.808q0-2.4-2.4-2.4h-7.7425q-2.4 0-2.4 2.4z" clip-path="url(#a)" fill="#fff" stroke="#fff"/>
<g clip-path="url(#a)">
<g transform="translate(742.57 499.44) rotate(90) scale(.08 -.08)">
<use xlink:href="#j"/>
<use x="44.083984" xlink:href="#d"/>
<use x="105.607422" xlink:href="#e"/>
<use x="144.970703" xlink:href="#l"/>
<use x="242.382812" xlink:href="#g"/>
<use x="270.166016" xlink:href="#i"/>
<use x="333.544922" xlink:href="#h"/>
<use x="394.824219" xlink:href="#k"/>
</g>
</g>
<path d="m880.81 435.13 4.4816-3.2887q1.9349-1.4199 0.51502-3.3548l-4.5806-6.2421q-1.4199-1.9349-3.3548-0.51503l-4.4816 3.2887q-1.9349 1.4199-0.51503 3.3548l4.5806 6.2421q1.4199 1.9349 3.3548 0.51503z" clip-path="url(#a)" fill="#fff" stroke="#fff"/>
<g clip-path="url(#a)">
<g transform="translate(878.4 431.85) rotate(-36.272) scale(.08 -.08)">
<defs>
<path id="p" d="m44.391 34.188q3.1719-1.0781 6.1719-4.5938t6.0312-9.6719l10.016-19.922h-10.609l-9.3125 18.703q-3.625 7.3281-7.0156 9.7188t-9.25 2.3906h-10.75v-30.812h-9.8594v72.906h22.266q12.5 0 18.656-5.2344 6.1562-5.2188 6.1562-15.766 0-6.8906-3.2031-11.438-3.2031-4.5312-9.2969-6.2812zm-24.719 30.609v-25.875h12.406q7.125 0 10.766 3.2969t3.6406 9.6875-3.6406 9.6406-10.766 3.25z"/>
</defs>
<use xlink:href="#p"/>
</g>
</g>
<path d="m922.77 433.62 2.3769-4.9294q1.0424-2.1618-1.1194-3.2042l-6.9741-3.3628q-2.1618-1.0424-3.2042 1.1194l-2.3769 4.9294q-1.0424 2.1618 1.1194 3.2042l6.9741 3.3628q2.1618 1.0424 3.2042-1.1194z" clip-path="url(#a)" fill="#fff" stroke="#fff"/>
<g clip-path="url(#a)">
<g transform="translate(919.11 431.85) rotate(-64.257) scale(.08 -.08)">
<use xlink:href="#v"/>
</g>
</g>
<path d="m950.67 425.06 5.2347 11.89q0.96706 2.1965 3.1636 1.2295l7.3218-3.2235q2.1965-0.96706 1.2295-3.1636l-5.2347-11.89q-0.96706-2.1965-3.1636-1.2295l-7.3218 3.2235q-2.1965 0.96706-1.2295 3.1636z" clip-path="url(#a)" fill="#fff" stroke="#fff"/>
<g clip-path="url(#a)">
<g transform="translate(954.59 423.33) rotate(66.238) scale(.08 -.08)">
<defs>
<path id="as" d="m19.672 64.797v-27.391h12.406q6.8906 0 10.641 3.5625 3.7656 3.5625 3.7656 10.156 0 6.5469-3.7656 10.109-3.75 3.5625-10.641 3.5625zm-9.8594 8.1094h22.266q12.266 0 18.531-5.5469 6.2812-5.5469 6.2812-16.234 0-10.797-6.2812-16.312-6.2656-5.5156-18.531-5.5156h-12.406v-29.297h-9.8594z"/>
<path id="av" d="m21 76.422v-100h-8.2969v100z"/>
</defs>
<use xlink:href="#as"/>
<use x="60.302734" xlink:href="#av"/>
<use x="93.994141" xlink:href="#v"/>
</g>
</g>
<path d="m995.8 431.84 4.7697 3.3957q1.9551 1.3919 3.3471-0.56324l4.4904-6.3074q1.3919-1.9551-0.56324-3.3471l-4.7697-3.3957q-1.9551-1.3919-3.3471 0.56324l-4.4904 6.3074q-1.3919 1.9551 0.56324 3.3471z" clip-path="url(#a)" fill="#fff" stroke="#fff"/>
<g clip-path="url(#a)">
<g transform="translate(998.16 428.53) rotate(35.448) scale(.08 -.08)">
<use xlink:href="#y"/>
</g>
</g>
<path d="m812.75 499.44v33.808q0 2.4 2.4 2.4h7.7425q2.4 0 2.4-2.4v-33.808q0-2.4-2.4-2.4h-7.7425q-2.4 0-2.4 2.4z" clip-path="url(#a)" fill="#fff" stroke="#fff"/>
<g clip-path="url(#a)">
<g transform="translate(816.81 499.44) rotate(90) scale(.08 -.08)">
<use xlink:href="#j"/>
<use x="44.083984" xlink:href="#d"/>
<use x="105.607422" xlink:href="#e"/>
<use x="144.970703" xlink:href="#l"/>
<use x="242.382812" xlink:href="#g"/>
<use x="270.166016" xlink:href="#i"/>
<use x="333.544922" xlink:href="#h"/>
<use x="394.824219" xlink:href="#k"/>
</g>
</g>
<path d="m890.7 499.44v33.808q0 2.4 2.4 2.4h7.7425q2.4 0 2.4-2.4v-33.808q0-2.4-2.4-2.4h-7.7425q-2.4 0-2.4 2.4z" clip-path="url(#a)" fill="#fff" stroke="#fff"/>
<g clip-path="url(#a)">
<g transform="translate(894.76 499.44) rotate(90) scale(.08 -.08)">
<use xlink:href="#j"/>
<use x="44.083984" xlink:href="#d"/>
<use x="105.607422" xlink:href="#e"/>
<use x="144.970703" xlink:href="#l"/>
<use x="242.382812" xlink:href="#g"/>
<use x="270.166016" xlink:href="#i"/>
<use x="333.544922" xlink:href="#h"/>
<use x="394.824219" xlink:href="#k"/>
</g>
</g>
<path d="m972.36 499.44v33.808q0 2.4 2.4 2.4h7.7425q2.4 0 2.4-2.4v-33.808q0-2.4-2.4-2.4h-7.7425q-2.4 0-2.4 2.4z" clip-path="url(#a)" fill="#fff" stroke="#fff"/>
<g clip-path="url(#a)">
<g transform="translate(976.42 499.44) rotate(90) scale(.08 -.08)">
<use xlink:href="#j"/>
<use x="44.083984" xlink:href="#d"/>
<use x="105.607422" xlink:href="#e"/>
<use x="144.970703" xlink:href="#l"/>
<use x="242.382812" xlink:href="#g"/>
<use x="270.166016" xlink:href="#i"/>
<use x="333.544922" xlink:href="#h"/>
<use x="394.824219" xlink:href="#k"/>
</g>
</g>
<path d="m64.448 386.77 0.39937-4.5839q0.20831-2.3909-2.1826-2.5993l-7.7133-0.67202q-2.3909-0.20831-2.5993 2.1826l-0.39937 4.5839q-0.20831 2.3909 2.1826 2.5993l7.7133 0.67202q2.3909 0.20831 2.5993-2.1826z" clip-path="url(#a)" fill="#fff" stroke="#fff"/>
<g clip-path="url(#a)">
<g transform="translate(60.399 386.42) rotate(-85.021) scale(.08 -.08)">
<use xlink:href="#z"/>
</g>
</g>
<path d="m70.169 386.88 0.13624-5.5846q0.058531-2.3993-2.3408-2.4578l-7.7402-0.18882q-2.3993-0.058531-2.4578 2.3408l-0.13624 5.5846q-0.058531 2.3993 2.3408 2.4578l7.7402 0.18882q2.3993 0.05853 2.4578-2.3408z" clip-path="url(#a)" fill="#fff" stroke="#fff"/>
<g clip-path="url(#a)">
<g transform="translate(66.106 386.78) rotate(-88.603) scale(.08 -.08)">
<use xlink:href="#o"/>
</g>
</g>
<path d="m69.36 338.56 1.0977 4.9344q0.52116 2.3427 2.8639 1.8216l7.5577-1.6813q2.3427-0.52116 1.8216-2.8639l-1.0977-4.9344q-0.52116-2.3427-2.8639-1.8216l-7.5577 1.6813q-2.3427 0.52116-1.8216 2.8639z" clip-path="url(#a)" fill="#fff" stroke="#fff"/>
<g clip-path="url(#a)">
<g transform="translate(73.327 337.68) rotate(77.458) scale(.08 -.08)">
<defs>
<path id="u" d="m9.8125 72.906h46.094v-8.3125h-36.234v-21.578h34.719v-8.2969h-34.719v-26.422h37.109v-8.2969h-46.969z"/>
</defs>
<use xlink:href="#u"/>
</g>
</g>
<path d="m137.19 499.44v33.808q0 2.4 2.4 2.4h7.7425q2.4 0 2.4-2.4v-33.808q0-2.4-2.4-2.4h-7.7425q-2.4 0-2.4 2.4z" clip-path="url(#a)" fill="#fff" stroke="#fff"/>
<g clip-path="url(#a)">
<g transform="translate(141.26 499.44) rotate(90) scale(.08 -.08)">
<use xlink:href="#j"/>
<use x="44.083984" xlink:href="#d"/>
<use x="105.607422" xlink:href="#e"/>
<use x="144.970703" xlink:href="#l"/>
<use x="242.382812" xlink:href="#g"/>
<use x="270.166016" xlink:href="#i"/>
<use x="333.544922" xlink:href="#h"/>
<use x="394.824219" xlink:href="#k"/>
</g>
</g>
<path d="m227.4 389.77 3.1069-5.4777q1.1841-2.0876-0.90354-3.2716l-6.7346-3.8198q-2.0876-1.1841-3.2716 0.90354l-3.1069 5.4777q-1.1841 2.0876 0.90354 3.2716l6.7346 3.8198q2.0876 1.1841 3.2716-0.90354z" clip-path="url(#a)" fill="#fff" stroke="#fff"/>
<g clip-path="url(#a)">
<g transform="translate(223.87 387.76) rotate(-60.439) scale(.08 -.08)">
<defs>
<path id="ar" d="m39.406 66.219q-10.75 0-17.078-8.0156-6.3125-8-6.3125-21.828 0-13.766 6.3125-21.781 6.3281-8 17.078-8 10.734 0 17.016 8 6.2812 8.0156 6.2812 21.781 0 13.828-6.2812 21.828-6.2812 8.0156-17.016 8.0156zm13.812-64.906 13-14.203h-11.922l-10.797 11.672q-1.6094-0.09375-2.4688-0.14062-0.84375-0.0625-1.625-0.0625-15.375 0-24.594 10.281-9.2031 10.281-9.2031 27.516 0 17.281 9.2031 27.562 9.2188 10.281 24.594 10.281 15.328 0 24.5-10.281 9.1875-10.281 9.1875-27.562 0-12.688-5.1094-21.734-5.0938-9.0312-14.766-13.328z"/>
</defs>
<use xlink:href="#ar"/>
</g>
</g>
<path d="m245.08 388.77 1.9798-5.2237q0.85055-2.2442-1.3937-3.0948l-7.24-2.7439q-2.2442-0.85055-3.0948 1.3937l-1.9798 5.2237q-0.85055 2.2442 1.3937 3.0948l7.24 2.7439q2.2442 0.85055 3.0948-1.3937z" clip-path="url(#a)" fill="#fff" stroke="#fff"/>
<g clip-path="url(#a)">
<g transform="translate(241.28 387.33) rotate(-69.244) scale(.08 -.08)">
<use xlink:href="#o"/>
</g>
</g>
<path d="m268.23 337.24 0.079059 5.0544q0.037535 2.3997 2.4372 2.3622l7.7416-0.12109q2.3997-0.037536 2.3622-2.4372l-0.079059-5.0544q-0.037535-2.3997-2.4372-2.3622l-7.7416 0.12109q-2.3997 0.037536-2.3622 2.4372z" clip-path="url(#a)" fill="#fff" stroke="#fff"/>
<g clip-path="url(#a)">
<g transform="translate(272.29 337.18) rotate(89.104) scale(.08 -.08)">
<use xlink:href="#u"/>
</g>
</g>
<path d="m351.94 344.01 4.4586 2.382q2.1168 1.1309 3.2478-0.98592l3.6484-6.829q1.1309-2.1168-0.98592-3.2478l-4.4586-2.382q-2.1168-1.1309-3.2478 0.98592l-3.6484 6.829q-1.1309 2.1168 0.98592 3.2478z" clip-path="url(#a)" fill="#fff" stroke="#fff"/>
<g clip-path="url(#a)">
<g transform="translate(353.86 340.43) rotate(28.113) scale(.08 -.08)">
<use xlink:href="#u"/>
</g>
</g>
<path d="m166.89 499.44v33.808q0 2.4 2.4 2.4h7.7425q2.4 0 2.4-2.4v-33.808q0-2.4-2.4-2.4h-7.7425q-2.4 0-2.4 2.4z" clip-path="url(#a)" fill="#fff" stroke="#fff"/>
<g clip-path="url(#a)">
<g transform="translate(170.95 499.44) rotate(90) scale(.08 -.08)">
<use xlink:href="#j"/>
<use x="44.083984" xlink:href="#d"/>
<use x="105.607422" xlink:href="#e"/>
<use x="144.970703" xlink:href="#l"/>
<use x="242.382812" xlink:href="#g"/>
<use x="270.166016" xlink:href="#i"/>
<use x="333.544922" xlink:href="#h"/>
<use x="394.824219" xlink:href="#k"/>
</g>
</g>
<path d="m200.29 499.44v33.808q0 2.4 2.4 2.4h7.7425q2.4 0 2.4-2.4v-33.808q0-2.4-2.4-2.4h-7.7425q-2.4 0-2.4 2.4z" clip-path="url(#a)" fill="#fff" stroke="#fff"/>
<g clip-path="url(#a)">
<g transform="translate(204.36 499.44) rotate(90) scale(.08 -.08)">
<use xlink:href="#j"/>
<use x="44.083984" xlink:href="#d"/>
<use x="105.607422" xlink:href="#e"/>
<use x="144.970703" xlink:href="#l"/>
<use x="242.382812" xlink:href="#g"/>
<use x="270.166016" xlink:href="#i"/>
<use x="333.544922" xlink:href="#h"/>
<use x="394.824219" xlink:href="#k"/>
</g>
</g>
<path d="m264.43 433.15 1.8662-5.2361q0.80573-2.2607-1.455-3.0664l-7.2931-2.5993q-2.2607-0.80573-3.0664 1.455l-1.8662 5.2361q-0.80573 2.2607 1.455 3.0664l7.2931 2.5993q2.2607 0.80573 3.0664-1.455z" clip-path="url(#a)" fill="#fff" stroke="#fff"/>
<g clip-path="url(#a)">
<g transform="translate(260.6 431.79) rotate(-70.384) scale(.08 -.08)">
<use xlink:href="#p"/>
</g>
</g>
<path d="m284.16 427.9 1.8754 5.262q0.80573 2.2607 3.0664 1.455l7.2931-2.5993q2.2607-0.80573 1.455-3.0664l-1.8754-5.262q-0.80573-2.2607-3.0664-1.455l-7.2931 2.5993q-2.2607 0.80573-1.455 3.0664z" clip-path="url(#a)" fill="#fff" stroke="#fff"/>
<g clip-path="url(#a)">
<g transform="translate(287.99 426.54) rotate(70.384) scale(.08 -.08)">
<use xlink:href="#o"/>
</g>
</g>
<path d="m412.35 434.33 3.2265-4.5265q1.3931-1.9543-0.56127-3.3474l-6.3047-4.4941q-1.9543-1.3931-3.3474 0.56127l-3.2265 4.5265q-1.3931 1.9543 0.56127 3.3474l6.3047 4.4941q1.9543 1.3931 3.3474-0.56127z" clip-path="url(#a)" fill="#fff" stroke="#fff"/>
<g clip-path="url(#a)">
<g transform="translate(409.04 431.97) rotate(-54.518) scale(.08 -.08)">
<use xlink:href="#p"/>
</g>
</g>
<path d="m440.78 431.49 0.57426-4.5653q0.29954-2.3812-2.0817-2.6808l-7.682-0.96631q-2.3812-0.29954-2.6808 2.0817l-0.57426 4.5653q-0.29954 2.3812 2.0817 2.6808l7.682 0.96631q2.3812 0.29954 2.6808-2.0817z" clip-path="url(#a)" fill="#fff" stroke="#fff"/>
<g clip-path="url(#a)">
<g transform="translate(436.75 430.99) rotate(-82.83) scale(.08 -.08)">
<use xlink:href="#z"/>
</g>
</g>
<path d="m470.93 430.32 3.5895 4.2804q1.5421 1.839 3.3811 0.29681l5.9326-4.975q1.839-1.5421 0.29681-3.3811l-3.5895-4.2804q-1.5421-1.839-3.3811-0.29681l-5.9326 4.975q-1.839 1.5421-0.29681 3.3811z" clip-path="url(#a)" fill="#fff" stroke="#fff"/>
<g clip-path="url(#a)">
<g transform="translate(474.04 427.71) rotate(50.017) scale(.08 -.08)">
<use xlink:href="#o"/>
</g>
</g>
<path d="m371.04 499.44v33.808q0 2.4 2.4 2.4h7.7425q2.4 0 2.4-2.4v-33.808q0-2.4-2.4-2.4h-7.7425q-2.4 0-2.4 2.4z" clip-path="url(#a)" fill="#fff" stroke="#fff"/>
<g clip-path="url(#a)">
<g transform="translate(375.1 499.44) rotate(90) scale(.08 -.08)">
<use xlink:href="#j"/>
<use x="44.083984" xlink:href="#d"/>
<use x="105.607422" xlink:href="#e"/>
<use x="144.970703" xlink:href="#l"/>
<use x="242.382812" xlink:href="#g"/>
<use x="270.166016" xlink:href="#i"/>
<use x="333.544922" xlink:href="#h"/>
<use x="394.824219" xlink:href="#k"/>
</g>
</g>
<path d="m423 499.44v33.808q0 2.4 2.4 2.4h7.7425q2.4 0 2.4-2.4v-33.808q0-2.4-2.4-2.4h-7.7425q-2.4 0-2.4 2.4z" clip-path="url(#a)" fill="#fff" stroke="#fff"/>
<g clip-path="url(#a)">
<g transform="translate(427.07 499.44) rotate(90) scale(.08 -.08)">
<use xlink:href="#j"/>
<use x="44.083984" xlink:href="#d"/>
<use x="105.607422" xlink:href="#e"/>
<use x="144.970703" xlink:href="#l"/>
<use x="242.382812" xlink:href="#g"/>
<use x="270.166016" xlink:href="#i"/>
<use x="333.544922" xlink:href="#h"/>
<use x="394.824219" xlink:href="#k"/>
</g>
</g>
<path d="m500.29 534.37 10.886-32.007q0.77278-2.2722-1.4994-3.045l-7.3302-2.493q-2.2722-0.77278-3.045 1.4994l-10.886 32.007q-0.77278 2.2722 1.4994 3.045l7.3302 2.493q2.2722 0.77278 3.045-1.4994z" clip-path="url(#a)" fill="#fff" stroke="#fff"/>
<g clip-path="url(#a)">
<g transform="translate(496.45 533.06) rotate(-71.217) scale(.08 -.08)">
<use xlink:href="#j"/>
<use x="44.083984" xlink:href="#d"/>
<use x="105.607422" xlink:href="#e"/>
<use x="144.970703" xlink:href="#l"/>
<use x="242.382812" xlink:href="#g"/>
<use x="270.166016" xlink:href="#i"/>
<use x="333.544922" xlink:href="#h"/>
<use x="394.824219" xlink:href="#k"/>
</g>
</g>
<path d="m518.11 502.36 10.886 32.007q0.77278 2.2722 3.045 1.4994l7.3302-2.493q2.2722-0.77278 1.4994-3.045l-10.886-32.007q-0.77278-2.2722-3.045-1.4994l-7.3302 2.493q-2.2722 0.77278-1.4994 3.045z" clip-path="url(#a)" fill="#fff" stroke="#fff"/>
<g clip-path="url(#a)">
<g transform="translate(521.96 501.05) rotate(71.217) scale(.08 -.08)">
<use xlink:href="#j"/>
<use x="44.083984" xlink:href="#d"/>
<use x="105.607422" xlink:href="#e"/>
<use x="144.970703" xlink:href="#l"/>
<use x="242.382812" xlink:href="#g"/>
<use x="270.166016" xlink:href="#i"/>
<use x="333.544922" xlink:href="#h"/>
<use x="394.824219" xlink:href="#k"/>
</g>
</g>
<path d="m237.41 499.44v33.808q0 2.4 2.4 2.4h7.7425q2.4 0 2.4-2.4v-33.808q0-2.4-2.4-2.4h-7.7425q-2.4 0-2.4 2.4z" clip-path="url(#a)" fill="#fff" stroke="#fff"/>
<g clip-path="url(#a)">
<g transform="translate(241.48 499.44) rotate(90) scale(.08 -.08)">
<use xlink:href="#j"/>
<use x="44.083984" xlink:href="#d"/>
<use x="105.607422" xlink:href="#e"/>
<use x="144.970703" xlink:href="#l"/>
<use x="242.382812" xlink:href="#g"/>
<use x="270.166016" xlink:href="#i"/>
<use x="333.544922" xlink:href="#h"/>
<use x="394.824219" xlink:href="#k"/>
</g>
</g>
<path d="m297.55 534.27 8.356-32.759q0.5932-2.3255-1.7323-2.9187l-7.5023-1.9137q-2.3255-0.5932-2.9187 1.7323l-8.356 32.759q-0.5932 2.3255 1.7323 2.9187l7.5023 1.9137q2.3255 0.5932 2.9187-1.7323z" clip-path="url(#a)" fill="#fff" stroke="#fff"/>
<g clip-path="url(#a)">
<g transform="translate(293.61 533.27) rotate(-75.69) scale(.08 -.08)">
<use xlink:href="#j"/>
<use x="44.083984" xlink:href="#d"/>
<use x="105.607422" xlink:href="#e"/>
<use x="144.970703" xlink:href="#l"/>
<use x="242.382812" xlink:href="#g"/>
<use x="270.166016" xlink:href="#i"/>
<use x="333.544922" xlink:href="#h"/>
<use x="394.824219" xlink:href="#k"/>
</g>
</g>
<path d="m307.66 501.52 8.356 32.759q0.5932 2.3255 2.9187 1.7323l7.5023-1.9137q2.3255-0.5932 1.7323-2.9187l-8.356-32.759q-0.5932-2.3255-2.9187-1.7323l-7.5023 1.9137q-2.3255 0.5932-1.7323 2.9187z" clip-path="url(#a)" fill="#fff" stroke="#fff"/>
<g clip-path="url(#a)">
<g transform="translate(311.6 500.51) rotate(75.69) scale(.08 -.08)">
<use xlink:href="#j"/>
<use x="44.083984" xlink:href="#d"/>
<use x="105.607422" xlink:href="#e"/>
<use x="144.970703" xlink:href="#l"/>
<use x="242.382812" xlink:href="#g"/>
<use x="270.166016" xlink:href="#i"/>
<use x="333.544922" xlink:href="#h"/>
<use x="394.824219" xlink:href="#k"/>
</g>
</g>
<path d="m44.395 499.44v33.808q0 2.4 2.4 2.4h7.7425q2.4 0 2.4-2.4v-33.808q0-2.4-2.4-2.4h-7.7425q-2.4 0-2.4 2.4z" clip-path="url(#a)" fill="#fff" stroke="#fff"/>
<g clip-path="url(#a)">
<g transform="translate(48.459 499.44) rotate(90) scale(.08 -.08)">
<use xlink:href="#j"/>
<use x="44.083984" xlink:href="#d"/>
<use x="105.607422" xlink:href="#e"/>
<use x="144.970703" xlink:href="#l"/>
<use x="242.382812" xlink:href="#g"/>
<use x="270.166016" xlink:href="#i"/>
<use x="333.544922" xlink:href="#h"/>
<use x="394.824219" xlink:href="#k"/>
</g>
</g>
<path d="m55.531 499.44v33.808q0 2.4 2.4 2.4h7.7425q2.4 0 2.4-2.4v-33.808q0-2.4-2.4-2.4h-7.7425q-2.4 0-2.4 2.4z" clip-path="url(#a)" fill="#fff" stroke="#fff"/>
<g clip-path="url(#a)">
<g transform="translate(59.595 499.44) rotate(90) scale(.08 -.08)">
<use xlink:href="#j"/>
<use x="44.083984" xlink:href="#d"/>
<use x="105.607422" xlink:href="#e"/>
<use x="144.970703" xlink:href="#l"/>
<use x="242.382812" xlink:href="#g"/>
<use x="270.166016" xlink:href="#i"/>
<use x="333.544922" xlink:href="#h"/>
<use x="394.824219" xlink:href="#k"/>
</g>
</g>
<path d="m87.237 431.85 0.57952-5.5285q0.25021-2.3869-2.1367-2.6371l-7.7003-0.80718q-2.3869-0.25021-2.6371 2.1367l-0.57952 5.5285q-0.25021 2.3869 2.1367 2.6371l7.7003 0.80718q2.3869 0.25021 2.6371-2.1367z" clip-path="url(#a)" fill="#fff" stroke="#fff"/>
<g clip-path="url(#a)">
<g transform="translate(83.195 431.42) rotate(-84.016) scale(.08 -.08)">
<use xlink:href="#p"/>
</g>
</g>
<path d="m84.041 426.3 0.58239 5.5558q0.25021 2.3869 2.6371 2.1367l7.7003-0.80718q2.3869-0.25021 2.1367-2.6371l-0.58239-5.5558q-0.25021-2.3869-2.6371-2.1367l-7.7003 0.80718q-2.3869 0.25021-2.1367 2.6371z" clip-path="url(#a)" fill="#fff" stroke="#fff"/>
<g clip-path="url(#a)">
<g transform="translate(88.082 425.88) rotate(84.016) scale(.08 -.08)">
<use xlink:href="#o"/>
</g>
</g>
<path d="m70.378 499.44v33.808q0 2.4 2.4 2.4h7.7425q2.4 0 2.4-2.4v-33.808q0-2.4-2.4-2.4h-7.7425q-2.4 0-2.4 2.4z" clip-path="url(#a)" fill="#fff" stroke="#fff"/>
<g clip-path="url(#a)">
<g transform="translate(74.442 499.44) rotate(90) scale(.08 -.08)">
<use xlink:href="#j"/>
<use x="44.083984" xlink:href="#d"/>
<use x="105.607422" xlink:href="#e"/>
<use x="144.970703" xlink:href="#l"/>
<use x="242.382812" xlink:href="#g"/>
<use x="270.166016" xlink:href="#i"/>
<use x="333.544922" xlink:href="#h"/>
<use x="394.824219" xlink:href="#k"/>
</g>
</g>
<path d="m88.938 499.44v33.808q0 2.4 2.4 2.4h7.7425q2.4 0 2.4-2.4v-33.808q0-2.4-2.4-2.4h-7.7425q-2.4 0-2.4 2.4z" clip-path="url(#a)" fill="#fff" stroke="#fff"/>
<g clip-path="url(#a)">
<g transform="translate(93.001 499.44) rotate(90) scale(.08 -.08)">
<use xlink:href="#j"/>
<use x="44.083984" xlink:href="#d"/>
<use x="105.607422" xlink:href="#e"/>
<use x="144.970703" xlink:href="#l"/>
<use x="242.382812" xlink:href="#g"/>
<use x="270.166016" xlink:href="#i"/>
<use x="333.544922" xlink:href="#h"/>
<use x="394.824219" xlink:href="#k"/>
</g>
</g>
<path d="m111.21 499.44v33.808q0 2.4 2.4 2.4h7.7425q2.4 0 2.4-2.4v-33.808q0-2.4-2.4-2.4h-7.7425q-2.4 0-2.4 2.4z" clip-path="url(#a)" fill="#fff" stroke="#fff"/>
<g clip-path="url(#a)">
<g transform="translate(115.27 499.44) rotate(90) scale(.08 -.08)">
<use xlink:href="#j"/>
<use x="44.083984" xlink:href="#d"/>
<use x="105.607422" xlink:href="#e"/>
<use x="144.970703" xlink:href="#l"/>
<use x="242.382812" xlink:href="#g"/>
<use x="270.166016" xlink:href="#i"/>
<use x="333.544922" xlink:href="#h"/>
<use x="394.824219" xlink:href="#k"/>
</g>
</g>
<path d="m601.17 499.44v33.808q0 2.4 2.4 2.4h7.7425q2.4 0 2.4-2.4v-33.808q0-2.4-2.4-2.4h-7.7425q-2.4 0-2.4 2.4z" clip-path="url(#a)" fill="#fff" stroke="#fff"/>
<g clip-path="url(#a)">
<g transform="translate(605.24 499.44) rotate(90) scale(.08 -.08)">
<use xlink:href="#j"/>
<use x="44.083984" xlink:href="#d"/>
<use x="105.607422" xlink:href="#e"/>
<use x="144.970703" xlink:href="#l"/>
<use x="242.382812" xlink:href="#g"/>
<use x="270.166016" xlink:href="#i"/>
<use x="333.544922" xlink:href="#h"/>
<use x="394.824219" xlink:href="#k"/>
</g>
</g>
<path d="m1057.7 499.44v33.808q0 2.4 2.4 2.4h7.7425q2.4 0 2.4-2.4v-33.808q0-2.4-2.4-2.4h-7.7425q-2.4 0-2.4 2.4z" clip-path="url(#a)" fill="#fff" stroke="#fff"/>
<g clip-path="url(#a)">
<g transform="translate(1061.8 499.44) rotate(90) scale(.08 -.08)">
<use xlink:href="#j"/>
<use x="44.083984" xlink:href="#d"/>
<use x="105.607422" xlink:href="#e"/>
<use x="144.970703" xlink:href="#l"/>
<use x="242.382812" xlink:href="#g"/>
<use x="270.166016" xlink:href="#i"/>
<use x="333.544922" xlink:href="#h"/>
<use x="394.824219" xlink:href="#k"/>
</g>
</g>
<defs>
<path id="b" d="m0 8.6603c2.2967 0 4.4997-0.9125 6.1237-2.5365 1.624-1.624 2.5365-3.827 2.5365-6.1237s-0.9125-4.4997-2.5365-6.1237c-1.624-1.624-3.827-2.5365-6.1237-2.5365s-4.4997 0.9125-6.1237 2.5365c-1.624 1.624-2.5365 3.827-2.5365 6.1237s0.9125 4.4997 2.5365 6.1237c1.624 1.624 3.827 2.5365 6.1237 2.5365z"/>
</defs>
<g clip-path="url(#a)" fill="#ffffff" stroke="#ffffff">
<use x="50.666667" y="560" xlink:href="#b"/>
<use x="61.802198" y="560" xlink:href="#b"/>
<use x="76.649573" y="560" xlink:href="#b"/>
<use x="95.208791" y="560" xlink:href="#b"/>
<use x="117.479853" y="560" xlink:href="#b"/>
<use x="143.462759" y="560" xlink:href="#b"/>
<use x="173.157509" y="560" xlink:href="#b"/>
<use x="206.564103" y="560" xlink:href="#b"/>
<use x="243.68254" y="560" xlink:href="#b"/>
<use x="284.512821" y="560" xlink:href="#b"/>
<use x="329.054945" y="560" xlink:href="#b"/>
<use x="377.308913" y="560" xlink:href="#b"/>
<use x="429.274725" y="560" xlink:href="#b"/>
<use x="484.952381" y="560" xlink:href="#b"/>
<use x="544.34188" y="560" xlink:href="#b"/>
<use x="607.443223" y="560" xlink:href="#b"/>
<use x="674.25641" y="560" xlink:href="#b"/>
<use x="744.781441" y="560" xlink:href="#b"/>
<use x="819.018315" y="560" xlink:href="#b"/>
<use x="896.967033" y="560" xlink:href="#b"/>
<use x="978.627595" y="560" xlink:href="#b"/>
<use x="1064" y="560" xlink:href="#b"/>
<use x="623.27269" y="26.666667" xlink:href="#b"/>
<use x="623.27269" y="116.365135" xlink:href="#b"/>
<use x="150.229141" y="205.883179" xlink:href="#b"/>
<use x="674.25641" y="472.689603" xlink:href="#b"/>
<use x="744.781441" y="472.689603" xlink:href="#b"/>
<use x="939.653236" y="384.164621" xlink:href="#b"/>
<use x="819.018315" y="472.689603" xlink:href="#b"/>
<use x="896.967033" y="472.689603" xlink:href="#b"/>
<use x="978.627595" y="472.689603" xlink:href="#b"/>
<use x="66.132682" y="295.175335" xlink:href="#b"/>
<use x="143.462759" y="472.689603" xlink:href="#b"/>
<use x="273.84127" y="295.175335" xlink:href="#b"/>
<use x="173.157509" y="472.689603" xlink:href="#b"/>
<use x="206.564103" y="472.689603" xlink:href="#b"/>
<use x="275.233211" y="384.164621" xlink:href="#b"/>
<use x="440.410256" y="384.164621" xlink:href="#b"/>
<use x="377.308913" y="472.689603" xlink:href="#b"/>
<use x="429.274725" y="472.689603" xlink:href="#b"/>
<use x="514.647131" y="472.689603" xlink:href="#b"/>
<use x="243.68254" y="472.689603" xlink:href="#b"/>
<use x="306.783883" y="472.689603" xlink:href="#b"/>
<use x="50.666667" y="472.689603" xlink:href="#b"/>
<use x="61.802198" y="472.689603" xlink:href="#b"/>
<use x="85.929182" y="384.164621" xlink:href="#b"/>
<use x="76.649573" y="472.689603" xlink:href="#b"/>
<use x="95.208791" y="472.689603" xlink:href="#b"/>
<use x="117.479853" y="472.689603" xlink:href="#b"/>
<use x="607.443223" y="472.689603" xlink:href="#b"/>
<use x="1064" y="472.689603" xlink:href="#b"/>
</g>
<g clip-path="url(#a)">
<g transform="translate(41.367 562.76) scale(.1 -.1)">
<defs>
<path id="w" d="m54.891 33.016v-33.016h-8.9844v32.719q0 7.7656-3.0312 11.609-3.0312 3.8594-9.0781 3.8594-7.2812 0-11.484-4.6406-4.2031-4.625-4.2031-12.641v-30.906h-9.0312v75.984h9.0312v-29.797q3.2344 4.9375 7.5938 7.375 4.375 2.4375 10.094 2.4375 9.4219 0 14.25-5.8281 4.8438-5.8281 4.8438-17.156z"/>
</defs>
<use xlink:href="#j"/>
<use x="61.083984" xlink:href="#w"/>
<use x="124.462891" xlink:href="#d"/>
</g>
</g>
<g clip-path="url(#a)">
<g transform="translate(40.784 562.76) scale(.1 -.1)">
<defs>
<path id="r" d="m4.2031 54.688h8.9844l11.234-42.672 11.172 42.672h10.594l11.234-42.672 11.188 42.672h8.9844l-14.312-54.688h-10.594l-11.766 44.828-11.812-44.828h-10.609z"/>
<path id="ag" d="m2.9844 54.688h9.5156l17.094-45.891 17.094 45.891h9.5156l-20.516-54.688h-12.203z"/>
<path id="t" d="m44.281 53.078v-8.5q-3.7969 1.9531-7.9062 2.9219-4.0938 0.98438-8.5 0.98438-6.6875 0-10.031-2.0469t-3.3438-6.1562q0-3.125 2.3906-4.9062t9.625-3.3906l3.0781-0.6875q9.5625-2.0469 13.594-5.7812t4.0312-10.422q0-7.625-6.0312-12.078-6.0312-4.4375-16.578-4.4375-4.3906 0-9.1562 0.85938t-10.031 2.5625v9.2812q4.9844-2.5938 9.8125-3.8906 4.8281-1.2812 9.5781-1.2812 6.3438 0 9.75 2.1719 3.4219 2.1719 3.4219 6.125 0 3.6562-2.4688 5.6094-2.4531 1.9531-10.812 3.7656l-3.125 0.73438q-8.3438 1.75-12.062 5.3906-3.7031 3.6406-3.7031 9.9844 0 7.7188 5.4688 11.906 5.4688 4.2031 15.531 4.2031 4.9688 0 9.3594-0.73438 4.4062-0.71875 8.1094-2.1875z"/>
</defs>
<use xlink:href="#r"/>
<use x="81.787109" xlink:href="#w"/>
<use x="145.166016" xlink:href="#h"/>
<use x="206.445312" xlink:href="#e"/>
<use x="247.558594" xlink:href="#ag"/>
<use x="306.738281" xlink:href="#d"/>
<use x="368.261719" xlink:href="#t"/>
</g>
</g>
<g clip-path="url(#a)">
<g transform="translate(71.83 562.76) scale(.1 -.1)">
<defs>
<path id="n" d="m30.609 48.391q-7.2188 0-11.422-5.6406t-4.2031-15.453 4.1719-15.453q4.1875-5.6406 11.453-5.6406 7.1875 0 11.375 5.6562 4.2031 5.6719 4.2031 15.438 0 9.7188-4.2031 15.406-4.1875 5.6875-11.375 5.6875zm0 7.6094q11.719 0 18.406-7.625 6.7031-7.6094 6.7031-21.078 0-13.422-6.7031-21.078-6.6875-7.6406-18.406-7.6406-11.766 0-18.438 7.6406-6.6562 7.6562-6.6562 21.078 0 13.469 6.6562 21.078 6.6719 7.625 18.438 7.625z"/>
<path id="an" d="m37.109 75.984v-7.4844h-8.5938q-4.8281 0-6.7188-1.9531-1.875-1.9531-1.875-7.0312v-4.8281h14.797v-6.9844h-14.797v-47.703h-9.0312v47.703h-8.5938v6.9844h8.5938v3.8125q0 9.125 4.25 13.297 4.25 4.1875 13.469 4.1875z"/>
</defs>
<use xlink:href="#n"/>
<use x="61.181641" xlink:href="#an"/>
</g>
</g>
<g clip-path="url(#a)">
<g transform="translate(73.304 562.76) scale(.1 -.1)">
<defs>
<path id="au" d="m19.672 34.812v-26.703h15.828q7.9531 0 11.781 3.2969 3.8438 3.2969 3.8438 10.078 0 6.8438-3.8438 10.078-3.8281 3.25-11.781 3.25zm0 29.984v-21.969h14.609q7.2188 0 10.75 2.7031 3.5469 2.7188 3.5469 8.2812 0 5.5156-3.5469 8.25-3.5312 2.7344-10.75 2.7344zm-9.8594 8.1094h25.203q11.281 0 17.375-4.6875 6.1094-4.6875 6.1094-13.328 0-6.7031-3.125-10.656t-9.1875-4.9219q7.2812-1.5625 11.312-6.5312 4.0312-4.9531 4.0312-12.375 0-9.7656-6.6406-15.094-6.6406-5.3125-18.906-5.3125h-26.172z"/>
<path id="ah" d="m9.0781 75.984h9.0312v-44.875l26.812 23.578h11.469l-29-25.578 30.234-29.109h-11.719l-27.797 26.703v-26.703h-9.0312z"/>
<path id="af" d="m32.172-5.0781q-3.7969-9.7656-7.4219-12.734-3.6094-2.9844-9.6562-2.9844h-7.1875v7.5156h5.2812q3.7031 0 5.75 1.7656 2.0625 1.75 4.5469 8.2969l1.6094 4.0938-22.109 53.812h9.5156l17.094-42.766 17.094 42.766h9.5156z"/>
</defs>
<use xlink:href="#au"/>
<use x="68.603516" xlink:href="#e"/>
<use x="107.466797" xlink:href="#n"/>
<use x="168.648438" xlink:href="#n"/>
<use x="229.830078" xlink:href="#ah"/>
<use x="287.740234" xlink:href="#k"/>
<use x="315.523438" xlink:href="#af"/>
<use x="374.703125" xlink:href="#i"/>
</g>
</g>
<g clip-path="url(#a)">
<g transform="translate(115.89 562.76) scale(.1 -.1)">
<defs>
<path id="am" d="m11.719 12.406h10.297v-8.4062l-8-15.625h-6.2969l4 15.625z"/>
</defs>
<use xlink:href="#am"/>
</g>
</g>
<g clip-path="url(#a)">
<g transform="translate(134.06 562.76) scale(.1 -.1)">
<defs>
<path id="x" d="m45.406 46.391v29.594h8.9844v-75.984h-8.9844v8.2031q-2.8281-4.875-7.1562-7.25-4.3125-2.375-10.375-2.375-9.9062 0-16.141 7.9062-6.2188 7.9219-6.2188 20.812t6.2188 20.797q6.2344 7.9062 16.141 7.9062 6.0625 0 10.375-2.375 4.3281-2.3594 7.1562-7.2344zm-30.609-19.094q0-9.9062 4.0781-15.547t11.203-5.6406 11.219 5.6406q4.1094 5.6406 4.1094 15.547t-4.1094 15.547q-4.0938 5.6406-11.219 5.6406t-11.203-5.6406-4.0781-15.547z"/>
</defs>
<use xlink:href="#h"/>
<use x="61.279297" xlink:href="#i"/>
<use x="124.658203" xlink:href="#x"/>
</g>
</g>
<g clip-path="url(#a)">
<g transform="translate(159.03 562.76) scale(.1 -.1)">
<use xlink:href="#d"/>
<use x="61.523438" xlink:href="#ag"/>
<use x="120.703125" xlink:href="#d"/>
<use x="182.226562" xlink:href="#e"/>
<use x="223.339844" xlink:href="#af"/>
</g>
</g>
<g clip-path="url(#a)">
<g transform="translate(196.31 562.76) scale(.1 -.1)">
<defs>
<path id="ax" d="m18.109 8.2031v-29h-9.0312v75.484h9.0312v-8.2969q2.8438 4.875 7.1562 7.2344 4.3281 2.375 10.328 2.375 9.9688 0 16.188-7.9062 6.2344-7.9062 6.2344-20.797t-6.2344-20.812q-6.2188-7.9062-16.188-7.9062-6 0-10.328 2.375-4.3125 2.375-7.1562 7.25zm30.578 19.094q0 9.9062-4.0781 15.547t-11.203 5.6406q-7.1406 0-11.219-5.6406t-4.0781-15.547 4.0781-15.547 11.219-5.6406q7.125 0 11.203 5.6406t4.0781 15.547z"/>
<path id="s" d="m18.312 70.219v-15.531h18.5v-6.9844h-18.5v-29.688q0-6.6875 1.8281-8.5938t7.4531-1.9062h9.2188v-7.5156h-9.2188q-10.406 0-14.359 3.875-3.9531 3.8906-3.9531 14.141v29.688h-6.5938v6.9844h6.5938v15.531z"/>
</defs>
<use xlink:href="#ax"/>
<use x="63.476562" xlink:href="#h"/>
<use x="124.755859" xlink:href="#e"/>
<use x="165.869141" xlink:href="#s"/>
</g>
</g>
<g clip-path="url(#a)">
<g transform="translate(238.86 562.76) scale(.1 -.1)">
<use xlink:href="#n"/>
<use x="61.181641" xlink:href="#an"/>
</g>
</g>
<g clip-path="url(#a)">
<g transform="translate(273.61 562.76) scale(.1 -.1)">
<use xlink:href="#aj"/>
<use x="74.804688" xlink:href="#d"/>
<use x="136.328125" xlink:href="#r"/>
</g>
</g>
<g clip-path="url(#a)">
<g transform="translate(318.65 562.76) scale(.1 -.1)">
<defs>
<path id="ap" d="m-0.20312 72.906h10.609l20.203-29.984 20.078 29.984h10.594l-25.781-38.188v-34.719h-9.9062v34.719z"/>
</defs>
<use xlink:href="#ap"/>
<use x="47.833984" xlink:href="#n"/>
<use x="109.015625" xlink:href="#e"/>
<use x="150.128906" xlink:href="#ah"/>
</g>
</g>
<g clip-path="url(#a)">
<g transform="translate(353.07 562.76) scale(.1 -.1)">
<defs>
<path id="ao" d="m48.688 27.297q0 9.9062-4.0781 15.547t-11.203 5.6406q-7.1406 0-11.219-5.6406t-4.0781-15.547 4.0781-15.547 11.219-5.6406q7.125 0 11.203 5.6406t4.0781 15.547zm-30.578 19.094q2.8438 4.875 7.1562 7.2344 4.3281 2.375 10.328 2.375 9.9688 0 16.188-7.9062 6.2344-7.9062 6.2344-20.797t-6.2344-20.812q-6.2188-7.9062-16.188-7.9062-6 0-10.328 2.375-4.3125 2.375-7.1562 7.25v-8.2031h-9.0312v75.984h9.0312z"/>
<path id="ay" d="m45.406 27.984q0 9.7656-4.0312 15.125-4.0156 5.375-11.297 5.375-7.2188 0-11.25-5.375-4.0312-5.3594-4.0312-15.125 0-9.7188 4.0312-15.094t11.25-5.375q7.2812 0 11.297 5.375 4.0312 5.375 4.0312 15.094zm8.9844-21.203q0-13.953-6.2031-20.766-6.1875-6.8125-18.984-6.8125-4.7344 0-8.9375 0.70312t-8.1562 2.1719v8.7344q3.9531-2.1406 7.8125-3.1562 3.8594-1.0312 7.8594-1.0312 8.8438 0 13.234 4.6094t4.3906 13.938v4.4531q-2.7812-4.8438-7.125-7.2344t-10.406-2.3906q-10.047 0-16.203 7.6562-6.1562 7.6719-6.1562 20.328 0 12.688 6.1562 20.344 6.1562 7.6719 16.203 7.6719 6.0625 0 10.406-2.3906t7.125-7.2188v8.2969h8.9844z"/>
</defs>
<use xlink:href="#ao"/>
<use x="63.476562" xlink:href="#n"/>
<use x="124.658203" xlink:href="#e"/>
<use x="164.021484" xlink:href="#x"/>
<use x="227.498047" xlink:href="#d"/>
<use x="289.021484" xlink:href="#e"/>
<use x="330.134766" xlink:href="#g"/>
<use x="357.917969" xlink:href="#i"/>
<use x="421.296875" xlink:href="#ay"/>
</g>
</g>
<g clip-path="url(#a)">
<g transform="translate(421.07 562.76) scale(.1 -.1)">
<use xlink:href="#s"/>
<use x="39.208984" xlink:href="#w"/>
<use x="102.587891" xlink:href="#d"/>
</g>
</g>
<g clip-path="url(#a)">
<g transform="translate(474.16 562.76) scale(.1 -.1)">
<use xlink:href="#u"/>
<use x="63.183594" xlink:href="#h"/>
<use x="124.462891" xlink:href="#t"/>
<use x="176.5625" xlink:href="#s"/>
</g>
</g>
<g clip-path="url(#a)">
<g transform="translate(531.39 562.76) scale(.1 -.1)">
<use xlink:href="#p"/>
<use x="69.482422" xlink:href="#g"/>
<use x="97.265625" xlink:href="#ag"/>
<use x="156.445312" xlink:href="#d"/>
<use x="217.96875" xlink:href="#e"/>
</g>
</g>
<g clip-path="url(#a)">
<g transform="translate(605.85 562.76) scale(.1 -.1)">
<use xlink:href="#am"/>
</g>
</g>
<g clip-path="url(#a)">
<g transform="translate(662.07 562.76) scale(.1 -.1)">
<use xlink:href="#r"/>
<use x="81.787109" xlink:href="#d"/>
<use x="143.310547" xlink:href="#e"/>
<use x="182.173828" xlink:href="#d"/>
</g>
</g>
<g clip-path="url(#a)">
<g transform="translate(723.52 562.76) scale(.1 -.1)">
<defs>
<path id="ai" d="m48.781 52.594v-8.4062q-3.8125 2.1094-7.6406 3.1562t-7.7344 1.0469q-8.75 0-13.594-5.5469-4.8281-5.5312-4.8281-15.547t4.8281-15.562q4.8438-5.5312 13.594-5.5312 3.9062 0 7.7344 1.0469t7.6406 3.1562v-8.3125q-3.7656-1.75-7.7969-2.625-4.0156-0.89062-8.5625-0.89062-12.359 0-19.641 7.7656-7.2656 7.7656-7.2656 20.953 0 13.375 7.3438 21.031 7.3594 7.6719 20.156 7.6719 4.1406 0 8.0938-0.85938 3.9531-0.84375 7.6719-2.5469z"/>
</defs>
<use xlink:href="#ai"/>
<use x="54.980469" xlink:href="#e"/>
<use x="93.84375" xlink:href="#n"/>
<use x="155.025391" xlink:href="#r"/>
<use x="236.8125" xlink:href="#x"/>
<use x="300.289062" xlink:href="#d"/>
<use x="361.8125" xlink:href="#x"/>
</g>
</g>
<g clip-path="url(#a)">
<g transform="translate(808.41 562.76) scale(.1 -.1)">
<use xlink:href="#r"/>
<use x="81.787109" xlink:href="#g"/>
<use x="109.570312" xlink:href="#s"/>
<use x="148.779297" xlink:href="#w"/>
</g>
</g>
<g clip-path="url(#a)">
<g transform="translate(875.63 562.76) scale(.1 -.1)">
<defs>
<path id="aw" d="m8.5 21.578v33.109h8.9844v-32.766q0-7.7656 3.0156-11.656 3.0312-3.875 9.0938-3.875 7.2656 0 11.484 4.6406 4.2344 4.6406 4.2344 12.656v31h8.9844v-54.688h-8.9844v8.4062q-3.2656-4.9844-7.5938-7.4062-4.3125-2.4219-10.031-2.4219-9.4219 0-14.312 5.8594-4.875 5.8594-4.875 17.141z"/>
</defs>
<use xlink:href="#ai"/>
<use x="54.980469" xlink:href="#aw"/>
<use x="118.359375" xlink:href="#e"/>
<use x="159.472656" xlink:href="#g"/>
<use x="187.255859" xlink:href="#n"/>
<use x="248.4375" xlink:href="#t"/>
<use x="300.537109" xlink:href="#g"/>
<use x="328.320312" xlink:href="#s"/>
<use x="367.529297" xlink:href="#af"/>
</g>
</g>
<g clip-path="url(#a)">
<g transform="translate(959.42 562.76) scale(.1 -.1)">
<use xlink:href="#t"/>
<use x="52.099609" xlink:href="#d"/>
<use x="113.623047" xlink:href="#d"/>
<use x="175.146484" xlink:href="#ah"/>
<use x="229.431641" xlink:href="#d"/>
<use x="290.955078" xlink:href="#e"/>
<use x="332.068359" xlink:href="#t"/>
</g>
</g>
<g clip-path="url(#a)">
<g transform="translate(1062.4 562.76) scale(.1 -.1)">
<defs>
<path id="f" d="m10.688 12.406h10.312v-12.406h-10.312z"/>
</defs>
<use xlink:href="#f"/>
</g>
</g>
<g clip-path="url(#a)">
<g transform="translate(615.32 29.426) scale(.1 -.1)">
<defs>
<path id="c" d="m12.406 8.2969h16.109v55.625l-17.531-3.5156v8.9844l17.438 3.5156h9.8594v-64.609h16.109v-8.2969h-41.984z"/>
</defs>
<use xlink:href="#c"/>
<use x="63.623047" xlink:href="#f"/>
<use x="95.410156" xlink:href="#c"/>
</g>
</g>
<g clip-path="url(#a)">
<g transform="translate(615.32 119.12) scale(.1 -.1)">
<defs>
<path id="m" d="m19.188 8.2969h34.422v-8.2969h-46.281v8.2969q5.6094 5.8125 15.297 15.594 9.7031 9.7969 12.188 12.641 4.7344 5.3125 6.6094 9 1.8906 3.6875 1.8906 7.25 0 5.8125-4.0781 9.4688-4.0781 3.6719-10.625 3.6719-4.6406 0-9.7969-1.6094-5.1406-1.6094-11-4.8906v9.9688q5.9531 2.3906 11.125 3.6094 5.1875 1.2188 9.4844 1.2188 11.328 0 18.062-5.6719 6.7344-5.6562 6.7344-15.125 0-4.5-1.6875-8.5312-1.6719-4.0156-6.125-9.4844-1.2188-1.4219-7.7656-8.1875-6.5312-6.7656-18.453-18.922z"/>
</defs>
<use xlink:href="#c"/>
<use x="63.623047" xlink:href="#f"/>
<use x="95.410156" xlink:href="#m"/>
</g>
</g>
<g clip-path="url(#a)">
<g transform="translate(142.28 208.64) scale(.1 -.1)">
<defs>
<path id="ad" d="m37.797 64.312-24.906-38.922h24.906zm-2.5938 8.5938h12.406v-47.516h10.406v-8.2031h-10.406v-17.188h-9.8125v17.188h-32.906v9.5156z"/>
</defs>
<use xlink:href="#c"/>
<use x="63.623047" xlink:href="#f"/>
<use x="95.410156" xlink:href="#ad"/>
</g>
</g>
<g clip-path="url(#a)">
<g transform="translate(666.3 475.45) scale(.1 -.1)">
<defs>
<path id="al" d="m10.797 72.906h38.719v-8.3125h-29.688v-17.859q2.1406 0.73438 4.2812 1.0938 2.1562 0.35938 4.3125 0.35938 12.203 0 19.328-6.6875 7.1406-6.6875 7.1406-18.109 0-11.766-7.3281-18.297-7.3281-6.5156-20.656-6.5156-4.5938 0-9.3594 0.78125-4.75 0.78125-9.8281 2.3438v9.9219q4.3906-2.3906 9.0781-3.5625t9.9062-1.1719q8.4531 0 13.375 4.4375 4.9375 4.4375 4.9375 12.062 0 7.6094-4.9375 12.047-4.9219 4.4531-13.375 4.4531-3.9531 0-7.8906-0.875-3.9219-0.875-8.0156-2.7344z"/>
</defs>
<use xlink:href="#c"/>
<use x="63.623047" xlink:href="#f"/>
<use x="95.410156" xlink:href="#al"/>
</g>
</g>
<g clip-path="url(#a)">
<g transform="translate(736.83 475.45) scale(.1 -.1)">
<defs>
<path id="ac" d="m33.016 40.375q-6.6406 0-10.531-4.5469-3.875-4.5312-3.875-12.438 0-7.8594 3.875-12.438 3.8906-4.5625 10.531-4.5625t10.516 4.5625q3.875 4.5781 3.875 12.438 0 7.9062-3.875 12.438-3.875 4.5469-10.516 4.5469zm19.578 30.922v-8.9844q-3.7188 1.75-7.5 2.6719-3.7812 0.9375-7.5 0.9375-9.7656 0-14.922-6.5938-5.1406-6.5938-5.875-19.922 2.875 4.25 7.2188 6.5156 4.3594 2.2656 9.5781 2.2656 10.984 0 17.359-6.6719 6.375-6.6562 6.375-18.125 0-11.234-6.6406-18.031-6.6406-6.7812-17.672-6.7812-12.656 0-19.344 9.6875-6.6875 9.7031-6.6875 28.109 0 17.281 8.2031 27.562t22.016 10.281q3.7188 0 7.5-0.73438t7.8906-2.1875z"/>
</defs>
<use xlink:href="#c"/>
<use x="63.623047" xlink:href="#f"/>
<use x="95.410156" xlink:href="#ac"/>
</g>
</g>
<g clip-path="url(#a)">
<g transform="translate(931.7 386.92) scale(.1 -.1)">
<defs>
<path id="ab" d="m8.2031 72.906h46.875v-4.2031l-26.469-68.703h-10.297l24.906 64.594h-35.016z"/>
</defs>
<use xlink:href="#c"/>
<use x="63.623047" xlink:href="#f"/>
<use x="95.410156" xlink:href="#ab"/>
</g>
</g>
<g clip-path="url(#a)">
<g transform="translate(811.07 475.45) scale(.1 -.1)">
<defs>
<path id="aa" d="m10.984 1.5156v8.9844q3.7188-1.7656 7.5156-2.6875 3.8125-0.92188 7.4844-0.92188 9.7656 0 14.906 6.5625 5.1562 6.5625 5.8906 19.953-2.8281-4.2031-7.1875-6.4531-4.3438-2.25-9.6094-2.25-10.938 0-17.312 6.6094-6.375 6.625-6.375 18.109 0 11.219 6.6406 18 6.6406 6.7969 17.672 6.7969 12.656 0 19.312-9.7031 6.6719-9.6875 6.6719-28.141 0-17.234-8.1875-27.516-8.1719-10.281-21.984-10.281-3.7188 0-7.5312 0.73438-3.7969 0.73438-7.9062 2.2031zm19.625 30.906q6.6406 0 10.516 4.5312 3.8906 4.5469 3.8906 12.469 0 7.8594-3.8906 12.422-3.875 4.5625-10.516 4.5625t-10.516-4.5625-3.875-12.422q0-7.9219 3.875-12.469 3.875-4.5312 10.516-4.5312z"/>
</defs>
<use xlink:href="#c"/>
<use x="63.623047" xlink:href="#f"/>
<use x="95.410156" xlink:href="#aa"/>
</g>
</g>
<g clip-path="url(#a)">
<g transform="translate(885.83 475.45) scale(.1 -.1)">
<defs>
<path id="ae" d="m31.781 66.406q-7.6094 0-11.453-7.5-3.8281-7.4844-3.8281-22.531 0-14.984 3.8281-22.484 3.8438-7.5 11.453-7.5 7.6719 0 11.5 7.5 3.8438 7.5 3.8438 22.484 0 15.047-3.8438 22.531-3.8281 7.5-11.5 7.5zm0 7.8125q12.266 0 18.734-9.7031 6.4688-9.6875 6.4688-28.141 0-18.406-6.4688-28.109-6.4688-9.6875-18.734-9.6875-12.25 0-18.719 9.6875-6.4688 9.7031-6.4688 28.109 0 18.453 6.4688 28.141 6.4688 9.7031 18.719 9.7031z"/>
</defs>
<use xlink:href="#c"/>
<use x="63.623047" xlink:href="#f"/>
<use x="95.410156" xlink:href="#c"/>
<use x="159.033203" xlink:href="#ae"/>
</g>
</g>
<g clip-path="url(#a)">
<g transform="translate(967.49 475.45) scale(.1 -.1)">
<use xlink:href="#c"/>
<use x="63.623047" xlink:href="#f"/>
<use x="95.410156" xlink:href="#c"/>
<use x="159.033203" xlink:href="#c"/>
</g>
</g>
<g clip-path="url(#a)">
<g transform="translate(55 297.93) scale(.1 -.1)">
<use xlink:href="#c"/>
<use x="63.623047" xlink:href="#f"/>
<use x="95.410156" xlink:href="#c"/>
<use x="159.033203" xlink:href="#m"/>
</g>
</g>
<g clip-path="url(#a)">
<g transform="translate(132.33 475.45) scale(.1 -.1)">
<defs>
<path id="q" d="m40.578 39.312q7.0781-1.5156 11.047-6.3125 3.9844-4.7812 3.9844-11.812 0-10.781-7.4219-16.703-7.4219-5.9062-21.094-5.9062-4.5781 0-9.4375 0.90625t-10.031 2.7188v9.5156q4.0938-2.3906 8.9688-3.6094 4.8906-1.2188 10.219-1.2188 9.2656 0 14.125 3.6562t4.8594 10.641q0 6.4531-4.5156 10.078-4.5156 3.6406-12.562 3.6406h-8.5v8.1094h8.8906q7.2656 0 11.125 2.9062t3.8594 8.375q0 5.6094-3.9844 8.6094-3.9688 3.0156-11.391 3.0156-4.0625 0-8.7031-0.89062-4.6406-0.875-10.203-2.7188v8.7812q5.625 1.5625 10.531 2.3438t9.25 0.78125q11.234 0 17.766-5.1094 6.5469-5.0938 6.5469-13.781 0-6.0625-3.4688-10.234t-9.8594-5.7812z"/>
</defs>
<use xlink:href="#c"/>
<use x="63.623047" xlink:href="#f"/>
<use x="95.410156" xlink:href="#c"/>
<use x="159.033203" xlink:href="#q"/>
</g>
</g>
<g clip-path="url(#a)">
<g transform="translate(262.71 297.93) scale(.1 -.1)">
<use xlink:href="#c"/>
<use x="63.623047" xlink:href="#f"/>
<use x="95.410156" xlink:href="#c"/>
<use x="159.033203" xlink:href="#ad"/>
</g>
</g>
<g clip-path="url(#a)">
<g transform="translate(162.02 475.45) scale(.1 -.1)">
<use xlink:href="#c"/>
<use x="63.623047" xlink:href="#f"/>
<use x="95.410156" xlink:href="#c"/>
<use x="159.033203" xlink:href="#ac"/>
</g>
</g>
<g clip-path="url(#a)">
<g transform="translate(195.43 475.45) scale(.1 -.1)">
<use xlink:href="#c"/>
<use x="63.623047" xlink:href="#f"/>
<use x="95.410156" xlink:href="#c"/>
<use x="159.033203" xlink:href="#ab"/>
</g>
</g>
<g clip-path="url(#a)">
<g transform="translate(264.1 386.92) scale(.1 -.1)">
<defs>
<path id="ak" d="m31.781 34.625q-7.0312 0-11.062-3.7656-4.0156-3.7656-4.0156-10.344 0-6.5938 4.0156-10.359 4.0312-3.7656 11.062-3.7656t11.078 3.7812q4.0625 3.7969 4.0625 10.344 0 6.5781-4.0312 10.344-4.0156 3.7656-11.109 3.7656zm-9.8594 4.1875q-6.3438 1.5625-9.8906 5.9062-3.5312 4.3594-3.5312 10.609 0 8.7344 6.2188 13.812 6.2344 5.0781 17.062 5.0781 10.891 0 17.094-5.0781t6.2031-13.812q0-6.25-3.5469-10.609-3.5312-4.3438-9.8281-5.9062 7.125-1.6562 11.094-6.5 3.9844-4.8281 3.9844-11.797 0-10.609-6.4688-16.281-6.4688-5.6562-18.531-5.6562-12.047 0-18.531 5.6562-6.4688 5.6719-6.4688 16.281 0 6.9688 4 11.797 4.0156 4.8438 11.141 6.5zm-3.6094 15.578q0-5.6562 3.5312-8.8281 3.5469-3.1719 9.9375-3.1719 6.3594 0 9.9375 3.1719 3.5938 3.1719 3.5938 8.8281 0 5.6719-3.5938 8.8438-3.5781 3.1719-9.9375 3.1719-6.3906 0-9.9375-3.1719-3.5312-3.1719-3.5312-8.8438z"/>
</defs>
<use xlink:href="#c"/>
<use x="63.623047" xlink:href="#f"/>
<use x="95.410156" xlink:href="#c"/>
<use x="159.033203" xlink:href="#ak"/>
</g>
</g>
<g clip-path="url(#a)">
<g transform="translate(429.28 386.92) scale(.1 -.1)">
<use xlink:href="#c"/>
<use x="63.623047" xlink:href="#f"/>
<use x="95.410156" xlink:href="#c"/>
<use x="159.033203" xlink:href="#aa"/>
</g>
</g>
<g clip-path="url(#a)">
<g transform="translate(366.18 475.45) scale(.1 -.1)">
<use xlink:href="#c"/>
<use x="63.623047" xlink:href="#f"/>
<use x="95.410156" xlink:href="#m"/>
<use x="159.033203" xlink:href="#ae"/>
</g>
</g>
<g clip-path="url(#a)">
<g transform="translate(418.14 475.45) scale(.1 -.1)">
<use xlink:href="#c"/>
<use x="63.623047" xlink:href="#f"/>
<use x="95.410156" xlink:href="#m"/>
<use x="159.033203" xlink:href="#c"/>
</g>
</g>
<g clip-path="url(#a)">
<g transform="translate(503.51 475.45) scale(.1 -.1)">
<use xlink:href="#c"/>
<use x="63.623047" xlink:href="#f"/>
<use x="95.410156" xlink:href="#m"/>
<use x="159.033203" xlink:href="#m"/>
</g>
</g>
<g clip-path="url(#a)">
<g transform="translate(232.55 475.45) scale(.1 -.1)">
<use xlink:href="#c"/>
<use x="63.623047" xlink:href="#f"/>
<use x="95.410156" xlink:href="#m"/>
<use x="159.033203" xlink:href="#q"/>
</g>
</g>
<g clip-path="url(#a)">
<g transform="translate(295.65 475.45) scale(.1 -.1)">
<use xlink:href="#c"/>
<use x="63.623047" xlink:href="#f"/>
<use x="95.410156" xlink:href="#m"/>
<use x="159.033203" xlink:href="#ad"/>
</g>
</g>
<g clip-path="url(#a)">
<g transform="translate(39.534 475.45) scale(.1 -.1)">
<use xlink:href="#c"/>
<use x="63.623047" xlink:href="#f"/>
<use x="95.410156" xlink:href="#m"/>
<use x="159.033203" xlink:href="#al"/>
</g>
</g>
<g clip-path="url(#a)">
<g transform="translate(50.669 475.45) scale(.1 -.1)">
<use xlink:href="#c"/>
<use x="63.623047" xlink:href="#f"/>
<use x="95.410156" xlink:href="#m"/>
<use x="159.033203" xlink:href="#ac"/>
</g>
</g>
<g clip-path="url(#a)">
<g transform="translate(74.796 386.92) scale(.1 -.1)">
<use xlink:href="#c"/>
<use x="63.623047" xlink:href="#f"/>
<use x="95.410156" xlink:href="#m"/>
<use x="159.033203" xlink:href="#ab"/>
</g>
</g>
<g clip-path="url(#a)">
<g transform="translate(65.517 475.45) scale(.1 -.1)">
<use xlink:href="#c"/>
<use x="63.623047" xlink:href="#f"/>
<use x="95.410156" xlink:href="#m"/>
<use x="159.033203" xlink:href="#ak"/>
</g>
</g>
<g clip-path="url(#a)">
<g transform="translate(84.076 475.45) scale(.1 -.1)">
<use xlink:href="#c"/>
<use x="63.623047" xlink:href="#f"/>
<use x="95.410156" xlink:href="#m"/>
<use x="159.033203" xlink:href="#aa"/>
</g>
</g>
<g clip-path="url(#a)">
<g transform="translate(106.35 475.45) scale(.1 -.1)">
<use xlink:href="#c"/>
<use x="63.623047" xlink:href="#f"/>
<use x="95.410156" xlink:href="#q"/>
<use x="159.033203" xlink:href="#ae"/>
</g>
</g>
<g clip-path="url(#a)">
<g transform="translate(596.31 475.45) scale(.1 -.1)">
<use xlink:href="#c"/>
<use x="63.623047" xlink:href="#f"/>
<use x="95.410156" xlink:href="#q"/>
<use x="159.033203" xlink:href="#c"/>
</g>
</g>
<g clip-path="url(#a)">
<g transform="translate(1052.9 475.45) scale(.1 -.1)">
<use xlink:href="#c"/>
<use x="63.623047" xlink:href="#f"/>
<use x="95.410156" xlink:href="#q"/>
<use x="159.033203" xlink:href="#m"/>
</g>
</g>
<defs>
<clipPath id="a">
<rect width="1114.7" height="586.67"/>
</clipPath>
</defs>
</svg>
