<?xml version="1.0" encoding="UTF-8"?>
<!DOCTYPE svg  PUBLIC '-//W3C//DTD SVG 1.1//EN'  'http://www.w3.org/Graphics/SVG/1.1/DTD/svg11.dtd'>
<svg width="1469.3pt" height="773.33pt" version="1.1" viewBox="0 0 1469.3 773.33" xmlns="http://www.w3.org/2000/svg" xmlns:xlink="http://www.w3.org/1999/xlink">
<metadata>
<rdf:RDF xmlns:cc="http://creativecommons.org/ns#" xmlns:dc="http://purl.org/dc/elements/1.1/" xmlns:rdf="http://www.w3.org/1999/02/22-rdf-syntax-ns#">
<cc:Work>
<dc:type rdf:resource="http://purl.org/dc/dcmitype/StillImage"/>
<dc:date>2021-03-03T07:09:48.393590</dc:date>
<dc:format>image/svg+xml</dc:format>
<dc:creator>
<cc:Agent>
<dc:title>Matplotlib v3.3.3, https://matplotlib.org/</dc:title>
</cc:Agent>
</dc:creator>
</cc:Work>
</rdf:RDF>
</metadata>
<defs>
<style type="text/css">*{stroke-linecap:butt;stroke-linejoin:round;}</style>
</defs>
<path d="m0 773.33h1469.3v-773.33h-1469.3z" fill="#fff"/>
<g fill="none" stroke="#000">
<path d="m133.54 35.152v88.7" clip-path="url(#a)"/>
<path d="m133.54 123.85-56.631 440.99" clip-path="url(#a)"/>
<path d="m133.54 123.85-58.076 528.26" clip-path="url(#a)"/>
<path d="m133.54 123.85-23.381 440.99" clip-path="url(#a)"/>
<path d="m133.54 123.85 5.5311 528.26" clip-path="url(#a)"/>
<path d="m133.54 123.85 132.56 88.573" clip-path="url(#a)"/>
<path d="m76.907 564.84-10.119 87.268" clip-path="url(#a)"/>
<path d="m76.907 564.84 10.119 87.268" clip-path="url(#a)"/>
<path d="m75.462 652.11v86.07" clip-path="url(#a)"/>
<path d="m110.16 564.84-8.6738 87.268" clip-path="url(#a)"/>
<path d="m110.16 564.84 8.6738 87.268" clip-path="url(#a)"/>
<path d="m139.07 652.11v86.07" clip-path="url(#a)"/>
<path d="m266.1 212.42-103.9 439.69" clip-path="url(#a)"/>
<path d="m266.1 212.42 181.77 88.424" clip-path="url(#a)"/>
<path d="m266.1 212.42-77.875 439.69" clip-path="url(#a)"/>
<path d="m162.2 652.11v86.07" clip-path="url(#a)"/>
<path d="m447.87 300.85-230.73 351.26" clip-path="url(#a)"/>
<path d="m447.87 300.85-158.69 88.247" clip-path="url(#a)"/>
<path d="m447.87 300.85 159.58 351.26" clip-path="url(#a)"/>
<path d="m447.87 300.85 229.84 88.247" clip-path="url(#a)"/>
<path d="m217.13 652.11v86.07" clip-path="url(#a)"/>
<path d="m289.17 389.09-126.97 263.02" clip-path="url(#a)" stroke-dasharray="3.7,1.6"/>
<path d="m289.17 389.09-40.237 263.02" clip-path="url(#a)"/>
<path d="m289.17 389.09-5.5416 263.02" clip-path="url(#a)"/>
<path d="m289.17 389.09 32.045 263.02" clip-path="url(#a)"/>
<path d="m289.17 389.09 140.71 88.024" clip-path="url(#a)"/>
<path d="m607.45 652.11v86.07" clip-path="url(#a)"/>
<path d="m677.71 389.09-515.51 263.02" clip-path="url(#a)" stroke-dasharray="3.7,1.6"/>
<path d="m677.71 389.09-12.432 263.02" clip-path="url(#a)"/>
<path d="m677.71 389.09 112.86 263.02" clip-path="url(#a)"/>
<path d="m677.71 389.09 415.09 88.024" clip-path="url(#a)"/>
<path d="m665.28 652.11v86.07" clip-path="url(#a)"/>
<path d="m790.56 652.11-64.571 86.07" clip-path="url(#a)"/>
<path d="m790.56 652.11-0.96375 86.07" clip-path="url(#a)"/>
<path d="m790.56 652.11 65.535 86.07" clip-path="url(#a)"/>
<path d="m1092.8 477.12-167.31 174.99" clip-path="url(#a)"/>
<path d="m1092.8 477.12-95.026 174.99" clip-path="url(#a)"/>
<path d="m1092.8 477.12-19.853 174.99" clip-path="url(#a)"/>
<path d="m1092.8 477.12 58.211 174.99" clip-path="url(#a)"/>
<path d="m1092.8 477.12 223.98 87.725" clip-path="url(#a)"/>
<path d="m925.49 652.11v86.07" clip-path="url(#a)"/>
<path d="m997.77 652.11v86.07" clip-path="url(#a)"/>
<path d="m1072.9 652.11v86.07" clip-path="url(#a)"/>
<path d="m1151 652.11v86.07" clip-path="url(#a)"/>
<path d="m1316.8 564.84-84.81 87.268" clip-path="url(#a)"/>
<path d="m1316.8 564.84-0.96375 87.268" clip-path="url(#a)"/>
<path d="m1316.8 564.84 85.774 87.268" clip-path="url(#a)"/>
<path d="m1232 652.11v86.07" clip-path="url(#a)"/>
<path d="m1315.8 652.11v86.07" clip-path="url(#a)"/>
<path d="m248.94 652.11v86.07" clip-path="url(#a)"/>
<path d="m283.63 652.11v86.07" clip-path="url(#a)"/>
<path d="m321.22 652.11v86.07" clip-path="url(#a)"/>
<path d="m429.88 477.12-68.185 174.99" clip-path="url(#a)"/>
<path d="m429.88 477.12-24.817 174.99" clip-path="url(#a)"/>
<path d="m429.88 477.12 21.443 174.99" clip-path="url(#a)"/>
<path d="m429.88 477.12 71.558 87.725" clip-path="url(#a)"/>
<path d="m361.7 652.11v86.07" clip-path="url(#a)"/>
<path d="m405.06 652.11v86.07" clip-path="url(#a)"/>
<path d="m451.32 652.11v86.07" clip-path="url(#a)"/>
<path d="m501.44 564.84-50.115 87.268" clip-path="url(#a)" stroke-dasharray="3.7,1.6"/>
<path d="m501.44 564.84-0.96375 87.268" clip-path="url(#a)"/>
<path d="m501.44 564.84 51.079 87.268" clip-path="url(#a)"/>
<path d="m500.48 652.11v86.07" clip-path="url(#a)"/>
<path d="m552.52 652.11v86.07" clip-path="url(#a)"/>
<path d="m101.48 652.11v86.07" clip-path="url(#a)"/>
<path d="m118.83 652.11v86.07" clip-path="url(#a)"/>
<path d="m66.788 652.11v86.07" clip-path="url(#a)"/>
<path d="m87.027 652.11v86.07" clip-path="url(#a)"/>
<path d="m188.22 652.11v86.07" clip-path="url(#a)"/>
<path d="m1402.5 652.11v86.07" clip-path="url(#a)"/>
</g>
<path d="m127.27 76.493v6.0162q0 2.4 2.4 2.4h7.7425q2.4 0 2.4-2.4v-6.0162q0-2.4-2.4-2.4h-7.7425q-2.4 0-2.4 2.4z" clip-path="url(#a)" fill="#fff" stroke="#fff"/>
<g clip-path="url(#a)">
<g transform="translate(131.33 76.493) rotate(90) scale(.08 -.08)">
<defs>
<path id="af" d="m9.8125 72.906h9.8594v-29.891h35.844v29.891h9.8594v-72.906h-9.8594v34.719h-35.844v-34.719h-9.8594z"/>
</defs>
<use xlink:href="#af"/>
</g>
</g>
<path d="m111.12 347.67 0.64688-5.0374q0.30569-2.3805-2.0748-2.6861l-7.6794-0.98617q-2.3805-0.30569-2.6861 2.0748l-0.64688 5.0374q-0.30569 2.3805 2.0748 2.6861l7.6794 0.98617q2.3805 0.30569 2.6861-2.0748z" clip-path="url(#a)" fill="#fff" stroke="#fff"/>
<g clip-path="url(#a)">
<g transform="translate(107.09 347.15) rotate(-82.682) scale(.08 -.08)">
<defs>
<path id="ae" d="m53.516 70.516v-9.625q-5.6094 2.6875-10.594 4-4.9844 1.3281-9.625 1.3281-8.0469 0-12.422-3.125t-4.375-8.8906q0-4.8438 2.9062-7.3125 2.9062-2.4531 11.016-3.9688l5.9531-1.2188q11.031-2.1094 16.281-7.4062t5.25-14.172q0-10.609-7.1094-16.078-7.0938-5.4688-20.812-5.4688-5.1719 0-11.016 1.1719-5.8281 1.1719-12.078 3.4688v10.156q6-3.3594 11.766-5.0781 5.7656-1.7031 11.328-1.7031 8.4375 0 13.031 3.3125 4.5938 3.3281 4.5938 9.4844 0 5.3594-3.2969 8.3906t-10.812 4.5469l-6.0156 1.1719q-11.031 2.1875-15.969 6.875-4.9219 4.6875-4.9219 13.047 0 9.6719 6.8125 15.234t18.766 5.5625q5.1406 0 10.453-0.9375 5.3281-0.92188 10.891-2.7656z"/>
</defs>
<use xlink:href="#ae"/>
</g>
</g>
<path d="m110.4 391.73 0.67317-6.1231q0.26227-2.3856-2.1234-2.6479l-7.6961-0.8461q-2.3856-0.26227-2.6479 2.1234l-0.67317 6.1231q-0.26227 2.3856 2.1234 2.6479l7.6961 0.8461q2.3856 0.26227 2.6479-2.1234z" clip-path="url(#a)" fill="#fff" stroke="#fff"/>
<g clip-path="url(#a)">
<g transform="translate(106.36 391.28) rotate(-83.726) scale(.08 -.08)">
<defs>
<path id="an" d="m19.672 64.797v-56.688h11.922q15.094 0 22.094 6.8281 7 6.8438 7 21.594 0 14.641-7 21.453t-22.094 6.8125zm-9.8594 8.1094h20.266q21.188 0 31.094-8.8125 9.9219-8.8125 9.9219-27.562 0-18.859-9.9688-27.703-9.9531-8.8281-31.047-8.8281h-20.266z"/>
</defs>
<use xlink:href="#an"/>
</g>
</g>
<path d="m127.96 347.41 0.28974-5.4648q0.12707-2.3966-2.2696-2.5237l-7.7316-0.40993q-2.3966-0.12707-2.5237 2.2696l-0.28974 5.4648q-0.12707 2.3966 2.2696 2.5237l7.7316 0.40993q2.3966 0.12707 2.5237-2.2696z" clip-path="url(#a)" fill="#fff" stroke="#fff"/>
<g clip-path="url(#a)">
<g transform="translate(123.91 347.2) rotate(-86.965) scale(.08 -.08)">
<defs>
<path id="q" d="m34.188 63.188-13.391-36.281h26.812zm-5.5781 9.7188h11.188l27.781-72.906h-10.25l-6.6406 18.703h-32.859l-6.6406-18.703h-10.406z"/>
</defs>
<use xlink:href="#q"/>
</g>
</g>
<path d="m130.01 385.75 0.048175 4.601q0.025127 2.3999 2.425 2.3747l7.7421-0.081063q2.3999-0.025127 2.3747-2.425l-0.048174-4.601q-0.025128-2.3999-2.425-2.3747l-7.7421 0.081063q-2.3999 0.025127-2.3747 2.425z" clip-path="url(#a)" fill="#fff" stroke="#fff"/>
<g clip-path="url(#a)">
<g transform="translate(134.07 385.7) rotate(89.4) scale(.08 -.08)">
<defs>
<path id="x" d="m9.8125 72.906h41.891v-8.3125h-32.031v-21.484h28.906v-8.2969h-28.906v-34.812h-9.8594z"/>
</defs>
<use xlink:href="#x"/>
</g>
</g>
<path d="m194.06 171.83 4.5502 3.0404q1.9955 1.3334 3.3289-0.66215l4.3015-6.4376q1.3334-1.9955-0.66215-3.3289l-4.5502-3.0404q-1.9955-1.3334-3.3289 0.66215l-4.3015 6.4376q-1.3334 1.9955 0.66215 3.3289z" clip-path="url(#a)" fill="#fff" stroke="#fff"/>
<g clip-path="url(#a)">
<g transform="translate(196.32 168.45) rotate(33.75) scale(.08 -.08)">
<use xlink:href="#q"/>
</g>
</g>
<path d="m77.812 611.49 0.53-4.5706q0.27645-2.384-2.1076-2.6605l-7.691-0.89183q-2.384-0.27645-2.6605 2.1076l-0.53 4.5706q-0.27645 2.384 2.1076 2.6605l7.691 0.89183q2.384 0.27645 2.6605-2.1076z" clip-path="url(#a)" fill="#fff" stroke="#fff"/>
<g clip-path="url(#a)">
<g transform="translate(73.775 611.02) rotate(-83.386) scale(.08 -.08)">
<use xlink:href="#x"/>
</g>
</g>
<path d="m75.416 606.43 0.64346 5.5491q0.27645 2.384 2.6605 2.1076l7.691-0.89183q2.384-0.27645 2.1076-2.6605l-0.64346-5.5491q-0.27645-2.384-2.6605-2.1076l-7.691 0.89183q-2.384 0.27645-2.1076 2.6605z" clip-path="url(#a)" fill="#fff" stroke="#fff"/>
<g clip-path="url(#a)">
<g transform="translate(79.452 605.96) rotate(83.386) scale(.08 -.08)">
<defs>
<path id="t" d="m64.406 67.281v-10.391q-4.9844 4.6406-10.625 6.9219-5.6406 2.2969-11.984 2.2969-12.5 0-19.141-7.6406t-6.6406-22.094q0-14.406 6.6406-22.047t19.141-7.6406q6.3438 0 11.984 2.2969t10.625 6.9375v-10.312q-5.1719-3.5156-10.969-5.2812-5.7812-1.75-12.219-1.75-16.562 0-26.094 10.125-9.5156 10.141-9.5156 27.672 0 17.578 9.5156 27.703 9.5312 10.141 26.094 10.141 6.5312 0 12.312-1.7344 5.7969-1.7344 10.875-5.2031z"/>
</defs>
<use xlink:href="#t"/>
</g>
</g>
<path d="m69.19 678.24v33.808q0 2.4 2.4 2.4h7.7425q2.4 0 2.4-2.4v-33.808q0-2.4-2.4-2.4h-7.7425q-2.4 0-2.4 2.4z" clip-path="url(#a)" fill="#fff" stroke="#fff"/>
<g clip-path="url(#a)">
<g transform="translate(73.254 678.24) rotate(90) scale(.08 -.08)">
<defs>
<path id="l" d="m-0.29688 72.906h61.672v-8.3125h-25.875v-64.594h-9.9062v64.594h-25.891z"/>
<path id="d" d="m56.203 29.594v-4.3906h-41.312q0.59375-9.2812 5.5938-14.141t13.938-4.8594q5.1719 0 10.031 1.2656t9.6562 3.8125v-8.5q-4.8438-2.0469-9.9219-3.125t-10.297-1.0781q-13.094 0-20.734 7.6094-7.6406 7.625-7.6406 20.625 0 13.422 7.25 21.297 7.25 7.8906 19.562 7.8906 11.031 0 17.453-7.1094 6.4219-7.0938 6.4219-19.297zm-8.9844 2.6406q-0.09375 7.3594-4.125 11.75-4.0312 4.4062-10.672 4.4062-7.5156 0-12.031-4.25t-5.2031-11.969z"/>
<path id="i" d="m41.109 46.297q-1.5156 0.875-3.2969 1.2812-1.7812 0.42188-3.9219 0.42188-7.625 0-11.703-4.9531t-4.0781-14.234v-28.812h-9.0312v54.688h9.0312v-8.5q2.8438 4.9844 7.375 7.3906 4.5469 2.4219 11.047 2.4219 0.92188 0 2.0469-0.125 1.125-0.10938 2.4844-0.35938z"/>
<path id="k" d="m52 44.188q3.375 6.0625 8.0625 8.9375t11.031 2.875q8.5469 0 13.188-5.9844 4.6406-5.9688 4.6406-17v-33.016h-9.0312v32.719q0 7.8594-2.7969 11.656-2.7812 3.8125-8.4844 3.8125-6.9844 0-11.047-4.6406-4.0469-4.625-4.0469-12.641v-30.906h-9.0312v32.719q0 7.9062-2.7812 11.688t-8.5938 3.7812q-6.8906 0-10.953-4.6562-4.0469-4.6562-4.0469-12.625v-30.906h-9.0312v54.688h9.0312v-8.5q3.0781 5.0312 7.375 7.4219t10.203 2.3906q5.9688 0 10.141-3.0312 4.1719-3.0156 6.1719-8.7812z"/>
<path id="g" d="m9.4219 54.688h8.9844v-54.688h-8.9844zm0 21.297h8.9844v-11.391h-8.9844z"/>
<path id="e" d="m54.891 33.016v-33.016h-8.9844v32.719q0 7.7656-3.0312 11.609-3.0312 3.8594-9.0781 3.8594-7.2812 0-11.484-4.6406-4.2031-4.625-4.2031-12.641v-30.906h-9.0312v54.688h9.0312v-8.5q3.2344 4.9375 7.5938 7.375 4.375 2.4375 10.094 2.4375 9.4219 0 14.25-5.8281 4.8438-5.8281 4.8438-17.156z"/>
<path id="h" d="m34.281 27.484q-10.891 0-15.094-2.4844t-4.2031-8.5q0-4.7812 3.1562-7.5938 3.1562-2.7969 8.5625-2.7969 7.4844 0 12 5.2969t4.5156 14.078v2zm17.922 3.7188v-31.203h-8.9844v8.2969q-3.0781-4.9688-7.6719-7.3438t-11.234-2.375q-8.3906 0-13.359 4.7188-4.9531 4.7188-4.9531 12.625 0 9.2188 6.1719 13.906 6.1875 4.6875 18.438 4.6875h12.609v0.89062q0 6.2031-4.0781 9.5938t-11.453 3.3906q-4.6875 0-9.1406-1.125-4.4375-1.125-8.5312-3.375v8.3125q4.9219 1.9062 9.5625 2.8438 4.6406 0.95312 9.0312 0.95312 11.875 0 17.734-6.1562 5.8594-6.1406 5.8594-18.641z"/>
<path id="j" d="m9.4219 75.984h8.9844v-75.984h-8.9844z"/>
</defs>
<use xlink:href="#l"/>
<use x="44.083984" xlink:href="#d"/>
<use x="105.607422" xlink:href="#i"/>
<use x="144.970703" xlink:href="#k"/>
<use x="242.382812" xlink:href="#g"/>
<use x="270.166016" xlink:href="#e"/>
<use x="333.544922" xlink:href="#h"/>
<use x="394.824219" xlink:href="#j"/>
</g>
</g>
<path d="m111.79 611.86 0.54979-5.5315q0.23737-2.3882-2.1509-2.6256l-7.7045-0.76577q-2.3882-0.23737-2.6256 2.1509l-0.54979 5.5315q-0.23737 2.3882 2.1509 2.6256l7.7045 0.76577q2.3882 0.23737 2.6256-2.1509z" clip-path="url(#a)" fill="#fff" stroke="#fff"/>
<g clip-path="url(#a)">
<g transform="translate(107.74 611.46) rotate(-84.324) scale(.08 -.08)">
<defs>
<path id="w" d="m44.391 34.188q3.1719-1.0781 6.1719-4.5938t6.0312-9.6719l10.016-19.922h-10.609l-9.3125 18.703q-3.625 7.3281-7.0156 9.7188t-9.25 2.3906h-10.75v-30.812h-9.8594v72.906h22.266q12.5 0 18.656-5.2344 6.1562-5.2188 6.1562-15.766 0-6.8906-3.2031-11.438-3.2031-4.5312-9.2969-6.2812zm-24.719 30.609v-25.875h12.406q7.125 0 10.766 3.2969t3.6406 9.6875-3.6406 9.6406-10.766 3.25z"/>
</defs>
<use xlink:href="#w"/>
</g>
</g>
<path d="m107.98 606.32 0.55251 5.5589q0.23737 2.3882 2.6256 2.1509l7.7045-0.76577q2.3882-0.23737 2.1509-2.6256l-0.55251-5.5589q-0.23737-2.3882-2.6256-2.1509l-7.7045 0.76577q-2.3882 0.23737-2.1509 2.6256z" clip-path="url(#a)" fill="#fff" stroke="#fff"/>
<g clip-path="url(#a)">
<g transform="translate(112.02 605.92) rotate(84.324) scale(.08 -.08)">
<use xlink:href="#t"/>
</g>
</g>
<path d="m132.8 678.24v33.808q0 2.4 2.4 2.4h7.7425q2.4 0 2.4-2.4v-33.808q0-2.4-2.4-2.4h-7.7425q-2.4 0-2.4 2.4z" clip-path="url(#a)" fill="#fff" stroke="#fff"/>
<g clip-path="url(#a)">
<g transform="translate(136.86 678.24) rotate(90) scale(.08 -.08)">
<use xlink:href="#l"/>
<use x="44.083984" xlink:href="#d"/>
<use x="105.607422" xlink:href="#i"/>
<use x="144.970703" xlink:href="#k"/>
<use x="242.382812" xlink:href="#g"/>
<use x="270.166016" xlink:href="#e"/>
<use x="333.544922" xlink:href="#h"/>
<use x="394.824219" xlink:href="#j"/>
</g>
</g>
<path d="m219.61 436.43 1.2846-5.4365q0.55191-2.3357-1.7838-2.8876l-7.535-1.7805q-2.3357-0.55191-2.8876 1.7838l-1.2846 5.4365q-0.55191 2.3357 1.7838 2.8876l7.535 1.7805q2.3357 0.55191 2.8876-1.7838z" clip-path="url(#a)" fill="#fff" stroke="#fff"/>
<g clip-path="url(#a)">
<g transform="translate(215.65 435.49) rotate(-76.705) scale(.08 -.08)">
<use xlink:href="#t"/>
</g>
</g>
<path d="m351.96 261.17 4.5457 2.2113q2.1582 1.0499 3.2081-1.1083l3.3869-6.9624q1.0499-2.1582-1.1083-3.2081l-4.5457-2.2113q-2.1582-1.0499-3.2081 1.1083l-3.3869 6.9624q-1.0499 2.1582 1.1083 3.2081z" clip-path="url(#a)" fill="#fff" stroke="#fff"/>
<g clip-path="url(#a)">
<g transform="translate(353.74 257.52) rotate(25.941) scale(.08 -.08)">
<defs>
<path id="am" d="m9.8125 72.906h46.094v-8.3125h-36.234v-21.578h34.719v-8.2969h-34.719v-26.422h37.109v-8.2969h-46.969z"/>
</defs>
<use xlink:href="#am"/>
</g>
</g>
<path d="m232.82 436.24 1.0211-5.7653q0.41856-2.3632-1.9447-2.7818l-7.6238-1.3503q-2.3632-0.41856-2.7818 1.9447l-1.0211 5.7653q-0.41856 2.3632 1.9447 2.7818l7.6238 1.3503q2.3632 0.41856 2.7818-1.9447z" clip-path="url(#a)" fill="#fff" stroke="#fff"/>
<g clip-path="url(#a)">
<g transform="translate(228.82 435.54) rotate(-79.956) scale(.08 -.08)">
<defs>
<path id="ak" d="m8.6875 72.906h9.9219v-44.297q0-11.719 4.2344-16.875 4.25-5.1406 13.781-5.1406 9.4688 0 13.719 5.1406 4.25 5.1562 4.25 16.875v44.297h9.9062v-45.516q0-14.25-7.0625-21.531-7.0469-7.2812-20.812-7.2812-13.828 0-20.891 7.2812-7.0469 7.2812-7.0469 21.531z"/>
</defs>
<use xlink:href="#ak"/>
</g>
</g>
<path d="m155.93 678.24v33.808q0 2.4 2.4 2.4h7.7425q2.4 0 2.4-2.4v-33.808q0-2.4-2.4-2.4h-7.7425q-2.4 0-2.4 2.4z" clip-path="url(#a)" fill="#fff" stroke="#fff"/>
<g clip-path="url(#a)">
<g transform="translate(159.99 678.24) rotate(90) scale(.08 -.08)">
<use xlink:href="#l"/>
<use x="44.083984" xlink:href="#d"/>
<use x="105.607422" xlink:href="#i"/>
<use x="144.970703" xlink:href="#k"/>
<use x="242.382812" xlink:href="#g"/>
<use x="270.166016" xlink:href="#e"/>
<use x="333.544922" xlink:href="#h"/>
<use x="394.824219" xlink:href="#j"/>
</g>
</g>
<path d="m336.22 482.25 3.0519-4.6461q1.3176-2.0059-0.6883-3.3236l-6.4713-4.2508q-2.0059-1.3176-3.3236 0.6883l-3.0519 4.6461q-1.3176 2.0059 0.6883 3.3236l6.4713 4.2508q2.0059 1.3176 3.3236-0.6883z" clip-path="url(#a)" fill="#fff" stroke="#fff"/>
<g clip-path="url(#a)">
<g transform="translate(332.82 480.01) rotate(-56.7) scale(.08 -.08)">
<use xlink:href="#w"/>
</g>
</g>
<path d="m368.94 351.91 5.258-2.9239q2.0975-1.1664 0.93112-3.2639l-3.7628-6.7666q-1.1664-2.0975-3.2639-0.93112l-5.258 2.9239q-2.0975 1.1664-0.93112 3.2639l3.7628 6.7666q1.1664 2.0975 3.2639 0.93112z" clip-path="url(#a)" fill="#fff" stroke="#fff"/>
<g clip-path="url(#a)">
<g transform="translate(366.96 348.36) rotate(-29.078) scale(.08 -.08)">
<use xlink:href="#af"/>
</g>
</g>
<path d="m521.03 477.04 1.8438 4.0583q0.99271 2.1851 3.1778 1.1924l7.0491-3.2025q2.1851-0.99271 1.1924-3.1778l-1.8438-4.0583q-0.99271-2.1851-3.1778-1.1924l-7.0491 3.2025q-2.1851 0.99271-1.1924 3.1778z" clip-path="url(#a)" fill="#fff" stroke="#fff"/>
<g clip-path="url(#a)">
<g transform="translate(524.73 475.36) rotate(65.567) scale(.08 -.08)">
<defs>
<path id="ap" d="m9.8125 72.906h9.8594v-64.609h35.5v-8.2969h-45.359z"/>
</defs>
<use xlink:href="#ap"/>
</g>
</g>
<path d="m557.73 349.75 5.6165 2.1564q2.2405 0.86024 3.1008-1.3803l2.7752-7.2281q0.86024-2.2405-1.3803-3.1008l-5.6165-2.1564q-2.2405-0.86024-3.1008 1.3803l-2.7752 7.2281q-0.86024 2.2405 1.3803 3.1008z" clip-path="url(#a)" fill="#fff" stroke="#fff"/>
<g clip-path="url(#a)">
<g transform="translate(559.19 345.95) rotate(21.004) scale(.08 -.08)">
<use xlink:href="#af"/>
</g>
</g>
<path d="m210.86 678.24v33.808q0 2.4 2.4 2.4h7.7425q2.4 0 2.4-2.4v-33.808q0-2.4-2.4-2.4h-7.7425q-2.4 0-2.4 2.4z" clip-path="url(#a)" fill="#fff" stroke="#fff"/>
<g clip-path="url(#a)">
<g transform="translate(214.93 678.24) rotate(90) scale(.08 -.08)">
<use xlink:href="#l"/>
<use x="44.083984" xlink:href="#d"/>
<use x="105.607422" xlink:href="#i"/>
<use x="144.970703" xlink:href="#k"/>
<use x="242.382812" xlink:href="#g"/>
<use x="270.166016" xlink:href="#e"/>
<use x="333.544922" xlink:href="#h"/>
<use x="394.824219" xlink:href="#j"/>
</g>
</g>
<path d="m230.14 525.79 2.3792-4.9283q1.0434-2.1613-1.1179-3.2047l-6.9725-3.3661q-2.1613-1.0434-3.2047 1.1179l-2.3792 4.9283q-1.0434 2.1613 1.1179 3.2047l6.9725 3.3661q2.1613 1.0434 3.2047-1.1179z" clip-path="url(#a)" fill="#fff" stroke="#fff"/>
<g clip-path="url(#a)">
<g transform="translate(226.48 524.03) rotate(-64.231) scale(.08 -.08)">
<use xlink:href="#q"/>
</g>
</g>
<path d="m274.79 524.62 0.93738-6.1275q0.36293-2.3724-2.0095-2.7353l-7.6535-1.1708q-2.3724-0.36293-2.7353 2.0095l-0.93738 6.1275q-0.36293 2.3724 2.0095 2.7353l7.6535 1.1708q2.3724 0.36293 2.7353-2.0095z" clip-path="url(#a)" fill="#fff" stroke="#fff"/>
<g clip-path="url(#a)">
<g transform="translate(270.77 524) rotate(-81.302) scale(.08 -.08)">
<defs>
<path id="aq" d="m59.516 10.406v19.578h-16.109v8.1094h25.875v-31.312q-5.7031-4.0469-12.594-6.125-6.875-2.0781-14.688-2.0781-17.094 0-26.75 9.9844-9.6406 10-9.6406 27.812 0 17.875 9.6406 27.859 9.6562 9.9844 26.75 9.9844 7.125 0 13.547-1.7656 6.4219-1.75 11.844-5.1719v-10.5q-5.4688 4.6406-11.625 6.9844t-12.938 2.3438q-13.391 0-20.109-7.4688-6.7031-7.4688-6.7031-22.266 0-14.75 6.7031-22.219 6.7188-7.4688 20.109-7.4688 5.2188 0 9.3125 0.90625 4.1094 0.90625 7.375 2.8125z"/>
</defs>
<use xlink:href="#aq"/>
</g>
</g>
<path d="m292.61 523.81 0.12976-6.1586q0.050555-2.3995-2.3489-2.45l-7.7408-0.16309q-2.3995-0.050555-2.45 2.3489l-0.12976 6.1586q-0.050555 2.3995 2.3489 2.45l7.7408 0.16309q2.3995 0.050555 2.45-2.3489z" clip-path="url(#a)" fill="#fff" stroke="#fff"/>
<g clip-path="url(#a)">
<g transform="translate(288.54 523.73) rotate(-88.793) scale(.08 -.08)">
<use xlink:href="#an"/>
</g>
</g>
<path d="m298.66 518.84 0.61423 5.0415q0.29026 2.3824 2.6726 2.0921l7.6857-0.93638q2.3824-0.29026 2.0921-2.6726l-0.61423-5.0415q-0.29026-2.3824-2.6726-2.0921l-7.6857 0.93638q-2.3824 0.29026-2.0921 2.6726z" clip-path="url(#a)" fill="#fff" stroke="#fff"/>
<g clip-path="url(#a)">
<g transform="translate(302.7 518.35) rotate(83.054) scale(.08 -.08)">
<use xlink:href="#ae"/>
</g>
</g>
<path d="m353.88 436.97 4.6395 2.9024q2.0347 1.2728 3.3075-0.76182l4.1063-6.5639q1.2728-2.0347-0.76182-3.3075l-4.6395-2.9024q-2.0347-1.2728-3.3075 0.76182l-4.1063 6.5639q-1.2728 2.0347 0.76182 3.3075z" clip-path="url(#a)" fill="#fff" stroke="#fff"/>
<g clip-path="url(#a)">
<g transform="translate(356.04 433.53) rotate(32.029) scale(.08 -.08)">
<use xlink:href="#q"/>
</g>
</g>
<path d="m601.18 678.24v33.808q0 2.4 2.4 2.4h7.7425q2.4 0 2.4-2.4v-33.808q0-2.4-2.4-2.4h-7.7425q-2.4 0-2.4 2.4z" clip-path="url(#a)" fill="#fff" stroke="#fff"/>
<g clip-path="url(#a)">
<g transform="translate(605.24 678.24) rotate(90) scale(.08 -.08)">
<use xlink:href="#l"/>
<use x="44.083984" xlink:href="#d"/>
<use x="105.607422" xlink:href="#i"/>
<use x="144.970703" xlink:href="#k"/>
<use x="242.382812" xlink:href="#g"/>
<use x="270.166016" xlink:href="#e"/>
<use x="333.544922" xlink:href="#h"/>
<use x="394.824219" xlink:href="#j"/>
</g>
</g>
<path d="m420.37 527.43 4.8747-2.4871q2.1378-1.0907 1.0471-3.2286l-3.5188-6.8967q-1.0907-2.1378-3.2286-1.0471l-4.8747 2.4871q-2.1378 1.0907-1.0471 3.2286l3.5188 6.8967q1.0907 2.1378 3.2286 1.0471z" clip-path="url(#a)" fill="#fff" stroke="#fff"/>
<g clip-path="url(#a)">
<g transform="translate(418.52 523.81) rotate(-27.031) scale(.08 -.08)">
<use xlink:href="#q"/>
</g>
</g>
<path d="m677.65 523.2 0.21725-4.5961q0.11332-2.3973-2.284-2.5106l-7.7339-0.36557q-2.3973-0.11332-2.5106 2.284l-0.21725 4.5961q-0.11332 2.3973 2.284 2.5106l7.7339 0.36557q2.3973 0.11332 2.5106-2.284z" clip-path="url(#a)" fill="#fff" stroke="#fff"/>
<g clip-path="url(#a)">
<g transform="translate(673.59 523.01) rotate(-87.294) scale(.08 -.08)">
<use xlink:href="#x"/>
</g>
</g>
<path d="m727.37 520.74 2.0026 4.6672q0.94635 2.2055 3.1519 1.2592l7.1152-3.053q2.2055-0.94635 1.2592-3.1519l-2.0026-4.6672q-0.94635-2.2055-3.1519-1.2592l-7.1152 3.053q-2.2055 0.94635-1.2592 3.1519z" clip-path="url(#a)" fill="#fff" stroke="#fff"/>
<g clip-path="url(#a)">
<g transform="translate(731.11 519.14) rotate(66.777) scale(.08 -.08)">
<use xlink:href="#ae"/>
</g>
</g>
<path d="m881.27 438.67 5.3535 1.1353q2.3478 0.49788 2.8457-1.8499l1.6062-7.5741q0.49788-2.3478-1.8499-2.8457l-5.3535-1.1353q-2.3478-0.49788-2.8457 1.8499l-1.6062 7.5741q-0.49788 2.3478 1.8499 2.8457z" clip-path="url(#a)" fill="#fff" stroke="#fff"/>
<g clip-path="url(#a)">
<g transform="translate(882.12 434.7) rotate(11.973) scale(.08 -.08)">
<use xlink:href="#q"/>
</g>
</g>
<path d="m659.01 678.24v33.808q0 2.4 2.4 2.4h7.7425q2.4 0 2.4-2.4v-33.808q0-2.4-2.4-2.4h-7.7425q-2.4 0-2.4 2.4z" clip-path="url(#a)" fill="#fff" stroke="#fff"/>
<g clip-path="url(#a)">
<g transform="translate(663.07 678.24) rotate(90) scale(.08 -.08)">
<use xlink:href="#l"/>
<use x="44.083984" xlink:href="#d"/>
<use x="105.607422" xlink:href="#i"/>
<use x="144.970703" xlink:href="#k"/>
<use x="242.382812" xlink:href="#g"/>
<use x="270.166016" xlink:href="#e"/>
<use x="333.544922" xlink:href="#h"/>
<use x="394.824219" xlink:href="#j"/>
</g>
</g>
<path d="m753.15 712.43 20.288-27.043q1.4403-1.9198-0.47954-3.3601l-6.1934-4.6464q-1.9198-1.4403-3.3601 0.47954l-20.288 27.043q-1.4403 1.9198 0.47954 3.3601l6.1934 4.6464q1.9198 1.4403 3.3601-0.47954z" clip-path="url(#a)" fill="#fff" stroke="#fff"/>
<g clip-path="url(#a)">
<g transform="translate(749.9 709.99) rotate(-53.122) scale(.08 -.08)">
<use xlink:href="#l"/>
<use x="44.083984" xlink:href="#d"/>
<use x="105.607422" xlink:href="#i"/>
<use x="144.970703" xlink:href="#k"/>
<use x="242.382812" xlink:href="#g"/>
<use x="270.166016" xlink:href="#e"/>
<use x="333.544922" xlink:href="#h"/>
<use x="394.824219" xlink:href="#j"/>
</g>
</g>
<path d="m796.16 712.12 0.37853-33.805q0.026872-2.3998-2.373-2.4267l-7.742-0.08669q-2.3998-0.026871-2.4267 2.373l-0.37853 33.805q-0.026871 2.3998 2.373 2.4267l7.742 0.086689q2.3998 0.026872 2.4267-2.373z" clip-path="url(#a)" fill="#fff" stroke="#fff"/>
<g clip-path="url(#a)">
<g transform="translate(792.1 712.07) rotate(-89.358) scale(.08 -.08)">
<use xlink:href="#l"/>
<use x="44.083984" xlink:href="#d"/>
<use x="105.607422" xlink:href="#i"/>
<use x="144.970703" xlink:href="#k"/>
<use x="242.382812" xlink:href="#g"/>
<use x="270.166016" xlink:href="#e"/>
<use x="333.544922" xlink:href="#h"/>
<use x="394.824219" xlink:href="#j"/>
</g>
</g>
<path d="m808.1 685.5 20.48 26.898q1.4539 1.9095 3.3634 0.45558l6.1601-4.6904q1.9095-1.4539 0.45558-3.3634l-20.48-26.898q-1.4539-1.9095-3.3634-0.45558l-6.1601 4.6904q-1.9095 1.4539-0.45558 3.3634z" clip-path="url(#a)" fill="#fff" stroke="#fff"/>
<g clip-path="url(#a)">
<g transform="translate(811.34 683.04) rotate(52.714) scale(.08 -.08)">
<use xlink:href="#l"/>
<use x="44.083984" xlink:href="#d"/>
<use x="105.607422" xlink:href="#i"/>
<use x="144.970703" xlink:href="#k"/>
<use x="242.382812" xlink:href="#g"/>
<use x="270.166016" xlink:href="#e"/>
<use x="333.544922" xlink:href="#h"/>
<use x="394.824219" xlink:href="#j"/>
</g>
</g>
<path d="m1011.8 570.96 3.8414-4.0179q1.6585-1.7347-0.076191-3.3933l-5.5963-5.3505q-1.7347-1.6585-3.3933 0.076191l-3.8414 4.0179q-1.6585 1.7347 0.076192 3.3933l5.5963 5.3505q1.7347 1.6585 3.3933-0.076191z" clip-path="url(#a)" fill="#fff" stroke="#fff"/>
<g clip-path="url(#a)">
<g transform="translate(1008.8 568.15) rotate(-46.286) scale(.08 -.08)">
<use xlink:href="#w"/>
</g>
</g>
<path d="m1049.7 569.63 2.1957-4.0435q1.1453-2.1091-0.9638-3.2544l-6.804-3.6948q-2.1091-1.1453-3.2544 0.9638l-2.1957 4.0435q-1.1453 2.1091 0.9638 3.2544l6.804 3.6948q2.1091 1.1453 3.2544-0.9638z" clip-path="url(#a)" fill="#fff" stroke="#fff"/>
<g clip-path="url(#a)">
<g transform="translate(1046.1 567.69) rotate(-61.497) scale(.08 -.08)">
<use xlink:href="#x"/>
</g>
</g>
<path d="m1088.8 568.04 0.61691-5.4376q0.27055-2.3847-2.1142-2.6553l-7.6931-0.8728q-2.3847-0.27055-2.6553 2.1142l-0.61691 5.4376q-0.27055 2.3847 2.1142 2.6553l7.6931 0.8728q2.3847 0.27055 2.6553-2.1142z" clip-path="url(#a)" fill="#fff" stroke="#fff"/>
<g clip-path="url(#a)">
<g transform="translate(1084.8 567.58) rotate(-83.527) scale(.08 -.08)">
<use xlink:href="#q"/>
</g>
</g>
<path d="m1115.2 564.31 1.5226 4.5772q0.75754 2.2773 3.0348 1.5198l7.3467-2.4438q2.2773-0.75754 1.5198-3.0348l-1.5226-4.5772q-0.75754-2.2773-3.0348-1.5198l-7.3467 2.4438q-2.2773 0.75754-1.5198 3.0348z" clip-path="url(#a)" fill="#fff" stroke="#fff"/>
<g clip-path="url(#a)">
<g transform="translate(1119 563.02) rotate(71.601) scale(.08 -.08)">
<defs>
<path id="al" d="m19.672 64.797v-27.391h12.406q6.8906 0 10.641 3.5625 3.7656 3.5625 3.7656 10.156 0 6.5469-3.7656 10.109-3.75 3.5625-10.641 3.5625zm-9.8594 8.1094h22.266q12.266 0 18.531-5.5469 6.2812-5.5469 6.2812-16.234 0-10.797-6.2812-16.312-6.2656-5.5156-18.531-5.5156h-12.406v-29.297h-9.8594z"/>
</defs>
<use xlink:href="#al"/>
</g>
</g>
<path d="m1199.9 525.82 5.0956 1.9958q2.2347 0.87527 3.11-1.3594l2.8237-7.2092q0.87527-2.2347-1.3594-3.11l-5.0956-1.9958q-2.2347-0.87527-3.11 1.3594l-2.8237 7.2092q-0.87527 2.2347 1.3594 3.11z" clip-path="url(#a)" fill="#fff" stroke="#fff"/>
<g clip-path="url(#a)">
<g transform="translate(1201.4 522.04) rotate(21.389) scale(.08 -.08)">
<use xlink:href="#q"/>
</g>
</g>
<path d="m919.22 678.24v33.808q0 2.4 2.4 2.4h7.7425q2.4 0 2.4-2.4v-33.808q0-2.4-2.4-2.4h-7.7425q-2.4 0-2.4 2.4z" clip-path="url(#a)" fill="#fff" stroke="#fff"/>
<g clip-path="url(#a)">
<g transform="translate(923.28 678.24) rotate(90) scale(.08 -.08)">
<use xlink:href="#l"/>
<use x="44.083984" xlink:href="#d"/>
<use x="105.607422" xlink:href="#i"/>
<use x="144.970703" xlink:href="#k"/>
<use x="242.382812" xlink:href="#g"/>
<use x="270.166016" xlink:href="#e"/>
<use x="333.544922" xlink:href="#h"/>
<use x="394.824219" xlink:href="#j"/>
</g>
</g>
<path d="m991.5 678.24v33.808q0 2.4 2.4 2.4h7.7425q2.4 0 2.4-2.4v-33.808q0-2.4-2.4-2.4h-7.7425q-2.4 0-2.4 2.4z" clip-path="url(#a)" fill="#fff" stroke="#fff"/>
<g clip-path="url(#a)">
<g transform="translate(995.56 678.24) rotate(90) scale(.08 -.08)">
<use xlink:href="#l"/>
<use x="44.083984" xlink:href="#d"/>
<use x="105.607422" xlink:href="#i"/>
<use x="144.970703" xlink:href="#k"/>
<use x="242.382812" xlink:href="#g"/>
<use x="270.166016" xlink:href="#e"/>
<use x="333.544922" xlink:href="#h"/>
<use x="394.824219" xlink:href="#j"/>
</g>
</g>
<path d="m1066.7 678.24v33.808q0 2.4 2.4 2.4h7.7425q2.4 0 2.4-2.4v-33.808q0-2.4-2.4-2.4h-7.7425q-2.4 0-2.4 2.4z" clip-path="url(#a)" fill="#fff" stroke="#fff"/>
<g clip-path="url(#a)">
<g transform="translate(1070.7 678.24) rotate(90) scale(.08 -.08)">
<use xlink:href="#l"/>
<use x="44.083984" xlink:href="#d"/>
<use x="105.607422" xlink:href="#i"/>
<use x="144.970703" xlink:href="#k"/>
<use x="242.382812" xlink:href="#g"/>
<use x="270.166016" xlink:href="#e"/>
<use x="333.544922" xlink:href="#h"/>
<use x="394.824219" xlink:href="#j"/>
</g>
</g>
<path d="m1144.7 678.24v33.808q0 2.4 2.4 2.4h7.7425q2.4 0 2.4-2.4v-33.808q0-2.4-2.4-2.4h-7.7425q-2.4 0-2.4 2.4z" clip-path="url(#a)" fill="#fff" stroke="#fff"/>
<g clip-path="url(#a)">
<g transform="translate(1148.8 678.24) rotate(90) scale(.08 -.08)">
<use xlink:href="#l"/>
<use x="44.083984" xlink:href="#d"/>
<use x="105.607422" xlink:href="#i"/>
<use x="144.970703" xlink:href="#k"/>
<use x="242.382812" xlink:href="#g"/>
<use x="270.166016" xlink:href="#e"/>
<use x="333.544922" xlink:href="#h"/>
<use x="394.824219" xlink:href="#j"/>
</g>
</g>
<path d="m1276.9 614.84 3.8741-3.9864q1.6726-1.7211-0.048469-3.3938l-5.5524-5.396q-1.7211-1.6726-3.3938 0.04847l-3.8741 3.9864q-1.6726 1.7211 0.04847 3.3938l5.5524 5.396q1.7211 1.6726 3.3938-0.048469z" clip-path="url(#a)" fill="#fff" stroke="#fff"/>
<g clip-path="url(#a)">
<g transform="translate(1274 612.01) rotate(-45.818) scale(.08 -.08)">
<use xlink:href="#w"/>
</g>
</g>
<path d="m1322.5 611.34 0.061689-5.5859q0.026503-2.3999-2.3734-2.4264l-7.742-0.0855q-2.3999-0.026503-2.4264 2.3734l-0.061688 5.5859q-0.026503 2.3999 2.3734 2.4264l7.742 0.0855q2.3999 0.026503 2.4264-2.3734z" clip-path="url(#a)" fill="#fff" stroke="#fff"/>
<g clip-path="url(#a)">
<g transform="translate(1318.5 611.3) rotate(-89.367) scale(.08 -.08)">
<use xlink:href="#t"/>
</g>
</g>
<path d="m1353.1 610.79 4.1042 4.1757q1.6823 1.7116 3.394 0.0293l5.5218-5.4273q1.7116-1.6823 0.0293-3.394l-4.1042-4.1757q-1.6823-1.7116-3.394-0.0293l-5.5218 5.4273q-1.7116 1.6823-0.0293 3.394z" clip-path="url(#a)" fill="#fff" stroke="#fff"/>
<g clip-path="url(#a)">
<g transform="translate(1356 607.94) rotate(45.495) scale(.08 -.08)">
<use xlink:href="#ak"/>
</g>
</g>
<path d="m1225.7 678.24v33.808q0 2.4 2.4 2.4h7.7425q2.4 0 2.4-2.4v-33.808q0-2.4-2.4-2.4h-7.7425q-2.4 0-2.4 2.4z" clip-path="url(#a)" fill="#fff" stroke="#fff"/>
<g clip-path="url(#a)">
<g transform="translate(1229.8 678.24) rotate(90) scale(.08 -.08)">
<use xlink:href="#l"/>
<use x="44.083984" xlink:href="#d"/>
<use x="105.607422" xlink:href="#i"/>
<use x="144.970703" xlink:href="#k"/>
<use x="242.382812" xlink:href="#g"/>
<use x="270.166016" xlink:href="#e"/>
<use x="333.544922" xlink:href="#h"/>
<use x="394.824219" xlink:href="#j"/>
</g>
</g>
<path d="m1309.5 678.24v33.808q0 2.4 2.4 2.4h7.7425q2.4 0 2.4-2.4v-33.808q0-2.4-2.4-2.4h-7.7425q-2.4 0-2.4 2.4z" clip-path="url(#a)" fill="#fff" stroke="#fff"/>
<g clip-path="url(#a)">
<g transform="translate(1313.6 678.24) rotate(90) scale(.08 -.08)">
<use xlink:href="#l"/>
<use x="44.083984" xlink:href="#d"/>
<use x="105.607422" xlink:href="#i"/>
<use x="144.970703" xlink:href="#k"/>
<use x="242.382812" xlink:href="#g"/>
<use x="270.166016" xlink:href="#e"/>
<use x="333.544922" xlink:href="#h"/>
<use x="394.824219" xlink:href="#j"/>
</g>
</g>
<path d="m242.67 678.24v33.808q0 2.4 2.4 2.4h7.7425q2.4 0 2.4-2.4v-33.808q0-2.4-2.4-2.4h-7.7425q-2.4 0-2.4 2.4z" clip-path="url(#a)" fill="#fff" stroke="#fff"/>
<g clip-path="url(#a)">
<g transform="translate(246.73 678.24) rotate(90) scale(.08 -.08)">
<use xlink:href="#l"/>
<use x="44.083984" xlink:href="#d"/>
<use x="105.607422" xlink:href="#i"/>
<use x="144.970703" xlink:href="#k"/>
<use x="242.382812" xlink:href="#g"/>
<use x="270.166016" xlink:href="#e"/>
<use x="333.544922" xlink:href="#h"/>
<use x="394.824219" xlink:href="#j"/>
</g>
</g>
<path d="m277.36 678.24v33.808q0 2.4 2.4 2.4h7.7425q2.4 0 2.4-2.4v-33.808q0-2.4-2.4-2.4h-7.7425q-2.4 0-2.4 2.4z" clip-path="url(#a)" fill="#fff" stroke="#fff"/>
<g clip-path="url(#a)">
<g transform="translate(281.42 678.24) rotate(90) scale(.08 -.08)">
<use xlink:href="#l"/>
<use x="44.083984" xlink:href="#d"/>
<use x="105.607422" xlink:href="#i"/>
<use x="144.970703" xlink:href="#k"/>
<use x="242.382812" xlink:href="#g"/>
<use x="270.166016" xlink:href="#e"/>
<use x="333.544922" xlink:href="#h"/>
<use x="394.824219" xlink:href="#j"/>
</g>
</g>
<path d="m314.95 678.24v33.808q0 2.4 2.4 2.4h7.7425q2.4 0 2.4-2.4v-33.808q0-2.4-2.4-2.4h-7.7425q-2.4 0-2.4 2.4z" clip-path="url(#a)" fill="#fff" stroke="#fff"/>
<g clip-path="url(#a)">
<g transform="translate(319.01 678.24) rotate(90) scale(.08 -.08)">
<use xlink:href="#l"/>
<use x="44.083984" xlink:href="#d"/>
<use x="105.607422" xlink:href="#i"/>
<use x="144.970703" xlink:href="#k"/>
<use x="242.382812" xlink:href="#g"/>
<use x="270.166016" xlink:href="#e"/>
<use x="333.544922" xlink:href="#h"/>
<use x="394.824219" xlink:href="#j"/>
</g>
</g>
<path d="m400.62 569.48 2.0182-5.1795q0.87134-2.2362-1.3649-3.1076l-7.2142-2.811q-2.2362-0.87134-3.1076 1.3649l-2.0182 5.1795q-0.87134 2.2362 1.3649 3.1076l7.2142 2.811q2.2362 0.87134 3.1076-1.3649z" clip-path="url(#a)" fill="#fff" stroke="#fff"/>
<g clip-path="url(#a)">
<g transform="translate(396.84 568.01) rotate(-68.712) scale(.08 -.08)">
<use xlink:href="#w"/>
</g>
</g>
<path d="m423.36 567.77 0.64606-4.5557q0.33698-2.3762-2.0392-2.7132l-7.6658-1.0871q-2.3762-0.33698-2.7132 2.0392l-0.64606 4.5557q-0.33698 2.3762 2.0392 2.7132l7.6658 1.0871q2.3762 0.33698 2.7132-2.0392z" clip-path="url(#a)" fill="#fff" stroke="#fff"/>
<g clip-path="url(#a)">
<g transform="translate(419.34 567.2) rotate(-81.928) scale(.08 -.08)">
<use xlink:href="#x"/>
</g>
</g>
<path d="m434.04 562.61 0.67945 5.5448q0.29191 2.3822 2.6741 2.0903l7.685-0.94171q2.3822-0.29191 2.0903-2.6741l-0.67945-5.5448q-0.29191-2.3822-2.6741-2.0903l-7.685 0.94171q-2.3822 0.29191-2.0903 2.6741z" clip-path="url(#a)" fill="#fff" stroke="#fff"/>
<g clip-path="url(#a)">
<g transform="translate(438.07 562.11) rotate(83.014) scale(.08 -.08)">
<use xlink:href="#t"/>
</g>
</g>
<path d="m459.2 522.99 3.1952 3.9171q1.517 1.8597 3.3768 0.34273l5.9996-4.894q1.8597-1.517 0.34273-3.3768l-3.1952-3.9171q-1.517-1.8597-3.3768-0.34273l-5.9996 4.894q-1.8597 1.517-0.34273 3.3768z" clip-path="url(#a)" fill="#fff" stroke="#fff"/>
<g clip-path="url(#a)">
<g transform="translate(462.35 520.42) rotate(50.796) scale(.08 -.08)">
<use xlink:href="#am"/>
</g>
</g>
<path d="m355.42 678.24v33.808q0 2.4 2.4 2.4h7.7425q2.4 0 2.4-2.4v-33.808q0-2.4-2.4-2.4h-7.7425q-2.4 0-2.4 2.4z" clip-path="url(#a)" fill="#fff" stroke="#fff"/>
<g clip-path="url(#a)">
<g transform="translate(359.49 678.24) rotate(90) scale(.08 -.08)">
<use xlink:href="#l"/>
<use x="44.083984" xlink:href="#d"/>
<use x="105.607422" xlink:href="#i"/>
<use x="144.970703" xlink:href="#k"/>
<use x="242.382812" xlink:href="#g"/>
<use x="270.166016" xlink:href="#e"/>
<use x="333.544922" xlink:href="#h"/>
<use x="394.824219" xlink:href="#j"/>
</g>
</g>
<path d="m398.79 678.24v33.808q0 2.4 2.4 2.4h7.7425q2.4 0 2.4-2.4v-33.808q0-2.4-2.4-2.4h-7.7425q-2.4 0-2.4 2.4z" clip-path="url(#a)" fill="#fff" stroke="#fff"/>
<g clip-path="url(#a)">
<g transform="translate(402.86 678.24) rotate(90) scale(.08 -.08)">
<use xlink:href="#l"/>
<use x="44.083984" xlink:href="#d"/>
<use x="105.607422" xlink:href="#i"/>
<use x="144.970703" xlink:href="#k"/>
<use x="242.382812" xlink:href="#g"/>
<use x="270.166016" xlink:href="#e"/>
<use x="333.544922" xlink:href="#h"/>
<use x="394.824219" xlink:href="#j"/>
</g>
</g>
<path d="m445.05 678.24v33.808q0 2.4 2.4 2.4h7.7425q2.4 0 2.4-2.4v-33.808q0-2.4-2.4-2.4h-7.7425q-2.4 0-2.4 2.4z" clip-path="url(#a)" fill="#fff" stroke="#fff"/>
<g clip-path="url(#a)">
<g transform="translate(449.12 678.24) rotate(90) scale(.08 -.08)">
<use xlink:href="#l"/>
<use x="44.083984" xlink:href="#d"/>
<use x="105.607422" xlink:href="#i"/>
<use x="144.970703" xlink:href="#k"/>
<use x="242.382812" xlink:href="#g"/>
<use x="270.166016" xlink:href="#e"/>
<use x="333.544922" xlink:href="#h"/>
<use x="394.824219" xlink:href="#j"/>
</g>
</g>
<path d="m480.46 613.97 2.7253-4.7456q1.1952-2.0812-0.88605-3.2764l-6.7141-3.8557q-2.0812-1.1952-3.2764 0.88605l-2.7253 4.7456q-1.1952 2.0812 0.88605 3.2764l6.7141 3.8557q2.0812 1.1952 3.2764-0.88605z" clip-path="url(#a)" fill="#fff" stroke="#fff"/>
<g clip-path="url(#a)">
<g transform="translate(476.93 611.95) rotate(-60.133) scale(.08 -.08)">
<use xlink:href="#q"/>
</g>
</g>
<path d="m507.2 610.96 0.053268-4.8235q0.026503-2.3999-2.3734-2.4264l-7.742-0.0855q-2.3999-0.026503-2.4264 2.3734l-0.053268 4.8235q-0.026503 2.3999 2.3734 2.4264l7.742 0.0855q2.3999 0.026503 2.4264-2.3734z" clip-path="url(#a)" fill="#fff" stroke="#fff"/>
<g clip-path="url(#a)">
<g transform="translate(503.14 610.91) rotate(-89.367) scale(.08 -.08)">
<use xlink:href="#al"/>
</g>
</g>
<path d="m520.18 609.28 2.7644 4.723q1.2123 2.0713 3.2836 0.85894l6.682-3.9111q2.0713-1.2123 0.85894-3.2836l-2.7644-4.723q-1.2123-2.0713-3.2836-0.85894l-6.682 3.9111q-2.0713 1.2123-0.85894 3.2836z" clip-path="url(#a)" fill="#fff" stroke="#fff"/>
<g clip-path="url(#a)">
<g transform="translate(523.69 607.23) rotate(59.659) scale(.08 -.08)">
<use xlink:href="#q"/>
</g>
</g>
<path d="m494.2 678.24v33.808q0 2.4 2.4 2.4h7.7425q2.4 0 2.4-2.4v-33.808q0-2.4-2.4-2.4h-7.7425q-2.4 0-2.4 2.4z" clip-path="url(#a)" fill="#fff" stroke="#fff"/>
<g clip-path="url(#a)">
<g transform="translate(498.27 678.24) rotate(90) scale(.08 -.08)">
<use xlink:href="#l"/>
<use x="44.083984" xlink:href="#d"/>
<use x="105.607422" xlink:href="#i"/>
<use x="144.970703" xlink:href="#k"/>
<use x="242.382812" xlink:href="#g"/>
<use x="270.166016" xlink:href="#e"/>
<use x="333.544922" xlink:href="#h"/>
<use x="394.824219" xlink:href="#j"/>
</g>
</g>
<path d="m546.25 678.24v33.808q0 2.4 2.4 2.4h7.7425q2.4 0 2.4-2.4v-33.808q0-2.4-2.4-2.4h-7.7425q-2.4 0-2.4 2.4z" clip-path="url(#a)" fill="#fff" stroke="#fff"/>
<g clip-path="url(#a)">
<g transform="translate(550.31 678.24) rotate(90) scale(.08 -.08)">
<use xlink:href="#l"/>
<use x="44.083984" xlink:href="#d"/>
<use x="105.607422" xlink:href="#i"/>
<use x="144.970703" xlink:href="#k"/>
<use x="242.382812" xlink:href="#g"/>
<use x="270.166016" xlink:href="#e"/>
<use x="333.544922" xlink:href="#h"/>
<use x="394.824219" xlink:href="#j"/>
</g>
</g>
<path d="m95.212 678.24v33.808q0 2.4 2.4 2.4h7.7425q2.4 0 2.4-2.4v-33.808q0-2.4-2.4-2.4h-7.7425q-2.4 0-2.4 2.4z" clip-path="url(#a)" fill="#fff" stroke="#fff"/>
<g clip-path="url(#a)">
<g transform="translate(99.275 678.24) rotate(90) scale(.08 -.08)">
<use xlink:href="#l"/>
<use x="44.083984" xlink:href="#d"/>
<use x="105.607422" xlink:href="#i"/>
<use x="144.970703" xlink:href="#k"/>
<use x="242.382812" xlink:href="#g"/>
<use x="270.166016" xlink:href="#e"/>
<use x="333.544922" xlink:href="#h"/>
<use x="394.824219" xlink:href="#j"/>
</g>
</g>
<path d="m112.56 678.24v33.808q0 2.4 2.4 2.4h7.7425q2.4 0 2.4-2.4v-33.808q0-2.4-2.4-2.4h-7.7425q-2.4 0-2.4 2.4z" clip-path="url(#a)" fill="#fff" stroke="#fff"/>
<g clip-path="url(#a)">
<g transform="translate(116.62 678.24) rotate(90) scale(.08 -.08)">
<use xlink:href="#l"/>
<use x="44.083984" xlink:href="#d"/>
<use x="105.607422" xlink:href="#i"/>
<use x="144.970703" xlink:href="#k"/>
<use x="242.382812" xlink:href="#g"/>
<use x="270.166016" xlink:href="#e"/>
<use x="333.544922" xlink:href="#h"/>
<use x="394.824219" xlink:href="#j"/>
</g>
</g>
<path d="m60.517 678.24v33.808q0 2.4 2.4 2.4h7.7425q2.4 0 2.4-2.4v-33.808q0-2.4-2.4-2.4h-7.7425q-2.4 0-2.4 2.4z" clip-path="url(#a)" fill="#fff" stroke="#fff"/>
<g clip-path="url(#a)">
<g transform="translate(64.58 678.24) rotate(90) scale(.08 -.08)">
<use xlink:href="#l"/>
<use x="44.083984" xlink:href="#d"/>
<use x="105.607422" xlink:href="#i"/>
<use x="144.970703" xlink:href="#k"/>
<use x="242.382812" xlink:href="#g"/>
<use x="270.166016" xlink:href="#e"/>
<use x="333.544922" xlink:href="#h"/>
<use x="394.824219" xlink:href="#j"/>
</g>
</g>
<path d="m80.755 678.24v33.808q0 2.4 2.4 2.4h7.7425q2.4 0 2.4-2.4v-33.808q0-2.4-2.4-2.4h-7.7425q-2.4 0-2.4 2.4z" clip-path="url(#a)" fill="#fff" stroke="#fff"/>
<g clip-path="url(#a)">
<g transform="translate(84.819 678.24) rotate(90) scale(.08 -.08)">
<use xlink:href="#l"/>
<use x="44.083984" xlink:href="#d"/>
<use x="105.607422" xlink:href="#i"/>
<use x="144.970703" xlink:href="#k"/>
<use x="242.382812" xlink:href="#g"/>
<use x="270.166016" xlink:href="#e"/>
<use x="333.544922" xlink:href="#h"/>
<use x="394.824219" xlink:href="#j"/>
</g>
</g>
<path d="m181.95 678.24v33.808q0 2.4 2.4 2.4h7.7425q2.4 0 2.4-2.4v-33.808q0-2.4-2.4-2.4h-7.7425q-2.4 0-2.4 2.4z" clip-path="url(#a)" fill="#fff" stroke="#fff"/>
<g clip-path="url(#a)">
<g transform="translate(186.01 678.24) rotate(90) scale(.08 -.08)">
<use xlink:href="#l"/>
<use x="44.083984" xlink:href="#d"/>
<use x="105.607422" xlink:href="#i"/>
<use x="144.970703" xlink:href="#k"/>
<use x="242.382812" xlink:href="#g"/>
<use x="270.166016" xlink:href="#e"/>
<use x="333.544922" xlink:href="#h"/>
<use x="394.824219" xlink:href="#j"/>
</g>
</g>
<path d="m1396.3 678.24v33.808q0 2.4 2.4 2.4h7.7425q2.4 0 2.4-2.4v-33.808q0-2.4-2.4-2.4h-7.7425q-2.4 0-2.4 2.4z" clip-path="url(#a)" fill="#fff" stroke="#fff"/>
<g clip-path="url(#a)">
<g transform="translate(1400.3 678.24) rotate(90) scale(.08 -.08)">
<use xlink:href="#l"/>
<use x="44.083984" xlink:href="#d"/>
<use x="105.607422" xlink:href="#i"/>
<use x="144.970703" xlink:href="#k"/>
<use x="242.382812" xlink:href="#g"/>
<use x="270.166016" xlink:href="#e"/>
<use x="333.544922" xlink:href="#h"/>
<use x="394.824219" xlink:href="#j"/>
</g>
</g>
<defs>
<path id="b" d="m0 8.6603c2.2967 0 4.4997-0.9125 6.1237-2.5365 1.624-1.624 2.5365-3.827 2.5365-6.1237s-0.9125-4.4997-2.5365-6.1237c-1.624-1.624-3.827-2.5365-6.1237-2.5365s-4.4997 0.9125-6.1237 2.5365c-1.624 1.624-2.5365 3.827-2.5365 6.1237s0.9125 4.4997 2.5365 6.1237c1.624 1.624 3.827 2.5365 6.1237 2.5365z"/>
</defs>
<g clip-path="url(#a)" fill="#ffffff" stroke="#ffffff">
<use x="66.787879" y="738.181818" xlink:href="#b"/>
<use x="75.461629" y="738.181818" xlink:href="#b"/>
<use x="87.02663" y="738.181818" xlink:href="#b"/>
<use x="101.482881" y="738.181818" xlink:href="#b"/>
<use x="118.830382" y="738.181818" xlink:href="#b"/>
<use x="139.069133" y="738.181818" xlink:href="#b"/>
<use x="162.199134" y="738.181818" xlink:href="#b"/>
<use x="188.220386" y="738.181818" xlink:href="#b"/>
<use x="217.132887" y="738.181818" xlink:href="#b"/>
<use x="248.936639" y="738.181818" xlink:href="#b"/>
<use x="283.631641" y="738.181818" xlink:href="#b"/>
<use x="321.217893" y="738.181818" xlink:href="#b"/>
<use x="361.695396" y="738.181818" xlink:href="#b"/>
<use x="405.064148" y="738.181818" xlink:href="#b"/>
<use x="451.324151" y="738.181818" xlink:href="#b"/>
<use x="500.475403" y="738.181818" xlink:href="#b"/>
<use x="552.517906" y="738.181818" xlink:href="#b"/>
<use x="607.451659" y="738.181818" xlink:href="#b"/>
<use x="665.276663" y="738.181818" xlink:href="#b"/>
<use x="725.992916" y="738.181818" xlink:href="#b"/>
<use x="789.60042" y="738.181818" xlink:href="#b"/>
<use x="856.099174" y="738.181818" xlink:href="#b"/>
<use x="925.489177" y="738.181818" xlink:href="#b"/>
<use x="997.770432" y="738.181818" xlink:href="#b"/>
<use x="1072.942936" y="738.181818" xlink:href="#b"/>
<use x="1151.00669" y="738.181818" xlink:href="#b"/>
<use x="1231.961695" y="738.181818" xlink:href="#b"/>
<use x="1315.80795" y="738.181818" xlink:href="#b"/>
<use x="1402.545455" y="738.181818" xlink:href="#b"/>
<use x="133.538011" y="35.151515" xlink:href="#b"/>
<use x="133.538011" y="123.851175" xlink:href="#b"/>
<use x="76.907254" y="564.843949" xlink:href="#b"/>
<use x="75.461629" y="652.11155" xlink:href="#b"/>
<use x="110.156631" y="564.843949" xlink:href="#b"/>
<use x="139.069133" y="652.11155" xlink:href="#b"/>
<use x="266.095406" y="212.42378" xlink:href="#b"/>
<use x="162.199134" y="652.11155" xlink:href="#b"/>
<use x="447.866697" y="300.848201" xlink:href="#b"/>
<use x="217.132887" y="652.11155" xlink:href="#b"/>
<use x="289.173204" y="389.094759" xlink:href="#b"/>
<use x="607.451659" y="652.11155" xlink:href="#b"/>
<use x="677.709038" y="389.094759" xlink:href="#b"/>
<use x="665.276663" y="652.11155" xlink:href="#b"/>
<use x="790.56417" y="652.11155" xlink:href="#b"/>
<use x="1092.796187" y="477.118637" xlink:href="#b"/>
<use x="925.489177" y="652.11155" xlink:href="#b"/>
<use x="997.770432" y="652.11155" xlink:href="#b"/>
<use x="1072.942936" y="652.11155" xlink:href="#b"/>
<use x="1151.00669" y="652.11155" xlink:href="#b"/>
<use x="1316.7717" y="564.843949" xlink:href="#b"/>
<use x="1231.961695" y="652.11155" xlink:href="#b"/>
<use x="1315.80795" y="652.11155" xlink:href="#b"/>
<use x="248.936639" y="652.11155" xlink:href="#b"/>
<use x="283.631641" y="652.11155" xlink:href="#b"/>
<use x="321.217893" y="652.11155" xlink:href="#b"/>
<use x="429.880712" y="477.118637" xlink:href="#b"/>
<use x="361.695396" y="652.11155" xlink:href="#b"/>
<use x="405.064148" y="652.11155" xlink:href="#b"/>
<use x="451.324151" y="652.11155" xlink:href="#b"/>
<use x="501.439153" y="564.843949" xlink:href="#b"/>
<use x="500.475403" y="652.11155" xlink:href="#b"/>
<use x="552.517906" y="652.11155" xlink:href="#b"/>
<use x="101.482881" y="652.11155" xlink:href="#b"/>
<use x="118.830382" y="652.11155" xlink:href="#b"/>
<use x="66.787879" y="652.11155" xlink:href="#b"/>
<use x="87.02663" y="652.11155" xlink:href="#b"/>
<use x="188.220386" y="652.11155" xlink:href="#b"/>
<use x="1402.545455" y="652.11155" xlink:href="#b"/>
</g>
<g clip-path="url(#a)">
<g transform="translate(57.489 740.94) scale(.1 -.1)">
<defs>
<path id="v" d="m54.891 33.016v-33.016h-8.9844v32.719q0 7.7656-3.0312 11.609-3.0312 3.8594-9.0781 3.8594-7.2812 0-11.484-4.6406-4.2031-4.625-4.2031-12.641v-30.906h-9.0312v75.984h9.0312v-29.797q3.2344 4.9375 7.5938 7.375 4.375 2.4375 10.094 2.4375 9.4219 0 14.25-5.8281 4.8438-5.8281 4.8438-17.156z"/>
</defs>
<use xlink:href="#l"/>
<use x="61.083984" xlink:href="#v"/>
<use x="124.462891" xlink:href="#d"/>
</g>
</g>
<g clip-path="url(#a)">
<g transform="translate(64.768 740.94) scale(.1 -.1)">
<defs>
<path id="r" d="m30.609 48.391q-7.2188 0-11.422-5.6406t-4.2031-15.453 4.1719-15.453q4.1875-5.6406 11.453-5.6406 7.1875 0 11.375 5.6562 4.2031 5.6719 4.2031 15.438 0 9.7188-4.2031 15.406-4.1875 5.6875-11.375 5.6875zm0 7.6094q11.719 0 18.406-7.625 6.7031-7.6094 6.7031-21.078 0-13.422-6.7031-21.078-6.6875-7.6406-18.406-7.6406-11.766 0-18.438 7.6406-6.6562 7.6562-6.6562 21.078 0 13.469 6.6562 21.078 6.6719 7.625 18.438 7.625z"/>
</defs>
<use xlink:href="#j"/>
<use x="27.783203" xlink:href="#r"/>
<use x="88.964844" xlink:href="#e"/>
<use x="152.34375" xlink:href="#d"/>
</g>
</g>
<g clip-path="url(#a)">
<g transform="translate(74.367 740.94) scale(.1 -.1)">
<defs>
<path id="aj" d="m48.688 27.297q0 9.9062-4.0781 15.547t-11.203 5.6406q-7.1406 0-11.219-5.6406t-4.0781-15.547 4.0781-15.547 11.219-5.6406q7.125 0 11.203 5.6406t4.0781 15.547zm-30.578 19.094q2.8438 4.875 7.1562 7.2344 4.3281 2.375 10.328 2.375 9.9688 0 16.188-7.9062 6.2344-7.9062 6.2344-20.797t-6.2344-20.812q-6.2188-7.9062-16.188-7.9062-6 0-10.328 2.375-4.3125 2.375-7.1562 7.25v-8.2031h-9.0312v75.984h9.0312z"/>
</defs>
<use xlink:href="#i"/>
<use x="38.863281" xlink:href="#d"/>
<use x="100.386719" xlink:href="#aj"/>
<use x="163.863281" xlink:href="#d"/>
<use x="225.386719" xlink:href="#j"/>
</g>
</g>
<g clip-path="url(#a)">
<g transform="translate(84.146 740.94) scale(.1 -.1)">
<defs>
<path id="ai" d="m45.406 27.984q0 9.7656-4.0312 15.125-4.0156 5.375-11.297 5.375-7.2188 0-11.25-5.375-4.0312-5.3594-4.0312-15.125 0-9.7188 4.0312-15.094t11.25-5.375q7.2812 0 11.297 5.375 4.0312 5.375 4.0312 15.094zm8.9844-21.203q0-13.953-6.2031-20.766-6.1875-6.8125-18.984-6.8125-4.7344 0-8.9375 0.70312t-8.1562 2.1719v8.7344q3.9531-2.1406 7.8125-3.1562 3.8594-1.0312 7.8594-1.0312 8.8438 0 13.234 4.6094t4.3906 13.938v4.4531q-2.7812-4.8438-7.125-7.2344t-10.406-2.3906q-10.047 0-16.203 7.6562-6.1562 7.6719-6.1562 20.328 0 12.688 6.1562 20.344 6.1562 7.6719 16.203 7.6719 6.0625 0 10.406-2.3906t7.125-7.2188v8.2969h8.9844z"/>
</defs>
<use xlink:href="#h"/>
<use x="61.279297" xlink:href="#k"/>
<use x="158.691406" xlink:href="#r"/>
<use x="219.873047" xlink:href="#e"/>
<use x="283.251953" xlink:href="#ai"/>
</g>
</g>
<g clip-path="url(#a)">
<g transform="translate(113.06 740.94) scale(.1 -.1)">
<defs>
<path id="s" d="m8.5 21.578v33.109h8.9844v-32.766q0-7.7656 3.0156-11.656 3.0312-3.875 9.0938-3.875 7.2656 0 11.484 4.6406 4.2344 4.6406 4.2344 12.656v31h8.9844v-54.688h-8.9844v8.4062q-3.2656-4.9844-7.5938-7.4062-4.3125-2.4219-10.031-2.4219-9.4219 0-14.312 5.8594-4.875 5.8594-4.875 17.141z"/>
<path id="p" d="m44.281 53.078v-8.5q-3.7969 1.9531-7.9062 2.9219-4.0938 0.98438-8.5 0.98438-6.6875 0-10.031-2.0469t-3.3438-6.1562q0-3.125 2.3906-4.9062t9.625-3.3906l3.0781-0.6875q9.5625-2.0469 13.594-5.7812t4.0312-10.422q0-7.625-6.0312-12.078-6.0312-4.4375-16.578-4.4375-4.3906 0-9.1562 0.85938t-10.031 2.5625v9.2812q4.9844-2.5938 9.8125-3.8906 4.8281-1.2812 9.5781-1.2812 6.3438 0 9.75 2.1719 3.4219 2.1719 3.4219 6.125 0 3.6562-2.4688 5.6094-2.4531 1.9531-10.812 3.7656l-3.125 0.73438q-8.3438 1.75-12.062 5.3906-3.7031 3.6406-3.7031 9.9844 0 7.7188 5.4688 11.906 5.4688 4.2031 15.531 4.2031 4.9688 0 9.3594-0.73438 4.4062-0.71875 8.1094-2.1875z"/>
</defs>
<use xlink:href="#s"/>
<use x="63.378906" xlink:href="#p"/>
</g>
</g>
<g clip-path="url(#a)">
<g transform="translate(129.31 740.94) scale(.1 -.1)">
<defs>
<path id="ac" d="m4.2031 54.688h8.9844l11.234-42.672 11.172 42.672h10.594l11.234-42.672 11.188 42.672h8.9844l-14.312-54.688h-10.594l-11.766 44.828-11.812-44.828h-10.609z"/>
</defs>
<use xlink:href="#ac"/>
<use x="81.787109" xlink:href="#h"/>
<use x="143.066406" xlink:href="#p"/>
</g>
</g>
<g clip-path="url(#a)">
<g transform="translate(144.02 740.94) scale(.1 -.1)">
<use xlink:href="#t"/>
<use x="69.824219" xlink:href="#r"/>
<use x="131.005859" xlink:href="#e"/>
<use x="194.384766" xlink:href="#p"/>
<use x="246.484375" xlink:href="#d"/>
<use x="308.007812" xlink:href="#g"/>
<use x="335.791016" xlink:href="#j"/>
</g>
</g>
<g clip-path="url(#a)">
<g transform="translate(186.63 740.94) scale(.1 -.1)">
<defs>
<path id="ar" d="m11.719 12.406h10.297v-8.4062l-8-15.625h-6.2969l4 15.625z"/>
</defs>
<use xlink:href="#ar"/>
</g>
</g>
<g clip-path="url(#a)">
<g transform="translate(206.82 740.94) scale(.1 -.1)">
<use xlink:href="#ac"/>
<use x="81.787109" xlink:href="#v"/>
<use x="145.166016" xlink:href="#r"/>
</g>
</g>
<g clip-path="url(#a)">
<g transform="translate(229.06 740.94) scale(.1 -.1)">
<defs>
<path id="ad" d="m45.406 46.391v29.594h8.9844v-75.984h-8.9844v8.2031q-2.8281-4.875-7.1562-7.25-4.3125-2.375-10.375-2.375-9.9062 0-16.141 7.9062-6.2188 7.9219-6.2188 20.812t6.2188 20.797q6.2344 7.9062 16.141 7.9062 6.0625 0 10.375-2.375 4.3281-2.3594 7.1562-7.2344zm-30.609-19.094q0-9.9062 4.0781-15.547t11.203-5.6406 11.219 5.6406q4.1094 5.6406 4.1094 15.547t-4.1094 15.547q-4.0938 5.6406-11.219 5.6406t-11.203-5.6406-4.0781-15.547z"/>
</defs>
<use xlink:href="#p"/>
<use x="52.099609" xlink:href="#d"/>
<use x="113.623047" xlink:href="#d"/>
<use x="175.146484" xlink:href="#k"/>
<use x="272.558594" xlink:href="#d"/>
<use x="334.082031" xlink:href="#ad"/>
</g>
</g>
<g clip-path="url(#a)">
<g transform="translate(267.06 740.94) scale(.1 -.1)">
<defs>
<path id="o" d="m18.312 70.219v-15.531h18.5v-6.9844h-18.5v-29.688q0-6.6875 1.8281-8.5938t7.4531-1.9062h9.2188v-7.5156h-9.2188q-10.406 0-14.359 3.875-3.9531 3.8906-3.9531 14.141v29.688h-6.5938v6.9844h6.5938v15.531z"/>
<path id="as" d="m32.172-5.0781q-3.7969-9.7656-7.4219-12.734-3.6094-2.9844-9.6562-2.9844h-7.1875v7.5156h5.2812q3.7031 0 5.75 1.7656 2.0625 1.75 4.5469 8.2969l1.6094 4.0938-22.109 53.812h9.5156l17.094-42.766 17.094 42.766h9.5156z"/>
</defs>
<use xlink:href="#s"/>
<use x="63.378906" xlink:href="#o"/>
<use x="102.587891" xlink:href="#o"/>
<use x="141.796875" xlink:href="#d"/>
<use x="203.320312" xlink:href="#i"/>
<use x="244.433594" xlink:href="#j"/>
<use x="272.216797" xlink:href="#as"/>
</g>
</g>
<g clip-path="url(#a)">
<g transform="translate(289.45 740.94) scale(.1 -.1)">
<use xlink:href="#s"/>
<use x="63.378906" xlink:href="#e"/>
<use x="126.757812" xlink:href="#g"/>
<use x="154.541016" xlink:href="#e"/>
<use x="217.919922" xlink:href="#o"/>
<use x="257.128906" xlink:href="#d"/>
<use x="318.652344" xlink:href="#i"/>
<use x="357.515625" xlink:href="#d"/>
<use x="419.039062" xlink:href="#p"/>
<use x="471.138672" xlink:href="#o"/>
<use x="510.347656" xlink:href="#d"/>
<use x="571.871094" xlink:href="#ad"/>
</g>
</g>
<g clip-path="url(#a)">
<g transform="translate(357.14 740.94) scale(.1 -.1)">
<use xlink:href="#g"/>
<use x="27.783203" xlink:href="#e"/>
</g>
</g>
<g clip-path="url(#a)">
<g transform="translate(396.86 740.94) scale(.1 -.1)">
<use xlink:href="#o"/>
<use x="39.208984" xlink:href="#v"/>
<use x="102.587891" xlink:href="#d"/>
</g>
</g>
<g clip-path="url(#a)">
<g transform="translate(429.72 740.94) scale(.1 -.1)">
<defs>
<path id="au" d="m14.797 27.297q0-9.9062 4.0781-15.547t11.203-5.6406 11.219 5.6406q4.1094 5.6406 4.1094 15.547t-4.1094 15.547q-4.0938 5.6406-11.219 5.6406t-11.203-5.6406-4.0781-15.547zm30.609-19.094q-2.8281-4.875-7.1562-7.25-4.3125-2.375-10.375-2.375-9.9062 0-16.141 7.9062-6.2188 7.9219-6.2188 20.812t6.2188 20.797q6.2344 7.9062 16.141 7.9062 6.0625 0 10.375-2.375 4.3281-2.3594 7.1562-7.2344v8.2969h8.9844v-75.484h-8.9844z"/>
</defs>
<use xlink:href="#au"/>
<use x="63.476562" xlink:href="#s"/>
<use x="126.855469" xlink:href="#d"/>
<use x="188.378906" xlink:href="#p"/>
<use x="240.478516" xlink:href="#o"/>
<use x="279.6875" xlink:href="#g"/>
<use x="307.470703" xlink:href="#r"/>
<use x="368.652344" xlink:href="#e"/>
</g>
</g>
<g clip-path="url(#a)">
<g transform="translate(480.78 740.94) scale(.1 -.1)">
<defs>
<path id="at" d="m54.891 54.688-19.781-26.609 20.797-28.078h-10.594l-15.922 21.484-15.906-21.484h-10.609l21.25 28.609-19.438 26.078h10.594l14.5-19.484 14.5 19.484z"/>
<path id="ao" d="m48.781 52.594v-8.4062q-3.8125 2.1094-7.6406 3.1562t-7.7344 1.0469q-8.75 0-13.594-5.5469-4.8281-5.5312-4.8281-15.547t4.8281-15.562q4.8438-5.5312 13.594-5.5312 3.9062 0 7.7344 1.0469t7.6406 3.1562v-8.3125q-3.7656-1.75-7.7969-2.625-4.0156-0.89062-8.5625-0.89062-12.359 0-19.641 7.7656-7.2656 7.7656-7.2656 20.953 0 13.375 7.3438 21.031 7.3594 7.6719 20.156 7.6719 4.1406 0 8.0938-0.85938 3.9531-0.84375 7.6719-2.5469z"/>
</defs>
<use xlink:href="#d"/>
<use x="59.773438" xlink:href="#at"/>
<use x="117.203125" xlink:href="#ao"/>
<use x="172.183594" xlink:href="#g"/>
<use x="199.966797" xlink:href="#o"/>
<use x="239.175781" xlink:href="#g"/>
<use x="266.958984" xlink:href="#e"/>
<use x="330.337891" xlink:href="#ai"/>
</g>
</g>
<g clip-path="url(#a)">
<g transform="translate(546.74 740.94) scale(.1 -.1)">
<use xlink:href="#s"/>
<use x="63.378906" xlink:href="#p"/>
</g>
</g>
<g clip-path="url(#a)">
<g transform="translate(598.04 740.94) scale(.1 -.1)">
<use xlink:href="#h"/>
<use x="61.279297" xlink:href="#e"/>
<use x="124.658203" xlink:href="#ad"/>
</g>
</g>
<g clip-path="url(#a)">
<g transform="translate(655.52 740.94) scale(.1 -.1)">
<use xlink:href="#ac"/>
<use x="81.787109" xlink:href="#h"/>
<use x="143.066406" xlink:href="#p"/>
</g>
</g>
<g clip-path="url(#a)">
<g transform="translate(717.8 740.94) scale(.1 -.1)">
<use xlink:href="#r"/>
<use x="61.181641" xlink:href="#s"/>
<use x="124.560547" xlink:href="#o"/>
</g>
</g>
<g clip-path="url(#a)">
<g transform="translate(784.78 740.94) scale(.1 -.1)">
<defs>
<path id="aw" d="m37.109 75.984v-7.4844h-8.5938q-4.8281 0-6.7188-1.9531-1.875-1.9531-1.875-7.0312v-4.8281h14.797v-6.9844h-14.797v-47.703h-9.0312v47.703h-8.5938v6.9844h8.5938v3.8125q0 9.125 4.25 13.297 4.25 4.1875 13.469 4.1875z"/>
</defs>
<use xlink:href="#r"/>
<use x="61.181641" xlink:href="#aw"/>
</g>
</g>
<g clip-path="url(#a)">
<g transform="translate(845.28 740.94) scale(.1 -.1)">
<defs>
<path id="av" d="m18.109 8.2031v-29h-9.0312v75.484h9.0312v-8.2969q2.8438 4.875 7.1562 7.2344 4.3281 2.375 10.328 2.375 9.9688 0 16.188-7.9062 6.2344-7.9062 6.2344-20.797t-6.2344-20.812q-6.2188-7.9062-16.188-7.9062-6 0-10.328 2.375-4.3125 2.375-7.1562 7.25zm30.578 19.094q0 9.9062-4.0781 15.547t-11.203 5.6406q-7.1406 0-11.219-5.6406t-4.0781-15.547 4.0781-15.547 11.219-5.6406q7.125 0 11.203 5.6406t4.0781 15.547z"/>
</defs>
<use xlink:href="#p"/>
<use x="52.099609" xlink:href="#o"/>
<use x="91.308594" xlink:href="#d"/>
<use x="152.832031" xlink:href="#av"/>
</g>
</g>
<g clip-path="url(#a)">
<g transform="translate(914.88 740.94) scale(.1 -.1)">
<use xlink:href="#ac"/>
<use x="81.787109" xlink:href="#g"/>
<use x="109.570312" xlink:href="#o"/>
<use x="148.779297" xlink:href="#v"/>
</g>
</g>
<g clip-path="url(#a)">
<g transform="translate(989.56 740.94) scale(.1 -.1)">
<use xlink:href="#o"/>
<use x="39.208984" xlink:href="#v"/>
<use x="102.587891" xlink:href="#d"/>
</g>
</g>
<g clip-path="url(#a)">
<g transform="translate(1053.9 740.94) scale(.1 -.1)">
<use xlink:href="#ai"/>
<use x="63.476562" xlink:href="#d"/>
<use x="125" xlink:href="#e"/>
<use x="188.378906" xlink:href="#d"/>
<use x="249.902344" xlink:href="#i"/>
<use x="291.015625" xlink:href="#h"/>
<use x="352.294922" xlink:href="#j"/>
</g>
</g>
<g clip-path="url(#a)">
<g transform="translate(1121.9 740.94) scale(.1 -.1)">
<use xlink:href="#d"/>
<use x="61.523438" xlink:href="#e"/>
<use x="124.902344" xlink:href="#o"/>
<use x="164.111328" xlink:href="#v"/>
<use x="227.490234" xlink:href="#s"/>
<use x="290.869141" xlink:href="#p"/>
<use x="342.96875" xlink:href="#g"/>
<use x="370.751953" xlink:href="#h"/>
<use x="432.03125" xlink:href="#p"/>
<use x="484.130859" xlink:href="#k"/>
</g>
</g>
<g clip-path="url(#a)">
<g transform="translate(1225.7 740.94) scale(.1 -.1)">
<use xlink:href="#r"/>
<use x="61.181641" xlink:href="#e"/>
</g>
</g>
<g clip-path="url(#a)">
<g transform="translate(1301.4 740.94) scale(.1 -.1)">
<use xlink:href="#aj"/>
<use x="63.476562" xlink:href="#r"/>
<use x="124.658203" xlink:href="#h"/>
<use x="185.9375" xlink:href="#i"/>
<use x="225.300781" xlink:href="#ad"/>
</g>
</g>
<g clip-path="url(#a)">
<g transform="translate(1401 740.94) scale(.1 -.1)">
<defs>
<path id="f" d="m10.688 12.406h10.312v-12.406h-10.312z"/>
</defs>
<use xlink:href="#f"/>
</g>
</g>
<g clip-path="url(#a)">
<g transform="translate(125.59 37.911) scale(.1 -.1)">
<defs>
<path id="c" d="m12.406 8.2969h16.109v55.625l-17.531-3.5156v8.9844l17.438 3.5156h9.8594v-64.609h16.109v-8.2969h-41.984z"/>
</defs>
<use xlink:href="#c"/>
<use x="63.623047" xlink:href="#f"/>
<use x="95.410156" xlink:href="#c"/>
</g>
</g>
<g clip-path="url(#a)">
<g transform="translate(125.59 126.61) scale(.1 -.1)">
<defs>
<path id="n" d="m19.188 8.2969h34.422v-8.2969h-46.281v8.2969q5.6094 5.8125 15.297 15.594 9.7031 9.7969 12.188 12.641 4.7344 5.3125 6.6094 9 1.8906 3.6875 1.8906 7.25 0 5.8125-4.0781 9.4688-4.0781 3.6719-10.625 3.6719-4.6406 0-9.7969-1.6094-5.1406-1.6094-11-4.8906v9.9688q5.9531 2.3906 11.125 3.6094 5.1875 1.2188 9.4844 1.2188 11.328 0 18.062-5.6719 6.7344-5.6562 6.7344-15.125 0-4.5-1.6875-8.5312-1.6719-4.0156-6.125-9.4844-1.2188-1.4219-7.7656-8.1875-6.5312-6.7656-18.453-18.922z"/>
</defs>
<use xlink:href="#c"/>
<use x="63.623047" xlink:href="#f"/>
<use x="95.410156" xlink:href="#n"/>
</g>
</g>
<g clip-path="url(#a)">
<g transform="translate(68.956 567.6) scale(.1 -.1)">
<defs>
<path id="m" d="m40.578 39.312q7.0781-1.5156 11.047-6.3125 3.9844-4.7812 3.9844-11.812 0-10.781-7.4219-16.703-7.4219-5.9062-21.094-5.9062-4.5781 0-9.4375 0.90625t-10.031 2.7188v9.5156q4.0938-2.3906 8.9688-3.6094 4.8906-1.2188 10.219-1.2188 9.2656 0 14.125 3.6562t4.8594 10.641q0 6.4531-4.5156 10.078-4.5156 3.6406-12.562 3.6406h-8.5v8.1094h8.8906q7.2656 0 11.125 2.9062t3.8594 8.375q0 5.6094-3.9844 8.6094-3.9688 3.0156-11.391 3.0156-4.0625 0-8.7031-0.89062-4.6406-0.875-10.203-2.7188v8.7812q5.625 1.5625 10.531 2.3438t9.25 0.78125q11.234 0 17.766-5.1094 6.5469-5.0938 6.5469-13.781 0-6.0625-3.4688-10.234t-9.8594-5.7812z"/>
</defs>
<use xlink:href="#c"/>
<use x="63.623047" xlink:href="#f"/>
<use x="95.410156" xlink:href="#m"/>
</g>
</g>
<g clip-path="url(#a)">
<g transform="translate(67.51 654.87) scale(.1 -.1)">
<defs>
<path id="u" d="m37.797 64.312-24.906-38.922h24.906zm-2.5938 8.5938h12.406v-47.516h10.406v-8.2031h-10.406v-17.188h-9.8125v17.188h-32.906v9.5156z"/>
</defs>
<use xlink:href="#c"/>
<use x="63.623047" xlink:href="#f"/>
<use x="95.410156" xlink:href="#u"/>
</g>
</g>
<g clip-path="url(#a)">
<g transform="translate(102.21 567.6) scale(.1 -.1)">
<defs>
<path id="ag" d="m10.797 72.906h38.719v-8.3125h-29.688v-17.859q2.1406 0.73438 4.2812 1.0938 2.1562 0.35938 4.3125 0.35938 12.203 0 19.328-6.6875 7.1406-6.6875 7.1406-18.109 0-11.766-7.3281-18.297-7.3281-6.5156-20.656-6.5156-4.5938 0-9.3594 0.78125-4.75 0.78125-9.8281 2.3438v9.9219q4.3906-2.3906 9.0781-3.5625t9.9062-1.1719q8.4531 0 13.375 4.4375 4.9375 4.4375 4.9375 12.062 0 7.6094-4.9375 12.047-4.9219 4.4531-13.375 4.4531-3.9531 0-7.8906-0.875-3.9219-0.875-8.0156-2.7344z"/>
</defs>
<use xlink:href="#c"/>
<use x="63.623047" xlink:href="#f"/>
<use x="95.410156" xlink:href="#ag"/>
</g>
</g>
<g clip-path="url(#a)">
<g transform="translate(131.12 654.87) scale(.1 -.1)">
<defs>
<path id="ab" d="m33.016 40.375q-6.6406 0-10.531-4.5469-3.875-4.5312-3.875-12.438 0-7.8594 3.875-12.438 3.8906-4.5625 10.531-4.5625t10.516 4.5625q3.875 4.5781 3.875 12.438 0 7.9062-3.875 12.438-3.875 4.5469-10.516 4.5469zm19.578 30.922v-8.9844q-3.7188 1.75-7.5 2.6719-3.7812 0.9375-7.5 0.9375-9.7656 0-14.922-6.5938-5.1406-6.5938-5.875-19.922 2.875 4.25 7.2188 6.5156 4.3594 2.2656 9.5781 2.2656 10.984 0 17.359-6.6719 6.375-6.6562 6.375-18.125 0-11.234-6.6406-18.031-6.6406-6.7812-17.672-6.7812-12.656 0-19.344 9.6875-6.6875 9.7031-6.6875 28.109 0 17.281 8.2031 27.562t22.016 10.281q3.7188 0 7.5-0.73438t7.8906-2.1875z"/>
</defs>
<use xlink:href="#c"/>
<use x="63.623047" xlink:href="#f"/>
<use x="95.410156" xlink:href="#ab"/>
</g>
</g>
<g clip-path="url(#a)">
<g transform="translate(258.14 215.18) scale(.1 -.1)">
<defs>
<path id="aa" d="m8.2031 72.906h46.875v-4.2031l-26.469-68.703h-10.297l24.906 64.594h-35.016z"/>
</defs>
<use xlink:href="#c"/>
<use x="63.623047" xlink:href="#f"/>
<use x="95.410156" xlink:href="#aa"/>
</g>
</g>
<g clip-path="url(#a)">
<g transform="translate(154.25 654.87) scale(.1 -.1)">
<defs>
<path id="z" d="m31.781 34.625q-7.0312 0-11.062-3.7656-4.0156-3.7656-4.0156-10.344 0-6.5938 4.0156-10.359 4.0312-3.7656 11.062-3.7656t11.078 3.7812q4.0625 3.7969 4.0625 10.344 0 6.5781-4.0312 10.344-4.0156 3.7656-11.109 3.7656zm-9.8594 4.1875q-6.3438 1.5625-9.8906 5.9062-3.5312 4.3594-3.5312 10.609 0 8.7344 6.2188 13.812 6.2344 5.0781 17.062 5.0781 10.891 0 17.094-5.0781t6.2031-13.812q0-6.25-3.5469-10.609-3.5312-4.3438-9.8281-5.9062 7.125-1.6562 11.094-6.5 3.9844-4.8281 3.9844-11.797 0-10.609-6.4688-16.281-6.4688-5.6562-18.531-5.6562-12.047 0-18.531 5.6562-6.4688 5.6719-6.4688 16.281 0 6.9688 4 11.797 4.0156 4.8438 11.141 6.5zm-3.6094 15.578q0-5.6562 3.5312-8.8281 3.5469-3.1719 9.9375-3.1719 6.3594 0 9.9375 3.1719 3.5938 3.1719 3.5938 8.8281 0 5.6719-3.5938 8.8438-3.5781 3.1719-9.9375 3.1719-6.3906 0-9.9375-3.1719-3.5312-3.1719-3.5312-8.8438z"/>
</defs>
<use xlink:href="#c"/>
<use x="63.623047" xlink:href="#f"/>
<use x="95.410156" xlink:href="#z"/>
</g>
</g>
<g clip-path="url(#a)">
<g transform="translate(439.92 303.61) scale(.1 -.1)">
<defs>
<path id="y" d="m10.984 1.5156v8.9844q3.7188-1.7656 7.5156-2.6875 3.8125-0.92188 7.4844-0.92188 9.7656 0 14.906 6.5625 5.1562 6.5625 5.8906 19.953-2.8281-4.2031-7.1875-6.4531-4.3438-2.25-9.6094-2.25-10.938 0-17.312 6.6094-6.375 6.625-6.375 18.109 0 11.219 6.6406 18 6.6406 6.7969 17.672 6.7969 12.656 0 19.312-9.7031 6.6719-9.6875 6.6719-28.141 0-17.234-8.1875-27.516-8.1719-10.281-21.984-10.281-3.7188 0-7.5312 0.73438-3.7969 0.73438-7.9062 2.2031zm19.625 30.906q6.6406 0 10.516 4.5312 3.8906 4.5469 3.8906 12.469 0 7.8594-3.8906 12.422-3.875 4.5625-10.516 4.5625t-10.516-4.5625-3.875-12.422q0-7.9219 3.875-12.469 3.875-4.5312 10.516-4.5312z"/>
</defs>
<use xlink:href="#c"/>
<use x="63.623047" xlink:href="#f"/>
<use x="95.410156" xlink:href="#y"/>
</g>
</g>
<g clip-path="url(#a)">
<g transform="translate(206 654.87) scale(.1 -.1)">
<use xlink:href="#c"/>
<use x="63.623047" xlink:href="#f"/>
<use x="95.410156" xlink:href="#c"/>
<use x="159.033203" xlink:href="#c"/>
</g>
</g>
<g clip-path="url(#a)">
<g transform="translate(278.04 391.85) scale(.1 -.1)">
<use xlink:href="#c"/>
<use x="63.623047" xlink:href="#f"/>
<use x="95.410156" xlink:href="#c"/>
<use x="159.033203" xlink:href="#n"/>
</g>
</g>
<g clip-path="url(#a)">
<g transform="translate(596.32 654.87) scale(.1 -.1)">
<use xlink:href="#c"/>
<use x="63.623047" xlink:href="#f"/>
<use x="95.410156" xlink:href="#c"/>
<use x="159.033203" xlink:href="#m"/>
</g>
</g>
<g clip-path="url(#a)">
<g transform="translate(666.58 391.85) scale(.1 -.1)">
<use xlink:href="#c"/>
<use x="63.623047" xlink:href="#f"/>
<use x="95.410156" xlink:href="#c"/>
<use x="159.033203" xlink:href="#u"/>
</g>
</g>
<g clip-path="url(#a)">
<g transform="translate(654.14 654.87) scale(.1 -.1)">
<use xlink:href="#c"/>
<use x="63.623047" xlink:href="#f"/>
<use x="95.410156" xlink:href="#c"/>
<use x="159.033203" xlink:href="#ag"/>
</g>
</g>
<g clip-path="url(#a)">
<g transform="translate(779.43 654.87) scale(.1 -.1)">
<use xlink:href="#c"/>
<use x="63.623047" xlink:href="#f"/>
<use x="95.410156" xlink:href="#c"/>
<use x="159.033203" xlink:href="#ab"/>
</g>
</g>
<g clip-path="url(#a)">
<g transform="translate(1081.7 479.88) scale(.1 -.1)">
<use xlink:href="#c"/>
<use x="63.623047" xlink:href="#f"/>
<use x="95.410156" xlink:href="#c"/>
<use x="159.033203" xlink:href="#aa"/>
</g>
</g>
<g clip-path="url(#a)">
<g transform="translate(914.36 654.87) scale(.1 -.1)">
<use xlink:href="#c"/>
<use x="63.623047" xlink:href="#f"/>
<use x="95.410156" xlink:href="#c"/>
<use x="159.033203" xlink:href="#z"/>
</g>
</g>
<g clip-path="url(#a)">
<g transform="translate(986.64 654.87) scale(.1 -.1)">
<use xlink:href="#c"/>
<use x="63.623047" xlink:href="#f"/>
<use x="95.410156" xlink:href="#c"/>
<use x="159.033203" xlink:href="#y"/>
</g>
</g>
<g clip-path="url(#a)">
<g transform="translate(1061.8 654.87) scale(.1 -.1)">
<defs>
<path id="ah" d="m31.781 66.406q-7.6094 0-11.453-7.5-3.8281-7.4844-3.8281-22.531 0-14.984 3.8281-22.484 3.8438-7.5 11.453-7.5 7.6719 0 11.5 7.5 3.8438 7.5 3.8438 22.484 0 15.047-3.8438 22.531-3.8281 7.5-11.5 7.5zm0 7.8125q12.266 0 18.734-9.7031 6.4688-9.6875 6.4688-28.141 0-18.406-6.4688-28.109-6.4688-9.6875-18.734-9.6875-12.25 0-18.719 9.6875-6.4688 9.7031-6.4688 28.109 0 18.453 6.4688 28.141 6.4688 9.7031 18.719 9.7031z"/>
</defs>
<use xlink:href="#c"/>
<use x="63.623047" xlink:href="#f"/>
<use x="95.410156" xlink:href="#n"/>
<use x="159.033203" xlink:href="#ah"/>
</g>
</g>
<g clip-path="url(#a)">
<g transform="translate(1139.9 654.87) scale(.1 -.1)">
<use xlink:href="#c"/>
<use x="63.623047" xlink:href="#f"/>
<use x="95.410156" xlink:href="#n"/>
<use x="159.033203" xlink:href="#c"/>
</g>
</g>
<g clip-path="url(#a)">
<g transform="translate(1305.6 567.6) scale(.1 -.1)">
<use xlink:href="#c"/>
<use x="63.623047" xlink:href="#f"/>
<use x="95.410156" xlink:href="#n"/>
<use x="159.033203" xlink:href="#n"/>
</g>
</g>
<g clip-path="url(#a)">
<g transform="translate(1220.8 654.87) scale(.1 -.1)">
<use xlink:href="#c"/>
<use x="63.623047" xlink:href="#f"/>
<use x="95.410156" xlink:href="#n"/>
<use x="159.033203" xlink:href="#m"/>
</g>
</g>
<g clip-path="url(#a)">
<g transform="translate(1304.7 654.87) scale(.1 -.1)">
<use xlink:href="#c"/>
<use x="63.623047" xlink:href="#f"/>
<use x="95.410156" xlink:href="#n"/>
<use x="159.033203" xlink:href="#u"/>
</g>
</g>
<g clip-path="url(#a)">
<g transform="translate(237.8 654.87) scale(.1 -.1)">
<use xlink:href="#c"/>
<use x="63.623047" xlink:href="#f"/>
<use x="95.410156" xlink:href="#n"/>
<use x="159.033203" xlink:href="#ab"/>
</g>
</g>
<g clip-path="url(#a)">
<g transform="translate(272.5 654.87) scale(.1 -.1)">
<use xlink:href="#c"/>
<use x="63.623047" xlink:href="#f"/>
<use x="95.410156" xlink:href="#n"/>
<use x="159.033203" xlink:href="#aa"/>
</g>
</g>
<g clip-path="url(#a)">
<g transform="translate(310.09 654.87) scale(.1 -.1)">
<use xlink:href="#c"/>
<use x="63.623047" xlink:href="#f"/>
<use x="95.410156" xlink:href="#n"/>
<use x="159.033203" xlink:href="#z"/>
</g>
</g>
<g clip-path="url(#a)">
<g transform="translate(418.75 479.88) scale(.1 -.1)">
<use xlink:href="#c"/>
<use x="63.623047" xlink:href="#f"/>
<use x="95.410156" xlink:href="#n"/>
<use x="159.033203" xlink:href="#y"/>
</g>
</g>
<g clip-path="url(#a)">
<g transform="translate(350.56 654.87) scale(.1 -.1)">
<use xlink:href="#c"/>
<use x="63.623047" xlink:href="#f"/>
<use x="95.410156" xlink:href="#m"/>
<use x="159.033203" xlink:href="#ah"/>
</g>
</g>
<g clip-path="url(#a)">
<g transform="translate(393.93 654.87) scale(.1 -.1)">
<use xlink:href="#c"/>
<use x="63.623047" xlink:href="#f"/>
<use x="95.410156" xlink:href="#m"/>
<use x="159.033203" xlink:href="#c"/>
</g>
</g>
<g clip-path="url(#a)">
<g transform="translate(440.19 654.87) scale(.1 -.1)">
<use xlink:href="#c"/>
<use x="63.623047" xlink:href="#f"/>
<use x="95.410156" xlink:href="#m"/>
<use x="159.033203" xlink:href="#n"/>
</g>
</g>
<g clip-path="url(#a)">
<g transform="translate(490.31 567.6) scale(.1 -.1)">
<use xlink:href="#c"/>
<use x="63.623047" xlink:href="#f"/>
<use x="95.410156" xlink:href="#m"/>
<use x="159.033203" xlink:href="#m"/>
</g>
</g>
<g clip-path="url(#a)">
<g transform="translate(489.34 654.87) scale(.1 -.1)">
<use xlink:href="#c"/>
<use x="63.623047" xlink:href="#f"/>
<use x="95.410156" xlink:href="#m"/>
<use x="159.033203" xlink:href="#u"/>
</g>
</g>
<g clip-path="url(#a)">
<g transform="translate(541.39 654.87) scale(.1 -.1)">
<use xlink:href="#c"/>
<use x="63.623047" xlink:href="#f"/>
<use x="95.410156" xlink:href="#m"/>
<use x="159.033203" xlink:href="#ag"/>
</g>
</g>
<g clip-path="url(#a)">
<g transform="translate(90.35 654.87) scale(.1 -.1)">
<use xlink:href="#c"/>
<use x="63.623047" xlink:href="#f"/>
<use x="95.410156" xlink:href="#m"/>
<use x="159.033203" xlink:href="#ab"/>
</g>
</g>
<g clip-path="url(#a)">
<g transform="translate(107.7 654.87) scale(.1 -.1)">
<use xlink:href="#c"/>
<use x="63.623047" xlink:href="#f"/>
<use x="95.410156" xlink:href="#m"/>
<use x="159.033203" xlink:href="#aa"/>
</g>
</g>
<g clip-path="url(#a)">
<g transform="translate(55.655 654.87) scale(.1 -.1)">
<use xlink:href="#c"/>
<use x="63.623047" xlink:href="#f"/>
<use x="95.410156" xlink:href="#m"/>
<use x="159.033203" xlink:href="#z"/>
</g>
</g>
<g clip-path="url(#a)">
<g transform="translate(75.894 654.87) scale(.1 -.1)">
<use xlink:href="#c"/>
<use x="63.623047" xlink:href="#f"/>
<use x="95.410156" xlink:href="#m"/>
<use x="159.033203" xlink:href="#y"/>
</g>
</g>
<g clip-path="url(#a)">
<g transform="translate(177.09 654.87) scale(.1 -.1)">
<use xlink:href="#c"/>
<use x="63.623047" xlink:href="#f"/>
<use x="95.410156" xlink:href="#u"/>
<use x="159.033203" xlink:href="#ah"/>
</g>
</g>
<g clip-path="url(#a)">
<g transform="translate(1391.4 654.87) scale(.1 -.1)">
<use xlink:href="#c"/>
<use x="63.623047" xlink:href="#f"/>
<use x="95.410156" xlink:href="#u"/>
<use x="159.033203" xlink:href="#c"/>
</g>
</g>
<defs>
<clipPath id="a">
<rect width="1469.3" height="773.33"/>
</clipPath>
</defs>
</svg>
