<?xml version="1.0" encoding="UTF-8"?>
<!DOCTYPE svg  PUBLIC '-//W3C//DTD SVG 1.1//EN'  'http://www.w3.org/Graphics/SVG/1.1/DTD/svg11.dtd'>
<svg width="912pt" height="480pt" version="1.1" viewBox="0 0 912 480" xmlns="http://www.w3.org/2000/svg" xmlns:xlink="http://www.w3.org/1999/xlink">
<metadata>
<rdf:RDF xmlns:cc="http://creativecommons.org/ns#" xmlns:dc="http://purl.org/dc/elements/1.1/" xmlns:rdf="http://www.w3.org/1999/02/22-rdf-syntax-ns#">
<cc:Work>
<dc:type rdf:resource="http://purl.org/dc/dcmitype/StillImage"/>
<dc:date>2021-04-28T07:10:54.158794</dc:date>
<dc:format>image/svg+xml</dc:format>
<dc:creator>
<cc:Agent>
<dc:title>Matplotlib v3.3.3, https://matplotlib.org/</dc:title>
</cc:Agent>
</dc:creator>
</cc:Work>
</rdf:RDF>
</metadata>
<defs>
<style type="text/css">*{stroke-linecap:butt;stroke-linejoin:round;}</style>
</defs>
<path d="m0 480h912v-480h-912z" fill="#fff"/>
<g fill="none" stroke="#000">
<path d="m381.42 21.818v62.914" clip-path="url(#a)"/>
<path d="m381.42 84.732-303.45 62.809" clip-path="url(#a)"/>
<path d="m381.42 84.732-109.41 312.31" clip-path="url(#a)"/>
<path d="m381.42 84.732-60.644 312.31" clip-path="url(#a)"/>
<path d="m381.42 84.732-7.4407 312.31" clip-path="url(#a)"/>
<path d="m381.42 84.732 113.75 250.33" clip-path="url(#a)"/>
<path d="m381.42 84.732 367.2 250.33" clip-path="url(#a)"/>
<path d="m77.971 147.54-36.516 249.5" clip-path="url(#a)"/>
<path d="m77.971 147.54 36.516 62.682" clip-path="url(#a)"/>
<path d="m272 397.05v61.136" clip-path="url(#a)"/>
<path d="m320.77 397.05v61.136" clip-path="url(#a)"/>
<path d="m373.98 397.05v61.136" clip-path="url(#a)"/>
<path d="m495.16 335.06-63.549 61.987" clip-path="url(#a)"/>
<path d="m495.16 335.06-1.4779 61.987" clip-path="url(#a)"/>
<path d="m495.16 335.06 65.027 61.987" clip-path="url(#a)"/>
<path d="m748.62 335.06-117.49 61.987" clip-path="url(#a)"/>
<path d="m748.62 335.06-42.12 61.987" clip-path="url(#a)"/>
<path d="m748.62 335.06 37.686 61.987" clip-path="url(#a)"/>
<path d="m748.62 335.06 121.93 61.987" clip-path="url(#a)"/>
<path d="m631.13 397.05v61.136" clip-path="url(#a)"/>
<path d="m706.5 397.05v61.136" clip-path="url(#a)"/>
<path d="m786.31 397.05v61.136" clip-path="url(#a)"/>
<path d="m431.61 397.05v61.136" clip-path="url(#a)"/>
<path d="m493.69 397.05v61.136" clip-path="url(#a)"/>
<path d="m560.19 397.05v61.136" clip-path="url(#a)"/>
<path d="m41.455 397.05v61.136" clip-path="url(#a)"/>
<path d="m114.49 210.22-50.864 124.84" clip-path="url(#a)"/>
<path d="m114.49 210.22-19.828 186.82" clip-path="url(#a)"/>
<path d="m114.49 210.22 70.692 62.524" clip-path="url(#a)"/>
<path d="m63.623 335.06-8.8673 61.987" clip-path="url(#a)"/>
<path d="m63.623 335.06 8.8673 61.987" clip-path="url(#a)"/>
<path d="m94.658 397.05v61.136" clip-path="url(#a)"/>
<path d="m185.18 272.75-63.918 124.3" clip-path="url(#a)"/>
<path d="m185.18 272.75 18.843 62.312" clip-path="url(#a)"/>
<path d="m185.18 272.75 2.5863 124.3" clip-path="url(#a)"/>
<path d="m185.18 272.75 42.489 124.3" clip-path="url(#a)"/>
<path d="m121.26 397.05v61.136" clip-path="url(#a)"/>
<path d="m204.02 335.06 67.982 61.987" clip-path="url(#a)" stroke-dasharray="3.7,1.6"/>
<path d="m204.02 335.06-16.257 61.987" clip-path="url(#a)" stroke-dasharray="3.7,1.6"/>
<path d="m204.02 335.06-51.726 61.987" clip-path="url(#a)"/>
<path d="m187.76 397.05v61.136" clip-path="url(#a)"/>
<path d="m152.3 397.05v61.136" clip-path="url(#a)"/>
<path d="m54.755 397.05v61.136" clip-path="url(#a)"/>
<path d="m72.49 397.05v61.136" clip-path="url(#a)"/>
<path d="m227.67 397.05v61.136" clip-path="url(#a)"/>
<path d="m870.55 397.05v61.136" clip-path="url(#a)"/>
</g>
<path d="m375.15 50.267v6.0162q0 2.4 2.4 2.4h7.7425q2.4 0 2.4-2.4v-6.0162q0-2.4-2.4-2.4h-7.7425q-2.4 0-2.4 2.4z" clip-path="url(#a)" fill="#fff" stroke="#fff"/>
<g clip-path="url(#a)">
<g transform="translate(379.21 50.267) rotate(90) scale(.08 -.08)">
<defs>
<path id="an" d="m9.8125 72.906h9.8594v-29.891h35.844v29.891h9.8594v-72.906h-9.8594v34.719h-35.844v-34.719h-9.8594z"/>
</defs>
<use xlink:href="#an"/>
</g>
</g>
<path d="m228.29 122.83 5.3589-1.1092q2.3502-0.48645 1.8637-2.8366l-1.5693-7.5818q-0.48645-2.3502-2.8366-1.8637l-5.3589 1.1092q-2.3502 0.48645-1.8637 2.8366l1.5693 7.5818q0.48645 2.3502 2.8366 1.8637z" clip-path="url(#a)" fill="#fff" stroke="#fff"/>
<g clip-path="url(#a)">
<g transform="translate(227.46 118.85) rotate(-11.694) scale(.08 -.08)">
<defs>
<path id="q" d="m34.188 63.188-13.391-36.281h26.812zm-5.5781 9.7188h11.188l27.781-72.906h-10.25l-6.6406 18.703h-32.859l-6.6406-18.703h-10.406z"/>
</defs>
<use xlink:href="#q"/>
</g>
</g>
<path d="m331.72 245.54 1.8094-5.1647q0.79352-2.265-1.4715-3.0585l-7.3071-2.5599q-2.265-0.79352-3.0585 1.4715l-1.8094 5.1647q-0.79352 2.265 1.4715 3.0585l7.3071 2.5599q2.265 0.79352 3.0585-1.4715z" clip-path="url(#a)" fill="#fff" stroke="#fff"/>
<g clip-path="url(#a)">
<g transform="translate(327.89 244.2) rotate(-70.693) scale(.08 -.08)">
<use xlink:href="#q"/>
</g>
</g>
<path d="m356.81 244.34 0.87708-4.5169q0.45748-2.356-1.8985-2.8135l-7.6005-1.4759q-2.356-0.45748-2.8135 1.8985l-0.87708 4.5169q-0.45748 2.356 1.8985 2.8135l7.6005 1.4759q2.356 0.45748 2.8135-1.8985z" clip-path="url(#a)" fill="#fff" stroke="#fff"/>
<g clip-path="url(#a)">
<g transform="translate(352.82 243.57) rotate(-79.011) scale(.08 -.08)">
<defs>
<path id="ac" d="m9.8125 72.906h41.891v-8.3125h-32.031v-21.484h28.906v-8.2969h-28.906v-34.812h-9.8594z"/>
</defs>
<use xlink:href="#ac"/>
</g>
</g>
<path d="m383.91 243.58 0.12096-5.0773q0.057163-2.3993-2.3422-2.4565l-7.7403-0.18441q-2.3993-0.057163-2.4565 2.3422l-0.12096 5.0773q-0.057163 2.3993 2.3422 2.4565l7.7403 0.18441q2.3993 0.057163 2.4565-2.3422z" clip-path="url(#a)" fill="#fff" stroke="#fff"/>
<g clip-path="url(#a)">
<g transform="translate(379.84 243.48) rotate(-88.635) scale(.08 -.08)">
<defs>
<path id="ak" d="m53.516 70.516v-9.625q-5.6094 2.6875-10.594 4-4.9844 1.3281-9.625 1.3281-8.0469 0-12.422-3.125t-4.375-8.8906q0-4.8438 2.9062-7.3125 2.9062-2.4531 11.016-3.9688l5.9531-1.2188q11.031-2.1094 16.281-7.4062t5.25-14.172q0-10.609-7.1094-16.078-7.0938-5.4688-20.812-5.4688-5.1719 0-11.016 1.1719-5.8281 1.1719-12.078 3.4688v10.156q6-3.3594 11.766-5.0781 5.7656-1.7031 11.328-1.7031 8.4375 0 13.031 3.3125 4.5938 3.3281 4.5938 9.4844 0 5.3594-3.2969 8.3906t-10.812 4.5469l-6.0156 1.1719q-11.031 2.1875-15.969 6.875-4.9219 4.6875-4.9219 13.047 0 9.6719 6.8125 15.234t18.766 5.5625q5.1406 0 10.453-0.9375 5.3281-0.92188 10.891-2.7656z"/>
</defs>
<use xlink:href="#ak"/>
</g>
</g>
<path d="m431.45 210 2.2639 4.9823q0.99284 2.185 3.1779 1.1922l7.0489-3.203q2.185-0.99284 1.1922-3.1779l-2.2639-4.9823q-0.99284-2.185-3.1779-1.1922l-7.0489 3.203q-2.185 0.99284-1.1922 3.1779z" clip-path="url(#a)" fill="#fff" stroke="#fff"/>
<g clip-path="url(#a)">
<g transform="translate(435.15 208.32) rotate(65.564) scale(.08 -.08)">
<use xlink:href="#q"/>
</g>
</g>
<path d="m558.94 213.34 5.0898 3.4698q1.983 1.3519 3.3349-0.63117l4.3612-6.3974q1.3519-1.983-0.63117-3.3349l-5.0898-3.4698q-1.983-1.3519-3.3349 0.63118l-4.3612 6.3974q-1.3519 1.983 0.63118 3.3349z" clip-path="url(#a)" fill="#fff" stroke="#fff"/>
<g clip-path="url(#a)">
<g transform="translate(561.23 209.98) rotate(34.283) scale(.08 -.08)">
<defs>
<path id="ao" d="m19.672 64.797v-56.688h11.922q15.094 0 22.094 6.8281 7 6.8438 7 21.594 0 14.641-7 21.453t-22.094 6.8125zm-9.8594 8.1094h20.266q21.188 0 31.094-8.8125 9.9219-8.8125 9.9219-27.562 0-18.859-9.9688-27.703-9.9531-8.8281-31.047-8.8281h-20.266z"/>
</defs>
<use xlink:href="#ao"/>
</g>
</g>
<path d="m65.515 275.95 0.80497-5.5002q0.34755-2.3747-2.0272-2.7222l-7.6609-1.1212q-2.3747-0.34755-2.7222 2.0272l-0.80497 5.5002q-0.34755 2.3747 2.0272 2.7222l7.6609 1.1212q2.3747 0.34755 2.7222-2.0272z" clip-path="url(#a)" fill="#fff" stroke="#fff"/>
<g clip-path="url(#a)">
<g transform="translate(61.494 275.36) rotate(-81.674) scale(.08 -.08)">
<defs>
<path id="ab" d="m44.391 34.188q3.1719-1.0781 6.1719-4.5938t6.0312-9.6719l10.016-19.922h-10.609l-9.3125 18.703q-3.625 7.3281-7.0156 9.7188t-9.25 2.3906h-10.75v-30.812h-9.8594v72.906h22.266q12.5 0 18.656-5.2344 6.1562-5.2188 6.1562-15.766 0-6.8906-3.2031-11.438-3.2031-4.5312-9.2969-6.2812zm-24.719 30.609v-25.875h12.406q7.125 0 10.766 3.2969t3.6406 9.6875-3.6406 9.6406-10.766 3.25z"/>
</defs>
<use xlink:href="#ab"/>
</g>
</g>
<path d="m89.404 179.62 2.812 4.8269q1.2081 2.0738 3.2819 0.86568l6.6901-3.8973q2.0738-1.2081 0.86568-3.2819l-2.812-4.8269q-1.2081-2.0738-3.2819-0.86568l-6.6901 3.8973q-2.0738 1.2081-0.86568 3.2819z" clip-path="url(#a)" fill="#fff" stroke="#fff"/>
<g clip-path="url(#a)">
<g transform="translate(92.915 177.58) rotate(59.777) scale(.08 -.08)">
<defs>
<path id="o" d="m64.406 67.281v-10.391q-4.9844 4.6406-10.625 6.9219-5.6406 2.2969-11.984 2.2969-12.5 0-19.141-7.6406t-6.6406-22.094q0-14.406 6.6406-22.047t19.141-7.6406q6.3438 0 11.984 2.2969t10.625 6.9375v-10.312q-5.1719-3.5156-10.969-5.2812-5.7812-1.75-12.219-1.75-16.562 0-26.094 10.125-9.5156 10.141-9.5156 27.672 0 17.578 9.5156 27.703 9.5312 10.141 26.094 10.141 6.5312 0 12.312-1.7344 5.7969-1.7344 10.875-5.2031z"/>
</defs>
<use xlink:href="#o"/>
</g>
</g>
<path d="m265.73 410.71v33.808q0 2.4 2.4 2.4h7.7425q2.4 0 2.4-2.4v-33.808q0-2.4-2.4-2.4h-7.7425q-2.4 0-2.4 2.4z" clip-path="url(#a)" fill="#fff" stroke="#fff"/>
<g clip-path="url(#a)">
<g transform="translate(269.8 410.71) rotate(90) scale(.08 -.08)">
<defs>
<path id="l" d="m-0.29688 72.906h61.672v-8.3125h-25.875v-64.594h-9.9062v64.594h-25.891z"/>
<path id="e" d="m56.203 29.594v-4.3906h-41.312q0.59375-9.2812 5.5938-14.141t13.938-4.8594q5.1719 0 10.031 1.2656t9.6562 3.8125v-8.5q-4.8438-2.0469-9.9219-3.125t-10.297-1.0781q-13.094 0-20.734 7.6094-7.6406 7.625-7.6406 20.625 0 13.422 7.25 21.297 7.25 7.8906 19.562 7.8906 11.031 0 17.453-7.1094 6.4219-7.0938 6.4219-19.297zm-8.9844 2.6406q-0.09375 7.3594-4.125 11.75-4.0312 4.4062-10.672 4.4062-7.5156 0-12.031-4.25t-5.2031-11.969z"/>
<path id="h" d="m41.109 46.297q-1.5156 0.875-3.2969 1.2812-1.7812 0.42188-3.9219 0.42188-7.625 0-11.703-4.9531t-4.0781-14.234v-28.812h-9.0312v54.688h9.0312v-8.5q2.8438 4.9844 7.375 7.3906 4.5469 2.4219 11.047 2.4219 0.92188 0 2.0469-0.125 1.125-0.10938 2.4844-0.35938z"/>
<path id="k" d="m52 44.188q3.375 6.0625 8.0625 8.9375t11.031 2.875q8.5469 0 13.188-5.9844 4.6406-5.9688 4.6406-17v-33.016h-9.0312v32.719q0 7.8594-2.7969 11.656-2.7812 3.8125-8.4844 3.8125-6.9844 0-11.047-4.6406-4.0469-4.625-4.0469-12.641v-30.906h-9.0312v32.719q0 7.9062-2.7812 11.688t-8.5938 3.7812q-6.8906 0-10.953-4.6562-4.0469-4.6562-4.0469-12.625v-30.906h-9.0312v54.688h9.0312v-8.5q3.0781 5.0312 7.375 7.4219t10.203 2.3906q5.9688 0 10.141-3.0312 4.1719-3.0156 6.1719-8.7812z"/>
<path id="f" d="m9.4219 54.688h8.9844v-54.688h-8.9844zm0 21.297h8.9844v-11.391h-8.9844z"/>
<path id="j" d="m54.891 33.016v-33.016h-8.9844v32.719q0 7.7656-3.0312 11.609-3.0312 3.8594-9.0781 3.8594-7.2812 0-11.484-4.6406-4.2031-4.625-4.2031-12.641v-30.906h-9.0312v54.688h9.0312v-8.5q3.2344 4.9375 7.5938 7.375 4.375 2.4375 10.094 2.4375 9.4219 0 14.25-5.8281 4.8438-5.8281 4.8438-17.156z"/>
<path id="g" d="m34.281 27.484q-10.891 0-15.094-2.4844t-4.2031-8.5q0-4.7812 3.1562-7.5938 3.1562-2.7969 8.5625-2.7969 7.4844 0 12 5.2969t4.5156 14.078v2zm17.922 3.7188v-31.203h-8.9844v8.2969q-3.0781-4.9688-7.6719-7.3438t-11.234-2.375q-8.3906 0-13.359 4.7188-4.9531 4.7188-4.9531 12.625 0 9.2188 6.1719 13.906 6.1875 4.6875 18.438 4.6875h12.609v0.89062q0 6.2031-4.0781 9.5938t-11.453 3.3906q-4.6875 0-9.1406-1.125-4.4375-1.125-8.5312-3.375v8.3125q4.9219 1.9062 9.5625 2.8438 4.6406 0.95312 9.0312 0.95312 11.875 0 17.734-6.1562 5.8594-6.1406 5.8594-18.641z"/>
<path id="i" d="m9.4219 75.984h8.9844v-75.984h-8.9844z"/>
</defs>
<use xlink:href="#l"/>
<use x="44.083984" xlink:href="#e"/>
<use x="105.607422" xlink:href="#h"/>
<use x="144.970703" xlink:href="#k"/>
<use x="242.382812" xlink:href="#f"/>
<use x="270.166016" xlink:href="#j"/>
<use x="333.544922" xlink:href="#g"/>
<use x="394.824219" xlink:href="#i"/>
</g>
</g>
<path d="m314.5 410.71v33.808q0 2.4 2.4 2.4h7.7425q2.4 0 2.4-2.4v-33.808q0-2.4-2.4-2.4h-7.7425q-2.4 0-2.4 2.4z" clip-path="url(#a)" fill="#fff" stroke="#fff"/>
<g clip-path="url(#a)">
<g transform="translate(318.57 410.71) rotate(90) scale(.08 -.08)">
<use xlink:href="#l"/>
<use x="44.083984" xlink:href="#e"/>
<use x="105.607422" xlink:href="#h"/>
<use x="144.970703" xlink:href="#k"/>
<use x="242.382812" xlink:href="#f"/>
<use x="270.166016" xlink:href="#j"/>
<use x="333.544922" xlink:href="#g"/>
<use x="394.824219" xlink:href="#i"/>
</g>
</g>
<path d="m367.71 410.71v33.808q0 2.4 2.4 2.4h7.7425q2.4 0 2.4-2.4v-33.808q0-2.4-2.4-2.4h-7.7425q-2.4 0-2.4 2.4z" clip-path="url(#a)" fill="#fff" stroke="#fff"/>
<g clip-path="url(#a)">
<g transform="translate(371.77 410.71) rotate(90) scale(.08 -.08)">
<use xlink:href="#l"/>
<use x="44.083984" xlink:href="#e"/>
<use x="105.607422" xlink:href="#h"/>
<use x="144.970703" xlink:href="#k"/>
<use x="242.382812" xlink:href="#f"/>
<use x="270.166016" xlink:href="#j"/>
<use x="333.544922" xlink:href="#g"/>
<use x="394.824219" xlink:href="#i"/>
</g>
</g>
<path d="m466.12 372.15 3.2938-3.2128q1.718-1.6758 0.042229-3.3938l-5.4062-5.5425q-1.6758-1.718-3.3938-0.04223l-3.2938 3.2128q-1.718 1.6758-0.042229 3.3938l5.4062 5.5425q1.6758 1.718 3.3938 0.042229z" clip-path="url(#a)" fill="#fff" stroke="#fff"/>
<g clip-path="url(#a)">
<g transform="translate(463.28 369.24) rotate(-44.287) scale(.08 -.08)">
<use xlink:href="#ac"/>
</g>
</g>
<path d="m500.63 368.73 0.12049-5.0536q0.057204-2.3993-2.3421-2.4565l-7.7403-0.18454q-2.3993-0.057204-2.4565 2.3421l-0.12049 5.0536q-0.057204 2.3993 2.3421 2.4565l7.7403 0.18454q2.3993 0.057204 2.4565-2.3421z" clip-path="url(#a)" fill="#fff" stroke="#fff"/>
<g clip-path="url(#a)">
<g transform="translate(496.57 368.63) rotate(-88.634) scale(.08 -.08)">
<defs>
<path id="p" d="m9.8125 72.906h46.094v-8.3125h-36.234v-21.578h34.719v-8.2969h-34.719v-26.422h37.109v-8.2969h-46.969z"/>
</defs>
<use xlink:href="#p"/>
</g>
</g>
<path d="m521.33 368.66 4.0435 3.8544q1.7372 1.656 3.3931-0.081211l5.3422-5.6042q1.656-1.7372-0.081211-3.3931l-4.0435-3.8544q-1.7372-1.656-3.3931 0.08121l-5.3422 5.6042q-1.656 1.7372 0.081211 3.3931z" clip-path="url(#a)" fill="#fff" stroke="#fff"/>
<g clip-path="url(#a)">
<g transform="translate(524.13 365.72) rotate(43.629) scale(.08 -.08)">
<use xlink:href="#o"/>
</g>
</g>
<path d="m690.57 372.78 4.4709-2.3588q2.1227-1.1199 1.0028-3.2426l-3.6128-6.8479q-1.1199-2.1227-3.2426-1.0028l-4.4709 2.3588q-2.1227 1.1199-1.0028 3.2426l3.6128 6.8479q1.1199 2.1227 3.2426 1.0028z" clip-path="url(#a)" fill="#fff" stroke="#fff"/>
<g clip-path="url(#a)">
<g transform="translate(688.67 369.18) rotate(-27.815) scale(.08 -.08)">
<use xlink:href="#p"/>
</g>
</g>
<path d="m731.19 371.88 3.1241-4.5978q1.3489-1.9851-0.63624-3.3339l-6.404-4.3515q-1.9851-1.3489-3.3339 0.63624l-3.1241 4.5978q-1.3489 1.9851 0.63624 3.3339l6.404 4.3515q1.9851 1.3489 3.3339-0.63624z" clip-path="url(#a)" fill="#fff" stroke="#fff"/>
<g clip-path="url(#a)">
<g transform="translate(727.82 369.59) rotate(-55.804) scale(.08 -.08)">
<use xlink:href="#ab"/>
</g>
</g>
<path d="m760.65 366.92 2.902 4.7733q1.2468 2.0507 3.2975 0.80396l6.6158-4.0222q2.0507-1.2468 0.80396-3.2975l-2.902-4.7733q-1.2468-2.0507-3.2975-0.80396l-6.6158 4.0222q-2.0507 1.2468-0.80396 3.2975z" clip-path="url(#a)" fill="#fff" stroke="#fff"/>
<g clip-path="url(#a)">
<g transform="translate(764.13 364.81) rotate(58.702) scale(.08 -.08)">
<use xlink:href="#o"/>
</g>
</g>
<path d="m804.13 370.32 5.2192 2.6535q2.1394 1.0877 3.2271-1.0517l3.5089-6.9018q1.0877-2.1394-1.0517-3.2271l-5.2192-2.6535q-2.1394-1.0877-3.2271 1.0517l-3.5089 6.9018q-1.0877 2.1394 1.0517 3.2271z" clip-path="url(#a)" fill="#fff" stroke="#fff"/>
<g clip-path="url(#a)">
<g transform="translate(805.97 366.69) rotate(26.949) scale(.08 -.08)">
<defs>
<path id="aa" d="m8.6875 72.906h9.9219v-44.297q0-11.719 4.2344-16.875 4.25-5.1406 13.781-5.1406 9.4688 0 13.719 5.1406 4.25 5.1562 4.25 16.875v44.297h9.9062v-45.516q0-14.25-7.0625-21.531-7.0469-7.2812-20.812-7.2812-13.828 0-20.891 7.2812-7.0469 7.2812-7.0469 21.531z"/>
</defs>
<use xlink:href="#aa"/>
</g>
</g>
<path d="m624.86 410.71v33.808q0 2.4 2.4 2.4h7.7425q2.4 0 2.4-2.4v-33.808q0-2.4-2.4-2.4h-7.7425q-2.4 0-2.4 2.4z" clip-path="url(#a)" fill="#fff" stroke="#fff"/>
<g clip-path="url(#a)">
<g transform="translate(628.92 410.71) rotate(90) scale(.08 -.08)">
<use xlink:href="#l"/>
<use x="44.083984" xlink:href="#e"/>
<use x="105.607422" xlink:href="#h"/>
<use x="144.970703" xlink:href="#k"/>
<use x="242.382812" xlink:href="#f"/>
<use x="270.166016" xlink:href="#j"/>
<use x="333.544922" xlink:href="#g"/>
<use x="394.824219" xlink:href="#i"/>
</g>
</g>
<path d="m700.23 410.71v33.808q0 2.4 2.4 2.4h7.7425q2.4 0 2.4-2.4v-33.808q0-2.4-2.4-2.4h-7.7425q-2.4 0-2.4 2.4z" clip-path="url(#a)" fill="#fff" stroke="#fff"/>
<g clip-path="url(#a)">
<g transform="translate(704.29 410.71) rotate(90) scale(.08 -.08)">
<use xlink:href="#l"/>
<use x="44.083984" xlink:href="#e"/>
<use x="105.607422" xlink:href="#h"/>
<use x="144.970703" xlink:href="#k"/>
<use x="242.382812" xlink:href="#f"/>
<use x="270.166016" xlink:href="#j"/>
<use x="333.544922" xlink:href="#g"/>
<use x="394.824219" xlink:href="#i"/>
</g>
</g>
<path d="m780.04 410.71v33.808q0 2.4 2.4 2.4h7.7425q2.4 0 2.4-2.4v-33.808q0-2.4-2.4-2.4h-7.7425q-2.4 0-2.4 2.4z" clip-path="url(#a)" fill="#fff" stroke="#fff"/>
<g clip-path="url(#a)">
<g transform="translate(784.1 410.71) rotate(90) scale(.08 -.08)">
<use xlink:href="#l"/>
<use x="44.083984" xlink:href="#e"/>
<use x="105.607422" xlink:href="#h"/>
<use x="144.970703" xlink:href="#k"/>
<use x="242.382812" xlink:href="#f"/>
<use x="270.166016" xlink:href="#j"/>
<use x="333.544922" xlink:href="#g"/>
<use x="394.824219" xlink:href="#i"/>
</g>
</g>
<path d="m425.34 410.71v33.808q0 2.4 2.4 2.4h7.7425q2.4 0 2.4-2.4v-33.808q0-2.4-2.4-2.4h-7.7425q-2.4 0-2.4 2.4z" clip-path="url(#a)" fill="#fff" stroke="#fff"/>
<g clip-path="url(#a)">
<g transform="translate(429.41 410.71) rotate(90) scale(.08 -.08)">
<use xlink:href="#l"/>
<use x="44.083984" xlink:href="#e"/>
<use x="105.607422" xlink:href="#h"/>
<use x="144.970703" xlink:href="#k"/>
<use x="242.382812" xlink:href="#f"/>
<use x="270.166016" xlink:href="#j"/>
<use x="333.544922" xlink:href="#g"/>
<use x="394.824219" xlink:href="#i"/>
</g>
</g>
<path d="m487.41 410.71v33.808q0 2.4 2.4 2.4h7.7425q2.4 0 2.4-2.4v-33.808q0-2.4-2.4-2.4h-7.7425q-2.4 0-2.4 2.4z" clip-path="url(#a)" fill="#fff" stroke="#fff"/>
<g clip-path="url(#a)">
<g transform="translate(491.48 410.71) rotate(90) scale(.08 -.08)">
<use xlink:href="#l"/>
<use x="44.083984" xlink:href="#e"/>
<use x="105.607422" xlink:href="#h"/>
<use x="144.970703" xlink:href="#k"/>
<use x="242.382812" xlink:href="#f"/>
<use x="270.166016" xlink:href="#j"/>
<use x="333.544922" xlink:href="#g"/>
<use x="394.824219" xlink:href="#i"/>
</g>
</g>
<path d="m553.92 410.71v33.808q0 2.4 2.4 2.4h7.7425q2.4 0 2.4-2.4v-33.808q0-2.4-2.4-2.4h-7.7425q-2.4 0-2.4 2.4z" clip-path="url(#a)" fill="#fff" stroke="#fff"/>
<g clip-path="url(#a)">
<g transform="translate(557.98 410.71) rotate(90) scale(.08 -.08)">
<use xlink:href="#l"/>
<use x="44.083984" xlink:href="#e"/>
<use x="105.607422" xlink:href="#h"/>
<use x="144.970703" xlink:href="#k"/>
<use x="242.382812" xlink:href="#f"/>
<use x="270.166016" xlink:href="#j"/>
<use x="333.544922" xlink:href="#g"/>
<use x="394.824219" xlink:href="#i"/>
</g>
</g>
<path d="m35.183 410.71v33.808q0 2.4 2.4 2.4h7.7425q2.4 0 2.4-2.4v-33.808q0-2.4-2.4-2.4h-7.7425q-2.4 0-2.4 2.4z" clip-path="url(#a)" fill="#fff" stroke="#fff"/>
<g clip-path="url(#a)">
<g transform="translate(39.247 410.71) rotate(90) scale(.08 -.08)">
<use xlink:href="#l"/>
<use x="44.083984" xlink:href="#e"/>
<use x="105.607422" xlink:href="#h"/>
<use x="144.970703" xlink:href="#k"/>
<use x="242.382812" xlink:href="#f"/>
<use x="270.166016" xlink:href="#j"/>
<use x="333.544922" xlink:href="#g"/>
<use x="394.824219" xlink:href="#i"/>
</g>
</g>
<path d="m93.808 277.59 2.1078-5.1733q0.90558-2.2226-1.317-3.1282l-7.1702-2.9214q-2.2226-0.90558-3.1282 1.317l-2.1078 5.1733q-0.90558 2.2226 1.317 3.1282l7.1702 2.9214q2.2226 0.90558 3.1282-1.317z" clip-path="url(#a)" fill="#fff" stroke="#fff"/>
<g clip-path="url(#a)">
<g transform="translate(90.045 276.06) rotate(-67.832) scale(.08 -.08)">
<use xlink:href="#o"/>
</g>
</g>
<path d="m110.49 307.27 0.63166-5.9516q0.2533-2.3866-2.1333-2.6399l-7.6993-0.81715q-2.3866-0.2533-2.6399 2.1333l-0.63166 5.9516q-0.2533 2.3866 2.1333 2.6399l7.6993 0.81715q2.3866 0.2533 2.6399-2.1333z" clip-path="url(#a)" fill="#fff" stroke="#fff"/>
<g clip-path="url(#a)">
<g transform="translate(106.45 306.84) rotate(-83.942) scale(.08 -.08)">
<defs>
<path id="am" d="m9.8125 72.906h13.281l32.328-60.984v60.984h9.5625v-72.906h-13.281l-32.312 60.984v-60.984h-9.5781z"/>
</defs>
<use xlink:href="#am"/>
</g>
</g>
<path d="m143.59 244.33 4.1844 3.7009q1.7977 1.59 3.3878-0.20772l5.1295-5.7996q1.59-1.7977-0.20772-3.3878l-4.1844-3.7009q-1.7977-1.59-3.3878 0.20771l-5.1295 5.7996q-1.59 1.7977 0.20772 3.3878z" clip-path="url(#a)" fill="#fff" stroke="#fff"/>
<g clip-path="url(#a)">
<g transform="translate(146.28 241.29) rotate(41.491) scale(.08 -.08)">
<use xlink:href="#o"/>
</g>
</g>
<path d="m65.039 369.44 0.71584-5.0041q0.33986-2.3758-2.036-2.7157l-7.6645-1.0964q-2.3758-0.33986-2.7157 2.036l-0.71584 5.0041q-0.33986 2.3758 2.036 2.7157l7.6645 1.0964q2.3758 0.33986 2.7157-2.036z" clip-path="url(#a)" fill="#fff" stroke="#fff"/>
<g clip-path="url(#a)">
<g transform="translate(61.016 368.87) rotate(-81.859) scale(.08 -.08)">
<use xlink:href="#p"/>
</g>
</g>
<path d="m61.453 364.18 0.79107 5.53q0.33986 2.3758 2.7157 2.036l7.6645-1.0964q2.3758-0.33986 2.036-2.7157l-0.79107-5.53q-0.33986-2.3758-2.7157-2.036l-7.6645 1.0964q-2.3758 0.33986-2.036 2.7157z" clip-path="url(#a)" fill="#fff" stroke="#fff"/>
<g clip-path="url(#a)">
<g transform="translate(65.476 363.6) rotate(81.859) scale(.08 -.08)">
<use xlink:href="#o"/>
</g>
</g>
<path d="m88.387 410.71v33.808q0 2.4 2.4 2.4h7.7425q2.4 0 2.4-2.4v-33.808q0-2.4-2.4-2.4h-7.7425q-2.4 0-2.4 2.4z" clip-path="url(#a)" fill="#fff" stroke="#fff"/>
<g clip-path="url(#a)">
<g transform="translate(92.451 410.71) rotate(90) scale(.08 -.08)">
<use xlink:href="#l"/>
<use x="44.083984" xlink:href="#e"/>
<use x="105.607422" xlink:href="#h"/>
<use x="144.970703" xlink:href="#k"/>
<use x="242.382812" xlink:href="#f"/>
<use x="270.166016" xlink:href="#j"/>
<use x="333.544922" xlink:href="#g"/>
<use x="394.824219" xlink:href="#i"/>
</g>
</g>
<path d="m157.64 340.01 2.3117-4.4954q1.0975-2.1343-1.0368-3.2319l-6.8855-3.5407q-2.1343-1.0975-3.2319 1.0368l-2.3117 4.4954q-1.0975 2.1343 1.0368 3.2319l6.8855 3.5407q2.1343 1.0975 3.2319-1.0368z" clip-path="url(#a)" fill="#fff" stroke="#fff"/>
<g clip-path="url(#a)">
<g transform="translate(154.03 338.15) rotate(-62.786) scale(.08 -.08)">
<use xlink:href="#p"/>
</g>
</g>
<path d="m187.87 303.3 1.4632 4.8386q0.69469 2.2973 2.9919 1.6026l7.4111-2.2411q2.2973-0.69469 1.6026-2.9919l-1.4632-4.8386q-0.69469-2.2973-2.9919-1.6026l-7.4111 2.2411q-2.2973 0.69469-1.6026 2.9919z" clip-path="url(#a)" fill="#fff" stroke="#fff"/>
<g clip-path="url(#a)">
<g transform="translate(191.76 302.12) rotate(73.175) scale(.08 -.08)">
<use xlink:href="#p"/>
</g>
</g>
<path d="m180.14 332.23 0.11621 5.585q0.049926 2.3995 2.4494 2.3496l7.7408-0.16106q2.3995-0.049926 2.3496-2.4494l-0.11621-5.585q-0.049926-2.3995-2.4494-2.3496l-7.7408 0.16106q-2.3995 0.049926-2.3496 2.4494z" clip-path="url(#a)" fill="#fff" stroke="#fff"/>
<g clip-path="url(#a)">
<g transform="translate(184.21 332.15) rotate(88.808) scale(.08 -.08)">
<use xlink:href="#o"/>
</g>
</g>
<path d="m199.54 334.15 1.8938 5.5403q0.77629 2.271 3.0473 1.4947l7.3263-2.5043q2.271-0.77629 1.4947-3.0473l-1.8938-5.5403q-0.77629-2.271-3.0473-1.4947l-7.3263 2.5043q-2.271 0.77629-1.4947 3.0473z" clip-path="url(#a)" fill="#fff" stroke="#fff"/>
<g clip-path="url(#a)">
<g transform="translate(203.39 332.84) rotate(71.128) scale(.08 -.08)">
<use xlink:href="#aa"/>
</g>
</g>
<path d="m114.99 410.71v33.808q0 2.4 2.4 2.4h7.7425q2.4 0 2.4-2.4v-33.808q0-2.4-2.4-2.4h-7.7425q-2.4 0-2.4 2.4z" clip-path="url(#a)" fill="#fff" stroke="#fff"/>
<g clip-path="url(#a)">
<g transform="translate(119.05 410.71) rotate(90) scale(.08 -.08)">
<use xlink:href="#l"/>
<use x="44.083984" xlink:href="#e"/>
<use x="105.607422" xlink:href="#h"/>
<use x="144.970703" xlink:href="#k"/>
<use x="242.382812" xlink:href="#f"/>
<use x="270.166016" xlink:href="#j"/>
<use x="333.544922" xlink:href="#g"/>
<use x="394.824219" xlink:href="#i"/>
</g>
</g>
<path d="m231.77 368.84 4.0439 3.6872q1.7735 1.617 3.3905-0.15641l5.2167-5.7212q1.617-1.7735-0.15641-3.3905l-4.0439-3.6872q-1.7735-1.617-3.3905 0.15641l-5.2167 5.7212q-1.617 1.7735 0.15641 3.3905z" clip-path="url(#a)" fill="#fff" stroke="#fff"/>
<g clip-path="url(#a)">
<g transform="translate(234.5 365.84) rotate(42.359) scale(.08 -.08)">
<use xlink:href="#q"/>
</g>
</g>
<path d="m201.27 370.29 1.3883-5.2935q0.60884-2.3215-1.7127-2.9303l-7.4892-1.9641q-2.3215-0.60884-2.9303 1.7127l-1.3883 5.2935q-0.60884 2.3215 1.7127 2.9303l7.4892 1.9641q2.3215 0.60884 2.9303-1.7127z" clip-path="url(#a)" fill="#fff" stroke="#fff"/>
<g clip-path="url(#a)">
<g transform="translate(197.33 369.26) rotate(-75.305) scale(.08 -.08)">
<use xlink:href="#q"/>
</g>
</g>
<path d="m181.43 371.92 3.0906-3.7036q1.5377-1.8427-0.30503-3.3804l-5.9446-4.9606q-1.8427-1.5377-3.3804 0.30503l-3.0906 3.7036q-1.5377 1.8427 0.30503 3.3804l5.9446 4.9606q1.8427 1.5377 3.3804-0.30503z" clip-path="url(#a)" fill="#fff" stroke="#fff"/>
<g clip-path="url(#a)">
<g transform="translate(178.31 369.32) rotate(-50.156) scale(.08 -.08)">
<defs>
<path id="al" d="m19.672 64.797v-27.391h12.406q6.8906 0 10.641 3.5625 3.7656 3.5625 3.7656 10.156 0 6.5469-3.7656 10.109-3.75 3.5625-10.641 3.5625zm-9.8594 8.1094h22.266q12.266 0 18.531-5.5469 6.2812-5.5469 6.2812-16.234 0-10.797-6.2812-16.312-6.2656-5.5156-18.531-5.5156h-12.406v-29.297h-9.8594z"/>
</defs>
<use xlink:href="#al"/>
</g>
</g>
<path d="m181.49 410.71v33.808q0 2.4 2.4 2.4h7.7425q2.4 0 2.4-2.4v-33.808q0-2.4-2.4-2.4h-7.7425q-2.4 0-2.4 2.4z" clip-path="url(#a)" fill="#fff" stroke="#fff"/>
<g clip-path="url(#a)">
<g transform="translate(185.56 410.71) rotate(90) scale(.08 -.08)">
<use xlink:href="#l"/>
<use x="44.083984" xlink:href="#e"/>
<use x="105.607422" xlink:href="#h"/>
<use x="144.970703" xlink:href="#k"/>
<use x="242.382812" xlink:href="#f"/>
<use x="270.166016" xlink:href="#j"/>
<use x="333.544922" xlink:href="#g"/>
<use x="394.824219" xlink:href="#i"/>
</g>
</g>
<path d="m146.02 410.71v33.808q0 2.4 2.4 2.4h7.7425q2.4 0 2.4-2.4v-33.808q0-2.4-2.4-2.4h-7.7425q-2.4 0-2.4 2.4z" clip-path="url(#a)" fill="#fff" stroke="#fff"/>
<g clip-path="url(#a)">
<g transform="translate(150.09 410.71) rotate(90) scale(.08 -.08)">
<use xlink:href="#l"/>
<use x="44.083984" xlink:href="#e"/>
<use x="105.607422" xlink:href="#h"/>
<use x="144.970703" xlink:href="#k"/>
<use x="242.382812" xlink:href="#f"/>
<use x="270.166016" xlink:href="#j"/>
<use x="333.544922" xlink:href="#g"/>
<use x="394.824219" xlink:href="#i"/>
</g>
</g>
<path d="m48.484 410.71v33.808q0 2.4 2.4 2.4h7.7425q2.4 0 2.4-2.4v-33.808q0-2.4-2.4-2.4h-7.7425q-2.4 0-2.4 2.4z" clip-path="url(#a)" fill="#fff" stroke="#fff"/>
<g clip-path="url(#a)">
<g transform="translate(52.548 410.71) rotate(90) scale(.08 -.08)">
<use xlink:href="#l"/>
<use x="44.083984" xlink:href="#e"/>
<use x="105.607422" xlink:href="#h"/>
<use x="144.970703" xlink:href="#k"/>
<use x="242.382812" xlink:href="#f"/>
<use x="270.166016" xlink:href="#j"/>
<use x="333.544922" xlink:href="#g"/>
<use x="394.824219" xlink:href="#i"/>
</g>
</g>
<path d="m66.219 410.71v33.808q0 2.4 2.4 2.4h7.7425q2.4 0 2.4-2.4v-33.808q0-2.4-2.4-2.4h-7.7425q-2.4 0-2.4 2.4z" clip-path="url(#a)" fill="#fff" stroke="#fff"/>
<g clip-path="url(#a)">
<g transform="translate(70.283 410.71) rotate(90) scale(.08 -.08)">
<use xlink:href="#l"/>
<use x="44.083984" xlink:href="#e"/>
<use x="105.607422" xlink:href="#h"/>
<use x="144.970703" xlink:href="#k"/>
<use x="242.382812" xlink:href="#f"/>
<use x="270.166016" xlink:href="#j"/>
<use x="333.544922" xlink:href="#g"/>
<use x="394.824219" xlink:href="#i"/>
</g>
</g>
<path d="m221.4 410.71v33.808q0 2.4 2.4 2.4h7.7425q2.4 0 2.4-2.4v-33.808q0-2.4-2.4-2.4h-7.7425q-2.4 0-2.4 2.4z" clip-path="url(#a)" fill="#fff" stroke="#fff"/>
<g clip-path="url(#a)">
<g transform="translate(225.46 410.71) rotate(90) scale(.08 -.08)">
<use xlink:href="#l"/>
<use x="44.083984" xlink:href="#e"/>
<use x="105.607422" xlink:href="#h"/>
<use x="144.970703" xlink:href="#k"/>
<use x="242.382812" xlink:href="#f"/>
<use x="270.166016" xlink:href="#j"/>
<use x="333.544922" xlink:href="#g"/>
<use x="394.824219" xlink:href="#i"/>
</g>
</g>
<path d="m864.27 410.71v33.808q0 2.4 2.4 2.4h7.7425q2.4 0 2.4-2.4v-33.808q0-2.4-2.4-2.4h-7.7425q-2.4 0-2.4 2.4z" clip-path="url(#a)" fill="#fff" stroke="#fff"/>
<g clip-path="url(#a)">
<g transform="translate(868.34 410.71) rotate(90) scale(.08 -.08)">
<use xlink:href="#l"/>
<use x="44.083984" xlink:href="#e"/>
<use x="105.607422" xlink:href="#h"/>
<use x="144.970703" xlink:href="#k"/>
<use x="242.382812" xlink:href="#f"/>
<use x="270.166016" xlink:href="#j"/>
<use x="333.544922" xlink:href="#g"/>
<use x="394.824219" xlink:href="#i"/>
</g>
</g>
<defs>
<path id="b" d="m0 8.6603c2.2967 0 4.4997-0.9125 6.1237-2.5365 1.624-1.624 2.5365-3.827 2.5365-6.1237s-0.9125-4.4997-2.5365-6.1237c-1.624-1.624-3.827-2.5365-6.1237-2.5365s-4.4997 0.9125-6.1237 2.5365c-1.624 1.624-2.5365 3.827-2.5365 6.1237s0.9125 4.4997 2.5365 6.1237c1.624 1.624 3.827 2.5365 6.1237 2.5365z"/>
</defs>
<g clip-path="url(#a)" fill="#ffffff" stroke="#ffffff">
<use x="41.454545" y="458.181818" xlink:href="#b"/>
<use x="54.755469" y="458.181818" xlink:href="#b"/>
<use x="72.490034" y="458.181818" xlink:href="#b"/>
<use x="94.65824" y="458.181818" xlink:href="#b"/>
<use x="121.260088" y="458.181818" xlink:href="#b"/>
<use x="152.295576" y="458.181818" xlink:href="#b"/>
<use x="187.764706" y="458.181818" xlink:href="#b"/>
<use x="227.667477" y="458.181818" xlink:href="#b"/>
<use x="272.003889" y="458.181818" xlink:href="#b"/>
<use x="320.773943" y="458.181818" xlink:href="#b"/>
<use x="373.977637" y="458.181818" xlink:href="#b"/>
<use x="431.614973" y="458.181818" xlink:href="#b"/>
<use x="493.68595" y="458.181818" xlink:href="#b"/>
<use x="560.190569" y="458.181818" xlink:href="#b"/>
<use x="631.128828" y="458.181818" xlink:href="#b"/>
<use x="706.500729" y="458.181818" xlink:href="#b"/>
<use x="786.306271" y="458.181818" xlink:href="#b"/>
<use x="870.545455" y="458.181818" xlink:href="#b"/>
<use x="381.418355" y="21.818182" xlink:href="#b"/>
<use x="381.418355" y="84.731964" xlink:href="#b"/>
<use x="77.970507" y="147.540489" xlink:href="#b"/>
<use x="272.003889" y="397.045465" xlink:href="#b"/>
<use x="320.773943" y="397.045465" xlink:href="#b"/>
<use x="373.977637" y="397.045465" xlink:href="#b"/>
<use x="495.163831" y="335.058637" xlink:href="#b"/>
<use x="748.620321" y="335.058637" xlink:href="#b"/>
<use x="631.128828" y="397.045465" xlink:href="#b"/>
<use x="706.500729" y="397.045465" xlink:href="#b"/>
<use x="786.306271" y="397.045465" xlink:href="#b"/>
<use x="431.614973" y="397.045465" xlink:href="#b"/>
<use x="493.68595" y="397.045465" xlink:href="#b"/>
<use x="560.190569" y="397.045465" xlink:href="#b"/>
<use x="41.454545" y="397.045465" xlink:href="#b"/>
<use x="114.486469" y="210.222677" xlink:href="#b"/>
<use x="63.622752" y="335.058637" xlink:href="#b"/>
<use x="94.65824" y="397.045465" xlink:href="#b"/>
<use x="185.178415" y="272.746694" xlink:href="#b"/>
<use x="121.260088" y="397.045465" xlink:href="#b"/>
<use x="204.02139" y="335.058637" xlink:href="#b"/>
<use x="187.764706" y="397.045465" xlink:href="#b"/>
<use x="152.295576" y="397.045465" xlink:href="#b"/>
<use x="54.755469" y="397.045465" xlink:href="#b"/>
<use x="72.490034" y="397.045465" xlink:href="#b"/>
<use x="227.667477" y="397.045465" xlink:href="#b"/>
<use x="870.545455" y="397.045465" xlink:href="#b"/>
</g>
<g clip-path="url(#a)">
<g transform="translate(30.105 460.94) scale(.1 -.1)">
<defs>
<path id="aj" d="m3.3281 72.906h9.9531l15.328-61.625 15.281 61.625h11.094l15.328-61.625 15.281 61.625h10.016l-18.312-72.906h-12.406l-15.375 63.281-15.531-63.281h-12.406z"/>
<path id="s" d="m18.312 70.219v-15.531h18.5v-6.9844h-18.5v-29.688q0-6.6875 1.8281-8.5938t7.4531-1.9062h9.2188v-7.5156h-9.2188q-10.406 0-14.359 3.875-3.9531 3.8906-3.9531 14.141v29.688h-6.5938v6.9844h6.5938v15.531z"/>
<path id="n" d="m54.891 33.016v-33.016h-8.9844v32.719q0 7.7656-3.0312 11.609-3.0312 3.8594-9.0781 3.8594-7.2812 0-11.484-4.6406-4.2031-4.625-4.2031-12.641v-30.906h-9.0312v75.984h9.0312v-29.797q3.2344 4.9375 7.5938 7.375 4.375 2.4375 10.094 2.4375 9.4219 0 14.25-5.8281 4.8438-5.8281 4.8438-17.156z"/>
</defs>
<use xlink:href="#aj"/>
<use x="96.626953" xlink:href="#f"/>
<use x="124.410156" xlink:href="#s"/>
<use x="163.619141" xlink:href="#n"/>
</g>
</g>
<g clip-path="url(#a)">
<g transform="translate(47.593 460.94) scale(.1 -.1)">
<defs>
<path id="t" d="m44.281 53.078v-8.5q-3.7969 1.9531-7.9062 2.9219-4.0938 0.98438-8.5 0.98438-6.6875 0-10.031-2.0469t-3.3438-6.1562q0-3.125 2.3906-4.9062t9.625-3.3906l3.0781-0.6875q9.5625-2.0469 13.594-5.7812t4.0312-10.422q0-7.625-6.0312-12.078-6.0312-4.4375-16.578-4.4375-4.3906 0-9.1562 0.85938t-10.031 2.5625v9.2812q4.9844-2.5938 9.8125-3.8906 4.8281-1.2812 9.5781-1.2812 6.3438 0 9.75 2.1719 3.4219 2.1719 3.4219 6.125 0 3.6562-2.4688 5.6094-2.4531 1.9531-10.812 3.7656l-3.125 0.73438q-8.3438 1.75-12.062 5.3906-3.7031 3.6406-3.7031 9.9844 0 7.7188 5.4688 11.906 5.4688 4.2031 15.531 4.2031 4.9688 0 9.3594-0.73438 4.4062-0.71875 8.1094-2.1875z"/>
</defs>
<use xlink:href="#n"/>
<use x="63.378906" xlink:href="#f"/>
<use x="91.162109" xlink:href="#t"/>
</g>
</g>
<g clip-path="url(#a)">
<g transform="translate(63.378 460.94) scale(.1 -.1)">
<defs>
<path id="ag" d="m32.172-5.0781q-3.7969-9.7656-7.4219-12.734-3.6094-2.9844-9.6562-2.9844h-7.1875v7.5156h5.2812q3.7031 0 5.75 1.7656 2.0625 1.75 4.5469 8.2969l1.6094 4.0938-22.109 53.812h9.5156l17.094-42.766 17.094 42.766h9.5156z"/>
</defs>
<use xlink:href="#e"/>
<use x="61.523438" xlink:href="#ag"/>
<use x="120.703125" xlink:href="#e"/>
</g>
</g>
<g clip-path="url(#a)">
<g transform="translate(85.251 460.94) scale(.1 -.1)">
<defs>
<path id="as" d="m45.406 46.391v29.594h8.9844v-75.984h-8.9844v8.2031q-2.8281-4.875-7.1562-7.25-4.3125-2.375-10.375-2.375-9.9062 0-16.141 7.9062-6.2188 7.9219-6.2188 20.812t6.2188 20.797q6.2344 7.9062 16.141 7.9062 6.0625 0 10.375-2.375 4.3281-2.3594 7.1562-7.2344zm-30.609-19.094q0-9.9062 4.0781-15.547t11.203-5.6406 11.219 5.6406q4.1094 5.6406 4.1094 15.547t-4.1094 15.547q-4.0938 5.6406-11.219 5.6406t-11.203-5.6406-4.0781-15.547z"/>
</defs>
<use xlink:href="#g"/>
<use x="61.279297" xlink:href="#j"/>
<use x="124.658203" xlink:href="#as"/>
</g>
</g>
<g clip-path="url(#a)">
<g transform="translate(114.1 460.94) scale(.1 -.1)">
<use xlink:href="#n"/>
<use x="63.378906" xlink:href="#f"/>
<use x="91.162109" xlink:href="#t"/>
</g>
</g>
<g clip-path="url(#a)">
<g transform="translate(130.34 460.94) scale(.1 -.1)">
<defs>
<path id="z" d="m30.609 48.391q-7.2188 0-11.422-5.6406t-4.2031-15.453 4.1719-15.453q4.1875-5.6406 11.453-5.6406 7.1875 0 11.375 5.6562 4.2031 5.6719 4.2031 15.438 0 9.7188-4.2031 15.406-4.1875 5.6875-11.375 5.6875zm0 7.6094q11.719 0 18.406-7.625 6.7031-7.6094 6.7031-21.078 0-13.422-6.7031-21.078-6.6875-7.6406-18.406-7.6406-11.766 0-18.438 7.6406-6.6562 7.6562-6.6562 21.078 0 13.469 6.6562 21.078 6.6719 7.625 18.438 7.625z"/>
<path id="r" d="m4.2031 54.688h8.9844l11.234-42.672 11.172 42.672h10.594l11.234-42.672 11.188 42.672h8.9844l-14.312-54.688h-10.594l-11.766 44.828-11.812-44.828h-10.609z"/>
<path id="aq" d="m45.406 27.984q0 9.7656-4.0312 15.125-4.0156 5.375-11.297 5.375-7.2188 0-11.25-5.375-4.0312-5.3594-4.0312-15.125 0-9.7188 4.0312-15.094t11.25-5.375q7.2812 0 11.297 5.375 4.0312 5.375 4.0312 15.094zm8.9844-21.203q0-13.953-6.2031-20.766-6.1875-6.8125-18.984-6.8125-4.7344 0-8.9375 0.70312t-8.1562 2.1719v8.7344q3.9531-2.1406 7.8125-3.1562 3.8594-1.0312 7.8594-1.0312 8.8438 0 13.234 4.6094t4.3906 13.938v4.4531q-2.7812-4.8438-7.125-7.2344t-10.406-2.3906q-10.047 0-16.203 7.6562-6.1562 7.6719-6.1562 20.328 0 12.688 6.1562 20.344 6.1562 7.6719 16.203 7.6719 6.0625 0 10.406-2.3906t7.125-7.2188v8.2969h8.9844z"/>
</defs>
<use xlink:href="#s"/>
<use x="39.208984" xlink:href="#n"/>
<use x="102.587891" xlink:href="#h"/>
<use x="141.451172" xlink:href="#z"/>
<use x="202.632812" xlink:href="#r"/>
<use x="284.419922" xlink:href="#f"/>
<use x="312.203125" xlink:href="#j"/>
<use x="375.582031" xlink:href="#aq"/>
</g>
</g>
<g clip-path="url(#a)">
<g transform="translate(177.86 460.94) scale(.1 -.1)">
<use xlink:href="#g"/>
<use x="61.279297" xlink:href="#h"/>
<use x="100.642578" xlink:href="#k"/>
</g>
</g>
<g clip-path="url(#a)">
<g transform="translate(226.08 460.94) scale(.1 -.1)">
<defs>
<path id="ap" d="m11.719 12.406h10.297v-8.4062l-8-15.625h-6.2969l4 15.625z"/>
</defs>
<use xlink:href="#ap"/>
</g>
</g>
<g clip-path="url(#a)">
<g transform="translate(265.76 460.94) scale(.1 -.1)">
<use xlink:href="#n"/>
<use x="63.378906" xlink:href="#e"/>
</g>
</g>
<g clip-path="url(#a)">
<g transform="translate(311.02 460.94) scale(.1 -.1)">
<use xlink:href="#r"/>
<use x="81.787109" xlink:href="#g"/>
<use x="143.066406" xlink:href="#t"/>
</g>
</g>
<g clip-path="url(#a)">
<g transform="translate(359.64 460.94) scale(.1 -.1)">
<use xlink:href="#r"/>
<use x="81.787109" xlink:href="#z"/>
<use x="142.96875" xlink:href="#h"/>
<use x="184.082031" xlink:href="#s"/>
<use x="223.291016" xlink:href="#n"/>
</g>
</g>
<g clip-path="url(#a)">
<g transform="translate(423.41 460.94) scale(.1 -.1)">
<use xlink:href="#s"/>
<use x="39.208984" xlink:href="#n"/>
<use x="102.587891" xlink:href="#e"/>
</g>
</g>
<g clip-path="url(#a)">
<g transform="translate(478.9 460.94) scale(.1 -.1)">
<use xlink:href="#r"/>
<use x="81.787109" xlink:href="#n"/>
<use x="145.166016" xlink:href="#z"/>
<use x="206.347656" xlink:href="#i"/>
<use x="234.130859" xlink:href="#e"/>
</g>
</g>
<g clip-path="url(#a)">
<g transform="translate(548.33 460.94) scale(.1 -.1)">
<defs>
<path id="ah" d="m48.781 52.594v-8.4062q-3.8125 2.1094-7.6406 3.1562t-7.7344 1.0469q-8.75 0-13.594-5.5469-4.8281-5.5312-4.8281-15.547t4.8281-15.562q4.8438-5.5312 13.594-5.5312 3.9062 0 7.7344 1.0469t7.6406 3.1562v-8.3125q-3.7656-1.75-7.7969-2.625-4.0156-0.89062-8.5625-0.89062-12.359 0-19.641 7.7656-7.2656 7.7656-7.2656 20.953 0 13.375 7.3438 21.031 7.3594 7.6719 20.156 7.6719 4.1406 0 8.0938-0.85938 3.9531-0.84375 7.6719-2.5469z"/>
</defs>
<use xlink:href="#ah"/>
<use x="54.980469" xlink:href="#h"/>
<use x="93.84375" xlink:href="#e"/>
<use x="155.367188" xlink:href="#r"/>
</g>
</g>
<g clip-path="url(#a)">
<g transform="translate(625.29 460.94) scale(.1 -.1)">
<use xlink:href="#g"/>
<use x="61.279297" xlink:href="#i"/>
<use x="89.0625" xlink:href="#i"/>
</g>
</g>
<g clip-path="url(#a)">
<g transform="translate(700.37 460.94) scale(.1 -.1)">
<defs>
<path id="ai" d="m48.688 27.297q0 9.9062-4.0781 15.547t-11.203 5.6406q-7.1406 0-11.219-5.6406t-4.0781-15.547 4.0781-15.547 11.219-5.6406q7.125 0 11.203 5.6406t4.0781 15.547zm-30.578 19.094q2.8438 4.875 7.1562 7.2344 4.3281 2.375 10.328 2.375 9.9688 0 16.188-7.9062 6.2344-7.9062 6.2344-20.797t-6.2344-20.812q-6.2188-7.9062-16.188-7.9062-6 0-10.328 2.375-4.3125 2.375-7.1562 7.25v-8.2031h-9.0312v75.984h9.0312z"/>
</defs>
<use xlink:href="#ai"/>
<use x="63.476562" xlink:href="#ag"/>
</g>
</g>
<g clip-path="url(#a)">
<g transform="translate(768.05 460.94) scale(.1 -.1)">
<defs>
<path id="ar" d="m37.109 75.984v-7.4844h-8.5938q-4.8281 0-6.7188-1.9531-1.875-1.9531-1.875-7.0312v-4.8281h14.797v-6.9844h-14.797v-47.703h-9.0312v47.703h-8.5938v6.9844h8.5938v3.8125q0 9.125 4.25 13.297 4.25 4.1875 13.469 4.1875z"/>
</defs>
<use xlink:href="#n"/>
<use x="63.378906" xlink:href="#f"/>
<use x="91.162109" xlink:href="#k"/>
<use x="188.574219" xlink:href="#t"/>
<use x="240.673828" xlink:href="#e"/>
<use x="302.197266" xlink:href="#i"/>
<use x="329.980469" xlink:href="#ar"/>
</g>
</g>
<g clip-path="url(#a)">
<g transform="translate(868.96 460.94) scale(.1 -.1)">
<defs>
<path id="d" d="m10.688 12.406h10.312v-12.406h-10.312z"/>
</defs>
<use xlink:href="#d"/>
</g>
</g>
<g clip-path="url(#a)">
<g transform="translate(373.47 24.578) scale(.1 -.1)">
<defs>
<path id="c" d="m12.406 8.2969h16.109v55.625l-17.531-3.5156v8.9844l17.438 3.5156h9.8594v-64.609h16.109v-8.2969h-41.984z"/>
</defs>
<use xlink:href="#c"/>
<use x="63.623047" xlink:href="#d"/>
<use x="95.410156" xlink:href="#c"/>
</g>
</g>
<g clip-path="url(#a)">
<g transform="translate(373.47 87.491) scale(.1 -.1)">
<defs>
<path id="m" d="m19.188 8.2969h34.422v-8.2969h-46.281v8.2969q5.6094 5.8125 15.297 15.594 9.7031 9.7969 12.188 12.641 4.7344 5.3125 6.6094 9 1.8906 3.6875 1.8906 7.25 0 5.8125-4.0781 9.4688-4.0781 3.6719-10.625 3.6719-4.6406 0-9.7969-1.6094-5.1406-1.6094-11-4.8906v9.9688q5.9531 2.3906 11.125 3.6094 5.1875 1.2188 9.4844 1.2188 11.328 0 18.062-5.6719 6.7344-5.6562 6.7344-15.125 0-4.5-1.6875-8.5312-1.6719-4.0156-6.125-9.4844-1.2188-1.4219-7.7656-8.1875-6.5312-6.7656-18.453-18.922z"/>
</defs>
<use xlink:href="#c"/>
<use x="63.623047" xlink:href="#d"/>
<use x="95.410156" xlink:href="#m"/>
</g>
</g>
<g clip-path="url(#a)">
<g transform="translate(70.019 150.3) scale(.1 -.1)">
<defs>
<path id="ad" d="m37.797 64.312-24.906-38.922h24.906zm-2.5938 8.5938h12.406v-47.516h10.406v-8.2031h-10.406v-17.188h-9.8125v17.188h-32.906v9.5156z"/>
</defs>
<use xlink:href="#c"/>
<use x="63.623047" xlink:href="#d"/>
<use x="95.410156" xlink:href="#ad"/>
</g>
</g>
<g clip-path="url(#a)">
<g transform="translate(264.05 399.8) scale(.1 -.1)">
<defs>
<path id="y" d="m10.797 72.906h38.719v-8.3125h-29.688v-17.859q2.1406 0.73438 4.2812 1.0938 2.1562 0.35938 4.3125 0.35938 12.203 0 19.328-6.6875 7.1406-6.6875 7.1406-18.109 0-11.766-7.3281-18.297-7.3281-6.5156-20.656-6.5156-4.5938 0-9.3594 0.78125-4.75 0.78125-9.8281 2.3438v9.9219q4.3906-2.3906 9.0781-3.5625t9.9062-1.1719q8.4531 0 13.375 4.4375 4.9375 4.4375 4.9375 12.062 0 7.6094-4.9375 12.047-4.9219 4.4531-13.375 4.4531-3.9531 0-7.8906-0.875-3.9219-0.875-8.0156-2.7344z"/>
</defs>
<use xlink:href="#c"/>
<use x="63.623047" xlink:href="#d"/>
<use x="95.410156" xlink:href="#y"/>
</g>
</g>
<g clip-path="url(#a)">
<g transform="translate(312.82 399.8) scale(.1 -.1)">
<defs>
<path id="x" d="m33.016 40.375q-6.6406 0-10.531-4.5469-3.875-4.5312-3.875-12.438 0-7.8594 3.875-12.438 3.8906-4.5625 10.531-4.5625t10.516 4.5625q3.875 4.5781 3.875 12.438 0 7.9062-3.875 12.438-3.875 4.5469-10.516 4.5469zm19.578 30.922v-8.9844q-3.7188 1.75-7.5 2.6719-3.7812 0.9375-7.5 0.9375-9.7656 0-14.922-6.5938-5.1406-6.5938-5.875-19.922 2.875 4.25 7.2188 6.5156 4.3594 2.2656 9.5781 2.2656 10.984 0 17.359-6.6719 6.375-6.6562 6.375-18.125 0-11.234-6.6406-18.031-6.6406-6.7812-17.672-6.7812-12.656 0-19.344 9.6875-6.6875 9.7031-6.6875 28.109 0 17.281 8.2031 27.562t22.016 10.281q3.7188 0 7.5-0.73438t7.8906-2.1875z"/>
</defs>
<use xlink:href="#c"/>
<use x="63.623047" xlink:href="#d"/>
<use x="95.410156" xlink:href="#x"/>
</g>
</g>
<g clip-path="url(#a)">
<g transform="translate(366.03 399.8) scale(.1 -.1)">
<defs>
<path id="w" d="m8.2031 72.906h46.875v-4.2031l-26.469-68.703h-10.297l24.906 64.594h-35.016z"/>
</defs>
<use xlink:href="#c"/>
<use x="63.623047" xlink:href="#d"/>
<use x="95.410156" xlink:href="#w"/>
</g>
</g>
<g clip-path="url(#a)">
<g transform="translate(487.21 337.82) scale(.1 -.1)">
<defs>
<path id="v" d="m31.781 34.625q-7.0312 0-11.062-3.7656-4.0156-3.7656-4.0156-10.344 0-6.5938 4.0156-10.359 4.0312-3.7656 11.062-3.7656t11.078 3.7812q4.0625 3.7969 4.0625 10.344 0 6.5781-4.0312 10.344-4.0156 3.7656-11.109 3.7656zm-9.8594 4.1875q-6.3438 1.5625-9.8906 5.9062-3.5312 4.3594-3.5312 10.609 0 8.7344 6.2188 13.812 6.2344 5.0781 17.062 5.0781 10.891 0 17.094-5.0781t6.2031-13.812q0-6.25-3.5469-10.609-3.5312-4.3438-9.8281-5.9062 7.125-1.6562 11.094-6.5 3.9844-4.8281 3.9844-11.797 0-10.609-6.4688-16.281-6.4688-5.6562-18.531-5.6562-12.047 0-18.531 5.6562-6.4688 5.6719-6.4688 16.281 0 6.9688 4 11.797 4.0156 4.8438 11.141 6.5zm-3.6094 15.578q0-5.6562 3.5312-8.8281 3.5469-3.1719 9.9375-3.1719 6.3594 0 9.9375 3.1719 3.5938 3.1719 3.5938 8.8281 0 5.6719-3.5938 8.8438-3.5781 3.1719-9.9375 3.1719-6.3906 0-9.9375-3.1719-3.5312-3.1719-3.5312-8.8438z"/>
</defs>
<use xlink:href="#c"/>
<use x="63.623047" xlink:href="#d"/>
<use x="95.410156" xlink:href="#v"/>
</g>
</g>
<g clip-path="url(#a)">
<g transform="translate(740.67 337.82) scale(.1 -.1)">
<defs>
<path id="u" d="m10.984 1.5156v8.9844q3.7188-1.7656 7.5156-2.6875 3.8125-0.92188 7.4844-0.92188 9.7656 0 14.906 6.5625 5.1562 6.5625 5.8906 19.953-2.8281-4.2031-7.1875-6.4531-4.3438-2.25-9.6094-2.25-10.938 0-17.312 6.6094-6.375 6.625-6.375 18.109 0 11.219 6.6406 18 6.6406 6.7969 17.672 6.7969 12.656 0 19.312-9.7031 6.6719-9.6875 6.6719-28.141 0-17.234-8.1875-27.516-8.1719-10.281-21.984-10.281-3.7188 0-7.5312 0.73438-3.7969 0.73438-7.9062 2.2031zm19.625 30.906q6.6406 0 10.516 4.5312 3.8906 4.5469 3.8906 12.469 0 7.8594-3.8906 12.422-3.875 4.5625-10.516 4.5625t-10.516-4.5625-3.875-12.422q0-7.9219 3.875-12.469 3.875-4.5312 10.516-4.5312z"/>
</defs>
<use xlink:href="#c"/>
<use x="63.623047" xlink:href="#d"/>
<use x="95.410156" xlink:href="#u"/>
</g>
</g>
<g clip-path="url(#a)">
<g transform="translate(620 399.8) scale(.1 -.1)">
<defs>
<path id="af" d="m31.781 66.406q-7.6094 0-11.453-7.5-3.8281-7.4844-3.8281-22.531 0-14.984 3.8281-22.484 3.8438-7.5 11.453-7.5 7.6719 0 11.5 7.5 3.8438 7.5 3.8438 22.484 0 15.047-3.8438 22.531-3.8281 7.5-11.5 7.5zm0 7.8125q12.266 0 18.734-9.7031 6.4688-9.6875 6.4688-28.141 0-18.406-6.4688-28.109-6.4688-9.6875-18.734-9.6875-12.25 0-18.719 9.6875-6.4688 9.7031-6.4688 28.109 0 18.453 6.4688 28.141 6.4688 9.7031 18.719 9.7031z"/>
</defs>
<use xlink:href="#c"/>
<use x="63.623047" xlink:href="#d"/>
<use x="95.410156" xlink:href="#c"/>
<use x="159.033203" xlink:href="#af"/>
</g>
</g>
<g clip-path="url(#a)">
<g transform="translate(695.37 399.8) scale(.1 -.1)">
<use xlink:href="#c"/>
<use x="63.623047" xlink:href="#d"/>
<use x="95.410156" xlink:href="#c"/>
<use x="159.033203" xlink:href="#c"/>
</g>
</g>
<g clip-path="url(#a)">
<g transform="translate(775.17 399.8) scale(.1 -.1)">
<use xlink:href="#c"/>
<use x="63.623047" xlink:href="#d"/>
<use x="95.410156" xlink:href="#c"/>
<use x="159.033203" xlink:href="#m"/>
</g>
</g>
<g clip-path="url(#a)">
<g transform="translate(420.48 399.8) scale(.1 -.1)">
<defs>
<path id="ae" d="m40.578 39.312q7.0781-1.5156 11.047-6.3125 3.9844-4.7812 3.9844-11.812 0-10.781-7.4219-16.703-7.4219-5.9062-21.094-5.9062-4.5781 0-9.4375 0.90625t-10.031 2.7188v9.5156q4.0938-2.3906 8.9688-3.6094 4.8906-1.2188 10.219-1.2188 9.2656 0 14.125 3.6562t4.8594 10.641q0 6.4531-4.5156 10.078-4.5156 3.6406-12.562 3.6406h-8.5v8.1094h8.8906q7.2656 0 11.125 2.9062t3.8594 8.375q0 5.6094-3.9844 8.6094-3.9688 3.0156-11.391 3.0156-4.0625 0-8.7031-0.89062-4.6406-0.875-10.203-2.7188v8.7812q5.625 1.5625 10.531 2.3438t9.25 0.78125q11.234 0 17.766-5.1094 6.5469-5.0938 6.5469-13.781 0-6.0625-3.4688-10.234t-9.8594-5.7812z"/>
</defs>
<use xlink:href="#c"/>
<use x="63.623047" xlink:href="#d"/>
<use x="95.410156" xlink:href="#c"/>
<use x="159.033203" xlink:href="#ae"/>
</g>
</g>
<g clip-path="url(#a)">
<g transform="translate(482.55 399.8) scale(.1 -.1)">
<use xlink:href="#c"/>
<use x="63.623047" xlink:href="#d"/>
<use x="95.410156" xlink:href="#c"/>
<use x="159.033203" xlink:href="#ad"/>
</g>
</g>
<g clip-path="url(#a)">
<g transform="translate(549.06 399.8) scale(.1 -.1)">
<use xlink:href="#c"/>
<use x="63.623047" xlink:href="#d"/>
<use x="95.410156" xlink:href="#c"/>
<use x="159.033203" xlink:href="#y"/>
</g>
</g>
<g clip-path="url(#a)">
<g transform="translate(30.322 399.8) scale(.1 -.1)">
<use xlink:href="#c"/>
<use x="63.623047" xlink:href="#d"/>
<use x="95.410156" xlink:href="#c"/>
<use x="159.033203" xlink:href="#x"/>
</g>
</g>
<g clip-path="url(#a)">
<g transform="translate(103.35 212.98) scale(.1 -.1)">
<use xlink:href="#c"/>
<use x="63.623047" xlink:href="#d"/>
<use x="95.410156" xlink:href="#c"/>
<use x="159.033203" xlink:href="#w"/>
</g>
</g>
<g clip-path="url(#a)">
<g transform="translate(52.49 337.82) scale(.1 -.1)">
<use xlink:href="#c"/>
<use x="63.623047" xlink:href="#d"/>
<use x="95.410156" xlink:href="#c"/>
<use x="159.033203" xlink:href="#v"/>
</g>
</g>
<g clip-path="url(#a)">
<g transform="translate(83.525 399.8) scale(.1 -.1)">
<use xlink:href="#c"/>
<use x="63.623047" xlink:href="#d"/>
<use x="95.410156" xlink:href="#c"/>
<use x="159.033203" xlink:href="#u"/>
</g>
</g>
<g clip-path="url(#a)">
<g transform="translate(174.05 275.51) scale(.1 -.1)">
<use xlink:href="#c"/>
<use x="63.623047" xlink:href="#d"/>
<use x="95.410156" xlink:href="#m"/>
<use x="159.033203" xlink:href="#af"/>
</g>
</g>
<g clip-path="url(#a)">
<g transform="translate(110.13 399.8) scale(.1 -.1)">
<use xlink:href="#c"/>
<use x="63.623047" xlink:href="#d"/>
<use x="95.410156" xlink:href="#m"/>
<use x="159.033203" xlink:href="#c"/>
</g>
</g>
<g clip-path="url(#a)">
<g transform="translate(192.89 337.82) scale(.1 -.1)">
<use xlink:href="#c"/>
<use x="63.623047" xlink:href="#d"/>
<use x="95.410156" xlink:href="#m"/>
<use x="159.033203" xlink:href="#m"/>
</g>
</g>
<g clip-path="url(#a)">
<g transform="translate(176.63 399.8) scale(.1 -.1)">
<use xlink:href="#c"/>
<use x="63.623047" xlink:href="#d"/>
<use x="95.410156" xlink:href="#m"/>
<use x="159.033203" xlink:href="#ae"/>
</g>
</g>
<g clip-path="url(#a)">
<g transform="translate(141.16 399.8) scale(.1 -.1)">
<use xlink:href="#c"/>
<use x="63.623047" xlink:href="#d"/>
<use x="95.410156" xlink:href="#m"/>
<use x="159.033203" xlink:href="#y"/>
</g>
</g>
<g clip-path="url(#a)">
<g transform="translate(43.623 399.8) scale(.1 -.1)">
<use xlink:href="#c"/>
<use x="63.623047" xlink:href="#d"/>
<use x="95.410156" xlink:href="#m"/>
<use x="159.033203" xlink:href="#x"/>
</g>
</g>
<g clip-path="url(#a)">
<g transform="translate(61.357 399.8) scale(.1 -.1)">
<use xlink:href="#c"/>
<use x="63.623047" xlink:href="#d"/>
<use x="95.410156" xlink:href="#m"/>
<use x="159.033203" xlink:href="#w"/>
</g>
</g>
<g clip-path="url(#a)">
<g transform="translate(216.53 399.8) scale(.1 -.1)">
<use xlink:href="#c"/>
<use x="63.623047" xlink:href="#d"/>
<use x="95.410156" xlink:href="#m"/>
<use x="159.033203" xlink:href="#v"/>
</g>
</g>
<g clip-path="url(#a)">
<g transform="translate(859.41 399.8) scale(.1 -.1)">
<use xlink:href="#c"/>
<use x="63.623047" xlink:href="#d"/>
<use x="95.410156" xlink:href="#m"/>
<use x="159.033203" xlink:href="#u"/>
</g>
</g>
<defs>
<clipPath id="a">
<rect width="912" height="480"/>
</clipPath>
</defs>
</svg>
