<?xml version="1.0" encoding="UTF-8"?>
<!DOCTYPE svg  PUBLIC '-//W3C//DTD SVG 1.1//EN'  'http://www.w3.org/Graphics/SVG/1.1/DTD/svg11.dtd'>
<svg width="1469.3pt" height="773.33pt" version="1.1" viewBox="0 0 1469.3 773.33" xmlns="http://www.w3.org/2000/svg" xmlns:xlink="http://www.w3.org/1999/xlink">
<metadata>
<rdf:RDF xmlns:cc="http://creativecommons.org/ns#" xmlns:dc="http://purl.org/dc/elements/1.1/" xmlns:rdf="http://www.w3.org/1999/02/22-rdf-syntax-ns#">
<cc:Work>
<dc:type rdf:resource="http://purl.org/dc/dcmitype/StillImage"/>
<dc:date>2021-05-19T07:17:14.223985</dc:date>
<dc:format>image/svg+xml</dc:format>
<dc:creator>
<cc:Agent>
<dc:title>Matplotlib v3.3.3, https://matplotlib.org/</dc:title>
</cc:Agent>
</dc:creator>
</cc:Work>
</rdf:RDF>
</metadata>
<defs>
<style type="text/css">*{stroke-linecap:butt;stroke-linejoin:round;}</style>
</defs>
<path d="m0 773.33h1469.3v-773.33h-1469.3z" fill="#fff"/>
<g fill="none" stroke="#000">
<path d="m233.78 35.152-114.3 303.54" clip-path="url(#a)"/>
<path d="m233.78 35.152-16.644 604.53" clip-path="url(#a)"/>
<path d="m233.78 35.152 176.51 101.36" clip-path="url(#a)"/>
<path d="m233.78 35.152-45.557 604.53" clip-path="url(#a)"/>
<path d="m119.47 338.69-30.519 100.73" clip-path="url(#a)"/>
<path d="m119.47 338.69-0.6425 300.99" clip-path="url(#a)"/>
<path d="m119.47 338.69 31.161 201.12" clip-path="url(#a)"/>
<path d="m217.13 639.68v98.497" clip-path="url(#a)"/>
<path d="m410.28 136.51-161.35 503.17" clip-path="url(#a)"/>
<path d="m410.28 136.51-126.65 503.17" clip-path="url(#a)"/>
<path d="m410.28 136.51-89.065 503.17" clip-path="url(#a)"/>
<path d="m410.28 136.51 15.342 101.19" clip-path="url(#a)"/>
<path d="m410.28 136.51 361.72 202.18" clip-path="url(#a)"/>
<path d="m248.94 639.68v98.497" clip-path="url(#a)"/>
<path d="m283.63 639.68v98.497" clip-path="url(#a)"/>
<path d="m321.22 639.68v98.497" clip-path="url(#a)"/>
<path d="m425.62 237.7-63.929 401.98" clip-path="url(#a)"/>
<path d="m425.62 237.7-20.56 401.98" clip-path="url(#a)"/>
<path d="m425.62 237.7 84.489 100.99" clip-path="url(#a)"/>
<path d="m772 338.69-164.55 300.99" clip-path="url(#a)"/>
<path d="m772 338.69-106.73 300.99" clip-path="url(#a)"/>
<path d="m772 338.69-46.009 300.99" clip-path="url(#a)"/>
<path d="m772 338.69 17.598 300.99" clip-path="url(#a)"/>
<path d="m772 338.69 299.69 100.73" clip-path="url(#a)"/>
<path d="m607.45 639.68v98.497" clip-path="url(#a)"/>
<path d="m665.28 639.68v98.497" clip-path="url(#a)"/>
<path d="m725.99 639.68v98.497" clip-path="url(#a)"/>
<path d="m789.6 639.68v98.497" clip-path="url(#a)"/>
<path d="m1071.7 439.43-215.59 200.26" clip-path="url(#a)"/>
<path d="m1071.7 439.43-110.06 100.39" clip-path="url(#a)"/>
<path d="m1071.7 439.43 1.2529 200.26" clip-path="url(#a)"/>
<path d="m1071.7 439.43 79.317 200.26" clip-path="url(#a)"/>
<path d="m1071.7 439.43 245.08 100.39" clip-path="url(#a)"/>
<path d="m856.1 639.68v98.497" clip-path="url(#a)"/>
<path d="m961.63 539.82-36.141 99.868" clip-path="url(#a)"/>
<path d="m961.63 539.82 36.141 99.868" clip-path="url(#a)"/>
<path d="m1072.9 639.68v98.497" clip-path="url(#a)"/>
<path d="m1151 639.68v98.497" clip-path="url(#a)"/>
<path d="m1316.8 539.82-84.81 99.868" clip-path="url(#a)"/>
<path d="m1316.8 539.82-0.96375 99.868" clip-path="url(#a)"/>
<path d="m1316.8 539.82 85.774 99.868" clip-path="url(#a)"/>
<path d="m1232 639.68v98.497" clip-path="url(#a)"/>
<path d="m1315.8 639.68v98.497" clip-path="url(#a)"/>
<path d="m925.49 639.68v98.497" clip-path="url(#a)"/>
<path d="m997.77 639.68v98.497" clip-path="url(#a)"/>
<path d="m361.7 639.68v98.497" clip-path="url(#a)"/>
<path d="m405.06 639.68v98.497" clip-path="url(#a)"/>
<path d="m510.11 338.69-58.789 300.99" clip-path="url(#a)"/>
<path d="m510.11 338.69 16.384 100.73" clip-path="url(#a)"/>
<path d="m510.11 338.69 42.405 201.12" clip-path="url(#a)"/>
<path d="m451.32 639.68v98.497" clip-path="url(#a)"/>
<path d="m526.5 439.43 26.021 100.39" clip-path="url(#a)" stroke-dasharray="3.7,1.6"/>
<path d="m526.5 439.43-26.021 200.26" clip-path="url(#a)"/>
<path d="m552.52 539.82v99.868" clip-path="url(#a)"/>
<path d="m552.52 639.68v98.497" clip-path="url(#a)"/>
<path d="m500.48 639.68v98.497" clip-path="url(#a)"/>
<path d="m88.954 439.43-12.529 100.39" clip-path="url(#a)"/>
<path d="m88.954 439.43 12.529 200.26" clip-path="url(#a)"/>
<path d="m118.83 639.68v98.497" clip-path="url(#a)"/>
<path d="m150.63 539.82-11.565 99.868" clip-path="url(#a)"/>
<path d="m150.63 539.82 11.565 99.868" clip-path="url(#a)"/>
<path d="m139.07 639.68v98.497" clip-path="url(#a)"/>
<path d="m162.2 639.68v98.497" clip-path="url(#a)"/>
<path d="m76.425 539.82-9.6375 99.868" clip-path="url(#a)"/>
<path d="m76.425 539.82-0.96375 99.868" clip-path="url(#a)"/>
<path d="m76.425 539.82 10.601 99.868" clip-path="url(#a)"/>
<path d="m101.48 639.68v98.497" clip-path="url(#a)"/>
<path d="m66.788 639.68v98.497" clip-path="url(#a)"/>
<path d="m75.462 639.68v98.497" clip-path="url(#a)"/>
<path d="m87.027 639.68v98.497" clip-path="url(#a)"/>
<path d="m188.22 639.68v98.497" clip-path="url(#a)"/>
<path d="m1402.5 639.68v98.497" clip-path="url(#a)"/>
</g>
<path d="m181.43 191.95 2.1202-5.6303q0.84579-2.246-1.4002-3.0918l-7.2458-2.7285q-2.246-0.84579-3.0918 1.4002l-2.1202 5.6303q-0.84579 2.246 1.4002 3.0918l7.2458 2.7285q2.246 0.84579 3.0918-1.4002z" clip-path="url(#a)" fill="#fff" stroke="#fff"/>
<g clip-path="url(#a)">
<g transform="translate(177.63 190.51) rotate(-69.365) scale(.08 -.08)">
<defs>
<path id="am" d="m9.8125 72.906h9.8594v-29.891h35.844v29.891h9.8594v-72.906h-9.8594v34.719h-35.844v-34.719h-9.8594z"/>
</defs>
<use xlink:href="#am"/>
</g>
</g>
<path d="m231.66 339.82 0.12268-4.4558q0.066053-2.3991-2.333-2.4651l-7.7396-0.21309q-2.3991-0.066053-2.4651 2.333l-0.12268 4.4558q-0.066052 2.3991 2.333 2.4651l7.7396 0.21309q2.3991 0.066053 2.4651-2.333z" clip-path="url(#a)" fill="#fff" stroke="#fff"/>
<g clip-path="url(#a)">
<g transform="translate(227.6 339.71) rotate(-88.423) scale(.08 -.08)">
<defs>
<path id="ar" d="m9.8125 72.906h9.8594v-64.609h35.5v-8.2969h-45.359z"/>
</defs>
<use xlink:href="#ar"/>
</g>
</g>
<path d="m316.3 89.772 5.2172 2.996q2.0812 1.1952 3.2764-0.88605l3.8557-6.7141q1.1952-2.0812-0.88605-3.2764l-5.2172-2.996q-2.0812-1.1952-3.2764 0.88605l-3.8557 6.7141q-1.1952 2.0812 0.88605 3.2764z" clip-path="url(#a)" fill="#fff" stroke="#fff"/>
<g clip-path="url(#a)">
<g transform="translate(318.32 86.248) rotate(29.867) scale(.08 -.08)">
<use xlink:href="#am"/>
</g>
</g>
<path d="m217.03 340.81 0.43998-5.8384q0.18035-2.3932-2.2129-2.5736l-7.7206-0.58182q-2.3932-0.18035-2.5736 2.2129l-0.43998 5.8384q-0.18035 2.3932 2.2129 2.5736l7.7206 0.58182q2.3932 0.18035 2.5736-2.2129z" clip-path="url(#a)" fill="#fff" stroke="#fff"/>
<g clip-path="url(#a)">
<g transform="translate(212.98 340.5) rotate(-85.69) scale(.08 -.08)">
<defs>
<path id="al" d="m8.6875 72.906h9.9219v-44.297q0-11.719 4.2344-16.875 4.25-5.1406 13.781-5.1406 9.4688 0 13.719 5.1406 4.25 5.1562 4.25 16.875v44.297h9.9062v-45.516q0-14.25-7.0625-21.531-7.0469-7.2812-20.812-7.2812-13.828 0-20.891 7.2812-7.0469 7.2812-7.0469 21.531z"/>
</defs>
<use xlink:href="#al"/>
</g>
</g>
<path d="m109.42 393.5 1.5868-5.2374q0.69588-2.2969-1.601-2.9928l-7.4099-2.2449q-2.2969-0.69588-2.9928 1.601l-1.5868 5.2374q-0.69588 2.2969 1.601 2.9928l7.4099 2.2449q2.2969 0.69588 2.9928-1.601z" clip-path="url(#a)" fill="#fff" stroke="#fff"/>
<g clip-path="url(#a)">
<g transform="translate(105.53 392.32) rotate(-73.145) scale(.08 -.08)">
<defs>
<path id="q" d="m34.188 63.188-13.391-36.281h26.812zm-5.5781 9.7188h11.188l27.781-72.906h-10.25l-6.6406 18.703h-32.859l-6.6406-18.703h-10.406z"/>
</defs>
<use xlink:href="#q"/>
</g>
</g>
<path d="m125.42 491.74 0.010841-5.0787q0.005123-2.4-2.3949-2.4051l-7.7425-0.016527q-2.4-0.005123-2.4051 2.3949l-0.010842 5.0787q-0.005123 2.4 2.3949 2.4051l7.7425 0.016527q2.4 0.005123 2.4051-2.3949z" clip-path="url(#a)" fill="#fff" stroke="#fff"/>
<g clip-path="url(#a)">
<g transform="translate(121.35 491.73) rotate(-89.878) scale(.08 -.08)">
<defs>
<path id="z" d="m53.516 70.516v-9.625q-5.6094 2.6875-10.594 4-4.9844 1.3281-9.625 1.3281-8.0469 0-12.422-3.125t-4.375-8.8906q0-4.8438 2.9062-7.3125 2.9062-2.4531 11.016-3.9688l5.9531-1.2188q11.031-2.1094 16.281-7.4062t5.25-14.172q0-10.609-7.1094-16.078-7.0938-5.4688-20.812-5.4688-5.1719 0-11.016 1.1719-5.8281 1.1719-12.078 3.4688v10.156q6-3.3594 11.766-5.0781 5.7656-1.7031 11.328-1.7031 8.4375 0 13.031 3.3125 4.5938 3.3281 4.5938 9.4844 0 5.3594-3.2969 8.3906t-10.812 4.5469l-6.0156 1.1719q-11.031 2.1875-15.969 6.875-4.9219 4.6875-4.9219 13.047 0 9.6719 6.8125 15.234t18.766 5.5625q5.1406 0 10.453-0.9375 5.3281-0.92188 10.891-2.7656z"/>
</defs>
<use xlink:href="#z"/>
</g>
</g>
<path d="m128.44 437.51 0.83788 5.408q0.36746 2.3717 2.7392 2.0042l7.6512-1.1854q2.3717-0.36746 2.0042-2.7392l-0.83789-5.408q-0.36746-2.3717-2.7392-2.0042l-7.6512 1.1854q-2.3717 0.36746-2.0042 2.7392z" clip-path="url(#a)" fill="#fff" stroke="#fff"/>
<g clip-path="url(#a)">
<g transform="translate(132.45 436.89) rotate(81.193) scale(.08 -.08)">
<use xlink:href="#q"/>
</g>
</g>
<path d="m210.86 672.03v33.808q0 2.4 2.4 2.4h7.7425q2.4 0 2.4-2.4v-33.808q0-2.4-2.4-2.4h-7.7425q-2.4 0-2.4 2.4z" clip-path="url(#a)" fill="#fff" stroke="#fff"/>
<g clip-path="url(#a)">
<g transform="translate(214.93 672.03) rotate(90) scale(.08 -.08)">
<defs>
<path id="k" d="m-0.29688 72.906h61.672v-8.3125h-25.875v-64.594h-9.9062v64.594h-25.891z"/>
<path id="d" d="m56.203 29.594v-4.3906h-41.312q0.59375-9.2812 5.5938-14.141t13.938-4.8594q5.1719 0 10.031 1.2656t9.6562 3.8125v-8.5q-4.8438-2.0469-9.9219-3.125t-10.297-1.0781q-13.094 0-20.734 7.6094-7.6406 7.625-7.6406 20.625 0 13.422 7.25 21.297 7.25 7.8906 19.562 7.8906 11.031 0 17.453-7.1094 6.4219-7.0938 6.4219-19.297zm-8.9844 2.6406q-0.09375 7.3594-4.125 11.75-4.0312 4.4062-10.672 4.4062-7.5156 0-12.031-4.25t-5.2031-11.969z"/>
<path id="i" d="m41.109 46.297q-1.5156 0.875-3.2969 1.2812-1.7812 0.42188-3.9219 0.42188-7.625 0-11.703-4.9531t-4.0781-14.234v-28.812h-9.0312v54.688h9.0312v-8.5q2.8438 4.9844 7.375 7.3906 4.5469 2.4219 11.047 2.4219 0.92188 0 2.0469-0.125 1.125-0.10938 2.4844-0.35938z"/>
<path id="l" d="m52 44.188q3.375 6.0625 8.0625 8.9375t11.031 2.875q8.5469 0 13.188-5.9844 4.6406-5.9688 4.6406-17v-33.016h-9.0312v32.719q0 7.8594-2.7969 11.656-2.7812 3.8125-8.4844 3.8125-6.9844 0-11.047-4.6406-4.0469-4.625-4.0469-12.641v-30.906h-9.0312v32.719q0 7.9062-2.7812 11.688t-8.5938 3.7812q-6.8906 0-10.953-4.6562-4.0469-4.6562-4.0469-12.625v-30.906h-9.0312v54.688h9.0312v-8.5q3.0781 5.0312 7.375 7.4219t10.203 2.3906q5.9688 0 10.141-3.0312 4.1719-3.0156 6.1719-8.7812z"/>
<path id="h" d="m9.4219 54.688h8.9844v-54.688h-8.9844zm0 21.297h8.9844v-11.391h-8.9844z"/>
<path id="f" d="m54.891 33.016v-33.016h-8.9844v32.719q0 7.7656-3.0312 11.609-3.0312 3.8594-9.0781 3.8594-7.2812 0-11.484-4.6406-4.2031-4.625-4.2031-12.641v-30.906h-9.0312v54.688h9.0312v-8.5q3.2344 4.9375 7.5938 7.375 4.375 2.4375 10.094 2.4375 9.4219 0 14.25-5.8281 4.8438-5.8281 4.8438-17.156z"/>
<path id="g" d="m34.281 27.484q-10.891 0-15.094-2.4844t-4.2031-8.5q0-4.7812 3.1562-7.5938 3.1562-2.7969 8.5625-2.7969 7.4844 0 12 5.2969t4.5156 14.078v2zm17.922 3.7188v-31.203h-8.9844v8.2969q-3.0781-4.9688-7.6719-7.3438t-11.234-2.375q-8.3906 0-13.359 4.7188-4.9531 4.7188-4.9531 12.625 0 9.2188 6.1719 13.906 6.1875 4.6875 18.438 4.6875h12.609v0.89062q0 6.2031-4.0781 9.5938t-11.453 3.3906q-4.6875 0-9.1406-1.125-4.4375-1.125-8.5312-3.375v8.3125q4.9219 1.9062 9.5625 2.8438 4.6406 0.95312 9.0312 0.95312 11.875 0 17.734-6.1562 5.8594-6.1406 5.8594-18.641z"/>
<path id="j" d="m9.4219 75.984h8.9844v-75.984h-8.9844z"/>
</defs>
<use xlink:href="#k"/>
<use x="44.083984" xlink:href="#d"/>
<use x="105.607422" xlink:href="#i"/>
<use x="144.970703" xlink:href="#l"/>
<use x="242.382812" xlink:href="#h"/>
<use x="270.166016" xlink:href="#f"/>
<use x="333.544922" xlink:href="#g"/>
<use x="394.824219" xlink:href="#j"/>
</g>
</g>
<path d="m334.75 392.62 1.671-5.2111q0.73282-2.2854-1.5526-3.0182l-7.3727-2.3641q-2.2854-0.73282-3.0182 1.5526l-1.671 5.2111q-0.73282 2.2854 1.5526 3.0182l7.3727 2.3641q2.2854 0.73282 3.0182-1.5526z" clip-path="url(#a)" fill="#fff" stroke="#fff"/>
<g clip-path="url(#a)">
<g transform="translate(330.88 391.38) rotate(-72.221) scale(.08 -.08)">
<use xlink:href="#q"/>
</g>
</g>
<path d="m352.42 392.09 1.2397-4.9251q0.58582-2.3274-1.7416-2.9132l-7.5083-1.8899q-2.3274-0.58582-2.9132 1.7416l-1.2397 4.9251q-0.58582 2.3274 1.7416 2.9132l7.5083 1.8899q2.3274 0.58582 2.9132-1.7416z" clip-path="url(#a)" fill="#fff" stroke="#fff"/>
<g clip-path="url(#a)">
<g transform="translate(348.48 391.1) rotate(-75.872) scale(.08 -.08)">
<use xlink:href="#z"/>
</g>
</g>
<path d="m371.39 392.22 1.0737-6.0657q0.41831-2.3633-1.945-2.7816l-7.624-1.3495q-2.3633-0.41831-2.7816 1.945l-1.0737 6.0657q-0.41831 2.3633 1.945 2.7816l7.624 1.3495q2.3633 0.41831 2.7816-1.945z" clip-path="url(#a)" fill="#fff" stroke="#fff"/>
<g clip-path="url(#a)">
<g transform="translate(367.39 391.52) rotate(-79.962) scale(.08 -.08)">
<defs>
<path id="an" d="m19.672 64.797v-56.688h11.922q15.094 0 22.094 6.8281 7 6.8438 7 21.594 0 14.641-7 21.453t-22.094 6.8125zm-9.8594 8.1094h20.266q21.188 0 31.094-8.8125 9.9219-8.8125 9.9219-27.562 0-18.859-9.9688-27.703-9.9531-8.8281-31.047-8.8281h-20.266z"/>
</defs>
<use xlink:href="#an"/>
</g>
</g>
<path d="m411.34 185.34 0.82031 5.4107q0.35975 2.3729 2.7326 2.0131l7.655-1.1606q2.3729-0.35975 2.0131-2.7326l-0.82031-5.4107q-0.35975-2.3729-2.7326-2.0131l-7.655 1.1606q-2.3729 0.35975-2.0131 2.7326z" clip-path="url(#a)" fill="#fff" stroke="#fff"/>
<g clip-path="url(#a)">
<g transform="translate(415.36 184.73) rotate(81.379) scale(.08 -.08)">
<use xlink:href="#q"/>
</g>
</g>
<path d="m585.95 241.88 4.2652 2.384q2.095 1.171 3.2659-0.924l3.7776-6.7584q1.171-2.095-0.924-3.2659l-4.2652-2.384q-2.095-1.171-3.2659 0.924l-3.7776 6.7584q-1.171 2.095 0.924 3.2659z" clip-path="url(#a)" fill="#fff" stroke="#fff"/>
<g clip-path="url(#a)">
<g transform="translate(587.93 238.34) rotate(29.203) scale(.08 -.08)">
<use xlink:href="#k"/>
</g>
</g>
<path d="m242.67 672.03v33.808q0 2.4 2.4 2.4h7.7425q2.4 0 2.4-2.4v-33.808q0-2.4-2.4-2.4h-7.7425q-2.4 0-2.4 2.4z" clip-path="url(#a)" fill="#fff" stroke="#fff"/>
<g clip-path="url(#a)">
<g transform="translate(246.73 672.03) rotate(90) scale(.08 -.08)">
<use xlink:href="#k"/>
<use x="44.083984" xlink:href="#d"/>
<use x="105.607422" xlink:href="#i"/>
<use x="144.970703" xlink:href="#l"/>
<use x="242.382812" xlink:href="#h"/>
<use x="270.166016" xlink:href="#f"/>
<use x="333.544922" xlink:href="#g"/>
<use x="394.824219" xlink:href="#j"/>
</g>
</g>
<path d="m277.36 672.03v33.808q0 2.4 2.4 2.4h7.7425q2.4 0 2.4-2.4v-33.808q0-2.4-2.4-2.4h-7.7425q-2.4 0-2.4 2.4z" clip-path="url(#a)" fill="#fff" stroke="#fff"/>
<g clip-path="url(#a)">
<g transform="translate(281.42 672.03) rotate(90) scale(.08 -.08)">
<use xlink:href="#k"/>
<use x="44.083984" xlink:href="#d"/>
<use x="105.607422" xlink:href="#i"/>
<use x="144.970703" xlink:href="#l"/>
<use x="242.382812" xlink:href="#h"/>
<use x="270.166016" xlink:href="#f"/>
<use x="333.544922" xlink:href="#g"/>
<use x="394.824219" xlink:href="#j"/>
</g>
</g>
<path d="m314.95 672.03v33.808q0 2.4 2.4 2.4h7.7425q2.4 0 2.4-2.4v-33.808q0-2.4-2.4-2.4h-7.7425q-2.4 0-2.4 2.4z" clip-path="url(#a)" fill="#fff" stroke="#fff"/>
<g clip-path="url(#a)">
<g transform="translate(319.01 672.03) rotate(90) scale(.08 -.08)">
<use xlink:href="#k"/>
<use x="44.083984" xlink:href="#d"/>
<use x="105.607422" xlink:href="#i"/>
<use x="144.970703" xlink:href="#l"/>
<use x="242.382812" xlink:href="#h"/>
<use x="270.166016" xlink:href="#f"/>
<use x="333.544922" xlink:href="#g"/>
<use x="394.824219" xlink:href="#j"/>
</g>
</g>
<path d="m399.49 441.95 0.72268-4.5441q0.37695-2.3702-1.9933-2.7472l-7.6464-1.216q-2.3702-0.37694-2.7472 1.9933l-0.72268 4.5441q-0.37695 2.3702 1.9933 2.7472l7.6464 1.216q2.3702 0.37695 2.7472-1.9933z" clip-path="url(#a)" fill="#fff" stroke="#fff"/>
<g clip-path="url(#a)">
<g transform="translate(395.48 441.31) rotate(-80.964) scale(.08 -.08)">
<defs>
<path id="aa" d="m9.8125 72.906h41.891v-8.3125h-32.031v-21.484h28.906v-8.2969h-28.906v-34.812h-9.8594z"/>
</defs>
<use xlink:href="#aa"/>
</g>
</g>
<path d="m421.46 441.8 0.28535-5.579q0.12259-2.3969-2.2743-2.5195l-7.7324-0.39549q-2.3969-0.12259-2.5195 2.2743l-0.28535 5.579q-0.12259 2.3969 2.2743 2.5195l7.7324 0.39549q2.3969 0.12259 2.5195-2.2743z" clip-path="url(#a)" fill="#fff" stroke="#fff"/>
<g clip-path="url(#a)">
<g transform="translate(417.41 441.6) rotate(-87.072) scale(.08 -.08)">
<defs>
<path id="p" d="m64.406 67.281v-10.391q-4.9844 4.6406-10.625 6.9219-5.6406 2.2969-11.984 2.2969-12.5 0-19.141-7.6406t-6.6406-22.094q0-14.406 6.6406-22.047t19.141-7.6406q6.3438 0 11.984 2.2969t10.625 6.9375v-10.312q-5.1719-3.5156-10.969-5.2812-5.7812-1.75-12.219-1.75-16.562 0-26.094 10.125-9.5156 10.141-9.5156 27.672 0 17.578 9.5156 27.703 9.5312 10.141 26.094 10.141 6.5312 0 12.312-1.7344 5.7969-1.7344 10.875-5.2031z"/>
</defs>
<use xlink:href="#p"/>
</g>
</g>
<path d="m461.44 290.28 3.2437 3.8771q1.54 1.8408 3.3808 0.30074l5.9383-4.9681q1.8408-1.54 0.30074-3.3808l-3.2437-3.8771q-1.54-1.8408-3.3808-0.30074l-5.9383 4.9681q-1.8408 1.54-0.30074 3.3808z" clip-path="url(#a)" fill="#fff" stroke="#fff"/>
<g clip-path="url(#a)">
<g transform="translate(464.55 287.68) rotate(50.083) scale(.08 -.08)">
<defs>
<path id="w" d="m9.8125 72.906h46.094v-8.3125h-36.234v-21.578h34.719v-8.2969h-34.719v-26.422h37.109v-8.2969h-46.969z"/>
</defs>
<use xlink:href="#w"/>
</g>
</g>
<path d="m693.9 494.64 2.6665-4.8775q1.1513-2.1059-0.9546-3.2571l-6.7936-3.714q-2.1059-1.1513-3.2571 0.9546l-2.6665 4.8775q-1.1513 2.1059 0.9546 3.2571l6.7936 3.714q2.1059 1.1513 3.2571-0.9546z" clip-path="url(#a)" fill="#fff" stroke="#fff"/>
<g clip-path="url(#a)">
<g transform="translate(690.33 492.69) rotate(-61.335) scale(.08 -.08)">
<defs>
<path id="s" d="m44.391 34.188q3.1719-1.0781 6.1719-4.5938t6.0312-9.6719l10.016-19.922h-10.609l-9.3125 18.703q-3.625 7.3281-7.0156 9.7188t-9.25 2.3906h-10.75v-30.812h-9.8594v72.906h22.266q12.5 0 18.656-5.2344 6.1562-5.2188 6.1562-15.766 0-6.8906-3.2031-11.438-3.2031-4.5312-9.2969-6.2812zm-24.719 30.609v-25.875h12.406q7.125 0 10.766 3.2969t3.6406 9.6875-3.6406 9.6406-10.766 3.25z"/>
</defs>
<use xlink:href="#s"/>
</g>
</g>
<path d="m723.62 493.9 1.8577-5.2391q0.80206-2.262-1.4599-3.0641l-7.2973-2.5875q-2.262-0.80206-3.0641 1.4599l-1.8577 5.2391q-0.80206 2.262 1.4599 3.0641l7.2973 2.5875q2.262 0.80206 3.0641-1.4599z" clip-path="url(#a)" fill="#fff" stroke="#fff"/>
<g clip-path="url(#a)">
<g transform="translate(719.79 492.55) rotate(-70.477) scale(.08 -.08)">
<use xlink:href="#s"/>
</g>
</g>
<path d="m754.85 492.41 0.69527-4.5484q0.36265-2.3724-2.0098-2.7351l-7.6536-1.1699q-2.3724-0.36265-2.7351 2.0098l-0.69527 4.5484q-0.36265 2.3724 2.0098 2.7351l7.6536 1.1699q2.3724 0.36265 2.7351-2.0098z" clip-path="url(#a)" fill="#fff" stroke="#fff"/>
<g clip-path="url(#a)">
<g transform="translate(750.83 491.8) rotate(-81.309) scale(.08 -.08)">
<use xlink:href="#aa"/>
</g>
</g>
<path d="m774.38 486.77 0.32605 5.5767q0.14008 2.3959 2.536 2.2558l7.7293-0.45191q2.3959-0.14008 2.2558-2.536l-0.32605-5.5767q-0.14008-2.3959-2.536-2.2558l-7.7293 0.45191q-2.3959 0.14008-2.2558 2.536z" clip-path="url(#a)" fill="#fff" stroke="#fff"/>
<g clip-path="url(#a)">
<g transform="translate(778.43 486.53) rotate(86.654) scale(.08 -.08)">
<use xlink:href="#p"/>
</g>
</g>
<path d="m917.45 394.2 4.7916 1.6106q2.2749 0.76466 3.0396-1.5103l2.4668-7.339q0.76466-2.2749-1.5103-3.0396l-4.7916-1.6106q-2.2749-0.76466-3.0396 1.5103l-2.4668 7.339q-0.76466 2.2749 1.5103 3.0396z" clip-path="url(#a)" fill="#fff" stroke="#fff"/>
<g clip-path="url(#a)">
<g transform="translate(918.75 390.35) rotate(18.579) scale(.08 -.08)">
<use xlink:href="#w"/>
</g>
</g>
<path d="m601.18 672.03v33.808q0 2.4 2.4 2.4h7.7425q2.4 0 2.4-2.4v-33.808q0-2.4-2.4-2.4h-7.7425q-2.4 0-2.4 2.4z" clip-path="url(#a)" fill="#fff" stroke="#fff"/>
<g clip-path="url(#a)">
<g transform="translate(605.24 672.03) rotate(90) scale(.08 -.08)">
<use xlink:href="#k"/>
<use x="44.083984" xlink:href="#d"/>
<use x="105.607422" xlink:href="#i"/>
<use x="144.970703" xlink:href="#l"/>
<use x="242.382812" xlink:href="#h"/>
<use x="270.166016" xlink:href="#f"/>
<use x="333.544922" xlink:href="#g"/>
<use x="394.824219" xlink:href="#j"/>
</g>
</g>
<path d="m659.01 672.03v33.808q0 2.4 2.4 2.4h7.7425q2.4 0 2.4-2.4v-33.808q0-2.4-2.4-2.4h-7.7425q-2.4 0-2.4 2.4z" clip-path="url(#a)" fill="#fff" stroke="#fff"/>
<g clip-path="url(#a)">
<g transform="translate(663.07 672.03) rotate(90) scale(.08 -.08)">
<use xlink:href="#k"/>
<use x="44.083984" xlink:href="#d"/>
<use x="105.607422" xlink:href="#i"/>
<use x="144.970703" xlink:href="#l"/>
<use x="242.382812" xlink:href="#h"/>
<use x="270.166016" xlink:href="#f"/>
<use x="333.544922" xlink:href="#g"/>
<use x="394.824219" xlink:href="#j"/>
</g>
</g>
<path d="m719.72 672.03v33.808q0 2.4 2.4 2.4h7.7425q2.4 0 2.4-2.4v-33.808q0-2.4-2.4-2.4h-7.7425q-2.4 0-2.4 2.4z" clip-path="url(#a)" fill="#fff" stroke="#fff"/>
<g clip-path="url(#a)">
<g transform="translate(723.79 672.03) rotate(90) scale(.08 -.08)">
<use xlink:href="#k"/>
<use x="44.083984" xlink:href="#d"/>
<use x="105.607422" xlink:href="#i"/>
<use x="144.970703" xlink:href="#l"/>
<use x="242.382812" xlink:href="#h"/>
<use x="270.166016" xlink:href="#f"/>
<use x="333.544922" xlink:href="#g"/>
<use x="394.824219" xlink:href="#j"/>
</g>
</g>
<path d="m783.33 672.03v33.808q0 2.4 2.4 2.4h7.7425q2.4 0 2.4-2.4v-33.808q0-2.4-2.4-2.4h-7.7425q-2.4 0-2.4 2.4z" clip-path="url(#a)" fill="#fff" stroke="#fff"/>
<g clip-path="url(#a)">
<g transform="translate(787.39 672.03) rotate(90) scale(.08 -.08)">
<use xlink:href="#k"/>
<use x="44.083984" xlink:href="#d"/>
<use x="105.607422" xlink:href="#i"/>
<use x="144.970703" xlink:href="#l"/>
<use x="242.382812" xlink:href="#h"/>
<use x="270.166016" xlink:href="#f"/>
<use x="333.544922" xlink:href="#g"/>
<use x="394.824219" xlink:href="#j"/>
</g>
</g>
<path d="m966.13 546.04 4.0728-3.7831q1.7584-1.6334 0.12505-3.3918l-5.2693-5.6728q-1.6334-1.7584-3.3918-0.12505l-4.0728 3.7831q-1.7584 1.6334-0.12505 3.3918l5.2693 5.6728q1.6334 1.7584 3.3918 0.12505z" clip-path="url(#a)" fill="#fff" stroke="#fff"/>
<g clip-path="url(#a)">
<g transform="translate(963.36 543.06) rotate(-42.889) scale(.08 -.08)">
<use xlink:href="#s"/>
</g>
</g>
<path d="m1018.9 496.1 4.0432-3.688q1.7732-1.6174 0.15577-3.3905l-5.2177-5.7203q-1.6174-1.7732-3.3905-0.15577l-4.0432 3.688q-1.7732 1.6174-0.15577 3.3905l5.2177 5.7203q1.6174 1.7732 3.3905 0.15577z" clip-path="url(#a)" fill="#fff" stroke="#fff"/>
<g clip-path="url(#a)">
<g transform="translate(1016.1 493.1) rotate(-42.37) scale(.08 -.08)">
<use xlink:href="#q"/>
</g>
</g>
<path d="m1066 536.51 0.038538 6.1599q0.015015 2.4 2.415 2.3849l7.7423-0.048438q2.4-0.015015 2.3849-2.415l-0.038538-6.1599q-0.015015-2.4-2.415-2.3849l-7.7423 0.048438q-2.4 0.015015-2.3849 2.415z" clip-path="url(#a)" fill="#fff" stroke="#fff"/>
<g clip-path="url(#a)">
<g transform="translate(1070.1 536.49) rotate(89.642) scale(.08 -.08)">
<use xlink:href="#an"/>
</g>
</g>
<path d="m1104.6 539.5 1.8702 4.7219q0.88377 2.2314 3.1151 1.3476l7.1984-2.8511q2.2314-0.88377 1.3476-3.1151l-1.8702-4.7219q-0.88377-2.2314-3.1151-1.3476l-7.1984 2.8511q-2.2314 0.88377-1.3476 3.1151z" clip-path="url(#a)" fill="#fff" stroke="#fff"/>
<g clip-path="url(#a)">
<g transform="translate(1108.4 538.01) rotate(68.393) scale(.08 -.08)">
<use xlink:href="#z"/>
</g>
</g>
<path d="m1189.3 494.39 5.0641 2.0744q2.2209 0.90973 3.1306-1.3112l2.9348-7.1647q0.90973-2.2209-1.3112-3.1306l-5.0641-2.0744q-2.2209-0.90973-3.1306 1.3112l-2.9348 7.1647q-0.90973 2.2209 1.3112 3.1306z" clip-path="url(#a)" fill="#fff" stroke="#fff"/>
<g clip-path="url(#a)">
<g transform="translate(1190.9 490.63) rotate(22.275) scale(.08 -.08)">
<use xlink:href="#q"/>
</g>
</g>
<path d="m849.83 672.03v33.808q0 2.4 2.4 2.4h7.7425q2.4 0 2.4-2.4v-33.808q0-2.4-2.4-2.4h-7.7425q-2.4 0-2.4 2.4z" clip-path="url(#a)" fill="#fff" stroke="#fff"/>
<g clip-path="url(#a)">
<g transform="translate(853.89 672.03) rotate(90) scale(.08 -.08)">
<use xlink:href="#k"/>
<use x="44.083984" xlink:href="#d"/>
<use x="105.607422" xlink:href="#i"/>
<use x="144.970703" xlink:href="#l"/>
<use x="242.382812" xlink:href="#h"/>
<use x="270.166016" xlink:href="#f"/>
<use x="333.544922" xlink:href="#g"/>
<use x="394.824219" xlink:href="#j"/>
</g>
</g>
<path d="m948.6 594.26 1.7202-4.7533q0.81669-2.2568-1.4401-3.0735l-7.2804-2.6347q-2.2568-0.81669-3.0735 1.4401l-1.7202 4.7533q-0.81669 2.2568 1.4401 3.0735l7.2804 2.6347q2.2568 0.81669 3.0735-1.4401z" clip-path="url(#a)" fill="#fff" stroke="#fff"/>
<g clip-path="url(#a)">
<g transform="translate(944.78 592.88) rotate(-70.106) scale(.08 -.08)">
<use xlink:href="#w"/>
</g>
</g>
<path d="m972.85 589.26 1.9009 5.2529q0.81669 2.2568 3.0735 1.4401l7.2804-2.6347q2.2568-0.81669 1.4401-3.0735l-1.9009-5.2529q-0.81669-2.2568-3.0735-1.4401l-7.2804 2.6347q-2.2568 0.81669-1.4401 3.0735z" clip-path="url(#a)" fill="#fff" stroke="#fff"/>
<g clip-path="url(#a)">
<g transform="translate(976.67 587.88) rotate(70.106) scale(.08 -.08)">
<use xlink:href="#p"/>
</g>
</g>
<path d="m1066.7 672.03v33.808q0 2.4 2.4 2.4h7.7425q2.4 0 2.4-2.4v-33.808q0-2.4-2.4-2.4h-7.7425q-2.4 0-2.4 2.4z" clip-path="url(#a)" fill="#fff" stroke="#fff"/>
<g clip-path="url(#a)">
<g transform="translate(1070.7 672.03) rotate(90) scale(.08 -.08)">
<use xlink:href="#k"/>
<use x="44.083984" xlink:href="#d"/>
<use x="105.607422" xlink:href="#i"/>
<use x="144.970703" xlink:href="#l"/>
<use x="242.382812" xlink:href="#h"/>
<use x="270.166016" xlink:href="#f"/>
<use x="333.544922" xlink:href="#g"/>
<use x="394.824219" xlink:href="#j"/>
</g>
</g>
<path d="m1144.7 672.03v33.808q0 2.4 2.4 2.4h7.7425q2.4 0 2.4-2.4v-33.808q0-2.4-2.4-2.4h-7.7425q-2.4 0-2.4 2.4z" clip-path="url(#a)" fill="#fff" stroke="#fff"/>
<g clip-path="url(#a)">
<g transform="translate(1148.8 672.03) rotate(90) scale(.08 -.08)">
<use xlink:href="#k"/>
<use x="44.083984" xlink:href="#d"/>
<use x="105.607422" xlink:href="#i"/>
<use x="144.970703" xlink:href="#l"/>
<use x="242.382812" xlink:href="#h"/>
<use x="270.166016" xlink:href="#f"/>
<use x="333.544922" xlink:href="#g"/>
<use x="394.824219" xlink:href="#j"/>
</g>
</g>
<path d="m1277.3 595.93 3.5982-4.2371q1.5535-1.8294-0.27582-3.3829l-5.9016-5.0118q-1.8294-1.5535-3.3829 0.27582l-3.5982 4.2371q-1.5535 1.8294 0.27582 3.3829l5.9016 5.0118q1.8294 1.5535 3.3829-0.27582z" clip-path="url(#a)" fill="#fff" stroke="#fff"/>
<g clip-path="url(#a)">
<g transform="translate(1274.3 593.3) rotate(-49.661) scale(.08 -.08)">
<use xlink:href="#s"/>
</g>
</g>
<path d="m1322.5 592.6 0.053906-5.586q0.023159-2.3999-2.3767-2.423l-7.7421-0.074714q-2.3999-0.023159-2.423 2.3767l-0.053907 5.586q-0.023159 2.3999 2.3767 2.423l7.7421 0.074714q2.3999 0.023159 2.423-2.3767z" clip-path="url(#a)" fill="#fff" stroke="#fff"/>
<g clip-path="url(#a)">
<g transform="translate(1318.5 592.56) rotate(-89.447) scale(.08 -.08)">
<use xlink:href="#p"/>
</g>
</g>
<path d="m1353 591.62 3.8148 4.4416q1.5637 1.8207 3.3844 0.25694l5.8735-5.0446q1.8207-1.5637 0.25694-3.3844l-3.8148-4.4416q-1.5637-1.8207-3.3844-0.25694l-5.8735 5.0446q-1.8207 1.5637-0.25694 3.3844z" clip-path="url(#a)" fill="#fff" stroke="#fff"/>
<g clip-path="url(#a)">
<g transform="translate(1356.1 588.97) rotate(49.342) scale(.08 -.08)">
<use xlink:href="#al"/>
</g>
</g>
<path d="m1225.7 672.03v33.808q0 2.4 2.4 2.4h7.7425q2.4 0 2.4-2.4v-33.808q0-2.4-2.4-2.4h-7.7425q-2.4 0-2.4 2.4z" clip-path="url(#a)" fill="#fff" stroke="#fff"/>
<g clip-path="url(#a)">
<g transform="translate(1229.8 672.03) rotate(90) scale(.08 -.08)">
<use xlink:href="#k"/>
<use x="44.083984" xlink:href="#d"/>
<use x="105.607422" xlink:href="#i"/>
<use x="144.970703" xlink:href="#l"/>
<use x="242.382812" xlink:href="#h"/>
<use x="270.166016" xlink:href="#f"/>
<use x="333.544922" xlink:href="#g"/>
<use x="394.824219" xlink:href="#j"/>
</g>
</g>
<path d="m1309.5 672.03v33.808q0 2.4 2.4 2.4h7.7425q2.4 0 2.4-2.4v-33.808q0-2.4-2.4-2.4h-7.7425q-2.4 0-2.4 2.4z" clip-path="url(#a)" fill="#fff" stroke="#fff"/>
<g clip-path="url(#a)">
<g transform="translate(1313.6 672.03) rotate(90) scale(.08 -.08)">
<use xlink:href="#k"/>
<use x="44.083984" xlink:href="#d"/>
<use x="105.607422" xlink:href="#i"/>
<use x="144.970703" xlink:href="#l"/>
<use x="242.382812" xlink:href="#h"/>
<use x="270.166016" xlink:href="#f"/>
<use x="333.544922" xlink:href="#g"/>
<use x="394.824219" xlink:href="#j"/>
</g>
</g>
<path d="m919.22 672.03v33.808q0 2.4 2.4 2.4h7.7425q2.4 0 2.4-2.4v-33.808q0-2.4-2.4-2.4h-7.7425q-2.4 0-2.4 2.4z" clip-path="url(#a)" fill="#fff" stroke="#fff"/>
<g clip-path="url(#a)">
<g transform="translate(923.28 672.03) rotate(90) scale(.08 -.08)">
<use xlink:href="#k"/>
<use x="44.083984" xlink:href="#d"/>
<use x="105.607422" xlink:href="#i"/>
<use x="144.970703" xlink:href="#l"/>
<use x="242.382812" xlink:href="#h"/>
<use x="270.166016" xlink:href="#f"/>
<use x="333.544922" xlink:href="#g"/>
<use x="394.824219" xlink:href="#j"/>
</g>
</g>
<path d="m991.5 672.03v33.808q0 2.4 2.4 2.4h7.7425q2.4 0 2.4-2.4v-33.808q0-2.4-2.4-2.4h-7.7425q-2.4 0-2.4 2.4z" clip-path="url(#a)" fill="#fff" stroke="#fff"/>
<g clip-path="url(#a)">
<g transform="translate(995.56 672.03) rotate(90) scale(.08 -.08)">
<use xlink:href="#k"/>
<use x="44.083984" xlink:href="#d"/>
<use x="105.607422" xlink:href="#i"/>
<use x="144.970703" xlink:href="#l"/>
<use x="242.382812" xlink:href="#h"/>
<use x="270.166016" xlink:href="#f"/>
<use x="333.544922" xlink:href="#g"/>
<use x="394.824219" xlink:href="#j"/>
</g>
</g>
<path d="m355.42 672.03v33.808q0 2.4 2.4 2.4h7.7425q2.4 0 2.4-2.4v-33.808q0-2.4-2.4-2.4h-7.7425q-2.4 0-2.4 2.4z" clip-path="url(#a)" fill="#fff" stroke="#fff"/>
<g clip-path="url(#a)">
<g transform="translate(359.49 672.03) rotate(90) scale(.08 -.08)">
<use xlink:href="#k"/>
<use x="44.083984" xlink:href="#d"/>
<use x="105.607422" xlink:href="#i"/>
<use x="144.970703" xlink:href="#l"/>
<use x="242.382812" xlink:href="#h"/>
<use x="270.166016" xlink:href="#f"/>
<use x="333.544922" xlink:href="#g"/>
<use x="394.824219" xlink:href="#j"/>
</g>
</g>
<path d="m398.79 672.03v33.808q0 2.4 2.4 2.4h7.7425q2.4 0 2.4-2.4v-33.808q0-2.4-2.4-2.4h-7.7425q-2.4 0-2.4 2.4z" clip-path="url(#a)" fill="#fff" stroke="#fff"/>
<g clip-path="url(#a)">
<g transform="translate(402.86 672.03) rotate(90) scale(.08 -.08)">
<use xlink:href="#k"/>
<use x="44.083984" xlink:href="#d"/>
<use x="105.607422" xlink:href="#i"/>
<use x="144.970703" xlink:href="#l"/>
<use x="242.382812" xlink:href="#h"/>
<use x="270.166016" xlink:href="#f"/>
<use x="333.544922" xlink:href="#g"/>
<use x="394.824219" xlink:href="#j"/>
</g>
</g>
<path d="m486.34 493.12 1.0656-5.4557q0.46007-2.3555-1.8954-2.8156l-7.5989-1.4842q-2.3555-0.46007-2.8156 1.8954l-1.0656 5.4557q-0.46007 2.3555 1.8954 2.8156l7.5989 1.4842q2.3555 0.46007 2.8156-1.8954z" clip-path="url(#a)" fill="#fff" stroke="#fff"/>
<g clip-path="url(#a)">
<g transform="translate(482.35 492.34) rotate(-78.948) scale(.08 -.08)">
<use xlink:href="#s"/>
</g>
</g>
<path d="m511.71 387.57 0.81151 4.9894q0.38528 2.3689 2.7542 1.9836l7.6421-1.2429q2.3689-0.38528 1.9836-2.7542l-0.81151-4.9894q-0.38529-2.3689-2.7542-1.9836l-7.6421 1.2429q-2.3689 0.38529-1.9836 2.7542z" clip-path="url(#a)" fill="#fff" stroke="#fff"/>
<g clip-path="url(#a)">
<g transform="translate(515.72 386.92) rotate(80.762) scale(.08 -.08)">
<use xlink:href="#w"/>
</g>
</g>
<path d="m524.6 437.82 1.1525 5.4661q0.49513 2.3484 2.8435 1.8532l7.5759-1.5973q2.3484-0.49513 1.8532-2.8435l-1.1525-5.4661q-0.49513-2.3484-2.8435-1.8532l-7.5759 1.5973q-2.3484 0.49513-1.8532 2.8435z" clip-path="url(#a)" fill="#fff" stroke="#fff"/>
<g clip-path="url(#a)">
<g transform="translate(528.58 436.98) rotate(78.094) scale(.08 -.08)">
<use xlink:href="#p"/>
</g>
</g>
<path d="m445.05 672.03v33.808q0 2.4 2.4 2.4h7.7425q2.4 0 2.4-2.4v-33.808q0-2.4-2.4-2.4h-7.7425q-2.4 0-2.4 2.4z" clip-path="url(#a)" fill="#fff" stroke="#fff"/>
<g clip-path="url(#a)">
<g transform="translate(449.12 672.03) rotate(90) scale(.08 -.08)">
<use xlink:href="#k"/>
<use x="44.083984" xlink:href="#d"/>
<use x="105.607422" xlink:href="#i"/>
<use x="144.970703" xlink:href="#l"/>
<use x="242.382812" xlink:href="#h"/>
<use x="270.166016" xlink:href="#f"/>
<use x="333.544922" xlink:href="#g"/>
<use x="394.824219" xlink:href="#j"/>
</g>
</g>
<path d="m532.75 488.55 1.3731 5.2974q0.60218 2.3232 2.9254 1.7211l7.4948-1.9426q2.3232-0.60218 1.7211-2.9254l-1.3731-5.2974q-0.60218-2.3232-2.9254-1.7211l-7.4948 1.9426q-2.3232 0.60218-1.7211 2.9254z" clip-path="url(#a)" fill="#fff" stroke="#fff"/>
<g clip-path="url(#a)">
<g transform="translate(536.68 487.53) rotate(75.469) scale(.08 -.08)">
<use xlink:href="#q"/>
</g>
</g>
<path d="m519.38 542.88 0.65442-5.0364q0.30925-2.38-2.0707-2.6892l-7.678-0.99766q-2.38-0.30925-2.6892 2.0707l-0.65442 5.0364q-0.30925 2.38 2.0707 2.6892l7.678 0.99766q2.38 0.30925 2.6892-2.0707z" clip-path="url(#a)" fill="#fff" stroke="#fff"/>
<g clip-path="url(#a)">
<g transform="translate(515.35 542.36) rotate(-82.597) scale(.08 -.08)">
<use xlink:href="#z"/>
</g>
</g>
<path d="m546.12 583.25v12.991q0 2.4 2.4 2.4h8q2.4 0 2.4-2.4v-12.991q0-2.4-2.4-2.4h-8q-2.4 0-2.4 2.4z" clip-path="url(#a)" fill="#fff" stroke="#fff"/>
<g clip-path="url(#a)">
<g transform="translate(550.4 583.25) rotate(90) scale(.08 -.08)">
<defs>
<path id="au" d="m21 76.422v-100h-8.2969v100z"/>
<path id="aq" d="m19.672 64.797v-27.391h12.406q6.8906 0 10.641 3.5625 3.7656 3.5625 3.7656 10.156 0 6.5469-3.7656 10.109-3.75 3.5625-10.641 3.5625zm-9.8594 8.1094h22.266q12.266 0 18.531-5.5469 6.2812-5.5469 6.2812-16.234 0-10.797-6.2812-16.312-6.2656-5.5156-18.531-5.5156h-12.406v-29.297h-9.8594z"/>
</defs>
<use xlink:href="#q"/>
<use x="68.408203" xlink:href="#au"/>
<use x="102.099609" xlink:href="#aq"/>
</g>
</g>
<path d="m546.25 672.03v33.808q0 2.4 2.4 2.4h7.7425q2.4 0 2.4-2.4v-33.808q0-2.4-2.4-2.4h-7.7425q-2.4 0-2.4 2.4z" clip-path="url(#a)" fill="#fff" stroke="#fff"/>
<g clip-path="url(#a)">
<g transform="translate(550.31 672.03) rotate(90) scale(.08 -.08)">
<use xlink:href="#k"/>
<use x="44.083984" xlink:href="#d"/>
<use x="105.607422" xlink:href="#i"/>
<use x="144.970703" xlink:href="#l"/>
<use x="242.382812" xlink:href="#h"/>
<use x="270.166016" xlink:href="#f"/>
<use x="333.544922" xlink:href="#g"/>
<use x="394.824219" xlink:href="#j"/>
</g>
</g>
<path d="m494.2 672.03v33.808q0 2.4 2.4 2.4h7.7425q2.4 0 2.4-2.4v-33.808q0-2.4-2.4-2.4h-7.7425q-2.4 0-2.4 2.4z" clip-path="url(#a)" fill="#fff" stroke="#fff"/>
<g clip-path="url(#a)">
<g transform="translate(498.27 672.03) rotate(90) scale(.08 -.08)">
<use xlink:href="#k"/>
<use x="44.083984" xlink:href="#d"/>
<use x="105.607422" xlink:href="#i"/>
<use x="144.970703" xlink:href="#l"/>
<use x="242.382812" xlink:href="#h"/>
<use x="270.166016" xlink:href="#f"/>
<use x="333.544922" xlink:href="#g"/>
<use x="394.824219" xlink:href="#j"/>
</g>
</g>
<path d="m88.6 492.91 0.626-5.0161q0.29721-2.3815-2.0843-2.6787l-7.6829-0.95882q-2.3815-0.29721-2.6787 2.0843l-0.626 5.0161q-0.29721 2.3815 2.0843 2.6787l7.6829 0.95882q2.3815 0.29721 2.6787-2.0843z" clip-path="url(#a)" fill="#fff" stroke="#fff"/>
<g clip-path="url(#a)">
<g transform="translate(84.567 492.4) rotate(-82.886) scale(.08 -.08)">
<use xlink:href="#w"/>
</g>
</g>
<path d="m88.785 537.16 0.34881 5.5753q0.14986 2.3953 2.5452 2.2455l7.7274-0.48345q2.3953-0.14986 2.2455-2.5452l-0.34881-5.5754q-0.14986-2.3953-2.5452-2.2455l-7.7274 0.48345q-2.3953 0.14986-2.2455 2.5452z" clip-path="url(#a)" fill="#fff" stroke="#fff"/>
<g clip-path="url(#a)">
<g transform="translate(92.841 536.9) rotate(86.42) scale(.08 -.08)">
<use xlink:href="#p"/>
</g>
</g>
<path d="m112.56 672.03v33.808q0 2.4 2.4 2.4h7.7425q2.4 0 2.4-2.4v-33.808q0-2.4-2.4-2.4h-7.7425q-2.4 0-2.4 2.4z" clip-path="url(#a)" fill="#fff" stroke="#fff"/>
<g clip-path="url(#a)">
<g transform="translate(116.62 672.03) rotate(90) scale(.08 -.08)">
<use xlink:href="#k"/>
<use x="44.083984" xlink:href="#d"/>
<use x="105.607422" xlink:href="#i"/>
<use x="144.970703" xlink:href="#l"/>
<use x="242.382812" xlink:href="#h"/>
<use x="270.166016" xlink:href="#f"/>
<use x="333.544922" xlink:href="#g"/>
<use x="394.824219" xlink:href="#j"/>
</g>
</g>
<path d="m150.76 593.23 0.63945-5.5218q0.27608-2.3841-2.108-2.6602l-7.6911-0.89066q-2.3841-0.27608-2.6602 2.108l-0.63945 5.5218q-0.27608 2.3841 2.108 2.6602l7.6911 0.89065q2.3841 0.27608 2.6602-2.108z" clip-path="url(#a)" fill="#fff" stroke="#fff"/>
<g clip-path="url(#a)">
<g transform="translate(146.72 592.77) rotate(-83.394) scale(.08 -.08)">
<use xlink:href="#s"/>
</g>
</g>
<path d="m149.87 587.7 0.64261 5.5492q0.27608 2.3841 2.6602 2.108l7.6911-0.89065q2.3841-0.27608 2.108-2.6602l-0.64261-5.5492q-0.27608-2.3841-2.6602-2.108l-7.6911 0.89065q-2.3841 0.27608-2.108 2.6602z" clip-path="url(#a)" fill="#fff" stroke="#fff"/>
<g clip-path="url(#a)">
<g transform="translate(153.9 587.23) rotate(83.394) scale(.08 -.08)">
<use xlink:href="#p"/>
</g>
</g>
<path d="m132.8 672.03v33.808q0 2.4 2.4 2.4h7.7425q2.4 0 2.4-2.4v-33.808q0-2.4-2.4-2.4h-7.7425q-2.4 0-2.4 2.4z" clip-path="url(#a)" fill="#fff" stroke="#fff"/>
<g clip-path="url(#a)">
<g transform="translate(136.86 672.03) rotate(90) scale(.08 -.08)">
<use xlink:href="#k"/>
<use x="44.083984" xlink:href="#d"/>
<use x="105.607422" xlink:href="#i"/>
<use x="144.970703" xlink:href="#l"/>
<use x="242.382812" xlink:href="#h"/>
<use x="270.166016" xlink:href="#f"/>
<use x="333.544922" xlink:href="#g"/>
<use x="394.824219" xlink:href="#j"/>
</g>
</g>
<path d="m155.93 672.03v33.808q0 2.4 2.4 2.4h7.7425q2.4 0 2.4-2.4v-33.808q0-2.4-2.4-2.4h-7.7425q-2.4 0-2.4 2.4z" clip-path="url(#a)" fill="#fff" stroke="#fff"/>
<g clip-path="url(#a)">
<g transform="translate(159.99 672.03) rotate(90) scale(.08 -.08)">
<use xlink:href="#k"/>
<use x="44.083984" xlink:href="#d"/>
<use x="105.607422" xlink:href="#i"/>
<use x="144.970703" xlink:href="#l"/>
<use x="242.382812" xlink:href="#h"/>
<use x="270.166016" xlink:href="#f"/>
<use x="333.544922" xlink:href="#g"/>
<use x="394.824219" xlink:href="#j"/>
</g>
</g>
<path d="m77.628 592.64 0.44198-4.58q0.23054-2.3889-2.1584-2.6194l-7.7067-0.74372q-2.3889-0.23054-2.6194 2.1584l-0.44198 4.58q-0.23054 2.3889 2.1584 2.6194l7.7067 0.74372q2.3889 0.23054 2.6194-2.1584z" clip-path="url(#a)" fill="#fff" stroke="#fff"/>
<g clip-path="url(#a)">
<g transform="translate(73.583 592.25) rotate(-84.488) scale(.08 -.08)">
<use xlink:href="#aa"/>
</g>
</g>
<path d="m82.188 592.6 0.053906-5.586q0.02316-2.3999-2.3767-2.423l-7.7421-0.074714q-2.3999-0.023159-2.423 2.3767l-0.053906 5.586q-0.023159 2.3999 2.3767 2.423l7.7421 0.074714q2.3999 0.023159 2.423-2.3767z" clip-path="url(#a)" fill="#fff" stroke="#fff"/>
<g clip-path="url(#a)">
<g transform="translate(78.124 592.56) rotate(-89.447) scale(.08 -.08)">
<use xlink:href="#p"/>
</g>
</g>
<path d="m75.196 587.65 0.58678 5.5277q0.25334 2.3866 2.6399 2.1332l7.6992-0.8173q2.3866-0.25334 2.1332-2.6399l-0.58678-5.5277q-0.25334-2.3866-2.6399-2.1332l-7.6992 0.8173q-2.3866 0.25334-2.1332 2.6399z" clip-path="url(#a)" fill="#fff" stroke="#fff"/>
<g clip-path="url(#a)">
<g transform="translate(79.237 587.22) rotate(83.941) scale(.08 -.08)">
<use xlink:href="#s"/>
</g>
</g>
<path d="m95.212 672.03v33.808q0 2.4 2.4 2.4h7.7425q2.4 0 2.4-2.4v-33.808q0-2.4-2.4-2.4h-7.7425q-2.4 0-2.4 2.4z" clip-path="url(#a)" fill="#fff" stroke="#fff"/>
<g clip-path="url(#a)">
<g transform="translate(99.275 672.03) rotate(90) scale(.08 -.08)">
<use xlink:href="#k"/>
<use x="44.083984" xlink:href="#d"/>
<use x="105.607422" xlink:href="#i"/>
<use x="144.970703" xlink:href="#l"/>
<use x="242.382812" xlink:href="#h"/>
<use x="270.166016" xlink:href="#f"/>
<use x="333.544922" xlink:href="#g"/>
<use x="394.824219" xlink:href="#j"/>
</g>
</g>
<path d="m60.517 672.03v33.808q0 2.4 2.4 2.4h7.7425q2.4 0 2.4-2.4v-33.808q0-2.4-2.4-2.4h-7.7425q-2.4 0-2.4 2.4z" clip-path="url(#a)" fill="#fff" stroke="#fff"/>
<g clip-path="url(#a)">
<g transform="translate(64.58 672.03) rotate(90) scale(.08 -.08)">
<use xlink:href="#k"/>
<use x="44.083984" xlink:href="#d"/>
<use x="105.607422" xlink:href="#i"/>
<use x="144.970703" xlink:href="#l"/>
<use x="242.382812" xlink:href="#h"/>
<use x="270.166016" xlink:href="#f"/>
<use x="333.544922" xlink:href="#g"/>
<use x="394.824219" xlink:href="#j"/>
</g>
</g>
<path d="m69.19 672.03v33.808q0 2.4 2.4 2.4h7.7425q2.4 0 2.4-2.4v-33.808q0-2.4-2.4-2.4h-7.7425q-2.4 0-2.4 2.4z" clip-path="url(#a)" fill="#fff" stroke="#fff"/>
<g clip-path="url(#a)">
<g transform="translate(73.254 672.03) rotate(90) scale(.08 -.08)">
<use xlink:href="#k"/>
<use x="44.083984" xlink:href="#d"/>
<use x="105.607422" xlink:href="#i"/>
<use x="144.970703" xlink:href="#l"/>
<use x="242.382812" xlink:href="#h"/>
<use x="270.166016" xlink:href="#f"/>
<use x="333.544922" xlink:href="#g"/>
<use x="394.824219" xlink:href="#j"/>
</g>
</g>
<path d="m80.755 672.03v33.808q0 2.4 2.4 2.4h7.7425q2.4 0 2.4-2.4v-33.808q0-2.4-2.4-2.4h-7.7425q-2.4 0-2.4 2.4z" clip-path="url(#a)" fill="#fff" stroke="#fff"/>
<g clip-path="url(#a)">
<g transform="translate(84.819 672.03) rotate(90) scale(.08 -.08)">
<use xlink:href="#k"/>
<use x="44.083984" xlink:href="#d"/>
<use x="105.607422" xlink:href="#i"/>
<use x="144.970703" xlink:href="#l"/>
<use x="242.382812" xlink:href="#h"/>
<use x="270.166016" xlink:href="#f"/>
<use x="333.544922" xlink:href="#g"/>
<use x="394.824219" xlink:href="#j"/>
</g>
</g>
<path d="m181.95 672.03v33.808q0 2.4 2.4 2.4h7.7425q2.4 0 2.4-2.4v-33.808q0-2.4-2.4-2.4h-7.7425q-2.4 0-2.4 2.4z" clip-path="url(#a)" fill="#fff" stroke="#fff"/>
<g clip-path="url(#a)">
<g transform="translate(186.01 672.03) rotate(90) scale(.08 -.08)">
<use xlink:href="#k"/>
<use x="44.083984" xlink:href="#d"/>
<use x="105.607422" xlink:href="#i"/>
<use x="144.970703" xlink:href="#l"/>
<use x="242.382812" xlink:href="#h"/>
<use x="270.166016" xlink:href="#f"/>
<use x="333.544922" xlink:href="#g"/>
<use x="394.824219" xlink:href="#j"/>
</g>
</g>
<path d="m1396.3 672.03v33.808q0 2.4 2.4 2.4h7.7425q2.4 0 2.4-2.4v-33.808q0-2.4-2.4-2.4h-7.7425q-2.4 0-2.4 2.4z" clip-path="url(#a)" fill="#fff" stroke="#fff"/>
<g clip-path="url(#a)">
<g transform="translate(1400.3 672.03) rotate(90) scale(.08 -.08)">
<use xlink:href="#k"/>
<use x="44.083984" xlink:href="#d"/>
<use x="105.607422" xlink:href="#i"/>
<use x="144.970703" xlink:href="#l"/>
<use x="242.382812" xlink:href="#h"/>
<use x="270.166016" xlink:href="#f"/>
<use x="333.544922" xlink:href="#g"/>
<use x="394.824219" xlink:href="#j"/>
</g>
</g>
<defs>
<path id="b" d="m0 8.6603c2.2967 0 4.4997-0.9125 6.1237-2.5365 1.624-1.624 2.5365-3.827 2.5365-6.1237s-0.9125-4.4997-2.5365-6.1237c-1.624-1.624-3.827-2.5365-6.1237-2.5365s-4.4997 0.9125-6.1237 2.5365c-1.624 1.624-2.5365 3.827-2.5365 6.1237s0.9125 4.4997 2.5365 6.1237c1.624 1.624 3.827 2.5365 6.1237 2.5365z"/>
</defs>
<g clip-path="url(#a)" fill="#ffffff" stroke="#ffffff">
<use x="66.787879" y="738.181818" xlink:href="#b"/>
<use x="75.461629" y="738.181818" xlink:href="#b"/>
<use x="87.02663" y="738.181818" xlink:href="#b"/>
<use x="101.482881" y="738.181818" xlink:href="#b"/>
<use x="118.830382" y="738.181818" xlink:href="#b"/>
<use x="139.069133" y="738.181818" xlink:href="#b"/>
<use x="162.199134" y="738.181818" xlink:href="#b"/>
<use x="188.220386" y="738.181818" xlink:href="#b"/>
<use x="217.132887" y="738.181818" xlink:href="#b"/>
<use x="248.936639" y="738.181818" xlink:href="#b"/>
<use x="283.631641" y="738.181818" xlink:href="#b"/>
<use x="321.217893" y="738.181818" xlink:href="#b"/>
<use x="361.695396" y="738.181818" xlink:href="#b"/>
<use x="405.064148" y="738.181818" xlink:href="#b"/>
<use x="451.324151" y="738.181818" xlink:href="#b"/>
<use x="500.475403" y="738.181818" xlink:href="#b"/>
<use x="552.517906" y="738.181818" xlink:href="#b"/>
<use x="607.451659" y="738.181818" xlink:href="#b"/>
<use x="665.276663" y="738.181818" xlink:href="#b"/>
<use x="725.992916" y="738.181818" xlink:href="#b"/>
<use x="789.60042" y="738.181818" xlink:href="#b"/>
<use x="856.099174" y="738.181818" xlink:href="#b"/>
<use x="925.489177" y="738.181818" xlink:href="#b"/>
<use x="997.770432" y="738.181818" xlink:href="#b"/>
<use x="1072.942936" y="738.181818" xlink:href="#b"/>
<use x="1151.00669" y="738.181818" xlink:href="#b"/>
<use x="1231.961695" y="738.181818" xlink:href="#b"/>
<use x="1315.80795" y="738.181818" xlink:href="#b"/>
<use x="1402.545455" y="738.181818" xlink:href="#b"/>
<use x="233.777172" y="35.151515" xlink:href="#b"/>
<use x="119.472882" y="338.692091" xlink:href="#b"/>
<use x="217.132887" y="639.68436" xlink:href="#b"/>
<use x="410.282533" y="136.512608" xlink:href="#b"/>
<use x="248.936639" y="639.68436" xlink:href="#b"/>
<use x="283.631641" y="639.68436" xlink:href="#b"/>
<use x="321.217893" y="639.68436" xlink:href="#b"/>
<use x="425.624149" y="237.704121" xlink:href="#b"/>
<use x="772.002344" y="338.692091" xlink:href="#b"/>
<use x="607.451659" y="639.68436" xlink:href="#b"/>
<use x="665.276663" y="639.68436" xlink:href="#b"/>
<use x="725.992916" y="639.68436" xlink:href="#b"/>
<use x="789.60042" y="639.68436" xlink:href="#b"/>
<use x="1071.690061" y="439.425229" xlink:href="#b"/>
<use x="856.099174" y="639.68436" xlink:href="#b"/>
<use x="961.629805" y="539.816693" xlink:href="#b"/>
<use x="1072.942936" y="639.68436" xlink:href="#b"/>
<use x="1151.00669" y="639.68436" xlink:href="#b"/>
<use x="1316.7717" y="539.816693" xlink:href="#b"/>
<use x="1231.961695" y="639.68436" xlink:href="#b"/>
<use x="1315.80795" y="639.68436" xlink:href="#b"/>
<use x="925.489177" y="639.68436" xlink:href="#b"/>
<use x="997.770432" y="639.68436" xlink:href="#b"/>
<use x="361.695396" y="639.68436" xlink:href="#b"/>
<use x="405.064148" y="639.68436" xlink:href="#b"/>
<use x="510.112904" y="338.692091" xlink:href="#b"/>
<use x="451.324151" y="639.68436" xlink:href="#b"/>
<use x="526.496655" y="439.425229" xlink:href="#b"/>
<use x="552.517906" y="539.816693" xlink:href="#b"/>
<use x="552.517906" y="639.68436" xlink:href="#b"/>
<use x="500.475403" y="639.68436" xlink:href="#b"/>
<use x="88.95413" y="439.425229" xlink:href="#b"/>
<use x="118.830382" y="639.68436" xlink:href="#b"/>
<use x="150.634134" y="539.816693" xlink:href="#b"/>
<use x="139.069133" y="639.68436" xlink:href="#b"/>
<use x="162.199134" y="639.68436" xlink:href="#b"/>
<use x="76.425379" y="539.816693" xlink:href="#b"/>
<use x="101.482881" y="639.68436" xlink:href="#b"/>
<use x="66.787879" y="639.68436" xlink:href="#b"/>
<use x="75.461629" y="639.68436" xlink:href="#b"/>
<use x="87.02663" y="639.68436" xlink:href="#b"/>
<use x="188.220386" y="639.68436" xlink:href="#b"/>
<use x="1402.545455" y="639.68436" xlink:href="#b"/>
</g>
<g clip-path="url(#a)">
<g transform="translate(57.489 740.94) scale(.1 -.1)">
<defs>
<path id="u" d="m54.891 33.016v-33.016h-8.9844v32.719q0 7.7656-3.0312 11.609-3.0312 3.8594-9.0781 3.8594-7.2812 0-11.484-4.6406-4.2031-4.625-4.2031-12.641v-30.906h-9.0312v75.984h9.0312v-29.797q3.2344 4.9375 7.5938 7.375 4.375 2.4375 10.094 2.4375 9.4219 0 14.25-5.8281 4.8438-5.8281 4.8438-17.156z"/>
</defs>
<use xlink:href="#k"/>
<use x="61.083984" xlink:href="#u"/>
<use x="124.462891" xlink:href="#d"/>
</g>
</g>
<g clip-path="url(#a)">
<g transform="translate(49.58 740.94) scale(.1 -.1)">
<defs>
<path id="aw" d="m18.109 8.2031v-29h-9.0312v75.484h9.0312v-8.2969q2.8438 4.875 7.1562 7.2344 4.3281 2.375 10.328 2.375 9.9688 0 16.188-7.9062 6.2344-7.9062 6.2344-20.797t-6.2344-20.812q-6.2188-7.9062-16.188-7.9062-6 0-10.328 2.375-4.3125 2.375-7.1562 7.25zm30.578 19.094q0 9.9062-4.0781 15.547t-11.203 5.6406q-7.1406 0-11.219-5.6406t-4.0781-15.547 4.0781-15.547 11.219-5.6406q7.125 0 11.203 5.6406t4.0781 15.547z"/>
<path id="r" d="m30.609 48.391q-7.2188 0-11.422-5.6406t-4.2031-15.453 4.1719-15.453q4.1875-5.6406 11.453-5.6406 7.1875 0 11.375 5.6562 4.2031 5.6719 4.2031 15.438 0 9.7188-4.2031 15.406-4.1875 5.6875-11.375 5.6875zm0 7.6094q11.719 0 18.406-7.625 6.7031-7.6094 6.7031-21.078 0-13.422-6.7031-21.078-6.6875-7.6406-18.406-7.6406-11.766 0-18.438 7.6406-6.6562 7.6562-6.6562 21.078 0 13.469 6.6562 21.078 6.6719 7.625 18.438 7.625z"/>
</defs>
<use xlink:href="#u"/>
<use x="63.378906" xlink:href="#g"/>
<use x="124.658203" xlink:href="#i"/>
<use x="165.771484" xlink:href="#aw"/>
<use x="229.248047" xlink:href="#r"/>
<use x="290.429688" xlink:href="#r"/>
<use x="351.611328" xlink:href="#f"/>
<use x="414.990234" xlink:href="#d"/>
<use x="476.513672" xlink:href="#i"/>
</g>
</g>
<g clip-path="url(#a)">
<g transform="translate(83.048 740.94) scale(.1 -.1)">
<defs>
<path id="at" d="m17.922 72.906v-27.109h-8.2969v27.109z"/>
<path id="x" d="m44.281 53.078v-8.5q-3.7969 1.9531-7.9062 2.9219-4.0938 0.98438-8.5 0.98438-6.6875 0-10.031-2.0469t-3.3438-6.1562q0-3.125 2.3906-4.9062t9.625-3.3906l3.0781-0.6875q9.5625-2.0469 13.594-5.7812t4.0312-10.422q0-7.625-6.0312-12.078-6.0312-4.4375-16.578-4.4375-4.3906 0-9.1562 0.85938t-10.031 2.5625v9.2812q4.9844-2.5938 9.8125-3.8906 4.8281-1.2812 9.5781-1.2812 6.3438 0 9.75 2.1719 3.4219 2.1719 3.4219 6.125 0 3.6562-2.4688 5.6094-2.4531 1.9531-10.812 3.7656l-3.125 0.73438q-8.3438 1.75-12.062 5.3906-3.7031 3.6406-3.7031 9.9844 0 7.7188 5.4688 11.906 5.4688 4.2031 15.531 4.2031 4.9688 0 9.3594-0.73438 4.4062-0.71875 8.1094-2.1875z"/>
</defs>
<use xlink:href="#at"/>
<use x="27.490234" xlink:href="#x"/>
</g>
</g>
<g clip-path="url(#a)">
<g transform="translate(86.051 740.94) scale(.1 -.1)">
<defs>
<path id="ak" d="m37.109 75.984v-7.4844h-8.5938q-4.8281 0-6.7188-1.9531-1.875-1.9531-1.875-7.0312v-4.8281h14.797v-6.9844h-14.797v-47.703h-9.0312v47.703h-8.5938v6.9844h8.5938v3.8125q0 9.125 4.25 13.297 4.25 4.1875 13.469 4.1875z"/>
<path id="ah" d="m32.172-5.0781q-3.7969-9.7656-7.4219-12.734-3.6094-2.9844-9.6562-2.9844h-7.1875v7.5156h5.2812q3.7031 0 5.75 1.7656 2.0625 1.75 4.5469 8.2969l1.6094 4.0938-22.109 53.812h9.5156l17.094-42.766 17.094 42.766h9.5156z"/>
</defs>
<use xlink:href="#ak"/>
<use x="35.205078" xlink:href="#g"/>
<use x="96.484375" xlink:href="#l"/>
<use x="193.896484" xlink:href="#h"/>
<use x="221.679688" xlink:href="#j"/>
<use x="249.462891" xlink:href="#ah"/>
</g>
</g>
<g clip-path="url(#a)">
<g transform="translate(93.319 740.94) scale(.1 -.1)">
<defs>
<path id="ao" d="m45.406 27.984q0 9.7656-4.0312 15.125-4.0156 5.375-11.297 5.375-7.2188 0-11.25-5.375-4.0312-5.3594-4.0312-15.125 0-9.7188 4.0312-15.094t11.25-5.375q7.2812 0 11.297 5.375 4.0312 5.375 4.0312 15.094zm8.9844-21.203q0-13.953-6.2031-20.766-6.1875-6.8125-18.984-6.8125-4.7344 0-8.9375 0.70312t-8.1562 2.1719v8.7344q3.9531-2.1406 7.8125-3.1562 3.8594-1.0312 7.8594-1.0312 8.8438 0 13.234 4.6094t4.3906 13.938v4.4531q-2.7812-4.8438-7.125-7.2344t-10.406-2.3906q-10.047 0-16.203 7.6562-6.1562 7.6719-6.1562 20.328 0 12.688 6.1562 20.344 6.1562 7.6719 16.203 7.6719 6.0625 0 10.406-2.3906t7.125-7.2188v8.2969h8.9844z"/>
<path id="t" d="m18.312 70.219v-15.531h18.5v-6.9844h-18.5v-29.688q0-6.6875 1.8281-8.5938t7.4531-1.9062h9.2188v-7.5156h-9.2188q-10.406 0-14.359 3.875-3.9531 3.8906-3.9531 14.141v29.688h-6.5938v6.9844h6.5938v15.531z"/>
<path id="v" d="m45.406 46.391v29.594h8.9844v-75.984h-8.9844v8.2031q-2.8281-4.875-7.1562-7.25-4.3125-2.375-10.375-2.375-9.9062 0-16.141 7.9062-6.2188 7.9219-6.2188 20.812t6.2188 20.797q6.2344 7.9062 16.141 7.9062 6.0625 0 10.375-2.375 4.3281-2.3594 7.1562-7.2344zm-30.609-19.094q0-9.9062 4.0781-15.547t11.203-5.6406 11.219 5.6406q4.1094 5.6406 4.1094 15.547t-4.1094 15.547q-4.0938 5.6406-11.219 5.6406t-11.203-5.6406-4.0781-15.547z"/>
</defs>
<use xlink:href="#r"/>
<use x="61.181641" xlink:href="#i"/>
<use x="102.294922" xlink:href="#h"/>
<use x="130.078125" xlink:href="#ao"/>
<use x="193.554688" xlink:href="#h"/>
<use x="221.337891" xlink:href="#f"/>
<use x="284.716797" xlink:href="#g"/>
<use x="345.996094" xlink:href="#t"/>
<use x="385.205078" xlink:href="#d"/>
<use x="446.728516" xlink:href="#v"/>
</g>
</g>
<g clip-path="url(#a)">
<g transform="translate(134.51 740.94) scale(.1 -.1)">
<use xlink:href="#h"/>
<use x="27.783203" xlink:href="#f"/>
</g>
</g>
<g clip-path="url(#a)">
<g transform="translate(143.02 740.94) scale(.1 -.1)">
<defs>
<path id="ap" d="m39.406 66.219q-10.75 0-17.078-8.0156-6.3125-8-6.3125-21.828 0-13.766 6.3125-21.781 6.3281-8 17.078-8 10.734 0 17.016 8 6.2812 8.0156 6.2812 21.781 0 13.828-6.2812 21.828-6.2812 8.0156-17.016 8.0156zm13.812-64.906 13-14.203h-11.922l-10.797 11.672q-1.6094-0.09375-2.4688-0.14062-0.84375-0.0625-1.625-0.0625-15.375 0-24.594 10.281-9.2031 10.281-9.2031 27.516 0 17.281 9.2031 27.562 9.2188 10.281 24.594 10.281 15.328 0 24.5-10.281 9.1875-10.281 9.1875-27.562 0-12.688-5.1094-21.734-5.0938-9.0312-14.766-13.328z"/>
<path id="av" d="m8.5 21.578v33.109h8.9844v-32.766q0-7.7656 3.0156-11.656 3.0312-3.875 9.0938-3.875 7.2656 0 11.484 4.6406 4.2344 4.6406 4.2344 12.656v31h8.9844v-54.688h-8.9844v8.4062q-3.2656-4.9844-7.5938-7.4062-4.3125-2.4219-10.031-2.4219-9.4219 0-14.312 5.8594-4.875 5.8594-4.875 17.141z"/>
<path id="y" d="m48.688 27.297q0 9.9062-4.0781 15.547t-11.203 5.6406q-7.1406 0-11.219-5.6406t-4.0781-15.547 4.0781-15.547 11.219-5.6406q7.125 0 11.203 5.6406t4.0781 15.547zm-30.578 19.094q2.8438 4.875 7.1562 7.2344 4.3281 2.375 10.328 2.375 9.9688 0 16.188-7.9062 6.2344-7.9062 6.2344-20.797t-6.2344-20.812q-6.2188-7.9062-16.188-7.9062-6 0-10.328 2.375-4.3125 2.375-7.1562 7.25v-8.2031h-9.0312v75.984h9.0312z"/>
<path id="ai" d="m48.781 52.594v-8.4062q-3.8125 2.1094-7.6406 3.1562t-7.7344 1.0469q-8.75 0-13.594-5.5469-4.8281-5.5312-4.8281-15.547t4.8281-15.562q4.8438-5.5312 13.594-5.5312 3.9062 0 7.7344 1.0469t7.6406 3.1562v-8.3125q-3.7656-1.75-7.7969-2.625-4.0156-0.89062-8.5625-0.89062-12.359 0-19.641 7.7656-7.2656 7.7656-7.2656 20.953 0 13.375 7.3438 21.031 7.3594 7.6719 20.156 7.6719 4.1406 0 8.0938-0.85938 3.9531-0.84375 7.6719-2.5469z"/>
</defs>
<use xlink:href="#ap"/>
<use x="78.710938" xlink:href="#av"/>
<use x="142.089844" xlink:href="#d"/>
<use x="203.613281" xlink:href="#y"/>
<use x="267.089844" xlink:href="#d"/>
<use x="328.613281" xlink:href="#ai"/>
</g>
</g>
<g clip-path="url(#a)">
<g transform="translate(186.63 740.94) scale(.1 -.1)">
<defs>
<path id="as" d="m11.719 12.406h10.297v-8.4062l-8-15.625h-6.2969l4 15.625z"/>
</defs>
<use xlink:href="#as"/>
</g>
</g>
<g clip-path="url(#a)">
<g transform="translate(207.73 740.94) scale(.1 -.1)">
<use xlink:href="#g"/>
<use x="61.279297" xlink:href="#f"/>
<use x="124.658203" xlink:href="#v"/>
</g>
</g>
<g clip-path="url(#a)">
<g transform="translate(237.77 740.94) scale(.1 -.1)">
<use xlink:href="#t"/>
<use x="39.208984" xlink:href="#u"/>
<use x="102.587891" xlink:href="#d"/>
<use x="164.111328" xlink:href="#ah"/>
</g>
</g>
<g clip-path="url(#a)">
<g transform="translate(271.45 740.94) scale(.1 -.1)">
<defs>
<path id="aj" d="m4.2031 54.688h8.9844l11.234-42.672 11.172 42.672h10.594l11.234-42.672 11.188 42.672h8.9844l-14.312-54.688h-10.594l-11.766 44.828-11.812-44.828h-10.609z"/>
</defs>
<use xlink:href="#aj"/>
<use x="81.787109" xlink:href="#d"/>
<use x="143.310547" xlink:href="#i"/>
<use x="182.173828" xlink:href="#d"/>
</g>
</g>
<g clip-path="url(#a)">
<g transform="translate(302.55 740.94) scale(.1 -.1)">
<use xlink:href="#g"/>
<use x="61.279297" xlink:href="#j"/>
<use x="89.0625" xlink:href="#i"/>
<use x="127.925781" xlink:href="#d"/>
<use x="189.449219" xlink:href="#g"/>
<use x="250.728516" xlink:href="#v"/>
<use x="314.205078" xlink:href="#ah"/>
</g>
</g>
<g clip-path="url(#a)">
<g transform="translate(358.63 740.94) scale(.1 -.1)">
<use xlink:href="#g"/>
</g>
</g>
<g clip-path="url(#a)">
<g transform="translate(396.04 740.94) scale(.1 -.1)">
<use xlink:href="#j"/>
<use x="27.783203" xlink:href="#h"/>
<use x="55.566406" xlink:href="#f"/>
<use x="118.945312" xlink:href="#d"/>
</g>
</g>
<g clip-path="url(#a)">
<g transform="translate(446.5 740.94) scale(.1 -.1)">
<use xlink:href="#r"/>
<use x="61.181641" xlink:href="#ak"/>
</g>
</g>
<g clip-path="url(#a)">
<g transform="translate(489.68 740.94) scale(.1 -.1)">
<use xlink:href="#y"/>
<use x="63.476562" xlink:href="#r"/>
<use x="124.658203" xlink:href="#j"/>
<use x="152.441406" xlink:href="#v"/>
</g>
</g>
<g clip-path="url(#a)">
<g transform="translate(527.44 740.94) scale(.1 -.1)">
<use xlink:href="#ak"/>
<use x="35.205078" xlink:href="#h"/>
<use x="62.988281" xlink:href="#x"/>
<use x="115.087891" xlink:href="#u"/>
<use x="178.466797" xlink:href="#d"/>
<use x="239.990234" xlink:href="#i"/>
<use x="279.353516" xlink:href="#l"/>
<use x="376.765625" xlink:href="#d"/>
<use x="438.289062" xlink:href="#f"/>
</g>
</g>
<g clip-path="url(#a)">
<g transform="translate(595.57 740.94) scale(.1 -.1)">
<defs>
<path id="ax" d="m9.0781 75.984h9.0312v-44.875l26.812 23.578h11.469l-29-25.578 30.234-29.109h-11.719l-27.797 26.703v-26.703h-9.0312z"/>
</defs>
<use xlink:href="#y"/>
<use x="63.476562" xlink:href="#g"/>
<use x="124.755859" xlink:href="#ai"/>
<use x="179.736328" xlink:href="#ax"/>
</g>
</g>
<g clip-path="url(#a)">
<g transform="translate(660.72 740.94) scale(.1 -.1)">
<use xlink:href="#h"/>
<use x="27.783203" xlink:href="#f"/>
</g>
</g>
<g clip-path="url(#a)">
<g transform="translate(717.79 740.94) scale(.1 -.1)">
<use xlink:href="#t"/>
<use x="39.208984" xlink:href="#u"/>
<use x="102.587891" xlink:href="#d"/>
</g>
</g>
<g clip-path="url(#a)">
<g transform="translate(777.8 740.94) scale(.1 -.1)">
<use xlink:href="#v"/>
<use x="63.476562" xlink:href="#g"/>
<use x="124.755859" xlink:href="#ah"/>
<use x="183.935547" xlink:href="#x"/>
</g>
</g>
<g clip-path="url(#a)">
<g transform="translate(842.6 740.94) scale(.1 -.1)">
<use xlink:href="#aj"/>
<use x="81.787109" xlink:href="#u"/>
<use x="145.166016" xlink:href="#d"/>
<use x="206.689453" xlink:href="#f"/>
</g>
</g>
<g clip-path="url(#a)">
<g transform="translate(916.37 740.94) scale(.1 -.1)">
<use xlink:href="#t"/>
<use x="39.208984" xlink:href="#u"/>
<use x="102.587891" xlink:href="#h"/>
<use x="130.371094" xlink:href="#x"/>
</g>
</g>
<g clip-path="url(#a)">
<g transform="translate(985.49 740.94) scale(.1 -.1)">
<use xlink:href="#t"/>
<use x="39.208984" xlink:href="#r"/>
<use x="100.390625" xlink:href="#aj"/>
<use x="182.177734" xlink:href="#f"/>
</g>
</g>
<g clip-path="url(#a)">
<g transform="translate(1064.2 740.94) scale(.1 -.1)">
<use xlink:href="#x"/>
<use x="52.099609" xlink:href="#t"/>
<use x="91.308594" xlink:href="#h"/>
<use x="119.091797" xlink:href="#j"/>
<use x="146.875" xlink:href="#j"/>
</g>
</g>
<g clip-path="url(#a)">
<g transform="translate(1127.7 740.94) scale(.1 -.1)">
<use xlink:href="#y"/>
<use x="63.476562" xlink:href="#d"/>
<use x="125" xlink:href="#j"/>
<use x="152.783203" xlink:href="#r"/>
<use x="213.964844" xlink:href="#f"/>
<use x="277.34375" xlink:href="#ao"/>
<use x="340.820312" xlink:href="#d"/>
<use x="402.34375" xlink:href="#v"/>
</g>
</g>
<g clip-path="url(#a)">
<g transform="translate(1226.9 740.94) scale(.1 -.1)">
<use xlink:href="#t"/>
<use x="39.208984" xlink:href="#r"/>
</g>
</g>
<g clip-path="url(#a)">
<g transform="translate(1299.2 740.94) scale(.1 -.1)">
<use xlink:href="#aa"/>
<use x="50.269531" xlink:href="#i"/>
<use x="91.382812" xlink:href="#g"/>
<use x="152.662109" xlink:href="#f"/>
<use x="216.041016" xlink:href="#ai"/>
<use x="271.021484" xlink:href="#d"/>
</g>
</g>
<g clip-path="url(#a)">
<g transform="translate(1401 740.94) scale(.1 -.1)">
<defs>
<path id="e" d="m10.688 12.406h10.312v-12.406h-10.312z"/>
</defs>
<use xlink:href="#e"/>
</g>
</g>
<g clip-path="url(#a)">
<g transform="translate(225.83 37.911) scale(.1 -.1)">
<defs>
<path id="c" d="m12.406 8.2969h16.109v55.625l-17.531-3.5156v8.9844l17.438 3.5156h9.8594v-64.609h16.109v-8.2969h-41.984z"/>
</defs>
<use xlink:href="#c"/>
<use x="63.623047" xlink:href="#e"/>
<use x="95.410156" xlink:href="#c"/>
</g>
</g>
<g clip-path="url(#a)">
<g transform="translate(111.52 341.45) scale(.1 -.1)">
<defs>
<path id="n" d="m19.188 8.2969h34.422v-8.2969h-46.281v8.2969q5.6094 5.8125 15.297 15.594 9.7031 9.7969 12.188 12.641 4.7344 5.3125 6.6094 9 1.8906 3.6875 1.8906 7.25 0 5.8125-4.0781 9.4688-4.0781 3.6719-10.625 3.6719-4.6406 0-9.7969-1.6094-5.1406-1.6094-11-4.8906v9.9688q5.9531 2.3906 11.125 3.6094 5.1875 1.2188 9.4844 1.2188 11.328 0 18.062-5.6719 6.7344-5.6562 6.7344-15.125 0-4.5-1.6875-8.5312-1.6719-4.0156-6.125-9.4844-1.2188-1.4219-7.7656-8.1875-6.5312-6.7656-18.453-18.922z"/>
</defs>
<use xlink:href="#c"/>
<use x="63.623047" xlink:href="#e"/>
<use x="95.410156" xlink:href="#n"/>
</g>
</g>
<g clip-path="url(#a)">
<g transform="translate(209.18 642.44) scale(.1 -.1)">
<defs>
<path id="m" d="m40.578 39.312q7.0781-1.5156 11.047-6.3125 3.9844-4.7812 3.9844-11.812 0-10.781-7.4219-16.703-7.4219-5.9062-21.094-5.9062-4.5781 0-9.4375 0.90625t-10.031 2.7188v9.5156q4.0938-2.3906 8.9688-3.6094 4.8906-1.2188 10.219-1.2188 9.2656 0 14.125 3.6562t4.8594 10.641q0 6.4531-4.5156 10.078-4.5156 3.6406-12.562 3.6406h-8.5v8.1094h8.8906q7.2656 0 11.125 2.9062t3.8594 8.375q0 5.6094-3.9844 8.6094-3.9688 3.0156-11.391 3.0156-4.0625 0-8.7031-0.89062-4.6406-0.875-10.203-2.7188v8.7812q5.625 1.5625 10.531 2.3438t9.25 0.78125q11.234 0 17.766-5.1094 6.5469-5.0938 6.5469-13.781 0-6.0625-3.4688-10.234t-9.8594-5.7812z"/>
</defs>
<use xlink:href="#c"/>
<use x="63.623047" xlink:href="#e"/>
<use x="95.410156" xlink:href="#m"/>
</g>
</g>
<g clip-path="url(#a)">
<g transform="translate(402.33 139.27) scale(.1 -.1)">
<defs>
<path id="o" d="m37.797 64.312-24.906-38.922h24.906zm-2.5938 8.5938h12.406v-47.516h10.406v-8.2031h-10.406v-17.188h-9.8125v17.188h-32.906v9.5156z"/>
</defs>
<use xlink:href="#c"/>
<use x="63.623047" xlink:href="#e"/>
<use x="95.410156" xlink:href="#o"/>
</g>
</g>
<g clip-path="url(#a)">
<g transform="translate(240.99 642.44) scale(.1 -.1)">
<defs>
<path id="ae" d="m33.016 40.375q-6.6406 0-10.531-4.5469-3.875-4.5312-3.875-12.438 0-7.8594 3.875-12.438 3.8906-4.5625 10.531-4.5625t10.516 4.5625q3.875 4.5781 3.875 12.438 0 7.9062-3.875 12.438-3.875 4.5469-10.516 4.5469zm19.578 30.922v-8.9844q-3.7188 1.75-7.5 2.6719-3.7812 0.9375-7.5 0.9375-9.7656 0-14.922-6.5938-5.1406-6.5938-5.875-19.922 2.875 4.25 7.2188 6.5156 4.3594 2.2656 9.5781 2.2656 10.984 0 17.359-6.6719 6.375-6.6562 6.375-18.125 0-11.234-6.6406-18.031-6.6406-6.7812-17.672-6.7812-12.656 0-19.344 9.6875-6.6875 9.7031-6.6875 28.109 0 17.281 8.2031 27.562t22.016 10.281q3.7188 0 7.5-0.73438t7.8906-2.1875z"/>
</defs>
<use xlink:href="#c"/>
<use x="63.623047" xlink:href="#e"/>
<use x="95.410156" xlink:href="#ae"/>
</g>
</g>
<g clip-path="url(#a)">
<g transform="translate(275.68 642.44) scale(.1 -.1)">
<defs>
<path id="ad" d="m8.2031 72.906h46.875v-4.2031l-26.469-68.703h-10.297l24.906 64.594h-35.016z"/>
</defs>
<use xlink:href="#c"/>
<use x="63.623047" xlink:href="#e"/>
<use x="95.410156" xlink:href="#ad"/>
</g>
</g>
<g clip-path="url(#a)">
<g transform="translate(313.27 642.44) scale(.1 -.1)">
<defs>
<path id="ac" d="m31.781 34.625q-7.0312 0-11.062-3.7656-4.0156-3.7656-4.0156-10.344 0-6.5938 4.0156-10.359 4.0312-3.7656 11.062-3.7656t11.078 3.7812q4.0625 3.7969 4.0625 10.344 0 6.5781-4.0312 10.344-4.0156 3.7656-11.109 3.7656zm-9.8594 4.1875q-6.3438 1.5625-9.8906 5.9062-3.5312 4.3594-3.5312 10.609 0 8.7344 6.2188 13.812 6.2344 5.0781 17.062 5.0781 10.891 0 17.094-5.0781t6.2031-13.812q0-6.25-3.5469-10.609-3.5312-4.3438-9.8281-5.9062 7.125-1.6562 11.094-6.5 3.9844-4.8281 3.9844-11.797 0-10.609-6.4688-16.281-6.4688-5.6562-18.531-5.6562-12.047 0-18.531 5.6562-6.4688 5.6719-6.4688 16.281 0 6.9688 4 11.797 4.0156 4.8438 11.141 6.5zm-3.6094 15.578q0-5.6562 3.5312-8.8281 3.5469-3.1719 9.9375-3.1719 6.3594 0 9.9375 3.1719 3.5938 3.1719 3.5938 8.8281 0 5.6719-3.5938 8.8438-3.5781 3.1719-9.9375 3.1719-6.3906 0-9.9375-3.1719-3.5312-3.1719-3.5312-8.8438z"/>
</defs>
<use xlink:href="#c"/>
<use x="63.623047" xlink:href="#e"/>
<use x="95.410156" xlink:href="#ac"/>
</g>
</g>
<g clip-path="url(#a)">
<g transform="translate(417.67 240.46) scale(.1 -.1)">
<defs>
<path id="ab" d="m10.984 1.5156v8.9844q3.7188-1.7656 7.5156-2.6875 3.8125-0.92188 7.4844-0.92188 9.7656 0 14.906 6.5625 5.1562 6.5625 5.8906 19.953-2.8281-4.2031-7.1875-6.4531-4.3438-2.25-9.6094-2.25-10.938 0-17.312 6.6094-6.375 6.625-6.375 18.109 0 11.219 6.6406 18 6.6406 6.7969 17.672 6.7969 12.656 0 19.312-9.7031 6.6719-9.6875 6.6719-28.141 0-17.234-8.1875-27.516-8.1719-10.281-21.984-10.281-3.7188 0-7.5312 0.73438-3.7969 0.73438-7.9062 2.2031zm19.625 30.906q6.6406 0 10.516 4.5312 3.8906 4.5469 3.8906 12.469 0 7.8594-3.8906 12.422-3.875 4.5625-10.516 4.5625t-10.516-4.5625-3.875-12.422q0-7.9219 3.875-12.469 3.875-4.5312 10.516-4.5312z"/>
</defs>
<use xlink:href="#c"/>
<use x="63.623047" xlink:href="#e"/>
<use x="95.410156" xlink:href="#ab"/>
</g>
</g>
<g clip-path="url(#a)">
<g transform="translate(760.87 341.45) scale(.1 -.1)">
<defs>
<path id="ag" d="m31.781 66.406q-7.6094 0-11.453-7.5-3.8281-7.4844-3.8281-22.531 0-14.984 3.8281-22.484 3.8438-7.5 11.453-7.5 7.6719 0 11.5 7.5 3.8438 7.5 3.8438 22.484 0 15.047-3.8438 22.531-3.8281 7.5-11.5 7.5zm0 7.8125q12.266 0 18.734-9.7031 6.4688-9.6875 6.4688-28.141 0-18.406-6.4688-28.109-6.4688-9.6875-18.734-9.6875-12.25 0-18.719 9.6875-6.4688 9.7031-6.4688 28.109 0 18.453 6.4688 28.141 6.4688 9.7031 18.719 9.7031z"/>
</defs>
<use xlink:href="#c"/>
<use x="63.623047" xlink:href="#e"/>
<use x="95.410156" xlink:href="#c"/>
<use x="159.033203" xlink:href="#ag"/>
</g>
</g>
<g clip-path="url(#a)">
<g transform="translate(596.32 642.44) scale(.1 -.1)">
<use xlink:href="#c"/>
<use x="63.623047" xlink:href="#e"/>
<use x="95.410156" xlink:href="#c"/>
<use x="159.033203" xlink:href="#c"/>
</g>
</g>
<g clip-path="url(#a)">
<g transform="translate(654.14 642.44) scale(.1 -.1)">
<use xlink:href="#c"/>
<use x="63.623047" xlink:href="#e"/>
<use x="95.410156" xlink:href="#c"/>
<use x="159.033203" xlink:href="#n"/>
</g>
</g>
<g clip-path="url(#a)">
<g transform="translate(714.86 642.44) scale(.1 -.1)">
<use xlink:href="#c"/>
<use x="63.623047" xlink:href="#e"/>
<use x="95.410156" xlink:href="#c"/>
<use x="159.033203" xlink:href="#m"/>
</g>
</g>
<g clip-path="url(#a)">
<g transform="translate(778.47 642.44) scale(.1 -.1)">
<use xlink:href="#c"/>
<use x="63.623047" xlink:href="#e"/>
<use x="95.410156" xlink:href="#c"/>
<use x="159.033203" xlink:href="#o"/>
</g>
</g>
<g clip-path="url(#a)">
<g transform="translate(1060.6 442.18) scale(.1 -.1)">
<defs>
<path id="af" d="m10.797 72.906h38.719v-8.3125h-29.688v-17.859q2.1406 0.73438 4.2812 1.0938 2.1562 0.35938 4.3125 0.35938 12.203 0 19.328-6.6875 7.1406-6.6875 7.1406-18.109 0-11.766-7.3281-18.297-7.3281-6.5156-20.656-6.5156-4.5938 0-9.3594 0.78125-4.75 0.78125-9.8281 2.3438v9.9219q4.3906-2.3906 9.0781-3.5625t9.9062-1.1719q8.4531 0 13.375 4.4375 4.9375 4.4375 4.9375 12.062 0 7.6094-4.9375 12.047-4.9219 4.4531-13.375 4.4531-3.9531 0-7.8906-0.875-3.9219-0.875-8.0156-2.7344z"/>
</defs>
<use xlink:href="#c"/>
<use x="63.623047" xlink:href="#e"/>
<use x="95.410156" xlink:href="#c"/>
<use x="159.033203" xlink:href="#af"/>
</g>
</g>
<g clip-path="url(#a)">
<g transform="translate(844.97 642.44) scale(.1 -.1)">
<use xlink:href="#c"/>
<use x="63.623047" xlink:href="#e"/>
<use x="95.410156" xlink:href="#c"/>
<use x="159.033203" xlink:href="#ae"/>
</g>
</g>
<g clip-path="url(#a)">
<g transform="translate(950.5 542.58) scale(.1 -.1)">
<use xlink:href="#c"/>
<use x="63.623047" xlink:href="#e"/>
<use x="95.410156" xlink:href="#c"/>
<use x="159.033203" xlink:href="#ad"/>
</g>
</g>
<g clip-path="url(#a)">
<g transform="translate(1061.8 642.44) scale(.1 -.1)">
<use xlink:href="#c"/>
<use x="63.623047" xlink:href="#e"/>
<use x="95.410156" xlink:href="#c"/>
<use x="159.033203" xlink:href="#ac"/>
</g>
</g>
<g clip-path="url(#a)">
<g transform="translate(1139.9 642.44) scale(.1 -.1)">
<use xlink:href="#c"/>
<use x="63.623047" xlink:href="#e"/>
<use x="95.410156" xlink:href="#c"/>
<use x="159.033203" xlink:href="#ab"/>
</g>
</g>
<g clip-path="url(#a)">
<g transform="translate(1305.6 542.58) scale(.1 -.1)">
<use xlink:href="#c"/>
<use x="63.623047" xlink:href="#e"/>
<use x="95.410156" xlink:href="#n"/>
<use x="159.033203" xlink:href="#ag"/>
</g>
</g>
<g clip-path="url(#a)">
<g transform="translate(1220.8 642.44) scale(.1 -.1)">
<use xlink:href="#c"/>
<use x="63.623047" xlink:href="#e"/>
<use x="95.410156" xlink:href="#n"/>
<use x="159.033203" xlink:href="#c"/>
</g>
</g>
<g clip-path="url(#a)">
<g transform="translate(1304.7 642.44) scale(.1 -.1)">
<use xlink:href="#c"/>
<use x="63.623047" xlink:href="#e"/>
<use x="95.410156" xlink:href="#n"/>
<use x="159.033203" xlink:href="#n"/>
</g>
</g>
<g clip-path="url(#a)">
<g transform="translate(914.36 642.44) scale(.1 -.1)">
<use xlink:href="#c"/>
<use x="63.623047" xlink:href="#e"/>
<use x="95.410156" xlink:href="#n"/>
<use x="159.033203" xlink:href="#o"/>
</g>
</g>
<g clip-path="url(#a)">
<g transform="translate(986.64 642.44) scale(.1 -.1)">
<use xlink:href="#c"/>
<use x="63.623047" xlink:href="#e"/>
<use x="95.410156" xlink:href="#n"/>
<use x="159.033203" xlink:href="#af"/>
</g>
</g>
<g clip-path="url(#a)">
<g transform="translate(350.56 642.44) scale(.1 -.1)">
<use xlink:href="#c"/>
<use x="63.623047" xlink:href="#e"/>
<use x="95.410156" xlink:href="#n"/>
<use x="159.033203" xlink:href="#ae"/>
</g>
</g>
<g clip-path="url(#a)">
<g transform="translate(393.93 642.44) scale(.1 -.1)">
<use xlink:href="#c"/>
<use x="63.623047" xlink:href="#e"/>
<use x="95.410156" xlink:href="#n"/>
<use x="159.033203" xlink:href="#ad"/>
</g>
</g>
<g clip-path="url(#a)">
<g transform="translate(498.98 341.45) scale(.1 -.1)">
<use xlink:href="#c"/>
<use x="63.623047" xlink:href="#e"/>
<use x="95.410156" xlink:href="#n"/>
<use x="159.033203" xlink:href="#ac"/>
</g>
</g>
<g clip-path="url(#a)">
<g transform="translate(440.19 642.44) scale(.1 -.1)">
<use xlink:href="#c"/>
<use x="63.623047" xlink:href="#e"/>
<use x="95.410156" xlink:href="#n"/>
<use x="159.033203" xlink:href="#ab"/>
</g>
</g>
<g clip-path="url(#a)">
<g transform="translate(515.36 442.18) scale(.1 -.1)">
<use xlink:href="#c"/>
<use x="63.623047" xlink:href="#e"/>
<use x="95.410156" xlink:href="#m"/>
<use x="159.033203" xlink:href="#ag"/>
</g>
</g>
<g clip-path="url(#a)">
<g transform="translate(541.39 542.58) scale(.1 -.1)">
<use xlink:href="#c"/>
<use x="63.623047" xlink:href="#e"/>
<use x="95.410156" xlink:href="#m"/>
<use x="159.033203" xlink:href="#c"/>
</g>
</g>
<g clip-path="url(#a)">
<g transform="translate(541.39 642.44) scale(.1 -.1)">
<use xlink:href="#c"/>
<use x="63.623047" xlink:href="#e"/>
<use x="95.410156" xlink:href="#m"/>
<use x="159.033203" xlink:href="#n"/>
</g>
</g>
<g clip-path="url(#a)">
<g transform="translate(489.34 642.44) scale(.1 -.1)">
<use xlink:href="#c"/>
<use x="63.623047" xlink:href="#e"/>
<use x="95.410156" xlink:href="#m"/>
<use x="159.033203" xlink:href="#m"/>
</g>
</g>
<g clip-path="url(#a)">
<g transform="translate(77.821 442.18) scale(.1 -.1)">
<use xlink:href="#c"/>
<use x="63.623047" xlink:href="#e"/>
<use x="95.410156" xlink:href="#m"/>
<use x="159.033203" xlink:href="#o"/>
</g>
</g>
<g clip-path="url(#a)">
<g transform="translate(107.7 642.44) scale(.1 -.1)">
<use xlink:href="#c"/>
<use x="63.623047" xlink:href="#e"/>
<use x="95.410156" xlink:href="#m"/>
<use x="159.033203" xlink:href="#af"/>
</g>
</g>
<g clip-path="url(#a)">
<g transform="translate(139.5 542.58) scale(.1 -.1)">
<use xlink:href="#c"/>
<use x="63.623047" xlink:href="#e"/>
<use x="95.410156" xlink:href="#m"/>
<use x="159.033203" xlink:href="#ae"/>
</g>
</g>
<g clip-path="url(#a)">
<g transform="translate(127.94 642.44) scale(.1 -.1)">
<use xlink:href="#c"/>
<use x="63.623047" xlink:href="#e"/>
<use x="95.410156" xlink:href="#m"/>
<use x="159.033203" xlink:href="#ad"/>
</g>
</g>
<g clip-path="url(#a)">
<g transform="translate(151.07 642.44) scale(.1 -.1)">
<use xlink:href="#c"/>
<use x="63.623047" xlink:href="#e"/>
<use x="95.410156" xlink:href="#m"/>
<use x="159.033203" xlink:href="#ac"/>
</g>
</g>
<g clip-path="url(#a)">
<g transform="translate(65.293 542.58) scale(.1 -.1)">
<use xlink:href="#c"/>
<use x="63.623047" xlink:href="#e"/>
<use x="95.410156" xlink:href="#m"/>
<use x="159.033203" xlink:href="#ab"/>
</g>
</g>
<g clip-path="url(#a)">
<g transform="translate(90.35 642.44) scale(.1 -.1)">
<use xlink:href="#c"/>
<use x="63.623047" xlink:href="#e"/>
<use x="95.410156" xlink:href="#o"/>
<use x="159.033203" xlink:href="#ag"/>
</g>
</g>
<g clip-path="url(#a)">
<g transform="translate(55.655 642.44) scale(.1 -.1)">
<use xlink:href="#c"/>
<use x="63.623047" xlink:href="#e"/>
<use x="95.410156" xlink:href="#o"/>
<use x="159.033203" xlink:href="#c"/>
</g>
</g>
<g clip-path="url(#a)">
<g transform="translate(64.329 642.44) scale(.1 -.1)">
<use xlink:href="#c"/>
<use x="63.623047" xlink:href="#e"/>
<use x="95.410156" xlink:href="#o"/>
<use x="159.033203" xlink:href="#n"/>
</g>
</g>
<g clip-path="url(#a)">
<g transform="translate(75.894 642.44) scale(.1 -.1)">
<use xlink:href="#c"/>
<use x="63.623047" xlink:href="#e"/>
<use x="95.410156" xlink:href="#o"/>
<use x="159.033203" xlink:href="#m"/>
</g>
</g>
<g clip-path="url(#a)">
<g transform="translate(177.09 642.44) scale(.1 -.1)">
<use xlink:href="#c"/>
<use x="63.623047" xlink:href="#e"/>
<use x="95.410156" xlink:href="#o"/>
<use x="159.033203" xlink:href="#o"/>
</g>
</g>
<g clip-path="url(#a)">
<g transform="translate(1391.4 642.44) scale(.1 -.1)">
<use xlink:href="#c"/>
<use x="63.623047" xlink:href="#e"/>
<use x="95.410156" xlink:href="#o"/>
<use x="159.033203" xlink:href="#af"/>
</g>
</g>
<defs>
<clipPath id="a">
<rect width="1469.3" height="773.33"/>
</clipPath>
</defs>
</svg>
