<?xml version="1.0" encoding="UTF-8"?>
<!DOCTYPE svg  PUBLIC '-//W3C//DTD SVG 1.1//EN'  'http://www.w3.org/Graphics/SVG/1.1/DTD/svg11.dtd'>
<svg width="1976pt" height="1040pt" version="1.1" viewBox="0 0 1976 1040" xmlns="http://www.w3.org/2000/svg" xmlns:xlink="http://www.w3.org/1999/xlink">
<defs>
<style type="text/css">*{stroke-linecap:butt;stroke-linejoin:round;}</style>
</defs>
<path d="m0 1040h1976v-1040h-1976z" fill="#fff"/>
<g fill="none" stroke="#000">
<path d="m949.37 48.381-813.35 573.65" clip-path="url(#a)"/>
<path d="m949.37 48.381-631.7 195.32" clip-path="url(#a)"/>
<path d="m949.37 48.381-208.9 386.29" clip-path="url(#a)"/>
<path d="m949.37 48.381 199.82 758.45" clip-path="url(#a)"/>
<path d="m949.37 48.381 645 386.29" clip-path="url(#a)"/>
<path d="m949.37 48.381 608.54 573.65" clip-path="url(#a)"/>
<path d="m949.37 48.381-352.82 758.45" clip-path="url(#a)"/>
<path d="m949.37 48.381 107.71 758.45" clip-path="url(#a)"/>
<path d="m949.37 48.381 153.77 758.45" clip-path="url(#a)"/>
<path d="m949.37 48.381 291.93 758.45" clip-path="url(#a)"/>
<path d="m136.02 622.04-46.053 184.79" clip-path="url(#a)"/>
<path d="m136.02 622.04v184.79" clip-path="url(#a)"/>
<path d="m136.02 622.04 46.053 184.79" clip-path="url(#a)"/>
<path d="m317.67 243.7-89.548 563.12" clip-path="url(#a)"/>
<path d="m317.67 243.7-20.468 378.33" clip-path="url(#a)"/>
<path d="m317.67 243.7 110.02 190.97" clip-path="url(#a)"/>
<path d="m740.46 434.67-97.863 372.15" clip-path="url(#a)"/>
<path d="m740.46 434.67-51.81 372.15" clip-path="url(#a)"/>
<path d="m740.46 434.67-5.7566 372.15" clip-path="url(#a)"/>
<path d="m740.46 434.67 155.43 187.36" clip-path="url(#a)"/>
<path d="m1149.2 806.83v184.79" clip-path="url(#a)"/>
<path d="m1594.4 434.67-399.13 372.15" clip-path="url(#a)"/>
<path d="m1594.4 434.67-76.755 372.15" clip-path="url(#a)"/>
<path d="m1594.4 434.67 53.729 187.36" clip-path="url(#a)"/>
<path d="m1594.4 434.67 176.54 372.15" clip-path="url(#a)"/>
<path d="m1594.4 434.67 245.62 372.15" clip-path="url(#a)"/>
<path d="m1557.9 622.04 328.13 369.58" clip-path="url(#a)"/>
<path d="m1557.9 622.04-201.48 184.79" clip-path="url(#a)"/>
<path d="m1557.9 622.04-40.297 184.79" clip-path="url(#a)" stroke-dasharray="3.7,1.6"/>
<path d="m1557.9 622.04-86.35 184.79" clip-path="url(#a)"/>
<path d="m1356.4 806.83-69.08 184.79" clip-path="url(#a)"/>
<path d="m1356.4 806.83-23.027 184.79" clip-path="url(#a)"/>
<path d="m1356.4 806.83 23.027 184.79" clip-path="url(#a)"/>
<path d="m1356.4 806.83 69.08 184.79" clip-path="url(#a)"/>
<path d="m1195.2 806.83v184.79" clip-path="url(#a)"/>
<path d="m1517.6 806.83v184.79" clip-path="url(#a)"/>
<path d="m1648.1 622.04-61.404 184.79" clip-path="url(#a)"/>
<path d="m1648.1 622.04 7.6755 184.79" clip-path="url(#a)"/>
<path d="m1648.1 622.04 53.729 184.79" clip-path="url(#a)"/>
<path d="m1770.9 806.83-23.027 184.79" clip-path="url(#a)"/>
<path d="m1770.9 806.83 23.027 184.79" clip-path="url(#a)"/>
<path d="m1586.7 806.83-23.027 184.79" clip-path="url(#a)"/>
<path d="m1586.7 806.83 23.027 184.79" clip-path="url(#a)"/>
<path d="m1655.8 806.83v184.79" clip-path="url(#a)"/>
<path d="m1701.8 806.83v184.79" clip-path="url(#a)"/>
<path d="m642.6 806.83v184.79" clip-path="url(#a)"/>
<path d="m688.65 806.83v184.79" clip-path="url(#a)"/>
<path d="m734.71 806.83v184.79" clip-path="url(#a)"/>
<path d="m895.89 622.04-115.13 184.79" clip-path="url(#a)"/>
<path d="m895.89 622.04-69.08 184.79" clip-path="url(#a)"/>
<path d="m895.89 622.04-23.027 184.79" clip-path="url(#a)"/>
<path d="m895.89 622.04 69.08 184.79" clip-path="url(#a)"/>
<path d="m895.89 622.04 115.13 184.79" clip-path="url(#a)"/>
<path d="m895.89 622.04 23.027 184.79" clip-path="url(#a)"/>
<path d="m780.76 806.83v184.79" clip-path="url(#a)"/>
<path d="m826.81 806.83v184.79" clip-path="url(#a)"/>
<path d="m872.87 806.83v184.79" clip-path="url(#a)"/>
<path d="m964.97 806.83v184.79" clip-path="url(#a)"/>
<path d="m1011 806.83v184.79" clip-path="url(#a)"/>
<path d="m228.12 806.83v184.79" clip-path="url(#a)"/>
<path d="m297.2 622.04-23.027 184.79" clip-path="url(#a)"/>
<path d="m297.2 622.04 23.027 184.79" clip-path="url(#a)"/>
<path d="m427.69 434.67-61.404 372.15" clip-path="url(#a)"/>
<path d="m427.69 434.67-15.351 372.15" clip-path="url(#a)"/>
<path d="m427.69 434.67 76.755 187.36" clip-path="url(#a)"/>
<path d="m366.28 806.83v184.79" clip-path="url(#a)"/>
<path d="m412.34 806.83v184.79" clip-path="url(#a)"/>
<path d="m504.44 622.04-46.053 184.79" clip-path="url(#a)"/>
<path d="m504.44 622.04v184.79" clip-path="url(#a)"/>
<path d="m504.44 622.04 46.053 184.79" clip-path="url(#a)"/>
<path d="m458.39 806.83v184.79" clip-path="url(#a)"/>
<path d="m504.44 806.83v184.79" clip-path="url(#a)"/>
<path d="m550.5 806.83v184.79" clip-path="url(#a)"/>
<path d="m274.18 806.83v184.79" clip-path="url(#a)"/>
<path d="m320.23 806.83v184.79" clip-path="url(#a)"/>
<path d="m89.964 806.83v184.79" clip-path="url(#a)"/>
<path d="m136.02 806.83v184.79" clip-path="url(#a)"/>
<path d="m182.07 806.83v184.79" clip-path="url(#a)"/>
<path d="m1371.8 243.7-222.59 563.12" clip-path="url(#a)"/>
<path d="m1371.8 243.7 222.59 190.97" clip-path="url(#a)"/>
<path d="m226.84 48.381-90.827 573.65" clip-path="url(#a)"/>
<path d="m226.84 48.381 90.827 195.32" clip-path="url(#a)"/>
<path d="m596.55 806.83v184.79" clip-path="url(#a)"/>
<path d="m918.92 806.83v184.79" clip-path="url(#a)"/>
<path d="m1057.1 806.83v184.79" clip-path="url(#a)"/>
<path d="m1103.1 806.83v184.79" clip-path="url(#a)"/>
<path d="m1241.3 806.83v184.79" clip-path="url(#a)"/>
<path d="m1471.6 806.83v184.79" clip-path="url(#a)"/>
<path d="m1840 806.83v184.79" clip-path="url(#a)"/>
</g>
<path d="m544.48 341.62 3.6426-2.5691q1.9613-1.3833 0.57799-3.3445l-4.4625-6.3271q-1.3833-1.9613-3.3445-0.57799l-3.6426 2.5691q-1.9613 1.3833-0.57799 3.3445l4.4625 6.3271q1.3833 1.9613 3.3445 0.57799z" clip-path="url(#a)" fill="#fff" stroke="#fff"/>
<g clip-path="url(#a)">
<defs>
<path id="w" d="m9.8125 72.906h9.8594v-64.609h35.5v-8.2969h-45.359z"/>
</defs>
<g transform="translate(542.14 338.3) rotate(-35.195) scale(.08 -.08)">
<use xlink:href="#w"/>
</g>
</g>
<path d="m632.5 152.92 5.7478-1.7772q2.2929-0.70897 1.5839-3.0019l-2.2872-7.397q-0.70897-2.2929-3.0019-1.5839l-5.7478 1.7772q-2.2929 0.70897-1.5839 3.0019l2.2872 7.397q0.70897 2.2929 3.0019 1.5839z" clip-path="url(#a)" fill="#fff" stroke="#fff"/>
<g clip-path="url(#a)">
<defs>
<path id="ag" d="m9.8125 72.906h9.8594v-29.891h35.844v29.891h9.8594v-72.906h-9.8594v34.719h-35.844v-34.719h-9.8594z"/>
</defs>
<g transform="translate(631.3 149.04) rotate(-17.182) scale(.08 -.08)">
<use xlink:href="#ag"/>
</g>
</g>
<path d="m849 247.16 2.8618-5.292q1.1416-2.1111-0.96943-3.2527l-6.8104-3.683q-2.1111-1.1416-3.2527 0.96943l-2.8618 5.292q-1.1416 2.1111 0.96943 3.2527l6.8104 3.683q2.1111 1.1416 3.2527-0.96943z" clip-path="url(#a)" fill="#fff" stroke="#fff"/>
<g clip-path="url(#a)">
<g transform="translate(845.43 245.22) rotate(-61.596) scale(.08 -.08)">
<use xlink:href="#ag"/>
</g>
</g>
<path d="m1042.6 427.05 1.1356 4.3104q0.61144 2.3208 2.9322 1.7094l7.487-1.9725q2.3208-0.61144 1.7094-2.9322l-1.1356-4.3104q-0.61144-2.3208-2.9322-1.7094l-7.487 1.9725q-2.3208 0.61144-1.7094 2.9322z" clip-path="url(#a)" fill="#fff" stroke="#fff"/>
<g clip-path="url(#a)">
<g transform="translate(1046.6 426.01) rotate(75.24) scale(.08 -.08)">
<use xlink:href="#w"/>
</g>
</g>
<path d="m1266.1 245.36 5.1614 3.0912q2.059 1.2331 3.2921-0.82585l3.9781-6.6424q1.2331-2.059-0.82585-3.2921l-5.1614-3.0912q-2.059-1.2331-3.2921 0.82585l-3.9781 6.6424q-1.2331 2.059 0.82585 3.2921z" clip-path="url(#a)" fill="#fff" stroke="#fff"/>
<g clip-path="url(#a)">
<g transform="translate(1268.2 241.87) rotate(30.918) scale(.08 -.08)">
<use xlink:href="#ag"/>
</g>
</g>
<path d="m1247.1 337.71 4.3778 4.1268q1.7464 1.6463 3.3926-0.10012l5.3109-5.6339q1.6463-1.7464-0.10012-3.3926l-4.3778-4.1268q-1.7464-1.6463-3.3926 0.10012l-5.3109 5.6339q-1.6463 1.7464 0.10012 3.3926z" clip-path="url(#a)" fill="#fff" stroke="#fff"/>
<g clip-path="url(#a)">
<g transform="translate(1249.9 334.75) rotate(43.31) scale(.08 -.08)">
<use xlink:href="#ag"/>
</g>
</g>
<path d="m777.41 432.9 2.4695-5.3087q1.0123-2.1761-1.1638-3.1884l-7.0201-3.2656q-2.1761-1.0123-3.1884 1.1638l-2.4695 5.3087q-1.0123 2.1761 1.1638 3.1884l7.0201 3.2656q2.1761 1.0123 3.1884-1.1638z" clip-path="url(#a)" fill="#fff" stroke="#fff"/>
<g clip-path="url(#a)">
<defs>
<path id="v" d="m8.6875 72.906h9.9219v-44.297q0-11.719 4.2344-16.875 4.25-5.1406 13.781-5.1406 9.4688 0 13.719 5.1406 4.25 5.1562 4.25 16.875v44.297h9.9062v-45.516q0-14.25-7.0625-21.531-7.0469-7.2812-20.812-7.2812-13.828 0-20.891 7.2812-7.0469 7.2812-7.0469 21.531z"/>
</defs>
<g transform="translate(773.72 431.19) rotate(-65.053) scale(.08 -.08)">
<use xlink:href="#v"/>
</g>
</g>
<path d="m996.6 425.59 0.82326 5.7968q0.33746 2.3762 2.7136 2.0387l7.6656-1.0887q2.3762-0.33746 2.0387-2.7136l-0.82326-5.7968q-0.33746-2.3762-2.7136-2.0387l-7.6656 1.0887q-2.3762 0.33746-2.0387 2.7136z" clip-path="url(#a)" fill="#fff" stroke="#fff"/>
<g clip-path="url(#a)">
<g transform="translate(1000.6 425.02) rotate(81.917) scale(.08 -.08)">
<use xlink:href="#v"/>
</g>
</g>
<path d="m1019.5 425.98 1.1634 5.7383q0.47687 2.3521 2.829 1.8753l7.5881-1.5384q2.3521-0.47687 1.8753-2.829l-1.1634-5.7383q-0.47687-2.3521-2.829-1.8753l-7.5881 1.5384q-2.3521 0.47687-1.8753 2.829z" clip-path="url(#a)" fill="#fff" stroke="#fff"/>
<g clip-path="url(#a)">
<g transform="translate(1023.5 425.17) rotate(78.539) scale(.08 -.08)">
<use xlink:href="#v"/>
</g>
</g>
<path d="m1088.4 427.12 2.1032 5.4642q0.8621 2.2398 3.1019 1.3777l7.2257-2.7812q2.2398-0.8621 1.3777-3.1019l-2.1032-5.4642q-0.8621-2.2398-3.1019-1.3777l-7.2257 2.7812q-2.2398 0.8621-1.3777 3.1019z" clip-path="url(#a)" fill="#fff" stroke="#fff"/>
<g clip-path="url(#a)">
<g transform="translate(1092.2 425.66) rotate(68.948) scale(.08 -.08)">
<use xlink:href="#v"/>
</g>
</g>
<path d="m118.4 718.64 1.3442-5.3938q0.58037-2.3288-1.7484-2.9091l-7.5127-1.8723q-2.3288-0.58037-2.9091 1.7484l-1.3442 5.3938q-0.58037 2.3288 1.7484 2.9091l7.5127 1.8723q2.3288 0.58037 2.9091-1.7484z" clip-path="url(#a)" fill="#fff" stroke="#fff"/>
<g clip-path="url(#a)">
<defs>
<path id="y" d="m44.391 34.188q3.1719-1.0781 6.1719-4.5938t6.0312-9.6719l10.016-19.922h-10.609l-9.3125 18.703q-3.625 7.3281-7.0156 9.7188t-9.25 2.3906h-10.75v-30.812h-9.8594v72.906h22.266q12.5 0 18.656-5.2344 6.1562-5.2188 6.1562-15.766 0-6.8906-3.2031-11.438-3.2031-4.5312-9.2969-6.2812zm-24.719 30.609v-25.875h12.406q7.125 0 10.766 3.2969t3.6406 9.6875-3.6406 9.6406-10.766 3.25z"/>
</defs>
<g transform="translate(114.46 717.66) rotate(-76.006) scale(.08 -.08)">
<use xlink:href="#y"/>
</g>
</g>
<path d="m129.75 711.64v5.5862q0 2.4 2.4 2.4h7.7425q2.4 0 2.4-2.4v-5.5862q0-2.4-2.4-2.4h-7.7425q-2.4 0-2.4 2.4z" clip-path="url(#a)" fill="#fff" stroke="#fff"/>
<g clip-path="url(#a)">
<defs>
<path id="x" d="m64.406 67.281v-10.391q-4.9844 4.6406-10.625 6.9219-5.6406 2.2969-11.984 2.2969-12.5 0-19.141-7.6406t-6.6406-22.094q0-14.406 6.6406-22.047t19.141-7.6406q6.3438 0 11.984 2.2969t10.625 6.9375v-10.312q-5.1719-3.5156-10.969-5.2812-5.7812-1.75-12.219-1.75-16.562 0-26.094 10.125-9.5156 10.141-9.5156 27.672 0 17.578 9.5156 27.703 9.5312 10.141 26.094 10.141 6.5312 0 12.312-1.7344 5.7969-1.7344 10.875-5.2031z"/>
</defs>
<g transform="translate(133.81 711.64) rotate(90) scale(.08 -.08)">
<use xlink:href="#x"/>
</g>
</g>
<path d="m152.29 713.25 1.3442 5.3938q0.58037 2.3288 2.9091 1.7484l7.5127-1.8723q2.3288-0.58037 1.7484-2.9091l-1.3442-5.3938q-0.58037-2.3288-2.9091-1.7484l-7.5127 1.8723q-2.3288 0.58037-1.7484 2.9091z" clip-path="url(#a)" fill="#fff" stroke="#fff"/>
<g clip-path="url(#a)">
<g transform="translate(156.23 712.27) rotate(76.006) scale(.08 -.08)">
<use xlink:href="#y"/>
</g>
</g>
<path d="m278.66 528.95 0.85944-5.4046q0.37691-2.3702-1.9933-2.7471l-7.6464-1.2159q-2.3702-0.37691-2.7471 1.9933l-0.85944 5.4046q-0.37691 2.3702 1.9933 2.7471l7.6464 1.2159q2.3702 0.37691 2.7471-1.9933z" clip-path="url(#a)" fill="#fff" stroke="#fff"/>
<g clip-path="url(#a)">
<defs>
<path id="s" d="m34.188 63.188-13.391-36.281h26.812zm-5.5781 9.7188h11.188l27.781-72.906h-10.25l-6.6406 18.703h-32.859l-6.6406-18.703h-10.406z"/>
</defs>
<g transform="translate(274.65 528.31) rotate(-80.965) scale(.08 -.08)">
<use xlink:href="#s"/>
</g>
</g>
<path d="m313.57 435.62 0.26059-4.8167q0.12965-2.3965-2.2668-2.5261l-7.7312-0.41826q-2.3965-0.12965-2.5261 2.2668l-0.26059 4.8167q-0.12965 2.3965 2.2668 2.5261l7.7312 0.41826q2.3965 0.12965 2.5261-2.2668z" clip-path="url(#a)" fill="#fff" stroke="#fff"/>
<g clip-path="url(#a)">
<defs>
<path id="ab" d="m19.672 64.797v-27.391h12.406q6.8906 0 10.641 3.5625 3.7656 3.5625 3.7656 10.156 0 6.5469-3.7656 10.109-3.75 3.5625-10.641 3.5625zm-9.8594 8.1094h22.266q12.266 0 18.531-5.5469 6.2812-5.5469 6.2812-16.234 0-10.797-6.2812-16.312-6.2656-5.5156-18.531-5.5156h-12.406v-29.297h-9.8594z"/>
</defs>
<g transform="translate(309.51 435.4) rotate(-86.903) scale(.08 -.08)">
<use xlink:href="#ab"/>
</g>
</g>
<path d="m365.88 339.95 2.7318 4.7419q1.198 2.0796 3.2776 0.88156l6.7089-3.8649q2.0796-1.198 0.88156-3.2776l-2.7318-4.7419q-1.198-2.0796-3.2776-0.88156l-6.7089 3.8649q-2.0796 1.198-0.88156 3.2776z" clip-path="url(#a)" fill="#fff" stroke="#fff"/>
<g clip-path="url(#a)">
<g transform="translate(369.4 337.92) rotate(60.054) scale(.08 -.08)">
<use xlink:href="#s"/>
</g>
</g>
<path d="m696.9 624.99 1.3918-5.2926q0.61036-2.3211-1.7107-2.9315l-7.4879-1.969q-2.3211-0.61036-2.9315 1.7107l-1.3918 5.2926q-0.61036 2.3211 1.7107 2.9315l7.4879 1.969q2.3211 0.61036 2.9315-1.7107z" clip-path="url(#a)" fill="#fff" stroke="#fff"/>
<g clip-path="url(#a)">
<g transform="translate(692.97 623.96) rotate(-75.267) scale(.08 -.08)">
<use xlink:href="#s"/>
</g>
</g>
<path d="m720.44 624 0.66513-4.7777q0.33093-2.3771-2.0461-2.708l-7.6685-1.0676q-2.3771-0.33093-2.708 2.0461l-0.66513 4.7777q-0.33093 2.3771 2.0461 2.708l7.6685 1.0676q2.3771 0.33093 2.708-2.0461z" clip-path="url(#a)" fill="#fff" stroke="#fff"/>
<g clip-path="url(#a)">
<g transform="translate(716.41 623.44) rotate(-82.074) scale(.08 -.08)">
<use xlink:href="#ab"/>
</g>
</g>
<path d="m743.81 623.58 0.084641-5.4718q0.037119-2.3997-2.3626-2.4368l-7.7416-0.11975q-2.3997-0.03712-2.4368 2.3626l-0.084641 5.4718q-0.03712 2.3997 2.3626 2.4368l7.7416 0.11975q2.3997 0.03712 2.4368-2.3626z" clip-path="url(#a)" fill="#fff" stroke="#fff"/>
<g clip-path="url(#a)">
<g transform="translate(739.75 623.52) rotate(-89.114) scale(.08 -.08)">
<use xlink:href="#s"/>
</g>
</g>
<path d="m811.61 530.25 3.494 4.2119q1.5323 1.8472 3.3795 0.31482l5.959-4.9434q1.8472-1.5323 0.31482-3.3795l-3.494-4.2119q-1.5323-1.8472-3.3795-0.31482l-5.959 4.9434q-1.8472 1.5323-0.31482 3.3795z" clip-path="url(#a)" fill="#fff" stroke="#fff"/>
<g clip-path="url(#a)">
<g transform="translate(814.73 527.66) rotate(50.322) scale(.08 -.08)">
<use xlink:href="#s"/>
</g>
</g>
<path d="m1142.9 881.58v35.285q0 2.4 2.4 2.4h7.7425q2.4 0 2.4-2.4v-35.285q0-2.4-2.4-2.4h-7.7425q-2.4 0-2.4 2.4z" clip-path="url(#a)" fill="#fff" stroke="#fff"/>
<g clip-path="url(#a)">
<defs>
<path id="l" d="m-0.29688 72.906h61.672v-8.3125h-25.875v-64.594h-9.9062v64.594h-25.891z"/>
<path id="d" d="m56.203 29.594v-4.3906h-41.312q0.59375-9.2812 5.5938-14.141t13.938-4.8594q5.1719 0 10.031 1.2656t9.6562 3.8125v-8.5q-4.8438-2.0469-9.9219-3.125t-10.297-1.0781q-13.094 0-20.734 7.6094-7.6406 7.625-7.6406 20.625 0 13.422 7.25 21.297 7.25 7.8906 19.562 7.8906 11.031 0 17.453-7.1094 6.4219-7.0938 6.4219-19.297zm-8.9844 2.6406q-0.09375 7.3594-4.125 11.75-4.0312 4.4062-10.672 4.4062-7.5156 0-12.031-4.25t-5.2031-11.969z"/>
<path id="k" d="m41.109 46.297q-1.5156 0.875-3.2969 1.2812-1.7812 0.42188-3.9219 0.42188-7.625 0-11.703-4.9531t-4.0781-14.234v-28.812h-9.0312v54.688h9.0312v-8.5q2.8438 4.9844 7.375 7.3906 4.5469 2.4219 11.047 2.4219 0.92188 0 2.0469-0.125 1.125-0.10938 2.4844-0.35938z"/>
<path id="j" d="m52 44.188q3.375 6.0625 8.0625 8.9375t11.031 2.875q8.5469 0 13.188-5.9844 4.6406-5.9688 4.6406-17v-33.016h-9.0312v32.719q0 7.8594-2.7969 11.656-2.7812 3.8125-8.4844 3.8125-6.9844 0-11.047-4.6406-4.0469-4.625-4.0469-12.641v-30.906h-9.0312v32.719q0 7.9062-2.7812 11.688t-8.5938 3.7812q-6.8906 0-10.953-4.6562-4.0469-4.6562-4.0469-12.625v-30.906h-9.0312v54.688h9.0312v-8.5q3.0781 5.0312 7.375 7.4219t10.203 2.3906q5.9688 0 10.141-3.0312 4.1719-3.0156 6.1719-8.7812z"/>
<path id="i" d="m9.4219 54.688h8.9844v-54.688h-8.9844zm0 21.297h8.9844v-11.391h-8.9844z"/>
<path id="e" d="m54.891 33.016v-33.016h-8.9844v32.719q0 7.7656-3.0312 11.609-3.0312 3.8594-9.0781 3.8594-7.2812 0-11.484-4.6406-4.2031-4.625-4.2031-12.641v-30.906h-9.0312v54.688h9.0312v-8.5q3.2344 4.9375 7.5938 7.375 4.375 2.4375 10.094 2.4375 9.4219 0 14.25-5.8281 4.8438-5.8281 4.8438-17.156z"/>
<path id="h" d="m34.281 27.484q-10.891 0-15.094-2.4844t-4.2031-8.5q0-4.7812 3.1562-7.5938 3.1562-2.7969 8.5625-2.7969 7.4844 0 12 5.2969t4.5156 14.078v2zm17.922 3.7188v-31.203h-8.9844v8.2969q-3.0781-4.9688-7.6719-7.3438t-11.234-2.375q-8.3906 0-13.359 4.7188-4.9531 4.7188-4.9531 12.625 0 9.2188 6.1719 13.906 6.1875 4.6875 18.438 4.6875h12.609v0.89062q0 6.2031-4.0781 9.5938t-11.453 3.3906q-4.6875 0-9.1406-1.125-4.4375-1.125-8.5312-3.375v8.3125q4.9219 1.9062 9.5625 2.8438 4.6406 0.95312 9.0312 0.95312 11.875 0 17.734-6.1562 5.8594-6.1406 5.8594-18.641z"/>
<path id="g" d="m9.4219 75.984h8.9844v-75.984h-8.9844z"/>
</defs>
<g transform="translate(1147 881.58) rotate(90) scale(.08 -.08)">
<use xlink:href="#l"/>
<use x="60.818359" xlink:href="#d"/>
<use x="122.341797" xlink:href="#k"/>
<use x="163.439453" xlink:href="#j"/>
<use x="260.851562" xlink:href="#i"/>
<use x="288.634766" xlink:href="#e"/>
<use x="352.013672" xlink:href="#h"/>
<use x="413.292969" xlink:href="#g"/>
</g>
</g>
<path d="m1396.8 627.44 4.5054-4.2009q1.7553-1.6367 0.11862-3.392l-5.2801-5.6628q-1.6367-1.7553-3.392-0.11862l-4.5054 4.2009q-1.7553 1.6367-0.11862 3.392l5.2801 5.6628q1.6367 1.7553 3.392 0.11862z" clip-path="url(#a)" fill="#fff" stroke="#fff"/>
<g clip-path="url(#a)">
<defs>
<path id="ao" d="m19.672 64.797v-56.688h11.922q15.094 0 22.094 6.8281 7 6.8438 7 21.594 0 14.641-7 21.453t-22.094 6.8125zm-9.8594 8.1094h20.266q21.188 0 31.094-8.8125 9.9219-8.8125 9.9219-27.562 0-18.859-9.9688-27.703-9.9531-8.8281-31.047-8.8281h-20.266z"/>
</defs>
<g transform="translate(1394.1 624.47) rotate(-42.997) scale(.08 -.08)">
<use xlink:href="#ao"/>
</g>
</g>
<path d="m1561.6 624.7 1.1054-5.3597q0.48479-2.3505-1.8657-2.8353l-7.5829-1.5639q-2.3505-0.48479-2.8353 1.8657l-1.1054 5.3597q-0.48479 2.3505 1.8657 2.8353l7.5829 1.5639q2.3505 0.48479 2.8353-1.8657z" clip-path="url(#a)" fill="#fff" stroke="#fff"/>
<g clip-path="url(#a)">
<g transform="translate(1557.6 623.88) rotate(-78.346) scale(.08 -.08)">
<use xlink:href="#s"/>
</g>
</g>
<path d="m1614.5 527.76 1.3297 4.6369q0.66157 2.307 2.9686 1.6454l7.4425-2.1342q2.307-0.66157 1.6454-2.9686l-1.3297-4.6369q-0.66157-2.307-2.9686-1.6454l-7.4425 2.1342q-2.307 0.66157-1.6454 2.9686z" clip-path="url(#a)" fill="#fff" stroke="#fff"/>
<g clip-path="url(#a)">
<g transform="translate(1618.4 526.64) rotate(73.999) scale(.08 -.08)">
<use xlink:href="#ab"/>
</g>
</g>
<path d="m1675.6 620.66 2.6401 5.5656q1.0286 2.1684 3.197 1.1398l6.9953-3.3183q2.1684-1.0286 1.1398-3.197l-2.6401-5.5656q-1.0286-2.1684-3.197-1.1398l-6.9953 3.3183q-2.1684 1.0286-1.1398 3.197z" clip-path="url(#a)" fill="#fff" stroke="#fff"/>
<g clip-path="url(#a)">
<g transform="translate(1679.3 618.91) rotate(64.622) scale(.08 -.08)">
<use xlink:href="#ao"/>
</g>
</g>
<path d="m1710.3 621.76 3.2251 4.8867q1.322 2.0031 3.3251 0.68107l6.462-4.2648q2.0031-1.322 0.68107-3.3251l-3.2251-4.8867q-1.322-2.0031-3.3251-0.68107l-6.462 4.2648q-2.0031 1.322-0.68107 3.3251z" clip-path="url(#a)" fill="#fff" stroke="#fff"/>
<g clip-path="url(#a)">
<g transform="translate(1713.7 619.52) rotate(56.576) scale(.08 -.08)">
<use xlink:href="#v"/>
</g>
</g>
<path d="m1715.5 808.94 3.6333 4.0923q1.5934 1.7947 3.3881 0.20131l5.7899-5.1404q1.7947-1.5934 0.20131-3.3881l-3.6333-4.0923q-1.5934-1.7947-3.3881-0.20131l-5.7899 5.1404q-1.7947 1.5934-0.20131 3.3881z" clip-path="url(#a)" fill="#fff" stroke="#fff"/>
<g clip-path="url(#a)">
<g transform="translate(1718.5 806.25) rotate(48.4) scale(.08 -.08)">
<use xlink:href="#s"/>
</g>
</g>
<path d="m1459.6 720.68 3.555-3.2605q1.7687-1.6222 0.14652-3.3909l-5.2333-5.706q-1.6222-1.7687-3.3909-0.14652l-3.555 3.2605q-1.7687 1.6222-0.14652 3.3909l5.2333 5.706q1.6222 1.7687 3.3909 0.14652z" clip-path="url(#a)" fill="#fff" stroke="#fff"/>
<g clip-path="url(#a)">
<g transform="translate(1456.9 717.69) rotate(-42.526) scale(.08 -.08)">
<use xlink:href="#ab"/>
</g>
</g>
<path d="m1543.3 718.44 1.166-5.3468q0.51134-2.3449-1.8336-2.8562l-7.5647-1.6496q-2.3449-0.51134-2.8562 1.8336l-1.166 5.3468q-0.51134 2.3449 1.8336 2.8562l7.5647 1.6496q2.3449 0.51134 2.8562-1.8336z" clip-path="url(#a)" fill="#fff" stroke="#fff"/>
<g clip-path="url(#a)">
<g transform="translate(1539.3 717.58) rotate(-77.698) scale(.08 -.08)">
<use xlink:href="#s"/>
</g>
</g>
<path d="m1519.2 719.74 2.4787-5.3045q1.016-2.1743-1.1583-3.1903l-7.0145-3.2777q-2.1743-1.016-3.1903 1.1583l-2.4787 5.3045q-1.016 2.1743 1.1583 3.1903l7.0145 3.2777q2.1743 1.016 3.1903-1.1583z" clip-path="url(#a)" fill="#fff" stroke="#fff"/>
<g clip-path="url(#a)">
<g transform="translate(1515.5 718.02) rotate(-64.954) scale(.08 -.08)">
<use xlink:href="#v"/>
</g>
</g>
<path d="m1321.6 917.94 12.355-33.051q0.84038-2.2481-1.4077-3.0884l-7.2523-2.7111q-2.2481-0.84038-3.0884 1.4077l-12.355 33.051q-0.84038 2.2481 1.4077 3.0884l7.2523 2.7111q2.2481 0.84038 3.0884-1.4077z" clip-path="url(#a)" fill="#fff" stroke="#fff"/>
<g clip-path="url(#a)">
<g transform="translate(1317.8 916.52) rotate(-69.503) scale(.08 -.08)">
<use xlink:href="#l"/>
<use x="60.818359" xlink:href="#d"/>
<use x="122.341797" xlink:href="#k"/>
<use x="163.439453" xlink:href="#j"/>
<use x="260.851562" xlink:href="#i"/>
<use x="288.634766" xlink:href="#e"/>
<use x="352.013672" xlink:href="#h"/>
<use x="413.292969" xlink:href="#g"/>
</g>
</g>
<path d="m1349 917.51 4.3631-35.014q0.29676-2.3816-2.0848-2.6783l-7.6831-0.95737q-2.3816-0.29676-2.6783 2.0848l-4.3631 35.014q-0.29676 2.3816 2.0848 2.6783l7.6831 0.95737q2.3816 0.29676 2.6783-2.0848z" clip-path="url(#a)" fill="#fff" stroke="#fff"/>
<g clip-path="url(#a)">
<g transform="translate(1344.9 917) rotate(-82.897) scale(.08 -.08)">
<use xlink:href="#l"/>
<use x="60.818359" xlink:href="#d"/>
<use x="122.341797" xlink:href="#k"/>
<use x="163.439453" xlink:href="#j"/>
<use x="260.851562" xlink:href="#i"/>
<use x="288.634766" xlink:href="#e"/>
<use x="352.013672" xlink:href="#h"/>
<use x="413.292969" xlink:href="#g"/>
</g>
</g>
<path d="m1359.5 882.49 4.3631 35.014q0.29676 2.3816 2.6783 2.0848l7.6831-0.95737q2.3816-0.29676 2.0848-2.6783l-4.3631-35.014q-0.29676-2.3816-2.6783-2.0848l-7.6831 0.95737q-2.3816 0.29676-2.0848 2.6783z" clip-path="url(#a)" fill="#fff" stroke="#fff"/>
<g clip-path="url(#a)">
<g transform="translate(1363.6 881.99) rotate(82.897) scale(.08 -.08)">
<use xlink:href="#l"/>
<use x="60.818359" xlink:href="#d"/>
<use x="122.341797" xlink:href="#k"/>
<use x="163.439453" xlink:href="#j"/>
<use x="260.851562" xlink:href="#i"/>
<use x="288.634766" xlink:href="#e"/>
<use x="352.013672" xlink:href="#h"/>
<use x="413.292969" xlink:href="#g"/>
</g>
</g>
<path d="m1378.9 884.89 12.355 33.051q0.84038 2.2481 3.0884 1.4077l7.2523-2.7111q2.2481-0.84038 1.4077-3.0884l-12.355-33.051q-0.84038-2.2481-3.0884-1.4077l-7.2523 2.7111q-2.2481 0.84038-1.4077 3.0884z" clip-path="url(#a)" fill="#fff" stroke="#fff"/>
<g clip-path="url(#a)">
<g transform="translate(1382.7 883.47) rotate(69.503) scale(.08 -.08)">
<use xlink:href="#l"/>
<use x="60.818359" xlink:href="#d"/>
<use x="122.341797" xlink:href="#k"/>
<use x="163.439453" xlink:href="#j"/>
<use x="260.851562" xlink:href="#i"/>
<use x="288.634766" xlink:href="#e"/>
<use x="352.013672" xlink:href="#h"/>
<use x="413.292969" xlink:href="#g"/>
</g>
</g>
<path d="m1189 881.58v35.285q0 2.4 2.4 2.4h7.7425q2.4 0 2.4-2.4v-35.285q0-2.4-2.4-2.4h-7.7425q-2.4 0-2.4 2.4z" clip-path="url(#a)" fill="#fff" stroke="#fff"/>
<g clip-path="url(#a)">
<g transform="translate(1193 881.58) rotate(90) scale(.08 -.08)">
<use xlink:href="#l"/>
<use x="60.818359" xlink:href="#d"/>
<use x="122.341797" xlink:href="#k"/>
<use x="163.439453" xlink:href="#j"/>
<use x="260.851562" xlink:href="#i"/>
<use x="288.634766" xlink:href="#e"/>
<use x="352.013672" xlink:href="#h"/>
<use x="413.292969" xlink:href="#g"/>
</g>
</g>
<path d="m1511.3 881.58v35.285q0 2.4 2.4 2.4h7.7425q2.4 0 2.4-2.4v-35.285q0-2.4-2.4-2.4h-7.7425q-2.4 0-2.4 2.4z" clip-path="url(#a)" fill="#fff" stroke="#fff"/>
<g clip-path="url(#a)">
<g transform="translate(1515.4 881.58) rotate(90) scale(.08 -.08)">
<use xlink:href="#l"/>
<use x="60.818359" xlink:href="#d"/>
<use x="122.341797" xlink:href="#k"/>
<use x="163.439453" xlink:href="#j"/>
<use x="260.851562" xlink:href="#i"/>
<use x="288.634766" xlink:href="#e"/>
<use x="352.013672" xlink:href="#h"/>
<use x="413.292969" xlink:href="#g"/>
</g>
</g>
<path d="m1622.5 718.81 1.594-4.7971q0.7568-2.2776-1.5207-3.0344l-7.3475-2.4415q-2.2776-0.7568-3.0344 1.5207l-1.594 4.7971q-0.7568 2.2776 1.5207 3.0344l7.3475 2.4415q2.2776 0.7568 3.0344-1.5207z" clip-path="url(#a)" fill="#fff" stroke="#fff"/>
<g clip-path="url(#a)">
<defs>
<path id="t" d="m9.8125 72.906h46.094v-8.3125h-36.234v-21.578h34.719v-8.2969h-34.719v-26.422h37.109v-8.2969h-46.969z"/>
</defs>
<g transform="translate(1618.7 717.53) rotate(-71.619) scale(.08 -.08)">
<use xlink:href="#t"/>
</g>
</g>
<path d="m1645.6 711.9 0.23183 5.5814q0.099601 2.3979 2.4975 2.2983l7.7358-0.32132q2.3979-0.099601 2.2983-2.4975l-0.23183-5.5814q-0.099601-2.3979-2.4975-2.2983l-7.7358 0.32132q-2.3979 0.099601-2.2983 2.4975z" clip-path="url(#a)" fill="#fff" stroke="#fff"/>
<g clip-path="url(#a)">
<g transform="translate(1649.6 711.73) rotate(87.622) scale(.08 -.08)">
<use xlink:href="#x"/>
</g>
</g>
<path d="m1668.2 713.76 1.4113 4.854q0.67006 2.3046 2.9746 1.6345l7.4346-2.1616q2.3046-0.67006 1.6345-2.9746l-1.4113-4.854q-0.67006-2.3046-2.9746-1.6345l-7.4346 2.1616q-2.3046 0.67006-1.6345 2.9746z" clip-path="url(#a)" fill="#fff" stroke="#fff"/>
<g clip-path="url(#a)">
<g transform="translate(1672.1 712.62) rotate(73.788) scale(.08 -.08)">
<use xlink:href="#t"/>
</g>
</g>
<path d="m1763.4 917.51 4.3631-35.014q0.29676-2.3816-2.0848-2.6783l-7.6831-0.95737q-2.3816-0.29676-2.6783 2.0848l-4.3631 35.014q-0.29676 2.3816 2.0848 2.6783l7.6831 0.95737q2.3816 0.29676 2.6783-2.0848z" clip-path="url(#a)" fill="#fff" stroke="#fff"/>
<g clip-path="url(#a)">
<g transform="translate(1759.4 917) rotate(-82.897) scale(.08 -.08)">
<use xlink:href="#l"/>
<use x="60.818359" xlink:href="#d"/>
<use x="122.341797" xlink:href="#k"/>
<use x="163.439453" xlink:href="#j"/>
<use x="260.851562" xlink:href="#i"/>
<use x="288.634766" xlink:href="#e"/>
<use x="352.013672" xlink:href="#h"/>
<use x="413.292969" xlink:href="#g"/>
</g>
</g>
<path d="m1774 882.49 4.3631 35.014q0.29676 2.3816 2.6783 2.0848l7.6831-0.95737q2.3816-0.29676 2.0848-2.6783l-4.3631-35.014q-0.29676-2.3816-2.6783-2.0848l-7.6831 0.95737q-2.3816 0.29676-2.0848 2.6783z" clip-path="url(#a)" fill="#fff" stroke="#fff"/>
<g clip-path="url(#a)">
<g transform="translate(1778 881.99) rotate(82.897) scale(.08 -.08)">
<use xlink:href="#l"/>
<use x="60.818359" xlink:href="#d"/>
<use x="122.341797" xlink:href="#k"/>
<use x="163.439453" xlink:href="#j"/>
<use x="260.851562" xlink:href="#i"/>
<use x="288.634766" xlink:href="#e"/>
<use x="352.013672" xlink:href="#h"/>
<use x="413.292969" xlink:href="#g"/>
</g>
</g>
<path d="m1579.2 917.51 4.3631-35.014q0.29676-2.3816-2.0848-2.6783l-7.6831-0.95737q-2.3816-0.29676-2.6783 2.0848l-4.3631 35.014q-0.29676 2.3816 2.0848 2.6783l7.6831 0.95737q2.3816 0.29676 2.6783-2.0848z" clip-path="url(#a)" fill="#fff" stroke="#fff"/>
<g clip-path="url(#a)">
<g transform="translate(1575.2 917) rotate(-82.897) scale(.08 -.08)">
<use xlink:href="#l"/>
<use x="60.818359" xlink:href="#d"/>
<use x="122.341797" xlink:href="#k"/>
<use x="163.439453" xlink:href="#j"/>
<use x="260.851562" xlink:href="#i"/>
<use x="288.634766" xlink:href="#e"/>
<use x="352.013672" xlink:href="#h"/>
<use x="413.292969" xlink:href="#g"/>
</g>
</g>
<path d="m1589.8 882.49 4.3631 35.014q0.29676 2.3816 2.6783 2.0848l7.6831-0.95737q2.3816-0.29676 2.0848-2.6783l-4.3631-35.014q-0.29676-2.3816-2.6783-2.0848l-7.6831 0.95737q-2.3816 0.29676-2.0848 2.6783z" clip-path="url(#a)" fill="#fff" stroke="#fff"/>
<g clip-path="url(#a)">
<g transform="translate(1593.8 881.99) rotate(82.897) scale(.08 -.08)">
<use xlink:href="#l"/>
<use x="60.818359" xlink:href="#d"/>
<use x="122.341797" xlink:href="#k"/>
<use x="163.439453" xlink:href="#j"/>
<use x="260.851562" xlink:href="#i"/>
<use x="288.634766" xlink:href="#e"/>
<use x="352.013672" xlink:href="#h"/>
<use x="413.292969" xlink:href="#g"/>
</g>
</g>
<path d="m1649.5 881.58v35.285q0 2.4 2.4 2.4h7.7425q2.4 0 2.4-2.4v-35.285q0-2.4-2.4-2.4h-7.7425q-2.4 0-2.4 2.4z" clip-path="url(#a)" fill="#fff" stroke="#fff"/>
<g clip-path="url(#a)">
<g transform="translate(1653.6 881.58) rotate(90) scale(.08 -.08)">
<use xlink:href="#l"/>
<use x="60.818359" xlink:href="#d"/>
<use x="122.341797" xlink:href="#k"/>
<use x="163.439453" xlink:href="#j"/>
<use x="260.851562" xlink:href="#i"/>
<use x="288.634766" xlink:href="#e"/>
<use x="352.013672" xlink:href="#h"/>
<use x="413.292969" xlink:href="#g"/>
</g>
</g>
<path d="m1695.6 881.58v35.285q0 2.4 2.4 2.4h7.7425q2.4 0 2.4-2.4v-35.285q0-2.4-2.4-2.4h-7.7425q-2.4 0-2.4 2.4z" clip-path="url(#a)" fill="#fff" stroke="#fff"/>
<g clip-path="url(#a)">
<g transform="translate(1699.6 881.58) rotate(90) scale(.08 -.08)">
<use xlink:href="#l"/>
<use x="60.818359" xlink:href="#d"/>
<use x="122.341797" xlink:href="#k"/>
<use x="163.439453" xlink:href="#j"/>
<use x="260.851562" xlink:href="#i"/>
<use x="288.634766" xlink:href="#e"/>
<use x="352.013672" xlink:href="#h"/>
<use x="413.292969" xlink:href="#g"/>
</g>
</g>
<path d="m636.33 881.58v35.285q0 2.4 2.4 2.4h7.7425q2.4 0 2.4-2.4v-35.285q0-2.4-2.4-2.4h-7.7425q-2.4 0-2.4 2.4z" clip-path="url(#a)" fill="#fff" stroke="#fff"/>
<g clip-path="url(#a)">
<g transform="translate(640.39 881.58) rotate(90) scale(.08 -.08)">
<use xlink:href="#l"/>
<use x="60.818359" xlink:href="#d"/>
<use x="122.341797" xlink:href="#k"/>
<use x="163.439453" xlink:href="#j"/>
<use x="260.851562" xlink:href="#i"/>
<use x="288.634766" xlink:href="#e"/>
<use x="352.013672" xlink:href="#h"/>
<use x="413.292969" xlink:href="#g"/>
</g>
</g>
<path d="m682.38 881.58v35.285q0 2.4 2.4 2.4h7.7425q2.4 0 2.4-2.4v-35.285q0-2.4-2.4-2.4h-7.7425q-2.4 0-2.4 2.4z" clip-path="url(#a)" fill="#fff" stroke="#fff"/>
<g clip-path="url(#a)">
<g transform="translate(686.45 881.58) rotate(90) scale(.08 -.08)">
<use xlink:href="#l"/>
<use x="60.818359" xlink:href="#d"/>
<use x="122.341797" xlink:href="#k"/>
<use x="163.439453" xlink:href="#j"/>
<use x="260.851562" xlink:href="#i"/>
<use x="288.634766" xlink:href="#e"/>
<use x="352.013672" xlink:href="#h"/>
<use x="413.292969" xlink:href="#g"/>
</g>
</g>
<path d="m728.44 881.58v35.285q0 2.4 2.4 2.4h7.7425q2.4 0 2.4-2.4v-35.285q0-2.4-2.4-2.4h-7.7425q-2.4 0-2.4 2.4z" clip-path="url(#a)" fill="#fff" stroke="#fff"/>
<g clip-path="url(#a)">
<g transform="translate(732.5 881.58) rotate(90) scale(.08 -.08)">
<use xlink:href="#l"/>
<use x="60.818359" xlink:href="#d"/>
<use x="122.341797" xlink:href="#k"/>
<use x="163.439453" xlink:href="#j"/>
<use x="260.851562" xlink:href="#i"/>
<use x="288.634766" xlink:href="#e"/>
<use x="352.013672" xlink:href="#h"/>
<use x="413.292969" xlink:href="#g"/>
</g>
</g>
<path d="m842.18 720.11 2.9395-4.718q1.2691-2.037-0.76786-3.3061l-6.5714-4.0943q-2.037-1.2691-3.3061 0.76786l-2.9395 4.718q-1.2691 2.037 0.76786 3.3061l6.5714 4.0943q2.037 1.2691 3.3061-0.76786z" clip-path="url(#a)" fill="#fff" stroke="#fff"/>
<g clip-path="url(#a)">
<g transform="translate(838.73 717.96) rotate(-58.075) scale(.08 -.08)">
<use xlink:href="#y"/>
</g>
</g>
<path d="m866.34 718.99 1.77-4.735q0.84038-2.2481-1.4077-3.0884l-7.2523-2.7111q-2.2481-0.84038-3.0884 1.4077l-1.77 4.735q-0.84038 2.2481 1.4077 3.0884l7.2523 2.7111q2.2481 0.84038 3.0884-1.4077z" clip-path="url(#a)" fill="#fff" stroke="#fff"/>
<g clip-path="url(#a)">
<g transform="translate(862.54 717.57) rotate(-69.503) scale(.08 -.08)">
<use xlink:href="#t"/>
</g>
</g>
<path d="m890.29 717.71 0.62506-5.0162q0.29676-2.3816-2.0848-2.6783l-7.6831-0.95737q-2.3816-0.29676-2.6783 2.0848l-0.62506 5.0162q-0.29676 2.3816 2.0848 2.6783l7.6831 0.95737q2.3816 0.29676 2.6783-2.0848z" clip-path="url(#a)" fill="#fff" stroke="#fff"/>
<g clip-path="url(#a)">
<g transform="translate(886.26 717.21) rotate(-82.897) scale(.08 -.08)">
<use xlink:href="#t"/>
</g>
</g>
<path d="m923.67 714.26 1.77 4.735q0.84038 2.2481 3.0884 1.4077l7.2523-2.7111q2.2481-0.84038 1.4077-3.0884l-1.77-4.735q-0.84038-2.2481-3.0884-1.4077l-7.2523 2.7111q-2.2481 0.84038-1.4077 3.0884z" clip-path="url(#a)" fill="#fff" stroke="#fff"/>
<g clip-path="url(#a)">
<g transform="translate(927.48 712.84) rotate(69.503) scale(.08 -.08)">
<use xlink:href="#t"/>
</g>
</g>
<path d="m946.66 715.38 2.954 4.7413q1.2691 2.037 3.3061 0.76786l6.5714-4.0943q2.037-1.2691 0.76786-3.3061l-2.954-4.7413q-1.2691-2.037-3.3061-0.76786l-6.5714 4.0943q-2.037 1.2691-0.76786 3.3061z" clip-path="url(#a)" fill="#fff" stroke="#fff"/>
<g clip-path="url(#a)">
<g transform="translate(950.11 713.23) rotate(58.075) scale(.08 -.08)">
<use xlink:href="#x"/>
</g>
</g>
<path d="m900.82 712.3 0.72398 5.8101q0.29676 2.3816 2.6783 2.0848l7.6831-0.95738q2.3816-0.29676 2.0848-2.6783l-0.72398-5.8101q-0.29676-2.3816-2.6783-2.0848l-7.6831 0.95738q-2.3816 0.29676-2.0848 2.6783z" clip-path="url(#a)" fill="#fff" stroke="#fff"/>
<g clip-path="url(#a)">
<g transform="translate(904.85 711.8) rotate(82.897) scale(.08 -.08)">
<use xlink:href="#v"/>
</g>
</g>
<path d="m774.49 881.58v35.285q0 2.4 2.4 2.4h7.7425q2.4 0 2.4-2.4v-35.285q0-2.4-2.4-2.4h-7.7425q-2.4 0-2.4 2.4z" clip-path="url(#a)" fill="#fff" stroke="#fff"/>
<g clip-path="url(#a)">
<g transform="translate(778.55 881.58) rotate(90) scale(.08 -.08)">
<use xlink:href="#l"/>
<use x="60.818359" xlink:href="#d"/>
<use x="122.341797" xlink:href="#k"/>
<use x="163.439453" xlink:href="#j"/>
<use x="260.851562" xlink:href="#i"/>
<use x="288.634766" xlink:href="#e"/>
<use x="352.013672" xlink:href="#h"/>
<use x="413.292969" xlink:href="#g"/>
</g>
</g>
<path d="m820.54 881.58v35.285q0 2.4 2.4 2.4h7.7425q2.4 0 2.4-2.4v-35.285q0-2.4-2.4-2.4h-7.7425q-2.4 0-2.4 2.4z" clip-path="url(#a)" fill="#fff" stroke="#fff"/>
<g clip-path="url(#a)">
<g transform="translate(824.61 881.58) rotate(90) scale(.08 -.08)">
<use xlink:href="#l"/>
<use x="60.818359" xlink:href="#d"/>
<use x="122.341797" xlink:href="#k"/>
<use x="163.439453" xlink:href="#j"/>
<use x="260.851562" xlink:href="#i"/>
<use x="288.634766" xlink:href="#e"/>
<use x="352.013672" xlink:href="#h"/>
<use x="413.292969" xlink:href="#g"/>
</g>
</g>
<path d="m866.6 881.58v35.285q0 2.4 2.4 2.4h7.7425q2.4 0 2.4-2.4v-35.285q0-2.4-2.4-2.4h-7.7425q-2.4 0-2.4 2.4z" clip-path="url(#a)" fill="#fff" stroke="#fff"/>
<g clip-path="url(#a)">
<g transform="translate(870.66 881.58) rotate(90) scale(.08 -.08)">
<use xlink:href="#l"/>
<use x="60.818359" xlink:href="#d"/>
<use x="122.341797" xlink:href="#k"/>
<use x="163.439453" xlink:href="#j"/>
<use x="260.851562" xlink:href="#i"/>
<use x="288.634766" xlink:href="#e"/>
<use x="352.013672" xlink:href="#h"/>
<use x="413.292969" xlink:href="#g"/>
</g>
</g>
<path d="m958.7 881.58v35.285q0 2.4 2.4 2.4h7.7425q2.4 0 2.4-2.4v-35.285q0-2.4-2.4-2.4h-7.7425q-2.4 0-2.4 2.4z" clip-path="url(#a)" fill="#fff" stroke="#fff"/>
<g clip-path="url(#a)">
<g transform="translate(962.77 881.58) rotate(90) scale(.08 -.08)">
<use xlink:href="#l"/>
<use x="60.818359" xlink:href="#d"/>
<use x="122.341797" xlink:href="#k"/>
<use x="163.439453" xlink:href="#j"/>
<use x="260.851562" xlink:href="#i"/>
<use x="288.634766" xlink:href="#e"/>
<use x="352.013672" xlink:href="#h"/>
<use x="413.292969" xlink:href="#g"/>
</g>
</g>
<path d="m1004.8 881.58v35.285q0 2.4 2.4 2.4h7.7425q2.4 0 2.4-2.4v-35.285q0-2.4-2.4-2.4h-7.7425q-2.4 0-2.4 2.4z" clip-path="url(#a)" fill="#fff" stroke="#fff"/>
<g clip-path="url(#a)">
<g transform="translate(1008.8 881.58) rotate(90) scale(.08 -.08)">
<use xlink:href="#l"/>
<use x="60.818359" xlink:href="#d"/>
<use x="122.341797" xlink:href="#k"/>
<use x="163.439453" xlink:href="#j"/>
<use x="260.851562" xlink:href="#i"/>
<use x="288.634766" xlink:href="#e"/>
<use x="352.013672" xlink:href="#h"/>
<use x="413.292969" xlink:href="#g"/>
</g>
</g>
<path d="m221.85 881.58v35.285q0 2.4 2.4 2.4h7.7425q2.4 0 2.4-2.4v-35.285q0-2.4-2.4-2.4h-7.7425q-2.4 0-2.4 2.4z" clip-path="url(#a)" fill="#fff" stroke="#fff"/>
<g clip-path="url(#a)">
<g transform="translate(225.92 881.58) rotate(90) scale(.08 -.08)">
<use xlink:href="#l"/>
<use x="60.818359" xlink:href="#d"/>
<use x="122.341797" xlink:href="#k"/>
<use x="163.439453" xlink:href="#j"/>
<use x="260.851562" xlink:href="#i"/>
<use x="288.634766" xlink:href="#e"/>
<use x="352.013672" xlink:href="#h"/>
<use x="413.292969" xlink:href="#g"/>
</g>
</g>
<path d="m291.6 717.71 0.62506-5.0162q0.29676-2.3816-2.0848-2.6783l-7.6831-0.95737q-2.3816-0.29676-2.6783 2.0848l-0.62506 5.0162q-0.29676 2.3816 2.0848 2.6783l7.6831 0.95737q2.3816 0.29676 2.6783-2.0848z" clip-path="url(#a)" fill="#fff" stroke="#fff"/>
<g clip-path="url(#a)">
<g transform="translate(287.57 717.21) rotate(-82.897) scale(.08 -.08)">
<use xlink:href="#t"/>
</g>
</g>
<path d="m302.15 712.44 0.69075 5.5434q0.29676 2.3816 2.6783 2.0848l7.6831-0.95737q2.3816-0.29676 2.0848-2.6783l-0.69075-5.5434q-0.29676-2.3816-2.6783-2.0848l-7.6831 0.95737q-2.3816 0.29676-2.0848 2.6783z" clip-path="url(#a)" fill="#fff" stroke="#fff"/>
<g clip-path="url(#a)">
<g transform="translate(306.18 711.93) rotate(82.897) scale(.08 -.08)">
<use xlink:href="#x"/>
</g>
</g>
<path d="m402.76 624.26 0.82293-4.9876q0.39071-2.368-1.9773-2.7587l-7.6392-1.2604q-2.368-0.39071-2.7587 1.9773l-0.82293 4.9876q-0.39071 2.368 1.9773 2.7587l7.6392 1.2604q2.368 0.39071 2.7587-1.9773z" clip-path="url(#a)" fill="#fff" stroke="#fff"/>
<g clip-path="url(#a)">
<g transform="translate(398.75 623.6) rotate(-80.631) scale(.08 -.08)">
<use xlink:href="#t"/>
</g>
</g>
<path d="m426.16 623.8 0.23023-5.5815q0.098913-2.398-2.299-2.4969l-7.7359-0.3191q-2.398-0.098914-2.4969 2.299l-0.23023 5.5815q-0.098914 2.398 2.299 2.4969l7.7359 0.3191q2.398 0.098914 2.4969-2.299z" clip-path="url(#a)" fill="#fff" stroke="#fff"/>
<g clip-path="url(#a)">
<g transform="translate(422.1 623.63) rotate(-87.638) scale(.08 -.08)">
<use xlink:href="#x"/>
</g>
</g>
<path d="m459.3 528.39 1.9163 4.6777q0.9098 2.2209 3.1307 1.3111l7.1646-2.9351q2.2209-0.9098 1.3111-3.1307l-1.9163-4.6777q-0.9098-2.2209-3.1307-1.3111l-7.1646 2.9351q-2.2209 0.9098-1.3111 3.1307z" clip-path="url(#a)" fill="#fff" stroke="#fff"/>
<g clip-path="url(#a)">
<g transform="translate(463.06 526.85) rotate(67.723) scale(.08 -.08)">
<use xlink:href="#t"/>
</g>
</g>
<path d="m360.01 881.58v35.285q0 2.4 2.4 2.4h7.7425q2.4 0 2.4-2.4v-35.285q0-2.4-2.4-2.4h-7.7425q-2.4 0-2.4 2.4z" clip-path="url(#a)" fill="#fff" stroke="#fff"/>
<g clip-path="url(#a)">
<g transform="translate(364.07 881.58) rotate(90) scale(.08 -.08)">
<use xlink:href="#l"/>
<use x="60.818359" xlink:href="#d"/>
<use x="122.341797" xlink:href="#k"/>
<use x="163.439453" xlink:href="#j"/>
<use x="260.851562" xlink:href="#i"/>
<use x="288.634766" xlink:href="#e"/>
<use x="352.013672" xlink:href="#h"/>
<use x="413.292969" xlink:href="#g"/>
</g>
</g>
<path d="m406.06 881.58v35.285q0 2.4 2.4 2.4h7.7425q2.4 0 2.4-2.4v-35.285q0-2.4-2.4-2.4h-7.7425q-2.4 0-2.4 2.4z" clip-path="url(#a)" fill="#fff" stroke="#fff"/>
<g clip-path="url(#a)">
<g transform="translate(410.13 881.58) rotate(90) scale(.08 -.08)">
<use xlink:href="#l"/>
<use x="60.818359" xlink:href="#d"/>
<use x="122.341797" xlink:href="#k"/>
<use x="163.439453" xlink:href="#j"/>
<use x="260.851562" xlink:href="#i"/>
<use x="288.634766" xlink:href="#e"/>
<use x="352.013672" xlink:href="#h"/>
<use x="413.292969" xlink:href="#g"/>
</g>
</g>
<path d="m486.83 718.64 1.3442-5.3938q0.58037-2.3288-1.7484-2.9091l-7.5127-1.8723q-2.3288-0.58037-2.9091 1.7484l-1.3442 5.3938q-0.58037 2.3288 1.7484 2.9091l7.5127 1.8723q2.3288 0.58037 2.9091-1.7484z" clip-path="url(#a)" fill="#fff" stroke="#fff"/>
<g clip-path="url(#a)">
<g transform="translate(482.89 717.66) rotate(-76.006) scale(.08 -.08)">
<use xlink:href="#y"/>
</g>
</g>
<path d="m498.17 711.9v5.055q0 2.4 2.4 2.4h7.7425q2.4 0 2.4-2.4v-5.055q0-2.4-2.4-2.4h-7.7425q-2.4 0-2.4 2.4z" clip-path="url(#a)" fill="#fff" stroke="#fff"/>
<g clip-path="url(#a)">
<g transform="translate(502.23 711.9) rotate(90) scale(.08 -.08)">
<use xlink:href="#t"/>
</g>
</g>
<path d="m520.71 713.24 1.3509 5.4205q0.58037 2.3288 2.9091 1.7484l7.5127-1.8723q2.3288-0.58037 1.7484-2.9091l-1.3509-5.4205q-0.58037-2.3288-2.9091-1.7484l-7.5127 1.8723q-2.3288 0.58037-1.7484 2.9091z" clip-path="url(#a)" fill="#fff" stroke="#fff"/>
<g clip-path="url(#a)">
<g transform="translate(524.65 712.25) rotate(76.006) scale(.08 -.08)">
<use xlink:href="#x"/>
</g>
</g>
<path d="m452.12 881.58v35.285q0 2.4 2.4 2.4h7.7425q2.4 0 2.4-2.4v-35.285q0-2.4-2.4-2.4h-7.7425q-2.4 0-2.4 2.4z" clip-path="url(#a)" fill="#fff" stroke="#fff"/>
<g clip-path="url(#a)">
<g transform="translate(456.18 881.58) rotate(90) scale(.08 -.08)">
<use xlink:href="#l"/>
<use x="60.818359" xlink:href="#d"/>
<use x="122.341797" xlink:href="#k"/>
<use x="163.439453" xlink:href="#j"/>
<use x="260.851562" xlink:href="#i"/>
<use x="288.634766" xlink:href="#e"/>
<use x="352.013672" xlink:href="#h"/>
<use x="413.292969" xlink:href="#g"/>
</g>
</g>
<path d="m498.17 881.58v35.285q0 2.4 2.4 2.4h7.7425q2.4 0 2.4-2.4v-35.285q0-2.4-2.4-2.4h-7.7425q-2.4 0-2.4 2.4z" clip-path="url(#a)" fill="#fff" stroke="#fff"/>
<g clip-path="url(#a)">
<g transform="translate(502.23 881.58) rotate(90) scale(.08 -.08)">
<use xlink:href="#l"/>
<use x="60.818359" xlink:href="#d"/>
<use x="122.341797" xlink:href="#k"/>
<use x="163.439453" xlink:href="#j"/>
<use x="260.851562" xlink:href="#i"/>
<use x="288.634766" xlink:href="#e"/>
<use x="352.013672" xlink:href="#h"/>
<use x="413.292969" xlink:href="#g"/>
</g>
</g>
<path d="m544.22 881.58v35.285q0 2.4 2.4 2.4h7.7425q2.4 0 2.4-2.4v-35.285q0-2.4-2.4-2.4h-7.7425q-2.4 0-2.4 2.4z" clip-path="url(#a)" fill="#fff" stroke="#fff"/>
<g clip-path="url(#a)">
<g transform="translate(548.29 881.58) rotate(90) scale(.08 -.08)">
<use xlink:href="#l"/>
<use x="60.818359" xlink:href="#d"/>
<use x="122.341797" xlink:href="#k"/>
<use x="163.439453" xlink:href="#j"/>
<use x="260.851562" xlink:href="#i"/>
<use x="288.634766" xlink:href="#e"/>
<use x="352.013672" xlink:href="#h"/>
<use x="413.292969" xlink:href="#g"/>
</g>
</g>
<path d="m267.9 881.58v35.285q0 2.4 2.4 2.4h7.7425q2.4 0 2.4-2.4v-35.285q0-2.4-2.4-2.4h-7.7425q-2.4 0-2.4 2.4z" clip-path="url(#a)" fill="#fff" stroke="#fff"/>
<g clip-path="url(#a)">
<g transform="translate(271.97 881.58) rotate(90) scale(.08 -.08)">
<use xlink:href="#l"/>
<use x="60.818359" xlink:href="#d"/>
<use x="122.341797" xlink:href="#k"/>
<use x="163.439453" xlink:href="#j"/>
<use x="260.851562" xlink:href="#i"/>
<use x="288.634766" xlink:href="#e"/>
<use x="352.013672" xlink:href="#h"/>
<use x="413.292969" xlink:href="#g"/>
</g>
</g>
<path d="m313.96 881.58v35.285q0 2.4 2.4 2.4h7.7425q2.4 0 2.4-2.4v-35.285q0-2.4-2.4-2.4h-7.7425q-2.4 0-2.4 2.4z" clip-path="url(#a)" fill="#fff" stroke="#fff"/>
<g clip-path="url(#a)">
<g transform="translate(318.02 881.58) rotate(90) scale(.08 -.08)">
<use xlink:href="#l"/>
<use x="60.818359" xlink:href="#d"/>
<use x="122.341797" xlink:href="#k"/>
<use x="163.439453" xlink:href="#j"/>
<use x="260.851562" xlink:href="#i"/>
<use x="288.634766" xlink:href="#e"/>
<use x="352.013672" xlink:href="#h"/>
<use x="413.292969" xlink:href="#g"/>
</g>
</g>
<path d="m83.692 881.58v35.285q0 2.4 2.4 2.4h7.7425q2.4 0 2.4-2.4v-35.285q0-2.4-2.4-2.4h-7.7425q-2.4 0-2.4 2.4z" clip-path="url(#a)" fill="#fff" stroke="#fff"/>
<g clip-path="url(#a)">
<g transform="translate(87.756 881.58) rotate(90) scale(.08 -.08)">
<use xlink:href="#l"/>
<use x="60.818359" xlink:href="#d"/>
<use x="122.341797" xlink:href="#k"/>
<use x="163.439453" xlink:href="#j"/>
<use x="260.851562" xlink:href="#i"/>
<use x="288.634766" xlink:href="#e"/>
<use x="352.013672" xlink:href="#h"/>
<use x="413.292969" xlink:href="#g"/>
</g>
</g>
<path d="m129.75 881.58v35.285q0 2.4 2.4 2.4h7.7425q2.4 0 2.4-2.4v-35.285q0-2.4-2.4-2.4h-7.7425q-2.4 0-2.4 2.4z" clip-path="url(#a)" fill="#fff" stroke="#fff"/>
<g clip-path="url(#a)">
<g transform="translate(133.81 881.58) rotate(90) scale(.08 -.08)">
<use xlink:href="#l"/>
<use x="60.818359" xlink:href="#d"/>
<use x="122.341797" xlink:href="#k"/>
<use x="163.439453" xlink:href="#j"/>
<use x="260.851562" xlink:href="#i"/>
<use x="288.634766" xlink:href="#e"/>
<use x="352.013672" xlink:href="#h"/>
<use x="413.292969" xlink:href="#g"/>
</g>
</g>
<path d="m175.8 881.58v35.285q0 2.4 2.4 2.4h7.7425q2.4 0 2.4-2.4v-35.285q0-2.4-2.4-2.4h-7.7425q-2.4 0-2.4 2.4z" clip-path="url(#a)" fill="#fff" stroke="#fff"/>
<g clip-path="url(#a)">
<g transform="translate(179.86 881.58) rotate(90) scale(.08 -.08)">
<use xlink:href="#l"/>
<use x="60.818359" xlink:href="#d"/>
<use x="122.341797" xlink:href="#k"/>
<use x="163.439453" xlink:href="#j"/>
<use x="260.851562" xlink:href="#i"/>
<use x="288.634766" xlink:href="#e"/>
<use x="352.013672" xlink:href="#h"/>
<use x="413.292969" xlink:href="#g"/>
</g>
</g>
<path d="m1264.5 532.23 3.682-9.3149q0.88224-2.232-1.3497-3.1142l-7.2004-2.8462q-2.232-0.88224-3.1142 1.3497l-3.682 9.3149q-0.88224 2.232 1.3497 3.1142l7.2004 2.8462q2.232 0.88224 3.1142-1.3497z" clip-path="url(#a)" fill="#fff" stroke="#fff"/>
<g clip-path="url(#a)">
<g transform="translate(1260.7 530.73) rotate(-68.432) scale(.08 -.08)">
<use xlink:href="#w"/>
<use x="55.712891" xlink:href="#y"/>
</g>
</g>
<path d="m1475.2 340.71 7.5383 6.4675q1.8215 1.5627 3.3842-0.25875l5.0415-5.8762q1.5627-1.8215-0.25875-3.3842l-7.5383-6.4675q-1.8215-1.5627-3.3842 0.25875l-5.0415 5.8762q-1.5627 1.8215 0.25875 3.3842z" clip-path="url(#a)" fill="#fff" stroke="#fff"/>
<g clip-path="url(#a)">
<g transform="translate(1477.9 337.63) rotate(40.628) scale(.08 -.08)">
<use xlink:href="#w"/>
<use x="55.744141" xlink:href="#s"/>
</g>
</g>
<path d="m186.84 341.14 1.5664-9.893q0.37532-2.3705-1.9952-2.7458l-7.6472-1.2108q-2.3705-0.37532-2.7458 1.9952l-1.5664 9.893q-0.37532 2.3705 1.9952 2.7458l7.6472 1.2108q2.3705 0.37532 2.7458-1.9952z" clip-path="url(#a)" fill="#fff" stroke="#fff"/>
<g clip-path="url(#a)">
<g transform="translate(182.83 340.5) rotate(-81.003) scale(.08 -.08)">
<use xlink:href="#w"/>
<use x="55.712891" xlink:href="#y"/>
</g>
</g>
<path d="m264.48 144.18 4.1881 9.0064q1.012 2.1762 3.1882 1.1642l7.0206-3.2647q2.1762-1.012 1.1642-3.1882l-4.1881-9.0064q-1.012-2.1762-3.1882-1.1642l-7.0206 3.2647q-2.1762 1.012-1.1642 3.1882z" clip-path="url(#a)" fill="#fff" stroke="#fff"/>
<g clip-path="url(#a)">
<g transform="translate(268.16 142.47) rotate(65.061) scale(.08 -.08)">
<use xlink:href="#w"/>
<use x="55.744141" xlink:href="#s"/>
</g>
</g>
<path d="m590.28 881.58v35.285q0 2.4 2.4 2.4h7.7425q2.4 0 2.4-2.4v-35.285q0-2.4-2.4-2.4h-7.7425q-2.4 0-2.4 2.4z" clip-path="url(#a)" fill="#fff" stroke="#fff"/>
<g clip-path="url(#a)">
<g transform="translate(594.34 881.58) rotate(90) scale(.08 -.08)">
<use xlink:href="#l"/>
<use x="60.818359" xlink:href="#d"/>
<use x="122.341797" xlink:href="#k"/>
<use x="163.439453" xlink:href="#j"/>
<use x="260.851562" xlink:href="#i"/>
<use x="288.634766" xlink:href="#e"/>
<use x="352.013672" xlink:href="#h"/>
<use x="413.292969" xlink:href="#g"/>
</g>
</g>
<path d="m912.65 881.58v35.285q0 2.4 2.4 2.4h7.7425q2.4 0 2.4-2.4v-35.285q0-2.4-2.4-2.4h-7.7425q-2.4 0-2.4 2.4z" clip-path="url(#a)" fill="#fff" stroke="#fff"/>
<g clip-path="url(#a)">
<g transform="translate(916.71 881.58) rotate(90) scale(.08 -.08)">
<use xlink:href="#l"/>
<use x="60.818359" xlink:href="#d"/>
<use x="122.341797" xlink:href="#k"/>
<use x="163.439453" xlink:href="#j"/>
<use x="260.851562" xlink:href="#i"/>
<use x="288.634766" xlink:href="#e"/>
<use x="352.013672" xlink:href="#h"/>
<use x="413.292969" xlink:href="#g"/>
</g>
</g>
<path d="m1050.8 881.58v35.285q0 2.4 2.4 2.4h7.7425q2.4 0 2.4-2.4v-35.285q0-2.4-2.4-2.4h-7.7425q-2.4 0-2.4 2.4z" clip-path="url(#a)" fill="#fff" stroke="#fff"/>
<g clip-path="url(#a)">
<g transform="translate(1054.9 881.58) rotate(90) scale(.08 -.08)">
<use xlink:href="#l"/>
<use x="60.818359" xlink:href="#d"/>
<use x="122.341797" xlink:href="#k"/>
<use x="163.439453" xlink:href="#j"/>
<use x="260.851562" xlink:href="#i"/>
<use x="288.634766" xlink:href="#e"/>
<use x="352.013672" xlink:href="#h"/>
<use x="413.292969" xlink:href="#g"/>
</g>
</g>
<path d="m1096.9 881.58v35.285q0 2.4 2.4 2.4h7.7425q2.4 0 2.4-2.4v-35.285q0-2.4-2.4-2.4h-7.7425q-2.4 0-2.4 2.4z" clip-path="url(#a)" fill="#fff" stroke="#fff"/>
<g clip-path="url(#a)">
<g transform="translate(1100.9 881.58) rotate(90) scale(.08 -.08)">
<use xlink:href="#l"/>
<use x="60.818359" xlink:href="#d"/>
<use x="122.341797" xlink:href="#k"/>
<use x="163.439453" xlink:href="#j"/>
<use x="260.851562" xlink:href="#i"/>
<use x="288.634766" xlink:href="#e"/>
<use x="352.013672" xlink:href="#h"/>
<use x="413.292969" xlink:href="#g"/>
</g>
</g>
<path d="m1235 881.58v35.285q0 2.4 2.4 2.4h7.7425q2.4 0 2.4-2.4v-35.285q0-2.4-2.4-2.4h-7.7425q-2.4 0-2.4 2.4z" clip-path="url(#a)" fill="#fff" stroke="#fff"/>
<g clip-path="url(#a)">
<g transform="translate(1239.1 881.58) rotate(90) scale(.08 -.08)">
<use xlink:href="#l"/>
<use x="60.818359" xlink:href="#d"/>
<use x="122.341797" xlink:href="#k"/>
<use x="163.439453" xlink:href="#j"/>
<use x="260.851562" xlink:href="#i"/>
<use x="288.634766" xlink:href="#e"/>
<use x="352.013672" xlink:href="#h"/>
<use x="413.292969" xlink:href="#g"/>
</g>
</g>
<path d="m1465.3 881.58v35.285q0 2.4 2.4 2.4h7.7425q2.4 0 2.4-2.4v-35.285q0-2.4-2.4-2.4h-7.7425q-2.4 0-2.4 2.4z" clip-path="url(#a)" fill="#fff" stroke="#fff"/>
<g clip-path="url(#a)">
<g transform="translate(1469.4 881.58) rotate(90) scale(.08 -.08)">
<use xlink:href="#l"/>
<use x="60.818359" xlink:href="#d"/>
<use x="122.341797" xlink:href="#k"/>
<use x="163.439453" xlink:href="#j"/>
<use x="260.851562" xlink:href="#i"/>
<use x="288.634766" xlink:href="#e"/>
<use x="352.013672" xlink:href="#h"/>
<use x="413.292969" xlink:href="#g"/>
</g>
</g>
<path d="m1833.7 881.58v35.285q0 2.4 2.4 2.4h7.7425q2.4 0 2.4-2.4v-35.285q0-2.4-2.4-2.4h-7.7425q-2.4 0-2.4 2.4z" clip-path="url(#a)" fill="#fff" stroke="#fff"/>
<g clip-path="url(#a)">
<g transform="translate(1837.8 881.58) rotate(90) scale(.08 -.08)">
<use xlink:href="#l"/>
<use x="60.818359" xlink:href="#d"/>
<use x="122.341797" xlink:href="#k"/>
<use x="163.439453" xlink:href="#j"/>
<use x="260.851562" xlink:href="#i"/>
<use x="288.634766" xlink:href="#e"/>
<use x="352.013672" xlink:href="#h"/>
<use x="413.292969" xlink:href="#g"/>
</g>
</g>
<defs>
<path id="b" d="m0 8.6603c2.2967 0 4.4997-0.9125 6.1237-2.5365 1.624-1.624 2.5365-3.827 2.5365-6.1237s-0.9125-4.4997-2.5365-6.1237c-1.624-1.624-3.827-2.5365-6.1237-2.5365s-4.4997 0.9125-6.1237 2.5365c-1.624 1.624-2.5365 3.827-2.5365 6.1237s0.9125 4.4997 2.5365 6.1237c1.624 1.624 3.827 2.5365 6.1237 2.5365z"/>
</defs>
<g clip-path="url(#a)">
<use x="89.963505" y="991.619341" fill="#ffffff" stroke="#ffffff" xlink:href="#b"/>
</g>
<g clip-path="url(#a)">
<use x="136.016659" y="991.619341" fill="#ffffff" stroke="#ffffff" xlink:href="#b"/>
</g>
<g clip-path="url(#a)">
<use x="182.069812" y="991.619341" fill="#ffffff" stroke="#ffffff" xlink:href="#b"/>
</g>
<g clip-path="url(#a)">
<use x="228.122966" y="991.619341" fill="#ffffff" stroke="#ffffff" xlink:href="#b"/>
</g>
<g clip-path="url(#a)">
<use x="274.17612" y="991.619341" fill="#ffffff" stroke="#ffffff" xlink:href="#b"/>
</g>
<g clip-path="url(#a)">
<use x="320.229273" y="991.619341" fill="#ffffff" stroke="#ffffff" xlink:href="#b"/>
</g>
<g clip-path="url(#a)">
<use x="366.282427" y="991.619341" fill="#ffffff" stroke="#ffffff" xlink:href="#b"/>
</g>
<g clip-path="url(#a)">
<use x="412.33558" y="991.619341" fill="#ffffff" stroke="#ffffff" xlink:href="#b"/>
</g>
<g clip-path="url(#a)">
<use x="458.388734" y="991.619341" fill="#ffffff" stroke="#ffffff" xlink:href="#b"/>
</g>
<g clip-path="url(#a)">
<use x="504.441887" y="991.619341" fill="#ffffff" stroke="#ffffff" xlink:href="#b"/>
</g>
<g clip-path="url(#a)">
<use x="550.495041" y="991.619341" fill="#ffffff" stroke="#ffffff" xlink:href="#b"/>
</g>
<g clip-path="url(#a)">
<use x="596.548195" y="991.619341" fill="#ffffff" stroke="#ffffff" xlink:href="#b"/>
</g>
<g clip-path="url(#a)">
<use x="642.601348" y="991.619341" fill="#ffffff" stroke="#ffffff" xlink:href="#b"/>
</g>
<g clip-path="url(#a)">
<use x="688.654502" y="991.619341" fill="#ffffff" stroke="#ffffff" xlink:href="#b"/>
</g>
<g clip-path="url(#a)">
<use x="734.707655" y="991.619341" fill="#ffffff" stroke="#ffffff" xlink:href="#b"/>
</g>
<g clip-path="url(#a)">
<use x="780.760809" y="991.619341" fill="#ffffff" stroke="#ffffff" xlink:href="#b"/>
</g>
<g clip-path="url(#a)">
<use x="826.813962" y="991.619341" fill="#ffffff" stroke="#ffffff" xlink:href="#b"/>
</g>
<g clip-path="url(#a)">
<use x="872.867116" y="991.619341" fill="#ffffff" stroke="#ffffff" xlink:href="#b"/>
</g>
<g clip-path="url(#a)">
<use x="918.92027" y="991.619341" fill="#ffffff" stroke="#ffffff" xlink:href="#b"/>
</g>
<g clip-path="url(#a)">
<use x="964.973423" y="991.619341" fill="#ffffff" stroke="#ffffff" xlink:href="#b"/>
</g>
<g clip-path="url(#a)">
<use x="1011.026577" y="991.619341" fill="#ffffff" stroke="#ffffff" xlink:href="#b"/>
</g>
<g clip-path="url(#a)">
<use x="1057.07973" y="991.619341" fill="#ffffff" stroke="#ffffff" xlink:href="#b"/>
</g>
<g clip-path="url(#a)">
<use x="1103.132884" y="991.619341" fill="#ffffff" stroke="#ffffff" xlink:href="#b"/>
</g>
<g clip-path="url(#a)">
<use x="1149.186038" y="991.619341" fill="#ffffff" stroke="#ffffff" xlink:href="#b"/>
</g>
<g clip-path="url(#a)">
<use x="1195.239191" y="991.619341" fill="#ffffff" stroke="#ffffff" xlink:href="#b"/>
</g>
<g clip-path="url(#a)">
<use x="1241.292345" y="991.619341" fill="#ffffff" stroke="#ffffff" xlink:href="#b"/>
</g>
<g clip-path="url(#a)">
<use x="1287.345498" y="991.619341" fill="#ffffff" stroke="#ffffff" xlink:href="#b"/>
</g>
<g clip-path="url(#a)">
<use x="1333.398652" y="991.619341" fill="#ffffff" stroke="#ffffff" xlink:href="#b"/>
</g>
<g clip-path="url(#a)">
<use x="1379.451805" y="991.619341" fill="#ffffff" stroke="#ffffff" xlink:href="#b"/>
</g>
<g clip-path="url(#a)">
<use x="1425.504959" y="991.619341" fill="#ffffff" stroke="#ffffff" xlink:href="#b"/>
</g>
<g clip-path="url(#a)">
<use x="1471.558113" y="991.619341" fill="#ffffff" stroke="#ffffff" xlink:href="#b"/>
</g>
<g clip-path="url(#a)">
<use x="1517.611266" y="991.619341" fill="#ffffff" stroke="#ffffff" xlink:href="#b"/>
</g>
<g clip-path="url(#a)">
<use x="1563.66442" y="991.619341" fill="#ffffff" stroke="#ffffff" xlink:href="#b"/>
</g>
<g clip-path="url(#a)">
<use x="1609.717573" y="991.619341" fill="#ffffff" stroke="#ffffff" xlink:href="#b"/>
</g>
<g clip-path="url(#a)">
<use x="1655.770727" y="991.619341" fill="#ffffff" stroke="#ffffff" xlink:href="#b"/>
</g>
<g clip-path="url(#a)">
<use x="1701.82388" y="991.619341" fill="#ffffff" stroke="#ffffff" xlink:href="#b"/>
</g>
<g clip-path="url(#a)">
<use x="1747.877034" y="991.619341" fill="#ffffff" stroke="#ffffff" xlink:href="#b"/>
</g>
<g clip-path="url(#a)">
<use x="1793.930188" y="991.619341" fill="#ffffff" stroke="#ffffff" xlink:href="#b"/>
</g>
<g clip-path="url(#a)">
<use x="1839.983341" y="991.619341" fill="#ffffff" stroke="#ffffff" xlink:href="#b"/>
</g>
<g clip-path="url(#a)">
<use x="949.366521" y="48.380659" fill="#ffffff" stroke="#ffffff" xlink:href="#b"/>
</g>
<g clip-path="url(#a)">
<use x="136.016659" y="622.035428" fill="#ffffff" stroke="#ffffff" xlink:href="#b"/>
</g>
<g clip-path="url(#a)">
<use x="317.670765" y="243.702388" fill="#ffffff" stroke="#ffffff" xlink:href="#b"/>
</g>
<g clip-path="url(#a)">
<use x="740.4643" y="434.672812" fill="#ffffff" stroke="#ffffff" xlink:href="#b"/>
</g>
<g clip-path="url(#a)">
<use x="1149.186038" y="806.827385" fill="#ffffff" stroke="#ffffff" xlink:href="#b"/>
</g>
<g clip-path="url(#a)">
<use x="1594.366522" y="434.672812" fill="#ffffff" stroke="#ffffff" xlink:href="#b"/>
</g>
<g clip-path="url(#a)">
<use x="1557.907776" y="622.035428" fill="#ffffff" stroke="#ffffff" xlink:href="#b"/>
</g>
<g clip-path="url(#a)">
<use x="1886.036495" y="991.619341" fill="#ffffff" stroke="#ffffff" xlink:href="#b"/>
</g>
<g clip-path="url(#a)">
<use x="1356.425229" y="806.827385" fill="#ffffff" stroke="#ffffff" xlink:href="#b"/>
</g>
<g clip-path="url(#a)">
<use x="1195.239191" y="806.827385" fill="#ffffff" stroke="#ffffff" xlink:href="#b"/>
</g>
<g clip-path="url(#a)">
<use x="1517.611266" y="806.827385" fill="#ffffff" stroke="#ffffff" xlink:href="#b"/>
</g>
<g clip-path="url(#a)">
<use x="1648.095201" y="622.035428" fill="#ffffff" stroke="#ffffff" xlink:href="#b"/>
</g>
<g clip-path="url(#a)">
<use x="1770.903611" y="806.827385" fill="#ffffff" stroke="#ffffff" xlink:href="#b"/>
</g>
<g clip-path="url(#a)">
<use x="1586.690997" y="806.827385" fill="#ffffff" stroke="#ffffff" xlink:href="#b"/>
</g>
<g clip-path="url(#a)">
<use x="1655.770727" y="806.827385" fill="#ffffff" stroke="#ffffff" xlink:href="#b"/>
</g>
<g clip-path="url(#a)">
<use x="1701.82388" y="806.827385" fill="#ffffff" stroke="#ffffff" xlink:href="#b"/>
</g>
<g clip-path="url(#a)">
<use x="642.601348" y="806.827385" fill="#ffffff" stroke="#ffffff" xlink:href="#b"/>
</g>
<g clip-path="url(#a)">
<use x="688.654502" y="806.827385" fill="#ffffff" stroke="#ffffff" xlink:href="#b"/>
</g>
<g clip-path="url(#a)">
<use x="734.707655" y="806.827385" fill="#ffffff" stroke="#ffffff" xlink:href="#b"/>
</g>
<g clip-path="url(#a)">
<use x="895.893693" y="622.035428" fill="#ffffff" stroke="#ffffff" xlink:href="#b"/>
</g>
<g clip-path="url(#a)">
<use x="780.760809" y="806.827385" fill="#ffffff" stroke="#ffffff" xlink:href="#b"/>
</g>
<g clip-path="url(#a)">
<use x="826.813962" y="806.827385" fill="#ffffff" stroke="#ffffff" xlink:href="#b"/>
</g>
<g clip-path="url(#a)">
<use x="872.867116" y="806.827385" fill="#ffffff" stroke="#ffffff" xlink:href="#b"/>
</g>
<g clip-path="url(#a)">
<use x="964.973423" y="806.827385" fill="#ffffff" stroke="#ffffff" xlink:href="#b"/>
</g>
<g clip-path="url(#a)">
<use x="1011.026577" y="806.827385" fill="#ffffff" stroke="#ffffff" xlink:href="#b"/>
</g>
<g clip-path="url(#a)">
<use x="228.122966" y="806.827385" fill="#ffffff" stroke="#ffffff" xlink:href="#b"/>
</g>
<g clip-path="url(#a)">
<use x="297.202696" y="622.035428" fill="#ffffff" stroke="#ffffff" xlink:href="#b"/>
</g>
<g clip-path="url(#a)">
<use x="427.686631" y="434.672812" fill="#ffffff" stroke="#ffffff" xlink:href="#b"/>
</g>
<g clip-path="url(#a)">
<use x="366.282427" y="806.827385" fill="#ffffff" stroke="#ffffff" xlink:href="#b"/>
</g>
<g clip-path="url(#a)">
<use x="412.33558" y="806.827385" fill="#ffffff" stroke="#ffffff" xlink:href="#b"/>
</g>
<g clip-path="url(#a)">
<use x="504.441887" y="622.035428" fill="#ffffff" stroke="#ffffff" xlink:href="#b"/>
</g>
<g clip-path="url(#a)">
<use x="458.388734" y="806.827385" fill="#ffffff" stroke="#ffffff" xlink:href="#b"/>
</g>
<g clip-path="url(#a)">
<use x="504.441887" y="806.827385" fill="#ffffff" stroke="#ffffff" xlink:href="#b"/>
</g>
<g clip-path="url(#a)">
<use x="550.495041" y="806.827385" fill="#ffffff" stroke="#ffffff" xlink:href="#b"/>
</g>
<g clip-path="url(#a)">
<use x="274.17612" y="806.827385" fill="#ffffff" stroke="#ffffff" xlink:href="#b"/>
</g>
<g clip-path="url(#a)">
<use x="320.229273" y="806.827385" fill="#ffffff" stroke="#ffffff" xlink:href="#b"/>
</g>
<g clip-path="url(#a)">
<use x="89.963505" y="806.827385" fill="#ffffff" stroke="#ffffff" xlink:href="#b"/>
</g>
<g clip-path="url(#a)">
<use x="136.016659" y="806.827385" fill="#ffffff" stroke="#ffffff" xlink:href="#b"/>
</g>
<g clip-path="url(#a)">
<use x="182.069812" y="806.827385" fill="#ffffff" stroke="#ffffff" xlink:href="#b"/>
</g>
<g clip-path="url(#a)">
<use x="1371.77628" y="243.702388" fill="#808080" stroke="#808080" xlink:href="#b"/>
</g>
<g clip-path="url(#a)">
<use x="226.843712" y="48.380659" fill="#808080" stroke="#808080" xlink:href="#b"/>
</g>
<g clip-path="url(#a)">
<use x="596.548195" y="806.827385" fill="#ffffff" stroke="#ffffff" xlink:href="#b"/>
</g>
<g clip-path="url(#a)">
<use x="918.92027" y="806.827385" fill="#ffffff" stroke="#ffffff" xlink:href="#b"/>
</g>
<g clip-path="url(#a)">
<use x="1057.07973" y="806.827385" fill="#ffffff" stroke="#ffffff" xlink:href="#b"/>
</g>
<g clip-path="url(#a)">
<use x="1103.132884" y="806.827385" fill="#ffffff" stroke="#ffffff" xlink:href="#b"/>
</g>
<g clip-path="url(#a)">
<use x="1241.292345" y="806.827385" fill="#ffffff" stroke="#ffffff" xlink:href="#b"/>
</g>
<g clip-path="url(#a)">
<use x="1471.558113" y="806.827385" fill="#ffffff" stroke="#ffffff" xlink:href="#b"/>
</g>
<g clip-path="url(#a)">
<use x="1839.983341" y="806.827385" fill="#ffffff" stroke="#ffffff" xlink:href="#b"/>
</g>
<g clip-path="url(#a)">
<defs>
<path id="u" d="m44.281 53.078v-8.5q-3.7969 1.9531-7.9062 2.9219-4.0938 0.98438-8.5 0.98438-6.6875 0-10.031-2.0469t-3.3438-6.1562q0-3.125 2.3906-4.9062t9.625-3.3906l3.0781-0.6875q9.5625-2.0469 13.594-5.7812t4.0312-10.422q0-7.625-6.0312-12.078-6.0312-4.4375-16.578-4.4375-4.3906 0-9.1562 0.85938t-10.031 2.5625v9.2812q4.9844-2.5938 9.8125-3.8906 4.8281-1.2812 9.5781-1.2812 6.3438 0 9.75 2.1719 3.4219 2.1719 3.4219 6.125 0 3.6562-2.4688 5.6094-2.4531 1.9531-10.812 3.7656l-3.125 0.73438q-8.3438 1.75-12.062 5.3906-3.7031 3.6406-3.7031 9.9844 0 7.7188 5.4688 11.906 5.4688 4.2031 15.531 4.2031 4.9688 0 9.3594-0.73438 4.4062-0.71875 8.1094-2.1875z"/>
</defs>
<g transform="translate(83.939 994.38) scale(.1 -.1)">
<use xlink:href="#s"/>
<use x="68.408203" xlink:href="#u"/>
</g>
</g>
<g clip-path="url(#a)">
<defs>
<path id="r" d="m30.609 48.391q-7.2188 0-11.422-5.6406t-4.2031-15.453 4.1719-15.453q4.1875-5.6406 11.453-5.6406 7.1875 0 11.375 5.6562 4.2031 5.6719 4.2031 15.438 0 9.7188-4.2031 15.406-4.1875 5.6875-11.375 5.6875zm0 7.6094q11.719 0 18.406-7.625 6.7031-7.6094 6.7031-21.078 0-13.422-6.7031-21.078-6.6875-7.6406-18.406-7.6406-11.766 0-18.438 7.6406-6.6562 7.6562-6.6562 21.078 0 13.469 6.6562 21.078 6.6719 7.625 18.438 7.625z"/>
<path id="aq" d="m45.406 27.984q0 9.7656-4.0312 15.125-4.0156 5.375-11.297 5.375-7.2188 0-11.25-5.375-4.0312-5.3594-4.0312-15.125 0-9.7188 4.0312-15.094t11.25-5.375q7.2812 0 11.297 5.375 4.0312 5.375 4.0312 15.094zm8.9844-21.203q0-13.953-6.2031-20.766-6.1875-6.8125-18.984-6.8125-4.7344 0-8.9375 0.70312t-8.1562 2.1719v8.7344q3.9531-2.1406 7.8125-3.1562 3.8594-1.0312 7.8594-1.0312 8.8438 0 13.234 4.6094t4.3906 13.938v4.4531q-2.7812-4.8438-7.125-7.2344t-10.406-2.3906q-10.047 0-16.203 7.6562-6.1562 7.6719-6.1562 20.328 0 12.688 6.1562 20.344 6.1562 7.6719 16.203 7.6719 6.0625 0 10.406-2.3906t7.125-7.2188v8.2969h8.9844z"/>
</defs>
<g transform="translate(125.23 994.38) scale(.1 -.1)">
<use xlink:href="#g"/>
<use x="27.783203" xlink:href="#r"/>
<use x="88.964844" xlink:href="#e"/>
<use x="152.34375" xlink:href="#aq"/>
</g>
</g>
<g clip-path="url(#a)">
<g transform="translate(176.4 994.38) scale(.1 -.1)">
<use xlink:href="#h"/>
<use x="61.279297" xlink:href="#u"/>
</g>
</g>
<g clip-path="url(#a)">
<defs>
<path id="z" d="m9.8125 72.906h9.8594v-72.906h-9.8594z"/>
</defs>
<g transform="translate(226.65 994.38) scale(.1 -.1)">
<use xlink:href="#z"/>
</g>
</g>
<g clip-path="url(#a)">
<defs>
<path id="al" d="m48.781 52.594v-8.4062q-3.8125 2.1094-7.6406 3.1562t-7.7344 1.0469q-8.75 0-13.594-5.5469-4.8281-5.5312-4.8281-15.547t4.8281-15.562q4.8438-5.5312 13.594-5.5312 3.9062 0 7.7344 1.0469t7.6406 3.1562v-8.3125q-3.7656-1.75-7.7969-2.625-4.0156-0.89062-8.5625-0.89062-12.359 0-19.641 7.7656-7.2656 7.7656-7.2656 20.953 0 13.375 7.3438 21.031 7.3594 7.6719 20.156 7.6719 4.1406 0 8.0938-0.85938 3.9531-0.84375 7.6719-2.5469z"/>
<path id="ak" d="m8.5 21.578v33.109h8.9844v-32.766q0-7.7656 3.0156-11.656 3.0312-3.875 9.0938-3.875 7.2656 0 11.484 4.6406 4.2344 4.6406 4.2344 12.656v31h8.9844v-54.688h-8.9844v8.4062q-3.2656-4.9844-7.5938-7.4062-4.3125-2.4219-10.031-2.4219-9.4219 0-14.312 5.8594-4.875 5.8594-4.875 17.141z"/>
<path id="af" d="m45.406 46.391v29.594h8.9844v-75.984h-8.9844v8.2031q-2.8281-4.875-7.1562-7.25-4.3125-2.375-10.375-2.375-9.9062 0-16.141 7.9062-6.2188 7.9219-6.2188 20.812t6.2188 20.797q6.2344 7.9062 16.141 7.9062 6.0625 0 10.375-2.375 4.3281-2.3594 7.1562-7.2344zm-30.609-19.094q0-9.9062 4.0781-15.547t11.203-5.6406 11.219 5.6406q4.1094 5.6406 4.1094 15.547t-4.1094 15.547q-4.0938 5.6406-11.219 5.6406t-11.203-5.6406-4.0781-15.547z"/>
</defs>
<g transform="translate(260.64 994.38) scale(.1 -.1)">
<use xlink:href="#al"/>
<use x="54.980469" xlink:href="#r"/>
<use x="116.162109" xlink:href="#ak"/>
<use x="179.541016" xlink:href="#g"/>
<use x="207.324219" xlink:href="#af"/>
</g>
</g>
<g clip-path="url(#a)">
<defs>
<path id="aj" d="m32.172-5.0781q-3.7969-9.7656-7.4219-12.734-3.6094-2.9844-9.6562-2.9844h-7.1875v7.5156h5.2812q3.7031 0 5.75 1.7656 2.0625 1.75 4.5469 8.2969l1.6094 4.0938-22.109 53.812h9.5156l17.094-42.766 17.094 42.766h9.5156z"/>
</defs>
<g transform="translate(307.85 994.38) scale(.1 -.1)">
<use xlink:href="#af"/>
<use x="63.476562" xlink:href="#d"/>
<use x="125" xlink:href="#e"/>
<use x="188.378906" xlink:href="#aj"/>
</g>
</g>
<g clip-path="url(#a)">
<defs>
<path id="p" d="m18.312 70.219v-15.531h18.5v-6.9844h-18.5v-29.688q0-6.6875 1.8281-8.5938t7.4531-1.9062h9.2188v-7.5156h-9.2188q-10.406 0-14.359 3.875-3.9531 3.8906-3.9531 14.141v29.688h-6.5938v6.9844h6.5938v15.531z"/>
<path id="ad" d="m54.891 33.016v-33.016h-8.9844v32.719q0 7.7656-3.0312 11.609-3.0312 3.8594-9.0781 3.8594-7.2812 0-11.484-4.6406-4.2031-4.625-4.2031-12.641v-30.906h-9.0312v75.984h9.0312v-29.797q3.2344 4.9375 7.5938 7.375 4.375 2.4375 10.094 2.4375 9.4219 0 14.25-5.8281 4.8438-5.8281 4.8438-17.156z"/>
</defs>
<g transform="translate(358.08 994.38) scale(.1 -.1)">
<use xlink:href="#p"/>
<use x="39.208984" xlink:href="#ad"/>
<use x="102.587891" xlink:href="#d"/>
</g>
</g>
<g clip-path="url(#a)">
<g transform="translate(396.44 994.38) scale(.1 -.1)">
<use xlink:href="#k"/>
<use x="41.082031" xlink:href="#d"/>
<use x="102.605469" xlink:href="#h"/>
<use x="163.884766" xlink:href="#g"/>
<use x="191.667969" xlink:href="#i"/>
<use x="219.451172" xlink:href="#p"/>
<use x="258.660156" xlink:href="#aj"/>
</g>
</g>
<g clip-path="url(#a)">
<defs>
<path id="ae" d="m37.109 75.984v-7.4844h-8.5938q-4.8281 0-6.7188-1.9531-1.875-1.9531-1.875-7.0312v-4.8281h14.797v-6.9844h-14.797v-47.703h-9.0312v47.703h-8.5938v6.9844h8.5938v3.8125q0 9.125 4.25 13.297 4.25 4.1875 13.469 4.1875z"/>
</defs>
<g transform="translate(453.57 994.38) scale(.1 -.1)">
<use xlink:href="#r"/>
<use x="61.181641" xlink:href="#ae"/>
</g>
</g>
<g clip-path="url(#a)">
<g transform="translate(496.24 994.38) scale(.1 -.1)">
<use xlink:href="#p"/>
<use x="39.208984" xlink:href="#ad"/>
<use x="102.587891" xlink:href="#d"/>
</g>
</g>
<g clip-path="url(#a)">
<defs>
<path id="ar" d="m48.688 27.297q0 9.9062-4.0781 15.547t-11.203 5.6406q-7.1406 0-11.219-5.6406t-4.0781-15.547 4.0781-15.547 11.219-5.6406q7.125 0 11.203 5.6406t4.0781 15.547zm-30.578 19.094q2.8438 4.875 7.1562 7.2344 4.3281 2.375 10.328 2.375 9.9688 0 16.188-7.9062 6.2344-7.9062 6.2344-20.797t-6.2344-20.812q-6.2188-7.9062-16.188-7.9062-6 0-10.328 2.375-4.3125 2.375-7.1562 7.25v-8.2031h-9.0312v75.984h9.0312z"/>
</defs>
<g transform="translate(528.7 994.38) scale(.1 -.1)">
<use xlink:href="#ar"/>
<use x="63.476562" xlink:href="#ak"/>
<use x="126.855469" xlink:href="#u"/>
<use x="178.955078" xlink:href="#i"/>
<use x="206.738281" xlink:href="#e"/>
<use x="270.117188" xlink:href="#d"/>
<use x="331.640625" xlink:href="#u"/>
<use x="383.740234" xlink:href="#u"/>
</g>
</g>
<g clip-path="url(#a)">
<defs>
<path id="an" d="m11.719 12.406h10.297v-8.4062l-8-15.625h-6.2969l4 15.625z"/>
</defs>
<g transform="translate(594.96 994.38) scale(.1 -.1)">
<use xlink:href="#an"/>
</g>
</g>
<g clip-path="url(#a)">
<g transform="translate(641.13 994.38) scale(.1 -.1)">
<use xlink:href="#z"/>
</g>
</g>
<g clip-path="url(#a)">
<g transform="translate(667.11 994.38) scale(.1 -.1)">
<use xlink:href="#al"/>
<use x="54.980469" xlink:href="#r"/>
<use x="116.162109" xlink:href="#e"/>
<use x="179.541016" xlink:href="#ae"/>
<use x="214.746094" xlink:href="#i"/>
<use x="242.529297" xlink:href="#e"/>
<use x="305.908203" xlink:href="#d"/>
<use x="367.431641" xlink:href="#af"/>
</g>
</g>
<g clip-path="url(#a)">
<g transform="translate(718.05 994.38) scale(.1 -.1)">
<use xlink:href="#j"/>
<use x="97.412109" xlink:href="#aj"/>
<use x="156.591797" xlink:href="#u"/>
<use x="208.691406" xlink:href="#d"/>
<use x="270.214844" xlink:href="#g"/>
<use x="297.998047" xlink:href="#ae"/>
</g>
</g>
<g clip-path="url(#a)">
<g transform="translate(775.74 994.38) scale(.1 -.1)">
<use xlink:href="#p"/>
<use x="39.208984" xlink:href="#r"/>
</g>
</g>
<g clip-path="url(#a)">
<g transform="translate(823.75 994.38) scale(.1 -.1)">
<use xlink:href="#h"/>
</g>
</g>
<g clip-path="url(#a)">
<g transform="translate(864.69 994.38) scale(.1 -.1)">
<use xlink:href="#ae"/>
<use x="35.205078" xlink:href="#g"/>
<use x="62.988281" xlink:href="#h"/>
<use x="124.267578" xlink:href="#p"/>
</g>
</g>
<g clip-path="url(#a)">
<defs>
<path id="at" d="m18.797 48.875h-10.297v8.4531l8 15.578h6.2969l-4-15.578zm20.016 0h-10.297v8.4531l8.0156 15.578h6.2969l-4.0156-15.578z"/>
</defs>
<g transform="translate(916.33 994.38) scale(.1 -.1)">
<use xlink:href="#at"/>
</g>
</g>
<g clip-path="url(#a)">
<g transform="translate(958.75 994.38) scale(.1 -.1)">
<use xlink:href="#e"/>
<use x="63.378906" xlink:href="#r"/>
</g>
</g>
<g clip-path="url(#a)">
<g transform="translate(987.27 994.38) scale(.1 -.1)">
<use xlink:href="#al"/>
<use x="54.980469" xlink:href="#r"/>
<use x="116.162109" xlink:href="#j"/>
<use x="213.574219" xlink:href="#j"/>
<use x="310.986328" xlink:href="#d"/>
<use x="372.509766" xlink:href="#e"/>
<use x="435.888672" xlink:href="#p"/>
</g>
</g>
<g clip-path="url(#a)">
<defs>
<path id="f" d="m10.688 12.406h10.312v-12.406h-10.312z"/>
</defs>
<g transform="translate(1055.5 994.38) scale(.1 -.1)">
<use xlink:href="#f"/>
</g>
</g>
<g clip-path="url(#a)">
<defs>
<path id="as" d="m12.5 72.906h10.297v-8.4062l-8-15.625h-6.2969l4 15.625zm20.016 0h10.312v-8.4062l-8.0156-15.625h-6.2969l4 15.625z"/>
</defs>
<g transform="translate(1100.5 994.38) scale(.1 -.1)">
<use xlink:href="#as"/>
</g>
</g>
<g clip-path="url(#a)">
<defs>
<path id="av" d="m19.672 34.812v-26.703h15.828q7.9531 0 11.781 3.2969 3.8438 3.2969 3.8438 10.078 0 6.8438-3.8438 10.078-3.8281 3.25-11.781 3.25zm0 29.984v-21.969h14.609q7.2188 0 10.75 2.7031 3.5469 2.7188 3.5469 8.2812 0 5.5156-3.5469 8.25-3.5312 2.7344-10.75 2.7344zm-9.8594 8.1094h25.203q11.281 0 17.375-4.6875 6.1094-4.6875 6.1094-13.328 0-6.7031-3.125-10.656t-9.1875-4.9219q7.2812-1.5625 11.312-6.5312 4.0312-4.9531 4.0312-12.375 0-9.7656-6.6406-15.094-6.6406-5.3125-18.906-5.3125h-26.172z"/>
</defs>
<g transform="translate(1140.6 994.38) scale(.1 -.1)">
<use xlink:href="#av"/>
<use x="68.603516" xlink:href="#ak"/>
<use x="131.982422" xlink:href="#p"/>
</g>
</g>
<g clip-path="url(#a)">
<g transform="translate(1183.3 994.38) scale(.1 -.1)">
<use xlink:href="#u"/>
<use x="52.099609" xlink:href="#r"/>
<use x="113.28125" xlink:href="#r"/>
<use x="174.462891" xlink:href="#e"/>
</g>
</g>
<g clip-path="url(#a)">
<g transform="translate(1239.7 994.38) scale(.1 -.1)">
<use xlink:href="#an"/>
</g>
</g>
<g clip-path="url(#a)">
<defs>
<path id="ap" d="m18.109 8.2031v-29h-9.0312v75.484h9.0312v-8.2969q2.8438 4.875 7.1562 7.2344 4.3281 2.375 10.328 2.375 9.9688 0 16.188-7.9062 6.2344-7.9062 6.2344-20.797t-6.2344-20.812q-6.2188-7.9062-16.188-7.9062-6 0-10.328 2.375-4.3125 2.375-7.1562 7.25zm30.578 19.094q0 9.9062-4.0781 15.547t-11.203 5.6406q-7.1406 0-11.219-5.6406t-4.0781-15.547 4.0781-15.547 11.219-5.6406q7.125 0 11.203 5.6406t4.0781 15.547z"/>
</defs>
<g transform="translate(1270.2 994.38) scale(.1 -.1)">
<use xlink:href="#ap"/>
<use x="63.476562" xlink:href="#i"/>
<use x="91.259766" xlink:href="#e"/>
<use x="154.638672" xlink:href="#e"/>
<use x="218.017578" xlink:href="#d"/>
<use x="279.541016" xlink:href="#af"/>
</g>
</g>
<g clip-path="url(#a)">
<g transform="translate(1328.4 994.38) scale(.1 -.1)">
<use xlink:href="#p"/>
<use x="39.208984" xlink:href="#r"/>
</g>
</g>
<g clip-path="url(#a)">
<g transform="translate(1371.2 994.38) scale(.1 -.1)">
<use xlink:href="#p"/>
<use x="39.208984" xlink:href="#ad"/>
<use x="102.587891" xlink:href="#d"/>
</g>
</g>
<g clip-path="url(#a)">
<defs>
<path id="ax" d="m4.2031 54.688h8.9844l11.234-42.672 11.172 42.672h10.594l11.234-42.672 11.188 42.672h8.9844l-14.312-54.688h-10.594l-11.766 44.828-11.812-44.828h-10.609z"/>
</defs>
<g transform="translate(1415.6 994.38) scale(.1 -.1)">
<use xlink:href="#ax"/>
<use x="81.787109" xlink:href="#h"/>
<use x="143.066406" xlink:href="#g"/>
<use x="170.849609" xlink:href="#g"/>
</g>
</g>
<g clip-path="url(#a)">
<g transform="translate(1470 994.38) scale(.1 -.1)">
<use xlink:href="#an"/>
</g>
</g>
<g clip-path="url(#a)">
<g transform="translate(1516.1 994.38) scale(.1 -.1)">
<use xlink:href="#z"/>
</g>
</g>
<g clip-path="url(#a)">
<g transform="translate(1554.3 994.38) scale(.1 -.1)">
<use xlink:href="#ad"/>
<use x="63.378906" xlink:href="#h"/>
<use x="124.658203" xlink:href="#af"/>
</g>
</g>
<g clip-path="url(#a)">
<g transform="translate(1604.7 994.38) scale(.1 -.1)">
<use xlink:href="#p"/>
<use x="39.208984" xlink:href="#r"/>
</g>
</g>
<g clip-path="url(#a)">
<defs>
<path id="aw" d="m54.891 54.688-19.781-26.609 20.797-28.078h-10.594l-15.922 21.484-15.906-21.484h-10.609l21.25 28.609-19.438 26.078h10.594l14.5-19.484 14.5 19.484z"/>
</defs>
<g transform="translate(1637.6 994.38) scale(.1 -.1)">
<use xlink:href="#d"/>
<use x="61.507812" xlink:href="#aw"/>
<use x="120.6875" xlink:href="#ap"/>
<use x="184.164062" xlink:href="#g"/>
<use x="211.947266" xlink:href="#h"/>
<use x="273.226562" xlink:href="#i"/>
<use x="301.009766" xlink:href="#e"/>
</g>
</g>
<g clip-path="url(#a)">
<g transform="translate(1685.2 994.38) scale(.1 -.1)">
<use xlink:href="#j"/>
<use x="97.412109" xlink:href="#aj"/>
<use x="156.591797" xlink:href="#u"/>
<use x="208.691406" xlink:href="#d"/>
<use x="270.214844" xlink:href="#g"/>
<use x="297.998047" xlink:href="#ae"/>
</g>
</g>
<g clip-path="url(#a)">
<g transform="translate(1728.5 994.38) scale(.1 -.1)">
<use xlink:href="#u"/>
<use x="52.099609" xlink:href="#p"/>
<use x="91.308594" xlink:href="#k"/>
<use x="132.421875" xlink:href="#h"/>
<use x="193.701172" xlink:href="#i"/>
<use x="221.484375" xlink:href="#aq"/>
<use x="284.960938" xlink:href="#ad"/>
<use x="348.339844" xlink:href="#p"/>
</g>
</g>
<g clip-path="url(#a)">
<g transform="translate(1785.7 994.38) scale(.1 -.1)">
<use xlink:href="#r"/>
<use x="61.181641" xlink:href="#ak"/>
<use x="124.560547" xlink:href="#p"/>
</g>
</g>
<g clip-path="url(#a)">
<g transform="translate(1838.4 994.38) scale(.1 -.1)">
<use xlink:href="#f"/>
</g>
</g>
<g clip-path="url(#a)">
<defs>
<path id="c" d="m12.406 8.2969h16.109v55.625l-17.531-3.5156v8.9844l17.438 3.5156h9.8594v-64.609h16.109v-8.2969h-41.984z"/>
</defs>
<g transform="translate(941.41 51.14) scale(.1 -.1)">
<use xlink:href="#c"/>
<use x="63.623047" xlink:href="#f"/>
<use x="95.410156" xlink:href="#c"/>
</g>
</g>
<g clip-path="url(#a)">
<defs>
<path id="q" d="m19.188 8.2969h34.422v-8.2969h-46.281v8.2969q5.6094 5.8125 15.297 15.594 9.7031 9.7969 12.188 12.641 4.7344 5.3125 6.6094 9 1.8906 3.6875 1.8906 7.25 0 5.8125-4.0781 9.4688-4.0781 3.6719-10.625 3.6719-4.6406 0-9.7969-1.6094-5.1406-1.6094-11-4.8906v9.9688q5.9531 2.3906 11.125 3.6094 5.1875 1.2188 9.4844 1.2188 11.328 0 18.062-5.6719 6.7344-5.6562 6.7344-15.125 0-4.5-1.6875-8.5312-1.6719-4.0156-6.125-9.4844-1.2188-1.4219-7.7656-8.1875-6.5312-6.7656-18.453-18.922z"/>
</defs>
<g transform="translate(128.07 624.79) scale(.1 -.1)">
<use xlink:href="#c"/>
<use x="63.623047" xlink:href="#f"/>
<use x="95.410156" xlink:href="#q"/>
</g>
</g>
<g clip-path="url(#a)">
<defs>
<path id="o" d="m40.578 39.312q7.0781-1.5156 11.047-6.3125 3.9844-4.7812 3.9844-11.812 0-10.781-7.4219-16.703-7.4219-5.9062-21.094-5.9062-4.5781 0-9.4375 0.90625t-10.031 2.7188v9.5156q4.0938-2.3906 8.9688-3.6094 4.8906-1.2188 10.219-1.2188 9.2656 0 14.125 3.6562t4.8594 10.641q0 6.4531-4.5156 10.078-4.5156 3.6406-12.562 3.6406h-8.5v8.1094h8.8906q7.2656 0 11.125 2.9062t3.8594 8.375q0 5.6094-3.9844 8.6094-3.9688 3.0156-11.391 3.0156-4.0625 0-8.7031-0.89062-4.6406-0.875-10.203-2.7188v8.7812q5.625 1.5625 10.531 2.3438t9.25 0.78125q11.234 0 17.766-5.1094 6.5469-5.0938 6.5469-13.781 0-6.0625-3.4688-10.234t-9.8594-5.7812z"/>
</defs>
<g transform="translate(309.72 246.46) scale(.1 -.1)">
<use xlink:href="#c"/>
<use x="63.623047" xlink:href="#f"/>
<use x="95.410156" xlink:href="#o"/>
</g>
</g>
<g clip-path="url(#a)">
<defs>
<path id="n" d="m10.797 72.906h38.719v-8.3125h-29.688v-17.859q2.1406 0.73438 4.2812 1.0938 2.1562 0.35938 4.3125 0.35938 12.203 0 19.328-6.6875 7.1406-6.6875 7.1406-18.109 0-11.766-7.3281-18.297-7.3281-6.5156-20.656-6.5156-4.5938 0-9.3594 0.78125-4.75 0.78125-9.8281 2.3438v9.9219q4.3906-2.3906 9.0781-3.5625t9.9062-1.1719q8.4531 0 13.375 4.4375 4.9375 4.4375 4.9375 12.062 0 7.6094-4.9375 12.047-4.9219 4.4531-13.375 4.4531-3.9531 0-7.8906-0.875-3.9219-0.875-8.0156-2.7344z"/>
</defs>
<g transform="translate(732.51 437.43) scale(.1 -.1)">
<use xlink:href="#c"/>
<use x="63.623047" xlink:href="#f"/>
<use x="95.410156" xlink:href="#n"/>
</g>
</g>
<g clip-path="url(#a)">
<defs>
<path id="aa" d="m33.016 40.375q-6.6406 0-10.531-4.5469-3.875-4.5312-3.875-12.438 0-7.8594 3.875-12.438 3.8906-4.5625 10.531-4.5625t10.516 4.5625q3.875 4.5781 3.875 12.438 0 7.9062-3.875 12.438-3.875 4.5469-10.516 4.5469zm19.578 30.922v-8.9844q-3.7188 1.75-7.5 2.6719-3.7812 0.9375-7.5 0.9375-9.7656 0-14.922-6.5938-5.1406-6.5938-5.875-19.922 2.875 4.25 7.2188 6.5156 4.3594 2.2656 9.5781 2.2656 10.984 0 17.359-6.6719 6.375-6.6562 6.375-18.125 0-11.234-6.6406-18.031-6.6406-6.7812-17.672-6.7812-12.656 0-19.344 9.6875-6.6875 9.7031-6.6875 28.109 0 17.281 8.2031 27.562t22.016 10.281q3.7188 0 7.5-0.73438t7.8906-2.1875z"/>
</defs>
<g transform="translate(1141.2 809.59) scale(.1 -.1)">
<use xlink:href="#c"/>
<use x="63.623047" xlink:href="#f"/>
<use x="95.410156" xlink:href="#aa"/>
</g>
</g>
<g clip-path="url(#a)">
<defs>
<path id="ac" d="m8.2031 72.906h46.875v-4.2031l-26.469-68.703h-10.297l24.906 64.594h-35.016z"/>
</defs>
<g transform="translate(1586.4 437.43) scale(.1 -.1)">
<use xlink:href="#c"/>
<use x="63.623047" xlink:href="#f"/>
<use x="95.410156" xlink:href="#ac"/>
</g>
</g>
<g clip-path="url(#a)">
<defs>
<path id="ah" d="m10.984 1.5156v8.9844q3.7188-1.7656 7.5156-2.6875 3.8125-0.92188 7.4844-0.92188 9.7656 0 14.906 6.5625 5.1562 6.5625 5.8906 19.953-2.8281-4.2031-7.1875-6.4531-4.3438-2.25-9.6094-2.25-10.938 0-17.312 6.6094-6.375 6.625-6.375 18.109 0 11.219 6.6406 18 6.6406 6.7969 17.672 6.7969 12.656 0 19.312-9.7031 6.6719-9.6875 6.6719-28.141 0-17.234-8.1875-27.516-8.1719-10.281-21.984-10.281-3.7188 0-7.5312 0.73438-3.7969 0.73438-7.9062 2.2031zm19.625 30.906q6.6406 0 10.516 4.5312 3.8906 4.5469 3.8906 12.469 0 7.8594-3.8906 12.422-3.875 4.5625-10.516 4.5625t-10.516-4.5625-3.875-12.422q0-7.9219 3.875-12.469 3.875-4.5312 10.516-4.5312z"/>
</defs>
<g transform="translate(1550 624.79) scale(.1 -.1)">
<use xlink:href="#c"/>
<use x="63.623047" xlink:href="#f"/>
<use x="95.410156" xlink:href="#ah"/>
</g>
</g>
<g clip-path="url(#a)">
<defs>
<path id="au" d="m9.8125 72.906h14.703l18.594-49.609 18.703 49.609h14.703v-72.906h-9.625v64.016l-18.797-50h-9.9062l-18.797 50v-64.016h-9.5781z"/>
</defs>
<g transform="translate(1865 994.38) scale(.1 -.1)">
<use xlink:href="#z"/>
<use x="29.492188" xlink:href="#au"/>
<use x="115.771484" xlink:href="#ab"/>
<use x="176.074219" xlink:href="#w"/>
<use x="231.787109" xlink:href="#z"/>
<use x="261.279297" xlink:href="#x"/>
<use x="331.103516" xlink:href="#z"/>
<use x="360.595703" xlink:href="#l"/>
</g>
</g>
<g clip-path="url(#a)">
<g transform="translate(1345.3 809.59) scale(.1 -.1)">
<use xlink:href="#c"/>
<use x="63.623047" xlink:href="#f"/>
<use x="95.410156" xlink:href="#c"/>
<use x="159.033203" xlink:href="#o"/>
</g>
</g>
<g clip-path="url(#a)">
<defs>
<path id="m" d="m37.797 64.312-24.906-38.922h24.906zm-2.5938 8.5938h12.406v-47.516h10.406v-8.2031h-10.406v-17.188h-9.8125v17.188h-32.906v9.5156z"/>
</defs>
<g transform="translate(1184.1 809.59) scale(.1 -.1)">
<use xlink:href="#c"/>
<use x="63.623047" xlink:href="#f"/>
<use x="95.410156" xlink:href="#c"/>
<use x="159.033203" xlink:href="#m"/>
</g>
</g>
<g clip-path="url(#a)">
<g transform="translate(1506.5 809.59) scale(.1 -.1)">
<use xlink:href="#c"/>
<use x="63.623047" xlink:href="#f"/>
<use x="95.410156" xlink:href="#c"/>
<use x="159.033203" xlink:href="#n"/>
</g>
</g>
<g clip-path="url(#a)">
<g transform="translate(1637 624.79) scale(.1 -.1)">
<use xlink:href="#c"/>
<use x="63.623047" xlink:href="#f"/>
<use x="95.410156" xlink:href="#c"/>
<use x="159.033203" xlink:href="#aa"/>
</g>
</g>
<g clip-path="url(#a)">
<g transform="translate(1759.8 809.59) scale(.1 -.1)">
<use xlink:href="#c"/>
<use x="63.623047" xlink:href="#f"/>
<use x="95.410156" xlink:href="#c"/>
<use x="159.033203" xlink:href="#ac"/>
</g>
</g>
<g clip-path="url(#a)">
<defs>
<path id="am" d="m31.781 34.625q-7.0312 0-11.062-3.7656-4.0156-3.7656-4.0156-10.344 0-6.5938 4.0156-10.359 4.0312-3.7656 11.062-3.7656t11.078 3.7812q4.0625 3.7969 4.0625 10.344 0 6.5781-4.0312 10.344-4.0156 3.7656-11.109 3.7656zm-9.8594 4.1875q-6.3438 1.5625-9.8906 5.9062-3.5312 4.3594-3.5312 10.609 0 8.7344 6.2188 13.812 6.2344 5.0781 17.062 5.0781 10.891 0 17.094-5.0781t6.2031-13.812q0-6.25-3.5469-10.609-3.5312-4.3438-9.8281-5.9062 7.125-1.6562 11.094-6.5 3.9844-4.8281 3.9844-11.797 0-10.609-6.4688-16.281-6.4688-5.6562-18.531-5.6562-12.047 0-18.531 5.6562-6.4688 5.6719-6.4688 16.281 0 6.9688 4 11.797 4.0156 4.8438 11.141 6.5zm-3.6094 15.578q0-5.6562 3.5312-8.8281 3.5469-3.1719 9.9375-3.1719 6.3594 0 9.9375 3.1719 3.5938 3.1719 3.5938 8.8281 0 5.6719-3.5938 8.8438-3.5781 3.1719-9.9375 3.1719-6.3906 0-9.9375-3.1719-3.5312-3.1719-3.5312-8.8438z"/>
</defs>
<g transform="translate(1575.6 809.59) scale(.1 -.1)">
<use xlink:href="#c"/>
<use x="63.623047" xlink:href="#f"/>
<use x="95.410156" xlink:href="#c"/>
<use x="159.033203" xlink:href="#am"/>
</g>
</g>
<g clip-path="url(#a)">
<g transform="translate(1644.6 809.59) scale(.1 -.1)">
<use xlink:href="#c"/>
<use x="63.623047" xlink:href="#f"/>
<use x="95.410156" xlink:href="#c"/>
<use x="159.033203" xlink:href="#ah"/>
</g>
</g>
<g clip-path="url(#a)">
<defs>
<path id="ai" d="m31.781 66.406q-7.6094 0-11.453-7.5-3.8281-7.4844-3.8281-22.531 0-14.984 3.8281-22.484 3.8438-7.5 11.453-7.5 7.6719 0 11.5 7.5 3.8438 7.5 3.8438 22.484 0 15.047-3.8438 22.531-3.8281 7.5-11.5 7.5zm0 7.8125q12.266 0 18.734-9.7031 6.4688-9.6875 6.4688-28.141 0-18.406-6.4688-28.109-6.4688-9.6875-18.734-9.6875-12.25 0-18.719 9.6875-6.4688 9.7031-6.4688 28.109 0 18.453 6.4688 28.141 6.4688 9.7031 18.719 9.7031z"/>
</defs>
<g transform="translate(1690.7 809.59) scale(.1 -.1)">
<use xlink:href="#c"/>
<use x="63.623047" xlink:href="#f"/>
<use x="95.410156" xlink:href="#q"/>
<use x="159.033203" xlink:href="#ai"/>
</g>
</g>
<g clip-path="url(#a)">
<g transform="translate(631.47 809.59) scale(.1 -.1)">
<use xlink:href="#c"/>
<use x="63.623047" xlink:href="#f"/>
<use x="95.410156" xlink:href="#q"/>
<use x="159.033203" xlink:href="#c"/>
</g>
</g>
<g clip-path="url(#a)">
<g transform="translate(677.52 809.59) scale(.1 -.1)">
<use xlink:href="#c"/>
<use x="63.623047" xlink:href="#f"/>
<use x="95.410156" xlink:href="#q"/>
<use x="159.033203" xlink:href="#q"/>
</g>
</g>
<g clip-path="url(#a)">
<g transform="translate(723.57 809.59) scale(.1 -.1)">
<use xlink:href="#c"/>
<use x="63.623047" xlink:href="#f"/>
<use x="95.410156" xlink:href="#q"/>
<use x="159.033203" xlink:href="#o"/>
</g>
</g>
<g clip-path="url(#a)">
<g transform="translate(884.76 624.79) scale(.1 -.1)">
<use xlink:href="#c"/>
<use x="63.623047" xlink:href="#f"/>
<use x="95.410156" xlink:href="#q"/>
<use x="159.033203" xlink:href="#m"/>
</g>
</g>
<g clip-path="url(#a)">
<g transform="translate(769.63 809.59) scale(.1 -.1)">
<use xlink:href="#c"/>
<use x="63.623047" xlink:href="#f"/>
<use x="95.410156" xlink:href="#q"/>
<use x="159.033203" xlink:href="#n"/>
</g>
</g>
<g clip-path="url(#a)">
<g transform="translate(815.68 809.59) scale(.1 -.1)">
<use xlink:href="#c"/>
<use x="63.623047" xlink:href="#f"/>
<use x="95.410156" xlink:href="#q"/>
<use x="159.033203" xlink:href="#aa"/>
</g>
</g>
<g clip-path="url(#a)">
<g transform="translate(861.73 809.59) scale(.1 -.1)">
<use xlink:href="#c"/>
<use x="63.623047" xlink:href="#f"/>
<use x="95.410156" xlink:href="#q"/>
<use x="159.033203" xlink:href="#ac"/>
</g>
</g>
<g clip-path="url(#a)">
<g transform="translate(953.84 809.59) scale(.1 -.1)">
<use xlink:href="#c"/>
<use x="63.623047" xlink:href="#f"/>
<use x="95.410156" xlink:href="#o"/>
<use x="159.033203" xlink:href="#ai"/>
</g>
</g>
<g clip-path="url(#a)">
<g transform="translate(999.89 809.59) scale(.1 -.1)">
<use xlink:href="#c"/>
<use x="63.623047" xlink:href="#f"/>
<use x="95.410156" xlink:href="#o"/>
<use x="159.033203" xlink:href="#c"/>
</g>
</g>
<g clip-path="url(#a)">
<g transform="translate(216.99 809.59) scale(.1 -.1)">
<use xlink:href="#c"/>
<use x="63.623047" xlink:href="#f"/>
<use x="95.410156" xlink:href="#o"/>
<use x="159.033203" xlink:href="#m"/>
</g>
</g>
<g clip-path="url(#a)">
<g transform="translate(286.07 624.79) scale(.1 -.1)">
<use xlink:href="#c"/>
<use x="63.623047" xlink:href="#f"/>
<use x="95.410156" xlink:href="#o"/>
<use x="159.033203" xlink:href="#n"/>
</g>
</g>
<g clip-path="url(#a)">
<g transform="translate(416.55 437.43) scale(.1 -.1)">
<use xlink:href="#c"/>
<use x="63.623047" xlink:href="#f"/>
<use x="95.410156" xlink:href="#o"/>
<use x="159.033203" xlink:href="#aa"/>
</g>
</g>
<g clip-path="url(#a)">
<g transform="translate(355.15 809.59) scale(.1 -.1)">
<use xlink:href="#c"/>
<use x="63.623047" xlink:href="#f"/>
<use x="95.410156" xlink:href="#o"/>
<use x="159.033203" xlink:href="#ac"/>
</g>
</g>
<g clip-path="url(#a)">
<g transform="translate(401.2 809.59) scale(.1 -.1)">
<use xlink:href="#c"/>
<use x="63.623047" xlink:href="#f"/>
<use x="95.410156" xlink:href="#o"/>
<use x="159.033203" xlink:href="#am"/>
</g>
</g>
<g clip-path="url(#a)">
<g transform="translate(493.31 624.79) scale(.1 -.1)">
<use xlink:href="#c"/>
<use x="63.623047" xlink:href="#f"/>
<use x="95.410156" xlink:href="#o"/>
<use x="159.033203" xlink:href="#ah"/>
</g>
</g>
<g clip-path="url(#a)">
<g transform="translate(447.26 809.59) scale(.1 -.1)">
<use xlink:href="#c"/>
<use x="63.623047" xlink:href="#f"/>
<use x="95.410156" xlink:href="#m"/>
<use x="159.033203" xlink:href="#ai"/>
</g>
</g>
<g clip-path="url(#a)">
<g transform="translate(493.31 809.59) scale(.1 -.1)">
<use xlink:href="#c"/>
<use x="63.623047" xlink:href="#f"/>
<use x="95.410156" xlink:href="#m"/>
<use x="159.033203" xlink:href="#c"/>
</g>
</g>
<g clip-path="url(#a)">
<g transform="translate(539.36 809.59) scale(.1 -.1)">
<use xlink:href="#c"/>
<use x="63.623047" xlink:href="#f"/>
<use x="95.410156" xlink:href="#m"/>
<use x="159.033203" xlink:href="#q"/>
</g>
</g>
<g clip-path="url(#a)">
<g transform="translate(263.04 809.59) scale(.1 -.1)">
<use xlink:href="#c"/>
<use x="63.623047" xlink:href="#f"/>
<use x="95.410156" xlink:href="#m"/>
<use x="159.033203" xlink:href="#o"/>
</g>
</g>
<g clip-path="url(#a)">
<g transform="translate(309.1 809.59) scale(.1 -.1)">
<use xlink:href="#c"/>
<use x="63.623047" xlink:href="#f"/>
<use x="95.410156" xlink:href="#m"/>
<use x="159.033203" xlink:href="#m"/>
</g>
</g>
<g clip-path="url(#a)">
<g transform="translate(78.831 809.59) scale(.1 -.1)">
<use xlink:href="#c"/>
<use x="63.623047" xlink:href="#f"/>
<use x="95.410156" xlink:href="#m"/>
<use x="159.033203" xlink:href="#n"/>
</g>
</g>
<g clip-path="url(#a)">
<g transform="translate(124.88 809.59) scale(.1 -.1)">
<use xlink:href="#c"/>
<use x="63.623047" xlink:href="#f"/>
<use x="95.410156" xlink:href="#m"/>
<use x="159.033203" xlink:href="#aa"/>
</g>
</g>
<g clip-path="url(#a)">
<g transform="translate(170.94 809.59) scale(.1 -.1)">
<use xlink:href="#c"/>
<use x="63.623047" xlink:href="#f"/>
<use x="95.410156" xlink:href="#m"/>
<use x="159.033203" xlink:href="#ac"/>
</g>
</g>
<g clip-path="url(#a)">
<g transform="translate(1360.6 246.46) scale(.1 -.1)">
<use xlink:href="#c"/>
<use x="63.623047" xlink:href="#f"/>
<use x="95.410156" xlink:href="#m"/>
<use x="159.033203" xlink:href="#am"/>
</g>
</g>
<g clip-path="url(#a)">
<g transform="translate(215.71 51.14) scale(.1 -.1)">
<use xlink:href="#c"/>
<use x="63.623047" xlink:href="#f"/>
<use x="95.410156" xlink:href="#m"/>
<use x="159.033203" xlink:href="#ah"/>
</g>
</g>
<g clip-path="url(#a)">
<g transform="translate(585.42 809.59) scale(.1 -.1)">
<use xlink:href="#c"/>
<use x="63.623047" xlink:href="#f"/>
<use x="95.410156" xlink:href="#n"/>
<use x="159.033203" xlink:href="#ai"/>
</g>
</g>
<g clip-path="url(#a)">
<g transform="translate(907.79 809.59) scale(.1 -.1)">
<use xlink:href="#c"/>
<use x="63.623047" xlink:href="#f"/>
<use x="95.410156" xlink:href="#n"/>
<use x="159.033203" xlink:href="#c"/>
</g>
</g>
<g clip-path="url(#a)">
<g transform="translate(1045.9 809.59) scale(.1 -.1)">
<use xlink:href="#c"/>
<use x="63.623047" xlink:href="#f"/>
<use x="95.410156" xlink:href="#n"/>
<use x="159.033203" xlink:href="#q"/>
</g>
</g>
<g clip-path="url(#a)">
<g transform="translate(1092 809.59) scale(.1 -.1)">
<use xlink:href="#c"/>
<use x="63.623047" xlink:href="#f"/>
<use x="95.410156" xlink:href="#n"/>
<use x="159.033203" xlink:href="#o"/>
</g>
</g>
<g clip-path="url(#a)">
<g transform="translate(1230.2 809.59) scale(.1 -.1)">
<use xlink:href="#c"/>
<use x="63.623047" xlink:href="#f"/>
<use x="95.410156" xlink:href="#n"/>
<use x="159.033203" xlink:href="#m"/>
</g>
</g>
<g clip-path="url(#a)">
<g transform="translate(1460.4 809.59) scale(.1 -.1)">
<use xlink:href="#c"/>
<use x="63.623047" xlink:href="#f"/>
<use x="95.410156" xlink:href="#n"/>
<use x="159.033203" xlink:href="#n"/>
</g>
</g>
<g clip-path="url(#a)">
<g transform="translate(1828.9 809.59) scale(.1 -.1)">
<use xlink:href="#c"/>
<use x="63.623047" xlink:href="#f"/>
<use x="95.410156" xlink:href="#n"/>
<use x="159.033203" xlink:href="#aa"/>
</g>
</g>
<defs>
<clipPath id="a">
<rect width="1976" height="1040"/>
</clipPath>
</defs>
</svg>
