<?xml version="1.0" encoding="UTF-8"?>
<!DOCTYPE svg  PUBLIC '-//W3C//DTD SVG 1.1//EN'  'http://www.w3.org/Graphics/SVG/1.1/DTD/svg11.dtd'>
<svg width="1672pt" height="880pt" version="1.1" viewBox="0 0 1672 880" xmlns="http://www.w3.org/2000/svg" xmlns:xlink="http://www.w3.org/1999/xlink">
<defs>
<style type="text/css">*{stroke-linecap:butt;stroke-linejoin:round;}</style>
</defs>
<path d="m0 880h1672v-880h-1672z" fill="#fff"/>
<g fill="none" stroke="#000">
<path d="m385.38 40.914-309.21 669.19" clip-path="url(#a)"/>
<path d="m385.38 40.914 309.21 139.8" clip-path="url(#a)"/>
<path d="m76.177 710.1v128.98" clip-path="url(#a)"/>
<path d="m694.59 180.72-523.43 400.4" clip-path="url(#a)"/>
<path d="m694.59 180.72-202.88 136.33" clip-path="url(#a)"/>
<path d="m694.59 180.72 260.13 400.4" clip-path="url(#a)"/>
<path d="m694.59 180.72 390.73 400.4" clip-path="url(#a)"/>
<path d="m694.59 180.72 554.57 269.63" clip-path="url(#a)"/>
<path d="m694.59 180.72-428.46 529.39" clip-path="url(#a)"/>
<path d="m694.59 180.72-380.97 529.39" clip-path="url(#a)"/>
<path d="m694.59 180.72 141.41 529.39" clip-path="url(#a)"/>
<path d="m694.59 180.72 188.9 529.39" clip-path="url(#a)"/>
<path d="m171.15 581.12-47.489 128.98" clip-path="url(#a)"/>
<path d="m171.15 581.12v128.98" clip-path="url(#a)"/>
<path d="m171.15 581.12 47.489 128.98" clip-path="url(#a)"/>
<path d="m491.71 317.05-130.59 393.05" clip-path="url(#a)"/>
<path d="m491.71 317.05-83.106 393.05" clip-path="url(#a)"/>
<path d="m491.71 317.05-11.872 393.05" clip-path="url(#a)"/>
<path d="m491.71 317.05 166.21 133.3" clip-path="url(#a)"/>
<path d="m491.71 317.05 59.361 393.05" clip-path="url(#a)"/>
<path d="m954.72 581.12-23.744 128.98" clip-path="url(#a)"/>
<path d="m954.72 581.12 23.744 128.98" clip-path="url(#a)"/>
<path d="m1085.3 581.12-59.361 128.98" clip-path="url(#a)"/>
<path d="m1085.3 581.12 59.361 128.98" clip-path="url(#a)"/>
<path d="m1249.2 450.34 37.991 130.78" clip-path="url(#a)"/>
<path d="m1249.2 450.34 132.97 130.78" clip-path="url(#a)"/>
<path d="m1249.2 450.34 251.69 259.76" clip-path="url(#a)"/>
<path d="m1249.2 450.34-769.32 259.76" clip-path="url(#a)" stroke-dasharray="3.7,1.6"/>
<path d="m1249.2 450.34 346.67 259.76" clip-path="url(#a)"/>
<path d="m1287.1 581.12-23.744 128.98" clip-path="url(#a)"/>
<path d="m1287.1 581.12 23.744 128.98" clip-path="url(#a)"/>
<path d="m1382.1 581.12-23.744 128.98" clip-path="url(#a)"/>
<path d="m1382.1 581.12 23.744 128.98" clip-path="url(#a)"/>
<path d="m1500.8 710.1-47.489 128.98" clip-path="url(#a)"/>
<path d="m1500.8 710.1v128.98" clip-path="url(#a)"/>
<path d="m1500.8 710.1 47.489 128.98" clip-path="url(#a)"/>
<path d="m1358.4 710.1v128.98" clip-path="url(#a)"/>
<path d="m1405.9 710.1v128.98" clip-path="url(#a)"/>
<path d="m1263.4 710.1v128.98" clip-path="url(#a)"/>
<path d="m1310.9 710.1v128.98" clip-path="url(#a)"/>
<path d="m1026 710.1v128.98" clip-path="url(#a)"/>
<path d="m1144.7 710.1-71.233 128.98" clip-path="url(#a)"/>
<path d="m1144.7 710.1-23.744 128.98" clip-path="url(#a)"/>
<path d="m1144.7 710.1 23.744 128.98" clip-path="url(#a)"/>
<path d="m1144.7 710.1 71.233 128.98" clip-path="url(#a)"/>
<path d="m930.98 710.1v128.98" clip-path="url(#a)"/>
<path d="m978.47 710.1v128.98" clip-path="url(#a)"/>
<path d="m361.11 710.1v128.98" clip-path="url(#a)"/>
<path d="m408.6 710.1v128.98" clip-path="url(#a)"/>
<path d="m479.83 710.1-23.744 128.98" clip-path="url(#a)"/>
<path d="m479.83 710.1 23.744 128.98" clip-path="url(#a)"/>
<path d="m657.92 450.34-59.361 259.76" clip-path="url(#a)"/>
<path d="m657.92 450.34 59.361 130.78" clip-path="url(#a)"/>
<path d="m598.56 710.1v128.98" clip-path="url(#a)"/>
<path d="m717.28 581.12-71.233 128.98" clip-path="url(#a)"/>
<path d="m717.28 581.12-23.744 128.98" clip-path="url(#a)"/>
<path d="m717.28 581.12 23.744 128.98" clip-path="url(#a)"/>
<path d="m717.28 581.12 71.233 128.98" clip-path="url(#a)"/>
<path d="m646.04 710.1v128.98" clip-path="url(#a)"/>
<path d="m693.53 710.1v128.98" clip-path="url(#a)"/>
<path d="m266.13 710.1v128.98" clip-path="url(#a)"/>
<path d="m741.02 710.1v128.98" clip-path="url(#a)"/>
<path d="m788.51 710.1v128.98" clip-path="url(#a)"/>
<path d="m123.67 710.1v128.98" clip-path="url(#a)"/>
<path d="m171.15 710.1v128.98" clip-path="url(#a)"/>
<path d="m218.64 710.1v128.98" clip-path="url(#a)"/>
<path d="m385.38 40.914-309.21 669.19" clip-path="url(#a)"/>
<path d="m385.38 40.914 309.21 139.8" clip-path="url(#a)"/>
<path d="m313.62 710.1v128.98" clip-path="url(#a)"/>
<path d="m551.07 710.1v128.98" clip-path="url(#a)"/>
<path d="m836 710.1v128.98" clip-path="url(#a)"/>
<path d="m883.49 710.1v128.98" clip-path="url(#a)"/>
<path d="m1595.8 710.1v128.98" clip-path="url(#a)"/>
</g>
<path d="m235.54 380.16 1.8697-4.0464q1.0067-2.1787-1.172-3.1853l-7.0285-3.2476q-2.1787-1.0067-3.1853 1.172l-1.8697 4.0464q-1.0067 2.1787 1.172 3.1853l7.0285 3.2476q2.1787 1.0067 3.1853-1.172z" clip-path="url(#a)" fill="#fff" stroke="#fff"/>
<g clip-path="url(#a)">
<defs>
<path id="ac" d="m9.8125 72.906h9.8594v-64.609h35.5v-8.2969h-45.359z"/>
</defs>
<g transform="translate(231.85 378.46) rotate(-65.2) scale(.08 -.08)">
<use xlink:href="#ac"/>
</g>
</g>
<path d="m534.66 115.29 5.482 2.4786q2.1869 0.98876 3.1756-1.1981l3.1898-7.0549q0.98876-2.1869-1.1981-3.1756l-5.482-2.4786q-2.1869-0.98876-3.1756 1.1981l-3.1898 7.0549q-0.98876 2.1869 1.1981 3.1756z" clip-path="url(#a)" fill="#fff" stroke="#fff"/>
<g clip-path="url(#a)">
<defs>
<path id="al" d="m9.8125 72.906h9.8594v-29.891h35.844v29.891h9.8594v-72.906h-9.8594v34.719h-35.844v-34.719h-9.8594z"/>
</defs>
<g transform="translate(536.34 111.59) rotate(24.329) scale(.08 -.08)">
<use xlink:href="#al"/>
</g>
</g>
<path d="m69.906 756.95v35.285q0 2.4 2.4 2.4h7.7425q2.4 0 2.4-2.4v-35.285q0-2.4-2.4-2.4h-7.7425q-2.4 0-2.4 2.4z" clip-path="url(#a)" fill="#fff" stroke="#fff"/>
<g clip-path="url(#a)">
<defs>
<path id="l" d="m-0.29688 72.906h61.672v-8.3125h-25.875v-64.594h-9.9062v64.594h-25.891z"/>
<path id="d" d="m56.203 29.594v-4.3906h-41.312q0.59375-9.2812 5.5938-14.141t13.938-4.8594q5.1719 0 10.031 1.2656t9.6562 3.8125v-8.5q-4.8438-2.0469-9.9219-3.125t-10.297-1.0781q-13.094 0-20.734 7.6094-7.6406 7.625-7.6406 20.625 0 13.422 7.25 21.297 7.25 7.8906 19.562 7.8906 11.031 0 17.453-7.1094 6.4219-7.0938 6.4219-19.297zm-8.9844 2.6406q-0.09375 7.3594-4.125 11.75-4.0312 4.4062-10.672 4.4062-7.5156 0-12.031-4.25t-5.2031-11.969z"/>
<path id="e" d="m41.109 46.297q-1.5156 0.875-3.2969 1.2812-1.7812 0.42188-3.9219 0.42188-7.625 0-11.703-4.9531t-4.0781-14.234v-28.812h-9.0312v54.688h9.0312v-8.5q2.8438 4.9844 7.375 7.3906 4.5469 2.4219 11.047 2.4219 0.92188 0 2.0469-0.125 1.125-0.10938 2.4844-0.35938z"/>
<path id="j" d="m52 44.188q3.375 6.0625 8.0625 8.9375t11.031 2.875q8.5469 0 13.188-5.9844 4.6406-5.9688 4.6406-17v-33.016h-9.0312v32.719q0 7.8594-2.7969 11.656-2.7812 3.8125-8.4844 3.8125-6.9844 0-11.047-4.6406-4.0469-4.625-4.0469-12.641v-30.906h-9.0312v32.719q0 7.9062-2.7812 11.688t-8.5938 3.7812q-6.8906 0-10.953-4.6562-4.0469-4.6562-4.0469-12.625v-30.906h-9.0312v54.688h9.0312v-8.5q3.0781 5.0312 7.375 7.4219t10.203 2.3906q5.9688 0 10.141-3.0312 4.1719-3.0156 6.1719-8.7812z"/>
<path id="i" d="m9.4219 54.688h8.9844v-54.688h-8.9844zm0 21.297h8.9844v-11.391h-8.9844z"/>
<path id="g" d="m54.891 33.016v-33.016h-8.9844v32.719q0 7.7656-3.0312 11.609-3.0312 3.8594-9.0781 3.8594-7.2812 0-11.484-4.6406-4.2031-4.625-4.2031-12.641v-30.906h-9.0312v54.688h9.0312v-8.5q3.2344 4.9375 7.5938 7.375 4.375 2.4375 10.094 2.4375 9.4219 0 14.25-5.8281 4.8438-5.8281 4.8438-17.156z"/>
<path id="f" d="m34.281 27.484q-10.891 0-15.094-2.4844t-4.2031-8.5q0-4.7812 3.1562-7.5938 3.1562-2.7969 8.5625-2.7969 7.4844 0 12 5.2969t4.5156 14.078v2zm17.922 3.7188v-31.203h-8.9844v8.2969q-3.0781-4.9688-7.6719-7.3438t-11.234-2.375q-8.3906 0-13.359 4.7188-4.9531 4.7188-4.9531 12.625 0 9.2188 6.1719 13.906 6.1875 4.6875 18.438 4.6875h12.609v0.89062q0 6.2031-4.0781 9.5938t-11.453 3.3906q-4.6875 0-9.1406-1.125-4.4375-1.125-8.5312-3.375v8.3125q4.9219 1.9062 9.5625 2.8438 4.6406 0.95312 9.0312 0.95312 11.875 0 17.734-6.1562 5.8594-6.1406 5.8594-18.641z"/>
<path id="k" d="m9.4219 75.984h8.9844v-75.984h-8.9844z"/>
</defs>
<g transform="translate(73.97 756.95) rotate(90) scale(.08 -.08)">
<use xlink:href="#l"/>
<use x="60.818359" xlink:href="#d"/>
<use x="122.341797" xlink:href="#e"/>
<use x="163.439453" xlink:href="#j"/>
<use x="260.851562" xlink:href="#i"/>
<use x="288.634766" xlink:href="#g"/>
<use x="352.013672" xlink:href="#f"/>
<use x="413.292969" xlink:href="#k"/>
</g>
</g>
<path d="m434.51 387.56 4.3466-3.325q1.9062-1.4582 0.44804-3.3644l-4.7042-6.1496q-1.4582-1.9062-3.3644-0.44804l-4.3466 3.325q-1.9062 1.4582-0.44804 3.3644l4.7042 6.1496q1.4582 1.9062 3.3644 0.44804z" clip-path="url(#a)" fill="#fff" stroke="#fff"/>
<g clip-path="url(#a)">
<defs>
<path id="q" d="m34.188 63.188-13.391-36.281h26.812zm-5.5781 9.7188h11.188l27.781-72.906h-10.25l-6.6406 18.703h-32.859l-6.6406-18.703h-10.406z"/>
</defs>
<g transform="translate(432.04 384.33) rotate(-37.414) scale(.08 -.08)">
<use xlink:href="#q"/>
</g>
</g>
<path d="m594.37 255.61 4.5422-3.0523q1.992-1.3386 0.65344-3.3306l-4.3184-6.4264q-1.3386-1.992-3.3306-0.65344l-4.5422 3.0523q-1.992 1.3386-0.65344 3.3306l4.3184 6.4264q1.3386 1.992 3.3306 0.65344z" clip-path="url(#a)" fill="#fff" stroke="#fff"/>
<g clip-path="url(#a)">
<g transform="translate(592.11 252.24) rotate(-33.9) scale(.08 -.08)">
<use xlink:href="#q"/>
</g>
</g>
<path d="m818.08 382.31 2.628 4.045q1.3075 2.0126 3.3201 0.70504l6.4926-4.2181q2.0126-1.3075 0.70504-3.3201l-2.628-4.045q-1.3075-2.0126-3.3201-0.70504l-6.4926 4.2181q-2.0126 1.3075-0.70504 3.3201z" clip-path="url(#a)" fill="#fff" stroke="#fff"/>
<g clip-path="url(#a)">
<defs>
<path id="x" d="m19.672 64.797v-27.391h12.406q6.8906 0 10.641 3.5625 3.7656 3.5625 3.7656 10.156 0 6.5469-3.7656 10.109-3.75 3.5625-10.641 3.5625zm-9.8594 8.1094h22.266q12.266 0 18.531-5.5469 6.2812-5.5469 6.2812-16.234 0-10.797-6.2812-16.312-6.2656-5.5156-18.531-5.5156h-12.406v-29.297h-9.8594z"/>
</defs>
<g transform="translate(821.49 380.1) rotate(56.989) scale(.08 -.08)">
<use xlink:href="#x"/>
</g>
</g>
<path d="m883.55 383.34 3.822 3.9167q1.6762 1.7177 3.3939 0.041508l5.5413-5.4074q1.7177-1.6762 0.041509-3.3939l-3.822-3.9167q-1.6762-1.7177-3.3939-0.041508l-5.5413 5.4074q-1.7177 1.6762-0.041509 3.3939z" clip-path="url(#a)" fill="#fff" stroke="#fff"/>
<g clip-path="url(#a)">
<g transform="translate(886.46 380.5) rotate(45.701) scale(.08 -.08)">
<use xlink:href="#q"/>
</g>
</g>
<path d="m966.67 319.97 4.9216 2.3929q2.1584 1.0494 3.2078-1.109l3.3854-6.9631q1.0494-2.1584-1.109-3.2078l-4.9216-2.3929q-2.1584-1.0494-3.2078 1.109l-3.3854 6.9631q-1.0494 2.1584 1.109 3.2078z" clip-path="url(#a)" fill="#fff" stroke="#fff"/>
<g clip-path="url(#a)">
<g transform="translate(968.45 316.32) rotate(25.929) scale(.08 -.08)">
<use xlink:href="#q"/>
</g>
</g>
<path d="m483.39 451.63 3.6835-4.5512q1.5099-1.8656-0.35568-3.3754l-6.0184-4.8709q-1.8656-1.5099-3.3754 0.35568l-3.6835 4.5512q-1.5099 1.8656 0.35568 3.3754l6.0184 4.8709q1.8656 1.5099 3.3754-0.35568z" clip-path="url(#a)" fill="#fff" stroke="#fff"/>
<g clip-path="url(#a)">
<defs>
<path id="w" d="m8.6875 72.906h9.9219v-44.297q0-11.719 4.2344-16.875 4.25-5.1406 13.781-5.1406 9.4688 0 13.719 5.1406 4.25 5.1562 4.25 16.875v44.297h9.9062v-45.516q0-14.25-7.0625-21.531-7.0469-7.2812-20.812-7.2812-13.828 0-20.891 7.2812-7.0469 7.2812-7.0469 21.531z"/>
</defs>
<g transform="translate(480.23 449.07) rotate(-51.015) scale(.08 -.08)">
<use xlink:href="#w"/>
</g>
</g>
<path d="m507.49 451.45 3.42-4.7524q1.4019-1.948-0.54615-3.3499l-6.2844-4.5225q-1.948-1.4019-3.3499 0.54615l-3.42 4.7524q-1.4019 1.948 0.54615 3.3499l6.2844 4.5225q1.948 1.4019 3.3499-0.54615z" clip-path="url(#a)" fill="#fff" stroke="#fff"/>
<g clip-path="url(#a)">
<g transform="translate(504.19 449.08) rotate(-54.26) scale(.08 -.08)">
<use xlink:href="#w"/>
</g>
</g>
<path d="m758.48 444.2 1.511 5.6567q0.61938 2.3187 2.9381 1.6993l7.4802-1.9981q2.3187-0.61938 1.6993-2.9381l-1.511-5.6567q-0.61938-2.3187-2.9381-1.6993l-7.4802 1.9981q-2.3187 0.61938-1.6993 2.9381z" clip-path="url(#a)" fill="#fff" stroke="#fff"/>
<g clip-path="url(#a)">
<g transform="translate(762.41 443.15) rotate(75.044) scale(.08 -.08)">
<use xlink:href="#w"/>
</g>
</g>
<path d="m782.15 444.76 1.9677 5.5144q0.80658 2.2604 3.067 1.4538l7.2922-2.6021q2.2604-0.80658 1.4538-3.067l-1.9677-5.5144q-0.80658-2.2604-3.067-1.4538l-7.2922 2.6021q-2.2604 0.80658-1.4538 3.067z" clip-path="url(#a)" fill="#fff" stroke="#fff"/>
<g clip-path="url(#a)">
<g transform="translate(785.98 443.39) rotate(70.362) scale(.08 -.08)">
<use xlink:href="#w"/>
</g>
</g>
<path d="m152.34 650.39 1.9206-5.2164q0.82922-2.2522-1.423-3.0814l-7.2657-2.6751q-2.2522-0.82922-3.0814 1.423l-1.9206 5.2164q-0.82922 2.2522 1.423 3.0814l7.2657 2.6751q2.2522 0.82922 3.0814-1.423z" clip-path="url(#a)" fill="#fff" stroke="#fff"/>
<g clip-path="url(#a)">
<defs>
<path id="z" d="m44.391 34.188q3.1719-1.0781 6.1719-4.5938t6.0312-9.6719l10.016-19.922h-10.609l-9.3125 18.703q-3.625 7.3281-7.0156 9.7188t-9.25 2.3906h-10.75v-30.812h-9.8594v72.906h22.266q12.5 0 18.656-5.2344 6.1562-5.2188 6.1562-15.766 0-6.8906-3.2031-11.438-3.2031-4.5312-9.2969-6.2812zm-24.719 30.609v-25.875h12.406q7.125 0 10.766 3.2969t3.6406 9.6875-3.6406 9.6406-10.766 3.25z"/>
</defs>
<g transform="translate(148.52 648.98) rotate(-69.787) scale(.08 -.08)">
<use xlink:href="#z"/>
</g>
</g>
<path d="m164.88 643.08v5.055q0 2.4 2.4 2.4h7.7425q2.4 0 2.4-2.4v-5.055q0-2.4-2.4-2.4h-7.7425q-2.4 0-2.4 2.4z" clip-path="url(#a)" fill="#fff" stroke="#fff"/>
<g clip-path="url(#a)">
<defs>
<path id="t" d="m9.8125 72.906h46.094v-8.3125h-36.234v-21.578h34.719v-8.2969h-34.719v-26.422h37.109v-8.2969h-46.969z"/>
</defs>
<g transform="translate(168.95 643.08) rotate(90) scale(.08 -.08)">
<use xlink:href="#t"/>
</g>
</g>
<path d="m188.05 645.16 1.9301 5.2422q0.82922 2.2522 3.0814 1.423l7.2657-2.6751q2.2522-0.82922 1.423-3.0814l-1.9301-5.2422q-0.82922-2.2522-3.0814-1.423l-7.2657 2.6751q-2.2522 0.82922-1.423 3.0814z" clip-path="url(#a)" fill="#fff" stroke="#fff"/>
<g clip-path="url(#a)">
<defs>
<path id="u" d="m64.406 67.281v-10.391q-4.9844 4.6406-10.625 6.9219-5.6406 2.2969-11.984 2.2969-12.5 0-19.141-7.6406t-6.6406-22.094q0-14.406 6.6406-22.047t19.141-7.6406q6.3438 0 11.984 2.2969t10.625 6.9375v-10.312q-5.1719-3.5156-10.969-5.2812-5.7812-1.75-12.219-1.75-16.562 0-26.094 10.125-9.5156 10.141-9.5156 27.672 0 17.578 9.5156 27.703 9.5312 10.141 26.094 10.141 6.5312 0 12.312-1.7344 5.7969-1.7344 10.875-5.2031z"/>
</defs>
<g transform="translate(191.86 643.75) rotate(69.787) scale(.08 -.08)">
<use xlink:href="#u"/>
</g>
</g>
<path d="m431.56 517.95 1.5939-4.7971q0.75674-2.2776-1.5208-3.0343l-7.3476-2.4413q-2.2776-0.75674-3.0343 1.5208l-1.5939 4.7971q-0.75674 2.2776 1.5208 3.0343l7.3476 2.4413q2.2776 0.75674 3.0343-1.5208z" clip-path="url(#a)" fill="#fff" stroke="#fff"/>
<g clip-path="url(#a)">
<g transform="translate(427.71 516.67) rotate(-71.621) scale(.08 -.08)">
<use xlink:href="#t"/>
</g>
</g>
<path d="m455.77 517.35 1.0457-4.9457q0.49647-2.3481-1.8516-2.8446l-7.575-1.6016q-2.3481-0.49647-2.8446 1.8516l-1.0457 4.9457q-0.49647 2.3481 1.8516 2.8446l7.575 1.6016q2.3481 0.49647 2.8446-1.8516z" clip-path="url(#a)" fill="#fff" stroke="#fff"/>
<g clip-path="url(#a)">
<g transform="translate(451.79 516.51) rotate(-78.061) scale(.08 -.08)">
<use xlink:href="#t"/>
</g>
</g>
<path d="m491.95 516.56 0.16866-5.5837q0.072459-2.3989-2.3264-2.4714l-7.739-0.23376q-2.3989-0.072459-2.4714 2.3264l-0.16866 5.5837q-0.072459 2.3989 2.3264 2.4714l7.739 0.23376q2.3989 0.07246 2.4714-2.3264z" clip-path="url(#a)" fill="#fff" stroke="#fff"/>
<g clip-path="url(#a)">
<g transform="translate(487.89 516.43) rotate(-88.27) scale(.08 -.08)">
<use xlink:href="#u"/>
</g>
</g>
<path d="m568.92 387.01 3.9435 3.1625q1.8723 1.5015 3.3738-0.37078l4.8439-6.0401q1.5015-1.8723-0.37078-3.3738l-3.9435-3.1625q-1.8723-1.5015-3.3738 0.37078l-4.8439 6.0401q-1.5015 1.8723 0.37078 3.3738z" clip-path="url(#a)" fill="#fff" stroke="#fff"/>
<g clip-path="url(#a)">
<g transform="translate(571.46 383.84) rotate(38.728) scale(.08 -.08)">
<use xlink:href="#t"/>
</g>
</g>
<path d="m514.75 511.62 0.87434 5.7893q0.3584 2.3731 2.7315 2.0147l7.6557-1.1562q2.3731-0.3584 2.0147-2.7315l-0.87434-5.7893q-0.3584-2.3731-2.7315-2.0147l-7.6557 1.1562q-2.3731 0.3584-2.0147 2.7315z" clip-path="url(#a)" fill="#fff" stroke="#fff"/>
<g clip-path="url(#a)">
<g transform="translate(518.77 511.01) rotate(81.412) scale(.08 -.08)">
<use xlink:href="#w"/>
</g>
</g>
<path d="m948.6 649.01 0.83305-4.5252q0.43452-2.3603-1.9258-2.7949l-7.6145-1.4018q-2.3603-0.43452-2.7949 1.9258l-0.83305 4.5252q-0.43452 2.3603 1.9258 2.7949l7.6145 1.4018q2.3603 0.43452 2.7949-1.9258z" clip-path="url(#a)" fill="#fff" stroke="#fff"/>
<g clip-path="url(#a)">
<defs>
<path id="am" d="m9.8125 72.906h41.891v-8.3125h-32.031v-21.484h28.906v-8.2969h-28.906v-34.812h-9.8594z"/>
</defs>
<g transform="translate(944.6 648.27) rotate(-79.569) scale(.08 -.08)">
<use xlink:href="#am"/>
</g>
</g>
<path d="m959.92 644 1.0114 5.4939q0.43452 2.3603 2.7949 1.9258l7.6145-1.4018q2.3603-0.43452 1.9258-2.7949l-1.0114-5.4939q-0.43452-2.3603-2.7949-1.9258l-7.6146 1.4018q-2.3603 0.43452-1.9258 2.7949z" clip-path="url(#a)" fill="#fff" stroke="#fff"/>
<g clip-path="url(#a)">
<g transform="translate(963.92 643.26) rotate(79.569) scale(.08 -.08)">
<use xlink:href="#u"/>
</g>
</g>
<path d="m1060.2 650.76 2.324-5.0496q1.0034-2.1802-1.1768-3.1836l-7.0334-3.2369q-2.1802-1.0034-3.1836 1.1768l-2.324 5.0496q-1.0034 2.1802 1.1768 3.1836l7.0334 3.2369q2.1802 1.0034 3.1836-1.1768z" clip-path="url(#a)" fill="#fff" stroke="#fff"/>
<g clip-path="url(#a)">
<g transform="translate(1056.5 649.06) rotate(-65.287) scale(.08 -.08)">
<use xlink:href="#z"/>
</g>
</g>
<path d="m1108.1 645.7 2.3355 5.0746q1.0034 2.1802 3.1836 1.1768l7.0334-3.2369q2.1802-1.0034 1.1768-3.1836l-2.3355-5.0746q-1.0034-2.1802-3.1836-1.1768l-7.0334 3.2369q-2.1802 1.0034-1.1768 3.1836z" clip-path="url(#a)" fill="#fff" stroke="#fff"/>
<g clip-path="url(#a)">
<g transform="translate(1111.8 644) rotate(65.287) scale(.08 -.08)">
<use xlink:href="#u"/>
</g>
</g>
<path d="m1261.5 515.17 1.3457 4.6322q0.66953 2.3047 2.9742 1.6352l7.4351-2.1599q2.3047-0.66953 1.6352-2.9742l-1.3457-4.6322q-0.66953-2.3047-2.9742-1.6352l-7.4351 2.1599q-2.3047 0.66953-1.6352 2.9742z" clip-path="url(#a)" fill="#fff" stroke="#fff"/>
<g clip-path="url(#a)">
<g transform="translate(1265.4 514.03) rotate(73.801) scale(.08 -.08)">
<use xlink:href="#x"/>
</g>
</g>
<path d="m1309.3 518.28 3.9017 3.8373q1.7111 1.6829 3.394-0.028209l5.4291-5.5201q1.6829-1.7111-0.028209-3.394l-3.9017-3.8373q-1.7111-1.6829-3.394 0.028209l-5.4291 5.5201q-1.6829 1.7111 0.028209 3.394z" clip-path="url(#a)" fill="#fff" stroke="#fff"/>
<g clip-path="url(#a)">
<g transform="translate(1312.1 515.39) rotate(44.524) scale(.08 -.08)">
<use xlink:href="#q"/>
</g>
</g>
<path d="m1368.4 582.38 4.2865 4.4239q1.6701 1.7236 3.3937 0.053536l5.5604-5.3877q1.7236-1.6701 0.053536-3.3937l-4.2865-4.4239q-1.6701-1.7236-3.3937-0.053536l-5.5604 5.3877q-1.7236 1.6701-0.053536 3.3937z" clip-path="url(#a)" fill="#fff" stroke="#fff"/>
<g clip-path="url(#a)">
<defs>
<path id="au" d="m19.672 64.797v-56.688h11.922q15.094 0 22.094 6.8281 7 6.8438 7 21.594 0 14.641-7 21.453t-22.094 6.8125zm-9.8594 8.1094h20.266q21.188 0 31.094-8.8125 9.9219-8.8125 9.9219-27.562 0-18.859-9.9688-27.703-9.9531-8.8281-31.047-8.8281h-20.266z"/>
</defs>
<g transform="translate(1371.3 579.55) rotate(45.904) scale(.08 -.08)">
<use xlink:href="#au"/>
</g>
</g>
<path d="m863.91 587.04 5.1849-1.7507q2.2739-0.76777 1.5061-3.0416l-2.4769-7.3356q-0.76777-2.2739-3.0417-1.5061l-5.1849 1.7507q-2.2739 0.76777-1.5061 3.0416l2.4769 7.3356q0.76777 2.2739 3.0416 1.5061z" clip-path="url(#a)" fill="#fff" stroke="#fff"/>
<g clip-path="url(#a)">
<g transform="translate(862.61 583.19) rotate(-18.657) scale(.08 -.08)">
<use xlink:href="#q"/>
</g>
</g>
<path d="m1416.4 583.49 4.6856 3.5109q1.9206 1.4391 3.3598-0.4815l4.6427-6.1961q1.4391-1.9206-0.4815-3.3598l-4.6856-3.5109q-1.9206-1.4391-3.3598 0.4815l-4.6427 6.1961q-1.4391 1.9206 0.4815 3.3598z" clip-path="url(#a)" fill="#fff" stroke="#fff"/>
<g clip-path="url(#a)">
<g transform="translate(1418.8 580.23) rotate(36.844) scale(.08 -.08)">
<use xlink:href="#w"/>
</g>
</g>
<path d="m1281 649.01 0.83305-4.5252q0.43452-2.3603-1.9258-2.7949l-7.6145-1.4018q-2.3603-0.43452-2.7949 1.9258l-0.83305 4.5252q-0.43452 2.3603 1.9258 2.7949l7.6145 1.4018q2.3603 0.43452 2.7949-1.9258z" clip-path="url(#a)" fill="#fff" stroke="#fff"/>
<g clip-path="url(#a)">
<g transform="translate(1277 648.27) rotate(-79.569) scale(.08 -.08)">
<use xlink:href="#am"/>
</g>
</g>
<path d="m1292.3 644 1.0114 5.4939q0.43452 2.3603 2.7949 1.9258l7.6145-1.4018q2.3603-0.43452 1.9258-2.7949l-1.0114-5.4939q-0.43452-2.3603-2.7949-1.9258l-7.6145 1.4018q-2.3603 0.43452-1.9258 2.7949z" clip-path="url(#a)" fill="#fff" stroke="#fff"/>
<g clip-path="url(#a)">
<g transform="translate(1296.3 643.26) rotate(79.569) scale(.08 -.08)">
<use xlink:href="#u"/>
</g>
</g>
<path d="m1376 649.23 0.9152-4.9715q0.43452-2.3603-1.9258-2.7949l-7.6145-1.4018q-2.3603-0.43452-2.7949 1.9258l-0.9152 4.9715q-0.43452 2.3603 1.9258 2.7949l7.6145 1.4018q2.3603 0.43452 2.7949-1.9258z" clip-path="url(#a)" fill="#fff" stroke="#fff"/>
<g clip-path="url(#a)">
<g transform="translate(1372 648.5) rotate(-79.569) scale(.08 -.08)">
<use xlink:href="#t"/>
</g>
</g>
<path d="m1387.3 644 1.0114 5.4939q0.43452 2.3603 2.7949 1.9258l7.6145-1.4018q2.3603-0.43452 1.9258-2.7949l-1.0114-5.4939q-0.43452-2.3603-2.7949-1.9258l-7.6145 1.4018q-2.3603 0.43452-1.9258 2.7949z" clip-path="url(#a)" fill="#fff" stroke="#fff"/>
<g clip-path="url(#a)">
<g transform="translate(1391.3 643.26) rotate(79.569) scale(.08 -.08)">
<use xlink:href="#u"/>
</g>
</g>
<path d="m1476.9 793.32 12.191-33.112q0.82922-2.2522-1.423-3.0814l-7.2657-2.6751q-2.2522-0.82922-3.0814 1.423l-12.191 33.112q-0.82922 2.2522 1.423 3.0814l7.2657 2.6751q2.2522 0.82922 3.0814-1.423z" clip-path="url(#a)" fill="#fff" stroke="#fff"/>
<g clip-path="url(#a)">
<g transform="translate(1473.1 791.91) rotate(-69.787) scale(.08 -.08)">
<use xlink:href="#l"/>
<use x="60.818359" xlink:href="#d"/>
<use x="122.341797" xlink:href="#e"/>
<use x="163.439453" xlink:href="#j"/>
<use x="260.851562" xlink:href="#i"/>
<use x="288.634766" xlink:href="#g"/>
<use x="352.013672" xlink:href="#f"/>
<use x="413.292969" xlink:href="#k"/>
</g>
</g>
<path d="m1494.6 756.95v35.285q0 2.4 2.4 2.4h7.7425q2.4 0 2.4-2.4v-35.285q0-2.4-2.4-2.4h-7.7425q-2.4 0-2.4 2.4z" clip-path="url(#a)" fill="#fff" stroke="#fff"/>
<g clip-path="url(#a)">
<g transform="translate(1498.6 756.95) rotate(90) scale(.08 -.08)">
<use xlink:href="#l"/>
<use x="60.818359" xlink:href="#d"/>
<use x="122.341797" xlink:href="#e"/>
<use x="163.439453" xlink:href="#j"/>
<use x="260.851562" xlink:href="#i"/>
<use x="288.634766" xlink:href="#g"/>
<use x="352.013672" xlink:href="#f"/>
<use x="413.292969" xlink:href="#k"/>
</g>
</g>
<path d="m1512.6 760.21 12.191 33.112q0.82922 2.2522 3.0814 1.423l7.2657-2.6751q2.2522-0.82922 1.423-3.0814l-12.191-33.112q-0.82922-2.2522-3.0814-1.423l-7.2657 2.6751q-2.2522 0.82922-1.423 3.0814z" clip-path="url(#a)" fill="#fff" stroke="#fff"/>
<g clip-path="url(#a)">
<g transform="translate(1516.4 758.8) rotate(69.787) scale(.08 -.08)">
<use xlink:href="#l"/>
<use x="60.818359" xlink:href="#d"/>
<use x="122.341797" xlink:href="#e"/>
<use x="163.439453" xlink:href="#j"/>
<use x="260.851562" xlink:href="#i"/>
<use x="288.634766" xlink:href="#g"/>
<use x="352.013672" xlink:href="#f"/>
<use x="413.292969" xlink:href="#k"/>
</g>
</g>
<path d="m1352.1 756.95v35.285q0 2.4 2.4 2.4h7.7425q2.4 0 2.4-2.4v-35.285q0-2.4-2.4-2.4h-7.7425q-2.4 0-2.4 2.4z" clip-path="url(#a)" fill="#fff" stroke="#fff"/>
<g clip-path="url(#a)">
<g transform="translate(1356.2 756.95) rotate(90) scale(.08 -.08)">
<use xlink:href="#l"/>
<use x="60.818359" xlink:href="#d"/>
<use x="122.341797" xlink:href="#e"/>
<use x="163.439453" xlink:href="#j"/>
<use x="260.851562" xlink:href="#i"/>
<use x="288.634766" xlink:href="#g"/>
<use x="352.013672" xlink:href="#f"/>
<use x="413.292969" xlink:href="#k"/>
</g>
</g>
<path d="m1399.6 756.95v35.285q0 2.4 2.4 2.4h7.7425q2.4 0 2.4-2.4v-35.285q0-2.4-2.4-2.4h-7.7425q-2.4 0-2.4 2.4z" clip-path="url(#a)" fill="#fff" stroke="#fff"/>
<g clip-path="url(#a)">
<g transform="translate(1403.7 756.95) rotate(90) scale(.08 -.08)">
<use xlink:href="#l"/>
<use x="60.818359" xlink:href="#d"/>
<use x="122.341797" xlink:href="#e"/>
<use x="163.439453" xlink:href="#j"/>
<use x="260.851562" xlink:href="#i"/>
<use x="288.634766" xlink:href="#g"/>
<use x="352.013672" xlink:href="#f"/>
<use x="413.292969" xlink:href="#k"/>
</g>
</g>
<path d="m1257.1 756.95v35.285q0 2.4 2.4 2.4h7.7425q2.4 0 2.4-2.4v-35.285q0-2.4-2.4-2.4h-7.7425q-2.4 0-2.4 2.4z" clip-path="url(#a)" fill="#fff" stroke="#fff"/>
<g clip-path="url(#a)">
<g transform="translate(1261.2 756.95) rotate(90) scale(.08 -.08)">
<use xlink:href="#l"/>
<use x="60.818359" xlink:href="#d"/>
<use x="122.341797" xlink:href="#e"/>
<use x="163.439453" xlink:href="#j"/>
<use x="260.851562" xlink:href="#i"/>
<use x="288.634766" xlink:href="#g"/>
<use x="352.013672" xlink:href="#f"/>
<use x="413.292969" xlink:href="#k"/>
</g>
</g>
<path d="m1304.6 756.95v35.285q0 2.4 2.4 2.4h7.7425q2.4 0 2.4-2.4v-35.285q0-2.4-2.4-2.4h-7.7425q-2.4 0-2.4 2.4z" clip-path="url(#a)" fill="#fff" stroke="#fff"/>
<g clip-path="url(#a)">
<g transform="translate(1308.7 756.95) rotate(90) scale(.08 -.08)">
<use xlink:href="#l"/>
<use x="60.818359" xlink:href="#d"/>
<use x="122.341797" xlink:href="#e"/>
<use x="163.439453" xlink:href="#j"/>
<use x="260.851562" xlink:href="#i"/>
<use x="288.634766" xlink:href="#g"/>
<use x="352.013672" xlink:href="#f"/>
<use x="413.292969" xlink:href="#k"/>
</g>
</g>
<path d="m1019.7 756.95v35.285q0 2.4 2.4 2.4h7.7425q2.4 0 2.4-2.4v-35.285q0-2.4-2.4-2.4h-7.7425q-2.4 0-2.4 2.4z" clip-path="url(#a)" fill="#fff" stroke="#fff"/>
<g clip-path="url(#a)">
<g transform="translate(1023.7 756.95) rotate(90) scale(.08 -.08)">
<use xlink:href="#l"/>
<use x="60.818359" xlink:href="#d"/>
<use x="122.341797" xlink:href="#e"/>
<use x="163.439453" xlink:href="#j"/>
<use x="260.851562" xlink:href="#i"/>
<use x="288.634766" xlink:href="#g"/>
<use x="352.013672" xlink:href="#f"/>
<use x="413.292969" xlink:href="#k"/>
</g>
</g>
<path d="m1106 793.07 17.058-30.888q1.1603-2.1009-0.94063-3.2612l-6.7776-3.7431q-2.1009-1.1603-3.2612 0.94063l-17.058 30.888q-1.1603 2.1009 0.94063 3.2612l6.7776 3.7431q2.1009 1.1603 3.2612-0.94063z" clip-path="url(#a)" fill="#fff" stroke="#fff"/>
<g clip-path="url(#a)">
<g transform="translate(1102.5 791.11) rotate(-61.089) scale(.08 -.08)">
<use xlink:href="#l"/>
<use x="60.818359" xlink:href="#d"/>
<use x="122.341797" xlink:href="#e"/>
<use x="163.439453" xlink:href="#j"/>
<use x="260.851562" xlink:href="#i"/>
<use x="288.634766" xlink:href="#g"/>
<use x="352.013672" xlink:href="#f"/>
<use x="413.292969" xlink:href="#k"/>
</g>
</g>
<path d="m1135.8 793.08 6.3883-34.702q0.43452-2.3603-1.9258-2.7949l-7.6145-1.4018q-2.3603-0.43452-2.7949 1.9258l-6.3883 34.702q-0.43452 2.3603 1.9258 2.7949l7.6146 1.4018q2.3603 0.43452 2.7949-1.9258z" clip-path="url(#a)" fill="#fff" stroke="#fff"/>
<g clip-path="url(#a)">
<g transform="translate(1131.8 792.35) rotate(-79.569) scale(.08 -.08)">
<use xlink:href="#l"/>
<use x="60.818359" xlink:href="#d"/>
<use x="122.341797" xlink:href="#e"/>
<use x="163.439453" xlink:href="#j"/>
<use x="260.851562" xlink:href="#i"/>
<use x="288.634766" xlink:href="#g"/>
<use x="352.013672" xlink:href="#f"/>
<use x="413.292969" xlink:href="#k"/>
</g>
</g>
<path d="m1147.2 758.38 6.3883 34.702q0.43452 2.3603 2.7949 1.9258l7.6146-1.4018q2.3603-0.43452 1.9258-2.7949l-6.3883-34.702q-0.43452-2.3603-2.7949-1.9258l-7.6145 1.4018q-2.3603 0.43452-1.9258 2.7949z" clip-path="url(#a)" fill="#fff" stroke="#fff"/>
<g clip-path="url(#a)">
<g transform="translate(1151.2 757.64) rotate(79.569) scale(.08 -.08)">
<use xlink:href="#l"/>
<use x="60.818359" xlink:href="#d"/>
<use x="122.341797" xlink:href="#e"/>
<use x="163.439453" xlink:href="#j"/>
<use x="260.851562" xlink:href="#i"/>
<use x="288.634766" xlink:href="#g"/>
<use x="352.013672" xlink:href="#f"/>
<use x="413.292969" xlink:href="#k"/>
</g>
</g>
<path d="m1166.3 762.18 17.058 30.888q1.1603 2.1009 3.2612 0.94063l6.7776-3.7431q2.1009-1.1603 0.94063-3.2612l-17.058-30.888q-1.1603-2.1009-3.2612-0.94063l-6.7776 3.7431q-2.1009 1.1603-0.94063 3.2612z" clip-path="url(#a)" fill="#fff" stroke="#fff"/>
<g clip-path="url(#a)">
<g transform="translate(1169.8 760.22) rotate(61.089) scale(.08 -.08)">
<use xlink:href="#l"/>
<use x="60.818359" xlink:href="#d"/>
<use x="122.341797" xlink:href="#e"/>
<use x="163.439453" xlink:href="#j"/>
<use x="260.851562" xlink:href="#i"/>
<use x="288.634766" xlink:href="#g"/>
<use x="352.013672" xlink:href="#f"/>
<use x="413.292969" xlink:href="#k"/>
</g>
</g>
<path d="m924.71 756.95v35.285q0 2.4 2.4 2.4h7.7425q2.4 0 2.4-2.4v-35.285q0-2.4-2.4-2.4h-7.7425q-2.4 0-2.4 2.4z" clip-path="url(#a)" fill="#fff" stroke="#fff"/>
<g clip-path="url(#a)">
<g transform="translate(928.77 756.95) rotate(90) scale(.08 -.08)">
<use xlink:href="#l"/>
<use x="60.818359" xlink:href="#d"/>
<use x="122.341797" xlink:href="#e"/>
<use x="163.439453" xlink:href="#j"/>
<use x="260.851562" xlink:href="#i"/>
<use x="288.634766" xlink:href="#g"/>
<use x="352.013672" xlink:href="#f"/>
<use x="413.292969" xlink:href="#k"/>
</g>
</g>
<path d="m972.2 756.95v35.285q0 2.4 2.4 2.4h7.7425q2.4 0 2.4-2.4v-35.285q0-2.4-2.4-2.4h-7.7425q-2.4 0-2.4 2.4z" clip-path="url(#a)" fill="#fff" stroke="#fff"/>
<g clip-path="url(#a)">
<g transform="translate(976.26 756.95) rotate(90) scale(.08 -.08)">
<use xlink:href="#l"/>
<use x="60.818359" xlink:href="#d"/>
<use x="122.341797" xlink:href="#e"/>
<use x="163.439453" xlink:href="#j"/>
<use x="260.851562" xlink:href="#i"/>
<use x="288.634766" xlink:href="#g"/>
<use x="352.013672" xlink:href="#f"/>
<use x="413.292969" xlink:href="#k"/>
</g>
</g>
<path d="m354.84 756.95v35.285q0 2.4 2.4 2.4h7.7425q2.4 0 2.4-2.4v-35.285q0-2.4-2.4-2.4h-7.7425q-2.4 0-2.4 2.4z" clip-path="url(#a)" fill="#fff" stroke="#fff"/>
<g clip-path="url(#a)">
<g transform="translate(358.9 756.95) rotate(90) scale(.08 -.08)">
<use xlink:href="#l"/>
<use x="60.818359" xlink:href="#d"/>
<use x="122.341797" xlink:href="#e"/>
<use x="163.439453" xlink:href="#j"/>
<use x="260.851562" xlink:href="#i"/>
<use x="288.634766" xlink:href="#g"/>
<use x="352.013672" xlink:href="#f"/>
<use x="413.292969" xlink:href="#k"/>
</g>
</g>
<path d="m402.33 756.95v35.285q0 2.4 2.4 2.4h7.7425q2.4 0 2.4-2.4v-35.285q0-2.4-2.4-2.4h-7.7425q-2.4 0-2.4 2.4z" clip-path="url(#a)" fill="#fff" stroke="#fff"/>
<g clip-path="url(#a)">
<g transform="translate(406.39 756.95) rotate(90) scale(.08 -.08)">
<use xlink:href="#l"/>
<use x="60.818359" xlink:href="#d"/>
<use x="122.341797" xlink:href="#e"/>
<use x="163.439453" xlink:href="#j"/>
<use x="260.851562" xlink:href="#i"/>
<use x="288.634766" xlink:href="#g"/>
<use x="352.013672" xlink:href="#f"/>
<use x="413.292969" xlink:href="#k"/>
</g>
</g>
<path d="m470.93 793.08 6.3883-34.702q0.43452-2.3603-1.9258-2.7949l-7.6145-1.4018q-2.3603-0.43452-2.7949 1.9258l-6.3883 34.702q-0.43452 2.3603 1.9258 2.7949l7.6145 1.4018q2.3603 0.43452 2.7949-1.9258z" clip-path="url(#a)" fill="#fff" stroke="#fff"/>
<g clip-path="url(#a)">
<g transform="translate(466.94 792.35) rotate(-79.569) scale(.08 -.08)">
<use xlink:href="#l"/>
<use x="60.818359" xlink:href="#d"/>
<use x="122.341797" xlink:href="#e"/>
<use x="163.439453" xlink:href="#j"/>
<use x="260.851562" xlink:href="#i"/>
<use x="288.634766" xlink:href="#g"/>
<use x="352.013672" xlink:href="#f"/>
<use x="413.292969" xlink:href="#k"/>
</g>
</g>
<path d="m482.34 758.38 6.3883 34.702q0.43452 2.3603 2.7949 1.9258l7.6145-1.4018q2.3603-0.43452 1.9258-2.7949l-6.3883-34.702q-0.43452-2.3603-2.7949-1.9258l-7.6145 1.4018q-2.3603 0.43452-1.9258 2.7949z" clip-path="url(#a)" fill="#fff" stroke="#fff"/>
<g clip-path="url(#a)">
<g transform="translate(486.34 757.64) rotate(79.569) scale(.08 -.08)">
<use xlink:href="#l"/>
<use x="60.818359" xlink:href="#d"/>
<use x="122.341797" xlink:href="#e"/>
<use x="163.439453" xlink:href="#j"/>
<use x="260.851562" xlink:href="#i"/>
<use x="288.634766" xlink:href="#g"/>
<use x="352.013672" xlink:href="#f"/>
<use x="413.292969" xlink:href="#k"/>
</g>
</g>
<path d="m633.73 584.34 1.2445-5.4459q0.53467-2.3397-1.805-2.8744l-7.5479-1.7249q-2.3397-0.53467-2.8744 1.805l-1.2445 5.4459q-0.53467 2.3397 1.805 2.8744l7.5479 1.7249q2.3397 0.53467 2.8744-1.805z" clip-path="url(#a)" fill="#fff" stroke="#fff"/>
<g clip-path="url(#a)">
<g transform="translate(629.77 583.44) rotate(-77.128) scale(.08 -.08)">
<use xlink:href="#u"/>
</g>
</g>
<path d="m680.84 516.02 2.0894 4.603q0.99198 2.1854 3.1774 1.1934l7.0502-3.2002q2.1854-0.99198 1.1934-3.1774l-2.0894-4.603q-0.99198-2.1854-3.1774-1.1934l-7.0502 3.2002q-2.1854 0.99198-1.1934 3.1774z" clip-path="url(#a)" fill="#fff" stroke="#fff"/>
<g clip-path="url(#a)">
<g transform="translate(684.54 514.34) rotate(65.586) scale(.08 -.08)">
<use xlink:href="#t"/>
</g>
</g>
<path d="m592.28 756.95v35.285q0 2.4 2.4 2.4h7.7425q2.4 0 2.4-2.4v-35.285q0-2.4-2.4-2.4h-7.7425q-2.4 0-2.4 2.4z" clip-path="url(#a)" fill="#fff" stroke="#fff"/>
<g clip-path="url(#a)">
<g transform="translate(596.35 756.95) rotate(90) scale(.08 -.08)">
<use xlink:href="#l"/>
<use x="60.818359" xlink:href="#d"/>
<use x="122.341797" xlink:href="#e"/>
<use x="163.439453" xlink:href="#j"/>
<use x="260.851562" xlink:href="#i"/>
<use x="288.634766" xlink:href="#g"/>
<use x="352.013672" xlink:href="#f"/>
<use x="413.292969" xlink:href="#k"/>
</g>
</g>
<path d="m685.81 651.08 2.6873-4.866q1.1603-2.1009-0.94063-3.2612l-6.7776-3.7431q-2.1009-1.1603-3.2612 0.94063l-2.6873 4.866q-1.1603 2.1009 0.94063 3.2612l6.7776 3.7431q2.1009 1.1603 3.2612-0.94063z" clip-path="url(#a)" fill="#fff" stroke="#fff"/>
<g clip-path="url(#a)">
<g transform="translate(682.25 649.11) rotate(-61.089) scale(.08 -.08)">
<use xlink:href="#z"/>
</g>
</g>
<path d="m711.12 649.23 0.9152-4.9715q0.43452-2.3603-1.9258-2.7949l-7.6146-1.4018q-2.3603-0.43452-2.7949 1.9258l-0.9152 4.9715q-0.43452 2.3603 1.9258 2.7949l7.6145 1.4018q2.3603 0.43452 2.7949-1.9258z" clip-path="url(#a)" fill="#fff" stroke="#fff"/>
<g clip-path="url(#a)">
<g transform="translate(707.12 648.5) rotate(-79.569) scale(.08 -.08)">
<use xlink:href="#t"/>
</g>
</g>
<path d="m722.52 644.26 0.9152 4.9715q0.43452 2.3603 2.7949 1.9258l7.6145-1.4018q2.3603-0.43452 1.9258-2.7949l-0.9152-4.9715q-0.43452-2.3603-2.7949-1.9258l-7.6145 1.4018q-2.3603 0.43452-1.9258 2.7949z" clip-path="url(#a)" fill="#fff" stroke="#fff"/>
<g clip-path="url(#a)">
<g transform="translate(726.52 643.53) rotate(79.569) scale(.08 -.08)">
<use xlink:href="#t"/>
</g>
</g>
<path d="m746.05 646.2 2.7006 4.8901q1.1603 2.1009 3.2612 0.94063l6.7776-3.7431q2.1009-1.1603 0.94063-3.2612l-2.7006-4.8901q-1.1603-2.1009-3.2612-0.94063l-6.7776 3.7431q-2.1009 1.1603-0.94063 3.2612z" clip-path="url(#a)" fill="#fff" stroke="#fff"/>
<g clip-path="url(#a)">
<g transform="translate(749.61 644.23) rotate(61.089) scale(.08 -.08)">
<use xlink:href="#u"/>
</g>
</g>
<path d="m639.77 756.95v35.285q0 2.4 2.4 2.4h7.7425q2.4 0 2.4-2.4v-35.285q0-2.4-2.4-2.4h-7.7425q-2.4 0-2.4 2.4z" clip-path="url(#a)" fill="#fff" stroke="#fff"/>
<g clip-path="url(#a)">
<g transform="translate(643.84 756.95) rotate(90) scale(.08 -.08)">
<use xlink:href="#l"/>
<use x="60.818359" xlink:href="#d"/>
<use x="122.341797" xlink:href="#e"/>
<use x="163.439453" xlink:href="#j"/>
<use x="260.851562" xlink:href="#i"/>
<use x="288.634766" xlink:href="#g"/>
<use x="352.013672" xlink:href="#f"/>
<use x="413.292969" xlink:href="#k"/>
</g>
</g>
<path d="m687.26 756.95v35.285q0 2.4 2.4 2.4h7.7425q2.4 0 2.4-2.4v-35.285q0-2.4-2.4-2.4h-7.7425q-2.4 0-2.4 2.4z" clip-path="url(#a)" fill="#fff" stroke="#fff"/>
<g clip-path="url(#a)">
<g transform="translate(691.33 756.95) rotate(90) scale(.08 -.08)">
<use xlink:href="#l"/>
<use x="60.818359" xlink:href="#d"/>
<use x="122.341797" xlink:href="#e"/>
<use x="163.439453" xlink:href="#j"/>
<use x="260.851562" xlink:href="#i"/>
<use x="288.634766" xlink:href="#g"/>
<use x="352.013672" xlink:href="#f"/>
<use x="413.292969" xlink:href="#k"/>
</g>
</g>
<path d="m259.86 756.95v35.285q0 2.4 2.4 2.4h7.7425q2.4 0 2.4-2.4v-35.285q0-2.4-2.4-2.4h-7.7425q-2.4 0-2.4 2.4z" clip-path="url(#a)" fill="#fff" stroke="#fff"/>
<g clip-path="url(#a)">
<g transform="translate(263.93 756.95) rotate(90) scale(.08 -.08)">
<use xlink:href="#l"/>
<use x="60.818359" xlink:href="#d"/>
<use x="122.341797" xlink:href="#e"/>
<use x="163.439453" xlink:href="#j"/>
<use x="260.851562" xlink:href="#i"/>
<use x="288.634766" xlink:href="#g"/>
<use x="352.013672" xlink:href="#f"/>
<use x="413.292969" xlink:href="#k"/>
</g>
</g>
<path d="m734.75 756.95v35.285q0 2.4 2.4 2.4h7.7425q2.4 0 2.4-2.4v-35.285q0-2.4-2.4-2.4h-7.7425q-2.4 0-2.4 2.4z" clip-path="url(#a)" fill="#fff" stroke="#fff"/>
<g clip-path="url(#a)">
<g transform="translate(738.81 756.95) rotate(90) scale(.08 -.08)">
<use xlink:href="#l"/>
<use x="60.818359" xlink:href="#d"/>
<use x="122.341797" xlink:href="#e"/>
<use x="163.439453" xlink:href="#j"/>
<use x="260.851562" xlink:href="#i"/>
<use x="288.634766" xlink:href="#g"/>
<use x="352.013672" xlink:href="#f"/>
<use x="413.292969" xlink:href="#k"/>
</g>
</g>
<path d="m782.24 756.95v35.285q0 2.4 2.4 2.4h7.7425q2.4 0 2.4-2.4v-35.285q0-2.4-2.4-2.4h-7.7425q-2.4 0-2.4 2.4z" clip-path="url(#a)" fill="#fff" stroke="#fff"/>
<g clip-path="url(#a)">
<g transform="translate(786.3 756.95) rotate(90) scale(.08 -.08)">
<use xlink:href="#l"/>
<use x="60.818359" xlink:href="#d"/>
<use x="122.341797" xlink:href="#e"/>
<use x="163.439453" xlink:href="#j"/>
<use x="260.851562" xlink:href="#i"/>
<use x="288.634766" xlink:href="#g"/>
<use x="352.013672" xlink:href="#f"/>
<use x="413.292969" xlink:href="#k"/>
</g>
</g>
<path d="m117.39 756.95v35.285q0 2.4 2.4 2.4h7.7425q2.4 0 2.4-2.4v-35.285q0-2.4-2.4-2.4h-7.7425q-2.4 0-2.4 2.4z" clip-path="url(#a)" fill="#fff" stroke="#fff"/>
<g clip-path="url(#a)">
<g transform="translate(121.46 756.95) rotate(90) scale(.08 -.08)">
<use xlink:href="#l"/>
<use x="60.818359" xlink:href="#d"/>
<use x="122.341797" xlink:href="#e"/>
<use x="163.439453" xlink:href="#j"/>
<use x="260.851562" xlink:href="#i"/>
<use x="288.634766" xlink:href="#g"/>
<use x="352.013672" xlink:href="#f"/>
<use x="413.292969" xlink:href="#k"/>
</g>
</g>
<path d="m164.88 756.95v35.285q0 2.4 2.4 2.4h7.7425q2.4 0 2.4-2.4v-35.285q0-2.4-2.4-2.4h-7.7425q-2.4 0-2.4 2.4z" clip-path="url(#a)" fill="#fff" stroke="#fff"/>
<g clip-path="url(#a)">
<g transform="translate(168.95 756.95) rotate(90) scale(.08 -.08)">
<use xlink:href="#l"/>
<use x="60.818359" xlink:href="#d"/>
<use x="122.341797" xlink:href="#e"/>
<use x="163.439453" xlink:href="#j"/>
<use x="260.851562" xlink:href="#i"/>
<use x="288.634766" xlink:href="#g"/>
<use x="352.013672" xlink:href="#f"/>
<use x="413.292969" xlink:href="#k"/>
</g>
</g>
<path d="m212.37 756.95v35.285q0 2.4 2.4 2.4h7.7425q2.4 0 2.4-2.4v-35.285q0-2.4-2.4-2.4h-7.7425q-2.4 0-2.4 2.4z" clip-path="url(#a)" fill="#fff" stroke="#fff"/>
<g clip-path="url(#a)">
<g transform="translate(216.44 756.95) rotate(90) scale(.08 -.08)">
<use xlink:href="#l"/>
<use x="60.818359" xlink:href="#d"/>
<use x="122.341797" xlink:href="#e"/>
<use x="163.439453" xlink:href="#j"/>
<use x="260.851562" xlink:href="#i"/>
<use x="288.634766" xlink:href="#g"/>
<use x="352.013672" xlink:href="#f"/>
<use x="413.292969" xlink:href="#k"/>
</g>
</g>
<path d="m234.37 382.69 4.2013-9.0925q1.0067-2.1787-1.172-3.1853l-7.0285-3.2476q-2.1787-1.0067-3.1853 1.172l-4.2013 9.0925q-1.0067 2.1787 1.172 3.1853l7.0285 3.2476q2.1787 1.0067 3.1853-1.172z" clip-path="url(#a)" fill="#fff" stroke="#fff"/>
<g clip-path="url(#a)">
<g transform="translate(230.68 380.98) rotate(-65.2) scale(.08 -.08)">
<use xlink:href="#ac"/>
<use x="55.712891" xlink:href="#z"/>
</g>
</g>
<path d="m532.88 114.48 9.0504 4.092q2.1869 0.98876 3.1756-1.1981l3.1898-7.0549q0.98876-2.1869-1.1981-3.1756l-9.0504-4.092q-2.1869-0.98876-3.1756 1.1981l-3.1898 7.0549q-0.98876 2.1869 1.1981 3.1756z" clip-path="url(#a)" fill="#fff" stroke="#fff"/>
<g clip-path="url(#a)">
<g transform="translate(534.55 110.78) rotate(24.329) scale(.08 -.08)">
<use xlink:href="#ac"/>
<use x="55.744141" xlink:href="#q"/>
</g>
</g>
<path d="m307.35 756.95v35.285q0 2.4 2.4 2.4h7.7425q2.4 0 2.4-2.4v-35.285q0-2.4-2.4-2.4h-7.7425q-2.4 0-2.4 2.4z" clip-path="url(#a)" fill="#fff" stroke="#fff"/>
<g clip-path="url(#a)">
<g transform="translate(311.41 756.95) rotate(90) scale(.08 -.08)">
<use xlink:href="#l"/>
<use x="60.818359" xlink:href="#d"/>
<use x="122.341797" xlink:href="#e"/>
<use x="163.439453" xlink:href="#j"/>
<use x="260.851562" xlink:href="#i"/>
<use x="288.634766" xlink:href="#g"/>
<use x="352.013672" xlink:href="#f"/>
<use x="413.292969" xlink:href="#k"/>
</g>
</g>
<path d="m544.8 756.95v35.285q0 2.4 2.4 2.4h7.7425q2.4 0 2.4-2.4v-35.285q0-2.4-2.4-2.4h-7.7425q-2.4 0-2.4 2.4z" clip-path="url(#a)" fill="#fff" stroke="#fff"/>
<g clip-path="url(#a)">
<g transform="translate(548.86 756.95) rotate(90) scale(.08 -.08)">
<use xlink:href="#l"/>
<use x="60.818359" xlink:href="#d"/>
<use x="122.341797" xlink:href="#e"/>
<use x="163.439453" xlink:href="#j"/>
<use x="260.851562" xlink:href="#i"/>
<use x="288.634766" xlink:href="#g"/>
<use x="352.013672" xlink:href="#f"/>
<use x="413.292969" xlink:href="#k"/>
</g>
</g>
<path d="m829.73 756.95v35.285q0 2.4 2.4 2.4h7.7425q2.4 0 2.4-2.4v-35.285q0-2.4-2.4-2.4h-7.7425q-2.4 0-2.4 2.4z" clip-path="url(#a)" fill="#fff" stroke="#fff"/>
<g clip-path="url(#a)">
<g transform="translate(833.79 756.95) rotate(90) scale(.08 -.08)">
<use xlink:href="#l"/>
<use x="60.818359" xlink:href="#d"/>
<use x="122.341797" xlink:href="#e"/>
<use x="163.439453" xlink:href="#j"/>
<use x="260.851562" xlink:href="#i"/>
<use x="288.634766" xlink:href="#g"/>
<use x="352.013672" xlink:href="#f"/>
<use x="413.292969" xlink:href="#k"/>
</g>
</g>
<path d="m877.22 756.95v35.285q0 2.4 2.4 2.4h7.7425q2.4 0 2.4-2.4v-35.285q0-2.4-2.4-2.4h-7.7425q-2.4 0-2.4 2.4z" clip-path="url(#a)" fill="#fff" stroke="#fff"/>
<g clip-path="url(#a)">
<g transform="translate(881.28 756.95) rotate(90) scale(.08 -.08)">
<use xlink:href="#l"/>
<use x="60.818359" xlink:href="#d"/>
<use x="122.341797" xlink:href="#e"/>
<use x="163.439453" xlink:href="#j"/>
<use x="260.851562" xlink:href="#i"/>
<use x="288.634766" xlink:href="#g"/>
<use x="352.013672" xlink:href="#f"/>
<use x="413.292969" xlink:href="#k"/>
</g>
</g>
<path d="m1589.6 756.95v35.285q0 2.4 2.4 2.4h7.7425q2.4 0 2.4-2.4v-35.285q0-2.4-2.4-2.4h-7.7425q-2.4 0-2.4 2.4z" clip-path="url(#a)" fill="#fff" stroke="#fff"/>
<g clip-path="url(#a)">
<g transform="translate(1593.6 756.95) rotate(90) scale(.08 -.08)">
<use xlink:href="#l"/>
<use x="60.818359" xlink:href="#d"/>
<use x="122.341797" xlink:href="#e"/>
<use x="163.439453" xlink:href="#j"/>
<use x="260.851562" xlink:href="#i"/>
<use x="288.634766" xlink:href="#g"/>
<use x="352.013672" xlink:href="#f"/>
<use x="413.292969" xlink:href="#k"/>
</g>
</g>
<defs>
<path id="b" d="m0 8.6603c2.2967 0 4.4997-0.9125 6.1237-2.5365 1.624-1.624 2.5365-3.827 2.5365-6.1237s-0.9125-4.4997-2.5365-6.1237c-1.624-1.624-3.827-2.5365-6.1237-2.5365s-4.4997 0.9125-6.1237 2.5365c-1.624 1.624-2.5365 3.827-2.5365 6.1237s0.9125 4.4997 2.5365 6.1237c1.624 1.624 3.827 2.5365 6.1237 2.5365z"/>
</defs>
<g clip-path="url(#a)">
<use x="76.1771" y="839.086073" fill="#ffffff" stroke="#ffffff" xlink:href="#b"/>
</g>
<g clip-path="url(#a)">
<use x="123.666032" y="839.086073" fill="#ffffff" stroke="#ffffff" xlink:href="#b"/>
</g>
<g clip-path="url(#a)">
<use x="171.154963" y="839.086073" fill="#ffffff" stroke="#ffffff" xlink:href="#b"/>
</g>
<g clip-path="url(#a)">
<use x="218.643894" y="839.086073" fill="#ffffff" stroke="#ffffff" xlink:href="#b"/>
</g>
<g clip-path="url(#a)">
<use x="266.132825" y="839.086073" fill="#ffffff" stroke="#ffffff" xlink:href="#b"/>
</g>
<g clip-path="url(#a)">
<use x="313.621756" y="839.086073" fill="#ffffff" stroke="#ffffff" xlink:href="#b"/>
</g>
<g clip-path="url(#a)">
<use x="361.110688" y="839.086073" fill="#ffffff" stroke="#ffffff" xlink:href="#b"/>
</g>
<g clip-path="url(#a)">
<use x="408.599619" y="839.086073" fill="#ffffff" stroke="#ffffff" xlink:href="#b"/>
</g>
<g clip-path="url(#a)">
<use x="456.08855" y="839.086073" fill="#ffffff" stroke="#ffffff" xlink:href="#b"/>
</g>
<g clip-path="url(#a)">
<use x="503.577481" y="839.086073" fill="#ffffff" stroke="#ffffff" xlink:href="#b"/>
</g>
<g clip-path="url(#a)">
<use x="551.066413" y="839.086073" fill="#ffffff" stroke="#ffffff" xlink:href="#b"/>
</g>
<g clip-path="url(#a)">
<use x="598.555344" y="839.086073" fill="#ffffff" stroke="#ffffff" xlink:href="#b"/>
</g>
<g clip-path="url(#a)">
<use x="646.044275" y="839.086073" fill="#ffffff" stroke="#ffffff" xlink:href="#b"/>
</g>
<g clip-path="url(#a)">
<use x="693.533206" y="839.086073" fill="#ffffff" stroke="#ffffff" xlink:href="#b"/>
</g>
<g clip-path="url(#a)">
<use x="741.022138" y="839.086073" fill="#ffffff" stroke="#ffffff" xlink:href="#b"/>
</g>
<g clip-path="url(#a)">
<use x="788.511069" y="839.086073" fill="#ffffff" stroke="#ffffff" xlink:href="#b"/>
</g>
<g clip-path="url(#a)">
<use x="836" y="839.086073" fill="#ffffff" stroke="#ffffff" xlink:href="#b"/>
</g>
<g clip-path="url(#a)">
<use x="883.488931" y="839.086073" fill="#ffffff" stroke="#ffffff" xlink:href="#b"/>
</g>
<g clip-path="url(#a)">
<use x="930.977862" y="839.086073" fill="#ffffff" stroke="#ffffff" xlink:href="#b"/>
</g>
<g clip-path="url(#a)">
<use x="978.466794" y="839.086073" fill="#ffffff" stroke="#ffffff" xlink:href="#b"/>
</g>
<g clip-path="url(#a)">
<use x="1025.955725" y="839.086073" fill="#ffffff" stroke="#ffffff" xlink:href="#b"/>
</g>
<g clip-path="url(#a)">
<use x="1073.444656" y="839.086073" fill="#ffffff" stroke="#ffffff" xlink:href="#b"/>
</g>
<g clip-path="url(#a)">
<use x="1120.933587" y="839.086073" fill="#ffffff" stroke="#ffffff" xlink:href="#b"/>
</g>
<g clip-path="url(#a)">
<use x="1168.422519" y="839.086073" fill="#ffffff" stroke="#ffffff" xlink:href="#b"/>
</g>
<g clip-path="url(#a)">
<use x="1215.91145" y="839.086073" fill="#ffffff" stroke="#ffffff" xlink:href="#b"/>
</g>
<g clip-path="url(#a)">
<use x="1263.400381" y="839.086073" fill="#ffffff" stroke="#ffffff" xlink:href="#b"/>
</g>
<g clip-path="url(#a)">
<use x="1310.889312" y="839.086073" fill="#ffffff" stroke="#ffffff" xlink:href="#b"/>
</g>
<g clip-path="url(#a)">
<use x="1358.378244" y="839.086073" fill="#ffffff" stroke="#ffffff" xlink:href="#b"/>
</g>
<g clip-path="url(#a)">
<use x="1405.867175" y="839.086073" fill="#ffffff" stroke="#ffffff" xlink:href="#b"/>
</g>
<g clip-path="url(#a)">
<use x="1453.356106" y="839.086073" fill="#ffffff" stroke="#ffffff" xlink:href="#b"/>
</g>
<g clip-path="url(#a)">
<use x="1500.845037" y="839.086073" fill="#ffffff" stroke="#ffffff" xlink:href="#b"/>
</g>
<g clip-path="url(#a)">
<use x="1548.333968" y="839.086073" fill="#ffffff" stroke="#ffffff" xlink:href="#b"/>
</g>
<g clip-path="url(#a)">
<use x="1595.8229" y="839.086073" fill="#ffffff" stroke="#ffffff" xlink:href="#b"/>
</g>
<g clip-path="url(#a)">
<use x="385.382808" y="40.913927" fill="#ffffff" stroke="#ffffff" xlink:href="#b"/>
</g>
<g clip-path="url(#a)">
<use x="76.1771" y="710.103449" fill="#ffffff" stroke="#ffffff" xlink:href="#b"/>
</g>
<g clip-path="url(#a)">
<use x="694.588516" y="180.716507" fill="#ffffff" stroke="#ffffff" xlink:href="#b"/>
</g>
<g clip-path="url(#a)">
<use x="171.154963" y="581.120825" fill="#ffffff" stroke="#ffffff" xlink:href="#b"/>
</g>
<g clip-path="url(#a)">
<use x="491.705249" y="317.048789" fill="#ffffff" stroke="#ffffff" xlink:href="#b"/>
</g>
<g clip-path="url(#a)">
<use x="954.722328" y="581.120825" fill="#ffffff" stroke="#ffffff" xlink:href="#b"/>
</g>
<g clip-path="url(#a)">
<use x="1085.316889" y="581.120825" fill="#ffffff" stroke="#ffffff" xlink:href="#b"/>
</g>
<g clip-path="url(#a)">
<use x="1249.153702" y="450.343911" fill="#ffffff" stroke="#ffffff" xlink:href="#b"/>
</g>
<g clip-path="url(#a)">
<use x="1287.144847" y="581.120825" fill="#ffffff" stroke="#ffffff" xlink:href="#b"/>
</g>
<g clip-path="url(#a)">
<use x="1382.122709" y="581.120825" fill="#ffffff" stroke="#ffffff" xlink:href="#b"/>
</g>
<g clip-path="url(#a)">
<use x="1500.845037" y="710.103449" fill="#ffffff" stroke="#ffffff" xlink:href="#b"/>
</g>
<g clip-path="url(#a)">
<use x="1358.378244" y="710.103449" fill="#ffffff" stroke="#ffffff" xlink:href="#b"/>
</g>
<g clip-path="url(#a)">
<use x="1405.867175" y="710.103449" fill="#ffffff" stroke="#ffffff" xlink:href="#b"/>
</g>
<g clip-path="url(#a)">
<use x="1263.400381" y="710.103449" fill="#ffffff" stroke="#ffffff" xlink:href="#b"/>
</g>
<g clip-path="url(#a)">
<use x="1310.889312" y="710.103449" fill="#ffffff" stroke="#ffffff" xlink:href="#b"/>
</g>
<g clip-path="url(#a)">
<use x="1025.955725" y="710.103449" fill="#ffffff" stroke="#ffffff" xlink:href="#b"/>
</g>
<g clip-path="url(#a)">
<use x="1144.678053" y="710.103449" fill="#ffffff" stroke="#ffffff" xlink:href="#b"/>
</g>
<g clip-path="url(#a)">
<use x="930.977862" y="710.103449" fill="#ffffff" stroke="#ffffff" xlink:href="#b"/>
</g>
<g clip-path="url(#a)">
<use x="978.466794" y="710.103449" fill="#ffffff" stroke="#ffffff" xlink:href="#b"/>
</g>
<g clip-path="url(#a)">
<use x="361.110688" y="710.103449" fill="#ffffff" stroke="#ffffff" xlink:href="#b"/>
</g>
<g clip-path="url(#a)">
<use x="408.599619" y="710.103449" fill="#ffffff" stroke="#ffffff" xlink:href="#b"/>
</g>
<g clip-path="url(#a)">
<use x="479.833016" y="710.103449" fill="#ffffff" stroke="#ffffff" xlink:href="#b"/>
</g>
<g clip-path="url(#a)">
<use x="657.916508" y="450.343911" fill="#ffffff" stroke="#ffffff" xlink:href="#b"/>
</g>
<g clip-path="url(#a)">
<use x="598.555344" y="710.103449" fill="#ffffff" stroke="#ffffff" xlink:href="#b"/>
</g>
<g clip-path="url(#a)">
<use x="717.277672" y="581.120825" fill="#ffffff" stroke="#ffffff" xlink:href="#b"/>
</g>
<g clip-path="url(#a)">
<use x="646.044275" y="710.103449" fill="#ffffff" stroke="#ffffff" xlink:href="#b"/>
</g>
<g clip-path="url(#a)">
<use x="693.533206" y="710.103449" fill="#ffffff" stroke="#ffffff" xlink:href="#b"/>
</g>
<g clip-path="url(#a)">
<use x="266.132825" y="710.103449" fill="#ffffff" stroke="#ffffff" xlink:href="#b"/>
</g>
<g clip-path="url(#a)">
<use x="741.022138" y="710.103449" fill="#ffffff" stroke="#ffffff" xlink:href="#b"/>
</g>
<g clip-path="url(#a)">
<use x="788.511069" y="710.103449" fill="#ffffff" stroke="#ffffff" xlink:href="#b"/>
</g>
<g clip-path="url(#a)">
<use x="123.666032" y="710.103449" fill="#ffffff" stroke="#ffffff" xlink:href="#b"/>
</g>
<g clip-path="url(#a)">
<use x="171.154963" y="710.103449" fill="#ffffff" stroke="#ffffff" xlink:href="#b"/>
</g>
<g clip-path="url(#a)">
<use x="218.643894" y="710.103449" fill="#ffffff" stroke="#ffffff" xlink:href="#b"/>
</g>
<g clip-path="url(#a)">
<use x="385.382808" y="40.913927" fill="#808080" stroke="#808080" xlink:href="#b"/>
</g>
<g clip-path="url(#a)">
<use x="313.621756" y="710.103449" fill="#ffffff" stroke="#ffffff" xlink:href="#b"/>
</g>
<g clip-path="url(#a)">
<use x="551.066413" y="710.103449" fill="#ffffff" stroke="#ffffff" xlink:href="#b"/>
</g>
<g clip-path="url(#a)">
<use x="836" y="710.103449" fill="#ffffff" stroke="#ffffff" xlink:href="#b"/>
</g>
<g clip-path="url(#a)">
<use x="883.488931" y="710.103449" fill="#ffffff" stroke="#ffffff" xlink:href="#b"/>
</g>
<g clip-path="url(#a)">
<use x="1595.8229" y="710.103449" fill="#ffffff" stroke="#ffffff" xlink:href="#b"/>
</g>
<g clip-path="url(#a)">
<defs>
<path id="aj" d="m45.406 46.391v29.594h8.9844v-75.984h-8.9844v8.2031q-2.8281-4.875-7.1562-7.25-4.3125-2.375-10.375-2.375-9.9062 0-16.141 7.9062-6.2188 7.9219-6.2188 20.812t6.2188 20.797q6.2344 7.9062 16.141 7.9062 6.0625 0 10.375-2.375 4.3281-2.3594 7.1562-7.2344zm-30.609-19.094q0-9.9062 4.0781-15.547t11.203-5.6406 11.219 5.6406q4.1094 5.6406 4.1094 15.547t-4.1094 15.547q-4.0938 5.6406-11.219 5.6406t-11.203-5.6406-4.0781-15.547z"/>
</defs>
<g transform="translate(66.414 841.85) scale(.1 -.1)">
<use xlink:href="#q"/>
<use x="68.408203" xlink:href="#g"/>
<use x="131.787109" xlink:href="#aj"/>
</g>
</g>
<g clip-path="url(#a)">
<g transform="translate(119.11 841.85) scale(.1 -.1)">
<use xlink:href="#i"/>
<use x="27.783203" xlink:href="#g"/>
</g>
</g>
<g clip-path="url(#a)">
<defs>
<path id="r" d="m18.312 70.219v-15.531h18.5v-6.9844h-18.5v-29.688q0-6.6875 1.8281-8.5938t7.4531-1.9062h9.2188v-7.5156h-9.2188q-10.406 0-14.359 3.875-3.9531 3.8906-3.9531 14.141v29.688h-6.5938v6.9844h6.5938v15.531z"/>
<path id="v" d="m54.891 33.016v-33.016h-8.9844v32.719q0 7.7656-3.0312 11.609-3.0312 3.8594-9.0781 3.8594-7.2812 0-11.484-4.6406-4.2031-4.625-4.2031-12.641v-30.906h-9.0312v75.984h9.0312v-29.797q3.2344 4.9375 7.5938 7.375 4.375 2.4375 10.094 2.4375 9.4219 0 14.25-5.8281 4.8438-5.8281 4.8438-17.156z"/>
<path id="s" d="m44.281 53.078v-8.5q-3.7969 1.9531-7.9062 2.9219-4.0938 0.98438-8.5 0.98438-6.6875 0-10.031-2.0469t-3.3438-6.1562q0-3.125 2.3906-4.9062t9.625-3.3906l3.0781-0.6875q9.5625-2.0469 13.594-5.7812t4.0312-10.422q0-7.625-6.0312-12.078-6.0312-4.4375-16.578-4.4375-4.3906 0-9.1562 0.85938t-10.031 2.5625v9.2812q4.9844-2.5938 9.8125-3.8906 4.8281-1.2812 9.5781-1.2812 6.3438 0 9.75 2.1719 3.4219 2.1719 3.4219 6.125 0 3.6562-2.4688 5.6094-2.4531 1.9531-10.812 3.7656l-3.125 0.73438q-8.3438 1.75-12.062 5.3906-3.7031 3.6406-3.7031 9.9844 0 7.7188 5.4688 11.906 5.4688 4.2031 15.531 4.2031 4.9688 0 9.3594-0.73438 4.4062-0.71875 8.1094-2.1875z"/>
</defs>
<g transform="translate(162.03 841.85) scale(.1 -.1)">
<use xlink:href="#r"/>
<use x="39.208984" xlink:href="#v"/>
<use x="102.587891" xlink:href="#i"/>
<use x="130.371094" xlink:href="#s"/>
</g>
</g>
<g clip-path="url(#a)">
<defs>
<path id="an" d="m2.9844 54.688h9.5156l17.094-45.891 17.094 45.891h9.5156l-20.516-54.688h-12.203z"/>
</defs>
<g transform="translate(208.05 841.85) scale(.1 -.1)">
<use xlink:href="#an"/>
<use x="59.179688" xlink:href="#d"/>
<use x="120.703125" xlink:href="#i"/>
<use x="148.486328" xlink:href="#g"/>
</g>
</g>
<g clip-path="url(#a)">
<defs>
<path id="ai" d="m11.719 12.406h10.297v-8.4062l-8-15.625h-6.2969l4 15.625z"/>
</defs>
<g transform="translate(264.54 841.85) scale(.1 -.1)">
<use xlink:href="#ai"/>
</g>
</g>
<g clip-path="url(#a)">
<defs>
<path id="ar" d="m18.797 48.875h-10.297v8.4531l8 15.578h6.2969l-4-15.578zm20.016 0h-10.297v8.4531l8.0156 15.578h6.2969l-4.0156-15.578z"/>
</defs>
<g transform="translate(311.03 841.85) scale(.1 -.1)">
<use xlink:href="#ar"/>
</g>
</g>
<g clip-path="url(#a)">
<g transform="translate(352.91 841.85) scale(.1 -.1)">
<use xlink:href="#r"/>
<use x="39.208984" xlink:href="#v"/>
<use x="102.587891" xlink:href="#d"/>
</g>
</g>
<g clip-path="url(#a)">
<defs>
<path id="p" d="m30.609 48.391q-7.2188 0-11.422-5.6406t-4.2031-15.453 4.1719-15.453q4.1875-5.6406 11.453-5.6406 7.1875 0 11.375 5.6562 4.2031 5.6719 4.2031 15.438 0 9.7188-4.2031 15.406-4.1875 5.6875-11.375 5.6875zm0 7.6094q11.719 0 18.406-7.625 6.7031-7.6094 6.7031-21.078 0-13.422-6.7031-21.078-6.6875-7.6406-18.406-7.6406-11.766 0-18.438 7.6406-6.6562 7.6562-6.6562 21.078 0 13.469 6.6562 21.078 6.6719 7.625 18.438 7.625z"/>
<path id="ak" d="m48.688 27.297q0 9.9062-4.0781 15.547t-11.203 5.6406q-7.1406 0-11.219-5.6406t-4.0781-15.547 4.0781-15.547 11.219-5.6406q7.125 0 11.203 5.6406t4.0781 15.547zm-30.578 19.094q2.8438 4.875 7.1562 7.2344 4.3281 2.375 10.328 2.375 9.9688 0 16.188-7.9062 6.2344-7.9062 6.2344-20.797t-6.2344-20.812q-6.2188-7.9062-16.188-7.9062-6 0-10.328 2.375-4.3125 2.375-7.1562 7.25v-8.2031h-9.0312v75.984h9.0312z"/>
</defs>
<g transform="translate(383.38 841.85) scale(.1 -.1)">
<use xlink:href="#v"/>
<use x="63.378906" xlink:href="#p"/>
<use x="124.560547" xlink:href="#g"/>
<use x="187.939453" xlink:href="#p"/>
<use x="249.121094" xlink:href="#e"/>
<use x="290.234375" xlink:href="#f"/>
<use x="351.513672" xlink:href="#ak"/>
<use x="414.990234" xlink:href="#k"/>
<use x="442.773438" xlink:href="#d"/>
</g>
</g>
<g clip-path="url(#a)">
<g transform="translate(441.42 841.85) scale(.1 -.1)">
<use xlink:href="#x"/>
<use x="60.271484" xlink:href="#i"/>
<use x="88.054688" xlink:href="#d"/>
<use x="149.578125" xlink:href="#e"/>
<use x="190.675781" xlink:href="#e"/>
<use x="231.757812" xlink:href="#d"/>
</g>
</g>
<g clip-path="url(#a)">
<defs>
<path id="aw" d="m54.891 54.688-19.781-26.609 20.797-28.078h-10.594l-15.922 21.484-15.906-21.484h-10.609l21.25 28.609-19.438 26.078h10.594l14.5-19.484 14.5 19.484z"/>
</defs>
<g transform="translate(482.68 841.85) scale(.1 -.1)">
<use xlink:href="#q"/>
<use x="68.408203" xlink:href="#e"/>
<use x="109.490234" xlink:href="#p"/>
<use x="170.671875" xlink:href="#g"/>
<use x="234.050781" xlink:href="#g"/>
<use x="297.429688" xlink:href="#f"/>
<use x="358.708984" xlink:href="#aw"/>
</g>
</g>
<g clip-path="url(#a)">
<g transform="translate(549.48 841.85) scale(.1 -.1)">
<use xlink:href="#ai"/>
</g>
</g>
<g clip-path="url(#a)">
<defs>
<path id="ao" d="m37.109 75.984v-7.4844h-8.5938q-4.8281 0-6.7188-1.9531-1.875-1.9531-1.875-7.0312v-4.8281h14.797v-6.9844h-14.797v-47.703h-9.0312v47.703h-8.5938v6.9844h8.5938v3.8125q0 9.125 4.25 13.297 4.25 4.1875 13.469 4.1875z"/>
</defs>
<g transform="translate(575.27 841.85) scale(.1 -.1)">
<use xlink:href="#x"/>
<use x="60.287109" xlink:href="#e"/>
<use x="101.369141" xlink:href="#p"/>
<use x="162.550781" xlink:href="#ao"/>
<use x="197.755859" xlink:href="#d"/>
<use x="259.279297" xlink:href="#s"/>
<use x="311.378906" xlink:href="#s"/>
<use x="363.478516" xlink:href="#p"/>
<use x="424.660156" xlink:href="#e"/>
</g>
</g>
<g clip-path="url(#a)">
<g transform="translate(641.02 841.85) scale(.1 -.1)">
<use xlink:href="#f"/>
<use x="61.279297" xlink:href="#r"/>
</g>
</g>
<g clip-path="url(#a)">
<g transform="translate(685.33 841.85) scale(.1 -.1)">
<use xlink:href="#r"/>
<use x="39.208984" xlink:href="#v"/>
<use x="102.587891" xlink:href="#d"/>
</g>
</g>
<g clip-path="url(#a)">
<g transform="translate(728.9 841.85) scale(.1 -.1)">
<use xlink:href="#x"/>
<use x="60.240234" xlink:href="#f"/>
<use x="121.519531" xlink:href="#e"/>
<use x="162.632812" xlink:href="#i"/>
<use x="190.416016" xlink:href="#s"/>
</g>
</g>
<g clip-path="url(#a)">
<defs>
<path id="at" d="m9.8125 72.906h14.703l18.594-49.609 18.703 49.609h14.703v-72.906h-9.625v64.016l-18.797-50h-9.9062l-18.797 50v-64.016h-9.5781z"/>
<path id="ab" d="m8.5 21.578v33.109h8.9844v-32.766q0-7.7656 3.0156-11.656 3.0312-3.875 9.0938-3.875 7.2656 0 11.484 4.6406 4.2344 4.6406 4.2344 12.656v31h8.9844v-54.688h-8.9844v8.4062q-3.2656-4.9844-7.5938-7.4062-4.3125-2.4219-10.031-2.4219-9.4219 0-14.312 5.8594-4.875 5.8594-4.875 17.141z"/>
</defs>
<g transform="translate(767.31 841.85) scale(.1 -.1)">
<use xlink:href="#at"/>
<use x="86.279297" xlink:href="#ab"/>
<use x="149.658203" xlink:href="#s"/>
<use x="201.757812" xlink:href="#d"/>
<use x="263.28125" xlink:href="#ab"/>
<use x="326.660156" xlink:href="#j"/>
</g>
</g>
<g clip-path="url(#a)">
<g transform="translate(834.41 841.85) scale(.1 -.1)">
<use xlink:href="#ai"/>
</g>
</g>
<g clip-path="url(#a)">
<defs>
<path id="aq" d="m12.5 72.906h10.297v-8.4062l-8-15.625h-6.2969l4 15.625zm20.016 0h10.312v-8.4062l-8.0156-15.625h-6.2969l4 15.625z"/>
</defs>
<g transform="translate(880.9 841.85) scale(.1 -.1)">
<use xlink:href="#aq"/>
</g>
</g>
<g clip-path="url(#a)">
<defs>
<path id="aa" d="m4.2031 54.688h8.9844l11.234-42.672 11.172 42.672h10.594l11.234-42.672 11.188 42.672h8.9844l-14.312-54.688h-10.594l-11.766 44.828-11.812-44.828h-10.609z"/>
</defs>
<g transform="translate(921.22 841.85) scale(.1 -.1)">
<use xlink:href="#aa"/>
<use x="81.787109" xlink:href="#f"/>
<use x="143.066406" xlink:href="#s"/>
</g>
</g>
<g clip-path="url(#a)">
<g transform="translate(950.47 841.85) scale(.1 -.1)">
<use xlink:href="#s"/>
<use x="52.099609" xlink:href="#ab"/>
<use x="115.478516" xlink:href="#j"/>
<use x="212.890625" xlink:href="#j"/>
<use x="310.302734" xlink:href="#p"/>
<use x="371.484375" xlink:href="#g"/>
<use x="434.863281" xlink:href="#d"/>
<use x="496.386719" xlink:href="#aj"/>
</g>
</g>
<g clip-path="url(#a)">
<defs>
<path id="av" d="m32.172-5.0781q-3.7969-9.7656-7.4219-12.734-3.6094-2.9844-9.6562-2.9844h-7.1875v7.5156h5.2812q3.7031 0 5.75 1.7656 2.0625 1.75 4.5469 8.2969l1.6094 4.0938-22.109 53.812h9.5156l17.094-42.766 17.094 42.766h9.5156z"/>
</defs>
<g transform="translate(1019.8 841.85) scale(.1 -.1)">
<use xlink:href="#ak"/>
<use x="63.476562" xlink:href="#av"/>
</g>
</g>
<g clip-path="url(#a)">
<g transform="translate(1064.1 841.85) scale(.1 -.1)">
<use xlink:href="#l"/>
<use x="61.083984" xlink:href="#v"/>
<use x="124.462891" xlink:href="#d"/>
</g>
</g>
<g clip-path="url(#a)">
<defs>
<path id="as" d="m9.8125 72.906h13.281l32.328-60.984v60.984h9.5625v-72.906h-13.281l-32.312 60.984v-60.984h-9.5781z"/>
</defs>
<g transform="translate(1110 841.85) scale(.1 -.1)">
<use xlink:href="#as"/>
<use x="74.804688" xlink:href="#d"/>
<use x="136.328125" xlink:href="#aa"/>
</g>
</g>
<g clip-path="url(#a)">
<defs>
<path id="ap" d="m-0.20312 72.906h10.609l20.203-29.984 20.078 29.984h10.594l-25.781-38.188v-34.719h-9.9062v34.719z"/>
<path id="ax" d="m9.0781 75.984h9.0312v-44.875l26.812 23.578h11.469l-29-25.578 30.234-29.109h-11.719l-27.797 26.703v-26.703h-9.0312z"/>
</defs>
<g transform="translate(1157.4 841.85) scale(.1 -.1)">
<use xlink:href="#ap"/>
<use x="60.880859" xlink:href="#p"/>
<use x="122.0625" xlink:href="#e"/>
<use x="163.175781" xlink:href="#ax"/>
</g>
</g>
<g clip-path="url(#a)">
<g transform="translate(1199.4 841.85) scale(.1 -.1)">
<use xlink:href="#al"/>
<use x="75.195312" xlink:href="#d"/>
<use x="136.71875" xlink:href="#e"/>
<use x="177.832031" xlink:href="#f"/>
<use x="239.111328" xlink:href="#k"/>
<use x="266.894531" xlink:href="#aj"/>
</g>
</g>
<g clip-path="url(#a)">
<g transform="translate(1258.4 841.85) scale(.1 -.1)">
<use xlink:href="#r"/>
<use x="39.208984" xlink:href="#p"/>
</g>
</g>
<g clip-path="url(#a)">
<g transform="translate(1286.5 841.85) scale(.1 -.1)">
<use xlink:href="#ao"/>
<use x="35.205078" xlink:href="#p"/>
<use x="96.386719" xlink:href="#e"/>
<use x="137.484375" xlink:href="#j"/>
<use x="234.896484" xlink:href="#ab"/>
<use x="298.275391" xlink:href="#k"/>
<use x="326.058594" xlink:href="#f"/>
<use x="387.337891" xlink:href="#r"/>
<use x="426.546875" xlink:href="#d"/>
</g>
</g>
<g clip-path="url(#a)">
<g transform="translate(1351.2 841.85) scale(.1 -.1)">
<use xlink:href="#v"/>
<use x="63.378906" xlink:href="#i"/>
<use x="91.162109" xlink:href="#s"/>
</g>
</g>
<g clip-path="url(#a)">
<g transform="translate(1391.7 841.85) scale(.1 -.1)">
<use xlink:href="#an"/>
<use x="59.179688" xlink:href="#i"/>
<use x="86.962891" xlink:href="#d"/>
<use x="148.486328" xlink:href="#aa"/>
<use x="230.273438" xlink:href="#s"/>
</g>
</g>
<g clip-path="url(#a)">
<g transform="translate(1447.1 841.85) scale(.1 -.1)">
<use xlink:href="#g"/>
<use x="63.378906" xlink:href="#p"/>
</g>
</g>
<g clip-path="url(#a)">
<g transform="translate(1483.9 841.85) scale(.1 -.1)">
<use xlink:href="#j"/>
<use x="97.412109" xlink:href="#f"/>
<use x="158.691406" xlink:href="#r"/>
<use x="197.900391" xlink:href="#r"/>
<use x="237.109375" xlink:href="#d"/>
<use x="298.632812" xlink:href="#e"/>
</g>
</g>
<g clip-path="url(#a)">
<g transform="translate(1536.1 841.85) scale(.1 -.1)">
<use xlink:href="#aa"/>
<use x="81.787109" xlink:href="#v"/>
<use x="145.166016" xlink:href="#f"/>
<use x="206.445312" xlink:href="#r"/>
</g>
</g>
<g clip-path="url(#a)">
<defs>
<path id="h" d="m10.688 12.406h10.312v-12.406h-10.312z"/>
</defs>
<g transform="translate(1594.2 841.85) scale(.1 -.1)">
<use xlink:href="#h"/>
</g>
</g>
<g clip-path="url(#a)">
<defs>
<path id="c" d="m12.406 8.2969h16.109v55.625l-17.531-3.5156v8.9844l17.438 3.5156h9.8594v-64.609h16.109v-8.2969h-41.984z"/>
</defs>
<g transform="translate(377.43 43.673) scale(.1 -.1)">
<use xlink:href="#c"/>
<use x="63.623047" xlink:href="#h"/>
<use x="95.410156" xlink:href="#c"/>
</g>
</g>
<g clip-path="url(#a)">
<defs>
<path id="n" d="m19.188 8.2969h34.422v-8.2969h-46.281v8.2969q5.6094 5.8125 15.297 15.594 9.7031 9.7969 12.188 12.641 4.7344 5.3125 6.6094 9 1.8906 3.6875 1.8906 7.25 0 5.8125-4.0781 9.4688-4.0781 3.6719-10.625 3.6719-4.6406 0-9.7969-1.6094-5.1406-1.6094-11-4.8906v9.9688q5.9531 2.3906 11.125 3.6094 5.1875 1.2188 9.4844 1.2188 11.328 0 18.062-5.6719 6.7344-5.6562 6.7344-15.125 0-4.5-1.6875-8.5312-1.6719-4.0156-6.125-9.4844-1.2188-1.4219-7.7656-8.1875-6.5312-6.7656-18.453-18.922z"/>
</defs>
<g transform="translate(68.226 712.86) scale(.1 -.1)">
<use xlink:href="#c"/>
<use x="63.623047" xlink:href="#h"/>
<use x="95.410156" xlink:href="#n"/>
</g>
</g>
<g clip-path="url(#a)">
<defs>
<path id="m" d="m40.578 39.312q7.0781-1.5156 11.047-6.3125 3.9844-4.7812 3.9844-11.812 0-10.781-7.4219-16.703-7.4219-5.9062-21.094-5.9062-4.5781 0-9.4375 0.90625t-10.031 2.7188v9.5156q4.0938-2.3906 8.9688-3.6094 4.8906-1.2188 10.219-1.2188 9.2656 0 14.125 3.6562t4.8594 10.641q0 6.4531-4.5156 10.078-4.5156 3.6406-12.562 3.6406h-8.5v8.1094h8.8906q7.2656 0 11.125 2.9062t3.8594 8.375q0 5.6094-3.9844 8.6094-3.9688 3.0156-11.391 3.0156-4.0625 0-8.7031-0.89062-4.6406-0.875-10.203-2.7188v8.7812q5.625 1.5625 10.531 2.3438t9.25 0.78125q11.234 0 17.766-5.1094 6.5469-5.0938 6.5469-13.781 0-6.0625-3.4688-10.234t-9.8594-5.7812z"/>
</defs>
<g transform="translate(686.64 183.48) scale(.1 -.1)">
<use xlink:href="#c"/>
<use x="63.623047" xlink:href="#h"/>
<use x="95.410156" xlink:href="#m"/>
</g>
</g>
<g clip-path="url(#a)">
<defs>
<path id="y" d="m10.797 72.906h38.719v-8.3125h-29.688v-17.859q2.1406 0.73438 4.2812 1.0938 2.1562 0.35938 4.3125 0.35938 12.203 0 19.328-6.6875 7.1406-6.6875 7.1406-18.109 0-11.766-7.3281-18.297-7.3281-6.5156-20.656-6.5156-4.5938 0-9.3594 0.78125-4.75 0.78125-9.8281 2.3438v9.9219q4.3906-2.3906 9.0781-3.5625t9.9062-1.1719q8.4531 0 13.375 4.4375 4.9375 4.4375 4.9375 12.062 0 7.6094-4.9375 12.047-4.9219 4.4531-13.375 4.4531-3.9531 0-7.8906-0.875-3.9219-0.875-8.0156-2.7344z"/>
</defs>
<g transform="translate(163.2 583.88) scale(.1 -.1)">
<use xlink:href="#c"/>
<use x="63.623047" xlink:href="#h"/>
<use x="95.410156" xlink:href="#y"/>
</g>
</g>
<g clip-path="url(#a)">
<defs>
<path id="ae" d="m31.781 34.625q-7.0312 0-11.062-3.7656-4.0156-3.7656-4.0156-10.344 0-6.5938 4.0156-10.359 4.0312-3.7656 11.062-3.7656t11.078 3.7812q4.0625 3.7969 4.0625 10.344 0 6.5781-4.0312 10.344-4.0156 3.7656-11.109 3.7656zm-9.8594 4.1875q-6.3438 1.5625-9.8906 5.9062-3.5312 4.3594-3.5312 10.609 0 8.7344 6.2188 13.812 6.2344 5.0781 17.062 5.0781 10.891 0 17.094-5.0781t6.2031-13.812q0-6.25-3.5469-10.609-3.5312-4.3438-9.8281-5.9062 7.125-1.6562 11.094-6.5 3.9844-4.8281 3.9844-11.797 0-10.609-6.4688-16.281-6.4688-5.6562-18.531-5.6562-12.047 0-18.531 5.6562-6.4688 5.6719-6.4688 16.281 0 6.9688 4 11.797 4.0156 4.8438 11.141 6.5zm-3.6094 15.578q0-5.6562 3.5312-8.8281 3.5469-3.1719 9.9375-3.1719 6.3594 0 9.9375 3.1719 3.5938 3.1719 3.5938 8.8281 0 5.6719-3.5938 8.8438-3.5781 3.1719-9.9375 3.1719-6.3906 0-9.9375-3.1719-3.5312-3.1719-3.5312-8.8438z"/>
</defs>
<g transform="translate(483.75 319.81) scale(.1 -.1)">
<use xlink:href="#c"/>
<use x="63.623047" xlink:href="#h"/>
<use x="95.410156" xlink:href="#ae"/>
</g>
</g>
<g clip-path="url(#a)">
<g transform="translate(943.59 583.88) scale(.1 -.1)">
<use xlink:href="#c"/>
<use x="63.623047" xlink:href="#h"/>
<use x="95.410156" xlink:href="#c"/>
<use x="159.033203" xlink:href="#c"/>
</g>
</g>
<g clip-path="url(#a)">
<g transform="translate(1074.2 583.88) scale(.1 -.1)">
<use xlink:href="#c"/>
<use x="63.623047" xlink:href="#h"/>
<use x="95.410156" xlink:href="#c"/>
<use x="159.033203" xlink:href="#n"/>
</g>
</g>
<g clip-path="url(#a)">
<g transform="translate(1238 453.1) scale(.1 -.1)">
<use xlink:href="#c"/>
<use x="63.623047" xlink:href="#h"/>
<use x="95.410156" xlink:href="#c"/>
<use x="159.033203" xlink:href="#m"/>
</g>
</g>
<g clip-path="url(#a)">
<defs>
<path id="o" d="m37.797 64.312-24.906-38.922h24.906zm-2.5938 8.5938h12.406v-47.516h10.406v-8.2031h-10.406v-17.188h-9.8125v17.188h-32.906v9.5156z"/>
</defs>
<g transform="translate(1276 583.88) scale(.1 -.1)">
<use xlink:href="#c"/>
<use x="63.623047" xlink:href="#h"/>
<use x="95.410156" xlink:href="#c"/>
<use x="159.033203" xlink:href="#o"/>
</g>
</g>
<g clip-path="url(#a)">
<g transform="translate(1371 583.88) scale(.1 -.1)">
<use xlink:href="#c"/>
<use x="63.623047" xlink:href="#h"/>
<use x="95.410156" xlink:href="#c"/>
<use x="159.033203" xlink:href="#y"/>
</g>
</g>
<g clip-path="url(#a)">
<defs>
<path id="ag" d="m33.016 40.375q-6.6406 0-10.531-4.5469-3.875-4.5312-3.875-12.438 0-7.8594 3.875-12.438 3.8906-4.5625 10.531-4.5625t10.516 4.5625q3.875 4.5781 3.875 12.438 0 7.9062-3.875 12.438-3.875 4.5469-10.516 4.5469zm19.578 30.922v-8.9844q-3.7188 1.75-7.5 2.6719-3.7812 0.9375-7.5 0.9375-9.7656 0-14.922-6.5938-5.1406-6.5938-5.875-19.922 2.875 4.25 7.2188 6.5156 4.3594 2.2656 9.5781 2.2656 10.984 0 17.359-6.6719 6.375-6.6562 6.375-18.125 0-11.234-6.6406-18.031-6.6406-6.7812-17.672-6.7812-12.656 0-19.344 9.6875-6.6875 9.7031-6.6875 28.109 0 17.281 8.2031 27.562t22.016 10.281q3.7188 0 7.5-0.73438t7.8906-2.1875z"/>
</defs>
<g transform="translate(1489.7 712.86) scale(.1 -.1)">
<use xlink:href="#c"/>
<use x="63.623047" xlink:href="#h"/>
<use x="95.410156" xlink:href="#c"/>
<use x="159.033203" xlink:href="#ag"/>
</g>
</g>
<g clip-path="url(#a)">
<defs>
<path id="af" d="m8.2031 72.906h46.875v-4.2031l-26.469-68.703h-10.297l24.906 64.594h-35.016z"/>
</defs>
<g transform="translate(1347.2 712.86) scale(.1 -.1)">
<use xlink:href="#c"/>
<use x="63.623047" xlink:href="#h"/>
<use x="95.410156" xlink:href="#c"/>
<use x="159.033203" xlink:href="#af"/>
</g>
</g>
<g clip-path="url(#a)">
<g transform="translate(1394.7 712.86) scale(.1 -.1)">
<use xlink:href="#c"/>
<use x="63.623047" xlink:href="#h"/>
<use x="95.410156" xlink:href="#c"/>
<use x="159.033203" xlink:href="#ae"/>
</g>
</g>
<g clip-path="url(#a)">
<defs>
<path id="ad" d="m10.984 1.5156v8.9844q3.7188-1.7656 7.5156-2.6875 3.8125-0.92188 7.4844-0.92188 9.7656 0 14.906 6.5625 5.1562 6.5625 5.8906 19.953-2.8281-4.2031-7.1875-6.4531-4.3438-2.25-9.6094-2.25-10.938 0-17.312 6.6094-6.375 6.625-6.375 18.109 0 11.219 6.6406 18 6.6406 6.7969 17.672 6.7969 12.656 0 19.312-9.7031 6.6719-9.6875 6.6719-28.141 0-17.234-8.1875-27.516-8.1719-10.281-21.984-10.281-3.7188 0-7.5312 0.73438-3.7969 0.73438-7.9062 2.2031zm19.625 30.906q6.6406 0 10.516 4.5312 3.8906 4.5469 3.8906 12.469 0 7.8594-3.8906 12.422-3.875 4.5625-10.516 4.5625t-10.516-4.5625-3.875-12.422q0-7.9219 3.875-12.469 3.875-4.5312 10.516-4.5312z"/>
</defs>
<g transform="translate(1252.3 712.86) scale(.1 -.1)">
<use xlink:href="#c"/>
<use x="63.623047" xlink:href="#h"/>
<use x="95.410156" xlink:href="#c"/>
<use x="159.033203" xlink:href="#ad"/>
</g>
</g>
<g clip-path="url(#a)">
<defs>
<path id="ah" d="m31.781 66.406q-7.6094 0-11.453-7.5-3.8281-7.4844-3.8281-22.531 0-14.984 3.8281-22.484 3.8438-7.5 11.453-7.5 7.6719 0 11.5 7.5 3.8438 7.5 3.8438 22.484 0 15.047-3.8438 22.531-3.8281 7.5-11.5 7.5zm0 7.8125q12.266 0 18.734-9.7031 6.4688-9.6875 6.4688-28.141 0-18.406-6.4688-28.109-6.4688-9.6875-18.734-9.6875-12.25 0-18.719 9.6875-6.4688 9.7031-6.4688 28.109 0 18.453 6.4688 28.141 6.4688 9.7031 18.719 9.7031z"/>
</defs>
<g transform="translate(1299.8 712.86) scale(.1 -.1)">
<use xlink:href="#c"/>
<use x="63.623047" xlink:href="#h"/>
<use x="95.410156" xlink:href="#n"/>
<use x="159.033203" xlink:href="#ah"/>
</g>
</g>
<g clip-path="url(#a)">
<g transform="translate(1014.8 712.86) scale(.1 -.1)">
<use xlink:href="#c"/>
<use x="63.623047" xlink:href="#h"/>
<use x="95.410156" xlink:href="#n"/>
<use x="159.033203" xlink:href="#c"/>
</g>
</g>
<g clip-path="url(#a)">
<g transform="translate(1133.5 712.86) scale(.1 -.1)">
<use xlink:href="#c"/>
<use x="63.623047" xlink:href="#h"/>
<use x="95.410156" xlink:href="#n"/>
<use x="159.033203" xlink:href="#n"/>
</g>
</g>
<g clip-path="url(#a)">
<g transform="translate(919.85 712.86) scale(.1 -.1)">
<use xlink:href="#c"/>
<use x="63.623047" xlink:href="#h"/>
<use x="95.410156" xlink:href="#n"/>
<use x="159.033203" xlink:href="#m"/>
</g>
</g>
<g clip-path="url(#a)">
<g transform="translate(967.33 712.86) scale(.1 -.1)">
<use xlink:href="#c"/>
<use x="63.623047" xlink:href="#h"/>
<use x="95.410156" xlink:href="#n"/>
<use x="159.033203" xlink:href="#o"/>
</g>
</g>
<g clip-path="url(#a)">
<g transform="translate(349.98 712.86) scale(.1 -.1)">
<use xlink:href="#c"/>
<use x="63.623047" xlink:href="#h"/>
<use x="95.410156" xlink:href="#n"/>
<use x="159.033203" xlink:href="#y"/>
</g>
</g>
<g clip-path="url(#a)">
<g transform="translate(397.47 712.86) scale(.1 -.1)">
<use xlink:href="#c"/>
<use x="63.623047" xlink:href="#h"/>
<use x="95.410156" xlink:href="#n"/>
<use x="159.033203" xlink:href="#ag"/>
</g>
</g>
<g clip-path="url(#a)">
<g transform="translate(468.7 712.86) scale(.1 -.1)">
<use xlink:href="#c"/>
<use x="63.623047" xlink:href="#h"/>
<use x="95.410156" xlink:href="#n"/>
<use x="159.033203" xlink:href="#af"/>
</g>
</g>
<g clip-path="url(#a)">
<g transform="translate(646.78 453.1) scale(.1 -.1)">
<use xlink:href="#c"/>
<use x="63.623047" xlink:href="#h"/>
<use x="95.410156" xlink:href="#n"/>
<use x="159.033203" xlink:href="#ad"/>
</g>
</g>
<g clip-path="url(#a)">
<g transform="translate(587.42 712.86) scale(.1 -.1)">
<use xlink:href="#c"/>
<use x="63.623047" xlink:href="#h"/>
<use x="95.410156" xlink:href="#m"/>
<use x="159.033203" xlink:href="#ah"/>
</g>
</g>
<g clip-path="url(#a)">
<g transform="translate(706.14 583.88) scale(.1 -.1)">
<use xlink:href="#c"/>
<use x="63.623047" xlink:href="#h"/>
<use x="95.410156" xlink:href="#m"/>
<use x="159.033203" xlink:href="#c"/>
</g>
</g>
<g clip-path="url(#a)">
<g transform="translate(634.91 712.86) scale(.1 -.1)">
<use xlink:href="#c"/>
<use x="63.623047" xlink:href="#h"/>
<use x="95.410156" xlink:href="#m"/>
<use x="159.033203" xlink:href="#n"/>
</g>
</g>
<g clip-path="url(#a)">
<g transform="translate(682.4 712.86) scale(.1 -.1)">
<use xlink:href="#c"/>
<use x="63.623047" xlink:href="#h"/>
<use x="95.410156" xlink:href="#m"/>
<use x="159.033203" xlink:href="#m"/>
</g>
</g>
<g clip-path="url(#a)">
<g transform="translate(255 712.86) scale(.1 -.1)">
<use xlink:href="#c"/>
<use x="63.623047" xlink:href="#h"/>
<use x="95.410156" xlink:href="#m"/>
<use x="159.033203" xlink:href="#o"/>
</g>
</g>
<g clip-path="url(#a)">
<g transform="translate(729.89 712.86) scale(.1 -.1)">
<use xlink:href="#c"/>
<use x="63.623047" xlink:href="#h"/>
<use x="95.410156" xlink:href="#m"/>
<use x="159.033203" xlink:href="#y"/>
</g>
</g>
<g clip-path="url(#a)">
<g transform="translate(777.38 712.86) scale(.1 -.1)">
<use xlink:href="#c"/>
<use x="63.623047" xlink:href="#h"/>
<use x="95.410156" xlink:href="#m"/>
<use x="159.033203" xlink:href="#ag"/>
</g>
</g>
<g clip-path="url(#a)">
<g transform="translate(112.53 712.86) scale(.1 -.1)">
<use xlink:href="#c"/>
<use x="63.623047" xlink:href="#h"/>
<use x="95.410156" xlink:href="#m"/>
<use x="159.033203" xlink:href="#af"/>
</g>
</g>
<g clip-path="url(#a)">
<g transform="translate(160.02 712.86) scale(.1 -.1)">
<use xlink:href="#c"/>
<use x="63.623047" xlink:href="#h"/>
<use x="95.410156" xlink:href="#m"/>
<use x="159.033203" xlink:href="#ae"/>
</g>
</g>
<g clip-path="url(#a)">
<g transform="translate(207.51 712.86) scale(.1 -.1)">
<use xlink:href="#c"/>
<use x="63.623047" xlink:href="#h"/>
<use x="95.410156" xlink:href="#m"/>
<use x="159.033203" xlink:href="#ad"/>
</g>
</g>
<g clip-path="url(#a)">
<g transform="translate(374.25 43.673) scale(.1 -.1)">
<use xlink:href="#c"/>
<use x="63.623047" xlink:href="#h"/>
<use x="95.410156" xlink:href="#o"/>
<use x="159.033203" xlink:href="#ah"/>
</g>
</g>
<g clip-path="url(#a)">
<g transform="translate(302.49 712.86) scale(.1 -.1)">
<use xlink:href="#c"/>
<use x="63.623047" xlink:href="#h"/>
<use x="95.410156" xlink:href="#o"/>
<use x="159.033203" xlink:href="#c"/>
</g>
</g>
<g clip-path="url(#a)">
<g transform="translate(539.93 712.86) scale(.1 -.1)">
<use xlink:href="#c"/>
<use x="63.623047" xlink:href="#h"/>
<use x="95.410156" xlink:href="#o"/>
<use x="159.033203" xlink:href="#n"/>
</g>
</g>
<g clip-path="url(#a)">
<g transform="translate(824.87 712.86) scale(.1 -.1)">
<use xlink:href="#c"/>
<use x="63.623047" xlink:href="#h"/>
<use x="95.410156" xlink:href="#o"/>
<use x="159.033203" xlink:href="#m"/>
</g>
</g>
<g clip-path="url(#a)">
<g transform="translate(872.36 712.86) scale(.1 -.1)">
<use xlink:href="#c"/>
<use x="63.623047" xlink:href="#h"/>
<use x="95.410156" xlink:href="#o"/>
<use x="159.033203" xlink:href="#o"/>
</g>
</g>
<g clip-path="url(#a)">
<g transform="translate(1584.7 712.86) scale(.1 -.1)">
<use xlink:href="#c"/>
<use x="63.623047" xlink:href="#h"/>
<use x="95.410156" xlink:href="#o"/>
<use x="159.033203" xlink:href="#y"/>
</g>
</g>
<defs>
<clipPath id="a">
<rect width="1672" height="880"/>
</clipPath>
</defs>
</svg>
