<?xml version="1.0" encoding="UTF-8"?>
<!DOCTYPE svg  PUBLIC '-//W3C//DTD SVG 1.1//EN'  'http://www.w3.org/Graphics/SVG/1.1/DTD/svg11.dtd'>
<svg width="1469.3pt" height="773.33pt" version="1.1" viewBox="0 0 1469.3 773.33" xmlns="http://www.w3.org/2000/svg" xmlns:xlink="http://www.w3.org/1999/xlink">
<metadata>
<rdf:RDF xmlns:cc="http://creativecommons.org/ns#" xmlns:dc="http://purl.org/dc/elements/1.1/" xmlns:rdf="http://www.w3.org/1999/02/22-rdf-syntax-ns#">
<cc:Work>
<dc:type rdf:resource="http://purl.org/dc/dcmitype/StillImage"/>
<dc:date>2021-04-21T07:11:28.065839</dc:date>
<dc:format>image/svg+xml</dc:format>
<dc:creator>
<cc:Agent>
<dc:title>Matplotlib v3.3.3, https://matplotlib.org/</dc:title>
</cc:Agent>
</dc:creator>
</cc:Work>
</rdf:RDF>
</metadata>
<defs>
<style type="text/css">*{stroke-linecap:butt;stroke-linejoin:round;}</style>
</defs>
<path d="m0 773.33h1469.3v-773.33h-1469.3z" fill="#fff"/>
<g fill="none" stroke="#000">
<path d="m542.02 35.152-220.84 177.27" clip-path="url(#a)"/>
<path d="m542.02 35.152 2.9694 177.27" clip-path="url(#a)"/>
<path d="m542.02 35.152 250.23 529.69" clip-path="url(#a)"/>
<path d="m542.02 35.152 480.53 353.94" clip-path="url(#a)"/>
<path d="m542.02 35.152-475.23 529.69" clip-path="url(#a)"/>
<path d="m542.02 35.152-37.653 529.69" clip-path="url(#a)"/>
<path d="m321.18 212.42-172.82 176.67" clip-path="url(#a)"/>
<path d="m321.18 212.42 66.596 176.67" clip-path="url(#a)"/>
<path d="m321.18 212.42 134.25 352.42" clip-path="url(#a)"/>
<path d="m321.18 212.42-32.722 352.42" clip-path="url(#a)"/>
<path d="m321.18 212.42 4.702 352.42" clip-path="url(#a)"/>
<path d="m544.99 212.42 11.195 352.42" clip-path="url(#a)"/>
<path d="m544.99 212.42 124.43 176.67" clip-path="url(#a)"/>
<path d="m544.99 212.42-135.62 352.42" clip-path="url(#a)" stroke-dasharray="3.7,1.6"/>
<path d="m792.24 564.84v173.34" clip-path="url(#a)"/>
<path d="m1022.5 389.09-164.09 175.75" clip-path="url(#a)"/>
<path d="m1022.5 389.09-95 175.75" clip-path="url(#a)"/>
<path d="m1022.5 389.09-23.03 175.75" clip-path="url(#a)"/>
<path d="m1022.5 389.09 51.818 175.75" clip-path="url(#a)"/>
<path d="m1022.5 389.09 169.85 175.75" clip-path="url(#a)"/>
<path d="m1022.5 389.09-613.18 175.75" clip-path="url(#a)" stroke-dasharray="3.7,1.6"/>
<path d="m1022.5 389.09 293.64 175.75" clip-path="url(#a)"/>
<path d="m1022.5 389.09 380 175.75" clip-path="url(#a)"/>
<path d="m858.45 564.84v173.34" clip-path="url(#a)"/>
<path d="m927.55 564.84v173.34" clip-path="url(#a)"/>
<path d="m999.52 564.84v173.34" clip-path="url(#a)"/>
<path d="m1074.4 564.84v173.34" clip-path="url(#a)"/>
<path d="m1192.4 564.84-40.303 173.34" clip-path="url(#a)"/>
<path d="m1192.4 564.84 40.303 173.34" clip-path="url(#a)"/>
<path d="m556.18 564.84v173.34" clip-path="url(#a)"/>
<path d="m669.41 389.09-58.535 175.75" clip-path="url(#a)"/>
<path d="m669.41 389.09-0.9596 175.75" clip-path="url(#a)"/>
<path d="m669.41 389.09 59.495 175.75" clip-path="url(#a)"/>
<path d="m610.88 564.84v173.34" clip-path="url(#a)"/>
<path d="m668.45 564.84v173.34" clip-path="url(#a)"/>
<path d="m728.91 564.84v173.34" clip-path="url(#a)"/>
<path d="m148.35 389.09 105.56 175.75" clip-path="url(#a)"/>
<path d="m148.35 389.09 105.56 175.75" clip-path="url(#a)"/>
<path d="m148.35 389.09-72.929 175.75" clip-path="url(#a)"/>
<path d="m148.35 389.09-9.596 175.75" clip-path="url(#a)"/>
<path d="m148.35 389.09 99.798 175.75" clip-path="url(#a)"/>
<path d="m148.35 389.09-61.414 175.75" clip-path="url(#a)"/>
<path d="m148.35 389.09-47.02 175.75" clip-path="url(#a)"/>
<path d="m148.35 389.09-29.747 175.75" clip-path="url(#a)"/>
<path d="m148.35 389.09 13.434 175.75" clip-path="url(#a)"/>
<path d="m148.35 389.09 39.343 175.75" clip-path="url(#a)"/>
<path d="m148.35 389.09 68.131 175.75" clip-path="url(#a)"/>
<path d="m387.77 389.09-21.591 175.75" clip-path="url(#a)"/>
<path d="m387.77 389.09 21.591 175.75" clip-path="url(#a)"/>
<path d="m455.42 564.84v173.34" clip-path="url(#a)"/>
<path d="m366.18 564.84v173.34" clip-path="url(#a)"/>
<path d="m409.36 564.84v173.34" clip-path="url(#a)"/>
<path d="m75.424 564.84v173.34" clip-path="url(#a)"/>
<path d="m138.76 564.84v173.34" clip-path="url(#a)"/>
<path d="m248.15 564.84v173.34" clip-path="url(#a)"/>
<path d="m66.788 564.84v173.34" clip-path="url(#a)"/>
<path d="m86.939 564.84v173.34" clip-path="url(#a)"/>
<path d="m101.33 564.84v173.34" clip-path="url(#a)"/>
<path d="m118.61 564.84v173.34" clip-path="url(#a)"/>
<path d="m161.79 564.84v173.34" clip-path="url(#a)"/>
<path d="m187.7 564.84v173.34" clip-path="url(#a)"/>
<path d="m216.48 564.84v173.34" clip-path="url(#a)"/>
<path d="m288.45 564.84v173.34" clip-path="url(#a)"/>
<path d="m325.88 564.84v173.34" clip-path="url(#a)"/>
<path d="m504.36 564.84v173.34" clip-path="url(#a)"/>
<path d="m1316.2 564.84v173.34" clip-path="url(#a)"/>
<path d="m1402.5 564.84v173.34" clip-path="url(#a)"/>
</g>
<path d="m433.18 130.56 4.6917-3.7661q1.8716-1.5024 0.36924-3.374l-4.8467-6.0379q-1.5024-1.8716-3.374-0.36924l-4.6917 3.7661q-1.8716 1.5024-0.36924 3.374l4.8467 6.0379q1.5024 1.8716 3.374 0.36924z" clip-path="url(#a)" fill="#fff" stroke="#fff"/>
<g clip-path="url(#a)">
<g transform="translate(430.63 127.39) rotate(-38.755) scale(.08 -.08)">
<defs>
<path id="ad" d="m9.8125 72.906h9.8594v-29.891h35.844v29.891h9.8594v-72.906h-9.8594v34.719h-35.844v-34.719h-9.8594z"/>
</defs>
<use xlink:href="#ad"/>
</g>
</g>
<path d="m537.18 120.88 0.10076 6.0154q0.040196 2.3997 2.4399 2.3595l7.7414-0.12967q2.3997-0.040195 2.3595-2.4399l-0.10076-6.0154q-0.040195-2.3997-2.4399-2.3595l-7.7414 0.12967q-2.3997 0.040196-2.3595 2.4399z" clip-path="url(#a)" fill="#fff" stroke="#fff"/>
<g clip-path="url(#a)">
<g transform="translate(541.24 120.82) rotate(89.04) scale(.08 -.08)">
<use xlink:href="#ad"/>
</g>
</g>
<path d="m660.51 300.66 1.904 4.0304q1.0251 2.17 3.1952 1.1449l7.0007-3.3071q2.17-1.0251 1.1449-3.1952l-1.904-4.0304q-1.0251-2.17-3.1952-1.1449l-7.0007 3.3071q-2.17 1.0251-1.1449 3.1952z" clip-path="url(#a)" fill="#fff" stroke="#fff"/>
<g clip-path="url(#a)">
<g transform="translate(664.18 298.93) rotate(64.714) scale(.08 -.08)">
<defs>
<path id="ac" d="m9.8125 72.906h9.8594v-64.609h35.5v-8.2969h-45.359z"/>
</defs>
<use xlink:href="#ac"/>
</g>
</g>
<path d="m776.14 215.39 4.844 3.568q1.9324 1.4233 3.3557-0.50905l4.5917-6.234q1.4233-1.9324-0.50905-3.3557l-4.844-3.568q-1.9324-1.4233-3.3557 0.50905l-4.5917 6.234q-1.4233 1.9324 0.50905 3.3557z" clip-path="url(#a)" fill="#fff" stroke="#fff"/>
<g clip-path="url(#a)">
<g transform="translate(778.55 212.12) rotate(36.374) scale(.08 -.08)">
<use xlink:href="#ad"/>
</g>
</g>
<path d="m307.12 306.36 3.91-4.3581q1.6027-1.7864-0.18368-3.3891l-5.763-5.1705q-1.7864-1.6027-3.3891 0.18368l-3.91 4.3581q-1.6027 1.7864 0.18368 3.3891l5.763 5.1705q1.7864 1.6027 3.3891-0.18368z" clip-path="url(#a)" fill="#fff" stroke="#fff"/>
<g clip-path="url(#a)">
<g transform="translate(304.09 303.65) rotate(-48.102) scale(.08 -.08)">
<defs>
<path id="n" d="m8.6875 72.906h9.9219v-44.297q0-11.719 4.2344-16.875 4.25-5.1406 13.781-5.1406 9.4688 0 13.719 5.1406 4.25 5.1562 4.25 16.875v44.297h9.9062v-45.516q0-14.25-7.0625-21.531-7.0469-7.2812-20.812-7.2812-13.828 0-20.891 7.2812-7.0469 7.2812-7.0469 21.531z"/>
</defs>
<use xlink:href="#n"/>
</g>
</g>
<path d="m529.24 303.36 0.41516-5.8403q0.17018-2.394-2.2238-2.5641l-7.723-0.549q-2.394-0.17018-2.5641 2.2238l-0.41516 5.8403q-0.17018 2.394 2.2238 2.5641l7.723 0.549q2.394 0.17018 2.5641-2.2238z" clip-path="url(#a)" fill="#fff" stroke="#fff"/>
<g clip-path="url(#a)">
<g transform="translate(525.18 303.07) rotate(-85.934) scale(.08 -.08)">
<use xlink:href="#n"/>
</g>
</g>
<path d="m237.33 307.1 3.8268-3.912q1.6783-1.7156-0.037365-3.3939l-5.5347-5.4142q-1.7156-1.6783-3.3939 0.037365l-3.8268 3.912q-1.6783 1.7156 0.037365 3.3939l5.5347 5.4142q1.7156 1.6783 3.3939-0.037365z" clip-path="url(#a)" fill="#fff" stroke="#fff"/>
<g clip-path="url(#a)">
<g transform="translate(234.43 304.26) rotate(-45.631) scale(.08 -.08)">
<defs>
<path id="u" d="m34.188 63.188-13.391-36.281h26.812zm-5.5781 9.7188h11.188l27.781-72.906h-10.25l-6.6406 18.703h-32.859l-6.6406-18.703h-10.406z"/>
</defs>
<use xlink:href="#u"/>
</g>
</g>
<path d="m347.64 300.41 1.9303 5.1208q0.84653 2.2457 3.0923 1.3992l7.2449-2.7309q2.2457-0.84653 1.3992-3.0923l-1.9303-5.1208q-0.84653-2.2457-3.0923-1.3992l-7.2449 2.7309q-2.2457 0.84653-1.3992 3.0923z" clip-path="url(#a)" fill="#fff" stroke="#fff"/>
<g clip-path="url(#a)">
<g transform="translate(351.44 298.98) rotate(69.346) scale(.08 -.08)">
<use xlink:href="#u"/>
</g>
</g>
<path d="m381.58 388.61 1.7171 4.5078q0.85434 2.2428 3.0971 1.3884l7.2353-2.7562q2.2428-0.85434 1.3884-3.0971l-1.7171-4.5078q-0.85434-2.2428-3.0971-1.3884l-7.2353 2.7562q-2.2428 0.85434-1.3884 3.0971z" clip-path="url(#a)" fill="#fff" stroke="#fff"/>
<g clip-path="url(#a)">
<g transform="translate(385.38 387.17) rotate(69.147) scale(.08 -.08)">
<defs>
<path id="r" d="m19.672 64.797v-27.391h12.406q6.8906 0 10.641 3.5625 3.7656 3.5625 3.7656 10.156 0 6.5469-3.7656 10.109-3.75 3.5625-10.641 3.5625zm-9.8594 8.1094h22.266q12.266 0 18.531-5.5469 6.2812-5.5469 6.2812-16.234 0-10.797-6.2812-16.312-6.2656-5.5156-18.531-5.5156h-12.406v-29.297h-9.8594z"/>
</defs>
<use xlink:href="#r"/>
</g>
</g>
<path d="m310.79 392.13 0.54131-5.8299q0.22188-2.3897-2.1678-2.6116l-7.7093-0.71581q-2.3897-0.22188-2.6116 2.1678l-0.54131 5.8299q-0.22188 2.3897 2.1678 2.6116l7.7093 0.71581q2.3897 0.22188 2.6116-2.1678z" clip-path="url(#a)" fill="#fff" stroke="#fff"/>
<g clip-path="url(#a)">
<g transform="translate(306.74 391.75) rotate(-84.695) scale(.08 -.08)">
<use xlink:href="#n"/>
</g>
</g>
<path d="m317.22 385.79 0.078111 5.8545q0.032019 2.3998 2.4318 2.3678l7.7418-0.10329q2.3998-0.032018 2.3678-2.4318l-0.078111-5.8545q-0.032018-2.3998-2.4318-2.3678l-7.7418 0.10329q-2.3998 0.032018-2.3678 2.4318z" clip-path="url(#a)" fill="#fff" stroke="#fff"/>
<g clip-path="url(#a)">
<g transform="translate(321.28 385.74) rotate(89.236) scale(.08 -.08)">
<use xlink:href="#n"/>
</g>
</g>
<path d="m544.24 386.42 0.15316 4.8213q0.076202 2.3988 2.475 2.3226l7.7386-0.24583q2.3988-0.076202 2.3226-2.475l-0.15316-4.8213q-0.076202-2.3988-2.475-2.3226l-7.7386 0.24583q-2.3988 0.076202-2.3226 2.475z" clip-path="url(#a)" fill="#fff" stroke="#fff"/>
<g clip-path="url(#a)">
<g transform="translate(548.3 386.29) rotate(88.181) scale(.08 -.08)">
<use xlink:href="#r"/>
</g>
</g>
<path d="m600.5 302.13 3.1511 4.4742q1.382 1.9622 3.3441 0.58024l6.3301-4.4582q1.9622-1.382 0.58024-3.3441l-3.1511-4.4742q-1.382-1.9622-3.3441-0.58024l-6.3301 4.4582q-1.9622 1.382-0.58024 3.3441z" clip-path="url(#a)" fill="#fff" stroke="#fff"/>
<g clip-path="url(#a)">
<g transform="translate(603.82 299.79) rotate(54.843) scale(.08 -.08)">
<use xlink:href="#u"/>
</g>
</g>
<path d="m482.05 393.44 1.9655-5.1074q0.86197-2.2399-1.3779-3.1018l-7.2259-2.7808q-2.2399-0.86197-3.1018 1.3779l-1.9655 5.1074q-0.86198 2.2399 1.3779 3.1018l7.2259 2.7808q2.2399 0.86197 3.1018-1.3779z" clip-path="url(#a)" fill="#fff" stroke="#fff"/>
<g clip-path="url(#a)">
<g transform="translate(478.25 391.98) rotate(-68.952) scale(.08 -.08)">
<use xlink:href="#u"/>
</g>
</g>
<path d="m785.97 634.61v33.808q0 2.4 2.4 2.4h7.7425q2.4 0 2.4-2.4v-33.808q0-2.4-2.4-2.4h-7.7425q-2.4 0-2.4 2.4z" clip-path="url(#a)" fill="#fff" stroke="#fff"/>
<g clip-path="url(#a)">
<g transform="translate(790.03 634.61) rotate(90) scale(.08 -.08)">
<defs>
<path id="k" d="m-0.29688 72.906h61.672v-8.3125h-25.875v-64.594h-9.9062v64.594h-25.891z"/>
<path id="e" d="m56.203 29.594v-4.3906h-41.312q0.59375-9.2812 5.5938-14.141t13.938-4.8594q5.1719 0 10.031 1.2656t9.6562 3.8125v-8.5q-4.8438-2.0469-9.9219-3.125t-10.297-1.0781q-13.094 0-20.734 7.6094-7.6406 7.625-7.6406 20.625 0 13.422 7.25 21.297 7.25 7.8906 19.562 7.8906 11.031 0 17.453-7.1094 6.4219-7.0938 6.4219-19.297zm-8.9844 2.6406q-0.09375 7.3594-4.125 11.75-4.0312 4.4062-10.672 4.4062-7.5156 0-12.031-4.25t-5.2031-11.969z"/>
<path id="j" d="m41.109 46.297q-1.5156 0.875-3.2969 1.2812-1.7812 0.42188-3.9219 0.42188-7.625 0-11.703-4.9531t-4.0781-14.234v-28.812h-9.0312v54.688h9.0312v-8.5q2.8438 4.9844 7.375 7.3906 4.5469 2.4219 11.047 2.4219 0.92188 0 2.0469-0.125 1.125-0.10938 2.4844-0.35938z"/>
<path id="l" d="m52 44.188q3.375 6.0625 8.0625 8.9375t11.031 2.875q8.5469 0 13.188-5.9844 4.6406-5.9688 4.6406-17v-33.016h-9.0312v32.719q0 7.8594-2.7969 11.656-2.7812 3.8125-8.4844 3.8125-6.9844 0-11.047-4.6406-4.0469-4.625-4.0469-12.641v-30.906h-9.0312v32.719q0 7.9062-2.7812 11.688t-8.5938 3.7812q-6.8906 0-10.953-4.6562-4.0469-4.6562-4.0469-12.625v-30.906h-9.0312v54.688h9.0312v-8.5q3.0781 5.0312 7.375 7.4219t10.203 2.3906q5.9688 0 10.141-3.0312 4.1719-3.0156 6.1719-8.7812z"/>
<path id="f" d="m9.4219 54.688h8.9844v-54.688h-8.9844zm0 21.297h8.9844v-11.391h-8.9844z"/>
<path id="g" d="m54.891 33.016v-33.016h-8.9844v32.719q0 7.7656-3.0312 11.609-3.0312 3.8594-9.0781 3.8594-7.2812 0-11.484-4.6406-4.2031-4.625-4.2031-12.641v-30.906h-9.0312v54.688h9.0312v-8.5q3.2344 4.9375 7.5938 7.375 4.375 2.4375 10.094 2.4375 9.4219 0 14.25-5.8281 4.8438-5.8281 4.8438-17.156z"/>
<path id="h" d="m34.281 27.484q-10.891 0-15.094-2.4844t-4.2031-8.5q0-4.7812 3.1562-7.5938 3.1562-2.7969 8.5625-2.7969 7.4844 0 12 5.2969t4.5156 14.078v2zm17.922 3.7188v-31.203h-8.9844v8.2969q-3.0781-4.9688-7.6719-7.3438t-11.234-2.375q-8.3906 0-13.359 4.7188-4.9531 4.7188-4.9531 12.625 0 9.2188 6.1719 13.906 6.1875 4.6875 18.438 4.6875h12.609v0.89062q0 6.2031-4.0781 9.5938t-11.453 3.3906q-4.6875 0-9.1406-1.125-4.4375-1.125-8.5312-3.375v8.3125q4.9219 1.9062 9.5625 2.8438 4.6406 0.95312 9.0312 0.95312 11.875 0 17.734-6.1562 5.8594-6.1406 5.8594-18.641z"/>
<path id="i" d="m9.4219 75.984h8.9844v-75.984h-8.9844z"/>
</defs>
<use xlink:href="#k"/>
<use x="44.083984" xlink:href="#e"/>
<use x="105.607422" xlink:href="#j"/>
<use x="144.970703" xlink:href="#l"/>
<use x="242.382812" xlink:href="#f"/>
<use x="270.166016" xlink:href="#g"/>
<use x="333.544922" xlink:href="#h"/>
<use x="394.824219" xlink:href="#i"/>
</g>
</g>
<path d="m942.98 483.5 4.2039-4.5026q1.6379-1.7542-0.11637-3.3921l-5.6593-5.2839q-1.7542-1.6379-3.3921 0.11637l-4.2039 4.5026q-1.6379 1.7542 0.11637 3.3921l5.6593 5.2839q1.7542 1.6379 3.3921-0.11637z" clip-path="url(#a)" fill="#fff" stroke="#fff"/>
<g clip-path="url(#a)">
<g transform="translate(940.01 480.73) rotate(-46.965) scale(.08 -.08)">
<defs>
<path id="t" d="m19.672 64.797v-56.688h11.922q15.094 0 22.094 6.8281 7 6.8438 7 21.594 0 14.641-7 21.453t-22.094 6.8125zm-9.8594 8.1094h20.266q21.188 0 31.094-8.8125 9.9219-8.8125 9.9219-27.562 0-18.859-9.9688-27.703-9.9531-8.8281-31.047-8.8281h-20.266z"/>
</defs>
<use xlink:href="#t"/>
</g>
</g>
<path d="m979.1 482.66 2.9292-5.419q1.1412-2.1113-0.97005-3.2525l-6.8111-3.6817q-2.1113-1.1412-3.2525 0.97005l-2.9292 5.419q-1.1412 2.1113 0.97005 3.2525l6.8111 3.6817q2.1113 1.1412 3.2525-0.97005z" clip-path="url(#a)" fill="#fff" stroke="#fff"/>
<g clip-path="url(#a)">
<g transform="translate(975.52 480.73) rotate(-61.607) scale(.08 -.08)">
<use xlink:href="#t"/>
</g>
</g>
<path d="m1016.8 480.84 0.80037-6.1078q0.31183-2.3797-2.0678-2.6915l-7.6769-1.006q-2.3797-0.31183-2.6915 2.0678l-0.80037 6.1078q-0.31183 2.3797 2.0678 2.6915l7.6769 1.006q2.3797 0.31183 2.6915-2.0678z" clip-path="url(#a)" fill="#fff" stroke="#fff"/>
<g clip-path="url(#a)">
<g transform="translate(1012.8 480.31) rotate(-82.534) scale(.08 -.08)">
<use xlink:href="#t"/>
</g>
</g>
<path d="m1041.8 476.54 1.3013 4.4134q0.67873 2.302 2.9808 1.6233l7.4264-2.1896q2.302-0.67873 1.6233-2.9808l-1.3013-4.4134q-0.67873-2.302-2.9808-1.6233l-7.4264 2.1896q-2.302 0.67873-1.6233 2.9808z" clip-path="url(#a)" fill="#fff" stroke="#fff"/>
<g clip-path="url(#a)">
<g transform="translate(1045.7 475.39) rotate(73.572) scale(.08 -.08)">
<defs>
<path id="ai" d="m9.8125 72.906h41.891v-8.3125h-32.031v-21.484h28.906v-8.2969h-28.906v-34.812h-9.8594z"/>
</defs>
<use xlink:href="#ai"/>
</g>
</g>
<path d="m1101.3 479.59 3.3522 3.4686q1.6678 1.7258 3.3936 0.057942l5.5674-5.3805q1.7258-1.6678 0.057943-3.3936l-3.3522-3.4686q-1.6678-1.7258-3.3936-0.057942l-5.5674 5.3805q-1.7258 1.6678-0.057943 3.3936z" clip-path="url(#a)" fill="#fff" stroke="#fff"/>
<g clip-path="url(#a)">
<g transform="translate(1104.2 476.77) rotate(45.978) scale(.08 -.08)">
<use xlink:href="#r"/>
</g>
</g>
<path d="m715.05 483.75 5.2607-1.5078q2.3071-0.66126 1.6458-2.9684l-2.1332-7.4428q-0.66126-2.3071-2.9684-1.6458l-5.2607 1.5078q-2.3071 0.66126-1.6458 2.9684l2.1332 7.4428q0.66126 2.3071 2.9684 1.6458z" clip-path="url(#a)" fill="#fff" stroke="#fff"/>
<g clip-path="url(#a)">
<g transform="translate(713.93 479.85) rotate(-15.993) scale(.08 -.08)">
<use xlink:href="#u"/>
</g>
</g>
<path d="m1163.6 480.85 5.0239 3.0069q2.0593 1.2326 3.2919-0.82676l3.9763-6.6435q1.2326-2.0593-0.82676-3.2919l-5.0239-3.0069q-2.0593-1.2326-3.2919 0.82676l-3.9763 6.6435q-1.2326 2.0593 0.82676 3.2919z" clip-path="url(#a)" fill="#fff" stroke="#fff"/>
<g clip-path="url(#a)">
<g transform="translate(1165.7 477.36) rotate(30.902) scale(.08 -.08)">
<use xlink:href="#n"/>
</g>
</g>
<path d="m1207.3 481.43 5.3142 2.4578q2.1783 1.0075 3.1858-1.1708l3.2501-7.0273q1.0075-2.1783-1.1708-3.1858l-5.3142-2.4578q-2.1783-1.0075-3.1858 1.1708l-3.2501 7.0273q-1.0075 2.1783 1.1708 3.1858z" clip-path="url(#a)" fill="#fff" stroke="#fff"/>
<g clip-path="url(#a)">
<g transform="translate(1209 477.74) rotate(24.82) scale(.08 -.08)">
<use xlink:href="#n"/>
</g>
</g>
<path d="m852.18 634.61v33.808q0 2.4 2.4 2.4h7.7425q2.4 0 2.4-2.4v-33.808q0-2.4-2.4-2.4h-7.7425q-2.4 0-2.4 2.4z" clip-path="url(#a)" fill="#fff" stroke="#fff"/>
<g clip-path="url(#a)">
<g transform="translate(856.25 634.61) rotate(90) scale(.08 -.08)">
<use xlink:href="#k"/>
<use x="44.083984" xlink:href="#e"/>
<use x="105.607422" xlink:href="#j"/>
<use x="144.970703" xlink:href="#l"/>
<use x="242.382812" xlink:href="#f"/>
<use x="270.166016" xlink:href="#g"/>
<use x="333.544922" xlink:href="#h"/>
<use x="394.824219" xlink:href="#i"/>
</g>
</g>
<path d="m921.27 634.61v33.808q0 2.4 2.4 2.4h7.7425q2.4 0 2.4-2.4v-33.808q0-2.4-2.4-2.4h-7.7425q-2.4 0-2.4 2.4z" clip-path="url(#a)" fill="#fff" stroke="#fff"/>
<g clip-path="url(#a)">
<g transform="translate(925.34 634.61) rotate(90) scale(.08 -.08)">
<use xlink:href="#k"/>
<use x="44.083984" xlink:href="#e"/>
<use x="105.607422" xlink:href="#j"/>
<use x="144.970703" xlink:href="#l"/>
<use x="242.382812" xlink:href="#f"/>
<use x="270.166016" xlink:href="#g"/>
<use x="333.544922" xlink:href="#h"/>
<use x="394.824219" xlink:href="#i"/>
</g>
</g>
<path d="m993.24 634.61v33.808q0 2.4 2.4 2.4h7.7425q2.4 0 2.4-2.4v-33.808q0-2.4-2.4-2.4h-7.7425q-2.4 0-2.4 2.4z" clip-path="url(#a)" fill="#fff" stroke="#fff"/>
<g clip-path="url(#a)">
<g transform="translate(997.31 634.61) rotate(90) scale(.08 -.08)">
<use xlink:href="#k"/>
<use x="44.083984" xlink:href="#e"/>
<use x="105.607422" xlink:href="#j"/>
<use x="144.970703" xlink:href="#l"/>
<use x="242.382812" xlink:href="#f"/>
<use x="270.166016" xlink:href="#g"/>
<use x="333.544922" xlink:href="#h"/>
<use x="394.824219" xlink:href="#i"/>
</g>
</g>
<path d="m1068.1 634.61v33.808q0 2.4 2.4 2.4h7.7425q2.4 0 2.4-2.4v-33.808q0-2.4-2.4-2.4h-7.7425q-2.4 0-2.4 2.4z" clip-path="url(#a)" fill="#fff" stroke="#fff"/>
<g clip-path="url(#a)">
<g transform="translate(1072.2 634.61) rotate(90) scale(.08 -.08)">
<use xlink:href="#k"/>
<use x="44.083984" xlink:href="#e"/>
<use x="105.607422" xlink:href="#j"/>
<use x="144.970703" xlink:href="#l"/>
<use x="242.382812" xlink:href="#f"/>
<use x="270.166016" xlink:href="#g"/>
<use x="333.544922" xlink:href="#h"/>
<use x="394.824219" xlink:href="#i"/>
</g>
</g>
<path d="m1174.5 669.4 7.6564-32.929q0.54353-2.3376-1.7941-2.8812l-7.5413-1.7534q-2.3376-0.54353-2.8812 1.7941l-7.6564 32.929q-0.54353 2.3376 1.7941 2.8812l7.5413 1.7534q2.3376 0.54353 2.8812-1.7941z" clip-path="url(#a)" fill="#fff" stroke="#fff"/>
<g clip-path="url(#a)">
<g transform="translate(1170.6 668.48) rotate(-76.911) scale(.08 -.08)">
<use xlink:href="#k"/>
<use x="44.083984" xlink:href="#e"/>
<use x="105.607422" xlink:href="#j"/>
<use x="144.970703" xlink:href="#l"/>
<use x="242.382812" xlink:href="#f"/>
<use x="270.166016" xlink:href="#g"/>
<use x="333.544922" xlink:href="#h"/>
<use x="394.824219" xlink:href="#i"/>
</g>
</g>
<path d="m1202.6 636.47 7.6564 32.929q0.54353 2.3376 2.8812 1.7941l7.5413-1.7534q2.3376-0.54353 1.7941-2.8812l-7.6564-32.929q-0.54353-2.3376-2.8812-1.7941l-7.5413 1.7534q-2.3376 0.54353-1.7941 2.8812z" clip-path="url(#a)" fill="#fff" stroke="#fff"/>
<g clip-path="url(#a)">
<g transform="translate(1206.6 635.55) rotate(76.911) scale(.08 -.08)">
<use xlink:href="#k"/>
<use x="44.083984" xlink:href="#e"/>
<use x="105.607422" xlink:href="#j"/>
<use x="144.970703" xlink:href="#l"/>
<use x="242.382812" xlink:href="#f"/>
<use x="270.166016" xlink:href="#g"/>
<use x="333.544922" xlink:href="#h"/>
<use x="394.824219" xlink:href="#i"/>
</g>
</g>
<path d="m549.91 634.61v33.808q0 2.4 2.4 2.4h7.7425q2.4 0 2.4-2.4v-33.808q0-2.4-2.4-2.4h-7.7425q-2.4 0-2.4 2.4z" clip-path="url(#a)" fill="#fff" stroke="#fff"/>
<g clip-path="url(#a)">
<g transform="translate(553.97 634.61) rotate(90) scale(.08 -.08)">
<use xlink:href="#k"/>
<use x="44.083984" xlink:href="#e"/>
<use x="105.607422" xlink:href="#j"/>
<use x="144.970703" xlink:href="#l"/>
<use x="242.382812" xlink:href="#f"/>
<use x="270.166016" xlink:href="#g"/>
<use x="333.544922" xlink:href="#h"/>
<use x="394.824219" xlink:href="#i"/>
</g>
</g>
<path d="m645.22 481.59 1.7565-5.2739q0.75839-2.277-1.5186-3.0354l-7.3458-2.4466q-2.277-0.75839-3.0354 1.5186l-1.7565 5.2739q-0.75839 2.277 1.5186 3.0354l7.3458 2.4466q2.277 0.75839 3.0354-1.5186z" clip-path="url(#a)" fill="#fff" stroke="#fff"/>
<g clip-path="url(#a)">
<g transform="translate(641.36 480.3) rotate(-71.579) scale(.08 -.08)">
<defs>
<path id="ar" d="m44.391 34.188q3.1719-1.0781 6.1719-4.5938t6.0312-9.6719l10.016-19.922h-10.609l-9.3125 18.703q-3.625 7.3281-7.0156 9.7188t-9.25 2.3906h-10.75v-30.812h-9.8594v72.906h22.266q12.5 0 18.656-5.2344 6.1562-5.2188 6.1562-15.766 0-6.8906-3.2031-11.438-3.2031-4.5312-9.2969-6.2812zm-24.719 30.609v-25.875h12.406q7.125 0 10.766 3.2969t3.6406 9.6875-3.6406 9.6406-10.766 3.25z"/>
</defs>
<use xlink:href="#ar"/>
</g>
</g>
<path d="m675.19 479.53 0.0276-5.0549q0.013104-2.4-2.3869-2.4131l-7.7424-0.042273q-2.4-0.013104-2.4131 2.3869l-0.0276 5.0549q-0.013104 2.4 2.3869 2.4131l7.7424 0.042273q2.4 0.013104 2.4131-2.3869z" clip-path="url(#a)" fill="#fff" stroke="#fff"/>
<g clip-path="url(#a)">
<g transform="translate(671.13 479.51) rotate(-89.687) scale(.08 -.08)">
<defs>
<path id="as" d="m9.8125 72.906h46.094v-8.3125h-36.234v-21.578h34.719v-8.2969h-34.719v-26.422h37.109v-8.2969h-46.969z"/>
</defs>
<use xlink:href="#as"/>
</g>
</g>
<path d="m692.33 476.33 1.7912 5.2913q0.76955 2.2733 3.0428 1.5037l7.3337-2.4826q2.2733-0.76955 1.5037-3.0428l-1.7912-5.2913q-0.76955-2.2733-3.0428-1.5037l-7.3337 2.4826q-2.2733 0.76955-1.5037 3.0428z" clip-path="url(#a)" fill="#fff" stroke="#fff"/>
<g clip-path="url(#a)">
<g transform="translate(696.18 475.03) rotate(71.298) scale(.08 -.08)">
<defs>
<path id="v" d="m64.406 67.281v-10.391q-4.9844 4.6406-10.625 6.9219-5.6406 2.2969-11.984 2.2969-12.5 0-19.141-7.6406t-6.6406-22.094q0-14.406 6.6406-22.047t19.141-7.6406q6.3438 0 11.984 2.2969t10.625 6.9375v-10.312q-5.1719-3.5156-10.969-5.2812-5.7812-1.75-12.219-1.75-16.562 0-26.094 10.125-9.5156 10.141-9.5156 27.672 0 17.578 9.5156 27.703 9.5312 10.141 26.094 10.141 6.5312 0 12.312-1.7344 5.7969-1.7344 10.875-5.2031z"/>
</defs>
<use xlink:href="#v"/>
</g>
</g>
<path d="m604.61 634.61v33.808q0 2.4 2.4 2.4h7.7425q2.4 0 2.4-2.4v-33.808q0-2.4-2.4-2.4h-7.7425q-2.4 0-2.4 2.4z" clip-path="url(#a)" fill="#fff" stroke="#fff"/>
<g clip-path="url(#a)">
<g transform="translate(608.67 634.61) rotate(90) scale(.08 -.08)">
<use xlink:href="#k"/>
<use x="44.083984" xlink:href="#e"/>
<use x="105.607422" xlink:href="#j"/>
<use x="144.970703" xlink:href="#l"/>
<use x="242.382812" xlink:href="#f"/>
<use x="270.166016" xlink:href="#g"/>
<use x="333.544922" xlink:href="#h"/>
<use x="394.824219" xlink:href="#i"/>
</g>
</g>
<path d="m662.18 634.61v33.808q0 2.4 2.4 2.4h7.7425q2.4 0 2.4-2.4v-33.808q0-2.4-2.4-2.4h-7.7425q-2.4 0-2.4 2.4z" clip-path="url(#a)" fill="#fff" stroke="#fff"/>
<g clip-path="url(#a)">
<g transform="translate(666.25 634.61) rotate(90) scale(.08 -.08)">
<use xlink:href="#k"/>
<use x="44.083984" xlink:href="#e"/>
<use x="105.607422" xlink:href="#j"/>
<use x="144.970703" xlink:href="#l"/>
<use x="242.382812" xlink:href="#f"/>
<use x="270.166016" xlink:href="#g"/>
<use x="333.544922" xlink:href="#h"/>
<use x="394.824219" xlink:href="#i"/>
</g>
</g>
<path d="m722.64 634.61v33.808q0 2.4 2.4 2.4h7.7425q2.4 0 2.4-2.4v-33.808q0-2.4-2.4-2.4h-7.7425q-2.4 0-2.4 2.4z" clip-path="url(#a)" fill="#fff" stroke="#fff"/>
<g clip-path="url(#a)">
<g transform="translate(726.7 634.61) rotate(90) scale(.08 -.08)">
<use xlink:href="#k"/>
<use x="44.083984" xlink:href="#e"/>
<use x="105.607422" xlink:href="#j"/>
<use x="144.970703" xlink:href="#l"/>
<use x="242.382812" xlink:href="#f"/>
<use x="270.166016" xlink:href="#g"/>
<use x="333.544922" xlink:href="#h"/>
<use x="394.824219" xlink:href="#i"/>
</g>
</g>
<path d="m194.51 478.13 2.4836 4.1352q1.2357 2.0574 3.2931 0.82173l6.6374-3.9864q2.0574-1.2357 0.82173-3.2931l-2.4836-4.1352q-1.2357-2.0574-3.2931-0.82173l-6.6374 3.9864q-2.0574 1.2357-0.82173 3.2931z" clip-path="url(#a)" fill="#fff" stroke="#fff"/>
<g clip-path="url(#a)">
<g transform="translate(198 476.04) rotate(59.011) scale(.08 -.08)">
<use xlink:href="#r"/>
</g>
</g>
<path d="m194.35 477.85 2.8177 4.6914q1.2357 2.0574 3.2931 0.82173l6.6374-3.9864q2.0574-1.2357 0.82173-3.2931l-2.8177-4.6914q-1.2357-2.0574-3.2931-0.82173l-6.6374 3.9864q-2.0574 1.2357-0.82173 3.2931z" clip-path="url(#a)" fill="#fff" stroke="#fff"/>
<g clip-path="url(#a)">
<g transform="translate(197.83 475.76) rotate(59.011) scale(.08 -.08)">
<use xlink:href="#u"/>
</g>
</g>
<path d="m116.5 482.22 2.361-5.6896q0.91986-2.2167-1.2969-3.1366l-7.1512-2.9675q-2.2167-0.91986-3.1366 1.2969l-2.361 5.6896q-0.91986 2.2167 1.2969 3.1366l7.1512 2.9675q2.2167 0.91986 3.1366-1.2969z" clip-path="url(#a)" fill="#fff" stroke="#fff"/>
<g clip-path="url(#a)">
<g transform="translate(112.75 480.66) rotate(-67.463) scale(.08 -.08)">
<use xlink:href="#t"/>
</g>
</g>
<path d="m149.65 480.39 0.33584-6.1508q0.13085-2.3964-2.2656-2.5273l-7.731-0.42211q-2.3964-0.13085-2.5273 2.2656l-0.33584 6.1508q-0.13085 2.3964 2.2656 2.5273l7.731 0.42211q2.3964 0.13085 2.5273-2.2656z" clip-path="url(#a)" fill="#fff" stroke="#fff"/>
<g clip-path="url(#a)">
<g transform="translate(145.59 480.17) rotate(-86.875) scale(.08 -.08)">
<use xlink:href="#t"/>
</g>
</g>
<path d="m191.28 477.39 3.0417 5.3566q1.1851 2.087 3.2721 0.90191l6.7327-3.8231q2.087-1.1851 0.90191-3.2721l-3.0417-5.3566q-1.1851-2.087-3.2721-0.90191l-6.7327 3.8231q-2.087 1.1851-0.90191 3.2721z" clip-path="url(#a)" fill="#fff" stroke="#fff"/>
<g clip-path="url(#a)">
<g transform="translate(194.81 475.38) rotate(60.41) scale(.08 -.08)">
<use xlink:href="#t"/>
</g>
</g>
<path d="m122.6 481.8 1.9315-5.5273q0.79171-2.2657-1.4739-3.0574l-7.3091-2.5541q-2.2657-0.79171-3.0574 1.4739l-1.9315 5.5273q-0.79172 2.2657 1.4739 3.0574l7.3091 2.5541q2.2657 0.79172 3.0574-1.4739z" clip-path="url(#a)" fill="#fff" stroke="#fff"/>
<g clip-path="url(#a)">
<g transform="translate(118.76 480.46) rotate(-70.738) scale(.08 -.08)">
<use xlink:href="#n"/>
</g>
</g>
<path d="m130.14 481.42 1.5132-5.6561q0.62028-2.3185-1.6982-2.9387l-7.4794-2.0011q-2.3185-0.62028-2.9387 1.6982l-1.5132 5.6561q-0.62028 2.3185 1.6982 2.9387l7.4794 2.0011q2.3185 0.62028 2.9387-1.6982z" clip-path="url(#a)" fill="#fff" stroke="#fff"/>
<g clip-path="url(#a)">
<g transform="translate(126.22 480.37) rotate(-75.022) scale(.08 -.08)">
<use xlink:href="#n"/>
</g>
</g>
<path d="m139.17 480.9 0.97712-5.7729q0.40053-2.3663-1.9658-2.7669l-7.6339-1.2921q-2.3663-0.40053-2.7669 1.9658l-0.97712 5.7729q-0.40053 2.3663 1.9658 2.7669l7.6339 1.2921q2.3663 0.40053 2.7669-1.9658z" clip-path="url(#a)" fill="#fff" stroke="#fff"/>
<g clip-path="url(#a)">
<g transform="translate(135.17 480.22) rotate(-80.393) scale(.08 -.08)">
<use xlink:href="#n"/>
</g>
</g>
<path d="m148.59 474.53 0.44626 5.838q0.18292 2.393 2.5759 2.2101l7.72-0.59012q2.393-0.18292 2.2101-2.5759l-0.44626-5.838q-0.18292-2.393-2.5759-2.2101l-7.72 0.59012q-2.393 0.18292-2.2101 2.5759z" clip-path="url(#a)" fill="#fff" stroke="#fff"/>
<g clip-path="url(#a)">
<g transform="translate(152.65 474.22) rotate(85.629) scale(.08 -.08)">
<use xlink:href="#n"/>
</g>
</g>
<path d="m161.27 475.48 1.279 5.7136q0.52429 2.342 2.8663 1.8177l7.5555-1.6914q2.342-0.52429 1.8177-2.8663l-1.279-5.7136q-0.52429-2.342-2.8663-1.8177l-7.5555 1.6914q-2.342 0.52429-1.8177 2.8663z" clip-path="url(#a)" fill="#fff" stroke="#fff"/>
<g clip-path="url(#a)">
<g transform="translate(165.23 474.59) rotate(77.382) scale(.08 -.08)">
<use xlink:href="#n"/>
</g>
</g>
<path d="m175.51 476.51 2.1163 5.4591q0.86749 2.2377 3.1052 1.3703l7.219-2.7985q2.2377-0.86749 1.3703-3.1052l-2.1163-5.4591q-0.86749-2.2377-3.1052-1.3703l-7.219 2.7985q-2.2377 0.86749-1.3703 3.1052z" clip-path="url(#a)" fill="#fff" stroke="#fff"/>
<g clip-path="url(#a)">
<g transform="translate(179.3 475.04) rotate(68.811) scale(.08 -.08)">
<use xlink:href="#n"/>
</g>
</g>
<path d="m382.92 480.02 0.56105-4.5669q0.29264-2.3821-2.0894-2.6747l-7.6847-0.94407q-2.3821-0.29264-2.6747 2.0894l-0.56105 4.5669q-0.29264 2.3821 2.0894 2.6747l7.6847 0.94407q2.3821 0.29264 2.6747-2.0894z" clip-path="url(#a)" fill="#fff" stroke="#fff"/>
<g clip-path="url(#a)">
<g transform="translate(378.89 479.52) rotate(-82.996) scale(.08 -.08)">
<use xlink:href="#ai"/>
</g>
</g>
<path d="m392 474.96 0.68115 5.5446q0.29264 2.3821 2.6747 2.0894l7.6847-0.94407q2.3821-0.29264 2.0894-2.6747l-0.68115-5.5446q-0.29264-2.3821-2.6747-2.0894l-7.6847 0.94407q-2.3821 0.29264-2.0894 2.6747z" clip-path="url(#a)" fill="#fff" stroke="#fff"/>
<g clip-path="url(#a)">
<g transform="translate(396.04 474.47) rotate(82.996) scale(.08 -.08)">
<use xlink:href="#v"/>
</g>
</g>
<path d="m449.15 634.61v33.808q0 2.4 2.4 2.4h7.7425q2.4 0 2.4-2.4v-33.808q0-2.4-2.4-2.4h-7.7425q-2.4 0-2.4 2.4z" clip-path="url(#a)" fill="#fff" stroke="#fff"/>
<g clip-path="url(#a)">
<g transform="translate(453.22 634.61) rotate(90) scale(.08 -.08)">
<use xlink:href="#k"/>
<use x="44.083984" xlink:href="#e"/>
<use x="105.607422" xlink:href="#j"/>
<use x="144.970703" xlink:href="#l"/>
<use x="242.382812" xlink:href="#f"/>
<use x="270.166016" xlink:href="#g"/>
<use x="333.544922" xlink:href="#h"/>
<use x="394.824219" xlink:href="#i"/>
</g>
</g>
<path d="m359.91 634.61v33.808q0 2.4 2.4 2.4h7.7425q2.4 0 2.4-2.4v-33.808q0-2.4-2.4-2.4h-7.7425q-2.4 0-2.4 2.4z" clip-path="url(#a)" fill="#fff" stroke="#fff"/>
<g clip-path="url(#a)">
<g transform="translate(363.97 634.61) rotate(90) scale(.08 -.08)">
<use xlink:href="#k"/>
<use x="44.083984" xlink:href="#e"/>
<use x="105.607422" xlink:href="#j"/>
<use x="144.970703" xlink:href="#l"/>
<use x="242.382812" xlink:href="#f"/>
<use x="270.166016" xlink:href="#g"/>
<use x="333.544922" xlink:href="#h"/>
<use x="394.824219" xlink:href="#i"/>
</g>
</g>
<path d="m403.09 634.61v33.808q0 2.4 2.4 2.4h7.7425q2.4 0 2.4-2.4v-33.808q0-2.4-2.4-2.4h-7.7425q-2.4 0-2.4 2.4z" clip-path="url(#a)" fill="#fff" stroke="#fff"/>
<g clip-path="url(#a)">
<g transform="translate(407.16 634.61) rotate(90) scale(.08 -.08)">
<use xlink:href="#k"/>
<use x="44.083984" xlink:href="#e"/>
<use x="105.607422" xlink:href="#j"/>
<use x="144.970703" xlink:href="#l"/>
<use x="242.382812" xlink:href="#f"/>
<use x="270.166016" xlink:href="#g"/>
<use x="333.544922" xlink:href="#h"/>
<use x="394.824219" xlink:href="#i"/>
</g>
</g>
<path d="m69.153 634.61v33.808q0 2.4 2.4 2.4h7.7425q2.4 0 2.4-2.4v-33.808q0-2.4-2.4-2.4h-7.7425q-2.4 0-2.4 2.4z" clip-path="url(#a)" fill="#fff" stroke="#fff"/>
<g clip-path="url(#a)">
<g transform="translate(73.217 634.61) rotate(90) scale(.08 -.08)">
<use xlink:href="#k"/>
<use x="44.083984" xlink:href="#e"/>
<use x="105.607422" xlink:href="#j"/>
<use x="144.970703" xlink:href="#l"/>
<use x="242.382812" xlink:href="#f"/>
<use x="270.166016" xlink:href="#g"/>
<use x="333.544922" xlink:href="#h"/>
<use x="394.824219" xlink:href="#i"/>
</g>
</g>
<path d="m132.49 634.61v33.808q0 2.4 2.4 2.4h7.7425q2.4 0 2.4-2.4v-33.808q0-2.4-2.4-2.4h-7.7425q-2.4 0-2.4 2.4z" clip-path="url(#a)" fill="#fff" stroke="#fff"/>
<g clip-path="url(#a)">
<g transform="translate(136.55 634.61) rotate(90) scale(.08 -.08)">
<use xlink:href="#k"/>
<use x="44.083984" xlink:href="#e"/>
<use x="105.607422" xlink:href="#j"/>
<use x="144.970703" xlink:href="#l"/>
<use x="242.382812" xlink:href="#f"/>
<use x="270.166016" xlink:href="#g"/>
<use x="333.544922" xlink:href="#h"/>
<use x="394.824219" xlink:href="#i"/>
</g>
</g>
<path d="m241.88 634.61v33.808q0 2.4 2.4 2.4h7.7425q2.4 0 2.4-2.4v-33.808q0-2.4-2.4-2.4h-7.7425q-2.4 0-2.4 2.4z" clip-path="url(#a)" fill="#fff" stroke="#fff"/>
<g clip-path="url(#a)">
<g transform="translate(245.94 634.61) rotate(90) scale(.08 -.08)">
<use xlink:href="#k"/>
<use x="44.083984" xlink:href="#e"/>
<use x="105.607422" xlink:href="#j"/>
<use x="144.970703" xlink:href="#l"/>
<use x="242.382812" xlink:href="#f"/>
<use x="270.166016" xlink:href="#g"/>
<use x="333.544922" xlink:href="#h"/>
<use x="394.824219" xlink:href="#i"/>
</g>
</g>
<path d="m60.517 634.61v33.808q0 2.4 2.4 2.4h7.7425q2.4 0 2.4-2.4v-33.808q0-2.4-2.4-2.4h-7.7425q-2.4 0-2.4 2.4z" clip-path="url(#a)" fill="#fff" stroke="#fff"/>
<g clip-path="url(#a)">
<g transform="translate(64.58 634.61) rotate(90) scale(.08 -.08)">
<use xlink:href="#k"/>
<use x="44.083984" xlink:href="#e"/>
<use x="105.607422" xlink:href="#j"/>
<use x="144.970703" xlink:href="#l"/>
<use x="242.382812" xlink:href="#f"/>
<use x="270.166016" xlink:href="#g"/>
<use x="333.544922" xlink:href="#h"/>
<use x="394.824219" xlink:href="#i"/>
</g>
</g>
<path d="m80.668 634.61v33.808q0 2.4 2.4 2.4h7.7425q2.4 0 2.4-2.4v-33.808q0-2.4-2.4-2.4h-7.7425q-2.4 0-2.4 2.4z" clip-path="url(#a)" fill="#fff" stroke="#fff"/>
<g clip-path="url(#a)">
<g transform="translate(84.732 634.61) rotate(90) scale(.08 -.08)">
<use xlink:href="#k"/>
<use x="44.083984" xlink:href="#e"/>
<use x="105.607422" xlink:href="#j"/>
<use x="144.970703" xlink:href="#l"/>
<use x="242.382812" xlink:href="#f"/>
<use x="270.166016" xlink:href="#g"/>
<use x="333.544922" xlink:href="#h"/>
<use x="394.824219" xlink:href="#i"/>
</g>
</g>
<path d="m95.062 634.61v33.808q0 2.4 2.4 2.4h7.7425q2.4 0 2.4-2.4v-33.808q0-2.4-2.4-2.4h-7.7425q-2.4 0-2.4 2.4z" clip-path="url(#a)" fill="#fff" stroke="#fff"/>
<g clip-path="url(#a)">
<g transform="translate(99.126 634.61) rotate(90) scale(.08 -.08)">
<use xlink:href="#k"/>
<use x="44.083984" xlink:href="#e"/>
<use x="105.607422" xlink:href="#j"/>
<use x="144.970703" xlink:href="#l"/>
<use x="242.382812" xlink:href="#f"/>
<use x="270.166016" xlink:href="#g"/>
<use x="333.544922" xlink:href="#h"/>
<use x="394.824219" xlink:href="#i"/>
</g>
</g>
<path d="m112.33 634.61v33.808q0 2.4 2.4 2.4h7.7425q2.4 0 2.4-2.4v-33.808q0-2.4-2.4-2.4h-7.7425q-2.4 0-2.4 2.4z" clip-path="url(#a)" fill="#fff" stroke="#fff"/>
<g clip-path="url(#a)">
<g transform="translate(116.4 634.61) rotate(90) scale(.08 -.08)">
<use xlink:href="#k"/>
<use x="44.083984" xlink:href="#e"/>
<use x="105.607422" xlink:href="#j"/>
<use x="144.970703" xlink:href="#l"/>
<use x="242.382812" xlink:href="#f"/>
<use x="270.166016" xlink:href="#g"/>
<use x="333.544922" xlink:href="#h"/>
<use x="394.824219" xlink:href="#i"/>
</g>
</g>
<path d="m155.52 634.61v33.808q0 2.4 2.4 2.4h7.7425q2.4 0 2.4-2.4v-33.808q0-2.4-2.4-2.4h-7.7425q-2.4 0-2.4 2.4z" clip-path="url(#a)" fill="#fff" stroke="#fff"/>
<g clip-path="url(#a)">
<g transform="translate(159.58 634.61) rotate(90) scale(.08 -.08)">
<use xlink:href="#k"/>
<use x="44.083984" xlink:href="#e"/>
<use x="105.607422" xlink:href="#j"/>
<use x="144.970703" xlink:href="#l"/>
<use x="242.382812" xlink:href="#f"/>
<use x="270.166016" xlink:href="#g"/>
<use x="333.544922" xlink:href="#h"/>
<use x="394.824219" xlink:href="#i"/>
</g>
</g>
<path d="m181.43 634.61v33.808q0 2.4 2.4 2.4h7.7425q2.4 0 2.4-2.4v-33.808q0-2.4-2.4-2.4h-7.7425q-2.4 0-2.4 2.4z" clip-path="url(#a)" fill="#fff" stroke="#fff"/>
<g clip-path="url(#a)">
<g transform="translate(185.49 634.61) rotate(90) scale(.08 -.08)">
<use xlink:href="#k"/>
<use x="44.083984" xlink:href="#e"/>
<use x="105.607422" xlink:href="#j"/>
<use x="144.970703" xlink:href="#l"/>
<use x="242.382812" xlink:href="#f"/>
<use x="270.166016" xlink:href="#g"/>
<use x="333.544922" xlink:href="#h"/>
<use x="394.824219" xlink:href="#i"/>
</g>
</g>
<path d="m210.21 634.61v33.808q0 2.4 2.4 2.4h7.7425q2.4 0 2.4-2.4v-33.808q0-2.4-2.4-2.4h-7.7425q-2.4 0-2.4 2.4z" clip-path="url(#a)" fill="#fff" stroke="#fff"/>
<g clip-path="url(#a)">
<g transform="translate(214.28 634.61) rotate(90) scale(.08 -.08)">
<use xlink:href="#k"/>
<use x="44.083984" xlink:href="#e"/>
<use x="105.607422" xlink:href="#j"/>
<use x="144.970703" xlink:href="#l"/>
<use x="242.382812" xlink:href="#f"/>
<use x="270.166016" xlink:href="#g"/>
<use x="333.544922" xlink:href="#h"/>
<use x="394.824219" xlink:href="#i"/>
</g>
</g>
<path d="m282.18 634.61v33.808q0 2.4 2.4 2.4h7.7425q2.4 0 2.4-2.4v-33.808q0-2.4-2.4-2.4h-7.7425q-2.4 0-2.4 2.4z" clip-path="url(#a)" fill="#fff" stroke="#fff"/>
<g clip-path="url(#a)">
<g transform="translate(286.25 634.61) rotate(90) scale(.08 -.08)">
<use xlink:href="#k"/>
<use x="44.083984" xlink:href="#e"/>
<use x="105.607422" xlink:href="#j"/>
<use x="144.970703" xlink:href="#l"/>
<use x="242.382812" xlink:href="#f"/>
<use x="270.166016" xlink:href="#g"/>
<use x="333.544922" xlink:href="#h"/>
<use x="394.824219" xlink:href="#i"/>
</g>
</g>
<path d="m319.61 634.61v33.808q0 2.4 2.4 2.4h7.7425q2.4 0 2.4-2.4v-33.808q0-2.4-2.4-2.4h-7.7425q-2.4 0-2.4 2.4z" clip-path="url(#a)" fill="#fff" stroke="#fff"/>
<g clip-path="url(#a)">
<g transform="translate(323.67 634.61) rotate(90) scale(.08 -.08)">
<use xlink:href="#k"/>
<use x="44.083984" xlink:href="#e"/>
<use x="105.607422" xlink:href="#j"/>
<use x="144.970703" xlink:href="#l"/>
<use x="242.382812" xlink:href="#f"/>
<use x="270.166016" xlink:href="#g"/>
<use x="333.544922" xlink:href="#h"/>
<use x="394.824219" xlink:href="#i"/>
</g>
</g>
<path d="m498.09 634.61v33.808q0 2.4 2.4 2.4h7.7425q2.4 0 2.4-2.4v-33.808q0-2.4-2.4-2.4h-7.7425q-2.4 0-2.4 2.4z" clip-path="url(#a)" fill="#fff" stroke="#fff"/>
<g clip-path="url(#a)">
<g transform="translate(502.16 634.61) rotate(90) scale(.08 -.08)">
<use xlink:href="#k"/>
<use x="44.083984" xlink:href="#e"/>
<use x="105.607422" xlink:href="#j"/>
<use x="144.970703" xlink:href="#l"/>
<use x="242.382812" xlink:href="#f"/>
<use x="270.166016" xlink:href="#g"/>
<use x="333.544922" xlink:href="#h"/>
<use x="394.824219" xlink:href="#i"/>
</g>
</g>
<path d="m1309.9 634.61v33.808q0 2.4 2.4 2.4h7.7425q2.4 0 2.4-2.4v-33.808q0-2.4-2.4-2.4h-7.7425q-2.4 0-2.4 2.4z" clip-path="url(#a)" fill="#fff" stroke="#fff"/>
<g clip-path="url(#a)">
<g transform="translate(1314 634.61) rotate(90) scale(.08 -.08)">
<use xlink:href="#k"/>
<use x="44.083984" xlink:href="#e"/>
<use x="105.607422" xlink:href="#j"/>
<use x="144.970703" xlink:href="#l"/>
<use x="242.382812" xlink:href="#f"/>
<use x="270.166016" xlink:href="#g"/>
<use x="333.544922" xlink:href="#h"/>
<use x="394.824219" xlink:href="#i"/>
</g>
</g>
<path d="m1396.3 634.61v33.808q0 2.4 2.4 2.4h7.7425q2.4 0 2.4-2.4v-33.808q0-2.4-2.4-2.4h-7.7425q-2.4 0-2.4 2.4z" clip-path="url(#a)" fill="#fff" stroke="#fff"/>
<g clip-path="url(#a)">
<g transform="translate(1400.3 634.61) rotate(90) scale(.08 -.08)">
<use xlink:href="#k"/>
<use x="44.083984" xlink:href="#e"/>
<use x="105.607422" xlink:href="#j"/>
<use x="144.970703" xlink:href="#l"/>
<use x="242.382812" xlink:href="#f"/>
<use x="270.166016" xlink:href="#g"/>
<use x="333.544922" xlink:href="#h"/>
<use x="394.824219" xlink:href="#i"/>
</g>
</g>
<defs>
<path id="b" d="m0 8.6603c2.2967 0 4.4997-0.9125 6.1237-2.5365 1.624-1.624 2.5365-3.827 2.5365-6.1237s-0.9125-4.4997-2.5365-6.1237c-1.624-1.624-3.827-2.5365-6.1237-2.5365s-4.4997 0.9125-6.1237 2.5365c-1.624 1.624-2.5365 3.827-2.5365 6.1237s0.9125 4.4997 2.5365 6.1237c1.624 1.624 3.827 2.5365 6.1237 2.5365z"/>
</defs>
<g clip-path="url(#a)" fill="#ffffff" stroke="#ffffff">
<use x="66.787879" y="738.181818" xlink:href="#b"/>
<use x="75.424242" y="738.181818" xlink:href="#b"/>
<use x="86.939394" y="738.181818" xlink:href="#b"/>
<use x="101.333333" y="738.181818" xlink:href="#b"/>
<use x="118.606061" y="738.181818" xlink:href="#b"/>
<use x="138.757576" y="738.181818" xlink:href="#b"/>
<use x="161.787879" y="738.181818" xlink:href="#b"/>
<use x="187.69697" y="738.181818" xlink:href="#b"/>
<use x="216.484848" y="738.181818" xlink:href="#b"/>
<use x="248.151515" y="738.181818" xlink:href="#b"/>
<use x="288.454545" y="738.181818" xlink:href="#b"/>
<use x="325.878788" y="738.181818" xlink:href="#b"/>
<use x="366.181818" y="738.181818" xlink:href="#b"/>
<use x="409.363636" y="738.181818" xlink:href="#b"/>
<use x="455.424242" y="738.181818" xlink:href="#b"/>
<use x="504.363636" y="738.181818" xlink:href="#b"/>
<use x="556.181818" y="738.181818" xlink:href="#b"/>
<use x="610.878788" y="738.181818" xlink:href="#b"/>
<use x="668.454545" y="738.181818" xlink:href="#b"/>
<use x="728.909091" y="738.181818" xlink:href="#b"/>
<use x="792.242424" y="738.181818" xlink:href="#b"/>
<use x="858.454545" y="738.181818" xlink:href="#b"/>
<use x="927.545455" y="738.181818" xlink:href="#b"/>
<use x="999.515152" y="738.181818" xlink:href="#b"/>
<use x="1074.363636" y="738.181818" xlink:href="#b"/>
<use x="1152.090909" y="738.181818" xlink:href="#b"/>
<use x="1232.69697" y="738.181818" xlink:href="#b"/>
<use x="1316.181818" y="738.181818" xlink:href="#b"/>
<use x="1402.545455" y="738.181818" xlink:href="#b"/>
<use x="253.909091" y="564.843949" xlink:href="#b"/>
<use x="253.909091" y="564.843949" xlink:href="#b"/>
<use x="542.017116" y="35.151515" xlink:href="#b"/>
<use x="321.176768" y="212.42378" xlink:href="#b"/>
<use x="544.986532" y="212.42378" xlink:href="#b"/>
<use x="792.242424" y="564.843949" xlink:href="#b"/>
<use x="1022.545455" y="389.094759" xlink:href="#b"/>
<use x="858.454545" y="564.843949" xlink:href="#b"/>
<use x="927.545455" y="564.843949" xlink:href="#b"/>
<use x="999.515152" y="564.843949" xlink:href="#b"/>
<use x="1074.363636" y="564.843949" xlink:href="#b"/>
<use x="1192.393939" y="564.843949" xlink:href="#b"/>
<use x="556.181818" y="564.843949" xlink:href="#b"/>
<use x="669.414141" y="389.094759" xlink:href="#b"/>
<use x="610.878788" y="564.843949" xlink:href="#b"/>
<use x="668.454545" y="564.843949" xlink:href="#b"/>
<use x="728.909091" y="564.843949" xlink:href="#b"/>
<use x="148.353535" y="389.094759" xlink:href="#b"/>
<use x="387.772727" y="389.094759" xlink:href="#b"/>
<use x="455.424242" y="564.843949" xlink:href="#b"/>
<use x="366.181818" y="564.843949" xlink:href="#b"/>
<use x="409.363636" y="564.843949" xlink:href="#b"/>
<use x="75.424242" y="564.843949" xlink:href="#b"/>
<use x="138.757576" y="564.843949" xlink:href="#b"/>
<use x="248.151515" y="564.843949" xlink:href="#b"/>
<use x="66.787879" y="564.843949" xlink:href="#b"/>
<use x="86.939394" y="564.843949" xlink:href="#b"/>
<use x="101.333333" y="564.843949" xlink:href="#b"/>
<use x="118.606061" y="564.843949" xlink:href="#b"/>
<use x="161.787879" y="564.843949" xlink:href="#b"/>
<use x="187.69697" y="564.843949" xlink:href="#b"/>
<use x="216.484848" y="564.843949" xlink:href="#b"/>
<use x="288.454545" y="564.843949" xlink:href="#b"/>
<use x="325.878788" y="564.843949" xlink:href="#b"/>
<use x="504.363636" y="564.843949" xlink:href="#b"/>
<use x="1316.181818" y="564.843949" xlink:href="#b"/>
<use x="1402.545455" y="564.843949" xlink:href="#b"/>
</g>
<g clip-path="url(#a)">
<g transform="translate(64.488 740.94) scale(.1 -.1)">
<defs>
<path id="ag" d="m17.922 72.906v-27.109h-8.2969v27.109zm18.453 0v-27.109h-8.2969v27.109z"/>
</defs>
<use xlink:href="#ag"/>
</g>
</g>
<g clip-path="url(#a)">
<g transform="translate(67.352 740.94) scale(.1 -.1)">
<defs>
<path id="aq" d="m-0.20312 72.906h10.609l20.203-29.984 20.078 29.984h10.594l-25.781-38.188v-34.719h-9.9062v34.719z"/>
<path id="w" d="m44.281 53.078v-8.5q-3.7969 1.9531-7.9062 2.9219-4.0938 0.98438-8.5 0.98438-6.6875 0-10.031-2.0469t-3.3438-6.1562q0-3.125 2.3906-4.9062t9.625-3.3906l3.0781-0.6875q9.5625-2.0469 13.594-5.7812t4.0312-10.422q0-7.625-6.0312-12.078-6.0312-4.4375-16.578-4.4375-4.3906 0-9.1562 0.85938t-10.031 2.5625v9.2812q4.9844-2.5938 9.8125-3.8906 4.8281-1.2812 9.5781-1.2812 6.3438 0 9.75 2.1719 3.4219 2.1719 3.4219 6.125 0 3.6562-2.4688 5.6094-2.4531 1.9531-10.812 3.7656l-3.125 0.73438q-8.3438 1.75-12.062 5.3906-3.7031 3.6406-3.7031 9.9844 0 7.7188 5.4688 11.906 5.4688 4.2031 15.531 4.2031 4.9688 0 9.3594-0.73438 4.4062-0.71875 8.1094-2.1875z"/>
</defs>
<use xlink:href="#aq"/>
<use x="47.833984" xlink:href="#e"/>
<use x="109.357422" xlink:href="#w"/>
</g>
</g>
<g clip-path="url(#a)">
<g transform="translate(85.35 740.94) scale(.1 -.1)">
<defs>
<path id="d" d="m10.688 12.406h10.312v-12.406h-10.312z"/>
</defs>
<use xlink:href="#d"/>
</g>
</g>
<g clip-path="url(#a)">
<g transform="translate(99.744 740.94) scale(.1 -.1)">
<use xlink:href="#d"/>
</g>
</g>
<g clip-path="url(#a)">
<g transform="translate(117.02 740.94) scale(.1 -.1)">
<use xlink:href="#d"/>
</g>
</g>
<g clip-path="url(#a)">
<g transform="translate(121.7 740.94) scale(.1 -.1)">
<defs>
<path id="y" d="m45.406 46.391v29.594h8.9844v-75.984h-8.9844v8.2031q-2.8281-4.875-7.1562-7.25-4.3125-2.375-10.375-2.375-9.9062 0-16.141 7.9062-6.2188 7.9219-6.2188 20.812t6.2188 20.797q6.2344 7.9062 16.141 7.9062 6.0625 0 10.375-2.375 4.3281-2.3594 7.1562-7.2344zm-30.609-19.094q0-9.9062 4.0781-15.547t11.203-5.6406 11.219 5.6406q4.1094 5.6406 4.1094 15.547t-4.1094 15.547q-4.0938 5.6406-11.219 5.6406t-11.203-5.6406-4.0781-15.547z"/>
</defs>
<use xlink:href="#f"/>
<use x="27.783203" xlink:href="#g"/>
<use x="91.162109" xlink:href="#y"/>
<use x="154.638672" xlink:href="#e"/>
<use x="216.162109" xlink:href="#e"/>
<use x="277.685547" xlink:href="#y"/>
</g>
</g>
<g clip-path="url(#a)">
<g transform="translate(160.2 740.94) scale(.1 -.1)">
<use xlink:href="#d"/>
</g>
</g>
<g clip-path="url(#a)">
<g transform="translate(186.11 740.94) scale(.1 -.1)">
<use xlink:href="#d"/>
</g>
</g>
<g clip-path="url(#a)">
<g transform="translate(214.9 740.94) scale(.1 -.1)">
<use xlink:href="#d"/>
</g>
</g>
<g clip-path="url(#a)">
<g transform="translate(231.01 740.94) scale(.1 -.1)">
<defs>
<path id="am" d="m32.172-5.0781q-3.7969-9.7656-7.4219-12.734-3.6094-2.9844-9.6562-2.9844h-7.1875v7.5156h5.2812q3.7031 0 5.75 1.7656 2.0625 1.75 4.5469 8.2969l1.6094 4.0938-22.109 53.812h9.5156l17.094-42.766 17.094 42.766h9.5156z"/>
<path id="ab" d="m48.688 27.297q0 9.9062-4.0781 15.547t-11.203 5.6406q-7.1406 0-11.219-5.6406t-4.0781-15.547 4.0781-15.547 11.219-5.6406q7.125 0 11.203 5.6406t4.0781 15.547zm-30.578 19.094q2.8438 4.875 7.1562 7.2344 4.3281 2.375 10.328 2.375 9.9688 0 16.188-7.9062 6.2344-7.9062 6.2344-20.797t-6.2344-20.812q-6.2188-7.9062-16.188-7.9062-6 0-10.328 2.375-4.3125 2.375-7.1562 7.25v-8.2031h-9.0312v75.984h9.0312z"/>
</defs>
<use xlink:href="#l"/>
<use x="97.412109" xlink:href="#h"/>
<use x="158.691406" xlink:href="#am"/>
<use x="217.871094" xlink:href="#ab"/>
<use x="281.347656" xlink:href="#e"/>
</g>
</g>
<g clip-path="url(#a)">
<g transform="translate(286.87 740.94) scale(.1 -.1)">
<defs>
<path id="al" d="m11.719 12.406h10.297v-8.4062l-8-15.625h-6.2969l4 15.625z"/>
</defs>
<use xlink:href="#al"/>
</g>
</g>
<g clip-path="url(#a)">
<g transform="translate(323.58 740.94) scale(.1 -.1)">
<use xlink:href="#ag"/>
</g>
</g>
<g clip-path="url(#a)">
<g transform="translate(357.98 740.94) scale(.1 -.1)">
<defs>
<path id="q" d="m18.312 70.219v-15.531h18.5v-6.9844h-18.5v-29.688q0-6.6875 1.8281-8.5938t7.4531-1.9062h9.2188v-7.5156h-9.2188q-10.406 0-14.359 3.875-3.9531 3.8906-3.9531 14.141v29.688h-6.5938v6.9844h6.5938v15.531z"/>
<path id="ap" d="m54.891 33.016v-33.016h-8.9844v32.719q0 7.7656-3.0312 11.609-3.0312 3.8594-9.0781 3.8594-7.2812 0-11.484-4.6406-4.2031-4.625-4.2031-12.641v-30.906h-9.0312v75.984h9.0312v-29.797q3.2344 4.9375 7.5938 7.375 4.375 2.4375 10.094 2.4375 9.4219 0 14.25-5.8281 4.8438-5.8281 4.8438-17.156z"/>
</defs>
<use xlink:href="#q"/>
<use x="39.208984" xlink:href="#ap"/>
<use x="102.587891" xlink:href="#e"/>
</g>
</g>
<g clip-path="url(#a)">
<g transform="translate(385.78 740.94) scale(.1 -.1)">
<use xlink:href="#v"/>
<use x="69.824219" xlink:href="#h"/>
<use x="131.103516" xlink:href="#g"/>
<use x="194.482422" xlink:href="#h"/>
<use x="255.761719" xlink:href="#y"/>
<use x="319.238281" xlink:href="#f"/>
<use x="347.021484" xlink:href="#h"/>
<use x="408.300781" xlink:href="#g"/>
</g>
</g>
<g clip-path="url(#a)">
<g transform="translate(438.2 740.94) scale(.1 -.1)">
<defs>
<path id="av" d="m18.109 8.2031v-29h-9.0312v75.484h9.0312v-8.2969q2.8438 4.875 7.1562 7.2344 4.3281 2.375 10.328 2.375 9.9688 0 16.188-7.9062 6.2344-7.9062 6.2344-20.797t-6.2344-20.812q-6.2188-7.9062-16.188-7.9062-6 0-10.328 2.375-4.3125 2.375-7.1562 7.25zm30.578 19.094q0 9.9062-4.0781 15.547t-11.203 5.6406q-7.1406 0-11.219-5.6406t-4.0781-15.547 4.0781-15.547 11.219-5.6406q7.125 0 11.203 5.6406t4.0781 15.547z"/>
</defs>
<use xlink:href="#j"/>
<use x="38.863281" xlink:href="#e"/>
<use x="100.386719" xlink:href="#av"/>
<use x="163.863281" xlink:href="#i"/>
<use x="191.646484" xlink:href="#f"/>
<use x="219.429688" xlink:href="#e"/>
<use x="280.953125" xlink:href="#y"/>
</g>
</g>
<g clip-path="url(#a)">
<g transform="translate(502.77 740.94) scale(.1 -.1)">
<use xlink:href="#al"/>
</g>
</g>
<g clip-path="url(#a)">
<g transform="translate(530.93 740.94) scale(.1 -.1)">
<defs>
<path id="x" d="m45.406 27.984q0 9.7656-4.0312 15.125-4.0156 5.375-11.297 5.375-7.2188 0-11.25-5.375-4.0312-5.3594-4.0312-15.125 0-9.7188 4.0312-15.094t11.25-5.375q7.2812 0 11.297 5.375 4.0312 5.375 4.0312 15.094zm8.9844-21.203q0-13.953-6.2031-20.766-6.1875-6.8125-18.984-6.8125-4.7344 0-8.9375 0.70312t-8.1562 2.1719v8.7344q3.9531-2.1406 7.8125-3.1562 3.8594-1.0312 7.8594-1.0312 8.8438 0 13.234 4.6094t4.3906 13.938v4.4531q-2.7812-4.8438-7.125-7.2344t-10.406-2.3906q-10.047 0-16.203 7.6562-6.1562 7.6719-6.1562 20.328 0 12.688 6.1562 20.344 6.1562 7.6719 16.203 7.6719 6.0625 0 10.406-2.3906t7.125-7.2188v8.2969h8.9844z"/>
</defs>
<use xlink:href="#w"/>
<use x="52.099609" xlink:href="#q"/>
<use x="91.308594" xlink:href="#h"/>
<use x="152.587891" xlink:href="#x"/>
<use x="216.064453" xlink:href="#x"/>
<use x="279.541016" xlink:href="#e"/>
<use x="341.064453" xlink:href="#j"/>
<use x="379.927734" xlink:href="#e"/>
<use x="441.451172" xlink:href="#y"/>
</g>
</g>
<g clip-path="url(#a)">
<g transform="translate(604.75 740.94) scale(.1 -.1)">
<use xlink:href="#ab"/>
<use x="63.476562" xlink:href="#am"/>
</g>
</g>
<g clip-path="url(#a)">
<g transform="translate(654.57 740.94) scale(.1 -.1)">
<use xlink:href="#q"/>
<use x="39.208984" xlink:href="#ap"/>
<use x="102.587891" xlink:href="#e"/>
<use x="164.111328" xlink:href="#w"/>
<use x="216.210938" xlink:href="#e"/>
</g>
</g>
<g clip-path="url(#a)">
<g transform="translate(711.79 740.94) scale(.1 -.1)">
<defs>
<path id="aw" d="m37.109 75.984v-7.4844h-8.5938q-4.8281 0-6.7188-1.9531-1.875-1.9531-1.875-7.0312v-4.8281h14.797v-6.9844h-14.797v-47.703h-9.0312v47.703h-8.5938v6.9844h8.5938v3.8125q0 9.125 4.25 13.297 4.25 4.1875 13.469 4.1875z"/>
<path id="an" d="m8.5 21.578v33.109h8.9844v-32.766q0-7.7656 3.0156-11.656 3.0312-3.875 9.0938-3.875 7.2656 0 11.484 4.6406 4.2344 4.6406 4.2344 12.656v31h8.9844v-54.688h-8.9844v8.4062q-3.2656-4.9844-7.5938-7.4062-4.3125-2.4219-10.031-2.4219-9.4219 0-14.312 5.8594-4.875 5.8594-4.875 17.141z"/>
</defs>
<use xlink:href="#aw"/>
<use x="35.205078" xlink:href="#f"/>
<use x="62.988281" xlink:href="#x"/>
<use x="126.464844" xlink:href="#an"/>
<use x="189.84375" xlink:href="#j"/>
<use x="228.707031" xlink:href="#e"/>
<use x="290.230469" xlink:href="#w"/>
</g>
</g>
<g clip-path="url(#a)">
<g transform="translate(783.94 740.94) scale(.1 -.1)">
<use xlink:href="#ab"/>
<use x="63.476562" xlink:href="#an"/>
<use x="126.855469" xlink:href="#q"/>
</g>
</g>
<g clip-path="url(#a)">
<g transform="translate(849.72 740.94) scale(.1 -.1)">
<use xlink:href="#w"/>
<use x="52.099609" xlink:href="#q"/>
<use x="91.308594" xlink:href="#f"/>
<use x="119.091797" xlink:href="#i"/>
<use x="146.875" xlink:href="#i"/>
</g>
</g>
<g clip-path="url(#a)">
<g transform="translate(919.36 740.94) scale(.1 -.1)">
<defs>
<path id="ao" d="m30.609 48.391q-7.2188 0-11.422-5.6406t-4.2031-15.453 4.1719-15.453q4.1875-5.6406 11.453-5.6406 7.1875 0 11.375 5.6562 4.2031 5.6719 4.2031 15.438 0 9.7188-4.2031 15.406-4.1875 5.6875-11.375 5.6875zm0 7.6094q11.719 0 18.406-7.625 6.7031-7.6094 6.7031-21.078 0-13.422-6.7031-21.078-6.6875-7.6406-18.406-7.6406-11.766 0-18.438 7.6406-6.6562 7.6562-6.6562 21.078 0 13.469 6.6562 21.078 6.6719 7.625 18.438 7.625z"/>
</defs>
<use xlink:href="#g"/>
<use x="63.378906" xlink:href="#ao"/>
<use x="124.560547" xlink:href="#q"/>
</g>
</g>
<g clip-path="url(#a)">
<g transform="translate(983.53 740.94) scale(.1 -.1)">
<defs>
<path id="at" d="m4.2031 54.688h8.9844l11.234-42.672 11.172 42.672h10.594l11.234-42.672 11.188 42.672h8.9844l-14.312-54.688h-10.594l-11.766 44.828-11.812-44.828h-10.609z"/>
</defs>
<use xlink:href="#at"/>
<use x="81.787109" xlink:href="#f"/>
<use x="109.570312" xlink:href="#i"/>
<use x="137.353516" xlink:href="#i"/>
<use x="165.136719" xlink:href="#f"/>
<use x="192.919922" xlink:href="#g"/>
<use x="256.298828" xlink:href="#x"/>
</g>
</g>
<g clip-path="url(#a)">
<g transform="translate(1069.3 740.94) scale(.1 -.1)">
<use xlink:href="#q"/>
<use x="39.208984" xlink:href="#ao"/>
</g>
</g>
<g clip-path="url(#a)">
<g transform="translate(1141.5 740.94) scale(.1 -.1)">
<defs>
<path id="au" d="m2.9844 54.688h9.5156l17.094-45.891 17.094 45.891h9.5156l-20.516-54.688h-12.203z"/>
</defs>
<use xlink:href="#x"/>
<use x="63.476562" xlink:href="#f"/>
<use x="91.259766" xlink:href="#au"/>
<use x="150.439453" xlink:href="#e"/>
</g>
</g>
<g clip-path="url(#a)">
<g transform="translate(1228.1 740.94) scale(.1 -.1)">
<use xlink:href="#f"/>
<use x="27.783203" xlink:href="#g"/>
</g>
</g>
<g clip-path="url(#a)">
<g transform="translate(1314.6 740.94) scale(.1 -.1)">
<use xlink:href="#d"/>
</g>
</g>
<g clip-path="url(#a)">
<g transform="translate(1400.2 740.94) scale(.1 -.1)">
<use xlink:href="#ag"/>
</g>
</g>
<g clip-path="url(#a)">
<g transform="translate(232.82 567.6) scale(.1 -.1)">
<defs>
<path id="s" d="m9.8125 72.906h9.8594v-72.906h-9.8594z"/>
<path id="ah" d="m9.8125 72.906h14.703l18.594-49.609 18.703 49.609h14.703v-72.906h-9.625v64.016l-18.797-50h-9.9062l-18.797 50v-64.016h-9.5781z"/>
</defs>
<use xlink:href="#s"/>
<use x="29.492188" xlink:href="#ah"/>
<use x="115.771484" xlink:href="#r"/>
<use x="176.074219" xlink:href="#ac"/>
<use x="231.787109" xlink:href="#s"/>
<use x="261.279297" xlink:href="#v"/>
<use x="331.103516" xlink:href="#s"/>
<use x="360.595703" xlink:href="#k"/>
</g>
</g>
<g clip-path="url(#a)">
<g transform="translate(232.82 567.6) scale(.1 -.1)">
<use xlink:href="#s"/>
<use x="29.492188" xlink:href="#ah"/>
<use x="115.771484" xlink:href="#r"/>
<use x="176.074219" xlink:href="#ac"/>
<use x="231.787109" xlink:href="#s"/>
<use x="261.279297" xlink:href="#v"/>
<use x="331.103516" xlink:href="#s"/>
<use x="360.595703" xlink:href="#k"/>
</g>
</g>
<g clip-path="url(#a)">
<g transform="translate(534.07 37.911) scale(.1 -.1)">
<defs>
<path id="c" d="m12.406 8.2969h16.109v55.625l-17.531-3.5156v8.9844l17.438 3.5156h9.8594v-64.609h16.109v-8.2969h-41.984z"/>
</defs>
<use xlink:href="#c"/>
<use x="63.623047" xlink:href="#d"/>
<use x="95.410156" xlink:href="#c"/>
</g>
</g>
<g clip-path="url(#a)">
<g transform="translate(313.23 215.18) scale(.1 -.1)">
<defs>
<path id="o" d="m19.188 8.2969h34.422v-8.2969h-46.281v8.2969q5.6094 5.8125 15.297 15.594 9.7031 9.7969 12.188 12.641 4.7344 5.3125 6.6094 9 1.8906 3.6875 1.8906 7.25 0 5.8125-4.0781 9.4688-4.0781 3.6719-10.625 3.6719-4.6406 0-9.7969-1.6094-5.1406-1.6094-11-4.8906v9.9688q5.9531 2.3906 11.125 3.6094 5.1875 1.2188 9.4844 1.2188 11.328 0 18.062-5.6719 6.7344-5.6562 6.7344-15.125 0-4.5-1.6875-8.5312-1.6719-4.0156-6.125-9.4844-1.2188-1.4219-7.7656-8.1875-6.5312-6.7656-18.453-18.922z"/>
</defs>
<use xlink:href="#c"/>
<use x="63.623047" xlink:href="#d"/>
<use x="95.410156" xlink:href="#o"/>
</g>
</g>
<g clip-path="url(#a)">
<g transform="translate(537.03 215.18) scale(.1 -.1)">
<defs>
<path id="m" d="m40.578 39.312q7.0781-1.5156 11.047-6.3125 3.9844-4.7812 3.9844-11.812 0-10.781-7.4219-16.703-7.4219-5.9062-21.094-5.9062-4.5781 0-9.4375 0.90625t-10.031 2.7188v9.5156q4.0938-2.3906 8.9688-3.6094 4.8906-1.2188 10.219-1.2188 9.2656 0 14.125 3.6562t4.8594 10.641q0 6.4531-4.5156 10.078-4.5156 3.6406-12.562 3.6406h-8.5v8.1094h8.8906q7.2656 0 11.125 2.9062t3.8594 8.375q0 5.6094-3.9844 8.6094-3.9688 3.0156-11.391 3.0156-4.0625 0-8.7031-0.89062-4.6406-0.875-10.203-2.7188v8.7812q5.625 1.5625 10.531 2.3438t9.25 0.78125q11.234 0 17.766-5.1094 6.5469-5.0938 6.5469-13.781 0-6.0625-3.4688-10.234t-9.8594-5.7812z"/>
</defs>
<use xlink:href="#c"/>
<use x="63.623047" xlink:href="#d"/>
<use x="95.410156" xlink:href="#m"/>
</g>
</g>
<g clip-path="url(#a)">
<g transform="translate(784.29 567.6) scale(.1 -.1)">
<defs>
<path id="p" d="m37.797 64.312-24.906-38.922h24.906zm-2.5938 8.5938h12.406v-47.516h10.406v-8.2031h-10.406v-17.188h-9.8125v17.188h-32.906v9.5156z"/>
</defs>
<use xlink:href="#c"/>
<use x="63.623047" xlink:href="#d"/>
<use x="95.410156" xlink:href="#p"/>
</g>
</g>
<g clip-path="url(#a)">
<g transform="translate(1014.6 391.85) scale(.1 -.1)">
<defs>
<path id="z" d="m10.797 72.906h38.719v-8.3125h-29.688v-17.859q2.1406 0.73438 4.2812 1.0938 2.1562 0.35938 4.3125 0.35938 12.203 0 19.328-6.6875 7.1406-6.6875 7.1406-18.109 0-11.766-7.3281-18.297-7.3281-6.5156-20.656-6.5156-4.5938 0-9.3594 0.78125-4.75 0.78125-9.8281 2.3438v9.9219q4.3906-2.3906 9.0781-3.5625t9.9062-1.1719q8.4531 0 13.375 4.4375 4.9375 4.4375 4.9375 12.062 0 7.6094-4.9375 12.047-4.9219 4.4531-13.375 4.4531-3.9531 0-7.8906-0.875-3.9219-0.875-8.0156-2.7344z"/>
</defs>
<use xlink:href="#c"/>
<use x="63.623047" xlink:href="#d"/>
<use x="95.410156" xlink:href="#z"/>
</g>
</g>
<g clip-path="url(#a)">
<g transform="translate(847.32 567.6) scale(.1 -.1)">
<defs>
<path id="aa" d="m31.781 66.406q-7.6094 0-11.453-7.5-3.8281-7.4844-3.8281-22.531 0-14.984 3.8281-22.484 3.8438-7.5 11.453-7.5 7.6719 0 11.5 7.5 3.8438 7.5 3.8438 22.484 0 15.047-3.8438 22.531-3.8281 7.5-11.5 7.5zm0 7.8125q12.266 0 18.734-9.7031 6.4688-9.6875 6.4688-28.141 0-18.406-6.4688-28.109-6.4688-9.6875-18.734-9.6875-12.25 0-18.719 9.6875-6.4688 9.7031-6.4688 28.109 0 18.453 6.4688 28.141 6.4688 9.7031 18.719 9.7031z"/>
</defs>
<use xlink:href="#c"/>
<use x="63.623047" xlink:href="#d"/>
<use x="95.410156" xlink:href="#c"/>
<use x="159.033203" xlink:href="#aa"/>
</g>
</g>
<g clip-path="url(#a)">
<g transform="translate(916.41 567.6) scale(.1 -.1)">
<use xlink:href="#c"/>
<use x="63.623047" xlink:href="#d"/>
<use x="95.410156" xlink:href="#c"/>
<use x="159.033203" xlink:href="#c"/>
</g>
</g>
<g clip-path="url(#a)">
<g transform="translate(988.38 567.6) scale(.1 -.1)">
<use xlink:href="#c"/>
<use x="63.623047" xlink:href="#d"/>
<use x="95.410156" xlink:href="#c"/>
<use x="159.033203" xlink:href="#o"/>
</g>
</g>
<g clip-path="url(#a)">
<g transform="translate(1063.2 567.6) scale(.1 -.1)">
<use xlink:href="#c"/>
<use x="63.623047" xlink:href="#d"/>
<use x="95.410156" xlink:href="#c"/>
<use x="159.033203" xlink:href="#m"/>
</g>
</g>
<g clip-path="url(#a)">
<g transform="translate(1181.3 567.6) scale(.1 -.1)">
<use xlink:href="#c"/>
<use x="63.623047" xlink:href="#d"/>
<use x="95.410156" xlink:href="#c"/>
<use x="159.033203" xlink:href="#p"/>
</g>
</g>
<g clip-path="url(#a)">
<g transform="translate(545.05 567.6) scale(.1 -.1)">
<use xlink:href="#c"/>
<use x="63.623047" xlink:href="#d"/>
<use x="95.410156" xlink:href="#c"/>
<use x="159.033203" xlink:href="#z"/>
</g>
</g>
<g clip-path="url(#a)">
<g transform="translate(658.28 391.85) scale(.1 -.1)">
<defs>
<path id="af" d="m33.016 40.375q-6.6406 0-10.531-4.5469-3.875-4.5312-3.875-12.438 0-7.8594 3.875-12.438 3.8906-4.5625 10.531-4.5625t10.516 4.5625q3.875 4.5781 3.875 12.438 0 7.9062-3.875 12.438-3.875 4.5469-10.516 4.5469zm19.578 30.922v-8.9844q-3.7188 1.75-7.5 2.6719-3.7812 0.9375-7.5 0.9375-9.7656 0-14.922-6.5938-5.1406-6.5938-5.875-19.922 2.875 4.25 7.2188 6.5156 4.3594 2.2656 9.5781 2.2656 10.984 0 17.359-6.6719 6.375-6.6562 6.375-18.125 0-11.234-6.6406-18.031-6.6406-6.7812-17.672-6.7812-12.656 0-19.344 9.6875-6.6875 9.7031-6.6875 28.109 0 17.281 8.2031 27.562t22.016 10.281q3.7188 0 7.5-0.73438t7.8906-2.1875z"/>
</defs>
<use xlink:href="#c"/>
<use x="63.623047" xlink:href="#d"/>
<use x="95.410156" xlink:href="#c"/>
<use x="159.033203" xlink:href="#af"/>
</g>
</g>
<g clip-path="url(#a)">
<g transform="translate(599.75 567.6) scale(.1 -.1)">
<defs>
<path id="ak" d="m8.2031 72.906h46.875v-4.2031l-26.469-68.703h-10.297l24.906 64.594h-35.016z"/>
</defs>
<use xlink:href="#c"/>
<use x="63.623047" xlink:href="#d"/>
<use x="95.410156" xlink:href="#c"/>
<use x="159.033203" xlink:href="#ak"/>
</g>
</g>
<g clip-path="url(#a)">
<g transform="translate(657.32 567.6) scale(.1 -.1)">
<defs>
<path id="aj" d="m31.781 34.625q-7.0312 0-11.062-3.7656-4.0156-3.7656-4.0156-10.344 0-6.5938 4.0156-10.359 4.0312-3.7656 11.062-3.7656t11.078 3.7812q4.0625 3.7969 4.0625 10.344 0 6.5781-4.0312 10.344-4.0156 3.7656-11.109 3.7656zm-9.8594 4.1875q-6.3438 1.5625-9.8906 5.9062-3.5312 4.3594-3.5312 10.609 0 8.7344 6.2188 13.812 6.2344 5.0781 17.062 5.0781 10.891 0 17.094-5.0781t6.2031-13.812q0-6.25-3.5469-10.609-3.5312-4.3438-9.8281-5.9062 7.125-1.6562 11.094-6.5 3.9844-4.8281 3.9844-11.797 0-10.609-6.4688-16.281-6.4688-5.6562-18.531-5.6562-12.047 0-18.531 5.6562-6.4688 5.6719-6.4688 16.281 0 6.9688 4 11.797 4.0156 4.8438 11.141 6.5zm-3.6094 15.578q0-5.6562 3.5312-8.8281 3.5469-3.1719 9.9375-3.1719 6.3594 0 9.9375 3.1719 3.5938 3.1719 3.5938 8.8281 0 5.6719-3.5938 8.8438-3.5781 3.1719-9.9375 3.1719-6.3906 0-9.9375-3.1719-3.5312-3.1719-3.5312-8.8438z"/>
</defs>
<use xlink:href="#c"/>
<use x="63.623047" xlink:href="#d"/>
<use x="95.410156" xlink:href="#c"/>
<use x="159.033203" xlink:href="#aj"/>
</g>
</g>
<g clip-path="url(#a)">
<g transform="translate(717.78 567.6) scale(.1 -.1)">
<defs>
<path id="ae" d="m10.984 1.5156v8.9844q3.7188-1.7656 7.5156-2.6875 3.8125-0.92188 7.4844-0.92188 9.7656 0 14.906 6.5625 5.1562 6.5625 5.8906 19.953-2.8281-4.2031-7.1875-6.4531-4.3438-2.25-9.6094-2.25-10.938 0-17.312 6.6094-6.375 6.625-6.375 18.109 0 11.219 6.6406 18 6.6406 6.7969 17.672 6.7969 12.656 0 19.312-9.7031 6.6719-9.6875 6.6719-28.141 0-17.234-8.1875-27.516-8.1719-10.281-21.984-10.281-3.7188 0-7.5312 0.73438-3.7969 0.73438-7.9062 2.2031zm19.625 30.906q6.6406 0 10.516 4.5312 3.8906 4.5469 3.8906 12.469 0 7.8594-3.8906 12.422-3.875 4.5625-10.516 4.5625t-10.516-4.5625-3.875-12.422q0-7.9219 3.875-12.469 3.875-4.5312 10.516-4.5312z"/>
</defs>
<use xlink:href="#c"/>
<use x="63.623047" xlink:href="#d"/>
<use x="95.410156" xlink:href="#c"/>
<use x="159.033203" xlink:href="#ae"/>
</g>
</g>
<g clip-path="url(#a)">
<g transform="translate(137.22 391.85) scale(.1 -.1)">
<use xlink:href="#c"/>
<use x="63.623047" xlink:href="#d"/>
<use x="95.410156" xlink:href="#o"/>
<use x="159.033203" xlink:href="#aa"/>
</g>
</g>
<g clip-path="url(#a)">
<g transform="translate(376.64 391.85) scale(.1 -.1)">
<use xlink:href="#c"/>
<use x="63.623047" xlink:href="#d"/>
<use x="95.410156" xlink:href="#o"/>
<use x="159.033203" xlink:href="#c"/>
</g>
</g>
<g clip-path="url(#a)">
<g transform="translate(444.29 567.6) scale(.1 -.1)">
<use xlink:href="#c"/>
<use x="63.623047" xlink:href="#d"/>
<use x="95.410156" xlink:href="#o"/>
<use x="159.033203" xlink:href="#o"/>
</g>
</g>
<g clip-path="url(#a)">
<g transform="translate(355.05 567.6) scale(.1 -.1)">
<use xlink:href="#c"/>
<use x="63.623047" xlink:href="#d"/>
<use x="95.410156" xlink:href="#o"/>
<use x="159.033203" xlink:href="#z"/>
</g>
</g>
<g clip-path="url(#a)">
<g transform="translate(398.23 567.6) scale(.1 -.1)">
<use xlink:href="#c"/>
<use x="63.623047" xlink:href="#d"/>
<use x="95.410156" xlink:href="#o"/>
<use x="159.033203" xlink:href="#af"/>
</g>
</g>
<g clip-path="url(#a)">
<g transform="translate(64.291 567.6) scale(.1 -.1)">
<use xlink:href="#c"/>
<use x="63.623047" xlink:href="#d"/>
<use x="95.410156" xlink:href="#o"/>
<use x="159.033203" xlink:href="#ae"/>
</g>
</g>
<g clip-path="url(#a)">
<g transform="translate(127.62 567.6) scale(.1 -.1)">
<use xlink:href="#c"/>
<use x="63.623047" xlink:href="#d"/>
<use x="95.410156" xlink:href="#m"/>
<use x="159.033203" xlink:href="#aa"/>
</g>
</g>
<g clip-path="url(#a)">
<g transform="translate(237.02 567.6) scale(.1 -.1)">
<use xlink:href="#c"/>
<use x="63.623047" xlink:href="#d"/>
<use x="95.410156" xlink:href="#m"/>
<use x="159.033203" xlink:href="#c"/>
</g>
</g>
<g clip-path="url(#a)">
<g transform="translate(55.655 567.6) scale(.1 -.1)">
<use xlink:href="#c"/>
<use x="63.623047" xlink:href="#d"/>
<use x="95.410156" xlink:href="#m"/>
<use x="159.033203" xlink:href="#o"/>
</g>
</g>
<g clip-path="url(#a)">
<g transform="translate(75.807 567.6) scale(.1 -.1)">
<use xlink:href="#c"/>
<use x="63.623047" xlink:href="#d"/>
<use x="95.410156" xlink:href="#m"/>
<use x="159.033203" xlink:href="#m"/>
</g>
</g>
<g clip-path="url(#a)">
<g transform="translate(90.201 567.6) scale(.1 -.1)">
<use xlink:href="#c"/>
<use x="63.623047" xlink:href="#d"/>
<use x="95.410156" xlink:href="#m"/>
<use x="159.033203" xlink:href="#p"/>
</g>
</g>
<g clip-path="url(#a)">
<g transform="translate(107.47 567.6) scale(.1 -.1)">
<use xlink:href="#c"/>
<use x="63.623047" xlink:href="#d"/>
<use x="95.410156" xlink:href="#m"/>
<use x="159.033203" xlink:href="#z"/>
</g>
</g>
<g clip-path="url(#a)">
<g transform="translate(150.66 567.6) scale(.1 -.1)">
<use xlink:href="#c"/>
<use x="63.623047" xlink:href="#d"/>
<use x="95.410156" xlink:href="#m"/>
<use x="159.033203" xlink:href="#af"/>
</g>
</g>
<g clip-path="url(#a)">
<g transform="translate(176.56 567.6) scale(.1 -.1)">
<use xlink:href="#c"/>
<use x="63.623047" xlink:href="#d"/>
<use x="95.410156" xlink:href="#m"/>
<use x="159.033203" xlink:href="#ak"/>
</g>
</g>
<g clip-path="url(#a)">
<g transform="translate(205.35 567.6) scale(.1 -.1)">
<use xlink:href="#c"/>
<use x="63.623047" xlink:href="#d"/>
<use x="95.410156" xlink:href="#m"/>
<use x="159.033203" xlink:href="#aj"/>
</g>
</g>
<g clip-path="url(#a)">
<g transform="translate(277.32 567.6) scale(.1 -.1)">
<use xlink:href="#c"/>
<use x="63.623047" xlink:href="#d"/>
<use x="95.410156" xlink:href="#m"/>
<use x="159.033203" xlink:href="#ae"/>
</g>
</g>
<g clip-path="url(#a)">
<g transform="translate(314.75 567.6) scale(.1 -.1)">
<use xlink:href="#c"/>
<use x="63.623047" xlink:href="#d"/>
<use x="95.410156" xlink:href="#p"/>
<use x="159.033203" xlink:href="#aa"/>
</g>
</g>
<g clip-path="url(#a)">
<g transform="translate(493.23 567.6) scale(.1 -.1)">
<use xlink:href="#c"/>
<use x="63.623047" xlink:href="#d"/>
<use x="95.410156" xlink:href="#p"/>
<use x="159.033203" xlink:href="#c"/>
</g>
</g>
<g clip-path="url(#a)">
<g transform="translate(1305 567.6) scale(.1 -.1)">
<use xlink:href="#c"/>
<use x="63.623047" xlink:href="#d"/>
<use x="95.410156" xlink:href="#p"/>
<use x="159.033203" xlink:href="#o"/>
</g>
</g>
<g clip-path="url(#a)">
<g transform="translate(1391.4 567.6) scale(.1 -.1)">
<use xlink:href="#c"/>
<use x="63.623047" xlink:href="#d"/>
<use x="95.410156" xlink:href="#p"/>
<use x="159.033203" xlink:href="#m"/>
</g>
</g>
<defs>
<clipPath id="a">
<rect width="1469.3" height="773.33"/>
</clipPath>
</defs>
</svg>
