<?xml version="1.0" encoding="UTF-8"?>
<!DOCTYPE svg  PUBLIC '-//W3C//DTD SVG 1.1//EN'  'http://www.w3.org/Graphics/SVG/1.1/DTD/svg11.dtd'>
<svg width="1874.7pt" height="986.67pt" version="1.1" viewBox="0 0 1874.7 986.67" xmlns="http://www.w3.org/2000/svg" xmlns:xlink="http://www.w3.org/1999/xlink">
<metadata>
<rdf:RDF xmlns:cc="http://creativecommons.org/ns#" xmlns:dc="http://purl.org/dc/elements/1.1/" xmlns:rdf="http://www.w3.org/1999/02/22-rdf-syntax-ns#">
<cc:Work>
<dc:type rdf:resource="http://purl.org/dc/dcmitype/StillImage"/>
<dc:date>2021-03-17T07:22:01.032008</dc:date>
<dc:format>image/svg+xml</dc:format>
<dc:creator>
<cc:Agent>
<dc:title>Matplotlib v3.3.3, https://matplotlib.org/</dc:title>
</cc:Agent>
</dc:creator>
</cc:Work>
</rdf:RDF>
</metadata>
<defs>
<style type="text/css">*{stroke-linecap:butt;stroke-linejoin:round;}</style>
</defs>
<path d="m0 986.67h1874.7v-986.67h-1874.7z" fill="#fff"/>
<g fill="none" stroke="#000">
<path d="m857.81 44.848v150.86" clip-path="url(#a)"/>
<path d="m857.81 195.7 931.65 150.55" clip-path="url(#a)"/>
<path d="m857.81 195.7 931.65 150.55" clip-path="url(#a)"/>
<path d="m857.81 195.7v150.55" clip-path="url(#a)"/>
<path d="m857.81 346.26-706.66 150.17" clip-path="url(#a)"/>
<path d="m857.81 346.26-503.5 448.72" clip-path="url(#a)"/>
<path d="m857.81 346.26-69.852 150.17" clip-path="url(#a)"/>
<path d="m857.81 346.26 289.97 448.72" clip-path="url(#a)"/>
<path d="m857.81 346.26 398.07 299.84" clip-path="url(#a)"/>
<path d="m857.81 346.26 591.26 448.72" clip-path="url(#a)"/>
<path d="m857.81 346.26 798.25 299.84" clip-path="url(#a)"/>
<path d="m857.81 346.26-772.59 448.72" clip-path="url(#a)"/>
<path d="m857.81 346.26-538 448.72" clip-path="url(#a)"/>
<path d="m857.81 346.26 513.06 448.72" clip-path="url(#a)"/>
<path d="m151.14 496.43-59.031 298.55" clip-path="url(#a)"/>
<path d="m151.14 496.43-49.832 298.55" clip-path="url(#a)"/>
<path d="m151.14 496.43-38.332 298.55" clip-path="url(#a)"/>
<path d="m151.14 496.43-24.533 298.55" clip-path="url(#a)"/>
<path d="m151.14 496.43 10.733 149.66" clip-path="url(#a)"/>
<path d="m151.14 496.43 107.33 149.66" clip-path="url(#a)"/>
<path d="m151.14 496.43 53.665 298.55" clip-path="url(#a)"/>
<path d="m354.3 794.98v146.84" clip-path="url(#a)"/>
<path d="m787.95 496.43-335.9 149.66" clip-path="url(#a)"/>
<path d="m787.95 496.43-153.06 149.66" clip-path="url(#a)"/>
<path d="m787.95 496.43-74.862 298.55" clip-path="url(#a)"/>
<path d="m787.95 496.43-19.664 298.55" clip-path="url(#a)"/>
<path d="m787.95 496.43 37.834 298.55" clip-path="url(#a)"/>
<path d="m787.95 496.43 97.632 298.55" clip-path="url(#a)"/>
<path d="m787.95 496.43 159.73 298.55" clip-path="url(#a)"/>
<path d="m787.95 496.43 224.13 298.55" clip-path="url(#a)"/>
<path d="m787.95 496.43 290.83 298.55" clip-path="url(#a)"/>
<path d="m787.95 496.43-226.66 298.55" clip-path="url(#a)"/>
<path d="m1147.8 794.98v146.84" clip-path="url(#a)"/>
<path d="m1255.9 646.1 39.099 148.88" clip-path="url(#a)"/>
<path d="m1255.9 646.1-36.799 148.88" clip-path="url(#a)"/>
<path d="m1255.9 646.1 36.799 148.88" clip-path="url(#a)"/>
<path d="m1449.1 794.98v146.84" clip-path="url(#a)"/>
<path d="m1656.1 646.1-126.5 148.88" clip-path="url(#a)"/>
<path d="m1656.1 646.1-43.699 148.88" clip-path="url(#a)"/>
<path d="m1656.1 646.1 41.399 148.88" clip-path="url(#a)"/>
<path d="m1656.1 646.1 128.8 148.88" clip-path="url(#a)"/>
<path d="m1529.6 794.98v146.84" clip-path="url(#a)"/>
<path d="m1612.4 794.98v146.84" clip-path="url(#a)"/>
<path d="m1219.1 794.98v146.84" clip-path="url(#a)"/>
<path d="m1292.7 794.98v146.84" clip-path="url(#a)"/>
<path d="m452.05 646.1-60.948 148.88" clip-path="url(#a)"/>
<path d="m452.05 646.1-21.849 148.88" clip-path="url(#a)"/>
<path d="m452.05 646.1 19.549 148.88" clip-path="url(#a)"/>
<path d="m452.05 646.1 63.248 148.88" clip-path="url(#a)"/>
<path d="m634.89 646.1-25.299 148.88" clip-path="url(#a)"/>
<path d="m634.89 646.1 25.299 148.88" clip-path="url(#a)"/>
<path d="m713.09 794.98v146.84" clip-path="url(#a)"/>
<path d="m768.29 794.98v146.84" clip-path="url(#a)"/>
<path d="m825.79 794.98v146.84" clip-path="url(#a)"/>
<path d="m885.59 794.98v146.84" clip-path="url(#a)"/>
<path d="m947.68 794.98v146.84" clip-path="url(#a)"/>
<path d="m1012.1 794.98v146.84" clip-path="url(#a)"/>
<path d="m1078.8 794.98v146.84" clip-path="url(#a)"/>
<path d="m609.59 794.98v146.84" clip-path="url(#a)"/>
<path d="m660.19 794.98v146.84" clip-path="url(#a)"/>
<path d="m391.1 794.98v146.84" clip-path="url(#a)"/>
<path d="m430.2 794.98v146.84" clip-path="url(#a)"/>
<path d="m471.6 794.98v146.84" clip-path="url(#a)"/>
<path d="m515.3 794.98v146.84" clip-path="url(#a)"/>
<path d="m92.112 794.98v146.84" clip-path="url(#a)"/>
<path d="m101.31 794.98v146.84" clip-path="url(#a)"/>
<path d="m112.81 794.98v146.84" clip-path="url(#a)"/>
<path d="m126.61 794.98v146.84" clip-path="url(#a)"/>
<path d="m161.88 646.1-19.166 148.88" clip-path="url(#a)"/>
<path d="m161.88 646.1-0.76664 148.88" clip-path="url(#a)"/>
<path d="m161.88 646.1 19.933 148.88" clip-path="url(#a)"/>
<path d="m258.47 646.1-28.366 295.72" clip-path="url(#a)"/>
<path d="m258.47 646.1 29.132 295.72" clip-path="url(#a)"/>
<path d="m258.47 646.1-0.76664 148.88" clip-path="url(#a)"/>
<path d="m85.212 794.98v146.84" clip-path="url(#a)"/>
<path d="m204.81 794.98v146.84" clip-path="url(#a)"/>
<path d="m142.71 794.98v146.84" clip-path="url(#a)"/>
<path d="m161.11 794.98v146.84" clip-path="url(#a)"/>
<path d="m181.81 794.98v146.84" clip-path="url(#a)"/>
<path d="m257.71 794.98v146.84" clip-path="url(#a)"/>
<path d="m319.8 794.98v146.84" clip-path="url(#a)"/>
<path d="m561.3 794.98v146.84" clip-path="url(#a)"/>
<path d="m1370.9 794.98v146.84" clip-path="url(#a)"/>
<path d="m1697.5 794.98v146.84" clip-path="url(#a)"/>
<path d="m1784.9 794.98v146.84" clip-path="url(#a)"/>
</g>
<path d="m851.53 117.27v6.0162q0 2.4 2.4 2.4h7.7425q2.4 0 2.4-2.4v-6.0162q0-2.4-2.4-2.4h-7.7425q-2.4 0-2.4 2.4z" clip-path="url(#a)" fill="#fff" stroke="#fff"/>
<g clip-path="url(#a)">
<g transform="translate(855.6 117.27) rotate(90) scale(.08 -.08)">
<defs>
<path id="aa" d="m9.8125 72.906h9.8594v-29.891h35.844v29.891h9.8594v-72.906h-9.8594v34.719h-35.844v-34.719h-9.8594z"/>
</defs>
<use xlink:href="#aa"/>
</g>
</g>
<path d="m1319.9 276.74 5.4024 0.87302q2.3693 0.38287 2.7521-1.9864l1.2352-7.6433q0.38287-2.3693-1.9864-2.7521l-5.4024-0.87302q-2.3693-0.38287-2.7521 1.9864l-1.2352 7.6433q-0.38287 2.3693 1.9864 2.7521z" clip-path="url(#a)" fill="#fff" stroke="#fff"/>
<g clip-path="url(#a)">
<g transform="translate(1320.6 272.72) rotate(9.1796) scale(.08 -.08)">
<defs>
<path id="q" d="m34.188 63.188-13.391-36.281h26.812zm-5.5781 9.7188h11.188l27.781-72.906h-10.25l-6.6406 18.703h-32.859l-6.6406-18.703h-10.406z"/>
</defs>
<use xlink:href="#q"/>
</g>
</g>
<path d="m1320.2 276.79 4.762 0.76953q2.3693 0.38287 2.7521-1.9864l1.2352-7.6433q0.38287-2.3693-1.9864-2.7521l-4.762-0.76953q-2.3693-0.38287-2.7521 1.9864l-1.2352 7.6433q-0.38287 2.3693 1.9864 2.7521z" clip-path="url(#a)" fill="#fff" stroke="#fff"/>
<g clip-path="url(#a)">
<g transform="translate(1320.9 272.78) rotate(9.1796) scale(.08 -.08)">
<defs>
<path id="w" d="m19.672 64.797v-27.391h12.406q6.8906 0 10.641 3.5625 3.7656 3.5625 3.7656 10.156 0 6.5469-3.7656 10.109-3.75 3.5625-10.641 3.5625zm-9.8594 8.1094h22.266q12.266 0 18.531-5.5469 6.2812-5.5469 6.2812-16.234 0-10.797-6.2812-16.312-6.2656-5.5156-18.531-5.5156h-12.406v-29.297h-9.8594z"/>
</defs>
<use xlink:href="#w"/>
</g>
</g>
<path d="m851.53 268.25v5.4725q0 2.4 2.4 2.4h7.7425q2.4 0 2.4-2.4v-5.4725q0-2.4-2.4-2.4h-7.7425q-2.4 0-2.4 2.4z" clip-path="url(#a)" fill="#fff" stroke="#fff"/>
<g clip-path="url(#a)">
<g transform="translate(855.6 268.25) rotate(90) scale(.08 -.08)">
<use xlink:href="#q"/>
</g>
</g>
<path d="m502.84 428.1 5.8848-1.2506q2.3476-0.49888 1.8487-2.8465l-1.6094-7.5734q-0.49888-2.3476-2.8465-1.8487l-5.8848 1.2506q-2.3476 0.49888-1.8487 2.8465l1.6094 7.5734q0.49888 2.3476 2.8465 1.8487z" clip-path="url(#a)" fill="#fff" stroke="#fff"/>
<g clip-path="url(#a)">
<g transform="translate(501.99 424.13) rotate(-11.997) scale(.08 -.08)">
<use xlink:href="#aa"/>
</g>
</g>
<path d="m608.56 576.78 3.3278-2.9657q1.7917-1.5968 0.19495-3.3885l-5.1513-5.7802q-1.5968-1.7917-3.3885-0.19495l-3.3278 2.9657q-1.7917 1.5968-0.19495 3.3885l5.1513 5.7802q1.5968 1.7917 3.3885 0.19495z" clip-path="url(#a)" fill="#fff" stroke="#fff"/>
<g clip-path="url(#a)">
<g transform="translate(605.86 573.75) rotate(-41.707) scale(.08 -.08)">
<defs>
<path id="x" d="m9.8125 72.906h9.8594v-64.609h35.5v-8.2969h-45.359z"/>
</defs>
<use xlink:href="#x"/>
</g>
</g>
<path d="m827.3 426.72 2.5374-5.455q1.0122-2.1761-1.1639-3.1883l-7.0202-3.2654q-2.1761-1.0122-3.1883 1.1639l-2.5374 5.455q-1.0122 2.1761 1.1639 3.1883l7.0202 3.2654q2.1761 1.0122 3.1883-1.1639z" clip-path="url(#a)" fill="#fff" stroke="#fff"/>
<g clip-path="url(#a)">
<g transform="translate(823.61 425) rotate(-65.055) scale(.08 -.08)">
<use xlink:href="#aa"/>
</g>
</g>
<path d="m996.31 572.15 2.4193 3.7438q1.3026 2.0157 3.3183 0.71314l6.5029-4.2023q2.0157-1.3026 0.71314-3.3183l-2.4193-3.7438q-1.3026-2.0157-3.3183-0.71314l-6.5029 4.2023q-2.0157 1.3026-0.71314 3.3183z" clip-path="url(#a)" fill="#fff" stroke="#fff"/>
<g clip-path="url(#a)">
<g transform="translate(999.73 569.94) rotate(57.129) scale(.08 -.08)">
<use xlink:href="#x"/>
</g>
</g>
<path d="m1050.7 499.38 4.8055 3.6197q1.917 1.444 3.361-0.47306l4.6583-6.1844q1.444-1.917-0.47306-3.361l-4.8055-3.6197q-1.917-1.444-3.361 0.47306l-4.6583 6.1844q-1.444 1.917 0.47306 3.361z" clip-path="url(#a)" fill="#fff" stroke="#fff"/>
<g clip-path="url(#a)">
<g transform="translate(1053.1 496.13) rotate(36.988) scale(.08 -.08)">
<use xlink:href="#aa"/>
</g>
</g>
<path d="m1147.9 574.27 3.5507 2.6947q1.9118 1.4509 3.3627-0.46089l4.6806-6.1675q1.4509-1.9118-0.46089-3.3627l-3.5507-2.6947q-1.9118-1.4509-3.3627 0.46089l-4.6806 6.1675q-1.4509 1.9118 0.46089 3.3627z" clip-path="url(#a)" fill="#fff" stroke="#fff"/>
<g clip-path="url(#a)">
<g transform="translate(1150.3 571.03) rotate(37.196) scale(.08 -.08)">
<use xlink:href="#x"/>
</g>
</g>
<path d="m1251.9 500.99 5.632 2.1155q2.2467 0.84391 3.0906-1.4028l2.7225-7.2481q0.84391-2.2467-1.4028-3.0906l-5.632-2.1155q-2.2467-0.84391-3.0906 1.4028l-2.7225 7.2481q-0.84391 2.2467 1.4028 3.0906z" clip-path="url(#a)" fill="#fff" stroke="#fff"/>
<g clip-path="url(#a)">
<g transform="translate(1253.3 497.19) rotate(20.587) scale(.08 -.08)">
<use xlink:href="#aa"/>
</g>
</g>
<path d="m472.13 577.51 5.063-2.9406q2.0754-1.2054 0.87-3.2807l-3.8885-6.6952q-1.2054-2.0754-3.2807-0.87l-5.063 2.9406q-2.0754 1.2054-0.87 3.2807l3.8885 6.6952q1.2054 2.0754 3.2807 0.87z" clip-path="url(#a)" fill="#fff" stroke="#fff"/>
<g clip-path="url(#a)">
<g transform="translate(470.09 574) rotate(-30.148) scale(.08 -.08)">
<defs>
<path id="u" d="m8.6875 72.906h9.9219v-44.297q0-11.719 4.2344-16.875 4.25-5.1406 13.781-5.1406 9.4688 0 13.719 5.1406 4.25 5.1562 4.25 16.875v44.297h9.9062v-45.516q0-14.25-7.0625-21.531-7.0469-7.2812-20.812-7.2812-13.828 0-20.891 7.2812-7.0469 7.2812-7.0469 21.531z"/>
</defs>
<use xlink:href="#u"/>
</g>
</g>
<path d="m590.57 577.31 4.4964-3.7502q1.8431-1.5372 0.30586-3.3803l-4.9591-5.9459q-1.5372-1.8431-3.3803-0.30586l-4.4964 3.7502q-1.8431 1.5372-0.30586 3.3803l4.9591 5.9459q1.5372 1.8431 3.3803 0.30586z" clip-path="url(#a)" fill="#fff" stroke="#fff"/>
<g clip-path="url(#a)">
<g transform="translate(587.97 574.19) rotate(-39.83) scale(.08 -.08)">
<use xlink:href="#u"/>
</g>
</g>
<path d="m1108 573.41 4.4072 3.8545q1.8066 1.58 3.3865-0.22656l5.0971-5.828q1.58-1.8066-0.22656-3.3865l-4.4072-3.8545q-1.8066-1.58-3.3865 0.22656l-5.0971 5.828q-1.58 1.8066 0.22656 3.3865z" clip-path="url(#a)" fill="#fff" stroke="#fff"/>
<g clip-path="url(#a)">
<g transform="translate(1110.7 570.35) rotate(41.173) scale(.08 -.08)">
<use xlink:href="#u"/>
</g>
</g>
<path d="m127.25 649.61 1.0615-5.3686q0.46554-2.3544-1.8889-2.82l-7.5954-1.5018q-2.3544-0.46554-2.82 1.8889l-1.0615 5.3686q-0.46554 2.3544 1.8889 2.82l7.5954 1.5018q2.3544 0.46554 2.82-1.8889z" clip-path="url(#a)" fill="#fff" stroke="#fff"/>
<g clip-path="url(#a)">
<g transform="translate(123.26 648.82) rotate(-78.815) scale(.08 -.08)">
<use xlink:href="#q"/>
</g>
</g>
<path d="m132.03 649.01 0.75753-4.5385q0.39513-2.3672-1.9721-2.7624l-7.6368-1.2747q-2.3672-0.39513-2.7624 1.9721l-0.75753 4.5385q-0.39513 2.3673 1.9721 2.7624l7.6368 1.2747q2.3673 0.39513 2.7624-1.9721z" clip-path="url(#a)" fill="#fff" stroke="#fff"/>
<g clip-path="url(#a)">
<g transform="translate(128.03 648.34) rotate(-80.524) scale(.08 -.08)">
<defs>
<path id="af" d="m9.8125 72.906h41.891v-8.3125h-32.031v-21.484h28.906v-8.2969h-28.906v-34.812h-9.8594z"/>
</defs>
<use xlink:href="#af"/>
</g>
</g>
<path d="m137.89 648.9 0.6143-4.7845q0.30564-2.3805-2.0748-2.6861l-7.6795-0.98601q-2.3805-0.30564-2.6861 2.0748l-0.6143 4.7845q-0.30564 2.3805 2.0748 2.6861l7.6795 0.98601q2.3805 0.30564 2.6861-2.0748z" clip-path="url(#a)" fill="#fff" stroke="#fff"/>
<g clip-path="url(#a)">
<g transform="translate(133.86 648.38) rotate(-82.684) scale(.08 -.08)">
<use xlink:href="#w"/>
</g>
</g>
<path d="m144.9 648.95 0.44818-5.4541q0.19655-2.3919-2.1954-2.5885l-7.7165-0.63409q-2.3919-0.19655-2.5885 2.1954l-0.44818 5.4541q-0.19655 2.3919 2.1954 2.5885l7.7165 0.63409q2.3919 0.19655 2.5885-2.1954z" clip-path="url(#a)" fill="#fff" stroke="#fff"/>
<g clip-path="url(#a)">
<g transform="translate(140.85 648.61) rotate(-85.302) scale(.08 -.08)">
<use xlink:href="#q"/>
</g>
</g>
<path d="m150.06 568.98 0.39145 5.4585q0.17167 2.3939 2.5655 2.2222l7.7227-0.55382q2.3939-0.17167 2.2222-2.5655l-0.39145-5.4585q-0.17167-2.3939-2.5655-2.2222l-7.7227 0.55382q-2.3939 0.17167-2.2222 2.5655z" clip-path="url(#a)" fill="#fff" stroke="#fff"/>
<g clip-path="url(#a)">
<g transform="translate(154.11 568.69) rotate(85.898) scale(.08 -.08)">
<use xlink:href="#q"/>
</g>
</g>
<path d="m197.91 572.4 3.6125 5.0373q1.3987 1.9503 3.349 0.55167l6.2918-4.5121q1.9503-1.3987 0.55167-3.349l-3.6125-5.0373q-1.3987-1.9503-3.349-0.55167l-6.2918 4.5121q-1.9503 1.3987-0.55167 3.349z" clip-path="url(#a)" fill="#fff" stroke="#fff"/>
<g clip-path="url(#a)">
<g transform="translate(201.21 570.03) rotate(54.354) scale(.08 -.08)">
<defs>
<path id="ay" d="m59.516 10.406v19.578h-16.109v8.1094h25.875v-31.312q-5.7031-4.0469-12.594-6.125-6.875-2.0781-14.688-2.0781-17.094 0-26.75 9.9844-9.6406 10-9.6406 27.812 0 17.875 9.6406 27.859 9.6562 9.9844 26.75 9.9844 7.125 0 13.547-1.7656 6.4219-1.75 11.844-5.1719v-10.5q-5.4688 4.6406-11.625 6.9844t-12.938 2.3438q-13.391 0-20.109-7.4688-6.7031-7.4688-6.7031-22.266 0-14.75 6.7031-22.219 6.7188-7.4688 20.109-7.4688 5.2188 0 9.3125 0.90625 4.1094 0.90625 7.375 2.8125z"/>
</defs>
<use xlink:href="#ay"/>
</g>
</g>
<path d="m171.29 643.93 1.0359 5.7626q0.4246 2.3621 2.7867 1.9375l7.6204-1.3698q2.3621-0.4246 1.9375-2.7867l-1.0359-5.7626q-0.4246-2.3621-2.7867-1.9375l-7.6204 1.3698q-2.3621 0.4246-1.9375 2.7867z" clip-path="url(#a)" fill="#fff" stroke="#fff"/>
<g clip-path="url(#a)">
<g transform="translate(175.29 643.21) rotate(79.81) scale(.08 -.08)">
<use xlink:href="#u"/>
</g>
</g>
<path d="m348.03 851.49v33.808q0 2.4 2.4 2.4h7.7425q2.4 0 2.4-2.4v-33.808q0-2.4-2.4-2.4h-7.7425q-2.4 0-2.4 2.4z" clip-path="url(#a)" fill="#fff" stroke="#fff"/>
<g clip-path="url(#a)">
<g transform="translate(352.1 851.49) rotate(90) scale(.08 -.08)">
<defs>
<path id="i" d="m-0.29688 72.906h61.672v-8.3125h-25.875v-64.594h-9.9062v64.594h-25.891z"/>
<path id="d" d="m56.203 29.594v-4.3906h-41.312q0.59375-9.2812 5.5938-14.141t13.938-4.8594q5.1719 0 10.031 1.2656t9.6562 3.8125v-8.5q-4.8438-2.0469-9.9219-3.125t-10.297-1.0781q-13.094 0-20.734 7.6094-7.6406 7.625-7.6406 20.625 0 13.422 7.25 21.297 7.25 7.8906 19.562 7.8906 11.031 0 17.453-7.1094 6.4219-7.0938 6.4219-19.297zm-8.9844 2.6406q-0.09375 7.3594-4.125 11.75-4.0312 4.4062-10.672 4.4062-7.5156 0-12.031-4.25t-5.2031-11.969z"/>
<path id="j" d="m41.109 46.297q-1.5156 0.875-3.2969 1.2812-1.7812 0.42188-3.9219 0.42188-7.625 0-11.703-4.9531t-4.0781-14.234v-28.812h-9.0312v54.688h9.0312v-8.5q2.8438 4.9844 7.375 7.3906 4.5469 2.4219 11.047 2.4219 0.92188 0 2.0469-0.125 1.125-0.10938 2.4844-0.35938z"/>
<path id="l" d="m52 44.188q3.375 6.0625 8.0625 8.9375t11.031 2.875q8.5469 0 13.188-5.9844 4.6406-5.9688 4.6406-17v-33.016h-9.0312v32.719q0 7.8594-2.7969 11.656-2.7812 3.8125-8.4844 3.8125-6.9844 0-11.047-4.6406-4.0469-4.625-4.0469-12.641v-30.906h-9.0312v32.719q0 7.9062-2.7812 11.688t-8.5938 3.7812q-6.8906 0-10.953-4.6562-4.0469-4.6562-4.0469-12.625v-30.906h-9.0312v54.688h9.0312v-8.5q3.0781 5.0312 7.375 7.4219t10.203 2.3906q5.9688 0 10.141-3.0312 4.1719-3.0156 6.1719-8.7812z"/>
<path id="h" d="m9.4219 54.688h8.9844v-54.688h-8.9844zm0 21.297h8.9844v-11.391h-8.9844z"/>
<path id="g" d="m54.891 33.016v-33.016h-8.9844v32.719q0 7.7656-3.0312 11.609-3.0312 3.8594-9.0781 3.8594-7.2812 0-11.484-4.6406-4.2031-4.625-4.2031-12.641v-30.906h-9.0312v54.688h9.0312v-8.5q3.2344 4.9375 7.5938 7.375 4.375 2.4375 10.094 2.4375 9.4219 0 14.25-5.8281 4.8438-5.8281 4.8438-17.156z"/>
<path id="f" d="m34.281 27.484q-10.891 0-15.094-2.4844t-4.2031-8.5q0-4.7812 3.1562-7.5938 3.1562-2.7969 8.5625-2.7969 7.4844 0 12 5.2969t4.5156 14.078v2zm17.922 3.7188v-31.203h-8.9844v8.2969q-3.0781-4.9688-7.6719-7.3438t-11.234-2.375q-8.3906 0-13.359 4.7188-4.9531 4.7188-4.9531 12.625 0 9.2188 6.1719 13.906 6.1875 4.6875 18.438 4.6875h12.609v0.89062q0 6.2031-4.0781 9.5938t-11.453 3.3906q-4.6875 0-9.1406-1.125-4.4375-1.125-8.5312-3.375v8.3125q4.9219 1.9062 9.5625 2.8438 4.6406 0.95312 9.0312 0.95312 11.875 0 17.734-6.1562 5.8594-6.1406 5.8594-18.641z"/>
<path id="k" d="m9.4219 75.984h8.9844v-75.984h-8.9844z"/>
</defs>
<use xlink:href="#i"/>
<use x="44.083984" xlink:href="#d"/>
<use x="105.607422" xlink:href="#j"/>
<use x="144.970703" xlink:href="#l"/>
<use x="242.382812" xlink:href="#h"/>
<use x="270.166016" xlink:href="#g"/>
<use x="333.544922" xlink:href="#f"/>
<use x="394.824219" xlink:href="#k"/>
</g>
</g>
<path d="m620.05 578.11 4.9988-2.2272q2.1922-0.97677 1.2155-3.169l-3.1511-7.0723q-0.97677-2.1922-3.169-1.2155l-4.9988 2.2272q-2.1922 0.97677-1.2155 3.169l3.1511 7.0723q0.97677 2.1922 3.169 1.2155z" clip-path="url(#a)" fill="#fff" stroke="#fff"/>
<g clip-path="url(#a)">
<g transform="translate(618.4 574.39) rotate(-24.016) scale(.08 -.08)">
<use xlink:href="#q"/>
</g>
</g>
<path d="m713.85 577.66 3.9128-3.826q1.716-1.6779 0.038074-3.3939l-5.413-5.5358q-1.6779-1.716-3.3939-0.038073l-3.9128 3.826q-1.716 1.6779-0.038073 3.3939l5.413 5.5358q1.6779 1.716 3.3939 0.038074z" clip-path="url(#a)" fill="#fff" stroke="#fff"/>
<g clip-path="url(#a)">
<g transform="translate(711.01 574.75) rotate(-44.357) scale(.08 -.08)">
<use xlink:href="#q"/>
</g>
</g>
<path d="m755.86 650.22 1.4983-5.975q0.58374-2.3279-1.7442-2.9117l-7.51-1.8832q-2.3279-0.58374-2.9117 1.7442l-1.4983 5.975q-0.58374 2.3279 1.7442 2.9117l7.51 1.8832q2.3279 0.58374 2.9117-1.7442z" clip-path="url(#a)" fill="#fff" stroke="#fff"/>
<g clip-path="url(#a)">
<g transform="translate(751.91 649.23) rotate(-75.923) scale(.08 -.08)">
<defs>
<path id="ag" d="m19.672 64.797v-56.688h11.922q15.094 0 22.094 6.8281 7 6.8438 7 21.594 0 14.641-7 21.453t-22.094 6.8125zm-9.8594 8.1094h20.266q21.188 0 31.094-8.8125 9.9219-8.8125 9.9219-27.562 0-18.859-9.9688-27.703-9.9531-8.8281-31.047-8.8281h-20.266z"/>
</defs>
<use xlink:href="#ag"/>
</g>
</g>
<path d="m784.18 649.19 0.40486-6.1467q0.15774-2.3948-2.2371-2.5525l-7.7258-0.50887q-2.3948-0.15774-2.5525 2.2371l-0.40486 6.1467q-0.15774 2.3948 2.2371 2.5526l7.7258 0.50887q2.3948 0.15774 2.5525-2.2371z" clip-path="url(#a)" fill="#fff" stroke="#fff"/>
<g clip-path="url(#a)">
<g transform="translate(780.12 648.92) rotate(-86.232) scale(.08 -.08)">
<use xlink:href="#ag"/>
</g>
</g>
<path d="m800.36 644.21 0.57847 4.5647q0.30173 2.381 2.6827 2.0792l7.6811-0.97339q2.381-0.30173 2.0792-2.6827l-0.57847-4.5647q-0.30173-2.381-2.6827-2.0792l-7.6811 0.97339q-2.381 0.30173-2.0792 2.6827z" clip-path="url(#a)" fill="#fff" stroke="#fff"/>
<g clip-path="url(#a)">
<g transform="translate(804.39 643.7) rotate(82.778) scale(.08 -.08)">
<use xlink:href="#af"/>
</g>
</g>
<path d="m830.09 645.47 1.4302 4.3733q0.74598 2.2811 3.0271 1.5351l7.359-2.4066q2.2811-0.74598 1.5351-3.0271l-1.4302-4.3733q-0.74598-2.2811-3.0271-1.5351l-7.359 2.4066q-2.2811 0.74598-1.5351 3.0271z" clip-path="url(#a)" fill="#fff" stroke="#fff"/>
<g clip-path="url(#a)">
<g transform="translate(833.96 644.2) rotate(71.891) scale(.08 -.08)">
<use xlink:href="#af"/>
</g>
</g>
<path d="m860.84 645.95 2.906 5.4315q1.1322 2.1162 3.2484 0.98396l6.8268-3.6525q2.1162-1.1322 0.98396-3.2484l-2.906-5.4315q-1.1322-2.1162-3.2484-0.98396l-6.8268 3.6525q-2.1162 1.1322-0.98396 3.2484z" clip-path="url(#a)" fill="#fff" stroke="#fff"/>
<g clip-path="url(#a)">
<g transform="translate(864.42 644.03) rotate(61.852) scale(.08 -.08)">
<use xlink:href="#ag"/>
</g>
</g>
<path d="m893.15 647.01 3.6983 4.9263q1.4409 1.9193 3.3602 0.47844l6.1918-4.6484q1.9193-1.4409 0.47843-3.3602l-3.6983-4.9263q-1.4409-1.9193-3.3602-0.47844l-6.1918 4.6484q-1.9193 1.4409-0.47843 3.3602z" clip-path="url(#a)" fill="#fff" stroke="#fff"/>
<g clip-path="url(#a)">
<g transform="translate(896.4 644.57) rotate(53.103) scale(.08 -.08)">
<use xlink:href="#ag"/>
</g>
</g>
<path d="m927.1 648.26 3.5439 3.638q1.6747 1.7191 3.3938 0.044464l5.546-5.4026q1.7191-1.6747 0.044464-3.3938l-3.5439-3.638q-1.6747-1.7191-3.3938-0.044463l-5.546 5.4026q-1.7191 1.6747-0.044464 3.3938z" clip-path="url(#a)" fill="#fff" stroke="#fff"/>
<g clip-path="url(#a)">
<g transform="translate(930.01 645.43) rotate(45.751) scale(.08 -.08)">
<defs>
<path id="av" d="m53.516 70.516v-9.625q-5.6094 2.6875-10.594 4-4.9844 1.3281-9.625 1.3281-8.0469 0-12.422-3.125t-4.375-8.8906q0-4.8438 2.9062-7.3125 2.9062-2.4531 11.016-3.9688l5.9531-1.2188q11.031-2.1094 16.281-7.4062t5.25-14.172q0-10.609-7.1094-16.078-7.0938-5.4688-20.812-5.4688-5.1719 0-11.016 1.1719-5.8281 1.1719-12.078 3.4688v10.156q6-3.3594 11.766-5.0781 5.7656-1.7031 11.328-1.7031 8.4375 0 13.031 3.3125 4.5938 3.3281 4.5938 9.4844 0 5.3594-3.2969 8.3906t-10.812 4.5469l-6.0156 1.1719q-11.031 2.1875-15.969 6.875-4.9219 4.6875-4.9219 13.047 0 9.6719 6.8125 15.234t18.766 5.5625q5.1406 0 10.453-0.9375 5.3281-0.92188 10.891-2.7656z"/>
</defs>
<use xlink:href="#av"/>
</g>
</g>
<path d="m677.85 651.83 3.5404-4.6633q1.4512-1.9115-0.46029-3.3628l-6.1667-4.6817q-1.9115-1.4512-3.3628 0.46029l-3.5404 4.6633q-1.4512 1.9115 0.46029 3.3628l6.1667 4.6817q1.9115 1.4512 3.3628-0.46029z" clip-path="url(#a)" fill="#fff" stroke="#fff"/>
<g clip-path="url(#a)">
<g transform="translate(674.61 649.37) rotate(-52.794) scale(.08 -.08)">
<use xlink:href="#u"/>
</g>
</g>
<path d="m1141.5 851.49v33.808q0 2.4 2.4 2.4h7.7425q2.4 0 2.4-2.4v-33.808q0-2.4-2.4-2.4h-7.7425q-2.4 0-2.4 2.4z" clip-path="url(#a)" fill="#fff" stroke="#fff"/>
<g clip-path="url(#a)">
<g transform="translate(1145.6 851.49) rotate(90) scale(.08 -.08)">
<use xlink:href="#i"/>
<use x="44.083984" xlink:href="#d"/>
<use x="105.607422" xlink:href="#j"/>
<use x="144.970703" xlink:href="#l"/>
<use x="242.382812" xlink:href="#h"/>
<use x="270.166016" xlink:href="#g"/>
<use x="333.544922" xlink:href="#f"/>
<use x="394.824219" xlink:href="#k"/>
</g>
</g>
<path d="m1268.7 719.48 1.39 5.293q0.6096 2.3213 2.9309 1.7117l7.4886-1.9666q2.3213-0.6096 1.7117-2.9309l-1.39-5.293q-0.6096-2.3213-2.9309-1.7117l-7.4886 1.9666q-2.3213 0.6096-1.7117 2.9309z" clip-path="url(#a)" fill="#fff" stroke="#fff"/>
<g clip-path="url(#a)">
<g transform="translate(1272.6 718.45) rotate(75.286) scale(.08 -.08)">
<use xlink:href="#q"/>
</g>
</g>
<path d="m1242.9 724.7 1.3131-5.3126q0.57587-2.3299-1.754-2.9058l-7.5163-1.8578q-2.3299-0.57587-2.9058 1.754l-1.3131 5.3126q-0.57587 2.3299 1.754 2.9058l7.5163 1.8578q2.3299 0.57587 2.9058-1.754z" clip-path="url(#a)" fill="#fff" stroke="#fff"/>
<g clip-path="url(#a)">
<g transform="translate(1239 723.72) rotate(-76.117) scale(.08 -.08)">
<use xlink:href="#q"/>
</g>
</g>
<path d="m1267.6 719.7 1.1574 4.6828q0.57587 2.3299 2.9058 1.754l7.5163-1.8578q2.3299-0.57587 1.754-2.9058l-1.1574-4.6828q-0.57587-2.3299-2.9058-1.754l-7.5163 1.8578q-2.3299 0.57587-1.754 2.9058z" clip-path="url(#a)" fill="#fff" stroke="#fff"/>
<g clip-path="url(#a)">
<g transform="translate(1271.6 718.72) rotate(76.117) scale(.08 -.08)">
<use xlink:href="#w"/>
</g>
</g>
<path d="m1442.8 851.49v33.808q0 2.4 2.4 2.4h7.7425q2.4 0 2.4-2.4v-33.808q0-2.4-2.4-2.4h-7.7425q-2.4 0-2.4 2.4z" clip-path="url(#a)" fill="#fff" stroke="#fff"/>
<g clip-path="url(#a)">
<g transform="translate(1446.9 851.49) rotate(90) scale(.08 -.08)">
<use xlink:href="#i"/>
<use x="44.083984" xlink:href="#d"/>
<use x="105.607422" xlink:href="#j"/>
<use x="144.970703" xlink:href="#l"/>
<use x="242.382812" xlink:href="#h"/>
<use x="270.166016" xlink:href="#g"/>
<use x="333.544922" xlink:href="#f"/>
<use x="394.824219" xlink:href="#k"/>
</g>
</g>
<path d="m1595.8 726.68 3.5434-4.1705q1.554-1.829-0.27502-3.383l-5.9004-5.0132q-1.829-1.554-3.383 0.27502l-3.5434 4.1705q-1.554 1.829 0.27502 3.383l5.9004 5.0132q1.829 1.554 3.383-0.27502z" clip-path="url(#a)" fill="#fff" stroke="#fff"/>
<g clip-path="url(#a)">
<g transform="translate(1592.7 724.05) rotate(-49.648) scale(.08 -.08)">
<use xlink:href="#q"/>
</g>
</g>
<path d="m1639.5 724.62 1.3585-4.6285q0.67591-2.3029-1.6269-2.9788l-7.4291-2.1805q-2.3029-0.67591-2.9788 1.6269l-1.3585 4.6285q-0.67591 2.3029 1.6269 2.9788l7.4291 2.1805q2.3029 0.67591 2.9788-1.6269z" clip-path="url(#a)" fill="#fff" stroke="#fff"/>
<g clip-path="url(#a)">
<g transform="translate(1635.6 723.47) rotate(-73.643) scale(.08 -.08)">
<use xlink:href="#w"/>
</g>
</g>
<path d="m1669.9 719.4 1.5685 5.641q0.64296 2.3123 2.9552 1.6693l7.4595-2.0742q2.3123-0.64295 1.6693-2.9552l-1.5685-5.641q-0.64295-2.3123-2.9552-1.6693l-7.4595 2.0742q-2.3123 0.64295-1.6693 2.9552z" clip-path="url(#a)" fill="#fff" stroke="#fff"/>
<g clip-path="url(#a)">
<g transform="translate(1673.8 718.31) rotate(74.461) scale(.08 -.08)">
<use xlink:href="#u"/>
</g>
</g>
<path d="m1713.8 722.43 3.8306 4.428q1.5702 1.8151 3.3853 0.24489l5.8555-5.0655q1.8151-1.5702 0.24489-3.3853l-3.8306-4.428q-1.5702-1.8151-3.3853-0.24489l-5.8555 5.0655q-1.8151 1.5702-0.24489 3.3853z" clip-path="url(#a)" fill="#fff" stroke="#fff"/>
<g clip-path="url(#a)">
<g transform="translate(1716.9 719.77) rotate(49.138) scale(.08 -.08)">
<use xlink:href="#u"/>
</g>
</g>
<path d="m1523.3 851.49v33.808q0 2.4 2.4 2.4h7.7425q2.4 0 2.4-2.4v-33.808q0-2.4-2.4-2.4h-7.7425q-2.4 0-2.4 2.4z" clip-path="url(#a)" fill="#fff" stroke="#fff"/>
<g clip-path="url(#a)">
<g transform="translate(1527.4 851.49) rotate(90) scale(.08 -.08)">
<use xlink:href="#i"/>
<use x="44.083984" xlink:href="#d"/>
<use x="105.607422" xlink:href="#j"/>
<use x="144.970703" xlink:href="#l"/>
<use x="242.382812" xlink:href="#h"/>
<use x="270.166016" xlink:href="#g"/>
<use x="333.544922" xlink:href="#f"/>
<use x="394.824219" xlink:href="#k"/>
</g>
</g>
<path d="m1606.1 851.49v33.808q0 2.4 2.4 2.4h7.7425q2.4 0 2.4-2.4v-33.808q0-2.4-2.4-2.4h-7.7425q-2.4 0-2.4 2.4z" clip-path="url(#a)" fill="#fff" stroke="#fff"/>
<g clip-path="url(#a)">
<g transform="translate(1610.2 851.49) rotate(90) scale(.08 -.08)">
<use xlink:href="#i"/>
<use x="44.083984" xlink:href="#d"/>
<use x="105.607422" xlink:href="#j"/>
<use x="144.970703" xlink:href="#l"/>
<use x="242.382812" xlink:href="#h"/>
<use x="270.166016" xlink:href="#g"/>
<use x="333.544922" xlink:href="#f"/>
<use x="394.824219" xlink:href="#k"/>
</g>
</g>
<path d="m1212.8 851.49v33.808q0 2.4 2.4 2.4h7.7425q2.4 0 2.4-2.4v-33.808q0-2.4-2.4-2.4h-7.7425q-2.4 0-2.4 2.4z" clip-path="url(#a)" fill="#fff" stroke="#fff"/>
<g clip-path="url(#a)">
<g transform="translate(1216.9 851.49) rotate(90) scale(.08 -.08)">
<use xlink:href="#i"/>
<use x="44.083984" xlink:href="#d"/>
<use x="105.607422" xlink:href="#j"/>
<use x="144.970703" xlink:href="#l"/>
<use x="242.382812" xlink:href="#h"/>
<use x="270.166016" xlink:href="#g"/>
<use x="333.544922" xlink:href="#f"/>
<use x="394.824219" xlink:href="#k"/>
</g>
</g>
<path d="m1286.4 851.49v33.808q0 2.4 2.4 2.4h7.7425q2.4 0 2.4-2.4v-33.808q0-2.4-2.4-2.4h-7.7425q-2.4 0-2.4 2.4z" clip-path="url(#a)" fill="#fff" stroke="#fff"/>
<g clip-path="url(#a)">
<g transform="translate(1290.5 851.49) rotate(90) scale(.08 -.08)">
<use xlink:href="#i"/>
<use x="44.083984" xlink:href="#d"/>
<use x="105.607422" xlink:href="#j"/>
<use x="144.970703" xlink:href="#l"/>
<use x="242.382812" xlink:href="#h"/>
<use x="270.166016" xlink:href="#g"/>
<use x="333.544922" xlink:href="#f"/>
<use x="394.824219" xlink:href="#k"/>
</g>
</g>
<path d="m426.33 725.48 2.1059-5.1444q0.90925-2.2211-1.3118-3.1303l-7.1654-2.9333q-2.2211-0.90925-3.1303 1.3119l-2.1059 5.1444q-0.90925 2.2211 1.3118 3.1303l7.1654 2.9333q2.2211 0.90925 3.1303-1.3118z" clip-path="url(#a)" fill="#fff" stroke="#fff"/>
<g clip-path="url(#a)">
<g transform="translate(422.57 723.95) rotate(-67.737) scale(.08 -.08)">
<defs>
<path id="ak" d="m44.391 34.188q3.1719-1.0781 6.1719-4.5938t6.0312-9.6719l10.016-19.922h-10.609l-9.3125 18.703q-3.625 7.3281-7.0156 9.7188t-9.25 2.3906h-10.75v-30.812h-9.8594v72.906h22.266q12.5 0 18.656-5.2344 6.1562-5.2188 6.1562-15.766 0-6.8906-3.2031-11.438-3.2031-4.5312-9.2969-6.2812zm-24.719 30.609v-25.875h12.406q7.125 0 10.766 3.2969t3.6406 9.6875-3.6406 9.6406-10.766 3.25z"/>
</defs>
<use xlink:href="#ak"/>
</g>
</g>
<path d="m446.93 724.2 0.80713-5.4998q0.34848-2.3746-2.0261-2.723l-7.6604-1.1242q-2.3746-0.34848-2.723 2.0261l-0.80713 5.4998q-0.34848 2.3746 2.0261 2.723l7.6604 1.1242q2.3746 0.34848 2.723-2.0261z" clip-path="url(#a)" fill="#fff" stroke="#fff"/>
<g clip-path="url(#a)">
<g transform="translate(442.91 723.61) rotate(-81.651) scale(.08 -.08)">
<use xlink:href="#ak"/>
</g>
</g>
<path d="m455.31 719.07 0.59903 4.5621q0.31245 2.3796 2.692 2.0671l7.6766-1.008q2.3796-0.31245 2.0671-2.692l-0.59903-4.5621q-0.31246-2.3796-2.692-2.0671l-7.6766 1.008q-2.3796 0.31245-2.0671 2.692z" clip-path="url(#a)" fill="#fff" stroke="#fff"/>
<g clip-path="url(#a)">
<g transform="translate(459.34 718.54) rotate(82.519) scale(.08 -.08)">
<use xlink:href="#af"/>
</g>
</g>
<path d="m476.81 720.42 2.1842 5.1415q0.93839 2.2089 3.1473 1.2705l7.1261-3.0273q2.2089-0.93839 1.2705-3.1473l-2.1842-5.1415q-0.93839-2.2089-3.1473-1.2705l-7.1261 3.0273q-2.2089 0.93839-1.2705 3.1473z" clip-path="url(#a)" fill="#fff" stroke="#fff"/>
<g clip-path="url(#a)">
<g transform="translate(480.55 718.83) rotate(66.983) scale(.08 -.08)">
<defs>
<path id="y" d="m64.406 67.281v-10.391q-4.9844 4.6406-10.625 6.9219-5.6406 2.2969-11.984 2.2969-12.5 0-19.141-7.6406t-6.6406-22.094q0-14.406 6.6406-22.047t19.141-7.6406q6.3438 0 11.984 2.2969t10.625 6.9375v-10.312q-5.1719-3.5156-10.969-5.2812-5.7812-1.75-12.219-1.75-16.562 0-26.094 10.125-9.5156 10.141-9.5156 27.672 0 17.578 9.5156 27.703 9.5312 10.141 26.094 10.141 6.5312 0 12.312-1.7344 5.7969-1.7344 10.875-5.2031z"/>
</defs>
<use xlink:href="#y"/>
</g>
</g>
<path d="m628 724.08 0.84684-4.9836q0.40206-2.3661-1.964-2.7681l-7.6331-1.2971q-2.3661-0.40206-2.7681 1.964l-0.84684 4.9836q-0.40206 2.3661 1.964 2.7681l7.6331 1.2971q2.3661 0.40206 2.7681-1.964z" clip-path="url(#a)" fill="#fff" stroke="#fff"/>
<g clip-path="url(#a)">
<g transform="translate(624 723.4) rotate(-80.356) scale(.08 -.08)">
<defs>
<path id="az" d="m9.8125 72.906h46.094v-8.3125h-36.234v-21.578h34.719v-8.2969h-34.719v-26.422h37.109v-8.2969h-46.969z"/>
</defs>
<use xlink:href="#az"/>
</g>
</g>
<path d="m640.89 718.83 0.93584 5.5073q0.40206 2.3661 2.7681 1.964l7.6331-1.2971q2.3661-0.40206 1.964-2.7681l-0.93584-5.5073q-0.40206-2.3661-2.7681-1.964l-7.6331 1.2971q-2.3661 0.40206-1.964 2.7681z" clip-path="url(#a)" fill="#fff" stroke="#fff"/>
<g clip-path="url(#a)">
<g transform="translate(644.9 718.15) rotate(80.356) scale(.08 -.08)">
<use xlink:href="#y"/>
</g>
</g>
<path d="m706.82 851.49v33.808q0 2.4 2.4 2.4h7.7425q2.4 0 2.4-2.4v-33.808q0-2.4-2.4-2.4h-7.7425q-2.4 0-2.4 2.4z" clip-path="url(#a)" fill="#fff" stroke="#fff"/>
<g clip-path="url(#a)">
<g transform="translate(710.88 851.49) rotate(90) scale(.08 -.08)">
<use xlink:href="#i"/>
<use x="44.083984" xlink:href="#d"/>
<use x="105.607422" xlink:href="#j"/>
<use x="144.970703" xlink:href="#l"/>
<use x="242.382812" xlink:href="#h"/>
<use x="270.166016" xlink:href="#g"/>
<use x="333.544922" xlink:href="#f"/>
<use x="394.824219" xlink:href="#k"/>
</g>
</g>
<path d="m762.02 851.49v33.808q0 2.4 2.4 2.4h7.7425q2.4 0 2.4-2.4v-33.808q0-2.4-2.4-2.4h-7.7425q-2.4 0-2.4 2.4z" clip-path="url(#a)" fill="#fff" stroke="#fff"/>
<g clip-path="url(#a)">
<g transform="translate(766.08 851.49) rotate(90) scale(.08 -.08)">
<use xlink:href="#i"/>
<use x="44.083984" xlink:href="#d"/>
<use x="105.607422" xlink:href="#j"/>
<use x="144.970703" xlink:href="#l"/>
<use x="242.382812" xlink:href="#h"/>
<use x="270.166016" xlink:href="#g"/>
<use x="333.544922" xlink:href="#f"/>
<use x="394.824219" xlink:href="#k"/>
</g>
</g>
<path d="m819.52 851.49v33.808q0 2.4 2.4 2.4h7.7425q2.4 0 2.4-2.4v-33.808q0-2.4-2.4-2.4h-7.7425q-2.4 0-2.4 2.4z" clip-path="url(#a)" fill="#fff" stroke="#fff"/>
<g clip-path="url(#a)">
<g transform="translate(823.58 851.49) rotate(90) scale(.08 -.08)">
<use xlink:href="#i"/>
<use x="44.083984" xlink:href="#d"/>
<use x="105.607422" xlink:href="#j"/>
<use x="144.970703" xlink:href="#l"/>
<use x="242.382812" xlink:href="#h"/>
<use x="270.166016" xlink:href="#g"/>
<use x="333.544922" xlink:href="#f"/>
<use x="394.824219" xlink:href="#k"/>
</g>
</g>
<path d="m879.31 851.49v33.808q0 2.4 2.4 2.4h7.7425q2.4 0 2.4-2.4v-33.808q0-2.4-2.4-2.4h-7.7425q-2.4 0-2.4 2.4z" clip-path="url(#a)" fill="#fff" stroke="#fff"/>
<g clip-path="url(#a)">
<g transform="translate(883.38 851.49) rotate(90) scale(.08 -.08)">
<use xlink:href="#i"/>
<use x="44.083984" xlink:href="#d"/>
<use x="105.607422" xlink:href="#j"/>
<use x="144.970703" xlink:href="#l"/>
<use x="242.382812" xlink:href="#h"/>
<use x="270.166016" xlink:href="#g"/>
<use x="333.544922" xlink:href="#f"/>
<use x="394.824219" xlink:href="#k"/>
</g>
</g>
<path d="m941.41 851.49v33.808q0 2.4 2.4 2.4h7.7425q2.4 0 2.4-2.4v-33.808q0-2.4-2.4-2.4h-7.7425q-2.4 0-2.4 2.4z" clip-path="url(#a)" fill="#fff" stroke="#fff"/>
<g clip-path="url(#a)">
<g transform="translate(945.48 851.49) rotate(90) scale(.08 -.08)">
<use xlink:href="#i"/>
<use x="44.083984" xlink:href="#d"/>
<use x="105.607422" xlink:href="#j"/>
<use x="144.970703" xlink:href="#l"/>
<use x="242.382812" xlink:href="#h"/>
<use x="270.166016" xlink:href="#g"/>
<use x="333.544922" xlink:href="#f"/>
<use x="394.824219" xlink:href="#k"/>
</g>
</g>
<path d="m1005.8 851.49v33.808q0 2.4 2.4 2.4h7.7425q2.4 0 2.4-2.4v-33.808q0-2.4-2.4-2.4h-7.7425q-2.4 0-2.4 2.4z" clip-path="url(#a)" fill="#fff" stroke="#fff"/>
<g clip-path="url(#a)">
<g transform="translate(1009.9 851.49) rotate(90) scale(.08 -.08)">
<use xlink:href="#i"/>
<use x="44.083984" xlink:href="#d"/>
<use x="105.607422" xlink:href="#j"/>
<use x="144.970703" xlink:href="#l"/>
<use x="242.382812" xlink:href="#h"/>
<use x="270.166016" xlink:href="#g"/>
<use x="333.544922" xlink:href="#f"/>
<use x="394.824219" xlink:href="#k"/>
</g>
</g>
<path d="m1072.5 851.49v33.808q0 2.4 2.4 2.4h7.7425q2.4 0 2.4-2.4v-33.808q0-2.4-2.4-2.4h-7.7425q-2.4 0-2.4 2.4z" clip-path="url(#a)" fill="#fff" stroke="#fff"/>
<g clip-path="url(#a)">
<g transform="translate(1076.6 851.49) rotate(90) scale(.08 -.08)">
<use xlink:href="#i"/>
<use x="44.083984" xlink:href="#d"/>
<use x="105.607422" xlink:href="#j"/>
<use x="144.970703" xlink:href="#l"/>
<use x="242.382812" xlink:href="#h"/>
<use x="270.166016" xlink:href="#g"/>
<use x="333.544922" xlink:href="#f"/>
<use x="394.824219" xlink:href="#k"/>
</g>
</g>
<path d="m603.32 851.49v33.808q0 2.4 2.4 2.4h7.7425q2.4 0 2.4-2.4v-33.808q0-2.4-2.4-2.4h-7.7425q-2.4 0-2.4 2.4z" clip-path="url(#a)" fill="#fff" stroke="#fff"/>
<g clip-path="url(#a)">
<g transform="translate(607.39 851.49) rotate(90) scale(.08 -.08)">
<use xlink:href="#i"/>
<use x="44.083984" xlink:href="#d"/>
<use x="105.607422" xlink:href="#j"/>
<use x="144.970703" xlink:href="#l"/>
<use x="242.382812" xlink:href="#h"/>
<use x="270.166016" xlink:href="#g"/>
<use x="333.544922" xlink:href="#f"/>
<use x="394.824219" xlink:href="#k"/>
</g>
</g>
<path d="m653.92 851.49v33.808q0 2.4 2.4 2.4h7.7425q2.4 0 2.4-2.4v-33.808q0-2.4-2.4-2.4h-7.7425q-2.4 0-2.4 2.4z" clip-path="url(#a)" fill="#fff" stroke="#fff"/>
<g clip-path="url(#a)">
<g transform="translate(657.99 851.49) rotate(90) scale(.08 -.08)">
<use xlink:href="#i"/>
<use x="44.083984" xlink:href="#d"/>
<use x="105.607422" xlink:href="#j"/>
<use x="144.970703" xlink:href="#l"/>
<use x="242.382812" xlink:href="#h"/>
<use x="270.166016" xlink:href="#g"/>
<use x="333.544922" xlink:href="#f"/>
<use x="394.824219" xlink:href="#k"/>
</g>
</g>
<path d="m384.83 851.49v33.808q0 2.4 2.4 2.4h7.7425q2.4 0 2.4-2.4v-33.808q0-2.4-2.4-2.4h-7.7425q-2.4 0-2.4 2.4z" clip-path="url(#a)" fill="#fff" stroke="#fff"/>
<g clip-path="url(#a)">
<g transform="translate(388.89 851.49) rotate(90) scale(.08 -.08)">
<use xlink:href="#i"/>
<use x="44.083984" xlink:href="#d"/>
<use x="105.607422" xlink:href="#j"/>
<use x="144.970703" xlink:href="#l"/>
<use x="242.382812" xlink:href="#h"/>
<use x="270.166016" xlink:href="#g"/>
<use x="333.544922" xlink:href="#f"/>
<use x="394.824219" xlink:href="#k"/>
</g>
</g>
<path d="m423.93 851.49v33.808q0 2.4 2.4 2.4h7.7425q2.4 0 2.4-2.4v-33.808q0-2.4-2.4-2.4h-7.7425q-2.4 0-2.4 2.4z" clip-path="url(#a)" fill="#fff" stroke="#fff"/>
<g clip-path="url(#a)">
<g transform="translate(427.99 851.49) rotate(90) scale(.08 -.08)">
<use xlink:href="#i"/>
<use x="44.083984" xlink:href="#d"/>
<use x="105.607422" xlink:href="#j"/>
<use x="144.970703" xlink:href="#l"/>
<use x="242.382812" xlink:href="#h"/>
<use x="270.166016" xlink:href="#g"/>
<use x="333.544922" xlink:href="#f"/>
<use x="394.824219" xlink:href="#k"/>
</g>
</g>
<path d="m465.33 851.49v33.808q0 2.4 2.4 2.4h7.7425q2.4 0 2.4-2.4v-33.808q0-2.4-2.4-2.4h-7.7425q-2.4 0-2.4 2.4z" clip-path="url(#a)" fill="#fff" stroke="#fff"/>
<g clip-path="url(#a)">
<g transform="translate(469.39 851.49) rotate(90) scale(.08 -.08)">
<use xlink:href="#i"/>
<use x="44.083984" xlink:href="#d"/>
<use x="105.607422" xlink:href="#j"/>
<use x="144.970703" xlink:href="#l"/>
<use x="242.382812" xlink:href="#h"/>
<use x="270.166016" xlink:href="#g"/>
<use x="333.544922" xlink:href="#f"/>
<use x="394.824219" xlink:href="#k"/>
</g>
</g>
<path d="m509.03 851.49v33.808q0 2.4 2.4 2.4h7.7425q2.4 0 2.4-2.4v-33.808q0-2.4-2.4-2.4h-7.7425q-2.4 0-2.4 2.4z" clip-path="url(#a)" fill="#fff" stroke="#fff"/>
<g clip-path="url(#a)">
<g transform="translate(513.09 851.49) rotate(90) scale(.08 -.08)">
<use xlink:href="#i"/>
<use x="44.083984" xlink:href="#d"/>
<use x="105.607422" xlink:href="#j"/>
<use x="144.970703" xlink:href="#l"/>
<use x="242.382812" xlink:href="#h"/>
<use x="270.166016" xlink:href="#g"/>
<use x="333.544922" xlink:href="#f"/>
<use x="394.824219" xlink:href="#k"/>
</g>
</g>
<path d="m85.841 851.49v33.808q0 2.4 2.4 2.4h7.7425q2.4 0 2.4-2.4v-33.808q0-2.4-2.4-2.4h-7.7425q-2.4 0-2.4 2.4z" clip-path="url(#a)" fill="#fff" stroke="#fff"/>
<g clip-path="url(#a)">
<g transform="translate(89.904 851.49) rotate(90) scale(.08 -.08)">
<use xlink:href="#i"/>
<use x="44.083984" xlink:href="#d"/>
<use x="105.607422" xlink:href="#j"/>
<use x="144.970703" xlink:href="#l"/>
<use x="242.382812" xlink:href="#h"/>
<use x="270.166016" xlink:href="#g"/>
<use x="333.544922" xlink:href="#f"/>
<use x="394.824219" xlink:href="#k"/>
</g>
</g>
<path d="m95.04 851.49v33.808q0 2.4 2.4 2.4h7.7425q2.4 0 2.4-2.4v-33.808q0-2.4-2.4-2.4h-7.7425q-2.4 0-2.4 2.4z" clip-path="url(#a)" fill="#fff" stroke="#fff"/>
<g clip-path="url(#a)">
<g transform="translate(99.104 851.49) rotate(90) scale(.08 -.08)">
<use xlink:href="#i"/>
<use x="44.083984" xlink:href="#d"/>
<use x="105.607422" xlink:href="#j"/>
<use x="144.970703" xlink:href="#l"/>
<use x="242.382812" xlink:href="#h"/>
<use x="270.166016" xlink:href="#g"/>
<use x="333.544922" xlink:href="#f"/>
<use x="394.824219" xlink:href="#k"/>
</g>
</g>
<path d="m106.54 851.49v33.808q0 2.4 2.4 2.4h7.7425q2.4 0 2.4-2.4v-33.808q0-2.4-2.4-2.4h-7.7425q-2.4 0-2.4 2.4z" clip-path="url(#a)" fill="#fff" stroke="#fff"/>
<g clip-path="url(#a)">
<g transform="translate(110.6 851.49) rotate(90) scale(.08 -.08)">
<use xlink:href="#i"/>
<use x="44.083984" xlink:href="#d"/>
<use x="105.607422" xlink:href="#j"/>
<use x="144.970703" xlink:href="#l"/>
<use x="242.382812" xlink:href="#h"/>
<use x="270.166016" xlink:href="#g"/>
<use x="333.544922" xlink:href="#f"/>
<use x="394.824219" xlink:href="#k"/>
</g>
</g>
<path d="m120.34 851.49v33.808q0 2.4 2.4 2.4h7.7425q2.4 0 2.4-2.4v-33.808q0-2.4-2.4-2.4h-7.7425q-2.4 0-2.4 2.4z" clip-path="url(#a)" fill="#fff" stroke="#fff"/>
<g clip-path="url(#a)">
<g transform="translate(124.4 851.49) rotate(90) scale(.08 -.08)">
<use xlink:href="#i"/>
<use x="44.083984" xlink:href="#d"/>
<use x="105.607422" xlink:href="#j"/>
<use x="144.970703" xlink:href="#l"/>
<use x="242.382812" xlink:href="#h"/>
<use x="270.166016" xlink:href="#g"/>
<use x="333.544922" xlink:href="#f"/>
<use x="394.824219" xlink:href="#k"/>
</g>
</g>
<path d="m158.16 724.09 0.70973-5.5133q0.30643-2.3804-2.0739-2.6868l-7.6791-0.98855q-2.3804-0.30643-2.6868 2.0739l-0.70973 5.5133q-0.30643 2.3804 2.0739 2.6868l7.6791 0.98855q2.3804 0.30643 2.6868-2.0739z" clip-path="url(#a)" fill="#fff" stroke="#fff"/>
<g clip-path="url(#a)">
<g transform="translate(154.13 723.57) rotate(-82.665) scale(.08 -.08)">
<use xlink:href="#ak"/>
</g>
</g>
<path d="m167.75 723.72 0.032427-6.2974q0.012358-2.4-2.3876-2.4123l-7.7424-0.039868q-2.4-0.012358-2.4123 2.3876l-0.032427 6.2974q-0.012358 2.4 2.3876 2.4123l7.7424 0.039868q2.4 0.012358 2.4123-2.3876z" clip-path="url(#a)" fill="#fff" stroke="#fff"/>
<g clip-path="url(#a)">
<g transform="translate(163.68 723.7) rotate(-89.705) scale(.08 -.08)">
<defs>
<path id="aw" d="m39.406 66.219q-10.75 0-17.078-8.0156-6.3125-8-6.3125-21.828 0-13.766 6.3125-21.781 6.3281-8 17.078-8 10.734 0 17.016 8 6.2812 8.0156 6.2812 21.781 0 13.828-6.2812 21.828-6.2812 8.0156-17.016 8.0156zm13.812-64.906 13-14.203h-11.922l-10.797 11.672q-1.6094-0.09375-2.4688-0.14062-0.84375-0.0625-1.625-0.0625-15.375 0-24.594 10.281-9.2031 10.281-9.2031 27.516 0 17.281 9.2031 27.562 9.2188 10.281 24.594 10.281 15.328 0 24.5-10.281 9.1875-10.281 9.1875-27.562 0-12.688-5.1094-21.734-5.0938-9.0312-14.766-13.328z"/>
</defs>
<use xlink:href="#aw"/>
</g>
</g>
<path d="m165.26 718.6 0.74128 5.5368q0.31847 2.3788 2.6972 2.0603l7.674-1.0274q2.3788-0.31847 2.0603-2.6972l-0.74128-5.5368q-0.31847-2.3788-2.6972-2.0603l-7.674 1.0274q-2.3788 0.31847-2.0603 2.6972z" clip-path="url(#a)" fill="#fff" stroke="#fff"/>
<g clip-path="url(#a)">
<g transform="translate(169.28 718.06) rotate(82.375) scale(.08 -.08)">
<use xlink:href="#y"/>
</g>
</g>
<path d="m248.92 811.38 3.228-33.653q0.22916-2.389-2.1599-2.6182l-7.7071-0.73927q-2.389-0.22916-2.6182 2.1599l-3.228 33.653q-0.22916 2.389 2.1599 2.6182l7.7071 0.73927q2.389 0.22916 2.6182-2.1599z" clip-path="url(#a)" fill="#fff" stroke="#fff"/>
<g clip-path="url(#a)">
<g transform="translate(244.87 810.99) rotate(-84.521) scale(.08 -.08)">
<use xlink:href="#i"/>
<use x="44.083984" xlink:href="#d"/>
<use x="105.607422" xlink:href="#j"/>
<use x="144.970703" xlink:href="#l"/>
<use x="242.382812" xlink:href="#h"/>
<use x="270.166016" xlink:href="#g"/>
<use x="333.544922" xlink:href="#f"/>
<use x="394.824219" xlink:href="#k"/>
</g>
</g>
<path d="m265.14 777.75 3.3144 33.645q0.23529 2.3884 2.6237 2.1531l7.7052-0.75906q2.3884-0.23529 2.1531-2.6237l-3.3144-33.645q-0.23529-2.3884-2.6237-2.1531l-7.7052 0.75906q-2.3884 0.23529-2.1531 2.6237z" clip-path="url(#a)" fill="#fff" stroke="#fff"/>
<g clip-path="url(#a)">
<g transform="translate(269.19 777.35) rotate(84.374) scale(.08 -.08)">
<use xlink:href="#i"/>
<use x="44.083984" xlink:href="#d"/>
<use x="105.607422" xlink:href="#j"/>
<use x="144.970703" xlink:href="#l"/>
<use x="242.382812" xlink:href="#h"/>
<use x="270.166016" xlink:href="#g"/>
<use x="333.544922" xlink:href="#f"/>
<use x="394.824219" xlink:href="#k"/>
</g>
</g>
<path d="m264.35 723.5 0.030148-5.8549q0.012358-2.4-2.3876-2.4123l-7.7424-0.039868q-2.4-0.012358-2.4123 2.3876l-0.030149 5.8549q-0.012358 2.4 2.3876 2.4123l7.7424 0.039868q2.4 0.012358 2.4123-2.3876z" clip-path="url(#a)" fill="#fff" stroke="#fff"/>
<g clip-path="url(#a)">
<g transform="translate(260.28 723.48) rotate(-89.705) scale(.08 -.08)">
<use xlink:href="#u"/>
</g>
</g>
<path d="m78.941 851.49v33.808q0 2.4 2.4 2.4h7.7425q2.4 0 2.4-2.4v-33.808q0-2.4-2.4-2.4h-7.7425q-2.4 0-2.4 2.4z" clip-path="url(#a)" fill="#fff" stroke="#fff"/>
<g clip-path="url(#a)">
<g transform="translate(83.005 851.49) rotate(90) scale(.08 -.08)">
<use xlink:href="#i"/>
<use x="44.083984" xlink:href="#d"/>
<use x="105.607422" xlink:href="#j"/>
<use x="144.970703" xlink:href="#l"/>
<use x="242.382812" xlink:href="#h"/>
<use x="270.166016" xlink:href="#g"/>
<use x="333.544922" xlink:href="#f"/>
<use x="394.824219" xlink:href="#k"/>
</g>
</g>
<path d="m198.54 851.49v33.808q0 2.4 2.4 2.4h7.7425q2.4 0 2.4-2.4v-33.808q0-2.4-2.4-2.4h-7.7425q-2.4 0-2.4 2.4z" clip-path="url(#a)" fill="#fff" stroke="#fff"/>
<g clip-path="url(#a)">
<g transform="translate(202.6 851.49) rotate(90) scale(.08 -.08)">
<use xlink:href="#i"/>
<use x="44.083984" xlink:href="#d"/>
<use x="105.607422" xlink:href="#j"/>
<use x="144.970703" xlink:href="#l"/>
<use x="242.382812" xlink:href="#h"/>
<use x="270.166016" xlink:href="#g"/>
<use x="333.544922" xlink:href="#f"/>
<use x="394.824219" xlink:href="#k"/>
</g>
</g>
<path d="m136.44 851.49v33.808q0 2.4 2.4 2.4h7.7425q2.4 0 2.4-2.4v-33.808q0-2.4-2.4-2.4h-7.7425q-2.4 0-2.4 2.4z" clip-path="url(#a)" fill="#fff" stroke="#fff"/>
<g clip-path="url(#a)">
<g transform="translate(140.5 851.49) rotate(90) scale(.08 -.08)">
<use xlink:href="#i"/>
<use x="44.083984" xlink:href="#d"/>
<use x="105.607422" xlink:href="#j"/>
<use x="144.970703" xlink:href="#l"/>
<use x="242.382812" xlink:href="#h"/>
<use x="270.166016" xlink:href="#g"/>
<use x="333.544922" xlink:href="#f"/>
<use x="394.824219" xlink:href="#k"/>
</g>
</g>
<path d="m154.84 851.49v33.808q0 2.4 2.4 2.4h7.7425q2.4 0 2.4-2.4v-33.808q0-2.4-2.4-2.4h-7.7425q-2.4 0-2.4 2.4z" clip-path="url(#a)" fill="#fff" stroke="#fff"/>
<g clip-path="url(#a)">
<g transform="translate(158.9 851.49) rotate(90) scale(.08 -.08)">
<use xlink:href="#i"/>
<use x="44.083984" xlink:href="#d"/>
<use x="105.607422" xlink:href="#j"/>
<use x="144.970703" xlink:href="#l"/>
<use x="242.382812" xlink:href="#h"/>
<use x="270.166016" xlink:href="#g"/>
<use x="333.544922" xlink:href="#f"/>
<use x="394.824219" xlink:href="#k"/>
</g>
</g>
<path d="m175.54 851.49v33.808q0 2.4 2.4 2.4h7.7425q2.4 0 2.4-2.4v-33.808q0-2.4-2.4-2.4h-7.7425q-2.4 0-2.4 2.4z" clip-path="url(#a)" fill="#fff" stroke="#fff"/>
<g clip-path="url(#a)">
<g transform="translate(179.6 851.49) rotate(90) scale(.08 -.08)">
<use xlink:href="#i"/>
<use x="44.083984" xlink:href="#d"/>
<use x="105.607422" xlink:href="#j"/>
<use x="144.970703" xlink:href="#l"/>
<use x="242.382812" xlink:href="#h"/>
<use x="270.166016" xlink:href="#g"/>
<use x="333.544922" xlink:href="#f"/>
<use x="394.824219" xlink:href="#k"/>
</g>
</g>
<path d="m251.44 851.49v33.808q0 2.4 2.4 2.4h7.7425q2.4 0 2.4-2.4v-33.808q0-2.4-2.4-2.4h-7.7425q-2.4 0-2.4 2.4z" clip-path="url(#a)" fill="#fff" stroke="#fff"/>
<g clip-path="url(#a)">
<g transform="translate(255.5 851.49) rotate(90) scale(.08 -.08)">
<use xlink:href="#i"/>
<use x="44.083984" xlink:href="#d"/>
<use x="105.607422" xlink:href="#j"/>
<use x="144.970703" xlink:href="#l"/>
<use x="242.382812" xlink:href="#h"/>
<use x="270.166016" xlink:href="#g"/>
<use x="333.544922" xlink:href="#f"/>
<use x="394.824219" xlink:href="#k"/>
</g>
</g>
<path d="m313.53 851.49v33.808q0 2.4 2.4 2.4h7.7425q2.4 0 2.4-2.4v-33.808q0-2.4-2.4-2.4h-7.7425q-2.4 0-2.4 2.4z" clip-path="url(#a)" fill="#fff" stroke="#fff"/>
<g clip-path="url(#a)">
<g transform="translate(317.6 851.49) rotate(90) scale(.08 -.08)">
<use xlink:href="#i"/>
<use x="44.083984" xlink:href="#d"/>
<use x="105.607422" xlink:href="#j"/>
<use x="144.970703" xlink:href="#l"/>
<use x="242.382812" xlink:href="#h"/>
<use x="270.166016" xlink:href="#g"/>
<use x="333.544922" xlink:href="#f"/>
<use x="394.824219" xlink:href="#k"/>
</g>
</g>
<path d="m555.02 851.49v33.808q0 2.4 2.4 2.4h7.7425q2.4 0 2.4-2.4v-33.808q0-2.4-2.4-2.4h-7.7425q-2.4 0-2.4 2.4z" clip-path="url(#a)" fill="#fff" stroke="#fff"/>
<g clip-path="url(#a)">
<g transform="translate(559.09 851.49) rotate(90) scale(.08 -.08)">
<use xlink:href="#i"/>
<use x="44.083984" xlink:href="#d"/>
<use x="105.607422" xlink:href="#j"/>
<use x="144.970703" xlink:href="#l"/>
<use x="242.382812" xlink:href="#h"/>
<use x="270.166016" xlink:href="#g"/>
<use x="333.544922" xlink:href="#f"/>
<use x="394.824219" xlink:href="#k"/>
</g>
</g>
<path d="m1364.6 851.49v33.808q0 2.4 2.4 2.4h7.7425q2.4 0 2.4-2.4v-33.808q0-2.4-2.4-2.4h-7.7425q-2.4 0-2.4 2.4z" clip-path="url(#a)" fill="#fff" stroke="#fff"/>
<g clip-path="url(#a)">
<g transform="translate(1368.7 851.49) rotate(90) scale(.08 -.08)">
<use xlink:href="#i"/>
<use x="44.083984" xlink:href="#d"/>
<use x="105.607422" xlink:href="#j"/>
<use x="144.970703" xlink:href="#l"/>
<use x="242.382812" xlink:href="#h"/>
<use x="270.166016" xlink:href="#g"/>
<use x="333.544922" xlink:href="#f"/>
<use x="394.824219" xlink:href="#k"/>
</g>
</g>
<path d="m1691.2 851.49v33.808q0 2.4 2.4 2.4h7.7425q2.4 0 2.4-2.4v-33.808q0-2.4-2.4-2.4h-7.7425q-2.4 0-2.4 2.4z" clip-path="url(#a)" fill="#fff" stroke="#fff"/>
<g clip-path="url(#a)">
<g transform="translate(1695.3 851.49) rotate(90) scale(.08 -.08)">
<use xlink:href="#i"/>
<use x="44.083984" xlink:href="#d"/>
<use x="105.607422" xlink:href="#j"/>
<use x="144.970703" xlink:href="#l"/>
<use x="242.382812" xlink:href="#h"/>
<use x="270.166016" xlink:href="#g"/>
<use x="333.544922" xlink:href="#f"/>
<use x="394.824219" xlink:href="#k"/>
</g>
</g>
<path d="m1778.6 851.49v33.808q0 2.4 2.4 2.4h7.7425q2.4 0 2.4-2.4v-33.808q0-2.4-2.4-2.4h-7.7425q-2.4 0-2.4 2.4z" clip-path="url(#a)" fill="#fff" stroke="#fff"/>
<g clip-path="url(#a)">
<g transform="translate(1782.6 851.49) rotate(90) scale(.08 -.08)">
<use xlink:href="#i"/>
<use x="44.083984" xlink:href="#d"/>
<use x="105.607422" xlink:href="#j"/>
<use x="144.970703" xlink:href="#l"/>
<use x="242.382812" xlink:href="#h"/>
<use x="270.166016" xlink:href="#g"/>
<use x="333.544922" xlink:href="#f"/>
<use x="394.824219" xlink:href="#k"/>
</g>
</g>
<defs>
<path id="b" d="m0 8.6603c2.2967 0 4.4997-0.9125 6.1237-2.5365 1.624-1.624 2.5365-3.827 2.5365-6.1237s-0.9125-4.4997-2.5365-6.1237c-1.624-1.624-3.827-2.5365-6.1237-2.5365s-4.4997 0.9125-6.1237 2.5365c-1.624 1.624-2.5365 3.827-2.5365 6.1237s0.9125 4.4997 2.5365 6.1237c1.624 1.624 3.827 2.5365 6.1237 2.5365z"/>
</defs>
<g clip-path="url(#a)" fill="#ffffff" stroke="#ffffff">
<use x="85.212121" y="941.818182" xlink:href="#b"/>
<use x="92.111888" y="941.818182" xlink:href="#b"/>
<use x="101.311577" y="941.818182" xlink:href="#b"/>
<use x="112.811189" y="941.818182" xlink:href="#b"/>
<use x="126.610723" y="941.818182" xlink:href="#b"/>
<use x="142.710179" y="941.818182" xlink:href="#b"/>
<use x="161.109557" y="941.818182" xlink:href="#b"/>
<use x="181.808858" y="941.818182" xlink:href="#b"/>
<use x="204.808081" y="941.818182" xlink:href="#b"/>
<use x="230.107226" y="941.818182" xlink:href="#b"/>
<use x="257.706294" y="941.818182" xlink:href="#b"/>
<use x="287.605284" y="941.818182" xlink:href="#b"/>
<use x="319.804196" y="941.818182" xlink:href="#b"/>
<use x="354.30303" y="941.818182" xlink:href="#b"/>
<use x="391.101787" y="941.818182" xlink:href="#b"/>
<use x="430.200466" y="941.818182" xlink:href="#b"/>
<use x="471.599068" y="941.818182" xlink:href="#b"/>
<use x="515.297591" y="941.818182" xlink:href="#b"/>
<use x="561.296037" y="941.818182" xlink:href="#b"/>
<use x="609.594406" y="941.818182" xlink:href="#b"/>
<use x="660.192696" y="941.818182" xlink:href="#b"/>
<use x="713.090909" y="941.818182" xlink:href="#b"/>
<use x="768.289044" y="941.818182" xlink:href="#b"/>
<use x="825.787102" y="941.818182" xlink:href="#b"/>
<use x="885.585082" y="941.818182" xlink:href="#b"/>
<use x="947.682984" y="941.818182" xlink:href="#b"/>
<use x="1012.080808" y="941.818182" xlink:href="#b"/>
<use x="1078.778555" y="941.818182" xlink:href="#b"/>
<use x="1147.776224" y="941.818182" xlink:href="#b"/>
<use x="1219.073815" y="941.818182" xlink:href="#b"/>
<use x="1292.671329" y="941.818182" xlink:href="#b"/>
<use x="1370.868687" y="941.818182" xlink:href="#b"/>
<use x="1449.066045" y="941.818182" xlink:href="#b"/>
<use x="1529.563326" y="941.818182" xlink:href="#b"/>
<use x="1612.360528" y="941.818182" xlink:href="#b"/>
<use x="1697.457653" y="941.818182" xlink:href="#b"/>
<use x="1784.854701" y="941.818182" xlink:href="#b"/>
<use x="1789.454545" y="346.258074" xlink:href="#b"/>
<use x="1789.454545" y="346.258074" xlink:href="#b"/>
<use x="1294.971251" y="794.977968" xlink:href="#b"/>
<use x="857.805853" y="44.848485" xlink:href="#b"/>
<use x="857.805853" y="195.705" xlink:href="#b"/>
<use x="857.805853" y="346.258074" xlink:href="#b"/>
<use x="151.143227" y="496.431244" xlink:href="#b"/>
<use x="354.30303" y="794.977968" xlink:href="#b"/>
<use x="787.95338" y="496.431244" xlink:href="#b"/>
<use x="1147.776224" y="794.977968" xlink:href="#b"/>
<use x="1255.872572" y="646.095045" xlink:href="#b"/>
<use x="1449.066045" y="794.977968" xlink:href="#b"/>
<use x="1656.059052" y="646.095045" xlink:href="#b"/>
<use x="1529.563326" y="794.977968" xlink:href="#b"/>
<use x="1612.360528" y="794.977968" xlink:href="#b"/>
<use x="1219.073815" y="794.977968" xlink:href="#b"/>
<use x="1292.671329" y="794.977968" xlink:href="#b"/>
<use x="452.049728" y="646.095045" xlink:href="#b"/>
<use x="634.893551" y="646.095045" xlink:href="#b"/>
<use x="713.090909" y="794.977968" xlink:href="#b"/>
<use x="768.289044" y="794.977968" xlink:href="#b"/>
<use x="825.787102" y="794.977968" xlink:href="#b"/>
<use x="885.585082" y="794.977968" xlink:href="#b"/>
<use x="947.682984" y="794.977968" xlink:href="#b"/>
<use x="1012.080808" y="794.977968" xlink:href="#b"/>
<use x="1078.778555" y="794.977968" xlink:href="#b"/>
<use x="609.594406" y="794.977968" xlink:href="#b"/>
<use x="660.192696" y="794.977968" xlink:href="#b"/>
<use x="391.101787" y="794.977968" xlink:href="#b"/>
<use x="430.200466" y="794.977968" xlink:href="#b"/>
<use x="471.599068" y="794.977968" xlink:href="#b"/>
<use x="515.297591" y="794.977968" xlink:href="#b"/>
<use x="92.111888" y="794.977968" xlink:href="#b"/>
<use x="101.311577" y="794.977968" xlink:href="#b"/>
<use x="112.811189" y="794.977968" xlink:href="#b"/>
<use x="126.610723" y="794.977968" xlink:href="#b"/>
<use x="161.876198" y="646.095045" xlink:href="#b"/>
<use x="258.472934" y="646.095045" xlink:href="#b"/>
<use x="85.212121" y="794.977968" xlink:href="#b"/>
<use x="204.808081" y="794.977968" xlink:href="#b"/>
<use x="142.710179" y="794.977968" xlink:href="#b"/>
<use x="161.109557" y="794.977968" xlink:href="#b"/>
<use x="181.808858" y="794.977968" xlink:href="#b"/>
<use x="257.706294" y="794.977968" xlink:href="#b"/>
<use x="319.804196" y="794.977968" xlink:href="#b"/>
<use x="561.296037" y="794.977968" xlink:href="#b"/>
<use x="1370.868687" y="794.977968" xlink:href="#b"/>
<use x="1697.457653" y="794.977968" xlink:href="#b"/>
<use x="1784.854701" y="794.977968" xlink:href="#b"/>
</g>
<g clip-path="url(#a)">
<g transform="translate(82.912 944.58) scale(.1 -.1)">
<defs>
<path id="ap" d="m17.922 72.906v-27.109h-8.2969v27.109zm18.453 0v-27.109h-8.2969v27.109z"/>
</defs>
<use xlink:href="#ap"/>
</g>
</g>
<g clip-path="url(#a)">
<g transform="translate(83.492 944.58) scale(.1 -.1)">
<defs>
<path id="au" d="m-0.20312 72.906h10.609l20.203-29.984 20.078 29.984h10.594l-25.781-38.188v-34.719h-9.9062v34.719z"/>
<path id="v" d="m30.609 48.391q-7.2188 0-11.422-5.6406t-4.2031-15.453 4.1719-15.453q4.1875-5.6406 11.453-5.6406 7.1875 0 11.375 5.6562 4.2031 5.6719 4.2031 15.438 0 9.7188-4.2031 15.406-4.1875 5.6875-11.375 5.6875zm0 7.6094q11.719 0 18.406-7.625 6.7031-7.6094 6.7031-21.078 0-13.422-6.7031-21.078-6.6875-7.6406-18.406-7.6406-11.766 0-18.438 7.6406-6.6562 7.6562-6.6562 21.078 0 13.469 6.6562 21.078 6.6719 7.625 18.438 7.625z"/>
<path id="z" d="m8.5 21.578v33.109h8.9844v-32.766q0-7.7656 3.0156-11.656 3.0312-3.875 9.0938-3.875 7.2656 0 11.484 4.6406 4.2344 4.6406 4.2344 12.656v31h8.9844v-54.688h-8.9844v8.4062q-3.2656-4.9844-7.5938-7.4062-4.3125-2.4219-10.031-2.4219-9.4219 0-14.312 5.8594-4.875 5.8594-4.875 17.141z"/>
</defs>
<use xlink:href="#au"/>
<use x="47.833984" xlink:href="#v"/>
<use x="109.015625" xlink:href="#z"/>
</g>
</g>
<g clip-path="url(#a)">
<g transform="translate(93.901 944.58) scale(.1 -.1)">
<defs>
<path id="bb" d="m17.922 72.906v-27.109h-8.2969v27.109z"/>
<path id="aq" d="m2.9844 54.688h9.5156l17.094-45.891 17.094 45.891h9.5156l-20.516-54.688h-12.203z"/>
</defs>
<use xlink:href="#bb"/>
<use x="27.490234" xlink:href="#aq"/>
<use x="86.669922" xlink:href="#d"/>
</g>
</g>
<g clip-path="url(#a)">
<g transform="translate(87.317 944.58) scale(.1 -.1)">
<defs>
<path id="aj" d="m48.781 52.594v-8.4062q-3.8125 2.1094-7.6406 3.1562t-7.7344 1.0469q-8.75 0-13.594-5.5469-4.8281-5.5312-4.8281-15.547t4.8281-15.562q4.8438-5.5312 13.594-5.5312 3.9062 0 7.7344 1.0469t7.6406 3.1562v-8.3125q-3.7656-1.75-7.7969-2.625-4.0156-0.89062-8.5625-0.89062-12.359 0-19.641 7.7656-7.2656 7.7656-7.2656 20.953 0 13.375 7.3438 21.031 7.3594 7.6719 20.156 7.6719 4.1406 0 8.0938-0.85938 3.9531-0.84375 7.6719-2.5469z"/>
<path id="ai" d="m45.406 46.391v29.594h8.9844v-75.984h-8.9844v8.2031q-2.8281-4.875-7.1562-7.25-4.3125-2.375-10.375-2.375-9.9062 0-16.141 7.9062-6.2188 7.9219-6.2188 20.812t6.2188 20.797q6.2344 7.9062 16.141 7.9062 6.0625 0 10.375-2.375 4.3281-2.3594 7.1562-7.2344zm-30.609-19.094q0-9.9062 4.0781-15.547t11.203-5.6406 11.219 5.6406q4.1094 5.6406 4.1094 15.547t-4.1094 15.547q-4.0938 5.6406-11.219 5.6406t-11.203-5.6406-4.0781-15.547z"/>
</defs>
<use xlink:href="#aj"/>
<use x="54.980469" xlink:href="#v"/>
<use x="116.162109" xlink:href="#g"/>
<use x="179.541016" xlink:href="#aq"/>
<use x="238.720703" xlink:href="#h"/>
<use x="266.503906" xlink:href="#g"/>
<use x="329.882812" xlink:href="#aj"/>
<use x="384.863281" xlink:href="#d"/>
<use x="446.386719" xlink:href="#ai"/>
</g>
</g>
<g clip-path="url(#a)">
<g transform="translate(118.66 944.58) scale(.1 -.1)">
<use xlink:href="#l"/>
<use x="97.412109" xlink:href="#d"/>
</g>
</g>
<g clip-path="url(#a)">
<g transform="translate(137.89 944.58) scale(.1 -.1)">
<defs>
<path id="as" d="m37.109 75.984v-7.4844h-8.5938q-4.8281 0-6.7188-1.9531-1.875-1.9531-1.875-7.0312v-4.8281h14.797v-6.9844h-14.797v-47.703h-9.0312v47.703h-8.5938v6.9844h8.5938v3.8125q0 9.125 4.25 13.297 4.25 4.1875 13.469 4.1875z"/>
</defs>
<use xlink:href="#v"/>
<use x="61.181641" xlink:href="#as"/>
</g>
</g>
<g clip-path="url(#a)">
<g transform="translate(151.8 944.58) scale(.1 -.1)">
<use xlink:href="#v"/>
<use x="61.181641" xlink:href="#g"/>
<use x="124.560547" xlink:href="#d"/>
</g>
</g>
<g clip-path="url(#a)">
<g transform="translate(168.95 944.58) scale(.1 -.1)">
<defs>
<path id="r" d="m18.312 70.219v-15.531h18.5v-6.9844h-18.5v-29.688q0-6.6875 1.8281-8.5938t7.4531-1.9062h9.2188v-7.5156h-9.2188q-10.406 0-14.359 3.875-3.9531 3.8906-3.9531 14.141v29.688h-6.5938v6.9844h6.5938v15.531z"/>
<path id="ad" d="m54.891 33.016v-33.016h-8.9844v32.719q0 7.7656-3.0312 11.609-3.0312 3.8594-9.0781 3.8594-7.2812 0-11.484-4.6406-4.2031-4.625-4.2031-12.641v-30.906h-9.0312v75.984h9.0312v-29.797q3.2344 4.9375 7.5938 7.375 4.375 2.4375 10.094 2.4375 9.4219 0 14.25-5.8281 4.8438-5.8281 4.8438-17.156z"/>
<path id="ar" d="m45.406 27.984q0 9.7656-4.0312 15.125-4.0156 5.375-11.297 5.375-7.2188 0-11.25-5.375-4.0312-5.3594-4.0312-15.125 0-9.7188 4.0312-15.094t11.25-5.375q7.2812 0 11.297 5.375 4.0312 5.375 4.0312 15.094zm8.9844-21.203q0-13.953-6.2031-20.766-6.1875-6.8125-18.984-6.8125-4.7344 0-8.9375 0.70312t-8.1562 2.1719v8.7344q3.9531-2.1406 7.8125-3.1562 3.8594-1.0312 7.8594-1.0312 8.8438 0 13.234 4.6094t4.3906 13.938v4.4531q-2.7812-4.8438-7.125-7.2344t-10.406-2.3906q-10.047 0-16.203 7.6562-6.1562 7.6719-6.1562 20.328 0 12.688 6.1562 20.344 6.1562 7.6719 16.203 7.6719 6.0625 0 10.406-2.3906t7.125-7.2188v8.2969h8.9844z"/>
</defs>
<use xlink:href="#r"/>
<use x="39.208984" xlink:href="#ad"/>
<use x="102.587891" xlink:href="#h"/>
<use x="130.371094" xlink:href="#g"/>
<use x="193.75" xlink:href="#ar"/>
</g>
</g>
<g clip-path="url(#a)">
<g transform="translate(203.22 944.58) scale(.1 -.1)">
<defs>
<path id="ao" d="m11.719 12.406h10.297v-8.4062l-8-15.625h-6.2969l4 15.625z"/>
</defs>
<use xlink:href="#ao"/>
</g>
</g>
<g clip-path="url(#a)">
<g transform="translate(223.74 944.58) scale(.1 -.1)">
<defs>
<path id="ae" d="m9.8125 72.906h14.703l18.594-49.609 18.703 49.609h14.703v-72.906h-9.625v64.016l-18.797-50h-9.9062l-18.797 50v-64.016h-9.5781z"/>
</defs>
<use xlink:href="#ae"/>
<use x="86.279297" xlink:href="#j"/>
</g>
</g>
<g clip-path="url(#a)">
<g transform="translate(256.12 944.58) scale(.1 -.1)">
<defs>
<path id="e" d="m10.688 12.406h10.312v-12.406h-10.312z"/>
</defs>
<use xlink:href="#e"/>
</g>
</g>
<g clip-path="url(#a)">
<g transform="translate(263.21 944.58) scale(.1 -.1)">
<defs>
<path id="ax" d="m9.8125 72.906h13.281l32.328-60.984v60.984h9.5625v-72.906h-13.281l-32.312 60.984v-60.984h-9.5781z"/>
<path id="s" d="m44.281 53.078v-8.5q-3.7969 1.9531-7.9062 2.9219-4.0938 0.98438-8.5 0.98438-6.6875 0-10.031-2.0469t-3.3438-6.1562q0-3.125 2.3906-4.9062t9.625-3.3906l3.0781-0.6875q9.5625-2.0469 13.594-5.7812t4.0312-10.422q0-7.625-6.0312-12.078-6.0312-4.4375-16.578-4.4375-4.3906 0-9.1562 0.85938t-10.031 2.5625v9.2812q4.9844-2.5938 9.8125-3.8906 4.8281-1.2812 9.5781-1.2812 6.3438 0 9.75 2.1719 3.4219 2.1719 3.4219 6.125 0 3.6562-2.4688 5.6094-2.4531 1.9531-10.812 3.7656l-3.125 0.73438q-8.3438 1.75-12.062 5.3906-3.7031 3.6406-3.7031 9.9844 0 7.7188 5.4688 11.906 5.4688 4.2031 15.531 4.2031 4.9688 0 9.3594-0.73438 4.4062-0.71875 8.1094-2.1875z"/>
</defs>
<use xlink:href="#ax"/>
<use x="74.804688" xlink:href="#f"/>
<use x="136.083984" xlink:href="#r"/>
<use x="175.292969" xlink:href="#z"/>
<use x="238.671875" xlink:href="#j"/>
<use x="279.785156" xlink:href="#f"/>
<use x="341.064453" xlink:href="#k"/>
<use x="368.847656" xlink:href="#h"/>
<use x="396.630859" xlink:href="#s"/>
<use x="448.730469" xlink:href="#r"/>
</g>
</g>
<g clip-path="url(#a)">
<g transform="translate(318.22 944.58) scale(.1 -.1)">
<use xlink:href="#e"/>
</g>
</g>
<g clip-path="url(#a)">
<g transform="translate(343.06 944.58) scale(.1 -.1)">
<use xlink:href="#i"/>
<use x="61.083984" xlink:href="#ad"/>
<use x="124.462891" xlink:href="#f"/>
<use x="185.742188" xlink:href="#r"/>
</g>
</g>
<g clip-path="url(#a)">
<g transform="translate(378.6 944.58) scale(.1 -.1)">
<defs>
<path id="be" d="m18.109 8.2031v-29h-9.0312v75.484h9.0312v-8.2969q2.8438 4.875 7.1562 7.2344 4.3281 2.375 10.328 2.375 9.9688 0 16.188-7.9062 6.2344-7.9062 6.2344-20.797t-6.2344-20.812q-6.2188-7.9062-16.188-7.9062-6 0-10.328 2.375-4.3125 2.375-7.1562 7.25zm30.578 19.094q0 9.9062-4.0781 15.547t-11.203 5.6406q-7.1406 0-11.219-5.6406t-4.0781-15.547 4.0781-15.547 11.219-5.6406q7.125 0 11.203 5.6406t4.0781 15.547z"/>
</defs>
<use xlink:href="#ai"/>
<use x="63.476562" xlink:href="#d"/>
<use x="125" xlink:href="#d"/>
<use x="186.523438" xlink:href="#be"/>
</g>
</g>
<g clip-path="url(#a)">
<g transform="translate(425.64 944.58) scale(.1 -.1)">
<use xlink:href="#h"/>
<use x="27.783203" xlink:href="#g"/>
</g>
</g>
<g clip-path="url(#a)">
<g transform="translate(463.39 944.58) scale(.1 -.1)">
<use xlink:href="#r"/>
<use x="39.208984" xlink:href="#ad"/>
<use x="102.587891" xlink:href="#d"/>
</g>
</g>
<g clip-path="url(#a)">
<g transform="translate(506.55 944.58) scale(.1 -.1)">
<use xlink:href="#s"/>
<use x="52.099609" xlink:href="#d"/>
<use x="113.623047" xlink:href="#f"/>
</g>
</g>
<g clip-path="url(#a)">
<g transform="translate(559.71 944.58) scale(.1 -.1)">
<use xlink:href="#ao"/>
</g>
</g>
<g clip-path="url(#a)">
<g transform="translate(597.9 944.58) scale(.1 -.1)">
<use xlink:href="#s"/>
<use x="52.099609" xlink:href="#z"/>
<use x="115.478516" xlink:href="#aj"/>
<use x="170.458984" xlink:href="#ad"/>
</g>
</g>
<g clip-path="url(#a)">
<g transform="translate(640.64 944.58) scale(.1 -.1)">
<use xlink:href="#f"/>
<use x="61.279297" xlink:href="#g"/>
<use x="124.658203" xlink:href="#h"/>
<use x="152.441406" xlink:href="#l"/>
<use x="249.853516" xlink:href="#f"/>
<use x="311.132812" xlink:href="#k"/>
<use x="338.916016" xlink:href="#s"/>
</g>
</g>
<g clip-path="url(#a)">
<g transform="translate(698.21 944.58) scale(.1 -.1)">
<defs>
<path id="bd" d="m4.2031 54.688h8.9844l11.234-42.672 11.172 42.672h10.594l11.234-42.672 11.188 42.672h8.9844l-14.312-54.688h-10.594l-11.766 44.828-11.812-44.828h-10.609z"/>
</defs>
<use xlink:href="#bd"/>
<use x="81.787109" xlink:href="#v"/>
<use x="142.96875" xlink:href="#z"/>
<use x="206.347656" xlink:href="#k"/>
<use x="234.130859" xlink:href="#ai"/>
</g>
</g>
<g clip-path="url(#a)">
<g transform="translate(755.79 944.58) scale(.1 -.1)">
<use xlink:href="#g"/>
<use x="63.378906" xlink:href="#d"/>
<use x="124.902344" xlink:href="#d"/>
<use x="186.425781" xlink:href="#ai"/>
</g>
</g>
<g clip-path="url(#a)">
<g transform="translate(820.77 944.58) scale(.1 -.1)">
<use xlink:href="#r"/>
<use x="39.208984" xlink:href="#v"/>
</g>
</g>
<g clip-path="url(#a)">
<g transform="translate(879.33 944.58) scale(.1 -.1)">
<defs>
<path id="at" d="m48.688 27.297q0 9.9062-4.0781 15.547t-11.203 5.6406q-7.1406 0-11.219-5.6406t-4.0781-15.547 4.0781-15.547 11.219-5.6406q7.125 0 11.203 5.6406t4.0781 15.547zm-30.578 19.094q2.8438 4.875 7.1562 7.2344 4.3281 2.375 10.328 2.375 9.9688 0 16.188-7.9062 6.2344-7.9062 6.2344-20.797t-6.2344-20.812q-6.2188-7.9062-16.188-7.9062-6 0-10.328 2.375-4.3125 2.375-7.1562 7.25v-8.2031h-9.0312v75.984h9.0312z"/>
</defs>
<use xlink:href="#at"/>
<use x="63.476562" xlink:href="#d"/>
</g>
</g>
<g clip-path="url(#a)">
<g transform="translate(938.56 944.58) scale(.1 -.1)">
<defs>
<path id="bf" d="m9.4219 54.688h8.9844v-55.672q0-10.438-3.9844-15.125-3.9688-4.6875-12.812-4.6875h-3.4219v7.6094h2.4062q5.125 0 6.9688 2.375 1.8594 2.3594 1.8594 9.8281zm0 21.297h8.9844v-11.391h-8.9844z"/>
</defs>
<use xlink:href="#bf"/>
<use x="27.783203" xlink:href="#z"/>
<use x="91.162109" xlink:href="#s"/>
<use x="143.261719" xlink:href="#r"/>
</g>
</g>
<g clip-path="url(#a)">
<g transform="translate(1006.4 944.58) scale(.1 -.1)">
<use xlink:href="#f"/>
<use x="61.279297" xlink:href="#s"/>
</g>
</g>
<g clip-path="url(#a)">
<g transform="translate(1062.9 944.58) scale(.1 -.1)">
<use xlink:href="#s"/>
<use x="52.099609" xlink:href="#r"/>
<use x="91.308594" xlink:href="#j"/>
<use x="130.171875" xlink:href="#v"/>
<use x="191.353516" xlink:href="#g"/>
<use x="254.732422" xlink:href="#ar"/>
</g>
</g>
<g clip-path="url(#a)">
<g transform="translate(1142.1 944.58) scale(.1 -.1)">
<use xlink:href="#f"/>
<use x="61.279297" xlink:href="#s"/>
</g>
</g>
<g clip-path="url(#a)">
<g transform="translate(1209.9 944.58) scale(.1 -.1)">
<defs>
<path id="an" d="m32.172-5.0781q-3.7969-9.7656-7.4219-12.734-3.6094-2.9844-9.6562-2.9844h-7.1875v7.5156h5.2812q3.7031 0 5.75 1.7656 2.0625 1.75 4.5469 8.2969l1.6094 4.0938-22.109 53.812h9.5156l17.094-42.766 17.094 42.766h9.5156z"/>
</defs>
<use xlink:href="#an"/>
<use x="59.179688" xlink:href="#v"/>
<use x="120.361328" xlink:href="#z"/>
</g>
</g>
<g clip-path="url(#a)">
<g transform="translate(1284 944.58) scale(.1 -.1)">
<use xlink:href="#s"/>
<use x="52.099609" xlink:href="#f"/>
<use x="113.378906" xlink:href="#an"/>
</g>
</g>
<g clip-path="url(#a)">
<g transform="translate(1369.1 944.58) scale(.1 -.1)">
<defs>
<path id="ba" d="m4.8906 31.391h26.312v-8h-26.312z"/>
</defs>
<use xlink:href="#ba"/>
</g>
</g>
<g clip-path="url(#a)">
<g transform="translate(1445.9 944.58) scale(.1 -.1)">
<use xlink:href="#h"/>
<use x="27.783203" xlink:href="#as"/>
</g>
</g>
<g clip-path="url(#a)">
<g transform="translate(1518.4 944.58) scale(.1 -.1)">
<use xlink:href="#r"/>
<use x="39.208984" xlink:href="#ad"/>
<use x="102.587891" xlink:href="#d"/>
<use x="164.111328" xlink:href="#an"/>
</g>
</g>
<g clip-path="url(#a)">
<g transform="translate(1600.5 944.58) scale(.1 -.1)">
<defs>
<path id="bc" d="m54.891 54.688-19.781-26.609 20.797-28.078h-10.594l-15.922 21.484-15.906-21.484h-10.609l21.25 28.609-19.438 26.078h10.594l14.5-19.484 14.5 19.484z"/>
</defs>
<use xlink:href="#d"/>
<use x="59.773438" xlink:href="#bc"/>
<use x="118.953125" xlink:href="#h"/>
<use x="146.736328" xlink:href="#s"/>
<use x="198.835938" xlink:href="#r"/>
</g>
</g>
<g clip-path="url(#a)">
<g transform="translate(1695.9 944.58) scale(.1 -.1)">
<use xlink:href="#e"/>
</g>
</g>
<g clip-path="url(#a)">
<g transform="translate(1782.6 944.58) scale(.1 -.1)">
<use xlink:href="#ap"/>
</g>
</g>
<g clip-path="url(#a)">
<g transform="translate(1768.4 349.02) scale(.1 -.1)">
<defs>
<path id="t" d="m9.8125 72.906h9.8594v-72.906h-9.8594z"/>
</defs>
<use xlink:href="#t"/>
<use x="29.492188" xlink:href="#ae"/>
<use x="115.771484" xlink:href="#w"/>
<use x="176.074219" xlink:href="#x"/>
<use x="231.787109" xlink:href="#t"/>
<use x="261.279297" xlink:href="#y"/>
<use x="331.103516" xlink:href="#t"/>
<use x="360.595703" xlink:href="#i"/>
</g>
</g>
<g clip-path="url(#a)">
<g transform="translate(1768.4 349.02) scale(.1 -.1)">
<use xlink:href="#t"/>
<use x="29.492188" xlink:href="#ae"/>
<use x="115.771484" xlink:href="#w"/>
<use x="176.074219" xlink:href="#x"/>
<use x="231.787109" xlink:href="#t"/>
<use x="261.279297" xlink:href="#y"/>
<use x="331.103516" xlink:href="#t"/>
<use x="360.595703" xlink:href="#i"/>
</g>
</g>
<g clip-path="url(#a)">
<g transform="translate(1273.9 797.74) scale(.1 -.1)">
<use xlink:href="#t"/>
<use x="29.492188" xlink:href="#ae"/>
<use x="115.771484" xlink:href="#w"/>
<use x="176.074219" xlink:href="#x"/>
<use x="231.787109" xlink:href="#t"/>
<use x="261.279297" xlink:href="#y"/>
<use x="331.103516" xlink:href="#t"/>
<use x="360.595703" xlink:href="#i"/>
</g>
</g>
<g clip-path="url(#a)">
<g transform="translate(849.85 47.608) scale(.1 -.1)">
<defs>
<path id="c" d="m12.406 8.2969h16.109v55.625l-17.531-3.5156v8.9844l17.438 3.5156h9.8594v-64.609h16.109v-8.2969h-41.984z"/>
</defs>
<use xlink:href="#c"/>
<use x="63.623047" xlink:href="#e"/>
<use x="95.410156" xlink:href="#c"/>
</g>
</g>
<g clip-path="url(#a)">
<g transform="translate(849.85 198.46) scale(.1 -.1)">
<defs>
<path id="o" d="m19.188 8.2969h34.422v-8.2969h-46.281v8.2969q5.6094 5.8125 15.297 15.594 9.7031 9.7969 12.188 12.641 4.7344 5.3125 6.6094 9 1.8906 3.6875 1.8906 7.25 0 5.8125-4.0781 9.4688-4.0781 3.6719-10.625 3.6719-4.6406 0-9.7969-1.6094-5.1406-1.6094-11-4.8906v9.9688q5.9531 2.3906 11.125 3.6094 5.1875 1.2188 9.4844 1.2188 11.328 0 18.062-5.6719 6.7344-5.6562 6.7344-15.125 0-4.5-1.6875-8.5312-1.6719-4.0156-6.125-9.4844-1.2188-1.4219-7.7656-8.1875-6.5312-6.7656-18.453-18.922z"/>
</defs>
<use xlink:href="#c"/>
<use x="63.623047" xlink:href="#e"/>
<use x="95.410156" xlink:href="#o"/>
</g>
</g>
<g clip-path="url(#a)">
<g transform="translate(849.85 349.02) scale(.1 -.1)">
<defs>
<path id="ac" d="m31.781 34.625q-7.0312 0-11.062-3.7656-4.0156-3.7656-4.0156-10.344 0-6.5938 4.0156-10.359 4.0312-3.7656 11.062-3.7656t11.078 3.7812q4.0625 3.7969 4.0625 10.344 0 6.5781-4.0312 10.344-4.0156 3.7656-11.109 3.7656zm-9.8594 4.1875q-6.3438 1.5625-9.8906 5.9062-3.5312 4.3594-3.5312 10.609 0 8.7344 6.2188 13.812 6.2344 5.0781 17.062 5.0781 10.891 0 17.094-5.0781t6.2031-13.812q0-6.25-3.5469-10.609-3.5312-4.3438-9.8281-5.9062 7.125-1.6562 11.094-6.5 3.9844-4.8281 3.9844-11.797 0-10.609-6.4688-16.281-6.4688-5.6562-18.531-5.6562-12.047 0-18.531 5.6562-6.4688 5.6719-6.4688 16.281 0 6.9688 4 11.797 4.0156 4.8438 11.141 6.5zm-3.6094 15.578q0-5.6562 3.5312-8.8281 3.5469-3.1719 9.9375-3.1719 6.3594 0 9.9375 3.1719 3.5938 3.1719 3.5938 8.8281 0 5.6719-3.5938 8.8438-3.5781 3.1719-9.9375 3.1719-6.3906 0-9.9375-3.1719-3.5312-3.1719-3.5312-8.8438z"/>
</defs>
<use xlink:href="#c"/>
<use x="63.623047" xlink:href="#e"/>
<use x="95.410156" xlink:href="#ac"/>
</g>
</g>
<g clip-path="url(#a)">
<g transform="translate(143.19 499.19) scale(.1 -.1)">
<defs>
<path id="ab" d="m10.984 1.5156v8.9844q3.7188-1.7656 7.5156-2.6875 3.8125-0.92188 7.4844-0.92188 9.7656 0 14.906 6.5625 5.1562 6.5625 5.8906 19.953-2.8281-4.2031-7.1875-6.4531-4.3438-2.25-9.6094-2.25-10.938 0-17.312 6.6094-6.375 6.625-6.375 18.109 0 11.219 6.6406 18 6.6406 6.7969 17.672 6.7969 12.656 0 19.312-9.7031 6.6719-9.6875 6.6719-28.141 0-17.234-8.1875-27.516-8.1719-10.281-21.984-10.281-3.7188 0-7.5312 0.73438-3.7969 0.73438-7.9062 2.2031zm19.625 30.906q6.6406 0 10.516 4.5312 3.8906 4.5469 3.8906 12.469 0 7.8594-3.8906 12.422-3.875 4.5625-10.516 4.5625t-10.516-4.5625-3.875-12.422q0-7.9219 3.875-12.469 3.875-4.5312 10.516-4.5312z"/>
</defs>
<use xlink:href="#c"/>
<use x="63.623047" xlink:href="#e"/>
<use x="95.410156" xlink:href="#ab"/>
</g>
</g>
<g clip-path="url(#a)">
<g transform="translate(343.17 797.74) scale(.1 -.1)">
<defs>
<path id="ah" d="m31.781 66.406q-7.6094 0-11.453-7.5-3.8281-7.4844-3.8281-22.531 0-14.984 3.8281-22.484 3.8438-7.5 11.453-7.5 7.6719 0 11.5 7.5 3.8438 7.5 3.8438 22.484 0 15.047-3.8438 22.531-3.8281 7.5-11.5 7.5zm0 7.8125q12.266 0 18.734-9.7031 6.4688-9.6875 6.4688-28.141 0-18.406-6.4688-28.109-6.4688-9.6875-18.734-9.6875-12.25 0-18.719 9.6875-6.4688 9.7031-6.4688 28.109 0 18.453 6.4688 28.141 6.4688 9.7031 18.719 9.7031z"/>
</defs>
<use xlink:href="#c"/>
<use x="63.623047" xlink:href="#e"/>
<use x="95.410156" xlink:href="#c"/>
<use x="159.033203" xlink:href="#ah"/>
</g>
</g>
<g clip-path="url(#a)">
<g transform="translate(776.82 499.19) scale(.1 -.1)">
<use xlink:href="#c"/>
<use x="63.623047" xlink:href="#e"/>
<use x="95.410156" xlink:href="#c"/>
<use x="159.033203" xlink:href="#c"/>
</g>
</g>
<g clip-path="url(#a)">
<g transform="translate(1136.6 797.74) scale(.1 -.1)">
<use xlink:href="#c"/>
<use x="63.623047" xlink:href="#e"/>
<use x="95.410156" xlink:href="#c"/>
<use x="159.033203" xlink:href="#o"/>
</g>
</g>
<g clip-path="url(#a)">
<g transform="translate(1244.7 648.85) scale(.1 -.1)">
<defs>
<path id="n" d="m40.578 39.312q7.0781-1.5156 11.047-6.3125 3.9844-4.7812 3.9844-11.812 0-10.781-7.4219-16.703-7.4219-5.9062-21.094-5.9062-4.5781 0-9.4375 0.90625t-10.031 2.7188v9.5156q4.0938-2.3906 8.9688-3.6094 4.8906-1.2188 10.219-1.2188 9.2656 0 14.125 3.6562t4.8594 10.641q0 6.4531-4.5156 10.078-4.5156 3.6406-12.562 3.6406h-8.5v8.1094h8.8906q7.2656 0 11.125 2.9062t3.8594 8.375q0 5.6094-3.9844 8.6094-3.9688 3.0156-11.391 3.0156-4.0625 0-8.7031-0.89062-4.6406-0.875-10.203-2.7188v8.7812q5.625 1.5625 10.531 2.3438t9.25 0.78125q11.234 0 17.766-5.1094 6.5469-5.0938 6.5469-13.781 0-6.0625-3.4688-10.234t-9.8594-5.7812z"/>
</defs>
<use xlink:href="#c"/>
<use x="63.623047" xlink:href="#e"/>
<use x="95.410156" xlink:href="#c"/>
<use x="159.033203" xlink:href="#n"/>
</g>
</g>
<g clip-path="url(#a)">
<g transform="translate(1437.9 797.74) scale(.1 -.1)">
<defs>
<path id="m" d="m37.797 64.312-24.906-38.922h24.906zm-2.5938 8.5938h12.406v-47.516h10.406v-8.2031h-10.406v-17.188h-9.8125v17.188h-32.906v9.5156z"/>
</defs>
<use xlink:href="#c"/>
<use x="63.623047" xlink:href="#e"/>
<use x="95.410156" xlink:href="#c"/>
<use x="159.033203" xlink:href="#m"/>
</g>
</g>
<g clip-path="url(#a)">
<g transform="translate(1644.9 648.85) scale(.1 -.1)">
<defs>
<path id="p" d="m10.797 72.906h38.719v-8.3125h-29.688v-17.859q2.1406 0.73438 4.2812 1.0938 2.1562 0.35938 4.3125 0.35938 12.203 0 19.328-6.6875 7.1406-6.6875 7.1406-18.109 0-11.766-7.3281-18.297-7.3281-6.5156-20.656-6.5156-4.5938 0-9.3594 0.78125-4.75 0.78125-9.8281 2.3438v9.9219q4.3906-2.3906 9.0781-3.5625t9.9062-1.1719q8.4531 0 13.375 4.4375 4.9375 4.4375 4.9375 12.062 0 7.6094-4.9375 12.047-4.9219 4.4531-13.375 4.4531-3.9531 0-7.8906-0.875-3.9219-0.875-8.0156-2.7344z"/>
</defs>
<use xlink:href="#c"/>
<use x="63.623047" xlink:href="#e"/>
<use x="95.410156" xlink:href="#c"/>
<use x="159.033203" xlink:href="#p"/>
</g>
</g>
<g clip-path="url(#a)">
<g transform="translate(1518.4 797.74) scale(.1 -.1)">
<use xlink:href="#c"/>
<use x="63.623047" xlink:href="#e"/>
<use x="95.410156" xlink:href="#c"/>
<use x="159.033203" xlink:href="#ac"/>
</g>
</g>
<g clip-path="url(#a)">
<g transform="translate(1601.2 797.74) scale(.1 -.1)">
<use xlink:href="#c"/>
<use x="63.623047" xlink:href="#e"/>
<use x="95.410156" xlink:href="#c"/>
<use x="159.033203" xlink:href="#ab"/>
</g>
</g>
<g clip-path="url(#a)">
<g transform="translate(1207.9 797.74) scale(.1 -.1)">
<use xlink:href="#c"/>
<use x="63.623047" xlink:href="#e"/>
<use x="95.410156" xlink:href="#o"/>
<use x="159.033203" xlink:href="#c"/>
</g>
</g>
<g clip-path="url(#a)">
<g transform="translate(1281.5 797.74) scale(.1 -.1)">
<use xlink:href="#c"/>
<use x="63.623047" xlink:href="#e"/>
<use x="95.410156" xlink:href="#o"/>
<use x="159.033203" xlink:href="#o"/>
</g>
</g>
<g clip-path="url(#a)">
<g transform="translate(440.92 648.85) scale(.1 -.1)">
<use xlink:href="#c"/>
<use x="63.623047" xlink:href="#e"/>
<use x="95.410156" xlink:href="#o"/>
<use x="159.033203" xlink:href="#n"/>
</g>
</g>
<g clip-path="url(#a)">
<g transform="translate(623.76 648.85) scale(.1 -.1)">
<use xlink:href="#c"/>
<use x="63.623047" xlink:href="#e"/>
<use x="95.410156" xlink:href="#o"/>
<use x="159.033203" xlink:href="#m"/>
</g>
</g>
<g clip-path="url(#a)">
<g transform="translate(701.96 797.74) scale(.1 -.1)">
<use xlink:href="#c"/>
<use x="63.623047" xlink:href="#e"/>
<use x="95.410156" xlink:href="#o"/>
<use x="159.033203" xlink:href="#p"/>
</g>
</g>
<g clip-path="url(#a)">
<g transform="translate(757.16 797.74) scale(.1 -.1)">
<defs>
<path id="am" d="m33.016 40.375q-6.6406 0-10.531-4.5469-3.875-4.5312-3.875-12.438 0-7.8594 3.875-12.438 3.8906-4.5625 10.531-4.5625t10.516 4.5625q3.875 4.5781 3.875 12.438 0 7.9062-3.875 12.438-3.875 4.5469-10.516 4.5469zm19.578 30.922v-8.9844q-3.7188 1.75-7.5 2.6719-3.7812 0.9375-7.5 0.9375-9.7656 0-14.922-6.5938-5.1406-6.5938-5.875-19.922 2.875 4.25 7.2188 6.5156 4.3594 2.2656 9.5781 2.2656 10.984 0 17.359-6.6719 6.375-6.6562 6.375-18.125 0-11.234-6.6406-18.031-6.6406-6.7812-17.672-6.7812-12.656 0-19.344 9.6875-6.6875 9.7031-6.6875 28.109 0 17.281 8.2031 27.562t22.016 10.281q3.7188 0 7.5-0.73438t7.8906-2.1875z"/>
</defs>
<use xlink:href="#c"/>
<use x="63.623047" xlink:href="#e"/>
<use x="95.410156" xlink:href="#o"/>
<use x="159.033203" xlink:href="#am"/>
</g>
</g>
<g clip-path="url(#a)">
<g transform="translate(814.65 797.74) scale(.1 -.1)">
<defs>
<path id="al" d="m8.2031 72.906h46.875v-4.2031l-26.469-68.703h-10.297l24.906 64.594h-35.016z"/>
</defs>
<use xlink:href="#c"/>
<use x="63.623047" xlink:href="#e"/>
<use x="95.410156" xlink:href="#o"/>
<use x="159.033203" xlink:href="#al"/>
</g>
</g>
<g clip-path="url(#a)">
<g transform="translate(874.45 797.74) scale(.1 -.1)">
<use xlink:href="#c"/>
<use x="63.623047" xlink:href="#e"/>
<use x="95.410156" xlink:href="#o"/>
<use x="159.033203" xlink:href="#ac"/>
</g>
</g>
<g clip-path="url(#a)">
<g transform="translate(936.55 797.74) scale(.1 -.1)">
<use xlink:href="#c"/>
<use x="63.623047" xlink:href="#e"/>
<use x="95.410156" xlink:href="#o"/>
<use x="159.033203" xlink:href="#ab"/>
</g>
</g>
<g clip-path="url(#a)">
<g transform="translate(1000.9 797.74) scale(.1 -.1)">
<use xlink:href="#c"/>
<use x="63.623047" xlink:href="#e"/>
<use x="95.410156" xlink:href="#n"/>
<use x="159.033203" xlink:href="#ah"/>
</g>
</g>
<g clip-path="url(#a)">
<g transform="translate(1067.6 797.74) scale(.1 -.1)">
<use xlink:href="#c"/>
<use x="63.623047" xlink:href="#e"/>
<use x="95.410156" xlink:href="#n"/>
<use x="159.033203" xlink:href="#c"/>
</g>
</g>
<g clip-path="url(#a)">
<g transform="translate(598.46 797.74) scale(.1 -.1)">
<use xlink:href="#c"/>
<use x="63.623047" xlink:href="#e"/>
<use x="95.410156" xlink:href="#n"/>
<use x="159.033203" xlink:href="#n"/>
</g>
</g>
<g clip-path="url(#a)">
<g transform="translate(649.06 797.74) scale(.1 -.1)">
<use xlink:href="#c"/>
<use x="63.623047" xlink:href="#e"/>
<use x="95.410156" xlink:href="#n"/>
<use x="159.033203" xlink:href="#m"/>
</g>
</g>
<g clip-path="url(#a)">
<g transform="translate(379.97 797.74) scale(.1 -.1)">
<use xlink:href="#c"/>
<use x="63.623047" xlink:href="#e"/>
<use x="95.410156" xlink:href="#n"/>
<use x="159.033203" xlink:href="#p"/>
</g>
</g>
<g clip-path="url(#a)">
<g transform="translate(419.07 797.74) scale(.1 -.1)">
<use xlink:href="#c"/>
<use x="63.623047" xlink:href="#e"/>
<use x="95.410156" xlink:href="#n"/>
<use x="159.033203" xlink:href="#am"/>
</g>
</g>
<g clip-path="url(#a)">
<g transform="translate(460.47 797.74) scale(.1 -.1)">
<use xlink:href="#c"/>
<use x="63.623047" xlink:href="#e"/>
<use x="95.410156" xlink:href="#n"/>
<use x="159.033203" xlink:href="#al"/>
</g>
</g>
<g clip-path="url(#a)">
<g transform="translate(504.16 797.74) scale(.1 -.1)">
<use xlink:href="#c"/>
<use x="63.623047" xlink:href="#e"/>
<use x="95.410156" xlink:href="#n"/>
<use x="159.033203" xlink:href="#ac"/>
</g>
</g>
<g clip-path="url(#a)">
<g transform="translate(80.979 797.74) scale(.1 -.1)">
<use xlink:href="#c"/>
<use x="63.623047" xlink:href="#e"/>
<use x="95.410156" xlink:href="#n"/>
<use x="159.033203" xlink:href="#ab"/>
</g>
</g>
<g clip-path="url(#a)">
<g transform="translate(90.179 797.74) scale(.1 -.1)">
<use xlink:href="#c"/>
<use x="63.623047" xlink:href="#e"/>
<use x="95.410156" xlink:href="#m"/>
<use x="159.033203" xlink:href="#ah"/>
</g>
</g>
<g clip-path="url(#a)">
<g transform="translate(101.68 797.74) scale(.1 -.1)">
<use xlink:href="#c"/>
<use x="63.623047" xlink:href="#e"/>
<use x="95.410156" xlink:href="#m"/>
<use x="159.033203" xlink:href="#c"/>
</g>
</g>
<g clip-path="url(#a)">
<g transform="translate(115.48 797.74) scale(.1 -.1)">
<use xlink:href="#c"/>
<use x="63.623047" xlink:href="#e"/>
<use x="95.410156" xlink:href="#m"/>
<use x="159.033203" xlink:href="#o"/>
</g>
</g>
<g clip-path="url(#a)">
<g transform="translate(150.74 648.85) scale(.1 -.1)">
<use xlink:href="#c"/>
<use x="63.623047" xlink:href="#e"/>
<use x="95.410156" xlink:href="#m"/>
<use x="159.033203" xlink:href="#n"/>
</g>
</g>
<g clip-path="url(#a)">
<g transform="translate(247.34 648.85) scale(.1 -.1)">
<use xlink:href="#c"/>
<use x="63.623047" xlink:href="#e"/>
<use x="95.410156" xlink:href="#m"/>
<use x="159.033203" xlink:href="#m"/>
</g>
</g>
<g clip-path="url(#a)">
<g transform="translate(74.079 797.74) scale(.1 -.1)">
<use xlink:href="#c"/>
<use x="63.623047" xlink:href="#e"/>
<use x="95.410156" xlink:href="#m"/>
<use x="159.033203" xlink:href="#p"/>
</g>
</g>
<g clip-path="url(#a)">
<g transform="translate(193.68 797.74) scale(.1 -.1)">
<use xlink:href="#c"/>
<use x="63.623047" xlink:href="#e"/>
<use x="95.410156" xlink:href="#m"/>
<use x="159.033203" xlink:href="#am"/>
</g>
</g>
<g clip-path="url(#a)">
<g transform="translate(131.58 797.74) scale(.1 -.1)">
<use xlink:href="#c"/>
<use x="63.623047" xlink:href="#e"/>
<use x="95.410156" xlink:href="#m"/>
<use x="159.033203" xlink:href="#al"/>
</g>
</g>
<g clip-path="url(#a)">
<g transform="translate(149.98 797.74) scale(.1 -.1)">
<use xlink:href="#c"/>
<use x="63.623047" xlink:href="#e"/>
<use x="95.410156" xlink:href="#m"/>
<use x="159.033203" xlink:href="#ac"/>
</g>
</g>
<g clip-path="url(#a)">
<g transform="translate(170.68 797.74) scale(.1 -.1)">
<use xlink:href="#c"/>
<use x="63.623047" xlink:href="#e"/>
<use x="95.410156" xlink:href="#m"/>
<use x="159.033203" xlink:href="#ab"/>
</g>
</g>
<g clip-path="url(#a)">
<g transform="translate(246.57 797.74) scale(.1 -.1)">
<use xlink:href="#c"/>
<use x="63.623047" xlink:href="#e"/>
<use x="95.410156" xlink:href="#p"/>
<use x="159.033203" xlink:href="#ah"/>
</g>
</g>
<g clip-path="url(#a)">
<g transform="translate(308.67 797.74) scale(.1 -.1)">
<use xlink:href="#c"/>
<use x="63.623047" xlink:href="#e"/>
<use x="95.410156" xlink:href="#p"/>
<use x="159.033203" xlink:href="#c"/>
</g>
</g>
<g clip-path="url(#a)">
<g transform="translate(550.16 797.74) scale(.1 -.1)">
<use xlink:href="#c"/>
<use x="63.623047" xlink:href="#e"/>
<use x="95.410156" xlink:href="#p"/>
<use x="159.033203" xlink:href="#o"/>
</g>
</g>
<g clip-path="url(#a)">
<g transform="translate(1359.7 797.74) scale(.1 -.1)">
<use xlink:href="#c"/>
<use x="63.623047" xlink:href="#e"/>
<use x="95.410156" xlink:href="#p"/>
<use x="159.033203" xlink:href="#n"/>
</g>
</g>
<g clip-path="url(#a)">
<g transform="translate(1686.3 797.74) scale(.1 -.1)">
<use xlink:href="#c"/>
<use x="63.623047" xlink:href="#e"/>
<use x="95.410156" xlink:href="#p"/>
<use x="159.033203" xlink:href="#m"/>
</g>
</g>
<g clip-path="url(#a)">
<g transform="translate(1773.7 797.74) scale(.1 -.1)">
<use xlink:href="#c"/>
<use x="63.623047" xlink:href="#e"/>
<use x="95.410156" xlink:href="#p"/>
<use x="159.033203" xlink:href="#p"/>
</g>
</g>
<defs>
<clipPath id="a">
<rect width="1874.7" height="986.67"/>
</clipPath>
</defs>
</svg>
