<?xml version="1.0" encoding="UTF-8"?>
<!DOCTYPE svg  PUBLIC '-//W3C//DTD SVG 1.1//EN'  'http://www.w3.org/Graphics/SVG/1.1/DTD/svg11.dtd'>
<svg width="810.67pt" height="426.67pt" version="1.1" viewBox="0 0 810.67 426.67" xmlns="http://www.w3.org/2000/svg" xmlns:xlink="http://www.w3.org/1999/xlink">
<metadata>
<rdf:RDF xmlns:cc="http://creativecommons.org/ns#" xmlns:dc="http://purl.org/dc/elements/1.1/" xmlns:rdf="http://www.w3.org/1999/02/22-rdf-syntax-ns#">
<cc:Work>
<dc:type rdf:resource="http://purl.org/dc/dcmitype/StillImage"/>
<dc:date>2021-03-05T10:14:46.719178</dc:date>
<dc:format>image/svg+xml</dc:format>
<dc:creator>
<cc:Agent>
<dc:title>Matplotlib v3.3.3, https://matplotlib.org/</dc:title>
</cc:Agent>
</dc:creator>
</cc:Work>
</rdf:RDF>
</metadata>
<defs>
<style type="text/css">*{stroke-linecap:butt;stroke-linejoin:round;}</style>
</defs>
<path d="m0 426.67h810.67v-426.67h-810.67z" fill="#fff"/>
<g fill="none" stroke="#000">
<path d="m323.79 19.394v78.267" clip-path="url(#a)"/>
<path d="m323.79 97.661-250.91 155.88" clip-path="url(#a)"/>
<path d="m323.79 97.661-125.63 78.07" clip-path="url(#a)"/>
<path d="m323.79 97.661 81.544 233.27" clip-path="url(#a)"/>
<path d="m323.79 97.661 294.04 155.88" clip-path="url(#a)"/>
<path d="m323.79 97.661 287.9 233.27" clip-path="url(#a)"/>
<path d="m323.79 97.661-286.94 233.27" clip-path="url(#a)"/>
<path d="m72.878 253.54-21.29 77.399" clip-path="url(#a)"/>
<path d="m72.878 253.54-1.6377 77.399" clip-path="url(#a)"/>
<path d="m72.878 253.54 22.928 77.399" clip-path="url(#a)"/>
<path d="m198.16 175.73-55.682 77.805" clip-path="url(#a)"/>
<path d="m198.16 175.73 55.682 77.805" clip-path="url(#a)"/>
<path d="m405.33 330.94v76.337" clip-path="url(#a)"/>
<path d="m617.83 253.54-148.62 77.399" clip-path="url(#a)"/>
<path d="m617.83 253.54-79.838 77.399" clip-path="url(#a)"/>
<path d="m617.83 253.54 72.469 77.399" clip-path="url(#a)"/>
<path d="m617.83 253.54 155.99 77.399" clip-path="url(#a)"/>
<path d="m611.68 330.94v76.337" clip-path="url(#a)"/>
<path d="m469.2 330.94v76.337" clip-path="url(#a)"/>
<path d="m537.99 330.94v76.337" clip-path="url(#a)"/>
<path d="m690.29 330.94v76.337" clip-path="url(#a)"/>
<path d="m142.48 253.54-17.196 77.399" clip-path="url(#a)"/>
<path d="m142.48 253.54 17.196 77.399" clip-path="url(#a)"/>
<path d="m253.85 253.54-54.863 77.399" clip-path="url(#a)"/>
<path d="m253.85 253.54-10.645 77.399" clip-path="url(#a)"/>
<path d="m253.85 253.54 65.508 77.399" clip-path="url(#a)"/>
<path d="m198.98 330.94v76.337" clip-path="url(#a)"/>
<path d="m243.2 330.94v76.337" clip-path="url(#a)"/>
<path d="m319.35 330.94-27.022 76.337" clip-path="url(#a)"/>
<path d="m319.35 330.94 27.022 76.337" clip-path="url(#a)"/>
<path d="m125.28 330.94v76.337" clip-path="url(#a)"/>
<path d="m159.68 330.94v76.337" clip-path="url(#a)"/>
<path d="m51.588 330.94v76.337" clip-path="url(#a)"/>
<path d="m71.24 330.94v76.337" clip-path="url(#a)"/>
<path d="m95.806 330.94v76.337" clip-path="url(#a)"/>
<path d="m36.848 330.94v76.337" clip-path="url(#a)"/>
<path d="m773.82 330.94v76.337" clip-path="url(#a)"/>
</g>
<path d="m317.52 55.52v6.0162q0 2.4 2.4 2.4h7.7425q2.4 0 2.4-2.4v-6.0162q0-2.4-2.4-2.4h-7.7425q-2.4 0-2.4 2.4z" clip-path="url(#a)" fill="#fff" stroke="#fff"/>
<g clip-path="url(#a)">
<g transform="translate(321.58 55.52) rotate(90) scale(.08 -.08)">
<defs>
<path id="al" d="m9.8125 72.906h9.8594v-29.891h35.844v29.891h9.8594v-72.906h-9.8594v34.719h-35.844v-34.719h-9.8594z"/>
</defs>
<use xlink:href="#al"/>
</g>
</g>
<path d="m199.57 182.22 4.1505-2.5785q2.0386-1.2665 0.77216-3.3051l-4.0857-6.5767q-1.2665-2.0386-3.3051-0.77216l-4.1505 2.5785q-2.0386 1.2665-0.77216 3.3051l4.0857 6.5767q1.2665 2.0386 3.3051 0.77216z" clip-path="url(#a)" fill="#fff" stroke="#fff"/>
<g clip-path="url(#a)">
<g transform="translate(197.42 178.76) rotate(-31.85) scale(.08 -.08)">
<defs>
<path id="l" d="m-0.29688 72.906h61.672v-8.3125h-25.875v-64.594h-9.9062v64.594h-25.891z"/>
</defs>
<use xlink:href="#l"/>
</g>
</g>
<path d="m261.96 143.47 4.6481-2.8885q2.0384-1.2668 0.77166-3.3052l-4.0867-6.5761q-1.2668-2.0384-3.3052-0.77166l-4.6481 2.8885q-2.0384 1.2668-0.77166 3.3052l4.0867 6.5761q1.2668 2.0384 3.3052 0.77166z" clip-path="url(#a)" fill="#fff" stroke="#fff"/>
<g clip-path="url(#a)">
<g transform="translate(259.82 140.02) rotate(-31.859) scale(.08 -.08)">
<defs>
<path id="s" d="m34.188 63.188-13.391-36.281h26.812zm-5.5781 9.7188h11.188l27.781-72.906h-10.25l-6.6406 18.703h-32.859l-6.6406-18.703h-10.406z"/>
</defs>
<use xlink:href="#s"/>
</g>
</g>
<path d="m357.88 214.2 1.5183 4.3435q0.79196 2.2656 3.0575 1.4736l7.3088-2.5549q2.2656-0.79196 1.4736-3.0575l-1.5183-4.3435q-0.79196-2.2656-3.0575-1.4736l-7.3088 2.5549q-2.2656 0.79196-1.4736 3.0575z" clip-path="url(#a)" fill="#fff" stroke="#fff"/>
<g clip-path="url(#a)">
<g transform="translate(361.72 212.86) rotate(70.732) scale(.08 -.08)">
<defs>
<path id="o" d="m9.8125 72.906h41.891v-8.3125h-32.031v-21.484h28.906v-8.2969h-28.906v-34.812h-9.8594z"/>
</defs>
<use xlink:href="#o"/>
</g>
</g>
<path d="m465.74 180.01 4.2619 2.2593q2.1205 1.1241 3.2446-0.99637l3.6264-6.8407q1.1241-2.1205-0.99637-3.2446l-4.2619-2.2593q-2.1205-1.1241-3.2446 0.99637l-3.6264 6.8407q-1.1241 2.1205 0.99637 3.2446z" clip-path="url(#a)" fill="#fff" stroke="#fff"/>
<g clip-path="url(#a)">
<g transform="translate(467.64 176.42) rotate(27.929) scale(.08 -.08)">
<defs>
<path id="x" d="m19.672 64.797v-27.391h12.406q6.8906 0 10.641 3.5625 3.7656 3.5625 3.7656 10.156 0 6.5469-3.7656 10.109-3.75 3.5625-10.641 3.5625zm-9.8594 8.1094h22.266q12.266 0 18.531-5.5469 6.2812-5.5469 6.2812-16.234 0-10.797-6.2812-16.312-6.2656-5.5156-18.531-5.5156h-12.406v-29.297h-9.8594z"/>
</defs>
<use xlink:href="#x"/>
</g>
</g>
<path d="m461.4 217.23 4.7861 3.878q1.8647 1.5109 3.3756-0.35378l4.8743-6.0156q1.5109-1.8647-0.35378-3.3756l-4.7861-3.878q-1.8647-1.5109-3.3756 0.35378l-4.8743 6.0156q-1.5109 1.8647 0.35378 3.3756z" clip-path="url(#a)" fill="#fff" stroke="#fff"/>
<g clip-path="url(#a)">
<g transform="translate(463.95 214.07) rotate(39.017) scale(.08 -.08)">
<defs>
<path id="an" d="m19.672 64.797v-56.688h11.922q15.094 0 22.094 6.8281 7 6.8438 7 21.594 0 14.641-7 21.453t-22.094 6.8125zm-9.8594 8.1094h20.266q21.188 0 31.094-8.8125 9.9219-8.8125 9.9219-27.562 0-18.859-9.9688-27.703-9.9531-8.8281-31.047-8.8281h-20.266z"/>
</defs>
<use xlink:href="#an"/>
</g>
</g>
<path d="m182 221.01 4.5431-3.6934q1.8622-1.514 0.3483-3.3762l-4.8841-6.0077q-1.514-1.8622-3.3762-0.3483l-4.5431 3.6934q-1.8622 1.514-0.3483 3.3762l4.8841 6.0077q1.514 1.8622 3.3762 0.3483z" clip-path="url(#a)" fill="#fff" stroke="#fff"/>
<g clip-path="url(#a)">
<g transform="translate(179.44 217.86) rotate(-39.11) scale(.08 -.08)">
<defs>
<path id="w" d="m8.6875 72.906h9.9219v-44.297q0-11.719 4.2344-16.875 4.25-5.1406 13.781-5.1406 9.4688 0 13.719 5.1406 4.25 5.1562 4.25 16.875v44.297h9.9062v-45.516q0-14.25-7.0625-21.531-7.0469-7.2812-20.812-7.2812-13.828 0-20.891 7.2812-7.0469 7.2812-7.0469 21.531z"/>
</defs>
<use xlink:href="#w"/>
</g>
</g>
<path d="m67.543 296.58 1.4743-5.3597q0.63653-2.3141-1.6775-2.9506l-7.4652-2.0535q-2.3141-0.63653-2.9506 1.6775l-1.4743 5.3597q-0.63653 2.3141 1.6775 2.9506l7.4652 2.0535q2.3141 0.63653 2.9506-1.6775z" clip-path="url(#a)" fill="#fff" stroke="#fff"/>
<g clip-path="url(#a)">
<g transform="translate(63.624 295.5) rotate(-74.62) scale(.08 -.08)">
<defs>
<path id="r" d="m44.391 34.188q3.1719-1.0781 6.1719-4.5938t6.0312-9.6719l10.016-19.922h-10.609l-9.3125 18.703q-3.625 7.3281-7.0156 9.7188t-9.25 2.3906h-10.75v-30.812h-9.8594v72.906h22.266q12.5 0 18.656-5.2344 6.1562-5.2188 6.1562-15.766 0-6.8906-3.2031-11.438-3.2031-4.5312-9.2969-6.2812zm-24.719 30.609v-25.875h12.406q7.125 0 10.766 3.2969t3.6406 9.6875-3.6406 9.6406-10.766 3.25z"/>
</defs>
<use xlink:href="#r"/>
</g>
</g>
<path d="m78.276 294.9 0.10694-5.0539q0.050771-2.3995-2.3487-2.4502l-7.7408-0.16379q-2.3995-0.050771-2.4502 2.3487l-0.10694 5.0539q-0.050771 2.3995 2.3487 2.4502l7.7408 0.16379q2.3995 0.050771 2.4502-2.3487z" clip-path="url(#a)" fill="#fff" stroke="#fff"/>
<g clip-path="url(#a)">
<g transform="translate(74.213 294.81) rotate(-88.788) scale(.08 -.08)">
<defs>
<path id="am" d="m9.8125 72.906h46.094v-8.3125h-36.234v-21.578h34.719v-8.2969h-34.719v-26.422h37.109v-8.2969h-46.969z"/>
</defs>
<use xlink:href="#am"/>
</g>
</g>
<path d="m77.536 291.34 1.5867 5.3562q0.68167 2.3012 2.9828 1.6195l7.4236-2.1991q2.3012-0.68167 1.6195-2.9828l-1.5867-5.3562q-0.68167-2.3012-2.9828-1.6195l-7.4236 2.1991q-2.3012 0.68167-1.6195 2.9828z" clip-path="url(#a)" fill="#fff" stroke="#fff"/>
<g clip-path="url(#a)">
<g transform="translate(81.432 290.18) rotate(73.499) scale(.08 -.08)">
<defs>
<path id="p" d="m64.406 67.281v-10.391q-4.9844 4.6406-10.625 6.9219-5.6406 2.2969-11.984 2.2969-12.5 0-19.141-7.6406t-6.6406-22.094q0-14.406 6.6406-22.047t19.141-7.6406q6.3438 0 11.984 2.2969t10.625 6.9375v-10.312q-5.1719-3.5156-10.969-5.2812-5.7812-1.75-12.219-1.75-16.562 0-26.094 10.125-9.5156 10.141-9.5156 27.672 0 17.578 9.5156 27.703 9.5312 10.141 26.094 10.141 6.5312 0 12.312-1.7344 5.7969-1.7344 10.875-5.2031z"/>
</defs>
<use xlink:href="#p"/>
</g>
</g>
<path d="m174.02 220.24 2.8073-3.9227q1.3968-1.9517-0.55494-3.3484l-6.2962-4.506q-1.9517-1.3967-3.3484 0.55494l-2.8073 3.9227q-1.3968 1.9517 0.55494 3.3484l6.2962 4.506q1.9517 1.3968 3.3484-0.55494z" clip-path="url(#a)" fill="#fff" stroke="#fff"/>
<g clip-path="url(#a)">
<g transform="translate(170.71 217.88) rotate(-54.41) scale(.08 -.08)">
<use xlink:href="#x"/>
</g>
</g>
<path d="m219.31 216.06 3.1849 4.4503q1.3968 1.9517 3.3484 0.55494l6.2962-4.506q1.9517-1.3967 0.55494-3.3484l-3.1849-4.4503q-1.3968-1.9517-3.3484-0.55494l-6.2962 4.506q-1.9517 1.3968-0.55494 3.3484z" clip-path="url(#a)" fill="#fff" stroke="#fff"/>
<g clip-path="url(#a)">
<g transform="translate(222.62 213.69) rotate(54.41) scale(.08 -.08)">
<use xlink:href="#s"/>
</g>
</g>
<path d="m399.06 352.2v33.808q0 2.4 2.4 2.4h7.7425q2.4 0 2.4-2.4v-33.808q0-2.4-2.4-2.4h-7.7425q-2.4 0-2.4 2.4z" clip-path="url(#a)" fill="#fff" stroke="#fff"/>
<g clip-path="url(#a)">
<g transform="translate(403.13 352.2) rotate(90) scale(.08 -.08)">
<defs>
<path id="e" d="m56.203 29.594v-4.3906h-41.312q0.59375-9.2812 5.5938-14.141t13.938-4.8594q5.1719 0 10.031 1.2656t9.6562 3.8125v-8.5q-4.8438-2.0469-9.9219-3.125t-10.297-1.0781q-13.094 0-20.734 7.6094-7.6406 7.625-7.6406 20.625 0 13.422 7.25 21.297 7.25 7.8906 19.562 7.8906 11.031 0 17.453-7.1094 6.4219-7.0938 6.4219-19.297zm-8.9844 2.6406q-0.09375 7.3594-4.125 11.75-4.0312 4.4062-10.672 4.4062-7.5156 0-12.031-4.25t-5.2031-11.969z"/>
<path id="i" d="m41.109 46.297q-1.5156 0.875-3.2969 1.2812-1.7812 0.42188-3.9219 0.42188-7.625 0-11.703-4.9531t-4.0781-14.234v-28.812h-9.0312v54.688h9.0312v-8.5q2.8438 4.9844 7.375 7.3906 4.5469 2.4219 11.047 2.4219 0.92188 0 2.0469-0.125 1.125-0.10938 2.4844-0.35938z"/>
<path id="j" d="m52 44.188q3.375 6.0625 8.0625 8.9375t11.031 2.875q8.5469 0 13.188-5.9844 4.6406-5.9688 4.6406-17v-33.016h-9.0312v32.719q0 7.8594-2.7969 11.656-2.7812 3.8125-8.4844 3.8125-6.9844 0-11.047-4.6406-4.0469-4.625-4.0469-12.641v-30.906h-9.0312v32.719q0 7.9062-2.7812 11.688t-8.5938 3.7812q-6.8906 0-10.953-4.6562-4.0469-4.6562-4.0469-12.625v-30.906h-9.0312v54.688h9.0312v-8.5q3.0781 5.0312 7.375 7.4219t10.203 2.3906q5.9688 0 10.141-3.0312 4.1719-3.0156 6.1719-8.7812z"/>
<path id="h" d="m9.4219 54.688h8.9844v-54.688h-8.9844zm0 21.297h8.9844v-11.391h-8.9844z"/>
<path id="g" d="m54.891 33.016v-33.016h-8.9844v32.719q0 7.7656-3.0312 11.609-3.0312 3.8594-9.0781 3.8594-7.2812 0-11.484-4.6406-4.2031-4.625-4.2031-12.641v-30.906h-9.0312v54.688h9.0312v-8.5q3.2344 4.9375 7.5938 7.375 4.375 2.4375 10.094 2.4375 9.4219 0 14.25-5.8281 4.8438-5.8281 4.8438-17.156z"/>
<path id="f" d="m34.281 27.484q-10.891 0-15.094-2.4844t-4.2031-8.5q0-4.7812 3.1562-7.5938 3.1562-2.7969 8.5625-2.7969 7.4844 0 12 5.2969t4.5156 14.078v2zm17.922 3.7188v-31.203h-8.9844v8.2969q-3.0781-4.9688-7.6719-7.3438t-11.234-2.375q-8.3906 0-13.359 4.7188-4.9531 4.7188-4.9531 12.625 0 9.2188 6.1719 13.906 6.1875 4.6875 18.438 4.6875h12.609v0.89062q0 6.2031-4.0781 9.5938t-11.453 3.3906q-4.6875 0-9.1406-1.125-4.4375-1.125-8.5312-3.375v8.3125q4.9219 1.9062 9.5625 2.8438 4.6406 0.95312 9.0312 0.95312 11.875 0 17.734-6.1562 5.8594-6.1406 5.8594-18.641z"/>
<path id="k" d="m9.4219 75.984h8.9844v-75.984h-8.9844z"/>
</defs>
<use xlink:href="#l"/>
<use x="44.083984" xlink:href="#e"/>
<use x="105.607422" xlink:href="#i"/>
<use x="144.970703" xlink:href="#j"/>
<use x="242.382812" xlink:href="#h"/>
<use x="270.166016" xlink:href="#g"/>
<use x="333.544922" xlink:href="#f"/>
<use x="394.824219" xlink:href="#k"/>
</g>
</g>
<path d="m544.37 298.86 4.081-2.1253q2.1286-1.1086 1.0201-3.2372l-3.5762-6.8671q-1.1085-2.1286-3.2372-1.0201l-4.081 2.1253q-2.1286 1.1086-1.0201 3.2372l3.5762 6.8671q1.1085 2.1286 3.2372 1.0201z" clip-path="url(#a)" fill="#fff" stroke="#fff"/>
<g clip-path="url(#a)">
<g transform="translate(542.49 295.26) rotate(-27.509) scale(.08 -.08)">
<use xlink:href="#o"/>
</g>
</g>
<path d="m580.28 298.67 3.9911-3.8692q1.7232-1.6705 0.052647-3.3937l-5.3892-5.559q-1.6705-1.7232-3.3937-0.052647l-3.9911 3.8692q-1.7232 1.6705-0.052646 3.3937l5.3892 5.559q1.6705 1.7232 3.3937 0.052646z" clip-path="url(#a)" fill="#fff" stroke="#fff"/>
<g clip-path="url(#a)">
<g transform="translate(577.45 295.76) rotate(-44.111) scale(.08 -.08)">
<use xlink:href="#r"/>
</g>
</g>
<path d="m647.57 294.48 3.8181 4.0778q1.6403 1.7519 3.3923 0.1116l5.6518-5.2918q1.7519-1.6403 0.1116-3.3923l-3.8181-4.0778q-1.6403-1.7519-3.3923-0.1116l-5.6518 5.2918q-1.7519 1.6403-0.1116 3.3923z" clip-path="url(#a)" fill="#fff" stroke="#fff"/>
<g clip-path="url(#a)">
<g transform="translate(650.54 291.71) rotate(46.884) scale(.08 -.08)">
<use xlink:href="#p"/>
</g>
</g>
<path d="m690.41 296.55 5.2449 2.6024q2.1499 1.0667 3.2166-1.0832l3.4413-6.9357q1.0667-2.1499-1.0832-3.2166l-5.2449-2.6024q-2.1499-1.0667-3.2166 1.0832l-3.4413 6.9357q-1.0667 2.1499 1.0832 3.2166z" clip-path="url(#a)" fill="#fff" stroke="#fff"/>
<g clip-path="url(#a)">
<g transform="translate(692.22 292.91) rotate(26.389) scale(.08 -.08)">
<use xlink:href="#w"/>
</g>
</g>
<path d="m605.41 352.2v33.808q0 2.4 2.4 2.4h7.7425q2.4 0 2.4-2.4v-33.808q0-2.4-2.4-2.4h-7.7425q-2.4 0-2.4 2.4z" clip-path="url(#a)" fill="#fff" stroke="#fff"/>
<g clip-path="url(#a)">
<g transform="translate(609.48 352.2) rotate(90) scale(.08 -.08)">
<use xlink:href="#l"/>
<use x="44.083984" xlink:href="#e"/>
<use x="105.607422" xlink:href="#i"/>
<use x="144.970703" xlink:href="#j"/>
<use x="242.382812" xlink:href="#h"/>
<use x="270.166016" xlink:href="#g"/>
<use x="333.544922" xlink:href="#f"/>
<use x="394.824219" xlink:href="#k"/>
</g>
</g>
<path d="m462.93 352.2v33.808q0 2.4 2.4 2.4h7.7425q2.4 0 2.4-2.4v-33.808q0-2.4-2.4-2.4h-7.7425q-2.4 0-2.4 2.4z" clip-path="url(#a)" fill="#fff" stroke="#fff"/>
<g clip-path="url(#a)">
<g transform="translate(467 352.2) rotate(90) scale(.08 -.08)">
<use xlink:href="#l"/>
<use x="44.083984" xlink:href="#e"/>
<use x="105.607422" xlink:href="#i"/>
<use x="144.970703" xlink:href="#j"/>
<use x="242.382812" xlink:href="#h"/>
<use x="270.166016" xlink:href="#g"/>
<use x="333.544922" xlink:href="#f"/>
<use x="394.824219" xlink:href="#k"/>
</g>
</g>
<path d="m531.72 352.2v33.808q0 2.4 2.4 2.4h7.7425q2.4 0 2.4-2.4v-33.808q0-2.4-2.4-2.4h-7.7425q-2.4 0-2.4 2.4z" clip-path="url(#a)" fill="#fff" stroke="#fff"/>
<g clip-path="url(#a)">
<g transform="translate(535.78 352.2) rotate(90) scale(.08 -.08)">
<use xlink:href="#l"/>
<use x="44.083984" xlink:href="#e"/>
<use x="105.607422" xlink:href="#i"/>
<use x="144.970703" xlink:href="#j"/>
<use x="242.382812" xlink:href="#h"/>
<use x="270.166016" xlink:href="#g"/>
<use x="333.544922" xlink:href="#f"/>
<use x="394.824219" xlink:href="#k"/>
</g>
</g>
<path d="m684.02 352.2v33.808q0 2.4 2.4 2.4h7.7425q2.4 0 2.4-2.4v-33.808q0-2.4-2.4-2.4h-7.7425q-2.4 0-2.4 2.4z" clip-path="url(#a)" fill="#fff" stroke="#fff"/>
<g clip-path="url(#a)">
<g transform="translate(688.09 352.2) rotate(90) scale(.08 -.08)">
<use xlink:href="#l"/>
<use x="44.083984" xlink:href="#e"/>
<use x="105.607422" xlink:href="#i"/>
<use x="144.970703" xlink:href="#j"/>
<use x="242.382812" xlink:href="#h"/>
<use x="270.166016" xlink:href="#g"/>
<use x="333.544922" xlink:href="#f"/>
<use x="394.824219" xlink:href="#k"/>
</g>
</g>
<path d="m139.51 295.84 0.99794-4.4917q0.52052-2.3429-1.8224-2.8634l-7.5582-1.6792q-2.3429-0.52052-2.8634 1.8224l-0.99794 4.4917q-0.52052 2.3429 1.8224 2.8634l7.5582 1.6792q2.3429 0.52052 2.8634-1.8224z" clip-path="url(#a)" fill="#fff" stroke="#fff"/>
<g clip-path="url(#a)">
<g transform="translate(135.54 294.96) rotate(-77.474) scale(.08 -.08)">
<use xlink:href="#o"/>
</g>
</g>
<path d="m144.35 290.87 1.2116 5.4533q0.52052 2.3429 2.8634 1.8224l7.5582-1.6792q2.3429-0.52052 1.8224-2.8634l-1.2116-5.4533q-0.52052-2.3429-2.8634-1.8224l-7.5582 1.6792q-2.3429 0.52052-1.8224 2.8634z" clip-path="url(#a)" fill="#fff" stroke="#fff"/>
<g clip-path="url(#a)">
<g transform="translate(148.32 289.99) rotate(77.474) scale(.08 -.08)">
<use xlink:href="#p"/>
</g>
</g>
<path d="m229.92 298.13 3.2146-4.535q1.3879-1.958-0.5701-3.3459l-6.3166-4.4774q-1.958-1.3879-3.3459 0.5701l-3.2146 4.535q-1.3879 1.958 0.5701 3.3459l6.3166 4.4774q1.958 1.3879 3.3459-0.5701z" clip-path="url(#a)" fill="#fff" stroke="#fff"/>
<g clip-path="url(#a)">
<g transform="translate(226.61 295.78) rotate(-54.67) scale(.08 -.08)">
<use xlink:href="#r"/>
</g>
</g>
<path d="m254.42 295.37 0.62693-4.5583q0.32701-2.3776-2.0506-2.7046l-7.6703-1.0549q-2.3776-0.32701-2.7046 2.0506l-0.62693 4.5583q-0.32701 2.3776 2.0506 2.7046l7.6703 1.0549q2.3776 0.32701 2.7046-2.0506z" clip-path="url(#a)" fill="#fff" stroke="#fff"/>
<g clip-path="url(#a)">
<g transform="translate(250.4 294.82) rotate(-82.169) scale(.08 -.08)">
<use xlink:href="#o"/>
</g>
</g>
<path d="m280.01 294.16 3.6089 4.264q1.5505 1.8319 3.3824 0.28144l5.9099-5.002q1.8319-1.5505 0.28144-3.3824l-3.6089-4.264q-1.5505-1.8319-3.3824-0.28144l-5.9099 5.002q-1.8319 1.5505-0.28144 3.3824z" clip-path="url(#a)" fill="#fff" stroke="#fff"/>
<g clip-path="url(#a)">
<g transform="translate(283.11 291.53) rotate(49.756) scale(.08 -.08)">
<use xlink:href="#p"/>
</g>
</g>
<path d="m192.71 352.2v33.808q0 2.4 2.4 2.4h7.7425q2.4 0 2.4-2.4v-33.808q0-2.4-2.4-2.4h-7.7425q-2.4 0-2.4 2.4z" clip-path="url(#a)" fill="#fff" stroke="#fff"/>
<g clip-path="url(#a)">
<g transform="translate(196.77 352.2) rotate(90) scale(.08 -.08)">
<use xlink:href="#l"/>
<use x="44.083984" xlink:href="#e"/>
<use x="105.607422" xlink:href="#i"/>
<use x="144.970703" xlink:href="#j"/>
<use x="242.382812" xlink:href="#h"/>
<use x="270.166016" xlink:href="#g"/>
<use x="333.544922" xlink:href="#f"/>
<use x="394.824219" xlink:href="#k"/>
</g>
</g>
<path d="m236.93 352.2v33.808q0 2.4 2.4 2.4h7.7425q2.4 0 2.4-2.4v-33.808q0-2.4-2.4-2.4h-7.7425q-2.4 0-2.4 2.4z" clip-path="url(#a)" fill="#fff" stroke="#fff"/>
<g clip-path="url(#a)">
<g transform="translate(240.99 352.2) rotate(90) scale(.08 -.08)">
<use xlink:href="#l"/>
<use x="44.083984" xlink:href="#e"/>
<use x="105.607422" xlink:href="#i"/>
<use x="144.970703" xlink:href="#j"/>
<use x="242.382812" xlink:href="#h"/>
<use x="270.166016" xlink:href="#g"/>
<use x="333.544922" xlink:href="#f"/>
<use x="394.824219" xlink:href="#k"/>
</g>
</g>
<path d="m306.11 387.13 11.281-31.87q0.80087-2.2624-1.4616-3.0633l-7.2987-2.5836q-2.2624-0.80087-3.0633 1.4616l-11.281 31.87q-0.80087 2.2624 1.4616 3.0633l7.2987 2.5836q2.2624 0.80087 3.0633-1.4616z" clip-path="url(#a)" fill="#fff" stroke="#fff"/>
<g clip-path="url(#a)">
<g transform="translate(302.28 385.78) rotate(-70.507) scale(.08 -.08)">
<use xlink:href="#l"/>
<use x="44.083984" xlink:href="#e"/>
<use x="105.607422" xlink:href="#i"/>
<use x="144.970703" xlink:href="#j"/>
<use x="242.382812" xlink:href="#h"/>
<use x="270.166016" xlink:href="#g"/>
<use x="333.544922" xlink:href="#f"/>
<use x="394.824219" xlink:href="#k"/>
</g>
</g>
<path d="m321.31 355.26 11.281 31.87q0.80087 2.2624 3.0633 1.4616l7.2987-2.5836q2.2624-0.80087 1.4616-3.0633l-11.281-31.87q-0.80087-2.2624-3.0633-1.4616l-7.2987 2.5836q-2.2624 0.80087-1.4616 3.0633z" clip-path="url(#a)" fill="#fff" stroke="#fff"/>
<g clip-path="url(#a)">
<g transform="translate(325.14 353.91) rotate(70.507) scale(.08 -.08)">
<use xlink:href="#l"/>
<use x="44.083984" xlink:href="#e"/>
<use x="105.607422" xlink:href="#i"/>
<use x="144.970703" xlink:href="#j"/>
<use x="242.382812" xlink:href="#h"/>
<use x="270.166016" xlink:href="#g"/>
<use x="333.544922" xlink:href="#f"/>
<use x="394.824219" xlink:href="#k"/>
</g>
</g>
<path d="m119.01 352.2v33.808q0 2.4 2.4 2.4h7.7425q2.4 0 2.4-2.4v-33.808q0-2.4-2.4-2.4h-7.7425q-2.4 0-2.4 2.4z" clip-path="url(#a)" fill="#fff" stroke="#fff"/>
<g clip-path="url(#a)">
<g transform="translate(123.08 352.2) rotate(90) scale(.08 -.08)">
<use xlink:href="#l"/>
<use x="44.083984" xlink:href="#e"/>
<use x="105.607422" xlink:href="#i"/>
<use x="144.970703" xlink:href="#j"/>
<use x="242.382812" xlink:href="#h"/>
<use x="270.166016" xlink:href="#g"/>
<use x="333.544922" xlink:href="#f"/>
<use x="394.824219" xlink:href="#k"/>
</g>
</g>
<path d="m153.41 352.2v33.808q0 2.4 2.4 2.4h7.7425q2.4 0 2.4-2.4v-33.808q0-2.4-2.4-2.4h-7.7425q-2.4 0-2.4 2.4z" clip-path="url(#a)" fill="#fff" stroke="#fff"/>
<g clip-path="url(#a)">
<g transform="translate(157.47 352.2) rotate(90) scale(.08 -.08)">
<use xlink:href="#l"/>
<use x="44.083984" xlink:href="#e"/>
<use x="105.607422" xlink:href="#i"/>
<use x="144.970703" xlink:href="#j"/>
<use x="242.382812" xlink:href="#h"/>
<use x="270.166016" xlink:href="#g"/>
<use x="333.544922" xlink:href="#f"/>
<use x="394.824219" xlink:href="#k"/>
</g>
</g>
<path d="m45.317 352.2v33.808q0 2.4 2.4 2.4h7.7425q2.4 0 2.4-2.4v-33.808q0-2.4-2.4-2.4h-7.7425q-2.4 0-2.4 2.4z" clip-path="url(#a)" fill="#fff" stroke="#fff"/>
<g clip-path="url(#a)">
<g transform="translate(49.38 352.2) rotate(90) scale(.08 -.08)">
<use xlink:href="#l"/>
<use x="44.083984" xlink:href="#e"/>
<use x="105.607422" xlink:href="#i"/>
<use x="144.970703" xlink:href="#j"/>
<use x="242.382812" xlink:href="#h"/>
<use x="270.166016" xlink:href="#g"/>
<use x="333.544922" xlink:href="#f"/>
<use x="394.824219" xlink:href="#k"/>
</g>
</g>
<path d="m64.969 352.2v33.808q0 2.4 2.4 2.4h7.7425q2.4 0 2.4-2.4v-33.808q0-2.4-2.4-2.4h-7.7425q-2.4 0-2.4 2.4z" clip-path="url(#a)" fill="#fff" stroke="#fff"/>
<g clip-path="url(#a)">
<g transform="translate(69.033 352.2) rotate(90) scale(.08 -.08)">
<use xlink:href="#l"/>
<use x="44.083984" xlink:href="#e"/>
<use x="105.607422" xlink:href="#i"/>
<use x="144.970703" xlink:href="#j"/>
<use x="242.382812" xlink:href="#h"/>
<use x="270.166016" xlink:href="#g"/>
<use x="333.544922" xlink:href="#f"/>
<use x="394.824219" xlink:href="#k"/>
</g>
</g>
<path d="m89.535 352.2v33.808q0 2.4 2.4 2.4h7.7425q2.4 0 2.4-2.4v-33.808q0-2.4-2.4-2.4h-7.7425q-2.4 0-2.4 2.4z" clip-path="url(#a)" fill="#fff" stroke="#fff"/>
<g clip-path="url(#a)">
<g transform="translate(93.599 352.2) rotate(90) scale(.08 -.08)">
<use xlink:href="#l"/>
<use x="44.083984" xlink:href="#e"/>
<use x="105.607422" xlink:href="#i"/>
<use x="144.970703" xlink:href="#j"/>
<use x="242.382812" xlink:href="#h"/>
<use x="270.166016" xlink:href="#g"/>
<use x="333.544922" xlink:href="#f"/>
<use x="394.824219" xlink:href="#k"/>
</g>
</g>
<path d="m30.577 352.2v33.808q0 2.4 2.4 2.4h7.7425q2.4 0 2.4-2.4v-33.808q0-2.4-2.4-2.4h-7.7425q-2.4 0-2.4 2.4z" clip-path="url(#a)" fill="#fff" stroke="#fff"/>
<g clip-path="url(#a)">
<g transform="translate(34.641 352.2) rotate(90) scale(.08 -.08)">
<use xlink:href="#l"/>
<use x="44.083984" xlink:href="#e"/>
<use x="105.607422" xlink:href="#i"/>
<use x="144.970703" xlink:href="#j"/>
<use x="242.382812" xlink:href="#h"/>
<use x="270.166016" xlink:href="#g"/>
<use x="333.544922" xlink:href="#f"/>
<use x="394.824219" xlink:href="#k"/>
</g>
</g>
<path d="m767.55 352.2v33.808q0 2.4 2.4 2.4h7.7425q2.4 0 2.4-2.4v-33.808q0-2.4-2.4-2.4h-7.7425q-2.4 0-2.4 2.4z" clip-path="url(#a)" fill="#fff" stroke="#fff"/>
<g clip-path="url(#a)">
<g transform="translate(771.61 352.2) rotate(90) scale(.08 -.08)">
<use xlink:href="#l"/>
<use x="44.083984" xlink:href="#e"/>
<use x="105.607422" xlink:href="#i"/>
<use x="144.970703" xlink:href="#j"/>
<use x="242.382812" xlink:href="#h"/>
<use x="270.166016" xlink:href="#g"/>
<use x="333.544922" xlink:href="#f"/>
<use x="394.824219" xlink:href="#k"/>
</g>
</g>
<defs>
<path id="b" d="m0 8.6603c2.2967 0 4.4997-0.9125 6.1237-2.5365 1.624-1.624 2.5365-3.827 2.5365-6.1237s-0.9125-4.4997-2.5365-6.1237c-1.624-1.624-3.827-2.5365-6.1237-2.5365s-4.4997 0.9125-6.1237 2.5365c-1.624 1.624-2.5365 3.827-2.5365 6.1237s0.9125 4.4997 2.5365 6.1237c1.624 1.624 3.827 2.5365 6.1237 2.5365z"/>
</defs>
<g clip-path="url(#a)" fill="#ffffff" stroke="#ffffff">
<use x="36.848485" y="407.272727" xlink:href="#b"/>
<use x="51.587879" y="407.272727" xlink:href="#b"/>
<use x="71.240404" y="407.272727" xlink:href="#b"/>
<use x="95.806061" y="407.272727" xlink:href="#b"/>
<use x="125.284848" y="407.272727" xlink:href="#b"/>
<use x="159.676768" y="407.272727" xlink:href="#b"/>
<use x="198.981818" y="407.272727" xlink:href="#b"/>
<use x="243.2" y="407.272727" xlink:href="#b"/>
<use x="292.331313" y="407.272727" xlink:href="#b"/>
<use x="346.375758" y="407.272727" xlink:href="#b"/>
<use x="405.333333" y="407.272727" xlink:href="#b"/>
<use x="469.20404" y="407.272727" xlink:href="#b"/>
<use x="537.987879" y="407.272727" xlink:href="#b"/>
<use x="611.684848" y="407.272727" xlink:href="#b"/>
<use x="690.294949" y="407.272727" xlink:href="#b"/>
<use x="773.818182" y="407.272727" xlink:href="#b"/>
<use x="323.789001" y="19.393939" xlink:href="#b"/>
<use x="323.789001" y="97.661346" xlink:href="#b"/>
<use x="72.878114" y="253.536358" xlink:href="#b"/>
<use x="198.162963" y="175.731254" xlink:href="#b"/>
<use x="405.333333" y="330.93551" xlink:href="#b"/>
<use x="617.826263" y="253.536358" xlink:href="#b"/>
<use x="611.684848" y="330.93551" xlink:href="#b"/>
<use x="469.20404" y="330.93551" xlink:href="#b"/>
<use x="537.987879" y="330.93551" xlink:href="#b"/>
<use x="690.294949" y="330.93551" xlink:href="#b"/>
<use x="142.480808" y="253.536358" xlink:href="#b"/>
<use x="253.845118" y="253.536358" xlink:href="#b"/>
<use x="198.981818" y="330.93551" xlink:href="#b"/>
<use x="243.2" y="330.93551" xlink:href="#b"/>
<use x="319.353535" y="330.93551" xlink:href="#b"/>
<use x="125.284848" y="330.93551" xlink:href="#b"/>
<use x="159.676768" y="330.93551" xlink:href="#b"/>
<use x="51.587879" y="330.93551" xlink:href="#b"/>
<use x="71.240404" y="330.93551" xlink:href="#b"/>
<use x="95.806061" y="330.93551" xlink:href="#b"/>
<use x="36.848485" y="330.93551" xlink:href="#b"/>
<use x="773.818182" y="330.93551" xlink:href="#b"/>
</g>
<g clip-path="url(#a)">
<g transform="translate(36.848 410.03) scale(.1 -.1)">
<defs></defs>
<use xlink:href="#DejaVuSans-65279"/>
</g>
</g>
<g clip-path="url(#a)">
<g transform="translate(43.779 410.03) scale(.1 -.1)">
<defs>
<path id="n" d="m30.609 48.391q-7.2188 0-11.422-5.6406t-4.2031-15.453 4.1719-15.453q4.1875-5.6406 11.453-5.6406 7.1875 0 11.375 5.6562 4.2031 5.6719 4.2031 15.438 0 9.7188-4.2031 15.406-4.1875 5.6875-11.375 5.6875zm0 7.6094q11.719 0 18.406-7.625 6.7031-7.6094 6.7031-21.078 0-13.422-6.7031-21.078-6.6875-7.6406-18.406-7.6406-11.766 0-18.438 7.6406-6.6562 7.6562-6.6562 21.078 0 13.469 6.6562 21.078 6.6719 7.625 18.438 7.625z"/>
</defs>
<use xlink:href="#o"/>
<use x="53.894531" xlink:href="#n"/>
<use x="115.076172" xlink:href="#i"/>
</g>
</g>
<g clip-path="url(#a)">
<g transform="translate(57.629 410.03) scale(.1 -.1)">
<defs>
<path id="ai" d="m44.281 53.078v-8.5q-3.7969 1.9531-7.9062 2.9219-4.0938 0.98438-8.5 0.98438-6.6875 0-10.031-2.0469t-3.3438-6.1562q0-3.125 2.3906-4.9062t9.625-3.3906l3.0781-0.6875q9.5625-2.0469 13.594-5.7812t4.0312-10.422q0-7.625-6.0312-12.078-6.0312-4.4375-16.578-4.4375-4.3906 0-9.1562 0.85938t-10.031 2.5625v9.2812q4.9844-2.5938 9.8125-3.8906 4.8281-1.2812 9.5781-1.2812 6.3438 0 9.75 2.1719 3.4219 2.1719 3.4219 6.125 0 3.6562-2.4688 5.6094-2.4531 1.9531-10.812 3.7656l-3.125 0.73438q-8.3438 1.75-12.062 5.3906-3.7031 3.6406-3.7031 9.9844 0 7.7188 5.4688 11.906 5.4688 4.2031 15.531 4.2031 4.9688 0 9.3594-0.73438 4.4062-0.71875 8.1094-2.1875z"/>
</defs>
<use xlink:href="#ai"/>
<use x="52.099609" xlink:href="#n"/>
<use x="113.28125" xlink:href="#j"/>
<use x="210.693359" xlink:href="#e"/>
</g>
</g>
<g clip-path="url(#a)">
<g transform="translate(82.694 410.03) scale(.1 -.1)">
<defs>
<path id="ah" d="m4.2031 54.688h8.9844l11.234-42.672 11.172 42.672h10.594l11.234-42.672 11.188 42.672h8.9844l-14.312-54.688h-10.594l-11.766 44.828-11.812-44.828h-10.609z"/>
<path id="q" d="m54.891 33.016v-33.016h-8.9844v32.719q0 7.7656-3.0312 11.609-3.0312 3.8594-9.0781 3.8594-7.2812 0-11.484-4.6406-4.2031-4.625-4.2031-12.641v-30.906h-9.0312v75.984h9.0312v-29.797q3.2344 4.9375 7.5938 7.375 4.375 2.4375 10.094 2.4375 9.4219 0 14.25-5.8281 4.8438-5.8281 4.8438-17.156z"/>
</defs>
<use xlink:href="#ah"/>
<use x="81.787109" xlink:href="#q"/>
<use x="145.166016" xlink:href="#h"/>
<use x="172.949219" xlink:href="#k"/>
<use x="200.732422" xlink:href="#e"/>
</g>
</g>
<g clip-path="url(#a)">
<g transform="translate(117.08 410.03) scale(.1 -.1)">
<defs>
<path id="t" d="m18.312 70.219v-15.531h18.5v-6.9844h-18.5v-29.688q0-6.6875 1.8281-8.5938t7.4531-1.9062h9.2188v-7.5156h-9.2188q-10.406 0-14.359 3.875-3.9531 3.8906-3.9531 14.141v29.688h-6.5938v6.9844h6.5938v15.531z"/>
</defs>
<use xlink:href="#t"/>
<use x="39.208984" xlink:href="#q"/>
<use x="102.587891" xlink:href="#e"/>
</g>
</g>
<g clip-path="url(#a)">
<g transform="translate(141.38 410.03) scale(.1 -.1)">
<defs>
<path id="ao" d="m2.9844 54.688h9.5156l17.094-45.891 17.094 45.891h9.5156l-20.516-54.688h-12.203z"/>
<path id="ag" d="m32.172-5.0781q-3.7969-9.7656-7.4219-12.734-3.6094-2.9844-9.6562-2.9844h-7.1875v7.5156h5.2812q3.7031 0 5.75 1.7656 2.0625 1.75 4.5469 8.2969l1.6094 4.0938-22.109 53.812h9.5156l17.094-42.766 17.094 42.766h9.5156z"/>
<path id="aq" d="m45.406 27.984q0 9.7656-4.0312 15.125-4.0156 5.375-11.297 5.375-7.2188 0-11.25-5.375-4.0312-5.3594-4.0312-15.125 0-9.7188 4.0312-15.094t11.25-5.375q7.2812 0 11.297 5.375 4.0312 5.375 4.0312 15.094zm8.9844-21.203q0-13.953-6.2031-20.766-6.1875-6.8125-18.984-6.8125-4.7344 0-8.9375 0.70312t-8.1562 2.1719v8.7344q3.9531-2.1406 7.8125-3.1562 3.8594-1.0312 7.8594-1.0312 8.8438 0 13.234 4.6094t4.3906 13.938v4.4531q-2.7812-4.8438-7.125-7.2344t-10.406-2.3906q-10.047 0-16.203 7.6562-6.1562 7.6719-6.1562 20.328 0 12.688 6.1562 20.344 6.1562 7.6719 16.203 7.6719 6.0625 0 10.406-2.3906t7.125-7.2188v8.2969h8.9844z"/>
</defs>
<use xlink:href="#ao"/>
<use x="59.179688" xlink:href="#n"/>
<use x="120.361328" xlink:href="#ag"/>
<use x="179.541016" xlink:href="#f"/>
<use x="240.820312" xlink:href="#aq"/>
<use x="304.296875" xlink:href="#e"/>
</g>
</g>
<g clip-path="url(#a)">
<g transform="translate(194.16 410.03) scale(.1 -.1)">
<defs>
<path id="ar" d="m37.109 75.984v-7.4844h-8.5938q-4.8281 0-6.7188-1.9531-1.875-1.9531-1.875-7.0312v-4.8281h14.797v-6.9844h-14.797v-47.703h-9.0312v47.703h-8.5938v6.9844h8.5938v3.8125q0 9.125 4.25 13.297 4.25 4.1875 13.469 4.1875z"/>
</defs>
<use xlink:href="#n"/>
<use x="61.181641" xlink:href="#ar"/>
</g>
</g>
<g clip-path="url(#a)">
<g transform="translate(234.99 410.03) scale(.1 -.1)">
<use xlink:href="#t"/>
<use x="39.208984" xlink:href="#q"/>
<use x="102.587891" xlink:href="#e"/>
</g>
</g>
<g clip-path="url(#a)">
<g transform="translate(269.51 410.03) scale(.1 -.1)">
<defs>
<path id="v" d="m48.688 27.297q0 9.9062-4.0781 15.547t-11.203 5.6406q-7.1406 0-11.219-5.6406t-4.0781-15.547 4.0781-15.547 11.219-5.6406q7.125 0 11.203 5.6406t4.0781 15.547zm-30.578 19.094q2.8438 4.875 7.1562 7.2344 4.3281 2.375 10.328 2.375 9.9688 0 16.188-7.9062 6.2344-7.9062 6.2344-20.797t-6.2344-20.812q-6.2188-7.9062-16.188-7.9062-6 0-10.328 2.375-4.3125 2.375-7.1562 7.25v-8.2031h-9.0312v75.984h9.0312z"/>
</defs>
<use xlink:href="#s"/>
<use x="68.408203" xlink:href="#v"/>
<use x="131.884766" xlink:href="#i"/>
<use x="172.998047" xlink:href="#f"/>
<use x="234.277344" xlink:href="#q"/>
<use x="297.65625" xlink:href="#f"/>
<use x="358.935547" xlink:href="#j"/>
</g>
</g>
<g clip-path="url(#a)">
<g transform="translate(328.67 410.03) scale(.1 -.1)">
<defs>
<path id="ak" d="m9.8125 72.906h9.8594v-64.609h35.5v-8.2969h-45.359z"/>
<path id="u" d="m48.781 52.594v-8.4062q-3.8125 2.1094-7.6406 3.1562t-7.7344 1.0469q-8.75 0-13.594-5.5469-4.8281-5.5312-4.8281-15.547t4.8281-15.562q4.8438-5.5312 13.594-5.5312 3.9062 0 7.7344 1.0469t7.6406 3.1562v-8.3125q-3.7656-1.75-7.7969-2.625-4.0156-0.89062-8.5625-0.89062-12.359 0-19.641 7.7656-7.2656 7.7656-7.2656 20.953 0 13.375 7.3438 21.031 7.3594 7.6719 20.156 7.6719 4.1406 0 8.0938-0.85938 3.9531-0.84375 7.6719-2.5469z"/>
</defs>
<use xlink:href="#ak"/>
<use x="55.712891" xlink:href="#h"/>
<use x="83.496094" xlink:href="#g"/>
<use x="146.875" xlink:href="#u"/>
<use x="201.855469" xlink:href="#n"/>
<use x="263.037109" xlink:href="#k"/>
<use x="290.820312" xlink:href="#g"/>
</g>
</g>
<g clip-path="url(#a)">
<g transform="translate(395.58 410.03) scale(.1 -.1)">
<use xlink:href="#ah"/>
<use x="81.787109" xlink:href="#f"/>
<use x="143.066406" xlink:href="#ai"/>
</g>
</g>
<g clip-path="url(#a)">
<g transform="translate(450.25 410.03) scale(.1 -.1)">
<defs>
<path id="ap" d="m9.0781 75.984h9.0312v-44.875l26.812 23.578h11.469l-29-25.578 30.234-29.109h-11.719l-27.797 26.703v-26.703h-9.0312z"/>
<path id="aj" d="m45.406 46.391v29.594h8.9844v-75.984h-8.9844v8.2031q-2.8281-4.875-7.1562-7.25-4.3125-2.375-10.375-2.375-9.9062 0-16.141 7.9062-6.2188 7.9219-6.2188 20.812t6.2188 20.797q6.2344 7.9062 16.141 7.9062 6.0625 0 10.375-2.375 4.3281-2.3594 7.1562-7.2344zm-30.609-19.094q0-9.9062 4.0781-15.547t11.203-5.6406 11.219 5.6406q4.1094 5.6406 4.1094 15.547t-4.1094 15.547q-4.0938 5.6406-11.219 5.6406t-11.203-5.6406-4.0781-15.547z"/>
</defs>
<use xlink:href="#j"/>
<use x="97.412109" xlink:href="#f"/>
<use x="158.691406" xlink:href="#i"/>
<use x="199.804688" xlink:href="#ap"/>
<use x="254.089844" xlink:href="#e"/>
<use x="315.613281" xlink:href="#aj"/>
</g>
</g>
<g clip-path="url(#a)">
<g transform="translate(531.85 410.03) scale(.1 -.1)">
<use xlink:href="#v"/>
<use x="63.476562" xlink:href="#ag"/>
</g>
</g>
<g clip-path="url(#a)">
<g transform="translate(605.46 410.03) scale(.1 -.1)">
<use xlink:href="#g"/>
<use x="63.378906" xlink:href="#n"/>
</g>
</g>
<g clip-path="url(#a)">
<g transform="translate(670.22 410.03) scale(.1 -.1)">
<use xlink:href="#h"/>
<use x="27.783203" xlink:href="#g"/>
<use x="91.162109" xlink:href="#u"/>
<use x="146.142578" xlink:href="#h"/>
<use x="173.925781" xlink:href="#aj"/>
<use x="237.402344" xlink:href="#e"/>
<use x="298.925781" xlink:href="#g"/>
<use x="362.304688" xlink:href="#t"/>
</g>
</g>
<g clip-path="url(#a)">
<g transform="translate(772.23 410.03) scale(.1 -.1)">
<defs>
<path id="d" d="m10.688 12.406h10.312v-12.406h-10.312z"/>
</defs>
<use xlink:href="#d"/>
</g>
</g>
<g clip-path="url(#a)">
<g transform="translate(315.84 22.153) scale(.1 -.1)">
<defs>
<path id="c" d="m12.406 8.2969h16.109v55.625l-17.531-3.5156v8.9844l17.438 3.5156h9.8594v-64.609h16.109v-8.2969h-41.984z"/>
</defs>
<use xlink:href="#c"/>
<use x="63.623047" xlink:href="#d"/>
<use x="95.410156" xlink:href="#c"/>
</g>
</g>
<g clip-path="url(#a)">
<g transform="translate(315.84 100.42) scale(.1 -.1)">
<defs>
<path id="m" d="m19.188 8.2969h34.422v-8.2969h-46.281v8.2969q5.6094 5.8125 15.297 15.594 9.7031 9.7969 12.188 12.641 4.7344 5.3125 6.6094 9 1.8906 3.6875 1.8906 7.25 0 5.8125-4.0781 9.4688-4.0781 3.6719-10.625 3.6719-4.6406 0-9.7969-1.6094-5.1406-1.6094-11-4.8906v9.9688q5.9531 2.3906 11.125 3.6094 5.1875 1.2188 9.4844 1.2188 11.328 0 18.062-5.6719 6.7344-5.6562 6.7344-15.125 0-4.5-1.6875-8.5312-1.6719-4.0156-6.125-9.4844-1.2188-1.4219-7.7656-8.1875-6.5312-6.7656-18.453-18.922z"/>
</defs>
<use xlink:href="#c"/>
<use x="63.623047" xlink:href="#d"/>
<use x="95.410156" xlink:href="#m"/>
</g>
</g>
<g clip-path="url(#a)">
<g transform="translate(64.927 256.3) scale(.1 -.1)">
<defs>
<path id="ac" d="m10.797 72.906h38.719v-8.3125h-29.688v-17.859q2.1406 0.73438 4.2812 1.0938 2.1562 0.35938 4.3125 0.35938 12.203 0 19.328-6.6875 7.1406-6.6875 7.1406-18.109 0-11.766-7.3281-18.297-7.3281-6.5156-20.656-6.5156-4.5938 0-9.3594 0.78125-4.75 0.78125-9.8281 2.3438v9.9219q4.3906-2.3906 9.0781-3.5625t9.9062-1.1719q8.4531 0 13.375 4.4375 4.9375 4.4375 4.9375 12.062 0 7.6094-4.9375 12.047-4.9219 4.4531-13.375 4.4531-3.9531 0-7.8906-0.875-3.9219-0.875-8.0156-2.7344z"/>
</defs>
<use xlink:href="#c"/>
<use x="63.623047" xlink:href="#d"/>
<use x="95.410156" xlink:href="#ac"/>
</g>
</g>
<g clip-path="url(#a)">
<g transform="translate(190.21 178.49) scale(.1 -.1)">
<defs>
<path id="ab" d="m33.016 40.375q-6.6406 0-10.531-4.5469-3.875-4.5312-3.875-12.438 0-7.8594 3.875-12.438 3.8906-4.5625 10.531-4.5625t10.516 4.5625q3.875 4.5781 3.875 12.438 0 7.9062-3.875 12.438-3.875 4.5469-10.516 4.5469zm19.578 30.922v-8.9844q-3.7188 1.75-7.5 2.6719-3.7812 0.9375-7.5 0.9375-9.7656 0-14.922-6.5938-5.1406-6.5938-5.875-19.922 2.875 4.25 7.2188 6.5156 4.3594 2.2656 9.5781 2.2656 10.984 0 17.359-6.6719 6.375-6.6562 6.375-18.125 0-11.234-6.6406-18.031-6.6406-6.7812-17.672-6.7812-12.656 0-19.344 9.6875-6.6875 9.7031-6.6875 28.109 0 17.281 8.2031 27.562t22.016 10.281q3.7188 0 7.5-0.73438t7.8906-2.1875z"/>
</defs>
<use xlink:href="#c"/>
<use x="63.623047" xlink:href="#d"/>
<use x="95.410156" xlink:href="#ab"/>
</g>
</g>
<g clip-path="url(#a)">
<g transform="translate(397.38 333.69) scale(.1 -.1)">
<defs>
<path id="aa" d="m8.2031 72.906h46.875v-4.2031l-26.469-68.703h-10.297l24.906 64.594h-35.016z"/>
</defs>
<use xlink:href="#c"/>
<use x="63.623047" xlink:href="#d"/>
<use x="95.410156" xlink:href="#aa"/>
</g>
</g>
<g clip-path="url(#a)">
<g transform="translate(609.87 256.3) scale(.1 -.1)">
<defs>
<path id="z" d="m31.781 34.625q-7.0312 0-11.062-3.7656-4.0156-3.7656-4.0156-10.344 0-6.5938 4.0156-10.359 4.0312-3.7656 11.062-3.7656t11.078 3.7812q4.0625 3.7969 4.0625 10.344 0 6.5781-4.0312 10.344-4.0156 3.7656-11.109 3.7656zm-9.8594 4.1875q-6.3438 1.5625-9.8906 5.9062-3.5312 4.3594-3.5312 10.609 0 8.7344 6.2188 13.812 6.2344 5.0781 17.062 5.0781 10.891 0 17.094-5.0781t6.2031-13.812q0-6.25-3.5469-10.609-3.5312-4.3438-9.8281-5.9062 7.125-1.6562 11.094-6.5 3.9844-4.8281 3.9844-11.797 0-10.609-6.4688-16.281-6.4688-5.6562-18.531-5.6562-12.047 0-18.531 5.6562-6.4688 5.6719-6.4688 16.281 0 6.9688 4 11.797 4.0156 4.8438 11.141 6.5zm-3.6094 15.578q0-5.6562 3.5312-8.8281 3.5469-3.1719 9.9375-3.1719 6.3594 0 9.9375 3.1719 3.5938 3.1719 3.5938 8.8281 0 5.6719-3.5938 8.8438-3.5781 3.1719-9.9375 3.1719-6.3906 0-9.9375-3.1719-3.5312-3.1719-3.5312-8.8438z"/>
</defs>
<use xlink:href="#c"/>
<use x="63.623047" xlink:href="#d"/>
<use x="95.410156" xlink:href="#z"/>
</g>
</g>
<g clip-path="url(#a)">
<g transform="translate(603.73 333.69) scale(.1 -.1)">
<defs>
<path id="y" d="m10.984 1.5156v8.9844q3.7188-1.7656 7.5156-2.6875 3.8125-0.92188 7.4844-0.92188 9.7656 0 14.906 6.5625 5.1562 6.5625 5.8906 19.953-2.8281-4.2031-7.1875-6.4531-4.3438-2.25-9.6094-2.25-10.938 0-17.312 6.6094-6.375 6.625-6.375 18.109 0 11.219 6.6406 18 6.6406 6.7969 17.672 6.7969 12.656 0 19.312-9.7031 6.6719-9.6875 6.6719-28.141 0-17.234-8.1875-27.516-8.1719-10.281-21.984-10.281-3.7188 0-7.5312 0.73438-3.7969 0.73438-7.9062 2.2031zm19.625 30.906q6.6406 0 10.516 4.5312 3.8906 4.5469 3.8906 12.469 0 7.8594-3.8906 12.422-3.875 4.5625-10.516 4.5625t-10.516-4.5625-3.875-12.422q0-7.9219 3.875-12.469 3.875-4.5312 10.516-4.5312z"/>
</defs>
<use xlink:href="#c"/>
<use x="63.623047" xlink:href="#d"/>
<use x="95.410156" xlink:href="#y"/>
</g>
</g>
<g clip-path="url(#a)">
<g transform="translate(458.07 333.69) scale(.1 -.1)">
<defs>
<path id="af" d="m31.781 66.406q-7.6094 0-11.453-7.5-3.8281-7.4844-3.8281-22.531 0-14.984 3.8281-22.484 3.8438-7.5 11.453-7.5 7.6719 0 11.5 7.5 3.8438 7.5 3.8438 22.484 0 15.047-3.8438 22.531-3.8281 7.5-11.5 7.5zm0 7.8125q12.266 0 18.734-9.7031 6.4688-9.6875 6.4688-28.141 0-18.406-6.4688-28.109-6.4688-9.6875-18.734-9.6875-12.25 0-18.719 9.6875-6.4688 9.7031-6.4688 28.109 0 18.453 6.4688 28.141 6.4688 9.7031 18.719 9.7031z"/>
</defs>
<use xlink:href="#c"/>
<use x="63.623047" xlink:href="#d"/>
<use x="95.410156" xlink:href="#c"/>
<use x="159.033203" xlink:href="#af"/>
</g>
</g>
<g clip-path="url(#a)">
<g transform="translate(526.86 333.69) scale(.1 -.1)">
<use xlink:href="#c"/>
<use x="63.623047" xlink:href="#d"/>
<use x="95.410156" xlink:href="#c"/>
<use x="159.033203" xlink:href="#c"/>
</g>
</g>
<g clip-path="url(#a)">
<g transform="translate(679.16 333.69) scale(.1 -.1)">
<use xlink:href="#c"/>
<use x="63.623047" xlink:href="#d"/>
<use x="95.410156" xlink:href="#c"/>
<use x="159.033203" xlink:href="#m"/>
</g>
</g>
<g clip-path="url(#a)">
<g transform="translate(131.35 256.3) scale(.1 -.1)">
<defs>
<path id="ae" d="m40.578 39.312q7.0781-1.5156 11.047-6.3125 3.9844-4.7812 3.9844-11.812 0-10.781-7.4219-16.703-7.4219-5.9062-21.094-5.9062-4.5781 0-9.4375 0.90625t-10.031 2.7188v9.5156q4.0938-2.3906 8.9688-3.6094 4.8906-1.2188 10.219-1.2188 9.2656 0 14.125 3.6562t4.8594 10.641q0 6.4531-4.5156 10.078-4.5156 3.6406-12.562 3.6406h-8.5v8.1094h8.8906q7.2656 0 11.125 2.9062t3.8594 8.375q0 5.6094-3.9844 8.6094-3.9688 3.0156-11.391 3.0156-4.0625 0-8.7031-0.89062-4.6406-0.875-10.203-2.7188v8.7812q5.625 1.5625 10.531 2.3438t9.25 0.78125q11.234 0 17.766-5.1094 6.5469-5.0938 6.5469-13.781 0-6.0625-3.4688-10.234t-9.8594-5.7812z"/>
</defs>
<use xlink:href="#c"/>
<use x="63.623047" xlink:href="#d"/>
<use x="95.410156" xlink:href="#c"/>
<use x="159.033203" xlink:href="#ae"/>
</g>
</g>
<g clip-path="url(#a)">
<g transform="translate(242.71 256.3) scale(.1 -.1)">
<defs>
<path id="ad" d="m37.797 64.312-24.906-38.922h24.906zm-2.5938 8.5938h12.406v-47.516h10.406v-8.2031h-10.406v-17.188h-9.8125v17.188h-32.906v9.5156z"/>
</defs>
<use xlink:href="#c"/>
<use x="63.623047" xlink:href="#d"/>
<use x="95.410156" xlink:href="#c"/>
<use x="159.033203" xlink:href="#ad"/>
</g>
</g>
<g clip-path="url(#a)">
<g transform="translate(187.85 333.69) scale(.1 -.1)">
<use xlink:href="#c"/>
<use x="63.623047" xlink:href="#d"/>
<use x="95.410156" xlink:href="#c"/>
<use x="159.033203" xlink:href="#ac"/>
</g>
</g>
<g clip-path="url(#a)">
<g transform="translate(232.07 333.69) scale(.1 -.1)">
<use xlink:href="#c"/>
<use x="63.623047" xlink:href="#d"/>
<use x="95.410156" xlink:href="#c"/>
<use x="159.033203" xlink:href="#ab"/>
</g>
</g>
<g clip-path="url(#a)">
<g transform="translate(308.22 333.69) scale(.1 -.1)">
<use xlink:href="#c"/>
<use x="63.623047" xlink:href="#d"/>
<use x="95.410156" xlink:href="#c"/>
<use x="159.033203" xlink:href="#aa"/>
</g>
</g>
<g clip-path="url(#a)">
<g transform="translate(114.15 333.69) scale(.1 -.1)">
<use xlink:href="#c"/>
<use x="63.623047" xlink:href="#d"/>
<use x="95.410156" xlink:href="#c"/>
<use x="159.033203" xlink:href="#z"/>
</g>
</g>
<g clip-path="url(#a)">
<g transform="translate(148.54 333.69) scale(.1 -.1)">
<use xlink:href="#c"/>
<use x="63.623047" xlink:href="#d"/>
<use x="95.410156" xlink:href="#c"/>
<use x="159.033203" xlink:href="#y"/>
</g>
</g>
<g clip-path="url(#a)">
<g transform="translate(40.455 333.69) scale(.1 -.1)">
<use xlink:href="#c"/>
<use x="63.623047" xlink:href="#d"/>
<use x="95.410156" xlink:href="#m"/>
<use x="159.033203" xlink:href="#af"/>
</g>
</g>
<g clip-path="url(#a)">
<g transform="translate(60.108 333.69) scale(.1 -.1)">
<use xlink:href="#c"/>
<use x="63.623047" xlink:href="#d"/>
<use x="95.410156" xlink:href="#m"/>
<use x="159.033203" xlink:href="#c"/>
</g>
</g>
<g clip-path="url(#a)">
<g transform="translate(84.673 333.69) scale(.1 -.1)">
<use xlink:href="#c"/>
<use x="63.623047" xlink:href="#d"/>
<use x="95.410156" xlink:href="#m"/>
<use x="159.033203" xlink:href="#m"/>
</g>
</g>
<g clip-path="url(#a)">
<g transform="translate(25.716 333.69) scale(.1 -.1)">
<use xlink:href="#c"/>
<use x="63.623047" xlink:href="#d"/>
<use x="95.410156" xlink:href="#m"/>
<use x="159.033203" xlink:href="#ae"/>
</g>
</g>
<g clip-path="url(#a)">
<g transform="translate(762.69 333.69) scale(.1 -.1)">
<use xlink:href="#c"/>
<use x="63.623047" xlink:href="#d"/>
<use x="95.410156" xlink:href="#m"/>
<use x="159.033203" xlink:href="#ad"/>
</g>
</g>
<defs>
<clipPath id="a">
<rect width="810.67" height="426.67"/>
</clipPath>
</defs>
</svg>
