<?xml version="1.0" encoding="UTF-8"?>
<!DOCTYPE svg  PUBLIC '-//W3C//DTD SVG 1.1//EN'  'http://www.w3.org/Graphics/SVG/1.1/DTD/svg11.dtd'>
<svg width="1773.3pt" height="933.33pt" version="1.1" viewBox="0 0 1773.3 933.33" xmlns="http://www.w3.org/2000/svg" xmlns:xlink="http://www.w3.org/1999/xlink">
<metadata>
<rdf:RDF xmlns:cc="http://creativecommons.org/ns#" xmlns:dc="http://purl.org/dc/elements/1.1/" xmlns:rdf="http://www.w3.org/1999/02/22-rdf-syntax-ns#">
<cc:Work>
<dc:type rdf:resource="http://purl.org/dc/dcmitype/StillImage"/>
<dc:date>2021-03-24T07:25:50.786231</dc:date>
<dc:format>image/svg+xml</dc:format>
<dc:creator>
<cc:Agent>
<dc:title>Matplotlib v3.3.3, https://matplotlib.org/</dc:title>
</cc:Agent>
</dc:creator>
</cc:Work>
</rdf:RDF>
</metadata>
<defs>
<style type="text/css">*{stroke-linecap:butt;stroke-linejoin:round;}</style>
</defs>
<path d="m0 933.33h1773.3v-933.33h-1773.3z" fill="#fff"/>
<g fill="none" stroke="#000">
<path d="m434.77 42.424-354.17 729.61" clip-path="url(#a)"/>
<path d="m434.77 42.424-153.55 244.46" clip-path="url(#a)"/>
<path d="m434.77 42.424 307.65 729.61" clip-path="url(#a)"/>
<path d="m434.77 42.424 200.07 122.33" clip-path="url(#a)"/>
<path d="m80.606 772.03v118.88" clip-path="url(#a)"/>
<path d="m281.22 286.88-159.84 121.88" clip-path="url(#a)"/>
<path d="m281.22 286.88 12.715 485.15" clip-path="url(#a)"/>
<path d="m281.22 286.88 165.93 243.46" clip-path="url(#a)"/>
<path d="m281.22 286.88-18.8 485.15" clip-path="url(#a)"/>
<path d="m742.42 772.03v118.88" clip-path="url(#a)"/>
<path d="m634.84 164.76 1057.9 122.13" clip-path="url(#a)"/>
<path d="m634.84 164.76 165.77 607.28" clip-path="url(#a)"/>
<path d="m634.84 164.76 381.2 122.13" clip-path="url(#a)"/>
<path d="m634.84 164.76-546.96 607.28" clip-path="url(#a)" stroke-dasharray="3.7,1.6"/>
<path d="m800.61 772.03v118.88" clip-path="url(#a)"/>
<path d="m1016 286.88-154.82 485.15" clip-path="url(#a)"/>
<path d="m1016 286.88-91.793 485.15" clip-path="url(#a)"/>
<path d="m1016 286.88 7.601 364.62" clip-path="url(#a)"/>
<path d="m1016 286.88 239.02 121.88" clip-path="url(#a)"/>
<path d="m861.21 772.03v118.88" clip-path="url(#a)"/>
<path d="m924.24 772.03v118.88" clip-path="url(#a)"/>
<path d="m1023.6 651.5-33.939 120.53" clip-path="url(#a)"/>
<path d="m1023.6 651.5 33.939 120.53" clip-path="url(#a)"/>
<path d="m1255.1 408.77-127.17 363.27" clip-path="url(#a)"/>
<path d="m1255.1 408.77-54.444 363.27" clip-path="url(#a)"/>
<path d="m1255.1 408.77 20.707 363.27" clip-path="url(#a)"/>
<path d="m1255.1 408.77 160.91 121.57" clip-path="url(#a)"/>
<path d="m1127.9 772.03v118.88" clip-path="url(#a)"/>
<path d="m1200.6 772.03v118.88" clip-path="url(#a)"/>
<path d="m1275.8 772.03v118.88" clip-path="url(#a)"/>
<path d="m1416 530.34-140.2 241.69" clip-path="url(#a)" stroke-dasharray="3.7,1.6"/>
<path d="m1416 530.34 276.77 121.16" clip-path="url(#a)"/>
<path d="m1416 530.34-62.626 241.69" clip-path="url(#a)"/>
<path d="m1416 530.34 17.374 241.69" clip-path="url(#a)"/>
<path d="m1416 530.34 185.45 121.16" clip-path="url(#a)"/>
<path d="m1353.3 772.03v118.88" clip-path="url(#a)"/>
<path d="m1433.3 772.03v118.88" clip-path="url(#a)"/>
<path d="m1601.4 651.5-85.657 120.53" clip-path="url(#a)"/>
<path d="m1601.4 651.5-0.80808 120.53" clip-path="url(#a)"/>
<path d="m1601.4 651.5 86.465 120.53" clip-path="url(#a)"/>
<path d="m1515.8 772.03v118.88" clip-path="url(#a)"/>
<path d="m1600.6 772.03v118.88" clip-path="url(#a)"/>
<path d="m989.7 772.03v118.88" clip-path="url(#a)"/>
<path d="m1057.6 772.03v118.88" clip-path="url(#a)"/>
<path d="m121.38 408.77-33.502 363.27" clip-path="url(#a)"/>
<path d="m121.38 408.77-17.744 242.74" clip-path="url(#a)"/>
<path d="m121.38 408.77 48.384 121.57" clip-path="url(#a)"/>
<path d="m121.38 408.77 2.862 363.27" clip-path="url(#a)"/>
<path d="m293.94 772.03v118.88" clip-path="url(#a)"/>
<path d="m447.15 530.34-119.27 241.69" clip-path="url(#a)"/>
<path d="m447.15 530.34-63.515 241.69" clip-path="url(#a)"/>
<path d="m447.15 530.34-2.9091 241.69" clip-path="url(#a)"/>
<path d="m447.15 530.34 40.727 241.69" clip-path="url(#a)"/>
<path d="m447.15 530.34 144.97 121.16" clip-path="url(#a)"/>
<path d="m327.88 772.03v118.88" clip-path="url(#a)"/>
<path d="m383.64 772.03-19.394 118.88" clip-path="url(#a)"/>
<path d="m383.64 772.03 19.394 118.88" clip-path="url(#a)"/>
<path d="m444.24 772.03v118.88" clip-path="url(#a)"/>
<path d="m487.88 772.03v118.88" clip-path="url(#a)"/>
<path d="m592.12 651.5-58.182 120.53" clip-path="url(#a)"/>
<path d="m592.12 651.5-9.697 120.53" clip-path="url(#a)"/>
<path d="m592.12 651.5 67.879 120.53" clip-path="url(#a)"/>
<path d="m533.94 772.03v118.88" clip-path="url(#a)"/>
<path d="m582.42 772.03v118.88" clip-path="url(#a)"/>
<path d="m660 772.03-26.667 118.88" clip-path="url(#a)"/>
<path d="m660 772.03 26.667 118.88" clip-path="url(#a)"/>
<path d="m87.879 772.03v118.88" clip-path="url(#a)"/>
<path d="m103.64 651.5-6.0606 120.53" clip-path="url(#a)"/>
<path d="m103.64 651.5 6.0606 120.53" clip-path="url(#a)"/>
<path d="m169.76 530.34-28.552 241.69" clip-path="url(#a)"/>
<path d="m169.76 530.34-9.1582 241.69" clip-path="url(#a)"/>
<path d="m169.76 530.34 37.71 121.16" clip-path="url(#a)"/>
<path d="m141.21 772.03v118.88" clip-path="url(#a)"/>
<path d="m160.61 772.03v118.88" clip-path="url(#a)"/>
<path d="m207.47 651.5-25.051 120.53" clip-path="url(#a)"/>
<path d="m207.47 651.5-0.80808 120.53" clip-path="url(#a)"/>
<path d="m207.47 651.5 25.859 120.53" clip-path="url(#a)"/>
<path d="m182.42 772.03v118.88" clip-path="url(#a)"/>
<path d="m206.67 772.03v118.88" clip-path="url(#a)"/>
<path d="m233.33 772.03v118.88" clip-path="url(#a)"/>
<path d="m97.576 772.03v118.88" clip-path="url(#a)"/>
<path d="m109.7 772.03v118.88" clip-path="url(#a)"/>
<path d="m124.24 772.03v118.88" clip-path="url(#a)"/>
<path d="m262.42 772.03v118.88" clip-path="url(#a)"/>
<path d="m1687.9 772.03v118.88" clip-path="url(#a)"/>
</g>
<path d="m262.36 411.97 1.9465-4.01q1.0481-2.1591-1.111-3.2071l-6.9652-3.3811q-2.1591-1.0481-3.2071 1.111l-1.9465 4.01q-1.0481 2.1591 1.111 3.2071l6.9652 3.3811q2.1591 1.0481 3.2071-1.111z" clip-path="url(#a)" fill="#fff" stroke="#fff"/>
<g clip-path="url(#a)">
<g transform="translate(258.7 410.2) rotate(-64.107) scale(.08 -.08)">
<defs>
<path id="y" d="m9.8125 72.906h9.8594v-64.609h35.5v-8.2969h-45.359z"/>
</defs>
<use xlink:href="#y"/>
</g>
</g>
<path d="m361.71 170.54 3.2-5.0946q1.2766-2.0323-0.75579-3.3089l-6.5564-4.1182q-2.0323-1.2766-3.3089 0.75579l-3.2 5.0946q-1.2766 2.0323 0.75579 3.3089l6.5564 4.1182q2.0323 1.2766 3.3089-0.75579z" clip-path="url(#a)" fill="#fff" stroke="#fff"/>
<g clip-path="url(#a)">
<g transform="translate(358.27 168.38) rotate(-57.866) scale(.08 -.08)">
<defs>
<path id="ao" d="m9.8125 72.906h9.8594v-29.891h35.844v29.891h9.8594v-72.906h-9.8594v34.719h-35.844v-34.719h-9.8594z"/>
</defs>
<use xlink:href="#ao"/>
</g>
</g>
<path d="m581.95 407.61 1.7319 4.1073q0.93249 2.2114 3.1439 1.279l7.1342-3.0082q2.2114-0.93249 1.279-3.1439l-1.7319-4.1073q-0.93249-2.2114-3.1439-1.279l-7.1342 3.0082q-2.2114 0.93249-1.279 3.1439z" clip-path="url(#a)" fill="#fff" stroke="#fff"/>
<g clip-path="url(#a)">
<g transform="translate(585.7 406.03) rotate(67.137) scale(.08 -.08)">
<use xlink:href="#y"/>
</g>
</g>
<path d="m528.97 107.37 5.1328 3.1385q2.0476 1.252 3.2996-0.79556l4.039-6.6055q1.252-2.0476-0.79556-3.2996l-5.1328-3.1385q-2.0476-1.252-3.2996 0.79556l-4.039 6.6055q-1.252 2.0476 0.79556 3.2996z" clip-path="url(#a)" fill="#fff" stroke="#fff"/>
<g clip-path="url(#a)">
<g transform="translate(531.09 103.9) rotate(31.444) scale(.08 -.08)">
<use xlink:href="#ao"/>
</g>
</g>
<path d="m74.335 814.57v33.808q0 2.4 2.4 2.4h7.7425q2.4 0 2.4-2.4v-33.808q0-2.4-2.4-2.4h-7.7425q-2.4 0-2.4 2.4z" clip-path="url(#a)" fill="#fff" stroke="#fff"/>
<g clip-path="url(#a)">
<g transform="translate(78.399 814.57) rotate(90) scale(.08 -.08)">
<defs>
<path id="k" d="m-0.29688 72.906h61.672v-8.3125h-25.875v-64.594h-9.9062v64.594h-25.891z"/>
<path id="e" d="m56.203 29.594v-4.3906h-41.312q0.59375-9.2812 5.5938-14.141t13.938-4.8594q5.1719 0 10.031 1.2656t9.6562 3.8125v-8.5q-4.8438-2.0469-9.9219-3.125t-10.297-1.0781q-13.094 0-20.734 7.6094-7.6406 7.625-7.6406 20.625 0 13.422 7.25 21.297 7.25 7.8906 19.562 7.8906 11.031 0 17.453-7.1094 6.4219-7.0938 6.4219-19.297zm-8.9844 2.6406q-0.09375 7.3594-4.125 11.75-4.0312 4.4062-10.672 4.4062-7.5156 0-12.031-4.25t-5.2031-11.969z"/>
<path id="j" d="m41.109 46.297q-1.5156 0.875-3.2969 1.2812-1.7812 0.42188-3.9219 0.42188-7.625 0-11.703-4.9531t-4.0781-14.234v-28.812h-9.0312v54.688h9.0312v-8.5q2.8438 4.9844 7.375 7.3906 4.5469 2.4219 11.047 2.4219 0.92188 0 2.0469-0.125 1.125-0.10938 2.4844-0.35938z"/>
<path id="l" d="m52 44.188q3.375 6.0625 8.0625 8.9375t11.031 2.875q8.5469 0 13.188-5.9844 4.6406-5.9688 4.6406-17v-33.016h-9.0312v32.719q0 7.8594-2.7969 11.656-2.7812 3.8125-8.4844 3.8125-6.9844 0-11.047-4.6406-4.0469-4.625-4.0469-12.641v-30.906h-9.0312v32.719q0 7.9062-2.7812 11.688t-8.5938 3.7812q-6.8906 0-10.953-4.6562-4.0469-4.6562-4.0469-12.625v-30.906h-9.0312v54.688h9.0312v-8.5q3.0781 5.0312 7.375 7.4219t10.203 2.3906q5.9688 0 10.141-3.0312 4.1719-3.0156 6.1719-8.7812z"/>
<path id="h" d="m9.4219 54.688h8.9844v-54.688h-8.9844zm0 21.297h8.9844v-11.391h-8.9844z"/>
<path id="g" d="m54.891 33.016v-33.016h-8.9844v32.719q0 7.7656-3.0312 11.609-3.0312 3.8594-9.0781 3.8594-7.2812 0-11.484-4.6406-4.2031-4.625-4.2031-12.641v-30.906h-9.0312v54.688h9.0312v-8.5q3.2344 4.9375 7.5938 7.375 4.375 2.4375 10.094 2.4375 9.4219 0 14.25-5.8281 4.8438-5.8281 4.8438-17.156z"/>
<path id="d" d="m34.281 27.484q-10.891 0-15.094-2.4844t-4.2031-8.5q0-4.7812 3.1562-7.5938 3.1562-2.7969 8.5625-2.7969 7.4844 0 12 5.2969t4.5156 14.078v2zm17.922 3.7188v-31.203h-8.9844v8.2969q-3.0781-4.9688-7.6719-7.3438t-11.234-2.375q-8.3906 0-13.359 4.7188-4.9531 4.7188-4.9531 12.625 0 9.2188 6.1719 13.906 6.1875 4.6875 18.438 4.6875h12.609v0.89062q0 6.2031-4.0781 9.5938t-11.453 3.3906q-4.6875 0-9.1406-1.125-4.4375-1.125-8.5312-3.375v8.3125q4.9219 1.9062 9.5625 2.8438 4.6406 0.95312 9.0312 0.95312 11.875 0 17.734-6.1562 5.8594-6.1406 5.8594-18.641z"/>
<path id="i" d="m9.4219 75.984h8.9844v-75.984h-8.9844z"/>
</defs>
<use xlink:href="#k"/>
<use x="44.083984" xlink:href="#e"/>
<use x="105.607422" xlink:href="#j"/>
<use x="144.970703" xlink:href="#l"/>
<use x="242.382812" xlink:href="#h"/>
<use x="270.166016" xlink:href="#g"/>
<use x="333.544922" xlink:href="#d"/>
<use x="394.824219" xlink:href="#i"/>
</g>
</g>
<path d="m202.93 354.47 4.3517-3.3182q1.9085-1.4552 0.45325-3.3637l-4.6946-6.1568q-1.4552-1.9085-3.3637-0.45325l-4.3517 3.3182q-1.9085 1.4552-0.45325 3.3637l4.6946 6.1568q1.4552 1.9085 3.3637 0.45325z" clip-path="url(#a)" fill="#fff" stroke="#fff"/>
<g clip-path="url(#a)">
<g transform="translate(200.46 351.24) rotate(-37.326) scale(.08 -.08)">
<defs>
<path id="o" d="m34.188 63.188-13.391-36.281h26.812zm-5.5781 9.7188h11.188l27.781-72.906h-10.25l-6.6406 18.703h-32.859l-6.6406-18.703h-10.406z"/>
</defs>
<use xlink:href="#o"/>
</g>
</g>
<path d="m281.25 527.21 0.12638 4.8221q0.062881 2.3992 2.4621 2.3363l7.7398-0.20286q2.3992-0.062881 2.3363-2.4621l-0.12638-4.8221q-0.062881-2.3992-2.4621-2.3363l-7.7398 0.20286q-2.3992 0.062881-2.3363 2.4621z" clip-path="url(#a)" fill="#fff" stroke="#fff"/>
<g clip-path="url(#a)">
<g transform="translate(285.31 527.11) rotate(88.499) scale(.08 -.08)">
<defs>
<path id="v" d="m19.672 64.797v-27.391h12.406q6.8906 0 10.641 3.5625 3.7656 3.5625 3.7656 10.156 0 6.5469-3.7656 10.109-3.75 3.5625-10.641 3.5625zm-9.8594 8.1094h22.266q12.266 0 18.531-5.5469 6.2812-5.5469 6.2812-16.234 0-10.797-6.2812-16.312-6.2656-5.5156-18.531-5.5156h-12.406v-29.297h-9.8594z"/>
</defs>
<use xlink:href="#v"/>
</g>
</g>
<path d="m357.46 409.88 3.082 4.5221q1.3516 1.9832 3.3348 0.63155l6.3979-4.3605q1.9832-1.3516 0.63155-3.3348l-3.082-4.5221q-1.3516-1.9832-3.3348-0.63155l-6.3979 4.3605q-1.9832 1.3516-0.63155 3.3348z" clip-path="url(#a)" fill="#fff" stroke="#fff"/>
<g clip-path="url(#a)">
<g transform="translate(360.82 407.59) rotate(55.724) scale(.08 -.08)">
<use xlink:href="#o"/>
</g>
</g>
<path d="m277.98 532.63 0.22671-5.8506q0.092931-2.3982-2.3053-2.4911l-7.7367-0.2998q-2.3982-0.092931-2.4911 2.3053l-0.22671 5.8506q-0.092931 2.3982 2.3053 2.4911l7.7367 0.2998q2.3982 0.092931 2.4911-2.3053z" clip-path="url(#a)" fill="#fff" stroke="#fff"/>
<g clip-path="url(#a)">
<g transform="translate(273.92 532.47) rotate(-87.781) scale(.08 -.08)">
<defs>
<path id="ak" d="m8.6875 72.906h9.9219v-44.297q0-11.719 4.2344-16.875 4.25-5.1406 13.781-5.1406 9.4688 0 13.719 5.1406 4.25 5.1562 4.25 16.875v44.297h9.9062v-45.516q0-14.25-7.0625-21.531-7.0469-7.2812-20.812-7.2812-13.828 0-20.891 7.2812-7.0469 7.2812-7.0469 21.531z"/>
</defs>
<use xlink:href="#ak"/>
</g>
</g>
<path d="m736.15 814.57v33.808q0 2.4 2.4 2.4h7.7425q2.4 0 2.4-2.4v-33.808q0-2.4-2.4-2.4h-7.7425q-2.4 0-2.4 2.4z" clip-path="url(#a)" fill="#fff" stroke="#fff"/>
<g clip-path="url(#a)">
<g transform="translate(740.22 814.57) rotate(90) scale(.08 -.08)">
<use xlink:href="#k"/>
<use x="44.083984" xlink:href="#e"/>
<use x="105.607422" xlink:href="#j"/>
<use x="144.970703" xlink:href="#l"/>
<use x="242.382812" xlink:href="#h"/>
<use x="270.166016" xlink:href="#g"/>
<use x="333.544922" xlink:href="#d"/>
<use x="394.824219" xlink:href="#i"/>
</g>
</g>
<path d="m1160.3 231.74 5.4364 0.6276q2.3842 0.27524 2.6594-2.1089l0.88794-7.6914q0.27524-2.3842-2.1089-2.6594l-5.4364-0.6276q-2.3842-0.27524-2.6594 2.1089l-0.88794 7.6914q-0.27524 2.3842 2.1089 2.6594z" clip-path="url(#a)" fill="#fff" stroke="#fff"/>
<g clip-path="url(#a)">
<g transform="translate(1160.8 227.7) rotate(6.5854) scale(.08 -.08)">
<use xlink:href="#o"/>
</g>
</g>
<path d="m711.04 467.72 1.2702 4.6535q0.632 2.3153 2.9473 1.6833l7.4692-2.0388q2.3153-0.632 1.6833-2.9473l-1.2702-4.6535q-0.632-2.3153-2.9473-1.6833l-7.4692 2.0388q-2.3153 0.632-1.6833 2.9473z" clip-path="url(#a)" fill="#fff" stroke="#fff"/>
<g clip-path="url(#a)">
<g transform="translate(714.96 466.65) rotate(74.732) scale(.08 -.08)">
<use xlink:href="#v"/>
</g>
</g>
<path d="m820.92 230.96 5.2116 1.6697q2.2856 0.73225 3.0178-1.5533l2.3623-7.3733q0.73225-2.2856-1.5533-3.0178l-5.2116-1.6697q-2.2856-0.73225-3.0178 1.5533l-2.3623 7.3733q-0.73225 2.2856 1.5533 3.0178z" clip-path="url(#a)" fill="#fff" stroke="#fff"/>
<g clip-path="url(#a)">
<g transform="translate(822.16 227.09) rotate(17.764) scale(.08 -.08)">
<use xlink:href="#o"/>
</g>
</g>
<path d="m364.19 474.62 3.6624-4.0663q1.6062-1.7833-0.17712-3.3895l-5.753-5.1816q-1.7833-1.6062-3.3895 0.17712l-3.6624 4.0663q-1.6062 1.7833 0.17712 3.3895l5.753 5.1816q1.7833 1.6062 3.3895-0.17712z" clip-path="url(#a)" fill="#fff" stroke="#fff"/>
<g clip-path="url(#a)">
<g transform="translate(361.17 471.91) rotate(-47.991) scale(.08 -.08)">
<use xlink:href="#o"/>
</g>
</g>
<path d="m794.33 814.57v33.808q0 2.4 2.4 2.4h7.7425q2.4 0 2.4-2.4v-33.808q0-2.4-2.4-2.4h-7.7425q-2.4 0-2.4 2.4z" clip-path="url(#a)" fill="#fff" stroke="#fff"/>
<g clip-path="url(#a)">
<g transform="translate(798.4 814.57) rotate(90) scale(.08 -.08)">
<use xlink:href="#k"/>
<use x="44.083984" xlink:href="#e"/>
<use x="105.607422" xlink:href="#j"/>
<use x="144.970703" xlink:href="#l"/>
<use x="242.382812" xlink:href="#h"/>
<use x="270.166016" xlink:href="#g"/>
<use x="333.544922" xlink:href="#d"/>
<use x="394.824219" xlink:href="#i"/>
</g>
</g>
<path d="m943.77 533.97 1.6637-5.2135q0.72965-2.2864-1.5568-3.016l-7.376-2.3539q-2.2864-0.72965-3.016 1.5568l-1.6637 5.2135q-0.72965 2.2864 1.5568 3.016l7.376 2.3539q2.2864 0.72965 3.016-1.5568z" clip-path="url(#a)" fill="#fff" stroke="#fff"/>
<g clip-path="url(#a)">
<g transform="translate(939.89 532.74) rotate(-72.301) scale(.08 -.08)">
<use xlink:href="#o"/>
</g>
</g>
<path d="m975.73 533.65 1.1452-6.0526q0.44618-2.3582-1.912-2.8043l-7.6075-1.4394q-2.3582-0.44618-2.8043 1.912l-1.1452 6.0526q-0.44618 2.3582 1.912 2.8043l7.6075 1.4394q2.3582 0.44618 2.8043-1.912z" clip-path="url(#a)" fill="#fff" stroke="#fff"/>
<g clip-path="url(#a)">
<g transform="translate(971.74 532.9) rotate(-79.286) scale(.08 -.08)">
<defs>
<path id="aw" d="m19.672 64.797v-56.688h11.922q15.094 0 22.094 6.8281 7 6.8438 7 21.594 0 14.641-7 21.453t-22.094 6.8125zm-9.8594 8.1094h20.266q21.188 0 31.094-8.8125 9.9219-8.8125 9.9219-27.562 0-18.859-9.9688-27.703-9.9531-8.8281-31.047-8.8281h-20.266z"/>
</defs>
<use xlink:href="#aw"/>
</g>
</g>
<path d="m1013.5 466.91 0.10054 4.8227q0.050021 2.3995 2.4495 2.3495l7.7408-0.16137q2.3995-0.050021 2.3495-2.4495l-0.10054-4.8227q-0.05002-2.3995-2.4495-2.3495l-7.7408 0.16137q-2.3995 0.050021-2.3495 2.4495z" clip-path="url(#a)" fill="#fff" stroke="#fff"/>
<g clip-path="url(#a)">
<g transform="translate(1017.6 466.83) rotate(88.806) scale(.08 -.08)">
<use xlink:href="#v"/>
</g>
</g>
<path d="m1130.3 352.17 4.8752 2.486q2.1381 1.0903 3.2283-1.0478l3.5173-6.8975q1.0903-2.1381-1.0478-3.2283l-4.8752-2.486q-2.1381-1.0903-3.2283 1.0478l-3.5173 6.8975q-1.0903 2.1381 1.0478 3.2283z" clip-path="url(#a)" fill="#fff" stroke="#fff"/>
<g clip-path="url(#a)">
<g transform="translate(1132.1 348.55) rotate(27.019) scale(.08 -.08)">
<use xlink:href="#o"/>
</g>
</g>
<path d="m854.94 814.57v33.808q0 2.4 2.4 2.4h7.7425q2.4 0 2.4-2.4v-33.808q0-2.4-2.4-2.4h-7.7425q-2.4 0-2.4 2.4z" clip-path="url(#a)" fill="#fff" stroke="#fff"/>
<g clip-path="url(#a)">
<g transform="translate(859 814.57) rotate(90) scale(.08 -.08)">
<use xlink:href="#k"/>
<use x="44.083984" xlink:href="#e"/>
<use x="105.607422" xlink:href="#j"/>
<use x="144.970703" xlink:href="#l"/>
<use x="242.382812" xlink:href="#h"/>
<use x="270.166016" xlink:href="#g"/>
<use x="333.544922" xlink:href="#d"/>
<use x="394.824219" xlink:href="#i"/>
</g>
</g>
<path d="m917.97 814.57v33.808q0 2.4 2.4 2.4h7.7425q2.4 0 2.4-2.4v-33.808q0-2.4-2.4-2.4h-7.7425q-2.4 0-2.4 2.4z" clip-path="url(#a)" fill="#fff" stroke="#fff"/>
<g clip-path="url(#a)">
<g transform="translate(922.03 814.57) rotate(90) scale(.08 -.08)">
<use xlink:href="#k"/>
<use x="44.083984" xlink:href="#e"/>
<use x="105.607422" xlink:href="#j"/>
<use x="144.970703" xlink:href="#l"/>
<use x="242.382812" xlink:href="#h"/>
<use x="270.166016" xlink:href="#g"/>
<use x="333.544922" xlink:href="#d"/>
<use x="394.824219" xlink:href="#i"/>
</g>
</g>
<path d="m1011.9 716.14 1.5067-5.3507q0.65051-2.3102-1.6597-2.9607l-7.4527-2.0986q-2.3102-0.65051-2.9607 1.6597l-1.5067 5.3507q-0.65051 2.3102 1.6597 2.9607l7.4527 2.0986q2.3102 0.65051 2.9607-1.6597z" clip-path="url(#a)" fill="#fff" stroke="#fff"/>
<g clip-path="url(#a)">
<g transform="translate(1008 715.04) rotate(-74.274) scale(.08 -.08)">
<defs>
<path id="u" d="m44.391 34.188q3.1719-1.0781 6.1719-4.5938t6.0312-9.6719l10.016-19.922h-10.609l-9.3125 18.703q-3.625 7.3281-7.0156 9.7188t-9.25 2.3906h-10.75v-30.812h-9.8594v72.906h22.266q12.5 0 18.656-5.2344 6.1562-5.2188 6.1562-15.766 0-6.8906-3.2031-11.438-3.2031-4.5312-9.2969-6.2812zm-24.719 30.609v-25.875h12.406q7.125 0 10.766 3.2969t3.6406 9.6875-3.6406 9.6406-10.766 3.25z"/>
</defs>
<use xlink:href="#u"/>
</g>
</g>
<path d="m1033.8 710.78 1.5141 5.3771q0.65051 2.3102 2.9607 1.6597l7.4527-2.0986q2.3102-0.65051 1.6597-2.9607l-1.5141-5.3771q-0.65051-2.3102-2.9607-1.6597l-7.4527 2.0986q-2.3102 0.65051-1.6597 2.9607z" clip-path="url(#a)" fill="#fff" stroke="#fff"/>
<g clip-path="url(#a)">
<g transform="translate(1037.7 709.68) rotate(74.274) scale(.08 -.08)">
<defs>
<path id="s" d="m64.406 67.281v-10.391q-4.9844 4.6406-10.625 6.9219-5.6406 2.2969-11.984 2.2969-12.5 0-19.141-7.6406t-6.6406-22.094q0-14.406 6.6406-22.047t19.141-7.6406q6.3438 0 11.984 2.2969t10.625 6.9375v-10.312q-5.1719-3.5156-10.969-5.2812-5.7812-1.75-12.219-1.75-16.562 0-26.094 10.125-9.5156 10.141-9.5156 27.672 0 17.578 9.5156 27.703 9.5312 10.141 26.094 10.141 6.5312 0 12.312-1.7344 5.7969-1.7344 10.875-5.2031z"/>
</defs>
<use xlink:href="#s"/>
</g>
</g>
<path d="m1196.6 594.64 1.5203-4.3428q0.793-2.2652-1.4722-3.0582l-7.3076-2.5582q-2.2652-0.793-3.0582 1.4722l-1.5203 4.3428q-0.793 2.2652 1.4722 3.0582l7.3076 2.5582q2.2652 0.793 3.0582-1.4722z" clip-path="url(#a)" fill="#fff" stroke="#fff"/>
<g clip-path="url(#a)">
<g transform="translate(1192.8 593.3) rotate(-70.706) scale(.08 -.08)">
<defs>
<path id="aa" d="m9.8125 72.906h41.891v-8.3125h-32.031v-21.484h28.906v-8.2969h-28.906v-34.812h-9.8594z"/>
</defs>
<use xlink:href="#aa"/>
</g>
</g>
<path d="m1233.7 593.83 0.74925-4.9992q0.35573-2.3735-2.0178-2.7292l-7.657-1.1476q-2.3735-0.35573-2.7292 2.0178l-0.74925 4.9992q-0.35573 2.3735 2.0178 2.7292l7.657 1.1476q2.3735 0.35573 2.7292-2.0178z" clip-path="url(#a)" fill="#fff" stroke="#fff"/>
<g clip-path="url(#a)">
<g transform="translate(1229.6 593.23) rotate(-81.476) scale(.08 -.08)">
<defs>
<path id="ad" d="m9.8125 72.906h46.094v-8.3125h-36.234v-21.578h34.719v-8.2969h-34.719v-26.422h37.109v-8.2969h-46.969z"/>
</defs>
<use xlink:href="#ad"/>
</g>
</g>
<path d="m1259 587.97 0.31791 5.5772q0.13658 2.3961 2.5327 2.2595l7.73-0.44063q2.3961-0.13658 2.2595-2.5327l-0.31791-5.5772q-0.13658-2.3961-2.5327-2.2595l-7.73 0.44063q-2.3961 0.13658-2.2595 2.5327z" clip-path="url(#a)" fill="#fff" stroke="#fff"/>
<g clip-path="url(#a)">
<g transform="translate(1263 587.74) rotate(86.738) scale(.08 -.08)">
<use xlink:href="#s"/>
</g>
</g>
<path d="m1329.7 473.03 4.0332 3.0473q1.9149 1.4468 3.3617-0.4681l4.6674-6.1775q1.4468-1.9149-0.4681-3.3617l-4.0332-3.0473q-1.9149-1.4468-3.3617 0.4681l-4.6674 6.1775q-1.4468 1.9149 0.4681 3.3617z" clip-path="url(#a)" fill="#fff" stroke="#fff"/>
<g clip-path="url(#a)">
<g transform="translate(1332.2 469.79) rotate(37.073) scale(.08 -.08)">
<use xlink:href="#ad"/>
</g>
</g>
<path d="m1121.6 814.57v33.808q0 2.4 2.4 2.4h7.7425q2.4 0 2.4-2.4v-33.808q0-2.4-2.4-2.4h-7.7425q-2.4 0-2.4 2.4z" clip-path="url(#a)" fill="#fff" stroke="#fff"/>
<g clip-path="url(#a)">
<g transform="translate(1125.7 814.57) rotate(90) scale(.08 -.08)">
<use xlink:href="#k"/>
<use x="44.083984" xlink:href="#e"/>
<use x="105.607422" xlink:href="#j"/>
<use x="144.970703" xlink:href="#l"/>
<use x="242.382812" xlink:href="#h"/>
<use x="270.166016" xlink:href="#g"/>
<use x="333.544922" xlink:href="#d"/>
<use x="394.824219" xlink:href="#i"/>
</g>
</g>
<path d="m1194.3 814.57v33.808q0 2.4 2.4 2.4h7.7425q2.4 0 2.4-2.4v-33.808q0-2.4-2.4-2.4h-7.7425q-2.4 0-2.4 2.4z" clip-path="url(#a)" fill="#fff" stroke="#fff"/>
<g clip-path="url(#a)">
<g transform="translate(1198.4 814.57) rotate(90) scale(.08 -.08)">
<use xlink:href="#k"/>
<use x="44.083984" xlink:href="#e"/>
<use x="105.607422" xlink:href="#j"/>
<use x="144.970703" xlink:href="#l"/>
<use x="242.382812" xlink:href="#h"/>
<use x="270.166016" xlink:href="#g"/>
<use x="333.544922" xlink:href="#d"/>
<use x="394.824219" xlink:href="#i"/>
</g>
</g>
<path d="m1269.5 814.57v33.808q0 2.4 2.4 2.4h7.7425q2.4 0 2.4-2.4v-33.808q0-2.4-2.4-2.4h-7.7425q-2.4 0-2.4 2.4z" clip-path="url(#a)" fill="#fff" stroke="#fff"/>
<g clip-path="url(#a)">
<g transform="translate(1273.6 814.57) rotate(90) scale(.08 -.08)">
<use xlink:href="#k"/>
<use x="44.083984" xlink:href="#e"/>
<use x="105.607422" xlink:href="#j"/>
<use x="144.970703" xlink:href="#l"/>
<use x="242.382812" xlink:href="#h"/>
<use x="270.166016" xlink:href="#g"/>
<use x="333.544922" xlink:href="#d"/>
<use x="394.824219" xlink:href="#i"/>
</g>
</g>
<path d="m1349.9 656.7 2.746-4.7337q1.2043-2.076-0.87174-3.2803l-6.6973-3.885q-2.076-1.2043-3.2803 0.87174l-2.746 4.7337q-1.2043 2.076 0.87174 3.2803l6.6973 3.885q2.076 1.2043 3.2803-0.87174z" clip-path="url(#a)" fill="#fff" stroke="#fff"/>
<g clip-path="url(#a)">
<g transform="translate(1346.4 654.66) rotate(-59.883) scale(.08 -.08)">
<use xlink:href="#o"/>
</g>
</g>
<path d="m1549.3 595.57 5.0132 2.1946q2.1986 0.96247 3.161-1.2361l3.105-7.0926q0.96247-2.1986-1.2361-3.161l-5.0132-2.1946q-2.1986-0.96247-3.161 1.2361l-3.105 7.0926q-0.96247 2.1986 1.2361 3.161z" clip-path="url(#a)" fill="#fff" stroke="#fff"/>
<g clip-path="url(#a)">
<g transform="translate(1551 591.85) rotate(23.643) scale(.08 -.08)">
<use xlink:href="#o"/>
</g>
</g>
<path d="m1390 655.45 1.3943-5.381q0.602-2.3233-1.7213-2.9253l-7.495-1.9421q-2.3233-0.602-2.9253 1.7213l-1.3943 5.381q-0.602 2.3233 1.7213 2.9253l7.495 1.9421q2.3233 0.602 2.9253-1.7213z" clip-path="url(#a)" fill="#fff" stroke="#fff"/>
<g clip-path="url(#a)">
<g transform="translate(1386.1 654.43) rotate(-75.473) scale(.08 -.08)">
<use xlink:href="#u"/>
</g>
</g>
<path d="m1418.2 649.34 0.3299 4.5894q0.17208 2.3938 2.5659 2.2217l7.7226-0.55513q2.3938-0.17208 2.2217-2.5659l-0.3299-4.5894q-0.17208-2.3938-2.5659-2.2217l-7.7226 0.55513q-2.3938 0.17208-2.2217 2.5659z" clip-path="url(#a)" fill="#fff" stroke="#fff"/>
<g clip-path="url(#a)">
<g transform="translate(1422.3 649.05) rotate(85.888) scale(.08 -.08)">
<use xlink:href="#aa"/>
</g>
</g>
<path d="m1503.1 594.78 4.2518 2.7778q2.0092 1.3127 3.3219-0.69654l4.2347-6.4818q1.3127-2.0092-0.69654-3.3219l-4.2518-2.7778q-2.0092-1.3127-3.3219 0.69654l-4.2347 6.4818q-1.3127 2.0092 0.69654 3.3219z" clip-path="url(#a)" fill="#fff" stroke="#fff"/>
<g clip-path="url(#a)">
<g transform="translate(1505.4 591.38) rotate(33.158) scale(.08 -.08)">
<defs>
<path id="au" d="m53.516 70.516v-9.625q-5.6094 2.6875-10.594 4-4.9844 1.3281-9.625 1.3281-8.0469 0-12.422-3.125t-4.375-8.8906q0-4.8438 2.9062-7.3125 2.9062-2.4531 11.016-3.9688l5.9531-1.2188q11.031-2.1094 16.281-7.4062t5.25-14.172q0-10.609-7.1094-16.078-7.0938-5.4688-20.812-5.4688-5.1719 0-11.016 1.1719-5.8281 1.1719-12.078 3.4688v10.156q6-3.3594 11.766-5.0781 5.7656-1.7031 11.328-1.7031 8.4375 0 13.031 3.3125 4.5938 3.3281 4.5938 9.4844 0 5.3594-3.2969 8.3906t-10.812 4.5469l-6.0156 1.1719q-11.031 2.1875-15.969 6.875-4.9219 4.6875-4.9219 13.047 0 9.6719 6.8125 15.234t18.766 5.5625q5.1406 0 10.453-0.9375 5.3281-0.92188 10.891-2.7656z"/>
</defs>
<use xlink:href="#au"/>
</g>
</g>
<path d="m1347.1 814.57v33.808q0 2.4 2.4 2.4h7.7425q2.4 0 2.4-2.4v-33.808q0-2.4-2.4-2.4h-7.7425q-2.4 0-2.4 2.4z" clip-path="url(#a)" fill="#fff" stroke="#fff"/>
<g clip-path="url(#a)">
<g transform="translate(1351.1 814.57) rotate(90) scale(.08 -.08)">
<use xlink:href="#k"/>
<use x="44.083984" xlink:href="#e"/>
<use x="105.607422" xlink:href="#j"/>
<use x="144.970703" xlink:href="#l"/>
<use x="242.382812" xlink:href="#h"/>
<use x="270.166016" xlink:href="#g"/>
<use x="333.544922" xlink:href="#d"/>
<use x="394.824219" xlink:href="#i"/>
</g>
</g>
<path d="m1427.1 814.57v33.808q0 2.4 2.4 2.4h7.7425q2.4 0 2.4-2.4v-33.808q0-2.4-2.4-2.4h-7.7425q-2.4 0-2.4 2.4z" clip-path="url(#a)" fill="#fff" stroke="#fff"/>
<g clip-path="url(#a)">
<g transform="translate(1431.1 814.57) rotate(90) scale(.08 -.08)">
<use xlink:href="#k"/>
<use x="44.083984" xlink:href="#e"/>
<use x="105.607422" xlink:href="#j"/>
<use x="144.970703" xlink:href="#l"/>
<use x="242.382812" xlink:href="#h"/>
<use x="270.166016" xlink:href="#g"/>
<use x="333.544922" xlink:href="#d"/>
<use x="394.824219" xlink:href="#i"/>
</g>
</g>
<path d="m1562.1 717.67 3.2201-4.5311q1.3903-1.9563-0.56602-3.3466l-6.3111-4.4851q-1.9563-1.3903-3.3466 0.56602l-3.2201 4.5311q-1.3903 1.9563 0.56602 3.3466l6.3111 4.4851q1.9563 1.3903 3.3466-0.56602z" clip-path="url(#a)" fill="#fff" stroke="#fff"/>
<g clip-path="url(#a)">
<g transform="translate(1558.8 715.31) rotate(-54.6) scale(.08 -.08)">
<use xlink:href="#u"/>
</g>
</g>
<path d="m1607.3 714.6 0.037452-5.5861q0.01609-2.3999-2.3839-2.416l-7.7423-0.051907q-2.3999-0.016091-2.416 2.3839l-0.037452 5.5861q-0.01609 2.3999 2.3839 2.416l7.7423 0.051908q2.3999 0.01609 2.416-2.3839z" clip-path="url(#a)" fill="#fff" stroke="#fff"/>
<g clip-path="url(#a)">
<g transform="translate(1603.2 714.58) rotate(-89.616) scale(.08 -.08)">
<use xlink:href="#s"/>
</g>
</g>
<path d="m1637.8 713.04 3.4129 4.7575q1.399 1.9501 3.3491 0.55116l6.2911-4.5131q1.9501-1.399 0.55116-3.3491l-3.4129-4.7575q-1.399-1.9501-3.3491-0.55116l-6.2911 4.5131q-1.9501 1.399-0.55116 3.3491z" clip-path="url(#a)" fill="#fff" stroke="#fff"/>
<g clip-path="url(#a)">
<g transform="translate(1641.1 710.68) rotate(54.345) scale(.08 -.08)">
<use xlink:href="#ak"/>
</g>
</g>
<path d="m1509.5 814.57v33.808q0 2.4 2.4 2.4h7.7425q2.4 0 2.4-2.4v-33.808q0-2.4-2.4-2.4h-7.7425q-2.4 0-2.4 2.4z" clip-path="url(#a)" fill="#fff" stroke="#fff"/>
<g clip-path="url(#a)">
<g transform="translate(1513.6 814.57) rotate(90) scale(.08 -.08)">
<use xlink:href="#k"/>
<use x="44.083984" xlink:href="#e"/>
<use x="105.607422" xlink:href="#j"/>
<use x="144.970703" xlink:href="#l"/>
<use x="242.382812" xlink:href="#h"/>
<use x="270.166016" xlink:href="#g"/>
<use x="333.544922" xlink:href="#d"/>
<use x="394.824219" xlink:href="#i"/>
</g>
</g>
<path d="m1594.3 814.57v33.808q0 2.4 2.4 2.4h7.7425q2.4 0 2.4-2.4v-33.808q0-2.4-2.4-2.4h-7.7425q-2.4 0-2.4 2.4z" clip-path="url(#a)" fill="#fff" stroke="#fff"/>
<g clip-path="url(#a)">
<g transform="translate(1598.4 814.57) rotate(90) scale(.08 -.08)">
<use xlink:href="#k"/>
<use x="44.083984" xlink:href="#e"/>
<use x="105.607422" xlink:href="#j"/>
<use x="144.970703" xlink:href="#l"/>
<use x="242.382812" xlink:href="#h"/>
<use x="270.166016" xlink:href="#g"/>
<use x="333.544922" xlink:href="#d"/>
<use x="394.824219" xlink:href="#i"/>
</g>
</g>
<path d="m983.43 814.57v33.808q0 2.4 2.4 2.4h7.7425q2.4 0 2.4-2.4v-33.808q0-2.4-2.4-2.4h-7.7425q-2.4 0-2.4 2.4z" clip-path="url(#a)" fill="#fff" stroke="#fff"/>
<g clip-path="url(#a)">
<g transform="translate(987.49 814.57) rotate(90) scale(.08 -.08)">
<use xlink:href="#k"/>
<use x="44.083984" xlink:href="#e"/>
<use x="105.607422" xlink:href="#j"/>
<use x="144.970703" xlink:href="#l"/>
<use x="242.382812" xlink:href="#h"/>
<use x="270.166016" xlink:href="#g"/>
<use x="333.544922" xlink:href="#d"/>
<use x="394.824219" xlink:href="#i"/>
</g>
</g>
<path d="m1051.3 814.57v33.808q0 2.4 2.4 2.4h7.7425q2.4 0 2.4-2.4v-33.808q0-2.4-2.4-2.4h-7.7425q-2.4 0-2.4 2.4z" clip-path="url(#a)" fill="#fff" stroke="#fff"/>
<g clip-path="url(#a)">
<g transform="translate(1055.4 814.57) rotate(90) scale(.08 -.08)">
<use xlink:href="#k"/>
<use x="44.083984" xlink:href="#e"/>
<use x="105.607422" xlink:href="#j"/>
<use x="144.970703" xlink:href="#l"/>
<use x="242.382812" xlink:href="#h"/>
<use x="270.166016" xlink:href="#g"/>
<use x="333.544922" xlink:href="#d"/>
<use x="394.824219" xlink:href="#i"/>
</g>
</g>
<path d="m110.62 593.76 0.51301-5.5626q0.2204-2.3899-2.1695-2.6103l-7.7098-0.71102q-2.3899-0.2204-2.6103 2.1695l-0.51301 5.5626q-0.2204 2.3899 2.1695 2.6103l7.7098 0.71102q2.3899 0.2204 2.6103-2.1695z" clip-path="url(#a)" fill="#fff" stroke="#fff"/>
<g clip-path="url(#a)">
<g transform="translate(106.57 593.38) rotate(-84.731) scale(.08 -.08)">
<use xlink:href="#s"/>
</g>
</g>
<path d="m118.58 533.11 0.36854-5.0415q0.17497-2.3936-2.2186-2.5686l-7.7219-0.56447q-2.3936-0.17497-2.5686 2.2186l-0.36854 5.0415q-0.17497 2.3936 2.2186 2.5686l7.7219 0.56447q2.3936 0.17497 2.5686-2.2186z" clip-path="url(#a)" fill="#fff" stroke="#fff"/>
<g clip-path="url(#a)">
<g transform="translate(114.53 532.82) rotate(-85.819) scale(.08 -.08)">
<use xlink:href="#ad"/>
</g>
</g>
<path d="m138.81 469.52 1.8692 4.6967q0.88745 2.2299 3.1173 1.3424l7.1937-2.8629q2.2299-0.88745 1.3424-3.1173l-1.8692-4.6967q-0.88745-2.2299-3.1173-1.3424l-7.1937 2.8629q-2.2299 0.88745-1.3424 3.1173z" clip-path="url(#a)" fill="#fff" stroke="#fff"/>
<g clip-path="url(#a)">
<g transform="translate(142.59 468.02) rotate(68.299) scale(.08 -.08)">
<use xlink:href="#ad"/>
</g>
</g>
<path d="m116.52 587.52 0.046127 5.8548q0.018907 2.3999 2.4188 2.381l7.7423-0.060996q2.3999-0.018908 2.381-2.4188l-0.046126-5.8548q-0.018908-2.3999-2.4188-2.381l-7.7423 0.060997q-2.3999 0.018907-2.381 2.4188z" clip-path="url(#a)" fill="#fff" stroke="#fff"/>
<g clip-path="url(#a)">
<g transform="translate(120.58 587.49) rotate(89.549) scale(.08 -.08)">
<use xlink:href="#ak"/>
</g>
</g>
<path d="m287.67 814.57v33.808q0 2.4 2.4 2.4h7.7425q2.4 0 2.4-2.4v-33.808q0-2.4-2.4-2.4h-7.7425q-2.4 0-2.4 2.4z" clip-path="url(#a)" fill="#fff" stroke="#fff"/>
<g clip-path="url(#a)">
<g transform="translate(291.73 814.57) rotate(90) scale(.08 -.08)">
<use xlink:href="#k"/>
<use x="44.083984" xlink:href="#e"/>
<use x="105.607422" xlink:href="#j"/>
<use x="144.970703" xlink:href="#l"/>
<use x="242.382812" xlink:href="#h"/>
<use x="270.166016" xlink:href="#g"/>
<use x="333.544922" xlink:href="#d"/>
<use x="394.824219" xlink:href="#i"/>
</g>
</g>
<path d="m391.91 656.45 2.46-4.9848q1.0621-2.1522-1.0901-3.2143l-6.9431-3.4263q-2.1522-1.0621-3.2143 1.0901l-2.46 4.9848q-1.0621 2.1522 1.0901 3.2143l6.9431 3.4263q2.1522 1.0621 3.2143-1.0901z" clip-path="url(#a)" fill="#fff" stroke="#fff"/>
<g clip-path="url(#a)">
<g transform="translate(388.26 654.66) rotate(-63.734) scale(.08 -.08)">
<use xlink:href="#u"/>
</g>
</g>
<path d="m420.76 655.43 1.3909-5.2928q0.60999-2.3212-1.7112-2.9312l-7.4882-1.9679q-2.3212-0.60999-2.9312 1.7112l-1.3909 5.2928q-0.60999 2.3212 1.7112 2.9312l7.4882 1.9679q2.3212 0.60999 2.9312-1.7112z" clip-path="url(#a)" fill="#fff" stroke="#fff"/>
<g clip-path="url(#a)">
<g transform="translate(416.83 654.39) rotate(-75.276) scale(.08 -.08)">
<use xlink:href="#o"/>
</g>
</g>
<path d="m451.94 653.56 0.055379-4.6009q0.028885-2.3998-2.3709-2.4287l-7.7419-0.093185q-2.3998-0.028885-2.4287 2.3709l-0.055378 4.6009q-0.028885 2.3998 2.3709 2.4287l7.7419 0.093185q2.3998 0.028885 2.4287-2.3709z" clip-path="url(#a)" fill="#fff" stroke="#fff"/>
<g clip-path="url(#a)">
<g transform="translate(447.88 653.51) rotate(-89.31) scale(.08 -.08)">
<use xlink:href="#aa"/>
</g>
</g>
<path d="m460.93 649.85 0.80154 4.7567q0.3988 2.3666 2.7654 1.9678l7.6349-1.2865q2.3666-0.3988 1.9678-2.7654l-0.80154-4.7567q-0.3988-2.3666-2.7654-1.9678l-7.6349 1.2865q-2.3666 0.3988-1.9678 2.7654z" clip-path="url(#a)" fill="#fff" stroke="#fff"/>
<g clip-path="url(#a)">
<g transform="translate(464.94 649.18) rotate(80.435) scale(.08 -.08)">
<use xlink:href="#v"/>
</g>
</g>
<path d="m513.52 593.98 4.199 3.5095q1.8415 1.5391 3.3806-0.30242l4.9652-5.9408q1.5391-1.8415-0.30242-3.3806l-4.199-3.5095q-1.8415-1.5391-3.3806 0.30242l-4.9652 5.9408q-1.5391 1.8415 0.30242 3.3806z" clip-path="url(#a)" fill="#fff" stroke="#fff"/>
<g clip-path="url(#a)">
<g transform="translate(516.12 590.86) rotate(39.888) scale(.08 -.08)">
<use xlink:href="#o"/>
</g>
</g>
<path d="m321.61 814.57v33.808q0 2.4 2.4 2.4h7.7425q2.4 0 2.4-2.4v-33.808q0-2.4-2.4-2.4h-7.7425q-2.4 0-2.4 2.4z" clip-path="url(#a)" fill="#fff" stroke="#fff"/>
<g clip-path="url(#a)">
<g transform="translate(325.67 814.57) rotate(90) scale(.08 -.08)">
<use xlink:href="#k"/>
<use x="44.083984" xlink:href="#e"/>
<use x="105.607422" xlink:href="#j"/>
<use x="144.970703" xlink:href="#l"/>
<use x="242.382812" xlink:href="#h"/>
<use x="270.166016" xlink:href="#g"/>
<use x="333.544922" xlink:href="#d"/>
<use x="394.824219" xlink:href="#i"/>
</g>
</g>
<path d="m377.41 849.16 5.4435-33.366q0.38644-2.3687-1.9822-2.7551l-7.6415-1.2467q-2.3687-0.38644-2.7551 1.9822l-5.4435 33.366q-0.38644 2.3687 1.9822 2.7551l7.6415 1.2467q2.3687 0.38644 2.7551-1.9822z" clip-path="url(#a)" fill="#fff" stroke="#fff"/>
<g clip-path="url(#a)">
<g transform="translate(373.4 848.51) rotate(-80.734) scale(.08 -.08)">
<use xlink:href="#k"/>
<use x="44.083984" xlink:href="#e"/>
<use x="105.607422" xlink:href="#j"/>
<use x="144.970703" xlink:href="#l"/>
<use x="242.382812" xlink:href="#h"/>
<use x="270.166016" xlink:href="#g"/>
<use x="333.544922" xlink:href="#d"/>
<use x="394.824219" xlink:href="#i"/>
</g>
</g>
<path d="m384.42 815.8 5.4435 33.366q0.38644 2.3687 2.7551 1.9822l7.6415-1.2467q2.3687-0.38644 1.9822-2.7551l-5.4435-33.366q-0.38644-2.3687-2.7551-1.9822l-7.6415 1.2467q-2.3687 0.38644-1.9822 2.7551z" clip-path="url(#a)" fill="#fff" stroke="#fff"/>
<g clip-path="url(#a)">
<g transform="translate(388.43 815.14) rotate(80.734) scale(.08 -.08)">
<use xlink:href="#k"/>
<use x="44.083984" xlink:href="#e"/>
<use x="105.607422" xlink:href="#j"/>
<use x="144.970703" xlink:href="#l"/>
<use x="242.382812" xlink:href="#h"/>
<use x="270.166016" xlink:href="#g"/>
<use x="333.544922" xlink:href="#d"/>
<use x="394.824219" xlink:href="#i"/>
</g>
</g>
<path d="m437.97 814.57v33.808q0 2.4 2.4 2.4h7.7425q2.4 0 2.4-2.4v-33.808q0-2.4-2.4-2.4h-7.7425q-2.4 0-2.4 2.4z" clip-path="url(#a)" fill="#fff" stroke="#fff"/>
<g clip-path="url(#a)">
<g transform="translate(442.03 814.57) rotate(90) scale(.08 -.08)">
<use xlink:href="#k"/>
<use x="44.083984" xlink:href="#e"/>
<use x="105.607422" xlink:href="#j"/>
<use x="144.970703" xlink:href="#l"/>
<use x="242.382812" xlink:href="#h"/>
<use x="270.166016" xlink:href="#g"/>
<use x="333.544922" xlink:href="#d"/>
<use x="394.824219" xlink:href="#i"/>
</g>
</g>
<path d="m481.61 814.57v33.808q0 2.4 2.4 2.4h7.7425q2.4 0 2.4-2.4v-33.808q0-2.4-2.4-2.4h-7.7425q-2.4 0-2.4 2.4z" clip-path="url(#a)" fill="#fff" stroke="#fff"/>
<g clip-path="url(#a)">
<g transform="translate(485.67 814.57) rotate(90) scale(.08 -.08)">
<use xlink:href="#k"/>
<use x="44.083984" xlink:href="#e"/>
<use x="105.607422" xlink:href="#j"/>
<use x="144.970703" xlink:href="#l"/>
<use x="242.382812" xlink:href="#h"/>
<use x="270.166016" xlink:href="#g"/>
<use x="333.544922" xlink:href="#d"/>
<use x="394.824219" xlink:href="#i"/>
</g>
</g>
<path d="m567.47 717 2.4165-5.006q1.0433-2.1614-1.118-3.2047l-6.9726-3.3658q-2.1614-1.0433-3.2047 1.118l-2.4165 5.006q-1.0433 2.1614 1.118 3.2047l6.9726 3.3658q2.1614 1.0433 3.2047-1.118z" clip-path="url(#a)" fill="#fff" stroke="#fff"/>
<g clip-path="url(#a)">
<g transform="translate(563.81 715.23) rotate(-64.233) scale(.08 -.08)">
<use xlink:href="#u"/>
</g>
</g>
<path d="m593.34 714.56 0.36899-4.5864q0.19246-2.3923-2.1998-2.5847l-7.7176-0.6209q-2.3923-0.19246-2.5847 2.1998l-0.36899 4.5864q-0.19246 2.3923 2.1998 2.5847l7.7176 0.6209q2.3923 0.19246 2.5847-2.1998z" clip-path="url(#a)" fill="#fff" stroke="#fff"/>
<g clip-path="url(#a)">
<g transform="translate(589.29 714.24) rotate(-85.4) scale(.08 -.08)">
<use xlink:href="#aa"/>
</g>
</g>
<path d="m619.23 712.41 2.7412 4.8674q1.1777 2.0912 3.2689 0.91349l6.7462-3.7993q2.0912-1.1777 0.91349-3.2689l-2.7412-4.8674q-1.1777-2.0912-3.2689-0.91349l-6.7462 3.7993q-2.0912 1.1777-0.91349 3.2689z" clip-path="url(#a)" fill="#fff" stroke="#fff"/>
<g clip-path="url(#a)">
<g transform="translate(622.77 710.42) rotate(60.613) scale(.08 -.08)">
<use xlink:href="#s"/>
</g>
</g>
<path d="m527.67 814.57v33.808q0 2.4 2.4 2.4h7.7425q2.4 0 2.4-2.4v-33.808q0-2.4-2.4-2.4h-7.7425q-2.4 0-2.4 2.4z" clip-path="url(#a)" fill="#fff" stroke="#fff"/>
<g clip-path="url(#a)">
<g transform="translate(531.73 814.57) rotate(90) scale(.08 -.08)">
<use xlink:href="#k"/>
<use x="44.083984" xlink:href="#e"/>
<use x="105.607422" xlink:href="#j"/>
<use x="144.970703" xlink:href="#l"/>
<use x="242.382812" xlink:href="#h"/>
<use x="270.166016" xlink:href="#g"/>
<use x="333.544922" xlink:href="#d"/>
<use x="394.824219" xlink:href="#i"/>
</g>
</g>
<path d="m576.15 814.57v33.808q0 2.4 2.4 2.4h7.7425q2.4 0 2.4-2.4v-33.808q0-2.4-2.4-2.4h-7.7425q-2.4 0-2.4 2.4z" clip-path="url(#a)" fill="#fff" stroke="#fff"/>
<g clip-path="url(#a)">
<g transform="translate(580.22 814.57) rotate(90) scale(.08 -.08)">
<use xlink:href="#k"/>
<use x="44.083984" xlink:href="#e"/>
<use x="105.607422" xlink:href="#j"/>
<use x="144.970703" xlink:href="#l"/>
<use x="242.382812" xlink:href="#h"/>
<use x="270.166016" xlink:href="#g"/>
<use x="333.544922" xlink:href="#d"/>
<use x="394.824219" xlink:href="#i"/>
</g>
</g>
<path d="m649.09 849.34 7.3999-32.988q0.52532-2.3418-1.8165-2.8671l-7.5548-1.6947q-2.3418-0.52532-2.8671 1.8165l-7.3999 32.988q-0.52532 2.3418 1.8165 2.8671l7.5548 1.6947q2.3418 0.52532 2.8671-1.8165z" clip-path="url(#a)" fill="#fff" stroke="#fff"/>
<g clip-path="url(#a)">
<g transform="translate(645.12 848.45) rotate(-77.357) scale(.08 -.08)">
<use xlink:href="#k"/>
<use x="44.083984" xlink:href="#e"/>
<use x="105.607422" xlink:href="#j"/>
<use x="144.970703" xlink:href="#l"/>
<use x="242.382812" xlink:href="#h"/>
<use x="270.166016" xlink:href="#g"/>
<use x="333.544922" xlink:href="#d"/>
<use x="394.824219" xlink:href="#i"/>
</g>
</g>
<path d="m663.51 816.35 7.3999 32.988q0.52532 2.3418 2.8671 1.8165l7.5548-1.6947q2.3418-0.52532 1.8165-2.8671l-7.3999-32.988q-0.52532-2.3418-2.8671-1.8165l-7.5548 1.6947q-2.3418 0.52532-1.8165 2.8671z" clip-path="url(#a)" fill="#fff" stroke="#fff"/>
<g clip-path="url(#a)">
<g transform="translate(667.48 815.46) rotate(77.357) scale(.08 -.08)">
<use xlink:href="#k"/>
<use x="44.083984" xlink:href="#e"/>
<use x="105.607422" xlink:href="#j"/>
<use x="144.970703" xlink:href="#l"/>
<use x="242.382812" xlink:href="#h"/>
<use x="270.166016" xlink:href="#g"/>
<use x="333.544922" xlink:href="#d"/>
<use x="394.824219" xlink:href="#i"/>
</g>
</g>
<path d="m81.608 814.57v33.808q0 2.4 2.4 2.4h7.7425q2.4 0 2.4-2.4v-33.808q0-2.4-2.4-2.4h-7.7425q-2.4 0-2.4 2.4z" clip-path="url(#a)" fill="#fff" stroke="#fff"/>
<g clip-path="url(#a)">
<g transform="translate(85.671 814.57) rotate(90) scale(.08 -.08)">
<use xlink:href="#k"/>
<use x="44.083984" xlink:href="#e"/>
<use x="105.607422" xlink:href="#j"/>
<use x="144.970703" xlink:href="#l"/>
<use x="242.382812" xlink:href="#h"/>
<use x="270.166016" xlink:href="#g"/>
<use x="333.544922" xlink:href="#d"/>
<use x="394.824219" xlink:href="#i"/>
</g>
</g>
<path d="m106.73 714.86 0.27916-5.5517q0.12053-2.397-2.2764-2.5175l-7.7327-0.38882q-2.397-0.12053-2.5175 2.2764l-0.27916 5.5517q-0.12053 2.397 2.2764 2.5175l7.7327 0.38882q2.397 0.12053 2.5175-2.2764z" clip-path="url(#a)" fill="#fff" stroke="#fff"/>
<g clip-path="url(#a)">
<g transform="translate(102.67 714.65) rotate(-87.121) scale(.08 -.08)">
<use xlink:href="#u"/>
</g>
</g>
<path d="m100.26 709.29 0.28054 5.5792q0.12053 2.397 2.5175 2.2764l7.7327-0.38882q2.397-0.12053 2.2764-2.5175l-0.28054-5.5792q-0.12053-2.397-2.5175-2.2764l-7.7327 0.38882q-2.397 0.12053-2.2764 2.5175z" clip-path="url(#a)" fill="#fff" stroke="#fff"/>
<g clip-path="url(#a)">
<g transform="translate(104.32 709.09) rotate(87.121) scale(.08 -.08)">
<use xlink:href="#s"/>
</g>
</g>
<path d="m161.45 654.21 0.53981-4.5695q0.28156-2.3834-2.1019-2.665l-7.689-0.90834q-2.3834-0.28156-2.665 2.1019l-0.53981 4.5695q-0.28156 2.3834 2.1019 2.665l7.689 0.90834q2.3834 0.28156 2.665-2.1019z" clip-path="url(#a)" fill="#fff" stroke="#fff"/>
<g clip-path="url(#a)">
<g transform="translate(157.41 653.73) rotate(-83.263) scale(.08 -.08)">
<use xlink:href="#aa"/>
</g>
</g>
<path d="m171.33 657.92 0.49192-12.982q0.090876-2.3983-2.3074-2.4892l-7.9943-0.30292q-2.3983-0.090876-2.4892 2.3074l-0.49191 12.982q-0.090876 2.3983 2.3074 2.4892l7.9943 0.30292q2.3983 0.090876 2.4892-2.3074z" clip-path="url(#a)" fill="#fff" stroke="#fff"/>
<g clip-path="url(#a)">
<g transform="translate(167.05 657.76) rotate(-87.83) scale(.08 -.08)">
<defs>
<path id="ay" d="m21 76.422v-100h-8.2969v100z"/>
</defs>
<use xlink:href="#o"/>
<use x="68.408203" xlink:href="#ay"/>
<use x="102.099609" xlink:href="#v"/>
</g>
</g>
<path d="m181.82 590.17 1.6263 5.2253q0.71323 2.2916 3.0048 1.5783l7.3927-2.3009q2.2916-0.71323 1.5783-3.0048l-1.6263-5.2253q-0.71323-2.2916-3.0048-1.5783l-7.3927 2.3009q-2.2916 0.71323-1.5783 3.0048z" clip-path="url(#a)" fill="#fff" stroke="#fff"/>
<g clip-path="url(#a)">
<g transform="translate(185.7 588.97) rotate(72.712) scale(.08 -.08)">
<use xlink:href="#o"/>
</g>
</g>
<path d="m134.94 814.57v33.808q0 2.4 2.4 2.4h7.7425q2.4 0 2.4-2.4v-33.808q0-2.4-2.4-2.4h-7.7425q-2.4 0-2.4 2.4z" clip-path="url(#a)" fill="#fff" stroke="#fff"/>
<g clip-path="url(#a)">
<g transform="translate(139 814.57) rotate(90) scale(.08 -.08)">
<use xlink:href="#k"/>
<use x="44.083984" xlink:href="#e"/>
<use x="105.607422" xlink:href="#j"/>
<use x="144.970703" xlink:href="#l"/>
<use x="242.382812" xlink:href="#h"/>
<use x="270.166016" xlink:href="#g"/>
<use x="333.544922" xlink:href="#d"/>
<use x="394.824219" xlink:href="#i"/>
</g>
</g>
<path d="m154.33 814.57v33.808q0 2.4 2.4 2.4h7.7425q2.4 0 2.4-2.4v-33.808q0-2.4-2.4-2.4h-7.7425q-2.4 0-2.4 2.4z" clip-path="url(#a)" fill="#fff" stroke="#fff"/>
<g clip-path="url(#a)">
<g transform="translate(158.4 814.57) rotate(90) scale(.08 -.08)">
<use xlink:href="#k"/>
<use x="44.083984" xlink:href="#e"/>
<use x="105.607422" xlink:href="#j"/>
<use x="144.970703" xlink:href="#l"/>
<use x="242.382812" xlink:href="#h"/>
<use x="270.166016" xlink:href="#g"/>
<use x="333.544922" xlink:href="#d"/>
<use x="394.824219" xlink:href="#i"/>
</g>
</g>
<path d="m200.52 715.77 1.1311-5.4424q0.48837-2.3498-1.8614-2.8382l-7.5805-1.5755q-2.3498-0.48837-2.8382 1.8614l-1.1311 5.4424q-0.48837 2.3498 1.8614 2.8382l7.5805 1.5755q2.3498 0.48837 2.8382-1.8614z" clip-path="url(#a)" fill="#fff" stroke="#fff"/>
<g clip-path="url(#a)">
<g transform="translate(196.55 714.94) rotate(-78.259) scale(.08 -.08)">
<use xlink:href="#u"/>
</g>
</g>
<path d="m213.33 714.11 0.030848-4.6011q0.01609-2.3999-2.3839-2.416l-7.7423-0.051907q-2.3999-0.016091-2.416 2.3839l-0.030848 4.6011q-0.01609 2.3999 2.3839 2.416l7.7423 0.051908q2.3999 0.01609 2.416-2.3839z" clip-path="url(#a)" fill="#fff" stroke="#fff"/>
<g clip-path="url(#a)">
<g transform="translate(209.26 714.08) rotate(-89.616) scale(.08 -.08)">
<use xlink:href="#aa"/>
</g>
</g>
<path d="m213.69 710.35 1.1718 5.462q0.50344 2.3466 2.85 1.8432l7.5702-1.6241q2.3466-0.50344 1.8432-2.85l-1.1718-5.462q-0.50344-2.3466-2.85-1.8432l-7.5702 1.6241q-2.3466 0.50344-1.8432 2.85z" clip-path="url(#a)" fill="#fff" stroke="#fff"/>
<g clip-path="url(#a)">
<g transform="translate(217.66 709.5) rotate(77.891) scale(.08 -.08)">
<use xlink:href="#s"/>
</g>
</g>
<path d="m176.15 814.57v33.808q0 2.4 2.4 2.4h7.7425q2.4 0 2.4-2.4v-33.808q0-2.4-2.4-2.4h-7.7425q-2.4 0-2.4 2.4z" clip-path="url(#a)" fill="#fff" stroke="#fff"/>
<g clip-path="url(#a)">
<g transform="translate(180.22 814.57) rotate(90) scale(.08 -.08)">
<use xlink:href="#k"/>
<use x="44.083984" xlink:href="#e"/>
<use x="105.607422" xlink:href="#j"/>
<use x="144.970703" xlink:href="#l"/>
<use x="242.382812" xlink:href="#h"/>
<use x="270.166016" xlink:href="#g"/>
<use x="333.544922" xlink:href="#d"/>
<use x="394.824219" xlink:href="#i"/>
</g>
</g>
<path d="m200.4 814.57v33.808q0 2.4 2.4 2.4h7.7425q2.4 0 2.4-2.4v-33.808q0-2.4-2.4-2.4h-7.7425q-2.4 0-2.4 2.4z" clip-path="url(#a)" fill="#fff" stroke="#fff"/>
<g clip-path="url(#a)">
<g transform="translate(204.46 814.57) rotate(90) scale(.08 -.08)">
<use xlink:href="#k"/>
<use x="44.083984" xlink:href="#e"/>
<use x="105.607422" xlink:href="#j"/>
<use x="144.970703" xlink:href="#l"/>
<use x="242.382812" xlink:href="#h"/>
<use x="270.166016" xlink:href="#g"/>
<use x="333.544922" xlink:href="#d"/>
<use x="394.824219" xlink:href="#i"/>
</g>
</g>
<path d="m227.06 814.57v33.808q0 2.4 2.4 2.4h7.7425q2.4 0 2.4-2.4v-33.808q0-2.4-2.4-2.4h-7.7425q-2.4 0-2.4 2.4z" clip-path="url(#a)" fill="#fff" stroke="#fff"/>
<g clip-path="url(#a)">
<g transform="translate(231.13 814.57) rotate(90) scale(.08 -.08)">
<use xlink:href="#k"/>
<use x="44.083984" xlink:href="#e"/>
<use x="105.607422" xlink:href="#j"/>
<use x="144.970703" xlink:href="#l"/>
<use x="242.382812" xlink:href="#h"/>
<use x="270.166016" xlink:href="#g"/>
<use x="333.544922" xlink:href="#d"/>
<use x="394.824219" xlink:href="#i"/>
</g>
</g>
<path d="m91.305 814.57v33.808q0 2.4 2.4 2.4h7.7425q2.4 0 2.4-2.4v-33.808q0-2.4-2.4-2.4h-7.7425q-2.4 0-2.4 2.4z" clip-path="url(#a)" fill="#fff" stroke="#fff"/>
<g clip-path="url(#a)">
<g transform="translate(95.368 814.57) rotate(90) scale(.08 -.08)">
<use xlink:href="#k"/>
<use x="44.083984" xlink:href="#e"/>
<use x="105.607422" xlink:href="#j"/>
<use x="144.970703" xlink:href="#l"/>
<use x="242.382812" xlink:href="#h"/>
<use x="270.166016" xlink:href="#g"/>
<use x="333.544922" xlink:href="#d"/>
<use x="394.824219" xlink:href="#i"/>
</g>
</g>
<path d="m103.43 814.57v33.808q0 2.4 2.4 2.4h7.7425q2.4 0 2.4-2.4v-33.808q0-2.4-2.4-2.4h-7.7425q-2.4 0-2.4 2.4z" clip-path="url(#a)" fill="#fff" stroke="#fff"/>
<g clip-path="url(#a)">
<g transform="translate(107.49 814.57) rotate(90) scale(.08 -.08)">
<use xlink:href="#k"/>
<use x="44.083984" xlink:href="#e"/>
<use x="105.607422" xlink:href="#j"/>
<use x="144.970703" xlink:href="#l"/>
<use x="242.382812" xlink:href="#h"/>
<use x="270.166016" xlink:href="#g"/>
<use x="333.544922" xlink:href="#d"/>
<use x="394.824219" xlink:href="#i"/>
</g>
</g>
<path d="m117.97 814.57v33.808q0 2.4 2.4 2.4h7.7425q2.4 0 2.4-2.4v-33.808q0-2.4-2.4-2.4h-7.7425q-2.4 0-2.4 2.4z" clip-path="url(#a)" fill="#fff" stroke="#fff"/>
<g clip-path="url(#a)">
<g transform="translate(122.03 814.57) rotate(90) scale(.08 -.08)">
<use xlink:href="#k"/>
<use x="44.083984" xlink:href="#e"/>
<use x="105.607422" xlink:href="#j"/>
<use x="144.970703" xlink:href="#l"/>
<use x="242.382812" xlink:href="#h"/>
<use x="270.166016" xlink:href="#g"/>
<use x="333.544922" xlink:href="#d"/>
<use x="394.824219" xlink:href="#i"/>
</g>
</g>
<path d="m256.15 814.57v33.808q0 2.4 2.4 2.4h7.7425q2.4 0 2.4-2.4v-33.808q0-2.4-2.4-2.4h-7.7425q-2.4 0-2.4 2.4z" clip-path="url(#a)" fill="#fff" stroke="#fff"/>
<g clip-path="url(#a)">
<g transform="translate(260.22 814.57) rotate(90) scale(.08 -.08)">
<use xlink:href="#k"/>
<use x="44.083984" xlink:href="#e"/>
<use x="105.607422" xlink:href="#j"/>
<use x="144.970703" xlink:href="#l"/>
<use x="242.382812" xlink:href="#h"/>
<use x="270.166016" xlink:href="#g"/>
<use x="333.544922" xlink:href="#d"/>
<use x="394.824219" xlink:href="#i"/>
</g>
</g>
<path d="m1681.6 814.57v33.808q0 2.4 2.4 2.4h7.7425q2.4 0 2.4-2.4v-33.808q0-2.4-2.4-2.4h-7.7425q-2.4 0-2.4 2.4z" clip-path="url(#a)" fill="#fff" stroke="#fff"/>
<g clip-path="url(#a)">
<g transform="translate(1685.7 814.57) rotate(90) scale(.08 -.08)">
<use xlink:href="#k"/>
<use x="44.083984" xlink:href="#e"/>
<use x="105.607422" xlink:href="#j"/>
<use x="144.970703" xlink:href="#l"/>
<use x="242.382812" xlink:href="#h"/>
<use x="270.166016" xlink:href="#g"/>
<use x="333.544922" xlink:href="#d"/>
<use x="394.824219" xlink:href="#i"/>
</g>
</g>
<defs>
<path id="b" d="m0 8.6603c2.2967 0 4.4997-0.9125 6.1237-2.5365 1.624-1.624 2.5365-3.827 2.5365-6.1237s-0.9125-4.4997-2.5365-6.1237c-1.624-1.624-3.827-2.5365-6.1237-2.5365s-4.4997 0.9125-6.1237 2.5365c-1.624 1.624-2.5365 3.827-2.5365 6.1237s0.9125 4.4997 2.5365 6.1237c1.624 1.624 3.827 2.5365 6.1237 2.5365z"/>
</defs>
<g clip-path="url(#a)" fill="#ffffff" stroke="#ffffff">
<use x="80.606061" y="890.909091" xlink:href="#b"/>
<use x="87.878788" y="890.909091" xlink:href="#b"/>
<use x="97.575758" y="890.909091" xlink:href="#b"/>
<use x="109.69697" y="890.909091" xlink:href="#b"/>
<use x="124.242424" y="890.909091" xlink:href="#b"/>
<use x="141.212121" y="890.909091" xlink:href="#b"/>
<use x="160.606061" y="890.909091" xlink:href="#b"/>
<use x="182.424242" y="890.909091" xlink:href="#b"/>
<use x="206.666667" y="890.909091" xlink:href="#b"/>
<use x="233.333333" y="890.909091" xlink:href="#b"/>
<use x="262.424242" y="890.909091" xlink:href="#b"/>
<use x="293.939394" y="890.909091" xlink:href="#b"/>
<use x="327.878788" y="890.909091" xlink:href="#b"/>
<use x="364.242424" y="890.909091" xlink:href="#b"/>
<use x="403.030303" y="890.909091" xlink:href="#b"/>
<use x="444.242424" y="890.909091" xlink:href="#b"/>
<use x="487.878788" y="890.909091" xlink:href="#b"/>
<use x="533.939394" y="890.909091" xlink:href="#b"/>
<use x="582.424242" y="890.909091" xlink:href="#b"/>
<use x="633.333333" y="890.909091" xlink:href="#b"/>
<use x="686.666667" y="890.909091" xlink:href="#b"/>
<use x="742.424242" y="890.909091" xlink:href="#b"/>
<use x="800.606061" y="890.909091" xlink:href="#b"/>
<use x="861.212121" y="890.909091" xlink:href="#b"/>
<use x="924.242424" y="890.909091" xlink:href="#b"/>
<use x="989.69697" y="890.909091" xlink:href="#b"/>
<use x="1057.575758" y="890.909091" xlink:href="#b"/>
<use x="1127.878788" y="890.909091" xlink:href="#b"/>
<use x="1200.606061" y="890.909091" xlink:href="#b"/>
<use x="1275.757576" y="890.909091" xlink:href="#b"/>
<use x="1353.333333" y="890.909091" xlink:href="#b"/>
<use x="1433.333333" y="890.909091" xlink:href="#b"/>
<use x="1515.757576" y="890.909091" xlink:href="#b"/>
<use x="1600.606061" y="890.909091" xlink:href="#b"/>
<use x="1687.878788" y="890.909091" xlink:href="#b"/>
<use x="1692.727273" y="286.884284" xlink:href="#b"/>
<use x="1692.727273" y="651.502906" xlink:href="#b"/>
<use x="434.773569" y="42.424242" xlink:href="#b"/>
<use x="80.606061" y="772.032848" xlink:href="#b"/>
<use x="281.223906" y="286.884284" xlink:href="#b"/>
<use x="742.424242" y="772.032848" xlink:href="#b"/>
<use x="634.840067" y="164.756596" xlink:href="#b"/>
<use x="800.606061" y="772.032848" xlink:href="#b"/>
<use x="1016.035354" y="286.884284" xlink:href="#b"/>
<use x="861.212121" y="772.032848" xlink:href="#b"/>
<use x="924.242424" y="772.032848" xlink:href="#b"/>
<use x="1023.636364" y="651.502906" xlink:href="#b"/>
<use x="1255.050505" y="408.766317" xlink:href="#b"/>
<use x="1127.878788" y="772.032848" xlink:href="#b"/>
<use x="1200.606061" y="772.032848" xlink:href="#b"/>
<use x="1275.757576" y="772.032848" xlink:href="#b"/>
<use x="1415.959596" y="530.340794" xlink:href="#b"/>
<use x="1353.333333" y="772.032848" xlink:href="#b"/>
<use x="1433.333333" y="772.032848" xlink:href="#b"/>
<use x="1601.414141" y="651.502906" xlink:href="#b"/>
<use x="1515.757576" y="772.032848" xlink:href="#b"/>
<use x="1600.606061" y="772.032848" xlink:href="#b"/>
<use x="989.69697" y="772.032848" xlink:href="#b"/>
<use x="1057.575758" y="772.032848" xlink:href="#b"/>
<use x="121.380471" y="408.766317" xlink:href="#b"/>
<use x="293.939394" y="772.032848" xlink:href="#b"/>
<use x="447.151515" y="530.340794" xlink:href="#b"/>
<use x="327.878788" y="772.032848" xlink:href="#b"/>
<use x="383.636364" y="772.032848" xlink:href="#b"/>
<use x="444.242424" y="772.032848" xlink:href="#b"/>
<use x="487.878788" y="772.032848" xlink:href="#b"/>
<use x="592.121212" y="651.502906" xlink:href="#b"/>
<use x="533.939394" y="772.032848" xlink:href="#b"/>
<use x="582.424242" y="772.032848" xlink:href="#b"/>
<use x="660" y="772.032848" xlink:href="#b"/>
<use x="87.878788" y="772.032848" xlink:href="#b"/>
<use x="103.636364" y="651.502906" xlink:href="#b"/>
<use x="169.76431" y="530.340794" xlink:href="#b"/>
<use x="141.212121" y="772.032848" xlink:href="#b"/>
<use x="160.606061" y="772.032848" xlink:href="#b"/>
<use x="207.474747" y="651.502906" xlink:href="#b"/>
<use x="182.424242" y="772.032848" xlink:href="#b"/>
<use x="206.666667" y="772.032848" xlink:href="#b"/>
<use x="233.333333" y="772.032848" xlink:href="#b"/>
<use x="97.575758" y="772.032848" xlink:href="#b"/>
<use x="109.69697" y="772.032848" xlink:href="#b"/>
<use x="124.242424" y="772.032848" xlink:href="#b"/>
<use x="262.424242" y="772.032848" xlink:href="#b"/>
<use x="1687.878788" y="772.032848" xlink:href="#b"/>
</g>
<g clip-path="url(#a)">
<g transform="translate(72.047 893.67) scale(.1 -.1)">
<defs>
<path id="ax" d="m19.672 34.812v-26.703h15.828q7.9531 0 11.781 3.2969 3.8438 3.2969 3.8438 10.078 0 6.8438-3.8438 10.078-3.8281 3.25-11.781 3.25zm0 29.984v-21.969h14.609q7.2188 0 10.75 2.7031 3.5469 2.7188 3.5469 8.2812 0 5.5156-3.5469 8.25-3.5312 2.7344-10.75 2.7344zm-9.8594 8.1094h25.203q11.281 0 17.375-4.6875 6.1094-4.6875 6.1094-13.328 0-6.7031-3.125-10.656t-9.1875-4.9219q7.2812-1.5625 11.312-6.5312 4.0312-4.9531 4.0312-12.375 0-9.7656-6.6406-15.094-6.6406-5.3125-18.906-5.3125h-26.172z"/>
<path id="aq" d="m8.5 21.578v33.109h8.9844v-32.766q0-7.7656 3.0156-11.656 3.0312-3.875 9.0938-3.875 7.2656 0 11.484 4.6406 4.2344 4.6406 4.2344 12.656v31h8.9844v-54.688h-8.9844v8.4062q-3.2656-4.9844-7.5938-7.4062-4.3125-2.4219-10.031-2.4219-9.4219 0-14.312 5.8594-4.875 5.8594-4.875 17.141z"/>
<path id="r" d="m18.312 70.219v-15.531h18.5v-6.9844h-18.5v-29.688q0-6.6875 1.8281-8.5938t7.4531-1.9062h9.2188v-7.5156h-9.2188q-10.406 0-14.359 3.875-3.9531 3.8906-3.9531 14.141v29.688h-6.5938v6.9844h6.5938v15.531z"/>
</defs>
<use xlink:href="#ax"/>
<use x="68.603516" xlink:href="#aq"/>
<use x="131.982422" xlink:href="#r"/>
</g>
</g>
<g clip-path="url(#a)">
<g transform="translate(78.574 893.67) scale(.1 -.1)">
<defs>
<path id="w" d="m30.609 48.391q-7.2188 0-11.422-5.6406t-4.2031-15.453 4.1719-15.453q4.1875-5.6406 11.453-5.6406 7.1875 0 11.375 5.6562 4.2031 5.6719 4.2031 15.438 0 9.7188-4.2031 15.406-4.1875 5.6875-11.375 5.6875zm0 7.6094q11.719 0 18.406-7.625 6.7031-7.6094 6.7031-21.078 0-13.422-6.7031-21.078-6.6875-7.6406-18.406-7.6406-11.766 0-18.438 7.6406-6.6562 7.6562-6.6562 21.078 0 13.469 6.6562 21.078 6.6719 7.625 18.438 7.625z"/>
</defs>
<use xlink:href="#w"/>
<use x="61.181641" xlink:href="#g"/>
<use x="124.560547" xlink:href="#e"/>
</g>
</g>
<g clip-path="url(#a)">
<g transform="translate(92.756 893.67) scale(.1 -.1)">
<defs>
<path id="at" d="m37.109 75.984v-7.4844h-8.5938q-4.8281 0-6.7188-1.9531-1.875-1.9531-1.875-7.0312v-4.8281h14.797v-6.9844h-14.797v-47.703h-9.0312v47.703h-8.5938v6.9844h8.5938v3.8125q0 9.125 4.25 13.297 4.25 4.1875 13.469 4.1875z"/>
</defs>
<use xlink:href="#w"/>
<use x="61.181641" xlink:href="#at"/>
</g>
</g>
<g clip-path="url(#a)">
<g transform="translate(96.621 893.67) scale(.1 -.1)">
<defs>
<path id="q" d="m54.891 33.016v-33.016h-8.9844v32.719q0 7.7656-3.0312 11.609-3.0312 3.8594-9.0781 3.8594-7.2812 0-11.484-4.6406-4.2031-4.625-4.2031-12.641v-30.906h-9.0312v75.984h9.0312v-29.797q3.2344 4.9375 7.5938 7.375 4.375 2.4375 10.094 2.4375 9.4219 0 14.25-5.8281 4.8438-5.8281 4.8438-17.156z"/>
</defs>
<use xlink:href="#r"/>
<use x="39.208984" xlink:href="#q"/>
<use x="102.587891" xlink:href="#e"/>
<use x="164.111328" xlink:href="#l"/>
</g>
</g>
<g clip-path="url(#a)">
<g transform="translate(122.65 893.67) scale(.1 -.1)">
<defs>
<path id="ap" d="m11.719 12.406h10.297v-8.4062l-8-15.625h-6.2969l4 15.625z"/>
</defs>
<use xlink:href="#ap"/>
</g>
</g>
<g clip-path="url(#a)">
<g transform="translate(133.01 893.67) scale(.1 -.1)">
<use xlink:href="#r"/>
<use x="39.208984" xlink:href="#q"/>
<use x="102.587891" xlink:href="#e"/>
</g>
</g>
<g clip-path="url(#a)">
<g transform="translate(142.04 893.67) scale(.1 -.1)">
<defs>
<path id="an" d="m48.781 52.594v-8.4062q-3.8125 2.1094-7.6406 3.1562t-7.7344 1.0469q-8.75 0-13.594-5.5469-4.8281-5.5312-4.8281-15.547t4.8281-15.562q4.8438-5.5312 13.594-5.5312 3.9062 0 7.7344 1.0469t7.6406 3.1562v-8.3125q-3.7656-1.75-7.7969-2.625-4.0156-0.89062-8.5625-0.89062-12.359 0-19.641 7.7656-7.2656 7.7656-7.2656 20.953 0 13.375 7.3438 21.031 7.3594 7.6719 20.156 7.6719 4.1406 0 8.0938-0.85938 3.9531-0.84375 7.6719-2.5469z"/>
<path id="ai" d="m18.109 8.2031v-29h-9.0312v75.484h9.0312v-8.2969q2.8438 4.875 7.1562 7.2344 4.3281 2.375 10.328 2.375 9.9688 0 16.188-7.9062 6.2344-7.9062 6.2344-20.797t-6.2344-20.812q-6.2188-7.9062-16.188-7.9062-6 0-10.328 2.375-4.3125 2.375-7.1562 7.25zm30.578 19.094q0 9.9062-4.0781 15.547t-11.203 5.6406q-7.1406 0-11.219-5.6406t-4.0781-15.547 4.0781-15.547 11.219-5.6406q7.125 0 11.203 5.6406t4.0781 15.547z"/>
</defs>
<use xlink:href="#an"/>
<use x="54.980469" xlink:href="#d"/>
<use x="116.259766" xlink:href="#ai"/>
<use x="179.736328" xlink:href="#r"/>
<use x="218.945312" xlink:href="#d"/>
<use x="280.224609" xlink:href="#h"/>
<use x="308.007812" xlink:href="#g"/>
</g>
</g>
<g clip-path="url(#a)">
<g transform="translate(177.6 893.67) scale(.1 -.1)">
<use xlink:href="#w"/>
<use x="61.181641" xlink:href="#at"/>
</g>
</g>
<g clip-path="url(#a)">
<g transform="translate(198.46 893.67) scale(.1 -.1)">
<use xlink:href="#r"/>
<use x="39.208984" xlink:href="#q"/>
<use x="102.587891" xlink:href="#e"/>
</g>
</g>
<g clip-path="url(#a)">
<g transform="translate(214.71 893.67) scale(.1 -.1)">
<defs>
<path id="al" d="m9.8125 72.906h14.703l18.594-49.609 18.703 49.609h14.703v-72.906h-9.625v64.016l-18.797-50h-9.9062l-18.797 50v-64.016h-9.5781z"/>
</defs>
<use xlink:href="#al"/>
<use x="86.279297" xlink:href="#w"/>
<use x="147.460938" xlink:href="#g"/>
<use x="210.839844" xlink:href="#j"/>
<use x="249.703125" xlink:href="#w"/>
<use x="310.884766" xlink:href="#e"/>
</g>
</g>
<g clip-path="url(#a)">
<g transform="translate(260.84 893.67) scale(.1 -.1)">
<use xlink:href="#ap"/>
</g>
</g>
<g clip-path="url(#a)">
<g transform="translate(280.71 893.67) scale(.1 -.1)">
<defs>
<path id="ar" d="m9.0781 75.984h9.0312v-44.875l26.812 23.578h11.469l-29-25.578 30.234-29.109h-11.719l-27.797 26.703v-26.703h-9.0312z"/>
<path id="am" d="m4.2031 54.688h8.9844l11.234-42.672 11.172 42.672h10.594l11.234-42.672 11.188 42.672h8.9844l-14.312-54.688h-10.594l-11.766 44.828-11.812-44.828h-10.609z"/>
</defs>
<use xlink:href="#ar"/>
<use x="57.910156" xlink:href="#g"/>
<use x="121.289062" xlink:href="#e"/>
<use x="182.8125" xlink:href="#am"/>
</g>
</g>
<g clip-path="url(#a)">
<g transform="translate(317.73 893.67) scale(.1 -.1)">
<use xlink:href="#r"/>
<use x="39.208984" xlink:href="#q"/>
<use x="102.587891" xlink:href="#d"/>
<use x="163.867188" xlink:href="#r"/>
</g>
</g>
<g clip-path="url(#a)">
<g transform="translate(354.25 893.67) scale(.1 -.1)">
<defs>
<path id="av" d="m9.8125 72.906h13.281l32.328-60.984v60.984h9.5625v-72.906h-13.281l-32.312 60.984v-60.984h-9.5781z"/>
<path id="x" d="m45.406 46.391v29.594h8.9844v-75.984h-8.9844v8.2031q-2.8281-4.875-7.1562-7.25-4.3125-2.375-10.375-2.375-9.9062 0-16.141 7.9062-6.2188 7.9219-6.2188 20.812t6.2188 20.797q6.2344 7.9062 16.141 7.9062 6.0625 0 10.375-2.375 4.3281-2.3594 7.1562-7.2344zm-30.609-19.094q0-9.9062 4.0781-15.547t11.203-5.6406 11.219 5.6406q4.1094 5.6406 4.1094 15.547t-4.1094 15.547q-4.0938 5.6406-11.219 5.6406t-11.203-5.6406-4.0781-15.547z"/>
</defs>
<use xlink:href="#av"/>
<use x="74.804688" xlink:href="#e"/>
<use x="136.328125" xlink:href="#x"/>
</g>
</g>
<g clip-path="url(#a)">
<g transform="translate(390.84 893.67) scale(.1 -.1)">
<use xlink:href="#y"/>
<use x="55.712891" xlink:href="#d"/>
<use x="116.992188" xlink:href="#g"/>
<use x="180.371094" xlink:href="#x"/>
</g>
</g>
<g clip-path="url(#a)">
<g transform="translate(434.84 893.67) scale(.1 -.1)">
<use xlink:href="#q"/>
<use x="63.378906" xlink:href="#d"/>
<use x="124.658203" xlink:href="#x"/>
</g>
</g>
<g clip-path="url(#a)">
<g transform="translate(468.12 893.67) scale(.1 -.1)">
<defs>
<path id="ac" d="m44.281 53.078v-8.5q-3.7969 1.9531-7.9062 2.9219-4.0938 0.98438-8.5 0.98438-6.6875 0-10.031-2.0469t-3.3438-6.1562q0-3.125 2.3906-4.9062t9.625-3.3906l3.0781-0.6875q9.5625-2.0469 13.594-5.7812t4.0312-10.422q0-7.625-6.0312-12.078-6.0312-4.4375-16.578-4.4375-4.3906 0-9.1562 0.85938t-10.031 2.5625v9.2812q4.9844-2.5938 9.8125-3.8906 4.8281-1.2812 9.5781-1.2812 6.3438 0 9.75 2.1719 3.4219 2.1719 3.4219 6.125 0 3.6562-2.4688 5.6094-2.4531 1.9531-10.812 3.7656l-3.125 0.73438q-8.3438 1.75-12.062 5.3906-3.7031 3.6406-3.7031 9.9844 0 7.7188 5.4688 11.906 5.4688 4.2031 15.531 4.2031 4.9688 0 9.3594-0.73438 4.4062-0.71875 8.1094-2.1875z"/>
</defs>
<use xlink:href="#ac"/>
<use x="52.099609" xlink:href="#q"/>
<use x="115.478516" xlink:href="#h"/>
<use x="143.261719" xlink:href="#ai"/>
<use x="206.738281" xlink:href="#ai"/>
<use x="270.214844" xlink:href="#e"/>
<use x="331.738281" xlink:href="#x"/>
</g>
</g>
<g clip-path="url(#a)">
<g transform="translate(516.44 893.67) scale(.1 -.1)">
<defs>
<path id="aj" d="m48.688 27.297q0 9.9062-4.0781 15.547t-11.203 5.6406q-7.1406 0-11.219-5.6406t-4.0781-15.547 4.0781-15.547 11.219-5.6406q7.125 0 11.203 5.6406t4.0781 15.547zm-30.578 19.094q2.8438 4.875 7.1562 7.2344 4.3281 2.375 10.328 2.375 9.9688 0 16.188-7.9062 6.2344-7.9062 6.2344-20.797t-6.2344-20.812q-6.2188-7.9062-16.188-7.9062-6 0-10.328 2.375-4.3125 2.375-7.1562 7.25v-8.2031h-9.0312v75.984h9.0312z"/>
</defs>
<use xlink:href="#d"/>
<use x="61.279297" xlink:href="#aj"/>
<use x="124.755859" xlink:href="#w"/>
<use x="185.9375" xlink:href="#d"/>
<use x="247.216797" xlink:href="#j"/>
<use x="286.580078" xlink:href="#x"/>
</g>
</g>
<g clip-path="url(#a)">
<g transform="translate(574.22 893.67) scale(.1 -.1)">
<use xlink:href="#r"/>
<use x="39.208984" xlink:href="#q"/>
<use x="102.587891" xlink:href="#e"/>
</g>
</g>
<g clip-path="url(#a)">
<g transform="translate(610.52 893.67) scale(.1 -.1)">
<use xlink:href="#o"/>
<use x="68.408203" xlink:href="#aj"/>
<use x="131.884766" xlink:href="#j"/>
<use x="172.998047" xlink:href="#d"/>
<use x="234.277344" xlink:href="#q"/>
<use x="297.65625" xlink:href="#d"/>
<use x="358.935547" xlink:href="#l"/>
</g>
</g>
<g clip-path="url(#a)">
<g transform="translate(668.96 893.67) scale(.1 -.1)">
<use xlink:href="#y"/>
<use x="55.712891" xlink:href="#h"/>
<use x="83.496094" xlink:href="#g"/>
<use x="146.875" xlink:href="#an"/>
<use x="201.855469" xlink:href="#w"/>
<use x="263.037109" xlink:href="#i"/>
<use x="290.820312" xlink:href="#g"/>
</g>
</g>
<g clip-path="url(#a)">
<g transform="translate(733.02 893.67) scale(.1 -.1)">
<use xlink:href="#d"/>
<use x="61.279297" xlink:href="#g"/>
<use x="124.658203" xlink:href="#x"/>
</g>
</g>
<g clip-path="url(#a)">
<g transform="translate(785.97 893.67) scale(.1 -.1)">
<use xlink:href="#d"/>
<use x="61.279297" xlink:href="#ac"/>
<use x="113.378906" xlink:href="#ar"/>
<use x="167.664062" xlink:href="#e"/>
<use x="229.1875" xlink:href="#x"/>
</g>
</g>
<g clip-path="url(#a)">
<g transform="translate(854.05 893.67) scale(.1 -.1)">
<use xlink:href="#q"/>
<use x="63.378906" xlink:href="#h"/>
<use x="91.162109" xlink:href="#ac"/>
</g>
</g>
<g clip-path="url(#a)">
<g transform="translate(913.43 893.67) scale(.1 -.1)">
<use xlink:href="#q"/>
<use x="63.378906" xlink:href="#e"/>
<use x="124.902344" xlink:href="#i"/>
<use x="152.685547" xlink:href="#ai"/>
</g>
</g>
<g clip-path="url(#a)">
<g transform="translate(985.14 893.67) scale(.1 -.1)">
<use xlink:href="#h"/>
<use x="27.783203" xlink:href="#g"/>
</g>
</g>
<g clip-path="url(#a)">
<g transform="translate(1038.4 893.67) scale(.1 -.1)">
<defs>
<path id="as" d="m45.406 27.984q0 9.7656-4.0312 15.125-4.0156 5.375-11.297 5.375-7.2188 0-11.25-5.375-4.0312-5.3594-4.0312-15.125 0-9.7188 4.0312-15.094t11.25-5.375q7.2812 0 11.297 5.375 4.0312 5.375 4.0312 15.094zm8.9844-21.203q0-13.953-6.2031-20.766-6.1875-6.8125-18.984-6.8125-4.7344 0-8.9375 0.70312t-8.1562 2.1719v8.7344q3.9531-2.1406 7.8125-3.1562 3.8594-1.0312 7.8594-1.0312 8.8438 0 13.234 4.6094t4.3906 13.938v4.4531q-2.7812-4.8438-7.125-7.2344t-10.406-2.3906q-10.047 0-16.203 7.6562-6.1562 7.6719-6.1562 20.328 0 12.688 6.1562 20.344 6.1562 7.6719 16.203 7.6719 6.0625 0 10.406-2.3906t7.125-7.2188v8.2969h8.9844z"/>
</defs>
<use xlink:href="#q"/>
<use x="63.378906" xlink:href="#aq"/>
<use x="126.757812" xlink:href="#g"/>
<use x="190.136719" xlink:href="#r"/>
<use x="229.345703" xlink:href="#h"/>
<use x="257.128906" xlink:href="#g"/>
<use x="320.507812" xlink:href="#as"/>
</g>
</g>
<g clip-path="url(#a)">
<g transform="translate(1124.8 893.67) scale(.1 -.1)">
<use xlink:href="#d"/>
</g>
</g>
<g clip-path="url(#a)">
<g transform="translate(1183.7 893.67) scale(.1 -.1)">
<use xlink:href="#aj"/>
<use x="63.476562" xlink:href="#d"/>
<use x="124.755859" xlink:href="#i"/>
<use x="152.539062" xlink:href="#e"/>
<use x="214.0625" xlink:href="#e"/>
<use x="275.585938" xlink:href="#g"/>
</g>
</g>
<g clip-path="url(#a)">
<g transform="translate(1261 893.67) scale(.1 -.1)">
<use xlink:href="#am"/>
<use x="81.787109" xlink:href="#q"/>
<use x="145.166016" xlink:href="#d"/>
<use x="206.445312" xlink:href="#i"/>
<use x="234.228516" xlink:href="#e"/>
</g>
</g>
<g clip-path="url(#a)">
<g transform="translate(1343.2 893.67) scale(.1 -.1)">
<use xlink:href="#r"/>
<use x="39.208984" xlink:href="#q"/>
<use x="102.587891" xlink:href="#d"/>
<use x="163.867188" xlink:href="#r"/>
</g>
</g>
<g clip-path="url(#a)">
<g transform="translate(1423.6 893.67) scale(.1 -.1)">
<use xlink:href="#am"/>
<use x="81.787109" xlink:href="#d"/>
<use x="143.066406" xlink:href="#ac"/>
</g>
</g>
<g clip-path="url(#a)">
<g transform="translate(1511.2 893.67) scale(.1 -.1)">
<use xlink:href="#h"/>
<use x="27.783203" xlink:href="#g"/>
</g>
</g>
<g clip-path="url(#a)">
<g transform="translate(1588.3 893.67) scale(.1 -.1)">
<use xlink:href="#ac"/>
<use x="52.099609" xlink:href="#h"/>
<use x="79.882812" xlink:href="#as"/>
<use x="143.359375" xlink:href="#q"/>
<use x="206.738281" xlink:href="#r"/>
</g>
</g>
<g clip-path="url(#a)">
<g transform="translate(1686.3 893.67) scale(.1 -.1)">
<defs>
<path id="f" d="m10.688 12.406h10.312v-12.406h-10.312z"/>
</defs>
<use xlink:href="#f"/>
</g>
</g>
<g clip-path="url(#a)">
<g transform="translate(1671.6 289.64) scale(.1 -.1)">
<defs>
<path id="z" d="m9.8125 72.906h9.8594v-72.906h-9.8594z"/>
</defs>
<use xlink:href="#z"/>
<use x="29.492188" xlink:href="#al"/>
<use x="115.771484" xlink:href="#v"/>
<use x="176.074219" xlink:href="#y"/>
<use x="231.787109" xlink:href="#z"/>
<use x="261.279297" xlink:href="#s"/>
<use x="331.103516" xlink:href="#z"/>
<use x="360.595703" xlink:href="#k"/>
</g>
</g>
<g clip-path="url(#a)">
<g transform="translate(1671.6 654.26) scale(.1 -.1)">
<use xlink:href="#z"/>
<use x="29.492188" xlink:href="#al"/>
<use x="115.771484" xlink:href="#v"/>
<use x="176.074219" xlink:href="#y"/>
<use x="231.787109" xlink:href="#z"/>
<use x="261.279297" xlink:href="#s"/>
<use x="331.103516" xlink:href="#z"/>
<use x="360.595703" xlink:href="#k"/>
</g>
</g>
<g clip-path="url(#a)">
<g transform="translate(426.82 45.184) scale(.1 -.1)">
<defs>
<path id="c" d="m12.406 8.2969h16.109v55.625l-17.531-3.5156v8.9844l17.438 3.5156h9.8594v-64.609h16.109v-8.2969h-41.984z"/>
</defs>
<use xlink:href="#c"/>
<use x="63.623047" xlink:href="#f"/>
<use x="95.410156" xlink:href="#c"/>
</g>
</g>
<g clip-path="url(#a)">
<g transform="translate(72.654 774.79) scale(.1 -.1)">
<defs>
<path id="n" d="m19.188 8.2969h34.422v-8.2969h-46.281v8.2969q5.6094 5.8125 15.297 15.594 9.7031 9.7969 12.188 12.641 4.7344 5.3125 6.6094 9 1.8906 3.6875 1.8906 7.25 0 5.8125-4.0781 9.4688-4.0781 3.6719-10.625 3.6719-4.6406 0-9.7969-1.6094-5.1406-1.6094-11-4.8906v9.9688q5.9531 2.3906 11.125 3.6094 5.1875 1.2188 9.4844 1.2188 11.328 0 18.062-5.6719 6.7344-5.6562 6.7344-15.125 0-4.5-1.6875-8.5312-1.6719-4.0156-6.125-9.4844-1.2188-1.4219-7.7656-8.1875-6.5312-6.7656-18.453-18.922z"/>
</defs>
<use xlink:href="#c"/>
<use x="63.623047" xlink:href="#f"/>
<use x="95.410156" xlink:href="#n"/>
</g>
</g>
<g clip-path="url(#a)">
<g transform="translate(273.27 289.64) scale(.1 -.1)">
<defs>
<path id="m" d="m40.578 39.312q7.0781-1.5156 11.047-6.3125 3.9844-4.7812 3.9844-11.812 0-10.781-7.4219-16.703-7.4219-5.9062-21.094-5.9062-4.5781 0-9.4375 0.90625t-10.031 2.7188v9.5156q4.0938-2.3906 8.9688-3.6094 4.8906-1.2188 10.219-1.2188 9.2656 0 14.125 3.6562t4.8594 10.641q0 6.4531-4.5156 10.078-4.5156 3.6406-12.562 3.6406h-8.5v8.1094h8.8906q7.2656 0 11.125 2.9062t3.8594 8.375q0 5.6094-3.9844 8.6094-3.9688 3.0156-11.391 3.0156-4.0625 0-8.7031-0.89062-4.6406-0.875-10.203-2.7188v8.7812q5.625 1.5625 10.531 2.3438t9.25 0.78125q11.234 0 17.766-5.1094 6.5469-5.0938 6.5469-13.781 0-6.0625-3.4688-10.234t-9.8594-5.7812z"/>
</defs>
<use xlink:href="#c"/>
<use x="63.623047" xlink:href="#f"/>
<use x="95.410156" xlink:href="#m"/>
</g>
</g>
<g clip-path="url(#a)">
<g transform="translate(734.47 774.79) scale(.1 -.1)">
<defs>
<path id="p" d="m37.797 64.312-24.906-38.922h24.906zm-2.5938 8.5938h12.406v-47.516h10.406v-8.2031h-10.406v-17.188h-9.8125v17.188h-32.906v9.5156z"/>
</defs>
<use xlink:href="#c"/>
<use x="63.623047" xlink:href="#f"/>
<use x="95.410156" xlink:href="#p"/>
</g>
</g>
<g clip-path="url(#a)">
<g transform="translate(626.89 167.52) scale(.1 -.1)">
<defs>
<path id="t" d="m10.797 72.906h38.719v-8.3125h-29.688v-17.859q2.1406 0.73438 4.2812 1.0938 2.1562 0.35938 4.3125 0.35938 12.203 0 19.328-6.6875 7.1406-6.6875 7.1406-18.109 0-11.766-7.3281-18.297-7.3281-6.5156-20.656-6.5156-4.5938 0-9.3594 0.78125-4.75 0.78125-9.8281 2.3438v9.9219q4.3906-2.3906 9.0781-3.5625t9.9062-1.1719q8.4531 0 13.375 4.4375 4.9375 4.4375 4.9375 12.062 0 7.6094-4.9375 12.047-4.9219 4.4531-13.375 4.4531-3.9531 0-7.8906-0.875-3.9219-0.875-8.0156-2.7344z"/>
</defs>
<use xlink:href="#c"/>
<use x="63.623047" xlink:href="#f"/>
<use x="95.410156" xlink:href="#t"/>
</g>
</g>
<g clip-path="url(#a)">
<g transform="translate(792.65 774.79) scale(.1 -.1)">
<defs>
<path id="af" d="m31.781 34.625q-7.0312 0-11.062-3.7656-4.0156-3.7656-4.0156-10.344 0-6.5938 4.0156-10.359 4.0312-3.7656 11.062-3.7656t11.078 3.7812q4.0625 3.7969 4.0625 10.344 0 6.5781-4.0312 10.344-4.0156 3.7656-11.109 3.7656zm-9.8594 4.1875q-6.3438 1.5625-9.8906 5.9062-3.5312 4.3594-3.5312 10.609 0 8.7344 6.2188 13.812 6.2344 5.0781 17.062 5.0781 10.891 0 17.094-5.0781t6.2031-13.812q0-6.25-3.5469-10.609-3.5312-4.3438-9.8281-5.9062 7.125-1.6562 11.094-6.5 3.9844-4.8281 3.9844-11.797 0-10.609-6.4688-16.281-6.4688-5.6562-18.531-5.6562-12.047 0-18.531 5.6562-6.4688 5.6719-6.4688 16.281 0 6.9688 4 11.797 4.0156 4.8438 11.141 6.5zm-3.6094 15.578q0-5.6562 3.5312-8.8281 3.5469-3.1719 9.9375-3.1719 6.3594 0 9.9375 3.1719 3.5938 3.1719 3.5938 8.8281 0 5.6719-3.5938 8.8438-3.5781 3.1719-9.9375 3.1719-6.3906 0-9.9375-3.1719-3.5312-3.1719-3.5312-8.8438z"/>
</defs>
<use xlink:href="#c"/>
<use x="63.623047" xlink:href="#f"/>
<use x="95.410156" xlink:href="#af"/>
</g>
</g>
<g clip-path="url(#a)">
<g transform="translate(1008.1 289.64) scale(.1 -.1)">
<defs>
<path id="ae" d="m10.984 1.5156v8.9844q3.7188-1.7656 7.5156-2.6875 3.8125-0.92188 7.4844-0.92188 9.7656 0 14.906 6.5625 5.1562 6.5625 5.8906 19.953-2.8281-4.2031-7.1875-6.4531-4.3438-2.25-9.6094-2.25-10.938 0-17.312 6.6094-6.375 6.625-6.375 18.109 0 11.219 6.6406 18 6.6406 6.7969 17.672 6.7969 12.656 0 19.312-9.7031 6.6719-9.6875 6.6719-28.141 0-17.234-8.1875-27.516-8.1719-10.281-21.984-10.281-3.7188 0-7.5312 0.73438-3.7969 0.73438-7.9062 2.2031zm19.625 30.906q6.6406 0 10.516 4.5312 3.8906 4.5469 3.8906 12.469 0 7.8594-3.8906 12.422-3.875 4.5625-10.516 4.5625t-10.516-4.5625-3.875-12.422q0-7.9219 3.875-12.469 3.875-4.5312 10.516-4.5312z"/>
</defs>
<use xlink:href="#c"/>
<use x="63.623047" xlink:href="#f"/>
<use x="95.410156" xlink:href="#ae"/>
</g>
</g>
<g clip-path="url(#a)">
<g transform="translate(850.08 774.79) scale(.1 -.1)">
<defs>
<path id="ab" d="m31.781 66.406q-7.6094 0-11.453-7.5-3.8281-7.4844-3.8281-22.531 0-14.984 3.8281-22.484 3.8438-7.5 11.453-7.5 7.6719 0 11.5 7.5 3.8438 7.5 3.8438 22.484 0 15.047-3.8438 22.531-3.8281 7.5-11.5 7.5zm0 7.8125q12.266 0 18.734-9.7031 6.4688-9.6875 6.4688-28.141 0-18.406-6.4688-28.109-6.4688-9.6875-18.734-9.6875-12.25 0-18.719 9.6875-6.4688 9.7031-6.4688 28.109 0 18.453 6.4688 28.141 6.4688 9.7031 18.719 9.7031z"/>
</defs>
<use xlink:href="#c"/>
<use x="63.623047" xlink:href="#f"/>
<use x="95.410156" xlink:href="#c"/>
<use x="159.033203" xlink:href="#ab"/>
</g>
</g>
<g clip-path="url(#a)">
<g transform="translate(913.11 774.79) scale(.1 -.1)">
<use xlink:href="#c"/>
<use x="63.623047" xlink:href="#f"/>
<use x="95.410156" xlink:href="#c"/>
<use x="159.033203" xlink:href="#c"/>
</g>
</g>
<g clip-path="url(#a)">
<g transform="translate(1012.5 654.26) scale(.1 -.1)">
<use xlink:href="#c"/>
<use x="63.623047" xlink:href="#f"/>
<use x="95.410156" xlink:href="#c"/>
<use x="159.033203" xlink:href="#n"/>
</g>
</g>
<g clip-path="url(#a)">
<g transform="translate(1243.9 411.53) scale(.1 -.1)">
<use xlink:href="#c"/>
<use x="63.623047" xlink:href="#f"/>
<use x="95.410156" xlink:href="#c"/>
<use x="159.033203" xlink:href="#m"/>
</g>
</g>
<g clip-path="url(#a)">
<g transform="translate(1116.7 774.79) scale(.1 -.1)">
<use xlink:href="#c"/>
<use x="63.623047" xlink:href="#f"/>
<use x="95.410156" xlink:href="#c"/>
<use x="159.033203" xlink:href="#p"/>
</g>
</g>
<g clip-path="url(#a)">
<g transform="translate(1189.5 774.79) scale(.1 -.1)">
<use xlink:href="#c"/>
<use x="63.623047" xlink:href="#f"/>
<use x="95.410156" xlink:href="#c"/>
<use x="159.033203" xlink:href="#t"/>
</g>
</g>
<g clip-path="url(#a)">
<g transform="translate(1264.6 774.79) scale(.1 -.1)">
<defs>
<path id="ah" d="m33.016 40.375q-6.6406 0-10.531-4.5469-3.875-4.5312-3.875-12.438 0-7.8594 3.875-12.438 3.8906-4.5625 10.531-4.5625t10.516 4.5625q3.875 4.5781 3.875 12.438 0 7.9062-3.875 12.438-3.875 4.5469-10.516 4.5469zm19.578 30.922v-8.9844q-3.7188 1.75-7.5 2.6719-3.7812 0.9375-7.5 0.9375-9.7656 0-14.922-6.5938-5.1406-6.5938-5.875-19.922 2.875 4.25 7.2188 6.5156 4.3594 2.2656 9.5781 2.2656 10.984 0 17.359-6.6719 6.375-6.6562 6.375-18.125 0-11.234-6.6406-18.031-6.6406-6.7812-17.672-6.7812-12.656 0-19.344 9.6875-6.6875 9.7031-6.6875 28.109 0 17.281 8.2031 27.562t22.016 10.281q3.7188 0 7.5-0.73438t7.8906-2.1875z"/>
</defs>
<use xlink:href="#c"/>
<use x="63.623047" xlink:href="#f"/>
<use x="95.410156" xlink:href="#c"/>
<use x="159.033203" xlink:href="#ah"/>
</g>
</g>
<g clip-path="url(#a)">
<g transform="translate(1404.8 533.1) scale(.1 -.1)">
<defs>
<path id="ag" d="m8.2031 72.906h46.875v-4.2031l-26.469-68.703h-10.297l24.906 64.594h-35.016z"/>
</defs>
<use xlink:href="#c"/>
<use x="63.623047" xlink:href="#f"/>
<use x="95.410156" xlink:href="#c"/>
<use x="159.033203" xlink:href="#ag"/>
</g>
</g>
<g clip-path="url(#a)">
<g transform="translate(1342.2 774.79) scale(.1 -.1)">
<use xlink:href="#c"/>
<use x="63.623047" xlink:href="#f"/>
<use x="95.410156" xlink:href="#c"/>
<use x="159.033203" xlink:href="#ae"/>
</g>
</g>
<g clip-path="url(#a)">
<g transform="translate(1422.2 774.79) scale(.1 -.1)">
<use xlink:href="#c"/>
<use x="63.623047" xlink:href="#f"/>
<use x="95.410156" xlink:href="#n"/>
<use x="159.033203" xlink:href="#ab"/>
</g>
</g>
<g clip-path="url(#a)">
<g transform="translate(1590.3 654.26) scale(.1 -.1)">
<use xlink:href="#c"/>
<use x="63.623047" xlink:href="#f"/>
<use x="95.410156" xlink:href="#n"/>
<use x="159.033203" xlink:href="#c"/>
</g>
</g>
<g clip-path="url(#a)">
<g transform="translate(1504.6 774.79) scale(.1 -.1)">
<use xlink:href="#c"/>
<use x="63.623047" xlink:href="#f"/>
<use x="95.410156" xlink:href="#n"/>
<use x="159.033203" xlink:href="#n"/>
</g>
</g>
<g clip-path="url(#a)">
<g transform="translate(1589.5 774.79) scale(.1 -.1)">
<use xlink:href="#c"/>
<use x="63.623047" xlink:href="#f"/>
<use x="95.410156" xlink:href="#n"/>
<use x="159.033203" xlink:href="#m"/>
</g>
</g>
<g clip-path="url(#a)">
<g transform="translate(978.56 774.79) scale(.1 -.1)">
<use xlink:href="#c"/>
<use x="63.623047" xlink:href="#f"/>
<use x="95.410156" xlink:href="#n"/>
<use x="159.033203" xlink:href="#p"/>
</g>
</g>
<g clip-path="url(#a)">
<g transform="translate(1046.4 774.79) scale(.1 -.1)">
<use xlink:href="#c"/>
<use x="63.623047" xlink:href="#f"/>
<use x="95.410156" xlink:href="#n"/>
<use x="159.033203" xlink:href="#t"/>
</g>
</g>
<g clip-path="url(#a)">
<g transform="translate(110.25 411.53) scale(.1 -.1)">
<use xlink:href="#c"/>
<use x="63.623047" xlink:href="#f"/>
<use x="95.410156" xlink:href="#n"/>
<use x="159.033203" xlink:href="#ah"/>
</g>
</g>
<g clip-path="url(#a)">
<g transform="translate(282.81 774.79) scale(.1 -.1)">
<use xlink:href="#c"/>
<use x="63.623047" xlink:href="#f"/>
<use x="95.410156" xlink:href="#n"/>
<use x="159.033203" xlink:href="#ag"/>
</g>
</g>
<g clip-path="url(#a)">
<g transform="translate(436.02 533.1) scale(.1 -.1)">
<use xlink:href="#c"/>
<use x="63.623047" xlink:href="#f"/>
<use x="95.410156" xlink:href="#n"/>
<use x="159.033203" xlink:href="#af"/>
</g>
</g>
<g clip-path="url(#a)">
<g transform="translate(316.75 774.79) scale(.1 -.1)">
<use xlink:href="#c"/>
<use x="63.623047" xlink:href="#f"/>
<use x="95.410156" xlink:href="#m"/>
<use x="159.033203" xlink:href="#ab"/>
</g>
</g>
<g clip-path="url(#a)">
<g transform="translate(372.5 774.79) scale(.1 -.1)">
<use xlink:href="#c"/>
<use x="63.623047" xlink:href="#f"/>
<use x="95.410156" xlink:href="#m"/>
<use x="159.033203" xlink:href="#c"/>
</g>
</g>
<g clip-path="url(#a)">
<g transform="translate(433.11 774.79) scale(.1 -.1)">
<use xlink:href="#c"/>
<use x="63.623047" xlink:href="#f"/>
<use x="95.410156" xlink:href="#m"/>
<use x="159.033203" xlink:href="#n"/>
</g>
</g>
<g clip-path="url(#a)">
<g transform="translate(476.75 774.79) scale(.1 -.1)">
<use xlink:href="#c"/>
<use x="63.623047" xlink:href="#f"/>
<use x="95.410156" xlink:href="#m"/>
<use x="159.033203" xlink:href="#m"/>
</g>
</g>
<g clip-path="url(#a)">
<g transform="translate(580.99 654.26) scale(.1 -.1)">
<use xlink:href="#c"/>
<use x="63.623047" xlink:href="#f"/>
<use x="95.410156" xlink:href="#m"/>
<use x="159.033203" xlink:href="#p"/>
</g>
</g>
<g clip-path="url(#a)">
<g transform="translate(522.81 774.79) scale(.1 -.1)">
<use xlink:href="#c"/>
<use x="63.623047" xlink:href="#f"/>
<use x="95.410156" xlink:href="#m"/>
<use x="159.033203" xlink:href="#t"/>
</g>
</g>
<g clip-path="url(#a)">
<g transform="translate(571.29 774.79) scale(.1 -.1)">
<use xlink:href="#c"/>
<use x="63.623047" xlink:href="#f"/>
<use x="95.410156" xlink:href="#m"/>
<use x="159.033203" xlink:href="#ah"/>
</g>
</g>
<g clip-path="url(#a)">
<g transform="translate(648.87 774.79) scale(.1 -.1)">
<use xlink:href="#c"/>
<use x="63.623047" xlink:href="#f"/>
<use x="95.410156" xlink:href="#m"/>
<use x="159.033203" xlink:href="#ag"/>
</g>
</g>
<g clip-path="url(#a)">
<g transform="translate(76.746 774.79) scale(.1 -.1)">
<use xlink:href="#c"/>
<use x="63.623047" xlink:href="#f"/>
<use x="95.410156" xlink:href="#m"/>
<use x="159.033203" xlink:href="#af"/>
</g>
</g>
<g clip-path="url(#a)">
<g transform="translate(92.504 654.26) scale(.1 -.1)">
<use xlink:href="#c"/>
<use x="63.623047" xlink:href="#f"/>
<use x="95.410156" xlink:href="#m"/>
<use x="159.033203" xlink:href="#ae"/>
</g>
</g>
<g clip-path="url(#a)">
<g transform="translate(158.63 533.1) scale(.1 -.1)">
<use xlink:href="#c"/>
<use x="63.623047" xlink:href="#f"/>
<use x="95.410156" xlink:href="#p"/>
<use x="159.033203" xlink:href="#ab"/>
</g>
</g>
<g clip-path="url(#a)">
<g transform="translate(130.08 774.79) scale(.1 -.1)">
<use xlink:href="#c"/>
<use x="63.623047" xlink:href="#f"/>
<use x="95.410156" xlink:href="#p"/>
<use x="159.033203" xlink:href="#n"/>
</g>
</g>
<g clip-path="url(#a)">
<g transform="translate(149.47 774.79) scale(.1 -.1)">
<use xlink:href="#c"/>
<use x="63.623047" xlink:href="#f"/>
<use x="95.410156" xlink:href="#p"/>
<use x="159.033203" xlink:href="#m"/>
</g>
</g>
<g clip-path="url(#a)">
<g transform="translate(196.34 654.26) scale(.1 -.1)">
<use xlink:href="#c"/>
<use x="63.623047" xlink:href="#f"/>
<use x="95.410156" xlink:href="#p"/>
<use x="159.033203" xlink:href="#p"/>
</g>
</g>
<g clip-path="url(#a)">
<g transform="translate(171.29 774.79) scale(.1 -.1)">
<use xlink:href="#c"/>
<use x="63.623047" xlink:href="#f"/>
<use x="95.410156" xlink:href="#p"/>
<use x="159.033203" xlink:href="#t"/>
</g>
</g>
<g clip-path="url(#a)">
<g transform="translate(195.53 774.79) scale(.1 -.1)">
<use xlink:href="#c"/>
<use x="63.623047" xlink:href="#f"/>
<use x="95.410156" xlink:href="#p"/>
<use x="159.033203" xlink:href="#ah"/>
</g>
</g>
<g clip-path="url(#a)">
<g transform="translate(222.2 774.79) scale(.1 -.1)">
<use xlink:href="#c"/>
<use x="63.623047" xlink:href="#f"/>
<use x="95.410156" xlink:href="#p"/>
<use x="159.033203" xlink:href="#ag"/>
</g>
</g>
<g clip-path="url(#a)">
<g transform="translate(86.443 774.79) scale(.1 -.1)">
<use xlink:href="#c"/>
<use x="63.623047" xlink:href="#f"/>
<use x="95.410156" xlink:href="#p"/>
<use x="159.033203" xlink:href="#af"/>
</g>
</g>
<g clip-path="url(#a)">
<g transform="translate(98.564 774.79) scale(.1 -.1)">
<use xlink:href="#c"/>
<use x="63.623047" xlink:href="#f"/>
<use x="95.410156" xlink:href="#p"/>
<use x="159.033203" xlink:href="#ae"/>
</g>
</g>
<g clip-path="url(#a)">
<g transform="translate(113.11 774.79) scale(.1 -.1)">
<use xlink:href="#c"/>
<use x="63.623047" xlink:href="#f"/>
<use x="95.410156" xlink:href="#t"/>
<use x="159.033203" xlink:href="#ab"/>
</g>
</g>
<g clip-path="url(#a)">
<g transform="translate(251.29 774.79) scale(.1 -.1)">
<use xlink:href="#c"/>
<use x="63.623047" xlink:href="#f"/>
<use x="95.410156" xlink:href="#t"/>
<use x="159.033203" xlink:href="#c"/>
</g>
</g>
<g clip-path="url(#a)">
<g transform="translate(1676.7 774.79) scale(.1 -.1)">
<use xlink:href="#c"/>
<use x="63.623047" xlink:href="#f"/>
<use x="95.410156" xlink:href="#t"/>
<use x="159.033203" xlink:href="#n"/>
</g>
</g>
<defs>
<clipPath id="a">
<rect width="1773.3" height="933.33"/>
</clipPath>
</defs>
</svg>
