<?xml version="1.0" encoding="UTF-8"?>
<!DOCTYPE svg  PUBLIC '-//W3C//DTD SVG 1.1//EN'  'http://www.w3.org/Graphics/SVG/1.1/DTD/svg11.dtd'>
<svg width="1418.7pt" height="746.67pt" version="1.1" viewBox="0 0 1418.7 746.67" xmlns="http://www.w3.org/2000/svg" xmlns:xlink="http://www.w3.org/1999/xlink">
<metadata>
<rdf:RDF xmlns:cc="http://creativecommons.org/ns#" xmlns:dc="http://purl.org/dc/elements/1.1/" xmlns:rdf="http://www.w3.org/1999/02/22-rdf-syntax-ns#">
<cc:Work>
<dc:type rdf:resource="http://purl.org/dc/dcmitype/StillImage"/>
<dc:date>2021-03-03T07:10:42.915739</dc:date>
<dc:format>image/svg+xml</dc:format>
<dc:creator>
<cc:Agent>
<dc:title>Matplotlib v3.3.3, https://matplotlib.org/</dc:title>
</cc:Agent>
</dc:creator>
</cc:Work>
</rdf:RDF>
</metadata>
<defs>
<style type="text/css">*{stroke-linecap:butt;stroke-linejoin:round;}</style>
</defs>
<path d="m0 746.67h1418.7v-746.67h-1418.7z" fill="#fff"/>
<g fill="none" stroke="#000">
<path d="m781.61 33.939v97.866" clip-path="url(#a)"/>
<path d="m781.61 131.81-644.05 97.702" clip-path="url(#a)"/>
<path d="m781.61 131.81-36.456 485.82" clip-path="url(#a)"/>
<path d="m781.61 131.81 29.223 485.82" clip-path="url(#a)"/>
<path d="m781.61 131.81 97.887 485.82" clip-path="url(#a)"/>
<path d="m781.61 131.81 206.85 389.4" clip-path="url(#a)"/>
<path d="m781.61 131.81 445.69 389.4" clip-path="url(#a)"/>
<path d="m781.61 131.81-99.15 485.82" clip-path="url(#a)"/>
<path d="m137.57 229.51-63.132 291.69" clip-path="url(#a)"/>
<path d="m137.57 229.51 100.39 97.506" clip-path="url(#a)"/>
<path d="m137.57 229.51-37.258 388.12" clip-path="url(#a)"/>
<path d="m745.16 617.63v95.101" clip-path="url(#a)"/>
<path d="m810.84 617.63v95.101" clip-path="url(#a)"/>
<path d="m879.5 617.63v95.101" clip-path="url(#a)"/>
<path d="m988.47 521.2-37.318 96.424" clip-path="url(#a)"/>
<path d="m988.47 521.2 37.318 96.424" clip-path="url(#a)"/>
<path d="m1227.3 521.2-123.89 96.424" clip-path="url(#a)"/>
<path d="m1227.3 521.2-43.288 96.424" clip-path="url(#a)"/>
<path d="m1227.3 521.2 40.303 96.424" clip-path="url(#a)"/>
<path d="m1227.3 521.2 126.88 96.424" clip-path="url(#a)"/>
<path d="m1103.4 617.63v95.101" clip-path="url(#a)"/>
<path d="m1184 617.63v95.101" clip-path="url(#a)"/>
<path d="m1267.6 617.63v95.101" clip-path="url(#a)"/>
<path d="m951.15 617.63v95.101" clip-path="url(#a)"/>
<path d="m1025.8 617.63v95.101" clip-path="url(#a)"/>
<path d="m74.436 521.2-9.9514 96.424" clip-path="url(#a)"/>
<path d="m74.436 521.2-0.99514 96.424" clip-path="url(#a)"/>
<path d="m74.436 521.2 10.947 96.424" clip-path="url(#a)"/>
<path d="m237.96 327.01-163.52 194.19" clip-path="url(#a)" stroke-dasharray="3.7,1.6"/>
<path d="m237.96 327.01-109.29 290.61" clip-path="url(#a)"/>
<path d="m237.96 327.01-74.955 290.61" clip-path="url(#a)"/>
<path d="m237.96 327.01 15.602 290.61" clip-path="url(#a)"/>
<path d="m237.96 327.01 291.01 97.26" clip-path="url(#a)"/>
<path d="m237.96 327.01-48.086 290.61" clip-path="url(#a)"/>
<path d="m237.96 327.01 89.242 290.61" clip-path="url(#a)"/>
<path d="m128.67 617.63-10.449 95.101" clip-path="url(#a)"/>
<path d="m128.67 617.63 10.449 95.101" clip-path="url(#a)"/>
<path d="m163 617.63v95.101" clip-path="url(#a)"/>
<path d="m253.56 617.63-33.835 95.101" clip-path="url(#a)"/>
<path d="m253.56 617.63-0.99514 95.101" clip-path="url(#a)"/>
<path d="m253.56 617.63 34.83 95.101" clip-path="url(#a)"/>
<path d="m528.96 424.27-114.19 96.93" clip-path="url(#a)"/>
<path d="m528.96 424.27-16.669 193.35" clip-path="url(#a)"/>
<path d="m528.96 424.27 37.069 193.35" clip-path="url(#a)"/>
<path d="m528.96 424.27 93.792 193.35" clip-path="url(#a)"/>
<path d="m414.77 521.2-45.776 96.424" clip-path="url(#a)"/>
<path d="m414.77 521.2-0.99514 96.424" clip-path="url(#a)"/>
<path d="m414.77 521.2 46.771 96.424" clip-path="url(#a)"/>
<path d="m512.3 617.63v95.101" clip-path="url(#a)"/>
<path d="m566.03 617.63v95.101" clip-path="url(#a)"/>
<path d="m622.76 617.63v95.101" clip-path="url(#a)"/>
<path d="m369 617.63v95.101" clip-path="url(#a)"/>
<path d="m413.78 617.63v95.101" clip-path="url(#a)"/>
<path d="m461.54 617.63v95.101" clip-path="url(#a)"/>
<path d="m64.485 617.63v95.101" clip-path="url(#a)"/>
<path d="m73.441 617.63v95.101" clip-path="url(#a)"/>
<path d="m85.383 617.63v95.101" clip-path="url(#a)"/>
<path d="m100.31 617.63v95.101" clip-path="url(#a)"/>
<path d="m189.87 617.63v95.101" clip-path="url(#a)"/>
<path d="m327.2 617.63v95.101" clip-path="url(#a)"/>
<path d="m682.46 617.63v95.101" clip-path="url(#a)"/>
<path d="m1354.2 617.63v95.101" clip-path="url(#a)"/>
</g>
<path d="m775.34 79.864v6.0162q0 2.4 2.4 2.4h7.7425q2.4 0 2.4-2.4v-6.0162q0-2.4-2.4-2.4h-7.7425q-2.4 0-2.4 2.4z" clip-path="url(#a)" fill="#fff" stroke="#fff"/>
<g clip-path="url(#a)">
<g transform="translate(779.41 79.864) rotate(90) scale(.08 -.08)">
<defs>
<path id="ap" d="m9.8125 72.906h9.8594v-29.891h35.844v29.891h9.8594v-72.906h-9.8594v34.719h-35.844v-34.719h-9.8594z"/>
</defs>
<use xlink:href="#ap"/>
</g>
</g>
<path d="m457.83 187.27 5.4106-0.82079q2.3729-0.35996 2.0129-2.7328l-1.1613-7.6549q-0.35996-2.3729-2.7328-2.0129l-5.4106 0.82079q-2.3729 0.35996-2.0129 2.7328l1.1613 7.6549q0.35996 2.3729 2.7328 2.0129z" clip-path="url(#a)" fill="#fff" stroke="#fff"/>
<g clip-path="url(#a)">
<g transform="translate(457.22 183.25) rotate(-8.626) scale(.08 -.08)">
<defs>
<path id="ac" d="m34.188 63.188-13.391-36.281h26.812zm-5.5781 9.7188h11.188l27.781-72.906h-10.25l-6.6406 18.703h-32.859l-6.6406-18.703h-10.406z"/>
</defs>
<use xlink:href="#ac"/>
</g>
</g>
<path d="m769.47 377.48 0.34431-4.5884q0.17959-2.3933-2.2137-2.5729l-7.7208-0.57937q-2.3933-0.17959-2.5729 2.2137l-0.34431 4.5884q-0.17959 2.3933 2.2137 2.5729l7.7208 0.57937q2.3933 0.17959 2.5729-2.2137z" clip-path="url(#a)" fill="#fff" stroke="#fff"/>
<g clip-path="url(#a)">
<g transform="translate(765.42 377.18) rotate(-85.709) scale(.08 -.08)">
<defs>
<path id="z" d="m9.8125 72.906h41.891v-8.3125h-32.031v-21.484h28.906v-8.2969h-28.906v-34.812h-9.8594z"/>
</defs>
<use xlink:href="#z"/>
</g>
</g>
<path d="m789.78 372.02 0.36986 6.1489q0.1441 2.3957 2.5398 2.2516l7.7285-0.46488q2.3957-0.1441 2.2516-2.5398l-0.36986-6.1489q-0.1441-2.3957-2.5398-2.2516l-7.7285 0.46488q-2.3957 0.1441-2.2516 2.5398z" clip-path="url(#a)" fill="#fff" stroke="#fff"/>
<g clip-path="url(#a)">
<g transform="translate(793.84 371.77) rotate(86.558) scale(.08 -.08)">
<defs>
<path id="ab" d="m19.672 64.797v-56.688h11.922q15.094 0 22.094 6.8281 7 6.8438 7 21.594 0 14.641-7 21.453t-22.094 6.8125zm-9.8594 8.1094h20.266q21.188 0 31.094-8.8125 9.9219-8.8125 9.9219-27.562 0-18.859-9.9688-27.703-9.9531-8.8281-31.047-8.8281h-20.266z"/>
</defs>
<use xlink:href="#ab"/>
</g>
</g>
<path d="m823.8 372.94 1.2167 6.0386q0.47404 2.3527 2.8268 1.8787l7.59-1.5293q2.3527-0.47404 1.8787-2.8268l-1.2167-6.0386q-0.47404-2.3527-2.8268-1.8787l-7.59 1.5293q-2.3527 0.47404-1.8787 2.8268z" clip-path="url(#a)" fill="#fff" stroke="#fff"/>
<g clip-path="url(#a)">
<g transform="translate(827.79 372.13) rotate(78.608) scale(.08 -.08)">
<use xlink:href="#ab"/>
</g>
</g>
<path d="m878.31 327.2 2.3826 4.4852q1.1259 2.1195 3.2454 0.99359l6.8376-3.6323q2.1195-1.1259 0.99359-3.2454l-2.3826-4.4852q-1.1259-2.1195-3.2454-0.99359l-6.8376 3.6323q-2.1195 1.1259-0.99359 3.2454z" clip-path="url(#a)" fill="#fff" stroke="#fff"/>
<g clip-path="url(#a)">
<g transform="translate(881.9 325.3) rotate(62.022) scale(.08 -.08)">
<defs>
<path id="al" d="m53.516 70.516v-9.625q-5.6094 2.6875-10.594 4-4.9844 1.3281-9.625 1.3281-8.0469 0-12.422-3.125t-4.375-8.8906q0-4.8438 2.9062-7.3125 2.9062-2.4531 11.016-3.9688l5.9531-1.2188q11.031-2.1094 16.281-7.4062t5.25-14.172q0-10.609-7.1094-16.078-7.0938-5.4688-20.812-5.4688-5.1719 0-11.016 1.1719-5.8281 1.1719-12.078 3.4688v10.156q6-3.3594 11.766-5.0781 5.7656-1.7031 11.328-1.7031 8.4375 0 13.031 3.3125 4.5938 3.3281 4.5938 9.4844 0 5.3594-3.2969 8.3906t-10.812 4.5469l-6.0156 1.1719q-11.031 2.1875-15.969 6.875-4.9219 4.6875-4.9219 13.047 0 9.6719 6.8125 15.234t18.766 5.5625q5.1406 0 10.453-0.9375 5.3281-0.92188 10.891-2.7656z"/>
</defs>
<use xlink:href="#al"/>
</g>
</g>
<path d="m998.49 329.62 3.6796 3.2149q1.8073 1.5791 3.3864-0.22827l5.0942-5.8306q1.5791-1.8073-0.22827-3.3864l-3.6796-3.2149q-1.8073-1.5791-3.3864 0.22827l-5.0942 5.8306q-1.5791 1.8073 0.22827 3.3864z" clip-path="url(#a)" fill="#fff" stroke="#fff"/>
<g clip-path="url(#a)">
<g transform="translate(1001.2 326.56) rotate(41.144) scale(.08 -.08)">
<defs>
<path id="k" d="m-0.29688 72.906h61.672v-8.3125h-25.875v-64.594h-9.9062v64.594h-25.891z"/>
</defs>
<use xlink:href="#k"/>
</g>
</g>
<path d="m737.6 378.84 1.1708-5.7367q0.47992-2.3515-1.8716-2.8314l-7.5861-1.5482q-2.3515-0.47992-2.8314 1.8716l-1.1708 5.7367q-0.47992 2.3515 1.8716 2.8314l7.5861 1.5482q2.3515 0.47992 2.8314-1.8716z" clip-path="url(#a)" fill="#fff" stroke="#fff"/>
<g clip-path="url(#a)">
<g transform="translate(733.62 378.03) rotate(-78.465) scale(.08 -.08)">
<defs>
<path id="s" d="m8.6875 72.906h9.9219v-44.297q0-11.719 4.2344-16.875 4.25-5.1406 13.781-5.1406 9.4688 0 13.719 5.1406 4.25 5.1562 4.25 16.875v44.297h9.9062v-45.516q0-14.25-7.0625-21.531-7.0469-7.2812-20.812-7.2812-13.828 0-20.891 7.2812-7.0469 7.2812-7.0469 21.531z"/>
</defs>
<use xlink:href="#s"/>
</g>
</g>
<path d="m111.54 379.41 1.1817-5.4598q0.50768-2.3457-1.838-2.8534l-7.5673-1.6378q-2.3457-0.50768-2.8534 1.838l-1.1817 5.4598q-0.50768 2.3457 1.838 2.8534l7.5673 1.6378q2.3457 0.50768 2.8534-1.838z" clip-path="url(#a)" fill="#fff" stroke="#fff"/>
<g clip-path="url(#a)">
<g transform="translate(107.57 378.55) rotate(-77.788) scale(.08 -.08)">
<defs>
<path id="q" d="m64.406 67.281v-10.391q-4.9844 4.6406-10.625 6.9219-5.6406 2.2969-11.984 2.2969-12.5 0-19.141-7.6406t-6.6406-22.094q0-14.406 6.6406-22.047t19.141-7.6406q6.3438 0 11.984 2.2969t10.625 6.9375v-10.312q-5.1719-3.5156-10.969-5.2812-5.7812-1.75-12.219-1.75-16.562 0-26.094 10.125-9.5156 10.141-9.5156 27.672 0 17.578 9.5156 27.703 9.5312 10.141 26.094 10.141 6.5312 0 12.312-1.7344 5.7969-1.7344 10.875-5.2031z"/>
</defs>
<use xlink:href="#q"/>
</g>
</g>
<path d="m181.58 281 3.6261 3.5219q1.7216 1.6721 3.3938-0.04947l5.3944-5.554q1.6721-1.7216-0.04947-3.3938l-3.6261-3.5219q-1.7216-1.6721-3.3938 0.04947l-5.3944 5.554q-1.6721 1.7216 0.04947 3.3938z" clip-path="url(#a)" fill="#fff" stroke="#fff"/>
<g clip-path="url(#a)">
<g transform="translate(184.41 278.08) rotate(44.165) scale(.08 -.08)">
<defs>
<path id="aa" d="m9.8125 72.906h46.094v-8.3125h-36.234v-21.578h34.719v-8.2969h-34.719v-26.422h37.109v-8.2969h-46.969z"/>
</defs>
<use xlink:href="#aa"/>
</g>
</g>
<path d="m124.9 427.08 0.55949-5.8282q0.22934-2.389-2.1597-2.6184l-7.7071-0.73986q-2.389-0.22934-2.6184 2.1597l-0.55949 5.8282q-0.22934 2.389 2.1597 2.6184l7.7071 0.73986q2.389 0.22934 2.6184-2.1597z" clip-path="url(#a)" fill="#fff" stroke="#fff"/>
<g clip-path="url(#a)">
<g transform="translate(120.86 426.69) rotate(-84.517) scale(.08 -.08)">
<use xlink:href="#s"/>
</g>
</g>
<path d="m738.89 648.27v33.808q0 2.4 2.4 2.4h7.7425q2.4 0 2.4-2.4v-33.808q0-2.4-2.4-2.4h-7.7425q-2.4 0-2.4 2.4z" clip-path="url(#a)" fill="#fff" stroke="#fff"/>
<g clip-path="url(#a)">
<g transform="translate(742.95 648.27) rotate(90) scale(.08 -.08)">
<defs>
<path id="g" d="m56.203 29.594v-4.3906h-41.312q0.59375-9.2812 5.5938-14.141t13.938-4.8594q5.1719 0 10.031 1.2656t9.6562 3.8125v-8.5q-4.8438-2.0469-9.9219-3.125t-10.297-1.0781q-13.094 0-20.734 7.6094-7.6406 7.625-7.6406 20.625 0 13.422 7.25 21.297 7.25 7.8906 19.562 7.8906 11.031 0 17.453-7.1094 6.4219-7.0938 6.4219-19.297zm-8.9844 2.6406q-0.09375 7.3594-4.125 11.75-4.0312 4.4062-10.672 4.4062-7.5156 0-12.031-4.25t-5.2031-11.969z"/>
<path id="i" d="m41.109 46.297q-1.5156 0.875-3.2969 1.2812-1.7812 0.42188-3.9219 0.42188-7.625 0-11.703-4.9531t-4.0781-14.234v-28.812h-9.0312v54.688h9.0312v-8.5q2.8438 4.9844 7.375 7.3906 4.5469 2.4219 11.047 2.4219 0.92188 0 2.0469-0.125 1.125-0.10938 2.4844-0.35938z"/>
<path id="l" d="m52 44.188q3.375 6.0625 8.0625 8.9375t11.031 2.875q8.5469 0 13.188-5.9844 4.6406-5.9688 4.6406-17v-33.016h-9.0312v32.719q0 7.8594-2.7969 11.656-2.7812 3.8125-8.4844 3.8125-6.9844 0-11.047-4.6406-4.0469-4.625-4.0469-12.641v-30.906h-9.0312v32.719q0 7.9062-2.7812 11.688t-8.5938 3.7812q-6.8906 0-10.953-4.6562-4.0469-4.6562-4.0469-12.625v-30.906h-9.0312v54.688h9.0312v-8.5q3.0781 5.0312 7.375 7.4219t10.203 2.3906q5.9688 0 10.141-3.0312 4.1719-3.0156 6.1719-8.7812z"/>
<path id="f" d="m9.4219 54.688h8.9844v-54.688h-8.9844zm0 21.297h8.9844v-11.391h-8.9844z"/>
<path id="h" d="m54.891 33.016v-33.016h-8.9844v32.719q0 7.7656-3.0312 11.609-3.0312 3.8594-9.0781 3.8594-7.2812 0-11.484-4.6406-4.2031-4.625-4.2031-12.641v-30.906h-9.0312v54.688h9.0312v-8.5q3.2344 4.9375 7.5938 7.375 4.375 2.4375 10.094 2.4375 9.4219 0 14.25-5.8281 4.8438-5.8281 4.8438-17.156z"/>
<path id="d" d="m34.281 27.484q-10.891 0-15.094-2.4844t-4.2031-8.5q0-4.7812 3.1562-7.5938 3.1562-2.7969 8.5625-2.7969 7.4844 0 12 5.2969t4.5156 14.078v2zm17.922 3.7188v-31.203h-8.9844v8.2969q-3.0781-4.9688-7.6719-7.3438t-11.234-2.375q-8.3906 0-13.359 4.7188-4.9531 4.7188-4.9531 12.625 0 9.2188 6.1719 13.906 6.1875 4.6875 18.438 4.6875h12.609v0.89062q0 6.2031-4.0781 9.5938t-11.453 3.3906q-4.6875 0-9.1406-1.125-4.4375-1.125-8.5312-3.375v8.3125q4.9219 1.9062 9.5625 2.8438 4.6406 0.95312 9.0312 0.95312 11.875 0 17.734-6.1562 5.8594-6.1406 5.8594-18.641z"/>
<path id="j" d="m9.4219 75.984h8.9844v-75.984h-8.9844z"/>
</defs>
<use xlink:href="#k"/>
<use x="44.083984" xlink:href="#g"/>
<use x="105.607422" xlink:href="#i"/>
<use x="144.970703" xlink:href="#l"/>
<use x="242.382812" xlink:href="#f"/>
<use x="270.166016" xlink:href="#h"/>
<use x="333.544922" xlink:href="#d"/>
<use x="394.824219" xlink:href="#j"/>
</g>
</g>
<path d="m804.57 648.27v33.808q0 2.4 2.4 2.4h7.7425q2.4 0 2.4-2.4v-33.808q0-2.4-2.4-2.4h-7.7425q-2.4 0-2.4 2.4z" clip-path="url(#a)" fill="#fff" stroke="#fff"/>
<g clip-path="url(#a)">
<g transform="translate(808.63 648.27) rotate(90) scale(.08 -.08)">
<use xlink:href="#k"/>
<use x="44.083984" xlink:href="#g"/>
<use x="105.607422" xlink:href="#i"/>
<use x="144.970703" xlink:href="#l"/>
<use x="242.382812" xlink:href="#f"/>
<use x="270.166016" xlink:href="#h"/>
<use x="333.544922" xlink:href="#d"/>
<use x="394.824219" xlink:href="#j"/>
</g>
</g>
<path d="m873.23 648.27v33.808q0 2.4 2.4 2.4h7.7425q2.4 0 2.4-2.4v-33.808q0-2.4-2.4-2.4h-7.7425q-2.4 0-2.4 2.4z" clip-path="url(#a)" fill="#fff" stroke="#fff"/>
<g clip-path="url(#a)">
<g transform="translate(877.29 648.27) rotate(90) scale(.08 -.08)">
<use xlink:href="#k"/>
<use x="44.083984" xlink:href="#g"/>
<use x="105.607422" xlink:href="#i"/>
<use x="144.970703" xlink:href="#l"/>
<use x="242.382812" xlink:href="#f"/>
<use x="270.166016" xlink:href="#h"/>
<use x="333.544922" xlink:href="#d"/>
<use x="394.824219" xlink:href="#j"/>
</g>
</g>
<path d="m974.66 574.27 2.0063-5.1841q0.86623-2.2382-1.372-3.1045l-7.2206-2.7945q-2.2382-0.86623-3.1045 1.372l-2.0063 5.1841q-0.86623 2.2382 1.372 3.1045l7.2206 2.7945q2.2382 0.86623 3.1045-1.372z" clip-path="url(#a)" fill="#fff" stroke="#fff"/>
<g clip-path="url(#a)">
<g transform="translate(970.87 572.8) rotate(-68.843) scale(.08 -.08)">
<defs>
<path id="u" d="m44.391 34.188q3.1719-1.0781 6.1719-4.5938t6.0312-9.6719l10.016-19.922h-10.609l-9.3125 18.703q-3.625 7.3281-7.0156 9.7188t-9.25 2.3906h-10.75v-30.812h-9.8594v72.906h22.266q12.5 0 18.656-5.2344 6.1562-5.2188 6.1562-15.766 0-6.8906-3.2031-11.438-3.2031-4.5312-9.2969-6.2812zm-24.719 30.609v-25.875h12.406q7.125 0 10.766 3.2969t3.6406 9.6875-3.6406 9.6406-10.766 3.25z"/>
</defs>
<use xlink:href="#u"/>
</g>
</g>
<path d="m1000.3 569.07 2.0162 5.2097q0.86623 2.2382 3.1045 1.372l7.2206-2.7945q2.2382-0.86623 1.372-3.1045l-2.0162-5.2097q-0.86623-2.2382-3.1045-1.372l-7.2206 2.7945q-2.2382 0.86623-1.372 3.1045z" clip-path="url(#a)" fill="#fff" stroke="#fff"/>
<g clip-path="url(#a)">
<g transform="translate(1004.1 567.61) rotate(68.843) scale(.08 -.08)">
<use xlink:href="#q"/>
</g>
</g>
<path d="m1167 576.07 4.3868-3.4141q1.894-1.474 0.41995-3.368l-4.7553-6.1101q-1.474-1.894-3.368-0.41994l-4.3868 3.4141q-1.894 1.474-0.41994 3.368l4.7553 6.1101q1.474 1.894 3.368 0.41995z" clip-path="url(#a)" fill="#fff" stroke="#fff"/>
<g clip-path="url(#a)">
<g transform="translate(1164.5 572.86) rotate(-37.893) scale(.08 -.08)">
<use xlink:href="#u"/>
</g>
</g>
<path d="m1210.4 574.08 1.8845-4.1976q0.98294-2.1895-1.2065-3.1724l-7.0634-3.171q-2.1895-0.98294-3.1724 1.2065l-1.8845 4.1976q-0.98294 2.1895 1.2065 3.1724l7.0634 3.171q2.1895 0.98294 3.1724-1.2065z" clip-path="url(#a)" fill="#fff" stroke="#fff"/>
<g clip-path="url(#a)">
<g transform="translate(1206.7 572.42) rotate(-65.823) scale(.08 -.08)">
<use xlink:href="#z"/>
</g>
</g>
<path d="m1240.6 569.26 2.1543 5.1541q0.92555 2.2144 3.1399 1.2888l7.1436-2.9859q2.2144-0.92555 1.2888-3.1399l-2.1543-5.1541q-0.92555-2.2144-3.1399-1.2888l-7.1436 2.9859q-2.2144 0.92555-1.2888 3.1399z" clip-path="url(#a)" fill="#fff" stroke="#fff"/>
<g clip-path="url(#a)">
<g transform="translate(1244.3 567.69) rotate(67.316) scale(.08 -.08)">
<use xlink:href="#q"/>
</g>
</g>
<path d="m1284.6 572.64 4.6616 3.5427q1.9108 1.4522 3.363-0.45867l4.6847-6.1644q1.4522-1.9108-0.45867-3.363l-4.6616-3.5427q-1.9108-1.4522-3.363 0.45867l-4.6847 6.1644q-1.4522 1.9108 0.45867 3.363z" clip-path="url(#a)" fill="#fff" stroke="#fff"/>
<g clip-path="url(#a)">
<g transform="translate(1287.1 569.4) rotate(37.233) scale(.08 -.08)">
<use xlink:href="#s"/>
</g>
</g>
<path d="m1097.1 648.27v33.808q0 2.4 2.4 2.4h7.7425q2.4 0 2.4-2.4v-33.808q0-2.4-2.4-2.4h-7.7425q-2.4 0-2.4 2.4z" clip-path="url(#a)" fill="#fff" stroke="#fff"/>
<g clip-path="url(#a)">
<g transform="translate(1101.2 648.27) rotate(90) scale(.08 -.08)">
<use xlink:href="#k"/>
<use x="44.083984" xlink:href="#g"/>
<use x="105.607422" xlink:href="#i"/>
<use x="144.970703" xlink:href="#l"/>
<use x="242.382812" xlink:href="#f"/>
<use x="270.166016" xlink:href="#h"/>
<use x="333.544922" xlink:href="#d"/>
<use x="394.824219" xlink:href="#j"/>
</g>
</g>
<path d="m1177.7 648.27v33.808q0 2.4 2.4 2.4h7.7425q2.4 0 2.4-2.4v-33.808q0-2.4-2.4-2.4h-7.7425q-2.4 0-2.4 2.4z" clip-path="url(#a)" fill="#fff" stroke="#fff"/>
<g clip-path="url(#a)">
<g transform="translate(1181.8 648.27) rotate(90) scale(.08 -.08)">
<use xlink:href="#k"/>
<use x="44.083984" xlink:href="#g"/>
<use x="105.607422" xlink:href="#i"/>
<use x="144.970703" xlink:href="#l"/>
<use x="242.382812" xlink:href="#f"/>
<use x="270.166016" xlink:href="#h"/>
<use x="333.544922" xlink:href="#d"/>
<use x="394.824219" xlink:href="#j"/>
</g>
</g>
<path d="m1261.3 648.27v33.808q0 2.4 2.4 2.4h7.7425q2.4 0 2.4-2.4v-33.808q0-2.4-2.4-2.4h-7.7425q-2.4 0-2.4 2.4z" clip-path="url(#a)" fill="#fff" stroke="#fff"/>
<g clip-path="url(#a)">
<g transform="translate(1265.4 648.27) rotate(90) scale(.08 -.08)">
<use xlink:href="#k"/>
<use x="44.083984" xlink:href="#g"/>
<use x="105.607422" xlink:href="#i"/>
<use x="144.970703" xlink:href="#l"/>
<use x="242.382812" xlink:href="#f"/>
<use x="270.166016" xlink:href="#h"/>
<use x="333.544922" xlink:href="#d"/>
<use x="394.824219" xlink:href="#j"/>
</g>
</g>
<path d="m944.88 648.27v33.808q0 2.4 2.4 2.4h7.7425q2.4 0 2.4-2.4v-33.808q0-2.4-2.4-2.4h-7.7425q-2.4 0-2.4 2.4z" clip-path="url(#a)" fill="#fff" stroke="#fff"/>
<g clip-path="url(#a)">
<g transform="translate(948.94 648.27) rotate(90) scale(.08 -.08)">
<use xlink:href="#k"/>
<use x="44.083984" xlink:href="#g"/>
<use x="105.607422" xlink:href="#i"/>
<use x="144.970703" xlink:href="#l"/>
<use x="242.382812" xlink:href="#f"/>
<use x="270.166016" xlink:href="#h"/>
<use x="333.544922" xlink:href="#d"/>
<use x="394.824219" xlink:href="#j"/>
</g>
</g>
<path d="m1019.5 648.27v33.808q0 2.4 2.4 2.4h7.7425q2.4 0 2.4-2.4v-33.808q0-2.4-2.4-2.4h-7.7425q-2.4 0-2.4 2.4z" clip-path="url(#a)" fill="#fff" stroke="#fff"/>
<g clip-path="url(#a)">
<g transform="translate(1023.6 648.27) rotate(90) scale(.08 -.08)">
<use xlink:href="#k"/>
<use x="44.083984" xlink:href="#g"/>
<use x="105.607422" xlink:href="#i"/>
<use x="144.970703" xlink:href="#l"/>
<use x="242.382812" xlink:href="#f"/>
<use x="270.166016" xlink:href="#h"/>
<use x="333.544922" xlink:href="#d"/>
<use x="394.824219" xlink:href="#j"/>
</g>
</g>
<path d="m75.412 572.84 0.57348-5.5567q0.24638-2.3873-2.1409-2.6337l-7.7016-0.79484q-2.3873-0.24638-2.6337 2.1409l-0.57348 5.5567q-0.24638 2.3873 2.1409 2.6337l7.7016 0.79484q2.3873 0.24638 2.6337-2.1409z" clip-path="url(#a)" fill="#fff" stroke="#fff"/>
<g clip-path="url(#a)">
<g transform="translate(71.37 572.42) rotate(-84.108) scale(.08 -.08)">
<use xlink:href="#q"/>
</g>
</g>
<path d="m80.179 572.47 0.061764-5.9847q0.024768-2.3999-2.3751-2.4246l-7.7421-0.079901q-2.3999-0.024768-2.4246 2.3751l-0.061765 5.9847q-0.024767 2.3999 2.3751 2.4246l7.7421 0.079902q2.3999 0.024768 2.4246-2.3751z" clip-path="url(#a)" fill="#fff" stroke="#fff"/>
<g clip-path="url(#a)">
<g transform="translate(76.115 572.43) rotate(-89.409) scale(.08 -.08)">
<defs>
<path id="ao" d="m9.8125 72.906h13.281l32.328-60.984v60.984h9.5625v-72.906h-13.281l-32.312 60.984v-60.984h-9.5781z"/>
</defs>
<use xlink:href="#ao"/>
</g>
</g>
<path d="m73.363 567.35 0.63013 5.5506q0.27072 2.3847 2.6554 2.114l7.6931-0.87336q2.3847-0.27072 2.114-2.6554l-0.63013-5.5506q-0.27072-2.3847-2.6554-2.114l-7.6931 0.87336q-2.3847 0.27072-2.114 2.6554z" clip-path="url(#a)" fill="#fff" stroke="#fff"/>
<g clip-path="url(#a)">
<g transform="translate(77.401 566.89) rotate(83.523) scale(.08 -.08)">
<use xlink:href="#q"/>
</g>
</g>
<path d="m159.23 430.24 3.525-4.186q1.5459-1.8358-0.28992-3.3817l-5.9224-4.9871q-1.8358-1.5459-3.3817 0.28992l-3.525 4.186q-1.5459 1.8358 0.28992 3.3817l5.9224 4.9871q1.8358 1.5459 3.3817-0.28992z" clip-path="url(#a)" fill="#fff" stroke="#fff"/>
<g clip-path="url(#a)">
<g transform="translate(156.12 427.62) rotate(-49.9) scale(.08 -.08)">
<use xlink:href="#ac"/>
</g>
</g>
<path d="m188.1 477.41 2.1683-5.7658q0.84478-2.2464-1.4016-3.0912l-7.247-2.7253q-2.2464-0.84478-3.0912 1.4016l-2.1683 5.7658q-0.84478 2.2464 1.4016 3.0912l7.247 2.7253q2.2464 0.84478 3.0912-1.4016z" clip-path="url(#a)" fill="#fff" stroke="#fff"/>
<g clip-path="url(#a)">
<g transform="translate(184.3 475.98) rotate(-69.391) scale(.08 -.08)">
<use xlink:href="#ab"/>
</g>
</g>
<path d="m205.95 476.22 1.2047-4.6709q0.59939-2.3239-1.7246-2.9233l-7.4971-1.9337q-2.3239-0.59939-2.9233 1.7246l-1.2047 4.6709q-0.59939 2.3239 1.7246 2.9233l7.4971 1.9337q2.3239 0.59939 2.9233-1.7246z" clip-path="url(#a)" fill="#fff" stroke="#fff"/>
<g clip-path="url(#a)">
<g transform="translate(202.02 475.21) rotate(-75.537) scale(.08 -.08)">
<defs>
<path id="an" d="m19.672 64.797v-27.391h12.406q6.8906 0 10.641 3.5625 3.7656 3.5625 3.7656 10.156 0 6.5469-3.7656 10.109-3.75 3.5625-10.641 3.5625zm-9.8594 8.1094h22.266q12.266 0 18.531-5.5469 6.2812-5.5469 6.2812-16.234 0-10.797-6.2812-16.312-6.2656-5.5156-18.531-5.5156h-12.406v-29.297h-9.8594z"/>
</defs>
<use xlink:href="#an"/>
</g>
</g>
<path d="m239.33 469.56 0.33232 6.1898q0.12866 2.3965 2.5252 2.2679l7.7314-0.41508q2.3965-0.12866 2.2679-2.5252l-0.33232-6.1898q-0.12866-2.3965-2.5252-2.2679l-7.7314 0.41508q-2.3965 0.12866-2.2679 2.5252z" clip-path="url(#a)" fill="#fff" stroke="#fff"/>
<g clip-path="url(#a)">
<g transform="translate(243.39 469.34) rotate(86.927) scale(.08 -.08)">
<defs>
<path id="aq" d="m59.516 10.406v19.578h-16.109v8.1094h25.875v-31.312q-5.7031-4.0469-12.594-6.125-6.875-2.0781-14.688-2.0781-17.094 0-26.75 9.9844-9.6406 10-9.6406 27.812 0 17.875 9.6406 27.859 9.6562 9.9844 26.75 9.9844 7.125 0 13.547-1.7656 6.4219-1.75 11.844-5.1719v-10.5q-5.4688 4.6406-11.625 6.9844t-12.938 2.3438q-13.391 0-20.109-7.4688-6.7031-7.4688-6.7031-22.266 0-14.75 6.7031-22.219 6.7188-7.4688 20.109-7.4688 5.2188 0 9.3125 0.90625 4.1094 0.90625 7.375 2.8125z"/>
</defs>
<use xlink:href="#aq"/>
</g>
</g>
<path d="m378.88 380.72 5.1903 1.7347q2.2762 0.76076 3.037-1.5155l2.4542-7.3432q0.76076-2.2762-1.5155-3.037l-5.1903-1.7347q-2.2762-0.76076-3.037 1.5155l-2.4542 7.3432q-0.76076 2.2762 1.5155 3.037z" clip-path="url(#a)" fill="#fff" stroke="#fff"/>
<g clip-path="url(#a)">
<g transform="translate(380.17 376.87) rotate(18.481) scale(.08 -.08)">
<use xlink:href="#ac"/>
</g>
</g>
<path d="m219.62 476.23 0.9558-5.7765q0.39179-2.3678-1.976-2.7596l-7.6386-1.2639q-2.3678-0.39179-2.7596 1.976l-0.9558 5.7765q-0.39179 2.3678 1.976 2.7596l7.6386 1.2639q2.3678 0.39179 2.7596-1.976z" clip-path="url(#a)" fill="#fff" stroke="#fff"/>
<g clip-path="url(#a)">
<g transform="translate(215.62 475.57) rotate(-80.605) scale(.08 -.08)">
<use xlink:href="#s"/>
</g>
</g>
<path d="m275.73 471.36 1.7188 5.597q0.70453 2.2943 2.9988 1.5897l7.4014-2.2728q2.2943-0.70453 1.5897-2.9988l-1.7188-5.597q-0.70453-2.2943-2.9988-1.5897l-7.4014 2.2728q-2.2943 0.70453-1.5897 2.9988z" clip-path="url(#a)" fill="#fff" stroke="#fff"/>
<g clip-path="url(#a)">
<g transform="translate(279.61 470.17) rotate(72.929) scale(.08 -.08)">
<use xlink:href="#s"/>
</g>
</g>
<path d="m127.83 682.66 3.6923-33.605q0.26212-2.3856-2.1235-2.6478l-7.6962-0.8456q-2.3856-0.26212-2.6478 2.1235l-3.6923 33.605q-0.26212 2.3856 2.1235 2.6478l7.6962 0.8456q2.3856 0.26212 2.6478-2.1235z" clip-path="url(#a)" fill="#fff" stroke="#fff"/>
<g clip-path="url(#a)">
<g transform="translate(123.79 682.22) rotate(-83.73) scale(.08 -.08)">
<use xlink:href="#k"/>
<use x="44.083984" xlink:href="#g"/>
<use x="105.607422" xlink:href="#i"/>
<use x="144.970703" xlink:href="#l"/>
<use x="242.382812" xlink:href="#f"/>
<use x="270.166016" xlink:href="#h"/>
<use x="333.544922" xlink:href="#d"/>
<use x="394.824219" xlink:href="#j"/>
</g>
</g>
<path d="m125.82 649.06 3.6923 33.605q0.26212 2.3856 2.6478 2.1235l7.6962-0.8456q2.3856-0.26212 2.1235-2.6478l-3.6923-33.605q-0.26212-2.3856-2.6478-2.1235l-7.6962 0.8456q-2.3856 0.26212-2.1235 2.6478z" clip-path="url(#a)" fill="#fff" stroke="#fff"/>
<g clip-path="url(#a)">
<g transform="translate(129.86 648.62) rotate(83.73) scale(.08 -.08)">
<use xlink:href="#k"/>
<use x="44.083984" xlink:href="#g"/>
<use x="105.607422" xlink:href="#i"/>
<use x="144.970703" xlink:href="#l"/>
<use x="242.382812" xlink:href="#f"/>
<use x="270.166016" xlink:href="#h"/>
<use x="333.544922" xlink:href="#d"/>
<use x="394.824219" xlink:href="#j"/>
</g>
</g>
<path d="m156.73 648.27v33.808q0 2.4 2.4 2.4h7.7425q2.4 0 2.4-2.4v-33.808q0-2.4-2.4-2.4h-7.7425q-2.4 0-2.4 2.4z" clip-path="url(#a)" fill="#fff" stroke="#fff"/>
<g clip-path="url(#a)">
<g transform="translate(160.8 648.27) rotate(90) scale(.08 -.08)">
<use xlink:href="#k"/>
<use x="44.083984" xlink:href="#g"/>
<use x="105.607422" xlink:href="#i"/>
<use x="144.970703" xlink:href="#l"/>
<use x="242.382812" xlink:href="#f"/>
<use x="270.166016" xlink:href="#h"/>
<use x="333.544922" xlink:href="#d"/>
<use x="394.824219" xlink:href="#j"/>
</g>
</g>
<path d="m236.89 683.2 11.332-31.852q0.80446-2.2612-1.4567-3.0656l-7.2946-2.5952q-2.2612-0.80446-3.0656 1.4567l-11.332 31.852q-0.80447 2.2612 1.4567 3.0656l7.2946 2.5952q2.2612 0.80446 3.0656-1.4567z" clip-path="url(#a)" fill="#fff" stroke="#fff"/>
<g clip-path="url(#a)">
<g transform="translate(233.06 681.84) rotate(-70.416) scale(.08 -.08)">
<use xlink:href="#k"/>
<use x="44.083984" xlink:href="#g"/>
<use x="105.607422" xlink:href="#i"/>
<use x="144.970703" xlink:href="#l"/>
<use x="242.382812" xlink:href="#f"/>
<use x="270.166016" xlink:href="#h"/>
<use x="333.544922" xlink:href="#d"/>
<use x="394.824219" xlink:href="#j"/>
</g>
</g>
<path d="m259.16 682.15 0.35374-33.806q0.025112-2.3999-2.3748-2.425l-7.7421-0.081013q-2.3999-0.025112-2.425 2.3748l-0.35374 33.806q-0.025112 2.3999 2.3748 2.425l7.7421 0.081013q2.3999 0.025113 2.425-2.3748z" clip-path="url(#a)" fill="#fff" stroke="#fff"/>
<g clip-path="url(#a)">
<g transform="translate(255.09 682.1) rotate(-89.4) scale(.08 -.08)">
<use xlink:href="#k"/>
<use x="44.083984" xlink:href="#g"/>
<use x="105.607422" xlink:href="#i"/>
<use x="144.970703" xlink:href="#l"/>
<use x="242.382812" xlink:href="#f"/>
<use x="270.166016" xlink:href="#h"/>
<use x="333.544922" xlink:href="#d"/>
<use x="394.824219" xlink:href="#j"/>
</g>
</g>
<path d="m259.27 651.46 11.626 31.745q0.82536 2.2536 3.079 1.4282l7.2703-2.6627q2.2536-0.82536 1.4283-3.079l-11.626-31.745q-0.82536-2.2536-3.079-1.4282l-7.2703 2.6627q-2.2536 0.82536-1.4282 3.079z" clip-path="url(#a)" fill="#fff" stroke="#fff"/>
<g clip-path="url(#a)">
<g transform="translate(263.09 650.06) rotate(69.885) scale(.08 -.08)">
<use xlink:href="#k"/>
<use x="44.083984" xlink:href="#g"/>
<use x="105.607422" xlink:href="#i"/>
<use x="144.970703" xlink:href="#l"/>
<use x="242.382812" xlink:href="#f"/>
<use x="270.166016" xlink:href="#h"/>
<use x="333.544922" xlink:href="#d"/>
<use x="394.824219" xlink:href="#j"/>
</g>
</g>
<path d="m474 479.15 3.8538-3.2712q1.8297-1.5531 0.27659-3.3828l-5.0104-5.9027q-1.5531-1.8297-3.3828-0.2766l-3.8538 3.2712q-1.8297 1.5531-0.2766 3.3828l5.0104 5.9027q1.5531 1.8297 3.3828 0.2766z" clip-path="url(#a)" fill="#fff" stroke="#fff"/>
<g clip-path="url(#a)">
<g transform="translate(471.37 476.06) rotate(-40.326) scale(.08 -.08)">
<use xlink:href="#aa"/>
</g>
</g>
<path d="m526.64 524.26 0.47744-5.5382q0.20613-2.3911-2.185-2.5973l-7.7139-0.665q-2.3911-0.20613-2.5973 2.185l-0.47744 5.5382q-0.20613 2.3911 2.185 2.5973l7.7139 0.665q2.3911 0.20613 2.5973-2.185z" clip-path="url(#a)" fill="#fff" stroke="#fff"/>
<g clip-path="url(#a)">
<g transform="translate(522.59 523.91) rotate(-85.073) scale(.08 -.08)">
<use xlink:href="#u"/>
</g>
</g>
<path d="m540.81 519.39 1.0518 5.4863q0.45189 2.3571 2.809 1.9052l7.604-1.4578q2.3571-0.45189 1.9052-2.809l-1.0518-5.4863q-0.45189-2.3571-2.809-1.9052l-7.604 1.4578q-2.3571 0.45189-1.9052 2.809z" clip-path="url(#a)" fill="#fff" stroke="#fff"/>
<g clip-path="url(#a)">
<g transform="translate(544.81 518.62) rotate(79.147) scale(.08 -.08)">
<use xlink:href="#q"/>
</g>
</g>
<path d="m568.84 520.85 2.7485 5.6661q1.0475 2.1594 3.2068 1.1119l6.9662-3.3791q2.1594-1.0475 1.1119-3.2068l-2.7485-5.6661q-1.0475-2.1594-3.2068-1.1119l-6.9662 3.3791q-2.1594 1.0475-1.1119 3.2068z" clip-path="url(#a)" fill="#fff" stroke="#fff"/>
<g clip-path="url(#a)">
<g transform="translate(572.5 519.08) rotate(64.123) scale(.08 -.08)">
<defs>
<path id="am" d="m39.406 66.219q-10.75 0-17.078-8.0156-6.3125-8-6.3125-21.828 0-13.766 6.3125-21.781 6.3281-8 17.078-8 10.734 0 17.016 8 6.2812 8.0156 6.2812 21.781 0 13.828-6.2812 21.828-6.2812 8.0156-17.016 8.0156zm13.812-64.906 13-14.203h-11.922l-10.797 11.672q-1.6094-0.09375-2.4688-0.14062-0.84375-0.0625-1.625-0.0625-15.375 0-24.594 10.281-9.2031 10.281-9.2031 27.516 0 17.281 9.2031 27.562 9.2188 10.281 24.594 10.281 15.328 0 24.5-10.281 9.1875-10.281 9.1875-27.562 0-12.688-5.1094-21.734-5.0938-9.0312-14.766-13.328z"/>
</defs>
<use xlink:href="#am"/>
</g>
</g>
<path d="m396.36 574.61 2.384-5.0216q1.0293-2.1681-1.1388-3.1974l-6.9943-3.3205q-2.1681-1.0293-3.1974 1.1388l-2.384 5.0216q-1.0293 2.1681 1.1388 3.1974l6.9943 3.3205q2.1681 1.0293 3.1974-1.1388z" clip-path="url(#a)" fill="#fff" stroke="#fff"/>
<g clip-path="url(#a)">
<g transform="translate(392.69 572.87) rotate(-64.604) scale(.08 -.08)">
<use xlink:href="#u"/>
</g>
</g>
<path d="m420.52 571.78 0.047484-4.601q0.024768-2.3999-2.3751-2.4246l-7.7421-0.079902q-2.3999-0.024768-2.4246 2.3751l-0.047484 4.601q-0.024768 2.3999 2.3751 2.4246l7.7421 0.079902q2.3999 0.024768 2.4246-2.3751z" clip-path="url(#a)" fill="#fff" stroke="#fff"/>
<g clip-path="url(#a)">
<g transform="translate(416.46 571.74) rotate(-89.409) scale(.08 -.08)">
<use xlink:href="#z"/>
</g>
</g>
<path d="m431.3 569.64 2.438 5.0262q1.0474 2.1594 3.2068 1.1119l6.9662-3.379q2.1594-1.0474 1.1119-3.2068l-2.438-5.0262q-1.0474-2.1594-3.2068-1.1119l-6.9662 3.379q-2.1594 1.0474-1.1119 3.2068z" clip-path="url(#a)" fill="#fff" stroke="#fff"/>
<g clip-path="url(#a)">
<g transform="translate(434.95 567.86) rotate(64.124) scale(.08 -.08)">
<use xlink:href="#q"/>
</g>
</g>
<path d="m506.03 648.27v33.808q0 2.4 2.4 2.4h7.7425q2.4 0 2.4-2.4v-33.808q0-2.4-2.4-2.4h-7.7425q-2.4 0-2.4 2.4z" clip-path="url(#a)" fill="#fff" stroke="#fff"/>
<g clip-path="url(#a)">
<g transform="translate(510.09 648.27) rotate(90) scale(.08 -.08)">
<use xlink:href="#k"/>
<use x="44.083984" xlink:href="#g"/>
<use x="105.607422" xlink:href="#i"/>
<use x="144.970703" xlink:href="#l"/>
<use x="242.382812" xlink:href="#f"/>
<use x="270.166016" xlink:href="#h"/>
<use x="333.544922" xlink:href="#d"/>
<use x="394.824219" xlink:href="#j"/>
</g>
</g>
<path d="m559.76 648.27v33.808q0 2.4 2.4 2.4h7.7425q2.4 0 2.4-2.4v-33.808q0-2.4-2.4-2.4h-7.7425q-2.4 0-2.4 2.4z" clip-path="url(#a)" fill="#fff" stroke="#fff"/>
<g clip-path="url(#a)">
<g transform="translate(563.83 648.27) rotate(90) scale(.08 -.08)">
<use xlink:href="#k"/>
<use x="44.083984" xlink:href="#g"/>
<use x="105.607422" xlink:href="#i"/>
<use x="144.970703" xlink:href="#l"/>
<use x="242.382812" xlink:href="#f"/>
<use x="270.166016" xlink:href="#h"/>
<use x="333.544922" xlink:href="#d"/>
<use x="394.824219" xlink:href="#j"/>
</g>
</g>
<path d="m616.49 648.27v33.808q0 2.4 2.4 2.4h7.7425q2.4 0 2.4-2.4v-33.808q0-2.4-2.4-2.4h-7.7425q-2.4 0-2.4 2.4z" clip-path="url(#a)" fill="#fff" stroke="#fff"/>
<g clip-path="url(#a)">
<g transform="translate(620.55 648.27) rotate(90) scale(.08 -.08)">
<use xlink:href="#k"/>
<use x="44.083984" xlink:href="#g"/>
<use x="105.607422" xlink:href="#i"/>
<use x="144.970703" xlink:href="#l"/>
<use x="242.382812" xlink:href="#f"/>
<use x="270.166016" xlink:href="#h"/>
<use x="333.544922" xlink:href="#d"/>
<use x="394.824219" xlink:href="#j"/>
</g>
</g>
<path d="m362.73 648.27v33.808q0 2.4 2.4 2.4h7.7425q2.4 0 2.4-2.4v-33.808q0-2.4-2.4-2.4h-7.7425q-2.4 0-2.4 2.4z" clip-path="url(#a)" fill="#fff" stroke="#fff"/>
<g clip-path="url(#a)">
<g transform="translate(366.79 648.27) rotate(90) scale(.08 -.08)">
<use xlink:href="#k"/>
<use x="44.083984" xlink:href="#g"/>
<use x="105.607422" xlink:href="#i"/>
<use x="144.970703" xlink:href="#l"/>
<use x="242.382812" xlink:href="#f"/>
<use x="270.166016" xlink:href="#h"/>
<use x="333.544922" xlink:href="#d"/>
<use x="394.824219" xlink:href="#j"/>
</g>
</g>
<path d="m407.51 648.27v33.808q0 2.4 2.4 2.4h7.7425q2.4 0 2.4-2.4v-33.808q0-2.4-2.4-2.4h-7.7425q-2.4 0-2.4 2.4z" clip-path="url(#a)" fill="#fff" stroke="#fff"/>
<g clip-path="url(#a)">
<g transform="translate(411.57 648.27) rotate(90) scale(.08 -.08)">
<use xlink:href="#k"/>
<use x="44.083984" xlink:href="#g"/>
<use x="105.607422" xlink:href="#i"/>
<use x="144.970703" xlink:href="#l"/>
<use x="242.382812" xlink:href="#f"/>
<use x="270.166016" xlink:href="#h"/>
<use x="333.544922" xlink:href="#d"/>
<use x="394.824219" xlink:href="#j"/>
</g>
</g>
<path d="m455.27 648.27v33.808q0 2.4 2.4 2.4h7.7425q2.4 0 2.4-2.4v-33.808q0-2.4-2.4-2.4h-7.7425q-2.4 0-2.4 2.4z" clip-path="url(#a)" fill="#fff" stroke="#fff"/>
<g clip-path="url(#a)">
<g transform="translate(459.34 648.27) rotate(90) scale(.08 -.08)">
<use xlink:href="#k"/>
<use x="44.083984" xlink:href="#g"/>
<use x="105.607422" xlink:href="#i"/>
<use x="144.970703" xlink:href="#l"/>
<use x="242.382812" xlink:href="#f"/>
<use x="270.166016" xlink:href="#h"/>
<use x="333.544922" xlink:href="#d"/>
<use x="394.824219" xlink:href="#j"/>
</g>
</g>
<path d="m58.214 648.27v33.808q0 2.4 2.4 2.4h7.7425q2.4 0 2.4-2.4v-33.808q0-2.4-2.4-2.4h-7.7425q-2.4 0-2.4 2.4z" clip-path="url(#a)" fill="#fff" stroke="#fff"/>
<g clip-path="url(#a)">
<g transform="translate(62.277 648.27) rotate(90) scale(.08 -.08)">
<use xlink:href="#k"/>
<use x="44.083984" xlink:href="#g"/>
<use x="105.607422" xlink:href="#i"/>
<use x="144.970703" xlink:href="#l"/>
<use x="242.382812" xlink:href="#f"/>
<use x="270.166016" xlink:href="#h"/>
<use x="333.544922" xlink:href="#d"/>
<use x="394.824219" xlink:href="#j"/>
</g>
</g>
<path d="m67.17 648.27v33.808q0 2.4 2.4 2.4h7.7425q2.4 0 2.4-2.4v-33.808q0-2.4-2.4-2.4h-7.7425q-2.4 0-2.4 2.4z" clip-path="url(#a)" fill="#fff" stroke="#fff"/>
<g clip-path="url(#a)">
<g transform="translate(71.234 648.27) rotate(90) scale(.08 -.08)">
<use xlink:href="#k"/>
<use x="44.083984" xlink:href="#g"/>
<use x="105.607422" xlink:href="#i"/>
<use x="144.970703" xlink:href="#l"/>
<use x="242.382812" xlink:href="#f"/>
<use x="270.166016" xlink:href="#h"/>
<use x="333.544922" xlink:href="#d"/>
<use x="394.824219" xlink:href="#j"/>
</g>
</g>
<path d="m79.111 648.27v33.808q0 2.4 2.4 2.4h7.7425q2.4 0 2.4-2.4v-33.808q0-2.4-2.4-2.4h-7.7425q-2.4 0-2.4 2.4z" clip-path="url(#a)" fill="#fff" stroke="#fff"/>
<g clip-path="url(#a)">
<g transform="translate(83.175 648.27) rotate(90) scale(.08 -.08)">
<use xlink:href="#k"/>
<use x="44.083984" xlink:href="#g"/>
<use x="105.607422" xlink:href="#i"/>
<use x="144.970703" xlink:href="#l"/>
<use x="242.382812" xlink:href="#f"/>
<use x="270.166016" xlink:href="#h"/>
<use x="333.544922" xlink:href="#d"/>
<use x="394.824219" xlink:href="#j"/>
</g>
</g>
<path d="m94.039 648.27v33.808q0 2.4 2.4 2.4h7.7425q2.4 0 2.4-2.4v-33.808q0-2.4-2.4-2.4h-7.7425q-2.4 0-2.4 2.4z" clip-path="url(#a)" fill="#fff" stroke="#fff"/>
<g clip-path="url(#a)">
<g transform="translate(98.102 648.27) rotate(90) scale(.08 -.08)">
<use xlink:href="#k"/>
<use x="44.083984" xlink:href="#g"/>
<use x="105.607422" xlink:href="#i"/>
<use x="144.970703" xlink:href="#l"/>
<use x="242.382812" xlink:href="#f"/>
<use x="270.166016" xlink:href="#h"/>
<use x="333.544922" xlink:href="#d"/>
<use x="394.824219" xlink:href="#j"/>
</g>
</g>
<path d="m183.6 648.27v33.808q0 2.4 2.4 2.4h7.7425q2.4 0 2.4-2.4v-33.808q0-2.4-2.4-2.4h-7.7425q-2.4 0-2.4 2.4z" clip-path="url(#a)" fill="#fff" stroke="#fff"/>
<g clip-path="url(#a)">
<g transform="translate(187.66 648.27) rotate(90) scale(.08 -.08)">
<use xlink:href="#k"/>
<use x="44.083984" xlink:href="#g"/>
<use x="105.607422" xlink:href="#i"/>
<use x="144.970703" xlink:href="#l"/>
<use x="242.382812" xlink:href="#f"/>
<use x="270.166016" xlink:href="#h"/>
<use x="333.544922" xlink:href="#d"/>
<use x="394.824219" xlink:href="#j"/>
</g>
</g>
<path d="m320.93 648.27v33.808q0 2.4 2.4 2.4h7.7425q2.4 0 2.4-2.4v-33.808q0-2.4-2.4-2.4h-7.7425q-2.4 0-2.4 2.4z" clip-path="url(#a)" fill="#fff" stroke="#fff"/>
<g clip-path="url(#a)">
<g transform="translate(324.99 648.27) rotate(90) scale(.08 -.08)">
<use xlink:href="#k"/>
<use x="44.083984" xlink:href="#g"/>
<use x="105.607422" xlink:href="#i"/>
<use x="144.970703" xlink:href="#l"/>
<use x="242.382812" xlink:href="#f"/>
<use x="270.166016" xlink:href="#h"/>
<use x="333.544922" xlink:href="#d"/>
<use x="394.824219" xlink:href="#j"/>
</g>
</g>
<path d="m676.19 648.27v33.808q0 2.4 2.4 2.4h7.7425q2.4 0 2.4-2.4v-33.808q0-2.4-2.4-2.4h-7.7425q-2.4 0-2.4 2.4z" clip-path="url(#a)" fill="#fff" stroke="#fff"/>
<g clip-path="url(#a)">
<g transform="translate(680.26 648.27) rotate(90) scale(.08 -.08)">
<use xlink:href="#k"/>
<use x="44.083984" xlink:href="#g"/>
<use x="105.607422" xlink:href="#i"/>
<use x="144.970703" xlink:href="#l"/>
<use x="242.382812" xlink:href="#f"/>
<use x="270.166016" xlink:href="#h"/>
<use x="333.544922" xlink:href="#d"/>
<use x="394.824219" xlink:href="#j"/>
</g>
</g>
<path d="m1347.9 648.27v33.808q0 2.4 2.4 2.4h7.7425q2.4 0 2.4-2.4v-33.808q0-2.4-2.4-2.4h-7.7425q-2.4 0-2.4 2.4z" clip-path="url(#a)" fill="#fff" stroke="#fff"/>
<g clip-path="url(#a)">
<g transform="translate(1352 648.27) rotate(90) scale(.08 -.08)">
<use xlink:href="#k"/>
<use x="44.083984" xlink:href="#g"/>
<use x="105.607422" xlink:href="#i"/>
<use x="144.970703" xlink:href="#l"/>
<use x="242.382812" xlink:href="#f"/>
<use x="270.166016" xlink:href="#h"/>
<use x="333.544922" xlink:href="#d"/>
<use x="394.824219" xlink:href="#j"/>
</g>
</g>
<defs>
<path id="b" d="m0 8.6603c2.2967 0 4.4997-0.9125 6.1237-2.5365 1.624-1.624 2.5365-3.827 2.5365-6.1237s-0.9125-4.4997-2.5365-6.1237c-1.624-1.624-3.827-2.5365-6.1237-2.5365s-4.4997 0.9125-6.1237 2.5365c-1.624 1.624-2.5365 3.827-2.5365 6.1237s0.9125 4.4997 2.5365 6.1237c1.624 1.624 3.827 2.5365 6.1237 2.5365z"/>
</defs>
<g clip-path="url(#a)" fill="#ffffff" stroke="#ffffff">
<use x="64.484848" y="712.727273" xlink:href="#b"/>
<use x="73.441077" y="712.727273" xlink:href="#b"/>
<use x="85.382716" y="712.727273" xlink:href="#b"/>
<use x="100.309764" y="712.727273" xlink:href="#b"/>
<use x="118.222222" y="712.727273" xlink:href="#b"/>
<use x="139.12009" y="712.727273" xlink:href="#b"/>
<use x="163.003367" y="712.727273" xlink:href="#b"/>
<use x="189.872054" y="712.727273" xlink:href="#b"/>
<use x="219.72615" y="712.727273" xlink:href="#b"/>
<use x="252.565657" y="712.727273" xlink:href="#b"/>
<use x="288.390572" y="712.727273" xlink:href="#b"/>
<use x="327.200898" y="712.727273" xlink:href="#b"/>
<use x="368.996633" y="712.727273" xlink:href="#b"/>
<use x="413.777778" y="712.727273" xlink:href="#b"/>
<use x="461.544332" y="712.727273" xlink:href="#b"/>
<use x="512.296296" y="712.727273" xlink:href="#b"/>
<use x="566.03367" y="712.727273" xlink:href="#b"/>
<use x="622.756453" y="712.727273" xlink:href="#b"/>
<use x="682.464646" y="712.727273" xlink:href="#b"/>
<use x="745.158249" y="712.727273" xlink:href="#b"/>
<use x="810.837262" y="712.727273" xlink:href="#b"/>
<use x="879.501684" y="712.727273" xlink:href="#b"/>
<use x="951.151515" y="712.727273" xlink:href="#b"/>
<use x="1025.786756" y="712.727273" xlink:href="#b"/>
<use x="1103.407407" y="712.727273" xlink:href="#b"/>
<use x="1184.013468" y="712.727273" xlink:href="#b"/>
<use x="1267.604938" y="712.727273" xlink:href="#b"/>
<use x="1354.181818" y="712.727273" xlink:href="#b"/>
<use x="781.614434" y="33.939394" xlink:href="#b"/>
<use x="781.614434" y="131.805277" xlink:href="#b"/>
<use x="137.568151" y="229.507427" xlink:href="#b"/>
<use x="745.158249" y="617.626278" xlink:href="#b"/>
<use x="810.837262" y="617.626278" xlink:href="#b"/>
<use x="879.501684" y="617.626278" xlink:href="#b"/>
<use x="988.469136" y="521.202324" xlink:href="#b"/>
<use x="1227.301908" y="521.202324" xlink:href="#b"/>
<use x="1103.407407" y="617.626278" xlink:href="#b"/>
<use x="1184.013468" y="617.626278" xlink:href="#b"/>
<use x="1267.604938" y="617.626278" xlink:href="#b"/>
<use x="951.151515" y="617.626278" xlink:href="#b"/>
<use x="1025.786756" y="617.626278" xlink:href="#b"/>
<use x="74.436214" y="521.202324" xlink:href="#b"/>
<use x="237.958474" y="327.013054" xlink:href="#b"/>
<use x="128.671156" y="617.626278" xlink:href="#b"/>
<use x="163.003367" y="617.626278" xlink:href="#b"/>
<use x="253.560793" y="617.626278" xlink:href="#b"/>
<use x="528.964834" y="424.272635" xlink:href="#b"/>
<use x="414.772914" y="521.202324" xlink:href="#b"/>
<use x="512.296296" y="617.626278" xlink:href="#b"/>
<use x="566.03367" y="617.626278" xlink:href="#b"/>
<use x="622.756453" y="617.626278" xlink:href="#b"/>
<use x="368.996633" y="617.626278" xlink:href="#b"/>
<use x="413.777778" y="617.626278" xlink:href="#b"/>
<use x="461.544332" y="617.626278" xlink:href="#b"/>
<use x="64.484848" y="617.626278" xlink:href="#b"/>
<use x="73.441077" y="617.626278" xlink:href="#b"/>
<use x="85.382716" y="617.626278" xlink:href="#b"/>
<use x="100.309764" y="617.626278" xlink:href="#b"/>
<use x="189.872054" y="617.626278" xlink:href="#b"/>
<use x="327.200898" y="617.626278" xlink:href="#b"/>
<use x="682.464646" y="617.626278" xlink:href="#b"/>
<use x="1354.181818" y="617.626278" xlink:href="#b"/>
</g>
<g clip-path="url(#a)">
<g transform="translate(52.685 715.49) scale(.1 -.1)">
<defs>
<path id="ag" d="m32.172-5.0781q-3.7969-9.7656-7.4219-12.734-3.6094-2.9844-9.6562-2.9844h-7.1875v7.5156h5.2812q3.7031 0 5.75 1.7656 2.0625 1.75 4.5469 8.2969l1.6094 4.0938-22.109 53.812h9.5156l17.094-42.766 17.094 42.766h9.5156z"/>
<path id="p" d="m44.281 53.078v-8.5q-3.7969 1.9531-7.9062 2.9219-4.0938 0.98438-8.5 0.98438-6.6875 0-10.031-2.0469t-3.3438-6.1562q0-3.125 2.3906-4.9062t9.625-3.3906l3.0781-0.6875q9.5625-2.0469 13.594-5.7812t4.0312-10.422q0-7.625-6.0312-12.078-6.0312-4.4375-16.578-4.4375-4.3906 0-9.1562 0.85938t-10.031 2.5625v9.2812q4.9844-2.5938 9.8125-3.8906 4.8281-1.2812 9.5781-1.2812 6.3438 0 9.75 2.1719 3.4219 2.1719 3.4219 6.125 0 3.6562-2.4688 5.6094-2.4531 1.9531-10.812 3.7656l-3.125 0.73438q-8.3438 1.75-12.062 5.3906-3.7031 3.6406-3.7031 9.9844 0 7.7188 5.4688 11.906 5.4688 4.2031 15.531 4.2031 4.9688 0 9.3594-0.73438 4.4062-0.71875 8.1094-2.1875z"/>
</defs>
<use xlink:href="#aa"/>
<use x="63.183594" xlink:href="#ag"/>
<use x="122.363281" xlink:href="#g"/>
<use x="183.886719" xlink:href="#p"/>
</g>
</g>
<g clip-path="url(#a)">
<g transform="translate(64.034 715.49) scale(.1 -.1)">
<defs>
<path id="t" d="m45.406 46.391v29.594h8.9844v-75.984h-8.9844v8.2031q-2.8281-4.875-7.1562-7.25-4.3125-2.375-10.375-2.375-9.9062 0-16.141 7.9062-6.2188 7.9219-6.2188 20.812t6.2188 20.797q6.2344 7.9062 16.141 7.9062 6.0625 0 10.375-2.375 4.3281-2.3594 7.1562-7.2344zm-30.609-19.094q0-9.9062 4.0781-15.547t11.203-5.6406 11.219 5.6406q4.1094 5.6406 4.1094 15.547t-4.1094 15.547q-4.0938 5.6406-11.219 5.6406t-11.203-5.6406-4.0781-15.547z"/>
</defs>
<use xlink:href="#d"/>
<use x="61.279297" xlink:href="#h"/>
<use x="124.658203" xlink:href="#t"/>
</g>
</g>
<g clip-path="url(#a)">
<g transform="translate(58.126 715.49) scale(.1 -.1)">
<defs>
<path id="ax" d="m18.109 8.2031v-29h-9.0312v75.484h9.0312v-8.2969q2.8438 4.875 7.1562 7.2344 4.3281 2.375 10.328 2.375 9.9688 0 16.188-7.9062 6.2344-7.9062 6.2344-20.797t-6.2344-20.812q-6.2188-7.9062-16.188-7.9062-6 0-10.328 2.375-4.3125 2.375-7.1562 7.25zm30.578 19.094q0 9.9062-4.0781 15.547t-11.203 5.6406q-7.1406 0-11.219-5.6406t-4.0781-15.547 4.0781-15.547 11.219-5.6406q7.125 0 11.203 5.6406t4.0781 15.547z"/>
<path id="az" d="m45.406 27.984q0 9.7656-4.0312 15.125-4.0156 5.375-11.297 5.375-7.2188 0-11.25-5.375-4.0312-5.3594-4.0312-15.125 0-9.7188 4.0312-15.094t11.25-5.375q7.2812 0 11.297 5.375 4.0312 5.375 4.0312 15.094zm8.9844-21.203q0-13.953-6.2031-20.766-6.1875-6.8125-18.984-6.8125-4.7344 0-8.9375 0.70312t-8.1562 2.1719v8.7344q3.9531-2.1406 7.8125-3.1562 3.8594-1.0312 7.8594-1.0312 8.8438 0 13.234 4.6094t4.3906 13.938v4.4531q-2.7812-4.8438-7.125-7.2344t-10.406-2.3906q-10.047 0-16.203 7.6562-6.1562 7.6719-6.1562 20.328 0 12.688 6.1562 20.344 6.1562 7.6719 16.203 7.6719 6.0625 0 10.406-2.3906t7.125-7.2188v8.2969h8.9844z"/>
</defs>
<use xlink:href="#p"/>
<use x="52.099609" xlink:href="#ax"/>
<use x="115.576172" xlink:href="#ag"/>
<use x="174.755859" xlink:href="#az"/>
<use x="238.232422" xlink:href="#j"/>
<use x="266.015625" xlink:href="#d"/>
<use x="327.294922" xlink:href="#p"/>
<use x="379.394531" xlink:href="#p"/>
<use x="431.494141" xlink:href="#g"/>
<use x="493.017578" xlink:href="#p"/>
</g>
</g>
<g clip-path="url(#a)">
<g transform="translate(98.359 715.49) scale(.1 -.1)">
<defs>
<path id="as" d="m31 75.875q-6.5312-11.219-9.7188-22.219-3.1719-10.984-3.1719-22.266 0-11.266 3.2031-22.328t9.6875-22.25h-7.8125q-7.3125 11.484-10.953 22.562t-3.6406 22.016q0 10.891 3.6094 21.922 3.625 11.047 10.984 22.562z"/>
</defs>
<use xlink:href="#as"/>
</g>
</g>
<g clip-path="url(#a)">
<g transform="translate(115.16 715.49) scale(.1 -.1)">
<use xlink:href="#d"/>
</g>
</g>
<g clip-path="url(#a)">
<g transform="translate(132.6 715.49) scale(.1 -.1)">
<defs>
<path id="ah" d="m48.688 27.297q0 9.9062-4.0781 15.547t-11.203 5.6406q-7.1406 0-11.219-5.6406t-4.0781-15.547 4.0781-15.547 11.219-5.6406q7.125 0 11.203 5.6406t4.0781 15.547zm-30.578 19.094q2.8438 4.875 7.1562 7.2344 4.3281 2.375 10.328 2.375 9.9688 0 16.188-7.9062 6.2344-7.9062 6.2344-20.797t-6.2344-20.812q-6.2188-7.9062-16.188-7.9062-6 0-10.328 2.375-4.3125 2.375-7.1562 7.25v-8.2031h-9.0312v75.984h9.0312z"/>
<path id="o" d="m18.312 70.219v-15.531h18.5v-6.9844h-18.5v-29.688q0-6.6875 1.8281-8.5938t7.4531-1.9062h9.2188v-7.5156h-9.2188q-10.406 0-14.359 3.875-3.9531 3.8906-3.9531 14.141v29.688h-6.5938v6.9844h6.5938v15.531z"/>
</defs>
<use xlink:href="#ah"/>
<use x="63.476562" xlink:href="#f"/>
<use x="91.259766" xlink:href="#o"/>
</g>
</g>
<g clip-path="url(#a)">
<g transform="translate(143.88 715.49) scale(.1 -.1)">
<defs>
<path id="ai" d="m5.5156 54.688h42.672v-8.2031l-33.781-39.312h33.781v-7.1719h-43.891v8.2031l33.797 39.312h-32.578z"/>
</defs>
<use xlink:href="#t"/>
<use x="63.476562" xlink:href="#d"/>
<use x="124.755859" xlink:href="#ai"/>
<use x="177.246094" xlink:href="#ai"/>
<use x="229.736328" xlink:href="#j"/>
<use x="257.519531" xlink:href="#g"/>
<use x="319.042969" xlink:href="#t"/>
</g>
</g>
<g clip-path="url(#a)">
<g transform="translate(188.28 715.49) scale(.1 -.1)">
<defs>
<path id="af" d="m11.719 12.406h10.297v-8.4062l-8-15.625h-6.2969l4 15.625z"/>
</defs>
<use xlink:href="#af"/>
</g>
</g>
<g clip-path="url(#a)">
<g transform="translate(216.38 715.49) scale(.1 -.1)">
<use xlink:href="#f"/>
<use x="27.783203" xlink:href="#o"/>
</g>
</g>
<g clip-path="url(#a)">
<g transform="translate(248.57 715.49) scale(.1 -.1)">
<use xlink:href="#f"/>
<use x="27.783203" xlink:href="#p"/>
</g>
</g>
<g clip-path="url(#a)">
<g transform="translate(278.13 715.49) scale(.1 -.1)">
<defs>
<path id="aw" d="m8.5 21.578v33.109h8.9844v-32.766q0-7.7656 3.0156-11.656 3.0312-3.875 9.0938-3.875 7.2656 0 11.484 4.6406 4.2344 4.6406 4.2344 12.656v31h8.9844v-54.688h-8.9844v8.4062q-3.2656-4.9844-7.5938-7.4062-4.3125-2.4219-10.031-2.4219-9.4219 0-14.312 5.8594-4.875 5.8594-4.875 17.141z"/>
</defs>
<use xlink:href="#o"/>
<use x="39.208984" xlink:href="#i"/>
<use x="80.322266" xlink:href="#aw"/>
<use x="143.701172" xlink:href="#g"/>
</g>
</g>
<g clip-path="url(#a)">
<g transform="translate(325.61 715.49) scale(.1 -.1)">
<use xlink:href="#af"/>
</g>
</g>
<g clip-path="url(#a)">
<g transform="translate(362.86 715.49) scale(.1 -.1)">
<use xlink:href="#ah"/>
<use x="63.476562" xlink:href="#ag"/>
</g>
</g>
<g clip-path="url(#a)">
<g transform="translate(405.57 715.49) scale(.1 -.1)">
<defs>
<path id="ay" d="m54.891 33.016v-33.016h-8.9844v32.719q0 7.7656-3.0312 11.609-3.0312 3.8594-9.0781 3.8594-7.2812 0-11.484-4.6406-4.2031-4.625-4.2031-12.641v-30.906h-9.0312v75.984h9.0312v-29.797q3.2344 4.9375 7.5938 7.375 4.375 2.4375 10.094 2.4375 9.4219 0 14.25-5.8281 4.8438-5.8281 4.8438-17.156z"/>
</defs>
<use xlink:href="#o"/>
<use x="39.208984" xlink:href="#ay"/>
<use x="102.587891" xlink:href="#g"/>
</g>
</g>
<g clip-path="url(#a)">
<g transform="translate(449.57 715.49) scale(.1 -.1)">
<defs>
<path id="av" d="m2.9844 54.688h9.5156l17.094-45.891 17.094 45.891h9.5156l-20.516-54.688h-12.203z"/>
</defs>
<use xlink:href="#av"/>
<use x="59.179688" xlink:href="#f"/>
<use x="86.962891" xlink:href="#p"/>
<use x="139.0625" xlink:href="#o"/>
<use x="178.271484" xlink:href="#d"/>
</g>
</g>
<g clip-path="url(#a)">
<g transform="translate(507.48 715.49) scale(.1 -.1)">
<defs>
<path id="aj" d="m30.609 48.391q-7.2188 0-11.422-5.6406t-4.2031-15.453 4.1719-15.453q4.1875-5.6406 11.453-5.6406 7.1875 0 11.375 5.6562 4.2031 5.6719 4.2031 15.438 0 9.7188-4.2031 15.406-4.1875 5.6875-11.375 5.6875zm0 7.6094q11.719 0 18.406-7.625 6.7031-7.6094 6.7031-21.078 0-13.422-6.7031-21.078-6.6875-7.6406-18.406-7.6406-11.766 0-18.438 7.6406-6.6562 7.6562-6.6562 21.078 0 13.469 6.6562 21.078 6.6719 7.625 18.438 7.625z"/>
<path id="ak" d="m37.109 75.984v-7.4844h-8.5938q-4.8281 0-6.7188-1.9531-1.875-1.9531-1.875-7.0312v-4.8281h14.797v-6.9844h-14.797v-47.703h-9.0312v47.703h-8.5938v6.9844h8.5938v3.8125q0 9.125 4.25 13.297 4.25 4.1875 13.469 4.1875z"/>
</defs>
<use xlink:href="#aj"/>
<use x="61.181641" xlink:href="#ak"/>
</g>
</g>
<g clip-path="url(#a)">
<g transform="translate(562.85 715.49) scale(.1 -.1)">
<defs>
<path id="au" d="m33.797-14.703h-4.8906l-0.046875 14.703q-5.125 0.09375-10.25 1.1875-5.125 1.1094-10.312 3.3125v8.7812q4.9844-3.125 10.078-4.7188 5.1094-1.5781 10.531-1.625v22.266q-10.797 1.75-15.703 5.9531t-4.9062 11.531q0 7.9531 5.3281 12.531 5.3281 4.5938 15.281 5.2812v11.484h4.8906v-11.328q4.5312-0.20312 8.7812-0.96875 4.25-0.75 8.2969-2.0625v-8.5469q-4.0469 2.0469-8.3281 3.1719-4.2656 1.125-8.75 1.3125v-20.844q11.078-1.7031 16.297-6.1094 5.2344-4.3906 5.2344-12 0-8.25-5.5469-13.016t-15.984-5.5zm-4.8906 52.297v20.031q-5.6562-0.64062-8.6406-3.2344-2.9844-2.5781-2.9844-6.875 0-4.2031 2.75-6.5469 2.7656-2.3438 8.875-3.375zm4.8906-9.375v-21.141q6.1875 0.82812 9.3438 3.5156t3.1562 7.0781q0 4.2969-3.0156 6.8281-3 2.5469-9.4844 3.7188z"/>
</defs>
<use xlink:href="#au"/>
</g>
</g>
<g clip-path="url(#a)">
<g transform="translate(600.49 715.49) scale(.1 -.1)">
<defs>
<path id="m" d="m19.188 8.2969h34.422v-8.2969h-46.281v8.2969q5.6094 5.8125 15.297 15.594 9.7031 9.7969 12.188 12.641 4.7344 5.3125 6.6094 9 1.8906 3.6875 1.8906 7.25 0 5.8125-4.0781 9.4688-4.0781 3.6719-10.625 3.6719-4.6406 0-9.7969-1.6094-5.1406-1.6094-11-4.8906v9.9688q5.9531 2.3906 11.125 3.6094 5.1875 1.2188 9.4844 1.2188 11.328 0 18.062-5.6719 6.7344-5.6562 6.7344-15.125 0-4.5-1.6875-8.5312-1.6719-4.0156-6.125-9.4844-1.2188-1.4219-7.7656-8.1875-6.5312-6.7656-18.453-18.922z"/>
<path id="r" d="m31.781 66.406q-7.6094 0-11.453-7.5-3.8281-7.4844-3.8281-22.531 0-14.984 3.8281-22.484 3.8438-7.5 11.453-7.5 7.6719 0 11.5 7.5 3.8438 7.5 3.8438 22.484 0 15.047-3.8438 22.531-3.8281 7.5-11.5 7.5zm0 7.8125q12.266 0 18.734-9.7031 6.4688-9.6875 6.4688-28.141 0-18.406-6.4688-28.109-6.4688-9.6875-18.734-9.6875-12.25 0-18.719 9.6875-6.4688 9.7031-6.4688 28.109 0 18.453 6.4688 28.141 6.4688 9.7031 18.719 9.7031z"/>
<path id="e" d="m10.688 12.406h10.312v-12.406h-10.312z"/>
</defs>
<use xlink:href="#m"/>
<use x="63.623047" xlink:href="#af"/>
<use x="95.410156" xlink:href="#r"/>
<use x="159.033203" xlink:href="#r"/>
<use x="222.65625" xlink:href="#r"/>
<use x="286.279297" xlink:href="#e"/>
<use x="318.066406" xlink:href="#r"/>
<use x="381.689453" xlink:href="#r"/>
</g>
</g>
<g clip-path="url(#a)">
<g transform="translate(680.51 715.49) scale(.1 -.1)">
<defs>
<path id="ar" d="m8.0156 75.875h7.8125q7.3125-11.516 10.953-22.562 3.6406-11.031 3.6406-21.922 0-10.938-3.6406-22.016t-10.953-22.562h-7.8125q6.4844 11.188 9.6875 22.25t3.2031 22.328q0 11.281-3.2031 22.266-3.2031 11-9.6875 22.219z"/>
</defs>
<use xlink:href="#ar"/>
</g>
</g>
<g clip-path="url(#a)">
<g transform="translate(737.42 715.49) scale(.1 -.1)">
<use xlink:href="#t"/>
<use x="63.476562" xlink:href="#f"/>
<use x="91.259766" xlink:href="#t"/>
</g>
</g>
<g clip-path="url(#a)">
<g transform="translate(804.33 715.49) scale(.1 -.1)">
<defs>
<path id="at" d="m17.922 72.906v-27.109h-8.2969v27.109z"/>
</defs>
<use xlink:href="#h"/>
<use x="63.378906" xlink:href="#at"/>
<use x="90.869141" xlink:href="#o"/>
</g>
</g>
<g clip-path="url(#a)">
<g transform="translate(861.99 715.49) scale(.1 -.1)">
<use xlink:href="#i"/>
<use x="38.863281" xlink:href="#g"/>
<use x="100.386719" xlink:href="#l"/>
<use x="197.798828" xlink:href="#d"/>
<use x="259.078125" xlink:href="#f"/>
<use x="286.861328" xlink:href="#h"/>
</g>
</g>
<g clip-path="url(#a)">
<g transform="translate(946.13 715.49) scale(.1 -.1)">
<use xlink:href="#d"/>
<use x="61.279297" xlink:href="#o"/>
</g>
</g>
<g clip-path="url(#a)">
<g transform="translate(1016.2 715.49) scale(.1 -.1)">
<use xlink:href="#i"/>
<use x="38.863281" xlink:href="#g"/>
<use x="100.386719" xlink:href="#p"/>
<use x="152.486328" xlink:href="#o"/>
</g>
</g>
<g clip-path="url(#a)">
<g transform="translate(1096.5 715.49) scale(.1 -.1)">
<use xlink:href="#ak"/>
<use x="35.205078" xlink:href="#aj"/>
<use x="96.386719" xlink:href="#i"/>
</g>
</g>
<g clip-path="url(#a)">
<g transform="translate(1177.8 715.49) scale(.1 -.1)">
<use xlink:href="#d"/>
<use x="61.279297" xlink:href="#h"/>
</g>
</g>
<g clip-path="url(#a)">
<g transform="translate(1250.3 715.49) scale(.1 -.1)">
<use xlink:href="#f"/>
<use x="27.783203" xlink:href="#h"/>
<use x="91.162109" xlink:href="#p"/>
<use x="143.261719" xlink:href="#o"/>
<use x="182.470703" xlink:href="#d"/>
<use x="243.75" xlink:href="#h"/>
<use x="307.128906" xlink:href="#o"/>
</g>
</g>
<g clip-path="url(#a)">
<g transform="translate(1352.6 715.49) scale(.1 -.1)">
<use xlink:href="#e"/>
</g>
</g>
<g clip-path="url(#a)">
<g transform="translate(773.66 36.699) scale(.1 -.1)">
<defs>
<path id="c" d="m12.406 8.2969h16.109v55.625l-17.531-3.5156v8.9844l17.438 3.5156h9.8594v-64.609h16.109v-8.2969h-41.984z"/>
</defs>
<use xlink:href="#c"/>
<use x="63.623047" xlink:href="#e"/>
<use x="95.410156" xlink:href="#c"/>
</g>
</g>
<g clip-path="url(#a)">
<g transform="translate(773.66 134.56) scale(.1 -.1)">
<use xlink:href="#c"/>
<use x="63.623047" xlink:href="#e"/>
<use x="95.410156" xlink:href="#m"/>
</g>
</g>
<g clip-path="url(#a)">
<g transform="translate(129.62 232.27) scale(.1 -.1)">
<defs>
<path id="ae" d="m37.797 64.312-24.906-38.922h24.906zm-2.5938 8.5938h12.406v-47.516h10.406v-8.2031h-10.406v-17.188h-9.8125v17.188h-32.906v9.5156z"/>
</defs>
<use xlink:href="#c"/>
<use x="63.623047" xlink:href="#e"/>
<use x="95.410156" xlink:href="#ae"/>
</g>
</g>
<g clip-path="url(#a)">
<g transform="translate(737.21 620.39) scale(.1 -.1)">
<defs>
<path id="y" d="m10.797 72.906h38.719v-8.3125h-29.688v-17.859q2.1406 0.73438 4.2812 1.0938 2.1562 0.35938 4.3125 0.35938 12.203 0 19.328-6.6875 7.1406-6.6875 7.1406-18.109 0-11.766-7.3281-18.297-7.3281-6.5156-20.656-6.5156-4.5938 0-9.3594 0.78125-4.75 0.78125-9.8281 2.3438v9.9219q4.3906-2.3906 9.0781-3.5625t9.9062-1.1719q8.4531 0 13.375 4.4375 4.9375 4.4375 4.9375 12.062 0 7.6094-4.9375 12.047-4.9219 4.4531-13.375 4.4531-3.9531 0-7.8906-0.875-3.9219-0.875-8.0156-2.7344z"/>
</defs>
<use xlink:href="#c"/>
<use x="63.623047" xlink:href="#e"/>
<use x="95.410156" xlink:href="#y"/>
</g>
</g>
<g clip-path="url(#a)">
<g transform="translate(802.89 620.39) scale(.1 -.1)">
<defs>
<path id="x" d="m33.016 40.375q-6.6406 0-10.531-4.5469-3.875-4.5312-3.875-12.438 0-7.8594 3.875-12.438 3.8906-4.5625 10.531-4.5625t10.516 4.5625q3.875 4.5781 3.875 12.438 0 7.9062-3.875 12.438-3.875 4.5469-10.516 4.5469zm19.578 30.922v-8.9844q-3.7188 1.75-7.5 2.6719-3.7812 0.9375-7.5 0.9375-9.7656 0-14.922-6.5938-5.1406-6.5938-5.875-19.922 2.875 4.25 7.2188 6.5156 4.3594 2.2656 9.5781 2.2656 10.984 0 17.359-6.6719 6.375-6.6562 6.375-18.125 0-11.234-6.6406-18.031-6.6406-6.7812-17.672-6.7812-12.656 0-19.344 9.6875-6.6875 9.7031-6.6875 28.109 0 17.281 8.2031 27.562t22.016 10.281q3.7188 0 7.5-0.73438t7.8906-2.1875z"/>
</defs>
<use xlink:href="#c"/>
<use x="63.623047" xlink:href="#e"/>
<use x="95.410156" xlink:href="#x"/>
</g>
</g>
<g clip-path="url(#a)">
<g transform="translate(871.55 620.39) scale(.1 -.1)">
<defs>
<path id="w" d="m8.2031 72.906h46.875v-4.2031l-26.469-68.703h-10.297l24.906 64.594h-35.016z"/>
</defs>
<use xlink:href="#c"/>
<use x="63.623047" xlink:href="#e"/>
<use x="95.410156" xlink:href="#w"/>
</g>
</g>
<g clip-path="url(#a)">
<g transform="translate(980.52 523.96) scale(.1 -.1)">
<defs>
<path id="ad" d="m31.781 34.625q-7.0312 0-11.062-3.7656-4.0156-3.7656-4.0156-10.344 0-6.5938 4.0156-10.359 4.0312-3.7656 11.062-3.7656t11.078 3.7812q4.0625 3.7969 4.0625 10.344 0 6.5781-4.0312 10.344-4.0156 3.7656-11.109 3.7656zm-9.8594 4.1875q-6.3438 1.5625-9.8906 5.9062-3.5312 4.3594-3.5312 10.609 0 8.7344 6.2188 13.812 6.2344 5.0781 17.062 5.0781 10.891 0 17.094-5.0781t6.2031-13.812q0-6.25-3.5469-10.609-3.5312-4.3438-9.8281-5.9062 7.125-1.6562 11.094-6.5 3.9844-4.8281 3.9844-11.797 0-10.609-6.4688-16.281-6.4688-5.6562-18.531-5.6562-12.047 0-18.531 5.6562-6.4688 5.6719-6.4688 16.281 0 6.9688 4 11.797 4.0156 4.8438 11.141 6.5zm-3.6094 15.578q0-5.6562 3.5312-8.8281 3.5469-3.1719 9.9375-3.1719 6.3594 0 9.9375 3.1719 3.5938 3.1719 3.5938 8.8281 0 5.6719-3.5938 8.8438-3.5781 3.1719-9.9375 3.1719-6.3906 0-9.9375-3.1719-3.5312-3.1719-3.5312-8.8438z"/>
</defs>
<use xlink:href="#c"/>
<use x="63.623047" xlink:href="#e"/>
<use x="95.410156" xlink:href="#ad"/>
</g>
</g>
<g clip-path="url(#a)">
<g transform="translate(1219.4 523.96) scale(.1 -.1)">
<defs>
<path id="v" d="m10.984 1.5156v8.9844q3.7188-1.7656 7.5156-2.6875 3.8125-0.92188 7.4844-0.92188 9.7656 0 14.906 6.5625 5.1562 6.5625 5.8906 19.953-2.8281-4.2031-7.1875-6.4531-4.3438-2.25-9.6094-2.25-10.938 0-17.312 6.6094-6.375 6.625-6.375 18.109 0 11.219 6.6406 18 6.6406 6.7969 17.672 6.7969 12.656 0 19.312-9.7031 6.6719-9.6875 6.6719-28.141 0-17.234-8.1875-27.516-8.1719-10.281-21.984-10.281-3.7188 0-7.5312 0.73438-3.7969 0.73438-7.9062 2.2031zm19.625 30.906q6.6406 0 10.516 4.5312 3.8906 4.5469 3.8906 12.469 0 7.8594-3.8906 12.422-3.875 4.5625-10.516 4.5625t-10.516-4.5625-3.875-12.422q0-7.9219 3.875-12.469 3.875-4.5312 10.516-4.5312z"/>
</defs>
<use xlink:href="#c"/>
<use x="63.623047" xlink:href="#e"/>
<use x="95.410156" xlink:href="#v"/>
</g>
</g>
<g clip-path="url(#a)">
<g transform="translate(1092.3 620.39) scale(.1 -.1)">
<use xlink:href="#c"/>
<use x="63.623047" xlink:href="#e"/>
<use x="95.410156" xlink:href="#c"/>
<use x="159.033203" xlink:href="#c"/>
</g>
</g>
<g clip-path="url(#a)">
<g transform="translate(1172.9 620.39) scale(.1 -.1)">
<use xlink:href="#c"/>
<use x="63.623047" xlink:href="#e"/>
<use x="95.410156" xlink:href="#c"/>
<use x="159.033203" xlink:href="#m"/>
</g>
</g>
<g clip-path="url(#a)">
<g transform="translate(1256.5 620.39) scale(.1 -.1)">
<defs>
<path id="n" d="m40.578 39.312q7.0781-1.5156 11.047-6.3125 3.9844-4.7812 3.9844-11.812 0-10.781-7.4219-16.703-7.4219-5.9062-21.094-5.9062-4.5781 0-9.4375 0.90625t-10.031 2.7188v9.5156q4.0938-2.3906 8.9688-3.6094 4.8906-1.2188 10.219-1.2188 9.2656 0 14.125 3.6562t4.8594 10.641q0 6.4531-4.5156 10.078-4.5156 3.6406-12.562 3.6406h-8.5v8.1094h8.8906q7.2656 0 11.125 2.9062t3.8594 8.375q0 5.6094-3.9844 8.6094-3.9688 3.0156-11.391 3.0156-4.0625 0-8.7031-0.89062-4.6406-0.875-10.203-2.7188v8.7812q5.625 1.5625 10.531 2.3438t9.25 0.78125q11.234 0 17.766-5.1094 6.5469-5.0938 6.5469-13.781 0-6.0625-3.4688-10.234t-9.8594-5.7812z"/>
</defs>
<use xlink:href="#c"/>
<use x="63.623047" xlink:href="#e"/>
<use x="95.410156" xlink:href="#c"/>
<use x="159.033203" xlink:href="#n"/>
</g>
</g>
<g clip-path="url(#a)">
<g transform="translate(940.02 620.39) scale(.1 -.1)">
<use xlink:href="#c"/>
<use x="63.623047" xlink:href="#e"/>
<use x="95.410156" xlink:href="#c"/>
<use x="159.033203" xlink:href="#ae"/>
</g>
</g>
<g clip-path="url(#a)">
<g transform="translate(1014.7 620.39) scale(.1 -.1)">
<use xlink:href="#c"/>
<use x="63.623047" xlink:href="#e"/>
<use x="95.410156" xlink:href="#c"/>
<use x="159.033203" xlink:href="#y"/>
</g>
</g>
<g clip-path="url(#a)">
<g transform="translate(63.303 523.96) scale(.1 -.1)">
<use xlink:href="#c"/>
<use x="63.623047" xlink:href="#e"/>
<use x="95.410156" xlink:href="#c"/>
<use x="159.033203" xlink:href="#x"/>
</g>
</g>
<g clip-path="url(#a)">
<g transform="translate(226.83 329.77) scale(.1 -.1)">
<use xlink:href="#c"/>
<use x="63.623047" xlink:href="#e"/>
<use x="95.410156" xlink:href="#c"/>
<use x="159.033203" xlink:href="#w"/>
</g>
</g>
<g clip-path="url(#a)">
<g transform="translate(117.54 620.39) scale(.1 -.1)">
<use xlink:href="#c"/>
<use x="63.623047" xlink:href="#e"/>
<use x="95.410156" xlink:href="#c"/>
<use x="159.033203" xlink:href="#v"/>
</g>
</g>
<g clip-path="url(#a)">
<g transform="translate(151.87 620.39) scale(.1 -.1)">
<use xlink:href="#c"/>
<use x="63.623047" xlink:href="#e"/>
<use x="95.410156" xlink:href="#m"/>
<use x="159.033203" xlink:href="#r"/>
</g>
</g>
<g clip-path="url(#a)">
<g transform="translate(242.43 620.39) scale(.1 -.1)">
<use xlink:href="#c"/>
<use x="63.623047" xlink:href="#e"/>
<use x="95.410156" xlink:href="#m"/>
<use x="159.033203" xlink:href="#c"/>
</g>
</g>
<g clip-path="url(#a)">
<g transform="translate(517.83 427.03) scale(.1 -.1)">
<use xlink:href="#c"/>
<use x="63.623047" xlink:href="#e"/>
<use x="95.410156" xlink:href="#m"/>
<use x="159.033203" xlink:href="#m"/>
</g>
</g>
<g clip-path="url(#a)">
<g transform="translate(403.64 523.96) scale(.1 -.1)">
<use xlink:href="#c"/>
<use x="63.623047" xlink:href="#e"/>
<use x="95.410156" xlink:href="#m"/>
<use x="159.033203" xlink:href="#y"/>
</g>
</g>
<g clip-path="url(#a)">
<g transform="translate(501.16 620.39) scale(.1 -.1)">
<use xlink:href="#c"/>
<use x="63.623047" xlink:href="#e"/>
<use x="95.410156" xlink:href="#m"/>
<use x="159.033203" xlink:href="#x"/>
</g>
</g>
<g clip-path="url(#a)">
<g transform="translate(554.9 620.39) scale(.1 -.1)">
<use xlink:href="#c"/>
<use x="63.623047" xlink:href="#e"/>
<use x="95.410156" xlink:href="#m"/>
<use x="159.033203" xlink:href="#w"/>
</g>
</g>
<g clip-path="url(#a)">
<g transform="translate(611.62 620.39) scale(.1 -.1)">
<use xlink:href="#c"/>
<use x="63.623047" xlink:href="#e"/>
<use x="95.410156" xlink:href="#m"/>
<use x="159.033203" xlink:href="#ad"/>
</g>
</g>
<g clip-path="url(#a)">
<g transform="translate(357.86 620.39) scale(.1 -.1)">
<use xlink:href="#c"/>
<use x="63.623047" xlink:href="#e"/>
<use x="95.410156" xlink:href="#m"/>
<use x="159.033203" xlink:href="#v"/>
</g>
</g>
<g clip-path="url(#a)">
<g transform="translate(402.64 620.39) scale(.1 -.1)">
<use xlink:href="#c"/>
<use x="63.623047" xlink:href="#e"/>
<use x="95.410156" xlink:href="#n"/>
<use x="159.033203" xlink:href="#r"/>
</g>
</g>
<g clip-path="url(#a)">
<g transform="translate(450.41 620.39) scale(.1 -.1)">
<use xlink:href="#c"/>
<use x="63.623047" xlink:href="#e"/>
<use x="95.410156" xlink:href="#n"/>
<use x="159.033203" xlink:href="#c"/>
</g>
</g>
<g clip-path="url(#a)">
<g transform="translate(53.352 620.39) scale(.1 -.1)">
<use xlink:href="#c"/>
<use x="63.623047" xlink:href="#e"/>
<use x="95.410156" xlink:href="#n"/>
<use x="159.033203" xlink:href="#m"/>
</g>
</g>
<g clip-path="url(#a)">
<g transform="translate(62.308 620.39) scale(.1 -.1)">
<use xlink:href="#c"/>
<use x="63.623047" xlink:href="#e"/>
<use x="95.410156" xlink:href="#n"/>
<use x="159.033203" xlink:href="#n"/>
</g>
</g>
<g clip-path="url(#a)">
<g transform="translate(74.25 620.39) scale(.1 -.1)">
<use xlink:href="#c"/>
<use x="63.623047" xlink:href="#e"/>
<use x="95.410156" xlink:href="#n"/>
<use x="159.033203" xlink:href="#ae"/>
</g>
</g>
<g clip-path="url(#a)">
<g transform="translate(89.177 620.39) scale(.1 -.1)">
<use xlink:href="#c"/>
<use x="63.623047" xlink:href="#e"/>
<use x="95.410156" xlink:href="#n"/>
<use x="159.033203" xlink:href="#y"/>
</g>
</g>
<g clip-path="url(#a)">
<g transform="translate(178.74 620.39) scale(.1 -.1)">
<use xlink:href="#c"/>
<use x="63.623047" xlink:href="#e"/>
<use x="95.410156" xlink:href="#n"/>
<use x="159.033203" xlink:href="#x"/>
</g>
</g>
<g clip-path="url(#a)">
<g transform="translate(316.07 620.39) scale(.1 -.1)">
<use xlink:href="#c"/>
<use x="63.623047" xlink:href="#e"/>
<use x="95.410156" xlink:href="#n"/>
<use x="159.033203" xlink:href="#w"/>
</g>
</g>
<g clip-path="url(#a)">
<g transform="translate(671.33 620.39) scale(.1 -.1)">
<use xlink:href="#c"/>
<use x="63.623047" xlink:href="#e"/>
<use x="95.410156" xlink:href="#n"/>
<use x="159.033203" xlink:href="#ad"/>
</g>
</g>
<g clip-path="url(#a)">
<g transform="translate(1343 620.39) scale(.1 -.1)">
<use xlink:href="#c"/>
<use x="63.623047" xlink:href="#e"/>
<use x="95.410156" xlink:href="#n"/>
<use x="159.033203" xlink:href="#v"/>
</g>
</g>
<defs>
<clipPath id="a">
<rect width="1418.7" height="746.67"/>
</clipPath>
</defs>
</svg>
