<?xml version="1.0" encoding="UTF-8"?>
<!DOCTYPE svg  PUBLIC '-//W3C//DTD SVG 1.1//EN'  'http://www.w3.org/Graphics/SVG/1.1/DTD/svg11.dtd'>
<svg width="1368pt" height="720pt" version="1.1" viewBox="0 0 1368 720" xmlns="http://www.w3.org/2000/svg" xmlns:xlink="http://www.w3.org/1999/xlink">
<metadata>
<rdf:RDF xmlns:cc="http://creativecommons.org/ns#" xmlns:dc="http://purl.org/dc/elements/1.1/" xmlns:rdf="http://www.w3.org/1999/02/22-rdf-syntax-ns#">
<cc:Work>
<dc:type rdf:resource="http://purl.org/dc/dcmitype/StillImage"/>
<dc:date>2021-06-09T07:28:53.591109</dc:date>
<dc:format>image/svg+xml</dc:format>
<dc:creator>
<cc:Agent>
<dc:title>Matplotlib v3.3.3, https://matplotlib.org/</dc:title>
</cc:Agent>
</dc:creator>
</cc:Work>
</rdf:RDF>
</metadata>
<defs>
<style type="text/css">*{stroke-linecap:butt;stroke-linejoin:round;}</style>
</defs>
<path d="m0 720h1368v-720h-1368z" fill="#fff"/>
<g fill="none" stroke="#000">
<path d="m327.01 32.727-264.83 525.73" clip-path="url(#a)"/>
<path d="m327.01 32.727-222.01 263.82" clip-path="url(#a)"/>
<path d="m327.01 32.727-15.378 263.82" clip-path="url(#a)"/>
<path d="m327.01 32.727 198.07 525.73" clip-path="url(#a)"/>
<path d="m327.01 32.727 467.13 132.08" clip-path="url(#a)"/>
<path d="m327.01 32.727-162.99 525.73" clip-path="url(#a)"/>
<path d="m62.182 558.45v128.82" clip-path="url(#a)"/>
<path d="m105 296.55-23.53 131.3" clip-path="url(#a)"/>
<path d="m105 296.55 23.53 261.91" clip-path="url(#a)"/>
<path d="m311.63 296.55-104.41 131.3" clip-path="url(#a)"/>
<path d="m311.63 296.55-55.033 261.91" clip-path="url(#a)"/>
<path d="m311.63 296.55 23.145 131.3" clip-path="url(#a)"/>
<path d="m311.63 296.55 136.3 131.3" clip-path="url(#a)"/>
<path d="m525.07 558.45v128.82" clip-path="url(#a)"/>
<path d="m794.14 164.8-213.52 393.65" clip-path="url(#a)"/>
<path d="m794.14 164.8-154.89 393.65" clip-path="url(#a)"/>
<path d="m794.14 164.8-93.166 393.65" clip-path="url(#a)"/>
<path d="m794.14 164.8 96.105 131.74" clip-path="url(#a)"/>
<path d="m794.14 164.8 425.27 393.65" clip-path="url(#a)"/>
<path d="m794.14 164.8-571.49 393.65" clip-path="url(#a)" stroke-dasharray="3.7,1.6"/>
<path d="m794.14 164.8 511.68 393.65" clip-path="url(#a)"/>
<path d="m580.62 558.45v128.82" clip-path="url(#a)"/>
<path d="m639.25 558.45v128.82" clip-path="url(#a)"/>
<path d="m700.97 558.45v128.82" clip-path="url(#a)"/>
<path d="m890.24 296.55-124.47 261.91" clip-path="url(#a)"/>
<path d="m890.24 296.55-56.576 261.91" clip-path="url(#a)"/>
<path d="m890.24 296.55 14.401 261.91" clip-path="url(#a)"/>
<path d="m890.24 296.55 166.64 131.3" clip-path="url(#a)"/>
<path d="m1219.4 558.45v128.82" clip-path="url(#a)"/>
<path d="m765.78 558.45v128.82" clip-path="url(#a)"/>
<path d="m833.67 558.45v128.82" clip-path="url(#a)"/>
<path d="m904.65 558.45v128.82" clip-path="url(#a)"/>
<path d="m1056.9 427.84-78.177 130.61" clip-path="url(#a)"/>
<path d="m1056.9 427.84-1.0286 130.61" clip-path="url(#a)"/>
<path d="m1056.9 427.84 79.206 130.61" clip-path="url(#a)"/>
<path d="m978.71 558.45v128.82" clip-path="url(#a)"/>
<path d="m1055.9 558.45v128.82" clip-path="url(#a)"/>
<path d="m1136.1 558.45v128.82" clip-path="url(#a)"/>
<path d="m207.22 427.84-15.43 130.61" clip-path="url(#a)"/>
<path d="m207.22 427.84 15.43 130.61" clip-path="url(#a)"/>
<path d="m256.6 558.45v128.82" clip-path="url(#a)"/>
<path d="m334.77 427.84-41.146 130.61" clip-path="url(#a)"/>
<path d="m334.77 427.84-1.0286 130.61" clip-path="url(#a)"/>
<path d="m334.77 427.84 42.175 130.61" clip-path="url(#a)"/>
<path d="m447.93 427.84-24.688 130.61" clip-path="url(#a)"/>
<path d="m447.93 427.84 24.688 130.61" clip-path="url(#a)"/>
<path d="m423.24 558.45v128.82" clip-path="url(#a)"/>
<path d="m472.61 558.45v128.82" clip-path="url(#a)"/>
<path d="m293.63 558.45v128.82" clip-path="url(#a)"/>
<path d="m333.75 558.45v128.82" clip-path="url(#a)"/>
<path d="m376.95 558.45v128.82" clip-path="url(#a)"/>
<path d="m191.79 558.45v128.82" clip-path="url(#a)"/>
<path d="m222.65 558.45v128.82" clip-path="url(#a)"/>
<path d="m81.469 427.84-10.029 130.61" clip-path="url(#a)"/>
<path d="m81.469 427.84 10.029 130.61" clip-path="url(#a)"/>
<path d="m128.53 558.45-10.801 128.82" clip-path="url(#a)"/>
<path d="m128.53 558.45 10.801 128.82" clip-path="url(#a)"/>
<path d="m71.44 558.45v128.82" clip-path="url(#a)"/>
<path d="m91.498 558.45-7.7149 128.82" clip-path="url(#a)"/>
<path d="m91.498 558.45 7.7149 128.82" clip-path="url(#a)"/>
<path d="m164.02 558.45v128.82" clip-path="url(#a)"/>
<path d="m1305.8 558.45v128.82" clip-path="url(#a)"/>
</g>
<path d="m199.19 300.4 2.0053-3.9809q1.0797-2.1434-1.0637-3.2231l-6.9148-3.4832q-2.1434-1.0797-3.2231 1.0637l-2.0053 3.981q-1.0797 2.1434 1.0637 3.2231l6.9148 3.4832q2.1434 1.0797 3.2231-1.0637z" clip-path="url(#a)" fill="#fff" stroke="#fff"/>
<g clip-path="url(#a)">
<g transform="translate(195.56 298.57) rotate(-63.264) scale(.08 -.08)">
<defs>
<path id="ab" d="m9.8125 72.906h9.8594v-64.609h35.5v-8.2969h-45.359z"/>
</defs>
<use xlink:href="#ab"/>
</g>
</g>
<path d="m218.86 170.98 3.8737-4.6032q1.5453-1.8363-0.29103-3.3816l-5.9241-4.9852q-1.8363-1.5453-3.3816 0.29103l-3.8737 4.6032q-1.5453 1.8363 0.29103 3.3816l5.9241 4.9852q1.8363 1.5453 3.3816-0.29103z" clip-path="url(#a)" fill="#fff" stroke="#fff"/>
<g clip-path="url(#a)">
<g transform="translate(215.76 168.36) rotate(-49.919) scale(.08 -.08)">
<defs>
<path id="ac" d="m9.8125 72.906h9.8594v-29.891h35.844v29.891h9.8594v-72.906h-9.8594v34.719h-35.844v-34.719h-9.8594z"/>
</defs>
<use xlink:href="#ac"/>
</g>
</g>
<path d="m325.4 168 0.35009-6.0061q0.13966-2.3959-2.2563-2.5356l-7.7294-0.45054q-2.3959-0.13966-2.5356 2.2563l-0.35009 6.0061q-0.13966 2.3959 2.2563 2.5356l7.7294 0.45054q2.3959 0.13966 2.5356-2.2563z" clip-path="url(#a)" fill="#fff" stroke="#fff"/>
<g clip-path="url(#a)">
<g transform="translate(321.35 167.77) rotate(-86.664) scale(.08 -.08)">
<use xlink:href="#ac"/>
</g>
</g>
<path d="m419.39 295.72 1.5715 4.1713q0.84614 2.2459 3.092 1.3998l7.2454-2.7297q2.2459-0.84614 1.3998-3.092l-1.5715-4.1713q-0.84614-2.2459-3.092-1.3998l-7.2454 2.7297q-2.2459 0.84614-1.3998 3.092z" clip-path="url(#a)" fill="#fff" stroke="#fff"/>
<g clip-path="url(#a)">
<g transform="translate(423.19 294.28) rotate(69.356) scale(.08 -.08)">
<use xlink:href="#ab"/>
</g>
</g>
<path d="m555.97 103.98 5.7893 1.6369q2.3095 0.65297 2.9624-1.6565l2.1065-7.4504q0.65297-2.3095-1.6565-2.9624l-5.7893-1.6369q-2.3095-0.65298-2.9624 1.6565l-2.1065 7.4504q-0.65297 2.3095 1.6565 2.9624z" clip-path="url(#a)" fill="#fff" stroke="#fff"/>
<g clip-path="url(#a)">
<g transform="translate(557.08 100.07) rotate(15.788) scale(.08 -.08)">
<use xlink:href="#ac"/>
</g>
</g>
<path d="m250.64 300.24 1.7338-5.5924q0.71069-2.2924-1.5817-3.0031l-7.3953-2.2927q-2.2924-0.71069-3.0031 1.5817l-1.7338 5.5924q-0.71069 2.2924 1.5817 3.0031l7.3953 2.2927q2.2924 0.71069 3.0031-1.5817z" clip-path="url(#a)" fill="#fff" stroke="#fff"/>
<g clip-path="url(#a)">
<g transform="translate(246.75 299.04) rotate(-72.775) scale(.08 -.08)">
<defs>
<path id="aj" d="m8.6875 72.906h9.9219v-44.297q0-11.719 4.2344-16.875 4.25-5.1406 13.781-5.1406 9.4688 0 13.719 5.1406 4.25 5.1562 4.25 16.875v44.297h9.9062v-45.516q0-14.25-7.0625-21.531-7.0469-7.2812-20.812-7.2812-13.828 0-20.891 7.2812-7.0469 7.2812-7.0469 21.531z"/>
</defs>
<use xlink:href="#aj"/>
</g>
</g>
<path d="m55.911 605.96v33.808q0 2.4 2.4 2.4h7.7425q2.4 0 2.4-2.4v-33.808q0-2.4-2.4-2.4h-7.7425q-2.4 0-2.4 2.4z" clip-path="url(#a)" fill="#fff" stroke="#fff"/>
<g clip-path="url(#a)">
<g transform="translate(59.974 605.96) rotate(90) scale(.08 -.08)">
<defs>
<path id="l" d="m-0.29688 72.906h61.672v-8.3125h-25.875v-64.594h-9.9062v64.594h-25.891z"/>
<path id="d" d="m56.203 29.594v-4.3906h-41.312q0.59375-9.2812 5.5938-14.141t13.938-4.8594q5.1719 0 10.031 1.2656t9.6562 3.8125v-8.5q-4.8438-2.0469-9.9219-3.125t-10.297-1.0781q-13.094 0-20.734 7.6094-7.6406 7.625-7.6406 20.625 0 13.422 7.25 21.297 7.25 7.8906 19.562 7.8906 11.031 0 17.453-7.1094 6.4219-7.0938 6.4219-19.297zm-8.9844 2.6406q-0.09375 7.3594-4.125 11.75-4.0312 4.4062-10.672 4.4062-7.5156 0-12.031-4.25t-5.2031-11.969z"/>
<path id="i" d="m41.109 46.297q-1.5156 0.875-3.2969 1.2812-1.7812 0.42188-3.9219 0.42188-7.625 0-11.703-4.9531t-4.0781-14.234v-28.812h-9.0312v54.688h9.0312v-8.5q2.8438 4.9844 7.375 7.3906 4.5469 2.4219 11.047 2.4219 0.92188 0 2.0469-0.125 1.125-0.10938 2.4844-0.35938z"/>
<path id="k" d="m52 44.188q3.375 6.0625 8.0625 8.9375t11.031 2.875q8.5469 0 13.188-5.9844 4.6406-5.9688 4.6406-17v-33.016h-9.0312v32.719q0 7.8594-2.7969 11.656-2.7812 3.8125-8.4844 3.8125-6.9844 0-11.047-4.6406-4.0469-4.625-4.0469-12.641v-30.906h-9.0312v32.719q0 7.9062-2.7812 11.688t-8.5938 3.7812q-6.8906 0-10.953-4.6562-4.0469-4.6562-4.0469-12.625v-30.906h-9.0312v54.688h9.0312v-8.5q3.0781 5.0312 7.375 7.4219t10.203 2.3906q5.9688 0 10.141-3.0312 4.1719-3.0156 6.1719-8.7812z"/>
<path id="g" d="m9.4219 54.688h8.9844v-54.688h-8.9844zm0 21.297h8.9844v-11.391h-8.9844z"/>
<path id="f" d="m54.891 33.016v-33.016h-8.9844v32.719q0 7.7656-3.0312 11.609-3.0312 3.8594-9.0781 3.8594-7.2812 0-11.484-4.6406-4.2031-4.625-4.2031-12.641v-30.906h-9.0312v54.688h9.0312v-8.5q3.2344 4.9375 7.5938 7.375 4.375 2.4375 10.094 2.4375 9.4219 0 14.25-5.8281 4.8438-5.8281 4.8438-17.156z"/>
<path id="e" d="m34.281 27.484q-10.891 0-15.094-2.4844t-4.2031-8.5q0-4.7812 3.1562-7.5938 3.1562-2.7969 8.5625-2.7969 7.4844 0 12 5.2969t4.5156 14.078v2zm17.922 3.7188v-31.203h-8.9844v8.2969q-3.0781-4.9688-7.6719-7.3438t-11.234-2.375q-8.3906 0-13.359 4.7188-4.9531 4.7188-4.9531 12.625 0 9.2188 6.1719 13.906 6.1875 4.6875 18.438 4.6875h12.609v0.89062q0 6.2031-4.0781 9.5938t-11.453 3.3906q-4.6875 0-9.1406-1.125-4.4375-1.125-8.5312-3.375v8.3125q4.9219 1.9062 9.5625 2.8438 4.6406 0.95312 9.0312 0.95312 11.875 0 17.734-6.1562 5.8594-6.1406 5.8594-18.641z"/>
<path id="j" d="m9.4219 75.984h8.9844v-75.984h-8.9844z"/>
</defs>
<use xlink:href="#l"/>
<use x="44.083984" xlink:href="#d"/>
<use x="105.607422" xlink:href="#i"/>
<use x="144.970703" xlink:href="#k"/>
<use x="242.382812" xlink:href="#g"/>
<use x="270.166016" xlink:href="#f"/>
<use x="333.544922" xlink:href="#e"/>
<use x="394.824219" xlink:href="#j"/>
</g>
</g>
<path d="m98.924 365.99 0.96538-5.3867q0.42337-2.3624-1.939-2.7857l-7.6211-1.3658q-2.3624-0.42337-2.7857 1.939l-0.96538 5.3867q-0.42337 2.3624 1.939 2.7857l7.6211 1.3658q2.3624 0.42337 2.7857-1.939z" clip-path="url(#a)" fill="#fff" stroke="#fff"/>
<g clip-path="url(#a)">
<g transform="translate(94.924 365.28) rotate(-79.84) scale(.08 -.08)">
<defs>
<path id="r" d="m34.188 63.188-13.391-36.281h26.812zm-5.5781 9.7188h11.188l27.781-72.906h-10.25l-6.6406 18.703h-32.859l-6.6406-18.703h-10.406z"/>
</defs>
<use xlink:href="#r"/>
</g>
</g>
<path d="m110.3 425.66 0.43164 4.8044q0.21476 2.3904 2.6051 2.1756l7.7114-0.69281q2.3904-0.21476 2.1756-2.6051l-0.43164-4.8044q-0.21476-2.3904-2.6051-2.1756l-7.7114 0.69281q-2.3904 0.21476-2.1756 2.6051z" clip-path="url(#a)" fill="#fff" stroke="#fff"/>
<g clip-path="url(#a)">
<g transform="translate(114.35 425.3) rotate(84.866) scale(.08 -.08)">
<defs>
<path id="aa" d="m19.672 64.797v-27.391h12.406q6.8906 0 10.641 3.5625 3.7656 3.5625 3.7656 10.156 0 6.5469-3.7656 10.109-3.75 3.5625-10.641 3.5625zm-9.8594 8.1094h22.266q12.266 0 18.531-5.5469 6.2812-5.5469 6.2812-16.234 0-10.797-6.2812-16.312-6.2656-5.5156-18.531-5.5156h-12.406v-29.297h-9.8594z"/>
</defs>
<use xlink:href="#aa"/>
</g>
</g>
<path d="m262.63 368.24 3.4061-4.2833q1.4938-1.8785-0.38469-3.3722l-6.06-4.819q-1.8785-1.4938-3.3722 0.38469l-3.4061 4.2833q-1.4938 1.8785 0.38469 3.3722l6.06 4.819q1.8785 1.4938 3.3722-0.38469z" clip-path="url(#a)" fill="#fff" stroke="#fff"/>
<g clip-path="url(#a)">
<g transform="translate(259.45 365.71) rotate(-51.508) scale(.08 -.08)">
<use xlink:href="#r"/>
</g>
</g>
<path d="m289.75 431.15 0.99192-4.7207q0.49352-2.3487-1.8552-2.8422l-7.577-1.5921q-2.3487-0.49352-2.8422 1.8552l-0.99192 4.7207q-0.49352 2.3487 1.8552 2.8422l7.577 1.5921q2.3487 0.49352 2.8422-1.8552z" clip-path="url(#a)" fill="#fff" stroke="#fff"/>
<g clip-path="url(#a)">
<g transform="translate(285.78 430.31) rotate(-78.133) scale(.08 -.08)">
<use xlink:href="#aa"/>
</g>
</g>
<path d="m316.55 360.59 0.95003 5.3894q0.41664 2.3636 2.7802 1.9469l7.6249-1.3441q2.3636-0.41664 1.9469-2.7802l-0.95003-5.3894q-0.41664-2.3636-2.7802-1.9469l-7.6249 1.3441q-2.3636 0.41664-1.9469 2.7802z" clip-path="url(#a)" fill="#fff" stroke="#fff"/>
<g clip-path="url(#a)">
<g transform="translate(320.55 359.88) rotate(80.003) scale(.08 -.08)">
<use xlink:href="#r"/>
</g>
</g>
<path d="m373.46 364.81 3.9413 3.7967q1.7285 1.6651 3.3935-0.063406l5.3715-5.5761q1.6651-1.7285-0.063406-3.3935l-3.9413-3.7967q-1.7285-1.6651-3.3935 0.063407l-5.3715 5.5761q-1.6651 1.7285 0.063407 3.3935z" clip-path="url(#a)" fill="#fff" stroke="#fff"/>
<g clip-path="url(#a)">
<g transform="translate(376.27 361.89) rotate(43.93) scale(.08 -.08)">
<use xlink:href="#r"/>
</g>
</g>
<path d="m518.8 605.96v33.808q0 2.4 2.4 2.4h7.7425q2.4 0 2.4-2.4v-33.808q0-2.4-2.4-2.4h-7.7425q-2.4 0-2.4 2.4z" clip-path="url(#a)" fill="#fff" stroke="#fff"/>
<g clip-path="url(#a)">
<g transform="translate(522.87 605.96) rotate(90) scale(.08 -.08)">
<use xlink:href="#l"/>
<use x="44.083984" xlink:href="#d"/>
<use x="105.607422" xlink:href="#i"/>
<use x="144.970703" xlink:href="#k"/>
<use x="242.382812" xlink:href="#g"/>
<use x="270.166016" xlink:href="#f"/>
<use x="333.544922" xlink:href="#e"/>
<use x="394.824219" xlink:href="#j"/>
</g>
</g>
<path d="m691.8 366.64 2.1938-4.0446q1.1443-2.1096-0.96536-3.2539l-6.8058-3.6915q-2.1096-1.1443-3.2539 0.96536l-2.1938 4.0446q-1.1443 2.1096 0.96536 3.2539l6.8058 3.6915q2.1096 1.1443 3.2539-0.96536z" clip-path="url(#a)" fill="#fff" stroke="#fff"/>
<g clip-path="url(#a)">
<g transform="translate(688.22 364.7) rotate(-61.524) scale(.08 -.08)">
<defs>
<path id="u" d="m9.8125 72.906h41.891v-8.3125h-32.031v-21.484h28.906v-8.2969h-28.906v-34.812h-9.8594z"/>
</defs>
<use xlink:href="#u"/>
</g>
</g>
<path d="m721.4 366.79 2.2554-5.7323q0.87873-2.2333-1.3546-3.1121l-7.2049-2.8348q-2.2333-0.87873-3.1121 1.3546l-2.2554 5.7323q-0.87873 2.2333 1.3546 3.1121l7.2049 2.8348q2.2333 0.87873 3.1121-1.3546z" clip-path="url(#a)" fill="#fff" stroke="#fff"/>
<g clip-path="url(#a)">
<g transform="translate(717.62 365.3) rotate(-68.522) scale(.08 -.08)">
<defs>
<path id="am" d="m19.672 64.797v-56.688h11.922q15.094 0 22.094 6.8281 7 6.8438 7 21.594 0 14.641-7 21.453t-22.094 6.8125zm-9.8594 8.1094h20.266q21.188 0 31.094-8.8125 9.9219-8.8125 9.9219-27.562 0-18.859-9.9688-27.703-9.9531-8.8281-31.047-8.8281h-20.266z"/>
</defs>
<use xlink:href="#am"/>
</g>
</g>
<path d="m752.95 366.07 1.4187-5.9944q0.55274-2.3355-1.7827-2.8882l-7.5344-1.7832q-2.3355-0.55274-2.8882 1.7827l-1.4187 5.9944q-0.55274 2.3355 1.7827 2.8882l7.5344 1.7832q2.3355 0.55274 2.8882-1.7827z" clip-path="url(#a)" fill="#fff" stroke="#fff"/>
<g clip-path="url(#a)">
<g transform="translate(748.99 365.13) rotate(-76.685) scale(.08 -.08)">
<use xlink:href="#am"/>
</g>
</g>
<path d="m835.51 232.16 3.2252 4.4211q1.4144 1.9389 3.3533 0.5245l6.255-4.563q1.9389-1.4144 0.5245-3.3533l-3.2252-4.4211q-1.4144-1.9389-3.3533-0.5245l-6.255 4.563q-1.9389 1.4144-0.5245 3.3533z" clip-path="url(#a)" fill="#fff" stroke="#fff"/>
<g clip-path="url(#a)">
<g transform="translate(838.8 229.77) rotate(53.89) scale(.08 -.08)">
<use xlink:href="#r"/>
</g>
</g>
<path d="m1000.7 364.59 3.54 3.2768q1.7613 1.6303 3.3916-0.13097l5.2594-5.6819q1.6303-1.7613-0.13097-3.3916l-3.54-3.2768q-1.7613-1.6303-3.3916 0.13097l-5.2594 5.6819q-1.6303 1.7613 0.13096 3.3916z" clip-path="url(#a)" fill="#fff" stroke="#fff"/>
<g clip-path="url(#a)">
<g transform="translate(1003.5 361.61) rotate(42.789) scale(.08 -.08)">
<use xlink:href="#aa"/>
</g>
</g>
<path d="m509.7 368.35 4.5068-3.1044q1.9765-1.3614 0.61505-3.3379l-4.392-6.3762q-1.3614-1.9765-3.3379-0.61505l-4.5068 3.1044q-1.9765 1.3614-0.61505 3.3379l4.392 6.3762q1.3614 1.9765 3.3379 0.61505z" clip-path="url(#a)" fill="#fff" stroke="#fff"/>
<g clip-path="url(#a)">
<g transform="translate(507.39 365) rotate(-34.56) scale(.08 -.08)">
<use xlink:href="#r"/>
</g>
</g>
<path d="m1043.8 364.81 4.6406 3.5701q1.9022 1.4634 3.3656-0.43878l4.7211-6.1366q1.4634-1.9022-0.43878-3.3656l-4.6406-3.5701q-1.9022-1.4634-3.3656 0.43878l-4.7211 6.1366q-1.4634 1.9022 0.43878 3.3656z" clip-path="url(#a)" fill="#fff" stroke="#fff"/>
<g clip-path="url(#a)">
<g transform="translate(1046.3 361.59) rotate(37.572) scale(.08 -.08)">
<use xlink:href="#aj"/>
</g>
</g>
<path d="m574.35 605.96v33.808q0 2.4 2.4 2.4h7.7425q2.4 0 2.4-2.4v-33.808q0-2.4-2.4-2.4h-7.7425q-2.4 0-2.4 2.4z" clip-path="url(#a)" fill="#fff" stroke="#fff"/>
<g clip-path="url(#a)">
<g transform="translate(578.41 605.96) rotate(90) scale(.08 -.08)">
<use xlink:href="#l"/>
<use x="44.083984" xlink:href="#d"/>
<use x="105.607422" xlink:href="#i"/>
<use x="144.970703" xlink:href="#k"/>
<use x="242.382812" xlink:href="#g"/>
<use x="270.166016" xlink:href="#f"/>
<use x="333.544922" xlink:href="#e"/>
<use x="394.824219" xlink:href="#j"/>
</g>
</g>
<path d="m632.98 605.96v33.808q0 2.4 2.4 2.4h7.7425q2.4 0 2.4-2.4v-33.808q0-2.4-2.4-2.4h-7.7425q-2.4 0-2.4 2.4z" clip-path="url(#a)" fill="#fff" stroke="#fff"/>
<g clip-path="url(#a)">
<g transform="translate(637.05 605.96) rotate(90) scale(.08 -.08)">
<use xlink:href="#l"/>
<use x="44.083984" xlink:href="#d"/>
<use x="105.607422" xlink:href="#i"/>
<use x="144.970703" xlink:href="#k"/>
<use x="242.382812" xlink:href="#g"/>
<use x="270.166016" xlink:href="#f"/>
<use x="333.544922" xlink:href="#e"/>
<use x="394.824219" xlink:href="#j"/>
</g>
</g>
<path d="m694.7 605.96v33.808q0 2.4 2.4 2.4h7.7425q2.4 0 2.4-2.4v-33.808q0-2.4-2.4-2.4h-7.7425q-2.4 0-2.4 2.4z" clip-path="url(#a)" fill="#fff" stroke="#fff"/>
<g clip-path="url(#a)">
<g transform="translate(698.77 605.96) rotate(90) scale(.08 -.08)">
<use xlink:href="#l"/>
<use x="44.083984" xlink:href="#d"/>
<use x="105.607422" xlink:href="#i"/>
<use x="144.970703" xlink:href="#k"/>
<use x="242.382812" xlink:href="#g"/>
<use x="270.166016" xlink:href="#f"/>
<use x="333.544922" xlink:href="#e"/>
<use x="394.824219" xlink:href="#j"/>
</g>
</g>
<path d="m832.69 432.27 1.975-4.1558q1.0301-2.1677-1.1375-3.1978l-6.993-3.3233q-2.1677-1.0301-3.1978 1.1375l-1.975 4.1558q-1.0301 2.1677 1.1375 3.1978l6.993 3.3233q2.1677 1.0301 3.1978-1.1375z" clip-path="url(#a)" fill="#fff" stroke="#fff"/>
<g clip-path="url(#a)">
<g transform="translate(829.02 430.53) rotate(-64.581) scale(.08 -.08)">
<use xlink:href="#u"/>
</g>
</g>
<path d="m867.42 431.9 1.3297-6.1555q0.50675-2.3459-1.8391-2.8526l-7.5679-1.6348q-2.3459-0.50675-2.8526 1.8391l-1.3297 6.1555q-0.50675 2.3459 1.8391 2.8526l7.5679 1.6348q2.3459 0.50675 2.8526-1.8391z" clip-path="url(#a)" fill="#fff" stroke="#fff"/>
<g clip-path="url(#a)">
<g transform="translate(863.45 431.04) rotate(-77.811) scale(.08 -.08)">
<defs>
<path id="ak" d="m39.406 66.219q-10.75 0-17.078-8.0156-6.3125-8-6.3125-21.828 0-13.766 6.3125-21.781 6.3281-8 17.078-8 10.734 0 17.016 8 6.2812 8.0156 6.2812 21.781 0 13.828-6.2812 21.828-6.2812 8.0156-17.016 8.0156zm13.812-64.906 13-14.203h-11.922l-10.797 11.672q-1.6094-0.09375-2.4688-0.14062-0.84375-0.0625-1.625-0.0625-15.375 0-24.594 10.281-9.2031 10.281-9.2031 27.516 0 17.281 9.2031 27.562 9.2188 10.281 24.594 10.281 15.328 0 24.5-10.281 9.1875-10.281 9.1875-27.562 0-12.688-5.1094-21.734-5.0938-9.0312-14.766-13.328z"/>
</defs>
<use xlink:href="#ak"/>
</g>
</g>
<path d="m891.03 425.06 0.3067 5.5778q0.13177 2.3964 2.5281 2.2646l7.7308-0.42508q2.3964-0.13177 2.2646-2.5281l-0.3067-5.5778q-0.13177-2.3964-2.5281-2.2646l-7.7308 0.42508q-2.3964 0.13177-2.2646 2.5281z" clip-path="url(#a)" fill="#fff" stroke="#fff"/>
<g clip-path="url(#a)">
<g transform="translate(895.09 424.83) rotate(86.853) scale(.08 -.08)">
<defs>
<path id="s" d="m64.406 67.281v-10.391q-4.9844 4.6406-10.625 6.9219-5.6406 2.2969-11.984 2.2969-12.5 0-19.141-7.6406t-6.6406-22.094q0-14.406 6.6406-22.047t19.141-7.6406q6.3438 0 11.984 2.2969t10.625 6.9375v-10.312q-5.1719-3.5156-10.969-5.2812-5.7812-1.75-12.219-1.75-16.562 0-26.094 10.125-9.5156 10.141-9.5156 27.672 0 17.578 9.5156 27.703 9.5312 10.141 26.094 10.141 6.5312 0 12.312-1.7344 5.7969-1.7344 10.875-5.2031z"/>
</defs>
<use xlink:href="#s"/>
</g>
</g>
<path d="m967.7 365.56 3.9706 3.1284q1.8852 1.4853 3.3705-0.39985l4.7917-6.0816q1.4853-1.8852-0.39985-3.3705l-3.9706-3.1284q-1.8852-1.4853-3.3705 0.39985l-4.7917 6.0816q-1.4853 1.8852 0.39985 3.3705z" clip-path="url(#a)" fill="#fff" stroke="#fff"/>
<g clip-path="url(#a)">
<g transform="translate(970.21 362.36) rotate(38.234) scale(.08 -.08)">
<defs>
<path id="al" d="m9.8125 72.906h46.094v-8.3125h-36.234v-21.578h34.719v-8.2969h-34.719v-26.422h37.109v-8.2969h-46.969z"/>
</defs>
<use xlink:href="#al"/>
</g>
</g>
<path d="m1213.1 605.96v33.808q0 2.4 2.4 2.4h7.7425q2.4 0 2.4-2.4v-33.808q0-2.4-2.4-2.4h-7.7425q-2.4 0-2.4 2.4z" clip-path="url(#a)" fill="#fff" stroke="#fff"/>
<g clip-path="url(#a)">
<g transform="translate(1217.2 605.96) rotate(90) scale(.08 -.08)">
<use xlink:href="#l"/>
<use x="44.083984" xlink:href="#d"/>
<use x="105.607422" xlink:href="#i"/>
<use x="144.970703" xlink:href="#k"/>
<use x="242.382812" xlink:href="#g"/>
<use x="270.166016" xlink:href="#f"/>
<use x="333.544922" xlink:href="#e"/>
<use x="394.824219" xlink:href="#j"/>
</g>
</g>
<path d="m759.51 605.96v33.808q0 2.4 2.4 2.4h7.7425q2.4 0 2.4-2.4v-33.808q0-2.4-2.4-2.4h-7.7425q-2.4 0-2.4 2.4z" clip-path="url(#a)" fill="#fff" stroke="#fff"/>
<g clip-path="url(#a)">
<g transform="translate(763.57 605.96) rotate(90) scale(.08 -.08)">
<use xlink:href="#l"/>
<use x="44.083984" xlink:href="#d"/>
<use x="105.607422" xlink:href="#i"/>
<use x="144.970703" xlink:href="#k"/>
<use x="242.382812" xlink:href="#g"/>
<use x="270.166016" xlink:href="#f"/>
<use x="333.544922" xlink:href="#e"/>
<use x="394.824219" xlink:href="#j"/>
</g>
</g>
<path d="m827.4 605.96v33.808q0 2.4 2.4 2.4h7.7425q2.4 0 2.4-2.4v-33.808q0-2.4-2.4-2.4h-7.7425q-2.4 0-2.4 2.4z" clip-path="url(#a)" fill="#fff" stroke="#fff"/>
<g clip-path="url(#a)">
<g transform="translate(831.46 605.96) rotate(90) scale(.08 -.08)">
<use xlink:href="#l"/>
<use x="44.083984" xlink:href="#d"/>
<use x="105.607422" xlink:href="#i"/>
<use x="144.970703" xlink:href="#k"/>
<use x="242.382812" xlink:href="#g"/>
<use x="270.166016" xlink:href="#f"/>
<use x="333.544922" xlink:href="#e"/>
<use x="394.824219" xlink:href="#j"/>
</g>
</g>
<path d="m898.37 605.96v33.808q0 2.4 2.4 2.4h7.7425q2.4 0 2.4-2.4v-33.808q0-2.4-2.4-2.4h-7.7425q-2.4 0-2.4 2.4z" clip-path="url(#a)" fill="#fff" stroke="#fff"/>
<g clip-path="url(#a)">
<g transform="translate(902.44 605.96) rotate(90) scale(.08 -.08)">
<use xlink:href="#l"/>
<use x="44.083984" xlink:href="#d"/>
<use x="105.607422" xlink:href="#i"/>
<use x="144.970703" xlink:href="#k"/>
<use x="242.382812" xlink:href="#g"/>
<use x="270.166016" xlink:href="#f"/>
<use x="333.544922" xlink:href="#e"/>
<use x="394.824219" xlink:href="#j"/>
</g>
</g>
<path d="m1021.8 498.75 2.8549-4.7696q1.2326-2.0593-0.8267-3.2919l-6.6434-3.9764q-2.0593-1.2326-3.2919 0.8267l-2.8549 4.7696q-1.2326 2.0593 0.8267 3.2919l6.6434 3.9764q2.0593 1.2326 3.2919-0.8267z" clip-path="url(#a)" fill="#fff" stroke="#fff"/>
<g clip-path="url(#a)">
<g transform="translate(1018.3 496.67) rotate(-59.097) scale(.08 -.08)">
<defs>
<path id="z" d="m44.391 34.188q3.1719-1.0781 6.1719-4.5938t6.0312-9.6719l10.016-19.922h-10.609l-9.3125 18.703q-3.625 7.3281-7.0156 9.7188t-9.25 2.3906h-10.75v-30.812h-9.8594v72.906h22.266q12.5 0 18.656-5.2344 6.1562-5.2188 6.1562-15.766 0-6.8906-3.2031-11.438-3.2031-4.5312-9.2969-6.2812zm-24.719 30.609v-25.875h12.406q7.125 0 10.766 3.2969t3.6406 9.6875-3.6406 9.6406-10.766 3.25z"/>
</defs>
<use xlink:href="#z"/>
</g>
</g>
<path d="m1062.6 495.5 0.036237-4.6011q0.018901-2.3999-2.381-2.4188l-7.7423-0.060976q-2.3999-0.018901-2.4188 2.381l-0.036237 4.6011q-0.018901 2.3999 2.381 2.4188l7.7423 0.060975q2.3999 0.018901 2.4188-2.381z" clip-path="url(#a)" fill="#fff" stroke="#fff"/>
<g clip-path="url(#a)">
<g transform="translate(1058.6 495.47) rotate(-89.549) scale(.08 -.08)">
<use xlink:href="#u"/>
</g>
</g>
<path d="m1089.7 494.01 2.8966 4.7766q1.2445 2.0521 3.2966 0.80767l6.6203-4.0147q2.0521-1.2445 0.80767-3.2966l-2.8966-4.7766q-1.2445-2.0521-3.2966-0.80767l-6.6203 4.0147q-2.0521 1.2445-0.80767 3.2966z" clip-path="url(#a)" fill="#fff" stroke="#fff"/>
<g clip-path="url(#a)">
<g transform="translate(1093.2 491.9) rotate(58.766) scale(.08 -.08)">
<use xlink:href="#s"/>
</g>
</g>
<path d="m972.44 605.96v33.808q0 2.4 2.4 2.4h7.7425q2.4 0 2.4-2.4v-33.808q0-2.4-2.4-2.4h-7.7425q-2.4 0-2.4 2.4z" clip-path="url(#a)" fill="#fff" stroke="#fff"/>
<g clip-path="url(#a)">
<g transform="translate(976.5 605.96) rotate(90) scale(.08 -.08)">
<use xlink:href="#l"/>
<use x="44.083984" xlink:href="#d"/>
<use x="105.607422" xlink:href="#i"/>
<use x="144.970703" xlink:href="#k"/>
<use x="242.382812" xlink:href="#g"/>
<use x="270.166016" xlink:href="#f"/>
<use x="333.544922" xlink:href="#e"/>
<use x="394.824219" xlink:href="#j"/>
</g>
</g>
<path d="m1049.6 605.96v33.808q0 2.4 2.4 2.4h7.7425q2.4 0 2.4-2.4v-33.808q0-2.4-2.4-2.4h-7.7425q-2.4 0-2.4 2.4z" clip-path="url(#a)" fill="#fff" stroke="#fff"/>
<g clip-path="url(#a)">
<g transform="translate(1053.6 605.96) rotate(90) scale(.08 -.08)">
<use xlink:href="#l"/>
<use x="44.083984" xlink:href="#d"/>
<use x="105.607422" xlink:href="#i"/>
<use x="144.970703" xlink:href="#k"/>
<use x="242.382812" xlink:href="#g"/>
<use x="270.166016" xlink:href="#f"/>
<use x="333.544922" xlink:href="#e"/>
<use x="394.824219" xlink:href="#j"/>
</g>
</g>
<path d="m1129.8 605.96v33.808q0 2.4 2.4 2.4h7.7425q2.4 0 2.4-2.4v-33.808q0-2.4-2.4-2.4h-7.7425q-2.4 0-2.4 2.4z" clip-path="url(#a)" fill="#fff" stroke="#fff"/>
<g clip-path="url(#a)">
<g transform="translate(1133.9 605.96) rotate(90) scale(.08 -.08)">
<use xlink:href="#l"/>
<use x="44.083984" xlink:href="#d"/>
<use x="105.607422" xlink:href="#i"/>
<use x="144.970703" xlink:href="#k"/>
<use x="242.382812" xlink:href="#g"/>
<use x="270.166016" xlink:href="#f"/>
<use x="333.544922" xlink:href="#e"/>
<use x="394.824219" xlink:href="#j"/>
</g>
</g>
<path d="m205.44 496.39 0.59305-5.0201q0.28157-2.3834-2.1019-2.665l-7.689-0.90834q-2.3834-0.28157-2.665 2.1019l-0.59305 5.0201q-0.28157 2.3834 2.1019 2.665l7.689 0.90834q2.3834 0.28157 2.665-2.1019z" clip-path="url(#a)" fill="#fff" stroke="#fff"/>
<g clip-path="url(#a)">
<g transform="translate(201.4 495.92) rotate(-83.263) scale(.08 -.08)">
<use xlink:href="#al"/>
</g>
</g>
<path d="m208.38 491.11 0.65537 5.5477q0.28157 2.3834 2.665 2.1019l7.689-0.90834q2.3834-0.28157 2.1019-2.665l-0.65537-5.5477q-0.28157-2.3834-2.665-2.1019l-7.689 0.90834q-2.3834 0.28157-2.1019 2.665z" clip-path="url(#a)" fill="#fff" stroke="#fff"/>
<g clip-path="url(#a)">
<g transform="translate(212.42 490.63) rotate(83.263) scale(.08 -.08)">
<use xlink:href="#s"/>
</g>
</g>
<path d="m250.33 605.96v33.808q0 2.4 2.4 2.4h7.7425q2.4 0 2.4-2.4v-33.808q0-2.4-2.4-2.4h-7.7425q-2.4 0-2.4 2.4z" clip-path="url(#a)" fill="#fff" stroke="#fff"/>
<g clip-path="url(#a)">
<g transform="translate(254.39 605.96) rotate(90) scale(.08 -.08)">
<use xlink:href="#l"/>
<use x="44.083984" xlink:href="#d"/>
<use x="105.607422" xlink:href="#i"/>
<use x="144.970703" xlink:href="#k"/>
<use x="242.382812" xlink:href="#g"/>
<use x="270.166016" xlink:href="#f"/>
<use x="333.544922" xlink:href="#e"/>
<use x="394.824219" xlink:href="#j"/>
</g>
</g>
<path d="m319.35 497.68 1.6702-5.3019q0.72113-2.2891-1.568-3.0102l-7.3847-2.3264q-2.2891-0.72113-3.0102 1.568l-1.6702 5.3019q-0.72113 2.2891 1.568 3.0102l7.3847 2.3264q2.2891 0.72113 3.0102-1.568z" clip-path="url(#a)" fill="#fff" stroke="#fff"/>
<g clip-path="url(#a)">
<g transform="translate(315.47 496.46) rotate(-72.514) scale(.08 -.08)">
<use xlink:href="#z"/>
</g>
</g>
<path d="m340.51 496.35 0.049595-6.2973q0.018901-2.3999-2.381-2.4188l-7.7423-0.060975q-2.3999-0.018901-2.4188 2.381l-0.049595 6.2973q-0.018901 2.3999 2.381 2.4188l7.7423 0.060976q2.3999 0.018901 2.4188-2.381z" clip-path="url(#a)" fill="#fff" stroke="#fff"/>
<g clip-path="url(#a)">
<g transform="translate(336.44 496.31) rotate(-89.549) scale(.08 -.08)">
<use xlink:href="#ak"/>
</g>
</g>
<path d="m349.03 492.42 1.7165 5.316q0.73747 2.2839 3.0214 1.5464l7.3679-2.3791q2.2839-0.73747 1.5464-3.0214l-1.7165-5.316q-0.73747-2.2839-3.0214-1.5464l-7.3679 2.3791q-2.2839 0.73747-1.5464 3.0214z" clip-path="url(#a)" fill="#fff" stroke="#fff"/>
<g clip-path="url(#a)">
<g transform="translate(352.9 491.17) rotate(72.105) scale(.08 -.08)">
<use xlink:href="#s"/>
</g>
</g>
<path d="m441.23 497.04 1.0324-5.462q0.44575-2.3582-1.9125-2.804l-7.6078-1.438q-2.3582-0.44575-2.804 1.9125l-1.0324 5.462q-0.44575 2.3582 1.9125 2.804l7.6078 1.438q2.3582 0.44574 2.804-1.9125z" clip-path="url(#a)" fill="#fff" stroke="#fff"/>
<g clip-path="url(#a)">
<g transform="translate(437.23 496.29) rotate(-79.296) scale(.08 -.08)">
<use xlink:href="#z"/>
</g>
</g>
<path d="m453.59 491.57 1.0375 5.4891q0.44575 2.3582 2.804 1.9125l7.6078-1.438q2.3582-0.44574 1.9125-2.804l-1.0375-5.4891q-0.44574-2.3582-2.804-1.9125l-7.6078 1.438q-2.3582 0.44574-1.9125 2.804z" clip-path="url(#a)" fill="#fff" stroke="#fff"/>
<g clip-path="url(#a)">
<g transform="translate(457.58 490.81) rotate(79.296) scale(.08 -.08)">
<use xlink:href="#s"/>
</g>
</g>
<path d="m416.97 605.96v33.808q0 2.4 2.4 2.4h7.7425q2.4 0 2.4-2.4v-33.808q0-2.4-2.4-2.4h-7.7425q-2.4 0-2.4 2.4z" clip-path="url(#a)" fill="#fff" stroke="#fff"/>
<g clip-path="url(#a)">
<g transform="translate(421.03 605.96) rotate(90) scale(.08 -.08)">
<use xlink:href="#l"/>
<use x="44.083984" xlink:href="#d"/>
<use x="105.607422" xlink:href="#i"/>
<use x="144.970703" xlink:href="#k"/>
<use x="242.382812" xlink:href="#g"/>
<use x="270.166016" xlink:href="#f"/>
<use x="333.544922" xlink:href="#e"/>
<use x="394.824219" xlink:href="#j"/>
</g>
</g>
<path d="m466.34 605.96v33.808q0 2.4 2.4 2.4h7.7425q2.4 0 2.4-2.4v-33.808q0-2.4-2.4-2.4h-7.7425q-2.4 0-2.4 2.4z" clip-path="url(#a)" fill="#fff" stroke="#fff"/>
<g clip-path="url(#a)">
<g transform="translate(470.41 605.96) rotate(90) scale(.08 -.08)">
<use xlink:href="#l"/>
<use x="44.083984" xlink:href="#d"/>
<use x="105.607422" xlink:href="#i"/>
<use x="144.970703" xlink:href="#k"/>
<use x="242.382812" xlink:href="#g"/>
<use x="270.166016" xlink:href="#f"/>
<use x="333.544922" xlink:href="#e"/>
<use x="394.824219" xlink:href="#j"/>
</g>
</g>
<path d="m287.36 605.96v33.808q0 2.4 2.4 2.4h7.7425q2.4 0 2.4-2.4v-33.808q0-2.4-2.4-2.4h-7.7425q-2.4 0-2.4 2.4z" clip-path="url(#a)" fill="#fff" stroke="#fff"/>
<g clip-path="url(#a)">
<g transform="translate(291.42 605.96) rotate(90) scale(.08 -.08)">
<use xlink:href="#l"/>
<use x="44.083984" xlink:href="#d"/>
<use x="105.607422" xlink:href="#i"/>
<use x="144.970703" xlink:href="#k"/>
<use x="242.382812" xlink:href="#g"/>
<use x="270.166016" xlink:href="#f"/>
<use x="333.544922" xlink:href="#e"/>
<use x="394.824219" xlink:href="#j"/>
</g>
</g>
<path d="m327.47 605.96v33.808q0 2.4 2.4 2.4h7.7425q2.4 0 2.4-2.4v-33.808q0-2.4-2.4-2.4h-7.7425q-2.4 0-2.4 2.4z" clip-path="url(#a)" fill="#fff" stroke="#fff"/>
<g clip-path="url(#a)">
<g transform="translate(331.54 605.96) rotate(90) scale(.08 -.08)">
<use xlink:href="#l"/>
<use x="44.083984" xlink:href="#d"/>
<use x="105.607422" xlink:href="#i"/>
<use x="144.970703" xlink:href="#k"/>
<use x="242.382812" xlink:href="#g"/>
<use x="270.166016" xlink:href="#f"/>
<use x="333.544922" xlink:href="#e"/>
<use x="394.824219" xlink:href="#j"/>
</g>
</g>
<path d="m370.68 605.96v33.808q0 2.4 2.4 2.4h7.7425q2.4 0 2.4-2.4v-33.808q0-2.4-2.4-2.4h-7.7425q-2.4 0-2.4 2.4z" clip-path="url(#a)" fill="#fff" stroke="#fff"/>
<g clip-path="url(#a)">
<g transform="translate(374.74 605.96) rotate(90) scale(.08 -.08)">
<use xlink:href="#l"/>
<use x="44.083984" xlink:href="#d"/>
<use x="105.607422" xlink:href="#i"/>
<use x="144.970703" xlink:href="#k"/>
<use x="242.382812" xlink:href="#g"/>
<use x="270.166016" xlink:href="#f"/>
<use x="333.544922" xlink:href="#e"/>
<use x="394.824219" xlink:href="#j"/>
</g>
</g>
<path d="m185.52 605.96v33.808q0 2.4 2.4 2.4h7.7425q2.4 0 2.4-2.4v-33.808q0-2.4-2.4-2.4h-7.7425q-2.4 0-2.4 2.4z" clip-path="url(#a)" fill="#fff" stroke="#fff"/>
<g clip-path="url(#a)">
<g transform="translate(189.58 605.96) rotate(90) scale(.08 -.08)">
<use xlink:href="#l"/>
<use x="44.083984" xlink:href="#d"/>
<use x="105.607422" xlink:href="#i"/>
<use x="144.970703" xlink:href="#k"/>
<use x="242.382812" xlink:href="#g"/>
<use x="270.166016" xlink:href="#f"/>
<use x="333.544922" xlink:href="#e"/>
<use x="394.824219" xlink:href="#j"/>
</g>
</g>
<path d="m216.38 605.96v33.808q0 2.4 2.4 2.4h7.7425q2.4 0 2.4-2.4v-33.808q0-2.4-2.4-2.4h-7.7425q-2.4 0-2.4 2.4z" clip-path="url(#a)" fill="#fff" stroke="#fff"/>
<g clip-path="url(#a)">
<g transform="translate(220.44 605.96) rotate(90) scale(.08 -.08)">
<use xlink:href="#l"/>
<use x="44.083984" xlink:href="#d"/>
<use x="105.607422" xlink:href="#i"/>
<use x="144.970703" xlink:href="#k"/>
<use x="242.382812" xlink:href="#g"/>
<use x="270.166016" xlink:href="#f"/>
<use x="333.544922" xlink:href="#e"/>
<use x="394.824219" xlink:href="#j"/>
</g>
</g>
<path d="m82.531 495.92 0.35228-4.5877q0.18375-2.393-2.2092-2.5767l-7.7198-0.59278q-2.393-0.18375-2.5767 2.2092l-0.35228 4.5877q-0.18375 2.393 2.2092 2.5767l7.7198 0.59278q2.393 0.18375 2.5767-2.2092z" clip-path="url(#a)" fill="#fff" stroke="#fff"/>
<g clip-path="url(#a)">
<g transform="translate(78.479 495.61) rotate(-85.609) scale(.08 -.08)">
<use xlink:href="#u"/>
</g>
</g>
<path d="m80.017 490.84 0.4277 5.5699q0.18375 2.393 2.5767 2.2092l7.7198-0.59278q2.393-0.18375 2.2092-2.5767l-0.4277-5.5699q-0.18375-2.393-2.5767-2.2092l-7.7198 0.59278q-2.393 0.18375-2.2092 2.5767z" clip-path="url(#a)" fill="#fff" stroke="#fff"/>
<g clip-path="url(#a)">
<g transform="translate(84.069 490.53) rotate(85.609) scale(.08 -.08)">
<use xlink:href="#s"/>
</g>
</g>
<path d="m127.97 640.23 2.8247-33.689q0.20052-2.3916-2.1911-2.5921l-7.7154-0.6469q-2.3916-0.20052-2.5921 2.1911l-2.8247 33.689q-0.20052 2.3916 2.1911 2.5921l7.7154 0.6469q2.3916 0.20052 2.5921-2.1911z" clip-path="url(#a)" fill="#fff" stroke="#fff"/>
<g clip-path="url(#a)">
<g transform="translate(123.92 639.89) rotate(-85.207) scale(.08 -.08)">
<use xlink:href="#l"/>
<use x="44.083984" xlink:href="#d"/>
<use x="105.607422" xlink:href="#i"/>
<use x="144.970703" xlink:href="#k"/>
<use x="242.382812" xlink:href="#g"/>
<use x="270.166016" xlink:href="#f"/>
<use x="333.544922" xlink:href="#e"/>
<use x="394.824219" xlink:href="#j"/>
</g>
</g>
<path d="m126.27 606.54 2.8247 33.689q0.20052 2.3916 2.5921 2.1911l7.7154-0.6469q2.3916-0.20052 2.1911-2.5921l-2.8247-33.689q-0.20052-2.3916-2.5921-2.1911l-7.7154 0.6469q-2.3916 0.20052-2.1911 2.5921z" clip-path="url(#a)" fill="#fff" stroke="#fff"/>
<g clip-path="url(#a)">
<g transform="translate(130.32 606.2) rotate(85.207) scale(.08 -.08)">
<use xlink:href="#l"/>
<use x="44.083984" xlink:href="#d"/>
<use x="105.607422" xlink:href="#i"/>
<use x="144.970703" xlink:href="#k"/>
<use x="242.382812" xlink:href="#g"/>
<use x="270.166016" xlink:href="#f"/>
<use x="333.544922" xlink:href="#e"/>
<use x="394.824219" xlink:href="#j"/>
</g>
</g>
<path d="m65.168 605.96v33.808q0 2.4 2.4 2.4h7.7425q2.4 0 2.4-2.4v-33.808q0-2.4-2.4-2.4h-7.7425q-2.4 0-2.4 2.4z" clip-path="url(#a)" fill="#fff" stroke="#fff"/>
<g clip-path="url(#a)">
<g transform="translate(69.232 605.96) rotate(90) scale(.08 -.08)">
<use xlink:href="#l"/>
<use x="44.083984" xlink:href="#d"/>
<use x="105.607422" xlink:href="#i"/>
<use x="144.970703" xlink:href="#k"/>
<use x="242.382812" xlink:href="#g"/>
<use x="270.166016" xlink:href="#f"/>
<use x="333.544922" xlink:href="#e"/>
<use x="394.824219" xlink:href="#j"/>
</g>
</g>
<path d="m92.89 640.11 2.0211-33.747q0.14348-2.3957-2.2522-2.5392l-7.7287-0.46286q-2.3957-0.14348-2.5392 2.2522l-2.0211 33.747q-0.14348 2.3957 2.2522 2.5392l7.7287 0.46286q2.3957 0.14348 2.5392-2.2522z" clip-path="url(#a)" fill="#fff" stroke="#fff"/>
<g clip-path="url(#a)">
<g transform="translate(88.834 639.87) rotate(-86.573) scale(.08 -.08)">
<use xlink:href="#l"/>
<use x="44.083984" xlink:href="#d"/>
<use x="105.607422" xlink:href="#i"/>
<use x="144.970703" xlink:href="#k"/>
<use x="242.382812" xlink:href="#g"/>
<use x="270.166016" xlink:href="#f"/>
<use x="333.544922" xlink:href="#e"/>
<use x="394.824219" xlink:href="#j"/>
</g>
</g>
<path d="m88.085 606.36 2.0211 33.747q0.14348 2.3957 2.5392 2.2522l7.7287-0.46286q2.3957-0.14348 2.2522-2.5392l-2.0211-33.747q-0.14348-2.3957-2.5392-2.2522l-7.7287 0.46286q-2.3957 0.14348-2.2522 2.5392z" clip-path="url(#a)" fill="#fff" stroke="#fff"/>
<g clip-path="url(#a)">
<g transform="translate(92.142 606.12) rotate(86.573) scale(.08 -.08)">
<use xlink:href="#l"/>
<use x="44.083984" xlink:href="#d"/>
<use x="105.607422" xlink:href="#i"/>
<use x="144.970703" xlink:href="#k"/>
<use x="242.382812" xlink:href="#g"/>
<use x="270.166016" xlink:href="#f"/>
<use x="333.544922" xlink:href="#e"/>
<use x="394.824219" xlink:href="#j"/>
</g>
</g>
<path d="m157.75 605.96v33.808q0 2.4 2.4 2.4h7.7425q2.4 0 2.4-2.4v-33.808q0-2.4-2.4-2.4h-7.7425q-2.4 0-2.4 2.4z" clip-path="url(#a)" fill="#fff" stroke="#fff"/>
<g clip-path="url(#a)">
<g transform="translate(161.81 605.96) rotate(90) scale(.08 -.08)">
<use xlink:href="#l"/>
<use x="44.083984" xlink:href="#d"/>
<use x="105.607422" xlink:href="#i"/>
<use x="144.970703" xlink:href="#k"/>
<use x="242.382812" xlink:href="#g"/>
<use x="270.166016" xlink:href="#f"/>
<use x="333.544922" xlink:href="#e"/>
<use x="394.824219" xlink:href="#j"/>
</g>
</g>
<path d="m1299.5 605.96v33.808q0 2.4 2.4 2.4h7.7425q2.4 0 2.4-2.4v-33.808q0-2.4-2.4-2.4h-7.7425q-2.4 0-2.4 2.4z" clip-path="url(#a)" fill="#fff" stroke="#fff"/>
<g clip-path="url(#a)">
<g transform="translate(1303.6 605.96) rotate(90) scale(.08 -.08)">
<use xlink:href="#l"/>
<use x="44.083984" xlink:href="#d"/>
<use x="105.607422" xlink:href="#i"/>
<use x="144.970703" xlink:href="#k"/>
<use x="242.382812" xlink:href="#g"/>
<use x="270.166016" xlink:href="#f"/>
<use x="333.544922" xlink:href="#e"/>
<use x="394.824219" xlink:href="#j"/>
</g>
</g>
<defs>
<path id="b" d="m0 8.6603c2.2967 0 4.4997-0.9125 6.1237-2.5365 1.624-1.624 2.5365-3.827 2.5365-6.1237s-0.9125-4.4997-2.5365-6.1237c-1.624-1.624-3.827-2.5365-6.1237-2.5365s-4.4997 0.9125-6.1237 2.5365c-1.624 1.624-2.5365 3.827-2.5365 6.1237s0.9125 4.4997 2.5365 6.1237c1.624 1.624 3.827 2.5365 6.1237 2.5365z"/>
</defs>
<g clip-path="url(#a)" fill="#ffffff" stroke="#ffffff">
<use x="62.181818" y="687.272727" xlink:href="#b"/>
<use x="71.439657" y="687.272727" xlink:href="#b"/>
<use x="83.783442" y="687.272727" xlink:href="#b"/>
<use x="99.213174" y="687.272727" xlink:href="#b"/>
<use x="117.728852" y="687.272727" xlink:href="#b"/>
<use x="139.330476" y="687.272727" xlink:href="#b"/>
<use x="164.018046" y="687.272727" xlink:href="#b"/>
<use x="191.791563" y="687.272727" xlink:href="#b"/>
<use x="222.651026" y="687.272727" xlink:href="#b"/>
<use x="256.596436" y="687.272727" xlink:href="#b"/>
<use x="293.627792" y="687.272727" xlink:href="#b"/>
<use x="333.745094" y="687.272727" xlink:href="#b"/>
<use x="376.948342" y="687.272727" xlink:href="#b"/>
<use x="423.237537" y="687.272727" xlink:href="#b"/>
<use x="472.612678" y="687.272727" xlink:href="#b"/>
<use x="525.073765" y="687.272727" xlink:href="#b"/>
<use x="580.620799" y="687.272727" xlink:href="#b"/>
<use x="639.253778" y="687.272727" xlink:href="#b"/>
<use x="700.972705" y="687.272727" xlink:href="#b"/>
<use x="765.777577" y="687.272727" xlink:href="#b"/>
<use x="833.668396" y="687.272727" xlink:href="#b"/>
<use x="904.645161" y="687.272727" xlink:href="#b"/>
<use x="978.707873" y="687.272727" xlink:href="#b"/>
<use x="1055.856531" y="687.272727" xlink:href="#b"/>
<use x="1136.091135" y="687.272727" xlink:href="#b"/>
<use x="1219.411685" y="687.272727" xlink:href="#b"/>
<use x="1305.818182" y="687.272727" xlink:href="#b"/>
<use x="327.006832" y="32.727273" xlink:href="#b"/>
<use x="62.181818" y="558.453673" xlink:href="#b"/>
<use x="104.999323" y="296.546491" xlink:href="#b"/>
<use x="311.629145" y="296.546491" xlink:href="#b"/>
<use x="525.073765" y="558.453673" xlink:href="#b"/>
<use x="794.138893" y="164.803522" xlink:href="#b"/>
<use x="580.620799" y="558.453673" xlink:href="#b"/>
<use x="639.253778" y="558.453673" xlink:href="#b"/>
<use x="700.972705" y="558.453673" xlink:href="#b"/>
<use x="890.244079" y="296.546491" xlink:href="#b"/>
<use x="1219.411685" y="558.453673" xlink:href="#b"/>
<use x="765.777577" y="558.453673" xlink:href="#b"/>
<use x="833.668396" y="558.453673" xlink:href="#b"/>
<use x="904.645161" y="558.453673" xlink:href="#b"/>
<use x="1056.885179" y="427.842604" xlink:href="#b"/>
<use x="978.707873" y="558.453673" xlink:href="#b"/>
<use x="1055.856531" y="558.453673" xlink:href="#b"/>
<use x="1136.091135" y="558.453673" xlink:href="#b"/>
<use x="207.221295" y="427.842604" xlink:href="#b"/>
<use x="256.596436" y="558.453673" xlink:href="#b"/>
<use x="334.773742" y="427.842604" xlink:href="#b"/>
<use x="447.925107" y="427.842604" xlink:href="#b"/>
<use x="423.237537" y="558.453673" xlink:href="#b"/>
<use x="472.612678" y="558.453673" xlink:href="#b"/>
<use x="293.627792" y="558.453673" xlink:href="#b"/>
<use x="333.745094" y="558.453673" xlink:href="#b"/>
<use x="376.948342" y="558.453673" xlink:href="#b"/>
<use x="191.791563" y="558.453673" xlink:href="#b"/>
<use x="222.651026" y="558.453673" xlink:href="#b"/>
<use x="81.468983" y="427.842604" xlink:href="#b"/>
<use x="128.529664" y="558.453673" xlink:href="#b"/>
<use x="71.439657" y="558.453673" xlink:href="#b"/>
<use x="91.498308" y="558.453673" xlink:href="#b"/>
<use x="164.018046" y="558.453673" xlink:href="#b"/>
<use x="1305.818182" y="558.453673" xlink:href="#b"/>
</g>
<g clip-path="url(#a)">
<g transform="translate(48.215 690.03) scale(.1 -.1)">
<defs>
<path id="ar" d="m3.3281 72.906h9.9531l15.328-61.625 15.281 61.625h11.094l15.328-61.625 15.281 61.625h10.016l-18.312-72.906h-12.406l-15.375 63.281-15.531-63.281h-12.406z"/>
<path id="t" d="m54.891 33.016v-33.016h-8.9844v32.719q0 7.7656-3.0312 11.609-3.0312 3.8594-9.0781 3.8594-7.2812 0-11.484-4.6406-4.2031-4.625-4.2031-12.641v-30.906h-9.0312v75.984h9.0312v-29.797q3.2344 4.9375 7.5938 7.375 4.375 2.4375 10.094 2.4375 9.4219 0 14.25-5.8281 4.8438-5.8281 4.8438-17.156z"/>
</defs>
<use xlink:href="#ar"/>
<use x="98.876953" xlink:href="#t"/>
<use x="162.255859" xlink:href="#g"/>
<use x="190.039062" xlink:href="#j"/>
<use x="217.822266" xlink:href="#d"/>
</g>
</g>
<g clip-path="url(#a)">
<g transform="translate(63.234 690.03) scale(.1 -.1)">
<defs>
<path id="o" d="m18.312 70.219v-15.531h18.5v-6.9844h-18.5v-29.688q0-6.6875 1.8281-8.5938t7.4531-1.9062h9.2188v-7.5156h-9.2188q-10.406 0-14.359 3.875-3.9531 3.8906-3.9531 14.141v29.688h-6.5938v6.9844h6.5938v15.531z"/>
</defs>
<use xlink:href="#o"/>
<use x="39.208984" xlink:href="#t"/>
<use x="102.587891" xlink:href="#d"/>
</g>
</g>
<g clip-path="url(#a)">
<g transform="translate(60.966 690.03) scale(.1 -.1)">
<defs>
<path id="ai" d="m48.688 27.297q0 9.9062-4.0781 15.547t-11.203 5.6406q-7.1406 0-11.219-5.6406t-4.0781-15.547 4.0781-15.547 11.219-5.6406q7.125 0 11.203 5.6406t4.0781 15.547zm-30.578 19.094q2.8438 4.875 7.1562 7.2344 4.3281 2.375 10.328 2.375 9.9688 0 16.188-7.9062 6.2344-7.9062 6.2344-20.797t-6.2344-20.812q-6.2188-7.9062-16.188-7.9062-6 0-10.328 2.375-4.3125 2.375-7.1562 7.25v-8.2031h-9.0312v75.984h9.0312z"/>
</defs>
<use xlink:href="#r"/>
<use x="68.408203" xlink:href="#ai"/>
<use x="131.884766" xlink:href="#i"/>
<use x="172.998047" xlink:href="#e"/>
<use x="234.277344" xlink:href="#t"/>
<use x="297.65625" xlink:href="#e"/>
<use x="358.935547" xlink:href="#k"/>
</g>
</g>
<g clip-path="url(#a)">
<g transform="translate(81.503 690.03) scale(.1 -.1)">
<defs>
<path id="ah" d="m48.781 52.594v-8.4062q-3.8125 2.1094-7.6406 3.1562t-7.7344 1.0469q-8.75 0-13.594-5.5469-4.8281-5.5312-4.8281-15.547t4.8281-15.562q4.8438-5.5312 13.594-5.5312 3.9062 0 7.7344 1.0469t7.6406 3.1562v-8.3125q-3.7656-1.75-7.7969-2.625-4.0156-0.89062-8.5625-0.89062-12.359 0-19.641 7.7656-7.2656 7.7656-7.2656 20.953 0 13.375 7.3438 21.031 7.3594 7.6719 20.156 7.6719 4.1406 0 8.0938-0.85938 3.9531-0.84375 7.6719-2.5469z"/>
<path id="p" d="m30.609 48.391q-7.2188 0-11.422-5.6406t-4.2031-15.453 4.1719-15.453q4.1875-5.6406 11.453-5.6406 7.1875 0 11.375 5.6562 4.2031 5.6719 4.2031 15.438 0 9.7188-4.2031 15.406-4.1875 5.6875-11.375 5.6875zm0 7.6094q11.719 0 18.406-7.625 6.7031-7.6094 6.7031-21.078 0-13.422-6.7031-21.078-6.6875-7.6406-18.406-7.6406-11.766 0-18.438 7.6406-6.6562 7.6562-6.6562 21.078 0 13.469 6.6562 21.078 6.6719 7.625 18.438 7.625z"/>
</defs>
<use xlink:href="#ab"/>
<use x="55.712891" xlink:href="#g"/>
<use x="83.496094" xlink:href="#f"/>
<use x="146.875" xlink:href="#ah"/>
<use x="201.855469" xlink:href="#p"/>
<use x="263.037109" xlink:href="#j"/>
<use x="290.820312" xlink:href="#f"/>
</g>
</g>
<g clip-path="url(#a)">
<g transform="translate(99.209 690.03) scale(.1 -.1)">
<defs>
<path id="ag" d="m2.9844 54.688h9.5156l17.094-45.891 17.094 45.891h9.5156l-20.516-54.688h-12.203z"/>
<path id="q" d="m45.406 46.391v29.594h8.9844v-75.984h-8.9844v8.2031q-2.8281-4.875-7.1562-7.25-4.3125-2.375-10.375-2.375-9.9062 0-16.141 7.9062-6.2188 7.9219-6.2188 20.812t6.2188 20.797q6.2344 7.9062 16.141 7.9062 6.0625 0 10.375-2.375 4.3281-2.3594 7.1562-7.2344zm-30.609-19.094q0-9.9062 4.0781-15.547t11.203-5.6406 11.219 5.6406q4.1094 5.6406 4.1094 15.547t-4.1094 15.547q-4.0938 5.6406-11.219 5.6406t-11.203-5.6406-4.0781-15.547z"/>
</defs>
<use xlink:href="#t"/>
<use x="63.378906" xlink:href="#d"/>
<use x="124.902344" xlink:href="#e"/>
<use x="186.181641" xlink:href="#ag"/>
<use x="245.361328" xlink:href="#d"/>
<use x="306.884766" xlink:href="#q"/>
</g>
</g>
<g clip-path="url(#a)">
<g transform="translate(134.31 690.03) scale(.1 -.1)">
<use xlink:href="#o"/>
<use x="39.208984" xlink:href="#p"/>
</g>
</g>
<g clip-path="url(#a)">
<g transform="translate(162.43 690.03) scale(.1 -.1)">
<defs>
<path id="as" d="m11.719 12.406h10.297v-8.4062l-8-15.625h-6.2969l4 15.625z"/>
</defs>
<use xlink:href="#as"/>
</g>
</g>
<g clip-path="url(#a)">
<g transform="translate(185.84 690.03) scale(.1 -.1)">
<defs>
<path id="y" d="m44.281 53.078v-8.5q-3.7969 1.9531-7.9062 2.9219-4.0938 0.98438-8.5 0.98438-6.6875 0-10.031-2.0469t-3.3438-6.1562q0-3.125 2.3906-4.9062t9.625-3.3906l3.0781-0.6875q9.5625-2.0469 13.594-5.7812t4.0312-10.422q0-7.625-6.0312-12.078-6.0312-4.4375-16.578-4.4375-4.3906 0-9.1562 0.85938t-10.031 2.5625v9.2812q4.9844-2.5938 9.8125-3.8906 4.8281-1.2812 9.5781-1.2812 6.3438 0 9.75 2.1719 3.4219 2.1719 3.4219 6.125 0 3.6562-2.4688 5.6094-2.4531 1.9531-10.812 3.7656l-3.125 0.73438q-8.3438 1.75-12.062 5.3906-3.7031 3.6406-3.7031 9.9844 0 7.7188 5.4688 11.906 5.4688 4.2031 15.531 4.2031 4.9688 0 9.3594-0.73438 4.4062-0.71875 8.1094-2.1875z"/>
</defs>
<use xlink:href="#g"/>
<use x="27.783203" xlink:href="#o"/>
<use x="66.992188" xlink:href="#y"/>
</g>
</g>
<g clip-path="url(#a)">
<g transform="translate(198 690.03) scale(.1 -.1)">
<defs>
<path id="aq" d="m45.406 27.984q0 9.7656-4.0312 15.125-4.0156 5.375-11.297 5.375-7.2188 0-11.25-5.375-4.0312-5.3594-4.0312-15.125 0-9.7188 4.0312-15.094t11.25-5.375q7.2812 0 11.297 5.375 4.0312 5.375 4.0312 15.094zm8.9844-21.203q0-13.953-6.2031-20.766-6.1875-6.8125-18.984-6.8125-4.7344 0-8.9375 0.70312t-8.1562 2.1719v8.7344q3.9531-2.1406 7.8125-3.1562 3.8594-1.0312 7.8594-1.0312 8.8438 0 13.234 4.6094t4.3906 13.938v4.4531q-2.7812-4.8438-7.125-7.2344t-10.406-2.3906q-10.047 0-16.203 7.6562-6.1562 7.6719-6.1562 20.328 0 12.688 6.1562 20.344 6.1562 7.6719 16.203 7.6719 6.0625 0 10.406-2.3906t7.125-7.2188v8.2969h8.9844z"/>
</defs>
<use xlink:href="#j"/>
<use x="27.783203" xlink:href="#p"/>
<use x="88.964844" xlink:href="#f"/>
<use x="152.34375" xlink:href="#aq"/>
<use x="215.820312" xlink:href="#ai"/>
<use x="279.296875" xlink:href="#p"/>
<use x="340.478516" xlink:href="#e"/>
<use x="401.757812" xlink:href="#o"/>
<use x="440.966797" xlink:href="#y"/>
</g>
</g>
<g clip-path="url(#a)">
<g transform="translate(235.64 690.03) scale(.1 -.1)">
<use xlink:href="#i"/>
<use x="41.113281" xlink:href="#e"/>
<use x="102.392578" xlink:href="#q"/>
<use x="165.869141" xlink:href="#g"/>
<use x="193.652344" xlink:href="#e"/>
<use x="254.931641" xlink:href="#o"/>
<use x="294.140625" xlink:href="#d"/>
<use x="355.664062" xlink:href="#q"/>
</g>
</g>
<g clip-path="url(#a)">
<g transform="translate(289.07 690.03) scale(.1 -.1)">
<use xlink:href="#g"/>
<use x="27.783203" xlink:href="#f"/>
</g>
</g>
<g clip-path="url(#a)">
<g transform="translate(319.62 690.03) scale(.1 -.1)">
<defs>
<path id="au" d="m32.172-5.0781q-3.7969-9.7656-7.4219-12.734-3.6094-2.9844-9.6562-2.9844h-7.1875v7.5156h5.2812q3.7031 0 5.75 1.7656 2.0625 1.75 4.5469 8.2969l1.6094 4.0938-22.109 53.812h9.5156l17.094-42.766 17.094 42.766h9.5156z"/>
</defs>
<use xlink:href="#d"/>
<use x="61.523438" xlink:href="#ag"/>
<use x="120.703125" xlink:href="#d"/>
<use x="182.226562" xlink:href="#i"/>
<use x="223.339844" xlink:href="#au"/>
</g>
</g>
<g clip-path="url(#a)">
<g transform="translate(355.04 690.03) scale(.1 -.1)">
<use xlink:href="#q"/>
<use x="63.476562" xlink:href="#g"/>
<use x="91.259766" xlink:href="#i"/>
<use x="130.123047" xlink:href="#d"/>
<use x="191.646484" xlink:href="#ah"/>
<use x="246.626953" xlink:href="#o"/>
<use x="285.835938" xlink:href="#g"/>
<use x="313.619141" xlink:href="#p"/>
<use x="374.800781" xlink:href="#f"/>
</g>
</g>
<g clip-path="url(#a)">
<g transform="translate(405.66 690.03) scale(.1 -.1)">
<defs>
<path id="ao" d="m8.5 21.578v33.109h8.9844v-32.766q0-7.7656 3.0156-11.656 3.0312-3.875 9.0938-3.875 7.2656 0 11.484 4.6406 4.2344 4.6406 4.2344 12.656v31h8.9844v-54.688h-8.9844v8.4062q-3.2656-4.9844-7.5938-7.4062-4.3125-2.4219-10.031-2.4219-9.4219 0-14.312 5.8594-4.875 5.8594-4.875 17.141z"/>
</defs>
<use xlink:href="#e"/>
<use x="61.279297" xlink:href="#i"/>
<use x="100.142578" xlink:href="#p"/>
<use x="161.324219" xlink:href="#ao"/>
<use x="224.703125" xlink:href="#f"/>
<use x="288.082031" xlink:href="#q"/>
</g>
</g>
<g clip-path="url(#a)">
<g transform="translate(469.26 690.03) scale(.1 -.1)">
<use xlink:href="#g"/>
<use x="27.783203" xlink:href="#o"/>
</g>
</g>
<g clip-path="url(#a)">
<g transform="translate(515.67 690.03) scale(.1 -.1)">
<use xlink:href="#e"/>
<use x="61.279297" xlink:href="#f"/>
<use x="124.658203" xlink:href="#q"/>
</g>
</g>
<g clip-path="url(#a)">
<g transform="translate(572.88 690.03) scale(.1 -.1)">
<use xlink:href="#q"/>
<use x="63.476562" xlink:href="#g"/>
<use x="91.259766" xlink:href="#q"/>
</g>
</g>
<g clip-path="url(#a)">
<g transform="translate(632.75 690.03) scale(.1 -.1)">
<defs>
<path id="at" d="m17.922 72.906v-27.109h-8.2969v27.109z"/>
</defs>
<use xlink:href="#f"/>
<use x="63.378906" xlink:href="#at"/>
<use x="90.869141" xlink:href="#o"/>
</g>
</g>
<g clip-path="url(#a)">
<g transform="translate(687.41 690.03) scale(.1 -.1)">
<use xlink:href="#j"/>
<use x="27.783203" xlink:href="#d"/>
<use x="89.306641" xlink:href="#e"/>
<use x="150.585938" xlink:href="#ag"/>
<use x="209.765625" xlink:href="#d"/>
</g>
</g>
<g clip-path="url(#a)">
<g transform="translate(762.71 690.03) scale(.1 -.1)">
<use xlink:href="#e"/>
</g>
</g>
<g clip-path="url(#a)">
<g transform="translate(818.87 690.03) scale(.1 -.1)">
<use xlink:href="#y"/>
<use x="52.099609" xlink:href="#g"/>
<use x="79.882812" xlink:href="#f"/>
<use x="143.261719" xlink:href="#aq"/>
<use x="206.738281" xlink:href="#j"/>
<use x="234.521484" xlink:href="#d"/>
</g>
</g>
<g clip-path="url(#a)">
<g transform="translate(891.89 690.03) scale(.1 -.1)">
<defs>
<path id="ap" d="m18.109 8.2031v-29h-9.0312v75.484h9.0312v-8.2969q2.8438 4.875 7.1562 7.2344 4.3281 2.375 10.328 2.375 9.9688 0 16.188-7.9062 6.2344-7.9062 6.2344-20.797t-6.2344-20.812q-6.2188-7.9062-16.188-7.9062-6 0-10.328 2.375-4.3125 2.375-7.1562 7.25zm30.578 19.094q0 9.9062-4.0781 15.547t-11.203 5.6406q-7.1406 0-11.219-5.6406t-4.0781-15.547 4.0781-15.547 11.219-5.6406q7.125 0 11.203 5.6406t4.0781 15.547z"/>
</defs>
<use xlink:href="#ap"/>
<use x="63.476562" xlink:href="#p"/>
<use x="124.658203" xlink:href="#g"/>
<use x="152.441406" xlink:href="#f"/>
<use x="215.820312" xlink:href="#o"/>
</g>
</g>
<g clip-path="url(#a)">
<g transform="translate(973.89 690.03) scale(.1 -.1)">
<defs>
<path id="aw" d="m37.109 75.984v-7.4844h-8.5938q-4.8281 0-6.7188-1.9531-1.875-1.9531-1.875-7.0312v-4.8281h14.797v-6.9844h-14.797v-47.703h-9.0312v47.703h-8.5938v6.9844h8.5938v3.8125q0 9.125 4.25 13.297 4.25 4.1875 13.469 4.1875z"/>
</defs>
<use xlink:href="#p"/>
<use x="61.181641" xlink:href="#aw"/>
</g>
</g>
<g clip-path="url(#a)">
<g transform="translate(1047.7 690.03) scale(.1 -.1)">
<use xlink:href="#o"/>
<use x="39.208984" xlink:href="#t"/>
<use x="102.587891" xlink:href="#d"/>
</g>
</g>
<g clip-path="url(#a)">
<g transform="translate(1127.3 690.03) scale(.1 -.1)">
<use xlink:href="#y"/>
<use x="52.099609" xlink:href="#d"/>
<use x="113.623047" xlink:href="#e"/>
</g>
</g>
<g clip-path="url(#a)">
<g transform="translate(1191.3 690.03) scale(.1 -.1)">
<defs>
<path id="av" d="m54.891 54.688-19.781-26.609 20.797-28.078h-10.594l-15.922 21.484-15.906-21.484h-10.609l21.25 28.609-19.438 26.078h10.594l14.5-19.484 14.5 19.484z"/>
</defs>
<use xlink:href="#ao"/>
<use x="63.378906" xlink:href="#f"/>
<use x="126.757812" xlink:href="#d"/>
<use x="186.53125" xlink:href="#av"/>
<use x="245.710938" xlink:href="#ap"/>
<use x="309.1875" xlink:href="#j"/>
<use x="336.970703" xlink:href="#p"/>
<use x="398.152344" xlink:href="#i"/>
<use x="437.015625" xlink:href="#d"/>
<use x="498.539062" xlink:href="#q"/>
</g>
</g>
<g clip-path="url(#a)">
<g transform="translate(1304.2 690.03) scale(.1 -.1)">
<defs>
<path id="h" d="m10.688 12.406h10.312v-12.406h-10.312z"/>
</defs>
<use xlink:href="#h"/>
</g>
</g>
<g clip-path="url(#a)">
<g transform="translate(319.06 35.487) scale(.1 -.1)">
<defs>
<path id="c" d="m12.406 8.2969h16.109v55.625l-17.531-3.5156v8.9844l17.438 3.5156h9.8594v-64.609h16.109v-8.2969h-41.984z"/>
</defs>
<use xlink:href="#c"/>
<use x="63.623047" xlink:href="#h"/>
<use x="95.410156" xlink:href="#c"/>
</g>
</g>
<g clip-path="url(#a)">
<g transform="translate(54.23 561.21) scale(.1 -.1)">
<defs>
<path id="m" d="m19.188 8.2969h34.422v-8.2969h-46.281v8.2969q5.6094 5.8125 15.297 15.594 9.7031 9.7969 12.188 12.641 4.7344 5.3125 6.6094 9 1.8906 3.6875 1.8906 7.25 0 5.8125-4.0781 9.4688-4.0781 3.6719-10.625 3.6719-4.6406 0-9.7969-1.6094-5.1406-1.6094-11-4.8906v9.9688q5.9531 2.3906 11.125 3.6094 5.1875 1.2188 9.4844 1.2188 11.328 0 18.062-5.6719 6.7344-5.6562 6.7344-15.125 0-4.5-1.6875-8.5312-1.6719-4.0156-6.125-9.4844-1.2188-1.4219-7.7656-8.1875-6.5312-6.7656-18.453-18.922z"/>
</defs>
<use xlink:href="#c"/>
<use x="63.623047" xlink:href="#h"/>
<use x="95.410156" xlink:href="#m"/>
</g>
</g>
<g clip-path="url(#a)">
<g transform="translate(97.048 299.31) scale(.1 -.1)">
<defs>
<path id="n" d="m40.578 39.312q7.0781-1.5156 11.047-6.3125 3.9844-4.7812 3.9844-11.812 0-10.781-7.4219-16.703-7.4219-5.9062-21.094-5.9062-4.5781 0-9.4375 0.90625t-10.031 2.7188v9.5156q4.0938-2.3906 8.9688-3.6094 4.8906-1.2188 10.219-1.2188 9.2656 0 14.125 3.6562t4.8594 10.641q0 6.4531-4.5156 10.078-4.5156 3.6406-12.562 3.6406h-8.5v8.1094h8.8906q7.2656 0 11.125 2.9062t3.8594 8.375q0 5.6094-3.9844 8.6094-3.9688 3.0156-11.391 3.0156-4.0625 0-8.7031-0.89062-4.6406-0.875-10.203-2.7188v8.7812q5.625 1.5625 10.531 2.3438t9.25 0.78125q11.234 0 17.766-5.1094 6.5469-5.0938 6.5469-13.781 0-6.0625-3.4688-10.234t-9.8594-5.7812z"/>
</defs>
<use xlink:href="#c"/>
<use x="63.623047" xlink:href="#h"/>
<use x="95.410156" xlink:href="#n"/>
</g>
</g>
<g clip-path="url(#a)">
<g transform="translate(303.68 299.31) scale(.1 -.1)">
<defs>
<path id="x" d="m37.797 64.312-24.906-38.922h24.906zm-2.5938 8.5938h12.406v-47.516h10.406v-8.2031h-10.406v-17.188h-9.8125v17.188h-32.906v9.5156z"/>
</defs>
<use xlink:href="#c"/>
<use x="63.623047" xlink:href="#h"/>
<use x="95.410156" xlink:href="#x"/>
</g>
</g>
<g clip-path="url(#a)">
<g transform="translate(517.12 561.21) scale(.1 -.1)">
<defs>
<path id="w" d="m10.797 72.906h38.719v-8.3125h-29.688v-17.859q2.1406 0.73438 4.2812 1.0938 2.1562 0.35938 4.3125 0.35938 12.203 0 19.328-6.6875 7.1406-6.6875 7.1406-18.109 0-11.766-7.3281-18.297-7.3281-6.5156-20.656-6.5156-4.5938 0-9.3594 0.78125-4.75 0.78125-9.8281 2.3438v9.9219q4.3906-2.3906 9.0781-3.5625t9.9062-1.1719q8.4531 0 13.375 4.4375 4.9375 4.4375 4.9375 12.062 0 7.6094-4.9375 12.047-4.9219 4.4531-13.375 4.4531-3.9531 0-7.8906-0.875-3.9219-0.875-8.0156-2.7344z"/>
</defs>
<use xlink:href="#c"/>
<use x="63.623047" xlink:href="#h"/>
<use x="95.410156" xlink:href="#w"/>
</g>
</g>
<g clip-path="url(#a)">
<g transform="translate(786.19 167.56) scale(.1 -.1)">
<defs>
<path id="v" d="m33.016 40.375q-6.6406 0-10.531-4.5469-3.875-4.5312-3.875-12.438 0-7.8594 3.875-12.438 3.8906-4.5625 10.531-4.5625t10.516 4.5625q3.875 4.5781 3.875 12.438 0 7.9062-3.875 12.438-3.875 4.5469-10.516 4.5469zm19.578 30.922v-8.9844q-3.7188 1.75-7.5 2.6719-3.7812 0.9375-7.5 0.9375-9.7656 0-14.922-6.5938-5.1406-6.5938-5.875-19.922 2.875 4.25 7.2188 6.5156 4.3594 2.2656 9.5781 2.2656 10.984 0 17.359-6.6719 6.375-6.6562 6.375-18.125 0-11.234-6.6406-18.031-6.6406-6.7812-17.672-6.7812-12.656 0-19.344 9.6875-6.6875 9.7031-6.6875 28.109 0 17.281 8.2031 27.562t22.016 10.281q3.7188 0 7.5-0.73438t7.8906-2.1875z"/>
</defs>
<use xlink:href="#c"/>
<use x="63.623047" xlink:href="#h"/>
<use x="95.410156" xlink:href="#v"/>
</g>
</g>
<g clip-path="url(#a)">
<g transform="translate(572.67 561.21) scale(.1 -.1)">
<defs>
<path id="ad" d="m10.984 1.5156v8.9844q3.7188-1.7656 7.5156-2.6875 3.8125-0.92188 7.4844-0.92188 9.7656 0 14.906 6.5625 5.1562 6.5625 5.8906 19.953-2.8281-4.2031-7.1875-6.4531-4.3438-2.25-9.6094-2.25-10.938 0-17.312 6.6094-6.375 6.625-6.375 18.109 0 11.219 6.6406 18 6.6406 6.7969 17.672 6.7969 12.656 0 19.312-9.7031 6.6719-9.6875 6.6719-28.141 0-17.234-8.1875-27.516-8.1719-10.281-21.984-10.281-3.7188 0-7.5312 0.73438-3.7969 0.73438-7.9062 2.2031zm19.625 30.906q6.6406 0 10.516 4.5312 3.8906 4.5469 3.8906 12.469 0 7.8594-3.8906 12.422-3.875 4.5625-10.516 4.5625t-10.516-4.5625-3.875-12.422q0-7.9219 3.875-12.469 3.875-4.5312 10.516-4.5312z"/>
</defs>
<use xlink:href="#c"/>
<use x="63.623047" xlink:href="#h"/>
<use x="95.410156" xlink:href="#ad"/>
</g>
</g>
<g clip-path="url(#a)">
<g transform="translate(628.12 561.21) scale(.1 -.1)">
<defs>
<path id="af" d="m31.781 66.406q-7.6094 0-11.453-7.5-3.8281-7.4844-3.8281-22.531 0-14.984 3.8281-22.484 3.8438-7.5 11.453-7.5 7.6719 0 11.5 7.5 3.8438 7.5 3.8438 22.484 0 15.047-3.8438 22.531-3.8281 7.5-11.5 7.5zm0 7.8125q12.266 0 18.734-9.7031 6.4688-9.6875 6.4688-28.141 0-18.406-6.4688-28.109-6.4688-9.6875-18.734-9.6875-12.25 0-18.719 9.6875-6.4688 9.7031-6.4688 28.109 0 18.453 6.4688 28.141 6.4688 9.7031 18.719 9.7031z"/>
</defs>
<use xlink:href="#c"/>
<use x="63.623047" xlink:href="#h"/>
<use x="95.410156" xlink:href="#c"/>
<use x="159.033203" xlink:href="#af"/>
</g>
</g>
<g clip-path="url(#a)">
<g transform="translate(689.84 561.21) scale(.1 -.1)">
<use xlink:href="#c"/>
<use x="63.623047" xlink:href="#h"/>
<use x="95.410156" xlink:href="#c"/>
<use x="159.033203" xlink:href="#c"/>
</g>
</g>
<g clip-path="url(#a)">
<g transform="translate(879.11 299.31) scale(.1 -.1)">
<use xlink:href="#c"/>
<use x="63.623047" xlink:href="#h"/>
<use x="95.410156" xlink:href="#c"/>
<use x="159.033203" xlink:href="#m"/>
</g>
</g>
<g clip-path="url(#a)">
<g transform="translate(1208.3 561.21) scale(.1 -.1)">
<use xlink:href="#c"/>
<use x="63.623047" xlink:href="#h"/>
<use x="95.410156" xlink:href="#c"/>
<use x="159.033203" xlink:href="#n"/>
</g>
</g>
<g clip-path="url(#a)">
<g transform="translate(754.64 561.21) scale(.1 -.1)">
<use xlink:href="#c"/>
<use x="63.623047" xlink:href="#h"/>
<use x="95.410156" xlink:href="#c"/>
<use x="159.033203" xlink:href="#x"/>
</g>
</g>
<g clip-path="url(#a)">
<g transform="translate(822.54 561.21) scale(.1 -.1)">
<use xlink:href="#c"/>
<use x="63.623047" xlink:href="#h"/>
<use x="95.410156" xlink:href="#c"/>
<use x="159.033203" xlink:href="#w"/>
</g>
</g>
<g clip-path="url(#a)">
<g transform="translate(893.51 561.21) scale(.1 -.1)">
<use xlink:href="#c"/>
<use x="63.623047" xlink:href="#h"/>
<use x="95.410156" xlink:href="#c"/>
<use x="159.033203" xlink:href="#v"/>
</g>
</g>
<g clip-path="url(#a)">
<g transform="translate(1045.8 430.6) scale(.1 -.1)">
<defs>
<path id="ae" d="m8.2031 72.906h46.875v-4.2031l-26.469-68.703h-10.297l24.906 64.594h-35.016z"/>
</defs>
<use xlink:href="#c"/>
<use x="63.623047" xlink:href="#h"/>
<use x="95.410156" xlink:href="#c"/>
<use x="159.033203" xlink:href="#ae"/>
</g>
</g>
<g clip-path="url(#a)">
<g transform="translate(967.58 561.21) scale(.1 -.1)">
<defs>
<path id="an" d="m31.781 34.625q-7.0312 0-11.062-3.7656-4.0156-3.7656-4.0156-10.344 0-6.5938 4.0156-10.359 4.0312-3.7656 11.062-3.7656t11.078 3.7812q4.0625 3.7969 4.0625 10.344 0 6.5781-4.0312 10.344-4.0156 3.7656-11.109 3.7656zm-9.8594 4.1875q-6.3438 1.5625-9.8906 5.9062-3.5312 4.3594-3.5312 10.609 0 8.7344 6.2188 13.812 6.2344 5.0781 17.062 5.0781 10.891 0 17.094-5.0781t6.2031-13.812q0-6.25-3.5469-10.609-3.5312-4.3438-9.8281-5.9062 7.125-1.6562 11.094-6.5 3.9844-4.8281 3.9844-11.797 0-10.609-6.4688-16.281-6.4688-5.6562-18.531-5.6562-12.047 0-18.531 5.6562-6.4688 5.6719-6.4688 16.281 0 6.9688 4 11.797 4.0156 4.8438 11.141 6.5zm-3.6094 15.578q0-5.6562 3.5312-8.8281 3.5469-3.1719 9.9375-3.1719 6.3594 0 9.9375 3.1719 3.5938 3.1719 3.5938 8.8281 0 5.6719-3.5938 8.8438-3.5781 3.1719-9.9375 3.1719-6.3906 0-9.9375-3.1719-3.5312-3.1719-3.5312-8.8438z"/>
</defs>
<use xlink:href="#c"/>
<use x="63.623047" xlink:href="#h"/>
<use x="95.410156" xlink:href="#c"/>
<use x="159.033203" xlink:href="#an"/>
</g>
</g>
<g clip-path="url(#a)">
<g transform="translate(1044.7 561.21) scale(.1 -.1)">
<use xlink:href="#c"/>
<use x="63.623047" xlink:href="#h"/>
<use x="95.410156" xlink:href="#c"/>
<use x="159.033203" xlink:href="#ad"/>
</g>
</g>
<g clip-path="url(#a)">
<g transform="translate(1125 561.21) scale(.1 -.1)">
<use xlink:href="#c"/>
<use x="63.623047" xlink:href="#h"/>
<use x="95.410156" xlink:href="#m"/>
<use x="159.033203" xlink:href="#af"/>
</g>
</g>
<g clip-path="url(#a)">
<g transform="translate(196.09 430.6) scale(.1 -.1)">
<use xlink:href="#c"/>
<use x="63.623047" xlink:href="#h"/>
<use x="95.410156" xlink:href="#m"/>
<use x="159.033203" xlink:href="#c"/>
</g>
</g>
<g clip-path="url(#a)">
<g transform="translate(245.46 561.21) scale(.1 -.1)">
<use xlink:href="#c"/>
<use x="63.623047" xlink:href="#h"/>
<use x="95.410156" xlink:href="#m"/>
<use x="159.033203" xlink:href="#m"/>
</g>
</g>
<g clip-path="url(#a)">
<g transform="translate(323.64 430.6) scale(.1 -.1)">
<use xlink:href="#c"/>
<use x="63.623047" xlink:href="#h"/>
<use x="95.410156" xlink:href="#m"/>
<use x="159.033203" xlink:href="#n"/>
</g>
</g>
<g clip-path="url(#a)">
<g transform="translate(436.79 430.6) scale(.1 -.1)">
<use xlink:href="#c"/>
<use x="63.623047" xlink:href="#h"/>
<use x="95.410156" xlink:href="#m"/>
<use x="159.033203" xlink:href="#x"/>
</g>
</g>
<g clip-path="url(#a)">
<g transform="translate(412.1 561.21) scale(.1 -.1)">
<use xlink:href="#c"/>
<use x="63.623047" xlink:href="#h"/>
<use x="95.410156" xlink:href="#m"/>
<use x="159.033203" xlink:href="#w"/>
</g>
</g>
<g clip-path="url(#a)">
<g transform="translate(461.48 561.21) scale(.1 -.1)">
<use xlink:href="#c"/>
<use x="63.623047" xlink:href="#h"/>
<use x="95.410156" xlink:href="#m"/>
<use x="159.033203" xlink:href="#v"/>
</g>
</g>
<g clip-path="url(#a)">
<g transform="translate(282.49 561.21) scale(.1 -.1)">
<use xlink:href="#c"/>
<use x="63.623047" xlink:href="#h"/>
<use x="95.410156" xlink:href="#m"/>
<use x="159.033203" xlink:href="#ae"/>
</g>
</g>
<g clip-path="url(#a)">
<g transform="translate(322.61 561.21) scale(.1 -.1)">
<use xlink:href="#c"/>
<use x="63.623047" xlink:href="#h"/>
<use x="95.410156" xlink:href="#m"/>
<use x="159.033203" xlink:href="#an"/>
</g>
</g>
<g clip-path="url(#a)">
<g transform="translate(365.82 561.21) scale(.1 -.1)">
<use xlink:href="#c"/>
<use x="63.623047" xlink:href="#h"/>
<use x="95.410156" xlink:href="#m"/>
<use x="159.033203" xlink:href="#ad"/>
</g>
</g>
<g clip-path="url(#a)">
<g transform="translate(180.66 561.21) scale(.1 -.1)">
<use xlink:href="#c"/>
<use x="63.623047" xlink:href="#h"/>
<use x="95.410156" xlink:href="#n"/>
<use x="159.033203" xlink:href="#af"/>
</g>
</g>
<g clip-path="url(#a)">
<g transform="translate(211.52 561.21) scale(.1 -.1)">
<use xlink:href="#c"/>
<use x="63.623047" xlink:href="#h"/>
<use x="95.410156" xlink:href="#n"/>
<use x="159.033203" xlink:href="#c"/>
</g>
</g>
<g clip-path="url(#a)">
<g transform="translate(70.336 430.6) scale(.1 -.1)">
<use xlink:href="#c"/>
<use x="63.623047" xlink:href="#h"/>
<use x="95.410156" xlink:href="#n"/>
<use x="159.033203" xlink:href="#m"/>
</g>
</g>
<g clip-path="url(#a)">
<g transform="translate(117.4 561.21) scale(.1 -.1)">
<use xlink:href="#c"/>
<use x="63.623047" xlink:href="#h"/>
<use x="95.410156" xlink:href="#n"/>
<use x="159.033203" xlink:href="#n"/>
</g>
</g>
<g clip-path="url(#a)">
<g transform="translate(60.307 561.21) scale(.1 -.1)">
<use xlink:href="#c"/>
<use x="63.623047" xlink:href="#h"/>
<use x="95.410156" xlink:href="#n"/>
<use x="159.033203" xlink:href="#x"/>
</g>
</g>
<g clip-path="url(#a)">
<g transform="translate(80.365 561.21) scale(.1 -.1)">
<use xlink:href="#c"/>
<use x="63.623047" xlink:href="#h"/>
<use x="95.410156" xlink:href="#n"/>
<use x="159.033203" xlink:href="#w"/>
</g>
</g>
<g clip-path="url(#a)">
<g transform="translate(152.89 561.21) scale(.1 -.1)">
<use xlink:href="#c"/>
<use x="63.623047" xlink:href="#h"/>
<use x="95.410156" xlink:href="#n"/>
<use x="159.033203" xlink:href="#v"/>
</g>
</g>
<g clip-path="url(#a)">
<g transform="translate(1294.7 561.21) scale(.1 -.1)">
<use xlink:href="#c"/>
<use x="63.623047" xlink:href="#h"/>
<use x="95.410156" xlink:href="#n"/>
<use x="159.033203" xlink:href="#ae"/>
</g>
</g>
<defs>
<clipPath id="a">
<rect width="1368" height="720"/>
</clipPath>
</defs>
</svg>
