<?xml version="1.0" encoding="UTF-8"?>
<!DOCTYPE svg  PUBLIC '-//W3C//DTD SVG 1.1//EN'  'http://www.w3.org/Graphics/SVG/1.1/DTD/svg11.dtd'>
<svg width="1114.7pt" height="586.67pt" version="1.1" viewBox="0 0 1114.7 586.67" xmlns="http://www.w3.org/2000/svg" xmlns:xlink="http://www.w3.org/1999/xlink">
<defs>
<style type="text/css">*{stroke-linecap:butt;stroke-linejoin:round;white-space:pre;}</style>
</defs>
<path d="m0 586.67h1114.7v-586.67h-1114.7z" fill="#fff"/>
<g fill="none" stroke="#000">
<path d="m765.6 27.254v65.325" clip-path="url(#a)"/>
<path d="m765.6 92.579 298.15 466.83" clip-path="url(#a)"/>
<path d="m765.6 92.579 254.11 466.83" clip-path="url(#a)"/>
<path d="m765.6 92.579-552.27 63.357" clip-path="url(#a)"/>
<path d="m213.34 155.94-118.39 348.22" clip-path="url(#a)"/>
<path d="m213.34 155.94 355.16 61.545" clip-path="url(#a)"/>
<path d="m213.34 155.94-162.42 348.22" clip-path="url(#a)"/>
<path d="m213.34 155.94-74.35 348.22" clip-path="url(#a)"/>
<path d="m94.95 504.16v55.255" clip-path="url(#a)"/>
<path d="m568.5 217.48-318.81 59.891" clip-path="url(#a)"/>
<path d="m568.5 217.48-33.18 286.68" clip-path="url(#a)"/>
<path d="m568.5 217.48 98.929 231.42" clip-path="url(#a)"/>
<path d="m568.5 217.48 253.06 175.4" clip-path="url(#a)"/>
<path d="m249.69 277.37-66.666 226.79" clip-path="url(#a)"/>
<path d="m249.69 277.37-22.63 226.79" clip-path="url(#a)"/>
<path d="m249.69 277.37 89.296 58.404" clip-path="url(#a)"/>
<path d="m535.32 504.16v55.255" clip-path="url(#a)"/>
<path d="m667.42 448.9-44.037 55.255" clip-path="url(#a)"/>
<path d="m667.42 448.9 44.037 55.255" clip-path="url(#a)"/>
<path d="m821.55 392.88-66.055 111.28" clip-path="url(#a)"/>
<path d="m821.55 392.88-22.018 111.28" clip-path="url(#a)"/>
<path d="m821.55 392.88 88.073 56.024" clip-path="url(#a)"/>
<path d="m755.5 504.16v55.255" clip-path="url(#a)"/>
<path d="m799.53 504.16v55.255" clip-path="url(#a)"/>
<path d="m909.63 448.9-66.055 55.255" clip-path="url(#a)"/>
<path d="m909.63 448.9-22.018 55.255" clip-path="url(#a)"/>
<path d="m909.63 448.9 22.018 55.255" clip-path="url(#a)"/>
<path d="m909.63 448.9 66.055 55.255" clip-path="url(#a)"/>
<path d="m843.57 504.16v55.255" clip-path="url(#a)"/>
<path d="m887.61 504.16v55.255" clip-path="url(#a)"/>
<path d="m931.64 504.16v55.255" clip-path="url(#a)"/>
<path d="m623.39 504.16-44.037 55.255" clip-path="url(#a)"/>
<path d="m623.39 504.16v55.255" clip-path="url(#a)"/>
<path d="m623.39 504.16 44.037 55.255" clip-path="url(#a)"/>
<path d="m711.46 504.16v55.255" clip-path="url(#a)"/>
<path d="m183.02 504.16v55.255" clip-path="url(#a)"/>
<path d="m227.06 504.16v55.255" clip-path="url(#a)"/>
<path d="m338.99 335.78-67.89 168.38" clip-path="url(#a)"/>
<path d="m338.99 335.78-23.853 168.38" clip-path="url(#a)"/>
<path d="m338.99 335.78 20.183 168.38" clip-path="url(#a)"/>
<path d="m338.99 335.78 71.559 57.103" clip-path="url(#a)"/>
<path d="m271.1 504.16v55.255" clip-path="url(#a)"/>
<path d="m315.13 504.16v55.255" clip-path="url(#a)"/>
<path d="m359.17 504.16v55.255" clip-path="url(#a)"/>
<path d="m410.54 392.88-51.376 111.28" clip-path="url(#a)" stroke-dasharray="3.7,1.6"/>
<path d="m410.54 392.88-7.3394 111.28" clip-path="url(#a)"/>
<path d="m410.54 392.88 58.715 56.024" clip-path="url(#a)"/>
<path d="m403.21 504.16v55.255" clip-path="url(#a)"/>
<path d="m469.26 448.9-22.018 55.255" clip-path="url(#a)"/>
<path d="m469.26 448.9 22.018 55.255" clip-path="url(#a)"/>
<path d="m447.24 504.16v55.255" clip-path="url(#a)"/>
<path d="m491.28 504.16v55.255" clip-path="url(#a)"/>
<path d="m331.72 155.94-236.77 348.22" clip-path="url(#a)"/>
<path d="m331.72 155.94 236.77 61.545" clip-path="url(#a)"/>
<path d="m50.913 504.16v55.255" clip-path="url(#a)"/>
<path d="m138.99 504.16v55.255" clip-path="url(#a)"/>
<path d="m975.68 504.16v55.255" clip-path="url(#a)"/>
</g>
<path d="m759.33 56.908v6.0162q0 2.4 2.4 2.4h7.7425q2.4 0 2.4-2.4v-6.0162q0-2.4-2.4-2.4h-7.7425q-2.4 0-2.4 2.4z" clip-path="url(#a)" fill="#fff" stroke="#fff"/>
<g clip-path="url(#a)">
<defs>
<path id="af" d="m9.8125 72.906h9.8594v-29.891h35.844v29.891h9.8594v-72.906h-9.8594v34.719h-35.844v-34.719h-9.8594z"/>
</defs>
<g transform="translate(763.39 56.908) rotate(90) scale(.08 -.08)">
<use xlink:href="#af"/>
</g>
</g>
<path d="m907.92 327.07 2.9456 4.6121q1.2918 2.0227 3.3145 0.73086l6.5252-4.1674q2.0227-1.2918 0.73086-3.3145l-2.9456-4.6121q-1.2918-2.0227-3.3145-0.73086l-6.5252 4.1674q-2.0227 1.2918-0.73086 3.3145z" clip-path="url(#a)" fill="#fff" stroke="#fff"/>
<g clip-path="url(#a)">
<defs>
<path id="s" d="m34.188 63.188-13.391-36.281h26.812zm-5.5781 9.7188h11.188l27.781-72.906h-10.25l-6.6406 18.703h-32.859l-6.6406-18.703h-10.406z"/>
</defs>
<g transform="translate(911.34 324.88) rotate(57.435) scale(.08 -.08)">
<use xlink:href="#s"/>
</g>
</g>
<path d="m886 326.88 2.3062 4.2367q1.1474 2.1079 3.2554 0.96051l6.8003-3.7017q2.1079-1.1474 0.96051-3.2554l-2.3062-4.2367q-1.1474-2.1079-3.2554-0.96051l-6.8003 3.7017q-2.1079 1.1474-0.96051 3.2554z" clip-path="url(#a)" fill="#fff" stroke="#fff"/>
<g clip-path="url(#a)">
<defs>
<path id="v" d="m19.672 64.797v-27.391h12.406q6.8906 0 10.641 3.5625 3.7656 3.5625 3.7656 10.156 0 6.5469-3.7656 10.109-3.75 3.5625-10.641 3.5625zm-9.8594 8.1094h22.266q12.266 0 18.531-5.5469 6.2812-5.5469 6.2812-16.234 0-10.797-6.2812-16.312-6.2656-5.5156-18.531-5.5156h-12.406v-29.297h-9.8594z"/>
</defs>
<g transform="translate(889.57 324.93) rotate(61.439) scale(.08 -.08)">
<use xlink:href="#v"/>
</g>
</g>
<path d="m487.47 130.8 5.4368-0.62373q2.3844-0.27354 2.1108-2.6579l-0.88245-7.692q-0.27354-2.3844-2.6579-2.1108l-5.4368 0.62373q-2.3844 0.27354-2.1108 2.6579l0.88245 7.692q0.27354 2.3844 2.6579 2.1108z" clip-path="url(#a)" fill="#fff" stroke="#fff"/>
<g clip-path="url(#a)">
<g transform="translate(487 126.76) rotate(-6.5445) scale(.08 -.08)">
<use xlink:href="#s"/>
</g>
</g>
<path d="m159.36 334.18 1.4348-4.2203q0.77252-2.2723-1.4998-3.0448l-7.3304-2.4922q-2.2723-0.77252-3.0448 1.4998l-1.4348 4.2203q-0.77252 2.2723 1.4998 3.0448l7.3304 2.4922q2.2723 0.77252 3.0448-1.4998z" clip-path="url(#a)" fill="#fff" stroke="#fff"/>
<g clip-path="url(#a)">
<defs>
<path id="w" d="m9.8125 72.906h9.8594v-64.609h35.5v-8.2969h-45.359z"/>
</defs>
<g transform="translate(155.52 332.87) rotate(-71.223) scale(.08 -.08)">
<use xlink:href="#w"/>
</g>
</g>
<path d="m386.88 192.37 5.9279 1.0272q2.3648 0.40978 2.7745-1.955l1.322-7.6288q0.40978-2.3648-1.955-2.7745l-5.9279-1.0272q-2.3648-0.40978-2.7745 1.955l-1.322 7.6288q-0.40978 2.3648 1.955 2.7745z" clip-path="url(#a)" fill="#fff" stroke="#fff"/>
<g clip-path="url(#a)">
<g transform="translate(387.57 188.37) rotate(9.831) scale(.08 -.08)">
<use xlink:href="#af"/>
</g>
</g>
<path d="m136.57 335.35 2.475-5.3062q1.0145-2.175-1.1605-3.1895l-7.0167-3.2729q-2.175-1.0145-3.1895 1.1605l-2.475 5.3062q-1.0145 2.175 1.1605 3.1895l7.0167 3.2729q2.175 1.0145 3.1895-1.1605z" clip-path="url(#a)" fill="#fff" stroke="#fff"/>
<g clip-path="url(#a)">
<defs>
<path id="ae" d="m8.6875 72.906h9.9219v-44.297q0-11.719 4.2344-16.875 4.25-5.1406 13.781-5.1406 9.4688 0 13.719 5.1406 4.25 5.1562 4.25 16.875v44.297h9.9062v-45.516q0-14.25-7.0625-21.531-7.0469-7.2812-20.812-7.2812-13.828 0-20.891 7.2812-7.0469 7.2812-7.0469 21.531z"/>
</defs>
<g transform="translate(132.89 333.63) rotate(-64.994) scale(.08 -.08)">
<use xlink:href="#ae"/>
</g>
</g>
<path d="m181.68 334.22 1.2226-5.7259q0.50114-2.3471-1.846-2.8482l-7.5718-1.6167q-2.3471-0.50114-2.8482 1.846l-1.2226 5.7259q-0.50114 2.3471 1.846 2.8482l7.5718 1.6167q2.3471 0.50114 2.8482-1.846z" clip-path="url(#a)" fill="#fff" stroke="#fff"/>
<g clip-path="url(#a)">
<g transform="translate(177.71 333.37) rotate(-77.948) scale(.08 -.08)">
<use xlink:href="#ae"/>
</g>
</g>
<path d="m88.678 514.14v35.285q0 2.4 2.4 2.4h7.7425q2.4 0 2.4-2.4v-35.285q0-2.4-2.4-2.4h-7.7425q-2.4 0-2.4 2.4z" clip-path="url(#a)" fill="#fff" stroke="#fff"/>
<g clip-path="url(#a)">
<defs>
<path id="l" d="m-0.29688 72.906h61.672v-8.3125h-25.875v-64.594h-9.9062v64.594h-25.891z"/>
<path id="d" d="m56.203 29.594v-4.3906h-41.312q0.59375-9.2812 5.5938-14.141t13.938-4.8594q5.1719 0 10.031 1.2656t9.6562 3.8125v-8.5q-4.8438-2.0469-9.9219-3.125t-10.297-1.0781q-13.094 0-20.734 7.6094-7.6406 7.625-7.6406 20.625 0 13.422 7.25 21.297 7.25 7.8906 19.562 7.8906 11.031 0 17.453-7.1094 6.4219-7.0938 6.4219-19.297zm-8.9844 2.6406q-0.09375 7.3594-4.125 11.75-4.0312 4.4062-10.672 4.4062-7.5156 0-12.031-4.25t-5.2031-11.969z"/>
<path id="h" d="m41.109 46.297q-1.5156 0.875-3.2969 1.2812-1.7812 0.42188-3.9219 0.42188-7.625 0-11.703-4.9531t-4.0781-14.234v-28.812h-9.0312v54.688h9.0312v-8.5q2.8438 4.9844 7.375 7.3906 4.5469 2.4219 11.047 2.4219 0.92188 0 2.0469-0.125 1.125-0.10938 2.4844-0.35938z"/>
<path id="j" d="m52 44.188q3.375 6.0625 8.0625 8.9375t11.031 2.875q8.5469 0 13.188-5.9844 4.6406-5.9688 4.6406-17v-33.016h-9.0312v32.719q0 7.8594-2.7969 11.656-2.7812 3.8125-8.4844 3.8125-6.9844 0-11.047-4.6406-4.0469-4.625-4.0469-12.641v-30.906h-9.0312v32.719q0 7.9062-2.7812 11.688t-8.5938 3.7812q-6.8906 0-10.953-4.6562-4.0469-4.6562-4.0469-12.625v-30.906h-9.0312v54.688h9.0312v-8.5q3.0781 5.0312 7.375 7.4219t10.203 2.3906q5.9688 0 10.141-3.0312 4.1719-3.0156 6.1719-8.7812z"/>
<path id="g" d="m9.4219 54.688h8.9844v-54.688h-8.9844zm0 21.297h8.9844v-11.391h-8.9844z"/>
<path id="i" d="m54.891 33.016v-33.016h-8.9844v32.719q0 7.7656-3.0312 11.609-3.0312 3.8594-9.0781 3.8594-7.2812 0-11.484-4.6406-4.2031-4.625-4.2031-12.641v-30.906h-9.0312v54.688h9.0312v-8.5q3.2344 4.9375 7.5938 7.375 4.375 2.4375 10.094 2.4375 9.4219 0 14.25-5.8281 4.8438-5.8281 4.8438-17.156z"/>
<path id="f" d="m34.281 27.484q-10.891 0-15.094-2.4844t-4.2031-8.5q0-4.7812 3.1562-7.5938 3.1562-2.7969 8.5625-2.7969 7.4844 0 12 5.2969t4.5156 14.078v2zm17.922 3.7188v-31.203h-8.9844v8.2969q-3.0781-4.9688-7.6719-7.3438t-11.234-2.375q-8.3906 0-13.359 4.7188-4.9531 4.7188-4.9531 12.625 0 9.2188 6.1719 13.906 6.1875 4.6875 18.438 4.6875h12.609v0.89062q0 6.2031-4.0781 9.5938t-11.453 3.3906q-4.6875 0-9.1406-1.125-4.4375-1.125-8.5312-3.375v8.3125q4.9219 1.9062 9.5625 2.8438 4.6406 0.95312 9.0312 0.95312 11.875 0 17.734-6.1562 5.8594-6.1406 5.8594-18.641z"/>
<path id="k" d="m9.4219 75.984h8.9844v-75.984h-8.9844z"/>
</defs>
<g transform="translate(92.742 514.14) rotate(90) scale(.08 -.08)">
<use xlink:href="#l"/>
<use x="60.818359" xlink:href="#d"/>
<use x="122.341797" xlink:href="#h"/>
<use x="163.439453" xlink:href="#j"/>
<use x="260.851562" xlink:href="#g"/>
<use x="288.634766" xlink:href="#i"/>
<use x="352.013672" xlink:href="#f"/>
<use x="413.292969" xlink:href="#k"/>
</g>
</g>
<path d="m407.56 254.09 5.3784-1.0104q2.3587-0.44311 1.9156-2.8018l-1.4295-7.6094q-0.44311-2.3587-2.8018-1.9156l-5.3784 1.0104q-2.3587 0.44311-1.9156 2.8018l1.4295 7.6094q0.44311 2.3587 2.8018 1.9156z" clip-path="url(#a)" fill="#fff" stroke="#fff"/>
<g clip-path="url(#a)">
<g transform="translate(406.81 250.1) rotate(-10.64) scale(.08 -.08)">
<use xlink:href="#s"/>
</g>
</g>
<path d="m557.78 364.6 0.70824-6.1192q0.27594-2.3841-2.1081-2.66l-7.6912-0.89018q-2.3841-0.27594-2.66 2.1081l-0.70824 6.1192q-0.27594 2.3841 2.1081 2.66l7.6912 0.89018q2.3841 0.27594 2.66-2.1081z" clip-path="url(#a)" fill="#fff" stroke="#fff"/>
<g clip-path="url(#a)">
<defs>
<path id="ap" d="m19.672 64.797v-56.688h11.922q15.094 0 22.094 6.8281 7 6.8438 7 21.594 0 14.641-7 21.453t-22.094 6.8125zm-9.8594 8.1094h20.266q21.188 0 31.094-8.8125 9.9219-8.8125 9.9219-27.562 0-18.859-9.9688-27.703-9.9531-8.8281-31.047-8.8281h-20.266z"/>
</defs>
<g transform="translate(553.74 364.13) rotate(-83.398) scale(.08 -.08)">
<use xlink:href="#ap"/>
</g>
</g>
<path d="m611.25 333.44 1.8961 4.4355q0.94338 2.2068 3.1502 1.2634l7.1193-3.0434q2.2068-0.94338 1.2634-3.1502l-1.8961-4.4355q-0.94338-2.2068-3.1502-1.2634l-7.1193 3.0434q-2.2068 0.94338-1.2634 3.1502z" clip-path="url(#a)" fill="#fff" stroke="#fff"/>
<g clip-path="url(#a)">
<g transform="translate(614.98 331.84) rotate(66.854) scale(.08 -.08)">
<use xlink:href="#v"/>
</g>
</g>
<path d="m689.2 308.77 4.4978 3.1174q1.9725 1.3672 3.3397-0.60534l4.4106-6.3634q1.3672-1.9725-0.60534-3.3397l-4.4978-3.1174q-1.9725-1.3672-3.3397 0.60534l-4.4106 6.3634q-1.3672 1.9725 0.60534 3.3397z" clip-path="url(#a)" fill="#fff" stroke="#fff"/>
<g clip-path="url(#a)">
<g transform="translate(691.52 305.43) rotate(34.726) scale(.08 -.08)">
<use xlink:href="#s"/>
</g>
</g>
<path d="m221.66 394.96 1.4257-4.8498q0.67687-2.3026-1.6257-2.9794l-7.4282-2.1836q-2.3026-0.67687-2.9794 1.6257l-1.4257 4.8498q-0.67687 2.3026 1.6257 2.9794l7.4282 2.1836q2.3026 0.67687 2.9794-1.6257z" clip-path="url(#a)" fill="#fff" stroke="#fff"/>
<g clip-path="url(#a)">
<defs>
<path id="r" d="m9.8125 72.906h46.094v-8.3125h-36.234v-21.578h34.719v-8.2969h-34.719v-26.422h37.109v-8.2969h-46.969z"/>
</defs>
<g transform="translate(217.76 393.81) rotate(-73.619) scale(.08 -.08)">
<use xlink:href="#r"/>
</g>
</g>
<path d="m244.34 394.17 0.55467-5.5586q0.2383-2.3881-2.1498-2.6264l-7.7042-0.76877q-2.3881-0.2383-2.6264 2.1498l-0.55467 5.5586q-0.2383 2.3881 2.1498 2.6264l7.7042 0.76877q2.3881 0.2383 2.6264-2.1498z" clip-path="url(#a)" fill="#fff" stroke="#fff"/>
<g clip-path="url(#a)">
<defs>
<path id="q" d="m64.406 67.281v-10.391q-4.9844 4.6406-10.625 6.9219-5.6406 2.2969-11.984 2.2969-12.5 0-19.141-7.6406t-6.6406-22.094q0-14.406 6.6406-22.047t19.141-7.6406q6.3438 0 11.984 2.2969t10.625 6.9375v-10.312q-5.1719-3.5156-10.969-5.2812-5.7812-1.75-12.219-1.75-16.562 0-26.094 10.125-9.5156 10.141-9.5156 27.672 0 17.578 9.5156 27.703 9.5312 10.141 26.094 10.141 6.5312 0 12.312-1.7344 5.7969-1.7344 10.875-5.2031z"/>
</defs>
<g transform="translate(240.29 393.76) rotate(-84.302) scale(.08 -.08)">
<use xlink:href="#q"/>
</g>
</g>
<path d="m288.79 310.44 4.2305 2.7669q2.0085 1.3137 3.3222-0.69486l4.238-6.4796q1.3137-2.0085-0.69486-3.3222l-4.2305-2.7669q-2.0085-1.3137-3.3222 0.69486l-4.238 6.4796q-1.3137 2.0085 0.69486 3.3222z" clip-path="url(#a)" fill="#fff" stroke="#fff"/>
<g clip-path="url(#a)">
<g transform="translate(291.01 307.04) rotate(33.187) scale(.08 -.08)">
<use xlink:href="#r"/>
</g>
</g>
<path d="m529.04 514.14v35.285q0 2.4 2.4 2.4h7.7425q2.4 0 2.4-2.4v-35.285q0-2.4-2.4-2.4h-7.7425q-2.4 0-2.4 2.4z" clip-path="url(#a)" fill="#fff" stroke="#fff"/>
<g clip-path="url(#a)">
<g transform="translate(533.11 514.14) rotate(90) scale(.08 -.08)">
<use xlink:href="#l"/>
<use x="60.818359" xlink:href="#d"/>
<use x="122.341797" xlink:href="#h"/>
<use x="163.439453" xlink:href="#j"/>
<use x="260.851562" xlink:href="#g"/>
<use x="288.634766" xlink:href="#i"/>
<use x="352.013672" xlink:href="#f"/>
<use x="413.292969" xlink:href="#k"/>
</g>
</g>
<path d="m648.57 482.62 3.4816-4.3686q1.4958-1.8769-0.38107-3.3727l-6.0548-4.8255q-1.8769-1.4958-3.3727 0.38107l-3.4816 4.3686q-1.4958 1.8769 0.38107 3.3727l6.0548 4.8255q1.8769 1.4958 3.3727-0.38107z" clip-path="url(#a)" fill="#fff" stroke="#fff"/>
<g clip-path="url(#a)">
<g transform="translate(645.39 480.09) rotate(-51.446) scale(.08 -.08)">
<use xlink:href="#q"/>
</g>
</g>
<path d="m682.81 478.26 3.4645 4.3471q1.4958 1.8769 3.3727 0.38107l6.0548-4.8255q1.8769-1.4958 0.38107-3.3727l-3.4645-4.3471q-1.4958-1.8769-3.3727-0.38107l-6.0548 4.8255q-1.8769 1.4958-0.38107 3.3727z" clip-path="url(#a)" fill="#fff" stroke="#fff"/>
<g clip-path="url(#a)">
<defs>
<path id="u" d="m44.391 34.188q3.1719-1.0781 6.1719-4.5938t6.0312-9.6719l10.016-19.922h-10.609l-9.3125 18.703q-3.625 7.3281-7.0156 9.7188t-9.25 2.3906h-10.75v-30.812h-9.8594v72.906h22.266q12.5 0 18.656-5.2344 6.1562-5.2188 6.1562-15.766 0-6.8906-3.2031-11.438-3.2031-4.5312-9.2969-6.2812zm-24.719 30.609v-25.875h12.406q7.125 0 10.766 3.2969t3.6406 9.6875-3.6406 9.6406-10.766 3.25z"/>
</defs>
<g transform="translate(685.98 475.73) rotate(51.446) scale(.08 -.08)">
<use xlink:href="#u"/>
</g>
</g>
<path d="m792.63 453.89 2.5803-4.3469q1.2251-2.0638-0.83874-3.2888l-6.6579-3.9521q-2.0638-1.2251-3.2888 0.83874l-2.5803 4.3469q-1.2251 2.0638 0.83874 3.2888l6.6579 3.9521q2.0638 1.2251 3.2888-0.83874z" clip-path="url(#a)" fill="#fff" stroke="#fff"/>
<g clip-path="url(#a)">
<g transform="translate(789.13 451.82) rotate(-59.307) scale(.08 -.08)">
<use xlink:href="#r"/>
</g>
</g>
<path d="m816.15 452.47 1.0843-5.48q0.46584-2.3544-1.8885-2.8202l-7.5952-1.5028q-2.3544-0.46584-2.8202 1.8885l-1.0843 5.48q-0.46584 2.3544 1.8885 2.8202l7.5952 1.5028q2.3544 0.46584 2.8202-1.8885z" clip-path="url(#a)" fill="#fff" stroke="#fff"/>
<g clip-path="url(#a)">
<g transform="translate(812.17 451.69) rotate(-78.808) scale(.08 -.08)">
<use xlink:href="#q"/>
</g>
</g>
<path d="m860.09 424.82 4.2652 2.7131q2.025 1.2881 3.3132-0.73689l4.1556-6.5328q1.2881-2.025-0.73689-3.3132l-4.2652-2.7131q-2.025-1.2881-3.3132 0.73689l-4.1556 6.5328q-1.2881 2.025 0.73689 3.3132z" clip-path="url(#a)" fill="#fff" stroke="#fff"/>
<g clip-path="url(#a)">
<g transform="translate(862.27 421.4) rotate(32.461) scale(.08 -.08)">
<use xlink:href="#r"/>
</g>
</g>
<path d="m749.23 514.14v35.285q0 2.4 2.4 2.4h7.7425q2.4 0 2.4-2.4v-35.285q0-2.4-2.4-2.4h-7.7425q-2.4 0-2.4 2.4z" clip-path="url(#a)" fill="#fff" stroke="#fff"/>
<g clip-path="url(#a)">
<g transform="translate(753.29 514.14) rotate(90) scale(.08 -.08)">
<use xlink:href="#l"/>
<use x="60.818359" xlink:href="#d"/>
<use x="122.341797" xlink:href="#h"/>
<use x="163.439453" xlink:href="#j"/>
<use x="260.851562" xlink:href="#g"/>
<use x="288.634766" xlink:href="#i"/>
<use x="352.013672" xlink:href="#f"/>
<use x="413.292969" xlink:href="#k"/>
</g>
</g>
<path d="m793.26 514.14v35.285q0 2.4 2.4 2.4h7.7425q2.4 0 2.4-2.4v-35.285q0-2.4-2.4-2.4h-7.7425q-2.4 0-2.4 2.4z" clip-path="url(#a)" fill="#fff" stroke="#fff"/>
<g clip-path="url(#a)">
<g transform="translate(797.33 514.14) rotate(90) scale(.08 -.08)">
<use xlink:href="#l"/>
<use x="60.818359" xlink:href="#d"/>
<use x="122.341797" xlink:href="#h"/>
<use x="163.439453" xlink:href="#j"/>
<use x="260.851562" xlink:href="#g"/>
<use x="288.634766" xlink:href="#i"/>
<use x="352.013672" xlink:href="#f"/>
<use x="413.292969" xlink:href="#k"/>
</g>
</g>
<path d="m878.49 483.12 4.2637-3.5666q1.8409-1.5399 0.30097-3.3807l-4.9677-5.9387q-1.5399-1.8409-3.3807-0.30097l-4.2637 3.5666q-1.8409 1.5399-0.30097 3.3807l4.9677 5.9387q1.5399 1.8409 3.3807 0.30097z" clip-path="url(#a)" fill="#fff" stroke="#fff"/>
<g clip-path="url(#a)">
<g transform="translate(875.88 480.01) rotate(-39.913) scale(.08 -.08)">
<use xlink:href="#u"/>
</g>
</g>
<path d="m903.51 481.2 1.8712-4.6959q0.88842-2.2295-1.3411-3.1179l-7.1925-2.8661q-2.2295-0.88842-3.1179 1.3411l-1.8712 4.6959q-0.88842 2.2295 1.3411 3.1179l7.1925 2.8661q2.2295 0.88842 3.1179-1.3411z" clip-path="url(#a)" fill="#fff" stroke="#fff"/>
<g clip-path="url(#a)">
<g transform="translate(899.73 479.69) rotate(-68.274) scale(.08 -.08)">
<use xlink:href="#r"/>
</g>
</g>
<path d="m913.78 476.26 2.0679 5.1894q0.88842 2.2295 3.1179 1.3411l7.1925-2.8661q2.2295-0.88842 1.3411-3.1179l-2.0679-5.1894q-0.88842-2.2295-3.1179-1.3411l-7.1925 2.8661q-2.2295 0.88842-1.3411 3.1179z" clip-path="url(#a)" fill="#fff" stroke="#fff"/>
<g clip-path="url(#a)">
<g transform="translate(917.55 474.75) rotate(68.274) scale(.08 -.08)">
<use xlink:href="#q"/>
</g>
</g>
<path d="m936.38 479.46 4.4909 3.7567q1.8409 1.5399 3.3807-0.30097l4.9677-5.9387q1.5399-1.8409-0.30097-3.3807l-4.4909-3.7567q-1.8409-1.5399-3.3807 0.30097l-4.9677 5.9387q-1.5399 1.8409 0.30097 3.3807z" clip-path="url(#a)" fill="#fff" stroke="#fff"/>
<g clip-path="url(#a)">
<g transform="translate(938.99 476.34) rotate(39.913) scale(.08 -.08)">
<use xlink:href="#ae"/>
</g>
</g>
<path d="m837.3 514.14v35.285q0 2.4 2.4 2.4h7.7425q2.4 0 2.4-2.4v-35.285q0-2.4-2.4-2.4h-7.7425q-2.4 0-2.4 2.4z" clip-path="url(#a)" fill="#fff" stroke="#fff"/>
<g clip-path="url(#a)">
<g transform="translate(841.36 514.14) rotate(90) scale(.08 -.08)">
<use xlink:href="#l"/>
<use x="60.818359" xlink:href="#d"/>
<use x="122.341797" xlink:href="#h"/>
<use x="163.439453" xlink:href="#j"/>
<use x="260.851562" xlink:href="#g"/>
<use x="288.634766" xlink:href="#i"/>
<use x="352.013672" xlink:href="#f"/>
<use x="413.292969" xlink:href="#k"/>
</g>
</g>
<path d="m881.34 514.14v35.285q0 2.4 2.4 2.4h7.7425q2.4 0 2.4-2.4v-35.285q0-2.4-2.4-2.4h-7.7425q-2.4 0-2.4 2.4z" clip-path="url(#a)" fill="#fff" stroke="#fff"/>
<g clip-path="url(#a)">
<g transform="translate(885.4 514.14) rotate(90) scale(.08 -.08)">
<use xlink:href="#l"/>
<use x="60.818359" xlink:href="#d"/>
<use x="122.341797" xlink:href="#h"/>
<use x="163.439453" xlink:href="#j"/>
<use x="260.851562" xlink:href="#g"/>
<use x="288.634766" xlink:href="#i"/>
<use x="352.013672" xlink:href="#f"/>
<use x="413.292969" xlink:href="#k"/>
</g>
</g>
<path d="m925.37 514.14v35.285q0 2.4 2.4 2.4h7.7425q2.4 0 2.4-2.4v-35.285q0-2.4-2.4-2.4h-7.7425q-2.4 0-2.4 2.4z" clip-path="url(#a)" fill="#fff" stroke="#fff"/>
<g clip-path="url(#a)">
<g transform="translate(929.44 514.14) rotate(90) scale(.08 -.08)">
<use xlink:href="#l"/>
<use x="60.818359" xlink:href="#d"/>
<use x="122.341797" xlink:href="#h"/>
<use x="163.439453" xlink:href="#j"/>
<use x="260.851562" xlink:href="#g"/>
<use x="288.634766" xlink:href="#i"/>
<use x="352.013672" xlink:href="#f"/>
<use x="413.292969" xlink:href="#k"/>
</g>
</g>
<path d="m595.28 549.49 21.991-27.594q1.4958-1.8769-0.38107-3.3727l-6.0548-4.8255q-1.8769-1.4958-3.3727 0.38107l-21.991 27.594q-1.4958 1.8769 0.38107 3.3727l6.0548 4.8255q1.8769 1.4958 3.3727-0.38107z" clip-path="url(#a)" fill="#fff" stroke="#fff"/>
<g clip-path="url(#a)">
<g transform="translate(592.1 546.96) rotate(-51.446) scale(.08 -.08)">
<use xlink:href="#l"/>
<use x="60.818359" xlink:href="#d"/>
<use x="122.341797" xlink:href="#h"/>
<use x="163.439453" xlink:href="#j"/>
<use x="260.851562" xlink:href="#g"/>
<use x="288.634766" xlink:href="#i"/>
<use x="352.013672" xlink:href="#f"/>
<use x="413.292969" xlink:href="#k"/>
</g>
</g>
<path d="m617.12 514.14v35.285q0 2.4 2.4 2.4h7.7425q2.4 0 2.4-2.4v-35.285q0-2.4-2.4-2.4h-7.7425q-2.4 0-2.4 2.4z" clip-path="url(#a)" fill="#fff" stroke="#fff"/>
<g clip-path="url(#a)">
<g transform="translate(621.18 514.14) rotate(90) scale(.08 -.08)">
<use xlink:href="#l"/>
<use x="60.818359" xlink:href="#d"/>
<use x="122.341797" xlink:href="#h"/>
<use x="163.439453" xlink:href="#j"/>
<use x="260.851562" xlink:href="#g"/>
<use x="288.634766" xlink:href="#i"/>
<use x="352.013672" xlink:href="#f"/>
<use x="413.292969" xlink:href="#k"/>
</g>
</g>
<path d="m629.51 521.9 21.991 27.594q1.4958 1.8769 3.3727 0.38107l6.0548-4.8255q1.8769-1.4958 0.38107-3.3727l-21.991-27.594q-1.4958-1.8769-3.3727-0.38107l-6.0548 4.8255q-1.8769 1.4958-0.38107 3.3727z" clip-path="url(#a)" fill="#fff" stroke="#fff"/>
<g clip-path="url(#a)">
<g transform="translate(632.68 519.36) rotate(51.446) scale(.08 -.08)">
<use xlink:href="#l"/>
<use x="60.818359" xlink:href="#d"/>
<use x="122.341797" xlink:href="#h"/>
<use x="163.439453" xlink:href="#j"/>
<use x="260.851562" xlink:href="#g"/>
<use x="288.634766" xlink:href="#i"/>
<use x="352.013672" xlink:href="#f"/>
<use x="413.292969" xlink:href="#k"/>
</g>
</g>
<path d="m705.19 514.14v35.285q0 2.4 2.4 2.4h7.7425q2.4 0 2.4-2.4v-35.285q0-2.4-2.4-2.4h-7.7425q-2.4 0-2.4 2.4z" clip-path="url(#a)" fill="#fff" stroke="#fff"/>
<g clip-path="url(#a)">
<g transform="translate(709.25 514.14) rotate(90) scale(.08 -.08)">
<use xlink:href="#l"/>
<use x="60.818359" xlink:href="#d"/>
<use x="122.341797" xlink:href="#h"/>
<use x="163.439453" xlink:href="#j"/>
<use x="260.851562" xlink:href="#g"/>
<use x="288.634766" xlink:href="#i"/>
<use x="352.013672" xlink:href="#f"/>
<use x="413.292969" xlink:href="#k"/>
</g>
</g>
<path d="m176.75 514.14v35.285q0 2.4 2.4 2.4h7.7425q2.4 0 2.4-2.4v-35.285q0-2.4-2.4-2.4h-7.7425q-2.4 0-2.4 2.4z" clip-path="url(#a)" fill="#fff" stroke="#fff"/>
<g clip-path="url(#a)">
<g transform="translate(180.82 514.14) rotate(90) scale(.08 -.08)">
<use xlink:href="#l"/>
<use x="60.818359" xlink:href="#d"/>
<use x="122.341797" xlink:href="#h"/>
<use x="163.439453" xlink:href="#j"/>
<use x="260.851562" xlink:href="#g"/>
<use x="288.634766" xlink:href="#i"/>
<use x="352.013672" xlink:href="#f"/>
<use x="413.292969" xlink:href="#k"/>
</g>
</g>
<path d="m220.79 514.14v35.285q0 2.4 2.4 2.4h7.7425q2.4 0 2.4-2.4v-35.285q0-2.4-2.4-2.4h-7.7425q-2.4 0-2.4 2.4z" clip-path="url(#a)" fill="#fff" stroke="#fff"/>
<g clip-path="url(#a)">
<g transform="translate(224.85 514.14) rotate(90) scale(.08 -.08)">
<use xlink:href="#l"/>
<use x="60.818359" xlink:href="#d"/>
<use x="122.341797" xlink:href="#h"/>
<use x="163.439453" xlink:href="#j"/>
<use x="260.851562" xlink:href="#g"/>
<use x="288.634766" xlink:href="#i"/>
<use x="352.013672" xlink:href="#f"/>
<use x="413.292969" xlink:href="#k"/>
</g>
</g>
<path d="m309.82 424.89 2.0786-5.1555q0.89745-2.2259-1.3284-3.1233l-7.1808-2.8952q-2.2259-0.89745-3.1233 1.3284l-2.0786 5.1555q-0.89745 2.2259 1.3284 3.1233l7.1808 2.8952q2.2259 0.89745 3.1233-1.3284z" clip-path="url(#a)" fill="#fff" stroke="#fff"/>
<g clip-path="url(#a)">
<g transform="translate(306.05 423.37) rotate(-68.041) scale(.08 -.08)">
<use xlink:href="#u"/>
</g>
</g>
<path d="m332.91 423.35 0.70902-5.005q0.33662-2.3763-2.0397-2.7129l-7.666-1.086q-2.3763-0.33662-2.7129 2.0397l-0.70902 5.005q-0.33662 2.3763 2.0396 2.7129l7.666 1.086q2.3763 0.33662 2.7129-2.0397z" clip-path="url(#a)" fill="#fff" stroke="#fff"/>
<g clip-path="url(#a)">
<g transform="translate(328.89 422.78) rotate(-81.937) scale(.08 -.08)">
<use xlink:href="#r"/>
</g>
</g>
<path d="m342.52 417.94 0.66485 5.5465q0.28564 2.3829 2.6686 2.0973l7.6875-0.92147q2.3829-0.28564 2.0973-2.6686l-0.66485-5.5465q-0.28564-2.3829-2.6686-2.0973l-7.6875 0.92147q-2.3829 0.28564-2.0973 2.6686z" clip-path="url(#a)" fill="#fff" stroke="#fff"/>
<g clip-path="url(#a)">
<g transform="translate(346.55 417.46) rotate(83.165) scale(.08 -.08)">
<use xlink:href="#q"/>
</g>
</g>
<path d="m368.88 367.65 3.9512 3.153q1.8759 1.497 3.3729-0.37898l4.8292-6.0518q1.497-1.8759-0.37898-3.3729l-3.9512-3.153q-1.8759-1.497-3.3729 0.37898l-4.8292 6.0518q-1.497 1.8759 0.37898 3.3729z" clip-path="url(#a)" fill="#fff" stroke="#fff"/>
<g clip-path="url(#a)">
<g transform="translate(371.41 364.48) rotate(38.589) scale(.08 -.08)">
<use xlink:href="#r"/>
</g>
</g>
<path d="m264.82 514.14v35.285q0 2.4 2.4 2.4h7.7425q2.4 0 2.4-2.4v-35.285q0-2.4-2.4-2.4h-7.7425q-2.4 0-2.4 2.4z" clip-path="url(#a)" fill="#fff" stroke="#fff"/>
<g clip-path="url(#a)">
<g transform="translate(268.89 514.14) rotate(90) scale(.08 -.08)">
<use xlink:href="#l"/>
<use x="60.818359" xlink:href="#d"/>
<use x="122.341797" xlink:href="#h"/>
<use x="163.439453" xlink:href="#j"/>
<use x="260.851562" xlink:href="#g"/>
<use x="288.634766" xlink:href="#i"/>
<use x="352.013672" xlink:href="#f"/>
<use x="413.292969" xlink:href="#k"/>
</g>
</g>
<path d="m308.86 514.14v35.285q0 2.4 2.4 2.4h7.7425q2.4 0 2.4-2.4v-35.285q0-2.4-2.4-2.4h-7.7425q-2.4 0-2.4 2.4z" clip-path="url(#a)" fill="#fff" stroke="#fff"/>
<g clip-path="url(#a)">
<g transform="translate(312.92 514.14) rotate(90) scale(.08 -.08)">
<use xlink:href="#l"/>
<use x="60.818359" xlink:href="#d"/>
<use x="122.341797" xlink:href="#h"/>
<use x="163.439453" xlink:href="#j"/>
<use x="260.851562" xlink:href="#g"/>
<use x="288.634766" xlink:href="#i"/>
<use x="352.013672" xlink:href="#f"/>
<use x="413.292969" xlink:href="#k"/>
</g>
</g>
<path d="m352.9 514.14v35.285q0 2.4 2.4 2.4h7.7425q2.4 0 2.4-2.4v-35.285q0-2.4-2.4-2.4h-7.7425q-2.4 0-2.4 2.4z" clip-path="url(#a)" fill="#fff" stroke="#fff"/>
<g clip-path="url(#a)">
<g transform="translate(356.96 514.14) rotate(90) scale(.08 -.08)">
<use xlink:href="#l"/>
<use x="60.818359" xlink:href="#d"/>
<use x="122.341797" xlink:href="#h"/>
<use x="163.439453" xlink:href="#j"/>
<use x="260.851562" xlink:href="#g"/>
<use x="288.634766" xlink:href="#i"/>
<use x="352.013672" xlink:href="#f"/>
<use x="413.292969" xlink:href="#k"/>
</g>
</g>
<path d="m389.4 453.63 2.2939-4.9685q1.006-2.179-1.173-3.185l-7.0295-3.2454q-2.179-1.006-3.185 1.173l-2.2939 4.9685q-1.006 2.179 1.173 3.185l7.0295 3.2454q2.179 1.006 3.185-1.173z" clip-path="url(#a)" fill="#fff" stroke="#fff"/>
<g clip-path="url(#a)">
<g transform="translate(385.71 451.93) rotate(-65.218) scale(.08 -.08)">
<use xlink:href="#s"/>
</g>
</g>
<path d="m412.97 451.34 0.31746-4.8133q0.15795-2.3948-2.2368-2.5527l-7.7257-0.50955q-2.3948-0.15795-2.5527 2.2368l-0.31746 4.8133q-0.15795 2.3948 2.2368 2.5527l7.7257 0.50955q2.3948 0.15795 2.5527-2.2368z" clip-path="url(#a)" fill="#fff" stroke="#fff"/>
<g clip-path="url(#a)">
<g transform="translate(408.92 451.07) rotate(-86.227) scale(.08 -.08)">
<use xlink:href="#v"/>
</g>
</g>
<path d="m433.59 423.54 3.9593 3.7778q1.7364 1.6568 3.3932-0.079592l5.3449-5.6017q1.6568-1.7364-0.079592-3.3932l-3.9593-3.7778q-1.7364-1.6568-3.3932 0.079592l-5.3449 5.6017q-1.6568 1.7364 0.079592 3.3932z" clip-path="url(#a)" fill="#fff" stroke="#fff"/>
<g clip-path="url(#a)">
<g transform="translate(436.4 420.6) rotate(43.656) scale(.08 -.08)">
<use xlink:href="#s"/>
</g>
</g>
<path d="m396.93 514.14v35.285q0 2.4 2.4 2.4h7.7425q2.4 0 2.4-2.4v-35.285q0-2.4-2.4-2.4h-7.7425q-2.4 0-2.4 2.4z" clip-path="url(#a)" fill="#fff" stroke="#fff"/>
<g clip-path="url(#a)">
<g transform="translate(401 514.14) rotate(90) scale(.08 -.08)">
<use xlink:href="#l"/>
<use x="60.818359" xlink:href="#d"/>
<use x="122.341797" xlink:href="#h"/>
<use x="163.439453" xlink:href="#j"/>
<use x="260.851562" xlink:href="#g"/>
<use x="288.634766" xlink:href="#i"/>
<use x="352.013672" xlink:href="#f"/>
<use x="413.292969" xlink:href="#k"/>
</g>
</g>
<path d="m463.05 481.43 2.0577-5.1639q0.88842-2.2295-1.3411-3.1179l-7.1925-2.8661q-2.2295-0.88842-3.1179 1.3411l-2.0577 5.1639q-0.88842 2.2295 1.3411 3.1179l7.1925 2.8661q2.2295 0.88842 3.1179-1.3411z" clip-path="url(#a)" fill="#fff" stroke="#fff"/>
<g clip-path="url(#a)">
<g transform="translate(459.27 479.93) rotate(-68.274) scale(.08 -.08)">
<use xlink:href="#u"/>
</g>
</g>
<path d="m473.41 476.26 2.0679 5.1894q0.88842 2.2295 3.1179 1.3411l7.1925-2.8661q2.2295-0.88842 1.3411-3.1179l-2.0679-5.1894q-0.88842-2.2295-3.1179-1.3411l-7.1925 2.8661q-2.2295 0.88842-1.3411 3.1179z" clip-path="url(#a)" fill="#fff" stroke="#fff"/>
<g clip-path="url(#a)">
<g transform="translate(477.18 474.75) rotate(68.274) scale(.08 -.08)">
<use xlink:href="#q"/>
</g>
</g>
<path d="m440.97 514.14v35.285q0 2.4 2.4 2.4h7.7425q2.4 0 2.4-2.4v-35.285q0-2.4-2.4-2.4h-7.7425q-2.4 0-2.4 2.4z" clip-path="url(#a)" fill="#fff" stroke="#fff"/>
<g clip-path="url(#a)">
<g transform="translate(445.03 514.14) rotate(90) scale(.08 -.08)">
<use xlink:href="#l"/>
<use x="60.818359" xlink:href="#d"/>
<use x="122.341797" xlink:href="#h"/>
<use x="163.439453" xlink:href="#j"/>
<use x="260.851562" xlink:href="#g"/>
<use x="288.634766" xlink:href="#i"/>
<use x="352.013672" xlink:href="#f"/>
<use x="413.292969" xlink:href="#k"/>
</g>
</g>
<path d="m485.01 514.14v35.285q0 2.4 2.4 2.4h7.7425q2.4 0 2.4-2.4v-35.285q0-2.4-2.4-2.4h-7.7425q-2.4 0-2.4 2.4z" clip-path="url(#a)" fill="#fff" stroke="#fff"/>
<g clip-path="url(#a)">
<g transform="translate(489.07 514.14) rotate(90) scale(.08 -.08)">
<use xlink:href="#l"/>
<use x="60.818359" xlink:href="#d"/>
<use x="122.341797" xlink:href="#h"/>
<use x="163.439453" xlink:href="#j"/>
<use x="260.851562" xlink:href="#g"/>
<use x="288.634766" xlink:href="#i"/>
<use x="352.013672" xlink:href="#f"/>
<use x="413.292969" xlink:href="#k"/>
</g>
</g>
<path d="m215.71 337.71 5.632-8.2829q1.3495-1.9847-0.6352-3.3341l-6.4026-4.3535q-1.9847-1.3495-3.3341 0.6352l-5.632 8.2829q-1.3495 1.9847 0.6352 3.3341l6.4026 4.3535q1.9847 1.3495 3.3341-0.6352z" clip-path="url(#a)" fill="#fff" stroke="#fff"/>
<g clip-path="url(#a)">
<g transform="translate(212.35 335.43) rotate(-55.786) scale(.08 -.08)">
<use xlink:href="#w"/>
<use x="55.712891" xlink:href="#u"/>
</g>
</g>
<path d="m443.72 191.53 9.6131 2.4987q2.3228 0.60377 2.9266-1.719l1.9478-7.4935q0.60377-2.3228-1.719-2.9266l-9.6131-2.4987q-2.3228-0.60377-2.9266 1.719l-1.9478 7.4935q-0.60377 2.3228 1.719 2.9266z" clip-path="url(#a)" fill="#fff" stroke="#fff"/>
<g clip-path="url(#a)">
<g transform="translate(444.75 187.6) rotate(14.571) scale(.08 -.08)">
<use xlink:href="#w"/>
<use x="55.744141" xlink:href="#s"/>
</g>
</g>
<path d="m44.642 514.14v35.285q0 2.4 2.4 2.4h7.7425q2.4 0 2.4-2.4v-35.285q0-2.4-2.4-2.4h-7.7425q-2.4 0-2.4 2.4z" clip-path="url(#a)" fill="#fff" stroke="#fff"/>
<g clip-path="url(#a)">
<g transform="translate(48.706 514.14) rotate(90) scale(.08 -.08)">
<use xlink:href="#l"/>
<use x="60.818359" xlink:href="#d"/>
<use x="122.341797" xlink:href="#h"/>
<use x="163.439453" xlink:href="#j"/>
<use x="260.851562" xlink:href="#g"/>
<use x="288.634766" xlink:href="#i"/>
<use x="352.013672" xlink:href="#f"/>
<use x="413.292969" xlink:href="#k"/>
</g>
</g>
<path d="m132.71 514.14v35.285q0 2.4 2.4 2.4h7.7425q2.4 0 2.4-2.4v-35.285q0-2.4-2.4-2.4h-7.7425q-2.4 0-2.4 2.4z" clip-path="url(#a)" fill="#fff" stroke="#fff"/>
<g clip-path="url(#a)">
<g transform="translate(136.78 514.14) rotate(90) scale(.08 -.08)">
<use xlink:href="#l"/>
<use x="60.818359" xlink:href="#d"/>
<use x="122.341797" xlink:href="#h"/>
<use x="163.439453" xlink:href="#j"/>
<use x="260.851562" xlink:href="#g"/>
<use x="288.634766" xlink:href="#i"/>
<use x="352.013672" xlink:href="#f"/>
<use x="413.292969" xlink:href="#k"/>
</g>
</g>
<path d="m969.41 514.14v35.285q0 2.4 2.4 2.4h7.7425q2.4 0 2.4-2.4v-35.285q0-2.4-2.4-2.4h-7.7425q-2.4 0-2.4 2.4z" clip-path="url(#a)" fill="#fff" stroke="#fff"/>
<g clip-path="url(#a)">
<g transform="translate(973.47 514.14) rotate(90) scale(.08 -.08)">
<use xlink:href="#l"/>
<use x="60.818359" xlink:href="#d"/>
<use x="122.341797" xlink:href="#h"/>
<use x="163.439453" xlink:href="#j"/>
<use x="260.851562" xlink:href="#g"/>
<use x="288.634766" xlink:href="#i"/>
<use x="352.013672" xlink:href="#f"/>
<use x="413.292969" xlink:href="#k"/>
</g>
</g>
<defs>
<path id="b" d="m0 8.6603c2.2967 0 4.4997-0.9125 6.1237-2.5365 1.624-1.624 2.5365-3.827 2.5365-6.1237s-0.9125-4.4997-2.5365-6.1237c-1.624-1.624-3.827-2.5365-6.1237-2.5365s-4.4997 0.9125-6.1237 2.5365c-1.624 1.624-2.5365 3.827-2.5365 6.1237s0.9125 4.4997 2.5365 6.1237c1.624 1.624 3.827 2.5365 6.1237 2.5365z"/>
</defs>
<g clip-path="url(#a)">
<use x="50.913005" y="559.412719" fill="#ffffff" stroke="#ffffff" xlink:href="#b"/>
</g>
<g clip-path="url(#a)">
<use x="94.949555" y="559.412719" fill="#ffffff" stroke="#ffffff" xlink:href="#b"/>
</g>
<g clip-path="url(#a)">
<use x="138.986105" y="559.412719" fill="#ffffff" stroke="#ffffff" xlink:href="#b"/>
</g>
<g clip-path="url(#a)">
<use x="183.022656" y="559.412719" fill="#ffffff" stroke="#ffffff" xlink:href="#b"/>
</g>
<g clip-path="url(#a)">
<use x="227.059206" y="559.412719" fill="#ffffff" stroke="#ffffff" xlink:href="#b"/>
</g>
<g clip-path="url(#a)">
<use x="271.095756" y="559.412719" fill="#ffffff" stroke="#ffffff" xlink:href="#b"/>
</g>
<g clip-path="url(#a)">
<use x="315.132307" y="559.412719" fill="#ffffff" stroke="#ffffff" xlink:href="#b"/>
</g>
<g clip-path="url(#a)">
<use x="359.168857" y="559.412719" fill="#ffffff" stroke="#ffffff" xlink:href="#b"/>
</g>
<g clip-path="url(#a)">
<use x="403.205407" y="559.412719" fill="#ffffff" stroke="#ffffff" xlink:href="#b"/>
</g>
<g clip-path="url(#a)">
<use x="447.241958" y="559.412719" fill="#ffffff" stroke="#ffffff" xlink:href="#b"/>
</g>
<g clip-path="url(#a)">
<use x="491.278508" y="559.412719" fill="#ffffff" stroke="#ffffff" xlink:href="#b"/>
</g>
<g clip-path="url(#a)">
<use x="535.315058" y="559.412719" fill="#ffffff" stroke="#ffffff" xlink:href="#b"/>
</g>
<g clip-path="url(#a)">
<use x="579.351608" y="559.412719" fill="#ffffff" stroke="#ffffff" xlink:href="#b"/>
</g>
<g clip-path="url(#a)">
<use x="623.388159" y="559.412719" fill="#ffffff" stroke="#ffffff" xlink:href="#b"/>
</g>
<g clip-path="url(#a)">
<use x="667.424709" y="559.412719" fill="#ffffff" stroke="#ffffff" xlink:href="#b"/>
</g>
<g clip-path="url(#a)">
<use x="711.461259" y="559.412719" fill="#ffffff" stroke="#ffffff" xlink:href="#b"/>
</g>
<g clip-path="url(#a)">
<use x="755.49781" y="559.412719" fill="#ffffff" stroke="#ffffff" xlink:href="#b"/>
</g>
<g clip-path="url(#a)">
<use x="799.53436" y="559.412719" fill="#ffffff" stroke="#ffffff" xlink:href="#b"/>
</g>
<g clip-path="url(#a)">
<use x="843.57091" y="559.412719" fill="#ffffff" stroke="#ffffff" xlink:href="#b"/>
</g>
<g clip-path="url(#a)">
<use x="887.607461" y="559.412719" fill="#ffffff" stroke="#ffffff" xlink:href="#b"/>
</g>
<g clip-path="url(#a)">
<use x="931.644011" y="559.412719" fill="#ffffff" stroke="#ffffff" xlink:href="#b"/>
</g>
<g clip-path="url(#a)">
<use x="975.680561" y="559.412719" fill="#ffffff" stroke="#ffffff" xlink:href="#b"/>
</g>
<g clip-path="url(#a)">
<use x="765.602261" y="27.253948" fill="#ffffff" stroke="#ffffff" xlink:href="#b"/>
</g>
<g clip-path="url(#a)">
<use x="765.602261" y="92.578642" fill="#ffffff" stroke="#ffffff" xlink:href="#b"/>
</g>
<g clip-path="url(#a)">
<use x="1063.753662" y="559.412719" fill="#ffffff" stroke="#ffffff" xlink:href="#b"/>
</g>
<g clip-path="url(#a)">
<use x="1019.717112" y="559.412719" fill="#ffffff" stroke="#ffffff" xlink:href="#b"/>
</g>
<g clip-path="url(#a)">
<use x="213.33601" y="155.936008" fill="#ffffff" stroke="#ffffff" xlink:href="#b"/>
</g>
<g clip-path="url(#a)">
<use x="94.949555" y="504.157362" fill="#ffffff" stroke="#ffffff" xlink:href="#b"/>
</g>
<g clip-path="url(#a)">
<use x="568.495376" y="217.480719" fill="#ffffff" stroke="#ffffff" xlink:href="#b"/>
</g>
<g clip-path="url(#a)">
<use x="249.6891" y="277.371278" fill="#ffffff" stroke="#ffffff" xlink:href="#b"/>
</g>
<g clip-path="url(#a)">
<use x="535.315058" y="504.157362" fill="#ffffff" stroke="#ffffff" xlink:href="#b"/>
</g>
<g clip-path="url(#a)">
<use x="667.424709" y="448.902006" fill="#ffffff" stroke="#ffffff" xlink:href="#b"/>
</g>
<g clip-path="url(#a)">
<use x="821.552635" y="392.877986" fill="#ffffff" stroke="#ffffff" xlink:href="#b"/>
</g>
<g clip-path="url(#a)">
<use x="755.49781" y="504.157362" fill="#ffffff" stroke="#ffffff" xlink:href="#b"/>
</g>
<g clip-path="url(#a)">
<use x="799.53436" y="504.157362" fill="#ffffff" stroke="#ffffff" xlink:href="#b"/>
</g>
<g clip-path="url(#a)">
<use x="909.625736" y="448.902006" fill="#ffffff" stroke="#ffffff" xlink:href="#b"/>
</g>
<g clip-path="url(#a)">
<use x="843.57091" y="504.157362" fill="#ffffff" stroke="#ffffff" xlink:href="#b"/>
</g>
<g clip-path="url(#a)">
<use x="887.607461" y="504.157362" fill="#ffffff" stroke="#ffffff" xlink:href="#b"/>
</g>
<g clip-path="url(#a)">
<use x="931.644011" y="504.157362" fill="#ffffff" stroke="#ffffff" xlink:href="#b"/>
</g>
<g clip-path="url(#a)">
<use x="623.388159" y="504.157362" fill="#ffffff" stroke="#ffffff" xlink:href="#b"/>
</g>
<g clip-path="url(#a)">
<use x="711.461259" y="504.157362" fill="#ffffff" stroke="#ffffff" xlink:href="#b"/>
</g>
<g clip-path="url(#a)">
<use x="183.022656" y="504.157362" fill="#ffffff" stroke="#ffffff" xlink:href="#b"/>
</g>
<g clip-path="url(#a)">
<use x="227.059206" y="504.157362" fill="#ffffff" stroke="#ffffff" xlink:href="#b"/>
</g>
<g clip-path="url(#a)">
<use x="338.985438" y="335.775182" fill="#ffffff" stroke="#ffffff" xlink:href="#b"/>
</g>
<g clip-path="url(#a)">
<use x="271.095756" y="504.157362" fill="#ffffff" stroke="#ffffff" xlink:href="#b"/>
</g>
<g clip-path="url(#a)">
<use x="315.132307" y="504.157362" fill="#ffffff" stroke="#ffffff" xlink:href="#b"/>
</g>
<g clip-path="url(#a)">
<use x="359.168857" y="504.157362" fill="#ffffff" stroke="#ffffff" xlink:href="#b"/>
</g>
<g clip-path="url(#a)">
<use x="410.544832" y="392.877986" fill="#ffffff" stroke="#ffffff" xlink:href="#b"/>
</g>
<g clip-path="url(#a)">
<use x="403.205407" y="504.157362" fill="#ffffff" stroke="#ffffff" xlink:href="#b"/>
</g>
<g clip-path="url(#a)">
<use x="469.260233" y="448.902006" fill="#ffffff" stroke="#ffffff" xlink:href="#b"/>
</g>
<g clip-path="url(#a)">
<use x="447.241958" y="504.157362" fill="#ffffff" stroke="#ffffff" xlink:href="#b"/>
</g>
<g clip-path="url(#a)">
<use x="491.278508" y="504.157362" fill="#ffffff" stroke="#ffffff" xlink:href="#b"/>
</g>
<g clip-path="url(#a)">
<use x="331.722465" y="155.936008" fill="#808080" stroke="#808080" xlink:href="#b"/>
</g>
<g clip-path="url(#a)">
<use x="50.913005" y="504.157362" fill="#ffffff" stroke="#ffffff" xlink:href="#b"/>
</g>
<g clip-path="url(#a)">
<use x="138.986105" y="504.157362" fill="#ffffff" stroke="#ffffff" xlink:href="#b"/>
</g>
<g clip-path="url(#a)">
<use x="975.680561" y="504.157362" fill="#ffffff" stroke="#ffffff" xlink:href="#b"/>
</g>
<g clip-path="url(#a)">
<defs>
<path id="ar" d="m17.922 72.906v-27.109h-8.2969v27.109zm18.453 0v-27.109h-8.2969v27.109z"/>
</defs>
<g transform="translate(48.613 562.17) scale(.1 -.1)">
<use xlink:href="#ar"/>
</g>
</g>
<g clip-path="url(#a)">
<defs>
<path id="p" d="m30.609 48.391q-7.2188 0-11.422-5.6406t-4.2031-15.453 4.1719-15.453q4.1875-5.6406 11.453-5.6406 7.1875 0 11.375 5.6562 4.2031 5.6719 4.2031 15.438 0 9.7188-4.2031 15.406-4.1875 5.6875-11.375 5.6875zm0 7.6094q11.719 0 18.406-7.625 6.7031-7.6094 6.7031-21.078 0-13.422-6.7031-21.078-6.6875-7.6406-18.406-7.6406-11.766 0-18.438 7.6406-6.6562 7.6562-6.6562 21.078 0 13.469 6.6562 21.078 6.6719 7.625 18.438 7.625z"/>
<path id="ah" d="m4.2031 54.688h8.9844l11.234-42.672 11.172 42.672h10.594l11.234-42.672 11.188 42.672h8.9844l-14.312-54.688h-10.594l-11.766 44.828-11.812-44.828h-10.609z"/>
<path id="am" d="m2.9844 54.688h9.5156l17.094-45.891 17.094 45.891h9.5156l-20.516-54.688h-12.203z"/>
</defs>
<g transform="translate(72.873 562.17) scale(.1 -.1)">
<use xlink:href="#af"/>
<use x="75.195312" xlink:href="#p"/>
<use x="136.376953" xlink:href="#ah"/>
<use x="218.164062" xlink:href="#d"/>
<use x="279.6875" xlink:href="#am"/>
<use x="338.867188" xlink:href="#d"/>
<use x="400.390625" xlink:href="#h"/>
</g>
</g>
<g clip-path="url(#a)">
<defs>
<path id="aq" d="m11.719 12.406h10.297v-8.4062l-8-15.625h-6.2969l4 15.625z"/>
</defs>
<g transform="translate(137.4 562.17) scale(.1 -.1)">
<use xlink:href="#aq"/>
</g>
</g>
<g clip-path="url(#a)">
<defs>
<path id="n" d="m18.312 70.219v-15.531h18.5v-6.9844h-18.5v-29.688q0-6.6875 1.8281-8.5938t7.4531-1.9062h9.2188v-7.5156h-9.2188q-10.406 0-14.359 3.875-3.9531 3.8906-3.9531 14.141v29.688h-6.5938v6.9844h6.5938v15.531z"/>
<path id="ab" d="m54.891 33.016v-33.016h-8.9844v32.719q0 7.7656-3.0312 11.609-3.0312 3.8594-9.0781 3.8594-7.2812 0-11.484-4.6406-4.2031-4.625-4.2031-12.641v-30.906h-9.0312v75.984h9.0312v-29.797q3.2344 4.9375 7.5938 7.375 4.375 2.4375 10.094 2.4375 9.4219 0 14.25-5.8281 4.8438-5.8281 4.8438-17.156z"/>
</defs>
<g transform="translate(174.82 562.17) scale(.1 -.1)">
<use xlink:href="#n"/>
<use x="39.208984" xlink:href="#ab"/>
<use x="102.587891" xlink:href="#d"/>
</g>
</g>
<g clip-path="url(#a)">
<defs>
<path id="aa" d="m44.281 53.078v-8.5q-3.7969 1.9531-7.9062 2.9219-4.0938 0.98438-8.5 0.98438-6.6875 0-10.031-2.0469t-3.3438-6.1562q0-3.125 2.3906-4.9062t9.625-3.3906l3.0781-0.6875q9.5625-2.0469 13.594-5.7812t4.0312-10.422q0-7.625-6.0312-12.078-6.0312-4.4375-16.578-4.4375-4.3906 0-9.1562 0.85938t-10.031 2.5625v9.2812q4.9844-2.5938 9.8125-3.8906 4.8281-1.2812 9.5781-1.2812 6.3438 0 9.75 2.1719 3.4219 2.1719 3.4219 6.125 0 3.6562-2.4688 5.6094-2.4531 1.9531-10.812 3.7656l-3.125 0.73438q-8.3438 1.75-12.062 5.3906-3.7031 3.6406-3.7031 9.9844 0 7.7188 5.4688 11.906 5.4688 4.2031 15.531 4.2031 4.9688 0 9.3594-0.73438 4.4062-0.71875 8.1094-2.1875z"/>
<path id="an" d="m8.5 21.578v33.109h8.9844v-32.766q0-7.7656 3.0156-11.656 3.0312-3.875 9.0938-3.875 7.2656 0 11.484 4.6406 4.2344 4.6406 4.2344 12.656v31h8.9844v-54.688h-8.9844v8.4062q-3.2656-4.9844-7.5938-7.4062-4.3125-2.4219-10.031-2.4219-9.4219 0-14.312 5.8594-4.875 5.8594-4.875 17.141z"/>
</defs>
<g transform="translate(207.26 562.17) scale(.1 -.1)">
<use xlink:href="#aa"/>
<use x="52.099609" xlink:href="#p"/>
<use x="113.28125" xlink:href="#k"/>
<use x="141.064453" xlink:href="#an"/>
<use x="204.443359" xlink:href="#n"/>
<use x="243.652344" xlink:href="#g"/>
<use x="271.435547" xlink:href="#p"/>
<use x="332.617188" xlink:href="#i"/>
</g>
</g>
<g clip-path="url(#a)">
<g transform="translate(266.08 562.17) scale(.1 -.1)">
<use xlink:href="#n"/>
<use x="39.208984" xlink:href="#p"/>
</g>
</g>
<g clip-path="url(#a)">
<g transform="translate(306.01 562.17) scale(.1 -.1)">
<use xlink:href="#n"/>
<use x="39.208984" xlink:href="#ab"/>
<use x="102.587891" xlink:href="#g"/>
<use x="130.371094" xlink:href="#aa"/>
</g>
</g>
<g clip-path="url(#a)">
<defs>
<path id="as" d="m18.109 8.2031v-29h-9.0312v75.484h9.0312v-8.2969q2.8438 4.875 7.1562 7.2344 4.3281 2.375 10.328 2.375 9.9688 0 16.188-7.9062 6.2344-7.9062 6.2344-20.797t-6.2344-20.812q-6.2188-7.9062-16.188-7.9062-6 0-10.328 2.375-4.3125 2.375-7.1562 7.25zm30.578 19.094q0 9.9062-4.0781 15.547t-11.203 5.6406q-7.1406 0-11.219-5.6406t-4.0781-15.547 4.0781-15.547 11.219-5.6406q7.125 0 11.203 5.6406t4.0781 15.547z"/>
<path id="ad" d="m48.688 27.297q0 9.9062-4.0781 15.547t-11.203 5.6406q-7.1406 0-11.219-5.6406t-4.0781-15.547 4.0781-15.547 11.219-5.6406q7.125 0 11.203 5.6406t4.0781 15.547zm-30.578 19.094q2.8438 4.875 7.1562 7.2344 4.3281 2.375 10.328 2.375 9.9688 0 16.188-7.9062 6.2344-7.9062 6.2344-20.797t-6.2344-20.812q-6.2188-7.9062-16.188-7.9062-6 0-10.328 2.375-4.3125 2.375-7.1562 7.25v-8.2031h-9.0312v75.984h9.0312z"/>
</defs>
<g transform="translate(338.37 562.17) scale(.1 -.1)">
<use xlink:href="#as"/>
<use x="63.476562" xlink:href="#h"/>
<use x="104.558594" xlink:href="#p"/>
<use x="165.740234" xlink:href="#ad"/>
<use x="229.216797" xlink:href="#k"/>
<use x="257" xlink:href="#d"/>
<use x="318.523438" xlink:href="#j"/>
</g>
</g>
<g clip-path="url(#a)">
<defs>
<path id="au" d="m45.406 46.391v29.594h8.9844v-75.984h-8.9844v8.2031q-2.8281-4.875-7.1562-7.25-4.3125-2.375-10.375-2.375-9.9062 0-16.141 7.9062-6.2188 7.9219-6.2188 20.812t6.2188 20.797q6.2344 7.9062 16.141 7.9062 6.0625 0 10.375-2.375 4.3281-2.3594 7.1562-7.2344zm-30.609-19.094q0-9.9062 4.0781-15.547t11.203-5.6406 11.219 5.6406q4.1094 5.6406 4.1094 15.547t-4.1094 15.547q-4.0938 5.6406-11.219 5.6406t-11.203-5.6406-4.0781-15.547z"/>
</defs>
<g transform="translate(377.83 562.17) scale(.1 -.1)">
<use xlink:href="#aa"/>
<use x="52.099609" xlink:href="#an"/>
<use x="115.478516" xlink:href="#ad"/>
<use x="178.955078" xlink:href="#j"/>
<use x="276.367188" xlink:href="#g"/>
<use x="304.150391" xlink:href="#n"/>
<use x="343.359375" xlink:href="#n"/>
<use x="382.568359" xlink:href="#d"/>
<use x="444.091797" xlink:href="#au"/>
</g>
</g>
<g clip-path="url(#a)">
<g transform="translate(442.22 562.17) scale(.1 -.1)">
<use xlink:href="#n"/>
<use x="39.208984" xlink:href="#p"/>
</g>
</g>
<g clip-path="url(#a)">
<g transform="translate(483.33 562.17) scale(.1 -.1)">
<use xlink:href="#j"/>
<use x="97.412109" xlink:href="#d"/>
</g>
</g>
<g clip-path="url(#a)">
<defs>
<path id="ac" d="m48.781 52.594v-8.4062q-3.8125 2.1094-7.6406 3.1562t-7.7344 1.0469q-8.75 0-13.594-5.5469-4.8281-5.5312-4.8281-15.547t4.8281-15.562q4.8438-5.5312 13.594-5.5312 3.9062 0 7.7344 1.0469t7.6406 3.1562v-8.3125q-3.7656-1.75-7.7969-2.625-4.0156-0.89062-8.5625-0.89062-12.359 0-19.641 7.7656-7.2656 7.7656-7.2656 20.953 0 13.375 7.3438 21.031 7.3594 7.6719 20.156 7.6719 4.1406 0 8.0938-0.85938 3.9531-0.84375 7.6719-2.5469z"/>
</defs>
<g transform="translate(526.33 562.17) scale(.1 -.1)">
<use xlink:href="#ac"/>
<use x="54.980469" xlink:href="#f"/>
<use x="116.259766" xlink:href="#i"/>
</g>
</g>
<g clip-path="url(#a)">
<defs>
<path id="at" d="m9.0781 75.984h9.0312v-44.875l26.812 23.578h11.469l-29-25.578 30.234-29.109h-11.719l-27.797 26.703v-26.703h-9.0312z"/>
</defs>
<g transform="translate(568.36 562.17) scale(.1 -.1)">
<use xlink:href="#n"/>
<use x="39.208984" xlink:href="#f"/>
<use x="100.488281" xlink:href="#at"/>
<use x="158.351562" xlink:href="#d"/>
</g>
</g>
<g clip-path="url(#a)">
<g transform="translate(615.18 562.17) scale(.1 -.1)">
<use xlink:href="#n"/>
<use x="39.208984" xlink:href="#ab"/>
<use x="102.587891" xlink:href="#d"/>
</g>
</g>
<g clip-path="url(#a)">
<defs>
<path id="ao" d="m37.109 75.984v-7.4844h-8.5938q-4.8281 0-6.7188-1.9531-1.875-1.9531-1.875-7.0312v-4.8281h14.797v-6.9844h-14.797v-47.703h-9.0312v47.703h-8.5938v6.9844h8.5938v3.8125q0 9.125 4.25 13.297 4.25 4.1875 13.469 4.1875z"/>
</defs>
<g transform="translate(655.68 562.17) scale(.1 -.1)">
<use xlink:href="#ao"/>
<use x="35.205078" xlink:href="#p"/>
<use x="96.386719" xlink:href="#h"/>
<use x="137.484375" xlink:href="#j"/>
</g>
</g>
<g clip-path="url(#a)">
<g transform="translate(706.64 562.17) scale(.1 -.1)">
<use xlink:href="#p"/>
<use x="61.181641" xlink:href="#ao"/>
</g>
</g>
<g clip-path="url(#a)">
<g transform="translate(752.43 562.17) scale(.1 -.1)">
<use xlink:href="#f"/>
</g>
</g>
<g clip-path="url(#a)">
<g transform="translate(783.34 562.17) scale(.1 -.1)">
<use xlink:href="#ac"/>
<use x="54.980469" xlink:href="#ab"/>
<use x="118.359375" xlink:href="#p"/>
<use x="179.541016" xlink:href="#g"/>
<use x="207.324219" xlink:href="#ac"/>
<use x="262.304688" xlink:href="#d"/>
</g>
</g>
<g clip-path="url(#a)">
<g transform="translate(821.95 562.17) scale(.1 -.1)">
<use xlink:href="#ad"/>
<use x="63.476562" xlink:href="#d"/>
<use x="125" xlink:href="#n"/>
<use x="164.208984" xlink:href="#ah"/>
<use x="245.996094" xlink:href="#d"/>
<use x="307.519531" xlink:href="#d"/>
<use x="369.042969" xlink:href="#i"/>
</g>
</g>
<g clip-path="url(#a)">
<g transform="translate(878.5 562.17) scale(.1 -.1)">
<use xlink:href="#n"/>
<use x="39.208984" xlink:href="#ah"/>
<use x="120.996094" xlink:href="#p"/>
</g>
</g>
<g clip-path="url(#a)">
<g transform="translate(901.88 562.17) scale(.1 -.1)">
<use xlink:href="#f"/>
<use x="61.279297" xlink:href="#k"/>
<use x="89.0625" xlink:href="#n"/>
<use x="128.271484" xlink:href="#d"/>
<use x="189.794922" xlink:href="#h"/>
<use x="230.892578" xlink:href="#i"/>
<use x="294.271484" xlink:href="#f"/>
<use x="355.550781" xlink:href="#n"/>
<use x="394.759766" xlink:href="#g"/>
<use x="422.542969" xlink:href="#am"/>
<use x="481.722656" xlink:href="#d"/>
<use x="543.246094" xlink:href="#aa"/>
</g>
</g>
<g clip-path="url(#a)">
<defs>
<path id="e" d="m10.688 12.406h10.312v-12.406h-10.312z"/>
</defs>
<g transform="translate(974.09 562.17) scale(.1 -.1)">
<use xlink:href="#e"/>
</g>
</g>
<g clip-path="url(#a)">
<defs>
<path id="c" d="m12.406 8.2969h16.109v55.625l-17.531-3.5156v8.9844l17.438 3.5156h9.8594v-64.609h16.109v-8.2969h-41.984z"/>
</defs>
<g transform="translate(757.65 30.013) scale(.1 -.1)">
<use xlink:href="#c"/>
<use x="63.623047" xlink:href="#e"/>
<use x="95.410156" xlink:href="#c"/>
</g>
</g>
<g clip-path="url(#a)">
<defs>
<path id="m" d="m19.188 8.2969h34.422v-8.2969h-46.281v8.2969q5.6094 5.8125 15.297 15.594 9.7031 9.7969 12.188 12.641 4.7344 5.3125 6.6094 9 1.8906 3.6875 1.8906 7.25 0 5.8125-4.0781 9.4688-4.0781 3.6719-10.625 3.6719-4.6406 0-9.7969-1.6094-5.1406-1.6094-11-4.8906v9.9688q5.9531 2.3906 11.125 3.6094 5.1875 1.2188 9.4844 1.2188 11.328 0 18.062-5.6719 6.7344-5.6562 6.7344-15.125 0-4.5-1.6875-8.5312-1.6719-4.0156-6.125-9.4844-1.2188-1.4219-7.7656-8.1875-6.5312-6.7656-18.453-18.922z"/>
</defs>
<g transform="translate(757.65 95.338) scale(.1 -.1)">
<use xlink:href="#c"/>
<use x="63.623047" xlink:href="#e"/>
<use x="95.410156" xlink:href="#m"/>
</g>
</g>
<g clip-path="url(#a)">
<defs>
<path id="t" d="m9.8125 72.906h9.8594v-72.906h-9.8594z"/>
<path id="ai" d="m9.8125 72.906h14.703l18.594-49.609 18.703 49.609h14.703v-72.906h-9.625v64.016l-18.797-50h-9.9062l-18.797 50v-64.016h-9.5781z"/>
</defs>
<g transform="translate(1042.7 562.17) scale(.1 -.1)">
<use xlink:href="#t"/>
<use x="29.492188" xlink:href="#ai"/>
<use x="115.771484" xlink:href="#v"/>
<use x="176.074219" xlink:href="#w"/>
<use x="231.787109" xlink:href="#t"/>
<use x="261.279297" xlink:href="#q"/>
<use x="331.103516" xlink:href="#t"/>
<use x="360.595703" xlink:href="#l"/>
</g>
</g>
<g clip-path="url(#a)">
<g transform="translate(998.63 562.17) scale(.1 -.1)">
<use xlink:href="#t"/>
<use x="29.492188" xlink:href="#ai"/>
<use x="115.771484" xlink:href="#v"/>
<use x="176.074219" xlink:href="#w"/>
<use x="231.787109" xlink:href="#t"/>
<use x="261.279297" xlink:href="#q"/>
<use x="331.103516" xlink:href="#t"/>
<use x="360.595703" xlink:href="#l"/>
</g>
</g>
<g clip-path="url(#a)">
<defs>
<path id="z" d="m10.797 72.906h38.719v-8.3125h-29.688v-17.859q2.1406 0.73438 4.2812 1.0938 2.1562 0.35938 4.3125 0.35938 12.203 0 19.328-6.6875 7.1406-6.6875 7.1406-18.109 0-11.766-7.3281-18.297-7.3281-6.5156-20.656-6.5156-4.5938 0-9.3594 0.78125-4.75 0.78125-9.8281 2.3438v9.9219q4.3906-2.3906 9.0781-3.5625t9.9062-1.1719q8.4531 0 13.375 4.4375 4.9375 4.4375 4.9375 12.062 0 7.6094-4.9375 12.047-4.9219 4.4531-13.375 4.4531-3.9531 0-7.8906-0.875-3.9219-0.875-8.0156-2.7344z"/>
</defs>
<g transform="translate(205.38 158.7) scale(.1 -.1)">
<use xlink:href="#c"/>
<use x="63.623047" xlink:href="#e"/>
<use x="95.410156" xlink:href="#z"/>
</g>
</g>
<g clip-path="url(#a)">
<defs>
<path id="y" d="m33.016 40.375q-6.6406 0-10.531-4.5469-3.875-4.5312-3.875-12.438 0-7.8594 3.875-12.438 3.8906-4.5625 10.531-4.5625t10.516 4.5625q3.875 4.5781 3.875 12.438 0 7.9062-3.875 12.438-3.875 4.5469-10.516 4.5469zm19.578 30.922v-8.9844q-3.7188 1.75-7.5 2.6719-3.7812 0.9375-7.5 0.9375-9.7656 0-14.922-6.5938-5.1406-6.5938-5.875-19.922 2.875 4.25 7.2188 6.5156 4.3594 2.2656 9.5781 2.2656 10.984 0 17.359-6.6719 6.375-6.6562 6.375-18.125 0-11.234-6.6406-18.031-6.6406-6.7812-17.672-6.7812-12.656 0-19.344 9.6875-6.6875 9.7031-6.6875 28.109 0 17.281 8.2031 27.562t22.016 10.281q3.7188 0 7.5-0.73438t7.8906-2.1875z"/>
</defs>
<g transform="translate(86.998 506.92) scale(.1 -.1)">
<use xlink:href="#c"/>
<use x="63.623047" xlink:href="#e"/>
<use x="95.410156" xlink:href="#y"/>
</g>
</g>
<g clip-path="url(#a)">
<defs>
<path id="x" d="m8.2031 72.906h46.875v-4.2031l-26.469-68.703h-10.297l24.906 64.594h-35.016z"/>
</defs>
<g transform="translate(560.54 220.24) scale(.1 -.1)">
<use xlink:href="#c"/>
<use x="63.623047" xlink:href="#e"/>
<use x="95.410156" xlink:href="#x"/>
</g>
</g>
<g clip-path="url(#a)">
<defs>
<path id="al" d="m31.781 66.406q-7.6094 0-11.453-7.5-3.8281-7.4844-3.8281-22.531 0-14.984 3.8281-22.484 3.8438-7.5 11.453-7.5 7.6719 0 11.5 7.5 3.8438 7.5 3.8438 22.484 0 15.047-3.8438 22.531-3.8281 7.5-11.5 7.5zm0 7.8125q12.266 0 18.734-9.7031 6.4688-9.6875 6.4688-28.141 0-18.406-6.4688-28.109-6.4688-9.6875-18.734-9.6875-12.25 0-18.719 9.6875-6.4688 9.7031-6.4688 28.109 0 18.453 6.4688 28.141 6.4688 9.7031 18.719 9.7031z"/>
</defs>
<g transform="translate(238.56 280.13) scale(.1 -.1)">
<use xlink:href="#c"/>
<use x="63.623047" xlink:href="#e"/>
<use x="95.410156" xlink:href="#c"/>
<use x="159.033203" xlink:href="#al"/>
</g>
</g>
<g clip-path="url(#a)">
<g transform="translate(524.18 506.92) scale(.1 -.1)">
<use xlink:href="#c"/>
<use x="63.623047" xlink:href="#e"/>
<use x="95.410156" xlink:href="#c"/>
<use x="159.033203" xlink:href="#c"/>
</g>
</g>
<g clip-path="url(#a)">
<g transform="translate(656.29 451.66) scale(.1 -.1)">
<use xlink:href="#c"/>
<use x="63.623047" xlink:href="#e"/>
<use x="95.410156" xlink:href="#c"/>
<use x="159.033203" xlink:href="#m"/>
</g>
</g>
<g clip-path="url(#a)">
<defs>
<path id="o" d="m40.578 39.312q7.0781-1.5156 11.047-6.3125 3.9844-4.7812 3.9844-11.812 0-10.781-7.4219-16.703-7.4219-5.9062-21.094-5.9062-4.5781 0-9.4375 0.90625t-10.031 2.7188v9.5156q4.0938-2.3906 8.9688-3.6094 4.8906-1.2188 10.219-1.2188 9.2656 0 14.125 3.6562t4.8594 10.641q0 6.4531-4.5156 10.078-4.5156 3.6406-12.562 3.6406h-8.5v8.1094h8.8906q7.2656 0 11.125 2.9062t3.8594 8.375q0 5.6094-3.9844 8.6094-3.9688 3.0156-11.391 3.0156-4.0625 0-8.7031-0.89062-4.6406-0.875-10.203-2.7188v8.7812q5.625 1.5625 10.531 2.3438t9.25 0.78125q11.234 0 17.766-5.1094 6.5469-5.0938 6.5469-13.781 0-6.0625-3.4688-10.234t-9.8594-5.7812z"/>
</defs>
<g transform="translate(810.42 395.64) scale(.1 -.1)">
<use xlink:href="#c"/>
<use x="63.623047" xlink:href="#e"/>
<use x="95.410156" xlink:href="#c"/>
<use x="159.033203" xlink:href="#o"/>
</g>
</g>
<g clip-path="url(#a)">
<defs>
<path id="ag" d="m37.797 64.312-24.906-38.922h24.906zm-2.5938 8.5938h12.406v-47.516h10.406v-8.2031h-10.406v-17.188h-9.8125v17.188h-32.906v9.5156z"/>
</defs>
<g transform="translate(744.36 506.92) scale(.1 -.1)">
<use xlink:href="#c"/>
<use x="63.623047" xlink:href="#e"/>
<use x="95.410156" xlink:href="#c"/>
<use x="159.033203" xlink:href="#ag"/>
</g>
</g>
<g clip-path="url(#a)">
<g transform="translate(788.4 506.92) scale(.1 -.1)">
<use xlink:href="#c"/>
<use x="63.623047" xlink:href="#e"/>
<use x="95.410156" xlink:href="#c"/>
<use x="159.033203" xlink:href="#z"/>
</g>
</g>
<g clip-path="url(#a)">
<g transform="translate(898.49 451.66) scale(.1 -.1)">
<use xlink:href="#c"/>
<use x="63.623047" xlink:href="#e"/>
<use x="95.410156" xlink:href="#c"/>
<use x="159.033203" xlink:href="#y"/>
</g>
</g>
<g clip-path="url(#a)">
<g transform="translate(832.44 506.92) scale(.1 -.1)">
<use xlink:href="#c"/>
<use x="63.623047" xlink:href="#e"/>
<use x="95.410156" xlink:href="#c"/>
<use x="159.033203" xlink:href="#x"/>
</g>
</g>
<g clip-path="url(#a)">
<defs>
<path id="ak" d="m31.781 34.625q-7.0312 0-11.062-3.7656-4.0156-3.7656-4.0156-10.344 0-6.5938 4.0156-10.359 4.0312-3.7656 11.062-3.7656t11.078 3.7812q4.0625 3.7969 4.0625 10.344 0 6.5781-4.0312 10.344-4.0156 3.7656-11.109 3.7656zm-9.8594 4.1875q-6.3438 1.5625-9.8906 5.9062-3.5312 4.3594-3.5312 10.609 0 8.7344 6.2188 13.812 6.2344 5.0781 17.062 5.0781 10.891 0 17.094-5.0781t6.2031-13.812q0-6.25-3.5469-10.609-3.5312-4.3438-9.8281-5.9062 7.125-1.6562 11.094-6.5 3.9844-4.8281 3.9844-11.797 0-10.609-6.4688-16.281-6.4688-5.6562-18.531-5.6562-12.047 0-18.531 5.6562-6.4688 5.6719-6.4688 16.281 0 6.9688 4 11.797 4.0156 4.8438 11.141 6.5zm-3.6094 15.578q0-5.6562 3.5312-8.8281 3.5469-3.1719 9.9375-3.1719 6.3594 0 9.9375 3.1719 3.5938 3.1719 3.5938 8.8281 0 5.6719-3.5938 8.8438-3.5781 3.1719-9.9375 3.1719-6.3906 0-9.9375-3.1719-3.5312-3.1719-3.5312-8.8438z"/>
</defs>
<g transform="translate(876.47 506.92) scale(.1 -.1)">
<use xlink:href="#c"/>
<use x="63.623047" xlink:href="#e"/>
<use x="95.410156" xlink:href="#c"/>
<use x="159.033203" xlink:href="#ak"/>
</g>
</g>
<g clip-path="url(#a)">
<defs>
<path id="aj" d="m10.984 1.5156v8.9844q3.7188-1.7656 7.5156-2.6875 3.8125-0.92188 7.4844-0.92188 9.7656 0 14.906 6.5625 5.1562 6.5625 5.8906 19.953-2.8281-4.2031-7.1875-6.4531-4.3438-2.25-9.6094-2.25-10.938 0-17.312 6.6094-6.375 6.625-6.375 18.109 0 11.219 6.6406 18 6.6406 6.7969 17.672 6.7969 12.656 0 19.312-9.7031 6.6719-9.6875 6.6719-28.141 0-17.234-8.1875-27.516-8.1719-10.281-21.984-10.281-3.7188 0-7.5312 0.73438-3.7969 0.73438-7.9062 2.2031zm19.625 30.906q6.6406 0 10.516 4.5312 3.8906 4.5469 3.8906 12.469 0 7.8594-3.8906 12.422-3.875 4.5625-10.516 4.5625t-10.516-4.5625-3.875-12.422q0-7.9219 3.875-12.469 3.875-4.5312 10.516-4.5312z"/>
</defs>
<g transform="translate(920.51 506.92) scale(.1 -.1)">
<use xlink:href="#c"/>
<use x="63.623047" xlink:href="#e"/>
<use x="95.410156" xlink:href="#c"/>
<use x="159.033203" xlink:href="#aj"/>
</g>
</g>
<g clip-path="url(#a)">
<g transform="translate(612.26 506.92) scale(.1 -.1)">
<use xlink:href="#c"/>
<use x="63.623047" xlink:href="#e"/>
<use x="95.410156" xlink:href="#m"/>
<use x="159.033203" xlink:href="#c"/>
</g>
</g>
<g clip-path="url(#a)">
<g transform="translate(700.33 506.92) scale(.1 -.1)">
<use xlink:href="#c"/>
<use x="63.623047" xlink:href="#e"/>
<use x="95.410156" xlink:href="#m"/>
<use x="159.033203" xlink:href="#m"/>
</g>
</g>
<g clip-path="url(#a)">
<g transform="translate(171.89 506.92) scale(.1 -.1)">
<use xlink:href="#c"/>
<use x="63.623047" xlink:href="#e"/>
<use x="95.410156" xlink:href="#m"/>
<use x="159.033203" xlink:href="#o"/>
</g>
</g>
<g clip-path="url(#a)">
<g transform="translate(215.93 506.92) scale(.1 -.1)">
<use xlink:href="#c"/>
<use x="63.623047" xlink:href="#e"/>
<use x="95.410156" xlink:href="#m"/>
<use x="159.033203" xlink:href="#ag"/>
</g>
</g>
<g clip-path="url(#a)">
<g transform="translate(327.85 338.53) scale(.1 -.1)">
<use xlink:href="#c"/>
<use x="63.623047" xlink:href="#e"/>
<use x="95.410156" xlink:href="#m"/>
<use x="159.033203" xlink:href="#z"/>
</g>
</g>
<g clip-path="url(#a)">
<g transform="translate(259.96 506.92) scale(.1 -.1)">
<use xlink:href="#c"/>
<use x="63.623047" xlink:href="#e"/>
<use x="95.410156" xlink:href="#m"/>
<use x="159.033203" xlink:href="#y"/>
</g>
</g>
<g clip-path="url(#a)">
<g transform="translate(304 506.92) scale(.1 -.1)">
<use xlink:href="#c"/>
<use x="63.623047" xlink:href="#e"/>
<use x="95.410156" xlink:href="#m"/>
<use x="159.033203" xlink:href="#x"/>
</g>
</g>
<g clip-path="url(#a)">
<g transform="translate(348.04 506.92) scale(.1 -.1)">
<use xlink:href="#c"/>
<use x="63.623047" xlink:href="#e"/>
<use x="95.410156" xlink:href="#m"/>
<use x="159.033203" xlink:href="#ak"/>
</g>
</g>
<g clip-path="url(#a)">
<g transform="translate(399.41 395.64) scale(.1 -.1)">
<use xlink:href="#c"/>
<use x="63.623047" xlink:href="#e"/>
<use x="95.410156" xlink:href="#m"/>
<use x="159.033203" xlink:href="#aj"/>
</g>
</g>
<g clip-path="url(#a)">
<g transform="translate(392.07 506.92) scale(.1 -.1)">
<use xlink:href="#c"/>
<use x="63.623047" xlink:href="#e"/>
<use x="95.410156" xlink:href="#o"/>
<use x="159.033203" xlink:href="#al"/>
</g>
</g>
<g clip-path="url(#a)">
<g transform="translate(458.13 451.66) scale(.1 -.1)">
<use xlink:href="#c"/>
<use x="63.623047" xlink:href="#e"/>
<use x="95.410156" xlink:href="#o"/>
<use x="159.033203" xlink:href="#c"/>
</g>
</g>
<g clip-path="url(#a)">
<g transform="translate(436.11 506.92) scale(.1 -.1)">
<use xlink:href="#c"/>
<use x="63.623047" xlink:href="#e"/>
<use x="95.410156" xlink:href="#o"/>
<use x="159.033203" xlink:href="#m"/>
</g>
</g>
<g clip-path="url(#a)">
<g transform="translate(480.15 506.92) scale(.1 -.1)">
<use xlink:href="#c"/>
<use x="63.623047" xlink:href="#e"/>
<use x="95.410156" xlink:href="#o"/>
<use x="159.033203" xlink:href="#o"/>
</g>
</g>
<g clip-path="url(#a)">
<g transform="translate(320.59 158.7) scale(.1 -.1)">
<use xlink:href="#c"/>
<use x="63.623047" xlink:href="#e"/>
<use x="95.410156" xlink:href="#o"/>
<use x="159.033203" xlink:href="#ag"/>
</g>
</g>
<g clip-path="url(#a)">
<g transform="translate(39.78 506.92) scale(.1 -.1)">
<use xlink:href="#c"/>
<use x="63.623047" xlink:href="#e"/>
<use x="95.410156" xlink:href="#o"/>
<use x="159.033203" xlink:href="#z"/>
</g>
</g>
<g clip-path="url(#a)">
<g transform="translate(127.85 506.92) scale(.1 -.1)">
<use xlink:href="#c"/>
<use x="63.623047" xlink:href="#e"/>
<use x="95.410156" xlink:href="#o"/>
<use x="159.033203" xlink:href="#y"/>
</g>
</g>
<g clip-path="url(#a)">
<g transform="translate(964.55 506.92) scale(.1 -.1)">
<use xlink:href="#c"/>
<use x="63.623047" xlink:href="#e"/>
<use x="95.410156" xlink:href="#o"/>
<use x="159.033203" xlink:href="#x"/>
</g>
</g>
<defs>
<clipPath id="a">
<rect width="1114.7" height="586.67"/>
</clipPath>
</defs>
</svg>
