<?xml version="1.0" encoding="UTF-8"?>
<!DOCTYPE svg  PUBLIC '-//W3C//DTD SVG 1.1//EN'  'http://www.w3.org/Graphics/SVG/1.1/DTD/svg11.dtd'>
<svg width="1773.3pt" height="933.33pt" version="1.1" viewBox="0 0 1773.3 933.33" xmlns="http://www.w3.org/2000/svg" xmlns:xlink="http://www.w3.org/1999/xlink">
<defs>
<style type="text/css">*{stroke-linecap:butt;stroke-linejoin:round;}</style>
</defs>
<path d="m0 933.33h1773.3v-933.33h-1773.3z" fill="#fff"/>
<g fill="none" stroke="#000">
<path d="m875.31 43.338-329.88 292.91" clip-path="url(#a)"/>
<path d="m875.31 43.338-446.05 709.84" clip-path="url(#a)"/>
<path d="m875.31 43.338-49.747 148.29" clip-path="url(#a)"/>
<path d="m875.31 43.338 33.143 709.84" clip-path="url(#a)"/>
<path d="m875.31 43.338 338.08 434.3" clip-path="url(#a)"/>
<path d="m875.31 43.338 294.52 709.84" clip-path="url(#a)"/>
<path d="m875.31 43.338 398.58 148.29" clip-path="url(#a)"/>
<path d="m875.31 43.338-489.61 709.84" clip-path="url(#a)"/>
<path d="m875.31 43.338 250.96 709.84" clip-path="url(#a)"/>
<path d="m545.43 336.25 1147.1 553.75" clip-path="url(#a)"/>
<path d="m545.43 336.25-464.67 416.93" clip-path="url(#a)"/>
<path d="m545.43 336.25-399.32 280.11" clip-path="url(#a)"/>
<path d="m545.43 336.25-283.16 141.39" clip-path="url(#a)"/>
<path d="m429.26 753.18v136.82" clip-path="url(#a)"/>
<path d="m825.56 191.63 779.89 698.36" clip-path="url(#a)"/>
<path d="m825.56 191.63-352.74 561.54" clip-path="url(#a)"/>
<path d="m825.56 191.63-287.39 424.73" clip-path="url(#a)"/>
<path d="m825.56 191.63-139.76 144.61" clip-path="url(#a)"/>
<path d="m908.45 753.18v136.82" clip-path="url(#a)"/>
<path d="m1213.4 477.64 435.63 412.36" clip-path="url(#a)"/>
<path d="m1213.4 477.64-261.38 275.54" clip-path="url(#a)"/>
<path d="m1213.4 477.64-174.25 138.72" clip-path="url(#a)"/>
<path d="m1169.8 753.18v136.82" clip-path="url(#a)"/>
<path d="m1273.9 191.63-60.504 561.54" clip-path="url(#a)"/>
<path d="m1273.9 191.63-16.941 561.54" clip-path="url(#a)"/>
<path d="m1273.9 191.63 77.445 144.61" clip-path="url(#a)"/>
<path d="m1213.4 753.18v136.82" clip-path="url(#a)"/>
<path d="m1256.9 753.18v136.82" clip-path="url(#a)"/>
<path d="m1351.3 336.25-50.823 416.93" clip-path="url(#a)"/>
<path d="m1351.3 336.25-7.2604 416.93" clip-path="url(#a)"/>
<path d="m1351.3 336.25 58.083 141.39" clip-path="url(#a)"/>
<path d="m1300.5 753.18v136.82" clip-path="url(#a)"/>
<path d="m1344.1 753.18v136.82" clip-path="url(#a)"/>
<path d="m1409.4 477.64-65.344 275.54" clip-path="url(#a)" stroke-dasharray="3.7,1.6"/>
<path d="m1409.4 477.64-21.781 275.54" clip-path="url(#a)"/>
<path d="m1409.4 477.64 87.125 138.72" clip-path="url(#a)"/>
<path d="m1387.6 753.18v136.82" clip-path="url(#a)"/>
<path d="m1496.5 616.36-65.344 136.82" clip-path="url(#a)"/>
<path d="m1496.5 616.36v136.82" clip-path="url(#a)"/>
<path d="m1496.5 616.36 65.344 136.82" clip-path="url(#a)"/>
<path d="m1431.2 753.18v136.82" clip-path="url(#a)"/>
<path d="m1496.5 753.18-21.781 136.82" clip-path="url(#a)"/>
<path d="m1496.5 753.18 21.781 136.82" clip-path="url(#a)"/>
<path d="m952.01 753.18v136.82" clip-path="url(#a)"/>
<path d="m1039.1 616.36-43.563 136.82" clip-path="url(#a)"/>
<path d="m1039.1 616.36v136.82" clip-path="url(#a)"/>
<path d="m1039.1 616.36 43.563 136.82" clip-path="url(#a)"/>
<path d="m995.57 753.18v136.82" clip-path="url(#a)"/>
<path d="m1039.1 753.18v136.82" clip-path="url(#a)"/>
<path d="m1082.7 753.18v136.82" clip-path="url(#a)"/>
<path d="m472.82 753.18v136.82" clip-path="url(#a)"/>
<path d="m538.17 616.36-21.781 136.82" clip-path="url(#a)"/>
<path d="m538.17 616.36 21.781 136.82" clip-path="url(#a)"/>
<path d="m685.79 336.25-82.285 416.93" clip-path="url(#a)"/>
<path d="m685.79 336.25-38.722 416.93" clip-path="url(#a)"/>
<path d="m685.79 336.25 121.01 141.39" clip-path="url(#a)"/>
<path d="m603.51 753.18v136.82" clip-path="url(#a)"/>
<path d="m647.07 753.18v136.82" clip-path="url(#a)"/>
<path d="m806.8 477.64-72.604 138.72" clip-path="url(#a)"/>
<path d="m806.8 477.64 14.521 275.54" clip-path="url(#a)"/>
<path d="m806.8 477.64 58.083 275.54" clip-path="url(#a)"/>
<path d="m734.2 616.36-43.563 136.82" clip-path="url(#a)"/>
<path d="m734.2 616.36v136.82" clip-path="url(#a)"/>
<path d="m734.2 616.36 43.563 136.82" clip-path="url(#a)"/>
<path d="m821.32 753.18v136.82" clip-path="url(#a)"/>
<path d="m864.89 753.18v136.82" clip-path="url(#a)"/>
<path d="m690.64 753.18v136.82" clip-path="url(#a)"/>
<path d="m734.2 753.18v136.82" clip-path="url(#a)"/>
<path d="m777.76 753.18v136.82" clip-path="url(#a)"/>
<path d="m516.38 753.18v136.82" clip-path="url(#a)"/>
<path d="m559.95 753.18v136.82" clip-path="url(#a)"/>
<path d="m80.759 753.18v136.82" clip-path="url(#a)"/>
<path d="m146.1 616.36-21.781 136.82" clip-path="url(#a)"/>
<path d="m146.1 616.36 21.781 136.82" clip-path="url(#a)"/>
<path d="m262.27 477.64-50.823 275.54" clip-path="url(#a)"/>
<path d="m262.27 477.64-7.2604 275.54" clip-path="url(#a)"/>
<path d="m262.27 477.64 58.083 138.72" clip-path="url(#a)"/>
<path d="m211.45 753.18v136.82" clip-path="url(#a)"/>
<path d="m255.01 753.18v136.82" clip-path="url(#a)"/>
<path d="m320.35 616.36-21.781 136.82" clip-path="url(#a)"/>
<path d="m320.35 616.36 21.781 136.82" clip-path="url(#a)"/>
<path d="m298.57 753.18v136.82" clip-path="url(#a)"/>
<path d="m342.13 753.18v136.82" clip-path="url(#a)"/>
<path d="m124.32 753.18v136.82" clip-path="url(#a)"/>
<path d="m167.88 753.18v136.82" clip-path="url(#a)"/>
<path d="m1089.8 43.338-264.2 148.29" clip-path="url(#a)"/>
<path d="m1089.8 43.338 80.066 709.84" clip-path="url(#a)"/>
<path d="m1089.8 43.338 184.13 148.29" clip-path="url(#a)"/>
<path d="m1060.9 336.25-152.47 416.93" clip-path="url(#a)"/>
<path d="m1060.9 336.25 152.47 141.39" clip-path="url(#a)"/>
<path d="m627.41 43.338-198.15 709.84" clip-path="url(#a)"/>
<path d="m627.41 43.338 198.15 148.29" clip-path="url(#a)"/>
<path d="m385.7 753.18v136.82" clip-path="url(#a)"/>
<path d="m1126.3 753.18v136.82" clip-path="url(#a)"/>
<path d="m1561.9 753.18v136.82" clip-path="url(#a)"/>
</g>
<path d="m712.28 196.48 4.4987-3.9946q1.7946-1.5935 0.20113-3.3881l-5.1407-5.7896q-1.5935-1.7946-3.3881-0.20113l-4.4987 3.9946q-1.7946 1.5935-0.20113 3.3881l5.1407 5.7896q1.5935 1.7946 3.3881 0.20113z" clip-path="url(#a)" fill="#fff" stroke="#fff"/>
<g clip-path="url(#a)">
<defs>
<path id="ai" d="m9.8125 72.906h9.8594v-29.891h35.844v29.891h9.8594v-72.906h-9.8594v34.719h-35.844v-34.719h-9.8594z"/>
</defs>
<g transform="translate(709.58 193.44) rotate(-41.603) scale(.08 -.08)">
<use xlink:href="#ai"/>
</g>
</g>
<path d="m656.41 403.48 2.3716-3.7742q1.2769-2.0321-0.75518-3.309l-6.5557-4.1194q-2.0321-1.2769-3.309 0.75518l-2.3716 3.7742q-1.2769 2.0321 0.75518 3.309l6.5557 4.1194q2.0321 1.2769 3.309-0.75518z" clip-path="url(#a)" fill="#fff" stroke="#fff"/>
<g clip-path="url(#a)">
<defs>
<path id="s" d="m9.8125 72.906h9.8594v-64.609h35.5v-8.2969h-45.359z"/>
</defs>
<g transform="translate(652.97 401.32) rotate(-57.856) scale(.08 -.08)">
<use xlink:href="#s"/>
</g>
</g>
<path d="m855.42 122.33 1.9134-5.7039q0.7633-2.2754-1.5121-3.0387l-7.3405-2.4625q-2.2754-0.7633-3.0387 1.5121l-1.9134 5.7039q-0.76331 2.2754 1.5121 3.0387l7.3405 2.4625q2.2754 0.7633 3.0387-1.5121z" clip-path="url(#a)" fill="#fff" stroke="#fff"/>
<g clip-path="url(#a)">
<g transform="translate(851.57 121.04) rotate(-71.455) scale(.08 -.08)">
<use xlink:href="#ai"/>
</g>
</g>
<path d="m885.51 396.32 0.2079 4.4526q0.11194 2.3974 2.5093 2.2855l7.7341-0.3611q2.3974-0.11193 2.2855-2.5093l-0.2079-4.4526q-0.11194-2.3974-2.5093-2.2855l-7.7341 0.36111q-2.3974 0.11193-2.2855 2.5093z" clip-path="url(#a)" fill="#fff" stroke="#fff"/>
<g clip-path="url(#a)">
<g transform="translate(889.57 396.13) rotate(87.327) scale(.08 -.08)">
<use xlink:href="#s"/>
</g>
</g>
<path d="m1037.5 261.97 3.6956 4.7474q1.4742 1.8938 3.3681 0.41958l6.1096-4.756q1.8938-1.4742 0.41958-3.3681l-3.6956-4.7474q-1.4742-1.8938-3.3681-0.41958l-6.1096 4.756q-1.8938 1.4742-0.41958 3.3681z" clip-path="url(#a)" fill="#fff" stroke="#fff"/>
<g clip-path="url(#a)">
<g transform="translate(1040.8 259.47) rotate(52.101) scale(.08 -.08)">
<use xlink:href="#ai"/>
</g>
</g>
<path d="m1015.9 398.6 1.7083 4.1172q0.91975 2.2168 3.1365 1.297l7.1514-2.9672q2.2168-0.91975 1.297-3.1365l-1.7083-4.1172q-0.91975-2.2168-3.1365-1.297l-7.1514 2.9672q-2.2168 0.91975-1.297 3.1365z" clip-path="url(#a)" fill="#fff" stroke="#fff"/>
<g clip-path="url(#a)">
<g transform="translate(1019.7 397.05) rotate(67.466) scale(.08 -.08)">
<use xlink:href="#s"/>
</g>
</g>
<path d="m1069.6 122.31 5.6386 2.0979q2.2494 0.83688 3.0862-1.4125l2.6998-7.2565q0.83688-2.2494-1.4125-3.0862l-5.6386-2.0979q-2.2494-0.83688-3.0862 1.4125l-2.6998 7.2565q-0.83688 2.2494 1.4125 3.0862z" clip-path="url(#a)" fill="#fff" stroke="#fff"/>
<g clip-path="url(#a)">
<g transform="translate(1071 118.51) rotate(20.408) scale(.08 -.08)">
<use xlink:href="#ai"/>
</g>
</g>
<path d="m634 404.23 3.3244-4.8197q1.3627-1.9756-0.61295-3.3383l-6.3735-4.3961q-1.9756-1.3627-3.3383 0.61295l-3.3244 4.8197q-1.3627 1.9756 0.61295 3.3383l6.3735 4.3961q1.9756 1.3627 3.3383-0.61295z" clip-path="url(#a)" fill="#fff" stroke="#fff"/>
<g clip-path="url(#a)">
<defs>
<path id="am" d="m8.6875 72.906h9.9219v-44.297q0-11.719 4.2344-16.875 4.25-5.1406 13.781-5.1406 9.4688 0 13.719 5.1406 4.25 5.1562 4.25 16.875v44.297h9.9062v-45.516q0-14.25-7.0625-21.531-7.0469-7.2812-20.812-7.2812-13.828 0-20.891 7.2812-7.0469 7.2812-7.0469 21.531z"/>
</defs>
<g transform="translate(630.66 401.92) rotate(-55.404) scale(.08 -.08)">
<use xlink:href="#am"/>
</g>
</g>
<path d="m993.89 397.59 1.9516 5.5202q0.79997 2.2628 3.0627 1.4628l7.2997-2.5807q2.2628-0.79997 1.4628-3.0627l-1.9516-5.5202q-0.79997-2.2628-3.0627-1.4628l-7.2997 2.5807q-2.2628 0.79997-1.4628 3.0627z" clip-path="url(#a)" fill="#fff" stroke="#fff"/>
<g clip-path="url(#a)">
<g transform="translate(997.73 396.23) rotate(70.53) scale(.08 -.08)">
<use xlink:href="#am"/>
</g>
</g>
<path d="m1113.8 617.58 4.9283 2.379q2.1614 1.0433 3.2047-1.118l3.3658-6.9726q1.0433-2.1614-1.118-3.2047l-4.9283-2.379q-2.1614-1.0433-3.2047 1.118l-3.3658 6.9726q-1.0433 2.1614 1.118 3.2047z" clip-path="url(#a)" fill="#fff" stroke="#fff"/>
<g clip-path="url(#a)">
<defs>
<path id="m" d="m34.188 63.188-13.391-36.281h26.812zm-5.5781 9.7188h11.188l27.781-72.906h-10.25l-6.6406 18.703h-32.859l-6.6406-18.703h-10.406z"/>
</defs>
<g transform="translate(1115.6 613.92) rotate(25.767) scale(.08 -.08)">
<use xlink:href="#m"/>
</g>
</g>
<path d="m315.49 550.99 3.5903-3.2215q1.7863-1.6028 0.18352-3.3891l-5.1708-5.7628q-1.6028-1.7863-3.3891-0.18352l-3.5903 3.2215q-1.7863 1.6028-0.18352 3.3891l5.1708 5.7628q1.6028 1.7863 3.3891 0.18352z" clip-path="url(#a)" fill="#fff" stroke="#fff"/>
<g clip-path="url(#a)">
<defs>
<path id="y" d="m19.672 64.797v-27.391h12.406q6.8906 0 10.641 3.5625 3.7656 3.5625 3.7656 10.156 0 6.5469-3.7656 10.109-3.75 3.5625-10.641 3.5625zm-9.8594 8.1094h22.266q12.266 0 18.531-5.5469 6.2812-5.5469 6.2812-16.234 0-10.797-6.2812-16.312-6.2656-5.5156-18.531-5.5156h-12.406v-29.297h-9.8594z"/>
</defs>
<g transform="translate(312.77 547.97) rotate(-41.901) scale(.08 -.08)">
<use xlink:href="#y"/>
</g>
</g>
<path d="m347.13 483.01 4.4802-3.1427q1.9648-1.3782 0.58655-3.343l-4.4463-6.3385q-1.3782-1.9648-3.343-0.58655l-4.4802 3.1427q-1.9648 1.3782-0.58655 3.343l4.4463 6.3385q1.3782 1.9648 3.343 0.58655z" clip-path="url(#a)" fill="#fff" stroke="#fff"/>
<g clip-path="url(#a)">
<g transform="translate(344.79 479.68) rotate(-35.048) scale(.08 -.08)">
<use xlink:href="#m"/>
</g>
</g>
<path d="m404.2 413.78 4.896-2.4448q2.1472-1.0722 1.075-3.2194l-3.4589-6.9269q-1.0722-2.1472-3.2194-1.075l-4.896 2.4448q-2.1472 1.0722-1.075 3.2194l3.4589 6.9269q1.0722 2.1472 3.2194 1.075z" clip-path="url(#a)" fill="#fff" stroke="#fff"/>
<g clip-path="url(#a)">
<g transform="translate(402.39 410.14) rotate(-26.535) scale(.08 -.08)">
<use xlink:href="#m"/>
</g>
</g>
<path d="m422.99 803.94v35.285q0 2.4 2.4 2.4h7.7425q2.4 0 2.4-2.4v-35.285q0-2.4-2.4-2.4h-7.7425q-2.4 0-2.4 2.4z" clip-path="url(#a)" fill="#fff" stroke="#fff"/>
<g clip-path="url(#a)">
<defs>
<path id="k" d="m-0.29688 72.906h61.672v-8.3125h-25.875v-64.594h-9.9062v64.594h-25.891z"/>
<path id="d" d="m56.203 29.594v-4.3906h-41.312q0.59375-9.2812 5.5938-14.141t13.938-4.8594q5.1719 0 10.031 1.2656t9.6562 3.8125v-8.5q-4.8438-2.0469-9.9219-3.125t-10.297-1.0781q-13.094 0-20.734 7.6094-7.6406 7.625-7.6406 20.625 0 13.422 7.25 21.297 7.25 7.8906 19.562 7.8906 11.031 0 17.453-7.1094 6.4219-7.0938 6.4219-19.297zm-8.9844 2.6406q-0.09375 7.3594-4.125 11.75-4.0312 4.4062-10.672 4.4062-7.5156 0-12.031-4.25t-5.2031-11.969z"/>
<path id="i" d="m41.109 46.297q-1.5156 0.875-3.2969 1.2812-1.7812 0.42188-3.9219 0.42188-7.625 0-11.703-4.9531t-4.0781-14.234v-28.812h-9.0312v54.688h9.0312v-8.5q2.8438 4.9844 7.375 7.3906 4.5469 2.4219 11.047 2.4219 0.92188 0 2.0469-0.125 1.125-0.10938 2.4844-0.35938z"/>
<path id="l" d="m52 44.188q3.375 6.0625 8.0625 8.9375t11.031 2.875q8.5469 0 13.188-5.9844 4.6406-5.9688 4.6406-17v-33.016h-9.0312v32.719q0 7.8594-2.7969 11.656-2.7812 3.8125-8.4844 3.8125-6.9844 0-11.047-4.6406-4.0469-4.625-4.0469-12.641v-30.906h-9.0312v32.719q0 7.9062-2.7812 11.688t-8.5938 3.7812q-6.8906 0-10.953-4.6562-4.0469-4.6562-4.0469-12.625v-30.906h-9.0312v54.688h9.0312v-8.5q3.0781 5.0312 7.375 7.4219t10.203 2.3906q5.9688 0 10.141-3.0312 4.1719-3.0156 6.1719-8.7812z"/>
<path id="g" d="m9.4219 54.688h8.9844v-54.688h-8.9844zm0 21.297h8.9844v-11.391h-8.9844z"/>
<path id="f" d="m54.891 33.016v-33.016h-8.9844v32.719q0 7.7656-3.0312 11.609-3.0312 3.8594-9.0781 3.8594-7.2812 0-11.484-4.6406-4.2031-4.625-4.2031-12.641v-30.906h-9.0312v54.688h9.0312v-8.5q3.2344 4.9375 7.5938 7.375 4.375 2.4375 10.094 2.4375 9.4219 0 14.25-5.8281 4.8438-5.8281 4.8438-17.156z"/>
<path id="h" d="m34.281 27.484q-10.891 0-15.094-2.4844t-4.2031-8.5q0-4.7812 3.1562-7.5938 3.1562-2.7969 8.5625-2.7969 7.4844 0 12 5.2969t4.5156 14.078v2zm17.922 3.7188v-31.203h-8.9844v8.2969q-3.0781-4.9688-7.6719-7.3438t-11.234-2.375q-8.3906 0-13.359 4.7188-4.9531 4.7188-4.9531 12.625 0 9.2188 6.1719 13.906 6.1875 4.6875 18.438 4.6875h12.609v0.89062q0 6.2031-4.0781 9.5938t-11.453 3.3906q-4.6875 0-9.1406-1.125-4.4375-1.125-8.5312-3.375v8.3125q4.9219 1.9062 9.5625 2.8438 4.6406 0.95312 9.0312 0.95312 11.875 0 17.734-6.1562 5.8594-6.1406 5.8594-18.641z"/>
<path id="j" d="m9.4219 75.984h8.9844v-75.984h-8.9844z"/>
</defs>
<g transform="translate(427.05 803.94) rotate(90) scale(.08 -.08)">
<use xlink:href="#k"/>
<use x="60.818359" xlink:href="#d"/>
<use x="122.341797" xlink:href="#i"/>
<use x="163.439453" xlink:href="#l"/>
<use x="260.851562" xlink:href="#g"/>
<use x="288.634766" xlink:href="#f"/>
<use x="352.013672" xlink:href="#h"/>
<use x="413.292969" xlink:href="#j"/>
</g>
</g>
<path d="m1209.3 543.66 4.0769 3.6507q1.7879 1.601 3.389-0.18691l5.165-5.768q1.601-1.7879-0.18691-3.389l-4.0769-3.6507q-1.7879-1.601-3.389 0.18691l-5.165 5.768q-1.601 1.7879 0.18691 3.389z" clip-path="url(#a)" fill="#fff" stroke="#fff"/>
<g clip-path="url(#a)">
<g transform="translate(1212 540.63) rotate(41.843) scale(.08 -.08)">
<use xlink:href="#m"/>
</g>
</g>
<path d="m653.22 477.78 2.5658-4.0847q1.2766-2.0323-0.75571-3.3089l-6.5563-4.1184q-2.0323-1.2766-3.3089 0.75571l-2.5658 4.0847q-1.2766 2.0323 0.75571 3.3089l6.5563 4.1184q2.0323 1.2766 3.3089-0.75571z" clip-path="url(#a)" fill="#fff" stroke="#fff"/>
<g clip-path="url(#a)">
<g transform="translate(649.78 475.62) rotate(-57.865) scale(.08 -.08)">
<use xlink:href="#y"/>
</g>
</g>
<path d="m685.52 409.78 3.0669-4.5324q1.345-1.9877-0.64272-3.3327l-6.4124-4.339q-1.9877-1.345-3.3327 0.64272l-3.0669 4.5324q-1.345 1.9877 0.64272 3.3327l6.4124 4.339q1.9877 1.345 3.3327-0.64272z" clip-path="url(#a)" fill="#fff" stroke="#fff"/>
<g clip-path="url(#a)">
<g transform="translate(682.16 407.5) rotate(-55.916) scale(.08 -.08)">
<use xlink:href="#m"/>
</g>
</g>
<path d="m758.28 270.27 3.8031-3.9351q1.6679-1.7258-0.057883-3.3936l-5.5673-5.3806q-1.7258-1.6679-3.3936 0.057883l-3.8031 3.9351q-1.6679 1.7258 0.057884 3.3936l5.5673 5.3806q1.7258 1.6679 3.3936-0.057883z" clip-path="url(#a)" fill="#fff" stroke="#fff"/>
<g clip-path="url(#a)">
<g transform="translate(755.36 267.44) rotate(-45.977) scale(.08 -.08)">
<use xlink:href="#m"/>
</g>
</g>
<path d="m902.18 803.94v35.285q0 2.4 2.4 2.4h7.7425q2.4 0 2.4-2.4v-35.285q0-2.4-2.4-2.4h-7.7425q-2.4 0-2.4 2.4z" clip-path="url(#a)" fill="#fff" stroke="#fff"/>
<g clip-path="url(#a)">
<g transform="translate(906.24 803.94) rotate(90) scale(.08 -.08)">
<use xlink:href="#k"/>
<use x="60.818359" xlink:href="#d"/>
<use x="122.341797" xlink:href="#i"/>
<use x="163.439453" xlink:href="#l"/>
<use x="260.851562" xlink:href="#g"/>
<use x="288.634766" xlink:href="#f"/>
<use x="352.013672" xlink:href="#h"/>
<use x="413.292969" xlink:href="#j"/>
</g>
</g>
<path d="m1424.9 686.49 3.9743 3.762q1.743 1.6499 3.3928-0.093103l5.3225-5.6229q1.6499-1.743-0.093103-3.3928l-3.9743-3.762q-1.743-1.6499-3.3928 0.093103l-5.3225 5.6229q-1.6499 1.743 0.093103 3.3928z" clip-path="url(#a)" fill="#fff" stroke="#fff"/>
<g clip-path="url(#a)">
<g transform="translate(1427.7 683.54) rotate(43.428) scale(.08 -.08)">
<use xlink:href="#m"/>
</g>
</g>
<path d="m1085.6 621.47 3.3198-3.4997q1.6517-1.7412-0.089501-3.3929l-5.6172-5.3285q-1.7412-1.6517-3.3929 0.089501l-3.3198 3.4997q-1.6517 1.7412 0.089502 3.3929l5.6172 5.3285q1.7412 1.6517 3.3929-0.089502z" clip-path="url(#a)" fill="#fff" stroke="#fff"/>
<g clip-path="url(#a)">
<g transform="translate(1082.6 618.68) rotate(-46.511) scale(.08 -.08)">
<use xlink:href="#y"/>
</g>
</g>
<path d="m1128 553.61 4.2814-3.4085q1.8777-1.4948 0.38285-3.3725l-4.8223-6.0574q-1.4948-1.8776-3.3725-0.38285l-4.2814 3.4085q-1.8777 1.4948-0.38285 3.3725l4.8223 6.0574q1.4948 1.8776 3.3725 0.38285z" clip-path="url(#a)" fill="#fff" stroke="#fff"/>
<g clip-path="url(#a)">
<g transform="translate(1125.5 550.43) rotate(-38.523) scale(.08 -.08)">
<use xlink:href="#m"/>
</g>
</g>
<path d="m1163.6 803.94v35.285q0 2.4 2.4 2.4h7.7425q2.4 0 2.4-2.4v-35.285q0-2.4-2.4-2.4h-7.7425q-2.4 0-2.4 2.4z" clip-path="url(#a)" fill="#fff" stroke="#fff"/>
<g clip-path="url(#a)">
<g transform="translate(1167.6 803.94) rotate(90) scale(.08 -.08)">
<use xlink:href="#k"/>
<use x="60.818359" xlink:href="#d"/>
<use x="122.341797" xlink:href="#i"/>
<use x="163.439453" xlink:href="#l"/>
<use x="260.851562" xlink:href="#g"/>
<use x="288.634766" xlink:href="#f"/>
<use x="352.013672" xlink:href="#h"/>
<use x="413.292969" xlink:href="#j"/>
</g>
</g>
<path d="m1249.6 475.8 0.58624-5.441q0.2571-2.3862-2.1291-2.6433l-7.6979-0.82942q-2.3862-0.2571-2.6433 2.1291l-0.58624 5.441q-0.2571 2.3862 2.1291 2.6433l7.6979 0.82942q2.3862 0.2571 2.6433-2.1291z" clip-path="url(#a)" fill="#fff" stroke="#fff"/>
<g clip-path="url(#a)">
<g transform="translate(1245.5 475.36) rotate(-83.85) scale(.08 -.08)">
<use xlink:href="#m"/>
</g>
</g>
<path d="m1271.6 475.13 0.15315-5.0764q0.072371-2.3989-2.3265-2.4713l-7.739-0.23347q-2.3989-0.072372-2.4713 2.3265l-0.15315 5.0764q-0.072372 2.3989 2.3265 2.4713l7.739 0.23347q2.3989 0.072372 2.4713-2.3265z" clip-path="url(#a)" fill="#fff" stroke="#fff"/>
<g clip-path="url(#a)">
<defs>
<path id="ar" d="m53.516 70.516v-9.625q-5.6094 2.6875-10.594 4-4.9844 1.3281-9.625 1.3281-8.0469 0-12.422-3.125t-4.375-8.8906q0-4.8438 2.9062-7.3125 2.9062-2.4531 11.016-3.9688l5.9531-1.2188q11.031-2.1094 16.281-7.4062t5.25-14.172q0-10.609-7.1094-16.078-7.0938-5.4688-20.812-5.4688-5.1719 0-11.016 1.1719-5.8281 1.1719-12.078 3.4688v10.156q6-3.3594 11.766-5.0781 5.7656-1.7031 11.328-1.7031 8.4375 0 13.031 3.3125 4.5938 3.3281 4.5938 9.4844 0 5.3594-3.2969 8.3906t-10.812 4.5469l-6.0156 1.1719q-11.031 2.1875-15.969 6.875-4.9219 4.6875-4.9219 13.047 0 9.6719 6.8125 15.234t18.766 5.5625q5.1406 0 10.453-0.9375 5.3281-0.92188 10.891-2.7656z"/>
</defs>
<g transform="translate(1267.5 475.01) rotate(-88.272) scale(.08 -.08)">
<use xlink:href="#ar"/>
</g>
</g>
<path d="m1305.8 264.49 2.5835 4.8243q1.133 2.1157 3.2487 0.98269l6.8254-3.6552q2.1157-1.133 0.98269-3.2487l-2.5835-4.8243q-1.133-2.1157-3.2487-0.98269l-6.8254 3.6552q-2.1157 1.133-0.98269 3.2487z" clip-path="url(#a)" fill="#fff" stroke="#fff"/>
<g clip-path="url(#a)">
<g transform="translate(1309.4 262.57) rotate(61.83) scale(.08 -.08)">
<use xlink:href="#m"/>
</g>
</g>
<path d="m1207.1 803.94v35.285q0 2.4 2.4 2.4h7.7425q2.4 0 2.4-2.4v-35.285q0-2.4-2.4-2.4h-7.7425q-2.4 0-2.4 2.4z" clip-path="url(#a)" fill="#fff" stroke="#fff"/>
<g clip-path="url(#a)">
<g transform="translate(1211.2 803.94) rotate(90) scale(.08 -.08)">
<use xlink:href="#k"/>
<use x="60.818359" xlink:href="#d"/>
<use x="122.341797" xlink:href="#i"/>
<use x="163.439453" xlink:href="#l"/>
<use x="260.851562" xlink:href="#g"/>
<use x="288.634766" xlink:href="#f"/>
<use x="352.013672" xlink:href="#h"/>
<use x="413.292969" xlink:href="#j"/>
</g>
</g>
<path d="m1250.7 803.94v35.285q0 2.4 2.4 2.4h7.7425q2.4 0 2.4-2.4v-35.285q0-2.4-2.4-2.4h-7.7425q-2.4 0-2.4 2.4z" clip-path="url(#a)" fill="#fff" stroke="#fff"/>
<g clip-path="url(#a)">
<g transform="translate(1254.7 803.94) rotate(90) scale(.08 -.08)">
<use xlink:href="#k"/>
<use x="60.818359" xlink:href="#d"/>
<use x="122.341797" xlink:href="#i"/>
<use x="163.439453" xlink:href="#l"/>
<use x="260.851562" xlink:href="#g"/>
<use x="288.634766" xlink:href="#f"/>
<use x="352.013672" xlink:href="#h"/>
<use x="413.292969" xlink:href="#j"/>
</g>
</g>
<path d="m1331.8 547.98 0.61167-5.0179q0.2904-2.3824-2.092-2.6728l-7.6856-0.93686q-2.3824-0.29041-2.6728 2.092l-0.61167 5.0179q-0.2904 2.3824 2.092 2.6728l7.6856 0.93686q2.3824 0.2904 2.6728-2.092z" clip-path="url(#a)" fill="#fff" stroke="#fff"/>
<g clip-path="url(#a)">
<defs>
<path id="v" d="m9.8125 72.906h46.094v-8.3125h-36.234v-21.578h34.719v-8.2969h-34.719v-26.422h37.109v-8.2969h-46.969z"/>
</defs>
<g transform="translate(1327.8 547.49) rotate(-83.05) scale(.08 -.08)">
<use xlink:href="#v"/>
</g>
</g>
<path d="m1353.9 547.61 0.097264-5.5854q0.041788-2.3996-2.3578-2.4414l-7.7413-0.13481q-2.3996-0.041787-2.4414 2.3578l-0.097264 5.5854q-0.041788 2.3996 2.3578 2.4414l7.7413 0.13481q2.3996 0.041788 2.4414-2.3578z" clip-path="url(#a)" fill="#fff" stroke="#fff"/>
<g clip-path="url(#a)">
<defs>
<path id="o" d="m64.406 67.281v-10.391q-4.9844 4.6406-10.625 6.9219-5.6406 2.2969-11.984 2.2969-12.5 0-19.141-7.6406t-6.6406-22.094q0-14.406 6.6406-22.047t19.141-7.6406q6.3438 0 11.984 2.2969t10.625 6.9375v-10.312q-5.1719-3.5156-10.969-5.2812-5.7812-1.75-12.219-1.75-16.562 0-26.094 10.125-9.5156 10.141-9.5156 27.672 0 17.578 9.5156 27.703 9.5312 10.141 26.094 10.141 6.5312 0 12.312-1.7344 5.7969-1.7344 10.875-5.2031z"/>
</defs>
<g transform="translate(1349.9 547.54) rotate(-89.002) scale(.08 -.08)">
<use xlink:href="#o"/>
</g>
</g>
<path d="m1373.6 406.99 1.9208 4.6758q0.91196 2.22 3.1319 1.308l7.1618-2.942q2.22-0.91196 1.308-3.1319l-1.9208-4.6758q-0.91196-2.22-3.1319-1.308l-7.1618 2.942q-2.22 0.91196-1.308 3.1319z" clip-path="url(#a)" fill="#fff" stroke="#fff"/>
<g clip-path="url(#a)">
<g transform="translate(1377.4 405.44) rotate(67.667) scale(.08 -.08)">
<use xlink:href="#v"/>
</g>
</g>
<path d="m1294.2 803.94v35.285q0 2.4 2.4 2.4h7.7425q2.4 0 2.4-2.4v-35.285q0-2.4-2.4-2.4h-7.7425q-2.4 0-2.4 2.4z" clip-path="url(#a)" fill="#fff" stroke="#fff"/>
<g clip-path="url(#a)">
<g transform="translate(1298.3 803.94) rotate(90) scale(.08 -.08)">
<use xlink:href="#k"/>
<use x="60.818359" xlink:href="#d"/>
<use x="122.341797" xlink:href="#i"/>
<use x="163.439453" xlink:href="#l"/>
<use x="260.851562" xlink:href="#g"/>
<use x="288.634766" xlink:href="#f"/>
<use x="352.013672" xlink:href="#h"/>
<use x="413.292969" xlink:href="#j"/>
</g>
</g>
<path d="m1337.8 803.94v35.285q0 2.4 2.4 2.4h7.7425q2.4 0 2.4-2.4v-35.285q0-2.4-2.4-2.4h-7.7425q-2.4 0-2.4 2.4z" clip-path="url(#a)" fill="#fff" stroke="#fff"/>
<g clip-path="url(#a)">
<g transform="translate(1341.9 803.94) rotate(90) scale(.08 -.08)">
<use xlink:href="#k"/>
<use x="60.818359" xlink:href="#d"/>
<use x="122.341797" xlink:href="#i"/>
<use x="163.439453" xlink:href="#l"/>
<use x="260.851562" xlink:href="#g"/>
<use x="288.634766" xlink:href="#f"/>
<use x="352.013672" xlink:href="#h"/>
<use x="413.292969" xlink:href="#j"/>
</g>
</g>
<path d="m1382.2 619.52 1.2628-5.3248q0.5538-2.3352-1.7814-2.889l-7.5336-1.7866q-2.3352-0.5538-2.889 1.7814l-1.2628 5.3248q-0.5538 2.3352 1.7814 2.889l7.5336 1.7866q2.3352 0.5538 2.889-1.7814z" clip-path="url(#a)" fill="#fff" stroke="#fff"/>
<g clip-path="url(#a)">
<g transform="translate(1378.3 618.58) rotate(-76.659) scale(.08 -.08)">
<use xlink:href="#m"/>
</g>
</g>
<path d="m1404.6 618.63 0.43126-5.4555q0.18913-2.3925-2.2034-2.5817l-7.7184-0.61014q-2.3925-0.18913-2.5817 2.2034l-0.43126 5.4555q-0.18913 2.3925 2.2034 2.5817l7.7184 0.61014q2.3925 0.18913 2.5817-2.2034z" clip-path="url(#a)" fill="#fff" stroke="#fff"/>
<g clip-path="url(#a)">
<g transform="translate(1400.5 618.31) rotate(-85.48) scale(.08 -.08)">
<use xlink:href="#m"/>
</g>
</g>
<path d="m1446.4 548.29 2.5656 4.0849q1.2765 2.0324 3.3089 0.75593l6.5566-4.1179q2.0324-1.2765 0.75593-3.3089l-2.5656-4.0849q-1.2765-2.0324-3.3089-0.75593l-6.5566 4.1179q-2.0324 1.2765-0.75593 3.3089z" clip-path="url(#a)" fill="#fff" stroke="#fff"/>
<g clip-path="url(#a)">
<g transform="translate(1449.8 546.13) rotate(57.869) scale(.08 -.08)">
<use xlink:href="#y"/>
</g>
</g>
<path d="m1381.4 803.94v35.285q0 2.4 2.4 2.4h7.7425q2.4 0 2.4-2.4v-35.285q0-2.4-2.4-2.4h-7.7425q-2.4 0-2.4 2.4z" clip-path="url(#a)" fill="#fff" stroke="#fff"/>
<g clip-path="url(#a)">
<g transform="translate(1385.4 803.94) rotate(90) scale(.08 -.08)">
<use xlink:href="#k"/>
<use x="60.818359" xlink:href="#d"/>
<use x="122.341797" xlink:href="#i"/>
<use x="163.439453" xlink:href="#l"/>
<use x="260.851562" xlink:href="#g"/>
<use x="288.634766" xlink:href="#f"/>
<use x="352.013672" xlink:href="#h"/>
<use x="413.292969" xlink:href="#j"/>
</g>
</g>
<path d="m1468.5 689.55 1.983-4.152q1.0343-2.1657-1.1314-3.2l-6.9866-3.3368q-2.1657-1.0343-3.2 1.1314l-1.983 4.152q-1.0343 2.1657 1.1314 3.2l6.9866 3.3368q2.1657 1.0343 3.2-1.1314z" clip-path="url(#a)" fill="#fff" stroke="#fff"/>
<g clip-path="url(#a)">
<defs>
<path id="au" d="m9.8125 72.906h41.891v-8.3125h-32.031v-21.484h28.906v-8.2969h-28.906v-34.812h-9.8594z"/>
</defs>
<g transform="translate(1464.9 687.8) rotate(-64.471) scale(.08 -.08)">
<use xlink:href="#au"/>
</g>
</g>
<path d="m1490.3 681.98v5.5862q0 2.4 2.4 2.4h7.7425q2.4 0 2.4-2.4v-5.5862q0-2.4-2.4-2.4h-7.7425q-2.4 0-2.4 2.4z" clip-path="url(#a)" fill="#fff" stroke="#fff"/>
<g clip-path="url(#a)">
<g transform="translate(1494.3 681.98) rotate(90) scale(.08 -.08)">
<use xlink:href="#o"/>
</g>
</g>
<path d="m1522.3 684.83 2.5233 5.2834q1.0343 2.1657 3.2 1.1314l6.9866-3.3368q2.1657-1.0343 1.1314-3.2l-2.5233-5.2834q-1.0343-2.1657-3.2-1.1314l-6.9866 3.3368q-2.1657 1.0343-1.1314 3.2z" clip-path="url(#a)" fill="#fff" stroke="#fff"/>
<g clip-path="url(#a)">
<g transform="translate(1526 683.08) rotate(64.471) scale(.08 -.08)">
<use xlink:href="#am"/>
</g>
</g>
<path d="m1424.9 803.94v35.285q0 2.4 2.4 2.4h7.7425q2.4 0 2.4-2.4v-35.285q0-2.4-2.4-2.4h-7.7425q-2.4 0-2.4 2.4z" clip-path="url(#a)" fill="#fff" stroke="#fff"/>
<g clip-path="url(#a)">
<g transform="translate(1429 803.94) rotate(90) scale(.08 -.08)">
<use xlink:href="#k"/>
<use x="60.818359" xlink:href="#d"/>
<use x="122.341797" xlink:href="#i"/>
<use x="163.439453" xlink:href="#l"/>
<use x="260.851562" xlink:href="#g"/>
<use x="288.634766" xlink:href="#f"/>
<use x="352.013672" xlink:href="#h"/>
<use x="413.292969" xlink:href="#j"/>
</g>
</g>
<path d="m1489.1 840 5.5475-34.846q0.37733-2.3702-1.9928-2.7475l-7.6462-1.2173q-2.3702-0.37733-2.7475 1.9928l-5.5475 34.846q-0.37733 2.3702 1.9928 2.7475l7.6462 1.2173q2.3702 0.37733 2.7475-1.9928z" clip-path="url(#a)" fill="#fff" stroke="#fff"/>
<g clip-path="url(#a)">
<g transform="translate(1485.1 839.36) rotate(-80.954) scale(.08 -.08)">
<use xlink:href="#k"/>
<use x="60.818359" xlink:href="#d"/>
<use x="122.341797" xlink:href="#i"/>
<use x="163.439453" xlink:href="#l"/>
<use x="260.851562" xlink:href="#g"/>
<use x="288.634766" xlink:href="#f"/>
<use x="352.013672" xlink:href="#h"/>
<use x="413.292969" xlink:href="#j"/>
</g>
</g>
<path d="m1498.5 805.15 5.5475 34.846q0.37733 2.3702 2.7475 1.9928l7.6462-1.2173q2.3702-0.37733 1.9928-2.7475l-5.5475-34.846q-0.37733-2.3702-2.7475-1.9928l-7.6462 1.2173q-2.3702 0.37733-1.9928 2.7475z" clip-path="url(#a)" fill="#fff" stroke="#fff"/>
<g clip-path="url(#a)">
<g transform="translate(1502.5 804.51) rotate(80.954) scale(.08 -.08)">
<use xlink:href="#k"/>
<use x="60.818359" xlink:href="#d"/>
<use x="122.341797" xlink:href="#i"/>
<use x="163.439453" xlink:href="#l"/>
<use x="260.851562" xlink:href="#g"/>
<use x="288.634766" xlink:href="#f"/>
<use x="352.013672" xlink:href="#h"/>
<use x="413.292969" xlink:href="#j"/>
</g>
</g>
<path d="m945.74 803.94v35.285q0 2.4 2.4 2.4h7.7425q2.4 0 2.4-2.4v-35.285q0-2.4-2.4-2.4h-7.7425q-2.4 0-2.4 2.4z" clip-path="url(#a)" fill="#fff" stroke="#fff"/>
<g clip-path="url(#a)">
<g transform="translate(949.8 803.94) rotate(90) scale(.08 -.08)">
<use xlink:href="#k"/>
<use x="60.818359" xlink:href="#d"/>
<use x="122.341797" xlink:href="#i"/>
<use x="163.439453" xlink:href="#l"/>
<use x="260.851562" xlink:href="#g"/>
<use x="288.634766" xlink:href="#f"/>
<use x="352.013672" xlink:href="#h"/>
<use x="413.292969" xlink:href="#j"/>
</g>
</g>
<path d="m1022.6 689.08 1.5336-4.8167q0.72814-2.2869-1.5587-3.015l-7.3776-2.349q-2.2869-0.72814-3.015 1.5587l-1.5336 4.8167q-0.72814 2.2869 1.5587 3.015l7.3776 2.349q2.2869 0.72814 3.015-1.5587z" clip-path="url(#a)" fill="#fff" stroke="#fff"/>
<g clip-path="url(#a)">
<g transform="translate(1018.7 687.85) rotate(-72.339) scale(.08 -.08)">
<use xlink:href="#v"/>
</g>
</g>
<path d="m1032.9 682.24v5.055q0 2.4 2.4 2.4h7.7425q2.4 0 2.4-2.4v-5.055q0-2.4-2.4-2.4h-7.7425q-2.4 0-2.4 2.4z" clip-path="url(#a)" fill="#fff" stroke="#fff"/>
<g clip-path="url(#a)">
<g transform="translate(1036.9 682.24) rotate(90) scale(.08 -.08)">
<use xlink:href="#v"/>
</g>
</g>
<path d="m1054.1 684.01 1.6948 5.3229q0.72814 2.2869 3.015 1.5587l7.3776-2.349q2.2869-0.72814 1.5587-3.015l-1.6948-5.3229q-0.72814-2.2869-3.015-1.5587l-7.3776 2.349q-2.2869 0.72814-1.5587 3.015z" clip-path="url(#a)" fill="#fff" stroke="#fff"/>
<g clip-path="url(#a)">
<g transform="translate(1058 682.78) rotate(72.339) scale(.08 -.08)">
<use xlink:href="#o"/>
</g>
</g>
<path d="m989.3 803.94v35.285q0 2.4 2.4 2.4h7.7425q2.4 0 2.4-2.4v-35.285q0-2.4-2.4-2.4h-7.7425q-2.4 0-2.4 2.4z" clip-path="url(#a)" fill="#fff" stroke="#fff"/>
<g clip-path="url(#a)">
<g transform="translate(993.37 803.94) rotate(90) scale(.08 -.08)">
<use xlink:href="#k"/>
<use x="60.818359" xlink:href="#d"/>
<use x="122.341797" xlink:href="#i"/>
<use x="163.439453" xlink:href="#l"/>
<use x="260.851562" xlink:href="#g"/>
<use x="288.634766" xlink:href="#f"/>
<use x="352.013672" xlink:href="#h"/>
<use x="413.292969" xlink:href="#j"/>
</g>
</g>
<path d="m1032.9 803.94v35.285q0 2.4 2.4 2.4h7.7425q2.4 0 2.4-2.4v-35.285q0-2.4-2.4-2.4h-7.7425q-2.4 0-2.4 2.4z" clip-path="url(#a)" fill="#fff" stroke="#fff"/>
<g clip-path="url(#a)">
<g transform="translate(1036.9 803.94) rotate(90) scale(.08 -.08)">
<use xlink:href="#k"/>
<use x="60.818359" xlink:href="#d"/>
<use x="122.341797" xlink:href="#i"/>
<use x="163.439453" xlink:href="#l"/>
<use x="260.851562" xlink:href="#g"/>
<use x="288.634766" xlink:href="#f"/>
<use x="352.013672" xlink:href="#h"/>
<use x="413.292969" xlink:href="#j"/>
</g>
</g>
<path d="m1076.4 803.94v35.285q0 2.4 2.4 2.4h7.7425q2.4 0 2.4-2.4v-35.285q0-2.4-2.4-2.4h-7.7425q-2.4 0-2.4 2.4z" clip-path="url(#a)" fill="#fff" stroke="#fff"/>
<g clip-path="url(#a)">
<g transform="translate(1080.5 803.94) rotate(90) scale(.08 -.08)">
<use xlink:href="#k"/>
<use x="60.818359" xlink:href="#d"/>
<use x="122.341797" xlink:href="#i"/>
<use x="163.439453" xlink:href="#l"/>
<use x="260.851562" xlink:href="#g"/>
<use x="288.634766" xlink:href="#f"/>
<use x="352.013672" xlink:href="#h"/>
<use x="413.292969" xlink:href="#j"/>
</g>
</g>
<path d="m466.55 803.94v35.285q0 2.4 2.4 2.4h7.7425q2.4 0 2.4-2.4v-35.285q0-2.4-2.4-2.4h-7.7425q-2.4 0-2.4 2.4z" clip-path="url(#a)" fill="#fff" stroke="#fff"/>
<g clip-path="url(#a)">
<g transform="translate(470.61 803.94) rotate(90) scale(.08 -.08)">
<use xlink:href="#k"/>
<use x="60.818359" xlink:href="#d"/>
<use x="122.341797" xlink:href="#i"/>
<use x="163.439453" xlink:href="#l"/>
<use x="260.851562" xlink:href="#g"/>
<use x="288.634766" xlink:href="#f"/>
<use x="352.013672" xlink:href="#h"/>
<use x="413.292969" xlink:href="#j"/>
</g>
</g>
<path d="m533.07 688.25 0.79474-4.9921q0.37733-2.3702-1.9928-2.7475l-7.6462-1.2173q-2.3702-0.37733-2.7475 1.9928l-0.79474 4.9921q-0.37733 2.3702 1.9928 2.7475l7.6462 1.2173q2.3702 0.37733 2.7475-1.9928z" clip-path="url(#a)" fill="#fff" stroke="#fff"/>
<g clip-path="url(#a)">
<g transform="translate(529.06 687.61) rotate(-80.954) scale(.08 -.08)">
<use xlink:href="#v"/>
</g>
</g>
<path d="m542.42 683 0.87827 5.5168q0.37733 2.3702 2.7475 1.9928l7.6462-1.2173q2.3702-0.37733 1.9928-2.7475l-0.87827-5.5168q-0.37733-2.3702-2.7475-1.9928l-7.6462 1.2173q-2.3702 0.37733-1.9928 2.7475z" clip-path="url(#a)" fill="#fff" stroke="#fff"/>
<g clip-path="url(#a)">
<g transform="translate(546.44 682.36) rotate(80.954) scale(.08 -.08)">
<use xlink:href="#o"/>
</g>
</g>
<path d="m650.32 548.41 0.97877-4.9593q0.4647-2.3546-1.8899-2.8193l-7.596-1.4991q-2.3546-0.4647-2.8193 1.8899l-0.97877 4.9593q-0.4647 2.3546 1.8899 2.8193l7.596 1.4991q2.3546 0.4647 2.8193-1.8899z" clip-path="url(#a)" fill="#fff" stroke="#fff"/>
<g clip-path="url(#a)">
<g transform="translate(646.33 547.62) rotate(-78.836) scale(.08 -.08)">
<use xlink:href="#v"/>
</g>
</g>
<path d="m672.42 548.07 0.5166-5.5623q0.22194-2.3897-2.1678-2.6117l-7.7093-0.716q-2.3897-0.22194-2.6117 2.1678l-0.5166 5.5623q-0.22194 2.3897 2.1678 2.6117l7.7093 0.716q2.3897 0.22194 2.6117-2.1678z" clip-path="url(#a)" fill="#fff" stroke="#fff"/>
<g clip-path="url(#a)">
<g transform="translate(668.37 547.7) rotate(-84.694) scale(.08 -.08)">
<use xlink:href="#o"/>
</g>
</g>
<path d="m739.89 409.1 3.2868 3.8405q1.5605 1.8234 3.3839 0.26289l5.8824-5.0343q1.8234-1.5605 0.26288-3.3839l-3.2868-3.8405q-1.5605-1.8234-3.3839-0.26289l-5.8824 5.0343q-1.8234 1.5605-0.26289 3.3839z" clip-path="url(#a)" fill="#fff" stroke="#fff"/>
<g clip-path="url(#a)">
<g transform="translate(742.98 406.46) rotate(49.442) scale(.08 -.08)">
<use xlink:href="#v"/>
</g>
</g>
<path d="m597.24 803.94v35.285q0 2.4 2.4 2.4h7.7425q2.4 0 2.4-2.4v-35.285q0-2.4-2.4-2.4h-7.7425q-2.4 0-2.4 2.4z" clip-path="url(#a)" fill="#fff" stroke="#fff"/>
<g clip-path="url(#a)">
<g transform="translate(601.3 803.94) rotate(90) scale(.08 -.08)">
<use xlink:href="#k"/>
<use x="60.818359" xlink:href="#d"/>
<use x="122.341797" xlink:href="#i"/>
<use x="163.439453" xlink:href="#l"/>
<use x="260.851562" xlink:href="#g"/>
<use x="288.634766" xlink:href="#f"/>
<use x="352.013672" xlink:href="#h"/>
<use x="413.292969" xlink:href="#j"/>
</g>
</g>
<path d="m640.8 803.94v35.285q0 2.4 2.4 2.4h7.7425q2.4 0 2.4-2.4v-35.285q0-2.4-2.4-2.4h-7.7425q-2.4 0-2.4 2.4z" clip-path="url(#a)" fill="#fff" stroke="#fff"/>
<g clip-path="url(#a)">
<g transform="translate(644.87 803.94) rotate(90) scale(.08 -.08)">
<use xlink:href="#k"/>
<use x="60.818359" xlink:href="#d"/>
<use x="122.341797" xlink:href="#i"/>
<use x="163.439453" xlink:href="#l"/>
<use x="260.851562" xlink:href="#g"/>
<use x="288.634766" xlink:href="#f"/>
<use x="352.013672" xlink:href="#h"/>
<use x="413.292969" xlink:href="#j"/>
</g>
</g>
<path d="m774.88 552.15 2.3441-4.4787q1.1129-2.1264-1.0135-3.2393l-6.8598-3.5903q-2.1264-1.1129-3.2393 1.0135l-2.3441 4.4787q-1.1129 2.1264 1.0135 3.2393l6.8598 3.5903q2.1264 1.1129 3.2393-1.0135z" clip-path="url(#a)" fill="#fff" stroke="#fff"/>
<g clip-path="url(#a)">
<g transform="translate(771.28 550.26) rotate(-62.373) scale(.08 -.08)">
<use xlink:href="#v"/>
</g>
</g>
<path d="m807.67 613.21 0.26603 5.048q0.1263 2.3967 2.523 2.2704l7.7318-0.40746q2.3967-0.1263 2.2704-2.523l-0.26603-5.048q-0.1263-2.3967-2.523-2.2704l-7.7318 0.40746q-2.3967 0.1263-2.2704 2.523z" clip-path="url(#a)" fill="#fff" stroke="#fff"/>
<g clip-path="url(#a)">
<g transform="translate(811.72 613) rotate(86.983) scale(.08 -.08)">
<use xlink:href="#v"/>
</g>
</g>
<path d="m829.13 613.97 1.1523 5.4661q0.49504 2.3484 2.8434 1.8534l7.576-1.597q2.3484-0.49504 1.8534-2.8434l-1.1523-5.4661q-0.49504-2.3484-2.8434-1.8534l-7.576 1.597q-2.3484 0.49504-1.8534 2.8434z" clip-path="url(#a)" fill="#fff" stroke="#fff"/>
<g clip-path="url(#a)">
<g transform="translate(833.11 613.13) rotate(78.096) scale(.08 -.08)">
<use xlink:href="#o"/>
</g>
</g>
<path d="m717.55 689.32 1.6865-5.2967q0.72814-2.2869-1.5587-3.015l-7.3776-2.349q-2.2869-0.72814-3.015 1.5587l-1.6865 5.2967q-0.72814 2.2869 1.5587 3.015l7.3776 2.349q2.2869 0.72814 3.015-1.5587z" clip-path="url(#a)" fill="#fff" stroke="#fff"/>
<g clip-path="url(#a)">
<defs>
<path id="af" d="m44.391 34.188q3.1719-1.0781 6.1719-4.5938t6.0312-9.6719l10.016-19.922h-10.609l-9.3125 18.703q-3.625 7.3281-7.0156 9.7188t-9.25 2.3906h-10.75v-30.812h-9.8594v72.906h22.266q12.5 0 18.656-5.2344 6.1562-5.2188 6.1562-15.766 0-6.8906-3.2031-11.438-3.2031-4.5312-9.2969-6.2812zm-24.719 30.609v-25.875h12.406q7.125 0 10.766 3.2969t3.6406 9.6875-3.6406 9.6406-10.766 3.25z"/>
</defs>
<g transform="translate(713.68 688.09) rotate(-72.339) scale(.08 -.08)">
<use xlink:href="#af"/>
</g>
</g>
<path d="m727.93 681.98v5.5862q0 2.4 2.4 2.4h7.7425q2.4 0 2.4-2.4v-5.5862q0-2.4-2.4-2.4h-7.7425q-2.4 0-2.4 2.4z" clip-path="url(#a)" fill="#fff" stroke="#fff"/>
<g clip-path="url(#a)">
<g transform="translate(731.99 681.98) rotate(90) scale(.08 -.08)">
<use xlink:href="#o"/>
</g>
</g>
<path d="m749.16 684.02 1.6865 5.2967q0.72814 2.2869 3.015 1.5587l7.3776-2.349q2.2869-0.72814 1.5587-3.015l-1.6865-5.2967q-0.72814-2.2869-3.015-1.5587l-7.3776 2.349q-2.2869 0.72814-1.5587 3.015z" clip-path="url(#a)" fill="#fff" stroke="#fff"/>
<g clip-path="url(#a)">
<g transform="translate(753.03 682.79) rotate(72.339) scale(.08 -.08)">
<use xlink:href="#af"/>
</g>
</g>
<path d="m815.05 803.94v35.285q0 2.4 2.4 2.4h7.7425q2.4 0 2.4-2.4v-35.285q0-2.4-2.4-2.4h-7.7425q-2.4 0-2.4 2.4z" clip-path="url(#a)" fill="#fff" stroke="#fff"/>
<g clip-path="url(#a)">
<g transform="translate(819.12 803.94) rotate(90) scale(.08 -.08)">
<use xlink:href="#k"/>
<use x="60.818359" xlink:href="#d"/>
<use x="122.341797" xlink:href="#i"/>
<use x="163.439453" xlink:href="#l"/>
<use x="260.851562" xlink:href="#g"/>
<use x="288.634766" xlink:href="#f"/>
<use x="352.013672" xlink:href="#h"/>
<use x="413.292969" xlink:href="#j"/>
</g>
</g>
<path d="m858.61 803.94v35.285q0 2.4 2.4 2.4h7.7425q2.4 0 2.4-2.4v-35.285q0-2.4-2.4-2.4h-7.7425q-2.4 0-2.4 2.4z" clip-path="url(#a)" fill="#fff" stroke="#fff"/>
<g clip-path="url(#a)">
<g transform="translate(862.68 803.94) rotate(90) scale(.08 -.08)">
<use xlink:href="#k"/>
<use x="60.818359" xlink:href="#d"/>
<use x="122.341797" xlink:href="#i"/>
<use x="163.439453" xlink:href="#l"/>
<use x="260.851562" xlink:href="#g"/>
<use x="288.634766" xlink:href="#f"/>
<use x="352.013672" xlink:href="#h"/>
<use x="413.292969" xlink:href="#j"/>
</g>
</g>
<path d="m684.36 803.94v35.285q0 2.4 2.4 2.4h7.7425q2.4 0 2.4-2.4v-35.285q0-2.4-2.4-2.4h-7.7425q-2.4 0-2.4 2.4z" clip-path="url(#a)" fill="#fff" stroke="#fff"/>
<g clip-path="url(#a)">
<g transform="translate(688.43 803.94) rotate(90) scale(.08 -.08)">
<use xlink:href="#k"/>
<use x="60.818359" xlink:href="#d"/>
<use x="122.341797" xlink:href="#i"/>
<use x="163.439453" xlink:href="#l"/>
<use x="260.851562" xlink:href="#g"/>
<use x="288.634766" xlink:href="#f"/>
<use x="352.013672" xlink:href="#h"/>
<use x="413.292969" xlink:href="#j"/>
</g>
</g>
<path d="m727.93 803.94v35.285q0 2.4 2.4 2.4h7.7425q2.4 0 2.4-2.4v-35.285q0-2.4-2.4-2.4h-7.7425q-2.4 0-2.4 2.4z" clip-path="url(#a)" fill="#fff" stroke="#fff"/>
<g clip-path="url(#a)">
<g transform="translate(731.99 803.94) rotate(90) scale(.08 -.08)">
<use xlink:href="#k"/>
<use x="60.818359" xlink:href="#d"/>
<use x="122.341797" xlink:href="#i"/>
<use x="163.439453" xlink:href="#l"/>
<use x="260.851562" xlink:href="#g"/>
<use x="288.634766" xlink:href="#f"/>
<use x="352.013672" xlink:href="#h"/>
<use x="413.292969" xlink:href="#j"/>
</g>
</g>
<path d="m771.49 803.94v35.285q0 2.4 2.4 2.4h7.7425q2.4 0 2.4-2.4v-35.285q0-2.4-2.4-2.4h-7.7425q-2.4 0-2.4 2.4z" clip-path="url(#a)" fill="#fff" stroke="#fff"/>
<g clip-path="url(#a)">
<g transform="translate(775.55 803.94) rotate(90) scale(.08 -.08)">
<use xlink:href="#k"/>
<use x="60.818359" xlink:href="#d"/>
<use x="122.341797" xlink:href="#i"/>
<use x="163.439453" xlink:href="#l"/>
<use x="260.851562" xlink:href="#g"/>
<use x="288.634766" xlink:href="#f"/>
<use x="352.013672" xlink:href="#h"/>
<use x="413.292969" xlink:href="#j"/>
</g>
</g>
<path d="m510.11 803.94v35.285q0 2.4 2.4 2.4h7.7425q2.4 0 2.4-2.4v-35.285q0-2.4-2.4-2.4h-7.7425q-2.4 0-2.4 2.4z" clip-path="url(#a)" fill="#fff" stroke="#fff"/>
<g clip-path="url(#a)">
<g transform="translate(514.18 803.94) rotate(90) scale(.08 -.08)">
<use xlink:href="#k"/>
<use x="60.818359" xlink:href="#d"/>
<use x="122.341797" xlink:href="#i"/>
<use x="163.439453" xlink:href="#l"/>
<use x="260.851562" xlink:href="#g"/>
<use x="288.634766" xlink:href="#f"/>
<use x="352.013672" xlink:href="#h"/>
<use x="413.292969" xlink:href="#j"/>
</g>
</g>
<path d="m553.68 803.94v35.285q0 2.4 2.4 2.4h7.7425q2.4 0 2.4-2.4v-35.285q0-2.4-2.4-2.4h-7.7425q-2.4 0-2.4 2.4z" clip-path="url(#a)" fill="#fff" stroke="#fff"/>
<g clip-path="url(#a)">
<g transform="translate(557.74 803.94) rotate(90) scale(.08 -.08)">
<use xlink:href="#k"/>
<use x="60.818359" xlink:href="#d"/>
<use x="122.341797" xlink:href="#i"/>
<use x="163.439453" xlink:href="#l"/>
<use x="260.851562" xlink:href="#g"/>
<use x="288.634766" xlink:href="#f"/>
<use x="352.013672" xlink:href="#h"/>
<use x="413.292969" xlink:href="#j"/>
</g>
</g>
<path d="m74.488 803.94v35.285q0 2.4 2.4 2.4h7.7425q2.4 0 2.4-2.4v-35.285q0-2.4-2.4-2.4h-7.7425q-2.4 0-2.4 2.4z" clip-path="url(#a)" fill="#fff" stroke="#fff"/>
<g clip-path="url(#a)">
<g transform="translate(78.552 803.94) rotate(90) scale(.08 -.08)">
<use xlink:href="#k"/>
<use x="60.818359" xlink:href="#d"/>
<use x="122.341797" xlink:href="#i"/>
<use x="163.439453" xlink:href="#l"/>
<use x="260.851562" xlink:href="#g"/>
<use x="288.634766" xlink:href="#f"/>
<use x="352.013672" xlink:href="#h"/>
<use x="413.292969" xlink:href="#j"/>
</g>
</g>
<path d="m141.01 688.25 0.79474-4.9921q0.37733-2.3702-1.9928-2.7475l-7.6462-1.2173q-2.3702-0.37733-2.7475 1.9928l-0.79474 4.9921q-0.37733 2.3702 1.9928 2.7475l7.6462 1.2173q2.3702 0.37733 2.7475-1.9928z" clip-path="url(#a)" fill="#fff" stroke="#fff"/>
<g clip-path="url(#a)">
<g transform="translate(137 687.61) rotate(-80.954) scale(.08 -.08)">
<use xlink:href="#v"/>
</g>
</g>
<path d="m150.36 683 0.87827 5.5168q0.37733 2.3702 2.7475 1.9928l7.6462-1.2173q2.3702-0.37733 1.9928-2.7475l-0.87827-5.5168q-0.37733-2.3702-2.7475-1.9928l-7.6462 1.2173q-2.3702 0.37733-1.9928 2.7475z" clip-path="url(#a)" fill="#fff" stroke="#fff"/>
<g clip-path="url(#a)">
<g transform="translate(154.37 682.36) rotate(80.954) scale(.08 -.08)">
<use xlink:href="#o"/>
</g>
</g>
<path d="m242.52 619.29 1.0133-5.4936q0.43534-2.3602-1.9249-2.7955l-7.6141-1.4044q-2.3602-0.43534-2.7955 1.9249l-1.0133 5.4936q-0.43534 2.3602 1.9249 2.7955l7.6141 1.4044q2.3602 0.43534 2.7955-1.9249z" clip-path="url(#a)" fill="#fff" stroke="#fff"/>
<g clip-path="url(#a)">
<g transform="translate(238.52 618.56) rotate(-79.549) scale(.08 -.08)">
<use xlink:href="#o"/>
</g>
</g>
<path d="m264.83 618.56 0.15765-5.9829q0.063218-2.3992-2.3359-2.4624l-7.7398-0.20394q-2.3992-0.063218-2.4624 2.3359l-0.15765 5.9829q-0.063218 2.3992 2.336 2.4624l7.7398 0.20394q2.3992 0.063218 2.4624-2.3359z" clip-path="url(#a)" fill="#fff" stroke="#fff"/>
<g clip-path="url(#a)">
<defs>
<path id="at" d="m9.8125 72.906h13.281l32.328-60.984v60.984h9.5625v-72.906h-13.281l-32.312 60.984v-60.984h-9.5781z"/>
</defs>
<g transform="translate(260.77 618.46) rotate(-88.491) scale(.08 -.08)">
<use xlink:href="#at"/>
</g>
</g>
<path d="m284.45 546.85 2.1575 5.1528q0.92692 2.2138 3.1407 1.2869l7.1417-2.9903q2.2138-0.92692 1.2869-3.1407l-2.1575-5.1528q-0.92692-2.2138-3.1407-1.2869l-7.1417 2.9903q-2.2138 0.92692-1.2869 3.1407z" clip-path="url(#a)" fill="#fff" stroke="#fff"/>
<g clip-path="url(#a)">
<g transform="translate(288.2 545.28) rotate(67.281) scale(.08 -.08)">
<use xlink:href="#o"/>
</g>
</g>
<path d="m205.18 803.94v35.285q0 2.4 2.4 2.4h7.7425q2.4 0 2.4-2.4v-35.285q0-2.4-2.4-2.4h-7.7425q-2.4 0-2.4 2.4z" clip-path="url(#a)" fill="#fff" stroke="#fff"/>
<g clip-path="url(#a)">
<g transform="translate(209.24 803.94) rotate(90) scale(.08 -.08)">
<use xlink:href="#k"/>
<use x="60.818359" xlink:href="#d"/>
<use x="122.341797" xlink:href="#i"/>
<use x="163.439453" xlink:href="#l"/>
<use x="260.851562" xlink:href="#g"/>
<use x="288.634766" xlink:href="#f"/>
<use x="352.013672" xlink:href="#h"/>
<use x="413.292969" xlink:href="#j"/>
</g>
</g>
<path d="m248.74 803.94v35.285q0 2.4 2.4 2.4h7.7425q2.4 0 2.4-2.4v-35.285q0-2.4-2.4-2.4h-7.7425q-2.4 0-2.4 2.4z" clip-path="url(#a)" fill="#fff" stroke="#fff"/>
<g clip-path="url(#a)">
<g transform="translate(252.8 803.94) rotate(90) scale(.08 -.08)">
<use xlink:href="#k"/>
<use x="60.818359" xlink:href="#d"/>
<use x="122.341797" xlink:href="#i"/>
<use x="163.439453" xlink:href="#l"/>
<use x="260.851562" xlink:href="#g"/>
<use x="288.634766" xlink:href="#f"/>
<use x="352.013672" xlink:href="#h"/>
<use x="413.292969" xlink:href="#j"/>
</g>
</g>
<path d="m315.26 688.25 0.79474-4.9921q0.37733-2.3702-1.9928-2.7475l-7.6462-1.2173q-2.3702-0.37733-2.7475 1.9928l-0.79474 4.9921q-0.37733 2.3702 1.9928 2.7475l7.6462 1.2173q2.3702 0.37733 2.7475-1.9928z" clip-path="url(#a)" fill="#fff" stroke="#fff"/>
<g clip-path="url(#a)">
<g transform="translate(311.25 687.61) rotate(-80.954) scale(.08 -.08)">
<use xlink:href="#v"/>
</g>
</g>
<path d="m324.61 683 0.87827 5.5168q0.37733 2.3702 2.7475 1.9928l7.6462-1.2173q2.3702-0.37733 1.9928-2.7475l-0.87827-5.5168q-0.37733-2.3702-2.7475-1.9928l-7.6462 1.2173q-2.3702 0.37733-1.9928 2.7475z" clip-path="url(#a)" fill="#fff" stroke="#fff"/>
<g clip-path="url(#a)">
<g transform="translate(328.62 682.36) rotate(80.954) scale(.08 -.08)">
<use xlink:href="#o"/>
</g>
</g>
<path d="m292.3 803.94v35.285q0 2.4 2.4 2.4h7.7425q2.4 0 2.4-2.4v-35.285q0-2.4-2.4-2.4h-7.7425q-2.4 0-2.4 2.4z" clip-path="url(#a)" fill="#fff" stroke="#fff"/>
<g clip-path="url(#a)">
<g transform="translate(296.36 803.94) rotate(90) scale(.08 -.08)">
<use xlink:href="#k"/>
<use x="60.818359" xlink:href="#d"/>
<use x="122.341797" xlink:href="#i"/>
<use x="163.439453" xlink:href="#l"/>
<use x="260.851562" xlink:href="#g"/>
<use x="288.634766" xlink:href="#f"/>
<use x="352.013672" xlink:href="#h"/>
<use x="413.292969" xlink:href="#j"/>
</g>
</g>
<path d="m335.86 803.94v35.285q0 2.4 2.4 2.4h7.7425q2.4 0 2.4-2.4v-35.285q0-2.4-2.4-2.4h-7.7425q-2.4 0-2.4 2.4z" clip-path="url(#a)" fill="#fff" stroke="#fff"/>
<g clip-path="url(#a)">
<g transform="translate(339.93 803.94) rotate(90) scale(.08 -.08)">
<use xlink:href="#k"/>
<use x="60.818359" xlink:href="#d"/>
<use x="122.341797" xlink:href="#i"/>
<use x="163.439453" xlink:href="#l"/>
<use x="260.851562" xlink:href="#g"/>
<use x="288.634766" xlink:href="#f"/>
<use x="352.013672" xlink:href="#h"/>
<use x="413.292969" xlink:href="#j"/>
</g>
</g>
<path d="m118.05 803.94v35.285q0 2.4 2.4 2.4h7.7425q2.4 0 2.4-2.4v-35.285q0-2.4-2.4-2.4h-7.7425q-2.4 0-2.4 2.4z" clip-path="url(#a)" fill="#fff" stroke="#fff"/>
<g clip-path="url(#a)">
<g transform="translate(122.11 803.94) rotate(90) scale(.08 -.08)">
<use xlink:href="#k"/>
<use x="60.818359" xlink:href="#d"/>
<use x="122.341797" xlink:href="#i"/>
<use x="163.439453" xlink:href="#l"/>
<use x="260.851562" xlink:href="#g"/>
<use x="288.634766" xlink:href="#f"/>
<use x="352.013672" xlink:href="#h"/>
<use x="413.292969" xlink:href="#j"/>
</g>
</g>
<path d="m161.61 803.94v35.285q0 2.4 2.4 2.4h7.7425q2.4 0 2.4-2.4v-35.285q0-2.4-2.4-2.4h-7.7425q-2.4 0-2.4 2.4z" clip-path="url(#a)" fill="#fff" stroke="#fff"/>
<g clip-path="url(#a)">
<g transform="translate(165.68 803.94) rotate(90) scale(.08 -.08)">
<use xlink:href="#k"/>
<use x="60.818359" xlink:href="#d"/>
<use x="122.341797" xlink:href="#i"/>
<use x="163.439453" xlink:href="#l"/>
<use x="260.851562" xlink:href="#g"/>
<use x="288.634766" xlink:href="#f"/>
<use x="352.013672" xlink:href="#h"/>
<use x="413.292969" xlink:href="#j"/>
</g>
</g>
<path d="m956.4 125.39 8.6614-4.8616q2.0929-1.1747 0.91814-3.2676l-3.7897-6.7516q-1.1747-2.0929-3.2676-0.91814l-8.6614 4.8616q-2.0929 1.1747-0.91814 3.2676l3.7897 6.7516q1.1747 2.0929 3.2676 0.91814z" clip-path="url(#a)" fill="#fff" stroke="#fff"/>
<g clip-path="url(#a)">
<g transform="translate(954.41 121.84) rotate(-29.305) scale(.08 -.08)">
<use xlink:href="#s"/>
<use x="55.744141" xlink:href="#m"/>
</g>
</g>
<path d="m1123 393.98 1.1227 9.9531q0.269 2.3849 2.6539 2.1159l7.6937-0.86781q2.3849-0.269 2.1159-2.6539l-1.1227-9.9531q-0.269-2.3849-2.6539-2.1159l-7.6937 0.86781q-2.3849 0.269-2.1159 2.6539z" clip-path="url(#a)" fill="#fff" stroke="#fff"/>
<g clip-path="url(#a)">
<g transform="translate(1127 393.53) rotate(83.565) scale(.08 -.08)">
<use xlink:href="#s"/>
<use x="55.712891" xlink:href="#af"/>
</g>
</g>
<path d="m1174 119.25 7.7357 6.2301q1.8692 1.5054 3.3746-0.3638l4.8564-6.03q1.5054-1.8692-0.3638-3.3746l-7.7357-6.2301q-1.8692-1.5054-3.3746 0.3638l-4.8564 6.03q-1.5054 1.8692 0.3638 3.3746z" clip-path="url(#a)" fill="#fff" stroke="#fff"/>
<g clip-path="url(#a)">
<g transform="translate(1176.6 116.09) rotate(38.847) scale(.08 -.08)">
<use xlink:href="#s"/>
<use x="55.744141" xlink:href="#m"/>
</g>
</g>
<path d="m988.85 551.57 3.4401-9.407q0.82428-2.254-1.4297-3.0783l-7.2715-2.6592q-2.254-0.82428-3.0783 1.4297l-3.4401 9.407q-0.82428 2.254 1.4297 3.0783l7.2715 2.6592q2.254 0.82428 3.0783-1.4297z" clip-path="url(#a)" fill="#fff" stroke="#fff"/>
<g clip-path="url(#a)">
<g transform="translate(985.04 550.17) rotate(-69.913) scale(.08 -.08)">
<use xlink:href="#s"/>
<use x="55.712891" xlink:href="#af"/>
</g>
</g>
<path d="m1129.2 408.16 7.2829 6.7538q1.7598 1.6319 3.3917-0.12785l5.2647-5.6771q1.6319-1.7598-0.12785-3.3917l-7.2829-6.7538q-1.7598-1.6319-3.3917 0.12785l-5.2647 5.6771q-1.6319 1.7598 0.12785 3.3917z" clip-path="url(#a)" fill="#fff" stroke="#fff"/>
<g clip-path="url(#a)">
<g transform="translate(1132 405.18) rotate(42.841) scale(.08 -.08)">
<use xlink:href="#s"/>
<use x="55.744141" xlink:href="#m"/>
</g>
</g>
<path d="m533.03 404.77 2.693-9.6474q0.64528-2.3116-1.6663-2.9569l-7.4574-2.0817q-2.3116-0.64528-2.9569 1.6663l-2.693 9.6474q-0.64528 2.3116 1.6663 2.9569l7.4574 2.0817q2.3116 0.64528 2.9569-1.6663z" clip-path="url(#a)" fill="#fff" stroke="#fff"/>
<g clip-path="url(#a)">
<g transform="translate(529.11 403.68) rotate(-74.403) scale(.08 -.08)">
<use xlink:href="#s"/>
<use x="55.712891" xlink:href="#af"/>
</g>
</g>
<path d="m718.75 119.53 7.9521 5.9514q1.9215 1.438 3.3595-0.48344l4.6392-6.1988q1.438-1.9215-0.48344-3.3595l-7.9521-5.9514q-1.9215-1.438-3.3595 0.48344l-4.6392 6.1988q-1.438 1.9215 0.48344 3.3595z" clip-path="url(#a)" fill="#fff" stroke="#fff"/>
<g clip-path="url(#a)">
<g transform="translate(721.18 116.28) rotate(36.811) scale(.08 -.08)">
<use xlink:href="#s"/>
<use x="55.744141" xlink:href="#m"/>
</g>
</g>
<path d="m379.43 803.94v35.285q0 2.4 2.4 2.4h7.7425q2.4 0 2.4-2.4v-35.285q0-2.4-2.4-2.4h-7.7425q-2.4 0-2.4 2.4z" clip-path="url(#a)" fill="#fff" stroke="#fff"/>
<g clip-path="url(#a)">
<g transform="translate(383.49 803.94) rotate(90) scale(.08 -.08)">
<use xlink:href="#k"/>
<use x="60.818359" xlink:href="#d"/>
<use x="122.341797" xlink:href="#i"/>
<use x="163.439453" xlink:href="#l"/>
<use x="260.851562" xlink:href="#g"/>
<use x="288.634766" xlink:href="#f"/>
<use x="352.013672" xlink:href="#h"/>
<use x="413.292969" xlink:href="#j"/>
</g>
</g>
<path d="m1120 803.94v35.285q0 2.4 2.4 2.4h7.7425q2.4 0 2.4-2.4v-35.285q0-2.4-2.4-2.4h-7.7425q-2.4 0-2.4 2.4z" clip-path="url(#a)" fill="#fff" stroke="#fff"/>
<g clip-path="url(#a)">
<g transform="translate(1124.1 803.94) rotate(90) scale(.08 -.08)">
<use xlink:href="#k"/>
<use x="60.818359" xlink:href="#d"/>
<use x="122.341797" xlink:href="#i"/>
<use x="163.439453" xlink:href="#l"/>
<use x="260.851562" xlink:href="#g"/>
<use x="288.634766" xlink:href="#f"/>
<use x="352.013672" xlink:href="#h"/>
<use x="413.292969" xlink:href="#j"/>
</g>
</g>
<path d="m1555.6 803.94v35.285q0 2.4 2.4 2.4h7.7425q2.4 0 2.4-2.4v-35.285q0-2.4-2.4-2.4h-7.7425q-2.4 0-2.4 2.4z" clip-path="url(#a)" fill="#fff" stroke="#fff"/>
<g clip-path="url(#a)">
<g transform="translate(1559.7 803.94) rotate(90) scale(.08 -.08)">
<use xlink:href="#k"/>
<use x="60.818359" xlink:href="#d"/>
<use x="122.341797" xlink:href="#i"/>
<use x="163.439453" xlink:href="#l"/>
<use x="260.851562" xlink:href="#g"/>
<use x="288.634766" xlink:href="#f"/>
<use x="352.013672" xlink:href="#h"/>
<use x="413.292969" xlink:href="#j"/>
</g>
</g>
<defs>
<path id="b" d="m0 8.6603c2.2967 0 4.4997-0.9125 6.1237-2.5365 1.624-1.624 2.5365-3.827 2.5365-6.1237s-0.9125-4.4997-2.5365-6.1237c-1.624-1.624-3.827-2.5365-6.1237-2.5365s-4.4997 0.9125-6.1237 2.5365c-1.624 1.624-2.5365 3.827-2.5365 6.1237s0.9125 4.4997 2.5365 6.1237c1.624 1.624 3.827 2.5365 6.1237 2.5365z"/>
</defs>
<g clip-path="url(#a)">
<use x="80.759235" y="889.995044" fill="#ffffff" stroke="#ffffff" xlink:href="#b"/>
</g>
<g clip-path="url(#a)">
<use x="124.321799" y="889.995044" fill="#ffffff" stroke="#ffffff" xlink:href="#b"/>
</g>
<g clip-path="url(#a)">
<use x="167.884363" y="889.995044" fill="#ffffff" stroke="#ffffff" xlink:href="#b"/>
</g>
<g clip-path="url(#a)">
<use x="211.446927" y="889.995044" fill="#ffffff" stroke="#ffffff" xlink:href="#b"/>
</g>
<g clip-path="url(#a)">
<use x="255.00949" y="889.995044" fill="#ffffff" stroke="#ffffff" xlink:href="#b"/>
</g>
<g clip-path="url(#a)">
<use x="298.572054" y="889.995044" fill="#ffffff" stroke="#ffffff" xlink:href="#b"/>
</g>
<g clip-path="url(#a)">
<use x="342.134618" y="889.995044" fill="#ffffff" stroke="#ffffff" xlink:href="#b"/>
</g>
<g clip-path="url(#a)">
<use x="385.697182" y="889.995044" fill="#ffffff" stroke="#ffffff" xlink:href="#b"/>
</g>
<g clip-path="url(#a)">
<use x="429.259746" y="889.995044" fill="#ffffff" stroke="#ffffff" xlink:href="#b"/>
</g>
<g clip-path="url(#a)">
<use x="472.82231" y="889.995044" fill="#ffffff" stroke="#ffffff" xlink:href="#b"/>
</g>
<g clip-path="url(#a)">
<use x="516.384874" y="889.995044" fill="#ffffff" stroke="#ffffff" xlink:href="#b"/>
</g>
<g clip-path="url(#a)">
<use x="559.947438" y="889.995044" fill="#ffffff" stroke="#ffffff" xlink:href="#b"/>
</g>
<g clip-path="url(#a)">
<use x="603.510001" y="889.995044" fill="#ffffff" stroke="#ffffff" xlink:href="#b"/>
</g>
<g clip-path="url(#a)">
<use x="647.072565" y="889.995044" fill="#ffffff" stroke="#ffffff" xlink:href="#b"/>
</g>
<g clip-path="url(#a)">
<use x="690.635129" y="889.995044" fill="#ffffff" stroke="#ffffff" xlink:href="#b"/>
</g>
<g clip-path="url(#a)">
<use x="734.197693" y="889.995044" fill="#ffffff" stroke="#ffffff" xlink:href="#b"/>
</g>
<g clip-path="url(#a)">
<use x="777.760257" y="889.995044" fill="#ffffff" stroke="#ffffff" xlink:href="#b"/>
</g>
<g clip-path="url(#a)">
<use x="821.322821" y="889.995044" fill="#ffffff" stroke="#ffffff" xlink:href="#b"/>
</g>
<g clip-path="url(#a)">
<use x="864.885385" y="889.995044" fill="#ffffff" stroke="#ffffff" xlink:href="#b"/>
</g>
<g clip-path="url(#a)">
<use x="908.447949" y="889.995044" fill="#ffffff" stroke="#ffffff" xlink:href="#b"/>
</g>
<g clip-path="url(#a)">
<use x="952.010512" y="889.995044" fill="#ffffff" stroke="#ffffff" xlink:href="#b"/>
</g>
<g clip-path="url(#a)">
<use x="995.573076" y="889.995044" fill="#ffffff" stroke="#ffffff" xlink:href="#b"/>
</g>
<g clip-path="url(#a)">
<use x="1039.13564" y="889.995044" fill="#ffffff" stroke="#ffffff" xlink:href="#b"/>
</g>
<g clip-path="url(#a)">
<use x="1082.698204" y="889.995044" fill="#ffffff" stroke="#ffffff" xlink:href="#b"/>
</g>
<g clip-path="url(#a)">
<use x="1126.260768" y="889.995044" fill="#ffffff" stroke="#ffffff" xlink:href="#b"/>
</g>
<g clip-path="url(#a)">
<use x="1169.823332" y="889.995044" fill="#ffffff" stroke="#ffffff" xlink:href="#b"/>
</g>
<g clip-path="url(#a)">
<use x="1213.385896" y="889.995044" fill="#ffffff" stroke="#ffffff" xlink:href="#b"/>
</g>
<g clip-path="url(#a)">
<use x="1256.94846" y="889.995044" fill="#ffffff" stroke="#ffffff" xlink:href="#b"/>
</g>
<g clip-path="url(#a)">
<use x="1300.511023" y="889.995044" fill="#ffffff" stroke="#ffffff" xlink:href="#b"/>
</g>
<g clip-path="url(#a)">
<use x="1344.073587" y="889.995044" fill="#ffffff" stroke="#ffffff" xlink:href="#b"/>
</g>
<g clip-path="url(#a)">
<use x="1387.636151" y="889.995044" fill="#ffffff" stroke="#ffffff" xlink:href="#b"/>
</g>
<g clip-path="url(#a)">
<use x="1431.198715" y="889.995044" fill="#ffffff" stroke="#ffffff" xlink:href="#b"/>
</g>
<g clip-path="url(#a)">
<use x="1474.761279" y="889.995044" fill="#ffffff" stroke="#ffffff" xlink:href="#b"/>
</g>
<g clip-path="url(#a)">
<use x="1518.323843" y="889.995044" fill="#ffffff" stroke="#ffffff" xlink:href="#b"/>
</g>
<g clip-path="url(#a)">
<use x="1561.886407" y="889.995044" fill="#ffffff" stroke="#ffffff" xlink:href="#b"/>
</g>
<g clip-path="url(#a)">
<use x="875.305442" y="43.338289" fill="#ffffff" stroke="#ffffff" xlink:href="#b"/>
</g>
<g clip-path="url(#a)">
<use x="545.426583" y="336.246839" fill="#ffffff" stroke="#ffffff" xlink:href="#b"/>
</g>
<g clip-path="url(#a)">
<use x="429.259746" y="753.177429" fill="#ffffff" stroke="#ffffff" xlink:href="#b"/>
</g>
<g clip-path="url(#a)">
<use x="825.55807" y="191.633114" fill="#ffffff" stroke="#ffffff" xlink:href="#b"/>
</g>
<g clip-path="url(#a)">
<use x="908.447949" y="753.177429" fill="#ffffff" stroke="#ffffff" xlink:href="#b"/>
</g>
<g clip-path="url(#a)">
<use x="1213.385896" y="477.638914" fill="#ffffff" stroke="#ffffff" xlink:href="#b"/>
</g>
<g clip-path="url(#a)">
<use x="1169.823332" y="753.177429" fill="#ffffff" stroke="#ffffff" xlink:href="#b"/>
</g>
<g clip-path="url(#a)">
<use x="1273.889457" y="191.633114" fill="#ffffff" stroke="#ffffff" xlink:href="#b"/>
</g>
<g clip-path="url(#a)">
<use x="1213.385896" y="753.177429" fill="#ffffff" stroke="#ffffff" xlink:href="#b"/>
</g>
<g clip-path="url(#a)">
<use x="1256.94846" y="753.177429" fill="#ffffff" stroke="#ffffff" xlink:href="#b"/>
</g>
<g clip-path="url(#a)">
<use x="1351.334015" y="336.246839" fill="#ffffff" stroke="#ffffff" xlink:href="#b"/>
</g>
<g clip-path="url(#a)">
<use x="1300.511023" y="753.177429" fill="#ffffff" stroke="#ffffff" xlink:href="#b"/>
</g>
<g clip-path="url(#a)">
<use x="1344.073587" y="753.177429" fill="#ffffff" stroke="#ffffff" xlink:href="#b"/>
</g>
<g clip-path="url(#a)">
<use x="1409.417433" y="477.638914" fill="#ffffff" stroke="#ffffff" xlink:href="#b"/>
</g>
<g clip-path="url(#a)">
<use x="1387.636151" y="753.177429" fill="#ffffff" stroke="#ffffff" xlink:href="#b"/>
</g>
<g clip-path="url(#a)">
<use x="1496.542561" y="616.359813" fill="#ffffff" stroke="#ffffff" xlink:href="#b"/>
</g>
<g clip-path="url(#a)">
<use x="1431.198715" y="753.177429" fill="#ffffff" stroke="#ffffff" xlink:href="#b"/>
</g>
<g clip-path="url(#a)">
<use x="1496.542561" y="753.177429" fill="#ffffff" stroke="#ffffff" xlink:href="#b"/>
</g>
<g clip-path="url(#a)">
<use x="1649.011534" y="889.995044" fill="#ffffff" stroke="#ffffff" xlink:href="#b"/>
</g>
<g clip-path="url(#a)">
<use x="952.010512" y="753.177429" fill="#ffffff" stroke="#ffffff" xlink:href="#b"/>
</g>
<g clip-path="url(#a)">
<use x="1039.13564" y="616.359813" fill="#ffffff" stroke="#ffffff" xlink:href="#b"/>
</g>
<g clip-path="url(#a)">
<use x="995.573076" y="753.177429" fill="#ffffff" stroke="#ffffff" xlink:href="#b"/>
</g>
<g clip-path="url(#a)">
<use x="1039.13564" y="753.177429" fill="#ffffff" stroke="#ffffff" xlink:href="#b"/>
</g>
<g clip-path="url(#a)">
<use x="1082.698204" y="753.177429" fill="#ffffff" stroke="#ffffff" xlink:href="#b"/>
</g>
<g clip-path="url(#a)">
<use x="1605.448971" y="889.995044" fill="#ffffff" stroke="#ffffff" xlink:href="#b"/>
</g>
<g clip-path="url(#a)">
<use x="472.82231" y="753.177429" fill="#ffffff" stroke="#ffffff" xlink:href="#b"/>
</g>
<g clip-path="url(#a)">
<use x="538.166156" y="616.359813" fill="#ffffff" stroke="#ffffff" xlink:href="#b"/>
</g>
<g clip-path="url(#a)">
<use x="685.794844" y="336.246839" fill="#ffffff" stroke="#ffffff" xlink:href="#b"/>
</g>
<g clip-path="url(#a)">
<use x="603.510001" y="753.177429" fill="#ffffff" stroke="#ffffff" xlink:href="#b"/>
</g>
<g clip-path="url(#a)">
<use x="647.072565" y="753.177429" fill="#ffffff" stroke="#ffffff" xlink:href="#b"/>
</g>
<g clip-path="url(#a)">
<use x="806.801966" y="477.638914" fill="#ffffff" stroke="#ffffff" xlink:href="#b"/>
</g>
<g clip-path="url(#a)">
<use x="734.197693" y="616.359813" fill="#ffffff" stroke="#ffffff" xlink:href="#b"/>
</g>
<g clip-path="url(#a)">
<use x="821.322821" y="753.177429" fill="#ffffff" stroke="#ffffff" xlink:href="#b"/>
</g>
<g clip-path="url(#a)">
<use x="864.885385" y="753.177429" fill="#ffffff" stroke="#ffffff" xlink:href="#b"/>
</g>
<g clip-path="url(#a)">
<use x="690.635129" y="753.177429" fill="#ffffff" stroke="#ffffff" xlink:href="#b"/>
</g>
<g clip-path="url(#a)">
<use x="734.197693" y="753.177429" fill="#ffffff" stroke="#ffffff" xlink:href="#b"/>
</g>
<g clip-path="url(#a)">
<use x="777.760257" y="753.177429" fill="#ffffff" stroke="#ffffff" xlink:href="#b"/>
</g>
<g clip-path="url(#a)">
<use x="516.384874" y="753.177429" fill="#ffffff" stroke="#ffffff" xlink:href="#b"/>
</g>
<g clip-path="url(#a)">
<use x="559.947438" y="753.177429" fill="#ffffff" stroke="#ffffff" xlink:href="#b"/>
</g>
<g clip-path="url(#a)">
<use x="1692.574098" y="889.995044" fill="#ffffff" stroke="#ffffff" xlink:href="#b"/>
</g>
<g clip-path="url(#a)">
<use x="80.759235" y="753.177429" fill="#ffffff" stroke="#ffffff" xlink:href="#b"/>
</g>
<g clip-path="url(#a)">
<use x="146.103081" y="616.359813" fill="#ffffff" stroke="#ffffff" xlink:href="#b"/>
</g>
<g clip-path="url(#a)">
<use x="262.269918" y="477.638914" fill="#ffffff" stroke="#ffffff" xlink:href="#b"/>
</g>
<g clip-path="url(#a)">
<use x="211.446927" y="753.177429" fill="#ffffff" stroke="#ffffff" xlink:href="#b"/>
</g>
<g clip-path="url(#a)">
<use x="255.00949" y="753.177429" fill="#ffffff" stroke="#ffffff" xlink:href="#b"/>
</g>
<g clip-path="url(#a)">
<use x="320.353336" y="616.359813" fill="#ffffff" stroke="#ffffff" xlink:href="#b"/>
</g>
<g clip-path="url(#a)">
<use x="298.572054" y="753.177429" fill="#ffffff" stroke="#ffffff" xlink:href="#b"/>
</g>
<g clip-path="url(#a)">
<use x="342.134618" y="753.177429" fill="#ffffff" stroke="#ffffff" xlink:href="#b"/>
</g>
<g clip-path="url(#a)">
<use x="124.321799" y="753.177429" fill="#ffffff" stroke="#ffffff" xlink:href="#b"/>
</g>
<g clip-path="url(#a)">
<use x="167.884363" y="753.177429" fill="#ffffff" stroke="#ffffff" xlink:href="#b"/>
</g>
<g clip-path="url(#a)">
<use x="1089.756953" y="43.338289" fill="#808080" stroke="#808080" xlink:href="#b"/>
</g>
<g clip-path="url(#a)">
<use x="1060.916922" y="336.246839" fill="#808080" stroke="#808080" xlink:href="#b"/>
</g>
<g clip-path="url(#a)">
<use x="627.408908" y="43.338289" fill="#808080" stroke="#808080" xlink:href="#b"/>
</g>
<g clip-path="url(#a)">
<use x="385.697182" y="753.177429" fill="#ffffff" stroke="#ffffff" xlink:href="#b"/>
</g>
<g clip-path="url(#a)">
<use x="1126.260768" y="753.177429" fill="#ffffff" stroke="#ffffff" xlink:href="#b"/>
</g>
<g clip-path="url(#a)">
<use x="1561.886407" y="753.177429" fill="#ffffff" stroke="#ffffff" xlink:href="#b"/>
</g>
<g clip-path="url(#a)">
<defs>
<path id="x" d="m9.8125 72.906h9.8594v-72.906h-9.8594z"/>
<path id="al" d="m48.781 52.594v-8.4062q-3.8125 2.1094-7.6406 3.1562t-7.7344 1.0469q-8.75 0-13.594-5.5469-4.8281-5.5312-4.8281-15.547t4.8281-15.562q4.8438-5.5312 13.594-5.5312 3.9062 0 7.7344 1.0469t7.6406 3.1562v-8.3125q-3.7656-1.75-7.7969-2.625-4.0156-0.89062-8.5625-0.89062-12.359 0-19.641 7.7656-7.2656 7.7656-7.2656 20.953 0 13.375 7.3438 21.031 7.3594 7.6719 20.156 7.6719 4.1406 0 8.0938-0.85938 3.9531-0.84375 7.6719-2.5469z"/>
<path id="w" d="m44.281 53.078v-8.5q-3.7969 1.9531-7.9062 2.9219-4.0938 0.98438-8.5 0.98438-6.6875 0-10.031-2.0469t-3.3438-6.1562q0-3.125 2.3906-4.9062t9.625-3.3906l3.0781-0.6875q9.5625-2.0469 13.594-5.7812t4.0312-10.422q0-7.625-6.0312-12.078-6.0312-4.4375-16.578-4.4375-4.3906 0-9.1562 0.85938t-10.031 2.5625v9.2812q4.9844-2.5938 9.8125-3.8906 4.8281-1.2812 9.5781-1.2812 6.3438 0 9.75 2.1719 3.4219 2.1719 3.4219 6.125 0 3.6562-2.4688 5.6094-2.4531 1.9531-10.812 3.7656l-3.125 0.73438q-8.3438 1.75-12.062 5.3906-3.7031 3.6406-3.7031 9.9844 0 7.7188 5.4688 11.906 5.4688 4.2031 15.531 4.2031 4.9688 0 9.3594-0.73438 4.4062-0.71875 8.1094-2.1875z"/>
</defs>
<g transform="translate(59.49 892.75) scale(.1 -.1)">
<use xlink:href="#x"/>
<use x="29.492188" xlink:href="#f"/>
<use x="92.871094" xlink:href="#al"/>
<use x="147.851562" xlink:href="#i"/>
<use x="188.933594" xlink:href="#d"/>
<use x="250.457031" xlink:href="#h"/>
<use x="311.736328" xlink:href="#w"/>
<use x="363.835938" xlink:href="#d"/>
</g>
</g>
<g clip-path="url(#a)">
<defs>
<path id="u" d="m18.312 70.219v-15.531h18.5v-6.9844h-18.5v-29.688q0-6.6875 1.8281-8.5938t7.4531-1.9062h9.2188v-7.5156h-9.2188q-10.406 0-14.359 3.875-3.9531 3.8906-3.9531 14.141v29.688h-6.5938v6.9844h6.5938v15.531z"/>
</defs>
<g transform="translate(118.37 892.75) scale(.1 -.1)">
<use xlink:href="#g"/>
<use x="27.783203" xlink:href="#u"/>
<use x="66.992188" xlink:href="#w"/>
</g>
</g>
<g clip-path="url(#a)">
<defs>
<path id="ak" d="m45.406 46.391v29.594h8.9844v-75.984h-8.9844v8.2031q-2.8281-4.875-7.1562-7.25-4.3125-2.375-10.375-2.375-9.9062 0-16.141 7.9062-6.2188 7.9219-6.2188 20.812t6.2188 20.797q6.2344 7.9062 16.141 7.9062 6.0625 0 10.375-2.375 4.3281-2.3594 7.1562-7.2344zm-30.609-19.094q0-9.9062 4.0781-15.547t11.203-5.6406 11.219 5.6406q4.1094 5.6406 4.1094 15.547t-4.1094 15.547q-4.0938 5.6406-11.219 5.6406t-11.203-5.6406-4.0781-15.547z"/>
<path id="r" d="m30.609 48.391q-7.2188 0-11.422-5.6406t-4.2031-15.453 4.1719-15.453q4.1875-5.6406 11.453-5.6406 7.1875 0 11.375 5.6562 4.2031 5.6719 4.2031 15.438 0 9.7188-4.2031 15.406-4.1875 5.6875-11.375 5.6875zm0 7.6094q11.719 0 18.406-7.625 6.7031-7.6094 6.7031-21.078 0-13.422-6.7031-21.078-6.6875-7.6406-18.406-7.6406-11.766 0-18.438 7.6406-6.6562 7.6562-6.6562 21.078 0 13.469 6.6562 21.078 6.6719 7.625 18.438 7.625z"/>
</defs>
<g transform="translate(139.38 892.75) scale(.1 -.1)">
<use xlink:href="#ak"/>
<use x="63.476562" xlink:href="#g"/>
<use x="91.259766" xlink:href="#l"/>
<use x="188.671875" xlink:href="#d"/>
<use x="250.195312" xlink:href="#f"/>
<use x="313.574219" xlink:href="#w"/>
<use x="365.673828" xlink:href="#g"/>
<use x="393.457031" xlink:href="#r"/>
<use x="454.638672" xlink:href="#f"/>
<use x="518.017578" xlink:href="#w"/>
</g>
</g>
<g clip-path="url(#a)">
<defs>
<path id="ae" d="m37.109 75.984v-7.4844h-8.5938q-4.8281 0-6.7188-1.9531-1.875-1.9531-1.875-7.0312v-4.8281h14.797v-6.9844h-14.797v-47.703h-9.0312v47.703h-8.5938v6.9844h8.5938v3.8125q0 9.125 4.25 13.297 4.25 4.1875 13.469 4.1875z"/>
<path id="ag" d="m2.9844 54.688h9.5156l17.094-45.891 17.094 45.891h9.5156l-20.516-54.688h-12.203z"/>
</defs>
<g transform="translate(192.88 892.75) scale(.1 -.1)">
<use xlink:href="#ae"/>
<use x="35.205078" xlink:href="#g"/>
<use x="62.988281" xlink:href="#ag"/>
<use x="122.167969" xlink:href="#d"/>
<use x="183.691406" xlink:href="#ae"/>
<use x="218.896484" xlink:href="#r"/>
<use x="280.078125" xlink:href="#j"/>
<use x="307.861328" xlink:href="#ak"/>
</g>
</g>
<g clip-path="url(#a)">
<g transform="translate(249.89 892.75) scale(.1 -.1)">
<use xlink:href="#r"/>
<use x="61.181641" xlink:href="#i"/>
</g>
</g>
<g clip-path="url(#a)">
<g transform="translate(286.29 892.75) scale(.1 -.1)">
<use xlink:href="#d"/>
<use x="61.523438" xlink:href="#ag"/>
<use x="120.703125" xlink:href="#d"/>
<use x="182.226562" xlink:href="#f"/>
</g>
</g>
<g clip-path="url(#a)">
<g transform="translate(324.55 892.75) scale(.1 -.1)">
<use xlink:href="#u"/>
<use x="39.208984" xlink:href="#d"/>
<use x="100.732422" xlink:href="#f"/>
<use x="164.111328" xlink:href="#ae"/>
<use x="199.316406" xlink:href="#r"/>
<use x="260.498047" xlink:href="#j"/>
<use x="288.28125" xlink:href="#ak"/>
</g>
</g>
<g clip-path="url(#a)">
<defs>
<path id="aq" d="m11.719 12.406h10.297v-8.4062l-8-15.625h-6.2969l4 15.625z"/>
</defs>
<g transform="translate(384.11 892.75) scale(.1 -.1)">
<use xlink:href="#aq"/>
</g>
</g>
<g clip-path="url(#a)">
<defs>
<path id="ad" d="m54.891 33.016v-33.016h-8.9844v32.719q0 7.7656-3.0312 11.609-3.0312 3.8594-9.0781 3.8594-7.2812 0-11.484-4.6406-4.2031-4.625-4.2031-12.641v-30.906h-9.0312v75.984h9.0312v-29.797q3.2344 4.9375 7.5938 7.375 4.375 2.4375 10.094 2.4375 9.4219 0 14.25-5.8281 4.8438-5.8281 4.8438-17.156z"/>
</defs>
<g transform="translate(417.89 892.75) scale(.1 -.1)">
<use xlink:href="#u"/>
<use x="39.208984" xlink:href="#ad"/>
<use x="102.587891" xlink:href="#d"/>
<use x="164.111328" xlink:href="#f"/>
</g>
</g>
<g clip-path="url(#a)">
<defs>
<path id="ah" d="m45.406 27.984q0 9.7656-4.0312 15.125-4.0156 5.375-11.297 5.375-7.2188 0-11.25-5.375-4.0312-5.3594-4.0312-15.125 0-9.7188 4.0312-15.094t11.25-5.375q7.2812 0 11.297 5.375 4.0312 5.375 4.0312 15.094zm8.9844-21.203q0-13.953-6.2031-20.766-6.1875-6.8125-18.984-6.8125-4.7344 0-8.9375 0.70312t-8.1562 2.1719v8.7344q3.9531-2.1406 7.8125-3.1562 3.8594-1.0312 7.8594-1.0312 8.8438 0 13.234 4.6094t4.3906 13.938v4.4531q-2.7812-4.8438-7.125-7.2344t-10.406-2.3906q-10.047 0-16.203 7.6562-6.1562 7.6719-6.1562 20.328 0 12.688 6.1562 20.344 6.1562 7.6719 16.203 7.6719 6.0625 0 10.406-2.3906t7.125-7.2188v8.2969h8.9844z"/>
</defs>
<g transform="translate(462.22 892.75) scale(.1 -.1)">
<use xlink:href="#ah"/>
<use x="63.476562" xlink:href="#g"/>
<use x="91.259766" xlink:href="#ag"/>
<use x="150.439453" xlink:href="#d"/>
</g>
</g>
<g clip-path="url(#a)">
<g transform="translate(507.26 892.75) scale(.1 -.1)">
<use xlink:href="#u"/>
<use x="39.208984" xlink:href="#ad"/>
<use x="102.587891" xlink:href="#g"/>
<use x="130.371094" xlink:href="#w"/>
</g>
</g>
<g clip-path="url(#a)">
<g transform="translate(537.04 892.75) scale(.1 -.1)">
<use xlink:href="#al"/>
<use x="54.980469" xlink:href="#d"/>
<use x="116.503906" xlink:href="#u"/>
<use x="155.712891" xlink:href="#h"/>
<use x="216.992188" xlink:href="#al"/>
<use x="271.972656" xlink:href="#d"/>
<use x="333.496094" xlink:href="#h"/>
<use x="394.775391" xlink:href="#f"/>
</g>
</g>
<g clip-path="url(#a)">
<g transform="translate(600.45 892.75) scale(.1 -.1)">
<use xlink:href="#h"/>
</g>
</g>
<g clip-path="url(#a)">
<g transform="translate(625.91 892.75) scale(.1 -.1)">
<use xlink:href="#w"/>
<use x="52.099609" xlink:href="#u"/>
<use x="91.308594" xlink:href="#i"/>
<use x="132.390625" xlink:href="#d"/>
<use x="193.914062" xlink:href="#f"/>
<use x="257.292969" xlink:href="#ah"/>
<use x="320.769531" xlink:href="#u"/>
<use x="359.978516" xlink:href="#ad"/>
</g>
</g>
<g clip-path="url(#a)">
<g transform="translate(686.08 892.75) scale(.1 -.1)">
<use xlink:href="#g"/>
<use x="27.783203" xlink:href="#f"/>
</g>
</g>
<g clip-path="url(#a)">
<defs>
<path id="ap" d="m18.109 8.2031v-29h-9.0312v75.484h9.0312v-8.2969q2.8438 4.875 7.1562 7.2344 4.3281 2.375 10.328 2.375 9.9688 0 16.188-7.9062 6.2344-7.9062 6.2344-20.797t-6.2344-20.812q-6.2188-7.9062-16.188-7.9062-6 0-10.328 2.375-4.3125 2.375-7.1562 7.25zm30.578 19.094q0 9.9062-4.0781 15.547t-11.203 5.6406q-7.1406 0-11.219-5.6406t-4.0781-15.547 4.0781-15.547 11.219-5.6406q7.125 0 11.203 5.6406t4.0781 15.547z"/>
</defs>
<g transform="translate(708.04 892.75) scale(.1 -.1)">
<use xlink:href="#ap"/>
<use x="63.476562" xlink:href="#i"/>
<use x="104.558594" xlink:href="#r"/>
<use x="165.740234" xlink:href="#ap"/>
<use x="229.216797" xlink:href="#r"/>
<use x="290.398438" xlink:href="#i"/>
<use x="331.511719" xlink:href="#u"/>
<use x="370.720703" xlink:href="#g"/>
<use x="398.503906" xlink:href="#r"/>
<use x="459.685547" xlink:href="#f"/>
</g>
</g>
<g clip-path="url(#a)">
<g transform="translate(772.74 892.75) scale(.1 -.1)">
<use xlink:href="#u"/>
<use x="39.208984" xlink:href="#r"/>
</g>
</g>
<g clip-path="url(#a)">
<g transform="translate(815.37 892.75) scale(.1 -.1)">
<use xlink:href="#g"/>
<use x="27.783203" xlink:href="#u"/>
<use x="66.992188" xlink:href="#w"/>
</g>
</g>
<g clip-path="url(#a)">
<defs>
<path id="av" d="m5.5156 54.688h42.672v-8.2031l-33.781-39.312h33.781v-7.1719h-43.891v8.2031l33.797 39.312h-32.578z"/>
</defs>
<g transform="translate(855.19 892.75) scale(.1 -.1)">
<use xlink:href="#w"/>
<use x="52.099609" xlink:href="#g"/>
<use x="79.882812" xlink:href="#av"/>
<use x="132.373047" xlink:href="#d"/>
</g>
</g>
<g clip-path="url(#a)">
<defs>
<path id="ao" d="m4.2031 54.688h8.9844l11.234-42.672 11.172 42.672h10.594l11.234-42.672 11.188 42.672h8.9844l-14.312-54.688h-10.594l-11.766 44.828-11.812-44.828h-10.609z"/>
</defs>
<g transform="translate(895.34 892.75) scale(.1 -.1)">
<use xlink:href="#ao"/>
<use x="81.787109" xlink:href="#ad"/>
<use x="145.166016" xlink:href="#g"/>
<use x="172.949219" xlink:href="#j"/>
<use x="200.732422" xlink:href="#d"/>
</g>
</g>
<g clip-path="url(#a)">
<g transform="translate(928.35 892.75) scale(.1 -.1)">
<use xlink:href="#d"/>
<use x="61.523438" xlink:href="#f"/>
<use x="124.902344" xlink:href="#j"/>
<use x="152.685547" xlink:href="#h"/>
<use x="213.964844" xlink:href="#i"/>
<use x="255.0625" xlink:href="#ah"/>
<use x="318.539062" xlink:href="#g"/>
<use x="346.322266" xlink:href="#f"/>
<use x="409.701172" xlink:href="#ah"/>
</g>
</g>
<g clip-path="url(#a)">
<g transform="translate(989.62 892.75) scale(.1 -.1)">
<use xlink:href="#g"/>
<use x="27.783203" xlink:href="#u"/>
<use x="66.992188" xlink:href="#w"/>
</g>
</g>
<g clip-path="url(#a)">
<g transform="translate(1016.3 892.75) scale(.1 -.1)">
<use xlink:href="#r"/>
<use x="61.181641" xlink:href="#ae"/>
<use x="96.386719" xlink:href="#ae"/>
<use x="131.591797" xlink:href="#d"/>
<use x="193.115234" xlink:href="#f"/>
<use x="256.494141" xlink:href="#w"/>
<use x="308.59375" xlink:href="#g"/>
<use x="336.376953" xlink:href="#ag"/>
<use x="395.556641" xlink:href="#d"/>
</g>
</g>
<g clip-path="url(#a)">
<g transform="translate(1060.5 892.75) scale(.1 -.1)">
<use xlink:href="#ao"/>
<use x="81.787109" xlink:href="#d"/>
<use x="143.310547" xlink:href="#h"/>
<use x="204.589844" xlink:href="#ap"/>
<use x="268.066406" xlink:href="#r"/>
<use x="329.248047" xlink:href="#f"/>
<use x="392.626953" xlink:href="#w"/>
</g>
</g>
<g clip-path="url(#a)">
<g transform="translate(1124.7 892.75) scale(.1 -.1)">
<use xlink:href="#aq"/>
</g>
</g>
<g clip-path="url(#a)">
<g transform="translate(1160.4 892.75) scale(.1 -.1)">
<use xlink:href="#h"/>
<use x="61.279297" xlink:href="#f"/>
<use x="124.658203" xlink:href="#ak"/>
</g>
</g>
<g clip-path="url(#a)">
<defs>
<path id="aw" d="m32.172-5.0781q-3.7969-9.7656-7.4219-12.734-3.6094-2.9844-9.6562-2.9844h-7.1875v7.5156h5.2812q3.7031 0 5.75 1.7656 2.0625 1.75 4.5469 8.2969l1.6094 4.0938-22.109 53.812h9.5156l17.094-42.766 17.094 42.766h9.5156z"/>
<path id="ax" d="m8.5 21.578v33.109h8.9844v-32.766q0-7.7656 3.0156-11.656 3.0312-3.875 9.0938-3.875 7.2656 0 11.484 4.6406 4.2344 4.6406 4.2344 12.656v31h8.9844v-54.688h-8.9844v8.4062q-3.2656-4.9844-7.5938-7.4062-4.3125-2.4219-10.031-2.4219-9.4219 0-14.312 5.8594-4.875 5.8594-4.875 17.141z"/>
</defs>
<g transform="translate(1204.2 892.75) scale(.1 -.1)">
<use xlink:href="#aw"/>
<use x="59.179688" xlink:href="#r"/>
<use x="120.361328" xlink:href="#ax"/>
</g>
</g>
<g clip-path="url(#a)">
<g transform="translate(1244.7 892.75) scale(.1 -.1)">
<use xlink:href="#ad"/>
<use x="63.378906" xlink:href="#h"/>
<use x="124.658203" xlink:href="#ag"/>
<use x="183.837891" xlink:href="#d"/>
</g>
</g>
<g clip-path="url(#a)">
<g transform="translate(1292.3 892.75) scale(.1 -.1)">
<use xlink:href="#u"/>
<use x="39.208984" xlink:href="#ad"/>
<use x="102.587891" xlink:href="#d"/>
</g>
</g>
<g clip-path="url(#a)">
<g transform="translate(1327.1 892.75) scale(.1 -.1)">
<use xlink:href="#h"/>
<use x="61.279297" xlink:href="#f"/>
<use x="124.658203" xlink:href="#g"/>
<use x="152.441406" xlink:href="#l"/>
<use x="249.853516" xlink:href="#h"/>
<use x="311.132812" xlink:href="#j"/>
</g>
</g>
<g clip-path="url(#a)">
<g transform="translate(1380.5 892.75) scale(.1 -.1)">
<use xlink:href="#ao"/>
<use x="81.787109" xlink:href="#d"/>
</g>
</g>
<g clip-path="url(#a)">
<defs>
<path id="as" d="m12.703 72.906h10.297v-7.4219l-8.0156-15.578h-6.2969l4.0156 15.578z"/>
</defs>
<g transform="translate(1424.5 892.75) scale(.1 -.1)">
<use xlink:href="#as"/>
<use x="31.787109" xlink:href="#i"/>
<use x="72.869141" xlink:href="#d"/>
</g>
</g>
<g clip-path="url(#a)">
<defs>
<path id="ay" d="m9.0781 75.984h9.0312v-44.875l26.812 23.578h11.469l-29-25.578 30.234-29.109h-11.719l-27.797 26.703v-26.703h-9.0312z"/>
</defs>
<g transform="translate(1456.6 892.75) scale(.1 -.1)">
<use xlink:href="#j"/>
<use x="27.783203" xlink:href="#r"/>
<use x="88.964844" xlink:href="#r"/>
<use x="150.146484" xlink:href="#ay"/>
<use x="208.056641" xlink:href="#g"/>
<use x="235.839844" xlink:href="#f"/>
<use x="299.21875" xlink:href="#ah"/>
</g>
</g>
<g clip-path="url(#a)">
<g transform="translate(1511.4 892.75) scale(.1 -.1)">
<use xlink:href="#ae"/>
<use x="35.205078" xlink:href="#r"/>
<use x="96.386719" xlink:href="#i"/>
</g>
</g>
<g clip-path="url(#a)">
<defs>
<path id="e" d="m10.688 12.406h10.312v-12.406h-10.312z"/>
</defs>
<g transform="translate(1560.3 892.75) scale(.1 -.1)">
<use xlink:href="#e"/>
</g>
</g>
<g clip-path="url(#a)">
<defs>
<path id="c" d="m12.406 8.2969h16.109v55.625l-17.531-3.5156v8.9844l17.438 3.5156h9.8594v-64.609h16.109v-8.2969h-41.984z"/>
</defs>
<g transform="translate(867.35 46.098) scale(.1 -.1)">
<use xlink:href="#c"/>
<use x="63.623047" xlink:href="#e"/>
<use x="95.410156" xlink:href="#c"/>
</g>
</g>
<g clip-path="url(#a)">
<defs>
<path id="t" d="m19.188 8.2969h34.422v-8.2969h-46.281v8.2969q5.6094 5.8125 15.297 15.594 9.7031 9.7969 12.188 12.641 4.7344 5.3125 6.6094 9 1.8906 3.6875 1.8906 7.25 0 5.8125-4.0781 9.4688-4.0781 3.6719-10.625 3.6719-4.6406 0-9.7969-1.6094-5.1406-1.6094-11-4.8906v9.9688q5.9531 2.3906 11.125 3.6094 5.1875 1.2188 9.4844 1.2188 11.328 0 18.062-5.6719 6.7344-5.6562 6.7344-15.125 0-4.5-1.6875-8.5312-1.6719-4.0156-6.125-9.4844-1.2188-1.4219-7.7656-8.1875-6.5312-6.7656-18.453-18.922z"/>
</defs>
<g transform="translate(537.48 339.01) scale(.1 -.1)">
<use xlink:href="#c"/>
<use x="63.623047" xlink:href="#e"/>
<use x="95.410156" xlink:href="#t"/>
</g>
</g>
<g clip-path="url(#a)">
<defs>
<path id="p" d="m37.797 64.312-24.906-38.922h24.906zm-2.5938 8.5938h12.406v-47.516h10.406v-8.2031h-10.406v-17.188h-9.8125v17.188h-32.906v9.5156z"/>
</defs>
<g transform="translate(421.31 755.94) scale(.1 -.1)">
<use xlink:href="#c"/>
<use x="63.623047" xlink:href="#e"/>
<use x="95.410156" xlink:href="#p"/>
</g>
</g>
<g clip-path="url(#a)">
<defs>
<path id="n" d="m10.797 72.906h38.719v-8.3125h-29.688v-17.859q2.1406 0.73438 4.2812 1.0938 2.1562 0.35938 4.3125 0.35938 12.203 0 19.328-6.6875 7.1406-6.6875 7.1406-18.109 0-11.766-7.3281-18.297-7.3281-6.5156-20.656-6.5156-4.5938 0-9.3594 0.78125-4.75 0.78125-9.8281 2.3438v9.9219q4.3906-2.3906 9.0781-3.5625t9.9062-1.1719q8.4531 0 13.375 4.4375 4.9375 4.4375 4.9375 12.062 0 7.6094-4.9375 12.047-4.9219 4.4531-13.375 4.4531-3.9531 0-7.8906-0.875-3.9219-0.875-8.0156-2.7344z"/>
</defs>
<g transform="translate(817.61 194.39) scale(.1 -.1)">
<use xlink:href="#c"/>
<use x="63.623047" xlink:href="#e"/>
<use x="95.410156" xlink:href="#n"/>
</g>
</g>
<g clip-path="url(#a)">
<defs>
<path id="ab" d="m33.016 40.375q-6.6406 0-10.531-4.5469-3.875-4.5312-3.875-12.438 0-7.8594 3.875-12.438 3.8906-4.5625 10.531-4.5625t10.516 4.5625q3.875 4.5781 3.875 12.438 0 7.9062-3.875 12.438-3.875 4.5469-10.516 4.5469zm19.578 30.922v-8.9844q-3.7188 1.75-7.5 2.6719-3.7812 0.9375-7.5 0.9375-9.7656 0-14.922-6.5938-5.1406-6.5938-5.875-19.922 2.875 4.25 7.2188 6.5156 4.3594 2.2656 9.5781 2.2656 10.984 0 17.359-6.6719 6.375-6.6562 6.375-18.125 0-11.234-6.6406-18.031-6.6406-6.7812-17.672-6.7812-12.656 0-19.344 9.6875-6.6875 9.7031-6.6875 28.109 0 17.281 8.2031 27.562t22.016 10.281q3.7188 0 7.5-0.73438t7.8906-2.1875z"/>
</defs>
<g transform="translate(900.5 755.94) scale(.1 -.1)">
<use xlink:href="#c"/>
<use x="63.623047" xlink:href="#e"/>
<use x="95.410156" xlink:href="#ab"/>
</g>
</g>
<g clip-path="url(#a)">
<defs>
<path id="aa" d="m8.2031 72.906h46.875v-4.2031l-26.469-68.703h-10.297l24.906 64.594h-35.016z"/>
</defs>
<g transform="translate(1205.4 480.4) scale(.1 -.1)">
<use xlink:href="#c"/>
<use x="63.623047" xlink:href="#e"/>
<use x="95.410156" xlink:href="#aa"/>
</g>
</g>
<g clip-path="url(#a)">
<defs>
<path id="z" d="m10.984 1.5156v8.9844q3.7188-1.7656 7.5156-2.6875 3.8125-0.92188 7.4844-0.92188 9.7656 0 14.906 6.5625 5.1562 6.5625 5.8906 19.953-2.8281-4.2031-7.1875-6.4531-4.3438-2.25-9.6094-2.25-10.938 0-17.312 6.6094-6.375 6.625-6.375 18.109 0 11.219 6.6406 18 6.6406 6.7969 17.672 6.7969 12.656 0 19.312-9.7031 6.6719-9.6875 6.6719-28.141 0-17.234-8.1875-27.516-8.1719-10.281-21.984-10.281-3.7188 0-7.5312 0.73438-3.7969 0.73438-7.9062 2.2031zm19.625 30.906q6.6406 0 10.516 4.5312 3.8906 4.5469 3.8906 12.469 0 7.8594-3.8906 12.422-3.875 4.5625-10.516 4.5625t-10.516-4.5625-3.875-12.422q0-7.9219 3.875-12.469 3.875-4.5312 10.516-4.5312z"/>
</defs>
<g transform="translate(1161.9 755.94) scale(.1 -.1)">
<use xlink:href="#c"/>
<use x="63.623047" xlink:href="#e"/>
<use x="95.410156" xlink:href="#z"/>
</g>
</g>
<g clip-path="url(#a)">
<defs>
<path id="ac" d="m31.781 66.406q-7.6094 0-11.453-7.5-3.8281-7.4844-3.8281-22.531 0-14.984 3.8281-22.484 3.8438-7.5 11.453-7.5 7.6719 0 11.5 7.5 3.8438 7.5 3.8438 22.484 0 15.047-3.8438 22.531-3.8281 7.5-11.5 7.5zm0 7.8125q12.266 0 18.734-9.7031 6.4688-9.6875 6.4688-28.141 0-18.406-6.4688-28.109-6.4688-9.6875-18.734-9.6875-12.25 0-18.719 9.6875-6.4688 9.7031-6.4688 28.109 0 18.453 6.4688 28.141 6.4688 9.7031 18.719 9.7031z"/>
</defs>
<g transform="translate(1262.8 194.39) scale(.1 -.1)">
<use xlink:href="#c"/>
<use x="63.623047" xlink:href="#e"/>
<use x="95.410156" xlink:href="#c"/>
<use x="159.033203" xlink:href="#ac"/>
</g>
</g>
<g clip-path="url(#a)">
<g transform="translate(1202.3 755.94) scale(.1 -.1)">
<use xlink:href="#c"/>
<use x="63.623047" xlink:href="#e"/>
<use x="95.410156" xlink:href="#c"/>
<use x="159.033203" xlink:href="#t"/>
</g>
</g>
<g clip-path="url(#a)">
<defs>
<path id="q" d="m40.578 39.312q7.0781-1.5156 11.047-6.3125 3.9844-4.7812 3.9844-11.812 0-10.781-7.4219-16.703-7.4219-5.9062-21.094-5.9062-4.5781 0-9.4375 0.90625t-10.031 2.7188v9.5156q4.0938-2.3906 8.9688-3.6094 4.8906-1.2188 10.219-1.2188 9.2656 0 14.125 3.6562t4.8594 10.641q0 6.4531-4.5156 10.078-4.5156 3.6406-12.562 3.6406h-8.5v8.1094h8.8906q7.2656 0 11.125 2.9062t3.8594 8.375q0 5.6094-3.9844 8.6094-3.9688 3.0156-11.391 3.0156-4.0625 0-8.7031-0.89062-4.6406-0.875-10.203-2.7188v8.7812q5.625 1.5625 10.531 2.3438t9.25 0.78125q11.234 0 17.766-5.1094 6.5469-5.0938 6.5469-13.781 0-6.0625-3.4688-10.234t-9.8594-5.7812z"/>
</defs>
<g transform="translate(1245.8 755.94) scale(.1 -.1)">
<use xlink:href="#c"/>
<use x="63.623047" xlink:href="#e"/>
<use x="95.410156" xlink:href="#c"/>
<use x="159.033203" xlink:href="#q"/>
</g>
</g>
<g clip-path="url(#a)">
<g transform="translate(1340.2 339.01) scale(.1 -.1)">
<use xlink:href="#c"/>
<use x="63.623047" xlink:href="#e"/>
<use x="95.410156" xlink:href="#c"/>
<use x="159.033203" xlink:href="#p"/>
</g>
</g>
<g clip-path="url(#a)">
<g transform="translate(1289.4 755.94) scale(.1 -.1)">
<use xlink:href="#c"/>
<use x="63.623047" xlink:href="#e"/>
<use x="95.410156" xlink:href="#c"/>
<use x="159.033203" xlink:href="#n"/>
</g>
</g>
<g clip-path="url(#a)">
<g transform="translate(1332.9 755.94) scale(.1 -.1)">
<use xlink:href="#c"/>
<use x="63.623047" xlink:href="#e"/>
<use x="95.410156" xlink:href="#c"/>
<use x="159.033203" xlink:href="#ab"/>
</g>
</g>
<g clip-path="url(#a)">
<g transform="translate(1398.3 480.4) scale(.1 -.1)">
<use xlink:href="#c"/>
<use x="63.623047" xlink:href="#e"/>
<use x="95.410156" xlink:href="#c"/>
<use x="159.033203" xlink:href="#aa"/>
</g>
</g>
<g clip-path="url(#a)">
<defs>
<path id="aj" d="m31.781 34.625q-7.0312 0-11.062-3.7656-4.0156-3.7656-4.0156-10.344 0-6.5938 4.0156-10.359 4.0312-3.7656 11.062-3.7656t11.078 3.7812q4.0625 3.7969 4.0625 10.344 0 6.5781-4.0312 10.344-4.0156 3.7656-11.109 3.7656zm-9.8594 4.1875q-6.3438 1.5625-9.8906 5.9062-3.5312 4.3594-3.5312 10.609 0 8.7344 6.2188 13.812 6.2344 5.0781 17.062 5.0781 10.891 0 17.094-5.0781t6.2031-13.812q0-6.25-3.5469-10.609-3.5312-4.3438-9.8281-5.9062 7.125-1.6562 11.094-6.5 3.9844-4.8281 3.9844-11.797 0-10.609-6.4688-16.281-6.4688-5.6562-18.531-5.6562-12.047 0-18.531 5.6562-6.4688 5.6719-6.4688 16.281 0 6.9688 4 11.797 4.0156 4.8438 11.141 6.5zm-3.6094 15.578q0-5.6562 3.5312-8.8281 3.5469-3.1719 9.9375-3.1719 6.3594 0 9.9375 3.1719 3.5938 3.1719 3.5938 8.8281 0 5.6719-3.5938 8.8438-3.5781 3.1719-9.9375 3.1719-6.3906 0-9.9375-3.1719-3.5312-3.1719-3.5312-8.8438z"/>
</defs>
<g transform="translate(1376.5 755.94) scale(.1 -.1)">
<use xlink:href="#c"/>
<use x="63.623047" xlink:href="#e"/>
<use x="95.410156" xlink:href="#c"/>
<use x="159.033203" xlink:href="#aj"/>
</g>
</g>
<g clip-path="url(#a)">
<g transform="translate(1485.4 619.12) scale(.1 -.1)">
<use xlink:href="#c"/>
<use x="63.623047" xlink:href="#e"/>
<use x="95.410156" xlink:href="#c"/>
<use x="159.033203" xlink:href="#z"/>
</g>
</g>
<g clip-path="url(#a)">
<g transform="translate(1420.1 755.94) scale(.1 -.1)">
<use xlink:href="#c"/>
<use x="63.623047" xlink:href="#e"/>
<use x="95.410156" xlink:href="#t"/>
<use x="159.033203" xlink:href="#ac"/>
</g>
</g>
<g clip-path="url(#a)">
<g transform="translate(1485.4 755.94) scale(.1 -.1)">
<use xlink:href="#c"/>
<use x="63.623047" xlink:href="#e"/>
<use x="95.410156" xlink:href="#t"/>
<use x="159.033203" xlink:href="#c"/>
</g>
</g>
<g clip-path="url(#a)">
<defs>
<path id="an" d="m9.8125 72.906h14.703l18.594-49.609 18.703 49.609h14.703v-72.906h-9.625v64.016l-18.797-50h-9.9062l-18.797 50v-64.016h-9.5781z"/>
</defs>
<g transform="translate(1627.9 892.75) scale(.1 -.1)">
<use xlink:href="#x"/>
<use x="29.492188" xlink:href="#an"/>
<use x="115.771484" xlink:href="#y"/>
<use x="176.074219" xlink:href="#s"/>
<use x="231.787109" xlink:href="#x"/>
<use x="261.279297" xlink:href="#o"/>
<use x="331.103516" xlink:href="#x"/>
<use x="360.595703" xlink:href="#k"/>
</g>
</g>
<g clip-path="url(#a)">
<g transform="translate(940.88 755.94) scale(.1 -.1)">
<use xlink:href="#c"/>
<use x="63.623047" xlink:href="#e"/>
<use x="95.410156" xlink:href="#t"/>
<use x="159.033203" xlink:href="#q"/>
</g>
</g>
<g clip-path="url(#a)">
<g transform="translate(1028 619.12) scale(.1 -.1)">
<use xlink:href="#c"/>
<use x="63.623047" xlink:href="#e"/>
<use x="95.410156" xlink:href="#t"/>
<use x="159.033203" xlink:href="#p"/>
</g>
</g>
<g clip-path="url(#a)">
<g transform="translate(984.44 755.94) scale(.1 -.1)">
<use xlink:href="#c"/>
<use x="63.623047" xlink:href="#e"/>
<use x="95.410156" xlink:href="#t"/>
<use x="159.033203" xlink:href="#n"/>
</g>
</g>
<g clip-path="url(#a)">
<g transform="translate(1028 755.94) scale(.1 -.1)">
<use xlink:href="#c"/>
<use x="63.623047" xlink:href="#e"/>
<use x="95.410156" xlink:href="#t"/>
<use x="159.033203" xlink:href="#ab"/>
</g>
</g>
<g clip-path="url(#a)">
<g transform="translate(1071.6 755.94) scale(.1 -.1)">
<use xlink:href="#c"/>
<use x="63.623047" xlink:href="#e"/>
<use x="95.410156" xlink:href="#t"/>
<use x="159.033203" xlink:href="#aa"/>
</g>
</g>
<g clip-path="url(#a)">
<g transform="translate(1584.4 892.75) scale(.1 -.1)">
<use xlink:href="#x"/>
<use x="29.492188" xlink:href="#an"/>
<use x="115.771484" xlink:href="#y"/>
<use x="176.074219" xlink:href="#s"/>
<use x="231.787109" xlink:href="#x"/>
<use x="261.279297" xlink:href="#o"/>
<use x="331.103516" xlink:href="#x"/>
<use x="360.595703" xlink:href="#k"/>
</g>
</g>
<g clip-path="url(#a)">
<g transform="translate(461.69 755.94) scale(.1 -.1)">
<use xlink:href="#c"/>
<use x="63.623047" xlink:href="#e"/>
<use x="95.410156" xlink:href="#t"/>
<use x="159.033203" xlink:href="#z"/>
</g>
</g>
<g clip-path="url(#a)">
<g transform="translate(527.03 619.12) scale(.1 -.1)">
<use xlink:href="#c"/>
<use x="63.623047" xlink:href="#e"/>
<use x="95.410156" xlink:href="#q"/>
<use x="159.033203" xlink:href="#ac"/>
</g>
</g>
<g clip-path="url(#a)">
<g transform="translate(674.66 339.01) scale(.1 -.1)">
<use xlink:href="#c"/>
<use x="63.623047" xlink:href="#e"/>
<use x="95.410156" xlink:href="#q"/>
<use x="159.033203" xlink:href="#c"/>
</g>
</g>
<g clip-path="url(#a)">
<g transform="translate(592.38 755.94) scale(.1 -.1)">
<use xlink:href="#c"/>
<use x="63.623047" xlink:href="#e"/>
<use x="95.410156" xlink:href="#q"/>
<use x="159.033203" xlink:href="#t"/>
</g>
</g>
<g clip-path="url(#a)">
<g transform="translate(635.94 755.94) scale(.1 -.1)">
<use xlink:href="#c"/>
<use x="63.623047" xlink:href="#e"/>
<use x="95.410156" xlink:href="#q"/>
<use x="159.033203" xlink:href="#q"/>
</g>
</g>
<g clip-path="url(#a)">
<g transform="translate(795.67 480.4) scale(.1 -.1)">
<use xlink:href="#c"/>
<use x="63.623047" xlink:href="#e"/>
<use x="95.410156" xlink:href="#q"/>
<use x="159.033203" xlink:href="#p"/>
</g>
</g>
<g clip-path="url(#a)">
<g transform="translate(723.06 619.12) scale(.1 -.1)">
<use xlink:href="#c"/>
<use x="63.623047" xlink:href="#e"/>
<use x="95.410156" xlink:href="#q"/>
<use x="159.033203" xlink:href="#n"/>
</g>
</g>
<g clip-path="url(#a)">
<g transform="translate(810.19 755.94) scale(.1 -.1)">
<use xlink:href="#c"/>
<use x="63.623047" xlink:href="#e"/>
<use x="95.410156" xlink:href="#q"/>
<use x="159.033203" xlink:href="#aa"/>
</g>
</g>
<g clip-path="url(#a)">
<g transform="translate(853.75 755.94) scale(.1 -.1)">
<use xlink:href="#c"/>
<use x="63.623047" xlink:href="#e"/>
<use x="95.410156" xlink:href="#q"/>
<use x="159.033203" xlink:href="#aj"/>
</g>
</g>
<g clip-path="url(#a)">
<g transform="translate(679.5 755.94) scale(.1 -.1)">
<use xlink:href="#c"/>
<use x="63.623047" xlink:href="#e"/>
<use x="95.410156" xlink:href="#q"/>
<use x="159.033203" xlink:href="#z"/>
</g>
</g>
<g clip-path="url(#a)">
<g transform="translate(723.06 755.94) scale(.1 -.1)">
<use xlink:href="#c"/>
<use x="63.623047" xlink:href="#e"/>
<use x="95.410156" xlink:href="#p"/>
<use x="159.033203" xlink:href="#ac"/>
</g>
</g>
<g clip-path="url(#a)">
<g transform="translate(766.63 755.94) scale(.1 -.1)">
<use xlink:href="#c"/>
<use x="63.623047" xlink:href="#e"/>
<use x="95.410156" xlink:href="#p"/>
<use x="159.033203" xlink:href="#c"/>
</g>
</g>
<g clip-path="url(#a)">
<g transform="translate(505.25 755.94) scale(.1 -.1)">
<use xlink:href="#c"/>
<use x="63.623047" xlink:href="#e"/>
<use x="95.410156" xlink:href="#p"/>
<use x="159.033203" xlink:href="#t"/>
</g>
</g>
<g clip-path="url(#a)">
<g transform="translate(548.81 755.94) scale(.1 -.1)">
<use xlink:href="#c"/>
<use x="63.623047" xlink:href="#e"/>
<use x="95.410156" xlink:href="#p"/>
<use x="159.033203" xlink:href="#q"/>
</g>
</g>
<g clip-path="url(#a)">
<g transform="translate(1671.5 892.75) scale(.1 -.1)">
<use xlink:href="#x"/>
<use x="29.492188" xlink:href="#an"/>
<use x="115.771484" xlink:href="#y"/>
<use x="176.074219" xlink:href="#s"/>
<use x="231.787109" xlink:href="#x"/>
<use x="261.279297" xlink:href="#o"/>
<use x="331.103516" xlink:href="#x"/>
<use x="360.595703" xlink:href="#k"/>
</g>
</g>
<g clip-path="url(#a)">
<g transform="translate(69.626 755.94) scale(.1 -.1)">
<use xlink:href="#c"/>
<use x="63.623047" xlink:href="#e"/>
<use x="95.410156" xlink:href="#p"/>
<use x="159.033203" xlink:href="#n"/>
</g>
</g>
<g clip-path="url(#a)">
<g transform="translate(134.97 619.12) scale(.1 -.1)">
<use xlink:href="#c"/>
<use x="63.623047" xlink:href="#e"/>
<use x="95.410156" xlink:href="#p"/>
<use x="159.033203" xlink:href="#ab"/>
</g>
</g>
<g clip-path="url(#a)">
<g transform="translate(251.14 480.4) scale(.1 -.1)">
<use xlink:href="#c"/>
<use x="63.623047" xlink:href="#e"/>
<use x="95.410156" xlink:href="#p"/>
<use x="159.033203" xlink:href="#aa"/>
</g>
</g>
<g clip-path="url(#a)">
<g transform="translate(200.31 755.94) scale(.1 -.1)">
<use xlink:href="#c"/>
<use x="63.623047" xlink:href="#e"/>
<use x="95.410156" xlink:href="#p"/>
<use x="159.033203" xlink:href="#aj"/>
</g>
</g>
<g clip-path="url(#a)">
<g transform="translate(243.88 755.94) scale(.1 -.1)">
<use xlink:href="#c"/>
<use x="63.623047" xlink:href="#e"/>
<use x="95.410156" xlink:href="#p"/>
<use x="159.033203" xlink:href="#z"/>
</g>
</g>
<g clip-path="url(#a)">
<g transform="translate(309.22 619.12) scale(.1 -.1)">
<use xlink:href="#c"/>
<use x="63.623047" xlink:href="#e"/>
<use x="95.410156" xlink:href="#n"/>
<use x="159.033203" xlink:href="#ac"/>
</g>
</g>
<g clip-path="url(#a)">
<g transform="translate(287.44 755.94) scale(.1 -.1)">
<use xlink:href="#c"/>
<use x="63.623047" xlink:href="#e"/>
<use x="95.410156" xlink:href="#n"/>
<use x="159.033203" xlink:href="#c"/>
</g>
</g>
<g clip-path="url(#a)">
<g transform="translate(331 755.94) scale(.1 -.1)">
<use xlink:href="#c"/>
<use x="63.623047" xlink:href="#e"/>
<use x="95.410156" xlink:href="#n"/>
<use x="159.033203" xlink:href="#t"/>
</g>
</g>
<g clip-path="url(#a)">
<g transform="translate(113.19 755.94) scale(.1 -.1)">
<use xlink:href="#c"/>
<use x="63.623047" xlink:href="#e"/>
<use x="95.410156" xlink:href="#n"/>
<use x="159.033203" xlink:href="#q"/>
</g>
</g>
<g clip-path="url(#a)">
<g transform="translate(156.75 755.94) scale(.1 -.1)">
<use xlink:href="#c"/>
<use x="63.623047" xlink:href="#e"/>
<use x="95.410156" xlink:href="#n"/>
<use x="159.033203" xlink:href="#p"/>
</g>
</g>
<g clip-path="url(#a)">
<g transform="translate(1078.6 46.098) scale(.1 -.1)">
<use xlink:href="#c"/>
<use x="63.623047" xlink:href="#e"/>
<use x="95.410156" xlink:href="#n"/>
<use x="159.033203" xlink:href="#n"/>
</g>
</g>
<g clip-path="url(#a)">
<g transform="translate(1049.8 339.01) scale(.1 -.1)">
<use xlink:href="#c"/>
<use x="63.623047" xlink:href="#e"/>
<use x="95.410156" xlink:href="#n"/>
<use x="159.033203" xlink:href="#ab"/>
</g>
</g>
<g clip-path="url(#a)">
<g transform="translate(616.28 46.098) scale(.1 -.1)">
<use xlink:href="#c"/>
<use x="63.623047" xlink:href="#e"/>
<use x="95.410156" xlink:href="#n"/>
<use x="159.033203" xlink:href="#aa"/>
</g>
</g>
<g clip-path="url(#a)">
<g transform="translate(374.56 755.94) scale(.1 -.1)">
<use xlink:href="#c"/>
<use x="63.623047" xlink:href="#e"/>
<use x="95.410156" xlink:href="#n"/>
<use x="159.033203" xlink:href="#aj"/>
</g>
</g>
<g clip-path="url(#a)">
<g transform="translate(1115.1 755.94) scale(.1 -.1)">
<use xlink:href="#c"/>
<use x="63.623047" xlink:href="#e"/>
<use x="95.410156" xlink:href="#n"/>
<use x="159.033203" xlink:href="#z"/>
</g>
</g>
<g clip-path="url(#a)">
<g transform="translate(1550.8 755.94) scale(.1 -.1)">
<use xlink:href="#c"/>
<use x="63.623047" xlink:href="#e"/>
<use x="95.410156" xlink:href="#ab"/>
<use x="159.033203" xlink:href="#ac"/>
</g>
</g>
<defs>
<clipPath id="a">
<rect width="1773.3" height="933.33"/>
</clipPath>
</defs>
</svg>
