<?xml version="1.0" encoding="UTF-8"?>
<!DOCTYPE svg  PUBLIC '-//W3C//DTD SVG 1.1//EN'  'http://www.w3.org/Graphics/SVG/1.1/DTD/svg11.dtd'>
<svg width="1216pt" height="640pt" version="1.1" viewBox="0 0 1216 640" xmlns="http://www.w3.org/2000/svg" xmlns:xlink="http://www.w3.org/1999/xlink">
<defs>
<style type="text/css">*{stroke-linecap:butt;stroke-linejoin:round;}</style>
</defs>
<path d="m0 640h1216v-640h-1216z" fill="#fff"/>
<g fill="none" stroke="#000">
<path d="m576.92 30.197v120.02" clip-path="url(#a)"/>
<path d="m576.92 150.22 583.57 459.58" clip-path="url(#a)"/>
<path d="m576.92 150.22-521.41 346.03" clip-path="url(#a)"/>
<path d="m576.92 150.22-383.29 232.48" clip-path="url(#a)"/>
<path d="m576.92 150.22-141.58 117.35" clip-path="url(#a)"/>
<path d="m576.92 150.22 261.28 346.03" clip-path="url(#a)"/>
<path d="m576.92 150.22 307.32 346.03" clip-path="url(#a)"/>
<path d="m576.92 150.22 445.45 232.48" clip-path="url(#a)"/>
<path d="m576.92 150.22-475.37 346.03" clip-path="url(#a)"/>
<path d="m576.92 150.22-291.21 346.03" clip-path="url(#a)"/>
<path d="m576.92 150.22 215.24 346.03" clip-path="url(#a)"/>
<path d="m55.509 496.25v113.55" clip-path="url(#a)"/>
<path d="m193.63 382.7-46.041 113.55" clip-path="url(#a)"/>
<path d="m193.63 382.7v113.55" clip-path="url(#a)"/>
<path d="m193.63 382.7 46.041 113.55" clip-path="url(#a)"/>
<path d="m435.35 267.57-103.59 228.68" clip-path="url(#a)"/>
<path d="m435.35 267.57-57.551 228.68" clip-path="url(#a)"/>
<path d="m435.35 267.57 172.65 115.13" clip-path="url(#a)"/>
<path d="m435.35 267.57-11.51 228.68" clip-path="url(#a)"/>
<path d="m838.2 496.25v113.55" clip-path="url(#a)"/>
<path d="m884.25 496.25v113.55" clip-path="url(#a)"/>
<path d="m1022.4 382.7-92.082 113.55" clip-path="url(#a)"/>
<path d="m1022.4 382.7-46.041 113.55" clip-path="url(#a)"/>
<path d="m1022.4 382.7v113.55" clip-path="url(#a)"/>
<path d="m1022.4 382.7 46.041 113.55" clip-path="url(#a)"/>
<path d="m1022.4 382.7 92.082 113.55" clip-path="url(#a)"/>
<path d="m930.29 496.25v113.55" clip-path="url(#a)"/>
<path d="m976.33 496.25v113.55" clip-path="url(#a)"/>
<path d="m1022.4 496.25v113.55" clip-path="url(#a)"/>
<path d="m1068.4 496.25v113.55" clip-path="url(#a)"/>
<path d="m331.75 496.25v113.55" clip-path="url(#a)"/>
<path d="m377.8 496.25v113.55" clip-path="url(#a)"/>
<path d="m608 382.7-138.12 113.55" clip-path="url(#a)"/>
<path d="m608 382.7-46.041 113.55" clip-path="url(#a)"/>
<path d="m608 382.7 46.041 113.55" clip-path="url(#a)"/>
<path d="m608 382.7 138.12 113.55" clip-path="url(#a)"/>
<path d="m608 382.7-92.082 113.55" clip-path="url(#a)"/>
<path d="m608 382.7v113.55" clip-path="url(#a)"/>
<path d="m608 382.7 92.082 113.55" clip-path="url(#a)"/>
<path d="m469.88 496.25v113.55" clip-path="url(#a)"/>
<path d="m561.96 496.25v113.55" clip-path="url(#a)"/>
<path d="m654.04 496.25v113.55" clip-path="url(#a)"/>
<path d="m746.12 496.25v113.55" clip-path="url(#a)"/>
<path d="m101.55 496.25v113.55" clip-path="url(#a)"/>
<path d="m285.71 496.25v113.55" clip-path="url(#a)"/>
<path d="m423.84 496.25v113.55" clip-path="url(#a)"/>
<path d="m147.59 496.25v113.55" clip-path="url(#a)"/>
<path d="m193.63 496.25v113.55" clip-path="url(#a)"/>
<path d="m239.67 496.25v113.55" clip-path="url(#a)"/>
<path d="m515.92 496.25v113.55" clip-path="url(#a)"/>
<path d="m608 496.25v113.55" clip-path="url(#a)"/>
<path d="m700.08 496.25v113.55" clip-path="url(#a)"/>
<path d="m792.16 496.25v113.55" clip-path="url(#a)"/>
<path d="m1114.5 496.25v113.55" clip-path="url(#a)"/>
</g>
<path d="m570.65 87.2v6.0162q0 2.4 2.4 2.4h7.7425q2.4 0 2.4-2.4v-6.0162q0-2.4-2.4-2.4h-7.7425q-2.4 0-2.4 2.4z" clip-path="url(#a)" fill="#fff" stroke="#fff"/>
<g clip-path="url(#a)">
<defs>
<path id="aq" d="m9.8125 72.906h9.8594v-29.891h35.844v29.891h9.8594v-72.906h-9.8594v34.719h-35.844v-34.719h-9.8594z"/>
</defs>
<g transform="translate(574.71 87.2) rotate(90) scale(.08 -.08)">
<use xlink:href="#aq"/>
</g>
</g>
<path d="m862.68 383.24 4.2993 3.3859q1.8855 1.4849 3.3704-0.40059l4.7903-6.0827q1.4849-1.8855-0.40059-3.3704l-4.2993-3.3859q-1.8855-1.4849-3.3704 0.40059l-4.7903 6.0827q-1.4849 1.8855 0.40059 3.3704z" clip-path="url(#a)" fill="#fff" stroke="#fff"/>
<g clip-path="url(#a)">
<defs>
<path id="aa" d="m34.188 63.188-13.391-36.281h26.812zm-5.5781 9.7188h11.188l27.781-72.906h-10.25l-6.6406 18.703h-32.859l-6.6406-18.703h-10.406z"/>
</defs>
<g transform="translate(865.19 380.05) rotate(38.222) scale(.08 -.08)">
<use xlink:href="#aa"/>
</g>
</g>
<path d="m317.65 329.81 4.0713-2.7019q1.9997-1.3271 0.67262-3.3268l-4.2812-6.4511q-1.3271-1.9997-3.3268-0.67262l-4.0713 2.7019q-1.9997 1.3271-0.67262 3.3268l4.2812 6.4511q1.3271 1.9997 3.3268 0.67262z" clip-path="url(#a)" fill="#fff" stroke="#fff"/>
<g clip-path="url(#a)">
<defs>
<path id="k" d="m-0.29688 72.906h61.672v-8.3125h-25.875v-64.594h-9.9062v64.594h-25.891z"/>
</defs>
<g transform="translate(315.4 326.43) rotate(-33.57) scale(.08 -.08)">
<use xlink:href="#k"/>
</g>
</g>
<path d="m386.44 273.09 4.1778-2.534q2.052-1.2446 0.8074-3.2967l-4.0153-6.62q-1.2446-2.052-3.2967-0.8074l-4.1778 2.534q-2.052 1.2446-0.8074 3.2967l4.0153 6.62q1.2446 2.052 3.2967 0.8074z" clip-path="url(#a)" fill="#fff" stroke="#fff"/>
<g clip-path="url(#a)">
<g transform="translate(384.33 269.61) rotate(-31.238) scale(.08 -.08)">
<use xlink:href="#k"/>
</g>
</g>
<path d="m508.03 215.47 4.2133-3.4923q1.8478-1.5316 0.31621-3.3794l-4.9409-5.961q-1.5316-1.8478-3.3794-0.31621l-4.2133 3.4923q-1.8478 1.5316-0.3162 3.3794l4.9409 5.961q1.5316 1.8478 3.3794 0.31621z" clip-path="url(#a)" fill="#fff" stroke="#fff"/>
<g clip-path="url(#a)">
<g transform="translate(505.44 212.34) rotate(-39.654) scale(.08 -.08)">
<use xlink:href="#aa"/>
</g>
</g>
<path d="m701.17 325.18 2.7727 3.672q1.4462 1.9153 3.3615 0.4691l6.1789-4.6656q1.9153-1.4462 0.4691-3.3615l-2.7727-3.672q-1.4462-1.9153-3.3615-0.4691l-6.1789 4.6656q-1.9153 1.4462-0.4691 3.3615z" clip-path="url(#a)" fill="#fff" stroke="#fff"/>
<g clip-path="url(#a)">
<defs>
<path id="al" d="m9.8125 72.906h41.891v-8.3125h-32.031v-21.484h28.906v-8.2969h-28.906v-34.812h-9.8594z"/>
</defs>
<g transform="translate(704.42 322.73) rotate(52.944) scale(.08 -.08)">
<use xlink:href="#al"/>
</g>
</g>
<path d="m724.29 325.6 3.2032 3.6067q1.5937 1.7945 3.3882 0.20073l5.789-5.1414q1.7945-1.5937 0.20073-3.3882l-3.2032-3.6067q-1.5937-1.7945-3.3882-0.20073l-5.789 5.1414q-1.7945 1.5937-0.20073 3.3882z" clip-path="url(#a)" fill="#fff" stroke="#fff"/>
<g clip-path="url(#a)">
<defs>
<path id="ak" d="m19.672 64.797v-27.391h12.406q6.8906 0 10.641 3.5625 3.7656 3.5625 3.7656 10.156 0 6.5469-3.7656 10.109-3.75 3.5625-10.641 3.5625zm-9.8594 8.1094h22.266q12.266 0 18.531-5.5469 6.2812-5.5469 6.2812-16.234 0-10.797-6.2812-16.312-6.2656-5.5156-18.531-5.5156h-12.406v-29.297h-9.8594z"/>
</defs>
<g transform="translate(727.33 322.9) rotate(48.391) scale(.08 -.08)">
<use xlink:href="#ak"/>
</g>
</g>
<path d="m794.32 270.75 4.8515 2.532q2.1277 1.1104 3.2381-1.0172l3.5823-6.8639q1.1104-2.1277-1.0172-3.2381l-4.8515-2.532q-2.1277-1.1104-3.2381 1.0172l-3.5823 6.8639q-1.1104 2.1277 1.0172 3.2381z" clip-path="url(#a)" fill="#fff" stroke="#fff"/>
<g clip-path="url(#a)">
<g transform="translate(796.2 267.15) rotate(27.56) scale(.08 -.08)">
<use xlink:href="#aa"/>
</g>
</g>
<path d="m340.56 330.03 4.7337-3.4457q1.9404-1.4124 0.52794-3.3528l-4.5566-6.2597q-1.4124-1.9404-3.3528-0.52794l-4.7337 3.4457q-1.9404 1.4124-0.52794 3.3528l4.5566 6.2597q1.4124 1.9404 3.3528 0.52794z" clip-path="url(#a)" fill="#fff" stroke="#fff"/>
<g clip-path="url(#a)">
<defs>
<path id="o" d="m8.6875 72.906h9.9219v-44.297q0-11.719 4.2344-16.875 4.25-5.1406 13.781-5.1406 9.4688 0 13.719 5.1406 4.25 5.1562 4.25 16.875v44.297h9.9062v-45.516q0-14.25-7.0625-21.531-7.0469-7.2812-20.812-7.2812-13.828 0-20.891 7.2812-7.0469 7.2812-7.0469 21.531z"/>
</defs>
<g transform="translate(338.17 326.74) rotate(-36.051) scale(.08 -.08)">
<use xlink:href="#o"/>
</g>
</g>
<path d="m434.23 329.51 3.77-4.4797q1.5453-1.8363-0.29092-3.3816l-5.9239-4.9854q-1.8363-1.5453-3.3816 0.29093l-3.77 4.4797q-1.5453 1.8363 0.29093 3.3816l5.9239 4.9854q1.8363 1.5453 3.3816-0.29093z" clip-path="url(#a)" fill="#fff" stroke="#fff"/>
<g clip-path="url(#a)">
<g transform="translate(431.12 326.9) rotate(-49.917) scale(.08 -.08)">
<use xlink:href="#o"/>
</g>
</g>
<path d="m677.67 324.06 3.0925 4.9717q1.2676 2.0379 3.3056 0.77027l6.5744-4.0895q2.0379-1.2676 0.77027-3.3056l-3.0925-4.9717q-1.2676-2.0379-3.3056-0.77028l-6.5744 4.0895q-2.0379 1.2676-0.77027 3.3056z" clip-path="url(#a)" fill="#fff" stroke="#fff"/>
<g clip-path="url(#a)">
<g transform="translate(681.12 321.92) rotate(58.117) scale(.08 -.08)">
<use xlink:href="#o"/>
</g>
</g>
<path d="m49.238 535.38v35.285q0 2.4 2.4 2.4h7.7425q2.4 0 2.4-2.4v-35.285q0-2.4-2.4-2.4h-7.7425q-2.4 0-2.4 2.4z" clip-path="url(#a)" fill="#fff" stroke="#fff"/>
<g clip-path="url(#a)">
<defs>
<path id="f" d="m56.203 29.594v-4.3906h-41.312q0.59375-9.2812 5.5938-14.141t13.938-4.8594q5.1719 0 10.031 1.2656t9.6562 3.8125v-8.5q-4.8438-2.0469-9.9219-3.125t-10.297-1.0781q-13.094 0-20.734 7.6094-7.6406 7.625-7.6406 20.625 0 13.422 7.25 21.297 7.25 7.8906 19.562 7.8906 11.031 0 17.453-7.1094 6.4219-7.0938 6.4219-19.297zm-8.9844 2.6406q-0.09375 7.3594-4.125 11.75-4.0312 4.4062-10.672 4.4062-7.5156 0-12.031-4.25t-5.2031-11.969z"/>
<path id="g" d="m41.109 46.297q-1.5156 0.875-3.2969 1.2812-1.7812 0.42188-3.9219 0.42188-7.625 0-11.703-4.9531t-4.0781-14.234v-28.812h-9.0312v54.688h9.0312v-8.5q2.8438 4.9844 7.375 7.3906 4.5469 2.4219 11.047 2.4219 0.92188 0 2.0469-0.125 1.125-0.10938 2.4844-0.35938z"/>
<path id="l" d="m52 44.188q3.375 6.0625 8.0625 8.9375t11.031 2.875q8.5469 0 13.188-5.9844 4.6406-5.9688 4.6406-17v-33.016h-9.0312v32.719q0 7.8594-2.7969 11.656-2.7812 3.8125-8.4844 3.8125-6.9844 0-11.047-4.6406-4.0469-4.625-4.0469-12.641v-30.906h-9.0312v32.719q0 7.9062-2.7812 11.688t-8.5938 3.7812q-6.8906 0-10.953-4.6562-4.0469-4.6562-4.0469-12.625v-30.906h-9.0312v54.688h9.0312v-8.5q3.0781 5.0312 7.375 7.4219t10.203 2.3906q5.9688 0 10.141-3.0312 4.1719-3.0156 6.1719-8.7812z"/>
<path id="e" d="m9.4219 54.688h8.9844v-54.688h-8.9844zm0 21.297h8.9844v-11.391h-8.9844z"/>
<path id="j" d="m54.891 33.016v-33.016h-8.9844v32.719q0 7.7656-3.0312 11.609-3.0312 3.8594-9.0781 3.8594-7.2812 0-11.484-4.6406-4.2031-4.625-4.2031-12.641v-30.906h-9.0312v54.688h9.0312v-8.5q3.2344 4.9375 7.5938 7.375 4.375 2.4375 10.094 2.4375 9.4219 0 14.25-5.8281 4.8438-5.8281 4.8438-17.156z"/>
<path id="d" d="m34.281 27.484q-10.891 0-15.094-2.4844t-4.2031-8.5q0-4.7812 3.1562-7.5938 3.1562-2.7969 8.5625-2.7969 7.4844 0 12 5.2969t4.5156 14.078v2zm17.922 3.7188v-31.203h-8.9844v8.2969q-3.0781-4.9688-7.6719-7.3438t-11.234-2.375q-8.3906 0-13.359 4.7188-4.9531 4.7188-4.9531 12.625 0 9.2188 6.1719 13.906 6.1875 4.6875 18.438 4.6875h12.609v0.89062q0 6.2031-4.0781 9.5938t-11.453 3.3906q-4.6875 0-9.1406-1.125-4.4375-1.125-8.5312-3.375v8.3125q4.9219 1.9062 9.5625 2.8438 4.6406 0.95312 9.0312 0.95312 11.875 0 17.734-6.1562 5.8594-6.1406 5.8594-18.641z"/>
<path id="i" d="m9.4219 75.984h8.9844v-75.984h-8.9844z"/>
</defs>
<g transform="translate(53.301 535.38) rotate(90) scale(.08 -.08)">
<use xlink:href="#k"/>
<use x="60.818359" xlink:href="#f"/>
<use x="122.341797" xlink:href="#g"/>
<use x="163.439453" xlink:href="#l"/>
<use x="260.851562" xlink:href="#e"/>
<use x="288.634766" xlink:href="#j"/>
<use x="352.013672" xlink:href="#d"/>
<use x="413.292969" xlink:href="#i"/>
</g>
</g>
<path d="m175.38 444.41 2.0887-5.1514q0.9018-2.2241-1.3223-3.1259l-7.1751-2.9092q-2.2241-0.9018-3.1259 1.3223l-2.0887 5.1514q-0.9018 2.2241 1.3223 3.1259l7.1751 2.9092q2.2241 0.9018 3.1259-1.3223z" clip-path="url(#a)" fill="#fff" stroke="#fff"/>
<g clip-path="url(#a)">
<defs>
<path id="aj" d="m44.391 34.188q3.1719-1.0781 6.1719-4.5938t6.0312-9.6719l10.016-19.922h-10.609l-9.3125 18.703q-3.625 7.3281-7.0156 9.7188t-9.25 2.3906h-10.75v-30.812h-9.8594v72.906h22.266q12.5 0 18.656-5.2344 6.1562-5.2188 6.1562-15.766 0-6.8906-3.2031-11.438-3.2031-4.5312-9.2969-6.2812zm-24.719 30.609v-25.875h12.406q7.125 0 10.766 3.2969t3.6406 9.6875-3.6406 9.6406-10.766 3.25z"/>
</defs>
<g transform="translate(171.61 442.88) rotate(-67.929) scale(.08 -.08)">
<use xlink:href="#aj"/>
</g>
</g>
<path d="m187.36 436.95v5.055q0 2.4 2.4 2.4h7.7425q2.4 0 2.4-2.4v-5.055q0-2.4-2.4-2.4h-7.7425q-2.4 0-2.4 2.4z" clip-path="url(#a)" fill="#fff" stroke="#fff"/>
<g clip-path="url(#a)">
<defs>
<path id="r" d="m9.8125 72.906h46.094v-8.3125h-36.234v-21.578h34.719v-8.2969h-34.719v-26.422h37.109v-8.2969h-46.969z"/>
</defs>
<g transform="translate(191.42 436.95) rotate(90) scale(.08 -.08)">
<use xlink:href="#r"/>
</g>
</g>
<path d="m209.79 439.24 2.099 5.1769q0.9018 2.2241 3.1259 1.3223l7.1751-2.9092q2.2241-0.9018 1.3223-3.1259l-2.099-5.1769q-0.9018-2.2241-3.1259-1.3223l-7.1751 2.9092q-2.2241 0.9018-1.3223 3.1259z" clip-path="url(#a)" fill="#fff" stroke="#fff"/>
<g clip-path="url(#a)">
<defs>
<path id="p" d="m64.406 67.281v-10.391q-4.9844 4.6406-10.625 6.9219-5.6406 2.2969-11.984 2.2969-12.5 0-19.141-7.6406t-6.6406-22.094q0-14.406 6.6406-22.047t19.141-7.6406q6.3438 0 11.984 2.2969t10.625 6.9375v-10.312q-5.1719-3.5156-10.969-5.2812-5.7812-1.75-12.219-1.75-16.562 0-26.094 10.125-9.5156 10.141-9.5156 27.672 0 17.578 9.5156 27.703 9.5312 10.141 26.094 10.141 6.5312 0 12.312-1.7344 5.7969-1.7344 10.875-5.2031z"/>
</defs>
<g transform="translate(213.56 437.72) rotate(67.929) scale(.08 -.08)">
<use xlink:href="#p"/>
</g>
</g>
<path d="m388.22 386.8 2.0859-4.6046q0.99032-2.1862-1.1958-3.1765l-7.0526-3.1948q-2.1862-0.99032-3.1765 1.1958l-2.0859 4.6046q-0.99032 2.1862 1.1958 3.1765l7.0526 3.1948q2.1862 0.99032 3.1765-1.1958z" clip-path="url(#a)" fill="#fff" stroke="#fff"/>
<g clip-path="url(#a)">
<g transform="translate(384.52 385.12) rotate(-65.63) scale(.08 -.08)">
<use xlink:href="#r"/>
</g>
</g>
<path d="m411.97 386.15 1.3633-5.4173q0.58573-2.3274-1.7417-2.9132l-7.5084-1.8896q-2.3274-0.58573-2.9132 1.7417l-1.3633 5.4173q-0.58573 2.3274 1.7417 2.9132l7.5084 1.8896q2.3274 0.58573 2.9132-1.7417z" clip-path="url(#a)" fill="#fff" stroke="#fff"/>
<g clip-path="url(#a)">
<g transform="translate(408.03 385.16) rotate(-75.874) scale(.08 -.08)">
<use xlink:href="#p"/>
</g>
</g>
<path d="m516.09 328.95 4.2057 2.8045q1.9968 1.3315 3.3283-0.66525l4.2955-6.4416q1.3315-1.9968-0.66525-3.3283l-4.2057-2.8045q-1.9968-1.3315-3.3283 0.66525l-4.2955 6.4416q-1.3315 1.9968 0.66525 3.3283z" clip-path="url(#a)" fill="#fff" stroke="#fff"/>
<g clip-path="url(#a)">
<g transform="translate(518.35 325.57) rotate(33.697) scale(.08 -.08)">
<use xlink:href="#r"/>
</g>
</g>
<path d="m435.71 385.15 0.29432-5.8476q0.12065-2.397-2.2763-2.5176l-7.7327-0.38921q-2.397-0.12065-2.5176 2.2763l-0.29432 5.8476q-0.12064 2.397 2.2763 2.5176l7.7327 0.38921q2.397 0.12065 2.5176-2.2763z" clip-path="url(#a)" fill="#fff" stroke="#fff"/>
<g clip-path="url(#a)">
<g transform="translate(431.65 384.94) rotate(-87.119) scale(.08 -.08)">
<use xlink:href="#o"/>
</g>
</g>
<path d="m831.93 535.38v35.285q0 2.4 2.4 2.4h7.7425q2.4 0 2.4-2.4v-35.285q0-2.4-2.4-2.4h-7.7425q-2.4 0-2.4 2.4z" clip-path="url(#a)" fill="#fff" stroke="#fff"/>
<g clip-path="url(#a)">
<g transform="translate(836 535.38) rotate(90) scale(.08 -.08)">
<use xlink:href="#k"/>
<use x="60.818359" xlink:href="#f"/>
<use x="122.341797" xlink:href="#g"/>
<use x="163.439453" xlink:href="#l"/>
<use x="260.851562" xlink:href="#e"/>
<use x="288.634766" xlink:href="#j"/>
<use x="352.013672" xlink:href="#d"/>
<use x="413.292969" xlink:href="#i"/>
</g>
</g>
<path d="m877.97 535.38v35.285q0 2.4 2.4 2.4h7.7425q2.4 0 2.4-2.4v-35.285q0-2.4-2.4-2.4h-7.7425q-2.4 0-2.4 2.4z" clip-path="url(#a)" fill="#fff" stroke="#fff"/>
<g clip-path="url(#a)">
<g transform="translate(882.04 535.38) rotate(90) scale(.08 -.08)">
<use xlink:href="#k"/>
<use x="60.818359" xlink:href="#f"/>
<use x="122.341797" xlink:href="#g"/>
<use x="163.439453" xlink:href="#l"/>
<use x="260.851562" xlink:href="#e"/>
<use x="288.634766" xlink:href="#j"/>
<use x="352.013672" xlink:href="#d"/>
<use x="413.292969" xlink:href="#i"/>
</g>
</g>
<path d="m979.45 445.58 3.5012-4.3176q1.5117-1.8641-0.35246-3.3758l-6.0137-4.8767q-1.8641-1.5117-3.3758 0.35246l-3.5012 4.3176q-1.5117 1.8641 0.35246 3.3758l6.0137 4.8767q1.8641 1.5117 3.3758-0.35246z" clip-path="url(#a)" fill="#fff" stroke="#fff"/>
<g clip-path="url(#a)">
<g transform="translate(976.29 443.02) rotate(-50.961) scale(.08 -.08)">
<use xlink:href="#aj"/>
</g>
</g>
<path d="m1004.2 444.17 1.8994-4.6846q0.9018-2.2241-1.3223-3.1259l-7.1751-2.9092q-2.2241-0.9018-3.1259 1.3223l-1.8994 4.6846q-0.9018 2.2241 1.3223 3.1259l7.1751 2.9092q2.2241 0.9018 3.1259-1.3223z" clip-path="url(#a)" fill="#fff" stroke="#fff"/>
<g clip-path="url(#a)">
<g transform="translate(1000.4 442.65) rotate(-67.929) scale(.08 -.08)">
<use xlink:href="#r"/>
</g>
</g>
<path d="m1016.1 436.95v5.055q0 2.4 2.4 2.4h7.7425q2.4 0 2.4-2.4v-5.055q0-2.4-2.4-2.4h-7.7425q-2.4 0-2.4 2.4z" clip-path="url(#a)" fill="#fff" stroke="#fff"/>
<g clip-path="url(#a)">
<g transform="translate(1020.2 436.95) rotate(90) scale(.08 -.08)">
<use xlink:href="#r"/>
</g>
</g>
<path d="m1038.5 439.24 2.099 5.1769q0.9018 2.2241 3.1259 1.3223l7.1751-2.9092q2.2241-0.9018 1.3223-3.1259l-2.099-5.1769q-0.9018-2.2241-3.1259-1.3223l-7.1751 2.9092q-2.2241 0.9018-1.3223 3.1259z" clip-path="url(#a)" fill="#fff" stroke="#fff"/>
<g clip-path="url(#a)">
<g transform="translate(1042.3 437.72) rotate(67.929) scale(.08 -.08)">
<use xlink:href="#p"/>
</g>
</g>
<path d="m1061.7 441.15 3.6878 4.5477q1.5117 1.8641 3.3758 0.35246l6.0137-4.8767q1.8641-1.5117 0.35246-3.3758l-3.6878-4.5477q-1.5117-1.8641-3.3758-0.35246l-6.0137 4.8767q-1.8641 1.5117-0.35246 3.3758z" clip-path="url(#a)" fill="#fff" stroke="#fff"/>
<g clip-path="url(#a)">
<g transform="translate(1064.9 438.59) rotate(50.961) scale(.08 -.08)">
<use xlink:href="#o"/>
</g>
</g>
<path d="m924.02 535.38v35.285q0 2.4 2.4 2.4h7.7425q2.4 0 2.4-2.4v-35.285q0-2.4-2.4-2.4h-7.7425q-2.4 0-2.4 2.4z" clip-path="url(#a)" fill="#fff" stroke="#fff"/>
<g clip-path="url(#a)">
<g transform="translate(928.08 535.38) rotate(90) scale(.08 -.08)">
<use xlink:href="#k"/>
<use x="60.818359" xlink:href="#f"/>
<use x="122.341797" xlink:href="#g"/>
<use x="163.439453" xlink:href="#l"/>
<use x="260.851562" xlink:href="#e"/>
<use x="288.634766" xlink:href="#j"/>
<use x="352.013672" xlink:href="#d"/>
<use x="413.292969" xlink:href="#i"/>
</g>
</g>
<path d="m970.06 535.38v35.285q0 2.4 2.4 2.4h7.7425q2.4 0 2.4-2.4v-35.285q0-2.4-2.4-2.4h-7.7425q-2.4 0-2.4 2.4z" clip-path="url(#a)" fill="#fff" stroke="#fff"/>
<g clip-path="url(#a)">
<g transform="translate(974.12 535.38) rotate(90) scale(.08 -.08)">
<use xlink:href="#k"/>
<use x="60.818359" xlink:href="#f"/>
<use x="122.341797" xlink:href="#g"/>
<use x="163.439453" xlink:href="#l"/>
<use x="260.851562" xlink:href="#e"/>
<use x="288.634766" xlink:href="#j"/>
<use x="352.013672" xlink:href="#d"/>
<use x="413.292969" xlink:href="#i"/>
</g>
</g>
<path d="m1016.1 535.38v35.285q0 2.4 2.4 2.4h7.7425q2.4 0 2.4-2.4v-35.285q0-2.4-2.4-2.4h-7.7425q-2.4 0-2.4 2.4z" clip-path="url(#a)" fill="#fff" stroke="#fff"/>
<g clip-path="url(#a)">
<g transform="translate(1020.2 535.38) rotate(90) scale(.08 -.08)">
<use xlink:href="#k"/>
<use x="60.818359" xlink:href="#f"/>
<use x="122.341797" xlink:href="#g"/>
<use x="163.439453" xlink:href="#l"/>
<use x="260.851562" xlink:href="#e"/>
<use x="288.634766" xlink:href="#j"/>
<use x="352.013672" xlink:href="#d"/>
<use x="413.292969" xlink:href="#i"/>
</g>
</g>
<path d="m1062.1 535.38v35.285q0 2.4 2.4 2.4h7.7425q2.4 0 2.4-2.4v-35.285q0-2.4-2.4-2.4h-7.7425q-2.4 0-2.4 2.4z" clip-path="url(#a)" fill="#fff" stroke="#fff"/>
<g clip-path="url(#a)">
<g transform="translate(1066.2 535.38) rotate(90) scale(.08 -.08)">
<use xlink:href="#k"/>
<use x="60.818359" xlink:href="#f"/>
<use x="122.341797" xlink:href="#g"/>
<use x="163.439453" xlink:href="#l"/>
<use x="260.851562" xlink:href="#e"/>
<use x="288.634766" xlink:href="#j"/>
<use x="352.013672" xlink:href="#d"/>
<use x="413.292969" xlink:href="#i"/>
</g>
</g>
<path d="m325.48 535.38v35.285q0 2.4 2.4 2.4h7.7425q2.4 0 2.4-2.4v-35.285q0-2.4-2.4-2.4h-7.7425q-2.4 0-2.4 2.4z" clip-path="url(#a)" fill="#fff" stroke="#fff"/>
<g clip-path="url(#a)">
<g transform="translate(329.55 535.38) rotate(90) scale(.08 -.08)">
<use xlink:href="#k"/>
<use x="60.818359" xlink:href="#f"/>
<use x="122.341797" xlink:href="#g"/>
<use x="163.439453" xlink:href="#l"/>
<use x="260.851562" xlink:href="#e"/>
<use x="288.634766" xlink:href="#j"/>
<use x="352.013672" xlink:href="#d"/>
<use x="413.292969" xlink:href="#i"/>
</g>
</g>
<path d="m371.52 535.38v35.285q0 2.4 2.4 2.4h7.7425q2.4 0 2.4-2.4v-35.285q0-2.4-2.4-2.4h-7.7425q-2.4 0-2.4 2.4z" clip-path="url(#a)" fill="#fff" stroke="#fff"/>
<g clip-path="url(#a)">
<g transform="translate(375.59 535.38) rotate(90) scale(.08 -.08)">
<use xlink:href="#k"/>
<use x="60.818359" xlink:href="#f"/>
<use x="122.341797" xlink:href="#g"/>
<use x="163.439453" xlink:href="#l"/>
<use x="260.851562" xlink:href="#e"/>
<use x="288.634766" xlink:href="#j"/>
<use x="352.013672" xlink:href="#d"/>
<use x="413.292969" xlink:href="#i"/>
</g>
</g>
<path d="m540.76 446.09 4.3152-3.5476q1.8539-1.5241 0.3298-3.3781l-4.9169-5.9808q-1.5241-1.8539-3.3781-0.3298l-4.3152 3.5476q-1.8539 1.5241-0.3298 3.3781l4.9169 5.9808q1.5241 1.8539 3.3781 0.3298z" clip-path="url(#a)" fill="#fff" stroke="#fff"/>
<g clip-path="url(#a)">
<g transform="translate(538.18 442.95) rotate(-39.424) scale(.08 -.08)">
<use xlink:href="#p"/>
</g>
</g>
<path d="m589.74 444.42 2.099-5.1769q0.9018-2.2241-1.3223-3.1259l-7.1751-2.9092q-2.2241-0.9018-3.1259 1.3223l-2.099 5.1769q-0.9018 2.2241 1.3223 3.1259l7.1751 2.9092q2.2241 0.9018 3.1259-1.3223z" clip-path="url(#a)" fill="#fff" stroke="#fff"/>
<g clip-path="url(#a)">
<g transform="translate(585.98 442.89) rotate(-67.929) scale(.08 -.08)">
<use xlink:href="#p"/>
</g>
</g>
<path d="m624.16 439.24 2.099 5.1769q0.9018 2.2241 3.1259 1.3223l7.1751-2.9092q2.2241-0.9018 1.3223-3.1259l-2.099-5.1769q-0.9018-2.2241-3.1259-1.3223l-7.1751 2.9092q-2.2241 0.9018-1.3223 3.1259z" clip-path="url(#a)" fill="#fff" stroke="#fff"/>
<g clip-path="url(#a)">
<g transform="translate(627.93 437.72) rotate(67.929) scale(.08 -.08)">
<use xlink:href="#p"/>
</g>
</g>
<path d="m670.92 442.55 4.3152 3.5476q1.8539 1.5241 3.3781-0.3298l4.9169-5.9808q1.5241-1.8539-0.3298-3.3781l-4.3152-3.5476q-1.8539-1.5241-3.3781 0.3298l-4.9169 5.9808q-1.5241 1.8539 0.3298 3.3781z" clip-path="url(#a)" fill="#fff" stroke="#fff"/>
<g clip-path="url(#a)">
<g transform="translate(673.5 439.41) rotate(39.424) scale(.08 -.08)">
<use xlink:href="#p"/>
</g>
</g>
<path d="m564.99 445.7 3.6878-4.5477q1.5117-1.8641-0.35246-3.3758l-6.0137-4.8767q-1.8641-1.5117-3.3758 0.35246l-3.6878 4.5477q-1.5117 1.8641 0.35246 3.3758l6.0137 4.8767q1.8641 1.5117 3.3758-0.35246z" clip-path="url(#a)" fill="#fff" stroke="#fff"/>
<g clip-path="url(#a)">
<g transform="translate(561.83 443.14) rotate(-50.961) scale(.08 -.08)">
<use xlink:href="#o"/>
</g>
</g>
<path d="m601.73 436.55v5.855q0 2.4 2.4 2.4h7.7425q2.4 0 2.4-2.4v-5.855q0-2.4-2.4-2.4h-7.7425q-2.4 0-2.4 2.4z" clip-path="url(#a)" fill="#fff" stroke="#fff"/>
<g clip-path="url(#a)">
<g transform="translate(605.79 436.55) rotate(90) scale(.08 -.08)">
<use xlink:href="#o"/>
</g>
</g>
<path d="m647.33 441.15 3.6878 4.5477q1.5117 1.8641 3.3758 0.35246l6.0137-4.8767q1.8641-1.5117 0.35246-3.3758l-3.6878-4.5477q-1.5117-1.8641-3.3758-0.35246l-6.0137 4.8767q-1.8641 1.5117-0.35246 3.3758z" clip-path="url(#a)" fill="#fff" stroke="#fff"/>
<g clip-path="url(#a)">
<g transform="translate(650.48 438.59) rotate(50.961) scale(.08 -.08)">
<use xlink:href="#o"/>
</g>
</g>
<path d="m463.61 535.38v35.285q0 2.4 2.4 2.4h7.7425q2.4 0 2.4-2.4v-35.285q0-2.4-2.4-2.4h-7.7425q-2.4 0-2.4 2.4z" clip-path="url(#a)" fill="#fff" stroke="#fff"/>
<g clip-path="url(#a)">
<g transform="translate(467.67 535.38) rotate(90) scale(.08 -.08)">
<use xlink:href="#k"/>
<use x="60.818359" xlink:href="#f"/>
<use x="122.341797" xlink:href="#g"/>
<use x="163.439453" xlink:href="#l"/>
<use x="260.851562" xlink:href="#e"/>
<use x="288.634766" xlink:href="#j"/>
<use x="352.013672" xlink:href="#d"/>
<use x="413.292969" xlink:href="#i"/>
</g>
</g>
<path d="m555.69 535.38v35.285q0 2.4 2.4 2.4h7.7425q2.4 0 2.4-2.4v-35.285q0-2.4-2.4-2.4h-7.7425q-2.4 0-2.4 2.4z" clip-path="url(#a)" fill="#fff" stroke="#fff"/>
<g clip-path="url(#a)">
<g transform="translate(559.75 535.38) rotate(90) scale(.08 -.08)">
<use xlink:href="#k"/>
<use x="60.818359" xlink:href="#f"/>
<use x="122.341797" xlink:href="#g"/>
<use x="163.439453" xlink:href="#l"/>
<use x="260.851562" xlink:href="#e"/>
<use x="288.634766" xlink:href="#j"/>
<use x="352.013672" xlink:href="#d"/>
<use x="413.292969" xlink:href="#i"/>
</g>
</g>
<path d="m647.77 535.38v35.285q0 2.4 2.4 2.4h7.7425q2.4 0 2.4-2.4v-35.285q0-2.4-2.4-2.4h-7.7425q-2.4 0-2.4 2.4z" clip-path="url(#a)" fill="#fff" stroke="#fff"/>
<g clip-path="url(#a)">
<g transform="translate(651.83 535.38) rotate(90) scale(.08 -.08)">
<use xlink:href="#k"/>
<use x="60.818359" xlink:href="#f"/>
<use x="122.341797" xlink:href="#g"/>
<use x="163.439453" xlink:href="#l"/>
<use x="260.851562" xlink:href="#e"/>
<use x="288.634766" xlink:href="#j"/>
<use x="352.013672" xlink:href="#d"/>
<use x="413.292969" xlink:href="#i"/>
</g>
</g>
<path d="m739.85 535.38v35.285q0 2.4 2.4 2.4h7.7425q2.4 0 2.4-2.4v-35.285q0-2.4-2.4-2.4h-7.7425q-2.4 0-2.4 2.4z" clip-path="url(#a)" fill="#fff" stroke="#fff"/>
<g clip-path="url(#a)">
<g transform="translate(743.92 535.38) rotate(90) scale(.08 -.08)">
<use xlink:href="#k"/>
<use x="60.818359" xlink:href="#f"/>
<use x="122.341797" xlink:href="#g"/>
<use x="163.439453" xlink:href="#l"/>
<use x="260.851562" xlink:href="#e"/>
<use x="288.634766" xlink:href="#j"/>
<use x="352.013672" xlink:href="#d"/>
<use x="413.292969" xlink:href="#i"/>
</g>
</g>
<path d="m95.278 535.38v35.285q0 2.4 2.4 2.4h7.7425q2.4 0 2.4-2.4v-35.285q0-2.4-2.4-2.4h-7.7425q-2.4 0-2.4 2.4z" clip-path="url(#a)" fill="#fff" stroke="#fff"/>
<g clip-path="url(#a)">
<g transform="translate(99.342 535.38) rotate(90) scale(.08 -.08)">
<use xlink:href="#k"/>
<use x="60.818359" xlink:href="#f"/>
<use x="122.341797" xlink:href="#g"/>
<use x="163.439453" xlink:href="#l"/>
<use x="260.851562" xlink:href="#e"/>
<use x="288.634766" xlink:href="#j"/>
<use x="352.013672" xlink:href="#d"/>
<use x="413.292969" xlink:href="#i"/>
</g>
</g>
<path d="m279.44 535.38v35.285q0 2.4 2.4 2.4h7.7425q2.4 0 2.4-2.4v-35.285q0-2.4-2.4-2.4h-7.7425q-2.4 0-2.4 2.4z" clip-path="url(#a)" fill="#fff" stroke="#fff"/>
<g clip-path="url(#a)">
<g transform="translate(283.51 535.38) rotate(90) scale(.08 -.08)">
<use xlink:href="#k"/>
<use x="60.818359" xlink:href="#f"/>
<use x="122.341797" xlink:href="#g"/>
<use x="163.439453" xlink:href="#l"/>
<use x="260.851562" xlink:href="#e"/>
<use x="288.634766" xlink:href="#j"/>
<use x="352.013672" xlink:href="#d"/>
<use x="413.292969" xlink:href="#i"/>
</g>
</g>
<path d="m417.57 535.38v35.285q0 2.4 2.4 2.4h7.7425q2.4 0 2.4-2.4v-35.285q0-2.4-2.4-2.4h-7.7425q-2.4 0-2.4 2.4z" clip-path="url(#a)" fill="#fff" stroke="#fff"/>
<g clip-path="url(#a)">
<g transform="translate(421.63 535.38) rotate(90) scale(.08 -.08)">
<use xlink:href="#k"/>
<use x="60.818359" xlink:href="#f"/>
<use x="122.341797" xlink:href="#g"/>
<use x="163.439453" xlink:href="#l"/>
<use x="260.851562" xlink:href="#e"/>
<use x="288.634766" xlink:href="#j"/>
<use x="352.013672" xlink:href="#d"/>
<use x="413.292969" xlink:href="#i"/>
</g>
</g>
<path d="m141.32 535.38v35.285q0 2.4 2.4 2.4h7.7425q2.4 0 2.4-2.4v-35.285q0-2.4-2.4-2.4h-7.7425q-2.4 0-2.4 2.4z" clip-path="url(#a)" fill="#fff" stroke="#fff"/>
<g clip-path="url(#a)">
<g transform="translate(145.38 535.38) rotate(90) scale(.08 -.08)">
<use xlink:href="#k"/>
<use x="60.818359" xlink:href="#f"/>
<use x="122.341797" xlink:href="#g"/>
<use x="163.439453" xlink:href="#l"/>
<use x="260.851562" xlink:href="#e"/>
<use x="288.634766" xlink:href="#j"/>
<use x="352.013672" xlink:href="#d"/>
<use x="413.292969" xlink:href="#i"/>
</g>
</g>
<path d="m187.36 535.38v35.285q0 2.4 2.4 2.4h7.7425q2.4 0 2.4-2.4v-35.285q0-2.4-2.4-2.4h-7.7425q-2.4 0-2.4 2.4z" clip-path="url(#a)" fill="#fff" stroke="#fff"/>
<g clip-path="url(#a)">
<g transform="translate(191.42 535.38) rotate(90) scale(.08 -.08)">
<use xlink:href="#k"/>
<use x="60.818359" xlink:href="#f"/>
<use x="122.341797" xlink:href="#g"/>
<use x="163.439453" xlink:href="#l"/>
<use x="260.851562" xlink:href="#e"/>
<use x="288.634766" xlink:href="#j"/>
<use x="352.013672" xlink:href="#d"/>
<use x="413.292969" xlink:href="#i"/>
</g>
</g>
<path d="m233.4 535.38v35.285q0 2.4 2.4 2.4h7.7425q2.4 0 2.4-2.4v-35.285q0-2.4-2.4-2.4h-7.7425q-2.4 0-2.4 2.4z" clip-path="url(#a)" fill="#fff" stroke="#fff"/>
<g clip-path="url(#a)">
<g transform="translate(237.47 535.38) rotate(90) scale(.08 -.08)">
<use xlink:href="#k"/>
<use x="60.818359" xlink:href="#f"/>
<use x="122.341797" xlink:href="#g"/>
<use x="163.439453" xlink:href="#l"/>
<use x="260.851562" xlink:href="#e"/>
<use x="288.634766" xlink:href="#j"/>
<use x="352.013672" xlink:href="#d"/>
<use x="413.292969" xlink:href="#i"/>
</g>
</g>
<path d="m509.65 535.38v35.285q0 2.4 2.4 2.4h7.7425q2.4 0 2.4-2.4v-35.285q0-2.4-2.4-2.4h-7.7425q-2.4 0-2.4 2.4z" clip-path="url(#a)" fill="#fff" stroke="#fff"/>
<g clip-path="url(#a)">
<g transform="translate(513.71 535.38) rotate(90) scale(.08 -.08)">
<use xlink:href="#k"/>
<use x="60.818359" xlink:href="#f"/>
<use x="122.341797" xlink:href="#g"/>
<use x="163.439453" xlink:href="#l"/>
<use x="260.851562" xlink:href="#e"/>
<use x="288.634766" xlink:href="#j"/>
<use x="352.013672" xlink:href="#d"/>
<use x="413.292969" xlink:href="#i"/>
</g>
</g>
<path d="m601.73 535.38v35.285q0 2.4 2.4 2.4h7.7425q2.4 0 2.4-2.4v-35.285q0-2.4-2.4-2.4h-7.7425q-2.4 0-2.4 2.4z" clip-path="url(#a)" fill="#fff" stroke="#fff"/>
<g clip-path="url(#a)">
<g transform="translate(605.79 535.38) rotate(90) scale(.08 -.08)">
<use xlink:href="#k"/>
<use x="60.818359" xlink:href="#f"/>
<use x="122.341797" xlink:href="#g"/>
<use x="163.439453" xlink:href="#l"/>
<use x="260.851562" xlink:href="#e"/>
<use x="288.634766" xlink:href="#j"/>
<use x="352.013672" xlink:href="#d"/>
<use x="413.292969" xlink:href="#i"/>
</g>
</g>
<path d="m693.81 535.38v35.285q0 2.4 2.4 2.4h7.7425q2.4 0 2.4-2.4v-35.285q0-2.4-2.4-2.4h-7.7425q-2.4 0-2.4 2.4z" clip-path="url(#a)" fill="#fff" stroke="#fff"/>
<g clip-path="url(#a)">
<g transform="translate(697.87 535.38) rotate(90) scale(.08 -.08)">
<use xlink:href="#k"/>
<use x="60.818359" xlink:href="#f"/>
<use x="122.341797" xlink:href="#g"/>
<use x="163.439453" xlink:href="#l"/>
<use x="260.851562" xlink:href="#e"/>
<use x="288.634766" xlink:href="#j"/>
<use x="352.013672" xlink:href="#d"/>
<use x="413.292969" xlink:href="#i"/>
</g>
</g>
<path d="m785.89 535.38v35.285q0 2.4 2.4 2.4h7.7425q2.4 0 2.4-2.4v-35.285q0-2.4-2.4-2.4h-7.7425q-2.4 0-2.4 2.4z" clip-path="url(#a)" fill="#fff" stroke="#fff"/>
<g clip-path="url(#a)">
<g transform="translate(789.96 535.38) rotate(90) scale(.08 -.08)">
<use xlink:href="#k"/>
<use x="60.818359" xlink:href="#f"/>
<use x="122.341797" xlink:href="#g"/>
<use x="163.439453" xlink:href="#l"/>
<use x="260.851562" xlink:href="#e"/>
<use x="288.634766" xlink:href="#j"/>
<use x="352.013672" xlink:href="#d"/>
<use x="413.292969" xlink:href="#i"/>
</g>
</g>
<path d="m1108.2 535.38v35.285q0 2.4 2.4 2.4h7.7425q2.4 0 2.4-2.4v-35.285q0-2.4-2.4-2.4h-7.7425q-2.4 0-2.4 2.4z" clip-path="url(#a)" fill="#fff" stroke="#fff"/>
<g clip-path="url(#a)">
<g transform="translate(1112.2 535.38) rotate(90) scale(.08 -.08)">
<use xlink:href="#k"/>
<use x="60.818359" xlink:href="#f"/>
<use x="122.341797" xlink:href="#g"/>
<use x="163.439453" xlink:href="#l"/>
<use x="260.851562" xlink:href="#e"/>
<use x="288.634766" xlink:href="#j"/>
<use x="352.013672" xlink:href="#d"/>
<use x="413.292969" xlink:href="#i"/>
</g>
</g>
<defs>
<path id="b" d="m0 8.6603c2.2967 0 4.4997-0.9125 6.1237-2.5365 1.624-1.624 2.5365-3.827 2.5365-6.1237s-0.9125-4.4997-2.5365-6.1237c-1.624-1.624-3.827-2.5365-6.1237-2.5365s-4.4997 0.9125-6.1237 2.5365c-1.624 1.624-2.5365 3.827-2.5365 6.1237s0.9125 4.4997 2.5365 6.1237c1.624 1.624 3.827 2.5365 6.1237 2.5365z"/>
</defs>
<g clip-path="url(#a)">
<use x="55.508815" y="609.80278" fill="#ffffff" stroke="#ffffff" xlink:href="#b"/>
</g>
<g clip-path="url(#a)">
<use x="101.549747" y="609.80278" fill="#ffffff" stroke="#ffffff" xlink:href="#b"/>
</g>
<g clip-path="url(#a)">
<use x="147.590679" y="609.80278" fill="#ffffff" stroke="#ffffff" xlink:href="#b"/>
</g>
<g clip-path="url(#a)">
<use x="193.631611" y="609.80278" fill="#ffffff" stroke="#ffffff" xlink:href="#b"/>
</g>
<g clip-path="url(#a)">
<use x="239.672543" y="609.80278" fill="#ffffff" stroke="#ffffff" xlink:href="#b"/>
</g>
<g clip-path="url(#a)">
<use x="285.713475" y="609.80278" fill="#ffffff" stroke="#ffffff" xlink:href="#b"/>
</g>
<g clip-path="url(#a)">
<use x="331.754408" y="609.80278" fill="#ffffff" stroke="#ffffff" xlink:href="#b"/>
</g>
<g clip-path="url(#a)">
<use x="377.79534" y="609.80278" fill="#ffffff" stroke="#ffffff" xlink:href="#b"/>
</g>
<g clip-path="url(#a)">
<use x="423.836272" y="609.80278" fill="#ffffff" stroke="#ffffff" xlink:href="#b"/>
</g>
<g clip-path="url(#a)">
<use x="469.877204" y="609.80278" fill="#ffffff" stroke="#ffffff" xlink:href="#b"/>
</g>
<g clip-path="url(#a)">
<use x="515.918136" y="609.80278" fill="#ffffff" stroke="#ffffff" xlink:href="#b"/>
</g>
<g clip-path="url(#a)">
<use x="561.959068" y="609.80278" fill="#ffffff" stroke="#ffffff" xlink:href="#b"/>
</g>
<g clip-path="url(#a)">
<use x="608" y="609.80278" fill="#ffffff" stroke="#ffffff" xlink:href="#b"/>
</g>
<g clip-path="url(#a)">
<use x="654.040932" y="609.80278" fill="#ffffff" stroke="#ffffff" xlink:href="#b"/>
</g>
<g clip-path="url(#a)">
<use x="700.081864" y="609.80278" fill="#ffffff" stroke="#ffffff" xlink:href="#b"/>
</g>
<g clip-path="url(#a)">
<use x="746.122796" y="609.80278" fill="#ffffff" stroke="#ffffff" xlink:href="#b"/>
</g>
<g clip-path="url(#a)">
<use x="792.163728" y="609.80278" fill="#ffffff" stroke="#ffffff" xlink:href="#b"/>
</g>
<g clip-path="url(#a)">
<use x="838.20466" y="609.80278" fill="#ffffff" stroke="#ffffff" xlink:href="#b"/>
</g>
<g clip-path="url(#a)">
<use x="884.245592" y="609.80278" fill="#ffffff" stroke="#ffffff" xlink:href="#b"/>
</g>
<g clip-path="url(#a)">
<use x="930.286525" y="609.80278" fill="#ffffff" stroke="#ffffff" xlink:href="#b"/>
</g>
<g clip-path="url(#a)">
<use x="976.327457" y="609.80278" fill="#ffffff" stroke="#ffffff" xlink:href="#b"/>
</g>
<g clip-path="url(#a)">
<use x="1022.368389" y="609.80278" fill="#ffffff" stroke="#ffffff" xlink:href="#b"/>
</g>
<g clip-path="url(#a)">
<use x="1068.409321" y="609.80278" fill="#ffffff" stroke="#ffffff" xlink:href="#b"/>
</g>
<g clip-path="url(#a)">
<use x="1114.450253" y="609.80278" fill="#ffffff" stroke="#ffffff" xlink:href="#b"/>
</g>
<g clip-path="url(#a)">
<use x="576.922371" y="30.19722" fill="#ffffff" stroke="#ffffff" xlink:href="#b"/>
</g>
<g clip-path="url(#a)">
<use x="576.922371" y="150.219397" fill="#ffffff" stroke="#ffffff" xlink:href="#b"/>
</g>
<g clip-path="url(#a)">
<use x="1160.491185" y="609.80278" fill="#ffffff" stroke="#ffffff" xlink:href="#b"/>
</g>
<g clip-path="url(#a)">
<use x="55.508815" y="496.250985" fill="#ffffff" stroke="#ffffff" xlink:href="#b"/>
</g>
<g clip-path="url(#a)">
<use x="193.631611" y="382.69919" fill="#ffffff" stroke="#ffffff" xlink:href="#b"/>
</g>
<g clip-path="url(#a)">
<use x="435.346505" y="267.567765" fill="#ffffff" stroke="#ffffff" xlink:href="#b"/>
</g>
<g clip-path="url(#a)">
<use x="838.20466" y="496.250985" fill="#ffffff" stroke="#ffffff" xlink:href="#b"/>
</g>
<g clip-path="url(#a)">
<use x="884.245592" y="496.250985" fill="#ffffff" stroke="#ffffff" xlink:href="#b"/>
</g>
<g clip-path="url(#a)">
<use x="1022.368389" y="382.69919" fill="#ffffff" stroke="#ffffff" xlink:href="#b"/>
</g>
<g clip-path="url(#a)">
<use x="930.286525" y="496.250985" fill="#ffffff" stroke="#ffffff" xlink:href="#b"/>
</g>
<g clip-path="url(#a)">
<use x="976.327457" y="496.250985" fill="#ffffff" stroke="#ffffff" xlink:href="#b"/>
</g>
<g clip-path="url(#a)">
<use x="1022.368389" y="496.250985" fill="#ffffff" stroke="#ffffff" xlink:href="#b"/>
</g>
<g clip-path="url(#a)">
<use x="1068.409321" y="496.250985" fill="#ffffff" stroke="#ffffff" xlink:href="#b"/>
</g>
<g clip-path="url(#a)">
<use x="331.754408" y="496.250985" fill="#ffffff" stroke="#ffffff" xlink:href="#b"/>
</g>
<g clip-path="url(#a)">
<use x="377.79534" y="496.250985" fill="#ffffff" stroke="#ffffff" xlink:href="#b"/>
</g>
<g clip-path="url(#a)">
<use x="608" y="382.69919" fill="#ffffff" stroke="#ffffff" xlink:href="#b"/>
</g>
<g clip-path="url(#a)">
<use x="469.877204" y="496.250985" fill="#ffffff" stroke="#ffffff" xlink:href="#b"/>
</g>
<g clip-path="url(#a)">
<use x="561.959068" y="496.250985" fill="#ffffff" stroke="#ffffff" xlink:href="#b"/>
</g>
<g clip-path="url(#a)">
<use x="654.040932" y="496.250985" fill="#ffffff" stroke="#ffffff" xlink:href="#b"/>
</g>
<g clip-path="url(#a)">
<use x="746.122796" y="496.250985" fill="#ffffff" stroke="#ffffff" xlink:href="#b"/>
</g>
<g clip-path="url(#a)">
<use x="101.549747" y="496.250985" fill="#ffffff" stroke="#ffffff" xlink:href="#b"/>
</g>
<g clip-path="url(#a)">
<use x="285.713475" y="496.250985" fill="#ffffff" stroke="#ffffff" xlink:href="#b"/>
</g>
<g clip-path="url(#a)">
<use x="423.836272" y="496.250985" fill="#ffffff" stroke="#ffffff" xlink:href="#b"/>
</g>
<g clip-path="url(#a)">
<use x="147.590679" y="496.250985" fill="#ffffff" stroke="#ffffff" xlink:href="#b"/>
</g>
<g clip-path="url(#a)">
<use x="193.631611" y="496.250985" fill="#ffffff" stroke="#ffffff" xlink:href="#b"/>
</g>
<g clip-path="url(#a)">
<use x="239.672543" y="496.250985" fill="#ffffff" stroke="#ffffff" xlink:href="#b"/>
</g>
<g clip-path="url(#a)">
<use x="515.918136" y="496.250985" fill="#ffffff" stroke="#ffffff" xlink:href="#b"/>
</g>
<g clip-path="url(#a)">
<use x="608" y="496.250985" fill="#ffffff" stroke="#ffffff" xlink:href="#b"/>
</g>
<g clip-path="url(#a)">
<use x="700.081864" y="496.250985" fill="#ffffff" stroke="#ffffff" xlink:href="#b"/>
</g>
<g clip-path="url(#a)">
<use x="792.163728" y="496.250985" fill="#ffffff" stroke="#ffffff" xlink:href="#b"/>
</g>
<g clip-path="url(#a)">
<use x="1114.450253" y="496.250985" fill="#ffffff" stroke="#ffffff" xlink:href="#b"/>
</g>
<g clip-path="url(#a)">
<defs>
<path id="ah" d="m30.609 48.391q-7.2188 0-11.422-5.6406t-4.2031-15.453 4.1719-15.453q4.1875-5.6406 11.453-5.6406 7.1875 0 11.375 5.6562 4.2031 5.6719 4.2031 15.438 0 9.7188-4.2031 15.406-4.1875 5.6875-11.375 5.6875zm0 7.6094q11.719 0 18.406-7.625 6.7031-7.6094 6.7031-21.078 0-13.422-6.7031-21.078-6.6875-7.6406-18.406-7.6406-11.766 0-18.438 7.6406-6.6562 7.6562-6.6562 21.078 0 13.469 6.6562 21.078 6.6719 7.625 18.438 7.625z"/>
<path id="am" d="m32.172-5.0781q-3.7969-9.7656-7.4219-12.734-3.6094-2.9844-9.6562-2.9844h-7.1875v7.5156h5.2812q3.7031 0 5.75 1.7656 2.0625 1.75 4.5469 8.2969l1.6094 4.0938-22.109 53.812h9.5156l17.094-42.766 17.094 42.766h9.5156z"/>
</defs>
<g transform="translate(33.171 612.56) scale(.1 -.1)">
<use xlink:href="#al"/>
<use x="57.472656" xlink:href="#ah"/>
<use x="118.654297" xlink:href="#g"/>
<use x="159.751953" xlink:href="#l"/>
<use x="257.164062" xlink:href="#f"/>
<use x="318.6875" xlink:href="#g"/>
<use x="359.800781" xlink:href="#i"/>
<use x="387.583984" xlink:href="#am"/>
</g>
</g>
<g clip-path="url(#a)">
<defs>
<path id="s" d="m11.719 12.406h10.297v-8.4062l-8-15.625h-6.2969l4 15.625z"/>
</defs>
<g transform="translate(99.961 612.56) scale(.1 -.1)">
<use xlink:href="#s"/>
</g>
</g>
<g clip-path="url(#a)">
<g transform="translate(143.03 612.56) scale(.1 -.1)">
<use xlink:href="#e"/>
<use x="27.783203" xlink:href="#j"/>
</g>
</g>
<g clip-path="url(#a)">
<defs>
<path id="x" d="m18.109 8.2031v-29h-9.0312v75.484h9.0312v-8.2969q2.8438 4.875 7.1562 7.2344 4.3281 2.375 10.328 2.375 9.9688 0 16.188-7.9062 6.2344-7.9062 6.2344-20.797t-6.2344-20.812q-6.2188-7.9062-16.188-7.9062-6 0-10.328 2.375-4.3125 2.375-7.1562 7.25zm30.578 19.094q0 9.9062-4.0781 15.547t-11.203 5.6406q-7.1406 0-11.219-5.6406t-4.0781-15.547 4.0781-15.547 11.219-5.6406q7.125 0 11.203 5.6406t4.0781 15.547z"/>
<path id="av" d="m54.891 33.016v-33.016h-8.9844v32.719q0 7.7656-3.0312 11.609-3.0312 3.8594-9.0781 3.8594-7.2812 0-11.484-4.6406-4.2031-4.625-4.2031-12.641v-30.906h-9.0312v75.984h9.0312v-29.797q3.2344 4.9375 7.5938 7.375 4.375 2.4375 10.094 2.4375 9.4219 0 14.25-5.8281 4.8438-5.8281 4.8438-17.156z"/>
<path id="q" d="m44.281 53.078v-8.5q-3.7969 1.9531-7.9062 2.9219-4.0938 0.98438-8.5 0.98438-6.6875 0-10.031-2.0469t-3.3438-6.1562q0-3.125 2.3906-4.9062t9.625-3.3906l3.0781-0.6875q9.5625-2.0469 13.594-5.7812t4.0312-10.422q0-7.625-6.0312-12.078-6.0312-4.4375-16.578-4.4375-4.3906 0-9.1562 0.85938t-10.031 2.5625v9.2812q4.9844-2.5938 9.8125-3.8906 4.8281-1.2812 9.5781-1.2812 6.3438 0 9.75 2.1719 3.4219 2.1719 3.4219 6.125 0 3.6562-2.4688 5.6094-2.4531 1.9531-10.812 3.7656l-3.125 0.73438q-8.3438 1.75-12.062 5.3906-3.7031 3.6406-3.7031 9.9844 0 7.7188 5.4688 11.906 5.4688 4.2031 15.531 4.2031 4.9688 0 9.3594-0.73438 4.4062-0.71875 8.1094-2.1875z"/>
<path id="w" d="m18.312 70.219v-15.531h18.5v-6.9844h-18.5v-29.688q0-6.6875 1.8281-8.5938t7.4531-1.9062h9.2188v-7.5156h-9.2188q-10.406 0-14.359 3.875-3.9531 3.8906-3.9531 14.141v29.688h-6.5938v6.9844h6.5938v15.531z"/>
<path id="y" d="m48.781 52.594v-8.4062q-3.8125 2.1094-7.6406 3.1562t-7.7344 1.0469q-8.75 0-13.594-5.5469-4.8281-5.5312-4.8281-15.547t4.8281-15.562q4.8438-5.5312 13.594-5.5312 3.9062 0 7.7344 1.0469t7.6406 3.1562v-8.3125q-3.7656-1.75-7.7969-2.625-4.0156-0.89062-8.5625-0.89062-12.359 0-19.641 7.7656-7.2656 7.7656-7.2656 20.953 0 13.375 7.3438 21.031 7.3594 7.6719 20.156 7.6719 4.1406 0 8.0938-0.85938 3.9531-0.84375 7.6719-2.5469z"/>
</defs>
<g transform="translate(166.95 612.56) scale(.1 -.1)">
<use xlink:href="#x"/>
<use x="63.476562" xlink:href="#g"/>
<use x="104.558594" xlink:href="#f"/>
<use x="166.082031" xlink:href="#av"/>
<use x="229.460938" xlink:href="#e"/>
<use x="257.244141" xlink:href="#q"/>
<use x="309.34375" xlink:href="#w"/>
<use x="348.552734" xlink:href="#ah"/>
<use x="409.734375" xlink:href="#g"/>
<use x="450.847656" xlink:href="#e"/>
<use x="478.630859" xlink:href="#y"/>
</g>
</g>
<g clip-path="url(#a)">
<defs>
<path id="t" d="m45.406 46.391v29.594h8.9844v-75.984h-8.9844v8.2031q-2.8281-4.875-7.1562-7.25-4.3125-2.375-10.375-2.375-9.9062 0-16.141 7.9062-6.2188 7.9219-6.2188 20.812t6.2188 20.797q6.2344 7.9062 16.141 7.9062 6.0625 0 10.375-2.375 4.3281-2.3594 7.1562-7.2344zm-30.609-19.094q0-9.9062 4.0781-15.547t11.203-5.6406 11.219 5.6406q4.1094 5.6406 4.1094 15.547t-4.1094 15.547q-4.0938 5.6406-11.219 5.6406t-11.203-5.6406-4.0781-15.547z"/>
</defs>
<g transform="translate(227.87 612.56) scale(.1 -.1)">
<use xlink:href="#t"/>
<use x="63.476562" xlink:href="#d"/>
<use x="124.755859" xlink:href="#am"/>
<use x="183.935547" xlink:href="#q"/>
</g>
</g>
<g clip-path="url(#a)">
<g transform="translate(284.12 612.56) scale(.1 -.1)">
<use xlink:href="#s"/>
</g>
</g>
<g clip-path="url(#a)">
<g transform="translate(320.96 612.56) scale(.1 -.1)">
<use xlink:href="#i"/>
<use x="27.783203" xlink:href="#d"/>
<use x="89.0625" xlink:href="#j"/>
<use x="152.441406" xlink:href="#t"/>
</g>
</g>
<g clip-path="url(#a)">
<g transform="translate(358.25 612.56) scale(.1 -.1)">
<use xlink:href="#d"/>
<use x="61.279297" xlink:href="#j"/>
<use x="124.658203" xlink:href="#e"/>
<use x="152.441406" xlink:href="#l"/>
<use x="249.853516" xlink:href="#d"/>
<use x="311.132812" xlink:href="#i"/>
<use x="338.916016" xlink:href="#q"/>
</g>
</g>
<g clip-path="url(#a)">
<defs>
<path id="as" d="m31 75.875q-6.5312-11.219-9.7188-22.219-3.1719-10.984-3.1719-22.266 0-11.266 3.2031-22.328t9.6875-22.25h-7.8125q-7.3125 11.484-10.953 22.562t-3.6406 22.016q0 10.891 3.6094 21.922 3.625 11.047 10.984 22.562z"/>
</defs>
<g transform="translate(421.89 612.56) scale(.1 -.1)">
<use xlink:href="#as"/>
</g>
</g>
<g clip-path="url(#a)">
<defs>
<path id="au" d="m14.797 27.297q0-9.9062 4.0781-15.547t11.203-5.6406 11.219 5.6406q4.1094 5.6406 4.1094 15.547t-4.1094 15.547q-4.0938 5.6406-11.219 5.6406t-11.203-5.6406-4.0781-15.547zm30.609-19.094q-2.8281-4.875-7.1562-7.25-4.3125-2.375-10.375-2.375-9.9062 0-16.141 7.9062-6.2188 7.9219-6.2188 20.812t6.2188 20.797q6.2344 7.9062 16.141 7.9062 6.0625 0 10.375-2.375 4.3281-2.3594 7.1562-7.2344v8.2969h8.9844v-75.484h-8.9844z"/>
<path id="ag" d="m8.5 21.578v33.109h8.9844v-32.766q0-7.7656 3.0156-11.656 3.0312-3.875 9.0938-3.875 7.2656 0 11.484 4.6406 4.2344 4.6406 4.2344 12.656v31h8.9844v-54.688h-8.9844v8.4062q-3.2656-4.9844-7.5938-7.4062-4.3125-2.4219-10.031-2.4219-9.4219 0-14.312 5.8594-4.875 5.8594-4.875 17.141z"/>
</defs>
<g transform="translate(440.04 612.56) scale(.1 -.1)">
<use xlink:href="#au"/>
<use x="63.476562" xlink:href="#ag"/>
<use x="126.855469" xlink:href="#d"/>
<use x="188.134766" xlink:href="#t"/>
<use x="251.611328" xlink:href="#g"/>
<use x="292.724609" xlink:href="#ag"/>
<use x="356.103516" xlink:href="#x"/>
<use x="419.580078" xlink:href="#f"/>
<use x="481.103516" xlink:href="#t"/>
<use x="544.580078" xlink:href="#q"/>
</g>
</g>
<g clip-path="url(#a)">
<g transform="translate(514.33 612.56) scale(.1 -.1)">
<use xlink:href="#s"/>
</g>
</g>
<g clip-path="url(#a)">
<g transform="translate(550.04 612.56) scale(.1 -.1)">
<use xlink:href="#d"/>
<use x="61.279297" xlink:href="#x"/>
<use x="124.755859" xlink:href="#f"/>
<use x="186.279297" xlink:href="#q"/>
</g>
</g>
<g clip-path="url(#a)">
<g transform="translate(606.41 612.56) scale(.1 -.1)">
<use xlink:href="#s"/>
</g>
</g>
<g clip-path="url(#a)">
<g transform="translate(635.32 612.56) scale(.1 -.1)">
<use xlink:href="#g"/>
<use x="41.082031" xlink:href="#f"/>
<use x="102.605469" xlink:href="#x"/>
<use x="166.082031" xlink:href="#w"/>
<use x="205.291016" xlink:href="#e"/>
<use x="233.074219" xlink:href="#i"/>
<use x="260.857422" xlink:href="#f"/>
<use x="322.380859" xlink:href="#q"/>
</g>
</g>
<g clip-path="url(#a)">
<g transform="translate(698.49 612.56) scale(.1 -.1)">
<use xlink:href="#s"/>
</g>
</g>
<g clip-path="url(#a)">
<defs>
<path id="ai" d="m48.688 27.297q0 9.9062-4.0781 15.547t-11.203 5.6406q-7.1406 0-11.219-5.6406t-4.0781-15.547 4.0781-15.547 11.219-5.6406q7.125 0 11.203 5.6406t4.0781 15.547zm-30.578 19.094q2.8438 4.875 7.1562 7.2344 4.3281 2.375 10.328 2.375 9.9688 0 16.188-7.9062 6.2344-7.9062 6.2344-20.797t-6.2344-20.812q-6.2188-7.9062-16.188-7.9062-6 0-10.328 2.375-4.3125 2.375-7.1562 7.25v-8.2031h-9.0312v75.984h9.0312z"/>
</defs>
<g transform="translate(733.73 612.56) scale(.1 -.1)">
<use xlink:href="#ai"/>
<use x="63.476562" xlink:href="#e"/>
<use x="91.259766" xlink:href="#g"/>
<use x="132.357422" xlink:href="#t"/>
<use x="195.833984" xlink:href="#q"/>
</g>
</g>
<g clip-path="url(#a)">
<defs>
<path id="ar" d="m8.0156 75.875h7.8125q7.3125-11.516 10.953-22.562 3.6406-11.031 3.6406-21.922 0-10.938-3.6406-22.016t-10.953-22.562h-7.8125q6.4844 11.188 9.6875 22.25t3.2031 22.328q0 11.281-3.2031 22.266-3.2031 11-9.6875 22.219z"/>
</defs>
<g transform="translate(790.21 612.56) scale(.1 -.1)">
<use xlink:href="#ar"/>
</g>
</g>
<g clip-path="url(#a)">
<defs>
<path id="at" d="m4.2031 54.688h8.9844l11.234-42.672 11.172 42.672h10.594l11.234-42.672 11.188 42.672h8.9844l-14.312-54.688h-10.594l-11.766 44.828-11.812-44.828h-10.609z"/>
</defs>
<g transform="translate(825.91 612.56) scale(.1 -.1)">
<use xlink:href="#at"/>
<use x="81.787109" xlink:href="#f"/>
<use x="143.310547" xlink:href="#g"/>
<use x="184.392578" xlink:href="#f"/>
</g>
</g>
<g clip-path="url(#a)">
<g transform="translate(873.16 612.56) scale(.1 -.1)">
<use xlink:href="#ai"/>
<use x="63.476562" xlink:href="#ag"/>
<use x="126.855469" xlink:href="#e"/>
<use x="154.638672" xlink:href="#i"/>
<use x="182.421875" xlink:href="#w"/>
</g>
</g>
<g clip-path="url(#a)">
<g transform="translate(924.06 612.56) scale(.1 -.1)">
<use xlink:href="#ah"/>
<use x="61.181641" xlink:href="#j"/>
</g>
</g>
<g clip-path="url(#a)">
<g transform="translate(973.26 612.56) scale(.1 -.1)">
<use xlink:href="#d"/>
</g>
</g>
<g clip-path="url(#a)">
<defs>
<path id="an" d="m45.406 27.984q0 9.7656-4.0312 15.125-4.0156 5.375-11.297 5.375-7.2188 0-11.25-5.375-4.0312-5.3594-4.0312-15.125 0-9.7188 4.0312-15.094t11.25-5.375q7.2812 0 11.297 5.375 4.0312 5.375 4.0312 15.094zm8.9844-21.203q0-13.953-6.2031-20.766-6.1875-6.8125-18.984-6.8125-4.7344 0-8.9375 0.70312t-8.1562 2.1719v8.7344q3.9531-2.1406 7.8125-3.1562 3.8594-1.0312 7.8594-1.0312 8.8438 0 13.234 4.6094t4.3906 13.938v4.4531q-2.7812-4.8438-7.125-7.2344t-10.406-2.3906q-10.047 0-16.203 7.6562-6.1562 7.6719-6.1562 20.328 0 12.688 6.1562 20.344 6.1562 7.6719 16.203 7.6719 6.0625 0 10.406-2.3906t7.125-7.2188v8.2969h8.9844z"/>
</defs>
<g transform="translate(1002.3 612.56) scale(.1 -.1)">
<use xlink:href="#an"/>
<use x="63.476562" xlink:href="#e"/>
<use x="91.259766" xlink:href="#an"/>
<use x="154.736328" xlink:href="#d"/>
<use x="216.015625" xlink:href="#j"/>
<use x="279.394531" xlink:href="#w"/>
<use x="318.603516" xlink:href="#e"/>
<use x="346.386719" xlink:href="#y"/>
</g>
</g>
<g clip-path="url(#a)">
<g transform="translate(1055.5 612.56) scale(.1 -.1)">
<use xlink:href="#q"/>
<use x="52.099609" xlink:href="#y"/>
<use x="107.080078" xlink:href="#d"/>
<use x="168.359375" xlink:href="#i"/>
<use x="196.142578" xlink:href="#f"/>
</g>
</g>
<g clip-path="url(#a)">
<defs>
<path id="h" d="m10.688 12.406h10.312v-12.406h-10.312z"/>
</defs>
<g transform="translate(1112.9 612.56) scale(.1 -.1)">
<use xlink:href="#h"/>
</g>
</g>
<g clip-path="url(#a)">
<defs>
<path id="c" d="m12.406 8.2969h16.109v55.625l-17.531-3.5156v8.9844l17.438 3.5156h9.8594v-64.609h16.109v-8.2969h-41.984z"/>
</defs>
<g transform="translate(568.97 32.957) scale(.1 -.1)">
<use xlink:href="#c"/>
<use x="63.623047" xlink:href="#h"/>
<use x="95.410156" xlink:href="#c"/>
</g>
</g>
<g clip-path="url(#a)">
<defs>
<path id="m" d="m19.188 8.2969h34.422v-8.2969h-46.281v8.2969q5.6094 5.8125 15.297 15.594 9.7031 9.7969 12.188 12.641 4.7344 5.3125 6.6094 9 1.8906 3.6875 1.8906 7.25 0 5.8125-4.0781 9.4688-4.0781 3.6719-10.625 3.6719-4.6406 0-9.7969-1.6094-5.1406-1.6094-11-4.8906v9.9688q5.9531 2.3906 11.125 3.6094 5.1875 1.2188 9.4844 1.2188 11.328 0 18.062-5.6719 6.7344-5.6562 6.7344-15.125 0-4.5-1.6875-8.5312-1.6719-4.0156-6.125-9.4844-1.2188-1.4219-7.7656-8.1875-6.5312-6.7656-18.453-18.922z"/>
</defs>
<g transform="translate(568.97 152.98) scale(.1 -.1)">
<use xlink:href="#c"/>
<use x="63.623047" xlink:href="#h"/>
<use x="95.410156" xlink:href="#m"/>
</g>
</g>
<g clip-path="url(#a)">
<defs>
<path id="z" d="m9.8125 72.906h9.8594v-72.906h-9.8594z"/>
<path id="ao" d="m9.8125 72.906h14.703l18.594-49.609 18.703 49.609h14.703v-72.906h-9.625v64.016l-18.797-50h-9.9062l-18.797 50v-64.016h-9.5781z"/>
<path id="ap" d="m9.8125 72.906h9.8594v-64.609h35.5v-8.2969h-45.359z"/>
</defs>
<g transform="translate(1139.4 612.56) scale(.1 -.1)">
<use xlink:href="#z"/>
<use x="29.492188" xlink:href="#ao"/>
<use x="115.771484" xlink:href="#ak"/>
<use x="176.074219" xlink:href="#ap"/>
<use x="231.787109" xlink:href="#z"/>
<use x="261.279297" xlink:href="#p"/>
<use x="331.103516" xlink:href="#z"/>
<use x="360.595703" xlink:href="#k"/>
</g>
</g>
<g clip-path="url(#a)">
<defs>
<path id="v" d="m10.797 72.906h38.719v-8.3125h-29.688v-17.859q2.1406 0.73438 4.2812 1.0938 2.1562 0.35938 4.3125 0.35938 12.203 0 19.328-6.6875 7.1406-6.6875 7.1406-18.109 0-11.766-7.3281-18.297-7.3281-6.5156-20.656-6.5156-4.5938 0-9.3594 0.78125-4.75 0.78125-9.8281 2.3438v9.9219q4.3906-2.3906 9.0781-3.5625t9.9062-1.1719q8.4531 0 13.375 4.4375 4.9375 4.4375 4.9375 12.062 0 7.6094-4.9375 12.047-4.9219 4.4531-13.375 4.4531-3.9531 0-7.8906-0.875-3.9219-0.875-8.0156-2.7344z"/>
</defs>
<g transform="translate(47.557 499.01) scale(.1 -.1)">
<use xlink:href="#c"/>
<use x="63.623047" xlink:href="#h"/>
<use x="95.410156" xlink:href="#v"/>
</g>
</g>
<g clip-path="url(#a)">
<defs>
<path id="u" d="m33.016 40.375q-6.6406 0-10.531-4.5469-3.875-4.5312-3.875-12.438 0-7.8594 3.875-12.438 3.8906-4.5625 10.531-4.5625t10.516 4.5625q3.875 4.5781 3.875 12.438 0 7.9062-3.875 12.438-3.875 4.5469-10.516 4.5469zm19.578 30.922v-8.9844q-3.7188 1.75-7.5 2.6719-3.7812 0.9375-7.5 0.9375-9.7656 0-14.922-6.5938-5.1406-6.5938-5.875-19.922 2.875 4.25 7.2188 6.5156 4.3594 2.2656 9.5781 2.2656 10.984 0 17.359-6.6719 6.375-6.6562 6.375-18.125 0-11.234-6.6406-18.031-6.6406-6.7812-17.672-6.7812-12.656 0-19.344 9.6875-6.6875 9.7031-6.6875 28.109 0 17.281 8.2031 27.562t22.016 10.281q3.7188 0 7.5-0.73438t7.8906-2.1875z"/>
</defs>
<g transform="translate(185.68 385.46) scale(.1 -.1)">
<use xlink:href="#c"/>
<use x="63.623047" xlink:href="#h"/>
<use x="95.410156" xlink:href="#u"/>
</g>
</g>
<g clip-path="url(#a)">
<defs>
<path id="ad" d="m8.2031 72.906h46.875v-4.2031l-26.469-68.703h-10.297l24.906 64.594h-35.016z"/>
</defs>
<g transform="translate(427.39 270.33) scale(.1 -.1)">
<use xlink:href="#c"/>
<use x="63.623047" xlink:href="#h"/>
<use x="95.410156" xlink:href="#ad"/>
</g>
</g>
<g clip-path="url(#a)">
<defs>
<path id="ac" d="m31.781 34.625q-7.0312 0-11.062-3.7656-4.0156-3.7656-4.0156-10.344 0-6.5938 4.0156-10.359 4.0312-3.7656 11.062-3.7656t11.078 3.7812q4.0625 3.7969 4.0625 10.344 0 6.5781-4.0312 10.344-4.0156 3.7656-11.109 3.7656zm-9.8594 4.1875q-6.3438 1.5625-9.8906 5.9062-3.5312 4.3594-3.5312 10.609 0 8.7344 6.2188 13.812 6.2344 5.0781 17.062 5.0781 10.891 0 17.094-5.0781t6.2031-13.812q0-6.25-3.5469-10.609-3.5312-4.3438-9.8281-5.9062 7.125-1.6562 11.094-6.5 3.9844-4.8281 3.9844-11.797 0-10.609-6.4688-16.281-6.4688-5.6562-18.531-5.6562-12.047 0-18.531 5.6562-6.4688 5.6719-6.4688 16.281 0 6.9688 4 11.797 4.0156 4.8438 11.141 6.5zm-3.6094 15.578q0-5.6562 3.5312-8.8281 3.5469-3.1719 9.9375-3.1719 6.3594 0 9.9375 3.1719 3.5938 3.1719 3.5938 8.8281 0 5.6719-3.5938 8.8438-3.5781 3.1719-9.9375 3.1719-6.3906 0-9.9375-3.1719-3.5312-3.1719-3.5312-8.8438z"/>
</defs>
<g transform="translate(830.25 499.01) scale(.1 -.1)">
<use xlink:href="#c"/>
<use x="63.623047" xlink:href="#h"/>
<use x="95.410156" xlink:href="#ac"/>
</g>
</g>
<g clip-path="url(#a)">
<defs>
<path id="ab" d="m10.984 1.5156v8.9844q3.7188-1.7656 7.5156-2.6875 3.8125-0.92188 7.4844-0.92188 9.7656 0 14.906 6.5625 5.1562 6.5625 5.8906 19.953-2.8281-4.2031-7.1875-6.4531-4.3438-2.25-9.6094-2.25-10.938 0-17.312 6.6094-6.375 6.625-6.375 18.109 0 11.219 6.6406 18 6.6406 6.7969 17.672 6.7969 12.656 0 19.312-9.7031 6.6719-9.6875 6.6719-28.141 0-17.234-8.1875-27.516-8.1719-10.281-21.984-10.281-3.7188 0-7.5312 0.73438-3.7969 0.73438-7.9062 2.2031zm19.625 30.906q6.6406 0 10.516 4.5312 3.8906 4.5469 3.8906 12.469 0 7.8594-3.8906 12.422-3.875 4.5625-10.516 4.5625t-10.516-4.5625-3.875-12.422q0-7.9219 3.875-12.469 3.875-4.5312 10.516-4.5312z"/>
</defs>
<g transform="translate(876.29 499.01) scale(.1 -.1)">
<use xlink:href="#c"/>
<use x="63.623047" xlink:href="#h"/>
<use x="95.410156" xlink:href="#ab"/>
</g>
</g>
<g clip-path="url(#a)">
<defs>
<path id="af" d="m31.781 66.406q-7.6094 0-11.453-7.5-3.8281-7.4844-3.8281-22.531 0-14.984 3.8281-22.484 3.8438-7.5 11.453-7.5 7.6719 0 11.5 7.5 3.8438 7.5 3.8438 22.484 0 15.047-3.8438 22.531-3.8281 7.5-11.5 7.5zm0 7.8125q12.266 0 18.734-9.7031 6.4688-9.6875 6.4688-28.141 0-18.406-6.4688-28.109-6.4688-9.6875-18.734-9.6875-12.25 0-18.719 9.6875-6.4688 9.7031-6.4688 28.109 0 18.453 6.4688 28.141 6.4688 9.7031 18.719 9.7031z"/>
</defs>
<g transform="translate(1011.2 385.46) scale(.1 -.1)">
<use xlink:href="#c"/>
<use x="63.623047" xlink:href="#h"/>
<use x="95.410156" xlink:href="#c"/>
<use x="159.033203" xlink:href="#af"/>
</g>
</g>
<g clip-path="url(#a)">
<defs>
<path id="ae" d="m37.797 64.312-24.906-38.922h24.906zm-2.5938 8.5938h12.406v-47.516h10.406v-8.2031h-10.406v-17.188h-9.8125v17.188h-32.906v9.5156z"/>
</defs>
<g transform="translate(919.15 499.01) scale(.1 -.1)">
<use xlink:href="#c"/>
<use x="63.623047" xlink:href="#h"/>
<use x="95.410156" xlink:href="#c"/>
<use x="159.033203" xlink:href="#ae"/>
</g>
</g>
<g clip-path="url(#a)">
<g transform="translate(965.19 499.01) scale(.1 -.1)">
<use xlink:href="#c"/>
<use x="63.623047" xlink:href="#h"/>
<use x="95.410156" xlink:href="#c"/>
<use x="159.033203" xlink:href="#v"/>
</g>
</g>
<g clip-path="url(#a)">
<g transform="translate(1011.2 499.01) scale(.1 -.1)">
<use xlink:href="#c"/>
<use x="63.623047" xlink:href="#h"/>
<use x="95.410156" xlink:href="#c"/>
<use x="159.033203" xlink:href="#u"/>
</g>
</g>
<g clip-path="url(#a)">
<g transform="translate(1057.3 499.01) scale(.1 -.1)">
<use xlink:href="#c"/>
<use x="63.623047" xlink:href="#h"/>
<use x="95.410156" xlink:href="#c"/>
<use x="159.033203" xlink:href="#ad"/>
</g>
</g>
<g clip-path="url(#a)">
<g transform="translate(320.62 499.01) scale(.1 -.1)">
<use xlink:href="#c"/>
<use x="63.623047" xlink:href="#h"/>
<use x="95.410156" xlink:href="#c"/>
<use x="159.033203" xlink:href="#ac"/>
</g>
</g>
<g clip-path="url(#a)">
<g transform="translate(366.66 499.01) scale(.1 -.1)">
<use xlink:href="#c"/>
<use x="63.623047" xlink:href="#h"/>
<use x="95.410156" xlink:href="#c"/>
<use x="159.033203" xlink:href="#ab"/>
</g>
</g>
<g clip-path="url(#a)">
<g transform="translate(596.87 385.46) scale(.1 -.1)">
<use xlink:href="#c"/>
<use x="63.623047" xlink:href="#h"/>
<use x="95.410156" xlink:href="#m"/>
<use x="159.033203" xlink:href="#af"/>
</g>
</g>
<g clip-path="url(#a)">
<g transform="translate(458.74 499.01) scale(.1 -.1)">
<use xlink:href="#c"/>
<use x="63.623047" xlink:href="#h"/>
<use x="95.410156" xlink:href="#m"/>
<use x="159.033203" xlink:href="#m"/>
</g>
</g>
<g clip-path="url(#a)">
<defs>
<path id="n" d="m40.578 39.312q7.0781-1.5156 11.047-6.3125 3.9844-4.7812 3.9844-11.812 0-10.781-7.4219-16.703-7.4219-5.9062-21.094-5.9062-4.5781 0-9.4375 0.90625t-10.031 2.7188v9.5156q4.0938-2.3906 8.9688-3.6094 4.8906-1.2188 10.219-1.2188 9.2656 0 14.125 3.6562t4.8594 10.641q0 6.4531-4.5156 10.078-4.5156 3.6406-12.562 3.6406h-8.5v8.1094h8.8906q7.2656 0 11.125 2.9062t3.8594 8.375q0 5.6094-3.9844 8.6094-3.9688 3.0156-11.391 3.0156-4.0625 0-8.7031-0.89062-4.6406-0.875-10.203-2.7188v8.7812q5.625 1.5625 10.531 2.3438t9.25 0.78125q11.234 0 17.766-5.1094 6.5469-5.0938 6.5469-13.781 0-6.0625-3.4688-10.234t-9.8594-5.7812z"/>
</defs>
<g transform="translate(550.83 499.01) scale(.1 -.1)">
<use xlink:href="#c"/>
<use x="63.623047" xlink:href="#h"/>
<use x="95.410156" xlink:href="#m"/>
<use x="159.033203" xlink:href="#n"/>
</g>
</g>
<g clip-path="url(#a)">
<g transform="translate(642.91 499.01) scale(.1 -.1)">
<use xlink:href="#c"/>
<use x="63.623047" xlink:href="#h"/>
<use x="95.410156" xlink:href="#m"/>
<use x="159.033203" xlink:href="#ae"/>
</g>
</g>
<g clip-path="url(#a)">
<g transform="translate(734.99 499.01) scale(.1 -.1)">
<use xlink:href="#c"/>
<use x="63.623047" xlink:href="#h"/>
<use x="95.410156" xlink:href="#m"/>
<use x="159.033203" xlink:href="#v"/>
</g>
</g>
<g clip-path="url(#a)">
<g transform="translate(90.417 499.01) scale(.1 -.1)">
<use xlink:href="#c"/>
<use x="63.623047" xlink:href="#h"/>
<use x="95.410156" xlink:href="#m"/>
<use x="159.033203" xlink:href="#u"/>
</g>
</g>
<g clip-path="url(#a)">
<g transform="translate(274.58 499.01) scale(.1 -.1)">
<use xlink:href="#c"/>
<use x="63.623047" xlink:href="#h"/>
<use x="95.410156" xlink:href="#m"/>
<use x="159.033203" xlink:href="#ad"/>
</g>
</g>
<g clip-path="url(#a)">
<g transform="translate(412.7 499.01) scale(.1 -.1)">
<use xlink:href="#c"/>
<use x="63.623047" xlink:href="#h"/>
<use x="95.410156" xlink:href="#m"/>
<use x="159.033203" xlink:href="#ac"/>
</g>
</g>
<g clip-path="url(#a)">
<g transform="translate(136.46 499.01) scale(.1 -.1)">
<use xlink:href="#c"/>
<use x="63.623047" xlink:href="#h"/>
<use x="95.410156" xlink:href="#m"/>
<use x="159.033203" xlink:href="#ab"/>
</g>
</g>
<g clip-path="url(#a)">
<g transform="translate(182.5 499.01) scale(.1 -.1)">
<use xlink:href="#c"/>
<use x="63.623047" xlink:href="#h"/>
<use x="95.410156" xlink:href="#n"/>
<use x="159.033203" xlink:href="#af"/>
</g>
</g>
<g clip-path="url(#a)">
<g transform="translate(228.54 499.01) scale(.1 -.1)">
<use xlink:href="#c"/>
<use x="63.623047" xlink:href="#h"/>
<use x="95.410156" xlink:href="#n"/>
<use x="159.033203" xlink:href="#c"/>
</g>
</g>
<g clip-path="url(#a)">
<g transform="translate(504.79 499.01) scale(.1 -.1)">
<use xlink:href="#c"/>
<use x="63.623047" xlink:href="#h"/>
<use x="95.410156" xlink:href="#n"/>
<use x="159.033203" xlink:href="#m"/>
</g>
</g>
<g clip-path="url(#a)">
<g transform="translate(596.87 499.01) scale(.1 -.1)">
<use xlink:href="#c"/>
<use x="63.623047" xlink:href="#h"/>
<use x="95.410156" xlink:href="#n"/>
<use x="159.033203" xlink:href="#n"/>
</g>
</g>
<g clip-path="url(#a)">
<g transform="translate(688.95 499.01) scale(.1 -.1)">
<use xlink:href="#c"/>
<use x="63.623047" xlink:href="#h"/>
<use x="95.410156" xlink:href="#n"/>
<use x="159.033203" xlink:href="#ae"/>
</g>
</g>
<g clip-path="url(#a)">
<g transform="translate(781.03 499.01) scale(.1 -.1)">
<use xlink:href="#c"/>
<use x="63.623047" xlink:href="#h"/>
<use x="95.410156" xlink:href="#n"/>
<use x="159.033203" xlink:href="#v"/>
</g>
</g>
<g clip-path="url(#a)">
<g transform="translate(1103.3 499.01) scale(.1 -.1)">
<use xlink:href="#c"/>
<use x="63.623047" xlink:href="#h"/>
<use x="95.410156" xlink:href="#n"/>
<use x="159.033203" xlink:href="#u"/>
</g>
</g>
<defs>
<clipPath id="a">
<rect width="1216" height="640"/>
</clipPath>
</defs>
</svg>
