<?xml version="1.0" encoding="UTF-8"?>
<!DOCTYPE svg  PUBLIC '-//W3C//DTD SVG 1.1//EN'  'http://www.w3.org/Graphics/SVG/1.1/DTD/svg11.dtd'>
<svg width="1722.7pt" height="906.67pt" version="1.1" viewBox="0 0 1722.7 906.67" xmlns="http://www.w3.org/2000/svg" xmlns:xlink="http://www.w3.org/1999/xlink">
<defs>
<style type="text/css">*{stroke-linecap:butt;stroke-linejoin:round;}</style>
</defs>
<path d="m0 906.67h1722.7v-906.67h-1722.7z" fill="#fff"/>
<g fill="none" stroke="#000">
<path d="m502.47 41.882v111.68" clip-path="url(#a)"/>
<path d="m502.47 153.56-228.28 417.66" clip-path="url(#a)"/>
<path d="m502.47 153.56-193.74 613.82" clip-path="url(#a)"/>
<path d="m502.47 153.56-147.69 613.82" clip-path="url(#a)"/>
<path d="m502.47 153.56 147.37 108.49" clip-path="url(#a)"/>
<path d="m502.47 153.56 13.485 613.82" clip-path="url(#a)"/>
<path d="m502.47 153.56 197.69 417.66" clip-path="url(#a)"/>
<path d="m502.47 153.56-239.79 613.82" clip-path="url(#a)"/>
<path d="m502.47 153.56 450.97 613.82" clip-path="url(#a)"/>
<path d="m274.19 571.23-195.72 196.16" clip-path="url(#a)"/>
<path d="m274.19 571.23-149.67 196.16" clip-path="url(#a)"/>
<path d="m274.19 571.23 402.94 98.755" clip-path="url(#a)"/>
<path d="m274.19 571.23-57.564 196.16" clip-path="url(#a)"/>
<path d="m308.72 767.38v97.4" clip-path="url(#a)"/>
<path d="m354.77 767.38v97.4" clip-path="url(#a)"/>
<path d="m649.84 262.05-249.02 505.33" clip-path="url(#a)"/>
<path d="m649.84 262.05-202.96 505.33" clip-path="url(#a)"/>
<path d="m649.84 262.05 451.98 105.57" clip-path="url(#a)"/>
<path d="m515.95 767.38-23.025 97.4" clip-path="url(#a)"/>
<path d="m515.95 767.38 23.025 97.4" clip-path="url(#a)"/>
<path d="m700.16 571.23-115.13 196.16" clip-path="url(#a)"/>
<path d="m700.16 571.23-69.076 196.16" clip-path="url(#a)"/>
<path d="m700.16 571.23-23.025 196.16" clip-path="url(#a)"/>
<path d="m700.16 571.23 46.051 98.755" clip-path="url(#a)"/>
<path d="m700.16 571.23 161.18 98.755" clip-path="url(#a)"/>
<path d="m585.03 767.38v97.4" clip-path="url(#a)"/>
<path d="m631.08 767.38v97.4" clip-path="url(#a)"/>
<path d="m677.13 767.38v97.4" clip-path="url(#a)"/>
<path d="m746.21 669.98-23.025 97.4" clip-path="url(#a)"/>
<path d="m746.21 669.98 23.025 97.4" clip-path="url(#a)"/>
<path d="m861.33 669.98-46.051 97.4" clip-path="url(#a)"/>
<path d="m861.33 669.98v97.4" clip-path="url(#a)"/>
<path d="m861.33 669.98 46.051 97.4" clip-path="url(#a)"/>
<path d="m815.28 767.38v97.4" clip-path="url(#a)"/>
<path d="m861.33 767.38v97.4" clip-path="url(#a)"/>
<path d="m907.38 767.38v97.4" clip-path="url(#a)"/>
<path d="m723.18 767.38v97.4" clip-path="url(#a)"/>
<path d="m769.23 767.38v97.4" clip-path="url(#a)"/>
<path d="m400.83 767.38v97.4" clip-path="url(#a)"/>
<path d="m446.88 767.38v97.4" clip-path="url(#a)"/>
<path d="m1101.8 367.62-102.34 399.76" clip-path="url(#a)"/>
<path d="m1101.8 367.62-56.284 399.76" clip-path="url(#a)"/>
<path d="m1101.8 367.62 158.62 102.95" clip-path="url(#a)"/>
<path d="m999.49 767.38v97.4" clip-path="url(#a)"/>
<path d="m1045.5 767.38v97.4" clip-path="url(#a)"/>
<path d="m1260.4 470.57-145.83 199.41" clip-path="url(#a)"/>
<path d="m1260.4 470.57-30.701 296.81" clip-path="url(#a)"/>
<path d="m1260.4 470.57 176.53 100.66" clip-path="url(#a)"/>
<path d="m1114.6 669.98-69.076 97.4" clip-path="url(#a)" stroke-dasharray="3.7,1.6"/>
<path d="m1114.6 669.98-23.025 97.4" clip-path="url(#a)"/>
<path d="m1114.6 669.98 23.025 97.4" clip-path="url(#a)"/>
<path d="m1114.6 669.98 69.076 97.4" clip-path="url(#a)"/>
<path d="m1229.7 767.38v97.4" clip-path="url(#a)"/>
<path d="m1437 571.23-115.13 98.755" clip-path="url(#a)"/>
<path d="m1437 571.23-23.025 196.16" clip-path="url(#a)"/>
<path d="m1437 571.23 23.025 196.16" clip-path="url(#a)"/>
<path d="m1437 571.23 115.13 98.755" clip-path="url(#a)"/>
<path d="m1321.8 669.98-46.051 97.4" clip-path="url(#a)"/>
<path d="m1321.8 669.98v97.4" clip-path="url(#a)"/>
<path d="m1321.8 669.98 46.051 97.4" clip-path="url(#a)"/>
<path d="m1413.9 767.38v97.4" clip-path="url(#a)"/>
<path d="m1460 767.38v97.4" clip-path="url(#a)"/>
<path d="m1552.1 669.98-46.051 97.4" clip-path="url(#a)"/>
<path d="m1552.1 669.98v97.4" clip-path="url(#a)"/>
<path d="m1552.1 669.98 46.051 97.4" clip-path="url(#a)"/>
<path d="m1506 767.38v97.4" clip-path="url(#a)"/>
<path d="m1552.1 767.38v97.4" clip-path="url(#a)"/>
<path d="m1275.8 767.38v97.4" clip-path="url(#a)"/>
<path d="m1321.8 767.38v97.4" clip-path="url(#a)"/>
<path d="m1367.9 767.38v97.4" clip-path="url(#a)"/>
<path d="m1091.6 767.38v97.4" clip-path="url(#a)"/>
<path d="m1137.6 767.38v97.4" clip-path="url(#a)"/>
<path d="m1183.7 767.38v97.4" clip-path="url(#a)"/>
<path d="m78.47 767.38v97.4" clip-path="url(#a)"/>
<path d="m124.52 767.38v97.4" clip-path="url(#a)"/>
<path d="m677.13 669.98-460.51 97.4" clip-path="url(#a)" stroke-dasharray="3.7,1.6"/>
<path d="m677.13 669.98 967.07 194.8" clip-path="url(#a)"/>
<path d="m677.13 669.98-506.56 97.4" clip-path="url(#a)"/>
<path d="m216.62 767.38v97.4" clip-path="url(#a)"/>
<path d="m170.57 767.38v97.4" clip-path="url(#a)"/>
<path d="m1333.4 470.57-103.61 296.81" clip-path="url(#a)"/>
<path d="m1333.4 470.57 103.61 100.66" clip-path="url(#a)"/>
<path d="m262.67 767.38v97.4" clip-path="url(#a)"/>
<path d="m953.43 767.38v97.4" clip-path="url(#a)"/>
<path d="m1598.1 767.38v97.4" clip-path="url(#a)"/>
</g>
<path d="m496.2 94.715v6.0162q0 2.4 2.4 2.4h7.7425q2.4 0 2.4-2.4v-6.0162q0-2.4-2.4-2.4h-7.7425q-2.4 0-2.4 2.4z" clip-path="url(#a)" fill="#fff" stroke="#fff"/>
<g clip-path="url(#a)">
<defs>
<path id="am" d="m9.8125 72.906h9.8594v-29.891h35.844v29.891h9.8594v-72.906h-9.8594v34.719h-35.844v-34.719h-9.8594z"/>
</defs>
<g transform="translate(500.26 94.715) rotate(90) scale(.08 -.08)">
<use xlink:href="#am"/>
</g>
</g>
<path d="m392.52 367.81 2.6246-4.802q1.151-2.106-0.95491-3.257l-6.7939-3.7133q-2.106-1.1511-3.257 0.95491l-2.6246 4.802q-1.151 2.106 0.95491 3.257l6.7939 3.7133q2.106 1.1511 3.257-0.95491z" clip-path="url(#a)" fill="#fff" stroke="#fff"/>
<g clip-path="url(#a)">
<defs>
<path id="v" d="m34.188 63.188-13.391-36.281h26.812zm-5.5781 9.7188h11.188l27.781-72.906h-10.25l-6.6406 18.703h-32.859l-6.6406-18.703h-10.406z"/>
</defs>
<g transform="translate(388.95 365.86) rotate(-61.34) scale(.08 -.08)">
<use xlink:href="#v"/>
</g>
</g>
<path d="m410.65 465.3 1.8541-5.8743q0.7224-2.2887-1.5663-3.0111l-7.3834-2.3305q-2.2887-0.7224-3.0111 1.5663l-1.8542 5.8743q-0.7224 2.2887 1.5663 3.0111l7.3834 2.3305q2.2887 0.7224 3.0111-1.5663z" clip-path="url(#a)" fill="#fff" stroke="#fff"/>
<g clip-path="url(#a)">
<defs>
<path id="ag" d="m19.672 64.797v-56.688h11.922q15.094 0 22.094 6.8281 7 6.8438 7 21.594 0 14.641-7 21.453t-22.094 6.8125zm-9.8594 8.1094h20.266q21.188 0 31.094-8.8125 9.9219-8.8125 9.9219-27.562 0-18.859-9.9688-27.703-9.9531-8.8281-31.047-8.8281h-20.266z"/>
</defs>
<g transform="translate(406.77 464.08) rotate(-72.482) scale(.08 -.08)">
<use xlink:href="#ag"/>
</g>
</g>
<path d="m434 464.94 1.441-5.9891q0.56145-2.3334-1.772-2.8949l-7.5277-1.8113q-2.3334-0.56145-2.8949 1.772l-1.441 5.9891q-0.56145 2.3334 1.772 2.8949l7.5277 1.8113q2.3334 0.56145 2.8949-1.772z" clip-path="url(#a)" fill="#fff" stroke="#fff"/>
<g clip-path="url(#a)">
<g transform="translate(430.05 463.99) rotate(-76.471) scale(.08 -.08)">
<use xlink:href="#ag"/>
</g>
</g>
<path d="m570.23 211.24 4.4072 3.2443q1.9328 1.4228 3.3556-0.50999l4.59-6.2352q1.4228-1.9328-0.50999-3.3556l-4.4072-3.2443q-1.9328-1.4228-3.3556 0.50999l-4.59 6.2352q-1.4228 1.9328 0.50999 3.3556z" clip-path="url(#a)" fill="#fff" stroke="#fff"/>
<g clip-path="url(#a)">
<g transform="translate(572.64 207.96) rotate(36.358) scale(.08 -.08)">
<use xlink:href="#v"/>
</g>
</g>
<path d="m502.89 458.2 0.10595 4.8226q0.052712 2.3994 2.4521 2.3467l7.7406-0.17005q2.3994-0.052712 2.3467-2.4521l-0.10594-4.8226q-0.052712-2.3994-2.4521-2.3467l-7.7406 0.17005q-2.3994 0.052712-2.3467 2.4521z" clip-path="url(#a)" fill="#fff" stroke="#fff"/>
<g clip-path="url(#a)">
<defs>
<path id="aa" d="m19.672 64.797v-27.391h12.406q6.8906 0 10.641 3.5625 3.7656 3.5625 3.7656 10.156 0 6.5469-3.7656 10.109-3.75 3.5625-10.641 3.5625zm-9.8594 8.1094h22.266q12.266 0 18.531-5.5469 6.2812-5.5469 6.2812-16.234 0-10.797-6.2812-16.312-6.2656-5.5156-18.531-5.5156h-12.406v-29.297h-9.8594z"/>
</defs>
<g transform="translate(506.95 458.11) rotate(88.741) scale(.08 -.08)">
<use xlink:href="#aa"/>
</g>
</g>
<path d="m594.47 362.61 2.3412 4.9464q1.0268 2.1693 3.196 1.1425l6.9982-3.3124q2.1693-1.0268 1.1425-3.196l-2.3412-4.9464q-1.0268-2.1693-3.196-1.1425l-6.9982 3.3124q-2.1693 1.0268-1.1425 3.196z" clip-path="url(#a)" fill="#fff" stroke="#fff"/>
<g clip-path="url(#a)">
<g transform="translate(598.15 360.87) rotate(64.671) scale(.08 -.08)">
<use xlink:href="#v"/>
</g>
</g>
<path d="m387.35 465.48 2.1305-5.4536q0.87331-2.2355-1.3622-3.1088l-7.2117-2.8173q-2.2355-0.87331-3.1088 1.3622l-2.1305 5.4536q-0.87331 2.2355 1.3622 3.1088l7.2117 2.8173q2.2355 0.87331 3.1088-1.3622z" clip-path="url(#a)" fill="#fff" stroke="#fff"/>
<g clip-path="url(#a)">
<defs>
<path id="ak" d="m8.6875 72.906h9.9219v-44.297q0-11.719 4.2344-16.875 4.25-5.1406 13.781-5.1406 9.4688 0 13.719 5.1406 4.25 5.1562 4.25 16.875v44.297h9.9062v-45.516q0-14.25-7.0625-21.531-7.0469-7.2812-20.812-7.2812-13.828 0-20.891 7.2812-7.0469 7.2812-7.0469 21.531z"/>
</defs>
<g transform="translate(383.56 464) rotate(-68.661) scale(.08 -.08)">
<use xlink:href="#ak"/>
</g>
</g>
<path d="m721.16 461.83 3.4666 4.7184q1.421 1.9341 3.3551 0.51314l6.2396-4.5841q1.9341-1.421 0.51314-3.3551l-3.4666-4.7184q-1.421-1.9341-3.3551-0.51314l-6.2396 4.5841q-1.9341 1.421-0.51314 3.3551z" clip-path="url(#a)" fill="#fff" stroke="#fff"/>
<g clip-path="url(#a)">
<g transform="translate(724.44 459.42) rotate(53.696) scale(.08 -.08)">
<use xlink:href="#ak"/>
</g>
</g>
<path d="m178.8 675.7 3.9262-3.935q1.6952-1.699-0.003808-3.3941l-5.4809-5.4686q-1.699-1.6952-3.3941 0.003808l-3.9262 3.935q-1.6952 1.699 0.003808 3.3941l5.4809 5.4686q1.699 1.6952 3.3941-0.003808z" clip-path="url(#a)" fill="#fff" stroke="#fff"/>
<g clip-path="url(#a)">
<defs>
<path id="z" d="m44.391 34.188q3.1719-1.0781 6.1719-4.5938t6.0312-9.6719l10.016-19.922h-10.609l-9.3125 18.703q-3.625 7.3281-7.0156 9.7188t-9.25 2.3906h-10.75v-30.812h-9.8594v72.906h22.266q12.5 0 18.656-5.2344 6.1562-5.2188 6.1562-15.766 0-6.8906-3.2031-11.438-3.2031-4.5312-9.2969-6.2812zm-24.719 30.609v-25.875h12.406q7.125 0 10.766 3.2969t3.6406 9.6875-3.6406 9.6406-10.766 3.25z"/>
</defs>
<g transform="translate(175.93 672.83) rotate(-45.064) scale(.08 -.08)">
<use xlink:href="#z"/>
</g>
</g>
<path d="m202.81 675.12 3.0663-4.0188q1.4558-1.908-0.45222-3.3639l-6.1554-4.6965q-1.908-1.4558-3.3639 0.45222l-3.0663 4.0188q-1.4558 1.908 0.45222 3.3639l6.1554 4.6965q1.908 1.4558 3.3639-0.45222z" clip-path="url(#a)" fill="#fff" stroke="#fff"/>
<g clip-path="url(#a)">
<defs>
<path id="o" d="m9.8125 72.906h46.094v-8.3125h-36.234v-21.578h34.719v-8.2969h-34.719v-26.422h37.109v-8.2969h-46.969z"/>
</defs>
<g transform="translate(199.57 672.66) rotate(-52.657) scale(.08 -.08)">
<use xlink:href="#o"/>
</g>
</g>
<path d="m471.71 626.1 4.9097 1.2033q2.331 0.57129 2.9023-1.7597l1.843-7.5199q0.57129-2.331-1.7597-2.9023l-4.9097-1.2033q-2.331-0.57129-2.9023 1.7597l-1.843 7.5199q-0.57129 2.331 1.7597 2.9023z" clip-path="url(#a)" fill="#fff" stroke="#fff"/>
<g clip-path="url(#a)">
<g transform="translate(472.68 622.15) rotate(13.771) scale(.08 -.08)">
<use xlink:href="#o"/>
</g>
</g>
<path d="m250.63 673.75 1.573-5.3602q0.6758-2.3029-1.6271-2.9787l-7.4292-2.1802q-2.3029-0.6758-2.9787 1.6271l-1.573 5.3602q-0.6758 2.3029 1.6271 2.9787l7.4292 2.1802q2.3029 0.6758 2.9787-1.6271z" clip-path="url(#a)" fill="#fff" stroke="#fff"/>
<g clip-path="url(#a)">
<defs>
<path id="u" d="m64.406 67.281v-10.391q-4.9844 4.6406-10.625 6.9219-5.6406 2.2969-11.984 2.2969-12.5 0-19.141-7.6406t-6.6406-22.094q0-14.406 6.6406-22.047t19.141-7.6406q6.3438 0 11.984 2.2969t10.625 6.9375v-10.312q-5.1719-3.5156-10.969-5.2812-5.7812-1.75-12.219-1.75-16.562 0-26.094 10.125-9.5156 10.141-9.5156 27.672 0 17.578 9.5156 27.703 9.5312 10.141 26.094 10.141 6.5312 0 12.312-1.7344 5.7969-1.7344 10.875-5.2031z"/>
</defs>
<g transform="translate(246.74 672.61) rotate(-73.645) scale(.08 -.08)">
<use xlink:href="#u"/>
</g>
</g>
<path d="m302.45 798.44v35.285q0 2.4 2.4 2.4h7.7425q2.4 0 2.4-2.4v-35.285q0-2.4-2.4-2.4h-7.7425q-2.4 0-2.4 2.4z" clip-path="url(#a)" fill="#fff" stroke="#fff"/>
<g clip-path="url(#a)">
<defs>
<path id="l" d="m-0.29688 72.906h61.672v-8.3125h-25.875v-64.594h-9.9062v64.594h-25.891z"/>
<path id="d" d="m56.203 29.594v-4.3906h-41.312q0.59375-9.2812 5.5938-14.141t13.938-4.8594q5.1719 0 10.031 1.2656t9.6562 3.8125v-8.5q-4.8438-2.0469-9.9219-3.125t-10.297-1.0781q-13.094 0-20.734 7.6094-7.6406 7.625-7.6406 20.625 0 13.422 7.25 21.297 7.25 7.8906 19.562 7.8906 11.031 0 17.453-7.1094 6.4219-7.0938 6.4219-19.297zm-8.9844 2.6406q-0.09375 7.3594-4.125 11.75-4.0312 4.4062-10.672 4.4062-7.5156 0-12.031-4.25t-5.2031-11.969z"/>
<path id="j" d="m41.109 46.297q-1.5156 0.875-3.2969 1.2812-1.7812 0.42188-3.9219 0.42188-7.625 0-11.703-4.9531t-4.0781-14.234v-28.812h-9.0312v54.688h9.0312v-8.5q2.8438 4.9844 7.375 7.3906 4.5469 2.4219 11.047 2.4219 0.92188 0 2.0469-0.125 1.125-0.10938 2.4844-0.35938z"/>
<path id="k" d="m52 44.188q3.375 6.0625 8.0625 8.9375t11.031 2.875q8.5469 0 13.188-5.9844 4.6406-5.9688 4.6406-17v-33.016h-9.0312v32.719q0 7.8594-2.7969 11.656-2.7812 3.8125-8.4844 3.8125-6.9844 0-11.047-4.6406-4.0469-4.625-4.0469-12.641v-30.906h-9.0312v32.719q0 7.9062-2.7812 11.688t-8.5938 3.7812q-6.8906 0-10.953-4.6562-4.0469-4.6562-4.0469-12.625v-30.906h-9.0312v54.688h9.0312v-8.5q3.0781 5.0312 7.375 7.4219t10.203 2.3906q5.9688 0 10.141-3.0312 4.1719-3.0156 6.1719-8.7812z"/>
<path id="h" d="m9.4219 54.688h8.9844v-54.688h-8.9844zm0 21.297h8.9844v-11.391h-8.9844z"/>
<path id="g" d="m54.891 33.016v-33.016h-8.9844v32.719q0 7.7656-3.0312 11.609-3.0312 3.8594-9.0781 3.8594-7.2812 0-11.484-4.6406-4.2031-4.625-4.2031-12.641v-30.906h-9.0312v54.688h9.0312v-8.5q3.2344 4.9375 7.5938 7.375 4.375 2.4375 10.094 2.4375 9.4219 0 14.25-5.8281 4.8438-5.8281 4.8438-17.156z"/>
<path id="f" d="m34.281 27.484q-10.891 0-15.094-2.4844t-4.2031-8.5q0-4.7812 3.1562-7.5938 3.1562-2.7969 8.5625-2.7969 7.4844 0 12 5.2969t4.5156 14.078v2zm17.922 3.7188v-31.203h-8.9844v8.2969q-3.0781-4.9688-7.6719-7.3438t-11.234-2.375q-8.3906 0-13.359 4.7188-4.9531 4.7188-4.9531 12.625 0 9.2188 6.1719 13.906 6.1875 4.6875 18.438 4.6875h12.609v0.89062q0 6.2031-4.0781 9.5938t-11.453 3.3906q-4.6875 0-9.1406-1.125-4.4375-1.125-8.5312-3.375v8.3125q4.9219 1.9062 9.5625 2.8438 4.6406 0.95312 9.0312 0.95312 11.875 0 17.734-6.1562 5.8594-6.1406 5.8594-18.641z"/>
<path id="i" d="m9.4219 75.984h8.9844v-75.984h-8.9844z"/>
</defs>
<g transform="translate(306.52 798.44) rotate(90) scale(.08 -.08)">
<use xlink:href="#l"/>
<use x="60.818359" xlink:href="#d"/>
<use x="122.341797" xlink:href="#j"/>
<use x="163.439453" xlink:href="#k"/>
<use x="260.851562" xlink:href="#h"/>
<use x="288.634766" xlink:href="#g"/>
<use x="352.013672" xlink:href="#f"/>
<use x="413.292969" xlink:href="#i"/>
</g>
</g>
<path d="m348.5 798.44v35.285q0 2.4 2.4 2.4h7.7425q2.4 0 2.4-2.4v-35.285q0-2.4-2.4-2.4h-7.7425q-2.4 0-2.4 2.4z" clip-path="url(#a)" fill="#fff" stroke="#fff"/>
<g clip-path="url(#a)">
<g transform="translate(352.57 798.44) rotate(90) scale(.08 -.08)">
<use xlink:href="#l"/>
<use x="60.818359" xlink:href="#d"/>
<use x="122.341797" xlink:href="#j"/>
<use x="163.439453" xlink:href="#k"/>
<use x="260.851562" xlink:href="#h"/>
<use x="288.634766" xlink:href="#g"/>
<use x="352.013672" xlink:href="#f"/>
<use x="413.292969" xlink:href="#i"/>
</g>
</g>
<path d="m529.84 519.76 2.2344-4.5344q1.0608-2.1528-1.092-3.2137l-6.9451-3.4223q-2.1528-1.0608-3.2137 1.092l-2.2344 4.5344q-1.0608 2.1528 1.092 3.2137l6.9451 3.4223q2.1528 1.0609 3.2137-1.092z" clip-path="url(#a)" fill="#fff" stroke="#fff"/>
<g clip-path="url(#a)">
<g transform="translate(526.2 517.96) rotate(-63.767) scale(.08 -.08)">
<use xlink:href="#o"/>
</g>
</g>
<path d="m553.14 519.65 2.082-5.1838q0.89449-2.2271-1.3326-3.1216l-7.1846-2.8857q-2.2271-0.89449-3.1216 1.3326l-2.082 5.1838q-0.89449 2.2271 1.3326 3.1216l7.1846 2.8857q2.2271 0.8945 3.1216-1.3326z" clip-path="url(#a)" fill="#fff" stroke="#fff"/>
<g clip-path="url(#a)">
<g transform="translate(549.37 518.13) rotate(-68.117) scale(.08 -.08)">
<use xlink:href="#u"/>
</g>
</g>
<path d="m871.94 320.37 4.9225 1.1498q2.3371 0.54588 2.883-1.7912l1.761-7.5396q0.54588-2.3371-1.7912-2.883l-4.9225-1.1498q-2.3371-0.54588-2.883 1.7912l-1.761 7.5396q-0.54588 2.3371 1.7912 2.883z" clip-path="url(#a)" fill="#fff" stroke="#fff"/>
<g clip-path="url(#a)">
<g transform="translate(872.87 316.41) rotate(13.147) scale(.08 -.08)">
<use xlink:href="#o"/>
</g>
</g>
<path d="m506.48 834.7 8.1176-34.339q0.55214-2.3356-1.7835-2.8878l-7.5348-1.7812q-2.3356-0.55214-2.8878 1.7835l-8.1176 34.339q-0.55214 2.3356 1.7835 2.8878l7.5348 1.7812q2.3356 0.55214 2.8878-1.7835z" clip-path="url(#a)" fill="#fff" stroke="#fff"/>
<g clip-path="url(#a)">
<g transform="translate(502.53 833.76) rotate(-76.699) scale(.08 -.08)">
<use xlink:href="#l"/>
<use x="60.818359" xlink:href="#d"/>
<use x="122.341797" xlink:href="#j"/>
<use x="163.439453" xlink:href="#k"/>
<use x="260.851562" xlink:href="#h"/>
<use x="288.634766" xlink:href="#g"/>
<use x="352.013672" xlink:href="#f"/>
<use x="413.292969" xlink:href="#i"/>
</g>
</g>
<path d="m517.3 800.36 8.1176 34.339q0.55214 2.3356 2.8878 1.7835l7.5348-1.7812q2.3356-0.55214 1.7835-2.8878l-8.1176-34.339q-0.55214-2.3356-2.8878-1.7835l-7.5348 1.7812q-2.3356 0.55214-1.7835 2.8878z" clip-path="url(#a)" fill="#fff" stroke="#fff"/>
<g clip-path="url(#a)">
<g transform="translate(521.26 799.42) rotate(76.699) scale(.08 -.08)">
<use xlink:href="#l"/>
<use x="60.818359" xlink:href="#d"/>
<use x="122.341797" xlink:href="#j"/>
<use x="163.439453" xlink:href="#k"/>
<use x="260.851562" xlink:href="#h"/>
<use x="288.634766" xlink:href="#g"/>
<use x="352.013672" xlink:href="#f"/>
<use x="413.292969" xlink:href="#i"/>
</g>
</g>
<path d="m646.72 674.66 2.5587-4.3596q1.2148-2.0698-0.85501-3.2847l-6.6774-3.9191q-2.0698-1.2148-3.2847 0.85501l-2.5587 4.3596q-1.2148 2.0698 0.85501 3.2847l6.6774 3.9191q2.0698 1.2148 3.2847-0.85501z" clip-path="url(#a)" fill="#fff" stroke="#fff"/>
<g clip-path="url(#a)">
<g transform="translate(643.22 672.6) rotate(-59.591) scale(.08 -.08)">
<use xlink:href="#o"/>
</g>
</g>
<path d="m670.69 673.77 1.6791-4.768q0.79718-2.2637-1.4666-3.0609l-7.3029-2.5717q-2.2637-0.79718-3.0609 1.4666l-1.6791 4.768q-0.79718 2.2637 1.4666 3.0609l7.3029 2.5717q2.2637 0.79718 3.0609-1.4666z" clip-path="url(#a)" fill="#fff" stroke="#fff"/>
<g clip-path="url(#a)">
<g transform="translate(666.86 672.42) rotate(-70.6) scale(.08 -.08)">
<use xlink:href="#o"/>
</g>
</g>
<path d="m694.55 672.81 0.65126-5.5482q0.2798-2.3836-2.1038-2.6634l-7.6897-0.90264q-2.3836-0.2798-2.6634 2.1038l-0.65126 5.5482q-0.2798 2.3836 2.1038 2.6634l7.6897 0.90264q2.3836 0.2798 2.6634-2.1038z" clip-path="url(#a)" fill="#fff" stroke="#fff"/>
<g clip-path="url(#a)">
<g transform="translate(690.51 672.34) rotate(-83.305) scale(.08 -.08)">
<use xlink:href="#u"/>
</g>
</g>
<path d="m716.43 620.97 2.1364 4.5814q1.0143 2.1751 3.1894 1.1608l7.0171-3.2722q2.1751-1.0143 1.1608-3.1894l-2.1364-4.5814q-1.0143-2.1751-3.1894-1.1608l-7.0171 3.2721q-2.1751 1.0143-1.1608 3.1894z" clip-path="url(#a)" fill="#fff" stroke="#fff"/>
<g clip-path="url(#a)">
<g transform="translate(720.11 619.25) rotate(65) scale(.08 -.08)">
<use xlink:href="#o"/>
</g>
</g>
<path d="m775.31 624.63 4.3103 2.6409q2.0464 1.2539 3.3003-0.79256l4.045-6.6018q1.2539-2.0464-0.79256-3.3003l-4.3103-2.6409q-2.0464-1.2539-3.3003 0.79256l-4.045 6.6018q-1.2539 2.0464 0.79256 3.3003z" clip-path="url(#a)" fill="#fff" stroke="#fff"/>
<g clip-path="url(#a)">
<g transform="translate(777.44 621.17) rotate(31.496) scale(.08 -.08)">
<use xlink:href="#o"/>
</g>
</g>
<path d="m578.76 798.44v35.285q0 2.4 2.4 2.4h7.7425q2.4 0 2.4-2.4v-35.285q0-2.4-2.4-2.4h-7.7425q-2.4 0-2.4 2.4z" clip-path="url(#a)" fill="#fff" stroke="#fff"/>
<g clip-path="url(#a)">
<g transform="translate(582.82 798.44) rotate(90) scale(.08 -.08)">
<use xlink:href="#l"/>
<use x="60.818359" xlink:href="#d"/>
<use x="122.341797" xlink:href="#j"/>
<use x="163.439453" xlink:href="#k"/>
<use x="260.851562" xlink:href="#h"/>
<use x="288.634766" xlink:href="#g"/>
<use x="352.013672" xlink:href="#f"/>
<use x="413.292969" xlink:href="#i"/>
</g>
</g>
<path d="m624.81 798.44v35.285q0 2.4 2.4 2.4h7.7425q2.4 0 2.4-2.4v-35.285q0-2.4-2.4-2.4h-7.7425q-2.4 0-2.4 2.4z" clip-path="url(#a)" fill="#fff" stroke="#fff"/>
<g clip-path="url(#a)">
<g transform="translate(628.87 798.44) rotate(90) scale(.08 -.08)">
<use xlink:href="#l"/>
<use x="60.818359" xlink:href="#d"/>
<use x="122.341797" xlink:href="#j"/>
<use x="163.439453" xlink:href="#k"/>
<use x="260.851562" xlink:href="#h"/>
<use x="288.634766" xlink:href="#g"/>
<use x="352.013672" xlink:href="#f"/>
<use x="413.292969" xlink:href="#i"/>
</g>
</g>
<path d="m670.86 798.44v35.285q0 2.4 2.4 2.4h7.7425q2.4 0 2.4-2.4v-35.285q0-2.4-2.4-2.4h-7.7425q-2.4 0-2.4 2.4z" clip-path="url(#a)" fill="#fff" stroke="#fff"/>
<g clip-path="url(#a)">
<g transform="translate(674.92 798.44) rotate(90) scale(.08 -.08)">
<use xlink:href="#l"/>
<use x="60.818359" xlink:href="#d"/>
<use x="122.341797" xlink:href="#j"/>
<use x="163.439453" xlink:href="#k"/>
<use x="260.851562" xlink:href="#h"/>
<use x="288.634766" xlink:href="#g"/>
<use x="352.013672" xlink:href="#f"/>
<use x="413.292969" xlink:href="#i"/>
</g>
</g>
<path d="m740.16 722.83 1.2788-5.4096q0.55214-2.3356-1.7835-2.8878l-7.5348-1.7812q-2.3356-0.55214-2.8878 1.7835l-1.2788 5.4096q-0.55214 2.3356 1.7835 2.8878l7.5348 1.7812q2.3356 0.55214 2.8878-1.7835z" clip-path="url(#a)" fill="#fff" stroke="#fff"/>
<g clip-path="url(#a)">
<g transform="translate(736.2 721.9) rotate(-76.699) scale(.08 -.08)">
<use xlink:href="#z"/>
</g>
</g>
<path d="m750.97 717.41 1.2852 5.4364q0.55214 2.3356 2.8878 1.7835l7.5348-1.7812q2.3356-0.55214 1.7835-2.8878l-1.2852-5.4364q-0.55214-2.3356-2.8878-1.7835l-7.5348 1.7812q-2.3356 0.55214-1.7835 2.8878z" clip-path="url(#a)" fill="#fff" stroke="#fff"/>
<g clip-path="url(#a)">
<g transform="translate(754.93 716.47) rotate(76.699) scale(.08 -.08)">
<use xlink:href="#u"/>
</g>
</g>
<path d="m842.79 723.88 2.376-5.0254q1.0258-2.1697-1.1439-3.1956l-6.9996-3.3094q-2.1697-1.0258-3.1956 1.1439l-2.376 5.0254q-1.0258 2.1697 1.1439 3.1956l6.9996 3.3094q2.1697 1.0258 3.1956-1.1439z" clip-path="url(#a)" fill="#fff" stroke="#fff"/>
<g clip-path="url(#a)">
<g transform="translate(839.12 722.14) rotate(-64.695) scale(.08 -.08)">
<use xlink:href="#z"/>
</g>
</g>
<path d="m855.06 716.16v5.055q0 2.4 2.4 2.4h7.7425q2.4 0 2.4-2.4v-5.055q0-2.4-2.4-2.4h-7.7425q-2.4 0-2.4 2.4z" clip-path="url(#a)" fill="#fff" stroke="#fff"/>
<g clip-path="url(#a)">
<g transform="translate(859.13 716.16) rotate(90) scale(.08 -.08)">
<use xlink:href="#o"/>
</g>
</g>
<path d="m877.5 718.84 2.3877 5.0502q1.0258 2.1697 3.1956 1.1439l6.9996-3.3094q2.1697-1.0258 1.1439-3.1956l-2.3877-5.0502q-1.0258-2.1697-3.1956-1.1439l-6.9996 3.3094q-2.1697 1.0258-1.1439 3.1956z" clip-path="url(#a)" fill="#fff" stroke="#fff"/>
<g clip-path="url(#a)">
<g transform="translate(881.17 717.1) rotate(64.695) scale(.08 -.08)">
<use xlink:href="#u"/>
</g>
</g>
<path d="m809.01 798.44v35.285q0 2.4 2.4 2.4h7.7425q2.4 0 2.4-2.4v-35.285q0-2.4-2.4-2.4h-7.7425q-2.4 0-2.4 2.4z" clip-path="url(#a)" fill="#fff" stroke="#fff"/>
<g clip-path="url(#a)">
<g transform="translate(813.08 798.44) rotate(90) scale(.08 -.08)">
<use xlink:href="#l"/>
<use x="60.818359" xlink:href="#d"/>
<use x="122.341797" xlink:href="#j"/>
<use x="163.439453" xlink:href="#k"/>
<use x="260.851562" xlink:href="#h"/>
<use x="288.634766" xlink:href="#g"/>
<use x="352.013672" xlink:href="#f"/>
<use x="413.292969" xlink:href="#i"/>
</g>
</g>
<path d="m855.06 798.44v35.285q0 2.4 2.4 2.4h7.7425q2.4 0 2.4-2.4v-35.285q0-2.4-2.4-2.4h-7.7425q-2.4 0-2.4 2.4z" clip-path="url(#a)" fill="#fff" stroke="#fff"/>
<g clip-path="url(#a)">
<g transform="translate(859.13 798.44) rotate(90) scale(.08 -.08)">
<use xlink:href="#l"/>
<use x="60.818359" xlink:href="#d"/>
<use x="122.341797" xlink:href="#j"/>
<use x="163.439453" xlink:href="#k"/>
<use x="260.851562" xlink:href="#h"/>
<use x="288.634766" xlink:href="#g"/>
<use x="352.013672" xlink:href="#f"/>
<use x="413.292969" xlink:href="#i"/>
</g>
</g>
<path d="m901.11 798.44v35.285q0 2.4 2.4 2.4h7.7425q2.4 0 2.4-2.4v-35.285q0-2.4-2.4-2.4h-7.7425q-2.4 0-2.4 2.4z" clip-path="url(#a)" fill="#fff" stroke="#fff"/>
<g clip-path="url(#a)">
<g transform="translate(905.18 798.44) rotate(90) scale(.08 -.08)">
<use xlink:href="#l"/>
<use x="60.818359" xlink:href="#d"/>
<use x="122.341797" xlink:href="#j"/>
<use x="163.439453" xlink:href="#k"/>
<use x="260.851562" xlink:href="#h"/>
<use x="288.634766" xlink:href="#g"/>
<use x="352.013672" xlink:href="#f"/>
<use x="413.292969" xlink:href="#i"/>
</g>
</g>
<path d="m716.91 798.44v35.285q0 2.4 2.4 2.4h7.7425q2.4 0 2.4-2.4v-35.285q0-2.4-2.4-2.4h-7.7425q-2.4 0-2.4 2.4z" clip-path="url(#a)" fill="#fff" stroke="#fff"/>
<g clip-path="url(#a)">
<g transform="translate(720.97 798.44) rotate(90) scale(.08 -.08)">
<use xlink:href="#l"/>
<use x="60.818359" xlink:href="#d"/>
<use x="122.341797" xlink:href="#j"/>
<use x="163.439453" xlink:href="#k"/>
<use x="260.851562" xlink:href="#h"/>
<use x="288.634766" xlink:href="#g"/>
<use x="352.013672" xlink:href="#f"/>
<use x="413.292969" xlink:href="#i"/>
</g>
</g>
<path d="m762.96 798.44v35.285q0 2.4 2.4 2.4h7.7425q2.4 0 2.4-2.4v-35.285q0-2.4-2.4-2.4h-7.7425q-2.4 0-2.4 2.4z" clip-path="url(#a)" fill="#fff" stroke="#fff"/>
<g clip-path="url(#a)">
<g transform="translate(767.02 798.44) rotate(90) scale(.08 -.08)">
<use xlink:href="#l"/>
<use x="60.818359" xlink:href="#d"/>
<use x="122.341797" xlink:href="#j"/>
<use x="163.439453" xlink:href="#k"/>
<use x="260.851562" xlink:href="#h"/>
<use x="288.634766" xlink:href="#g"/>
<use x="352.013672" xlink:href="#f"/>
<use x="413.292969" xlink:href="#i"/>
</g>
</g>
<path d="m394.55 798.44v35.285q0 2.4 2.4 2.4h7.7425q2.4 0 2.4-2.4v-35.285q0-2.4-2.4-2.4h-7.7425q-2.4 0-2.4 2.4z" clip-path="url(#a)" fill="#fff" stroke="#fff"/>
<g clip-path="url(#a)">
<g transform="translate(398.62 798.44) rotate(90) scale(.08 -.08)">
<use xlink:href="#l"/>
<use x="60.818359" xlink:href="#d"/>
<use x="122.341797" xlink:href="#j"/>
<use x="163.439453" xlink:href="#k"/>
<use x="260.851562" xlink:href="#h"/>
<use x="288.634766" xlink:href="#g"/>
<use x="352.013672" xlink:href="#f"/>
<use x="413.292969" xlink:href="#i"/>
</g>
</g>
<path d="m440.6 798.44v35.285q0 2.4 2.4 2.4h7.7425q2.4 0 2.4-2.4v-35.285q0-2.4-2.4-2.4h-7.7425q-2.4 0-2.4 2.4z" clip-path="url(#a)" fill="#fff" stroke="#fff"/>
<g clip-path="url(#a)">
<g transform="translate(444.67 798.44) rotate(90) scale(.08 -.08)">
<use xlink:href="#l"/>
<use x="60.818359" xlink:href="#d"/>
<use x="122.341797" xlink:href="#j"/>
<use x="163.439453" xlink:href="#k"/>
<use x="260.851562" xlink:href="#h"/>
<use x="288.634766" xlink:href="#g"/>
<use x="352.013672" xlink:href="#f"/>
<use x="413.292969" xlink:href="#i"/>
</g>
</g>
<path d="m1056.1 571.51 1.2536-4.8971q0.59518-2.325-1.7298-2.9202l-7.5006-1.9201q-2.325-0.59518-2.9202 1.7298l-1.2536 4.8971q-0.59518 2.325 1.7298 2.9202l7.5006 1.9201q2.325 0.59518 2.9202-1.7298z" clip-path="url(#a)" fill="#fff" stroke="#fff"/>
<g clip-path="url(#a)">
<g transform="translate(1052.2 570.5) rotate(-75.641) scale(.08 -.08)">
<use xlink:href="#o"/>
</g>
</g>
<path d="m1079.5 571.14 0.77883-5.5317q0.33461-2.3766-2.042-2.7112l-7.6669-1.0795q-2.3766-0.33461-2.7112 2.042l-0.77883 5.5317q-0.33461 2.3766 2.042 2.7112l7.6669 1.0795q2.3766 0.33461 2.7112-2.042z" clip-path="url(#a)" fill="#fff" stroke="#fff"/>
<g clip-path="url(#a)">
<g transform="translate(1075.5 570.58) rotate(-81.986) scale(.08 -.08)">
<use xlink:href="#u"/>
</g>
</g>
<path d="m1175.6 422.98 4.2402 2.7521q2.0131 1.3066 3.3198-0.70654l4.2152-6.4945q1.3066-2.0131-0.70653-3.3198l-4.2402-2.7521q-2.0131-1.3066-3.3198 0.70653l-4.2152 6.4945q-1.3066 2.0131 0.70653 3.3198z" clip-path="url(#a)" fill="#fff" stroke="#fff"/>
<g clip-path="url(#a)">
<g transform="translate(1177.8 419.57) rotate(32.985) scale(.08 -.08)">
<use xlink:href="#o"/>
</g>
</g>
<path d="m993.21 798.44v35.285q0 2.4 2.4 2.4h7.7425q2.4 0 2.4-2.4v-35.285q0-2.4-2.4-2.4h-7.7425q-2.4 0-2.4 2.4z" clip-path="url(#a)" fill="#fff" stroke="#fff"/>
<g clip-path="url(#a)">
<g transform="translate(997.28 798.44) rotate(90) scale(.08 -.08)">
<use xlink:href="#l"/>
<use x="60.818359" xlink:href="#d"/>
<use x="122.341797" xlink:href="#j"/>
<use x="163.439453" xlink:href="#k"/>
<use x="260.851562" xlink:href="#h"/>
<use x="288.634766" xlink:href="#g"/>
<use x="352.013672" xlink:href="#f"/>
<use x="413.292969" xlink:href="#i"/>
</g>
</g>
<path d="m1039.3 798.44v35.285q0 2.4 2.4 2.4h7.7425q2.4 0 2.4-2.4v-35.285q0-2.4-2.4-2.4h-7.7425q-2.4 0-2.4 2.4z" clip-path="url(#a)" fill="#fff" stroke="#fff"/>
<g clip-path="url(#a)">
<g transform="translate(1043.3 798.44) rotate(90) scale(.08 -.08)">
<use xlink:href="#l"/>
<use x="60.818359" xlink:href="#d"/>
<use x="122.341797" xlink:href="#j"/>
<use x="163.439453" xlink:href="#k"/>
<use x="260.851562" xlink:href="#h"/>
<use x="288.634766" xlink:href="#g"/>
<use x="352.013672" xlink:href="#f"/>
<use x="413.292969" xlink:href="#i"/>
</g>
</g>
<path d="m1190.8 576.41 3.5513-4.8563q1.4167-1.9373-0.52057-3.354l-6.2497-4.5703q-1.9373-1.4167-3.354 0.52057l-3.5513 4.8563q-1.4167 1.9373 0.52057 3.354l6.2497 4.5703q1.9373 1.4167 3.354-0.52057z" clip-path="url(#a)" fill="#fff" stroke="#fff"/>
<g clip-path="url(#a)">
<g transform="translate(1187.5 574.01) rotate(-53.822) scale(.08 -.08)">
<use xlink:href="#am"/>
</g>
</g>
<path d="m1251.1 621.84 0.45861-4.4338q0.24692-2.3873-2.1403-2.6342l-7.7014-0.79659q-2.3873-0.24692-2.6342 2.1403l-0.45861 4.4338q-0.24692 2.3873 2.1403 2.6342l7.7014 0.79659q2.3873 0.24692 2.6342-2.1403z" clip-path="url(#a)" fill="#fff" stroke="#fff"/>
<g clip-path="url(#a)">
<defs>
<path id="af" d="m9.8125 72.906h9.8594v-64.609h35.5v-8.2969h-45.359z"/>
</defs>
<g transform="translate(1247.1 621.42) rotate(-84.095) scale(.08 -.08)">
<use xlink:href="#af"/>
</g>
</g>
<path d="m1343 524.86 5.2263 2.9801q2.0849 1.1888 3.2737-0.89608l3.8351-6.7259q1.1888-2.0849-0.89608-3.2737l-5.2263-2.9801q-2.0849-1.1888-3.2737 0.89608l-3.8351 6.7259q-1.1888 2.0849 0.89608 3.2737z" clip-path="url(#a)" fill="#fff" stroke="#fff"/>
<g clip-path="url(#a)">
<g transform="translate(1345 521.33) rotate(29.692) scale(.08 -.08)">
<use xlink:href="#am"/>
</g>
</g>
<path d="m1083.6 724.54 3.1658-4.4639q1.3884-1.9577-0.56929-3.346l-6.3155-4.4789q-1.9577-1.3884-3.346 0.56929l-3.1658 4.4639q-1.3884 1.9577 0.56929 3.346l6.3155 4.4789q1.9577 1.3884 3.346-0.56929z" clip-path="url(#a)" fill="#fff" stroke="#fff"/>
<g clip-path="url(#a)">
<g transform="translate(1080.3 722.19) rotate(-54.656) scale(.08 -.08)">
<use xlink:href="#v"/>
</g>
</g>
<path d="m1108.6 722.83 1.2788-5.4096q0.55214-2.3356-1.7835-2.8878l-7.5348-1.7812q-2.3356-0.55214-2.8878 1.7835l-1.2788 5.4096q-0.55214 2.3356 1.7835 2.8878l7.5348 1.7812q2.3356 0.55214 2.8878-1.7835z" clip-path="url(#a)" fill="#fff" stroke="#fff"/>
<g clip-path="url(#a)">
<g transform="translate(1104.6 721.9) rotate(-76.699) scale(.08 -.08)">
<use xlink:href="#z"/>
</g>
</g>
<path d="m1119.3 717.13 1.4172 5.9948q0.55214 2.3356 2.8878 1.7835l7.5348-1.7812q2.3356-0.55214 1.7835-2.8878l-1.4172-5.9948q-0.55214-2.3356-2.8878-1.7835l-7.5348 1.7812q-2.3356 0.55214-1.7835 2.8878z" clip-path="url(#a)" fill="#fff" stroke="#fff"/>
<g clip-path="url(#a)">
<g transform="translate(1123.3 716.19) rotate(76.699) scale(.08 -.08)">
<use xlink:href="#ag"/>
</g>
</g>
<path d="m1142.6 720.34 2.7905 3.9347q1.3884 1.9577 3.346 0.56929l6.3155-4.4789q1.9577-1.3884 0.56929-3.346l-2.7905-3.9347q-1.3884-1.9577-3.346-0.56929l-6.3155 4.4789q-1.9577 1.3884-0.56929 3.346z" clip-path="url(#a)" fill="#fff" stroke="#fff"/>
<g clip-path="url(#a)">
<g transform="translate(1146 717.99) rotate(54.656) scale(.08 -.08)">
<use xlink:href="#aa"/>
</g>
</g>
<path d="m1223.5 798.44v35.285q0 2.4 2.4 2.4h7.7425q2.4 0 2.4-2.4v-35.285q0-2.4-2.4-2.4h-7.7425q-2.4 0-2.4 2.4z" clip-path="url(#a)" fill="#fff" stroke="#fff"/>
<g clip-path="url(#a)">
<g transform="translate(1227.5 798.44) rotate(90) scale(.08 -.08)">
<use xlink:href="#l"/>
<use x="60.818359" xlink:href="#d"/>
<use x="122.341797" xlink:href="#j"/>
<use x="163.439453" xlink:href="#k"/>
<use x="260.851562" xlink:href="#h"/>
<use x="288.634766" xlink:href="#g"/>
<use x="352.013672" xlink:href="#f"/>
<use x="413.292969" xlink:href="#i"/>
</g>
</g>
<path d="m1381.4 627.15 4.1537-3.563q1.8216-1.5626 0.25905-3.3842l-5.041-5.8767q-1.5626-1.8216-3.3842-0.25905l-4.1537 3.563q-1.8216 1.5626-0.25905 3.3842l5.041 5.8767q1.5626 1.8216 3.3842 0.25905z" clip-path="url(#a)" fill="#fff" stroke="#fff"/>
<g clip-path="url(#a)">
<g transform="translate(1378.8 624.06) rotate(-40.623) scale(.08 -.08)">
<use xlink:href="#v"/>
</g>
</g>
<path d="m1431.4 672.43 0.56237-4.7909q0.2798-2.3836-2.1038-2.6634l-7.6897-0.90264q-2.3836-0.2798-2.6634 2.1038l-0.56237 4.7909q-0.2798 2.3836 2.1038 2.6634l7.6897 0.90264q2.3836 0.2798 2.6634-2.1038z" clip-path="url(#a)" fill="#fff" stroke="#fff"/>
<g clip-path="url(#a)">
<g transform="translate(1427.4 671.96) rotate(-83.305) scale(.08 -.08)">
<use xlink:href="#aa"/>
</g>
</g>
<path d="m1441.9 666.98 0.71815 6.118q0.2798 2.3836 2.6634 2.1038l7.6897-0.90264q2.3836-0.2798 2.1038-2.6634l-0.71815-6.118q-0.2798-2.3836-2.6634-2.1038l-7.6897 0.90264q-2.3836 0.2798-2.1038 2.6634z" clip-path="url(#a)" fill="#fff" stroke="#fff"/>
<g clip-path="url(#a)">
<g transform="translate(1445.9 666.5) rotate(83.305) scale(.08 -.08)">
<use xlink:href="#ag"/>
</g>
</g>
<path d="m1488.4 623.58 4.1537 3.563q1.8216 1.5626 3.3842-0.25905l5.041-5.8767q1.5626-1.8216-0.25905-3.3842l-4.1537-3.563q-1.8216-1.5626-3.3842 0.25905l-5.041 5.8767q-1.5626 1.8216 0.25905 3.3842z" clip-path="url(#a)" fill="#fff" stroke="#fff"/>
<g clip-path="url(#a)">
<g transform="translate(1491 620.5) rotate(40.623) scale(.08 -.08)">
<use xlink:href="#v"/>
</g>
</g>
<path d="m1303.4 723.65 2.1607-4.57q1.0258-2.1697-1.1439-3.1956l-6.9996-3.3094q-2.1697-1.0258-3.1956 1.1439l-2.1607 4.57q-1.0258 2.1697 1.1439 3.1956l6.9996 3.3094q2.1697 1.0258 3.1956-1.1439z" clip-path="url(#a)" fill="#fff" stroke="#fff"/>
<g clip-path="url(#a)">
<g transform="translate(1299.7 721.91) rotate(-64.695) scale(.08 -.08)">
<use xlink:href="#o"/>
</g>
</g>
<path d="m1315.6 716.16v5.055q0 2.4 2.4 2.4h7.7425q2.4 0 2.4-2.4v-5.055q0-2.4-2.4-2.4h-7.7425q-2.4 0-2.4 2.4z" clip-path="url(#a)" fill="#fff" stroke="#fff"/>
<g clip-path="url(#a)">
<g transform="translate(1319.6 716.16) rotate(90) scale(.08 -.08)">
<use xlink:href="#o"/>
</g>
</g>
<path d="m1338 718.84 2.3877 5.0502q1.0258 2.1697 3.1956 1.1439l6.9996-3.3094q2.1697-1.0258 1.1439-3.1956l-2.3877-5.0502q-1.0258-2.1697-3.1956-1.1439l-6.9996 3.3094q-2.1697 1.0258-1.1439 3.1956z" clip-path="url(#a)" fill="#fff" stroke="#fff"/>
<g clip-path="url(#a)">
<g transform="translate(1341.7 717.1) rotate(64.695) scale(.08 -.08)">
<use xlink:href="#u"/>
</g>
</g>
<path d="m1407.7 798.44v35.285q0 2.4 2.4 2.4h7.7425q2.4 0 2.4-2.4v-35.285q0-2.4-2.4-2.4h-7.7425q-2.4 0-2.4 2.4z" clip-path="url(#a)" fill="#fff" stroke="#fff"/>
<g clip-path="url(#a)">
<g transform="translate(1411.7 798.44) rotate(90) scale(.08 -.08)">
<use xlink:href="#l"/>
<use x="60.818359" xlink:href="#d"/>
<use x="122.341797" xlink:href="#j"/>
<use x="163.439453" xlink:href="#k"/>
<use x="260.851562" xlink:href="#h"/>
<use x="288.634766" xlink:href="#g"/>
<use x="352.013672" xlink:href="#f"/>
<use x="413.292969" xlink:href="#i"/>
</g>
</g>
<path d="m1453.7 798.44v35.285q0 2.4 2.4 2.4h7.7425q2.4 0 2.4-2.4v-35.285q0-2.4-2.4-2.4h-7.7425q-2.4 0-2.4 2.4z" clip-path="url(#a)" fill="#fff" stroke="#fff"/>
<g clip-path="url(#a)">
<g transform="translate(1457.8 798.44) rotate(90) scale(.08 -.08)">
<use xlink:href="#l"/>
<use x="60.818359" xlink:href="#d"/>
<use x="122.341797" xlink:href="#j"/>
<use x="163.439453" xlink:href="#k"/>
<use x="260.851562" xlink:href="#h"/>
<use x="288.634766" xlink:href="#g"/>
<use x="352.013672" xlink:href="#f"/>
<use x="413.292969" xlink:href="#i"/>
</g>
</g>
<path d="m1533.7 723.65 2.1607-4.57q1.0258-2.1697-1.1439-3.1956l-6.9996-3.3094q-2.1697-1.0258-3.1956 1.1439l-2.1607 4.57q-1.0258 2.1697 1.1439 3.1956l6.9996 3.3094q2.1697 1.0258 3.1956-1.1439z" clip-path="url(#a)" fill="#fff" stroke="#fff"/>
<g clip-path="url(#a)">
<g transform="translate(1530 721.91) rotate(-64.695) scale(.08 -.08)">
<use xlink:href="#o"/>
</g>
</g>
<path d="m1545.8 715.89v5.5862q0 2.4 2.4 2.4h7.7425q2.4 0 2.4-2.4v-5.5862q0-2.4-2.4-2.4h-7.7425q-2.4 0-2.4 2.4z" clip-path="url(#a)" fill="#fff" stroke="#fff"/>
<g clip-path="url(#a)">
<g transform="translate(1549.9 715.89) rotate(90) scale(.08 -.08)">
<use xlink:href="#u"/>
</g>
</g>
<path d="m1568.2 718.72 2.5026 5.2932q1.0258 2.1697 3.1956 1.1439l6.9996-3.3094q2.1697-1.0258 1.1439-3.1956l-2.5026-5.2932q-1.0258-2.1697-3.1956-1.1439l-6.9996 3.3094q-2.1697 1.0258-1.1439 3.1956z" clip-path="url(#a)" fill="#fff" stroke="#fff"/>
<g clip-path="url(#a)">
<g transform="translate(1571.9 716.98) rotate(64.695) scale(.08 -.08)">
<use xlink:href="#ak"/>
</g>
</g>
<path d="m1499.8 798.44v35.285q0 2.4 2.4 2.4h7.7425q2.4 0 2.4-2.4v-35.285q0-2.4-2.4-2.4h-7.7425q-2.4 0-2.4 2.4z" clip-path="url(#a)" fill="#fff" stroke="#fff"/>
<g clip-path="url(#a)">
<g transform="translate(1503.8 798.44) rotate(90) scale(.08 -.08)">
<use xlink:href="#l"/>
<use x="60.818359" xlink:href="#d"/>
<use x="122.341797" xlink:href="#j"/>
<use x="163.439453" xlink:href="#k"/>
<use x="260.851562" xlink:href="#h"/>
<use x="288.634766" xlink:href="#g"/>
<use x="352.013672" xlink:href="#f"/>
<use x="413.292969" xlink:href="#i"/>
</g>
</g>
<path d="m1545.8 798.44v35.285q0 2.4 2.4 2.4h7.7425q2.4 0 2.4-2.4v-35.285q0-2.4-2.4-2.4h-7.7425q-2.4 0-2.4 2.4z" clip-path="url(#a)" fill="#fff" stroke="#fff"/>
<g clip-path="url(#a)">
<g transform="translate(1549.9 798.44) rotate(90) scale(.08 -.08)">
<use xlink:href="#l"/>
<use x="60.818359" xlink:href="#d"/>
<use x="122.341797" xlink:href="#j"/>
<use x="163.439453" xlink:href="#k"/>
<use x="260.851562" xlink:href="#h"/>
<use x="288.634766" xlink:href="#g"/>
<use x="352.013672" xlink:href="#f"/>
<use x="413.292969" xlink:href="#i"/>
</g>
</g>
<path d="m1269.5 798.44v35.285q0 2.4 2.4 2.4h7.7425q2.4 0 2.4-2.4v-35.285q0-2.4-2.4-2.4h-7.7425q-2.4 0-2.4 2.4z" clip-path="url(#a)" fill="#fff" stroke="#fff"/>
<g clip-path="url(#a)">
<g transform="translate(1273.6 798.44) rotate(90) scale(.08 -.08)">
<use xlink:href="#l"/>
<use x="60.818359" xlink:href="#d"/>
<use x="122.341797" xlink:href="#j"/>
<use x="163.439453" xlink:href="#k"/>
<use x="260.851562" xlink:href="#h"/>
<use x="288.634766" xlink:href="#g"/>
<use x="352.013672" xlink:href="#f"/>
<use x="413.292969" xlink:href="#i"/>
</g>
</g>
<path d="m1315.6 798.44v35.285q0 2.4 2.4 2.4h7.7425q2.4 0 2.4-2.4v-35.285q0-2.4-2.4-2.4h-7.7425q-2.4 0-2.4 2.4z" clip-path="url(#a)" fill="#fff" stroke="#fff"/>
<g clip-path="url(#a)">
<g transform="translate(1319.6 798.44) rotate(90) scale(.08 -.08)">
<use xlink:href="#l"/>
<use x="60.818359" xlink:href="#d"/>
<use x="122.341797" xlink:href="#j"/>
<use x="163.439453" xlink:href="#k"/>
<use x="260.851562" xlink:href="#h"/>
<use x="288.634766" xlink:href="#g"/>
<use x="352.013672" xlink:href="#f"/>
<use x="413.292969" xlink:href="#i"/>
</g>
</g>
<path d="m1361.6 798.44v35.285q0 2.4 2.4 2.4h7.7425q2.4 0 2.4-2.4v-35.285q0-2.4-2.4-2.4h-7.7425q-2.4 0-2.4 2.4z" clip-path="url(#a)" fill="#fff" stroke="#fff"/>
<g clip-path="url(#a)">
<g transform="translate(1365.7 798.44) rotate(90) scale(.08 -.08)">
<use xlink:href="#l"/>
<use x="60.818359" xlink:href="#d"/>
<use x="122.341797" xlink:href="#j"/>
<use x="163.439453" xlink:href="#k"/>
<use x="260.851562" xlink:href="#h"/>
<use x="288.634766" xlink:href="#g"/>
<use x="352.013672" xlink:href="#f"/>
<use x="413.292969" xlink:href="#i"/>
</g>
</g>
<path d="m1085.3 798.44v35.285q0 2.4 2.4 2.4h7.7425q2.4 0 2.4-2.4v-35.285q0-2.4-2.4-2.4h-7.7425q-2.4 0-2.4 2.4z" clip-path="url(#a)" fill="#fff" stroke="#fff"/>
<g clip-path="url(#a)">
<g transform="translate(1089.4 798.44) rotate(90) scale(.08 -.08)">
<use xlink:href="#l"/>
<use x="60.818359" xlink:href="#d"/>
<use x="122.341797" xlink:href="#j"/>
<use x="163.439453" xlink:href="#k"/>
<use x="260.851562" xlink:href="#h"/>
<use x="288.634766" xlink:href="#g"/>
<use x="352.013672" xlink:href="#f"/>
<use x="413.292969" xlink:href="#i"/>
</g>
</g>
<path d="m1131.4 798.44v35.285q0 2.4 2.4 2.4h7.7425q2.4 0 2.4-2.4v-35.285q0-2.4-2.4-2.4h-7.7425q-2.4 0-2.4 2.4z" clip-path="url(#a)" fill="#fff" stroke="#fff"/>
<g clip-path="url(#a)">
<g transform="translate(1135.4 798.44) rotate(90) scale(.08 -.08)">
<use xlink:href="#l"/>
<use x="60.818359" xlink:href="#d"/>
<use x="122.341797" xlink:href="#j"/>
<use x="163.439453" xlink:href="#k"/>
<use x="260.851562" xlink:href="#h"/>
<use x="288.634766" xlink:href="#g"/>
<use x="352.013672" xlink:href="#f"/>
<use x="413.292969" xlink:href="#i"/>
</g>
</g>
<path d="m1177.4 798.44v35.285q0 2.4 2.4 2.4h7.7425q2.4 0 2.4-2.4v-35.285q0-2.4-2.4-2.4h-7.7425q-2.4 0-2.4 2.4z" clip-path="url(#a)" fill="#fff" stroke="#fff"/>
<g clip-path="url(#a)">
<g transform="translate(1181.5 798.44) rotate(90) scale(.08 -.08)">
<use xlink:href="#l"/>
<use x="60.818359" xlink:href="#d"/>
<use x="122.341797" xlink:href="#j"/>
<use x="163.439453" xlink:href="#k"/>
<use x="260.851562" xlink:href="#h"/>
<use x="288.634766" xlink:href="#g"/>
<use x="352.013672" xlink:href="#f"/>
<use x="413.292969" xlink:href="#i"/>
</g>
</g>
<path d="m72.198 798.44v35.285q0 2.4 2.4 2.4h7.7425q2.4 0 2.4-2.4v-35.285q0-2.4-2.4-2.4h-7.7425q-2.4 0-2.4 2.4z" clip-path="url(#a)" fill="#fff" stroke="#fff"/>
<g clip-path="url(#a)">
<g transform="translate(76.262 798.44) rotate(90) scale(.08 -.08)">
<use xlink:href="#l"/>
<use x="60.818359" xlink:href="#d"/>
<use x="122.341797" xlink:href="#j"/>
<use x="163.439453" xlink:href="#k"/>
<use x="260.851562" xlink:href="#h"/>
<use x="288.634766" xlink:href="#g"/>
<use x="352.013672" xlink:href="#f"/>
<use x="413.292969" xlink:href="#i"/>
</g>
</g>
<path d="m118.25 798.44v35.285q0 2.4 2.4 2.4h7.7425q2.4 0 2.4-2.4v-35.285q0-2.4-2.4-2.4h-7.7425q-2.4 0-2.4 2.4z" clip-path="url(#a)" fill="#fff" stroke="#fff"/>
<g clip-path="url(#a)">
<g transform="translate(122.31 798.44) rotate(90) scale(.08 -.08)">
<use xlink:href="#l"/>
<use x="60.818359" xlink:href="#d"/>
<use x="122.341797" xlink:href="#j"/>
<use x="163.439453" xlink:href="#k"/>
<use x="260.851562" xlink:href="#h"/>
<use x="288.634766" xlink:href="#g"/>
<use x="352.013672" xlink:href="#f"/>
<use x="413.292969" xlink:href="#i"/>
</g>
</g>
<path d="m445.5 725.39 5.3541-1.1324q2.3481-0.49663 1.8514-2.8447l-1.6021-7.5749q-0.49663-2.3481-2.8447-1.8514l-5.3541 1.1324q-2.3481 0.49663-1.8514 2.8447l1.6021 7.5749q0.49663 2.3481 2.8447 1.8514z" clip-path="url(#a)" fill="#fff" stroke="#fff"/>
<g clip-path="url(#a)">
<g transform="translate(444.66 721.41) rotate(-11.942) scale(.08 -.08)">
<use xlink:href="#v"/>
</g>
</g>
<path d="m1156.7 772.99 5.3647 1.0806q2.3527 0.47392 2.8267-1.8788l1.5289-7.59q0.47392-2.3527-1.8788-2.8267l-5.3647-1.0806q-2.3527-0.47392-2.8267 1.8788l-1.5289 7.59q-0.47392 2.3527 1.8788 2.8267z" clip-path="url(#a)" fill="#fff" stroke="#fff"/>
<g clip-path="url(#a)">
<g transform="translate(1157.5 769.01) rotate(11.389) scale(.08 -.08)">
<use xlink:href="#v"/>
</g>
</g>
<path d="m422.67 725.3 4.737-0.91082q2.3568-0.45317 1.9037-2.81l-1.4619-7.6032q-0.45317-2.3568-2.81-1.9037l-4.737 0.91082q-2.3568 0.45317-1.9037 2.81l1.4619 7.6032q0.45317 2.3568 2.81 1.9037z" clip-path="url(#a)" fill="#fff" stroke="#fff"/>
<g clip-path="url(#a)">
<g transform="translate(421.9 721.31) rotate(-10.884) scale(.08 -.08)">
<use xlink:href="#aa"/>
</g>
</g>
<path d="m210.35 798.44v35.285q0 2.4 2.4 2.4h7.7425q2.4 0 2.4-2.4v-35.285q0-2.4-2.4-2.4h-7.7425q-2.4 0-2.4 2.4z" clip-path="url(#a)" fill="#fff" stroke="#fff"/>
<g clip-path="url(#a)">
<g transform="translate(214.41 798.44) rotate(90) scale(.08 -.08)">
<use xlink:href="#l"/>
<use x="60.818359" xlink:href="#d"/>
<use x="122.341797" xlink:href="#j"/>
<use x="163.439453" xlink:href="#k"/>
<use x="260.851562" xlink:href="#h"/>
<use x="288.634766" xlink:href="#g"/>
<use x="352.013672" xlink:href="#f"/>
<use x="413.292969" xlink:href="#i"/>
</g>
</g>
<path d="m164.3 798.44v35.285q0 2.4 2.4 2.4h7.7425q2.4 0 2.4-2.4v-35.285q0-2.4-2.4-2.4h-7.7425q-2.4 0-2.4 2.4z" clip-path="url(#a)" fill="#fff" stroke="#fff"/>
<g clip-path="url(#a)">
<g transform="translate(168.36 798.44) rotate(90) scale(.08 -.08)">
<use xlink:href="#l"/>
<use x="60.818359" xlink:href="#d"/>
<use x="122.341797" xlink:href="#j"/>
<use x="163.439453" xlink:href="#k"/>
<use x="260.851562" xlink:href="#h"/>
<use x="288.634766" xlink:href="#g"/>
<use x="352.013672" xlink:href="#f"/>
<use x="413.292969" xlink:href="#i"/>
</g>
</g>
<path d="m1285.8 625.77 3.3012-9.4566q0.791-2.2659-1.4749-3.0569l-7.3099-2.5518q-2.2659-0.791-3.0569 1.4749l-3.3012 9.4566q-0.791 2.2659 1.4749 3.0569l7.3099 2.5518q2.2659 0.791 3.0569-1.4749z" clip-path="url(#a)" fill="#fff" stroke="#fff"/>
<g clip-path="url(#a)">
<g transform="translate(1282 624.43) rotate(-70.756) scale(.08 -.08)">
<use xlink:href="#af"/>
<use x="55.712891" xlink:href="#z"/>
</g>
</g>
<path d="m1377.2 521.94 7.1243 6.9209q1.7214 1.6723 3.3938-0.049135l5.3949-5.5535q1.6723-1.7214-0.049135-3.3938l-7.1243-6.9209q-1.7214-1.6723-3.3938 0.049135l-5.3949 5.5535q-1.6723 1.7214 0.049134 3.3938z" clip-path="url(#a)" fill="#fff" stroke="#fff"/>
<g clip-path="url(#a)">
<g transform="translate(1380.1 519.02) rotate(44.171) scale(.08 -.08)">
<use xlink:href="#af"/>
<use x="55.744141" xlink:href="#v"/>
</g>
</g>
<path d="m256.4 798.44v35.285q0 2.4 2.4 2.4h7.7425q2.4 0 2.4-2.4v-35.285q0-2.4-2.4-2.4h-7.7425q-2.4 0-2.4 2.4z" clip-path="url(#a)" fill="#fff" stroke="#fff"/>
<g clip-path="url(#a)">
<g transform="translate(260.47 798.44) rotate(90) scale(.08 -.08)">
<use xlink:href="#l"/>
<use x="60.818359" xlink:href="#d"/>
<use x="122.341797" xlink:href="#j"/>
<use x="163.439453" xlink:href="#k"/>
<use x="260.851562" xlink:href="#h"/>
<use x="288.634766" xlink:href="#g"/>
<use x="352.013672" xlink:href="#f"/>
<use x="413.292969" xlink:href="#i"/>
</g>
</g>
<path d="m947.16 798.44v35.285q0 2.4 2.4 2.4h7.7425q2.4 0 2.4-2.4v-35.285q0-2.4-2.4-2.4h-7.7425q-2.4 0-2.4 2.4z" clip-path="url(#a)" fill="#fff" stroke="#fff"/>
<g clip-path="url(#a)">
<g transform="translate(951.23 798.44) rotate(90) scale(.08 -.08)">
<use xlink:href="#l"/>
<use x="60.818359" xlink:href="#d"/>
<use x="122.341797" xlink:href="#j"/>
<use x="163.439453" xlink:href="#k"/>
<use x="260.851562" xlink:href="#h"/>
<use x="288.634766" xlink:href="#g"/>
<use x="352.013672" xlink:href="#f"/>
<use x="413.292969" xlink:href="#i"/>
</g>
</g>
<path d="m1591.9 798.44v35.285q0 2.4 2.4 2.4h7.7425q2.4 0 2.4-2.4v-35.285q0-2.4-2.4-2.4h-7.7425q-2.4 0-2.4 2.4z" clip-path="url(#a)" fill="#fff" stroke="#fff"/>
<g clip-path="url(#a)">
<g transform="translate(1595.9 798.44) rotate(90) scale(.08 -.08)">
<use xlink:href="#l"/>
<use x="60.818359" xlink:href="#d"/>
<use x="122.341797" xlink:href="#j"/>
<use x="163.439453" xlink:href="#k"/>
<use x="260.851562" xlink:href="#h"/>
<use x="288.634766" xlink:href="#g"/>
<use x="352.013672" xlink:href="#f"/>
<use x="413.292969" xlink:href="#i"/>
</g>
</g>
<defs>
<path id="b" d="m0 8.6603c2.2967 0 4.4997-0.9125 6.1237-2.5365 1.624-1.624 2.5365-3.827 2.5365-6.1237s-0.9125-4.4997-2.5365-6.1237c-1.624-1.624-3.827-2.5365-6.1237-2.5365s-4.4997 0.9125-6.1237 2.5365c-1.624 1.624-2.5365 3.827-2.5365 6.1237s0.9125 4.4997 2.5365 6.1237c1.624 1.624 3.827 2.5365 6.1237 2.5365z"/>
</defs>
<g clip-path="url(#a)">
<use x="78.469716" y="864.784698" fill="#ffffff" stroke="#ffffff" xlink:href="#b"/>
</g>
<g clip-path="url(#a)">
<use x="124.520517" y="864.784698" fill="#ffffff" stroke="#ffffff" xlink:href="#b"/>
</g>
<g clip-path="url(#a)">
<use x="170.571318" y="864.784698" fill="#ffffff" stroke="#ffffff" xlink:href="#b"/>
</g>
<g clip-path="url(#a)">
<use x="216.622119" y="864.784698" fill="#ffffff" stroke="#ffffff" xlink:href="#b"/>
</g>
<g clip-path="url(#a)">
<use x="262.67292" y="864.784698" fill="#ffffff" stroke="#ffffff" xlink:href="#b"/>
</g>
<g clip-path="url(#a)">
<use x="308.723721" y="864.784698" fill="#ffffff" stroke="#ffffff" xlink:href="#b"/>
</g>
<g clip-path="url(#a)">
<use x="354.774522" y="864.784698" fill="#ffffff" stroke="#ffffff" xlink:href="#b"/>
</g>
<g clip-path="url(#a)">
<use x="400.825323" y="864.784698" fill="#ffffff" stroke="#ffffff" xlink:href="#b"/>
</g>
<g clip-path="url(#a)">
<use x="446.876124" y="864.784698" fill="#ffffff" stroke="#ffffff" xlink:href="#b"/>
</g>
<g clip-path="url(#a)">
<use x="492.926925" y="864.784698" fill="#ffffff" stroke="#ffffff" xlink:href="#b"/>
</g>
<g clip-path="url(#a)">
<use x="538.977726" y="864.784698" fill="#ffffff" stroke="#ffffff" xlink:href="#b"/>
</g>
<g clip-path="url(#a)">
<use x="585.028527" y="864.784698" fill="#ffffff" stroke="#ffffff" xlink:href="#b"/>
</g>
<g clip-path="url(#a)">
<use x="631.079328" y="864.784698" fill="#ffffff" stroke="#ffffff" xlink:href="#b"/>
</g>
<g clip-path="url(#a)">
<use x="677.130129" y="864.784698" fill="#ffffff" stroke="#ffffff" xlink:href="#b"/>
</g>
<g clip-path="url(#a)">
<use x="723.18093" y="864.784698" fill="#ffffff" stroke="#ffffff" xlink:href="#b"/>
</g>
<g clip-path="url(#a)">
<use x="769.231731" y="864.784698" fill="#ffffff" stroke="#ffffff" xlink:href="#b"/>
</g>
<g clip-path="url(#a)">
<use x="815.282532" y="864.784698" fill="#ffffff" stroke="#ffffff" xlink:href="#b"/>
</g>
<g clip-path="url(#a)">
<use x="861.333333" y="864.784698" fill="#ffffff" stroke="#ffffff" xlink:href="#b"/>
</g>
<g clip-path="url(#a)">
<use x="907.384134" y="864.784698" fill="#ffffff" stroke="#ffffff" xlink:href="#b"/>
</g>
<g clip-path="url(#a)">
<use x="953.434935" y="864.784698" fill="#ffffff" stroke="#ffffff" xlink:href="#b"/>
</g>
<g clip-path="url(#a)">
<use x="999.485736" y="864.784698" fill="#ffffff" stroke="#ffffff" xlink:href="#b"/>
</g>
<g clip-path="url(#a)">
<use x="1045.536537" y="864.784698" fill="#ffffff" stroke="#ffffff" xlink:href="#b"/>
</g>
<g clip-path="url(#a)">
<use x="1091.587338" y="864.784698" fill="#ffffff" stroke="#ffffff" xlink:href="#b"/>
</g>
<g clip-path="url(#a)">
<use x="1137.638139" y="864.784698" fill="#ffffff" stroke="#ffffff" xlink:href="#b"/>
</g>
<g clip-path="url(#a)">
<use x="1183.68894" y="864.784698" fill="#ffffff" stroke="#ffffff" xlink:href="#b"/>
</g>
<g clip-path="url(#a)">
<use x="1229.739741" y="864.784698" fill="#ffffff" stroke="#ffffff" xlink:href="#b"/>
</g>
<g clip-path="url(#a)">
<use x="1275.790542" y="864.784698" fill="#ffffff" stroke="#ffffff" xlink:href="#b"/>
</g>
<g clip-path="url(#a)">
<use x="1321.841343" y="864.784698" fill="#ffffff" stroke="#ffffff" xlink:href="#b"/>
</g>
<g clip-path="url(#a)">
<use x="1367.892144" y="864.784698" fill="#ffffff" stroke="#ffffff" xlink:href="#b"/>
</g>
<g clip-path="url(#a)">
<use x="1413.942945" y="864.784698" fill="#ffffff" stroke="#ffffff" xlink:href="#b"/>
</g>
<g clip-path="url(#a)">
<use x="1459.993746" y="864.784698" fill="#ffffff" stroke="#ffffff" xlink:href="#b"/>
</g>
<g clip-path="url(#a)">
<use x="1506.044547" y="864.784698" fill="#ffffff" stroke="#ffffff" xlink:href="#b"/>
</g>
<g clip-path="url(#a)">
<use x="1552.095348" y="864.784698" fill="#ffffff" stroke="#ffffff" xlink:href="#b"/>
</g>
<g clip-path="url(#a)">
<use x="1598.146149" y="864.784698" fill="#ffffff" stroke="#ffffff" xlink:href="#b"/>
</g>
<g clip-path="url(#a)">
<use x="502.467543" y="41.881969" fill="#ffffff" stroke="#ffffff" xlink:href="#b"/>
</g>
<g clip-path="url(#a)">
<use x="502.467543" y="153.563939" fill="#ffffff" stroke="#ffffff" xlink:href="#b"/>
</g>
<g clip-path="url(#a)">
<use x="274.185621" y="571.228823" fill="#ffffff" stroke="#ffffff" xlink:href="#b"/>
</g>
<g clip-path="url(#a)">
<use x="308.723721" y="767.384388" fill="#ffffff" stroke="#ffffff" xlink:href="#b"/>
</g>
<g clip-path="url(#a)">
<use x="354.774522" y="767.384388" fill="#ffffff" stroke="#ffffff" xlink:href="#b"/>
</g>
<g clip-path="url(#a)">
<use x="649.840766" y="262.050686" fill="#ffffff" stroke="#ffffff" xlink:href="#b"/>
</g>
<g clip-path="url(#a)">
<use x="515.952326" y="767.384388" fill="#ffffff" stroke="#ffffff" xlink:href="#b"/>
</g>
<g clip-path="url(#a)">
<use x="700.15553" y="571.228823" fill="#ffffff" stroke="#ffffff" xlink:href="#b"/>
</g>
<g clip-path="url(#a)">
<use x="585.028527" y="767.384388" fill="#ffffff" stroke="#ffffff" xlink:href="#b"/>
</g>
<g clip-path="url(#a)">
<use x="631.079328" y="767.384388" fill="#ffffff" stroke="#ffffff" xlink:href="#b"/>
</g>
<g clip-path="url(#a)">
<use x="677.130129" y="767.384388" fill="#ffffff" stroke="#ffffff" xlink:href="#b"/>
</g>
<g clip-path="url(#a)">
<use x="746.206331" y="669.984078" fill="#ffffff" stroke="#ffffff" xlink:href="#b"/>
</g>
<g clip-path="url(#a)">
<use x="861.333333" y="669.984078" fill="#ffffff" stroke="#ffffff" xlink:href="#b"/>
</g>
<g clip-path="url(#a)">
<use x="815.282532" y="767.384388" fill="#ffffff" stroke="#ffffff" xlink:href="#b"/>
</g>
<g clip-path="url(#a)">
<use x="861.333333" y="767.384388" fill="#ffffff" stroke="#ffffff" xlink:href="#b"/>
</g>
<g clip-path="url(#a)">
<use x="907.384134" y="767.384388" fill="#ffffff" stroke="#ffffff" xlink:href="#b"/>
</g>
<g clip-path="url(#a)">
<use x="723.18093" y="767.384388" fill="#ffffff" stroke="#ffffff" xlink:href="#b"/>
</g>
<g clip-path="url(#a)">
<use x="769.231731" y="767.384388" fill="#ffffff" stroke="#ffffff" xlink:href="#b"/>
</g>
<g clip-path="url(#a)">
<use x="400.825323" y="767.384388" fill="#ffffff" stroke="#ffffff" xlink:href="#b"/>
</g>
<g clip-path="url(#a)">
<use x="446.876124" y="767.384388" fill="#ffffff" stroke="#ffffff" xlink:href="#b"/>
</g>
<g clip-path="url(#a)">
<use x="1101.82085" y="367.621609" fill="#ffffff" stroke="#ffffff" xlink:href="#b"/>
</g>
<g clip-path="url(#a)">
<use x="999.485736" y="767.384388" fill="#ffffff" stroke="#ffffff" xlink:href="#b"/>
</g>
<g clip-path="url(#a)">
<use x="1045.536537" y="767.384388" fill="#ffffff" stroke="#ffffff" xlink:href="#b"/>
</g>
<g clip-path="url(#a)">
<use x="1260.440275" y="470.571961" fill="#ffffff" stroke="#ffffff" xlink:href="#b"/>
</g>
<g clip-path="url(#a)">
<use x="1114.612739" y="669.984078" fill="#ffffff" stroke="#ffffff" xlink:href="#b"/>
</g>
<g clip-path="url(#a)">
<use x="1229.739741" y="767.384388" fill="#ffffff" stroke="#ffffff" xlink:href="#b"/>
</g>
<g clip-path="url(#a)">
<use x="1436.968346" y="571.228823" fill="#ffffff" stroke="#ffffff" xlink:href="#b"/>
</g>
<g clip-path="url(#a)">
<use x="1321.841343" y="669.984078" fill="#ffffff" stroke="#ffffff" xlink:href="#b"/>
</g>
<g clip-path="url(#a)">
<use x="1413.942945" y="767.384388" fill="#ffffff" stroke="#ffffff" xlink:href="#b"/>
</g>
<g clip-path="url(#a)">
<use x="1459.993746" y="767.384388" fill="#ffffff" stroke="#ffffff" xlink:href="#b"/>
</g>
<g clip-path="url(#a)">
<use x="1552.095348" y="669.984078" fill="#ffffff" stroke="#ffffff" xlink:href="#b"/>
</g>
<g clip-path="url(#a)">
<use x="1506.044547" y="767.384388" fill="#ffffff" stroke="#ffffff" xlink:href="#b"/>
</g>
<g clip-path="url(#a)">
<use x="1552.095348" y="767.384388" fill="#ffffff" stroke="#ffffff" xlink:href="#b"/>
</g>
<g clip-path="url(#a)">
<use x="1275.790542" y="767.384388" fill="#ffffff" stroke="#ffffff" xlink:href="#b"/>
</g>
<g clip-path="url(#a)">
<use x="1321.841343" y="767.384388" fill="#ffffff" stroke="#ffffff" xlink:href="#b"/>
</g>
<g clip-path="url(#a)">
<use x="1367.892144" y="767.384388" fill="#ffffff" stroke="#ffffff" xlink:href="#b"/>
</g>
<g clip-path="url(#a)">
<use x="1091.587338" y="767.384388" fill="#ffffff" stroke="#ffffff" xlink:href="#b"/>
</g>
<g clip-path="url(#a)">
<use x="1137.638139" y="767.384388" fill="#ffffff" stroke="#ffffff" xlink:href="#b"/>
</g>
<g clip-path="url(#a)">
<use x="1183.68894" y="767.384388" fill="#ffffff" stroke="#ffffff" xlink:href="#b"/>
</g>
<g clip-path="url(#a)">
<use x="78.469716" y="767.384388" fill="#ffffff" stroke="#ffffff" xlink:href="#b"/>
</g>
<g clip-path="url(#a)">
<use x="124.520517" y="767.384388" fill="#ffffff" stroke="#ffffff" xlink:href="#b"/>
</g>
<g clip-path="url(#a)">
<use x="677.130129" y="669.984078" fill="#ffffff" stroke="#ffffff" xlink:href="#b"/>
</g>
<g clip-path="url(#a)">
<use x="216.622119" y="767.384388" fill="#ffffff" stroke="#ffffff" xlink:href="#b"/>
</g>
<g clip-path="url(#a)">
<use x="1644.19695" y="864.784698" fill="#ffffff" stroke="#ffffff" xlink:href="#b"/>
</g>
<g clip-path="url(#a)">
<use x="170.571318" y="767.384388" fill="#ffffff" stroke="#ffffff" xlink:href="#b"/>
</g>
<g clip-path="url(#a)">
<use x="1333.354044" y="470.571961" fill="#808080" stroke="#808080" xlink:href="#b"/>
</g>
<g clip-path="url(#a)">
<use x="262.67292" y="767.384388" fill="#ffffff" stroke="#ffffff" xlink:href="#b"/>
</g>
<g clip-path="url(#a)">
<use x="953.434935" y="767.384388" fill="#ffffff" stroke="#ffffff" xlink:href="#b"/>
</g>
<g clip-path="url(#a)">
<use x="1598.146149" y="767.384388" fill="#ffffff" stroke="#ffffff" xlink:href="#b"/>
</g>
<g clip-path="url(#a)">
<defs>
<path id="ar" d="m3.3281 72.906h9.9531l15.328-61.625 15.281 61.625h11.094l15.328-61.625 15.281 61.625h10.016l-18.312-72.906h-12.406l-15.375 63.281-15.531-63.281h-12.406z"/>
<path id="n" d="m18.312 70.219v-15.531h18.5v-6.9844h-18.5v-29.688q0-6.6875 1.8281-8.5938t7.4531-1.9062h9.2188v-7.5156h-9.2188q-10.406 0-14.359 3.875-3.9531 3.8906-3.9531 14.141v29.688h-6.5938v6.9844h6.5938v15.531z"/>
<path id="s" d="m54.891 33.016v-33.016h-8.9844v32.719q0 7.7656-3.0312 11.609-3.0312 3.8594-9.0781 3.8594-7.2812 0-11.484-4.6406-4.2031-4.625-4.2031-12.641v-30.906h-9.0312v75.984h9.0312v-29.797q3.2344 4.9375 7.5938 7.375 4.375 2.4375 10.094 2.4375 9.4219 0 14.25-5.8281 4.8438-5.8281 4.8438-17.156z"/>
</defs>
<g transform="translate(67.01 867.54) scale(.1 -.1)">
<use xlink:href="#ar"/>
<use x="98.845703" xlink:href="#h"/>
<use x="126.628906" xlink:href="#n"/>
<use x="165.837891" xlink:href="#s"/>
</g>
</g>
<g clip-path="url(#a)">
<defs>
<path id="r" d="m44.281 53.078v-8.5q-3.7969 1.9531-7.9062 2.9219-4.0938 0.98438-8.5 0.98438-6.6875 0-10.031-2.0469t-3.3438-6.1562q0-3.125 2.3906-4.9062t9.625-3.3906l3.0781-0.6875q9.5625-2.0469 13.594-5.7812t4.0312-10.422q0-7.625-6.0312-12.078-6.0312-4.4375-16.578-4.4375-4.3906 0-9.1562 0.85938t-10.031 2.5625v9.2812q4.9844-2.5938 9.8125-3.8906 4.8281-1.2812 9.5781-1.2812 6.3438 0 9.75 2.1719 3.4219 2.1719 3.4219 6.125 0 3.6562-2.4688 5.6094-2.4531 1.9531-10.812 3.7656l-3.125 0.73438q-8.3438 1.75-12.062 5.3906-3.7031 3.6406-3.7031 9.9844 0 7.7188 5.4688 11.906 5.4688 4.2031 15.531 4.2031 4.9688 0 9.3594-0.73438 4.4062-0.71875 8.1094-2.1875z"/>
</defs>
<g transform="translate(118.57 867.54) scale(.1 -.1)">
<use xlink:href="#h"/>
<use x="27.783203" xlink:href="#n"/>
<use x="66.992188" xlink:href="#r"/>
</g>
</g>
<g clip-path="url(#a)">
<defs>
<path id="x" d="m8.5 21.578v33.109h8.9844v-32.766q0-7.7656 3.0156-11.656 3.0312-3.875 9.0938-3.875 7.2656 0 11.484 4.6406 4.2344 4.6406 4.2344 12.656v31h8.9844v-54.688h-8.9844v8.4062q-3.2656-4.9844-7.5938-7.4062-4.3125-2.4219-10.031-2.4219-9.4219 0-14.312 5.8594-4.875 5.8594-4.875 17.141z"/>
<path id="t" d="m30.609 48.391q-7.2188 0-11.422-5.6406t-4.2031-15.453 4.1719-15.453q4.1875-5.6406 11.453-5.6406 7.1875 0 11.375 5.6562 4.2031 5.6719 4.2031 15.438 0 9.7188-4.2031 15.406-4.1875 5.6875-11.375 5.6875zm0 7.6094q11.719 0 18.406-7.625 6.7031-7.6094 6.7031-21.078 0-13.422-6.7031-21.078-6.6875-7.6406-18.406-7.6406-11.766 0-18.438 7.6406-6.6562 7.6562-6.6562 21.078 0 13.469 6.6562 21.078 6.6719 7.625 18.438 7.625z"/>
<path id="ae" d="m45.406 46.391v29.594h8.9844v-75.984h-8.9844v8.2031q-2.8281-4.875-7.1562-7.25-4.3125-2.375-10.375-2.375-9.9062 0-16.141 7.9062-6.2188 7.9219-6.2188 20.812t6.2188 20.797q6.2344 7.9062 16.141 7.9062 6.0625 0 10.375-2.375 4.3281-2.3594 7.1562-7.2344zm-30.609-19.094q0-9.9062 4.0781-15.547t11.203-5.6406 11.219 5.6406q4.1094 5.6406 4.1094 15.547t-4.1094 15.547q-4.0938 5.6406-11.219 5.6406t-11.203-5.6406-4.0781-15.547z"/>
</defs>
<g transform="translate(154.65 867.54) scale(.1 -.1)">
<use xlink:href="#x"/>
<use x="63.378906" xlink:href="#g"/>
<use x="126.757812" xlink:href="#n"/>
<use x="165.966797" xlink:href="#t"/>
<use x="227.148438" xlink:href="#i"/>
<use x="254.931641" xlink:href="#ae"/>
</g>
</g>
<g clip-path="url(#a)">
<defs>
<path id="an" d="m18.109 8.2031v-29h-9.0312v75.484h9.0312v-8.2969q2.8438 4.875 7.1562 7.2344 4.3281 2.375 10.328 2.375 9.9688 0 16.188-7.9062 6.2344-7.9062 6.2344-20.797t-6.2344-20.812q-6.2188-7.9062-16.188-7.9062-6 0-10.328 2.375-4.3125 2.375-7.1562 7.25zm30.578 19.094q0 9.9062-4.0781 15.547t-11.203 5.6406q-7.1406 0-11.219-5.6406t-4.0781-15.547 4.0781-15.547 11.219-5.6406q7.125 0 11.203 5.6406t4.0781 15.547z"/>
</defs>
<g transform="translate(199.46 867.54) scale(.1 -.1)">
<use xlink:href="#ae"/>
<use x="63.476562" xlink:href="#d"/>
<use x="125" xlink:href="#an"/>
<use x="188.476562" xlink:href="#n"/>
<use x="227.685547" xlink:href="#s"/>
<use x="291.064453" xlink:href="#r"/>
</g>
</g>
<g clip-path="url(#a)">
<defs>
<path id="ap" d="m11.719 12.406h10.297v-8.4062l-8-15.625h-6.2969l4 15.625z"/>
</defs>
<g transform="translate(261.08 867.54) scale(.1 -.1)">
<use xlink:href="#ap"/>
</g>
</g>
<g clip-path="url(#a)">
<defs>
<path id="y" d="m48.781 52.594v-8.4062q-3.8125 2.1094-7.6406 3.1562t-7.7344 1.0469q-8.75 0-13.594-5.5469-4.8281-5.5312-4.8281-15.547t4.8281-15.562q4.8438-5.5312 13.594-5.5312 3.9062 0 7.7344 1.0469t7.6406 3.1562v-8.3125q-3.7656-1.75-7.7969-2.625-4.0156-0.89062-8.5625-0.89062-12.359 0-19.641 7.7656-7.2656 7.7656-7.2656 20.953 0 13.375 7.3438 21.031 7.3594 7.6719 20.156 7.6719 4.1406 0 8.0938-0.85938 3.9531-0.84375 7.6719-2.5469z"/>
</defs>
<g transform="translate(295.18 867.54) scale(.1 -.1)">
<use xlink:href="#y"/>
<use x="54.980469" xlink:href="#t"/>
<use x="116.162109" xlink:href="#x"/>
<use x="179.541016" xlink:href="#i"/>
<use x="207.324219" xlink:href="#ae"/>
</g>
</g>
<g clip-path="url(#a)">
<defs>
<path id="au" d="m17.922 72.906v-27.109h-8.2969v27.109z"/>
</defs>
<g transform="translate(348.27 867.54) scale(.1 -.1)">
<use xlink:href="#g"/>
<use x="63.378906" xlink:href="#au"/>
<use x="90.869141" xlink:href="#n"/>
</g>
</g>
<g clip-path="url(#a)">
<g transform="translate(392.62 867.54) scale(.1 -.1)">
<use xlink:href="#n"/>
<use x="39.208984" xlink:href="#s"/>
<use x="102.587891" xlink:href="#d"/>
</g>
</g>
<g clip-path="url(#a)">
<g transform="translate(438.13 867.54) scale(.1 -.1)">
<use xlink:href="#r"/>
<use x="52.099609" xlink:href="#d"/>
<use x="113.623047" xlink:href="#f"/>
</g>
</g>
<g clip-path="url(#a)">
<defs>
<path id="aw" d="m9.0781 75.984h9.0312v-44.875l26.812 23.578h11.469l-29-25.578 30.234-29.109h-11.719l-27.797 26.703v-26.703h-9.0312z"/>
</defs>
<g transform="translate(480.71 867.54) scale(.1 -.1)">
<use xlink:href="#aw"/>
<use x="57.863281" xlink:href="#d"/>
<use x="119.386719" xlink:href="#d"/>
<use x="180.910156" xlink:href="#an"/>
</g>
</g>
<g clip-path="url(#a)">
<defs>
<path id="aq" d="m2.9844 54.688h9.5156l17.094-45.891 17.094 45.891h9.5156l-20.516-54.688h-12.203z"/>
</defs>
<g transform="translate(527.1 867.54) scale(.1 -.1)">
<use xlink:href="#f"/>
<use x="61.279297" xlink:href="#i"/>
<use x="89.0625" xlink:href="#h"/>
<use x="116.845703" xlink:href="#aq"/>
<use x="176.025391" xlink:href="#d"/>
</g>
</g>
<g clip-path="url(#a)">
<g transform="translate(573.34 867.54) scale(.1 -.1)">
<use xlink:href="#r"/>
<use x="52.099609" xlink:href="#x"/>
<use x="115.478516" xlink:href="#y"/>
<use x="170.458984" xlink:href="#s"/>
</g>
</g>
<g clip-path="url(#a)">
<defs>
<path id="aj" d="m45.406 27.984q0 9.7656-4.0312 15.125-4.0156 5.375-11.297 5.375-7.2188 0-11.25-5.375-4.0312-5.3594-4.0312-15.125 0-9.7188 4.0312-15.094t11.25-5.375q7.2812 0 11.297 5.375 4.0312 5.375 4.0312 15.094zm8.9844-21.203q0-13.953-6.2031-20.766-6.1875-6.8125-18.984-6.8125-4.7344 0-8.9375 0.70312t-8.1562 2.1719v8.7344q3.9531-2.1406 7.8125-3.1562 3.8594-1.0312 7.8594-1.0312 8.8438 0 13.234 4.6094t4.3906 13.938v4.4531q-2.7812-4.8438-7.125-7.2344t-10.406-2.3906q-10.047 0-16.203 7.6562-6.1562 7.6719-6.1562 20.328 0 12.688 6.1562 20.344 6.1562 7.6719 16.203 7.6719 6.0625 0 10.406-2.3906t7.125-7.2188v8.2969h8.9844z"/>
</defs>
<g transform="translate(618.49 867.54) scale(.1 -.1)">
<use xlink:href="#s"/>
<use x="63.378906" xlink:href="#x"/>
<use x="126.757812" xlink:href="#aj"/>
<use x="190.234375" xlink:href="#d"/>
</g>
</g>
<g clip-path="url(#a)">
<g transform="translate(650.42 867.54) scale(.1 -.1)">
<use xlink:href="#r"/>
<use x="52.099609" xlink:href="#an"/>
<use x="115.576172" xlink:href="#d"/>
<use x="177.099609" xlink:href="#y"/>
<use x="232.080078" xlink:href="#h"/>
<use x="259.863281" xlink:href="#k"/>
<use x="357.275391" xlink:href="#d"/>
<use x="418.798828" xlink:href="#g"/>
<use x="482.177734" xlink:href="#r"/>
</g>
</g>
<g clip-path="url(#a)">
<defs>
<path id="ao" d="m37.109 75.984v-7.4844h-8.5938q-4.8281 0-6.7188-1.9531-1.875-1.9531-1.875-7.0312v-4.8281h14.797v-6.9844h-14.797v-47.703h-9.0312v47.703h-8.5938v6.9844h8.5938v3.8125q0 9.125 4.25 13.297 4.25 4.1875 13.469 4.1875z"/>
</defs>
<g transform="translate(718.36 867.54) scale(.1 -.1)">
<use xlink:href="#t"/>
<use x="61.181641" xlink:href="#ao"/>
</g>
</g>
<g clip-path="url(#a)">
<g transform="translate(761.62 867.54) scale(.1 -.1)">
<use xlink:href="#i"/>
<use x="27.783203" xlink:href="#h"/>
<use x="55.566406" xlink:href="#ao"/>
<use x="90.771484" xlink:href="#d"/>
</g>
</g>
<g clip-path="url(#a)">
<g transform="translate(803.54 867.54) scale(.1 -.1)">
<use xlink:href="#ao"/>
<use x="35.205078" xlink:href="#j"/>
<use x="76.287109" xlink:href="#t"/>
<use x="137.46875" xlink:href="#k"/>
</g>
</g>
<g clip-path="url(#a)">
<g transform="translate(841.78 867.54) scale(.1 -.1)">
<use xlink:href="#f"/>
<use x="61.279297" xlink:href="#g"/>
<use x="124.658203" xlink:href="#t"/>
<use x="185.839844" xlink:href="#n"/>
<use x="225.048828" xlink:href="#s"/>
<use x="288.427734" xlink:href="#d"/>
<use x="349.951172" xlink:href="#j"/>
</g>
</g>
<g clip-path="url(#a)">
<g transform="translate(898.07 867.54) scale(.1 -.1)">
<use xlink:href="#f"/>
<use x="61.279297" xlink:href="#aj"/>
<use x="124.755859" xlink:href="#d"/>
</g>
</g>
<g clip-path="url(#a)">
<g transform="translate(951.85 867.54) scale(.1 -.1)">
<use xlink:href="#ap"/>
</g>
</g>
<g clip-path="url(#a)">
<g transform="translate(990.36 867.54) scale(.1 -.1)">
<use xlink:href="#n"/>
<use x="39.208984" xlink:href="#s"/>
<use x="102.587891" xlink:href="#h"/>
<use x="130.371094" xlink:href="#r"/>
</g>
</g>
<g clip-path="url(#a)">
<g transform="translate(1036.8 867.54) scale(.1 -.1)">
<use xlink:href="#r"/>
<use x="52.099609" xlink:href="#d"/>
<use x="113.623047" xlink:href="#f"/>
</g>
</g>
<g clip-path="url(#a)">
<g transform="translate(1081.4 867.54) scale(.1 -.1)">
<use xlink:href="#n"/>
<use x="39.208984" xlink:href="#s"/>
<use x="102.587891" xlink:href="#f"/>
<use x="163.867188" xlink:href="#n"/>
</g>
</g>
<g clip-path="url(#a)">
<g transform="translate(1123.3 867.54) scale(.1 -.1)">
<use xlink:href="#g"/>
<use x="63.378906" xlink:href="#d"/>
<use x="124.902344" xlink:href="#aq"/>
<use x="184.082031" xlink:href="#d"/>
<use x="245.605469" xlink:href="#j"/>
</g>
</g>
<g clip-path="url(#a)">
<g transform="translate(1162.7 867.54) scale(.1 -.1)">
<use xlink:href="#y"/>
<use x="54.980469" xlink:href="#s"/>
<use x="118.359375" xlink:href="#f"/>
<use x="179.638672" xlink:href="#g"/>
<use x="243.017578" xlink:href="#aj"/>
<use x="306.494141" xlink:href="#d"/>
<use x="368.017578" xlink:href="#r"/>
</g>
</g>
<g clip-path="url(#a)">
<defs>
<path id="av" d="m4.2031 54.688h8.9844l11.234-42.672 11.172 42.672h10.594l11.234-42.672 11.188 42.672h8.9844l-14.312-54.688h-10.594l-11.766 44.828-11.812-44.828h-10.609z"/>
</defs>
<g transform="translate(1216.6 867.54) scale(.1 -.1)">
<use xlink:href="#av"/>
<use x="81.787109" xlink:href="#s"/>
<use x="145.166016" xlink:href="#h"/>
<use x="172.949219" xlink:href="#i"/>
<use x="200.732422" xlink:href="#d"/>
</g>
</g>
<g clip-path="url(#a)">
<g transform="translate(1267.6 867.54) scale(.1 -.1)">
<use xlink:href="#n"/>
<use x="39.208984" xlink:href="#s"/>
<use x="102.587891" xlink:href="#d"/>
</g>
</g>
<g clip-path="url(#a)">
<g transform="translate(1311 867.54) scale(.1 -.1)">
<use xlink:href="#i"/>
<use x="27.783203" xlink:href="#f"/>
<use x="89.0625" xlink:href="#g"/>
<use x="152.441406" xlink:href="#ae"/>
</g>
</g>
<g clip-path="url(#a)">
<g transform="translate(1349.1 867.54) scale(.1 -.1)">
<use xlink:href="#k"/>
<use x="97.412109" xlink:href="#f"/>
<use x="158.691406" xlink:href="#r"/>
<use x="210.791016" xlink:href="#r"/>
<use x="262.890625" xlink:href="#d"/>
<use x="324.414062" xlink:href="#r"/>
</g>
</g>
<g clip-path="url(#a)">
<g transform="translate(1393.1 867.54) scale(.1 -.1)">
<use xlink:href="#x"/>
<use x="63.378906" xlink:href="#g"/>
<use x="126.757812" xlink:href="#ae"/>
<use x="190.234375" xlink:href="#d"/>
<use x="251.757812" xlink:href="#j"/>
<use x="292.855469" xlink:href="#aj"/>
<use x="356.332031" xlink:href="#t"/>
</g>
</g>
<g clip-path="url(#a)">
<g transform="translate(1443 867.54) scale(.1 -.1)">
<use xlink:href="#f"/>
<use x="61.279297" xlink:href="#i"/>
<use x="89.0625" xlink:href="#k"/>
<use x="186.474609" xlink:href="#t"/>
<use x="247.65625" xlink:href="#r"/>
<use x="299.755859" xlink:href="#n"/>
</g>
</g>
<g clip-path="url(#a)">
<g transform="translate(1478.5 867.54) scale(.1 -.1)">
<use xlink:href="#y"/>
<use x="54.980469" xlink:href="#t"/>
<use x="116.162109" xlink:href="#g"/>
<use x="179.541016" xlink:href="#n"/>
<use x="218.75" xlink:href="#h"/>
<use x="246.533203" xlink:href="#g"/>
<use x="309.912109" xlink:href="#x"/>
<use x="373.291016" xlink:href="#t"/>
<use x="434.472656" xlink:href="#x"/>
<use x="497.851562" xlink:href="#r"/>
</g>
</g>
<g clip-path="url(#a)">
<g transform="translate(1527.9 867.54) scale(.1 -.1)">
<use xlink:href="#f"/>
<use x="61.279297" xlink:href="#i"/>
<use x="89.0625" xlink:href="#n"/>
<use x="128.271484" xlink:href="#d"/>
<use x="189.794922" xlink:href="#j"/>
<use x="230.908203" xlink:href="#f"/>
<use x="292.1875" xlink:href="#n"/>
<use x="331.396484" xlink:href="#h"/>
<use x="359.179688" xlink:href="#t"/>
<use x="420.361328" xlink:href="#g"/>
</g>
</g>
<g clip-path="url(#a)">
<defs>
<path id="at" d="m19.094 12.406h9.9062v-12.406h-9.9062zm9.625 7.1719h-9.3281v7.5156q0 4.9375 1.3594 8.1094 1.375 3.1719 5.7656 7.375l4.3906 4.3438q2.7812 2.5938 4.0312 4.8906t1.25 4.6875q0 4.3438-3.2031 7.0312t-8.4688 2.6875q-3.8594 0-8.2344-1.7188-4.3594-1.7031-9.1094-4.9844v9.1875q4.5938 2.7812 9.2969 4.1406 4.7188 1.375 9.75 1.375 8.9844 0 14.422-4.7344 5.4531-4.7344 5.4531-12.5 0-3.7188-1.7656-7.0625-1.75-3.3438-6.1406-7.5312l-4.2969-4.2031q-2.2969-2.2969-3.25-3.5938t-1.3438-2.5156q-0.29688-1.0156-0.4375-2.4844t-0.14062-4z"/>
</defs>
<g transform="translate(1595.5 867.54) scale(.1 -.1)">
<use xlink:href="#at"/>
</g>
</g>
<g clip-path="url(#a)">
<defs>
<path id="c" d="m12.406 8.2969h16.109v55.625l-17.531-3.5156v8.9844l17.438 3.5156h9.8594v-64.609h16.109v-8.2969h-41.984z"/>
<path id="e" d="m10.688 12.406h10.312v-12.406h-10.312z"/>
</defs>
<g transform="translate(494.52 44.641) scale(.1 -.1)">
<use xlink:href="#c"/>
<use x="63.623047" xlink:href="#e"/>
<use x="95.410156" xlink:href="#c"/>
</g>
</g>
<g clip-path="url(#a)">
<defs>
<path id="m" d="m19.188 8.2969h34.422v-8.2969h-46.281v8.2969q5.6094 5.8125 15.297 15.594 9.7031 9.7969 12.188 12.641 4.7344 5.3125 6.6094 9 1.8906 3.6875 1.8906 7.25 0 5.8125-4.0781 9.4688-4.0781 3.6719-10.625 3.6719-4.6406 0-9.7969-1.6094-5.1406-1.6094-11-4.8906v9.9688q5.9531 2.3906 11.125 3.6094 5.1875 1.2188 9.4844 1.2188 11.328 0 18.062-5.6719 6.7344-5.6562 6.7344-15.125 0-4.5-1.6875-8.5312-1.6719-4.0156-6.125-9.4844-1.2188-1.4219-7.7656-8.1875-6.5312-6.7656-18.453-18.922z"/>
</defs>
<g transform="translate(494.52 156.32) scale(.1 -.1)">
<use xlink:href="#c"/>
<use x="63.623047" xlink:href="#e"/>
<use x="95.410156" xlink:href="#m"/>
</g>
</g>
<g clip-path="url(#a)">
<defs>
<path id="p" d="m37.797 64.312-24.906-38.922h24.906zm-2.5938 8.5938h12.406v-47.516h10.406v-8.2031h-10.406v-17.188h-9.8125v17.188h-32.906v9.5156z"/>
</defs>
<g transform="translate(266.23 573.99) scale(.1 -.1)">
<use xlink:href="#c"/>
<use x="63.623047" xlink:href="#e"/>
<use x="95.410156" xlink:href="#p"/>
</g>
</g>
<g clip-path="url(#a)">
<defs>
<path id="w" d="m10.797 72.906h38.719v-8.3125h-29.688v-17.859q2.1406 0.73438 4.2812 1.0938 2.1562 0.35938 4.3125 0.35938 12.203 0 19.328-6.6875 7.1406-6.6875 7.1406-18.109 0-11.766-7.3281-18.297-7.3281-6.5156-20.656-6.5156-4.5938 0-9.3594 0.78125-4.75 0.78125-9.8281 2.3438v9.9219q4.3906-2.3906 9.0781-3.5625t9.9062-1.1719q8.4531 0 13.375 4.4375 4.9375 4.4375 4.9375 12.062 0 7.6094-4.9375 12.047-4.9219 4.4531-13.375 4.4531-3.9531 0-7.8906-0.875-3.9219-0.875-8.0156-2.7344z"/>
</defs>
<g transform="translate(300.77 770.14) scale(.1 -.1)">
<use xlink:href="#c"/>
<use x="63.623047" xlink:href="#e"/>
<use x="95.410156" xlink:href="#w"/>
</g>
</g>
<g clip-path="url(#a)">
<defs>
<path id="ad" d="m33.016 40.375q-6.6406 0-10.531-4.5469-3.875-4.5312-3.875-12.438 0-7.8594 3.875-12.438 3.8906-4.5625 10.531-4.5625t10.516 4.5625q3.875 4.5781 3.875 12.438 0 7.9062-3.875 12.438-3.875 4.5469-10.516 4.5469zm19.578 30.922v-8.9844q-3.7188 1.75-7.5 2.6719-3.7812 0.9375-7.5 0.9375-9.7656 0-14.922-6.5938-5.1406-6.5938-5.875-19.922 2.875 4.25 7.2188 6.5156 4.3594 2.2656 9.5781 2.2656 10.984 0 17.359-6.6719 6.375-6.6562 6.375-18.125 0-11.234-6.6406-18.031-6.6406-6.7812-17.672-6.7812-12.656 0-19.344 9.6875-6.6875 9.7031-6.6875 28.109 0 17.281 8.2031 27.562t22.016 10.281q3.7188 0 7.5-0.73438t7.8906-2.1875z"/>
</defs>
<g transform="translate(346.82 770.14) scale(.1 -.1)">
<use xlink:href="#c"/>
<use x="63.623047" xlink:href="#e"/>
<use x="95.410156" xlink:href="#ad"/>
</g>
</g>
<g clip-path="url(#a)">
<defs>
<path id="ah" d="m8.2031 72.906h46.875v-4.2031l-26.469-68.703h-10.297l24.906 64.594h-35.016z"/>
</defs>
<g transform="translate(641.89 264.81) scale(.1 -.1)">
<use xlink:href="#c"/>
<use x="63.623047" xlink:href="#e"/>
<use x="95.410156" xlink:href="#ah"/>
</g>
</g>
<g clip-path="url(#a)">
<defs>
<path id="ac" d="m31.781 34.625q-7.0312 0-11.062-3.7656-4.0156-3.7656-4.0156-10.344 0-6.5938 4.0156-10.359 4.0312-3.7656 11.062-3.7656t11.078 3.7812q4.0625 3.7969 4.0625 10.344 0 6.5781-4.0312 10.344-4.0156 3.7656-11.109 3.7656zm-9.8594 4.1875q-6.3438 1.5625-9.8906 5.9062-3.5312 4.3594-3.5312 10.609 0 8.7344 6.2188 13.812 6.2344 5.0781 17.062 5.0781 10.891 0 17.094-5.0781t6.2031-13.812q0-6.25-3.5469-10.609-3.5312-4.3438-9.8281-5.9062 7.125-1.6562 11.094-6.5 3.9844-4.8281 3.9844-11.797 0-10.609-6.4688-16.281-6.4688-5.6562-18.531-5.6562-12.047 0-18.531 5.6562-6.4688 5.6719-6.4688 16.281 0 6.9688 4 11.797 4.0156 4.8438 11.141 6.5zm-3.6094 15.578q0-5.6562 3.5312-8.8281 3.5469-3.1719 9.9375-3.1719 6.3594 0 9.9375 3.1719 3.5938 3.1719 3.5938 8.8281 0 5.6719-3.5938 8.8438-3.5781 3.1719-9.9375 3.1719-6.3906 0-9.9375-3.1719-3.5312-3.1719-3.5312-8.8438z"/>
</defs>
<g transform="translate(508 770.14) scale(.1 -.1)">
<use xlink:href="#c"/>
<use x="63.623047" xlink:href="#e"/>
<use x="95.410156" xlink:href="#ac"/>
</g>
</g>
<g clip-path="url(#a)">
<defs>
<path id="ab" d="m10.984 1.5156v8.9844q3.7188-1.7656 7.5156-2.6875 3.8125-0.92188 7.4844-0.92188 9.7656 0 14.906 6.5625 5.1562 6.5625 5.8906 19.953-2.8281-4.2031-7.1875-6.4531-4.3438-2.25-9.6094-2.25-10.938 0-17.312 6.6094-6.375 6.625-6.375 18.109 0 11.219 6.6406 18 6.6406 6.7969 17.672 6.7969 12.656 0 19.312-9.7031 6.6719-9.6875 6.6719-28.141 0-17.234-8.1875-27.516-8.1719-10.281-21.984-10.281-3.7188 0-7.5312 0.73438-3.7969 0.73438-7.9062 2.2031zm19.625 30.906q6.6406 0 10.516 4.5312 3.8906 4.5469 3.8906 12.469 0 7.8594-3.8906 12.422-3.875 4.5625-10.516 4.5625t-10.516-4.5625-3.875-12.422q0-7.9219 3.875-12.469 3.875-4.5312 10.516-4.5312z"/>
</defs>
<g transform="translate(692.2 573.99) scale(.1 -.1)">
<use xlink:href="#c"/>
<use x="63.623047" xlink:href="#e"/>
<use x="95.410156" xlink:href="#ab"/>
</g>
</g>
<g clip-path="url(#a)">
<g transform="translate(573.9 770.14) scale(.1 -.1)">
<use xlink:href="#c"/>
<use x="63.623047" xlink:href="#e"/>
<use x="95.410156" xlink:href="#c"/>
<use x="159.033203" xlink:href="#m"/>
</g>
</g>
<g clip-path="url(#a)">
<defs>
<path id="q" d="m40.578 39.312q7.0781-1.5156 11.047-6.3125 3.9844-4.7812 3.9844-11.812 0-10.781-7.4219-16.703-7.4219-5.9062-21.094-5.9062-4.5781 0-9.4375 0.90625t-10.031 2.7188v9.5156q4.0938-2.3906 8.9688-3.6094 4.8906-1.2188 10.219-1.2188 9.2656 0 14.125 3.6562t4.8594 10.641q0 6.4531-4.5156 10.078-4.5156 3.6406-12.562 3.6406h-8.5v8.1094h8.8906q7.2656 0 11.125 2.9062t3.8594 8.375q0 5.6094-3.9844 8.6094-3.9688 3.0156-11.391 3.0156-4.0625 0-8.7031-0.89062-4.6406-0.875-10.203-2.7188v8.7812q5.625 1.5625 10.531 2.3438t9.25 0.78125q11.234 0 17.766-5.1094 6.5469-5.0938 6.5469-13.781 0-6.0625-3.4688-10.234t-9.8594-5.7812z"/>
</defs>
<g transform="translate(619.95 770.14) scale(.1 -.1)">
<use xlink:href="#c"/>
<use x="63.623047" xlink:href="#e"/>
<use x="95.410156" xlink:href="#c"/>
<use x="159.033203" xlink:href="#q"/>
</g>
</g>
<g clip-path="url(#a)">
<g transform="translate(666 770.14) scale(.1 -.1)">
<use xlink:href="#c"/>
<use x="63.623047" xlink:href="#e"/>
<use x="95.410156" xlink:href="#c"/>
<use x="159.033203" xlink:href="#p"/>
</g>
</g>
<g clip-path="url(#a)">
<g transform="translate(735.07 672.74) scale(.1 -.1)">
<use xlink:href="#c"/>
<use x="63.623047" xlink:href="#e"/>
<use x="95.410156" xlink:href="#c"/>
<use x="159.033203" xlink:href="#w"/>
</g>
</g>
<g clip-path="url(#a)">
<g transform="translate(850.2 672.74) scale(.1 -.1)">
<use xlink:href="#c"/>
<use x="63.623047" xlink:href="#e"/>
<use x="95.410156" xlink:href="#c"/>
<use x="159.033203" xlink:href="#ad"/>
</g>
</g>
<g clip-path="url(#a)">
<g transform="translate(804.15 770.14) scale(.1 -.1)">
<use xlink:href="#c"/>
<use x="63.623047" xlink:href="#e"/>
<use x="95.410156" xlink:href="#c"/>
<use x="159.033203" xlink:href="#ah"/>
</g>
</g>
<g clip-path="url(#a)">
<g transform="translate(850.2 770.14) scale(.1 -.1)">
<use xlink:href="#c"/>
<use x="63.623047" xlink:href="#e"/>
<use x="95.410156" xlink:href="#c"/>
<use x="159.033203" xlink:href="#ac"/>
</g>
</g>
<g clip-path="url(#a)">
<g transform="translate(896.25 770.14) scale(.1 -.1)">
<use xlink:href="#c"/>
<use x="63.623047" xlink:href="#e"/>
<use x="95.410156" xlink:href="#c"/>
<use x="159.033203" xlink:href="#ab"/>
</g>
</g>
<g clip-path="url(#a)">
<defs>
<path id="ai" d="m31.781 66.406q-7.6094 0-11.453-7.5-3.8281-7.4844-3.8281-22.531 0-14.984 3.8281-22.484 3.8438-7.5 11.453-7.5 7.6719 0 11.5 7.5 3.8438 7.5 3.8438 22.484 0 15.047-3.8438 22.531-3.8281 7.5-11.5 7.5zm0 7.8125q12.266 0 18.734-9.7031 6.4688-9.6875 6.4688-28.141 0-18.406-6.4688-28.109-6.4688-9.6875-18.734-9.6875-12.25 0-18.719 9.6875-6.4688 9.7031-6.4688 28.109 0 18.453 6.4688 28.141 6.4688 9.7031 18.719 9.7031z"/>
</defs>
<g transform="translate(712.05 770.14) scale(.1 -.1)">
<use xlink:href="#c"/>
<use x="63.623047" xlink:href="#e"/>
<use x="95.410156" xlink:href="#m"/>
<use x="159.033203" xlink:href="#ai"/>
</g>
</g>
<g clip-path="url(#a)">
<g transform="translate(758.1 770.14) scale(.1 -.1)">
<use xlink:href="#c"/>
<use x="63.623047" xlink:href="#e"/>
<use x="95.410156" xlink:href="#m"/>
<use x="159.033203" xlink:href="#c"/>
</g>
</g>
<g clip-path="url(#a)">
<g transform="translate(389.69 770.14) scale(.1 -.1)">
<use xlink:href="#c"/>
<use x="63.623047" xlink:href="#e"/>
<use x="95.410156" xlink:href="#m"/>
<use x="159.033203" xlink:href="#m"/>
</g>
</g>
<g clip-path="url(#a)">
<g transform="translate(435.74 770.14) scale(.1 -.1)">
<use xlink:href="#c"/>
<use x="63.623047" xlink:href="#e"/>
<use x="95.410156" xlink:href="#m"/>
<use x="159.033203" xlink:href="#q"/>
</g>
</g>
<g clip-path="url(#a)">
<g transform="translate(1090.7 370.38) scale(.1 -.1)">
<use xlink:href="#c"/>
<use x="63.623047" xlink:href="#e"/>
<use x="95.410156" xlink:href="#m"/>
<use x="159.033203" xlink:href="#p"/>
</g>
</g>
<g clip-path="url(#a)">
<g transform="translate(988.35 770.14) scale(.1 -.1)">
<use xlink:href="#c"/>
<use x="63.623047" xlink:href="#e"/>
<use x="95.410156" xlink:href="#m"/>
<use x="159.033203" xlink:href="#w"/>
</g>
</g>
<g clip-path="url(#a)">
<g transform="translate(1034.4 770.14) scale(.1 -.1)">
<use xlink:href="#c"/>
<use x="63.623047" xlink:href="#e"/>
<use x="95.410156" xlink:href="#m"/>
<use x="159.033203" xlink:href="#ad"/>
</g>
</g>
<g clip-path="url(#a)">
<g transform="translate(1249.3 473.33) scale(.1 -.1)">
<use xlink:href="#c"/>
<use x="63.623047" xlink:href="#e"/>
<use x="95.410156" xlink:href="#m"/>
<use x="159.033203" xlink:href="#ah"/>
</g>
</g>
<g clip-path="url(#a)">
<g transform="translate(1103.5 672.74) scale(.1 -.1)">
<use xlink:href="#c"/>
<use x="63.623047" xlink:href="#e"/>
<use x="95.410156" xlink:href="#m"/>
<use x="159.033203" xlink:href="#ac"/>
</g>
</g>
<g clip-path="url(#a)">
<g transform="translate(1218.6 770.14) scale(.1 -.1)">
<use xlink:href="#c"/>
<use x="63.623047" xlink:href="#e"/>
<use x="95.410156" xlink:href="#m"/>
<use x="159.033203" xlink:href="#ab"/>
</g>
</g>
<g clip-path="url(#a)">
<g transform="translate(1425.8 573.99) scale(.1 -.1)">
<use xlink:href="#c"/>
<use x="63.623047" xlink:href="#e"/>
<use x="95.410156" xlink:href="#q"/>
<use x="159.033203" xlink:href="#ai"/>
</g>
</g>
<g clip-path="url(#a)">
<g transform="translate(1310.7 672.74) scale(.1 -.1)">
<use xlink:href="#c"/>
<use x="63.623047" xlink:href="#e"/>
<use x="95.410156" xlink:href="#q"/>
<use x="159.033203" xlink:href="#c"/>
</g>
</g>
<g clip-path="url(#a)">
<g transform="translate(1402.8 770.14) scale(.1 -.1)">
<use xlink:href="#c"/>
<use x="63.623047" xlink:href="#e"/>
<use x="95.410156" xlink:href="#q"/>
<use x="159.033203" xlink:href="#m"/>
</g>
</g>
<g clip-path="url(#a)">
<g transform="translate(1448.9 770.14) scale(.1 -.1)">
<use xlink:href="#c"/>
<use x="63.623047" xlink:href="#e"/>
<use x="95.410156" xlink:href="#q"/>
<use x="159.033203" xlink:href="#q"/>
</g>
</g>
<g clip-path="url(#a)">
<g transform="translate(1541 672.74) scale(.1 -.1)">
<use xlink:href="#c"/>
<use x="63.623047" xlink:href="#e"/>
<use x="95.410156" xlink:href="#q"/>
<use x="159.033203" xlink:href="#p"/>
</g>
</g>
<g clip-path="url(#a)">
<g transform="translate(1494.9 770.14) scale(.1 -.1)">
<use xlink:href="#c"/>
<use x="63.623047" xlink:href="#e"/>
<use x="95.410156" xlink:href="#q"/>
<use x="159.033203" xlink:href="#w"/>
</g>
</g>
<g clip-path="url(#a)">
<g transform="translate(1541 770.14) scale(.1 -.1)">
<use xlink:href="#c"/>
<use x="63.623047" xlink:href="#e"/>
<use x="95.410156" xlink:href="#q"/>
<use x="159.033203" xlink:href="#ad"/>
</g>
</g>
<g clip-path="url(#a)">
<g transform="translate(1264.7 770.14) scale(.1 -.1)">
<use xlink:href="#c"/>
<use x="63.623047" xlink:href="#e"/>
<use x="95.410156" xlink:href="#q"/>
<use x="159.033203" xlink:href="#ah"/>
</g>
</g>
<g clip-path="url(#a)">
<g transform="translate(1310.7 770.14) scale(.1 -.1)">
<use xlink:href="#c"/>
<use x="63.623047" xlink:href="#e"/>
<use x="95.410156" xlink:href="#q"/>
<use x="159.033203" xlink:href="#ac"/>
</g>
</g>
<g clip-path="url(#a)">
<g transform="translate(1356.8 770.14) scale(.1 -.1)">
<use xlink:href="#c"/>
<use x="63.623047" xlink:href="#e"/>
<use x="95.410156" xlink:href="#q"/>
<use x="159.033203" xlink:href="#ab"/>
</g>
</g>
<g clip-path="url(#a)">
<g transform="translate(1080.5 770.14) scale(.1 -.1)">
<use xlink:href="#c"/>
<use x="63.623047" xlink:href="#e"/>
<use x="95.410156" xlink:href="#p"/>
<use x="159.033203" xlink:href="#ai"/>
</g>
</g>
<g clip-path="url(#a)">
<g transform="translate(1126.5 770.14) scale(.1 -.1)">
<use xlink:href="#c"/>
<use x="63.623047" xlink:href="#e"/>
<use x="95.410156" xlink:href="#p"/>
<use x="159.033203" xlink:href="#c"/>
</g>
</g>
<g clip-path="url(#a)">
<g transform="translate(1172.6 770.14) scale(.1 -.1)">
<use xlink:href="#c"/>
<use x="63.623047" xlink:href="#e"/>
<use x="95.410156" xlink:href="#p"/>
<use x="159.033203" xlink:href="#m"/>
</g>
</g>
<g clip-path="url(#a)">
<g transform="translate(67.337 770.14) scale(.1 -.1)">
<use xlink:href="#c"/>
<use x="63.623047" xlink:href="#e"/>
<use x="95.410156" xlink:href="#p"/>
<use x="159.033203" xlink:href="#q"/>
</g>
</g>
<g clip-path="url(#a)">
<g transform="translate(113.39 770.14) scale(.1 -.1)">
<use xlink:href="#c"/>
<use x="63.623047" xlink:href="#e"/>
<use x="95.410156" xlink:href="#p"/>
<use x="159.033203" xlink:href="#p"/>
</g>
</g>
<g clip-path="url(#a)">
<g transform="translate(666 672.74) scale(.1 -.1)">
<use xlink:href="#c"/>
<use x="63.623047" xlink:href="#e"/>
<use x="95.410156" xlink:href="#p"/>
<use x="159.033203" xlink:href="#w"/>
</g>
</g>
<g clip-path="url(#a)">
<g transform="translate(205.49 770.14) scale(.1 -.1)">
<use xlink:href="#c"/>
<use x="63.623047" xlink:href="#e"/>
<use x="95.410156" xlink:href="#p"/>
<use x="159.033203" xlink:href="#ad"/>
</g>
</g>
<g clip-path="url(#a)">
<defs>
<path id="al" d="m9.8125 72.906h9.8594v-72.906h-9.8594z"/>
<path id="as" d="m9.8125 72.906h14.703l18.594-49.609 18.703 49.609h14.703v-72.906h-9.625v64.016l-18.797-50h-9.9062l-18.797 50v-64.016h-9.5781z"/>
</defs>
<g transform="translate(1623.1 867.54) scale(.1 -.1)">
<use xlink:href="#al"/>
<use x="29.492188" xlink:href="#as"/>
<use x="115.771484" xlink:href="#aa"/>
<use x="176.074219" xlink:href="#af"/>
<use x="231.787109" xlink:href="#al"/>
<use x="261.279297" xlink:href="#u"/>
<use x="331.103516" xlink:href="#al"/>
<use x="360.595703" xlink:href="#l"/>
</g>
</g>
<g clip-path="url(#a)">
<g transform="translate(159.44 770.14) scale(.1 -.1)">
<use xlink:href="#c"/>
<use x="63.623047" xlink:href="#e"/>
<use x="95.410156" xlink:href="#p"/>
<use x="159.033203" xlink:href="#ac"/>
</g>
</g>
<g clip-path="url(#a)">
<g transform="translate(1322.2 473.33) scale(.1 -.1)">
<use xlink:href="#c"/>
<use x="63.623047" xlink:href="#e"/>
<use x="95.410156" xlink:href="#p"/>
<use x="159.033203" xlink:href="#ab"/>
</g>
</g>
<g clip-path="url(#a)">
<g transform="translate(251.54 770.14) scale(.1 -.1)">
<use xlink:href="#c"/>
<use x="63.623047" xlink:href="#e"/>
<use x="95.410156" xlink:href="#w"/>
<use x="159.033203" xlink:href="#ai"/>
</g>
</g>
<g clip-path="url(#a)">
<g transform="translate(942.3 770.14) scale(.1 -.1)">
<use xlink:href="#c"/>
<use x="63.623047" xlink:href="#e"/>
<use x="95.410156" xlink:href="#w"/>
<use x="159.033203" xlink:href="#c"/>
</g>
</g>
<g clip-path="url(#a)">
<g transform="translate(1587 770.14) scale(.1 -.1)">
<use xlink:href="#c"/>
<use x="63.623047" xlink:href="#e"/>
<use x="95.410156" xlink:href="#w"/>
<use x="159.033203" xlink:href="#m"/>
</g>
</g>
<defs>
<clipPath id="a">
<rect width="1722.7" height="906.67"/>
</clipPath>
</defs>
</svg>
