<?xml version="1.0" encoding="utf-8" standalone="no"?>
<!DOCTYPE svg PUBLIC "-//W3C//DTD SVG 1.1//EN"
  "http://www.w3.org/Graphics/SVG/1.1/DTD/svg11.dtd">
<!-- Created with matplotlib (https://matplotlib.org/) -->
<svg height="373.333333pt" version="1.1" viewBox="0 0 709.333333 373.333333" width="709.333333pt" xmlns="http://www.w3.org/2000/svg" xmlns:xlink="http://www.w3.org/1999/xlink">
 <defs>
  <style type="text/css">
*{stroke-linecap:butt;stroke-linejoin:round;}
  </style>
 </defs>
 <g id="figure_1">
  <g id="patch_1">
   <path d="M 0 373.333333 
L 709.333333 373.333333 
L 709.333333 0 
L 0 0 
z
" style="fill:#ffffff;"/>
  </g>
  <g id="axes_1">
   <g id="LineCollection_1">
    <path clip-path="url(#p75407ff79a)" d="M 374.481361 18.073011 
L 374.481361 87.89628 
" style="fill:none;stroke:#000000;"/>
    <path clip-path="url(#p75407ff79a)" d="M 374.481361 87.89628 
L 131.75135 156.164053 
" style="fill:none;stroke:#000000;"/>
    <path clip-path="url(#p75407ff79a)" d="M 374.481361 87.89628 
L 280.361561 289.201218 
" style="fill:none;stroke:#000000;"/>
    <path clip-path="url(#p75407ff79a)" d="M 374.481361 87.89628 
L 379.435035 223.142113 
" style="fill:none;stroke:#000000;"/>
    <path clip-path="url(#p75407ff79a)" d="M 374.481361 87.89628 
L 478.508509 289.201218 
" style="fill:none;stroke:#000000;"/>
    <path clip-path="url(#p75407ff79a)" d="M 374.481361 87.89628 
L 602.350352 223.142113 
" style="fill:none;stroke:#000000;"/>
    <path clip-path="url(#p75407ff79a)" d="M 131.75135 156.164053 
L 32.677876 289.201218 
" style="fill:none;stroke:#000000;"/>
    <path clip-path="url(#p75407ff79a)" d="M 131.75135 156.164053 
L 131.75135 223.142113 
" style="fill:none;stroke:#000000;"/>
    <path clip-path="url(#p75407ff79a)" d="M 131.75135 156.164053 
L 230.824824 289.201218 
" style="fill:none;stroke:#000000;"/>
    <path clip-path="url(#p75407ff79a)" d="M 280.361561 289.201218 
L 280.361561 355.260323 
" style="fill:none;stroke:#000000;"/>
    <path clip-path="url(#p75407ff79a)" d="M 379.435035 223.142113 
L 329.898298 289.201218 
" style="fill:none;stroke:#000000;"/>
    <path clip-path="url(#p75407ff79a)" d="M 379.435035 223.142113 
L 379.435035 289.201218 
" style="fill:none;stroke:#000000;"/>
    <path clip-path="url(#p75407ff79a)" d="M 379.435035 223.142113 
L 428.971772 289.201218 
" style="fill:none;stroke:#000000;"/>
    <path clip-path="url(#p75407ff79a)" d="M 478.508509 289.201218 
L 478.508509 355.260323 
" style="fill:none;stroke:#000000;"/>
    <path clip-path="url(#p75407ff79a)" d="M 602.350352 223.142113 
L 528.045246 289.201218 
" style="fill:none;stroke:#000000;"/>
    <path clip-path="url(#p75407ff79a)" d="M 602.350352 223.142113 
L 577.581983 289.201218 
" style="fill:none;stroke:#000000;"/>
    <path clip-path="url(#p75407ff79a)" d="M 602.350352 223.142113 
L 627.11872 289.201218 
" style="fill:none;stroke:#000000;"/>
    <path clip-path="url(#p75407ff79a)" d="M 602.350352 223.142113 
L 676.655457 289.201218 
" style="fill:none;stroke:#000000;"/>
    <path clip-path="url(#p75407ff79a)" d="M 528.045246 289.201218 
L 528.045246 355.260323 
" style="fill:none;stroke:#000000;"/>
    <path clip-path="url(#p75407ff79a)" d="M 577.581983 289.201218 
L 577.581983 355.260323 
" style="fill:none;stroke:#000000;"/>
    <path clip-path="url(#p75407ff79a)" d="M 627.11872 289.201218 
L 627.11872 355.260323 
" style="fill:none;stroke:#000000;"/>
    <path clip-path="url(#p75407ff79a)" d="M 329.898298 289.201218 
L 329.898298 355.260323 
" style="fill:none;stroke:#000000;"/>
    <path clip-path="url(#p75407ff79a)" d="M 379.435035 289.201218 
L 379.435035 355.260323 
" style="fill:none;stroke:#000000;"/>
    <path clip-path="url(#p75407ff79a)" d="M 428.971772 289.201218 
L 428.971772 355.260323 
" style="fill:none;stroke:#000000;"/>
    <path clip-path="url(#p75407ff79a)" d="M 32.677876 289.201218 
L 32.677876 355.260323 
" style="fill:none;stroke:#000000;"/>
    <path clip-path="url(#p75407ff79a)" d="M 131.75135 223.142113 
L 82.214613 289.201218 
" style="fill:none;stroke:#000000;"/>
    <path clip-path="url(#p75407ff79a)" d="M 131.75135 223.142113 
L 131.75135 289.201218 
" style="fill:none;stroke:#000000;"/>
    <path clip-path="url(#p75407ff79a)" d="M 131.75135 223.142113 
L 181.288087 289.201218 
" style="fill:none;stroke:#000000;"/>
    <path clip-path="url(#p75407ff79a)" d="M 230.824824 289.201218 
L 230.824824 355.260323 
" style="fill:none;stroke:#000000;"/>
    <path clip-path="url(#p75407ff79a)" d="M 82.214613 289.201218 
L 82.214613 355.260323 
" style="fill:none;stroke:#000000;"/>
    <path clip-path="url(#p75407ff79a)" d="M 131.75135 289.201218 
L 131.75135 355.260323 
" style="fill:none;stroke:#000000;"/>
    <path clip-path="url(#p75407ff79a)" d="M 181.288087 289.201218 
L 181.288087 355.260323 
" style="fill:none;stroke:#000000;"/>
    <path clip-path="url(#p75407ff79a)" d="M 676.655457 289.201218 
L 676.655457 355.260323 
" style="fill:none;stroke:#000000;"/>
   </g>
   <g id="text_1">
    <g id="patch_2">
     <path clip-path="url(#p75407ff79a)" d="M 368.210111 49.976521 
L 368.210111 55.992771 
Q 368.210111 58.392771 370.610111 58.392771 
L 378.352611 58.392771 
Q 380.752611 58.392771 380.752611 55.992771 
L 380.752611 49.976521 
Q 380.752611 47.576521 378.352611 47.576521 
L 370.610111 47.576521 
Q 368.210111 47.576521 368.210111 49.976521 
z
" style="fill:#ffffff;stroke:#ffffff;stroke-linejoin:miter;"/>
    </g>
    <g clip-path="url(#p75407ff79a)">
     <!-- H -->
     <defs>
      <path d="M 9.8125 72.90625 
L 19.671875 72.90625 
L 19.671875 43.015625 
L 55.515625 43.015625 
L 55.515625 72.90625 
L 65.375 72.90625 
L 65.375 0 
L 55.515625 0 
L 55.515625 34.71875 
L 19.671875 34.71875 
L 19.671875 0 
L 9.8125 0 
z
" id="DejaVuSans-72"/>
     </defs>
     <g transform="translate(372.273861 49.976521)rotate(-270)scale(0.08 -0.08)">
      <use xlink:href="#DejaVuSans-72"/>
     </g>
    </g>
   </g>
   <g id="text_2">
    <g id="patch_3">
     <path clip-path="url(#p75407ff79a)" d="M 252.180214 128.808019 
L 257.448322 127.326364 
Q 259.758684 126.676575 259.108895 124.366213 
L 257.012649 116.912888 
Q 256.36286 114.602526 254.052497 115.252315 
L 248.78439 116.733969 
Q 246.474027 117.383758 247.123816 119.69412 
L 249.220063 127.147445 
Q 249.869852 129.457808 252.180214 128.808019 
z
" style="fill:#ffffff;stroke:#ffffff;stroke-linejoin:miter;"/>
    </g>
    <g clip-path="url(#p75407ff79a)">
     <!-- A -->
     <defs>
      <path d="M 34.1875 63.1875 
L 20.796875 26.90625 
L 47.609375 26.90625 
z
M 28.609375 72.90625 
L 39.796875 72.90625 
L 67.578125 0 
L 57.328125 0 
L 50.6875 18.703125 
L 17.828125 18.703125 
L 11.1875 0 
L 0.78125 0 
z
" id="DejaVuSans-65"/>
     </defs>
     <g transform="translate(251.079973 124.896046)rotate(-15.708628)scale(0.08 -0.08)">
      <use xlink:href="#DejaVuSans-65"/>
     </g>
    </g>
   </g>
   <g id="text_3">
    <g id="patch_4">
     <path clip-path="url(#p75407ff79a)" d="M 332.080913 193.389744 
L 334.12397 189.02002 
Q 335.140469 186.845916 332.966365 185.829417 
L 325.952613 182.550149 
Q 323.778509 181.53365 322.76201 183.707754 
L 320.718953 188.077478 
Q 319.702454 190.251582 321.876558 191.268081 
L 328.890309 194.547349 
Q 331.064414 195.563848 332.080913 193.389744 
z
" style="fill:#ffffff;stroke:#ffffff;stroke-linejoin:miter;"/>
    </g>
    <g clip-path="url(#p75407ff79a)">
     <!-- P -->
     <defs>
      <path d="M 19.671875 64.796875 
L 19.671875 37.40625 
L 32.078125 37.40625 
Q 38.96875 37.40625 42.71875 40.96875 
Q 46.484375 44.53125 46.484375 51.125 
Q 46.484375 57.671875 42.71875 61.234375 
Q 38.96875 64.796875 32.078125 64.796875 
z
M 9.8125 72.90625 
L 32.078125 72.90625 
Q 44.34375 72.90625 50.609375 67.359375 
Q 56.890625 61.8125 56.890625 51.125 
Q 56.890625 40.328125 50.609375 34.8125 
Q 44.34375 29.296875 32.078125 29.296875 
L 19.671875 29.296875 
L 19.671875 0 
L 9.8125 0 
z
" id="DejaVuSans-80"/>
     </defs>
     <g transform="translate(328.399656 191.668578)rotate(-64.941636)scale(0.08 -0.08)">
      <use xlink:href="#DejaVuSans-80"/>
     </g>
    </g>
   </g>
   <g id="text_4">
    <g id="patch_5">
     <path clip-path="url(#p75407ff79a)" d="M 370.590997 153.014324 
L 370.791305 158.483157 
Q 370.879151 160.881549 373.277543 160.793703 
L 381.014854 160.510307 
Q 383.413246 160.42246 383.3254 158.024069 
L 383.125092 152.555236 
Q 383.037246 150.156844 380.638854 150.24469 
L 372.901542 150.528086 
Q 370.50315 150.615933 370.590997 153.014324 
z
" style="fill:#ffffff;stroke:#ffffff;stroke-linejoin:miter;"/>
    </g>
    <g clip-path="url(#p75407ff79a)">
     <!-- A -->
     <g transform="translate(374.652024 152.86558)rotate(-272.097645)scale(0.08 -0.08)">
      <use xlink:href="#DejaVuSans-65"/>
     </g>
    </g>
   </g>
   <g id="text_5">
    <g id="patch_6">
     <path clip-path="url(#p75407ff79a)" d="M 419.509624 188.691563 
L 422.337608 194.16405 
Q 423.43942 196.296187 425.571557 195.194375 
L 432.449922 191.639884 
Q 434.582059 190.538072 433.480247 188.405935 
L 430.652263 182.933448 
Q 429.550451 180.801311 427.418314 181.903123 
L 420.539949 185.457614 
Q 418.407812 186.559426 419.509624 188.691563 
z
" style="fill:#ffffff;stroke:#ffffff;stroke-linejoin:miter;"/>
    </g>
    <g clip-path="url(#p75407ff79a)">
     <!-- D -->
     <defs>
      <path d="M 19.671875 64.796875 
L 19.671875 8.109375 
L 31.59375 8.109375 
Q 46.6875 8.109375 53.6875 14.9375 
Q 60.6875 21.78125 60.6875 36.53125 
Q 60.6875 51.171875 53.6875 57.984375 
Q 46.6875 64.796875 31.59375 64.796875 
z
M 9.8125 72.90625 
L 30.078125 72.90625 
Q 51.265625 72.90625 61.171875 64.09375 
Q 71.09375 55.28125 71.09375 36.53125 
Q 71.09375 17.671875 61.125 8.828125 
Q 51.171875 0 30.078125 0 
L 9.8125 0 
z
" id="DejaVuSans-68"/>
     </defs>
     <g transform="translate(423.119821 186.825943)rotate(-297.328294)scale(0.08 -0.08)">
      <use xlink:href="#DejaVuSans-68"/>
     </g>
    </g>
   </g>
   <g id="text_6">
    <g id="patch_7">
     <path clip-path="url(#p75407ff79a)" d="M 482.862029 159.515525 
L 487.56805 162.308664 
Q 489.631906 163.533613 490.856855 161.469757 
L 494.808591 154.811673 
Q 496.03354 152.747817 493.969684 151.522868 
L 489.263663 148.729729 
Q 487.199808 147.50478 485.974859 149.568636 
L 482.023122 156.22672 
Q 480.798173 158.290576 482.862029 159.515525 
z
" style="fill:#ffffff;stroke:#ffffff;stroke-linejoin:miter;"/>
    </g>
    <g clip-path="url(#p75407ff79a)">
     <!-- A -->
     <g transform="translate(484.936148 156.020944)rotate(-329.30983)scale(0.08 -0.08)">
      <use xlink:href="#DejaVuSans-65"/>
     </g>
    </g>
   </g>
   <g id="text_7">
    <g id="patch_8">
     <path clip-path="url(#p75407ff79a)" d="M 85.734745 228.45546 
L 88.753989 224.401179 
Q 90.187458 222.476298 88.262577 221.042829 
L 82.052831 216.418399 
Q 80.12795 214.98493 78.694481 216.909811 
L 75.675237 220.964091 
Q 74.241768 222.888972 76.166649 224.322441 
L 82.376395 228.946872 
Q 84.301276 230.380341 85.734745 228.45546 
z
" style="fill:#ffffff;stroke:#ffffff;stroke-linejoin:miter;"/>
    </g>
    <g clip-path="url(#p75407ff79a)">
     <!-- E -->
     <defs>
      <path d="M 9.8125 72.90625 
L 55.90625 72.90625 
L 55.90625 64.59375 
L 19.671875 64.59375 
L 19.671875 43.015625 
L 54.390625 43.015625 
L 54.390625 34.71875 
L 19.671875 34.71875 
L 19.671875 8.296875 
L 56.78125 8.296875 
L 56.78125 0 
L 9.8125 0 
z
" id="DejaVuSans-69"/>
     </defs>
     <g transform="translate(82.475481 226.028268)rotate(-53.324751)scale(0.08 -0.08)">
      <use xlink:href="#DejaVuSans-69"/>
     </g>
    </g>
   </g>
   <g id="text_8">
    <g id="patch_9">
     <path clip-path="url(#p75407ff79a)" d="M 125.4801 187.125583 
L 125.4801 192.180583 
Q 125.4801 194.580583 127.8801 194.580583 
L 135.6226 194.580583 
Q 138.0226 194.580583 138.0226 192.180583 
L 138.0226 187.125583 
Q 138.0226 184.725583 135.6226 184.725583 
L 127.8801 184.725583 
Q 125.4801 184.725583 125.4801 187.125583 
z
" style="fill:#ffffff;stroke:#ffffff;stroke-linejoin:miter;"/>
    </g>
    <g clip-path="url(#p75407ff79a)">
     <!-- E -->
     <g transform="translate(129.54385 187.125583)rotate(-270)scale(0.08 -0.08)">
      <use xlink:href="#DejaVuSans-69"/>
     </g>
    </g>
   </g>
   <g id="text_9">
    <g id="patch_10">
     <path clip-path="url(#p75407ff79a)" d="M 174.590059 224.188139 
L 177.926607 228.6685 
Q 179.360076 230.593381 181.284957 229.159912 
L 187.494703 224.535482 
Q 189.419584 223.102013 187.986115 221.177132 
L 184.649567 216.696771 
Q 183.216098 214.77189 181.291217 216.205359 
L 175.081471 220.829789 
Q 173.15659 222.263258 174.590059 224.188139 
z
" style="fill:#ffffff;stroke:#ffffff;stroke-linejoin:miter;"/>
    </g>
    <g clip-path="url(#p75407ff79a)">
     <!-- C -->
     <defs>
      <path d="M 64.40625 67.28125 
L 64.40625 56.890625 
Q 59.421875 61.53125 53.78125 63.8125 
Q 48.140625 66.109375 41.796875 66.109375 
Q 29.296875 66.109375 22.65625 58.46875 
Q 16.015625 50.828125 16.015625 36.375 
Q 16.015625 21.96875 22.65625 14.328125 
Q 29.296875 6.6875 41.796875 6.6875 
Q 48.140625 6.6875 53.78125 8.984375 
Q 59.421875 11.28125 64.40625 15.921875 
L 64.40625 5.609375 
Q 59.234375 2.09375 53.4375 0.328125 
Q 47.65625 -1.421875 41.21875 -1.421875 
Q 24.65625 -1.421875 15.125 8.703125 
Q 5.609375 18.84375 5.609375 36.375 
Q 5.609375 53.953125 15.125 64.078125 
Q 24.65625 74.21875 41.21875 74.21875 
Q 47.75 74.21875 53.53125 72.484375 
Q 59.328125 70.75 64.40625 67.28125 
z
" id="DejaVuSans-67"/>
     </defs>
     <g transform="translate(177.849324 221.760948)rotate(-306.675249)scale(0.08 -0.08)">
      <use xlink:href="#DejaVuSans-67"/>
     </g>
    </g>
   </g>
   <g id="text_10">
    <g id="patch_11">
     <path clip-path="url(#p75407ff79a)" d="M 274.090311 304.58827 
L 274.090311 339.87327 
Q 274.090311 342.27327 276.490311 342.27327 
L 284.232811 342.27327 
Q 286.632811 342.27327 286.632811 339.87327 
L 286.632811 304.58827 
Q 286.632811 302.18827 284.232811 302.18827 
L 276.490311 302.18827 
Q 274.090311 302.18827 274.090311 304.58827 
z
" style="fill:#ffffff;stroke:#ffffff;stroke-linejoin:miter;"/>
    </g>
    <g clip-path="url(#p75407ff79a)">
     <!-- Terminal -->
     <defs>
      <path d="M -0.296875 72.90625 
L 61.375 72.90625 
L 61.375 64.59375 
L 35.5 64.59375 
L 35.5 0 
L 25.59375 0 
L 25.59375 64.59375 
L -0.296875 64.59375 
z
" id="DejaVuSans-84"/>
      <path d="M 56.203125 29.59375 
L 56.203125 25.203125 
L 14.890625 25.203125 
Q 15.484375 15.921875 20.484375 11.0625 
Q 25.484375 6.203125 34.421875 6.203125 
Q 39.59375 6.203125 44.453125 7.46875 
Q 49.3125 8.734375 54.109375 11.28125 
L 54.109375 2.78125 
Q 49.265625 0.734375 44.1875 -0.34375 
Q 39.109375 -1.421875 33.890625 -1.421875 
Q 20.796875 -1.421875 13.15625 6.1875 
Q 5.515625 13.8125 5.515625 26.8125 
Q 5.515625 40.234375 12.765625 48.109375 
Q 20.015625 56 32.328125 56 
Q 43.359375 56 49.78125 48.890625 
Q 56.203125 41.796875 56.203125 29.59375 
z
M 47.21875 32.234375 
Q 47.125 39.59375 43.09375 43.984375 
Q 39.0625 48.390625 32.421875 48.390625 
Q 24.90625 48.390625 20.390625 44.140625 
Q 15.875 39.890625 15.1875 32.171875 
z
" id="DejaVuSans-101"/>
      <path d="M 41.109375 46.296875 
Q 39.59375 47.171875 37.8125 47.578125 
Q 36.03125 48 33.890625 48 
Q 26.265625 48 22.1875 43.046875 
Q 18.109375 38.09375 18.109375 28.8125 
L 18.109375 0 
L 9.078125 0 
L 9.078125 54.6875 
L 18.109375 54.6875 
L 18.109375 46.1875 
Q 20.953125 51.171875 25.484375 53.578125 
Q 30.03125 56 36.53125 56 
Q 37.453125 56 38.578125 55.875 
Q 39.703125 55.765625 41.0625 55.515625 
z
" id="DejaVuSans-114"/>
      <path d="M 52 44.1875 
Q 55.375 50.25 60.0625 53.125 
Q 64.75 56 71.09375 56 
Q 79.640625 56 84.28125 50.015625 
Q 88.921875 44.046875 88.921875 33.015625 
L 88.921875 0 
L 79.890625 0 
L 79.890625 32.71875 
Q 79.890625 40.578125 77.09375 44.375 
Q 74.3125 48.1875 68.609375 48.1875 
Q 61.625 48.1875 57.5625 43.546875 
Q 53.515625 38.921875 53.515625 30.90625 
L 53.515625 0 
L 44.484375 0 
L 44.484375 32.71875 
Q 44.484375 40.625 41.703125 44.40625 
Q 38.921875 48.1875 33.109375 48.1875 
Q 26.21875 48.1875 22.15625 43.53125 
Q 18.109375 38.875 18.109375 30.90625 
L 18.109375 0 
L 9.078125 0 
L 9.078125 54.6875 
L 18.109375 54.6875 
L 18.109375 46.1875 
Q 21.1875 51.21875 25.484375 53.609375 
Q 29.78125 56 35.6875 56 
Q 41.65625 56 45.828125 52.96875 
Q 50 49.953125 52 44.1875 
z
" id="DejaVuSans-109"/>
      <path d="M 9.421875 54.6875 
L 18.40625 54.6875 
L 18.40625 0 
L 9.421875 0 
z
M 9.421875 75.984375 
L 18.40625 75.984375 
L 18.40625 64.59375 
L 9.421875 64.59375 
z
" id="DejaVuSans-105"/>
      <path d="M 54.890625 33.015625 
L 54.890625 0 
L 45.90625 0 
L 45.90625 32.71875 
Q 45.90625 40.484375 42.875 44.328125 
Q 39.84375 48.1875 33.796875 48.1875 
Q 26.515625 48.1875 22.3125 43.546875 
Q 18.109375 38.921875 18.109375 30.90625 
L 18.109375 0 
L 9.078125 0 
L 9.078125 54.6875 
L 18.109375 54.6875 
L 18.109375 46.1875 
Q 21.34375 51.125 25.703125 53.5625 
Q 30.078125 56 35.796875 56 
Q 45.21875 56 50.046875 50.171875 
Q 54.890625 44.34375 54.890625 33.015625 
z
" id="DejaVuSans-110"/>
      <path d="M 34.28125 27.484375 
Q 23.390625 27.484375 19.1875 25 
Q 14.984375 22.515625 14.984375 16.5 
Q 14.984375 11.71875 18.140625 8.90625 
Q 21.296875 6.109375 26.703125 6.109375 
Q 34.1875 6.109375 38.703125 11.40625 
Q 43.21875 16.703125 43.21875 25.484375 
L 43.21875 27.484375 
z
M 52.203125 31.203125 
L 52.203125 0 
L 43.21875 0 
L 43.21875 8.296875 
Q 40.140625 3.328125 35.546875 0.953125 
Q 30.953125 -1.421875 24.3125 -1.421875 
Q 15.921875 -1.421875 10.953125 3.296875 
Q 6 8.015625 6 15.921875 
Q 6 25.140625 12.171875 29.828125 
Q 18.359375 34.515625 30.609375 34.515625 
L 43.21875 34.515625 
L 43.21875 35.40625 
Q 43.21875 41.609375 39.140625 45 
Q 35.0625 48.390625 27.6875 48.390625 
Q 23 48.390625 18.546875 47.265625 
Q 14.109375 46.140625 10.015625 43.890625 
L 10.015625 52.203125 
Q 14.9375 54.109375 19.578125 55.046875 
Q 24.21875 56 28.609375 56 
Q 40.484375 56 46.34375 49.84375 
Q 52.203125 43.703125 52.203125 31.203125 
z
" id="DejaVuSans-97"/>
      <path d="M 9.421875 75.984375 
L 18.40625 75.984375 
L 18.40625 0 
L 9.421875 0 
z
" id="DejaVuSans-108"/>
     </defs>
     <g transform="translate(278.154061 304.58827)rotate(-270)scale(0.08 -0.08)">
      <use xlink:href="#DejaVuSans-84"/>
      <use x="60.818359" xlink:href="#DejaVuSans-101"/>
      <use x="122.341797" xlink:href="#DejaVuSans-114"/>
      <use x="163.439453" xlink:href="#DejaVuSans-109"/>
      <use x="260.851562" xlink:href="#DejaVuSans-105"/>
      <use x="288.634766" xlink:href="#DejaVuSans-110"/>
      <use x="352.013672" xlink:href="#DejaVuSans-97"/>
      <use x="413.292969" xlink:href="#DejaVuSans-108"/>
     </g>
    </g>
   </g>
   <g id="text_11">
    <g id="patch_12">
     <path clip-path="url(#p75407ff79a)" d="M 358.016482 262.157669 
L 361.351405 257.710424 
Q 362.791264 255.790318 360.871158 254.350459 
L 354.676816 249.705414 
Q 352.75671 248.265556 351.316851 250.185662 
L 347.981928 254.632907 
Q 346.54207 256.553013 348.462176 257.992872 
L 354.656517 262.637916 
Q 356.576623 264.077775 358.016482 262.157669 
z
" style="fill:#ffffff;stroke:#ffffff;stroke-linejoin:miter;"/>
    </g>
    <g clip-path="url(#p75407ff79a)">
     <!-- R -->
     <defs>
      <path d="M 44.390625 34.1875 
Q 47.5625 33.109375 50.5625 29.59375 
Q 53.5625 26.078125 56.59375 19.921875 
L 66.609375 0 
L 56 0 
L 46.6875 18.703125 
Q 43.0625 26.03125 39.671875 28.421875 
Q 36.28125 30.8125 30.421875 30.8125 
L 19.671875 30.8125 
L 19.671875 0 
L 9.8125 0 
L 9.8125 72.90625 
L 32.078125 72.90625 
Q 44.578125 72.90625 50.734375 67.671875 
Q 56.890625 62.453125 56.890625 51.90625 
Q 56.890625 45.015625 53.6875 40.46875 
Q 50.484375 35.9375 44.390625 34.1875 
z
M 19.671875 64.796875 
L 19.671875 38.921875 
L 32.078125 38.921875 
Q 39.203125 38.921875 42.84375 42.21875 
Q 46.484375 45.515625 46.484375 51.90625 
Q 46.484375 58.296875 42.84375 61.546875 
Q 39.203125 64.796875 32.078125 64.796875 
z
" id="DejaVuSans-82"/>
     </defs>
     <g transform="translate(354.765303 259.719658)rotate(-53.134317)scale(0.08 -0.08)">
      <use xlink:href="#DejaVuSans-82"/>
     </g>
    </g>
   </g>
   <g id="text_12">
    <g id="patch_13">
     <path clip-path="url(#p75407ff79a)" d="M 373.163785 253.644165 
L 373.163785 258.699165 
Q 373.163785 261.099165 375.563785 261.099165 
L 383.306285 261.099165 
Q 385.706285 261.099165 385.706285 258.699165 
L 385.706285 253.644165 
Q 385.706285 251.244165 383.306285 251.244165 
L 375.563785 251.244165 
Q 373.163785 251.244165 373.163785 253.644165 
z
" style="fill:#ffffff;stroke:#ffffff;stroke-linejoin:miter;"/>
    </g>
    <g clip-path="url(#p75407ff79a)">
     <!-- E -->
     <g transform="translate(377.227535 253.644165)rotate(-270)scale(0.08 -0.08)">
      <use xlink:href="#DejaVuSans-69"/>
     </g>
    </g>
   </g>
   <g id="text_13">
    <g id="patch_14">
     <path clip-path="url(#p75407ff79a)" d="M 397.510416 257.699423 
L 400.861838 262.168669 
Q 402.301696 264.088775 404.221802 262.648917 
L 410.416144 258.003872 
Q 412.33625 256.564013 410.896391 254.643908 
L 407.54497 250.174661 
Q 406.105111 248.254555 404.185005 249.694414 
L 397.990663 254.339458 
Q 396.070558 255.779317 397.510416 257.699423 
z
" style="fill:#ffffff;stroke:#ffffff;stroke-linejoin:miter;"/>
    </g>
    <g clip-path="url(#p75407ff79a)">
     <!-- C -->
     <g transform="translate(400.761596 255.261412)rotate(-306.865683)scale(0.08 -0.08)">
      <use xlink:href="#DejaVuSans-67"/>
     </g>
    </g>
   </g>
   <g id="text_14">
    <g id="patch_15">
     <path clip-path="url(#p75407ff79a)" d="M 472.237259 304.58827 
L 472.237259 339.87327 
Q 472.237259 342.27327 474.637259 342.27327 
L 482.379759 342.27327 
Q 484.779759 342.27327 484.779759 339.87327 
L 484.779759 304.58827 
Q 484.779759 302.18827 482.379759 302.18827 
L 474.637259 302.18827 
Q 472.237259 302.18827 472.237259 304.58827 
z
" style="fill:#ffffff;stroke:#ffffff;stroke-linejoin:miter;"/>
    </g>
    <g clip-path="url(#p75407ff79a)">
     <!-- Terminal -->
     <g transform="translate(476.301009 304.58827)rotate(-270)scale(0.08 -0.08)">
      <use xlink:href="#DejaVuSans-84"/>
      <use x="60.818359" xlink:href="#DejaVuSans-101"/>
      <use x="122.341797" xlink:href="#DejaVuSans-114"/>
      <use x="163.439453" xlink:href="#DejaVuSans-109"/>
      <use x="260.851562" xlink:href="#DejaVuSans-105"/>
      <use x="288.634766" xlink:href="#DejaVuSans-110"/>
      <use x="352.013672" xlink:href="#DejaVuSans-97"/>
      <use x="413.292969" xlink:href="#DejaVuSans-108"/>
     </g>
    </g>
   </g>
   <g id="text_15">
    <g id="patch_16">
     <path clip-path="url(#p75407ff79a)" d="M 567.287357 262.705213 
L 571.441738 259.011865 
Q 573.235399 257.417255 571.640789 255.623594 
L 566.496512 249.837169 
Q 564.901902 248.043508 563.108241 249.638117 
L 558.95386 253.331466 
Q 557.160199 254.926076 558.754809 256.719737 
L 563.899086 262.506162 
Q 565.493696 264.299823 567.287357 262.705213 
z
" style="fill:#ffffff;stroke:#ffffff;stroke-linejoin:miter;"/>
    </g>
    <g clip-path="url(#p75407ff79a)">
     <!-- R -->
     <g transform="translate(564.587317 259.668134)rotate(-41.637899)scale(0.08 -0.08)">
      <use xlink:href="#DejaVuSans-82"/>
     </g>
    </g>
   </g>
   <g id="text_16">
    <g id="patch_17">
     <path clip-path="url(#p75407ff79a)" d="M 594.950887 260.739969 
L 596.725578 256.006736 
Q 597.568161 253.759503 595.320929 252.91692 
L 588.071263 250.198712 
Q 585.824031 249.356129 584.981447 251.603361 
L 583.206757 256.336595 
Q 582.364174 258.583827 584.611406 259.42641 
L 591.861072 262.144618 
Q 594.108304 262.987201 594.950887 260.739969 
z
" style="fill:#ffffff;stroke:#ffffff;stroke-linejoin:miter;"/>
    </g>
    <g clip-path="url(#p75407ff79a)">
     <!-- E -->
     <g transform="translate(591.145808 259.313283)rotate(-69.446841)scale(0.08 -0.08)">
      <use xlink:href="#DejaVuSans-69"/>
     </g>
    </g>
   </g>
   <g id="text_17">
    <g id="patch_18">
     <path clip-path="url(#p75407ff79a)" d="M 607.881871 255.758018 
L 609.843071 260.988686 
Q 610.685654 263.235919 612.932886 262.393336 
L 620.182552 259.675128 
Q 622.429784 258.832544 621.587201 256.585312 
L 619.626001 251.354644 
Q 618.783418 249.107412 616.536186 249.949995 
L 609.28652 252.668203 
Q 607.039288 253.510786 607.881871 255.758018 
z
" style="fill:#ffffff;stroke:#ffffff;stroke-linejoin:miter;"/>
    </g>
    <g clip-path="url(#p75407ff79a)">
     <!-- C -->
     <g transform="translate(611.68695 254.331332)rotate(-290.553159)scale(0.08 -0.08)">
      <use xlink:href="#DejaVuSans-67"/>
     </g>
    </g>
   </g>
   <g id="text_18">
    <g id="patch_19">
     <path clip-path="url(#p75407ff79a)" d="M 633.148263 258.913447 
L 637.524049 262.803631 
Q 639.31771 264.39824 640.91232 262.604579 
L 646.056597 256.818154 
Q 647.651207 255.024493 645.857546 253.429883 
L 641.48176 249.5397 
Q 639.688099 247.94509 638.093489 249.738751 
L 632.949212 255.525177 
Q 631.354602 257.318838 633.148263 258.913447 
z
" style="fill:#ffffff;stroke:#ffffff;stroke-linejoin:miter;"/>
    </g>
    <g clip-path="url(#p75407ff79a)">
     <!-- U -->
     <defs>
      <path d="M 8.6875 72.90625 
L 18.609375 72.90625 
L 18.609375 28.609375 
Q 18.609375 16.890625 22.84375 11.734375 
Q 27.09375 6.59375 36.625 6.59375 
Q 46.09375 6.59375 50.34375 11.734375 
Q 54.59375 16.890625 54.59375 28.609375 
L 54.59375 72.90625 
L 64.5 72.90625 
L 64.5 27.390625 
Q 64.5 13.140625 57.4375 5.859375 
Q 50.390625 -1.421875 36.625 -1.421875 
Q 22.796875 -1.421875 15.734375 5.859375 
Q 8.6875 13.140625 8.6875 27.390625 
z
" id="DejaVuSans-85"/>
     </defs>
     <g transform="translate(635.848303 255.876368)rotate(-318.362101)scale(0.08 -0.08)">
      <use xlink:href="#DejaVuSans-85"/>
     </g>
    </g>
   </g>
   <g id="text_19">
    <g id="patch_20">
     <path clip-path="url(#p75407ff79a)" d="M 521.773996 304.58827 
L 521.773996 339.87327 
Q 521.773996 342.27327 524.173996 342.27327 
L 531.916496 342.27327 
Q 534.316496 342.27327 534.316496 339.87327 
L 534.316496 304.58827 
Q 534.316496 302.18827 531.916496 302.18827 
L 524.173996 302.18827 
Q 521.773996 302.18827 521.773996 304.58827 
z
" style="fill:#ffffff;stroke:#ffffff;stroke-linejoin:miter;"/>
    </g>
    <g clip-path="url(#p75407ff79a)">
     <!-- Terminal -->
     <g transform="translate(525.837746 304.58827)rotate(-270)scale(0.08 -0.08)">
      <use xlink:href="#DejaVuSans-84"/>
      <use x="60.818359" xlink:href="#DejaVuSans-101"/>
      <use x="122.341797" xlink:href="#DejaVuSans-114"/>
      <use x="163.439453" xlink:href="#DejaVuSans-109"/>
      <use x="260.851562" xlink:href="#DejaVuSans-105"/>
      <use x="288.634766" xlink:href="#DejaVuSans-110"/>
      <use x="352.013672" xlink:href="#DejaVuSans-97"/>
      <use x="413.292969" xlink:href="#DejaVuSans-108"/>
     </g>
    </g>
   </g>
   <g id="text_20">
    <g id="patch_21">
     <path clip-path="url(#p75407ff79a)" d="M 571.310733 304.58827 
L 571.310733 339.87327 
Q 571.310733 342.27327 573.710733 342.27327 
L 581.453233 342.27327 
Q 583.853233 342.27327 583.853233 339.87327 
L 583.853233 304.58827 
Q 583.853233 302.18827 581.453233 302.18827 
L 573.710733 302.18827 
Q 571.310733 302.18827 571.310733 304.58827 
z
" style="fill:#ffffff;stroke:#ffffff;stroke-linejoin:miter;"/>
    </g>
    <g clip-path="url(#p75407ff79a)">
     <!-- Terminal -->
     <g transform="translate(575.374483 304.58827)rotate(-270)scale(0.08 -0.08)">
      <use xlink:href="#DejaVuSans-84"/>
      <use x="60.818359" xlink:href="#DejaVuSans-101"/>
      <use x="122.341797" xlink:href="#DejaVuSans-114"/>
      <use x="163.439453" xlink:href="#DejaVuSans-109"/>
      <use x="260.851562" xlink:href="#DejaVuSans-105"/>
      <use x="288.634766" xlink:href="#DejaVuSans-110"/>
      <use x="352.013672" xlink:href="#DejaVuSans-97"/>
      <use x="413.292969" xlink:href="#DejaVuSans-108"/>
     </g>
    </g>
   </g>
   <g id="text_21">
    <g id="patch_22">
     <path clip-path="url(#p75407ff79a)" d="M 620.84747 304.58827 
L 620.84747 339.87327 
Q 620.84747 342.27327 623.24747 342.27327 
L 630.98997 342.27327 
Q 633.38997 342.27327 633.38997 339.87327 
L 633.38997 304.58827 
Q 633.38997 302.18827 630.98997 302.18827 
L 623.24747 302.18827 
Q 620.84747 302.18827 620.84747 304.58827 
z
" style="fill:#ffffff;stroke:#ffffff;stroke-linejoin:miter;"/>
    </g>
    <g clip-path="url(#p75407ff79a)">
     <!-- Terminal -->
     <g transform="translate(624.91122 304.58827)rotate(-270)scale(0.08 -0.08)">
      <use xlink:href="#DejaVuSans-84"/>
      <use x="60.818359" xlink:href="#DejaVuSans-101"/>
      <use x="122.341797" xlink:href="#DejaVuSans-114"/>
      <use x="163.439453" xlink:href="#DejaVuSans-109"/>
      <use x="260.851562" xlink:href="#DejaVuSans-105"/>
      <use x="288.634766" xlink:href="#DejaVuSans-110"/>
      <use x="352.013672" xlink:href="#DejaVuSans-97"/>
      <use x="413.292969" xlink:href="#DejaVuSans-108"/>
     </g>
    </g>
   </g>
   <g id="text_22">
    <g id="patch_23">
     <path clip-path="url(#p75407ff79a)" d="M 323.627048 304.58827 
L 323.627048 339.87327 
Q 323.627048 342.27327 326.027048 342.27327 
L 333.769548 342.27327 
Q 336.169548 342.27327 336.169548 339.87327 
L 336.169548 304.58827 
Q 336.169548 302.18827 333.769548 302.18827 
L 326.027048 302.18827 
Q 323.627048 302.18827 323.627048 304.58827 
z
" style="fill:#ffffff;stroke:#ffffff;stroke-linejoin:miter;"/>
    </g>
    <g clip-path="url(#p75407ff79a)">
     <!-- Terminal -->
     <g transform="translate(327.690798 304.58827)rotate(-270)scale(0.08 -0.08)">
      <use xlink:href="#DejaVuSans-84"/>
      <use x="60.818359" xlink:href="#DejaVuSans-101"/>
      <use x="122.341797" xlink:href="#DejaVuSans-114"/>
      <use x="163.439453" xlink:href="#DejaVuSans-109"/>
      <use x="260.851562" xlink:href="#DejaVuSans-105"/>
      <use x="288.634766" xlink:href="#DejaVuSans-110"/>
      <use x="352.013672" xlink:href="#DejaVuSans-97"/>
      <use x="413.292969" xlink:href="#DejaVuSans-108"/>
     </g>
    </g>
   </g>
   <g id="text_23">
    <g id="patch_24">
     <path clip-path="url(#p75407ff79a)" d="M 373.163785 304.58827 
L 373.163785 339.87327 
Q 373.163785 342.27327 375.563785 342.27327 
L 383.306285 342.27327 
Q 385.706285 342.27327 385.706285 339.87327 
L 385.706285 304.58827 
Q 385.706285 302.18827 383.306285 302.18827 
L 375.563785 302.18827 
Q 373.163785 302.18827 373.163785 304.58827 
z
" style="fill:#ffffff;stroke:#ffffff;stroke-linejoin:miter;"/>
    </g>
    <g clip-path="url(#p75407ff79a)">
     <!-- Terminal -->
     <g transform="translate(377.227535 304.58827)rotate(-270)scale(0.08 -0.08)">
      <use xlink:href="#DejaVuSans-84"/>
      <use x="60.818359" xlink:href="#DejaVuSans-101"/>
      <use x="122.341797" xlink:href="#DejaVuSans-114"/>
      <use x="163.439453" xlink:href="#DejaVuSans-109"/>
      <use x="260.851562" xlink:href="#DejaVuSans-105"/>
      <use x="288.634766" xlink:href="#DejaVuSans-110"/>
      <use x="352.013672" xlink:href="#DejaVuSans-97"/>
      <use x="413.292969" xlink:href="#DejaVuSans-108"/>
     </g>
    </g>
   </g>
   <g id="text_24">
    <g id="patch_25">
     <path clip-path="url(#p75407ff79a)" d="M 422.700522 304.58827 
L 422.700522 339.87327 
Q 422.700522 342.27327 425.100522 342.27327 
L 432.843022 342.27327 
Q 435.243022 342.27327 435.243022 339.87327 
L 435.243022 304.58827 
Q 435.243022 302.18827 432.843022 302.18827 
L 425.100522 302.18827 
Q 422.700522 302.18827 422.700522 304.58827 
z
" style="fill:#ffffff;stroke:#ffffff;stroke-linejoin:miter;"/>
    </g>
    <g clip-path="url(#p75407ff79a)">
     <!-- Terminal -->
     <g transform="translate(426.764272 304.58827)rotate(-270)scale(0.08 -0.08)">
      <use xlink:href="#DejaVuSans-84"/>
      <use x="60.818359" xlink:href="#DejaVuSans-101"/>
      <use x="122.341797" xlink:href="#DejaVuSans-114"/>
      <use x="163.439453" xlink:href="#DejaVuSans-109"/>
      <use x="260.851562" xlink:href="#DejaVuSans-105"/>
      <use x="288.634766" xlink:href="#DejaVuSans-110"/>
      <use x="352.013672" xlink:href="#DejaVuSans-97"/>
      <use x="413.292969" xlink:href="#DejaVuSans-108"/>
     </g>
    </g>
   </g>
   <g id="text_25">
    <g id="patch_26">
     <path clip-path="url(#p75407ff79a)" d="M 26.406626 304.58827 
L 26.406626 339.87327 
Q 26.406626 342.27327 28.806626 342.27327 
L 36.549126 342.27327 
Q 38.949126 342.27327 38.949126 339.87327 
L 38.949126 304.58827 
Q 38.949126 302.18827 36.549126 302.18827 
L 28.806626 302.18827 
Q 26.406626 302.18827 26.406626 304.58827 
z
" style="fill:#ffffff;stroke:#ffffff;stroke-linejoin:miter;"/>
    </g>
    <g clip-path="url(#p75407ff79a)">
     <!-- Terminal -->
     <g transform="translate(30.470376 304.58827)rotate(-270)scale(0.08 -0.08)">
      <use xlink:href="#DejaVuSans-84"/>
      <use x="60.818359" xlink:href="#DejaVuSans-101"/>
      <use x="122.341797" xlink:href="#DejaVuSans-114"/>
      <use x="163.439453" xlink:href="#DejaVuSans-109"/>
      <use x="260.851562" xlink:href="#DejaVuSans-105"/>
      <use x="288.634766" xlink:href="#DejaVuSans-110"/>
      <use x="352.013672" xlink:href="#DejaVuSans-97"/>
      <use x="413.292969" xlink:href="#DejaVuSans-108"/>
     </g>
    </g>
   </g>
   <g id="text_26">
    <g id="patch_27">
     <path clip-path="url(#p75407ff79a)" d="M 110.324548 262.168669 
L 113.675969 257.699423 
Q 115.115828 255.779317 113.195722 254.339458 
L 107.00138 249.694414 
Q 105.081274 248.254555 103.641416 250.174661 
L 100.289994 254.643908 
Q 98.850135 256.564013 100.770241 258.003872 
L 106.964583 262.648917 
Q 108.884689 264.088775 110.324548 262.168669 
z
" style="fill:#ffffff;stroke:#ffffff;stroke-linejoin:miter;"/>
    </g>
    <g clip-path="url(#p75407ff79a)">
     <!-- C -->
     <g transform="translate(107.073368 259.730659)rotate(-53.134317)scale(0.08 -0.08)">
      <use xlink:href="#DejaVuSans-67"/>
     </g>
    </g>
   </g>
   <g id="text_27">
    <g id="patch_28">
     <path clip-path="url(#p75407ff79a)" d="M 125.4801 253.179165 
L 125.4801 259.164165 
Q 125.4801 261.564165 127.8801 261.564165 
L 135.6226 261.564165 
Q 138.0226 261.564165 138.0226 259.164165 
L 138.0226 253.179165 
Q 138.0226 250.779165 135.6226 250.779165 
L 127.8801 250.779165 
Q 125.4801 250.779165 125.4801 253.179165 
z
" style="fill:#ffffff;stroke:#ffffff;stroke-linejoin:miter;"/>
    </g>
    <g clip-path="url(#p75407ff79a)">
     <!-- N -->
     <defs>
      <path d="M 9.8125 72.90625 
L 23.09375 72.90625 
L 55.421875 11.921875 
L 55.421875 72.90625 
L 64.984375 72.90625 
L 64.984375 0 
L 51.703125 0 
L 19.390625 60.984375 
L 19.390625 0 
L 9.8125 0 
z
" id="DejaVuSans-78"/>
     </defs>
     <g transform="translate(129.54385 253.179165)rotate(-270)scale(0.08 -0.08)">
      <use xlink:href="#DejaVuSans-78"/>
     </g>
    </g>
   </g>
   <g id="text_28">
    <g id="patch_29">
     <path clip-path="url(#p75407ff79a)" d="M 149.826731 257.699423 
L 153.178153 262.168669 
Q 154.618011 264.088775 156.538117 262.648917 
L 162.732459 258.003872 
Q 164.652565 256.564013 163.212706 254.643908 
L 159.861285 250.174661 
Q 158.421426 248.254555 156.50132 249.694414 
L 150.306978 254.339458 
Q 148.386872 255.779317 149.826731 257.699423 
z
" style="fill:#ffffff;stroke:#ffffff;stroke-linejoin:miter;"/>
    </g>
    <g clip-path="url(#p75407ff79a)">
     <!-- C -->
     <g transform="translate(153.077911 255.261412)rotate(-306.865683)scale(0.08 -0.08)">
      <use xlink:href="#DejaVuSans-67"/>
     </g>
    </g>
   </g>
   <g id="text_29">
    <g id="patch_30">
     <path clip-path="url(#p75407ff79a)" d="M 224.553574 304.58827 
L 224.553574 339.87327 
Q 224.553574 342.27327 226.953574 342.27327 
L 234.696074 342.27327 
Q 237.096074 342.27327 237.096074 339.87327 
L 237.096074 304.58827 
Q 237.096074 302.18827 234.696074 302.18827 
L 226.953574 302.18827 
Q 224.553574 302.18827 224.553574 304.58827 
z
" style="fill:#ffffff;stroke:#ffffff;stroke-linejoin:miter;"/>
    </g>
    <g clip-path="url(#p75407ff79a)">
     <!-- Terminal -->
     <g transform="translate(228.617324 304.58827)rotate(-270)scale(0.08 -0.08)">
      <use xlink:href="#DejaVuSans-84"/>
      <use x="60.818359" xlink:href="#DejaVuSans-101"/>
      <use x="122.341797" xlink:href="#DejaVuSans-114"/>
      <use x="163.439453" xlink:href="#DejaVuSans-109"/>
      <use x="260.851562" xlink:href="#DejaVuSans-105"/>
      <use x="288.634766" xlink:href="#DejaVuSans-110"/>
      <use x="352.013672" xlink:href="#DejaVuSans-97"/>
      <use x="413.292969" xlink:href="#DejaVuSans-108"/>
     </g>
    </g>
   </g>
   <g id="text_30">
    <g id="patch_31">
     <path clip-path="url(#p75407ff79a)" d="M 75.943363 304.58827 
L 75.943363 339.87327 
Q 75.943363 342.27327 78.343363 342.27327 
L 86.085863 342.27327 
Q 88.485863 342.27327 88.485863 339.87327 
L 88.485863 304.58827 
Q 88.485863 302.18827 86.085863 302.18827 
L 78.343363 302.18827 
Q 75.943363 302.18827 75.943363 304.58827 
z
" style="fill:#ffffff;stroke:#ffffff;stroke-linejoin:miter;"/>
    </g>
    <g clip-path="url(#p75407ff79a)">
     <!-- Terminal -->
     <g transform="translate(80.007113 304.58827)rotate(-270)scale(0.08 -0.08)">
      <use xlink:href="#DejaVuSans-84"/>
      <use x="60.818359" xlink:href="#DejaVuSans-101"/>
      <use x="122.341797" xlink:href="#DejaVuSans-114"/>
      <use x="163.439453" xlink:href="#DejaVuSans-109"/>
      <use x="260.851562" xlink:href="#DejaVuSans-105"/>
      <use x="288.634766" xlink:href="#DejaVuSans-110"/>
      <use x="352.013672" xlink:href="#DejaVuSans-97"/>
      <use x="413.292969" xlink:href="#DejaVuSans-108"/>
     </g>
    </g>
   </g>
   <g id="text_31">
    <g id="patch_32">
     <path clip-path="url(#p75407ff79a)" d="M 125.4801 304.58827 
L 125.4801 339.87327 
Q 125.4801 342.27327 127.8801 342.27327 
L 135.6226 342.27327 
Q 138.0226 342.27327 138.0226 339.87327 
L 138.0226 304.58827 
Q 138.0226 302.18827 135.6226 302.18827 
L 127.8801 302.18827 
Q 125.4801 302.18827 125.4801 304.58827 
z
" style="fill:#ffffff;stroke:#ffffff;stroke-linejoin:miter;"/>
    </g>
    <g clip-path="url(#p75407ff79a)">
     <!-- Terminal -->
     <g transform="translate(129.54385 304.58827)rotate(-270)scale(0.08 -0.08)">
      <use xlink:href="#DejaVuSans-84"/>
      <use x="60.818359" xlink:href="#DejaVuSans-101"/>
      <use x="122.341797" xlink:href="#DejaVuSans-114"/>
      <use x="163.439453" xlink:href="#DejaVuSans-109"/>
      <use x="260.851562" xlink:href="#DejaVuSans-105"/>
      <use x="288.634766" xlink:href="#DejaVuSans-110"/>
      <use x="352.013672" xlink:href="#DejaVuSans-97"/>
      <use x="413.292969" xlink:href="#DejaVuSans-108"/>
     </g>
    </g>
   </g>
   <g id="text_32">
    <g id="patch_33">
     <path clip-path="url(#p75407ff79a)" d="M 175.016837 304.58827 
L 175.016837 339.87327 
Q 175.016837 342.27327 177.416837 342.27327 
L 185.159337 342.27327 
Q 187.559337 342.27327 187.559337 339.87327 
L 187.559337 304.58827 
Q 187.559337 302.18827 185.159337 302.18827 
L 177.416837 302.18827 
Q 175.016837 302.18827 175.016837 304.58827 
z
" style="fill:#ffffff;stroke:#ffffff;stroke-linejoin:miter;"/>
    </g>
    <g clip-path="url(#p75407ff79a)">
     <!-- Terminal -->
     <g transform="translate(179.080587 304.58827)rotate(-270)scale(0.08 -0.08)">
      <use xlink:href="#DejaVuSans-84"/>
      <use x="60.818359" xlink:href="#DejaVuSans-101"/>
      <use x="122.341797" xlink:href="#DejaVuSans-114"/>
      <use x="163.439453" xlink:href="#DejaVuSans-109"/>
      <use x="260.851562" xlink:href="#DejaVuSans-105"/>
      <use x="288.634766" xlink:href="#DejaVuSans-110"/>
      <use x="352.013672" xlink:href="#DejaVuSans-97"/>
      <use x="413.292969" xlink:href="#DejaVuSans-108"/>
     </g>
    </g>
   </g>
   <g id="text_33">
    <g id="patch_34">
     <path clip-path="url(#p75407ff79a)" d="M 670.384207 304.58827 
L 670.384207 339.87327 
Q 670.384207 342.27327 672.784207 342.27327 
L 680.526707 342.27327 
Q 682.926707 342.27327 682.926707 339.87327 
L 682.926707 304.58827 
Q 682.926707 302.18827 680.526707 302.18827 
L 672.784207 302.18827 
Q 670.384207 302.18827 670.384207 304.58827 
z
" style="fill:#ffffff;stroke:#ffffff;stroke-linejoin:miter;"/>
    </g>
    <g clip-path="url(#p75407ff79a)">
     <!-- Terminal -->
     <g transform="translate(674.447957 304.58827)rotate(-270)scale(0.08 -0.08)">
      <use xlink:href="#DejaVuSans-84"/>
      <use x="60.818359" xlink:href="#DejaVuSans-101"/>
      <use x="122.341797" xlink:href="#DejaVuSans-114"/>
      <use x="163.439453" xlink:href="#DejaVuSans-109"/>
      <use x="260.851562" xlink:href="#DejaVuSans-105"/>
      <use x="288.634766" xlink:href="#DejaVuSans-110"/>
      <use x="352.013672" xlink:href="#DejaVuSans-97"/>
      <use x="413.292969" xlink:href="#DejaVuSans-108"/>
     </g>
    </g>
   </g>
   <g id="PathCollection_1">
    <defs>
     <path d="M 0 8.660254 
C 2.296726 8.660254 4.499694 7.747755 6.123724 6.123724 
C 7.747755 4.499694 8.660254 2.296726 8.660254 0 
C 8.660254 -2.296726 7.747755 -4.499694 6.123724 -6.123724 
C 4.499694 -7.747755 2.296726 -8.660254 0 -8.660254 
C -2.296726 -8.660254 -4.499694 -7.747755 -6.123724 -6.123724 
C -7.747755 -4.499694 -8.660254 -2.296726 -8.660254 0 
C -8.660254 2.296726 -7.747755 4.499694 -6.123724 6.123724 
C -4.499694 7.747755 -2.296726 8.660254 0 8.660254 
z
" id="C0_0_bf80c844d5"/>
    </defs>
    <g clip-path="url(#p75407ff79a)">
     <use style="fill:#ffffff;stroke:#ffffff;" x="32.677876" xlink:href="#C0_0_bf80c844d5" y="355.260323"/>
    </g>
    <g clip-path="url(#p75407ff79a)">
     <use style="fill:#ffffff;stroke:#ffffff;" x="82.214613" xlink:href="#C0_0_bf80c844d5" y="355.260323"/>
    </g>
    <g clip-path="url(#p75407ff79a)">
     <use style="fill:#ffffff;stroke:#ffffff;" x="131.75135" xlink:href="#C0_0_bf80c844d5" y="355.260323"/>
    </g>
    <g clip-path="url(#p75407ff79a)">
     <use style="fill:#ffffff;stroke:#ffffff;" x="181.288087" xlink:href="#C0_0_bf80c844d5" y="355.260323"/>
    </g>
    <g clip-path="url(#p75407ff79a)">
     <use style="fill:#ffffff;stroke:#ffffff;" x="230.824824" xlink:href="#C0_0_bf80c844d5" y="355.260323"/>
    </g>
    <g clip-path="url(#p75407ff79a)">
     <use style="fill:#ffffff;stroke:#ffffff;" x="280.361561" xlink:href="#C0_0_bf80c844d5" y="355.260323"/>
    </g>
    <g clip-path="url(#p75407ff79a)">
     <use style="fill:#ffffff;stroke:#ffffff;" x="329.898298" xlink:href="#C0_0_bf80c844d5" y="355.260323"/>
    </g>
    <g clip-path="url(#p75407ff79a)">
     <use style="fill:#ffffff;stroke:#ffffff;" x="379.435035" xlink:href="#C0_0_bf80c844d5" y="355.260323"/>
    </g>
    <g clip-path="url(#p75407ff79a)">
     <use style="fill:#ffffff;stroke:#ffffff;" x="428.971772" xlink:href="#C0_0_bf80c844d5" y="355.260323"/>
    </g>
    <g clip-path="url(#p75407ff79a)">
     <use style="fill:#ffffff;stroke:#ffffff;" x="478.508509" xlink:href="#C0_0_bf80c844d5" y="355.260323"/>
    </g>
    <g clip-path="url(#p75407ff79a)">
     <use style="fill:#ffffff;stroke:#ffffff;" x="528.045246" xlink:href="#C0_0_bf80c844d5" y="355.260323"/>
    </g>
    <g clip-path="url(#p75407ff79a)">
     <use style="fill:#ffffff;stroke:#ffffff;" x="577.581983" xlink:href="#C0_0_bf80c844d5" y="355.260323"/>
    </g>
    <g clip-path="url(#p75407ff79a)">
     <use style="fill:#ffffff;stroke:#ffffff;" x="627.11872" xlink:href="#C0_0_bf80c844d5" y="355.260323"/>
    </g>
    <g clip-path="url(#p75407ff79a)">
     <use style="fill:#ffffff;stroke:#ffffff;" x="676.655457" xlink:href="#C0_0_bf80c844d5" y="355.260323"/>
    </g>
    <g clip-path="url(#p75407ff79a)">
     <use style="fill:#ffffff;stroke:#ffffff;" x="374.481361" xlink:href="#C0_0_bf80c844d5" y="18.073011"/>
    </g>
    <g clip-path="url(#p75407ff79a)">
     <use style="fill:#ffffff;stroke:#ffffff;" x="374.481361" xlink:href="#C0_0_bf80c844d5" y="87.89628"/>
    </g>
    <g clip-path="url(#p75407ff79a)">
     <use style="fill:#ffffff;stroke:#ffffff;" x="131.75135" xlink:href="#C0_0_bf80c844d5" y="156.164053"/>
    </g>
    <g clip-path="url(#p75407ff79a)">
     <use style="fill:#ffffff;stroke:#ffffff;" x="280.361561" xlink:href="#C0_0_bf80c844d5" y="289.201218"/>
    </g>
    <g clip-path="url(#p75407ff79a)">
     <use style="fill:#ffffff;stroke:#ffffff;" x="379.435035" xlink:href="#C0_0_bf80c844d5" y="223.142113"/>
    </g>
    <g clip-path="url(#p75407ff79a)">
     <use style="fill:#ffffff;stroke:#ffffff;" x="478.508509" xlink:href="#C0_0_bf80c844d5" y="289.201218"/>
    </g>
    <g clip-path="url(#p75407ff79a)">
     <use style="fill:#ffffff;stroke:#ffffff;" x="602.350352" xlink:href="#C0_0_bf80c844d5" y="223.142113"/>
    </g>
    <g clip-path="url(#p75407ff79a)">
     <use style="fill:#ffffff;stroke:#ffffff;" x="528.045246" xlink:href="#C0_0_bf80c844d5" y="289.201218"/>
    </g>
    <g clip-path="url(#p75407ff79a)">
     <use style="fill:#ffffff;stroke:#ffffff;" x="577.581983" xlink:href="#C0_0_bf80c844d5" y="289.201218"/>
    </g>
    <g clip-path="url(#p75407ff79a)">
     <use style="fill:#ffffff;stroke:#ffffff;" x="627.11872" xlink:href="#C0_0_bf80c844d5" y="289.201218"/>
    </g>
    <g clip-path="url(#p75407ff79a)">
     <use style="fill:#ffffff;stroke:#ffffff;" x="329.898298" xlink:href="#C0_0_bf80c844d5" y="289.201218"/>
    </g>
    <g clip-path="url(#p75407ff79a)">
     <use style="fill:#ffffff;stroke:#ffffff;" x="379.435035" xlink:href="#C0_0_bf80c844d5" y="289.201218"/>
    </g>
    <g clip-path="url(#p75407ff79a)">
     <use style="fill:#ffffff;stroke:#ffffff;" x="428.971772" xlink:href="#C0_0_bf80c844d5" y="289.201218"/>
    </g>
    <g clip-path="url(#p75407ff79a)">
     <use style="fill:#ffffff;stroke:#ffffff;" x="32.677876" xlink:href="#C0_0_bf80c844d5" y="289.201218"/>
    </g>
    <g clip-path="url(#p75407ff79a)">
     <use style="fill:#ffffff;stroke:#ffffff;" x="131.75135" xlink:href="#C0_0_bf80c844d5" y="223.142113"/>
    </g>
    <g clip-path="url(#p75407ff79a)">
     <use style="fill:#ffffff;stroke:#ffffff;" x="230.824824" xlink:href="#C0_0_bf80c844d5" y="289.201218"/>
    </g>
    <g clip-path="url(#p75407ff79a)">
     <use style="fill:#ffffff;stroke:#ffffff;" x="82.214613" xlink:href="#C0_0_bf80c844d5" y="289.201218"/>
    </g>
    <g clip-path="url(#p75407ff79a)">
     <use style="fill:#ffffff;stroke:#ffffff;" x="131.75135" xlink:href="#C0_0_bf80c844d5" y="289.201218"/>
    </g>
    <g clip-path="url(#p75407ff79a)">
     <use style="fill:#ffffff;stroke:#ffffff;" x="181.288087" xlink:href="#C0_0_bf80c844d5" y="289.201218"/>
    </g>
    <g clip-path="url(#p75407ff79a)">
     <use style="fill:#ffffff;stroke:#ffffff;" x="676.655457" xlink:href="#C0_0_bf80c844d5" y="289.201218"/>
    </g>
   </g>
   <g id="text_34">
    <g clip-path="url(#p75407ff79a)">
     <!-- The -->
     <defs>
      <path d="M 54.890625 33.015625 
L 54.890625 0 
L 45.90625 0 
L 45.90625 32.71875 
Q 45.90625 40.484375 42.875 44.328125 
Q 39.84375 48.1875 33.796875 48.1875 
Q 26.515625 48.1875 22.3125 43.546875 
Q 18.109375 38.921875 18.109375 30.90625 
L 18.109375 0 
L 9.078125 0 
L 9.078125 75.984375 
L 18.109375 75.984375 
L 18.109375 46.1875 
Q 21.34375 51.125 25.703125 53.5625 
Q 30.078125 56 35.796875 56 
Q 45.21875 56 50.046875 50.171875 
Q 54.890625 44.34375 54.890625 33.015625 
z
" id="DejaVuSans-104"/>
     </defs>
     <g transform="translate(23.378657 358.019698)scale(0.1 -0.1)">
      <use xlink:href="#DejaVuSans-84"/>
      <use x="61.083984" xlink:href="#DejaVuSans-104"/>
      <use x="124.462891" xlink:href="#DejaVuSans-101"/>
     </g>
    </g>
   </g>
   <g id="text_35">
    <g clip-path="url(#p75407ff79a)">
     <!-- industrial -->
     <defs>
      <path d="M 45.40625 46.390625 
L 45.40625 75.984375 
L 54.390625 75.984375 
L 54.390625 0 
L 45.40625 0 
L 45.40625 8.203125 
Q 42.578125 3.328125 38.25 0.953125 
Q 33.9375 -1.421875 27.875 -1.421875 
Q 17.96875 -1.421875 11.734375 6.484375 
Q 5.515625 14.40625 5.515625 27.296875 
Q 5.515625 40.1875 11.734375 48.09375 
Q 17.96875 56 27.875 56 
Q 33.9375 56 38.25 53.625 
Q 42.578125 51.265625 45.40625 46.390625 
z
M 14.796875 27.296875 
Q 14.796875 17.390625 18.875 11.75 
Q 22.953125 6.109375 30.078125 6.109375 
Q 37.203125 6.109375 41.296875 11.75 
Q 45.40625 17.390625 45.40625 27.296875 
Q 45.40625 37.203125 41.296875 42.84375 
Q 37.203125 48.484375 30.078125 48.484375 
Q 22.953125 48.484375 18.875 42.84375 
Q 14.796875 37.203125 14.796875 27.296875 
z
" id="DejaVuSans-100"/>
      <path d="M 8.5 21.578125 
L 8.5 54.6875 
L 17.484375 54.6875 
L 17.484375 21.921875 
Q 17.484375 14.15625 20.5 10.265625 
Q 23.53125 6.390625 29.59375 6.390625 
Q 36.859375 6.390625 41.078125 11.03125 
Q 45.3125 15.671875 45.3125 23.6875 
L 45.3125 54.6875 
L 54.296875 54.6875 
L 54.296875 0 
L 45.3125 0 
L 45.3125 8.40625 
Q 42.046875 3.421875 37.71875 1 
Q 33.40625 -1.421875 27.6875 -1.421875 
Q 18.265625 -1.421875 13.375 4.4375 
Q 8.5 10.296875 8.5 21.578125 
z
M 31.109375 56 
z
" id="DejaVuSans-117"/>
      <path d="M 44.28125 53.078125 
L 44.28125 44.578125 
Q 40.484375 46.53125 36.375 47.5 
Q 32.28125 48.484375 27.875 48.484375 
Q 21.1875 48.484375 17.84375 46.4375 
Q 14.5 44.390625 14.5 40.28125 
Q 14.5 37.15625 16.890625 35.375 
Q 19.28125 33.59375 26.515625 31.984375 
L 29.59375 31.296875 
Q 39.15625 29.25 43.1875 25.515625 
Q 47.21875 21.78125 47.21875 15.09375 
Q 47.21875 7.46875 41.1875 3.015625 
Q 35.15625 -1.421875 24.609375 -1.421875 
Q 20.21875 -1.421875 15.453125 -0.5625 
Q 10.6875 0.296875 5.421875 2 
L 5.421875 11.28125 
Q 10.40625 8.6875 15.234375 7.390625 
Q 20.0625 6.109375 24.8125 6.109375 
Q 31.15625 6.109375 34.5625 8.28125 
Q 37.984375 10.453125 37.984375 14.40625 
Q 37.984375 18.0625 35.515625 20.015625 
Q 33.0625 21.96875 24.703125 23.78125 
L 21.578125 24.515625 
Q 13.234375 26.265625 9.515625 29.90625 
Q 5.8125 33.546875 5.8125 39.890625 
Q 5.8125 47.609375 11.28125 51.796875 
Q 16.75 56 26.8125 56 
Q 31.78125 56 36.171875 55.265625 
Q 40.578125 54.546875 44.28125 53.078125 
z
" id="DejaVuSans-115"/>
      <path d="M 18.3125 70.21875 
L 18.3125 54.6875 
L 36.8125 54.6875 
L 36.8125 47.703125 
L 18.3125 47.703125 
L 18.3125 18.015625 
Q 18.3125 11.328125 20.140625 9.421875 
Q 21.96875 7.515625 27.59375 7.515625 
L 36.8125 7.515625 
L 36.8125 0 
L 27.59375 0 
Q 17.1875 0 13.234375 3.875 
Q 9.28125 7.765625 9.28125 18.015625 
L 9.28125 47.703125 
L 2.6875 47.703125 
L 2.6875 54.6875 
L 9.28125 54.6875 
L 9.28125 70.21875 
z
" id="DejaVuSans-116"/>
     </defs>
     <g transform="translate(58.851332 358.019698)scale(0.1 -0.1)">
      <use xlink:href="#DejaVuSans-105"/>
      <use x="27.783203" xlink:href="#DejaVuSans-110"/>
      <use x="91.162109" xlink:href="#DejaVuSans-100"/>
      <use x="154.638672" xlink:href="#DejaVuSans-117"/>
      <use x="218.017578" xlink:href="#DejaVuSans-115"/>
      <use x="270.117188" xlink:href="#DejaVuSans-116"/>
      <use x="309.326172" xlink:href="#DejaVuSans-114"/>
      <use x="350.439453" xlink:href="#DejaVuSans-105"/>
      <use x="378.222656" xlink:href="#DejaVuSans-97"/>
      <use x="439.501953" xlink:href="#DejaVuSans-108"/>
     </g>
    </g>
   </g>
   <g id="text_36">
    <g clip-path="url(#p75407ff79a)">
     <!-- and -->
     <g transform="translate(122.344319 358.019698)scale(0.1 -0.1)">
      <use xlink:href="#DejaVuSans-97"/>
      <use x="61.279297" xlink:href="#DejaVuSans-110"/>
      <use x="124.658203" xlink:href="#DejaVuSans-100"/>
     </g>
    </g>
   </g>
   <g id="text_37">
    <g clip-path="url(#p75407ff79a)">
     <!-- commercial -->
     <defs>
      <path d="M 48.78125 52.59375 
L 48.78125 44.1875 
Q 44.96875 46.296875 41.140625 47.34375 
Q 37.3125 48.390625 33.40625 48.390625 
Q 24.65625 48.390625 19.8125 42.84375 
Q 14.984375 37.3125 14.984375 27.296875 
Q 14.984375 17.28125 19.8125 11.734375 
Q 24.65625 6.203125 33.40625 6.203125 
Q 37.3125 6.203125 41.140625 7.25 
Q 44.96875 8.296875 48.78125 10.40625 
L 48.78125 2.09375 
Q 45.015625 0.34375 40.984375 -0.53125 
Q 36.96875 -1.421875 32.421875 -1.421875 
Q 20.0625 -1.421875 12.78125 6.34375 
Q 5.515625 14.109375 5.515625 27.296875 
Q 5.515625 40.671875 12.859375 48.328125 
Q 20.21875 56 33.015625 56 
Q 37.15625 56 41.109375 55.140625 
Q 45.0625 54.296875 48.78125 52.59375 
z
" id="DejaVuSans-99"/>
      <path d="M 30.609375 48.390625 
Q 23.390625 48.390625 19.1875 42.75 
Q 14.984375 37.109375 14.984375 27.296875 
Q 14.984375 17.484375 19.15625 11.84375 
Q 23.34375 6.203125 30.609375 6.203125 
Q 37.796875 6.203125 41.984375 11.859375 
Q 46.1875 17.53125 46.1875 27.296875 
Q 46.1875 37.015625 41.984375 42.703125 
Q 37.796875 48.390625 30.609375 48.390625 
z
M 30.609375 56 
Q 42.328125 56 49.015625 48.375 
Q 55.71875 40.765625 55.71875 27.296875 
Q 55.71875 13.875 49.015625 6.21875 
Q 42.328125 -1.421875 30.609375 -1.421875 
Q 18.84375 -1.421875 12.171875 6.21875 
Q 5.515625 13.875 5.515625 27.296875 
Q 5.515625 40.765625 12.171875 48.375 
Q 18.84375 56 30.609375 56 
z
" id="DejaVuSans-111"/>
     </defs>
     <g transform="translate(152.016993 358.019698)scale(0.1 -0.1)">
      <use xlink:href="#DejaVuSans-99"/>
      <use x="54.980469" xlink:href="#DejaVuSans-111"/>
      <use x="116.162109" xlink:href="#DejaVuSans-109"/>
      <use x="213.574219" xlink:href="#DejaVuSans-109"/>
      <use x="310.986328" xlink:href="#DejaVuSans-101"/>
      <use x="372.509766" xlink:href="#DejaVuSans-114"/>
      <use x="413.591797" xlink:href="#DejaVuSans-99"/>
      <use x="468.572266" xlink:href="#DejaVuSans-105"/>
      <use x="496.355469" xlink:href="#DejaVuSans-97"/>
      <use x="557.634766" xlink:href="#DejaVuSans-108"/>
     </g>
    </g>
   </g>
   <g id="text_38">
    <g clip-path="url(#p75407ff79a)">
     <!-- newspapers -->
     <defs>
      <path d="M 4.203125 54.6875 
L 13.1875 54.6875 
L 24.421875 12.015625 
L 35.59375 54.6875 
L 46.1875 54.6875 
L 57.421875 12.015625 
L 68.609375 54.6875 
L 77.59375 54.6875 
L 63.28125 0 
L 52.6875 0 
L 40.921875 44.828125 
L 29.109375 0 
L 18.5 0 
z
" id="DejaVuSans-119"/>
      <path d="M 18.109375 8.203125 
L 18.109375 -20.796875 
L 9.078125 -20.796875 
L 9.078125 54.6875 
L 18.109375 54.6875 
L 18.109375 46.390625 
Q 20.953125 51.265625 25.265625 53.625 
Q 29.59375 56 35.59375 56 
Q 45.5625 56 51.78125 48.09375 
Q 58.015625 40.1875 58.015625 27.296875 
Q 58.015625 14.40625 51.78125 6.484375 
Q 45.5625 -1.421875 35.59375 -1.421875 
Q 29.59375 -1.421875 25.265625 0.953125 
Q 20.953125 3.328125 18.109375 8.203125 
z
M 48.6875 27.296875 
Q 48.6875 37.203125 44.609375 42.84375 
Q 40.53125 48.484375 33.40625 48.484375 
Q 26.265625 48.484375 22.1875 42.84375 
Q 18.109375 37.203125 18.109375 27.296875 
Q 18.109375 17.390625 22.1875 11.75 
Q 26.265625 6.109375 33.40625 6.109375 
Q 40.53125 6.109375 44.609375 11.75 
Q 48.6875 17.390625 48.6875 27.296875 
z
" id="DejaVuSans-112"/>
     </defs>
     <g transform="translate(200.736543 358.019698)scale(0.1 -0.1)">
      <use xlink:href="#DejaVuSans-110"/>
      <use x="63.378906" xlink:href="#DejaVuSans-101"/>
      <use x="124.902344" xlink:href="#DejaVuSans-119"/>
      <use x="206.689453" xlink:href="#DejaVuSans-115"/>
      <use x="258.789062" xlink:href="#DejaVuSans-112"/>
      <use x="322.265625" xlink:href="#DejaVuSans-97"/>
      <use x="383.544922" xlink:href="#DejaVuSans-112"/>
      <use x="447.021484" xlink:href="#DejaVuSans-101"/>
      <use x="508.544922" xlink:href="#DejaVuSans-114"/>
      <use x="549.658203" xlink:href="#DejaVuSans-115"/>
     </g>
    </g>
   </g>
   <g id="text_39">
    <g clip-path="url(#p75407ff79a)">
     <!-- dealt -->
     <g transform="translate(267.697499 358.019698)scale(0.1 -0.1)">
      <use xlink:href="#DejaVuSans-100"/>
      <use x="63.476562" xlink:href="#DejaVuSans-101"/>
      <use x="125" xlink:href="#DejaVuSans-97"/>
      <use x="186.279297" xlink:href="#DejaVuSans-108"/>
      <use x="214.0625" xlink:href="#DejaVuSans-116"/>
     </g>
    </g>
   </g>
   <g id="text_40">
    <g clip-path="url(#p75407ff79a)">
     <!-- with -->
     <g transform="translate(319.291267 358.019698)scale(0.1 -0.1)">
      <use xlink:href="#DejaVuSans-119"/>
      <use x="81.787109" xlink:href="#DejaVuSans-105"/>
      <use x="109.570312" xlink:href="#DejaVuSans-116"/>
      <use x="148.779297" xlink:href="#DejaVuSans-104"/>
     </g>
    </g>
   </g>
   <g id="text_41">
    <g clip-path="url(#p75407ff79a)">
     <!-- the -->
     <g transform="translate(371.229566 358.019698)scale(0.1 -0.1)">
      <use xlink:href="#DejaVuSans-116"/>
      <use x="39.208984" xlink:href="#DejaVuSans-104"/>
      <use x="102.587891" xlink:href="#DejaVuSans-101"/>
     </g>
    </g>
   </g>
   <g id="text_42">
    <g clip-path="url(#p75407ff79a)">
     <!-- question -->
     <defs>
      <path d="M 14.796875 27.296875 
Q 14.796875 17.390625 18.875 11.75 
Q 22.953125 6.109375 30.078125 6.109375 
Q 37.203125 6.109375 41.296875 11.75 
Q 45.40625 17.390625 45.40625 27.296875 
Q 45.40625 37.203125 41.296875 42.84375 
Q 37.203125 48.484375 30.078125 48.484375 
Q 22.953125 48.484375 18.875 42.84375 
Q 14.796875 37.203125 14.796875 27.296875 
z
M 45.40625 8.203125 
Q 42.578125 3.328125 38.25 0.953125 
Q 33.9375 -1.421875 27.875 -1.421875 
Q 17.96875 -1.421875 11.734375 6.484375 
Q 5.515625 14.40625 5.515625 27.296875 
Q 5.515625 40.1875 11.734375 48.09375 
Q 17.96875 56 27.875 56 
Q 33.9375 56 38.25 53.625 
Q 42.578125 51.265625 45.40625 46.390625 
L 45.40625 54.6875 
L 54.390625 54.6875 
L 54.390625 -20.796875 
L 45.40625 -20.796875 
z
" id="DejaVuSans-113"/>
     </defs>
     <g transform="translate(407.37021 358.019698)scale(0.1 -0.1)">
      <use xlink:href="#DejaVuSans-113"/>
      <use x="63.476562" xlink:href="#DejaVuSans-117"/>
      <use x="126.855469" xlink:href="#DejaVuSans-101"/>
      <use x="188.378906" xlink:href="#DejaVuSans-115"/>
      <use x="240.478516" xlink:href="#DejaVuSans-116"/>
      <use x="279.6875" xlink:href="#DejaVuSans-105"/>
      <use x="307.470703" xlink:href="#DejaVuSans-111"/>
      <use x="368.652344" xlink:href="#DejaVuSans-110"/>
     </g>
    </g>
   </g>
   <g id="text_43">
    <g clip-path="url(#p75407ff79a)">
     <!-- chiefly -->
     <defs>
      <path d="M 37.109375 75.984375 
L 37.109375 68.5 
L 28.515625 68.5 
Q 23.6875 68.5 21.796875 66.546875 
Q 19.921875 64.59375 19.921875 59.515625 
L 19.921875 54.6875 
L 34.71875 54.6875 
L 34.71875 47.703125 
L 19.921875 47.703125 
L 19.921875 0 
L 10.890625 0 
L 10.890625 47.703125 
L 2.296875 47.703125 
L 2.296875 54.6875 
L 10.890625 54.6875 
L 10.890625 58.5 
Q 10.890625 67.625 15.140625 71.796875 
Q 19.390625 75.984375 28.609375 75.984375 
z
" id="DejaVuSans-102"/>
      <path d="M 32.171875 -5.078125 
Q 28.375 -14.84375 24.75 -17.8125 
Q 21.140625 -20.796875 15.09375 -20.796875 
L 7.90625 -20.796875 
L 7.90625 -13.28125 
L 13.1875 -13.28125 
Q 16.890625 -13.28125 18.9375 -11.515625 
Q 21 -9.765625 23.484375 -3.21875 
L 25.09375 0.875 
L 2.984375 54.6875 
L 12.5 54.6875 
L 29.59375 11.921875 
L 46.6875 54.6875 
L 56.203125 54.6875 
z
" id="DejaVuSans-121"/>
     </defs>
     <g transform="translate(462.016322 358.019698)scale(0.1 -0.1)">
      <use xlink:href="#DejaVuSans-99"/>
      <use x="54.980469" xlink:href="#DejaVuSans-104"/>
      <use x="118.359375" xlink:href="#DejaVuSans-105"/>
      <use x="146.142578" xlink:href="#DejaVuSans-101"/>
      <use x="207.666016" xlink:href="#DejaVuSans-102"/>
      <use x="242.871094" xlink:href="#DejaVuSans-108"/>
      <use x="270.654297" xlink:href="#DejaVuSans-121"/>
     </g>
    </g>
   </g>
   <g id="text_44">
    <g clip-path="url(#p75407ff79a)">
     <!-- from -->
     <g transform="translate(516.301496 358.019698)scale(0.1 -0.1)">
      <use xlink:href="#DejaVuSans-102"/>
      <use x="35.205078" xlink:href="#DejaVuSans-114"/>
      <use x="76.287109" xlink:href="#DejaVuSans-111"/>
      <use x="137.46875" xlink:href="#DejaVuSans-109"/>
     </g>
    </g>
   </g>
   <g id="text_45">
    <g clip-path="url(#p75407ff79a)">
     <!-- this -->
     <g transform="translate(568.459327 358.019698)scale(0.1 -0.1)">
      <use xlink:href="#DejaVuSans-116"/>
      <use x="39.208984" xlink:href="#DejaVuSans-104"/>
      <use x="102.587891" xlink:href="#DejaVuSans-105"/>
      <use x="130.371094" xlink:href="#DejaVuSans-115"/>
     </g>
    </g>
   </g>
   <g id="text_46">
    <g clip-path="url(#p75407ff79a)">
     <!-- viewpoint -->
     <defs>
      <path d="M 2.984375 54.6875 
L 12.5 54.6875 
L 29.59375 8.796875 
L 46.6875 54.6875 
L 56.203125 54.6875 
L 35.6875 0 
L 23.484375 0 
z
" id="DejaVuSans-118"/>
     </defs>
     <g transform="translate(602.853095 358.019698)scale(0.1 -0.1)">
      <use xlink:href="#DejaVuSans-118"/>
      <use x="59.179688" xlink:href="#DejaVuSans-105"/>
      <use x="86.962891" xlink:href="#DejaVuSans-101"/>
      <use x="148.486328" xlink:href="#DejaVuSans-119"/>
      <use x="230.273438" xlink:href="#DejaVuSans-112"/>
      <use x="293.75" xlink:href="#DejaVuSans-111"/>
      <use x="354.931641" xlink:href="#DejaVuSans-105"/>
      <use x="382.714844" xlink:href="#DejaVuSans-110"/>
      <use x="446.09375" xlink:href="#DejaVuSans-116"/>
     </g>
    </g>
   </g>
   <g id="text_47">
    <g clip-path="url(#p75407ff79a)">
     <!-- . -->
     <defs>
      <path d="M 10.6875 12.40625 
L 21 12.40625 
L 21 0 
L 10.6875 0 
z
" id="DejaVuSans-46"/>
     </defs>
     <g transform="translate(675.066395 358.019698)scale(0.1 -0.1)">
      <use xlink:href="#DejaVuSans-46"/>
     </g>
    </g>
   </g>
   <g id="text_48">
    <g clip-path="url(#p75407ff79a)">
     <!-- 1.1 -->
     <defs>
      <path d="M 12.40625 8.296875 
L 28.515625 8.296875 
L 28.515625 63.921875 
L 10.984375 60.40625 
L 10.984375 69.390625 
L 28.421875 72.90625 
L 38.28125 72.90625 
L 38.28125 8.296875 
L 54.390625 8.296875 
L 54.390625 0 
L 12.40625 0 
z
" id="DejaVuSans-49"/>
     </defs>
     <g transform="translate(366.529799 20.832386)scale(0.1 -0.1)">
      <use xlink:href="#DejaVuSans-49"/>
      <use x="63.623047" xlink:href="#DejaVuSans-46"/>
      <use x="95.410156" xlink:href="#DejaVuSans-49"/>
     </g>
    </g>
   </g>
   <g id="text_49">
    <g clip-path="url(#p75407ff79a)">
     <!-- 1.2 -->
     <defs>
      <path d="M 19.1875 8.296875 
L 53.609375 8.296875 
L 53.609375 0 
L 7.328125 0 
L 7.328125 8.296875 
Q 12.9375 14.109375 22.625 23.890625 
Q 32.328125 33.6875 34.8125 36.53125 
Q 39.546875 41.84375 41.421875 45.53125 
Q 43.3125 49.21875 43.3125 52.78125 
Q 43.3125 58.59375 39.234375 62.25 
Q 35.15625 65.921875 28.609375 65.921875 
Q 23.96875 65.921875 18.8125 64.3125 
Q 13.671875 62.703125 7.8125 59.421875 
L 7.8125 69.390625 
Q 13.765625 71.78125 18.9375 73 
Q 24.125 74.21875 28.421875 74.21875 
Q 39.75 74.21875 46.484375 68.546875 
Q 53.21875 62.890625 53.21875 53.421875 
Q 53.21875 48.921875 51.53125 44.890625 
Q 49.859375 40.875 45.40625 35.40625 
Q 44.1875 33.984375 37.640625 27.21875 
Q 31.109375 20.453125 19.1875 8.296875 
z
" id="DejaVuSans-50"/>
     </defs>
     <g transform="translate(366.529799 90.655655)scale(0.1 -0.1)">
      <use xlink:href="#DejaVuSans-49"/>
      <use x="63.623047" xlink:href="#DejaVuSans-46"/>
      <use x="95.410156" xlink:href="#DejaVuSans-50"/>
     </g>
    </g>
   </g>
   <g id="text_50">
    <g clip-path="url(#p75407ff79a)">
     <!-- 1.4 -->
     <defs>
      <path d="M 37.796875 64.3125 
L 12.890625 25.390625 
L 37.796875 25.390625 
z
M 35.203125 72.90625 
L 47.609375 72.90625 
L 47.609375 25.390625 
L 58.015625 25.390625 
L 58.015625 17.1875 
L 47.609375 17.1875 
L 47.609375 0 
L 37.796875 0 
L 37.796875 17.1875 
L 4.890625 17.1875 
L 4.890625 26.703125 
z
" id="DejaVuSans-52"/>
     </defs>
     <g transform="translate(123.799788 158.923428)scale(0.1 -0.1)">
      <use xlink:href="#DejaVuSans-49"/>
      <use x="63.623047" xlink:href="#DejaVuSans-46"/>
      <use x="95.410156" xlink:href="#DejaVuSans-52"/>
     </g>
    </g>
   </g>
   <g id="text_51">
    <g clip-path="url(#p75407ff79a)">
     <!-- 1.5 -->
     <defs>
      <path d="M 10.796875 72.90625 
L 49.515625 72.90625 
L 49.515625 64.59375 
L 19.828125 64.59375 
L 19.828125 46.734375 
Q 21.96875 47.46875 24.109375 47.828125 
Q 26.265625 48.1875 28.421875 48.1875 
Q 40.625 48.1875 47.75 41.5 
Q 54.890625 34.8125 54.890625 23.390625 
Q 54.890625 11.625 47.5625 5.09375 
Q 40.234375 -1.421875 26.90625 -1.421875 
Q 22.3125 -1.421875 17.546875 -0.640625 
Q 12.796875 0.140625 7.71875 1.703125 
L 7.71875 11.625 
Q 12.109375 9.234375 16.796875 8.0625 
Q 21.484375 6.890625 26.703125 6.890625 
Q 35.15625 6.890625 40.078125 11.328125 
Q 45.015625 15.765625 45.015625 23.390625 
Q 45.015625 31 40.078125 35.4375 
Q 35.15625 39.890625 26.703125 39.890625 
Q 22.75 39.890625 18.8125 39.015625 
Q 14.890625 38.140625 10.796875 36.28125 
z
" id="DejaVuSans-53"/>
     </defs>
     <g transform="translate(272.409999 291.960593)scale(0.1 -0.1)">
      <use xlink:href="#DejaVuSans-49"/>
      <use x="63.623047" xlink:href="#DejaVuSans-46"/>
      <use x="95.410156" xlink:href="#DejaVuSans-53"/>
     </g>
    </g>
   </g>
   <g id="text_52">
    <g clip-path="url(#p75407ff79a)">
     <!-- 1.6 -->
     <defs>
      <path d="M 33.015625 40.375 
Q 26.375 40.375 22.484375 35.828125 
Q 18.609375 31.296875 18.609375 23.390625 
Q 18.609375 15.53125 22.484375 10.953125 
Q 26.375 6.390625 33.015625 6.390625 
Q 39.65625 6.390625 43.53125 10.953125 
Q 47.40625 15.53125 47.40625 23.390625 
Q 47.40625 31.296875 43.53125 35.828125 
Q 39.65625 40.375 33.015625 40.375 
z
M 52.59375 71.296875 
L 52.59375 62.3125 
Q 48.875 64.0625 45.09375 64.984375 
Q 41.3125 65.921875 37.59375 65.921875 
Q 27.828125 65.921875 22.671875 59.328125 
Q 17.53125 52.734375 16.796875 39.40625 
Q 19.671875 43.65625 24.015625 45.921875 
Q 28.375 48.1875 33.59375 48.1875 
Q 44.578125 48.1875 50.953125 41.515625 
Q 57.328125 34.859375 57.328125 23.390625 
Q 57.328125 12.15625 50.6875 5.359375 
Q 44.046875 -1.421875 33.015625 -1.421875 
Q 20.359375 -1.421875 13.671875 8.265625 
Q 6.984375 17.96875 6.984375 36.375 
Q 6.984375 53.65625 15.1875 63.9375 
Q 23.390625 74.21875 37.203125 74.21875 
Q 40.921875 74.21875 44.703125 73.484375 
Q 48.484375 72.75 52.59375 71.296875 
z
" id="DejaVuSans-54"/>
     </defs>
     <g transform="translate(371.483473 225.901488)scale(0.1 -0.1)">
      <use xlink:href="#DejaVuSans-49"/>
      <use x="63.623047" xlink:href="#DejaVuSans-46"/>
      <use x="95.410156" xlink:href="#DejaVuSans-54"/>
     </g>
    </g>
   </g>
   <g id="text_53">
    <g clip-path="url(#p75407ff79a)">
     <!-- 1.7 -->
     <defs>
      <path d="M 8.203125 72.90625 
L 55.078125 72.90625 
L 55.078125 68.703125 
L 28.609375 0 
L 18.3125 0 
L 43.21875 64.59375 
L 8.203125 64.59375 
z
" id="DejaVuSans-55"/>
     </defs>
     <g transform="translate(470.556947 291.960593)scale(0.1 -0.1)">
      <use xlink:href="#DejaVuSans-49"/>
      <use x="63.623047" xlink:href="#DejaVuSans-46"/>
      <use x="95.410156" xlink:href="#DejaVuSans-55"/>
     </g>
    </g>
   </g>
   <g id="text_54">
    <g clip-path="url(#p75407ff79a)">
     <!-- 1.8 -->
     <defs>
      <path d="M 31.78125 34.625 
Q 24.75 34.625 20.71875 30.859375 
Q 16.703125 27.09375 16.703125 20.515625 
Q 16.703125 13.921875 20.71875 10.15625 
Q 24.75 6.390625 31.78125 6.390625 
Q 38.8125 6.390625 42.859375 10.171875 
Q 46.921875 13.96875 46.921875 20.515625 
Q 46.921875 27.09375 42.890625 30.859375 
Q 38.875 34.625 31.78125 34.625 
z
M 21.921875 38.8125 
Q 15.578125 40.375 12.03125 44.71875 
Q 8.5 49.078125 8.5 55.328125 
Q 8.5 64.0625 14.71875 69.140625 
Q 20.953125 74.21875 31.78125 74.21875 
Q 42.671875 74.21875 48.875 69.140625 
Q 55.078125 64.0625 55.078125 55.328125 
Q 55.078125 49.078125 51.53125 44.71875 
Q 48 40.375 41.703125 38.8125 
Q 48.828125 37.15625 52.796875 32.3125 
Q 56.78125 27.484375 56.78125 20.515625 
Q 56.78125 9.90625 50.3125 4.234375 
Q 43.84375 -1.421875 31.78125 -1.421875 
Q 19.734375 -1.421875 13.25 4.234375 
Q 6.78125 9.90625 6.78125 20.515625 
Q 6.78125 27.484375 10.78125 32.3125 
Q 14.796875 37.15625 21.921875 38.8125 
z
M 18.3125 54.390625 
Q 18.3125 48.734375 21.84375 45.5625 
Q 25.390625 42.390625 31.78125 42.390625 
Q 38.140625 42.390625 41.71875 45.5625 
Q 45.3125 48.734375 45.3125 54.390625 
Q 45.3125 60.0625 41.71875 63.234375 
Q 38.140625 66.40625 31.78125 66.40625 
Q 25.390625 66.40625 21.84375 63.234375 
Q 18.3125 60.0625 18.3125 54.390625 
z
" id="DejaVuSans-56"/>
     </defs>
     <g transform="translate(594.398789 225.901488)scale(0.1 -0.1)">
      <use xlink:href="#DejaVuSans-49"/>
      <use x="63.623047" xlink:href="#DejaVuSans-46"/>
      <use x="95.410156" xlink:href="#DejaVuSans-56"/>
     </g>
    </g>
   </g>
   <g id="text_55">
    <g clip-path="url(#p75407ff79a)">
     <!-- 1.9 -->
     <defs>
      <path d="M 10.984375 1.515625 
L 10.984375 10.5 
Q 14.703125 8.734375 18.5 7.8125 
Q 22.3125 6.890625 25.984375 6.890625 
Q 35.75 6.890625 40.890625 13.453125 
Q 46.046875 20.015625 46.78125 33.40625 
Q 43.953125 29.203125 39.59375 26.953125 
Q 35.25 24.703125 29.984375 24.703125 
Q 19.046875 24.703125 12.671875 31.3125 
Q 6.296875 37.9375 6.296875 49.421875 
Q 6.296875 60.640625 12.9375 67.421875 
Q 19.578125 74.21875 30.609375 74.21875 
Q 43.265625 74.21875 49.921875 64.515625 
Q 56.59375 54.828125 56.59375 36.375 
Q 56.59375 19.140625 48.40625 8.859375 
Q 40.234375 -1.421875 26.421875 -1.421875 
Q 22.703125 -1.421875 18.890625 -0.6875 
Q 15.09375 0.046875 10.984375 1.515625 
z
M 30.609375 32.421875 
Q 37.25 32.421875 41.125 36.953125 
Q 45.015625 41.5 45.015625 49.421875 
Q 45.015625 57.28125 41.125 61.84375 
Q 37.25 66.40625 30.609375 66.40625 
Q 23.96875 66.40625 20.09375 61.84375 
Q 16.21875 57.28125 16.21875 49.421875 
Q 16.21875 41.5 20.09375 36.953125 
Q 23.96875 32.421875 30.609375 32.421875 
z
" id="DejaVuSans-57"/>
     </defs>
     <g transform="translate(520.093684 291.960593)scale(0.1 -0.1)">
      <use xlink:href="#DejaVuSans-49"/>
      <use x="63.623047" xlink:href="#DejaVuSans-46"/>
      <use x="95.410156" xlink:href="#DejaVuSans-57"/>
     </g>
    </g>
   </g>
   <g id="text_56">
    <g clip-path="url(#p75407ff79a)">
     <!-- 1.10 -->
     <defs>
      <path d="M 31.78125 66.40625 
Q 24.171875 66.40625 20.328125 58.90625 
Q 16.5 51.421875 16.5 36.375 
Q 16.5 21.390625 20.328125 13.890625 
Q 24.171875 6.390625 31.78125 6.390625 
Q 39.453125 6.390625 43.28125 13.890625 
Q 47.125 21.390625 47.125 36.375 
Q 47.125 51.421875 43.28125 58.90625 
Q 39.453125 66.40625 31.78125 66.40625 
z
M 31.78125 74.21875 
Q 44.046875 74.21875 50.515625 64.515625 
Q 56.984375 54.828125 56.984375 36.375 
Q 56.984375 17.96875 50.515625 8.265625 
Q 44.046875 -1.421875 31.78125 -1.421875 
Q 19.53125 -1.421875 13.0625 8.265625 
Q 6.59375 17.96875 6.59375 36.375 
Q 6.59375 54.828125 13.0625 64.515625 
Q 19.53125 74.21875 31.78125 74.21875 
z
" id="DejaVuSans-48"/>
     </defs>
     <g transform="translate(566.449171 291.960593)scale(0.1 -0.1)">
      <use xlink:href="#DejaVuSans-49"/>
      <use x="63.623047" xlink:href="#DejaVuSans-46"/>
      <use x="95.410156" xlink:href="#DejaVuSans-49"/>
      <use x="159.033203" xlink:href="#DejaVuSans-48"/>
     </g>
    </g>
   </g>
   <g id="text_57">
    <g clip-path="url(#p75407ff79a)">
     <!-- 1.11 -->
     <g transform="translate(615.985908 291.960593)scale(0.1 -0.1)">
      <use xlink:href="#DejaVuSans-49"/>
      <use x="63.623047" xlink:href="#DejaVuSans-46"/>
      <use x="95.410156" xlink:href="#DejaVuSans-49"/>
      <use x="159.033203" xlink:href="#DejaVuSans-49"/>
     </g>
    </g>
   </g>
   <g id="text_58">
    <g clip-path="url(#p75407ff79a)">
     <!-- 1.12 -->
     <g transform="translate(318.765486 291.960593)scale(0.1 -0.1)">
      <use xlink:href="#DejaVuSans-49"/>
      <use x="63.623047" xlink:href="#DejaVuSans-46"/>
      <use x="95.410156" xlink:href="#DejaVuSans-49"/>
      <use x="159.033203" xlink:href="#DejaVuSans-50"/>
     </g>
    </g>
   </g>
   <g id="text_59">
    <g clip-path="url(#p75407ff79a)">
     <!-- 1.13 -->
     <defs>
      <path d="M 40.578125 39.3125 
Q 47.65625 37.796875 51.625 33 
Q 55.609375 28.21875 55.609375 21.1875 
Q 55.609375 10.40625 48.1875 4.484375 
Q 40.765625 -1.421875 27.09375 -1.421875 
Q 22.515625 -1.421875 17.65625 -0.515625 
Q 12.796875 0.390625 7.625 2.203125 
L 7.625 11.71875 
Q 11.71875 9.328125 16.59375 8.109375 
Q 21.484375 6.890625 26.8125 6.890625 
Q 36.078125 6.890625 40.9375 10.546875 
Q 45.796875 14.203125 45.796875 21.1875 
Q 45.796875 27.640625 41.28125 31.265625 
Q 36.765625 34.90625 28.71875 34.90625 
L 20.21875 34.90625 
L 20.21875 43.015625 
L 29.109375 43.015625 
Q 36.375 43.015625 40.234375 45.921875 
Q 44.09375 48.828125 44.09375 54.296875 
Q 44.09375 59.90625 40.109375 62.90625 
Q 36.140625 65.921875 28.71875 65.921875 
Q 24.65625 65.921875 20.015625 65.03125 
Q 15.375 64.15625 9.8125 62.3125 
L 9.8125 71.09375 
Q 15.4375 72.65625 20.34375 73.4375 
Q 25.25 74.21875 29.59375 74.21875 
Q 40.828125 74.21875 47.359375 69.109375 
Q 53.90625 64.015625 53.90625 55.328125 
Q 53.90625 49.265625 50.4375 45.09375 
Q 46.96875 40.921875 40.578125 39.3125 
z
" id="DejaVuSans-51"/>
     </defs>
     <g transform="translate(368.302223 291.960593)scale(0.1 -0.1)">
      <use xlink:href="#DejaVuSans-49"/>
      <use x="63.623047" xlink:href="#DejaVuSans-46"/>
      <use x="95.410156" xlink:href="#DejaVuSans-49"/>
      <use x="159.033203" xlink:href="#DejaVuSans-51"/>
     </g>
    </g>
   </g>
   <g id="text_60">
    <g clip-path="url(#p75407ff79a)">
     <!-- 1.14 -->
     <g transform="translate(417.83896 291.960593)scale(0.1 -0.1)">
      <use xlink:href="#DejaVuSans-49"/>
      <use x="63.623047" xlink:href="#DejaVuSans-46"/>
      <use x="95.410156" xlink:href="#DejaVuSans-49"/>
      <use x="159.033203" xlink:href="#DejaVuSans-52"/>
     </g>
    </g>
   </g>
   <g id="text_61">
    <g clip-path="url(#p75407ff79a)">
     <!-- 1.15 -->
     <g transform="translate(21.545064 291.960593)scale(0.1 -0.1)">
      <use xlink:href="#DejaVuSans-49"/>
      <use x="63.623047" xlink:href="#DejaVuSans-46"/>
      <use x="95.410156" xlink:href="#DejaVuSans-49"/>
      <use x="159.033203" xlink:href="#DejaVuSans-53"/>
     </g>
    </g>
   </g>
   <g id="text_62">
    <g clip-path="url(#p75407ff79a)">
     <!-- 1.16 -->
     <g transform="translate(120.618538 225.901488)scale(0.1 -0.1)">
      <use xlink:href="#DejaVuSans-49"/>
      <use x="63.623047" xlink:href="#DejaVuSans-46"/>
      <use x="95.410156" xlink:href="#DejaVuSans-49"/>
      <use x="159.033203" xlink:href="#DejaVuSans-54"/>
     </g>
    </g>
   </g>
   <g id="text_63">
    <g clip-path="url(#p75407ff79a)">
     <!-- 1.17 -->
     <g transform="translate(219.692012 291.960593)scale(0.1 -0.1)">
      <use xlink:href="#DejaVuSans-49"/>
      <use x="63.623047" xlink:href="#DejaVuSans-46"/>
      <use x="95.410156" xlink:href="#DejaVuSans-49"/>
      <use x="159.033203" xlink:href="#DejaVuSans-55"/>
     </g>
    </g>
   </g>
   <g id="text_64">
    <g clip-path="url(#p75407ff79a)">
     <!-- 1.18 -->
     <g transform="translate(71.081801 291.960593)scale(0.1 -0.1)">
      <use xlink:href="#DejaVuSans-49"/>
      <use x="63.623047" xlink:href="#DejaVuSans-46"/>
      <use x="95.410156" xlink:href="#DejaVuSans-49"/>
      <use x="159.033203" xlink:href="#DejaVuSans-56"/>
     </g>
    </g>
   </g>
   <g id="text_65">
    <g clip-path="url(#p75407ff79a)">
     <!-- 1.19 -->
     <g transform="translate(120.618538 291.960593)scale(0.1 -0.1)">
      <use xlink:href="#DejaVuSans-49"/>
      <use x="63.623047" xlink:href="#DejaVuSans-46"/>
      <use x="95.410156" xlink:href="#DejaVuSans-49"/>
      <use x="159.033203" xlink:href="#DejaVuSans-57"/>
     </g>
    </g>
   </g>
   <g id="text_66">
    <g clip-path="url(#p75407ff79a)">
     <!-- 1.20 -->
     <g transform="translate(170.155275 291.960593)scale(0.1 -0.1)">
      <use xlink:href="#DejaVuSans-49"/>
      <use x="63.623047" xlink:href="#DejaVuSans-46"/>
      <use x="95.410156" xlink:href="#DejaVuSans-50"/>
      <use x="159.033203" xlink:href="#DejaVuSans-48"/>
     </g>
    </g>
   </g>
   <g id="text_67">
    <g clip-path="url(#p75407ff79a)">
     <!-- 1.21 -->
     <g transform="translate(665.522645 291.960593)scale(0.1 -0.1)">
      <use xlink:href="#DejaVuSans-49"/>
      <use x="63.623047" xlink:href="#DejaVuSans-46"/>
      <use x="95.410156" xlink:href="#DejaVuSans-50"/>
      <use x="159.033203" xlink:href="#DejaVuSans-49"/>
     </g>
    </g>
   </g>
  </g>
 </g>
 <defs>
  <clipPath id="p75407ff79a">
   <rect height="373.333333" width="709.333333" x="0" y="0"/>
  </clipPath>
 </defs>
</svg>
