<?xml version="1.0" encoding="utf-8" standalone="no"?>
<!DOCTYPE svg PUBLIC "-//W3C//DTD SVG 1.1//EN"
  "http://www.w3.org/Graphics/SVG/1.1/DTD/svg11.dtd">
<!-- Created with matplotlib (https://matplotlib.org/) -->
<svg height="453.333333pt" version="1.1" viewBox="0 0 861.333333 453.333333" width="861.333333pt" xmlns="http://www.w3.org/2000/svg" xmlns:xlink="http://www.w3.org/1999/xlink">
 <defs>
  <style type="text/css">
*{stroke-linecap:butt;stroke-linejoin:round;}
  </style>
 </defs>
 <g id="figure_1">
  <g id="patch_1">
   <path d="M 0 453.333333 
L 861.333333 453.333333 
L 861.333333 0 
L 0 0 
z
" style="fill:#ffffff;"/>
  </g>
  <g id="axes_1">
   <g id="LineCollection_1">
    <path clip-path="url(#p07fbe5e37d)" d="M 349.490011 21.710642 
L 298.35511 189.585233 
" style="fill:none;stroke:#000000;"/>
    <path clip-path="url(#p07fbe5e37d)" d="M 349.490011 21.710642 
L 526.544606 106.593431 
" style="fill:none;stroke:#000000;"/>
    <path clip-path="url(#p07fbe5e37d)" d="M 349.490011 21.710642 
L 223.570318 351.315924 
" style="fill:none;stroke:#000000;"/>
    <path clip-path="url(#p07fbe5e37d)" d="M 298.35511 189.585233 
L 821.848659 431.622692 
" style="fill:none;stroke:#000000;"/>
    <path clip-path="url(#p07fbe5e37d)" d="M 298.35511 189.585233 
L 62.49538 271.009156 
" style="fill:none;stroke:#000000;"/>
    <path clip-path="url(#p07fbe5e37d)" d="M 298.35511 189.585233 
L 131.527496 351.315924 
" style="fill:none;stroke:#000000;"/>
    <path clip-path="url(#p07fbe5e37d)" d="M 298.35511 189.585233 
L 177.548907 351.315924 
" style="fill:none;stroke:#000000;"/>
    <path clip-path="url(#p07fbe5e37d)" d="M 526.544606 106.593431 
L 330.95361 189.585233 
" style="fill:none;stroke:#000000;"/>
    <path clip-path="url(#p07fbe5e37d)" d="M 526.544606 106.593431 
L 499.698783 351.315924 
" style="fill:none;stroke:#000000;"/>
    <path clip-path="url(#p07fbe5e37d)" d="M 526.544606 106.593431 
L 568.730899 271.009156 
" style="fill:none;stroke:#000000;"/>
    <path clip-path="url(#p07fbe5e37d)" d="M 526.544606 106.593431 
L 706.795132 271.009156 
" style="fill:none;stroke:#000000;"/>
    <path clip-path="url(#p07fbe5e37d)" d="M 330.95361 189.585233 
L 269.591729 351.315924 
" style="fill:none;stroke:#000000;"/>
    <path clip-path="url(#p07fbe5e37d)" d="M 330.95361 189.585233 
L 315.61314 351.315924 
" style="fill:none;stroke:#000000;"/>
    <path clip-path="url(#p07fbe5e37d)" d="M 330.95361 189.585233 
L 407.655961 271.009156 
" style="fill:none;stroke:#000000;"/>
    <path clip-path="url(#p07fbe5e37d)" d="M 499.698783 351.315924 
L 499.698783 431.622692 
" style="fill:none;stroke:#000000;"/>
    <path clip-path="url(#p07fbe5e37d)" d="M 568.730899 271.009156 
L 545.720194 351.315924 
" style="fill:none;stroke:#000000;"/>
    <path clip-path="url(#p07fbe5e37d)" d="M 568.730899 271.009156 
L 591.741605 351.315924 
" style="fill:none;stroke:#000000;"/>
    <path clip-path="url(#p07fbe5e37d)" d="M 706.795132 271.009156 
L 637.763016 351.315924 
" style="fill:none;stroke:#000000;"/>
    <path clip-path="url(#p07fbe5e37d)" d="M 706.795132 271.009156 
L 683.784426 351.315924 
" style="fill:none;stroke:#000000;"/>
    <path clip-path="url(#p07fbe5e37d)" d="M 706.795132 271.009156 
L 729.805837 351.315924 
" style="fill:none;stroke:#000000;"/>
    <path clip-path="url(#p07fbe5e37d)" d="M 706.795132 271.009156 
L 775.827248 351.315924 
" style="fill:none;stroke:#000000;"/>
    <path clip-path="url(#p07fbe5e37d)" d="M 637.763016 351.315924 
L 637.763016 431.622692 
" style="fill:none;stroke:#000000;"/>
    <path clip-path="url(#p07fbe5e37d)" d="M 683.784426 351.315924 
L 683.784426 431.622692 
" style="fill:none;stroke:#000000;"/>
    <path clip-path="url(#p07fbe5e37d)" d="M 729.805837 351.315924 
L 729.805837 431.622692 
" style="fill:none;stroke:#000000;"/>
    <path clip-path="url(#p07fbe5e37d)" d="M 545.720194 351.315924 
L 545.720194 431.622692 
" style="fill:none;stroke:#000000;"/>
    <path clip-path="url(#p07fbe5e37d)" d="M 591.741605 351.315924 
L 591.741605 431.622692 
" style="fill:none;stroke:#000000;"/>
    <path clip-path="url(#p07fbe5e37d)" d="M 269.591729 351.315924 
L 269.591729 431.622692 
" style="fill:none;stroke:#000000;"/>
    <path clip-path="url(#p07fbe5e37d)" d="M 315.61314 351.315924 
L 315.61314 431.622692 
" style="fill:none;stroke:#000000;"/>
    <path clip-path="url(#p07fbe5e37d)" d="M 407.655961 271.009156 
L 361.63455 351.315924 
" style="fill:none;stroke:#000000;"/>
    <path clip-path="url(#p07fbe5e37d)" d="M 407.655961 271.009156 
L 407.655961 351.315924 
" style="fill:none;stroke:#000000;"/>
    <path clip-path="url(#p07fbe5e37d)" d="M 407.655961 271.009156 
L 453.677372 351.315924 
" style="fill:none;stroke:#000000;"/>
    <path clip-path="url(#p07fbe5e37d)" d="M 361.63455 351.315924 
L 361.63455 431.622692 
" style="fill:none;stroke:#000000;"/>
    <path clip-path="url(#p07fbe5e37d)" d="M 407.655961 351.315924 
L 407.655961 431.622692 
" style="fill:none;stroke:#000000;"/>
    <path clip-path="url(#p07fbe5e37d)" d="M 453.677372 351.315924 
L 453.677372 431.622692 
" style="fill:none;stroke:#000000;"/>
    <path clip-path="url(#p07fbe5e37d)" d="M 62.49538 271.009156 
L 39.484674 351.315924 
" style="fill:none;stroke:#000000;"/>
    <path clip-path="url(#p07fbe5e37d)" d="M 62.49538 271.009156 
L 85.506085 351.315924 
" style="fill:none;stroke:#000000;"/>
    <path clip-path="url(#p07fbe5e37d)" d="M 131.527496 351.315924 
L 131.527496 431.622692 
" style="fill:none;stroke:#000000;"/>
    <path clip-path="url(#p07fbe5e37d)" d="M 177.548907 351.315924 
L 177.548907 431.622692 
" style="fill:none;stroke:#000000;"/>
    <path clip-path="url(#p07fbe5e37d)" d="M 39.484674 351.315924 
L 39.484674 431.622692 
" style="fill:none;stroke:#000000;"/>
    <path clip-path="url(#p07fbe5e37d)" d="M 85.506085 351.315924 
L 85.506085 431.622692 
" style="fill:none;stroke:#000000;"/>
    <path clip-path="url(#p07fbe5e37d)" d="M 223.570318 351.315924 
L 223.570318 431.622692 
" style="fill:none;stroke:#000000;"/>
    <path clip-path="url(#p07fbe5e37d)" d="M 775.827248 351.315924 
L 775.827248 431.622692 
" style="fill:none;stroke:#000000;"/>
   </g>
   <g id="text_1">
    <g id="patch_2">
     <path clip-path="url(#p07fbe5e37d)" d="M 329.045158 110.35287 
L 330.798197 104.597688 
Q 331.497518 102.301833 329.201663 101.602512 
L 321.79514 99.346472 
Q 319.499285 98.64715 318.799964 100.943005 
L 317.046925 106.698187 
Q 316.347604 108.994042 318.643458 109.693363 
L 326.049982 111.949403 
Q 328.345837 112.648725 329.045158 110.35287 
z
" style="fill:#ffffff;stroke:#ffffff;stroke-linejoin:miter;"/>
    </g>
    <g clip-path="url(#p07fbe5e37d)">
     <!-- H -->
     <defs>
      <path d="M 9.8125 72.90625 
L 19.671875 72.90625 
L 19.671875 43.015625 
L 55.515625 43.015625 
L 55.515625 72.90625 
L 65.375 72.90625 
L 65.375 0 
L 55.515625 0 
L 55.515625 34.71875 
L 19.671875 34.71875 
L 19.671875 0 
L 9.8125 0 
z
" id="DejaVuSans-72"/>
     </defs>
     <g transform="translate(325.15775 109.168759)rotate(-73.05917)scale(0.08 -0.08)">
      <use xlink:href="#DejaVuSans-72"/>
     </g>
    </g>
   </g>
   <g id="text_2">
    <g id="patch_3">
     <path clip-path="url(#p07fbe5e37d)" d="M 432.593717 68.506579 
L 438.018741 71.107422 
Q 440.182889 72.144949 441.220416 69.980801 
L 444.567522 62.999169 
Q 445.605049 60.83502 443.4409 59.797493 
L 438.015877 57.196651 
Q 435.851729 56.159124 434.814201 58.323272 
L 431.467096 65.304904 
Q 430.429569 67.469052 432.593717 68.506579 
z
" style="fill:#ffffff;stroke:#ffffff;stroke-linejoin:miter;"/>
    </g>
    <g clip-path="url(#p07fbe5e37d)">
     <!-- H -->
     <g transform="translate(434.350488 64.842181)rotate(-334.3862)scale(0.08 -0.08)">
      <use xlink:href="#DejaVuSans-72"/>
     </g>
    </g>
   </g>
   <g id="text_3">
    <g id="patch_4">
     <path clip-path="url(#p07fbe5e37d)" d="M 291.343711 191.486069 
L 293.433218 186.01661 
Q 294.28972 183.774646 292.047755 182.918144 
L 284.815084 180.155034 
Q 282.57312 179.298532 281.716618 181.540496 
L 279.627111 187.009956 
Q 278.770609 189.25192 281.012574 190.108422 
L 288.245245 192.871532 
Q 290.487209 193.728034 291.343711 191.486069 
z
" style="fill:#ffffff;stroke:#ffffff;stroke-linejoin:miter;"/>
    </g>
    <g clip-path="url(#p07fbe5e37d)">
     <!-- U -->
     <defs>
      <path d="M 8.6875 72.90625 
L 18.609375 72.90625 
L 18.609375 28.609375 
Q 18.609375 16.890625 22.84375 11.734375 
Q 27.09375 6.59375 36.625 6.59375 
Q 46.09375 6.59375 50.34375 11.734375 
Q 54.59375 16.890625 54.59375 28.609375 
L 54.59375 72.90625 
L 64.5 72.90625 
L 64.5 27.390625 
Q 64.5 13.140625 57.4375 5.859375 
Q 50.390625 -1.421875 36.625 -1.421875 
Q 22.796875 -1.421875 15.734375 5.859375 
Q 8.6875 13.140625 8.6875 27.390625 
z
" id="DejaVuSans-85"/>
     </defs>
     <g transform="translate(287.547551 190.035816)rotate(-69.091554)scale(0.08 -0.08)">
      <use xlink:href="#DejaVuSans-85"/>
     </g>
    </g>
   </g>
   <g id="text_4">
    <g id="patch_5">
     <path clip-path="url(#p07fbe5e37d)" d="M 554.98642 315.147933 
L 559.953693 317.444553 
Q 562.132122 318.451751 563.139319 316.273322 
L 566.38858 309.245619 
Q 567.395778 307.06719 565.217349 306.059992 
L 560.250077 303.763372 
Q 558.071648 302.756174 557.06445 304.934603 
L 553.815189 311.962306 
Q 552.807991 314.140735 554.98642 315.147933 
z
" style="fill:#ffffff;stroke:#ffffff;stroke-linejoin:miter;"/>
    </g>
    <g clip-path="url(#p07fbe5e37d)">
     <!-- A -->
     <defs>
      <path d="M 34.1875 63.1875 
L 20.796875 26.90625 
L 47.609375 26.90625 
z
M 28.609375 72.90625 
L 39.796875 72.90625 
L 67.578125 0 
L 57.328125 0 
L 50.6875 18.703125 
L 17.828125 18.703125 
L 11.1875 0 
L 0.78125 0 
z
" id="DejaVuSans-65"/>
     </defs>
     <g transform="translate(556.691837 311.459353)rotate(-335.186519)scale(0.08 -0.08)">
      <use xlink:href="#DejaVuSans-65"/>
     </g>
    </g>
   </g>
   <g id="text_5">
    <g id="patch_6">
     <path clip-path="url(#p07fbe5e37d)" d="M 179.88524 237.118048 
L 185.058165 235.332241 
Q 187.326784 234.549064 186.543608 232.280445 
L 184.017046 224.961784 
Q 183.233869 222.693165 180.96525 223.476342 
L 175.792325 225.262148 
Q 173.523706 226.045325 174.306883 228.313945 
L 176.833444 235.632605 
Q 177.616621 237.901225 179.88524 237.118048 
z
" style="fill:#ffffff;stroke:#ffffff;stroke-linejoin:miter;"/>
    </g>
    <g clip-path="url(#p07fbe5e37d)">
     <!-- A -->
     <g transform="translate(178.559142 233.276755)rotate(-19.045791)scale(0.08 -0.08)">
      <use xlink:href="#DejaVuSans-65"/>
     </g>
    </g>
   </g>
   <g id="text_6">
    <g id="patch_7">
     <path clip-path="url(#p07fbe5e37d)" d="M 217.654605 276.55463 
L 220.958255 273.351913 
Q 222.68143 271.681384 221.010902 269.958209 
L 215.621706 264.399173 
Q 213.951177 262.675998 212.228002 264.346527 
L 208.924351 267.549244 
Q 207.201176 269.219773 208.871705 270.942948 
L 214.260901 276.501984 
Q 215.931429 278.225159 217.654605 276.55463 
z
" style="fill:#ffffff;stroke:#ffffff;stroke-linejoin:miter;"/>
    </g>
    <g clip-path="url(#p07fbe5e37d)">
     <!-- F -->
     <defs>
      <path d="M 9.8125 72.90625 
L 51.703125 72.90625 
L 51.703125 64.59375 
L 19.671875 64.59375 
L 19.671875 43.109375 
L 48.578125 43.109375 
L 48.578125 34.8125 
L 19.671875 34.8125 
L 19.671875 0 
L 9.8125 0 
z
" id="DejaVuSans-70"/>
     </defs>
     <g transform="translate(214.826017 273.636899)rotate(-44.111242)scale(0.08 -0.08)">
      <use xlink:href="#DejaVuSans-70"/>
     </g>
    </g>
   </g>
   <g id="text_7">
    <g id="patch_8">
     <path clip-path="url(#p07fbe5e37d)" d="M 241.532971 276.13586 
L 244.419694 272.271226 
Q 245.85595 270.348423 243.933147 268.912168 
L 237.730104 264.278749 
Q 235.807301 262.842494 234.371046 264.765297 
L 231.484323 268.629931 
Q 230.048068 270.552734 231.970871 271.988989 
L 238.173913 276.622408 
Q 240.096716 278.058663 241.532971 276.13586 
z
" style="fill:#ffffff;stroke:#ffffff;stroke-linejoin:miter;"/>
    </g>
    <g clip-path="url(#p07fbe5e37d)">
     <!-- P -->
     <defs>
      <path d="M 19.671875 64.796875 
L 19.671875 37.40625 
L 32.078125 37.40625 
Q 38.96875 37.40625 42.71875 40.96875 
Q 46.484375 44.53125 46.484375 51.125 
Q 46.484375 57.671875 42.71875 61.234375 
Q 38.96875 64.796875 32.078125 64.796875 
z
M 9.8125 72.90625 
L 32.078125 72.90625 
Q 44.34375 72.90625 50.609375 67.359375 
Q 56.890625 61.8125 56.890625 51.125 
Q 56.890625 40.328125 50.609375 34.8125 
Q 44.34375 29.296875 32.078125 29.296875 
L 19.671875 29.296875 
L 19.671875 0 
L 9.8125 0 
z
" id="DejaVuSans-80"/>
     </defs>
     <g transform="translate(238.277225 273.703951)rotate(-53.241775)scale(0.08 -0.08)">
      <use xlink:href="#DejaVuSans-80"/>
     </g>
    </g>
   </g>
   <g id="text_8">
    <g id="patch_9">
     <path clip-path="url(#p07fbe5e37d)" d="M 428.679811 154.931177 
L 433.717567 152.793591 
Q 435.926907 151.85614 434.989455 149.646799 
L 431.965197 142.519376 
Q 431.027745 140.310036 428.818405 141.247487 
L 423.780649 143.385073 
Q 421.571309 144.322525 422.50876 146.531865 
L 425.533019 153.659288 
Q 426.470471 155.868629 428.679811 154.931177 
z
" style="fill:#ffffff;stroke:#ffffff;stroke-linejoin:miter;"/>
    </g>
    <g clip-path="url(#p07fbe5e37d)">
     <!-- A -->
     <g transform="translate(427.09249 151.190257)rotate(-22.992144)scale(0.08 -0.08)">
      <use xlink:href="#DejaVuSans-65"/>
     </g>
    </g>
   </g>
   <g id="text_9">
    <g id="patch_10">
     <path clip-path="url(#p07fbe5e37d)" d="M 519.104677 231.925431 
L 519.606419 227.351619 
Q 519.868127 224.965931 517.482439 224.704223 
L 509.786109 223.859943 
Q 507.40042 223.598235 507.138712 225.983924 
L 506.63697 230.557736 
Q 506.375262 232.943424 508.76095 233.205132 
L 516.45728 234.049412 
Q 518.842969 234.31112 519.104677 231.925431 
z
" style="fill:#ffffff;stroke:#ffffff;stroke-linejoin:miter;"/>
    </g>
    <g clip-path="url(#p07fbe5e37d)">
     <!-- F -->
     <g transform="translate(515.065159 231.4823)rotate(-83.73974)scale(0.08 -0.08)">
      <use xlink:href="#DejaVuSans-70"/>
     </g>
    </g>
   </g>
   <g id="text_10">
    <g id="patch_11">
     <path clip-path="url(#p07fbe5e37d)" d="M 540.932155 187.900204 
L 542.194389 192.819601 
Q 542.790867 195.144298 545.115563 194.54782 
L 552.615131 192.623558 
Q 554.939828 192.02708 554.34335 189.702383 
L 553.081116 184.782986 
Q 552.484638 182.45829 550.159942 183.054767 
L 542.660374 184.97903 
Q 540.335677 185.575508 540.932155 187.900204 
z
" style="fill:#ffffff;stroke:#ffffff;stroke-linejoin:miter;"/>
    </g>
    <g clip-path="url(#p07fbe5e37d)">
     <!-- S -->
     <defs>
      <path d="M 53.515625 70.515625 
L 53.515625 60.890625 
Q 47.90625 63.578125 42.921875 64.890625 
Q 37.9375 66.21875 33.296875 66.21875 
Q 25.25 66.21875 20.875 63.09375 
Q 16.5 59.96875 16.5 54.203125 
Q 16.5 49.359375 19.40625 46.890625 
Q 22.3125 44.4375 30.421875 42.921875 
L 36.375 41.703125 
Q 47.40625 39.59375 52.65625 34.296875 
Q 57.90625 29 57.90625 20.125 
Q 57.90625 9.515625 50.796875 4.046875 
Q 43.703125 -1.421875 29.984375 -1.421875 
Q 24.8125 -1.421875 18.96875 -0.25 
Q 13.140625 0.921875 6.890625 3.21875 
L 6.890625 13.375 
Q 12.890625 10.015625 18.65625 8.296875 
Q 24.421875 6.59375 29.984375 6.59375 
Q 38.421875 6.59375 43.015625 9.90625 
Q 47.609375 13.234375 47.609375 19.390625 
Q 47.609375 24.75 44.3125 27.78125 
Q 41.015625 30.8125 33.5 32.328125 
L 27.484375 33.5 
Q 16.453125 35.6875 11.515625 40.375 
Q 6.59375 45.0625 6.59375 53.421875 
Q 6.59375 63.09375 13.40625 68.65625 
Q 20.21875 74.21875 32.171875 74.21875 
Q 37.3125 74.21875 42.625 73.28125 
Q 47.953125 72.359375 53.515625 70.515625 
z
" id="DejaVuSans-83"/>
     </defs>
     <g transform="translate(544.868399 186.89023)rotate(-284.390685)scale(0.08 -0.08)">
      <use xlink:href="#DejaVuSans-83"/>
     </g>
    </g>
   </g>
   <g id="text_11">
    <g id="patch_12">
     <path clip-path="url(#p07fbe5e37d)" d="M 610.422033 191.590593 
L 614.465191 195.278564 
Q 616.238344 196.895948 617.855728 195.122795 
L 623.073474 189.40253 
Q 624.690857 187.629377 622.917704 186.011994 
L 618.874546 182.324023 
Q 617.101394 180.706639 615.48401 182.479792 
L 610.266264 188.200057 
Q 608.648881 189.97321 610.422033 191.590593 
z
" style="fill:#ffffff;stroke:#ffffff;stroke-linejoin:miter;"/>
    </g>
    <g clip-path="url(#p07fbe5e37d)">
     <!-- A -->
     <g transform="translate(613.160634 188.588239)rotate(-317.630457)scale(0.08 -0.08)">
      <use xlink:href="#DejaVuSans-65"/>
     </g>
    </g>
   </g>
   <g id="text_12">
    <g id="patch_13">
     <path clip-path="url(#p07fbe5e37d)" d="M 305.239493 275.038333 
L 307.032673 270.312073 
Q 307.884034 268.068152 305.640113 267.216791 
L 298.401128 264.470264 
Q 296.157207 263.618902 295.305845 265.862824 
L 293.512666 270.589084 
Q 292.661304 272.833005 294.905226 273.684367 
L 302.14421 276.430894 
Q 304.388132 277.282255 305.239493 275.038333 
z
" style="fill:#ffffff;stroke:#ffffff;stroke-linejoin:miter;"/>
    </g>
    <g clip-path="url(#p07fbe5e37d)">
     <!-- E -->
     <defs>
      <path d="M 9.8125 72.90625 
L 55.90625 72.90625 
L 55.90625 64.59375 
L 19.671875 64.59375 
L 19.671875 43.015625 
L 54.390625 43.015625 
L 54.390625 34.71875 
L 19.671875 34.71875 
L 19.671875 8.296875 
L 56.78125 8.296875 
L 56.78125 0 
L 9.8125 0 
z
" id="DejaVuSans-69"/>
     </defs>
     <g transform="translate(301.44002 273.596783)rotate(-69.222865)scale(0.08 -0.08)">
      <use xlink:href="#DejaVuSans-69"/>
     </g>
    </g>
   </g>
   <g id="text_13">
    <g id="patch_14">
     <path clip-path="url(#p07fbe5e37d)" d="M 329.262853 273.823405 
L 329.790352 268.262116 
Q 330.01698 265.87284 327.627704 265.646213 
L 319.9198 264.915103 
Q 317.530524 264.688476 317.303896 267.077752 
L 316.776397 272.639041 
Q 316.54977 275.028317 318.939046 275.254944 
L 326.64695 275.986054 
Q 329.036226 276.212681 329.262853 273.823405 
z
" style="fill:#ffffff;stroke:#ffffff;stroke-linejoin:miter;"/>
    </g>
    <g clip-path="url(#p07fbe5e37d)">
     <!-- C -->
     <defs>
      <path d="M 64.40625 67.28125 
L 64.40625 56.890625 
Q 59.421875 61.53125 53.78125 63.8125 
Q 48.140625 66.109375 41.796875 66.109375 
Q 29.296875 66.109375 22.65625 58.46875 
Q 16.015625 50.828125 16.015625 36.375 
Q 16.015625 21.96875 22.65625 14.328125 
Q 29.296875 6.6875 41.796875 6.6875 
Q 48.140625 6.6875 53.78125 8.984375 
Q 59.421875 11.28125 64.40625 15.921875 
L 64.40625 5.609375 
Q 59.234375 2.09375 53.4375 0.328125 
Q 47.65625 -1.421875 41.21875 -1.421875 
Q 24.65625 -1.421875 15.125 8.703125 
Q 5.609375 18.84375 5.609375 36.375 
Q 5.609375 53.953125 15.125 64.078125 
Q 24.65625 74.21875 41.21875 74.21875 
Q 47.75 74.21875 53.53125 72.484375 
Q 59.328125 70.75 64.40625 67.28125 
z
" id="DejaVuSans-67"/>
     </defs>
     <g transform="translate(325.217261 273.439673)rotate(-84.581595)scale(0.08 -0.08)">
      <use xlink:href="#DejaVuSans-67"/>
     </g>
    </g>
   </g>
   <g id="text_14">
    <g id="patch_15">
     <path clip-path="url(#p07fbe5e37d)" d="M 363.006892 232.757554 
L 366.473041 236.437069 
Q 368.118691 238.18402 369.865642 236.53837 
L 375.501378 231.229436 
Q 377.248329 229.583787 375.602679 227.836836 
L 372.13653 224.157321 
Q 370.49088 222.41037 368.743929 224.056019 
L 363.108193 229.364953 
Q 361.361242 231.010603 363.006892 232.757554 
z
" style="fill:#ffffff;stroke:#ffffff;stroke-linejoin:miter;"/>
    </g>
    <g clip-path="url(#p07fbe5e37d)">
     <!-- E -->
     <g transform="translate(365.96488 229.971092)rotate(-313.289685)scale(0.08 -0.08)">
      <use xlink:href="#DejaVuSans-69"/>
     </g>
    </g>
   </g>
   <g id="text_15">
    <g id="patch_16">
     <path clip-path="url(#p07fbe5e37d)" d="M 493.427533 373.826808 
L 493.427533 409.111808 
Q 493.427533 411.511808 495.827533 411.511808 
L 503.570033 411.511808 
Q 505.970033 411.511808 505.970033 409.111808 
L 505.970033 373.826808 
Q 505.970033 371.426808 503.570033 371.426808 
L 495.827533 371.426808 
Q 493.427533 371.426808 493.427533 373.826808 
z
" style="fill:#ffffff;stroke:#ffffff;stroke-linejoin:miter;"/>
    </g>
    <g clip-path="url(#p07fbe5e37d)">
     <!-- Terminal -->
     <defs>
      <path d="M -0.296875 72.90625 
L 61.375 72.90625 
L 61.375 64.59375 
L 35.5 64.59375 
L 35.5 0 
L 25.59375 0 
L 25.59375 64.59375 
L -0.296875 64.59375 
z
" id="DejaVuSans-84"/>
      <path d="M 56.203125 29.59375 
L 56.203125 25.203125 
L 14.890625 25.203125 
Q 15.484375 15.921875 20.484375 11.0625 
Q 25.484375 6.203125 34.421875 6.203125 
Q 39.59375 6.203125 44.453125 7.46875 
Q 49.3125 8.734375 54.109375 11.28125 
L 54.109375 2.78125 
Q 49.265625 0.734375 44.1875 -0.34375 
Q 39.109375 -1.421875 33.890625 -1.421875 
Q 20.796875 -1.421875 13.15625 6.1875 
Q 5.515625 13.8125 5.515625 26.8125 
Q 5.515625 40.234375 12.765625 48.109375 
Q 20.015625 56 32.328125 56 
Q 43.359375 56 49.78125 48.890625 
Q 56.203125 41.796875 56.203125 29.59375 
z
M 47.21875 32.234375 
Q 47.125 39.59375 43.09375 43.984375 
Q 39.0625 48.390625 32.421875 48.390625 
Q 24.90625 48.390625 20.390625 44.140625 
Q 15.875 39.890625 15.1875 32.171875 
z
" id="DejaVuSans-101"/>
      <path d="M 41.109375 46.296875 
Q 39.59375 47.171875 37.8125 47.578125 
Q 36.03125 48 33.890625 48 
Q 26.265625 48 22.1875 43.046875 
Q 18.109375 38.09375 18.109375 28.8125 
L 18.109375 0 
L 9.078125 0 
L 9.078125 54.6875 
L 18.109375 54.6875 
L 18.109375 46.1875 
Q 20.953125 51.171875 25.484375 53.578125 
Q 30.03125 56 36.53125 56 
Q 37.453125 56 38.578125 55.875 
Q 39.703125 55.765625 41.0625 55.515625 
z
" id="DejaVuSans-114"/>
      <path d="M 52 44.1875 
Q 55.375 50.25 60.0625 53.125 
Q 64.75 56 71.09375 56 
Q 79.640625 56 84.28125 50.015625 
Q 88.921875 44.046875 88.921875 33.015625 
L 88.921875 0 
L 79.890625 0 
L 79.890625 32.71875 
Q 79.890625 40.578125 77.09375 44.375 
Q 74.3125 48.1875 68.609375 48.1875 
Q 61.625 48.1875 57.5625 43.546875 
Q 53.515625 38.921875 53.515625 30.90625 
L 53.515625 0 
L 44.484375 0 
L 44.484375 32.71875 
Q 44.484375 40.625 41.703125 44.40625 
Q 38.921875 48.1875 33.109375 48.1875 
Q 26.21875 48.1875 22.15625 43.53125 
Q 18.109375 38.875 18.109375 30.90625 
L 18.109375 0 
L 9.078125 0 
L 9.078125 54.6875 
L 18.109375 54.6875 
L 18.109375 46.1875 
Q 21.1875 51.21875 25.484375 53.609375 
Q 29.78125 56 35.6875 56 
Q 41.65625 56 45.828125 52.96875 
Q 50 49.953125 52 44.1875 
z
" id="DejaVuSans-109"/>
      <path d="M 9.421875 54.6875 
L 18.40625 54.6875 
L 18.40625 0 
L 9.421875 0 
z
M 9.421875 75.984375 
L 18.40625 75.984375 
L 18.40625 64.59375 
L 9.421875 64.59375 
z
" id="DejaVuSans-105"/>
      <path d="M 54.890625 33.015625 
L 54.890625 0 
L 45.90625 0 
L 45.90625 32.71875 
Q 45.90625 40.484375 42.875 44.328125 
Q 39.84375 48.1875 33.796875 48.1875 
Q 26.515625 48.1875 22.3125 43.546875 
Q 18.109375 38.921875 18.109375 30.90625 
L 18.109375 0 
L 9.078125 0 
L 9.078125 54.6875 
L 18.109375 54.6875 
L 18.109375 46.1875 
Q 21.34375 51.125 25.703125 53.5625 
Q 30.078125 56 35.796875 56 
Q 45.21875 56 50.046875 50.171875 
Q 54.890625 44.34375 54.890625 33.015625 
z
" id="DejaVuSans-110"/>
      <path d="M 34.28125 27.484375 
Q 23.390625 27.484375 19.1875 25 
Q 14.984375 22.515625 14.984375 16.5 
Q 14.984375 11.71875 18.140625 8.90625 
Q 21.296875 6.109375 26.703125 6.109375 
Q 34.1875 6.109375 38.703125 11.40625 
Q 43.21875 16.703125 43.21875 25.484375 
L 43.21875 27.484375 
z
M 52.203125 31.203125 
L 52.203125 0 
L 43.21875 0 
L 43.21875 8.296875 
Q 40.140625 3.328125 35.546875 0.953125 
Q 30.953125 -1.421875 24.3125 -1.421875 
Q 15.921875 -1.421875 10.953125 3.296875 
Q 6 8.015625 6 15.921875 
Q 6 25.140625 12.171875 29.828125 
Q 18.359375 34.515625 30.609375 34.515625 
L 43.21875 34.515625 
L 43.21875 35.40625 
Q 43.21875 41.609375 39.140625 45 
Q 35.0625 48.390625 27.6875 48.390625 
Q 23 48.390625 18.546875 47.265625 
Q 14.109375 46.140625 10.015625 43.890625 
L 10.015625 52.203125 
Q 14.9375 54.109375 19.578125 55.046875 
Q 24.21875 56 28.609375 56 
Q 40.484375 56 46.34375 49.84375 
Q 52.203125 43.703125 52.203125 31.203125 
z
" id="DejaVuSans-97"/>
      <path d="M 9.421875 75.984375 
L 18.40625 75.984375 
L 18.40625 0 
L 9.421875 0 
z
" id="DejaVuSans-108"/>
     </defs>
     <g transform="translate(497.491283 373.826808)rotate(-270)scale(0.08 -0.08)">
      <use xlink:href="#DejaVuSans-84"/>
      <use x="60.818359" xlink:href="#DejaVuSans-101"/>
      <use x="122.341797" xlink:href="#DejaVuSans-114"/>
      <use x="163.439453" xlink:href="#DejaVuSans-109"/>
      <use x="260.851562" xlink:href="#DejaVuSans-105"/>
      <use x="288.634766" xlink:href="#DejaVuSans-110"/>
      <use x="352.013672" xlink:href="#DejaVuSans-97"/>
      <use x="413.292969" xlink:href="#DejaVuSans-108"/>
     </g>
    </g>
   </g>
   <g id="text_16">
    <g id="patch_17">
     <path clip-path="url(#p07fbe5e37d)" d="M 562.557994 315.319684 
L 563.950396 310.460235 
Q 564.611477 308.153078 562.304321 307.491997 
L 554.861337 305.359321 
Q 552.554181 304.69824 551.8931 307.005397 
L 550.500697 311.864845 
Q 549.839616 314.172002 552.146772 314.833083 
L 559.589756 316.965759 
Q 561.896912 317.62684 562.557994 315.319684 
z
" style="fill:#ffffff;stroke:#ffffff;stroke-linejoin:miter;"/>
    </g>
    <g clip-path="url(#p07fbe5e37d)">
     <!-- E -->
     <g transform="translate(558.651449 314.200321)rotate(-74.011135)scale(0.08 -0.08)">
      <use xlink:href="#DejaVuSans-69"/>
     </g>
    </g>
   </g>
   <g id="text_17">
    <g id="patch_18">
     <path clip-path="url(#p07fbe5e37d)" d="M 573.438236 310.204886 
L 574.976971 315.575033 
Q 575.638053 317.88219 577.945209 317.221108 
L 585.388193 315.088433 
Q 587.695349 314.427351 587.034268 312.120195 
L 585.495532 306.750047 
Q 584.834451 304.442891 582.527295 305.103972 
L 575.084311 307.236648 
Q 572.777155 307.897729 573.438236 310.204886 
z
" style="fill:#ffffff;stroke:#ffffff;stroke-linejoin:miter;"/>
    </g>
    <g clip-path="url(#p07fbe5e37d)">
     <!-- C -->
     <g transform="translate(577.344781 309.085524)rotate(-285.988865)scale(0.08 -0.08)">
      <use xlink:href="#DejaVuSans-67"/>
     </g>
    </g>
   </g>
   <g id="text_18">
    <g id="patch_19">
     <path clip-path="url(#p07fbe5e37d)" d="M 675.222987 317.358254 
L 678.846554 313.14287 
Q 680.411035 311.32287 678.591035 309.758389 
L 672.719641 304.711308 
Q 670.899641 303.146826 669.33516 304.966826 
L 665.711593 309.182211 
Q 664.147112 311.00221 665.967112 312.566691 
L 671.838507 317.613773 
Q 673.658506 319.178254 675.222987 317.358254 
z
" style="fill:#ffffff;stroke:#ffffff;stroke-linejoin:miter;"/>
    </g>
    <g clip-path="url(#p07fbe5e37d)">
     <!-- R -->
     <defs>
      <path d="M 44.390625 34.1875 
Q 47.5625 33.109375 50.5625 29.59375 
Q 53.5625 26.078125 56.59375 19.921875 
L 66.609375 0 
L 56 0 
L 46.6875 18.703125 
Q 43.0625 26.03125 39.671875 28.421875 
Q 36.28125 30.8125 30.421875 30.8125 
L 19.671875 30.8125 
L 19.671875 0 
L 9.8125 0 
L 9.8125 72.90625 
L 32.078125 72.90625 
Q 44.578125 72.90625 50.734375 67.671875 
Q 56.890625 62.453125 56.890625 51.90625 
Q 56.890625 45.015625 53.6875 40.46875 
Q 50.484375 35.9375 44.390625 34.1875 
z
M 19.671875 64.796875 
L 19.671875 38.921875 
L 32.078125 38.921875 
Q 39.203125 38.921875 42.84375 42.21875 
Q 46.484375 45.515625 46.484375 51.90625 
Q 46.484375 58.296875 42.84375 61.546875 
Q 39.203125 64.796875 32.078125 64.796875 
z
" id="DejaVuSans-82"/>
     </defs>
     <g transform="translate(672.141311 314.709229)rotate(-49.317474)scale(0.08 -0.08)">
      <use xlink:href="#DejaVuSans-82"/>
     </g>
    </g>
   </g>
   <g id="text_19">
    <g id="patch_20">
     <path clip-path="url(#p07fbe5e37d)" d="M 700.622226 315.319684 
L 702.014629 310.460235 
Q 702.67571 308.153078 700.368553 307.491997 
L 692.92557 305.359321 
Q 690.618413 304.69824 689.957332 307.005397 
L 688.56493 311.864845 
Q 687.903848 314.172002 690.211005 314.833083 
L 697.653988 316.965759 
Q 699.961145 317.62684 700.622226 315.319684 
z
" style="fill:#ffffff;stroke:#ffffff;stroke-linejoin:miter;"/>
    </g>
    <g clip-path="url(#p07fbe5e37d)">
     <!-- E -->
     <g transform="translate(696.715681 314.200321)rotate(-74.011135)scale(0.08 -0.08)">
      <use xlink:href="#DejaVuSans-69"/>
     </g>
    </g>
   </g>
   <g id="text_20">
    <g id="patch_21">
     <path clip-path="url(#p07fbe5e37d)" d="M 711.502469 310.204886 
L 713.041204 315.575033 
Q 713.702285 317.88219 716.009442 317.221108 
L 723.452425 315.088433 
Q 725.759582 314.427351 725.098501 312.120195 
L 723.559765 306.750047 
Q 722.898684 304.442891 720.591527 305.103972 
L 713.148544 307.236648 
Q 710.841387 307.897729 711.502469 310.204886 
z
" style="fill:#ffffff;stroke:#ffffff;stroke-linejoin:miter;"/>
    </g>
    <g clip-path="url(#p07fbe5e37d)">
     <!-- C -->
     <g transform="translate(715.409013 309.085524)rotate(-285.988865)scale(0.08 -0.08)">
      <use xlink:href="#DejaVuSans-67"/>
     </g>
    </g>
   </g>
   <g id="text_21">
    <g id="patch_22">
     <path clip-path="url(#p07fbe5e37d)" d="M 734.647152 313.030542 
L 738.463834 317.470582 
Q 740.028315 319.290582 741.848315 317.726101 
L 747.71971 312.679019 
Q 749.539709 311.114538 747.975228 309.294539 
L 744.158546 304.854498 
Q 742.594065 303.034498 740.774065 304.598979 
L 734.90267 309.646061 
Q 733.082671 311.210542 734.647152 313.030542 
z
" style="fill:#ffffff;stroke:#ffffff;stroke-linejoin:miter;"/>
    </g>
    <g clip-path="url(#p07fbe5e37d)">
     <!-- U -->
     <g transform="translate(737.728828 310.381517)rotate(-310.682526)scale(0.08 -0.08)">
      <use xlink:href="#DejaVuSans-85"/>
     </g>
    </g>
   </g>
   <g id="text_22">
    <g id="patch_23">
     <path clip-path="url(#p07fbe5e37d)" d="M 631.491766 373.826808 
L 631.491766 409.111808 
Q 631.491766 411.511808 633.891766 411.511808 
L 641.634266 411.511808 
Q 644.034266 411.511808 644.034266 409.111808 
L 644.034266 373.826808 
Q 644.034266 371.426808 641.634266 371.426808 
L 633.891766 371.426808 
Q 631.491766 371.426808 631.491766 373.826808 
z
" style="fill:#ffffff;stroke:#ffffff;stroke-linejoin:miter;"/>
    </g>
    <g clip-path="url(#p07fbe5e37d)">
     <!-- Terminal -->
     <g transform="translate(635.555516 373.826808)rotate(-270)scale(0.08 -0.08)">
      <use xlink:href="#DejaVuSans-84"/>
      <use x="60.818359" xlink:href="#DejaVuSans-101"/>
      <use x="122.341797" xlink:href="#DejaVuSans-114"/>
      <use x="163.439453" xlink:href="#DejaVuSans-109"/>
      <use x="260.851562" xlink:href="#DejaVuSans-105"/>
      <use x="288.634766" xlink:href="#DejaVuSans-110"/>
      <use x="352.013672" xlink:href="#DejaVuSans-97"/>
      <use x="413.292969" xlink:href="#DejaVuSans-108"/>
     </g>
    </g>
   </g>
   <g id="text_23">
    <g id="patch_24">
     <path clip-path="url(#p07fbe5e37d)" d="M 677.513176 373.826808 
L 677.513176 409.111808 
Q 677.513176 411.511808 679.913176 411.511808 
L 687.655676 411.511808 
Q 690.055676 411.511808 690.055676 409.111808 
L 690.055676 373.826808 
Q 690.055676 371.426808 687.655676 371.426808 
L 679.913176 371.426808 
Q 677.513176 371.426808 677.513176 373.826808 
z
" style="fill:#ffffff;stroke:#ffffff;stroke-linejoin:miter;"/>
    </g>
    <g clip-path="url(#p07fbe5e37d)">
     <!-- Terminal -->
     <g transform="translate(681.576926 373.826808)rotate(-270)scale(0.08 -0.08)">
      <use xlink:href="#DejaVuSans-84"/>
      <use x="60.818359" xlink:href="#DejaVuSans-101"/>
      <use x="122.341797" xlink:href="#DejaVuSans-114"/>
      <use x="163.439453" xlink:href="#DejaVuSans-109"/>
      <use x="260.851562" xlink:href="#DejaVuSans-105"/>
      <use x="288.634766" xlink:href="#DejaVuSans-110"/>
      <use x="352.013672" xlink:href="#DejaVuSans-97"/>
      <use x="413.292969" xlink:href="#DejaVuSans-108"/>
     </g>
    </g>
   </g>
   <g id="text_24">
    <g id="patch_25">
     <path clip-path="url(#p07fbe5e37d)" d="M 723.534587 373.826808 
L 723.534587 409.111808 
Q 723.534587 411.511808 725.934587 411.511808 
L 733.677087 411.511808 
Q 736.077087 411.511808 736.077087 409.111808 
L 736.077087 373.826808 
Q 736.077087 371.426808 733.677087 371.426808 
L 725.934587 371.426808 
Q 723.534587 371.426808 723.534587 373.826808 
z
" style="fill:#ffffff;stroke:#ffffff;stroke-linejoin:miter;"/>
    </g>
    <g clip-path="url(#p07fbe5e37d)">
     <!-- Terminal -->
     <g transform="translate(727.598337 373.826808)rotate(-270)scale(0.08 -0.08)">
      <use xlink:href="#DejaVuSans-84"/>
      <use x="60.818359" xlink:href="#DejaVuSans-101"/>
      <use x="122.341797" xlink:href="#DejaVuSans-114"/>
      <use x="163.439453" xlink:href="#DejaVuSans-109"/>
      <use x="260.851562" xlink:href="#DejaVuSans-105"/>
      <use x="288.634766" xlink:href="#DejaVuSans-110"/>
      <use x="352.013672" xlink:href="#DejaVuSans-97"/>
      <use x="413.292969" xlink:href="#DejaVuSans-108"/>
     </g>
    </g>
   </g>
   <g id="text_25">
    <g id="patch_26">
     <path clip-path="url(#p07fbe5e37d)" d="M 539.448944 373.826808 
L 539.448944 409.111808 
Q 539.448944 411.511808 541.848944 411.511808 
L 549.591444 411.511808 
Q 551.991444 411.511808 551.991444 409.111808 
L 551.991444 373.826808 
Q 551.991444 371.426808 549.591444 371.426808 
L 541.848944 371.426808 
Q 539.448944 371.426808 539.448944 373.826808 
z
" style="fill:#ffffff;stroke:#ffffff;stroke-linejoin:miter;"/>
    </g>
    <g clip-path="url(#p07fbe5e37d)">
     <!-- Terminal -->
     <g transform="translate(543.512694 373.826808)rotate(-270)scale(0.08 -0.08)">
      <use xlink:href="#DejaVuSans-84"/>
      <use x="60.818359" xlink:href="#DejaVuSans-101"/>
      <use x="122.341797" xlink:href="#DejaVuSans-114"/>
      <use x="163.439453" xlink:href="#DejaVuSans-109"/>
      <use x="260.851562" xlink:href="#DejaVuSans-105"/>
      <use x="288.634766" xlink:href="#DejaVuSans-110"/>
      <use x="352.013672" xlink:href="#DejaVuSans-97"/>
      <use x="413.292969" xlink:href="#DejaVuSans-108"/>
     </g>
    </g>
   </g>
   <g id="text_26">
    <g id="patch_27">
     <path clip-path="url(#p07fbe5e37d)" d="M 585.470355 373.826808 
L 585.470355 409.111808 
Q 585.470355 411.511808 587.870355 411.511808 
L 595.612855 411.511808 
Q 598.012855 411.511808 598.012855 409.111808 
L 598.012855 373.826808 
Q 598.012855 371.426808 595.612855 371.426808 
L 587.870355 371.426808 
Q 585.470355 371.426808 585.470355 373.826808 
z
" style="fill:#ffffff;stroke:#ffffff;stroke-linejoin:miter;"/>
    </g>
    <g clip-path="url(#p07fbe5e37d)">
     <!-- Terminal -->
     <g transform="translate(589.534105 373.826808)rotate(-270)scale(0.08 -0.08)">
      <use xlink:href="#DejaVuSans-84"/>
      <use x="60.818359" xlink:href="#DejaVuSans-101"/>
      <use x="122.341797" xlink:href="#DejaVuSans-114"/>
      <use x="163.439453" xlink:href="#DejaVuSans-109"/>
      <use x="260.851562" xlink:href="#DejaVuSans-105"/>
      <use x="288.634766" xlink:href="#DejaVuSans-110"/>
      <use x="352.013672" xlink:href="#DejaVuSans-97"/>
      <use x="413.292969" xlink:href="#DejaVuSans-108"/>
     </g>
    </g>
   </g>
   <g id="text_27">
    <g id="patch_28">
     <path clip-path="url(#p07fbe5e37d)" d="M 263.320479 373.826808 
L 263.320479 409.111808 
Q 263.320479 411.511808 265.720479 411.511808 
L 273.462979 411.511808 
Q 275.862979 411.511808 275.862979 409.111808 
L 275.862979 373.826808 
Q 275.862979 371.426808 273.462979 371.426808 
L 265.720479 371.426808 
Q 263.320479 371.426808 263.320479 373.826808 
z
" style="fill:#ffffff;stroke:#ffffff;stroke-linejoin:miter;"/>
    </g>
    <g clip-path="url(#p07fbe5e37d)">
     <!-- Terminal -->
     <g transform="translate(267.384229 373.826808)rotate(-270)scale(0.08 -0.08)">
      <use xlink:href="#DejaVuSans-84"/>
      <use x="60.818359" xlink:href="#DejaVuSans-101"/>
      <use x="122.341797" xlink:href="#DejaVuSans-114"/>
      <use x="163.439453" xlink:href="#DejaVuSans-109"/>
      <use x="260.851562" xlink:href="#DejaVuSans-105"/>
      <use x="288.634766" xlink:href="#DejaVuSans-110"/>
      <use x="352.013672" xlink:href="#DejaVuSans-97"/>
      <use x="413.292969" xlink:href="#DejaVuSans-108"/>
     </g>
    </g>
   </g>
   <g id="text_28">
    <g id="patch_29">
     <path clip-path="url(#p07fbe5e37d)" d="M 309.34189 373.826808 
L 309.34189 409.111808 
Q 309.34189 411.511808 311.74189 411.511808 
L 319.48439 411.511808 
Q 321.88439 411.511808 321.88439 409.111808 
L 321.88439 373.826808 
Q 321.88439 371.426808 319.48439 371.426808 
L 311.74189 371.426808 
Q 309.34189 371.426808 309.34189 373.826808 
z
" style="fill:#ffffff;stroke:#ffffff;stroke-linejoin:miter;"/>
    </g>
    <g clip-path="url(#p07fbe5e37d)">
     <!-- Terminal -->
     <g transform="translate(313.40564 373.826808)rotate(-270)scale(0.08 -0.08)">
      <use xlink:href="#DejaVuSans-84"/>
      <use x="60.818359" xlink:href="#DejaVuSans-101"/>
      <use x="122.341797" xlink:href="#DejaVuSans-114"/>
      <use x="163.439453" xlink:href="#DejaVuSans-109"/>
      <use x="260.851562" xlink:href="#DejaVuSans-105"/>
      <use x="288.634766" xlink:href="#DejaVuSans-110"/>
      <use x="352.013672" xlink:href="#DejaVuSans-97"/>
      <use x="413.292969" xlink:href="#DejaVuSans-108"/>
     </g>
    </g>
   </g>
   <g id="text_29">
    <g id="patch_30">
     <path clip-path="url(#p07fbe5e37d)" d="M 388.704435 316.692149 
L 391.468313 311.869216 
Q 392.661622 309.786907 390.579313 308.593597 
L 383.861696 304.743932 
Q 381.779386 303.550622 380.586077 305.632932 
L 377.822199 310.455864 
Q 376.628889 312.538174 378.711199 313.731483 
L 385.428816 317.581149 
Q 387.511125 318.774458 388.704435 316.692149 
z
" style="fill:#ffffff;stroke:#ffffff;stroke-linejoin:miter;"/>
    </g>
    <g clip-path="url(#p07fbe5e37d)">
     <!-- R -->
     <g transform="translate(385.178607 314.671602)rotate(-60.184266)scale(0.08 -0.08)">
      <use xlink:href="#DejaVuSans-82"/>
     </g>
    </g>
   </g>
   <g id="text_30">
    <g id="patch_31">
     <path clip-path="url(#p07fbe5e37d)" d="M 401.384711 308.63504 
L 401.384711 313.69004 
Q 401.384711 316.09004 403.784711 316.09004 
L 411.527211 316.09004 
Q 413.927211 316.09004 413.927211 313.69004 
L 413.927211 308.63504 
Q 413.927211 306.23504 411.527211 306.23504 
L 403.784711 306.23504 
Q 401.384711 306.23504 401.384711 308.63504 
z
" style="fill:#ffffff;stroke:#ffffff;stroke-linejoin:miter;"/>
    </g>
    <g clip-path="url(#p07fbe5e37d)">
     <!-- E -->
     <g transform="translate(405.448461 308.63504)rotate(-270)scale(0.08 -0.08)">
      <use xlink:href="#DejaVuSans-69"/>
     </g>
    </g>
   </g>
   <g id="text_31">
    <g id="patch_32">
     <path clip-path="url(#p07fbe5e37d)" d="M 423.836773 311.857286 
L 426.614325 316.704079 
Q 427.807634 318.786388 429.889943 317.593079 
L 436.607561 313.743413 
Q 438.68987 312.550103 437.496561 310.467794 
L 434.719009 305.621002 
Q 433.525699 303.538692 431.44339 304.732002 
L 424.725773 308.581667 
Q 422.643463 309.774977 423.836773 311.857286 
z
" style="fill:#ffffff;stroke:#ffffff;stroke-linejoin:miter;"/>
    </g>
    <g clip-path="url(#p07fbe5e37d)">
     <!-- C -->
     <g transform="translate(427.3626 309.83674)rotate(-299.815734)scale(0.08 -0.08)">
      <use xlink:href="#DejaVuSans-67"/>
     </g>
    </g>
   </g>
   <g id="text_32">
    <g id="patch_33">
     <path clip-path="url(#p07fbe5e37d)" d="M 355.3633 373.826808 
L 355.3633 409.111808 
Q 355.3633 411.511808 357.7633 411.511808 
L 365.5058 411.511808 
Q 367.9058 411.511808 367.9058 409.111808 
L 367.9058 373.826808 
Q 367.9058 371.426808 365.5058 371.426808 
L 357.7633 371.426808 
Q 355.3633 371.426808 355.3633 373.826808 
z
" style="fill:#ffffff;stroke:#ffffff;stroke-linejoin:miter;"/>
    </g>
    <g clip-path="url(#p07fbe5e37d)">
     <!-- Terminal -->
     <g transform="translate(359.42705 373.826808)rotate(-270)scale(0.08 -0.08)">
      <use xlink:href="#DejaVuSans-84"/>
      <use x="60.818359" xlink:href="#DejaVuSans-101"/>
      <use x="122.341797" xlink:href="#DejaVuSans-114"/>
      <use x="163.439453" xlink:href="#DejaVuSans-109"/>
      <use x="260.851562" xlink:href="#DejaVuSans-105"/>
      <use x="288.634766" xlink:href="#DejaVuSans-110"/>
      <use x="352.013672" xlink:href="#DejaVuSans-97"/>
      <use x="413.292969" xlink:href="#DejaVuSans-108"/>
     </g>
    </g>
   </g>
   <g id="text_33">
    <g id="patch_34">
     <path clip-path="url(#p07fbe5e37d)" d="M 401.384711 373.826808 
L 401.384711 409.111808 
Q 401.384711 411.511808 403.784711 411.511808 
L 411.527211 411.511808 
Q 413.927211 411.511808 413.927211 409.111808 
L 413.927211 373.826808 
Q 413.927211 371.426808 411.527211 371.426808 
L 403.784711 371.426808 
Q 401.384711 371.426808 401.384711 373.826808 
z
" style="fill:#ffffff;stroke:#ffffff;stroke-linejoin:miter;"/>
    </g>
    <g clip-path="url(#p07fbe5e37d)">
     <!-- Terminal -->
     <g transform="translate(405.448461 373.826808)rotate(-270)scale(0.08 -0.08)">
      <use xlink:href="#DejaVuSans-84"/>
      <use x="60.818359" xlink:href="#DejaVuSans-101"/>
      <use x="122.341797" xlink:href="#DejaVuSans-114"/>
      <use x="163.439453" xlink:href="#DejaVuSans-109"/>
      <use x="260.851562" xlink:href="#DejaVuSans-105"/>
      <use x="288.634766" xlink:href="#DejaVuSans-110"/>
      <use x="352.013672" xlink:href="#DejaVuSans-97"/>
      <use x="413.292969" xlink:href="#DejaVuSans-108"/>
     </g>
    </g>
   </g>
   <g id="text_34">
    <g id="patch_35">
     <path clip-path="url(#p07fbe5e37d)" d="M 447.406122 373.826808 
L 447.406122 409.111808 
Q 447.406122 411.511808 449.806122 411.511808 
L 457.548622 411.511808 
Q 459.948622 411.511808 459.948622 409.111808 
L 459.948622 373.826808 
Q 459.948622 371.426808 457.548622 371.426808 
L 449.806122 371.426808 
Q 447.406122 371.426808 447.406122 373.826808 
z
" style="fill:#ffffff;stroke:#ffffff;stroke-linejoin:miter;"/>
    </g>
    <g clip-path="url(#p07fbe5e37d)">
     <!-- Terminal -->
     <g transform="translate(451.469872 373.826808)rotate(-270)scale(0.08 -0.08)">
      <use xlink:href="#DejaVuSans-84"/>
      <use x="60.818359" xlink:href="#DejaVuSans-101"/>
      <use x="122.341797" xlink:href="#DejaVuSans-114"/>
      <use x="163.439453" xlink:href="#DejaVuSans-109"/>
      <use x="260.851562" xlink:href="#DejaVuSans-105"/>
      <use x="288.634766" xlink:href="#DejaVuSans-110"/>
      <use x="352.013672" xlink:href="#DejaVuSans-97"/>
      <use x="413.292969" xlink:href="#DejaVuSans-108"/>
     </g>
    </g>
   </g>
   <g id="text_35">
    <g id="patch_36">
     <path clip-path="url(#p07fbe5e37d)" d="M 56.249308 315.575033 
L 57.788043 310.204886 
Q 58.449124 307.897729 56.141968 307.236648 
L 48.698984 305.103972 
Q 46.391828 304.442891 45.730747 306.750047 
L 44.192011 312.120195 
Q 43.53093 314.427351 45.838086 315.088433 
L 53.28107 317.221108 
Q 55.588226 317.88219 56.249308 315.575033 
z
" style="fill:#ffffff;stroke:#ffffff;stroke-linejoin:miter;"/>
    </g>
    <g clip-path="url(#p07fbe5e37d)">
     <!-- C -->
     <g transform="translate(52.342763 314.455671)rotate(-74.011135)scale(0.08 -0.08)">
      <use xlink:href="#DejaVuSans-67"/>
     </g>
    </g>
   </g>
   <g id="text_36">
    <g id="patch_37">
     <path clip-path="url(#p07fbe5e37d)" d="M 67.202716 310.204886 
L 68.741452 315.575033 
Q 69.402533 317.88219 71.70969 317.221108 
L 79.152673 315.088433 
Q 81.45983 314.427351 80.798749 312.120195 
L 79.260013 306.750047 
Q 78.598932 304.442891 76.291775 305.103972 
L 68.848792 307.236648 
Q 66.541635 307.897729 67.202716 310.204886 
z
" style="fill:#ffffff;stroke:#ffffff;stroke-linejoin:miter;"/>
    </g>
    <g clip-path="url(#p07fbe5e37d)">
     <!-- C -->
     <g transform="translate(71.109261 309.085524)rotate(-285.988865)scale(0.08 -0.08)">
      <use xlink:href="#DejaVuSans-67"/>
     </g>
    </g>
   </g>
   <g id="text_37">
    <g id="patch_38">
     <path clip-path="url(#p07fbe5e37d)" d="M 125.256246 373.826808 
L 125.256246 409.111808 
Q 125.256246 411.511808 127.656246 411.511808 
L 135.398746 411.511808 
Q 137.798746 411.511808 137.798746 409.111808 
L 137.798746 373.826808 
Q 137.798746 371.426808 135.398746 371.426808 
L 127.656246 371.426808 
Q 125.256246 371.426808 125.256246 373.826808 
z
" style="fill:#ffffff;stroke:#ffffff;stroke-linejoin:miter;"/>
    </g>
    <g clip-path="url(#p07fbe5e37d)">
     <!-- Terminal -->
     <g transform="translate(129.319996 373.826808)rotate(-270)scale(0.08 -0.08)">
      <use xlink:href="#DejaVuSans-84"/>
      <use x="60.818359" xlink:href="#DejaVuSans-101"/>
      <use x="122.341797" xlink:href="#DejaVuSans-114"/>
      <use x="163.439453" xlink:href="#DejaVuSans-109"/>
      <use x="260.851562" xlink:href="#DejaVuSans-105"/>
      <use x="288.634766" xlink:href="#DejaVuSans-110"/>
      <use x="352.013672" xlink:href="#DejaVuSans-97"/>
      <use x="413.292969" xlink:href="#DejaVuSans-108"/>
     </g>
    </g>
   </g>
   <g id="text_38">
    <g id="patch_39">
     <path clip-path="url(#p07fbe5e37d)" d="M 171.277657 373.826808 
L 171.277657 409.111808 
Q 171.277657 411.511808 173.677657 411.511808 
L 181.420157 411.511808 
Q 183.820157 411.511808 183.820157 409.111808 
L 183.820157 373.826808 
Q 183.820157 371.426808 181.420157 371.426808 
L 173.677657 371.426808 
Q 171.277657 371.426808 171.277657 373.826808 
z
" style="fill:#ffffff;stroke:#ffffff;stroke-linejoin:miter;"/>
    </g>
    <g clip-path="url(#p07fbe5e37d)">
     <!-- Terminal -->
     <g transform="translate(175.341407 373.826808)rotate(-270)scale(0.08 -0.08)">
      <use xlink:href="#DejaVuSans-84"/>
      <use x="60.818359" xlink:href="#DejaVuSans-101"/>
      <use x="122.341797" xlink:href="#DejaVuSans-114"/>
      <use x="163.439453" xlink:href="#DejaVuSans-109"/>
      <use x="260.851562" xlink:href="#DejaVuSans-105"/>
      <use x="288.634766" xlink:href="#DejaVuSans-110"/>
      <use x="352.013672" xlink:href="#DejaVuSans-97"/>
      <use x="413.292969" xlink:href="#DejaVuSans-108"/>
     </g>
    </g>
   </g>
   <g id="text_39">
    <g id="patch_40">
     <path clip-path="url(#p07fbe5e37d)" d="M 33.213424 373.826808 
L 33.213424 409.111808 
Q 33.213424 411.511808 35.613424 411.511808 
L 43.355924 411.511808 
Q 45.755924 411.511808 45.755924 409.111808 
L 45.755924 373.826808 
Q 45.755924 371.426808 43.355924 371.426808 
L 35.613424 371.426808 
Q 33.213424 371.426808 33.213424 373.826808 
z
" style="fill:#ffffff;stroke:#ffffff;stroke-linejoin:miter;"/>
    </g>
    <g clip-path="url(#p07fbe5e37d)">
     <!-- Terminal -->
     <g transform="translate(37.277174 373.826808)rotate(-270)scale(0.08 -0.08)">
      <use xlink:href="#DejaVuSans-84"/>
      <use x="60.818359" xlink:href="#DejaVuSans-101"/>
      <use x="122.341797" xlink:href="#DejaVuSans-114"/>
      <use x="163.439453" xlink:href="#DejaVuSans-109"/>
      <use x="260.851562" xlink:href="#DejaVuSans-105"/>
      <use x="288.634766" xlink:href="#DejaVuSans-110"/>
      <use x="352.013672" xlink:href="#DejaVuSans-97"/>
      <use x="413.292969" xlink:href="#DejaVuSans-108"/>
     </g>
    </g>
   </g>
   <g id="text_40">
    <g id="patch_41">
     <path clip-path="url(#p07fbe5e37d)" d="M 79.234835 373.826808 
L 79.234835 409.111808 
Q 79.234835 411.511808 81.634835 411.511808 
L 89.377335 411.511808 
Q 91.777335 411.511808 91.777335 409.111808 
L 91.777335 373.826808 
Q 91.777335 371.426808 89.377335 371.426808 
L 81.634835 371.426808 
Q 79.234835 371.426808 79.234835 373.826808 
z
" style="fill:#ffffff;stroke:#ffffff;stroke-linejoin:miter;"/>
    </g>
    <g clip-path="url(#p07fbe5e37d)">
     <!-- Terminal -->
     <g transform="translate(83.298585 373.826808)rotate(-270)scale(0.08 -0.08)">
      <use xlink:href="#DejaVuSans-84"/>
      <use x="60.818359" xlink:href="#DejaVuSans-101"/>
      <use x="122.341797" xlink:href="#DejaVuSans-114"/>
      <use x="163.439453" xlink:href="#DejaVuSans-109"/>
      <use x="260.851562" xlink:href="#DejaVuSans-105"/>
      <use x="288.634766" xlink:href="#DejaVuSans-110"/>
      <use x="352.013672" xlink:href="#DejaVuSans-97"/>
      <use x="413.292969" xlink:href="#DejaVuSans-108"/>
     </g>
    </g>
   </g>
   <g id="text_41">
    <g id="patch_42">
     <path clip-path="url(#p07fbe5e37d)" d="M 217.299068 373.826808 
L 217.299068 409.111808 
Q 217.299068 411.511808 219.699068 411.511808 
L 227.441568 411.511808 
Q 229.841568 411.511808 229.841568 409.111808 
L 229.841568 373.826808 
Q 229.841568 371.426808 227.441568 371.426808 
L 219.699068 371.426808 
Q 217.299068 371.426808 217.299068 373.826808 
z
" style="fill:#ffffff;stroke:#ffffff;stroke-linejoin:miter;"/>
    </g>
    <g clip-path="url(#p07fbe5e37d)">
     <!-- Terminal -->
     <g transform="translate(221.362818 373.826808)rotate(-270)scale(0.08 -0.08)">
      <use xlink:href="#DejaVuSans-84"/>
      <use x="60.818359" xlink:href="#DejaVuSans-101"/>
      <use x="122.341797" xlink:href="#DejaVuSans-114"/>
      <use x="163.439453" xlink:href="#DejaVuSans-109"/>
      <use x="260.851562" xlink:href="#DejaVuSans-105"/>
      <use x="288.634766" xlink:href="#DejaVuSans-110"/>
      <use x="352.013672" xlink:href="#DejaVuSans-97"/>
      <use x="413.292969" xlink:href="#DejaVuSans-108"/>
     </g>
    </g>
   </g>
   <g id="text_42">
    <g id="patch_43">
     <path clip-path="url(#p07fbe5e37d)" d="M 769.555998 373.826808 
L 769.555998 409.111808 
Q 769.555998 411.511808 771.955998 411.511808 
L 779.698498 411.511808 
Q 782.098498 411.511808 782.098498 409.111808 
L 782.098498 373.826808 
Q 782.098498 371.426808 779.698498 371.426808 
L 771.955998 371.426808 
Q 769.555998 371.426808 769.555998 373.826808 
z
" style="fill:#ffffff;stroke:#ffffff;stroke-linejoin:miter;"/>
    </g>
    <g clip-path="url(#p07fbe5e37d)">
     <!-- Terminal -->
     <g transform="translate(773.619748 373.826808)rotate(-270)scale(0.08 -0.08)">
      <use xlink:href="#DejaVuSans-84"/>
      <use x="60.818359" xlink:href="#DejaVuSans-101"/>
      <use x="122.341797" xlink:href="#DejaVuSans-114"/>
      <use x="163.439453" xlink:href="#DejaVuSans-109"/>
      <use x="260.851562" xlink:href="#DejaVuSans-105"/>
      <use x="288.634766" xlink:href="#DejaVuSans-110"/>
      <use x="352.013672" xlink:href="#DejaVuSans-97"/>
      <use x="413.292969" xlink:href="#DejaVuSans-108"/>
     </g>
    </g>
   </g>
   <g id="PathCollection_1">
    <defs>
     <path d="M 0 8.660254 
C 2.296726 8.660254 4.499694 7.747755 6.123724 6.123724 
C 7.747755 4.499694 8.660254 2.296726 8.660254 0 
C 8.660254 -2.296726 7.747755 -4.499694 6.123724 -6.123724 
C 4.499694 -7.747755 2.296726 -8.660254 0 -8.660254 
C -2.296726 -8.660254 -4.499694 -7.747755 -6.123724 -6.123724 
C -7.747755 -4.499694 -8.660254 -2.296726 -8.660254 0 
C -8.660254 2.296726 -7.747755 4.499694 -6.123724 6.123724 
C -4.499694 7.747755 -2.296726 8.660254 0 8.660254 
z
" id="C0_0_d8cde00326"/>
    </defs>
    <g clip-path="url(#p07fbe5e37d)">
     <use style="fill:#ffffff;stroke:#ffffff;" x="39.484674" xlink:href="#C0_0_d8cde00326" y="431.622692"/>
    </g>
    <g clip-path="url(#p07fbe5e37d)">
     <use style="fill:#ffffff;stroke:#ffffff;" x="85.506085" xlink:href="#C0_0_d8cde00326" y="431.622692"/>
    </g>
    <g clip-path="url(#p07fbe5e37d)">
     <use style="fill:#ffffff;stroke:#ffffff;" x="131.527496" xlink:href="#C0_0_d8cde00326" y="431.622692"/>
    </g>
    <g clip-path="url(#p07fbe5e37d)">
     <use style="fill:#ffffff;stroke:#ffffff;" x="177.548907" xlink:href="#C0_0_d8cde00326" y="431.622692"/>
    </g>
    <g clip-path="url(#p07fbe5e37d)">
     <use style="fill:#ffffff;stroke:#ffffff;" x="223.570318" xlink:href="#C0_0_d8cde00326" y="431.622692"/>
    </g>
    <g clip-path="url(#p07fbe5e37d)">
     <use style="fill:#ffffff;stroke:#ffffff;" x="269.591729" xlink:href="#C0_0_d8cde00326" y="431.622692"/>
    </g>
    <g clip-path="url(#p07fbe5e37d)">
     <use style="fill:#ffffff;stroke:#ffffff;" x="315.61314" xlink:href="#C0_0_d8cde00326" y="431.622692"/>
    </g>
    <g clip-path="url(#p07fbe5e37d)">
     <use style="fill:#ffffff;stroke:#ffffff;" x="361.63455" xlink:href="#C0_0_d8cde00326" y="431.622692"/>
    </g>
    <g clip-path="url(#p07fbe5e37d)">
     <use style="fill:#ffffff;stroke:#ffffff;" x="407.655961" xlink:href="#C0_0_d8cde00326" y="431.622692"/>
    </g>
    <g clip-path="url(#p07fbe5e37d)">
     <use style="fill:#ffffff;stroke:#ffffff;" x="453.677372" xlink:href="#C0_0_d8cde00326" y="431.622692"/>
    </g>
    <g clip-path="url(#p07fbe5e37d)">
     <use style="fill:#ffffff;stroke:#ffffff;" x="499.698783" xlink:href="#C0_0_d8cde00326" y="431.622692"/>
    </g>
    <g clip-path="url(#p07fbe5e37d)">
     <use style="fill:#ffffff;stroke:#ffffff;" x="545.720194" xlink:href="#C0_0_d8cde00326" y="431.622692"/>
    </g>
    <g clip-path="url(#p07fbe5e37d)">
     <use style="fill:#ffffff;stroke:#ffffff;" x="591.741605" xlink:href="#C0_0_d8cde00326" y="431.622692"/>
    </g>
    <g clip-path="url(#p07fbe5e37d)">
     <use style="fill:#ffffff;stroke:#ffffff;" x="637.763016" xlink:href="#C0_0_d8cde00326" y="431.622692"/>
    </g>
    <g clip-path="url(#p07fbe5e37d)">
     <use style="fill:#ffffff;stroke:#ffffff;" x="683.784426" xlink:href="#C0_0_d8cde00326" y="431.622692"/>
    </g>
    <g clip-path="url(#p07fbe5e37d)">
     <use style="fill:#ffffff;stroke:#ffffff;" x="729.805837" xlink:href="#C0_0_d8cde00326" y="431.622692"/>
    </g>
    <g clip-path="url(#p07fbe5e37d)">
     <use style="fill:#ffffff;stroke:#ffffff;" x="775.827248" xlink:href="#C0_0_d8cde00326" y="431.622692"/>
    </g>
    <g clip-path="url(#p07fbe5e37d)">
     <use style="fill:#ffffff;stroke:#ffffff;" x="349.490011" xlink:href="#C0_0_d8cde00326" y="21.710642"/>
    </g>
    <g clip-path="url(#p07fbe5e37d)">
     <use style="fill:#ffffff;stroke:#ffffff;" x="298.35511" xlink:href="#C0_0_d8cde00326" y="189.585233"/>
    </g>
    <g clip-path="url(#p07fbe5e37d)">
     <use style="fill:#ffffff;stroke:#ffffff;" x="526.544606" xlink:href="#C0_0_d8cde00326" y="106.593431"/>
    </g>
    <g clip-path="url(#p07fbe5e37d)">
     <use style="fill:#ffffff;stroke:#ffffff;" x="330.95361" xlink:href="#C0_0_d8cde00326" y="189.585233"/>
    </g>
    <g clip-path="url(#p07fbe5e37d)">
     <use style="fill:#ffffff;stroke:#ffffff;" x="499.698783" xlink:href="#C0_0_d8cde00326" y="351.315924"/>
    </g>
    <g clip-path="url(#p07fbe5e37d)">
     <use style="fill:#ffffff;stroke:#ffffff;" x="568.730899" xlink:href="#C0_0_d8cde00326" y="271.009156"/>
    </g>
    <g clip-path="url(#p07fbe5e37d)">
     <use style="fill:#ffffff;stroke:#ffffff;" x="706.795132" xlink:href="#C0_0_d8cde00326" y="271.009156"/>
    </g>
    <g clip-path="url(#p07fbe5e37d)">
     <use style="fill:#ffffff;stroke:#ffffff;" x="637.763016" xlink:href="#C0_0_d8cde00326" y="351.315924"/>
    </g>
    <g clip-path="url(#p07fbe5e37d)">
     <use style="fill:#ffffff;stroke:#ffffff;" x="683.784426" xlink:href="#C0_0_d8cde00326" y="351.315924"/>
    </g>
    <g clip-path="url(#p07fbe5e37d)">
     <use style="fill:#ffffff;stroke:#ffffff;" x="729.805837" xlink:href="#C0_0_d8cde00326" y="351.315924"/>
    </g>
    <g clip-path="url(#p07fbe5e37d)">
     <use style="fill:#ffffff;stroke:#ffffff;" x="545.720194" xlink:href="#C0_0_d8cde00326" y="351.315924"/>
    </g>
    <g clip-path="url(#p07fbe5e37d)">
     <use style="fill:#ffffff;stroke:#ffffff;" x="591.741605" xlink:href="#C0_0_d8cde00326" y="351.315924"/>
    </g>
    <g clip-path="url(#p07fbe5e37d)">
     <use style="fill:#ffffff;stroke:#ffffff;" x="269.591729" xlink:href="#C0_0_d8cde00326" y="351.315924"/>
    </g>
    <g clip-path="url(#p07fbe5e37d)">
     <use style="fill:#ffffff;stroke:#ffffff;" x="315.61314" xlink:href="#C0_0_d8cde00326" y="351.315924"/>
    </g>
    <g clip-path="url(#p07fbe5e37d)">
     <use style="fill:#ffffff;stroke:#ffffff;" x="407.655961" xlink:href="#C0_0_d8cde00326" y="271.009156"/>
    </g>
    <g clip-path="url(#p07fbe5e37d)">
     <use style="fill:#ffffff;stroke:#ffffff;" x="361.63455" xlink:href="#C0_0_d8cde00326" y="351.315924"/>
    </g>
    <g clip-path="url(#p07fbe5e37d)">
     <use style="fill:#ffffff;stroke:#ffffff;" x="407.655961" xlink:href="#C0_0_d8cde00326" y="351.315924"/>
    </g>
    <g clip-path="url(#p07fbe5e37d)">
     <use style="fill:#ffffff;stroke:#ffffff;" x="453.677372" xlink:href="#C0_0_d8cde00326" y="351.315924"/>
    </g>
    <g clip-path="url(#p07fbe5e37d)">
     <use style="fill:#ffffff;stroke:#ffffff;" x="821.848659" xlink:href="#C0_0_d8cde00326" y="431.622692"/>
    </g>
    <g clip-path="url(#p07fbe5e37d)">
     <use style="fill:#ffffff;stroke:#ffffff;" x="62.49538" xlink:href="#C0_0_d8cde00326" y="271.009156"/>
    </g>
    <g clip-path="url(#p07fbe5e37d)">
     <use style="fill:#ffffff;stroke:#ffffff;" x="131.527496" xlink:href="#C0_0_d8cde00326" y="351.315924"/>
    </g>
    <g clip-path="url(#p07fbe5e37d)">
     <use style="fill:#ffffff;stroke:#ffffff;" x="177.548907" xlink:href="#C0_0_d8cde00326" y="351.315924"/>
    </g>
    <g clip-path="url(#p07fbe5e37d)">
     <use style="fill:#ffffff;stroke:#ffffff;" x="39.484674" xlink:href="#C0_0_d8cde00326" y="351.315924"/>
    </g>
    <g clip-path="url(#p07fbe5e37d)">
     <use style="fill:#ffffff;stroke:#ffffff;" x="85.506085" xlink:href="#C0_0_d8cde00326" y="351.315924"/>
    </g>
    <g clip-path="url(#p07fbe5e37d)">
     <use style="fill:#ffffff;stroke:#ffffff;" x="223.570318" xlink:href="#C0_0_d8cde00326" y="351.315924"/>
    </g>
    <g clip-path="url(#p07fbe5e37d)">
     <use style="fill:#ffffff;stroke:#ffffff;" x="775.827248" xlink:href="#C0_0_d8cde00326" y="351.315924"/>
    </g>
   </g>
   <g id="text_43">
    <g clip-path="url(#p07fbe5e37d)">
     <!-- Public -->
     <defs>
      <path d="M 8.5 21.578125 
L 8.5 54.6875 
L 17.484375 54.6875 
L 17.484375 21.921875 
Q 17.484375 14.15625 20.5 10.265625 
Q 23.53125 6.390625 29.59375 6.390625 
Q 36.859375 6.390625 41.078125 11.03125 
Q 45.3125 15.671875 45.3125 23.6875 
L 45.3125 54.6875 
L 54.296875 54.6875 
L 54.296875 0 
L 45.3125 0 
L 45.3125 8.40625 
Q 42.046875 3.421875 37.71875 1 
Q 33.40625 -1.421875 27.6875 -1.421875 
Q 18.265625 -1.421875 13.375 4.4375 
Q 8.5 10.296875 8.5 21.578125 
z
M 31.109375 56 
z
" id="DejaVuSans-117"/>
      <path d="M 48.6875 27.296875 
Q 48.6875 37.203125 44.609375 42.84375 
Q 40.53125 48.484375 33.40625 48.484375 
Q 26.265625 48.484375 22.1875 42.84375 
Q 18.109375 37.203125 18.109375 27.296875 
Q 18.109375 17.390625 22.1875 11.75 
Q 26.265625 6.109375 33.40625 6.109375 
Q 40.53125 6.109375 44.609375 11.75 
Q 48.6875 17.390625 48.6875 27.296875 
z
M 18.109375 46.390625 
Q 20.953125 51.265625 25.265625 53.625 
Q 29.59375 56 35.59375 56 
Q 45.5625 56 51.78125 48.09375 
Q 58.015625 40.1875 58.015625 27.296875 
Q 58.015625 14.40625 51.78125 6.484375 
Q 45.5625 -1.421875 35.59375 -1.421875 
Q 29.59375 -1.421875 25.265625 0.953125 
Q 20.953125 3.328125 18.109375 8.203125 
L 18.109375 0 
L 9.078125 0 
L 9.078125 75.984375 
L 18.109375 75.984375 
z
" id="DejaVuSans-98"/>
      <path d="M 48.78125 52.59375 
L 48.78125 44.1875 
Q 44.96875 46.296875 41.140625 47.34375 
Q 37.3125 48.390625 33.40625 48.390625 
Q 24.65625 48.390625 19.8125 42.84375 
Q 14.984375 37.3125 14.984375 27.296875 
Q 14.984375 17.28125 19.8125 11.734375 
Q 24.65625 6.203125 33.40625 6.203125 
Q 37.3125 6.203125 41.140625 7.25 
Q 44.96875 8.296875 48.78125 10.40625 
L 48.78125 2.09375 
Q 45.015625 0.34375 40.984375 -0.53125 
Q 36.96875 -1.421875 32.421875 -1.421875 
Q 20.0625 -1.421875 12.78125 6.34375 
Q 5.515625 14.109375 5.515625 27.296875 
Q 5.515625 40.671875 12.859375 48.328125 
Q 20.21875 56 33.015625 56 
Q 37.15625 56 41.109375 55.140625 
Q 45.0625 54.296875 48.78125 52.59375 
z
" id="DejaVuSans-99"/>
     </defs>
     <g transform="translate(24.600299 434.382067)scale(0.1 -0.1)">
      <use xlink:href="#DejaVuSans-80"/>
      <use x="60.287109" xlink:href="#DejaVuSans-117"/>
      <use x="123.666016" xlink:href="#DejaVuSans-98"/>
      <use x="187.142578" xlink:href="#DejaVuSans-108"/>
      <use x="214.925781" xlink:href="#DejaVuSans-105"/>
      <use x="242.708984" xlink:href="#DejaVuSans-99"/>
     </g>
    </g>
   </g>
   <g id="text_44">
    <g clip-path="url(#p07fbe5e37d)">
     <!-- opinion -->
     <defs>
      <path d="M 30.609375 48.390625 
Q 23.390625 48.390625 19.1875 42.75 
Q 14.984375 37.109375 14.984375 27.296875 
Q 14.984375 17.484375 19.15625 11.84375 
Q 23.34375 6.203125 30.609375 6.203125 
Q 37.796875 6.203125 41.984375 11.859375 
Q 46.1875 17.53125 46.1875 27.296875 
Q 46.1875 37.015625 41.984375 42.703125 
Q 37.796875 48.390625 30.609375 48.390625 
z
M 30.609375 56 
Q 42.328125 56 49.015625 48.375 
Q 55.71875 40.765625 55.71875 27.296875 
Q 55.71875 13.875 49.015625 6.21875 
Q 42.328125 -1.421875 30.609375 -1.421875 
Q 18.84375 -1.421875 12.171875 6.21875 
Q 5.515625 13.875 5.515625 27.296875 
Q 5.515625 40.765625 12.171875 48.375 
Q 18.84375 56 30.609375 56 
z
" id="DejaVuSans-111"/>
      <path d="M 18.109375 8.203125 
L 18.109375 -20.796875 
L 9.078125 -20.796875 
L 9.078125 54.6875 
L 18.109375 54.6875 
L 18.109375 46.390625 
Q 20.953125 51.265625 25.265625 53.625 
Q 29.59375 56 35.59375 56 
Q 45.5625 56 51.78125 48.09375 
Q 58.015625 40.1875 58.015625 27.296875 
Q 58.015625 14.40625 51.78125 6.484375 
Q 45.5625 -1.421875 35.59375 -1.421875 
Q 29.59375 -1.421875 25.265625 0.953125 
Q 20.953125 3.328125 18.109375 8.203125 
z
M 48.6875 27.296875 
Q 48.6875 37.203125 44.609375 42.84375 
Q 40.53125 48.484375 33.40625 48.484375 
Q 26.265625 48.484375 22.1875 42.84375 
Q 18.109375 37.203125 18.109375 27.296875 
Q 18.109375 17.390625 22.1875 11.75 
Q 26.265625 6.109375 33.40625 6.109375 
Q 40.53125 6.109375 44.609375 11.75 
Q 48.6875 17.390625 48.6875 27.296875 
z
" id="DejaVuSans-112"/>
     </defs>
     <g transform="translate(67.097491 434.382067)scale(0.1 -0.1)">
      <use xlink:href="#DejaVuSans-111"/>
      <use x="61.181641" xlink:href="#DejaVuSans-112"/>
      <use x="124.658203" xlink:href="#DejaVuSans-105"/>
      <use x="152.441406" xlink:href="#DejaVuSans-110"/>
      <use x="215.820312" xlink:href="#DejaVuSans-105"/>
      <use x="243.603516" xlink:href="#DejaVuSans-111"/>
      <use x="304.785156" xlink:href="#DejaVuSans-110"/>
     </g>
    </g>
   </g>
   <g id="text_45">
    <g clip-path="url(#p07fbe5e37d)">
     <!-- being -->
     <defs>
      <path d="M 45.40625 27.984375 
Q 45.40625 37.75 41.375 43.109375 
Q 37.359375 48.484375 30.078125 48.484375 
Q 22.859375 48.484375 18.828125 43.109375 
Q 14.796875 37.75 14.796875 27.984375 
Q 14.796875 18.265625 18.828125 12.890625 
Q 22.859375 7.515625 30.078125 7.515625 
Q 37.359375 7.515625 41.375 12.890625 
Q 45.40625 18.265625 45.40625 27.984375 
z
M 54.390625 6.78125 
Q 54.390625 -7.171875 48.1875 -13.984375 
Q 42 -20.796875 29.203125 -20.796875 
Q 24.46875 -20.796875 20.265625 -20.09375 
Q 16.0625 -19.390625 12.109375 -17.921875 
L 12.109375 -9.1875 
Q 16.0625 -11.328125 19.921875 -12.34375 
Q 23.78125 -13.375 27.78125 -13.375 
Q 36.625 -13.375 41.015625 -8.765625 
Q 45.40625 -4.15625 45.40625 5.171875 
L 45.40625 9.625 
Q 42.625 4.78125 38.28125 2.390625 
Q 33.9375 0 27.875 0 
Q 17.828125 0 11.671875 7.65625 
Q 5.515625 15.328125 5.515625 27.984375 
Q 5.515625 40.671875 11.671875 48.328125 
Q 17.828125 56 27.875 56 
Q 33.9375 56 38.28125 53.609375 
Q 42.625 51.21875 45.40625 46.390625 
L 45.40625 54.6875 
L 54.390625 54.6875 
z
" id="DejaVuSans-103"/>
     </defs>
     <g transform="translate(117.544684 434.382067)scale(0.1 -0.1)">
      <use xlink:href="#DejaVuSans-98"/>
      <use x="63.476562" xlink:href="#DejaVuSans-101"/>
      <use x="125" xlink:href="#DejaVuSans-105"/>
      <use x="152.783203" xlink:href="#DejaVuSans-110"/>
      <use x="216.162109" xlink:href="#DejaVuSans-103"/>
     </g>
    </g>
   </g>
   <g id="text_46">
    <g clip-path="url(#p07fbe5e37d)">
     <!-- pronounced -->
     <defs>
      <path d="M 45.40625 46.390625 
L 45.40625 75.984375 
L 54.390625 75.984375 
L 54.390625 0 
L 45.40625 0 
L 45.40625 8.203125 
Q 42.578125 3.328125 38.25 0.953125 
Q 33.9375 -1.421875 27.875 -1.421875 
Q 17.96875 -1.421875 11.734375 6.484375 
Q 5.515625 14.40625 5.515625 27.296875 
Q 5.515625 40.1875 11.734375 48.09375 
Q 17.96875 56 27.875 56 
Q 33.9375 56 38.25 53.625 
Q 42.578125 51.265625 45.40625 46.390625 
z
M 14.796875 27.296875 
Q 14.796875 17.390625 18.875 11.75 
Q 22.953125 6.109375 30.078125 6.109375 
Q 37.203125 6.109375 41.296875 11.75 
Q 45.40625 17.390625 45.40625 27.296875 
Q 45.40625 37.203125 41.296875 42.84375 
Q 37.203125 48.484375 30.078125 48.484375 
Q 22.953125 48.484375 18.875 42.84375 
Q 14.796875 37.203125 14.796875 27.296875 
z
" id="DejaVuSans-100"/>
     </defs>
     <g transform="translate(147.695782 434.382067)scale(0.1 -0.1)">
      <use xlink:href="#DejaVuSans-112"/>
      <use x="63.476562" xlink:href="#DejaVuSans-114"/>
      <use x="104.558594" xlink:href="#DejaVuSans-111"/>
      <use x="165.740234" xlink:href="#DejaVuSans-110"/>
      <use x="229.119141" xlink:href="#DejaVuSans-111"/>
      <use x="290.300781" xlink:href="#DejaVuSans-117"/>
      <use x="353.679688" xlink:href="#DejaVuSans-110"/>
      <use x="417.058594" xlink:href="#DejaVuSans-99"/>
      <use x="472.039062" xlink:href="#DejaVuSans-101"/>
      <use x="533.5625" xlink:href="#DejaVuSans-100"/>
     </g>
    </g>
   </g>
   <g id="text_47">
    <g clip-path="url(#p07fbe5e37d)">
     <!-- , -->
     <defs>
      <path d="M 11.71875 12.40625 
L 22.015625 12.40625 
L 22.015625 4 
L 14.015625 -11.625 
L 7.71875 -11.625 
L 11.71875 4 
z
" id="DejaVuSans-44"/>
     </defs>
     <g transform="translate(221.981255 434.382067)scale(0.1 -0.1)">
      <use xlink:href="#DejaVuSans-44"/>
     </g>
    </g>
   </g>
   <g id="text_48">
    <g clip-path="url(#p07fbe5e37d)">
     <!-- the -->
     <defs>
      <path d="M 18.3125 70.21875 
L 18.3125 54.6875 
L 36.8125 54.6875 
L 36.8125 47.703125 
L 18.3125 47.703125 
L 18.3125 18.015625 
Q 18.3125 11.328125 20.140625 9.421875 
Q 21.96875 7.515625 27.59375 7.515625 
L 36.8125 7.515625 
L 36.8125 0 
L 27.59375 0 
Q 17.1875 0 13.234375 3.875 
Q 9.28125 7.765625 9.28125 18.015625 
L 9.28125 47.703125 
L 2.6875 47.703125 
L 2.6875 54.6875 
L 9.28125 54.6875 
L 9.28125 70.21875 
z
" id="DejaVuSans-116"/>
      <path d="M 54.890625 33.015625 
L 54.890625 0 
L 45.90625 0 
L 45.90625 32.71875 
Q 45.90625 40.484375 42.875 44.328125 
Q 39.84375 48.1875 33.796875 48.1875 
Q 26.515625 48.1875 22.3125 43.546875 
Q 18.109375 38.921875 18.109375 30.90625 
L 18.109375 0 
L 9.078125 0 
L 9.078125 75.984375 
L 18.109375 75.984375 
L 18.109375 46.1875 
Q 21.34375 51.125 25.703125 53.5625 
Q 30.078125 56 35.796875 56 
Q 45.21875 56 50.046875 50.171875 
Q 54.890625 44.34375 54.890625 33.015625 
z
" id="DejaVuSans-104"/>
     </defs>
     <g transform="translate(261.38626 434.382067)scale(0.1 -0.1)">
      <use xlink:href="#DejaVuSans-116"/>
      <use x="39.208984" xlink:href="#DejaVuSans-104"/>
      <use x="102.587891" xlink:href="#DejaVuSans-101"/>
     </g>
    </g>
   </g>
   <g id="text_49">
    <g clip-path="url(#p07fbe5e37d)">
     <!-- States -->
     <defs>
      <path d="M 44.28125 53.078125 
L 44.28125 44.578125 
Q 40.484375 46.53125 36.375 47.5 
Q 32.28125 48.484375 27.875 48.484375 
Q 21.1875 48.484375 17.84375 46.4375 
Q 14.5 44.390625 14.5 40.28125 
Q 14.5 37.15625 16.890625 35.375 
Q 19.28125 33.59375 26.515625 31.984375 
L 29.59375 31.296875 
Q 39.15625 29.25 43.1875 25.515625 
Q 47.21875 21.78125 47.21875 15.09375 
Q 47.21875 7.46875 41.1875 3.015625 
Q 35.15625 -1.421875 24.609375 -1.421875 
Q 20.21875 -1.421875 15.453125 -0.5625 
Q 10.6875 0.296875 5.421875 2 
L 5.421875 11.28125 
Q 10.40625 8.6875 15.234375 7.390625 
Q 20.0625 6.109375 24.8125 6.109375 
Q 31.15625 6.109375 34.5625 8.28125 
Q 37.984375 10.453125 37.984375 14.40625 
Q 37.984375 18.0625 35.515625 20.015625 
Q 33.0625 21.96875 24.703125 23.78125 
L 21.578125 24.515625 
Q 13.234375 26.265625 9.515625 29.90625 
Q 5.8125 33.546875 5.8125 39.890625 
Q 5.8125 47.609375 11.28125 51.796875 
Q 16.75 56 26.8125 56 
Q 31.78125 56 36.171875 55.265625 
Q 40.578125 54.546875 44.28125 53.078125 
z
" id="DejaVuSans-115"/>
     </defs>
     <g transform="translate(299.773296 434.382067)scale(0.1 -0.1)">
      <use xlink:href="#DejaVuSans-83"/>
      <use x="63.476562" xlink:href="#DejaVuSans-116"/>
      <use x="102.685547" xlink:href="#DejaVuSans-97"/>
      <use x="163.964844" xlink:href="#DejaVuSans-116"/>
      <use x="203.173828" xlink:href="#DejaVuSans-101"/>
      <use x="264.697266" xlink:href="#DejaVuSans-115"/>
     </g>
    </g>
   </g>
   <g id="text_50">
    <g clip-path="url(#p07fbe5e37d)">
     <!-- of -->
     <defs>
      <path d="M 37.109375 75.984375 
L 37.109375 68.5 
L 28.515625 68.5 
Q 23.6875 68.5 21.796875 66.546875 
Q 19.921875 64.59375 19.921875 59.515625 
L 19.921875 54.6875 
L 34.71875 54.6875 
L 34.71875 47.703125 
L 19.921875 47.703125 
L 19.921875 0 
L 10.890625 0 
L 10.890625 47.703125 
L 2.296875 47.703125 
L 2.296875 54.6875 
L 10.890625 54.6875 
L 10.890625 58.5 
Q 10.890625 67.625 15.140625 71.796875 
Q 19.390625 75.984375 28.609375 75.984375 
z
" id="DejaVuSans-102"/>
     </defs>
     <g transform="translate(356.815019 434.382067)scale(0.1 -0.1)">
      <use xlink:href="#DejaVuSans-111"/>
      <use x="61.181641" xlink:href="#DejaVuSans-102"/>
     </g>
    </g>
   </g>
   <g id="text_51">
    <g clip-path="url(#p07fbe5e37d)">
     <!-- the -->
     <g transform="translate(399.450492 434.382067)scale(0.1 -0.1)">
      <use xlink:href="#DejaVuSans-116"/>
      <use x="39.208984" xlink:href="#DejaVuSans-104"/>
      <use x="102.587891" xlink:href="#DejaVuSans-101"/>
     </g>
    </g>
   </g>
   <g id="text_52">
    <g clip-path="url(#p07fbe5e37d)">
     <!-- Union -->
     <g transform="translate(439.23206 434.382067)scale(0.1 -0.1)">
      <use xlink:href="#DejaVuSans-85"/>
      <use x="73.193359" xlink:href="#DejaVuSans-110"/>
      <use x="136.572266" xlink:href="#DejaVuSans-105"/>
      <use x="164.355469" xlink:href="#DejaVuSans-111"/>
      <use x="225.537109" xlink:href="#DejaVuSans-110"/>
     </g>
    </g>
   </g>
   <g id="text_53">
    <g clip-path="url(#p07fbe5e37d)">
     <!-- were -->
     <defs>
      <path d="M 4.203125 54.6875 
L 13.1875 54.6875 
L 24.421875 12.015625 
L 35.59375 54.6875 
L 46.1875 54.6875 
L 57.421875 12.015625 
L 68.609375 54.6875 
L 77.59375 54.6875 
L 63.28125 0 
L 52.6875 0 
L 40.921875 44.828125 
L 29.109375 0 
L 18.5 0 
z
" id="DejaVuSans-119"/>
     </defs>
     <g transform="translate(487.402689 434.382067)scale(0.1 -0.1)">
      <use xlink:href="#DejaVuSans-119"/>
      <use x="81.787109" xlink:href="#DejaVuSans-101"/>
      <use x="143.310547" xlink:href="#DejaVuSans-114"/>
      <use x="184.392578" xlink:href="#DejaVuSans-101"/>
     </g>
    </g>
   </g>
   <g id="text_54">
    <g clip-path="url(#p07fbe5e37d)">
     <!-- the -->
     <g transform="translate(537.514725 434.382067)scale(0.1 -0.1)">
      <use xlink:href="#DejaVuSans-116"/>
      <use x="39.208984" xlink:href="#DejaVuSans-104"/>
      <use x="102.587891" xlink:href="#DejaVuSans-101"/>
     </g>
    </g>
   </g>
   <g id="text_55">
    <g clip-path="url(#p07fbe5e37d)">
     <!-- first -->
     <g transform="translate(581.972073 434.382067)scale(0.1 -0.1)">
      <use xlink:href="#DejaVuSans-102"/>
      <use x="35.205078" xlink:href="#DejaVuSans-105"/>
      <use x="62.988281" xlink:href="#DejaVuSans-114"/>
      <use x="104.101562" xlink:href="#DejaVuSans-115"/>
      <use x="156.201172" xlink:href="#DejaVuSans-116"/>
     </g>
    </g>
   </g>
   <g id="text_56">
    <g clip-path="url(#p07fbe5e37d)">
     <!-- in -->
     <g transform="translate(633.205203 434.382067)scale(0.1 -0.1)">
      <use xlink:href="#DejaVuSans-105"/>
      <use x="27.783203" xlink:href="#DejaVuSans-110"/>
     </g>
    </g>
   </g>
   <g id="text_57">
    <g clip-path="url(#p07fbe5e37d)">
     <!-- the -->
     <g transform="translate(675.578958 434.382067)scale(0.1 -0.1)">
      <use xlink:href="#DejaVuSans-116"/>
      <use x="39.208984" xlink:href="#DejaVuSans-104"/>
      <use x="102.587891" xlink:href="#DejaVuSans-101"/>
     </g>
    </g>
   </g>
   <g id="text_58">
    <g clip-path="url(#p07fbe5e37d)">
     <!-- field -->
     <g transform="translate(719.016775 434.382067)scale(0.1 -0.1)">
      <use xlink:href="#DejaVuSans-102"/>
      <use x="35.205078" xlink:href="#DejaVuSans-105"/>
      <use x="62.988281" xlink:href="#DejaVuSans-101"/>
      <use x="124.511719" xlink:href="#DejaVuSans-108"/>
      <use x="152.294922" xlink:href="#DejaVuSans-100"/>
     </g>
    </g>
   </g>
   <g id="text_59">
    <g clip-path="url(#p07fbe5e37d)">
     <!-- . -->
     <defs>
      <path d="M 10.6875 12.40625 
L 21 12.40625 
L 21 0 
L 10.6875 0 
z
" id="DejaVuSans-46"/>
     </defs>
     <g transform="translate(774.238186 434.382067)scale(0.1 -0.1)">
      <use xlink:href="#DejaVuSans-46"/>
     </g>
    </g>
   </g>
   <g id="text_60">
    <g clip-path="url(#p07fbe5e37d)">
     <!-- 1.1 -->
     <defs>
      <path d="M 12.40625 8.296875 
L 28.515625 8.296875 
L 28.515625 63.921875 
L 10.984375 60.40625 
L 10.984375 69.390625 
L 28.421875 72.90625 
L 38.28125 72.90625 
L 38.28125 8.296875 
L 54.390625 8.296875 
L 54.390625 0 
L 12.40625 0 
z
" id="DejaVuSans-49"/>
     </defs>
     <g transform="translate(341.538449 24.470017)scale(0.1 -0.1)">
      <use xlink:href="#DejaVuSans-49"/>
      <use x="63.623047" xlink:href="#DejaVuSans-46"/>
      <use x="95.410156" xlink:href="#DejaVuSans-49"/>
     </g>
    </g>
   </g>
   <g id="text_61">
    <g clip-path="url(#p07fbe5e37d)">
     <!-- 1.2 -->
     <defs>
      <path d="M 19.1875 8.296875 
L 53.609375 8.296875 
L 53.609375 0 
L 7.328125 0 
L 7.328125 8.296875 
Q 12.9375 14.109375 22.625 23.890625 
Q 32.328125 33.6875 34.8125 36.53125 
Q 39.546875 41.84375 41.421875 45.53125 
Q 43.3125 49.21875 43.3125 52.78125 
Q 43.3125 58.59375 39.234375 62.25 
Q 35.15625 65.921875 28.609375 65.921875 
Q 23.96875 65.921875 18.8125 64.3125 
Q 13.671875 62.703125 7.8125 59.421875 
L 7.8125 69.390625 
Q 13.765625 71.78125 18.9375 73 
Q 24.125 74.21875 28.421875 74.21875 
Q 39.75 74.21875 46.484375 68.546875 
Q 53.21875 62.890625 53.21875 53.421875 
Q 53.21875 48.921875 51.53125 44.890625 
Q 49.859375 40.875 45.40625 35.40625 
Q 44.1875 33.984375 37.640625 27.21875 
Q 31.109375 20.453125 19.1875 8.296875 
z
" id="DejaVuSans-50"/>
     </defs>
     <g transform="translate(290.403548 192.344608)scale(0.1 -0.1)">
      <use xlink:href="#DejaVuSans-49"/>
      <use x="63.623047" xlink:href="#DejaVuSans-46"/>
      <use x="95.410156" xlink:href="#DejaVuSans-50"/>
     </g>
    </g>
   </g>
   <g id="text_62">
    <g clip-path="url(#p07fbe5e37d)">
     <!-- 1.3 -->
     <defs>
      <path d="M 40.578125 39.3125 
Q 47.65625 37.796875 51.625 33 
Q 55.609375 28.21875 55.609375 21.1875 
Q 55.609375 10.40625 48.1875 4.484375 
Q 40.765625 -1.421875 27.09375 -1.421875 
Q 22.515625 -1.421875 17.65625 -0.515625 
Q 12.796875 0.390625 7.625 2.203125 
L 7.625 11.71875 
Q 11.71875 9.328125 16.59375 8.109375 
Q 21.484375 6.890625 26.8125 6.890625 
Q 36.078125 6.890625 40.9375 10.546875 
Q 45.796875 14.203125 45.796875 21.1875 
Q 45.796875 27.640625 41.28125 31.265625 
Q 36.765625 34.90625 28.71875 34.90625 
L 20.21875 34.90625 
L 20.21875 43.015625 
L 29.109375 43.015625 
Q 36.375 43.015625 40.234375 45.921875 
Q 44.09375 48.828125 44.09375 54.296875 
Q 44.09375 59.90625 40.109375 62.90625 
Q 36.140625 65.921875 28.71875 65.921875 
Q 24.65625 65.921875 20.015625 65.03125 
Q 15.375 64.15625 9.8125 62.3125 
L 9.8125 71.09375 
Q 15.4375 72.65625 20.34375 73.4375 
Q 25.25 74.21875 29.59375 74.21875 
Q 40.828125 74.21875 47.359375 69.109375 
Q 53.90625 64.015625 53.90625 55.328125 
Q 53.90625 49.265625 50.4375 45.09375 
Q 46.96875 40.921875 40.578125 39.3125 
z
" id="DejaVuSans-51"/>
     </defs>
     <g transform="translate(518.593043 109.352806)scale(0.1 -0.1)">
      <use xlink:href="#DejaVuSans-49"/>
      <use x="63.623047" xlink:href="#DejaVuSans-46"/>
      <use x="95.410156" xlink:href="#DejaVuSans-51"/>
     </g>
    </g>
   </g>
   <g id="text_63">
    <g clip-path="url(#p07fbe5e37d)">
     <!-- 1.6 -->
     <defs>
      <path d="M 33.015625 40.375 
Q 26.375 40.375 22.484375 35.828125 
Q 18.609375 31.296875 18.609375 23.390625 
Q 18.609375 15.53125 22.484375 10.953125 
Q 26.375 6.390625 33.015625 6.390625 
Q 39.65625 6.390625 43.53125 10.953125 
Q 47.40625 15.53125 47.40625 23.390625 
Q 47.40625 31.296875 43.53125 35.828125 
Q 39.65625 40.375 33.015625 40.375 
z
M 52.59375 71.296875 
L 52.59375 62.3125 
Q 48.875 64.0625 45.09375 64.984375 
Q 41.3125 65.921875 37.59375 65.921875 
Q 27.828125 65.921875 22.671875 59.328125 
Q 17.53125 52.734375 16.796875 39.40625 
Q 19.671875 43.65625 24.015625 45.921875 
Q 28.375 48.1875 33.59375 48.1875 
Q 44.578125 48.1875 50.953125 41.515625 
Q 57.328125 34.859375 57.328125 23.390625 
Q 57.328125 12.15625 50.6875 5.359375 
Q 44.046875 -1.421875 33.015625 -1.421875 
Q 20.359375 -1.421875 13.671875 8.265625 
Q 6.984375 17.96875 6.984375 36.375 
Q 6.984375 53.65625 15.1875 63.9375 
Q 23.390625 74.21875 37.203125 74.21875 
Q 40.921875 74.21875 44.703125 73.484375 
Q 48.484375 72.75 52.59375 71.296875 
z
" id="DejaVuSans-54"/>
     </defs>
     <g transform="translate(323.002047 192.344608)scale(0.1 -0.1)">
      <use xlink:href="#DejaVuSans-49"/>
      <use x="63.623047" xlink:href="#DejaVuSans-46"/>
      <use x="95.410156" xlink:href="#DejaVuSans-54"/>
     </g>
    </g>
   </g>
   <g id="text_64">
    <g clip-path="url(#p07fbe5e37d)">
     <!-- 1.7 -->
     <defs>
      <path d="M 8.203125 72.90625 
L 55.078125 72.90625 
L 55.078125 68.703125 
L 28.609375 0 
L 18.3125 0 
L 43.21875 64.59375 
L 8.203125 64.59375 
z
" id="DejaVuSans-55"/>
     </defs>
     <g transform="translate(491.74722 354.075299)scale(0.1 -0.1)">
      <use xlink:href="#DejaVuSans-49"/>
      <use x="63.623047" xlink:href="#DejaVuSans-46"/>
      <use x="95.410156" xlink:href="#DejaVuSans-55"/>
     </g>
    </g>
   </g>
   <g id="text_65">
    <g clip-path="url(#p07fbe5e37d)">
     <!-- 1.8 -->
     <defs>
      <path d="M 31.78125 34.625 
Q 24.75 34.625 20.71875 30.859375 
Q 16.703125 27.09375 16.703125 20.515625 
Q 16.703125 13.921875 20.71875 10.15625 
Q 24.75 6.390625 31.78125 6.390625 
Q 38.8125 6.390625 42.859375 10.171875 
Q 46.921875 13.96875 46.921875 20.515625 
Q 46.921875 27.09375 42.890625 30.859375 
Q 38.875 34.625 31.78125 34.625 
z
M 21.921875 38.8125 
Q 15.578125 40.375 12.03125 44.71875 
Q 8.5 49.078125 8.5 55.328125 
Q 8.5 64.0625 14.71875 69.140625 
Q 20.953125 74.21875 31.78125 74.21875 
Q 42.671875 74.21875 48.875 69.140625 
Q 55.078125 64.0625 55.078125 55.328125 
Q 55.078125 49.078125 51.53125 44.71875 
Q 48 40.375 41.703125 38.8125 
Q 48.828125 37.15625 52.796875 32.3125 
Q 56.78125 27.484375 56.78125 20.515625 
Q 56.78125 9.90625 50.3125 4.234375 
Q 43.84375 -1.421875 31.78125 -1.421875 
Q 19.734375 -1.421875 13.25 4.234375 
Q 6.78125 9.90625 6.78125 20.515625 
Q 6.78125 27.484375 10.78125 32.3125 
Q 14.796875 37.15625 21.921875 38.8125 
z
M 18.3125 54.390625 
Q 18.3125 48.734375 21.84375 45.5625 
Q 25.390625 42.390625 31.78125 42.390625 
Q 38.140625 42.390625 41.71875 45.5625 
Q 45.3125 48.734375 45.3125 54.390625 
Q 45.3125 60.0625 41.71875 63.234375 
Q 38.140625 66.40625 31.78125 66.40625 
Q 25.390625 66.40625 21.84375 63.234375 
Q 18.3125 60.0625 18.3125 54.390625 
z
" id="DejaVuSans-56"/>
     </defs>
     <g transform="translate(560.779337 273.768531)scale(0.1 -0.1)">
      <use xlink:href="#DejaVuSans-49"/>
      <use x="63.623047" xlink:href="#DejaVuSans-46"/>
      <use x="95.410156" xlink:href="#DejaVuSans-56"/>
     </g>
    </g>
   </g>
   <g id="text_66">
    <g clip-path="url(#p07fbe5e37d)">
     <!-- 1.9 -->
     <defs>
      <path d="M 10.984375 1.515625 
L 10.984375 10.5 
Q 14.703125 8.734375 18.5 7.8125 
Q 22.3125 6.890625 25.984375 6.890625 
Q 35.75 6.890625 40.890625 13.453125 
Q 46.046875 20.015625 46.78125 33.40625 
Q 43.953125 29.203125 39.59375 26.953125 
Q 35.25 24.703125 29.984375 24.703125 
Q 19.046875 24.703125 12.671875 31.3125 
Q 6.296875 37.9375 6.296875 49.421875 
Q 6.296875 60.640625 12.9375 67.421875 
Q 19.578125 74.21875 30.609375 74.21875 
Q 43.265625 74.21875 49.921875 64.515625 
Q 56.59375 54.828125 56.59375 36.375 
Q 56.59375 19.140625 48.40625 8.859375 
Q 40.234375 -1.421875 26.421875 -1.421875 
Q 22.703125 -1.421875 18.890625 -0.6875 
Q 15.09375 0.046875 10.984375 1.515625 
z
M 30.609375 32.421875 
Q 37.25 32.421875 41.125 36.953125 
Q 45.015625 41.5 45.015625 49.421875 
Q 45.015625 57.28125 41.125 61.84375 
Q 37.25 66.40625 30.609375 66.40625 
Q 23.96875 66.40625 20.09375 61.84375 
Q 16.21875 57.28125 16.21875 49.421875 
Q 16.21875 41.5 20.09375 36.953125 
Q 23.96875 32.421875 30.609375 32.421875 
z
" id="DejaVuSans-57"/>
     </defs>
     <g transform="translate(698.843569 273.768531)scale(0.1 -0.1)">
      <use xlink:href="#DejaVuSans-49"/>
      <use x="63.623047" xlink:href="#DejaVuSans-46"/>
      <use x="95.410156" xlink:href="#DejaVuSans-57"/>
     </g>
    </g>
   </g>
   <g id="text_67">
    <g clip-path="url(#p07fbe5e37d)">
     <!-- 1.10 -->
     <defs>
      <path d="M 31.78125 66.40625 
Q 24.171875 66.40625 20.328125 58.90625 
Q 16.5 51.421875 16.5 36.375 
Q 16.5 21.390625 20.328125 13.890625 
Q 24.171875 6.390625 31.78125 6.390625 
Q 39.453125 6.390625 43.28125 13.890625 
Q 47.125 21.390625 47.125 36.375 
Q 47.125 51.421875 43.28125 58.90625 
Q 39.453125 66.40625 31.78125 66.40625 
z
M 31.78125 74.21875 
Q 44.046875 74.21875 50.515625 64.515625 
Q 56.984375 54.828125 56.984375 36.375 
Q 56.984375 17.96875 50.515625 8.265625 
Q 44.046875 -1.421875 31.78125 -1.421875 
Q 19.53125 -1.421875 13.0625 8.265625 
Q 6.59375 17.96875 6.59375 36.375 
Q 6.59375 54.828125 13.0625 64.515625 
Q 19.53125 74.21875 31.78125 74.21875 
z
" id="DejaVuSans-48"/>
     </defs>
     <g transform="translate(626.630203 354.075299)scale(0.1 -0.1)">
      <use xlink:href="#DejaVuSans-49"/>
      <use x="63.623047" xlink:href="#DejaVuSans-46"/>
      <use x="95.410156" xlink:href="#DejaVuSans-49"/>
      <use x="159.033203" xlink:href="#DejaVuSans-48"/>
     </g>
    </g>
   </g>
   <g id="text_68">
    <g clip-path="url(#p07fbe5e37d)">
     <!-- 1.11 -->
     <g transform="translate(672.651614 354.075299)scale(0.1 -0.1)">
      <use xlink:href="#DejaVuSans-49"/>
      <use x="63.623047" xlink:href="#DejaVuSans-46"/>
      <use x="95.410156" xlink:href="#DejaVuSans-49"/>
      <use x="159.033203" xlink:href="#DejaVuSans-49"/>
     </g>
    </g>
   </g>
   <g id="text_69">
    <g clip-path="url(#p07fbe5e37d)">
     <!-- 1.12 -->
     <g transform="translate(718.673025 354.075299)scale(0.1 -0.1)">
      <use xlink:href="#DejaVuSans-49"/>
      <use x="63.623047" xlink:href="#DejaVuSans-46"/>
      <use x="95.410156" xlink:href="#DejaVuSans-49"/>
      <use x="159.033203" xlink:href="#DejaVuSans-50"/>
     </g>
    </g>
   </g>
   <g id="text_70">
    <g clip-path="url(#p07fbe5e37d)">
     <!-- 1.13 -->
     <g transform="translate(534.587381 354.075299)scale(0.1 -0.1)">
      <use xlink:href="#DejaVuSans-49"/>
      <use x="63.623047" xlink:href="#DejaVuSans-46"/>
      <use x="95.410156" xlink:href="#DejaVuSans-49"/>
      <use x="159.033203" xlink:href="#DejaVuSans-51"/>
     </g>
    </g>
   </g>
   <g id="text_71">
    <g clip-path="url(#p07fbe5e37d)">
     <!-- 1.14 -->
     <defs>
      <path d="M 37.796875 64.3125 
L 12.890625 25.390625 
L 37.796875 25.390625 
z
M 35.203125 72.90625 
L 47.609375 72.90625 
L 47.609375 25.390625 
L 58.015625 25.390625 
L 58.015625 17.1875 
L 47.609375 17.1875 
L 47.609375 0 
L 37.796875 0 
L 37.796875 17.1875 
L 4.890625 17.1875 
L 4.890625 26.703125 
z
" id="DejaVuSans-52"/>
     </defs>
     <g transform="translate(580.608792 354.075299)scale(0.1 -0.1)">
      <use xlink:href="#DejaVuSans-49"/>
      <use x="63.623047" xlink:href="#DejaVuSans-46"/>
      <use x="95.410156" xlink:href="#DejaVuSans-49"/>
      <use x="159.033203" xlink:href="#DejaVuSans-52"/>
     </g>
    </g>
   </g>
   <g id="text_72">
    <g clip-path="url(#p07fbe5e37d)">
     <!-- 1.15 -->
     <defs>
      <path d="M 10.796875 72.90625 
L 49.515625 72.90625 
L 49.515625 64.59375 
L 19.828125 64.59375 
L 19.828125 46.734375 
Q 21.96875 47.46875 24.109375 47.828125 
Q 26.265625 48.1875 28.421875 48.1875 
Q 40.625 48.1875 47.75 41.5 
Q 54.890625 34.8125 54.890625 23.390625 
Q 54.890625 11.625 47.5625 5.09375 
Q 40.234375 -1.421875 26.90625 -1.421875 
Q 22.3125 -1.421875 17.546875 -0.640625 
Q 12.796875 0.140625 7.71875 1.703125 
L 7.71875 11.625 
Q 12.109375 9.234375 16.796875 8.0625 
Q 21.484375 6.890625 26.703125 6.890625 
Q 35.15625 6.890625 40.078125 11.328125 
Q 45.015625 15.765625 45.015625 23.390625 
Q 45.015625 31 40.078125 35.4375 
Q 35.15625 39.890625 26.703125 39.890625 
Q 22.75 39.890625 18.8125 39.015625 
Q 14.890625 38.140625 10.796875 36.28125 
z
" id="DejaVuSans-53"/>
     </defs>
     <g transform="translate(258.458916 354.075299)scale(0.1 -0.1)">
      <use xlink:href="#DejaVuSans-49"/>
      <use x="63.623047" xlink:href="#DejaVuSans-46"/>
      <use x="95.410156" xlink:href="#DejaVuSans-49"/>
      <use x="159.033203" xlink:href="#DejaVuSans-53"/>
     </g>
    </g>
   </g>
   <g id="text_73">
    <g clip-path="url(#p07fbe5e37d)">
     <!-- 1.16 -->
     <g transform="translate(304.480327 354.075299)scale(0.1 -0.1)">
      <use xlink:href="#DejaVuSans-49"/>
      <use x="63.623047" xlink:href="#DejaVuSans-46"/>
      <use x="95.410156" xlink:href="#DejaVuSans-49"/>
      <use x="159.033203" xlink:href="#DejaVuSans-54"/>
     </g>
    </g>
   </g>
   <g id="text_74">
    <g clip-path="url(#p07fbe5e37d)">
     <!-- 1.17 -->
     <g transform="translate(396.523149 273.768531)scale(0.1 -0.1)">
      <use xlink:href="#DejaVuSans-49"/>
      <use x="63.623047" xlink:href="#DejaVuSans-46"/>
      <use x="95.410156" xlink:href="#DejaVuSans-49"/>
      <use x="159.033203" xlink:href="#DejaVuSans-55"/>
     </g>
    </g>
   </g>
   <g id="text_75">
    <g clip-path="url(#p07fbe5e37d)">
     <!-- 1.18 -->
     <g transform="translate(350.501738 354.075299)scale(0.1 -0.1)">
      <use xlink:href="#DejaVuSans-49"/>
      <use x="63.623047" xlink:href="#DejaVuSans-46"/>
      <use x="95.410156" xlink:href="#DejaVuSans-49"/>
      <use x="159.033203" xlink:href="#DejaVuSans-56"/>
     </g>
    </g>
   </g>
   <g id="text_76">
    <g clip-path="url(#p07fbe5e37d)">
     <!-- 1.19 -->
     <g transform="translate(396.523149 354.075299)scale(0.1 -0.1)">
      <use xlink:href="#DejaVuSans-49"/>
      <use x="63.623047" xlink:href="#DejaVuSans-46"/>
      <use x="95.410156" xlink:href="#DejaVuSans-49"/>
      <use x="159.033203" xlink:href="#DejaVuSans-57"/>
     </g>
    </g>
   </g>
   <g id="text_77">
    <g clip-path="url(#p07fbe5e37d)">
     <!-- 1.20 -->
     <g transform="translate(442.54456 354.075299)scale(0.1 -0.1)">
      <use xlink:href="#DejaVuSans-49"/>
      <use x="63.623047" xlink:href="#DejaVuSans-46"/>
      <use x="95.410156" xlink:href="#DejaVuSans-50"/>
      <use x="159.033203" xlink:href="#DejaVuSans-48"/>
     </g>
    </g>
   </g>
   <g id="text_78">
    <g clip-path="url(#p07fbe5e37d)">
     <!-- IMPLICIT -->
     <defs>
      <path d="M 9.8125 72.90625 
L 19.671875 72.90625 
L 19.671875 0 
L 9.8125 0 
z
" id="DejaVuSans-73"/>
      <path d="M 9.8125 72.90625 
L 24.515625 72.90625 
L 43.109375 23.296875 
L 61.8125 72.90625 
L 76.515625 72.90625 
L 76.515625 0 
L 66.890625 0 
L 66.890625 64.015625 
L 48.09375 14.015625 
L 38.1875 14.015625 
L 19.390625 64.015625 
L 19.390625 0 
L 9.8125 0 
z
" id="DejaVuSans-77"/>
      <path d="M 9.8125 72.90625 
L 19.671875 72.90625 
L 19.671875 8.296875 
L 55.171875 8.296875 
L 55.171875 0 
L 9.8125 0 
z
" id="DejaVuSans-76"/>
     </defs>
     <g transform="translate(800.763503 434.382067)scale(0.1 -0.1)">
      <use xlink:href="#DejaVuSans-73"/>
      <use x="29.492188" xlink:href="#DejaVuSans-77"/>
      <use x="115.771484" xlink:href="#DejaVuSans-80"/>
      <use x="176.074219" xlink:href="#DejaVuSans-76"/>
      <use x="231.787109" xlink:href="#DejaVuSans-73"/>
      <use x="261.279297" xlink:href="#DejaVuSans-67"/>
      <use x="331.103516" xlink:href="#DejaVuSans-73"/>
      <use x="360.595703" xlink:href="#DejaVuSans-84"/>
     </g>
    </g>
   </g>
   <g id="text_79">
    <g clip-path="url(#p07fbe5e37d)">
     <!-- 1.22 -->
     <g transform="translate(51.362567 273.768531)scale(0.1 -0.1)">
      <use xlink:href="#DejaVuSans-49"/>
      <use x="63.623047" xlink:href="#DejaVuSans-46"/>
      <use x="95.410156" xlink:href="#DejaVuSans-50"/>
      <use x="159.033203" xlink:href="#DejaVuSans-50"/>
     </g>
    </g>
   </g>
   <g id="text_80">
    <g clip-path="url(#p07fbe5e37d)">
     <!-- 1.23 -->
     <g transform="translate(120.394684 354.075299)scale(0.1 -0.1)">
      <use xlink:href="#DejaVuSans-49"/>
      <use x="63.623047" xlink:href="#DejaVuSans-46"/>
      <use x="95.410156" xlink:href="#DejaVuSans-50"/>
      <use x="159.033203" xlink:href="#DejaVuSans-51"/>
     </g>
    </g>
   </g>
   <g id="text_81">
    <g clip-path="url(#p07fbe5e37d)">
     <!-- 1.24 -->
     <g transform="translate(166.416094 354.075299)scale(0.1 -0.1)">
      <use xlink:href="#DejaVuSans-49"/>
      <use x="63.623047" xlink:href="#DejaVuSans-46"/>
      <use x="95.410156" xlink:href="#DejaVuSans-50"/>
      <use x="159.033203" xlink:href="#DejaVuSans-52"/>
     </g>
    </g>
   </g>
   <g id="text_82">
    <g clip-path="url(#p07fbe5e37d)">
     <!-- 1.25 -->
     <g transform="translate(28.351862 354.075299)scale(0.1 -0.1)">
      <use xlink:href="#DejaVuSans-49"/>
      <use x="63.623047" xlink:href="#DejaVuSans-46"/>
      <use x="95.410156" xlink:href="#DejaVuSans-50"/>
      <use x="159.033203" xlink:href="#DejaVuSans-53"/>
     </g>
    </g>
   </g>
   <g id="text_83">
    <g clip-path="url(#p07fbe5e37d)">
     <!-- 1.26 -->
     <g transform="translate(74.373273 354.075299)scale(0.1 -0.1)">
      <use xlink:href="#DejaVuSans-49"/>
      <use x="63.623047" xlink:href="#DejaVuSans-46"/>
      <use x="95.410156" xlink:href="#DejaVuSans-50"/>
      <use x="159.033203" xlink:href="#DejaVuSans-54"/>
     </g>
    </g>
   </g>
   <g id="text_84">
    <g clip-path="url(#p07fbe5e37d)">
     <!-- 1.27 -->
     <g transform="translate(212.437505 354.075299)scale(0.1 -0.1)">
      <use xlink:href="#DejaVuSans-49"/>
      <use x="63.623047" xlink:href="#DejaVuSans-46"/>
      <use x="95.410156" xlink:href="#DejaVuSans-50"/>
      <use x="159.033203" xlink:href="#DejaVuSans-55"/>
     </g>
    </g>
   </g>
   <g id="text_85">
    <g clip-path="url(#p07fbe5e37d)">
     <!-- 1.28 -->
     <g transform="translate(764.694436 354.075299)scale(0.1 -0.1)">
      <use xlink:href="#DejaVuSans-49"/>
      <use x="63.623047" xlink:href="#DejaVuSans-46"/>
      <use x="95.410156" xlink:href="#DejaVuSans-50"/>
      <use x="159.033203" xlink:href="#DejaVuSans-56"/>
     </g>
    </g>
   </g>
  </g>
 </g>
 <defs>
  <clipPath id="p07fbe5e37d">
   <rect height="453.333333" width="861.333333" x="0" y="0"/>
  </clipPath>
 </defs>
</svg>
