<?xml version="1.0" encoding="UTF-8"?>
<!DOCTYPE svg  PUBLIC '-//W3C//DTD SVG 1.1//EN'  'http://www.w3.org/Graphics/SVG/1.1/DTD/svg11.dtd'>
<svg width="1368pt" height="720pt" version="1.1" viewBox="0 0 1368 720" xmlns="http://www.w3.org/2000/svg" xmlns:xlink="http://www.w3.org/1999/xlink">
<defs>
<style type="text/css">*{stroke-linecap:butt;stroke-linejoin:round;white-space:pre;}</style>
</defs>
<path d="m0 720h1368v-720h-1368z" fill="#fff"/>
<g fill="none" stroke="#000">
<path d="m433.89 33.834-371.51 524.53" clip-path="url(#a)"/>
<path d="m433.89 33.834-282.71 524.53" clip-path="url(#a)"/>
<path d="m433.89 33.834-193.91 396.73" clip-path="url(#a)"/>
<path d="m433.89 33.834-38.502 396.73" clip-path="url(#a)"/>
<path d="m433.89 33.834 306.53 135.08" clip-path="url(#a)"/>
<path d="m433.89 33.834 584.59 267.15" clip-path="url(#a)"/>
<path d="m433.89 33.834-327.11 524.53" clip-path="url(#a)"/>
<path d="m433.89 33.834-105.1 524.53" clip-path="url(#a)"/>
<path d="m433.89 33.834 427.71 524.53" clip-path="url(#a)"/>
<path d="m62.384 558.37v127.8" clip-path="url(#a)"/>
<path d="m151.19 558.37v127.8" clip-path="url(#a)"/>
<path d="m239.99 430.57-44.401 127.8" clip-path="url(#a)"/>
<path d="m239.99 430.57v127.8" clip-path="url(#a)"/>
<path d="m239.99 430.57 44.401 127.8" clip-path="url(#a)"/>
<path d="m395.39 430.57-22.201 127.8" clip-path="url(#a)"/>
<path d="m395.39 430.57 22.201 127.8" clip-path="url(#a)"/>
<path d="m740.43 168.92 565.19 517.25" clip-path="url(#a)"/>
<path d="m740.43 168.92-256.23 261.65" clip-path="url(#a)"/>
<path d="m740.43 168.92-189.63 389.45" clip-path="url(#a)"/>
<path d="m740.43 168.92-145.23 389.45" clip-path="url(#a)"/>
<path d="m740.43 168.92-100.83 389.45" clip-path="url(#a)"/>
<path d="m740.43 168.92 126.73 132.07" clip-path="url(#a)"/>
<path d="m1018.5 300.99-90.282 129.58" clip-path="url(#a)"/>
<path d="m1018.5 300.99-1.48 257.38" clip-path="url(#a)"/>
<path d="m1018.5 300.99 91.762 129.58" clip-path="url(#a)"/>
<path d="m928.21 430.57-22.201 127.8" clip-path="url(#a)"/>
<path d="m928.21 430.57 22.201 127.8" clip-path="url(#a)"/>
<path d="m1017 558.37-22.201 127.8" clip-path="url(#a)"/>
<path d="m1017 558.37 22.201 127.8" clip-path="url(#a)"/>
<path d="m1110.3 430.57-26.641 127.8" clip-path="url(#a)"/>
<path d="m1110.3 430.57 17.76 127.8" clip-path="url(#a)"/>
<path d="m1110.3 430.57 62.162 127.8" clip-path="url(#a)"/>
<path d="m1110.3 430.57-159.84 127.8" clip-path="url(#a)" stroke-dasharray="3.7,1.6"/>
<path d="m1110.3 430.57 106.56 127.8" clip-path="url(#a)"/>
<path d="m1083.6 558.37v127.8" clip-path="url(#a)"/>
<path d="m1128 558.37v127.8" clip-path="url(#a)"/>
<path d="m1172.4 558.37v127.8" clip-path="url(#a)"/>
<path d="m906.01 558.37v127.8" clip-path="url(#a)"/>
<path d="m950.41 558.37v127.8" clip-path="url(#a)"/>
<path d="m484.19 430.57-22.201 127.8" clip-path="url(#a)"/>
<path d="m484.19 430.57 22.201 127.8" clip-path="url(#a)"/>
<path d="m550.8 558.37v127.8" clip-path="url(#a)"/>
<path d="m595.2 558.37v127.8" clip-path="url(#a)"/>
<path d="m639.6 558.37v127.8" clip-path="url(#a)"/>
<path d="m867.15 300.99 394.06 385.18" clip-path="url(#a)"/>
<path d="m867.15 300.99-183.15 257.38" clip-path="url(#a)"/>
<path d="m867.15 300.99-138.75 257.38" clip-path="url(#a)"/>
<path d="m867.15 300.99-72.152 129.58" clip-path="url(#a)"/>
<path d="m684 558.37v127.8" clip-path="url(#a)"/>
<path d="m728.4 558.37v127.8" clip-path="url(#a)"/>
<path d="m795 430.57-22.201 127.8" clip-path="url(#a)"/>
<path d="m795 430.57 22.201 127.8" clip-path="url(#a)"/>
<path d="m772.8 558.37v127.8" clip-path="url(#a)"/>
<path d="m817.2 558.37v127.8" clip-path="url(#a)"/>
<path d="m461.99 558.37v127.8" clip-path="url(#a)"/>
<path d="m506.4 558.37v127.8" clip-path="url(#a)"/>
<path d="m373.19 558.37v127.8" clip-path="url(#a)"/>
<path d="m417.59 558.37v127.8" clip-path="url(#a)"/>
<path d="m195.59 558.37v127.8" clip-path="url(#a)"/>
<path d="m239.99 558.37v127.8" clip-path="url(#a)"/>
<path d="m284.39 558.37v127.8" clip-path="url(#a)"/>
<path d="m567.91 33.834-172.52 396.73" clip-path="url(#a)"/>
<path d="m567.91 33.834 172.52 135.08" clip-path="url(#a)"/>
<path d="m195.59 300.99-44.401 257.38" clip-path="url(#a)"/>
<path d="m195.59 300.99 44.401 129.58" clip-path="url(#a)"/>
<path d="m540.44 168.92-478.05 389.45" clip-path="url(#a)"/>
<path d="m540.44 168.92 478.05 132.07" clip-path="url(#a)"/>
<path d="m106.79 558.37v127.8" clip-path="url(#a)"/>
<path d="m328.79 558.37v127.8" clip-path="url(#a)"/>
<path d="m861.6 558.37v127.8" clip-path="url(#a)"/>
<path d="m1216.8 558.37v127.8" clip-path="url(#a)"/>
</g>
<path d="m251.97 301.54 2.5764-3.6375q1.3872-1.9585-0.57136-3.3457l-6.3183-4.475q-1.9585-1.3872-3.3457 0.57136l-2.5764 3.6375q-1.3872 1.9585 0.57136 3.3457l6.3183 4.475q1.9585 1.3872 3.3457-0.57136z" clip-path="url(#a)" fill="#fff" stroke="#fff"/>
<g clip-path="url(#a)">
<defs>
<path id="o" d="m9.8125 72.906h9.8594v-64.609h35.5v-8.2969h-45.359z"/>
</defs>
<g transform="translate(248.65 299.19) rotate(-54.691) scale(.08 -.08)">
<use xlink:href="#o"/>
</g>
</g>
<path d="m297 301.04 2.1148-3.9239q1.1387-2.1127-0.97401-3.2514l-6.8156-3.6734q-2.1127-1.1387-3.2514 0.97401l-2.1148 3.9239q-1.1387 2.1127 0.97401 3.2514l6.8156 3.6734q2.1127 1.1387 3.2514-0.97401z" clip-path="url(#a)" fill="#fff" stroke="#fff"/>
<g clip-path="url(#a)">
<g transform="translate(293.43 299.11) rotate(-61.677) scale(.08 -.08)">
<use xlink:href="#o"/>
</g>
</g>
<path d="m341.25 237.66 2.6418-5.4052q1.0539-2.1562-1.1024-3.2101l-6.9561-3.3998q-2.1562-1.0539-3.2101 1.1024l-2.6418 5.4052q-1.0539 2.1562 1.1024 3.2101l6.9561 3.3998q2.1562 1.0539 3.2101-1.1024z" clip-path="url(#a)" fill="#fff" stroke="#fff"/>
<g clip-path="url(#a)">
<defs>
<path id="ag" d="m9.8125 72.906h9.8594v-29.891h35.844v29.891h9.8594v-72.906h-9.8594v34.719h-35.844v-34.719h-9.8594z"/>
</defs>
<g transform="translate(337.6 235.87) rotate(-63.953) scale(.08 -.08)">
<use xlink:href="#ag"/>
</g>
</g>
<path d="m420.67 235.02 0.43056-4.4367q0.23182-2.3888-2.157-2.6206l-7.7063-0.74787q-2.3888-0.23182-2.6206 2.157l-0.43056 4.4367q-0.23182 2.3888 2.157 2.6206l7.7063 0.74787q2.3888 0.23182 2.6206-2.157z" clip-path="url(#a)" fill="#fff" stroke="#fff"/>
<g clip-path="url(#a)">
<g transform="translate(416.63 234.63) rotate(-84.457) scale(.08 -.08)">
<use xlink:href="#o"/>
</g>
</g>
<path d="m581.88 105.9 5.5054 2.4261q2.1962 0.96782 3.164-1.2284l3.1222-7.0851q0.96782-2.1962-1.2284-3.164l-5.5054-2.4261q-2.1962-0.96782-3.164 1.2284l-3.1222 7.0851q-0.96782 2.1962 1.2284 3.164z" clip-path="url(#a)" fill="#fff" stroke="#fff"/>
<g clip-path="url(#a)">
<g transform="translate(583.52 102.18) rotate(23.782) scale(.08 -.08)">
<use xlink:href="#ag"/>
</g>
</g>
<path d="m720.85 171.86 5.4719 2.5006q2.1829 0.99755 3.1804-1.1853l3.2181-7.042q0.99755-2.1829-1.1853-3.1804l-5.4719-2.5006q-2.1829-0.99755-3.1804 1.1853l-3.2181 7.042q-0.99755 2.1829 1.1853 3.1804z" clip-path="url(#a)" fill="#fff" stroke="#fff"/>
<g clip-path="url(#a)">
<g transform="translate(722.54 168.17) rotate(24.56) scale(.08 -.08)">
<use xlink:href="#ag"/>
</g>
</g>
<path d="m274.11 301.9 3.0982-4.9681q1.27-2.0365-0.76648-3.3064l-6.5697-4.097q-2.0365-1.27-3.3064 0.76648l-3.0982 4.9681q-1.27 2.0365 0.76648 3.3064l6.5697 4.097q2.0365 1.27 3.3064-0.76648z" clip-path="url(#a)" fill="#fff" stroke="#fff"/>
<g clip-path="url(#a)">
<defs>
<path id="aa" d="m8.6875 72.906h9.9219v-44.297q0-11.719 4.2344-16.875 4.25-5.1406 13.781-5.1406 9.4688 0 13.719 5.1406 4.25 5.1562 4.25 16.875v44.297h9.9062v-45.516q0-14.25-7.0625-21.531-7.0469-7.2812-20.812-7.2812-13.828 0-20.891 7.2812-7.0469 7.2812-7.0469 21.531z"/>
</defs>
<g transform="translate(270.66 299.75) rotate(-58.051) scale(.08 -.08)">
<use xlink:href="#aa"/>
</g>
</g>
<path d="m386.92 300.2 1.1503-5.7409q0.47153-2.3532-1.8817-2.8248l-7.5916-1.5212q-2.3532-0.47153-2.8248 1.8817l-1.1503 5.7409q-0.47153 2.3532 1.8817 2.8248l7.5916 1.5212q2.3532 0.47153 2.8248-1.8817z" clip-path="url(#a)" fill="#fff" stroke="#fff"/>
<g clip-path="url(#a)">
<g transform="translate(382.93 299.4) rotate(-78.669) scale(.08 -.08)">
<use xlink:href="#aa"/>
</g>
</g>
<path d="m641.04 297.79 3.7001 4.5377q1.5167 1.86 3.3767 0.34334l6.0005-4.8929q1.86-1.5167 0.34334-3.3767l-3.7001-4.5377q-1.5167-1.86-3.3767-0.34334l-6.0005 4.8929q-1.86 1.5167-0.34334 3.3767z" clip-path="url(#a)" fill="#fff" stroke="#fff"/>
<g clip-path="url(#a)">
<g transform="translate(644.19 295.23) rotate(50.806) scale(.08 -.08)">
<use xlink:href="#aa"/>
</g>
</g>
<path d="m56.113 604.62v35.285q0 2.4 2.4 2.4h7.7425q2.4 0 2.4-2.4v-35.285q0-2.4-2.4-2.4h-7.7425q-2.4 0-2.4 2.4z" clip-path="url(#a)" fill="#fff" stroke="#fff"/>
<g clip-path="url(#a)">
<defs>
<path id="j" d="m-0.29688 72.906h61.672v-8.3125h-25.875v-64.594h-9.9062v64.594h-25.891z"/>
<path id="d" d="m56.203 29.594v-4.3906h-41.312q0.59375-9.2812 5.5938-14.141t13.938-4.8594q5.1719 0 10.031 1.2656t9.6562 3.8125v-8.5q-4.8438-2.0469-9.9219-3.125t-10.297-1.0781q-13.094 0-20.734 7.6094-7.6406 7.625-7.6406 20.625 0 13.422 7.25 21.297 7.25 7.8906 19.562 7.8906 11.031 0 17.453-7.1094 6.4219-7.0938 6.4219-19.297zm-8.9844 2.6406q-0.09375 7.3594-4.125 11.75-4.0312 4.4062-10.672 4.4062-7.5156 0-12.031-4.25t-5.2031-11.969z"/>
<path id="h" d="m41.109 46.297q-1.5156 0.875-3.2969 1.2812-1.7812 0.42188-3.9219 0.42188-7.625 0-11.703-4.9531t-4.0781-14.234v-28.812h-9.0312v54.688h9.0312v-8.5q2.8438 4.9844 7.375 7.3906 4.5469 2.4219 11.047 2.4219 0.92188 0 2.0469-0.125 1.125-0.10938 2.4844-0.35938z"/>
<path id="k" d="m52 44.188q3.375 6.0625 8.0625 8.9375t11.031 2.875q8.5469 0 13.188-5.9844 4.6406-5.9688 4.6406-17v-33.016h-9.0312v32.719q0 7.8594-2.7969 11.656-2.7812 3.8125-8.4844 3.8125-6.9844 0-11.047-4.6406-4.0469-4.625-4.0469-12.641v-30.906h-9.0312v32.719q0 7.9062-2.7812 11.688t-8.5938 3.7812q-6.8906 0-10.953-4.6562-4.0469-4.6562-4.0469-12.625v-30.906h-9.0312v54.688h9.0312v-8.5q3.0781 5.0312 7.375 7.4219t10.203 2.3906q5.9688 0 10.141-3.0312 4.1719-3.0156 6.1719-8.7812z"/>
<path id="i" d="m9.4219 54.688h8.9844v-54.688h-8.9844zm0 21.297h8.9844v-11.391h-8.9844z"/>
<path id="g" d="m54.891 33.016v-33.016h-8.9844v32.719q0 7.7656-3.0312 11.609-3.0312 3.8594-9.0781 3.8594-7.2812 0-11.484-4.6406-4.2031-4.625-4.2031-12.641v-30.906h-9.0312v54.688h9.0312v-8.5q3.2344 4.9375 7.5938 7.375 4.375 2.4375 10.094 2.4375 9.4219 0 14.25-5.8281 4.8438-5.8281 4.8438-17.156z"/>
<path id="f" d="m34.281 27.484q-10.891 0-15.094-2.4844t-4.2031-8.5q0-4.7812 3.1562-7.5938 3.1562-2.7969 8.5625-2.7969 7.4844 0 12 5.2969t4.5156 14.078v2zm17.922 3.7188v-31.203h-8.9844v8.2969q-3.0781-4.9688-7.6719-7.3438t-11.234-2.375q-8.3906 0-13.359 4.7188-4.9531 4.7188-4.9531 12.625 0 9.2188 6.1719 13.906 6.1875 4.6875 18.438 4.6875h12.609v0.89062q0 6.2031-4.0781 9.5938t-11.453 3.3906q-4.6875 0-9.1406-1.125-4.4375-1.125-8.5312-3.375v8.3125q4.9219 1.9062 9.5625 2.8438 4.6406 0.95312 9.0312 0.95312 11.875 0 17.734-6.1562 5.8594-6.1406 5.8594-18.641z"/>
<path id="l" d="m9.4219 75.984h8.9844v-75.984h-8.9844z"/>
</defs>
<g transform="translate(60.177 604.62) rotate(90) scale(.08 -.08)">
<use xlink:href="#j"/>
<use x="60.818359" xlink:href="#d"/>
<use x="122.341797" xlink:href="#h"/>
<use x="163.439453" xlink:href="#k"/>
<use x="260.851562" xlink:href="#i"/>
<use x="288.634766" xlink:href="#g"/>
<use x="352.013672" xlink:href="#f"/>
<use x="413.292969" xlink:href="#l"/>
</g>
</g>
<path d="m144.92 604.62v35.285q0 2.4 2.4 2.4h7.7425q2.4 0 2.4-2.4v-35.285q0-2.4-2.4-2.4h-7.7425q-2.4 0-2.4 2.4z" clip-path="url(#a)" fill="#fff" stroke="#fff"/>
<g clip-path="url(#a)">
<g transform="translate(148.98 604.62) rotate(90) scale(.08 -.08)">
<use xlink:href="#j"/>
<use x="60.818359" xlink:href="#d"/>
<use x="122.341797" xlink:href="#h"/>
<use x="163.439453" xlink:href="#k"/>
<use x="260.851562" xlink:href="#i"/>
<use x="288.634766" xlink:href="#g"/>
<use x="352.013672" xlink:href="#f"/>
<use x="413.292969" xlink:href="#l"/>
</g>
</g>
<path d="m222.81 499.11 1.796-5.1694q0.78764-2.2671-1.4794-3.0547l-7.3137-2.541q-2.2671-0.78764-3.0547 1.4794l-1.796 5.1694q-0.78764 2.2671 1.4794 3.0547l7.3137 2.541q2.2671 0.78764 3.0547-1.4794z" clip-path="url(#a)" fill="#fff" stroke="#fff"/>
<g clip-path="url(#a)">
<defs>
<path id="p" d="m34.188 63.188-13.391-36.281h26.812zm-5.5781 9.7188h11.188l27.781-72.906h-10.25l-6.6406 18.703h-32.859l-6.6406-18.703h-10.406z"/>
</defs>
<g transform="translate(218.98 497.78) rotate(-70.841) scale(.08 -.08)">
<use xlink:href="#p"/>
</g>
</g>
<path d="m233.72 492.02v4.8862q0 2.4 2.4 2.4h7.7425q2.4 0 2.4-2.4v-4.8862q0-2.4-2.4-2.4h-7.7425q-2.4 0-2.4 2.4z" clip-path="url(#a)" fill="#fff" stroke="#fff"/>
<g clip-path="url(#a)">
<g transform="translate(237.78 492.02) rotate(90) scale(.08 -.08)">
<use xlink:href="#j"/>
</g>
</g>
<path d="m255.47 494.25 1.5831 4.5566q0.78764 2.2671 3.0547 1.4794l7.3137-2.541q2.2671-0.78764 1.4794-3.0547l-1.5831-4.5566q-0.78764-2.2671-3.0547-1.4794l-7.3137 2.541q-2.2671 0.78764-1.4794 3.0547z" clip-path="url(#a)" fill="#fff" stroke="#fff"/>
<g clip-path="url(#a)">
<defs>
<path id="t" d="m19.672 64.797v-27.391h12.406q6.8906 0 10.641 3.5625 3.7656 3.5625 3.7656 10.156 0 6.5469-3.7656 10.109-3.75 3.5625-10.641 3.5625zm-9.8594 8.1094h22.266q12.266 0 18.531-5.5469 6.2812-5.5469 6.2812-16.234 0-10.797-6.2812-16.312-6.2656-5.5156-18.531-5.5156h-12.406v-29.297h-9.8594z"/>
</defs>
<g transform="translate(259.31 492.91) rotate(70.841) scale(.08 -.08)">
<use xlink:href="#t"/>
</g>
</g>
<path d="m390.04 498.03 0.86517-4.9804q0.41076-2.3646-1.9538-2.7753l-7.6283-1.3251q-2.3646-0.41076-2.7753 1.9538l-0.86517 4.9804q-0.41076 2.3646 1.9538 2.7753l7.6283 1.3251q2.3646 0.41076 2.7753-1.9538z" clip-path="url(#a)" fill="#fff" stroke="#fff"/>
<g clip-path="url(#a)">
<defs>
<path id="ab" d="m9.8125 72.906h46.094v-8.3125h-36.234v-21.578h34.719v-8.2969h-34.719v-26.422h37.109v-8.2969h-46.969z"/>
</defs>
<g transform="translate(386.03 497.33) rotate(-80.145) scale(.08 -.08)">
<use xlink:href="#ab"/>
</g>
</g>
<path d="m399.84 492.79 0.95609 5.5038q0.41076 2.3646 2.7753 1.9538l7.6283-1.3251q2.3646-0.41076 1.9538-2.7753l-0.95609-5.5038q-0.41076-2.3646-2.7753-1.9538l-7.6283 1.3251q-2.3646 0.41076-1.9538 2.7753z" clip-path="url(#a)" fill="#fff" stroke="#fff"/>
<g clip-path="url(#a)">
<defs>
<path id="w" d="m64.406 67.281v-10.391q-4.9844 4.6406-10.625 6.9219-5.6406 2.2969-11.984 2.2969-12.5 0-19.141-7.6406t-6.6406-22.094q0-14.406 6.6406-22.047t19.141-7.6406q6.3438 0 11.984 2.2969t10.625 6.9375v-10.312q-5.1719-3.5156-10.969-5.2812-5.7812-1.75-12.219-1.75-16.562 0-26.094 10.125-9.5156 10.141-9.5156 27.672 0 17.578 9.5156 27.703 9.5312 10.141 26.094 10.141 6.5312 0 12.312-1.7344 5.7969-1.7344 10.875-5.2031z"/>
</defs>
<g transform="translate(403.84 492.09) rotate(80.145) scale(.08 -.08)">
<use xlink:href="#w"/>
</g>
</g>
<path d="m1016.8 430.32 4.0371 3.6946q1.7705 1.6203 3.3908-0.15017l5.2272-5.7116q1.6203-1.7705-0.15017-3.3908l-4.0371-3.6946q-1.7705-1.6203-3.3908 0.15017l-5.2272 5.7116q-1.6203 1.7705 0.15017 3.3908z" clip-path="url(#a)" fill="#fff" stroke="#fff"/>
<g clip-path="url(#a)">
<g transform="translate(1019.5 427.32) rotate(42.464) scale(.08 -.08)">
<use xlink:href="#p"/>
</g>
</g>
<path d="m615.1 305.85 3.375-3.4464q1.6792-1.7147-0.035512-3.3939l-5.5318-5.4172q-1.7147-1.6792-3.3939 0.035512l-3.375 3.4464q-1.6792 1.7147 0.035512 3.3939l5.5318 5.4172q1.7147 1.6792 3.3939-0.035513z" clip-path="url(#a)" fill="#fff" stroke="#fff"/>
<g clip-path="url(#a)">
<g transform="translate(612.2 303.01) rotate(-45.599) scale(.08 -.08)">
<use xlink:href="#t"/>
</g>
</g>
<path d="m650.24 368.46 2.0143-4.1369q1.0507-2.1578-1.1071-3.2085l-6.9611-3.3895q-2.1578-1.0507-3.2085 1.1071l-2.0143 4.1369q-1.0507 2.1578 1.1071 3.2085l6.9611 3.3895q2.1578 1.0507 3.2085-1.1071z" clip-path="url(#a)" fill="#fff" stroke="#fff"/>
<g clip-path="url(#a)">
<defs>
<path id="ah" d="m9.8125 72.906h41.891v-8.3125h-32.031v-21.484h28.906v-8.2969h-28.906v-34.812h-9.8594z"/>
</defs>
<g transform="translate(646.59 366.68) rotate(-64.038) scale(.08 -.08)">
<use xlink:href="#ah"/>
</g>
</g>
<path d="m672.88 367.99 1.6077-4.3112q0.83857-2.2487-1.4102-3.0873l-7.2545-2.7053q-2.2487-0.83857-3.0873 1.4102l-1.6077 4.3112q-0.83857 2.2487 1.4102 3.0873l7.2545 2.7053q2.2487 0.83857 3.0873-1.4102z" clip-path="url(#a)" fill="#fff" stroke="#fff"/>
<g clip-path="url(#a)">
<g transform="translate(669.08 366.57) rotate(-69.549) scale(.08 -.08)">
<use xlink:href="#ah"/>
</g>
</g>
<path d="m695.31 368.19 1.5439-5.9634q0.60152-2.3234-1.7219-2.9249l-7.4954-1.9405q-2.3234-0.60152-2.9249 1.7219l-1.5439 5.9634q-0.60152 2.3234 1.7219 2.9249l7.4954 1.9405q2.3234 0.60152 2.9249-1.7219z" clip-path="url(#a)" fill="#fff" stroke="#fff"/>
<g clip-path="url(#a)">
<defs>
<path id="ai" d="m19.672 64.797v-56.688h11.922q15.094 0 22.094 6.8281 7 6.8438 7 21.594 0 14.641-7 21.453t-22.094 6.8125zm-9.8594 8.1094h20.266q21.188 0 31.094-8.8125 9.9219-8.8125 9.9219-27.562 0-18.859-9.9688-27.703-9.9531-8.8281-31.047-8.8281h-20.266z"/>
</defs>
<g transform="translate(691.38 367.18) rotate(-75.485) scale(.08 -.08)">
<use xlink:href="#ai"/>
</g>
</g>
<path d="m797.37 237.32 3.7889 3.9487q1.6617 1.7317 3.3934 0.070077l5.5866-5.3606q1.7317-1.6617 0.070077-3.3934l-3.7889-3.9487q-1.6617-1.7317-3.3934-0.070077l-5.5866 5.3606q-1.7317 1.6617-0.070077 3.3934z" clip-path="url(#a)" fill="#fff" stroke="#fff"/>
<g clip-path="url(#a)">
<g transform="translate(800.3 234.51) rotate(46.183) scale(.08 -.08)">
<use xlink:href="#p"/>
</g>
</g>
<path d="m976.93 371.61 3.1284-4.4901q1.372-1.9692-0.59716-3.3412l-6.3526-4.4261q-1.9692-1.372-3.3412 0.59716l-3.1285 4.4901q-1.372 1.9692 0.59716 3.3412l6.3526 4.4261q1.9692 1.372 3.3412-0.59716z" clip-path="url(#a)" fill="#fff" stroke="#fff"/>
<g clip-path="url(#a)">
<g transform="translate(973.59 369.28) rotate(-55.133) scale(.08 -.08)">
<use xlink:href="#p"/>
</g>
</g>
<path d="m1024 432.13 0.027739-4.8237q0.013801-2.4-2.3862-2.4138l-7.7424-0.044523q-2.4-0.0138-2.4138 2.3862l-0.027738 4.8237q-0.013801 2.4 2.3862 2.4138l7.7424 0.044523q2.4 0.0138 2.4138-2.3862z" clip-path="url(#a)" fill="#fff" stroke="#fff"/>
<g clip-path="url(#a)">
<g transform="translate(1019.9 432.1) rotate(-89.671) scale(.08 -.08)">
<use xlink:href="#t"/>
</g>
</g>
<path d="m1057.7 367.17 3.1627 4.466q1.387 1.9586 3.3456 0.57159l6.3186-4.4746q1.9586-1.387 0.57159-3.3456l-3.1627-4.466q-1.387-1.9586-3.3456-0.57159l-6.3186 4.4746q-1.9586 1.387-0.57159 3.3456z" clip-path="url(#a)" fill="#fff" stroke="#fff"/>
<g clip-path="url(#a)">
<g transform="translate(1061 364.82) rotate(54.695) scale(.08 -.08)">
<use xlink:href="#p"/>
</g>
</g>
<path d="m922.85 498.03 0.86517-4.9804q0.41076-2.3646-1.9538-2.7753l-7.6283-1.3251q-2.3646-0.41076-2.7753 1.9538l-0.86517 4.9804q-0.41076 2.3646 1.9538 2.7753l7.6283 1.3251q2.3646 0.41076 2.7753-1.9538z" clip-path="url(#a)" fill="#fff" stroke="#fff"/>
<g clip-path="url(#a)">
<g transform="translate(918.85 497.33) rotate(-80.145) scale(.08 -.08)">
<use xlink:href="#ab"/>
</g>
</g>
<path d="m932.65 492.79 0.95609 5.5038q0.41076 2.3646 2.7753 1.9538l7.6283-1.3251q2.3646-0.41076 1.9538-2.7753l-0.95609-5.5038q-0.41076-2.3646-2.7753-1.9538l-7.6283 1.3251q-2.3646 0.41076-1.9538 2.7753z" clip-path="url(#a)" fill="#fff" stroke="#fff"/>
<g clip-path="url(#a)">
<g transform="translate(936.65 492.09) rotate(80.145) scale(.08 -.08)">
<use xlink:href="#w"/>
</g>
</g>
<path d="m1009.1 640.72 6.039-34.764q0.41076-2.3646-1.9538-2.7753l-7.6283-1.3251q-2.3646-0.41076-2.7753 1.9538l-6.039 34.764q-0.41076 2.3646 1.9538 2.7753l7.6283 1.3251q2.3646 0.41076 2.7753-1.9538z" clip-path="url(#a)" fill="#fff" stroke="#fff"/>
<g clip-path="url(#a)">
<g transform="translate(1005.1 640.03) rotate(-80.145) scale(.08 -.08)">
<use xlink:href="#j"/>
<use x="60.818359" xlink:href="#d"/>
<use x="122.341797" xlink:href="#h"/>
<use x="163.439453" xlink:href="#k"/>
<use x="260.851562" xlink:href="#i"/>
<use x="288.634766" xlink:href="#g"/>
<use x="352.013672" xlink:href="#f"/>
<use x="413.292969" xlink:href="#l"/>
</g>
</g>
<path d="m1018.9 605.96 6.039 34.764q0.41076 2.3646 2.7753 1.9538l7.6283-1.3251q2.3646-0.41076 1.9538-2.7753l-6.039-34.764q-0.41076-2.3646-2.7753-1.9538l-7.6283 1.3251q-2.3646 0.41076-1.9538 2.7753z" clip-path="url(#a)" fill="#fff" stroke="#fff"/>
<g clip-path="url(#a)">
<g transform="translate(1022.9 605.26) rotate(80.145) scale(.08 -.08)">
<use xlink:href="#j"/>
<use x="60.818359" xlink:href="#d"/>
<use x="122.341797" xlink:href="#h"/>
<use x="163.439453" xlink:href="#k"/>
<use x="260.851562" xlink:href="#i"/>
<use x="288.634766" xlink:href="#g"/>
<use x="352.013672" xlink:href="#f"/>
<use x="413.292969" xlink:href="#l"/>
</g>
</g>
<path d="m1102.4 498.76 1.2571-6.0304q0.48977-2.3495-1.8597-2.8393l-7.5796-1.58q-2.3495-0.48977-2.8393 1.8597l-1.2571 6.0304q-0.48977 2.3495 1.8597 2.8393l7.5796 1.58q2.3495 0.48977 2.8393-1.8597z" clip-path="url(#a)" fill="#fff" stroke="#fff"/>
<g clip-path="url(#a)">
<g transform="translate(1098.5 497.93) rotate(-78.225) scale(.08 -.08)">
<use xlink:href="#ai"/>
</g>
</g>
<path d="m1112.5 492.28 0.84791 6.1014q0.33036 2.3772 2.7075 2.0468l7.6688-1.0657q2.3772-0.33036 2.0468-2.7075l-0.84791-6.1014q-0.33036-2.3772-2.7075-2.0468l-7.6688 1.0657q-2.3772 0.33036-2.0468 2.7075z" clip-path="url(#a)" fill="#fff" stroke="#fff"/>
<g clip-path="url(#a)">
<g transform="translate(1116.5 491.72) rotate(82.088) scale(.08 -.08)">
<use xlink:href="#ai"/>
</g>
</g>
<path d="m1134.6 495.04 2.1099 4.3378q1.0498 2.1582 3.208 1.1085l6.9626-3.3866q2.1582-1.0498 1.1085-3.208l-2.1099-4.3378q-1.0498-2.1582-3.208-1.1085l-6.9626 3.3866q-2.1582 1.0498-1.1085 3.208z" clip-path="url(#a)" fill="#fff" stroke="#fff"/>
<g clip-path="url(#a)">
<g transform="translate(1138.3 493.26) rotate(64.062) scale(.08 -.08)">
<use xlink:href="#t"/>
</g>
</g>
<path d="m1032.1 501.07 4.2743-3.4174q1.8745-1.4987 0.37579-3.3732l-4.835-6.0473q-1.4987-1.8745-3.3732-0.37579l-4.2743 3.4174q-1.8745 1.4987-0.37579 3.3732l4.835 6.0473q1.4987 1.8745 3.3732 0.37579z" clip-path="url(#a)" fill="#fff" stroke="#fff"/>
<g clip-path="url(#a)">
<g transform="translate(1029.6 497.9) rotate(-38.643) scale(.08 -.08)">
<use xlink:href="#p"/>
</g>
</g>
<path d="m1156.8 496.23 3.7496 4.4968q1.537 1.8433 3.3803 0.30631l5.9465-4.9584q1.8433-1.537 0.30631-3.3803l-3.7496-4.4968q-1.537-1.8433-3.3803-0.30631l-5.9465 4.9584q-1.8433 1.537-0.30631 3.3803z" clip-path="url(#a)" fill="#fff" stroke="#fff"/>
<g clip-path="url(#a)">
<g transform="translate(1160 493.63) rotate(50.178) scale(.08 -.08)">
<use xlink:href="#aa"/>
</g>
</g>
<path d="m1077.3 604.62v35.285q0 2.4 2.4 2.4h7.7425q2.4 0 2.4-2.4v-35.285q0-2.4-2.4-2.4h-7.7425q-2.4 0-2.4 2.4z" clip-path="url(#a)" fill="#fff" stroke="#fff"/>
<g clip-path="url(#a)">
<g transform="translate(1081.4 604.62) rotate(90) scale(.08 -.08)">
<use xlink:href="#j"/>
<use x="60.818359" xlink:href="#d"/>
<use x="122.341797" xlink:href="#h"/>
<use x="163.439453" xlink:href="#k"/>
<use x="260.851562" xlink:href="#i"/>
<use x="288.634766" xlink:href="#g"/>
<use x="352.013672" xlink:href="#f"/>
<use x="413.292969" xlink:href="#l"/>
</g>
</g>
<path d="m1121.7 604.62v35.285q0 2.4 2.4 2.4h7.7425q2.4 0 2.4-2.4v-35.285q0-2.4-2.4-2.4h-7.7425q-2.4 0-2.4 2.4z" clip-path="url(#a)" fill="#fff" stroke="#fff"/>
<g clip-path="url(#a)">
<g transform="translate(1125.8 604.62) rotate(90) scale(.08 -.08)">
<use xlink:href="#j"/>
<use x="60.818359" xlink:href="#d"/>
<use x="122.341797" xlink:href="#h"/>
<use x="163.439453" xlink:href="#k"/>
<use x="260.851562" xlink:href="#i"/>
<use x="288.634766" xlink:href="#g"/>
<use x="352.013672" xlink:href="#f"/>
<use x="413.292969" xlink:href="#l"/>
</g>
</g>
<path d="m1166.1 604.62v35.285q0 2.4 2.4 2.4h7.7425q2.4 0 2.4-2.4v-35.285q0-2.4-2.4-2.4h-7.7425q-2.4 0-2.4 2.4z" clip-path="url(#a)" fill="#fff" stroke="#fff"/>
<g clip-path="url(#a)">
<g transform="translate(1170.2 604.62) rotate(90) scale(.08 -.08)">
<use xlink:href="#j"/>
<use x="60.818359" xlink:href="#d"/>
<use x="122.341797" xlink:href="#h"/>
<use x="163.439453" xlink:href="#k"/>
<use x="260.851562" xlink:href="#i"/>
<use x="288.634766" xlink:href="#g"/>
<use x="352.013672" xlink:href="#f"/>
<use x="413.292969" xlink:href="#l"/>
</g>
</g>
<path d="m899.73 604.62v35.285q0 2.4 2.4 2.4h7.7425q2.4 0 2.4-2.4v-35.285q0-2.4-2.4-2.4h-7.7425q-2.4 0-2.4 2.4z" clip-path="url(#a)" fill="#fff" stroke="#fff"/>
<g clip-path="url(#a)">
<g transform="translate(903.8 604.62) rotate(90) scale(.08 -.08)">
<use xlink:href="#j"/>
<use x="60.818359" xlink:href="#d"/>
<use x="122.341797" xlink:href="#h"/>
<use x="163.439453" xlink:href="#k"/>
<use x="260.851562" xlink:href="#i"/>
<use x="288.634766" xlink:href="#g"/>
<use x="352.013672" xlink:href="#f"/>
<use x="413.292969" xlink:href="#l"/>
</g>
</g>
<path d="m944.14 604.62v35.285q0 2.4 2.4 2.4h7.7425q2.4 0 2.4-2.4v-35.285q0-2.4-2.4-2.4h-7.7425q-2.4 0-2.4 2.4z" clip-path="url(#a)" fill="#fff" stroke="#fff"/>
<g clip-path="url(#a)">
<g transform="translate(948.2 604.62) rotate(90) scale(.08 -.08)">
<use xlink:href="#j"/>
<use x="60.818359" xlink:href="#d"/>
<use x="122.341797" xlink:href="#h"/>
<use x="163.439453" xlink:href="#k"/>
<use x="260.851562" xlink:href="#i"/>
<use x="288.634766" xlink:href="#g"/>
<use x="352.013672" xlink:href="#f"/>
<use x="413.292969" xlink:href="#l"/>
</g>
</g>
<path d="m478.84 498.03 0.86517-4.9804q0.41076-2.3646-1.9538-2.7753l-7.6283-1.3251q-2.3646-0.41076-2.7753 1.9538l-0.86517 4.9804q-0.41076 2.3646 1.9538 2.7753l7.6283 1.3251q2.3646 0.41076 2.7753-1.9538z" clip-path="url(#a)" fill="#fff" stroke="#fff"/>
<g clip-path="url(#a)">
<g transform="translate(474.84 497.33) rotate(-80.145) scale(.08 -.08)">
<use xlink:href="#ab"/>
</g>
</g>
<path d="m488.64 492.79 0.95609 5.5038q0.41076 2.3646 2.7753 1.9538l7.6283-1.3251q2.3646-0.41076 1.9538-2.7753l-0.95609-5.5038q-0.41076-2.3646-2.7753-1.9538l-7.6283 1.3251q-2.3646 0.41076-1.9538 2.7753z" clip-path="url(#a)" fill="#fff" stroke="#fff"/>
<g clip-path="url(#a)">
<g transform="translate(492.64 492.09) rotate(80.145) scale(.08 -.08)">
<use xlink:href="#w"/>
</g>
</g>
<path d="m544.53 604.62v35.285q0 2.4 2.4 2.4h7.7425q2.4 0 2.4-2.4v-35.285q0-2.4-2.4-2.4h-7.7425q-2.4 0-2.4 2.4z" clip-path="url(#a)" fill="#fff" stroke="#fff"/>
<g clip-path="url(#a)">
<g transform="translate(548.59 604.62) rotate(90) scale(.08 -.08)">
<use xlink:href="#j"/>
<use x="60.818359" xlink:href="#d"/>
<use x="122.341797" xlink:href="#h"/>
<use x="163.439453" xlink:href="#k"/>
<use x="260.851562" xlink:href="#i"/>
<use x="288.634766" xlink:href="#g"/>
<use x="352.013672" xlink:href="#f"/>
<use x="413.292969" xlink:href="#l"/>
</g>
</g>
<path d="m588.93 604.62v35.285q0 2.4 2.4 2.4h7.7425q2.4 0 2.4-2.4v-35.285q0-2.4-2.4-2.4h-7.7425q-2.4 0-2.4 2.4z" clip-path="url(#a)" fill="#fff" stroke="#fff"/>
<g clip-path="url(#a)">
<g transform="translate(592.99 604.62) rotate(90) scale(.08 -.08)">
<use xlink:href="#j"/>
<use x="60.818359" xlink:href="#d"/>
<use x="122.341797" xlink:href="#h"/>
<use x="163.439453" xlink:href="#k"/>
<use x="260.851562" xlink:href="#i"/>
<use x="288.634766" xlink:href="#g"/>
<use x="352.013672" xlink:href="#f"/>
<use x="413.292969" xlink:href="#l"/>
</g>
</g>
<path d="m633.33 604.62v35.285q0 2.4 2.4 2.4h7.7425q2.4 0 2.4-2.4v-35.285q0-2.4-2.4-2.4h-7.7425q-2.4 0-2.4 2.4z" clip-path="url(#a)" fill="#fff" stroke="#fff"/>
<g clip-path="url(#a)">
<g transform="translate(637.39 604.62) rotate(90) scale(.08 -.08)">
<use xlink:href="#j"/>
<use x="60.818359" xlink:href="#d"/>
<use x="122.341797" xlink:href="#h"/>
<use x="163.439453" xlink:href="#k"/>
<use x="260.851562" xlink:href="#i"/>
<use x="288.634766" xlink:href="#g"/>
<use x="352.013672" xlink:href="#f"/>
<use x="413.292969" xlink:href="#l"/>
</g>
</g>
<path d="m1057.8 496.15 3.9135 3.8253q1.7163 1.6776 3.3939-0.038689l5.412-5.5368q1.6776-1.7163-0.038688-3.3939l-3.9135-3.8253q-1.7163-1.6776-3.3939 0.038688l-5.412 5.5368q-1.6776 1.7163 0.038688 3.3939z" clip-path="url(#a)" fill="#fff" stroke="#fff"/>
<g clip-path="url(#a)">
<g transform="translate(1060.7 493.24) rotate(44.347) scale(.08 -.08)">
<use xlink:href="#p"/>
</g>
</g>
<path d="m779.35 435.19 2.6678-3.7489q1.3915-1.9554-0.56391-3.3469l-6.3083-4.4891q-1.9554-1.3915-3.3469 0.56391l-2.6678 3.7489q-1.3915 1.9554 0.56391 3.3469l6.3083 4.4891q1.9554 1.3915 3.3469-0.56391z" clip-path="url(#a)" fill="#fff" stroke="#fff"/>
<g clip-path="url(#a)">
<g transform="translate(776.04 432.83) rotate(-54.564) scale(.08 -.08)">
<use xlink:href="#ah"/>
</g>
</g>
<path d="m802.15 434.78 2.2891-4.246q1.1389-2.1126-0.97367-3.2515l-6.8152-3.6741q-2.1126-1.1389-3.2515 0.97367l-2.2891 4.246q-1.1389 2.1126 0.97367 3.2515l6.8152 3.6741q2.1126 1.1389 3.2515-0.97367z" clip-path="url(#a)" fill="#fff" stroke="#fff"/>
<g clip-path="url(#a)">
<g transform="translate(798.58 432.85) rotate(-61.671) scale(.08 -.08)">
<use xlink:href="#t"/>
</g>
</g>
<path d="m835.23 371.22 2.6623-4.7812q1.1676-2.0968-0.92927-3.2644l-6.7645-3.7666q-2.0968-1.1676-3.2644 0.92927l-2.6623 4.7812q-1.1676 2.0968 0.92927 3.2644l6.7645 3.7666q2.0968 1.1676 3.2644-0.92927z" clip-path="url(#a)" fill="#fff" stroke="#fff"/>
<g clip-path="url(#a)">
<g transform="translate(831.68 369.24) rotate(-60.89) scale(.08 -.08)">
<use xlink:href="#p"/>
</g>
</g>
<path d="m677.73 604.62v35.285q0 2.4 2.4 2.4h7.7425q2.4 0 2.4-2.4v-35.285q0-2.4-2.4-2.4h-7.7425q-2.4 0-2.4 2.4z" clip-path="url(#a)" fill="#fff" stroke="#fff"/>
<g clip-path="url(#a)">
<g transform="translate(681.79 604.62) rotate(90) scale(.08 -.08)">
<use xlink:href="#j"/>
<use x="60.818359" xlink:href="#d"/>
<use x="122.341797" xlink:href="#h"/>
<use x="163.439453" xlink:href="#k"/>
<use x="260.851562" xlink:href="#i"/>
<use x="288.634766" xlink:href="#g"/>
<use x="352.013672" xlink:href="#f"/>
<use x="413.292969" xlink:href="#l"/>
</g>
</g>
<path d="m722.13 604.62v35.285q0 2.4 2.4 2.4h7.7425q2.4 0 2.4-2.4v-35.285q0-2.4-2.4-2.4h-7.7425q-2.4 0-2.4 2.4z" clip-path="url(#a)" fill="#fff" stroke="#fff"/>
<g clip-path="url(#a)">
<g transform="translate(726.19 604.62) rotate(90) scale(.08 -.08)">
<use xlink:href="#j"/>
<use x="60.818359" xlink:href="#d"/>
<use x="122.341797" xlink:href="#h"/>
<use x="163.439453" xlink:href="#k"/>
<use x="260.851562" xlink:href="#i"/>
<use x="288.634766" xlink:href="#g"/>
<use x="352.013672" xlink:href="#f"/>
<use x="413.292969" xlink:href="#l"/>
</g>
</g>
<path d="m789.65 498.03 0.86516-4.9804q0.41076-2.3646-1.9538-2.7753l-7.6283-1.3251q-2.3646-0.41076-2.7753 1.9538l-0.86517 4.9804q-0.41076 2.3646 1.9538 2.7753l7.6283 1.3251q2.3646 0.41076 2.7753-1.9538z" clip-path="url(#a)" fill="#fff" stroke="#fff"/>
<g clip-path="url(#a)">
<g transform="translate(785.64 497.33) rotate(-80.145) scale(.08 -.08)">
<use xlink:href="#ab"/>
</g>
</g>
<path d="m799.45 492.79 0.95609 5.5038q0.41076 2.3646 2.7753 1.9538l7.6283-1.3251q2.3646-0.41076 1.9538-2.7753l-0.95609-5.5038q-0.41076-2.3646-2.7753-1.9538l-7.6283 1.3251q-2.3646 0.41076-1.9538 2.7753z" clip-path="url(#a)" fill="#fff" stroke="#fff"/>
<g clip-path="url(#a)">
<g transform="translate(803.45 492.09) rotate(80.145) scale(.08 -.08)">
<use xlink:href="#w"/>
</g>
</g>
<path d="m766.53 604.62v35.285q0 2.4 2.4 2.4h7.7425q2.4 0 2.4-2.4v-35.285q0-2.4-2.4-2.4h-7.7425q-2.4 0-2.4 2.4z" clip-path="url(#a)" fill="#fff" stroke="#fff"/>
<g clip-path="url(#a)">
<g transform="translate(770.59 604.62) rotate(90) scale(.08 -.08)">
<use xlink:href="#j"/>
<use x="60.818359" xlink:href="#d"/>
<use x="122.341797" xlink:href="#h"/>
<use x="163.439453" xlink:href="#k"/>
<use x="260.851562" xlink:href="#i"/>
<use x="288.634766" xlink:href="#g"/>
<use x="352.013672" xlink:href="#f"/>
<use x="413.292969" xlink:href="#l"/>
</g>
</g>
<path d="m810.93 604.62v35.285q0 2.4 2.4 2.4h7.7425q2.4 0 2.4-2.4v-35.285q0-2.4-2.4-2.4h-7.7425q-2.4 0-2.4 2.4z" clip-path="url(#a)" fill="#fff" stroke="#fff"/>
<g clip-path="url(#a)">
<g transform="translate(815 604.62) rotate(90) scale(.08 -.08)">
<use xlink:href="#j"/>
<use x="60.818359" xlink:href="#d"/>
<use x="122.341797" xlink:href="#h"/>
<use x="163.439453" xlink:href="#k"/>
<use x="260.851562" xlink:href="#i"/>
<use x="288.634766" xlink:href="#g"/>
<use x="352.013672" xlink:href="#f"/>
<use x="413.292969" xlink:href="#l"/>
</g>
</g>
<path d="m455.72 604.62v35.285q0 2.4 2.4 2.4h7.7425q2.4 0 2.4-2.4v-35.285q0-2.4-2.4-2.4h-7.7425q-2.4 0-2.4 2.4z" clip-path="url(#a)" fill="#fff" stroke="#fff"/>
<g clip-path="url(#a)">
<g transform="translate(459.79 604.62) rotate(90) scale(.08 -.08)">
<use xlink:href="#j"/>
<use x="60.818359" xlink:href="#d"/>
<use x="122.341797" xlink:href="#h"/>
<use x="163.439453" xlink:href="#k"/>
<use x="260.851562" xlink:href="#i"/>
<use x="288.634766" xlink:href="#g"/>
<use x="352.013672" xlink:href="#f"/>
<use x="413.292969" xlink:href="#l"/>
</g>
</g>
<path d="m500.12 604.62v35.285q0 2.4 2.4 2.4h7.7425q2.4 0 2.4-2.4v-35.285q0-2.4-2.4-2.4h-7.7425q-2.4 0-2.4 2.4z" clip-path="url(#a)" fill="#fff" stroke="#fff"/>
<g clip-path="url(#a)">
<g transform="translate(504.19 604.62) rotate(90) scale(.08 -.08)">
<use xlink:href="#j"/>
<use x="60.818359" xlink:href="#d"/>
<use x="122.341797" xlink:href="#h"/>
<use x="163.439453" xlink:href="#k"/>
<use x="260.851562" xlink:href="#i"/>
<use x="288.634766" xlink:href="#g"/>
<use x="352.013672" xlink:href="#f"/>
<use x="413.292969" xlink:href="#l"/>
</g>
</g>
<path d="m366.92 604.62v35.285q0 2.4 2.4 2.4h7.7425q2.4 0 2.4-2.4v-35.285q0-2.4-2.4-2.4h-7.7425q-2.4 0-2.4 2.4z" clip-path="url(#a)" fill="#fff" stroke="#fff"/>
<g clip-path="url(#a)">
<g transform="translate(370.98 604.62) rotate(90) scale(.08 -.08)">
<use xlink:href="#j"/>
<use x="60.818359" xlink:href="#d"/>
<use x="122.341797" xlink:href="#h"/>
<use x="163.439453" xlink:href="#k"/>
<use x="260.851562" xlink:href="#i"/>
<use x="288.634766" xlink:href="#g"/>
<use x="352.013672" xlink:href="#f"/>
<use x="413.292969" xlink:href="#l"/>
</g>
</g>
<path d="m411.32 604.62v35.285q0 2.4 2.4 2.4h7.7425q2.4 0 2.4-2.4v-35.285q0-2.4-2.4-2.4h-7.7425q-2.4 0-2.4 2.4z" clip-path="url(#a)" fill="#fff" stroke="#fff"/>
<g clip-path="url(#a)">
<g transform="translate(415.39 604.62) rotate(90) scale(.08 -.08)">
<use xlink:href="#j"/>
<use x="60.818359" xlink:href="#d"/>
<use x="122.341797" xlink:href="#h"/>
<use x="163.439453" xlink:href="#k"/>
<use x="260.851562" xlink:href="#i"/>
<use x="288.634766" xlink:href="#g"/>
<use x="352.013672" xlink:href="#f"/>
<use x="413.292969" xlink:href="#l"/>
</g>
</g>
<path d="m189.32 604.62v35.285q0 2.4 2.4 2.4h7.7425q2.4 0 2.4-2.4v-35.285q0-2.4-2.4-2.4h-7.7425q-2.4 0-2.4 2.4z" clip-path="url(#a)" fill="#fff" stroke="#fff"/>
<g clip-path="url(#a)">
<g transform="translate(193.38 604.62) rotate(90) scale(.08 -.08)">
<use xlink:href="#j"/>
<use x="60.818359" xlink:href="#d"/>
<use x="122.341797" xlink:href="#h"/>
<use x="163.439453" xlink:href="#k"/>
<use x="260.851562" xlink:href="#i"/>
<use x="288.634766" xlink:href="#g"/>
<use x="352.013672" xlink:href="#f"/>
<use x="413.292969" xlink:href="#l"/>
</g>
</g>
<path d="m233.72 604.62v35.285q0 2.4 2.4 2.4h7.7425q2.4 0 2.4-2.4v-35.285q0-2.4-2.4-2.4h-7.7425q-2.4 0-2.4 2.4z" clip-path="url(#a)" fill="#fff" stroke="#fff"/>
<g clip-path="url(#a)">
<g transform="translate(237.78 604.62) rotate(90) scale(.08 -.08)">
<use xlink:href="#j"/>
<use x="60.818359" xlink:href="#d"/>
<use x="122.341797" xlink:href="#h"/>
<use x="163.439453" xlink:href="#k"/>
<use x="260.851562" xlink:href="#i"/>
<use x="288.634766" xlink:href="#g"/>
<use x="352.013672" xlink:href="#f"/>
<use x="413.292969" xlink:href="#l"/>
</g>
</g>
<path d="m278.12 604.62v35.285q0 2.4 2.4 2.4h7.7425q2.4 0 2.4-2.4v-35.285q0-2.4-2.4-2.4h-7.7425q-2.4 0-2.4 2.4z" clip-path="url(#a)" fill="#fff" stroke="#fff"/>
<g clip-path="url(#a)">
<g transform="translate(282.18 604.62) rotate(90) scale(.08 -.08)">
<use xlink:href="#j"/>
<use x="60.818359" xlink:href="#d"/>
<use x="122.341797" xlink:href="#h"/>
<use x="163.439453" xlink:href="#k"/>
<use x="260.851562" xlink:href="#i"/>
<use x="288.634766" xlink:href="#g"/>
<use x="352.013672" xlink:href="#f"/>
<use x="413.292969" xlink:href="#l"/>
</g>
</g>
<path d="m485.41 239.29 3.9942-9.1854q0.95706-2.2009-1.2439-3.158l-7.1003-3.0875q-2.2009-0.95706-3.158 1.2439l-3.9942 9.1854q-0.95706 2.2009 1.2439 3.158l7.1003 3.0875q2.2009 0.95706 3.158-1.2439z" clip-path="url(#a)" fill="#fff" stroke="#fff"/>
<g clip-path="url(#a)">
<defs>
<path id="af" d="m44.391 34.188q3.1719-1.0781 6.1719-4.5938t6.0312-9.6719l10.016-19.922h-10.609l-9.3125 18.703q-3.625 7.3281-7.0156 9.7188t-9.25 2.3906h-10.75v-30.812h-9.8594v72.906h22.266q12.5 0 18.656-5.2344 6.1562-5.2188 6.1562-15.766 0-6.8906-3.2031-11.438-3.2031-4.5312-9.2969-6.2812zm-24.719 30.609v-25.875h12.406q7.125 0 10.766 3.2969t3.6406 9.6875-3.6406 9.6406-10.766 3.25z"/>
</defs>
<g transform="translate(481.68 237.67) rotate(-66.498) scale(.08 -.08)">
<use xlink:href="#o"/>
<use x="55.712891" xlink:href="#af"/>
</g>
</g>
<path d="m646.39 103.25 7.8204 6.1234q1.8896 1.4796 3.3693-0.41004l4.7733-6.0961q1.4796-1.8896-0.41004-3.3693l-7.8204-6.1234q-1.8896-1.4796-3.3693 0.41004l-4.7733 6.0961q-1.4796 1.8896 0.41004 3.3693z" clip-path="url(#a)" fill="#fff" stroke="#fff"/>
<g clip-path="url(#a)">
<g transform="translate(648.9 100.05) rotate(38.061) scale(.08 -.08)">
<use xlink:href="#o"/>
<use x="55.744141" xlink:href="#p"/>
</g>
</g>
<path d="m178.72 435.68 1.7028-9.8704q0.40801-2.3651-1.9571-2.7731l-7.6298-1.3162q-2.3651-0.40801-2.7731 1.9571l-1.7028 9.8704q-0.40801 2.3651 1.9571 2.7731l7.6298 1.3162q2.3651 0.40801 2.7731-1.9571z" clip-path="url(#a)" fill="#fff" stroke="#fff"/>
<g clip-path="url(#a)">
<g transform="translate(174.71 434.99) rotate(-80.212) scale(.08 -.08)">
<use xlink:href="#o"/>
<use x="55.712891" xlink:href="#af"/>
</g>
</g>
<path d="m210.25 363.11 3.2197 9.3962q0.77798 2.2704 3.0484 1.4924l7.3244-2.5098q2.2704-0.77798 1.4924-3.0484l-3.2197-9.3962q-0.77798-2.2704-3.0484-1.4924l-7.3244 2.5098q-2.2704 0.77798-1.4924 3.0484z" clip-path="url(#a)" fill="#fff" stroke="#fff"/>
<g clip-path="url(#a)">
<g transform="translate(214.09 361.8) rotate(71.085) scale(.08 -.08)">
<use xlink:href="#o"/>
<use x="55.744141" xlink:href="#p"/>
</g>
</g>
<path d="m301.49 371.67 7.7655-6.3263q1.8607-1.5158 0.34486-3.3765l-4.8902-6.0027q-1.5158-1.8607-3.3765-0.34486l-7.7655 6.3263q-1.8607 1.5158-0.34486 3.3765l4.8902 6.0027q1.5158 1.8607 3.3765 0.34486z" clip-path="url(#a)" fill="#fff" stroke="#fff"/>
<g clip-path="url(#a)">
<g transform="translate(298.92 368.52) rotate(-39.168) scale(.08 -.08)">
<use xlink:href="#o"/>
<use x="55.712891" xlink:href="#af"/>
</g>
</g>
<path d="m773.01 239.67 9.5738 2.645q2.3133 0.63911 2.9525-1.6742l2.0618-7.4629q0.63911-2.3133-1.6742-2.9525l-9.5738-2.645q-2.3133-0.63911-2.9525 1.6742l-2.0618 7.4629q-0.63911 2.3133 1.6742 2.9525z" clip-path="url(#a)" fill="#fff" stroke="#fff"/>
<g clip-path="url(#a)">
<g transform="translate(774.09 235.76) rotate(15.444) scale(.08 -.08)">
<use xlink:href="#o"/>
<use x="55.744141" xlink:href="#p"/>
</g>
</g>
<path d="m100.51 604.62v35.285q0 2.4 2.4 2.4h7.7425q2.4 0 2.4-2.4v-35.285q0-2.4-2.4-2.4h-7.7425q-2.4 0-2.4 2.4z" clip-path="url(#a)" fill="#fff" stroke="#fff"/>
<g clip-path="url(#a)">
<g transform="translate(104.58 604.62) rotate(90) scale(.08 -.08)">
<use xlink:href="#j"/>
<use x="60.818359" xlink:href="#d"/>
<use x="122.341797" xlink:href="#h"/>
<use x="163.439453" xlink:href="#k"/>
<use x="260.851562" xlink:href="#i"/>
<use x="288.634766" xlink:href="#g"/>
<use x="352.013672" xlink:href="#f"/>
<use x="413.292969" xlink:href="#l"/>
</g>
</g>
<path d="m322.52 604.62v35.285q0 2.4 2.4 2.4h7.7425q2.4 0 2.4-2.4v-35.285q0-2.4-2.4-2.4h-7.7425q-2.4 0-2.4 2.4z" clip-path="url(#a)" fill="#fff" stroke="#fff"/>
<g clip-path="url(#a)">
<g transform="translate(326.58 604.62) rotate(90) scale(.08 -.08)">
<use xlink:href="#j"/>
<use x="60.818359" xlink:href="#d"/>
<use x="122.341797" xlink:href="#h"/>
<use x="163.439453" xlink:href="#k"/>
<use x="260.851562" xlink:href="#i"/>
<use x="288.634766" xlink:href="#g"/>
<use x="352.013672" xlink:href="#f"/>
<use x="413.292969" xlink:href="#l"/>
</g>
</g>
<path d="m855.33 604.62v35.285q0 2.4 2.4 2.4h7.7425q2.4 0 2.4-2.4v-35.285q0-2.4-2.4-2.4h-7.7425q-2.4 0-2.4 2.4z" clip-path="url(#a)" fill="#fff" stroke="#fff"/>
<g clip-path="url(#a)">
<g transform="translate(859.4 604.62) rotate(90) scale(.08 -.08)">
<use xlink:href="#j"/>
<use x="60.818359" xlink:href="#d"/>
<use x="122.341797" xlink:href="#h"/>
<use x="163.439453" xlink:href="#k"/>
<use x="260.851562" xlink:href="#i"/>
<use x="288.634766" xlink:href="#g"/>
<use x="352.013672" xlink:href="#f"/>
<use x="413.292969" xlink:href="#l"/>
</g>
</g>
<path d="m1210.5 604.62v35.285q0 2.4 2.4 2.4h7.7425q2.4 0 2.4-2.4v-35.285q0-2.4-2.4-2.4h-7.7425q-2.4 0-2.4 2.4z" clip-path="url(#a)" fill="#fff" stroke="#fff"/>
<g clip-path="url(#a)">
<g transform="translate(1214.6 604.62) rotate(90) scale(.08 -.08)">
<use xlink:href="#j"/>
<use x="60.818359" xlink:href="#d"/>
<use x="122.341797" xlink:href="#h"/>
<use x="163.439453" xlink:href="#k"/>
<use x="260.851562" xlink:href="#i"/>
<use x="288.634766" xlink:href="#g"/>
<use x="352.013672" xlink:href="#f"/>
<use x="413.292969" xlink:href="#l"/>
</g>
</g>
<defs>
<path id="b" d="m0 8.6603c2.2967 0 4.4997-0.9125 6.1237-2.5365 1.624-1.624 2.5365-3.827 2.5365-6.1237s-0.9125-4.4997-2.5365-6.1237c-1.624-1.624-3.827-2.5365-6.1237-2.5365s-4.4997 0.9125-6.1237 2.5365c-1.624 1.624-2.5365 3.827-2.5365 6.1237s0.9125 4.4997 2.5365 6.1237c1.624 1.624 3.827 2.5365 6.1237 2.5365z"/>
</defs>
<g clip-path="url(#a)">
<use x="62.3842" y="686.165949" fill="#ffffff" stroke="#ffffff" xlink:href="#b"/>
</g>
<g clip-path="url(#a)">
<use x="106.785328" y="686.165949" fill="#ffffff" stroke="#ffffff" xlink:href="#b"/>
</g>
<g clip-path="url(#a)">
<use x="151.186457" y="686.165949" fill="#ffffff" stroke="#ffffff" xlink:href="#b"/>
</g>
<g clip-path="url(#a)">
<use x="195.587586" y="686.165949" fill="#ffffff" stroke="#ffffff" xlink:href="#b"/>
</g>
<g clip-path="url(#a)">
<use x="239.988714" y="686.165949" fill="#ffffff" stroke="#ffffff" xlink:href="#b"/>
</g>
<g clip-path="url(#a)">
<use x="284.389843" y="686.165949" fill="#ffffff" stroke="#ffffff" xlink:href="#b"/>
</g>
<g clip-path="url(#a)">
<use x="328.790971" y="686.165949" fill="#ffffff" stroke="#ffffff" xlink:href="#b"/>
</g>
<g clip-path="url(#a)">
<use x="373.1921" y="686.165949" fill="#ffffff" stroke="#ffffff" xlink:href="#b"/>
</g>
<g clip-path="url(#a)">
<use x="417.593228" y="686.165949" fill="#ffffff" stroke="#ffffff" xlink:href="#b"/>
</g>
<g clip-path="url(#a)">
<use x="461.994357" y="686.165949" fill="#ffffff" stroke="#ffffff" xlink:href="#b"/>
</g>
<g clip-path="url(#a)">
<use x="506.395486" y="686.165949" fill="#ffffff" stroke="#ffffff" xlink:href="#b"/>
</g>
<g clip-path="url(#a)">
<use x="550.796614" y="686.165949" fill="#ffffff" stroke="#ffffff" xlink:href="#b"/>
</g>
<g clip-path="url(#a)">
<use x="595.197743" y="686.165949" fill="#ffffff" stroke="#ffffff" xlink:href="#b"/>
</g>
<g clip-path="url(#a)">
<use x="639.598871" y="686.165949" fill="#ffffff" stroke="#ffffff" xlink:href="#b"/>
</g>
<g clip-path="url(#a)">
<use x="684" y="686.165949" fill="#ffffff" stroke="#ffffff" xlink:href="#b"/>
</g>
<g clip-path="url(#a)">
<use x="728.401129" y="686.165949" fill="#ffffff" stroke="#ffffff" xlink:href="#b"/>
</g>
<g clip-path="url(#a)">
<use x="772.802257" y="686.165949" fill="#ffffff" stroke="#ffffff" xlink:href="#b"/>
</g>
<g clip-path="url(#a)">
<use x="817.203386" y="686.165949" fill="#ffffff" stroke="#ffffff" xlink:href="#b"/>
</g>
<g clip-path="url(#a)">
<use x="861.604514" y="686.165949" fill="#ffffff" stroke="#ffffff" xlink:href="#b"/>
</g>
<g clip-path="url(#a)">
<use x="906.005643" y="686.165949" fill="#ffffff" stroke="#ffffff" xlink:href="#b"/>
</g>
<g clip-path="url(#a)">
<use x="950.406772" y="686.165949" fill="#ffffff" stroke="#ffffff" xlink:href="#b"/>
</g>
<g clip-path="url(#a)">
<use x="994.8079" y="686.165949" fill="#ffffff" stroke="#ffffff" xlink:href="#b"/>
</g>
<g clip-path="url(#a)">
<use x="1039.209029" y="686.165949" fill="#ffffff" stroke="#ffffff" xlink:href="#b"/>
</g>
<g clip-path="url(#a)">
<use x="1083.610157" y="686.165949" fill="#ffffff" stroke="#ffffff" xlink:href="#b"/>
</g>
<g clip-path="url(#a)">
<use x="1128.011286" y="686.165949" fill="#ffffff" stroke="#ffffff" xlink:href="#b"/>
</g>
<g clip-path="url(#a)">
<use x="1172.412414" y="686.165949" fill="#ffffff" stroke="#ffffff" xlink:href="#b"/>
</g>
<g clip-path="url(#a)">
<use x="1216.813543" y="686.165949" fill="#ffffff" stroke="#ffffff" xlink:href="#b"/>
</g>
<g clip-path="url(#a)">
<use x="433.894198" y="33.834051" fill="#ffffff" stroke="#ffffff" xlink:href="#b"/>
</g>
<g clip-path="url(#a)">
<use x="62.3842" y="558.366178" fill="#ffffff" stroke="#ffffff" xlink:href="#b"/>
</g>
<g clip-path="url(#a)">
<use x="151.186457" y="558.366178" fill="#ffffff" stroke="#ffffff" xlink:href="#b"/>
</g>
<g clip-path="url(#a)">
<use x="239.988714" y="430.566407" fill="#ffffff" stroke="#ffffff" xlink:href="#b"/>
</g>
<g clip-path="url(#a)">
<use x="395.392664" y="430.566407" fill="#ffffff" stroke="#ffffff" xlink:href="#b"/>
</g>
<g clip-path="url(#a)">
<use x="740.426434" y="168.916079" fill="#ffffff" stroke="#ffffff" xlink:href="#b"/>
</g>
<g clip-path="url(#a)">
<use x="1018.488502" y="300.9888" fill="#ffffff" stroke="#ffffff" xlink:href="#b"/>
</g>
<g clip-path="url(#a)">
<use x="928.206207" y="430.566407" fill="#ffffff" stroke="#ffffff" xlink:href="#b"/>
</g>
<g clip-path="url(#a)">
<use x="1017.008464" y="558.366178" fill="#ffffff" stroke="#ffffff" xlink:href="#b"/>
</g>
<g clip-path="url(#a)">
<use x="1110.250834" y="430.566407" fill="#ffffff" stroke="#ffffff" xlink:href="#b"/>
</g>
<g clip-path="url(#a)">
<use x="1083.610157" y="558.366178" fill="#ffffff" stroke="#ffffff" xlink:href="#b"/>
</g>
<g clip-path="url(#a)">
<use x="1128.011286" y="558.366178" fill="#ffffff" stroke="#ffffff" xlink:href="#b"/>
</g>
<g clip-path="url(#a)">
<use x="1172.412414" y="558.366178" fill="#ffffff" stroke="#ffffff" xlink:href="#b"/>
</g>
<g clip-path="url(#a)">
<use x="906.005643" y="558.366178" fill="#ffffff" stroke="#ffffff" xlink:href="#b"/>
</g>
<g clip-path="url(#a)">
<use x="950.406772" y="558.366178" fill="#ffffff" stroke="#ffffff" xlink:href="#b"/>
</g>
<g clip-path="url(#a)">
<use x="1305.6158" y="686.165949" fill="#ffffff" stroke="#ffffff" xlink:href="#b"/>
</g>
<g clip-path="url(#a)">
<use x="484.194921" y="430.566407" fill="#ffffff" stroke="#ffffff" xlink:href="#b"/>
</g>
<g clip-path="url(#a)">
<use x="550.796614" y="558.366178" fill="#ffffff" stroke="#ffffff" xlink:href="#b"/>
</g>
<g clip-path="url(#a)">
<use x="595.197743" y="558.366178" fill="#ffffff" stroke="#ffffff" xlink:href="#b"/>
</g>
<g clip-path="url(#a)">
<use x="639.598871" y="558.366178" fill="#ffffff" stroke="#ffffff" xlink:href="#b"/>
</g>
<g clip-path="url(#a)">
<use x="867.154655" y="300.9888" fill="#ffffff" stroke="#ffffff" xlink:href="#b"/>
</g>
<g clip-path="url(#a)">
<use x="1261.214672" y="686.165949" fill="#ffffff" stroke="#ffffff" xlink:href="#b"/>
</g>
<g clip-path="url(#a)">
<use x="684" y="558.366178" fill="#ffffff" stroke="#ffffff" xlink:href="#b"/>
</g>
<g clip-path="url(#a)">
<use x="728.401129" y="558.366178" fill="#ffffff" stroke="#ffffff" xlink:href="#b"/>
</g>
<g clip-path="url(#a)">
<use x="795.002821" y="430.566407" fill="#ffffff" stroke="#ffffff" xlink:href="#b"/>
</g>
<g clip-path="url(#a)">
<use x="772.802257" y="558.366178" fill="#ffffff" stroke="#ffffff" xlink:href="#b"/>
</g>
<g clip-path="url(#a)">
<use x="817.203386" y="558.366178" fill="#ffffff" stroke="#ffffff" xlink:href="#b"/>
</g>
<g clip-path="url(#a)">
<use x="461.994357" y="558.366178" fill="#ffffff" stroke="#ffffff" xlink:href="#b"/>
</g>
<g clip-path="url(#a)">
<use x="506.395486" y="558.366178" fill="#ffffff" stroke="#ffffff" xlink:href="#b"/>
</g>
<g clip-path="url(#a)">
<use x="373.1921" y="558.366178" fill="#ffffff" stroke="#ffffff" xlink:href="#b"/>
</g>
<g clip-path="url(#a)">
<use x="417.593228" y="558.366178" fill="#ffffff" stroke="#ffffff" xlink:href="#b"/>
</g>
<g clip-path="url(#a)">
<use x="195.587586" y="558.366178" fill="#ffffff" stroke="#ffffff" xlink:href="#b"/>
</g>
<g clip-path="url(#a)">
<use x="239.988714" y="558.366178" fill="#ffffff" stroke="#ffffff" xlink:href="#b"/>
</g>
<g clip-path="url(#a)">
<use x="284.389843" y="558.366178" fill="#ffffff" stroke="#ffffff" xlink:href="#b"/>
</g>
<g clip-path="url(#a)">
<use x="567.909549" y="33.834051" fill="#808080" stroke="#808080" xlink:href="#b"/>
</g>
<g clip-path="url(#a)">
<use x="195.587586" y="300.9888" fill="#808080" stroke="#808080" xlink:href="#b"/>
</g>
<g clip-path="url(#a)">
<use x="540.436351" y="168.916079" fill="#808080" stroke="#808080" xlink:href="#b"/>
</g>
<g clip-path="url(#a)">
<use x="106.785328" y="558.366178" fill="#ffffff" stroke="#ffffff" xlink:href="#b"/>
</g>
<g clip-path="url(#a)">
<use x="328.790971" y="558.366178" fill="#ffffff" stroke="#ffffff" xlink:href="#b"/>
</g>
<g clip-path="url(#a)">
<use x="861.604514" y="558.366178" fill="#ffffff" stroke="#ffffff" xlink:href="#b"/>
</g>
<g clip-path="url(#a)">
<use x="1216.813543" y="558.366178" fill="#ffffff" stroke="#ffffff" xlink:href="#b"/>
</g>
<g clip-path="url(#a)">
<defs>
<path id="as" d="m19.672 34.812v-26.703h15.828q7.9531 0 11.781 3.2969 3.8438 3.2969 3.8438 10.078 0 6.8438-3.8438 10.078-3.8281 3.25-11.781 3.25zm0 29.984v-21.969h14.609q7.2188 0 10.75 2.7031 3.5469 2.7188 3.5469 8.2812 0 5.5156-3.5469 8.25-3.5312 2.7344-10.75 2.7344zm-9.8594 8.1094h25.203q11.281 0 17.375-4.6875 6.1094-4.6875 6.1094-13.328 0-6.7031-3.125-10.656t-9.1875-4.9219q7.2812-1.5625 11.312-6.5312 4.0312-4.9531 4.0312-12.375 0-9.7656-6.6406-15.094-6.6406-5.3125-18.906-5.3125h-26.172z"/>
<path id="ad" d="m8.5 21.578v33.109h8.9844v-32.766q0-7.7656 3.0156-11.656 3.0312-3.875 9.0938-3.875 7.2656 0 11.484 4.6406 4.2344 4.6406 4.2344 12.656v31h8.9844v-54.688h-8.9844v8.4062q-3.2656-4.9844-7.5938-7.4062-4.3125-2.4219-10.031-2.4219-9.4219 0-14.312 5.8594-4.875 5.8594-4.875 17.141z"/>
<path id="r" d="m18.312 70.219v-15.531h18.5v-6.9844h-18.5v-29.688q0-6.6875 1.8281-8.5938t7.4531-1.9062h9.2188v-7.5156h-9.2188q-10.406 0-14.359 3.875-3.9531 3.8906-3.9531 14.141v29.688h-6.5938v6.9844h6.5938v15.531z"/>
</defs>
<g transform="translate(53.825 688.93) scale(.1 -.1)">
<use xlink:href="#as"/>
<use x="68.603516" xlink:href="#ad"/>
<use x="131.982422" xlink:href="#r"/>
</g>
</g>
<g clip-path="url(#a)">
<defs>
<path id="am" d="m11.719 12.406h10.297v-8.4062l-8-15.625h-6.2969l4 15.625z"/>
</defs>
<g transform="translate(105.2 688.93) scale(.1 -.1)">
<use xlink:href="#am"/>
</g>
</g>
<g clip-path="url(#a)">
<defs>
<path id="s" d="m44.281 53.078v-8.5q-3.7969 1.9531-7.9062 2.9219-4.0938 0.98438-8.5 0.98438-6.6875 0-10.031-2.0469t-3.3438-6.1562q0-3.125 2.3906-4.9062t9.625-3.3906l3.0781-0.6875q9.5625-2.0469 13.594-5.7812t4.0312-10.422q0-7.625-6.0312-12.078-6.0312-4.4375-16.578-4.4375-4.3906 0-9.1562 0.85938t-10.031 2.5625v9.2812q4.9844-2.5938 9.8125-3.8906 4.8281-1.2812 9.5781-1.2812 6.3438 0 9.75 2.1719 3.4219 2.1719 3.4219 6.125 0 3.6562-2.4688 5.6094-2.4531 1.9531-10.812 3.7656l-3.125 0.73438q-8.3438 1.75-12.062 5.3906-3.7031 3.6406-3.7031 9.9844 0 7.7188 5.4688 11.906 5.4688 4.2031 15.531 4.2031 4.9688 0 9.3594-0.73438 4.4062-0.71875 8.1094-2.1875z"/>
</defs>
<g transform="translate(145.52 688.93) scale(.1 -.1)">
<use xlink:href="#f"/>
<use x="61.279297" xlink:href="#s"/>
</g>
</g>
<g clip-path="url(#a)">
<g transform="translate(192.24 688.93) scale(.1 -.1)">
<use xlink:href="#i"/>
<use x="27.783203" xlink:href="#r"/>
</g>
</g>
<g clip-path="url(#a)">
<defs>
<path id="aq" d="m4.2031 54.688h8.9844l11.234-42.672 11.172 42.672h10.594l11.234-42.672 11.188 42.672h8.9844l-14.312-54.688h-10.594l-11.766 44.828-11.812-44.828h-10.609z"/>
<path id="at" d="m32.172-5.0781q-3.7969-9.7656-7.4219-12.734-3.6094-2.9844-9.6562-2.9844h-7.1875v7.5156h5.2812q3.7031 0 5.75 1.7656 2.0625 1.75 4.5469 8.2969l1.6094 4.0938-22.109 53.812h9.5156l17.094-42.766 17.094 42.766h9.5156z"/>
</defs>
<g transform="translate(222.82 688.93) scale(.1 -.1)">
<use xlink:href="#f"/>
<use x="61.279297" xlink:href="#l"/>
<use x="89.0625" xlink:href="#aq"/>
<use x="170.849609" xlink:href="#f"/>
<use x="232.128906" xlink:href="#at"/>
<use x="291.308594" xlink:href="#s"/>
</g>
</g>
<g clip-path="url(#a)">
<defs>
<path id="u" d="m54.891 33.016v-33.016h-8.9844v32.719q0 7.7656-3.0312 11.609-3.0312 3.8594-9.0781 3.8594-7.2812 0-11.484-4.6406-4.2031-4.625-4.2031-12.641v-30.906h-9.0312v75.984h9.0312v-29.797q3.2344 4.9375 7.5938 7.375 4.375 2.4375 10.094 2.4375 9.4219 0 14.25-5.8281 4.8438-5.8281 4.8438-17.156z"/>
<path id="y" d="m18.109 8.2031v-29h-9.0312v75.484h9.0312v-8.2969q2.8438 4.875 7.1562 7.2344 4.3281 2.375 10.328 2.375 9.9688 0 16.188-7.9062 6.2344-7.9062 6.2344-20.797t-6.2344-20.812q-6.2188-7.9062-16.188-7.9062-6 0-10.328 2.375-4.3125 2.375-7.1562 7.25zm30.578 19.094q0 9.9062-4.0781 15.547t-11.203 5.6406q-7.1406 0-11.219-5.6406t-4.0781-15.547 4.0781-15.547 11.219-5.6406q7.125 0 11.203 5.6406t4.0781 15.547z"/>
</defs>
<g transform="translate(262.96 688.93) scale(.1 -.1)">
<use xlink:href="#u"/>
<use x="63.378906" xlink:href="#f"/>
<use x="124.658203" xlink:href="#y"/>
<use x="188.134766" xlink:href="#y"/>
<use x="251.611328" xlink:href="#d"/>
<use x="313.134766" xlink:href="#g"/>
<use x="376.513672" xlink:href="#s"/>
</g>
</g>
<g clip-path="url(#a)">
<g transform="translate(327.2 688.93) scale(.1 -.1)">
<use xlink:href="#am"/>
</g>
</g>
<g clip-path="url(#a)">
<defs>
<path id="au" d="m9.4219 54.688h8.9844v-55.672q0-10.438-3.9844-15.125-3.9688-4.6875-12.812-4.6875h-3.4219v7.6094h2.4062q5.125 0 6.9688 2.375 1.8594 2.3594 1.8594 9.8281zm0 21.297h8.9844v-11.391h-8.9844z"/>
</defs>
<g transform="translate(364.07 688.93) scale(.1 -.1)">
<use xlink:href="#au"/>
<use x="27.783203" xlink:href="#ad"/>
<use x="91.162109" xlink:href="#s"/>
<use x="143.261719" xlink:href="#r"/>
</g>
</g>
<g clip-path="url(#a)">
<g transform="translate(404.09 688.93) scale(.1 -.1)">
<use xlink:href="#aq"/>
<use x="81.787109" xlink:href="#u"/>
<use x="145.166016" xlink:href="#d"/>
<use x="206.689453" xlink:href="#g"/>
</g>
</g>
<g clip-path="url(#a)">
<g transform="translate(458.93 688.93) scale(.1 -.1)">
<use xlink:href="#f"/>
</g>
</g>
<g clip-path="url(#a)">
<defs>
<path id="an" d="m45.406 46.391v29.594h8.9844v-75.984h-8.9844v8.2031q-2.8281-4.875-7.1562-7.25-4.3125-2.375-10.375-2.375-9.9062 0-16.141 7.9062-6.2188 7.9219-6.2188 20.812t6.2188 20.797q6.2344 7.9062 16.141 7.9062 6.0625 0 10.375-2.375 4.3281-2.3594 7.1562-7.2344zm-30.609-19.094q0-9.9062 4.0781-15.547t11.203-5.6406 11.219 5.6406q4.1094 5.6406 4.1094 15.547t-4.1094 15.547q-4.0938 5.6406-11.219 5.6406t-11.203-5.6406-4.0781-15.547z"/>
<path id="ae" d="m48.781 52.594v-8.4062q-3.8125 2.1094-7.6406 3.1562t-7.7344 1.0469q-8.75 0-13.594-5.5469-4.8281-5.5312-4.8281-15.547t4.8281-15.562q4.8438-5.5312 13.594-5.5312 3.9062 0 7.7344 1.0469t7.6406 3.1562v-8.3125q-3.7656-1.75-7.7969-2.625-4.0156-0.89062-8.5625-0.89062-12.359 0-19.641 7.7656-7.2656 7.7656-7.2656 20.953 0 13.375 7.3438 21.031 7.3594 7.6719 20.156 7.6719 4.1406 0 8.0938-0.85938 3.9531-0.84375 7.6719-2.5469z"/>
<path id="z" d="m30.609 48.391q-7.2188 0-11.422-5.6406t-4.2031-15.453 4.1719-15.453q4.1875-5.6406 11.453-5.6406 7.1875 0 11.375 5.6562 4.2031 5.6719 4.2031 15.438 0 9.7188-4.2031 15.406-4.1875 5.6875-11.375 5.6875zm0 7.6094q11.719 0 18.406-7.625 6.7031-7.6094 6.7031-21.078 0-13.422-6.7031-21.078-6.6875-7.6406-18.406-7.6406-11.766 0-18.438 7.6406-6.6562 7.6562-6.6562 21.078 0 13.469 6.6562 21.078 6.6719 7.625 18.438 7.625z"/>
</defs>
<g transform="translate(485.78 688.93) scale(.1 -.1)">
<use xlink:href="#an"/>
<use x="63.476562" xlink:href="#d"/>
<use x="125" xlink:href="#ae"/>
<use x="179.980469" xlink:href="#i"/>
<use x="207.763672" xlink:href="#s"/>
<use x="259.863281" xlink:href="#i"/>
<use x="287.646484" xlink:href="#z"/>
<use x="348.828125" xlink:href="#g"/>
</g>
</g>
<g clip-path="url(#a)">
<g transform="translate(541.39 688.93) scale(.1 -.1)">
<use xlink:href="#u"/>
<use x="63.378906" xlink:href="#f"/>
<use x="124.658203" xlink:href="#an"/>
</g>
</g>
<g clip-path="url(#a)">
<defs>
<path id="ar" d="m48.688 27.297q0 9.9062-4.0781 15.547t-11.203 5.6406q-7.1406 0-11.219-5.6406t-4.0781-15.547 4.0781-15.547 11.219-5.6406q7.125 0 11.203 5.6406t4.0781 15.547zm-30.578 19.094q2.8438 4.875 7.1562 7.2344 4.3281 2.375 10.328 2.375 9.9688 0 16.188-7.9062 6.2344-7.9062 6.2344-20.797t-6.2344-20.812q-6.2188-7.9062-16.188-7.9062-6 0-10.328 2.375-4.3125 2.375-7.1562 7.25v-8.2031h-9.0312v75.984h9.0312z"/>
</defs>
<g transform="translate(582.7 688.93) scale(.1 -.1)">
<use xlink:href="#ar"/>
<use x="63.476562" xlink:href="#d"/>
<use x="125" xlink:href="#d"/>
<use x="186.523438" xlink:href="#g"/>
</g>
</g>
<g clip-path="url(#a)">
<g transform="translate(625.41 688.93) scale(.1 -.1)">
<use xlink:href="#k"/>
<use x="97.412109" xlink:href="#f"/>
<use x="158.691406" xlink:href="#an"/>
<use x="222.167969" xlink:href="#d"/>
</g>
</g>
<g clip-path="url(#a)">
<g transform="translate(678.98 688.93) scale(.1 -.1)">
<use xlink:href="#r"/>
<use x="39.208984" xlink:href="#z"/>
</g>
</g>
<g clip-path="url(#a)">
<g transform="translate(713.74 688.93) scale(.1 -.1)">
<use xlink:href="#ae"/>
<use x="54.980469" xlink:href="#u"/>
<use x="118.359375" xlink:href="#f"/>
<use x="179.638672" xlink:href="#s"/>
<use x="231.738281" xlink:href="#d"/>
</g>
</g>
<g clip-path="url(#a)">
<g transform="translate(764.6 688.93) scale(.1 -.1)">
<use xlink:href="#r"/>
<use x="39.208984" xlink:href="#u"/>
<use x="102.587891" xlink:href="#d"/>
</g>
</g>
<g clip-path="url(#a)">
<g transform="translate(796.41 688.93) scale(.1 -.1)">
<use xlink:href="#k"/>
<use x="97.412109" xlink:href="#z"/>
<use x="158.59375" xlink:href="#g"/>
<use x="221.972656" xlink:href="#s"/>
<use x="274.072266" xlink:href="#r"/>
<use x="313.28125" xlink:href="#d"/>
<use x="374.804688" xlink:href="#h"/>
</g>
</g>
<g clip-path="url(#a)">
<g transform="translate(860.02 688.93) scale(.1 -.1)">
<use xlink:href="#am"/>
</g>
</g>
<g clip-path="url(#a)">
<g transform="translate(897.8 688.93) scale(.1 -.1)">
<use xlink:href="#r"/>
<use x="39.208984" xlink:href="#u"/>
<use x="102.587891" xlink:href="#d"/>
</g>
</g>
<g clip-path="url(#a)">
<g transform="translate(929.61 688.93) scale(.1 -.1)">
<use xlink:href="#k"/>
<use x="97.412109" xlink:href="#z"/>
<use x="158.59375" xlink:href="#g"/>
<use x="221.972656" xlink:href="#s"/>
<use x="274.072266" xlink:href="#r"/>
<use x="313.28125" xlink:href="#d"/>
<use x="374.804688" xlink:href="#h"/>
</g>
</g>
<g clip-path="url(#a)">
<g transform="translate(986.5 688.93) scale(.1 -.1)">
<use xlink:href="#y"/>
<use x="63.476562" xlink:href="#ad"/>
<use x="126.855469" xlink:href="#r"/>
</g>
</g>
<g clip-path="url(#a)">
<g transform="translate(1034.7 688.93) scale(.1 -.1)">
<use xlink:href="#i"/>
<use x="27.783203" xlink:href="#g"/>
</g>
</g>
<g clip-path="url(#a)">
<g transform="translate(1077.4 688.93) scale(.1 -.1)">
<use xlink:href="#g"/>
<use x="63.378906" xlink:href="#z"/>
</g>
</g>
<g clip-path="url(#a)">
<defs>
<path id="av" d="m37.109 75.984v-7.4844h-8.5938q-4.8281 0-6.7188-1.9531-1.875-1.9531-1.875-7.0312v-4.8281h14.797v-6.9844h-14.797v-47.703h-9.0312v47.703h-8.5938v6.9844h8.5938v3.8125q0 9.125 4.25 13.297 4.25 4.1875 13.469 4.1875z"/>
</defs>
<g transform="translate(1110.8 688.93) scale(.1 -.1)">
<use xlink:href="#av"/>
<use x="35.205078" xlink:href="#ad"/>
<use x="98.583984" xlink:href="#h"/>
<use x="139.697266" xlink:href="#r"/>
<use x="178.90625" xlink:href="#u"/>
<use x="242.285156" xlink:href="#d"/>
<use x="303.808594" xlink:href="#h"/>
</g>
</g>
<g clip-path="url(#a)">
<g transform="translate(1140.1 688.93) scale(.1 -.1)">
<use xlink:href="#f"/>
<use x="61.279297" xlink:href="#y"/>
<use x="124.755859" xlink:href="#y"/>
<use x="188.232422" xlink:href="#d"/>
<use x="249.755859" xlink:href="#f"/>
<use x="311.035156" xlink:href="#h"/>
<use x="352.148438" xlink:href="#f"/>
<use x="413.427734" xlink:href="#g"/>
<use x="476.806641" xlink:href="#ae"/>
<use x="531.787109" xlink:href="#d"/>
<use x="593.310547" xlink:href="#s"/>
</g>
</g>
<g clip-path="url(#a)">
<defs>
<path id="e" d="m10.688 12.406h10.312v-12.406h-10.312z"/>
</defs>
<g transform="translate(1215.2 688.93) scale(.1 -.1)">
<use xlink:href="#e"/>
</g>
</g>
<g clip-path="url(#a)">
<defs>
<path id="c" d="m12.406 8.2969h16.109v55.625l-17.531-3.5156v8.9844l17.438 3.5156h9.8594v-64.609h16.109v-8.2969h-41.984z"/>
</defs>
<g transform="translate(425.94 36.593) scale(.1 -.1)">
<use xlink:href="#c"/>
<use x="63.623047" xlink:href="#e"/>
<use x="95.410156" xlink:href="#c"/>
</g>
</g>
<g clip-path="url(#a)">
<defs>
<path id="n" d="m19.188 8.2969h34.422v-8.2969h-46.281v8.2969q5.6094 5.8125 15.297 15.594 9.7031 9.7969 12.188 12.641 4.7344 5.3125 6.6094 9 1.8906 3.6875 1.8906 7.25 0 5.8125-4.0781 9.4688-4.0781 3.6719-10.625 3.6719-4.6406 0-9.7969-1.6094-5.1406-1.6094-11-4.8906v9.9688q5.9531 2.3906 11.125 3.6094 5.1875 1.2188 9.4844 1.2188 11.328 0 18.062-5.6719 6.7344-5.6562 6.7344-15.125 0-4.5-1.6875-8.5312-1.6719-4.0156-6.125-9.4844-1.2188-1.4219-7.7656-8.1875-6.5312-6.7656-18.453-18.922z"/>
</defs>
<g transform="translate(54.433 561.13) scale(.1 -.1)">
<use xlink:href="#c"/>
<use x="63.623047" xlink:href="#e"/>
<use x="95.410156" xlink:href="#n"/>
</g>
</g>
<g clip-path="url(#a)">
<defs>
<path id="m" d="m40.578 39.312q7.0781-1.5156 11.047-6.3125 3.9844-4.7812 3.9844-11.812 0-10.781-7.4219-16.703-7.4219-5.9062-21.094-5.9062-4.5781 0-9.4375 0.90625t-10.031 2.7188v9.5156q4.0938-2.3906 8.9688-3.6094 4.8906-1.2188 10.219-1.2188 9.2656 0 14.125 3.6562t4.8594 10.641q0 6.4531-4.5156 10.078-4.5156 3.6406-12.562 3.6406h-8.5v8.1094h8.8906q7.2656 0 11.125 2.9062t3.8594 8.375q0 5.6094-3.9844 8.6094-3.9688 3.0156-11.391 3.0156-4.0625 0-8.7031-0.89062-4.6406-0.875-10.203-2.7188v8.7812q5.625 1.5625 10.531 2.3438t9.25 0.78125q11.234 0 17.766-5.1094 6.5469-5.0938 6.5469-13.781 0-6.0625-3.4688-10.234t-9.8594-5.7812z"/>
</defs>
<g transform="translate(143.23 561.13) scale(.1 -.1)">
<use xlink:href="#c"/>
<use x="63.623047" xlink:href="#e"/>
<use x="95.410156" xlink:href="#m"/>
</g>
</g>
<g clip-path="url(#a)">
<defs>
<path id="q" d="m37.797 64.312-24.906-38.922h24.906zm-2.5938 8.5938h12.406v-47.516h10.406v-8.2031h-10.406v-17.188h-9.8125v17.188h-32.906v9.5156z"/>
</defs>
<g transform="translate(232.04 433.33) scale(.1 -.1)">
<use xlink:href="#c"/>
<use x="63.623047" xlink:href="#e"/>
<use x="95.410156" xlink:href="#q"/>
</g>
</g>
<g clip-path="url(#a)">
<defs>
<path id="x" d="m10.797 72.906h38.719v-8.3125h-29.688v-17.859q2.1406 0.73438 4.2812 1.0938 2.1562 0.35938 4.3125 0.35938 12.203 0 19.328-6.6875 7.1406-6.6875 7.1406-18.109 0-11.766-7.3281-18.297-7.3281-6.5156-20.656-6.5156-4.5938 0-9.3594 0.78125-4.75 0.78125-9.8281 2.3438v9.9219q4.3906-2.3906 9.0781-3.5625t9.9062-1.1719q8.4531 0 13.375 4.4375 4.9375 4.4375 4.9375 12.062 0 7.6094-4.9375 12.047-4.9219 4.4531-13.375 4.4531-3.9531 0-7.8906-0.875-3.9219-0.875-8.0156-2.7344z"/>
</defs>
<g transform="translate(387.44 433.33) scale(.1 -.1)">
<use xlink:href="#c"/>
<use x="63.623047" xlink:href="#e"/>
<use x="95.410156" xlink:href="#x"/>
</g>
</g>
<g clip-path="url(#a)">
<defs>
<path id="al" d="m33.016 40.375q-6.6406 0-10.531-4.5469-3.875-4.5312-3.875-12.438 0-7.8594 3.875-12.438 3.8906-4.5625 10.531-4.5625t10.516 4.5625q3.875 4.5781 3.875 12.438 0 7.9062-3.875 12.438-3.875 4.5469-10.516 4.5469zm19.578 30.922v-8.9844q-3.7188 1.75-7.5 2.6719-3.7812 0.9375-7.5 0.9375-9.7656 0-14.922-6.5938-5.1406-6.5938-5.875-19.922 2.875 4.25 7.2188 6.5156 4.3594 2.2656 9.5781 2.2656 10.984 0 17.359-6.6719 6.375-6.6562 6.375-18.125 0-11.234-6.6406-18.031-6.6406-6.7812-17.672-6.7812-12.656 0-19.344 9.6875-6.6875 9.7031-6.6875 28.109 0 17.281 8.2031 27.562t22.016 10.281q3.7188 0 7.5-0.73438t7.8906-2.1875z"/>
</defs>
<g transform="translate(732.47 171.68) scale(.1 -.1)">
<use xlink:href="#c"/>
<use x="63.623047" xlink:href="#e"/>
<use x="95.410156" xlink:href="#al"/>
</g>
</g>
<g clip-path="url(#a)">
<defs>
<path id="ac" d="m8.2031 72.906h46.875v-4.2031l-26.469-68.703h-10.297l24.906 64.594h-35.016z"/>
</defs>
<g transform="translate(1010.5 303.75) scale(.1 -.1)">
<use xlink:href="#c"/>
<use x="63.623047" xlink:href="#e"/>
<use x="95.410156" xlink:href="#ac"/>
</g>
</g>
<g clip-path="url(#a)">
<g transform="translate(917.07 433.33) scale(.1 -.1)">
<use xlink:href="#c"/>
<use x="63.623047" xlink:href="#e"/>
<use x="95.410156" xlink:href="#c"/>
<use x="159.033203" xlink:href="#n"/>
</g>
</g>
<g clip-path="url(#a)">
<g transform="translate(1005.9 561.13) scale(.1 -.1)">
<use xlink:href="#c"/>
<use x="63.623047" xlink:href="#e"/>
<use x="95.410156" xlink:href="#c"/>
<use x="159.033203" xlink:href="#m"/>
</g>
</g>
<g clip-path="url(#a)">
<g transform="translate(1099.1 433.33) scale(.1 -.1)">
<use xlink:href="#c"/>
<use x="63.623047" xlink:href="#e"/>
<use x="95.410156" xlink:href="#c"/>
<use x="159.033203" xlink:href="#q"/>
</g>
</g>
<g clip-path="url(#a)">
<g transform="translate(1072.5 561.13) scale(.1 -.1)">
<use xlink:href="#c"/>
<use x="63.623047" xlink:href="#e"/>
<use x="95.410156" xlink:href="#c"/>
<use x="159.033203" xlink:href="#x"/>
</g>
</g>
<g clip-path="url(#a)">
<g transform="translate(1116.9 561.13) scale(.1 -.1)">
<use xlink:href="#c"/>
<use x="63.623047" xlink:href="#e"/>
<use x="95.410156" xlink:href="#c"/>
<use x="159.033203" xlink:href="#al"/>
</g>
</g>
<g clip-path="url(#a)">
<g transform="translate(1161.3 561.13) scale(.1 -.1)">
<use xlink:href="#c"/>
<use x="63.623047" xlink:href="#e"/>
<use x="95.410156" xlink:href="#c"/>
<use x="159.033203" xlink:href="#ac"/>
</g>
</g>
<g clip-path="url(#a)">
<defs>
<path id="ak" d="m31.781 34.625q-7.0312 0-11.062-3.7656-4.0156-3.7656-4.0156-10.344 0-6.5938 4.0156-10.359 4.0312-3.7656 11.062-3.7656t11.078 3.7812q4.0625 3.7969 4.0625 10.344 0 6.5781-4.0312 10.344-4.0156 3.7656-11.109 3.7656zm-9.8594 4.1875q-6.3438 1.5625-9.8906 5.9062-3.5312 4.3594-3.5312 10.609 0 8.7344 6.2188 13.812 6.2344 5.0781 17.062 5.0781 10.891 0 17.094-5.0781t6.2031-13.812q0-6.25-3.5469-10.609-3.5312-4.3438-9.8281-5.9062 7.125-1.6562 11.094-6.5 3.9844-4.8281 3.9844-11.797 0-10.609-6.4688-16.281-6.4688-5.6562-18.531-5.6562-12.047 0-18.531 5.6562-6.4688 5.6719-6.4688 16.281 0 6.9688 4 11.797 4.0156 4.8438 11.141 6.5zm-3.6094 15.578q0-5.6562 3.5312-8.8281 3.5469-3.1719 9.9375-3.1719 6.3594 0 9.9375 3.1719 3.5938 3.1719 3.5938 8.8281 0 5.6719-3.5938 8.8438-3.5781 3.1719-9.9375 3.1719-6.3906 0-9.9375-3.1719-3.5312-3.1719-3.5312-8.8438z"/>
</defs>
<g transform="translate(894.87 561.13) scale(.1 -.1)">
<use xlink:href="#c"/>
<use x="63.623047" xlink:href="#e"/>
<use x="95.410156" xlink:href="#c"/>
<use x="159.033203" xlink:href="#ak"/>
</g>
</g>
<g clip-path="url(#a)">
<defs>
<path id="aj" d="m10.984 1.5156v8.9844q3.7188-1.7656 7.5156-2.6875 3.8125-0.92188 7.4844-0.92188 9.7656 0 14.906 6.5625 5.1562 6.5625 5.8906 19.953-2.8281-4.2031-7.1875-6.4531-4.3438-2.25-9.6094-2.25-10.938 0-17.312 6.6094-6.375 6.625-6.375 18.109 0 11.219 6.6406 18 6.6406 6.7969 17.672 6.7969 12.656 0 19.312-9.7031 6.6719-9.6875 6.6719-28.141 0-17.234-8.1875-27.516-8.1719-10.281-21.984-10.281-3.7188 0-7.5312 0.73438-3.7969 0.73438-7.9062 2.2031zm19.625 30.906q6.6406 0 10.516 4.5312 3.8906 4.5469 3.8906 12.469 0 7.8594-3.8906 12.422-3.875 4.5625-10.516 4.5625t-10.516-4.5625-3.875-12.422q0-7.9219 3.875-12.469 3.875-4.5312 10.516-4.5312z"/>
</defs>
<g transform="translate(939.27 561.13) scale(.1 -.1)">
<use xlink:href="#c"/>
<use x="63.623047" xlink:href="#e"/>
<use x="95.410156" xlink:href="#c"/>
<use x="159.033203" xlink:href="#aj"/>
</g>
</g>
<g clip-path="url(#a)">
<defs>
<path id="v" d="m9.8125 72.906h9.8594v-72.906h-9.8594z"/>
<path id="ao" d="m9.8125 72.906h14.703l18.594-49.609 18.703 49.609h14.703v-72.906h-9.625v64.016l-18.797-50h-9.9062l-18.797 50v-64.016h-9.5781z"/>
</defs>
<g transform="translate(1284.5 688.93) scale(.1 -.1)">
<use xlink:href="#v"/>
<use x="29.492188" xlink:href="#ao"/>
<use x="115.771484" xlink:href="#t"/>
<use x="176.074219" xlink:href="#o"/>
<use x="231.787109" xlink:href="#v"/>
<use x="261.279297" xlink:href="#w"/>
<use x="331.103516" xlink:href="#v"/>
<use x="360.595703" xlink:href="#j"/>
</g>
</g>
<g clip-path="url(#a)">
<g transform="translate(473.06 433.33) scale(.1 -.1)">
<use xlink:href="#c"/>
<use x="63.623047" xlink:href="#e"/>
<use x="95.410156" xlink:href="#n"/>
<use x="159.033203" xlink:href="#c"/>
</g>
</g>
<g clip-path="url(#a)">
<g transform="translate(539.66 561.13) scale(.1 -.1)">
<use xlink:href="#c"/>
<use x="63.623047" xlink:href="#e"/>
<use x="95.410156" xlink:href="#n"/>
<use x="159.033203" xlink:href="#n"/>
</g>
</g>
<g clip-path="url(#a)">
<g transform="translate(584.06 561.13) scale(.1 -.1)">
<use xlink:href="#c"/>
<use x="63.623047" xlink:href="#e"/>
<use x="95.410156" xlink:href="#n"/>
<use x="159.033203" xlink:href="#m"/>
</g>
</g>
<g clip-path="url(#a)">
<g transform="translate(628.47 561.13) scale(.1 -.1)">
<use xlink:href="#c"/>
<use x="63.623047" xlink:href="#e"/>
<use x="95.410156" xlink:href="#n"/>
<use x="159.033203" xlink:href="#q"/>
</g>
</g>
<g clip-path="url(#a)">
<g transform="translate(856.02 303.75) scale(.1 -.1)">
<use xlink:href="#c"/>
<use x="63.623047" xlink:href="#e"/>
<use x="95.410156" xlink:href="#n"/>
<use x="159.033203" xlink:href="#x"/>
</g>
</g>
<g clip-path="url(#a)">
<g transform="translate(1240.1 688.93) scale(.1 -.1)">
<use xlink:href="#v"/>
<use x="29.492188" xlink:href="#ao"/>
<use x="115.771484" xlink:href="#t"/>
<use x="176.074219" xlink:href="#o"/>
<use x="231.787109" xlink:href="#v"/>
<use x="261.279297" xlink:href="#w"/>
<use x="331.103516" xlink:href="#v"/>
<use x="360.595703" xlink:href="#j"/>
</g>
</g>
<g clip-path="url(#a)">
<g transform="translate(672.87 561.13) scale(.1 -.1)">
<use xlink:href="#c"/>
<use x="63.623047" xlink:href="#e"/>
<use x="95.410156" xlink:href="#n"/>
<use x="159.033203" xlink:href="#ac"/>
</g>
</g>
<g clip-path="url(#a)">
<g transform="translate(717.27 561.13) scale(.1 -.1)">
<use xlink:href="#c"/>
<use x="63.623047" xlink:href="#e"/>
<use x="95.410156" xlink:href="#n"/>
<use x="159.033203" xlink:href="#ak"/>
</g>
</g>
<g clip-path="url(#a)">
<g transform="translate(783.87 433.33) scale(.1 -.1)">
<use xlink:href="#c"/>
<use x="63.623047" xlink:href="#e"/>
<use x="95.410156" xlink:href="#n"/>
<use x="159.033203" xlink:href="#aj"/>
</g>
</g>
<g clip-path="url(#a)">
<defs>
<path id="ap" d="m31.781 66.406q-7.6094 0-11.453-7.5-3.8281-7.4844-3.8281-22.531 0-14.984 3.8281-22.484 3.8438-7.5 11.453-7.5 7.6719 0 11.5 7.5 3.8438 7.5 3.8438 22.484 0 15.047-3.8438 22.531-3.8281 7.5-11.5 7.5zm0 7.8125q12.266 0 18.734-9.7031 6.4688-9.6875 6.4688-28.141 0-18.406-6.4688-28.109-6.4688-9.6875-18.734-9.6875-12.25 0-18.719 9.6875-6.4688 9.7031-6.4688 28.109 0 18.453 6.4688 28.141 6.4688 9.7031 18.719 9.7031z"/>
</defs>
<g transform="translate(761.67 561.13) scale(.1 -.1)">
<use xlink:href="#c"/>
<use x="63.623047" xlink:href="#e"/>
<use x="95.410156" xlink:href="#m"/>
<use x="159.033203" xlink:href="#ap"/>
</g>
</g>
<g clip-path="url(#a)">
<g transform="translate(806.07 561.13) scale(.1 -.1)">
<use xlink:href="#c"/>
<use x="63.623047" xlink:href="#e"/>
<use x="95.410156" xlink:href="#m"/>
<use x="159.033203" xlink:href="#c"/>
</g>
</g>
<g clip-path="url(#a)">
<g transform="translate(450.86 561.13) scale(.1 -.1)">
<use xlink:href="#c"/>
<use x="63.623047" xlink:href="#e"/>
<use x="95.410156" xlink:href="#m"/>
<use x="159.033203" xlink:href="#n"/>
</g>
</g>
<g clip-path="url(#a)">
<g transform="translate(495.26 561.13) scale(.1 -.1)">
<use xlink:href="#c"/>
<use x="63.623047" xlink:href="#e"/>
<use x="95.410156" xlink:href="#m"/>
<use x="159.033203" xlink:href="#m"/>
</g>
</g>
<g clip-path="url(#a)">
<g transform="translate(362.06 561.13) scale(.1 -.1)">
<use xlink:href="#c"/>
<use x="63.623047" xlink:href="#e"/>
<use x="95.410156" xlink:href="#m"/>
<use x="159.033203" xlink:href="#q"/>
</g>
</g>
<g clip-path="url(#a)">
<g transform="translate(406.46 561.13) scale(.1 -.1)">
<use xlink:href="#c"/>
<use x="63.623047" xlink:href="#e"/>
<use x="95.410156" xlink:href="#m"/>
<use x="159.033203" xlink:href="#x"/>
</g>
</g>
<g clip-path="url(#a)">
<g transform="translate(184.45 561.13) scale(.1 -.1)">
<use xlink:href="#c"/>
<use x="63.623047" xlink:href="#e"/>
<use x="95.410156" xlink:href="#m"/>
<use x="159.033203" xlink:href="#al"/>
</g>
</g>
<g clip-path="url(#a)">
<g transform="translate(228.86 561.13) scale(.1 -.1)">
<use xlink:href="#c"/>
<use x="63.623047" xlink:href="#e"/>
<use x="95.410156" xlink:href="#m"/>
<use x="159.033203" xlink:href="#ac"/>
</g>
</g>
<g clip-path="url(#a)">
<g transform="translate(273.26 561.13) scale(.1 -.1)">
<use xlink:href="#c"/>
<use x="63.623047" xlink:href="#e"/>
<use x="95.410156" xlink:href="#m"/>
<use x="159.033203" xlink:href="#ak"/>
</g>
</g>
<g clip-path="url(#a)">
<g transform="translate(556.78 36.593) scale(.1 -.1)">
<use xlink:href="#c"/>
<use x="63.623047" xlink:href="#e"/>
<use x="95.410156" xlink:href="#m"/>
<use x="159.033203" xlink:href="#aj"/>
</g>
</g>
<g clip-path="url(#a)">
<g transform="translate(184.45 303.75) scale(.1 -.1)">
<use xlink:href="#c"/>
<use x="63.623047" xlink:href="#e"/>
<use x="95.410156" xlink:href="#q"/>
<use x="159.033203" xlink:href="#ap"/>
</g>
</g>
<g clip-path="url(#a)">
<g transform="translate(529.3 171.68) scale(.1 -.1)">
<use xlink:href="#c"/>
<use x="63.623047" xlink:href="#e"/>
<use x="95.410156" xlink:href="#q"/>
<use x="159.033203" xlink:href="#c"/>
</g>
</g>
<g clip-path="url(#a)">
<g transform="translate(95.653 561.13) scale(.1 -.1)">
<use xlink:href="#c"/>
<use x="63.623047" xlink:href="#e"/>
<use x="95.410156" xlink:href="#q"/>
<use x="159.033203" xlink:href="#n"/>
</g>
</g>
<g clip-path="url(#a)">
<g transform="translate(317.66 561.13) scale(.1 -.1)">
<use xlink:href="#c"/>
<use x="63.623047" xlink:href="#e"/>
<use x="95.410156" xlink:href="#q"/>
<use x="159.033203" xlink:href="#m"/>
</g>
</g>
<g clip-path="url(#a)">
<g transform="translate(850.47 561.13) scale(.1 -.1)">
<use xlink:href="#c"/>
<use x="63.623047" xlink:href="#e"/>
<use x="95.410156" xlink:href="#q"/>
<use x="159.033203" xlink:href="#q"/>
</g>
</g>
<g clip-path="url(#a)">
<g transform="translate(1205.7 561.13) scale(.1 -.1)">
<use xlink:href="#c"/>
<use x="63.623047" xlink:href="#e"/>
<use x="95.410156" xlink:href="#q"/>
<use x="159.033203" xlink:href="#x"/>
</g>
</g>
<defs>
<clipPath id="a">
<rect width="1368" height="720"/>
</clipPath>
</defs>
</svg>
