<?xml version="1.0" encoding="UTF-8"?>
<!DOCTYPE svg  PUBLIC '-//W3C//DTD SVG 1.1//EN'  'http://www.w3.org/Graphics/SVG/1.1/DTD/svg11.dtd'>
<svg width="1824pt" height="960pt" version="1.1" viewBox="0 0 1824 960" xmlns="http://www.w3.org/2000/svg" xmlns:xlink="http://www.w3.org/1999/xlink">
<defs>
<style type="text/css">*{stroke-linecap:butt;stroke-linejoin:round;}</style>
</defs>
<path d="m0 960h1824v-960h-1824z" fill="#fff"/>
<g fill="none" stroke="#000">
<path d="m385.68 43.636-299.22 750.45" clip-path="url(#a)"/>
<path d="m385.68 43.636-263.15 501.86" clip-path="url(#a)"/>
<path d="m385.68 43.636-158.18 501.86" clip-path="url(#a)"/>
<path d="m385.68 43.636-26.014 750.45" clip-path="url(#a)"/>
<path d="m385.68 43.636 11.834 750.45" clip-path="url(#a)"/>
<path d="m385.68 43.636 199.76 501.86" clip-path="url(#a)"/>
<path d="m385.68 43.636 648.5 125.83" clip-path="url(#a)"/>
<path d="m385.68 43.636-286.21 750.45" clip-path="url(#a)"/>
<path d="m385.68 43.636-224.71 750.45" clip-path="url(#a)"/>
<path d="m385.68 43.636-61.495 750.45" clip-path="url(#a)"/>
<path d="m385.68 43.636 458.9 750.45" clip-path="url(#a)"/>
<path d="m86.457 794.09-3.5482 122.27" clip-path="url(#a)"/>
<path d="m86.457 794.09 3.5482 122.27" clip-path="url(#a)"/>
<path d="m122.53 545.49-11.236 248.6" clip-path="url(#a)"/>
<path d="m122.53 545.49 11.236 124.62" clip-path="url(#a)"/>
<path d="m227.5 545.49-45.239 248.6" clip-path="url(#a)"/>
<path d="m227.5 545.49-21.585 248.6" clip-path="url(#a)"/>
<path d="m227.5 545.49 34.003 124.62" clip-path="url(#a)"/>
<path d="m227.5 545.49 32.821 248.6" clip-path="url(#a)"/>
<path d="m359.67 794.09v122.27" clip-path="url(#a)"/>
<path d="m397.51 794.09v122.27" clip-path="url(#a)"/>
<path d="m585.44 545.49-104.34 124.62" clip-path="url(#a)"/>
<path d="m585.44 545.49-12.879 248.6" clip-path="url(#a)"/>
<path d="m585.44 545.49 117.22 124.62" clip-path="url(#a)"/>
<path d="m1034.2 169.46-128.09 624.63" clip-path="url(#a)"/>
<path d="m1034.2 169.46-64.223 624.63" clip-path="url(#a)"/>
<path d="m1034.2 169.46 2.0095 624.63" clip-path="url(#a)"/>
<path d="m1034.2 169.46 190.3 125.62" clip-path="url(#a)"/>
<path d="m906.09 794.09v122.27" clip-path="url(#a)"/>
<path d="m969.95 794.09v122.27" clip-path="url(#a)"/>
<path d="m1036.2 794.09v122.27" clip-path="url(#a)"/>
<path d="m1224.5 295.08-119.7 499.01" clip-path="url(#a)"/>
<path d="m1224.5 295.08-48.733 499.01" clip-path="url(#a)"/>
<path d="m1224.5 295.08 24.596 499.01" clip-path="url(#a)"/>
<path d="m1224.5 295.08 143.83 125.36" clip-path="url(#a)"/>
<path d="m1104.8 794.09v122.27" clip-path="url(#a)"/>
<path d="m1175.7 794.09v122.27" clip-path="url(#a)"/>
<path d="m1249.1 794.09v122.27" clip-path="url(#a)"/>
<path d="m1368.3 420.45-119.24 373.65" clip-path="url(#a)" stroke-dasharray="3.7,1.6"/>
<path d="m1368.3 420.45-43.542 373.65" clip-path="url(#a)"/>
<path d="m1368.3 420.45 162.78 125.05" clip-path="url(#a)"/>
<path d="m1324.8 794.09v122.27" clip-path="url(#a)"/>
<path d="m1531.1 545.49 210 124.62" clip-path="url(#a)"/>
<path d="m1531.1 545.49-128.26 248.6" clip-path="url(#a)"/>
<path d="m1531.1 545.49 93.304 124.62" clip-path="url(#a)"/>
<path d="m1531.1 545.49 34.956 248.6" clip-path="url(#a)"/>
<path d="m1402.8 794.09v122.27" clip-path="url(#a)"/>
<path d="m1624.4 670.12-141.14 123.97" clip-path="url(#a)"/>
<path d="m1624.4 670.12 26.808 123.97" clip-path="url(#a)"/>
<path d="m1624.4 670.12 114.33 123.97" clip-path="url(#a)"/>
<path d="m1566 794.09v122.27" clip-path="url(#a)"/>
<path d="m1483.3 794.09v122.27" clip-path="url(#a)"/>
<path d="m1651.2 794.09v122.27" clip-path="url(#a)"/>
<path d="m481.09 670.12-43.367 123.97" clip-path="url(#a)"/>
<path d="m481.09 670.12-0.78848 123.97" clip-path="url(#a)"/>
<path d="m481.09 670.12 44.155 123.97" clip-path="url(#a)"/>
<path d="m572.56 794.09v122.27" clip-path="url(#a)"/>
<path d="m702.66 670.12-80.425 123.97" clip-path="url(#a)"/>
<path d="m702.66 670.12-28.385 123.97" clip-path="url(#a)"/>
<path d="m702.66 670.12 26.02 123.97" clip-path="url(#a)"/>
<path d="m702.66 670.12 82.791 123.97" clip-path="url(#a)"/>
<path d="m622.23 794.09v122.27" clip-path="url(#a)"/>
<path d="m674.27 794.09v122.27" clip-path="url(#a)"/>
<path d="m728.68 794.09v122.27" clip-path="url(#a)"/>
<path d="m785.45 794.09v122.27" clip-path="url(#a)"/>
<path d="m437.73 794.09v122.27" clip-path="url(#a)"/>
<path d="m480.31 794.09v122.27" clip-path="url(#a)"/>
<path d="m525.25 794.09v122.27" clip-path="url(#a)"/>
<path d="m182.26 794.09v122.27" clip-path="url(#a)"/>
<path d="m205.91 794.09v122.27" clip-path="url(#a)"/>
<path d="m261.5 670.12-29.568 123.97" clip-path="url(#a)"/>
<path d="m261.5 670.12 29.568 123.97" clip-path="url(#a)"/>
<path d="m260.32 794.09v122.27" clip-path="url(#a)"/>
<path d="m231.93 794.09v122.27" clip-path="url(#a)"/>
<path d="m291.07 794.09v122.27" clip-path="url(#a)"/>
<path d="m111.29 794.09v122.27" clip-path="url(#a)"/>
<path d="m133.77 670.12-8.2791 123.97" clip-path="url(#a)"/>
<path d="m133.77 670.12 8.2791 123.97" clip-path="url(#a)"/>
<path d="m125.49 794.09v122.27" clip-path="url(#a)"/>
<path d="m142.05 794.09v122.27" clip-path="url(#a)"/>
<path d="m491.48 420.45-93.961 373.65" clip-path="url(#a)"/>
<path d="m491.48 420.45 93.961 125.05" clip-path="url(#a)"/>
<path d="m472.55 420.45-112.88 373.65" clip-path="url(#a)"/>
<path d="m472.55 420.45 112.88 125.05" clip-path="url(#a)"/>
<path d="m104.49 420.45-18.037 373.65" clip-path="url(#a)"/>
<path d="m104.49 420.45 18.037 125.05" clip-path="url(#a)"/>
<path d="m99.467 794.09v122.27" clip-path="url(#a)"/>
<path d="m160.97 794.09v122.27" clip-path="url(#a)"/>
<path d="m324.19 794.09v122.27" clip-path="url(#a)"/>
<path d="m844.58 794.09v122.27" clip-path="url(#a)"/>
<path d="m1738.7 794.09v122.27" clip-path="url(#a)"/>
</g>
<path d="m241.07 423.26 1.6509-4.1405q0.88888-2.2293-1.3404-3.1182l-7.1919-2.8676q-2.2293-0.88888-3.1182 1.3404l-1.6509 4.1405q-0.88888 2.2293 1.3404 3.1182l7.1919 2.8676q2.2293 0.88888 3.1182-1.3404z" clip-path="url(#a)" fill="#fff" stroke="#fff"/>
<g clip-path="url(#a)">
<defs>
<path id="t" d="m9.8125 72.906h9.8594v-64.609h35.5v-8.2969h-45.359z"/>
</defs>
<g transform="translate(237.29 421.75) rotate(-68.262) scale(.08 -.08)">
<use xlink:href="#t"/>
</g>
</g>
<path d="m258.26 300.14 2.7939-5.3282q1.1145-2.1255-1.011-3.24l-6.857-3.5955q-2.1255-1.1145-3.24 1.011l-2.7939 5.3282q-1.1145 2.1255 1.011 3.24l6.857 3.5955q2.1255 1.1145 3.24-1.011z" clip-path="url(#a)" fill="#fff" stroke="#fff"/>
<g clip-path="url(#a)">
<defs>
<path id="ai" d="m9.8125 72.906h9.8594v-29.891h35.844v29.891h9.8594v-72.906h-9.8594v34.719h-35.844v-34.719h-9.8594z"/>
</defs>
<g transform="translate(254.66 298.25) rotate(-62.33) scale(.08 -.08)">
<use xlink:href="#ai"/>
</g>
</g>
<path d="m311.67 299.32 1.8086-5.738q0.72148-2.289-1.5675-3.0105l-7.3844-2.3275q-2.289-0.72148-3.0105 1.5675l-1.8086 5.738q-0.72148 2.289 1.5675 3.0105l7.3844 2.3275q2.289 0.72148 3.0105-1.5675z" clip-path="url(#a)" fill="#fff" stroke="#fff"/>
<g clip-path="url(#a)">
<g transform="translate(307.79 298.1) rotate(-72.505) scale(.08 -.08)">
<use xlink:href="#ai"/>
</g>
</g>
<path d="m378.86 421.31 0.15442-4.4548q0.083143-2.3986-2.3154-2.4817l-7.7379-0.26822q-2.3986-0.083143-2.4817 2.3154l-0.15442 4.4548q-0.083142 2.3986 2.3154 2.4817l7.7379 0.26822q2.3986 0.083143 2.4817-2.3154z" clip-path="url(#a)" fill="#fff" stroke="#fff"/>
<g clip-path="url(#a)">
<g transform="translate(374.8 421.17) rotate(-88.015) scale(.08 -.08)">
<use xlink:href="#t"/>
</g>
</g>
<path d="m385.29 416.73 0.070281 4.4569q0.03784 2.3997 2.4375 2.3619l7.7415-0.12207q2.3997-0.03784 2.3619-2.4375l-0.070281-4.4569q-0.03784-2.3997-2.4375-2.3619l-7.7415 0.12207q-2.3997 0.03784-2.3619 2.4375z" clip-path="url(#a)" fill="#fff" stroke="#fff"/>
<g clip-path="url(#a)">
<g transform="translate(389.35 416.67) rotate(89.097) scale(.08 -.08)">
<use xlink:href="#t"/>
</g>
</g>
<path d="m478.62 294.09 2.2249 5.5897q0.88756 2.2299 3.1174 1.3423l7.1936-2.8633q2.2299-0.88756 1.3423-3.1174l-2.2249-5.5897q-0.88756-2.2299-3.1174-1.3423l-7.1936 2.8633q-2.2299 0.88756-1.3423 3.1174z" clip-path="url(#a)" fill="#fff" stroke="#fff"/>
<g clip-path="url(#a)">
<g transform="translate(482.39 292.59) rotate(68.296) scale(.08 -.08)">
<use xlink:href="#ai"/>
</g>
</g>
<path d="m705.78 112.13 5.9061 1.146q2.3561 0.45714 2.8132-1.8989l1.4748-7.6007q0.45715-2.3561-1.8989-2.8132l-5.9061-1.146q-2.3561-0.45714-2.8132 1.8989l-1.4748 7.6007q-0.45715 2.3561 1.8989 2.8132z" clip-path="url(#a)" fill="#fff" stroke="#fff"/>
<g clip-path="url(#a)">
<g transform="translate(706.56 108.14) rotate(10.981) scale(.08 -.08)">
<use xlink:href="#ai"/>
</g>
</g>
<path d="m247.39 423.83 2.0864-5.4706q0.85524-2.2424-1.3872-3.0977l-7.2342-2.759q-2.2424-0.85524-3.0977 1.3872l-2.0864 5.4706q-0.85524 2.2424 1.3872 3.0977l7.2342 2.759q2.2424 0.85524 3.0977-1.3872z" clip-path="url(#a)" fill="#fff" stroke="#fff"/>
<g clip-path="url(#a)">
<defs>
<path id="af" d="m8.6875 72.906h9.9219v-44.297q0-11.719 4.2344-16.875 4.25-5.1406 13.781-5.1406 9.4688 0 13.719 5.1406 4.25 5.1562 4.25 16.875v44.297h9.9062v-45.516q0-14.25-7.0625-21.531-7.0469-7.2812-20.812-7.2812-13.828 0-20.891 7.2812-7.0469 7.2812-7.0469 21.531z"/>
</defs>
<g transform="translate(243.59 422.39) rotate(-69.124) scale(.08 -.08)">
<use xlink:href="#af"/>
</g>
</g>
<path d="m278.49 423.47 1.6795-5.6089q0.68844-2.2991-1.6107-2.9876l-7.4171-2.2209q-2.2991-0.68844-2.9876 1.6107l-1.6795 5.6089q-0.68844 2.2991 1.6107 2.9876l7.4171 2.2209q2.2991 0.68844 2.9876-1.6107z" clip-path="url(#a)" fill="#fff" stroke="#fff"/>
<g clip-path="url(#a)">
<g transform="translate(274.6 422.3) rotate(-73.331) scale(.08 -.08)">
<use xlink:href="#af"/>
</g>
</g>
<path d="m360.94 422.29 0.47818-5.8354q0.19601-2.392-2.196-2.588l-7.7166-0.63233q-2.392-0.19601-2.588 2.196l-0.47818 5.8354q-0.19601 2.392 2.196 2.588l7.7166 0.63233q2.392 0.19601 2.588-2.196z" clip-path="url(#a)" fill="#fff" stroke="#fff"/>
<g clip-path="url(#a)">
<g transform="translate(356.89 421.96) rotate(-85.315) scale(.08 -.08)">
<use xlink:href="#af"/>
</g>
</g>
<path d="m608.26 419.64 3.0545 4.9951q1.2521 2.0475 3.2996 0.79546l6.6054-4.0392q2.0475-1.2521 0.79546-3.2996l-3.0545-4.9951q-1.2521-2.0475-3.2996-0.79546l-6.6054 4.0392q-2.0475 1.2521-0.79546 3.2996z" clip-path="url(#a)" fill="#fff" stroke="#fff"/>
<g clip-path="url(#a)">
<g transform="translate(611.72 417.52) rotate(58.554) scale(.08 -.08)">
<use xlink:href="#af"/>
</g>
</g>
<path d="m90.461 872.31 0.98063-33.793q0.069615-2.399-2.3294-2.4686l-7.7392-0.22458q-2.399-0.069615-2.4686 2.3294l-0.98063 33.793q-0.069616 2.399 2.3294 2.4686l7.7392 0.22458q2.399 0.069615 2.4686-2.3294z" clip-path="url(#a)" fill="#fff" stroke="#fff"/>
<g clip-path="url(#a)">
<defs>
<path id="l" d="m-0.29688 72.906h61.672v-8.3125h-25.875v-64.594h-9.9062v64.594h-25.891z"/>
<path id="d" d="m56.203 29.594v-4.3906h-41.312q0.59375-9.2812 5.5938-14.141t13.938-4.8594q5.1719 0 10.031 1.2656t9.6562 3.8125v-8.5q-4.8438-2.0469-9.9219-3.125t-10.297-1.0781q-13.094 0-20.734 7.6094-7.6406 7.625-7.6406 20.625 0 13.422 7.25 21.297 7.25 7.8906 19.562 7.8906 11.031 0 17.453-7.1094 6.4219-7.0938 6.4219-19.297zm-8.9844 2.6406q-0.09375 7.3594-4.125 11.75-4.0312 4.4062-10.672 4.4062-7.5156 0-12.031-4.25t-5.2031-11.969z"/>
<path id="i" d="m41.109 46.297q-1.5156 0.875-3.2969 1.2812-1.7812 0.42188-3.9219 0.42188-7.625 0-11.703-4.9531t-4.0781-14.234v-28.812h-9.0312v54.688h9.0312v-8.5q2.8438 4.9844 7.375 7.3906 4.5469 2.4219 11.047 2.4219 0.92188 0 2.0469-0.125 1.125-0.10938 2.4844-0.35938z"/>
<path id="j" d="m52 44.188q3.375 6.0625 8.0625 8.9375t11.031 2.875q8.5469 0 13.188-5.9844 4.6406-5.9688 4.6406-17v-33.016h-9.0312v32.719q0 7.8594-2.7969 11.656-2.7812 3.8125-8.4844 3.8125-6.9844 0-11.047-4.6406-4.0469-4.625-4.0469-12.641v-30.906h-9.0312v32.719q0 7.9062-2.7812 11.688t-8.5938 3.7812q-6.8906 0-10.953-4.6562-4.0469-4.6562-4.0469-12.625v-30.906h-9.0312v54.688h9.0312v-8.5q3.0781 5.0312 7.375 7.4219t10.203 2.3906q5.9688 0 10.141-3.0312 4.1719-3.0156 6.1719-8.7812z"/>
<path id="h" d="m9.4219 54.688h8.9844v-54.688h-8.9844zm0 21.297h8.9844v-11.391h-8.9844z"/>
<path id="f" d="m54.891 33.016v-33.016h-8.9844v32.719q0 7.7656-3.0312 11.609-3.0312 3.8594-9.0781 3.8594-7.2812 0-11.484-4.6406-4.2031-4.625-4.2031-12.641v-30.906h-9.0312v54.688h9.0312v-8.5q3.2344 4.9375 7.5938 7.375 4.375 2.4375 10.094 2.4375 9.4219 0 14.25-5.8281 4.8438-5.8281 4.8438-17.156z"/>
<path id="g" d="m34.281 27.484q-10.891 0-15.094-2.4844t-4.2031-8.5q0-4.7812 3.1562-7.5938 3.1562-2.7969 8.5625-2.7969 7.4844 0 12 5.2969t4.5156 14.078v2zm17.922 3.7188v-31.203h-8.9844v8.2969q-3.0781-4.9688-7.6719-7.3438t-11.234-2.375q-8.3906 0-13.359 4.7188-4.9531 4.7188-4.9531 12.625 0 9.2188 6.1719 13.906 6.1875 4.6875 18.438 4.6875h12.609v0.89062q0 6.2031-4.0781 9.5938t-11.453 3.3906q-4.6875 0-9.1406-1.125-4.4375-1.125-8.5312-3.375v8.3125q4.9219 1.9062 9.5625 2.8438 4.6406 0.95312 9.0312 0.95312 11.875 0 17.734-6.1562 5.8594-6.1406 5.8594-18.641z"/>
<path id="k" d="m9.4219 75.984h8.9844v-75.984h-8.9844z"/>
</defs>
<g transform="translate(86.399 872.19) rotate(-88.338) scale(.08 -.08)">
<use xlink:href="#l"/>
<use x="44.083984" xlink:href="#d"/>
<use x="105.607422" xlink:href="#i"/>
<use x="144.970703" xlink:href="#j"/>
<use x="242.382812" xlink:href="#h"/>
<use x="270.166016" xlink:href="#f"/>
<use x="333.544922" xlink:href="#g"/>
<use x="394.824219" xlink:href="#k"/>
</g>
</g>
<path d="m81.472 838.51 0.98063 33.793q0.069615 2.399 2.4686 2.3294l7.7392-0.22458q2.399-0.069615 2.3294-2.4686l-0.98063-33.793q-0.069615-2.399-2.4686-2.3294l-7.7392 0.22458q-2.399 0.069615-2.3294 2.4686z" clip-path="url(#a)" fill="#fff" stroke="#fff"/>
<g clip-path="url(#a)">
<g transform="translate(85.534 838.39) rotate(88.338) scale(.08 -.08)">
<use xlink:href="#l"/>
<use x="44.083984" xlink:href="#d"/>
<use x="105.607422" xlink:href="#i"/>
<use x="144.970703" xlink:href="#j"/>
<use x="242.382812" xlink:href="#h"/>
<use x="270.166016" xlink:href="#f"/>
<use x="333.544922" xlink:href="#g"/>
<use x="394.824219" xlink:href="#k"/>
</g>
</g>
<path d="m123.05 672.81 0.24709-5.4669q0.10836-2.3976-2.2892-2.5059l-7.7346-0.34958q-2.3976-0.10836-2.5059 2.2892l-0.24709 5.4669q-0.10836 2.3976 2.2892 2.5059l7.7346 0.34958q2.3976 0.10836 2.5059-2.2892z" clip-path="url(#a)" fill="#fff" stroke="#fff"/>
<g clip-path="url(#a)">
<defs>
<path id="r" d="m34.188 63.188-13.391-36.281h26.812zm-5.5781 9.7188h11.188l27.781-72.906h-10.25l-6.6406 18.703h-32.859l-6.6406-18.703h-10.406z"/>
</defs>
<g transform="translate(118.99 672.63) rotate(-87.412) scale(.08 -.08)">
<use xlink:href="#r"/>
</g>
</g>
<path d="m121.69 605.97 0.43314 4.8043q0.21551 2.3903 2.6058 2.1748l7.7112-0.69523q2.3903-0.21551 2.1748-2.6058l-0.43314-4.8043q-0.21551-2.3903-2.6058-2.1748l-7.7112 0.69523q-2.3903 0.21551-2.1748 2.6058z" clip-path="url(#a)" fill="#fff" stroke="#fff"/>
<g clip-path="url(#a)">
<defs>
<path id="ab" d="m19.672 64.797v-27.391h12.406q6.8906 0 10.641 3.5625 3.7656 3.5625 3.7656 10.156 0 6.5469-3.7656 10.109-3.75 3.5625-10.641 3.5625zm-9.8594 8.1094h22.266q12.266 0 18.531-5.5469 6.2812-5.5469 6.2812-16.234 0-10.797-6.2812-16.312-6.2656-5.5156-18.531-5.5156h-12.406v-29.297h-9.8594z"/>
</defs>
<g transform="translate(125.73 605.6) rotate(84.848) scale(.08 -.08)">
<use xlink:href="#ab"/>
</g>
</g>
<path d="m210.56 673.61 0.97978-5.3841q0.42969-2.3612-1.9315-2.7909l-7.6174-1.3862q-2.3612-0.42969-2.7909 1.9315l-0.97978 5.3841q-0.42969 2.3612 1.9315 2.7909l7.6174 1.3862q2.3612 0.42969 2.7909-1.9315z" clip-path="url(#a)" fill="#fff" stroke="#fff"/>
<g clip-path="url(#a)">
<g transform="translate(206.56 672.88) rotate(-79.686) scale(.08 -.08)">
<use xlink:href="#r"/>
</g>
</g>
<path d="m222.75 672.63 0.39801-4.584q0.2076-2.391-2.1834-2.5986l-7.7135-0.66973q-2.391-0.2076-2.5986 2.1834l-0.39801 4.584q-0.2076 2.391 2.1834 2.5986l7.7135 0.66973q2.391 0.2076 2.5986-2.1834z" clip-path="url(#a)" fill="#fff" stroke="#fff"/>
<g clip-path="url(#a)">
<defs>
<path id="aq" d="m9.8125 72.906h41.891v-8.3125h-32.031v-21.484h28.906v-8.2969h-28.906v-34.812h-9.8594z"/>
</defs>
<g transform="translate(218.71 672.28) rotate(-85.038) scale(.08 -.08)">
<use xlink:href="#aq"/>
</g>
</g>
<path d="m237.78 607.01 1.3369 4.8996q0.63174 2.3154 2.9471 1.6836l7.4695-2.038q2.3154-0.63174 1.6836-2.9471l-1.3369-4.8996q-0.63174-2.3154-2.9471-1.6836l-7.4695 2.038q-2.3154 0.63174-1.6836 2.9471z" clip-path="url(#a)" fill="#fff" stroke="#fff"/>
<g clip-path="url(#a)">
<defs>
<path id="au" d="m53.516 70.516v-9.625q-5.6094 2.6875-10.594 4-4.9844 1.3281-9.625 1.3281-8.0469 0-12.422-3.125t-4.375-8.8906q0-4.8438 2.9062-7.3125 2.9062-2.4531 11.016-3.9688l5.9531-1.2188q11.031-2.1094 16.281-7.4062t5.25-14.172q0-10.609-7.1094-16.078-7.0938-5.4688-20.812-5.4688-5.1719 0-11.016 1.1719-5.8281 1.1719-12.078 3.4688v10.156q6-3.3594 11.766-5.0781 5.7656-1.7031 11.328-1.7031 8.4375 0 13.031 3.3125 4.5938 3.3281 4.5938 9.4844 0 5.3594-3.2969 8.3906t-10.812 4.5469l-6.0156 1.1719q-11.031 2.1875-15.969 6.875-4.9219 4.6875-4.9219 13.047 0 9.6719 6.8125 15.234t18.766 5.5625q5.1406 0 10.453-0.9375 5.3281-0.92188 10.891-2.7656z"/>
</defs>
<g transform="translate(241.7 605.94) rotate(74.738) scale(.08 -.08)">
<use xlink:href="#au"/>
</g>
</g>
<path d="m237.29 667.56 0.80627 6.107q0.31413 2.3794 2.6935 2.0652l7.6759-1.0134q2.3794-0.31413 2.0652-2.6935l-0.80627-6.107q-0.31413-2.3794-2.6935-2.0652l-7.6759 1.0134q-2.3794 0.31413-2.0652 2.6935z" clip-path="url(#a)" fill="#fff" stroke="#fff"/>
<g clip-path="url(#a)">
<defs>
<path id="an" d="m19.672 64.797v-56.688h11.922q15.094 0 22.094 6.8281 7 6.8438 7 21.594 0 14.641-7 21.453t-22.094 6.8125zm-9.8594 8.1094h20.266q21.188 0 31.094-8.8125 9.9219-8.8125 9.9219-27.562 0-18.859-9.9688-27.703-9.9531-8.8281-31.047-8.8281h-20.266z"/>
</defs>
<g transform="translate(241.32 667.03) rotate(82.479) scale(.08 -.08)">
<use xlink:href="#an"/>
</g>
</g>
<path d="m353.4 838.32v33.808q0 2.4 2.4 2.4h7.7425q2.4 0 2.4-2.4v-33.808q0-2.4-2.4-2.4h-7.7425q-2.4 0-2.4 2.4z" clip-path="url(#a)" fill="#fff" stroke="#fff"/>
<g clip-path="url(#a)">
<g transform="translate(357.46 838.32) rotate(90) scale(.08 -.08)">
<use xlink:href="#l"/>
<use x="44.083984" xlink:href="#d"/>
<use x="105.607422" xlink:href="#i"/>
<use x="144.970703" xlink:href="#j"/>
<use x="242.382812" xlink:href="#h"/>
<use x="270.166016" xlink:href="#f"/>
<use x="333.544922" xlink:href="#g"/>
<use x="394.824219" xlink:href="#k"/>
</g>
</g>
<path d="m391.24 838.32v33.808q0 2.4 2.4 2.4h7.7425q2.4 0 2.4-2.4v-33.808q0-2.4-2.4-2.4h-7.7425q-2.4 0-2.4 2.4z" clip-path="url(#a)" fill="#fff" stroke="#fff"/>
<g clip-path="url(#a)">
<g transform="translate(395.31 838.32) rotate(90) scale(.08 -.08)">
<use xlink:href="#l"/>
<use x="44.083984" xlink:href="#d"/>
<use x="105.607422" xlink:href="#i"/>
<use x="144.970703" xlink:href="#j"/>
<use x="242.382812" xlink:href="#h"/>
<use x="270.166016" xlink:href="#f"/>
<use x="333.544922" xlink:href="#g"/>
<use x="394.824219" xlink:href="#k"/>
</g>
</g>
<path d="m536.32 613.93 3.5131-4.196q1.5407-1.8402-0.29947-3.3809l-5.9365-4.9704q-1.8402-1.5407-3.3809 0.29947l-3.5131 4.196q-1.5407 1.8402 0.29947 3.3809l5.9365 4.9704q1.8402 1.5407 3.3809-0.29947z" clip-path="url(#a)" fill="#fff" stroke="#fff"/>
<g clip-path="url(#a)">
<g transform="translate(533.2 611.32) rotate(-50.062) scale(.08 -.08)">
<use xlink:href="#r"/>
</g>
</g>
<path d="m585.14 672.53 0.24956-4.8173q0.12416-2.3968-2.2726-2.521l-7.7321-0.40056q-2.3968-0.12417-2.521 2.2726l-0.24956 4.8173q-0.12416 2.3968 2.2726 2.521l7.7321 0.40056q2.3968 0.12416 2.521-2.2726z" clip-path="url(#a)" fill="#fff" stroke="#fff"/>
<g clip-path="url(#a)">
<g transform="translate(581.08 672.32) rotate(-87.034) scale(.08 -.08)">
<use xlink:href="#ab"/>
</g>
</g>
<path d="m637.6 610.11 3.7494 3.9862q1.6443 1.7482 3.3925 0.10384l5.6397-5.3047q1.7482-1.6443 0.10384-3.3925l-3.7494-3.9862q-1.6443-1.7482-3.3925-0.10384l-5.6397 5.3047q-1.7482 1.6443-0.10384 3.3925z" clip-path="url(#a)" fill="#fff" stroke="#fff"/>
<g clip-path="url(#a)">
<g transform="translate(640.56 607.32) rotate(46.753) scale(.08 -.08)">
<use xlink:href="#r"/>
</g>
</g>
<path d="m975.73 485.72 1.0994-5.3609q0.48213-2.3511-1.8689-2.8332l-7.5847-1.5554q-2.3511-0.48213-2.8332 1.8689l-1.0994 5.3609q-0.48213 2.3511 1.8689 2.8332l7.5847 1.5554q2.3511 0.48213 2.8332-1.8689z" clip-path="url(#a)" fill="#fff" stroke="#fff"/>
<g clip-path="url(#a)">
<g transform="translate(971.74 484.9) rotate(-78.411) scale(.08 -.08)">
<use xlink:href="#r"/>
</g>
</g>
<path d="m1008 485.48 0.63004-6.1277q0.24547-2.3874-2.1419-2.6329l-7.7019-0.7919q-2.3874-0.24547-2.6329 2.1419l-0.63004 6.1277q-0.24547 2.3874 2.1419 2.6329l7.7019 0.7919q2.3874 0.24547 2.6329-2.1419z" clip-path="url(#a)" fill="#fff" stroke="#fff"/>
<g clip-path="url(#a)">
<g transform="translate(1003.9 485.07) rotate(-84.13) scale(.08 -.08)">
<use xlink:href="#an"/>
</g>
</g>
<path d="m1028.9 479.39 0.015519 4.8237q0.007721 2.4 2.4077 2.3923l7.7425-0.024909q2.4-0.007721 2.3923-2.4077l-0.015519-4.8237q-0.007721-2.4-2.4077-2.3923l-7.7425 0.024909q-2.4 0.007721-2.3923 2.4077z" clip-path="url(#a)" fill="#fff" stroke="#fff"/>
<g clip-path="url(#a)">
<g transform="translate(1033 479.37) rotate(89.816) scale(.08 -.08)">
<use xlink:href="#ab"/>
</g>
</g>
<path d="m1123.6 236 4.5672 3.0148q2.003 1.3221 3.3251-0.68084l4.2653-6.4617q1.3221-2.003-0.68084-3.3251l-4.5672-3.0148q-2.003-1.3221-3.3251 0.68084l-4.2653 6.4617q-1.3221 2.003 0.68084 3.3251z" clip-path="url(#a)" fill="#fff" stroke="#fff"/>
<g clip-path="url(#a)">
<g transform="translate(1125.8 232.61) rotate(33.428) scale(.08 -.08)">
<use xlink:href="#r"/>
</g>
</g>
<path d="m899.82 838.32v33.808q0 2.4 2.4 2.4h7.7425q2.4 0 2.4-2.4v-33.808q0-2.4-2.4-2.4h-7.7425q-2.4 0-2.4 2.4z" clip-path="url(#a)" fill="#fff" stroke="#fff"/>
<g clip-path="url(#a)">
<g transform="translate(903.88 838.32) rotate(90) scale(.08 -.08)">
<use xlink:href="#l"/>
<use x="44.083984" xlink:href="#d"/>
<use x="105.607422" xlink:href="#i"/>
<use x="144.970703" xlink:href="#j"/>
<use x="242.382812" xlink:href="#h"/>
<use x="270.166016" xlink:href="#f"/>
<use x="333.544922" xlink:href="#g"/>
<use x="394.824219" xlink:href="#k"/>
</g>
</g>
<path d="m963.68 838.32v33.808q0 2.4 2.4 2.4h7.7425q2.4 0 2.4-2.4v-33.808q0-2.4-2.4-2.4h-7.7425q-2.4 0-2.4 2.4z" clip-path="url(#a)" fill="#fff" stroke="#fff"/>
<g clip-path="url(#a)">
<g transform="translate(967.75 838.32) rotate(90) scale(.08 -.08)">
<use xlink:href="#l"/>
<use x="44.083984" xlink:href="#d"/>
<use x="105.607422" xlink:href="#i"/>
<use x="144.970703" xlink:href="#j"/>
<use x="242.382812" xlink:href="#h"/>
<use x="270.166016" xlink:href="#f"/>
<use x="333.544922" xlink:href="#g"/>
<use x="394.824219" xlink:href="#k"/>
</g>
</g>
<path d="m1029.9 838.32v33.808q0 2.4 2.4 2.4h7.7425q2.4 0 2.4-2.4v-33.808q0-2.4-2.4-2.4h-7.7425q-2.4 0-2.4 2.4z" clip-path="url(#a)" fill="#fff" stroke="#fff"/>
<g clip-path="url(#a)">
<g transform="translate(1034 838.32) rotate(90) scale(.08 -.08)">
<use xlink:href="#l"/>
<use x="44.083984" xlink:href="#d"/>
<use x="105.607422" xlink:href="#i"/>
<use x="144.970703" xlink:href="#j"/>
<use x="242.382812" xlink:href="#h"/>
<use x="270.166016" xlink:href="#f"/>
<use x="333.544922" xlink:href="#g"/>
<use x="394.824219" xlink:href="#k"/>
</g>
</g>
<path d="m1170.1 548.51 1.1791-4.9156q0.5598-2.3338-1.774-2.8936l-7.5289-1.8059q-2.3338-0.5598-2.8936 1.774l-1.1791 4.9156q-0.5598 2.3338 1.774 2.8936l7.5289 1.8059q2.3338 0.5598 2.8936-1.774z" clip-path="url(#a)" fill="#fff" stroke="#fff"/>
<g clip-path="url(#a)">
<defs>
<path id="w" d="m9.8125 72.906h46.094v-8.3125h-36.234v-21.578h34.719v-8.2969h-34.719v-26.422h37.109v-8.2969h-46.969z"/>
</defs>
<g transform="translate(1166.2 547.56) rotate(-76.511) scale(.08 -.08)">
<use xlink:href="#w"/>
</g>
</g>
<path d="m1206.1 547.71 0.49133-5.0311q0.23327-2.3886-2.1554-2.6219l-7.7058-0.75254q-2.3886-0.23327-2.6219 2.1554l-0.49133 5.0311q-0.23327 2.3886 2.1554 2.6219l7.7058 0.75254q2.3886 0.23327 2.6219-2.1554z" clip-path="url(#a)" fill="#fff" stroke="#fff"/>
<g clip-path="url(#a)">
<g transform="translate(1202.1 547.32) rotate(-84.422) scale(.08 -.08)">
<use xlink:href="#w"/>
</g>
</g>
<path d="m1230.4 542.1 0.27501 5.5795q0.11815 2.3971 2.5152 2.2789l7.7331-0.38117q2.3971-0.11815 2.2789-2.5152l-0.27501-5.5795q-0.11815-2.3971-2.5152-2.2789l-7.7331 0.38117q-2.3971 0.11815-2.2789 2.5152z" clip-path="url(#a)" fill="#fff" stroke="#fff"/>
<g clip-path="url(#a)">
<defs>
<path id="x" d="m64.406 67.281v-10.391q-4.9844 4.6406-10.625 6.9219-5.6406 2.2969-11.984 2.2969-12.5 0-19.141-7.6406t-6.6406-22.094q0-14.406 6.6406-22.047t19.141-7.6406q6.3438 0 11.984 2.2969t10.625 6.9375v-10.312q-5.1719-3.5156-10.969-5.2812-5.7812-1.75-12.219-1.75-16.562 0-26.094 10.125-9.5156 10.141-9.5156 27.672 0 17.578 9.5156 27.703 9.5312 10.141 26.094 10.141 6.5312 0 12.312-1.7344 5.7969-1.7344 10.875-5.2031z"/>
</defs>
<g transform="translate(1234.4 541.9) rotate(87.178) scale(.08 -.08)">
<use xlink:href="#x"/>
</g>
</g>
<path d="m1290.4 360.83 3.8107 3.3214q1.8092 1.5769 3.3862-0.23231l5.0872-5.8367q1.5769-1.8092-0.23231-3.3862l-3.8107-3.3214q-1.8092-1.5769-3.3862 0.23231l-5.0872 5.8367q-1.5769 1.8092 0.23231 3.3862z" clip-path="url(#a)" fill="#fff" stroke="#fff"/>
<g clip-path="url(#a)">
<g transform="translate(1293 357.77) rotate(41.075) scale(.08 -.08)">
<use xlink:href="#w"/>
</g>
</g>
<path d="m1098.5 838.32v33.808q0 2.4 2.4 2.4h7.7425q2.4 0 2.4-2.4v-33.808q0-2.4-2.4-2.4h-7.7425q-2.4 0-2.4 2.4z" clip-path="url(#a)" fill="#fff" stroke="#fff"/>
<g clip-path="url(#a)">
<g transform="translate(1102.6 838.32) rotate(90) scale(.08 -.08)">
<use xlink:href="#l"/>
<use x="44.083984" xlink:href="#d"/>
<use x="105.607422" xlink:href="#i"/>
<use x="144.970703" xlink:href="#j"/>
<use x="242.382812" xlink:href="#h"/>
<use x="270.166016" xlink:href="#f"/>
<use x="333.544922" xlink:href="#g"/>
<use x="394.824219" xlink:href="#k"/>
</g>
</g>
<path d="m1169.5 838.32v33.808q0 2.4 2.4 2.4h7.7425q2.4 0 2.4-2.4v-33.808q0-2.4-2.4-2.4h-7.7425q-2.4 0-2.4 2.4z" clip-path="url(#a)" fill="#fff" stroke="#fff"/>
<g clip-path="url(#a)">
<g transform="translate(1173.5 838.32) rotate(90) scale(.08 -.08)">
<use xlink:href="#l"/>
<use x="44.083984" xlink:href="#d"/>
<use x="105.607422" xlink:href="#i"/>
<use x="144.970703" xlink:href="#j"/>
<use x="242.382812" xlink:href="#h"/>
<use x="270.166016" xlink:href="#f"/>
<use x="333.544922" xlink:href="#g"/>
<use x="394.824219" xlink:href="#k"/>
</g>
</g>
<path d="m1242.8 838.32v33.808q0 2.4 2.4 2.4h7.7425q2.4 0 2.4-2.4v-33.808q0-2.4-2.4-2.4h-7.7425q-2.4 0-2.4 2.4z" clip-path="url(#a)" fill="#fff" stroke="#fff"/>
<g clip-path="url(#a)">
<g transform="translate(1246.9 838.32) rotate(90) scale(.08 -.08)">
<use xlink:href="#l"/>
<use x="44.083984" xlink:href="#d"/>
<use x="105.607422" xlink:href="#i"/>
<use x="144.970703" xlink:href="#j"/>
<use x="242.382812" xlink:href="#h"/>
<use x="270.166016" xlink:href="#f"/>
<use x="333.544922" xlink:href="#g"/>
<use x="394.824219" xlink:href="#k"/>
</g>
</g>
<path d="m1313.8 611.78 1.6637-5.2135q0.72963-2.2864-1.5568-3.016l-7.376-2.3538q-2.2864-0.72963-3.016 1.5568l-1.6637 5.2135q-0.72963 2.2864 1.5568 3.016l7.376 2.3538q2.2864 0.72963 3.016-1.5568z" clip-path="url(#a)" fill="#fff" stroke="#fff"/>
<g clip-path="url(#a)">
<g transform="translate(1310 610.55) rotate(-72.301) scale(.08 -.08)">
<use xlink:href="#r"/>
</g>
</g>
<path d="m1352.5 610.39 0.55834-4.7913q0.2778-2.3839-2.1061-2.6617l-7.6905-0.89619q-2.3839-0.2778-2.6617 2.1061l-0.55834 4.7913q-0.2778 2.3839 2.1061 2.6617l7.6905 0.89619q2.3839 0.2778 2.6617-2.1061z" clip-path="url(#a)" fill="#fff" stroke="#fff"/>
<g clip-path="url(#a)">
<g transform="translate(1348.5 609.92) rotate(-83.353) scale(.08 -.08)">
<use xlink:href="#ab"/>
</g>
</g>
<path d="m1443.7 486.28 4.3398 3.3339q1.9032 1.4621 3.3653-0.44115l4.7168-6.1399q1.4621-1.9032-0.44115-3.3653l-4.3398-3.3339q-1.9032-1.4621-3.3653 0.44115l-4.7168 6.1399q-1.4621 1.9032 0.44115 3.3653z" clip-path="url(#a)" fill="#fff" stroke="#fff"/>
<g clip-path="url(#a)">
<g transform="translate(1446.2 483.05) rotate(37.532) scale(.08 -.08)">
<use xlink:href="#r"/>
</g>
</g>
<path d="m1318.5 838.32v33.808q0 2.4 2.4 2.4h7.7425q2.4 0 2.4-2.4v-33.808q0-2.4-2.4-2.4h-7.7425q-2.4 0-2.4 2.4z" clip-path="url(#a)" fill="#fff" stroke="#fff"/>
<g clip-path="url(#a)">
<g transform="translate(1322.6 838.32) rotate(90) scale(.08 -.08)">
<use xlink:href="#l"/>
<use x="44.083984" xlink:href="#d"/>
<use x="105.607422" xlink:href="#i"/>
<use x="144.970703" xlink:href="#j"/>
<use x="242.382812" xlink:href="#h"/>
<use x="270.166016" xlink:href="#f"/>
<use x="333.544922" xlink:href="#g"/>
<use x="394.824219" xlink:href="#k"/>
</g>
</g>
<path d="m1630.5 611.8 4.7062 2.7929q2.0639 1.2248 3.2888-0.83909l3.9514-6.6583q1.2248-2.0639-0.83909-3.2888l-4.7062-2.7929q-2.0639-1.2248-3.2888 0.83909l-3.9514 6.6583q-1.2248 2.0639 0.83909 3.2888z" clip-path="url(#a)" fill="#fff" stroke="#fff"/>
<g clip-path="url(#a)">
<g transform="translate(1632.6 608.31) rotate(30.687) scale(.08 -.08)">
<use xlink:href="#r"/>
</g>
</g>
<path d="m1471.3 675.14 2.5487-4.94q1.1004-2.1329-1.0324-3.2333l-6.8807-3.55q-2.1329-1.1004-3.2333 1.0324l-2.5487 4.94q-1.1004 2.1329 1.0324 3.2333l6.8807 3.55q2.1329 1.1004 3.2333-1.0324z" clip-path="url(#a)" fill="#fff" stroke="#fff"/>
<g clip-path="url(#a)">
<defs>
<path id="aa" d="m44.391 34.188q3.1719-1.0781 6.1719-4.5938t6.0312-9.6719l10.016-19.922h-10.609l-9.3125 18.703q-3.625 7.3281-7.0156 9.7188t-9.25 2.3906h-10.75v-30.812h-9.8594v72.906h22.266q12.5 0 18.656-5.2344 6.1562-5.2188 6.1562-15.766 0-6.8906-3.2031-11.438-3.2031-4.5312-9.2969-6.2812zm-24.719 30.609v-25.875h12.406q7.125 0 10.766 3.2969t3.6406 9.6875-3.6406 9.6406-10.766 3.25z"/>
</defs>
<g transform="translate(1467.6 673.27) rotate(-62.709) scale(.08 -.08)">
<use xlink:href="#aa"/>
</g>
</g>
<path d="m1571.3 609.63 2.891 3.8614q1.4384 1.9212 3.3596 0.48283l6.1979-4.6403q1.9212-1.4384 0.48283-3.3596l-2.891-3.8614q-1.4384-1.9212-3.3596-0.48283l-6.1979 4.6403q-1.9212 1.4384-0.48283 3.3596z" clip-path="url(#a)" fill="#fff" stroke="#fff"/>
<g clip-path="url(#a)">
<g transform="translate(1574.5 607.2) rotate(53.178) scale(.08 -.08)">
<use xlink:href="#ab"/>
</g>
</g>
<path d="m1541.9 667.62 0.85774 6.1q0.33418 2.3766 2.7108 2.0424l7.6671-1.0781q2.3766-0.33418 2.0424-2.7108l-0.85774-6.1q-0.33418-2.3766-2.7108-2.0424l-7.6671 1.0781q-2.3766 0.33418-2.0424 2.7108z" clip-path="url(#a)" fill="#fff" stroke="#fff"/>
<g clip-path="url(#a)">
<g transform="translate(1546 667.05) rotate(81.996) scale(.08 -.08)">
<use xlink:href="#an"/>
</g>
</g>
<path d="m1396.6 838.32v33.808q0 2.4 2.4 2.4h7.7425q2.4 0 2.4-2.4v-33.808q0-2.4-2.4-2.4h-7.7425q-2.4 0-2.4 2.4z" clip-path="url(#a)" fill="#fff" stroke="#fff"/>
<g clip-path="url(#a)">
<g transform="translate(1400.6 838.32) rotate(90) scale(.08 -.08)">
<use xlink:href="#l"/>
<use x="44.083984" xlink:href="#d"/>
<use x="105.607422" xlink:href="#i"/>
<use x="144.970703" xlink:href="#j"/>
<use x="242.382812" xlink:href="#h"/>
<use x="270.166016" xlink:href="#f"/>
<use x="333.544922" xlink:href="#g"/>
<use x="394.824219" xlink:href="#k"/>
</g>
</g>
<path d="m1556.1 738.48 3.7979-3.336q1.8032-1.5839 0.2193-3.387l-5.1096-5.8171q-1.5839-1.8032-3.387-0.2193l-3.7979 3.336q-1.8032 1.5839-0.2193 3.387l5.1096 5.8171q1.5839 1.8032 3.387 0.2193z" clip-path="url(#a)" fill="#fff" stroke="#fff"/>
<g clip-path="url(#a)">
<g transform="translate(1553.4 735.43) rotate(-41.295) scale(.08 -.08)">
<use xlink:href="#w"/>
</g>
</g>
<path d="m1631.1 730.7 1.1807 5.46q0.50726 2.3458 2.853 1.8385l7.5676-1.6364q2.3458-0.50726 1.8385-2.853l-1.1807-5.46q-0.50726-2.3458-2.853-1.8385l-7.5676 1.6364q-2.3458 0.50726-1.8385 2.853z" clip-path="url(#a)" fill="#fff" stroke="#fff"/>
<g clip-path="url(#a)">
<g transform="translate(1635.1 729.84) rotate(77.798) scale(.08 -.08)">
<use xlink:href="#x"/>
</g>
</g>
<path d="m1675 734.2 3.9693 4.3041q1.627 1.7643 3.3913 0.13724l5.6917-5.2489q1.7643-1.627 0.13724-3.3913l-3.9693-4.3041q-1.627-1.7643-3.3913-0.13724l-5.6917 5.2489q-1.7643 1.627-0.13724 3.3913z" clip-path="url(#a)" fill="#fff" stroke="#fff"/>
<g clip-path="url(#a)">
<g transform="translate(1678 731.45) rotate(47.317) scale(.08 -.08)">
<use xlink:href="#af"/>
</g>
</g>
<path d="m1559.8 838.32v33.808q0 2.4 2.4 2.4h7.7425q2.4 0 2.4-2.4v-33.808q0-2.4-2.4-2.4h-7.7425q-2.4 0-2.4 2.4z" clip-path="url(#a)" fill="#fff" stroke="#fff"/>
<g clip-path="url(#a)">
<g transform="translate(1563.8 838.32) rotate(90) scale(.08 -.08)">
<use xlink:href="#l"/>
<use x="44.083984" xlink:href="#d"/>
<use x="105.607422" xlink:href="#i"/>
<use x="144.970703" xlink:href="#j"/>
<use x="242.382812" xlink:href="#h"/>
<use x="270.166016" xlink:href="#f"/>
<use x="333.544922" xlink:href="#g"/>
<use x="394.824219" xlink:href="#k"/>
</g>
</g>
<path d="m1477 838.32v33.808q0 2.4 2.4 2.4h7.7425q2.4 0 2.4-2.4v-33.808q0-2.4-2.4-2.4h-7.7425q-2.4 0-2.4 2.4z" clip-path="url(#a)" fill="#fff" stroke="#fff"/>
<g clip-path="url(#a)">
<g transform="translate(1481 838.32) rotate(90) scale(.08 -.08)">
<use xlink:href="#l"/>
<use x="44.083984" xlink:href="#d"/>
<use x="105.607422" xlink:href="#i"/>
<use x="144.970703" xlink:href="#j"/>
<use x="242.382812" xlink:href="#h"/>
<use x="270.166016" xlink:href="#f"/>
<use x="333.544922" xlink:href="#g"/>
<use x="394.824219" xlink:href="#k"/>
</g>
</g>
<path d="m1644.9 838.32v33.808q0 2.4 2.4 2.4h7.7425q2.4 0 2.4-2.4v-33.808q0-2.4-2.4-2.4h-7.7425q-2.4 0-2.4 2.4z" clip-path="url(#a)" fill="#fff" stroke="#fff"/>
<g clip-path="url(#a)">
<g transform="translate(1649 838.32) rotate(90) scale(.08 -.08)">
<use xlink:href="#l"/>
<use x="44.083984" xlink:href="#d"/>
<use x="105.607422" xlink:href="#i"/>
<use x="144.970703" xlink:href="#j"/>
<use x="242.382812" xlink:href="#h"/>
<use x="270.166016" xlink:href="#f"/>
<use x="333.544922" xlink:href="#g"/>
<use x="394.824219" xlink:href="#k"/>
</g>
</g>
<path d="m464.5 736.56 1.6691-4.7715q0.79245-2.2654-1.473-3.0578l-7.3083-2.5565q-2.2654-0.79245-3.0578 1.473l-1.6691 4.7715q-0.79245 2.2654 1.473 3.0578l7.3083 2.5565q2.2654 0.79245 3.0578-1.473z" clip-path="url(#a)" fill="#fff" stroke="#fff"/>
<g clip-path="url(#a)">
<g transform="translate(460.66 735.22) rotate(-70.72) scale(.08 -.08)">
<use xlink:href="#w"/>
</g>
</g>
<path d="m486.95 734.67 0.03215-5.0549q0.015264-2.4-2.3847-2.4152l-7.7423-0.049242q-2.4-0.015263-2.4152 2.3847l-0.032149 5.0549q-0.015264 2.4 2.3847 2.4152l7.7423 0.049242q2.4 0.015264 2.4152-2.3847z" clip-path="url(#a)" fill="#fff" stroke="#fff"/>
<g clip-path="url(#a)">
<g transform="translate(482.89 734.65) rotate(-89.636) scale(.08 -.08)">
<use xlink:href="#w"/>
</g>
</g>
<path d="m496.33 731.58 1.8743 5.2624q0.80525 2.2609 3.0661 1.4556l7.2937-2.5978q2.2609-0.80525 1.4556-3.0661l-1.8743-5.2624q-0.80525-2.2609-3.0661-1.4556l-7.2937 2.5978q-2.2609 0.80525-1.4556 3.0661z" clip-path="url(#a)" fill="#fff" stroke="#fff"/>
<g clip-path="url(#a)">
<g transform="translate(500.15 730.21) rotate(70.396) scale(.08 -.08)">
<use xlink:href="#x"/>
</g>
</g>
<path d="m566.29 838.32v33.808q0 2.4 2.4 2.4h7.7425q2.4 0 2.4-2.4v-33.808q0-2.4-2.4-2.4h-7.7425q-2.4 0-2.4 2.4z" clip-path="url(#a)" fill="#fff" stroke="#fff"/>
<g clip-path="url(#a)">
<g transform="translate(570.35 838.32) rotate(90) scale(.08 -.08)">
<use xlink:href="#l"/>
<use x="44.083984" xlink:href="#d"/>
<use x="105.607422" xlink:href="#i"/>
<use x="144.970703" xlink:href="#j"/>
<use x="242.382812" xlink:href="#h"/>
<use x="270.166016" xlink:href="#f"/>
<use x="333.544922" xlink:href="#g"/>
<use x="394.824219" xlink:href="#k"/>
</g>
</g>
<path d="m666.19 737.85 3.0253-4.6634q1.3062-2.0134-0.70726-3.3196l-6.4954-4.2138q-2.0134-1.3062-3.3196 0.70726l-3.0253 4.6634q-1.3062 2.0134 0.70726 3.3196l6.4954 4.2138q2.0134 1.3062 3.3196-0.70726z" clip-path="url(#a)" fill="#fff" stroke="#fff"/>
<g clip-path="url(#a)">
<g transform="translate(662.78 735.64) rotate(-57.027) scale(.08 -.08)">
<use xlink:href="#aa"/>
</g>
</g>
<path d="m693.95 736.23 1.2468-5.4453q0.53565-2.3395-1.8038-2.8751l-7.5472-1.728q-2.3395-0.53565-2.8751 1.8038l-1.2468 5.4453q-0.53565 2.3395 1.8038 2.8751l7.5472 1.728q2.3395 0.53565 2.8751-1.8038z" clip-path="url(#a)" fill="#fff" stroke="#fff"/>
<g clip-path="url(#a)">
<g transform="translate(689.99 735.32) rotate(-77.104) scale(.08 -.08)">
<use xlink:href="#x"/>
</g>
</g>
<path d="m708.96 730.67 1.1418 5.4402q0.49298 2.3488 2.8418 1.8558l7.5774-1.5904q2.3488-0.49298 1.8558-2.8418l-1.1418-5.4402q-0.49298-2.3488-2.8418-1.8558l-7.5774 1.5904q-2.3488 0.49298-1.8558 2.8418z" clip-path="url(#a)" fill="#fff" stroke="#fff"/>
<g clip-path="url(#a)">
<g transform="translate(712.94 729.84) rotate(78.147) scale(.08 -.08)">
<use xlink:href="#aa"/>
</g>
</g>
<path d="m737.43 733.48 2.8073 4.2038q1.3329 1.9959 3.3287 0.66301l6.4388-4.2999q1.9959-1.3329 0.66301-3.3287l-2.8073-4.2038q-1.3329-1.9959-3.3287-0.66301l-6.4388 4.2999q-1.9959 1.3329-0.66301 3.3287z" clip-path="url(#a)" fill="#fff" stroke="#fff"/>
<g clip-path="url(#a)">
<g transform="translate(740.81 731.23) rotate(56.265) scale(.08 -.08)">
<use xlink:href="#w"/>
</g>
</g>
<path d="m615.96 838.32v33.808q0 2.4 2.4 2.4h7.7425q2.4 0 2.4-2.4v-33.808q0-2.4-2.4-2.4h-7.7425q-2.4 0-2.4 2.4z" clip-path="url(#a)" fill="#fff" stroke="#fff"/>
<g clip-path="url(#a)">
<g transform="translate(620.02 838.32) rotate(90) scale(.08 -.08)">
<use xlink:href="#l"/>
<use x="44.083984" xlink:href="#d"/>
<use x="105.607422" xlink:href="#i"/>
<use x="144.970703" xlink:href="#j"/>
<use x="242.382812" xlink:href="#h"/>
<use x="270.166016" xlink:href="#f"/>
<use x="333.544922" xlink:href="#g"/>
<use x="394.824219" xlink:href="#k"/>
</g>
</g>
<path d="m668 838.32v33.808q0 2.4 2.4 2.4h7.7425q2.4 0 2.4-2.4v-33.808q0-2.4-2.4-2.4h-7.7425q-2.4 0-2.4 2.4z" clip-path="url(#a)" fill="#fff" stroke="#fff"/>
<g clip-path="url(#a)">
<g transform="translate(672.06 838.32) rotate(90) scale(.08 -.08)">
<use xlink:href="#l"/>
<use x="44.083984" xlink:href="#d"/>
<use x="105.607422" xlink:href="#i"/>
<use x="144.970703" xlink:href="#j"/>
<use x="242.382812" xlink:href="#h"/>
<use x="270.166016" xlink:href="#f"/>
<use x="333.544922" xlink:href="#g"/>
<use x="394.824219" xlink:href="#k"/>
</g>
</g>
<path d="m722.41 838.32v33.808q0 2.4 2.4 2.4h7.7425q2.4 0 2.4-2.4v-33.808q0-2.4-2.4-2.4h-7.7425q-2.4 0-2.4 2.4z" clip-path="url(#a)" fill="#fff" stroke="#fff"/>
<g clip-path="url(#a)">
<g transform="translate(726.47 838.32) rotate(90) scale(.08 -.08)">
<use xlink:href="#l"/>
<use x="44.083984" xlink:href="#d"/>
<use x="105.607422" xlink:href="#i"/>
<use x="144.970703" xlink:href="#j"/>
<use x="242.382812" xlink:href="#h"/>
<use x="270.166016" xlink:href="#f"/>
<use x="333.544922" xlink:href="#g"/>
<use x="394.824219" xlink:href="#k"/>
</g>
</g>
<path d="m779.18 838.32v33.808q0 2.4 2.4 2.4h7.7425q2.4 0 2.4-2.4v-33.808q0-2.4-2.4-2.4h-7.7425q-2.4 0-2.4 2.4z" clip-path="url(#a)" fill="#fff" stroke="#fff"/>
<g clip-path="url(#a)">
<g transform="translate(783.24 838.32) rotate(90) scale(.08 -.08)">
<use xlink:href="#l"/>
<use x="44.083984" xlink:href="#d"/>
<use x="105.607422" xlink:href="#i"/>
<use x="144.970703" xlink:href="#j"/>
<use x="242.382812" xlink:href="#h"/>
<use x="270.166016" xlink:href="#f"/>
<use x="333.544922" xlink:href="#g"/>
<use x="394.824219" xlink:href="#k"/>
</g>
</g>
<path d="m431.46 838.32v33.808q0 2.4 2.4 2.4h7.7425q2.4 0 2.4-2.4v-33.808q0-2.4-2.4-2.4h-7.7425q-2.4 0-2.4 2.4z" clip-path="url(#a)" fill="#fff" stroke="#fff"/>
<g clip-path="url(#a)">
<g transform="translate(435.52 838.32) rotate(90) scale(.08 -.08)">
<use xlink:href="#l"/>
<use x="44.083984" xlink:href="#d"/>
<use x="105.607422" xlink:href="#i"/>
<use x="144.970703" xlink:href="#j"/>
<use x="242.382812" xlink:href="#h"/>
<use x="270.166016" xlink:href="#f"/>
<use x="333.544922" xlink:href="#g"/>
<use x="394.824219" xlink:href="#k"/>
</g>
</g>
<path d="m474.03 838.32v33.808q0 2.4 2.4 2.4h7.7425q2.4 0 2.4-2.4v-33.808q0-2.4-2.4-2.4h-7.7425q-2.4 0-2.4 2.4z" clip-path="url(#a)" fill="#fff" stroke="#fff"/>
<g clip-path="url(#a)">
<g transform="translate(478.1 838.32) rotate(90) scale(.08 -.08)">
<use xlink:href="#l"/>
<use x="44.083984" xlink:href="#d"/>
<use x="105.607422" xlink:href="#i"/>
<use x="144.970703" xlink:href="#j"/>
<use x="242.382812" xlink:href="#h"/>
<use x="270.166016" xlink:href="#f"/>
<use x="333.544922" xlink:href="#g"/>
<use x="394.824219" xlink:href="#k"/>
</g>
</g>
<path d="m518.98 838.32v33.808q0 2.4 2.4 2.4h7.7425q2.4 0 2.4-2.4v-33.808q0-2.4-2.4-2.4h-7.7425q-2.4 0-2.4 2.4z" clip-path="url(#a)" fill="#fff" stroke="#fff"/>
<g clip-path="url(#a)">
<g transform="translate(523.04 838.32) rotate(90) scale(.08 -.08)">
<use xlink:href="#l"/>
<use x="44.083984" xlink:href="#d"/>
<use x="105.607422" xlink:href="#i"/>
<use x="144.970703" xlink:href="#j"/>
<use x="242.382812" xlink:href="#h"/>
<use x="270.166016" xlink:href="#f"/>
<use x="333.544922" xlink:href="#g"/>
<use x="394.824219" xlink:href="#k"/>
</g>
</g>
<path d="m175.99 838.32v33.808q0 2.4 2.4 2.4h7.7425q2.4 0 2.4-2.4v-33.808q0-2.4-2.4-2.4h-7.7425q-2.4 0-2.4 2.4z" clip-path="url(#a)" fill="#fff" stroke="#fff"/>
<g clip-path="url(#a)">
<g transform="translate(180.05 838.32) rotate(90) scale(.08 -.08)">
<use xlink:href="#l"/>
<use x="44.083984" xlink:href="#d"/>
<use x="105.607422" xlink:href="#i"/>
<use x="144.970703" xlink:href="#j"/>
<use x="242.382812" xlink:href="#h"/>
<use x="270.166016" xlink:href="#f"/>
<use x="333.544922" xlink:href="#g"/>
<use x="394.824219" xlink:href="#k"/>
</g>
</g>
<path d="m199.64 838.32v33.808q0 2.4 2.4 2.4h7.7425q2.4 0 2.4-2.4v-33.808q0-2.4-2.4-2.4h-7.7425q-2.4 0-2.4 2.4z" clip-path="url(#a)" fill="#fff" stroke="#fff"/>
<g clip-path="url(#a)">
<g transform="translate(203.71 838.32) rotate(90) scale(.08 -.08)">
<use xlink:href="#l"/>
<use x="44.083984" xlink:href="#d"/>
<use x="105.607422" xlink:href="#i"/>
<use x="144.970703" xlink:href="#j"/>
<use x="242.382812" xlink:href="#h"/>
<use x="270.166016" xlink:href="#f"/>
<use x="333.544922" xlink:href="#g"/>
<use x="394.824219" xlink:href="#k"/>
</g>
</g>
<path d="m252.23 736.02 1.1727-4.9171q0.55679-2.3345-1.7777-2.8913l-7.5313-1.7962q-2.3345-0.55679-2.8913 1.7777l-1.1727 4.9171q-0.55679 2.3345 1.7777 2.8913l7.5313 1.7962q2.3345 0.55679 2.8913-1.7777z" clip-path="url(#a)" fill="#fff" stroke="#fff"/>
<g clip-path="url(#a)">
<g transform="translate(248.28 735.07) rotate(-76.585) scale(.08 -.08)">
<use xlink:href="#w"/>
</g>
</g>
<path d="m269.54 730.84 1.296 5.4338q0.55679 2.3345 2.8913 1.7777l7.5313-1.7962q2.3345-0.55679 1.7777-2.8913l-1.296-5.4338q-0.55679-2.3345-2.8913-1.7777l-7.5313 1.7962q-2.3345 0.55679-1.7777 2.8913z" clip-path="url(#a)" fill="#fff" stroke="#fff"/>
<g clip-path="url(#a)">
<g transform="translate(273.49 729.9) rotate(76.585) scale(.08 -.08)">
<use xlink:href="#x"/>
</g>
</g>
<path d="m254.05 838.32v33.808q0 2.4 2.4 2.4h7.7425q2.4 0 2.4-2.4v-33.808q0-2.4-2.4-2.4h-7.7425q-2.4 0-2.4 2.4z" clip-path="url(#a)" fill="#fff" stroke="#fff"/>
<g clip-path="url(#a)">
<g transform="translate(258.11 838.32) rotate(90) scale(.08 -.08)">
<use xlink:href="#l"/>
<use x="44.083984" xlink:href="#d"/>
<use x="105.607422" xlink:href="#i"/>
<use x="144.970703" xlink:href="#j"/>
<use x="242.382812" xlink:href="#h"/>
<use x="270.166016" xlink:href="#f"/>
<use x="333.544922" xlink:href="#g"/>
<use x="394.824219" xlink:href="#k"/>
</g>
</g>
<path d="m225.66 838.32v33.808q0 2.4 2.4 2.4h7.7425q2.4 0 2.4-2.4v-33.808q0-2.4-2.4-2.4h-7.7425q-2.4 0-2.4 2.4z" clip-path="url(#a)" fill="#fff" stroke="#fff"/>
<g clip-path="url(#a)">
<g transform="translate(229.73 838.32) rotate(90) scale(.08 -.08)">
<use xlink:href="#l"/>
<use x="44.083984" xlink:href="#d"/>
<use x="105.607422" xlink:href="#i"/>
<use x="144.970703" xlink:href="#j"/>
<use x="242.382812" xlink:href="#h"/>
<use x="270.166016" xlink:href="#f"/>
<use x="333.544922" xlink:href="#g"/>
<use x="394.824219" xlink:href="#k"/>
</g>
</g>
<path d="m284.8 838.32v33.808q0 2.4 2.4 2.4h7.7425q2.4 0 2.4-2.4v-33.808q0-2.4-2.4-2.4h-7.7425q-2.4 0-2.4 2.4z" clip-path="url(#a)" fill="#fff" stroke="#fff"/>
<g clip-path="url(#a)">
<g transform="translate(288.86 838.32) rotate(90) scale(.08 -.08)">
<use xlink:href="#l"/>
<use x="44.083984" xlink:href="#d"/>
<use x="105.607422" xlink:href="#i"/>
<use x="144.970703" xlink:href="#j"/>
<use x="242.382812" xlink:href="#h"/>
<use x="270.166016" xlink:href="#f"/>
<use x="333.544922" xlink:href="#g"/>
<use x="394.824219" xlink:href="#k"/>
</g>
</g>
<path d="m105.02 838.32v33.808q0 2.4 2.4 2.4h7.7425q2.4 0 2.4-2.4v-33.808q0-2.4-2.4-2.4h-7.7425q-2.4 0-2.4 2.4z" clip-path="url(#a)" fill="#fff" stroke="#fff"/>
<g clip-path="url(#a)">
<g transform="translate(109.09 838.32) rotate(90) scale(.08 -.08)">
<use xlink:href="#l"/>
<use x="44.083984" xlink:href="#d"/>
<use x="105.607422" xlink:href="#i"/>
<use x="144.970703" xlink:href="#j"/>
<use x="242.382812" xlink:href="#h"/>
<use x="270.166016" xlink:href="#f"/>
<use x="333.544922" xlink:href="#g"/>
<use x="394.824219" xlink:href="#k"/>
</g>
</g>
<path d="m135.73 734.82 0.30659-4.591q0.15992-2.3947-2.2347-2.5546l-7.7253-0.5159q-2.3947-0.15992-2.5546 2.2347l-0.30659 4.591q-0.15992 2.3947 2.2347 2.5546l7.7253 0.5159q2.3947 0.15992 2.5546-2.2347z" clip-path="url(#a)" fill="#fff" stroke="#fff"/>
<g clip-path="url(#a)">
<g transform="translate(131.68 734.55) rotate(-86.179) scale(.08 -.08)">
<use xlink:href="#aq"/>
</g>
</g>
<path d="m131.46 729.74 0.37223 5.5738q0.15992 2.3947 2.5546 2.2347l7.7253-0.5159q2.3947-0.15992 2.2347-2.5546l-0.37223-5.5738q-0.15992-2.3947-2.5546-2.2347l-7.7253 0.5159q-2.3947 0.15992-2.2347 2.5546z" clip-path="url(#a)" fill="#fff" stroke="#fff"/>
<g clip-path="url(#a)">
<g transform="translate(135.52 729.46) rotate(86.179) scale(.08 -.08)">
<use xlink:href="#x"/>
</g>
</g>
<path d="m119.22 838.32v33.808q0 2.4 2.4 2.4h7.7425q2.4 0 2.4-2.4v-33.808q0-2.4-2.4-2.4h-7.7425q-2.4 0-2.4 2.4z" clip-path="url(#a)" fill="#fff" stroke="#fff"/>
<g clip-path="url(#a)">
<g transform="translate(123.28 838.32) rotate(90) scale(.08 -.08)">
<use xlink:href="#l"/>
<use x="44.083984" xlink:href="#d"/>
<use x="105.607422" xlink:href="#i"/>
<use x="144.970703" xlink:href="#j"/>
<use x="242.382812" xlink:href="#h"/>
<use x="270.166016" xlink:href="#f"/>
<use x="333.544922" xlink:href="#g"/>
<use x="394.824219" xlink:href="#k"/>
</g>
</g>
<path d="m135.77 838.32v33.808q0 2.4 2.4 2.4h7.7425q2.4 0 2.4-2.4v-33.808q0-2.4-2.4-2.4h-7.7425q-2.4 0-2.4 2.4z" clip-path="url(#a)" fill="#fff" stroke="#fff"/>
<g clip-path="url(#a)">
<g transform="translate(139.84 838.32) rotate(90) scale(.08 -.08)">
<use xlink:href="#l"/>
<use x="44.083984" xlink:href="#d"/>
<use x="105.607422" xlink:href="#i"/>
<use x="144.970703" xlink:href="#j"/>
<use x="242.382812" xlink:href="#h"/>
<use x="270.166016" xlink:href="#f"/>
<use x="333.544922" xlink:href="#g"/>
<use x="394.824219" xlink:href="#k"/>
</g>
</g>
<path d="m449.36 613.65 2.4427-9.7138q0.58531-2.3275-1.7422-2.9128l-7.5087-1.8882q-2.3275-0.58531-2.9128 1.7422l-2.4427 9.7138q-0.58531 2.3275 1.7422 2.9128l7.5087 1.8882q2.3275 0.58531 2.9128-1.7422z" clip-path="url(#a)" fill="#fff" stroke="#fff"/>
<g clip-path="url(#a)">
<g transform="translate(445.41 612.66) rotate(-75.884) scale(.08 -.08)">
<use xlink:href="#t"/>
<use x="55.712891" xlink:href="#aa"/>
</g>
</g>
<path d="m530.41 482.7 6.0732 8.0826q1.4417 1.9187 3.3604 0.47699l6.1898-4.651q1.9187-1.4417 0.47699-3.3604l-6.0732-8.0826q-1.4417-1.9187-3.3604-0.47699l-6.1898 4.651q-1.9187 1.4417-0.47699 3.3604z" clip-path="url(#a)" fill="#fff" stroke="#fff"/>
<g clip-path="url(#a)">
<g transform="translate(533.65 480.25) rotate(53.079) scale(.08 -.08)">
<use xlink:href="#t"/>
<use x="57.962891" xlink:href="#r"/>
</g>
</g>
<path d="m420.66 613.88 2.8968-9.5882q0.6941-2.2974-1.6033-2.9915l-7.4116-2.2392q-2.2974-0.6941-2.9915 1.6033l-2.8968 9.5882q-0.6941 2.2974 1.6033 2.9915l7.4116 2.2392q2.2974 0.6941 2.9915-1.6033z" clip-path="url(#a)" fill="#fff" stroke="#fff"/>
<g clip-path="url(#a)">
<g transform="translate(416.77 612.7) rotate(-73.19) scale(.08 -.08)">
<use xlink:href="#t"/>
<use x="55.712891" xlink:href="#aa"/>
</g>
</g>
<path d="m520.95 483.42 6.7745 7.5045q1.6082 1.7815 3.3897 0.17328l5.7471-5.1881q1.7815-1.6082 0.17328-3.3897l-6.7745-7.5045q-1.6082-1.7815-3.3897-0.17328l-5.7471 5.1881q-1.7815 1.6082-0.17328 3.3897z" clip-path="url(#a)" fill="#fff" stroke="#fff"/>
<g clip-path="url(#a)">
<g transform="translate(523.97 480.7) rotate(47.926) scale(.08 -.08)">
<use xlink:href="#t"/>
<use x="57.962891" xlink:href="#r"/>
</g>
</g>
<path d="m101.5 612.57 0.48294-10.005q0.11572-2.3972-2.2815-2.5129l-7.7335-0.37331q-2.3972-0.11572-2.5129 2.2815l-0.48294 10.005q-0.11572 2.3972 2.2815 2.5129l7.7335 0.37331q2.3972 0.11572 2.5129-2.2815z" clip-path="url(#a)" fill="#fff" stroke="#fff"/>
<g clip-path="url(#a)">
<g transform="translate(97.439 612.38) rotate(-87.236) scale(.08 -.08)">
<use xlink:href="#t"/>
<use x="55.712891" xlink:href="#aa"/>
</g>
</g>
<path d="m106.58 478.86 1.4433 10.006q0.34262 2.3754 2.718 2.0328l7.6632-1.1053q2.3754-0.34262 2.0328-2.718l-1.4433-10.006q-0.34262-2.3754-2.718-2.0328l-7.6632 1.1053q-2.3754 0.34262-2.0328 2.718z" clip-path="url(#a)" fill="#fff" stroke="#fff"/>
<g clip-path="url(#a)">
<g transform="translate(110.61 478.28) rotate(81.792) scale(.08 -.08)">
<use xlink:href="#t"/>
<use x="57.962891" xlink:href="#r"/>
</g>
</g>
<path d="m93.196 838.32v33.808q0 2.4 2.4 2.4h7.7425q2.4 0 2.4-2.4v-33.808q0-2.4-2.4-2.4h-7.7425q-2.4 0-2.4 2.4z" clip-path="url(#a)" fill="#fff" stroke="#fff"/>
<g clip-path="url(#a)">
<g transform="translate(97.26 838.32) rotate(90) scale(.08 -.08)">
<use xlink:href="#l"/>
<use x="44.083984" xlink:href="#d"/>
<use x="105.607422" xlink:href="#i"/>
<use x="144.970703" xlink:href="#j"/>
<use x="242.382812" xlink:href="#h"/>
<use x="270.166016" xlink:href="#f"/>
<use x="333.544922" xlink:href="#g"/>
<use x="394.824219" xlink:href="#k"/>
</g>
</g>
<path d="m154.7 838.32v33.808q0 2.4 2.4 2.4h7.7425q2.4 0 2.4-2.4v-33.808q0-2.4-2.4-2.4h-7.7425q-2.4 0-2.4 2.4z" clip-path="url(#a)" fill="#fff" stroke="#fff"/>
<g clip-path="url(#a)">
<g transform="translate(158.76 838.32) rotate(90) scale(.08 -.08)">
<use xlink:href="#l"/>
<use x="44.083984" xlink:href="#d"/>
<use x="105.607422" xlink:href="#i"/>
<use x="144.970703" xlink:href="#j"/>
<use x="242.382812" xlink:href="#h"/>
<use x="270.166016" xlink:href="#f"/>
<use x="333.544922" xlink:href="#g"/>
<use x="394.824219" xlink:href="#k"/>
</g>
</g>
<path d="m317.91 838.32v33.808q0 2.4 2.4 2.4h7.7425q2.4 0 2.4-2.4v-33.808q0-2.4-2.4-2.4h-7.7425q-2.4 0-2.4 2.4z" clip-path="url(#a)" fill="#fff" stroke="#fff"/>
<g clip-path="url(#a)">
<g transform="translate(321.98 838.32) rotate(90) scale(.08 -.08)">
<use xlink:href="#l"/>
<use x="44.083984" xlink:href="#d"/>
<use x="105.607422" xlink:href="#i"/>
<use x="144.970703" xlink:href="#j"/>
<use x="242.382812" xlink:href="#h"/>
<use x="270.166016" xlink:href="#f"/>
<use x="333.544922" xlink:href="#g"/>
<use x="394.824219" xlink:href="#k"/>
</g>
</g>
<path d="m838.31 838.32v33.808q0 2.4 2.4 2.4h7.7425q2.4 0 2.4-2.4v-33.808q0-2.4-2.4-2.4h-7.7425q-2.4 0-2.4 2.4z" clip-path="url(#a)" fill="#fff" stroke="#fff"/>
<g clip-path="url(#a)">
<g transform="translate(842.38 838.32) rotate(90) scale(.08 -.08)">
<use xlink:href="#l"/>
<use x="44.083984" xlink:href="#d"/>
<use x="105.607422" xlink:href="#i"/>
<use x="144.970703" xlink:href="#j"/>
<use x="242.382812" xlink:href="#h"/>
<use x="270.166016" xlink:href="#f"/>
<use x="333.544922" xlink:href="#g"/>
<use x="394.824219" xlink:href="#k"/>
</g>
</g>
<path d="m1732.5 838.32v33.808q0 2.4 2.4 2.4h7.7425q2.4 0 2.4-2.4v-33.808q0-2.4-2.4-2.4h-7.7425q-2.4 0-2.4 2.4z" clip-path="url(#a)" fill="#fff" stroke="#fff"/>
<g clip-path="url(#a)">
<g transform="translate(1736.5 838.32) rotate(90) scale(.08 -.08)">
<use xlink:href="#l"/>
<use x="44.083984" xlink:href="#d"/>
<use x="105.607422" xlink:href="#i"/>
<use x="144.970703" xlink:href="#j"/>
<use x="242.382812" xlink:href="#h"/>
<use x="270.166016" xlink:href="#f"/>
<use x="333.544922" xlink:href="#g"/>
<use x="394.824219" xlink:href="#k"/>
</g>
</g>
<defs>
<path id="b" d="m0 8.6603c2.2967 0 4.4997-0.9125 6.1237-2.5365 1.624-1.624 2.5365-3.827 2.5365-6.1237s-0.9125-4.4997-2.5365-6.1237c-1.624-1.624-3.827-2.5365-6.1237-2.5365s-4.4997 0.9125-6.1237 2.5365c-1.624 1.624-2.5365 3.827-2.5365 6.1237s0.9125 4.4997 2.5365 6.1237c1.624 1.624 3.827 2.5365 6.1237 2.5365z"/>
</defs>
<g clip-path="url(#a)">
<use x="82.909091" y="916.363636" fill="#ffffff" stroke="#ffffff" xlink:href="#b"/>
</g>
<g clip-path="url(#a)">
<use x="90.005447" y="916.363636" fill="#ffffff" stroke="#ffffff" xlink:href="#b"/>
</g>
<g clip-path="url(#a)">
<use x="99.467255" y="916.363636" fill="#ffffff" stroke="#ffffff" xlink:href="#b"/>
</g>
<g clip-path="url(#a)">
<use x="111.294514" y="916.363636" fill="#ffffff" stroke="#ffffff" xlink:href="#b"/>
</g>
<g clip-path="url(#a)">
<use x="125.487226" y="916.363636" fill="#ffffff" stroke="#ffffff" xlink:href="#b"/>
</g>
<g clip-path="url(#a)">
<use x="142.04539" y="916.363636" fill="#ffffff" stroke="#ffffff" xlink:href="#b"/>
</g>
<g clip-path="url(#a)">
<use x="160.969005" y="916.363636" fill="#ffffff" stroke="#ffffff" xlink:href="#b"/>
</g>
<g clip-path="url(#a)">
<use x="182.258073" y="916.363636" fill="#ffffff" stroke="#ffffff" xlink:href="#b"/>
</g>
<g clip-path="url(#a)">
<use x="205.912592" y="916.363636" fill="#ffffff" stroke="#ffffff" xlink:href="#b"/>
</g>
<g clip-path="url(#a)">
<use x="231.932564" y="916.363636" fill="#ffffff" stroke="#ffffff" xlink:href="#b"/>
</g>
<g clip-path="url(#a)">
<use x="260.317987" y="916.363636" fill="#ffffff" stroke="#ffffff" xlink:href="#b"/>
</g>
<g clip-path="url(#a)">
<use x="291.068863" y="916.363636" fill="#ffffff" stroke="#ffffff" xlink:href="#b"/>
</g>
<g clip-path="url(#a)">
<use x="324.18519" y="916.363636" fill="#ffffff" stroke="#ffffff" xlink:href="#b"/>
</g>
<g clip-path="url(#a)">
<use x="359.666969" y="916.363636" fill="#ffffff" stroke="#ffffff" xlink:href="#b"/>
</g>
<g clip-path="url(#a)">
<use x="397.5142" y="916.363636" fill="#ffffff" stroke="#ffffff" xlink:href="#b"/>
</g>
<g clip-path="url(#a)">
<use x="437.726884" y="916.363636" fill="#ffffff" stroke="#ffffff" xlink:href="#b"/>
</g>
<g clip-path="url(#a)">
<use x="480.305019" y="916.363636" fill="#ffffff" stroke="#ffffff" xlink:href="#b"/>
</g>
<g clip-path="url(#a)">
<use x="525.248606" y="916.363636" fill="#ffffff" stroke="#ffffff" xlink:href="#b"/>
</g>
<g clip-path="url(#a)">
<use x="572.557645" y="916.363636" fill="#ffffff" stroke="#ffffff" xlink:href="#b"/>
</g>
<g clip-path="url(#a)">
<use x="622.232136" y="916.363636" fill="#ffffff" stroke="#ffffff" xlink:href="#b"/>
</g>
<g clip-path="url(#a)">
<use x="674.272079" y="916.363636" fill="#ffffff" stroke="#ffffff" xlink:href="#b"/>
</g>
<g clip-path="url(#a)">
<use x="728.677474" y="916.363636" fill="#ffffff" stroke="#ffffff" xlink:href="#b"/>
</g>
<g clip-path="url(#a)">
<use x="785.448321" y="916.363636" fill="#ffffff" stroke="#ffffff" xlink:href="#b"/>
</g>
<g clip-path="url(#a)">
<use x="844.584619" y="916.363636" fill="#ffffff" stroke="#ffffff" xlink:href="#b"/>
</g>
<g clip-path="url(#a)">
<use x="906.08637" y="916.363636" fill="#ffffff" stroke="#ffffff" xlink:href="#b"/>
</g>
<g clip-path="url(#a)">
<use x="969.953573" y="916.363636" fill="#ffffff" stroke="#ffffff" xlink:href="#b"/>
</g>
<g clip-path="url(#a)">
<use x="1036.186227" y="916.363636" fill="#ffffff" stroke="#ffffff" xlink:href="#b"/>
</g>
<g clip-path="url(#a)">
<use x="1104.784334" y="916.363636" fill="#ffffff" stroke="#ffffff" xlink:href="#b"/>
</g>
<g clip-path="url(#a)">
<use x="1175.747893" y="916.363636" fill="#ffffff" stroke="#ffffff" xlink:href="#b"/>
</g>
<g clip-path="url(#a)">
<use x="1249.076903" y="916.363636" fill="#ffffff" stroke="#ffffff" xlink:href="#b"/>
</g>
<g clip-path="url(#a)">
<use x="1324.771366" y="916.363636" fill="#ffffff" stroke="#ffffff" xlink:href="#b"/>
</g>
<g clip-path="url(#a)">
<use x="1402.83128" y="916.363636" fill="#ffffff" stroke="#ffffff" xlink:href="#b"/>
</g>
<g clip-path="url(#a)">
<use x="1483.256646" y="916.363636" fill="#ffffff" stroke="#ffffff" xlink:href="#b"/>
</g>
<g clip-path="url(#a)">
<use x="1566.047465" y="916.363636" fill="#ffffff" stroke="#ffffff" xlink:href="#b"/>
</g>
<g clip-path="url(#a)">
<use x="1651.203735" y="916.363636" fill="#ffffff" stroke="#ffffff" xlink:href="#b"/>
</g>
<g clip-path="url(#a)">
<use x="1738.725457" y="916.363636" fill="#ffffff" stroke="#ffffff" xlink:href="#b"/>
</g>
<g clip-path="url(#a)">
<use x="1741.090909" y="670.117274" fill="#ffffff" stroke="#ffffff" xlink:href="#b"/>
</g>
<g clip-path="url(#a)">
<use x="385.68047" y="43.636364" fill="#ffffff" stroke="#ffffff" xlink:href="#b"/>
</g>
<g clip-path="url(#a)">
<use x="86.457269" y="794.090929" fill="#ffffff" stroke="#ffffff" xlink:href="#b"/>
</g>
<g clip-path="url(#a)">
<use x="122.530411" y="545.493388" fill="#ffffff" stroke="#ffffff" xlink:href="#b"/>
</g>
<g clip-path="url(#a)">
<use x="227.497341" y="545.493388" fill="#ffffff" stroke="#ffffff" xlink:href="#b"/>
</g>
<g clip-path="url(#a)">
<use x="359.666969" y="794.090929" fill="#ffffff" stroke="#ffffff" xlink:href="#b"/>
</g>
<g clip-path="url(#a)">
<use x="397.5142" y="794.090929" fill="#ffffff" stroke="#ffffff" xlink:href="#b"/>
</g>
<g clip-path="url(#a)">
<use x="585.436217" y="545.493388" fill="#ffffff" stroke="#ffffff" xlink:href="#b"/>
</g>
<g clip-path="url(#a)">
<use x="1034.176688" y="169.463927" fill="#ffffff" stroke="#ffffff" xlink:href="#b"/>
</g>
<g clip-path="url(#a)">
<use x="906.08637" y="794.090929" fill="#ffffff" stroke="#ffffff" xlink:href="#b"/>
</g>
<g clip-path="url(#a)">
<use x="969.953573" y="794.090929" fill="#ffffff" stroke="#ffffff" xlink:href="#b"/>
</g>
<g clip-path="url(#a)">
<use x="1036.186227" y="794.090929" fill="#ffffff" stroke="#ffffff" xlink:href="#b"/>
</g>
<g clip-path="url(#a)">
<use x="1224.480583" y="295.080977" fill="#ffffff" stroke="#ffffff" xlink:href="#b"/>
</g>
<g clip-path="url(#a)">
<use x="1104.784334" y="794.090929" fill="#ffffff" stroke="#ffffff" xlink:href="#b"/>
</g>
<g clip-path="url(#a)">
<use x="1175.747893" y="794.090929" fill="#ffffff" stroke="#ffffff" xlink:href="#b"/>
</g>
<g clip-path="url(#a)">
<use x="1249.076903" y="794.090929" fill="#ffffff" stroke="#ffffff" xlink:href="#b"/>
</g>
<g clip-path="url(#a)">
<use x="1368.313203" y="420.445355" fill="#ffffff" stroke="#ffffff" xlink:href="#b"/>
</g>
<g clip-path="url(#a)">
<use x="1324.771366" y="794.090929" fill="#ffffff" stroke="#ffffff" xlink:href="#b"/>
</g>
<g clip-path="url(#a)">
<use x="1531.091341" y="545.493388" fill="#ffffff" stroke="#ffffff" xlink:href="#b"/>
</g>
<g clip-path="url(#a)">
<use x="1402.83128" y="794.090929" fill="#ffffff" stroke="#ffffff" xlink:href="#b"/>
</g>
<g clip-path="url(#a)">
<use x="1624.395279" y="670.117274" fill="#ffffff" stroke="#ffffff" xlink:href="#b"/>
</g>
<g clip-path="url(#a)">
<use x="1566.047465" y="794.090929" fill="#ffffff" stroke="#ffffff" xlink:href="#b"/>
</g>
<g clip-path="url(#a)">
<use x="1483.256646" y="794.090929" fill="#ffffff" stroke="#ffffff" xlink:href="#b"/>
</g>
<g clip-path="url(#a)">
<use x="1651.203735" y="794.090929" fill="#ffffff" stroke="#ffffff" xlink:href="#b"/>
</g>
<g clip-path="url(#a)">
<use x="481.093503" y="670.117274" fill="#ffffff" stroke="#ffffff" xlink:href="#b"/>
</g>
<g clip-path="url(#a)">
<use x="572.557645" y="794.090929" fill="#ffffff" stroke="#ffffff" xlink:href="#b"/>
</g>
<g clip-path="url(#a)">
<use x="702.657502" y="670.117274" fill="#ffffff" stroke="#ffffff" xlink:href="#b"/>
</g>
<g clip-path="url(#a)">
<use x="622.232136" y="794.090929" fill="#ffffff" stroke="#ffffff" xlink:href="#b"/>
</g>
<g clip-path="url(#a)">
<use x="674.272079" y="794.090929" fill="#ffffff" stroke="#ffffff" xlink:href="#b"/>
</g>
<g clip-path="url(#a)">
<use x="728.677474" y="794.090929" fill="#ffffff" stroke="#ffffff" xlink:href="#b"/>
</g>
<g clip-path="url(#a)">
<use x="785.448321" y="794.090929" fill="#ffffff" stroke="#ffffff" xlink:href="#b"/>
</g>
<g clip-path="url(#a)">
<use x="437.726884" y="794.090929" fill="#ffffff" stroke="#ffffff" xlink:href="#b"/>
</g>
<g clip-path="url(#a)">
<use x="480.305019" y="794.090929" fill="#ffffff" stroke="#ffffff" xlink:href="#b"/>
</g>
<g clip-path="url(#a)">
<use x="525.248606" y="794.090929" fill="#ffffff" stroke="#ffffff" xlink:href="#b"/>
</g>
<g clip-path="url(#a)">
<use x="182.258073" y="794.090929" fill="#ffffff" stroke="#ffffff" xlink:href="#b"/>
</g>
<g clip-path="url(#a)">
<use x="205.912592" y="794.090929" fill="#ffffff" stroke="#ffffff" xlink:href="#b"/>
</g>
<g clip-path="url(#a)">
<use x="261.500713" y="670.117274" fill="#ffffff" stroke="#ffffff" xlink:href="#b"/>
</g>
<g clip-path="url(#a)">
<use x="260.317987" y="794.090929" fill="#ffffff" stroke="#ffffff" xlink:href="#b"/>
</g>
<g clip-path="url(#a)">
<use x="231.932564" y="794.090929" fill="#ffffff" stroke="#ffffff" xlink:href="#b"/>
</g>
<g clip-path="url(#a)">
<use x="291.068863" y="794.090929" fill="#ffffff" stroke="#ffffff" xlink:href="#b"/>
</g>
<g clip-path="url(#a)">
<use x="111.294514" y="794.090929" fill="#ffffff" stroke="#ffffff" xlink:href="#b"/>
</g>
<g clip-path="url(#a)">
<use x="133.766308" y="670.117274" fill="#ffffff" stroke="#ffffff" xlink:href="#b"/>
</g>
<g clip-path="url(#a)">
<use x="125.487226" y="794.090929" fill="#ffffff" stroke="#ffffff" xlink:href="#b"/>
</g>
<g clip-path="url(#a)">
<use x="142.04539" y="794.090929" fill="#ffffff" stroke="#ffffff" xlink:href="#b"/>
</g>
<g clip-path="url(#a)">
<use x="491.475209" y="420.445355" fill="#808080" stroke="#808080" xlink:href="#b"/>
</g>
<g clip-path="url(#a)">
<use x="472.551593" y="420.445355" fill="#808080" stroke="#808080" xlink:href="#b"/>
</g>
<g clip-path="url(#a)">
<use x="104.49384" y="420.445355" fill="#808080" stroke="#808080" xlink:href="#b"/>
</g>
<g clip-path="url(#a)">
<use x="99.467255" y="794.090929" fill="#ffffff" stroke="#ffffff" xlink:href="#b"/>
</g>
<g clip-path="url(#a)">
<use x="160.969005" y="794.090929" fill="#ffffff" stroke="#ffffff" xlink:href="#b"/>
</g>
<g clip-path="url(#a)">
<use x="324.18519" y="794.090929" fill="#ffffff" stroke="#ffffff" xlink:href="#b"/>
</g>
<g clip-path="url(#a)">
<use x="844.584619" y="794.090929" fill="#ffffff" stroke="#ffffff" xlink:href="#b"/>
</g>
<g clip-path="url(#a)">
<use x="1738.725457" y="794.090929" fill="#ffffff" stroke="#ffffff" xlink:href="#b"/>
</g>
<g clip-path="url(#a)">
<defs>
<path id="av" d="m9.8125 72.906h13.281l32.328-60.984v60.984h9.5625v-72.906h-13.281l-32.312 60.984v-60.984h-9.5781z"/>
<path id="v" d="m30.609 48.391q-7.2188 0-11.422-5.6406t-4.2031-15.453 4.1719-15.453q4.1875-5.6406 11.453-5.6406 7.1875 0 11.375 5.6562 4.2031 5.6719 4.2031 15.438 0 9.7188-4.2031 15.406-4.1875 5.6875-11.375 5.6875zm0 7.6094q11.719 0 18.406-7.625 6.7031-7.6094 6.7031-21.078 0-13.422-6.7031-21.078-6.6875-7.6406-18.406-7.6406-11.766 0-18.438 7.6406-6.6562 7.6562-6.6562 21.078 0 13.469 6.6562 21.078 6.6719 7.625 18.438 7.625z"/>
<path id="ah" d="m4.2031 54.688h8.9844l11.234-42.672 11.172 42.672h10.594l11.234-42.672 11.188 42.672h8.9844l-14.312-54.688h-10.594l-11.766 44.828-11.812-44.828h-10.609z"/>
</defs>
<g transform="translate(72.02 919.12) scale(.1 -.1)">
<use xlink:href="#av"/>
<use x="74.804688" xlink:href="#v"/>
<use x="135.986328" xlink:href="#ah"/>
</g>
</g>
<g clip-path="url(#a)">
<defs>
<path id="o" d="m18.312 70.219v-15.531h18.5v-6.9844h-18.5v-29.688q0-6.6875 1.8281-8.5938t7.4531-1.9062h9.2188v-7.5156h-9.2188q-10.406 0-14.359 3.875-3.9531 3.8906-3.9531 14.141v29.688h-6.5938v6.9844h6.5938v15.531z"/>
<path id="y" d="m54.891 33.016v-33.016h-8.9844v32.719q0 7.7656-3.0312 11.609-3.0312 3.8594-9.0781 3.8594-7.2812 0-11.484-4.6406-4.2031-4.625-4.2031-12.641v-30.906h-9.0312v75.984h9.0312v-29.797q3.2344 4.9375 7.5938 7.375 4.375 2.4375 10.094 2.4375 9.4219 0 14.25-5.8281 4.8438-5.8281 4.8438-17.156z"/>
</defs>
<g transform="translate(78.631 919.12) scale(.1 -.1)">
<use xlink:href="#o"/>
<use x="39.208984" xlink:href="#y"/>
<use x="102.587891" xlink:href="#d"/>
<use x="164.111328" xlink:href="#f"/>
</g>
</g>
<g clip-path="url(#a)">
<defs>
<path id="ao" d="m11.719 12.406h10.297v-8.4062l-8-15.625h-6.2969l4 15.625z"/>
</defs>
<g transform="translate(97.878 919.12) scale(.1 -.1)">
<use xlink:href="#ao"/>
</g>
</g>
<g clip-path="url(#a)">
<g transform="translate(107.95 919.12) scale(.1 -.1)">
<use xlink:href="#h"/>
<use x="27.783203" xlink:href="#o"/>
</g>
</g>
<g clip-path="url(#a)">
<defs>
<path id="s" d="m45.406 46.391v29.594h8.9844v-75.984h-8.9844v8.2031q-2.8281-4.875-7.1562-7.25-4.3125-2.375-10.375-2.375-9.9062 0-16.141 7.9062-6.2188 7.9219-6.2188 20.812t6.2188 20.797q6.2344 7.9062 16.141 7.9062 6.0625 0 10.375-2.375 4.3281-2.3594 7.1562-7.2344zm-30.609-19.094q0-9.9062 4.0781-15.547t11.203-5.6406 11.219 5.6406q4.1094 5.6406 4.1094 15.547t-4.1094 15.547q-4.0938 5.6406-11.219 5.6406t-11.203-5.6406-4.0781-15.547z"/>
</defs>
<g transform="translate(117.75 919.12) scale(.1 -.1)">
<use xlink:href="#s"/>
<use x="63.476562" xlink:href="#h"/>
<use x="91.259766" xlink:href="#s"/>
</g>
</g>
<g clip-path="url(#a)">
<defs>
<path id="ar" d="m54.891 54.688-19.781-26.609 20.797-28.078h-10.594l-15.922 21.484-15.906-21.484h-10.609l21.25 28.609-19.438 26.078h10.594l14.5-19.484 14.5 19.484z"/>
<path id="u" d="m44.281 53.078v-8.5q-3.7969 1.9531-7.9062 2.9219-4.0938 0.98438-8.5 0.98438-6.6875 0-10.031-2.0469t-3.3438-6.1562q0-3.125 2.3906-4.9062t9.625-3.3906l3.0781-0.6875q9.5625-2.0469 13.594-5.7812t4.0312-10.422q0-7.625-6.0312-12.078-6.0312-4.4375-16.578-4.4375-4.3906 0-9.1562 0.85938t-10.031 2.5625v9.2812q4.9844-2.5938 9.8125-3.8906 4.8281-1.2812 9.5781-1.2812 6.3438 0 9.75 2.1719 3.4219 2.1719 3.4219 6.125 0 3.6562-2.4688 5.6094-2.4531 1.9531-10.812 3.7656l-3.125 0.73438q-8.3438 1.75-12.062 5.3906-3.7031 3.6406-3.7031 9.9844 0 7.7188 5.4688 11.906 5.4688 4.2031 15.531 4.2031 4.9688 0 9.3594-0.73438 4.4062-0.71875 8.1094-2.1875z"/>
</defs>
<g transform="translate(130.14 919.12) scale(.1 -.1)">
<use xlink:href="#d"/>
<use x="59.773438" xlink:href="#ar"/>
<use x="118.953125" xlink:href="#h"/>
<use x="146.736328" xlink:href="#u"/>
<use x="198.835938" xlink:href="#o"/>
</g>
</g>
<g clip-path="url(#a)">
<g transform="translate(159.38 919.12) scale(.1 -.1)">
<use xlink:href="#ao"/>
</g>
</g>
<g clip-path="url(#a)">
<g transform="translate(173.14 919.12) scale(.1 -.1)">
<use xlink:href="#o"/>
<use x="39.208984" xlink:href="#y"/>
<use x="102.587891" xlink:href="#h"/>
<use x="130.371094" xlink:href="#u"/>
</g>
</g>
<g clip-path="url(#a)">
<g transform="translate(196.15 919.12) scale(.1 -.1)">
<use xlink:href="#ah"/>
<use x="81.787109" xlink:href="#g"/>
<use x="143.066406" xlink:href="#u"/>
</g>
</g>
<g clip-path="url(#a)">
<g transform="translate(225.7 919.12) scale(.1 -.1)">
<use xlink:href="#g"/>
<use x="61.279297" xlink:href="#f"/>
</g>
</g>
<g clip-path="url(#a)">
<defs>
<path id="ae" d="m8.5 21.578v33.109h8.9844v-32.766q0-7.7656 3.0156-11.656 3.0312-3.875 9.0938-3.875 7.2656 0 11.484 4.6406 4.2344 4.6406 4.2344 12.656v31h8.9844v-54.688h-8.9844v8.4062q-3.2656-4.9844-7.5938-7.4062-4.3125-2.4219-10.031-2.4219-9.4219 0-14.312 5.8594-4.875 5.8594-4.875 17.141z"/>
<path id="al" d="m48.688 27.297q0 9.9062-4.0781 15.547t-11.203 5.6406q-7.1406 0-11.219-5.6406t-4.0781-15.547 4.0781-15.547 11.219-5.6406q7.125 0 11.203 5.6406t4.0781 15.547zm-30.578 19.094q2.8438 4.875 7.1562 7.2344 4.3281 2.375 10.328 2.375 9.9688 0 16.188-7.9062 6.2344-7.9062 6.2344-20.797t-6.2344-20.812q-6.2188-7.9062-16.188-7.9062-6 0-10.328 2.375-4.3125 2.375-7.1562 7.25v-8.2031h-9.0312v75.984h9.0312z"/>
</defs>
<g transform="translate(232.47 919.12) scale(.1 -.1)">
<use xlink:href="#ae"/>
<use x="63.378906" xlink:href="#f"/>
<use x="126.757812" xlink:href="#s"/>
<use x="190.234375" xlink:href="#d"/>
<use x="251.757812" xlink:href="#f"/>
<use x="315.136719" xlink:href="#h"/>
<use x="342.919922" xlink:href="#g"/>
<use x="404.199219" xlink:href="#al"/>
<use x="467.675781" xlink:href="#k"/>
<use x="495.458984" xlink:href="#d"/>
</g>
</g>
<g clip-path="url(#a)">
<defs>
<path id="at" d="m37.109 75.984v-7.4844h-8.5938q-4.8281 0-6.7188-1.9531-1.875-1.9531-1.875-7.0312v-4.8281h14.797v-6.9844h-14.797v-47.703h-9.0312v47.703h-8.5938v6.9844h8.5938v3.8125q0 9.125 4.25 13.297 4.25 4.1875 13.469 4.1875z"/>
<path id="z" d="m48.781 52.594v-8.4062q-3.8125 2.1094-7.6406 3.1562t-7.7344 1.0469q-8.75 0-13.594-5.5469-4.8281-5.5312-4.8281-15.547t4.8281-15.562q4.8438-5.5312 13.594-5.5312 3.9062 0 7.7344 1.0469t7.6406 3.1562v-8.3125q-3.7656-1.75-7.7969-2.625-4.0156-0.89062-8.5625-0.89062-12.359 0-19.641 7.7656-7.2656 7.7656-7.2656 20.953 0 13.375 7.3438 21.031 7.3594 7.6719 20.156 7.6719 4.1406 0 8.0938-0.85938 3.9531-0.84375 7.6719-2.5469z"/>
</defs>
<g transform="translate(281.54 919.12) scale(.1 -.1)">
<use xlink:href="#at"/>
<use x="35.205078" xlink:href="#g"/>
<use x="96.484375" xlink:href="#z"/>
<use x="151.464844" xlink:href="#o"/>
</g>
</g>
<g clip-path="url(#a)">
<defs>
<path id="ax" d="m11.719 51.703h10.297v-12.391h-10.297zm0-39.297h10.297v-8.4062l-8-15.625h-6.2969l4 15.625z"/>
</defs>
<g transform="translate(322.5 919.12) scale(.1 -.1)">
<use xlink:href="#ax"/>
</g>
</g>
<g clip-path="url(#a)">
<g transform="translate(350.26 919.12) scale(.1 -.1)">
<use xlink:href="#g"/>
<use x="61.279297" xlink:href="#f"/>
<use x="124.658203" xlink:href="#s"/>
</g>
</g>
<g clip-path="url(#a)">
<g transform="translate(384.53 919.12) scale(.1 -.1)">
<use xlink:href="#u"/>
<use x="52.099609" xlink:href="#h"/>
<use x="79.882812" xlink:href="#f"/>
<use x="143.261719" xlink:href="#z"/>
<use x="198.242188" xlink:href="#d"/>
</g>
</g>
<g clip-path="url(#a)">
<g transform="translate(429.52 919.12) scale(.1 -.1)">
<use xlink:href="#o"/>
<use x="39.208984" xlink:href="#y"/>
<use x="102.587891" xlink:href="#d"/>
</g>
</g>
<g clip-path="url(#a)">
<g transform="translate(462.86 919.12) scale(.1 -.1)">
<use xlink:href="#y"/>
<use x="63.378906" xlink:href="#ae"/>
<use x="126.757812" xlink:href="#j"/>
<use x="224.169922" xlink:href="#g"/>
<use x="285.449219" xlink:href="#f"/>
</g>
</g>
<g clip-path="url(#a)">
<g transform="translate(512.65 919.12) scale(.1 -.1)">
<use xlink:href="#j"/>
<use x="97.412109" xlink:href="#h"/>
<use x="125.195312" xlink:href="#f"/>
<use x="188.574219" xlink:href="#s"/>
</g>
</g>
<g clip-path="url(#a)">
<g transform="translate(558.68 919.12) scale(.1 -.1)">
<use xlink:href="#s"/>
<use x="63.476562" xlink:href="#v"/>
<use x="124.658203" xlink:href="#o"/>
<use x="163.867188" xlink:href="#d"/>
<use x="225.390625" xlink:href="#u"/>
</g>
</g>
<g clip-path="url(#a)">
<g transform="translate(616 919.12) scale(.1 -.1)">
<use xlink:href="#v"/>
<use x="61.181641" xlink:href="#f"/>
</g>
</g>
<g clip-path="url(#a)">
<defs>
<path id="ay" d="m9.4219 54.688h8.9844v-55.672q0-10.438-3.9844-15.125-3.9688-4.6875-12.812-4.6875h-3.4219v7.6094h2.4062q5.125 0 6.9688 2.375 1.8594 2.3594 1.8594 9.8281zm0 21.297h8.9844v-11.391h-8.9844z"/>
</defs>
<g transform="translate(656.26 919.12) scale(.1 -.1)">
<use xlink:href="#v"/>
<use x="61.181641" xlink:href="#al"/>
<use x="124.658203" xlink:href="#ay"/>
<use x="152.441406" xlink:href="#d"/>
<use x="213.964844" xlink:href="#z"/>
<use x="268.945312" xlink:href="#o"/>
<use x="308.154297" xlink:href="#u"/>
</g>
</g>
<g clip-path="url(#a)">
<g transform="translate(723.86 919.12) scale(.1 -.1)">
<use xlink:href="#v"/>
<use x="61.181641" xlink:href="#at"/>
</g>
</g>
<g clip-path="url(#a)">
<g transform="translate(766.82 919.12) scale(.1 -.1)">
<use xlink:href="#ah"/>
<use x="81.787109" xlink:href="#v"/>
<use x="142.96875" xlink:href="#f"/>
<use x="206.347656" xlink:href="#s"/>
<use x="269.824219" xlink:href="#d"/>
<use x="331.347656" xlink:href="#i"/>
</g>
</g>
<g clip-path="url(#a)">
<g transform="translate(843 919.12) scale(.1 -.1)">
<use xlink:href="#ao"/>
</g>
</g>
<g clip-path="url(#a)">
<defs>
<path id="ap" d="m32.172-5.0781q-3.7969-9.7656-7.4219-12.734-3.6094-2.9844-9.6562-2.9844h-7.1875v7.5156h5.2812q3.7031 0 5.75 1.7656 2.0625 1.75 4.5469 8.2969l1.6094 4.0938-22.109 53.812h9.5156l17.094-42.766 17.094 42.766h9.5156z"/>
</defs>
<g transform="translate(896.9 919.12) scale(.1 -.1)">
<use xlink:href="#ap"/>
<use x="59.179688" xlink:href="#v"/>
<use x="120.361328" xlink:href="#ae"/>
</g>
</g>
<g clip-path="url(#a)">
<g transform="translate(960.97 919.12) scale(.1 -.1)">
<use xlink:href="#z"/>
<use x="54.980469" xlink:href="#g"/>
<use x="116.259766" xlink:href="#f"/>
</g>
</g>
<g clip-path="url(#a)">
<g transform="translate(1007.6 919.12) scale(.1 -.1)">
<use xlink:href="#ae"/>
<use x="63.378906" xlink:href="#f"/>
<use x="126.757812" xlink:href="#s"/>
<use x="190.234375" xlink:href="#d"/>
<use x="251.757812" xlink:href="#i"/>
<use x="292.871094" xlink:href="#u"/>
<use x="344.970703" xlink:href="#o"/>
<use x="384.179688" xlink:href="#g"/>
<use x="445.458984" xlink:href="#f"/>
<use x="508.837891" xlink:href="#s"/>
</g>
</g>
<g clip-path="url(#a)">
<g transform="translate(1096.6 919.12) scale(.1 -.1)">
<use xlink:href="#o"/>
<use x="39.208984" xlink:href="#y"/>
<use x="102.587891" xlink:href="#d"/>
</g>
</g>
<g clip-path="url(#a)">
<g transform="translate(1150.3 919.12) scale(.1 -.1)">
<use xlink:href="#ah"/>
<use x="81.787109" xlink:href="#v"/>
<use x="142.96875" xlink:href="#i"/>
<use x="184.082031" xlink:href="#k"/>
<use x="211.865234" xlink:href="#s"/>
<use x="275.341797" xlink:href="#ah"/>
<use x="357.128906" xlink:href="#h"/>
<use x="384.912109" xlink:href="#s"/>
<use x="448.388672" xlink:href="#d"/>
</g>
</g>
<g clip-path="url(#a)">
<g transform="translate(1221 919.12) scale(.1 -.1)">
<use xlink:href="#d"/>
<use x="59.773438" xlink:href="#ar"/>
<use x="117.203125" xlink:href="#z"/>
<use x="172.183594" xlink:href="#h"/>
<use x="199.966797" xlink:href="#o"/>
<use x="239.175781" xlink:href="#d"/>
<use x="300.699219" xlink:href="#j"/>
<use x="398.111328" xlink:href="#d"/>
<use x="459.634766" xlink:href="#f"/>
<use x="523.013672" xlink:href="#o"/>
</g>
</g>
<g clip-path="url(#a)">
<g transform="translate(1306.9 919.12) scale(.1 -.1)">
<use xlink:href="#z"/>
<use x="54.980469" xlink:href="#g"/>
<use x="116.259766" xlink:href="#ae"/>
<use x="179.638672" xlink:href="#u"/>
<use x="231.738281" xlink:href="#d"/>
<use x="293.261719" xlink:href="#s"/>
</g>
</g>
<g clip-path="url(#a)">
<g transform="translate(1396.7 919.12) scale(.1 -.1)">
<use xlink:href="#al"/>
<use x="63.476562" xlink:href="#ap"/>
</g>
</g>
<g clip-path="url(#a)">
<g transform="translate(1474.1 919.12) scale(.1 -.1)">
<use xlink:href="#o"/>
<use x="39.208984" xlink:href="#y"/>
<use x="102.587891" xlink:href="#h"/>
<use x="130.371094" xlink:href="#u"/>
</g>
</g>
<g clip-path="url(#a)">
<g transform="translate(1542 919.12) scale(.1 -.1)">
<use xlink:href="#ae"/>
<use x="63.378906" xlink:href="#f"/>
<use x="126.757812" xlink:href="#d"/>
<use x="188.28125" xlink:href="#g"/>
<use x="249.560547" xlink:href="#i"/>
<use x="290.673828" xlink:href="#o"/>
<use x="329.882812" xlink:href="#y"/>
<use x="393.261719" xlink:href="#k"/>
<use x="421.044922" xlink:href="#ap"/>
</g>
</g>
<g clip-path="url(#a)">
<defs>
<path id="as" d="m18.109 8.2031v-29h-9.0312v75.484h9.0312v-8.2969q2.8438 4.875 7.1562 7.2344 4.3281 2.375 10.328 2.375 9.9688 0 16.188-7.9062 6.2344-7.9062 6.2344-20.797t-6.2344-20.812q-6.2188-7.9062-16.188-7.9062-6 0-10.328 2.375-4.3125 2.375-7.1562 7.25zm30.578 19.094q0 9.9062-4.0781 15.547t-11.203 5.6406q-7.1406 0-11.219-5.6406t-4.0781-15.547 4.0781-15.547 11.219-5.6406q7.125 0 11.203 5.6406t4.0781 15.547z"/>
</defs>
<g transform="translate(1625.7 919.12) scale(.1 -.1)">
<use xlink:href="#g"/>
<use x="61.279297" xlink:href="#as"/>
<use x="124.755859" xlink:href="#as"/>
<use x="188.232422" xlink:href="#g"/>
<use x="249.511719" xlink:href="#i"/>
<use x="290.625" xlink:href="#h"/>
<use x="318.408203" xlink:href="#o"/>
<use x="357.617188" xlink:href="#h"/>
<use x="385.400391" xlink:href="#v"/>
<use x="446.582031" xlink:href="#f"/>
</g>
</g>
<g clip-path="url(#a)">
<defs>
<path id="e" d="m10.688 12.406h10.312v-12.406h-10.312z"/>
</defs>
<g transform="translate(1737.1 919.12) scale(.1 -.1)">
<use xlink:href="#e"/>
</g>
</g>
<g clip-path="url(#a)">
<defs>
<path id="am" d="m9.8125 72.906h9.8594v-72.906h-9.8594z"/>
<path id="aw" d="m9.8125 72.906h14.703l18.594-49.609 18.703 49.609h14.703v-72.906h-9.625v64.016l-18.797-50h-9.9062l-18.797 50v-64.016h-9.5781z"/>
</defs>
<g transform="translate(1720 672.88) scale(.1 -.1)">
<use xlink:href="#am"/>
<use x="29.492188" xlink:href="#aw"/>
<use x="115.771484" xlink:href="#ab"/>
<use x="176.074219" xlink:href="#t"/>
<use x="231.787109" xlink:href="#am"/>
<use x="261.279297" xlink:href="#x"/>
<use x="331.103516" xlink:href="#am"/>
<use x="360.595703" xlink:href="#l"/>
</g>
</g>
<g clip-path="url(#a)">
<defs>
<path id="c" d="m12.406 8.2969h16.109v55.625l-17.531-3.5156v8.9844l17.438 3.5156h9.8594v-64.609h16.109v-8.2969h-41.984z"/>
</defs>
<g transform="translate(377.73 46.396) scale(.1 -.1)">
<use xlink:href="#c"/>
<use x="63.623047" xlink:href="#e"/>
<use x="95.410156" xlink:href="#c"/>
</g>
</g>
<g clip-path="url(#a)">
<defs>
<path id="q" d="m19.188 8.2969h34.422v-8.2969h-46.281v8.2969q5.6094 5.8125 15.297 15.594 9.7031 9.7969 12.188 12.641 4.7344 5.3125 6.6094 9 1.8906 3.6875 1.8906 7.25 0 5.8125-4.0781 9.4688-4.0781 3.6719-10.625 3.6719-4.6406 0-9.7969-1.6094-5.1406-1.6094-11-4.8906v9.9688q5.9531 2.3906 11.125 3.6094 5.1875 1.2188 9.4844 1.2188 11.328 0 18.062-5.6719 6.7344-5.6562 6.7344-15.125 0-4.5-1.6875-8.5312-1.6719-4.0156-6.125-9.4844-1.2188-1.4219-7.7656-8.1875-6.5312-6.7656-18.453-18.922z"/>
</defs>
<g transform="translate(78.506 796.85) scale(.1 -.1)">
<use xlink:href="#c"/>
<use x="63.623047" xlink:href="#e"/>
<use x="95.410156" xlink:href="#q"/>
</g>
</g>
<g clip-path="url(#a)">
<defs>
<path id="n" d="m40.578 39.312q7.0781-1.5156 11.047-6.3125 3.9844-4.7812 3.9844-11.812 0-10.781-7.4219-16.703-7.4219-5.9062-21.094-5.9062-4.5781 0-9.4375 0.90625t-10.031 2.7188v9.5156q4.0938-2.3906 8.9688-3.6094 4.8906-1.2188 10.219-1.2188 9.2656 0 14.125 3.6562t4.8594 10.641q0 6.4531-4.5156 10.078-4.5156 3.6406-12.562 3.6406h-8.5v8.1094h8.8906q7.2656 0 11.125 2.9062t3.8594 8.375q0 5.6094-3.9844 8.6094-3.9688 3.0156-11.391 3.0156-4.0625 0-8.7031-0.89062-4.6406-0.875-10.203-2.7188v8.7812q5.625 1.5625 10.531 2.3438t9.25 0.78125q11.234 0 17.766-5.1094 6.5469-5.0938 6.5469-13.781 0-6.0625-3.4688-10.234t-9.8594-5.7812z"/>
</defs>
<g transform="translate(114.58 548.25) scale(.1 -.1)">
<use xlink:href="#c"/>
<use x="63.623047" xlink:href="#e"/>
<use x="95.410156" xlink:href="#n"/>
</g>
</g>
<g clip-path="url(#a)">
<defs>
<path id="m" d="m37.797 64.312-24.906-38.922h24.906zm-2.5938 8.5938h12.406v-47.516h10.406v-8.2031h-10.406v-17.188h-9.8125v17.188h-32.906v9.5156z"/>
</defs>
<g transform="translate(219.55 548.25) scale(.1 -.1)">
<use xlink:href="#c"/>
<use x="63.623047" xlink:href="#e"/>
<use x="95.410156" xlink:href="#m"/>
</g>
</g>
<g clip-path="url(#a)">
<defs>
<path id="p" d="m10.797 72.906h38.719v-8.3125h-29.688v-17.859q2.1406 0.73438 4.2812 1.0938 2.1562 0.35938 4.3125 0.35938 12.203 0 19.328-6.6875 7.1406-6.6875 7.1406-18.109 0-11.766-7.3281-18.297-7.3281-6.5156-20.656-6.5156-4.5938 0-9.3594 0.78125-4.75 0.78125-9.8281 2.3438v9.9219q4.3906-2.3906 9.0781-3.5625t9.9062-1.1719q8.4531 0 13.375 4.4375 4.9375 4.4375 4.9375 12.062 0 7.6094-4.9375 12.047-4.9219 4.4531-13.375 4.4531-3.9531 0-7.8906-0.875-3.9219-0.875-8.0156-2.7344z"/>
</defs>
<g transform="translate(351.72 796.85) scale(.1 -.1)">
<use xlink:href="#c"/>
<use x="63.623047" xlink:href="#e"/>
<use x="95.410156" xlink:href="#p"/>
</g>
</g>
<g clip-path="url(#a)">
<defs>
<path id="ad" d="m33.016 40.375q-6.6406 0-10.531-4.5469-3.875-4.5312-3.875-12.438 0-7.8594 3.875-12.438 3.8906-4.5625 10.531-4.5625t10.516 4.5625q3.875 4.5781 3.875 12.438 0 7.9062-3.875 12.438-3.875 4.5469-10.516 4.5469zm19.578 30.922v-8.9844q-3.7188 1.75-7.5 2.6719-3.7812 0.9375-7.5 0.9375-9.7656 0-14.922-6.5938-5.1406-6.5938-5.875-19.922 2.875 4.25 7.2188 6.5156 4.3594 2.2656 9.5781 2.2656 10.984 0 17.359-6.6719 6.375-6.6562 6.375-18.125 0-11.234-6.6406-18.031-6.6406-6.7812-17.672-6.7812-12.656 0-19.344 9.6875-6.6875 9.7031-6.6875 28.109 0 17.281 8.2031 27.562t22.016 10.281q3.7188 0 7.5-0.73438t7.8906-2.1875z"/>
</defs>
<g transform="translate(389.56 796.85) scale(.1 -.1)">
<use xlink:href="#c"/>
<use x="63.623047" xlink:href="#e"/>
<use x="95.410156" xlink:href="#ad"/>
</g>
</g>
<g clip-path="url(#a)">
<defs>
<path id="ac" d="m8.2031 72.906h46.875v-4.2031l-26.469-68.703h-10.297l24.906 64.594h-35.016z"/>
</defs>
<g transform="translate(577.48 548.25) scale(.1 -.1)">
<use xlink:href="#c"/>
<use x="63.623047" xlink:href="#e"/>
<use x="95.410156" xlink:href="#ac"/>
</g>
</g>
<g clip-path="url(#a)">
<defs>
<path id="ag" d="m31.781 34.625q-7.0312 0-11.062-3.7656-4.0156-3.7656-4.0156-10.344 0-6.5938 4.0156-10.359 4.0312-3.7656 11.062-3.7656t11.078 3.7812q4.0625 3.7969 4.0625 10.344 0 6.5781-4.0312 10.344-4.0156 3.7656-11.109 3.7656zm-9.8594 4.1875q-6.3438 1.5625-9.8906 5.9062-3.5312 4.3594-3.5312 10.609 0 8.7344 6.2188 13.812 6.2344 5.0781 17.062 5.0781 10.891 0 17.094-5.0781t6.2031-13.812q0-6.25-3.5469-10.609-3.5312-4.3438-9.8281-5.9062 7.125-1.6562 11.094-6.5 3.9844-4.8281 3.9844-11.797 0-10.609-6.4688-16.281-6.4688-5.6562-18.531-5.6562-12.047 0-18.531 5.6562-6.4688 5.6719-6.4688 16.281 0 6.9688 4 11.797 4.0156 4.8438 11.141 6.5zm-3.6094 15.578q0-5.6562 3.5312-8.8281 3.5469-3.1719 9.9375-3.1719 6.3594 0 9.9375 3.1719 3.5938 3.1719 3.5938 8.8281 0 5.6719-3.5938 8.8438-3.5781 3.1719-9.9375 3.1719-6.3906 0-9.9375-3.1719-3.5312-3.1719-3.5312-8.8438z"/>
</defs>
<g transform="translate(1026.2 172.22) scale(.1 -.1)">
<use xlink:href="#c"/>
<use x="63.623047" xlink:href="#e"/>
<use x="95.410156" xlink:href="#ag"/>
</g>
</g>
<g clip-path="url(#a)">
<g transform="translate(894.95 796.85) scale(.1 -.1)">
<use xlink:href="#c"/>
<use x="63.623047" xlink:href="#e"/>
<use x="95.410156" xlink:href="#c"/>
<use x="159.033203" xlink:href="#m"/>
</g>
</g>
<g clip-path="url(#a)">
<g transform="translate(958.82 796.85) scale(.1 -.1)">
<use xlink:href="#c"/>
<use x="63.623047" xlink:href="#e"/>
<use x="95.410156" xlink:href="#c"/>
<use x="159.033203" xlink:href="#p"/>
</g>
</g>
<g clip-path="url(#a)">
<g transform="translate(1025.1 796.85) scale(.1 -.1)">
<use xlink:href="#c"/>
<use x="63.623047" xlink:href="#e"/>
<use x="95.410156" xlink:href="#c"/>
<use x="159.033203" xlink:href="#ad"/>
</g>
</g>
<g clip-path="url(#a)">
<g transform="translate(1213.3 297.84) scale(.1 -.1)">
<use xlink:href="#c"/>
<use x="63.623047" xlink:href="#e"/>
<use x="95.410156" xlink:href="#c"/>
<use x="159.033203" xlink:href="#ac"/>
</g>
</g>
<g clip-path="url(#a)">
<g transform="translate(1093.7 796.85) scale(.1 -.1)">
<use xlink:href="#c"/>
<use x="63.623047" xlink:href="#e"/>
<use x="95.410156" xlink:href="#c"/>
<use x="159.033203" xlink:href="#ag"/>
</g>
</g>
<g clip-path="url(#a)">
<defs>
<path id="aj" d="m10.984 1.5156v8.9844q3.7188-1.7656 7.5156-2.6875 3.8125-0.92188 7.4844-0.92188 9.7656 0 14.906 6.5625 5.1562 6.5625 5.8906 19.953-2.8281-4.2031-7.1875-6.4531-4.3438-2.25-9.6094-2.25-10.938 0-17.312 6.6094-6.375 6.625-6.375 18.109 0 11.219 6.6406 18 6.6406 6.7969 17.672 6.7969 12.656 0 19.312-9.7031 6.6719-9.6875 6.6719-28.141 0-17.234-8.1875-27.516-8.1719-10.281-21.984-10.281-3.7188 0-7.5312 0.73438-3.7969 0.73438-7.9062 2.2031zm19.625 30.906q6.6406 0 10.516 4.5312 3.8906 4.5469 3.8906 12.469 0 7.8594-3.8906 12.422-3.875 4.5625-10.516 4.5625t-10.516-4.5625-3.875-12.422q0-7.9219 3.875-12.469 3.875-4.5312 10.516-4.5312z"/>
</defs>
<g transform="translate(1164.6 796.85) scale(.1 -.1)">
<use xlink:href="#c"/>
<use x="63.623047" xlink:href="#e"/>
<use x="95.410156" xlink:href="#c"/>
<use x="159.033203" xlink:href="#aj"/>
</g>
</g>
<g clip-path="url(#a)">
<defs>
<path id="ak" d="m31.781 66.406q-7.6094 0-11.453-7.5-3.8281-7.4844-3.8281-22.531 0-14.984 3.8281-22.484 3.8438-7.5 11.453-7.5 7.6719 0 11.5 7.5 3.8438 7.5 3.8438 22.484 0 15.047-3.8438 22.531-3.8281 7.5-11.5 7.5zm0 7.8125q12.266 0 18.734-9.7031 6.4688-9.6875 6.4688-28.141 0-18.406-6.4688-28.109-6.4688-9.6875-18.734-9.6875-12.25 0-18.719 9.6875-6.4688 9.7031-6.4688 28.109 0 18.453 6.4688 28.141 6.4688 9.7031 18.719 9.7031z"/>
</defs>
<g transform="translate(1237.9 796.85) scale(.1 -.1)">
<use xlink:href="#c"/>
<use x="63.623047" xlink:href="#e"/>
<use x="95.410156" xlink:href="#q"/>
<use x="159.033203" xlink:href="#ak"/>
</g>
</g>
<g clip-path="url(#a)">
<g transform="translate(1357.2 423.2) scale(.1 -.1)">
<use xlink:href="#c"/>
<use x="63.623047" xlink:href="#e"/>
<use x="95.410156" xlink:href="#q"/>
<use x="159.033203" xlink:href="#c"/>
</g>
</g>
<g clip-path="url(#a)">
<g transform="translate(1313.6 796.85) scale(.1 -.1)">
<use xlink:href="#c"/>
<use x="63.623047" xlink:href="#e"/>
<use x="95.410156" xlink:href="#q"/>
<use x="159.033203" xlink:href="#q"/>
</g>
</g>
<g clip-path="url(#a)">
<g transform="translate(1520 548.25) scale(.1 -.1)">
<use xlink:href="#c"/>
<use x="63.623047" xlink:href="#e"/>
<use x="95.410156" xlink:href="#q"/>
<use x="159.033203" xlink:href="#n"/>
</g>
</g>
<g clip-path="url(#a)">
<g transform="translate(1391.7 796.85) scale(.1 -.1)">
<use xlink:href="#c"/>
<use x="63.623047" xlink:href="#e"/>
<use x="95.410156" xlink:href="#q"/>
<use x="159.033203" xlink:href="#p"/>
</g>
</g>
<g clip-path="url(#a)">
<g transform="translate(1613.3 672.88) scale(.1 -.1)">
<use xlink:href="#c"/>
<use x="63.623047" xlink:href="#e"/>
<use x="95.410156" xlink:href="#q"/>
<use x="159.033203" xlink:href="#ad"/>
</g>
</g>
<g clip-path="url(#a)">
<g transform="translate(1554.9 796.85) scale(.1 -.1)">
<use xlink:href="#c"/>
<use x="63.623047" xlink:href="#e"/>
<use x="95.410156" xlink:href="#q"/>
<use x="159.033203" xlink:href="#ac"/>
</g>
</g>
<g clip-path="url(#a)">
<g transform="translate(1472.1 796.85) scale(.1 -.1)">
<use xlink:href="#c"/>
<use x="63.623047" xlink:href="#e"/>
<use x="95.410156" xlink:href="#q"/>
<use x="159.033203" xlink:href="#ag"/>
</g>
</g>
<g clip-path="url(#a)">
<g transform="translate(1640.1 796.85) scale(.1 -.1)">
<use xlink:href="#c"/>
<use x="63.623047" xlink:href="#e"/>
<use x="95.410156" xlink:href="#q"/>
<use x="159.033203" xlink:href="#aj"/>
</g>
</g>
<g clip-path="url(#a)">
<g transform="translate(469.96 672.88) scale(.1 -.1)">
<use xlink:href="#c"/>
<use x="63.623047" xlink:href="#e"/>
<use x="95.410156" xlink:href="#n"/>
<use x="159.033203" xlink:href="#ak"/>
</g>
</g>
<g clip-path="url(#a)">
<g transform="translate(561.42 796.85) scale(.1 -.1)">
<use xlink:href="#c"/>
<use x="63.623047" xlink:href="#e"/>
<use x="95.410156" xlink:href="#n"/>
<use x="159.033203" xlink:href="#c"/>
</g>
</g>
<g clip-path="url(#a)">
<g transform="translate(691.52 672.88) scale(.1 -.1)">
<use xlink:href="#c"/>
<use x="63.623047" xlink:href="#e"/>
<use x="95.410156" xlink:href="#n"/>
<use x="159.033203" xlink:href="#q"/>
</g>
</g>
<g clip-path="url(#a)">
<g transform="translate(611.1 796.85) scale(.1 -.1)">
<use xlink:href="#c"/>
<use x="63.623047" xlink:href="#e"/>
<use x="95.410156" xlink:href="#n"/>
<use x="159.033203" xlink:href="#n"/>
</g>
</g>
<g clip-path="url(#a)">
<g transform="translate(663.14 796.85) scale(.1 -.1)">
<use xlink:href="#c"/>
<use x="63.623047" xlink:href="#e"/>
<use x="95.410156" xlink:href="#n"/>
<use x="159.033203" xlink:href="#m"/>
</g>
</g>
<g clip-path="url(#a)">
<g transform="translate(717.54 796.85) scale(.1 -.1)">
<use xlink:href="#c"/>
<use x="63.623047" xlink:href="#e"/>
<use x="95.410156" xlink:href="#n"/>
<use x="159.033203" xlink:href="#p"/>
</g>
</g>
<g clip-path="url(#a)">
<g transform="translate(774.32 796.85) scale(.1 -.1)">
<use xlink:href="#c"/>
<use x="63.623047" xlink:href="#e"/>
<use x="95.410156" xlink:href="#n"/>
<use x="159.033203" xlink:href="#ad"/>
</g>
</g>
<g clip-path="url(#a)">
<g transform="translate(426.59 796.85) scale(.1 -.1)">
<use xlink:href="#c"/>
<use x="63.623047" xlink:href="#e"/>
<use x="95.410156" xlink:href="#n"/>
<use x="159.033203" xlink:href="#ac"/>
</g>
</g>
<g clip-path="url(#a)">
<g transform="translate(469.17 796.85) scale(.1 -.1)">
<use xlink:href="#c"/>
<use x="63.623047" xlink:href="#e"/>
<use x="95.410156" xlink:href="#n"/>
<use x="159.033203" xlink:href="#ag"/>
</g>
</g>
<g clip-path="url(#a)">
<g transform="translate(514.12 796.85) scale(.1 -.1)">
<use xlink:href="#c"/>
<use x="63.623047" xlink:href="#e"/>
<use x="95.410156" xlink:href="#n"/>
<use x="159.033203" xlink:href="#aj"/>
</g>
</g>
<g clip-path="url(#a)">
<g transform="translate(171.13 796.85) scale(.1 -.1)">
<use xlink:href="#c"/>
<use x="63.623047" xlink:href="#e"/>
<use x="95.410156" xlink:href="#m"/>
<use x="159.033203" xlink:href="#ak"/>
</g>
</g>
<g clip-path="url(#a)">
<g transform="translate(194.78 796.85) scale(.1 -.1)">
<use xlink:href="#c"/>
<use x="63.623047" xlink:href="#e"/>
<use x="95.410156" xlink:href="#m"/>
<use x="159.033203" xlink:href="#c"/>
</g>
</g>
<g clip-path="url(#a)">
<g transform="translate(250.37 672.88) scale(.1 -.1)">
<use xlink:href="#c"/>
<use x="63.623047" xlink:href="#e"/>
<use x="95.410156" xlink:href="#m"/>
<use x="159.033203" xlink:href="#q"/>
</g>
</g>
<g clip-path="url(#a)">
<g transform="translate(249.19 796.85) scale(.1 -.1)">
<use xlink:href="#c"/>
<use x="63.623047" xlink:href="#e"/>
<use x="95.410156" xlink:href="#m"/>
<use x="159.033203" xlink:href="#n"/>
</g>
</g>
<g clip-path="url(#a)">
<g transform="translate(220.8 796.85) scale(.1 -.1)">
<use xlink:href="#c"/>
<use x="63.623047" xlink:href="#e"/>
<use x="95.410156" xlink:href="#m"/>
<use x="159.033203" xlink:href="#m"/>
</g>
</g>
<g clip-path="url(#a)">
<g transform="translate(279.94 796.85) scale(.1 -.1)">
<use xlink:href="#c"/>
<use x="63.623047" xlink:href="#e"/>
<use x="95.410156" xlink:href="#m"/>
<use x="159.033203" xlink:href="#p"/>
</g>
</g>
<g clip-path="url(#a)">
<g transform="translate(100.16 796.85) scale(.1 -.1)">
<use xlink:href="#c"/>
<use x="63.623047" xlink:href="#e"/>
<use x="95.410156" xlink:href="#m"/>
<use x="159.033203" xlink:href="#ad"/>
</g>
</g>
<g clip-path="url(#a)">
<g transform="translate(122.63 672.88) scale(.1 -.1)">
<use xlink:href="#c"/>
<use x="63.623047" xlink:href="#e"/>
<use x="95.410156" xlink:href="#m"/>
<use x="159.033203" xlink:href="#ac"/>
</g>
</g>
<g clip-path="url(#a)">
<g transform="translate(114.35 796.85) scale(.1 -.1)">
<use xlink:href="#c"/>
<use x="63.623047" xlink:href="#e"/>
<use x="95.410156" xlink:href="#m"/>
<use x="159.033203" xlink:href="#ag"/>
</g>
</g>
<g clip-path="url(#a)">
<g transform="translate(130.91 796.85) scale(.1 -.1)">
<use xlink:href="#c"/>
<use x="63.623047" xlink:href="#e"/>
<use x="95.410156" xlink:href="#m"/>
<use x="159.033203" xlink:href="#aj"/>
</g>
</g>
<g clip-path="url(#a)">
<g transform="translate(480.34 423.2) scale(.1 -.1)">
<use xlink:href="#c"/>
<use x="63.623047" xlink:href="#e"/>
<use x="95.410156" xlink:href="#p"/>
<use x="159.033203" xlink:href="#ak"/>
</g>
</g>
<g clip-path="url(#a)">
<g transform="translate(461.42 423.2) scale(.1 -.1)">
<use xlink:href="#c"/>
<use x="63.623047" xlink:href="#e"/>
<use x="95.410156" xlink:href="#p"/>
<use x="159.033203" xlink:href="#c"/>
</g>
</g>
<g clip-path="url(#a)">
<g transform="translate(93.361 423.2) scale(.1 -.1)">
<use xlink:href="#c"/>
<use x="63.623047" xlink:href="#e"/>
<use x="95.410156" xlink:href="#p"/>
<use x="159.033203" xlink:href="#q"/>
</g>
</g>
<g clip-path="url(#a)">
<g transform="translate(88.334 796.85) scale(.1 -.1)">
<use xlink:href="#c"/>
<use x="63.623047" xlink:href="#e"/>
<use x="95.410156" xlink:href="#p"/>
<use x="159.033203" xlink:href="#n"/>
</g>
</g>
<g clip-path="url(#a)">
<g transform="translate(149.84 796.85) scale(.1 -.1)">
<use xlink:href="#c"/>
<use x="63.623047" xlink:href="#e"/>
<use x="95.410156" xlink:href="#p"/>
<use x="159.033203" xlink:href="#m"/>
</g>
</g>
<g clip-path="url(#a)">
<g transform="translate(313.05 796.85) scale(.1 -.1)">
<use xlink:href="#c"/>
<use x="63.623047" xlink:href="#e"/>
<use x="95.410156" xlink:href="#p"/>
<use x="159.033203" xlink:href="#p"/>
</g>
</g>
<g clip-path="url(#a)">
<g transform="translate(833.45 796.85) scale(.1 -.1)">
<use xlink:href="#c"/>
<use x="63.623047" xlink:href="#e"/>
<use x="95.410156" xlink:href="#p"/>
<use x="159.033203" xlink:href="#ad"/>
</g>
</g>
<g clip-path="url(#a)">
<g transform="translate(1727.6 796.85) scale(.1 -.1)">
<use xlink:href="#c"/>
<use x="63.623047" xlink:href="#e"/>
<use x="95.410156" xlink:href="#p"/>
<use x="159.033203" xlink:href="#ac"/>
</g>
</g>
<defs>
<clipPath id="a">
<rect width="1824" height="960"/>
</clipPath>
</defs>
</svg>
