<?xml version="1.0" encoding="UTF-8"?>
<!DOCTYPE svg  PUBLIC '-//W3C//DTD SVG 1.1//EN'  'http://www.w3.org/Graphics/SVG/1.1/DTD/svg11.dtd'>
<svg width="1874.7pt" height="986.67pt" version="1.1" viewBox="0 0 1874.7 986.67" xmlns="http://www.w3.org/2000/svg" xmlns:xlink="http://www.w3.org/1999/xlink">
<defs>
<style type="text/css">*{stroke-linecap:butt;stroke-linejoin:round;white-space:pre;}</style>
</defs>
<path d="m0 986.67h1874.7v-986.67h-1874.7z" fill="#fff"/>
<g fill="none" stroke="#000">
<path d="m426.02 45.763-316.99 605.84" clip-path="url(#a)"/>
<path d="m426.02 45.763 562.98 156.79" clip-path="url(#a)"/>
<path d="m426.02 45.763-245.99 750.49" clip-path="url(#a)"/>
<path d="m109.04 651.6-23.666 144.65" clip-path="url(#a)"/>
<path d="m109.04 651.6 23.666 144.65" clip-path="url(#a)"/>
<path d="m989 202.55-702.47 302.38" clip-path="url(#a)"/>
<path d="m989 202.55-313.96 152.9" clip-path="url(#a)"/>
<path d="m989 202.55 232.32 593.7" clip-path="url(#a)"/>
<path d="m989 202.55 334.88 302.38" clip-path="url(#a)"/>
<path d="m989 202.55 651.55 302.38" clip-path="url(#a)"/>
<path d="m989 202.55-524.98 593.7" clip-path="url(#a)"/>
<path d="m989 202.55 137.66 593.7" clip-path="url(#a)"/>
<path d="m989 202.55 184.99 593.7" clip-path="url(#a)"/>
<path d="m286.53 504.93-59.164 291.32" clip-path="url(#a)"/>
<path d="m286.53 504.93 59.164 146.66" clip-path="url(#a)"/>
<path d="m675.04 355.44-140.02 296.15" clip-path="url(#a)"/>
<path d="m675.04 355.44-45.359 440.81" clip-path="url(#a)"/>
<path d="m675.04 355.44 159.74 149.49" clip-path="url(#a)"/>
<path d="m675.04 355.44 25.638 440.81" clip-path="url(#a)"/>
<path d="m1221.3 796.25v144.65" clip-path="url(#a)"/>
<path d="m1323.9 504.93-55.22 291.32" clip-path="url(#a)"/>
<path d="m1323.9 504.93 15.777 146.66" clip-path="url(#a)"/>
<path d="m1323.9 504.93 39.443 291.32" clip-path="url(#a)"/>
<path d="m1640.5 504.93-182.56 146.66" clip-path="url(#a)"/>
<path d="m1640.5 504.93-87.901 291.32" clip-path="url(#a)"/>
<path d="m1640.5 504.93-40.57 291.32" clip-path="url(#a)"/>
<path d="m1640.5 504.93 6.7616 291.32" clip-path="url(#a)"/>
<path d="m1640.5 504.93 54.093 291.32" clip-path="url(#a)"/>
<path d="m1640.5 504.93 101.42 291.32" clip-path="url(#a)"/>
<path d="m1640.5 504.93 148.76 291.32" clip-path="url(#a)"/>
<path d="m1458 651.6-47.331 144.65" clip-path="url(#a)"/>
<path d="m1458 651.6v144.65" clip-path="url(#a)"/>
<path d="m1458 651.6 47.331 144.65" clip-path="url(#a)"/>
<path d="m1552.6 796.25v144.65" clip-path="url(#a)"/>
<path d="m1600 796.25v144.65" clip-path="url(#a)"/>
<path d="m1647.3 796.25v144.65" clip-path="url(#a)"/>
<path d="m1694.6 796.25v144.65" clip-path="url(#a)"/>
<path d="m1742 796.25v144.65" clip-path="url(#a)"/>
<path d="m1410.6 796.25v144.65" clip-path="url(#a)"/>
<path d="m1458 796.25v144.65" clip-path="url(#a)"/>
<path d="m1505.3 796.25v144.65" clip-path="url(#a)"/>
<path d="m1268.7 796.25v144.65" clip-path="url(#a)"/>
<path d="m1339.6 651.6 23.666 144.65" clip-path="url(#a)" stroke-dasharray="3.7,1.6"/>
<path d="m1339.6 651.6-23.666 144.65" clip-path="url(#a)"/>
<path d="m1363.3 796.25v144.65" clip-path="url(#a)"/>
<path d="m1316 796.25v144.65" clip-path="url(#a)"/>
<path d="m535.02 651.6-23.666 144.65" clip-path="url(#a)"/>
<path d="m535.02 651.6 23.666 144.65" clip-path="url(#a)"/>
<path d="m629.68 796.25-23.666 144.65" clip-path="url(#a)"/>
<path d="m629.68 796.25 23.666 144.65" clip-path="url(#a)"/>
<path d="m834.78 504.93-86.774 291.32" clip-path="url(#a)"/>
<path d="m834.78 504.93-39.443 291.32" clip-path="url(#a)"/>
<path d="m834.78 504.93 126.22 146.66" clip-path="url(#a)"/>
<path d="m748.01 796.25v144.65" clip-path="url(#a)"/>
<path d="m795.34 796.25v144.65" clip-path="url(#a)"/>
<path d="m961 651.6-118.33 289.31" clip-path="url(#a)"/>
<path d="m961 651.6-23.666 289.31" clip-path="url(#a)"/>
<path d="m961 651.6 23.666 289.31" clip-path="url(#a)"/>
<path d="m961 651.6 70.997 289.31" clip-path="url(#a)"/>
<path d="m961 651.6 118.33 289.31" clip-path="url(#a)"/>
<path d="m961 651.6-70.997 144.65" clip-path="url(#a)"/>
<path d="m511.35 796.25v144.65" clip-path="url(#a)"/>
<path d="m558.68 796.25v144.65" clip-path="url(#a)"/>
<path d="m227.36 796.25v144.65" clip-path="url(#a)"/>
<path d="m345.69 651.6-70.997 289.31" clip-path="url(#a)"/>
<path d="m345.69 651.6-23.666 289.31" clip-path="url(#a)"/>
<path d="m345.69 651.6 70.997 289.31" clip-path="url(#a)"/>
<path d="m345.69 651.6 23.666 144.65" clip-path="url(#a)"/>
<path d="m180.03 796.25v144.65" clip-path="url(#a)"/>
<path d="m85.37 796.25v144.65" clip-path="url(#a)"/>
<path d="m132.7 796.25v144.65" clip-path="url(#a)"/>
<path d="m549.02 45.763-439.98 605.84" clip-path="url(#a)"/>
<path d="m549.02 45.763 439.98 156.79" clip-path="url(#a)"/>
<path d="m369.36 796.25v144.65" clip-path="url(#a)"/>
<path d="m464.02 796.25v144.65" clip-path="url(#a)"/>
<path d="m700.68 796.25v144.65" clip-path="url(#a)"/>
<path d="m890 796.25v144.65" clip-path="url(#a)"/>
<path d="m1126.7 796.25v144.65" clip-path="url(#a)"/>
<path d="m1174 796.25v144.65" clip-path="url(#a)"/>
<path d="m1789.3 796.25v144.65" clip-path="url(#a)"/>
</g>
<path d="m272.05 353.56 2.0665-3.9496q1.1126-2.1265-1.0139-3.2391l-6.8602-3.5894q-2.1265-1.1126-3.2391 1.0139l-2.0665 3.9495q-1.1126 2.1265 1.0139 3.2391l6.8602 3.5894q2.1265 1.1126 3.2391-1.0139z" clip-path="url(#a)" fill="#fff" stroke="#fff"/>
<g clip-path="url(#a)">
<defs>
<path id="ak" d="m9.8125 72.906h9.8594v-64.609h35.5v-8.2969h-45.359z"/>
</defs>
<g transform="translate(268.45 351.68) rotate(-62.381) scale(.08 -.08)">
<use xlink:href="#ak"/>
</g>
</g>
<path d="m702.93 129.39 5.7957 1.6141q2.312 0.64389 2.9559-1.6681l2.0772-7.4587q0.64389-2.312-1.6681-2.9559l-5.7957-1.6141q-2.312-0.64389-2.9559 1.6681l-2.0772 7.4587q-0.64389 2.312 1.6681 2.9559z" clip-path="url(#a)" fill="#fff" stroke="#fff"/>
<g clip-path="url(#a)">
<defs>
<path id="am" d="m9.8125 72.906h9.8594v-29.891h35.844v29.891h9.8594v-72.906h-9.8594v34.719h-35.844v-34.719h-9.8594z"/>
</defs>
<g transform="translate(704.02 125.48) rotate(15.562) scale(.08 -.08)">
<use xlink:href="#am"/>
</g>
</g>
<path d="m308.07 425.74 1.8236-5.5638q0.74752-2.2806-1.5331-3.0281l-7.3574-2.4115q-2.2806-0.74752-3.0281 1.5331l-1.8236 5.5638q-0.74752 2.2806 1.5331 3.0281l7.3574 2.4115q2.2806 0.74752 3.0281-1.5331z" clip-path="url(#a)" fill="#fff" stroke="#fff"/>
<g clip-path="url(#a)">
<defs>
<path id="u" d="m8.6875 72.906h9.9219v-44.297q0-11.719 4.2344-16.875 4.25-5.1406 13.781-5.1406 9.4688 0 13.719 5.1406 4.25 5.1562 4.25 16.875v44.297h9.9062v-45.516q0-14.25-7.0625-21.531-7.0469-7.2812-20.812-7.2812-13.828 0-20.891 7.2812-7.0469 7.2812-7.0469 21.531z"/>
</defs>
<g transform="translate(304.21 424.48) rotate(-71.852) scale(.08 -.08)">
<use xlink:href="#u"/>
</g>
</g>
<path d="m102.94 727.68 0.8975-5.4858q0.3875-2.3685-1.981-2.756l-7.6409-1.2501q-2.3685-0.3875-2.756 1.981l-0.8975 5.4858q-0.3875 2.3685 1.981 2.756l7.6409 1.2501q2.3685 0.3875 2.756-1.981z" clip-path="url(#a)" fill="#fff" stroke="#fff"/>
<g clip-path="url(#a)">
<defs>
<path id="w" d="m44.391 34.188q3.1719-1.0781 6.1719-4.5938t6.0312-9.6719l10.016-19.922h-10.609l-9.3125 18.703q-3.625 7.3281-7.0156 9.7188t-9.25 2.3906h-10.75v-30.812h-9.8594v72.906h22.266q12.5 0 18.656-5.2344 6.1562-5.2188 6.1562-15.766 0-6.8906-3.2031-11.438-3.2031-4.5312-9.2969-6.2812zm-24.719 30.609v-25.875h12.406q7.125 0 10.766 3.2969t3.6406 9.6875-3.6406 9.6406-10.766 3.25z"/>
</defs>
<g transform="translate(98.932 727.02) rotate(-80.709) scale(.08 -.08)">
<use xlink:href="#w"/>
</g>
</g>
<path d="m114.23 722.18 0.90194 5.513q0.3875 2.3685 2.756 1.981l7.6409-1.2501q2.3685-0.3875 1.981-2.756l-0.90194-5.513q-0.3875-2.3685-2.756-1.981l-7.6409 1.2501q-2.3685 0.3875-1.981 2.756z" clip-path="url(#a)" fill="#fff" stroke="#fff"/>
<g clip-path="url(#a)">
<defs>
<path id="t" d="m64.406 67.281v-10.391q-4.9844 4.6406-10.625 6.9219-5.6406 2.2969-11.984 2.2969-12.5 0-19.141-7.6406t-6.6406-22.094q0-14.406 6.6406-22.047t19.141-7.6406q6.3438 0 11.984 2.2969t10.625 6.9375v-10.312q-5.1719-3.5156-10.969-5.2812-5.7812-1.75-12.219-1.75-16.562 0-26.094 10.125-9.5156 10.141-9.5156 27.672 0 17.578 9.5156 27.703 9.5312 10.141 26.094 10.141 6.5312 0 12.312-1.7344 5.7969-1.7344 10.875-5.2031z"/>
</defs>
<g transform="translate(118.24 721.53) rotate(80.709) scale(.08 -.08)">
<use xlink:href="#t"/>
</g>
</g>
<path d="m638 360.47 4.4881-1.9319q2.2044-0.94892 1.2555-3.1534l-3.0613-7.1116q-0.94892-2.2044-3.1534-1.2555l-4.4881 1.9319q-2.2044 0.94892-1.2555 3.1534l3.0613 7.1116q0.94892 2.2044 3.1534 1.2555z" clip-path="url(#a)" fill="#fff" stroke="#fff"/>
<g clip-path="url(#a)">
<defs>
<path id="l" d="m-0.29688 72.906h61.672v-8.3125h-25.875v-64.594h-9.9062v64.594h-25.891z"/>
</defs>
<g transform="translate(636.39 356.74) rotate(-23.29) scale(.08 -.08)">
<use xlink:href="#l"/>
</g>
</g>
<path d="m832.3 285.83 4.9201-2.396q2.1577-1.0508 1.1069-3.2085l-3.3899-6.9609q-1.0508-2.1577-3.2085-1.1069l-4.9201 2.396q-2.1577 1.0508-1.1069 3.2085l3.3899 6.9609q1.0508 2.1577 3.2085 1.1069z" clip-path="url(#a)" fill="#fff" stroke="#fff"/>
<g clip-path="url(#a)">
<defs>
<path id="x" d="m34.188 63.188-13.391-36.281h26.812zm-5.5781 9.7188h11.188l27.781-72.906h-10.25l-6.6406 18.703h-32.859l-6.6406-18.703h-10.406z"/>
</defs>
<g transform="translate(830.52 282.18) rotate(-25.966) scale(.08 -.08)">
<use xlink:href="#x"/>
</g>
</g>
<path d="m1098.4 499.44 1.7578 4.4921q0.87458 2.235 3.1096 1.3604l7.2101-2.8214q2.235-0.87458 1.3604-3.1096l-1.7578-4.4921q-0.87458-2.235-3.1096-1.3604l-7.2101 2.8214q-2.235 0.87458-1.3604 3.1096z" clip-path="url(#a)" fill="#fff" stroke="#fff"/>
<g clip-path="url(#a)">
<defs>
<path id="al" d="m19.672 64.797v-27.391h12.406q6.8906 0 10.641 3.5625 3.7656 3.5625 3.7656 10.156 0 6.5469-3.7656 10.109-3.75 3.5625-10.641 3.5625zm-9.8594 8.1094h22.266q12.266 0 18.531-5.5469 6.2812-5.5469 6.2812-16.234 0-10.797-6.2812-16.312-6.2656-5.5156-18.531-5.5156h-12.406v-29.297h-9.8594z"/>
</defs>
<g transform="translate(1102.2 497.96) rotate(68.629) scale(.08 -.08)">
<use xlink:href="#al"/>
</g>
</g>
<path d="m1150.2 356.56 4.0617 3.6676q1.7813 1.6084 3.3897-0.17283l5.1889-5.7465q1.6084-1.7813-0.17283-3.3897l-4.0617-3.6676q-1.7813-1.6084-3.3897 0.17283l-5.1889 5.7465q-1.6084 1.7813 0.17283 3.3897z" clip-path="url(#a)" fill="#fff" stroke="#fff"/>
<g clip-path="url(#a)">
<g transform="translate(1152.9 353.55) rotate(42.081) scale(.08 -.08)">
<use xlink:href="#x"/>
</g>
</g>
<path d="m1309.6 358.28 4.964 2.3038q2.177 1.0103 3.1873-1.1666l3.2594-7.023q1.0103-2.177-1.1666-3.1873l-4.964-2.3038q-2.177-1.0103-3.1873 1.1666l-3.2594 7.023q-1.0103 2.177 1.1666 3.1873z" clip-path="url(#a)" fill="#fff" stroke="#fff"/>
<g clip-path="url(#a)">
<g transform="translate(1311.4 354.59) rotate(24.896) scale(.08 -.08)">
<use xlink:href="#x"/>
</g>
</g>
<path d="m729.27 505.75 3.8785-4.3862q1.5898-1.7979-0.20812-3.3877l-5.8002-5.1288q-1.7979-1.5898-3.3877 0.20812l-3.8785 4.3862q-1.5898 1.7979 0.20812 3.3877l5.8002 5.1288q1.7979 1.5898 3.3877-0.20812z" clip-path="url(#a)" fill="#fff" stroke="#fff"/>
<g clip-path="url(#a)">
<g transform="translate(726.22 503.06) rotate(-48.516) scale(.08 -.08)">
<use xlink:href="#u"/>
</g>
</g>
<path d="m1051.1 497.97 1.3225 5.7037q0.54211 2.338 2.8801 1.7959l7.5424-1.7489q2.338-0.54211 1.7959-2.8801l-1.3225-5.7037q-0.54211-2.338-2.8801-1.7959l-7.5424 1.7489q-2.338 0.54211-1.7959 2.8801z" clip-path="url(#a)" fill="#fff" stroke="#fff"/>
<g clip-path="url(#a)">
<g transform="translate(1055 497.05) rotate(76.945) scale(.08 -.08)">
<use xlink:href="#u"/>
</g>
</g>
<path d="m1074.6 498.47 1.7418 5.5899q0.71397 2.2913 3.0053 1.5774l7.392-2.3033q2.2913-0.71397 1.5774-3.0053l-1.7418-5.5899q-0.71397-2.2913-3.0053-1.5774l-7.392 2.3033q-2.2913 0.71397-1.5774 3.0053z" clip-path="url(#a)" fill="#fff" stroke="#fff"/>
<g clip-path="url(#a)">
<g transform="translate(1078.5 497.26) rotate(72.693) scale(.08 -.08)">
<use xlink:href="#u"/>
</g>
</g>
<path d="m262.54 654.56 1.1064-5.4475q0.47767-2.352-1.8743-2.8297l-7.5876-1.541q-2.352-0.47767-2.8297 1.8743l-1.1064 5.4475q-0.47767 2.352 1.8743 2.8297l7.5876 1.541q2.352 0.47767 2.8297-1.8743z" clip-path="url(#a)" fill="#fff" stroke="#fff"/>
<g clip-path="url(#a)">
<g transform="translate(258.56 653.76) rotate(-78.52) scale(.08 -.08)">
<use xlink:href="#w"/>
</g>
</g>
<path d="m309.25 578.02 2.0898 5.1806q0.89785 2.2257 3.1236 1.3279l7.1803-2.8965q2.2257-0.89785 1.3279-3.1236l-2.0898-5.1806q-0.89785-2.2257-3.1236-1.3279l-7.1803 2.8965q-2.2257 0.89785-1.3279 3.1236z" clip-path="url(#a)" fill="#fff" stroke="#fff"/>
<g clip-path="url(#a)">
<g transform="translate(313.02 576.5) rotate(68.031) scale(.08 -.08)">
<use xlink:href="#t"/>
</g>
</g>
<path d="m609.62 508.49 2.1607-4.57q1.0258-2.1697-1.1439-3.1956l-6.9996-3.3094q-2.1697-1.0258-3.1956 1.1439l-2.1607 4.57q-1.0258 2.1697 1.1439 3.1956l6.9996 3.3094q2.1697 1.0258 3.1956-1.1439z" clip-path="url(#a)" fill="#fff" stroke="#fff"/>
<g clip-path="url(#a)">
<defs>
<path id="s" d="m9.8125 72.906h46.094v-8.3125h-36.234v-21.578h34.719v-8.2969h-34.719v-26.422h37.109v-8.2969h-46.969z"/>
</defs>
<g transform="translate(605.94 506.75) rotate(-64.695) scale(.08 -.08)">
<use xlink:href="#s"/>
</g>
</g>
<path d="m658.31 579.27 0.57181-5.5569q0.24566-2.3874-2.1417-2.6331l-7.7018-0.79252q-2.3874-0.24566-2.6331 2.1417l-0.57181 5.5569q-0.24566 2.3874 2.1417 2.6331l7.7018 0.79252q2.3874 0.24566 2.6331-2.1417z" clip-path="url(#a)" fill="#fff" stroke="#fff"/>
<g clip-path="url(#a)">
<g transform="translate(654.27 578.85) rotate(-84.125) scale(.08 -.08)">
<use xlink:href="#t"/>
</g>
</g>
<path d="m748.78 433.04 3.6909 3.454q1.7524 1.6399 3.3922-0.11249l5.2903-5.6532q1.6399-1.7524-0.11249-3.3922l-3.6909-3.454q-1.7524-1.6399-3.3922 0.11249l-5.2903 5.6532q-1.6399 1.7524 0.11249 3.3922z" clip-path="url(#a)" fill="#fff" stroke="#fff"/>
<g clip-path="url(#a)">
<g transform="translate(751.56 430.07) rotate(43.101) scale(.08 -.08)">
<use xlink:href="#s"/>
</g>
</g>
<path d="m681.43 573.29 0.33996 5.8451q0.13935 2.396 2.5353 2.2566l7.7294-0.44955q2.396-0.13935 2.2566-2.5353l-0.33996-5.8451q-0.13935-2.396-2.5353-2.2566l-7.7294 0.44955q-2.396 0.13935-2.2566 2.5353z" clip-path="url(#a)" fill="#fff" stroke="#fff"/>
<g clip-path="url(#a)">
<g transform="translate(685.48 573.05) rotate(86.671) scale(.08 -.08)">
<use xlink:href="#u"/>
</g>
</g>
<path d="m1215.1 850.94v35.285q0 2.4 2.4 2.4h7.7425q2.4 0 2.4-2.4v-35.285q0-2.4-2.4-2.4h-7.7425q-2.4 0-2.4 2.4z" clip-path="url(#a)" fill="#fff" stroke="#fff"/>
<g clip-path="url(#a)">
<defs>
<path id="c" d="m56.203 29.594v-4.3906h-41.312q0.59375-9.2812 5.5938-14.141t13.938-4.8594q5.1719 0 10.031 1.2656t9.6562 3.8125v-8.5q-4.8438-2.0469-9.9219-3.125t-10.297-1.0781q-13.094 0-20.734 7.6094-7.6406 7.625-7.6406 20.625 0 13.422 7.25 21.297 7.25 7.8906 19.562 7.8906 11.031 0 17.453-7.1094 6.4219-7.0938 6.4219-19.297zm-8.9844 2.6406q-0.09375 7.3594-4.125 11.75-4.0312 4.4062-10.672 4.4062-7.5156 0-12.031-4.25t-5.2031-11.969z"/>
<path id="g" d="m41.109 46.297q-1.5156 0.875-3.2969 1.2812-1.7812 0.42188-3.9219 0.42188-7.625 0-11.703-4.9531t-4.0781-14.234v-28.812h-9.0312v54.688h9.0312v-8.5q2.8438 4.9844 7.375 7.3906 4.5469 2.4219 11.047 2.4219 0.92188 0 2.0469-0.125 1.125-0.10938 2.4844-0.35938z"/>
<path id="j" d="m52 44.188q3.375 6.0625 8.0625 8.9375t11.031 2.875q8.5469 0 13.188-5.9844 4.6406-5.9688 4.6406-17v-33.016h-9.0312v32.719q0 7.8594-2.7969 11.656-2.7812 3.8125-8.4844 3.8125-6.9844 0-11.047-4.6406-4.0469-4.625-4.0469-12.641v-30.906h-9.0312v32.719q0 7.9062-2.7812 11.688t-8.5938 3.7812q-6.8906 0-10.953-4.6562-4.0469-4.6562-4.0469-12.625v-30.906h-9.0312v54.688h9.0312v-8.5q3.0781 5.0312 7.375 7.4219t10.203 2.3906q5.9688 0 10.141-3.0312 4.1719-3.0156 6.1719-8.7812z"/>
<path id="h" d="m9.4219 54.688h8.9844v-54.688h-8.9844zm0 21.297h8.9844v-11.391h-8.9844z"/>
<path id="e" d="m54.891 33.016v-33.016h-8.9844v32.719q0 7.7656-3.0312 11.609-3.0312 3.8594-9.0781 3.8594-7.2812 0-11.484-4.6406-4.2031-4.625-4.2031-12.641v-30.906h-9.0312v54.688h9.0312v-8.5q3.2344 4.9375 7.5938 7.375 4.375 2.4375 10.094 2.4375 9.4219 0 14.25-5.8281 4.8438-5.8281 4.8438-17.156z"/>
<path id="f" d="m34.281 27.484q-10.891 0-15.094-2.4844t-4.2031-8.5q0-4.7812 3.1562-7.5938 3.1562-2.7969 8.5625-2.7969 7.4844 0 12 5.2969t4.5156 14.078v2zm17.922 3.7188v-31.203h-8.9844v8.2969q-3.0781-4.9688-7.6719-7.3438t-11.234-2.375q-8.3906 0-13.359 4.7188-4.9531 4.7188-4.9531 12.625 0 9.2188 6.1719 13.906 6.1875 4.6875 18.438 4.6875h12.609v0.89062q0 6.2031-4.0781 9.5938t-11.453 3.3906q-4.6875 0-9.1406-1.125-4.4375-1.125-8.5312-3.375v8.3125q4.9219 1.9062 9.5625 2.8438 4.6406 0.95312 9.0312 0.95312 11.875 0 17.734-6.1562 5.8594-6.1406 5.8594-18.641z"/>
<path id="k" d="m9.4219 75.984h8.9844v-75.984h-8.9844z"/>
</defs>
<g transform="translate(1219.1 850.94) rotate(90) scale(.08 -.08)">
<use xlink:href="#l"/>
<use x="60.818359" xlink:href="#c"/>
<use x="122.341797" xlink:href="#g"/>
<use x="163.439453" xlink:href="#j"/>
<use x="260.851562" xlink:href="#h"/>
<use x="288.634766" xlink:href="#e"/>
<use x="352.013672" xlink:href="#f"/>
<use x="413.292969" xlink:href="#k"/>
</g>
</g>
<path d="m1302 654.24 0.94142-4.9666q0.44697-2.358-1.911-2.805l-7.607-1.4419q-2.358-0.44697-2.805 1.911l-0.94142 4.9666q-0.44697 2.358 1.911 2.805l7.607 1.4419q2.358 0.44697 2.805-1.911z" clip-path="url(#a)" fill="#fff" stroke="#fff"/>
<g clip-path="url(#a)">
<g transform="translate(1298 653.49) rotate(-79.267) scale(.08 -.08)">
<use xlink:href="#s"/>
</g>
</g>
<path d="m1325.3 576.42 0.54066 5.026q0.25669 2.3862 2.6429 2.1295l7.6981-0.8281q2.3862-0.25669 2.1295-2.6429l-0.54066-5.026q-0.25669-2.3862-2.6429-2.1295l-7.6981 0.8281q-2.3862 0.25669-2.1295 2.6429z" clip-path="url(#a)" fill="#fff" stroke="#fff"/>
<g clip-path="url(#a)">
<g transform="translate(1329.3 575.99) rotate(83.86) scale(.08 -.08)">
<use xlink:href="#s"/>
</g>
</g>
<path d="m1337 648.67 0.74951 5.5357q0.32201 2.3783 2.7003 2.0563l7.6725-1.0388q2.3783-0.32201 2.0563-2.7003l-0.74951-5.5357q-0.32201-2.3783-2.7003-2.0563l-7.6725 1.0388q-2.3783 0.32201-2.0563 2.7003z" clip-path="url(#a)" fill="#fff" stroke="#fff"/>
<g clip-path="url(#a)">
<g transform="translate(1341 648.12) rotate(82.289) scale(.08 -.08)">
<use xlink:href="#t"/>
</g>
</g>
<path d="m1551.2 584.74 3.9408-3.1659q1.871-1.5031 0.36791-3.3741l-4.8491-6.036q-1.5031-1.871-3.3741-0.36791l-3.9408 3.1659q-1.871 1.5031-0.36791 3.3741l4.8491 6.036q1.5031 1.871 3.3741 0.36791z" clip-path="url(#a)" fill="#fff" stroke="#fff"/>
<g clip-path="url(#a)">
<g transform="translate(1548.7 581.57) rotate(-38.777) scale(.08 -.08)">
<use xlink:href="#s"/>
</g>
</g>
<path d="m1601.9 654.82 1.4602-4.8395q0.69329-2.2977-1.6044-2.991l-7.4124-2.2366q-2.2977-0.69329-2.991 1.6044l-1.4602 4.8395q-0.69329 2.2977 1.6044 2.991l7.4124 2.2366q2.2977 0.69329 2.991-1.6044z" clip-path="url(#a)" fill="#fff" stroke="#fff"/>
<g clip-path="url(#a)">
<g transform="translate(1598 653.65) rotate(-73.21) scale(.08 -.08)">
<use xlink:href="#s"/>
</g>
</g>
<path d="m1626.1 653.96 0.69724-5.0067q0.33104-2.3771-2.046-2.7081l-7.6685-1.0679q-2.3771-0.33104-2.7081 2.046l-0.69724 5.0067q-0.33104 2.3771 2.046 2.7081l7.6685 1.0679q2.3771 0.33104 2.7081-2.046z" clip-path="url(#a)" fill="#fff" stroke="#fff"/>
<g clip-path="url(#a)">
<g transform="translate(1622.1 653.4) rotate(-82.072) scale(.08 -.08)">
<use xlink:href="#s"/>
</g>
</g>
<path d="m1637.6 647.95 0.12962 5.5847q0.05569 2.3994 2.455 2.3437l7.7404-0.17966q2.3994-0.055691 2.3437-2.455l-0.12962-5.5847q-0.05569-2.3994-2.455-2.3437l-7.7404 0.17966q-2.3994 0.05569-2.3437 2.455z" clip-path="url(#a)" fill="#fff" stroke="#fff"/>
<g clip-path="url(#a)">
<g transform="translate(1641.7 647.85) rotate(88.67) scale(.08 -.08)">
<use xlink:href="#t"/>
</g>
</g>
<path d="m1660.9 649 1.0148 5.4653q0.43815 2.3597 2.7978 1.9215l7.6124-1.4135q2.3597-0.43815 1.9215-2.7978l-1.0148-5.4653q-0.43815-2.3597-2.7978-1.9215l-7.6124 1.4135q-2.3597 0.43815-1.9215 2.7978z" clip-path="url(#a)" fill="#fff" stroke="#fff"/>
<g clip-path="url(#a)">
<g transform="translate(1664.9 648.26) rotate(79.481) scale(.08 -.08)">
<use xlink:href="#w"/>
</g>
</g>
<path d="m1684.5 650.27 1.6621 4.7739q0.78912 2.2666 3.0557 1.4774l7.312-2.5457q2.2666-0.78912 1.4774-3.0557l-1.6621-4.7739q-0.78912-2.2666-3.0557-1.4774l-7.312 2.5457q-2.2666 0.78912-1.4774 3.0557z" clip-path="url(#a)" fill="#fff" stroke="#fff"/>
<g clip-path="url(#a)">
<g transform="translate(1688.3 648.93) rotate(70.804) scale(.08 -.08)">
<use xlink:href="#s"/>
</g>
</g>
<path d="m1708 650.84 2.6627 5.2145q1.0915 2.1375 3.2289 1.046l6.8955-3.5211q2.1375-1.0915 1.046-3.2289l-2.6627-5.2145q-1.0915-2.1375-3.2289-1.046l-6.8955 3.5211q-2.1375 1.0915-1.046 3.2289z" clip-path="url(#a)" fill="#fff" stroke="#fff"/>
<g clip-path="url(#a)">
<g transform="translate(1711.6 648.99) rotate(62.95) scale(.08 -.08)">
<use xlink:href="#u"/>
</g>
</g>
<path d="m1439.5 728.28 1.572-4.8044q0.74636-2.281-1.5346-3.0274l-7.3586-2.4078q-2.281-0.74636-3.0274 1.5346l-1.572 4.8044q-0.74636 2.281 1.5346 3.0274l7.3586 2.4078q2.281 0.74636 3.0274-1.5346z" clip-path="url(#a)" fill="#fff" stroke="#fff"/>
<g clip-path="url(#a)">
<g transform="translate(1435.6 727.01) rotate(-71.882) scale(.08 -.08)">
<use xlink:href="#s"/>
</g>
</g>
<path d="m1451.7 721.13v5.5862q0 2.4 2.4 2.4h7.7425q2.4 0 2.4-2.4v-5.5862q0-2.4-2.4-2.4h-7.7425q-2.4 0-2.4 2.4z" clip-path="url(#a)" fill="#fff" stroke="#fff"/>
<g clip-path="url(#a)">
<g transform="translate(1455.8 721.13) rotate(90) scale(.08 -.08)">
<use xlink:href="#t"/>
</g>
</g>
<path d="m1474.8 723.23 1.7287 5.2831q0.74636 2.281 3.0274 1.5346l7.3586-2.4078q2.281-0.74636 1.5346-3.0274l-1.7287-5.2831q-0.74636-2.281-3.0274-1.5346l-7.3586 2.4078q-2.281 0.74636-1.5346 3.0274z" clip-path="url(#a)" fill="#fff" stroke="#fff"/>
<g clip-path="url(#a)">
<g transform="translate(1478.7 721.97) rotate(71.882) scale(.08 -.08)">
<use xlink:href="#w"/>
</g>
</g>
<path d="m1546.4 850.94v35.285q0 2.4 2.4 2.4h7.7425q2.4 0 2.4-2.4v-35.285q0-2.4-2.4-2.4h-7.7425q-2.4 0-2.4 2.4z" clip-path="url(#a)" fill="#fff" stroke="#fff"/>
<g clip-path="url(#a)">
<g transform="translate(1550.4 850.94) rotate(90) scale(.08 -.08)">
<use xlink:href="#l"/>
<use x="60.818359" xlink:href="#c"/>
<use x="122.341797" xlink:href="#g"/>
<use x="163.439453" xlink:href="#j"/>
<use x="260.851562" xlink:href="#h"/>
<use x="288.634766" xlink:href="#e"/>
<use x="352.013672" xlink:href="#f"/>
<use x="413.292969" xlink:href="#k"/>
</g>
</g>
<path d="m1593.7 850.94v35.285q0 2.4 2.4 2.4h7.7425q2.4 0 2.4-2.4v-35.285q0-2.4-2.4-2.4h-7.7425q-2.4 0-2.4 2.4z" clip-path="url(#a)" fill="#fff" stroke="#fff"/>
<g clip-path="url(#a)">
<g transform="translate(1597.8 850.94) rotate(90) scale(.08 -.08)">
<use xlink:href="#l"/>
<use x="60.818359" xlink:href="#c"/>
<use x="122.341797" xlink:href="#g"/>
<use x="163.439453" xlink:href="#j"/>
<use x="260.851562" xlink:href="#h"/>
<use x="288.634766" xlink:href="#e"/>
<use x="352.013672" xlink:href="#f"/>
<use x="413.292969" xlink:href="#k"/>
</g>
</g>
<path d="m1641 850.94v35.285q0 2.4 2.4 2.4h7.7425q2.4 0 2.4-2.4v-35.285q0-2.4-2.4-2.4h-7.7425q-2.4 0-2.4 2.4z" clip-path="url(#a)" fill="#fff" stroke="#fff"/>
<g clip-path="url(#a)">
<g transform="translate(1645.1 850.94) rotate(90) scale(.08 -.08)">
<use xlink:href="#l"/>
<use x="60.818359" xlink:href="#c"/>
<use x="122.341797" xlink:href="#g"/>
<use x="163.439453" xlink:href="#j"/>
<use x="260.851562" xlink:href="#h"/>
<use x="288.634766" xlink:href="#e"/>
<use x="352.013672" xlink:href="#f"/>
<use x="413.292969" xlink:href="#k"/>
</g>
</g>
<path d="m1688.4 850.94v35.285q0 2.4 2.4 2.4h7.7425q2.4 0 2.4-2.4v-35.285q0-2.4-2.4-2.4h-7.7425q-2.4 0-2.4 2.4z" clip-path="url(#a)" fill="#fff" stroke="#fff"/>
<g clip-path="url(#a)">
<g transform="translate(1692.4 850.94) rotate(90) scale(.08 -.08)">
<use xlink:href="#l"/>
<use x="60.818359" xlink:href="#c"/>
<use x="122.341797" xlink:href="#g"/>
<use x="163.439453" xlink:href="#j"/>
<use x="260.851562" xlink:href="#h"/>
<use x="288.634766" xlink:href="#e"/>
<use x="352.013672" xlink:href="#f"/>
<use x="413.292969" xlink:href="#k"/>
</g>
</g>
<path d="m1735.7 850.94v35.285q0 2.4 2.4 2.4h7.7425q2.4 0 2.4-2.4v-35.285q0-2.4-2.4-2.4h-7.7425q-2.4 0-2.4 2.4z" clip-path="url(#a)" fill="#fff" stroke="#fff"/>
<g clip-path="url(#a)">
<g transform="translate(1739.8 850.94) rotate(90) scale(.08 -.08)">
<use xlink:href="#l"/>
<use x="60.818359" xlink:href="#c"/>
<use x="122.341797" xlink:href="#g"/>
<use x="163.439453" xlink:href="#j"/>
<use x="260.851562" xlink:href="#h"/>
<use x="288.634766" xlink:href="#e"/>
<use x="352.013672" xlink:href="#f"/>
<use x="413.292969" xlink:href="#k"/>
</g>
</g>
<path d="m1404.4 850.94v35.285q0 2.4 2.4 2.4h7.7425q2.4 0 2.4-2.4v-35.285q0-2.4-2.4-2.4h-7.7425q-2.4 0-2.4 2.4z" clip-path="url(#a)" fill="#fff" stroke="#fff"/>
<g clip-path="url(#a)">
<g transform="translate(1408.4 850.94) rotate(90) scale(.08 -.08)">
<use xlink:href="#l"/>
<use x="60.818359" xlink:href="#c"/>
<use x="122.341797" xlink:href="#g"/>
<use x="163.439453" xlink:href="#j"/>
<use x="260.851562" xlink:href="#h"/>
<use x="288.634766" xlink:href="#e"/>
<use x="352.013672" xlink:href="#f"/>
<use x="413.292969" xlink:href="#k"/>
</g>
</g>
<path d="m1451.7 850.94v35.285q0 2.4 2.4 2.4h7.7425q2.4 0 2.4-2.4v-35.285q0-2.4-2.4-2.4h-7.7425q-2.4 0-2.4 2.4z" clip-path="url(#a)" fill="#fff" stroke="#fff"/>
<g clip-path="url(#a)">
<g transform="translate(1455.8 850.94) rotate(90) scale(.08 -.08)">
<use xlink:href="#l"/>
<use x="60.818359" xlink:href="#c"/>
<use x="122.341797" xlink:href="#g"/>
<use x="163.439453" xlink:href="#j"/>
<use x="260.851562" xlink:href="#h"/>
<use x="288.634766" xlink:href="#e"/>
<use x="352.013672" xlink:href="#f"/>
<use x="413.292969" xlink:href="#k"/>
</g>
</g>
<path d="m1499 850.94v35.285q0 2.4 2.4 2.4h7.7425q2.4 0 2.4-2.4v-35.285q0-2.4-2.4-2.4h-7.7425q-2.4 0-2.4 2.4z" clip-path="url(#a)" fill="#fff" stroke="#fff"/>
<g clip-path="url(#a)">
<g transform="translate(1503.1 850.94) rotate(90) scale(.08 -.08)">
<use xlink:href="#l"/>
<use x="60.818359" xlink:href="#c"/>
<use x="122.341797" xlink:href="#g"/>
<use x="163.439453" xlink:href="#j"/>
<use x="260.851562" xlink:href="#h"/>
<use x="288.634766" xlink:href="#e"/>
<use x="352.013672" xlink:href="#f"/>
<use x="413.292969" xlink:href="#k"/>
</g>
</g>
<path d="m1262.4 850.94v35.285q0 2.4 2.4 2.4h7.7425q2.4 0 2.4-2.4v-35.285q0-2.4-2.4-2.4h-7.7425q-2.4 0-2.4 2.4z" clip-path="url(#a)" fill="#fff" stroke="#fff"/>
<g clip-path="url(#a)">
<g transform="translate(1266.4 850.94) rotate(90) scale(.08 -.08)">
<use xlink:href="#l"/>
<use x="60.818359" xlink:href="#c"/>
<use x="122.341797" xlink:href="#g"/>
<use x="163.439453" xlink:href="#j"/>
<use x="260.851562" xlink:href="#h"/>
<use x="288.634766" xlink:href="#e"/>
<use x="352.013672" xlink:href="#f"/>
<use x="413.292969" xlink:href="#k"/>
</g>
</g>
<path d="m1344.9 722.24 0.88357 5.4007q0.3875 2.3685 2.756 1.981l7.6409-1.2501q2.3685-0.3875 1.981-2.756l-0.88357-5.4007q-0.3875-2.3685-2.756-1.981l-7.6409 1.2501q-2.3685 0.3875-1.981 2.756z" clip-path="url(#a)" fill="#fff" stroke="#fff"/>
<g clip-path="url(#a)">
<g transform="translate(1348.9 721.58) rotate(80.709) scale(.08 -.08)">
<use xlink:href="#x"/>
</g>
</g>
<path d="m1333.6 727.32 0.77883-4.7605q0.3875-2.3685-1.981-2.756l-7.6409-1.2501q-2.3685-0.3875-2.756 1.981l-0.77883 4.7605q-0.3875 2.3685 1.981 2.756l7.6409 1.2501q2.3685 0.3875 2.756-1.981z" clip-path="url(#a)" fill="#fff" stroke="#fff"/>
<g clip-path="url(#a)">
<g transform="translate(1329.6 726.66) rotate(-80.709) scale(.08 -.08)">
<use xlink:href="#al"/>
</g>
</g>
<path d="m1357 850.94v35.285q0 2.4 2.4 2.4h7.7425q2.4 0 2.4-2.4v-35.285q0-2.4-2.4-2.4h-7.7425q-2.4 0-2.4 2.4z" clip-path="url(#a)" fill="#fff" stroke="#fff"/>
<g clip-path="url(#a)">
<g transform="translate(1361.1 850.94) rotate(90) scale(.08 -.08)">
<use xlink:href="#l"/>
<use x="60.818359" xlink:href="#c"/>
<use x="122.341797" xlink:href="#g"/>
<use x="163.439453" xlink:href="#j"/>
<use x="260.851562" xlink:href="#h"/>
<use x="288.634766" xlink:href="#e"/>
<use x="352.013672" xlink:href="#f"/>
<use x="413.292969" xlink:href="#k"/>
</g>
</g>
<path d="m1309.7 850.94v35.285q0 2.4 2.4 2.4h7.7425q2.4 0 2.4-2.4v-35.285q0-2.4-2.4-2.4h-7.7425q-2.4 0-2.4 2.4z" clip-path="url(#a)" fill="#fff" stroke="#fff"/>
<g clip-path="url(#a)">
<g transform="translate(1313.8 850.94) rotate(90) scale(.08 -.08)">
<use xlink:href="#l"/>
<use x="60.818359" xlink:href="#c"/>
<use x="122.341797" xlink:href="#g"/>
<use x="163.439453" xlink:href="#j"/>
<use x="260.851562" xlink:href="#h"/>
<use x="288.634766" xlink:href="#e"/>
<use x="352.013672" xlink:href="#f"/>
<use x="413.292969" xlink:href="#k"/>
</g>
</g>
<path d="m528.97 727.43 0.81616-4.9887q0.3875-2.3685-1.981-2.756l-7.6409-1.2501q-2.3685-0.3875-2.756 1.981l-0.81616 4.9887q-0.3875 2.3685 1.981 2.756l7.6409 1.2501q2.3685 0.3875 2.756-1.981z" clip-path="url(#a)" fill="#fff" stroke="#fff"/>
<g clip-path="url(#a)">
<g transform="translate(524.95 726.78) rotate(-80.709) scale(.08 -.08)">
<use xlink:href="#s"/>
</g>
</g>
<path d="m540.21 722.18 0.90194 5.513q0.3875 2.3685 2.756 1.981l7.6409-1.2501q2.3685-0.3875 1.981-2.756l-0.90194-5.513q-0.3875-2.3685-2.756-1.981l-7.6409 1.2501q-2.3685 0.3875-1.981 2.756z" clip-path="url(#a)" fill="#fff" stroke="#fff"/>
<g clip-path="url(#a)">
<g transform="translate(544.22 721.53) rotate(80.709) scale(.08 -.08)">
<use xlink:href="#t"/>
</g>
</g>
<path d="m621.19 887 5.697-34.822q0.3875-2.3685-1.981-2.756l-7.6409-1.2501q-2.3685-0.3875-2.756 1.981l-5.697 34.822q-0.3875 2.3685 1.981 2.756l7.6409 1.2501q2.3685 0.3875 2.756-1.981z" clip-path="url(#a)" fill="#fff" stroke="#fff"/>
<g clip-path="url(#a)">
<g transform="translate(617.18 886.35) rotate(-80.709) scale(.08 -.08)">
<use xlink:href="#l"/>
<use x="60.818359" xlink:href="#c"/>
<use x="122.341797" xlink:href="#g"/>
<use x="163.439453" xlink:href="#j"/>
<use x="260.851562" xlink:href="#h"/>
<use x="288.634766" xlink:href="#e"/>
<use x="352.013672" xlink:href="#f"/>
<use x="413.292969" xlink:href="#k"/>
</g>
</g>
<path d="m632.48 852.18 5.697 34.822q0.3875 2.3685 2.756 1.981l7.6409-1.2501q2.3685-0.3875 1.981-2.756l-5.697-34.822q-0.3875-2.3685-2.756-1.981l-7.6409 1.2501q-2.3685 0.3875-1.981 2.756z" clip-path="url(#a)" fill="#fff" stroke="#fff"/>
<g clip-path="url(#a)">
<g transform="translate(636.49 851.52) rotate(80.709) scale(.08 -.08)">
<use xlink:href="#l"/>
<use x="60.818359" xlink:href="#c"/>
<use x="122.341797" xlink:href="#g"/>
<use x="163.439453" xlink:href="#j"/>
<use x="260.851562" xlink:href="#h"/>
<use x="288.634766" xlink:href="#e"/>
<use x="352.013672" xlink:href="#f"/>
<use x="413.292969" xlink:href="#k"/>
</g>
</g>
<path d="m796.61 655.05 1.5869-5.3274q0.68513-2.3001-1.615-2.9853l-7.4203-2.2103q-2.3001-0.68514-2.9853 1.615l-1.5869 5.3274q-0.68513 2.3001 1.615 2.9853l7.4203 2.2103q2.3001 0.68513 2.9853-1.615z" clip-path="url(#a)" fill="#fff" stroke="#fff"/>
<g clip-path="url(#a)">
<g transform="translate(792.72 653.89) rotate(-73.413) scale(.08 -.08)">
<use xlink:href="#w"/>
</g>
</g>
<path d="m820.94 653.94 0.67823-5.0093q0.32201-2.3783-2.0563-2.7003l-7.6725-1.0388q-2.3783-0.32201-2.7003 2.0563l-0.67823 5.0093q-0.32201 2.3783 2.0563 2.7003l7.6725 1.0388q2.3783 0.32201 2.7003-2.0563z" clip-path="url(#a)" fill="#fff" stroke="#fff"/>
<g clip-path="url(#a)">
<g transform="translate(816.91 653.39) rotate(-82.289) scale(.08 -.08)">
<use xlink:href="#s"/>
</g>
</g>
<path d="m891.32 580.24 3.6439 4.2342q1.5655 1.8191 3.3846 0.25362l5.8686-5.0504q1.8191-1.5655 0.25362-3.3846l-3.6439-4.2342q-1.5655-1.8191-3.3846-0.25362l-5.8686 5.0504q-1.8191 1.5655-0.25362 3.3846z" clip-path="url(#a)" fill="#fff" stroke="#fff"/>
<g clip-path="url(#a)">
<g transform="translate(894.4 577.59) rotate(49.285) scale(.08 -.08)">
<use xlink:href="#t"/>
</g>
</g>
<path d="m741.74 850.94v35.285q0 2.4 2.4 2.4h7.7425q2.4 0 2.4-2.4v-35.285q0-2.4-2.4-2.4h-7.7425q-2.4 0-2.4 2.4z" clip-path="url(#a)" fill="#fff" stroke="#fff"/>
<g clip-path="url(#a)">
<g transform="translate(745.8 850.94) rotate(90) scale(.08 -.08)">
<use xlink:href="#l"/>
<use x="60.818359" xlink:href="#c"/>
<use x="122.341797" xlink:href="#g"/>
<use x="163.439453" xlink:href="#j"/>
<use x="260.851562" xlink:href="#h"/>
<use x="288.634766" xlink:href="#e"/>
<use x="352.013672" xlink:href="#f"/>
<use x="413.292969" xlink:href="#k"/>
</g>
</g>
<path d="m789.07 850.94v35.285q0 2.4 2.4 2.4h7.7425q2.4 0 2.4-2.4v-35.285q0-2.4-2.4-2.4h-7.7425q-2.4 0-2.4 2.4z" clip-path="url(#a)" fill="#fff" stroke="#fff"/>
<g clip-path="url(#a)">
<g transform="translate(793.13 850.94) rotate(90) scale(.08 -.08)">
<use xlink:href="#l"/>
<use x="60.818359" xlink:href="#c"/>
<use x="122.341797" xlink:href="#g"/>
<use x="163.439453" xlink:href="#j"/>
<use x="260.851562" xlink:href="#h"/>
<use x="288.634766" xlink:href="#e"/>
<use x="352.013672" xlink:href="#f"/>
<use x="413.292969" xlink:href="#k"/>
</g>
</g>
<path d="m900.96 814.95 13.358-32.659q0.90856-2.2214-1.3128-3.1299l-7.1663-2.9311q-2.2214-0.90856-3.1299 1.3128l-13.358 32.659q-0.90856 2.2214 1.3128 3.1299l7.1663 2.9311q2.2214 0.90856 3.1299-1.3128z" clip-path="url(#a)" fill="#fff" stroke="#fff"/>
<g clip-path="url(#a)">
<g transform="translate(897.2 813.42) rotate(-67.755) scale(.08 -.08)">
<use xlink:href="#l"/>
<use x="60.818359" xlink:href="#c"/>
<use x="122.341797" xlink:href="#g"/>
<use x="163.439453" xlink:href="#j"/>
<use x="260.851562" xlink:href="#h"/>
<use x="288.634766" xlink:href="#e"/>
<use x="352.013672" xlink:href="#f"/>
<use x="413.292969" xlink:href="#k"/>
</g>
</g>
<path d="m953.98 814.35 2.8768-35.168q0.19567-2.392-2.1963-2.5877l-7.7167-0.63124q-2.392-0.19567-2.5877 2.1963l-2.8768 35.168q-0.19567 2.392 2.1963 2.5877l7.7167 0.63124q2.392 0.19567 2.5877-2.1963z" clip-path="url(#a)" fill="#fff" stroke="#fff"/>
<g clip-path="url(#a)">
<g transform="translate(949.93 814.02) rotate(-85.324) scale(.08 -.08)">
<use xlink:href="#l"/>
<use x="60.818359" xlink:href="#c"/>
<use x="122.341797" xlink:href="#g"/>
<use x="163.439453" xlink:href="#j"/>
<use x="260.851562" xlink:href="#h"/>
<use x="288.634766" xlink:href="#e"/>
<use x="352.013672" xlink:href="#f"/>
<use x="413.292969" xlink:href="#k"/>
</g>
</g>
<path d="m965.14 779.18 2.8768 35.168q0.19567 2.392 2.5877 2.1963l7.7167-0.63124q2.392-0.19567 2.1963-2.5877l-2.8768-35.168q-0.19567-2.392-2.5877-2.1963l-7.7167 0.63124q-2.392 0.19567-2.1963 2.5877z" clip-path="url(#a)" fill="#fff" stroke="#fff"/>
<g clip-path="url(#a)">
<g transform="translate(969.19 778.85) rotate(85.324) scale(.08 -.08)">
<use xlink:href="#l"/>
<use x="60.818359" xlink:href="#c"/>
<use x="122.341797" xlink:href="#g"/>
<use x="163.439453" xlink:href="#j"/>
<use x="260.851562" xlink:href="#h"/>
<use x="288.634766" xlink:href="#e"/>
<use x="352.013672" xlink:href="#f"/>
<use x="413.292969" xlink:href="#k"/>
</g>
</g>
<path d="m986.2 780.61 8.4096 34.268q0.572 2.3308 2.9028 1.7588l7.5194-1.8453q2.3308-0.572 1.7588-2.9028l-8.4096-34.268q-0.572-2.3308-2.9028-1.7588l-7.5194 1.8453q-2.3308 0.572-1.7588 2.9028z" clip-path="url(#a)" fill="#fff" stroke="#fff"/>
<g clip-path="url(#a)">
<g transform="translate(990.15 779.64) rotate(76.212) scale(.08 -.08)">
<use xlink:href="#l"/>
<use x="60.818359" xlink:href="#c"/>
<use x="122.341797" xlink:href="#g"/>
<use x="163.439453" xlink:href="#j"/>
<use x="260.851562" xlink:href="#h"/>
<use x="288.634766" xlink:href="#e"/>
<use x="352.013672" xlink:href="#f"/>
<use x="413.292969" xlink:href="#k"/>
</g>
</g>
<path d="m1007.7 782.3 13.358 32.659q0.90856 2.2214 3.1299 1.3128l7.1663-2.9311q2.2214-0.90856 1.3128-3.1299l-13.358-32.659q-0.90856-2.2214-3.1299-1.3128l-7.1663 2.9311q-2.2214 0.90856-1.3128 3.1299z" clip-path="url(#a)" fill="#fff" stroke="#fff"/>
<g clip-path="url(#a)">
<g transform="translate(1011.4 780.76) rotate(67.755) scale(.08 -.08)">
<use xlink:href="#l"/>
<use x="60.818359" xlink:href="#c"/>
<use x="122.341797" xlink:href="#g"/>
<use x="163.439453" xlink:href="#j"/>
<use x="260.851562" xlink:href="#h"/>
<use x="288.634766" xlink:href="#e"/>
<use x="352.013672" xlink:href="#f"/>
<use x="413.292969" xlink:href="#k"/>
</g>
</g>
<path d="m929.84 729.32 2.5797-5.256q1.0574-2.1545-1.097-3.2119l-6.9505-3.4114q-2.1545-1.0574-3.2119 1.097l-2.5797 5.256q-1.0574 2.1545 1.097 3.2119l6.9505 3.4114q2.1545 1.0574 3.2119-1.097z" clip-path="url(#a)" fill="#fff" stroke="#fff"/>
<g clip-path="url(#a)">
<g transform="translate(926.19 727.53) rotate(-63.858) scale(.08 -.08)">
<use xlink:href="#u"/>
</g>
</g>
<path d="m505.08 850.94v35.285q0 2.4 2.4 2.4h7.7425q2.4 0 2.4-2.4v-35.285q0-2.4-2.4-2.4h-7.7425q-2.4 0-2.4 2.4z" clip-path="url(#a)" fill="#fff" stroke="#fff"/>
<g clip-path="url(#a)">
<g transform="translate(509.14 850.94) rotate(90) scale(.08 -.08)">
<use xlink:href="#l"/>
<use x="60.818359" xlink:href="#c"/>
<use x="122.341797" xlink:href="#g"/>
<use x="163.439453" xlink:href="#j"/>
<use x="260.851562" xlink:href="#h"/>
<use x="288.634766" xlink:href="#e"/>
<use x="352.013672" xlink:href="#f"/>
<use x="413.292969" xlink:href="#k"/>
</g>
</g>
<path d="m552.41 850.94v35.285q0 2.4 2.4 2.4h7.7425q2.4 0 2.4-2.4v-35.285q0-2.4-2.4-2.4h-7.7425q-2.4 0-2.4 2.4z" clip-path="url(#a)" fill="#fff" stroke="#fff"/>
<g clip-path="url(#a)">
<g transform="translate(556.48 850.94) rotate(90) scale(.08 -.08)">
<use xlink:href="#l"/>
<use x="60.818359" xlink:href="#c"/>
<use x="122.341797" xlink:href="#g"/>
<use x="163.439453" xlink:href="#j"/>
<use x="260.851562" xlink:href="#h"/>
<use x="288.634766" xlink:href="#e"/>
<use x="352.013672" xlink:href="#f"/>
<use x="413.292969" xlink:href="#k"/>
</g>
</g>
<path d="m221.09 850.94v35.285q0 2.4 2.4 2.4h7.7425q2.4 0 2.4-2.4v-35.285q0-2.4-2.4-2.4h-7.7425q-2.4 0-2.4 2.4z" clip-path="url(#a)" fill="#fff" stroke="#fff"/>
<g clip-path="url(#a)">
<g transform="translate(225.16 850.94) rotate(90) scale(.08 -.08)">
<use xlink:href="#l"/>
<use x="60.818359" xlink:href="#c"/>
<use x="122.341797" xlink:href="#g"/>
<use x="163.439453" xlink:href="#j"/>
<use x="260.851562" xlink:href="#h"/>
<use x="288.634766" xlink:href="#e"/>
<use x="352.013672" xlink:href="#f"/>
<use x="413.292969" xlink:href="#k"/>
</g>
</g>
<path d="m312.08 814.88 8.4096-34.268q0.572-2.3308-1.7588-2.9028l-7.5194-1.8453q-2.3308-0.572-2.9028 1.7588l-8.4096 34.268q-0.572 2.3308 1.7588 2.9028l7.5194 1.8453q2.3308 0.572 2.9028-1.7588z" clip-path="url(#a)" fill="#fff" stroke="#fff"/>
<g clip-path="url(#a)">
<g transform="translate(308.13 813.91) rotate(-76.212) scale(.08 -.08)">
<use xlink:href="#l"/>
<use x="60.818359" xlink:href="#c"/>
<use x="122.341797" xlink:href="#g"/>
<use x="163.439453" xlink:href="#j"/>
<use x="260.851562" xlink:href="#h"/>
<use x="288.634766" xlink:href="#e"/>
<use x="352.013672" xlink:href="#f"/>
<use x="413.292969" xlink:href="#k"/>
</g>
</g>
<path d="m338.67 814.35 2.8768-35.168q0.19567-2.392-2.1963-2.5877l-7.7167-0.63124q-2.392-0.19567-2.5877 2.1963l-2.8768 35.168q-0.19567 2.392 2.1963 2.5877l7.7167 0.63124q2.392 0.19567 2.5877-2.1963z" clip-path="url(#a)" fill="#fff" stroke="#fff"/>
<g clip-path="url(#a)">
<g transform="translate(334.62 814.02) rotate(-85.324) scale(.08 -.08)">
<use xlink:href="#l"/>
<use x="60.818359" xlink:href="#c"/>
<use x="122.341797" xlink:href="#g"/>
<use x="163.439453" xlink:href="#j"/>
<use x="260.851562" xlink:href="#h"/>
<use x="288.634766" xlink:href="#e"/>
<use x="352.013672" xlink:href="#f"/>
<use x="413.292969" xlink:href="#k"/>
</g>
</g>
<path d="m370.89 780.61 8.4096 34.268q0.572 2.3308 2.9028 1.7588l7.5194-1.8453q2.3308-0.572 1.7588-2.9028l-8.4096-34.268q-0.572-2.3308-2.9028-1.7588l-7.5194 1.8453q-2.3308 0.572-1.7588 2.9028z" clip-path="url(#a)" fill="#fff" stroke="#fff"/>
<g clip-path="url(#a)">
<g transform="translate(374.84 779.64) rotate(76.212) scale(.08 -.08)">
<use xlink:href="#l"/>
<use x="60.818359" xlink:href="#c"/>
<use x="122.341797" xlink:href="#g"/>
<use x="163.439453" xlink:href="#j"/>
<use x="260.851562" xlink:href="#h"/>
<use x="288.634766" xlink:href="#e"/>
<use x="352.013672" xlink:href="#f"/>
<use x="413.292969" xlink:href="#k"/>
</g>
</g>
<path d="m350.86 722.05 0.94533 5.7782q0.3875 2.3685 2.756 1.981l7.6409-1.2501q2.3685-0.3875 1.981-2.756l-0.94533-5.7782q-0.3875-2.3685-2.756-1.981l-7.6409 1.2501q-2.3685 0.3875-1.981 2.756z" clip-path="url(#a)" fill="#fff" stroke="#fff"/>
<g clip-path="url(#a)">
<g transform="translate(354.87 721.39) rotate(80.709) scale(.08 -.08)">
<use xlink:href="#u"/>
</g>
</g>
<path d="m173.76 850.94v35.285q0 2.4 2.4 2.4h7.7425q2.4 0 2.4-2.4v-35.285q0-2.4-2.4-2.4h-7.7425q-2.4 0-2.4 2.4z" clip-path="url(#a)" fill="#fff" stroke="#fff"/>
<g clip-path="url(#a)">
<g transform="translate(177.82 850.94) rotate(90) scale(.08 -.08)">
<use xlink:href="#l"/>
<use x="60.818359" xlink:href="#c"/>
<use x="122.341797" xlink:href="#g"/>
<use x="163.439453" xlink:href="#j"/>
<use x="260.851562" xlink:href="#h"/>
<use x="288.634766" xlink:href="#e"/>
<use x="352.013672" xlink:href="#f"/>
<use x="413.292969" xlink:href="#k"/>
</g>
</g>
<path d="m79.098 850.94v35.285q0 2.4 2.4 2.4h7.7425q2.4 0 2.4-2.4v-35.285q0-2.4-2.4-2.4h-7.7425q-2.4 0-2.4 2.4z" clip-path="url(#a)" fill="#fff" stroke="#fff"/>
<g clip-path="url(#a)">
<g transform="translate(83.162 850.94) rotate(90) scale(.08 -.08)">
<use xlink:href="#l"/>
<use x="60.818359" xlink:href="#c"/>
<use x="122.341797" xlink:href="#g"/>
<use x="163.439453" xlink:href="#j"/>
<use x="260.851562" xlink:href="#h"/>
<use x="288.634766" xlink:href="#e"/>
<use x="352.013672" xlink:href="#f"/>
<use x="413.292969" xlink:href="#k"/>
</g>
</g>
<path d="m126.43 850.94v35.285q0 2.4 2.4 2.4h7.7425q2.4 0 2.4-2.4v-35.285q0-2.4-2.4-2.4h-7.7425q-2.4 0-2.4 2.4z" clip-path="url(#a)" fill="#fff" stroke="#fff"/>
<g clip-path="url(#a)">
<g transform="translate(130.49 850.94) rotate(90) scale(.08 -.08)">
<use xlink:href="#l"/>
<use x="60.818359" xlink:href="#c"/>
<use x="122.341797" xlink:href="#g"/>
<use x="163.439453" xlink:href="#j"/>
<use x="260.851562" xlink:href="#h"/>
<use x="288.634766" xlink:href="#e"/>
<use x="352.013672" xlink:href="#f"/>
<use x="413.292969" xlink:href="#k"/>
</g>
</g>
<path d="m331.16 356.42 5.8858-8.1045q1.4103-1.9419-0.53163-3.3522l-6.2647-4.5497q-1.9419-1.4103-3.3522 0.53163l-5.8858 8.1045q-1.4103 1.9419 0.53163 3.3522l6.2647 4.5497q1.9419 1.4103 3.3522-0.53163z" clip-path="url(#a)" fill="#fff" stroke="#fff"/>
<g clip-path="url(#a)">
<g transform="translate(327.87 354.03) rotate(-54.011) scale(.08 -.08)">
<use xlink:href="#ak"/>
<use x="55.712891" xlink:href="#w"/>
</g>
</g>
<path d="m762.22 128.4 9.3562 3.3341q2.2607 0.80562 3.0664-1.4551l2.599-7.2933q0.80562-2.2607-1.4551-3.0664l-9.3562-3.3341q-2.2607-0.80562-3.0664 1.4551l-2.599 7.2933q-0.80562 2.2607 1.4551 3.0664z" clip-path="url(#a)" fill="#fff" stroke="#fff"/>
<g clip-path="url(#a)">
<g transform="translate(763.59 124.57) rotate(19.614) scale(.08 -.08)">
<use xlink:href="#ak"/>
<use x="55.744141" xlink:href="#x"/>
</g>
</g>
<path d="m363.09 850.94v35.285q0 2.4 2.4 2.4h7.7425q2.4 0 2.4-2.4v-35.285q0-2.4-2.4-2.4h-7.7425q-2.4 0-2.4 2.4z" clip-path="url(#a)" fill="#fff" stroke="#fff"/>
<g clip-path="url(#a)">
<g transform="translate(367.15 850.94) rotate(90) scale(.08 -.08)">
<use xlink:href="#l"/>
<use x="60.818359" xlink:href="#c"/>
<use x="122.341797" xlink:href="#g"/>
<use x="163.439453" xlink:href="#j"/>
<use x="260.851562" xlink:href="#h"/>
<use x="288.634766" xlink:href="#e"/>
<use x="352.013672" xlink:href="#f"/>
<use x="413.292969" xlink:href="#k"/>
</g>
</g>
<path d="m457.75 850.94v35.285q0 2.4 2.4 2.4h7.7425q2.4 0 2.4-2.4v-35.285q0-2.4-2.4-2.4h-7.7425q-2.4 0-2.4 2.4z" clip-path="url(#a)" fill="#fff" stroke="#fff"/>
<g clip-path="url(#a)">
<g transform="translate(461.81 850.94) rotate(90) scale(.08 -.08)">
<use xlink:href="#l"/>
<use x="60.818359" xlink:href="#c"/>
<use x="122.341797" xlink:href="#g"/>
<use x="163.439453" xlink:href="#j"/>
<use x="260.851562" xlink:href="#h"/>
<use x="288.634766" xlink:href="#e"/>
<use x="352.013672" xlink:href="#f"/>
<use x="413.292969" xlink:href="#k"/>
</g>
</g>
<path d="m694.41 850.94v35.285q0 2.4 2.4 2.4h7.7425q2.4 0 2.4-2.4v-35.285q0-2.4-2.4-2.4h-7.7425q-2.4 0-2.4 2.4z" clip-path="url(#a)" fill="#fff" stroke="#fff"/>
<g clip-path="url(#a)">
<g transform="translate(698.47 850.94) rotate(90) scale(.08 -.08)">
<use xlink:href="#l"/>
<use x="60.818359" xlink:href="#c"/>
<use x="122.341797" xlink:href="#g"/>
<use x="163.439453" xlink:href="#j"/>
<use x="260.851562" xlink:href="#h"/>
<use x="288.634766" xlink:href="#e"/>
<use x="352.013672" xlink:href="#f"/>
<use x="413.292969" xlink:href="#k"/>
</g>
</g>
<path d="m883.73 850.94v35.285q0 2.4 2.4 2.4h7.7425q2.4 0 2.4-2.4v-35.285q0-2.4-2.4-2.4h-7.7425q-2.4 0-2.4 2.4z" clip-path="url(#a)" fill="#fff" stroke="#fff"/>
<g clip-path="url(#a)">
<g transform="translate(887.79 850.94) rotate(90) scale(.08 -.08)">
<use xlink:href="#l"/>
<use x="60.818359" xlink:href="#c"/>
<use x="122.341797" xlink:href="#g"/>
<use x="163.439453" xlink:href="#j"/>
<use x="260.851562" xlink:href="#h"/>
<use x="288.634766" xlink:href="#e"/>
<use x="352.013672" xlink:href="#f"/>
<use x="413.292969" xlink:href="#k"/>
</g>
</g>
<path d="m1120.4 850.94v35.285q0 2.4 2.4 2.4h7.7425q2.4 0 2.4-2.4v-35.285q0-2.4-2.4-2.4h-7.7425q-2.4 0-2.4 2.4z" clip-path="url(#a)" fill="#fff" stroke="#fff"/>
<g clip-path="url(#a)">
<g transform="translate(1124.5 850.94) rotate(90) scale(.08 -.08)">
<use xlink:href="#l"/>
<use x="60.818359" xlink:href="#c"/>
<use x="122.341797" xlink:href="#g"/>
<use x="163.439453" xlink:href="#j"/>
<use x="260.851562" xlink:href="#h"/>
<use x="288.634766" xlink:href="#e"/>
<use x="352.013672" xlink:href="#f"/>
<use x="413.292969" xlink:href="#k"/>
</g>
</g>
<path d="m1167.7 850.94v35.285q0 2.4 2.4 2.4h7.7425q2.4 0 2.4-2.4v-35.285q0-2.4-2.4-2.4h-7.7425q-2.4 0-2.4 2.4z" clip-path="url(#a)" fill="#fff" stroke="#fff"/>
<g clip-path="url(#a)">
<g transform="translate(1171.8 850.94) rotate(90) scale(.08 -.08)">
<use xlink:href="#l"/>
<use x="60.818359" xlink:href="#c"/>
<use x="122.341797" xlink:href="#g"/>
<use x="163.439453" xlink:href="#j"/>
<use x="260.851562" xlink:href="#h"/>
<use x="288.634766" xlink:href="#e"/>
<use x="352.013672" xlink:href="#f"/>
<use x="413.292969" xlink:href="#k"/>
</g>
</g>
<path d="m1783 850.94v35.285q0 2.4 2.4 2.4h7.7425q2.4 0 2.4-2.4v-35.285q0-2.4-2.4-2.4h-7.7425q-2.4 0-2.4 2.4z" clip-path="url(#a)" fill="#fff" stroke="#fff"/>
<g clip-path="url(#a)">
<g transform="translate(1787.1 850.94) rotate(90) scale(.08 -.08)">
<use xlink:href="#l"/>
<use x="60.818359" xlink:href="#c"/>
<use x="122.341797" xlink:href="#g"/>
<use x="163.439453" xlink:href="#j"/>
<use x="260.851562" xlink:href="#h"/>
<use x="288.634766" xlink:href="#e"/>
<use x="352.013672" xlink:href="#f"/>
<use x="413.292969" xlink:href="#k"/>
</g>
</g>
<defs>
<path id="b" d="m0 8.6603c2.2967 0 4.4997-0.9125 6.1237-2.5365 1.624-1.624 2.5365-3.827 2.5365-6.1237s-0.9125-4.4997-2.5365-6.1237c-1.624-1.624-3.827-2.5365-6.1237-2.5365s-4.4997 0.9125-6.1237 2.5365c-1.624 1.624-2.5365 3.827-2.5365 6.1237s0.9125 4.4997 2.5365 6.1237c1.624 1.624 3.827 2.5365 6.1237 2.5365z"/>
</defs>
<g clip-path="url(#a)">
<use x="85.369551" y="940.904029" fill="#ffffff" stroke="#ffffff" xlink:href="#b"/>
</g>
<g clip-path="url(#a)">
<use x="132.700873" y="940.904029" fill="#ffffff" stroke="#ffffff" xlink:href="#b"/>
</g>
<g clip-path="url(#a)">
<use x="180.032194" y="940.904029" fill="#ffffff" stroke="#ffffff" xlink:href="#b"/>
</g>
<g clip-path="url(#a)">
<use x="227.363515" y="940.904029" fill="#ffffff" stroke="#ffffff" xlink:href="#b"/>
</g>
<g clip-path="url(#a)">
<use x="274.694836" y="940.904029" fill="#ffffff" stroke="#ffffff" xlink:href="#b"/>
</g>
<g clip-path="url(#a)">
<use x="322.026157" y="940.904029" fill="#ffffff" stroke="#ffffff" xlink:href="#b"/>
</g>
<g clip-path="url(#a)">
<use x="369.357479" y="940.904029" fill="#ffffff" stroke="#ffffff" xlink:href="#b"/>
</g>
<g clip-path="url(#a)">
<use x="416.6888" y="940.904029" fill="#ffffff" stroke="#ffffff" xlink:href="#b"/>
</g>
<g clip-path="url(#a)">
<use x="464.020121" y="940.904029" fill="#ffffff" stroke="#ffffff" xlink:href="#b"/>
</g>
<g clip-path="url(#a)">
<use x="511.351442" y="940.904029" fill="#ffffff" stroke="#ffffff" xlink:href="#b"/>
</g>
<g clip-path="url(#a)">
<use x="558.682764" y="940.904029" fill="#ffffff" stroke="#ffffff" xlink:href="#b"/>
</g>
<g clip-path="url(#a)">
<use x="606.014085" y="940.904029" fill="#ffffff" stroke="#ffffff" xlink:href="#b"/>
</g>
<g clip-path="url(#a)">
<use x="653.345406" y="940.904029" fill="#ffffff" stroke="#ffffff" xlink:href="#b"/>
</g>
<g clip-path="url(#a)">
<use x="700.676727" y="940.904029" fill="#ffffff" stroke="#ffffff" xlink:href="#b"/>
</g>
<g clip-path="url(#a)">
<use x="748.008048" y="940.904029" fill="#ffffff" stroke="#ffffff" xlink:href="#b"/>
</g>
<g clip-path="url(#a)">
<use x="795.33937" y="940.904029" fill="#ffffff" stroke="#ffffff" xlink:href="#b"/>
</g>
<g clip-path="url(#a)">
<use x="842.670691" y="940.904029" fill="#ffffff" stroke="#ffffff" xlink:href="#b"/>
</g>
<g clip-path="url(#a)">
<use x="890.002012" y="940.904029" fill="#ffffff" stroke="#ffffff" xlink:href="#b"/>
</g>
<g clip-path="url(#a)">
<use x="937.333333" y="940.904029" fill="#ffffff" stroke="#ffffff" xlink:href="#b"/>
</g>
<g clip-path="url(#a)">
<use x="984.664655" y="940.904029" fill="#ffffff" stroke="#ffffff" xlink:href="#b"/>
</g>
<g clip-path="url(#a)">
<use x="1031.995976" y="940.904029" fill="#ffffff" stroke="#ffffff" xlink:href="#b"/>
</g>
<g clip-path="url(#a)">
<use x="1079.327297" y="940.904029" fill="#ffffff" stroke="#ffffff" xlink:href="#b"/>
</g>
<g clip-path="url(#a)">
<use x="1126.658618" y="940.904029" fill="#ffffff" stroke="#ffffff" xlink:href="#b"/>
</g>
<g clip-path="url(#a)">
<use x="1173.989939" y="940.904029" fill="#ffffff" stroke="#ffffff" xlink:href="#b"/>
</g>
<g clip-path="url(#a)">
<use x="1221.321261" y="940.904029" fill="#ffffff" stroke="#ffffff" xlink:href="#b"/>
</g>
<g clip-path="url(#a)">
<use x="1268.652582" y="940.904029" fill="#ffffff" stroke="#ffffff" xlink:href="#b"/>
</g>
<g clip-path="url(#a)">
<use x="1315.983903" y="940.904029" fill="#ffffff" stroke="#ffffff" xlink:href="#b"/>
</g>
<g clip-path="url(#a)">
<use x="1363.315224" y="940.904029" fill="#ffffff" stroke="#ffffff" xlink:href="#b"/>
</g>
<g clip-path="url(#a)">
<use x="1410.646546" y="940.904029" fill="#ffffff" stroke="#ffffff" xlink:href="#b"/>
</g>
<g clip-path="url(#a)">
<use x="1457.977867" y="940.904029" fill="#ffffff" stroke="#ffffff" xlink:href="#b"/>
</g>
<g clip-path="url(#a)">
<use x="1505.309188" y="940.904029" fill="#ffffff" stroke="#ffffff" xlink:href="#b"/>
</g>
<g clip-path="url(#a)">
<use x="1552.640509" y="940.904029" fill="#ffffff" stroke="#ffffff" xlink:href="#b"/>
</g>
<g clip-path="url(#a)">
<use x="1599.97183" y="940.904029" fill="#ffffff" stroke="#ffffff" xlink:href="#b"/>
</g>
<g clip-path="url(#a)">
<use x="1647.303152" y="940.904029" fill="#ffffff" stroke="#ffffff" xlink:href="#b"/>
</g>
<g clip-path="url(#a)">
<use x="1694.634473" y="940.904029" fill="#ffffff" stroke="#ffffff" xlink:href="#b"/>
</g>
<g clip-path="url(#a)">
<use x="1741.965794" y="940.904029" fill="#ffffff" stroke="#ffffff" xlink:href="#b"/>
</g>
<g clip-path="url(#a)">
<use x="1789.297115" y="940.904029" fill="#ffffff" stroke="#ffffff" xlink:href="#b"/>
</g>
<g clip-path="url(#a)">
<use x="426.02124" y="45.762638" fill="#ffffff" stroke="#ffffff" xlink:href="#b"/>
</g>
<g clip-path="url(#a)">
<use x="109.035212" y="651.598806" fill="#ffffff" stroke="#ffffff" xlink:href="#b"/>
</g>
<g clip-path="url(#a)">
<use x="988.996316" y="202.549713" fill="#ffffff" stroke="#ffffff" xlink:href="#b"/>
</g>
<g clip-path="url(#a)">
<use x="286.527666" y="504.933917" fill="#ffffff" stroke="#ffffff" xlink:href="#b"/>
</g>
<g clip-path="url(#a)">
<use x="675.038928" y="355.444886" fill="#ffffff" stroke="#ffffff" xlink:href="#b"/>
</g>
<g clip-path="url(#a)">
<use x="1221.321261" y="796.251417" fill="#ffffff" stroke="#ffffff" xlink:href="#b"/>
</g>
<g clip-path="url(#a)">
<use x="1323.872457" y="504.933917" fill="#ffffff" stroke="#ffffff" xlink:href="#b"/>
</g>
<g clip-path="url(#a)">
<use x="1640.541534" y="504.933917" fill="#ffffff" stroke="#ffffff" xlink:href="#b"/>
</g>
<g clip-path="url(#a)">
<use x="1457.977867" y="651.598806" fill="#ffffff" stroke="#ffffff" xlink:href="#b"/>
</g>
<g clip-path="url(#a)">
<use x="1552.640509" y="796.251417" fill="#ffffff" stroke="#ffffff" xlink:href="#b"/>
</g>
<g clip-path="url(#a)">
<use x="1599.97183" y="796.251417" fill="#ffffff" stroke="#ffffff" xlink:href="#b"/>
</g>
<g clip-path="url(#a)">
<use x="1647.303152" y="796.251417" fill="#ffffff" stroke="#ffffff" xlink:href="#b"/>
</g>
<g clip-path="url(#a)">
<use x="1694.634473" y="796.251417" fill="#ffffff" stroke="#ffffff" xlink:href="#b"/>
</g>
<g clip-path="url(#a)">
<use x="1741.965794" y="796.251417" fill="#ffffff" stroke="#ffffff" xlink:href="#b"/>
</g>
<g clip-path="url(#a)">
<use x="1410.646546" y="796.251417" fill="#ffffff" stroke="#ffffff" xlink:href="#b"/>
</g>
<g clip-path="url(#a)">
<use x="1457.977867" y="796.251417" fill="#ffffff" stroke="#ffffff" xlink:href="#b"/>
</g>
<g clip-path="url(#a)">
<use x="1505.309188" y="796.251417" fill="#ffffff" stroke="#ffffff" xlink:href="#b"/>
</g>
<g clip-path="url(#a)">
<use x="1268.652582" y="796.251417" fill="#ffffff" stroke="#ffffff" xlink:href="#b"/>
</g>
<g clip-path="url(#a)">
<use x="1339.649564" y="651.598806" fill="#ffffff" stroke="#ffffff" xlink:href="#b"/>
</g>
<g clip-path="url(#a)">
<use x="1363.315224" y="796.251417" fill="#ffffff" stroke="#ffffff" xlink:href="#b"/>
</g>
<g clip-path="url(#a)">
<use x="1315.983903" y="796.251417" fill="#ffffff" stroke="#ffffff" xlink:href="#b"/>
</g>
<g clip-path="url(#a)">
<use x="535.017103" y="651.598806" fill="#ffffff" stroke="#ffffff" xlink:href="#b"/>
</g>
<g clip-path="url(#a)">
<use x="629.679745" y="796.251417" fill="#ffffff" stroke="#ffffff" xlink:href="#b"/>
</g>
<g clip-path="url(#a)">
<use x="834.782137" y="504.933917" fill="#ffffff" stroke="#ffffff" xlink:href="#b"/>
</g>
<g clip-path="url(#a)">
<use x="748.008048" y="796.251417" fill="#ffffff" stroke="#ffffff" xlink:href="#b"/>
</g>
<g clip-path="url(#a)">
<use x="795.33937" y="796.251417" fill="#ffffff" stroke="#ffffff" xlink:href="#b"/>
</g>
<g clip-path="url(#a)">
<use x="960.998994" y="651.598806" fill="#ffffff" stroke="#ffffff" xlink:href="#b"/>
</g>
<g clip-path="url(#a)">
<use x="511.351442" y="796.251417" fill="#ffffff" stroke="#ffffff" xlink:href="#b"/>
</g>
<g clip-path="url(#a)">
<use x="558.682764" y="796.251417" fill="#ffffff" stroke="#ffffff" xlink:href="#b"/>
</g>
<g clip-path="url(#a)">
<use x="227.363515" y="796.251417" fill="#ffffff" stroke="#ffffff" xlink:href="#b"/>
</g>
<g clip-path="url(#a)">
<use x="345.691818" y="651.598806" fill="#ffffff" stroke="#ffffff" xlink:href="#b"/>
</g>
<g clip-path="url(#a)">
<use x="180.032194" y="796.251417" fill="#ffffff" stroke="#ffffff" xlink:href="#b"/>
</g>
<g clip-path="url(#a)">
<use x="85.369551" y="796.251417" fill="#ffffff" stroke="#ffffff" xlink:href="#b"/>
</g>
<g clip-path="url(#a)">
<use x="132.700873" y="796.251417" fill="#ffffff" stroke="#ffffff" xlink:href="#b"/>
</g>
<g clip-path="url(#a)">
<use x="549.015764" y="45.762638" fill="#808080" stroke="#808080" xlink:href="#b"/>
</g>
<g clip-path="url(#a)">
<use x="369.357479" y="796.251417" fill="#ffffff" stroke="#ffffff" xlink:href="#b"/>
</g>
<g clip-path="url(#a)">
<use x="464.020121" y="796.251417" fill="#ffffff" stroke="#ffffff" xlink:href="#b"/>
</g>
<g clip-path="url(#a)">
<use x="700.676727" y="796.251417" fill="#ffffff" stroke="#ffffff" xlink:href="#b"/>
</g>
<g clip-path="url(#a)">
<use x="890.002012" y="796.251417" fill="#ffffff" stroke="#ffffff" xlink:href="#b"/>
</g>
<g clip-path="url(#a)">
<use x="1126.658618" y="796.251417" fill="#ffffff" stroke="#ffffff" xlink:href="#b"/>
</g>
<g clip-path="url(#a)">
<use x="1173.989939" y="796.251417" fill="#ffffff" stroke="#ffffff" xlink:href="#b"/>
</g>
<g clip-path="url(#a)">
<use x="1789.297115" y="796.251417" fill="#ffffff" stroke="#ffffff" xlink:href="#b"/>
</g>
<g clip-path="url(#a)">
<defs>
<path id="aq" d="m9.8125 72.906h9.8594v-72.906h-9.8594z"/>
</defs>
<g transform="translate(80.726 943.66) scale(.1 -.1)">
<use xlink:href="#aq"/>
<use x="29.492188" xlink:href="#e"/>
</g>
</g>
<g clip-path="url(#a)">
<defs>
<path id="q" d="m44.281 53.078v-8.5q-3.7969 1.9531-7.9062 2.9219-4.0938 0.98438-8.5 0.98438-6.6875 0-10.031-2.0469t-3.3438-6.1562q0-3.125 2.3906-4.9062t9.625-3.3906l3.0781-0.6875q9.5625-2.0469 13.594-5.7812t4.0312-10.422q0-7.625-6.0312-12.078-6.0312-4.4375-16.578-4.4375-4.3906 0-9.1562 0.85938t-10.031 2.5625v9.2812q4.9844-2.5938 9.8125-3.8906 4.8281-1.2812 9.5781-1.2812 6.3438 0 9.75 2.1719 3.4219 2.1719 3.4219 6.125 0 3.6562-2.4688 5.6094-2.4531 1.9531-10.812 3.7656l-3.125 0.73438q-8.3438 1.75-12.062 5.3906-3.7031 3.6406-3.7031 9.9844 0 7.7188 5.4688 11.906 5.4688 4.2031 15.531 4.2031 4.9688 0 9.3594-0.73438 4.4062-0.71875 8.1094-2.1875z"/>
<path id="af" d="m48.781 52.594v-8.4062q-3.8125 2.1094-7.6406 3.1562t-7.7344 1.0469q-8.75 0-13.594-5.5469-4.8281-5.5312-4.8281-15.547t4.8281-15.562q4.8438-5.5312 13.594-5.5312 3.9062 0 7.7344 1.0469t7.6406 3.1562v-8.3125q-3.7656-1.75-7.7969-2.625-4.0156-0.89062-8.5625-0.89062-12.359 0-19.641 7.7656-7.2656 7.7656-7.2656 20.953 0 13.375 7.3438 21.031 7.3594 7.6719 20.156 7.6719 4.1406 0 8.0938-0.85938 3.9531-0.84375 7.6719-2.5469z"/>
</defs>
<g transform="translate(112.34 943.66) scale(.1 -.1)">
<use xlink:href="#c"/>
<use x="61.523438" xlink:href="#q"/>
<use x="113.623047" xlink:href="#q"/>
<use x="165.722656" xlink:href="#c"/>
<use x="227.246094" xlink:href="#e"/>
<use x="290.625" xlink:href="#af"/>
<use x="345.605469" xlink:href="#c"/>
</g>
</g>
<g clip-path="url(#a)">
<defs>
<path id="ac" d="m11.719 12.406h10.297v-8.4062l-8-15.625h-6.2969l4 15.625z"/>
</defs>
<g transform="translate(178.44 943.66) scale(.1 -.1)">
<use xlink:href="#ac"/>
</g>
</g>
<g clip-path="url(#a)">
<defs>
<path id="r" d="m30.609 48.391q-7.2188 0-11.422-5.6406t-4.2031-15.453 4.1719-15.453q4.1875-5.6406 11.453-5.6406 7.1875 0 11.375 5.6562 4.2031 5.6719 4.2031 15.438 0 9.7188-4.2031 15.406-4.1875 5.6875-11.375 5.6875zm0 7.6094q11.719 0 18.406-7.625 6.7031-7.6094 6.7031-21.078 0-13.422-6.7031-21.078-6.6875-7.6406-18.406-7.6406-11.766 0-18.438 7.6406-6.6562 7.6562-6.6562 21.078 0 13.469 6.6562 21.078 6.6719 7.625 18.438 7.625z"/>
</defs>
<g transform="translate(221.14 943.66) scale(.1 -.1)">
<use xlink:href="#r"/>
<use x="61.181641" xlink:href="#e"/>
</g>
</g>
<g clip-path="url(#a)">
<defs>
<path id="ap" d="m9.8125 72.906h9.8594v-67.828q0-13.188-5-19.141t-16.094-5.9531h-3.75v8.2969h3.0781q6.5312 0 9.2188 3.6719 2.6875 3.6562 2.6875 13.125z"/>
<path id="ad" d="m8.5 21.578v33.109h8.9844v-32.766q0-7.7656 3.0156-11.656 3.0312-3.875 9.0938-3.875 7.2656 0 11.484 4.6406 4.2344 4.6406 4.2344 12.656v31h8.9844v-54.688h-8.9844v8.4062q-3.2656-4.9844-7.5938-7.4062-4.3125-2.4219-10.031-2.4219-9.4219 0-14.312 5.8594-4.875 5.8594-4.875 17.141z"/>
<path id="au" d="m32.172-5.0781q-3.7969-9.7656-7.4219-12.734-3.6094-2.9844-9.6562-2.9844h-7.1875v7.5156h5.2812q3.7031 0 5.75 1.7656 2.0625 1.75 4.5469 8.2969l1.6094 4.0938-22.109 53.812h9.5156l17.094-42.766 17.094 42.766h9.5156z"/>
</defs>
<g transform="translate(265.7 943.66) scale(.1 -.1)">
<use xlink:href="#ap"/>
<use x="29.492188" xlink:href="#ad"/>
<use x="92.871094" xlink:href="#k"/>
<use x="120.654297" xlink:href="#au"/>
</g>
</g>
<g clip-path="url(#a)">
<defs>
<path id="m" d="m19.188 8.2969h34.422v-8.2969h-46.281v8.2969q5.6094 5.8125 15.297 15.594 9.7031 9.7969 12.188 12.641 4.7344 5.3125 6.6094 9 1.8906 3.6875 1.8906 7.25 0 5.8125-4.0781 9.4688-4.0781 3.6719-10.625 3.6719-4.6406 0-9.7969-1.6094-5.1406-1.6094-11-4.8906v9.9688q5.9531 2.3906 11.125 3.6094 5.1875 1.2188 9.4844 1.2188 11.328 0 18.062-5.6719 6.7344-5.6562 6.7344-15.125 0-4.5-1.6875-8.5312-1.6719-4.0156-6.125-9.4844-1.2188-1.4219-7.7656-8.1875-6.5312-6.7656-18.453-18.922z"/>
<path id="ah" d="m31.781 66.406q-7.6094 0-11.453-7.5-3.8281-7.4844-3.8281-22.531 0-14.984 3.8281-22.484 3.8438-7.5 11.453-7.5 7.6719 0 11.5 7.5 3.8438 7.5 3.8438 22.484 0 15.047-3.8438 22.531-3.8281 7.5-11.5 7.5zm0 7.8125q12.266 0 18.734-9.7031 6.4688-9.6875 6.4688-28.141 0-18.406-6.4688-28.109-6.4688-9.6875-18.734-9.6875-12.25 0-18.719 9.6875-6.4688 9.7031-6.4688 28.109 0 18.453 6.4688 28.141 6.4688 9.7031 18.719 9.7031z"/>
</defs>
<g transform="translate(315.66 943.66) scale(.1 -.1)">
<use xlink:href="#m"/>
<use x="63.623047" xlink:href="#ah"/>
</g>
</g>
<g clip-path="url(#a)">
<g transform="translate(367.77 943.66) scale(.1 -.1)">
<use xlink:href="#ac"/>
</g>
</g>
<g clip-path="url(#a)">
<defs>
<path id="d" d="m12.406 8.2969h16.109v55.625l-17.531-3.5156v8.9844l17.438 3.5156h9.8594v-64.609h16.109v-8.2969h-41.984z"/>
<path id="y" d="m31.781 34.625q-7.0312 0-11.062-3.7656-4.0156-3.7656-4.0156-10.344 0-6.5938 4.0156-10.359 4.0312-3.7656 11.062-3.7656t11.078 3.7812q4.0625 3.7969 4.0625 10.344 0 6.5781-4.0312 10.344-4.0156 3.7656-11.109 3.7656zm-9.8594 4.1875q-6.3438 1.5625-9.8906 5.9062-3.5312 4.3594-3.5312 10.609 0 8.7344 6.2188 13.812 6.2344 5.0781 17.062 5.0781 10.891 0 17.094-5.0781t6.2031-13.812q0-6.25-3.5469-10.609-3.5312-4.3438-9.8281-5.9062 7.125-1.6562 11.094-6.5 3.9844-4.8281 3.9844-11.797 0-10.609-6.4688-16.281-6.4688-5.6562-18.531-5.6562-12.047 0-18.531 5.6562-6.4688 5.6719-6.4688 16.281 0 6.9688 4 11.797 4.0156 4.8438 11.141 6.5zm-3.6094 15.578q0-5.6562 3.5312-8.8281 3.5469-3.1719 9.9375-3.1719 6.3594 0 9.9375 3.1719 3.5938 3.1719 3.5938 8.8281 0 5.6719-3.5938 8.8438-3.5781 3.1719-9.9375 3.1719-6.3906 0-9.9375-3.1719-3.5312-3.1719-3.5312-8.8438z"/>
<path id="v" d="m33.016 40.375q-6.6406 0-10.531-4.5469-3.875-4.5312-3.875-12.438 0-7.8594 3.875-12.438 3.8906-4.5625 10.531-4.5625t10.516 4.5625q3.875 4.5781 3.875 12.438 0 7.9062-3.875 12.438-3.875 4.5469-10.516 4.5469zm19.578 30.922v-8.9844q-3.7188 1.75-7.5 2.6719-3.7812 0.9375-7.5 0.9375-9.7656 0-14.922-6.5938-5.1406-6.5938-5.875-19.922 2.875 4.25 7.2188 6.5156 4.3594 2.2656 9.5781 2.2656 10.984 0 17.359-6.6719 6.375-6.6562 6.375-18.125 0-11.234-6.6406-18.031-6.6406-6.7812-17.672-6.7812-12.656 0-19.344 9.6875-6.6875 9.7031-6.6875 28.109 0 17.281 8.2031 27.562t22.016 10.281q3.7188 0 7.5-0.73438t7.8906-2.1875z"/>
</defs>
<g transform="translate(403.96 943.66) scale(.1 -.1)">
<use xlink:href="#d"/>
<use x="63.623047" xlink:href="#y"/>
<use x="127.246094" xlink:href="#v"/>
<use x="190.869141" xlink:href="#v"/>
</g>
</g>
<g clip-path="url(#a)">
<g transform="translate(462.43 943.66) scale(.1 -.1)">
<use xlink:href="#ac"/>
</g>
</g>
<g clip-path="url(#a)">
<defs>
<path id="p" d="m18.312 70.219v-15.531h18.5v-6.9844h-18.5v-29.688q0-6.6875 1.8281-8.5938t7.4531-1.9062h9.2188v-7.5156h-9.2188q-10.406 0-14.359 3.875-3.9531 3.8906-3.9531 14.141v29.688h-6.5938v6.9844h6.5938v15.531z"/>
<path id="z" d="m54.891 33.016v-33.016h-8.9844v32.719q0 7.7656-3.0312 11.609-3.0312 3.8594-9.0781 3.8594-7.2812 0-11.484-4.6406-4.2031-4.625-4.2031-12.641v-30.906h-9.0312v75.984h9.0312v-29.797q3.2344 4.9375 7.5938 7.375 4.375 2.4375 10.094 2.4375 9.4219 0 14.25-5.8281 4.8438-5.8281 4.8438-17.156z"/>
</defs>
<g transform="translate(503.15 943.66) scale(.1 -.1)">
<use xlink:href="#p"/>
<use x="39.208984" xlink:href="#z"/>
<use x="102.587891" xlink:href="#c"/>
</g>
</g>
<g clip-path="url(#a)">
<g transform="translate(537.97 943.66) scale(.1 -.1)">
<use xlink:href="#q"/>
<use x="52.099609" xlink:href="#p"/>
<use x="91.308594" xlink:href="#c"/>
<use x="152.832031" xlink:href="#f"/>
<use x="214.111328" xlink:href="#j"/>
<use x="311.523438" xlink:href="#c"/>
<use x="373.046875" xlink:href="#g"/>
</g>
</g>
<g clip-path="url(#a)">
<defs>
<path id="ar" d="m59.516 10.406v19.578h-16.109v8.1094h25.875v-31.312q-5.7031-4.0469-12.594-6.125-6.875-2.0781-14.688-2.0781-17.094 0-26.75 9.9844-9.6406 10-9.6406 27.812 0 17.875 9.6406 27.859 9.6562 9.9844 26.75 9.9844 7.125 0 13.547-1.7656 6.4219-1.75 11.844-5.1719v-10.5q-5.4688 4.6406-11.625 6.9844t-12.938 2.3438q-13.391 0-20.109-7.4688-6.7031-7.4688-6.7031-22.266 0-14.75 6.7031-22.219 6.7188-7.4688 20.109-7.4688 5.2188 0 9.3125 0.90625 4.1094 0.90625 7.375 2.8125z"/>
<path id="ai" d="m2.9844 54.688h9.5156l17.094-45.891 17.094 45.891h9.5156l-20.516-54.688h-12.203z"/>
</defs>
<g transform="translate(582.71 943.66) scale(.1 -.1)">
<use xlink:href="#ar"/>
<use x="77.490234" xlink:href="#r"/>
<use x="138.671875" xlink:href="#ai"/>
<use x="197.851562" xlink:href="#c"/>
<use x="259.375" xlink:href="#g"/>
<use x="300.472656" xlink:href="#e"/>
<use x="363.851562" xlink:href="#r"/>
<use x="425.033203" xlink:href="#g"/>
</g>
</g>
<g clip-path="url(#a)">
<defs>
<path id="aj" d="m45.406 27.984q0 9.7656-4.0312 15.125-4.0156 5.375-11.297 5.375-7.2188 0-11.25-5.375-4.0312-5.3594-4.0312-15.125 0-9.7188 4.0312-15.094t11.25-5.375q7.2812 0 11.297 5.375 4.0312 5.375 4.0312 15.094zm8.9844-21.203q0-13.953-6.2031-20.766-6.1875-6.8125-18.984-6.8125-4.7344 0-8.9375 0.70312t-8.1562 2.1719v8.7344q3.9531-2.1406 7.8125-3.1562 3.8594-1.0312 7.8594-1.0312 8.8438 0 13.234 4.6094t4.3906 13.938v4.4531q-2.7812-4.8438-7.125-7.2344t-10.406-2.3906q-10.047 0-16.203 7.6562-6.1562 7.6719-6.1562 20.328 0 12.688 6.1562 20.344 6.1562 7.6719 16.203 7.6719 6.0625 0 10.406-2.3906t7.125-7.2188v8.2969h8.9844z"/>
</defs>
<g transform="translate(628.46 943.66) scale(.1 -.1)">
<use xlink:href="#am"/>
<use x="75.195312" xlink:href="#h"/>
<use x="102.978516" xlink:href="#aj"/>
<use x="166.455078" xlink:href="#aj"/>
<use x="229.931641" xlink:href="#h"/>
<use x="257.714844" xlink:href="#e"/>
<use x="321.09375" xlink:href="#q"/>
<use x="373.193359" xlink:href="#r"/>
<use x="434.375" xlink:href="#e"/>
</g>
</g>
<g clip-path="url(#a)">
<g transform="translate(699.09 943.66) scale(.1 -.1)">
<use xlink:href="#ac"/>
</g>
</g>
<g clip-path="url(#a)">
<defs>
<path id="ae" d="m37.109 75.984v-7.4844h-8.5938q-4.8281 0-6.7188-1.9531-1.875-1.9531-1.875-7.0312v-4.8281h14.797v-6.9844h-14.797v-47.703h-9.0312v47.703h-8.5938v6.9844h8.5938v3.8125q0 9.125 4.25 13.297 4.25 4.1875 13.469 4.1875z"/>
</defs>
<g transform="translate(736.26 943.66) scale(.1 -.1)">
<use xlink:href="#ae"/>
<use x="35.205078" xlink:href="#g"/>
<use x="76.287109" xlink:href="#r"/>
<use x="137.46875" xlink:href="#j"/>
</g>
</g>
<g clip-path="url(#a)">
<g transform="translate(787.13 943.66) scale(.1 -.1)">
<use xlink:href="#p"/>
<use x="39.208984" xlink:href="#z"/>
<use x="102.587891" xlink:href="#c"/>
</g>
</g>
<g clip-path="url(#a)">
<g transform="translate(821.82 943.66) scale(.1 -.1)">
<use xlink:href="#t"/>
<use x="69.824219" xlink:href="#f"/>
<use x="131.103516" xlink:href="#k"/>
<use x="158.886719" xlink:href="#af"/>
<use x="213.867188" xlink:href="#ad"/>
<use x="277.246094" xlink:href="#p"/>
<use x="316.455078" xlink:href="#p"/>
<use x="355.664062" xlink:href="#f"/>
</g>
</g>
<g clip-path="url(#a)">
<defs>
<path id="at" d="m24.312 39.203q-4.4375-3.9531-6.5156-7.8906-2.0781-3.9219-2.0781-8.2188 0-7.125 5.1719-11.859 5.1875-4.7344 13-4.7344 4.6406 0 8.6875 1.5312 4.0469 1.5469 7.625 4.6719zm6.8906 5.4688 24.797-25.391q2.8906 4.3594 4.5 9.3125t1.9062 10.516h9.0781q-0.57812-6.4375-3.125-12.75-2.5312-6.2969-7.0781-12.438l13.625-13.922h-12.312l-6.9844 7.1719q-5.0781-4.3438-10.641-6.4688t-11.953-2.125q-11.781 0-19.25 6.7188t-7.4688 17.219q0 6.25 3.2656 11.734 3.2812 5.5 9.8281 10.328-2.3438 3.0781-3.5781 6.125-1.2188 3.0625-1.2188 5.9844 0 7.9062 5.4219 12.719t14.406 4.8125q4.0625 0 8.0781-0.875 4.0312-0.875 8.1875-2.6406v-8.8906q-4.25 2.2969-8.1094 3.4844-3.8594 1.2031-7.1719 1.2031-5.125 0-8.3281-2.7188-3.2031-2.7031-3.2031-7 0-2.4844 1.4375-5 1.4531-2.5156 5.8906-7.1094z"/>
</defs>
<g transform="translate(886.1 943.66) scale(.1 -.1)">
<use xlink:href="#at"/>
</g>
</g>
<g clip-path="url(#a)">
<defs>
<path id="as" d="m19.672 34.812v-26.703h15.828q7.9531 0 11.781 3.2969 3.8438 3.2969 3.8438 10.078 0 6.8438-3.8438 10.078-3.8281 3.25-11.781 3.25zm0 29.984v-21.969h14.609q7.2188 0 10.75 2.7031 3.5469 2.7188 3.5469 8.2812 0 5.5156-3.5469 8.25-3.5312 2.7344-10.75 2.7344zm-9.8594 8.1094h25.203q11.281 0 17.375-4.6875 6.1094-4.6875 6.1094-13.328 0-6.7031-3.125-10.656t-9.1875-4.9219q7.2812-1.5625 11.312-6.5312 4.0312-4.9531 4.0312-12.375 0-9.7656-6.6406-15.094-6.6406-5.3125-18.906-5.3125h-26.172z"/>
</defs>
<g transform="translate(916.53 943.66) scale(.1 -.1)">
<use xlink:href="#as"/>
<use x="68.603516" xlink:href="#ad"/>
<use x="131.982422" xlink:href="#g"/>
<use x="173.080078" xlink:href="#e"/>
<use x="236.458984" xlink:href="#f"/>
<use x="297.738281" xlink:href="#af"/>
<use x="352.71875" xlink:href="#z"/>
</g>
</g>
<g clip-path="url(#a)">
<defs>
<path id="an" d="m53.516 70.516v-9.625q-5.6094 2.6875-10.594 4-4.9844 1.3281-9.625 1.3281-8.0469 0-12.422-3.125t-4.375-8.8906q0-4.8438 2.9062-7.3125 2.9062-2.4531 11.016-3.9688l5.9531-1.2188q11.031-2.1094 16.281-7.4062t5.25-14.172q0-10.609-7.1094-16.078-7.0938-5.4688-20.812-5.4688-5.1719 0-11.016 1.1719-5.8281 1.1719-12.078 3.4688v10.156q6-3.3594 11.766-5.0781 5.7656-1.7031 11.328-1.7031 8.4375 0 13.031 3.3125 4.5938 3.3281 4.5938 9.4844 0 5.3594-3.2969 8.3906t-10.812 4.5469l-6.0156 1.1719q-11.031 2.1875-15.969 6.875-4.9219 4.6875-4.9219 13.047 0 9.6719 6.8125 15.234t18.766 5.5625q5.1406 0 10.453-0.9375 5.3281-0.92188 10.891-2.7656z"/>
</defs>
<g transform="translate(968.52 943.66) scale(.1 -.1)">
<use xlink:href="#an"/>
<use x="63.476562" xlink:href="#p"/>
<use x="102.685547" xlink:href="#c"/>
<use x="164.208984" xlink:href="#f"/>
<use x="225.488281" xlink:href="#j"/>
</g>
</g>
<g clip-path="url(#a)">
<defs>
<path id="ao" d="m9.8125 72.906h13.281l32.328-60.984v60.984h9.5625v-72.906h-13.281l-32.312 60.984v-60.984h-9.5781z"/>
</defs>
<g transform="translate(1005 943.66) scale(.1 -.1)">
<use xlink:href="#ao"/>
<use x="74.804688" xlink:href="#f"/>
<use x="136.083984" xlink:href="#ai"/>
<use x="195.263672" xlink:href="#h"/>
<use x="223.046875" xlink:href="#aj"/>
<use x="286.523438" xlink:href="#f"/>
<use x="347.802734" xlink:href="#p"/>
<use x="387.011719" xlink:href="#h"/>
<use x="414.794922" xlink:href="#r"/>
<use x="475.976562" xlink:href="#e"/>
</g>
</g>
<g clip-path="url(#a)">
<g transform="translate(1072.8 943.66) scale(.1 -.1)">
<use xlink:href="#t"/>
<use x="69.824219" xlink:href="#r"/>
</g>
</g>
<g clip-path="url(#a)">
<defs>
<path id="i" d="m10.688 12.406h10.312v-12.406h-10.312z"/>
</defs>
<g transform="translate(1125.1 943.66) scale(.1 -.1)">
<use xlink:href="#i"/>
</g>
</g>
<g clip-path="url(#a)">
<g transform="translate(1172.4 943.66) scale(.1 -.1)">
<use xlink:href="#ac"/>
</g>
</g>
<g clip-path="url(#a)">
<defs>
<path id="av" d="m45.406 46.391v29.594h8.9844v-75.984h-8.9844v8.2031q-2.8281-4.875-7.1562-7.25-4.3125-2.375-10.375-2.375-9.9062 0-16.141 7.9062-6.2188 7.9219-6.2188 20.812t6.2188 20.797q6.2344 7.9062 16.141 7.9062 6.0625 0 10.375-2.375 4.3281-2.3594 7.1562-7.2344zm-30.609-19.094q0-9.9062 4.0781-15.547t11.203-5.6406 11.219 5.6406q4.1094 5.6406 4.1094 15.547t-4.1094 15.547q-4.0938 5.6406-11.219 5.6406t-11.203-5.6406-4.0781-15.547z"/>
</defs>
<g transform="translate(1189.6 943.66) scale(.1 -.1)">
<use xlink:href="#c"/>
<use x="61.523438" xlink:href="#e"/>
<use x="124.902344" xlink:href="#af"/>
<use x="179.882812" xlink:href="#r"/>
<use x="241.064453" xlink:href="#ad"/>
<use x="304.443359" xlink:href="#e"/>
<use x="367.822266" xlink:href="#p"/>
<use x="407.03125" xlink:href="#c"/>
<use x="468.554688" xlink:href="#g"/>
<use x="509.636719" xlink:href="#c"/>
<use x="571.160156" xlink:href="#av"/>
</g>
</g>
<g clip-path="url(#a)">
<g transform="translate(1259.5 943.66) scale(.1 -.1)">
<use xlink:href="#p"/>
<use x="39.208984" xlink:href="#z"/>
<use x="102.587891" xlink:href="#h"/>
<use x="130.371094" xlink:href="#q"/>
</g>
</g>
<g clip-path="url(#a)">
<g transform="translate(1297.4 943.66) scale(.1 -.1)">
<use xlink:href="#j"/>
<use x="97.412109" xlink:href="#r"/>
<use x="158.59375" xlink:href="#ai"/>
<use x="217.773438" xlink:href="#h"/>
<use x="245.556641" xlink:href="#e"/>
<use x="308.935547" xlink:href="#aj"/>
</g>
</g>
<g clip-path="url(#a)">
<g transform="translate(1350.2 943.66) scale(.1 -.1)">
<use xlink:href="#j"/>
<use x="97.412109" xlink:href="#f"/>
<use x="158.691406" xlink:href="#q"/>
<use x="210.791016" xlink:href="#q"/>
</g>
</g>
<g clip-path="url(#a)">
<g transform="translate(1401.5 943.66) scale(.1 -.1)">
<use xlink:href="#ae"/>
<use x="35.205078" xlink:href="#h"/>
<use x="62.988281" xlink:href="#ai"/>
<use x="122.167969" xlink:href="#c"/>
</g>
</g>
<g clip-path="url(#a)">
<g transform="translate(1444.6 943.66) scale(.1 -.1)">
<use xlink:href="#j"/>
<use x="97.412109" xlink:href="#h"/>
<use x="125.195312" xlink:href="#k"/>
<use x="152.978516" xlink:href="#c"/>
<use x="214.501953" xlink:href="#q"/>
</g>
</g>
<g clip-path="url(#a)">
<g transform="translate(1498.7 943.66) scale(.1 -.1)">
<use xlink:href="#r"/>
<use x="61.181641" xlink:href="#ae"/>
<use x="96.386719" xlink:href="#ae"/>
</g>
</g>
<g clip-path="url(#a)">
<g transform="translate(1544.4 943.66) scale(.1 -.1)">
<use xlink:href="#p"/>
<use x="39.208984" xlink:href="#z"/>
<use x="102.587891" xlink:href="#c"/>
</g>
</g>
<g clip-path="url(#a)">
<g transform="translate(1581 943.66) scale(.1 -.1)">
<use xlink:href="#c"/>
<use x="61.523438" xlink:href="#f"/>
<use x="122.802734" xlink:href="#q"/>
<use x="174.902344" xlink:href="#p"/>
<use x="214.111328" xlink:href="#c"/>
<use x="275.634766" xlink:href="#g"/>
<use x="316.732422" xlink:href="#e"/>
</g>
</g>
<g clip-path="url(#a)">
<g transform="translate(1630.7 943.66) scale(.1 -.1)">
<use xlink:href="#q"/>
<use x="52.099609" xlink:href="#z"/>
<use x="115.478516" xlink:href="#r"/>
<use x="176.660156" xlink:href="#g"/>
<use x="217.742188" xlink:href="#c"/>
<use x="279.265625" xlink:href="#q"/>
</g>
</g>
<g clip-path="url(#a)">
<g transform="translate(1689.8 943.66) scale(.1 -.1)">
<use xlink:href="#r"/>
<use x="61.181641" xlink:href="#ae"/>
</g>
</g>
<g clip-path="url(#a)">
<g transform="translate(1719.9 943.66) scale(.1 -.1)">
<use xlink:href="#x"/>
<use x="68.408203" xlink:href="#ad"/>
<use x="131.787109" xlink:href="#q"/>
<use x="183.886719" xlink:href="#p"/>
<use x="223.095703" xlink:href="#g"/>
<use x="264.208984" xlink:href="#f"/>
<use x="325.488281" xlink:href="#k"/>
<use x="353.271484" xlink:href="#h"/>
<use x="381.054688" xlink:href="#f"/>
</g>
</g>
<g clip-path="url(#a)">
<g transform="translate(1787.7 943.66) scale(.1 -.1)">
<use xlink:href="#i"/>
</g>
</g>
<g clip-path="url(#a)">
<g transform="translate(418.07 48.522) scale(.1 -.1)">
<use xlink:href="#d"/>
<use x="63.623047" xlink:href="#i"/>
<use x="95.410156" xlink:href="#d"/>
</g>
</g>
<g clip-path="url(#a)">
<g transform="translate(101.08 654.36) scale(.1 -.1)">
<use xlink:href="#d"/>
<use x="63.623047" xlink:href="#i"/>
<use x="95.410156" xlink:href="#m"/>
</g>
</g>
<g clip-path="url(#a)">
<defs>
<path id="o" d="m40.578 39.312q7.0781-1.5156 11.047-6.3125 3.9844-4.7812 3.9844-11.812 0-10.781-7.4219-16.703-7.4219-5.9062-21.094-5.9062-4.5781 0-9.4375 0.90625t-10.031 2.7188v9.5156q4.0938-2.3906 8.9688-3.6094 4.8906-1.2188 10.219-1.2188 9.2656 0 14.125 3.6562t4.8594 10.641q0 6.4531-4.5156 10.078-4.5156 3.6406-12.562 3.6406h-8.5v8.1094h8.8906q7.2656 0 11.125 2.9062t3.8594 8.375q0 5.6094-3.9844 8.6094-3.9688 3.0156-11.391 3.0156-4.0625 0-8.7031-0.89062-4.6406-0.875-10.203-2.7188v8.7812q5.625 1.5625 10.531 2.3438t9.25 0.78125q11.234 0 17.766-5.1094 6.5469-5.0938 6.5469-13.781 0-6.0625-3.4688-10.234t-9.8594-5.7812z"/>
</defs>
<g transform="translate(981.04 205.31) scale(.1 -.1)">
<use xlink:href="#d"/>
<use x="63.623047" xlink:href="#i"/>
<use x="95.410156" xlink:href="#o"/>
</g>
</g>
<g clip-path="url(#a)">
<g transform="translate(278.58 507.69) scale(.1 -.1)">
<use xlink:href="#d"/>
<use x="63.623047" xlink:href="#i"/>
<use x="95.410156" xlink:href="#v"/>
</g>
</g>
<g clip-path="url(#a)">
<defs>
<path id="ab" d="m8.2031 72.906h46.875v-4.2031l-26.469-68.703h-10.297l24.906 64.594h-35.016z"/>
</defs>
<g transform="translate(667.09 358.2) scale(.1 -.1)">
<use xlink:href="#d"/>
<use x="63.623047" xlink:href="#i"/>
<use x="95.410156" xlink:href="#ab"/>
</g>
</g>
<g clip-path="url(#a)">
<g transform="translate(1213.4 799.01) scale(.1 -.1)">
<use xlink:href="#d"/>
<use x="63.623047" xlink:href="#i"/>
<use x="95.410156" xlink:href="#y"/>
</g>
</g>
<g clip-path="url(#a)">
<defs>
<path id="aa" d="m10.984 1.5156v8.9844q3.7188-1.7656 7.5156-2.6875 3.8125-0.92188 7.4844-0.92188 9.7656 0 14.906 6.5625 5.1562 6.5625 5.8906 19.953-2.8281-4.2031-7.1875-6.4531-4.3438-2.25-9.6094-2.25-10.938 0-17.312 6.6094-6.375 6.625-6.375 18.109 0 11.219 6.6406 18 6.6406 6.7969 17.672 6.7969 12.656 0 19.312-9.7031 6.6719-9.6875 6.6719-28.141 0-17.234-8.1875-27.516-8.1719-10.281-21.984-10.281-3.7188 0-7.5312 0.73438-3.7969 0.73438-7.9062 2.2031zm19.625 30.906q6.6406 0 10.516 4.5312 3.8906 4.5469 3.8906 12.469 0 7.8594-3.8906 12.422-3.875 4.5625-10.516 4.5625t-10.516-4.5625-3.875-12.422q0-7.9219 3.875-12.469 3.875-4.5312 10.516-4.5312z"/>
</defs>
<g transform="translate(1315.9 507.69) scale(.1 -.1)">
<use xlink:href="#d"/>
<use x="63.623047" xlink:href="#i"/>
<use x="95.410156" xlink:href="#aa"/>
</g>
</g>
<g clip-path="url(#a)">
<g transform="translate(1629.4 507.69) scale(.1 -.1)">
<use xlink:href="#d"/>
<use x="63.623047" xlink:href="#i"/>
<use x="95.410156" xlink:href="#d"/>
<use x="159.033203" xlink:href="#ah"/>
</g>
</g>
<g clip-path="url(#a)">
<defs>
<path id="n" d="m37.797 64.312-24.906-38.922h24.906zm-2.5938 8.5938h12.406v-47.516h10.406v-8.2031h-10.406v-17.188h-9.8125v17.188h-32.906v9.5156z"/>
</defs>
<g transform="translate(1446.8 654.36) scale(.1 -.1)">
<use xlink:href="#d"/>
<use x="63.623047" xlink:href="#i"/>
<use x="95.410156" xlink:href="#d"/>
<use x="159.033203" xlink:href="#n"/>
</g>
</g>
<g clip-path="url(#a)">
<defs>
<path id="ag" d="m10.797 72.906h38.719v-8.3125h-29.688v-17.859q2.1406 0.73438 4.2812 1.0938 2.1562 0.35938 4.3125 0.35938 12.203 0 19.328-6.6875 7.1406-6.6875 7.1406-18.109 0-11.766-7.3281-18.297-7.3281-6.5156-20.656-6.5156-4.5938 0-9.3594 0.78125-4.75 0.78125-9.8281 2.3438v9.9219q4.3906-2.3906 9.0781-3.5625t9.9062-1.1719q8.4531 0 13.375 4.4375 4.9375 4.4375 4.9375 12.062 0 7.6094-4.9375 12.047-4.9219 4.4531-13.375 4.4531-3.9531 0-7.8906-0.875-3.9219-0.875-8.0156-2.7344z"/>
</defs>
<g transform="translate(1541.5 799.01) scale(.1 -.1)">
<use xlink:href="#d"/>
<use x="63.623047" xlink:href="#i"/>
<use x="95.410156" xlink:href="#d"/>
<use x="159.033203" xlink:href="#ag"/>
</g>
</g>
<g clip-path="url(#a)">
<g transform="translate(1588.8 799.01) scale(.1 -.1)">
<use xlink:href="#d"/>
<use x="63.623047" xlink:href="#i"/>
<use x="95.410156" xlink:href="#d"/>
<use x="159.033203" xlink:href="#v"/>
</g>
</g>
<g clip-path="url(#a)">
<g transform="translate(1636.2 799.01) scale(.1 -.1)">
<use xlink:href="#d"/>
<use x="63.623047" xlink:href="#i"/>
<use x="95.410156" xlink:href="#d"/>
<use x="159.033203" xlink:href="#ab"/>
</g>
</g>
<g clip-path="url(#a)">
<g transform="translate(1683.5 799.01) scale(.1 -.1)">
<use xlink:href="#d"/>
<use x="63.623047" xlink:href="#i"/>
<use x="95.410156" xlink:href="#d"/>
<use x="159.033203" xlink:href="#y"/>
</g>
</g>
<g clip-path="url(#a)">
<g transform="translate(1730.8 799.01) scale(.1 -.1)">
<use xlink:href="#d"/>
<use x="63.623047" xlink:href="#i"/>
<use x="95.410156" xlink:href="#d"/>
<use x="159.033203" xlink:href="#aa"/>
</g>
</g>
<g clip-path="url(#a)">
<g transform="translate(1399.5 799.01) scale(.1 -.1)">
<use xlink:href="#d"/>
<use x="63.623047" xlink:href="#i"/>
<use x="95.410156" xlink:href="#m"/>
<use x="159.033203" xlink:href="#ah"/>
</g>
</g>
<g clip-path="url(#a)">
<g transform="translate(1446.8 799.01) scale(.1 -.1)">
<use xlink:href="#d"/>
<use x="63.623047" xlink:href="#i"/>
<use x="95.410156" xlink:href="#m"/>
<use x="159.033203" xlink:href="#d"/>
</g>
</g>
<g clip-path="url(#a)">
<g transform="translate(1494.2 799.01) scale(.1 -.1)">
<use xlink:href="#d"/>
<use x="63.623047" xlink:href="#i"/>
<use x="95.410156" xlink:href="#m"/>
<use x="159.033203" xlink:href="#m"/>
</g>
</g>
<g clip-path="url(#a)">
<g transform="translate(1257.5 799.01) scale(.1 -.1)">
<use xlink:href="#d"/>
<use x="63.623047" xlink:href="#i"/>
<use x="95.410156" xlink:href="#m"/>
<use x="159.033203" xlink:href="#o"/>
</g>
</g>
<g clip-path="url(#a)">
<g transform="translate(1328.5 654.36) scale(.1 -.1)">
<use xlink:href="#d"/>
<use x="63.623047" xlink:href="#i"/>
<use x="95.410156" xlink:href="#m"/>
<use x="159.033203" xlink:href="#n"/>
</g>
</g>
<g clip-path="url(#a)">
<g transform="translate(1352.2 799.01) scale(.1 -.1)">
<use xlink:href="#d"/>
<use x="63.623047" xlink:href="#i"/>
<use x="95.410156" xlink:href="#m"/>
<use x="159.033203" xlink:href="#ag"/>
</g>
</g>
<g clip-path="url(#a)">
<g transform="translate(1304.9 799.01) scale(.1 -.1)">
<use xlink:href="#d"/>
<use x="63.623047" xlink:href="#i"/>
<use x="95.410156" xlink:href="#m"/>
<use x="159.033203" xlink:href="#v"/>
</g>
</g>
<g clip-path="url(#a)">
<g transform="translate(523.88 654.36) scale(.1 -.1)">
<use xlink:href="#d"/>
<use x="63.623047" xlink:href="#i"/>
<use x="95.410156" xlink:href="#m"/>
<use x="159.033203" xlink:href="#ab"/>
</g>
</g>
<g clip-path="url(#a)">
<g transform="translate(618.55 799.01) scale(.1 -.1)">
<use xlink:href="#d"/>
<use x="63.623047" xlink:href="#i"/>
<use x="95.410156" xlink:href="#m"/>
<use x="159.033203" xlink:href="#y"/>
</g>
</g>
<g clip-path="url(#a)">
<g transform="translate(823.65 507.69) scale(.1 -.1)">
<use xlink:href="#d"/>
<use x="63.623047" xlink:href="#i"/>
<use x="95.410156" xlink:href="#m"/>
<use x="159.033203" xlink:href="#aa"/>
</g>
</g>
<g clip-path="url(#a)">
<g transform="translate(736.88 799.01) scale(.1 -.1)">
<use xlink:href="#d"/>
<use x="63.623047" xlink:href="#i"/>
<use x="95.410156" xlink:href="#o"/>
<use x="159.033203" xlink:href="#d"/>
</g>
</g>
<g clip-path="url(#a)">
<g transform="translate(784.21 799.01) scale(.1 -.1)">
<use xlink:href="#d"/>
<use x="63.623047" xlink:href="#i"/>
<use x="95.410156" xlink:href="#o"/>
<use x="159.033203" xlink:href="#m"/>
</g>
</g>
<g clip-path="url(#a)">
<g transform="translate(949.87 654.36) scale(.1 -.1)">
<use xlink:href="#d"/>
<use x="63.623047" xlink:href="#i"/>
<use x="95.410156" xlink:href="#o"/>
<use x="159.033203" xlink:href="#o"/>
</g>
</g>
<g clip-path="url(#a)">
<g transform="translate(500.22 799.01) scale(.1 -.1)">
<use xlink:href="#d"/>
<use x="63.623047" xlink:href="#i"/>
<use x="95.410156" xlink:href="#o"/>
<use x="159.033203" xlink:href="#ag"/>
</g>
</g>
<g clip-path="url(#a)">
<g transform="translate(547.55 799.01) scale(.1 -.1)">
<use xlink:href="#d"/>
<use x="63.623047" xlink:href="#i"/>
<use x="95.410156" xlink:href="#o"/>
<use x="159.033203" xlink:href="#v"/>
</g>
</g>
<g clip-path="url(#a)">
<g transform="translate(216.23 799.01) scale(.1 -.1)">
<use xlink:href="#d"/>
<use x="63.623047" xlink:href="#i"/>
<use x="95.410156" xlink:href="#o"/>
<use x="159.033203" xlink:href="#ab"/>
</g>
</g>
<g clip-path="url(#a)">
<g transform="translate(334.56 654.36) scale(.1 -.1)">
<use xlink:href="#d"/>
<use x="63.623047" xlink:href="#i"/>
<use x="95.410156" xlink:href="#o"/>
<use x="159.033203" xlink:href="#y"/>
</g>
</g>
<g clip-path="url(#a)">
<g transform="translate(168.9 799.01) scale(.1 -.1)">
<use xlink:href="#d"/>
<use x="63.623047" xlink:href="#i"/>
<use x="95.410156" xlink:href="#o"/>
<use x="159.033203" xlink:href="#aa"/>
</g>
</g>
<g clip-path="url(#a)">
<g transform="translate(74.237 799.01) scale(.1 -.1)">
<use xlink:href="#d"/>
<use x="63.623047" xlink:href="#i"/>
<use x="95.410156" xlink:href="#n"/>
<use x="159.033203" xlink:href="#ah"/>
</g>
</g>
<g clip-path="url(#a)">
<g transform="translate(121.57 799.01) scale(.1 -.1)">
<use xlink:href="#d"/>
<use x="63.623047" xlink:href="#i"/>
<use x="95.410156" xlink:href="#n"/>
<use x="159.033203" xlink:href="#d"/>
</g>
</g>
<g clip-path="url(#a)">
<g transform="translate(537.88 48.522) scale(.1 -.1)">
<use xlink:href="#d"/>
<use x="63.623047" xlink:href="#i"/>
<use x="95.410156" xlink:href="#n"/>
<use x="159.033203" xlink:href="#m"/>
</g>
</g>
<g clip-path="url(#a)">
<g transform="translate(358.22 799.01) scale(.1 -.1)">
<use xlink:href="#d"/>
<use x="63.623047" xlink:href="#i"/>
<use x="95.410156" xlink:href="#n"/>
<use x="159.033203" xlink:href="#o"/>
</g>
</g>
<g clip-path="url(#a)">
<g transform="translate(452.89 799.01) scale(.1 -.1)">
<use xlink:href="#d"/>
<use x="63.623047" xlink:href="#i"/>
<use x="95.410156" xlink:href="#n"/>
<use x="159.033203" xlink:href="#n"/>
</g>
</g>
<g clip-path="url(#a)">
<g transform="translate(689.54 799.01) scale(.1 -.1)">
<use xlink:href="#d"/>
<use x="63.623047" xlink:href="#i"/>
<use x="95.410156" xlink:href="#n"/>
<use x="159.033203" xlink:href="#ag"/>
</g>
</g>
<g clip-path="url(#a)">
<g transform="translate(878.87 799.01) scale(.1 -.1)">
<use xlink:href="#d"/>
<use x="63.623047" xlink:href="#i"/>
<use x="95.410156" xlink:href="#n"/>
<use x="159.033203" xlink:href="#v"/>
</g>
</g>
<g clip-path="url(#a)">
<g transform="translate(1115.5 799.01) scale(.1 -.1)">
<use xlink:href="#d"/>
<use x="63.623047" xlink:href="#i"/>
<use x="95.410156" xlink:href="#n"/>
<use x="159.033203" xlink:href="#ab"/>
</g>
</g>
<g clip-path="url(#a)">
<g transform="translate(1162.9 799.01) scale(.1 -.1)">
<use xlink:href="#d"/>
<use x="63.623047" xlink:href="#i"/>
<use x="95.410156" xlink:href="#n"/>
<use x="159.033203" xlink:href="#y"/>
</g>
</g>
<g clip-path="url(#a)">
<g transform="translate(1778.2 799.01) scale(.1 -.1)">
<use xlink:href="#d"/>
<use x="63.623047" xlink:href="#i"/>
<use x="95.410156" xlink:href="#n"/>
<use x="159.033203" xlink:href="#aa"/>
</g>
</g>
<defs>
<clipPath id="a">
<rect width="1874.7" height="986.67"/>
</clipPath>
</defs>
</svg>
