<?xml version="1.0" encoding="UTF-8"?>
<!DOCTYPE svg  PUBLIC '-//W3C//DTD SVG 1.1//EN'  'http://www.w3.org/Graphics/SVG/1.1/DTD/svg11.dtd'>
<svg width="1368pt" height="720pt" version="1.1" viewBox="0 0 1368 720" xmlns="http://www.w3.org/2000/svg" xmlns:xlink="http://www.w3.org/1999/xlink">
<defs>
<style type="text/css">*{stroke-linecap:butt;stroke-linejoin:round;}</style>
</defs>
<path d="m0 720h1368v-720h-1368z" fill="#fff"/>
<g fill="none" stroke="#000">
<path d="m586.22 33.834-339.65 267.15" clip-path="url(#a)"/>
<path d="m586.22 33.834-63.38 524.53" clip-path="url(#a)"/>
<path d="m586.22 33.834 512.46 135.08" clip-path="url(#a)"/>
<path d="m586.22 33.834-109.43 524.53" clip-path="url(#a)"/>
<path d="m246.57 300.99-138.14 129.58" clip-path="url(#a)"/>
<path d="m246.57 300.99v257.38" clip-path="url(#a)"/>
<path d="m246.57 300.99 46.045 257.38" clip-path="url(#a)"/>
<path d="m246.57 300.99 138.14 129.58" clip-path="url(#a)"/>
<path d="m246.57 300.99-46.045 257.38" clip-path="url(#a)"/>
<path d="m522.84 558.37v127.8" clip-path="url(#a)"/>
<path d="m1098.7 168.92 206.93 517.25" clip-path="url(#a)"/>
<path d="m1098.7 168.92-375.21 132.07" clip-path="url(#a)"/>
<path d="m1098.7 168.92 99.49 261.65" clip-path="url(#a)"/>
<path d="m1098.7 168.92 68.794 389.45" clip-path="url(#a)"/>
<path d="m723.47 300.99-154.58 257.38" clip-path="url(#a)"/>
<path d="m723.47 300.99-108.53 257.38" clip-path="url(#a)"/>
<path d="m723.47 300.99-16.445 257.38" clip-path="url(#a)"/>
<path d="m723.47 300.99 29.6 257.38" clip-path="url(#a)"/>
<path d="m723.47 300.99 75.645 257.38" clip-path="url(#a)"/>
<path d="m723.47 300.99 236.8 129.58" clip-path="url(#a)"/>
<path d="m723.47 300.99-62.49 257.38" clip-path="url(#a)"/>
<path d="m1198.2 430.57-76.742 127.8" clip-path="url(#a)"/>
<path d="m1198.2 430.57 15.348 127.8" clip-path="url(#a)"/>
<path d="m1198.2 430.57 61.393 127.8" clip-path="url(#a)"/>
<path d="m1167.5 558.37v127.8" clip-path="url(#a)"/>
<path d="m1121.4 558.37v127.8" clip-path="url(#a)"/>
<path d="m1213.5 558.37v127.8" clip-path="url(#a)"/>
<path d="m568.89 558.37v127.8" clip-path="url(#a)"/>
<path d="m614.93 558.37v127.8" clip-path="url(#a)"/>
<path d="m707.02 558.37v127.8" clip-path="url(#a)"/>
<path d="m753.07 558.37v127.8" clip-path="url(#a)"/>
<path d="m799.11 558.37v127.8" clip-path="url(#a)"/>
<path d="m960.27 430.57-115.11 127.8" clip-path="url(#a)"/>
<path d="m960.27 430.57-23.023 127.8" clip-path="url(#a)"/>
<path d="m960.27 430.57 69.068 127.8" clip-path="url(#a)"/>
<path d="m960.27 430.57 115.11 127.8" clip-path="url(#a)"/>
<path d="m960.27 430.57-69.068 127.8" clip-path="url(#a)"/>
<path d="m960.27 430.57 23.023 127.8" clip-path="url(#a)"/>
<path d="m845.16 558.37v127.8" clip-path="url(#a)"/>
<path d="m937.25 558.37v127.8" clip-path="url(#a)"/>
<path d="m1029.3 558.37v127.8" clip-path="url(#a)"/>
<path d="m1075.4 558.37v127.8" clip-path="url(#a)"/>
<path d="m108.44 430.57-46.045 127.8" clip-path="url(#a)"/>
<path d="m108.44 430.57v127.8" clip-path="url(#a)"/>
<path d="m108.44 430.57 46.045 127.8" clip-path="url(#a)"/>
<path d="m246.57 558.37v127.8" clip-path="url(#a)"/>
<path d="m292.62 558.37v127.8" clip-path="url(#a)"/>
<path d="m384.71 430.57-46.045 127.8" clip-path="url(#a)"/>
<path d="m384.71 430.57v127.8" clip-path="url(#a)"/>
<path d="m384.71 430.57 46.045 127.8" clip-path="url(#a)"/>
<path d="m338.66 558.37v127.8" clip-path="url(#a)"/>
<path d="m384.71 558.37v127.8" clip-path="url(#a)"/>
<path d="m430.75 558.37v127.8" clip-path="url(#a)"/>
<path d="m62.392 558.37v127.8" clip-path="url(#a)"/>
<path d="m108.44 558.37v127.8" clip-path="url(#a)"/>
<path d="m154.48 558.37v127.8" clip-path="url(#a)"/>
<path d="m810.76 33.834-287.92 524.53" clip-path="url(#a)"/>
<path d="m810.76 33.834 287.92 135.08" clip-path="url(#a)"/>
<path d="m200.53 558.37v127.8" clip-path="url(#a)"/>
<path d="m476.8 558.37v127.8" clip-path="url(#a)"/>
<path d="m660.98 558.37v127.8" clip-path="url(#a)"/>
<path d="m891.2 558.37v127.8" clip-path="url(#a)"/>
<path d="m983.29 558.37v127.8" clip-path="url(#a)"/>
<path d="m1259.6 558.37v127.8" clip-path="url(#a)"/>
</g>
<path d="m417.91 174.2 4.7288-3.7194q1.8864-1.4838 0.40264-3.3701l-4.7867-6.0856q-1.4838-1.8864-3.3701-0.40264l-4.7288 3.7194q-1.8864 1.4838-0.40264 3.3701l4.7867 6.0856q1.4838 1.8864 3.3701 0.40264z" clip-path="url(#a)" fill="#fff" stroke="#fff"/>
<g clip-path="url(#a)">
<defs>
<path id="am" d="m9.8125 72.906h9.8594v-29.891h35.844v29.891h9.8594v-72.906h-9.8594v34.719h-35.844v-34.719h-9.8594z"/>
</defs>
<g transform="translate(415.4 171.01) rotate(-38.187) scale(.08 -.08)">
<use xlink:href="#am"/>
</g>
</g>
<path d="m560.49 299.07 0.53472-4.4253q0.2879-2.3827-2.0948-2.6706l-7.6866-0.92879q-2.3827-0.2879-2.6706 2.0948l-0.53472 4.4253q-0.2879 2.3827 2.0948 2.6706l7.6866 0.92879q2.3827 0.2879 2.6706-2.0948z" clip-path="url(#a)" fill="#fff" stroke="#fff"/>
<g clip-path="url(#a)">
<defs>
<path id="ad" d="m9.8125 72.906h9.8594v-64.609h35.5v-8.2969h-45.359z"/>
</defs>
<g transform="translate(556.46 298.58) rotate(-83.11) scale(.08 -.08)">
<use xlink:href="#ad"/>
</g>
</g>
<path d="m837.94 106.67 5.8175 1.5335q2.3207 0.61174 2.9325-1.709l1.9735-7.4868q0.61174-2.3207-1.709-2.9325l-5.8175-1.5335q-2.3207-0.61174-2.9325 1.709l-1.9735 7.4868q-0.61174 2.3207 1.709 2.9325z" clip-path="url(#a)" fill="#fff" stroke="#fff"/>
<g clip-path="url(#a)">
<g transform="translate(838.98 102.74) rotate(14.767) scale(.08 -.08)">
<use xlink:href="#am"/>
</g>
</g>
<path d="m537.05 300.25 1.1957-5.7316q0.49013-2.3494-1.8593-2.8395l-7.5793-1.5812q-2.3494-0.49013-2.8395 1.8593l-1.1957 5.7316q-0.49012 2.3494 1.8593 2.8395l7.5793 1.5812q2.3494 0.49013 2.8395-1.8593z" clip-path="url(#a)" fill="#fff" stroke="#fff"/>
<g clip-path="url(#a)">
<defs>
<path id="w" d="m8.6875 72.906h9.9219v-44.297q0-11.719 4.2344-16.875 4.25-5.1406 13.781-5.1406 9.4688 0 13.719 5.1406 4.25 5.1562 4.25 16.875v44.297h9.9062v-45.516q0-14.25-7.0625-21.531-7.0469-7.2812-20.812-7.2812-13.828 0-20.891 7.2812-7.0469 7.2812-7.0469 21.531z"/>
</defs>
<g transform="translate(533.07 299.42) rotate(-78.216) scale(.08 -.08)">
<use xlink:href="#w"/>
</g>
</g>
<path d="m179.8 372.22 3.9913-3.744q1.7504-1.642 0.10844-3.3924l-5.2971-5.6469q-1.642-1.7504-3.3924-0.10844l-3.9913 3.744q-1.7504 1.642-0.10844 3.3924l5.2971 5.6469q1.642 1.7504 3.3924 0.10844z" clip-path="url(#a)" fill="#fff" stroke="#fff"/>
<g clip-path="url(#a)">
<defs>
<path id="u" d="m34.188 63.188-13.391-36.281h26.812zm-5.5781 9.7188h11.188l27.781-72.906h-10.25l-6.6406 18.703h-32.859l-6.6406-18.703h-10.406z"/>
</defs>
<g transform="translate(177.02 369.26) rotate(-43.169) scale(.08 -.08)">
<use xlink:href="#u"/>
</g>
</g>
<path d="m240.3 426.94v5.4725q0 2.4 2.4 2.4h7.7425q2.4 0 2.4-2.4v-5.4725q0-2.4-2.4-2.4h-7.7425q-2.4 0-2.4 2.4z" clip-path="url(#a)" fill="#fff" stroke="#fff"/>
<g clip-path="url(#a)">
<g transform="translate(244.36 426.94) rotate(90) scale(.08 -.08)">
<use xlink:href="#u"/>
</g>
</g>
<path d="m263 428.41 0.84949 4.7484q0.42265 2.3625 2.7851 1.9398l7.6215-1.3635q2.3625-0.42265 1.9398-2.7851l-0.84949-4.7484q-0.42265-2.3625-2.7851-1.9398l-7.6215 1.3635q-2.3625 0.42265-1.9398 2.7851z" clip-path="url(#a)" fill="#fff" stroke="#fff"/>
<g clip-path="url(#a)">
<defs>
<path id="ai" d="m19.672 64.797v-27.391h12.406q6.8906 0 10.641 3.5625 3.7656 3.5625 3.7656 10.156 0 6.5469-3.7656 10.109-3.75 3.5625-10.641 3.5625zm-9.8594 8.1094h22.266q12.266 0 18.531-5.5469 6.2812-5.5469 6.2812-16.234 0-10.797-6.2812-16.312-6.2656-5.5156-18.531-5.5156h-12.406v-29.297h-9.8594z"/>
</defs>
<g transform="translate(267 427.69) rotate(79.857) scale(.08 -.08)">
<use xlink:href="#ai"/>
</g>
</g>
<path d="m309.35 368.48 3.9913 3.744q1.7504 1.642 3.3924-0.10844l5.2971-5.6469q1.642-1.7504-0.10844-3.3924l-3.9913-3.744q-1.7504-1.642-3.3924 0.10844l-5.2971 5.6469q-1.642 1.7504 0.10844 3.3924z" clip-path="url(#a)" fill="#fff" stroke="#fff"/>
<g clip-path="url(#a)">
<g transform="translate(312.13 365.52) rotate(43.169) scale(.08 -.08)">
<use xlink:href="#u"/>
</g>
</g>
<path d="m229.21 433.66 1.0311-5.7635q0.42265-2.3625-1.9398-2.7851l-7.6215-1.3635q-2.3625-0.42265-2.7851 1.9398l-1.0311 5.7635q-0.42265 2.3625 1.9398 2.7851l7.6215 1.3635q2.3625 0.42265 2.7851-1.9398z" clip-path="url(#a)" fill="#fff" stroke="#fff"/>
<g clip-path="url(#a)">
<g transform="translate(225.21 432.95) rotate(-79.857) scale(.08 -.08)">
<use xlink:href="#w"/>
</g>
</g>
<path d="m516.57 604.62v35.285q0 2.4 2.4 2.4h7.7425q2.4 0 2.4-2.4v-35.285q0-2.4-2.4-2.4h-7.7425q-2.4 0-2.4 2.4z" clip-path="url(#a)" fill="#fff" stroke="#fff"/>
<g clip-path="url(#a)">
<defs>
<path id="l" d="m-0.29688 72.906h61.672v-8.3125h-25.875v-64.594h-9.9062v64.594h-25.891z"/>
<path id="d" d="m56.203 29.594v-4.3906h-41.312q0.59375-9.2812 5.5938-14.141t13.938-4.8594q5.1719 0 10.031 1.2656t9.6562 3.8125v-8.5q-4.8438-2.0469-9.9219-3.125t-10.297-1.0781q-13.094 0-20.734 7.6094-7.6406 7.625-7.6406 20.625 0 13.422 7.25 21.297 7.25 7.8906 19.562 7.8906 11.031 0 17.453-7.1094 6.4219-7.0938 6.4219-19.297zm-8.9844 2.6406q-0.09375 7.3594-4.125 11.75-4.0312 4.4062-10.672 4.4062-7.5156 0-12.031-4.25t-5.2031-11.969z"/>
<path id="h" d="m41.109 46.297q-1.5156 0.875-3.2969 1.2812-1.7812 0.42188-3.9219 0.42188-7.625 0-11.703-4.9531t-4.0781-14.234v-28.812h-9.0312v54.688h9.0312v-8.5q2.8438 4.9844 7.375 7.3906 4.5469 2.4219 11.047 2.4219 0.92188 0 2.0469-0.125 1.125-0.10938 2.4844-0.35938z"/>
<path id="k" d="m52 44.188q3.375 6.0625 8.0625 8.9375t11.031 2.875q8.5469 0 13.188-5.9844 4.6406-5.9688 4.6406-17v-33.016h-9.0312v32.719q0 7.8594-2.7969 11.656-2.7812 3.8125-8.4844 3.8125-6.9844 0-11.047-4.6406-4.0469-4.625-4.0469-12.641v-30.906h-9.0312v32.719q0 7.9062-2.7812 11.688t-8.5938 3.7812q-6.8906 0-10.953-4.6562-4.0469-4.6562-4.0469-12.625v-30.906h-9.0312v54.688h9.0312v-8.5q3.0781 5.0312 7.375 7.4219t10.203 2.3906q5.9688 0 10.141-3.0312 4.1719-3.0156 6.1719-8.7812z"/>
<path id="i" d="m9.4219 54.688h8.9844v-54.688h-8.9844zm0 21.297h8.9844v-11.391h-8.9844z"/>
<path id="e" d="m54.891 33.016v-33.016h-8.9844v32.719q0 7.7656-3.0312 11.609-3.0312 3.8594-9.0781 3.8594-7.2812 0-11.484-4.6406-4.2031-4.625-4.2031-12.641v-30.906h-9.0312v54.688h9.0312v-8.5q3.2344 4.9375 7.5938 7.375 4.375 2.4375 10.094 2.4375 9.4219 0 14.25-5.8281 4.8438-5.8281 4.8438-17.156z"/>
<path id="g" d="m34.281 27.484q-10.891 0-15.094-2.4844t-4.2031-8.5q0-4.7812 3.1562-7.5938 3.1562-2.7969 8.5625-2.7969 7.4844 0 12 5.2969t4.5156 14.078v2zm17.922 3.7188v-31.203h-8.9844v8.2969q-3.0781-4.9688-7.6719-7.3438t-11.234-2.375q-8.3906 0-13.359 4.7188-4.9531 4.7188-4.9531 12.625 0 9.2188 6.1719 13.906 6.1875 4.6875 18.438 4.6875h12.609v0.89062q0 6.2031-4.0781 9.5938t-11.453 3.3906q-4.6875 0-9.1406-1.125-4.4375-1.125-8.5312-3.375v8.3125q4.9219 1.9062 9.5625 2.8438 4.6406 0.95312 9.0312 0.95312 11.875 0 17.734-6.1562 5.8594-6.1406 5.8594-18.641z"/>
<path id="j" d="m9.4219 75.984h8.9844v-75.984h-8.9844z"/>
</defs>
<g transform="translate(520.63 604.62) rotate(90) scale(.08 -.08)">
<use xlink:href="#l"/>
<use x="60.818359" xlink:href="#d"/>
<use x="122.341797" xlink:href="#h"/>
<use x="163.439453" xlink:href="#k"/>
<use x="260.851562" xlink:href="#i"/>
<use x="288.634766" xlink:href="#e"/>
<use x="352.013672" xlink:href="#g"/>
<use x="413.292969" xlink:href="#j"/>
</g>
</g>
<path d="m1195.3 427.33 2.0327 5.081q0.89144 2.2283 3.1197 1.3369l7.1886-2.8758q2.2283-0.89144 1.3369-3.1197l-2.0327-5.081q-0.89144-2.2283-3.1197-1.3369l-7.1886 2.8758q-2.2283 0.89144-1.3369 3.1197z" clip-path="url(#a)" fill="#fff" stroke="#fff"/>
<g clip-path="url(#a)">
<g transform="translate(1199.1 425.82) rotate(68.196) scale(.08 -.08)">
<use xlink:href="#u"/>
</g>
</g>
<path d="m910.57 241.78 5.162-1.817q2.2638-0.79686 1.467-3.0607l-2.5707-7.3033q-0.79686-2.2638-3.0607-1.467l-5.162 1.817q-2.2638 0.79686-1.467 3.0607l2.5707 7.3033q0.79686 2.2638 3.0607 1.467z" clip-path="url(#a)" fill="#fff" stroke="#fff"/>
<g clip-path="url(#a)">
<g transform="translate(909.23 237.94) rotate(-19.392) scale(.08 -.08)">
<use xlink:href="#u"/>
</g>
</g>
<path d="m1141.7 299.72 1.7144 4.5088q0.853 2.2433 3.0963 1.3903l7.237-2.7518q2.2433-0.853 1.3903-3.0963l-1.7144-4.5088q-0.853-2.2433-3.0963-1.3903l-7.237 2.7518q-2.2433 0.853-1.3903 3.0963z" clip-path="url(#a)" fill="#fff" stroke="#fff"/>
<g clip-path="url(#a)">
<g transform="translate(1145.5 298.27) rotate(69.181) scale(.08 -.08)">
<use xlink:href="#ai"/>
</g>
</g>
<path d="m1126.4 361.7 1.0715 6.0661q0.41748 2.3634 2.7809 1.9459l7.6245-1.3468q2.3634-0.41748 1.9459-2.7809l-1.0715-6.0661q-0.41748-2.3634-2.7809-1.9459l-7.6245 1.3468q-2.3634 0.41748-1.9459 2.7809z" clip-path="url(#a)" fill="#fff" stroke="#fff"/>
<g clip-path="url(#a)">
<defs>
<path id="au" d="m19.672 64.797v-56.688h11.922q15.094 0 22.094 6.8281 7 6.8438 7 21.594 0 14.641-7 21.453t-22.094 6.8125zm-9.8594 8.1094h20.266q21.188 0 31.094-8.8125 9.9219-8.8125 9.9219-27.562 0-18.859-9.9688-27.703-9.9531-8.8281-31.047-8.8281h-20.266z"/>
</defs>
<g transform="translate(1130.4 360.99) rotate(79.982) scale(.08 -.08)">
<use xlink:href="#au"/>
</g>
</g>
<path d="m650.25 435.07 2.6027-4.3335q1.2357-2.0574-0.82175-3.2931l-6.6374-3.9864q-2.0574-1.2357-3.2931 0.82175l-2.6027 4.3335q-1.2357 2.0574 0.82175 3.2931l6.6374 3.9864q2.0574 1.2357 3.2931-0.82175z" clip-path="url(#a)" fill="#fff" stroke="#fff"/>
<g clip-path="url(#a)">
<defs>
<path id="t" d="m9.8125 72.906h46.094v-8.3125h-36.234v-21.578h34.719v-8.2969h-34.719v-26.422h37.109v-8.2969h-46.969z"/>
</defs>
<g transform="translate(646.77 432.98) rotate(-59.011) scale(.08 -.08)">
<use xlink:href="#t"/>
</g>
</g>
<path d="m674 434.44 1.9642-4.6578q0.93254-2.2114-1.2789-3.144l-7.1341-3.0084q-2.2114-0.93254-3.144 1.2789l-1.9642 4.6578q-0.93254 2.2114 1.2789 3.144l7.1341 3.0084q2.2114 0.93254 3.144-1.2789z" clip-path="url(#a)" fill="#fff" stroke="#fff"/>
<g clip-path="url(#a)">
<g transform="translate(670.25 432.86) rotate(-67.135) scale(.08 -.08)">
<use xlink:href="#t"/>
</g>
</g>
<path d="m721.34 432.6 0.32232-5.0447q0.15303-2.3951-2.2421-2.5481l-7.7267-0.49369q-2.3951-0.15303-2.5481 2.2421l-0.32232 5.0447q-0.15303 2.3951 2.2421 2.5481l7.7267 0.49369q2.3951 0.15303 2.5481-2.2421z" clip-path="url(#a)" fill="#fff" stroke="#fff"/>
<g clip-path="url(#a)">
<g transform="translate(717.29 432.34) rotate(-86.344) scale(.08 -.08)">
<use xlink:href="#t"/>
</g>
</g>
<path d="m731.72 427.62 0.63826 5.5497q0.27421 2.3843 2.6585 2.1101l7.6918-0.88462q2.3843-0.27421 2.1101-2.6585l-0.63826-5.5497q-0.27421-2.3843-2.6585-2.1101l-7.6918 0.88462q-2.3843 0.27421-2.1101 2.6585z" clip-path="url(#a)" fill="#fff" stroke="#fff"/>
<g clip-path="url(#a)">
<defs>
<path id="q" d="m64.406 67.281v-10.391q-4.9844 4.6406-10.625 6.9219-5.6406 2.2969-11.984 2.2969-12.5 0-19.141-7.6406t-6.6406-22.094q0-14.406 6.6406-22.047t19.141-7.6406q6.3438 0 11.984 2.2969t10.625 6.9375v-10.312q-5.1719-3.5156-10.969-5.2812-5.7812-1.75-12.219-1.75-16.562 0-26.094 10.125-9.5156 10.141-9.5156 27.672 0 17.578 9.5156 27.703 9.5312 10.141 26.094 10.141 6.5312 0 12.312-1.7344 5.7969-1.7344 10.875-5.2031z"/>
</defs>
<g transform="translate(735.76 427.15) rotate(83.439) scale(.08 -.08)">
<use xlink:href="#q"/>
</g>
</g>
<path d="m754.49 428.78 1.5675 5.3332q0.67676 2.3026 2.9794 1.6259l7.4283-2.1832q2.3026-0.67676 1.6259-2.9794l-1.5675-5.3332q-0.67676-2.3026-2.9794-1.6259l-7.4283 2.1832q-2.3026 0.67676-1.6259 2.9794z" clip-path="url(#a)" fill="#fff" stroke="#fff"/>
<g clip-path="url(#a)">
<defs>
<path id="ac" d="m44.391 34.188q3.1719-1.0781 6.1719-4.5938t6.0312-9.6719l10.016-19.922h-10.609l-9.3125 18.703q-3.625 7.3281-7.0156 9.7188t-9.25 2.3906h-10.75v-30.812h-9.8594v72.906h22.266q12.5 0 18.656-5.2344 6.1562-5.2188 6.1562-15.766 0-6.8906-3.2031-11.438-3.2031-4.5312-9.2969-6.2812zm-24.719 30.609v-25.875h12.406q7.125 0 10.766 3.2969t3.6406 9.6875-3.6406 9.6406-10.766 3.25z"/>
</defs>
<g transform="translate(758.39 427.63) rotate(73.621) scale(.08 -.08)">
<use xlink:href="#ac"/>
</g>
</g>
<path d="m836.64 370.07 4.4345 2.4265q2.1054 1.1521 3.2575-0.95334l3.7166-6.7921q1.1521-2.1054-0.95334-3.2575l-4.4345-2.4265q-2.1054-1.1521-3.2575 0.95334l-3.7166 6.7921q-1.1521 2.1054 0.95334 3.2575z" clip-path="url(#a)" fill="#fff" stroke="#fff"/>
<g clip-path="url(#a)">
<g transform="translate(838.59 366.5) rotate(28.687) scale(.08 -.08)">
<use xlink:href="#t"/>
</g>
</g>
<path d="m697.63 434 1.3814-5.6897q0.56625-2.3322-1.766-2.8985l-7.5239-1.8268q-2.3322-0.56625-2.8985 1.766l-1.3814 5.6897q-0.56626 2.3322 1.766 2.8985l7.5239 1.8268q2.3322 0.56625 2.8985-1.766z" clip-path="url(#a)" fill="#fff" stroke="#fff"/>
<g clip-path="url(#a)">
<g transform="translate(693.68 433.04) rotate(-76.353) scale(.08 -.08)">
<use xlink:href="#w"/>
</g>
</g>
<path d="m1164 499.67 2.3687-3.9447q1.2355-2.0575-0.82202-3.2931l-6.6377-3.9858q-2.0575-1.2355-3.2931 0.82202l-2.3687 3.9447q-1.2355 2.0575 0.82202 3.2931l6.6377 3.9858q2.0575 1.2355 3.2931-0.82202z" clip-path="url(#a)" fill="#fff" stroke="#fff"/>
<g clip-path="url(#a)">
<defs>
<path id="at" d="m9.8125 72.906h41.891v-8.3125h-32.031v-21.484h28.906v-8.2969h-28.906v-34.812h-9.8594z"/>
</defs>
<g transform="translate(1160.5 497.58) rotate(-59.016) scale(.08 -.08)">
<use xlink:href="#at"/>
</g>
</g>
<path d="m1199.3 492.44 0.6661 5.5464q0.28618 2.3829 2.6691 2.0967l7.6873-0.92322q2.3829-0.28618 2.0967-2.6691l-0.6661-5.5464q-0.28618-2.3829-2.6691-2.0967l-7.6873 0.92322q-2.3829 0.28618-2.0967 2.6691z" clip-path="url(#a)" fill="#fff" stroke="#fff"/>
<g clip-path="url(#a)">
<g transform="translate(1203.3 491.96) rotate(83.152) scale(.08 -.08)">
<use xlink:href="#q"/>
</g>
</g>
<path d="m1221.9 494.54 2.5353 5.2776q1.0392 2.1633 3.2026 1.1241l6.979-3.3526q2.1633-1.0392 1.1241-3.2026l-2.5353-5.2776q-1.0392-2.1633-3.2026-1.1241l-6.979 3.3526q-2.1633 1.0392-1.1241 3.2026z" clip-path="url(#a)" fill="#fff" stroke="#fff"/>
<g clip-path="url(#a)">
<g transform="translate(1225.6 492.78) rotate(64.341) scale(.08 -.08)">
<use xlink:href="#w"/>
</g>
</g>
<path d="m1161.2 604.62v35.285q0 2.4 2.4 2.4h7.7425q2.4 0 2.4-2.4v-35.285q0-2.4-2.4-2.4h-7.7425q-2.4 0-2.4 2.4z" clip-path="url(#a)" fill="#fff" stroke="#fff"/>
<g clip-path="url(#a)">
<g transform="translate(1165.3 604.62) rotate(90) scale(.08 -.08)">
<use xlink:href="#l"/>
<use x="60.818359" xlink:href="#d"/>
<use x="122.341797" xlink:href="#h"/>
<use x="163.439453" xlink:href="#k"/>
<use x="260.851562" xlink:href="#i"/>
<use x="288.634766" xlink:href="#e"/>
<use x="352.013672" xlink:href="#g"/>
<use x="413.292969" xlink:href="#j"/>
</g>
</g>
<path d="m1115.2 604.62v35.285q0 2.4 2.4 2.4h7.7425q2.4 0 2.4-2.4v-35.285q0-2.4-2.4-2.4h-7.7425q-2.4 0-2.4 2.4z" clip-path="url(#a)" fill="#fff" stroke="#fff"/>
<g clip-path="url(#a)">
<g transform="translate(1119.2 604.62) rotate(90) scale(.08 -.08)">
<use xlink:href="#l"/>
<use x="60.818359" xlink:href="#d"/>
<use x="122.341797" xlink:href="#h"/>
<use x="163.439453" xlink:href="#k"/>
<use x="260.851562" xlink:href="#i"/>
<use x="288.634766" xlink:href="#e"/>
<use x="352.013672" xlink:href="#g"/>
<use x="413.292969" xlink:href="#j"/>
</g>
</g>
<path d="m1207.2 604.62v35.285q0 2.4 2.4 2.4h7.7425q2.4 0 2.4-2.4v-35.285q0-2.4-2.4-2.4h-7.7425q-2.4 0-2.4 2.4z" clip-path="url(#a)" fill="#fff" stroke="#fff"/>
<g clip-path="url(#a)">
<g transform="translate(1211.3 604.62) rotate(90) scale(.08 -.08)">
<use xlink:href="#l"/>
<use x="60.818359" xlink:href="#d"/>
<use x="122.341797" xlink:href="#h"/>
<use x="163.439453" xlink:href="#k"/>
<use x="260.851562" xlink:href="#i"/>
<use x="288.634766" xlink:href="#e"/>
<use x="352.013672" xlink:href="#g"/>
<use x="413.292969" xlink:href="#j"/>
</g>
</g>
<path d="m562.62 604.62v35.285q0 2.4 2.4 2.4h7.7425q2.4 0 2.4-2.4v-35.285q0-2.4-2.4-2.4h-7.7425q-2.4 0-2.4 2.4z" clip-path="url(#a)" fill="#fff" stroke="#fff"/>
<g clip-path="url(#a)">
<g transform="translate(566.68 604.62) rotate(90) scale(.08 -.08)">
<use xlink:href="#l"/>
<use x="60.818359" xlink:href="#d"/>
<use x="122.341797" xlink:href="#h"/>
<use x="163.439453" xlink:href="#k"/>
<use x="260.851562" xlink:href="#i"/>
<use x="288.634766" xlink:href="#e"/>
<use x="352.013672" xlink:href="#g"/>
<use x="413.292969" xlink:href="#j"/>
</g>
</g>
<path d="m608.66 604.62v35.285q0 2.4 2.4 2.4h7.7425q2.4 0 2.4-2.4v-35.285q0-2.4-2.4-2.4h-7.7425q-2.4 0-2.4 2.4z" clip-path="url(#a)" fill="#fff" stroke="#fff"/>
<g clip-path="url(#a)">
<g transform="translate(612.72 604.62) rotate(90) scale(.08 -.08)">
<use xlink:href="#l"/>
<use x="60.818359" xlink:href="#d"/>
<use x="122.341797" xlink:href="#h"/>
<use x="163.439453" xlink:href="#k"/>
<use x="260.851562" xlink:href="#i"/>
<use x="288.634766" xlink:href="#e"/>
<use x="352.013672" xlink:href="#g"/>
<use x="413.292969" xlink:href="#j"/>
</g>
</g>
<path d="m700.75 604.62v35.285q0 2.4 2.4 2.4h7.7425q2.4 0 2.4-2.4v-35.285q0-2.4-2.4-2.4h-7.7425q-2.4 0-2.4 2.4z" clip-path="url(#a)" fill="#fff" stroke="#fff"/>
<g clip-path="url(#a)">
<g transform="translate(704.82 604.62) rotate(90) scale(.08 -.08)">
<use xlink:href="#l"/>
<use x="60.818359" xlink:href="#d"/>
<use x="122.341797" xlink:href="#h"/>
<use x="163.439453" xlink:href="#k"/>
<use x="260.851562" xlink:href="#i"/>
<use x="288.634766" xlink:href="#e"/>
<use x="352.013672" xlink:href="#g"/>
<use x="413.292969" xlink:href="#j"/>
</g>
</g>
<path d="m746.8 604.62v35.285q0 2.4 2.4 2.4h7.7425q2.4 0 2.4-2.4v-35.285q0-2.4-2.4-2.4h-7.7425q-2.4 0-2.4 2.4z" clip-path="url(#a)" fill="#fff" stroke="#fff"/>
<g clip-path="url(#a)">
<g transform="translate(750.86 604.62) rotate(90) scale(.08 -.08)">
<use xlink:href="#l"/>
<use x="60.818359" xlink:href="#d"/>
<use x="122.341797" xlink:href="#h"/>
<use x="163.439453" xlink:href="#k"/>
<use x="260.851562" xlink:href="#i"/>
<use x="288.634766" xlink:href="#e"/>
<use x="352.013672" xlink:href="#g"/>
<use x="413.292969" xlink:href="#j"/>
</g>
</g>
<path d="m792.84 604.62v35.285q0 2.4 2.4 2.4h7.7425q2.4 0 2.4-2.4v-35.285q0-2.4-2.4-2.4h-7.7425q-2.4 0-2.4 2.4z" clip-path="url(#a)" fill="#fff" stroke="#fff"/>
<g clip-path="url(#a)">
<g transform="translate(796.91 604.62) rotate(90) scale(.08 -.08)">
<use xlink:href="#l"/>
<use x="60.818359" xlink:href="#d"/>
<use x="122.341797" xlink:href="#h"/>
<use x="163.439453" xlink:href="#k"/>
<use x="260.851562" xlink:href="#i"/>
<use x="288.634766" xlink:href="#e"/>
<use x="352.013672" xlink:href="#g"/>
<use x="413.292969" xlink:href="#j"/>
</g>
</g>
<path d="m905.5 500.74 3.7387-4.1507q1.6062-1.7833-0.17703-3.3895l-5.7529-5.1818q-1.7833-1.6062-3.3895 0.17703l-3.7387 4.1507q-1.6062 1.7833 0.17703 3.3895l5.7529 5.1818q1.7833 1.6062 3.3895-0.17703z" clip-path="url(#a)" fill="#fff" stroke="#fff"/>
<g clip-path="url(#a)">
<g transform="translate(902.48 498.02) rotate(-47.99) scale(.08 -.08)">
<use xlink:href="#q"/>
</g>
</g>
<path d="m954.44 498.33 0.99039-5.4978q0.4255-2.362-1.9365-2.7875l-7.6198-1.3727q-2.362-0.4255-2.7875 1.9365l-0.9904 5.4978q-0.4255 2.362 1.9365 2.7875l7.6198 1.3727q2.362 0.4255 2.7875-1.9365z" clip-path="url(#a)" fill="#fff" stroke="#fff"/>
<g clip-path="url(#a)">
<g transform="translate(950.44 497.61) rotate(-79.788) scale(.08 -.08)">
<use xlink:href="#q"/>
</g>
</g>
<path d="m987.86 494.82 2.8455 5.2653q1.1411 2.1114 3.2525 0.97032l6.8114-3.6811q2.1114-1.1411 0.97032-3.2525l-2.8455-5.2653q-1.1411-2.1114-3.2525-0.97032l-6.8114 3.6811q-2.1114 1.1411-0.97032 3.2525z" clip-path="url(#a)" fill="#fff" stroke="#fff"/>
<g clip-path="url(#a)">
<defs>
<path id="aq" d="m9.8125 72.906h13.281l32.328-60.984v60.984h9.5625v-72.906h-13.281l-32.312 60.984v-60.984h-9.5781z"/>
</defs>
<g transform="translate(991.44 492.88) rotate(61.612) scale(.08 -.08)">
<use xlink:href="#aq"/>
</g>
</g>
<path d="m1011.3 496.59 3.7387 4.1507q1.6062 1.7833 3.3895 0.17703l5.7529-5.1818q1.7833-1.6062 0.17703-3.3895l-3.7387-4.1507q-1.6062-1.7833-3.3895-0.17703l-5.7529 5.1818q-1.7833 1.6062-0.17703 3.3895z" clip-path="url(#a)" fill="#fff" stroke="#fff"/>
<g clip-path="url(#a)">
<g transform="translate(1014.3 493.87) rotate(47.99) scale(.08 -.08)">
<use xlink:href="#q"/>
</g>
</g>
<path d="m929.86 500.02 2.7837-5.1509q1.1411-2.1114-0.97032-3.2525l-6.8114-3.6811q-2.1114-1.1411-3.2525 0.97032l-2.7837 5.1509q-1.1411 2.1114 0.97032 3.2525l6.8114 3.6811q2.1114 1.1411 3.2525-0.97032z" clip-path="url(#a)" fill="#fff" stroke="#fff"/>
<g clip-path="url(#a)">
<g transform="translate(926.29 498.09) rotate(-61.612) scale(.08 -.08)">
<use xlink:href="#w"/>
</g>
</g>
<path d="m965.09 492.7 1.038 5.7622q0.4255 2.362 2.7875 1.9365l7.6198-1.3727q2.362-0.4255 1.9365-2.7875l-1.038-5.7622q-0.4255-2.362-2.7875-1.9365l-7.6198 1.3727q-2.362 0.4255-1.9365 2.7875z" clip-path="url(#a)" fill="#fff" stroke="#fff"/>
<g clip-path="url(#a)">
<g transform="translate(969.09 491.98) rotate(79.788) scale(.08 -.08)">
<use xlink:href="#w"/>
</g>
</g>
<path d="m838.89 604.62v35.285q0 2.4 2.4 2.4h7.7425q2.4 0 2.4-2.4v-35.285q0-2.4-2.4-2.4h-7.7425q-2.4 0-2.4 2.4z" clip-path="url(#a)" fill="#fff" stroke="#fff"/>
<g clip-path="url(#a)">
<g transform="translate(842.95 604.62) rotate(90) scale(.08 -.08)">
<use xlink:href="#l"/>
<use x="60.818359" xlink:href="#d"/>
<use x="122.341797" xlink:href="#h"/>
<use x="163.439453" xlink:href="#k"/>
<use x="260.851562" xlink:href="#i"/>
<use x="288.634766" xlink:href="#e"/>
<use x="352.013672" xlink:href="#g"/>
<use x="413.292969" xlink:href="#j"/>
</g>
</g>
<path d="m930.98 604.62v35.285q0 2.4 2.4 2.4h7.7425q2.4 0 2.4-2.4v-35.285q0-2.4-2.4-2.4h-7.7425q-2.4 0-2.4 2.4z" clip-path="url(#a)" fill="#fff" stroke="#fff"/>
<g clip-path="url(#a)">
<g transform="translate(935.04 604.62) rotate(90) scale(.08 -.08)">
<use xlink:href="#l"/>
<use x="60.818359" xlink:href="#d"/>
<use x="122.341797" xlink:href="#h"/>
<use x="163.439453" xlink:href="#k"/>
<use x="260.851562" xlink:href="#i"/>
<use x="288.634766" xlink:href="#e"/>
<use x="352.013672" xlink:href="#g"/>
<use x="413.292969" xlink:href="#j"/>
</g>
</g>
<path d="m1023.1 604.62v35.285q0 2.4 2.4 2.4h7.7425q2.4 0 2.4-2.4v-35.285q0-2.4-2.4-2.4h-7.7425q-2.4 0-2.4 2.4z" clip-path="url(#a)" fill="#fff" stroke="#fff"/>
<g clip-path="url(#a)">
<g transform="translate(1027.1 604.62) rotate(90) scale(.08 -.08)">
<use xlink:href="#l"/>
<use x="60.818359" xlink:href="#d"/>
<use x="122.341797" xlink:href="#h"/>
<use x="163.439453" xlink:href="#k"/>
<use x="260.851562" xlink:href="#i"/>
<use x="288.634766" xlink:href="#e"/>
<use x="352.013672" xlink:href="#g"/>
<use x="413.292969" xlink:href="#j"/>
</g>
</g>
<path d="m1069.1 604.62v35.285q0 2.4 2.4 2.4h7.7425q2.4 0 2.4-2.4v-35.285q0-2.4-2.4-2.4h-7.7425q-2.4 0-2.4 2.4z" clip-path="url(#a)" fill="#fff" stroke="#fff"/>
<g clip-path="url(#a)">
<g transform="translate(1073.2 604.62) rotate(90) scale(.08 -.08)">
<use xlink:href="#l"/>
<use x="60.818359" xlink:href="#d"/>
<use x="122.341797" xlink:href="#h"/>
<use x="163.439453" xlink:href="#k"/>
<use x="260.851562" xlink:href="#i"/>
<use x="288.634766" xlink:href="#e"/>
<use x="352.013672" xlink:href="#g"/>
<use x="413.292969" xlink:href="#j"/>
</g>
</g>
<path d="m90.372 499.21 1.8842-5.2297q0.81351-2.2579-1.4444-3.0714l-7.2841-2.6244q-2.2579-0.81351-3.0714 1.4444l-1.8842 5.2297q-0.81351 2.2579 1.4444 3.0714l7.2841 2.6244q2.2579 0.81351 3.0714-1.4444z" clip-path="url(#a)" fill="#fff" stroke="#fff"/>
<g clip-path="url(#a)">
<g transform="translate(86.549 497.83) rotate(-70.186) scale(.08 -.08)">
<use xlink:href="#ac"/>
</g>
</g>
<path d="m102.17 491.94v5.055q0 2.4 2.4 2.4h7.7425q2.4 0 2.4-2.4v-5.055q0-2.4-2.4-2.4h-7.7425q-2.4 0-2.4 2.4z" clip-path="url(#a)" fill="#fff" stroke="#fff"/>
<g clip-path="url(#a)">
<g transform="translate(106.23 491.94) rotate(90) scale(.08 -.08)">
<use xlink:href="#t"/>
</g>
</g>
<path d="m124.61 493.96 1.8935 5.2555q0.81351 2.2579 3.0714 1.4444l7.2841-2.6244q2.2579-0.81351 1.4444-3.0714l-1.8935-5.2555q-0.81351-2.2579-3.0714-1.4444l-7.2841 2.6244q-2.2579 0.81351-1.4444 3.0714z" clip-path="url(#a)" fill="#fff" stroke="#fff"/>
<g clip-path="url(#a)">
<g transform="translate(128.44 492.59) rotate(70.186) scale(.08 -.08)">
<use xlink:href="#q"/>
</g>
</g>
<path d="m240.3 604.62v35.285q0 2.4 2.4 2.4h7.7425q2.4 0 2.4-2.4v-35.285q0-2.4-2.4-2.4h-7.7425q-2.4 0-2.4 2.4z" clip-path="url(#a)" fill="#fff" stroke="#fff"/>
<g clip-path="url(#a)">
<g transform="translate(244.36 604.62) rotate(90) scale(.08 -.08)">
<use xlink:href="#l"/>
<use x="60.818359" xlink:href="#d"/>
<use x="122.341797" xlink:href="#h"/>
<use x="163.439453" xlink:href="#k"/>
<use x="260.851562" xlink:href="#i"/>
<use x="288.634766" xlink:href="#e"/>
<use x="352.013672" xlink:href="#g"/>
<use x="413.292969" xlink:href="#j"/>
</g>
</g>
<path d="m286.35 604.62v35.285q0 2.4 2.4 2.4h7.7425q2.4 0 2.4-2.4v-35.285q0-2.4-2.4-2.4h-7.7425q-2.4 0-2.4 2.4z" clip-path="url(#a)" fill="#fff" stroke="#fff"/>
<g clip-path="url(#a)">
<g transform="translate(290.41 604.62) rotate(90) scale(.08 -.08)">
<use xlink:href="#l"/>
<use x="60.818359" xlink:href="#d"/>
<use x="122.341797" xlink:href="#h"/>
<use x="163.439453" xlink:href="#k"/>
<use x="260.851562" xlink:href="#i"/>
<use x="288.634766" xlink:href="#e"/>
<use x="352.013672" xlink:href="#g"/>
<use x="413.292969" xlink:href="#j"/>
</g>
</g>
<path d="m366.64 499.21 1.8842-5.2297q0.81351-2.2579-1.4444-3.0714l-7.2841-2.6244q-2.2579-0.81351-3.0714 1.4444l-1.8842 5.2297q-0.81351 2.2579 1.4444 3.0714l7.2841 2.6244q2.2579 0.81351 3.0714-1.4444z" clip-path="url(#a)" fill="#fff" stroke="#fff"/>
<g clip-path="url(#a)">
<g transform="translate(362.82 497.83) rotate(-70.186) scale(.08 -.08)">
<use xlink:href="#ac"/>
</g>
</g>
<path d="m378.44 491.94v5.055q0 2.4 2.4 2.4h7.7425q2.4 0 2.4-2.4v-5.055q0-2.4-2.4-2.4h-7.7425q-2.4 0-2.4 2.4z" clip-path="url(#a)" fill="#fff" stroke="#fff"/>
<g clip-path="url(#a)">
<g transform="translate(382.5 491.94) rotate(90) scale(.08 -.08)">
<use xlink:href="#t"/>
</g>
</g>
<path d="m400.88 493.96 1.8935 5.2555q0.81351 2.2579 3.0714 1.4444l7.2841-2.6244q2.2579-0.81351 1.4444-3.0714l-1.8935-5.2555q-0.81351-2.2579-3.0714-1.4444l-7.2841 2.6244q-2.2579 0.81351-1.4444 3.0714z" clip-path="url(#a)" fill="#fff" stroke="#fff"/>
<g clip-path="url(#a)">
<g transform="translate(404.71 492.59) rotate(70.186) scale(.08 -.08)">
<use xlink:href="#q"/>
</g>
</g>
<path d="m332.39 604.62v35.285q0 2.4 2.4 2.4h7.7425q2.4 0 2.4-2.4v-35.285q0-2.4-2.4-2.4h-7.7425q-2.4 0-2.4 2.4z" clip-path="url(#a)" fill="#fff" stroke="#fff"/>
<g clip-path="url(#a)">
<g transform="translate(336.45 604.62) rotate(90) scale(.08 -.08)">
<use xlink:href="#l"/>
<use x="60.818359" xlink:href="#d"/>
<use x="122.341797" xlink:href="#h"/>
<use x="163.439453" xlink:href="#k"/>
<use x="260.851562" xlink:href="#i"/>
<use x="288.634766" xlink:href="#e"/>
<use x="352.013672" xlink:href="#g"/>
<use x="413.292969" xlink:href="#j"/>
</g>
</g>
<path d="m378.44 604.62v35.285q0 2.4 2.4 2.4h7.7425q2.4 0 2.4-2.4v-35.285q0-2.4-2.4-2.4h-7.7425q-2.4 0-2.4 2.4z" clip-path="url(#a)" fill="#fff" stroke="#fff"/>
<g clip-path="url(#a)">
<g transform="translate(382.5 604.62) rotate(90) scale(.08 -.08)">
<use xlink:href="#l"/>
<use x="60.818359" xlink:href="#d"/>
<use x="122.341797" xlink:href="#h"/>
<use x="163.439453" xlink:href="#k"/>
<use x="260.851562" xlink:href="#i"/>
<use x="288.634766" xlink:href="#e"/>
<use x="352.013672" xlink:href="#g"/>
<use x="413.292969" xlink:href="#j"/>
</g>
</g>
<path d="m424.48 604.62v35.285q0 2.4 2.4 2.4h7.7425q2.4 0 2.4-2.4v-35.285q0-2.4-2.4-2.4h-7.7425q-2.4 0-2.4 2.4z" clip-path="url(#a)" fill="#fff" stroke="#fff"/>
<g clip-path="url(#a)">
<g transform="translate(428.54 604.62) rotate(90) scale(.08 -.08)">
<use xlink:href="#l"/>
<use x="60.818359" xlink:href="#d"/>
<use x="122.341797" xlink:href="#h"/>
<use x="163.439453" xlink:href="#k"/>
<use x="260.851562" xlink:href="#i"/>
<use x="288.634766" xlink:href="#e"/>
<use x="352.013672" xlink:href="#g"/>
<use x="413.292969" xlink:href="#j"/>
</g>
</g>
<path d="m56.12 604.62v35.285q0 2.4 2.4 2.4h7.7425q2.4 0 2.4-2.4v-35.285q0-2.4-2.4-2.4h-7.7425q-2.4 0-2.4 2.4z" clip-path="url(#a)" fill="#fff" stroke="#fff"/>
<g clip-path="url(#a)">
<g transform="translate(60.184 604.62) rotate(90) scale(.08 -.08)">
<use xlink:href="#l"/>
<use x="60.818359" xlink:href="#d"/>
<use x="122.341797" xlink:href="#h"/>
<use x="163.439453" xlink:href="#k"/>
<use x="260.851562" xlink:href="#i"/>
<use x="288.634766" xlink:href="#e"/>
<use x="352.013672" xlink:href="#g"/>
<use x="413.292969" xlink:href="#j"/>
</g>
</g>
<path d="m102.17 604.62v35.285q0 2.4 2.4 2.4h7.7425q2.4 0 2.4-2.4v-35.285q0-2.4-2.4-2.4h-7.7425q-2.4 0-2.4 2.4z" clip-path="url(#a)" fill="#fff" stroke="#fff"/>
<g clip-path="url(#a)">
<g transform="translate(106.23 604.62) rotate(90) scale(.08 -.08)">
<use xlink:href="#l"/>
<use x="60.818359" xlink:href="#d"/>
<use x="122.341797" xlink:href="#h"/>
<use x="163.439453" xlink:href="#k"/>
<use x="260.851562" xlink:href="#i"/>
<use x="288.634766" xlink:href="#e"/>
<use x="352.013672" xlink:href="#g"/>
<use x="413.292969" xlink:href="#j"/>
</g>
</g>
<path d="m148.21 604.62v35.285q0 2.4 2.4 2.4h7.7425q2.4 0 2.4-2.4v-35.285q0-2.4-2.4-2.4h-7.7425q-2.4 0-2.4 2.4z" clip-path="url(#a)" fill="#fff" stroke="#fff"/>
<g clip-path="url(#a)">
<g transform="translate(152.27 604.62) rotate(90) scale(.08 -.08)">
<use xlink:href="#l"/>
<use x="60.818359" xlink:href="#d"/>
<use x="122.341797" xlink:href="#h"/>
<use x="163.439453" xlink:href="#k"/>
<use x="260.851562" xlink:href="#i"/>
<use x="288.634766" xlink:href="#e"/>
<use x="352.013672" xlink:href="#g"/>
<use x="413.292969" xlink:href="#j"/>
</g>
</g>
<path d="m669.89 303.51 4.8196-8.7805q1.1548-2.1039-0.94905-3.2587l-6.7872-3.7256q-2.1039-1.1548-3.2587 0.94905l-4.8196 8.7805q-1.1548 2.1039 0.94905 3.2587l6.7872 3.7256q2.1039 1.1548 3.2587-0.94905z" clip-path="url(#a)" fill="#fff" stroke="#fff"/>
<g clip-path="url(#a)">
<g transform="translate(666.33 301.55) rotate(-61.237) scale(.08 -.08)">
<use xlink:href="#ad"/>
<use x="55.712891" xlink:href="#ac"/>
</g>
</g>
<path d="m947.56 104.94 8.992 4.2188q2.1728 1.0194 3.1921-1.1534l3.2886-7.0094q1.0194-2.1728-1.1534-3.1921l-8.992-4.2188q-2.1728-1.0194-3.1921 1.1534l-3.2886 7.0094q-1.0194 2.1728 1.1534 3.1921z" clip-path="url(#a)" fill="#fff" stroke="#fff"/>
<g clip-path="url(#a)">
<g transform="translate(949.29 101.26) rotate(25.134) scale(.08 -.08)">
<use xlink:href="#ad"/>
<use x="55.744141" xlink:href="#u"/>
</g>
</g>
<path d="m194.26 604.62v35.285q0 2.4 2.4 2.4h7.7425q2.4 0 2.4-2.4v-35.285q0-2.4-2.4-2.4h-7.7425q-2.4 0-2.4 2.4z" clip-path="url(#a)" fill="#fff" stroke="#fff"/>
<g clip-path="url(#a)">
<g transform="translate(198.32 604.62) rotate(90) scale(.08 -.08)">
<use xlink:href="#l"/>
<use x="60.818359" xlink:href="#d"/>
<use x="122.341797" xlink:href="#h"/>
<use x="163.439453" xlink:href="#k"/>
<use x="260.851562" xlink:href="#i"/>
<use x="288.634766" xlink:href="#e"/>
<use x="352.013672" xlink:href="#g"/>
<use x="413.292969" xlink:href="#j"/>
</g>
</g>
<path d="m470.53 604.62v35.285q0 2.4 2.4 2.4h7.7425q2.4 0 2.4-2.4v-35.285q0-2.4-2.4-2.4h-7.7425q-2.4 0-2.4 2.4z" clip-path="url(#a)" fill="#fff" stroke="#fff"/>
<g clip-path="url(#a)">
<g transform="translate(474.59 604.62) rotate(90) scale(.08 -.08)">
<use xlink:href="#l"/>
<use x="60.818359" xlink:href="#d"/>
<use x="122.341797" xlink:href="#h"/>
<use x="163.439453" xlink:href="#k"/>
<use x="260.851562" xlink:href="#i"/>
<use x="288.634766" xlink:href="#e"/>
<use x="352.013672" xlink:href="#g"/>
<use x="413.292969" xlink:href="#j"/>
</g>
</g>
<path d="m654.71 604.62v35.285q0 2.4 2.4 2.4h7.7425q2.4 0 2.4-2.4v-35.285q0-2.4-2.4-2.4h-7.7425q-2.4 0-2.4 2.4z" clip-path="url(#a)" fill="#fff" stroke="#fff"/>
<g clip-path="url(#a)">
<g transform="translate(658.77 604.62) rotate(90) scale(.08 -.08)">
<use xlink:href="#l"/>
<use x="60.818359" xlink:href="#d"/>
<use x="122.341797" xlink:href="#h"/>
<use x="163.439453" xlink:href="#k"/>
<use x="260.851562" xlink:href="#i"/>
<use x="288.634766" xlink:href="#e"/>
<use x="352.013672" xlink:href="#g"/>
<use x="413.292969" xlink:href="#j"/>
</g>
</g>
<path d="m884.93 604.62v35.285q0 2.4 2.4 2.4h7.7425q2.4 0 2.4-2.4v-35.285q0-2.4-2.4-2.4h-7.7425q-2.4 0-2.4 2.4z" clip-path="url(#a)" fill="#fff" stroke="#fff"/>
<g clip-path="url(#a)">
<g transform="translate(889 604.62) rotate(90) scale(.08 -.08)">
<use xlink:href="#l"/>
<use x="60.818359" xlink:href="#d"/>
<use x="122.341797" xlink:href="#h"/>
<use x="163.439453" xlink:href="#k"/>
<use x="260.851562" xlink:href="#i"/>
<use x="288.634766" xlink:href="#e"/>
<use x="352.013672" xlink:href="#g"/>
<use x="413.292969" xlink:href="#j"/>
</g>
</g>
<path d="m977.02 604.62v35.285q0 2.4 2.4 2.4h7.7425q2.4 0 2.4-2.4v-35.285q0-2.4-2.4-2.4h-7.7425q-2.4 0-2.4 2.4z" clip-path="url(#a)" fill="#fff" stroke="#fff"/>
<g clip-path="url(#a)">
<g transform="translate(981.09 604.62) rotate(90) scale(.08 -.08)">
<use xlink:href="#l"/>
<use x="60.818359" xlink:href="#d"/>
<use x="122.341797" xlink:href="#h"/>
<use x="163.439453" xlink:href="#k"/>
<use x="260.851562" xlink:href="#i"/>
<use x="288.634766" xlink:href="#e"/>
<use x="352.013672" xlink:href="#g"/>
<use x="413.292969" xlink:href="#j"/>
</g>
</g>
<path d="m1253.3 604.62v35.285q0 2.4 2.4 2.4h7.7425q2.4 0 2.4-2.4v-35.285q0-2.4-2.4-2.4h-7.7425q-2.4 0-2.4 2.4z" clip-path="url(#a)" fill="#fff" stroke="#fff"/>
<g clip-path="url(#a)">
<g transform="translate(1257.4 604.62) rotate(90) scale(.08 -.08)">
<use xlink:href="#l"/>
<use x="60.818359" xlink:href="#d"/>
<use x="122.341797" xlink:href="#h"/>
<use x="163.439453" xlink:href="#k"/>
<use x="260.851562" xlink:href="#i"/>
<use x="288.634766" xlink:href="#e"/>
<use x="352.013672" xlink:href="#g"/>
<use x="413.292969" xlink:href="#j"/>
</g>
</g>
<defs>
<path id="b" d="m0 8.6603c2.2967 0 4.4997-0.9125 6.1237-2.5365 1.624-1.624 2.5365-3.827 2.5365-6.1237s-0.9125-4.4997-2.5365-6.1237c-1.624-1.624-3.827-2.5365-6.1237-2.5365s-4.4997 0.9125-6.1237 2.5365c-1.624 1.624-2.5365 3.827-2.5365 6.1237s0.9125 4.4997 2.5365 6.1237c1.624 1.624 3.827 2.5365 6.1237 2.5365z"/>
</defs>
<g clip-path="url(#a)">
<use x="62.391693" y="686.165949" fill="#ffffff" stroke="#ffffff" xlink:href="#b"/>
</g>
<g clip-path="url(#a)">
<use x="108.436753" y="686.165949" fill="#ffffff" stroke="#ffffff" xlink:href="#b"/>
</g>
<g clip-path="url(#a)">
<use x="154.481812" y="686.165949" fill="#ffffff" stroke="#ffffff" xlink:href="#b"/>
</g>
<g clip-path="url(#a)">
<use x="200.526872" y="686.165949" fill="#ffffff" stroke="#ffffff" xlink:href="#b"/>
</g>
<g clip-path="url(#a)">
<use x="246.571932" y="686.165949" fill="#ffffff" stroke="#ffffff" xlink:href="#b"/>
</g>
<g clip-path="url(#a)">
<use x="292.616992" y="686.165949" fill="#ffffff" stroke="#ffffff" xlink:href="#b"/>
</g>
<g clip-path="url(#a)">
<use x="338.662052" y="686.165949" fill="#ffffff" stroke="#ffffff" xlink:href="#b"/>
</g>
<g clip-path="url(#a)">
<use x="384.707111" y="686.165949" fill="#ffffff" stroke="#ffffff" xlink:href="#b"/>
</g>
<g clip-path="url(#a)">
<use x="430.752171" y="686.165949" fill="#ffffff" stroke="#ffffff" xlink:href="#b"/>
</g>
<g clip-path="url(#a)">
<use x="476.797231" y="686.165949" fill="#ffffff" stroke="#ffffff" xlink:href="#b"/>
</g>
<g clip-path="url(#a)">
<use x="522.842291" y="686.165949" fill="#ffffff" stroke="#ffffff" xlink:href="#b"/>
</g>
<g clip-path="url(#a)">
<use x="568.887351" y="686.165949" fill="#ffffff" stroke="#ffffff" xlink:href="#b"/>
</g>
<g clip-path="url(#a)">
<use x="614.93241" y="686.165949" fill="#ffffff" stroke="#ffffff" xlink:href="#b"/>
</g>
<g clip-path="url(#a)">
<use x="660.97747" y="686.165949" fill="#ffffff" stroke="#ffffff" xlink:href="#b"/>
</g>
<g clip-path="url(#a)">
<use x="707.02253" y="686.165949" fill="#ffffff" stroke="#ffffff" xlink:href="#b"/>
</g>
<g clip-path="url(#a)">
<use x="753.06759" y="686.165949" fill="#ffffff" stroke="#ffffff" xlink:href="#b"/>
</g>
<g clip-path="url(#a)">
<use x="799.112649" y="686.165949" fill="#ffffff" stroke="#ffffff" xlink:href="#b"/>
</g>
<g clip-path="url(#a)">
<use x="845.157709" y="686.165949" fill="#ffffff" stroke="#ffffff" xlink:href="#b"/>
</g>
<g clip-path="url(#a)">
<use x="891.202769" y="686.165949" fill="#ffffff" stroke="#ffffff" xlink:href="#b"/>
</g>
<g clip-path="url(#a)">
<use x="937.247829" y="686.165949" fill="#ffffff" stroke="#ffffff" xlink:href="#b"/>
</g>
<g clip-path="url(#a)">
<use x="983.292889" y="686.165949" fill="#ffffff" stroke="#ffffff" xlink:href="#b"/>
</g>
<g clip-path="url(#a)">
<use x="1029.337948" y="686.165949" fill="#ffffff" stroke="#ffffff" xlink:href="#b"/>
</g>
<g clip-path="url(#a)">
<use x="1075.383008" y="686.165949" fill="#ffffff" stroke="#ffffff" xlink:href="#b"/>
</g>
<g clip-path="url(#a)">
<use x="1121.428068" y="686.165949" fill="#ffffff" stroke="#ffffff" xlink:href="#b"/>
</g>
<g clip-path="url(#a)">
<use x="1167.473128" y="686.165949" fill="#ffffff" stroke="#ffffff" xlink:href="#b"/>
</g>
<g clip-path="url(#a)">
<use x="1213.518188" y="686.165949" fill="#ffffff" stroke="#ffffff" xlink:href="#b"/>
</g>
<g clip-path="url(#a)">
<use x="1259.563247" y="686.165949" fill="#ffffff" stroke="#ffffff" xlink:href="#b"/>
</g>
<g clip-path="url(#a)">
<use x="586.222767" y="33.834051" fill="#ffffff" stroke="#ffffff" xlink:href="#b"/>
</g>
<g clip-path="url(#a)">
<use x="246.571932" y="300.9888" fill="#ffffff" stroke="#ffffff" xlink:href="#b"/>
</g>
<g clip-path="url(#a)">
<use x="522.842291" y="558.366178" fill="#ffffff" stroke="#ffffff" xlink:href="#b"/>
</g>
<g clip-path="url(#a)">
<use x="1098.679616" y="168.916079" fill="#ffffff" stroke="#ffffff" xlink:href="#b"/>
</g>
<g clip-path="url(#a)">
<use x="1305.608307" y="686.165949" fill="#ffffff" stroke="#ffffff" xlink:href="#b"/>
</g>
<g clip-path="url(#a)">
<use x="723.467194" y="300.9888" fill="#ffffff" stroke="#ffffff" xlink:href="#b"/>
</g>
<g clip-path="url(#a)">
<use x="1198.169834" y="430.566407" fill="#ffffff" stroke="#ffffff" xlink:href="#b"/>
</g>
<g clip-path="url(#a)">
<use x="1167.473128" y="558.366178" fill="#ffffff" stroke="#ffffff" xlink:href="#b"/>
</g>
<g clip-path="url(#a)">
<use x="1121.428068" y="558.366178" fill="#ffffff" stroke="#ffffff" xlink:href="#b"/>
</g>
<g clip-path="url(#a)">
<use x="1213.518188" y="558.366178" fill="#ffffff" stroke="#ffffff" xlink:href="#b"/>
</g>
<g clip-path="url(#a)">
<use x="568.887351" y="558.366178" fill="#ffffff" stroke="#ffffff" xlink:href="#b"/>
</g>
<g clip-path="url(#a)">
<use x="614.93241" y="558.366178" fill="#ffffff" stroke="#ffffff" xlink:href="#b"/>
</g>
<g clip-path="url(#a)">
<use x="707.02253" y="558.366178" fill="#ffffff" stroke="#ffffff" xlink:href="#b"/>
</g>
<g clip-path="url(#a)">
<use x="753.06759" y="558.366178" fill="#ffffff" stroke="#ffffff" xlink:href="#b"/>
</g>
<g clip-path="url(#a)">
<use x="799.112649" y="558.366178" fill="#ffffff" stroke="#ffffff" xlink:href="#b"/>
</g>
<g clip-path="url(#a)">
<use x="960.270359" y="430.566407" fill="#ffffff" stroke="#ffffff" xlink:href="#b"/>
</g>
<g clip-path="url(#a)">
<use x="845.157709" y="558.366178" fill="#ffffff" stroke="#ffffff" xlink:href="#b"/>
</g>
<g clip-path="url(#a)">
<use x="937.247829" y="558.366178" fill="#ffffff" stroke="#ffffff" xlink:href="#b"/>
</g>
<g clip-path="url(#a)">
<use x="1029.337948" y="558.366178" fill="#ffffff" stroke="#ffffff" xlink:href="#b"/>
</g>
<g clip-path="url(#a)">
<use x="1075.383008" y="558.366178" fill="#ffffff" stroke="#ffffff" xlink:href="#b"/>
</g>
<g clip-path="url(#a)">
<use x="108.436753" y="430.566407" fill="#ffffff" stroke="#ffffff" xlink:href="#b"/>
</g>
<g clip-path="url(#a)">
<use x="246.571932" y="558.366178" fill="#ffffff" stroke="#ffffff" xlink:href="#b"/>
</g>
<g clip-path="url(#a)">
<use x="292.616992" y="558.366178" fill="#ffffff" stroke="#ffffff" xlink:href="#b"/>
</g>
<g clip-path="url(#a)">
<use x="384.707111" y="430.566407" fill="#ffffff" stroke="#ffffff" xlink:href="#b"/>
</g>
<g clip-path="url(#a)">
<use x="338.662052" y="558.366178" fill="#ffffff" stroke="#ffffff" xlink:href="#b"/>
</g>
<g clip-path="url(#a)">
<use x="384.707111" y="558.366178" fill="#ffffff" stroke="#ffffff" xlink:href="#b"/>
</g>
<g clip-path="url(#a)">
<use x="430.752171" y="558.366178" fill="#ffffff" stroke="#ffffff" xlink:href="#b"/>
</g>
<g clip-path="url(#a)">
<use x="62.391693" y="558.366178" fill="#ffffff" stroke="#ffffff" xlink:href="#b"/>
</g>
<g clip-path="url(#a)">
<use x="108.436753" y="558.366178" fill="#ffffff" stroke="#ffffff" xlink:href="#b"/>
</g>
<g clip-path="url(#a)">
<use x="154.481812" y="558.366178" fill="#ffffff" stroke="#ffffff" xlink:href="#b"/>
</g>
<g clip-path="url(#a)">
<use x="810.760953" y="33.834051" fill="#808080" stroke="#808080" xlink:href="#b"/>
</g>
<g clip-path="url(#a)">
<use x="200.526872" y="558.366178" fill="#ffffff" stroke="#ffffff" xlink:href="#b"/>
</g>
<g clip-path="url(#a)">
<use x="476.797231" y="558.366178" fill="#ffffff" stroke="#ffffff" xlink:href="#b"/>
</g>
<g clip-path="url(#a)">
<use x="660.97747" y="558.366178" fill="#ffffff" stroke="#ffffff" xlink:href="#b"/>
</g>
<g clip-path="url(#a)">
<use x="891.202769" y="558.366178" fill="#ffffff" stroke="#ffffff" xlink:href="#b"/>
</g>
<g clip-path="url(#a)">
<use x="983.292889" y="558.366178" fill="#ffffff" stroke="#ffffff" xlink:href="#b"/>
</g>
<g clip-path="url(#a)">
<use x="1259.563247" y="558.366178" fill="#ffffff" stroke="#ffffff" xlink:href="#b"/>
</g>
<g clip-path="url(#a)">
<defs>
<path id="ae" d="m9.8125 72.906h9.8594v-72.906h-9.8594z"/>
</defs>
<g transform="translate(57.748 688.93) scale(.1 -.1)">
<use xlink:href="#ae"/>
<use x="29.492188" xlink:href="#e"/>
</g>
</g>
<g clip-path="url(#a)">
<defs>
<path id="ap" d="m45.406 27.984q0 9.7656-4.0312 15.125-4.0156 5.375-11.297 5.375-7.2188 0-11.25-5.375-4.0312-5.3594-4.0312-15.125 0-9.7188 4.0312-15.094t11.25-5.375q7.2812 0 11.297 5.375 4.0312 5.375 4.0312 15.094zm8.9844-21.203q0-13.953-6.2031-20.766-6.1875-6.8125-18.984-6.8125-4.7344 0-8.9375 0.70312t-8.1562 2.1719v8.7344q3.9531-2.1406 7.8125-3.1562 3.8594-1.0312 7.8594-1.0312 8.8438 0 13.234 4.6094t4.3906 13.938v4.4531q-2.7812-4.8438-7.125-7.2344t-10.406-2.3906q-10.047 0-16.203 7.6562-6.1562 7.6719-6.1562 20.328 0 12.688 6.1562 20.344 6.1562 7.6719 16.203 7.6719 6.0625 0 10.406-2.3906t7.125-7.2188v8.2969h8.9844z"/>
<path id="ab" d="m54.891 33.016v-33.016h-8.9844v32.719q0 7.7656-3.0312 11.609-3.0312 3.8594-9.0781 3.8594-7.2812 0-11.484-4.6406-4.2031-4.625-4.2031-12.641v-30.906h-9.0312v75.984h9.0312v-29.797q3.2344 4.9375 7.5938 7.375 4.375 2.4375 10.094 2.4375 9.4219 0 14.25-5.8281 4.8438-5.8281 4.8438-17.156z"/>
<path id="s" d="m18.312 70.219v-15.531h18.5v-6.9844h-18.5v-29.688q0-6.6875 1.8281-8.5938t7.4531-1.9062h9.2188v-7.5156h-9.2188q-10.406 0-14.359 3.875-3.9531 3.8906-3.9531 14.141v29.688h-6.5938v6.9844h6.5938v15.531z"/>
<path id="y" d="m45.406 46.391v29.594h8.9844v-75.984h-8.9844v8.2031q-2.8281-4.875-7.1562-7.25-4.3125-2.375-10.375-2.375-9.9062 0-16.141 7.9062-6.2188 7.9219-6.2188 20.812t6.2188 20.797q6.2344 7.9062 16.141 7.9062 6.0625 0 10.375-2.375 4.3281-2.3594 7.1562-7.2344zm-30.609-19.094q0-9.9062 4.0781-15.547t11.203-5.6406 11.219 5.6406q4.1094 5.6406 4.1094 15.547t-4.1094 15.547q-4.0938 5.6406-11.219 5.6406t-11.203-5.6406-4.0781-15.547z"/>
</defs>
<g transform="translate(77.78 688.93) scale(.1 -.1)">
<use xlink:href="#j"/>
<use x="27.783203" xlink:href="#i"/>
<use x="55.566406" xlink:href="#ap"/>
<use x="119.042969" xlink:href="#ab"/>
<use x="182.421875" xlink:href="#s"/>
<use x="221.630859" xlink:href="#ab"/>
<use x="285.009766" xlink:href="#d"/>
<use x="346.533203" xlink:href="#g"/>
<use x="407.8125" xlink:href="#h"/>
<use x="448.925781" xlink:href="#s"/>
<use x="488.134766" xlink:href="#d"/>
<use x="549.658203" xlink:href="#y"/>
</g>
</g>
<g clip-path="url(#a)">
<defs>
<path id="p" d="m48.781 52.594v-8.4062q-3.8125 2.1094-7.6406 3.1562t-7.7344 1.0469q-8.75 0-13.594-5.5469-4.8281-5.5312-4.8281-15.547t4.8281-15.562q4.8438-5.5312 13.594-5.5312 3.9062 0 7.7344 1.0469t7.6406 3.1562v-8.3125q-3.7656-1.75-7.7969-2.625-4.0156-0.89062-8.5625-0.89062-12.359 0-19.641 7.7656-7.2656 7.7656-7.2656 20.953 0 13.375 7.3438 21.031 7.3594 7.6719 20.156 7.6719 4.1406 0 8.0938-0.85938 3.9531-0.84375 7.6719-2.5469z"/>
<path id="o" d="m30.609 48.391q-7.2188 0-11.422-5.6406t-4.2031-15.453 4.1719-15.453q4.1875-5.6406 11.453-5.6406 7.1875 0 11.375 5.6562 4.2031 5.6719 4.2031 15.438 0 9.7188-4.2031 15.406-4.1875 5.6875-11.375 5.6875zm0 7.6094q11.719 0 18.406-7.625 6.7031-7.6094 6.7031-21.078 0-13.422-6.7031-21.078-6.6875-7.6406-18.406-7.6406-11.766 0-18.438 7.6406-6.6562 7.6562-6.6562 21.078 0 13.469 6.6562 21.078 6.6719 7.625 18.438 7.625z"/>
<path id="x" d="m8.5 21.578v33.109h8.9844v-32.766q0-7.7656 3.0156-11.656 3.0312-3.875 9.0938-3.875 7.2656 0 11.484 4.6406 4.2344 4.6406 4.2344 12.656v31h8.9844v-54.688h-8.9844v8.4062q-3.2656-4.9844-7.5938-7.4062-4.3125-2.4219-10.031-2.4219-9.4219 0-14.312 5.8594-4.875 5.8594-4.875 17.141z"/>
<path id="v" d="m44.281 53.078v-8.5q-3.7969 1.9531-7.9062 2.9219-4.0938 0.98438-8.5 0.98438-6.6875 0-10.031-2.0469t-3.3438-6.1562q0-3.125 2.3906-4.9062t9.625-3.3906l3.0781-0.6875q9.5625-2.0469 13.594-5.7812t4.0312-10.422q0-7.625-6.0312-12.078-6.0312-4.4375-16.578-4.4375-4.3906 0-9.1562 0.85938t-10.031 2.5625v9.2812q4.9844-2.5938 9.8125-3.8906 4.8281-1.2812 9.5781-1.2812 6.3438 0 9.75 2.1719 3.4219 2.1719 3.4219 6.125 0 3.6562-2.4688 5.6094-2.4531 1.9531-10.812 3.7656l-3.125 0.73438q-8.3438 1.75-12.062 5.3906-3.7031 3.6406-3.7031 9.9844 0 7.7188 5.4688 11.906 5.4688 4.2031 15.531 4.2031 4.9688 0 9.3594-0.73438 4.4062-0.71875 8.1094-2.1875z"/>
</defs>
<g transform="translate(131.25 688.93) scale(.1 -.1)">
<use xlink:href="#p"/>
<use x="54.980469" xlink:href="#o"/>
<use x="116.162109" xlink:href="#x"/>
<use x="179.541016" xlink:href="#e"/>
<use x="242.919922" xlink:href="#s"/>
<use x="282.128906" xlink:href="#h"/>
<use x="323.242188" xlink:href="#i"/>
<use x="351.025391" xlink:href="#d"/>
<use x="412.548828" xlink:href="#v"/>
</g>
</g>
<g clip-path="url(#a)">
<defs>
<path id="z" d="m11.719 12.406h10.297v-8.4062l-8-15.625h-6.2969l4 15.625z"/>
</defs>
<g transform="translate(198.94 688.93) scale(.1 -.1)">
<use xlink:href="#z"/>
</g>
</g>
<g clip-path="url(#a)">
<defs>
<path id="aa" d="m18.109 8.2031v-29h-9.0312v75.484h9.0312v-8.2969q2.8438 4.875 7.1562 7.2344 4.3281 2.375 10.328 2.375 9.9688 0 16.188-7.9062 6.2344-7.9062 6.2344-20.797t-6.2344-20.812q-6.2188-7.9062-16.188-7.9062-6 0-10.328 2.375-4.3125 2.375-7.1562 7.25zm30.578 19.094q0 9.9062-4.0781 15.547t-11.203 5.6406q-7.1406 0-11.219-5.6406t-4.0781-15.547 4.0781-15.547 11.219-5.6406q7.125 0 11.203 5.6406t4.0781 15.547z"/>
</defs>
<g transform="translate(229.62 688.93) scale(.1 -.1)">
<use xlink:href="#aa"/>
<use x="63.476562" xlink:href="#d"/>
<use x="125" xlink:href="#o"/>
<use x="186.181641" xlink:href="#aa"/>
<use x="249.658203" xlink:href="#j"/>
<use x="277.441406" xlink:href="#d"/>
</g>
</g>
<g clip-path="url(#a)">
<defs>
<path id="ax" d="m9.4219 54.688h8.9844v-55.672q0-10.438-3.9844-15.125-3.9688-4.6875-12.812-4.6875h-3.4219v7.6094h2.4062q5.125 0 6.9688 2.375 1.8594 2.3594 1.8594 9.8281zm0 21.297h8.9844v-11.391h-8.9844z"/>
<path id="aw" d="m9.0781 75.984h9.0312v-44.875l26.812 23.578h11.469l-29-25.578 30.234-29.109h-11.719l-27.797 26.703v-26.703h-9.0312z"/>
</defs>
<g transform="translate(279.02 688.93) scale(.1 -.1)">
<use xlink:href="#ax"/>
<use x="27.783203" xlink:href="#o"/>
<use x="88.964844" xlink:href="#aw"/>
<use x="146.828125" xlink:href="#d"/>
<use x="208.351562" xlink:href="#y"/>
</g>
</g>
<g clip-path="url(#a)">
<defs>
<path id="al" d="m48.688 27.297q0 9.9062-4.0781 15.547t-11.203 5.6406q-7.1406 0-11.219-5.6406t-4.0781-15.547 4.0781-15.547 11.219-5.6406q7.125 0 11.203 5.6406t4.0781 15.547zm-30.578 19.094q2.8438 4.875 7.1562 7.2344 4.3281 2.375 10.328 2.375 9.9688 0 16.188-7.9062 6.2344-7.9062 6.2344-20.797t-6.2344-20.812q-6.2188-7.9062-16.188-7.9062-6 0-10.328 2.375-4.3125 2.375-7.1562 7.25v-8.2031h-9.0312v75.984h9.0312z"/>
</defs>
<g transform="translate(324.24 688.93) scale(.1 -.1)">
<use xlink:href="#g"/>
<use x="61.279297" xlink:href="#al"/>
<use x="124.755859" xlink:href="#o"/>
<use x="185.9375" xlink:href="#x"/>
<use x="249.316406" xlink:href="#s"/>
</g>
</g>
<g clip-path="url(#a)">
<g transform="translate(375.58 688.93) scale(.1 -.1)">
<use xlink:href="#s"/>
<use x="39.208984" xlink:href="#ab"/>
<use x="102.587891" xlink:href="#i"/>
<use x="130.371094" xlink:href="#v"/>
</g>
</g>
<g clip-path="url(#a)">
<g transform="translate(397.76 688.93) scale(.1 -.1)">
<use xlink:href="#aa"/>
<use x="63.476562" xlink:href="#ab"/>
<use x="126.855469" xlink:href="#d"/>
<use x="188.378906" xlink:href="#e"/>
<use x="251.757812" xlink:href="#o"/>
<use x="312.939453" xlink:href="#k"/>
<use x="410.351562" xlink:href="#d"/>
<use x="471.875" xlink:href="#e"/>
<use x="535.253906" xlink:href="#o"/>
<use x="596.435547" xlink:href="#e"/>
</g>
</g>
<g clip-path="url(#a)">
<g transform="translate(475.21 688.93) scale(.1 -.1)">
<use xlink:href="#z"/>
</g>
</g>
<g clip-path="url(#a)">
<g transform="translate(514.54 688.93) scale(.1 -.1)">
<use xlink:href="#al"/>
<use x="63.476562" xlink:href="#x"/>
<use x="126.855469" xlink:href="#s"/>
</g>
</g>
<g clip-path="url(#a)">
<g transform="translate(557.2 688.93) scale(.1 -.1)">
<use xlink:href="#v"/>
<use x="52.099609" xlink:href="#x"/>
<use x="115.478516" xlink:href="#p"/>
<use x="170.458984" xlink:href="#ab"/>
</g>
</g>
<g clip-path="url(#a)">
<g transform="translate(596.97 688.93) scale(.1 -.1)">
<use xlink:href="#v"/>
<use x="52.099609" xlink:href="#d"/>
<use x="113.623047" xlink:href="#h"/>
<use x="154.736328" xlink:href="#i"/>
<use x="182.519531" xlink:href="#o"/>
<use x="243.701172" xlink:href="#x"/>
<use x="307.080078" xlink:href="#v"/>
</g>
</g>
<g clip-path="url(#a)">
<g transform="translate(659.39 688.93) scale(.1 -.1)">
<use xlink:href="#z"/>
</g>
</g>
<g clip-path="url(#a)">
<g transform="translate(685.43 688.93) scale(.1 -.1)">
<use xlink:href="#aa"/>
<use x="63.476562" xlink:href="#h"/>
<use x="104.589844" xlink:href="#g"/>
<use x="165.869141" xlink:href="#p"/>
<use x="220.849609" xlink:href="#s"/>
<use x="260.058594" xlink:href="#i"/>
<use x="287.841797" xlink:href="#p"/>
<use x="342.822266" xlink:href="#g"/>
<use x="404.101562" xlink:href="#j"/>
</g>
</g>
<g clip-path="url(#a)">
<g transform="translate(729.84 688.93) scale(.1 -.1)">
<use xlink:href="#p"/>
<use x="54.980469" xlink:href="#o"/>
<use x="116.162109" xlink:href="#x"/>
<use x="179.541016" xlink:href="#e"/>
<use x="242.919922" xlink:href="#s"/>
<use x="282.128906" xlink:href="#h"/>
<use x="323.242188" xlink:href="#i"/>
<use x="351.025391" xlink:href="#d"/>
<use x="412.548828" xlink:href="#v"/>
</g>
</g>
<g clip-path="url(#a)">
<g transform="translate(793.44 688.93) scale(.1 -.1)">
<use xlink:href="#g"/>
<use x="61.279297" xlink:href="#v"/>
</g>
</g>
<g clip-path="url(#a)">
<g transform="translate(824.86 688.93) scale(.1 -.1)">
<use xlink:href="#t"/>
<use x="63.183594" xlink:href="#e"/>
<use x="126.5625" xlink:href="#ap"/>
<use x="190.039062" xlink:href="#j"/>
<use x="217.822266" xlink:href="#g"/>
<use x="279.101562" xlink:href="#e"/>
<use x="342.480469" xlink:href="#y"/>
</g>
</g>
<g clip-path="url(#a)">
<g transform="translate(889.61 688.93) scale(.1 -.1)">
<use xlink:href="#z"/>
</g>
</g>
<g clip-path="url(#a)">
<g transform="translate(916.62 688.93) scale(.1 -.1)">
<use xlink:href="#u"/>
<use x="68.408203" xlink:href="#k"/>
<use x="165.820312" xlink:href="#d"/>
<use x="227.34375" xlink:href="#h"/>
<use x="268.457031" xlink:href="#i"/>
<use x="296.240234" xlink:href="#p"/>
<use x="351.220703" xlink:href="#g"/>
</g>
</g>
<g clip-path="url(#a)">
<g transform="translate(981.7 688.93) scale(.1 -.1)">
<use xlink:href="#z"/>
</g>
</g>
<g clip-path="url(#a)">
<g transform="translate(1019.9 688.93) scale(.1 -.1)">
<use xlink:href="#g"/>
<use x="61.279297" xlink:href="#e"/>
<use x="124.658203" xlink:href="#y"/>
</g>
</g>
<g clip-path="url(#a)">
<defs>
<path id="as" d="m59.516 10.406v19.578h-16.109v8.1094h25.875v-31.312q-5.7031-4.0469-12.594-6.125-6.875-2.0781-14.688-2.0781-17.094 0-26.75 9.9844-9.6406 10-9.6406 27.812 0 17.875 9.6406 27.859 9.6562 9.9844 26.75 9.9844 7.125 0 13.547-1.7656 6.4219-1.75 11.844-5.1719v-10.5q-5.4688 4.6406-11.625 6.9844t-12.938 2.3438q-13.391 0-20.109-7.4688-6.7031-7.4688-6.7031-22.266 0-14.75 6.7031-22.219 6.7188-7.4688 20.109-7.4688 5.2188 0 9.3125 0.90625 4.1094 0.90625 7.375 2.8125z"/>
<path id="ao" d="m32.172-5.0781q-3.7969-9.7656-7.4219-12.734-3.6094-2.9844-9.6562-2.9844h-7.1875v7.5156h5.2812q3.7031 0 5.75 1.7656 2.0625 1.75 4.5469 8.2969l1.6094 4.0938-22.109 53.812h9.5156l17.094-42.766 17.094 42.766h9.5156z"/>
</defs>
<g transform="translate(1052.3 688.93) scale(.1 -.1)">
<use xlink:href="#as"/>
<use x="77.490234" xlink:href="#d"/>
<use x="139.013672" xlink:href="#h"/>
<use x="180.111328" xlink:href="#k"/>
<use x="277.523438" xlink:href="#g"/>
<use x="338.802734" xlink:href="#e"/>
<use x="402.181641" xlink:href="#ao"/>
</g>
</g>
<g clip-path="url(#a)">
<defs>
<path id="av" d="m4.2031 54.688h8.9844l11.234-42.672 11.172 42.672h10.594l11.234-42.672 11.188 42.672h8.9844l-14.312-54.688h-10.594l-11.766 44.828-11.812-44.828h-10.609z"/>
</defs>
<g transform="translate(1109.1 688.93) scale(.1 -.1)">
<use xlink:href="#av"/>
<use x="81.787109" xlink:href="#d"/>
<use x="143.310547" xlink:href="#h"/>
<use x="184.392578" xlink:href="#d"/>
</g>
</g>
<g clip-path="url(#a)">
<g transform="translate(1150.6 688.93) scale(.1 -.1)">
<use xlink:href="#y"/>
<use x="63.476562" xlink:href="#d"/>
<use x="125" xlink:href="#d"/>
<use x="186.523438" xlink:href="#aa"/>
<use x="250" xlink:href="#j"/>
<use x="277.783203" xlink:href="#ao"/>
</g>
</g>
<g clip-path="url(#a)">
<g transform="translate(1187.2 688.93) scale(.1 -.1)">
<use xlink:href="#p"/>
<use x="54.980469" xlink:href="#o"/>
<use x="116.162109" xlink:href="#e"/>
<use x="179.541016" xlink:href="#p"/>
<use x="234.521484" xlink:href="#d"/>
<use x="296.044922" xlink:href="#h"/>
<use x="337.142578" xlink:href="#e"/>
<use x="400.521484" xlink:href="#d"/>
<use x="462.044922" xlink:href="#y"/>
</g>
</g>
<g clip-path="url(#a)">
<defs>
<path id="f" d="m10.688 12.406h10.312v-12.406h-10.312z"/>
</defs>
<g transform="translate(1258 688.93) scale(.1 -.1)">
<use xlink:href="#f"/>
</g>
</g>
<g clip-path="url(#a)">
<defs>
<path id="c" d="m12.406 8.2969h16.109v55.625l-17.531-3.5156v8.9844l17.438 3.5156h9.8594v-64.609h16.109v-8.2969h-41.984z"/>
</defs>
<g transform="translate(578.27 36.593) scale(.1 -.1)">
<use xlink:href="#c"/>
<use x="63.623047" xlink:href="#f"/>
<use x="95.410156" xlink:href="#c"/>
</g>
</g>
<g clip-path="url(#a)">
<defs>
<path id="n" d="m19.188 8.2969h34.422v-8.2969h-46.281v8.2969q5.6094 5.8125 15.297 15.594 9.7031 9.7969 12.188 12.641 4.7344 5.3125 6.6094 9 1.8906 3.6875 1.8906 7.25 0 5.8125-4.0781 9.4688-4.0781 3.6719-10.625 3.6719-4.6406 0-9.7969-1.6094-5.1406-1.6094-11-4.8906v9.9688q5.9531 2.3906 11.125 3.6094 5.1875 1.2188 9.4844 1.2188 11.328 0 18.062-5.6719 6.7344-5.6562 6.7344-15.125 0-4.5-1.6875-8.5312-1.6719-4.0156-6.125-9.4844-1.2188-1.4219-7.7656-8.1875-6.5312-6.7656-18.453-18.922z"/>
</defs>
<g transform="translate(238.62 303.75) scale(.1 -.1)">
<use xlink:href="#c"/>
<use x="63.623047" xlink:href="#f"/>
<use x="95.410156" xlink:href="#n"/>
</g>
</g>
<g clip-path="url(#a)">
<defs>
<path id="r" d="m37.797 64.312-24.906-38.922h24.906zm-2.5938 8.5938h12.406v-47.516h10.406v-8.2031h-10.406v-17.188h-9.8125v17.188h-32.906v9.5156z"/>
</defs>
<g transform="translate(514.89 561.13) scale(.1 -.1)">
<use xlink:href="#c"/>
<use x="63.623047" xlink:href="#f"/>
<use x="95.410156" xlink:href="#r"/>
</g>
</g>
<g clip-path="url(#a)">
<defs>
<path id="ak" d="m10.797 72.906h38.719v-8.3125h-29.688v-17.859q2.1406 0.73438 4.2812 1.0938 2.1562 0.35938 4.3125 0.35938 12.203 0 19.328-6.6875 7.1406-6.6875 7.1406-18.109 0-11.766-7.3281-18.297-7.3281-6.5156-20.656-6.5156-4.5938 0-9.3594 0.78125-4.75 0.78125-9.8281 2.3438v9.9219q4.3906-2.3906 9.0781-3.5625t9.9062-1.1719q8.4531 0 13.375 4.4375 4.9375 4.4375 4.9375 12.062 0 7.6094-4.9375 12.047-4.9219 4.4531-13.375 4.4531-3.9531 0-7.8906-0.875-3.9219-0.875-8.0156-2.7344z"/>
</defs>
<g transform="translate(1090.7 171.68) scale(.1 -.1)">
<use xlink:href="#c"/>
<use x="63.623047" xlink:href="#f"/>
<use x="95.410156" xlink:href="#ak"/>
</g>
</g>
<g clip-path="url(#a)">
<defs>
<path id="ar" d="m9.8125 72.906h14.703l18.594-49.609 18.703 49.609h14.703v-72.906h-9.625v64.016l-18.797-50h-9.9062l-18.797 50v-64.016h-9.5781z"/>
</defs>
<g transform="translate(1284.5 688.93) scale(.1 -.1)">
<use xlink:href="#ae"/>
<use x="29.492188" xlink:href="#ar"/>
<use x="115.771484" xlink:href="#ai"/>
<use x="176.074219" xlink:href="#ad"/>
<use x="231.787109" xlink:href="#ae"/>
<use x="261.279297" xlink:href="#q"/>
<use x="331.103516" xlink:href="#ae"/>
<use x="360.595703" xlink:href="#l"/>
</g>
</g>
<g clip-path="url(#a)">
<defs>
<path id="ag" d="m31.781 34.625q-7.0312 0-11.062-3.7656-4.0156-3.7656-4.0156-10.344 0-6.5938 4.0156-10.359 4.0312-3.7656 11.062-3.7656t11.078 3.7812q4.0625 3.7969 4.0625 10.344 0 6.5781-4.0312 10.344-4.0156 3.7656-11.109 3.7656zm-9.8594 4.1875q-6.3438 1.5625-9.8906 5.9062-3.5312 4.3594-3.5312 10.609 0 8.7344 6.2188 13.812 6.2344 5.0781 17.062 5.0781 10.891 0 17.094-5.0781t6.2031-13.812q0-6.25-3.5469-10.609-3.5312-4.3438-9.8281-5.9062 7.125-1.6562 11.094-6.5 3.9844-4.8281 3.9844-11.797 0-10.609-6.4688-16.281-6.4688-5.6562-18.531-5.6562-12.047 0-18.531 5.6562-6.4688 5.6719-6.4688 16.281 0 6.9688 4 11.797 4.0156 4.8438 11.141 6.5zm-3.6094 15.578q0-5.6562 3.5312-8.8281 3.5469-3.1719 9.9375-3.1719 6.3594 0 9.9375 3.1719 3.5938 3.1719 3.5938 8.8281 0 5.6719-3.5938 8.8438-3.5781 3.1719-9.9375 3.1719-6.3906 0-9.9375-3.1719-3.5312-3.1719-3.5312-8.8438z"/>
</defs>
<g transform="translate(715.52 303.75) scale(.1 -.1)">
<use xlink:href="#c"/>
<use x="63.623047" xlink:href="#f"/>
<use x="95.410156" xlink:href="#ag"/>
</g>
</g>
<g clip-path="url(#a)">
<defs>
<path id="af" d="m10.984 1.5156v8.9844q3.7188-1.7656 7.5156-2.6875 3.8125-0.92188 7.4844-0.92188 9.7656 0 14.906 6.5625 5.1562 6.5625 5.8906 19.953-2.8281-4.2031-7.1875-6.4531-4.3438-2.25-9.6094-2.25-10.938 0-17.312 6.6094-6.375 6.625-6.375 18.109 0 11.219 6.6406 18 6.6406 6.7969 17.672 6.7969 12.656 0 19.312-9.7031 6.6719-9.6875 6.6719-28.141 0-17.234-8.1875-27.516-8.1719-10.281-21.984-10.281-3.7188 0-7.5312 0.73438-3.7969 0.73438-7.9062 2.2031zm19.625 30.906q6.6406 0 10.516 4.5312 3.8906 4.5469 3.8906 12.469 0 7.8594-3.8906 12.422-3.875 4.5625-10.516 4.5625t-10.516-4.5625-3.875-12.422q0-7.9219 3.875-12.469 3.875-4.5312 10.516-4.5312z"/>
</defs>
<g transform="translate(1190.2 433.33) scale(.1 -.1)">
<use xlink:href="#c"/>
<use x="63.623047" xlink:href="#f"/>
<use x="95.410156" xlink:href="#af"/>
</g>
</g>
<g clip-path="url(#a)">
<defs>
<path id="ah" d="m31.781 66.406q-7.6094 0-11.453-7.5-3.8281-7.4844-3.8281-22.531 0-14.984 3.8281-22.484 3.8438-7.5 11.453-7.5 7.6719 0 11.5 7.5 3.8438 7.5 3.8438 22.484 0 15.047-3.8438 22.531-3.8281 7.5-11.5 7.5zm0 7.8125q12.266 0 18.734-9.7031 6.4688-9.6875 6.4688-28.141 0-18.406-6.4688-28.109-6.4688-9.6875-18.734-9.6875-12.25 0-18.719 9.6875-6.4688 9.7031-6.4688 28.109 0 18.453 6.4688 28.141 6.4688 9.7031 18.719 9.7031z"/>
</defs>
<g transform="translate(1156.3 561.13) scale(.1 -.1)">
<use xlink:href="#c"/>
<use x="63.623047" xlink:href="#f"/>
<use x="95.410156" xlink:href="#c"/>
<use x="159.033203" xlink:href="#ah"/>
</g>
</g>
<g clip-path="url(#a)">
<g transform="translate(1110.3 561.13) scale(.1 -.1)">
<use xlink:href="#c"/>
<use x="63.623047" xlink:href="#f"/>
<use x="95.410156" xlink:href="#c"/>
<use x="159.033203" xlink:href="#c"/>
</g>
</g>
<g clip-path="url(#a)">
<g transform="translate(1202.4 561.13) scale(.1 -.1)">
<use xlink:href="#c"/>
<use x="63.623047" xlink:href="#f"/>
<use x="95.410156" xlink:href="#c"/>
<use x="159.033203" xlink:href="#n"/>
</g>
</g>
<g clip-path="url(#a)">
<defs>
<path id="m" d="m40.578 39.312q7.0781-1.5156 11.047-6.3125 3.9844-4.7812 3.9844-11.812 0-10.781-7.4219-16.703-7.4219-5.9062-21.094-5.9062-4.5781 0-9.4375 0.90625t-10.031 2.7188v9.5156q4.0938-2.3906 8.9688-3.6094 4.8906-1.2188 10.219-1.2188 9.2656 0 14.125 3.6562t4.8594 10.641q0 6.4531-4.5156 10.078-4.5156 3.6406-12.562 3.6406h-8.5v8.1094h8.8906q7.2656 0 11.125 2.9062t3.8594 8.375q0 5.6094-3.9844 8.6094-3.9688 3.0156-11.391 3.0156-4.0625 0-8.7031-0.89062-4.6406-0.875-10.203-2.7188v8.7812q5.625 1.5625 10.531 2.3438t9.25 0.78125q11.234 0 17.766-5.1094 6.5469-5.0938 6.5469-13.781 0-6.0625-3.4688-10.234t-9.8594-5.7812z"/>
</defs>
<g transform="translate(557.75 561.13) scale(.1 -.1)">
<use xlink:href="#c"/>
<use x="63.623047" xlink:href="#f"/>
<use x="95.410156" xlink:href="#c"/>
<use x="159.033203" xlink:href="#m"/>
</g>
</g>
<g clip-path="url(#a)">
<g transform="translate(603.8 561.13) scale(.1 -.1)">
<use xlink:href="#c"/>
<use x="63.623047" xlink:href="#f"/>
<use x="95.410156" xlink:href="#c"/>
<use x="159.033203" xlink:href="#r"/>
</g>
</g>
<g clip-path="url(#a)">
<defs>
<path id="aj" d="m33.016 40.375q-6.6406 0-10.531-4.5469-3.875-4.5312-3.875-12.438 0-7.8594 3.875-12.438 3.8906-4.5625 10.531-4.5625t10.516 4.5625q3.875 4.5781 3.875 12.438 0 7.9062-3.875 12.438-3.875 4.5469-10.516 4.5469zm19.578 30.922v-8.9844q-3.7188 1.75-7.5 2.6719-3.7812 0.9375-7.5 0.9375-9.7656 0-14.922-6.5938-5.1406-6.5938-5.875-19.922 2.875 4.25 7.2188 6.5156 4.3594 2.2656 9.5781 2.2656 10.984 0 17.359-6.6719 6.375-6.6562 6.375-18.125 0-11.234-6.6406-18.031-6.6406-6.7812-17.672-6.7812-12.656 0-19.344 9.6875-6.6875 9.7031-6.6875 28.109 0 17.281 8.2031 27.562t22.016 10.281q3.7188 0 7.5-0.73438t7.8906-2.1875z"/>
</defs>
<g transform="translate(695.89 561.13) scale(.1 -.1)">
<use xlink:href="#c"/>
<use x="63.623047" xlink:href="#f"/>
<use x="95.410156" xlink:href="#c"/>
<use x="159.033203" xlink:href="#aj"/>
</g>
</g>
<g clip-path="url(#a)">
<defs>
<path id="an" d="m8.2031 72.906h46.875v-4.2031l-26.469-68.703h-10.297l24.906 64.594h-35.016z"/>
</defs>
<g transform="translate(741.93 561.13) scale(.1 -.1)">
<use xlink:href="#c"/>
<use x="63.623047" xlink:href="#f"/>
<use x="95.410156" xlink:href="#c"/>
<use x="159.033203" xlink:href="#an"/>
</g>
</g>
<g clip-path="url(#a)">
<g transform="translate(787.98 561.13) scale(.1 -.1)">
<use xlink:href="#c"/>
<use x="63.623047" xlink:href="#f"/>
<use x="95.410156" xlink:href="#c"/>
<use x="159.033203" xlink:href="#ag"/>
</g>
</g>
<g clip-path="url(#a)">
<g transform="translate(949.14 433.33) scale(.1 -.1)">
<use xlink:href="#c"/>
<use x="63.623047" xlink:href="#f"/>
<use x="95.410156" xlink:href="#c"/>
<use x="159.033203" xlink:href="#af"/>
</g>
</g>
<g clip-path="url(#a)">
<g transform="translate(834.02 561.13) scale(.1 -.1)">
<use xlink:href="#c"/>
<use x="63.623047" xlink:href="#f"/>
<use x="95.410156" xlink:href="#n"/>
<use x="159.033203" xlink:href="#ah"/>
</g>
</g>
<g clip-path="url(#a)">
<g transform="translate(926.12 561.13) scale(.1 -.1)">
<use xlink:href="#c"/>
<use x="63.623047" xlink:href="#f"/>
<use x="95.410156" xlink:href="#n"/>
<use x="159.033203" xlink:href="#n"/>
</g>
</g>
<g clip-path="url(#a)">
<g transform="translate(1018.2 561.13) scale(.1 -.1)">
<use xlink:href="#c"/>
<use x="63.623047" xlink:href="#f"/>
<use x="95.410156" xlink:href="#n"/>
<use x="159.033203" xlink:href="#r"/>
</g>
</g>
<g clip-path="url(#a)">
<g transform="translate(1064.3 561.13) scale(.1 -.1)">
<use xlink:href="#c"/>
<use x="63.623047" xlink:href="#f"/>
<use x="95.410156" xlink:href="#n"/>
<use x="159.033203" xlink:href="#ak"/>
</g>
</g>
<g clip-path="url(#a)">
<g transform="translate(97.304 433.33) scale(.1 -.1)">
<use xlink:href="#c"/>
<use x="63.623047" xlink:href="#f"/>
<use x="95.410156" xlink:href="#n"/>
<use x="159.033203" xlink:href="#aj"/>
</g>
</g>
<g clip-path="url(#a)">
<g transform="translate(235.44 561.13) scale(.1 -.1)">
<use xlink:href="#c"/>
<use x="63.623047" xlink:href="#f"/>
<use x="95.410156" xlink:href="#n"/>
<use x="159.033203" xlink:href="#ag"/>
</g>
</g>
<g clip-path="url(#a)">
<g transform="translate(281.48 561.13) scale(.1 -.1)">
<use xlink:href="#c"/>
<use x="63.623047" xlink:href="#f"/>
<use x="95.410156" xlink:href="#n"/>
<use x="159.033203" xlink:href="#af"/>
</g>
</g>
<g clip-path="url(#a)">
<g transform="translate(373.57 433.33) scale(.1 -.1)">
<use xlink:href="#c"/>
<use x="63.623047" xlink:href="#f"/>
<use x="95.410156" xlink:href="#m"/>
<use x="159.033203" xlink:href="#ah"/>
</g>
</g>
<g clip-path="url(#a)">
<g transform="translate(327.53 561.13) scale(.1 -.1)">
<use xlink:href="#c"/>
<use x="63.623047" xlink:href="#f"/>
<use x="95.410156" xlink:href="#m"/>
<use x="159.033203" xlink:href="#c"/>
</g>
</g>
<g clip-path="url(#a)">
<g transform="translate(373.57 561.13) scale(.1 -.1)">
<use xlink:href="#c"/>
<use x="63.623047" xlink:href="#f"/>
<use x="95.410156" xlink:href="#m"/>
<use x="159.033203" xlink:href="#n"/>
</g>
</g>
<g clip-path="url(#a)">
<g transform="translate(419.62 561.13) scale(.1 -.1)">
<use xlink:href="#c"/>
<use x="63.623047" xlink:href="#f"/>
<use x="95.410156" xlink:href="#m"/>
<use x="159.033203" xlink:href="#m"/>
</g>
</g>
<g clip-path="url(#a)">
<g transform="translate(51.259 561.13) scale(.1 -.1)">
<use xlink:href="#c"/>
<use x="63.623047" xlink:href="#f"/>
<use x="95.410156" xlink:href="#m"/>
<use x="159.033203" xlink:href="#r"/>
</g>
</g>
<g clip-path="url(#a)">
<g transform="translate(97.304 561.13) scale(.1 -.1)">
<use xlink:href="#c"/>
<use x="63.623047" xlink:href="#f"/>
<use x="95.410156" xlink:href="#m"/>
<use x="159.033203" xlink:href="#ak"/>
</g>
</g>
<g clip-path="url(#a)">
<g transform="translate(143.35 561.13) scale(.1 -.1)">
<use xlink:href="#c"/>
<use x="63.623047" xlink:href="#f"/>
<use x="95.410156" xlink:href="#m"/>
<use x="159.033203" xlink:href="#aj"/>
</g>
</g>
<g clip-path="url(#a)">
<g transform="translate(799.63 36.593) scale(.1 -.1)">
<use xlink:href="#c"/>
<use x="63.623047" xlink:href="#f"/>
<use x="95.410156" xlink:href="#m"/>
<use x="159.033203" xlink:href="#an"/>
</g>
</g>
<g clip-path="url(#a)">
<g transform="translate(189.39 561.13) scale(.1 -.1)">
<use xlink:href="#c"/>
<use x="63.623047" xlink:href="#f"/>
<use x="95.410156" xlink:href="#m"/>
<use x="159.033203" xlink:href="#ag"/>
</g>
</g>
<g clip-path="url(#a)">
<g transform="translate(465.66 561.13) scale(.1 -.1)">
<use xlink:href="#c"/>
<use x="63.623047" xlink:href="#f"/>
<use x="95.410156" xlink:href="#m"/>
<use x="159.033203" xlink:href="#af"/>
</g>
</g>
<g clip-path="url(#a)">
<g transform="translate(649.84 561.13) scale(.1 -.1)">
<use xlink:href="#c"/>
<use x="63.623047" xlink:href="#f"/>
<use x="95.410156" xlink:href="#r"/>
<use x="159.033203" xlink:href="#ah"/>
</g>
</g>
<g clip-path="url(#a)">
<g transform="translate(880.07 561.13) scale(.1 -.1)">
<use xlink:href="#c"/>
<use x="63.623047" xlink:href="#f"/>
<use x="95.410156" xlink:href="#r"/>
<use x="159.033203" xlink:href="#c"/>
</g>
</g>
<g clip-path="url(#a)">
<g transform="translate(972.16 561.13) scale(.1 -.1)">
<use xlink:href="#c"/>
<use x="63.623047" xlink:href="#f"/>
<use x="95.410156" xlink:href="#r"/>
<use x="159.033203" xlink:href="#n"/>
</g>
</g>
<g clip-path="url(#a)">
<g transform="translate(1248.4 561.13) scale(.1 -.1)">
<use xlink:href="#c"/>
<use x="63.623047" xlink:href="#f"/>
<use x="95.410156" xlink:href="#r"/>
<use x="159.033203" xlink:href="#m"/>
</g>
</g>
<defs>
<clipPath id="a">
<rect width="1368" height="720"/>
</clipPath>
</defs>
</svg>
