<?xml version="1.0" encoding="UTF-8"?>
<!DOCTYPE svg  PUBLIC '-//W3C//DTD SVG 1.1//EN'  'http://www.w3.org/Graphics/SVG/1.1/DTD/svg11.dtd'>
<svg width="1824pt" height="960pt" version="1.1" viewBox="0 0 1824 960" xmlns="http://www.w3.org/2000/svg" xmlns:xlink="http://www.w3.org/1999/xlink">
<defs>
<style type="text/css">*{stroke-linecap:butt;stroke-linejoin:round;}</style>
</defs>
<path d="m0 960h1824v-960h-1824z" fill="#fff"/>
<g fill="none" stroke="#000">
<path d="m711.46 43.636-435.49 146.78" clip-path="url(#a)"/>
<path d="m711.46 43.636-228.79 729.86" clip-path="url(#a)"/>
<path d="m711.46 43.636-68.864 439.38" clip-path="url(#a)"/>
<path d="m711.46 43.636 260.85 729.86" clip-path="url(#a)"/>
<path d="m711.46 43.636 546.68 439.38" clip-path="url(#a)"/>
<path d="m711.46 43.636-271.37 729.86" clip-path="url(#a)"/>
<path d="m711.46 43.636 196.99 729.86" clip-path="url(#a)"/>
<path d="m275.98 190.42 123.9 146.48" clip-path="url(#a)"/>
<path d="m275.98 190.42-168.62 146.48" clip-path="url(#a)"/>
<path d="m275.98 190.42-29.85 438.22" clip-path="url(#a)"/>
<path d="m275.98 190.42 15.094 583.08" clip-path="url(#a)"/>
<path d="m275.98 190.42 48.21 583.08" clip-path="url(#a)"/>
<path d="m275.98 190.42 83.692 583.08" clip-path="url(#a)"/>
<path d="m275.98 190.42 121.54 583.08" clip-path="url(#a)"/>
<path d="m275.98 190.42-70.062 583.08" clip-path="url(#a)"/>
<path d="m482.67 773.49v142.87" clip-path="url(#a)"/>
<path d="m642.6 483.01-114.99 290.48" clip-path="url(#a)"/>
<path d="m642.6 483.01-67.678 290.48" clip-path="url(#a)"/>
<path d="m642.6 483.01-18.004 290.48" clip-path="url(#a)"/>
<path d="m642.6 483.01 34.036 290.48" clip-path="url(#a)"/>
<path d="m642.6 483.01 88.442 290.48" clip-path="url(#a)"/>
<path d="m642.6 483.01 78.191 145.62" clip-path="url(#a)"/>
<path d="m972.32 773.49v142.87" clip-path="url(#a)"/>
<path d="m1258.1 483.01-185.29 145.62" clip-path="url(#a)"/>
<path d="m1258.1 483.01-80.031 290.48" clip-path="url(#a)"/>
<path d="m1258.1 483.01-6.7021 290.48" clip-path="url(#a)"/>
<path d="m1258.1 483.01 272.03 145.62" clip-path="url(#a)"/>
<path d="m1072.9 628.63-34.299 144.86" clip-path="url(#a)"/>
<path d="m1072.9 628.63 34.299 144.86" clip-path="url(#a)"/>
<path d="m1178.1 773.49v142.87" clip-path="url(#a)"/>
<path d="m1251.4 773.49v142.87" clip-path="url(#a)"/>
<path d="m1530.2 628.63-203.03 144.86" clip-path="url(#a)"/>
<path d="m1530.2 628.63-124.97 144.86" clip-path="url(#a)"/>
<path d="m1530.2 628.63-44.549 144.86" clip-path="url(#a)"/>
<path d="m1530.2 628.63 38.241 144.86" clip-path="url(#a)"/>
<path d="m1530.2 628.63 123.4 144.86" clip-path="url(#a)"/>
<path d="m1530.2 628.63 210.92 144.86" clip-path="url(#a)"/>
<path d="m1327.1 773.49v142.87" clip-path="url(#a)"/>
<path d="m1405.2 773.49v142.87" clip-path="url(#a)"/>
<path d="m1485.6 773.49v142.87" clip-path="url(#a)"/>
<path d="m1568.4 773.49v142.87" clip-path="url(#a)"/>
<path d="m1653.6 773.49v142.87" clip-path="url(#a)"/>
<path d="m1038.6 773.49v142.87" clip-path="url(#a)"/>
<path d="m1107.1 773.49v142.87" clip-path="url(#a)"/>
<path d="m527.61 773.49v142.87" clip-path="url(#a)"/>
<path d="m574.92 773.49v142.87" clip-path="url(#a)"/>
<path d="m624.6 773.49v142.87" clip-path="url(#a)"/>
<path d="m676.64 773.49v142.87" clip-path="url(#a)"/>
<path d="m731.04 773.49v142.87" clip-path="url(#a)"/>
<path d="m720.79 628.63-193.18 144.86" clip-path="url(#a)" stroke-dasharray="3.7,1.6"/>
<path d="m720.79 628.63 67.021 144.86" clip-path="url(#a)"/>
<path d="m720.79 628.63 126.16 144.86" clip-path="url(#a)"/>
<path d="m787.81 773.49v142.87" clip-path="url(#a)"/>
<path d="m846.95 773.49v142.87" clip-path="url(#a)"/>
<path d="m107.35 336.9-24.443 436.59" clip-path="url(#a)"/>
<path d="m107.35 336.9-17.347 436.59" clip-path="url(#a)"/>
<path d="m107.35 336.9-7.8848 436.59" clip-path="url(#a)"/>
<path d="m107.35 336.9 3.9424 436.59" clip-path="url(#a)"/>
<path d="m107.35 336.9 45.732 146.11" clip-path="url(#a)"/>
<path d="m246.13 628.63-14.193 144.86" clip-path="url(#a)"/>
<path d="m246.13 628.63 14.193 144.86" clip-path="url(#a)"/>
<path d="m291.07 773.49v142.87" clip-path="url(#a)"/>
<path d="m324.19 773.49v142.87" clip-path="url(#a)"/>
<path d="m359.67 773.49v142.87" clip-path="url(#a)"/>
<path d="m397.51 773.49v142.87" clip-path="url(#a)"/>
<path d="m231.93 773.49v142.87" clip-path="url(#a)"/>
<path d="m260.32 773.49v142.87" clip-path="url(#a)"/>
<path d="m82.909 773.49v142.87" clip-path="url(#a)"/>
<path d="m90.005 773.49v142.87" clip-path="url(#a)"/>
<path d="m99.467 773.49v142.87" clip-path="url(#a)"/>
<path d="m111.29 773.49v142.87" clip-path="url(#a)"/>
<path d="m153.08 483.01-27.597 290.48" clip-path="url(#a)"/>
<path d="m153.08 483.01-1.577 145.62" clip-path="url(#a)"/>
<path d="m153.08 483.01 29.174 290.48" clip-path="url(#a)"/>
<path d="m125.49 773.49v142.87" clip-path="url(#a)"/>
<path d="m151.51 628.63-9.4618 144.86" clip-path="url(#a)"/>
<path d="m151.51 628.63 9.4618 144.86" clip-path="url(#a)"/>
<path d="m182.26 773.49v142.87" clip-path="url(#a)"/>
<path d="m142.05 773.49v142.87" clip-path="url(#a)"/>
<path d="m160.97 773.49v142.87" clip-path="url(#a)"/>
<path d="m205.91 773.49v142.87" clip-path="url(#a)"/>
<path d="m440.09 773.49v142.87" clip-path="url(#a)"/>
<path d="m908.45 773.49v142.87" clip-path="url(#a)"/>
<path d="m1741.1 773.49v142.87" clip-path="url(#a)"/>
</g>
<path d="m492.87 123.93 5.7011-1.9215q2.2743-0.76654 1.5078-3.0408l-2.4729-7.337q-0.76654-2.2743-3.0408-1.5078l-5.7011 1.9215q-2.2743 0.76654-1.5078 3.0408l2.4729 7.337q0.76654 2.2743 3.0408 1.5078z" clip-path="url(#a)" fill="#fff" stroke="#fff"/>
<g clip-path="url(#a)">
<defs>
<path id="am" d="m9.8125 72.906h9.8594v-29.891h35.844v29.891h9.8594v-72.906h-9.8594v34.719h-35.844v-34.719h-9.8594z"/>
</defs>
<g transform="translate(491.57 120.08) rotate(-18.626) scale(.08 -.08)">
<use xlink:href="#am"/>
</g>
</g>
<path d="m602.39 412.57 1.3334-4.2534q0.7179-2.2901-1.5722-3.008l-7.388-2.316q-2.2901-0.7179-3.008 1.5722l-1.3334 4.2534q-0.7179 2.2901 1.5722 3.008l7.388 2.316q2.2901 0.7179 3.008-1.5722z" clip-path="url(#a)" fill="#fff" stroke="#fff"/>
<g clip-path="url(#a)">
<defs>
<path id="ak" d="m9.8125 72.906h9.8594v-64.609h35.5v-8.2969h-45.359z"/>
</defs>
<g transform="translate(598.51 411.35) rotate(-72.595) scale(.08 -.08)">
<use xlink:href="#ak"/>
</g>
</g>
<path d="m682.76 267.27 0.93155-5.9437q0.37162-2.3711-1.9994-2.7427l-7.6491-1.1988q-2.3711-0.37162-2.7427 1.9994l-0.93155 5.9437q-0.37162 2.3711 1.9994 2.7427l7.6491 1.1988q2.3711 0.37162 2.7427-1.9994z" clip-path="url(#a)" fill="#fff" stroke="#fff"/>
<g clip-path="url(#a)">
<g transform="translate(678.75 266.64) rotate(-81.093) scale(.08 -.08)">
<use xlink:href="#am"/>
</g>
</g>
<path d="m835.24 408.58 1.5002 4.1975q0.80773 2.26 3.0677 1.4523l7.2908-2.6058q2.26-0.80773 1.4523-3.0677l-1.5002-4.1975q-0.80773-2.26-3.0677-1.4523l-7.2908 2.6058q-2.26 0.80773-1.4523 3.0677z" clip-path="url(#a)" fill="#fff" stroke="#fff"/>
<g clip-path="url(#a)">
<g transform="translate(839.06 407.21) rotate(70.333) scale(.08 -.08)">
<use xlink:href="#ak"/>
</g>
</g>
<path d="m978.53 266.33 4.6894 3.769q1.8707 1.5035 3.3742-0.36718l4.8504-6.0349q1.5035-1.8707-0.36718-3.3742l-4.6894-3.769q-1.8707-1.5035-3.3742 0.36718l-4.8504 6.0349q-1.5035 1.8707 0.36718 3.3742z" clip-path="url(#a)" fill="#fff" stroke="#fff"/>
<g clip-path="url(#a)">
<g transform="translate(981.08 263.16) rotate(38.79) scale(.08 -.08)">
<use xlink:href="#am"/>
</g>
</g>
<path d="m580.64 413.49 2.0405-5.4879q0.83642-2.2495-1.4131-3.086l-7.2571-2.6983q-2.2495-0.83642-3.086 1.4131l-2.0405 5.4879q-0.83642 2.2495 1.4131 3.086l7.2571 2.6983q2.2495 0.83642 3.086-1.4131z" clip-path="url(#a)" fill="#fff" stroke="#fff"/>
<g clip-path="url(#a)">
<defs>
<path id="af" d="m8.6875 72.906h9.9219v-44.297q0-11.719 4.2344-16.875 4.25-5.1406 13.781-5.1406 9.4688 0 13.719 5.1406 4.25 5.1562 4.25 16.875v44.297h9.9062v-45.516q0-14.25-7.0625-21.531-7.0469-7.2812-20.812-7.2812-13.828 0-20.891 7.2812-7.0469 7.2812-7.0469 21.531z"/>
</defs>
<g transform="translate(576.83 412.08) rotate(-69.604) scale(.08 -.08)">
<use xlink:href="#af"/>
</g>
</g>
<path d="m803.14 407.37 1.5257 5.6527q0.62538 2.3171 2.9425 1.6917l7.475-2.0175q2.3171-0.62538 1.6917-2.9425l-1.5257-5.6527q-0.62538-2.3171-2.9425-1.6917l-7.475 2.0175q-2.3171 0.62538-1.6917 2.9425z" clip-path="url(#a)" fill="#fff" stroke="#fff"/>
<g clip-path="url(#a)">
<g transform="translate(807.06 406.31) rotate(74.896) scale(.08 -.08)">
<use xlink:href="#af"/>
</g>
</g>
<path d="m331.37 265.62 3.5342 4.1782q1.5499 1.8324 3.3823 0.28245l5.9114-5.0002q1.8324-1.5499 0.28245-3.3823l-3.5342-4.1782q-1.5499-1.8324-3.3823-0.28245l-5.9114 5.0002q-1.8324 1.5499-0.28245 3.3823z" clip-path="url(#a)" fill="#fff" stroke="#fff"/>
<g clip-path="url(#a)">
<defs>
<path id="v" d="m34.188 63.188-13.391-36.281h26.812zm-5.5781 9.7188h11.188l27.781-72.906h-10.25l-6.6406 18.703h-32.859l-6.6406-18.703h-10.406z"/>
</defs>
<g transform="translate(334.47 262.99) rotate(49.774) scale(.08 -.08)">
<use xlink:href="#v"/>
</g>
</g>
<path d="m193.93 269.99 3.6888-3.2045q1.8118-1.5739 0.23788-3.3858l-5.0776-5.845q-1.5739-1.8118-3.3858-0.23788l-3.6888 3.2045q-1.8118 1.5739-0.23788 3.3858l5.0776 5.845q1.5739 1.8118 3.3858 0.23788z" clip-path="url(#a)" fill="#fff" stroke="#fff"/>
<g clip-path="url(#a)">
<defs>
<path id="k" d="m-0.29688 72.906h61.672v-8.3125h-25.875v-64.594h-9.9062v64.594h-25.891z"/>
</defs>
<g transform="translate(191.27 266.93) rotate(-40.981) scale(.08 -.08)">
<use xlink:href="#k"/>
</g>
</g>
<path d="m267.12 412.68 0.3719-5.4598q0.1631-2.3945-2.2314-2.5576l-7.7246-0.52617q-2.3945-0.1631-2.5576 2.2314l-0.3719 5.4598q-0.1631 2.3945 2.2314 2.5576l7.7246 0.52617q2.3945 0.1631 2.5576-2.2314z" clip-path="url(#a)" fill="#fff" stroke="#fff"/>
<g clip-path="url(#a)">
<g transform="translate(263.07 412.4) rotate(-86.103) scale(.08 -.08)">
<use xlink:href="#v"/>
</g>
</g>
<path d="m277.17 479.02 0.16041 6.1967q0.062107 2.3992 2.4613 2.3371l7.7399-0.20036q2.3992-0.062107 2.3371-2.4613l-0.16041-6.1967q-0.062107-2.3992-2.4613-2.3371l-7.7399 0.20036q-2.3992 0.062107-2.3371 2.4613z" clip-path="url(#a)" fill="#fff" stroke="#fff"/>
<g clip-path="url(#a)">
<defs>
<path id="aq" d="m59.516 10.406v19.578h-16.109v8.1094h25.875v-31.312q-5.7031-4.0469-12.594-6.125-6.875-2.0781-14.688-2.0781-17.094 0-26.75 9.9844-9.6406 10-9.6406 27.812 0 17.875 9.6406 27.859 9.6562 9.9844 26.75 9.9844 7.125 0 13.547-1.7656 6.4219-1.75 11.844-5.1719v-10.5q-5.4688 4.6406-11.625 6.9844t-12.938 2.3438q-13.391 0-20.109-7.4688-6.7031-7.4688-6.7031-22.266 0-14.75 6.7031-22.219 6.7188-7.4688 20.109-7.4688 5.2188 0 9.3125 0.90625 4.1094 0.90625 7.375 2.8125z"/>
</defs>
<g transform="translate(281.23 478.91) rotate(88.517) scale(.08 -.08)">
<use xlink:href="#aq"/>
</g>
</g>
<path d="m293.64 480.18 0.37915 4.5856q0.19776 2.3918 2.5896 2.1941l7.7162-0.63799q2.3918-0.19776 2.1941-2.5896l-0.37915-4.5856q-0.19776-2.3918-2.5896-2.1941l-7.7162 0.63799q-2.3918 0.19776-2.1941 2.5896z" clip-path="url(#a)" fill="#fff" stroke="#fff"/>
<g clip-path="url(#a)">
<defs>
<path id="z" d="m9.8125 72.906h41.891v-8.3125h-32.031v-21.484h28.906v-8.2969h-28.906v-34.812h-9.8594z"/>
</defs>
<g transform="translate(297.69 479.84) rotate(85.273) scale(.08 -.08)">
<use xlink:href="#z"/>
</g>
</g>
<path d="m311.29 480.57 0.65374 4.5546q0.34099 2.3757 2.7166 2.0347l7.664-1.1q2.3757-0.34099 2.0347-2.7166l-0.65374-4.5546q-0.34099-2.3757-2.7166-2.0347l-7.664 1.1q-2.3757 0.34099-2.0347 2.7166z" clip-path="url(#a)" fill="#fff" stroke="#fff"/>
<g clip-path="url(#a)">
<g transform="translate(315.31 479.99) rotate(81.832) scale(.08 -.08)">
<use xlink:href="#z"/>
</g>
</g>
<path d="m330.11 480.87 0.98433 4.7223q0.48974 2.3495 2.8392 1.8598l7.5796-1.5799q2.3495-0.48974 1.8598-2.8392l-0.98433-4.7223q-0.48974-2.3495-2.8392-1.8598l-7.5796 1.5799q-2.3495 0.48974-1.8598 2.8392z" clip-path="url(#a)" fill="#fff" stroke="#fff"/>
<g clip-path="url(#a)">
<defs>
<path id="ah" d="m19.672 64.797v-27.391h12.406q6.8906 0 10.641 3.5625 3.7656 3.5625 3.7656 10.156 0 6.5469-3.7656 10.109-3.75 3.5625-10.641 3.5625zm-9.8594 8.1094h22.266q12.266 0 18.531-5.5469 6.2812-5.5469 6.2812-16.234 0-10.797-6.2812-16.312-6.2656-5.5156-18.531-5.5156h-12.406v-29.297h-9.8594z"/>
</defs>
<g transform="translate(334.09 480.04) rotate(78.226) scale(.08 -.08)">
<use xlink:href="#ah"/>
</g>
</g>
<path d="m246.82 485.61 0.69851-5.8132q0.28632-2.3829-2.0965-2.6692l-7.6872-0.92369q-2.3829-0.28632-2.6692 2.0965l-0.69851 5.8132q-0.28632 2.3829 2.0965 2.6692l7.6872 0.92369q2.3829 0.28632 2.6692-2.0965z" clip-path="url(#a)" fill="#fff" stroke="#fff"/>
<g clip-path="url(#a)">
<g transform="translate(242.79 485.12) rotate(-83.148) scale(.08 -.08)">
<use xlink:href="#af"/>
</g>
</g>
<path d="m476.4 828.02v33.808q0 2.4 2.4 2.4h7.7425q2.4 0 2.4-2.4v-33.808q0-2.4-2.4-2.4h-7.7425q-2.4 0-2.4 2.4z" clip-path="url(#a)" fill="#fff" stroke="#fff"/>
<g clip-path="url(#a)">
<defs>
<path id="d" d="m56.203 29.594v-4.3906h-41.312q0.59375-9.2812 5.5938-14.141t13.938-4.8594q5.1719 0 10.031 1.2656t9.6562 3.8125v-8.5q-4.8438-2.0469-9.9219-3.125t-10.297-1.0781q-13.094 0-20.734 7.6094-7.6406 7.625-7.6406 20.625 0 13.422 7.25 21.297 7.25 7.8906 19.562 7.8906 11.031 0 17.453-7.1094 6.4219-7.0938 6.4219-19.297zm-8.9844 2.6406q-0.09375 7.3594-4.125 11.75-4.0312 4.4062-10.672 4.4062-7.5156 0-12.031-4.25t-5.2031-11.969z"/>
<path id="f" d="m41.109 46.297q-1.5156 0.875-3.2969 1.2812-1.7812 0.42188-3.9219 0.42188-7.625 0-11.703-4.9531t-4.0781-14.234v-28.812h-9.0312v54.688h9.0312v-8.5q2.8438 4.9844 7.375 7.3906 4.5469 2.4219 11.047 2.4219 0.92188 0 2.0469-0.125 1.125-0.10938 2.4844-0.35938z"/>
<path id="j" d="m52 44.188q3.375 6.0625 8.0625 8.9375t11.031 2.875q8.5469 0 13.188-5.9844 4.6406-5.9688 4.6406-17v-33.016h-9.0312v32.719q0 7.8594-2.7969 11.656-2.7812 3.8125-8.4844 3.8125-6.9844 0-11.047-4.6406-4.0469-4.625-4.0469-12.641v-30.906h-9.0312v32.719q0 7.9062-2.7812 11.688t-8.5938 3.7812q-6.8906 0-10.953-4.6562-4.0469-4.6562-4.0469-12.625v-30.906h-9.0312v54.688h9.0312v-8.5q3.0781 5.0312 7.375 7.4219t10.203 2.3906q5.9688 0 10.141-3.0312 4.1719-3.0156 6.1719-8.7812z"/>
<path id="h" d="m9.4219 54.688h8.9844v-54.688h-8.9844zm0 21.297h8.9844v-11.391h-8.9844z"/>
<path id="g" d="m54.891 33.016v-33.016h-8.9844v32.719q0 7.7656-3.0312 11.609-3.0312 3.8594-9.0781 3.8594-7.2812 0-11.484-4.6406-4.2031-4.625-4.2031-12.641v-30.906h-9.0312v54.688h9.0312v-8.5q3.2344 4.9375 7.5938 7.375 4.375 2.4375 10.094 2.4375 9.4219 0 14.25-5.8281 4.8438-5.8281 4.8438-17.156z"/>
<path id="i" d="m34.281 27.484q-10.891 0-15.094-2.4844t-4.2031-8.5q0-4.7812 3.1562-7.5938 3.1562-2.7969 8.5625-2.7969 7.4844 0 12 5.2969t4.5156 14.078v2zm17.922 3.7188v-31.203h-8.9844v8.2969q-3.0781-4.9688-7.6719-7.3438t-11.234-2.375q-8.3906 0-13.359 4.7188-4.9531 4.7188-4.9531 12.625 0 9.2188 6.1719 13.906 6.1875 4.6875 18.438 4.6875h12.609v0.89062q0 6.2031-4.0781 9.5938t-11.453 3.3906q-4.6875 0-9.1406-1.125-4.4375-1.125-8.5312-3.375v8.3125q4.9219 1.9062 9.5625 2.8438 4.6406 0.95312 9.0312 0.95312 11.875 0 17.734-6.1562 5.8594-6.1406 5.8594-18.641z"/>
<path id="l" d="m9.4219 75.984h8.9844v-75.984h-8.9844z"/>
</defs>
<g transform="translate(480.46 828.02) rotate(90) scale(.08 -.08)">
<use xlink:href="#k"/>
<use x="44.083984" xlink:href="#d"/>
<use x="105.607422" xlink:href="#f"/>
<use x="144.970703" xlink:href="#j"/>
<use x="242.382812" xlink:href="#h"/>
<use x="270.166016" xlink:href="#g"/>
<use x="333.544922" xlink:href="#i"/>
<use x="394.824219" xlink:href="#l"/>
</g>
</g>
<path d="m589.93 633.11 2.0142-5.0883q0.88336-2.2315-1.3482-3.1149l-7.199-2.8498q-2.2315-0.88336-3.1149 1.3482l-2.0142 5.0883q-0.88336 2.2315 1.3482 3.1149l7.199 2.8498q2.2315 0.88336 3.1149-1.3482z" clip-path="url(#a)" fill="#fff" stroke="#fff"/>
<g clip-path="url(#a)">
<g transform="translate(586.15 631.61) rotate(-68.404) scale(.08 -.08)">
<use xlink:href="#v"/>
</g>
</g>
<path d="m614.35 631.92 1.0441-4.4812q0.54459-2.3374-1.7928-2.882l-7.5405-1.7569q-2.3374-0.54459-2.882 1.7928l-1.0441 4.4812q-0.54459 2.3374 1.7928 2.882l7.5405 1.7569q2.3374 0.54459 2.882-1.7928z" clip-path="url(#a)" fill="#fff" stroke="#fff"/>
<g clip-path="url(#a)">
<g transform="translate(610.39 630.99) rotate(-76.885) scale(.08 -.08)">
<use xlink:href="#z"/>
</g>
</g>
<path d="m639.67 631.72 0.38106-6.1482q0.14847-2.3954-2.2469-2.5439l-7.7277-0.47896q-2.3954-0.14847-2.5439 2.2469l-0.38106 6.1482q-0.14847 2.3954 2.2469 2.5439l7.7277 0.47896q2.3954 0.14847 2.5439-2.2469z" clip-path="url(#a)" fill="#fff" stroke="#fff"/>
<g clip-path="url(#a)">
<defs>
<path id="ar" d="m19.672 64.797v-56.688h11.922q15.094 0 22.094 6.8281 7 6.8438 7 21.594 0 14.641-7 21.453t-22.094 6.8125zm-9.8594 8.1094h20.266q21.188 0 31.094-8.8125 9.9219-8.8125 9.9219-27.562 0-18.859-9.9688-27.703-9.9531-8.8281-31.047-8.8281h-20.266z"/>
</defs>
<g transform="translate(635.61 631.46) rotate(-86.453) scale(.08 -.08)">
<use xlink:href="#ar"/>
</g>
</g>
<path d="m653.03 625.9 0.72139 6.1566q0.2793 2.3837 2.663 2.1044l7.6899-0.90105q2.3837-0.2793 2.1044-2.663l-0.72139-6.1566q-0.2793-2.3837-2.663-2.1044l-7.6899 0.90105q-2.3837 0.2793-2.1044 2.663z" clip-path="url(#a)" fill="#fff" stroke="#fff"/>
<g clip-path="url(#a)">
<g transform="translate(657.07 625.43) rotate(83.317) scale(.08 -.08)">
<use xlink:href="#aq"/>
</g>
</g>
<path d="m680.08 627.65 1.4793 4.8585q0.69904 2.2959 2.995 1.5969l7.4068-2.2551q2.2959-0.69904 1.5969-2.995l-1.4793-4.8585q-0.69904-2.2959-2.995-1.5969l-7.4068 2.2551q-2.2959 0.69904-1.5969 2.995z" clip-path="url(#a)" fill="#fff" stroke="#fff"/>
<g clip-path="url(#a)">
<defs>
<path id="au" d="m53.516 70.516v-9.625q-5.6094 2.6875-10.594 4-4.9844 1.3281-9.625 1.3281-8.0469 0-12.422-3.125t-4.375-8.8906q0-4.8438 2.9062-7.3125 2.9062-2.4531 11.016-3.9688l5.9531-1.2188q11.031-2.1094 16.281-7.4062t5.25-14.172q0-10.609-7.1094-16.078-7.0938-5.4688-20.812-5.4688-5.1719 0-11.016 1.1719-5.8281 1.1719-12.078 3.4688v10.156q6-3.3594 11.766-5.0781 5.7656-1.7031 11.328-1.7031 8.4375 0 13.031 3.3125 4.5938 3.3281 4.5938 9.4844 0 5.3594-3.2969 8.3906t-10.812 4.5469l-6.0156 1.1719q-11.031 2.1875-15.969 6.875-4.9219 4.6875-4.9219 13.047 0 9.6719 6.8125 15.234t18.766 5.5625q5.1406 0 10.453-0.9375 5.3281-0.92188 10.891-2.7656z"/>
</defs>
<g transform="translate(683.97 626.47) rotate(73.066) scale(.08 -.08)">
<use xlink:href="#au"/>
</g>
</g>
<path d="m674.88 556.38 2.5889 4.8214q1.1354 2.1145 3.2498 0.97908l6.8213-3.6628q2.1145-1.1354 0.97908-3.2498l-2.5889-4.8214q-1.1354-2.1145-3.2498-0.97908l-6.8213 3.6628q-2.1145 1.1354-0.97908 3.2498z" clip-path="url(#a)" fill="#fff" stroke="#fff"/>
<g clip-path="url(#a)">
<g transform="translate(678.46 554.46) rotate(61.766) scale(.08 -.08)">
<use xlink:href="#v"/>
</g>
</g>
<path d="m966.05 828.02v33.808q0 2.4 2.4 2.4h7.7425q2.4 0 2.4-2.4v-33.808q0-2.4-2.4-2.4h-7.7425q-2.4 0-2.4 2.4z" clip-path="url(#a)" fill="#fff" stroke="#fff"/>
<g clip-path="url(#a)">
<g transform="translate(970.11 828.02) rotate(90) scale(.08 -.08)">
<use xlink:href="#k"/>
<use x="44.083984" xlink:href="#d"/>
<use x="105.607422" xlink:href="#f"/>
<use x="144.970703" xlink:href="#j"/>
<use x="242.382812" xlink:href="#h"/>
<use x="270.166016" xlink:href="#g"/>
<use x="333.544922" xlink:href="#i"/>
<use x="394.824219" xlink:href="#l"/>
</g>
</g>
<path d="m1167.2 562.45 4.3028-3.3815q1.887-1.483 0.40404-3.37l-4.7841-6.0876q-1.483-1.887-3.37-0.40404l-4.3028 3.3815q-1.887 1.483-0.40404 3.37l4.7841 6.0876q1.483 1.887 3.37 0.40404z" clip-path="url(#a)" fill="#fff" stroke="#fff"/>
<g clip-path="url(#a)">
<g transform="translate(1164.7 559.25) rotate(-38.163) scale(.08 -.08)">
<use xlink:href="#v"/>
</g>
</g>
<path d="m1223.6 632.14 1.2222-4.436q0.63748-2.3138-1.6763-2.9513l-7.4644-2.0566q-2.3138-0.63748-2.9513 1.6763l-1.2222 4.436q-0.63748 2.3138 1.6763 2.9513l7.4644 2.0566q2.3138 0.63748 2.9513-1.6763z" clip-path="url(#a)" fill="#fff" stroke="#fff"/>
<g clip-path="url(#a)">
<g transform="translate(1219.6 631.06) rotate(-74.596) scale(.08 -.08)">
<use xlink:href="#z"/>
</g>
</g>
<path d="m1261 630.81 0.11127-4.8225q0.05536-2.3994-2.344-2.4547l-7.7404-0.17859q-2.3994-0.05536-2.4547 2.344l-0.11127 4.8225q-0.05536 2.3994 2.344 2.4547l7.7404 0.17859q2.3994 0.055359 2.4547-2.344z" clip-path="url(#a)" fill="#fff" stroke="#fff"/>
<g clip-path="url(#a)">
<g transform="translate(1256.9 630.72) rotate(-88.678) scale(.08 -.08)">
<use xlink:href="#ah"/>
</g>
</g>
<path d="m1388.8 560.06 4.8247 2.5827q2.1159 1.1327 3.2486-0.98324l3.654-6.826q1.1327-2.1159-0.98324-3.2486l-4.8247-2.5827q-2.1159-1.1327-3.2486 0.98324l-3.654 6.826q-1.1327 2.1159 0.98324 3.2486z" clip-path="url(#a)" fill="#fff" stroke="#fff"/>
<g clip-path="url(#a)">
<g transform="translate(1390.7 556.48) rotate(28.161) scale(.08 -.08)">
<use xlink:href="#v"/>
</g>
</g>
<path d="m1061.2 704.97 1.1647-4.919q0.55297-2.3354-1.7825-2.8884l-7.5342-1.7839q-2.3354-0.55297-2.8884 1.7825l-1.1647 4.919q-0.55297 2.3354 1.7825 2.8884l7.5342 1.7839q2.3354 0.55297 2.8884-1.7825z" clip-path="url(#a)" fill="#fff" stroke="#fff"/>
<g clip-path="url(#a)">
<defs>
<path id="q" d="m9.8125 72.906h46.094v-8.3125h-36.234v-21.578h34.719v-8.2969h-34.719v-26.422h37.109v-8.2969h-46.969z"/>
</defs>
<g transform="translate(1057.3 704.03) rotate(-76.679) scale(.08 -.08)">
<use xlink:href="#q"/>
</g>
</g>
<path d="m1083.3 699.79 1.2871 5.436q0.55297 2.3354 2.8884 1.7825l7.5342-1.7839q2.3354-0.55297 1.7825-2.8884l-1.2871-5.436q-0.55297-2.3354-2.8884-1.7825l-7.5342 1.7839q-2.3354 0.55297-1.7825 2.8884z" clip-path="url(#a)" fill="#fff" stroke="#fff"/>
<g clip-path="url(#a)">
<defs>
<path id="u" d="m64.406 67.281v-10.391q-4.9844 4.6406-10.625 6.9219-5.6406 2.2969-11.984 2.2969-12.5 0-19.141-7.6406t-6.6406-22.094q0-14.406 6.6406-22.047t19.141-7.6406q6.3438 0 11.984 2.2969t10.625 6.9375v-10.312q-5.1719-3.5156-10.969-5.2812-5.7812-1.75-12.219-1.75-16.562 0-26.094 10.125-9.5156 10.141-9.5156 27.672 0 17.578 9.5156 27.703 9.5312 10.141 26.094 10.141 6.5312 0 12.312-1.7344 5.7969-1.7344 10.875-5.2031z"/>
</defs>
<g transform="translate(1087.2 698.85) rotate(76.679) scale(.08 -.08)">
<use xlink:href="#u"/>
</g>
</g>
<path d="m1171.8 828.02v33.808q0 2.4 2.4 2.4h7.7425q2.4 0 2.4-2.4v-33.808q0-2.4-2.4-2.4h-7.7425q-2.4 0-2.4 2.4z" clip-path="url(#a)" fill="#fff" stroke="#fff"/>
<g clip-path="url(#a)">
<g transform="translate(1175.9 828.02) rotate(90) scale(.08 -.08)">
<use xlink:href="#k"/>
<use x="44.083984" xlink:href="#d"/>
<use x="105.607422" xlink:href="#f"/>
<use x="144.970703" xlink:href="#j"/>
<use x="242.382812" xlink:href="#h"/>
<use x="270.166016" xlink:href="#g"/>
<use x="333.544922" xlink:href="#i"/>
<use x="394.824219" xlink:href="#l"/>
</g>
</g>
<path d="m1245.2 828.02v33.808q0 2.4 2.4 2.4h7.7425q2.4 0 2.4-2.4v-33.808q0-2.4-2.4-2.4h-7.7425q-2.4 0-2.4 2.4z" clip-path="url(#a)" fill="#fff" stroke="#fff"/>
<g clip-path="url(#a)">
<g transform="translate(1249.2 828.02) rotate(90) scale(.08 -.08)">
<use xlink:href="#k"/>
<use x="44.083984" xlink:href="#d"/>
<use x="105.607422" xlink:href="#f"/>
<use x="144.970703" xlink:href="#j"/>
<use x="242.382812" xlink:href="#h"/>
<use x="270.166016" xlink:href="#g"/>
<use x="333.544922" xlink:href="#i"/>
<use x="394.824219" xlink:href="#l"/>
</g>
</g>
<path d="m1430 707.78 4.5251-3.2285q1.9537-1.3939 0.5598-3.3476l-4.4968-6.3028q-1.3939-1.9537-3.3476-0.5598l-4.5251 3.2285q-1.9537 1.3939-0.5598 3.3476l4.4968 6.3028q1.3939 1.9537 3.3476 0.5598z" clip-path="url(#a)" fill="#fff" stroke="#fff"/>
<g clip-path="url(#a)">
<defs>
<path id="ag" d="m44.391 34.188q3.1719-1.0781 6.1719-4.5938t6.0312-9.6719l10.016-19.922h-10.609l-9.3125 18.703q-3.625 7.3281-7.0156 9.7188t-9.25 2.3906h-10.75v-30.812h-9.8594v72.906h22.266q12.5 0 18.656-5.2344 6.1562-5.2188 6.1562-15.766 0-6.8906-3.2031-11.438-3.2031-4.5312-9.2969-6.2812zm-24.719 30.609v-25.875h12.406q7.125 0 10.766 3.2969t3.6406 9.6875-3.6406 9.6406-10.766 3.25z"/>
</defs>
<g transform="translate(1427.7 704.47) rotate(-35.507) scale(.08 -.08)">
<use xlink:href="#ag"/>
</g>
</g>
<path d="m1470.8 707.07 3.3021-3.8274q1.5677-1.8172-0.24944-3.3849l-5.8623-5.0576q-1.8172-1.5677-3.3849 0.24944l-3.3021 3.8274q-1.5677 1.8172 0.24944 3.3849l5.8623 5.0576q1.8172 1.5677 3.3849-0.24944z" clip-path="url(#a)" fill="#fff" stroke="#fff"/>
<g clip-path="url(#a)">
<g transform="translate(1467.7 704.42) rotate(-49.215) scale(.08 -.08)">
<use xlink:href="#q"/>
</g>
</g>
<path d="m1513.1 705.32 1.4859-4.8317q0.70548-2.294-1.5885-2.9994l-7.4004-2.2759q-2.294-0.70548-2.9994 1.5885l-1.4859 4.8317q-0.70548 2.294 1.5885 2.9994l7.4004 2.2759q2.294 0.70548 2.9994-1.5885z" clip-path="url(#a)" fill="#fff" stroke="#fff"/>
<g clip-path="url(#a)">
<g transform="translate(1509.3 704.13) rotate(-72.905) scale(.08 -.08)">
<use xlink:href="#q"/>
</g>
</g>
<path d="m1542.6 700.44 1.1745 4.4488q0.61259 2.3205 2.9331 1.7079l7.486-1.9762q2.3205-0.61259 1.7079-2.9331l-1.1745-4.4488q-0.61259-2.3205-2.9331-1.7079l-7.486 1.9762q-2.3205 0.61259-1.7079 2.9331z" clip-path="url(#a)" fill="#fff" stroke="#fff"/>
<g clip-path="url(#a)">
<g transform="translate(1546.6 699.4) rotate(75.212) scale(.08 -.08)">
<use xlink:href="#z"/>
</g>
</g>
<path d="m1585.3 703 3.6225 4.2525q1.5563 1.827 3.3833 0.27067l5.8939-5.0207q1.827-1.5563 0.27067-3.3833l-3.6225-4.2525q-1.5563-1.827-3.3833-0.27067l-5.8939 5.0207q-1.827 1.5563-0.27067 3.3833z" clip-path="url(#a)" fill="#fff" stroke="#fff"/>
<g clip-path="url(#a)">
<g transform="translate(1588.4 700.37) rotate(49.574) scale(.08 -.08)">
<use xlink:href="#u"/>
</g>
</g>
<path d="m1629.7 704.57 4.8263 3.3147q1.9783 1.3587 3.3371-0.61962l4.3833-6.3822q1.3587-1.9783-0.61962-3.3371l-4.8263-3.3147q-1.9783-1.3587-3.3371 0.61962l-4.3833 6.3822q-1.3587 1.9783 0.61962 3.3371z" clip-path="url(#a)" fill="#fff" stroke="#fff"/>
<g clip-path="url(#a)">
<g transform="translate(1632 701.22) rotate(34.481) scale(.08 -.08)">
<use xlink:href="#af"/>
</g>
</g>
<path d="m1320.9 828.02v33.808q0 2.4 2.4 2.4h7.7425q2.4 0 2.4-2.4v-33.808q0-2.4-2.4-2.4h-7.7425q-2.4 0-2.4 2.4z" clip-path="url(#a)" fill="#fff" stroke="#fff"/>
<g clip-path="url(#a)">
<g transform="translate(1324.9 828.02) rotate(90) scale(.08 -.08)">
<use xlink:href="#k"/>
<use x="44.083984" xlink:href="#d"/>
<use x="105.607422" xlink:href="#f"/>
<use x="144.970703" xlink:href="#j"/>
<use x="242.382812" xlink:href="#h"/>
<use x="270.166016" xlink:href="#g"/>
<use x="333.544922" xlink:href="#i"/>
<use x="394.824219" xlink:href="#l"/>
</g>
</g>
<path d="m1398.9 828.02v33.808q0 2.4 2.4 2.4h7.7425q2.4 0 2.4-2.4v-33.808q0-2.4-2.4-2.4h-7.7425q-2.4 0-2.4 2.4z" clip-path="url(#a)" fill="#fff" stroke="#fff"/>
<g clip-path="url(#a)">
<g transform="translate(1403 828.02) rotate(90) scale(.08 -.08)">
<use xlink:href="#k"/>
<use x="44.083984" xlink:href="#d"/>
<use x="105.607422" xlink:href="#f"/>
<use x="144.970703" xlink:href="#j"/>
<use x="242.382812" xlink:href="#h"/>
<use x="270.166016" xlink:href="#g"/>
<use x="333.544922" xlink:href="#i"/>
<use x="394.824219" xlink:href="#l"/>
</g>
</g>
<path d="m1479.4 828.02v33.808q0 2.4 2.4 2.4h7.7425q2.4 0 2.4-2.4v-33.808q0-2.4-2.4-2.4h-7.7425q-2.4 0-2.4 2.4z" clip-path="url(#a)" fill="#fff" stroke="#fff"/>
<g clip-path="url(#a)">
<g transform="translate(1483.4 828.02) rotate(90) scale(.08 -.08)">
<use xlink:href="#k"/>
<use x="44.083984" xlink:href="#d"/>
<use x="105.607422" xlink:href="#f"/>
<use x="144.970703" xlink:href="#j"/>
<use x="242.382812" xlink:href="#h"/>
<use x="270.166016" xlink:href="#g"/>
<use x="333.544922" xlink:href="#i"/>
<use x="394.824219" xlink:href="#l"/>
</g>
</g>
<path d="m1562.1 828.02v33.808q0 2.4 2.4 2.4h7.7425q2.4 0 2.4-2.4v-33.808q0-2.4-2.4-2.4h-7.7425q-2.4 0-2.4 2.4z" clip-path="url(#a)" fill="#fff" stroke="#fff"/>
<g clip-path="url(#a)">
<g transform="translate(1566.2 828.02) rotate(90) scale(.08 -.08)">
<use xlink:href="#k"/>
<use x="44.083984" xlink:href="#d"/>
<use x="105.607422" xlink:href="#f"/>
<use x="144.970703" xlink:href="#j"/>
<use x="242.382812" xlink:href="#h"/>
<use x="270.166016" xlink:href="#g"/>
<use x="333.544922" xlink:href="#i"/>
<use x="394.824219" xlink:href="#l"/>
</g>
</g>
<path d="m1647.3 828.02v33.808q0 2.4 2.4 2.4h7.7425q2.4 0 2.4-2.4v-33.808q0-2.4-2.4-2.4h-7.7425q-2.4 0-2.4 2.4z" clip-path="url(#a)" fill="#fff" stroke="#fff"/>
<g clip-path="url(#a)">
<g transform="translate(1651.4 828.02) rotate(90) scale(.08 -.08)">
<use xlink:href="#k"/>
<use x="44.083984" xlink:href="#d"/>
<use x="105.607422" xlink:href="#f"/>
<use x="144.970703" xlink:href="#j"/>
<use x="242.382812" xlink:href="#h"/>
<use x="270.166016" xlink:href="#g"/>
<use x="333.544922" xlink:href="#i"/>
<use x="394.824219" xlink:href="#l"/>
</g>
</g>
<path d="m1032.3 828.02v33.808q0 2.4 2.4 2.4h7.7425q2.4 0 2.4-2.4v-33.808q0-2.4-2.4-2.4h-7.7425q-2.4 0-2.4 2.4z" clip-path="url(#a)" fill="#fff" stroke="#fff"/>
<g clip-path="url(#a)">
<g transform="translate(1036.3 828.02) rotate(90) scale(.08 -.08)">
<use xlink:href="#k"/>
<use x="44.083984" xlink:href="#d"/>
<use x="105.607422" xlink:href="#f"/>
<use x="144.970703" xlink:href="#j"/>
<use x="242.382812" xlink:href="#h"/>
<use x="270.166016" xlink:href="#g"/>
<use x="333.544922" xlink:href="#i"/>
<use x="394.824219" xlink:href="#l"/>
</g>
</g>
<path d="m1100.9 828.02v33.808q0 2.4 2.4 2.4h7.7425q2.4 0 2.4-2.4v-33.808q0-2.4-2.4-2.4h-7.7425q-2.4 0-2.4 2.4z" clip-path="url(#a)" fill="#fff" stroke="#fff"/>
<g clip-path="url(#a)">
<g transform="translate(1104.9 828.02) rotate(90) scale(.08 -.08)">
<use xlink:href="#k"/>
<use x="44.083984" xlink:href="#d"/>
<use x="105.607422" xlink:href="#f"/>
<use x="144.970703" xlink:href="#j"/>
<use x="242.382812" xlink:href="#h"/>
<use x="270.166016" xlink:href="#g"/>
<use x="333.544922" xlink:href="#i"/>
<use x="394.824219" xlink:href="#l"/>
</g>
</g>
<path d="m521.34 828.02v33.808q0 2.4 2.4 2.4h7.7425q2.4 0 2.4-2.4v-33.808q0-2.4-2.4-2.4h-7.7425q-2.4 0-2.4 2.4z" clip-path="url(#a)" fill="#fff" stroke="#fff"/>
<g clip-path="url(#a)">
<g transform="translate(525.41 828.02) rotate(90) scale(.08 -.08)">
<use xlink:href="#k"/>
<use x="44.083984" xlink:href="#d"/>
<use x="105.607422" xlink:href="#f"/>
<use x="144.970703" xlink:href="#j"/>
<use x="242.382812" xlink:href="#h"/>
<use x="270.166016" xlink:href="#g"/>
<use x="333.544922" xlink:href="#i"/>
<use x="394.824219" xlink:href="#l"/>
</g>
</g>
<path d="m568.65 828.02v33.808q0 2.4 2.4 2.4h7.7425q2.4 0 2.4-2.4v-33.808q0-2.4-2.4-2.4h-7.7425q-2.4 0-2.4 2.4z" clip-path="url(#a)" fill="#fff" stroke="#fff"/>
<g clip-path="url(#a)">
<g transform="translate(572.72 828.02) rotate(90) scale(.08 -.08)">
<use xlink:href="#k"/>
<use x="44.083984" xlink:href="#d"/>
<use x="105.607422" xlink:href="#f"/>
<use x="144.970703" xlink:href="#j"/>
<use x="242.382812" xlink:href="#h"/>
<use x="270.166016" xlink:href="#g"/>
<use x="333.544922" xlink:href="#i"/>
<use x="394.824219" xlink:href="#l"/>
</g>
</g>
<path d="m618.33 828.02v33.808q0 2.4 2.4 2.4h7.7425q2.4 0 2.4-2.4v-33.808q0-2.4-2.4-2.4h-7.7425q-2.4 0-2.4 2.4z" clip-path="url(#a)" fill="#fff" stroke="#fff"/>
<g clip-path="url(#a)">
<g transform="translate(622.39 828.02) rotate(90) scale(.08 -.08)">
<use xlink:href="#k"/>
<use x="44.083984" xlink:href="#d"/>
<use x="105.607422" xlink:href="#f"/>
<use x="144.970703" xlink:href="#j"/>
<use x="242.382812" xlink:href="#h"/>
<use x="270.166016" xlink:href="#g"/>
<use x="333.544922" xlink:href="#i"/>
<use x="394.824219" xlink:href="#l"/>
</g>
</g>
<path d="m670.37 828.02v33.808q0 2.4 2.4 2.4h7.7425q2.4 0 2.4-2.4v-33.808q0-2.4-2.4-2.4h-7.7425q-2.4 0-2.4 2.4z" clip-path="url(#a)" fill="#fff" stroke="#fff"/>
<g clip-path="url(#a)">
<g transform="translate(674.43 828.02) rotate(90) scale(.08 -.08)">
<use xlink:href="#k"/>
<use x="44.083984" xlink:href="#d"/>
<use x="105.607422" xlink:href="#f"/>
<use x="144.970703" xlink:href="#j"/>
<use x="242.382812" xlink:href="#h"/>
<use x="270.166016" xlink:href="#g"/>
<use x="333.544922" xlink:href="#i"/>
<use x="394.824219" xlink:href="#l"/>
</g>
</g>
<path d="m724.77 828.02v33.808q0 2.4 2.4 2.4h7.7425q2.4 0 2.4-2.4v-33.808q0-2.4-2.4-2.4h-7.7425q-2.4 0-2.4 2.4z" clip-path="url(#a)" fill="#fff" stroke="#fff"/>
<g clip-path="url(#a)">
<g transform="translate(728.84 828.02) rotate(90) scale(.08 -.08)">
<use xlink:href="#k"/>
<use x="44.083984" xlink:href="#d"/>
<use x="105.607422" xlink:href="#f"/>
<use x="144.970703" xlink:href="#j"/>
<use x="242.382812" xlink:href="#h"/>
<use x="270.166016" xlink:href="#g"/>
<use x="333.544922" xlink:href="#i"/>
<use x="394.824219" xlink:href="#l"/>
</g>
</g>
<path d="m625.78 707.72 4.3783-3.2831q1.9201-1.4398 0.48028-3.36l-4.645-6.1944q-1.4398-1.9201-3.36-0.48028l-4.3783 3.2831q-1.9201 1.4398-0.48028 3.36l4.645 6.1944q1.4398 1.9201 3.36 0.48028z" clip-path="url(#a)" fill="#fff" stroke="#fff"/>
<g clip-path="url(#a)">
<g transform="translate(623.34 704.47) rotate(-36.865) scale(.08 -.08)">
<use xlink:href="#v"/>
</g>
</g>
<path d="m747.44 701.17 2.3341 5.045q1.0078 2.1782 3.1859 1.1704l7.0269-3.2511q2.1782-1.0078 1.1704-3.1859l-2.3341-5.045q-1.0078-2.1782-3.1859-1.1704l-7.0269 3.2511q-2.1782 1.0078-1.1704 3.1859z" clip-path="url(#a)" fill="#fff" stroke="#fff"/>
<g clip-path="url(#a)">
<g transform="translate(751.13 699.47) rotate(65.172) scale(.08 -.08)">
<use xlink:href="#ag"/>
</g>
</g>
<path d="m777.56 703.36 3.168 3.6376q1.5762 1.8099 3.3861 0.23366l5.8387-5.0849q1.8099-1.5762 0.23366-3.3861l-3.168-3.6376q-1.5762-1.8099-3.3861-0.23366l-5.8387 5.0849q-1.8099 1.5762-0.23366 3.3861z" clip-path="url(#a)" fill="#fff" stroke="#fff"/>
<g clip-path="url(#a)">
<g transform="translate(780.62 700.69) rotate(48.947) scale(.08 -.08)">
<use xlink:href="#ah"/>
</g>
</g>
<path d="m781.54 828.02v33.808q0 2.4 2.4 2.4h7.7425q2.4 0 2.4-2.4v-33.808q0-2.4-2.4-2.4h-7.7425q-2.4 0-2.4 2.4z" clip-path="url(#a)" fill="#fff" stroke="#fff"/>
<g clip-path="url(#a)">
<g transform="translate(785.61 828.02) rotate(90) scale(.08 -.08)">
<use xlink:href="#k"/>
<use x="44.083984" xlink:href="#d"/>
<use x="105.607422" xlink:href="#f"/>
<use x="144.970703" xlink:href="#j"/>
<use x="242.382812" xlink:href="#h"/>
<use x="270.166016" xlink:href="#g"/>
<use x="333.544922" xlink:href="#i"/>
<use x="394.824219" xlink:href="#l"/>
</g>
</g>
<path d="m840.68 828.02v33.808q0 2.4 2.4 2.4h7.7425q2.4 0 2.4-2.4v-33.808q0-2.4-2.4-2.4h-7.7425q-2.4 0-2.4 2.4z" clip-path="url(#a)" fill="#fff" stroke="#fff"/>
<g clip-path="url(#a)">
<g transform="translate(844.74 828.02) rotate(90) scale(.08 -.08)">
<use xlink:href="#k"/>
<use x="44.083984" xlink:href="#d"/>
<use x="105.607422" xlink:href="#f"/>
<use x="144.970703" xlink:href="#j"/>
<use x="242.382812" xlink:href="#h"/>
<use x="270.166016" xlink:href="#g"/>
<use x="333.544922" xlink:href="#i"/>
<use x="394.824219" xlink:href="#l"/>
</g>
</g>
<path d="m101.24 558.32 0.31072-5.5501q0.13416-2.3962-2.2621-2.5304l-7.7304-0.43279q-2.3962-0.13416-2.5304 2.2621l-0.31072 5.5501q-0.13416 2.3962 2.2621 2.5304l7.7304 0.43279q2.3962 0.13416 2.5304-2.2621z" clip-path="url(#a)" fill="#fff" stroke="#fff"/>
<g clip-path="url(#a)">
<g transform="translate(97.179 558.09) rotate(-86.796) scale(.08 -.08)">
<use xlink:href="#ag"/>
</g>
</g>
<path d="m104.84 557.97 0.20069-5.051q0.095281-2.3981-2.3028-2.4934l-7.7364-0.30738q-2.3981-0.095281-2.4934 2.3028l-0.20069 5.051q-0.095281 2.3981 2.3028 2.4934l7.7364 0.30738q2.3981 0.095281 2.4934-2.3028z" clip-path="url(#a)" fill="#fff" stroke="#fff"/>
<g clip-path="url(#a)">
<g transform="translate(100.78 557.81) rotate(-87.725) scale(.08 -.08)">
<use xlink:href="#q"/>
</g>
</g>
<path d="m109.63 557.84 0.091278-5.0542q0.043337-2.3996-2.3563-2.4429l-7.7412-0.13981q-2.3996-0.043337-2.4429 2.3563l-0.091278 5.0542q-0.043337 2.3996 2.3563 2.4429l7.7412 0.13981q2.3996 0.043337 2.4429-2.3563z" clip-path="url(#a)" fill="#fff" stroke="#fff"/>
<g clip-path="url(#a)">
<g transform="translate(105.57 557.76) rotate(-88.965) scale(.08 -.08)">
<use xlink:href="#q"/>
</g>
</g>
<path d="m103.03 552.46 0.050442 5.586q0.021671 2.3999 2.4216 2.3782l7.7422-0.069912q2.3999-0.021671 2.3782-2.4216l-0.050442-5.586q-0.021671-2.3999-2.4216-2.3782l-7.7422 0.069912q-2.3999 0.021671-2.3782 2.4216z" clip-path="url(#a)" fill="#fff" stroke="#fff"/>
<g clip-path="url(#a)">
<g transform="translate(107.09 552.42) rotate(89.483) scale(.08 -.08)">
<use xlink:href="#u"/>
</g>
</g>
<path d="m123.48 409.42 1.5099 4.8242q0.71688 2.2904 3.0073 1.5736l7.389-2.3127q2.2904-0.71688 1.5736-3.0073l-1.5099-4.8242q-0.71688-2.2904-3.0073-1.5736l-7.389 2.3127q-2.2904 0.71688-1.5736 3.0073z" clip-path="url(#a)" fill="#fff" stroke="#fff"/>
<g clip-path="url(#a)">
<g transform="translate(127.36 408.2) rotate(72.621) scale(.08 -.08)">
<use xlink:href="#q"/>
</g>
</g>
<path d="m245.02 704.19 0.49291-5.0309q0.23402-2.3886-2.1545-2.6226l-7.7056-0.75496q-2.3886-0.23402-2.6226 2.1545l-0.49291 5.0309q-0.23402 2.3886 2.1545 2.6226l7.7056 0.75496q2.3886 0.23402 2.6226-2.1545z" clip-path="url(#a)" fill="#fff" stroke="#fff"/>
<g clip-path="url(#a)">
<g transform="translate(240.98 703.79) rotate(-84.404) scale(.08 -.08)">
<use xlink:href="#q"/>
</g>
</g>
<path d="m246.71 698.89 0.54471 5.5596q0.23402 2.3886 2.6226 2.1545l7.7056-0.75496q2.3886-0.23402 2.1545-2.6226l-0.54471-5.5596q-0.23402-2.3886-2.6226-2.1545l-7.7056 0.75496q-2.3886 0.23402-2.1545 2.6226z" clip-path="url(#a)" fill="#fff" stroke="#fff"/>
<g clip-path="url(#a)">
<g transform="translate(250.75 698.5) rotate(84.404) scale(.08 -.08)">
<use xlink:href="#u"/>
</g>
</g>
<path d="m284.8 828.02v33.808q0 2.4 2.4 2.4h7.7425q2.4 0 2.4-2.4v-33.808q0-2.4-2.4-2.4h-7.7425q-2.4 0-2.4 2.4z" clip-path="url(#a)" fill="#fff" stroke="#fff"/>
<g clip-path="url(#a)">
<g transform="translate(288.86 828.02) rotate(90) scale(.08 -.08)">
<use xlink:href="#k"/>
<use x="44.083984" xlink:href="#d"/>
<use x="105.607422" xlink:href="#f"/>
<use x="144.970703" xlink:href="#j"/>
<use x="242.382812" xlink:href="#h"/>
<use x="270.166016" xlink:href="#g"/>
<use x="333.544922" xlink:href="#i"/>
<use x="394.824219" xlink:href="#l"/>
</g>
</g>
<path d="m317.91 828.02v33.808q0 2.4 2.4 2.4h7.7425q2.4 0 2.4-2.4v-33.808q0-2.4-2.4-2.4h-7.7425q-2.4 0-2.4 2.4z" clip-path="url(#a)" fill="#fff" stroke="#fff"/>
<g clip-path="url(#a)">
<g transform="translate(321.98 828.02) rotate(90) scale(.08 -.08)">
<use xlink:href="#k"/>
<use x="44.083984" xlink:href="#d"/>
<use x="105.607422" xlink:href="#f"/>
<use x="144.970703" xlink:href="#j"/>
<use x="242.382812" xlink:href="#h"/>
<use x="270.166016" xlink:href="#g"/>
<use x="333.544922" xlink:href="#i"/>
<use x="394.824219" xlink:href="#l"/>
</g>
</g>
<path d="m353.4 828.02v33.808q0 2.4 2.4 2.4h7.7425q2.4 0 2.4-2.4v-33.808q0-2.4-2.4-2.4h-7.7425q-2.4 0-2.4 2.4z" clip-path="url(#a)" fill="#fff" stroke="#fff"/>
<g clip-path="url(#a)">
<g transform="translate(357.46 828.02) rotate(90) scale(.08 -.08)">
<use xlink:href="#k"/>
<use x="44.083984" xlink:href="#d"/>
<use x="105.607422" xlink:href="#f"/>
<use x="144.970703" xlink:href="#j"/>
<use x="242.382812" xlink:href="#h"/>
<use x="270.166016" xlink:href="#g"/>
<use x="333.544922" xlink:href="#i"/>
<use x="394.824219" xlink:href="#l"/>
</g>
</g>
<path d="m391.24 828.02v33.808q0 2.4 2.4 2.4h7.7425q2.4 0 2.4-2.4v-33.808q0-2.4-2.4-2.4h-7.7425q-2.4 0-2.4 2.4z" clip-path="url(#a)" fill="#fff" stroke="#fff"/>
<g clip-path="url(#a)">
<g transform="translate(395.31 828.02) rotate(90) scale(.08 -.08)">
<use xlink:href="#k"/>
<use x="44.083984" xlink:href="#d"/>
<use x="105.607422" xlink:href="#f"/>
<use x="144.970703" xlink:href="#j"/>
<use x="242.382812" xlink:href="#h"/>
<use x="270.166016" xlink:href="#g"/>
<use x="333.544922" xlink:href="#i"/>
<use x="394.824219" xlink:href="#l"/>
</g>
</g>
<path d="m225.66 828.02v33.808q0 2.4 2.4 2.4h7.7425q2.4 0 2.4-2.4v-33.808q0-2.4-2.4-2.4h-7.7425q-2.4 0-2.4 2.4z" clip-path="url(#a)" fill="#fff" stroke="#fff"/>
<g clip-path="url(#a)">
<g transform="translate(229.73 828.02) rotate(90) scale(.08 -.08)">
<use xlink:href="#k"/>
<use x="44.083984" xlink:href="#d"/>
<use x="105.607422" xlink:href="#f"/>
<use x="144.970703" xlink:href="#j"/>
<use x="242.382812" xlink:href="#h"/>
<use x="270.166016" xlink:href="#g"/>
<use x="333.544922" xlink:href="#i"/>
<use x="394.824219" xlink:href="#l"/>
</g>
</g>
<path d="m254.05 828.02v33.808q0 2.4 2.4 2.4h7.7425q2.4 0 2.4-2.4v-33.808q0-2.4-2.4-2.4h-7.7425q-2.4 0-2.4 2.4z" clip-path="url(#a)" fill="#fff" stroke="#fff"/>
<g clip-path="url(#a)">
<g transform="translate(258.11 828.02) rotate(90) scale(.08 -.08)">
<use xlink:href="#k"/>
<use x="44.083984" xlink:href="#d"/>
<use x="105.607422" xlink:href="#f"/>
<use x="144.970703" xlink:href="#j"/>
<use x="242.382812" xlink:href="#h"/>
<use x="270.166016" xlink:href="#g"/>
<use x="333.544922" xlink:href="#i"/>
<use x="394.824219" xlink:href="#l"/>
</g>
</g>
<path d="m76.638 828.02v33.808q0 2.4 2.4 2.4h7.7425q2.4 0 2.4-2.4v-33.808q0-2.4-2.4-2.4h-7.7425q-2.4 0-2.4 2.4z" clip-path="url(#a)" fill="#fff" stroke="#fff"/>
<g clip-path="url(#a)">
<g transform="translate(80.702 828.02) rotate(90) scale(.08 -.08)">
<use xlink:href="#k"/>
<use x="44.083984" xlink:href="#d"/>
<use x="105.607422" xlink:href="#f"/>
<use x="144.970703" xlink:href="#j"/>
<use x="242.382812" xlink:href="#h"/>
<use x="270.166016" xlink:href="#g"/>
<use x="333.544922" xlink:href="#i"/>
<use x="394.824219" xlink:href="#l"/>
</g>
</g>
<path d="m83.734 828.02v33.808q0 2.4 2.4 2.4h7.7425q2.4 0 2.4-2.4v-33.808q0-2.4-2.4-2.4h-7.7425q-2.4 0-2.4 2.4z" clip-path="url(#a)" fill="#fff" stroke="#fff"/>
<g clip-path="url(#a)">
<g transform="translate(87.798 828.02) rotate(90) scale(.08 -.08)">
<use xlink:href="#k"/>
<use x="44.083984" xlink:href="#d"/>
<use x="105.607422" xlink:href="#f"/>
<use x="144.970703" xlink:href="#j"/>
<use x="242.382812" xlink:href="#h"/>
<use x="270.166016" xlink:href="#g"/>
<use x="333.544922" xlink:href="#i"/>
<use x="394.824219" xlink:href="#l"/>
</g>
</g>
<path d="m93.196 828.02v33.808q0 2.4 2.4 2.4h7.7425q2.4 0 2.4-2.4v-33.808q0-2.4-2.4-2.4h-7.7425q-2.4 0-2.4 2.4z" clip-path="url(#a)" fill="#fff" stroke="#fff"/>
<g clip-path="url(#a)">
<g transform="translate(97.26 828.02) rotate(90) scale(.08 -.08)">
<use xlink:href="#k"/>
<use x="44.083984" xlink:href="#d"/>
<use x="105.607422" xlink:href="#f"/>
<use x="144.970703" xlink:href="#j"/>
<use x="242.382812" xlink:href="#h"/>
<use x="270.166016" xlink:href="#g"/>
<use x="333.544922" xlink:href="#i"/>
<use x="394.824219" xlink:href="#l"/>
</g>
</g>
<path d="m105.02 828.02v33.808q0 2.4 2.4 2.4h7.7425q2.4 0 2.4-2.4v-33.808q0-2.4-2.4-2.4h-7.7425q-2.4 0-2.4 2.4z" clip-path="url(#a)" fill="#fff" stroke="#fff"/>
<g clip-path="url(#a)">
<g transform="translate(109.09 828.02) rotate(90) scale(.08 -.08)">
<use xlink:href="#k"/>
<use x="44.083984" xlink:href="#d"/>
<use x="105.607422" xlink:href="#f"/>
<use x="144.970703" xlink:href="#j"/>
<use x="242.382812" xlink:href="#h"/>
<use x="270.166016" xlink:href="#g"/>
<use x="333.544922" xlink:href="#i"/>
<use x="394.824219" xlink:href="#l"/>
</g>
</g>
<path d="m145.27 631.61 0.52574-5.5338q0.22699-2.3892-2.1623-2.6162l-7.7078-0.73228q-2.3892-0.22699-2.6162 2.1623l-0.52574 5.5338q-0.22699 2.3892 2.1623 2.6162l7.7078 0.73228q2.3892 0.22699 2.6162-2.1622z" clip-path="url(#a)" fill="#fff" stroke="#fff"/>
<g clip-path="url(#a)">
<g transform="translate(141.22 631.23) rotate(-84.573) scale(.08 -.08)">
<use xlink:href="#ag"/>
</g>
</g>
<path d="m158.54 558.42 0.05474-5.0547q0.025989-2.3999-2.3739-2.4258l-7.742-0.083842q-2.3999-0.025989-2.4258 2.3739l-0.05474 5.0547q-0.025989 2.3999 2.3739 2.4258l7.742 0.083841q2.3999 0.02599 2.4258-2.3739z" clip-path="url(#a)" fill="#fff" stroke="#fff"/>
<g clip-path="url(#a)">
<g transform="translate(154.48 558.37) rotate(-89.38) scale(.08 -.08)">
<use xlink:href="#q"/>
</g>
</g>
<path d="m161.15 626.1 0.55824 5.5583q0.23984 2.388 2.6278 2.1482l7.7037-0.77372q2.388-0.23984 2.1482-2.6278l-0.55824-5.5583q-0.23984-2.388-2.6278-2.1482l-7.7037 0.77372q-2.388 0.23984-2.1482 2.6278z" clip-path="url(#a)" fill="#fff" stroke="#fff"/>
<g clip-path="url(#a)">
<g transform="translate(165.2 625.69) rotate(84.265) scale(.08 -.08)">
<use xlink:href="#u"/>
</g>
</g>
<path d="m119.22 828.02v33.808q0 2.4 2.4 2.4h7.7425q2.4 0 2.4-2.4v-33.808q0-2.4-2.4-2.4h-7.7425q-2.4 0-2.4 2.4z" clip-path="url(#a)" fill="#fff" stroke="#fff"/>
<g clip-path="url(#a)">
<g transform="translate(123.28 828.02) rotate(90) scale(.08 -.08)">
<use xlink:href="#k"/>
<use x="44.083984" xlink:href="#d"/>
<use x="105.607422" xlink:href="#f"/>
<use x="144.970703" xlink:href="#j"/>
<use x="242.382812" xlink:href="#h"/>
<use x="270.166016" xlink:href="#g"/>
<use x="333.544922" xlink:href="#i"/>
<use x="394.824219" xlink:href="#l"/>
</g>
</g>
<path d="m152.87 703.99 0.32948-5.0443q0.15643-2.3949-2.2385-2.5513l-7.726-0.50464q-2.3949-0.15643-2.5513 2.2385l-0.32948 5.0443q-0.15643 2.3949 2.2385 2.5513l7.726 0.50464q2.3949 0.15643 2.5513-2.2385z" clip-path="url(#a)" fill="#fff" stroke="#fff"/>
<g clip-path="url(#a)">
<g transform="translate(148.81 703.73) rotate(-86.263) scale(.08 -.08)">
<use xlink:href="#q"/>
</g>
</g>
<path d="m149.8 698.68 0.3641 5.5744q0.15643 2.3949 2.5513 2.2385l7.726-0.50464q2.3949-0.15643 2.2385-2.5513l-0.3641-5.5744q-0.15643-2.3949-2.5513-2.2385l-7.726 0.50464q-2.3949 0.15643-2.2385 2.5513z" clip-path="url(#a)" fill="#fff" stroke="#fff"/>
<g clip-path="url(#a)">
<g transform="translate(153.85 698.42) rotate(86.263) scale(.08 -.08)">
<use xlink:href="#u"/>
</g>
</g>
<path d="m175.99 828.02v33.808q0 2.4 2.4 2.4h7.7425q2.4 0 2.4-2.4v-33.808q0-2.4-2.4-2.4h-7.7425q-2.4 0-2.4 2.4z" clip-path="url(#a)" fill="#fff" stroke="#fff"/>
<g clip-path="url(#a)">
<g transform="translate(180.05 828.02) rotate(90) scale(.08 -.08)">
<use xlink:href="#k"/>
<use x="44.083984" xlink:href="#d"/>
<use x="105.607422" xlink:href="#f"/>
<use x="144.970703" xlink:href="#j"/>
<use x="242.382812" xlink:href="#h"/>
<use x="270.166016" xlink:href="#g"/>
<use x="333.544922" xlink:href="#i"/>
<use x="394.824219" xlink:href="#l"/>
</g>
</g>
<path d="m135.77 828.02v33.808q0 2.4 2.4 2.4h7.7425q2.4 0 2.4-2.4v-33.808q0-2.4-2.4-2.4h-7.7425q-2.4 0-2.4 2.4z" clip-path="url(#a)" fill="#fff" stroke="#fff"/>
<g clip-path="url(#a)">
<g transform="translate(139.84 828.02) rotate(90) scale(.08 -.08)">
<use xlink:href="#k"/>
<use x="44.083984" xlink:href="#d"/>
<use x="105.607422" xlink:href="#f"/>
<use x="144.970703" xlink:href="#j"/>
<use x="242.382812" xlink:href="#h"/>
<use x="270.166016" xlink:href="#g"/>
<use x="333.544922" xlink:href="#i"/>
<use x="394.824219" xlink:href="#l"/>
</g>
</g>
<path d="m154.7 828.02v33.808q0 2.4 2.4 2.4h7.7425q2.4 0 2.4-2.4v-33.808q0-2.4-2.4-2.4h-7.7425q-2.4 0-2.4 2.4z" clip-path="url(#a)" fill="#fff" stroke="#fff"/>
<g clip-path="url(#a)">
<g transform="translate(158.76 828.02) rotate(90) scale(.08 -.08)">
<use xlink:href="#k"/>
<use x="44.083984" xlink:href="#d"/>
<use x="105.607422" xlink:href="#f"/>
<use x="144.970703" xlink:href="#j"/>
<use x="242.382812" xlink:href="#h"/>
<use x="270.166016" xlink:href="#g"/>
<use x="333.544922" xlink:href="#i"/>
<use x="394.824219" xlink:href="#l"/>
</g>
</g>
<path d="m199.64 828.02v33.808q0 2.4 2.4 2.4h7.7425q2.4 0 2.4-2.4v-33.808q0-2.4-2.4-2.4h-7.7425q-2.4 0-2.4 2.4z" clip-path="url(#a)" fill="#fff" stroke="#fff"/>
<g clip-path="url(#a)">
<g transform="translate(203.71 828.02) rotate(90) scale(.08 -.08)">
<use xlink:href="#k"/>
<use x="44.083984" xlink:href="#d"/>
<use x="105.607422" xlink:href="#f"/>
<use x="144.970703" xlink:href="#j"/>
<use x="242.382812" xlink:href="#h"/>
<use x="270.166016" xlink:href="#g"/>
<use x="333.544922" xlink:href="#i"/>
<use x="394.824219" xlink:href="#l"/>
</g>
</g>
<path d="m433.82 828.02v33.808q0 2.4 2.4 2.4h7.7425q2.4 0 2.4-2.4v-33.808q0-2.4-2.4-2.4h-7.7425q-2.4 0-2.4 2.4z" clip-path="url(#a)" fill="#fff" stroke="#fff"/>
<g clip-path="url(#a)">
<g transform="translate(437.88 828.02) rotate(90) scale(.08 -.08)">
<use xlink:href="#k"/>
<use x="44.083984" xlink:href="#d"/>
<use x="105.607422" xlink:href="#f"/>
<use x="144.970703" xlink:href="#j"/>
<use x="242.382812" xlink:href="#h"/>
<use x="270.166016" xlink:href="#g"/>
<use x="333.544922" xlink:href="#i"/>
<use x="394.824219" xlink:href="#l"/>
</g>
</g>
<path d="m902.18 828.02v33.808q0 2.4 2.4 2.4h7.7425q2.4 0 2.4-2.4v-33.808q0-2.4-2.4-2.4h-7.7425q-2.4 0-2.4 2.4z" clip-path="url(#a)" fill="#fff" stroke="#fff"/>
<g clip-path="url(#a)">
<g transform="translate(906.24 828.02) rotate(90) scale(.08 -.08)">
<use xlink:href="#k"/>
<use x="44.083984" xlink:href="#d"/>
<use x="105.607422" xlink:href="#f"/>
<use x="144.970703" xlink:href="#j"/>
<use x="242.382812" xlink:href="#h"/>
<use x="270.166016" xlink:href="#g"/>
<use x="333.544922" xlink:href="#i"/>
<use x="394.824219" xlink:href="#l"/>
</g>
</g>
<path d="m1734.8 828.02v33.808q0 2.4 2.4 2.4h7.7425q2.4 0 2.4-2.4v-33.808q0-2.4-2.4-2.4h-7.7425q-2.4 0-2.4 2.4z" clip-path="url(#a)" fill="#fff" stroke="#fff"/>
<g clip-path="url(#a)">
<g transform="translate(1738.9 828.02) rotate(90) scale(.08 -.08)">
<use xlink:href="#k"/>
<use x="44.083984" xlink:href="#d"/>
<use x="105.607422" xlink:href="#f"/>
<use x="144.970703" xlink:href="#j"/>
<use x="242.382812" xlink:href="#h"/>
<use x="270.166016" xlink:href="#g"/>
<use x="333.544922" xlink:href="#i"/>
<use x="394.824219" xlink:href="#l"/>
</g>
</g>
<defs>
<path id="b" d="m0 8.6603c2.2967 0 4.4997-0.9125 6.1237-2.5365 1.624-1.624 2.5365-3.827 2.5365-6.1237s-0.9125-4.4997-2.5365-6.1237c-1.624-1.624-3.827-2.5365-6.1237-2.5365s-4.4997 0.9125-6.1237 2.5365c-1.624 1.624-2.5365 3.827-2.5365 6.1237s0.9125 4.4997 2.5365 6.1237c1.624 1.624 3.827 2.5365 6.1237 2.5365z"/>
</defs>
<g clip-path="url(#a)" fill="#ffffff" stroke="#ffffff">
<use x="82.909091" y="916.363636" xlink:href="#b"/>
<use x="90.005447" y="916.363636" xlink:href="#b"/>
<use x="99.467255" y="916.363636" xlink:href="#b"/>
<use x="111.294514" y="916.363636" xlink:href="#b"/>
<use x="125.487226" y="916.363636" xlink:href="#b"/>
<use x="142.04539" y="916.363636" xlink:href="#b"/>
<use x="160.969005" y="916.363636" xlink:href="#b"/>
<use x="182.258073" y="916.363636" xlink:href="#b"/>
<use x="205.912592" y="916.363636" xlink:href="#b"/>
<use x="231.932564" y="916.363636" xlink:href="#b"/>
<use x="260.317987" y="916.363636" xlink:href="#b"/>
<use x="291.068863" y="916.363636" xlink:href="#b"/>
<use x="324.18519" y="916.363636" xlink:href="#b"/>
<use x="359.666969" y="916.363636" xlink:href="#b"/>
<use x="397.5142" y="916.363636" xlink:href="#b"/>
<use x="440.092336" y="916.363636" xlink:href="#b"/>
<use x="482.670471" y="916.363636" xlink:href="#b"/>
<use x="527.614058" y="916.363636" xlink:href="#b"/>
<use x="574.923097" y="916.363636" xlink:href="#b"/>
<use x="624.597588" y="916.363636" xlink:href="#b"/>
<use x="676.637531" y="916.363636" xlink:href="#b"/>
<use x="731.042926" y="916.363636" xlink:href="#b"/>
<use x="787.813773" y="916.363636" xlink:href="#b"/>
<use x="846.950071" y="916.363636" xlink:href="#b"/>
<use x="908.451822" y="916.363636" xlink:href="#b"/>
<use x="972.319025" y="916.363636" xlink:href="#b"/>
<use x="1038.551679" y="916.363636" xlink:href="#b"/>
<use x="1107.149786" y="916.363636" xlink:href="#b"/>
<use x="1178.113345" y="916.363636" xlink:href="#b"/>
<use x="1251.442355" y="916.363636" xlink:href="#b"/>
<use x="1327.136818" y="916.363636" xlink:href="#b"/>
<use x="1405.196732" y="916.363636" xlink:href="#b"/>
<use x="1485.622098" y="916.363636" xlink:href="#b"/>
<use x="1568.412917" y="916.363636" xlink:href="#b"/>
<use x="1653.569187" y="916.363636" xlink:href="#b"/>
<use x="1741.090909" y="916.363636" xlink:href="#b"/>
<use x="399.879652" y="336.899748" xlink:href="#b"/>
<use x="711.464922" y="43.636364" xlink:href="#b"/>
<use x="275.975026" y="190.415676" xlink:href="#b"/>
<use x="482.670471" y="773.492077" xlink:href="#b"/>
<use x="642.601305" y="483.014184" xlink:href="#b"/>
<use x="972.319025" y="773.492077" xlink:href="#b"/>
<use x="1258.144469" y="483.014184" xlink:href="#b"/>
<use x="1072.850733" y="628.633017" xlink:href="#b"/>
<use x="1178.113345" y="773.492077" xlink:href="#b"/>
<use x="1251.442355" y="773.492077" xlink:href="#b"/>
<use x="1530.171443" y="628.633017" xlink:href="#b"/>
<use x="1327.136818" y="773.492077" xlink:href="#b"/>
<use x="1405.196732" y="773.492077" xlink:href="#b"/>
<use x="1485.622098" y="773.492077" xlink:href="#b"/>
<use x="1568.412917" y="773.492077" xlink:href="#b"/>
<use x="1653.569187" y="773.492077" xlink:href="#b"/>
<use x="1038.551679" y="773.492077" xlink:href="#b"/>
<use x="1107.149786" y="773.492077" xlink:href="#b"/>
<use x="527.614058" y="773.492077" xlink:href="#b"/>
<use x="574.923097" y="773.492077" xlink:href="#b"/>
<use x="624.597588" y="773.492077" xlink:href="#b"/>
<use x="676.637531" y="773.492077" xlink:href="#b"/>
<use x="731.042926" y="773.492077" xlink:href="#b"/>
<use x="720.792634" y="628.633017" xlink:href="#b"/>
<use x="787.813773" y="773.492077" xlink:href="#b"/>
<use x="846.950071" y="773.492077" xlink:href="#b"/>
<use x="107.352094" y="336.899748" xlink:href="#b"/>
<use x="246.125276" y="628.633017" xlink:href="#b"/>
<use x="291.068863" y="773.492077" xlink:href="#b"/>
<use x="324.18519" y="773.492077" xlink:href="#b"/>
<use x="359.666969" y="773.492077" xlink:href="#b"/>
<use x="397.5142" y="773.492077" xlink:href="#b"/>
<use x="231.932564" y="773.492077" xlink:href="#b"/>
<use x="260.317987" y="773.492077" xlink:href="#b"/>
<use x="82.909091" y="773.492077" xlink:href="#b"/>
<use x="90.005447" y="773.492077" xlink:href="#b"/>
<use x="99.467255" y="773.492077" xlink:href="#b"/>
<use x="111.294514" y="773.492077" xlink:href="#b"/>
<use x="153.084165" y="483.014184" xlink:href="#b"/>
<use x="125.487226" y="773.492077" xlink:href="#b"/>
<use x="151.507198" y="628.633017" xlink:href="#b"/>
<use x="182.258073" y="773.492077" xlink:href="#b"/>
<use x="142.04539" y="773.492077" xlink:href="#b"/>
<use x="160.969005" y="773.492077" xlink:href="#b"/>
<use x="205.912592" y="773.492077" xlink:href="#b"/>
<use x="440.092336" y="773.492077" xlink:href="#b"/>
<use x="908.451822" y="773.492077" xlink:href="#b"/>
<use x="1741.090909" y="773.492077" xlink:href="#b"/>
</g>
<g clip-path="url(#a)">
<defs>
<path id="w" d="m8.5 21.578v33.109h8.9844v-32.766q0-7.7656 3.0156-11.656 3.0312-3.875 9.0938-3.875 7.2656 0 11.484 4.6406 4.2344 4.6406 4.2344 12.656v31h8.9844v-54.688h-8.9844v8.4062q-3.2656-4.9844-7.5938-7.4062-4.3125-2.4219-10.031-2.4219-9.4219 0-14.312 5.8594-4.875 5.8594-4.875 17.141z"/>
<path id="at" d="m45.406 27.984q0 9.7656-4.0312 15.125-4.0156 5.375-11.297 5.375-7.2188 0-11.25-5.375-4.0312-5.3594-4.0312-15.125 0-9.7188 4.0312-15.094t11.25-5.375q7.2812 0 11.297 5.375 4.0312 5.375 4.0312 15.094zm8.9844-21.203q0-13.953-6.2031-20.766-6.1875-6.8125-18.984-6.8125-4.7344 0-8.9375 0.70312t-8.1562 2.1719v8.7344q3.9531-2.1406 7.8125-3.1562 3.8594-1.0312 7.8594-1.0312 8.8438 0 13.234 4.6094t4.3906 13.938v4.4531q-2.7812-4.8438-7.125-7.2344t-10.406-2.3906q-10.047 0-16.203 7.6562-6.1562 7.6719-6.1562 20.328 0 12.688 6.1562 20.344 6.1562 7.6719 16.203 7.6719 6.0625 0 10.406-2.3906t7.125-7.2188v8.2969h8.9844z"/>
</defs>
<g transform="translate(66.103 919.12) scale(.1 -.1)">
<use xlink:href="#ar"/>
<use x="77.001953" xlink:href="#w"/>
<use x="140.380859" xlink:href="#f"/>
<use x="181.494141" xlink:href="#h"/>
<use x="209.277344" xlink:href="#g"/>
<use x="272.65625" xlink:href="#at"/>
</g>
</g>
<g clip-path="url(#a)">
<defs>
<path id="m" d="m18.312 70.219v-15.531h18.5v-6.9844h-18.5v-29.688q0-6.6875 1.8281-8.5938t7.4531-1.9062h9.2188v-7.5156h-9.2188q-10.406 0-14.359 3.875-3.9531 3.8906-3.9531 14.141v29.688h-6.5938v6.9844h6.5938v15.531z"/>
<path id="x" d="m54.891 33.016v-33.016h-8.9844v32.719q0 7.7656-3.0312 11.609-3.0312 3.8594-9.0781 3.8594-7.2812 0-11.484-4.6406-4.2031-4.625-4.2031-12.641v-30.906h-9.0312v75.984h9.0312v-29.797q3.2344 4.9375 7.5938 7.375 4.375 2.4375 10.094 2.4375 9.4219 0 14.25-5.8281 4.8438-5.8281 4.8438-17.156z"/>
</defs>
<g transform="translate(81.8 919.12) scale(.1 -.1)">
<use xlink:href="#m"/>
<use x="39.208984" xlink:href="#x"/>
<use x="102.587891" xlink:href="#d"/>
</g>
</g>
<g clip-path="url(#a)">
<defs>
<path id="ai" d="m37.109 75.984v-7.4844h-8.5938q-4.8281 0-6.7188-1.9531-1.875-1.9531-1.875-7.0312v-4.8281h14.797v-6.9844h-14.797v-47.703h-9.0312v47.703h-8.5938v6.9844h8.5938v3.8125q0 9.125 4.25 13.297 4.25 4.1875 13.469 4.1875z"/>
<path id="t" d="m44.281 53.078v-8.5q-3.7969 1.9531-7.9062 2.9219-4.0938 0.98438-8.5 0.98438-6.6875 0-10.031-2.0469t-3.3438-6.1562q0-3.125 2.3906-4.9062t9.625-3.3906l3.0781-0.6875q9.5625-2.0469 13.594-5.7812t4.0312-10.422q0-7.625-6.0312-12.078-6.0312-4.4375-16.578-4.4375-4.3906 0-9.1562 0.85938t-10.031 2.5625v9.2812q4.9844-2.5938 9.8125-3.8906 4.8281-1.2812 9.5781-1.2812 6.3438 0 9.75 2.1719 3.4219 2.1719 3.4219 6.125 0 3.6562-2.4688 5.6094-2.4531 1.9531-10.812 3.7656l-3.125 0.73438q-8.3438 1.75-12.062 5.3906-3.7031 3.6406-3.7031 9.9844 0 7.7188 5.4688 11.906 5.4688 4.2031 15.531 4.2031 4.9688 0 9.3594-0.73438 4.4062-0.71875 8.1094-2.1875z"/>
</defs>
<g transform="translate(89.698 919.12) scale(.1 -.1)">
<use xlink:href="#ai"/>
<use x="35.205078" xlink:href="#h"/>
<use x="62.988281" xlink:href="#f"/>
<use x="104.101562" xlink:href="#t"/>
<use x="156.201172" xlink:href="#m"/>
</g>
</g>
<g clip-path="url(#a)">
<defs>
<path id="r" d="m30.609 48.391q-7.2188 0-11.422-5.6406t-4.2031-15.453 4.1719-15.453q4.1875-5.6406 11.453-5.6406 7.1875 0 11.375 5.6562 4.2031 5.6719 4.2031 15.438 0 9.7188-4.2031 15.406-4.1875 5.6875-11.375 5.6875zm0 7.6094q11.719 0 18.406-7.625 6.7031-7.6094 6.7031-21.078 0-13.422-6.7031-21.078-6.6875-7.6406-18.406-7.6406-11.766 0-18.438 7.6406-6.6562 7.6562-6.6562 21.078 0 13.469 6.6562 21.078 6.6719 7.625 18.438 7.625z"/>
</defs>
<g transform="translate(92.462 919.12) scale(.1 -.1)">
<use xlink:href="#j"/>
<use x="97.412109" xlink:href="#r"/>
<use x="158.59375" xlink:href="#g"/>
<use x="221.972656" xlink:href="#m"/>
<use x="261.181641" xlink:href="#x"/>
<use x="324.560547" xlink:href="#t"/>
</g>
</g>
<g clip-path="url(#a)">
<g transform="translate(120.67 919.12) scale(.1 -.1)">
<use xlink:href="#r"/>
<use x="61.181641" xlink:href="#ai"/>
</g>
</g>
<g clip-path="url(#a)">
<g transform="translate(133.84 919.12) scale(.1 -.1)">
<use xlink:href="#m"/>
<use x="39.208984" xlink:href="#x"/>
<use x="102.587891" xlink:href="#d"/>
</g>
</g>
<g clip-path="url(#a)">
<defs>
<path id="aw" d="m32.172-5.0781q-3.7969-9.7656-7.4219-12.734-3.6094-2.9844-9.6562-2.9844h-7.1875v7.5156h5.2812q3.7031 0 5.75 1.7656 2.0625 1.75 4.5469 8.2969l1.6094 4.0938-22.109 53.812h9.5156l17.094-42.766 17.094 42.766h9.5156z"/>
</defs>
<g transform="translate(149.81 919.12) scale(.1 -.1)">
<use xlink:href="#aw"/>
<use x="59.179688" xlink:href="#d"/>
<use x="120.703125" xlink:href="#i"/>
<use x="181.982422" xlink:href="#f"/>
</g>
</g>
<g clip-path="url(#a)">
<defs>
<path id="c" d="m12.406 8.2969h16.109v55.625l-17.531-3.5156v8.9844l17.438 3.5156h9.8594v-64.609h16.109v-8.2969h-41.984z"/>
<path id="aa" d="m31.781 34.625q-7.0312 0-11.062-3.7656-4.0156-3.7656-4.0156-10.344 0-6.5938 4.0156-10.359 4.0312-3.7656 11.062-3.7656t11.078 3.7812q4.0625 3.7969 4.0625 10.344 0 6.5781-4.0312 10.344-4.0156 3.7656-11.109 3.7656zm-9.8594 4.1875q-6.3438 1.5625-9.8906 5.9062-3.5312 4.3594-3.5312 10.609 0 8.7344 6.2188 13.812 6.2344 5.0781 17.062 5.0781 10.891 0 17.094-5.0781t6.2031-13.812q0-6.25-3.5469-10.609-3.5312-4.3438-9.8281-5.9062 7.125-1.6562 11.094-6.5 3.9844-4.8281 3.9844-11.797 0-10.609-6.4688-16.281-6.4688-5.6562-18.531-5.6562-12.047 0-18.531 5.6562-6.4688 5.6719-6.4688 16.281 0 6.9688 4 11.797 4.0156 4.8438 11.141 6.5zm-3.6094 15.578q0-5.6562 3.5312-8.8281 3.5469-3.1719 9.9375-3.1719 6.3594 0 9.9375 3.1719 3.5938 3.1719 3.5938 8.8281 0 5.6719-3.5938 8.8438-3.5781 3.1719-9.9375 3.1719-6.3906 0-9.9375-3.1719-3.5312-3.1719-3.5312-8.8438z"/>
<path id="ac" d="m33.016 40.375q-6.6406 0-10.531-4.5469-3.875-4.5312-3.875-12.438 0-7.8594 3.875-12.438 3.8906-4.5625 10.531-4.5625t10.516 4.5625q3.875 4.5781 3.875 12.438 0 7.9062-3.875 12.438-3.875 4.5469-10.516 4.5469zm19.578 30.922v-8.9844q-3.7188 1.75-7.5 2.6719-3.7812 0.9375-7.5 0.9375-9.7656 0-14.922-6.5938-5.1406-6.5938-5.875-19.922 2.875 4.25 7.2188 6.5156 4.3594 2.2656 9.5781 2.2656 10.984 0 17.359-6.6719 6.375-6.6562 6.375-18.125 0-11.234-6.6406-18.031-6.6406-6.7812-17.672-6.7812-12.656 0-19.344 9.6875-6.6875 9.7031-6.6875 28.109 0 17.281 8.2031 27.562t22.016 10.281q3.7188 0 7.5-0.73438t7.8906-2.1875z"/>
<path id="ab" d="m8.2031 72.906h46.875v-4.2031l-26.469-68.703h-10.297l24.906 64.594h-35.016z"/>
</defs>
<g transform="translate(169.53 919.12) scale(.1 -.1)">
<use xlink:href="#c"/>
<use x="63.623047" xlink:href="#aa"/>
<use x="127.246094" xlink:href="#ac"/>
<use x="190.869141" xlink:href="#ab"/>
</g>
</g>
<g clip-path="url(#a)">
<defs>
<path id="ao" d="m11.719 12.406h10.297v-8.4062l-8-15.625h-6.2969l4 15.625z"/>
</defs>
<g transform="translate(204.32 919.12) scale(.1 -.1)">
<use xlink:href="#ao"/>
</g>
</g>
<g clip-path="url(#a)">
<g transform="translate(223.73 919.12) scale(.1 -.1)">
<use xlink:href="#m"/>
<use x="39.208984" xlink:href="#x"/>
<use x="102.587891" xlink:href="#d"/>
</g>
</g>
<g clip-path="url(#a)">
<defs>
<path id="ax" d="m14.797 27.297q0-9.9062 4.0781-15.547t11.203-5.6406 11.219 5.6406q4.1094 5.6406 4.1094 15.547t-4.1094 15.547q-4.0938 5.6406-11.219 5.6406t-11.203-5.6406-4.0781-15.547zm30.609-19.094q-2.8281-4.875-7.1562-7.25-4.3125-2.375-10.375-2.375-9.9062 0-16.141 7.9062-6.2188 7.9219-6.2188 20.812t6.2188 20.797q6.2344 7.9062 16.141 7.9062 6.0625 0 10.375-2.375 4.3281-2.3594 7.1562-7.2344v8.2969h8.9844v-75.484h-8.9844z"/>
</defs>
<g transform="translate(238.72 919.12) scale(.1 -.1)">
<use xlink:href="#ax"/>
<use x="63.476562" xlink:href="#w"/>
<use x="126.855469" xlink:href="#d"/>
<use x="188.378906" xlink:href="#t"/>
<use x="240.478516" xlink:href="#m"/>
<use x="279.6875" xlink:href="#h"/>
<use x="307.470703" xlink:href="#r"/>
<use x="368.652344" xlink:href="#g"/>
</g>
</g>
<g clip-path="url(#a)">
<defs>
<path id="y" d="m45.406 46.391v29.594h8.9844v-75.984h-8.9844v8.2031q-2.8281-4.875-7.1562-7.25-4.3125-2.375-10.375-2.375-9.9062 0-16.141 7.9062-6.2188 7.9219-6.2188 20.812t6.2188 20.797q6.2344 7.9062 16.141 7.9062 6.0625 0 10.375-2.375 4.3281-2.3594 7.1562-7.2344zm-30.609-19.094q0-9.9062 4.0781-15.547t11.203-5.6406 11.219 5.6406q4.1094 5.6406 4.1094 15.547t-4.1094 15.547q-4.0938 5.6406-11.219 5.6406t-11.203-5.6406-4.0781-15.547z"/>
</defs>
<g transform="translate(271.19 919.12) scale(.1 -.1)">
<use xlink:href="#t"/>
<use x="52.099609" xlink:href="#d"/>
<use x="113.623047" xlink:href="#d"/>
<use x="175.146484" xlink:href="#j"/>
<use x="272.558594" xlink:href="#d"/>
<use x="334.082031" xlink:href="#y"/>
</g>
</g>
<g clip-path="url(#a)">
<g transform="translate(319.17 919.12) scale(.1 -.1)">
<use xlink:href="#m"/>
<use x="39.208984" xlink:href="#r"/>
</g>
</g>
<g clip-path="url(#a)">
<defs>
<path id="ae" d="m48.688 27.297q0 9.9062-4.0781 15.547t-11.203 5.6406q-7.1406 0-11.219-5.6406t-4.0781-15.547 4.0781-15.547 11.219-5.6406q7.125 0 11.203 5.6406t4.0781 15.547zm-30.578 19.094q2.8438 4.875 7.1562 7.2344 4.3281 2.375 10.328 2.375 9.9688 0 16.188-7.9062 6.2344-7.9062 6.2344-20.797t-6.2344-20.812q-6.2188-7.9062-16.188-7.9062-6 0-10.328 2.375-4.3125 2.375-7.1562 7.25v-8.2031h-9.0312v75.984h9.0312z"/>
</defs>
<g transform="translate(353.42 919.12) scale(.1 -.1)">
<use xlink:href="#ae"/>
<use x="63.476562" xlink:href="#d"/>
</g>
</g>
<g clip-path="url(#a)">
<g transform="translate(381.48 919.12) scale(.1 -.1)">
<use xlink:href="#ae"/>
<use x="63.476562" xlink:href="#w"/>
<use x="126.855469" xlink:href="#f"/>
<use x="167.96875" xlink:href="#h"/>
<use x="195.751953" xlink:href="#d"/>
<use x="257.275391" xlink:href="#y"/>
</g>
</g>
<g clip-path="url(#a)">
<g transform="translate(438.5 919.12) scale(.1 -.1)">
<use xlink:href="#ao"/>
</g>
</g>
<g clip-path="url(#a)">
<g transform="translate(473.26 919.12) scale(.1 -.1)">
<use xlink:href="#i"/>
<use x="61.279297" xlink:href="#g"/>
<use x="124.658203" xlink:href="#y"/>
</g>
</g>
<g clip-path="url(#a)">
<g transform="translate(524.26 919.12) scale(.1 -.1)">
<use xlink:href="#h"/>
<use x="27.783203" xlink:href="#m"/>
</g>
</g>
<g clip-path="url(#a)">
<g transform="translate(567.19 919.12) scale(.1 -.1)">
<use xlink:href="#y"/>
<use x="63.476562" xlink:href="#h"/>
<use x="91.259766" xlink:href="#y"/>
</g>
</g>
<g clip-path="url(#a)">
<defs>
<path id="as" d="m17.922 72.906v-27.109h-8.2969v27.109z"/>
</defs>
<g transform="translate(618.09 919.12) scale(.1 -.1)">
<use xlink:href="#g"/>
<use x="63.378906" xlink:href="#as"/>
<use x="90.869141" xlink:href="#m"/>
</g>
</g>
<g clip-path="url(#a)">
<g transform="translate(663.01 919.12) scale(.1 -.1)">
<use xlink:href="#t"/>
<use x="52.099609" xlink:href="#d"/>
<use x="113.623047" xlink:href="#d"/>
<use x="175.146484" xlink:href="#j"/>
</g>
</g>
<g clip-path="url(#a)">
<g transform="translate(721.62 919.12) scale(.1 -.1)">
<use xlink:href="#y"/>
<use x="63.476562" xlink:href="#w"/>
<use x="126.855469" xlink:href="#d"/>
</g>
</g>
<g clip-path="url(#a)">
<g transform="translate(780.94 919.12) scale(.1 -.1)">
<use xlink:href="#ai"/>
<use x="35.205078" xlink:href="#r"/>
<use x="96.386719" xlink:href="#f"/>
</g>
</g>
<g clip-path="url(#a)">
<defs>
<path id="aj" d="m48.781 52.594v-8.4062q-3.8125 2.1094-7.6406 3.1562t-7.7344 1.0469q-8.75 0-13.594-5.5469-4.8281-5.5312-4.8281-15.547t4.8281-15.562q4.8438-5.5312 13.594-5.5312 3.9062 0 7.7344 1.0469t7.6406 3.1562v-8.3125q-3.7656-1.75-7.7969-2.625-4.0156-0.89062-8.5625-0.89062-12.359 0-19.641 7.7656-7.2656 7.7656-7.2656 20.953 0 13.375 7.3438 21.031 7.3594 7.6719 20.156 7.6719 4.1406 0 8.0938-0.85938 3.9531-0.84375 7.6719-2.5469z"/>
</defs>
<g transform="translate(816.84 919.12) scale(.1 -.1)">
<use xlink:href="#f"/>
<use x="38.863281" xlink:href="#d"/>
<use x="100.386719" xlink:href="#t"/>
<use x="152.486328" xlink:href="#w"/>
<use x="215.865234" xlink:href="#f"/>
<use x="255.228516" xlink:href="#f"/>
<use x="294.091797" xlink:href="#d"/>
<use x="355.615234" xlink:href="#aj"/>
<use x="410.595703" xlink:href="#m"/>
<use x="449.804688" xlink:href="#h"/>
<use x="477.587891" xlink:href="#r"/>
<use x="538.769531" xlink:href="#g"/>
</g>
</g>
<g clip-path="url(#a)">
<g transform="translate(906.86 919.12) scale(.1 -.1)">
<use xlink:href="#ao"/>
</g>
</g>
<g clip-path="url(#a)">
<defs>
<path id="ap" d="m4.2031 54.688h8.9844l11.234-42.672 11.172 42.672h10.594l11.234-42.672 11.188 42.672h8.9844l-14.312-54.688h-10.594l-11.766 44.828-11.812-44.828h-10.609z"/>
</defs>
<g transform="translate(958.82 919.12) scale(.1 -.1)">
<use xlink:href="#ap"/>
<use x="81.787109" xlink:href="#x"/>
<use x="145.166016" xlink:href="#d"/>
<use x="206.689453" xlink:href="#g"/>
</g>
</g>
<g clip-path="url(#a)">
<g transform="translate(1028.2 919.12) scale(.1 -.1)">
<use xlink:href="#g"/>
<use x="63.378906" xlink:href="#d"/>
<use x="124.902344" xlink:href="#ap"/>
</g>
</g>
<g clip-path="url(#a)">
<g transform="translate(1095 919.12) scale(.1 -.1)">
<use xlink:href="#ai"/>
<use x="35.205078" xlink:href="#i"/>
<use x="96.484375" xlink:href="#aj"/>
<use x="151.464844" xlink:href="#m"/>
<use x="190.673828" xlink:href="#t"/>
</g>
</g>
<g clip-path="url(#a)">
<g transform="translate(1165.9 919.12) scale(.1 -.1)">
<use xlink:href="#ap"/>
<use x="81.787109" xlink:href="#d"/>
<use x="143.310547" xlink:href="#f"/>
<use x="182.173828" xlink:href="#d"/>
</g>
</g>
<g clip-path="url(#a)">
<g transform="translate(1231.8 919.12) scale(.1 -.1)">
<use xlink:href="#ae"/>
<use x="63.476562" xlink:href="#f"/>
<use x="102.339844" xlink:href="#r"/>
<use x="163.521484" xlink:href="#w"/>
<use x="226.900391" xlink:href="#at"/>
<use x="290.376953" xlink:href="#x"/>
<use x="353.755859" xlink:href="#m"/>
</g>
</g>
<g clip-path="url(#a)">
<g transform="translate(1322.1 919.12) scale(.1 -.1)">
<use xlink:href="#m"/>
<use x="39.208984" xlink:href="#r"/>
</g>
</g>
<g clip-path="url(#a)">
<g transform="translate(1397 919.12) scale(.1 -.1)">
<use xlink:href="#m"/>
<use x="39.208984" xlink:href="#x"/>
<use x="102.587891" xlink:href="#d"/>
</g>
</g>
<g clip-path="url(#a)">
<defs>
<path id="ay" d="m18.109 8.2031v-29h-9.0312v75.484h9.0312v-8.2969q2.8438 4.875 7.1562 7.2344 4.3281 2.375 10.328 2.375 9.9688 0 16.188-7.9062 6.2344-7.9062 6.2344-20.797t-6.2344-20.812q-6.2188-7.9062-16.188-7.9062-6 0-10.328 2.375-4.3125 2.375-7.1562 7.25zm30.578 19.094q0 9.9062-4.0781 15.547t-11.203 5.6406q-7.1406 0-11.219-5.6406t-4.0781-15.547 4.0781-15.547 11.219-5.6406q7.125 0 11.203 5.6406t4.0781 15.547z"/>
</defs>
<g transform="translate(1470.6 919.12) scale(.1 -.1)">
<use xlink:href="#ay"/>
<use x="63.476562" xlink:href="#w"/>
<use x="126.855469" xlink:href="#ae"/>
<use x="190.332031" xlink:href="#l"/>
<use x="218.115234" xlink:href="#h"/>
<use x="245.898438" xlink:href="#aj"/>
</g>
</g>
<g clip-path="url(#a)">
<g transform="translate(1564.4 919.12) scale(.1 -.1)">
<use xlink:href="#as"/>
<use x="27.490234" xlink:href="#t"/>
</g>
</g>
<g clip-path="url(#a)">
<g transform="translate(1630.8 919.12) scale(.1 -.1)">
<use xlink:href="#i"/>
<use x="61.279297" xlink:href="#m"/>
<use x="100.488281" xlink:href="#m"/>
<use x="139.697266" xlink:href="#d"/>
<use x="201.220703" xlink:href="#g"/>
<use x="264.599609" xlink:href="#m"/>
<use x="303.808594" xlink:href="#h"/>
<use x="331.591797" xlink:href="#r"/>
<use x="392.773438" xlink:href="#g"/>
</g>
</g>
<g clip-path="url(#a)">
<defs>
<path id="e" d="m10.688 12.406h10.312v-12.406h-10.312z"/>
</defs>
<g transform="translate(1739.5 919.12) scale(.1 -.1)">
<use xlink:href="#e"/>
</g>
</g>
<g clip-path="url(#a)">
<defs>
<path id="al" d="m9.8125 72.906h9.8594v-72.906h-9.8594z"/>
<path id="av" d="m9.8125 72.906h14.703l18.594-49.609 18.703 49.609h14.703v-72.906h-9.625v64.016l-18.797-50h-9.9062l-18.797 50v-64.016h-9.5781z"/>
</defs>
<g transform="translate(378.79 339.66) scale(.1 -.1)">
<use xlink:href="#al"/>
<use x="29.492188" xlink:href="#av"/>
<use x="115.771484" xlink:href="#ah"/>
<use x="176.074219" xlink:href="#ak"/>
<use x="231.787109" xlink:href="#al"/>
<use x="261.279297" xlink:href="#u"/>
<use x="331.103516" xlink:href="#al"/>
<use x="360.595703" xlink:href="#k"/>
</g>
</g>
<g clip-path="url(#a)">
<g transform="translate(703.51 46.396) scale(.1 -.1)">
<use xlink:href="#c"/>
<use x="63.623047" xlink:href="#e"/>
<use x="95.410156" xlink:href="#c"/>
</g>
</g>
<g clip-path="url(#a)">
<defs>
<path id="o" d="m19.188 8.2969h34.422v-8.2969h-46.281v8.2969q5.6094 5.8125 15.297 15.594 9.7031 9.7969 12.188 12.641 4.7344 5.3125 6.6094 9 1.8906 3.6875 1.8906 7.25 0 5.8125-4.0781 9.4688-4.0781 3.6719-10.625 3.6719-4.6406 0-9.7969-1.6094-5.1406-1.6094-11-4.8906v9.9688q5.9531 2.3906 11.125 3.6094 5.1875 1.2188 9.4844 1.2188 11.328 0 18.062-5.6719 6.7344-5.6562 6.7344-15.125 0-4.5-1.6875-8.5312-1.6719-4.0156-6.125-9.4844-1.2188-1.4219-7.7656-8.1875-6.5312-6.7656-18.453-18.922z"/>
</defs>
<g transform="translate(268.02 193.18) scale(.1 -.1)">
<use xlink:href="#c"/>
<use x="63.623047" xlink:href="#e"/>
<use x="95.410156" xlink:href="#o"/>
</g>
</g>
<g clip-path="url(#a)">
<defs>
<path id="p" d="m40.578 39.312q7.0781-1.5156 11.047-6.3125 3.9844-4.7812 3.9844-11.812 0-10.781-7.4219-16.703-7.4219-5.9062-21.094-5.9062-4.5781 0-9.4375 0.90625t-10.031 2.7188v9.5156q4.0938-2.3906 8.9688-3.6094 4.8906-1.2188 10.219-1.2188 9.2656 0 14.125 3.6562t4.8594 10.641q0 6.4531-4.5156 10.078-4.5156 3.6406-12.562 3.6406h-8.5v8.1094h8.8906q7.2656 0 11.125 2.9062t3.8594 8.375q0 5.6094-3.9844 8.6094-3.9688 3.0156-11.391 3.0156-4.0625 0-8.7031-0.89062-4.6406-0.875-10.203-2.7188v8.7812q5.625 1.5625 10.531 2.3438t9.25 0.78125q11.234 0 17.766-5.1094 6.5469-5.0938 6.5469-13.781 0-6.0625-3.4688-10.234t-9.8594-5.7812z"/>
</defs>
<g transform="translate(474.72 776.25) scale(.1 -.1)">
<use xlink:href="#c"/>
<use x="63.623047" xlink:href="#e"/>
<use x="95.410156" xlink:href="#p"/>
</g>
</g>
<g clip-path="url(#a)">
<defs>
<path id="n" d="m37.797 64.312-24.906-38.922h24.906zm-2.5938 8.5938h12.406v-47.516h10.406v-8.2031h-10.406v-17.188h-9.8125v17.188h-32.906v9.5156z"/>
</defs>
<g transform="translate(634.65 485.77) scale(.1 -.1)">
<use xlink:href="#c"/>
<use x="63.623047" xlink:href="#e"/>
<use x="95.410156" xlink:href="#n"/>
</g>
</g>
<g clip-path="url(#a)">
<defs>
<path id="s" d="m10.797 72.906h38.719v-8.3125h-29.688v-17.859q2.1406 0.73438 4.2812 1.0938 2.1562 0.35938 4.3125 0.35938 12.203 0 19.328-6.6875 7.1406-6.6875 7.1406-18.109 0-11.766-7.3281-18.297-7.3281-6.5156-20.656-6.5156-4.5938 0-9.3594 0.78125-4.75 0.78125-9.8281 2.3438v9.9219q4.3906-2.3906 9.0781-3.5625t9.9062-1.1719q8.4531 0 13.375 4.4375 4.9375 4.4375 4.9375 12.062 0 7.6094-4.9375 12.047-4.9219 4.4531-13.375 4.4531-3.9531 0-7.8906-0.875-3.9219-0.875-8.0156-2.7344z"/>
</defs>
<g transform="translate(964.37 776.25) scale(.1 -.1)">
<use xlink:href="#c"/>
<use x="63.623047" xlink:href="#e"/>
<use x="95.410156" xlink:href="#s"/>
</g>
</g>
<g clip-path="url(#a)">
<g transform="translate(1250.2 485.77) scale(.1 -.1)">
<use xlink:href="#c"/>
<use x="63.623047" xlink:href="#e"/>
<use x="95.410156" xlink:href="#ac"/>
</g>
</g>
<g clip-path="url(#a)">
<defs>
<path id="ad" d="m31.781 66.406q-7.6094 0-11.453-7.5-3.8281-7.4844-3.8281-22.531 0-14.984 3.8281-22.484 3.8438-7.5 11.453-7.5 7.6719 0 11.5 7.5 3.8438 7.5 3.8438 22.484 0 15.047-3.8438 22.531-3.8281 7.5-11.5 7.5zm0 7.8125q12.266 0 18.734-9.7031 6.4688-9.6875 6.4688-28.141 0-18.406-6.4688-28.109-6.4688-9.6875-18.734-9.6875-12.25 0-18.719 9.6875-6.4688 9.7031-6.4688 28.109 0 18.453 6.4688 28.141 6.4688 9.7031 18.719 9.7031z"/>
</defs>
<g transform="translate(1061.7 631.39) scale(.1 -.1)">
<use xlink:href="#c"/>
<use x="63.623047" xlink:href="#e"/>
<use x="95.410156" xlink:href="#c"/>
<use x="159.033203" xlink:href="#ad"/>
</g>
</g>
<g clip-path="url(#a)">
<g transform="translate(1167 776.25) scale(.1 -.1)">
<use xlink:href="#c"/>
<use x="63.623047" xlink:href="#e"/>
<use x="95.410156" xlink:href="#c"/>
<use x="159.033203" xlink:href="#c"/>
</g>
</g>
<g clip-path="url(#a)">
<g transform="translate(1240.3 776.25) scale(.1 -.1)">
<use xlink:href="#c"/>
<use x="63.623047" xlink:href="#e"/>
<use x="95.410156" xlink:href="#c"/>
<use x="159.033203" xlink:href="#o"/>
</g>
</g>
<g clip-path="url(#a)">
<g transform="translate(1519 631.39) scale(.1 -.1)">
<use xlink:href="#c"/>
<use x="63.623047" xlink:href="#e"/>
<use x="95.410156" xlink:href="#c"/>
<use x="159.033203" xlink:href="#p"/>
</g>
</g>
<g clip-path="url(#a)">
<g transform="translate(1316 776.25) scale(.1 -.1)">
<use xlink:href="#c"/>
<use x="63.623047" xlink:href="#e"/>
<use x="95.410156" xlink:href="#c"/>
<use x="159.033203" xlink:href="#n"/>
</g>
</g>
<g clip-path="url(#a)">
<g transform="translate(1394.1 776.25) scale(.1 -.1)">
<use xlink:href="#c"/>
<use x="63.623047" xlink:href="#e"/>
<use x="95.410156" xlink:href="#c"/>
<use x="159.033203" xlink:href="#s"/>
</g>
</g>
<g clip-path="url(#a)">
<g transform="translate(1474.5 776.25) scale(.1 -.1)">
<use xlink:href="#c"/>
<use x="63.623047" xlink:href="#e"/>
<use x="95.410156" xlink:href="#c"/>
<use x="159.033203" xlink:href="#ac"/>
</g>
</g>
<g clip-path="url(#a)">
<g transform="translate(1557.3 776.25) scale(.1 -.1)">
<use xlink:href="#c"/>
<use x="63.623047" xlink:href="#e"/>
<use x="95.410156" xlink:href="#c"/>
<use x="159.033203" xlink:href="#ab"/>
</g>
</g>
<g clip-path="url(#a)">
<g transform="translate(1642.4 776.25) scale(.1 -.1)">
<use xlink:href="#c"/>
<use x="63.623047" xlink:href="#e"/>
<use x="95.410156" xlink:href="#c"/>
<use x="159.033203" xlink:href="#aa"/>
</g>
</g>
<g clip-path="url(#a)">
<defs>
<path id="an" d="m10.984 1.5156v8.9844q3.7188-1.7656 7.5156-2.6875 3.8125-0.92188 7.4844-0.92188 9.7656 0 14.906 6.5625 5.1562 6.5625 5.8906 19.953-2.8281-4.2031-7.1875-6.4531-4.3438-2.25-9.6094-2.25-10.938 0-17.312 6.6094-6.375 6.625-6.375 18.109 0 11.219 6.6406 18 6.6406 6.7969 17.672 6.7969 12.656 0 19.312-9.7031 6.6719-9.6875 6.6719-28.141 0-17.234-8.1875-27.516-8.1719-10.281-21.984-10.281-3.7188 0-7.5312 0.73438-3.7969 0.73438-7.9062 2.2031zm19.625 30.906q6.6406 0 10.516 4.5312 3.8906 4.5469 3.8906 12.469 0 7.8594-3.8906 12.422-3.875 4.5625-10.516 4.5625t-10.516-4.5625-3.875-12.422q0-7.9219 3.875-12.469 3.875-4.5312 10.516-4.5312z"/>
</defs>
<g transform="translate(1027.4 776.25) scale(.1 -.1)">
<use xlink:href="#c"/>
<use x="63.623047" xlink:href="#e"/>
<use x="95.410156" xlink:href="#c"/>
<use x="159.033203" xlink:href="#an"/>
</g>
</g>
<g clip-path="url(#a)">
<g transform="translate(1096 776.25) scale(.1 -.1)">
<use xlink:href="#c"/>
<use x="63.623047" xlink:href="#e"/>
<use x="95.410156" xlink:href="#o"/>
<use x="159.033203" xlink:href="#ad"/>
</g>
</g>
<g clip-path="url(#a)">
<g transform="translate(516.48 776.25) scale(.1 -.1)">
<use xlink:href="#c"/>
<use x="63.623047" xlink:href="#e"/>
<use x="95.410156" xlink:href="#o"/>
<use x="159.033203" xlink:href="#c"/>
</g>
</g>
<g clip-path="url(#a)">
<g transform="translate(563.79 776.25) scale(.1 -.1)">
<use xlink:href="#c"/>
<use x="63.623047" xlink:href="#e"/>
<use x="95.410156" xlink:href="#o"/>
<use x="159.033203" xlink:href="#o"/>
</g>
</g>
<g clip-path="url(#a)">
<g transform="translate(613.46 776.25) scale(.1 -.1)">
<use xlink:href="#c"/>
<use x="63.623047" xlink:href="#e"/>
<use x="95.410156" xlink:href="#o"/>
<use x="159.033203" xlink:href="#p"/>
</g>
</g>
<g clip-path="url(#a)">
<g transform="translate(665.5 776.25) scale(.1 -.1)">
<use xlink:href="#c"/>
<use x="63.623047" xlink:href="#e"/>
<use x="95.410156" xlink:href="#o"/>
<use x="159.033203" xlink:href="#n"/>
</g>
</g>
<g clip-path="url(#a)">
<g transform="translate(719.91 776.25) scale(.1 -.1)">
<use xlink:href="#c"/>
<use x="63.623047" xlink:href="#e"/>
<use x="95.410156" xlink:href="#o"/>
<use x="159.033203" xlink:href="#s"/>
</g>
</g>
<g clip-path="url(#a)">
<g transform="translate(709.66 631.39) scale(.1 -.1)">
<use xlink:href="#c"/>
<use x="63.623047" xlink:href="#e"/>
<use x="95.410156" xlink:href="#o"/>
<use x="159.033203" xlink:href="#ac"/>
</g>
</g>
<g clip-path="url(#a)">
<g transform="translate(776.68 776.25) scale(.1 -.1)">
<use xlink:href="#c"/>
<use x="63.623047" xlink:href="#e"/>
<use x="95.410156" xlink:href="#o"/>
<use x="159.033203" xlink:href="#ab"/>
</g>
</g>
<g clip-path="url(#a)">
<g transform="translate(835.82 776.25) scale(.1 -.1)">
<use xlink:href="#c"/>
<use x="63.623047" xlink:href="#e"/>
<use x="95.410156" xlink:href="#o"/>
<use x="159.033203" xlink:href="#aa"/>
</g>
</g>
<g clip-path="url(#a)">
<g transform="translate(96.219 339.66) scale(.1 -.1)">
<use xlink:href="#c"/>
<use x="63.623047" xlink:href="#e"/>
<use x="95.410156" xlink:href="#p"/>
<use x="159.033203" xlink:href="#ad"/>
</g>
</g>
<g clip-path="url(#a)">
<g transform="translate(234.99 631.39) scale(.1 -.1)">
<use xlink:href="#c"/>
<use x="63.623047" xlink:href="#e"/>
<use x="95.410156" xlink:href="#p"/>
<use x="159.033203" xlink:href="#c"/>
</g>
</g>
<g clip-path="url(#a)">
<g transform="translate(279.94 776.25) scale(.1 -.1)">
<use xlink:href="#c"/>
<use x="63.623047" xlink:href="#e"/>
<use x="95.410156" xlink:href="#p"/>
<use x="159.033203" xlink:href="#o"/>
</g>
</g>
<g clip-path="url(#a)">
<g transform="translate(313.05 776.25) scale(.1 -.1)">
<use xlink:href="#c"/>
<use x="63.623047" xlink:href="#e"/>
<use x="95.410156" xlink:href="#p"/>
<use x="159.033203" xlink:href="#p"/>
</g>
</g>
<g clip-path="url(#a)">
<g transform="translate(348.53 776.25) scale(.1 -.1)">
<use xlink:href="#c"/>
<use x="63.623047" xlink:href="#e"/>
<use x="95.410156" xlink:href="#p"/>
<use x="159.033203" xlink:href="#n"/>
</g>
</g>
<g clip-path="url(#a)">
<g transform="translate(386.38 776.25) scale(.1 -.1)">
<use xlink:href="#c"/>
<use x="63.623047" xlink:href="#e"/>
<use x="95.410156" xlink:href="#p"/>
<use x="159.033203" xlink:href="#s"/>
</g>
</g>
<g clip-path="url(#a)">
<g transform="translate(220.8 776.25) scale(.1 -.1)">
<use xlink:href="#c"/>
<use x="63.623047" xlink:href="#e"/>
<use x="95.410156" xlink:href="#p"/>
<use x="159.033203" xlink:href="#ab"/>
</g>
</g>
<g clip-path="url(#a)">
<g transform="translate(249.19 776.25) scale(.1 -.1)">
<use xlink:href="#c"/>
<use x="63.623047" xlink:href="#e"/>
<use x="95.410156" xlink:href="#p"/>
<use x="159.033203" xlink:href="#aa"/>
</g>
</g>
<g clip-path="url(#a)">
<g transform="translate(71.776 776.25) scale(.1 -.1)">
<use xlink:href="#c"/>
<use x="63.623047" xlink:href="#e"/>
<use x="95.410156" xlink:href="#p"/>
<use x="159.033203" xlink:href="#an"/>
</g>
</g>
<g clip-path="url(#a)">
<g transform="translate(78.873 776.25) scale(.1 -.1)">
<use xlink:href="#c"/>
<use x="63.623047" xlink:href="#e"/>
<use x="95.410156" xlink:href="#n"/>
<use x="159.033203" xlink:href="#ad"/>
</g>
</g>
<g clip-path="url(#a)">
<g transform="translate(88.334 776.25) scale(.1 -.1)">
<use xlink:href="#c"/>
<use x="63.623047" xlink:href="#e"/>
<use x="95.410156" xlink:href="#n"/>
<use x="159.033203" xlink:href="#c"/>
</g>
</g>
<g clip-path="url(#a)">
<g transform="translate(100.16 776.25) scale(.1 -.1)">
<use xlink:href="#c"/>
<use x="63.623047" xlink:href="#e"/>
<use x="95.410156" xlink:href="#n"/>
<use x="159.033203" xlink:href="#o"/>
</g>
</g>
<g clip-path="url(#a)">
<g transform="translate(141.95 485.77) scale(.1 -.1)">
<use xlink:href="#c"/>
<use x="63.623047" xlink:href="#e"/>
<use x="95.410156" xlink:href="#n"/>
<use x="159.033203" xlink:href="#p"/>
</g>
</g>
<g clip-path="url(#a)">
<g transform="translate(114.35 776.25) scale(.1 -.1)">
<use xlink:href="#c"/>
<use x="63.623047" xlink:href="#e"/>
<use x="95.410156" xlink:href="#n"/>
<use x="159.033203" xlink:href="#n"/>
</g>
</g>
<g clip-path="url(#a)">
<g transform="translate(140.37 631.39) scale(.1 -.1)">
<use xlink:href="#c"/>
<use x="63.623047" xlink:href="#e"/>
<use x="95.410156" xlink:href="#n"/>
<use x="159.033203" xlink:href="#s"/>
</g>
</g>
<g clip-path="url(#a)">
<g transform="translate(171.13 776.25) scale(.1 -.1)">
<use xlink:href="#c"/>
<use x="63.623047" xlink:href="#e"/>
<use x="95.410156" xlink:href="#n"/>
<use x="159.033203" xlink:href="#ac"/>
</g>
</g>
<g clip-path="url(#a)">
<g transform="translate(130.91 776.25) scale(.1 -.1)">
<use xlink:href="#c"/>
<use x="63.623047" xlink:href="#e"/>
<use x="95.410156" xlink:href="#n"/>
<use x="159.033203" xlink:href="#ab"/>
</g>
</g>
<g clip-path="url(#a)">
<g transform="translate(149.84 776.25) scale(.1 -.1)">
<use xlink:href="#c"/>
<use x="63.623047" xlink:href="#e"/>
<use x="95.410156" xlink:href="#n"/>
<use x="159.033203" xlink:href="#aa"/>
</g>
</g>
<g clip-path="url(#a)">
<g transform="translate(194.78 776.25) scale(.1 -.1)">
<use xlink:href="#c"/>
<use x="63.623047" xlink:href="#e"/>
<use x="95.410156" xlink:href="#n"/>
<use x="159.033203" xlink:href="#an"/>
</g>
</g>
<g clip-path="url(#a)">
<g transform="translate(428.96 776.25) scale(.1 -.1)">
<use xlink:href="#c"/>
<use x="63.623047" xlink:href="#e"/>
<use x="95.410156" xlink:href="#s"/>
<use x="159.033203" xlink:href="#ad"/>
</g>
</g>
<g clip-path="url(#a)">
<g transform="translate(897.32 776.25) scale(.1 -.1)">
<use xlink:href="#c"/>
<use x="63.623047" xlink:href="#e"/>
<use x="95.410156" xlink:href="#s"/>
<use x="159.033203" xlink:href="#c"/>
</g>
</g>
<g clip-path="url(#a)">
<g transform="translate(1730 776.25) scale(.1 -.1)">
<use xlink:href="#c"/>
<use x="63.623047" xlink:href="#e"/>
<use x="95.410156" xlink:href="#s"/>
<use x="159.033203" xlink:href="#o"/>
</g>
</g>
<defs>
<clipPath id="a">
<rect width="1824" height="960"/>
</clipPath>
</defs>
</svg>
