<?xml version="1.0" encoding="utf-8" standalone="no"?>
<!DOCTYPE svg PUBLIC "-//W3C//DTD SVG 1.1//EN"
  "http://www.w3.org/Graphics/SVG/1.1/DTD/svg11.dtd">
<!-- Created with matplotlib (https://matplotlib.org/) -->
<svg height="480pt" version="1.1" viewBox="0 0 912 480" width="912pt" xmlns="http://www.w3.org/2000/svg" xmlns:xlink="http://www.w3.org/1999/xlink">
 <defs>
  <style type="text/css">
*{stroke-linecap:butt;stroke-linejoin:round;}
  </style>
 </defs>
 <g id="figure_1">
  <g id="patch_1">
   <path d="M 0 480 
L 912 480 
L 912 0 
L 0 0 
z
" style="fill:#ffffff;"/>
  </g>
  <g id="axes_1">
   <g id="LineCollection_1">
    <path clip-path="url(#pd183613f7b)" d="M 485.779968 22.923092 
L 160.907592 112.82576 
" style="fill:none;stroke:#000000;"/>
    <path clip-path="url(#pd183613f7b)" d="M 485.779968 22.923092 
L 553.461713 372.020883 
" style="fill:none;stroke:#000000;"/>
    <path clip-path="url(#pd183613f7b)" d="M 485.779968 22.923092 
L 748.385139 286.964858 
" style="fill:none;stroke:#000000;"/>
    <path clip-path="url(#pd183613f7b)" d="M 485.779968 22.923092 
L 480.365428 372.020883 
" style="fill:none;stroke:#000000;"/>
    <path clip-path="url(#pd183613f7b)" d="M 160.907592 112.82576 
L 66.153149 286.964858 
" style="fill:none;stroke:#000000;"/>
    <path clip-path="url(#pd183613f7b)" d="M 160.907592 112.82576 
L 139.249433 372.020883 
" style="fill:none;stroke:#000000;"/>
    <path clip-path="url(#pd183613f7b)" d="M 160.907592 112.82576 
L 277.320193 200.72561 
" style="fill:none;stroke:#000000;"/>
    <path clip-path="url(#pd183613f7b)" d="M 553.461713 372.020883 
L 529.096285 457.076908 
" style="fill:none;stroke:#000000;"/>
    <path clip-path="url(#pd183613f7b)" d="M 553.461713 372.020883 
L 577.827141 457.076908 
" style="fill:none;stroke:#000000;"/>
    <path clip-path="url(#pd183613f7b)" d="M 748.385139 286.964858 
L 626.557997 372.020883 
" style="fill:none;stroke:#000000;"/>
    <path clip-path="url(#pd183613f7b)" d="M 748.385139 286.964858 
L 675.288854 372.020883 
" style="fill:none;stroke:#000000;"/>
    <path clip-path="url(#pd183613f7b)" d="M 748.385139 286.964858 
L 724.01971 372.020883 
" style="fill:none;stroke:#000000;"/>
    <path clip-path="url(#pd183613f7b)" d="M 748.385139 286.964858 
L 772.750567 372.020883 
" style="fill:none;stroke:#000000;"/>
    <path clip-path="url(#pd183613f7b)" d="M 748.385139 286.964858 
L 821.481423 372.020883 
" style="fill:none;stroke:#000000;"/>
    <path clip-path="url(#pd183613f7b)" d="M 748.385139 286.964858 
L 870.21228 372.020883 
" style="fill:none;stroke:#000000;"/>
    <path clip-path="url(#pd183613f7b)" d="M 626.557997 372.020883 
L 626.557997 457.076908 
" style="fill:none;stroke:#000000;"/>
    <path clip-path="url(#pd183613f7b)" d="M 675.288854 372.020883 
L 675.288854 457.076908 
" style="fill:none;stroke:#000000;"/>
    <path clip-path="url(#pd183613f7b)" d="M 724.01971 372.020883 
L 724.01971 457.076908 
" style="fill:none;stroke:#000000;"/>
    <path clip-path="url(#pd183613f7b)" d="M 772.750567 372.020883 
L 772.750567 457.076908 
" style="fill:none;stroke:#000000;"/>
    <path clip-path="url(#pd183613f7b)" d="M 821.481423 372.020883 
L 821.481423 457.076908 
" style="fill:none;stroke:#000000;"/>
    <path clip-path="url(#pd183613f7b)" d="M 66.153149 286.964858 
L 41.78772 372.020883 
" style="fill:none;stroke:#000000;"/>
    <path clip-path="url(#pd183613f7b)" d="M 66.153149 286.964858 
L 90.518577 372.020883 
" style="fill:none;stroke:#000000;"/>
    <path clip-path="url(#pd183613f7b)" d="M 139.249433 372.020883 
L 139.249433 457.076908 
" style="fill:none;stroke:#000000;"/>
    <path clip-path="url(#pd183613f7b)" d="M 277.320193 200.72561 
L 187.98029 372.020883 
" style="fill:none;stroke:#000000;"/>
    <path clip-path="url(#pd183613f7b)" d="M 277.320193 200.72561 
L 261.076574 372.020883 
" style="fill:none;stroke:#000000;"/>
    <path clip-path="url(#pd183613f7b)" d="M 277.320193 200.72561 
L 382.903715 286.964858 
" style="fill:none;stroke:#000000;"/>
    <path clip-path="url(#pd183613f7b)" d="M 187.98029 372.020883 
L 187.98029 457.076908 
" style="fill:none;stroke:#000000;"/>
    <path clip-path="url(#pd183613f7b)" d="M 261.076574 372.020883 
L 236.711146 457.076908 
" style="fill:none;stroke:#000000;"/>
    <path clip-path="url(#pd183613f7b)" d="M 261.076574 372.020883 
L 285.442003 457.076908 
" style="fill:none;stroke:#000000;"/>
    <path clip-path="url(#pd183613f7b)" d="M 382.903715 286.964858 
L 334.172859 372.020883 
" style="fill:none;stroke:#000000;"/>
    <path clip-path="url(#pd183613f7b)" d="M 382.903715 286.964858 
L 382.903715 372.020883 
" style="fill:none;stroke:#000000;"/>
    <path clip-path="url(#pd183613f7b)" d="M 382.903715 286.964858 
L 431.634572 372.020883 
" style="fill:none;stroke:#000000;"/>
    <path clip-path="url(#pd183613f7b)" d="M 334.172859 372.020883 
L 334.172859 457.076908 
" style="fill:none;stroke:#000000;"/>
    <path clip-path="url(#pd183613f7b)" d="M 382.903715 372.020883 
L 382.903715 457.076908 
" style="fill:none;stroke:#000000;"/>
    <path clip-path="url(#pd183613f7b)" d="M 431.634572 372.020883 
L 431.634572 457.076908 
" style="fill:none;stroke:#000000;"/>
    <path clip-path="url(#pd183613f7b)" d="M 41.78772 372.020883 
L 41.78772 457.076908 
" style="fill:none;stroke:#000000;"/>
    <path clip-path="url(#pd183613f7b)" d="M 90.518577 372.020883 
L 90.518577 457.076908 
" style="fill:none;stroke:#000000;"/>
    <path clip-path="url(#pd183613f7b)" d="M 650.923426 200.72561 
L 553.461713 372.020883 
" style="fill:none;stroke:#000000;"/>
    <path clip-path="url(#pd183613f7b)" d="M 650.923426 200.72561 
L 748.385139 286.964858 
" style="fill:none;stroke:#000000;"/>
    <path clip-path="url(#pd183613f7b)" d="M 480.365428 372.020883 
L 480.365428 457.076908 
" style="fill:none;stroke:#000000;"/>
    <path clip-path="url(#pd183613f7b)" d="M 870.21228 372.020883 
L 870.21228 457.076908 
" style="fill:none;stroke:#000000;"/>
   </g>
   <g id="text_1">
    <g id="patch_2">
     <path clip-path="url(#pd183613f7b)" d="M 322.117211 74.720806 
L 327.915537 73.116223 
Q 330.228602 72.476123 329.588502 70.163057 
L 327.523513 62.701011 
Q 326.883414 60.387946 324.570348 61.028046 
L 318.772023 62.632629 
Q 316.458957 63.272729 317.099057 65.585795 
L 319.164046 73.047841 
Q 319.804146 75.360906 322.117211 74.720806 
z
" style="fill:#ffffff;stroke:#ffffff;stroke-linejoin:miter;"/>
    </g>
    <g clip-path="url(#pd183613f7b)">
     <!-- H -->
     <defs>
      <path d="M 9.8125 72.90625 
L 19.671875 72.90625 
L 19.671875 43.015625 
L 55.515625 43.015625 
L 55.515625 72.90625 
L 65.375 72.90625 
L 65.375 0 
L 55.515625 0 
L 55.515625 34.71875 
L 19.671875 34.71875 
L 19.671875 0 
L 9.8125 0 
z
" id="DejaVuSans-72"/>
     </defs>
     <g transform="translate(321.033376 70.804256)rotate(-15.468484)scale(0.08 -0.08)">
      <use xlink:href="#DejaVuSans-72"/>
     </g>
    </g>
   </g>
   <g id="text_2">
    <g id="patch_3">
     <path clip-path="url(#pd183613f7b)" d="M 513.040028 196.4776 
L 513.888433 200.853615 
Q 514.34523 203.209743 516.701357 202.752946 
L 524.302323 201.2793 
Q 526.65845 200.822503 526.201653 198.466375 
L 525.353248 194.090359 
Q 524.896451 191.734232 522.540323 192.191029 
L 514.939358 193.664675 
Q 512.583231 194.121472 513.040028 196.4776 
z
" style="fill:#ffffff;stroke:#ffffff;stroke-linejoin:miter;"/>
    </g>
    <g clip-path="url(#pd183613f7b)">
     <!-- L -->
     <defs>
      <path d="M 9.8125 72.90625 
L 19.671875 72.90625 
L 19.671875 8.296875 
L 55.171875 8.296875 
L 55.171875 0 
L 9.8125 0 
z
" id="DejaVuSans-76"/>
     </defs>
     <g transform="translate(517.029491 195.704138)rotate(-280.972164)scale(0.08 -0.08)">
      <use xlink:href="#DejaVuSans-76"/>
     </g>
    </g>
   </g>
   <g id="text_3">
    <g id="patch_4">
     <path clip-path="url(#pd183613f7b)" d="M 610.514775 157.233446 
L 614.757285 161.499165 
Q 616.449706 163.200845 618.151385 161.508424 
L 623.641073 156.048604 
Q 625.342753 154.356183 623.650332 152.654504 
L 619.407821 148.388784 
Q 617.7154 146.687105 616.013721 148.379526 
L 610.524033 153.839346 
Q 608.822354 155.531766 610.514775 157.233446 
z
" style="fill:#ffffff;stroke:#ffffff;stroke-linejoin:miter;"/>
    </g>
    <g clip-path="url(#pd183613f7b)">
     <!-- H -->
     <g transform="translate(613.396107 154.367789)rotate(-314.843708)scale(0.08 -0.08)">
      <use xlink:href="#DejaVuSans-72"/>
     </g>
    </g>
   </g>
   <g id="text_4">
    <g id="patch_5">
     <path clip-path="url(#pd183613f7b)" d="M 489.297793 200.496391 
L 489.388594 194.642095 
Q 489.425814 192.242384 487.026103 192.205164 
L 479.284534 192.085092 
Q 476.884822 192.047872 476.847603 194.447584 
L 476.756802 200.301879 
Q 476.719582 202.701591 479.119293 202.738811 
L 486.860862 202.858883 
Q 489.260574 202.896103 489.297793 200.496391 
z
" style="fill:#ffffff;stroke:#ffffff;stroke-linejoin:miter;"/>
    </g>
    <g clip-path="url(#pd183613f7b)">
     <!-- U -->
     <defs>
      <path d="M 8.6875 72.90625 
L 18.609375 72.90625 
L 18.609375 28.609375 
Q 18.609375 16.890625 22.84375 11.734375 
Q 27.09375 6.59375 36.625 6.59375 
Q 46.09375 6.59375 50.34375 11.734375 
Q 54.59375 16.890625 54.59375 28.609375 
L 54.59375 72.90625 
L 64.5 72.90625 
L 64.5 27.390625 
Q 64.5 13.140625 57.4375 5.859375 
Q 50.390625 -1.421875 36.625 -1.421875 
Q 22.796875 -1.421875 15.734375 5.859375 
Q 8.6875 13.140625 8.6875 27.390625 
z
" id="DejaVuSans-85"/>
     </defs>
     <g transform="translate(485.234532 200.43337)rotate(-89.111408)scale(0.08 -0.08)">
      <use xlink:href="#DejaVuSans-85"/>
     </g>
    </g>
   </g>
   <g id="text_5">
    <g id="patch_6">
     <path clip-path="url(#pd183613f7b)" d="M 117.731129 205.296167 
L 120.346742 200.489211 
Q 121.493835 198.381089 119.385714 197.233995 
L 112.584826 193.533423 
Q 110.476705 192.386329 109.329611 194.494451 
L 106.713999 199.301407 
Q 105.566905 201.409528 107.675026 202.556622 
L 114.475914 206.257194 
Q 116.584035 207.404288 117.731129 205.296167 
z
" style="fill:#ffffff;stroke:#ffffff;stroke-linejoin:miter;"/>
    </g>
    <g clip-path="url(#pd183613f7b)">
     <!-- A -->
     <defs>
      <path d="M 34.1875 63.1875 
L 20.796875 26.90625 
L 47.609375 26.90625 
z
M 28.609375 72.90625 
L 39.796875 72.90625 
L 67.578125 0 
L 57.328125 0 
L 50.6875 18.703125 
L 17.828125 18.703125 
L 11.1875 0 
L 0.78125 0 
z
" id="DejaVuSans-65"/>
     </defs>
     <g transform="translate(114.161596 203.353874)rotate(-61.448028)scale(0.08 -0.08)">
      <use xlink:href="#DejaVuSans-65"/>
     </g>
    </g>
   </g>
   <g id="text_6">
    <g id="patch_7">
     <path clip-path="url(#pd183613f7b)" d="M 156.127148 245.349021 
L 156.528818 240.542024 
Q 156.728663 238.150359 154.336998 237.950513 
L 146.621387 237.305802 
Q 144.229722 237.105956 144.029877 239.497621 
L 143.628207 244.304619 
Q 143.428361 246.696284 145.820026 246.89613 
L 153.535638 247.540841 
Q 155.927303 247.740686 156.127148 245.349021 
z
" style="fill:#ffffff;stroke:#ffffff;stroke-linejoin:miter;"/>
    </g>
    <g clip-path="url(#pd183613f7b)">
     <!-- P -->
     <defs>
      <path d="M 19.671875 64.796875 
L 19.671875 37.40625 
L 32.078125 37.40625 
Q 38.96875 37.40625 42.71875 40.96875 
Q 46.484375 44.53125 46.484375 51.125 
Q 46.484375 57.671875 42.71875 61.234375 
Q 38.96875 64.796875 32.078125 64.796875 
z
M 9.8125 72.90625 
L 32.078125 72.90625 
Q 44.34375 72.90625 50.609375 67.359375 
Q 56.890625 61.8125 56.890625 51.125 
Q 56.890625 40.328125 50.609375 34.8125 
Q 44.34375 29.296875 32.078125 29.296875 
L 19.671875 29.296875 
L 19.671875 0 
L 9.8125 0 
z
" id="DejaVuSans-80"/>
     </defs>
     <g transform="translate(152.077511 245.010637)rotate(-85.223502)scale(0.08 -0.08)">
      <use xlink:href="#DejaVuSans-80"/>
     </g>
    </g>
   </g>
   <g id="text_7">
    <g id="patch_8">
     <path clip-path="url(#pd183613f7b)" d="M 213.385174 160.308279 
L 217.284661 163.252671 
Q 219.199988 164.69888 220.646197 162.783553 
L 225.311729 156.604627 
Q 226.757938 154.6893 224.842611 153.24309 
L 220.943124 150.298699 
Q 219.027797 148.852489 217.581587 150.767817 
L 212.916056 156.946743 
Q 211.469847 158.86207 213.385174 160.308279 
z
" style="fill:#ffffff;stroke:#ffffff;stroke-linejoin:miter;"/>
    </g>
    <g clip-path="url(#pd183613f7b)">
     <!-- T -->
     <defs>
      <path d="M -0.296875 72.90625 
L 61.375 72.90625 
L 61.375 64.59375 
L 35.5 64.59375 
L 35.5 0 
L 25.59375 0 
L 25.59375 64.59375 
L -0.296875 64.59375 
z
" id="DejaVuSans-84"/>
     </defs>
     <g transform="translate(215.833938 157.065191)rotate(-322.944582)scale(0.08 -0.08)">
      <use xlink:href="#DejaVuSans-84"/>
     </g>
    </g>
   </g>
   <g id="text_8">
    <g id="patch_9">
     <path clip-path="url(#pd183613f7b)" d="M 542.449251 433.236241 
L 552.166272 399.315588 
Q 552.827201 397.008388 550.52 396.347459 
L 543.076875 394.215277 
Q 540.769675 393.554349 540.108747 395.86155 
L 530.391725 429.782203 
Q 529.730797 432.089403 532.037997 432.750332 
L 539.481122 434.882513 
Q 541.788323 435.543442 542.449251 433.236241 
z
" style="fill:#ffffff;stroke:#ffffff;stroke-linejoin:miter;"/>
    </g>
    <g clip-path="url(#pd183613f7b)">
     <!-- Terminal -->
     <defs>
      <path d="M 56.203125 29.59375 
L 56.203125 25.203125 
L 14.890625 25.203125 
Q 15.484375 15.921875 20.484375 11.0625 
Q 25.484375 6.203125 34.421875 6.203125 
Q 39.59375 6.203125 44.453125 7.46875 
Q 49.3125 8.734375 54.109375 11.28125 
L 54.109375 2.78125 
Q 49.265625 0.734375 44.1875 -0.34375 
Q 39.109375 -1.421875 33.890625 -1.421875 
Q 20.796875 -1.421875 13.15625 6.1875 
Q 5.515625 13.8125 5.515625 26.8125 
Q 5.515625 40.234375 12.765625 48.109375 
Q 20.015625 56 32.328125 56 
Q 43.359375 56 49.78125 48.890625 
Q 56.203125 41.796875 56.203125 29.59375 
z
M 47.21875 32.234375 
Q 47.125 39.59375 43.09375 43.984375 
Q 39.0625 48.390625 32.421875 48.390625 
Q 24.90625 48.390625 20.390625 44.140625 
Q 15.875 39.890625 15.1875 32.171875 
z
" id="DejaVuSans-101"/>
      <path d="M 41.109375 46.296875 
Q 39.59375 47.171875 37.8125 47.578125 
Q 36.03125 48 33.890625 48 
Q 26.265625 48 22.1875 43.046875 
Q 18.109375 38.09375 18.109375 28.8125 
L 18.109375 0 
L 9.078125 0 
L 9.078125 54.6875 
L 18.109375 54.6875 
L 18.109375 46.1875 
Q 20.953125 51.171875 25.484375 53.578125 
Q 30.03125 56 36.53125 56 
Q 37.453125 56 38.578125 55.875 
Q 39.703125 55.765625 41.0625 55.515625 
z
" id="DejaVuSans-114"/>
      <path d="M 52 44.1875 
Q 55.375 50.25 60.0625 53.125 
Q 64.75 56 71.09375 56 
Q 79.640625 56 84.28125 50.015625 
Q 88.921875 44.046875 88.921875 33.015625 
L 88.921875 0 
L 79.890625 0 
L 79.890625 32.71875 
Q 79.890625 40.578125 77.09375 44.375 
Q 74.3125 48.1875 68.609375 48.1875 
Q 61.625 48.1875 57.5625 43.546875 
Q 53.515625 38.921875 53.515625 30.90625 
L 53.515625 0 
L 44.484375 0 
L 44.484375 32.71875 
Q 44.484375 40.625 41.703125 44.40625 
Q 38.921875 48.1875 33.109375 48.1875 
Q 26.21875 48.1875 22.15625 43.53125 
Q 18.109375 38.875 18.109375 30.90625 
L 18.109375 0 
L 9.078125 0 
L 9.078125 54.6875 
L 18.109375 54.6875 
L 18.109375 46.1875 
Q 21.1875 51.21875 25.484375 53.609375 
Q 29.78125 56 35.6875 56 
Q 41.65625 56 45.828125 52.96875 
Q 50 49.953125 52 44.1875 
z
" id="DejaVuSans-109"/>
      <path d="M 9.421875 54.6875 
L 18.40625 54.6875 
L 18.40625 0 
L 9.421875 0 
z
M 9.421875 75.984375 
L 18.40625 75.984375 
L 18.40625 64.59375 
L 9.421875 64.59375 
z
" id="DejaVuSans-105"/>
      <path d="M 54.890625 33.015625 
L 54.890625 0 
L 45.90625 0 
L 45.90625 32.71875 
Q 45.90625 40.484375 42.875 44.328125 
Q 39.84375 48.1875 33.796875 48.1875 
Q 26.515625 48.1875 22.3125 43.546875 
Q 18.109375 38.921875 18.109375 30.90625 
L 18.109375 0 
L 9.078125 0 
L 9.078125 54.6875 
L 18.109375 54.6875 
L 18.109375 46.1875 
Q 21.34375 51.125 25.703125 53.5625 
Q 30.078125 56 35.796875 56 
Q 45.21875 56 50.046875 50.171875 
Q 54.890625 44.34375 54.890625 33.015625 
z
" id="DejaVuSans-110"/>
      <path d="M 34.28125 27.484375 
Q 23.390625 27.484375 19.1875 25 
Q 14.984375 22.515625 14.984375 16.5 
Q 14.984375 11.71875 18.140625 8.90625 
Q 21.296875 6.109375 26.703125 6.109375 
Q 34.1875 6.109375 38.703125 11.40625 
Q 43.21875 16.703125 43.21875 25.484375 
L 43.21875 27.484375 
z
M 52.203125 31.203125 
L 52.203125 0 
L 43.21875 0 
L 43.21875 8.296875 
Q 40.140625 3.328125 35.546875 0.953125 
Q 30.953125 -1.421875 24.3125 -1.421875 
Q 15.921875 -1.421875 10.953125 3.296875 
Q 6 8.015625 6 15.921875 
Q 6 25.140625 12.171875 29.828125 
Q 18.359375 34.515625 30.609375 34.515625 
L 43.21875 34.515625 
L 43.21875 35.40625 
Q 43.21875 41.609375 39.140625 45 
Q 35.0625 48.390625 27.6875 48.390625 
Q 23 48.390625 18.546875 47.265625 
Q 14.109375 46.140625 10.015625 43.890625 
L 10.015625 52.203125 
Q 14.9375 54.109375 19.578125 55.046875 
Q 24.21875 56 28.609375 56 
Q 40.484375 56 46.34375 49.84375 
Q 52.203125 43.703125 52.203125 31.203125 
z
" id="DejaVuSans-97"/>
      <path d="M 9.421875 75.984375 
L 18.40625 75.984375 
L 18.40625 0 
L 9.421875 0 
z
" id="DejaVuSans-108"/>
     </defs>
     <g transform="translate(538.542632 432.117138)rotate(-74.014936)scale(0.08 -0.08)">
      <use xlink:href="#DejaVuSans-84"/>
      <use x="60.818359" xlink:href="#DejaVuSans-101"/>
      <use x="122.341797" xlink:href="#DejaVuSans-114"/>
      <use x="163.439453" xlink:href="#DejaVuSans-109"/>
      <use x="260.851562" xlink:href="#DejaVuSans-105"/>
      <use x="288.634766" xlink:href="#DejaVuSans-110"/>
      <use x="352.013672" xlink:href="#DejaVuSans-97"/>
      <use x="413.292969" xlink:href="#DejaVuSans-108"/>
     </g>
    </g>
   </g>
   <g id="text_9">
    <g id="patch_10">
     <path clip-path="url(#pd183613f7b)" d="M 554.757153 399.315588 
L 564.474175 433.236241 
Q 565.135103 435.543442 567.442304 434.882513 
L 574.885428 432.750332 
Q 577.192629 432.089403 576.531701 429.782203 
L 566.814679 395.86155 
Q 566.153751 393.554349 563.84655 394.215277 
L 556.403426 396.347459 
Q 554.096225 397.008388 554.757153 399.315588 
z
" style="fill:#ffffff;stroke:#ffffff;stroke-linejoin:miter;"/>
    </g>
    <g clip-path="url(#pd183613f7b)">
     <!-- Terminal -->
     <g transform="translate(558.663772 398.196485)rotate(-285.985064)scale(0.08 -0.08)">
      <use xlink:href="#DejaVuSans-84"/>
      <use x="60.818359" xlink:href="#DejaVuSans-101"/>
      <use x="122.341797" xlink:href="#DejaVuSans-114"/>
      <use x="163.439453" xlink:href="#DejaVuSans-109"/>
      <use x="260.851562" xlink:href="#DejaVuSans-105"/>
      <use x="288.634766" xlink:href="#DejaVuSans-110"/>
      <use x="352.013672" xlink:href="#DejaVuSans-97"/>
      <use x="413.292969" xlink:href="#DejaVuSans-108"/>
     </g>
    </g>
   </g>
   <g id="text_10">
    <g id="patch_11">
     <path clip-path="url(#pd183613f7b)" d="M 688.818024 336.201275 
L 693.305126 333.068517 
Q 695.272973 331.694625 693.899081 329.726778 
L 689.466851 323.378421 
Q 688.092959 321.410574 686.125112 322.784465 
L 681.63801 325.917224 
Q 679.670163 327.291115 681.044055 329.258962 
L 685.476285 335.607319 
Q 686.850177 337.575167 688.818024 336.201275 
z
" style="fill:#ffffff;stroke:#ffffff;stroke-linejoin:miter;"/>
    </g>
    <g clip-path="url(#pd183613f7b)">
     <!-- A -->
     <g transform="translate(686.491711 332.869259)rotate(-34.92158)scale(0.08 -0.08)">
      <use xlink:href="#DejaVuSans-65"/>
     </g>
    </g>
   </g>
   <g id="text_11">
    <g id="patch_12">
     <path clip-path="url(#pd183613f7b)" d="M 715.093714 335.325129 
L 718.092685 331.835477 
Q 719.656941 330.015284 717.836748 328.451028 
L 711.964728 323.404674 
Q 710.144534 321.840418 708.580279 323.660611 
L 705.581307 327.150263 
Q 704.017051 328.970457 705.837245 330.534713 
L 711.709265 335.581067 
Q 713.529458 337.145323 715.093714 335.325129 
z
" style="fill:#ffffff;stroke:#ffffff;stroke-linejoin:miter;"/>
    </g>
    <g clip-path="url(#pd183613f7b)">
     <!-- F -->
     <defs>
      <path d="M 9.8125 72.90625 
L 51.703125 72.90625 
L 51.703125 64.59375 
L 19.671875 64.59375 
L 19.671875 43.109375 
L 48.578125 43.109375 
L 48.578125 34.8125 
L 19.671875 34.8125 
L 19.671875 0 
L 9.8125 0 
z
" id="DejaVuSans-70"/>
     </defs>
     <g transform="translate(712.011709 332.676486)rotate(-49.324571)scale(0.08 -0.08)">
      <use xlink:href="#DejaVuSans-70"/>
     </g>
    </g>
   </g>
   <g id="text_12">
    <g id="patch_13">
     <path clip-path="url(#pd183613f7b)" d="M 741.382996 334.180797 
L 743.079378 328.258982 
Q 743.740307 325.951782 741.433106 325.290854 
L 733.989981 323.158672 
Q 731.682781 322.497743 731.021853 324.804944 
L 729.32547 330.726758 
Q 728.664542 333.033959 730.971743 333.694887 
L 738.414867 335.827069 
Q 740.722068 336.487997 741.382996 334.180797 
z
" style="fill:#ffffff;stroke:#ffffff;stroke-linejoin:miter;"/>
    </g>
    <g clip-path="url(#pd183613f7b)">
     <!-- D -->
     <defs>
      <path d="M 19.671875 64.796875 
L 19.671875 8.109375 
L 31.59375 8.109375 
Q 46.6875 8.109375 53.6875 14.9375 
Q 60.6875 21.78125 60.6875 36.53125 
Q 60.6875 51.171875 53.6875 57.984375 
Q 46.6875 64.796875 31.59375 64.796875 
z
M 9.8125 72.90625 
L 30.078125 72.90625 
Q 51.265625 72.90625 61.171875 64.09375 
Q 71.09375 55.28125 71.09375 36.53125 
Q 71.09375 17.671875 61.125 8.828125 
Q 51.171875 0 30.078125 0 
L 9.8125 0 
z
" id="DejaVuSans-68"/>
     </defs>
     <g transform="translate(737.476377 333.061694)rotate(-74.014936)scale(0.08 -0.08)">
      <use xlink:href="#DejaVuSans-68"/>
     </g>
    </g>
   </g>
   <g id="text_13">
    <g id="patch_14">
     <path clip-path="url(#pd183613f7b)" d="M 753.905528 329.008222 
L 755.172651 333.431557 
Q 755.83358 335.738758 758.14078 335.07783 
L 765.583905 332.945648 
Q 767.891105 332.284719 767.230177 329.977519 
L 765.963054 325.554183 
Q 765.302126 323.246983 762.994925 323.907911 
L 755.5518 326.040093 
Q 753.2446 326.701021 753.905528 329.008222 
z
" style="fill:#ffffff;stroke:#ffffff;stroke-linejoin:miter;"/>
    </g>
    <g clip-path="url(#pd183613f7b)">
     <!-- F -->
     <g transform="translate(757.812147 327.889119)rotate(-285.985064)scale(0.08 -0.08)">
      <use xlink:href="#DejaVuSans-70"/>
     </g>
    </g>
   </g>
   <g id="text_14">
    <g id="patch_15">
     <path clip-path="url(#pd183613f7b)" d="M 778.605082 331.751104 
L 781.749073 335.409503 
Q 783.313329 337.229696 785.133522 335.66544 
L 791.005542 330.619086 
Q 792.825735 329.05483 791.26148 327.234637 
L 788.117489 323.576238 
Q 786.553233 321.756045 784.733039 323.3203 
L 778.86102 328.366654 
Q 777.040826 329.93091 778.605082 331.751104 
z
" style="fill:#ffffff;stroke:#ffffff;stroke-linejoin:miter;"/>
    </g>
    <g clip-path="url(#pd183613f7b)">
     <!-- P -->
     <g transform="translate(781.687087 329.10246)rotate(-310.675429)scale(0.08 -0.08)">
      <use xlink:href="#DejaVuSans-80"/>
     </g>
    </g>
   </g>
   <g id="text_15">
    <g id="patch_16">
     <path clip-path="url(#pd183613f7b)" d="M 803.308339 332.959035 
L 808.109066 336.310757 
Q 810.076913 337.684649 811.450804 335.716801 
L 815.883035 329.368444 
Q 817.256927 327.400597 815.289079 326.026706 
L 810.488352 322.674983 
Q 808.520505 321.301092 807.146614 323.268939 
L 802.714383 329.617296 
Q 801.340492 331.585143 803.308339 332.959035 
z
" style="fill:#ffffff;stroke:#ffffff;stroke-linejoin:miter;"/>
    </g>
    <g clip-path="url(#pd183613f7b)">
     <!-- U -->
     <g transform="translate(805.634652 329.627018)rotate(-325.07842)scale(0.08 -0.08)">
      <use xlink:href="#DejaVuSans-85"/>
     </g>
    </g>
   </g>
   <g id="text_16">
    <g id="patch_17">
     <path clip-path="url(#pd183613f7b)" d="M 620.286747 396.906395 
L 620.286747 432.191395 
Q 620.286747 434.591395 622.686747 434.591395 
L 630.429247 434.591395 
Q 632.829247 434.591395 632.829247 432.191395 
L 632.829247 396.906395 
Q 632.829247 394.506395 630.429247 394.506395 
L 622.686747 394.506395 
Q 620.286747 394.506395 620.286747 396.906395 
z
" style="fill:#ffffff;stroke:#ffffff;stroke-linejoin:miter;"/>
    </g>
    <g clip-path="url(#pd183613f7b)">
     <!-- Terminal -->
     <g transform="translate(624.350497 396.906395)rotate(-270)scale(0.08 -0.08)">
      <use xlink:href="#DejaVuSans-84"/>
      <use x="60.818359" xlink:href="#DejaVuSans-101"/>
      <use x="122.341797" xlink:href="#DejaVuSans-114"/>
      <use x="163.439453" xlink:href="#DejaVuSans-109"/>
      <use x="260.851562" xlink:href="#DejaVuSans-105"/>
      <use x="288.634766" xlink:href="#DejaVuSans-110"/>
      <use x="352.013672" xlink:href="#DejaVuSans-97"/>
      <use x="413.292969" xlink:href="#DejaVuSans-108"/>
     </g>
    </g>
   </g>
   <g id="text_17">
    <g id="patch_18">
     <path clip-path="url(#pd183613f7b)" d="M 669.017604 396.906395 
L 669.017604 432.191395 
Q 669.017604 434.591395 671.417604 434.591395 
L 679.160104 434.591395 
Q 681.560104 434.591395 681.560104 432.191395 
L 681.560104 396.906395 
Q 681.560104 394.506395 679.160104 394.506395 
L 671.417604 394.506395 
Q 669.017604 394.506395 669.017604 396.906395 
z
" style="fill:#ffffff;stroke:#ffffff;stroke-linejoin:miter;"/>
    </g>
    <g clip-path="url(#pd183613f7b)">
     <!-- Terminal -->
     <g transform="translate(673.081354 396.906395)rotate(-270)scale(0.08 -0.08)">
      <use xlink:href="#DejaVuSans-84"/>
      <use x="60.818359" xlink:href="#DejaVuSans-101"/>
      <use x="122.341797" xlink:href="#DejaVuSans-114"/>
      <use x="163.439453" xlink:href="#DejaVuSans-109"/>
      <use x="260.851562" xlink:href="#DejaVuSans-105"/>
      <use x="288.634766" xlink:href="#DejaVuSans-110"/>
      <use x="352.013672" xlink:href="#DejaVuSans-97"/>
      <use x="413.292969" xlink:href="#DejaVuSans-108"/>
     </g>
    </g>
   </g>
   <g id="text_18">
    <g id="patch_19">
     <path clip-path="url(#pd183613f7b)" d="M 717.74846 396.906395 
L 717.74846 432.191395 
Q 717.74846 434.591395 720.14846 434.591395 
L 727.89096 434.591395 
Q 730.29096 434.591395 730.29096 432.191395 
L 730.29096 396.906395 
Q 730.29096 394.506395 727.89096 394.506395 
L 720.14846 394.506395 
Q 717.74846 394.506395 717.74846 396.906395 
z
" style="fill:#ffffff;stroke:#ffffff;stroke-linejoin:miter;"/>
    </g>
    <g clip-path="url(#pd183613f7b)">
     <!-- Terminal -->
     <g transform="translate(721.81221 396.906395)rotate(-270)scale(0.08 -0.08)">
      <use xlink:href="#DejaVuSans-84"/>
      <use x="60.818359" xlink:href="#DejaVuSans-101"/>
      <use x="122.341797" xlink:href="#DejaVuSans-114"/>
      <use x="163.439453" xlink:href="#DejaVuSans-109"/>
      <use x="260.851562" xlink:href="#DejaVuSans-105"/>
      <use x="288.634766" xlink:href="#DejaVuSans-110"/>
      <use x="352.013672" xlink:href="#DejaVuSans-97"/>
      <use x="413.292969" xlink:href="#DejaVuSans-108"/>
     </g>
    </g>
   </g>
   <g id="text_19">
    <g id="patch_20">
     <path clip-path="url(#pd183613f7b)" d="M 766.479317 396.906395 
L 766.479317 432.191395 
Q 766.479317 434.591395 768.879317 434.591395 
L 776.621817 434.591395 
Q 779.021817 434.591395 779.021817 432.191395 
L 779.021817 396.906395 
Q 779.021817 394.506395 776.621817 394.506395 
L 768.879317 394.506395 
Q 766.479317 394.506395 766.479317 396.906395 
z
" style="fill:#ffffff;stroke:#ffffff;stroke-linejoin:miter;"/>
    </g>
    <g clip-path="url(#pd183613f7b)">
     <!-- Terminal -->
     <g transform="translate(770.543067 396.906395)rotate(-270)scale(0.08 -0.08)">
      <use xlink:href="#DejaVuSans-84"/>
      <use x="60.818359" xlink:href="#DejaVuSans-101"/>
      <use x="122.341797" xlink:href="#DejaVuSans-114"/>
      <use x="163.439453" xlink:href="#DejaVuSans-109"/>
      <use x="260.851562" xlink:href="#DejaVuSans-105"/>
      <use x="288.634766" xlink:href="#DejaVuSans-110"/>
      <use x="352.013672" xlink:href="#DejaVuSans-97"/>
      <use x="413.292969" xlink:href="#DejaVuSans-108"/>
     </g>
    </g>
   </g>
   <g id="text_20">
    <g id="patch_21">
     <path clip-path="url(#pd183613f7b)" d="M 815.210173 396.906395 
L 815.210173 432.191395 
Q 815.210173 434.591395 817.610173 434.591395 
L 825.352673 434.591395 
Q 827.752673 434.591395 827.752673 432.191395 
L 827.752673 396.906395 
Q 827.752673 394.506395 825.352673 394.506395 
L 817.610173 394.506395 
Q 815.210173 394.506395 815.210173 396.906395 
z
" style="fill:#ffffff;stroke:#ffffff;stroke-linejoin:miter;"/>
    </g>
    <g clip-path="url(#pd183613f7b)">
     <!-- Terminal -->
     <g transform="translate(819.273923 396.906395)rotate(-270)scale(0.08 -0.08)">
      <use xlink:href="#DejaVuSans-84"/>
      <use x="60.818359" xlink:href="#DejaVuSans-101"/>
      <use x="122.341797" xlink:href="#DejaVuSans-114"/>
      <use x="163.439453" xlink:href="#DejaVuSans-109"/>
      <use x="260.851562" xlink:href="#DejaVuSans-105"/>
      <use x="288.634766" xlink:href="#DejaVuSans-110"/>
      <use x="352.013672" xlink:href="#DejaVuSans-97"/>
      <use x="413.292969" xlink:href="#DejaVuSans-108"/>
     </g>
    </g>
   </g>
   <g id="text_21">
    <g id="patch_22">
     <path clip-path="url(#pd183613f7b)" d="M 59.303157 333.64966 
L 60.695237 328.790119 
Q 61.356166 326.482919 59.048965 325.82199 
L 51.60584 323.689808 
Q 49.29864 323.02888 48.637712 325.336081 
L 47.245632 330.195622 
Q 46.584703 332.502822 48.891904 333.16375 
L 56.335029 335.295932 
Q 58.642229 335.95686 59.303157 333.64966 
z
" style="fill:#ffffff;stroke:#ffffff;stroke-linejoin:miter;"/>
    </g>
    <g clip-path="url(#pd183613f7b)">
     <!-- E -->
     <defs>
      <path d="M 9.8125 72.90625 
L 55.90625 72.90625 
L 55.90625 64.59375 
L 19.671875 64.59375 
L 19.671875 43.015625 
L 54.390625 43.015625 
L 54.390625 34.71875 
L 19.671875 34.71875 
L 19.671875 8.296875 
L 56.78125 8.296875 
L 56.78125 0 
L 9.8125 0 
z
" id="DejaVuSans-69"/>
     </defs>
     <g transform="translate(55.396538 332.530557)rotate(-74.014936)scale(0.08 -0.08)">
      <use xlink:href="#DejaVuSans-69"/>
     </g>
    </g>
   </g>
   <g id="text_22">
    <g id="patch_23">
     <path clip-path="url(#pd183613f7b)" d="M 71.53791 328.534765 
L 73.07629 333.905014 
Q 73.737218 336.212215 76.044418 335.551286 
L 83.487543 333.419104 
Q 85.794743 332.758176 85.133815 330.450976 
L 83.595436 325.080726 
Q 82.934508 322.773526 80.627307 323.434454 
L 73.184182 325.566636 
Q 70.876982 326.227564 71.53791 328.534765 
z
" style="fill:#ffffff;stroke:#ffffff;stroke-linejoin:miter;"/>
    </g>
    <g clip-path="url(#pd183613f7b)">
     <!-- C -->
     <defs>
      <path d="M 64.40625 67.28125 
L 64.40625 56.890625 
Q 59.421875 61.53125 53.78125 63.8125 
Q 48.140625 66.109375 41.796875 66.109375 
Q 29.296875 66.109375 22.65625 58.46875 
Q 16.015625 50.828125 16.015625 36.375 
Q 16.015625 21.96875 22.65625 14.328125 
Q 29.296875 6.6875 41.796875 6.6875 
Q 48.140625 6.6875 53.78125 8.984375 
Q 59.421875 11.28125 64.40625 15.921875 
L 64.40625 5.609375 
Q 59.234375 2.09375 53.4375 0.328125 
Q 47.65625 -1.421875 41.21875 -1.421875 
Q 24.65625 -1.421875 15.125 8.703125 
Q 5.609375 18.84375 5.609375 36.375 
Q 5.609375 53.953125 15.125 64.078125 
Q 24.65625 74.21875 41.21875 74.21875 
Q 47.75 74.21875 53.53125 72.484375 
Q 59.328125 70.75 64.40625 67.28125 
z
" id="DejaVuSans-67"/>
     </defs>
     <g transform="translate(75.444529 327.415662)rotate(-285.985064)scale(0.08 -0.08)">
      <use xlink:href="#DejaVuSans-67"/>
     </g>
    </g>
   </g>
   <g id="text_23">
    <g id="patch_24">
     <path clip-path="url(#pd183613f7b)" d="M 132.978183 396.906395 
L 132.978183 432.191395 
Q 132.978183 434.591395 135.378183 434.591395 
L 143.120683 434.591395 
Q 145.520683 434.591395 145.520683 432.191395 
L 145.520683 396.906395 
Q 145.520683 394.506395 143.120683 394.506395 
L 135.378183 394.506395 
Q 132.978183 394.506395 132.978183 396.906395 
z
" style="fill:#ffffff;stroke:#ffffff;stroke-linejoin:miter;"/>
    </g>
    <g clip-path="url(#pd183613f7b)">
     <!-- Terminal -->
     <g transform="translate(137.041933 396.906395)rotate(-270)scale(0.08 -0.08)">
      <use xlink:href="#DejaVuSans-84"/>
      <use x="60.818359" xlink:href="#DejaVuSans-101"/>
      <use x="122.341797" xlink:href="#DejaVuSans-114"/>
      <use x="163.439453" xlink:href="#DejaVuSans-109"/>
      <use x="260.851562" xlink:href="#DejaVuSans-105"/>
      <use x="288.634766" xlink:href="#DejaVuSans-110"/>
      <use x="352.013672" xlink:href="#DejaVuSans-97"/>
      <use x="413.292969" xlink:href="#DejaVuSans-108"/>
     </g>
    </g>
   </g>
   <g id="text_24">
    <g id="patch_25">
     <path clip-path="url(#pd183613f7b)" d="M 236.925369 291.737646 
L 239.495944 286.808971 
Q 240.605795 284.681006 238.47783 283.571156 
L 231.612929 279.990732 
Q 229.484964 278.880882 228.375114 281.008846 
L 225.804539 285.937522 
Q 224.694688 288.065486 226.822653 289.175337 
L 233.687554 292.75576 
Q 235.815518 293.865611 236.925369 291.737646 
z
" style="fill:#ffffff;stroke:#ffffff;stroke-linejoin:miter;"/>
    </g>
    <g clip-path="url(#pd183613f7b)">
     <!-- R -->
     <defs>
      <path d="M 44.390625 34.1875 
Q 47.5625 33.109375 50.5625 29.59375 
Q 53.5625 26.078125 56.59375 19.921875 
L 66.609375 0 
L 56 0 
L 46.6875 18.703125 
Q 43.0625 26.03125 39.671875 28.421875 
Q 36.28125 30.8125 30.421875 30.8125 
L 19.671875 30.8125 
L 19.671875 0 
L 9.8125 0 
L 9.8125 72.90625 
L 32.078125 72.90625 
Q 44.578125 72.90625 50.734375 67.671875 
Q 56.890625 62.453125 56.890625 51.90625 
Q 56.890625 45.015625 53.6875 40.46875 
Q 50.484375 35.9375 44.390625 34.1875 
z
M 19.671875 64.796875 
L 19.671875 38.921875 
L 32.078125 38.921875 
Q 39.203125 38.921875 42.84375 42.21875 
Q 46.484375 45.515625 46.484375 51.90625 
Q 46.484375 58.296875 42.84375 61.546875 
Q 39.203125 64.796875 32.078125 64.796875 
z
" id="DejaVuSans-82"/>
     </defs>
     <g transform="translate(233.322238 289.858415)rotate(-62.455482)scale(0.08 -0.08)">
      <use xlink:href="#DejaVuSans-82"/>
     </g>
    </g>
   </g>
   <g id="text_25">
    <g id="patch_26">
     <path clip-path="url(#pd183613f7b)" d="M 275.177942 289.745932 
L 275.70531 284.184631 
Q 275.931881 281.79535 273.5426 281.568778 
L 265.834678 280.83785 
Q 263.445397 280.611279 263.218826 283.00056 
L 262.691458 288.561862 
Q 262.464886 290.951143 264.854168 291.177714 
L 272.562089 291.908642 
Q 274.95137 292.135214 275.177942 289.745932 
z
" style="fill:#ffffff;stroke:#ffffff;stroke-linejoin:miter;"/>
    </g>
    <g clip-path="url(#pd183613f7b)">
     <!-- C -->
     <g transform="translate(271.132341 289.362295)rotate(-84.582944)scale(0.08 -0.08)">
      <use xlink:href="#DejaVuSans-67"/>
     </g>
    </g>
   </g>
   <g id="text_26">
    <g id="patch_27">
     <path clip-path="url(#pd183613f7b)" d="M 324.187307 247.10336 
L 328.102336 250.301104 
Q 329.961103 251.819322 331.47932 249.960554 
L 336.377152 243.964093 
Q 337.895369 242.105325 336.036602 240.587108 
L 332.121573 237.389363 
Q 330.262805 235.871146 328.744588 237.729913 
L 323.846756 243.726375 
Q 322.328539 245.585142 324.187307 247.10336 
z
" style="fill:#ffffff;stroke:#ffffff;stroke-linejoin:miter;"/>
    </g>
    <g clip-path="url(#pd183613f7b)">
     <!-- E -->
     <g transform="translate(326.757996 243.95604)rotate(-320.758497)scale(0.08 -0.08)">
      <use xlink:href="#DejaVuSans-69"/>
     </g>
    </g>
   </g>
   <g id="text_27">
    <g id="patch_28">
     <path clip-path="url(#pd183613f7b)" d="M 181.70904 396.906395 
L 181.70904 432.191395 
Q 181.70904 434.591395 184.10904 434.591395 
L 191.85154 434.591395 
Q 194.25154 434.591395 194.25154 432.191395 
L 194.25154 396.906395 
Q 194.25154 394.506395 191.85154 394.506395 
L 184.10904 394.506395 
Q 181.70904 394.506395 181.70904 396.906395 
z
" style="fill:#ffffff;stroke:#ffffff;stroke-linejoin:miter;"/>
    </g>
    <g clip-path="url(#pd183613f7b)">
     <!-- Terminal -->
     <g transform="translate(185.77279 396.906395)rotate(-270)scale(0.08 -0.08)">
      <use xlink:href="#DejaVuSans-84"/>
      <use x="60.818359" xlink:href="#DejaVuSans-101"/>
      <use x="122.341797" xlink:href="#DejaVuSans-114"/>
      <use x="163.439453" xlink:href="#DejaVuSans-109"/>
      <use x="260.851562" xlink:href="#DejaVuSans-105"/>
      <use x="288.634766" xlink:href="#DejaVuSans-110"/>
      <use x="352.013672" xlink:href="#DejaVuSans-97"/>
      <use x="413.292969" xlink:href="#DejaVuSans-108"/>
     </g>
    </g>
   </g>
   <g id="text_28">
    <g id="patch_29">
     <path clip-path="url(#pd183613f7b)" d="M 250.064112 433.236241 
L 259.781134 399.315588 
Q 260.442062 397.008388 258.134862 396.347459 
L 250.691737 394.215277 
Q 248.384536 393.554349 247.723608 395.86155 
L 238.006587 429.782203 
Q 237.345658 432.089403 239.652859 432.750332 
L 247.095984 434.882513 
Q 249.403184 435.543442 250.064112 433.236241 
z
" style="fill:#ffffff;stroke:#ffffff;stroke-linejoin:miter;"/>
    </g>
    <g clip-path="url(#pd183613f7b)">
     <!-- Terminal -->
     <g transform="translate(246.157493 432.117138)rotate(-74.014936)scale(0.08 -0.08)">
      <use xlink:href="#DejaVuSans-84"/>
      <use x="60.818359" xlink:href="#DejaVuSans-101"/>
      <use x="122.341797" xlink:href="#DejaVuSans-114"/>
      <use x="163.439453" xlink:href="#DejaVuSans-109"/>
      <use x="260.851562" xlink:href="#DejaVuSans-105"/>
      <use x="288.634766" xlink:href="#DejaVuSans-110"/>
      <use x="352.013672" xlink:href="#DejaVuSans-97"/>
      <use x="413.292969" xlink:href="#DejaVuSans-108"/>
     </g>
    </g>
   </g>
   <g id="text_29">
    <g id="patch_30">
     <path clip-path="url(#pd183613f7b)" d="M 262.372015 399.315588 
L 272.089036 433.236241 
Q 272.749965 435.543442 275.057165 434.882513 
L 282.50029 432.750332 
Q 284.80749 432.089403 284.146562 429.782203 
L 274.42954 395.86155 
Q 273.768612 393.554349 271.461412 394.215277 
L 264.018287 396.347459 
Q 261.711087 397.008388 262.372015 399.315588 
z
" style="fill:#ffffff;stroke:#ffffff;stroke-linejoin:miter;"/>
    </g>
    <g clip-path="url(#pd183613f7b)">
     <!-- Terminal -->
     <g transform="translate(266.278634 398.196485)rotate(-285.985064)scale(0.08 -0.08)">
      <use xlink:href="#DejaVuSans-84"/>
      <use x="60.818359" xlink:href="#DejaVuSans-101"/>
      <use x="122.341797" xlink:href="#DejaVuSans-114"/>
      <use x="163.439453" xlink:href="#DejaVuSans-109"/>
      <use x="260.851562" xlink:href="#DejaVuSans-105"/>
      <use x="288.634766" xlink:href="#DejaVuSans-110"/>
      <use x="352.013672" xlink:href="#DejaVuSans-97"/>
      <use x="413.292969" xlink:href="#DejaVuSans-108"/>
     </g>
    </g>
   </g>
   <g id="text_30">
    <g id="patch_31">
     <path clip-path="url(#pd183613f7b)" d="M 362.598064 335.02204 
L 365.361421 330.198809 
Q 366.554505 328.11637 364.472067 326.923286 
L 357.754033 323.074346 
Q 355.671595 321.881262 354.478511 323.963701 
L 351.715154 328.786932 
Q 350.522069 330.86937 352.604508 332.062454 
L 359.322541 335.911394 
Q 361.404979 337.104478 362.598064 335.02204 
z
" style="fill:#ffffff;stroke:#ffffff;stroke-linejoin:miter;"/>
    </g>
    <g clip-path="url(#pd183613f7b)">
     <!-- R -->
     <g transform="translate(359.072018 333.001875)rotate(-60.190459)scale(0.08 -0.08)">
      <use xlink:href="#DejaVuSans-82"/>
     </g>
    </g>
   </g>
   <g id="text_31">
    <g id="patch_32">
     <path clip-path="url(#pd183613f7b)" d="M 376.632465 326.96537 
L 376.632465 332.02037 
Q 376.632465 334.42037 379.032465 334.42037 
L 386.774965 334.42037 
Q 389.174965 334.42037 389.174965 332.02037 
L 389.174965 326.96537 
Q 389.174965 324.56537 386.774965 324.56537 
L 379.032465 324.56537 
Q 376.632465 324.56537 376.632465 326.96537 
z
" style="fill:#ffffff;stroke:#ffffff;stroke-linejoin:miter;"/>
    </g>
    <g clip-path="url(#pd183613f7b)">
     <!-- E -->
     <g transform="translate(380.696215 326.96537)rotate(-270)scale(0.08 -0.08)">
      <use xlink:href="#DejaVuSans-69"/>
     </g>
    </g>
   </g>
   <g id="text_32">
    <g id="patch_33">
     <path clip-path="url(#pd183613f7b)" d="M 400.439175 330.186878 
L 403.216203 335.033971 
Q 404.409287 337.116409 406.491725 335.923325 
L 413.209758 332.074385 
Q 415.292197 330.881301 414.099113 328.798862 
L 411.322085 323.95177 
Q 410.129 321.869332 408.046562 323.062416 
L 401.328529 326.911356 
Q 399.24609 328.10444 400.439175 330.186878 
z
" style="fill:#ffffff;stroke:#ffffff;stroke-linejoin:miter;"/>
    </g>
    <g clip-path="url(#pd183613f7b)">
     <!-- C -->
     <g transform="translate(403.96522 328.166713)rotate(-299.809541)scale(0.08 -0.08)">
      <use xlink:href="#DejaVuSans-67"/>
     </g>
    </g>
   </g>
   <g id="text_33">
    <g id="patch_34">
     <path clip-path="url(#pd183613f7b)" d="M 327.901609 396.906395 
L 327.901609 432.191395 
Q 327.901609 434.591395 330.301609 434.591395 
L 338.044109 434.591395 
Q 340.444109 434.591395 340.444109 432.191395 
L 340.444109 396.906395 
Q 340.444109 394.506395 338.044109 394.506395 
L 330.301609 394.506395 
Q 327.901609 394.506395 327.901609 396.906395 
z
" style="fill:#ffffff;stroke:#ffffff;stroke-linejoin:miter;"/>
    </g>
    <g clip-path="url(#pd183613f7b)">
     <!-- Terminal -->
     <g transform="translate(331.965359 396.906395)rotate(-270)scale(0.08 -0.08)">
      <use xlink:href="#DejaVuSans-84"/>
      <use x="60.818359" xlink:href="#DejaVuSans-101"/>
      <use x="122.341797" xlink:href="#DejaVuSans-114"/>
      <use x="163.439453" xlink:href="#DejaVuSans-109"/>
      <use x="260.851562" xlink:href="#DejaVuSans-105"/>
      <use x="288.634766" xlink:href="#DejaVuSans-110"/>
      <use x="352.013672" xlink:href="#DejaVuSans-97"/>
      <use x="413.292969" xlink:href="#DejaVuSans-108"/>
     </g>
    </g>
   </g>
   <g id="text_34">
    <g id="patch_35">
     <path clip-path="url(#pd183613f7b)" d="M 376.632465 396.906395 
L 376.632465 432.191395 
Q 376.632465 434.591395 379.032465 434.591395 
L 386.774965 434.591395 
Q 389.174965 434.591395 389.174965 432.191395 
L 389.174965 396.906395 
Q 389.174965 394.506395 386.774965 394.506395 
L 379.032465 394.506395 
Q 376.632465 394.506395 376.632465 396.906395 
z
" style="fill:#ffffff;stroke:#ffffff;stroke-linejoin:miter;"/>
    </g>
    <g clip-path="url(#pd183613f7b)">
     <!-- Terminal -->
     <g transform="translate(380.696215 396.906395)rotate(-270)scale(0.08 -0.08)">
      <use xlink:href="#DejaVuSans-84"/>
      <use x="60.818359" xlink:href="#DejaVuSans-101"/>
      <use x="122.341797" xlink:href="#DejaVuSans-114"/>
      <use x="163.439453" xlink:href="#DejaVuSans-109"/>
      <use x="260.851562" xlink:href="#DejaVuSans-105"/>
      <use x="288.634766" xlink:href="#DejaVuSans-110"/>
      <use x="352.013672" xlink:href="#DejaVuSans-97"/>
      <use x="413.292969" xlink:href="#DejaVuSans-108"/>
     </g>
    </g>
   </g>
   <g id="text_35">
    <g id="patch_36">
     <path clip-path="url(#pd183613f7b)" d="M 425.363322 396.906395 
L 425.363322 432.191395 
Q 425.363322 434.591395 427.763322 434.591395 
L 435.505822 434.591395 
Q 437.905822 434.591395 437.905822 432.191395 
L 437.905822 396.906395 
Q 437.905822 394.506395 435.505822 394.506395 
L 427.763322 394.506395 
Q 425.363322 394.506395 425.363322 396.906395 
z
" style="fill:#ffffff;stroke:#ffffff;stroke-linejoin:miter;"/>
    </g>
    <g clip-path="url(#pd183613f7b)">
     <!-- Terminal -->
     <g transform="translate(429.427072 396.906395)rotate(-270)scale(0.08 -0.08)">
      <use xlink:href="#DejaVuSans-84"/>
      <use x="60.818359" xlink:href="#DejaVuSans-101"/>
      <use x="122.341797" xlink:href="#DejaVuSans-114"/>
      <use x="163.439453" xlink:href="#DejaVuSans-109"/>
      <use x="260.851562" xlink:href="#DejaVuSans-105"/>
      <use x="288.634766" xlink:href="#DejaVuSans-110"/>
      <use x="352.013672" xlink:href="#DejaVuSans-97"/>
      <use x="413.292969" xlink:href="#DejaVuSans-108"/>
     </g>
    </g>
   </g>
   <g id="text_36">
    <g id="patch_37">
     <path clip-path="url(#pd183613f7b)" d="M 35.51647 396.906395 
L 35.51647 432.191395 
Q 35.51647 434.591395 37.91647 434.591395 
L 45.65897 434.591395 
Q 48.05897 434.591395 48.05897 432.191395 
L 48.05897 396.906395 
Q 48.05897 394.506395 45.65897 394.506395 
L 37.91647 394.506395 
Q 35.51647 394.506395 35.51647 396.906395 
z
" style="fill:#ffffff;stroke:#ffffff;stroke-linejoin:miter;"/>
    </g>
    <g clip-path="url(#pd183613f7b)">
     <!-- Terminal -->
     <g transform="translate(39.58022 396.906395)rotate(-270)scale(0.08 -0.08)">
      <use xlink:href="#DejaVuSans-84"/>
      <use x="60.818359" xlink:href="#DejaVuSans-101"/>
      <use x="122.341797" xlink:href="#DejaVuSans-114"/>
      <use x="163.439453" xlink:href="#DejaVuSans-109"/>
      <use x="260.851562" xlink:href="#DejaVuSans-105"/>
      <use x="288.634766" xlink:href="#DejaVuSans-110"/>
      <use x="352.013672" xlink:href="#DejaVuSans-97"/>
      <use x="413.292969" xlink:href="#DejaVuSans-108"/>
     </g>
    </g>
   </g>
   <g id="text_37">
    <g id="patch_38">
     <path clip-path="url(#pd183613f7b)" d="M 84.247327 396.906395 
L 84.247327 432.191395 
Q 84.247327 434.591395 86.647327 434.591395 
L 94.389827 434.591395 
Q 96.789827 434.591395 96.789827 432.191395 
L 96.789827 396.906395 
Q 96.789827 394.506395 94.389827 394.506395 
L 86.647327 394.506395 
Q 84.247327 394.506395 84.247327 396.906395 
z
" style="fill:#ffffff;stroke:#ffffff;stroke-linejoin:miter;"/>
    </g>
    <g clip-path="url(#pd183613f7b)">
     <!-- Terminal -->
     <g transform="translate(88.311077 396.906395)rotate(-270)scale(0.08 -0.08)">
      <use xlink:href="#DejaVuSans-84"/>
      <use x="60.818359" xlink:href="#DejaVuSans-101"/>
      <use x="122.341797" xlink:href="#DejaVuSans-114"/>
      <use x="163.439453" xlink:href="#DejaVuSans-109"/>
      <use x="260.851562" xlink:href="#DejaVuSans-105"/>
      <use x="288.634766" xlink:href="#DejaVuSans-110"/>
      <use x="352.013672" xlink:href="#DejaVuSans-97"/>
      <use x="413.292969" xlink:href="#DejaVuSans-108"/>
     </g>
    </g>
   </g>
   <g id="text_38">
    <g id="patch_39">
     <path clip-path="url(#pd183613f7b)" d="M 605.166654 293.827421 
L 610.119956 285.121672 
Q 611.306819 283.035682 609.220829 281.848818 
L 602.491339 278.019946 
Q 600.405349 276.833082 599.218485 278.919072 
L 594.265183 287.624821 
Q 593.078319 289.710811 595.164309 290.897675 
L 601.8938 294.726547 
Q 603.97979 295.913411 605.166654 293.827421 
z
" style="fill:#ffffff;stroke:#ffffff;stroke-linejoin:miter;"/>
    </g>
    <g clip-path="url(#pd183613f7b)">
     <!-- LR -->
     <g transform="translate(601.634595 291.817788)rotate(-60.361462)scale(0.08 -0.08)">
      <use xlink:href="#DejaVuSans-76"/>
      <use x="55.712891" xlink:href="#DejaVuSans-82"/>
     </g>
    </g>
   </g>
   <g id="text_39">
    <g id="patch_40">
     <path clip-path="url(#pd183613f7b)" d="M 691.779224 245.250823 
L 699.217757 251.832828 
Q 701.015137 253.423244 702.605554 251.625864 
L 707.736304 245.827441 
Q 709.32672 244.030061 707.52934 242.439644 
L 700.090807 235.857639 
Q 698.293427 234.267223 696.703011 236.064603 
L 691.572261 241.863026 
Q 689.981844 243.660407 691.779224 245.250823 
z
" style="fill:#ffffff;stroke:#ffffff;stroke-linejoin:miter;"/>
    </g>
    <g clip-path="url(#pd183613f7b)">
     <!-- LA -->
     <g transform="translate(694.472164 242.207447)rotate(-318.495908)scale(0.08 -0.08)">
      <use xlink:href="#DejaVuSans-76"/>
      <use x="55.744141" xlink:href="#DejaVuSans-65"/>
     </g>
    </g>
   </g>
   <g id="text_40">
    <g id="patch_41">
     <path clip-path="url(#pd183613f7b)" d="M 474.094178 396.906395 
L 474.094178 432.191395 
Q 474.094178 434.591395 476.494178 434.591395 
L 484.236678 434.591395 
Q 486.636678 434.591395 486.636678 432.191395 
L 486.636678 396.906395 
Q 486.636678 394.506395 484.236678 394.506395 
L 476.494178 394.506395 
Q 474.094178 394.506395 474.094178 396.906395 
z
" style="fill:#ffffff;stroke:#ffffff;stroke-linejoin:miter;"/>
    </g>
    <g clip-path="url(#pd183613f7b)">
     <!-- Terminal -->
     <g transform="translate(478.157928 396.906395)rotate(-270)scale(0.08 -0.08)">
      <use xlink:href="#DejaVuSans-84"/>
      <use x="60.818359" xlink:href="#DejaVuSans-101"/>
      <use x="122.341797" xlink:href="#DejaVuSans-114"/>
      <use x="163.439453" xlink:href="#DejaVuSans-109"/>
      <use x="260.851562" xlink:href="#DejaVuSans-105"/>
      <use x="288.634766" xlink:href="#DejaVuSans-110"/>
      <use x="352.013672" xlink:href="#DejaVuSans-97"/>
      <use x="413.292969" xlink:href="#DejaVuSans-108"/>
     </g>
    </g>
   </g>
   <g id="text_41">
    <g id="patch_42">
     <path clip-path="url(#pd183613f7b)" d="M 863.94103 396.906395 
L 863.94103 432.191395 
Q 863.94103 434.591395 866.34103 434.591395 
L 874.08353 434.591395 
Q 876.48353 434.591395 876.48353 432.191395 
L 876.48353 396.906395 
Q 876.48353 394.506395 874.08353 394.506395 
L 866.34103 394.506395 
Q 863.94103 394.506395 863.94103 396.906395 
z
" style="fill:#ffffff;stroke:#ffffff;stroke-linejoin:miter;"/>
    </g>
    <g clip-path="url(#pd183613f7b)">
     <!-- Terminal -->
     <g transform="translate(868.00478 396.906395)rotate(-270)scale(0.08 -0.08)">
      <use xlink:href="#DejaVuSans-84"/>
      <use x="60.818359" xlink:href="#DejaVuSans-101"/>
      <use x="122.341797" xlink:href="#DejaVuSans-114"/>
      <use x="163.439453" xlink:href="#DejaVuSans-109"/>
      <use x="260.851562" xlink:href="#DejaVuSans-105"/>
      <use x="288.634766" xlink:href="#DejaVuSans-110"/>
      <use x="352.013672" xlink:href="#DejaVuSans-97"/>
      <use x="413.292969" xlink:href="#DejaVuSans-108"/>
     </g>
    </g>
   </g>
   <g id="PathCollection_1">
    <defs>
     <path d="M 0 8.660254 
C 2.296726 8.660254 4.499694 7.747755 6.123724 6.123724 
C 7.747755 4.499694 8.660254 2.296726 8.660254 0 
C 8.660254 -2.296726 7.747755 -4.499694 6.123724 -6.123724 
C 4.499694 -7.747755 2.296726 -8.660254 0 -8.660254 
C -2.296726 -8.660254 -4.499694 -7.747755 -6.123724 -6.123724 
C -7.747755 -4.499694 -8.660254 -2.296726 -8.660254 0 
C -8.660254 2.296726 -7.747755 4.499694 -6.123724 6.123724 
C -4.499694 7.747755 -2.296726 8.660254 0 8.660254 
z
" id="C0_0_a0d5b24ed8"/>
    </defs>
    <g clip-path="url(#pd183613f7b)">
     <use style="fill:#ffffff;stroke:#ffffff;" x="41.78772" xlink:href="#C0_0_a0d5b24ed8" y="457.076908"/>
    </g>
    <g clip-path="url(#pd183613f7b)">
     <use style="fill:#ffffff;stroke:#ffffff;" x="90.518577" xlink:href="#C0_0_a0d5b24ed8" y="457.076908"/>
    </g>
    <g clip-path="url(#pd183613f7b)">
     <use style="fill:#ffffff;stroke:#ffffff;" x="139.249433" xlink:href="#C0_0_a0d5b24ed8" y="457.076908"/>
    </g>
    <g clip-path="url(#pd183613f7b)">
     <use style="fill:#ffffff;stroke:#ffffff;" x="187.98029" xlink:href="#C0_0_a0d5b24ed8" y="457.076908"/>
    </g>
    <g clip-path="url(#pd183613f7b)">
     <use style="fill:#ffffff;stroke:#ffffff;" x="236.711146" xlink:href="#C0_0_a0d5b24ed8" y="457.076908"/>
    </g>
    <g clip-path="url(#pd183613f7b)">
     <use style="fill:#ffffff;stroke:#ffffff;" x="285.442003" xlink:href="#C0_0_a0d5b24ed8" y="457.076908"/>
    </g>
    <g clip-path="url(#pd183613f7b)">
     <use style="fill:#ffffff;stroke:#ffffff;" x="334.172859" xlink:href="#C0_0_a0d5b24ed8" y="457.076908"/>
    </g>
    <g clip-path="url(#pd183613f7b)">
     <use style="fill:#ffffff;stroke:#ffffff;" x="382.903715" xlink:href="#C0_0_a0d5b24ed8" y="457.076908"/>
    </g>
    <g clip-path="url(#pd183613f7b)">
     <use style="fill:#ffffff;stroke:#ffffff;" x="431.634572" xlink:href="#C0_0_a0d5b24ed8" y="457.076908"/>
    </g>
    <g clip-path="url(#pd183613f7b)">
     <use style="fill:#ffffff;stroke:#ffffff;" x="480.365428" xlink:href="#C0_0_a0d5b24ed8" y="457.076908"/>
    </g>
    <g clip-path="url(#pd183613f7b)">
     <use style="fill:#ffffff;stroke:#ffffff;" x="529.096285" xlink:href="#C0_0_a0d5b24ed8" y="457.076908"/>
    </g>
    <g clip-path="url(#pd183613f7b)">
     <use style="fill:#ffffff;stroke:#ffffff;" x="577.827141" xlink:href="#C0_0_a0d5b24ed8" y="457.076908"/>
    </g>
    <g clip-path="url(#pd183613f7b)">
     <use style="fill:#ffffff;stroke:#ffffff;" x="626.557997" xlink:href="#C0_0_a0d5b24ed8" y="457.076908"/>
    </g>
    <g clip-path="url(#pd183613f7b)">
     <use style="fill:#ffffff;stroke:#ffffff;" x="675.288854" xlink:href="#C0_0_a0d5b24ed8" y="457.076908"/>
    </g>
    <g clip-path="url(#pd183613f7b)">
     <use style="fill:#ffffff;stroke:#ffffff;" x="724.01971" xlink:href="#C0_0_a0d5b24ed8" y="457.076908"/>
    </g>
    <g clip-path="url(#pd183613f7b)">
     <use style="fill:#ffffff;stroke:#ffffff;" x="772.750567" xlink:href="#C0_0_a0d5b24ed8" y="457.076908"/>
    </g>
    <g clip-path="url(#pd183613f7b)">
     <use style="fill:#ffffff;stroke:#ffffff;" x="821.481423" xlink:href="#C0_0_a0d5b24ed8" y="457.076908"/>
    </g>
    <g clip-path="url(#pd183613f7b)">
     <use style="fill:#ffffff;stroke:#ffffff;" x="870.21228" xlink:href="#C0_0_a0d5b24ed8" y="457.076908"/>
    </g>
    <g clip-path="url(#pd183613f7b)">
     <use style="fill:#ffffff;stroke:#ffffff;" x="485.779968" xlink:href="#C0_0_a0d5b24ed8" y="22.923092"/>
    </g>
    <g clip-path="url(#pd183613f7b)">
     <use style="fill:#ffffff;stroke:#ffffff;" x="160.907592" xlink:href="#C0_0_a0d5b24ed8" y="112.82576"/>
    </g>
    <g clip-path="url(#pd183613f7b)">
     <use style="fill:#ffffff;stroke:#ffffff;" x="553.461713" xlink:href="#C0_0_a0d5b24ed8" y="372.020883"/>
    </g>
    <g clip-path="url(#pd183613f7b)">
     <use style="fill:#ffffff;stroke:#ffffff;" x="748.385139" xlink:href="#C0_0_a0d5b24ed8" y="286.964858"/>
    </g>
    <g clip-path="url(#pd183613f7b)">
     <use style="fill:#ffffff;stroke:#ffffff;" x="626.557997" xlink:href="#C0_0_a0d5b24ed8" y="372.020883"/>
    </g>
    <g clip-path="url(#pd183613f7b)">
     <use style="fill:#ffffff;stroke:#ffffff;" x="675.288854" xlink:href="#C0_0_a0d5b24ed8" y="372.020883"/>
    </g>
    <g clip-path="url(#pd183613f7b)">
     <use style="fill:#ffffff;stroke:#ffffff;" x="724.01971" xlink:href="#C0_0_a0d5b24ed8" y="372.020883"/>
    </g>
    <g clip-path="url(#pd183613f7b)">
     <use style="fill:#ffffff;stroke:#ffffff;" x="772.750567" xlink:href="#C0_0_a0d5b24ed8" y="372.020883"/>
    </g>
    <g clip-path="url(#pd183613f7b)">
     <use style="fill:#ffffff;stroke:#ffffff;" x="821.481423" xlink:href="#C0_0_a0d5b24ed8" y="372.020883"/>
    </g>
    <g clip-path="url(#pd183613f7b)">
     <use style="fill:#ffffff;stroke:#ffffff;" x="66.153149" xlink:href="#C0_0_a0d5b24ed8" y="286.964858"/>
    </g>
    <g clip-path="url(#pd183613f7b)">
     <use style="fill:#ffffff;stroke:#ffffff;" x="139.249433" xlink:href="#C0_0_a0d5b24ed8" y="372.020883"/>
    </g>
    <g clip-path="url(#pd183613f7b)">
     <use style="fill:#ffffff;stroke:#ffffff;" x="277.320193" xlink:href="#C0_0_a0d5b24ed8" y="200.72561"/>
    </g>
    <g clip-path="url(#pd183613f7b)">
     <use style="fill:#ffffff;stroke:#ffffff;" x="187.98029" xlink:href="#C0_0_a0d5b24ed8" y="372.020883"/>
    </g>
    <g clip-path="url(#pd183613f7b)">
     <use style="fill:#ffffff;stroke:#ffffff;" x="261.076574" xlink:href="#C0_0_a0d5b24ed8" y="372.020883"/>
    </g>
    <g clip-path="url(#pd183613f7b)">
     <use style="fill:#ffffff;stroke:#ffffff;" x="382.903715" xlink:href="#C0_0_a0d5b24ed8" y="286.964858"/>
    </g>
    <g clip-path="url(#pd183613f7b)">
     <use style="fill:#ffffff;stroke:#ffffff;" x="334.172859" xlink:href="#C0_0_a0d5b24ed8" y="372.020883"/>
    </g>
    <g clip-path="url(#pd183613f7b)">
     <use style="fill:#ffffff;stroke:#ffffff;" x="382.903715" xlink:href="#C0_0_a0d5b24ed8" y="372.020883"/>
    </g>
    <g clip-path="url(#pd183613f7b)">
     <use style="fill:#ffffff;stroke:#ffffff;" x="431.634572" xlink:href="#C0_0_a0d5b24ed8" y="372.020883"/>
    </g>
    <g clip-path="url(#pd183613f7b)">
     <use style="fill:#ffffff;stroke:#ffffff;" x="41.78772" xlink:href="#C0_0_a0d5b24ed8" y="372.020883"/>
    </g>
    <g clip-path="url(#pd183613f7b)">
     <use style="fill:#ffffff;stroke:#ffffff;" x="90.518577" xlink:href="#C0_0_a0d5b24ed8" y="372.020883"/>
    </g>
    <g clip-path="url(#pd183613f7b)">
     <use style="fill:#808080;stroke:#808080;" x="650.923426" xlink:href="#C0_0_a0d5b24ed8" y="200.72561"/>
    </g>
    <g clip-path="url(#pd183613f7b)">
     <use style="fill:#ffffff;stroke:#ffffff;" x="480.365428" xlink:href="#C0_0_a0d5b24ed8" y="372.020883"/>
    </g>
    <g clip-path="url(#pd183613f7b)">
     <use style="fill:#ffffff;stroke:#ffffff;" x="870.21228" xlink:href="#C0_0_a0d5b24ed8" y="372.020883"/>
    </g>
   </g>
   <g id="text_42">
    <g clip-path="url(#pd183613f7b)">
     <!-- This -->
     <defs>
      <path d="M 54.890625 33.015625 
L 54.890625 0 
L 45.90625 0 
L 45.90625 32.71875 
Q 45.90625 40.484375 42.875 44.328125 
Q 39.84375 48.1875 33.796875 48.1875 
Q 26.515625 48.1875 22.3125 43.546875 
Q 18.109375 38.921875 18.109375 30.90625 
L 18.109375 0 
L 9.078125 0 
L 9.078125 75.984375 
L 18.109375 75.984375 
L 18.109375 46.1875 
Q 21.34375 51.125 25.703125 53.5625 
Q 30.078125 56 35.796875 56 
Q 45.21875 56 50.046875 50.171875 
Q 54.890625 44.34375 54.890625 33.015625 
z
" id="DejaVuSans-104"/>
      <path d="M 44.28125 53.078125 
L 44.28125 44.578125 
Q 40.484375 46.53125 36.375 47.5 
Q 32.28125 48.484375 27.875 48.484375 
Q 21.1875 48.484375 17.84375 46.4375 
Q 14.5 44.390625 14.5 40.28125 
Q 14.5 37.15625 16.890625 35.375 
Q 19.28125 33.59375 26.515625 31.984375 
L 29.59375 31.296875 
Q 39.15625 29.25 43.1875 25.515625 
Q 47.21875 21.78125 47.21875 15.09375 
Q 47.21875 7.46875 41.1875 3.015625 
Q 35.15625 -1.421875 24.609375 -1.421875 
Q 20.21875 -1.421875 15.453125 -0.5625 
Q 10.6875 0.296875 5.421875 2 
L 5.421875 11.28125 
Q 10.40625 8.6875 15.234375 7.390625 
Q 20.0625 6.109375 24.8125 6.109375 
Q 31.15625 6.109375 34.5625 8.28125 
Q 37.984375 10.453125 37.984375 14.40625 
Q 37.984375 18.0625 35.515625 20.015625 
Q 33.0625 21.96875 24.703125 23.78125 
L 21.578125 24.515625 
Q 13.234375 26.265625 9.515625 29.90625 
Q 5.8125 33.546875 5.8125 39.890625 
Q 5.8125 47.609375 11.28125 51.796875 
Q 16.75 56 26.8125 56 
Q 31.78125 56 36.171875 55.265625 
Q 40.578125 54.546875 44.28125 53.078125 
z
" id="DejaVuSans-115"/>
     </defs>
     <g transform="translate(31.571314 459.836283)scale(0.1 -0.1)">
      <use xlink:href="#DejaVuSans-84"/>
      <use x="61.083984" xlink:href="#DejaVuSans-104"/>
      <use x="124.462891" xlink:href="#DejaVuSans-105"/>
      <use x="152.246094" xlink:href="#DejaVuSans-115"/>
     </g>
    </g>
   </g>
   <g id="text_43">
    <g clip-path="url(#pd183613f7b)">
     <!-- accident -->
     <defs>
      <path d="M 48.78125 52.59375 
L 48.78125 44.1875 
Q 44.96875 46.296875 41.140625 47.34375 
Q 37.3125 48.390625 33.40625 48.390625 
Q 24.65625 48.390625 19.8125 42.84375 
Q 14.984375 37.3125 14.984375 27.296875 
Q 14.984375 17.28125 19.8125 11.734375 
Q 24.65625 6.203125 33.40625 6.203125 
Q 37.3125 6.203125 41.140625 7.25 
Q 44.96875 8.296875 48.78125 10.40625 
L 48.78125 2.09375 
Q 45.015625 0.34375 40.984375 -0.53125 
Q 36.96875 -1.421875 32.421875 -1.421875 
Q 20.0625 -1.421875 12.78125 6.34375 
Q 5.515625 14.109375 5.515625 27.296875 
Q 5.515625 40.671875 12.859375 48.328125 
Q 20.21875 56 33.015625 56 
Q 37.15625 56 41.109375 55.140625 
Q 45.0625 54.296875 48.78125 52.59375 
z
" id="DejaVuSans-99"/>
      <path d="M 45.40625 46.390625 
L 45.40625 75.984375 
L 54.390625 75.984375 
L 54.390625 0 
L 45.40625 0 
L 45.40625 8.203125 
Q 42.578125 3.328125 38.25 0.953125 
Q 33.9375 -1.421875 27.875 -1.421875 
Q 17.96875 -1.421875 11.734375 6.484375 
Q 5.515625 14.40625 5.515625 27.296875 
Q 5.515625 40.1875 11.734375 48.09375 
Q 17.96875 56 27.875 56 
Q 33.9375 56 38.25 53.625 
Q 42.578125 51.265625 45.40625 46.390625 
z
M 14.796875 27.296875 
Q 14.796875 17.390625 18.875 11.75 
Q 22.953125 6.109375 30.078125 6.109375 
Q 37.203125 6.109375 41.296875 11.75 
Q 45.40625 17.390625 45.40625 27.296875 
Q 45.40625 37.203125 41.296875 42.84375 
Q 37.203125 48.484375 30.078125 48.484375 
Q 22.953125 48.484375 18.875 42.84375 
Q 14.796875 37.203125 14.796875 27.296875 
z
" id="DejaVuSans-100"/>
      <path d="M 18.3125 70.21875 
L 18.3125 54.6875 
L 36.8125 54.6875 
L 36.8125 47.703125 
L 18.3125 47.703125 
L 18.3125 18.015625 
Q 18.3125 11.328125 20.140625 9.421875 
Q 21.96875 7.515625 27.59375 7.515625 
L 36.8125 7.515625 
L 36.8125 0 
L 27.59375 0 
Q 17.1875 0 13.234375 3.875 
Q 9.28125 7.765625 9.28125 18.015625 
L 9.28125 47.703125 
L 2.6875 47.703125 
L 2.6875 54.6875 
L 9.28125 54.6875 
L 9.28125 70.21875 
z
" id="DejaVuSans-116"/>
     </defs>
     <g transform="translate(69.187327 459.836283)scale(0.1 -0.1)">
      <use xlink:href="#DejaVuSans-97"/>
      <use x="61.279297" xlink:href="#DejaVuSans-99"/>
      <use x="116.259766" xlink:href="#DejaVuSans-99"/>
      <use x="171.240234" xlink:href="#DejaVuSans-105"/>
      <use x="199.023438" xlink:href="#DejaVuSans-100"/>
      <use x="262.5" xlink:href="#DejaVuSans-101"/>
      <use x="324.023438" xlink:href="#DejaVuSans-110"/>
      <use x="387.402344" xlink:href="#DejaVuSans-116"/>
     </g>
    </g>
   </g>
   <g id="text_44">
    <g clip-path="url(#pd183613f7b)">
     <!-- happened -->
     <defs>
      <path d="M 18.109375 8.203125 
L 18.109375 -20.796875 
L 9.078125 -20.796875 
L 9.078125 54.6875 
L 18.109375 54.6875 
L 18.109375 46.390625 
Q 20.953125 51.265625 25.265625 53.625 
Q 29.59375 56 35.59375 56 
Q 45.5625 56 51.78125 48.09375 
Q 58.015625 40.1875 58.015625 27.296875 
Q 58.015625 14.40625 51.78125 6.484375 
Q 45.5625 -1.421875 35.59375 -1.421875 
Q 29.59375 -1.421875 25.265625 0.953125 
Q 20.953125 3.328125 18.109375 8.203125 
z
M 48.6875 27.296875 
Q 48.6875 37.203125 44.609375 42.84375 
Q 40.53125 48.484375 33.40625 48.484375 
Q 26.265625 48.484375 22.1875 42.84375 
Q 18.109375 37.203125 18.109375 27.296875 
Q 18.109375 17.390625 22.1875 11.75 
Q 26.265625 6.109375 33.40625 6.109375 
Q 40.53125 6.109375 44.609375 11.75 
Q 48.6875 17.390625 48.6875 27.296875 
z
" id="DejaVuSans-112"/>
     </defs>
     <g transform="translate(114.172089 459.836283)scale(0.1 -0.1)">
      <use xlink:href="#DejaVuSans-104"/>
      <use x="63.378906" xlink:href="#DejaVuSans-97"/>
      <use x="124.658203" xlink:href="#DejaVuSans-112"/>
      <use x="188.134766" xlink:href="#DejaVuSans-112"/>
      <use x="251.611328" xlink:href="#DejaVuSans-101"/>
      <use x="313.134766" xlink:href="#DejaVuSans-110"/>
      <use x="376.513672" xlink:href="#DejaVuSans-101"/>
      <use x="438.037109" xlink:href="#DejaVuSans-100"/>
     </g>
    </g>
   </g>
   <g id="text_45">
    <g clip-path="url(#pd183613f7b)">
     <!-- around -->
     <defs>
      <path d="M 30.609375 48.390625 
Q 23.390625 48.390625 19.1875 42.75 
Q 14.984375 37.109375 14.984375 27.296875 
Q 14.984375 17.484375 19.15625 11.84375 
Q 23.34375 6.203125 30.609375 6.203125 
Q 37.796875 6.203125 41.984375 11.859375 
Q 46.1875 17.53125 46.1875 27.296875 
Q 46.1875 37.015625 41.984375 42.703125 
Q 37.796875 48.390625 30.609375 48.390625 
z
M 30.609375 56 
Q 42.328125 56 49.015625 48.375 
Q 55.71875 40.765625 55.71875 27.296875 
Q 55.71875 13.875 49.015625 6.21875 
Q 42.328125 -1.421875 30.609375 -1.421875 
Q 18.84375 -1.421875 12.171875 6.21875 
Q 5.515625 13.875 5.515625 27.296875 
Q 5.515625 40.765625 12.171875 48.375 
Q 18.84375 56 30.609375 56 
z
" id="DejaVuSans-111"/>
      <path d="M 8.5 21.578125 
L 8.5 54.6875 
L 17.484375 54.6875 
L 17.484375 21.921875 
Q 17.484375 14.15625 20.5 10.265625 
Q 23.53125 6.390625 29.59375 6.390625 
Q 36.859375 6.390625 41.078125 11.03125 
Q 45.3125 15.671875 45.3125 23.6875 
L 45.3125 54.6875 
L 54.296875 54.6875 
L 54.296875 0 
L 45.3125 0 
L 45.3125 8.40625 
Q 42.046875 3.421875 37.71875 1 
Q 33.40625 -1.421875 27.6875 -1.421875 
Q 18.265625 -1.421875 13.375 4.4375 
Q 8.5 10.296875 8.5 21.578125 
z
M 31.109375 56 
z
" id="DejaVuSans-117"/>
     </defs>
     <g transform="translate(170.291227 459.836283)scale(0.1 -0.1)">
      <use xlink:href="#DejaVuSans-97"/>
      <use x="61.279297" xlink:href="#DejaVuSans-114"/>
      <use x="102.361328" xlink:href="#DejaVuSans-111"/>
      <use x="163.542969" xlink:href="#DejaVuSans-117"/>
      <use x="226.921875" xlink:href="#DejaVuSans-110"/>
      <use x="290.300781" xlink:href="#DejaVuSans-100"/>
     </g>
    </g>
   </g>
   <g id="text_46">
    <g clip-path="url(#pd183613f7b)">
     <!-- five -->
     <defs>
      <path d="M 37.109375 75.984375 
L 37.109375 68.5 
L 28.515625 68.5 
Q 23.6875 68.5 21.796875 66.546875 
Q 19.921875 64.59375 19.921875 59.515625 
L 19.921875 54.6875 
L 34.71875 54.6875 
L 34.71875 47.703125 
L 19.921875 47.703125 
L 19.921875 0 
L 10.890625 0 
L 10.890625 47.703125 
L 2.296875 47.703125 
L 2.296875 54.6875 
L 10.890625 54.6875 
L 10.890625 58.5 
Q 10.890625 67.625 15.140625 71.796875 
Q 19.390625 75.984375 28.609375 75.984375 
z
" id="DejaVuSans-102"/>
      <path d="M 2.984375 54.6875 
L 12.5 54.6875 
L 29.59375 8.796875 
L 46.6875 54.6875 
L 56.203125 54.6875 
L 35.6875 0 
L 23.484375 0 
z
" id="DejaVuSans-118"/>
     </defs>
     <g transform="translate(227.52599 459.836283)scale(0.1 -0.1)">
      <use xlink:href="#DejaVuSans-102"/>
      <use x="35.205078" xlink:href="#DejaVuSans-105"/>
      <use x="62.988281" xlink:href="#DejaVuSans-118"/>
      <use x="122.167969" xlink:href="#DejaVuSans-101"/>
     </g>
    </g>
   </g>
   <g id="text_47">
    <g clip-path="url(#pd183613f7b)">
     <!-- o'clock -->
     <defs>
      <path d="M 17.921875 72.90625 
L 17.921875 45.796875 
L 9.625 45.796875 
L 9.625 72.90625 
z
" id="DejaVuSans-39"/>
      <path d="M 9.078125 75.984375 
L 18.109375 75.984375 
L 18.109375 31.109375 
L 44.921875 54.6875 
L 56.390625 54.6875 
L 27.390625 29.109375 
L 57.625 0 
L 45.90625 0 
L 18.109375 26.703125 
L 18.109375 0 
L 9.078125 0 
z
" id="DejaVuSans-107"/>
     </defs>
     <g transform="translate(268.166221 459.836283)scale(0.1 -0.1)">
      <use xlink:href="#DejaVuSans-111"/>
      <use x="61.181641" xlink:href="#DejaVuSans-39"/>
      <use x="88.671875" xlink:href="#DejaVuSans-99"/>
      <use x="143.652344" xlink:href="#DejaVuSans-108"/>
      <use x="171.435547" xlink:href="#DejaVuSans-111"/>
      <use x="232.617188" xlink:href="#DejaVuSans-99"/>
      <use x="287.597656" xlink:href="#DejaVuSans-107"/>
     </g>
    </g>
   </g>
   <g id="text_48">
    <g clip-path="url(#pd183613f7b)">
     <!-- in -->
     <g transform="translate(329.615046 459.836283)scale(0.1 -0.1)">
      <use xlink:href="#DejaVuSans-105"/>
      <use x="27.783203" xlink:href="#DejaVuSans-110"/>
     </g>
    </g>
   </g>
   <g id="text_49">
    <g clip-path="url(#pd183613f7b)">
     <!-- the -->
     <g transform="translate(374.698247 459.836283)scale(0.1 -0.1)">
      <use xlink:href="#DejaVuSans-116"/>
      <use x="39.208984" xlink:href="#DejaVuSans-104"/>
      <use x="102.587891" xlink:href="#DejaVuSans-101"/>
     </g>
    </g>
   </g>
   <g id="text_50">
    <g clip-path="url(#pd183613f7b)">
     <!-- morning -->
     <defs>
      <path d="M 45.40625 27.984375 
Q 45.40625 37.75 41.375 43.109375 
Q 37.359375 48.484375 30.078125 48.484375 
Q 22.859375 48.484375 18.828125 43.109375 
Q 14.796875 37.75 14.796875 27.984375 
Q 14.796875 18.265625 18.828125 12.890625 
Q 22.859375 7.515625 30.078125 7.515625 
Q 37.359375 7.515625 41.375 12.890625 
Q 45.40625 18.265625 45.40625 27.984375 
z
M 54.390625 6.78125 
Q 54.390625 -7.171875 48.1875 -13.984375 
Q 42 -20.796875 29.203125 -20.796875 
Q 24.46875 -20.796875 20.265625 -20.09375 
Q 16.0625 -19.390625 12.109375 -17.921875 
L 12.109375 -9.1875 
Q 16.0625 -11.328125 19.921875 -12.34375 
Q 23.78125 -13.375 27.78125 -13.375 
Q 36.625 -13.375 41.015625 -8.765625 
Q 45.40625 -4.15625 45.40625 5.171875 
L 45.40625 9.625 
Q 42.625 4.78125 38.28125 2.390625 
Q 33.9375 0 27.875 0 
Q 17.828125 0 11.671875 7.65625 
Q 5.515625 15.328125 5.515625 27.984375 
Q 5.515625 40.671875 11.671875 48.328125 
Q 17.828125 56 27.875 56 
Q 33.9375 56 38.28125 53.609375 
Q 42.625 51.21875 45.40625 46.390625 
L 45.40625 54.6875 
L 54.390625 54.6875 
z
" id="DejaVuSans-103"/>
     </defs>
     <g transform="translate(410.749416 459.836283)scale(0.1 -0.1)">
      <use xlink:href="#DejaVuSans-109"/>
      <use x="97.412109" xlink:href="#DejaVuSans-111"/>
      <use x="158.59375" xlink:href="#DejaVuSans-114"/>
      <use x="199.691406" xlink:href="#DejaVuSans-110"/>
      <use x="263.070312" xlink:href="#DejaVuSans-105"/>
      <use x="290.853516" xlink:href="#DejaVuSans-110"/>
      <use x="354.232422" xlink:href="#DejaVuSans-103"/>
     </g>
    </g>
   </g>
   <g id="text_51">
    <g clip-path="url(#pd183613f7b)">
     <!-- , -->
     <defs>
      <path d="M 11.71875 12.40625 
L 22.015625 12.40625 
L 22.015625 4 
L 14.015625 -11.625 
L 7.71875 -11.625 
L 11.71875 4 
z
" id="DejaVuSans-44"/>
     </defs>
     <g transform="translate(478.776366 459.836283)scale(0.1 -0.1)">
      <use xlink:href="#DejaVuSans-44"/>
     </g>
    </g>
   </g>
   <g id="text_52">
    <g clip-path="url(#pd183613f7b)">
     <!-- just -->
     <defs>
      <path d="M 9.421875 54.6875 
L 18.40625 54.6875 
L 18.40625 -0.984375 
Q 18.40625 -11.421875 14.421875 -16.109375 
Q 10.453125 -20.796875 1.609375 -20.796875 
L -1.8125 -20.796875 
L -1.8125 -13.1875 
L 0.59375 -13.1875 
Q 5.71875 -13.1875 7.5625 -10.8125 
Q 9.421875 -8.453125 9.421875 -0.984375 
z
M 9.421875 75.984375 
L 18.40625 75.984375 
L 18.40625 64.59375 
L 9.421875 64.59375 
z
" id="DejaVuSans-106"/>
     </defs>
     <g transform="translate(519.973628 459.836283)scale(0.1 -0.1)">
      <use xlink:href="#DejaVuSans-106"/>
      <use x="27.783203" xlink:href="#DejaVuSans-117"/>
      <use x="91.162109" xlink:href="#DejaVuSans-115"/>
      <use x="143.261719" xlink:href="#DejaVuSans-116"/>
     </g>
    </g>
   </g>
   <g id="text_53">
    <g clip-path="url(#pd183613f7b)">
     <!-- as -->
     <g transform="translate(572.158391 459.836283)scale(0.1 -0.1)">
      <use xlink:href="#DejaVuSans-97"/>
      <use x="61.279297" xlink:href="#DejaVuSans-115"/>
     </g>
    </g>
   </g>
   <g id="text_54">
    <g clip-path="url(#pd183613f7b)">
     <!-- day -->
     <defs>
      <path d="M 32.171875 -5.078125 
Q 28.375 -14.84375 24.75 -17.8125 
Q 21.140625 -20.796875 15.09375 -20.796875 
L 7.90625 -20.796875 
L 7.90625 -13.28125 
L 13.1875 -13.28125 
Q 16.890625 -13.28125 18.9375 -11.515625 
Q 21 -9.765625 23.484375 -3.21875 
L 25.09375 0.875 
L 2.984375 54.6875 
L 12.5 54.6875 
L 29.59375 11.921875 
L 46.6875 54.6875 
L 56.203125 54.6875 
z
" id="DejaVuSans-121"/>
     </defs>
     <g transform="translate(617.360341 459.836283)scale(0.1 -0.1)">
      <use xlink:href="#DejaVuSans-100"/>
      <use x="63.476562" xlink:href="#DejaVuSans-97"/>
      <use x="124.755859" xlink:href="#DejaVuSans-121"/>
     </g>
    </g>
   </g>
   <g id="text_55">
    <g clip-path="url(#pd183613f7b)">
     <!-- was -->
     <defs>
      <path d="M 4.203125 54.6875 
L 13.1875 54.6875 
L 24.421875 12.015625 
L 35.59375 54.6875 
L 46.1875 54.6875 
L 57.421875 12.015625 
L 68.609375 54.6875 
L 77.59375 54.6875 
L 63.28125 0 
L 52.6875 0 
L 40.921875 44.828125 
L 29.109375 0 
L 18.5 0 
z
" id="DejaVuSans-119"/>
     </defs>
     <g transform="translate(665.531041 459.836283)scale(0.1 -0.1)">
      <use xlink:href="#DejaVuSans-119"/>
      <use x="81.787109" xlink:href="#DejaVuSans-97"/>
      <use x="143.066406" xlink:href="#DejaVuSans-115"/>
     </g>
    </g>
   </g>
   <g id="text_56">
    <g clip-path="url(#pd183613f7b)">
     <!-- beginning -->
     <defs>
      <path d="M 48.6875 27.296875 
Q 48.6875 37.203125 44.609375 42.84375 
Q 40.53125 48.484375 33.40625 48.484375 
Q 26.265625 48.484375 22.1875 42.84375 
Q 18.109375 37.203125 18.109375 27.296875 
Q 18.109375 17.390625 22.1875 11.75 
Q 26.265625 6.109375 33.40625 6.109375 
Q 40.53125 6.109375 44.609375 11.75 
Q 48.6875 17.390625 48.6875 27.296875 
z
M 18.109375 46.390625 
Q 20.953125 51.265625 25.265625 53.625 
Q 29.59375 56 35.59375 56 
Q 45.5625 56 51.78125 48.09375 
Q 58.015625 40.1875 58.015625 27.296875 
Q 58.015625 14.40625 51.78125 6.484375 
Q 45.5625 -1.421875 35.59375 -1.421875 
Q 29.59375 -1.421875 25.265625 0.953125 
Q 20.953125 3.328125 18.109375 8.203125 
L 18.109375 0 
L 9.078125 0 
L 9.078125 75.984375 
L 18.109375 75.984375 
z
" id="DejaVuSans-98"/>
     </defs>
     <g transform="translate(699.136117 459.836283)scale(0.1 -0.1)">
      <use xlink:href="#DejaVuSans-98"/>
      <use x="63.476562" xlink:href="#DejaVuSans-101"/>
      <use x="125" xlink:href="#DejaVuSans-103"/>
      <use x="188.476562" xlink:href="#DejaVuSans-105"/>
      <use x="216.259766" xlink:href="#DejaVuSans-110"/>
      <use x="279.638672" xlink:href="#DejaVuSans-110"/>
      <use x="343.017578" xlink:href="#DejaVuSans-105"/>
      <use x="370.800781" xlink:href="#DejaVuSans-110"/>
      <use x="434.179688" xlink:href="#DejaVuSans-103"/>
     </g>
    </g>
   </g>
   <g id="text_57">
    <g clip-path="url(#pd183613f7b)">
     <!-- to -->
     <g transform="translate(767.731036 459.836283)scale(0.1 -0.1)">
      <use xlink:href="#DejaVuSans-116"/>
      <use x="39.208984" xlink:href="#DejaVuSans-111"/>
     </g>
    </g>
   </g>
   <g id="text_58">
    <g clip-path="url(#pd183613f7b)">
     <!-- break -->
     <g transform="translate(807.217361 459.836283)scale(0.1 -0.1)">
      <use xlink:href="#DejaVuSans-98"/>
      <use x="63.476562" xlink:href="#DejaVuSans-114"/>
      <use x="104.558594" xlink:href="#DejaVuSans-101"/>
      <use x="166.082031" xlink:href="#DejaVuSans-97"/>
      <use x="227.361328" xlink:href="#DejaVuSans-107"/>
     </g>
    </g>
   </g>
   <g id="text_59">
    <g clip-path="url(#pd183613f7b)">
     <!-- . -->
     <defs>
      <path d="M 10.6875 12.40625 
L 21 12.40625 
L 21 0 
L 10.6875 0 
z
" id="DejaVuSans-46"/>
     </defs>
     <g transform="translate(868.623217 459.836283)scale(0.1 -0.1)">
      <use xlink:href="#DejaVuSans-46"/>
     </g>
    </g>
   </g>
   <g id="text_60">
    <g clip-path="url(#pd183613f7b)">
     <!-- 1.1 -->
     <defs>
      <path d="M 12.40625 8.296875 
L 28.515625 8.296875 
L 28.515625 63.921875 
L 10.984375 60.40625 
L 10.984375 69.390625 
L 28.421875 72.90625 
L 38.28125 72.90625 
L 38.28125 8.296875 
L 54.390625 8.296875 
L 54.390625 0 
L 12.40625 0 
z
" id="DejaVuSans-49"/>
     </defs>
     <g transform="translate(477.828405 25.682467)scale(0.1 -0.1)">
      <use xlink:href="#DejaVuSans-49"/>
      <use x="63.623047" xlink:href="#DejaVuSans-46"/>
      <use x="95.410156" xlink:href="#DejaVuSans-49"/>
     </g>
    </g>
   </g>
   <g id="text_61">
    <g clip-path="url(#pd183613f7b)">
     <!-- 1.2 -->
     <defs>
      <path d="M 19.1875 8.296875 
L 53.609375 8.296875 
L 53.609375 0 
L 7.328125 0 
L 7.328125 8.296875 
Q 12.9375 14.109375 22.625 23.890625 
Q 32.328125 33.6875 34.8125 36.53125 
Q 39.546875 41.84375 41.421875 45.53125 
Q 43.3125 49.21875 43.3125 52.78125 
Q 43.3125 58.59375 39.234375 62.25 
Q 35.15625 65.921875 28.609375 65.921875 
Q 23.96875 65.921875 18.8125 64.3125 
Q 13.671875 62.703125 7.8125 59.421875 
L 7.8125 69.390625 
Q 13.765625 71.78125 18.9375 73 
Q 24.125 74.21875 28.421875 74.21875 
Q 39.75 74.21875 46.484375 68.546875 
Q 53.21875 62.890625 53.21875 53.421875 
Q 53.21875 48.921875 51.53125 44.890625 
Q 49.859375 40.875 45.40625 35.40625 
Q 44.1875 33.984375 37.640625 27.21875 
Q 31.109375 20.453125 19.1875 8.296875 
z
" id="DejaVuSans-50"/>
     </defs>
     <g transform="translate(152.956029 115.585135)scale(0.1 -0.1)">
      <use xlink:href="#DejaVuSans-49"/>
      <use x="63.623047" xlink:href="#DejaVuSans-46"/>
      <use x="95.410156" xlink:href="#DejaVuSans-50"/>
     </g>
    </g>
   </g>
   <g id="text_62">
    <g clip-path="url(#pd183613f7b)">
     <!-- 1.3 -->
     <defs>
      <path d="M 40.578125 39.3125 
Q 47.65625 37.796875 51.625 33 
Q 55.609375 28.21875 55.609375 21.1875 
Q 55.609375 10.40625 48.1875 4.484375 
Q 40.765625 -1.421875 27.09375 -1.421875 
Q 22.515625 -1.421875 17.65625 -0.515625 
Q 12.796875 0.390625 7.625 2.203125 
L 7.625 11.71875 
Q 11.71875 9.328125 16.59375 8.109375 
Q 21.484375 6.890625 26.8125 6.890625 
Q 36.078125 6.890625 40.9375 10.546875 
Q 45.796875 14.203125 45.796875 21.1875 
Q 45.796875 27.640625 41.28125 31.265625 
Q 36.765625 34.90625 28.71875 34.90625 
L 20.21875 34.90625 
L 20.21875 43.015625 
L 29.109375 43.015625 
Q 36.375 43.015625 40.234375 45.921875 
Q 44.09375 48.828125 44.09375 54.296875 
Q 44.09375 59.90625 40.109375 62.90625 
Q 36.140625 65.921875 28.71875 65.921875 
Q 24.65625 65.921875 20.015625 65.03125 
Q 15.375 64.15625 9.8125 62.3125 
L 9.8125 71.09375 
Q 15.4375 72.65625 20.34375 73.4375 
Q 25.25 74.21875 29.59375 74.21875 
Q 40.828125 74.21875 47.359375 69.109375 
Q 53.90625 64.015625 53.90625 55.328125 
Q 53.90625 49.265625 50.4375 45.09375 
Q 46.96875 40.921875 40.578125 39.3125 
z
" id="DejaVuSans-51"/>
     </defs>
     <g transform="translate(545.51015 374.780258)scale(0.1 -0.1)">
      <use xlink:href="#DejaVuSans-49"/>
      <use x="63.623047" xlink:href="#DejaVuSans-46"/>
      <use x="95.410156" xlink:href="#DejaVuSans-51"/>
     </g>
    </g>
   </g>
   <g id="text_63">
    <g clip-path="url(#pd183613f7b)">
     <!-- 1.4 -->
     <defs>
      <path d="M 37.796875 64.3125 
L 12.890625 25.390625 
L 37.796875 25.390625 
z
M 35.203125 72.90625 
L 47.609375 72.90625 
L 47.609375 25.390625 
L 58.015625 25.390625 
L 58.015625 17.1875 
L 47.609375 17.1875 
L 47.609375 0 
L 37.796875 0 
L 37.796875 17.1875 
L 4.890625 17.1875 
L 4.890625 26.703125 
z
" id="DejaVuSans-52"/>
     </defs>
     <g transform="translate(740.433576 289.724233)scale(0.1 -0.1)">
      <use xlink:href="#DejaVuSans-49"/>
      <use x="63.623047" xlink:href="#DejaVuSans-46"/>
      <use x="95.410156" xlink:href="#DejaVuSans-52"/>
     </g>
    </g>
   </g>
   <g id="text_64">
    <g clip-path="url(#pd183613f7b)">
     <!-- 1.7 -->
     <defs>
      <path d="M 8.203125 72.90625 
L 55.078125 72.90625 
L 55.078125 68.703125 
L 28.609375 0 
L 18.3125 0 
L 43.21875 64.59375 
L 8.203125 64.59375 
z
" id="DejaVuSans-55"/>
     </defs>
     <g transform="translate(618.606435 374.780258)scale(0.1 -0.1)">
      <use xlink:href="#DejaVuSans-49"/>
      <use x="63.623047" xlink:href="#DejaVuSans-46"/>
      <use x="95.410156" xlink:href="#DejaVuSans-55"/>
     </g>
    </g>
   </g>
   <g id="text_65">
    <g clip-path="url(#pd183613f7b)">
     <!-- 1.8 -->
     <defs>
      <path d="M 31.78125 34.625 
Q 24.75 34.625 20.71875 30.859375 
Q 16.703125 27.09375 16.703125 20.515625 
Q 16.703125 13.921875 20.71875 10.15625 
Q 24.75 6.390625 31.78125 6.390625 
Q 38.8125 6.390625 42.859375 10.171875 
Q 46.921875 13.96875 46.921875 20.515625 
Q 46.921875 27.09375 42.890625 30.859375 
Q 38.875 34.625 31.78125 34.625 
z
M 21.921875 38.8125 
Q 15.578125 40.375 12.03125 44.71875 
Q 8.5 49.078125 8.5 55.328125 
Q 8.5 64.0625 14.71875 69.140625 
Q 20.953125 74.21875 31.78125 74.21875 
Q 42.671875 74.21875 48.875 69.140625 
Q 55.078125 64.0625 55.078125 55.328125 
Q 55.078125 49.078125 51.53125 44.71875 
Q 48 40.375 41.703125 38.8125 
Q 48.828125 37.15625 52.796875 32.3125 
Q 56.78125 27.484375 56.78125 20.515625 
Q 56.78125 9.90625 50.3125 4.234375 
Q 43.84375 -1.421875 31.78125 -1.421875 
Q 19.734375 -1.421875 13.25 4.234375 
Q 6.78125 9.90625 6.78125 20.515625 
Q 6.78125 27.484375 10.78125 32.3125 
Q 14.796875 37.15625 21.921875 38.8125 
z
M 18.3125 54.390625 
Q 18.3125 48.734375 21.84375 45.5625 
Q 25.390625 42.390625 31.78125 42.390625 
Q 38.140625 42.390625 41.71875 45.5625 
Q 45.3125 48.734375 45.3125 54.390625 
Q 45.3125 60.0625 41.71875 63.234375 
Q 38.140625 66.40625 31.78125 66.40625 
Q 25.390625 66.40625 21.84375 63.234375 
Q 18.3125 60.0625 18.3125 54.390625 
z
" id="DejaVuSans-56"/>
     </defs>
     <g transform="translate(667.337291 374.780258)scale(0.1 -0.1)">
      <use xlink:href="#DejaVuSans-49"/>
      <use x="63.623047" xlink:href="#DejaVuSans-46"/>
      <use x="95.410156" xlink:href="#DejaVuSans-56"/>
     </g>
    </g>
   </g>
   <g id="text_66">
    <g clip-path="url(#pd183613f7b)">
     <!-- 1.9 -->
     <defs>
      <path d="M 10.984375 1.515625 
L 10.984375 10.5 
Q 14.703125 8.734375 18.5 7.8125 
Q 22.3125 6.890625 25.984375 6.890625 
Q 35.75 6.890625 40.890625 13.453125 
Q 46.046875 20.015625 46.78125 33.40625 
Q 43.953125 29.203125 39.59375 26.953125 
Q 35.25 24.703125 29.984375 24.703125 
Q 19.046875 24.703125 12.671875 31.3125 
Q 6.296875 37.9375 6.296875 49.421875 
Q 6.296875 60.640625 12.9375 67.421875 
Q 19.578125 74.21875 30.609375 74.21875 
Q 43.265625 74.21875 49.921875 64.515625 
Q 56.59375 54.828125 56.59375 36.375 
Q 56.59375 19.140625 48.40625 8.859375 
Q 40.234375 -1.421875 26.421875 -1.421875 
Q 22.703125 -1.421875 18.890625 -0.6875 
Q 15.09375 0.046875 10.984375 1.515625 
z
M 30.609375 32.421875 
Q 37.25 32.421875 41.125 36.953125 
Q 45.015625 41.5 45.015625 49.421875 
Q 45.015625 57.28125 41.125 61.84375 
Q 37.25 66.40625 30.609375 66.40625 
Q 23.96875 66.40625 20.09375 61.84375 
Q 16.21875 57.28125 16.21875 49.421875 
Q 16.21875 41.5 20.09375 36.953125 
Q 23.96875 32.421875 30.609375 32.421875 
z
" id="DejaVuSans-57"/>
     </defs>
     <g transform="translate(716.068148 374.780258)scale(0.1 -0.1)">
      <use xlink:href="#DejaVuSans-49"/>
      <use x="63.623047" xlink:href="#DejaVuSans-46"/>
      <use x="95.410156" xlink:href="#DejaVuSans-57"/>
     </g>
    </g>
   </g>
   <g id="text_67">
    <g clip-path="url(#pd183613f7b)">
     <!-- 1.10 -->
     <defs>
      <path d="M 31.78125 66.40625 
Q 24.171875 66.40625 20.328125 58.90625 
Q 16.5 51.421875 16.5 36.375 
Q 16.5 21.390625 20.328125 13.890625 
Q 24.171875 6.390625 31.78125 6.390625 
Q 39.453125 6.390625 43.28125 13.890625 
Q 47.125 21.390625 47.125 36.375 
Q 47.125 51.421875 43.28125 58.90625 
Q 39.453125 66.40625 31.78125 66.40625 
z
M 31.78125 74.21875 
Q 44.046875 74.21875 50.515625 64.515625 
Q 56.984375 54.828125 56.984375 36.375 
Q 56.984375 17.96875 50.515625 8.265625 
Q 44.046875 -1.421875 31.78125 -1.421875 
Q 19.53125 -1.421875 13.0625 8.265625 
Q 6.59375 17.96875 6.59375 36.375 
Q 6.59375 54.828125 13.0625 64.515625 
Q 19.53125 74.21875 31.78125 74.21875 
z
" id="DejaVuSans-48"/>
     </defs>
     <g transform="translate(761.617754 374.780258)scale(0.1 -0.1)">
      <use xlink:href="#DejaVuSans-49"/>
      <use x="63.623047" xlink:href="#DejaVuSans-46"/>
      <use x="95.410156" xlink:href="#DejaVuSans-49"/>
      <use x="159.033203" xlink:href="#DejaVuSans-48"/>
     </g>
    </g>
   </g>
   <g id="text_68">
    <g clip-path="url(#pd183613f7b)">
     <!-- 1.11 -->
     <g transform="translate(810.348611 374.780258)scale(0.1 -0.1)">
      <use xlink:href="#DejaVuSans-49"/>
      <use x="63.623047" xlink:href="#DejaVuSans-46"/>
      <use x="95.410156" xlink:href="#DejaVuSans-49"/>
      <use x="159.033203" xlink:href="#DejaVuSans-49"/>
     </g>
    </g>
   </g>
   <g id="text_69">
    <g clip-path="url(#pd183613f7b)">
     <!-- 1.12 -->
     <g transform="translate(55.020336 289.724233)scale(0.1 -0.1)">
      <use xlink:href="#DejaVuSans-49"/>
      <use x="63.623047" xlink:href="#DejaVuSans-46"/>
      <use x="95.410156" xlink:href="#DejaVuSans-49"/>
      <use x="159.033203" xlink:href="#DejaVuSans-50"/>
     </g>
    </g>
   </g>
   <g id="text_70">
    <g clip-path="url(#pd183613f7b)">
     <!-- 1.13 -->
     <g transform="translate(128.116621 374.780258)scale(0.1 -0.1)">
      <use xlink:href="#DejaVuSans-49"/>
      <use x="63.623047" xlink:href="#DejaVuSans-46"/>
      <use x="95.410156" xlink:href="#DejaVuSans-49"/>
      <use x="159.033203" xlink:href="#DejaVuSans-51"/>
     </g>
    </g>
   </g>
   <g id="text_71">
    <g clip-path="url(#pd183613f7b)">
     <!-- 1.14 -->
     <g transform="translate(266.187381 203.484985)scale(0.1 -0.1)">
      <use xlink:href="#DejaVuSans-49"/>
      <use x="63.623047" xlink:href="#DejaVuSans-46"/>
      <use x="95.410156" xlink:href="#DejaVuSans-49"/>
      <use x="159.033203" xlink:href="#DejaVuSans-52"/>
     </g>
    </g>
   </g>
   <g id="text_72">
    <g clip-path="url(#pd183613f7b)">
     <!-- 1.15 -->
     <defs>
      <path d="M 10.796875 72.90625 
L 49.515625 72.90625 
L 49.515625 64.59375 
L 19.828125 64.59375 
L 19.828125 46.734375 
Q 21.96875 47.46875 24.109375 47.828125 
Q 26.265625 48.1875 28.421875 48.1875 
Q 40.625 48.1875 47.75 41.5 
Q 54.890625 34.8125 54.890625 23.390625 
Q 54.890625 11.625 47.5625 5.09375 
Q 40.234375 -1.421875 26.90625 -1.421875 
Q 22.3125 -1.421875 17.546875 -0.640625 
Q 12.796875 0.140625 7.71875 1.703125 
L 7.71875 11.625 
Q 12.109375 9.234375 16.796875 8.0625 
Q 21.484375 6.890625 26.703125 6.890625 
Q 35.15625 6.890625 40.078125 11.328125 
Q 45.015625 15.765625 45.015625 23.390625 
Q 45.015625 31 40.078125 35.4375 
Q 35.15625 39.890625 26.703125 39.890625 
Q 22.75 39.890625 18.8125 39.015625 
Q 14.890625 38.140625 10.796875 36.28125 
z
" id="DejaVuSans-53"/>
     </defs>
     <g transform="translate(176.847477 374.780258)scale(0.1 -0.1)">
      <use xlink:href="#DejaVuSans-49"/>
      <use x="63.623047" xlink:href="#DejaVuSans-46"/>
      <use x="95.410156" xlink:href="#DejaVuSans-49"/>
      <use x="159.033203" xlink:href="#DejaVuSans-53"/>
     </g>
    </g>
   </g>
   <g id="text_73">
    <g clip-path="url(#pd183613f7b)">
     <!-- 1.16 -->
     <defs>
      <path d="M 33.015625 40.375 
Q 26.375 40.375 22.484375 35.828125 
Q 18.609375 31.296875 18.609375 23.390625 
Q 18.609375 15.53125 22.484375 10.953125 
Q 26.375 6.390625 33.015625 6.390625 
Q 39.65625 6.390625 43.53125 10.953125 
Q 47.40625 15.53125 47.40625 23.390625 
Q 47.40625 31.296875 43.53125 35.828125 
Q 39.65625 40.375 33.015625 40.375 
z
M 52.59375 71.296875 
L 52.59375 62.3125 
Q 48.875 64.0625 45.09375 64.984375 
Q 41.3125 65.921875 37.59375 65.921875 
Q 27.828125 65.921875 22.671875 59.328125 
Q 17.53125 52.734375 16.796875 39.40625 
Q 19.671875 43.65625 24.015625 45.921875 
Q 28.375 48.1875 33.59375 48.1875 
Q 44.578125 48.1875 50.953125 41.515625 
Q 57.328125 34.859375 57.328125 23.390625 
Q 57.328125 12.15625 50.6875 5.359375 
Q 44.046875 -1.421875 33.015625 -1.421875 
Q 20.359375 -1.421875 13.671875 8.265625 
Q 6.984375 17.96875 6.984375 36.375 
Q 6.984375 53.65625 15.1875 63.9375 
Q 23.390625 74.21875 37.203125 74.21875 
Q 40.921875 74.21875 44.703125 73.484375 
Q 48.484375 72.75 52.59375 71.296875 
z
" id="DejaVuSans-54"/>
     </defs>
     <g transform="translate(249.943762 374.780258)scale(0.1 -0.1)">
      <use xlink:href="#DejaVuSans-49"/>
      <use x="63.623047" xlink:href="#DejaVuSans-46"/>
      <use x="95.410156" xlink:href="#DejaVuSans-49"/>
      <use x="159.033203" xlink:href="#DejaVuSans-54"/>
     </g>
    </g>
   </g>
   <g id="text_74">
    <g clip-path="url(#pd183613f7b)">
     <!-- 1.17 -->
     <g transform="translate(371.770903 289.724233)scale(0.1 -0.1)">
      <use xlink:href="#DejaVuSans-49"/>
      <use x="63.623047" xlink:href="#DejaVuSans-46"/>
      <use x="95.410156" xlink:href="#DejaVuSans-49"/>
      <use x="159.033203" xlink:href="#DejaVuSans-55"/>
     </g>
    </g>
   </g>
   <g id="text_75">
    <g clip-path="url(#pd183613f7b)">
     <!-- 1.18 -->
     <g transform="translate(323.040046 374.780258)scale(0.1 -0.1)">
      <use xlink:href="#DejaVuSans-49"/>
      <use x="63.623047" xlink:href="#DejaVuSans-46"/>
      <use x="95.410156" xlink:href="#DejaVuSans-49"/>
      <use x="159.033203" xlink:href="#DejaVuSans-56"/>
     </g>
    </g>
   </g>
   <g id="text_76">
    <g clip-path="url(#pd183613f7b)">
     <!-- 1.19 -->
     <g transform="translate(371.770903 374.780258)scale(0.1 -0.1)">
      <use xlink:href="#DejaVuSans-49"/>
      <use x="63.623047" xlink:href="#DejaVuSans-46"/>
      <use x="95.410156" xlink:href="#DejaVuSans-49"/>
      <use x="159.033203" xlink:href="#DejaVuSans-57"/>
     </g>
    </g>
   </g>
   <g id="text_77">
    <g clip-path="url(#pd183613f7b)">
     <!-- 1.20 -->
     <g transform="translate(420.501759 374.780258)scale(0.1 -0.1)">
      <use xlink:href="#DejaVuSans-49"/>
      <use x="63.623047" xlink:href="#DejaVuSans-46"/>
      <use x="95.410156" xlink:href="#DejaVuSans-50"/>
      <use x="159.033203" xlink:href="#DejaVuSans-48"/>
     </g>
    </g>
   </g>
   <g id="text_78">
    <g clip-path="url(#pd183613f7b)">
     <!-- 1.21 -->
     <g transform="translate(30.654908 374.780258)scale(0.1 -0.1)">
      <use xlink:href="#DejaVuSans-49"/>
      <use x="63.623047" xlink:href="#DejaVuSans-46"/>
      <use x="95.410156" xlink:href="#DejaVuSans-50"/>
      <use x="159.033203" xlink:href="#DejaVuSans-49"/>
     </g>
    </g>
   </g>
   <g id="text_79">
    <g clip-path="url(#pd183613f7b)">
     <!-- 1.22 -->
     <g transform="translate(79.385764 374.780258)scale(0.1 -0.1)">
      <use xlink:href="#DejaVuSans-49"/>
      <use x="63.623047" xlink:href="#DejaVuSans-46"/>
      <use x="95.410156" xlink:href="#DejaVuSans-50"/>
      <use x="159.033203" xlink:href="#DejaVuSans-50"/>
     </g>
    </g>
   </g>
   <g id="text_80">
    <g clip-path="url(#pd183613f7b)">
     <!-- 1.23 -->
     <g transform="translate(639.790613 203.484985)scale(0.1 -0.1)">
      <use xlink:href="#DejaVuSans-49"/>
      <use x="63.623047" xlink:href="#DejaVuSans-46"/>
      <use x="95.410156" xlink:href="#DejaVuSans-50"/>
      <use x="159.033203" xlink:href="#DejaVuSans-51"/>
     </g>
    </g>
   </g>
   <g id="text_81">
    <g clip-path="url(#pd183613f7b)">
     <!-- 1.24 -->
     <g transform="translate(469.232616 374.780258)scale(0.1 -0.1)">
      <use xlink:href="#DejaVuSans-49"/>
      <use x="63.623047" xlink:href="#DejaVuSans-46"/>
      <use x="95.410156" xlink:href="#DejaVuSans-50"/>
      <use x="159.033203" xlink:href="#DejaVuSans-52"/>
     </g>
    </g>
   </g>
   <g id="text_82">
    <g clip-path="url(#pd183613f7b)">
     <!-- 1.25 -->
     <g transform="translate(859.079467 374.780258)scale(0.1 -0.1)">
      <use xlink:href="#DejaVuSans-49"/>
      <use x="63.623047" xlink:href="#DejaVuSans-46"/>
      <use x="95.410156" xlink:href="#DejaVuSans-50"/>
      <use x="159.033203" xlink:href="#DejaVuSans-53"/>
     </g>
    </g>
   </g>
  </g>
 </g>
 <defs>
  <clipPath id="pd183613f7b">
   <rect height="480" width="912" x="0" y="0"/>
  </clipPath>
 </defs>
</svg>
