<?xml version="1.0" encoding="utf-8" standalone="no"?>
<!DOCTYPE svg PUBLIC "-//W3C//DTD SVG 1.1//EN"
  "http://www.w3.org/Graphics/SVG/1.1/DTD/svg11.dtd">
<!-- Created with matplotlib (https://matplotlib.org/) -->
<svg height="453.333333pt" version="1.1" viewBox="0 0 861.333333 453.333333" width="861.333333pt" xmlns="http://www.w3.org/2000/svg" xmlns:xlink="http://www.w3.org/1999/xlink">
 <defs>
  <style type="text/css">
*{stroke-linecap:butt;stroke-linejoin:round;}
  </style>
 </defs>
 <g id="figure_1">
  <g id="patch_1">
   <path d="M 0 453.333333 
L 861.333333 453.333333 
L 861.333333 0 
L 0 0 
z
" style="fill:#ffffff;"/>
  </g>
  <g id="axes_1">
   <g id="LineCollection_1">
    <path clip-path="url(#p040eb2c597)" d="M 416.992761 21.710642 
L 383.577719 106.593431 
" style="fill:none;stroke:#000000;"/>
    <path clip-path="url(#p040eb2c597)" d="M 416.992761 21.710642 
L 387.199946 351.315924 
" style="fill:none;stroke:#000000;"/>
    <path clip-path="url(#p040eb2c597)" d="M 416.992761 21.710642 
L 553.460153 106.593431 
" style="fill:none;stroke:#000000;"/>
    <path clip-path="url(#p040eb2c597)" d="M 416.992761 21.710642 
L 343.733225 351.315924 
" style="fill:none;stroke:#000000;"/>
    <path clip-path="url(#p040eb2c597)" d="M 383.577719 106.593431 
L 821.867153 431.622692 
" style="fill:none;stroke:#000000;"/>
    <path clip-path="url(#p040eb2c597)" d="M 383.577719 106.593431 
L 155.377436 189.585233 
" style="fill:none;stroke:#000000;"/>
    <path clip-path="url(#p040eb2c597)" d="M 383.577719 106.593431 
L 256.799784 351.315924 
" style="fill:none;stroke:#000000;"/>
    <path clip-path="url(#p040eb2c597)" d="M 383.577719 106.593431 
L 300.266505 351.315924 
" style="fill:none;stroke:#000000;"/>
    <path clip-path="url(#p040eb2c597)" d="M 387.199946 351.315924 
L 387.199946 431.622692 
" style="fill:none;stroke:#000000;"/>
    <path clip-path="url(#p040eb2c597)" d="M 553.460153 106.593431 
L 452.400027 271.009156 
" style="fill:none;stroke:#000000;"/>
    <path clip-path="url(#p040eb2c597)" d="M 553.460153 106.593431 
L 517.600108 351.315924 
" style="fill:none;stroke:#000000;"/>
    <path clip-path="url(#p040eb2c597)" d="M 553.460153 106.593431 
L 582.800189 271.009156 
" style="fill:none;stroke:#000000;"/>
    <path clip-path="url(#p040eb2c597)" d="M 553.460153 106.593431 
L 661.040286 189.585233 
" style="fill:none;stroke:#000000;"/>
    <path clip-path="url(#p040eb2c597)" d="M 452.400027 271.009156 
L 430.666667 351.315924 
" style="fill:none;stroke:#000000;"/>
    <path clip-path="url(#p040eb2c597)" d="M 452.400027 271.009156 
L 474.133387 351.315924 
" style="fill:none;stroke:#000000;"/>
    <path clip-path="url(#p040eb2c597)" d="M 517.600108 351.315924 
L 517.600108 431.622692 
" style="fill:none;stroke:#000000;"/>
    <path clip-path="url(#p040eb2c597)" d="M 582.800189 271.009156 
L 561.066829 351.315924 
" style="fill:none;stroke:#000000;"/>
    <path clip-path="url(#p040eb2c597)" d="M 582.800189 271.009156 
L 604.533549 351.315924 
" style="fill:none;stroke:#000000;"/>
    <path clip-path="url(#p040eb2c597)" d="M 661.040286 189.585233 
L 452.400027 271.009156 
" style="fill:none;stroke:#000000;stroke-dasharray:3.7,1.6;stroke-dashoffset:0;"/>
    <path clip-path="url(#p040eb2c597)" d="M 661.040286 189.585233 
L 778.400432 431.622692 
" style="fill:none;stroke:#000000;"/>
    <path clip-path="url(#p040eb2c597)" d="M 661.040286 189.585233 
L 648.00027 351.315924 
" style="fill:none;stroke:#000000;"/>
    <path clip-path="url(#p040eb2c597)" d="M 661.040286 189.585233 
L 691.466991 351.315924 
" style="fill:none;stroke:#000000;"/>
    <path clip-path="url(#p040eb2c597)" d="M 661.040286 189.585233 
L 734.933712 351.315924 
" style="fill:none;stroke:#000000;"/>
    <path clip-path="url(#p040eb2c597)" d="M 648.00027 351.315924 
L 648.00027 431.622692 
" style="fill:none;stroke:#000000;"/>
    <path clip-path="url(#p040eb2c597)" d="M 691.466991 351.315924 
L 691.466991 431.622692 
" style="fill:none;stroke:#000000;"/>
    <path clip-path="url(#p040eb2c597)" d="M 561.066829 351.315924 
L 561.066829 431.622692 
" style="fill:none;stroke:#000000;"/>
    <path clip-path="url(#p040eb2c597)" d="M 604.533549 351.315924 
L 604.533549 431.622692 
" style="fill:none;stroke:#000000;"/>
    <path clip-path="url(#p040eb2c597)" d="M 430.666667 351.315924 
L 430.666667 431.622692 
" style="fill:none;stroke:#000000;"/>
    <path clip-path="url(#p040eb2c597)" d="M 474.133387 351.315924 
L 474.133387 431.622692 
" style="fill:none;stroke:#000000;"/>
    <path clip-path="url(#p040eb2c597)" d="M 155.377436 189.585233 
L 82.932901 271.009156 
" style="fill:none;stroke:#000000;"/>
    <path clip-path="url(#p040eb2c597)" d="M 155.377436 189.585233 
L 169.866342 351.315924 
" style="fill:none;stroke:#000000;"/>
    <path clip-path="url(#p040eb2c597)" d="M 155.377436 189.585233 
L 213.333063 351.315924 
" style="fill:none;stroke:#000000;"/>
    <path clip-path="url(#p040eb2c597)" d="M 256.799784 351.315924 
L 256.799784 431.622692 
" style="fill:none;stroke:#000000;"/>
    <path clip-path="url(#p040eb2c597)" d="M 300.266505 351.315924 
L 300.266505 431.622692 
" style="fill:none;stroke:#000000;"/>
    <path clip-path="url(#p040eb2c597)" d="M 82.932901 271.009156 
L 39.46618 351.315924 
" style="fill:none;stroke:#000000;"/>
    <path clip-path="url(#p040eb2c597)" d="M 82.932901 271.009156 
L 82.932901 351.315924 
" style="fill:none;stroke:#000000;"/>
    <path clip-path="url(#p040eb2c597)" d="M 82.932901 271.009156 
L 126.399622 351.315924 
" style="fill:none;stroke:#000000;"/>
    <path clip-path="url(#p040eb2c597)" d="M 169.866342 351.315924 
L 169.866342 431.622692 
" style="fill:none;stroke:#000000;"/>
    <path clip-path="url(#p040eb2c597)" d="M 213.333063 351.315924 
L 213.333063 431.622692 
" style="fill:none;stroke:#000000;"/>
    <path clip-path="url(#p040eb2c597)" d="M 39.46618 351.315924 
L 39.46618 431.622692 
" style="fill:none;stroke:#000000;"/>
    <path clip-path="url(#p040eb2c597)" d="M 82.932901 351.315924 
L 82.932901 431.622692 
" style="fill:none;stroke:#000000;"/>
    <path clip-path="url(#p040eb2c597)" d="M 126.399622 351.315924 
L 126.399622 431.622692 
" style="fill:none;stroke:#000000;"/>
    <path clip-path="url(#p040eb2c597)" d="M 343.733225 351.315924 
L 343.733225 431.622692 
" style="fill:none;stroke:#000000;"/>
    <path clip-path="url(#p040eb2c597)" d="M 734.933712 351.315924 
L 734.933712 431.622692 
" style="fill:none;stroke:#000000;"/>
   </g>
   <g id="text_1">
    <g id="patch_2">
     <path clip-path="url(#p040eb2c597)" d="M 405.018741 69.248247 
L 407.222494 63.650146 
Q 408.101615 61.416954 405.868423 60.537834 
L 398.664052 57.701754 
Q 396.43086 56.822633 395.551739 59.055826 
L 393.347986 64.653926 
Q 392.468865 66.887118 394.702057 67.766239 
L 401.906428 70.602319 
Q 404.13962 71.481439 405.018741 69.248247 
z
" style="fill:#ffffff;stroke:#ffffff;stroke-linejoin:miter;"/>
    </g>
    <g clip-path="url(#p040eb2c597)">
     <!-- H -->
     <defs>
      <path d="M 9.8125 72.90625 
L 19.671875 72.90625 
L 19.671875 43.015625 
L 55.515625 43.015625 
L 55.515625 72.90625 
L 65.375 72.90625 
L 65.375 0 
L 55.515625 0 
L 55.515625 34.71875 
L 19.671875 34.71875 
L 19.671875 0 
L 9.8125 0 
z
" id="DejaVuSans-72"/>
     </defs>
     <g transform="translate(401.237435 67.759695)rotate(-68.512376)scale(0.08 -0.08)">
      <use xlink:href="#DejaVuSans-72"/>
     </g>
    </g>
   </g>
   <g id="text_2">
    <g id="patch_3">
     <path clip-path="url(#p040eb2c597)" d="M 408.141503 189.297536 
L 408.542778 184.858135 
Q 408.758832 182.46788 406.368576 182.251826 
L 398.657513 181.554828 
Q 396.267257 181.338774 396.051204 183.729029 
L 395.649929 188.168431 
Q 395.433875 190.558686 397.824131 190.77474 
L 405.535194 191.471738 
Q 407.925449 191.687792 408.141503 189.297536 
z
" style="fill:#ffffff;stroke:#ffffff;stroke-linejoin:miter;"/>
    </g>
    <g clip-path="url(#p040eb2c597)">
     <!-- L -->
     <defs>
      <path d="M 9.8125 72.90625 
L 19.671875 72.90625 
L 19.671875 8.296875 
L 55.171875 8.296875 
L 55.171875 0 
L 9.8125 0 
z
" id="DejaVuSans-76"/>
     </defs>
     <g transform="translate(404.094253 188.931708)rotate(-84.835106)scale(0.08 -0.08)">
      <use xlink:href="#DejaVuSans-76"/>
     </g>
    </g>
   </g>
   <g id="text_3">
    <g id="patch_4">
     <path clip-path="url(#p040eb2c597)" d="M 479.359872 67.888422 
L 484.468517 71.066002 
Q 486.506455 72.333601 487.774054 70.295662 
L 491.863381 63.721188 
Q 493.13098 61.683249 491.093041 60.41565 
L 485.984396 57.238071 
Q 483.946458 55.970472 482.678859 58.00841 
L 478.589533 64.582885 
Q 477.321934 66.620823 479.359872 67.888422 
z
" style="fill:#ffffff;stroke:#ffffff;stroke-linejoin:miter;"/>
    </g>
    <g clip-path="url(#p040eb2c597)">
     <!-- H -->
     <g transform="translate(481.506208 64.437725)rotate(-328.118366)scale(0.08 -0.08)">
      <use xlink:href="#DejaVuSans-72"/>
     </g>
    </g>
   </g>
   <g id="text_4">
    <g id="patch_5">
     <path clip-path="url(#p040eb2c597)" d="M 385.849672 190.731716 
L 387.12003 185.016192 
Q 387.640758 182.673364 385.29793 182.152637 
L 377.739869 180.472749 
Q 375.397041 179.952021 374.876314 182.294849 
L 373.605956 188.010373 
Q 373.085228 190.353201 375.428056 190.873929 
L 382.986117 192.553817 
Q 385.328945 193.074544 385.849672 190.731716 
z
" style="fill:#ffffff;stroke:#ffffff;stroke-linejoin:miter;"/>
    </g>
    <g clip-path="url(#p040eb2c597)">
     <!-- U -->
     <defs>
      <path d="M 8.6875 72.90625 
L 18.609375 72.90625 
L 18.609375 28.609375 
Q 18.609375 16.890625 22.84375 11.734375 
Q 27.09375 6.59375 36.625 6.59375 
Q 46.09375 6.59375 50.34375 11.734375 
Q 54.59375 16.890625 54.59375 28.609375 
L 54.59375 72.90625 
L 64.5 72.90625 
L 64.5 27.390625 
Q 64.5 13.140625 57.4375 5.859375 
Q 50.390625 -1.421875 36.625 -1.421875 
Q 22.796875 -1.421875 15.734375 5.859375 
Q 8.6875 13.140625 8.6875 27.390625 
z
" id="DejaVuSans-85"/>
     </defs>
     <g transform="translate(381.882728 189.850006)rotate(-77.468887)scale(0.08 -0.08)">
      <use xlink:href="#DejaVuSans-85"/>
     </g>
    </g>
   </g>
   <g id="text_5">
    <g id="patch_6">
     <path clip-path="url(#p040eb2c597)" d="M 596.789022 272.515442 
L 601.184712 275.775223 
Q 603.112469 277.204821 604.542067 275.277063 
L 609.15401 269.058036 
Q 610.583608 267.130279 608.65585 265.700681 
L 604.260161 262.4409 
Q 602.332403 261.011302 600.902805 262.939059 
L 596.290863 269.158086 
Q 594.861265 271.085844 596.789022 272.515442 
z
" style="fill:#ffffff;stroke:#ffffff;stroke-linejoin:miter;"/>
    </g>
    <g clip-path="url(#p040eb2c597)">
     <!-- A -->
     <defs>
      <path d="M 34.1875 63.1875 
L 20.796875 26.90625 
L 47.609375 26.90625 
z
M 28.609375 72.90625 
L 39.796875 72.90625 
L 67.578125 0 
L 57.328125 0 
L 50.6875 18.703125 
L 17.828125 18.703125 
L 11.1875 0 
L 0.78125 0 
z
" id="DejaVuSans-65"/>
     </defs>
     <g transform="translate(599.209659 269.251306)rotate(-323.43989)scale(0.08 -0.08)">
      <use xlink:href="#DejaVuSans-65"/>
     </g>
    </g>
   </g>
   <g id="text_6">
    <g id="patch_7">
     <path clip-path="url(#p040eb2c597)" d="M 269.049485 154.918122 
L 274.192433 153.047737 
Q 276.447906 152.227467 275.627636 149.971994 
L 272.981412 142.695745 
Q 272.161143 140.440272 269.90567 141.260542 
L 264.762722 143.130927 
Q 262.507249 143.951197 263.327519 146.20667 
L 265.973743 153.482919 
Q 266.794012 155.738392 269.049485 154.918122 
z
" style="fill:#ffffff;stroke:#ffffff;stroke-linejoin:miter;"/>
    </g>
    <g clip-path="url(#p040eb2c597)">
     <!-- A -->
     <g transform="translate(267.660581 151.09909)rotate(-19.985298)scale(0.08 -0.08)">
      <use xlink:href="#DejaVuSans-65"/>
     </g>
    </g>
   </g>
   <g id="text_7">
    <g id="patch_8">
     <path clip-path="url(#p040eb2c597)" d="M 324.698894 233.882158 
L 326.815412 229.796592 
Q 327.919383 227.665571 325.788362 226.561601 
L 318.9136 223.000146 
Q 316.78258 221.896176 315.678609 224.027197 
L 313.562091 228.112763 
Q 312.45812 230.243783 314.589141 231.347754 
L 321.463903 234.909209 
Q 323.594923 236.013179 324.698894 233.882158 
z
" style="fill:#ffffff;stroke:#ffffff;stroke-linejoin:miter;"/>
    </g>
    <g clip-path="url(#p040eb2c597)">
     <!-- F -->
     <defs>
      <path d="M 9.8125 72.90625 
L 51.703125 72.90625 
L 51.703125 64.59375 
L 19.671875 64.59375 
L 19.671875 43.109375 
L 48.578125 43.109375 
L 48.578125 34.8125 
L 19.671875 34.8125 
L 19.671875 0 
L 9.8125 0 
z
" id="DejaVuSans-70"/>
     </defs>
     <g transform="translate(321.090587 232.012883)rotate(-62.613687)scale(0.08 -0.08)">
      <use xlink:href="#DejaVuSans-70"/>
     </g>
    </g>
   </g>
   <g id="text_8">
    <g id="patch_9">
     <path clip-path="url(#p040eb2c597)" d="M 347.081508 233.258903 
L 348.636051 228.692508 
Q 349.409497 226.420553 347.137541 225.647107 
L 339.808117 223.151942 
Q 337.536161 222.378497 336.762716 224.650452 
L 335.208172 229.216847 
Q 334.434727 231.488802 336.706683 232.262247 
L 344.036107 234.757413 
Q 346.308063 235.530858 347.081508 233.258903 
z
" style="fill:#ffffff;stroke:#ffffff;stroke-linejoin:miter;"/>
    </g>
    <g clip-path="url(#p040eb2c597)">
     <!-- P -->
     <defs>
      <path d="M 19.671875 64.796875 
L 19.671875 37.40625 
L 32.078125 37.40625 
Q 38.96875 37.40625 42.71875 40.96875 
Q 46.484375 44.53125 46.484375 51.125 
Q 46.484375 57.671875 42.71875 61.234375 
Q 38.96875 64.796875 32.078125 64.796875 
z
M 9.8125 72.90625 
L 32.078125 72.90625 
Q 44.34375 72.90625 50.609375 67.359375 
Q 56.890625 61.8125 56.890625 51.125 
Q 56.890625 40.328125 50.609375 34.8125 
Q 44.34375 29.296875 32.078125 29.296875 
L 19.671875 29.296875 
L 19.671875 0 
L 9.8125 0 
z
" id="DejaVuSans-80"/>
     </defs>
     <g transform="translate(343.234566 231.949283)rotate(-71.199815)scale(0.08 -0.08)">
      <use xlink:href="#DejaVuSans-80"/>
     </g>
    </g>
   </g>
   <g id="text_9">
    <g id="patch_10">
     <path clip-path="url(#p040eb2c597)" d="M 380.928696 373.826808 
L 380.928696 409.111808 
Q 380.928696 411.511808 383.328696 411.511808 
L 391.071196 411.511808 
Q 393.471196 411.511808 393.471196 409.111808 
L 393.471196 373.826808 
Q 393.471196 371.426808 391.071196 371.426808 
L 383.328696 371.426808 
Q 380.928696 371.426808 380.928696 373.826808 
z
" style="fill:#ffffff;stroke:#ffffff;stroke-linejoin:miter;"/>
    </g>
    <g clip-path="url(#p040eb2c597)">
     <!-- Terminal -->
     <defs>
      <path d="M -0.296875 72.90625 
L 61.375 72.90625 
L 61.375 64.59375 
L 35.5 64.59375 
L 35.5 0 
L 25.59375 0 
L 25.59375 64.59375 
L -0.296875 64.59375 
z
" id="DejaVuSans-84"/>
      <path d="M 56.203125 29.59375 
L 56.203125 25.203125 
L 14.890625 25.203125 
Q 15.484375 15.921875 20.484375 11.0625 
Q 25.484375 6.203125 34.421875 6.203125 
Q 39.59375 6.203125 44.453125 7.46875 
Q 49.3125 8.734375 54.109375 11.28125 
L 54.109375 2.78125 
Q 49.265625 0.734375 44.1875 -0.34375 
Q 39.109375 -1.421875 33.890625 -1.421875 
Q 20.796875 -1.421875 13.15625 6.1875 
Q 5.515625 13.8125 5.515625 26.8125 
Q 5.515625 40.234375 12.765625 48.109375 
Q 20.015625 56 32.328125 56 
Q 43.359375 56 49.78125 48.890625 
Q 56.203125 41.796875 56.203125 29.59375 
z
M 47.21875 32.234375 
Q 47.125 39.59375 43.09375 43.984375 
Q 39.0625 48.390625 32.421875 48.390625 
Q 24.90625 48.390625 20.390625 44.140625 
Q 15.875 39.890625 15.1875 32.171875 
z
" id="DejaVuSans-101"/>
      <path d="M 41.109375 46.296875 
Q 39.59375 47.171875 37.8125 47.578125 
Q 36.03125 48 33.890625 48 
Q 26.265625 48 22.1875 43.046875 
Q 18.109375 38.09375 18.109375 28.8125 
L 18.109375 0 
L 9.078125 0 
L 9.078125 54.6875 
L 18.109375 54.6875 
L 18.109375 46.1875 
Q 20.953125 51.171875 25.484375 53.578125 
Q 30.03125 56 36.53125 56 
Q 37.453125 56 38.578125 55.875 
Q 39.703125 55.765625 41.0625 55.515625 
z
" id="DejaVuSans-114"/>
      <path d="M 52 44.1875 
Q 55.375 50.25 60.0625 53.125 
Q 64.75 56 71.09375 56 
Q 79.640625 56 84.28125 50.015625 
Q 88.921875 44.046875 88.921875 33.015625 
L 88.921875 0 
L 79.890625 0 
L 79.890625 32.71875 
Q 79.890625 40.578125 77.09375 44.375 
Q 74.3125 48.1875 68.609375 48.1875 
Q 61.625 48.1875 57.5625 43.546875 
Q 53.515625 38.921875 53.515625 30.90625 
L 53.515625 0 
L 44.484375 0 
L 44.484375 32.71875 
Q 44.484375 40.625 41.703125 44.40625 
Q 38.921875 48.1875 33.109375 48.1875 
Q 26.21875 48.1875 22.15625 43.53125 
Q 18.109375 38.875 18.109375 30.90625 
L 18.109375 0 
L 9.078125 0 
L 9.078125 54.6875 
L 18.109375 54.6875 
L 18.109375 46.1875 
Q 21.1875 51.21875 25.484375 53.609375 
Q 29.78125 56 35.6875 56 
Q 41.65625 56 45.828125 52.96875 
Q 50 49.953125 52 44.1875 
z
" id="DejaVuSans-109"/>
      <path d="M 9.421875 54.6875 
L 18.40625 54.6875 
L 18.40625 0 
L 9.421875 0 
z
M 9.421875 75.984375 
L 18.40625 75.984375 
L 18.40625 64.59375 
L 9.421875 64.59375 
z
" id="DejaVuSans-105"/>
      <path d="M 54.890625 33.015625 
L 54.890625 0 
L 45.90625 0 
L 45.90625 32.71875 
Q 45.90625 40.484375 42.875 44.328125 
Q 39.84375 48.1875 33.796875 48.1875 
Q 26.515625 48.1875 22.3125 43.546875 
Q 18.109375 38.921875 18.109375 30.90625 
L 18.109375 0 
L 9.078125 0 
L 9.078125 54.6875 
L 18.109375 54.6875 
L 18.109375 46.1875 
Q 21.34375 51.125 25.703125 53.5625 
Q 30.078125 56 35.796875 56 
Q 45.21875 56 50.046875 50.171875 
Q 54.890625 44.34375 54.890625 33.015625 
z
" id="DejaVuSans-110"/>
      <path d="M 34.28125 27.484375 
Q 23.390625 27.484375 19.1875 25 
Q 14.984375 22.515625 14.984375 16.5 
Q 14.984375 11.71875 18.140625 8.90625 
Q 21.296875 6.109375 26.703125 6.109375 
Q 34.1875 6.109375 38.703125 11.40625 
Q 43.21875 16.703125 43.21875 25.484375 
L 43.21875 27.484375 
z
M 52.203125 31.203125 
L 52.203125 0 
L 43.21875 0 
L 43.21875 8.296875 
Q 40.140625 3.328125 35.546875 0.953125 
Q 30.953125 -1.421875 24.3125 -1.421875 
Q 15.921875 -1.421875 10.953125 3.296875 
Q 6 8.015625 6 15.921875 
Q 6 25.140625 12.171875 29.828125 
Q 18.359375 34.515625 30.609375 34.515625 
L 43.21875 34.515625 
L 43.21875 35.40625 
Q 43.21875 41.609375 39.140625 45 
Q 35.0625 48.390625 27.6875 48.390625 
Q 23 48.390625 18.546875 47.265625 
Q 14.109375 46.140625 10.015625 43.890625 
L 10.015625 52.203125 
Q 14.9375 54.109375 19.578125 55.046875 
Q 24.21875 56 28.609375 56 
Q 40.484375 56 46.34375 49.84375 
Q 52.203125 43.703125 52.203125 31.203125 
z
" id="DejaVuSans-97"/>
      <path d="M 9.421875 75.984375 
L 18.40625 75.984375 
L 18.40625 0 
L 9.421875 0 
z
" id="DejaVuSans-108"/>
     </defs>
     <g transform="translate(384.992446 373.826808)rotate(-270)scale(0.08 -0.08)">
      <use xlink:href="#DejaVuSans-84"/>
      <use x="60.818359" xlink:href="#DejaVuSans-101"/>
      <use x="122.341797" xlink:href="#DejaVuSans-114"/>
      <use x="163.439453" xlink:href="#DejaVuSans-109"/>
      <use x="260.851562" xlink:href="#DejaVuSans-105"/>
      <use x="288.634766" xlink:href="#DejaVuSans-110"/>
      <use x="352.013672" xlink:href="#DejaVuSans-97"/>
      <use x="413.292969" xlink:href="#DejaVuSans-108"/>
     </g>
    </g>
   </g>
   <g id="text_10">
    <g id="patch_11">
     <path clip-path="url(#p040eb2c597)" d="M 506.839934 194.416341 
L 509.705614 189.754138 
Q 510.962376 187.709499 508.917737 186.452737 
L 502.321647 182.39837 
Q 500.277008 181.141607 499.020245 183.186246 
L 496.154566 187.848449 
Q 494.897803 189.893088 496.942442 191.14985 
L 503.538533 195.204218 
Q 505.583172 196.46098 506.839934 194.416341 
z
" style="fill:#ffffff;stroke:#ffffff;stroke-linejoin:miter;"/>
    </g>
    <g clip-path="url(#p040eb2c597)">
     <!-- A -->
     <g transform="translate(503.377892 192.288355)rotate(-58.422531)scale(0.08 -0.08)">
      <use xlink:href="#DejaVuSans-65"/>
     </g>
    </g>
   </g>
   <g id="text_11">
    <g id="patch_12">
     <path clip-path="url(#p040eb2c597)" d="M 541.385431 232.250307 
L 542.084803 227.477525 
Q 542.432768 225.102884 540.058127 224.75492 
L 532.397435 223.632372 
Q 530.022794 223.284407 529.67483 225.659048 
L 528.975457 230.43183 
Q 528.627493 232.806471 531.002134 233.154435 
L 538.662825 234.276983 
Q 541.037467 234.624948 541.385431 232.250307 
z
" style="fill:#ffffff;stroke:#ffffff;stroke-linejoin:miter;"/>
    </g>
    <g clip-path="url(#p040eb2c597)">
     <!-- P -->
     <g transform="translate(537.364619 231.661123)rotate(-81.663578)scale(0.08 -0.08)">
      <use xlink:href="#DejaVuSans-80"/>
     </g>
    </g>
   </g>
   <g id="text_12">
    <g id="patch_13">
     <path clip-path="url(#p040eb2c597)" d="M 561.475759 187.2093 
L 562.437141 192.596692 
Q 562.858761 194.959368 565.221437 194.537748 
L 572.843527 193.177584 
Q 575.206203 192.755963 574.784583 190.393288 
L 573.823201 185.005895 
Q 573.401581 182.643219 571.038905 183.064839 
L 563.416815 184.425004 
Q 561.054139 184.846624 561.475759 187.2093 
z
" style="fill:#ffffff;stroke:#ffffff;stroke-linejoin:miter;"/>
    </g>
    <g clip-path="url(#p040eb2c597)">
     <!-- A -->
     <g transform="translate(565.476311 186.4954)rotate(-280.117946)scale(0.08 -0.08)">
      <use xlink:href="#DejaVuSans-65"/>
     </g>
    </g>
   </g>
   <g id="text_13">
    <g id="patch_14">
     <path clip-path="url(#p040eb2c597)" d="M 601.253177 151.383436 
L 605.586178 154.726094 
Q 607.486443 156.192038 608.952387 154.291772 
L 613.681583 148.161437 
Q 615.147527 146.261172 613.247262 144.795228 
L 608.914261 141.45257 
Q 607.013996 139.986626 605.548052 141.886892 
L 600.818856 148.017227 
Q 599.352912 149.917492 601.253177 151.383436 
z
" style="fill:#ffffff;stroke:#ffffff;stroke-linejoin:miter;"/>
    </g>
    <g clip-path="url(#p040eb2c597)">
     <!-- A -->
     <g transform="translate(603.735356 148.165852)rotate(-322.351907)scale(0.08 -0.08)">
      <use xlink:href="#DejaVuSans-65"/>
     </g>
    </g>
   </g>
   <g id="text_14">
    <g id="patch_15">
     <path clip-path="url(#p040eb2c597)" d="M 446.926571 315.240526 
L 448.247098 310.361056 
Q 448.874055 308.044393 446.557392 307.417436 
L 439.083742 305.394848 
Q 436.76708 304.767892 436.140123 307.084554 
L 434.819596 311.964025 
Q 434.192639 314.280687 436.509302 314.907644 
L 443.982951 316.930232 
Q 446.299614 317.557189 446.926571 315.240526 
z
" style="fill:#ffffff;stroke:#ffffff;stroke-linejoin:miter;"/>
    </g>
    <g clip-path="url(#p040eb2c597)">
     <!-- E -->
     <defs>
      <path d="M 9.8125 72.90625 
L 55.90625 72.90625 
L 55.90625 64.59375 
L 19.671875 64.59375 
L 19.671875 43.015625 
L 54.390625 43.015625 
L 54.390625 34.71875 
L 19.671875 34.71875 
L 19.671875 8.296875 
L 56.78125 8.296875 
L 56.78125 0 
L 9.8125 0 
z
" id="DejaVuSans-69"/>
     </defs>
     <g transform="translate(443.00393 314.178945)rotate(-74.856826)scale(0.08 -0.08)">
      <use xlink:href="#DejaVuSans-69"/>
     </g>
    </g>
   </g>
   <g id="text_15">
    <g id="patch_16">
     <path clip-path="url(#p040eb2c597)" d="M 456.483566 310.104654 
L 457.942873 315.496928 
Q 458.56983 317.81359 460.886492 317.186634 
L 468.360142 315.164045 
Q 470.676805 314.537089 470.049848 312.220426 
L 468.590541 306.828153 
Q 467.963585 304.51149 465.646922 305.138447 
L 458.173272 307.161035 
Q 455.85661 307.787992 456.483566 310.104654 
z
" style="fill:#ffffff;stroke:#ffffff;stroke-linejoin:miter;"/>
    </g>
    <g clip-path="url(#p040eb2c597)">
     <!-- C -->
     <defs>
      <path d="M 64.40625 67.28125 
L 64.40625 56.890625 
Q 59.421875 61.53125 53.78125 63.8125 
Q 48.140625 66.109375 41.796875 66.109375 
Q 29.296875 66.109375 22.65625 58.46875 
Q 16.015625 50.828125 16.015625 36.375 
Q 16.015625 21.96875 22.65625 14.328125 
Q 29.296875 6.6875 41.796875 6.6875 
Q 48.140625 6.6875 53.78125 8.984375 
Q 59.421875 11.28125 64.40625 15.921875 
L 64.40625 5.609375 
Q 59.234375 2.09375 53.4375 0.328125 
Q 47.65625 -1.421875 41.21875 -1.421875 
Q 24.65625 -1.421875 15.125 8.703125 
Q 5.609375 18.84375 5.609375 36.375 
Q 5.609375 53.953125 15.125 64.078125 
Q 24.65625 74.21875 41.21875 74.21875 
Q 47.75 74.21875 53.53125 72.484375 
Q 59.328125 70.75 64.40625 67.28125 
z
" id="DejaVuSans-67"/>
     </defs>
     <g transform="translate(460.406207 309.043073)rotate(-285.143173)scale(0.08 -0.08)">
      <use xlink:href="#DejaVuSans-67"/>
     </g>
    </g>
   </g>
   <g id="text_16">
    <g id="patch_17">
     <path clip-path="url(#p040eb2c597)" d="M 511.328858 373.826808 
L 511.328858 409.111808 
Q 511.328858 411.511808 513.728858 411.511808 
L 521.471358 411.511808 
Q 523.871358 411.511808 523.871358 409.111808 
L 523.871358 373.826808 
Q 523.871358 371.426808 521.471358 371.426808 
L 513.728858 371.426808 
Q 511.328858 371.426808 511.328858 373.826808 
z
" style="fill:#ffffff;stroke:#ffffff;stroke-linejoin:miter;"/>
    </g>
    <g clip-path="url(#p040eb2c597)">
     <!-- Terminal -->
     <g transform="translate(515.392608 373.826808)rotate(-270)scale(0.08 -0.08)">
      <use xlink:href="#DejaVuSans-84"/>
      <use x="60.818359" xlink:href="#DejaVuSans-101"/>
      <use x="122.341797" xlink:href="#DejaVuSans-114"/>
      <use x="163.439453" xlink:href="#DejaVuSans-109"/>
      <use x="260.851562" xlink:href="#DejaVuSans-105"/>
      <use x="288.634766" xlink:href="#DejaVuSans-110"/>
      <use x="352.013672" xlink:href="#DejaVuSans-97"/>
      <use x="413.292969" xlink:href="#DejaVuSans-108"/>
     </g>
    </g>
   </g>
   <g id="text_17">
    <g id="patch_18">
     <path clip-path="url(#p040eb2c597)" d="M 577.260935 315.483655 
L 578.713058 310.117927 
Q 579.340015 307.801264 577.023352 307.174308 
L 569.549702 305.151719 
Q 567.23304 304.524763 566.606083 306.841425 
L 565.15396 312.207154 
Q 564.527003 314.523816 566.843666 315.150773 
L 574.317316 317.173361 
Q 576.633978 317.800318 577.260935 315.483655 
z
" style="fill:#ffffff;stroke:#ffffff;stroke-linejoin:miter;"/>
    </g>
    <g clip-path="url(#p040eb2c597)">
     <!-- R -->
     <defs>
      <path d="M 44.390625 34.1875 
Q 47.5625 33.109375 50.5625 29.59375 
Q 53.5625 26.078125 56.59375 19.921875 
L 66.609375 0 
L 56 0 
L 46.6875 18.703125 
Q 43.0625 26.03125 39.671875 28.421875 
Q 36.28125 30.8125 30.421875 30.8125 
L 19.671875 30.8125 
L 19.671875 0 
L 9.8125 0 
L 9.8125 72.90625 
L 32.078125 72.90625 
Q 44.578125 72.90625 50.734375 67.671875 
Q 56.890625 62.453125 56.890625 51.90625 
Q 56.890625 45.015625 53.6875 40.46875 
Q 50.484375 35.9375 44.390625 34.1875 
z
M 19.671875 64.796875 
L 19.671875 38.921875 
L 32.078125 38.921875 
Q 39.203125 38.921875 42.84375 42.21875 
Q 46.484375 45.515625 46.484375 51.90625 
Q 46.484375 58.296875 42.84375 61.546875 
Q 39.203125 64.796875 32.078125 64.796875 
z
" id="DejaVuSans-82"/>
     </defs>
     <g transform="translate(573.338294 314.422074)rotate(-74.856826)scale(0.08 -0.08)">
      <use xlink:href="#DejaVuSans-82"/>
     </g>
    </g>
   </g>
   <g id="text_18">
    <g id="patch_19">
     <path clip-path="url(#p040eb2c597)" d="M 586.883728 310.104654 
L 588.343035 315.496928 
Q 588.969992 317.81359 591.286654 317.186634 
L 598.760304 315.164045 
Q 601.076967 314.537089 600.45001 312.220426 
L 598.990703 306.828153 
Q 598.363747 304.51149 596.047084 305.138447 
L 588.573434 307.161035 
Q 586.256772 307.787992 586.883728 310.104654 
z
" style="fill:#ffffff;stroke:#ffffff;stroke-linejoin:miter;"/>
    </g>
    <g clip-path="url(#p040eb2c597)">
     <!-- C -->
     <g transform="translate(590.806369 309.043073)rotate(-285.143174)scale(0.08 -0.08)">
      <use xlink:href="#DejaVuSans-67"/>
     </g>
    </g>
   </g>
   <g id="text_19">
    <g id="patch_20">
     <path clip-path="url(#p040eb2c597)" d="M 556.451088 237.134098 
L 561.549119 235.144541 
Q 563.784893 234.272008 562.91236 232.036234 
L 560.097532 224.823533 
Q 559.225 222.587759 556.989225 223.460292 
L 551.891194 225.449849 
Q 549.65542 226.322382 550.527953 228.558156 
L 553.342781 235.770857 
Q 554.215314 238.006631 556.451088 237.134098 
z
" style="fill:#ffffff;stroke:#ffffff;stroke-linejoin:miter;"/>
    </g>
    <g clip-path="url(#p040eb2c597)">
     <!-- A -->
     <g transform="translate(554.97369 233.34842)rotate(-21.318707)scale(0.08 -0.08)">
      <use xlink:href="#DejaVuSans-65"/>
     </g>
    </g>
   </g>
   <g id="text_20">
    <g id="patch_21">
     <path clip-path="url(#p040eb2c597)" d="M 712.883655 310.878024 
L 715.271304 315.802188 
Q 716.318423 317.961711 718.477946 316.914592 
L 725.444659 313.536543 
Q 727.604183 312.489424 726.557064 310.329901 
L 724.169415 305.405737 
Q 723.122296 303.246214 720.962772 304.293332 
L 713.996059 307.671382 
Q 711.836536 308.718501 712.883655 310.878024 
z
" style="fill:#ffffff;stroke:#ffffff;stroke-linejoin:miter;"/>
    </g>
    <g clip-path="url(#p040eb2c597)">
     <!-- A -->
     <g transform="translate(716.540223 309.105012)rotate(-295.868015)scale(0.08 -0.08)">
      <use xlink:href="#DejaVuSans-65"/>
     </g>
    </g>
   </g>
   <g id="text_21">
    <g id="patch_22">
     <path clip-path="url(#p040eb2c597)" d="M 660.523712 274.024618 
L 661.018774 267.884544 
Q 661.211655 265.492307 658.819418 265.299426 
L 651.101963 264.677183 
Q 648.709726 264.484302 648.516845 266.876539 
L 648.021783 273.016613 
Q 647.828902 275.40885 650.221138 275.601731 
L 657.938594 276.223974 
Q 660.330831 276.416855 660.523712 274.024618 
z
" style="fill:#ffffff;stroke:#ffffff;stroke-linejoin:miter;"/>
    </g>
    <g clip-path="url(#p040eb2c597)">
     <!-- D -->
     <defs>
      <path d="M 19.671875 64.796875 
L 19.671875 8.109375 
L 31.59375 8.109375 
Q 46.6875 8.109375 53.6875 14.9375 
Q 60.6875 21.78125 60.6875 36.53125 
Q 60.6875 51.171875 53.6875 57.984375 
Q 46.6875 64.796875 31.59375 64.796875 
z
M 9.8125 72.90625 
L 30.078125 72.90625 
Q 51.265625 72.90625 61.171875 64.09375 
Q 71.09375 55.28125 71.09375 36.53125 
Q 71.09375 17.671875 61.125 8.828125 
Q 51.171875 0 30.078125 0 
L 9.8125 0 
z
" id="DejaVuSans-68"/>
     </defs>
     <g transform="translate(656.473107 273.698026)rotate(-85.39033)scale(0.08 -0.08)">
      <use xlink:href="#DejaVuSans-68"/>
     </g>
    </g>
   </g>
   <g id="text_22">
    <g id="patch_23">
     <path clip-path="url(#p040eb2c597)" d="M 669.64458 269.239767 
L 670.536436 273.980353 
Q 670.980168 276.338976 673.338791 275.895244 
L 680.947806 274.463745 
Q 683.306429 274.020013 682.862697 271.66139 
L 681.970841 266.920804 
Q 681.527109 264.562181 679.168486 265.005913 
L 671.559471 266.437412 
Q 669.200848 266.881144 669.64458 269.239767 
z
" style="fill:#ffffff;stroke:#ffffff;stroke-linejoin:miter;"/>
    </g>
    <g clip-path="url(#p040eb2c597)">
     <!-- P -->
     <g transform="translate(673.638269 268.488427)rotate(-280.654628)scale(0.08 -0.08)">
      <use xlink:href="#DejaVuSans-80"/>
     </g>
    </g>
   </g>
   <g id="text_23">
    <g id="patch_24">
     <path clip-path="url(#p040eb2c597)" d="M 691.066332 270.393988 
L 693.499499 275.719467 
Q 694.49687 277.902413 696.679815 276.905042 
L 703.72209 273.687485 
Q 705.905036 272.690115 704.907666 270.507169 
L 702.474498 265.181691 
Q 701.477128 262.998745 699.294182 263.996115 
L 692.251908 267.213672 
Q 690.068962 268.211042 691.066332 270.393988 
z
" style="fill:#ffffff;stroke:#ffffff;stroke-linejoin:miter;"/>
    </g>
    <g clip-path="url(#p040eb2c597)">
     <!-- U -->
     <g transform="translate(694.76256 268.705212)rotate(-294.555272)scale(0.08 -0.08)">
      <use xlink:href="#DejaVuSans-85"/>
     </g>
    </g>
   </g>
   <g id="text_24">
    <g id="patch_25">
     <path clip-path="url(#p040eb2c597)" d="M 641.72902 373.826808 
L 641.72902 409.111808 
Q 641.72902 411.511808 644.12902 411.511808 
L 651.87152 411.511808 
Q 654.27152 411.511808 654.27152 409.111808 
L 654.27152 373.826808 
Q 654.27152 371.426808 651.87152 371.426808 
L 644.12902 371.426808 
Q 641.72902 371.426808 641.72902 373.826808 
z
" style="fill:#ffffff;stroke:#ffffff;stroke-linejoin:miter;"/>
    </g>
    <g clip-path="url(#p040eb2c597)">
     <!-- Terminal -->
     <g transform="translate(645.79277 373.826808)rotate(-270)scale(0.08 -0.08)">
      <use xlink:href="#DejaVuSans-84"/>
      <use x="60.818359" xlink:href="#DejaVuSans-101"/>
      <use x="122.341797" xlink:href="#DejaVuSans-114"/>
      <use x="163.439453" xlink:href="#DejaVuSans-109"/>
      <use x="260.851562" xlink:href="#DejaVuSans-105"/>
      <use x="288.634766" xlink:href="#DejaVuSans-110"/>
      <use x="352.013672" xlink:href="#DejaVuSans-97"/>
      <use x="413.292969" xlink:href="#DejaVuSans-108"/>
     </g>
    </g>
   </g>
   <g id="text_25">
    <g id="patch_26">
     <path clip-path="url(#p040eb2c597)" d="M 685.195741 373.826808 
L 685.195741 409.111808 
Q 685.195741 411.511808 687.595741 411.511808 
L 695.338241 411.511808 
Q 697.738241 411.511808 697.738241 409.111808 
L 697.738241 373.826808 
Q 697.738241 371.426808 695.338241 371.426808 
L 687.595741 371.426808 
Q 685.195741 371.426808 685.195741 373.826808 
z
" style="fill:#ffffff;stroke:#ffffff;stroke-linejoin:miter;"/>
    </g>
    <g clip-path="url(#p040eb2c597)">
     <!-- Terminal -->
     <g transform="translate(689.259491 373.826808)rotate(-270)scale(0.08 -0.08)">
      <use xlink:href="#DejaVuSans-84"/>
      <use x="60.818359" xlink:href="#DejaVuSans-101"/>
      <use x="122.341797" xlink:href="#DejaVuSans-114"/>
      <use x="163.439453" xlink:href="#DejaVuSans-109"/>
      <use x="260.851562" xlink:href="#DejaVuSans-105"/>
      <use x="288.634766" xlink:href="#DejaVuSans-110"/>
      <use x="352.013672" xlink:href="#DejaVuSans-97"/>
      <use x="413.292969" xlink:href="#DejaVuSans-108"/>
     </g>
    </g>
   </g>
   <g id="text_26">
    <g id="patch_27">
     <path clip-path="url(#p040eb2c597)" d="M 554.795579 373.826808 
L 554.795579 409.111808 
Q 554.795579 411.511808 557.195579 411.511808 
L 564.938079 411.511808 
Q 567.338079 411.511808 567.338079 409.111808 
L 567.338079 373.826808 
Q 567.338079 371.426808 564.938079 371.426808 
L 557.195579 371.426808 
Q 554.795579 371.426808 554.795579 373.826808 
z
" style="fill:#ffffff;stroke:#ffffff;stroke-linejoin:miter;"/>
    </g>
    <g clip-path="url(#p040eb2c597)">
     <!-- Terminal -->
     <g transform="translate(558.859329 373.826808)rotate(-270)scale(0.08 -0.08)">
      <use xlink:href="#DejaVuSans-84"/>
      <use x="60.818359" xlink:href="#DejaVuSans-101"/>
      <use x="122.341797" xlink:href="#DejaVuSans-114"/>
      <use x="163.439453" xlink:href="#DejaVuSans-109"/>
      <use x="260.851562" xlink:href="#DejaVuSans-105"/>
      <use x="288.634766" xlink:href="#DejaVuSans-110"/>
      <use x="352.013672" xlink:href="#DejaVuSans-97"/>
      <use x="413.292969" xlink:href="#DejaVuSans-108"/>
     </g>
    </g>
   </g>
   <g id="text_27">
    <g id="patch_28">
     <path clip-path="url(#p040eb2c597)" d="M 598.262299 373.826808 
L 598.262299 409.111808 
Q 598.262299 411.511808 600.662299 411.511808 
L 608.404799 411.511808 
Q 610.804799 411.511808 610.804799 409.111808 
L 610.804799 373.826808 
Q 610.804799 371.426808 608.404799 371.426808 
L 600.662299 371.426808 
Q 598.262299 371.426808 598.262299 373.826808 
z
" style="fill:#ffffff;stroke:#ffffff;stroke-linejoin:miter;"/>
    </g>
    <g clip-path="url(#p040eb2c597)">
     <!-- Terminal -->
     <g transform="translate(602.326049 373.826808)rotate(-270)scale(0.08 -0.08)">
      <use xlink:href="#DejaVuSans-84"/>
      <use x="60.818359" xlink:href="#DejaVuSans-101"/>
      <use x="122.341797" xlink:href="#DejaVuSans-114"/>
      <use x="163.439453" xlink:href="#DejaVuSans-109"/>
      <use x="260.851562" xlink:href="#DejaVuSans-105"/>
      <use x="288.634766" xlink:href="#DejaVuSans-110"/>
      <use x="352.013672" xlink:href="#DejaVuSans-97"/>
      <use x="413.292969" xlink:href="#DejaVuSans-108"/>
     </g>
    </g>
   </g>
   <g id="text_28">
    <g id="patch_29">
     <path clip-path="url(#p040eb2c597)" d="M 424.395417 373.826808 
L 424.395417 409.111808 
Q 424.395417 411.511808 426.795417 411.511808 
L 434.537917 411.511808 
Q 436.937917 411.511808 436.937917 409.111808 
L 436.937917 373.826808 
Q 436.937917 371.426808 434.537917 371.426808 
L 426.795417 371.426808 
Q 424.395417 371.426808 424.395417 373.826808 
z
" style="fill:#ffffff;stroke:#ffffff;stroke-linejoin:miter;"/>
    </g>
    <g clip-path="url(#p040eb2c597)">
     <!-- Terminal -->
     <g transform="translate(428.459167 373.826808)rotate(-270)scale(0.08 -0.08)">
      <use xlink:href="#DejaVuSans-84"/>
      <use x="60.818359" xlink:href="#DejaVuSans-101"/>
      <use x="122.341797" xlink:href="#DejaVuSans-114"/>
      <use x="163.439453" xlink:href="#DejaVuSans-109"/>
      <use x="260.851562" xlink:href="#DejaVuSans-105"/>
      <use x="288.634766" xlink:href="#DejaVuSans-110"/>
      <use x="352.013672" xlink:href="#DejaVuSans-97"/>
      <use x="413.292969" xlink:href="#DejaVuSans-108"/>
     </g>
    </g>
   </g>
   <g id="text_29">
    <g id="patch_30">
     <path clip-path="url(#p040eb2c597)" d="M 467.862137 373.826808 
L 467.862137 409.111808 
Q 467.862137 411.511808 470.262137 411.511808 
L 478.004637 411.511808 
Q 480.404637 411.511808 480.404637 409.111808 
L 480.404637 373.826808 
Q 480.404637 371.426808 478.004637 371.426808 
L 470.262137 371.426808 
Q 467.862137 371.426808 467.862137 373.826808 
z
" style="fill:#ffffff;stroke:#ffffff;stroke-linejoin:miter;"/>
    </g>
    <g clip-path="url(#p040eb2c597)">
     <!-- Terminal -->
     <g transform="translate(471.925887 373.826808)rotate(-270)scale(0.08 -0.08)">
      <use xlink:href="#DejaVuSans-84"/>
      <use x="60.818359" xlink:href="#DejaVuSans-101"/>
      <use x="122.341797" xlink:href="#DejaVuSans-114"/>
      <use x="163.439453" xlink:href="#DejaVuSans-109"/>
      <use x="260.851562" xlink:href="#DejaVuSans-105"/>
      <use x="288.634766" xlink:href="#DejaVuSans-110"/>
      <use x="352.013672" xlink:href="#DejaVuSans-97"/>
      <use x="413.292969" xlink:href="#DejaVuSans-108"/>
     </g>
    </g>
   </g>
   <g id="text_30">
    <g id="patch_31">
     <path clip-path="url(#p040eb2c597)" d="M 122.160367 236.35406 
L 125.52048 232.577466 
Q 127.115786 230.784424 125.322745 229.189118 
L 119.538317 224.042594 
Q 117.745276 222.447288 116.14997 224.24033 
L 112.789856 228.016924 
Q 111.19455 229.809966 112.987592 231.405272 
L 118.772019 236.551795 
Q 120.565061 238.147101 122.160367 236.35406 
z
" style="fill:#ffffff;stroke:#ffffff;stroke-linejoin:miter;"/>
    </g>
    <g clip-path="url(#p040eb2c597)">
     <!-- E -->
     <g transform="translate(119.124337 233.652841)rotate(-48.339854)scale(0.08 -0.08)">
      <use xlink:href="#DejaVuSans-69"/>
     </g>
    </g>
   </g>
   <g id="text_31">
    <g id="patch_32">
     <path clip-path="url(#p040eb2c597)" d="M 156.150127 268.49274 
L 156.601181 273.527576 
Q 156.815332 275.918002 159.205758 275.703852 
L 166.917374 275.012995 
Q 169.307801 274.798844 169.093651 272.408418 
L 168.642597 267.373581 
Q 168.428446 264.983155 166.03802 265.197305 
L 158.326404 265.888163 
Q 155.935977 266.102313 156.150127 268.49274 
z
" style="fill:#ffffff;stroke:#ffffff;stroke-linejoin:miter;"/>
    </g>
    <g clip-path="url(#p040eb2c597)">
     <!-- E -->
     <g transform="translate(160.197667 268.130134)rotate(-275.119269)scale(0.08 -0.08)">
      <use xlink:href="#DejaVuSans-69"/>
     </g>
    </g>
   </g>
   <g id="text_32">
    <g id="patch_33">
     <path clip-path="url(#p040eb2c597)" d="M 177.509369 269.93673 
L 179.39384 275.195528 
Q 180.203459 277.454846 182.462777 276.645227 
L 189.751431 274.033364 
Q 192.010749 273.223745 191.20113 270.964427 
L 189.316658 265.705629 
Q 188.50704 263.446311 186.247722 264.25593 
L 178.959068 266.867794 
Q 176.69975 267.677412 177.509369 269.93673 
z
" style="fill:#ffffff;stroke:#ffffff;stroke-linejoin:miter;"/>
    </g>
    <g clip-path="url(#p040eb2c597)">
     <!-- C -->
     <g transform="translate(181.334912 268.56586)rotate(-289.714963)scale(0.08 -0.08)">
      <use xlink:href="#DejaVuSans-67"/>
     </g>
    </g>
   </g>
   <g id="text_33">
    <g id="patch_34">
     <path clip-path="url(#p040eb2c597)" d="M 250.528534 373.826808 
L 250.528534 409.111808 
Q 250.528534 411.511808 252.928534 411.511808 
L 260.671034 411.511808 
Q 263.071034 411.511808 263.071034 409.111808 
L 263.071034 373.826808 
Q 263.071034 371.426808 260.671034 371.426808 
L 252.928534 371.426808 
Q 250.528534 371.426808 250.528534 373.826808 
z
" style="fill:#ffffff;stroke:#ffffff;stroke-linejoin:miter;"/>
    </g>
    <g clip-path="url(#p040eb2c597)">
     <!-- Terminal -->
     <g transform="translate(254.592284 373.826808)rotate(-270)scale(0.08 -0.08)">
      <use xlink:href="#DejaVuSans-84"/>
      <use x="60.818359" xlink:href="#DejaVuSans-101"/>
      <use x="122.341797" xlink:href="#DejaVuSans-114"/>
      <use x="163.439453" xlink:href="#DejaVuSans-109"/>
      <use x="260.851562" xlink:href="#DejaVuSans-105"/>
      <use x="288.634766" xlink:href="#DejaVuSans-110"/>
      <use x="352.013672" xlink:href="#DejaVuSans-97"/>
      <use x="413.292969" xlink:href="#DejaVuSans-108"/>
     </g>
    </g>
   </g>
   <g id="text_34">
    <g id="patch_35">
     <path clip-path="url(#p040eb2c597)" d="M 293.995255 373.826808 
L 293.995255 409.111808 
Q 293.995255 411.511808 296.395255 411.511808 
L 304.137755 411.511808 
Q 306.537755 411.511808 306.537755 409.111808 
L 306.537755 373.826808 
Q 306.537755 371.426808 304.137755 371.426808 
L 296.395255 371.426808 
Q 293.995255 371.426808 293.995255 373.826808 
z
" style="fill:#ffffff;stroke:#ffffff;stroke-linejoin:miter;"/>
    </g>
    <g clip-path="url(#p040eb2c597)">
     <!-- Terminal -->
     <g transform="translate(298.059005 373.826808)rotate(-270)scale(0.08 -0.08)">
      <use xlink:href="#DejaVuSans-84"/>
      <use x="60.818359" xlink:href="#DejaVuSans-101"/>
      <use x="122.341797" xlink:href="#DejaVuSans-114"/>
      <use x="163.439453" xlink:href="#DejaVuSans-109"/>
      <use x="260.851562" xlink:href="#DejaVuSans-105"/>
      <use x="288.634766" xlink:href="#DejaVuSans-110"/>
      <use x="352.013672" xlink:href="#DejaVuSans-97"/>
      <use x="413.292969" xlink:href="#DejaVuSans-108"/>
     </g>
    </g>
   </g>
   <g id="text_35">
    <g id="patch_36">
     <path clip-path="url(#p040eb2c597)" d="M 65.511639 316.370481 
L 67.917847 311.9249 
Q 69.060261 309.814239 66.949599 308.671825 
L 60.140517 304.986352 
Q 58.029856 303.843938 56.887443 305.9546 
L 54.481234 310.40018 
Q 53.338821 312.510842 55.449482 313.653255 
L 62.258564 317.338729 
Q 64.369225 318.481142 65.511639 316.370481 
z
" style="fill:#ffffff;stroke:#ffffff;stroke-linejoin:miter;"/>
    </g>
    <g clip-path="url(#p040eb2c597)">
     <!-- E -->
     <g transform="translate(61.937805 314.436113)rotate(-61.575156)scale(0.08 -0.08)">
      <use xlink:href="#DejaVuSans-69"/>
     </g>
    </g>
   </g>
   <g id="text_36">
    <g id="patch_37">
     <path clip-path="url(#p040eb2c597)" d="M 76.661651 308.369415 
L 76.661651 313.955665 
Q 76.661651 316.355665 79.061651 316.355665 
L 86.804151 316.355665 
Q 89.204151 316.355665 89.204151 313.955665 
L 89.204151 308.369415 
Q 89.204151 305.969415 86.804151 305.969415 
L 79.061651 305.969415 
Q 76.661651 305.969415 76.661651 308.369415 
z
" style="fill:#ffffff;stroke:#ffffff;stroke-linejoin:miter;"/>
    </g>
    <g clip-path="url(#p040eb2c597)">
     <!-- C -->
     <g transform="translate(80.725401 308.369415)rotate(-270)scale(0.08 -0.08)">
      <use xlink:href="#DejaVuSans-67"/>
     </g>
    </g>
   </g>
   <g id="text_37">
    <g id="patch_38">
     <path clip-path="url(#p040eb2c597)" d="M 98.055949 312.124423 
L 100.24617 316.170957 
Q 101.388583 318.281618 103.499244 317.139205 
L 110.308326 313.453732 
Q 112.418987 312.311318 111.276574 310.200657 
L 109.086353 306.154123 
Q 107.94394 304.043462 105.833278 305.185875 
L 99.024197 308.871349 
Q 96.913535 310.013762 98.055949 312.124423 
z
" style="fill:#ffffff;stroke:#ffffff;stroke-linejoin:miter;"/>
    </g>
    <g clip-path="url(#p040eb2c597)">
     <!-- F -->
     <g transform="translate(101.629782 310.190056)rotate(-298.424844)scale(0.08 -0.08)">
      <use xlink:href="#DejaVuSans-70"/>
     </g>
    </g>
   </g>
   <g id="text_38">
    <g id="patch_39">
     <path clip-path="url(#p040eb2c597)" d="M 163.595092 373.826808 
L 163.595092 409.111808 
Q 163.595092 411.511808 165.995092 411.511808 
L 173.737592 411.511808 
Q 176.137592 411.511808 176.137592 409.111808 
L 176.137592 373.826808 
Q 176.137592 371.426808 173.737592 371.426808 
L 165.995092 371.426808 
Q 163.595092 371.426808 163.595092 373.826808 
z
" style="fill:#ffffff;stroke:#ffffff;stroke-linejoin:miter;"/>
    </g>
    <g clip-path="url(#p040eb2c597)">
     <!-- Terminal -->
     <g transform="translate(167.658842 373.826808)rotate(-270)scale(0.08 -0.08)">
      <use xlink:href="#DejaVuSans-84"/>
      <use x="60.818359" xlink:href="#DejaVuSans-101"/>
      <use x="122.341797" xlink:href="#DejaVuSans-114"/>
      <use x="163.439453" xlink:href="#DejaVuSans-109"/>
      <use x="260.851562" xlink:href="#DejaVuSans-105"/>
      <use x="288.634766" xlink:href="#DejaVuSans-110"/>
      <use x="352.013672" xlink:href="#DejaVuSans-97"/>
      <use x="413.292969" xlink:href="#DejaVuSans-108"/>
     </g>
    </g>
   </g>
   <g id="text_39">
    <g id="patch_40">
     <path clip-path="url(#p040eb2c597)" d="M 207.061813 373.826808 
L 207.061813 409.111808 
Q 207.061813 411.511808 209.461813 411.511808 
L 217.204313 411.511808 
Q 219.604313 411.511808 219.604313 409.111808 
L 219.604313 373.826808 
Q 219.604313 371.426808 217.204313 371.426808 
L 209.461813 371.426808 
Q 207.061813 371.426808 207.061813 373.826808 
z
" style="fill:#ffffff;stroke:#ffffff;stroke-linejoin:miter;"/>
    </g>
    <g clip-path="url(#p040eb2c597)">
     <!-- Terminal -->
     <g transform="translate(211.125563 373.826808)rotate(-270)scale(0.08 -0.08)">
      <use xlink:href="#DejaVuSans-84"/>
      <use x="60.818359" xlink:href="#DejaVuSans-101"/>
      <use x="122.341797" xlink:href="#DejaVuSans-114"/>
      <use x="163.439453" xlink:href="#DejaVuSans-109"/>
      <use x="260.851562" xlink:href="#DejaVuSans-105"/>
      <use x="288.634766" xlink:href="#DejaVuSans-110"/>
      <use x="352.013672" xlink:href="#DejaVuSans-97"/>
      <use x="413.292969" xlink:href="#DejaVuSans-108"/>
     </g>
    </g>
   </g>
   <g id="text_40">
    <g id="patch_41">
     <path clip-path="url(#p040eb2c597)" d="M 33.19493 373.826808 
L 33.19493 409.111808 
Q 33.19493 411.511808 35.59493 411.511808 
L 43.33743 411.511808 
Q 45.73743 411.511808 45.73743 409.111808 
L 45.73743 373.826808 
Q 45.73743 371.426808 43.33743 371.426808 
L 35.59493 371.426808 
Q 33.19493 371.426808 33.19493 373.826808 
z
" style="fill:#ffffff;stroke:#ffffff;stroke-linejoin:miter;"/>
    </g>
    <g clip-path="url(#p040eb2c597)">
     <!-- Terminal -->
     <g transform="translate(37.25868 373.826808)rotate(-270)scale(0.08 -0.08)">
      <use xlink:href="#DejaVuSans-84"/>
      <use x="60.818359" xlink:href="#DejaVuSans-101"/>
      <use x="122.341797" xlink:href="#DejaVuSans-114"/>
      <use x="163.439453" xlink:href="#DejaVuSans-109"/>
      <use x="260.851562" xlink:href="#DejaVuSans-105"/>
      <use x="288.634766" xlink:href="#DejaVuSans-110"/>
      <use x="352.013672" xlink:href="#DejaVuSans-97"/>
      <use x="413.292969" xlink:href="#DejaVuSans-108"/>
     </g>
    </g>
   </g>
   <g id="text_41">
    <g id="patch_42">
     <path clip-path="url(#p040eb2c597)" d="M 76.661651 373.826808 
L 76.661651 409.111808 
Q 76.661651 411.511808 79.061651 411.511808 
L 86.804151 411.511808 
Q 89.204151 411.511808 89.204151 409.111808 
L 89.204151 373.826808 
Q 89.204151 371.426808 86.804151 371.426808 
L 79.061651 371.426808 
Q 76.661651 371.426808 76.661651 373.826808 
z
" style="fill:#ffffff;stroke:#ffffff;stroke-linejoin:miter;"/>
    </g>
    <g clip-path="url(#p040eb2c597)">
     <!-- Terminal -->
     <g transform="translate(80.725401 373.826808)rotate(-270)scale(0.08 -0.08)">
      <use xlink:href="#DejaVuSans-84"/>
      <use x="60.818359" xlink:href="#DejaVuSans-101"/>
      <use x="122.341797" xlink:href="#DejaVuSans-114"/>
      <use x="163.439453" xlink:href="#DejaVuSans-109"/>
      <use x="260.851562" xlink:href="#DejaVuSans-105"/>
      <use x="288.634766" xlink:href="#DejaVuSans-110"/>
      <use x="352.013672" xlink:href="#DejaVuSans-97"/>
      <use x="413.292969" xlink:href="#DejaVuSans-108"/>
     </g>
    </g>
   </g>
   <g id="text_42">
    <g id="patch_43">
     <path clip-path="url(#p040eb2c597)" d="M 120.128372 373.826808 
L 120.128372 409.111808 
Q 120.128372 411.511808 122.528372 411.511808 
L 130.270872 411.511808 
Q 132.670872 411.511808 132.670872 409.111808 
L 132.670872 373.826808 
Q 132.670872 371.426808 130.270872 371.426808 
L 122.528372 371.426808 
Q 120.128372 371.426808 120.128372 373.826808 
z
" style="fill:#ffffff;stroke:#ffffff;stroke-linejoin:miter;"/>
    </g>
    <g clip-path="url(#p040eb2c597)">
     <!-- Terminal -->
     <g transform="translate(124.192122 373.826808)rotate(-270)scale(0.08 -0.08)">
      <use xlink:href="#DejaVuSans-84"/>
      <use x="60.818359" xlink:href="#DejaVuSans-101"/>
      <use x="122.341797" xlink:href="#DejaVuSans-114"/>
      <use x="163.439453" xlink:href="#DejaVuSans-109"/>
      <use x="260.851562" xlink:href="#DejaVuSans-105"/>
      <use x="288.634766" xlink:href="#DejaVuSans-110"/>
      <use x="352.013672" xlink:href="#DejaVuSans-97"/>
      <use x="413.292969" xlink:href="#DejaVuSans-108"/>
     </g>
    </g>
   </g>
   <g id="text_43">
    <g id="patch_44">
     <path clip-path="url(#p040eb2c597)" d="M 337.461975 373.826808 
L 337.461975 409.111808 
Q 337.461975 411.511808 339.861975 411.511808 
L 347.604475 411.511808 
Q 350.004475 411.511808 350.004475 409.111808 
L 350.004475 373.826808 
Q 350.004475 371.426808 347.604475 371.426808 
L 339.861975 371.426808 
Q 337.461975 371.426808 337.461975 373.826808 
z
" style="fill:#ffffff;stroke:#ffffff;stroke-linejoin:miter;"/>
    </g>
    <g clip-path="url(#p040eb2c597)">
     <!-- Terminal -->
     <g transform="translate(341.525725 373.826808)rotate(-270)scale(0.08 -0.08)">
      <use xlink:href="#DejaVuSans-84"/>
      <use x="60.818359" xlink:href="#DejaVuSans-101"/>
      <use x="122.341797" xlink:href="#DejaVuSans-114"/>
      <use x="163.439453" xlink:href="#DejaVuSans-109"/>
      <use x="260.851562" xlink:href="#DejaVuSans-105"/>
      <use x="288.634766" xlink:href="#DejaVuSans-110"/>
      <use x="352.013672" xlink:href="#DejaVuSans-97"/>
      <use x="413.292969" xlink:href="#DejaVuSans-108"/>
     </g>
    </g>
   </g>
   <g id="text_44">
    <g id="patch_45">
     <path clip-path="url(#p040eb2c597)" d="M 728.662462 373.826808 
L 728.662462 409.111808 
Q 728.662462 411.511808 731.062462 411.511808 
L 738.804962 411.511808 
Q 741.204962 411.511808 741.204962 409.111808 
L 741.204962 373.826808 
Q 741.204962 371.426808 738.804962 371.426808 
L 731.062462 371.426808 
Q 728.662462 371.426808 728.662462 373.826808 
z
" style="fill:#ffffff;stroke:#ffffff;stroke-linejoin:miter;"/>
    </g>
    <g clip-path="url(#p040eb2c597)">
     <!-- Terminal -->
     <g transform="translate(732.726212 373.826808)rotate(-270)scale(0.08 -0.08)">
      <use xlink:href="#DejaVuSans-84"/>
      <use x="60.818359" xlink:href="#DejaVuSans-101"/>
      <use x="122.341797" xlink:href="#DejaVuSans-114"/>
      <use x="163.439453" xlink:href="#DejaVuSans-109"/>
      <use x="260.851562" xlink:href="#DejaVuSans-105"/>
      <use x="288.634766" xlink:href="#DejaVuSans-110"/>
      <use x="352.013672" xlink:href="#DejaVuSans-97"/>
      <use x="413.292969" xlink:href="#DejaVuSans-108"/>
     </g>
    </g>
   </g>
   <g id="PathCollection_1">
    <defs>
     <path d="M 0 8.660254 
C 2.296726 8.660254 4.499694 7.747755 6.123724 6.123724 
C 7.747755 4.499694 8.660254 2.296726 8.660254 0 
C 8.660254 -2.296726 7.747755 -4.499694 6.123724 -6.123724 
C 4.499694 -7.747755 2.296726 -8.660254 0 -8.660254 
C -2.296726 -8.660254 -4.499694 -7.747755 -6.123724 -6.123724 
C -7.747755 -4.499694 -8.660254 -2.296726 -8.660254 0 
C -8.660254 2.296726 -7.747755 4.499694 -6.123724 6.123724 
C -4.499694 7.747755 -2.296726 8.660254 0 8.660254 
z
" id="C0_0_57b6e2100c"/>
    </defs>
    <g clip-path="url(#p040eb2c597)">
     <use style="fill:#ffffff;stroke:#ffffff;" x="39.46618" xlink:href="#C0_0_57b6e2100c" y="431.622692"/>
    </g>
    <g clip-path="url(#p040eb2c597)">
     <use style="fill:#ffffff;stroke:#ffffff;" x="82.932901" xlink:href="#C0_0_57b6e2100c" y="431.622692"/>
    </g>
    <g clip-path="url(#p040eb2c597)">
     <use style="fill:#ffffff;stroke:#ffffff;" x="126.399622" xlink:href="#C0_0_57b6e2100c" y="431.622692"/>
    </g>
    <g clip-path="url(#p040eb2c597)">
     <use style="fill:#ffffff;stroke:#ffffff;" x="169.866342" xlink:href="#C0_0_57b6e2100c" y="431.622692"/>
    </g>
    <g clip-path="url(#p040eb2c597)">
     <use style="fill:#ffffff;stroke:#ffffff;" x="213.333063" xlink:href="#C0_0_57b6e2100c" y="431.622692"/>
    </g>
    <g clip-path="url(#p040eb2c597)">
     <use style="fill:#ffffff;stroke:#ffffff;" x="256.799784" xlink:href="#C0_0_57b6e2100c" y="431.622692"/>
    </g>
    <g clip-path="url(#p040eb2c597)">
     <use style="fill:#ffffff;stroke:#ffffff;" x="300.266505" xlink:href="#C0_0_57b6e2100c" y="431.622692"/>
    </g>
    <g clip-path="url(#p040eb2c597)">
     <use style="fill:#ffffff;stroke:#ffffff;" x="343.733225" xlink:href="#C0_0_57b6e2100c" y="431.622692"/>
    </g>
    <g clip-path="url(#p040eb2c597)">
     <use style="fill:#ffffff;stroke:#ffffff;" x="387.199946" xlink:href="#C0_0_57b6e2100c" y="431.622692"/>
    </g>
    <g clip-path="url(#p040eb2c597)">
     <use style="fill:#ffffff;stroke:#ffffff;" x="430.666667" xlink:href="#C0_0_57b6e2100c" y="431.622692"/>
    </g>
    <g clip-path="url(#p040eb2c597)">
     <use style="fill:#ffffff;stroke:#ffffff;" x="474.133387" xlink:href="#C0_0_57b6e2100c" y="431.622692"/>
    </g>
    <g clip-path="url(#p040eb2c597)">
     <use style="fill:#ffffff;stroke:#ffffff;" x="517.600108" xlink:href="#C0_0_57b6e2100c" y="431.622692"/>
    </g>
    <g clip-path="url(#p040eb2c597)">
     <use style="fill:#ffffff;stroke:#ffffff;" x="561.066829" xlink:href="#C0_0_57b6e2100c" y="431.622692"/>
    </g>
    <g clip-path="url(#p040eb2c597)">
     <use style="fill:#ffffff;stroke:#ffffff;" x="604.533549" xlink:href="#C0_0_57b6e2100c" y="431.622692"/>
    </g>
    <g clip-path="url(#p040eb2c597)">
     <use style="fill:#ffffff;stroke:#ffffff;" x="648.00027" xlink:href="#C0_0_57b6e2100c" y="431.622692"/>
    </g>
    <g clip-path="url(#p040eb2c597)">
     <use style="fill:#ffffff;stroke:#ffffff;" x="691.466991" xlink:href="#C0_0_57b6e2100c" y="431.622692"/>
    </g>
    <g clip-path="url(#p040eb2c597)">
     <use style="fill:#ffffff;stroke:#ffffff;" x="734.933712" xlink:href="#C0_0_57b6e2100c" y="431.622692"/>
    </g>
    <g clip-path="url(#p040eb2c597)">
     <use style="fill:#ffffff;stroke:#ffffff;" x="416.992761" xlink:href="#C0_0_57b6e2100c" y="21.710642"/>
    </g>
    <g clip-path="url(#p040eb2c597)">
     <use style="fill:#ffffff;stroke:#ffffff;" x="383.577719" xlink:href="#C0_0_57b6e2100c" y="106.593431"/>
    </g>
    <g clip-path="url(#p040eb2c597)">
     <use style="fill:#ffffff;stroke:#ffffff;" x="387.199946" xlink:href="#C0_0_57b6e2100c" y="351.315924"/>
    </g>
    <g clip-path="url(#p040eb2c597)">
     <use style="fill:#ffffff;stroke:#ffffff;" x="553.460153" xlink:href="#C0_0_57b6e2100c" y="106.593431"/>
    </g>
    <g clip-path="url(#p040eb2c597)">
     <use style="fill:#ffffff;stroke:#ffffff;" x="452.400027" xlink:href="#C0_0_57b6e2100c" y="271.009156"/>
    </g>
    <g clip-path="url(#p040eb2c597)">
     <use style="fill:#ffffff;stroke:#ffffff;" x="517.600108" xlink:href="#C0_0_57b6e2100c" y="351.315924"/>
    </g>
    <g clip-path="url(#p040eb2c597)">
     <use style="fill:#ffffff;stroke:#ffffff;" x="582.800189" xlink:href="#C0_0_57b6e2100c" y="271.009156"/>
    </g>
    <g clip-path="url(#p040eb2c597)">
     <use style="fill:#ffffff;stroke:#ffffff;" x="661.040286" xlink:href="#C0_0_57b6e2100c" y="189.585233"/>
    </g>
    <g clip-path="url(#p040eb2c597)">
     <use style="fill:#ffffff;stroke:#ffffff;" x="778.400432" xlink:href="#C0_0_57b6e2100c" y="431.622692"/>
    </g>
    <g clip-path="url(#p040eb2c597)">
     <use style="fill:#ffffff;stroke:#ffffff;" x="648.00027" xlink:href="#C0_0_57b6e2100c" y="351.315924"/>
    </g>
    <g clip-path="url(#p040eb2c597)">
     <use style="fill:#ffffff;stroke:#ffffff;" x="691.466991" xlink:href="#C0_0_57b6e2100c" y="351.315924"/>
    </g>
    <g clip-path="url(#p040eb2c597)">
     <use style="fill:#ffffff;stroke:#ffffff;" x="561.066829" xlink:href="#C0_0_57b6e2100c" y="351.315924"/>
    </g>
    <g clip-path="url(#p040eb2c597)">
     <use style="fill:#ffffff;stroke:#ffffff;" x="604.533549" xlink:href="#C0_0_57b6e2100c" y="351.315924"/>
    </g>
    <g clip-path="url(#p040eb2c597)">
     <use style="fill:#ffffff;stroke:#ffffff;" x="430.666667" xlink:href="#C0_0_57b6e2100c" y="351.315924"/>
    </g>
    <g clip-path="url(#p040eb2c597)">
     <use style="fill:#ffffff;stroke:#ffffff;" x="474.133387" xlink:href="#C0_0_57b6e2100c" y="351.315924"/>
    </g>
    <g clip-path="url(#p040eb2c597)">
     <use style="fill:#ffffff;stroke:#ffffff;" x="821.867153" xlink:href="#C0_0_57b6e2100c" y="431.622692"/>
    </g>
    <g clip-path="url(#p040eb2c597)">
     <use style="fill:#ffffff;stroke:#ffffff;" x="155.377436" xlink:href="#C0_0_57b6e2100c" y="189.585233"/>
    </g>
    <g clip-path="url(#p040eb2c597)">
     <use style="fill:#ffffff;stroke:#ffffff;" x="256.799784" xlink:href="#C0_0_57b6e2100c" y="351.315924"/>
    </g>
    <g clip-path="url(#p040eb2c597)">
     <use style="fill:#ffffff;stroke:#ffffff;" x="300.266505" xlink:href="#C0_0_57b6e2100c" y="351.315924"/>
    </g>
    <g clip-path="url(#p040eb2c597)">
     <use style="fill:#ffffff;stroke:#ffffff;" x="82.932901" xlink:href="#C0_0_57b6e2100c" y="271.009156"/>
    </g>
    <g clip-path="url(#p040eb2c597)">
     <use style="fill:#ffffff;stroke:#ffffff;" x="169.866342" xlink:href="#C0_0_57b6e2100c" y="351.315924"/>
    </g>
    <g clip-path="url(#p040eb2c597)">
     <use style="fill:#ffffff;stroke:#ffffff;" x="213.333063" xlink:href="#C0_0_57b6e2100c" y="351.315924"/>
    </g>
    <g clip-path="url(#p040eb2c597)">
     <use style="fill:#ffffff;stroke:#ffffff;" x="39.46618" xlink:href="#C0_0_57b6e2100c" y="351.315924"/>
    </g>
    <g clip-path="url(#p040eb2c597)">
     <use style="fill:#ffffff;stroke:#ffffff;" x="82.932901" xlink:href="#C0_0_57b6e2100c" y="351.315924"/>
    </g>
    <g clip-path="url(#p040eb2c597)">
     <use style="fill:#ffffff;stroke:#ffffff;" x="126.399622" xlink:href="#C0_0_57b6e2100c" y="351.315924"/>
    </g>
    <g clip-path="url(#p040eb2c597)">
     <use style="fill:#ffffff;stroke:#ffffff;" x="343.733225" xlink:href="#C0_0_57b6e2100c" y="351.315924"/>
    </g>
    <g clip-path="url(#p040eb2c597)">
     <use style="fill:#ffffff;stroke:#ffffff;" x="734.933712" xlink:href="#C0_0_57b6e2100c" y="351.315924"/>
    </g>
   </g>
   <g id="text_45">
    <g clip-path="url(#p040eb2c597)">
     <!-- The -->
     <defs>
      <path d="M 54.890625 33.015625 
L 54.890625 0 
L 45.90625 0 
L 45.90625 32.71875 
Q 45.90625 40.484375 42.875 44.328125 
Q 39.84375 48.1875 33.796875 48.1875 
Q 26.515625 48.1875 22.3125 43.546875 
Q 18.109375 38.921875 18.109375 30.90625 
L 18.109375 0 
L 9.078125 0 
L 9.078125 75.984375 
L 18.109375 75.984375 
L 18.109375 46.1875 
Q 21.34375 51.125 25.703125 53.5625 
Q 30.078125 56 35.796875 56 
Q 45.21875 56 50.046875 50.171875 
Q 54.890625 44.34375 54.890625 33.015625 
z
" id="DejaVuSans-104"/>
     </defs>
     <g transform="translate(30.166962 434.382067)scale(0.1 -0.1)">
      <use xlink:href="#DejaVuSans-84"/>
      <use x="61.083984" xlink:href="#DejaVuSans-104"/>
      <use x="124.462891" xlink:href="#DejaVuSans-101"/>
     </g>
    </g>
   </g>
   <g id="text_46">
    <g clip-path="url(#p040eb2c597)">
     <!-- site -->
     <defs>
      <path d="M 44.28125 53.078125 
L 44.28125 44.578125 
Q 40.484375 46.53125 36.375 47.5 
Q 32.28125 48.484375 27.875 48.484375 
Q 21.1875 48.484375 17.84375 46.4375 
Q 14.5 44.390625 14.5 40.28125 
Q 14.5 37.15625 16.890625 35.375 
Q 19.28125 33.59375 26.515625 31.984375 
L 29.59375 31.296875 
Q 39.15625 29.25 43.1875 25.515625 
Q 47.21875 21.78125 47.21875 15.09375 
Q 47.21875 7.46875 41.1875 3.015625 
Q 35.15625 -1.421875 24.609375 -1.421875 
Q 20.21875 -1.421875 15.453125 -0.5625 
Q 10.6875 0.296875 5.421875 2 
L 5.421875 11.28125 
Q 10.40625 8.6875 15.234375 7.390625 
Q 20.0625 6.109375 24.8125 6.109375 
Q 31.15625 6.109375 34.5625 8.28125 
Q 37.984375 10.453125 37.984375 14.40625 
Q 37.984375 18.0625 35.515625 20.015625 
Q 33.0625 21.96875 24.703125 23.78125 
L 21.578125 24.515625 
Q 13.234375 26.265625 9.515625 29.90625 
Q 5.8125 33.546875 5.8125 39.890625 
Q 5.8125 47.609375 11.28125 51.796875 
Q 16.75 56 26.8125 56 
Q 31.78125 56 36.171875 55.265625 
Q 40.578125 54.546875 44.28125 53.078125 
z
" id="DejaVuSans-115"/>
      <path d="M 18.3125 70.21875 
L 18.3125 54.6875 
L 36.8125 54.6875 
L 36.8125 47.703125 
L 18.3125 47.703125 
L 18.3125 18.015625 
Q 18.3125 11.328125 20.140625 9.421875 
Q 21.96875 7.515625 27.59375 7.515625 
L 36.8125 7.515625 
L 36.8125 0 
L 27.59375 0 
Q 17.1875 0 13.234375 3.875 
Q 9.28125 7.765625 9.28125 18.015625 
L 9.28125 47.703125 
L 2.6875 47.703125 
L 2.6875 54.6875 
L 9.28125 54.6875 
L 9.28125 70.21875 
z
" id="DejaVuSans-116"/>
     </defs>
     <g transform="translate(73.902432 434.382067)scale(0.1 -0.1)">
      <use xlink:href="#DejaVuSans-115"/>
      <use x="52.099609" xlink:href="#DejaVuSans-105"/>
      <use x="79.882812" xlink:href="#DejaVuSans-116"/>
      <use x="119.091797" xlink:href="#DejaVuSans-101"/>
     </g>
    </g>
   </g>
   <g id="text_47">
    <g clip-path="url(#p040eb2c597)">
     <!-- 's -->
     <defs>
      <path d="M 17.921875 72.90625 
L 17.921875 45.796875 
L 9.625 45.796875 
L 9.625 72.90625 
z
" id="DejaVuSans-39"/>
     </defs>
     <g transform="translate(122.420716 434.382067)scale(0.1 -0.1)">
      <use xlink:href="#DejaVuSans-39"/>
      <use x="27.490234" xlink:href="#DejaVuSans-115"/>
     </g>
    </g>
   </g>
   <g id="text_48">
    <g clip-path="url(#p040eb2c597)">
     <!-- exact -->
     <defs>
      <path d="M 54.890625 54.6875 
L 35.109375 28.078125 
L 55.90625 0 
L 45.3125 0 
L 29.390625 21.484375 
L 13.484375 0 
L 2.875 0 
L 24.125 28.609375 
L 4.6875 54.6875 
L 15.28125 54.6875 
L 29.78125 35.203125 
L 44.28125 54.6875 
z
" id="DejaVuSans-120"/>
      <path d="M 48.78125 52.59375 
L 48.78125 44.1875 
Q 44.96875 46.296875 41.140625 47.34375 
Q 37.3125 48.390625 33.40625 48.390625 
Q 24.65625 48.390625 19.8125 42.84375 
Q 14.984375 37.3125 14.984375 27.296875 
Q 14.984375 17.28125 19.8125 11.734375 
Q 24.65625 6.203125 33.40625 6.203125 
Q 37.3125 6.203125 41.140625 7.25 
Q 44.96875 8.296875 48.78125 10.40625 
L 48.78125 2.09375 
Q 45.015625 0.34375 40.984375 -0.53125 
Q 36.96875 -1.421875 32.421875 -1.421875 
Q 20.0625 -1.421875 12.78125 6.34375 
Q 5.515625 14.109375 5.515625 27.296875 
Q 5.515625 40.671875 12.859375 48.328125 
Q 20.21875 56 33.015625 56 
Q 37.15625 56 41.109375 55.140625 
Q 45.0625 54.296875 48.78125 52.59375 
z
" id="DejaVuSans-99"/>
     </defs>
     <g transform="translate(156.057749 434.382067)scale(0.1 -0.1)">
      <use xlink:href="#DejaVuSans-101"/>
      <use x="61.507812" xlink:href="#DejaVuSans-120"/>
      <use x="120.6875" xlink:href="#DejaVuSans-97"/>
      <use x="181.966797" xlink:href="#DejaVuSans-99"/>
      <use x="236.947266" xlink:href="#DejaVuSans-116"/>
     </g>
    </g>
   </g>
   <g id="text_49">
    <g clip-path="url(#p040eb2c597)">
     <!-- bearings -->
     <defs>
      <path d="M 48.6875 27.296875 
Q 48.6875 37.203125 44.609375 42.84375 
Q 40.53125 48.484375 33.40625 48.484375 
Q 26.265625 48.484375 22.1875 42.84375 
Q 18.109375 37.203125 18.109375 27.296875 
Q 18.109375 17.390625 22.1875 11.75 
Q 26.265625 6.109375 33.40625 6.109375 
Q 40.53125 6.109375 44.609375 11.75 
Q 48.6875 17.390625 48.6875 27.296875 
z
M 18.109375 46.390625 
Q 20.953125 51.265625 25.265625 53.625 
Q 29.59375 56 35.59375 56 
Q 45.5625 56 51.78125 48.09375 
Q 58.015625 40.1875 58.015625 27.296875 
Q 58.015625 14.40625 51.78125 6.484375 
Q 45.5625 -1.421875 35.59375 -1.421875 
Q 29.59375 -1.421875 25.265625 0.953125 
Q 20.953125 3.328125 18.109375 8.203125 
L 18.109375 0 
L 9.078125 0 
L 9.078125 75.984375 
L 18.109375 75.984375 
z
" id="DejaVuSans-98"/>
      <path d="M 45.40625 27.984375 
Q 45.40625 37.75 41.375 43.109375 
Q 37.359375 48.484375 30.078125 48.484375 
Q 22.859375 48.484375 18.828125 43.109375 
Q 14.796875 37.75 14.796875 27.984375 
Q 14.796875 18.265625 18.828125 12.890625 
Q 22.859375 7.515625 30.078125 7.515625 
Q 37.359375 7.515625 41.375 12.890625 
Q 45.40625 18.265625 45.40625 27.984375 
z
M 54.390625 6.78125 
Q 54.390625 -7.171875 48.1875 -13.984375 
Q 42 -20.796875 29.203125 -20.796875 
Q 24.46875 -20.796875 20.265625 -20.09375 
Q 16.0625 -19.390625 12.109375 -17.921875 
L 12.109375 -9.1875 
Q 16.0625 -11.328125 19.921875 -12.34375 
Q 23.78125 -13.375 27.78125 -13.375 
Q 36.625 -13.375 41.015625 -8.765625 
Q 45.40625 -4.15625 45.40625 5.171875 
L 45.40625 9.625 
Q 42.625 4.78125 38.28125 2.390625 
Q 33.9375 0 27.875 0 
Q 17.828125 0 11.671875 7.65625 
Q 5.515625 15.328125 5.515625 27.984375 
Q 5.515625 40.671875 11.671875 48.328125 
Q 17.828125 56 27.875 56 
Q 33.9375 56 38.28125 53.609375 
Q 42.625 51.21875 45.40625 46.390625 
L 45.40625 54.6875 
L 54.390625 54.6875 
z
" id="DejaVuSans-103"/>
     </defs>
     <g transform="translate(191.626032 434.382067)scale(0.1 -0.1)">
      <use xlink:href="#DejaVuSans-98"/>
      <use x="63.476562" xlink:href="#DejaVuSans-101"/>
      <use x="125" xlink:href="#DejaVuSans-97"/>
      <use x="186.279297" xlink:href="#DejaVuSans-114"/>
      <use x="227.392578" xlink:href="#DejaVuSans-105"/>
      <use x="255.175781" xlink:href="#DejaVuSans-110"/>
      <use x="318.554688" xlink:href="#DejaVuSans-103"/>
      <use x="382.03125" xlink:href="#DejaVuSans-115"/>
     </g>
    </g>
   </g>
   <g id="text_50">
    <g clip-path="url(#p040eb2c597)">
     <!-- were -->
     <defs>
      <path d="M 4.203125 54.6875 
L 13.1875 54.6875 
L 24.421875 12.015625 
L 35.59375 54.6875 
L 46.1875 54.6875 
L 57.421875 12.015625 
L 68.609375 54.6875 
L 77.59375 54.6875 
L 63.28125 0 
L 52.6875 0 
L 40.921875 44.828125 
L 29.109375 0 
L 18.5 0 
z
" id="DejaVuSans-119"/>
     </defs>
     <g transform="translate(244.50369 434.382067)scale(0.1 -0.1)">
      <use xlink:href="#DejaVuSans-119"/>
      <use x="81.787109" xlink:href="#DejaVuSans-101"/>
      <use x="143.310547" xlink:href="#DejaVuSans-114"/>
      <use x="184.392578" xlink:href="#DejaVuSans-101"/>
     </g>
    </g>
   </g>
   <g id="text_51">
    <g clip-path="url(#p040eb2c597)">
     <!-- taken -->
     <defs>
      <path d="M 9.078125 75.984375 
L 18.109375 75.984375 
L 18.109375 31.109375 
L 44.921875 54.6875 
L 56.390625 54.6875 
L 27.390625 29.109375 
L 57.625 0 
L 45.90625 0 
L 18.109375 26.703125 
L 18.109375 0 
L 9.078125 0 
z
" id="DejaVuSans-107"/>
     </defs>
     <g transform="translate(286.104005 434.382067)scale(0.1 -0.1)">
      <use xlink:href="#DejaVuSans-116"/>
      <use x="39.208984" xlink:href="#DejaVuSans-97"/>
      <use x="100.488281" xlink:href="#DejaVuSans-107"/>
      <use x="158.351562" xlink:href="#DejaVuSans-101"/>
      <use x="219.875" xlink:href="#DejaVuSans-110"/>
     </g>
    </g>
   </g>
   <g id="text_52">
    <g clip-path="url(#p040eb2c597)">
     <!-- , -->
     <defs>
      <path d="M 11.71875 12.40625 
L 22.015625 12.40625 
L 22.015625 4 
L 14.015625 -11.625 
L 7.71875 -11.625 
L 11.71875 4 
z
" id="DejaVuSans-44"/>
     </defs>
     <g transform="translate(342.144163 434.382067)scale(0.1 -0.1)">
      <use xlink:href="#DejaVuSans-44"/>
     </g>
    </g>
   </g>
   <g id="text_53">
    <g clip-path="url(#p040eb2c597)">
     <!-- and -->
     <defs>
      <path d="M 45.40625 46.390625 
L 45.40625 75.984375 
L 54.390625 75.984375 
L 54.390625 0 
L 45.40625 0 
L 45.40625 8.203125 
Q 42.578125 3.328125 38.25 0.953125 
Q 33.9375 -1.421875 27.875 -1.421875 
Q 17.96875 -1.421875 11.734375 6.484375 
Q 5.515625 14.40625 5.515625 27.296875 
Q 5.515625 40.1875 11.734375 48.09375 
Q 17.96875 56 27.875 56 
Q 33.9375 56 38.25 53.625 
Q 42.578125 51.265625 45.40625 46.390625 
z
M 14.796875 27.296875 
Q 14.796875 17.390625 18.875 11.75 
Q 22.953125 6.109375 30.078125 6.109375 
Q 37.203125 6.109375 41.296875 11.75 
Q 45.40625 17.390625 45.40625 27.296875 
Q 45.40625 37.203125 41.296875 42.84375 
Q 37.203125 48.484375 30.078125 48.484375 
Q 22.953125 48.484375 18.875 42.84375 
Q 14.796875 37.203125 14.796875 27.296875 
z
" id="DejaVuSans-100"/>
     </defs>
     <g transform="translate(377.792915 434.382067)scale(0.1 -0.1)">
      <use xlink:href="#DejaVuSans-97"/>
      <use x="61.279297" xlink:href="#DejaVuSans-110"/>
      <use x="124.658203" xlink:href="#DejaVuSans-100"/>
     </g>
    </g>
   </g>
   <g id="text_54">
    <g clip-path="url(#p040eb2c597)">
     <!-- the -->
     <g transform="translate(422.461198 434.382067)scale(0.1 -0.1)">
      <use xlink:href="#DejaVuSans-116"/>
      <use x="39.208984" xlink:href="#DejaVuSans-104"/>
      <use x="102.587891" xlink:href="#DejaVuSans-101"/>
     </g>
    </g>
   </g>
   <g id="text_55">
    <g clip-path="url(#p040eb2c597)">
     <!-- Moravian -->
     <defs>
      <path d="M 9.8125 72.90625 
L 24.515625 72.90625 
L 43.109375 23.296875 
L 61.8125 72.90625 
L 76.515625 72.90625 
L 76.515625 0 
L 66.890625 0 
L 66.890625 64.015625 
L 48.09375 14.015625 
L 38.1875 14.015625 
L 19.390625 64.015625 
L 19.390625 0 
L 9.8125 0 
z
" id="DejaVuSans-77"/>
      <path d="M 30.609375 48.390625 
Q 23.390625 48.390625 19.1875 42.75 
Q 14.984375 37.109375 14.984375 27.296875 
Q 14.984375 17.484375 19.15625 11.84375 
Q 23.34375 6.203125 30.609375 6.203125 
Q 37.796875 6.203125 41.984375 11.859375 
Q 46.1875 17.53125 46.1875 27.296875 
Q 46.1875 37.015625 41.984375 42.703125 
Q 37.796875 48.390625 30.609375 48.390625 
z
M 30.609375 56 
Q 42.328125 56 49.015625 48.375 
Q 55.71875 40.765625 55.71875 27.296875 
Q 55.71875 13.875 49.015625 6.21875 
Q 42.328125 -1.421875 30.609375 -1.421875 
Q 18.84375 -1.421875 12.171875 6.21875 
Q 5.515625 13.875 5.515625 27.296875 
Q 5.515625 40.765625 12.171875 48.375 
Q 18.84375 56 30.609375 56 
z
" id="DejaVuSans-111"/>
      <path d="M 2.984375 54.6875 
L 12.5 54.6875 
L 29.59375 8.796875 
L 46.6875 54.6875 
L 56.203125 54.6875 
L 35.6875 0 
L 23.484375 0 
z
" id="DejaVuSans-118"/>
     </defs>
     <g transform="translate(451.059169 434.382067)scale(0.1 -0.1)">
      <use xlink:href="#DejaVuSans-77"/>
      <use x="86.279297" xlink:href="#DejaVuSans-111"/>
      <use x="147.460938" xlink:href="#DejaVuSans-114"/>
      <use x="188.574219" xlink:href="#DejaVuSans-97"/>
      <use x="249.853516" xlink:href="#DejaVuSans-118"/>
      <use x="309.033203" xlink:href="#DejaVuSans-105"/>
      <use x="336.816406" xlink:href="#DejaVuSans-97"/>
      <use x="398.095703" xlink:href="#DejaVuSans-110"/>
     </g>
    </g>
   </g>
   <g id="text_56">
    <g clip-path="url(#p040eb2c597)">
     <!-- continued -->
     <defs>
      <path d="M 8.5 21.578125 
L 8.5 54.6875 
L 17.484375 54.6875 
L 17.484375 21.921875 
Q 17.484375 14.15625 20.5 10.265625 
Q 23.53125 6.390625 29.59375 6.390625 
Q 36.859375 6.390625 41.078125 11.03125 
Q 45.3125 15.671875 45.3125 23.6875 
L 45.3125 54.6875 
L 54.296875 54.6875 
L 54.296875 0 
L 45.3125 0 
L 45.3125 8.40625 
Q 42.046875 3.421875 37.71875 1 
Q 33.40625 -1.421875 27.6875 -1.421875 
Q 18.265625 -1.421875 13.375 4.4375 
Q 8.5 10.296875 8.5 21.578125 
z
M 31.109375 56 
z
" id="DejaVuSans-117"/>
     </defs>
     <g transform="translate(492.685264 434.382067)scale(0.1 -0.1)">
      <use xlink:href="#DejaVuSans-99"/>
      <use x="54.980469" xlink:href="#DejaVuSans-111"/>
      <use x="116.162109" xlink:href="#DejaVuSans-110"/>
      <use x="179.541016" xlink:href="#DejaVuSans-116"/>
      <use x="218.75" xlink:href="#DejaVuSans-105"/>
      <use x="246.533203" xlink:href="#DejaVuSans-110"/>
      <use x="309.912109" xlink:href="#DejaVuSans-117"/>
      <use x="373.291016" xlink:href="#DejaVuSans-101"/>
      <use x="434.814453" xlink:href="#DejaVuSans-100"/>
     </g>
    </g>
   </g>
   <g id="text_57">
    <g clip-path="url(#p040eb2c597)">
     <!-- on -->
     <g transform="translate(554.838704 434.382067)scale(0.1 -0.1)">
      <use xlink:href="#DejaVuSans-111"/>
      <use x="61.181641" xlink:href="#DejaVuSans-110"/>
     </g>
    </g>
   </g>
   <g id="text_58">
    <g clip-path="url(#p040eb2c597)">
     <!-- course -->
     <g transform="translate(587.819487 434.382067)scale(0.1 -0.1)">
      <use xlink:href="#DejaVuSans-99"/>
      <use x="54.980469" xlink:href="#DejaVuSans-111"/>
      <use x="116.162109" xlink:href="#DejaVuSans-117"/>
      <use x="179.541016" xlink:href="#DejaVuSans-114"/>
      <use x="220.654297" xlink:href="#DejaVuSans-115"/>
      <use x="272.753906" xlink:href="#DejaVuSans-101"/>
     </g>
    </g>
   </g>
   <g id="text_59">
    <g clip-path="url(#p040eb2c597)">
     <!-- apparently -->
     <defs>
      <path d="M 18.109375 8.203125 
L 18.109375 -20.796875 
L 9.078125 -20.796875 
L 9.078125 54.6875 
L 18.109375 54.6875 
L 18.109375 46.390625 
Q 20.953125 51.265625 25.265625 53.625 
Q 29.59375 56 35.59375 56 
Q 45.5625 56 51.78125 48.09375 
Q 58.015625 40.1875 58.015625 27.296875 
Q 58.015625 14.40625 51.78125 6.484375 
Q 45.5625 -1.421875 35.59375 -1.421875 
Q 29.59375 -1.421875 25.265625 0.953125 
Q 20.953125 3.328125 18.109375 8.203125 
z
M 48.6875 27.296875 
Q 48.6875 37.203125 44.609375 42.84375 
Q 40.53125 48.484375 33.40625 48.484375 
Q 26.265625 48.484375 22.1875 42.84375 
Q 18.109375 37.203125 18.109375 27.296875 
Q 18.109375 17.390625 22.1875 11.75 
Q 26.265625 6.109375 33.40625 6.109375 
Q 40.53125 6.109375 44.609375 11.75 
Q 48.6875 17.390625 48.6875 27.296875 
z
" id="DejaVuSans-112"/>
      <path d="M 32.171875 -5.078125 
Q 28.375 -14.84375 24.75 -17.8125 
Q 21.140625 -20.796875 15.09375 -20.796875 
L 7.90625 -20.796875 
L 7.90625 -13.28125 
L 13.1875 -13.28125 
Q 16.890625 -13.28125 18.9375 -11.515625 
Q 21 -9.765625 23.484375 -3.21875 
L 25.09375 0.875 
L 2.984375 54.6875 
L 12.5 54.6875 
L 29.59375 11.921875 
L 46.6875 54.6875 
L 56.203125 54.6875 
z
" id="DejaVuSans-121"/>
     </defs>
     <g transform="translate(620.915895 434.382067)scale(0.1 -0.1)">
      <use xlink:href="#DejaVuSans-97"/>
      <use x="61.279297" xlink:href="#DejaVuSans-112"/>
      <use x="124.755859" xlink:href="#DejaVuSans-112"/>
      <use x="188.232422" xlink:href="#DejaVuSans-97"/>
      <use x="249.511719" xlink:href="#DejaVuSans-114"/>
      <use x="290.59375" xlink:href="#DejaVuSans-101"/>
      <use x="352.117188" xlink:href="#DejaVuSans-110"/>
      <use x="415.496094" xlink:href="#DejaVuSans-116"/>
      <use x="454.705078" xlink:href="#DejaVuSans-108"/>
      <use x="482.488281" xlink:href="#DejaVuSans-121"/>
     </g>
    </g>
   </g>
   <g id="text_60">
    <g clip-path="url(#p040eb2c597)">
     <!-- undamaged -->
     <g transform="translate(661.531835 434.382067)scale(0.1 -0.1)">
      <use xlink:href="#DejaVuSans-117"/>
      <use x="63.378906" xlink:href="#DejaVuSans-110"/>
      <use x="126.757812" xlink:href="#DejaVuSans-100"/>
      <use x="190.234375" xlink:href="#DejaVuSans-97"/>
      <use x="251.513672" xlink:href="#DejaVuSans-109"/>
      <use x="348.925781" xlink:href="#DejaVuSans-97"/>
      <use x="410.205078" xlink:href="#DejaVuSans-103"/>
      <use x="473.681641" xlink:href="#DejaVuSans-101"/>
      <use x="535.205078" xlink:href="#DejaVuSans-100"/>
     </g>
    </g>
   </g>
   <g id="text_61">
    <g clip-path="url(#p040eb2c597)">
     <!-- . -->
     <defs>
      <path d="M 10.6875 12.40625 
L 21 12.40625 
L 21 0 
L 10.6875 0 
z
" id="DejaVuSans-46"/>
     </defs>
     <g transform="translate(733.344649 434.382067)scale(0.1 -0.1)">
      <use xlink:href="#DejaVuSans-46"/>
     </g>
    </g>
   </g>
   <g id="text_62">
    <g clip-path="url(#p040eb2c597)">
     <!-- 1.1 -->
     <defs>
      <path d="M 12.40625 8.296875 
L 28.515625 8.296875 
L 28.515625 63.921875 
L 10.984375 60.40625 
L 10.984375 69.390625 
L 28.421875 72.90625 
L 38.28125 72.90625 
L 38.28125 8.296875 
L 54.390625 8.296875 
L 54.390625 0 
L 12.40625 0 
z
" id="DejaVuSans-49"/>
     </defs>
     <g transform="translate(409.041198 24.470017)scale(0.1 -0.1)">
      <use xlink:href="#DejaVuSans-49"/>
      <use x="63.623047" xlink:href="#DejaVuSans-46"/>
      <use x="95.410156" xlink:href="#DejaVuSans-49"/>
     </g>
    </g>
   </g>
   <g id="text_63">
    <g clip-path="url(#p040eb2c597)">
     <!-- 1.2 -->
     <defs>
      <path d="M 19.1875 8.296875 
L 53.609375 8.296875 
L 53.609375 0 
L 7.328125 0 
L 7.328125 8.296875 
Q 12.9375 14.109375 22.625 23.890625 
Q 32.328125 33.6875 34.8125 36.53125 
Q 39.546875 41.84375 41.421875 45.53125 
Q 43.3125 49.21875 43.3125 52.78125 
Q 43.3125 58.59375 39.234375 62.25 
Q 35.15625 65.921875 28.609375 65.921875 
Q 23.96875 65.921875 18.8125 64.3125 
Q 13.671875 62.703125 7.8125 59.421875 
L 7.8125 69.390625 
Q 13.765625 71.78125 18.9375 73 
Q 24.125 74.21875 28.421875 74.21875 
Q 39.75 74.21875 46.484375 68.546875 
Q 53.21875 62.890625 53.21875 53.421875 
Q 53.21875 48.921875 51.53125 44.890625 
Q 49.859375 40.875 45.40625 35.40625 
Q 44.1875 33.984375 37.640625 27.21875 
Q 31.109375 20.453125 19.1875 8.296875 
z
" id="DejaVuSans-50"/>
     </defs>
     <g transform="translate(375.626157 109.352806)scale(0.1 -0.1)">
      <use xlink:href="#DejaVuSans-49"/>
      <use x="63.623047" xlink:href="#DejaVuSans-46"/>
      <use x="95.410156" xlink:href="#DejaVuSans-50"/>
     </g>
    </g>
   </g>
   <g id="text_64">
    <g clip-path="url(#p040eb2c597)">
     <!-- 1.3 -->
     <defs>
      <path d="M 40.578125 39.3125 
Q 47.65625 37.796875 51.625 33 
Q 55.609375 28.21875 55.609375 21.1875 
Q 55.609375 10.40625 48.1875 4.484375 
Q 40.765625 -1.421875 27.09375 -1.421875 
Q 22.515625 -1.421875 17.65625 -0.515625 
Q 12.796875 0.390625 7.625 2.203125 
L 7.625 11.71875 
Q 11.71875 9.328125 16.59375 8.109375 
Q 21.484375 6.890625 26.8125 6.890625 
Q 36.078125 6.890625 40.9375 10.546875 
Q 45.796875 14.203125 45.796875 21.1875 
Q 45.796875 27.640625 41.28125 31.265625 
Q 36.765625 34.90625 28.71875 34.90625 
L 20.21875 34.90625 
L 20.21875 43.015625 
L 29.109375 43.015625 
Q 36.375 43.015625 40.234375 45.921875 
Q 44.09375 48.828125 44.09375 54.296875 
Q 44.09375 59.90625 40.109375 62.90625 
Q 36.140625 65.921875 28.71875 65.921875 
Q 24.65625 65.921875 20.015625 65.03125 
Q 15.375 64.15625 9.8125 62.3125 
L 9.8125 71.09375 
Q 15.4375 72.65625 20.34375 73.4375 
Q 25.25 74.21875 29.59375 74.21875 
Q 40.828125 74.21875 47.359375 69.109375 
Q 53.90625 64.015625 53.90625 55.328125 
Q 53.90625 49.265625 50.4375 45.09375 
Q 46.96875 40.921875 40.578125 39.3125 
z
" id="DejaVuSans-51"/>
     </defs>
     <g transform="translate(379.248383 354.075299)scale(0.1 -0.1)">
      <use xlink:href="#DejaVuSans-49"/>
      <use x="63.623047" xlink:href="#DejaVuSans-46"/>
      <use x="95.410156" xlink:href="#DejaVuSans-51"/>
     </g>
    </g>
   </g>
   <g id="text_65">
    <g clip-path="url(#p040eb2c597)">
     <!-- 1.4 -->
     <defs>
      <path d="M 37.796875 64.3125 
L 12.890625 25.390625 
L 37.796875 25.390625 
z
M 35.203125 72.90625 
L 47.609375 72.90625 
L 47.609375 25.390625 
L 58.015625 25.390625 
L 58.015625 17.1875 
L 47.609375 17.1875 
L 47.609375 0 
L 37.796875 0 
L 37.796875 17.1875 
L 4.890625 17.1875 
L 4.890625 26.703125 
z
" id="DejaVuSans-52"/>
     </defs>
     <g transform="translate(545.50859 109.352806)scale(0.1 -0.1)">
      <use xlink:href="#DejaVuSans-49"/>
      <use x="63.623047" xlink:href="#DejaVuSans-46"/>
      <use x="95.410156" xlink:href="#DejaVuSans-52"/>
     </g>
    </g>
   </g>
   <g id="text_66">
    <g clip-path="url(#p040eb2c597)">
     <!-- 1.7 -->
     <defs>
      <path d="M 8.203125 72.90625 
L 55.078125 72.90625 
L 55.078125 68.703125 
L 28.609375 0 
L 18.3125 0 
L 43.21875 64.59375 
L 8.203125 64.59375 
z
" id="DejaVuSans-55"/>
     </defs>
     <g transform="translate(444.448465 273.768531)scale(0.1 -0.1)">
      <use xlink:href="#DejaVuSans-49"/>
      <use x="63.623047" xlink:href="#DejaVuSans-46"/>
      <use x="95.410156" xlink:href="#DejaVuSans-55"/>
     </g>
    </g>
   </g>
   <g id="text_67">
    <g clip-path="url(#p040eb2c597)">
     <!-- 1.8 -->
     <defs>
      <path d="M 31.78125 34.625 
Q 24.75 34.625 20.71875 30.859375 
Q 16.703125 27.09375 16.703125 20.515625 
Q 16.703125 13.921875 20.71875 10.15625 
Q 24.75 6.390625 31.78125 6.390625 
Q 38.8125 6.390625 42.859375 10.171875 
Q 46.921875 13.96875 46.921875 20.515625 
Q 46.921875 27.09375 42.890625 30.859375 
Q 38.875 34.625 31.78125 34.625 
z
M 21.921875 38.8125 
Q 15.578125 40.375 12.03125 44.71875 
Q 8.5 49.078125 8.5 55.328125 
Q 8.5 64.0625 14.71875 69.140625 
Q 20.953125 74.21875 31.78125 74.21875 
Q 42.671875 74.21875 48.875 69.140625 
Q 55.078125 64.0625 55.078125 55.328125 
Q 55.078125 49.078125 51.53125 44.71875 
Q 48 40.375 41.703125 38.8125 
Q 48.828125 37.15625 52.796875 32.3125 
Q 56.78125 27.484375 56.78125 20.515625 
Q 56.78125 9.90625 50.3125 4.234375 
Q 43.84375 -1.421875 31.78125 -1.421875 
Q 19.734375 -1.421875 13.25 4.234375 
Q 6.78125 9.90625 6.78125 20.515625 
Q 6.78125 27.484375 10.78125 32.3125 
Q 14.796875 37.15625 21.921875 38.8125 
z
M 18.3125 54.390625 
Q 18.3125 48.734375 21.84375 45.5625 
Q 25.390625 42.390625 31.78125 42.390625 
Q 38.140625 42.390625 41.71875 45.5625 
Q 45.3125 48.734375 45.3125 54.390625 
Q 45.3125 60.0625 41.71875 63.234375 
Q 38.140625 66.40625 31.78125 66.40625 
Q 25.390625 66.40625 21.84375 63.234375 
Q 18.3125 60.0625 18.3125 54.390625 
z
" id="DejaVuSans-56"/>
     </defs>
     <g transform="translate(509.648546 354.075299)scale(0.1 -0.1)">
      <use xlink:href="#DejaVuSans-49"/>
      <use x="63.623047" xlink:href="#DejaVuSans-46"/>
      <use x="95.410156" xlink:href="#DejaVuSans-56"/>
     </g>
    </g>
   </g>
   <g id="text_68">
    <g clip-path="url(#p040eb2c597)">
     <!-- 1.9 -->
     <defs>
      <path d="M 10.984375 1.515625 
L 10.984375 10.5 
Q 14.703125 8.734375 18.5 7.8125 
Q 22.3125 6.890625 25.984375 6.890625 
Q 35.75 6.890625 40.890625 13.453125 
Q 46.046875 20.015625 46.78125 33.40625 
Q 43.953125 29.203125 39.59375 26.953125 
Q 35.25 24.703125 29.984375 24.703125 
Q 19.046875 24.703125 12.671875 31.3125 
Q 6.296875 37.9375 6.296875 49.421875 
Q 6.296875 60.640625 12.9375 67.421875 
Q 19.578125 74.21875 30.609375 74.21875 
Q 43.265625 74.21875 49.921875 64.515625 
Q 56.59375 54.828125 56.59375 36.375 
Q 56.59375 19.140625 48.40625 8.859375 
Q 40.234375 -1.421875 26.421875 -1.421875 
Q 22.703125 -1.421875 18.890625 -0.6875 
Q 15.09375 0.046875 10.984375 1.515625 
z
M 30.609375 32.421875 
Q 37.25 32.421875 41.125 36.953125 
Q 45.015625 41.5 45.015625 49.421875 
Q 45.015625 57.28125 41.125 61.84375 
Q 37.25 66.40625 30.609375 66.40625 
Q 23.96875 66.40625 20.09375 61.84375 
Q 16.21875 57.28125 16.21875 49.421875 
Q 16.21875 41.5 20.09375 36.953125 
Q 23.96875 32.421875 30.609375 32.421875 
z
" id="DejaVuSans-57"/>
     </defs>
     <g transform="translate(574.848627 273.768531)scale(0.1 -0.1)">
      <use xlink:href="#DejaVuSans-49"/>
      <use x="63.623047" xlink:href="#DejaVuSans-46"/>
      <use x="95.410156" xlink:href="#DejaVuSans-57"/>
     </g>
    </g>
   </g>
   <g id="text_69">
    <g clip-path="url(#p040eb2c597)">
     <!-- 1.10 -->
     <defs>
      <path d="M 31.78125 66.40625 
Q 24.171875 66.40625 20.328125 58.90625 
Q 16.5 51.421875 16.5 36.375 
Q 16.5 21.390625 20.328125 13.890625 
Q 24.171875 6.390625 31.78125 6.390625 
Q 39.453125 6.390625 43.28125 13.890625 
Q 47.125 21.390625 47.125 36.375 
Q 47.125 51.421875 43.28125 58.90625 
Q 39.453125 66.40625 31.78125 66.40625 
z
M 31.78125 74.21875 
Q 44.046875 74.21875 50.515625 64.515625 
Q 56.984375 54.828125 56.984375 36.375 
Q 56.984375 17.96875 50.515625 8.265625 
Q 44.046875 -1.421875 31.78125 -1.421875 
Q 19.53125 -1.421875 13.0625 8.265625 
Q 6.59375 17.96875 6.59375 36.375 
Q 6.59375 54.828125 13.0625 64.515625 
Q 19.53125 74.21875 31.78125 74.21875 
z
" id="DejaVuSans-48"/>
     </defs>
     <g transform="translate(649.907474 192.344608)scale(0.1 -0.1)">
      <use xlink:href="#DejaVuSans-49"/>
      <use x="63.623047" xlink:href="#DejaVuSans-46"/>
      <use x="95.410156" xlink:href="#DejaVuSans-49"/>
      <use x="159.033203" xlink:href="#DejaVuSans-48"/>
     </g>
    </g>
   </g>
   <g id="text_70">
    <g clip-path="url(#p040eb2c597)">
     <!-- IMPLICIT -->
     <defs>
      <path d="M 9.8125 72.90625 
L 19.671875 72.90625 
L 19.671875 0 
L 9.8125 0 
z
" id="DejaVuSans-73"/>
     </defs>
     <g transform="translate(757.315276 434.382067)scale(0.1 -0.1)">
      <use xlink:href="#DejaVuSans-73"/>
      <use x="29.492188" xlink:href="#DejaVuSans-77"/>
      <use x="115.771484" xlink:href="#DejaVuSans-80"/>
      <use x="176.074219" xlink:href="#DejaVuSans-76"/>
      <use x="231.787109" xlink:href="#DejaVuSans-73"/>
      <use x="261.279297" xlink:href="#DejaVuSans-67"/>
      <use x="331.103516" xlink:href="#DejaVuSans-73"/>
      <use x="360.595703" xlink:href="#DejaVuSans-84"/>
     </g>
    </g>
   </g>
   <g id="text_71">
    <g clip-path="url(#p040eb2c597)">
     <!-- 1.12 -->
     <g transform="translate(636.867458 354.075299)scale(0.1 -0.1)">
      <use xlink:href="#DejaVuSans-49"/>
      <use x="63.623047" xlink:href="#DejaVuSans-46"/>
      <use x="95.410156" xlink:href="#DejaVuSans-49"/>
      <use x="159.033203" xlink:href="#DejaVuSans-50"/>
     </g>
    </g>
   </g>
   <g id="text_72">
    <g clip-path="url(#p040eb2c597)">
     <!-- 1.13 -->
     <g transform="translate(680.334178 354.075299)scale(0.1 -0.1)">
      <use xlink:href="#DejaVuSans-49"/>
      <use x="63.623047" xlink:href="#DejaVuSans-46"/>
      <use x="95.410156" xlink:href="#DejaVuSans-49"/>
      <use x="159.033203" xlink:href="#DejaVuSans-51"/>
     </g>
    </g>
   </g>
   <g id="text_73">
    <g clip-path="url(#p040eb2c597)">
     <!-- 1.14 -->
     <g transform="translate(549.934016 354.075299)scale(0.1 -0.1)">
      <use xlink:href="#DejaVuSans-49"/>
      <use x="63.623047" xlink:href="#DejaVuSans-46"/>
      <use x="95.410156" xlink:href="#DejaVuSans-49"/>
      <use x="159.033203" xlink:href="#DejaVuSans-52"/>
     </g>
    </g>
   </g>
   <g id="text_74">
    <g clip-path="url(#p040eb2c597)">
     <!-- 1.15 -->
     <defs>
      <path d="M 10.796875 72.90625 
L 49.515625 72.90625 
L 49.515625 64.59375 
L 19.828125 64.59375 
L 19.828125 46.734375 
Q 21.96875 47.46875 24.109375 47.828125 
Q 26.265625 48.1875 28.421875 48.1875 
Q 40.625 48.1875 47.75 41.5 
Q 54.890625 34.8125 54.890625 23.390625 
Q 54.890625 11.625 47.5625 5.09375 
Q 40.234375 -1.421875 26.90625 -1.421875 
Q 22.3125 -1.421875 17.546875 -0.640625 
Q 12.796875 0.140625 7.71875 1.703125 
L 7.71875 11.625 
Q 12.109375 9.234375 16.796875 8.0625 
Q 21.484375 6.890625 26.703125 6.890625 
Q 35.15625 6.890625 40.078125 11.328125 
Q 45.015625 15.765625 45.015625 23.390625 
Q 45.015625 31 40.078125 35.4375 
Q 35.15625 39.890625 26.703125 39.890625 
Q 22.75 39.890625 18.8125 39.015625 
Q 14.890625 38.140625 10.796875 36.28125 
z
" id="DejaVuSans-53"/>
     </defs>
     <g transform="translate(593.400737 354.075299)scale(0.1 -0.1)">
      <use xlink:href="#DejaVuSans-49"/>
      <use x="63.623047" xlink:href="#DejaVuSans-46"/>
      <use x="95.410156" xlink:href="#DejaVuSans-49"/>
      <use x="159.033203" xlink:href="#DejaVuSans-53"/>
     </g>
    </g>
   </g>
   <g id="text_75">
    <g clip-path="url(#p040eb2c597)">
     <!-- 1.16 -->
     <defs>
      <path d="M 33.015625 40.375 
Q 26.375 40.375 22.484375 35.828125 
Q 18.609375 31.296875 18.609375 23.390625 
Q 18.609375 15.53125 22.484375 10.953125 
Q 26.375 6.390625 33.015625 6.390625 
Q 39.65625 6.390625 43.53125 10.953125 
Q 47.40625 15.53125 47.40625 23.390625 
Q 47.40625 31.296875 43.53125 35.828125 
Q 39.65625 40.375 33.015625 40.375 
z
M 52.59375 71.296875 
L 52.59375 62.3125 
Q 48.875 64.0625 45.09375 64.984375 
Q 41.3125 65.921875 37.59375 65.921875 
Q 27.828125 65.921875 22.671875 59.328125 
Q 17.53125 52.734375 16.796875 39.40625 
Q 19.671875 43.65625 24.015625 45.921875 
Q 28.375 48.1875 33.59375 48.1875 
Q 44.578125 48.1875 50.953125 41.515625 
Q 57.328125 34.859375 57.328125 23.390625 
Q 57.328125 12.15625 50.6875 5.359375 
Q 44.046875 -1.421875 33.015625 -1.421875 
Q 20.359375 -1.421875 13.671875 8.265625 
Q 6.984375 17.96875 6.984375 36.375 
Q 6.984375 53.65625 15.1875 63.9375 
Q 23.390625 74.21875 37.203125 74.21875 
Q 40.921875 74.21875 44.703125 73.484375 
Q 48.484375 72.75 52.59375 71.296875 
z
" id="DejaVuSans-54"/>
     </defs>
     <g transform="translate(419.533854 354.075299)scale(0.1 -0.1)">
      <use xlink:href="#DejaVuSans-49"/>
      <use x="63.623047" xlink:href="#DejaVuSans-46"/>
      <use x="95.410156" xlink:href="#DejaVuSans-49"/>
      <use x="159.033203" xlink:href="#DejaVuSans-54"/>
     </g>
    </g>
   </g>
   <g id="text_76">
    <g clip-path="url(#p040eb2c597)">
     <!-- 1.17 -->
     <g transform="translate(463.000575 354.075299)scale(0.1 -0.1)">
      <use xlink:href="#DejaVuSans-49"/>
      <use x="63.623047" xlink:href="#DejaVuSans-46"/>
      <use x="95.410156" xlink:href="#DejaVuSans-49"/>
      <use x="159.033203" xlink:href="#DejaVuSans-55"/>
     </g>
    </g>
   </g>
   <g id="text_77">
    <g clip-path="url(#p040eb2c597)">
     <!-- IMPLICIT -->
     <g transform="translate(800.781997 434.382067)scale(0.1 -0.1)">
      <use xlink:href="#DejaVuSans-73"/>
      <use x="29.492188" xlink:href="#DejaVuSans-77"/>
      <use x="115.771484" xlink:href="#DejaVuSans-80"/>
      <use x="176.074219" xlink:href="#DejaVuSans-76"/>
      <use x="231.787109" xlink:href="#DejaVuSans-73"/>
      <use x="261.279297" xlink:href="#DejaVuSans-67"/>
      <use x="331.103516" xlink:href="#DejaVuSans-73"/>
      <use x="360.595703" xlink:href="#DejaVuSans-84"/>
     </g>
    </g>
   </g>
   <g id="text_78">
    <g clip-path="url(#p040eb2c597)">
     <!-- 1.19 -->
     <g transform="translate(144.244623 192.344608)scale(0.1 -0.1)">
      <use xlink:href="#DejaVuSans-49"/>
      <use x="63.623047" xlink:href="#DejaVuSans-46"/>
      <use x="95.410156" xlink:href="#DejaVuSans-49"/>
      <use x="159.033203" xlink:href="#DejaVuSans-57"/>
     </g>
    </g>
   </g>
   <g id="text_79">
    <g clip-path="url(#p040eb2c597)">
     <!-- 1.20 -->
     <g transform="translate(245.666971 354.075299)scale(0.1 -0.1)">
      <use xlink:href="#DejaVuSans-49"/>
      <use x="63.623047" xlink:href="#DejaVuSans-46"/>
      <use x="95.410156" xlink:href="#DejaVuSans-50"/>
      <use x="159.033203" xlink:href="#DejaVuSans-48"/>
     </g>
    </g>
   </g>
   <g id="text_80">
    <g clip-path="url(#p040eb2c597)">
     <!-- 1.21 -->
     <g transform="translate(289.133692 354.075299)scale(0.1 -0.1)">
      <use xlink:href="#DejaVuSans-49"/>
      <use x="63.623047" xlink:href="#DejaVuSans-46"/>
      <use x="95.410156" xlink:href="#DejaVuSans-50"/>
      <use x="159.033203" xlink:href="#DejaVuSans-49"/>
     </g>
    </g>
   </g>
   <g id="text_81">
    <g clip-path="url(#p040eb2c597)">
     <!-- 1.22 -->
     <g transform="translate(71.800089 273.768531)scale(0.1 -0.1)">
      <use xlink:href="#DejaVuSans-49"/>
      <use x="63.623047" xlink:href="#DejaVuSans-46"/>
      <use x="95.410156" xlink:href="#DejaVuSans-50"/>
      <use x="159.033203" xlink:href="#DejaVuSans-50"/>
     </g>
    </g>
   </g>
   <g id="text_82">
    <g clip-path="url(#p040eb2c597)">
     <!-- 1.23 -->
     <g transform="translate(158.73353 354.075299)scale(0.1 -0.1)">
      <use xlink:href="#DejaVuSans-49"/>
      <use x="63.623047" xlink:href="#DejaVuSans-46"/>
      <use x="95.410156" xlink:href="#DejaVuSans-50"/>
      <use x="159.033203" xlink:href="#DejaVuSans-51"/>
     </g>
    </g>
   </g>
   <g id="text_83">
    <g clip-path="url(#p040eb2c597)">
     <!-- 1.24 -->
     <g transform="translate(202.200251 354.075299)scale(0.1 -0.1)">
      <use xlink:href="#DejaVuSans-49"/>
      <use x="63.623047" xlink:href="#DejaVuSans-46"/>
      <use x="95.410156" xlink:href="#DejaVuSans-50"/>
      <use x="159.033203" xlink:href="#DejaVuSans-52"/>
     </g>
    </g>
   </g>
   <g id="text_84">
    <g clip-path="url(#p040eb2c597)">
     <!-- 1.25 -->
     <g transform="translate(28.333368 354.075299)scale(0.1 -0.1)">
      <use xlink:href="#DejaVuSans-49"/>
      <use x="63.623047" xlink:href="#DejaVuSans-46"/>
      <use x="95.410156" xlink:href="#DejaVuSans-50"/>
      <use x="159.033203" xlink:href="#DejaVuSans-53"/>
     </g>
    </g>
   </g>
   <g id="text_85">
    <g clip-path="url(#p040eb2c597)">
     <!-- 1.26 -->
     <g transform="translate(71.800089 354.075299)scale(0.1 -0.1)">
      <use xlink:href="#DejaVuSans-49"/>
      <use x="63.623047" xlink:href="#DejaVuSans-46"/>
      <use x="95.410156" xlink:href="#DejaVuSans-50"/>
      <use x="159.033203" xlink:href="#DejaVuSans-54"/>
     </g>
    </g>
   </g>
   <g id="text_86">
    <g clip-path="url(#p040eb2c597)">
     <!-- 1.27 -->
     <g transform="translate(115.266809 354.075299)scale(0.1 -0.1)">
      <use xlink:href="#DejaVuSans-49"/>
      <use x="63.623047" xlink:href="#DejaVuSans-46"/>
      <use x="95.410156" xlink:href="#DejaVuSans-50"/>
      <use x="159.033203" xlink:href="#DejaVuSans-55"/>
     </g>
    </g>
   </g>
   <g id="text_87">
    <g clip-path="url(#p040eb2c597)">
     <!-- 1.28 -->
     <g transform="translate(332.600413 354.075299)scale(0.1 -0.1)">
      <use xlink:href="#DejaVuSans-49"/>
      <use x="63.623047" xlink:href="#DejaVuSans-46"/>
      <use x="95.410156" xlink:href="#DejaVuSans-50"/>
      <use x="159.033203" xlink:href="#DejaVuSans-56"/>
     </g>
    </g>
   </g>
   <g id="text_88">
    <g clip-path="url(#p040eb2c597)">
     <!-- 1.29 -->
     <g transform="translate(723.800899 354.075299)scale(0.1 -0.1)">
      <use xlink:href="#DejaVuSans-49"/>
      <use x="63.623047" xlink:href="#DejaVuSans-46"/>
      <use x="95.410156" xlink:href="#DejaVuSans-50"/>
      <use x="159.033203" xlink:href="#DejaVuSans-57"/>
     </g>
    </g>
   </g>
  </g>
 </g>
 <defs>
  <clipPath id="p040eb2c597">
   <rect height="453.333333" width="861.333333" x="0" y="0"/>
  </clipPath>
 </defs>
</svg>
