<?xml version="1.0" encoding="UTF-8"?>
<!DOCTYPE svg  PUBLIC '-//W3C//DTD SVG 1.1//EN'  'http://www.w3.org/Graphics/SVG/1.1/DTD/svg11.dtd'>
<svg width="1469.3pt" height="773.33pt" version="1.1" viewBox="0 0 1469.3 773.33" xmlns="http://www.w3.org/2000/svg" xmlns:xlink="http://www.w3.org/1999/xlink">
<defs>
<style type="text/css">*{stroke-linecap:butt;stroke-linejoin:round;}</style>
</defs>
<path d="m0 773.33h1469.3v-773.33h-1469.3z" fill="#fff"/>
<g fill="none" stroke="#000">
<path d="m646.74 36.259-555.9 426.22" clip-path="url(#a)"/>
<path d="m646.74 36.259-416.8 145.12" clip-path="url(#a)"/>
<path d="m646.74 36.259-102.83 563.52" clip-path="url(#a)"/>
<path d="m646.74 36.259-55.143 563.52" clip-path="url(#a)"/>
<path d="m646.74 36.259 223.06 145.12" clip-path="url(#a)"/>
<path d="m646.74 36.259 588.69 287.01" clip-path="url(#a)"/>
<path d="m646.74 36.259-150.53 563.52" clip-path="url(#a)"/>
<path d="m646.74 36.259 469.46 563.52" clip-path="url(#a)"/>
<path d="m90.836 462.48-23.846 137.3" clip-path="url(#a)"/>
<path d="m90.836 462.48 23.846 137.3" clip-path="url(#a)"/>
<path d="m229.94 181.38-67.562 418.4" clip-path="url(#a)"/>
<path d="m229.94 181.38-19.871 418.4" clip-path="url(#a)"/>
<path d="m229.94 181.38 87.434 141.89" clip-path="url(#a)"/>
<path d="m543.9 599.78v137.3" clip-path="url(#a)"/>
<path d="m591.59 599.78v137.3" clip-path="url(#a)"/>
<path d="m869.79 181.38-174.87 141.89" clip-path="url(#a)"/>
<path d="m869.79 181.38-39.743 418.4" clip-path="url(#a)"/>
<path d="m869.79 181.38 7.9485 418.4" clip-path="url(#a)"/>
<path d="m869.79 181.38 55.64 418.4" clip-path="url(#a)"/>
<path d="m869.79 181.38 151.02 281.1" clip-path="url(#a)"/>
<path d="m1235.4 323.27-71.537 276.51" clip-path="url(#a)"/>
<path d="m1235.4 323.27-23.846 276.51" clip-path="url(#a)"/>
<path d="m1235.4 323.27 95.382 139.21" clip-path="url(#a)"/>
<path d="m1163.9 599.78v137.3" clip-path="url(#a)"/>
<path d="m1211.6 599.78v137.3" clip-path="url(#a)"/>
<path d="m1330.8 462.48-71.537 137.3" clip-path="url(#a)"/>
<path d="m1330.8 462.48-23.846 137.3" clip-path="url(#a)"/>
<path d="m1330.8 462.48 23.846 137.3" clip-path="url(#a)"/>
<path d="m1330.8 462.48 71.537 137.3" clip-path="url(#a)"/>
<path d="m1259.3 599.78v137.3" clip-path="url(#a)"/>
<path d="m1307 599.78v137.3" clip-path="url(#a)"/>
<path d="m1354.7 599.78v137.3" clip-path="url(#a)"/>
<path d="m694.92 323.27-55.64 276.51" clip-path="url(#a)"/>
<path d="m694.92 323.27-7.9485 276.51" clip-path="url(#a)"/>
<path d="m694.92 323.27 63.588 139.21" clip-path="url(#a)"/>
<path d="m830.05 599.78v137.3" clip-path="url(#a)"/>
<path d="m877.74 599.78v137.3" clip-path="url(#a)"/>
<path d="m925.43 599.78v137.3" clip-path="url(#a)"/>
<path d="m1020.8 462.48-47.691 137.3" clip-path="url(#a)"/>
<path d="m1020.8 462.48v137.3" clip-path="url(#a)"/>
<path d="m1020.8 462.48 47.691 137.3" clip-path="url(#a)"/>
<path d="m973.12 599.78v137.3" clip-path="url(#a)"/>
<path d="m1020.8 599.78v137.3" clip-path="url(#a)"/>
<path d="m1068.5 599.78v137.3" clip-path="url(#a)"/>
<path d="m639.28 599.78v137.3" clip-path="url(#a)"/>
<path d="m686.98 599.78v137.3" clip-path="url(#a)"/>
<path d="m758.51 462.48-23.846 137.3" clip-path="url(#a)"/>
<path d="m758.51 462.48 23.846 137.3" clip-path="url(#a)"/>
<path d="m734.67 599.78v137.3" clip-path="url(#a)"/>
<path d="m782.36 599.78v137.3" clip-path="url(#a)"/>
<path d="m162.37 599.78v137.3" clip-path="url(#a)"/>
<path d="m210.06 599.78v137.3" clip-path="url(#a)"/>
<path d="m317.37 323.27-59.614 276.51" clip-path="url(#a)"/>
<path d="m317.37 323.27-11.923 276.51" clip-path="url(#a)"/>
<path d="m317.37 323.27 71.537 139.21" clip-path="url(#a)"/>
<path d="m257.75 599.78v137.3" clip-path="url(#a)"/>
<path d="m305.45 599.78v137.3" clip-path="url(#a)"/>
<path d="m388.91 462.48-35.768 137.3" clip-path="url(#a)"/>
<path d="m388.91 462.48 35.768 137.3" clip-path="url(#a)"/>
<path d="m353.14 599.78v137.3" clip-path="url(#a)"/>
<path d="m424.67 599.78-23.846 137.3" clip-path="url(#a)"/>
<path d="m424.67 599.78 23.846 137.3" clip-path="url(#a)"/>
<path d="m66.99 599.78v137.3" clip-path="url(#a)"/>
<path d="m114.68 599.78v137.3" clip-path="url(#a)"/>
<path d="m160.39 36.259-69.55 426.22" clip-path="url(#a)"/>
<path d="m160.39 36.259 69.55 145.12" clip-path="url(#a)"/>
<path d="m496.21 599.78v137.3" clip-path="url(#a)"/>
<path d="m1116.2 599.78v137.3" clip-path="url(#a)"/>
<path d="m1402.3 599.78v137.3" clip-path="url(#a)"/>
</g>
<path d="m370.83 255.7 3.5374-2.7122q1.9046-1.4603 0.44431-3.3649l-4.711-6.1443q-1.4603-1.9046-3.3649-0.44431l-3.5374 2.7122q-1.9046 1.4603-0.44431 3.3649l4.711 6.1443q1.4603 1.9046 3.3649 0.44431z" clip-path="url(#a)" fill="#fff" stroke="#fff"/>
<g clip-path="url(#a)">
<defs>
<path id="u" d="m9.8125 72.906h9.8594v-64.609h35.5v-8.2969h-45.359z"/>
</defs>
<g transform="translate(368.36 252.48) rotate(-37.478) scale(.08 -.08)">
<use xlink:href="#u"/>
</g>
</g>
<path d="m437.56 115.73 5.6817-1.9783q2.2665-0.78917 1.4774-3.0557l-2.5459-7.312q-0.78917-2.2665-3.0557-1.4774l-5.6817 1.9783q-2.2665 0.78917-1.4774 3.0557l2.5459 7.312q0.78917 2.2665 3.0557 1.4774z" clip-path="url(#a)" fill="#fff" stroke="#fff"/>
<g clip-path="url(#a)">
<defs>
<path id="ag" d="m9.8125 72.906h9.8594v-29.891h35.844v29.891h9.8594v-72.906h-9.8594v34.719h-35.844v-34.719h-9.8594z"/>
</defs>
<g transform="translate(436.22 111.89) rotate(-19.197) scale(.08 -.08)">
<use xlink:href="#ag"/>
</g>
</g>
<path d="m601.09 321.34 0.80022-4.3851q0.43085-2.361-1.9302-2.7919l-7.6167-1.3899q-2.361-0.43085-2.7919 1.9302l-0.80022 4.3851q-0.43085 2.361 1.9302 2.7919l7.6167 1.3899q2.361 0.43085 2.7919-1.9302z" clip-path="url(#a)" fill="#fff" stroke="#fff"/>
<g clip-path="url(#a)">
<g transform="translate(597.09 320.61) rotate(-79.658) scale(.08 -.08)">
<use xlink:href="#u"/>
</g>
</g>
<path d="m625.19 320.85 0.43411-4.4363q0.23374-2.3886-2.1549-2.6223l-7.7057-0.75404q-2.3886-0.23374-2.6223 2.1549l-0.43411 4.4363q-0.23374 2.3886 2.1549 2.6223l7.7057 0.75404q2.3886 0.23374 2.6223-2.1549z" clip-path="url(#a)" fill="#fff" stroke="#fff"/>
<g clip-path="url(#a)">
<g transform="translate(621.14 320.45) rotate(-84.411) scale(.08 -.08)">
<use xlink:href="#u"/>
</g>
</g>
<path d="m752.32 112.44 5.0429 3.2809q2.0117 1.3088 3.3205-0.70287l4.2224-6.4898q1.3088-2.0117-0.70287-3.3205l-5.0429-3.2809q-2.0117-1.3088-3.3205 0.70287l-4.2224 6.4898q-1.3088 2.0117 0.70287 3.3205z" clip-path="url(#a)" fill="#fff" stroke="#fff"/>
<g clip-path="url(#a)">
<g transform="translate(754.54 109.03) rotate(33.048) scale(.08 -.08)">
<use xlink:href="#ag"/>
</g>
</g>
<path d="m935.63 184.08 5.4078 2.6365q2.1573 1.0518 3.209-1.1055l3.393-6.9594q1.0518-2.1573-1.1055-3.209l-5.4078-2.6365q-2.1573-1.0518-3.209 1.1055l-3.393 6.9594q-1.0518 2.1573 1.1055 3.209z" clip-path="url(#a)" fill="#fff" stroke="#fff"/>
<g clip-path="url(#a)">
<g transform="translate(937.41 180.43) rotate(25.991) scale(.08 -.08)">
<use xlink:href="#ag"/>
</g>
</g>
<path d="m576.78 322.46 1.511-5.6567q0.61936-2.3187-1.6993-2.9381l-7.4802-1.9981q-2.3187-0.61937-2.9381 1.6993l-1.511 5.6567q-0.61936 2.3187 1.6993 2.9381l7.4802 1.9981q2.3187 0.61936 2.9381-1.6993z" clip-path="url(#a)" fill="#fff" stroke="#fff"/>
<g clip-path="url(#a)">
<defs>
<path id="ae" d="m8.6875 72.906h9.9219v-44.297q0-11.719 4.2344-16.875 4.25-5.1406 13.781-5.1406 9.4688 0 13.719 5.1406 4.25 5.1562 4.25 16.875v44.297h9.9062v-45.516q0-14.25-7.0625-21.531-7.0469-7.2812-20.812-7.2812-13.828 0-20.891 7.2812-7.0469 7.2812-7.0469 21.531z"/>
</defs>
<g transform="translate(572.85 321.42) rotate(-75.044) scale(.08 -.08)">
<use xlink:href="#ae"/>
</g>
</g>
<path d="m874.77 319.78 3.7476 4.4985q1.5362 1.844 3.3801 0.30778l5.9487-4.9558q1.844-1.5362 0.30778-3.3801l-3.7476-4.4985q-1.5362-1.844-3.3801-0.30778l-5.9487 4.9558q-1.844 1.5362-0.30778 3.3801z" clip-path="url(#a)" fill="#fff" stroke="#fff"/>
<g clip-path="url(#a)">
<g transform="translate(877.9 317.18) rotate(50.203) scale(.08 -.08)">
<use xlink:href="#ae"/>
</g>
</g>
<path d="m84.616 534.94 0.95119-5.4768q0.41068-2.3646-1.9539-2.7753l-7.6283-1.3249q-2.3646-0.41068-2.7753 1.9539l-0.95119 5.4768q-0.41068 2.3646 1.9539 2.7753l7.6283 1.3249q2.3646 0.41068 2.7753-1.9539z" clip-path="url(#a)" fill="#fff" stroke="#fff"/>
<g clip-path="url(#a)">
<defs>
<path id="t" d="m44.391 34.188q3.1719-1.0781 6.1719-4.5938t6.0312-9.6719l10.016-19.922h-10.609l-9.3125 18.703q-3.625 7.3281-7.0156 9.7188t-9.25 2.3906h-10.75v-30.812h-9.8594v72.906h22.266q12.5 0 18.656-5.2344 6.1562-5.2188 6.1562-15.766 0-6.8906-3.2031-11.438-3.2031-4.5312-9.2969-6.2812zm-24.719 30.609v-25.875h12.406q7.125 0 10.766 3.2969t3.6406 9.6875-3.6406 9.6406-10.766 3.25z"/>
</defs>
<g transform="translate(80.612 534.24) rotate(-80.147) scale(.08 -.08)">
<use xlink:href="#t"/>
</g>
</g>
<path d="m96.102 529.45 0.95589 5.5039q0.41068 2.3646 2.7753 1.9539l7.6283-1.3249q2.3646-0.41068 1.9539-2.7753l-0.95589-5.5039q-0.41068-2.3646-2.7753-1.9539l-7.6283 1.3249q-2.3646 0.41068-1.9539 2.7753z" clip-path="url(#a)" fill="#fff" stroke="#fff"/>
<g clip-path="url(#a)">
<defs>
<path id="p" d="m64.406 67.281v-10.391q-4.9844 4.6406-10.625 6.9219-5.6406 2.2969-11.984 2.2969-12.5 0-19.141-7.6406t-6.6406-22.094q0-14.406 6.6406-22.047t19.141-7.6406q6.3438 0 11.984 2.2969t10.625 6.9375v-10.312q-5.1719-3.5156-10.969-5.2812-5.7812-1.75-12.219-1.75-16.562 0-26.094 10.125-9.5156 10.141-9.5156 27.672 0 17.578 9.5156 27.703 9.5312 10.141 26.094 10.141 6.5312 0 12.312-1.7344 5.7969-1.7344 10.875-5.2031z"/>
</defs>
<g transform="translate(100.11 528.75) rotate(80.147) scale(.08 -.08)">
<use xlink:href="#p"/>
</g>
</g>
<path d="m201.91 394.28 0.8724-5.4025q0.3826-2.3693-1.9867-2.7519l-7.6435-1.2343q-2.3693-0.3826-2.7519 1.9867l-0.8724 5.4025q-0.3826 2.3693 1.9867 2.7519l7.6435 1.2343q2.3693 0.3826 2.7519-1.9867z" clip-path="url(#a)" fill="#fff" stroke="#fff"/>
<g clip-path="url(#a)">
<defs>
<path id="s" d="m34.188 63.188-13.391-36.281h26.812zm-5.5781 9.7188h11.188l27.781-72.906h-10.25l-6.6406 18.703h-32.859l-6.6406-18.703h-10.406z"/>
</defs>
<g transform="translate(197.9 393.63) rotate(-80.827) scale(.08 -.08)">
<use xlink:href="#s"/>
</g>
</g>
<path d="m226.15 393.29 0.22884-4.8183q0.11386-2.3973-2.2834-2.5112l-7.7338-0.36731q-2.3973-0.11386-2.5112 2.2834l-0.22884 4.8183q-0.11386 2.3973 2.2834 2.5112l7.7338 0.36731q2.3973 0.11386 2.5112-2.2834z" clip-path="url(#a)" fill="#fff" stroke="#fff"/>
<g clip-path="url(#a)">
<defs>
<path id="af" d="m19.672 64.797v-27.391h12.406q6.8906 0 10.641 3.5625 3.7656 3.5625 3.7656 10.156 0 6.5469-3.7656 10.109-3.75 3.5625-10.641 3.5625zm-9.8594 8.1094h22.266q12.266 0 18.531-5.5469 6.2812-5.5469 6.2812-16.234 0-10.797-6.2812-16.312-6.2656-5.5156-18.531-5.5156h-12.406v-29.297h-9.8594z"/>
</defs>
<g transform="translate(222.09 393.09) rotate(-87.281) scale(.08 -.08)">
<use xlink:href="#af"/>
</g>
</g>
<path d="m266.88 253.29 2.8709 4.659q1.2591 2.0432 3.3023 0.78416l6.5915-4.0618q2.0432-1.2591 0.78416-3.3023l-2.8709-4.659q-1.2591-2.0432-3.3023-0.78416l-6.5915 4.0618q-2.0432 1.2591-0.78416 3.3023z" clip-path="url(#a)" fill="#fff" stroke="#fff"/>
<g clip-path="url(#a)">
<g transform="translate(270.34 251.15) rotate(58.358) scale(.08 -.08)">
<use xlink:href="#s"/>
</g>
</g>
<path d="m537.63 650.78v35.285q0 2.4 2.4 2.4h7.7425q2.4 0 2.4-2.4v-35.285q0-2.4-2.4-2.4h-7.7425q-2.4 0-2.4 2.4z" clip-path="url(#a)" fill="#fff" stroke="#fff"/>
<g clip-path="url(#a)">
<defs>
<path id="l" d="m-0.29688 72.906h61.672v-8.3125h-25.875v-64.594h-9.9062v64.594h-25.891z"/>
<path id="d" d="m56.203 29.594v-4.3906h-41.312q0.59375-9.2812 5.5938-14.141t13.938-4.8594q5.1719 0 10.031 1.2656t9.6562 3.8125v-8.5q-4.8438-2.0469-9.9219-3.125t-10.297-1.0781q-13.094 0-20.734 7.6094-7.6406 7.625-7.6406 20.625 0 13.422 7.25 21.297 7.25 7.8906 19.562 7.8906 11.031 0 17.453-7.1094 6.4219-7.0938 6.4219-19.297zm-8.9844 2.6406q-0.09375 7.3594-4.125 11.75-4.0312 4.4062-10.672 4.4062-7.5156 0-12.031-4.25t-5.2031-11.969z"/>
<path id="i" d="m41.109 46.297q-1.5156 0.875-3.2969 1.2812-1.7812 0.42188-3.9219 0.42188-7.625 0-11.703-4.9531t-4.0781-14.234v-28.812h-9.0312v54.688h9.0312v-8.5q2.8438 4.9844 7.375 7.3906 4.5469 2.4219 11.047 2.4219 0.92188 0 2.0469-0.125 1.125-0.10938 2.4844-0.35938z"/>
<path id="k" d="m52 44.188q3.375 6.0625 8.0625 8.9375t11.031 2.875q8.5469 0 13.188-5.9844 4.6406-5.9688 4.6406-17v-33.016h-9.0312v32.719q0 7.8594-2.7969 11.656-2.7812 3.8125-8.4844 3.8125-6.9844 0-11.047-4.6406-4.0469-4.625-4.0469-12.641v-30.906h-9.0312v32.719q0 7.9062-2.7812 11.688t-8.5938 3.7812q-6.8906 0-10.953-4.6562-4.0469-4.6562-4.0469-12.625v-30.906h-9.0312v54.688h9.0312v-8.5q3.0781 5.0312 7.375 7.4219t10.203 2.3906q5.9688 0 10.141-3.0312 4.1719-3.0156 6.1719-8.7812z"/>
<path id="h" d="m9.4219 54.688h8.9844v-54.688h-8.9844zm0 21.297h8.9844v-11.391h-8.9844z"/>
<path id="j" d="m54.891 33.016v-33.016h-8.9844v32.719q0 7.7656-3.0312 11.609-3.0312 3.8594-9.0781 3.8594-7.2812 0-11.484-4.6406-4.2031-4.625-4.2031-12.641v-30.906h-9.0312v54.688h9.0312v-8.5q3.2344 4.9375 7.5938 7.375 4.375 2.4375 10.094 2.4375 9.4219 0 14.25-5.8281 4.8438-5.8281 4.8438-17.156z"/>
<path id="f" d="m34.281 27.484q-10.891 0-15.094-2.4844t-4.2031-8.5q0-4.7812 3.1562-7.5938 3.1562-2.7969 8.5625-2.7969 7.4844 0 12 5.2969t4.5156 14.078v2zm17.922 3.7188v-31.203h-8.9844v8.2969q-3.0781-4.9688-7.6719-7.3438t-11.234-2.375q-8.3906 0-13.359 4.7188-4.9531 4.7188-4.9531 12.625 0 9.2188 6.1719 13.906 6.1875 4.6875 18.438 4.6875h12.609v0.89062q0 6.2031-4.0781 9.5938t-11.453 3.3906q-4.6875 0-9.1406-1.125-4.4375-1.125-8.5312-3.375v8.3125q4.9219 1.9062 9.5625 2.8438 4.6406 0.95312 9.0312 0.95312 11.875 0 17.734-6.1562 5.8594-6.1406 5.8594-18.641z"/>
<path id="g" d="m9.4219 75.984h8.9844v-75.984h-8.9844z"/>
</defs>
<g transform="translate(541.69 650.78) rotate(90) scale(.08 -.08)">
<use xlink:href="#l"/>
<use x="60.818359" xlink:href="#d"/>
<use x="122.341797" xlink:href="#i"/>
<use x="163.439453" xlink:href="#k"/>
<use x="260.851562" xlink:href="#h"/>
<use x="288.634766" xlink:href="#j"/>
<use x="352.013672" xlink:href="#f"/>
<use x="413.292969" xlink:href="#g"/>
</g>
</g>
<path d="m585.32 650.78v35.285q0 2.4 2.4 2.4h7.7425q2.4 0 2.4-2.4v-35.285q0-2.4-2.4-2.4h-7.7425q-2.4 0-2.4 2.4z" clip-path="url(#a)" fill="#fff" stroke="#fff"/>
<g clip-path="url(#a)">
<g transform="translate(589.39 650.78) rotate(90) scale(.08 -.08)">
<use xlink:href="#l"/>
<use x="60.818359" xlink:href="#d"/>
<use x="122.341797" xlink:href="#i"/>
<use x="163.439453" xlink:href="#k"/>
<use x="260.851562" xlink:href="#h"/>
<use x="288.634766" xlink:href="#j"/>
<use x="352.013672" xlink:href="#f"/>
<use x="413.292969" xlink:href="#g"/>
</g>
</g>
<path d="m784.41 258.73 3.7943-3.0787q1.8637-1.5122 0.35147-3.3759l-4.8784-6.0123q-1.5122-1.8637-3.3759-0.35147l-3.7943 3.0787q-1.8637 1.5122-0.35147 3.3759l4.8784 6.0123q1.5122 1.8637 3.3759 0.35147z" clip-path="url(#a)" fill="#fff" stroke="#fff"/>
<g clip-path="url(#a)">
<g transform="translate(781.85 255.58) rotate(-39.056) scale(.08 -.08)">
<use xlink:href="#l"/>
</g>
</g>
<path d="m855.9 393.94 0.52565-5.5338q0.22695-2.3892-2.1623-2.6162l-7.7078-0.73215q-2.3892-0.22695-2.6162 2.1623l-0.52565 5.5338q-0.22695 2.3892 2.1623 2.6162l7.7078 0.73215q2.3892 0.22695 2.6162-2.1623z" clip-path="url(#a)" fill="#fff" stroke="#fff"/>
<g clip-path="url(#a)">
<g transform="translate(851.86 393.55) rotate(-84.574) scale(.08 -.08)">
<use xlink:href="#t"/>
</g>
</g>
<path d="m867.45 388.29 0.091623 4.8229q0.045586 2.3996 2.4452 2.354l7.7411-0.14706q2.3996-0.045586 2.354-2.4452l-0.091623-4.8229q-0.045586-2.3996-2.4452-2.354l-7.7411 0.14706q-2.3996 0.045586-2.354 2.4452z" clip-path="url(#a)" fill="#fff" stroke="#fff"/>
<g clip-path="url(#a)">
<g transform="translate(871.51 388.21) rotate(88.912) scale(.08 -.08)">
<use xlink:href="#af"/>
</g>
</g>
<path d="m891.03 388.69 0.7214 5.4247q0.31638 2.3791 2.6954 2.0627l7.6749-1.0206q2.3791-0.31638 2.0627-2.6954l-0.7214-5.4247q-0.31638-2.3791-2.6954-2.0627l-7.6749 1.0206q-2.3791 0.31638-2.0627 2.6954z" clip-path="url(#a)" fill="#fff" stroke="#fff"/>
<g clip-path="url(#a)">
<g transform="translate(895.06 388.16) rotate(82.425) scale(.08 -.08)">
<use xlink:href="#s"/>
</g>
</g>
<path d="m938.48 322.49 2.59 4.8208q1.1359 2.1142 3.2501 0.97832l6.8205-3.6644q2.1142-1.1359 0.97832-3.2501l-2.59-4.8208q-1.1359-2.1142-3.2501-0.97832l-6.8205 3.6644q-2.1142 1.1359-0.97832 3.2501z" clip-path="url(#a)" fill="#fff" stroke="#fff"/>
<g clip-path="url(#a)">
<g transform="translate(942.06 320.56) rotate(61.753) scale(.08 -.08)">
<use xlink:href="#s"/>
</g>
</g>
<path d="m1205 465.74 1.3707-5.2981q0.60113-2.3235-1.7224-2.9246l-7.4957-1.9393q-2.3235-0.60113-2.9246 1.7224l-1.3707 5.2981q-0.60113 2.3235 1.7224 2.9246l7.4957 1.9393q2.3235 0.60113 2.9246-1.7224z" clip-path="url(#a)" fill="#fff" stroke="#fff"/>
<g clip-path="url(#a)">
<g transform="translate(1201.1 464.72) rotate(-75.495) scale(.08 -.08)">
<use xlink:href="#s"/>
</g>
</g>
<path d="m1229.5 464.46 0.41446-4.8059q0.20621-2.3911-2.1849-2.5973l-7.7139-0.66523q-2.3911-0.20621-2.5973 2.1849l-0.41446 4.8059q-0.20621 2.3911 2.1849 2.5973l7.7139 0.66523q2.3911 0.20621 2.5973-2.1849z" clip-path="url(#a)" fill="#fff" stroke="#fff"/>
<g clip-path="url(#a)">
<g transform="translate(1225.5 464.12) rotate(-85.071) scale(.08 -.08)">
<use xlink:href="#af"/>
</g>
</g>
<path d="m1276.4 394.16 3.0932 4.5145q1.3565 1.9798 3.3364 0.6233l6.3871-4.3763q1.9798-1.3565 0.6233-3.3364l-3.0932-4.5145q-1.3565-1.9798-3.3364-0.6233l-6.3871 4.3763q-1.9798 1.3565-0.6233 3.3364z" clip-path="url(#a)" fill="#fff" stroke="#fff"/>
<g clip-path="url(#a)">
<g transform="translate(1279.7 391.86) rotate(55.582) scale(.08 -.08)">
<use xlink:href="#s"/>
</g>
</g>
<path d="m1157.6 650.78v35.285q0 2.4 2.4 2.4h7.7425q2.4 0 2.4-2.4v-35.285q0-2.4-2.4-2.4h-7.7425q-2.4 0-2.4 2.4z" clip-path="url(#a)" fill="#fff" stroke="#fff"/>
<g clip-path="url(#a)">
<g transform="translate(1161.7 650.78) rotate(90) scale(.08 -.08)">
<use xlink:href="#l"/>
<use x="60.818359" xlink:href="#d"/>
<use x="122.341797" xlink:href="#i"/>
<use x="163.439453" xlink:href="#k"/>
<use x="260.851562" xlink:href="#h"/>
<use x="288.634766" xlink:href="#j"/>
<use x="352.013672" xlink:href="#f"/>
<use x="413.292969" xlink:href="#g"/>
</g>
</g>
<path d="m1205.3 650.78v35.285q0 2.4 2.4 2.4h7.7425q2.4 0 2.4-2.4v-35.285q0-2.4-2.4-2.4h-7.7425q-2.4 0-2.4 2.4z" clip-path="url(#a)" fill="#fff" stroke="#fff"/>
<g clip-path="url(#a)">
<g transform="translate(1209.4 650.78) rotate(90) scale(.08 -.08)">
<use xlink:href="#l"/>
<use x="60.818359" xlink:href="#d"/>
<use x="122.341797" xlink:href="#i"/>
<use x="163.439453" xlink:href="#k"/>
<use x="260.851562" xlink:href="#h"/>
<use x="288.634766" xlink:href="#j"/>
<use x="352.013672" xlink:href="#f"/>
<use x="413.292969" xlink:href="#g"/>
</g>
</g>
<path d="m1299.4 536.27 2.3358-4.483q1.109-2.1284-1.0194-3.2374l-6.8664-3.5776q-2.1284-1.109-3.2374 1.0194l-2.3358 4.483q-1.109 2.1284 1.0194 3.2374l6.8664 3.5776q2.1284 1.109 3.2374-1.0194z" clip-path="url(#a)" fill="#fff" stroke="#fff"/>
<g clip-path="url(#a)">
<defs>
<path id="r" d="m9.8125 72.906h46.094v-8.3125h-36.234v-21.578h34.719v-8.2969h-34.719v-26.422h37.109v-8.2969h-46.969z"/>
</defs>
<g transform="translate(1295.8 534.39) rotate(-62.479) scale(.08 -.08)">
<use xlink:href="#r"/>
</g>
</g>
<path d="m1324.6 534.69 0.86499-4.9804q0.41068-2.3646-1.9539-2.7753l-7.6283-1.3249q-2.3646-0.41068-2.7753 1.9539l-0.86499 4.9804q-0.41068 2.3646 1.9539 2.7753l7.6283 1.3249q2.3646 0.41068 2.7753-1.9539z" clip-path="url(#a)" fill="#fff" stroke="#fff"/>
<g clip-path="url(#a)">
<g transform="translate(1320.6 534) rotate(-80.147) scale(.08 -.08)">
<use xlink:href="#r"/>
</g>
</g>
<path d="m1336.1 529.45 0.95589 5.5039q0.41068 2.3646 2.7753 1.9539l7.6283-1.3249q2.3646-0.41068 1.9539-2.7753l-0.95589-5.5039q-0.41068-2.3646-2.7753-1.9539l-7.6283 1.3249q-2.3646 0.41068-1.9539 2.7753z" clip-path="url(#a)" fill="#fff" stroke="#fff"/>
<g clip-path="url(#a)">
<g transform="translate(1340.1 528.75) rotate(80.147) scale(.08 -.08)">
<use xlink:href="#p"/>
</g>
</g>
<path d="m1359.7 531.43 2.7054 5.1925q1.109 2.1284 3.2374 1.0194l6.8664-3.5776q2.1284-1.109 1.0194-3.2374l-2.7054-5.1925q-1.109-2.1284-3.2374-1.0194l-6.8664 3.5776q-2.1284 1.109-1.0194 3.2374z" clip-path="url(#a)" fill="#fff" stroke="#fff"/>
<g clip-path="url(#a)">
<g transform="translate(1363.3 529.55) rotate(62.479) scale(.08 -.08)">
<use xlink:href="#ae"/>
</g>
</g>
<path d="m1253 650.78v35.285q0 2.4 2.4 2.4h7.7425q2.4 0 2.4-2.4v-35.285q0-2.4-2.4-2.4h-7.7425q-2.4 0-2.4 2.4z" clip-path="url(#a)" fill="#fff" stroke="#fff"/>
<g clip-path="url(#a)">
<g transform="translate(1257.1 650.78) rotate(90) scale(.08 -.08)">
<use xlink:href="#l"/>
<use x="60.818359" xlink:href="#d"/>
<use x="122.341797" xlink:href="#i"/>
<use x="163.439453" xlink:href="#k"/>
<use x="260.851562" xlink:href="#h"/>
<use x="288.634766" xlink:href="#j"/>
<use x="352.013672" xlink:href="#f"/>
<use x="413.292969" xlink:href="#g"/>
</g>
</g>
<path d="m1300.7 650.78v35.285q0 2.4 2.4 2.4h7.7425q2.4 0 2.4-2.4v-35.285q0-2.4-2.4-2.4h-7.7425q-2.4 0-2.4 2.4z" clip-path="url(#a)" fill="#fff" stroke="#fff"/>
<g clip-path="url(#a)">
<g transform="translate(1304.8 650.78) rotate(90) scale(.08 -.08)">
<use xlink:href="#l"/>
<use x="60.818359" xlink:href="#d"/>
<use x="122.341797" xlink:href="#i"/>
<use x="163.439453" xlink:href="#k"/>
<use x="260.851562" xlink:href="#h"/>
<use x="288.634766" xlink:href="#j"/>
<use x="352.013672" xlink:href="#f"/>
<use x="413.292969" xlink:href="#g"/>
</g>
</g>
<path d="m1348.4 650.78v35.285q0 2.4 2.4 2.4h7.7425q2.4 0 2.4-2.4v-35.285q0-2.4-2.4-2.4h-7.7425q-2.4 0-2.4 2.4z" clip-path="url(#a)" fill="#fff" stroke="#fff"/>
<g clip-path="url(#a)">
<g transform="translate(1352.4 650.78) rotate(90) scale(.08 -.08)">
<use xlink:href="#l"/>
<use x="60.818359" xlink:href="#d"/>
<use x="122.341797" xlink:href="#i"/>
<use x="163.439453" xlink:href="#k"/>
<use x="260.851562" xlink:href="#h"/>
<use x="288.634766" xlink:href="#j"/>
<use x="352.013672" xlink:href="#f"/>
<use x="413.292969" xlink:href="#g"/>
</g>
</g>
<path d="m672.75 465.24 0.9972-4.9557q0.47345-2.3528-1.8794-2.8263l-7.5904-1.5274q-2.3528-0.47345-2.8263 1.8794l-0.9972 4.9557q-0.47345 2.3528 1.8794 2.8263l7.5904 1.5274q2.3528 0.47345 2.8263-1.8794z" clip-path="url(#a)" fill="#fff" stroke="#fff"/>
<g clip-path="url(#a)">
<g transform="translate(668.77 464.44) rotate(-78.623) scale(.08 -.08)">
<use xlink:href="#r"/>
</g>
</g>
<path d="m697.14 464.5 0.16052-5.5839q0.068962-2.399-2.33-2.468l-7.7393-0.22248q-2.399-0.068962-2.468 2.33l-0.16052 5.5839q-0.068962 2.399 2.33 2.468l7.7393 0.22248q2.399 0.068963 2.468-2.33z" clip-path="url(#a)" fill="#fff" stroke="#fff"/>
<g clip-path="url(#a)">
<g transform="translate(693.08 464.38) rotate(-88.353) scale(.08 -.08)">
<use xlink:href="#p"/>
</g>
</g>
<path d="m719.96 393.18 2.1003 4.598q0.99718 2.183 3.1802 1.1859l7.0426-3.2169q2.183-0.99718 1.1859-3.1802l-2.1003-4.598q-0.99718-2.183-3.1802-1.1859l-7.0426 3.2169q-2.183 0.99718-1.1859 3.1802z" clip-path="url(#a)" fill="#fff" stroke="#fff"/>
<g clip-path="url(#a)">
<g transform="translate(723.66 391.49) rotate(65.45) scale(.08 -.08)">
<use xlink:href="#r"/>
</g>
</g>
<path d="m823.78 650.78v35.285q0 2.4 2.4 2.4h7.7425q2.4 0 2.4-2.4v-35.285q0-2.4-2.4-2.4h-7.7425q-2.4 0-2.4 2.4z" clip-path="url(#a)" fill="#fff" stroke="#fff"/>
<g clip-path="url(#a)">
<g transform="translate(827.84 650.78) rotate(90) scale(.08 -.08)">
<use xlink:href="#l"/>
<use x="60.818359" xlink:href="#d"/>
<use x="122.341797" xlink:href="#i"/>
<use x="163.439453" xlink:href="#k"/>
<use x="260.851562" xlink:href="#h"/>
<use x="288.634766" xlink:href="#j"/>
<use x="352.013672" xlink:href="#f"/>
<use x="413.292969" xlink:href="#g"/>
</g>
</g>
<path d="m871.47 650.78v35.285q0 2.4 2.4 2.4h7.7425q2.4 0 2.4-2.4v-35.285q0-2.4-2.4-2.4h-7.7425q-2.4 0-2.4 2.4z" clip-path="url(#a)" fill="#fff" stroke="#fff"/>
<g clip-path="url(#a)">
<g transform="translate(875.53 650.78) rotate(90) scale(.08 -.08)">
<use xlink:href="#l"/>
<use x="60.818359" xlink:href="#d"/>
<use x="122.341797" xlink:href="#i"/>
<use x="163.439453" xlink:href="#k"/>
<use x="260.851562" xlink:href="#h"/>
<use x="288.634766" xlink:href="#j"/>
<use x="352.013672" xlink:href="#f"/>
<use x="413.292969" xlink:href="#g"/>
</g>
</g>
<path d="m919.16 650.78v35.285q0 2.4 2.4 2.4h7.7425q2.4 0 2.4-2.4v-35.285q0-2.4-2.4-2.4h-7.7425q-2.4 0-2.4 2.4z" clip-path="url(#a)" fill="#fff" stroke="#fff"/>
<g clip-path="url(#a)">
<g transform="translate(923.22 650.78) rotate(90) scale(.08 -.08)">
<use xlink:href="#l"/>
<use x="60.818359" xlink:href="#d"/>
<use x="122.341797" xlink:href="#i"/>
<use x="163.439453" xlink:href="#k"/>
<use x="260.851562" xlink:href="#h"/>
<use x="288.634766" xlink:href="#j"/>
<use x="352.013672" xlink:href="#f"/>
<use x="413.292969" xlink:href="#g"/>
</g>
</g>
<path d="m1002 535.81 1.824-5.251q0.7875-2.2671-1.4796-3.0546l-7.3138-2.5405q-2.2671-0.7875-3.0546 1.4796l-1.824 5.251q-0.7875 2.2671 1.4796 3.0546l7.3138 2.5405q2.2671 0.7875 3.0546-1.4796z" clip-path="url(#a)" fill="#fff" stroke="#fff"/>
<g clip-path="url(#a)">
<g transform="translate(998.14 534.48) rotate(-70.845) scale(.08 -.08)">
<use xlink:href="#t"/>
</g>
</g>
<path d="m1014.5 528.6v5.055q0 2.4 2.4 2.4h7.7425q2.4 0 2.4-2.4v-5.055q0-2.4-2.4-2.4h-7.7425q-2.4 0-2.4 2.4z" clip-path="url(#a)" fill="#fff" stroke="#fff"/>
<g clip-path="url(#a)">
<g transform="translate(1018.6 528.6) rotate(90) scale(.08 -.08)">
<use xlink:href="#r"/>
</g>
</g>
<path d="m1037.8 530.55 1.833 5.277q0.7875 2.2671 3.0546 1.4796l7.3138-2.5405q2.2671-0.7875 1.4796-3.0546l-1.833-5.277q-0.78749-2.2671-3.0546-1.4796l-7.3138 2.5405q-2.2671 0.7875-1.4796 3.0546z" clip-path="url(#a)" fill="#fff" stroke="#fff"/>
<g clip-path="url(#a)">
<g transform="translate(1041.7 529.21) rotate(70.845) scale(.08 -.08)">
<use xlink:href="#p"/>
</g>
</g>
<path d="m966.85 650.78v35.285q0 2.4 2.4 2.4h7.7425q2.4 0 2.4-2.4v-35.285q0-2.4-2.4-2.4h-7.7425q-2.4 0-2.4 2.4z" clip-path="url(#a)" fill="#fff" stroke="#fff"/>
<g clip-path="url(#a)">
<g transform="translate(970.92 650.78) rotate(90) scale(.08 -.08)">
<use xlink:href="#l"/>
<use x="60.818359" xlink:href="#d"/>
<use x="122.341797" xlink:href="#i"/>
<use x="163.439453" xlink:href="#k"/>
<use x="260.851562" xlink:href="#h"/>
<use x="288.634766" xlink:href="#j"/>
<use x="352.013672" xlink:href="#f"/>
<use x="413.292969" xlink:href="#g"/>
</g>
</g>
<path d="m1014.5 650.78v35.285q0 2.4 2.4 2.4h7.7425q2.4 0 2.4-2.4v-35.285q0-2.4-2.4-2.4h-7.7425q-2.4 0-2.4 2.4z" clip-path="url(#a)" fill="#fff" stroke="#fff"/>
<g clip-path="url(#a)">
<g transform="translate(1018.6 650.78) rotate(90) scale(.08 -.08)">
<use xlink:href="#l"/>
<use x="60.818359" xlink:href="#d"/>
<use x="122.341797" xlink:href="#i"/>
<use x="163.439453" xlink:href="#k"/>
<use x="260.851562" xlink:href="#h"/>
<use x="288.634766" xlink:href="#j"/>
<use x="352.013672" xlink:href="#f"/>
<use x="413.292969" xlink:href="#g"/>
</g>
</g>
<path d="m1062.2 650.78v35.285q0 2.4 2.4 2.4h7.7425q2.4 0 2.4-2.4v-35.285q0-2.4-2.4-2.4h-7.7425q-2.4 0-2.4 2.4z" clip-path="url(#a)" fill="#fff" stroke="#fff"/>
<g clip-path="url(#a)">
<g transform="translate(1066.3 650.78) rotate(90) scale(.08 -.08)">
<use xlink:href="#l"/>
<use x="60.818359" xlink:href="#d"/>
<use x="122.341797" xlink:href="#i"/>
<use x="163.439453" xlink:href="#k"/>
<use x="260.851562" xlink:href="#h"/>
<use x="288.634766" xlink:href="#j"/>
<use x="352.013672" xlink:href="#f"/>
<use x="413.292969" xlink:href="#g"/>
</g>
</g>
<path d="m633.01 650.78v35.285q0 2.4 2.4 2.4h7.7425q2.4 0 2.4-2.4v-35.285q0-2.4-2.4-2.4h-7.7425q-2.4 0-2.4 2.4z" clip-path="url(#a)" fill="#fff" stroke="#fff"/>
<g clip-path="url(#a)">
<g transform="translate(637.08 650.78) rotate(90) scale(.08 -.08)">
<use xlink:href="#l"/>
<use x="60.818359" xlink:href="#d"/>
<use x="122.341797" xlink:href="#i"/>
<use x="163.439453" xlink:href="#k"/>
<use x="260.851562" xlink:href="#h"/>
<use x="288.634766" xlink:href="#j"/>
<use x="352.013672" xlink:href="#f"/>
<use x="413.292969" xlink:href="#g"/>
</g>
</g>
<path d="m680.7 650.78v35.285q0 2.4 2.4 2.4h7.7425q2.4 0 2.4-2.4v-35.285q0-2.4-2.4-2.4h-7.7425q-2.4 0-2.4 2.4z" clip-path="url(#a)" fill="#fff" stroke="#fff"/>
<g clip-path="url(#a)">
<g transform="translate(684.77 650.78) rotate(90) scale(.08 -.08)">
<use xlink:href="#l"/>
<use x="60.818359" xlink:href="#d"/>
<use x="122.341797" xlink:href="#i"/>
<use x="163.439453" xlink:href="#k"/>
<use x="260.851562" xlink:href="#h"/>
<use x="288.634766" xlink:href="#j"/>
<use x="352.013672" xlink:href="#f"/>
<use x="413.292969" xlink:href="#g"/>
</g>
</g>
<path d="m752.29 534.94 0.95119-5.4768q0.41068-2.3646-1.9539-2.7753l-7.6283-1.3249q-2.3646-0.41068-2.7753 1.9539l-0.95119 5.4768q-0.41068 2.3646 1.9539 2.7753l7.6283 1.3249q2.3646 0.41068 2.7753-1.9539z" clip-path="url(#a)" fill="#fff" stroke="#fff"/>
<g clip-path="url(#a)">
<g transform="translate(748.29 534.24) rotate(-80.147) scale(.08 -.08)">
<use xlink:href="#t"/>
</g>
</g>
<path d="m763.78 529.45 0.95589 5.5039q0.41068 2.3646 2.7753 1.9539l7.6283-1.3249q2.3646-0.41068 1.9539-2.7753l-0.95589-5.5039q-0.41068-2.3646-2.7753-1.9539l-7.6283 1.3249q-2.3646 0.41068-1.9539 2.7753z" clip-path="url(#a)" fill="#fff" stroke="#fff"/>
<g clip-path="url(#a)">
<g transform="translate(767.78 528.75) rotate(80.147) scale(.08 -.08)">
<use xlink:href="#p"/>
</g>
</g>
<path d="m728.4 650.78v35.285q0 2.4 2.4 2.4h7.7425q2.4 0 2.4-2.4v-35.285q0-2.4-2.4-2.4h-7.7425q-2.4 0-2.4 2.4z" clip-path="url(#a)" fill="#fff" stroke="#fff"/>
<g clip-path="url(#a)">
<g transform="translate(732.46 650.78) rotate(90) scale(.08 -.08)">
<use xlink:href="#l"/>
<use x="60.818359" xlink:href="#d"/>
<use x="122.341797" xlink:href="#i"/>
<use x="163.439453" xlink:href="#k"/>
<use x="260.851562" xlink:href="#h"/>
<use x="288.634766" xlink:href="#j"/>
<use x="352.013672" xlink:href="#f"/>
<use x="413.292969" xlink:href="#g"/>
</g>
</g>
<path d="m776.09 650.78v35.285q0 2.4 2.4 2.4h7.7425q2.4 0 2.4-2.4v-35.285q0-2.4-2.4-2.4h-7.7425q-2.4 0-2.4 2.4z" clip-path="url(#a)" fill="#fff" stroke="#fff"/>
<g clip-path="url(#a)">
<g transform="translate(780.15 650.78) rotate(90) scale(.08 -.08)">
<use xlink:href="#l"/>
<use x="60.818359" xlink:href="#d"/>
<use x="122.341797" xlink:href="#i"/>
<use x="163.439453" xlink:href="#k"/>
<use x="260.851562" xlink:href="#h"/>
<use x="288.634766" xlink:href="#j"/>
<use x="352.013672" xlink:href="#f"/>
<use x="413.292969" xlink:href="#g"/>
</g>
</g>
<path d="m156.1 650.78v35.285q0 2.4 2.4 2.4h7.7425q2.4 0 2.4-2.4v-35.285q0-2.4-2.4-2.4h-7.7425q-2.4 0-2.4 2.4z" clip-path="url(#a)" fill="#fff" stroke="#fff"/>
<g clip-path="url(#a)">
<g transform="translate(160.17 650.78) rotate(90) scale(.08 -.08)">
<use xlink:href="#l"/>
<use x="60.818359" xlink:href="#d"/>
<use x="122.341797" xlink:href="#i"/>
<use x="163.439453" xlink:href="#k"/>
<use x="260.851562" xlink:href="#h"/>
<use x="288.634766" xlink:href="#j"/>
<use x="352.013672" xlink:href="#f"/>
<use x="413.292969" xlink:href="#g"/>
</g>
</g>
<path d="m203.79 650.78v35.285q0 2.4 2.4 2.4h7.7425q2.4 0 2.4-2.4v-35.285q0-2.4-2.4-2.4h-7.7425q-2.4 0-2.4 2.4z" clip-path="url(#a)" fill="#fff" stroke="#fff"/>
<g clip-path="url(#a)">
<g transform="translate(207.86 650.78) rotate(90) scale(.08 -.08)">
<use xlink:href="#l"/>
<use x="60.818359" xlink:href="#d"/>
<use x="122.341797" xlink:href="#i"/>
<use x="163.439453" xlink:href="#k"/>
<use x="260.851562" xlink:href="#h"/>
<use x="288.634766" xlink:href="#j"/>
<use x="352.013672" xlink:href="#f"/>
<use x="413.292969" xlink:href="#g"/>
</g>
</g>
<path d="m293.16 465.32 1.0654-4.9415q0.50581-2.3461-1.8403-2.8519l-7.5686-1.6318q-2.3461-0.50581-2.8519 1.8403l-1.0654 4.9415q-0.50581 2.3461 1.8403 2.8519l7.5686 1.6318q2.3461 0.50581 2.8519-1.8403z" clip-path="url(#a)" fill="#fff" stroke="#fff"/>
<g clip-path="url(#a)">
<g transform="translate(289.19 464.46) rotate(-77.833) scale(.08 -.08)">
<use xlink:href="#r"/>
</g>
</g>
<path d="m317.55 464.58 0.24065-5.5811q0.10339-2.3978-2.2944-2.5012l-7.7353-0.33354q-2.3978-0.10339-2.5012 2.2944l-0.24065 5.5811q-0.10339 2.3978 2.2944 2.5012l7.7353 0.33354q2.3978 0.10339 2.5012-2.2944z" clip-path="url(#a)" fill="#fff" stroke="#fff"/>
<g clip-path="url(#a)">
<g transform="translate(313.49 464.41) rotate(-87.531) scale(.08 -.08)">
<use xlink:href="#p"/>
</g>
</g>
<path d="m346.4 393.49 2.3105 4.4961q1.097 2.1346 3.2316 1.0377l6.8864-3.5388q2.1346-1.097 1.0377-3.2316l-2.3105-4.4961q-1.097-2.1346-3.2316-1.0377l-6.8864 3.5388q-2.1346 1.097-1.0377 3.2316z" clip-path="url(#a)" fill="#fff" stroke="#fff"/>
<g clip-path="url(#a)">
<g transform="translate(350.02 391.63) rotate(62.802) scale(.08 -.08)">
<use xlink:href="#r"/>
</g>
</g>
<path d="m251.48 650.78v35.285q0 2.4 2.4 2.4h7.7425q2.4 0 2.4-2.4v-35.285q0-2.4-2.4-2.4h-7.7425q-2.4 0-2.4 2.4z" clip-path="url(#a)" fill="#fff" stroke="#fff"/>
<g clip-path="url(#a)">
<g transform="translate(255.55 650.78) rotate(90) scale(.08 -.08)">
<use xlink:href="#l"/>
<use x="60.818359" xlink:href="#d"/>
<use x="122.341797" xlink:href="#i"/>
<use x="163.439453" xlink:href="#k"/>
<use x="260.851562" xlink:href="#h"/>
<use x="288.634766" xlink:href="#j"/>
<use x="352.013672" xlink:href="#f"/>
<use x="413.292969" xlink:href="#g"/>
</g>
</g>
<path d="m299.17 650.78v35.285q0 2.4 2.4 2.4h7.7425q2.4 0 2.4-2.4v-35.285q0-2.4-2.4-2.4h-7.7425q-2.4 0-2.4 2.4z" clip-path="url(#a)" fill="#fff" stroke="#fff"/>
<g clip-path="url(#a)">
<g transform="translate(303.24 650.78) rotate(90) scale(.08 -.08)">
<use xlink:href="#l"/>
<use x="60.818359" xlink:href="#d"/>
<use x="122.341797" xlink:href="#i"/>
<use x="163.439453" xlink:href="#k"/>
<use x="260.851562" xlink:href="#h"/>
<use x="288.634766" xlink:href="#j"/>
<use x="352.013672" xlink:href="#f"/>
<use x="413.292969" xlink:href="#g"/>
</g>
</g>
<path d="m376.39 535.4 1.4014-5.3792q0.60504-2.3225-1.7174-2.9275l-7.4924-1.9519q-2.3225-0.60504-2.9275 1.7174l-1.4014 5.3792q-0.60504 2.3225 1.7174 2.9275l7.4924 1.9519q2.3225 0.60504 2.9275-1.7174z" clip-path="url(#a)" fill="#fff" stroke="#fff"/>
<g clip-path="url(#a)">
<g transform="translate(372.46 534.37) rotate(-75.398) scale(.08 -.08)">
<use xlink:href="#t"/>
</g>
</g>
<path d="m400.02 530.01 1.4083 5.4058q0.60504 2.3225 2.9275 1.7174l7.4924-1.9519q2.3225-0.60504 1.7174-2.9275l-1.4083-5.4058q-0.60504-2.3225-2.9275-1.7174l-7.4924 1.9519q-2.3225 0.60504-1.7174 2.9275z" clip-path="url(#a)" fill="#fff" stroke="#fff"/>
<g clip-path="url(#a)">
<g transform="translate(403.95 528.98) rotate(75.398) scale(.08 -.08)">
<use xlink:href="#p"/>
</g>
</g>
<path d="m346.87 650.78v35.285q0 2.4 2.4 2.4h7.7425q2.4 0 2.4-2.4v-35.285q0-2.4-2.4-2.4h-7.7425q-2.4 0-2.4 2.4z" clip-path="url(#a)" fill="#fff" stroke="#fff"/>
<g clip-path="url(#a)">
<g transform="translate(350.93 650.78) rotate(90) scale(.08 -.08)">
<use xlink:href="#l"/>
<use x="60.818359" xlink:href="#d"/>
<use x="122.341797" xlink:href="#i"/>
<use x="163.439453" xlink:href="#k"/>
<use x="260.851562" xlink:href="#h"/>
<use x="288.634766" xlink:href="#j"/>
<use x="352.013672" xlink:href="#f"/>
<use x="413.292969" xlink:href="#g"/>
</g>
</g>
<path d="m415.91 686.88 6.0378-34.765q0.41068-2.3646-1.9539-2.7753l-7.6283-1.3249q-2.3646-0.41068-2.7753 1.9539l-6.0378 34.765q-0.41068 2.3646 1.9539 2.7753l7.6283 1.3249q2.3646 0.41068 2.7753-1.9539z" clip-path="url(#a)" fill="#fff" stroke="#fff"/>
<g clip-path="url(#a)">
<g transform="translate(411.91 686.19) rotate(-80.147) scale(.08 -.08)">
<use xlink:href="#l"/>
<use x="60.818359" xlink:href="#d"/>
<use x="122.341797" xlink:href="#i"/>
<use x="163.439453" xlink:href="#k"/>
<use x="260.851562" xlink:href="#h"/>
<use x="288.634766" xlink:href="#j"/>
<use x="352.013672" xlink:href="#f"/>
<use x="413.292969" xlink:href="#g"/>
</g>
</g>
<path d="m427.4 652.12 6.0378 34.765q0.41068 2.3646 2.7753 1.9539l7.6283-1.3249q2.3646-0.41068 1.9539-2.7753l-6.0378-34.765q-0.41068-2.3646-2.7753-1.9539l-7.6283 1.3249q-2.3646 0.41068-1.9539 2.7753z" clip-path="url(#a)" fill="#fff" stroke="#fff"/>
<g clip-path="url(#a)">
<g transform="translate(431.4 651.42) rotate(80.147) scale(.08 -.08)">
<use xlink:href="#l"/>
<use x="60.818359" xlink:href="#d"/>
<use x="122.341797" xlink:href="#i"/>
<use x="163.439453" xlink:href="#k"/>
<use x="260.851562" xlink:href="#h"/>
<use x="288.634766" xlink:href="#j"/>
<use x="352.013672" xlink:href="#f"/>
<use x="413.292969" xlink:href="#g"/>
</g>
</g>
<path d="m60.719 650.78v35.285q0 2.4 2.4 2.4h7.7425q2.4 0 2.4-2.4v-35.285q0-2.4-2.4-2.4h-7.7425q-2.4 0-2.4 2.4z" clip-path="url(#a)" fill="#fff" stroke="#fff"/>
<g clip-path="url(#a)">
<g transform="translate(64.783 650.78) rotate(90) scale(.08 -.08)">
<use xlink:href="#l"/>
<use x="60.818359" xlink:href="#d"/>
<use x="122.341797" xlink:href="#i"/>
<use x="163.439453" xlink:href="#k"/>
<use x="260.851562" xlink:href="#h"/>
<use x="288.634766" xlink:href="#j"/>
<use x="352.013672" xlink:href="#f"/>
<use x="413.292969" xlink:href="#g"/>
</g>
</g>
<path d="m108.41 650.78v35.285q0 2.4 2.4 2.4h7.7425q2.4 0 2.4-2.4v-35.285q0-2.4-2.4-2.4h-7.7425q-2.4 0-2.4 2.4z" clip-path="url(#a)" fill="#fff" stroke="#fff"/>
<g clip-path="url(#a)">
<g transform="translate(112.47 650.78) rotate(90) scale(.08 -.08)">
<use xlink:href="#l"/>
<use x="60.818359" xlink:href="#d"/>
<use x="122.341797" xlink:href="#i"/>
<use x="163.439453" xlink:href="#k"/>
<use x="260.851562" xlink:href="#h"/>
<use x="288.634766" xlink:href="#j"/>
<use x="352.013672" xlink:href="#f"/>
<use x="413.292969" xlink:href="#g"/>
</g>
</g>
<path d="m130.99 255.32 1.6131-9.8855q0.38652-2.3687-1.9822-2.7552l-7.6414-1.2469q-2.3687-0.38652-2.7552 1.9822l-1.6131 9.8855q-0.38652 2.3687 1.9822 2.7552l7.6414 1.2469q2.3687 0.38652 2.7552-1.9822z" clip-path="url(#a)" fill="#fff" stroke="#fff"/>
<g clip-path="url(#a)">
<g transform="translate(126.98 254.67) rotate(-80.732) scale(.08 -.08)">
<use xlink:href="#u"/>
<use x="55.712891" xlink:href="#t"/>
</g>
</g>
<path d="m187.36 107.05 4.2926 8.957q1.0372 2.1643 3.2015 1.1271l6.9821-3.3462q2.1643-1.0372 1.1271-3.2015l-4.2926-8.957q-1.0372-2.1643-3.2015-1.1271l-6.9821 3.3462q-2.1643 1.0372-1.1271 3.2015z" clip-path="url(#a)" fill="#fff" stroke="#fff"/>
<g clip-path="url(#a)">
<g transform="translate(191.02 105.3) rotate(64.394) scale(.08 -.08)">
<use xlink:href="#u"/>
<use x="55.744141" xlink:href="#s"/>
</g>
</g>
<path d="m489.94 650.78v35.285q0 2.4 2.4 2.4h7.7425q2.4 0 2.4-2.4v-35.285q0-2.4-2.4-2.4h-7.7425q-2.4 0-2.4 2.4z" clip-path="url(#a)" fill="#fff" stroke="#fff"/>
<g clip-path="url(#a)">
<g transform="translate(494 650.78) rotate(90) scale(.08 -.08)">
<use xlink:href="#l"/>
<use x="60.818359" xlink:href="#d"/>
<use x="122.341797" xlink:href="#i"/>
<use x="163.439453" xlink:href="#k"/>
<use x="260.851562" xlink:href="#h"/>
<use x="288.634766" xlink:href="#j"/>
<use x="352.013672" xlink:href="#f"/>
<use x="413.292969" xlink:href="#g"/>
</g>
</g>
<path d="m1109.9 650.78v35.285q0 2.4 2.4 2.4h7.7425q2.4 0 2.4-2.4v-35.285q0-2.4-2.4-2.4h-7.7425q-2.4 0-2.4 2.4z" clip-path="url(#a)" fill="#fff" stroke="#fff"/>
<g clip-path="url(#a)">
<g transform="translate(1114 650.78) rotate(90) scale(.08 -.08)">
<use xlink:href="#l"/>
<use x="60.818359" xlink:href="#d"/>
<use x="122.341797" xlink:href="#i"/>
<use x="163.439453" xlink:href="#k"/>
<use x="260.851562" xlink:href="#h"/>
<use x="288.634766" xlink:href="#j"/>
<use x="352.013672" xlink:href="#f"/>
<use x="413.292969" xlink:href="#g"/>
</g>
</g>
<path d="m1396.1 650.78v35.285q0 2.4 2.4 2.4h7.7425q2.4 0 2.4-2.4v-35.285q0-2.4-2.4-2.4h-7.7425q-2.4 0-2.4 2.4z" clip-path="url(#a)" fill="#fff" stroke="#fff"/>
<g clip-path="url(#a)">
<g transform="translate(1400.1 650.78) rotate(90) scale(.08 -.08)">
<use xlink:href="#l"/>
<use x="60.818359" xlink:href="#d"/>
<use x="122.341797" xlink:href="#i"/>
<use x="163.439453" xlink:href="#k"/>
<use x="260.851562" xlink:href="#h"/>
<use x="288.634766" xlink:href="#j"/>
<use x="352.013672" xlink:href="#f"/>
<use x="413.292969" xlink:href="#g"/>
</g>
</g>
<defs>
<path id="b" d="m0 8.6603c2.2967 0 4.4997-0.9125 6.1237-2.5365 1.624-1.624 2.5365-3.827 2.5365-6.1237s-0.9125-4.4997-2.5365-6.1237c-1.624-1.624-3.827-2.5365-6.1237-2.5365s-4.4997 0.9125-6.1237 2.5365c-1.624 1.624-2.5365 3.827-2.5365 6.1237s0.9125 4.4997 2.5365 6.1237c1.624 1.624 3.827 2.5365 6.1237 2.5365z"/>
</defs>
<g clip-path="url(#a)">
<use x="66.990265" y="737.074782" fill="#ffffff" stroke="#ffffff" xlink:href="#b"/>
</g>
<g clip-path="url(#a)">
<use x="114.681436" y="737.074782" fill="#ffffff" stroke="#ffffff" xlink:href="#b"/>
</g>
<g clip-path="url(#a)">
<use x="162.372608" y="737.074782" fill="#ffffff" stroke="#ffffff" xlink:href="#b"/>
</g>
<g clip-path="url(#a)">
<use x="210.06378" y="737.074782" fill="#ffffff" stroke="#ffffff" xlink:href="#b"/>
</g>
<g clip-path="url(#a)">
<use x="257.754951" y="737.074782" fill="#ffffff" stroke="#ffffff" xlink:href="#b"/>
</g>
<g clip-path="url(#a)">
<use x="305.446123" y="737.074782" fill="#ffffff" stroke="#ffffff" xlink:href="#b"/>
</g>
<g clip-path="url(#a)">
<use x="353.137294" y="737.074782" fill="#ffffff" stroke="#ffffff" xlink:href="#b"/>
</g>
<g clip-path="url(#a)">
<use x="400.828466" y="737.074782" fill="#ffffff" stroke="#ffffff" xlink:href="#b"/>
</g>
<g clip-path="url(#a)">
<use x="448.519637" y="737.074782" fill="#ffffff" stroke="#ffffff" xlink:href="#b"/>
</g>
<g clip-path="url(#a)">
<use x="496.210809" y="737.074782" fill="#ffffff" stroke="#ffffff" xlink:href="#b"/>
</g>
<g clip-path="url(#a)">
<use x="543.90198" y="737.074782" fill="#ffffff" stroke="#ffffff" xlink:href="#b"/>
</g>
<g clip-path="url(#a)">
<use x="591.593152" y="737.074782" fill="#ffffff" stroke="#ffffff" xlink:href="#b"/>
</g>
<g clip-path="url(#a)">
<use x="639.284324" y="737.074782" fill="#ffffff" stroke="#ffffff" xlink:href="#b"/>
</g>
<g clip-path="url(#a)">
<use x="686.975495" y="737.074782" fill="#ffffff" stroke="#ffffff" xlink:href="#b"/>
</g>
<g clip-path="url(#a)">
<use x="734.666667" y="737.074782" fill="#ffffff" stroke="#ffffff" xlink:href="#b"/>
</g>
<g clip-path="url(#a)">
<use x="782.357838" y="737.074782" fill="#ffffff" stroke="#ffffff" xlink:href="#b"/>
</g>
<g clip-path="url(#a)">
<use x="830.04901" y="737.074782" fill="#ffffff" stroke="#ffffff" xlink:href="#b"/>
</g>
<g clip-path="url(#a)">
<use x="877.740181" y="737.074782" fill="#ffffff" stroke="#ffffff" xlink:href="#b"/>
</g>
<g clip-path="url(#a)">
<use x="925.431353" y="737.074782" fill="#ffffff" stroke="#ffffff" xlink:href="#b"/>
</g>
<g clip-path="url(#a)">
<use x="973.122524" y="737.074782" fill="#ffffff" stroke="#ffffff" xlink:href="#b"/>
</g>
<g clip-path="url(#a)">
<use x="1020.813696" y="737.074782" fill="#ffffff" stroke="#ffffff" xlink:href="#b"/>
</g>
<g clip-path="url(#a)">
<use x="1068.504868" y="737.074782" fill="#ffffff" stroke="#ffffff" xlink:href="#b"/>
</g>
<g clip-path="url(#a)">
<use x="1116.196039" y="737.074782" fill="#ffffff" stroke="#ffffff" xlink:href="#b"/>
</g>
<g clip-path="url(#a)">
<use x="1163.887211" y="737.074782" fill="#ffffff" stroke="#ffffff" xlink:href="#b"/>
</g>
<g clip-path="url(#a)">
<use x="1211.578382" y="737.074782" fill="#ffffff" stroke="#ffffff" xlink:href="#b"/>
</g>
<g clip-path="url(#a)">
<use x="1259.269554" y="737.074782" fill="#ffffff" stroke="#ffffff" xlink:href="#b"/>
</g>
<g clip-path="url(#a)">
<use x="1306.960725" y="737.074782" fill="#ffffff" stroke="#ffffff" xlink:href="#b"/>
</g>
<g clip-path="url(#a)">
<use x="1354.651897" y="737.074782" fill="#ffffff" stroke="#ffffff" xlink:href="#b"/>
</g>
<g clip-path="url(#a)">
<use x="1402.343068" y="737.074782" fill="#ffffff" stroke="#ffffff" xlink:href="#b"/>
</g>
<g clip-path="url(#a)">
<use x="646.736069" y="36.258552" fill="#ffffff" stroke="#ffffff" xlink:href="#b"/>
</g>
<g clip-path="url(#a)">
<use x="90.835851" y="462.477896" fill="#ffffff" stroke="#ffffff" xlink:href="#b"/>
</g>
<g clip-path="url(#a)">
<use x="229.935101" y="181.380503" fill="#ffffff" stroke="#ffffff" xlink:href="#b"/>
</g>
<g clip-path="url(#a)">
<use x="543.90198" y="599.776339" fill="#ffffff" stroke="#ffffff" xlink:href="#b"/>
</g>
<g clip-path="url(#a)">
<use x="591.593152" y="599.776339" fill="#ffffff" stroke="#ffffff" xlink:href="#b"/>
</g>
<g clip-path="url(#a)">
<use x="869.791653" y="181.380503" fill="#ffffff" stroke="#ffffff" xlink:href="#b"/>
</g>
<g clip-path="url(#a)">
<use x="1235.423968" y="323.269481" fill="#ffffff" stroke="#ffffff" xlink:href="#b"/>
</g>
<g clip-path="url(#a)">
<use x="1163.887211" y="599.776339" fill="#ffffff" stroke="#ffffff" xlink:href="#b"/>
</g>
<g clip-path="url(#a)">
<use x="1211.578382" y="599.776339" fill="#ffffff" stroke="#ffffff" xlink:href="#b"/>
</g>
<g clip-path="url(#a)">
<use x="1330.806311" y="462.477896" fill="#ffffff" stroke="#ffffff" xlink:href="#b"/>
</g>
<g clip-path="url(#a)">
<use x="1259.269554" y="599.776339" fill="#ffffff" stroke="#ffffff" xlink:href="#b"/>
</g>
<g clip-path="url(#a)">
<use x="1306.960725" y="599.776339" fill="#ffffff" stroke="#ffffff" xlink:href="#b"/>
</g>
<g clip-path="url(#a)">
<use x="1354.651897" y="599.776339" fill="#ffffff" stroke="#ffffff" xlink:href="#b"/>
</g>
<g clip-path="url(#a)">
<use x="694.924024" y="323.269481" fill="#ffffff" stroke="#ffffff" xlink:href="#b"/>
</g>
<g clip-path="url(#a)">
<use x="830.04901" y="599.776339" fill="#ffffff" stroke="#ffffff" xlink:href="#b"/>
</g>
<g clip-path="url(#a)">
<use x="877.740181" y="599.776339" fill="#ffffff" stroke="#ffffff" xlink:href="#b"/>
</g>
<g clip-path="url(#a)">
<use x="925.431353" y="599.776339" fill="#ffffff" stroke="#ffffff" xlink:href="#b"/>
</g>
<g clip-path="url(#a)">
<use x="1020.813696" y="462.477896" fill="#ffffff" stroke="#ffffff" xlink:href="#b"/>
</g>
<g clip-path="url(#a)">
<use x="973.122524" y="599.776339" fill="#ffffff" stroke="#ffffff" xlink:href="#b"/>
</g>
<g clip-path="url(#a)">
<use x="1020.813696" y="599.776339" fill="#ffffff" stroke="#ffffff" xlink:href="#b"/>
</g>
<g clip-path="url(#a)">
<use x="1068.504868" y="599.776339" fill="#ffffff" stroke="#ffffff" xlink:href="#b"/>
</g>
<g clip-path="url(#a)">
<use x="639.284324" y="599.776339" fill="#ffffff" stroke="#ffffff" xlink:href="#b"/>
</g>
<g clip-path="url(#a)">
<use x="686.975495" y="599.776339" fill="#ffffff" stroke="#ffffff" xlink:href="#b"/>
</g>
<g clip-path="url(#a)">
<use x="758.512252" y="462.477896" fill="#ffffff" stroke="#ffffff" xlink:href="#b"/>
</g>
<g clip-path="url(#a)">
<use x="734.666667" y="599.776339" fill="#ffffff" stroke="#ffffff" xlink:href="#b"/>
</g>
<g clip-path="url(#a)">
<use x="782.357838" y="599.776339" fill="#ffffff" stroke="#ffffff" xlink:href="#b"/>
</g>
<g clip-path="url(#a)">
<use x="162.372608" y="599.776339" fill="#ffffff" stroke="#ffffff" xlink:href="#b"/>
</g>
<g clip-path="url(#a)">
<use x="210.06378" y="599.776339" fill="#ffffff" stroke="#ffffff" xlink:href="#b"/>
</g>
<g clip-path="url(#a)">
<use x="317.368916" y="323.269481" fill="#ffffff" stroke="#ffffff" xlink:href="#b"/>
</g>
<g clip-path="url(#a)">
<use x="257.754951" y="599.776339" fill="#ffffff" stroke="#ffffff" xlink:href="#b"/>
</g>
<g clip-path="url(#a)">
<use x="305.446123" y="599.776339" fill="#ffffff" stroke="#ffffff" xlink:href="#b"/>
</g>
<g clip-path="url(#a)">
<use x="388.905673" y="462.477896" fill="#ffffff" stroke="#ffffff" xlink:href="#b"/>
</g>
<g clip-path="url(#a)">
<use x="353.137294" y="599.776339" fill="#ffffff" stroke="#ffffff" xlink:href="#b"/>
</g>
<g clip-path="url(#a)">
<use x="424.674052" y="599.776339" fill="#ffffff" stroke="#ffffff" xlink:href="#b"/>
</g>
<g clip-path="url(#a)">
<use x="66.990265" y="599.776339" fill="#ffffff" stroke="#ffffff" xlink:href="#b"/>
</g>
<g clip-path="url(#a)">
<use x="114.681436" y="599.776339" fill="#ffffff" stroke="#ffffff" xlink:href="#b"/>
</g>
<g clip-path="url(#a)">
<use x="160.385476" y="36.258552" fill="#808080" stroke="#808080" xlink:href="#b"/>
</g>
<g clip-path="url(#a)">
<use x="496.210809" y="599.776339" fill="#ffffff" stroke="#ffffff" xlink:href="#b"/>
</g>
<g clip-path="url(#a)">
<use x="1116.196039" y="599.776339" fill="#ffffff" stroke="#ffffff" xlink:href="#b"/>
</g>
<g clip-path="url(#a)">
<use x="1402.343068" y="599.776339" fill="#ffffff" stroke="#ffffff" xlink:href="#b"/>
</g>
<g clip-path="url(#a)">
<defs>
<path id="an" d="m19.672 34.812v-26.703h15.828q7.9531 0 11.781 3.2969 3.8438 3.2969 3.8438 10.078 0 6.8438-3.8438 10.078-3.8281 3.25-11.781 3.25zm0 29.984v-21.969h14.609q7.2188 0 10.75 2.7031 3.5469 2.7188 3.5469 8.2812 0 5.5156-3.5469 8.25-3.5312 2.7344-10.75 2.7344zm-9.8594 8.1094h25.203q11.281 0 17.375-4.6875 6.1094-4.6875 6.1094-13.328 0-6.7031-3.125-10.656t-9.1875-4.9219q7.2812-1.5625 11.312-6.5312 4.0312-4.9531 4.0312-12.375 0-9.7656-6.6406-15.094-6.6406-5.3125-18.906-5.3125h-26.172z"/>
<path id="w" d="m32.172-5.0781q-3.7969-9.7656-7.4219-12.734-3.6094-2.9844-9.6562-2.9844h-7.1875v7.5156h5.2812q3.7031 0 5.75 1.7656 2.0625 1.75 4.5469 8.2969l1.6094 4.0938-22.109 53.812h9.5156l17.094-42.766 17.094 42.766h9.5156z"/>
</defs>
<g transform="translate(60.6 739.83) scale(.1 -.1)">
<use xlink:href="#an"/>
<use x="68.603516" xlink:href="#w"/>
</g>
</g>
<g clip-path="url(#a)">
<defs>
<path id="o" d="m18.312 70.219v-15.531h18.5v-6.9844h-18.5v-29.688q0-6.6875 1.8281-8.5938t7.4531-1.9062h9.2188v-7.5156h-9.2188q-10.406 0-14.359 3.875-3.9531 3.8906-3.9531 14.141v29.688h-6.5938v6.9844h6.5938v15.531z"/>
<path id="z" d="m54.891 33.016v-33.016h-8.9844v32.719q0 7.7656-3.0312 11.609-3.0312 3.8594-9.0781 3.8594-7.2812 0-11.484-4.6406-4.2031-4.625-4.2031-12.641v-30.906h-9.0312v75.984h9.0312v-29.797q3.2344 4.9375 7.5938 7.375 4.375 2.4375 10.094 2.4375 9.4219 0 14.25-5.8281 4.8438-5.8281 4.8438-17.156z"/>
</defs>
<g transform="translate(103.31 739.83) scale(.1 -.1)">
<use xlink:href="#o"/>
<use x="39.208984" xlink:href="#z"/>
<use x="102.587891" xlink:href="#d"/>
<use x="164.111328" xlink:href="#j"/>
</g>
</g>
<g clip-path="url(#a)">
<g transform="translate(159.02 739.83) scale(.1 -.1)">
<use xlink:href="#h"/>
<use x="27.783203" xlink:href="#o"/>
</g>
</g>
<g clip-path="url(#a)">
<g transform="translate(202.65 739.83) scale(.1 -.1)">
<use xlink:href="#g"/>
<use x="27.783203" xlink:href="#f"/>
<use x="89.0625" xlink:href="#w"/>
</g>
</g>
<g clip-path="url(#a)">
<defs>
<path id="m" d="m40.578 39.312q7.0781-1.5156 11.047-6.3125 3.9844-4.7812 3.9844-11.812 0-10.781-7.4219-16.703-7.4219-5.9062-21.094-5.9062-4.5781 0-9.4375 0.90625t-10.031 2.7188v9.5156q4.0938-2.3906 8.9688-3.6094 4.8906-1.2188 10.219-1.2188 9.2656 0 14.125 3.6562t4.8594 10.641q0 6.4531-4.5156 10.078-4.5156 3.6406-12.562 3.6406h-8.5v8.1094h8.8906q7.2656 0 11.125 2.9062t3.8594 8.375q0 5.6094-3.9844 8.6094-3.9688 3.0156-11.391 3.0156-4.0625 0-8.7031-0.89062-4.6406-0.875-10.203-2.7188v8.7812q5.625 1.5625 10.531 2.3438t9.25 0.78125q11.234 0 17.766-5.1094 6.5469-5.0938 6.5469-13.781 0-6.0625-3.4688-10.234t-9.8594-5.7812z"/>
<path id="v" d="m31.781 66.406q-7.6094 0-11.453-7.5-3.8281-7.4844-3.8281-22.531 0-14.984 3.8281-22.484 3.8438-7.5 11.453-7.5 7.6719 0 11.5 7.5 3.8438 7.5 3.8438 22.484 0 15.047-3.8438 22.531-3.8281 7.5-11.5 7.5zm0 7.8125q12.266 0 18.734-9.7031 6.4688-9.6875 6.4688-28.141 0-18.406-6.4688-28.109-6.4688-9.6875-18.734-9.6875-12.25 0-18.719 9.6875-6.4688 9.7031-6.4688 28.109 0 18.453 6.4688 28.141 6.4688 9.7031 18.719 9.7031z"/>
</defs>
<g transform="translate(248.21 739.83) scale(.1 -.1)">
<use xlink:href="#m"/>
<use x="63.623047" xlink:href="#v"/>
<use x="127.246094" xlink:href="#v"/>
</g>
</g>
<g clip-path="url(#a)">
<defs>
<path id="ak" d="m44.281 53.078v-8.5q-3.7969 1.9531-7.9062 2.9219-4.0938 0.98438-8.5 0.98438-6.6875 0-10.031-2.0469t-3.3438-6.1562q0-3.125 2.3906-4.9062t9.625-3.3906l3.0781-0.6875q9.5625-2.0469 13.594-5.7812t4.0312-10.422q0-7.625-6.0312-12.078-6.0312-4.4375-16.578-4.4375-4.3906 0-9.1562 0.85938t-10.031 2.5625v9.2812q4.9844-2.5938 9.8125-3.8906 4.8281-1.2812 9.5781-1.2812 6.3438 0 9.75 2.1719 3.4219 2.1719 3.4219 6.125 0 3.6562-2.4688 5.6094-2.4531 1.9531-10.812 3.7656l-3.125 0.73438q-8.3438 1.75-12.062 5.3906-3.7031 3.6406-3.7031 9.9844 0 7.7188 5.4688 11.906 5.4688 4.2031 15.531 4.2031 4.9688 0 9.3594-0.73438 4.4062-0.71875 8.1094-2.1875z"/>
</defs>
<g transform="translate(292.12 739.83) scale(.1 -.1)">
<use xlink:href="#k"/>
<use x="97.412109" xlink:href="#h"/>
<use x="125.195312" xlink:href="#g"/>
<use x="152.978516" xlink:href="#d"/>
<use x="214.501953" xlink:href="#ak"/>
</g>
</g>
<g clip-path="url(#a)">
<defs>
<path id="ac" d="m37.109 75.984v-7.4844h-8.5938q-4.8281 0-6.7188-1.9531-1.875-1.9531-1.875-7.0312v-4.8281h14.797v-6.9844h-14.797v-47.703h-9.0312v47.703h-8.5938v6.9844h8.5938v3.8125q0 9.125 4.25 13.297 4.25 4.1875 13.469 4.1875z"/>
<path id="x" d="m30.609 48.391q-7.2188 0-11.422-5.6406t-4.2031-15.453 4.1719-15.453q4.1875-5.6406 11.453-5.6406 7.1875 0 11.375 5.6562 4.2031 5.6719 4.2031 15.438 0 9.7188-4.2031 15.406-4.1875 5.6875-11.375 5.6875zm0 7.6094q11.719 0 18.406-7.625 6.7031-7.6094 6.7031-21.078 0-13.422-6.7031-21.078-6.6875-7.6406-18.406-7.6406-11.766 0-18.438 7.6406-6.6562 7.6562-6.6562 21.078 0 13.469 6.6562 21.078 6.6719 7.625 18.438 7.625z"/>
</defs>
<g transform="translate(341.39 739.83) scale(.1 -.1)">
<use xlink:href="#ac"/>
<use x="35.205078" xlink:href="#i"/>
<use x="76.287109" xlink:href="#x"/>
<use x="137.46875" xlink:href="#k"/>
</g>
</g>
<g clip-path="url(#a)">
<defs>
<path id="al" d="m18.109 8.2031v-29h-9.0312v75.484h9.0312v-8.2969q2.8438 4.875 7.1562 7.2344 4.3281 2.375 10.328 2.375 9.9688 0 16.188-7.9062 6.2344-7.9062 6.2344-20.797t-6.2344-20.812q-6.2188-7.9062-16.188-7.9062-6 0-10.328 2.375-4.3125 2.375-7.1562 7.25zm30.578 19.094q0 9.9062-4.0781 15.547t-11.203 5.6406q-7.1406 0-11.219-5.6406t-4.0781-15.547 4.0781-15.547 11.219-5.6406q7.125 0 11.203 5.6406t4.0781 15.547z"/>
</defs>
<g transform="translate(388.02 739.83) scale(.1 -.1)">
<use xlink:href="#p"/>
<use x="69.824219" xlink:href="#f"/>
<use x="131.103516" xlink:href="#al"/>
<use x="194.580078" xlink:href="#d"/>
</g>
</g>
<g clip-path="url(#a)">
<g transform="translate(435.44 739.83) scale(.1 -.1)">
<use xlink:href="#p"/>
<use x="69.824219" xlink:href="#g"/>
<use x="97.607422" xlink:href="#d"/>
<use x="159.130859" xlink:href="#f"/>
<use x="220.410156" xlink:href="#i"/>
</g>
</g>
<g clip-path="url(#a)">
<defs>
<path id="am" d="m11.719 12.406h10.297v-8.4062l-8-15.625h-6.2969l4 15.625z"/>
</defs>
<g transform="translate(494.62 739.83) scale(.1 -.1)">
<use xlink:href="#am"/>
</g>
</g>
<g clip-path="url(#a)">
<defs>
<path id="y" d="m45.406 46.391v29.594h8.9844v-75.984h-8.9844v8.2031q-2.8281-4.875-7.1562-7.25-4.3125-2.375-10.375-2.375-9.9062 0-16.141 7.9062-6.2188 7.9219-6.2188 20.812t6.2188 20.797q6.2344 7.9062 16.141 7.9062 6.0625 0 10.375-2.375 4.3281-2.3594 7.1562-7.2344zm-30.609-19.094q0-9.9062 4.0781-15.547t11.203-5.6406 11.219 5.6406q4.1094 5.6406 4.1094 15.547t-4.1094 15.547q-4.0938 5.6406-11.219 5.6406t-11.203-5.6406-4.0781-15.547z"/>
</defs>
<g transform="translate(534.49 739.83) scale(.1 -.1)">
<use xlink:href="#f"/>
<use x="61.279297" xlink:href="#j"/>
<use x="124.658203" xlink:href="#y"/>
</g>
</g>
<g clip-path="url(#a)">
<g transform="translate(579.68 739.83) scale(.1 -.1)">
<use xlink:href="#f"/>
<use x="61.279297" xlink:href="#ac"/>
<use x="96.46875" xlink:href="#o"/>
<use x="135.677734" xlink:href="#d"/>
<use x="197.201172" xlink:href="#i"/>
</g>
</g>
<g clip-path="url(#a)">
<g transform="translate(625.95 739.83) scale(.1 -.1)">
<use xlink:href="#o"/>
<use x="39.208984" xlink:href="#z"/>
<use x="102.587891" xlink:href="#i"/>
<use x="143.669922" xlink:href="#d"/>
<use x="205.193359" xlink:href="#d"/>
</g>
</g>
<g clip-path="url(#a)">
<g transform="translate(675.17 739.83) scale(.1 -.1)">
<use xlink:href="#y"/>
<use x="63.476562" xlink:href="#f"/>
<use x="124.755859" xlink:href="#w"/>
<use x="183.935547" xlink:href="#ak"/>
</g>
</g>
<g clip-path="url(#a)">
<g transform="translate(729.85 739.83) scale(.1 -.1)">
<use xlink:href="#x"/>
<use x="61.181641" xlink:href="#ac"/>
</g>
</g>
<g clip-path="url(#a)">
<g transform="translate(768.69 739.83) scale(.1 -.1)">
<use xlink:href="#y"/>
<use x="63.476562" xlink:href="#d"/>
<use x="125" xlink:href="#g"/>
<use x="152.783203" xlink:href="#f"/>
<use x="214.0625" xlink:href="#w"/>
</g>
</g>
<g clip-path="url(#a)">
<g transform="translate(819.9 739.83) scale(.1 -.1)">
<use xlink:href="#o"/>
<use x="39.208984" xlink:href="#z"/>
<use x="102.587891" xlink:href="#f"/>
<use x="163.867188" xlink:href="#o"/>
</g>
</g>
<g clip-path="url(#a)">
<g transform="translate(865.56 739.83) scale(.1 -.1)">
<use xlink:href="#ac"/>
<use x="35.205078" xlink:href="#h"/>
<use x="62.988281" xlink:href="#g"/>
<use x="90.771484" xlink:href="#g"/>
<use x="118.554688" xlink:href="#d"/>
<use x="180.078125" xlink:href="#y"/>
</g>
</g>
<g clip-path="url(#a)">
<defs>
<path id="aq" d="m2.9844 54.688h9.5156l17.094-45.891 17.094 45.891h9.5156l-20.516-54.688h-12.203z"/>
</defs>
<g transform="translate(902.48 739.83) scale(.1 -.1)">
<use xlink:href="#u"/>
<use x="55.712891" xlink:href="#h"/>
<use x="83.496094" xlink:href="#aq"/>
<use x="142.675781" xlink:href="#d"/>
<use x="204.199219" xlink:href="#i"/>
<use x="245.3125" xlink:href="#al"/>
<use x="308.789062" xlink:href="#x"/>
<use x="369.970703" xlink:href="#x"/>
<use x="431.152344" xlink:href="#g"/>
</g>
</g>
<g clip-path="url(#a)">
<defs>
<path id="ap" d="m4.2031 54.688h8.9844l11.234-42.672 11.172 42.672h10.594l11.234-42.672 11.188 42.672h8.9844l-14.312-54.688h-10.594l-11.766 44.828-11.812-44.828h-10.609z"/>
</defs>
<g transform="translate(962.52 739.83) scale(.1 -.1)">
<use xlink:href="#ap"/>
<use x="81.787109" xlink:href="#h"/>
<use x="109.570312" xlink:href="#o"/>
<use x="148.779297" xlink:href="#z"/>
</g>
</g>
<g clip-path="url(#a)">
<defs>
<path id="ad" d="m48.781 52.594v-8.4062q-3.8125 2.1094-7.6406 3.1562t-7.7344 1.0469q-8.75 0-13.594-5.5469-4.8281-5.5312-4.8281-15.547t4.8281-15.562q4.8438-5.5312 13.594-5.5312 3.9062 0 7.7344 1.0469t7.6406 3.1562v-8.3125q-3.7656-1.75-7.7969-2.625-4.0156-0.89062-8.5625-0.89062-12.359 0-19.641 7.7656-7.2656 7.7656-7.2656 20.953 0 13.375 7.3438 21.031 7.3594 7.6719 20.156 7.6719 4.1406 0 8.0938-0.85938 3.9531-0.84375 7.6719-2.5469z"/>
<path id="ar" d="m8.5 21.578v33.109h8.9844v-32.766q0-7.7656 3.0156-11.656 3.0312-3.875 9.0938-3.875 7.2656 0 11.484 4.6406 4.2344 4.6406 4.2344 12.656v31h8.9844v-54.688h-8.9844v8.4062q-3.2656-4.9844-7.5938-7.4062-4.3125-2.4219-10.031-2.4219-9.4219 0-14.312 5.8594-4.875 5.8594-4.875 17.141z"/>
</defs>
<g transform="translate(1006.8 739.83) scale(.1 -.1)">
<use xlink:href="#f"/>
<use x="61.279297" xlink:href="#ad"/>
<use x="116.259766" xlink:href="#ar"/>
<use x="179.638672" xlink:href="#o"/>
<use x="218.847656" xlink:href="#d"/>
</g>
</g>
<g clip-path="url(#a)">
<defs>
<path id="ao" d="m54.891 54.688-19.781-26.609 20.797-28.078h-10.594l-15.922 21.484-15.906-21.484h-10.609l21.25 28.609-19.438 26.078h10.594l14.5-19.484 14.5 19.484z"/>
</defs>
<g transform="translate(1049.9 739.83) scale(.1 -.1)">
<use xlink:href="#f"/>
<use x="61.279297" xlink:href="#j"/>
<use x="124.658203" xlink:href="#ao"/>
<use x="183.837891" xlink:href="#h"/>
<use x="211.621094" xlink:href="#d"/>
<use x="273.144531" xlink:href="#o"/>
<use x="312.353516" xlink:href="#w"/>
</g>
</g>
<g clip-path="url(#a)">
<g transform="translate(1114.6 739.83) scale(.1 -.1)">
<use xlink:href="#am"/>
</g>
</g>
<g clip-path="url(#a)">
<g transform="translate(1160.5 739.83) scale(.1 -.1)">
<use xlink:href="#h"/>
<use x="27.783203" xlink:href="#o"/>
</g>
</g>
<g clip-path="url(#a)">
<g transform="translate(1192 739.83) scale(.1 -.1)">
<use xlink:href="#d"/>
<use x="61.523438" xlink:href="#j"/>
<use x="124.902344" xlink:href="#o"/>
<use x="164.111328" xlink:href="#d"/>
<use x="225.634766" xlink:href="#i"/>
<use x="266.716797" xlink:href="#d"/>
<use x="328.240234" xlink:href="#y"/>
</g>
</g>
<g clip-path="url(#a)">
<g transform="translate(1251.1 739.83) scale(.1 -.1)">
<use xlink:href="#o"/>
<use x="39.208984" xlink:href="#z"/>
<use x="102.587891" xlink:href="#d"/>
</g>
</g>
<g clip-path="url(#a)">
<g transform="translate(1283.9 739.83) scale(.1 -.1)">
<use xlink:href="#ad"/>
<use x="54.980469" xlink:href="#x"/>
<use x="116.162109" xlink:href="#k"/>
<use x="213.574219" xlink:href="#al"/>
<use x="277.050781" xlink:href="#f"/>
<use x="338.330078" xlink:href="#j"/>
<use x="401.708984" xlink:href="#w"/>
</g>
</g>
<g clip-path="url(#a)">
<defs>
<path id="as" d="m9.0781 75.984h9.0312v-44.875l26.812 23.578h11.469l-29-25.578 30.234-29.109h-11.719l-27.797 26.703v-26.703h-9.0312z"/>
</defs>
<g transform="translate(1340.2 739.83) scale(.1 -.1)">
<use xlink:href="#y"/>
<use x="63.476562" xlink:href="#x"/>
<use x="124.658203" xlink:href="#ad"/>
<use x="179.638672" xlink:href="#as"/>
<use x="237.548828" xlink:href="#ak"/>
</g>
</g>
<g clip-path="url(#a)">
<defs>
<path id="e" d="m10.688 12.406h10.312v-12.406h-10.312z"/>
</defs>
<g transform="translate(1400.8 739.83) scale(.1 -.1)">
<use xlink:href="#e"/>
</g>
</g>
<g clip-path="url(#a)">
<defs>
<path id="c" d="m12.406 8.2969h16.109v55.625l-17.531-3.5156v8.9844l17.438 3.5156h9.8594v-64.609h16.109v-8.2969h-41.984z"/>
</defs>
<g transform="translate(638.78 39.018) scale(.1 -.1)">
<use xlink:href="#c"/>
<use x="63.623047" xlink:href="#e"/>
<use x="95.410156" xlink:href="#c"/>
</g>
</g>
<g clip-path="url(#a)">
<defs>
<path id="n" d="m19.188 8.2969h34.422v-8.2969h-46.281v8.2969q5.6094 5.8125 15.297 15.594 9.7031 9.7969 12.188 12.641 4.7344 5.3125 6.6094 9 1.8906 3.6875 1.8906 7.25 0 5.8125-4.0781 9.4688-4.0781 3.6719-10.625 3.6719-4.6406 0-9.7969-1.6094-5.1406-1.6094-11-4.8906v9.9688q5.9531 2.3906 11.125 3.6094 5.1875 1.2188 9.4844 1.2188 11.328 0 18.062-5.6719 6.7344-5.6562 6.7344-15.125 0-4.5-1.6875-8.5312-1.6719-4.0156-6.125-9.4844-1.2188-1.4219-7.7656-8.1875-6.5312-6.7656-18.453-18.922z"/>
</defs>
<g transform="translate(82.884 465.24) scale(.1 -.1)">
<use xlink:href="#c"/>
<use x="63.623047" xlink:href="#e"/>
<use x="95.410156" xlink:href="#n"/>
</g>
</g>
<g clip-path="url(#a)">
<g transform="translate(221.98 184.14) scale(.1 -.1)">
<use xlink:href="#c"/>
<use x="63.623047" xlink:href="#e"/>
<use x="95.410156" xlink:href="#m"/>
</g>
</g>
<g clip-path="url(#a)">
<defs>
<path id="q" d="m37.797 64.312-24.906-38.922h24.906zm-2.5938 8.5938h12.406v-47.516h10.406v-8.2031h-10.406v-17.188h-9.8125v17.188h-32.906v9.5156z"/>
</defs>
<g transform="translate(535.95 602.54) scale(.1 -.1)">
<use xlink:href="#c"/>
<use x="63.623047" xlink:href="#e"/>
<use x="95.410156" xlink:href="#q"/>
</g>
</g>
<g clip-path="url(#a)">
<defs>
<path id="ab" d="m10.797 72.906h38.719v-8.3125h-29.688v-17.859q2.1406 0.73438 4.2812 1.0938 2.1562 0.35938 4.3125 0.35938 12.203 0 19.328-6.6875 7.1406-6.6875 7.1406-18.109 0-11.766-7.3281-18.297-7.3281-6.5156-20.656-6.5156-4.5938 0-9.3594 0.78125-4.75 0.78125-9.8281 2.3438v9.9219q4.3906-2.3906 9.0781-3.5625t9.9062-1.1719q8.4531 0 13.375 4.4375 4.9375 4.4375 4.9375 12.062 0 7.6094-4.9375 12.047-4.9219 4.4531-13.375 4.4531-3.9531 0-7.8906-0.875-3.9219-0.875-8.0156-2.7344z"/>
</defs>
<g transform="translate(583.64 602.54) scale(.1 -.1)">
<use xlink:href="#c"/>
<use x="63.623047" xlink:href="#e"/>
<use x="95.410156" xlink:href="#ab"/>
</g>
</g>
<g clip-path="url(#a)">
<defs>
<path id="aj" d="m33.016 40.375q-6.6406 0-10.531-4.5469-3.875-4.5312-3.875-12.438 0-7.8594 3.875-12.438 3.8906-4.5625 10.531-4.5625t10.516 4.5625q3.875 4.5781 3.875 12.438 0 7.9062-3.875 12.438-3.875 4.5469-10.516 4.5469zm19.578 30.922v-8.9844q-3.7188 1.75-7.5 2.6719-3.7812 0.9375-7.5 0.9375-9.7656 0-14.922-6.5938-5.1406-6.5938-5.875-19.922 2.875 4.25 7.2188 6.5156 4.3594 2.2656 9.5781 2.2656 10.984 0 17.359-6.6719 6.375-6.6562 6.375-18.125 0-11.234-6.6406-18.031-6.6406-6.7812-17.672-6.7812-12.656 0-19.344 9.6875-6.6875 9.7031-6.6875 28.109 0 17.281 8.2031 27.562t22.016 10.281q3.7188 0 7.5-0.73438t7.8906-2.1875z"/>
</defs>
<g transform="translate(861.84 184.14) scale(.1 -.1)">
<use xlink:href="#c"/>
<use x="63.623047" xlink:href="#e"/>
<use x="95.410156" xlink:href="#aj"/>
</g>
</g>
<g clip-path="url(#a)">
<defs>
<path id="aa" d="m8.2031 72.906h46.875v-4.2031l-26.469-68.703h-10.297l24.906 64.594h-35.016z"/>
</defs>
<g transform="translate(1227.5 326.03) scale(.1 -.1)">
<use xlink:href="#c"/>
<use x="63.623047" xlink:href="#e"/>
<use x="95.410156" xlink:href="#aa"/>
</g>
</g>
<g clip-path="url(#a)">
<g transform="translate(1152.8 602.54) scale(.1 -.1)">
<use xlink:href="#c"/>
<use x="63.623047" xlink:href="#e"/>
<use x="95.410156" xlink:href="#c"/>
<use x="159.033203" xlink:href="#v"/>
</g>
</g>
<g clip-path="url(#a)">
<g transform="translate(1200.4 602.54) scale(.1 -.1)">
<use xlink:href="#c"/>
<use x="63.623047" xlink:href="#e"/>
<use x="95.410156" xlink:href="#c"/>
<use x="159.033203" xlink:href="#c"/>
</g>
</g>
<g clip-path="url(#a)">
<g transform="translate(1319.7 465.24) scale(.1 -.1)">
<use xlink:href="#c"/>
<use x="63.623047" xlink:href="#e"/>
<use x="95.410156" xlink:href="#c"/>
<use x="159.033203" xlink:href="#n"/>
</g>
</g>
<g clip-path="url(#a)">
<g transform="translate(1248.1 602.54) scale(.1 -.1)">
<use xlink:href="#c"/>
<use x="63.623047" xlink:href="#e"/>
<use x="95.410156" xlink:href="#c"/>
<use x="159.033203" xlink:href="#m"/>
</g>
</g>
<g clip-path="url(#a)">
<g transform="translate(1295.8 602.54) scale(.1 -.1)">
<use xlink:href="#c"/>
<use x="63.623047" xlink:href="#e"/>
<use x="95.410156" xlink:href="#c"/>
<use x="159.033203" xlink:href="#q"/>
</g>
</g>
<g clip-path="url(#a)">
<g transform="translate(1343.5 602.54) scale(.1 -.1)">
<use xlink:href="#c"/>
<use x="63.623047" xlink:href="#e"/>
<use x="95.410156" xlink:href="#c"/>
<use x="159.033203" xlink:href="#ab"/>
</g>
</g>
<g clip-path="url(#a)">
<g transform="translate(683.79 326.03) scale(.1 -.1)">
<use xlink:href="#c"/>
<use x="63.623047" xlink:href="#e"/>
<use x="95.410156" xlink:href="#c"/>
<use x="159.033203" xlink:href="#aa"/>
</g>
</g>
<g clip-path="url(#a)">
<defs>
<path id="ai" d="m31.781 34.625q-7.0312 0-11.062-3.7656-4.0156-3.7656-4.0156-10.344 0-6.5938 4.0156-10.359 4.0312-3.7656 11.062-3.7656t11.078 3.7812q4.0625 3.7969 4.0625 10.344 0 6.5781-4.0312 10.344-4.0156 3.7656-11.109 3.7656zm-9.8594 4.1875q-6.3438 1.5625-9.8906 5.9062-3.5312 4.3594-3.5312 10.609 0 8.7344 6.2188 13.812 6.2344 5.0781 17.062 5.0781 10.891 0 17.094-5.0781t6.2031-13.812q0-6.25-3.5469-10.609-3.5312-4.3438-9.8281-5.9062 7.125-1.6562 11.094-6.5 3.9844-4.8281 3.9844-11.797 0-10.609-6.4688-16.281-6.4688-5.6562-18.531-5.6562-12.047 0-18.531 5.6562-6.4688 5.6719-6.4688 16.281 0 6.9688 4 11.797 4.0156 4.8438 11.141 6.5zm-3.6094 15.578q0-5.6562 3.5312-8.8281 3.5469-3.1719 9.9375-3.1719 6.3594 0 9.9375 3.1719 3.5938 3.1719 3.5938 8.8281 0 5.6719-3.5938 8.8438-3.5781 3.1719-9.9375 3.1719-6.3906 0-9.9375-3.1719-3.5312-3.1719-3.5312-8.8438z"/>
</defs>
<g transform="translate(818.92 602.54) scale(.1 -.1)">
<use xlink:href="#c"/>
<use x="63.623047" xlink:href="#e"/>
<use x="95.410156" xlink:href="#c"/>
<use x="159.033203" xlink:href="#ai"/>
</g>
</g>
<g clip-path="url(#a)">
<defs>
<path id="ah" d="m10.984 1.5156v8.9844q3.7188-1.7656 7.5156-2.6875 3.8125-0.92188 7.4844-0.92188 9.7656 0 14.906 6.5625 5.1562 6.5625 5.8906 19.953-2.8281-4.2031-7.1875-6.4531-4.3438-2.25-9.6094-2.25-10.938 0-17.312 6.6094-6.375 6.625-6.375 18.109 0 11.219 6.6406 18 6.6406 6.7969 17.672 6.7969 12.656 0 19.312-9.7031 6.6719-9.6875 6.6719-28.141 0-17.234-8.1875-27.516-8.1719-10.281-21.984-10.281-3.7188 0-7.5312 0.73438-3.7969 0.73438-7.9062 2.2031zm19.625 30.906q6.6406 0 10.516 4.5312 3.8906 4.5469 3.8906 12.469 0 7.8594-3.8906 12.422-3.875 4.5625-10.516 4.5625t-10.516-4.5625-3.875-12.422q0-7.9219 3.875-12.469 3.875-4.5312 10.516-4.5312z"/>
</defs>
<g transform="translate(866.61 602.54) scale(.1 -.1)">
<use xlink:href="#c"/>
<use x="63.623047" xlink:href="#e"/>
<use x="95.410156" xlink:href="#c"/>
<use x="159.033203" xlink:href="#ah"/>
</g>
</g>
<g clip-path="url(#a)">
<g transform="translate(914.3 602.54) scale(.1 -.1)">
<use xlink:href="#c"/>
<use x="63.623047" xlink:href="#e"/>
<use x="95.410156" xlink:href="#n"/>
<use x="159.033203" xlink:href="#v"/>
</g>
</g>
<g clip-path="url(#a)">
<g transform="translate(1009.7 465.24) scale(.1 -.1)">
<use xlink:href="#c"/>
<use x="63.623047" xlink:href="#e"/>
<use x="95.410156" xlink:href="#n"/>
<use x="159.033203" xlink:href="#c"/>
</g>
</g>
<g clip-path="url(#a)">
<g transform="translate(961.99 602.54) scale(.1 -.1)">
<use xlink:href="#c"/>
<use x="63.623047" xlink:href="#e"/>
<use x="95.410156" xlink:href="#n"/>
<use x="159.033203" xlink:href="#n"/>
</g>
</g>
<g clip-path="url(#a)">
<g transform="translate(1009.7 602.54) scale(.1 -.1)">
<use xlink:href="#c"/>
<use x="63.623047" xlink:href="#e"/>
<use x="95.410156" xlink:href="#n"/>
<use x="159.033203" xlink:href="#m"/>
</g>
</g>
<g clip-path="url(#a)">
<g transform="translate(1057.4 602.54) scale(.1 -.1)">
<use xlink:href="#c"/>
<use x="63.623047" xlink:href="#e"/>
<use x="95.410156" xlink:href="#n"/>
<use x="159.033203" xlink:href="#q"/>
</g>
</g>
<g clip-path="url(#a)">
<g transform="translate(628.15 602.54) scale(.1 -.1)">
<use xlink:href="#c"/>
<use x="63.623047" xlink:href="#e"/>
<use x="95.410156" xlink:href="#n"/>
<use x="159.033203" xlink:href="#ab"/>
</g>
</g>
<g clip-path="url(#a)">
<g transform="translate(675.84 602.54) scale(.1 -.1)">
<use xlink:href="#c"/>
<use x="63.623047" xlink:href="#e"/>
<use x="95.410156" xlink:href="#n"/>
<use x="159.033203" xlink:href="#aj"/>
</g>
</g>
<g clip-path="url(#a)">
<g transform="translate(747.38 465.24) scale(.1 -.1)">
<use xlink:href="#c"/>
<use x="63.623047" xlink:href="#e"/>
<use x="95.410156" xlink:href="#n"/>
<use x="159.033203" xlink:href="#aa"/>
</g>
</g>
<g clip-path="url(#a)">
<g transform="translate(723.53 602.54) scale(.1 -.1)">
<use xlink:href="#c"/>
<use x="63.623047" xlink:href="#e"/>
<use x="95.410156" xlink:href="#n"/>
<use x="159.033203" xlink:href="#ai"/>
</g>
</g>
<g clip-path="url(#a)">
<g transform="translate(771.23 602.54) scale(.1 -.1)">
<use xlink:href="#c"/>
<use x="63.623047" xlink:href="#e"/>
<use x="95.410156" xlink:href="#n"/>
<use x="159.033203" xlink:href="#ah"/>
</g>
</g>
<g clip-path="url(#a)">
<g transform="translate(151.24 602.54) scale(.1 -.1)">
<use xlink:href="#c"/>
<use x="63.623047" xlink:href="#e"/>
<use x="95.410156" xlink:href="#m"/>
<use x="159.033203" xlink:href="#v"/>
</g>
</g>
<g clip-path="url(#a)">
<g transform="translate(198.93 602.54) scale(.1 -.1)">
<use xlink:href="#c"/>
<use x="63.623047" xlink:href="#e"/>
<use x="95.410156" xlink:href="#m"/>
<use x="159.033203" xlink:href="#c"/>
</g>
</g>
<g clip-path="url(#a)">
<g transform="translate(306.24 326.03) scale(.1 -.1)">
<use xlink:href="#c"/>
<use x="63.623047" xlink:href="#e"/>
<use x="95.410156" xlink:href="#m"/>
<use x="159.033203" xlink:href="#n"/>
</g>
</g>
<g clip-path="url(#a)">
<g transform="translate(246.62 602.54) scale(.1 -.1)">
<use xlink:href="#c"/>
<use x="63.623047" xlink:href="#e"/>
<use x="95.410156" xlink:href="#m"/>
<use x="159.033203" xlink:href="#m"/>
</g>
</g>
<g clip-path="url(#a)">
<g transform="translate(294.31 602.54) scale(.1 -.1)">
<use xlink:href="#c"/>
<use x="63.623047" xlink:href="#e"/>
<use x="95.410156" xlink:href="#m"/>
<use x="159.033203" xlink:href="#q"/>
</g>
</g>
<g clip-path="url(#a)">
<g transform="translate(377.77 465.24) scale(.1 -.1)">
<use xlink:href="#c"/>
<use x="63.623047" xlink:href="#e"/>
<use x="95.410156" xlink:href="#m"/>
<use x="159.033203" xlink:href="#ab"/>
</g>
</g>
<g clip-path="url(#a)">
<g transform="translate(342 602.54) scale(.1 -.1)">
<use xlink:href="#c"/>
<use x="63.623047" xlink:href="#e"/>
<use x="95.410156" xlink:href="#m"/>
<use x="159.033203" xlink:href="#aj"/>
</g>
</g>
<g clip-path="url(#a)">
<g transform="translate(413.54 602.54) scale(.1 -.1)">
<use xlink:href="#c"/>
<use x="63.623047" xlink:href="#e"/>
<use x="95.410156" xlink:href="#m"/>
<use x="159.033203" xlink:href="#aa"/>
</g>
</g>
<g clip-path="url(#a)">
<g transform="translate(55.857 602.54) scale(.1 -.1)">
<use xlink:href="#c"/>
<use x="63.623047" xlink:href="#e"/>
<use x="95.410156" xlink:href="#m"/>
<use x="159.033203" xlink:href="#ai"/>
</g>
</g>
<g clip-path="url(#a)">
<g transform="translate(103.55 602.54) scale(.1 -.1)">
<use xlink:href="#c"/>
<use x="63.623047" xlink:href="#e"/>
<use x="95.410156" xlink:href="#m"/>
<use x="159.033203" xlink:href="#ah"/>
</g>
</g>
<g clip-path="url(#a)">
<g transform="translate(149.25 39.018) scale(.1 -.1)">
<use xlink:href="#c"/>
<use x="63.623047" xlink:href="#e"/>
<use x="95.410156" xlink:href="#q"/>
<use x="159.033203" xlink:href="#v"/>
</g>
</g>
<g clip-path="url(#a)">
<g transform="translate(485.08 602.54) scale(.1 -.1)">
<use xlink:href="#c"/>
<use x="63.623047" xlink:href="#e"/>
<use x="95.410156" xlink:href="#q"/>
<use x="159.033203" xlink:href="#c"/>
</g>
</g>
<g clip-path="url(#a)">
<g transform="translate(1105.1 602.54) scale(.1 -.1)">
<use xlink:href="#c"/>
<use x="63.623047" xlink:href="#e"/>
<use x="95.410156" xlink:href="#q"/>
<use x="159.033203" xlink:href="#n"/>
</g>
</g>
<g clip-path="url(#a)">
<g transform="translate(1391.2 602.54) scale(.1 -.1)">
<use xlink:href="#c"/>
<use x="63.623047" xlink:href="#e"/>
<use x="95.410156" xlink:href="#q"/>
<use x="159.033203" xlink:href="#m"/>
</g>
</g>
<defs>
<clipPath id="a">
<rect width="1469.3" height="773.33"/>
</clipPath>
</defs>
</svg>
