<?xml version="1.0" encoding="utf-8" standalone="no"?>
<!DOCTYPE svg PUBLIC "-//W3C//DTD SVG 1.1//EN"
  "http://www.w3.org/Graphics/SVG/1.1/DTD/svg11.dtd">
<!-- Created with matplotlib (https://matplotlib.org/) -->
<svg height="320pt" version="1.1" viewBox="0 0 608 320" width="608pt" xmlns="http://www.w3.org/2000/svg" xmlns:xlink="http://www.w3.org/1999/xlink">
 <defs>
  <style type="text/css">
*{stroke-linecap:butt;stroke-linejoin:round;}
  </style>
 </defs>
 <g id="figure_1">
  <g id="patch_1">
   <path d="M 0 320 
L 608 320 
L 608 0 
L 0 0 
z
" style="fill:#ffffff;"/>
  </g>
  <g id="axes_1">
   <g id="LineCollection_1">
    <path clip-path="url(#pa2c7012a27)" d="M 286.277767 15.932652 
L 171.801719 89.503929 
" style="fill:none;stroke:#000000;"/>
    <path clip-path="url(#pa2c7012a27)" d="M 286.277767 15.932652 
L 304 232.876323 
" style="fill:none;stroke:#000000;"/>
    <path clip-path="url(#pa2c7012a27)" d="M 286.277767 15.932652 
L 411.291359 89.503929 
" style="fill:none;stroke:#000000;"/>
    <path clip-path="url(#pa2c7012a27)" d="M 286.277767 15.932652 
L 258.017989 232.876323 
" style="fill:none;stroke:#000000;"/>
    <path clip-path="url(#pa2c7012a27)" d="M 171.801719 89.503929 
L 304 161.685299 
" style="fill:none;stroke:#000000;"/>
    <path clip-path="url(#pa2c7012a27)" d="M 171.801719 89.503929 
L 74.089946 232.876323 
" style="fill:none;stroke:#000000;"/>
    <path clip-path="url(#pa2c7012a27)" d="M 171.801719 89.503929 
L 120.071957 232.876323 
" style="fill:none;stroke:#000000;"/>
    <path clip-path="url(#pa2c7012a27)" d="M 171.801719 89.503929 
L 189.044973 161.685299 
" style="fill:none;stroke:#000000;"/>
    <path clip-path="url(#pa2c7012a27)" d="M 304 232.876323 
L 304 304.067348 
" style="fill:none;stroke:#000000;"/>
    <path clip-path="url(#pa2c7012a27)" d="M 411.291359 89.503929 
L 349.982011 232.876323 
" style="fill:none;stroke:#000000;"/>
    <path clip-path="url(#pa2c7012a27)" d="M 411.291359 89.503929 
L 395.964022 232.876323 
" style="fill:none;stroke:#000000;"/>
    <path clip-path="url(#pa2c7012a27)" d="M 411.291359 89.503929 
L 487.928043 161.685299 
" style="fill:none;stroke:#000000;"/>
    <path clip-path="url(#pa2c7012a27)" d="M 349.982011 232.876323 
L 349.982011 304.067348 
" style="fill:none;stroke:#000000;"/>
    <path clip-path="url(#pa2c7012a27)" d="M 395.964022 232.876323 
L 395.964022 304.067348 
" style="fill:none;stroke:#000000;"/>
    <path clip-path="url(#pa2c7012a27)" d="M 487.928043 161.685299 
L 441.946032 232.876323 
" style="fill:none;stroke:#000000;"/>
    <path clip-path="url(#pa2c7012a27)" d="M 487.928043 161.685299 
L 487.928043 232.876323 
" style="fill:none;stroke:#000000;"/>
    <path clip-path="url(#pa2c7012a27)" d="M 487.928043 161.685299 
L 533.910054 232.876323 
" style="fill:none;stroke:#000000;"/>
    <path clip-path="url(#pa2c7012a27)" d="M 441.946032 232.876323 
L 441.946032 304.067348 
" style="fill:none;stroke:#000000;"/>
    <path clip-path="url(#pa2c7012a27)" d="M 487.928043 232.876323 
L 487.928043 304.067348 
" style="fill:none;stroke:#000000;"/>
    <path clip-path="url(#pa2c7012a27)" d="M 304 161.685299 
L 579.892065 304.067348 
" style="fill:none;stroke:#000000;"/>
    <path clip-path="url(#pa2c7012a27)" d="M 304 161.685299 
L 28.107935 232.876323 
" style="fill:none;stroke:#000000;"/>
    <path clip-path="url(#pa2c7012a27)" d="M 74.089946 232.876323 
L 74.089946 304.067348 
" style="fill:none;stroke:#000000;"/>
    <path clip-path="url(#pa2c7012a27)" d="M 120.071957 232.876323 
L 120.071957 304.067348 
" style="fill:none;stroke:#000000;"/>
    <path clip-path="url(#pa2c7012a27)" d="M 189.044973 161.685299 
L 166.053968 232.876323 
" style="fill:none;stroke:#000000;"/>
    <path clip-path="url(#pa2c7012a27)" d="M 189.044973 161.685299 
L 212.035978 232.876323 
" style="fill:none;stroke:#000000;"/>
    <path clip-path="url(#pa2c7012a27)" d="M 166.053968 232.876323 
L 166.053968 304.067348 
" style="fill:none;stroke:#000000;"/>
    <path clip-path="url(#pa2c7012a27)" d="M 212.035978 232.876323 
L 212.035978 304.067348 
" style="fill:none;stroke:#000000;"/>
    <path clip-path="url(#pa2c7012a27)" d="M 28.107935 232.876323 
L 28.107935 304.067348 
" style="fill:none;stroke:#000000;"/>
    <path clip-path="url(#pa2c7012a27)" d="M 295.697692 15.932652 
L 171.801719 89.503929 
" style="fill:none;stroke:#000000;"/>
    <path clip-path="url(#pa2c7012a27)" d="M 295.697692 15.932652 
L 304 232.876323 
" style="fill:none;stroke:#000000;"/>
    <path clip-path="url(#pa2c7012a27)" d="M 295.697692 15.932652 
L 411.291359 89.503929 
" style="fill:none;stroke:#000000;"/>
    <path clip-path="url(#pa2c7012a27)" d="M 258.017989 232.876323 
L 258.017989 304.067348 
" style="fill:none;stroke:#000000;"/>
    <path clip-path="url(#pa2c7012a27)" d="M 533.910054 232.876323 
L 533.910054 304.067348 
" style="fill:none;stroke:#000000;"/>
   </g>
   <g id="text_1">
    <g id="patch_2">
     <path clip-path="url(#pa2c7012a27)" d="M 229.899726 59.620306 
L 234.960877 56.367614 
Q 236.97987 55.070051 235.682307 53.051059 
L 231.496315 46.537705 
Q 230.198753 44.518712 228.17976 45.816275 
L 223.118608 49.068967 
Q 221.099616 50.36653 222.397179 52.385523 
L 226.58317 58.898877 
Q 227.880733 60.917869 229.899726 59.620306 
z
" style="fill:#ffffff;stroke:#ffffff;stroke-linejoin:miter;"/>
    </g>
    <g clip-path="url(#pa2c7012a27)">
     <!-- H -->
     <defs>
      <path d="M 9.8125 72.90625 
L 19.671875 72.90625 
L 19.671875 43.015625 
L 55.515625 43.015625 
L 55.515625 72.90625 
L 65.375 72.90625 
L 65.375 0 
L 55.515625 0 
L 55.515625 34.71875 
L 19.671875 34.71875 
L 19.671875 0 
L 9.8125 0 
z
" id="DejaVuSans-72"/>
     </defs>
     <g transform="translate(227.702654 56.201689)rotate(-32.727977)scale(0.08 -0.08)">
      <use xlink:href="#DejaVuSans-72"/>
     </g>
    </g>
   </g>
   <g id="text_2">
    <g id="patch_3">
     <path clip-path="url(#pa2c7012a27)" d="M 288.706991 122.693738 
L 289.069917 127.136439 
Q 289.265324 129.528471 291.657356 129.333064 
L 299.37415 128.702676 
Q 301.766182 128.50727 301.570776 126.115238 
L 301.207849 121.672537 
Q 301.012443 119.280505 298.620411 119.475911 
L 290.903617 120.1063 
Q 288.511585 120.301706 288.706991 122.693738 
z
" style="fill:#ffffff;stroke:#ffffff;stroke-linejoin:miter;"/>
    </g>
    <g clip-path="url(#pa2c7012a27)">
     <!-- L -->
     <defs>
      <path d="M 9.8125 72.90625 
L 19.671875 72.90625 
L 19.671875 8.296875 
L 55.171875 8.296875 
L 55.171875 0 
L 9.8125 0 
z
" id="DejaVuSans-76"/>
     </defs>
     <g transform="translate(292.757249 122.36287)rotate(-274.67015)scale(0.08 -0.08)">
      <use xlink:href="#DejaVuSans-76"/>
     </g>
    </g>
   </g>
   <g id="text_3">
    <g id="patch_4">
     <path clip-path="url(#pa2c7012a27)" d="M 343.011326 56.597354 
L 348.196324 59.648757 
Q 350.264721 60.866022 351.481985 58.797625 
L 355.408932 52.124889 
Q 356.626196 50.056492 354.557799 48.839227 
L 349.372802 45.787824 
Q 347.304404 44.570559 346.08714 46.638957 
L 342.160193 53.311692 
Q 340.942929 55.380089 343.011326 56.597354 
z
" style="fill:#ffffff;stroke:#ffffff;stroke-linejoin:miter;"/>
    </g>
    <g clip-path="url(#pa2c7012a27)">
     <!-- H -->
     <g transform="translate(345.072434 53.095083)rotate(-329.522924)scale(0.08 -0.08)">
      <use xlink:href="#DejaVuSans-72"/>
     </g>
    </g>
   </g>
   <g id="text_4">
    <g id="patch_5">
     <path clip-path="url(#pa2c7012a27)" d="M 277.988438 128.117531 
L 278.744739 122.311583 
Q 279.054752 119.93169 276.674859 119.621677 
L 268.997224 118.621564 
Q 266.61733 118.311551 266.307318 120.691445 
L 265.551016 126.497393 
Q 265.241004 128.877286 267.620897 129.187299 
L 275.298532 130.187412 
Q 277.678426 130.497424 277.988438 128.117531 
z
" style="fill:#ffffff;stroke:#ffffff;stroke-linejoin:miter;"/>
    </g>
    <g clip-path="url(#pa2c7012a27)">
     <!-- U -->
     <defs>
      <path d="M 8.6875 72.90625 
L 18.609375 72.90625 
L 18.609375 28.609375 
Q 18.609375 16.890625 22.84375 11.734375 
Q 27.09375 6.59375 36.625 6.59375 
Q 46.09375 6.59375 50.34375 11.734375 
Q 54.59375 16.890625 54.59375 28.609375 
L 54.59375 72.90625 
L 64.5 72.90625 
L 64.5 27.390625 
Q 64.5 13.140625 57.4375 5.859375 
Q 50.390625 -1.421875 36.625 -1.421875 
Q 22.796875 -1.421875 15.734375 5.859375 
Q 8.6875 13.140625 8.6875 27.390625 
z
" id="DejaVuSans-85"/>
     </defs>
     <g transform="translate(273.958733 127.592609)rotate(-82.578259)scale(0.08 -0.08)">
      <use xlink:href="#DejaVuSans-85"/>
     </g>
    </g>
   </g>
   <g id="text_5">
    <g id="patch_6">
     <path clip-path="url(#pa2c7012a27)" d="M 232.493926 129.78755 
L 237.297091 132.410119 
Q 239.40355 133.560263 240.553694 131.453804 
L 244.264107 124.65828 
Q 245.414251 122.551822 243.307792 121.401677 
L 238.504628 118.779109 
Q 236.398169 117.628965 235.248025 119.735424 
L 231.537612 126.530948 
Q 230.387468 128.637406 232.493926 129.78755 
z
" style="fill:#ffffff;stroke:#ffffff;stroke-linejoin:miter;"/>
    </g>
    <g clip-path="url(#pa2c7012a27)">
     <!-- A -->
     <defs>
      <path d="M 34.1875 63.1875 
L 20.796875 26.90625 
L 47.609375 26.90625 
z
M 28.609375 72.90625 
L 39.796875 72.90625 
L 67.578125 0 
L 57.328125 0 
L 50.6875 18.703125 
L 17.828125 18.703125 
L 11.1875 0 
L 0.78125 0 
z
" id="DejaVuSans-65"/>
     </defs>
     <g transform="translate(234.441384 126.220833)rotate(-331.36509)scale(0.08 -0.08)">
      <use xlink:href="#DejaVuSans-65"/>
     </g>
    </g>
   </g>
   <g id="text_6">
    <g id="patch_7">
     <path clip-path="url(#pa2c7012a27)" d="M 126.697917 166.820301 
L 129.558122 162.623525 
Q 130.909732 160.640308 128.926515 159.288697 
L 122.528575 154.928345 
Q 120.545358 153.576735 119.193748 155.559952 
L 116.333543 159.756728 
Q 114.981933 161.739945 116.965149 163.091555 
L 123.36309 167.451907 
Q 125.346306 168.803517 126.697917 166.820301 
z
" style="fill:#ffffff;stroke:#ffffff;stroke-linejoin:miter;"/>
    </g>
    <g clip-path="url(#pa2c7012a27)">
     <!-- S -->
     <defs>
      <path d="M 53.515625 70.515625 
L 53.515625 60.890625 
Q 47.90625 63.578125 42.921875 64.890625 
Q 37.9375 66.21875 33.296875 66.21875 
Q 25.25 66.21875 20.875 63.09375 
Q 16.5 59.96875 16.5 54.203125 
Q 16.5 49.359375 19.40625 46.890625 
Q 22.3125 44.4375 30.421875 42.921875 
L 36.375 41.703125 
Q 47.40625 39.59375 52.65625 34.296875 
Q 57.90625 29 57.90625 20.125 
Q 57.90625 9.515625 50.796875 4.046875 
Q 43.703125 -1.421875 29.984375 -1.421875 
Q 24.8125 -1.421875 18.96875 -0.25 
Q 13.140625 0.921875 6.890625 3.21875 
L 6.890625 13.375 
Q 12.890625 10.015625 18.65625 8.296875 
Q 24.421875 6.59375 29.984375 6.59375 
Q 38.421875 6.59375 43.015625 9.90625 
Q 47.609375 13.234375 47.609375 19.390625 
Q 47.609375 24.75 44.3125 27.78125 
Q 41.015625 30.8125 33.5 32.328125 
L 27.484375 33.5 
Q 16.453125 35.6875 11.515625 40.375 
Q 6.59375 45.0625 6.59375 53.421875 
Q 6.59375 63.09375 13.40625 68.65625 
Q 20.21875 74.21875 32.171875 74.21875 
Q 37.3125 74.21875 42.625 73.28125 
Q 47.953125 72.359375 53.515625 70.515625 
z
" id="DejaVuSans-83"/>
     </defs>
     <g transform="translate(123.339876 164.531714)rotate(-55.724619)scale(0.08 -0.08)">
      <use xlink:href="#DejaVuSans-83"/>
     </g>
    </g>
   </g>
   <g id="text_7">
    <g id="patch_8">
     <path clip-path="url(#pa2c7012a27)" d="M 150.9072 165.892375 
L 152.764519 160.744694 
Q 153.579058 158.487145 151.32151 157.672606 
L 144.038564 155.044868 
Q 141.781015 154.230329 140.966476 156.487877 
L 139.109157 161.635558 
Q 138.294617 163.893107 140.552166 164.707646 
L 147.835112 167.335384 
Q 150.09266 168.149924 150.9072 165.892375 
z
" style="fill:#ffffff;stroke:#ffffff;stroke-linejoin:miter;"/>
    </g>
    <g clip-path="url(#pa2c7012a27)">
     <!-- A -->
     <g transform="translate(147.084653 164.513173)rotate(-70.160202)scale(0.08 -0.08)">
      <use xlink:href="#DejaVuSans-65"/>
     </g>
    </g>
   </g>
   <g id="text_8">
    <g id="patch_9">
     <path clip-path="url(#pa2c7012a27)" d="M 173.687958 124.390374 
L 174.959494 129.713104 
Q 175.517134 132.047421 177.851451 131.489781 
L 185.382056 129.690811 
Q 187.716374 129.133171 187.158734 126.798854 
L 185.887198 121.476124 
Q 185.329558 119.141806 182.995241 119.699447 
L 175.464635 121.498417 
Q 173.130318 122.056057 173.687958 124.390374 
z
" style="fill:#ffffff;stroke:#ffffff;stroke-linejoin:miter;"/>
    </g>
    <g clip-path="url(#pa2c7012a27)">
     <!-- A -->
     <g transform="translate(177.640492 123.446162)rotate(-283.435468)scale(0.08 -0.08)">
      <use xlink:href="#DejaVuSans-65"/>
     </g>
    </g>
   </g>
   <g id="text_9">
    <g id="patch_10">
     <path clip-path="url(#pa2c7012a27)" d="M 297.72875 250.829335 
L 297.72875 286.114335 
Q 297.72875 288.514335 300.12875 288.514335 
L 307.87125 288.514335 
Q 310.27125 288.514335 310.27125 286.114335 
L 310.27125 250.829335 
Q 310.27125 248.429335 307.87125 248.429335 
L 300.12875 248.429335 
Q 297.72875 248.429335 297.72875 250.829335 
z
" style="fill:#ffffff;stroke:#ffffff;stroke-linejoin:miter;"/>
    </g>
    <g clip-path="url(#pa2c7012a27)">
     <!-- Terminal -->
     <defs>
      <path d="M -0.296875 72.90625 
L 61.375 72.90625 
L 61.375 64.59375 
L 35.5 64.59375 
L 35.5 0 
L 25.59375 0 
L 25.59375 64.59375 
L -0.296875 64.59375 
z
" id="DejaVuSans-84"/>
      <path d="M 56.203125 29.59375 
L 56.203125 25.203125 
L 14.890625 25.203125 
Q 15.484375 15.921875 20.484375 11.0625 
Q 25.484375 6.203125 34.421875 6.203125 
Q 39.59375 6.203125 44.453125 7.46875 
Q 49.3125 8.734375 54.109375 11.28125 
L 54.109375 2.78125 
Q 49.265625 0.734375 44.1875 -0.34375 
Q 39.109375 -1.421875 33.890625 -1.421875 
Q 20.796875 -1.421875 13.15625 6.1875 
Q 5.515625 13.8125 5.515625 26.8125 
Q 5.515625 40.234375 12.765625 48.109375 
Q 20.015625 56 32.328125 56 
Q 43.359375 56 49.78125 48.890625 
Q 56.203125 41.796875 56.203125 29.59375 
z
M 47.21875 32.234375 
Q 47.125 39.59375 43.09375 43.984375 
Q 39.0625 48.390625 32.421875 48.390625 
Q 24.90625 48.390625 20.390625 44.140625 
Q 15.875 39.890625 15.1875 32.171875 
z
" id="DejaVuSans-101"/>
      <path d="M 41.109375 46.296875 
Q 39.59375 47.171875 37.8125 47.578125 
Q 36.03125 48 33.890625 48 
Q 26.265625 48 22.1875 43.046875 
Q 18.109375 38.09375 18.109375 28.8125 
L 18.109375 0 
L 9.078125 0 
L 9.078125 54.6875 
L 18.109375 54.6875 
L 18.109375 46.1875 
Q 20.953125 51.171875 25.484375 53.578125 
Q 30.03125 56 36.53125 56 
Q 37.453125 56 38.578125 55.875 
Q 39.703125 55.765625 41.0625 55.515625 
z
" id="DejaVuSans-114"/>
      <path d="M 52 44.1875 
Q 55.375 50.25 60.0625 53.125 
Q 64.75 56 71.09375 56 
Q 79.640625 56 84.28125 50.015625 
Q 88.921875 44.046875 88.921875 33.015625 
L 88.921875 0 
L 79.890625 0 
L 79.890625 32.71875 
Q 79.890625 40.578125 77.09375 44.375 
Q 74.3125 48.1875 68.609375 48.1875 
Q 61.625 48.1875 57.5625 43.546875 
Q 53.515625 38.921875 53.515625 30.90625 
L 53.515625 0 
L 44.484375 0 
L 44.484375 32.71875 
Q 44.484375 40.625 41.703125 44.40625 
Q 38.921875 48.1875 33.109375 48.1875 
Q 26.21875 48.1875 22.15625 43.53125 
Q 18.109375 38.875 18.109375 30.90625 
L 18.109375 0 
L 9.078125 0 
L 9.078125 54.6875 
L 18.109375 54.6875 
L 18.109375 46.1875 
Q 21.1875 51.21875 25.484375 53.609375 
Q 29.78125 56 35.6875 56 
Q 41.65625 56 45.828125 52.96875 
Q 50 49.953125 52 44.1875 
z
" id="DejaVuSans-109"/>
      <path d="M 9.421875 54.6875 
L 18.40625 54.6875 
L 18.40625 0 
L 9.421875 0 
z
M 9.421875 75.984375 
L 18.40625 75.984375 
L 18.40625 64.59375 
L 9.421875 64.59375 
z
" id="DejaVuSans-105"/>
      <path d="M 54.890625 33.015625 
L 54.890625 0 
L 45.90625 0 
L 45.90625 32.71875 
Q 45.90625 40.484375 42.875 44.328125 
Q 39.84375 48.1875 33.796875 48.1875 
Q 26.515625 48.1875 22.3125 43.546875 
Q 18.109375 38.921875 18.109375 30.90625 
L 18.109375 0 
L 9.078125 0 
L 9.078125 54.6875 
L 18.109375 54.6875 
L 18.109375 46.1875 
Q 21.34375 51.125 25.703125 53.5625 
Q 30.078125 56 35.796875 56 
Q 45.21875 56 50.046875 50.171875 
Q 54.890625 44.34375 54.890625 33.015625 
z
" id="DejaVuSans-110"/>
      <path d="M 34.28125 27.484375 
Q 23.390625 27.484375 19.1875 25 
Q 14.984375 22.515625 14.984375 16.5 
Q 14.984375 11.71875 18.140625 8.90625 
Q 21.296875 6.109375 26.703125 6.109375 
Q 34.1875 6.109375 38.703125 11.40625 
Q 43.21875 16.703125 43.21875 25.484375 
L 43.21875 27.484375 
z
M 52.203125 31.203125 
L 52.203125 0 
L 43.21875 0 
L 43.21875 8.296875 
Q 40.140625 3.328125 35.546875 0.953125 
Q 30.953125 -1.421875 24.3125 -1.421875 
Q 15.921875 -1.421875 10.953125 3.296875 
Q 6 8.015625 6 15.921875 
Q 6 25.140625 12.171875 29.828125 
Q 18.359375 34.515625 30.609375 34.515625 
L 43.21875 34.515625 
L 43.21875 35.40625 
Q 43.21875 41.609375 39.140625 45 
Q 35.0625 48.390625 27.6875 48.390625 
Q 23 48.390625 18.546875 47.265625 
Q 14.109375 46.140625 10.015625 43.890625 
L 10.015625 52.203125 
Q 14.9375 54.109375 19.578125 55.046875 
Q 24.21875 56 28.609375 56 
Q 40.484375 56 46.34375 49.84375 
Q 52.203125 43.703125 52.203125 31.203125 
z
" id="DejaVuSans-97"/>
      <path d="M 9.421875 75.984375 
L 18.40625 75.984375 
L 18.40625 0 
L 9.421875 0 
z
" id="DejaVuSans-108"/>
     </defs>
     <g transform="translate(301.7925 250.829335)rotate(-270)scale(0.08 -0.08)">
      <use xlink:href="#DejaVuSans-84"/>
      <use x="60.818359" xlink:href="#DejaVuSans-101"/>
      <use x="122.341797" xlink:href="#DejaVuSans-114"/>
      <use x="163.439453" xlink:href="#DejaVuSans-109"/>
      <use x="260.851562" xlink:href="#DejaVuSans-105"/>
      <use x="288.634766" xlink:href="#DejaVuSans-110"/>
      <use x="352.013672" xlink:href="#DejaVuSans-97"/>
      <use x="413.292969" xlink:href="#DejaVuSans-108"/>
     </g>
    </g>
   </g>
   <g id="text_10">
    <g id="patch_11">
     <path clip-path="url(#pa2c7012a27)" d="M 385.327005 166.171746 
L 387.478697 161.139998 
Q 388.422335 158.933293 386.21563 157.989655 
L 379.096707 154.94544 
Q 376.890002 154.001802 375.946364 156.208507 
L 373.794673 161.240254 
Q 372.851035 163.446959 375.05774 164.390597 
L 382.176662 167.434813 
Q 384.383367 168.378451 385.327005 166.171746 
z
" style="fill:#ffffff;stroke:#ffffff;stroke-linejoin:miter;"/>
    </g>
    <g clip-path="url(#pa2c7012a27)">
     <!-- A -->
     <g transform="translate(381.590548 164.57395)rotate(-66.847329)scale(0.08 -0.08)">
      <use xlink:href="#DejaVuSans-65"/>
     </g>
    </g>
   </g>
   <g id="text_11">
    <g id="patch_12">
     <path clip-path="url(#pa2c7012a27)" d="M 409.607025 164.25497 
L 410.11979 159.458551 
Q 410.37491 157.072149 407.988509 156.817029 
L 400.289877 155.994001 
Q 397.903475 155.738881 397.648355 158.125282 
L 397.13559 162.921701 
Q 396.88047 165.308103 399.266872 165.563223 
L 406.965503 166.386252 
Q 409.351905 166.641372 409.607025 164.25497 
z
" style="fill:#ffffff;stroke:#ffffff;stroke-linejoin:miter;"/>
    </g>
    <g clip-path="url(#pa2c7012a27)">
     <!-- P -->
     <defs>
      <path d="M 19.671875 64.796875 
L 19.671875 37.40625 
L 32.078125 37.40625 
Q 38.96875 37.40625 42.71875 40.96875 
Q 46.484375 44.53125 46.484375 51.125 
Q 46.484375 57.671875 42.71875 61.234375 
Q 38.96875 64.796875 32.078125 64.796875 
z
M 9.8125 72.90625 
L 32.078125 72.90625 
Q 44.34375 72.90625 50.609375 67.359375 
Q 56.890625 61.8125 56.890625 51.125 
Q 56.890625 40.328125 50.609375 34.8125 
Q 44.34375 29.296875 32.078125 29.296875 
L 19.671875 29.296875 
L 19.671875 0 
L 9.8125 0 
z
" id="DejaVuSans-80"/>
     </defs>
     <g transform="translate(405.5663 163.822993)rotate(-83.897926)scale(0.08 -0.08)">
      <use xlink:href="#DejaVuSans-80"/>
     </g>
    </g>
   </g>
   <g id="text_12">
    <g id="patch_13">
     <path clip-path="url(#pa2c7012a27)" d="M 443.318089 128.283715 
L 447.301796 132.035826 
Q 449.048876 133.681339 450.694388 131.934259 
L 456.00288 126.298106 
Q 457.648393 124.551026 455.901313 122.905513 
L 451.917606 119.153402 
Q 450.170526 117.507889 448.525014 119.254969 
L 443.216522 124.891122 
Q 441.571009 126.638202 443.318089 128.283715 
z
" style="fill:#ffffff;stroke:#ffffff;stroke-linejoin:miter;"/>
    </g>
    <g clip-path="url(#pa2c7012a27)">
     <!-- A -->
     <g transform="translate(446.104319 125.325508)rotate(-316.714809)scale(0.08 -0.08)">
      <use xlink:href="#DejaVuSans-65"/>
     </g>
    </g>
   </g>
   <g id="text_13">
    <g id="patch_14">
     <path clip-path="url(#pa2c7012a27)" d="M 343.710761 250.829335 
L 343.710761 286.114335 
Q 343.710761 288.514335 346.110761 288.514335 
L 353.853261 288.514335 
Q 356.253261 288.514335 356.253261 286.114335 
L 356.253261 250.829335 
Q 356.253261 248.429335 353.853261 248.429335 
L 346.110761 248.429335 
Q 343.710761 248.429335 343.710761 250.829335 
z
" style="fill:#ffffff;stroke:#ffffff;stroke-linejoin:miter;"/>
    </g>
    <g clip-path="url(#pa2c7012a27)">
     <!-- Terminal -->
     <g transform="translate(347.774511 250.829335)rotate(-270)scale(0.08 -0.08)">
      <use xlink:href="#DejaVuSans-84"/>
      <use x="60.818359" xlink:href="#DejaVuSans-101"/>
      <use x="122.341797" xlink:href="#DejaVuSans-114"/>
      <use x="163.439453" xlink:href="#DejaVuSans-109"/>
      <use x="260.851562" xlink:href="#DejaVuSans-105"/>
      <use x="288.634766" xlink:href="#DejaVuSans-110"/>
      <use x="352.013672" xlink:href="#DejaVuSans-97"/>
      <use x="413.292969" xlink:href="#DejaVuSans-108"/>
     </g>
    </g>
   </g>
   <g id="text_14">
    <g id="patch_15">
     <path clip-path="url(#pa2c7012a27)" d="M 389.692772 250.829335 
L 389.692772 286.114335 
Q 389.692772 288.514335 392.092772 288.514335 
L 399.835272 288.514335 
Q 402.235272 288.514335 402.235272 286.114335 
L 402.235272 250.829335 
Q 402.235272 248.429335 399.835272 248.429335 
L 392.092772 248.429335 
Q 389.692772 248.429335 389.692772 250.829335 
z
" style="fill:#ffffff;stroke:#ffffff;stroke-linejoin:miter;"/>
    </g>
    <g clip-path="url(#pa2c7012a27)">
     <!-- Terminal -->
     <g transform="translate(393.756522 250.829335)rotate(-270)scale(0.08 -0.08)">
      <use xlink:href="#DejaVuSans-84"/>
      <use x="60.818359" xlink:href="#DejaVuSans-101"/>
      <use x="122.341797" xlink:href="#DejaVuSans-114"/>
      <use x="163.439453" xlink:href="#DejaVuSans-109"/>
      <use x="260.851562" xlink:href="#DejaVuSans-105"/>
      <use x="288.634766" xlink:href="#DejaVuSans-110"/>
      <use x="352.013672" xlink:href="#DejaVuSans-97"/>
      <use x="413.292969" xlink:href="#DejaVuSans-108"/>
     </g>
    </g>
   </g>
   <g id="text_15">
    <g id="patch_16">
     <path clip-path="url(#pa2c7012a27)" d="M 468.689539 203.029625 
L 471.720429 198.33709 
Q 473.02258 196.321053 471.006543 195.018902 
L 464.502724 190.818111 
Q 462.486688 189.51596 461.184537 191.531997 
L 458.153646 196.224533 
Q 456.851496 198.240569 458.867533 199.54272 
L 465.371351 203.743511 
Q 467.387388 205.045662 468.689539 203.029625 
z
" style="fill:#ffffff;stroke:#ffffff;stroke-linejoin:miter;"/>
    </g>
    <g clip-path="url(#pa2c7012a27)">
     <!-- C -->
     <defs>
      <path d="M 64.40625 67.28125 
L 64.40625 56.890625 
Q 59.421875 61.53125 53.78125 63.8125 
Q 48.140625 66.109375 41.796875 66.109375 
Q 29.296875 66.109375 22.65625 58.46875 
Q 16.015625 50.828125 16.015625 36.375 
Q 16.015625 21.96875 22.65625 14.328125 
Q 29.296875 6.6875 41.796875 6.6875 
Q 48.140625 6.6875 53.78125 8.984375 
Q 59.421875 11.28125 64.40625 15.921875 
L 64.40625 5.609375 
Q 59.234375 2.09375 53.4375 0.328125 
Q 47.65625 -1.421875 41.21875 -1.421875 
Q 24.65625 -1.421875 15.125 8.703125 
Q 5.609375 18.84375 5.609375 36.375 
Q 5.609375 53.953125 15.125 64.078125 
Q 24.65625 74.21875 41.21875 74.21875 
Q 47.75 74.21875 53.53125 72.484375 
Q 59.328125 70.75 64.40625 67.28125 
z
" id="DejaVuSans-67"/>
     </defs>
     <g transform="translate(465.275926 200.824786)rotate(-57.141737)scale(0.08 -0.08)">
      <use xlink:href="#DejaVuSans-67"/>
     </g>
    </g>
   </g>
   <g id="text_16">
    <g id="patch_17">
     <path clip-path="url(#pa2c7012a27)" d="M 481.656793 194.753311 
L 481.656793 199.808311 
Q 481.656793 202.208311 484.056793 202.208311 
L 491.799293 202.208311 
Q 494.199293 202.208311 494.199293 199.808311 
L 494.199293 194.753311 
Q 494.199293 192.353311 491.799293 192.353311 
L 484.056793 192.353311 
Q 481.656793 192.353311 481.656793 194.753311 
z
" style="fill:#ffffff;stroke:#ffffff;stroke-linejoin:miter;"/>
    </g>
    <g clip-path="url(#pa2c7012a27)">
     <!-- E -->
     <defs>
      <path d="M 9.8125 72.90625 
L 55.90625 72.90625 
L 55.90625 64.59375 
L 19.671875 64.59375 
L 19.671875 43.015625 
L 54.390625 43.015625 
L 54.390625 34.71875 
L 19.671875 34.71875 
L 19.671875 8.296875 
L 56.78125 8.296875 
L 56.78125 0 
L 9.8125 0 
z
" id="DejaVuSans-69"/>
     </defs>
     <g transform="translate(485.720543 194.753311)rotate(-270)scale(0.08 -0.08)">
      <use xlink:href="#DejaVuSans-69"/>
     </g>
    </g>
   </g>
   <g id="text_17">
    <g id="patch_18">
     <path clip-path="url(#pa2c7012a27)" d="M 504.06275 198.224212 
L 507.239455 203.142502 
Q 508.541605 205.158539 510.557642 203.856388 
L 517.061461 199.655597 
Q 519.077497 198.353446 517.775347 196.33741 
L 514.598642 191.41912 
Q 513.296492 189.403083 511.280455 190.705234 
L 504.776637 194.906025 
Q 502.7606 196.208176 504.06275 198.224212 
z
" style="fill:#ffffff;stroke:#ffffff;stroke-linejoin:miter;"/>
    </g>
    <g clip-path="url(#pa2c7012a27)">
     <!-- U -->
     <g transform="translate(507.476363 196.019373)rotate(-302.858263)scale(0.08 -0.08)">
      <use xlink:href="#DejaVuSans-85"/>
     </g>
    </g>
   </g>
   <g id="text_18">
    <g id="patch_19">
     <path clip-path="url(#pa2c7012a27)" d="M 435.674782 250.829335 
L 435.674782 286.114335 
Q 435.674782 288.514335 438.074782 288.514335 
L 445.817282 288.514335 
Q 448.217282 288.514335 448.217282 286.114335 
L 448.217282 250.829335 
Q 448.217282 248.429335 445.817282 248.429335 
L 438.074782 248.429335 
Q 435.674782 248.429335 435.674782 250.829335 
z
" style="fill:#ffffff;stroke:#ffffff;stroke-linejoin:miter;"/>
    </g>
    <g clip-path="url(#pa2c7012a27)">
     <!-- Terminal -->
     <g transform="translate(439.738532 250.829335)rotate(-270)scale(0.08 -0.08)">
      <use xlink:href="#DejaVuSans-84"/>
      <use x="60.818359" xlink:href="#DejaVuSans-101"/>
      <use x="122.341797" xlink:href="#DejaVuSans-114"/>
      <use x="163.439453" xlink:href="#DejaVuSans-109"/>
      <use x="260.851562" xlink:href="#DejaVuSans-105"/>
      <use x="288.634766" xlink:href="#DejaVuSans-110"/>
      <use x="352.013672" xlink:href="#DejaVuSans-97"/>
      <use x="413.292969" xlink:href="#DejaVuSans-108"/>
     </g>
    </g>
   </g>
   <g id="text_19">
    <g id="patch_20">
     <path clip-path="url(#pa2c7012a27)" d="M 481.656793 250.829335 
L 481.656793 286.114335 
Q 481.656793 288.514335 484.056793 288.514335 
L 491.799293 288.514335 
Q 494.199293 288.514335 494.199293 286.114335 
L 494.199293 250.829335 
Q 494.199293 248.429335 491.799293 248.429335 
L 484.056793 248.429335 
Q 481.656793 248.429335 481.656793 250.829335 
z
" style="fill:#ffffff;stroke:#ffffff;stroke-linejoin:miter;"/>
    </g>
    <g clip-path="url(#pa2c7012a27)">
     <!-- Terminal -->
     <g transform="translate(485.720543 250.829335)rotate(-270)scale(0.08 -0.08)">
      <use xlink:href="#DejaVuSans-84"/>
      <use x="60.818359" xlink:href="#DejaVuSans-101"/>
      <use x="122.341797" xlink:href="#DejaVuSans-114"/>
      <use x="163.439453" xlink:href="#DejaVuSans-109"/>
      <use x="260.851562" xlink:href="#DejaVuSans-105"/>
      <use x="288.634766" xlink:href="#DejaVuSans-110"/>
      <use x="352.013672" xlink:href="#DejaVuSans-97"/>
      <use x="413.292969" xlink:href="#DejaVuSans-108"/>
     </g>
    </g>
   </g>
   <g id="text_20">
    <g id="patch_21">
     <path clip-path="url(#pa2c7012a27)" d="M 436.638451 237.194334 
L 441.501527 239.704065 
Q 443.63426 240.804723 444.734919 238.67199 
L 448.285689 231.791704 
Q 449.386347 229.658971 447.253614 228.558312 
L 442.390538 226.048582 
Q 440.257805 224.947923 439.157146 227.080656 
L 435.606376 233.960943 
Q 434.505718 236.093676 436.638451 237.194334 
z
" style="fill:#ffffff;stroke:#ffffff;stroke-linejoin:miter;"/>
    </g>
    <g clip-path="url(#pa2c7012a27)">
     <!-- A -->
     <g transform="translate(438.502118 233.583128)rotate(-332.7027)scale(0.08 -0.08)">
      <use xlink:href="#DejaVuSans-65"/>
     </g>
    </g>
   </g>
   <g id="text_21">
    <g id="patch_22">
     <path clip-path="url(#pa2c7012a27)" d="M 165.285494 203.955777 
L 169.95625 202.750538 
Q 172.28013 202.150885 171.680477 199.827005 
L 169.745973 192.330073 
Q 169.146321 190.006193 166.822441 190.605845 
L 162.151685 191.811085 
Q 159.827805 192.410737 160.427458 194.734617 
L 162.361962 202.23155 
Q 162.961614 204.555429 165.285494 203.955777 
z
" style="fill:#ffffff;stroke:#ffffff;stroke-linejoin:miter;"/>
    </g>
    <g clip-path="url(#pa2c7012a27)">
     <!-- P -->
     <g transform="translate(164.270145 200.020916)rotate(-14.468945)scale(0.08 -0.08)">
      <use xlink:href="#DejaVuSans-80"/>
     </g>
    </g>
   </g>
   <g id="text_22">
    <g id="patch_23">
     <path clip-path="url(#pa2c7012a27)" d="M 67.818696 250.829335 
L 67.818696 286.114335 
Q 67.818696 288.514335 70.218696 288.514335 
L 77.961196 288.514335 
Q 80.361196 288.514335 80.361196 286.114335 
L 80.361196 250.829335 
Q 80.361196 248.429335 77.961196 248.429335 
L 70.218696 248.429335 
Q 67.818696 248.429335 67.818696 250.829335 
z
" style="fill:#ffffff;stroke:#ffffff;stroke-linejoin:miter;"/>
    </g>
    <g clip-path="url(#pa2c7012a27)">
     <!-- Terminal -->
     <g transform="translate(71.882446 250.829335)rotate(-270)scale(0.08 -0.08)">
      <use xlink:href="#DejaVuSans-84"/>
      <use x="60.818359" xlink:href="#DejaVuSans-101"/>
      <use x="122.341797" xlink:href="#DejaVuSans-114"/>
      <use x="163.439453" xlink:href="#DejaVuSans-109"/>
      <use x="260.851562" xlink:href="#DejaVuSans-105"/>
      <use x="288.634766" xlink:href="#DejaVuSans-110"/>
      <use x="352.013672" xlink:href="#DejaVuSans-97"/>
      <use x="413.292969" xlink:href="#DejaVuSans-108"/>
     </g>
    </g>
   </g>
   <g id="text_23">
    <g id="patch_24">
     <path clip-path="url(#pa2c7012a27)" d="M 113.800707 250.829335 
L 113.800707 286.114335 
Q 113.800707 288.514335 116.200707 288.514335 
L 123.943207 288.514335 
Q 126.343207 288.514335 126.343207 286.114335 
L 126.343207 250.829335 
Q 126.343207 248.429335 123.943207 248.429335 
L 116.200707 248.429335 
Q 113.800707 248.429335 113.800707 250.829335 
z
" style="fill:#ffffff;stroke:#ffffff;stroke-linejoin:miter;"/>
    </g>
    <g clip-path="url(#pa2c7012a27)">
     <!-- Terminal -->
     <g transform="translate(117.864457 250.829335)rotate(-270)scale(0.08 -0.08)">
      <use xlink:href="#DejaVuSans-84"/>
      <use x="60.818359" xlink:href="#DejaVuSans-101"/>
      <use x="122.341797" xlink:href="#DejaVuSans-114"/>
      <use x="163.439453" xlink:href="#DejaVuSans-109"/>
      <use x="260.851562" xlink:href="#DejaVuSans-105"/>
      <use x="288.634766" xlink:href="#DejaVuSans-110"/>
      <use x="352.013672" xlink:href="#DejaVuSans-97"/>
      <use x="413.292969" xlink:href="#DejaVuSans-108"/>
     </g>
    </g>
   </g>
   <g id="text_24">
    <g id="patch_25">
     <path clip-path="url(#pa2c7012a27)" d="M 182.663076 201.852959 
L 184.371388 196.563217 
Q 185.108955 194.279362 182.825099 193.541795 
L 175.457287 191.162374 
Q 173.173431 190.424807 172.435865 192.708663 
L 170.727553 197.998405 
Q 169.989986 200.28226 172.273841 201.019827 
L 179.641654 203.399248 
Q 181.925509 204.136815 182.663076 201.852959 
z
" style="fill:#ffffff;stroke:#ffffff;stroke-linejoin:miter;"/>
    </g>
    <g clip-path="url(#pa2c7012a27)">
     <!-- R -->
     <defs>
      <path d="M 44.390625 34.1875 
Q 47.5625 33.109375 50.5625 29.59375 
Q 53.5625 26.078125 56.59375 19.921875 
L 66.609375 0 
L 56 0 
L 46.6875 18.703125 
Q 43.0625 26.03125 39.671875 28.421875 
Q 36.28125 30.8125 30.421875 30.8125 
L 19.671875 30.8125 
L 19.671875 0 
L 9.8125 0 
L 9.8125 72.90625 
L 32.078125 72.90625 
Q 44.578125 72.90625 50.734375 67.671875 
Q 56.890625 62.453125 56.890625 51.90625 
Q 56.890625 45.015625 53.6875 40.46875 
Q 50.484375 35.9375 44.390625 34.1875 
z
M 19.671875 64.796875 
L 19.671875 38.921875 
L 32.078125 38.921875 
Q 39.203125 38.921875 42.84375 42.21875 
Q 46.484375 45.515625 46.484375 51.90625 
Q 46.484375 58.296875 42.84375 61.546875 
Q 39.203125 64.796875 32.078125 64.796875 
z
" id="DejaVuSans-82"/>
     </defs>
     <g transform="translate(178.795985 200.60409)rotate(-72.102237)scale(0.08 -0.08)">
      <use xlink:href="#DejaVuSans-82"/>
     </g>
    </g>
   </g>
   <g id="text_25">
    <g id="patch_26">
     <path clip-path="url(#pa2c7012a27)" d="M 193.714332 196.550133 
L 195.431096 201.866044 
Q 196.168662 204.149899 198.452518 203.412333 
L 205.82033 201.032912 
Q 208.104186 200.295345 207.366619 198.011489 
L 205.649856 192.695578 
Q 204.912289 190.411723 202.628434 191.14929 
L 195.260621 193.528711 
Q 192.976766 194.266277 193.714332 196.550133 
z
" style="fill:#ffffff;stroke:#ffffff;stroke-linejoin:miter;"/>
    </g>
    <g clip-path="url(#pa2c7012a27)">
     <!-- C -->
     <g transform="translate(197.581423 195.301263)rotate(-287.897763)scale(0.08 -0.08)">
      <use xlink:href="#DejaVuSans-67"/>
     </g>
    </g>
   </g>
   <g id="text_26">
    <g id="patch_27">
     <path clip-path="url(#pa2c7012a27)" d="M 159.782718 250.829335 
L 159.782718 286.114335 
Q 159.782718 288.514335 162.182718 288.514335 
L 169.925218 288.514335 
Q 172.325218 288.514335 172.325218 286.114335 
L 172.325218 250.829335 
Q 172.325218 248.429335 169.925218 248.429335 
L 162.182718 248.429335 
Q 159.782718 248.429335 159.782718 250.829335 
z
" style="fill:#ffffff;stroke:#ffffff;stroke-linejoin:miter;"/>
    </g>
    <g clip-path="url(#pa2c7012a27)">
     <!-- Terminal -->
     <g transform="translate(163.846468 250.829335)rotate(-270)scale(0.08 -0.08)">
      <use xlink:href="#DejaVuSans-84"/>
      <use x="60.818359" xlink:href="#DejaVuSans-101"/>
      <use x="122.341797" xlink:href="#DejaVuSans-114"/>
      <use x="163.439453" xlink:href="#DejaVuSans-109"/>
      <use x="260.851562" xlink:href="#DejaVuSans-105"/>
      <use x="288.634766" xlink:href="#DejaVuSans-110"/>
      <use x="352.013672" xlink:href="#DejaVuSans-97"/>
      <use x="413.292969" xlink:href="#DejaVuSans-108"/>
     </g>
    </g>
   </g>
   <g id="text_27">
    <g id="patch_28">
     <path clip-path="url(#pa2c7012a27)" d="M 205.764728 250.829335 
L 205.764728 286.114335 
Q 205.764728 288.514335 208.164728 288.514335 
L 215.907228 288.514335 
Q 218.307228 288.514335 218.307228 286.114335 
L 218.307228 250.829335 
Q 218.307228 248.429335 215.907228 248.429335 
L 208.164728 248.429335 
Q 205.764728 248.429335 205.764728 250.829335 
z
" style="fill:#ffffff;stroke:#ffffff;stroke-linejoin:miter;"/>
    </g>
    <g clip-path="url(#pa2c7012a27)">
     <!-- Terminal -->
     <g transform="translate(209.828478 250.829335)rotate(-270)scale(0.08 -0.08)">
      <use xlink:href="#DejaVuSans-84"/>
      <use x="60.818359" xlink:href="#DejaVuSans-101"/>
      <use x="122.341797" xlink:href="#DejaVuSans-114"/>
      <use x="163.439453" xlink:href="#DejaVuSans-109"/>
      <use x="260.851562" xlink:href="#DejaVuSans-105"/>
      <use x="288.634766" xlink:href="#DejaVuSans-110"/>
      <use x="352.013672" xlink:href="#DejaVuSans-97"/>
      <use x="413.292969" xlink:href="#DejaVuSans-108"/>
     </g>
    </g>
   </g>
   <g id="text_28">
    <g id="patch_29">
     <path clip-path="url(#pa2c7012a27)" d="M 21.836685 250.829335 
L 21.836685 286.114335 
Q 21.836685 288.514335 24.236685 288.514335 
L 31.979185 288.514335 
Q 34.379185 288.514335 34.379185 286.114335 
L 34.379185 250.829335 
Q 34.379185 248.429335 31.979185 248.429335 
L 24.236685 248.429335 
Q 21.836685 248.429335 21.836685 250.829335 
z
" style="fill:#ffffff;stroke:#ffffff;stroke-linejoin:miter;"/>
    </g>
    <g clip-path="url(#pa2c7012a27)">
     <!-- Terminal -->
     <g transform="translate(25.900435 250.829335)rotate(-270)scale(0.08 -0.08)">
      <use xlink:href="#DejaVuSans-84"/>
      <use x="60.818359" xlink:href="#DejaVuSans-101"/>
      <use x="122.341797" xlink:href="#DejaVuSans-114"/>
      <use x="163.439453" xlink:href="#DejaVuSans-109"/>
      <use x="260.851562" xlink:href="#DejaVuSans-105"/>
      <use x="288.634766" xlink:href="#DejaVuSans-110"/>
      <use x="352.013672" xlink:href="#DejaVuSans-97"/>
      <use x="413.292969" xlink:href="#DejaVuSans-108"/>
     </g>
    </g>
   </g>
   <g id="text_29">
    <g id="patch_30">
     <path clip-path="url(#pa2c7012a27)" d="M 232.681549 60.646169 
L 241.221813 55.574833 
Q 243.285405 54.349441 242.060013 52.285848 
L 238.106847 45.628613 
Q 236.881455 43.56502 234.817863 44.790412 
L 226.277599 49.861748 
Q 224.214006 51.08714 225.439398 53.150733 
L 229.392564 59.807969 
Q 230.617956 61.871561 232.681549 60.646169 
z
" style="fill:#ffffff;stroke:#ffffff;stroke-linejoin:miter;"/>
    </g>
    <g clip-path="url(#pa2c7012a27)">
     <!-- LA -->
     <g transform="translate(230.606679 57.152034)rotate(-30.702472)scale(0.08 -0.08)">
      <use xlink:href="#DejaVuSans-76"/>
      <use x="55.744141" xlink:href="#DejaVuSans-65"/>
     </g>
    </g>
   </g>
   <g id="text_30">
    <g id="patch_31">
     <path clip-path="url(#pa2c7012a27)" d="M 293.390666 119.639848 
L 293.773701 129.648771 
Q 293.865481 132.047015 296.263725 131.955236 
L 304.000562 131.659152 
Q 306.398806 131.567372 306.307027 129.169128 
L 305.923991 119.160205 
Q 305.832212 116.76196 303.433967 116.85374 
L 295.697131 117.149824 
Q 293.298886 117.241603 293.390666 119.639848 
z
" style="fill:#ffffff;stroke:#ffffff;stroke-linejoin:miter;"/>
    </g>
    <g clip-path="url(#pa2c7012a27)">
     <!-- LR -->
     <g transform="translate(297.451443 119.484444)rotate(-272.191607)scale(0.08 -0.08)">
      <use xlink:href="#DejaVuSans-76"/>
      <use x="55.712891" xlink:href="#DejaVuSans-82"/>
     </g>
    </g>
   </g>
   <g id="text_31">
    <g id="patch_32">
     <path clip-path="url(#pa2c7012a27)" d="M 345.937623 55.342302 
L 354.316907 60.67542 
Q 356.341602 61.964066 357.630249 59.939372 
L 361.787477 53.407621 
Q 363.076123 51.382926 361.051428 50.09428 
L 352.672144 44.761162 
Q 350.647449 43.472515 349.358802 45.49721 
L 345.201574 52.02896 
Q 343.912928 54.053655 345.937623 55.342302 
z
" style="fill:#ffffff;stroke:#ffffff;stroke-linejoin:miter;"/>
    </g>
    <g clip-path="url(#pa2c7012a27)">
     <!-- LA -->
     <g transform="translate(348.119597 51.914029)rotate(-327.52469)scale(0.08 -0.08)">
      <use xlink:href="#DejaVuSans-76"/>
      <use x="55.744141" xlink:href="#DejaVuSans-65"/>
     </g>
    </g>
   </g>
   <g id="text_32">
    <g id="patch_33">
     <path clip-path="url(#pa2c7012a27)" d="M 251.746739 250.829335 
L 251.746739 286.114335 
Q 251.746739 288.514335 254.146739 288.514335 
L 261.889239 288.514335 
Q 264.289239 288.514335 264.289239 286.114335 
L 264.289239 250.829335 
Q 264.289239 248.429335 261.889239 248.429335 
L 254.146739 248.429335 
Q 251.746739 248.429335 251.746739 250.829335 
z
" style="fill:#ffffff;stroke:#ffffff;stroke-linejoin:miter;"/>
    </g>
    <g clip-path="url(#pa2c7012a27)">
     <!-- Terminal -->
     <g transform="translate(255.810489 250.829335)rotate(-270)scale(0.08 -0.08)">
      <use xlink:href="#DejaVuSans-84"/>
      <use x="60.818359" xlink:href="#DejaVuSans-101"/>
      <use x="122.341797" xlink:href="#DejaVuSans-114"/>
      <use x="163.439453" xlink:href="#DejaVuSans-109"/>
      <use x="260.851562" xlink:href="#DejaVuSans-105"/>
      <use x="288.634766" xlink:href="#DejaVuSans-110"/>
      <use x="352.013672" xlink:href="#DejaVuSans-97"/>
      <use x="413.292969" xlink:href="#DejaVuSans-108"/>
     </g>
    </g>
   </g>
   <g id="text_33">
    <g id="patch_34">
     <path clip-path="url(#pa2c7012a27)" d="M 527.638804 250.829335 
L 527.638804 286.114335 
Q 527.638804 288.514335 530.038804 288.514335 
L 537.781304 288.514335 
Q 540.181304 288.514335 540.181304 286.114335 
L 540.181304 250.829335 
Q 540.181304 248.429335 537.781304 248.429335 
L 530.038804 248.429335 
Q 527.638804 248.429335 527.638804 250.829335 
z
" style="fill:#ffffff;stroke:#ffffff;stroke-linejoin:miter;"/>
    </g>
    <g clip-path="url(#pa2c7012a27)">
     <!-- Terminal -->
     <g transform="translate(531.702554 250.829335)rotate(-270)scale(0.08 -0.08)">
      <use xlink:href="#DejaVuSans-84"/>
      <use x="60.818359" xlink:href="#DejaVuSans-101"/>
      <use x="122.341797" xlink:href="#DejaVuSans-114"/>
      <use x="163.439453" xlink:href="#DejaVuSans-109"/>
      <use x="260.851562" xlink:href="#DejaVuSans-105"/>
      <use x="288.634766" xlink:href="#DejaVuSans-110"/>
      <use x="352.013672" xlink:href="#DejaVuSans-97"/>
      <use x="413.292969" xlink:href="#DejaVuSans-108"/>
     </g>
    </g>
   </g>
   <g id="PathCollection_1">
    <defs>
     <path d="M 0 8.660254 
C 2.296726 8.660254 4.499694 7.747755 6.123724 6.123724 
C 7.747755 4.499694 8.660254 2.296726 8.660254 0 
C 8.660254 -2.296726 7.747755 -4.499694 6.123724 -6.123724 
C 4.499694 -7.747755 2.296726 -8.660254 0 -8.660254 
C -2.296726 -8.660254 -4.499694 -7.747755 -6.123724 -6.123724 
C -7.747755 -4.499694 -8.660254 -2.296726 -8.660254 0 
C -8.660254 2.296726 -7.747755 4.499694 -6.123724 6.123724 
C -4.499694 7.747755 -2.296726 8.660254 0 8.660254 
z
" id="C0_0_981e5698e5"/>
    </defs>
    <g clip-path="url(#pa2c7012a27)">
     <use style="fill:#ffffff;stroke:#ffffff;" x="28.107935" xlink:href="#C0_0_981e5698e5" y="304.067348"/>
    </g>
    <g clip-path="url(#pa2c7012a27)">
     <use style="fill:#ffffff;stroke:#ffffff;" x="74.089946" xlink:href="#C0_0_981e5698e5" y="304.067348"/>
    </g>
    <g clip-path="url(#pa2c7012a27)">
     <use style="fill:#ffffff;stroke:#ffffff;" x="120.071957" xlink:href="#C0_0_981e5698e5" y="304.067348"/>
    </g>
    <g clip-path="url(#pa2c7012a27)">
     <use style="fill:#ffffff;stroke:#ffffff;" x="166.053968" xlink:href="#C0_0_981e5698e5" y="304.067348"/>
    </g>
    <g clip-path="url(#pa2c7012a27)">
     <use style="fill:#ffffff;stroke:#ffffff;" x="212.035978" xlink:href="#C0_0_981e5698e5" y="304.067348"/>
    </g>
    <g clip-path="url(#pa2c7012a27)">
     <use style="fill:#ffffff;stroke:#ffffff;" x="258.017989" xlink:href="#C0_0_981e5698e5" y="304.067348"/>
    </g>
    <g clip-path="url(#pa2c7012a27)">
     <use style="fill:#ffffff;stroke:#ffffff;" x="304" xlink:href="#C0_0_981e5698e5" y="304.067348"/>
    </g>
    <g clip-path="url(#pa2c7012a27)">
     <use style="fill:#ffffff;stroke:#ffffff;" x="349.982011" xlink:href="#C0_0_981e5698e5" y="304.067348"/>
    </g>
    <g clip-path="url(#pa2c7012a27)">
     <use style="fill:#ffffff;stroke:#ffffff;" x="395.964022" xlink:href="#C0_0_981e5698e5" y="304.067348"/>
    </g>
    <g clip-path="url(#pa2c7012a27)">
     <use style="fill:#ffffff;stroke:#ffffff;" x="441.946032" xlink:href="#C0_0_981e5698e5" y="304.067348"/>
    </g>
    <g clip-path="url(#pa2c7012a27)">
     <use style="fill:#ffffff;stroke:#ffffff;" x="487.928043" xlink:href="#C0_0_981e5698e5" y="304.067348"/>
    </g>
    <g clip-path="url(#pa2c7012a27)">
     <use style="fill:#ffffff;stroke:#ffffff;" x="533.910054" xlink:href="#C0_0_981e5698e5" y="304.067348"/>
    </g>
    <g clip-path="url(#pa2c7012a27)">
     <use style="fill:#ffffff;stroke:#ffffff;" x="286.277767" xlink:href="#C0_0_981e5698e5" y="15.932652"/>
    </g>
    <g clip-path="url(#pa2c7012a27)">
     <use style="fill:#ffffff;stroke:#ffffff;" x="171.801719" xlink:href="#C0_0_981e5698e5" y="89.503929"/>
    </g>
    <g clip-path="url(#pa2c7012a27)">
     <use style="fill:#ffffff;stroke:#ffffff;" x="304" xlink:href="#C0_0_981e5698e5" y="232.876323"/>
    </g>
    <g clip-path="url(#pa2c7012a27)">
     <use style="fill:#ffffff;stroke:#ffffff;" x="411.291359" xlink:href="#C0_0_981e5698e5" y="89.503929"/>
    </g>
    <g clip-path="url(#pa2c7012a27)">
     <use style="fill:#ffffff;stroke:#ffffff;" x="349.982011" xlink:href="#C0_0_981e5698e5" y="232.876323"/>
    </g>
    <g clip-path="url(#pa2c7012a27)">
     <use style="fill:#ffffff;stroke:#ffffff;" x="395.964022" xlink:href="#C0_0_981e5698e5" y="232.876323"/>
    </g>
    <g clip-path="url(#pa2c7012a27)">
     <use style="fill:#ffffff;stroke:#ffffff;" x="487.928043" xlink:href="#C0_0_981e5698e5" y="161.685299"/>
    </g>
    <g clip-path="url(#pa2c7012a27)">
     <use style="fill:#ffffff;stroke:#ffffff;" x="441.946032" xlink:href="#C0_0_981e5698e5" y="232.876323"/>
    </g>
    <g clip-path="url(#pa2c7012a27)">
     <use style="fill:#ffffff;stroke:#ffffff;" x="487.928043" xlink:href="#C0_0_981e5698e5" y="232.876323"/>
    </g>
    <g clip-path="url(#pa2c7012a27)">
     <use style="fill:#ffffff;stroke:#ffffff;" x="304" xlink:href="#C0_0_981e5698e5" y="161.685299"/>
    </g>
    <g clip-path="url(#pa2c7012a27)">
     <use style="fill:#ffffff;stroke:#ffffff;" x="74.089946" xlink:href="#C0_0_981e5698e5" y="232.876323"/>
    </g>
    <g clip-path="url(#pa2c7012a27)">
     <use style="fill:#ffffff;stroke:#ffffff;" x="120.071957" xlink:href="#C0_0_981e5698e5" y="232.876323"/>
    </g>
    <g clip-path="url(#pa2c7012a27)">
     <use style="fill:#ffffff;stroke:#ffffff;" x="189.044973" xlink:href="#C0_0_981e5698e5" y="161.685299"/>
    </g>
    <g clip-path="url(#pa2c7012a27)">
     <use style="fill:#ffffff;stroke:#ffffff;" x="166.053968" xlink:href="#C0_0_981e5698e5" y="232.876323"/>
    </g>
    <g clip-path="url(#pa2c7012a27)">
     <use style="fill:#ffffff;stroke:#ffffff;" x="212.035978" xlink:href="#C0_0_981e5698e5" y="232.876323"/>
    </g>
    <g clip-path="url(#pa2c7012a27)">
     <use style="fill:#ffffff;stroke:#ffffff;" x="579.892065" xlink:href="#C0_0_981e5698e5" y="304.067348"/>
    </g>
    <g clip-path="url(#pa2c7012a27)">
     <use style="fill:#ffffff;stroke:#ffffff;" x="28.107935" xlink:href="#C0_0_981e5698e5" y="232.876323"/>
    </g>
    <g clip-path="url(#pa2c7012a27)">
     <use style="fill:#808080;stroke:#808080;" x="295.697692" xlink:href="#C0_0_981e5698e5" y="15.932652"/>
    </g>
    <g clip-path="url(#pa2c7012a27)">
     <use style="fill:#ffffff;stroke:#ffffff;" x="258.017989" xlink:href="#C0_0_981e5698e5" y="232.876323"/>
    </g>
    <g clip-path="url(#pa2c7012a27)">
     <use style="fill:#ffffff;stroke:#ffffff;" x="533.910054" xlink:href="#C0_0_981e5698e5" y="232.876323"/>
    </g>
   </g>
   <g id="text_34">
    <g clip-path="url(#pa2c7012a27)">
     <!-- Classifying -->
     <defs>
      <path d="M 44.28125 53.078125 
L 44.28125 44.578125 
Q 40.484375 46.53125 36.375 47.5 
Q 32.28125 48.484375 27.875 48.484375 
Q 21.1875 48.484375 17.84375 46.4375 
Q 14.5 44.390625 14.5 40.28125 
Q 14.5 37.15625 16.890625 35.375 
Q 19.28125 33.59375 26.515625 31.984375 
L 29.59375 31.296875 
Q 39.15625 29.25 43.1875 25.515625 
Q 47.21875 21.78125 47.21875 15.09375 
Q 47.21875 7.46875 41.1875 3.015625 
Q 35.15625 -1.421875 24.609375 -1.421875 
Q 20.21875 -1.421875 15.453125 -0.5625 
Q 10.6875 0.296875 5.421875 2 
L 5.421875 11.28125 
Q 10.40625 8.6875 15.234375 7.390625 
Q 20.0625 6.109375 24.8125 6.109375 
Q 31.15625 6.109375 34.5625 8.28125 
Q 37.984375 10.453125 37.984375 14.40625 
Q 37.984375 18.0625 35.515625 20.015625 
Q 33.0625 21.96875 24.703125 23.78125 
L 21.578125 24.515625 
Q 13.234375 26.265625 9.515625 29.90625 
Q 5.8125 33.546875 5.8125 39.890625 
Q 5.8125 47.609375 11.28125 51.796875 
Q 16.75 56 26.8125 56 
Q 31.78125 56 36.171875 55.265625 
Q 40.578125 54.546875 44.28125 53.078125 
z
" id="DejaVuSans-115"/>
      <path d="M 37.109375 75.984375 
L 37.109375 68.5 
L 28.515625 68.5 
Q 23.6875 68.5 21.796875 66.546875 
Q 19.921875 64.59375 19.921875 59.515625 
L 19.921875 54.6875 
L 34.71875 54.6875 
L 34.71875 47.703125 
L 19.921875 47.703125 
L 19.921875 0 
L 10.890625 0 
L 10.890625 47.703125 
L 2.296875 47.703125 
L 2.296875 54.6875 
L 10.890625 54.6875 
L 10.890625 58.5 
Q 10.890625 67.625 15.140625 71.796875 
Q 19.390625 75.984375 28.609375 75.984375 
z
" id="DejaVuSans-102"/>
      <path d="M 32.171875 -5.078125 
Q 28.375 -14.84375 24.75 -17.8125 
Q 21.140625 -20.796875 15.09375 -20.796875 
L 7.90625 -20.796875 
L 7.90625 -13.28125 
L 13.1875 -13.28125 
Q 16.890625 -13.28125 18.9375 -11.515625 
Q 21 -9.765625 23.484375 -3.21875 
L 25.09375 0.875 
L 2.984375 54.6875 
L 12.5 54.6875 
L 29.59375 11.921875 
L 46.6875 54.6875 
L 56.203125 54.6875 
z
" id="DejaVuSans-121"/>
      <path d="M 45.40625 27.984375 
Q 45.40625 37.75 41.375 43.109375 
Q 37.359375 48.484375 30.078125 48.484375 
Q 22.859375 48.484375 18.828125 43.109375 
Q 14.796875 37.75 14.796875 27.984375 
Q 14.796875 18.265625 18.828125 12.890625 
Q 22.859375 7.515625 30.078125 7.515625 
Q 37.359375 7.515625 41.375 12.890625 
Q 45.40625 18.265625 45.40625 27.984375 
z
M 54.390625 6.78125 
Q 54.390625 -7.171875 48.1875 -13.984375 
Q 42 -20.796875 29.203125 -20.796875 
Q 24.46875 -20.796875 20.265625 -20.09375 
Q 16.0625 -19.390625 12.109375 -17.921875 
L 12.109375 -9.1875 
Q 16.0625 -11.328125 19.921875 -12.34375 
Q 23.78125 -13.375 27.78125 -13.375 
Q 36.625 -13.375 41.015625 -8.765625 
Q 45.40625 -4.15625 45.40625 5.171875 
L 45.40625 9.625 
Q 42.625 4.78125 38.28125 2.390625 
Q 33.9375 0 27.875 0 
Q 17.828125 0 11.671875 7.65625 
Q 5.515625 15.328125 5.515625 27.984375 
Q 5.515625 40.671875 11.671875 48.328125 
Q 17.828125 56 27.875 56 
Q 33.9375 56 38.28125 53.609375 
Q 42.625 51.21875 45.40625 46.390625 
L 45.40625 54.6875 
L 54.390625 54.6875 
z
" id="DejaVuSans-103"/>
     </defs>
     <g transform="translate(1.114185 306.826723)scale(0.1 -0.1)">
      <use xlink:href="#DejaVuSans-67"/>
      <use x="69.824219" xlink:href="#DejaVuSans-108"/>
      <use x="97.607422" xlink:href="#DejaVuSans-97"/>
      <use x="158.886719" xlink:href="#DejaVuSans-115"/>
      <use x="210.986328" xlink:href="#DejaVuSans-115"/>
      <use x="263.085938" xlink:href="#DejaVuSans-105"/>
      <use x="290.869141" xlink:href="#DejaVuSans-102"/>
      <use x="326.058594" xlink:href="#DejaVuSans-121"/>
      <use x="385.238281" xlink:href="#DejaVuSans-105"/>
      <use x="413.021484" xlink:href="#DejaVuSans-110"/>
      <use x="476.400391" xlink:href="#DejaVuSans-103"/>
     </g>
    </g>
   </g>
   <g id="text_35">
    <g clip-path="url(#pa2c7012a27)">
     <!-- was -->
     <defs>
      <path d="M 4.203125 54.6875 
L 13.1875 54.6875 
L 24.421875 12.015625 
L 35.59375 54.6875 
L 46.1875 54.6875 
L 57.421875 12.015625 
L 68.609375 54.6875 
L 77.59375 54.6875 
L 63.28125 0 
L 52.6875 0 
L 40.921875 44.828125 
L 29.109375 0 
L 18.5 0 
z
" id="DejaVuSans-119"/>
     </defs>
     <g transform="translate(64.332133 306.826723)scale(0.1 -0.1)">
      <use xlink:href="#DejaVuSans-119"/>
      <use x="81.787109" xlink:href="#DejaVuSans-97"/>
      <use x="143.066406" xlink:href="#DejaVuSans-115"/>
     </g>
    </g>
   </g>
   <g id="text_36">
    <g clip-path="url(#pa2c7012a27)">
     <!-- everything -->
     <defs>
      <path d="M 2.984375 54.6875 
L 12.5 54.6875 
L 29.59375 8.796875 
L 46.6875 54.6875 
L 56.203125 54.6875 
L 35.6875 0 
L 23.484375 0 
z
" id="DejaVuSans-118"/>
      <path d="M 18.3125 70.21875 
L 18.3125 54.6875 
L 36.8125 54.6875 
L 36.8125 47.703125 
L 18.3125 47.703125 
L 18.3125 18.015625 
Q 18.3125 11.328125 20.140625 9.421875 
Q 21.96875 7.515625 27.59375 7.515625 
L 36.8125 7.515625 
L 36.8125 0 
L 27.59375 0 
Q 17.1875 0 13.234375 3.875 
Q 9.28125 7.765625 9.28125 18.015625 
L 9.28125 47.703125 
L 2.6875 47.703125 
L 2.6875 54.6875 
L 9.28125 54.6875 
L 9.28125 70.21875 
z
" id="DejaVuSans-116"/>
      <path d="M 54.890625 33.015625 
L 54.890625 0 
L 45.90625 0 
L 45.90625 32.71875 
Q 45.90625 40.484375 42.875 44.328125 
Q 39.84375 48.1875 33.796875 48.1875 
Q 26.515625 48.1875 22.3125 43.546875 
Q 18.109375 38.921875 18.109375 30.90625 
L 18.109375 0 
L 9.078125 0 
L 9.078125 75.984375 
L 18.109375 75.984375 
L 18.109375 46.1875 
Q 21.34375 51.125 25.703125 53.5625 
Q 30.078125 56 35.796875 56 
Q 45.21875 56 50.046875 50.171875 
Q 54.890625 44.34375 54.890625 33.015625 
z
" id="DejaVuSans-104"/>
     </defs>
     <g transform="translate(93.083675 306.826723)scale(0.1 -0.1)">
      <use xlink:href="#DejaVuSans-101"/>
      <use x="61.523438" xlink:href="#DejaVuSans-118"/>
      <use x="120.703125" xlink:href="#DejaVuSans-101"/>
      <use x="182.226562" xlink:href="#DejaVuSans-114"/>
      <use x="223.339844" xlink:href="#DejaVuSans-121"/>
      <use x="282.519531" xlink:href="#DejaVuSans-116"/>
      <use x="321.728516" xlink:href="#DejaVuSans-104"/>
      <use x="385.107422" xlink:href="#DejaVuSans-105"/>
      <use x="412.890625" xlink:href="#DejaVuSans-110"/>
      <use x="476.269531" xlink:href="#DejaVuSans-103"/>
     </g>
    </g>
   </g>
   <g id="text_37">
    <g clip-path="url(#pa2c7012a27)">
     <!-- to -->
     <defs>
      <path d="M 30.609375 48.390625 
Q 23.390625 48.390625 19.1875 42.75 
Q 14.984375 37.109375 14.984375 27.296875 
Q 14.984375 17.484375 19.15625 11.84375 
Q 23.34375 6.203125 30.609375 6.203125 
Q 37.796875 6.203125 41.984375 11.859375 
Q 46.1875 17.53125 46.1875 27.296875 
Q 46.1875 37.015625 41.984375 42.703125 
Q 37.796875 48.390625 30.609375 48.390625 
z
M 30.609375 56 
Q 42.328125 56 49.015625 48.375 
Q 55.71875 40.765625 55.71875 27.296875 
Q 55.71875 13.875 49.015625 6.21875 
Q 42.328125 -1.421875 30.609375 -1.421875 
Q 18.84375 -1.421875 12.171875 6.21875 
Q 5.515625 13.875 5.515625 27.296875 
Q 5.515625 40.765625 12.171875 48.375 
Q 18.84375 56 30.609375 56 
z
" id="DejaVuSans-111"/>
     </defs>
     <g transform="translate(161.034436 306.826723)scale(0.1 -0.1)">
      <use xlink:href="#DejaVuSans-116"/>
      <use x="39.208984" xlink:href="#DejaVuSans-111"/>
     </g>
    </g>
   </g>
   <g id="text_38">
    <g clip-path="url(#pa2c7012a27)">
     <!-- him -->
     <g transform="translate(202.607853 306.826723)scale(0.1 -0.1)">
      <use xlink:href="#DejaVuSans-104"/>
      <use x="63.378906" xlink:href="#DejaVuSans-105"/>
      <use x="91.162109" xlink:href="#DejaVuSans-109"/>
     </g>
    </g>
   </g>
   <g id="text_39">
    <g clip-path="url(#pa2c7012a27)">
     <!-- , -->
     <defs>
      <path d="M 11.71875 12.40625 
L 22.015625 12.40625 
L 22.015625 4 
L 14.015625 -11.625 
L 7.71875 -11.625 
L 11.71875 4 
z
" id="DejaVuSans-44"/>
     </defs>
     <g transform="translate(256.428927 306.826723)scale(0.1 -0.1)">
      <use xlink:href="#DejaVuSans-44"/>
     </g>
    </g>
   </g>
   <g id="text_40">
    <g clip-path="url(#pa2c7012a27)">
     <!-- so -->
     <g transform="translate(298.335937 306.826723)scale(0.1 -0.1)">
      <use xlink:href="#DejaVuSans-115"/>
      <use x="52.099609" xlink:href="#DejaVuSans-111"/>
     </g>
    </g>
   </g>
   <g id="text_41">
    <g clip-path="url(#pa2c7012a27)">
     <!-- he -->
     <g transform="translate(343.736698 306.826723)scale(0.1 -0.1)">
      <use xlink:href="#DejaVuSans-104"/>
      <use x="63.378906" xlink:href="#DejaVuSans-101"/>
     </g>
    </g>
   </g>
   <g id="text_42">
    <g clip-path="url(#pa2c7012a27)">
     <!-- knew -->
     <defs>
      <path d="M 9.078125 75.984375 
L 18.109375 75.984375 
L 18.109375 31.109375 
L 44.921875 54.6875 
L 56.390625 54.6875 
L 27.390625 29.109375 
L 57.625 0 
L 45.90625 0 
L 18.109375 26.703125 
L 18.109375 0 
L 9.078125 0 
z
" id="DejaVuSans-107"/>
     </defs>
     <g transform="translate(382.734334 306.826723)scale(0.1 -0.1)">
      <use xlink:href="#DejaVuSans-107"/>
      <use x="57.910156" xlink:href="#DejaVuSans-110"/>
      <use x="121.289062" xlink:href="#DejaVuSans-101"/>
      <use x="182.8125" xlink:href="#DejaVuSans-119"/>
     </g>
    </g>
   </g>
   <g id="text_43">
    <g clip-path="url(#pa2c7012a27)">
     <!-- nothing -->
     <g transform="translate(422.85697 306.826723)scale(0.1 -0.1)">
      <use xlink:href="#DejaVuSans-110"/>
      <use x="63.378906" xlink:href="#DejaVuSans-111"/>
      <use x="124.560547" xlink:href="#DejaVuSans-116"/>
      <use x="163.769531" xlink:href="#DejaVuSans-104"/>
      <use x="227.148438" xlink:href="#DejaVuSans-105"/>
      <use x="254.931641" xlink:href="#DejaVuSans-110"/>
      <use x="318.310547" xlink:href="#DejaVuSans-103"/>
     </g>
    </g>
   </g>
   <g id="text_44">
    <g clip-path="url(#pa2c7012a27)">
     <!-- else -->
     <g transform="translate(477.781168 306.826723)scale(0.1 -0.1)">
      <use xlink:href="#DejaVuSans-101"/>
      <use x="61.523438" xlink:href="#DejaVuSans-108"/>
      <use x="89.306641" xlink:href="#DejaVuSans-115"/>
      <use x="141.40625" xlink:href="#DejaVuSans-101"/>
     </g>
    </g>
   </g>
   <g id="text_45">
    <g clip-path="url(#pa2c7012a27)">
     <!-- . -->
     <defs>
      <path d="M 10.6875 12.40625 
L 21 12.40625 
L 21 0 
L 10.6875 0 
z
" id="DejaVuSans-46"/>
     </defs>
     <g transform="translate(532.320992 306.826723)scale(0.1 -0.1)">
      <use xlink:href="#DejaVuSans-46"/>
     </g>
    </g>
   </g>
   <g id="text_46">
    <g clip-path="url(#pa2c7012a27)">
     <!-- 1.1 -->
     <defs>
      <path d="M 12.40625 8.296875 
L 28.515625 8.296875 
L 28.515625 63.921875 
L 10.984375 60.40625 
L 10.984375 69.390625 
L 28.421875 72.90625 
L 38.28125 72.90625 
L 38.28125 8.296875 
L 54.390625 8.296875 
L 54.390625 0 
L 12.40625 0 
z
" id="DejaVuSans-49"/>
     </defs>
     <g transform="translate(278.326204 18.692027)scale(0.1 -0.1)">
      <use xlink:href="#DejaVuSans-49"/>
      <use x="63.623047" xlink:href="#DejaVuSans-46"/>
      <use x="95.410156" xlink:href="#DejaVuSans-49"/>
     </g>
    </g>
   </g>
   <g id="text_47">
    <g clip-path="url(#pa2c7012a27)">
     <!-- 1.2 -->
     <defs>
      <path d="M 19.1875 8.296875 
L 53.609375 8.296875 
L 53.609375 0 
L 7.328125 0 
L 7.328125 8.296875 
Q 12.9375 14.109375 22.625 23.890625 
Q 32.328125 33.6875 34.8125 36.53125 
Q 39.546875 41.84375 41.421875 45.53125 
Q 43.3125 49.21875 43.3125 52.78125 
Q 43.3125 58.59375 39.234375 62.25 
Q 35.15625 65.921875 28.609375 65.921875 
Q 23.96875 65.921875 18.8125 64.3125 
Q 13.671875 62.703125 7.8125 59.421875 
L 7.8125 69.390625 
Q 13.765625 71.78125 18.9375 73 
Q 24.125 74.21875 28.421875 74.21875 
Q 39.75 74.21875 46.484375 68.546875 
Q 53.21875 62.890625 53.21875 53.421875 
Q 53.21875 48.921875 51.53125 44.890625 
Q 49.859375 40.875 45.40625 35.40625 
Q 44.1875 33.984375 37.640625 27.21875 
Q 31.109375 20.453125 19.1875 8.296875 
z
" id="DejaVuSans-50"/>
     </defs>
     <g transform="translate(163.850156 92.263304)scale(0.1 -0.1)">
      <use xlink:href="#DejaVuSans-49"/>
      <use x="63.623047" xlink:href="#DejaVuSans-46"/>
      <use x="95.410156" xlink:href="#DejaVuSans-50"/>
     </g>
    </g>
   </g>
   <g id="text_48">
    <g clip-path="url(#pa2c7012a27)">
     <!-- 1.3 -->
     <defs>
      <path d="M 40.578125 39.3125 
Q 47.65625 37.796875 51.625 33 
Q 55.609375 28.21875 55.609375 21.1875 
Q 55.609375 10.40625 48.1875 4.484375 
Q 40.765625 -1.421875 27.09375 -1.421875 
Q 22.515625 -1.421875 17.65625 -0.515625 
Q 12.796875 0.390625 7.625 2.203125 
L 7.625 11.71875 
Q 11.71875 9.328125 16.59375 8.109375 
Q 21.484375 6.890625 26.8125 6.890625 
Q 36.078125 6.890625 40.9375 10.546875 
Q 45.796875 14.203125 45.796875 21.1875 
Q 45.796875 27.640625 41.28125 31.265625 
Q 36.765625 34.90625 28.71875 34.90625 
L 20.21875 34.90625 
L 20.21875 43.015625 
L 29.109375 43.015625 
Q 36.375 43.015625 40.234375 45.921875 
Q 44.09375 48.828125 44.09375 54.296875 
Q 44.09375 59.90625 40.109375 62.90625 
Q 36.140625 65.921875 28.71875 65.921875 
Q 24.65625 65.921875 20.015625 65.03125 
Q 15.375 64.15625 9.8125 62.3125 
L 9.8125 71.09375 
Q 15.4375 72.65625 20.34375 73.4375 
Q 25.25 74.21875 29.59375 74.21875 
Q 40.828125 74.21875 47.359375 69.109375 
Q 53.90625 64.015625 53.90625 55.328125 
Q 53.90625 49.265625 50.4375 45.09375 
Q 46.96875 40.921875 40.578125 39.3125 
z
" id="DejaVuSans-51"/>
     </defs>
     <g transform="translate(296.048437 235.635698)scale(0.1 -0.1)">
      <use xlink:href="#DejaVuSans-49"/>
      <use x="63.623047" xlink:href="#DejaVuSans-46"/>
      <use x="95.410156" xlink:href="#DejaVuSans-51"/>
     </g>
    </g>
   </g>
   <g id="text_49">
    <g clip-path="url(#pa2c7012a27)">
     <!-- 1.4 -->
     <defs>
      <path d="M 37.796875 64.3125 
L 12.890625 25.390625 
L 37.796875 25.390625 
z
M 35.203125 72.90625 
L 47.609375 72.90625 
L 47.609375 25.390625 
L 58.015625 25.390625 
L 58.015625 17.1875 
L 47.609375 17.1875 
L 47.609375 0 
L 37.796875 0 
L 37.796875 17.1875 
L 4.890625 17.1875 
L 4.890625 26.703125 
z
" id="DejaVuSans-52"/>
     </defs>
     <g transform="translate(403.339796 92.263304)scale(0.1 -0.1)">
      <use xlink:href="#DejaVuSans-49"/>
      <use x="63.623047" xlink:href="#DejaVuSans-46"/>
      <use x="95.410156" xlink:href="#DejaVuSans-52"/>
     </g>
    </g>
   </g>
   <g id="text_50">
    <g clip-path="url(#pa2c7012a27)">
     <!-- 1.7 -->
     <defs>
      <path d="M 8.203125 72.90625 
L 55.078125 72.90625 
L 55.078125 68.703125 
L 28.609375 0 
L 18.3125 0 
L 43.21875 64.59375 
L 8.203125 64.59375 
z
" id="DejaVuSans-55"/>
     </defs>
     <g transform="translate(342.030448 235.635698)scale(0.1 -0.1)">
      <use xlink:href="#DejaVuSans-49"/>
      <use x="63.623047" xlink:href="#DejaVuSans-46"/>
      <use x="95.410156" xlink:href="#DejaVuSans-55"/>
     </g>
    </g>
   </g>
   <g id="text_51">
    <g clip-path="url(#pa2c7012a27)">
     <!-- 1.8 -->
     <defs>
      <path d="M 31.78125 34.625 
Q 24.75 34.625 20.71875 30.859375 
Q 16.703125 27.09375 16.703125 20.515625 
Q 16.703125 13.921875 20.71875 10.15625 
Q 24.75 6.390625 31.78125 6.390625 
Q 38.8125 6.390625 42.859375 10.171875 
Q 46.921875 13.96875 46.921875 20.515625 
Q 46.921875 27.09375 42.890625 30.859375 
Q 38.875 34.625 31.78125 34.625 
z
M 21.921875 38.8125 
Q 15.578125 40.375 12.03125 44.71875 
Q 8.5 49.078125 8.5 55.328125 
Q 8.5 64.0625 14.71875 69.140625 
Q 20.953125 74.21875 31.78125 74.21875 
Q 42.671875 74.21875 48.875 69.140625 
Q 55.078125 64.0625 55.078125 55.328125 
Q 55.078125 49.078125 51.53125 44.71875 
Q 48 40.375 41.703125 38.8125 
Q 48.828125 37.15625 52.796875 32.3125 
Q 56.78125 27.484375 56.78125 20.515625 
Q 56.78125 9.90625 50.3125 4.234375 
Q 43.84375 -1.421875 31.78125 -1.421875 
Q 19.734375 -1.421875 13.25 4.234375 
Q 6.78125 9.90625 6.78125 20.515625 
Q 6.78125 27.484375 10.78125 32.3125 
Q 14.796875 37.15625 21.921875 38.8125 
z
M 18.3125 54.390625 
Q 18.3125 48.734375 21.84375 45.5625 
Q 25.390625 42.390625 31.78125 42.390625 
Q 38.140625 42.390625 41.71875 45.5625 
Q 45.3125 48.734375 45.3125 54.390625 
Q 45.3125 60.0625 41.71875 63.234375 
Q 38.140625 66.40625 31.78125 66.40625 
Q 25.390625 66.40625 21.84375 63.234375 
Q 18.3125 60.0625 18.3125 54.390625 
z
" id="DejaVuSans-56"/>
     </defs>
     <g transform="translate(388.012459 235.635698)scale(0.1 -0.1)">
      <use xlink:href="#DejaVuSans-49"/>
      <use x="63.623047" xlink:href="#DejaVuSans-46"/>
      <use x="95.410156" xlink:href="#DejaVuSans-56"/>
     </g>
    </g>
   </g>
   <g id="text_52">
    <g clip-path="url(#pa2c7012a27)">
     <!-- 1.9 -->
     <defs>
      <path d="M 10.984375 1.515625 
L 10.984375 10.5 
Q 14.703125 8.734375 18.5 7.8125 
Q 22.3125 6.890625 25.984375 6.890625 
Q 35.75 6.890625 40.890625 13.453125 
Q 46.046875 20.015625 46.78125 33.40625 
Q 43.953125 29.203125 39.59375 26.953125 
Q 35.25 24.703125 29.984375 24.703125 
Q 19.046875 24.703125 12.671875 31.3125 
Q 6.296875 37.9375 6.296875 49.421875 
Q 6.296875 60.640625 12.9375 67.421875 
Q 19.578125 74.21875 30.609375 74.21875 
Q 43.265625 74.21875 49.921875 64.515625 
Q 56.59375 54.828125 56.59375 36.375 
Q 56.59375 19.140625 48.40625 8.859375 
Q 40.234375 -1.421875 26.421875 -1.421875 
Q 22.703125 -1.421875 18.890625 -0.6875 
Q 15.09375 0.046875 10.984375 1.515625 
z
M 30.609375 32.421875 
Q 37.25 32.421875 41.125 36.953125 
Q 45.015625 41.5 45.015625 49.421875 
Q 45.015625 57.28125 41.125 61.84375 
Q 37.25 66.40625 30.609375 66.40625 
Q 23.96875 66.40625 20.09375 61.84375 
Q 16.21875 57.28125 16.21875 49.421875 
Q 16.21875 41.5 20.09375 36.953125 
Q 23.96875 32.421875 30.609375 32.421875 
z
" id="DejaVuSans-57"/>
     </defs>
     <g transform="translate(479.976481 164.444674)scale(0.1 -0.1)">
      <use xlink:href="#DejaVuSans-49"/>
      <use x="63.623047" xlink:href="#DejaVuSans-46"/>
      <use x="95.410156" xlink:href="#DejaVuSans-57"/>
     </g>
    </g>
   </g>
   <g id="text_53">
    <g clip-path="url(#pa2c7012a27)">
     <!-- 1.10 -->
     <defs>
      <path d="M 31.78125 66.40625 
Q 24.171875 66.40625 20.328125 58.90625 
Q 16.5 51.421875 16.5 36.375 
Q 16.5 21.390625 20.328125 13.890625 
Q 24.171875 6.390625 31.78125 6.390625 
Q 39.453125 6.390625 43.28125 13.890625 
Q 47.125 21.390625 47.125 36.375 
Q 47.125 51.421875 43.28125 58.90625 
Q 39.453125 66.40625 31.78125 66.40625 
z
M 31.78125 74.21875 
Q 44.046875 74.21875 50.515625 64.515625 
Q 56.984375 54.828125 56.984375 36.375 
Q 56.984375 17.96875 50.515625 8.265625 
Q 44.046875 -1.421875 31.78125 -1.421875 
Q 19.53125 -1.421875 13.0625 8.265625 
Q 6.59375 17.96875 6.59375 36.375 
Q 6.59375 54.828125 13.0625 64.515625 
Q 19.53125 74.21875 31.78125 74.21875 
z
" id="DejaVuSans-48"/>
     </defs>
     <g transform="translate(430.81322 235.635698)scale(0.1 -0.1)">
      <use xlink:href="#DejaVuSans-49"/>
      <use x="63.623047" xlink:href="#DejaVuSans-46"/>
      <use x="95.410156" xlink:href="#DejaVuSans-49"/>
      <use x="159.033203" xlink:href="#DejaVuSans-48"/>
     </g>
    </g>
   </g>
   <g id="text_54">
    <g clip-path="url(#pa2c7012a27)">
     <!-- 1.11 -->
     <g transform="translate(476.795231 235.635698)scale(0.1 -0.1)">
      <use xlink:href="#DejaVuSans-49"/>
      <use x="63.623047" xlink:href="#DejaVuSans-46"/>
      <use x="95.410156" xlink:href="#DejaVuSans-49"/>
      <use x="159.033203" xlink:href="#DejaVuSans-49"/>
     </g>
    </g>
   </g>
   <g id="text_55">
    <g clip-path="url(#pa2c7012a27)">
     <!-- 1.12 -->
     <g transform="translate(292.867187 164.444674)scale(0.1 -0.1)">
      <use xlink:href="#DejaVuSans-49"/>
      <use x="63.623047" xlink:href="#DejaVuSans-46"/>
      <use x="95.410156" xlink:href="#DejaVuSans-49"/>
      <use x="159.033203" xlink:href="#DejaVuSans-50"/>
     </g>
    </g>
   </g>
   <g id="text_56">
    <g clip-path="url(#pa2c7012a27)">
     <!-- 1.13 -->
     <g transform="translate(62.957133 235.635698)scale(0.1 -0.1)">
      <use xlink:href="#DejaVuSans-49"/>
      <use x="63.623047" xlink:href="#DejaVuSans-46"/>
      <use x="95.410156" xlink:href="#DejaVuSans-49"/>
      <use x="159.033203" xlink:href="#DejaVuSans-51"/>
     </g>
    </g>
   </g>
   <g id="text_57">
    <g clip-path="url(#pa2c7012a27)">
     <!-- 1.14 -->
     <g transform="translate(108.939144 235.635698)scale(0.1 -0.1)">
      <use xlink:href="#DejaVuSans-49"/>
      <use x="63.623047" xlink:href="#DejaVuSans-46"/>
      <use x="95.410156" xlink:href="#DejaVuSans-49"/>
      <use x="159.033203" xlink:href="#DejaVuSans-52"/>
     </g>
    </g>
   </g>
   <g id="text_58">
    <g clip-path="url(#pa2c7012a27)">
     <!-- 1.15 -->
     <defs>
      <path d="M 10.796875 72.90625 
L 49.515625 72.90625 
L 49.515625 64.59375 
L 19.828125 64.59375 
L 19.828125 46.734375 
Q 21.96875 47.46875 24.109375 47.828125 
Q 26.265625 48.1875 28.421875 48.1875 
Q 40.625 48.1875 47.75 41.5 
Q 54.890625 34.8125 54.890625 23.390625 
Q 54.890625 11.625 47.5625 5.09375 
Q 40.234375 -1.421875 26.90625 -1.421875 
Q 22.3125 -1.421875 17.546875 -0.640625 
Q 12.796875 0.140625 7.71875 1.703125 
L 7.71875 11.625 
Q 12.109375 9.234375 16.796875 8.0625 
Q 21.484375 6.890625 26.703125 6.890625 
Q 35.15625 6.890625 40.078125 11.328125 
Q 45.015625 15.765625 45.015625 23.390625 
Q 45.015625 31 40.078125 35.4375 
Q 35.15625 39.890625 26.703125 39.890625 
Q 22.75 39.890625 18.8125 39.015625 
Q 14.890625 38.140625 10.796875 36.28125 
z
" id="DejaVuSans-53"/>
     </defs>
     <g transform="translate(177.91216 164.444674)scale(0.1 -0.1)">
      <use xlink:href="#DejaVuSans-49"/>
      <use x="63.623047" xlink:href="#DejaVuSans-46"/>
      <use x="95.410156" xlink:href="#DejaVuSans-49"/>
      <use x="159.033203" xlink:href="#DejaVuSans-53"/>
     </g>
    </g>
   </g>
   <g id="text_59">
    <g clip-path="url(#pa2c7012a27)">
     <!-- 1.16 -->
     <defs>
      <path d="M 33.015625 40.375 
Q 26.375 40.375 22.484375 35.828125 
Q 18.609375 31.296875 18.609375 23.390625 
Q 18.609375 15.53125 22.484375 10.953125 
Q 26.375 6.390625 33.015625 6.390625 
Q 39.65625 6.390625 43.53125 10.953125 
Q 47.40625 15.53125 47.40625 23.390625 
Q 47.40625 31.296875 43.53125 35.828125 
Q 39.65625 40.375 33.015625 40.375 
z
M 52.59375 71.296875 
L 52.59375 62.3125 
Q 48.875 64.0625 45.09375 64.984375 
Q 41.3125 65.921875 37.59375 65.921875 
Q 27.828125 65.921875 22.671875 59.328125 
Q 17.53125 52.734375 16.796875 39.40625 
Q 19.671875 43.65625 24.015625 45.921875 
Q 28.375 48.1875 33.59375 48.1875 
Q 44.578125 48.1875 50.953125 41.515625 
Q 57.328125 34.859375 57.328125 23.390625 
Q 57.328125 12.15625 50.6875 5.359375 
Q 44.046875 -1.421875 33.015625 -1.421875 
Q 20.359375 -1.421875 13.671875 8.265625 
Q 6.984375 17.96875 6.984375 36.375 
Q 6.984375 53.65625 15.1875 63.9375 
Q 23.390625 74.21875 37.203125 74.21875 
Q 40.921875 74.21875 44.703125 73.484375 
Q 48.484375 72.75 52.59375 71.296875 
z
" id="DejaVuSans-54"/>
     </defs>
     <g transform="translate(154.921155 235.635698)scale(0.1 -0.1)">
      <use xlink:href="#DejaVuSans-49"/>
      <use x="63.623047" xlink:href="#DejaVuSans-46"/>
      <use x="95.410156" xlink:href="#DejaVuSans-49"/>
      <use x="159.033203" xlink:href="#DejaVuSans-54"/>
     </g>
    </g>
   </g>
   <g id="text_60">
    <g clip-path="url(#pa2c7012a27)">
     <!-- 1.17 -->
     <g transform="translate(200.903166 235.635698)scale(0.1 -0.1)">
      <use xlink:href="#DejaVuSans-49"/>
      <use x="63.623047" xlink:href="#DejaVuSans-46"/>
      <use x="95.410156" xlink:href="#DejaVuSans-49"/>
      <use x="159.033203" xlink:href="#DejaVuSans-55"/>
     </g>
    </g>
   </g>
   <g id="text_61">
    <g clip-path="url(#pa2c7012a27)">
     <!-- IMPLICIT -->
     <defs>
      <path d="M 9.8125 72.90625 
L 19.671875 72.90625 
L 19.671875 0 
L 9.8125 0 
z
" id="DejaVuSans-73"/>
      <path d="M 9.8125 72.90625 
L 24.515625 72.90625 
L 43.109375 23.296875 
L 61.8125 72.90625 
L 76.515625 72.90625 
L 76.515625 0 
L 66.890625 0 
L 66.890625 64.015625 
L 48.09375 14.015625 
L 38.1875 14.015625 
L 19.390625 64.015625 
L 19.390625 0 
L 9.8125 0 
z
" id="DejaVuSans-77"/>
     </defs>
     <g transform="translate(558.806909 306.826723)scale(0.1 -0.1)">
      <use xlink:href="#DejaVuSans-73"/>
      <use x="29.492188" xlink:href="#DejaVuSans-77"/>
      <use x="115.771484" xlink:href="#DejaVuSans-80"/>
      <use x="176.074219" xlink:href="#DejaVuSans-76"/>
      <use x="231.787109" xlink:href="#DejaVuSans-73"/>
      <use x="261.279297" xlink:href="#DejaVuSans-67"/>
      <use x="331.103516" xlink:href="#DejaVuSans-73"/>
      <use x="360.595703" xlink:href="#DejaVuSans-84"/>
     </g>
    </g>
   </g>
   <g id="text_62">
    <g clip-path="url(#pa2c7012a27)">
     <!-- 1.19 -->
     <g transform="translate(16.975123 235.635698)scale(0.1 -0.1)">
      <use xlink:href="#DejaVuSans-49"/>
      <use x="63.623047" xlink:href="#DejaVuSans-46"/>
      <use x="95.410156" xlink:href="#DejaVuSans-49"/>
      <use x="159.033203" xlink:href="#DejaVuSans-57"/>
     </g>
    </g>
   </g>
   <g id="text_63">
    <g clip-path="url(#pa2c7012a27)">
     <!-- 1.20 -->
     <g transform="translate(284.56488 18.692027)scale(0.1 -0.1)">
      <use xlink:href="#DejaVuSans-49"/>
      <use x="63.623047" xlink:href="#DejaVuSans-46"/>
      <use x="95.410156" xlink:href="#DejaVuSans-50"/>
      <use x="159.033203" xlink:href="#DejaVuSans-48"/>
     </g>
    </g>
   </g>
   <g id="text_64">
    <g clip-path="url(#pa2c7012a27)">
     <!-- 1.21 -->
     <g transform="translate(246.885177 235.635698)scale(0.1 -0.1)">
      <use xlink:href="#DejaVuSans-49"/>
      <use x="63.623047" xlink:href="#DejaVuSans-46"/>
      <use x="95.410156" xlink:href="#DejaVuSans-50"/>
      <use x="159.033203" xlink:href="#DejaVuSans-49"/>
     </g>
    </g>
   </g>
   <g id="text_65">
    <g clip-path="url(#pa2c7012a27)">
     <!-- 1.22 -->
     <g transform="translate(522.777242 235.635698)scale(0.1 -0.1)">
      <use xlink:href="#DejaVuSans-49"/>
      <use x="63.623047" xlink:href="#DejaVuSans-46"/>
      <use x="95.410156" xlink:href="#DejaVuSans-50"/>
      <use x="159.033203" xlink:href="#DejaVuSans-50"/>
     </g>
    </g>
   </g>
  </g>
 </g>
 <defs>
  <clipPath id="pa2c7012a27">
   <rect height="320" width="608" x="0" y="0"/>
  </clipPath>
 </defs>
</svg>
