<?xml version="1.0" encoding="UTF-8"?>
<!DOCTYPE svg  PUBLIC '-//W3C//DTD SVG 1.1//EN'  'http://www.w3.org/Graphics/SVG/1.1/DTD/svg11.dtd'>
<svg width="1621.3pt" height="853.33pt" version="1.1" viewBox="0 0 1621.3 853.33" xmlns="http://www.w3.org/2000/svg" xmlns:xlink="http://www.w3.org/1999/xlink">
<defs>
<style type="text/css">*{stroke-linecap:butt;stroke-linejoin:round;}</style>
</defs>
<path d="m0 853.33h1621.3v-853.33h-1621.3z" fill="#fff"/>
<g fill="none" stroke="#000">
<path d="m452.13 38.788-318.58 156.53" clip-path="url(#a)"/>
<path d="m452.13 38.788-167.05 156.53" clip-path="url(#a)"/>
<path d="m452.13 38.788 117.28 623.08" clip-path="url(#a)"/>
<path d="m452.13 38.788 301.17 156.53" clip-path="url(#a)"/>
<path d="m452.13 38.788 67.18 623.08" clip-path="url(#a)"/>
<path d="m133.55 195.32 77.257 466.55" clip-path="url(#a)" stroke-dasharray="3.7,1.6"/>
<path d="m133.55 195.32-59.854 466.55" clip-path="url(#a)"/>
<path d="m133.55 195.32-51.944 466.55" clip-path="url(#a)"/>
<path d="m133.55 195.32-16.348 156.14" clip-path="url(#a)"/>
<path d="m133.55 195.32 50.889 466.55" clip-path="url(#a)"/>
<path d="m285.08 195.32-74.268 466.55" clip-path="url(#a)"/>
<path d="m285.08 195.32-45.264 466.55" clip-path="url(#a)"/>
<path d="m285.08 195.32-13.623 466.55" clip-path="url(#a)"/>
<path d="m285.08 195.32 20.654 466.55" clip-path="url(#a)"/>
<path d="m285.08 195.32 112.5 156.14" clip-path="url(#a)"/>
<path d="m569.4 661.87v152.67" clip-path="url(#a)"/>
<path d="m753.29 195.32-131.15 466.55" clip-path="url(#a)"/>
<path d="m753.29 195.32-75.782 466.55" clip-path="url(#a)"/>
<path d="m753.29 195.32 206.94 156.14" clip-path="url(#a)"/>
<path d="m622.14 661.87v152.67" clip-path="url(#a)"/>
<path d="m677.51 661.87v152.67" clip-path="url(#a)"/>
<path d="m960.23 351.46-224.71 310.41" clip-path="url(#a)"/>
<path d="m960.23 351.46-164.06 310.41" clip-path="url(#a)"/>
<path d="m960.23 351.46-100.78 310.41" clip-path="url(#a)"/>
<path d="m960.23 351.46-34.864 310.41" clip-path="url(#a)"/>
<path d="m960.23 351.46 105.76 155.61" clip-path="url(#a)"/>
<path d="m960.23 351.46 418.66 155.61" clip-path="url(#a)"/>
<path d="m735.52 661.87v152.67" clip-path="url(#a)"/>
<path d="m796.16 661.87v152.67" clip-path="url(#a)"/>
<path d="m859.45 661.87v152.67" clip-path="url(#a)"/>
<path d="m925.36 661.87v152.67" clip-path="url(#a)"/>
<path d="m1066 507.07-72.071 154.8" clip-path="url(#a)"/>
<path d="m1066 507.07-0.87891 154.8" clip-path="url(#a)"/>
<path d="m1066 507.07 72.95 154.8" clip-path="url(#a)"/>
<path d="m1378.9 507.07-163.48 154.8" clip-path="url(#a)"/>
<path d="m1378.9 507.07-84.376 154.8" clip-path="url(#a)"/>
<path d="m1378.9 507.07-2.6367 154.8" clip-path="url(#a)"/>
<path d="m1378.9 507.07 81.739 154.8" clip-path="url(#a)"/>
<path d="m1378.9 507.07 168.75 154.8" clip-path="url(#a)"/>
<path d="m1215.4 661.87v152.67" clip-path="url(#a)"/>
<path d="m1294.5 661.87v152.67" clip-path="url(#a)"/>
<path d="m1376.2 661.87v152.67" clip-path="url(#a)"/>
<path d="m1460.6 661.87v152.67" clip-path="url(#a)"/>
<path d="m993.92 661.87v152.67" clip-path="url(#a)"/>
<path d="m1065.1 661.87v152.67" clip-path="url(#a)"/>
<path d="m1138.9 661.87v152.67" clip-path="url(#a)"/>
<path d="m210.81 661.87v152.67" clip-path="url(#a)"/>
<path d="m239.81 661.87v152.67" clip-path="url(#a)"/>
<path d="m271.45 661.87v152.67" clip-path="url(#a)"/>
<path d="m305.73 661.87v152.67" clip-path="url(#a)"/>
<path d="m397.58 351.46 74.268 155.61" clip-path="url(#a)"/>
<path d="m397.58 351.46-54.932 310.41" clip-path="url(#a)"/>
<path d="m397.58 351.46 28.125 155.61" clip-path="url(#a)"/>
<path d="m397.58 351.46 26.807 310.41" clip-path="url(#a)"/>
<path d="m342.64 661.87v152.67" clip-path="url(#a)"/>
<path d="m425.7 507.07-43.506 154.8" clip-path="url(#a)"/>
<path d="m425.7 507.07 43.506 154.8" clip-path="url(#a)"/>
<path d="m424.38 661.87v152.67" clip-path="url(#a)"/>
<path d="m382.2 661.87v152.67" clip-path="url(#a)"/>
<path d="m469.21 661.87v152.67" clip-path="url(#a)"/>
<path d="m73.697 661.87v152.67" clip-path="url(#a)"/>
<path d="m81.607 661.87v152.67" clip-path="url(#a)"/>
<path d="m117.2 351.46-25.049 310.41" clip-path="url(#a)"/>
<path d="m117.2 351.46-11.865 310.41" clip-path="url(#a)"/>
<path d="m117.2 351.46 3.9551 310.41" clip-path="url(#a)"/>
<path d="m117.2 351.46 32.959 155.61" clip-path="url(#a)"/>
<path d="m92.154 661.87v152.67" clip-path="url(#a)"/>
<path d="m105.34 661.87v152.67" clip-path="url(#a)"/>
<path d="m121.16 661.87v152.67" clip-path="url(#a)"/>
<path d="m150.16 507.07-10.547 154.8" clip-path="url(#a)"/>
<path d="m150.16 507.07 10.547 154.8" clip-path="url(#a)"/>
<path d="m139.62 661.87v152.67" clip-path="url(#a)"/>
<path d="m160.71 661.87v152.67" clip-path="url(#a)"/>
<path d="m535.92 38.788-250.85 156.53" clip-path="url(#a)"/>
<path d="m535.92 38.788 33.48 623.08" clip-path="url(#a)"/>
<path d="m535.92 38.788 217.37 156.53" clip-path="url(#a)"/>
<path d="m184.44 661.87v152.67" clip-path="url(#a)"/>
<path d="m519.31 661.87v152.67" clip-path="url(#a)"/>
<path d="m1547.6 661.87v152.67" clip-path="url(#a)"/>
</g>
<path d="m292.9 124.01 5.3996-2.6532q2.154-1.0584 1.0956-3.2124l-3.4144-6.949q-1.0584-2.154-3.2124-1.0956l-5.3996 2.6532q-2.154 1.0584-1.0956 3.2124l3.4144 6.949q1.0584 2.154 3.2124 1.0956z" clip-path="url(#a)" fill="#fff" stroke="#fff"/>
<g clip-path="url(#a)">
<defs>
<path id="ak" d="m9.8125 72.906h9.8594v-29.891h35.844v29.891h9.8594v-72.906h-9.8594v34.719h-35.844v-34.719h-9.8594z"/>
</defs>
<g transform="translate(291.11 120.36) rotate(-26.168) scale(.08 -.08)">
<use xlink:href="#ak"/>
</g>
</g>
<path d="m370.69 123.69 4.3901-4.1137q1.7513-1.641 0.11024-3.3923l-5.2941-5.6497q-1.641-1.7513-3.3923-0.11024l-4.3901 4.1137q-1.7513 1.641-0.11024 3.3923l5.2941 5.6497q1.641 1.7513 3.3923 0.11024z" clip-path="url(#a)" fill="#fff" stroke="#fff"/>
<g clip-path="url(#a)">
<g transform="translate(367.92 120.72) rotate(-43.139) scale(.08 -.08)">
<use xlink:href="#ak"/>
</g>
</g>
<path d="m504.19 349.3 0.82452 4.3806q0.44394 2.3586 2.8025 1.9146l7.6089-1.4322q2.3586-0.44394 1.9146-2.8025l-0.82452-4.3806q-0.44394-2.3586-2.8025-1.9146l-7.6089 1.4322q-2.3586 0.44394-1.9146 2.8025z" clip-path="url(#a)" fill="#fff" stroke="#fff"/>
<g clip-path="url(#a)">
<defs>
<path id="z" d="m9.8125 72.906h9.8594v-64.609h35.5v-8.2969h-45.359z"/>
</defs>
<g transform="translate(508.18 348.55) rotate(79.34) scale(.08 -.08)">
<use xlink:href="#z"/>
</g>
</g>
<path d="m597.15 121.23 5.3382 2.7746q2.1295 1.1068 3.2364-1.0227l3.5707-6.8699q1.1068-2.1295-1.0227-3.2364l-5.3382-2.7746q-2.1295-1.1068-3.2364 1.0227l-3.5707 6.8699q-1.1068 2.1295 1.0227 3.2364z" clip-path="url(#a)" fill="#fff" stroke="#fff"/>
<g clip-path="url(#a)">
<g transform="translate(599.02 117.63) rotate(27.464) scale(.08 -.08)">
<use xlink:href="#ak"/>
</g>
</g>
<path d="m479.17 348.09 0.62764 5.8213q0.25727 2.3862 2.6434 2.1289l7.6979-0.82998q2.3862-0.25728 2.1289-2.6434l-0.62764-5.8213q-0.25728-2.3862-2.6434-2.1289l-7.6979 0.82998q-2.3862 0.25728-2.1289 2.6434z" clip-path="url(#a)" fill="#fff" stroke="#fff"/>
<g clip-path="url(#a)">
<defs>
<path id="aj" d="m8.6875 72.906h9.9219v-44.297q0-11.719 4.2344-16.875 4.25-5.1406 13.781-5.1406 9.4688 0 13.719 5.1406 4.25 5.1562 4.25 16.875v44.297h9.9062v-45.516q0-14.25-7.0625-21.531-7.0469-7.2812-20.812-7.2812-13.828 0-20.891 7.2812-7.0469 7.2812-7.0469 21.531z"/>
</defs>
<g transform="translate(483.21 347.66) rotate(83.846) scale(.08 -.08)">
<use xlink:href="#aj"/>
</g>
</g>
<path d="m165.55 426.92 0.89403 5.399q0.39208 2.3678 2.7598 1.9757l7.6385-1.2649q2.3678-0.39208 1.9757-2.7598l-0.89403-5.399q-0.39208-2.3678-2.7598-1.9757l-7.6385 1.2649q-2.3678 0.39208-1.9757 2.7598z" clip-path="url(#a)" fill="#fff" stroke="#fff"/>
<g clip-path="url(#a)">
<defs>
<path id="p" d="m34.188 63.188-13.391-36.281h26.812zm-5.5781 9.7188h11.188l27.781-72.906h-10.25l-6.6406 18.703h-32.859l-6.6406-18.703h-10.406z"/>
</defs>
<g transform="translate(169.55 426.26) rotate(80.598) scale(.08 -.08)">
<use xlink:href="#p"/>
</g>
</g>
<path d="m109.45 432.45 0.78385-6.1099q0.3054-2.3805-2.0751-2.6859l-7.6796-0.98522q-2.3805-0.3054-2.6859 2.0751l-0.78385 6.1099q-0.3054 2.3805 2.0751 2.6859l7.6796 0.98522q2.3805 0.3054 2.6859-2.0751z" clip-path="url(#a)" fill="#fff" stroke="#fff"/>
<g clip-path="url(#a)">
<defs>
<path id="ae" d="m19.672 64.797v-56.688h11.922q15.094 0 22.094 6.8281 7 6.8438 7 21.594 0 14.641-7 21.453t-22.094 6.8125zm-9.8594 8.1094h20.266q21.188 0 31.094-8.8125 9.9219-8.8125 9.9219-27.562 0-18.859-9.9688-27.703-9.9531-8.8281-31.047-8.8281h-20.266z"/>
</defs>
<g transform="translate(105.42 431.93) rotate(-82.689) scale(.08 -.08)">
<use xlink:href="#ae"/>
</g>
</g>
<path d="m113.54 431.69 0.53376-4.7941q0.26557-2.3853-2.1197-2.6508l-7.695-0.85673q-2.3853-0.26557-2.6508 2.1197l-0.53376 4.7941q-0.26557 2.3853 2.1197 2.6508l7.695 0.85673q2.3853 0.26557 2.6508-2.1197z" clip-path="url(#a)" fill="#fff" stroke="#fff"/>
<g clip-path="url(#a)">
<defs>
<path id="x" d="m19.672 64.797v-27.391h12.406q6.8906 0 10.641 3.5625 3.7656 3.5625 3.7656 10.156 0 6.5469-3.7656 10.109-3.75 3.5625-10.641 3.5625zm-9.8594 8.1094h22.266q12.266 0 18.531-5.5469 6.2812-5.5469 6.2812-16.234 0-10.797-6.2812-16.312-6.2656-5.5156-18.531-5.5156h-12.406v-29.297h-9.8594z"/>
</defs>
<g transform="translate(109.51 431.24) rotate(-83.647) scale(.08 -.08)">
<use xlink:href="#x"/>
</g>
</g>
<path d="m131.33 276.77 0.56986-5.4428q0.24991-2.387-2.137-2.6369l-7.7004-0.80623q-2.387-0.24991-2.6369 2.137l-0.56986 5.4428q-0.24991 2.387 2.137 2.6369l7.7004 0.80623q2.387 0.24991 2.6369-2.137z" clip-path="url(#a)" fill="#fff" stroke="#fff"/>
<g clip-path="url(#a)">
<g transform="translate(127.29 276.34) rotate(-84.023) scale(.08 -.08)">
<use xlink:href="#p"/>
</g>
</g>
<path d="m152.44 426.37 0.63487 5.8205q0.26024 2.3858 2.6461 2.1256l7.6968-0.83954q2.3858-0.26024 2.1256-2.6461l-0.63487-5.8205q-0.26024-2.3858-2.6461-2.1256l-7.6968 0.83954q-2.3858 0.26024-2.1256 2.6461z" clip-path="url(#a)" fill="#fff" stroke="#fff"/>
<g clip-path="url(#a)">
<g transform="translate(156.48 425.93) rotate(83.775) scale(.08 -.08)">
<use xlink:href="#aj"/>
</g>
</g>
<path d="m253.7 432.28 0.86032-5.4045q0.3773-2.3702-1.9929-2.7475l-7.6462-1.2172q-2.3702-0.3773-2.7475 1.9929l-0.86032 5.4045q-0.3773 2.3702 1.9929 2.7475l7.6462 1.2172q2.3702 0.3773 2.7475-1.9929z" clip-path="url(#a)" fill="#fff" stroke="#fff"/>
<g clip-path="url(#a)">
<g transform="translate(249.69 431.65) rotate(-80.955) scale(.08 -.08)">
<use xlink:href="#p"/>
</g>
</g>
<path d="m268.46 431.49 0.44432-4.5797q0.23176-2.3888-2.157-2.6205l-7.7063-0.74766q-2.3888-0.23176-2.6205 2.157l-0.44432 4.5797q-0.23176 2.3888 2.157 2.6205l7.7063 0.74766q2.3888 0.23176 2.6205-2.157z" clip-path="url(#a)" fill="#fff" stroke="#fff"/>
<g clip-path="url(#a)">
<defs>
<path id="av" d="m9.8125 72.906h41.891v-8.3125h-32.031v-21.484h28.906v-8.2969h-28.906v-34.812h-9.8594z"/>
</defs>
<g transform="translate(264.42 431.1) rotate(-84.459) scale(.08 -.08)">
<use xlink:href="#av"/>
</g>
</g>
<path d="m284.44 431.86 0.1798-6.1574q0.07005-2.399-2.3289-2.469l-7.7392-0.22598q-2.399-0.07005-2.469 2.3289l-0.1798 6.1574q-0.07005 2.399 2.3289 2.469l7.7392 0.22598q2.399 0.07005 2.469-2.3289z" clip-path="url(#a)" fill="#fff" stroke="#fff"/>
<g clip-path="url(#a)">
<g transform="translate(280.38 431.74) rotate(-88.327) scale(.08 -.08)">
<use xlink:href="#ae"/>
</g>
</g>
<path d="m289.03 426.46 0.21334 4.819q0.10615 2.3977 2.5038 2.2915l7.7349-0.34243q2.3977-0.10615 2.2915-2.5038l-0.21334-4.819q-0.10615-2.3977-2.5038-2.2915l-7.7349 0.34243q-2.3977 0.10615-2.2915 2.5038z" clip-path="url(#a)" fill="#fff" stroke="#fff"/>
<g clip-path="url(#a)">
<g transform="translate(293.09 426.28) rotate(87.465) scale(.08 -.08)">
<use xlink:href="#x"/>
</g>
</g>
<path d="m334.64 274.84 3.1991 4.44q1.403 1.9472 3.3502 0.54422l6.2818-4.5261q1.9472-1.403 0.54422-3.3502l-3.1991-4.44q-1.403-1.9472-3.3502-0.54422l-6.2818 4.5261q-1.9472 1.403-0.54422 3.3502z" clip-path="url(#a)" fill="#fff" stroke="#fff"/>
<g clip-path="url(#a)">
<g transform="translate(337.94 272.46) rotate(54.227) scale(.08 -.08)">
<use xlink:href="#p"/>
</g>
</g>
<path d="m563.13 721.3v33.808q0 2.4 2.4 2.4h7.7425q2.4 0 2.4-2.4v-33.808q0-2.4-2.4-2.4h-7.7425q-2.4 0-2.4 2.4z" clip-path="url(#a)" fill="#fff" stroke="#fff"/>
<g clip-path="url(#a)">
<defs>
<path id="l" d="m-0.29688 72.906h61.672v-8.3125h-25.875v-64.594h-9.9062v64.594h-25.891z"/>
<path id="d" d="m56.203 29.594v-4.3906h-41.312q0.59375-9.2812 5.5938-14.141t13.938-4.8594q5.1719 0 10.031 1.2656t9.6562 3.8125v-8.5q-4.8438-2.0469-9.9219-3.125t-10.297-1.0781q-13.094 0-20.734 7.6094-7.6406 7.625-7.6406 20.625 0 13.422 7.25 21.297 7.25 7.8906 19.562 7.8906 11.031 0 17.453-7.1094 6.4219-7.0938 6.4219-19.297zm-8.9844 2.6406q-0.09375 7.3594-4.125 11.75-4.0312 4.4062-10.672 4.4062-7.5156 0-12.031-4.25t-5.2031-11.969z"/>
<path id="i" d="m41.109 46.297q-1.5156 0.875-3.2969 1.2812-1.7812 0.42188-3.9219 0.42188-7.625 0-11.703-4.9531t-4.0781-14.234v-28.812h-9.0312v54.688h9.0312v-8.5q2.8438 4.9844 7.375 7.3906 4.5469 2.4219 11.047 2.4219 0.92188 0 2.0469-0.125 1.125-0.10938 2.4844-0.35938z"/>
<path id="k" d="m52 44.188q3.375 6.0625 8.0625 8.9375t11.031 2.875q8.5469 0 13.188-5.9844 4.6406-5.9688 4.6406-17v-33.016h-9.0312v32.719q0 7.8594-2.7969 11.656-2.7812 3.8125-8.4844 3.8125-6.9844 0-11.047-4.6406-4.0469-4.625-4.0469-12.641v-30.906h-9.0312v32.719q0 7.9062-2.7812 11.688t-8.5938 3.7812q-6.8906 0-10.953-4.6562-4.0469-4.6562-4.0469-12.625v-30.906h-9.0312v54.688h9.0312v-8.5q3.0781 5.0312 7.375 7.4219t10.203 2.3906q5.9688 0 10.141-3.0312 4.1719-3.0156 6.1719-8.7812z"/>
<path id="h" d="m9.4219 54.688h8.9844v-54.688h-8.9844zm0 21.297h8.9844v-11.391h-8.9844z"/>
<path id="j" d="m54.891 33.016v-33.016h-8.9844v32.719q0 7.7656-3.0312 11.609-3.0312 3.8594-9.0781 3.8594-7.2812 0-11.484-4.6406-4.2031-4.625-4.2031-12.641v-30.906h-9.0312v54.688h9.0312v-8.5q3.2344 4.9375 7.5938 7.375 4.375 2.4375 10.094 2.4375 9.4219 0 14.25-5.8281 4.8438-5.8281 4.8438-17.156z"/>
<path id="e" d="m34.281 27.484q-10.891 0-15.094-2.4844t-4.2031-8.5q0-4.7812 3.1562-7.5938 3.1562-2.7969 8.5625-2.7969 7.4844 0 12 5.2969t4.5156 14.078v2zm17.922 3.7188v-31.203h-8.9844v8.2969q-3.0781-4.9688-7.6719-7.3438t-11.234-2.375q-8.3906 0-13.359 4.7188-4.9531 4.7188-4.9531 12.625 0 9.2188 6.1719 13.906 6.1875 4.6875 18.438 4.6875h12.609v0.89062q0 6.2031-4.0781 9.5938t-11.453 3.3906q-4.6875 0-9.1406-1.125-4.4375-1.125-8.5312-3.375v8.3125q4.9219 1.9062 9.5625 2.8438 4.6406 0.95312 9.0312 0.95312 11.875 0 17.734-6.1562 5.8594-6.1406 5.8594-18.641z"/>
<path id="g" d="m9.4219 75.984h8.9844v-75.984h-8.9844z"/>
</defs>
<g transform="translate(567.2 721.3) rotate(90) scale(.08 -.08)">
<use xlink:href="#l"/>
<use x="44.083984" xlink:href="#d"/>
<use x="105.607422" xlink:href="#i"/>
<use x="144.970703" xlink:href="#k"/>
<use x="242.382812" xlink:href="#h"/>
<use x="270.166016" xlink:href="#j"/>
<use x="333.544922" xlink:href="#e"/>
<use x="394.824219" xlink:href="#g"/>
</g>
</g>
<path d="m693.01 432.93 1.481-5.2683q0.6495-2.3104-1.6609-2.9599l-7.4536-2.0953q-2.3104-0.6495-2.9599 1.6609l-1.481 5.2683q-0.6495 2.3104 1.6609 2.9599l7.4536 2.0953q2.3104 0.6495 2.9599-1.6609z" clip-path="url(#a)" fill="#fff" stroke="#fff"/>
<g clip-path="url(#a)">
<g transform="translate(689.1 431.83) rotate(-74.299) scale(.08 -.08)">
<use xlink:href="#p"/>
</g>
</g>
<path d="m721.21 431.98 0.77339-4.7613q0.38479-2.369-1.9842-2.7537l-7.6423-1.2414q-2.369-0.38479-2.7537 1.9842l-0.77339 4.7613q-0.38479 2.369 1.9842 2.7537l7.6423 1.2414q2.369 0.38479 2.7537-1.9842z" clip-path="url(#a)" fill="#fff" stroke="#fff"/>
<g clip-path="url(#a)">
<g transform="translate(717.19 431.33) rotate(-80.774) scale(.08 -.08)">
<use xlink:href="#x"/>
</g>
</g>
<path d="m850.8 276.75 4.3685 3.2962q1.9158 1.4456 3.3614-0.47027l4.6634-6.1805q1.4456-1.9158-0.47027-3.3614l-4.3685-3.2962q-1.9158-1.4456-3.3614 0.47027l-4.6634 6.1805q-1.4456 1.9158 0.47027 3.3614z" clip-path="url(#a)" fill="#fff" stroke="#fff"/>
<g clip-path="url(#a)">
<g transform="translate(853.25 273.51) rotate(37.036) scale(.08 -.08)">
<use xlink:href="#p"/>
</g>
</g>
<path d="m615.87 721.3v33.808q0 2.4 2.4 2.4h7.7425q2.4 0 2.4-2.4v-33.808q0-2.4-2.4-2.4h-7.7425q-2.4 0-2.4 2.4z" clip-path="url(#a)" fill="#fff" stroke="#fff"/>
<g clip-path="url(#a)">
<g transform="translate(619.93 721.3) rotate(90) scale(.08 -.08)">
<use xlink:href="#l"/>
<use x="44.083984" xlink:href="#d"/>
<use x="105.607422" xlink:href="#i"/>
<use x="144.970703" xlink:href="#k"/>
<use x="242.382812" xlink:href="#h"/>
<use x="270.166016" xlink:href="#j"/>
<use x="333.544922" xlink:href="#e"/>
<use x="394.824219" xlink:href="#g"/>
</g>
</g>
<path d="m671.24 721.3v33.808q0 2.4 2.4 2.4h7.7425q2.4 0 2.4-2.4v-33.808q0-2.4-2.4-2.4h-7.7425q-2.4 0-2.4 2.4z" clip-path="url(#a)" fill="#fff" stroke="#fff"/>
<g clip-path="url(#a)">
<g transform="translate(675.3 721.3) rotate(90) scale(.08 -.08)">
<use xlink:href="#l"/>
<use x="44.083984" xlink:href="#d"/>
<use x="105.607422" xlink:href="#i"/>
<use x="144.970703" xlink:href="#k"/>
<use x="242.382812" xlink:href="#h"/>
<use x="270.166016" xlink:href="#j"/>
<use x="333.544922" xlink:href="#e"/>
<use x="394.824219" xlink:href="#g"/>
</g>
</g>
<path d="m851.32 512.6 3.2596-4.5027q1.4073-1.9441-0.53673-3.3514l-6.2716-4.5401q-1.9441-1.4073-3.3514 0.53673l-3.2596 4.5027q-1.4073 1.9441 0.53673 3.3514l6.2716 4.5401q1.9441 1.4073 3.3514-0.53673z" clip-path="url(#a)" fill="#fff" stroke="#fff"/>
<g clip-path="url(#a)">
<defs>
<path id="w" d="m44.391 34.188q3.1719-1.0781 6.1719-4.5938t6.0312-9.6719l10.016-19.922h-10.609l-9.3125 18.703q-3.625 7.3281-7.0156 9.7188t-9.25 2.3906h-10.75v-30.812h-9.8594v72.906h22.266q12.5 0 18.656-5.2344 6.1562-5.2188 6.1562-15.766 0-6.8906-3.2031-11.438-3.2031-4.5312-9.2969-6.2812zm-24.719 30.609v-25.875h12.406q7.125 0 10.766 3.2969t3.6406 9.6875-3.6406 9.6406-10.766 3.25z"/>
</defs>
<g transform="translate(848.03 510.21) rotate(-54.099) scale(.08 -.08)">
<use xlink:href="#w"/>
</g>
</g>
<path d="m882.46 512.02 2.5572-4.8383q1.1215-2.1219-1.0004-3.2433l-6.8452-3.618q-2.1219-1.1215-3.2433 1.0004l-2.5572 4.8383q-1.1215 2.1219 1.0004 3.2433l6.8452 3.618q2.1219 1.1215 3.2433-1.0004z" clip-path="url(#a)" fill="#fff" stroke="#fff"/>
<g clip-path="url(#a)">
<g transform="translate(878.87 510.12) rotate(-62.142) scale(.08 -.08)">
<use xlink:href="#p"/>
</g>
</g>
<path d="m914.85 511.53 1.9023-5.8589q0.74114-2.2827-1.5416-3.0238l-7.3641-2.3909q-2.2827-0.74114-3.0238 1.5416l-1.9023 5.8589q-0.74114 2.2827 1.5416 3.0238l7.3641 2.3909q2.2827 0.74114 3.0238-1.5416z" clip-path="url(#a)" fill="#fff" stroke="#fff"/>
<g clip-path="url(#a)">
<g transform="translate(910.99 510.28) rotate(-72.013) scale(.08 -.08)">
<use xlink:href="#ae"/>
</g>
</g>
<path d="m948.76 509.76 0.5384-4.7936q0.26787-2.385-2.1171-2.6529l-7.6941-0.86417q-2.385-0.26787-2.6529 2.1171l-0.5384 4.7936q-0.26787 2.385 2.1171 2.6529l7.6941 0.86417q2.385 0.26787 2.6529-2.1171z" clip-path="url(#a)" fill="#fff" stroke="#fff"/>
<g clip-path="url(#a)">
<g transform="translate(944.72 509.31) rotate(-83.592) scale(.08 -.08)">
<use xlink:href="#x"/>
</g>
</g>
<path d="m1006.4 430.53 3.0762 4.5261q1.3491 1.9849 3.334 0.63584l6.4035-4.3522q1.9849-1.3491 0.63584-3.334l-3.0762-4.5261q-1.3491-1.9849-3.334-0.63584l-6.4035 4.3522q-1.9849 1.3491-0.63584 3.334z" clip-path="url(#a)" fill="#fff" stroke="#fff"/>
<g clip-path="url(#a)">
<g transform="translate(1009.7 428.25) rotate(55.797) scale(.08 -.08)">
<use xlink:href="#p"/>
</g>
</g>
<path d="m1164.8 434.19 5.1296 1.9066q2.2496 0.83616 3.0858-1.4135l2.6975-7.2574q0.83616-2.2496-1.4135-3.0858l-5.1296-1.9066q-2.2496-0.83616-3.0858 1.4135l-2.6975 7.2574q-0.83616 2.2496 1.4135 3.0858z" clip-path="url(#a)" fill="#fff" stroke="#fff"/>
<g clip-path="url(#a)">
<g transform="translate(1166.2 430.38) rotate(20.39) scale(.08 -.08)">
<use xlink:href="#p"/>
</g>
</g>
<path d="m729.25 721.3v33.808q0 2.4 2.4 2.4h7.7425q2.4 0 2.4-2.4v-33.808q0-2.4-2.4-2.4h-7.7425q-2.4 0-2.4 2.4z" clip-path="url(#a)" fill="#fff" stroke="#fff"/>
<g clip-path="url(#a)">
<g transform="translate(733.31 721.3) rotate(90) scale(.08 -.08)">
<use xlink:href="#l"/>
<use x="44.083984" xlink:href="#d"/>
<use x="105.607422" xlink:href="#i"/>
<use x="144.970703" xlink:href="#k"/>
<use x="242.382812" xlink:href="#h"/>
<use x="270.166016" xlink:href="#j"/>
<use x="333.544922" xlink:href="#e"/>
<use x="394.824219" xlink:href="#g"/>
</g>
</g>
<path d="m789.89 721.3v33.808q0 2.4 2.4 2.4h7.7425q2.4 0 2.4-2.4v-33.808q0-2.4-2.4-2.4h-7.7425q-2.4 0-2.4 2.4z" clip-path="url(#a)" fill="#fff" stroke="#fff"/>
<g clip-path="url(#a)">
<g transform="translate(793.96 721.3) rotate(90) scale(.08 -.08)">
<use xlink:href="#l"/>
<use x="44.083984" xlink:href="#d"/>
<use x="105.607422" xlink:href="#i"/>
<use x="144.970703" xlink:href="#k"/>
<use x="242.382812" xlink:href="#h"/>
<use x="270.166016" xlink:href="#j"/>
<use x="333.544922" xlink:href="#e"/>
<use x="394.824219" xlink:href="#g"/>
</g>
</g>
<path d="m853.18 721.3v33.808q0 2.4 2.4 2.4h7.7425q2.4 0 2.4-2.4v-33.808q0-2.4-2.4-2.4h-7.7425q-2.4 0-2.4 2.4z" clip-path="url(#a)" fill="#fff" stroke="#fff"/>
<g clip-path="url(#a)">
<g transform="translate(857.24 721.3) rotate(90) scale(.08 -.08)">
<use xlink:href="#l"/>
<use x="44.083984" xlink:href="#d"/>
<use x="105.607422" xlink:href="#i"/>
<use x="144.970703" xlink:href="#k"/>
<use x="242.382812" xlink:href="#h"/>
<use x="270.166016" xlink:href="#j"/>
<use x="333.544922" xlink:href="#e"/>
<use x="394.824219" xlink:href="#g"/>
</g>
</g>
<path d="m919.09 721.3v33.808q0 2.4 2.4 2.4h7.7425q2.4 0 2.4-2.4v-33.808q0-2.4-2.4-2.4h-7.7425q-2.4 0-2.4 2.4z" clip-path="url(#a)" fill="#fff" stroke="#fff"/>
<g clip-path="url(#a)">
<g transform="translate(923.16 721.3) rotate(90) scale(.08 -.08)">
<use xlink:href="#l"/>
<use x="44.083984" xlink:href="#d"/>
<use x="105.607422" xlink:href="#i"/>
<use x="144.970703" xlink:href="#k"/>
<use x="242.382812" xlink:href="#h"/>
<use x="270.166016" xlink:href="#j"/>
<use x="333.544922" xlink:href="#e"/>
<use x="394.824219" xlink:href="#g"/>
</g>
</g>
<path d="m1034.6 589.41 2.1336-4.5827q1.013-2.1757-1.1628-3.1887l-7.019-3.2679q-2.1757-1.013-3.1887 1.1628l-2.1336 4.5827q-1.013 2.1757 1.1628 3.1887l7.019 3.2679q2.1757 1.013 3.1887-1.1628z" clip-path="url(#a)" fill="#fff" stroke="#fff"/>
<g clip-path="url(#a)">
<defs>
<path id="s" d="m9.8125 72.906h46.094v-8.3125h-36.234v-21.578h34.719v-8.2969h-34.719v-26.422h37.109v-8.2969h-46.969z"/>
</defs>
<g transform="translate(1030.9 587.69) rotate(-65.034) scale(.08 -.08)">
<use xlink:href="#s"/>
</g>
</g>
<path d="m1071.8 587.03 0.028701-5.0549q0.013626-2.4-2.3863-2.4136l-7.7424-0.04396q-2.4-0.013626-2.4136 2.3863l-0.028701 5.0549q-0.013627 2.4 2.3863 2.4136l7.7424 0.04396q2.4 0.013627 2.4136-2.3863z" clip-path="url(#a)" fill="#fff" stroke="#fff"/>
<g clip-path="url(#a)">
<g transform="translate(1067.7 587.01) rotate(-89.675) scale(.08 -.08)">
<use xlink:href="#s"/>
</g>
</g>
<path d="m1095.6 584.62 2.3814 5.0532q1.0231 2.171 3.1941 1.1479l7.0038-3.3006q2.171-1.0231 1.1479-3.1941l-2.3814-5.0532q-1.0231-2.171-3.1941-1.1479l-7.0038 3.3006q-2.171 1.0231-1.1479 3.1941z" clip-path="url(#a)" fill="#fff" stroke="#fff"/>
<g clip-path="url(#a)">
<defs>
<path id="y" d="m64.406 67.281v-10.391q-4.9844 4.6406-10.625 6.9219-5.6406 2.2969-11.984 2.2969-12.5 0-19.141-7.6406t-6.6406-22.094q0-14.406 6.6406-22.047t19.141-7.6406q6.3438 0 11.984 2.2969t10.625 6.9375v-10.312q-5.1719-3.5156-10.969-5.2812-5.7812-1.75-12.219-1.75-16.562 0-26.094 10.125-9.5156 10.141-9.5156 27.672 0 17.578 9.5156 27.703 9.5312 10.141 26.094 10.141 6.5312 0 12.312-1.7344 5.7969-1.7344 10.875-5.2031z"/>
</defs>
<g transform="translate(1099.3 582.89) rotate(64.767) scale(.08 -.08)">
<use xlink:href="#y"/>
</g>
</g>
<path d="m1299.4 590.94 4.0363-3.822q1.7427-1.6502 0.092527-3.3929l-5.3235-5.622q-1.6502-1.7427-3.3929-0.092527l-4.0363 3.822q-1.7427 1.6502-0.092527 3.3929l5.3235 5.622q1.6502 1.7427 3.3929 0.092527z" clip-path="url(#a)" fill="#fff" stroke="#fff"/>
<g clip-path="url(#a)">
<g transform="translate(1296.6 587.99) rotate(-43.438) scale(.08 -.08)">
<use xlink:href="#w"/>
</g>
</g>
<path d="m1341 589.69 2.4193-4.4385q1.1486-2.1073-0.95867-3.2559l-6.7982-3.7055q-2.1073-1.1486-3.2559 0.95867l-2.4193 4.4385q-1.1486 2.1073 0.95867 3.2559l6.7982 3.7055q2.1073 1.1486 3.2559-0.95867z" clip-path="url(#a)" fill="#fff" stroke="#fff"/>
<g clip-path="url(#a)">
<g transform="translate(1337.4 587.75) rotate(-61.407) scale(.08 -.08)">
<use xlink:href="#s"/>
</g>
</g>
<path d="m1383.8 587.11 0.086092-5.0543q0.040874-2.3997-2.3588-2.4405l-7.7414-0.13186q-2.3997-0.040874-2.4405 2.3588l-0.086092 5.0543q-0.040874 2.3997 2.3588 2.4405l7.7414 0.13186q2.3997 0.040874 2.4405-2.3588z" clip-path="url(#a)" fill="#fff" stroke="#fff"/>
<g clip-path="url(#a)">
<g transform="translate(1379.7 587.04) rotate(-89.024) scale(.08 -.08)">
<use xlink:href="#s"/>
</g>
</g>
<path d="m1412.9 584.93 2.6084 4.9399q1.1206 2.1223 3.2429 1.0016l6.8466-3.6153q2.1223-1.1206 1.0016-3.2429l-2.6084-4.9399q-1.1206-2.1223-3.2429-1.0016l-6.8466 3.6153q-2.1223 1.1206-1.0016 3.2429z" clip-path="url(#a)" fill="#fff" stroke="#fff"/>
<g clip-path="url(#a)">
<g transform="translate(1416.5 583.03) rotate(62.164) scale(.08 -.08)">
<use xlink:href="#y"/>
</g>
</g>
<path d="m1456.9 587.11 4.3146 3.9579q1.7686 1.6224 3.391-0.14624l5.2338-5.7056q1.6224-1.7686-0.14624-3.391l-4.3146-3.9579q-1.7686-1.6224-3.391 0.14624l-5.2338 5.7056q-1.6224 1.7686 0.14624 3.391z" clip-path="url(#a)" fill="#fff" stroke="#fff"/>
<g clip-path="url(#a)">
<g transform="translate(1459.6 584.12) rotate(42.531) scale(.08 -.08)">
<use xlink:href="#aj"/>
</g>
</g>
<path d="m1209.1 721.3v33.808q0 2.4 2.4 2.4h7.7425q2.4 0 2.4-2.4v-33.808q0-2.4-2.4-2.4h-7.7425q-2.4 0-2.4 2.4z" clip-path="url(#a)" fill="#fff" stroke="#fff"/>
<g clip-path="url(#a)">
<g transform="translate(1213.2 721.3) rotate(90) scale(.08 -.08)">
<use xlink:href="#l"/>
<use x="44.083984" xlink:href="#d"/>
<use x="105.607422" xlink:href="#i"/>
<use x="144.970703" xlink:href="#k"/>
<use x="242.382812" xlink:href="#h"/>
<use x="270.166016" xlink:href="#j"/>
<use x="333.544922" xlink:href="#e"/>
<use x="394.824219" xlink:href="#g"/>
</g>
</g>
<path d="m1288.2 721.3v33.808q0 2.4 2.4 2.4h7.7425q2.4 0 2.4-2.4v-33.808q0-2.4-2.4-2.4h-7.7425q-2.4 0-2.4 2.4z" clip-path="url(#a)" fill="#fff" stroke="#fff"/>
<g clip-path="url(#a)">
<g transform="translate(1292.3 721.3) rotate(90) scale(.08 -.08)">
<use xlink:href="#l"/>
<use x="44.083984" xlink:href="#d"/>
<use x="105.607422" xlink:href="#i"/>
<use x="144.970703" xlink:href="#k"/>
<use x="242.382812" xlink:href="#h"/>
<use x="270.166016" xlink:href="#j"/>
<use x="333.544922" xlink:href="#e"/>
<use x="394.824219" xlink:href="#g"/>
</g>
</g>
<path d="m1370 721.3v33.808q0 2.4 2.4 2.4h7.7425q2.4 0 2.4-2.4v-33.808q0-2.4-2.4-2.4h-7.7425q-2.4 0-2.4 2.4z" clip-path="url(#a)" fill="#fff" stroke="#fff"/>
<g clip-path="url(#a)">
<g transform="translate(1374 721.3) rotate(90) scale(.08 -.08)">
<use xlink:href="#l"/>
<use x="44.083984" xlink:href="#d"/>
<use x="105.607422" xlink:href="#i"/>
<use x="144.970703" xlink:href="#k"/>
<use x="242.382812" xlink:href="#h"/>
<use x="270.166016" xlink:href="#j"/>
<use x="333.544922" xlink:href="#e"/>
<use x="394.824219" xlink:href="#g"/>
</g>
</g>
<path d="m1454.4 721.3v33.808q0 2.4 2.4 2.4h7.7425q2.4 0 2.4-2.4v-33.808q0-2.4-2.4-2.4h-7.7425q-2.4 0-2.4 2.4z" clip-path="url(#a)" fill="#fff" stroke="#fff"/>
<g clip-path="url(#a)">
<g transform="translate(1458.4 721.3) rotate(90) scale(.08 -.08)">
<use xlink:href="#l"/>
<use x="44.083984" xlink:href="#d"/>
<use x="105.607422" xlink:href="#i"/>
<use x="144.970703" xlink:href="#k"/>
<use x="242.382812" xlink:href="#h"/>
<use x="270.166016" xlink:href="#j"/>
<use x="333.544922" xlink:href="#e"/>
<use x="394.824219" xlink:href="#g"/>
</g>
</g>
<path d="m987.65 721.3v33.808q0 2.4 2.4 2.4h7.7425q2.4 0 2.4-2.4v-33.808q0-2.4-2.4-2.4h-7.7425q-2.4 0-2.4 2.4z" clip-path="url(#a)" fill="#fff" stroke="#fff"/>
<g clip-path="url(#a)">
<g transform="translate(991.71 721.3) rotate(90) scale(.08 -.08)">
<use xlink:href="#l"/>
<use x="44.083984" xlink:href="#d"/>
<use x="105.607422" xlink:href="#i"/>
<use x="144.970703" xlink:href="#k"/>
<use x="242.382812" xlink:href="#h"/>
<use x="270.166016" xlink:href="#j"/>
<use x="333.544922" xlink:href="#e"/>
<use x="394.824219" xlink:href="#g"/>
</g>
</g>
<path d="m1058.8 721.3v33.808q0 2.4 2.4 2.4h7.7425q2.4 0 2.4-2.4v-33.808q0-2.4-2.4-2.4h-7.7425q-2.4 0-2.4 2.4z" clip-path="url(#a)" fill="#fff" stroke="#fff"/>
<g clip-path="url(#a)">
<g transform="translate(1062.9 721.3) rotate(90) scale(.08 -.08)">
<use xlink:href="#l"/>
<use x="44.083984" xlink:href="#d"/>
<use x="105.607422" xlink:href="#i"/>
<use x="144.970703" xlink:href="#k"/>
<use x="242.382812" xlink:href="#h"/>
<use x="270.166016" xlink:href="#j"/>
<use x="333.544922" xlink:href="#e"/>
<use x="394.824219" xlink:href="#g"/>
</g>
</g>
<path d="m1132.7 721.3v33.808q0 2.4 2.4 2.4h7.7425q2.4 0 2.4-2.4v-33.808q0-2.4-2.4-2.4h-7.7425q-2.4 0-2.4 2.4z" clip-path="url(#a)" fill="#fff" stroke="#fff"/>
<g clip-path="url(#a)">
<g transform="translate(1136.7 721.3) rotate(90) scale(.08 -.08)">
<use xlink:href="#l"/>
<use x="44.083984" xlink:href="#d"/>
<use x="105.607422" xlink:href="#i"/>
<use x="144.970703" xlink:href="#k"/>
<use x="242.382812" xlink:href="#h"/>
<use x="270.166016" xlink:href="#j"/>
<use x="333.544922" xlink:href="#e"/>
<use x="394.824219" xlink:href="#g"/>
</g>
</g>
<path d="m204.54 721.3v33.808q0 2.4 2.4 2.4h7.7425q2.4 0 2.4-2.4v-33.808q0-2.4-2.4-2.4h-7.7425q-2.4 0-2.4 2.4z" clip-path="url(#a)" fill="#fff" stroke="#fff"/>
<g clip-path="url(#a)">
<g transform="translate(208.6 721.3) rotate(90) scale(.08 -.08)">
<use xlink:href="#l"/>
<use x="44.083984" xlink:href="#d"/>
<use x="105.607422" xlink:href="#i"/>
<use x="144.970703" xlink:href="#k"/>
<use x="242.382812" xlink:href="#h"/>
<use x="270.166016" xlink:href="#j"/>
<use x="333.544922" xlink:href="#e"/>
<use x="394.824219" xlink:href="#g"/>
</g>
</g>
<path d="m233.54 721.3v33.808q0 2.4 2.4 2.4h7.7425q2.4 0 2.4-2.4v-33.808q0-2.4-2.4-2.4h-7.7425q-2.4 0-2.4 2.4z" clip-path="url(#a)" fill="#fff" stroke="#fff"/>
<g clip-path="url(#a)">
<g transform="translate(237.6 721.3) rotate(90) scale(.08 -.08)">
<use xlink:href="#l"/>
<use x="44.083984" xlink:href="#d"/>
<use x="105.607422" xlink:href="#i"/>
<use x="144.970703" xlink:href="#k"/>
<use x="242.382812" xlink:href="#h"/>
<use x="270.166016" xlink:href="#j"/>
<use x="333.544922" xlink:href="#e"/>
<use x="394.824219" xlink:href="#g"/>
</g>
</g>
<path d="m265.18 721.3v33.808q0 2.4 2.4 2.4h7.7425q2.4 0 2.4-2.4v-33.808q0-2.4-2.4-2.4h-7.7425q-2.4 0-2.4 2.4z" clip-path="url(#a)" fill="#fff" stroke="#fff"/>
<g clip-path="url(#a)">
<g transform="translate(269.25 721.3) rotate(90) scale(.08 -.08)">
<use xlink:href="#l"/>
<use x="44.083984" xlink:href="#d"/>
<use x="105.607422" xlink:href="#i"/>
<use x="144.970703" xlink:href="#k"/>
<use x="242.382812" xlink:href="#h"/>
<use x="270.166016" xlink:href="#j"/>
<use x="333.544922" xlink:href="#e"/>
<use x="394.824219" xlink:href="#g"/>
</g>
</g>
<path d="m299.46 721.3v33.808q0 2.4 2.4 2.4h7.7425q2.4 0 2.4-2.4v-33.808q0-2.4-2.4-2.4h-7.7425q-2.4 0-2.4 2.4z" clip-path="url(#a)" fill="#fff" stroke="#fff"/>
<g clip-path="url(#a)">
<g transform="translate(303.52 721.3) rotate(90) scale(.08 -.08)">
<use xlink:href="#l"/>
<use x="44.083984" xlink:href="#d"/>
<use x="105.607422" xlink:href="#i"/>
<use x="144.970703" xlink:href="#k"/>
<use x="242.382812" xlink:href="#h"/>
<use x="270.166016" xlink:href="#j"/>
<use x="333.544922" xlink:href="#e"/>
<use x="394.824219" xlink:href="#g"/>
</g>
</g>
<path d="m427.87 429.5 2.3572 4.9388q1.0337 2.166 3.1997 1.1322l6.9875-3.3349q2.166-1.0337 1.1322-3.1997l-2.3572-4.9388q-1.0337-2.166-3.1997-1.1322l-6.9875 3.3349q-2.166 1.0337-1.1322 3.1997z" clip-path="url(#a)" fill="#fff" stroke="#fff"/>
<g clip-path="url(#a)">
<g transform="translate(431.54 427.75) rotate(64.486) scale(.08 -.08)">
<use xlink:href="#p"/>
</g>
</g>
<path d="m375.8 510.5 0.96867-5.4737q0.41822-2.3633-1.9451-2.7815l-7.624-1.3492q-2.3633-0.41822-2.7815 1.9451l-0.96867 5.4737q-0.41822 2.3633 1.9451 2.7815l7.624 1.3492q2.3633 0.41822 2.7815-1.9451z" clip-path="url(#a)" fill="#fff" stroke="#fff"/>
<g clip-path="url(#a)">
<g transform="translate(371.8 509.79) rotate(-79.964) scale(.08 -.08)">
<use xlink:href="#w"/>
</g>
</g>
<path d="m405.04 428.01 0.85795 4.7468q0.42686 2.3617 2.7886 1.9349l7.6191-1.3771q2.3617-0.42686 1.9349-2.7886l-0.85795-4.7468q-0.42686-2.3617-2.7886-1.9349l-7.6191 1.3771q-2.3617 0.42686-1.9349 2.7886z" clip-path="url(#a)" fill="#fff" stroke="#fff"/>
<g clip-path="url(#a)">
<g transform="translate(409.04 427.29) rotate(79.755) scale(.08 -.08)">
<use xlink:href="#x"/>
</g>
</g>
<path d="m404.47 504.14 0.53 6.1372q0.2065 2.3911 2.5976 2.1846l7.7138-0.66616q2.3911-0.2065 2.1846-2.5976l-0.53-6.1372q-0.2065-2.3911-2.5976-2.1846l-7.7138 0.66616q-2.3911 0.2065-2.1846 2.5976z" clip-path="url(#a)" fill="#fff" stroke="#fff"/>
<g clip-path="url(#a)">
<g transform="translate(408.52 503.79) rotate(85.064) scale(.08 -.08)">
<use xlink:href="#ae"/>
</g>
</g>
<path d="m336.37 721.3v33.808q0 2.4 2.4 2.4h7.7425q2.4 0 2.4-2.4v-33.808q0-2.4-2.4-2.4h-7.7425q-2.4 0-2.4 2.4z" clip-path="url(#a)" fill="#fff" stroke="#fff"/>
<g clip-path="url(#a)">
<g transform="translate(340.44 721.3) rotate(90) scale(.08 -.08)">
<use xlink:href="#l"/>
<use x="44.083984" xlink:href="#d"/>
<use x="105.607422" xlink:href="#i"/>
<use x="144.970703" xlink:href="#k"/>
<use x="242.382812" xlink:href="#h"/>
<use x="270.166016" xlink:href="#j"/>
<use x="333.544922" xlink:href="#e"/>
<use x="394.824219" xlink:href="#g"/>
</g>
</g>
<path d="m409.3 588.6 1.3677-4.8665q0.64936-2.3105-1.6611-2.9598l-7.4537-2.0949q-2.3105-0.64936-2.9598 1.6611l-1.3677 4.8665q-0.64936 2.3105 1.6611 2.9598l7.4537 2.0949q2.3105 0.64936 2.9598-1.6611z" clip-path="url(#a)" fill="#fff" stroke="#fff"/>
<g clip-path="url(#a)">
<g transform="translate(405.39 587.5) rotate(-74.302) scale(.08 -.08)">
<use xlink:href="#s"/>
</g>
</g>
<path d="m440.66 583.48 1.5115 5.3779q0.64936 2.3105 2.9598 1.6611l7.4537-2.0949q2.3105-0.64936 1.6611-2.9598l-1.5115-5.3779q-0.64936-2.3105-2.9598-1.6611l-7.4537 2.0949q-2.3105 0.64936-1.6611 2.9598z" clip-path="url(#a)" fill="#fff" stroke="#fff"/>
<g clip-path="url(#a)">
<g transform="translate(444.57 582.38) rotate(74.302) scale(.08 -.08)">
<use xlink:href="#y"/>
</g>
</g>
<path d="m418.11 721.3v33.808q0 2.4 2.4 2.4h7.7425q2.4 0 2.4-2.4v-33.808q0-2.4-2.4-2.4h-7.7425q-2.4 0-2.4 2.4z" clip-path="url(#a)" fill="#fff" stroke="#fff"/>
<g clip-path="url(#a)">
<g transform="translate(422.18 721.3) rotate(90) scale(.08 -.08)">
<use xlink:href="#l"/>
<use x="44.083984" xlink:href="#d"/>
<use x="105.607422" xlink:href="#i"/>
<use x="144.970703" xlink:href="#k"/>
<use x="242.382812" xlink:href="#h"/>
<use x="270.166016" xlink:href="#j"/>
<use x="333.544922" xlink:href="#e"/>
<use x="394.824219" xlink:href="#g"/>
</g>
</g>
<path d="m375.92 721.3v33.808q0 2.4 2.4 2.4h7.7425q2.4 0 2.4-2.4v-33.808q0-2.4-2.4-2.4h-7.7425q-2.4 0-2.4 2.4z" clip-path="url(#a)" fill="#fff" stroke="#fff"/>
<g clip-path="url(#a)">
<g transform="translate(379.99 721.3) rotate(90) scale(.08 -.08)">
<use xlink:href="#l"/>
<use x="44.083984" xlink:href="#d"/>
<use x="105.607422" xlink:href="#i"/>
<use x="144.970703" xlink:href="#k"/>
<use x="242.382812" xlink:href="#h"/>
<use x="270.166016" xlink:href="#j"/>
<use x="333.544922" xlink:href="#e"/>
<use x="394.824219" xlink:href="#g"/>
</g>
</g>
<path d="m462.94 721.3v33.808q0 2.4 2.4 2.4h7.7425q2.4 0 2.4-2.4v-33.808q0-2.4-2.4-2.4h-7.7425q-2.4 0-2.4 2.4z" clip-path="url(#a)" fill="#fff" stroke="#fff"/>
<g clip-path="url(#a)">
<g transform="translate(467 721.3) rotate(90) scale(.08 -.08)">
<use xlink:href="#l"/>
<use x="44.083984" xlink:href="#d"/>
<use x="105.607422" xlink:href="#i"/>
<use x="144.970703" xlink:href="#k"/>
<use x="242.382812" xlink:href="#h"/>
<use x="270.166016" xlink:href="#j"/>
<use x="333.544922" xlink:href="#e"/>
<use x="394.824219" xlink:href="#g"/>
</g>
</g>
<path d="m67.426 721.3v33.808q0 2.4 2.4 2.4h7.7425q2.4 0 2.4-2.4v-33.808q0-2.4-2.4-2.4h-7.7425q-2.4 0-2.4 2.4z" clip-path="url(#a)" fill="#fff" stroke="#fff"/>
<g clip-path="url(#a)">
<g transform="translate(71.489 721.3) rotate(90) scale(.08 -.08)">
<use xlink:href="#l"/>
<use x="44.083984" xlink:href="#d"/>
<use x="105.607422" xlink:href="#i"/>
<use x="144.970703" xlink:href="#k"/>
<use x="242.382812" xlink:href="#h"/>
<use x="270.166016" xlink:href="#j"/>
<use x="333.544922" xlink:href="#e"/>
<use x="394.824219" xlink:href="#g"/>
</g>
</g>
<path d="m75.336 721.3v33.808q0 2.4 2.4 2.4h7.7425q2.4 0 2.4-2.4v-33.808q0-2.4-2.4-2.4h-7.7425q-2.4 0-2.4 2.4z" clip-path="url(#a)" fill="#fff" stroke="#fff"/>
<g clip-path="url(#a)">
<g transform="translate(79.4 721.3) rotate(90) scale(.08 -.08)">
<use xlink:href="#l"/>
<use x="44.083984" xlink:href="#d"/>
<use x="105.607422" xlink:href="#i"/>
<use x="144.970703" xlink:href="#k"/>
<use x="242.382812" xlink:href="#h"/>
<use x="270.166016" xlink:href="#j"/>
<use x="333.544922" xlink:href="#e"/>
<use x="394.824219" xlink:href="#g"/>
</g>
</g>
<path d="m110.71 509.94 0.44712-5.5407q0.19304-2.3922-2.1992-2.5853l-7.7174-0.62277q-2.3922-0.19305-2.5853 2.1992l-0.44712 5.5407q-0.19304 2.3922 2.1992 2.5853l7.7174 0.62277q2.3922 0.19304 2.5853-2.1992z" clip-path="url(#a)" fill="#fff" stroke="#fff"/>
<g clip-path="url(#a)">
<g transform="translate(106.66 509.61) rotate(-85.386) scale(.08 -.08)">
<use xlink:href="#w"/>
</g>
</g>
<path d="m117.44 509.43 0.19309-5.0513q0.091673-2.3982-2.3066-2.4899l-7.7368-0.29574q-2.3982-0.091673-2.4899 2.3066l-0.19309 5.0513q-0.091672 2.3982 2.3066 2.4899l7.7368 0.29574q2.3982 0.091673 2.4899-2.3066z" clip-path="url(#a)" fill="#fff" stroke="#fff"/>
<g clip-path="url(#a)">
<g transform="translate(113.38 509.28) rotate(-87.811) scale(.08 -.08)">
<use xlink:href="#s"/>
</g>
</g>
<path d="m112.87 503.95 0.071172 5.5858q0.030578 2.3998 2.4304 2.3692l7.7419-0.098644q2.3998-0.030577 2.3692-2.4304l-0.071172-5.5858q-0.030577-2.3998-2.4304-2.3692l-7.7419 0.098644q-2.3998 0.030578-2.3692 2.4304z" clip-path="url(#a)" fill="#fff" stroke="#fff"/>
<g clip-path="url(#a)">
<g transform="translate(116.94 503.9) rotate(89.27) scale(.08 -.08)">
<use xlink:href="#y"/>
</g>
</g>
<path d="m127.02 428.09 1.0474 4.9453q0.4973 2.3479 2.8452 1.8506l7.5745-1.6043q2.3479-0.4973 1.8506-2.8452l-1.0474-4.9453q-0.4973-2.3479-2.8452-1.8506l-7.5745 1.6043q-2.3479 0.4973-1.8506 2.8452z" clip-path="url(#a)" fill="#fff" stroke="#fff"/>
<g clip-path="url(#a)">
<g transform="translate(131 427.25) rotate(78.041) scale(.08 -.08)">
<use xlink:href="#s"/>
</g>
</g>
<path d="m85.883 721.3v33.808q0 2.4 2.4 2.4h7.7425q2.4 0 2.4-2.4v-33.808q0-2.4-2.4-2.4h-7.7425q-2.4 0-2.4 2.4z" clip-path="url(#a)" fill="#fff" stroke="#fff"/>
<g clip-path="url(#a)">
<g transform="translate(89.947 721.3) rotate(90) scale(.08 -.08)">
<use xlink:href="#l"/>
<use x="44.083984" xlink:href="#d"/>
<use x="105.607422" xlink:href="#i"/>
<use x="144.970703" xlink:href="#k"/>
<use x="242.382812" xlink:href="#h"/>
<use x="270.166016" xlink:href="#j"/>
<use x="333.544922" xlink:href="#e"/>
<use x="394.824219" xlink:href="#g"/>
</g>
</g>
<path d="m99.067 721.3v33.808q0 2.4 2.4 2.4h7.7425q2.4 0 2.4-2.4v-33.808q0-2.4-2.4-2.4h-7.7425q-2.4 0-2.4 2.4z" clip-path="url(#a)" fill="#fff" stroke="#fff"/>
<g clip-path="url(#a)">
<g transform="translate(103.13 721.3) rotate(90) scale(.08 -.08)">
<use xlink:href="#l"/>
<use x="44.083984" xlink:href="#d"/>
<use x="105.607422" xlink:href="#i"/>
<use x="144.970703" xlink:href="#k"/>
<use x="242.382812" xlink:href="#h"/>
<use x="270.166016" xlink:href="#j"/>
<use x="333.544922" xlink:href="#e"/>
<use x="394.824219" xlink:href="#g"/>
</g>
</g>
<path d="m114.89 721.3v33.808q0 2.4 2.4 2.4h7.7425q2.4 0 2.4-2.4v-33.808q0-2.4-2.4-2.4h-7.7425q-2.4 0-2.4 2.4z" clip-path="url(#a)" fill="#fff" stroke="#fff"/>
<g clip-path="url(#a)">
<g transform="translate(118.95 721.3) rotate(90) scale(.08 -.08)">
<use xlink:href="#l"/>
<use x="44.083984" xlink:href="#d"/>
<use x="105.607422" xlink:href="#i"/>
<use x="144.970703" xlink:href="#k"/>
<use x="242.382812" xlink:href="#h"/>
<use x="270.166016" xlink:href="#j"/>
<use x="333.544922" xlink:href="#e"/>
<use x="394.824219" xlink:href="#g"/>
</g>
</g>
<path d="m150.96 587.67 0.37786-5.5459q0.16314-2.3944-2.2313-2.5576l-7.7246-0.5263q-2.3944-0.16314-2.5576 2.2313l-0.37786 5.5459q-0.16314 2.3944 2.2313 2.5576l7.7246 0.5263q2.3944 0.16314 2.5576-2.2313z" clip-path="url(#a)" fill="#fff" stroke="#fff"/>
<g clip-path="url(#a)">
<g transform="translate(146.9 587.39) rotate(-86.102) scale(.08 -.08)">
<use xlink:href="#w"/>
</g>
</g>
<path d="m148.99 582.11 0.37973 5.5733q0.16314 2.3944 2.5576 2.2313l7.7246-0.5263q2.3944-0.16314 2.2313-2.5576l-0.37973-5.5733q-0.16314-2.3944-2.5576-2.2313l-7.7246 0.5263q-2.3944 0.16314-2.2313 2.5576z" clip-path="url(#a)" fill="#fff" stroke="#fff"/>
<g clip-path="url(#a)">
<g transform="translate(153.04 581.84) rotate(86.102) scale(.08 -.08)">
<use xlink:href="#y"/>
</g>
</g>
<path d="m133.34 721.3v33.808q0 2.4 2.4 2.4h7.7425q2.4 0 2.4-2.4v-33.808q0-2.4-2.4-2.4h-7.7425q-2.4 0-2.4 2.4z" clip-path="url(#a)" fill="#fff" stroke="#fff"/>
<g clip-path="url(#a)">
<g transform="translate(137.41 721.3) rotate(90) scale(.08 -.08)">
<use xlink:href="#l"/>
<use x="44.083984" xlink:href="#d"/>
<use x="105.607422" xlink:href="#i"/>
<use x="144.970703" xlink:href="#k"/>
<use x="242.382812" xlink:href="#h"/>
<use x="270.166016" xlink:href="#j"/>
<use x="333.544922" xlink:href="#e"/>
<use x="394.824219" xlink:href="#g"/>
</g>
</g>
<path d="m154.44 721.3v33.808q0 2.4 2.4 2.4h7.7425q2.4 0 2.4-2.4v-33.808q0-2.4-2.4-2.4h-7.7425q-2.4 0-2.4 2.4z" clip-path="url(#a)" fill="#fff" stroke="#fff"/>
<g clip-path="url(#a)">
<g transform="translate(158.5 721.3) rotate(90) scale(.08 -.08)">
<use xlink:href="#l"/>
<use x="44.083984" xlink:href="#d"/>
<use x="105.607422" xlink:href="#i"/>
<use x="144.970703" xlink:href="#k"/>
<use x="242.382812" xlink:href="#h"/>
<use x="270.166016" xlink:href="#j"/>
<use x="333.544922" xlink:href="#e"/>
<use x="394.824219" xlink:href="#g"/>
</g>
</g>
<path d="m409.53 125.05 8.577-5.3522q2.0361-1.2706 0.76553-3.3067l-4.0989-6.5685q-1.2706-2.0361-3.3067-0.76553l-8.577 5.3522q-2.0361 1.2706-0.76553 3.3067l4.0989 6.5685q1.2706 2.0361 3.3067 0.76553z" clip-path="url(#a)" fill="#fff" stroke="#fff"/>
<g clip-path="url(#a)">
<g transform="translate(407.38 121.6) rotate(-31.965) scale(.08 -.08)">
<use xlink:href="#z"/>
<use x="57.962891" xlink:href="#p"/>
</g>
</g>
<path d="m546.13 345.67 0.53743 10.002q0.12877 2.3965 2.5253 2.2678l7.7313-0.41543q2.3965-0.12877 2.2678-2.5253l-0.53743-10.002q-0.12877-2.3965-2.5253-2.2678l-7.7313 0.41543q-2.3965 0.12877-2.2678 2.5253z" clip-path="url(#a)" fill="#fff" stroke="#fff"/>
<g clip-path="url(#a)">
<g transform="translate(550.19 345.45) rotate(86.924) scale(.08 -.08)">
<use xlink:href="#z"/>
<use x="55.712891" xlink:href="#w"/>
</g>
</g>
<path d="m636.84 119.19 8.2041 5.9081q1.9476 1.4025 3.3501-0.54505l4.5245-6.2829q1.4025-1.9476-0.54505-3.3501l-8.2041-5.9081q-1.9476-1.4025-3.3501 0.54505l-4.5245 6.2829q-1.4025 1.9476 0.54505 3.3501z" clip-path="url(#a)" fill="#fff" stroke="#fff"/>
<g clip-path="url(#a)">
<g transform="translate(639.22 115.89) rotate(35.759) scale(.08 -.08)">
<use xlink:href="#z"/>
<use x="57.962891" xlink:href="#p"/>
</g>
</g>
<path d="m178.17 721.3v33.808q0 2.4 2.4 2.4h7.7425q2.4 0 2.4-2.4v-33.808q0-2.4-2.4-2.4h-7.7425q-2.4 0-2.4 2.4z" clip-path="url(#a)" fill="#fff" stroke="#fff"/>
<g clip-path="url(#a)">
<g transform="translate(182.23 721.3) rotate(90) scale(.08 -.08)">
<use xlink:href="#l"/>
<use x="44.083984" xlink:href="#d"/>
<use x="105.607422" xlink:href="#i"/>
<use x="144.970703" xlink:href="#k"/>
<use x="242.382812" xlink:href="#h"/>
<use x="270.166016" xlink:href="#j"/>
<use x="333.544922" xlink:href="#e"/>
<use x="394.824219" xlink:href="#g"/>
</g>
</g>
<path d="m513.04 721.3v33.808q0 2.4 2.4 2.4h7.7425q2.4 0 2.4-2.4v-33.808q0-2.4-2.4-2.4h-7.7425q-2.4 0-2.4 2.4z" clip-path="url(#a)" fill="#fff" stroke="#fff"/>
<g clip-path="url(#a)">
<g transform="translate(517.1 721.3) rotate(90) scale(.08 -.08)">
<use xlink:href="#l"/>
<use x="44.083984" xlink:href="#d"/>
<use x="105.607422" xlink:href="#i"/>
<use x="144.970703" xlink:href="#k"/>
<use x="242.382812" xlink:href="#h"/>
<use x="270.166016" xlink:href="#j"/>
<use x="333.544922" xlink:href="#e"/>
<use x="394.824219" xlink:href="#g"/>
</g>
</g>
<path d="m1541.4 721.3v33.808q0 2.4 2.4 2.4h7.7425q2.4 0 2.4-2.4v-33.808q0-2.4-2.4-2.4h-7.7425q-2.4 0-2.4 2.4z" clip-path="url(#a)" fill="#fff" stroke="#fff"/>
<g clip-path="url(#a)">
<g transform="translate(1545.4 721.3) rotate(90) scale(.08 -.08)">
<use xlink:href="#l"/>
<use x="44.083984" xlink:href="#d"/>
<use x="105.607422" xlink:href="#i"/>
<use x="144.970703" xlink:href="#k"/>
<use x="242.382812" xlink:href="#h"/>
<use x="270.166016" xlink:href="#j"/>
<use x="333.544922" xlink:href="#e"/>
<use x="394.824219" xlink:href="#g"/>
</g>
</g>
<defs>
<path id="b" d="m0 8.6603c2.2967 0 4.4997-0.9125 6.1237-2.5365 1.624-1.624 2.5365-3.827 2.5365-6.1237s-0.9125-4.4997-2.5365-6.1237c-1.624-1.624-3.827-2.5365-6.1237-2.5365s-4.4997 0.9125-6.1237 2.5365c-1.624 1.624-2.5365 3.827-2.5365 6.1237s0.9125 4.4997 2.5365 6.1237c1.624 1.624 3.827 2.5365 6.1237 2.5365z"/>
</defs>
<g clip-path="url(#a)">
<use x="73.69697" y="814.545455" fill="#ffffff" stroke="#ffffff" xlink:href="#b"/>
<use x="81.607199" y="814.545455" fill="#ffffff" stroke="#ffffff" xlink:href="#b"/>
<use x="92.154171" y="814.545455" fill="#ffffff" stroke="#ffffff" xlink:href="#b"/>
<use x="105.337887" y="814.545455" fill="#ffffff" stroke="#ffffff" xlink:href="#b"/>
<use x="121.158346" y="814.545455" fill="#ffffff" stroke="#ffffff" xlink:href="#b"/>
<use x="139.615547" y="814.545455" fill="#ffffff" stroke="#ffffff" xlink:href="#b"/>
<use x="160.709492" y="814.545455" fill="#ffffff" stroke="#ffffff" xlink:href="#b"/>
<use x="184.44018" y="814.545455" fill="#ffffff" stroke="#ffffff" xlink:href="#b"/>
<use x="210.807611" y="814.545455" fill="#ffffff" stroke="#ffffff" xlink:href="#b"/>
<use x="239.811785" y="814.545455" fill="#ffffff" stroke="#ffffff" xlink:href="#b"/>
<use x="271.452702" y="814.545455" fill="#ffffff" stroke="#ffffff" xlink:href="#b"/>
<use x="305.730363" y="814.545455" fill="#ffffff" stroke="#ffffff" xlink:href="#b"/>
<use x="342.644766" y="814.545455" fill="#ffffff" stroke="#ffffff" xlink:href="#b"/>
<use x="382.195913" y="814.545455" fill="#ffffff" stroke="#ffffff" xlink:href="#b"/>
<use x="424.383802" y="814.545455" fill="#ffffff" stroke="#ffffff" xlink:href="#b"/>
<use x="469.208435" y="814.545455" fill="#ffffff" stroke="#ffffff" xlink:href="#b"/>
<use x="519.306554" y="814.545455" fill="#ffffff" stroke="#ffffff" xlink:href="#b"/>
<use x="569.404673" y="814.545455" fill="#ffffff" stroke="#ffffff" xlink:href="#b"/>
<use x="622.139535" y="814.545455" fill="#ffffff" stroke="#ffffff" xlink:href="#b"/>
<use x="677.51114" y="814.545455" fill="#ffffff" stroke="#ffffff" xlink:href="#b"/>
<use x="735.519488" y="814.545455" fill="#ffffff" stroke="#ffffff" xlink:href="#b"/>
<use x="796.16458" y="814.545455" fill="#ffffff" stroke="#ffffff" xlink:href="#b"/>
<use x="859.446414" y="814.545455" fill="#ffffff" stroke="#ffffff" xlink:href="#b"/>
<use x="925.364992" y="814.545455" fill="#ffffff" stroke="#ffffff" xlink:href="#b"/>
<use x="993.920312" y="814.545455" fill="#ffffff" stroke="#ffffff" xlink:href="#b"/>
<use x="1065.112376" y="814.545455" fill="#ffffff" stroke="#ffffff" xlink:href="#b"/>
<use x="1138.941183" y="814.545455" fill="#ffffff" stroke="#ffffff" xlink:href="#b"/>
<use x="1215.406733" y="814.545455" fill="#ffffff" stroke="#ffffff" xlink:href="#b"/>
<use x="1294.509026" y="814.545455" fill="#ffffff" stroke="#ffffff" xlink:href="#b"/>
<use x="1376.248062" y="814.545455" fill="#ffffff" stroke="#ffffff" xlink:href="#b"/>
<use x="1460.623841" y="814.545455" fill="#ffffff" stroke="#ffffff" xlink:href="#b"/>
<use x="1547.636364" y="814.545455" fill="#ffffff" stroke="#ffffff" xlink:href="#b"/>
<use x="471.845178" y="507.072715" fill="#ffffff" stroke="#ffffff" xlink:href="#b"/>
<use x="452.126246" y="38.787879" fill="#ffffff" stroke="#ffffff" xlink:href="#b"/>
<use x="133.551038" y="195.322692" fill="#ffffff" stroke="#ffffff" xlink:href="#b"/>
<use x="285.075875" y="195.322692" fill="#ffffff" stroke="#ffffff" xlink:href="#b"/>
<use x="569.404673" y="661.87102" fill="#ffffff" stroke="#ffffff" xlink:href="#b"/>
<use x="753.29309" y="195.322692" fill="#ffffff" stroke="#ffffff" xlink:href="#b"/>
<use x="622.139535" y="661.87102" fill="#ffffff" stroke="#ffffff" xlink:href="#b"/>
<use x="677.51114" y="661.87102" fill="#ffffff" stroke="#ffffff" xlink:href="#b"/>
<use x="960.228595" y="351.462508" fill="#ffffff" stroke="#ffffff" xlink:href="#b"/>
<use x="735.519488" y="661.87102" fill="#ffffff" stroke="#ffffff" xlink:href="#b"/>
<use x="796.16458" y="661.87102" fill="#ffffff" stroke="#ffffff" xlink:href="#b"/>
<use x="859.446414" y="661.87102" fill="#ffffff" stroke="#ffffff" xlink:href="#b"/>
<use x="925.364992" y="661.87102" fill="#ffffff" stroke="#ffffff" xlink:href="#b"/>
<use x="1065.99129" y="507.072715" fill="#ffffff" stroke="#ffffff" xlink:href="#b"/>
<use x="1378.884805" y="507.072715" fill="#ffffff" stroke="#ffffff" xlink:href="#b"/>
<use x="1215.406733" y="661.87102" fill="#ffffff" stroke="#ffffff" xlink:href="#b"/>
<use x="1294.509026" y="661.87102" fill="#ffffff" stroke="#ffffff" xlink:href="#b"/>
<use x="1376.248062" y="661.87102" fill="#ffffff" stroke="#ffffff" xlink:href="#b"/>
<use x="1460.623841" y="661.87102" fill="#ffffff" stroke="#ffffff" xlink:href="#b"/>
<use x="993.920312" y="661.87102" fill="#ffffff" stroke="#ffffff" xlink:href="#b"/>
<use x="1065.112376" y="661.87102" fill="#ffffff" stroke="#ffffff" xlink:href="#b"/>
<use x="1138.941183" y="661.87102" fill="#ffffff" stroke="#ffffff" xlink:href="#b"/>
<use x="210.807611" y="661.87102" fill="#ffffff" stroke="#ffffff" xlink:href="#b"/>
<use x="239.811785" y="661.87102" fill="#ffffff" stroke="#ffffff" xlink:href="#b"/>
<use x="271.452702" y="661.87102" fill="#ffffff" stroke="#ffffff" xlink:href="#b"/>
<use x="305.730363" y="661.87102" fill="#ffffff" stroke="#ffffff" xlink:href="#b"/>
<use x="397.576914" y="351.462508" fill="#ffffff" stroke="#ffffff" xlink:href="#b"/>
<use x="342.644766" y="661.87102" fill="#ffffff" stroke="#ffffff" xlink:href="#b"/>
<use x="425.702174" y="507.072715" fill="#ffffff" stroke="#ffffff" xlink:href="#b"/>
<use x="424.383802" y="661.87102" fill="#ffffff" stroke="#ffffff" xlink:href="#b"/>
<use x="382.195913" y="661.87102" fill="#ffffff" stroke="#ffffff" xlink:href="#b"/>
<use x="469.208435" y="661.87102" fill="#ffffff" stroke="#ffffff" xlink:href="#b"/>
<use x="73.69697" y="661.87102" fill="#ffffff" stroke="#ffffff" xlink:href="#b"/>
<use x="81.607199" y="661.87102" fill="#ffffff" stroke="#ffffff" xlink:href="#b"/>
<use x="117.203231" y="351.462508" fill="#ffffff" stroke="#ffffff" xlink:href="#b"/>
<use x="92.154171" y="661.87102" fill="#ffffff" stroke="#ffffff" xlink:href="#b"/>
<use x="105.337887" y="661.87102" fill="#ffffff" stroke="#ffffff" xlink:href="#b"/>
<use x="121.158346" y="661.87102" fill="#ffffff" stroke="#ffffff" xlink:href="#b"/>
<use x="150.16252" y="507.072715" fill="#ffffff" stroke="#ffffff" xlink:href="#b"/>
<use x="139.615547" y="661.87102" fill="#ffffff" stroke="#ffffff" xlink:href="#b"/>
<use x="160.709492" y="661.87102" fill="#ffffff" stroke="#ffffff" xlink:href="#b"/>
<use x="535.924546" y="38.787879" fill="#808080" stroke="#808080" xlink:href="#b"/>
<use x="184.44018" y="661.87102" fill="#ffffff" stroke="#ffffff" xlink:href="#b"/>
<use x="519.306554" y="661.87102" fill="#ffffff" stroke="#ffffff" xlink:href="#b"/>
<use x="1547.636364" y="661.87102" fill="#ffffff" stroke="#ffffff" xlink:href="#b"/>
</g>
<g clip-path="url(#a)">
<defs>
<path id="at" d="m3.3281 72.906h9.9531l15.328-61.625 15.281 61.625h11.094l15.328-61.625 15.281 61.625h10.016l-18.312-72.906h-12.406l-15.375 63.281-15.531-63.281h-12.406z"/>
</defs>
<g transform="translate(63.192 817.3) scale(.1 -.1)">
<use xlink:href="#at"/>
<use x="93.001953" xlink:href="#d"/>
<use x="154.525391" xlink:href="#g"/>
<use x="182.308594" xlink:href="#g"/>
</g>
</g>
<g clip-path="url(#a)">
<defs>
<path id="ar" d="m2.9844 54.688h9.5156l17.094-45.891 17.094 45.891h9.5156l-20.516-54.688h-12.203z"/>
<path id="t" d="m44.281 53.078v-8.5q-3.7969 1.9531-7.9062 2.9219-4.0938 0.98438-8.5 0.98438-6.6875 0-10.031-2.0469t-3.3438-6.1562q0-3.125 2.3906-4.9062t9.625-3.3906l3.0781-0.6875q9.5625-2.0469 13.594-5.7812t4.0312-10.422q0-7.625-6.0312-12.078-6.0312-4.4375-16.578-4.4375-4.3906 0-9.1562 0.85938t-10.031 2.5625v9.2812q4.9844-2.5938 9.8125-3.8906 4.8281-1.2812 9.5781-1.2812 6.3438 0 9.75 2.1719 3.4219 2.1719 3.4219 6.125 0 3.6562-2.4688 5.6094-2.4531 1.9531-10.812 3.7656l-3.125 0.73438q-8.3438 1.75-12.062 5.3906-3.7031 3.6406-3.7031 9.9844 0 7.7188 5.4688 11.906 5.4688 4.2031 15.531 4.2031 4.9688 0 9.3594-0.73438 4.4062-0.71875 8.1094-2.1875z"/>
<path id="ac" d="m45.406 46.391v29.594h8.9844v-75.984h-8.9844v8.2031q-2.8281-4.875-7.1562-7.25-4.3125-2.375-10.375-2.375-9.9062 0-16.141 7.9062-6.2188 7.9219-6.2188 20.812t6.2188 20.797q6.2344 7.9062 16.141 7.9062 6.0625 0 10.375-2.375 4.3281-2.3594 7.1562-7.2344zm-30.609-19.094q0-9.9062 4.0781-15.547t11.203-5.6406 11.219 5.6406q4.1094 5.6406 4.1094 15.547t-4.1094 15.547q-4.0938 5.6406-11.219 5.6406t-11.203-5.6406-4.0781-15.547z"/>
</defs>
<g transform="translate(64.66 817.3) scale(.1 -.1)">
<use xlink:href="#ar"/>
<use x="59.179688" xlink:href="#d"/>
<use x="120.703125" xlink:href="#i"/>
<use x="161.816406" xlink:href="#t"/>
<use x="213.916016" xlink:href="#d"/>
<use x="275.439453" xlink:href="#ac"/>
</g>
</g>
<g clip-path="url(#a)">
<g transform="translate(87.596 817.3) scale(.1 -.1)">
<use xlink:href="#h"/>
<use x="27.783203" xlink:href="#j"/>
</g>
</g>
<g clip-path="url(#a)">
<defs>
<path id="q" d="m18.312 70.219v-15.531h18.5v-6.9844h-18.5v-29.688q0-6.6875 1.8281-8.5938t7.4531-1.9062h9.2188v-7.5156h-9.2188q-10.406 0-14.359 3.875-3.9531 3.8906-3.9531 14.141v29.688h-6.5938v6.9844h6.5938v15.531z"/>
<path id="u" d="m54.891 33.016v-33.016h-8.9844v32.719q0 7.7656-3.0312 11.609-3.0312 3.8594-9.0781 3.8594-7.2812 0-11.484-4.6406-4.2031-4.625-4.2031-12.641v-30.906h-9.0312v75.984h9.0312v-29.797q3.2344 4.9375 7.5938 7.375 4.375 2.4375 10.094 2.4375 9.4219 0 14.25-5.8281 4.8438-5.8281 4.8438-17.156z"/>
</defs>
<g transform="translate(97.132 817.3) scale(.1 -.1)">
<use xlink:href="#q"/>
<use x="39.208984" xlink:href="#u"/>
<use x="102.587891" xlink:href="#d"/>
</g>
</g>
<g clip-path="url(#a)">
<defs>
<path id="r" d="m30.609 48.391q-7.2188 0-11.422-5.6406t-4.2031-15.453 4.1719-15.453q4.1875-5.6406 11.453-5.6406 7.1875 0 11.375 5.6562 4.2031 5.6719 4.2031 15.438 0 9.7188-4.2031 15.406-4.1875 5.6875-11.375 5.6875zm0 7.6094q11.719 0 18.406-7.625 6.7031-7.6094 6.7031-21.078 0-13.422-6.7031-21.078-6.6875-7.6406-18.406-7.6406-11.766 0-18.438 7.6406-6.6562 7.6562-6.6562 21.078 0 13.469 6.6562 21.078 6.6719 7.625 18.438 7.625z"/>
<path id="aq" d="m32.172-5.0781q-3.7969-9.7656-7.4219-12.734-3.6094-2.9844-9.6562-2.9844h-7.1875v7.5156h5.2812q3.7031 0 5.75 1.7656 2.0625 1.75 4.5469 8.2969l1.6094 4.0938-22.109 53.812h9.5156l17.094-42.766 17.094 42.766h9.5156z"/>
</defs>
<g transform="translate(104.88 817.3) scale(.1 -.1)">
<use xlink:href="#q"/>
<use x="39.208984" xlink:href="#u"/>
<use x="102.587891" xlink:href="#d"/>
<use x="164.111328" xlink:href="#r"/>
<use x="225.292969" xlink:href="#i"/>
<use x="266.40625" xlink:href="#aq"/>
</g>
</g>
<g clip-path="url(#a)">
<defs>
<path id="an" d="m37.109 75.984v-7.4844h-8.5938q-4.8281 0-6.7188-1.9531-1.875-1.9531-1.875-7.0312v-4.8281h14.797v-6.9844h-14.797v-47.703h-9.0312v47.703h-8.5938v6.9844h8.5938v3.8125q0 9.125 4.25 13.297 4.25 4.1875 13.469 4.1875z"/>
</defs>
<g transform="translate(134.8 817.3) scale(.1 -.1)">
<use xlink:href="#r"/>
<use x="61.181641" xlink:href="#an"/>
</g>
</g>
<g clip-path="url(#a)">
<defs>
<path id="v" d="m48.781 52.594v-8.4062q-3.8125 2.1094-7.6406 3.1562t-7.7344 1.0469q-8.75 0-13.594-5.5469-4.8281-5.5312-4.8281-15.547t4.8281-15.562q4.8438-5.5312 13.594-5.5312 3.9062 0 7.7344 1.0469t7.6406 3.1562v-8.3125q-3.7656-1.75-7.7969-2.625-4.0156-0.89062-8.5625-0.89062-12.359 0-19.641 7.7656-7.2656 7.7656-7.2656 20.953 0 13.375 7.3438 21.031 7.3594 7.6719 20.156 7.6719 4.1406 0 8.0938-0.85938 3.9531-0.84375 7.6719-2.5469z"/>
</defs>
<g transform="translate(128.37 817.3) scale(.1 -.1)">
<use xlink:href="#v"/>
<use x="54.980469" xlink:href="#g"/>
<use x="82.763672" xlink:href="#e"/>
<use x="144.042969" xlink:href="#t"/>
<use x="196.142578" xlink:href="#t"/>
<use x="248.242188" xlink:href="#h"/>
<use x="276.025391" xlink:href="#an"/>
<use x="311.230469" xlink:href="#h"/>
<use x="339.013672" xlink:href="#v"/>
<use x="393.994141" xlink:href="#e"/>
<use x="455.273438" xlink:href="#q"/>
<use x="494.482422" xlink:href="#h"/>
<use x="522.265625" xlink:href="#r"/>
<use x="583.447266" xlink:href="#j"/>
</g>
</g>
<g clip-path="url(#a)">
<defs>
<path id="ap" d="m11.719 12.406h10.297v-8.4062l-8-15.625h-6.2969l4 15.625z"/>
</defs>
<g transform="translate(182.85 817.3) scale(.1 -.1)">
<use xlink:href="#ap"/>
</g>
</g>
<g clip-path="url(#a)">
<g transform="translate(204.56 817.3) scale(.1 -.1)">
<use xlink:href="#u"/>
<use x="63.378906" xlink:href="#d"/>
</g>
</g>
<g clip-path="url(#a)">
<defs>
<path id="am" d="m4.2031 54.688h8.9844l11.234-42.672 11.172 42.672h10.594l11.234-42.672 11.188 42.672h8.9844l-14.312-54.688h-10.594l-11.766 44.828-11.812-44.828h-10.609z"/>
</defs>
<g transform="translate(230.05 817.3) scale(.1 -.1)">
<use xlink:href="#am"/>
<use x="81.787109" xlink:href="#e"/>
<use x="143.066406" xlink:href="#t"/>
</g>
</g>
<g clip-path="url(#a)">
<defs>
<path id="ab" d="m18.109 8.2031v-29h-9.0312v75.484h9.0312v-8.2969q2.8438 4.875 7.1562 7.2344 4.3281 2.375 10.328 2.375 9.9688 0 16.188-7.9062 6.2344-7.9062 6.2344-20.797t-6.2344-20.812q-6.2188-7.9062-16.188-7.9062-6 0-10.328 2.375-4.3125 2.375-7.1562 7.25zm30.578 19.094q0 9.9062-4.0781 15.547t-11.203 5.6406q-7.1406 0-11.219-5.6406t-4.0781-15.547 4.0781-15.547 11.219-5.6406q7.125 0 11.203 5.6406t4.0781 15.547z"/>
</defs>
<g transform="translate(255.76 817.3) scale(.1 -.1)">
<use xlink:href="#ab"/>
<use x="63.476562" xlink:href="#r"/>
<use x="124.658203" xlink:href="#r"/>
<use x="185.839844" xlink:href="#i"/>
<use x="226.953125" xlink:href="#g"/>
<use x="254.736328" xlink:href="#aq"/>
</g>
</g>
<g clip-path="url(#a)">
<g transform="translate(288.78 817.3) scale(.1 -.1)">
<use xlink:href="#ar"/>
<use x="59.179688" xlink:href="#d"/>
<use x="120.703125" xlink:href="#i"/>
<use x="161.816406" xlink:href="#t"/>
<use x="213.916016" xlink:href="#d"/>
<use x="275.439453" xlink:href="#ac"/>
</g>
</g>
<g clip-path="url(#a)">
<g transform="translate(338.09 817.3) scale(.1 -.1)">
<use xlink:href="#h"/>
<use x="27.783203" xlink:href="#j"/>
</g>
</g>
<g clip-path="url(#a)">
<g transform="translate(376.24 817.3) scale(.1 -.1)">
<use xlink:href="#h"/>
<use x="27.783203" xlink:href="#q"/>
<use x="66.992188" xlink:href="#t"/>
</g>
</g>
<g clip-path="url(#a)">
<g transform="translate(402.79 817.3) scale(.1 -.1)">
<use xlink:href="#ab"/>
<use x="63.476562" xlink:href="#i"/>
<use x="104.589844" xlink:href="#e"/>
<use x="165.869141" xlink:href="#v"/>
<use x="220.849609" xlink:href="#q"/>
<use x="260.058594" xlink:href="#h"/>
<use x="287.841797" xlink:href="#v"/>
<use x="342.822266" xlink:href="#e"/>
<use x="404.101562" xlink:href="#g"/>
</g>
</g>
<g clip-path="url(#a)">
<g transform="translate(441.63 817.3) scale(.1 -.1)">
<use xlink:href="#e"/>
<use x="61.279297" xlink:href="#ab"/>
<use x="124.755859" xlink:href="#ab"/>
<use x="188.232422" xlink:href="#g"/>
<use x="216.015625" xlink:href="#h"/>
<use x="243.798828" xlink:href="#v"/>
<use x="298.779297" xlink:href="#e"/>
<use x="360.058594" xlink:href="#q"/>
<use x="399.267578" xlink:href="#h"/>
<use x="427.050781" xlink:href="#r"/>
<use x="488.232422" xlink:href="#j"/>
</g>
</g>
<g clip-path="url(#a)">
<g transform="translate(517.72 817.3) scale(.1 -.1)">
<use xlink:href="#ap"/>
</g>
</g>
<g clip-path="url(#a)">
<g transform="translate(560 817.3) scale(.1 -.1)">
<use xlink:href="#e"/>
<use x="61.279297" xlink:href="#j"/>
<use x="124.658203" xlink:href="#ac"/>
</g>
</g>
<g clip-path="url(#a)">
<defs>
<path id="ad" d="m9.8125 72.906h9.8594v-72.906h-9.8594z"/>
</defs>
<g transform="translate(620.66 817.3) scale(.1 -.1)">
<use xlink:href="#ad"/>
</g>
</g>
<g clip-path="url(#a)">
<defs>
<path id="as" d="m8.5 21.578v33.109h8.9844v-32.766q0-7.7656 3.0156-11.656 3.0312-3.875 9.0938-3.875 7.2656 0 11.484 4.6406 4.2344 4.6406 4.2344 12.656v31h8.9844v-54.688h-8.9844v8.4062q-3.2656-4.9844-7.5938-7.4062-4.3125-2.4219-10.031-2.4219-9.4219 0-14.312 5.8594-4.875 5.8594-4.875 17.141z"/>
<path id="ao" d="m48.688 27.297q0 9.9062-4.0781 15.547t-11.203 5.6406q-7.1406 0-11.219-5.6406t-4.0781-15.547 4.0781-15.547 11.219-5.6406q7.125 0 11.203 5.6406t4.0781 15.547zm-30.578 19.094q2.8438 4.875 7.1562 7.2344 4.3281 2.375 10.328 2.375 9.9688 0 16.188-7.9062 6.2344-7.9062 6.2344-20.797t-6.2344-20.812q-6.2188-7.9062-16.188-7.9062-6 0-10.328 2.375-4.3125 2.375-7.1562 7.25v-8.2031h-9.0312v75.984h9.0312z"/>
</defs>
<g transform="translate(662.97 817.3) scale(.1 -.1)">
<use xlink:href="#ac"/>
<use x="63.476562" xlink:href="#r"/>
<use x="124.658203" xlink:href="#as"/>
<use x="188.037109" xlink:href="#ao"/>
<use x="251.513672" xlink:href="#q"/>
</g>
</g>
<g clip-path="url(#a)">
<g transform="translate(725.37 817.3) scale(.1 -.1)">
<use xlink:href="#q"/>
<use x="39.208984" xlink:href="#u"/>
<use x="102.587891" xlink:href="#e"/>
<use x="163.867188" xlink:href="#q"/>
</g>
</g>
<g clip-path="url(#a)">
<g transform="translate(789.92 817.3) scale(.1 -.1)">
<use xlink:href="#u"/>
<use x="63.378906" xlink:href="#d"/>
</g>
</g>
<g clip-path="url(#a)">
<g transform="translate(845.91 817.3) scale(.1 -.1)">
<use xlink:href="#v"/>
<use x="54.980469" xlink:href="#r"/>
<use x="116.162109" xlink:href="#as"/>
<use x="179.541016" xlink:href="#g"/>
<use x="207.324219" xlink:href="#ac"/>
</g>
</g>
<g clip-path="url(#a)">
<g transform="translate(917.55 817.3) scale(.1 -.1)">
<use xlink:href="#q"/>
<use x="39.208984" xlink:href="#d"/>
<use x="100.732422" xlink:href="#g"/>
<use x="128.515625" xlink:href="#g"/>
</g>
</g>
<g clip-path="url(#a)">
<g transform="translate(990.86 817.3) scale(.1 -.1)">
<use xlink:href="#e"/>
</g>
</g>
<g clip-path="url(#a)">
<g transform="translate(1049.4 817.3) scale(.1 -.1)">
<use xlink:href="#t"/>
<use x="52.099609" xlink:href="#ab"/>
<use x="115.576172" xlink:href="#d"/>
<use x="177.099609" xlink:href="#i"/>
<use x="216.462891" xlink:href="#k"/>
</g>
</g>
<g clip-path="url(#a)">
<g transform="translate(1124.2 817.3) scale(.1 -.1)">
<use xlink:href="#am"/>
<use x="81.787109" xlink:href="#u"/>
<use x="145.166016" xlink:href="#e"/>
<use x="206.445312" xlink:href="#g"/>
<use x="234.228516" xlink:href="#d"/>
</g>
</g>
<g clip-path="url(#a)">
<g transform="translate(1203.8 817.3) scale(.1 -.1)">
<use xlink:href="#an"/>
<use x="35.205078" xlink:href="#i"/>
<use x="74.068359" xlink:href="#r"/>
<use x="135.25" xlink:href="#k"/>
</g>
</g>
<g clip-path="url(#a)">
<g transform="translate(1291.4 817.3) scale(.1 -.1)">
<use xlink:href="#e"/>
</g>
</g>
<g clip-path="url(#a)">
<g transform="translate(1359.3 817.3) scale(.1 -.1)">
<use xlink:href="#ao"/>
<use x="63.476562" xlink:href="#e"/>
<use x="124.755859" xlink:href="#g"/>
<use x="152.539062" xlink:href="#d"/>
<use x="214.0625" xlink:href="#d"/>
<use x="275.585938" xlink:href="#j"/>
</g>
</g>
<g clip-path="url(#a)">
<g transform="translate(1445.8 817.3) scale(.1 -.1)">
<use xlink:href="#am"/>
<use x="81.787109" xlink:href="#u"/>
<use x="145.166016" xlink:href="#e"/>
<use x="206.445312" xlink:href="#g"/>
<use x="234.228516" xlink:href="#d"/>
</g>
</g>
<g clip-path="url(#a)">
<defs>
<path id="aw" d="m15.094 12.406h9.9062v-12.406h-9.9062zm0 60.5h9.9062v-31.984l-0.96875-17.438h-7.9219l-1.0156 17.438z"/>
</defs>
<g transform="translate(1545.6 817.3) scale(.1 -.1)">
<use xlink:href="#aw"/>
</g>
</g>
<g clip-path="url(#a)">
<defs>
<path id="au" d="m9.8125 72.906h14.703l18.594-49.609 18.703 49.609h14.703v-72.906h-9.625v64.016l-18.797-50h-9.9062l-18.797 50v-64.016h-9.5781z"/>
</defs>
<g transform="translate(450.76 509.83) scale(.1 -.1)">
<use xlink:href="#ad"/>
<use x="29.492188" xlink:href="#au"/>
<use x="115.771484" xlink:href="#x"/>
<use x="176.074219" xlink:href="#z"/>
<use x="231.787109" xlink:href="#ad"/>
<use x="261.279297" xlink:href="#y"/>
<use x="331.103516" xlink:href="#ad"/>
<use x="360.595703" xlink:href="#l"/>
</g>
</g>
<g clip-path="url(#a)">
<defs>
<path id="c" d="m12.406 8.2969h16.109v55.625l-17.531-3.5156v8.9844l17.438 3.5156h9.8594v-64.609h16.109v-8.2969h-41.984z"/>
<path id="f" d="m10.688 12.406h10.312v-12.406h-10.312z"/>
</defs>
<g transform="translate(444.17 41.547) scale(.1 -.1)">
<use xlink:href="#c"/>
<use x="63.623047" xlink:href="#f"/>
<use x="95.410156" xlink:href="#c"/>
</g>
</g>
<g clip-path="url(#a)">
<defs>
<path id="o" d="m19.188 8.2969h34.422v-8.2969h-46.281v8.2969q5.6094 5.8125 15.297 15.594 9.7031 9.7969 12.188 12.641 4.7344 5.3125 6.6094 9 1.8906 3.6875 1.8906 7.25 0 5.8125-4.0781 9.4688-4.0781 3.6719-10.625 3.6719-4.6406 0-9.7969-1.6094-5.1406-1.6094-11-4.8906v9.9688q5.9531 2.3906 11.125 3.6094 5.1875 1.2188 9.4844 1.2188 11.328 0 18.062-5.6719 6.7344-5.6562 6.7344-15.125 0-4.5-1.6875-8.5312-1.6719-4.0156-6.125-9.4844-1.2188-1.4219-7.7656-8.1875-6.5312-6.7656-18.453-18.922z"/>
</defs>
<g transform="translate(125.6 198.08) scale(.1 -.1)">
<use xlink:href="#c"/>
<use x="63.623047" xlink:href="#f"/>
<use x="95.410156" xlink:href="#o"/>
</g>
</g>
<g clip-path="url(#a)">
<defs>
<path id="n" d="m40.578 39.312q7.0781-1.5156 11.047-6.3125 3.9844-4.7812 3.9844-11.812 0-10.781-7.4219-16.703-7.4219-5.9062-21.094-5.9062-4.5781 0-9.4375 0.90625t-10.031 2.7188v9.5156q4.0938-2.3906 8.9688-3.6094 4.8906-1.2188 10.219-1.2188 9.2656 0 14.125 3.6562t4.8594 10.641q0 6.4531-4.5156 10.078-4.5156 3.6406-12.562 3.6406h-8.5v8.1094h8.8906q7.2656 0 11.125 2.9062t3.8594 8.375q0 5.6094-3.9844 8.6094-3.9688 3.0156-11.391 3.0156-4.0625 0-8.7031-0.89062-4.6406-0.875-10.203-2.7188v8.7812q5.625 1.5625 10.531 2.3438t9.25 0.78125q11.234 0 17.766-5.1094 6.5469-5.0938 6.5469-13.781 0-6.0625-3.4688-10.234t-9.8594-5.7812z"/>
</defs>
<g transform="translate(277.12 198.08) scale(.1 -.1)">
<use xlink:href="#c"/>
<use x="63.623047" xlink:href="#f"/>
<use x="95.410156" xlink:href="#n"/>
</g>
</g>
<g clip-path="url(#a)">
<defs>
<path id="m" d="m37.797 64.312-24.906-38.922h24.906zm-2.5938 8.5938h12.406v-47.516h10.406v-8.2031h-10.406v-17.188h-9.8125v17.188h-32.906v9.5156z"/>
</defs>
<g transform="translate(561.45 664.63) scale(.1 -.1)">
<use xlink:href="#c"/>
<use x="63.623047" xlink:href="#f"/>
<use x="95.410156" xlink:href="#m"/>
</g>
</g>
<g clip-path="url(#a)">
<defs>
<path id="aa" d="m10.797 72.906h38.719v-8.3125h-29.688v-17.859q2.1406 0.73438 4.2812 1.0938 2.1562 0.35938 4.3125 0.35938 12.203 0 19.328-6.6875 7.1406-6.6875 7.1406-18.109 0-11.766-7.3281-18.297-7.3281-6.5156-20.656-6.5156-4.5938 0-9.3594 0.78125-4.75 0.78125-9.8281 2.3438v9.9219q4.3906-2.3906 9.0781-3.5625t9.9062-1.1719q8.4531 0 13.375 4.4375 4.9375 4.4375 4.9375 12.062 0 7.6094-4.9375 12.047-4.9219 4.4531-13.375 4.4531-3.9531 0-7.8906-0.875-3.9219-0.875-8.0156-2.7344z"/>
</defs>
<g transform="translate(745.34 198.08) scale(.1 -.1)">
<use xlink:href="#c"/>
<use x="63.623047" xlink:href="#f"/>
<use x="95.410156" xlink:href="#aa"/>
</g>
</g>
<g clip-path="url(#a)">
<defs>
<path id="af" d="m31.781 34.625q-7.0312 0-11.062-3.7656-4.0156-3.7656-4.0156-10.344 0-6.5938 4.0156-10.359 4.0312-3.7656 11.062-3.7656t11.078 3.7812q4.0625 3.7969 4.0625 10.344 0 6.5781-4.0312 10.344-4.0156 3.7656-11.109 3.7656zm-9.8594 4.1875q-6.3438 1.5625-9.8906 5.9062-3.5312 4.3594-3.5312 10.609 0 8.7344 6.2188 13.812 6.2344 5.0781 17.062 5.0781 10.891 0 17.094-5.0781t6.2031-13.812q0-6.25-3.5469-10.609-3.5312-4.3438-9.8281-5.9062 7.125-1.6562 11.094-6.5 3.9844-4.8281 3.9844-11.797 0-10.609-6.4688-16.281-6.4688-5.6562-18.531-5.6562-12.047 0-18.531 5.6562-6.4688 5.6719-6.4688 16.281 0 6.9688 4 11.797 4.0156 4.8438 11.141 6.5zm-3.6094 15.578q0-5.6562 3.5312-8.8281 3.5469-3.1719 9.9375-3.1719 6.3594 0 9.9375 3.1719 3.5938 3.1719 3.5938 8.8281 0 5.6719-3.5938 8.8438-3.5781 3.1719-9.9375 3.1719-6.3906 0-9.9375-3.1719-3.5312-3.1719-3.5312-8.8438z"/>
</defs>
<g transform="translate(614.19 664.63) scale(.1 -.1)">
<use xlink:href="#c"/>
<use x="63.623047" xlink:href="#f"/>
<use x="95.410156" xlink:href="#af"/>
</g>
</g>
<g clip-path="url(#a)">
<defs>
<path id="al" d="m10.984 1.5156v8.9844q3.7188-1.7656 7.5156-2.6875 3.8125-0.92188 7.4844-0.92188 9.7656 0 14.906 6.5625 5.1562 6.5625 5.8906 19.953-2.8281-4.2031-7.1875-6.4531-4.3438-2.25-9.6094-2.25-10.938 0-17.312 6.6094-6.375 6.625-6.375 18.109 0 11.219 6.6406 18 6.6406 6.7969 17.672 6.7969 12.656 0 19.312-9.7031 6.6719-9.6875 6.6719-28.141 0-17.234-8.1875-27.516-8.1719-10.281-21.984-10.281-3.7188 0-7.5312 0.73438-3.7969 0.73438-7.9062 2.2031zm19.625 30.906q6.6406 0 10.516 4.5312 3.8906 4.5469 3.8906 12.469 0 7.8594-3.8906 12.422-3.875 4.5625-10.516 4.5625t-10.516-4.5625-3.875-12.422q0-7.9219 3.875-12.469 3.875-4.5312 10.516-4.5312z"/>
</defs>
<g transform="translate(669.56 664.63) scale(.1 -.1)">
<use xlink:href="#c"/>
<use x="63.623047" xlink:href="#f"/>
<use x="95.410156" xlink:href="#al"/>
</g>
</g>
<g clip-path="url(#a)">
<defs>
<path id="ai" d="m31.781 66.406q-7.6094 0-11.453-7.5-3.8281-7.4844-3.8281-22.531 0-14.984 3.8281-22.484 3.8438-7.5 11.453-7.5 7.6719 0 11.5 7.5 3.8438 7.5 3.8438 22.484 0 15.047-3.8438 22.531-3.8281 7.5-11.5 7.5zm0 7.8125q12.266 0 18.734-9.7031 6.4688-9.6875 6.4688-28.141 0-18.406-6.4688-28.109-6.4688-9.6875-18.734-9.6875-12.25 0-18.719 9.6875-6.4688 9.7031-6.4688 28.109 0 18.453 6.4688 28.141 6.4688 9.7031 18.719 9.7031z"/>
</defs>
<g transform="translate(949.1 354.22) scale(.1 -.1)">
<use xlink:href="#c"/>
<use x="63.623047" xlink:href="#f"/>
<use x="95.410156" xlink:href="#c"/>
<use x="159.033203" xlink:href="#ai"/>
</g>
</g>
<g clip-path="url(#a)">
<g transform="translate(724.39 664.63) scale(.1 -.1)">
<use xlink:href="#c"/>
<use x="63.623047" xlink:href="#f"/>
<use x="95.410156" xlink:href="#c"/>
<use x="159.033203" xlink:href="#c"/>
</g>
</g>
<g clip-path="url(#a)">
<g transform="translate(785.03 664.63) scale(.1 -.1)">
<use xlink:href="#c"/>
<use x="63.623047" xlink:href="#f"/>
<use x="95.410156" xlink:href="#c"/>
<use x="159.033203" xlink:href="#o"/>
</g>
</g>
<g clip-path="url(#a)">
<g transform="translate(848.31 664.63) scale(.1 -.1)">
<use xlink:href="#c"/>
<use x="63.623047" xlink:href="#f"/>
<use x="95.410156" xlink:href="#c"/>
<use x="159.033203" xlink:href="#n"/>
</g>
</g>
<g clip-path="url(#a)">
<g transform="translate(914.23 664.63) scale(.1 -.1)">
<use xlink:href="#c"/>
<use x="63.623047" xlink:href="#f"/>
<use x="95.410156" xlink:href="#c"/>
<use x="159.033203" xlink:href="#m"/>
</g>
</g>
<g clip-path="url(#a)">
<g transform="translate(1054.9 509.83) scale(.1 -.1)">
<use xlink:href="#c"/>
<use x="63.623047" xlink:href="#f"/>
<use x="95.410156" xlink:href="#c"/>
<use x="159.033203" xlink:href="#aa"/>
</g>
</g>
<g clip-path="url(#a)">
<defs>
<path id="ah" d="m33.016 40.375q-6.6406 0-10.531-4.5469-3.875-4.5312-3.875-12.438 0-7.8594 3.875-12.438 3.8906-4.5625 10.531-4.5625t10.516 4.5625q3.875 4.5781 3.875 12.438 0 7.9062-3.875 12.438-3.875 4.5469-10.516 4.5469zm19.578 30.922v-8.9844q-3.7188 1.75-7.5 2.6719-3.7812 0.9375-7.5 0.9375-9.7656 0-14.922-6.5938-5.1406-6.5938-5.875-19.922 2.875 4.25 7.2188 6.5156 4.3594 2.2656 9.5781 2.2656 10.984 0 17.359-6.6719 6.375-6.6562 6.375-18.125 0-11.234-6.6406-18.031-6.6406-6.7812-17.672-6.7812-12.656 0-19.344 9.6875-6.6875 9.7031-6.6875 28.109 0 17.281 8.2031 27.562t22.016 10.281q3.7188 0 7.5-0.73438t7.8906-2.1875z"/>
</defs>
<g transform="translate(1367.8 509.83) scale(.1 -.1)">
<use xlink:href="#c"/>
<use x="63.623047" xlink:href="#f"/>
<use x="95.410156" xlink:href="#c"/>
<use x="159.033203" xlink:href="#ah"/>
</g>
</g>
<g clip-path="url(#a)">
<defs>
<path id="ag" d="m8.2031 72.906h46.875v-4.2031l-26.469-68.703h-10.297l24.906 64.594h-35.016z"/>
</defs>
<g transform="translate(1204.3 664.63) scale(.1 -.1)">
<use xlink:href="#c"/>
<use x="63.623047" xlink:href="#f"/>
<use x="95.410156" xlink:href="#c"/>
<use x="159.033203" xlink:href="#ag"/>
</g>
</g>
<g clip-path="url(#a)">
<g transform="translate(1283.4 664.63) scale(.1 -.1)">
<use xlink:href="#c"/>
<use x="63.623047" xlink:href="#f"/>
<use x="95.410156" xlink:href="#c"/>
<use x="159.033203" xlink:href="#af"/>
</g>
</g>
<g clip-path="url(#a)">
<g transform="translate(1365.1 664.63) scale(.1 -.1)">
<use xlink:href="#c"/>
<use x="63.623047" xlink:href="#f"/>
<use x="95.410156" xlink:href="#c"/>
<use x="159.033203" xlink:href="#al"/>
</g>
</g>
<g clip-path="url(#a)">
<g transform="translate(1449.5 664.63) scale(.1 -.1)">
<use xlink:href="#c"/>
<use x="63.623047" xlink:href="#f"/>
<use x="95.410156" xlink:href="#o"/>
<use x="159.033203" xlink:href="#ai"/>
</g>
</g>
<g clip-path="url(#a)">
<g transform="translate(982.79 664.63) scale(.1 -.1)">
<use xlink:href="#c"/>
<use x="63.623047" xlink:href="#f"/>
<use x="95.410156" xlink:href="#o"/>
<use x="159.033203" xlink:href="#c"/>
</g>
</g>
<g clip-path="url(#a)">
<g transform="translate(1054 664.63) scale(.1 -.1)">
<use xlink:href="#c"/>
<use x="63.623047" xlink:href="#f"/>
<use x="95.410156" xlink:href="#o"/>
<use x="159.033203" xlink:href="#o"/>
</g>
</g>
<g clip-path="url(#a)">
<g transform="translate(1127.8 664.63) scale(.1 -.1)">
<use xlink:href="#c"/>
<use x="63.623047" xlink:href="#f"/>
<use x="95.410156" xlink:href="#o"/>
<use x="159.033203" xlink:href="#n"/>
</g>
</g>
<g clip-path="url(#a)">
<g transform="translate(199.67 664.63) scale(.1 -.1)">
<use xlink:href="#c"/>
<use x="63.623047" xlink:href="#f"/>
<use x="95.410156" xlink:href="#o"/>
<use x="159.033203" xlink:href="#m"/>
</g>
</g>
<g clip-path="url(#a)">
<g transform="translate(228.68 664.63) scale(.1 -.1)">
<use xlink:href="#c"/>
<use x="63.623047" xlink:href="#f"/>
<use x="95.410156" xlink:href="#o"/>
<use x="159.033203" xlink:href="#aa"/>
</g>
</g>
<g clip-path="url(#a)">
<g transform="translate(260.32 664.63) scale(.1 -.1)">
<use xlink:href="#c"/>
<use x="63.623047" xlink:href="#f"/>
<use x="95.410156" xlink:href="#o"/>
<use x="159.033203" xlink:href="#ah"/>
</g>
</g>
<g clip-path="url(#a)">
<g transform="translate(294.6 664.63) scale(.1 -.1)">
<use xlink:href="#c"/>
<use x="63.623047" xlink:href="#f"/>
<use x="95.410156" xlink:href="#o"/>
<use x="159.033203" xlink:href="#ag"/>
</g>
</g>
<g clip-path="url(#a)">
<g transform="translate(386.44 354.22) scale(.1 -.1)">
<use xlink:href="#c"/>
<use x="63.623047" xlink:href="#f"/>
<use x="95.410156" xlink:href="#o"/>
<use x="159.033203" xlink:href="#af"/>
</g>
</g>
<g clip-path="url(#a)">
<g transform="translate(331.51 664.63) scale(.1 -.1)">
<use xlink:href="#c"/>
<use x="63.623047" xlink:href="#f"/>
<use x="95.410156" xlink:href="#n"/>
<use x="159.033203" xlink:href="#ai"/>
</g>
</g>
<g clip-path="url(#a)">
<g transform="translate(414.57 509.83) scale(.1 -.1)">
<use xlink:href="#c"/>
<use x="63.623047" xlink:href="#f"/>
<use x="95.410156" xlink:href="#n"/>
<use x="159.033203" xlink:href="#c"/>
</g>
</g>
<g clip-path="url(#a)">
<g transform="translate(413.25 664.63) scale(.1 -.1)">
<use xlink:href="#c"/>
<use x="63.623047" xlink:href="#f"/>
<use x="95.410156" xlink:href="#n"/>
<use x="159.033203" xlink:href="#o"/>
</g>
</g>
<g clip-path="url(#a)">
<g transform="translate(371.06 664.63) scale(.1 -.1)">
<use xlink:href="#c"/>
<use x="63.623047" xlink:href="#f"/>
<use x="95.410156" xlink:href="#n"/>
<use x="159.033203" xlink:href="#n"/>
</g>
</g>
<g clip-path="url(#a)">
<g transform="translate(458.08 664.63) scale(.1 -.1)">
<use xlink:href="#c"/>
<use x="63.623047" xlink:href="#f"/>
<use x="95.410156" xlink:href="#n"/>
<use x="159.033203" xlink:href="#m"/>
</g>
</g>
<g clip-path="url(#a)">
<g transform="translate(62.564 664.63) scale(.1 -.1)">
<use xlink:href="#c"/>
<use x="63.623047" xlink:href="#f"/>
<use x="95.410156" xlink:href="#n"/>
<use x="159.033203" xlink:href="#aa"/>
</g>
</g>
<g clip-path="url(#a)">
<g transform="translate(70.474 664.63) scale(.1 -.1)">
<use xlink:href="#c"/>
<use x="63.623047" xlink:href="#f"/>
<use x="95.410156" xlink:href="#n"/>
<use x="159.033203" xlink:href="#ah"/>
</g>
</g>
<g clip-path="url(#a)">
<g transform="translate(106.07 354.22) scale(.1 -.1)">
<use xlink:href="#c"/>
<use x="63.623047" xlink:href="#f"/>
<use x="95.410156" xlink:href="#n"/>
<use x="159.033203" xlink:href="#ag"/>
</g>
</g>
<g clip-path="url(#a)">
<g transform="translate(81.021 664.63) scale(.1 -.1)">
<use xlink:href="#c"/>
<use x="63.623047" xlink:href="#f"/>
<use x="95.410156" xlink:href="#n"/>
<use x="159.033203" xlink:href="#al"/>
</g>
</g>
<g clip-path="url(#a)">
<g transform="translate(94.205 664.63) scale(.1 -.1)">
<use xlink:href="#c"/>
<use x="63.623047" xlink:href="#f"/>
<use x="95.410156" xlink:href="#m"/>
<use x="159.033203" xlink:href="#ai"/>
</g>
</g>
<g clip-path="url(#a)">
<g transform="translate(110.03 664.63) scale(.1 -.1)">
<use xlink:href="#c"/>
<use x="63.623047" xlink:href="#f"/>
<use x="95.410156" xlink:href="#m"/>
<use x="159.033203" xlink:href="#c"/>
</g>
</g>
<g clip-path="url(#a)">
<g transform="translate(139.03 509.83) scale(.1 -.1)">
<use xlink:href="#c"/>
<use x="63.623047" xlink:href="#f"/>
<use x="95.410156" xlink:href="#m"/>
<use x="159.033203" xlink:href="#o"/>
</g>
</g>
<g clip-path="url(#a)">
<g transform="translate(128.48 664.63) scale(.1 -.1)">
<use xlink:href="#c"/>
<use x="63.623047" xlink:href="#f"/>
<use x="95.410156" xlink:href="#m"/>
<use x="159.033203" xlink:href="#n"/>
</g>
</g>
<g clip-path="url(#a)">
<g transform="translate(149.58 664.63) scale(.1 -.1)">
<use xlink:href="#c"/>
<use x="63.623047" xlink:href="#f"/>
<use x="95.410156" xlink:href="#m"/>
<use x="159.033203" xlink:href="#m"/>
</g>
</g>
<g clip-path="url(#a)">
<g transform="translate(524.79 41.547) scale(.1 -.1)">
<use xlink:href="#c"/>
<use x="63.623047" xlink:href="#f"/>
<use x="95.410156" xlink:href="#m"/>
<use x="159.033203" xlink:href="#aa"/>
</g>
</g>
<g clip-path="url(#a)">
<g transform="translate(173.31 664.63) scale(.1 -.1)">
<use xlink:href="#c"/>
<use x="63.623047" xlink:href="#f"/>
<use x="95.410156" xlink:href="#m"/>
<use x="159.033203" xlink:href="#ah"/>
</g>
</g>
<g clip-path="url(#a)">
<g transform="translate(508.17 664.63) scale(.1 -.1)">
<use xlink:href="#c"/>
<use x="63.623047" xlink:href="#f"/>
<use x="95.410156" xlink:href="#m"/>
<use x="159.033203" xlink:href="#ag"/>
</g>
</g>
<g clip-path="url(#a)">
<g transform="translate(1536.5 664.63) scale(.1 -.1)">
<use xlink:href="#c"/>
<use x="63.623047" xlink:href="#f"/>
<use x="95.410156" xlink:href="#m"/>
<use x="159.033203" xlink:href="#af"/>
</g>
</g>
<defs>
<clipPath id="a">
<rect width="1621.3" height="853.33"/>
</clipPath>
</defs>
</svg>
