<?xml version="1.0" encoding="UTF-8"?>
<!DOCTYPE svg  PUBLIC '-//W3C//DTD SVG 1.1//EN'  'http://www.w3.org/Graphics/SVG/1.1/DTD/svg11.dtd'>
<svg width="1621.3pt" height="853.33pt" version="1.1" viewBox="0 0 1621.3 853.33" xmlns="http://www.w3.org/2000/svg" xmlns:xlink="http://www.w3.org/1999/xlink">
<defs>
<style type="text/css">*{stroke-linecap:butt;stroke-linejoin:round;}</style>
</defs>
<path d="m0 853.33h1621.3v-853.33h-1621.3z" fill="#fff"/>
<g fill="none" stroke="#000">
<path d="m725.1 39.895-423.95 160.18" clip-path="url(#a)"/>
<path d="m725.1 39.895-158.05 316.8" clip-path="url(#a)"/>
<path d="m725.1 39.895 156.86 622" clip-path="url(#a)"/>
<path d="m725.1 39.895 315.81 160.18" clip-path="url(#a)"/>
<path d="m725.1 39.895 109.33 622" clip-path="url(#a)"/>
<path d="m301.15 200.08 153 461.81" clip-path="url(#a)" stroke-dasharray="3.7,1.6"/>
<path d="m301.15 200.08-203.51 310.27" clip-path="url(#a)"/>
<path d="m301.15 200.08-54.962 156.61" clip-path="url(#a)"/>
<path d="m301.15 200.08 105.47 461.81" clip-path="url(#a)"/>
<path d="m567.05 356.69-112.89 305.2" clip-path="url(#a)"/>
<path d="m567.05 356.69-17.825 153.65" clip-path="url(#a)"/>
<path d="m567.05 356.69-17.825 305.2" clip-path="url(#a)"/>
<path d="m567.05 356.69 148.55 153.65" clip-path="url(#a)"/>
<path d="m881.97 661.89v151.55" clip-path="url(#a)"/>
<path d="m1040.9 200.08-111.41 461.81" clip-path="url(#a)"/>
<path d="m1040.9 200.08-63.875 461.81" clip-path="url(#a)"/>
<path d="m1040.9 200.08-16.34 461.81" clip-path="url(#a)"/>
<path d="m1040.9 200.08 191.62 156.61" clip-path="url(#a)"/>
<path d="m929.5 661.89v151.55" clip-path="url(#a)"/>
<path d="m977.04 661.89v151.55" clip-path="url(#a)"/>
<path d="m1024.6 661.89v151.55" clip-path="url(#a)"/>
<path d="m1232.5 356.69-160.43 305.2" clip-path="url(#a)"/>
<path d="m1232.5 356.69-89.127 153.65" clip-path="url(#a)"/>
<path d="m1232.5 356.69 29.709 153.65" clip-path="url(#a)"/>
<path d="m1232.5 356.69 219.85 153.65" clip-path="url(#a)"/>
<path d="m1072.1 661.89v151.55" clip-path="url(#a)"/>
<path d="m1143.4 510.35-23.767 151.55" clip-path="url(#a)"/>
<path d="m1143.4 510.35 23.767 151.55" clip-path="url(#a)"/>
<path d="m1262.2 510.35-47.535 151.55" clip-path="url(#a)"/>
<path d="m1262.2 510.35v151.55" clip-path="url(#a)"/>
<path d="m1262.2 510.35 47.535 151.55" clip-path="url(#a)"/>
<path d="m1452.4 510.35-95.069 151.55" clip-path="url(#a)"/>
<path d="m1452.4 510.35-47.535 151.55" clip-path="url(#a)"/>
<path d="m1452.4 510.35v151.55" clip-path="url(#a)"/>
<path d="m1452.4 510.35 47.535 151.55" clip-path="url(#a)"/>
<path d="m1452.4 510.35 95.069 151.55" clip-path="url(#a)"/>
<path d="m1357.3 661.89v151.55" clip-path="url(#a)"/>
<path d="m1404.8 661.89v151.55" clip-path="url(#a)"/>
<path d="m1452.4 661.89v151.55" clip-path="url(#a)"/>
<path d="m1499.9 661.89v151.55" clip-path="url(#a)"/>
<path d="m1214.7 661.89v151.55" clip-path="url(#a)"/>
<path d="m1262.2 661.89v151.55" clip-path="url(#a)"/>
<path d="m1309.8 661.89v151.55" clip-path="url(#a)"/>
<path d="m1119.6 661.89v151.55" clip-path="url(#a)"/>
<path d="m1167.2 661.89v151.55" clip-path="url(#a)"/>
<path d="m454.16 661.89v151.55" clip-path="url(#a)"/>
<path d="m549.23 510.35-47.535 151.55" clip-path="url(#a)"/>
<path d="m549.23 510.35 47.535 151.55" clip-path="url(#a)"/>
<path d="m549.23 661.89v151.55" clip-path="url(#a)"/>
<path d="m715.6 510.35-71.302 151.55" clip-path="url(#a)"/>
<path d="m715.6 510.35-23.767 151.55" clip-path="url(#a)"/>
<path d="m715.6 510.35 23.767 151.55" clip-path="url(#a)"/>
<path d="m715.6 510.35 71.302 151.55" clip-path="url(#a)"/>
<path d="m644.3 661.89v151.55" clip-path="url(#a)"/>
<path d="m691.83 661.89v151.55" clip-path="url(#a)"/>
<path d="m739.36 661.89v151.55" clip-path="url(#a)"/>
<path d="m786.9 661.89v151.55" clip-path="url(#a)"/>
<path d="m501.69 661.89v151.55" clip-path="url(#a)"/>
<path d="m596.76 661.89v151.55" clip-path="url(#a)"/>
<path d="m97.647 510.35-23.767 151.55" clip-path="url(#a)"/>
<path d="m97.647 510.35 23.767 151.55" clip-path="url(#a)"/>
<path d="m246.19 356.69-77.244 305.2" clip-path="url(#a)"/>
<path d="m246.19 356.69-29.709 305.2" clip-path="url(#a)"/>
<path d="m246.19 356.69 17.825 305.2" clip-path="url(#a)"/>
<path d="m246.19 356.69 89.127 153.65" clip-path="url(#a)"/>
<path d="m168.95 661.89v151.55" clip-path="url(#a)"/>
<path d="m216.48 661.89v151.55" clip-path="url(#a)"/>
<path d="m264.02 661.89v151.55" clip-path="url(#a)"/>
<path d="m335.32 510.35-23.767 151.55" clip-path="url(#a)"/>
<path d="m335.32 510.35 23.767 151.55" clip-path="url(#a)"/>
<path d="m311.55 661.89v151.55" clip-path="url(#a)"/>
<path d="m359.09 661.89v151.55" clip-path="url(#a)"/>
<path d="m73.88 661.89v151.55" clip-path="url(#a)"/>
<path d="m121.41 661.89v151.55" clip-path="url(#a)"/>
<path d="m829.98 39.895-262.93 316.8" clip-path="url(#a)"/>
<path d="m829.98 39.895 51.991 622" clip-path="url(#a)"/>
<path d="m829.98 39.895 210.93 160.18" clip-path="url(#a)"/>
<path d="m406.62 661.89v151.55" clip-path="url(#a)"/>
<path d="m834.43 661.89v151.55" clip-path="url(#a)"/>
<path d="m1547.5 661.89v151.55" clip-path="url(#a)"/>
</g>
<path d="m512.53 126.92 5.6279-2.1264q2.2451-0.84827 1.3968-3.0934l-2.7366-7.2428q-0.84827-2.2451-3.0934-1.3968l-5.6279 2.1264q-2.2451 0.84827-1.3968 3.0934l2.7366 7.2428q0.84827 2.2451 3.0934 1.3968z" clip-path="url(#a)" fill="#fff" stroke="#fff"/>
<g clip-path="url(#a)">
<defs>
<path id="aj" d="m9.8125 72.906h9.8594v-29.891h35.844v29.891h9.8594v-72.906h-9.8594v34.719h-35.844v-34.719h-9.8594z"/>
</defs>
<g transform="translate(511.1 123.11) rotate(-20.698) scale(.08 -.08)">
<use xlink:href="#aj"/>
</g>
</g>
<path d="m650.35 203.78 2.6859-5.3834q1.0714-2.1476-1.0761-3.219l-6.9281-3.4565q-2.1476-1.0714-3.219 1.0761l-2.6859 5.3834q-1.0714 2.1476 1.0761 3.219l6.9281 3.4565q2.1476 1.0714 3.219-1.0761z" clip-path="url(#a)" fill="#fff" stroke="#fff"/>
<g clip-path="url(#a)">
<g transform="translate(646.71 201.97) rotate(-63.485) scale(.08 -.08)">
<use xlink:href="#aj"/>
</g>
</g>
<path d="m796.91 350.27 1.09 4.3222q0.58689 2.3271 2.914 1.7402l7.5074-1.8933q2.3271-0.58689 1.7402-2.914l-1.09-4.3222q-0.58689-2.3271-2.914-1.7402l-7.5074 1.8933q-2.3271 0.58689-1.7402 2.914z" clip-path="url(#a)" fill="#fff" stroke="#fff"/>
<g clip-path="url(#a)">
<defs>
<path id="af" d="m9.8125 72.906h9.8594v-64.609h35.5v-8.2969h-45.359z"/>
</defs>
<g transform="translate(800.85 349.27) rotate(75.845) scale(.08 -.08)">
<use xlink:href="#af"/>
</g>
</g>
<path d="m877.49 124.22 5.3655 2.7215q2.1404 1.0856 3.2261-1.0548l3.5023-6.9051q1.0856-2.1404-1.0548-3.2261l-5.3655-2.7215q-2.1404-1.0856-3.2261 1.0548l-3.5023 6.9051q-1.0856 2.1404 1.0548 3.2261z" clip-path="url(#a)" fill="#fff" stroke="#fff"/>
<g clip-path="url(#a)">
<g transform="translate(879.33 120.59) rotate(26.895) scale(.08 -.08)">
<use xlink:href="#aj"/>
</g>
</g>
<path d="m773.09 349.1 1.0136 5.7666q0.41548 2.3638 2.7792 1.9483l7.6256-1.3404q2.3638-0.41548 1.9483-2.7792l-1.0136-5.7666q-0.41548-2.3638-2.7792-1.9483l-7.6256 1.3404q-2.3638 0.41548-1.9483 2.7792z" clip-path="url(#a)" fill="#fff" stroke="#fff"/>
<g clip-path="url(#a)">
<defs>
<path id="ai" d="m8.6875 72.906h9.9219v-44.297q0-11.719 4.2344-16.875 4.25-5.1406 13.781-5.1406 9.4688 0 13.719 5.1406 4.25 5.1562 4.25 16.875v44.297h9.9062v-45.516q0-14.25-7.0625-21.531-7.0469-7.2812-20.812-7.2812-13.828 0-20.891 7.2812-7.0469 7.2812-7.0469 21.531z"/>
</defs>
<g transform="translate(777.09 348.39) rotate(80.031) scale(.08 -.08)">
<use xlink:href="#ai"/>
</g>
</g>
<path d="m370.84 430.36 1.7211 5.1948q0.75479 2.2782 3.033 1.5234l7.3496-2.435q2.2782-0.75479 1.5234-3.033l-1.7211-5.1948q-0.75479-2.2782-3.033-1.5234l-7.3496 2.435q-2.2782 0.75479-1.5234 3.033z" clip-path="url(#a)" fill="#fff" stroke="#fff"/>
<g clip-path="url(#a)">
<defs>
<path id="p" d="m34.188 63.188-13.391-36.281h26.812zm-5.5781 9.7188h11.188l27.781-72.906h-10.25l-6.6406 18.703h-32.859l-6.6406-18.703h-10.406z"/>
</defs>
<g transform="translate(374.7 429.08) rotate(71.67) scale(.08 -.08)">
<use xlink:href="#p"/>
</g>
</g>
<path d="m203.32 360.67 2.6456-4.0335q1.3163-2.0068-0.69053-3.3231l-6.4741-4.2464q-2.0068-1.3163-3.3231 0.69053l-2.6456 4.0335q-1.3163 2.0068 0.69053 3.3231l6.4741 4.2464q2.0068 1.3163 3.3231-0.69053z" clip-path="url(#a)" fill="#fff" stroke="#fff"/>
<g clip-path="url(#a)">
<defs>
<path id="ae" d="m19.672 64.797v-27.391h12.406q6.8906 0 10.641 3.5625 3.7656 3.5625 3.7656 10.156 0 6.5469-3.7656 10.109-3.75 3.5625-10.641 3.5625zm-9.8594 8.1094h22.266q12.266 0 18.531-5.5469 6.2812-5.5469 6.2812-16.234 0-10.797-6.2812-16.312-6.2656-5.5156-18.531-5.5156h-12.406v-29.297h-9.8594z"/>
</defs>
<g transform="translate(199.92 358.44) rotate(-56.739) scale(.08 -.08)">
<use xlink:href="#ae"/>
</g>
</g>
<path d="m278.69 283.04 1.8122-5.1638q0.79474-2.2646-1.4699-3.0593l-7.3057-2.5639q-2.2646-0.79474-3.0593 1.4699l-1.8122 5.1638q-0.79474 2.2646 1.4699 3.0593l7.3057 2.5639q2.2646 0.79474 3.0593-1.4699z" clip-path="url(#a)" fill="#fff" stroke="#fff"/>
<g clip-path="url(#a)">
<g transform="translate(274.85 281.7) rotate(-70.662) scale(.08 -.08)">
<use xlink:href="#p"/>
</g>
</g>
<path d="m347.12 429.53 1.3036 5.708q0.53435 2.3398 2.8741 1.8054l7.5482-1.7238q2.3398-0.53435 1.8054-2.8741l-1.3036-5.708q-0.53434-2.3398-2.8741-1.8054l-7.5482 1.7238q-2.3398 0.53435-1.8054 2.8741z" clip-path="url(#a)" fill="#fff" stroke="#fff"/>
<g clip-path="url(#a)">
<g transform="translate(351.08 428.62) rotate(77.136) scale(.08 -.08)">
<use xlink:href="#ai"/>
</g>
</g>
<path d="m515.54 514.03 1.8986-5.1326q0.83263-2.2509-1.4183-3.0836l-7.2616-2.6861q-2.2509-0.83263-3.0836 1.4183l-1.8986 5.1326q-0.83263 2.2509 1.4183 3.0836l7.2616 2.6861q2.2509 0.83263 3.0836-1.4183z" clip-path="url(#a)" fill="#fff" stroke="#fff"/>
<g clip-path="url(#a)">
<g transform="translate(511.73 512.62) rotate(-69.7) scale(.08 -.08)">
<use xlink:href="#p"/>
</g>
</g>
<path d="m564.09 436.64 0.55588-4.7916q0.27657-2.384-2.1074-2.6606l-7.6909-0.89222q-2.384-0.27657-2.6606 2.1074l-0.55588 4.7916q-0.27657 2.384 2.1074 2.6606l7.6909 0.89222q2.384 0.27657 2.6606-2.1074z" clip-path="url(#a)" fill="#fff" stroke="#fff"/>
<g clip-path="url(#a)">
<g transform="translate(560.05 436.17) rotate(-83.383) scale(.08 -.08)">
<use xlink:href="#ae"/>
</g>
</g>
<path d="m564.22 512.73 0.35917-6.1495q0.13994-2.3959-2.256-2.5359l-7.7293-0.45144q-2.3959-0.13994-2.5359 2.256l-0.35917 6.1495q-0.13994 2.3959 2.256 2.5359l7.7293 0.45144q2.3959 0.13994 2.5359-2.256z" clip-path="url(#a)" fill="#fff" stroke="#fff"/>
<g clip-path="url(#a)">
<defs>
<path id="au" d="m19.672 64.797v-56.688h11.922q15.094 0 22.094 6.8281 7 6.8438 7 21.594 0 14.641-7 21.453t-22.094 6.8125zm-9.8594 8.1094h20.266q21.188 0 31.094-8.8125 9.9219-8.8125 9.9219-27.562 0-18.859-9.9688-27.703-9.9531-8.8281-31.047-8.8281h-20.266z"/>
</defs>
<g transform="translate(560.16 512.49) rotate(-86.657) scale(.08 -.08)">
<use xlink:href="#au"/>
</g>
</g>
<path d="m634.91 435.91 3.8037 3.9345q1.6681 1.7255 3.3936 0.057372l5.5665-5.3814q1.7255-1.6681 0.057372-3.3936l-3.8037-3.9345q-1.6681-1.7255-3.3936-0.057371l-5.5665 5.3814q-1.7255 1.6681-0.057372 3.3936z" clip-path="url(#a)" fill="#fff" stroke="#fff"/>
<g clip-path="url(#a)">
<g transform="translate(637.84 433.08) rotate(45.969) scale(.08 -.08)">
<use xlink:href="#p"/>
</g>
</g>
<path d="m875.7 720.02v35.285q0 2.4 2.4 2.4h7.7425q2.4 0 2.4-2.4v-35.285q0-2.4-2.4-2.4h-7.7425q-2.4 0-2.4 2.4z" clip-path="url(#a)" fill="#fff" stroke="#fff"/>
<g clip-path="url(#a)">
<defs>
<path id="l" d="m-0.29688 72.906h61.672v-8.3125h-25.875v-64.594h-9.9062v64.594h-25.891z"/>
<path id="d" d="m56.203 29.594v-4.3906h-41.312q0.59375-9.2812 5.5938-14.141t13.938-4.8594q5.1719 0 10.031 1.2656t9.6562 3.8125v-8.5q-4.8438-2.0469-9.9219-3.125t-10.297-1.0781q-13.094 0-20.734 7.6094-7.6406 7.625-7.6406 20.625 0 13.422 7.25 21.297 7.25 7.8906 19.562 7.8906 11.031 0 17.453-7.1094 6.4219-7.0938 6.4219-19.297zm-8.9844 2.6406q-0.09375 7.3594-4.125 11.75-4.0312 4.4062-10.672 4.4062-7.5156 0-12.031-4.25t-5.2031-11.969z"/>
<path id="i" d="m41.109 46.297q-1.5156 0.875-3.2969 1.2812-1.7812 0.42188-3.9219 0.42188-7.625 0-11.703-4.9531t-4.0781-14.234v-28.812h-9.0312v54.688h9.0312v-8.5q2.8438 4.9844 7.375 7.3906 4.5469 2.4219 11.047 2.4219 0.92188 0 2.0469-0.125 1.125-0.10938 2.4844-0.35938z"/>
<path id="k" d="m52 44.188q3.375 6.0625 8.0625 8.9375t11.031 2.875q8.5469 0 13.188-5.9844 4.6406-5.9688 4.6406-17v-33.016h-9.0312v32.719q0 7.8594-2.7969 11.656-2.7812 3.8125-8.4844 3.8125-6.9844 0-11.047-4.6406-4.0469-4.625-4.0469-12.641v-30.906h-9.0312v32.719q0 7.9062-2.7812 11.688t-8.5938 3.7812q-6.8906 0-10.953-4.6562-4.0469-4.6562-4.0469-12.625v-30.906h-9.0312v54.688h9.0312v-8.5q3.0781 5.0312 7.375 7.4219t10.203 2.3906q5.9688 0 10.141-3.0312 4.1719-3.0156 6.1719-8.7812z"/>
<path id="h" d="m9.4219 54.688h8.9844v-54.688h-8.9844zm0 21.297h8.9844v-11.391h-8.9844z"/>
<path id="j" d="m54.891 33.016v-33.016h-8.9844v32.719q0 7.7656-3.0312 11.609-3.0312 3.8594-9.0781 3.8594-7.2812 0-11.484-4.6406-4.2031-4.625-4.2031-12.641v-30.906h-9.0312v54.688h9.0312v-8.5q3.2344 4.9375 7.5938 7.375 4.375 2.4375 10.094 2.4375 9.4219 0 14.25-5.8281 4.8438-5.8281 4.8438-17.156z"/>
<path id="e" d="m34.281 27.484q-10.891 0-15.094-2.4844t-4.2031-8.5q0-4.7812 3.1562-7.5938 3.1562-2.7969 8.5625-2.7969 7.4844 0 12 5.2969t4.5156 14.078v2zm17.922 3.7188v-31.203h-8.9844v8.2969q-3.0781-4.9688-7.6719-7.3438t-11.234-2.375q-8.3906 0-13.359 4.7188-4.9531 4.7188-4.9531 12.625 0 9.2188 6.1719 13.906 6.1875 4.6875 18.438 4.6875h12.609v0.89062q0 6.2031-4.0781 9.5938t-11.453 3.3906q-4.6875 0-9.1406-1.125-4.4375-1.125-8.5312-3.375v8.3125q4.9219 1.9062 9.5625 2.8438 4.6406 0.95312 9.0312 0.95312 11.875 0 17.734-6.1562 5.8594-6.1406 5.8594-18.641z"/>
<path id="g" d="m9.4219 75.984h8.9844v-75.984h-8.9844z"/>
</defs>
<g transform="translate(879.76 720.02) rotate(90) scale(.08 -.08)">
<use xlink:href="#l"/>
<use x="60.818359" xlink:href="#d"/>
<use x="122.341797" xlink:href="#i"/>
<use x="163.439453" xlink:href="#k"/>
<use x="260.851562" xlink:href="#h"/>
<use x="288.634766" xlink:href="#j"/>
<use x="352.013672" xlink:href="#e"/>
<use x="413.292969" xlink:href="#g"/>
</g>
</g>
<path d="m990.66 435.12 1.2834-5.3199q0.56284-2.3331-1.7702-2.8959l-7.5266-1.8157q-2.3331-0.56284-2.8959 1.7702l-1.2834 5.3199q-0.56284 2.3331 1.7702 2.8959l7.5266 1.8157q2.3331 0.56284 2.8959-1.7702z" clip-path="url(#a)" fill="#fff" stroke="#fff"/>
<g clip-path="url(#a)">
<g transform="translate(986.71 434.16) rotate(-76.437) scale(.08 -.08)">
<use xlink:href="#p"/>
</g>
</g>
<path d="m1014.9 434.23 0.66089-4.7783q0.32882-2.3774-2.0485-2.7062l-7.6695-1.0608q-2.3774-0.32882-2.7062 2.0485l-0.66089 4.7783q-0.32882 2.3774 2.0485 2.7062l7.6695 1.0608q2.3774 0.32882 2.7062-2.0485z" clip-path="url(#a)" fill="#fff" stroke="#fff"/>
<g clip-path="url(#a)">
<g transform="translate(1010.8 433.68) rotate(-82.125) scale(.08 -.08)">
<use xlink:href="#ae"/>
</g>
</g>
<path d="m1038.9 433.51 0.1627-4.5984q0.084865-2.3985-2.3136-2.4834l-7.7377-0.27378q-2.3985-0.084864-2.4834 2.3136l-0.1627 4.5984q-0.084864 2.3985 2.3136 2.4834l7.7377 0.27378q2.3985 0.084864 2.4834-2.3136z" clip-path="url(#a)" fill="#fff" stroke="#fff"/>
<g clip-path="url(#a)">
<defs>
<path id="an" d="m9.8125 72.906h41.891v-8.3125h-32.031v-21.484h28.906v-8.2969h-28.906v-34.812h-9.8594z"/>
</defs>
<g transform="translate(1034.9 433.36) rotate(-87.974) scale(.08 -.08)">
<use xlink:href="#an"/>
</g>
</g>
<path d="m1130.6 281.51 4.2373 3.4631q1.8583 1.5188 3.3771-0.33952l4.8997-5.995q1.5188-1.8583-0.33952-3.3771l-4.2373-3.4631q-1.8583-1.5188-3.3771 0.33952l-4.8997 5.995q-1.5188 1.8583 0.33952 3.3771z" clip-path="url(#a)" fill="#fff" stroke="#fff"/>
<g clip-path="url(#a)">
<g transform="translate(1133.2 278.36) rotate(39.259) scale(.08 -.08)">
<use xlink:href="#p"/>
</g>
</g>
<path d="m923.23 720.02v35.285q0 2.4 2.4 2.4h7.7425q2.4 0 2.4-2.4v-35.285q0-2.4-2.4-2.4h-7.7425q-2.4 0-2.4 2.4z" clip-path="url(#a)" fill="#fff" stroke="#fff"/>
<g clip-path="url(#a)">
<g transform="translate(927.3 720.02) rotate(90) scale(.08 -.08)">
<use xlink:href="#l"/>
<use x="60.818359" xlink:href="#d"/>
<use x="122.341797" xlink:href="#i"/>
<use x="163.439453" xlink:href="#k"/>
<use x="260.851562" xlink:href="#h"/>
<use x="288.634766" xlink:href="#j"/>
<use x="352.013672" xlink:href="#e"/>
<use x="413.292969" xlink:href="#g"/>
</g>
</g>
<path d="m970.77 720.02v35.285q0 2.4 2.4 2.4h7.7425q2.4 0 2.4-2.4v-35.285q0-2.4-2.4-2.4h-7.7425q-2.4 0-2.4 2.4z" clip-path="url(#a)" fill="#fff" stroke="#fff"/>
<g clip-path="url(#a)">
<g transform="translate(974.83 720.02) rotate(90) scale(.08 -.08)">
<use xlink:href="#l"/>
<use x="60.818359" xlink:href="#d"/>
<use x="122.341797" xlink:href="#i"/>
<use x="163.439453" xlink:href="#k"/>
<use x="260.851562" xlink:href="#h"/>
<use x="288.634766" xlink:href="#j"/>
<use x="352.013672" xlink:href="#e"/>
<use x="413.292969" xlink:href="#g"/>
</g>
</g>
<path d="m1018.3 720.02v35.285q0 2.4 2.4 2.4h7.7425q2.4 0 2.4-2.4v-35.285q0-2.4-2.4-2.4h-7.7425q-2.4 0-2.4 2.4z" clip-path="url(#a)" fill="#fff" stroke="#fff"/>
<g clip-path="url(#a)">
<g transform="translate(1022.4 720.02) rotate(90) scale(.08 -.08)">
<use xlink:href="#l"/>
<use x="60.818359" xlink:href="#d"/>
<use x="122.341797" xlink:href="#i"/>
<use x="163.439453" xlink:href="#k"/>
<use x="260.851562" xlink:href="#h"/>
<use x="288.634766" xlink:href="#j"/>
<use x="352.013672" xlink:href="#e"/>
<use x="413.292969" xlink:href="#g"/>
</g>
</g>
<path d="m1156.6 514.63 2.5463-4.844q1.1167-2.1244-1.0077-3.2411l-6.8534-3.6025q-2.1244-1.1167-3.2411 1.0077l-2.5463 4.844q-1.1167 2.1244 1.0077 3.2411l6.8534 3.6025q2.1244 1.1167 3.2411-1.0077z" clip-path="url(#a)" fill="#fff" stroke="#fff"/>
<g clip-path="url(#a)">
<g transform="translate(1153 512.74) rotate(-62.271) scale(.08 -.08)">
<use xlink:href="#p"/>
</g>
</g>
<path d="m1192.2 438.75 2.4203-4.1726q1.2042-2.076-0.87183-3.2802l-6.6974-3.8848q-2.076-1.2042-3.2802 0.87183l-2.4203 4.1726q-1.2042 2.076 0.87183 3.2802l6.6974 3.8848q2.076 1.2042 3.2802-0.87183z" clip-path="url(#a)" fill="#fff" stroke="#fff"/>
<g clip-path="url(#a)">
<g transform="translate(1188.7 436.71) rotate(-59.884) scale(.08 -.08)">
<use xlink:href="#ae"/>
</g>
</g>
<path d="m1240.7 432.02 1.0389 5.373q0.4556 2.3564 2.812 1.9008l7.6017-1.4698q2.3564-0.4556 1.9008-2.812l-1.0389-5.373q-0.4556-2.3564-2.812-1.9008l-7.6017 1.4698q-2.3564 0.4556-1.9008 2.812z" clip-path="url(#a)" fill="#fff" stroke="#fff"/>
<g clip-path="url(#a)">
<g transform="translate(1244.7 431.25) rotate(79.057) scale(.08 -.08)">
<use xlink:href="#p"/>
</g>
</g>
<path d="m1336.6 437.09 4.4855 3.135q1.9672 1.3749 3.342-0.59228l4.4354-6.3461q1.3749-1.9672-0.59228-3.342l-4.4855-3.135q-1.9672-1.3749-3.342 0.59228l-4.4354 6.3461q-1.3749 1.9672 0.59228 3.342z" clip-path="url(#a)" fill="#fff" stroke="#fff"/>
<g clip-path="url(#a)">
<g transform="translate(1339 433.76) rotate(34.95) scale(.08 -.08)">
<use xlink:href="#p"/>
</g>
</g>
<path d="m1065.8 720.02v35.285q0 2.4 2.4 2.4h7.7425q2.4 0 2.4-2.4v-35.285q0-2.4-2.4-2.4h-7.7425q-2.4 0-2.4 2.4z" clip-path="url(#a)" fill="#fff" stroke="#fff"/>
<g clip-path="url(#a)">
<g transform="translate(1069.9 720.02) rotate(90) scale(.08 -.08)">
<use xlink:href="#l"/>
<use x="60.818359" xlink:href="#d"/>
<use x="122.341797" xlink:href="#i"/>
<use x="163.439453" xlink:href="#k"/>
<use x="260.851562" xlink:href="#h"/>
<use x="288.634766" xlink:href="#j"/>
<use x="352.013672" xlink:href="#e"/>
<use x="413.292969" xlink:href="#g"/>
</g>
</g>
<path d="m1137.3 589.59 0.78321-4.994q0.37185-2.371-1.9992-2.7429l-7.649-1.1996q-2.371-0.37185-2.7429 1.9992l-0.78321 4.994q-0.37185 2.371 1.9992 2.7429l7.649 1.1996q2.371 0.37185 2.7429-1.9992z" clip-path="url(#a)" fill="#fff" stroke="#fff"/>
<g clip-path="url(#a)">
<defs>
<path id="q" d="m9.8125 72.906h46.094v-8.3125h-36.234v-21.578h34.719v-8.2969h-34.719v-26.422h37.109v-8.2969h-46.969z"/>
</defs>
<g transform="translate(1133.3 588.96) rotate(-81.087) scale(.08 -.08)">
<use xlink:href="#q"/>
</g>
</g>
<path d="m1148.7 584.33 0.86552 5.5188q0.37185 2.371 2.7429 1.9992l7.649-1.1996q2.371-0.37185 1.9992-2.7429l-0.86552-5.5188q-0.37185-2.371-2.7429-1.9992l-7.649 1.1996q-2.371 0.37185-1.9992 2.7429z" clip-path="url(#a)" fill="#fff" stroke="#fff"/>
<g clip-path="url(#a)">
<defs>
<path id="t" d="m64.406 67.281v-10.391q-4.9844 4.6406-10.625 6.9219-5.6406 2.2969-11.984 2.2969-12.5 0-19.141-7.6406t-6.6406-22.094q0-14.406 6.6406-22.047t19.141-7.6406q6.3438 0 11.984 2.2969t10.625 6.9375v-10.312q-5.1719-3.5156-10.969-5.2812-5.7812-1.75-12.219-1.75-16.562 0-26.094 10.125-9.5156 10.141-9.5156 27.672 0 17.578 9.5156 27.703 9.5312 10.141 26.094 10.141 6.5312 0 12.312-1.7344 5.7969-1.7344 10.875-5.2031z"/>
</defs>
<g transform="translate(1152.7 583.7) rotate(81.087) scale(.08 -.08)">
<use xlink:href="#t"/>
</g>
</g>
<path d="m1243.7 590.41 1.5129-4.8233q0.71829-2.29-1.5717-3.0083l-7.3876-2.3172q-2.29-0.71829-3.0083 1.5717l-1.5129 4.8233q-0.71829 2.29 1.5717 3.0083l7.3876 2.3172q2.29 0.71829 3.0083-1.5717z" clip-path="url(#a)" fill="#fff" stroke="#fff"/>
<g clip-path="url(#a)">
<g transform="translate(1239.8 589.19) rotate(-72.585) scale(.08 -.08)">
<use xlink:href="#q"/>
</g>
</g>
<path d="m1256 583.59v5.055q0 2.4 2.4 2.4h7.7425q2.4 0 2.4-2.4v-5.055q0-2.4-2.4-2.4h-7.7425q-2.4 0-2.4 2.4z" clip-path="url(#a)" fill="#fff" stroke="#fff"/>
<g clip-path="url(#a)">
<g transform="translate(1260 583.59) rotate(90) scale(.08 -.08)">
<use xlink:href="#q"/>
</g>
</g>
<path d="m1279.2 585.33 1.6719 5.3302q0.71829 2.29 3.0083 1.5717l7.3876-2.3172q2.29-0.71829 1.5717-3.0083l-1.6719-5.3302q-0.71829-2.29-3.0083-1.5717l-7.3876 2.3172q-2.29 0.71829-1.5717 3.0083z" clip-path="url(#a)" fill="#fff" stroke="#fff"/>
<g clip-path="url(#a)">
<g transform="translate(1283.1 584.11) rotate(72.585) scale(.08 -.08)">
<use xlink:href="#t"/>
</g>
</g>
<path d="m1408.7 591.81 2.954-4.7089q1.2754-2.0331-0.75767-3.3085l-6.5588-4.1145q-2.0331-1.2754-3.3085 0.75767l-2.954 4.7089q-1.2754 2.0331 0.75767 3.3085l6.5588 4.1145q2.0331 1.2754 3.3085-0.75767z" clip-path="url(#a)" fill="#fff" stroke="#fff"/>
<g clip-path="url(#a)">
<defs>
<path id="x" d="m44.391 34.188q3.1719-1.0781 6.1719-4.5938t6.0312-9.6719l10.016-19.922h-10.609l-9.3125 18.703q-3.625 7.3281-7.0156 9.7188t-9.25 2.3906h-10.75v-30.812h-9.8594v72.906h22.266q12.5 0 18.656-5.2344 6.1562-5.2188 6.1562-15.766 0-6.8906-3.2031-11.438-3.2031-4.5312-9.2969-6.2812zm-24.719 30.609v-25.875h12.406q7.125 0 10.766 3.2969t3.6406 9.6875-3.6406 9.6406-10.766 3.25z"/>
</defs>
<g transform="translate(1405.2 589.65) rotate(-57.899) scale(.08 -.08)">
<use xlink:href="#x"/>
</g>
</g>
<path d="m1433.8 590.41 1.5129-4.8233q0.71829-2.29-1.5717-3.0083l-7.3876-2.3172q-2.29-0.71829-3.0083 1.5717l-1.5129 4.8233q-0.71829 2.29 1.5717 3.0083l7.3876 2.3172q2.29 0.71829 3.0083-1.5717z" clip-path="url(#a)" fill="#fff" stroke="#fff"/>
<g clip-path="url(#a)">
<g transform="translate(1430 589.19) rotate(-72.585) scale(.08 -.08)">
<use xlink:href="#q"/>
</g>
</g>
<path d="m1446.1 583.59v5.055q0 2.4 2.4 2.4h7.7425q2.4 0 2.4-2.4v-5.055q0-2.4-2.4-2.4h-7.7425q-2.4 0-2.4 2.4z" clip-path="url(#a)" fill="#fff" stroke="#fff"/>
<g clip-path="url(#a)">
<g transform="translate(1450.2 583.59) rotate(90) scale(.08 -.08)">
<use xlink:href="#q"/>
</g>
</g>
<path d="m1469.3 585.33 1.6719 5.3302q0.71829 2.29 3.0083 1.5717l7.3876-2.3172q2.29-0.71829 1.5717-3.0083l-1.6719-5.3302q-0.71829-2.29-3.0083-1.5717l-7.3876 2.3172q-2.29 0.71829-1.5717 3.0083z" clip-path="url(#a)" fill="#fff" stroke="#fff"/>
<g clip-path="url(#a)">
<g transform="translate(1473.2 584.11) rotate(72.585) scale(.08 -.08)">
<use xlink:href="#t"/>
</g>
</g>
<path d="m1493.1 586.97 3.1114 4.9598q1.2754 2.0331 3.3085 0.75767l6.5588-4.1145q2.0331-1.2754 0.75767-3.3085l-3.1114-4.9598q-1.2754-2.0331-3.3085-0.75767l-6.5588 4.1145q-2.0331 1.2754-0.75767 3.3085z" clip-path="url(#a)" fill="#fff" stroke="#fff"/>
<g clip-path="url(#a)">
<g transform="translate(1496.5 584.81) rotate(57.899) scale(.08 -.08)">
<use xlink:href="#ai"/>
</g>
</g>
<path d="m1351 720.02v35.285q0 2.4 2.4 2.4h7.7425q2.4 0 2.4-2.4v-35.285q0-2.4-2.4-2.4h-7.7425q-2.4 0-2.4 2.4z" clip-path="url(#a)" fill="#fff" stroke="#fff"/>
<g clip-path="url(#a)">
<g transform="translate(1355.1 720.02) rotate(90) scale(.08 -.08)">
<use xlink:href="#l"/>
<use x="60.818359" xlink:href="#d"/>
<use x="122.341797" xlink:href="#i"/>
<use x="163.439453" xlink:href="#k"/>
<use x="260.851562" xlink:href="#h"/>
<use x="288.634766" xlink:href="#j"/>
<use x="352.013672" xlink:href="#e"/>
<use x="413.292969" xlink:href="#g"/>
</g>
</g>
<path d="m1398.6 720.02v35.285q0 2.4 2.4 2.4h7.7425q2.4 0 2.4-2.4v-35.285q0-2.4-2.4-2.4h-7.7425q-2.4 0-2.4 2.4z" clip-path="url(#a)" fill="#fff" stroke="#fff"/>
<g clip-path="url(#a)">
<g transform="translate(1402.6 720.02) rotate(90) scale(.08 -.08)">
<use xlink:href="#l"/>
<use x="60.818359" xlink:href="#d"/>
<use x="122.341797" xlink:href="#i"/>
<use x="163.439453" xlink:href="#k"/>
<use x="260.851562" xlink:href="#h"/>
<use x="288.634766" xlink:href="#j"/>
<use x="352.013672" xlink:href="#e"/>
<use x="413.292969" xlink:href="#g"/>
</g>
</g>
<path d="m1446.1 720.02v35.285q0 2.4 2.4 2.4h7.7425q2.4 0 2.4-2.4v-35.285q0-2.4-2.4-2.4h-7.7425q-2.4 0-2.4 2.4z" clip-path="url(#a)" fill="#fff" stroke="#fff"/>
<g clip-path="url(#a)">
<g transform="translate(1450.2 720.02) rotate(90) scale(.08 -.08)">
<use xlink:href="#l"/>
<use x="60.818359" xlink:href="#d"/>
<use x="122.341797" xlink:href="#i"/>
<use x="163.439453" xlink:href="#k"/>
<use x="260.851562" xlink:href="#h"/>
<use x="288.634766" xlink:href="#j"/>
<use x="352.013672" xlink:href="#e"/>
<use x="413.292969" xlink:href="#g"/>
</g>
</g>
<path d="m1493.6 720.02v35.285q0 2.4 2.4 2.4h7.7425q2.4 0 2.4-2.4v-35.285q0-2.4-2.4-2.4h-7.7425q-2.4 0-2.4 2.4z" clip-path="url(#a)" fill="#fff" stroke="#fff"/>
<g clip-path="url(#a)">
<g transform="translate(1497.7 720.02) rotate(90) scale(.08 -.08)">
<use xlink:href="#l"/>
<use x="60.818359" xlink:href="#d"/>
<use x="122.341797" xlink:href="#i"/>
<use x="163.439453" xlink:href="#k"/>
<use x="260.851562" xlink:href="#h"/>
<use x="288.634766" xlink:href="#j"/>
<use x="352.013672" xlink:href="#e"/>
<use x="413.292969" xlink:href="#g"/>
</g>
</g>
<path d="m1208.4 720.02v35.285q0 2.4 2.4 2.4h7.7425q2.4 0 2.4-2.4v-35.285q0-2.4-2.4-2.4h-7.7425q-2.4 0-2.4 2.4z" clip-path="url(#a)" fill="#fff" stroke="#fff"/>
<g clip-path="url(#a)">
<g transform="translate(1212.5 720.02) rotate(90) scale(.08 -.08)">
<use xlink:href="#l"/>
<use x="60.818359" xlink:href="#d"/>
<use x="122.341797" xlink:href="#i"/>
<use x="163.439453" xlink:href="#k"/>
<use x="260.851562" xlink:href="#h"/>
<use x="288.634766" xlink:href="#j"/>
<use x="352.013672" xlink:href="#e"/>
<use x="413.292969" xlink:href="#g"/>
</g>
</g>
<path d="m1256 720.02v35.285q0 2.4 2.4 2.4h7.7425q2.4 0 2.4-2.4v-35.285q0-2.4-2.4-2.4h-7.7425q-2.4 0-2.4 2.4z" clip-path="url(#a)" fill="#fff" stroke="#fff"/>
<g clip-path="url(#a)">
<g transform="translate(1260 720.02) rotate(90) scale(.08 -.08)">
<use xlink:href="#l"/>
<use x="60.818359" xlink:href="#d"/>
<use x="122.341797" xlink:href="#i"/>
<use x="163.439453" xlink:href="#k"/>
<use x="260.851562" xlink:href="#h"/>
<use x="288.634766" xlink:href="#j"/>
<use x="352.013672" xlink:href="#e"/>
<use x="413.292969" xlink:href="#g"/>
</g>
</g>
<path d="m1303.5 720.02v35.285q0 2.4 2.4 2.4h7.7425q2.4 0 2.4-2.4v-35.285q0-2.4-2.4-2.4h-7.7425q-2.4 0-2.4 2.4z" clip-path="url(#a)" fill="#fff" stroke="#fff"/>
<g clip-path="url(#a)">
<g transform="translate(1307.6 720.02) rotate(90) scale(.08 -.08)">
<use xlink:href="#l"/>
<use x="60.818359" xlink:href="#d"/>
<use x="122.341797" xlink:href="#i"/>
<use x="163.439453" xlink:href="#k"/>
<use x="260.851562" xlink:href="#h"/>
<use x="288.634766" xlink:href="#j"/>
<use x="352.013672" xlink:href="#e"/>
<use x="413.292969" xlink:href="#g"/>
</g>
</g>
<path d="m1113.4 720.02v35.285q0 2.4 2.4 2.4h7.7425q2.4 0 2.4-2.4v-35.285q0-2.4-2.4-2.4h-7.7425q-2.4 0-2.4 2.4z" clip-path="url(#a)" fill="#fff" stroke="#fff"/>
<g clip-path="url(#a)">
<g transform="translate(1117.4 720.02) rotate(90) scale(.08 -.08)">
<use xlink:href="#l"/>
<use x="60.818359" xlink:href="#d"/>
<use x="122.341797" xlink:href="#i"/>
<use x="163.439453" xlink:href="#k"/>
<use x="260.851562" xlink:href="#h"/>
<use x="288.634766" xlink:href="#j"/>
<use x="352.013672" xlink:href="#e"/>
<use x="413.292969" xlink:href="#g"/>
</g>
</g>
<path d="m1160.9 720.02v35.285q0 2.4 2.4 2.4h7.7425q2.4 0 2.4-2.4v-35.285q0-2.4-2.4-2.4h-7.7425q-2.4 0-2.4 2.4z" clip-path="url(#a)" fill="#fff" stroke="#fff"/>
<g clip-path="url(#a)">
<g transform="translate(1165 720.02) rotate(90) scale(.08 -.08)">
<use xlink:href="#l"/>
<use x="60.818359" xlink:href="#d"/>
<use x="122.341797" xlink:href="#i"/>
<use x="163.439453" xlink:href="#k"/>
<use x="260.851562" xlink:href="#h"/>
<use x="288.634766" xlink:href="#j"/>
<use x="352.013672" xlink:href="#e"/>
<use x="413.292969" xlink:href="#g"/>
</g>
</g>
<path d="m447.89 720.02v35.285q0 2.4 2.4 2.4h7.7425q2.4 0 2.4-2.4v-35.285q0-2.4-2.4-2.4h-7.7425q-2.4 0-2.4 2.4z" clip-path="url(#a)" fill="#fff" stroke="#fff"/>
<g clip-path="url(#a)">
<g transform="translate(451.95 720.02) rotate(90) scale(.08 -.08)">
<use xlink:href="#l"/>
<use x="60.818359" xlink:href="#d"/>
<use x="122.341797" xlink:href="#i"/>
<use x="163.439453" xlink:href="#k"/>
<use x="260.851562" xlink:href="#h"/>
<use x="288.634766" xlink:href="#j"/>
<use x="352.013672" xlink:href="#e"/>
<use x="413.292969" xlink:href="#g"/>
</g>
</g>
<path d="m530.75 590.19 1.3771-4.3903q0.71829-2.29-1.5717-3.0083l-7.3876-2.3172q-2.29-0.71829-3.0083 1.5717l-1.3771 4.3903q-0.71829 2.29 1.5717 3.0083l7.3876 2.3172q2.29 0.71829 3.0083-1.5717z" clip-path="url(#a)" fill="#fff" stroke="#fff"/>
<g clip-path="url(#a)">
<g transform="translate(526.88 588.97) rotate(-72.585) scale(.08 -.08)">
<use xlink:href="#an"/>
</g>
</g>
<path d="m566.17 585.33 1.6719 5.3302q0.71829 2.29 3.0083 1.5717l7.3876-2.3172q2.29-0.71829 1.5717-3.0083l-1.6719-5.3302q-0.71829-2.29-3.0083-1.5717l-7.3876 2.3172q-2.29 0.71829-1.5717 3.0083z" clip-path="url(#a)" fill="#fff" stroke="#fff"/>
<g clip-path="url(#a)">
<g transform="translate(570.05 584.11) rotate(72.585) scale(.08 -.08)">
<use xlink:href="#t"/>
</g>
</g>
<path d="m542.95 720.02v35.285q0 2.4 2.4 2.4h7.7425q2.4 0 2.4-2.4v-35.285q0-2.4-2.4-2.4h-7.7425q-2.4 0-2.4 2.4z" clip-path="url(#a)" fill="#fff" stroke="#fff"/>
<g clip-path="url(#a)">
<g transform="translate(547.02 720.02) rotate(90) scale(.08 -.08)">
<use xlink:href="#l"/>
<use x="60.818359" xlink:href="#d"/>
<use x="122.341797" xlink:href="#i"/>
<use x="163.439453" xlink:href="#k"/>
<use x="260.851562" xlink:href="#h"/>
<use x="288.634766" xlink:href="#j"/>
<use x="352.013672" xlink:href="#e"/>
<use x="413.292969" xlink:href="#g"/>
</g>
</g>
<path d="m684.44 591.3 2.3665-5.0298q1.0217-2.1716-1.1499-3.1934l-7.0058-3.2962q-2.1716-1.0217-3.1934 1.1499l-2.3665 5.0298q-1.0217 2.1716 1.1499 3.1934l7.0058 3.2962q2.1716 1.0217 3.1934-1.1499z" clip-path="url(#a)" fill="#fff" stroke="#fff"/>
<g clip-path="url(#a)">
<g transform="translate(680.76 589.57) rotate(-64.803) scale(.08 -.08)">
<use xlink:href="#x"/>
</g>
</g>
<path d="m709.52 589.59 0.78321-4.994q0.37185-2.371-1.9992-2.7429l-7.649-1.1996q-2.371-0.37185-2.7429 1.9992l-0.78321 4.994q-0.37185 2.371 1.9992 2.7429l7.649 1.1996q2.371 0.37185 2.7429-1.9992z" clip-path="url(#a)" fill="#fff" stroke="#fff"/>
<g clip-path="url(#a)">
<g transform="translate(705.5 588.96) rotate(-81.087) scale(.08 -.08)">
<use xlink:href="#q"/>
</g>
</g>
<path d="m720.89 584.59 0.78321 4.994q0.37185 2.371 2.7429 1.9992l7.649-1.1996q2.371-0.37185 1.9992-2.7429l-0.78321-4.994q-0.37185-2.371-2.7429-1.9992l-7.649 1.1996q-2.371 0.37185-1.9992 2.7429z" clip-path="url(#a)" fill="#fff" stroke="#fff"/>
<g clip-path="url(#a)">
<g transform="translate(724.91 583.96) rotate(81.087) scale(.08 -.08)">
<use xlink:href="#q"/>
</g>
</g>
<path d="m744.38 586.26 2.3782 5.0547q1.0217 2.1716 3.1934 1.1499l7.0058-3.2962q2.1716-1.0217 1.1499-3.1934l-2.3782-5.0547q-1.0217-2.1716-3.1934-1.1499l-7.0058 3.2962q-2.1716 1.0217-1.1499 3.1934z" clip-path="url(#a)" fill="#fff" stroke="#fff"/>
<g clip-path="url(#a)">
<g transform="translate(748.06 584.53) rotate(64.803) scale(.08 -.08)">
<use xlink:href="#t"/>
</g>
</g>
<path d="m638.02 720.02v35.285q0 2.4 2.4 2.4h7.7425q2.4 0 2.4-2.4v-35.285q0-2.4-2.4-2.4h-7.7425q-2.4 0-2.4 2.4z" clip-path="url(#a)" fill="#fff" stroke="#fff"/>
<g clip-path="url(#a)">
<g transform="translate(642.09 720.02) rotate(90) scale(.08 -.08)">
<use xlink:href="#l"/>
<use x="60.818359" xlink:href="#d"/>
<use x="122.341797" xlink:href="#i"/>
<use x="163.439453" xlink:href="#k"/>
<use x="260.851562" xlink:href="#h"/>
<use x="288.634766" xlink:href="#j"/>
<use x="352.013672" xlink:href="#e"/>
<use x="413.292969" xlink:href="#g"/>
</g>
</g>
<path d="m685.56 720.02v35.285q0 2.4 2.4 2.4h7.7425q2.4 0 2.4-2.4v-35.285q0-2.4-2.4-2.4h-7.7425q-2.4 0-2.4 2.4z" clip-path="url(#a)" fill="#fff" stroke="#fff"/>
<g clip-path="url(#a)">
<g transform="translate(689.62 720.02) rotate(90) scale(.08 -.08)">
<use xlink:href="#l"/>
<use x="60.818359" xlink:href="#d"/>
<use x="122.341797" xlink:href="#i"/>
<use x="163.439453" xlink:href="#k"/>
<use x="260.851562" xlink:href="#h"/>
<use x="288.634766" xlink:href="#j"/>
<use x="352.013672" xlink:href="#e"/>
<use x="413.292969" xlink:href="#g"/>
</g>
</g>
<path d="m733.09 720.02v35.285q0 2.4 2.4 2.4h7.7425q2.4 0 2.4-2.4v-35.285q0-2.4-2.4-2.4h-7.7425q-2.4 0-2.4 2.4z" clip-path="url(#a)" fill="#fff" stroke="#fff"/>
<g clip-path="url(#a)">
<g transform="translate(737.16 720.02) rotate(90) scale(.08 -.08)">
<use xlink:href="#l"/>
<use x="60.818359" xlink:href="#d"/>
<use x="122.341797" xlink:href="#i"/>
<use x="163.439453" xlink:href="#k"/>
<use x="260.851562" xlink:href="#h"/>
<use x="288.634766" xlink:href="#j"/>
<use x="352.013672" xlink:href="#e"/>
<use x="413.292969" xlink:href="#g"/>
</g>
</g>
<path d="m780.63 720.02v35.285q0 2.4 2.4 2.4h7.7425q2.4 0 2.4-2.4v-35.285q0-2.4-2.4-2.4h-7.7425q-2.4 0-2.4 2.4z" clip-path="url(#a)" fill="#fff" stroke="#fff"/>
<g clip-path="url(#a)">
<g transform="translate(784.69 720.02) rotate(90) scale(.08 -.08)">
<use xlink:href="#l"/>
<use x="60.818359" xlink:href="#d"/>
<use x="122.341797" xlink:href="#i"/>
<use x="163.439453" xlink:href="#k"/>
<use x="260.851562" xlink:href="#h"/>
<use x="288.634766" xlink:href="#j"/>
<use x="352.013672" xlink:href="#e"/>
<use x="413.292969" xlink:href="#g"/>
</g>
</g>
<path d="m495.42 720.02v35.285q0 2.4 2.4 2.4h7.7425q2.4 0 2.4-2.4v-35.285q0-2.4-2.4-2.4h-7.7425q-2.4 0-2.4 2.4z" clip-path="url(#a)" fill="#fff" stroke="#fff"/>
<g clip-path="url(#a)">
<g transform="translate(499.48 720.02) rotate(90) scale(.08 -.08)">
<use xlink:href="#l"/>
<use x="60.818359" xlink:href="#d"/>
<use x="122.341797" xlink:href="#i"/>
<use x="163.439453" xlink:href="#k"/>
<use x="260.851562" xlink:href="#h"/>
<use x="288.634766" xlink:href="#j"/>
<use x="352.013672" xlink:href="#e"/>
<use x="413.292969" xlink:href="#g"/>
</g>
</g>
<path d="m590.49 720.02v35.285q0 2.4 2.4 2.4h7.7425q2.4 0 2.4-2.4v-35.285q0-2.4-2.4-2.4h-7.7425q-2.4 0-2.4 2.4z" clip-path="url(#a)" fill="#fff" stroke="#fff"/>
<g clip-path="url(#a)">
<g transform="translate(594.55 720.02) rotate(90) scale(.08 -.08)">
<use xlink:href="#l"/>
<use x="60.818359" xlink:href="#d"/>
<use x="122.341797" xlink:href="#i"/>
<use x="163.439453" xlink:href="#k"/>
<use x="260.851562" xlink:href="#h"/>
<use x="288.634766" xlink:href="#j"/>
<use x="352.013672" xlink:href="#e"/>
<use x="413.292969" xlink:href="#g"/>
</g>
</g>
<path d="m91.567 589.59 0.78321-4.994q0.37185-2.371-1.9992-2.7429l-7.649-1.1996q-2.371-0.37185-2.7429 1.9992l-0.78321 4.994q-0.37185 2.371 1.9992 2.7429l7.649 1.1996q2.371 0.37185 2.7429-1.9992z" clip-path="url(#a)" fill="#fff" stroke="#fff"/>
<g clip-path="url(#a)">
<g transform="translate(87.553 588.96) rotate(-81.087) scale(.08 -.08)">
<use xlink:href="#q"/>
</g>
</g>
<path d="m102.9 584.33 0.86552 5.5188q0.37185 2.371 2.7429 1.9992l7.649-1.1996q2.371-0.37185 1.9992-2.7429l-0.86552-5.5188q-0.37185-2.371-2.7429-1.9992l-7.649 1.1996q-2.371 0.37185-1.9992 2.7429z" clip-path="url(#a)" fill="#fff" stroke="#fff"/>
<g clip-path="url(#a)">
<g transform="translate(106.92 583.7) rotate(81.087) scale(.08 -.08)">
<use xlink:href="#t"/>
</g>
</g>
<path d="m212.97 513.52 1.3639-5.3888q0.58885-2.3266-1.7378-2.9155l-7.5058-1.8997q-2.3266-0.58885-2.9155 1.7378l-1.3639 5.3888q-0.58885 2.3266 1.7378 2.9155l7.5058 1.8997q2.3266 0.58885 2.9155-1.7378z" clip-path="url(#a)" fill="#fff" stroke="#fff"/>
<g clip-path="url(#a)">
<g transform="translate(209.03 512.53) rotate(-75.797) scale(.08 -.08)">
<use xlink:href="#x"/>
</g>
</g>
<path d="m237.34 512.41 0.48975-5.0312q0.23252-2.3887-2.1562-2.6212l-7.7061-0.75013q-2.3887-0.23252-2.6212 2.1562l-0.48975 5.0312q-0.23252 2.3887 2.1562 2.6212l7.7061 0.75013q2.3887 0.23252 2.6212-2.1562z" clip-path="url(#a)" fill="#fff" stroke="#fff"/>
<g clip-path="url(#a)">
<g transform="translate(233.29 512.02) rotate(-84.44) scale(.08 -.08)">
<use xlink:href="#q"/>
</g>
</g>
<path d="m248.68 506.87 0.32571 5.5767q0.13994 2.3959 2.5359 2.256l7.7293-0.45144q2.3959-0.13994 2.256-2.5359l-0.32571-5.5767q-0.13994-2.3959-2.5359-2.256l-7.7293 0.45144q-2.3959 0.13994-2.256 2.5359z" clip-path="url(#a)" fill="#fff" stroke="#fff"/>
<g clip-path="url(#a)">
<g transform="translate(252.74 506.63) rotate(86.657) scale(.08 -.08)">
<use xlink:href="#t"/>
</g>
</g>
<path d="m284.06 434.48 2.5364 4.3726q1.2042 2.076 3.2802 0.87183l6.6974-3.8848q2.076-1.2042 0.87183-3.2802l-2.5364-4.3726q-1.2042-2.076-3.2802-0.87183l-6.6974 3.8848q-2.076 1.2042-0.87183 3.2802z" clip-path="url(#a)" fill="#fff" stroke="#fff"/>
<g clip-path="url(#a)">
<g transform="translate(287.58 432.44) rotate(59.884) scale(.08 -.08)">
<use xlink:href="#q"/>
</g>
</g>
<path d="m162.68 720.02v35.285q0 2.4 2.4 2.4h7.7425q2.4 0 2.4-2.4v-35.285q0-2.4-2.4-2.4h-7.7425q-2.4 0-2.4 2.4z" clip-path="url(#a)" fill="#fff" stroke="#fff"/>
<g clip-path="url(#a)">
<g transform="translate(166.74 720.02) rotate(90) scale(.08 -.08)">
<use xlink:href="#l"/>
<use x="60.818359" xlink:href="#d"/>
<use x="122.341797" xlink:href="#i"/>
<use x="163.439453" xlink:href="#k"/>
<use x="260.851562" xlink:href="#h"/>
<use x="288.634766" xlink:href="#j"/>
<use x="352.013672" xlink:href="#e"/>
<use x="413.292969" xlink:href="#g"/>
</g>
</g>
<path d="m210.21 720.02v35.285q0 2.4 2.4 2.4h7.7425q2.4 0 2.4-2.4v-35.285q0-2.4-2.4-2.4h-7.7425q-2.4 0-2.4 2.4z" clip-path="url(#a)" fill="#fff" stroke="#fff"/>
<g clip-path="url(#a)">
<g transform="translate(214.28 720.02) rotate(90) scale(.08 -.08)">
<use xlink:href="#l"/>
<use x="60.818359" xlink:href="#d"/>
<use x="122.341797" xlink:href="#i"/>
<use x="163.439453" xlink:href="#k"/>
<use x="260.851562" xlink:href="#h"/>
<use x="288.634766" xlink:href="#j"/>
<use x="352.013672" xlink:href="#e"/>
<use x="413.292969" xlink:href="#g"/>
</g>
</g>
<path d="m257.75 720.02v35.285q0 2.4 2.4 2.4h7.7425q2.4 0 2.4-2.4v-35.285q0-2.4-2.4-2.4h-7.7425q-2.4 0-2.4 2.4z" clip-path="url(#a)" fill="#fff" stroke="#fff"/>
<g clip-path="url(#a)">
<g transform="translate(261.81 720.02) rotate(90) scale(.08 -.08)">
<use xlink:href="#l"/>
<use x="60.818359" xlink:href="#d"/>
<use x="122.341797" xlink:href="#i"/>
<use x="163.439453" xlink:href="#k"/>
<use x="260.851562" xlink:href="#h"/>
<use x="288.634766" xlink:href="#j"/>
<use x="352.013672" xlink:href="#e"/>
<use x="413.292969" xlink:href="#g"/>
</g>
</g>
<path d="m329.2 589.84 0.86126-5.4916q0.37185-2.371-1.9992-2.7429l-7.649-1.1996q-2.371-0.37185-2.7429 1.9992l-0.86126 5.4916q-0.37185 2.371 1.9992 2.7429l7.649 1.1996q2.371 0.37185 2.7429-1.9992z" clip-path="url(#a)" fill="#fff" stroke="#fff"/>
<g clip-path="url(#a)">
<g transform="translate(325.19 589.21) rotate(-81.087) scale(.08 -.08)">
<use xlink:href="#x"/>
</g>
</g>
<path d="m340.58 584.33 0.86552 5.5188q0.37185 2.371 2.7429 1.9992l7.649-1.1996q2.371-0.37185 1.9992-2.7429l-0.86552-5.5188q-0.37185-2.371-2.7429-1.9992l-7.649 1.1996q-2.371 0.37185-1.9992 2.7429z" clip-path="url(#a)" fill="#fff" stroke="#fff"/>
<g clip-path="url(#a)">
<g transform="translate(344.59 583.7) rotate(81.087) scale(.08 -.08)">
<use xlink:href="#t"/>
</g>
</g>
<path d="m305.28 720.02v35.285q0 2.4 2.4 2.4h7.7425q2.4 0 2.4-2.4v-35.285q0-2.4-2.4-2.4h-7.7425q-2.4 0-2.4 2.4z" clip-path="url(#a)" fill="#fff" stroke="#fff"/>
<g clip-path="url(#a)">
<g transform="translate(309.35 720.02) rotate(90) scale(.08 -.08)">
<use xlink:href="#l"/>
<use x="60.818359" xlink:href="#d"/>
<use x="122.341797" xlink:href="#i"/>
<use x="163.439453" xlink:href="#k"/>
<use x="260.851562" xlink:href="#h"/>
<use x="288.634766" xlink:href="#j"/>
<use x="352.013672" xlink:href="#e"/>
<use x="413.292969" xlink:href="#g"/>
</g>
</g>
<path d="m352.82 720.02v35.285q0 2.4 2.4 2.4h7.7425q2.4 0 2.4-2.4v-35.285q0-2.4-2.4-2.4h-7.7425q-2.4 0-2.4 2.4z" clip-path="url(#a)" fill="#fff" stroke="#fff"/>
<g clip-path="url(#a)">
<g transform="translate(356.88 720.02) rotate(90) scale(.08 -.08)">
<use xlink:href="#l"/>
<use x="60.818359" xlink:href="#d"/>
<use x="122.341797" xlink:href="#i"/>
<use x="163.439453" xlink:href="#k"/>
<use x="260.851562" xlink:href="#h"/>
<use x="288.634766" xlink:href="#j"/>
<use x="352.013672" xlink:href="#e"/>
<use x="413.292969" xlink:href="#g"/>
</g>
</g>
<path d="m67.609 720.02v35.285q0 2.4 2.4 2.4h7.7425q2.4 0 2.4-2.4v-35.285q0-2.4-2.4-2.4h-7.7425q-2.4 0-2.4 2.4z" clip-path="url(#a)" fill="#fff" stroke="#fff"/>
<g clip-path="url(#a)">
<g transform="translate(71.672 720.02) rotate(90) scale(.08 -.08)">
<use xlink:href="#l"/>
<use x="60.818359" xlink:href="#d"/>
<use x="122.341797" xlink:href="#i"/>
<use x="163.439453" xlink:href="#k"/>
<use x="260.851562" xlink:href="#h"/>
<use x="288.634766" xlink:href="#j"/>
<use x="352.013672" xlink:href="#e"/>
<use x="413.292969" xlink:href="#g"/>
</g>
</g>
<path d="m115.14 720.02v35.285q0 2.4 2.4 2.4h7.7425q2.4 0 2.4-2.4v-35.285q0-2.4-2.4-2.4h-7.7425q-2.4 0-2.4 2.4z" clip-path="url(#a)" fill="#fff" stroke="#fff"/>
<g clip-path="url(#a)">
<g transform="translate(119.21 720.02) rotate(90) scale(.08 -.08)">
<use xlink:href="#l"/>
<use x="60.818359" xlink:href="#d"/>
<use x="122.341797" xlink:href="#i"/>
<use x="163.439453" xlink:href="#k"/>
<use x="260.851562" xlink:href="#h"/>
<use x="288.634766" xlink:href="#j"/>
<use x="352.013672" xlink:href="#e"/>
<use x="413.292969" xlink:href="#g"/>
</g>
</g>
<path d="m700.17 206.12 6.3434-7.643q1.5328-1.8468-0.31404-3.3796l-5.9578-4.9447q-1.8468-1.5328-3.3796 0.31404l-6.3434 7.643q-1.5328 1.8468 0.31404 3.3796l5.9578 4.9447q1.8468 1.5328 3.3796-0.31404z" clip-path="url(#a)" fill="#fff" stroke="#fff"/>
<g clip-path="url(#a)">
<g transform="translate(697.04 203.52) rotate(-50.309) scale(.08 -.08)">
<use xlink:href="#af"/>
<use x="55.744141" xlink:href="#p"/>
</g>
</g>
<path d="m849.31 346.43 0.83432 9.9814q0.19991 2.3917 2.5916 2.1917l7.7156-0.64493q2.3917-0.19991 2.1917-2.5916l-0.83432-9.9814q-0.19991-2.3917-2.5916-2.1917l-7.7156 0.64492q-2.3917 0.19991-2.1917 2.5916z" clip-path="url(#a)" fill="#fff" stroke="#fff"/>
<g clip-path="url(#a)">
<g transform="translate(853.36 346.09) rotate(85.222) scale(.08 -.08)">
<use xlink:href="#af"/>
<use x="55.712891" xlink:href="#x"/>
</g>
</g>
<path d="m927.7 121.98 7.9102 6.0069q1.9114 1.4515 3.3628-0.45989l4.6825-6.1661q1.4515-1.9114-0.45989-3.3628l-7.9102-6.0069q-1.9114-1.4515-3.3628 0.45989l-4.6825 6.1661q-1.4515 1.9114 0.45989 3.3628z" clip-path="url(#a)" fill="#fff" stroke="#fff"/>
<g clip-path="url(#a)">
<g transform="translate(930.15 118.74) rotate(37.213) scale(.08 -.08)">
<use xlink:href="#af"/>
<use x="55.744141" xlink:href="#p"/>
</g>
</g>
<path d="m400.35 720.02v35.285q0 2.4 2.4 2.4h7.7425q2.4 0 2.4-2.4v-35.285q0-2.4-2.4-2.4h-7.7425q-2.4 0-2.4 2.4z" clip-path="url(#a)" fill="#fff" stroke="#fff"/>
<g clip-path="url(#a)">
<g transform="translate(404.41 720.02) rotate(90) scale(.08 -.08)">
<use xlink:href="#l"/>
<use x="60.818359" xlink:href="#d"/>
<use x="122.341797" xlink:href="#i"/>
<use x="163.439453" xlink:href="#k"/>
<use x="260.851562" xlink:href="#h"/>
<use x="288.634766" xlink:href="#j"/>
<use x="352.013672" xlink:href="#e"/>
<use x="413.292969" xlink:href="#g"/>
</g>
</g>
<path d="m828.16 720.02v35.285q0 2.4 2.4 2.4h7.7425q2.4 0 2.4-2.4v-35.285q0-2.4-2.4-2.4h-7.7425q-2.4 0-2.4 2.4z" clip-path="url(#a)" fill="#fff" stroke="#fff"/>
<g clip-path="url(#a)">
<g transform="translate(832.23 720.02) rotate(90) scale(.08 -.08)">
<use xlink:href="#l"/>
<use x="60.818359" xlink:href="#d"/>
<use x="122.341797" xlink:href="#i"/>
<use x="163.439453" xlink:href="#k"/>
<use x="260.851562" xlink:href="#h"/>
<use x="288.634766" xlink:href="#j"/>
<use x="352.013672" xlink:href="#e"/>
<use x="413.292969" xlink:href="#g"/>
</g>
</g>
<path d="m1541.2 720.02v35.285q0 2.4 2.4 2.4h7.7425q2.4 0 2.4-2.4v-35.285q0-2.4-2.4-2.4h-7.7425q-2.4 0-2.4 2.4z" clip-path="url(#a)" fill="#fff" stroke="#fff"/>
<g clip-path="url(#a)">
<g transform="translate(1545.2 720.02) rotate(90) scale(.08 -.08)">
<use xlink:href="#l"/>
<use x="60.818359" xlink:href="#d"/>
<use x="122.341797" xlink:href="#i"/>
<use x="163.439453" xlink:href="#k"/>
<use x="260.851562" xlink:href="#h"/>
<use x="288.634766" xlink:href="#j"/>
<use x="352.013672" xlink:href="#e"/>
<use x="413.292969" xlink:href="#g"/>
</g>
</g>
<defs>
<path id="b" d="m0 8.6603c2.2967 0 4.4997-0.9125 6.1237-2.5365 1.624-1.624 2.5365-3.827 2.5365-6.1237s-0.9125-4.4997-2.5365-6.1237c-1.624-1.624-3.827-2.5365-6.1237-2.5365s-4.4997 0.9125-6.1237 2.5365c-1.624 1.624-2.5365 3.827-2.5365 6.1237s0.9125 4.4997 2.5365 6.1237c1.624 1.624 3.827 2.5365 6.1237 2.5365z"/>
</defs>
<g clip-path="url(#a)">
<use x="73.87978" y="813.438091" fill="#ffffff" stroke="#ffffff" xlink:href="#b"/>
</g>
<g clip-path="url(#a)">
<use x="121.414418" y="813.438091" fill="#ffffff" stroke="#ffffff" xlink:href="#b"/>
</g>
<g clip-path="url(#a)">
<use x="168.949056" y="813.438091" fill="#ffffff" stroke="#ffffff" xlink:href="#b"/>
</g>
<g clip-path="url(#a)">
<use x="216.483694" y="813.438091" fill="#ffffff" stroke="#ffffff" xlink:href="#b"/>
</g>
<g clip-path="url(#a)">
<use x="264.018332" y="813.438091" fill="#ffffff" stroke="#ffffff" xlink:href="#b"/>
</g>
<g clip-path="url(#a)">
<use x="311.552969" y="813.438091" fill="#ffffff" stroke="#ffffff" xlink:href="#b"/>
</g>
<g clip-path="url(#a)">
<use x="359.087607" y="813.438091" fill="#ffffff" stroke="#ffffff" xlink:href="#b"/>
</g>
<g clip-path="url(#a)">
<use x="406.622245" y="813.438091" fill="#ffffff" stroke="#ffffff" xlink:href="#b"/>
</g>
<g clip-path="url(#a)">
<use x="454.156883" y="813.438091" fill="#ffffff" stroke="#ffffff" xlink:href="#b"/>
</g>
<g clip-path="url(#a)">
<use x="501.691521" y="813.438091" fill="#ffffff" stroke="#ffffff" xlink:href="#b"/>
</g>
<g clip-path="url(#a)">
<use x="549.226159" y="813.438091" fill="#ffffff" stroke="#ffffff" xlink:href="#b"/>
</g>
<g clip-path="url(#a)">
<use x="596.760796" y="813.438091" fill="#ffffff" stroke="#ffffff" xlink:href="#b"/>
</g>
<g clip-path="url(#a)">
<use x="644.295434" y="813.438091" fill="#ffffff" stroke="#ffffff" xlink:href="#b"/>
</g>
<g clip-path="url(#a)">
<use x="691.830072" y="813.438091" fill="#ffffff" stroke="#ffffff" xlink:href="#b"/>
</g>
<g clip-path="url(#a)">
<use x="739.36471" y="813.438091" fill="#ffffff" stroke="#ffffff" xlink:href="#b"/>
</g>
<g clip-path="url(#a)">
<use x="786.899348" y="813.438091" fill="#ffffff" stroke="#ffffff" xlink:href="#b"/>
</g>
<g clip-path="url(#a)">
<use x="834.433986" y="813.438091" fill="#ffffff" stroke="#ffffff" xlink:href="#b"/>
</g>
<g clip-path="url(#a)">
<use x="881.968623" y="813.438091" fill="#ffffff" stroke="#ffffff" xlink:href="#b"/>
</g>
<g clip-path="url(#a)">
<use x="929.503261" y="813.438091" fill="#ffffff" stroke="#ffffff" xlink:href="#b"/>
</g>
<g clip-path="url(#a)">
<use x="977.037899" y="813.438091" fill="#ffffff" stroke="#ffffff" xlink:href="#b"/>
</g>
<g clip-path="url(#a)">
<use x="1024.572537" y="813.438091" fill="#ffffff" stroke="#ffffff" xlink:href="#b"/>
</g>
<g clip-path="url(#a)">
<use x="1072.107175" y="813.438091" fill="#ffffff" stroke="#ffffff" xlink:href="#b"/>
</g>
<g clip-path="url(#a)">
<use x="1119.641813" y="813.438091" fill="#ffffff" stroke="#ffffff" xlink:href="#b"/>
</g>
<g clip-path="url(#a)">
<use x="1167.17645" y="813.438091" fill="#ffffff" stroke="#ffffff" xlink:href="#b"/>
</g>
<g clip-path="url(#a)">
<use x="1214.711088" y="813.438091" fill="#ffffff" stroke="#ffffff" xlink:href="#b"/>
</g>
<g clip-path="url(#a)">
<use x="1262.245726" y="813.438091" fill="#ffffff" stroke="#ffffff" xlink:href="#b"/>
</g>
<g clip-path="url(#a)">
<use x="1309.780364" y="813.438091" fill="#ffffff" stroke="#ffffff" xlink:href="#b"/>
</g>
<g clip-path="url(#a)">
<use x="1357.315002" y="813.438091" fill="#ffffff" stroke="#ffffff" xlink:href="#b"/>
</g>
<g clip-path="url(#a)">
<use x="1404.84964" y="813.438091" fill="#ffffff" stroke="#ffffff" xlink:href="#b"/>
</g>
<g clip-path="url(#a)">
<use x="1452.384278" y="813.438091" fill="#ffffff" stroke="#ffffff" xlink:href="#b"/>
</g>
<g clip-path="url(#a)">
<use x="1499.918915" y="813.438091" fill="#ffffff" stroke="#ffffff" xlink:href="#b"/>
</g>
<g clip-path="url(#a)">
<use x="1547.453553" y="813.438091" fill="#ffffff" stroke="#ffffff" xlink:href="#b"/>
</g>
<g clip-path="url(#a)">
<use x="725.104319" y="39.895242" fill="#ffffff" stroke="#ffffff" xlink:href="#b"/>
</g>
<g clip-path="url(#a)">
<use x="301.154767" y="200.077102" fill="#ffffff" stroke="#ffffff" xlink:href="#b"/>
</g>
<g clip-path="url(#a)">
<use x="567.051648" y="356.690491" fill="#ffffff" stroke="#ffffff" xlink:href="#b"/>
</g>
<g clip-path="url(#a)">
<use x="881.968623" y="661.891617" fill="#ffffff" stroke="#ffffff" xlink:href="#b"/>
</g>
<g clip-path="url(#a)">
<use x="1040.912569" y="200.077102" fill="#ffffff" stroke="#ffffff" xlink:href="#b"/>
</g>
<g clip-path="url(#a)">
<use x="929.503261" y="661.891617" fill="#ffffff" stroke="#ffffff" xlink:href="#b"/>
</g>
<g clip-path="url(#a)">
<use x="977.037899" y="661.891617" fill="#ffffff" stroke="#ffffff" xlink:href="#b"/>
</g>
<g clip-path="url(#a)">
<use x="1024.572537" y="661.891617" fill="#ffffff" stroke="#ffffff" xlink:href="#b"/>
</g>
<g clip-path="url(#a)">
<use x="1232.536577" y="356.690491" fill="#ffffff" stroke="#ffffff" xlink:href="#b"/>
</g>
<g clip-path="url(#a)">
<use x="1072.107175" y="661.891617" fill="#ffffff" stroke="#ffffff" xlink:href="#b"/>
</g>
<g clip-path="url(#a)">
<use x="1143.409132" y="510.345143" fill="#ffffff" stroke="#ffffff" xlink:href="#b"/>
</g>
<g clip-path="url(#a)">
<use x="1262.245726" y="510.345143" fill="#ffffff" stroke="#ffffff" xlink:href="#b"/>
</g>
<g clip-path="url(#a)">
<use x="1452.384278" y="510.345143" fill="#ffffff" stroke="#ffffff" xlink:href="#b"/>
</g>
<g clip-path="url(#a)">
<use x="1357.315002" y="661.891617" fill="#ffffff" stroke="#ffffff" xlink:href="#b"/>
</g>
<g clip-path="url(#a)">
<use x="1404.84964" y="661.891617" fill="#ffffff" stroke="#ffffff" xlink:href="#b"/>
</g>
<g clip-path="url(#a)">
<use x="1452.384278" y="661.891617" fill="#ffffff" stroke="#ffffff" xlink:href="#b"/>
</g>
<g clip-path="url(#a)">
<use x="1499.918915" y="661.891617" fill="#ffffff" stroke="#ffffff" xlink:href="#b"/>
</g>
<g clip-path="url(#a)">
<use x="1214.711088" y="661.891617" fill="#ffffff" stroke="#ffffff" xlink:href="#b"/>
</g>
<g clip-path="url(#a)">
<use x="1262.245726" y="661.891617" fill="#ffffff" stroke="#ffffff" xlink:href="#b"/>
</g>
<g clip-path="url(#a)">
<use x="1309.780364" y="661.891617" fill="#ffffff" stroke="#ffffff" xlink:href="#b"/>
</g>
<g clip-path="url(#a)">
<use x="1119.641813" y="661.891617" fill="#ffffff" stroke="#ffffff" xlink:href="#b"/>
</g>
<g clip-path="url(#a)">
<use x="1167.17645" y="661.891617" fill="#ffffff" stroke="#ffffff" xlink:href="#b"/>
</g>
<g clip-path="url(#a)">
<use x="454.156883" y="661.891617" fill="#ffffff" stroke="#ffffff" xlink:href="#b"/>
</g>
<g clip-path="url(#a)">
<use x="549.226159" y="510.345143" fill="#ffffff" stroke="#ffffff" xlink:href="#b"/>
</g>
<g clip-path="url(#a)">
<use x="549.226159" y="661.891617" fill="#ffffff" stroke="#ffffff" xlink:href="#b"/>
</g>
<g clip-path="url(#a)">
<use x="715.597391" y="510.345143" fill="#ffffff" stroke="#ffffff" xlink:href="#b"/>
</g>
<g clip-path="url(#a)">
<use x="644.295434" y="661.891617" fill="#ffffff" stroke="#ffffff" xlink:href="#b"/>
</g>
<g clip-path="url(#a)">
<use x="691.830072" y="661.891617" fill="#ffffff" stroke="#ffffff" xlink:href="#b"/>
</g>
<g clip-path="url(#a)">
<use x="739.36471" y="661.891617" fill="#ffffff" stroke="#ffffff" xlink:href="#b"/>
</g>
<g clip-path="url(#a)">
<use x="786.899348" y="661.891617" fill="#ffffff" stroke="#ffffff" xlink:href="#b"/>
</g>
<g clip-path="url(#a)">
<use x="501.691521" y="661.891617" fill="#ffffff" stroke="#ffffff" xlink:href="#b"/>
</g>
<g clip-path="url(#a)">
<use x="596.760796" y="661.891617" fill="#ffffff" stroke="#ffffff" xlink:href="#b"/>
</g>
<g clip-path="url(#a)">
<use x="97.647099" y="510.345143" fill="#ffffff" stroke="#ffffff" xlink:href="#b"/>
</g>
<g clip-path="url(#a)">
<use x="246.192842" y="356.690491" fill="#ffffff" stroke="#ffffff" xlink:href="#b"/>
</g>
<g clip-path="url(#a)">
<use x="168.949056" y="661.891617" fill="#ffffff" stroke="#ffffff" xlink:href="#b"/>
</g>
<g clip-path="url(#a)">
<use x="216.483694" y="661.891617" fill="#ffffff" stroke="#ffffff" xlink:href="#b"/>
</g>
<g clip-path="url(#a)">
<use x="264.018332" y="661.891617" fill="#ffffff" stroke="#ffffff" xlink:href="#b"/>
</g>
<g clip-path="url(#a)">
<use x="335.320288" y="510.345143" fill="#ffffff" stroke="#ffffff" xlink:href="#b"/>
</g>
<g clip-path="url(#a)">
<use x="311.552969" y="661.891617" fill="#ffffff" stroke="#ffffff" xlink:href="#b"/>
</g>
<g clip-path="url(#a)">
<use x="359.087607" y="661.891617" fill="#ffffff" stroke="#ffffff" xlink:href="#b"/>
</g>
<g clip-path="url(#a)">
<use x="73.87978" y="661.891617" fill="#ffffff" stroke="#ffffff" xlink:href="#b"/>
</g>
<g clip-path="url(#a)">
<use x="121.414418" y="661.891617" fill="#ffffff" stroke="#ffffff" xlink:href="#b"/>
</g>
<g clip-path="url(#a)">
<use x="829.977613" y="39.895242" fill="#808080" stroke="#808080" xlink:href="#b"/>
</g>
<g clip-path="url(#a)">
<use x="406.622245" y="661.891617" fill="#ffffff" stroke="#ffffff" xlink:href="#b"/>
</g>
<g clip-path="url(#a)">
<use x="834.433986" y="661.891617" fill="#ffffff" stroke="#ffffff" xlink:href="#b"/>
</g>
<g clip-path="url(#a)">
<use x="1547.453553" y="661.891617" fill="#ffffff" stroke="#ffffff" xlink:href="#b"/>
</g>
<g clip-path="url(#a)">
<defs>
<path id="as" d="m3.3281 72.906h9.9531l15.328-61.625 15.281 61.625h11.094l15.328-61.625 15.281 61.625h10.016l-18.312-72.906h-12.406l-15.375 63.281-15.531-63.281h-12.406z"/>
</defs>
<g transform="translate(63.085 816.2) scale(.1 -.1)">
<use xlink:href="#as"/>
<use x="98.798828" xlink:href="#d"/>
<use x="160.322266" xlink:href="#g"/>
<use x="188.105469" xlink:href="#g"/>
</g>
</g>
<g clip-path="url(#a)">
<defs>
<path id="aq" d="m2.9844 54.688h9.5156l17.094-45.891 17.094 45.891h9.5156l-20.516-54.688h-12.203z"/>
<path id="u" d="m44.281 53.078v-8.5q-3.7969 1.9531-7.9062 2.9219-4.0938 0.98438-8.5 0.98438-6.6875 0-10.031-2.0469t-3.3438-6.1562q0-3.125 2.3906-4.9062t9.625-3.3906l3.0781-0.6875q9.5625-2.0469 13.594-5.7812t4.0312-10.422q0-7.625-6.0312-12.078-6.0312-4.4375-16.578-4.4375-4.3906 0-9.1562 0.85938t-10.031 2.5625v9.2812q4.9844-2.5938 9.8125-3.8906 4.8281-1.2812 9.5781-1.2812 6.3438 0 9.75 2.1719 3.4219 2.1719 3.4219 6.125 0 3.6562-2.4688 5.6094-2.4531 1.9531-10.812 3.7656l-3.125 0.73438q-8.3438 1.75-12.062 5.3906-3.7031 3.6406-3.7031 9.9844 0 7.7188 5.4688 11.906 5.4688 4.2031 15.531 4.2031 4.9688 0 9.3594-0.73438 4.4062-0.71875 8.1094-2.1875z"/>
<path id="ad" d="m45.406 46.391v29.594h8.9844v-75.984h-8.9844v8.2031q-2.8281-4.875-7.1562-7.25-4.3125-2.375-10.375-2.375-9.9062 0-16.141 7.9062-6.2188 7.9219-6.2188 20.812t6.2188 20.797q6.2344 7.9062 16.141 7.9062 6.0625 0 10.375-2.375 4.3281-2.3594 7.1562-7.2344zm-30.609-19.094q0-9.9062 4.0781-15.547t11.203-5.6406 11.219 5.6406q4.1094 5.6406 4.1094 15.547t-4.1094 15.547q-4.0938 5.6406-11.219 5.6406t-11.203-5.6406-4.0781-15.547z"/>
</defs>
<g transform="translate(104.47 816.2) scale(.1 -.1)">
<use xlink:href="#aq"/>
<use x="59.179688" xlink:href="#d"/>
<use x="120.703125" xlink:href="#i"/>
<use x="161.816406" xlink:href="#u"/>
<use x="213.916016" xlink:href="#d"/>
<use x="275.439453" xlink:href="#ad"/>
</g>
</g>
<g clip-path="url(#a)">
<g transform="translate(164.39 816.2) scale(.1 -.1)">
<use xlink:href="#h"/>
<use x="27.783203" xlink:href="#j"/>
</g>
</g>
<g clip-path="url(#a)">
<defs>
<path id="r" d="m18.312 70.219v-15.531h18.5v-6.9844h-18.5v-29.688q0-6.6875 1.8281-8.5938t7.4531-1.9062h9.2188v-7.5156h-9.2188q-10.406 0-14.359 3.875-3.9531 3.8906-3.9531 14.141v29.688h-6.5938v6.9844h6.5938v15.531z"/>
<path id="v" d="m54.891 33.016v-33.016h-8.9844v32.719q0 7.7656-3.0312 11.609-3.0312 3.8594-9.0781 3.8594-7.2812 0-11.484-4.6406-4.2031-4.625-4.2031-12.641v-30.906h-9.0312v75.984h9.0312v-29.797q3.2344 4.9375 7.5938 7.375 4.375 2.4375 10.094 2.4375 9.4219 0 14.25-5.8281 4.8438-5.8281 4.8438-17.156z"/>
</defs>
<g transform="translate(208.28 816.2) scale(.1 -.1)">
<use xlink:href="#r"/>
<use x="39.208984" xlink:href="#v"/>
<use x="102.587891" xlink:href="#d"/>
</g>
</g>
<g clip-path="url(#a)">
<defs>
<path id="s" d="m30.609 48.391q-7.2188 0-11.422-5.6406t-4.2031-15.453 4.1719-15.453q4.1875-5.6406 11.453-5.6406 7.1875 0 11.375 5.6562 4.2031 5.6719 4.2031 15.438 0 9.7188-4.2031 15.406-4.1875 5.6875-11.375 5.6875zm0 7.6094q11.719 0 18.406-7.625 6.7031-7.6094 6.7031-21.078 0-13.422-6.7031-21.078-6.6875-7.6406-18.406-7.6406-11.766 0-18.438 7.6406-6.6562 7.6562-6.6562 21.078 0 13.469 6.6562 21.078 6.6719 7.625 18.438 7.625z"/>
<path id="ap" d="m32.172-5.0781q-3.7969-9.7656-7.4219-12.734-3.6094-2.9844-9.6562-2.9844h-7.1875v7.5156h5.2812q3.7031 0 5.75 1.7656 2.0625 1.75 4.5469 8.2969l1.6094 4.0938-22.109 53.812h9.5156l17.094-42.766 17.094 42.766h9.5156z"/>
</defs>
<g transform="translate(247.74 816.2) scale(.1 -.1)">
<use xlink:href="#r"/>
<use x="39.208984" xlink:href="#v"/>
<use x="102.587891" xlink:href="#d"/>
<use x="164.111328" xlink:href="#s"/>
<use x="225.292969" xlink:href="#i"/>
<use x="266.40625" xlink:href="#ap"/>
</g>
</g>
<g clip-path="url(#a)">
<defs>
<path id="al" d="m37.109 75.984v-7.4844h-8.5938q-4.8281 0-6.7188-1.9531-1.875-1.9531-1.875-7.0312v-4.8281h14.797v-6.9844h-14.797v-47.703h-9.0312v47.703h-8.5938v6.9844h8.5938v3.8125q0 9.125 4.25 13.297 4.25 4.1875 13.469 4.1875z"/>
</defs>
<g transform="translate(306.73 816.2) scale(.1 -.1)">
<use xlink:href="#s"/>
<use x="61.181641" xlink:href="#al"/>
</g>
</g>
<g clip-path="url(#a)">
<defs>
<path id="w" d="m48.781 52.594v-8.4062q-3.8125 2.1094-7.6406 3.1562t-7.7344 1.0469q-8.75 0-13.594-5.5469-4.8281-5.5312-4.8281-15.547t4.8281-15.562q4.8438-5.5312 13.594-5.5312 3.9062 0 7.7344 1.0469t7.6406 3.1562v-8.3125q-3.7656-1.75-7.7969-2.625-4.0156-0.89062-8.5625-0.89062-12.359 0-19.641 7.7656-7.2656 7.7656-7.2656 20.953 0 13.375 7.3438 21.031 7.3594 7.6719 20.156 7.6719 4.1406 0 8.0938-0.85938 3.9531-0.84375 7.6719-2.5469z"/>
</defs>
<g transform="translate(326.75 816.2) scale(.1 -.1)">
<use xlink:href="#w"/>
<use x="54.980469" xlink:href="#g"/>
<use x="82.763672" xlink:href="#e"/>
<use x="144.042969" xlink:href="#u"/>
<use x="196.142578" xlink:href="#u"/>
<use x="248.242188" xlink:href="#h"/>
<use x="276.025391" xlink:href="#al"/>
<use x="311.230469" xlink:href="#h"/>
<use x="339.013672" xlink:href="#w"/>
<use x="393.994141" xlink:href="#e"/>
<use x="455.273438" xlink:href="#r"/>
<use x="494.482422" xlink:href="#h"/>
<use x="522.265625" xlink:href="#s"/>
<use x="583.447266" xlink:href="#j"/>
</g>
</g>
<g clip-path="url(#a)">
<defs>
<path id="ao" d="m11.719 12.406h10.297v-8.4062l-8-15.625h-6.2969l4 15.625z"/>
</defs>
<g transform="translate(405.03 816.2) scale(.1 -.1)">
<use xlink:href="#ao"/>
</g>
</g>
<g clip-path="url(#a)">
<g transform="translate(447.91 816.2) scale(.1 -.1)">
<use xlink:href="#v"/>
<use x="63.378906" xlink:href="#d"/>
</g>
</g>
<g clip-path="url(#a)">
<defs>
<path id="ak" d="m4.2031 54.688h8.9844l11.234-42.672 11.172 42.672h10.594l11.234-42.672 11.188 42.672h8.9844l-14.312-54.688h-10.594l-11.766 44.828-11.812-44.828h-10.609z"/>
</defs>
<g transform="translate(491.93 816.2) scale(.1 -.1)">
<use xlink:href="#ak"/>
<use x="81.787109" xlink:href="#e"/>
<use x="143.066406" xlink:href="#u"/>
</g>
</g>
<g clip-path="url(#a)">
<defs>
<path id="ac" d="m18.109 8.2031v-29h-9.0312v75.484h9.0312v-8.2969q2.8438 4.875 7.1562 7.2344 4.3281 2.375 10.328 2.375 9.9688 0 16.188-7.9062 6.2344-7.9062 6.2344-20.797t-6.2344-20.812q-6.2188-7.9062-16.188-7.9062-6 0-10.328 2.375-4.3125 2.375-7.1562 7.25zm30.578 19.094q0 9.9062-4.0781 15.547t-11.203 5.6406q-7.1406 0-11.219-5.6406t-4.0781-15.547 4.0781-15.547 11.219-5.6406q7.125 0 11.203 5.6406t4.0781 15.547z"/>
</defs>
<g transform="translate(533.53 816.2) scale(.1 -.1)">
<use xlink:href="#ac"/>
<use x="63.476562" xlink:href="#s"/>
<use x="124.658203" xlink:href="#s"/>
<use x="185.839844" xlink:href="#i"/>
<use x="226.953125" xlink:href="#g"/>
<use x="254.736328" xlink:href="#ap"/>
</g>
</g>
<g clip-path="url(#a)">
<g transform="translate(579.81 816.2) scale(.1 -.1)">
<use xlink:href="#aq"/>
<use x="59.179688" xlink:href="#d"/>
<use x="120.703125" xlink:href="#i"/>
<use x="161.816406" xlink:href="#u"/>
<use x="213.916016" xlink:href="#d"/>
<use x="275.439453" xlink:href="#ad"/>
</g>
</g>
<g clip-path="url(#a)">
<g transform="translate(639.74 816.2) scale(.1 -.1)">
<use xlink:href="#h"/>
<use x="27.783203" xlink:href="#j"/>
</g>
</g>
<g clip-path="url(#a)">
<g transform="translate(685.88 816.2) scale(.1 -.1)">
<use xlink:href="#h"/>
<use x="27.783203" xlink:href="#r"/>
<use x="66.992188" xlink:href="#u"/>
</g>
</g>
<g clip-path="url(#a)">
<g transform="translate(717.77 816.2) scale(.1 -.1)">
<use xlink:href="#ac"/>
<use x="63.476562" xlink:href="#i"/>
<use x="104.589844" xlink:href="#e"/>
<use x="165.869141" xlink:href="#w"/>
<use x="220.849609" xlink:href="#r"/>
<use x="260.058594" xlink:href="#h"/>
<use x="287.841797" xlink:href="#w"/>
<use x="342.822266" xlink:href="#e"/>
<use x="404.101562" xlink:href="#g"/>
</g>
</g>
<g clip-path="url(#a)">
<g transform="translate(759.32 816.2) scale(.1 -.1)">
<use xlink:href="#e"/>
<use x="61.279297" xlink:href="#ac"/>
<use x="124.755859" xlink:href="#ac"/>
<use x="188.232422" xlink:href="#g"/>
<use x="216.015625" xlink:href="#h"/>
<use x="243.798828" xlink:href="#w"/>
<use x="298.779297" xlink:href="#e"/>
<use x="360.058594" xlink:href="#r"/>
<use x="399.267578" xlink:href="#h"/>
<use x="427.050781" xlink:href="#s"/>
<use x="488.232422" xlink:href="#j"/>
</g>
</g>
<g clip-path="url(#a)">
<g transform="translate(832.84 816.2) scale(.1 -.1)">
<use xlink:href="#ao"/>
</g>
</g>
<g clip-path="url(#a)">
<g transform="translate(872.56 816.2) scale(.1 -.1)">
<use xlink:href="#e"/>
<use x="61.279297" xlink:href="#j"/>
<use x="124.658203" xlink:href="#ad"/>
</g>
</g>
<g clip-path="url(#a)">
<defs>
<path id="at" d="m9.8125 72.906h9.8594v-72.906h-9.8594z"/>
</defs>
<g transform="translate(928.03 816.2) scale(.1 -.1)">
<use xlink:href="#at"/>
</g>
</g>
<g clip-path="url(#a)">
<defs>
<path id="ar" d="m8.5 21.578v33.109h8.9844v-32.766q0-7.7656 3.0156-11.656 3.0312-3.875 9.0938-3.875 7.2656 0 11.484 4.6406 4.2344 4.6406 4.2344 12.656v31h8.9844v-54.688h-8.9844v8.4062q-3.2656-4.9844-7.5938-7.4062-4.3125-2.4219-10.031-2.4219-9.4219 0-14.312 5.8594-4.875 5.8594-4.875 17.141z"/>
<path id="am" d="m48.688 27.297q0 9.9062-4.0781 15.547t-11.203 5.6406q-7.1406 0-11.219-5.6406t-4.0781-15.547 4.0781-15.547 11.219-5.6406q7.125 0 11.203 5.6406t4.0781 15.547zm-30.578 19.094q2.8438 4.875 7.1562 7.2344 4.3281 2.375 10.328 2.375 9.9688 0 16.188-7.9062 6.2344-7.9062 6.2344-20.797t-6.2344-20.812q-6.2188-7.9062-16.188-7.9062-6 0-10.328 2.375-4.3125 2.375-7.1562 7.25v-8.2031h-9.0312v75.984h9.0312z"/>
</defs>
<g transform="translate(962.5 816.2) scale(.1 -.1)">
<use xlink:href="#ad"/>
<use x="63.476562" xlink:href="#s"/>
<use x="124.658203" xlink:href="#ar"/>
<use x="188.037109" xlink:href="#am"/>
<use x="251.513672" xlink:href="#r"/>
</g>
</g>
<g clip-path="url(#a)">
<g transform="translate(1014.4 816.2) scale(.1 -.1)">
<use xlink:href="#r"/>
<use x="39.208984" xlink:href="#v"/>
<use x="102.587891" xlink:href="#e"/>
<use x="163.867188" xlink:href="#r"/>
</g>
</g>
<g clip-path="url(#a)">
<g transform="translate(1065.9 816.2) scale(.1 -.1)">
<use xlink:href="#v"/>
<use x="63.378906" xlink:href="#d"/>
</g>
</g>
<g clip-path="url(#a)">
<g transform="translate(1106.1 816.2) scale(.1 -.1)">
<use xlink:href="#w"/>
<use x="54.980469" xlink:href="#s"/>
<use x="116.162109" xlink:href="#ar"/>
<use x="179.541016" xlink:href="#g"/>
<use x="207.324219" xlink:href="#ad"/>
</g>
</g>
<g clip-path="url(#a)">
<g transform="translate(1159.4 816.2) scale(.1 -.1)">
<use xlink:href="#r"/>
<use x="39.208984" xlink:href="#d"/>
<use x="100.732422" xlink:href="#g"/>
<use x="128.515625" xlink:href="#g"/>
</g>
</g>
<g clip-path="url(#a)">
<g transform="translate(1211.6 816.2) scale(.1 -.1)">
<use xlink:href="#e"/>
</g>
</g>
<g clip-path="url(#a)">
<g transform="translate(1246.5 816.2) scale(.1 -.1)">
<use xlink:href="#u"/>
<use x="52.099609" xlink:href="#ac"/>
<use x="115.576172" xlink:href="#d"/>
<use x="177.099609" xlink:href="#i"/>
<use x="218.197266" xlink:href="#k"/>
</g>
</g>
<g clip-path="url(#a)">
<g transform="translate(1295 816.2) scale(.1 -.1)">
<use xlink:href="#ak"/>
<use x="81.787109" xlink:href="#v"/>
<use x="145.166016" xlink:href="#e"/>
<use x="206.445312" xlink:href="#g"/>
<use x="234.228516" xlink:href="#d"/>
</g>
</g>
<g clip-path="url(#a)">
<g transform="translate(1345.6 816.2) scale(.1 -.1)">
<use xlink:href="#al"/>
<use x="35.205078" xlink:href="#i"/>
<use x="76.287109" xlink:href="#s"/>
<use x="137.46875" xlink:href="#k"/>
</g>
</g>
<g clip-path="url(#a)">
<g transform="translate(1401.8 816.2) scale(.1 -.1)">
<use xlink:href="#e"/>
</g>
</g>
<g clip-path="url(#a)">
<g transform="translate(1435.4 816.2) scale(.1 -.1)">
<use xlink:href="#am"/>
<use x="63.476562" xlink:href="#e"/>
<use x="124.755859" xlink:href="#g"/>
<use x="152.539062" xlink:href="#d"/>
<use x="214.0625" xlink:href="#d"/>
<use x="275.585938" xlink:href="#j"/>
</g>
</g>
<g clip-path="url(#a)">
<g transform="translate(1485.1 816.2) scale(.1 -.1)">
<use xlink:href="#ak"/>
<use x="81.787109" xlink:href="#v"/>
<use x="145.166016" xlink:href="#e"/>
<use x="206.445312" xlink:href="#g"/>
<use x="234.228516" xlink:href="#d"/>
</g>
</g>
<g clip-path="url(#a)">
<defs>
<path id="av" d="m15.094 12.406h9.9062v-12.406h-9.9062zm0 60.5h9.9062v-31.984l-0.96875-17.438h-7.9219l-1.0156 17.438z"/>
</defs>
<g transform="translate(1545.4 816.2) scale(.1 -.1)">
<use xlink:href="#av"/>
</g>
</g>
<g clip-path="url(#a)">
<defs>
<path id="c" d="m12.406 8.2969h16.109v55.625l-17.531-3.5156v8.9844l17.438 3.5156h9.8594v-64.609h16.109v-8.2969h-41.984z"/>
<path id="f" d="m10.688 12.406h10.312v-12.406h-10.312z"/>
</defs>
<g transform="translate(717.15 42.655) scale(.1 -.1)">
<use xlink:href="#c"/>
<use x="63.623047" xlink:href="#f"/>
<use x="95.410156" xlink:href="#c"/>
</g>
</g>
<g clip-path="url(#a)">
<defs>
<path id="o" d="m19.188 8.2969h34.422v-8.2969h-46.281v8.2969q5.6094 5.8125 15.297 15.594 9.7031 9.7969 12.188 12.641 4.7344 5.3125 6.6094 9 1.8906 3.6875 1.8906 7.25 0 5.8125-4.0781 9.4688-4.0781 3.6719-10.625 3.6719-4.6406 0-9.7969-1.6094-5.1406-1.6094-11-4.8906v9.9688q5.9531 2.3906 11.125 3.6094 5.1875 1.2188 9.4844 1.2188 11.328 0 18.062-5.6719 6.7344-5.6562 6.7344-15.125 0-4.5-1.6875-8.5312-1.6719-4.0156-6.125-9.4844-1.2188-1.4219-7.7656-8.1875-6.5312-6.7656-18.453-18.922z"/>
</defs>
<g transform="translate(293.2 202.84) scale(.1 -.1)">
<use xlink:href="#c"/>
<use x="63.623047" xlink:href="#f"/>
<use x="95.410156" xlink:href="#o"/>
</g>
</g>
<g clip-path="url(#a)">
<defs>
<path id="m" d="m37.797 64.312-24.906-38.922h24.906zm-2.5938 8.5938h12.406v-47.516h10.406v-8.2031h-10.406v-17.188h-9.8125v17.188h-32.906v9.5156z"/>
</defs>
<g transform="translate(559.1 359.45) scale(.1 -.1)">
<use xlink:href="#c"/>
<use x="63.623047" xlink:href="#f"/>
<use x="95.410156" xlink:href="#m"/>
</g>
</g>
<g clip-path="url(#a)">
<defs>
<path id="ab" d="m33.016 40.375q-6.6406 0-10.531-4.5469-3.875-4.5312-3.875-12.438 0-7.8594 3.875-12.438 3.8906-4.5625 10.531-4.5625t10.516 4.5625q3.875 4.5781 3.875 12.438 0 7.9062-3.875 12.438-3.875 4.5469-10.516 4.5469zm19.578 30.922v-8.9844q-3.7188 1.75-7.5 2.6719-3.7812 0.9375-7.5 0.9375-9.7656 0-14.922-6.5938-5.1406-6.5938-5.875-19.922 2.875 4.25 7.2188 6.5156 4.3594 2.2656 9.5781 2.2656 10.984 0 17.359-6.6719 6.375-6.6562 6.375-18.125 0-11.234-6.6406-18.031-6.6406-6.7812-17.672-6.7812-12.656 0-19.344 9.6875-6.6875 9.7031-6.6875 28.109 0 17.281 8.2031 27.562t22.016 10.281q3.7188 0 7.5-0.73438t7.8906-2.1875z"/>
</defs>
<g transform="translate(874.02 664.65) scale(.1 -.1)">
<use xlink:href="#c"/>
<use x="63.623047" xlink:href="#f"/>
<use x="95.410156" xlink:href="#ab"/>
</g>
</g>
<g clip-path="url(#a)">
<defs>
<path id="aa" d="m8.2031 72.906h46.875v-4.2031l-26.469-68.703h-10.297l24.906 64.594h-35.016z"/>
</defs>
<g transform="translate(1033 202.84) scale(.1 -.1)">
<use xlink:href="#c"/>
<use x="63.623047" xlink:href="#f"/>
<use x="95.410156" xlink:href="#aa"/>
</g>
</g>
<g clip-path="url(#a)">
<defs>
<path id="z" d="m31.781 34.625q-7.0312 0-11.062-3.7656-4.0156-3.7656-4.0156-10.344 0-6.5938 4.0156-10.359 4.0312-3.7656 11.062-3.7656t11.078 3.7812q4.0625 3.7969 4.0625 10.344 0 6.5781-4.0312 10.344-4.0156 3.7656-11.109 3.7656zm-9.8594 4.1875q-6.3438 1.5625-9.8906 5.9062-3.5312 4.3594-3.5312 10.609 0 8.7344 6.2188 13.812 6.2344 5.0781 17.062 5.0781 10.891 0 17.094-5.0781t6.2031-13.812q0-6.25-3.5469-10.609-3.5312-4.3438-9.8281-5.9062 7.125-1.6562 11.094-6.5 3.9844-4.8281 3.9844-11.797 0-10.609-6.4688-16.281-6.4688-5.6562-18.531-5.6562-12.047 0-18.531 5.6562-6.4688 5.6719-6.4688 16.281 0 6.9688 4 11.797 4.0156 4.8438 11.141 6.5zm-3.6094 15.578q0-5.6562 3.5312-8.8281 3.5469-3.1719 9.9375-3.1719 6.3594 0 9.9375 3.1719 3.5938 3.1719 3.5938 8.8281 0 5.6719-3.5938 8.8438-3.5781 3.1719-9.9375 3.1719-6.3906 0-9.9375-3.1719-3.5312-3.1719-3.5312-8.8438z"/>
</defs>
<g transform="translate(921.55 664.65) scale(.1 -.1)">
<use xlink:href="#c"/>
<use x="63.623047" xlink:href="#f"/>
<use x="95.410156" xlink:href="#z"/>
</g>
</g>
<g clip-path="url(#a)">
<defs>
<path id="y" d="m10.984 1.5156v8.9844q3.7188-1.7656 7.5156-2.6875 3.8125-0.92188 7.4844-0.92188 9.7656 0 14.906 6.5625 5.1562 6.5625 5.8906 19.953-2.8281-4.2031-7.1875-6.4531-4.3438-2.25-9.6094-2.25-10.938 0-17.312 6.6094-6.375 6.625-6.375 18.109 0 11.219 6.6406 18 6.6406 6.7969 17.672 6.7969 12.656 0 19.312-9.7031 6.6719-9.6875 6.6719-28.141 0-17.234-8.1875-27.516-8.1719-10.281-21.984-10.281-3.7188 0-7.5312 0.73438-3.7969 0.73438-7.9062 2.2031zm19.625 30.906q6.6406 0 10.516 4.5312 3.8906 4.5469 3.8906 12.469 0 7.8594-3.8906 12.422-3.875 4.5625-10.516 4.5625t-10.516-4.5625-3.875-12.422q0-7.9219 3.875-12.469 3.875-4.5312 10.516-4.5312z"/>
</defs>
<g transform="translate(969.09 664.65) scale(.1 -.1)">
<use xlink:href="#c"/>
<use x="63.623047" xlink:href="#f"/>
<use x="95.410156" xlink:href="#y"/>
</g>
</g>
<g clip-path="url(#a)">
<defs>
<path id="ah" d="m31.781 66.406q-7.6094 0-11.453-7.5-3.8281-7.4844-3.8281-22.531 0-14.984 3.8281-22.484 3.8438-7.5 11.453-7.5 7.6719 0 11.5 7.5 3.8438 7.5 3.8438 22.484 0 15.047-3.8438 22.531-3.8281 7.5-11.5 7.5zm0 7.8125q12.266 0 18.734-9.7031 6.4688-9.6875 6.4688-28.141 0-18.406-6.4688-28.109-6.4688-9.6875-18.734-9.6875-12.25 0-18.719 9.6875-6.4688 9.7031-6.4688 28.109 0 18.453 6.4688 28.141 6.4688 9.7031 18.719 9.7031z"/>
</defs>
<g transform="translate(1013.4 664.65) scale(.1 -.1)">
<use xlink:href="#c"/>
<use x="63.623047" xlink:href="#f"/>
<use x="95.410156" xlink:href="#c"/>
<use x="159.033203" xlink:href="#ah"/>
</g>
</g>
<g clip-path="url(#a)">
<g transform="translate(1221.4 359.45) scale(.1 -.1)">
<use xlink:href="#c"/>
<use x="63.623047" xlink:href="#f"/>
<use x="95.410156" xlink:href="#c"/>
<use x="159.033203" xlink:href="#c"/>
</g>
</g>
<g clip-path="url(#a)">
<defs>
<path id="n" d="m40.578 39.312q7.0781-1.5156 11.047-6.3125 3.9844-4.7812 3.9844-11.812 0-10.781-7.4219-16.703-7.4219-5.9062-21.094-5.9062-4.5781 0-9.4375 0.90625t-10.031 2.7188v9.5156q4.0938-2.3906 8.9688-3.6094 4.8906-1.2188 10.219-1.2188 9.2656 0 14.125 3.6562t4.8594 10.641q0 6.4531-4.5156 10.078-4.5156 3.6406-12.562 3.6406h-8.5v8.1094h8.8906q7.2656 0 11.125 2.9062t3.8594 8.375q0 5.6094-3.9844 8.6094-3.9688 3.0156-11.391 3.0156-4.0625 0-8.7031-0.89062-4.6406-0.875-10.203-2.7188v8.7812q5.625 1.5625 10.531 2.3438t9.25 0.78125q11.234 0 17.766-5.1094 6.5469-5.0938 6.5469-13.781 0-6.0625-3.4688-10.234t-9.8594-5.7812z"/>
</defs>
<g transform="translate(1061 664.65) scale(.1 -.1)">
<use xlink:href="#c"/>
<use x="63.623047" xlink:href="#f"/>
<use x="95.410156" xlink:href="#c"/>
<use x="159.033203" xlink:href="#n"/>
</g>
</g>
<g clip-path="url(#a)">
<g transform="translate(1132.3 513.1) scale(.1 -.1)">
<use xlink:href="#c"/>
<use x="63.623047" xlink:href="#f"/>
<use x="95.410156" xlink:href="#c"/>
<use x="159.033203" xlink:href="#m"/>
</g>
</g>
<g clip-path="url(#a)">
<defs>
<path id="ag" d="m10.797 72.906h38.719v-8.3125h-29.688v-17.859q2.1406 0.73438 4.2812 1.0938 2.1562 0.35938 4.3125 0.35938 12.203 0 19.328-6.6875 7.1406-6.6875 7.1406-18.109 0-11.766-7.3281-18.297-7.3281-6.5156-20.656-6.5156-4.5938 0-9.3594 0.78125-4.75 0.78125-9.8281 2.3438v9.9219q4.3906-2.3906 9.0781-3.5625t9.9062-1.1719q8.4531 0 13.375 4.4375 4.9375 4.4375 4.9375 12.062 0 7.6094-4.9375 12.047-4.9219 4.4531-13.375 4.4531-3.9531 0-7.8906-0.875-3.9219-0.875-8.0156-2.7344z"/>
</defs>
<g transform="translate(1251.1 513.1) scale(.1 -.1)">
<use xlink:href="#c"/>
<use x="63.623047" xlink:href="#f"/>
<use x="95.410156" xlink:href="#c"/>
<use x="159.033203" xlink:href="#ag"/>
</g>
</g>
<g clip-path="url(#a)">
<g transform="translate(1441.3 513.1) scale(.1 -.1)">
<use xlink:href="#c"/>
<use x="63.623047" xlink:href="#f"/>
<use x="95.410156" xlink:href="#c"/>
<use x="159.033203" xlink:href="#ab"/>
</g>
</g>
<g clip-path="url(#a)">
<g transform="translate(1346.2 664.65) scale(.1 -.1)">
<use xlink:href="#c"/>
<use x="63.623047" xlink:href="#f"/>
<use x="95.410156" xlink:href="#c"/>
<use x="159.033203" xlink:href="#aa"/>
</g>
</g>
<g clip-path="url(#a)">
<g transform="translate(1393.7 664.65) scale(.1 -.1)">
<use xlink:href="#c"/>
<use x="63.623047" xlink:href="#f"/>
<use x="95.410156" xlink:href="#c"/>
<use x="159.033203" xlink:href="#z"/>
</g>
</g>
<g clip-path="url(#a)">
<g transform="translate(1441.3 664.65) scale(.1 -.1)">
<use xlink:href="#c"/>
<use x="63.623047" xlink:href="#f"/>
<use x="95.410156" xlink:href="#c"/>
<use x="159.033203" xlink:href="#y"/>
</g>
</g>
<g clip-path="url(#a)">
<g transform="translate(1488.8 664.65) scale(.1 -.1)">
<use xlink:href="#c"/>
<use x="63.623047" xlink:href="#f"/>
<use x="95.410156" xlink:href="#o"/>
<use x="159.033203" xlink:href="#ah"/>
</g>
</g>
<g clip-path="url(#a)">
<g transform="translate(1203.6 664.65) scale(.1 -.1)">
<use xlink:href="#c"/>
<use x="63.623047" xlink:href="#f"/>
<use x="95.410156" xlink:href="#o"/>
<use x="159.033203" xlink:href="#c"/>
</g>
</g>
<g clip-path="url(#a)">
<g transform="translate(1251.1 664.65) scale(.1 -.1)">
<use xlink:href="#c"/>
<use x="63.623047" xlink:href="#f"/>
<use x="95.410156" xlink:href="#o"/>
<use x="159.033203" xlink:href="#o"/>
</g>
</g>
<g clip-path="url(#a)">
<g transform="translate(1298.6 664.65) scale(.1 -.1)">
<use xlink:href="#c"/>
<use x="63.623047" xlink:href="#f"/>
<use x="95.410156" xlink:href="#o"/>
<use x="159.033203" xlink:href="#n"/>
</g>
</g>
<g clip-path="url(#a)">
<g transform="translate(1108.5 664.65) scale(.1 -.1)">
<use xlink:href="#c"/>
<use x="63.623047" xlink:href="#f"/>
<use x="95.410156" xlink:href="#o"/>
<use x="159.033203" xlink:href="#m"/>
</g>
</g>
<g clip-path="url(#a)">
<g transform="translate(1156 664.65) scale(.1 -.1)">
<use xlink:href="#c"/>
<use x="63.623047" xlink:href="#f"/>
<use x="95.410156" xlink:href="#o"/>
<use x="159.033203" xlink:href="#ag"/>
</g>
</g>
<g clip-path="url(#a)">
<g transform="translate(443.02 664.65) scale(.1 -.1)">
<use xlink:href="#c"/>
<use x="63.623047" xlink:href="#f"/>
<use x="95.410156" xlink:href="#o"/>
<use x="159.033203" xlink:href="#ab"/>
</g>
</g>
<g clip-path="url(#a)">
<g transform="translate(538.09 513.1) scale(.1 -.1)">
<use xlink:href="#c"/>
<use x="63.623047" xlink:href="#f"/>
<use x="95.410156" xlink:href="#o"/>
<use x="159.033203" xlink:href="#aa"/>
</g>
</g>
<g clip-path="url(#a)">
<g transform="translate(538.09 664.65) scale(.1 -.1)">
<use xlink:href="#c"/>
<use x="63.623047" xlink:href="#f"/>
<use x="95.410156" xlink:href="#o"/>
<use x="159.033203" xlink:href="#z"/>
</g>
</g>
<g clip-path="url(#a)">
<g transform="translate(704.46 513.1) scale(.1 -.1)">
<use xlink:href="#c"/>
<use x="63.623047" xlink:href="#f"/>
<use x="95.410156" xlink:href="#o"/>
<use x="159.033203" xlink:href="#y"/>
</g>
</g>
<g clip-path="url(#a)">
<g transform="translate(633.16 664.65) scale(.1 -.1)">
<use xlink:href="#c"/>
<use x="63.623047" xlink:href="#f"/>
<use x="95.410156" xlink:href="#n"/>
<use x="159.033203" xlink:href="#ah"/>
</g>
</g>
<g clip-path="url(#a)">
<g transform="translate(680.7 664.65) scale(.1 -.1)">
<use xlink:href="#c"/>
<use x="63.623047" xlink:href="#f"/>
<use x="95.410156" xlink:href="#n"/>
<use x="159.033203" xlink:href="#c"/>
</g>
</g>
<g clip-path="url(#a)">
<g transform="translate(728.23 664.65) scale(.1 -.1)">
<use xlink:href="#c"/>
<use x="63.623047" xlink:href="#f"/>
<use x="95.410156" xlink:href="#n"/>
<use x="159.033203" xlink:href="#o"/>
</g>
</g>
<g clip-path="url(#a)">
<g transform="translate(775.77 664.65) scale(.1 -.1)">
<use xlink:href="#c"/>
<use x="63.623047" xlink:href="#f"/>
<use x="95.410156" xlink:href="#n"/>
<use x="159.033203" xlink:href="#n"/>
</g>
</g>
<g clip-path="url(#a)">
<g transform="translate(490.56 664.65) scale(.1 -.1)">
<use xlink:href="#c"/>
<use x="63.623047" xlink:href="#f"/>
<use x="95.410156" xlink:href="#n"/>
<use x="159.033203" xlink:href="#m"/>
</g>
</g>
<g clip-path="url(#a)">
<g transform="translate(585.63 664.65) scale(.1 -.1)">
<use xlink:href="#c"/>
<use x="63.623047" xlink:href="#f"/>
<use x="95.410156" xlink:href="#n"/>
<use x="159.033203" xlink:href="#ag"/>
</g>
</g>
<g clip-path="url(#a)">
<g transform="translate(86.514 513.1) scale(.1 -.1)">
<use xlink:href="#c"/>
<use x="63.623047" xlink:href="#f"/>
<use x="95.410156" xlink:href="#n"/>
<use x="159.033203" xlink:href="#ab"/>
</g>
</g>
<g clip-path="url(#a)">
<g transform="translate(235.06 359.45) scale(.1 -.1)">
<use xlink:href="#c"/>
<use x="63.623047" xlink:href="#f"/>
<use x="95.410156" xlink:href="#n"/>
<use x="159.033203" xlink:href="#aa"/>
</g>
</g>
<g clip-path="url(#a)">
<g transform="translate(157.82 664.65) scale(.1 -.1)">
<use xlink:href="#c"/>
<use x="63.623047" xlink:href="#f"/>
<use x="95.410156" xlink:href="#n"/>
<use x="159.033203" xlink:href="#z"/>
</g>
</g>
<g clip-path="url(#a)">
<g transform="translate(205.35 664.65) scale(.1 -.1)">
<use xlink:href="#c"/>
<use x="63.623047" xlink:href="#f"/>
<use x="95.410156" xlink:href="#n"/>
<use x="159.033203" xlink:href="#y"/>
</g>
</g>
<g clip-path="url(#a)">
<g transform="translate(252.89 664.65) scale(.1 -.1)">
<use xlink:href="#c"/>
<use x="63.623047" xlink:href="#f"/>
<use x="95.410156" xlink:href="#m"/>
<use x="159.033203" xlink:href="#ah"/>
</g>
</g>
<g clip-path="url(#a)">
<g transform="translate(324.19 513.1) scale(.1 -.1)">
<use xlink:href="#c"/>
<use x="63.623047" xlink:href="#f"/>
<use x="95.410156" xlink:href="#m"/>
<use x="159.033203" xlink:href="#c"/>
</g>
</g>
<g clip-path="url(#a)">
<g transform="translate(300.42 664.65) scale(.1 -.1)">
<use xlink:href="#c"/>
<use x="63.623047" xlink:href="#f"/>
<use x="95.410156" xlink:href="#m"/>
<use x="159.033203" xlink:href="#o"/>
</g>
</g>
<g clip-path="url(#a)">
<g transform="translate(347.95 664.65) scale(.1 -.1)">
<use xlink:href="#c"/>
<use x="63.623047" xlink:href="#f"/>
<use x="95.410156" xlink:href="#m"/>
<use x="159.033203" xlink:href="#n"/>
</g>
</g>
<g clip-path="url(#a)">
<g transform="translate(62.747 664.65) scale(.1 -.1)">
<use xlink:href="#c"/>
<use x="63.623047" xlink:href="#f"/>
<use x="95.410156" xlink:href="#m"/>
<use x="159.033203" xlink:href="#m"/>
</g>
</g>
<g clip-path="url(#a)">
<g transform="translate(110.28 664.65) scale(.1 -.1)">
<use xlink:href="#c"/>
<use x="63.623047" xlink:href="#f"/>
<use x="95.410156" xlink:href="#m"/>
<use x="159.033203" xlink:href="#ag"/>
</g>
</g>
<g clip-path="url(#a)">
<g transform="translate(818.84 42.655) scale(.1 -.1)">
<use xlink:href="#c"/>
<use x="63.623047" xlink:href="#f"/>
<use x="95.410156" xlink:href="#m"/>
<use x="159.033203" xlink:href="#ab"/>
</g>
</g>
<g clip-path="url(#a)">
<g transform="translate(395.49 664.65) scale(.1 -.1)">
<use xlink:href="#c"/>
<use x="63.623047" xlink:href="#f"/>
<use x="95.410156" xlink:href="#m"/>
<use x="159.033203" xlink:href="#aa"/>
</g>
</g>
<g clip-path="url(#a)">
<g transform="translate(823.3 664.65) scale(.1 -.1)">
<use xlink:href="#c"/>
<use x="63.623047" xlink:href="#f"/>
<use x="95.410156" xlink:href="#m"/>
<use x="159.033203" xlink:href="#z"/>
</g>
</g>
<g clip-path="url(#a)">
<g transform="translate(1536.3 664.65) scale(.1 -.1)">
<use xlink:href="#c"/>
<use x="63.623047" xlink:href="#f"/>
<use x="95.410156" xlink:href="#m"/>
<use x="159.033203" xlink:href="#y"/>
</g>
</g>
<defs>
<clipPath id="a">
<rect width="1621.3" height="853.33"/>
</clipPath>
</defs>
</svg>
