<?xml version="1.0" encoding="utf-8" standalone="no"?>
<!DOCTYPE svg PUBLIC "-//W3C//DTD SVG 1.1//EN"
  "http://www.w3.org/Graphics/SVG/1.1/DTD/svg11.dtd">
<!-- Created with matplotlib (https://matplotlib.org/) -->
<svg height="400pt" version="1.1" viewBox="0 0 760 400" width="760pt" xmlns="http://www.w3.org/2000/svg" xmlns:xlink="http://www.w3.org/1999/xlink">
 <defs>
  <style type="text/css">
*{stroke-linecap:butt;stroke-linejoin:round;}
  </style>
 </defs>
 <g id="figure_1">
  <g id="patch_1">
   <path d="M 0 400 
L 760 400 
L 760 0 
L 0 0 
z
" style="fill:#ffffff;"/>
  </g>
  <g id="axes_1">
   <g id="LineCollection_1">
    <path clip-path="url(#pd88156b938)" d="M 212.404225 19.093247 
L 212.404225 82.466119 
" style="fill:none;stroke:#000000;"/>
    <path clip-path="url(#pd88156b938)" d="M 212.404225 82.466119 
L 59.596313 263.970437 
" style="fill:none;stroke:#000000;"/>
    <path clip-path="url(#pd88156b938)" d="M 212.404225 82.466119 
L 133.535625 322.438595 
" style="fill:none;stroke:#000000;"/>
    <path clip-path="url(#pd88156b938)" d="M 212.404225 82.466119 
L 182.8285 322.438595 
" style="fill:none;stroke:#000000;"/>
    <path clip-path="url(#pd88156b938)" d="M 212.404225 82.466119 
L 232.121375 322.438595 
" style="fill:none;stroke:#000000;"/>
    <path clip-path="url(#pd88156b938)" d="M 212.404225 82.466119 
L 453.939312 144.265897 
" style="fill:none;stroke:#000000;"/>
    <path clip-path="url(#pd88156b938)" d="M 59.596313 263.970437 
L 34.949876 322.438595 
" style="fill:none;stroke:#000000;"/>
    <path clip-path="url(#pd88156b938)" d="M 59.596313 263.970437 
L 84.24275 322.438595 
" style="fill:none;stroke:#000000;"/>
    <path clip-path="url(#pd88156b938)" d="M 133.535625 322.438595 
L 133.535625 380.906753 
" style="fill:none;stroke:#000000;"/>
    <path clip-path="url(#pd88156b938)" d="M 182.8285 322.438595 
L 182.8285 380.906753 
" style="fill:none;stroke:#000000;"/>
    <path clip-path="url(#pd88156b938)" d="M 232.121375 322.438595 
L 232.121375 380.906753 
" style="fill:none;stroke:#000000;"/>
    <path clip-path="url(#pd88156b938)" d="M 453.939312 144.265897 
L 281.41425 322.438595 
" style="fill:none;stroke:#000000;"/>
    <path clip-path="url(#pd88156b938)" d="M 453.939312 144.265897 
L 429.292875 204.688922 
" style="fill:none;stroke:#000000;"/>
    <path clip-path="url(#pd88156b938)" d="M 453.939312 144.265897 
L 651.110812 263.970437 
" style="fill:none;stroke:#000000;"/>
    <path clip-path="url(#pd88156b938)" d="M 281.41425 322.438595 
L 281.41425 380.906753 
" style="fill:none;stroke:#000000;"/>
    <path clip-path="url(#pd88156b938)" d="M 429.292875 204.688922 
L 355.353563 263.970437 
" style="fill:none;stroke:#000000;"/>
    <path clip-path="url(#pd88156b938)" d="M 429.292875 204.688922 
L 429.292875 322.438595 
" style="fill:none;stroke:#000000;"/>
    <path clip-path="url(#pd88156b938)" d="M 429.292875 204.688922 
L 503.232187 263.970437 
" style="fill:none;stroke:#000000;"/>
    <path clip-path="url(#pd88156b938)" d="M 651.110812 263.970437 
L 577.1715 322.438595 
" style="fill:none;stroke:#000000;"/>
    <path clip-path="url(#pd88156b938)" d="M 651.110812 263.970437 
L 626.464375 322.438595 
" style="fill:none;stroke:#000000;"/>
    <path clip-path="url(#pd88156b938)" d="M 651.110812 263.970437 
L 675.75725 322.438595 
" style="fill:none;stroke:#000000;"/>
    <path clip-path="url(#pd88156b938)" d="M 651.110812 263.970437 
L 725.050124 322.438595 
" style="fill:none;stroke:#000000;"/>
    <path clip-path="url(#pd88156b938)" d="M 577.1715 322.438595 
L 577.1715 380.906753 
" style="fill:none;stroke:#000000;"/>
    <path clip-path="url(#pd88156b938)" d="M 626.464375 322.438595 
L 626.464375 380.906753 
" style="fill:none;stroke:#000000;"/>
    <path clip-path="url(#pd88156b938)" d="M 675.75725 322.438595 
L 675.75725 380.906753 
" style="fill:none;stroke:#000000;"/>
    <path clip-path="url(#pd88156b938)" d="M 355.353563 263.970437 
L 330.707125 322.438595 
" style="fill:none;stroke:#000000;"/>
    <path clip-path="url(#pd88156b938)" d="M 355.353563 263.970437 
L 380 322.438595 
" style="fill:none;stroke:#000000;"/>
    <path clip-path="url(#pd88156b938)" d="M 429.292875 322.438595 
L 429.292875 380.906753 
" style="fill:none;stroke:#000000;"/>
    <path clip-path="url(#pd88156b938)" d="M 503.232187 263.970437 
L 478.58575 322.438595 
" style="fill:none;stroke:#000000;"/>
    <path clip-path="url(#pd88156b938)" d="M 503.232187 263.970437 
L 527.878625 322.438595 
" style="fill:none;stroke:#000000;"/>
    <path clip-path="url(#pd88156b938)" d="M 478.58575 322.438595 
L 478.58575 380.906753 
" style="fill:none;stroke:#000000;"/>
    <path clip-path="url(#pd88156b938)" d="M 527.878625 322.438595 
L 527.878625 380.906753 
" style="fill:none;stroke:#000000;"/>
    <path clip-path="url(#pd88156b938)" d="M 330.707125 322.438595 
L 330.707125 380.906753 
" style="fill:none;stroke:#000000;"/>
    <path clip-path="url(#pd88156b938)" d="M 380 322.438595 
L 380 380.906753 
" style="fill:none;stroke:#000000;"/>
    <path clip-path="url(#pd88156b938)" d="M 34.949876 322.438595 
L 34.949876 380.906753 
" style="fill:none;stroke:#000000;"/>
    <path clip-path="url(#pd88156b938)" d="M 84.24275 322.438595 
L 84.24275 380.906753 
" style="fill:none;stroke:#000000;"/>
    <path clip-path="url(#pd88156b938)" d="M 725.050124 322.438595 
L 725.050124 380.906753 
" style="fill:none;stroke:#000000;"/>
   </g>
   <g id="text_1">
    <g id="patch_2">
     <path clip-path="url(#pd88156b938)" d="M 206.132975 47.771558 
L 206.132975 53.787808 
Q 206.132975 56.187808 208.532975 56.187808 
L 216.275475 56.187808 
Q 218.675475 56.187808 218.675475 53.787808 
L 218.675475 47.771558 
Q 218.675475 45.371558 216.275475 45.371558 
L 208.532975 45.371558 
Q 206.132975 45.371558 206.132975 47.771558 
z
" style="fill:#ffffff;stroke:#ffffff;stroke-linejoin:miter;"/>
    </g>
    <g clip-path="url(#pd88156b938)">
     <!-- H -->
     <defs>
      <path d="M 9.8125 72.90625 
L 19.671875 72.90625 
L 19.671875 43.015625 
L 55.515625 43.015625 
L 55.515625 72.90625 
L 65.375 72.90625 
L 65.375 0 
L 55.515625 0 
L 55.515625 34.71875 
L 19.671875 34.71875 
L 19.671875 0 
L 9.8125 0 
z
" id="DejaVuSans-72"/>
     </defs>
     <g transform="translate(210.196725 47.771558)rotate(-270)scale(0.08 -0.08)">
      <use xlink:href="#DejaVuSans-72"/>
     </g>
    </g>
   </g>
   <g id="text_2">
    <g id="patch_3">
     <path clip-path="url(#pd88156b938)" d="M 138.81406 179.613398 
L 142.781362 174.901061 
Q 144.327064 173.065085 142.491088 171.519383 
L 136.568155 166.532885 
Q 134.73218 164.987183 133.186478 166.823158 
L 129.219176 171.535495 
Q 127.673475 173.37147 129.50945 174.917172 
L 135.432383 179.903671 
Q 137.268358 181.449373 138.81406 179.613398 
z
" style="fill:#ffffff;stroke:#ffffff;stroke-linejoin:miter;"/>
    </g>
    <g clip-path="url(#pd88156b938)">
     <!-- D -->
     <defs>
      <path d="M 19.671875 64.796875 
L 19.671875 8.109375 
L 31.59375 8.109375 
Q 46.6875 8.109375 53.6875 14.9375 
Q 60.6875 21.78125 60.6875 36.53125 
Q 60.6875 51.171875 53.6875 57.984375 
Q 46.6875 64.796875 31.59375 64.796875 
z
M 9.8125 72.90625 
L 30.078125 72.90625 
Q 51.265625 72.90625 61.171875 64.09375 
Q 71.09375 55.28125 71.09375 36.53125 
Q 71.09375 17.671875 61.125 8.828125 
Q 51.171875 0 30.078125 0 
L 9.8125 0 
z
" id="DejaVuSans-68"/>
     </defs>
     <g transform="translate(135.705333 176.99617)rotate(-49.90608)scale(0.08 -0.08)">
      <use xlink:href="#DejaVuSans-68"/>
     </g>
    </g>
   </g>
   <g id="text_3">
    <g id="patch_4">
     <path clip-path="url(#pd88156b938)" d="M 178.209345 206.596019 
L 179.645977 202.224796 
Q 180.395321 199.944778 178.115302 199.195434 
L 170.759868 196.77802 
Q 168.47985 196.028677 167.730506 198.308695 
L 166.293873 202.679918 
Q 165.54453 204.959936 167.824548 205.70928 
L 175.179983 208.126694 
Q 177.460001 208.876038 178.209345 206.596019 
z
" style="fill:#ffffff;stroke:#ffffff;stroke-linejoin:miter;"/>
    </g>
    <g clip-path="url(#pd88156b938)">
     <!-- F -->
     <defs>
      <path d="M 9.8125 72.90625 
L 51.703125 72.90625 
L 51.703125 64.59375 
L 19.671875 64.59375 
L 19.671875 43.109375 
L 48.578125 43.109375 
L 48.578125 34.8125 
L 19.671875 34.8125 
L 19.671875 0 
L 9.8125 0 
z
" id="DejaVuSans-70"/>
     </defs>
     <g transform="translate(174.348751 205.327209)rotate(-71.806537)scale(0.08 -0.08)">
      <use xlink:href="#DejaVuSans-70"/>
     </g>
    </g>
   </g>
   <g id="text_4">
    <g id="patch_5">
     <path clip-path="url(#pd88156b938)" d="M 203.505819 205.935164 
L 204.17522 200.503759 
Q 204.46879 198.121782 202.086812 197.828212 
L 194.402454 196.881143 
Q 192.020476 196.587573 191.726906 198.96955 
L 191.057506 204.400955 
Q 190.763936 206.782933 193.145913 207.076503 
L 200.830272 208.023571 
Q 203.212249 208.317141 203.505819 205.935164 
z
" style="fill:#ffffff;stroke:#ffffff;stroke-linejoin:miter;"/>
    </g>
    <g clip-path="url(#pd88156b938)">
     <!-- A -->
     <defs>
      <path d="M 34.1875 63.1875 
L 20.796875 26.90625 
L 47.609375 26.90625 
z
M 28.609375 72.90625 
L 39.796875 72.90625 
L 67.578125 0 
L 57.328125 0 
L 50.6875 18.703125 
L 17.828125 18.703125 
L 11.1875 0 
L 0.78125 0 
z
" id="DejaVuSans-65"/>
     </defs>
     <g transform="translate(199.472585 205.438083)rotate(-82.973937)scale(0.08 -0.08)">
      <use xlink:href="#DejaVuSans-65"/>
     </g>
    </g>
   </g>
   <g id="text_5">
    <g id="patch_6">
     <path clip-path="url(#pd88156b938)" d="M 215.815108 200.562124 
L 216.210116 205.369674 
Q 216.406648 207.761613 218.798588 207.565081 
L 226.515085 206.931062 
Q 228.907024 206.73453 228.710493 204.34259 
L 228.315484 199.535041 
Q 228.118952 197.143101 225.727013 197.339633 
L 218.010516 197.973653 
Q 215.618576 198.170184 215.815108 200.562124 
z
" style="fill:#ffffff;stroke:#ffffff;stroke-linejoin:miter;"/>
    </g>
    <g clip-path="url(#pd88156b938)">
     <!-- P -->
     <defs>
      <path d="M 19.671875 64.796875 
L 19.671875 37.40625 
L 32.078125 37.40625 
Q 38.96875 37.40625 42.71875 40.96875 
Q 46.484375 44.53125 46.484375 51.125 
Q 46.484375 57.671875 42.71875 61.234375 
Q 38.96875 64.796875 32.078125 64.796875 
z
M 9.8125 72.90625 
L 32.078125 72.90625 
Q 44.34375 72.90625 50.609375 67.359375 
Q 56.890625 61.8125 56.890625 51.125 
Q 56.890625 40.328125 50.609375 34.8125 
Q 44.34375 29.296875 32.078125 29.296875 
L 19.671875 29.296875 
L 19.671875 0 
L 9.8125 0 
z
" id="DejaVuSans-80"/>
     </defs>
     <g transform="translate(219.86521 200.229351)rotate(-274.697112)scale(0.08 -0.08)">
      <use xlink:href="#DejaVuSans-80"/>
     </g>
    </g>
   </g>
   <g id="text_6">
    <g id="patch_7">
     <path clip-path="url(#pd88156b938)" d="M 328.966412 118.763286 
L 334.268123 120.119796 
Q 336.593222 120.714701 337.188128 118.389602 
L 339.107319 110.888735 
Q 339.702225 108.563635 337.377126 107.968729 
L 332.075415 106.61222 
Q 329.750315 106.017314 329.155409 108.342414 
L 327.236219 115.843281 
Q 326.641313 118.168381 328.966412 118.763286 
z
" style="fill:#ffffff;stroke:#ffffff;stroke-linejoin:miter;"/>
    </g>
    <g clip-path="url(#pd88156b938)">
     <!-- A -->
     <g transform="translate(329.973724 114.82636)rotate(-345.648056)scale(0.08 -0.08)">
      <use xlink:href="#DejaVuSans-65"/>
     </g>
    </g>
   </g>
   <g id="text_7">
    <g id="patch_8">
     <path clip-path="url(#pd88156b938)" d="M 52.07013 297.969522 
L 54.033671 293.311461 
Q 54.965916 291.099918 52.754373 290.167673 
L 45.619846 287.160213 
Q 43.408303 286.227968 42.476058 288.43951 
L 40.512518 293.097571 
Q 39.580273 295.309113 41.791815 296.241358 
L 48.926343 299.248819 
Q 51.137885 300.181064 52.07013 297.969522 
z
" style="fill:#ffffff;stroke:#ffffff;stroke-linejoin:miter;"/>
    </g>
    <g clip-path="url(#pd88156b938)">
     <!-- E -->
     <defs>
      <path d="M 9.8125 72.90625 
L 55.90625 72.90625 
L 55.90625 64.59375 
L 19.671875 64.59375 
L 19.671875 43.015625 
L 54.390625 43.015625 
L 54.390625 34.71875 
L 19.671875 34.71875 
L 19.671875 8.296875 
L 56.78125 8.296875 
L 56.78125 0 
L 9.8125 0 
z
" id="DejaVuSans-69"/>
     </defs>
     <g transform="translate(48.325482 296.391017)rotate(-67.142822)scale(0.08 -0.08)">
      <use xlink:href="#DejaVuSans-69"/>
     </g>
    </g>
   </g>
   <g id="text_8">
    <g id="patch_9">
     <path clip-path="url(#pd88156b938)" d="M 65.055777 293.066693 
L 67.225674 298.214289 
Q 68.157919 300.425831 70.369461 299.493586 
L 77.503989 296.486125 
Q 79.715531 295.55388 78.783286 293.342338 
L 76.613389 288.194743 
Q 75.681145 285.983201 73.469602 286.915445 
L 66.335074 289.922906 
Q 64.123532 290.855151 65.055777 293.066693 
z
" style="fill:#ffffff;stroke:#ffffff;stroke-linejoin:miter;"/>
    </g>
    <g clip-path="url(#pd88156b938)">
     <!-- C -->
     <defs>
      <path d="M 64.40625 67.28125 
L 64.40625 56.890625 
Q 59.421875 61.53125 53.78125 63.8125 
Q 48.140625 66.109375 41.796875 66.109375 
Q 29.296875 66.109375 22.65625 58.46875 
Q 16.015625 50.828125 16.015625 36.375 
Q 16.015625 21.96875 22.65625 14.328125 
Q 29.296875 6.6875 41.796875 6.6875 
Q 48.140625 6.6875 53.78125 8.984375 
Q 59.421875 11.28125 64.40625 15.921875 
L 64.40625 5.609375 
Q 59.234375 2.09375 53.4375 0.328125 
Q 47.65625 -1.421875 41.21875 -1.421875 
Q 24.65625 -1.421875 15.125 8.703125 
Q 5.609375 18.84375 5.609375 36.375 
Q 5.609375 53.953125 15.125 64.078125 
Q 24.65625 74.21875 41.21875 74.21875 
Q 47.75 74.21875 53.53125 72.484375 
Q 59.328125 70.75 64.40625 67.28125 
z
" id="DejaVuSans-67"/>
     </defs>
     <g transform="translate(68.800425 291.488189)rotate(-292.857178)scale(0.08 -0.08)">
      <use xlink:href="#DejaVuSans-67"/>
     </g>
    </g>
   </g>
   <g id="text_9">
    <g id="patch_10">
     <path clip-path="url(#pd88156b938)" d="M 127.264375 334.030174 
L 127.264375 369.315174 
Q 127.264375 371.715174 129.664375 371.715174 
L 137.406875 371.715174 
Q 139.806875 371.715174 139.806875 369.315174 
L 139.806875 334.030174 
Q 139.806875 331.630174 137.406875 331.630174 
L 129.664375 331.630174 
Q 127.264375 331.630174 127.264375 334.030174 
z
" style="fill:#ffffff;stroke:#ffffff;stroke-linejoin:miter;"/>
    </g>
    <g clip-path="url(#pd88156b938)">
     <!-- Terminal -->
     <defs>
      <path d="M -0.296875 72.90625 
L 61.375 72.90625 
L 61.375 64.59375 
L 35.5 64.59375 
L 35.5 0 
L 25.59375 0 
L 25.59375 64.59375 
L -0.296875 64.59375 
z
" id="DejaVuSans-84"/>
      <path d="M 56.203125 29.59375 
L 56.203125 25.203125 
L 14.890625 25.203125 
Q 15.484375 15.921875 20.484375 11.0625 
Q 25.484375 6.203125 34.421875 6.203125 
Q 39.59375 6.203125 44.453125 7.46875 
Q 49.3125 8.734375 54.109375 11.28125 
L 54.109375 2.78125 
Q 49.265625 0.734375 44.1875 -0.34375 
Q 39.109375 -1.421875 33.890625 -1.421875 
Q 20.796875 -1.421875 13.15625 6.1875 
Q 5.515625 13.8125 5.515625 26.8125 
Q 5.515625 40.234375 12.765625 48.109375 
Q 20.015625 56 32.328125 56 
Q 43.359375 56 49.78125 48.890625 
Q 56.203125 41.796875 56.203125 29.59375 
z
M 47.21875 32.234375 
Q 47.125 39.59375 43.09375 43.984375 
Q 39.0625 48.390625 32.421875 48.390625 
Q 24.90625 48.390625 20.390625 44.140625 
Q 15.875 39.890625 15.1875 32.171875 
z
" id="DejaVuSans-101"/>
      <path d="M 41.109375 46.296875 
Q 39.59375 47.171875 37.8125 47.578125 
Q 36.03125 48 33.890625 48 
Q 26.265625 48 22.1875 43.046875 
Q 18.109375 38.09375 18.109375 28.8125 
L 18.109375 0 
L 9.078125 0 
L 9.078125 54.6875 
L 18.109375 54.6875 
L 18.109375 46.1875 
Q 20.953125 51.171875 25.484375 53.578125 
Q 30.03125 56 36.53125 56 
Q 37.453125 56 38.578125 55.875 
Q 39.703125 55.765625 41.0625 55.515625 
z
" id="DejaVuSans-114"/>
      <path d="M 52 44.1875 
Q 55.375 50.25 60.0625 53.125 
Q 64.75 56 71.09375 56 
Q 79.640625 56 84.28125 50.015625 
Q 88.921875 44.046875 88.921875 33.015625 
L 88.921875 0 
L 79.890625 0 
L 79.890625 32.71875 
Q 79.890625 40.578125 77.09375 44.375 
Q 74.3125 48.1875 68.609375 48.1875 
Q 61.625 48.1875 57.5625 43.546875 
Q 53.515625 38.921875 53.515625 30.90625 
L 53.515625 0 
L 44.484375 0 
L 44.484375 32.71875 
Q 44.484375 40.625 41.703125 44.40625 
Q 38.921875 48.1875 33.109375 48.1875 
Q 26.21875 48.1875 22.15625 43.53125 
Q 18.109375 38.875 18.109375 30.90625 
L 18.109375 0 
L 9.078125 0 
L 9.078125 54.6875 
L 18.109375 54.6875 
L 18.109375 46.1875 
Q 21.1875 51.21875 25.484375 53.609375 
Q 29.78125 56 35.6875 56 
Q 41.65625 56 45.828125 52.96875 
Q 50 49.953125 52 44.1875 
z
" id="DejaVuSans-109"/>
      <path d="M 9.421875 54.6875 
L 18.40625 54.6875 
L 18.40625 0 
L 9.421875 0 
z
M 9.421875 75.984375 
L 18.40625 75.984375 
L 18.40625 64.59375 
L 9.421875 64.59375 
z
" id="DejaVuSans-105"/>
      <path d="M 54.890625 33.015625 
L 54.890625 0 
L 45.90625 0 
L 45.90625 32.71875 
Q 45.90625 40.484375 42.875 44.328125 
Q 39.84375 48.1875 33.796875 48.1875 
Q 26.515625 48.1875 22.3125 43.546875 
Q 18.109375 38.921875 18.109375 30.90625 
L 18.109375 0 
L 9.078125 0 
L 9.078125 54.6875 
L 18.109375 54.6875 
L 18.109375 46.1875 
Q 21.34375 51.125 25.703125 53.5625 
Q 30.078125 56 35.796875 56 
Q 45.21875 56 50.046875 50.171875 
Q 54.890625 44.34375 54.890625 33.015625 
z
" id="DejaVuSans-110"/>
      <path d="M 34.28125 27.484375 
Q 23.390625 27.484375 19.1875 25 
Q 14.984375 22.515625 14.984375 16.5 
Q 14.984375 11.71875 18.140625 8.90625 
Q 21.296875 6.109375 26.703125 6.109375 
Q 34.1875 6.109375 38.703125 11.40625 
Q 43.21875 16.703125 43.21875 25.484375 
L 43.21875 27.484375 
z
M 52.203125 31.203125 
L 52.203125 0 
L 43.21875 0 
L 43.21875 8.296875 
Q 40.140625 3.328125 35.546875 0.953125 
Q 30.953125 -1.421875 24.3125 -1.421875 
Q 15.921875 -1.421875 10.953125 3.296875 
Q 6 8.015625 6 15.921875 
Q 6 25.140625 12.171875 29.828125 
Q 18.359375 34.515625 30.609375 34.515625 
L 43.21875 34.515625 
L 43.21875 35.40625 
Q 43.21875 41.609375 39.140625 45 
Q 35.0625 48.390625 27.6875 48.390625 
Q 23 48.390625 18.546875 47.265625 
Q 14.109375 46.140625 10.015625 43.890625 
L 10.015625 52.203125 
Q 14.9375 54.109375 19.578125 55.046875 
Q 24.21875 56 28.609375 56 
Q 40.484375 56 46.34375 49.84375 
Q 52.203125 43.703125 52.203125 31.203125 
z
" id="DejaVuSans-97"/>
      <path d="M 9.421875 75.984375 
L 18.40625 75.984375 
L 18.40625 0 
L 9.421875 0 
z
" id="DejaVuSans-108"/>
     </defs>
     <g transform="translate(131.328125 334.030174)rotate(-270)scale(0.08 -0.08)">
      <use xlink:href="#DejaVuSans-84"/>
      <use x="60.818359" xlink:href="#DejaVuSans-101"/>
      <use x="122.341797" xlink:href="#DejaVuSans-114"/>
      <use x="163.439453" xlink:href="#DejaVuSans-109"/>
      <use x="260.851562" xlink:href="#DejaVuSans-105"/>
      <use x="288.634766" xlink:href="#DejaVuSans-110"/>
      <use x="352.013672" xlink:href="#DejaVuSans-97"/>
      <use x="413.292969" xlink:href="#DejaVuSans-108"/>
     </g>
    </g>
   </g>
   <g id="text_10">
    <g id="patch_11">
     <path clip-path="url(#pd88156b938)" d="M 176.55725 334.030174 
L 176.55725 369.315174 
Q 176.55725 371.715174 178.95725 371.715174 
L 186.69975 371.715174 
Q 189.09975 371.715174 189.09975 369.315174 
L 189.09975 334.030174 
Q 189.09975 331.630174 186.69975 331.630174 
L 178.95725 331.630174 
Q 176.55725 331.630174 176.55725 334.030174 
z
" style="fill:#ffffff;stroke:#ffffff;stroke-linejoin:miter;"/>
    </g>
    <g clip-path="url(#pd88156b938)">
     <!-- Terminal -->
     <g transform="translate(180.621 334.030174)rotate(-270)scale(0.08 -0.08)">
      <use xlink:href="#DejaVuSans-84"/>
      <use x="60.818359" xlink:href="#DejaVuSans-101"/>
      <use x="122.341797" xlink:href="#DejaVuSans-114"/>
      <use x="163.439453" xlink:href="#DejaVuSans-109"/>
      <use x="260.851562" xlink:href="#DejaVuSans-105"/>
      <use x="288.634766" xlink:href="#DejaVuSans-110"/>
      <use x="352.013672" xlink:href="#DejaVuSans-97"/>
      <use x="413.292969" xlink:href="#DejaVuSans-108"/>
     </g>
    </g>
   </g>
   <g id="text_11">
    <g id="patch_12">
     <path clip-path="url(#pd88156b938)" d="M 225.850125 334.030174 
L 225.850125 369.315174 
Q 225.850125 371.715174 228.250125 371.715174 
L 235.992625 371.715174 
Q 238.392625 371.715174 238.392625 369.315174 
L 238.392625 334.030174 
Q 238.392625 331.630174 235.992625 331.630174 
L 228.250125 331.630174 
Q 225.850125 331.630174 225.850125 334.030174 
z
" style="fill:#ffffff;stroke:#ffffff;stroke-linejoin:miter;"/>
    </g>
    <g clip-path="url(#pd88156b938)">
     <!-- Terminal -->
     <g transform="translate(229.913875 334.030174)rotate(-270)scale(0.08 -0.08)">
      <use xlink:href="#DejaVuSans-84"/>
      <use x="60.818359" xlink:href="#DejaVuSans-101"/>
      <use x="122.341797" xlink:href="#DejaVuSans-114"/>
      <use x="163.439453" xlink:href="#DejaVuSans-109"/>
      <use x="260.851562" xlink:href="#DejaVuSans-105"/>
      <use x="288.634766" xlink:href="#DejaVuSans-110"/>
      <use x="352.013672" xlink:href="#DejaVuSans-97"/>
      <use x="413.292969" xlink:href="#DejaVuSans-108"/>
     </g>
    </g>
   </g>
   <g id="text_12">
    <g id="patch_13">
     <path clip-path="url(#pd88156b938)" d="M 370.248638 239.711417 
L 374.115468 235.718006 
Q 375.784978 233.993844 374.060816 232.324333 
L 368.498597 226.938423 
Q 366.774435 225.268913 365.104925 226.993075 
L 361.238095 230.986486 
Q 359.568585 232.710648 361.292747 234.380158 
L 366.854965 239.766068 
Q 368.579128 241.435579 370.248638 239.711417 
z
" style="fill:#ffffff;stroke:#ffffff;stroke-linejoin:miter;"/>
    </g>
    <g clip-path="url(#pd88156b938)">
     <!-- R -->
     <defs>
      <path d="M 44.390625 34.1875 
Q 47.5625 33.109375 50.5625 29.59375 
Q 53.5625 26.078125 56.59375 19.921875 
L 66.609375 0 
L 56 0 
L 46.6875 18.703125 
Q 43.0625 26.03125 39.671875 28.421875 
Q 36.28125 30.8125 30.421875 30.8125 
L 19.671875 30.8125 
L 19.671875 0 
L 9.8125 0 
L 9.8125 72.90625 
L 32.078125 72.90625 
Q 44.578125 72.90625 50.734375 67.671875 
Q 56.890625 62.453125 56.890625 51.90625 
Q 56.890625 45.015625 53.6875 40.46875 
Q 50.484375 35.9375 44.390625 34.1875 
z
M 19.671875 64.796875 
L 19.671875 38.921875 
L 32.078125 38.921875 
Q 39.203125 38.921875 42.84375 42.21875 
Q 46.484375 45.515625 46.484375 51.90625 
Q 46.484375 58.296875 42.84375 61.546875 
Q 39.203125 64.796875 32.078125 64.796875 
z
" id="DejaVuSans-82"/>
     </defs>
     <g transform="translate(367.329236 236.884553)rotate(-45.922611)scale(0.08 -0.08)">
      <use xlink:href="#DejaVuSans-82"/>
     </g>
    </g>
   </g>
   <g id="text_13">
    <g id="patch_14">
     <path clip-path="url(#pd88156b938)" d="M 446.367929 179.432224 
L 448.47778 174.259728 
Q 449.384228 172.037487 447.161987 171.13104 
L 439.992947 168.206802 
Q 437.770706 167.300354 436.864259 169.522594 
L 434.754407 174.695091 
Q 433.84796 176.917331 436.0702 177.823779 
L 443.23924 180.748017 
Q 445.461481 181.654464 446.367929 179.432224 
z
" style="fill:#ffffff;stroke:#ffffff;stroke-linejoin:miter;"/>
    </g>
    <g clip-path="url(#pd88156b938)">
     <!-- C -->
     <g transform="translate(442.605166 177.8974)rotate(-67.809546)scale(0.08 -0.08)">
      <use xlink:href="#DejaVuSans-67"/>
     </g>
    </g>
   </g>
   <g id="text_14">
    <g id="patch_15">
     <path clip-path="url(#pd88156b938)" d="M 547.110046 208.167171 
L 551.431062 210.790497 
Q 553.482583 212.035994 554.72808 209.984473 
L 558.746103 203.36618 
Q 559.991599 201.314659 557.940078 200.069163 
L 553.619062 197.445836 
Q 551.567541 196.200339 550.322045 198.251861 
L 546.304021 204.870153 
Q 545.058525 206.921674 547.110046 208.167171 
z
" style="fill:#ffffff;stroke:#ffffff;stroke-linejoin:miter;"/>
    </g>
    <g clip-path="url(#pd88156b938)">
     <!-- E -->
     <g transform="translate(549.218957 204.693475)rotate(-328.737697)scale(0.08 -0.08)">
      <use xlink:href="#DejaVuSans-69"/>
     </g>
    </g>
   </g>
   <g id="text_15">
    <g id="patch_16">
     <path clip-path="url(#pd88156b938)" d="M 275.143 334.030174 
L 275.143 369.315174 
Q 275.143 371.715174 277.543 371.715174 
L 285.2855 371.715174 
Q 287.6855 371.715174 287.6855 369.315174 
L 287.6855 334.030174 
Q 287.6855 331.630174 285.2855 331.630174 
L 277.543 331.630174 
Q 275.143 331.630174 275.143 334.030174 
z
" style="fill:#ffffff;stroke:#ffffff;stroke-linejoin:miter;"/>
    </g>
    <g clip-path="url(#pd88156b938)">
     <!-- Terminal -->
     <g transform="translate(279.20675 334.030174)rotate(-270)scale(0.08 -0.08)">
      <use xlink:href="#DejaVuSans-84"/>
      <use x="60.818359" xlink:href="#DejaVuSans-101"/>
      <use x="122.341797" xlink:href="#DejaVuSans-114"/>
      <use x="163.439453" xlink:href="#DejaVuSans-109"/>
      <use x="260.851562" xlink:href="#DejaVuSans-105"/>
      <use x="288.634766" xlink:href="#DejaVuSans-110"/>
      <use x="352.013672" xlink:href="#DejaVuSans-97"/>
      <use x="413.292969" xlink:href="#DejaVuSans-108"/>
     </g>
    </g>
   </g>
   <g id="text_16">
    <g id="patch_17">
     <path clip-path="url(#pd88156b938)" d="M 394.06689 240.969689 
L 398.425276 237.475314 
Q 400.297754 235.974038 398.796478 234.101561 
L 393.9533 228.060871 
Q 392.452024 226.188393 390.579547 227.689669 
L 386.221161 231.184045 
Q 384.348684 232.68532 385.849959 234.557798 
L 390.693137 240.598488 
Q 392.194413 242.470965 394.06689 240.969689 
z
" style="fill:#ffffff;stroke:#ffffff;stroke-linejoin:miter;"/>
    </g>
    <g clip-path="url(#pd88156b938)">
     <!-- C -->
     <g transform="translate(391.524887 237.799156)rotate(-38.721211)scale(0.08 -0.08)">
      <use xlink:href="#DejaVuSans-67"/>
     </g>
    </g>
   </g>
   <g id="text_17">
    <g id="patch_18">
     <path clip-path="url(#pd88156b938)" d="M 423.021625 260.571258 
L 423.021625 266.556258 
Q 423.021625 268.956258 425.421625 268.956258 
L 433.164125 268.956258 
Q 435.564125 268.956258 435.564125 266.556258 
L 435.564125 260.571258 
Q 435.564125 258.171258 433.164125 258.171258 
L 425.421625 258.171258 
Q 423.021625 258.171258 423.021625 260.571258 
z
" style="fill:#ffffff;stroke:#ffffff;stroke-linejoin:miter;"/>
    </g>
    <g clip-path="url(#pd88156b938)">
     <!-- N -->
     <defs>
      <path d="M 9.8125 72.90625 
L 23.09375 72.90625 
L 55.421875 11.921875 
L 55.421875 72.90625 
L 64.984375 72.90625 
L 64.984375 0 
L 51.703125 0 
L 19.390625 60.984375 
L 19.390625 0 
L 9.8125 0 
z
" id="DejaVuSans-78"/>
     </defs>
     <g transform="translate(427.085375 260.571258)rotate(-270)scale(0.08 -0.08)">
      <use xlink:href="#DejaVuSans-78"/>
     </g>
    </g>
   </g>
   <g id="text_18">
    <g id="patch_19">
     <path clip-path="url(#pd88156b938)" d="M 460.160473 237.475314 
L 464.518859 240.969689 
Q 466.391337 242.470965 467.892612 240.598488 
L 472.73579 234.557798 
Q 474.237066 232.68532 472.364589 231.184045 
L 468.006203 227.689669 
Q 466.133725 226.188393 464.63245 228.060871 
L 459.789272 234.101561 
Q 458.287996 235.974038 460.160473 237.475314 
z
" style="fill:#ffffff;stroke:#ffffff;stroke-linejoin:miter;"/>
    </g>
    <g clip-path="url(#pd88156b938)">
     <!-- C -->
     <g transform="translate(462.702477 234.30478)rotate(-321.278789)scale(0.08 -0.08)">
      <use xlink:href="#DejaVuSans-67"/>
     </g>
    </g>
   </g>
   <g id="text_19">
    <g id="patch_20">
     <path clip-path="url(#pd88156b938)" d="M 615.850873 299.847585 
L 620.211113 296.399687 
Q 622.093655 294.911051 620.605019 293.028509 
L 615.802617 286.955352 
Q 614.31398 285.07281 612.431439 286.561446 
L 608.071198 290.009345 
Q 606.188657 291.497981 607.677293 293.380523 
L 612.479695 299.45368 
Q 613.968331 301.336221 615.850873 299.847585 
z
" style="fill:#ffffff;stroke:#ffffff;stroke-linejoin:miter;"/>
    </g>
    <g clip-path="url(#pd88156b938)">
     <!-- R -->
     <g transform="translate(613.330271 296.660011)rotate(-38.335493)scale(0.08 -0.08)">
      <use xlink:href="#DejaVuSans-82"/>
     </g>
    </g>
   </g>
   <g id="text_20">
    <g id="patch_21">
     <path clip-path="url(#pd88156b938)" d="M 643.584629 297.969522 
L 645.54817 293.311461 
Q 646.480415 291.099918 644.268872 290.167673 
L 637.134345 287.160213 
Q 634.922802 286.227968 633.990558 288.43951 
L 632.027017 293.097571 
Q 631.094772 295.309113 633.306314 296.241358 
L 640.440842 299.248819 
Q 642.652384 300.181064 643.584629 297.969522 
z
" style="fill:#ffffff;stroke:#ffffff;stroke-linejoin:miter;"/>
    </g>
    <g clip-path="url(#pd88156b938)">
     <!-- E -->
     <g transform="translate(639.839981 296.391017)rotate(-67.142822)scale(0.08 -0.08)">
      <use xlink:href="#DejaVuSans-69"/>
     </g>
    </g>
   </g>
   <g id="text_21">
    <g id="patch_22">
     <path clip-path="url(#pd88156b938)" d="M 656.570276 293.066693 
L 658.740173 298.214289 
Q 659.672418 300.425831 661.88396 299.493586 
L 669.018488 296.486125 
Q 671.23003 295.55388 670.297786 293.342338 
L 668.127889 288.194743 
Q 667.195644 285.983201 664.984101 286.915445 
L 657.849574 289.922906 
Q 655.638031 290.855151 656.570276 293.066693 
z
" style="fill:#ffffff;stroke:#ffffff;stroke-linejoin:miter;"/>
    </g>
    <g clip-path="url(#pd88156b938)">
     <!-- C -->
     <g transform="translate(660.314924 291.488189)rotate(-292.857178)scale(0.08 -0.08)">
      <use xlink:href="#DejaVuSans-67"/>
     </g>
    </g>
   </g>
   <g id="text_22">
    <g id="patch_23">
     <path clip-path="url(#pd88156b938)" d="M 681.894323 296.30781 
L 686.486939 299.939462 
Q 688.369481 301.428098 689.858117 299.545557 
L 694.660519 293.472399 
Q 696.149155 291.589858 694.266614 290.101222 
L 689.673997 286.46957 
Q 687.791456 284.980934 686.30282 286.863475 
L 681.500417 292.936632 
Q 680.011781 294.819174 681.894323 296.30781 
z
" style="fill:#ffffff;stroke:#ffffff;stroke-linejoin:miter;"/>
    </g>
    <g clip-path="url(#pd88156b938)">
     <!-- U -->
     <defs>
      <path d="M 8.6875 72.90625 
L 18.609375 72.90625 
L 18.609375 28.609375 
Q 18.609375 16.890625 22.84375 11.734375 
Q 27.09375 6.59375 36.625 6.59375 
Q 46.09375 6.59375 50.34375 11.734375 
Q 54.59375 16.890625 54.59375 28.609375 
L 54.59375 72.90625 
L 64.5 72.90625 
L 64.5 27.390625 
Q 64.5 13.140625 57.4375 5.859375 
Q 50.390625 -1.421875 36.625 -1.421875 
Q 22.796875 -1.421875 15.734375 5.859375 
Q 8.6875 13.140625 8.6875 27.390625 
z
" id="DejaVuSans-85"/>
     </defs>
     <g transform="translate(684.414925 293.120236)rotate(-321.664507)scale(0.08 -0.08)">
      <use xlink:href="#DejaVuSans-85"/>
     </g>
    </g>
   </g>
   <g id="text_23">
    <g id="patch_24">
     <path clip-path="url(#pd88156b938)" d="M 570.90025 334.030174 
L 570.90025 369.315174 
Q 570.90025 371.715174 573.30025 371.715174 
L 581.04275 371.715174 
Q 583.44275 371.715174 583.44275 369.315174 
L 583.44275 334.030174 
Q 583.44275 331.630174 581.04275 331.630174 
L 573.30025 331.630174 
Q 570.90025 331.630174 570.90025 334.030174 
z
" style="fill:#ffffff;stroke:#ffffff;stroke-linejoin:miter;"/>
    </g>
    <g clip-path="url(#pd88156b938)">
     <!-- Terminal -->
     <g transform="translate(574.964 334.030174)rotate(-270)scale(0.08 -0.08)">
      <use xlink:href="#DejaVuSans-84"/>
      <use x="60.818359" xlink:href="#DejaVuSans-101"/>
      <use x="122.341797" xlink:href="#DejaVuSans-114"/>
      <use x="163.439453" xlink:href="#DejaVuSans-109"/>
      <use x="260.851562" xlink:href="#DejaVuSans-105"/>
      <use x="288.634766" xlink:href="#DejaVuSans-110"/>
      <use x="352.013672" xlink:href="#DejaVuSans-97"/>
      <use x="413.292969" xlink:href="#DejaVuSans-108"/>
     </g>
    </g>
   </g>
   <g id="text_24">
    <g id="patch_25">
     <path clip-path="url(#pd88156b938)" d="M 620.193125 334.030174 
L 620.193125 369.315174 
Q 620.193125 371.715174 622.593125 371.715174 
L 630.335625 371.715174 
Q 632.735625 371.715174 632.735625 369.315174 
L 632.735625 334.030174 
Q 632.735625 331.630174 630.335625 331.630174 
L 622.593125 331.630174 
Q 620.193125 331.630174 620.193125 334.030174 
z
" style="fill:#ffffff;stroke:#ffffff;stroke-linejoin:miter;"/>
    </g>
    <g clip-path="url(#pd88156b938)">
     <!-- Terminal -->
     <g transform="translate(624.256875 334.030174)rotate(-270)scale(0.08 -0.08)">
      <use xlink:href="#DejaVuSans-84"/>
      <use x="60.818359" xlink:href="#DejaVuSans-101"/>
      <use x="122.341797" xlink:href="#DejaVuSans-114"/>
      <use x="163.439453" xlink:href="#DejaVuSans-109"/>
      <use x="260.851562" xlink:href="#DejaVuSans-105"/>
      <use x="288.634766" xlink:href="#DejaVuSans-110"/>
      <use x="352.013672" xlink:href="#DejaVuSans-97"/>
      <use x="413.292969" xlink:href="#DejaVuSans-108"/>
     </g>
    </g>
   </g>
   <g id="text_25">
    <g id="patch_26">
     <path clip-path="url(#pd88156b938)" d="M 669.486 334.030174 
L 669.486 369.315174 
Q 669.486 371.715174 671.886 371.715174 
L 679.6285 371.715174 
Q 682.0285 371.715174 682.0285 369.315174 
L 682.0285 334.030174 
Q 682.0285 331.630174 679.6285 331.630174 
L 671.886 331.630174 
Q 669.486 331.630174 669.486 334.030174 
z
" style="fill:#ffffff;stroke:#ffffff;stroke-linejoin:miter;"/>
    </g>
    <g clip-path="url(#pd88156b938)">
     <!-- Terminal -->
     <g transform="translate(673.54975 334.030174)rotate(-270)scale(0.08 -0.08)">
      <use xlink:href="#DejaVuSans-84"/>
      <use x="60.818359" xlink:href="#DejaVuSans-101"/>
      <use x="122.341797" xlink:href="#DejaVuSans-114"/>
      <use x="163.439453" xlink:href="#DejaVuSans-109"/>
      <use x="260.851562" xlink:href="#DejaVuSans-105"/>
      <use x="288.634766" xlink:href="#DejaVuSans-110"/>
      <use x="352.013672" xlink:href="#DejaVuSans-97"/>
      <use x="413.292969" xlink:href="#DejaVuSans-108"/>
     </g>
    </g>
   </g>
   <g id="text_26">
    <g id="patch_27">
     <path clip-path="url(#pd88156b938)" d="M 347.82738 297.969522 
L 349.79092 293.311461 
Q 350.723165 291.099918 348.511623 290.167673 
L 341.377095 287.160213 
Q 339.165553 286.227968 338.233308 288.43951 
L 336.269767 293.097571 
Q 335.337522 295.309113 337.549065 296.241358 
L 344.683592 299.248819 
Q 346.895135 300.181064 347.82738 297.969522 
z
" style="fill:#ffffff;stroke:#ffffff;stroke-linejoin:miter;"/>
    </g>
    <g clip-path="url(#pd88156b938)">
     <!-- E -->
     <g transform="translate(344.082732 296.391017)rotate(-67.142822)scale(0.08 -0.08)">
      <use xlink:href="#DejaVuSans-69"/>
     </g>
    </g>
   </g>
   <g id="text_27">
    <g id="patch_28">
     <path clip-path="url(#pd88156b938)" d="M 360.813027 293.066693 
L 362.982924 298.214289 
Q 363.915168 300.425831 366.126711 299.493586 
L 373.261239 296.486125 
Q 375.472781 295.55388 374.540536 293.342338 
L 372.370639 288.194743 
Q 371.438394 285.983201 369.226852 286.915445 
L 362.092324 289.922906 
Q 359.880782 290.855151 360.813027 293.066693 
z
" style="fill:#ffffff;stroke:#ffffff;stroke-linejoin:miter;"/>
    </g>
    <g clip-path="url(#pd88156b938)">
     <!-- C -->
     <g transform="translate(364.557675 291.488189)rotate(-292.857178)scale(0.08 -0.08)">
      <use xlink:href="#DejaVuSans-67"/>
     </g>
    </g>
   </g>
   <g id="text_28">
    <g id="patch_29">
     <path clip-path="url(#pd88156b938)" d="M 423.021625 334.030174 
L 423.021625 369.315174 
Q 423.021625 371.715174 425.421625 371.715174 
L 433.164125 371.715174 
Q 435.564125 371.715174 435.564125 369.315174 
L 435.564125 334.030174 
Q 435.564125 331.630174 433.164125 331.630174 
L 425.421625 331.630174 
Q 423.021625 331.630174 423.021625 334.030174 
z
" style="fill:#ffffff;stroke:#ffffff;stroke-linejoin:miter;"/>
    </g>
    <g clip-path="url(#pd88156b938)">
     <!-- Terminal -->
     <g transform="translate(427.085375 334.030174)rotate(-270)scale(0.08 -0.08)">
      <use xlink:href="#DejaVuSans-84"/>
      <use x="60.818359" xlink:href="#DejaVuSans-101"/>
      <use x="122.341797" xlink:href="#DejaVuSans-114"/>
      <use x="163.439453" xlink:href="#DejaVuSans-109"/>
      <use x="260.851562" xlink:href="#DejaVuSans-105"/>
      <use x="288.634766" xlink:href="#DejaVuSans-110"/>
      <use x="352.013672" xlink:href="#DejaVuSans-97"/>
      <use x="413.292969" xlink:href="#DejaVuSans-108"/>
     </g>
    </g>
   </g>
   <g id="text_29">
    <g id="patch_30">
     <path clip-path="url(#pd88156b938)" d="M 495.706004 297.969522 
L 497.669545 293.311461 
Q 498.60179 291.099918 496.390248 290.167673 
L 489.25572 287.160213 
Q 487.044178 286.227968 486.111933 288.43951 
L 484.148392 293.097571 
Q 483.216147 295.309113 485.427689 296.241358 
L 492.562217 299.248819 
Q 494.77376 300.181064 495.706004 297.969522 
z
" style="fill:#ffffff;stroke:#ffffff;stroke-linejoin:miter;"/>
    </g>
    <g clip-path="url(#pd88156b938)">
     <!-- E -->
     <g transform="translate(491.961356 296.391017)rotate(-67.142822)scale(0.08 -0.08)">
      <use xlink:href="#DejaVuSans-69"/>
     </g>
    </g>
   </g>
   <g id="text_30">
    <g id="patch_31">
     <path clip-path="url(#pd88156b938)" d="M 508.691651 293.066693 
L 510.861548 298.214289 
Q 511.793793 300.425831 514.005336 299.493586 
L 521.139863 296.486125 
Q 523.351406 295.55388 522.419161 293.342338 
L 520.249264 288.194743 
Q 519.317019 285.983201 517.105477 286.915445 
L 509.970949 289.922906 
Q 507.759406 290.855151 508.691651 293.066693 
z
" style="fill:#ffffff;stroke:#ffffff;stroke-linejoin:miter;"/>
    </g>
    <g clip-path="url(#pd88156b938)">
     <!-- C -->
     <g transform="translate(512.436299 291.488189)rotate(-292.857178)scale(0.08 -0.08)">
      <use xlink:href="#DejaVuSans-67"/>
     </g>
    </g>
   </g>
   <g id="text_31">
    <g id="patch_32">
     <path clip-path="url(#pd88156b938)" d="M 472.3145 334.030174 
L 472.3145 369.315174 
Q 472.3145 371.715174 474.7145 371.715174 
L 482.457 371.715174 
Q 484.857 371.715174 484.857 369.315174 
L 484.857 334.030174 
Q 484.857 331.630174 482.457 331.630174 
L 474.7145 331.630174 
Q 472.3145 331.630174 472.3145 334.030174 
z
" style="fill:#ffffff;stroke:#ffffff;stroke-linejoin:miter;"/>
    </g>
    <g clip-path="url(#pd88156b938)">
     <!-- Terminal -->
     <g transform="translate(476.37825 334.030174)rotate(-270)scale(0.08 -0.08)">
      <use xlink:href="#DejaVuSans-84"/>
      <use x="60.818359" xlink:href="#DejaVuSans-101"/>
      <use x="122.341797" xlink:href="#DejaVuSans-114"/>
      <use x="163.439453" xlink:href="#DejaVuSans-109"/>
      <use x="260.851562" xlink:href="#DejaVuSans-105"/>
      <use x="288.634766" xlink:href="#DejaVuSans-110"/>
      <use x="352.013672" xlink:href="#DejaVuSans-97"/>
      <use x="413.292969" xlink:href="#DejaVuSans-108"/>
     </g>
    </g>
   </g>
   <g id="text_32">
    <g id="patch_33">
     <path clip-path="url(#pd88156b938)" d="M 521.607375 334.030174 
L 521.607375 369.315174 
Q 521.607375 371.715174 524.007375 371.715174 
L 531.749875 371.715174 
Q 534.149875 371.715174 534.149875 369.315174 
L 534.149875 334.030174 
Q 534.149875 331.630174 531.749875 331.630174 
L 524.007375 331.630174 
Q 521.607375 331.630174 521.607375 334.030174 
z
" style="fill:#ffffff;stroke:#ffffff;stroke-linejoin:miter;"/>
    </g>
    <g clip-path="url(#pd88156b938)">
     <!-- Terminal -->
     <g transform="translate(525.671125 334.030174)rotate(-270)scale(0.08 -0.08)">
      <use xlink:href="#DejaVuSans-84"/>
      <use x="60.818359" xlink:href="#DejaVuSans-101"/>
      <use x="122.341797" xlink:href="#DejaVuSans-114"/>
      <use x="163.439453" xlink:href="#DejaVuSans-109"/>
      <use x="260.851562" xlink:href="#DejaVuSans-105"/>
      <use x="288.634766" xlink:href="#DejaVuSans-110"/>
      <use x="352.013672" xlink:href="#DejaVuSans-97"/>
      <use x="413.292969" xlink:href="#DejaVuSans-108"/>
     </g>
    </g>
   </g>
   <g id="text_33">
    <g id="patch_34">
     <path clip-path="url(#pd88156b938)" d="M 324.435875 334.030174 
L 324.435875 369.315174 
Q 324.435875 371.715174 326.835875 371.715174 
L 334.578375 371.715174 
Q 336.978375 371.715174 336.978375 369.315174 
L 336.978375 334.030174 
Q 336.978375 331.630174 334.578375 331.630174 
L 326.835875 331.630174 
Q 324.435875 331.630174 324.435875 334.030174 
z
" style="fill:#ffffff;stroke:#ffffff;stroke-linejoin:miter;"/>
    </g>
    <g clip-path="url(#pd88156b938)">
     <!-- Terminal -->
     <g transform="translate(328.499625 334.030174)rotate(-270)scale(0.08 -0.08)">
      <use xlink:href="#DejaVuSans-84"/>
      <use x="60.818359" xlink:href="#DejaVuSans-101"/>
      <use x="122.341797" xlink:href="#DejaVuSans-114"/>
      <use x="163.439453" xlink:href="#DejaVuSans-109"/>
      <use x="260.851562" xlink:href="#DejaVuSans-105"/>
      <use x="288.634766" xlink:href="#DejaVuSans-110"/>
      <use x="352.013672" xlink:href="#DejaVuSans-97"/>
      <use x="413.292969" xlink:href="#DejaVuSans-108"/>
     </g>
    </g>
   </g>
   <g id="text_34">
    <g id="patch_35">
     <path clip-path="url(#pd88156b938)" d="M 373.72875 334.030174 
L 373.72875 369.315174 
Q 373.72875 371.715174 376.12875 371.715174 
L 383.87125 371.715174 
Q 386.27125 371.715174 386.27125 369.315174 
L 386.27125 334.030174 
Q 386.27125 331.630174 383.87125 331.630174 
L 376.12875 331.630174 
Q 373.72875 331.630174 373.72875 334.030174 
z
" style="fill:#ffffff;stroke:#ffffff;stroke-linejoin:miter;"/>
    </g>
    <g clip-path="url(#pd88156b938)">
     <!-- Terminal -->
     <g transform="translate(377.7925 334.030174)rotate(-270)scale(0.08 -0.08)">
      <use xlink:href="#DejaVuSans-84"/>
      <use x="60.818359" xlink:href="#DejaVuSans-101"/>
      <use x="122.341797" xlink:href="#DejaVuSans-114"/>
      <use x="163.439453" xlink:href="#DejaVuSans-109"/>
      <use x="260.851562" xlink:href="#DejaVuSans-105"/>
      <use x="288.634766" xlink:href="#DejaVuSans-110"/>
      <use x="352.013672" xlink:href="#DejaVuSans-97"/>
      <use x="413.292969" xlink:href="#DejaVuSans-108"/>
     </g>
    </g>
   </g>
   <g id="text_35">
    <g id="patch_36">
     <path clip-path="url(#pd88156b938)" d="M 28.678626 334.030174 
L 28.678626 369.315174 
Q 28.678626 371.715174 31.078626 371.715174 
L 38.821126 371.715174 
Q 41.221126 371.715174 41.221126 369.315174 
L 41.221126 334.030174 
Q 41.221126 331.630174 38.821126 331.630174 
L 31.078626 331.630174 
Q 28.678626 331.630174 28.678626 334.030174 
z
" style="fill:#ffffff;stroke:#ffffff;stroke-linejoin:miter;"/>
    </g>
    <g clip-path="url(#pd88156b938)">
     <!-- Terminal -->
     <g transform="translate(32.742376 334.030174)rotate(-270)scale(0.08 -0.08)">
      <use xlink:href="#DejaVuSans-84"/>
      <use x="60.818359" xlink:href="#DejaVuSans-101"/>
      <use x="122.341797" xlink:href="#DejaVuSans-114"/>
      <use x="163.439453" xlink:href="#DejaVuSans-109"/>
      <use x="260.851562" xlink:href="#DejaVuSans-105"/>
      <use x="288.634766" xlink:href="#DejaVuSans-110"/>
      <use x="352.013672" xlink:href="#DejaVuSans-97"/>
      <use x="413.292969" xlink:href="#DejaVuSans-108"/>
     </g>
    </g>
   </g>
   <g id="text_36">
    <g id="patch_37">
     <path clip-path="url(#pd88156b938)" d="M 77.9715 334.030174 
L 77.9715 369.315174 
Q 77.9715 371.715174 80.3715 371.715174 
L 88.114 371.715174 
Q 90.514 371.715174 90.514 369.315174 
L 90.514 334.030174 
Q 90.514 331.630174 88.114 331.630174 
L 80.3715 331.630174 
Q 77.9715 331.630174 77.9715 334.030174 
z
" style="fill:#ffffff;stroke:#ffffff;stroke-linejoin:miter;"/>
    </g>
    <g clip-path="url(#pd88156b938)">
     <!-- Terminal -->
     <g transform="translate(82.03525 334.030174)rotate(-270)scale(0.08 -0.08)">
      <use xlink:href="#DejaVuSans-84"/>
      <use x="60.818359" xlink:href="#DejaVuSans-101"/>
      <use x="122.341797" xlink:href="#DejaVuSans-114"/>
      <use x="163.439453" xlink:href="#DejaVuSans-109"/>
      <use x="260.851562" xlink:href="#DejaVuSans-105"/>
      <use x="288.634766" xlink:href="#DejaVuSans-110"/>
      <use x="352.013672" xlink:href="#DejaVuSans-97"/>
      <use x="413.292969" xlink:href="#DejaVuSans-108"/>
     </g>
    </g>
   </g>
   <g id="text_37">
    <g id="patch_38">
     <path clip-path="url(#pd88156b938)" d="M 718.778874 334.030174 
L 718.778874 369.315174 
Q 718.778874 371.715174 721.178874 371.715174 
L 728.921374 371.715174 
Q 731.321374 371.715174 731.321374 369.315174 
L 731.321374 334.030174 
Q 731.321374 331.630174 728.921374 331.630174 
L 721.178874 331.630174 
Q 718.778874 331.630174 718.778874 334.030174 
z
" style="fill:#ffffff;stroke:#ffffff;stroke-linejoin:miter;"/>
    </g>
    <g clip-path="url(#pd88156b938)">
     <!-- Terminal -->
     <g transform="translate(722.842624 334.030174)rotate(-270)scale(0.08 -0.08)">
      <use xlink:href="#DejaVuSans-84"/>
      <use x="60.818359" xlink:href="#DejaVuSans-101"/>
      <use x="122.341797" xlink:href="#DejaVuSans-114"/>
      <use x="163.439453" xlink:href="#DejaVuSans-109"/>
      <use x="260.851562" xlink:href="#DejaVuSans-105"/>
      <use x="288.634766" xlink:href="#DejaVuSans-110"/>
      <use x="352.013672" xlink:href="#DejaVuSans-97"/>
      <use x="413.292969" xlink:href="#DejaVuSans-108"/>
     </g>
    </g>
   </g>
   <g id="PathCollection_1">
    <defs>
     <path d="M 0 8.660254 
C 2.296726 8.660254 4.499694 7.747755 6.123724 6.123724 
C 7.747755 4.499694 8.660254 2.296726 8.660254 0 
C 8.660254 -2.296726 7.747755 -4.499694 6.123724 -6.123724 
C 4.499694 -7.747755 2.296726 -8.660254 0 -8.660254 
C -2.296726 -8.660254 -4.499694 -7.747755 -6.123724 -6.123724 
C -7.747755 -4.499694 -8.660254 -2.296726 -8.660254 0 
C -8.660254 2.296726 -7.747755 4.499694 -6.123724 6.123724 
C -4.499694 7.747755 -2.296726 8.660254 0 8.660254 
z
" id="C0_0_916b86f398"/>
    </defs>
    <g clip-path="url(#pd88156b938)">
     <use style="fill:#ffffff;stroke:#ffffff;" x="34.949876" xlink:href="#C0_0_916b86f398" y="380.906753"/>
    </g>
    <g clip-path="url(#pd88156b938)">
     <use style="fill:#ffffff;stroke:#ffffff;" x="84.24275" xlink:href="#C0_0_916b86f398" y="380.906753"/>
    </g>
    <g clip-path="url(#pd88156b938)">
     <use style="fill:#ffffff;stroke:#ffffff;" x="133.535625" xlink:href="#C0_0_916b86f398" y="380.906753"/>
    </g>
    <g clip-path="url(#pd88156b938)">
     <use style="fill:#ffffff;stroke:#ffffff;" x="182.8285" xlink:href="#C0_0_916b86f398" y="380.906753"/>
    </g>
    <g clip-path="url(#pd88156b938)">
     <use style="fill:#ffffff;stroke:#ffffff;" x="232.121375" xlink:href="#C0_0_916b86f398" y="380.906753"/>
    </g>
    <g clip-path="url(#pd88156b938)">
     <use style="fill:#ffffff;stroke:#ffffff;" x="281.41425" xlink:href="#C0_0_916b86f398" y="380.906753"/>
    </g>
    <g clip-path="url(#pd88156b938)">
     <use style="fill:#ffffff;stroke:#ffffff;" x="330.707125" xlink:href="#C0_0_916b86f398" y="380.906753"/>
    </g>
    <g clip-path="url(#pd88156b938)">
     <use style="fill:#ffffff;stroke:#ffffff;" x="380" xlink:href="#C0_0_916b86f398" y="380.906753"/>
    </g>
    <g clip-path="url(#pd88156b938)">
     <use style="fill:#ffffff;stroke:#ffffff;" x="429.292875" xlink:href="#C0_0_916b86f398" y="380.906753"/>
    </g>
    <g clip-path="url(#pd88156b938)">
     <use style="fill:#ffffff;stroke:#ffffff;" x="478.58575" xlink:href="#C0_0_916b86f398" y="380.906753"/>
    </g>
    <g clip-path="url(#pd88156b938)">
     <use style="fill:#ffffff;stroke:#ffffff;" x="527.878625" xlink:href="#C0_0_916b86f398" y="380.906753"/>
    </g>
    <g clip-path="url(#pd88156b938)">
     <use style="fill:#ffffff;stroke:#ffffff;" x="577.1715" xlink:href="#C0_0_916b86f398" y="380.906753"/>
    </g>
    <g clip-path="url(#pd88156b938)">
     <use style="fill:#ffffff;stroke:#ffffff;" x="626.464375" xlink:href="#C0_0_916b86f398" y="380.906753"/>
    </g>
    <g clip-path="url(#pd88156b938)">
     <use style="fill:#ffffff;stroke:#ffffff;" x="675.75725" xlink:href="#C0_0_916b86f398" y="380.906753"/>
    </g>
    <g clip-path="url(#pd88156b938)">
     <use style="fill:#ffffff;stroke:#ffffff;" x="725.050124" xlink:href="#C0_0_916b86f398" y="380.906753"/>
    </g>
    <g clip-path="url(#pd88156b938)">
     <use style="fill:#ffffff;stroke:#ffffff;" x="212.404225" xlink:href="#C0_0_916b86f398" y="19.093247"/>
    </g>
    <g clip-path="url(#pd88156b938)">
     <use style="fill:#ffffff;stroke:#ffffff;" x="212.404225" xlink:href="#C0_0_916b86f398" y="82.466119"/>
    </g>
    <g clip-path="url(#pd88156b938)">
     <use style="fill:#ffffff;stroke:#ffffff;" x="59.596313" xlink:href="#C0_0_916b86f398" y="263.970437"/>
    </g>
    <g clip-path="url(#pd88156b938)">
     <use style="fill:#ffffff;stroke:#ffffff;" x="133.535625" xlink:href="#C0_0_916b86f398" y="322.438595"/>
    </g>
    <g clip-path="url(#pd88156b938)">
     <use style="fill:#ffffff;stroke:#ffffff;" x="182.8285" xlink:href="#C0_0_916b86f398" y="322.438595"/>
    </g>
    <g clip-path="url(#pd88156b938)">
     <use style="fill:#ffffff;stroke:#ffffff;" x="232.121375" xlink:href="#C0_0_916b86f398" y="322.438595"/>
    </g>
    <g clip-path="url(#pd88156b938)">
     <use style="fill:#ffffff;stroke:#ffffff;" x="453.939312" xlink:href="#C0_0_916b86f398" y="144.265897"/>
    </g>
    <g clip-path="url(#pd88156b938)">
     <use style="fill:#ffffff;stroke:#ffffff;" x="281.41425" xlink:href="#C0_0_916b86f398" y="322.438595"/>
    </g>
    <g clip-path="url(#pd88156b938)">
     <use style="fill:#ffffff;stroke:#ffffff;" x="429.292875" xlink:href="#C0_0_916b86f398" y="204.688922"/>
    </g>
    <g clip-path="url(#pd88156b938)">
     <use style="fill:#ffffff;stroke:#ffffff;" x="651.110812" xlink:href="#C0_0_916b86f398" y="263.970437"/>
    </g>
    <g clip-path="url(#pd88156b938)">
     <use style="fill:#ffffff;stroke:#ffffff;" x="577.1715" xlink:href="#C0_0_916b86f398" y="322.438595"/>
    </g>
    <g clip-path="url(#pd88156b938)">
     <use style="fill:#ffffff;stroke:#ffffff;" x="626.464375" xlink:href="#C0_0_916b86f398" y="322.438595"/>
    </g>
    <g clip-path="url(#pd88156b938)">
     <use style="fill:#ffffff;stroke:#ffffff;" x="675.75725" xlink:href="#C0_0_916b86f398" y="322.438595"/>
    </g>
    <g clip-path="url(#pd88156b938)">
     <use style="fill:#ffffff;stroke:#ffffff;" x="355.353563" xlink:href="#C0_0_916b86f398" y="263.970437"/>
    </g>
    <g clip-path="url(#pd88156b938)">
     <use style="fill:#ffffff;stroke:#ffffff;" x="429.292875" xlink:href="#C0_0_916b86f398" y="322.438595"/>
    </g>
    <g clip-path="url(#pd88156b938)">
     <use style="fill:#ffffff;stroke:#ffffff;" x="503.232187" xlink:href="#C0_0_916b86f398" y="263.970437"/>
    </g>
    <g clip-path="url(#pd88156b938)">
     <use style="fill:#ffffff;stroke:#ffffff;" x="478.58575" xlink:href="#C0_0_916b86f398" y="322.438595"/>
    </g>
    <g clip-path="url(#pd88156b938)">
     <use style="fill:#ffffff;stroke:#ffffff;" x="527.878625" xlink:href="#C0_0_916b86f398" y="322.438595"/>
    </g>
    <g clip-path="url(#pd88156b938)">
     <use style="fill:#ffffff;stroke:#ffffff;" x="330.707125" xlink:href="#C0_0_916b86f398" y="322.438595"/>
    </g>
    <g clip-path="url(#pd88156b938)">
     <use style="fill:#ffffff;stroke:#ffffff;" x="380" xlink:href="#C0_0_916b86f398" y="322.438595"/>
    </g>
    <g clip-path="url(#pd88156b938)">
     <use style="fill:#ffffff;stroke:#ffffff;" x="34.949876" xlink:href="#C0_0_916b86f398" y="322.438595"/>
    </g>
    <g clip-path="url(#pd88156b938)">
     <use style="fill:#ffffff;stroke:#ffffff;" x="84.24275" xlink:href="#C0_0_916b86f398" y="322.438595"/>
    </g>
    <g clip-path="url(#pd88156b938)">
     <use style="fill:#ffffff;stroke:#ffffff;" x="725.050124" xlink:href="#C0_0_916b86f398" y="322.438595"/>
    </g>
   </g>
   <g id="text_38">
    <g clip-path="url(#pd88156b938)">
     <!-- Not -->
     <defs>
      <path d="M 30.609375 48.390625 
Q 23.390625 48.390625 19.1875 42.75 
Q 14.984375 37.109375 14.984375 27.296875 
Q 14.984375 17.484375 19.15625 11.84375 
Q 23.34375 6.203125 30.609375 6.203125 
Q 37.796875 6.203125 41.984375 11.859375 
Q 46.1875 17.53125 46.1875 27.296875 
Q 46.1875 37.015625 41.984375 42.703125 
Q 37.796875 48.390625 30.609375 48.390625 
z
M 30.609375 56 
Q 42.328125 56 49.015625 48.375 
Q 55.71875 40.765625 55.71875 27.296875 
Q 55.71875 13.875 49.015625 6.21875 
Q 42.328125 -1.421875 30.609375 -1.421875 
Q 18.84375 -1.421875 12.171875 6.21875 
Q 5.515625 13.875 5.515625 27.296875 
Q 5.515625 40.765625 12.171875 48.375 
Q 18.84375 56 30.609375 56 
z
" id="DejaVuSans-111"/>
      <path d="M 18.3125 70.21875 
L 18.3125 54.6875 
L 36.8125 54.6875 
L 36.8125 47.703125 
L 18.3125 47.703125 
L 18.3125 18.015625 
Q 18.3125 11.328125 20.140625 9.421875 
Q 21.96875 7.515625 27.59375 7.515625 
L 36.8125 7.515625 
L 36.8125 0 
L 27.59375 0 
Q 17.1875 0 13.234375 3.875 
Q 9.28125 7.765625 9.28125 18.015625 
L 9.28125 47.703125 
L 2.6875 47.703125 
L 2.6875 54.6875 
L 9.28125 54.6875 
L 9.28125 70.21875 
z
" id="DejaVuSans-116"/>
     </defs>
     <g transform="translate(26.189719 383.666128)scale(0.1 -0.1)">
      <use xlink:href="#DejaVuSans-78"/>
      <use x="74.804688" xlink:href="#DejaVuSans-111"/>
      <use x="135.986328" xlink:href="#DejaVuSans-116"/>
     </g>
    </g>
   </g>
   <g id="text_39">
    <g clip-path="url(#pd88156b938)">
     <!-- once -->
     <defs>
      <path d="M 48.78125 52.59375 
L 48.78125 44.1875 
Q 44.96875 46.296875 41.140625 47.34375 
Q 37.3125 48.390625 33.40625 48.390625 
Q 24.65625 48.390625 19.8125 42.84375 
Q 14.984375 37.3125 14.984375 27.296875 
Q 14.984375 17.28125 19.8125 11.734375 
Q 24.65625 6.203125 33.40625 6.203125 
Q 37.3125 6.203125 41.140625 7.25 
Q 44.96875 8.296875 48.78125 10.40625 
L 48.78125 2.09375 
Q 45.015625 0.34375 40.984375 -0.53125 
Q 36.96875 -1.421875 32.421875 -1.421875 
Q 20.0625 -1.421875 12.78125 6.34375 
Q 5.515625 14.109375 5.515625 27.296875 
Q 5.515625 40.671875 12.859375 48.328125 
Q 20.21875 56 33.015625 56 
Q 37.15625 56 41.109375 55.140625 
Q 45.0625 54.296875 48.78125 52.59375 
z
" id="DejaVuSans-99"/>
     </defs>
     <g transform="translate(72.188844 383.666128)scale(0.1 -0.1)">
      <use xlink:href="#DejaVuSans-111"/>
      <use x="61.181641" xlink:href="#DejaVuSans-110"/>
      <use x="124.560547" xlink:href="#DejaVuSans-99"/>
      <use x="179.541016" xlink:href="#DejaVuSans-101"/>
     </g>
    </g>
   </g>
   <g id="text_40">
    <g clip-path="url(#pd88156b938)">
     <!-- did -->
     <defs>
      <path d="M 45.40625 46.390625 
L 45.40625 75.984375 
L 54.390625 75.984375 
L 54.390625 0 
L 45.40625 0 
L 45.40625 8.203125 
Q 42.578125 3.328125 38.25 0.953125 
Q 33.9375 -1.421875 27.875 -1.421875 
Q 17.96875 -1.421875 11.734375 6.484375 
Q 5.515625 14.40625 5.515625 27.296875 
Q 5.515625 40.1875 11.734375 48.09375 
Q 17.96875 56 27.875 56 
Q 33.9375 56 38.25 53.625 
Q 42.578125 51.265625 45.40625 46.390625 
z
M 14.796875 27.296875 
Q 14.796875 17.390625 18.875 11.75 
Q 22.953125 6.109375 30.078125 6.109375 
Q 37.203125 6.109375 41.296875 11.75 
Q 45.40625 17.390625 45.40625 27.296875 
Q 45.40625 37.203125 41.296875 42.84375 
Q 37.203125 48.484375 30.078125 48.484375 
Q 22.953125 48.484375 18.875 42.84375 
Q 14.796875 37.203125 14.796875 27.296875 
z
" id="DejaVuSans-100"/>
     </defs>
     <g transform="translate(125.798125 383.666128)scale(0.1 -0.1)">
      <use xlink:href="#DejaVuSans-100"/>
      <use x="63.476562" xlink:href="#DejaVuSans-105"/>
      <use x="91.259766" xlink:href="#DejaVuSans-100"/>
     </g>
    </g>
   </g>
   <g id="text_41">
    <g clip-path="url(#pd88156b938)">
     <!-- he -->
     <defs>
      <path d="M 54.890625 33.015625 
L 54.890625 0 
L 45.90625 0 
L 45.90625 32.71875 
Q 45.90625 40.484375 42.875 44.328125 
Q 39.84375 48.1875 33.796875 48.1875 
Q 26.515625 48.1875 22.3125 43.546875 
Q 18.109375 38.921875 18.109375 30.90625 
L 18.109375 0 
L 9.078125 0 
L 9.078125 75.984375 
L 18.109375 75.984375 
L 18.109375 46.1875 
Q 21.34375 51.125 25.703125 53.5625 
Q 30.078125 56 35.796875 56 
Q 45.21875 56 50.046875 50.171875 
Q 54.890625 44.34375 54.890625 33.015625 
z
" id="DejaVuSans-104"/>
     </defs>
     <g transform="translate(176.583188 383.666128)scale(0.1 -0.1)">
      <use xlink:href="#DejaVuSans-104"/>
      <use x="63.378906" xlink:href="#DejaVuSans-101"/>
     </g>
    </g>
   </g>
   <g id="text_42">
    <g clip-path="url(#pd88156b938)">
     <!-- comment -->
     <g transform="translate(208.366688 383.666128)scale(0.1 -0.1)">
      <use xlink:href="#DejaVuSans-99"/>
      <use x="54.980469" xlink:href="#DejaVuSans-111"/>
      <use x="116.162109" xlink:href="#DejaVuSans-109"/>
      <use x="213.574219" xlink:href="#DejaVuSans-109"/>
      <use x="310.986328" xlink:href="#DejaVuSans-101"/>
      <use x="372.509766" xlink:href="#DejaVuSans-110"/>
      <use x="435.888672" xlink:href="#DejaVuSans-116"/>
     </g>
    </g>
   </g>
   <g id="text_43">
    <g clip-path="url(#pd88156b938)">
     <!-- on -->
     <g transform="translate(275.186125 383.666128)scale(0.1 -0.1)">
      <use xlink:href="#DejaVuSans-111"/>
      <use x="61.181641" xlink:href="#DejaVuSans-110"/>
     </g>
    </g>
   </g>
   <g id="text_44">
    <g clip-path="url(#pd88156b938)">
     <!-- the -->
     <g transform="translate(322.501656 383.666128)scale(0.1 -0.1)">
      <use xlink:href="#DejaVuSans-116"/>
      <use x="39.208984" xlink:href="#DejaVuSans-104"/>
      <use x="102.587891" xlink:href="#DejaVuSans-101"/>
     </g>
    </g>
   </g>
   <g id="text_45">
    <g clip-path="url(#pd88156b938)">
     <!-- length -->
     <defs>
      <path d="M 45.40625 27.984375 
Q 45.40625 37.75 41.375 43.109375 
Q 37.359375 48.484375 30.078125 48.484375 
Q 22.859375 48.484375 18.828125 43.109375 
Q 14.796875 37.75 14.796875 27.984375 
Q 14.796875 18.265625 18.828125 12.890625 
Q 22.859375 7.515625 30.078125 7.515625 
Q 37.359375 7.515625 41.375 12.890625 
Q 45.40625 18.265625 45.40625 27.984375 
z
M 54.390625 6.78125 
Q 54.390625 -7.171875 48.1875 -13.984375 
Q 42 -20.796875 29.203125 -20.796875 
Q 24.46875 -20.796875 20.265625 -20.09375 
Q 16.0625 -19.390625 12.109375 -17.921875 
L 12.109375 -9.1875 
Q 16.0625 -11.328125 19.921875 -12.34375 
Q 23.78125 -13.375 27.78125 -13.375 
Q 36.625 -13.375 41.015625 -8.765625 
Q 45.40625 -4.15625 45.40625 5.171875 
L 45.40625 9.625 
Q 42.625 4.78125 38.28125 2.390625 
Q 33.9375 0 27.875 0 
Q 17.828125 0 11.671875 7.65625 
Q 5.515625 15.328125 5.515625 27.984375 
Q 5.515625 40.671875 11.671875 48.328125 
Q 17.828125 56 27.875 56 
Q 33.9375 56 38.28125 53.609375 
Q 42.625 51.21875 45.40625 46.390625 
L 45.40625 54.6875 
L 54.390625 54.6875 
z
" id="DejaVuSans-103"/>
     </defs>
     <g transform="translate(364.0625 383.666128)scale(0.1 -0.1)">
      <use xlink:href="#DejaVuSans-108"/>
      <use x="27.783203" xlink:href="#DejaVuSans-101"/>
      <use x="89.306641" xlink:href="#DejaVuSans-110"/>
      <use x="152.685547" xlink:href="#DejaVuSans-103"/>
      <use x="216.162109" xlink:href="#DejaVuSans-116"/>
      <use x="255.371094" xlink:href="#DejaVuSans-104"/>
     </g>
    </g>
   </g>
   <g id="text_46">
    <g clip-path="url(#pd88156b938)">
     <!-- or -->
     <g transform="translate(424.178031 383.666128)scale(0.1 -0.1)">
      <use xlink:href="#DejaVuSans-111"/>
      <use x="61.181641" xlink:href="#DejaVuSans-114"/>
     </g>
    </g>
   </g>
   <g id="text_47">
    <g clip-path="url(#pd88156b938)">
     <!-- the -->
     <g transform="translate(470.380281 383.666128)scale(0.1 -0.1)">
      <use xlink:href="#DejaVuSans-116"/>
      <use x="39.208984" xlink:href="#DejaVuSans-104"/>
      <use x="102.587891" xlink:href="#DejaVuSans-101"/>
     </g>
    </g>
   </g>
   <g id="text_48">
    <g clip-path="url(#pd88156b938)">
     <!-- hardships -->
     <defs>
      <path d="M 44.28125 53.078125 
L 44.28125 44.578125 
Q 40.484375 46.53125 36.375 47.5 
Q 32.28125 48.484375 27.875 48.484375 
Q 21.1875 48.484375 17.84375 46.4375 
Q 14.5 44.390625 14.5 40.28125 
Q 14.5 37.15625 16.890625 35.375 
Q 19.28125 33.59375 26.515625 31.984375 
L 29.59375 31.296875 
Q 39.15625 29.25 43.1875 25.515625 
Q 47.21875 21.78125 47.21875 15.09375 
Q 47.21875 7.46875 41.1875 3.015625 
Q 35.15625 -1.421875 24.609375 -1.421875 
Q 20.21875 -1.421875 15.453125 -0.5625 
Q 10.6875 0.296875 5.421875 2 
L 5.421875 11.28125 
Q 10.40625 8.6875 15.234375 7.390625 
Q 20.0625 6.109375 24.8125 6.109375 
Q 31.15625 6.109375 34.5625 8.28125 
Q 37.984375 10.453125 37.984375 14.40625 
Q 37.984375 18.0625 35.515625 20.015625 
Q 33.0625 21.96875 24.703125 23.78125 
L 21.578125 24.515625 
Q 13.234375 26.265625 9.515625 29.90625 
Q 5.8125 33.546875 5.8125 39.890625 
Q 5.8125 47.609375 11.28125 51.796875 
Q 16.75 56 26.8125 56 
Q 31.78125 56 36.171875 55.265625 
Q 40.578125 54.546875 44.28125 53.078125 
z
" id="DejaVuSans-115"/>
      <path d="M 18.109375 8.203125 
L 18.109375 -20.796875 
L 9.078125 -20.796875 
L 9.078125 54.6875 
L 18.109375 54.6875 
L 18.109375 46.390625 
Q 20.953125 51.265625 25.265625 53.625 
Q 29.59375 56 35.59375 56 
Q 45.5625 56 51.78125 48.09375 
Q 58.015625 40.1875 58.015625 27.296875 
Q 58.015625 14.40625 51.78125 6.484375 
Q 45.5625 -1.421875 35.59375 -1.421875 
Q 29.59375 -1.421875 25.265625 0.953125 
Q 20.953125 3.328125 18.109375 8.203125 
z
M 48.6875 27.296875 
Q 48.6875 37.203125 44.609375 42.84375 
Q 40.53125 48.484375 33.40625 48.484375 
Q 26.265625 48.484375 22.1875 42.84375 
Q 18.109375 37.203125 18.109375 27.296875 
Q 18.109375 17.390625 22.1875 11.75 
Q 26.265625 6.109375 33.40625 6.109375 
Q 40.53125 6.109375 44.609375 11.75 
Q 48.6875 17.390625 48.6875 27.296875 
z
" id="DejaVuSans-112"/>
     </defs>
     <g transform="translate(503.4755 383.666128)scale(0.1 -0.1)">
      <use xlink:href="#DejaVuSans-104"/>
      <use x="63.378906" xlink:href="#DejaVuSans-97"/>
      <use x="124.658203" xlink:href="#DejaVuSans-114"/>
      <use x="165.755859" xlink:href="#DejaVuSans-100"/>
      <use x="229.232422" xlink:href="#DejaVuSans-115"/>
      <use x="281.332031" xlink:href="#DejaVuSans-104"/>
      <use x="344.710938" xlink:href="#DejaVuSans-105"/>
      <use x="372.494141" xlink:href="#DejaVuSans-112"/>
      <use x="435.970703" xlink:href="#DejaVuSans-115"/>
     </g>
    </g>
   </g>
   <g id="text_49">
    <g clip-path="url(#pd88156b938)">
     <!-- of -->
     <defs>
      <path d="M 37.109375 75.984375 
L 37.109375 68.5 
L 28.515625 68.5 
Q 23.6875 68.5 21.796875 66.546875 
Q 19.921875 64.59375 19.921875 59.515625 
L 19.921875 54.6875 
L 34.71875 54.6875 
L 34.71875 47.703125 
L 19.921875 47.703125 
L 19.921875 0 
L 10.890625 0 
L 10.890625 47.703125 
L 2.296875 47.703125 
L 2.296875 54.6875 
L 10.890625 54.6875 
L 10.890625 58.5 
Q 10.890625 67.625 15.140625 71.796875 
Q 19.390625 75.984375 28.609375 75.984375 
z
" id="DejaVuSans-102"/>
     </defs>
     <g transform="translate(572.351968 383.666128)scale(0.1 -0.1)">
      <use xlink:href="#DejaVuSans-111"/>
      <use x="61.181641" xlink:href="#DejaVuSans-102"/>
     </g>
    </g>
   </g>
   <g id="text_50">
    <g clip-path="url(#pd88156b938)">
     <!-- a -->
     <g transform="translate(623.400312 383.666128)scale(0.1 -0.1)">
      <use xlink:href="#DejaVuSans-97"/>
     </g>
    </g>
   </g>
   <g id="text_51">
    <g clip-path="url(#pd88156b938)">
     <!-- journey -->
     <defs>
      <path d="M 9.421875 54.6875 
L 18.40625 54.6875 
L 18.40625 -0.984375 
Q 18.40625 -11.421875 14.421875 -16.109375 
Q 10.453125 -20.796875 1.609375 -20.796875 
L -1.8125 -20.796875 
L -1.8125 -13.1875 
L 0.59375 -13.1875 
Q 5.71875 -13.1875 7.5625 -10.8125 
Q 9.421875 -8.453125 9.421875 -0.984375 
z
M 9.421875 75.984375 
L 18.40625 75.984375 
L 18.40625 64.59375 
L 9.421875 64.59375 
z
" id="DejaVuSans-106"/>
      <path d="M 8.5 21.578125 
L 8.5 54.6875 
L 17.484375 54.6875 
L 17.484375 21.921875 
Q 17.484375 14.15625 20.5 10.265625 
Q 23.53125 6.390625 29.59375 6.390625 
Q 36.859375 6.390625 41.078125 11.03125 
Q 45.3125 15.671875 45.3125 23.6875 
L 45.3125 54.6875 
L 54.296875 54.6875 
L 54.296875 0 
L 45.3125 0 
L 45.3125 8.40625 
Q 42.046875 3.421875 37.71875 1 
Q 33.40625 -1.421875 27.6875 -1.421875 
Q 18.265625 -1.421875 13.375 4.4375 
Q 8.5 10.296875 8.5 21.578125 
z
M 31.109375 56 
z
" id="DejaVuSans-117"/>
      <path d="M 32.171875 -5.078125 
Q 28.375 -14.84375 24.75 -17.8125 
Q 21.140625 -20.796875 15.09375 -20.796875 
L 7.90625 -20.796875 
L 7.90625 -13.28125 
L 13.1875 -13.28125 
Q 16.890625 -13.28125 18.9375 -11.515625 
Q 21 -9.765625 23.484375 -3.21875 
L 25.09375 0.875 
L 2.984375 54.6875 
L 12.5 54.6875 
L 29.59375 11.921875 
L 46.6875 54.6875 
L 56.203125 54.6875 
z
" id="DejaVuSans-121"/>
     </defs>
     <g transform="translate(656.880687 383.666128)scale(0.1 -0.1)">
      <use xlink:href="#DejaVuSans-106"/>
      <use x="27.783203" xlink:href="#DejaVuSans-111"/>
      <use x="88.964844" xlink:href="#DejaVuSans-117"/>
      <use x="152.34375" xlink:href="#DejaVuSans-114"/>
      <use x="193.441406" xlink:href="#DejaVuSans-110"/>
      <use x="256.820312" xlink:href="#DejaVuSans-101"/>
      <use x="318.34375" xlink:href="#DejaVuSans-121"/>
     </g>
    </g>
   </g>
   <g id="text_52">
    <g clip-path="url(#pd88156b938)">
     <!-- . -->
     <defs>
      <path d="M 10.6875 12.40625 
L 21 12.40625 
L 21 0 
L 10.6875 0 
z
" id="DejaVuSans-46"/>
     </defs>
     <g transform="translate(723.461062 383.666128)scale(0.1 -0.1)">
      <use xlink:href="#DejaVuSans-46"/>
     </g>
    </g>
   </g>
   <g id="text_53">
    <g clip-path="url(#pd88156b938)">
     <!-- 1.1 -->
     <defs>
      <path d="M 12.40625 8.296875 
L 28.515625 8.296875 
L 28.515625 63.921875 
L 10.984375 60.40625 
L 10.984375 69.390625 
L 28.421875 72.90625 
L 38.28125 72.90625 
L 38.28125 8.296875 
L 54.390625 8.296875 
L 54.390625 0 
L 12.40625 0 
z
" id="DejaVuSans-49"/>
     </defs>
     <g transform="translate(204.452663 21.852622)scale(0.1 -0.1)">
      <use xlink:href="#DejaVuSans-49"/>
      <use x="63.623047" xlink:href="#DejaVuSans-46"/>
      <use x="95.410156" xlink:href="#DejaVuSans-49"/>
     </g>
    </g>
   </g>
   <g id="text_54">
    <g clip-path="url(#pd88156b938)">
     <!-- 1.2 -->
     <defs>
      <path d="M 19.1875 8.296875 
L 53.609375 8.296875 
L 53.609375 0 
L 7.328125 0 
L 7.328125 8.296875 
Q 12.9375 14.109375 22.625 23.890625 
Q 32.328125 33.6875 34.8125 36.53125 
Q 39.546875 41.84375 41.421875 45.53125 
Q 43.3125 49.21875 43.3125 52.78125 
Q 43.3125 58.59375 39.234375 62.25 
Q 35.15625 65.921875 28.609375 65.921875 
Q 23.96875 65.921875 18.8125 64.3125 
Q 13.671875 62.703125 7.8125 59.421875 
L 7.8125 69.390625 
Q 13.765625 71.78125 18.9375 73 
Q 24.125 74.21875 28.421875 74.21875 
Q 39.75 74.21875 46.484375 68.546875 
Q 53.21875 62.890625 53.21875 53.421875 
Q 53.21875 48.921875 51.53125 44.890625 
Q 49.859375 40.875 45.40625 35.40625 
Q 44.1875 33.984375 37.640625 27.21875 
Q 31.109375 20.453125 19.1875 8.296875 
z
" id="DejaVuSans-50"/>
     </defs>
     <g transform="translate(204.452663 85.225494)scale(0.1 -0.1)">
      <use xlink:href="#DejaVuSans-49"/>
      <use x="63.623047" xlink:href="#DejaVuSans-46"/>
      <use x="95.410156" xlink:href="#DejaVuSans-50"/>
     </g>
    </g>
   </g>
   <g id="text_55">
    <g clip-path="url(#pd88156b938)">
     <!-- 1.4 -->
     <defs>
      <path d="M 37.796875 64.3125 
L 12.890625 25.390625 
L 37.796875 25.390625 
z
M 35.203125 72.90625 
L 47.609375 72.90625 
L 47.609375 25.390625 
L 58.015625 25.390625 
L 58.015625 17.1875 
L 47.609375 17.1875 
L 47.609375 0 
L 37.796875 0 
L 37.796875 17.1875 
L 4.890625 17.1875 
L 4.890625 26.703125 
z
" id="DejaVuSans-52"/>
     </defs>
     <g transform="translate(51.64475 266.729812)scale(0.1 -0.1)">
      <use xlink:href="#DejaVuSans-49"/>
      <use x="63.623047" xlink:href="#DejaVuSans-46"/>
      <use x="95.410156" xlink:href="#DejaVuSans-52"/>
     </g>
    </g>
   </g>
   <g id="text_56">
    <g clip-path="url(#pd88156b938)">
     <!-- 1.5 -->
     <defs>
      <path d="M 10.796875 72.90625 
L 49.515625 72.90625 
L 49.515625 64.59375 
L 19.828125 64.59375 
L 19.828125 46.734375 
Q 21.96875 47.46875 24.109375 47.828125 
Q 26.265625 48.1875 28.421875 48.1875 
Q 40.625 48.1875 47.75 41.5 
Q 54.890625 34.8125 54.890625 23.390625 
Q 54.890625 11.625 47.5625 5.09375 
Q 40.234375 -1.421875 26.90625 -1.421875 
Q 22.3125 -1.421875 17.546875 -0.640625 
Q 12.796875 0.140625 7.71875 1.703125 
L 7.71875 11.625 
Q 12.109375 9.234375 16.796875 8.0625 
Q 21.484375 6.890625 26.703125 6.890625 
Q 35.15625 6.890625 40.078125 11.328125 
Q 45.015625 15.765625 45.015625 23.390625 
Q 45.015625 31 40.078125 35.4375 
Q 35.15625 39.890625 26.703125 39.890625 
Q 22.75 39.890625 18.8125 39.015625 
Q 14.890625 38.140625 10.796875 36.28125 
z
" id="DejaVuSans-53"/>
     </defs>
     <g transform="translate(125.584063 325.19797)scale(0.1 -0.1)">
      <use xlink:href="#DejaVuSans-49"/>
      <use x="63.623047" xlink:href="#DejaVuSans-46"/>
      <use x="95.410156" xlink:href="#DejaVuSans-53"/>
     </g>
    </g>
   </g>
   <g id="text_57">
    <g clip-path="url(#pd88156b938)">
     <!-- 1.6 -->
     <defs>
      <path d="M 33.015625 40.375 
Q 26.375 40.375 22.484375 35.828125 
Q 18.609375 31.296875 18.609375 23.390625 
Q 18.609375 15.53125 22.484375 10.953125 
Q 26.375 6.390625 33.015625 6.390625 
Q 39.65625 6.390625 43.53125 10.953125 
Q 47.40625 15.53125 47.40625 23.390625 
Q 47.40625 31.296875 43.53125 35.828125 
Q 39.65625 40.375 33.015625 40.375 
z
M 52.59375 71.296875 
L 52.59375 62.3125 
Q 48.875 64.0625 45.09375 64.984375 
Q 41.3125 65.921875 37.59375 65.921875 
Q 27.828125 65.921875 22.671875 59.328125 
Q 17.53125 52.734375 16.796875 39.40625 
Q 19.671875 43.65625 24.015625 45.921875 
Q 28.375 48.1875 33.59375 48.1875 
Q 44.578125 48.1875 50.953125 41.515625 
Q 57.328125 34.859375 57.328125 23.390625 
Q 57.328125 12.15625 50.6875 5.359375 
Q 44.046875 -1.421875 33.015625 -1.421875 
Q 20.359375 -1.421875 13.671875 8.265625 
Q 6.984375 17.96875 6.984375 36.375 
Q 6.984375 53.65625 15.1875 63.9375 
Q 23.390625 74.21875 37.203125 74.21875 
Q 40.921875 74.21875 44.703125 73.484375 
Q 48.484375 72.75 52.59375 71.296875 
z
" id="DejaVuSans-54"/>
     </defs>
     <g transform="translate(174.876938 325.19797)scale(0.1 -0.1)">
      <use xlink:href="#DejaVuSans-49"/>
      <use x="63.623047" xlink:href="#DejaVuSans-46"/>
      <use x="95.410156" xlink:href="#DejaVuSans-54"/>
     </g>
    </g>
   </g>
   <g id="text_58">
    <g clip-path="url(#pd88156b938)">
     <!-- 1.7 -->
     <defs>
      <path d="M 8.203125 72.90625 
L 55.078125 72.90625 
L 55.078125 68.703125 
L 28.609375 0 
L 18.3125 0 
L 43.21875 64.59375 
L 8.203125 64.59375 
z
" id="DejaVuSans-55"/>
     </defs>
     <g transform="translate(224.169813 325.19797)scale(0.1 -0.1)">
      <use xlink:href="#DejaVuSans-49"/>
      <use x="63.623047" xlink:href="#DejaVuSans-46"/>
      <use x="95.410156" xlink:href="#DejaVuSans-55"/>
     </g>
    </g>
   </g>
   <g id="text_59">
    <g clip-path="url(#pd88156b938)">
     <!-- 1.8 -->
     <defs>
      <path d="M 31.78125 34.625 
Q 24.75 34.625 20.71875 30.859375 
Q 16.703125 27.09375 16.703125 20.515625 
Q 16.703125 13.921875 20.71875 10.15625 
Q 24.75 6.390625 31.78125 6.390625 
Q 38.8125 6.390625 42.859375 10.171875 
Q 46.921875 13.96875 46.921875 20.515625 
Q 46.921875 27.09375 42.890625 30.859375 
Q 38.875 34.625 31.78125 34.625 
z
M 21.921875 38.8125 
Q 15.578125 40.375 12.03125 44.71875 
Q 8.5 49.078125 8.5 55.328125 
Q 8.5 64.0625 14.71875 69.140625 
Q 20.953125 74.21875 31.78125 74.21875 
Q 42.671875 74.21875 48.875 69.140625 
Q 55.078125 64.0625 55.078125 55.328125 
Q 55.078125 49.078125 51.53125 44.71875 
Q 48 40.375 41.703125 38.8125 
Q 48.828125 37.15625 52.796875 32.3125 
Q 56.78125 27.484375 56.78125 20.515625 
Q 56.78125 9.90625 50.3125 4.234375 
Q 43.84375 -1.421875 31.78125 -1.421875 
Q 19.734375 -1.421875 13.25 4.234375 
Q 6.78125 9.90625 6.78125 20.515625 
Q 6.78125 27.484375 10.78125 32.3125 
Q 14.796875 37.15625 21.921875 38.8125 
z
M 18.3125 54.390625 
Q 18.3125 48.734375 21.84375 45.5625 
Q 25.390625 42.390625 31.78125 42.390625 
Q 38.140625 42.390625 41.71875 45.5625 
Q 45.3125 48.734375 45.3125 54.390625 
Q 45.3125 60.0625 41.71875 63.234375 
Q 38.140625 66.40625 31.78125 66.40625 
Q 25.390625 66.40625 21.84375 63.234375 
Q 18.3125 60.0625 18.3125 54.390625 
z
" id="DejaVuSans-56"/>
     </defs>
     <g transform="translate(445.98775 147.025272)scale(0.1 -0.1)">
      <use xlink:href="#DejaVuSans-49"/>
      <use x="63.623047" xlink:href="#DejaVuSans-46"/>
      <use x="95.410156" xlink:href="#DejaVuSans-56"/>
     </g>
    </g>
   </g>
   <g id="text_60">
    <g clip-path="url(#pd88156b938)">
     <!-- 1.9 -->
     <defs>
      <path d="M 10.984375 1.515625 
L 10.984375 10.5 
Q 14.703125 8.734375 18.5 7.8125 
Q 22.3125 6.890625 25.984375 6.890625 
Q 35.75 6.890625 40.890625 13.453125 
Q 46.046875 20.015625 46.78125 33.40625 
Q 43.953125 29.203125 39.59375 26.953125 
Q 35.25 24.703125 29.984375 24.703125 
Q 19.046875 24.703125 12.671875 31.3125 
Q 6.296875 37.9375 6.296875 49.421875 
Q 6.296875 60.640625 12.9375 67.421875 
Q 19.578125 74.21875 30.609375 74.21875 
Q 43.265625 74.21875 49.921875 64.515625 
Q 56.59375 54.828125 56.59375 36.375 
Q 56.59375 19.140625 48.40625 8.859375 
Q 40.234375 -1.421875 26.421875 -1.421875 
Q 22.703125 -1.421875 18.890625 -0.6875 
Q 15.09375 0.046875 10.984375 1.515625 
z
M 30.609375 32.421875 
Q 37.25 32.421875 41.125 36.953125 
Q 45.015625 41.5 45.015625 49.421875 
Q 45.015625 57.28125 41.125 61.84375 
Q 37.25 66.40625 30.609375 66.40625 
Q 23.96875 66.40625 20.09375 61.84375 
Q 16.21875 57.28125 16.21875 49.421875 
Q 16.21875 41.5 20.09375 36.953125 
Q 23.96875 32.421875 30.609375 32.421875 
z
" id="DejaVuSans-57"/>
     </defs>
     <g transform="translate(273.462688 325.19797)scale(0.1 -0.1)">
      <use xlink:href="#DejaVuSans-49"/>
      <use x="63.623047" xlink:href="#DejaVuSans-46"/>
      <use x="95.410156" xlink:href="#DejaVuSans-57"/>
     </g>
    </g>
   </g>
   <g id="text_61">
    <g clip-path="url(#pd88156b938)">
     <!-- 1.10 -->
     <defs>
      <path d="M 31.78125 66.40625 
Q 24.171875 66.40625 20.328125 58.90625 
Q 16.5 51.421875 16.5 36.375 
Q 16.5 21.390625 20.328125 13.890625 
Q 24.171875 6.390625 31.78125 6.390625 
Q 39.453125 6.390625 43.28125 13.890625 
Q 47.125 21.390625 47.125 36.375 
Q 47.125 51.421875 43.28125 58.90625 
Q 39.453125 66.40625 31.78125 66.40625 
z
M 31.78125 74.21875 
Q 44.046875 74.21875 50.515625 64.515625 
Q 56.984375 54.828125 56.984375 36.375 
Q 56.984375 17.96875 50.515625 8.265625 
Q 44.046875 -1.421875 31.78125 -1.421875 
Q 19.53125 -1.421875 13.0625 8.265625 
Q 6.59375 17.96875 6.59375 36.375 
Q 6.59375 54.828125 13.0625 64.515625 
Q 19.53125 74.21875 31.78125 74.21875 
z
" id="DejaVuSans-48"/>
     </defs>
     <g transform="translate(418.160062 207.448297)scale(0.1 -0.1)">
      <use xlink:href="#DejaVuSans-49"/>
      <use x="63.623047" xlink:href="#DejaVuSans-46"/>
      <use x="95.410156" xlink:href="#DejaVuSans-49"/>
      <use x="159.033203" xlink:href="#DejaVuSans-48"/>
     </g>
    </g>
   </g>
   <g id="text_62">
    <g clip-path="url(#pd88156b938)">
     <!-- 1.11 -->
     <g transform="translate(639.978 266.729812)scale(0.1 -0.1)">
      <use xlink:href="#DejaVuSans-49"/>
      <use x="63.623047" xlink:href="#DejaVuSans-46"/>
      <use x="95.410156" xlink:href="#DejaVuSans-49"/>
      <use x="159.033203" xlink:href="#DejaVuSans-49"/>
     </g>
    </g>
   </g>
   <g id="text_63">
    <g clip-path="url(#pd88156b938)">
     <!-- 1.12 -->
     <g transform="translate(566.038687 325.19797)scale(0.1 -0.1)">
      <use xlink:href="#DejaVuSans-49"/>
      <use x="63.623047" xlink:href="#DejaVuSans-46"/>
      <use x="95.410156" xlink:href="#DejaVuSans-49"/>
      <use x="159.033203" xlink:href="#DejaVuSans-50"/>
     </g>
    </g>
   </g>
   <g id="text_64">
    <g clip-path="url(#pd88156b938)">
     <!-- 1.13 -->
     <defs>
      <path d="M 40.578125 39.3125 
Q 47.65625 37.796875 51.625 33 
Q 55.609375 28.21875 55.609375 21.1875 
Q 55.609375 10.40625 48.1875 4.484375 
Q 40.765625 -1.421875 27.09375 -1.421875 
Q 22.515625 -1.421875 17.65625 -0.515625 
Q 12.796875 0.390625 7.625 2.203125 
L 7.625 11.71875 
Q 11.71875 9.328125 16.59375 8.109375 
Q 21.484375 6.890625 26.8125 6.890625 
Q 36.078125 6.890625 40.9375 10.546875 
Q 45.796875 14.203125 45.796875 21.1875 
Q 45.796875 27.640625 41.28125 31.265625 
Q 36.765625 34.90625 28.71875 34.90625 
L 20.21875 34.90625 
L 20.21875 43.015625 
L 29.109375 43.015625 
Q 36.375 43.015625 40.234375 45.921875 
Q 44.09375 48.828125 44.09375 54.296875 
Q 44.09375 59.90625 40.109375 62.90625 
Q 36.140625 65.921875 28.71875 65.921875 
Q 24.65625 65.921875 20.015625 65.03125 
Q 15.375 64.15625 9.8125 62.3125 
L 9.8125 71.09375 
Q 15.4375 72.65625 20.34375 73.4375 
Q 25.25 74.21875 29.59375 74.21875 
Q 40.828125 74.21875 47.359375 69.109375 
Q 53.90625 64.015625 53.90625 55.328125 
Q 53.90625 49.265625 50.4375 45.09375 
Q 46.96875 40.921875 40.578125 39.3125 
z
" id="DejaVuSans-51"/>
     </defs>
     <g transform="translate(615.331562 325.19797)scale(0.1 -0.1)">
      <use xlink:href="#DejaVuSans-49"/>
      <use x="63.623047" xlink:href="#DejaVuSans-46"/>
      <use x="95.410156" xlink:href="#DejaVuSans-49"/>
      <use x="159.033203" xlink:href="#DejaVuSans-51"/>
     </g>
    </g>
   </g>
   <g id="text_65">
    <g clip-path="url(#pd88156b938)">
     <!-- 1.14 -->
     <g transform="translate(664.624437 325.19797)scale(0.1 -0.1)">
      <use xlink:href="#DejaVuSans-49"/>
      <use x="63.623047" xlink:href="#DejaVuSans-46"/>
      <use x="95.410156" xlink:href="#DejaVuSans-49"/>
      <use x="159.033203" xlink:href="#DejaVuSans-52"/>
     </g>
    </g>
   </g>
   <g id="text_66">
    <g clip-path="url(#pd88156b938)">
     <!-- 1.15 -->
     <g transform="translate(344.22075 266.729812)scale(0.1 -0.1)">
      <use xlink:href="#DejaVuSans-49"/>
      <use x="63.623047" xlink:href="#DejaVuSans-46"/>
      <use x="95.410156" xlink:href="#DejaVuSans-49"/>
      <use x="159.033203" xlink:href="#DejaVuSans-53"/>
     </g>
    </g>
   </g>
   <g id="text_67">
    <g clip-path="url(#pd88156b938)">
     <!-- 1.16 -->
     <g transform="translate(418.160062 325.19797)scale(0.1 -0.1)">
      <use xlink:href="#DejaVuSans-49"/>
      <use x="63.623047" xlink:href="#DejaVuSans-46"/>
      <use x="95.410156" xlink:href="#DejaVuSans-49"/>
      <use x="159.033203" xlink:href="#DejaVuSans-54"/>
     </g>
    </g>
   </g>
   <g id="text_68">
    <g clip-path="url(#pd88156b938)">
     <!-- 1.17 -->
     <g transform="translate(492.099375 266.729812)scale(0.1 -0.1)">
      <use xlink:href="#DejaVuSans-49"/>
      <use x="63.623047" xlink:href="#DejaVuSans-46"/>
      <use x="95.410156" xlink:href="#DejaVuSans-49"/>
      <use x="159.033203" xlink:href="#DejaVuSans-55"/>
     </g>
    </g>
   </g>
   <g id="text_69">
    <g clip-path="url(#pd88156b938)">
     <!-- 1.18 -->
     <g transform="translate(467.452937 325.19797)scale(0.1 -0.1)">
      <use xlink:href="#DejaVuSans-49"/>
      <use x="63.623047" xlink:href="#DejaVuSans-46"/>
      <use x="95.410156" xlink:href="#DejaVuSans-49"/>
      <use x="159.033203" xlink:href="#DejaVuSans-56"/>
     </g>
    </g>
   </g>
   <g id="text_70">
    <g clip-path="url(#pd88156b938)">
     <!-- 1.19 -->
     <g transform="translate(516.745812 325.19797)scale(0.1 -0.1)">
      <use xlink:href="#DejaVuSans-49"/>
      <use x="63.623047" xlink:href="#DejaVuSans-46"/>
      <use x="95.410156" xlink:href="#DejaVuSans-49"/>
      <use x="159.033203" xlink:href="#DejaVuSans-57"/>
     </g>
    </g>
   </g>
   <g id="text_71">
    <g clip-path="url(#pd88156b938)">
     <!-- 1.20 -->
     <g transform="translate(319.574313 325.19797)scale(0.1 -0.1)">
      <use xlink:href="#DejaVuSans-49"/>
      <use x="63.623047" xlink:href="#DejaVuSans-46"/>
      <use x="95.410156" xlink:href="#DejaVuSans-50"/>
      <use x="159.033203" xlink:href="#DejaVuSans-48"/>
     </g>
    </g>
   </g>
   <g id="text_72">
    <g clip-path="url(#pd88156b938)">
     <!-- 1.21 -->
     <g transform="translate(368.867188 325.19797)scale(0.1 -0.1)">
      <use xlink:href="#DejaVuSans-49"/>
      <use x="63.623047" xlink:href="#DejaVuSans-46"/>
      <use x="95.410156" xlink:href="#DejaVuSans-50"/>
      <use x="159.033203" xlink:href="#DejaVuSans-49"/>
     </g>
    </g>
   </g>
   <g id="text_73">
    <g clip-path="url(#pd88156b938)">
     <!-- 1.22 -->
     <g transform="translate(23.817063 325.19797)scale(0.1 -0.1)">
      <use xlink:href="#DejaVuSans-49"/>
      <use x="63.623047" xlink:href="#DejaVuSans-46"/>
      <use x="95.410156" xlink:href="#DejaVuSans-50"/>
      <use x="159.033203" xlink:href="#DejaVuSans-50"/>
     </g>
    </g>
   </g>
   <g id="text_74">
    <g clip-path="url(#pd88156b938)">
     <!-- 1.23 -->
     <g transform="translate(73.109938 325.19797)scale(0.1 -0.1)">
      <use xlink:href="#DejaVuSans-49"/>
      <use x="63.623047" xlink:href="#DejaVuSans-46"/>
      <use x="95.410156" xlink:href="#DejaVuSans-50"/>
      <use x="159.033203" xlink:href="#DejaVuSans-51"/>
     </g>
    </g>
   </g>
   <g id="text_75">
    <g clip-path="url(#pd88156b938)">
     <!-- 1.24 -->
     <g transform="translate(713.917312 325.19797)scale(0.1 -0.1)">
      <use xlink:href="#DejaVuSans-49"/>
      <use x="63.623047" xlink:href="#DejaVuSans-46"/>
      <use x="95.410156" xlink:href="#DejaVuSans-50"/>
      <use x="159.033203" xlink:href="#DejaVuSans-52"/>
     </g>
    </g>
   </g>
  </g>
 </g>
 <defs>
  <clipPath id="pd88156b938">
   <rect height="400" width="760" x="0" y="0"/>
  </clipPath>
 </defs>
</svg>
