<?xml version="1.0" encoding="UTF-8"?>
<!DOCTYPE svg  PUBLIC '-//W3C//DTD SVG 1.1//EN'  'http://www.w3.org/Graphics/SVG/1.1/DTD/svg11.dtd'>
<svg width="1216pt" height="640pt" version="1.1" viewBox="0 0 1216 640" xmlns="http://www.w3.org/2000/svg" xmlns:xlink="http://www.w3.org/1999/xlink">
<defs>
<style type="text/css">*{stroke-linecap:butt;stroke-linejoin:round;}</style>
</defs>
<path d="m0 640h1216v-640h-1216z" fill="#fff"/>
<g fill="none" stroke="#000">
<path d="m215.24 29.091v73.407" clip-path="url(#a)"/>
<path d="m215.24 102.5 945.49 73.301" clip-path="url(#a)"/>
<path d="m215.24 102.5 945.49 73.301" clip-path="url(#a)"/>
<path d="m215.24 102.5v73.301" clip-path="url(#a)"/>
<path d="m215.24 175.8-126.16 291.66" clip-path="url(#a)"/>
<path d="m215.24 175.8-75.454 363.88" clip-path="url(#a)"/>
<path d="m215.24 175.8-33.197 219.06" clip-path="url(#a)"/>
<path d="m215.24 175.8 56.389 363.88" clip-path="url(#a)"/>
<path d="m215.24 175.8 222.24 73.179" clip-path="url(#a)"/>
<path d="m215.24 175.8-159.97 363.88" clip-path="url(#a)"/>
<path d="m215.24 175.8 19.202 363.88" clip-path="url(#a)"/>
<path d="m215.24 175.8 96.956 363.88" clip-path="url(#a)"/>
<path d="m89.079 467.46-23.664 72.221" clip-path="url(#a)"/>
<path d="m89.079 467.46-10.142 72.221" clip-path="url(#a)"/>
<path d="m89.079 467.46 6.7612 72.221" clip-path="url(#a)"/>
<path d="m89.079 467.46 27.045 72.221" clip-path="url(#a)"/>
<path d="m139.79 539.68v71.231" clip-path="url(#a)"/>
<path d="m182.05 394.86 18.593 72.6" clip-path="url(#a)"/>
<path d="m182.05 394.86v72.6" clip-path="url(#a)"/>
<path d="m271.63 539.68v71.231" clip-path="url(#a)"/>
<path d="m437.48 248.98-81.334 290.7" clip-path="url(#a)"/>
<path d="m437.48 248.98-34.005 290.7" clip-path="url(#a)"/>
<path d="m437.48 248.98 16.703 290.7" clip-path="url(#a)"/>
<path d="m437.48 248.98 98.636 73.032" clip-path="url(#a)"/>
<path d="m356.15 539.68v71.231" clip-path="url(#a)"/>
<path d="m403.47 539.68v71.231" clip-path="url(#a)"/>
<path d="m454.18 539.68v71.231" clip-path="url(#a)"/>
<path d="m536.12 322.01-179.97 217.67" clip-path="url(#a)" stroke-dasharray="3.7,1.6"/>
<path d="m536.12 322.01 624.61 72.847" clip-path="url(#a)"/>
<path d="m536.12 322.01-27.843 217.67" clip-path="url(#a)"/>
<path d="m536.12 322.01 207.81 72.847" clip-path="url(#a)"/>
<path d="m508.27 539.68v71.231" clip-path="url(#a)"/>
<path d="m743.93 394.86 416.8 72.6" clip-path="url(#a)"/>
<path d="m743.93 394.86-178.19 144.82" clip-path="url(#a)"/>
<path d="m743.93 394.86-117.33 144.82" clip-path="url(#a)"/>
<path d="m743.93 394.86 15.635 72.6" clip-path="url(#a)"/>
<path d="m743.93 394.86 279.89 72.6" clip-path="url(#a)"/>
<path d="m565.74 539.68v71.231" clip-path="url(#a)"/>
<path d="m626.59 539.68v71.231" clip-path="url(#a)"/>
<path d="m759.56 467.46-68.739 72.221" clip-path="url(#a)"/>
<path d="m759.56 467.46-1.1269 72.221" clip-path="url(#a)"/>
<path d="m759.56 467.46 69.866 72.221" clip-path="url(#a)"/>
<path d="m1023.8 467.46-120.01 72.221" clip-path="url(#a)"/>
<path d="m1023.8 467.46-42.257 72.221" clip-path="url(#a)"/>
<path d="m1023.8 467.46 38.877 72.221" clip-path="url(#a)"/>
<path d="m1023.8 467.46 123.39 72.221" clip-path="url(#a)"/>
<path d="m903.8 539.68v71.231" clip-path="url(#a)"/>
<path d="m981.56 539.68v71.231" clip-path="url(#a)"/>
<path d="m690.82 539.68v71.231" clip-path="url(#a)"/>
<path d="m758.44 539.68v71.231" clip-path="url(#a)"/>
<path d="m829.43 539.68v71.231" clip-path="url(#a)"/>
<path d="m182.05 467.46-15.213 72.221" clip-path="url(#a)"/>
<path d="m182.05 467.46 15.213 72.221" clip-path="url(#a)"/>
<path d="m166.83 539.68v71.231" clip-path="url(#a)"/>
<path d="m197.26 539.68v71.231" clip-path="url(#a)"/>
<path d="m65.415 539.68v71.231" clip-path="url(#a)"/>
<path d="m78.937 539.68v71.231" clip-path="url(#a)"/>
<path d="m95.84 539.68v71.231" clip-path="url(#a)"/>
<path d="m116.12 539.68v71.231" clip-path="url(#a)"/>
<path d="m354.56 175.8-82.924 363.88" clip-path="url(#a)"/>
<path d="m354.56 175.8 82.924 73.179" clip-path="url(#a)"/>
<path d="m55.273 539.68v71.231" clip-path="url(#a)"/>
<path d="m234.44 539.68v71.231" clip-path="url(#a)"/>
<path d="m312.2 539.68v71.231" clip-path="url(#a)"/>
<path d="m1062.7 539.68v71.231" clip-path="url(#a)"/>
<path d="m1147.2 539.68v71.231" clip-path="url(#a)"/>
</g>
<path d="m208.97 62.786v6.0162q0 2.4 2.4 2.4h7.7425q2.4 0 2.4-2.4v-6.0162q0-2.4-2.4-2.4h-7.7425q-2.4 0-2.4 2.4z" clip-path="url(#a)" fill="#fff" stroke="#fff"/>
<g clip-path="url(#a)">
<defs>
<path id="z" d="m9.8125 72.906h9.8594v-29.891h35.844v29.891h9.8594v-72.906h-9.8594v34.719h-35.844v-34.719h-9.8594z"/>
</defs>
<g transform="translate(213.03 62.786) rotate(90) scale(.08 -.08)">
<use xlink:href="#z"/>
</g>
</g>
<path d="m684.77 145.19 5.4561 0.423q2.3928 0.18551 2.5783-2.2073l0.59846-7.7193q0.18551-2.3928-2.2073-2.5783l-5.4561-0.423q-2.3928-0.18551-2.5783 2.2073l-0.59846 7.7193q-0.18551 2.3928 2.2073 2.5783z" clip-path="url(#a)" fill="#fff" stroke="#fff"/>
<g clip-path="url(#a)">
<defs>
<path id="n" d="m34.188 63.188-13.391-36.281h26.812zm-5.5781 9.7188h11.188l27.781-72.906h-10.25l-6.6406 18.703h-32.859l-6.6406-18.703h-10.406z"/>
</defs>
<g transform="translate(685.09 141.14) rotate(4.4332) scale(.08 -.08)">
<use xlink:href="#n"/>
</g>
</g>
<path d="m685.1 145.21 4.8093 0.37286q2.3928 0.18551 2.5783-2.2073l0.59846-7.7193q0.18551-2.3928-2.2073-2.5783l-4.8093-0.37286q-2.3928-0.18551-2.5783 2.2073l-0.59846 7.7193q-0.18551 2.3928 2.2073 2.5783z" clip-path="url(#a)" fill="#fff" stroke="#fff"/>
<g clip-path="url(#a)">
<defs>
<path id="p" d="m19.672 64.797v-27.391h12.406q6.8906 0 10.641 3.5625 3.7656 3.5625 3.7656 10.156 0 6.5469-3.7656 10.109-3.75 3.5625-10.641 3.5625zm-9.8594 8.1094h22.266q12.266 0 18.531-5.5469 6.2812-5.5469 6.2812-16.234 0-10.797-6.2812-16.312-6.2656-5.5156-18.531-5.5156h-12.406v-29.297h-9.8594z"/>
</defs>
<g transform="translate(685.41 141.16) rotate(4.4332) scale(.08 -.08)">
<use xlink:href="#p"/>
</g>
</g>
<path d="m208.97 136.41v5.4725q0 2.4 2.4 2.4h7.7425q2.4 0 2.4-2.4v-5.4725q0-2.4-2.4-2.4h-7.7425q-2.4 0-2.4 2.4z" clip-path="url(#a)" fill="#fff" stroke="#fff"/>
<g clip-path="url(#a)">
<g transform="translate(213.03 136.41) rotate(90) scale(.08 -.08)">
<use xlink:href="#n"/>
</g>
</g>
<path d="m156.72 326.88 2.3886-5.5218q0.95285-2.2027-1.2499-3.1556l-7.1061-3.0739q-2.2027-0.95285-3.1556 1.2499l-2.3886 5.5218q-0.95285 2.2027 1.2499 3.1556l7.1061 3.0739q2.2027 0.95285 3.1556-1.2499z" clip-path="url(#a)" fill="#fff" stroke="#fff"/>
<g clip-path="url(#a)">
<g transform="translate(152.99 325.27) rotate(-66.608) scale(.08 -.08)">
<use xlink:href="#z"/>
</g>
</g>
<path d="m183.2 361.19 0.90506-4.3646q0.4873-2.35-1.8627-2.8373l-7.5812-1.5721q-2.35-0.4873-2.8373 1.8627l-0.90506 4.3647q-0.4873 2.35 1.8627 2.8373l7.5812 1.5721q2.35 0.4873 2.8373-1.8627z" clip-path="url(#a)" fill="#fff" stroke="#fff"/>
<g clip-path="url(#a)">
<defs>
<path id="s" d="m9.8125 72.906h9.8594v-64.609h35.5v-8.2969h-45.359z"/>
</defs>
<g transform="translate(179.22 360.37) rotate(-78.285) scale(.08 -.08)">
<use xlink:href="#s"/>
</g>
</g>
<path d="m204.39 289.24 0.90144-5.9483q0.3596-2.3729-2.0133-2.7325l-7.6551-1.1601q-2.3729-0.3596-2.7325 2.0133l-0.90144 5.9483q-0.3596 2.3729 2.0133 2.7325l7.6551 1.1601q2.3729 0.3596 2.7325-2.0133z" clip-path="url(#a)" fill="#fff" stroke="#fff"/>
<g clip-path="url(#a)">
<g transform="translate(200.38 288.63) rotate(-81.383) scale(.08 -.08)">
<use xlink:href="#z"/>
</g>
</g>
<path d="m236.9 356.5 0.68261 4.4049q0.36753 2.3717 2.7392 2.0042l7.6512-1.1857q2.3717-0.36753 2.0042-2.7392l-0.68261-4.4049q-0.36753-2.3717-2.7392-2.0042l-7.6512 1.1857q-2.3717 0.36753-2.0042 2.7392z" clip-path="url(#a)" fill="#fff" stroke="#fff"/>
<g clip-path="url(#a)">
<g transform="translate(240.91 355.87) rotate(81.191) scale(.08 -.08)">
<use xlink:href="#s"/>
</g>
</g>
<path d="m321.54 217.4 5.7144 1.8817q2.2796 0.75063 3.0302-1.529l2.4216-7.3541q0.75063-2.2796-1.529-3.0302l-5.7144-1.8817q-2.2796-0.75063-3.0302 1.529l-2.4216 7.3541q-0.75063 2.2796 1.529 3.0302z" clip-path="url(#a)" fill="#fff" stroke="#fff"/>
<g clip-path="url(#a)">
<g transform="translate(322.81 213.54) rotate(18.226) scale(.08 -.08)">
<use xlink:href="#z"/>
</g>
</g>
<path d="m139.82 362.94 2.3563-5.3599q0.96588-2.1971-1.2312-3.1629l-7.0878-3.116q-2.1971-0.96588-3.1629 1.2312l-2.3563 5.3599q-0.96588 2.1971 1.2312 3.1629l7.0878 3.116q2.1971 0.96588 3.1629-1.2312z" clip-path="url(#a)" fill="#fff" stroke="#fff"/>
<g clip-path="url(#a)">
<defs>
<path id="w" d="m8.6875 72.906h9.9219v-44.297q0-11.719 4.2344-16.875 4.25-5.1406 13.781-5.1406 9.4688 0 13.719 5.1406 4.25 5.1562 4.25 16.875v44.297h9.9062v-45.516q0-14.25-7.0625-21.531-7.0469-7.2812-20.812-7.2812-13.828 0-20.891 7.2812-7.0469 7.2812-7.0469 21.531z"/>
</defs>
<g transform="translate(136.1 361.31) rotate(-66.269) scale(.08 -.08)">
<use xlink:href="#w"/>
</g>
</g>
<path d="m218.43 355.15 0.30854 5.8469q0.12647 2.3967 2.5231 2.2702l7.7317-0.40801q2.3967-0.12647 2.2702-2.5231l-0.30854-5.8469q-0.12647-2.3967-2.5231-2.2702l-7.7317 0.40801q-2.3967 0.12647-2.2702 2.5231z" clip-path="url(#a)" fill="#fff" stroke="#fff"/>
<g clip-path="url(#a)">
<g transform="translate(222.48 354.93) rotate(86.979) scale(.08 -.08)">
<use xlink:href="#w"/>
</g>
</g>
<path d="m256.91 356.52 1.5075 5.6576q0.61792 2.3191 2.937 1.7012l7.4815-1.9934q2.3191-0.61792 1.7012-2.937l-1.5075-5.6576q-0.61792-2.3191-2.937-1.7012l-7.4815 1.9934q-2.3191 0.61792-1.7012 2.937z" clip-path="url(#a)" fill="#fff" stroke="#fff"/>
<g clip-path="url(#a)">
<g transform="translate(260.83 355.48) rotate(75.08) scale(.08 -.08)">
<use xlink:href="#w"/>
</g>
</g>
<path d="m82.354 508.12 1.704-5.2005q0.74729-2.2807-1.5334-3.028l-7.3576-2.4108q-2.2807-0.74729-3.028 1.5334l-1.704 5.2005q-0.74729 2.2807 1.5334 3.028l7.3576 2.4108q2.2807 0.74729 3.028-1.5334z" clip-path="url(#a)" fill="#fff" stroke="#fff"/>
<g clip-path="url(#a)">
<g transform="translate(78.492 506.86) rotate(-71.858) scale(.08 -.08)">
<use xlink:href="#n"/>
</g>
</g>
<path d="m89.79 507.49 0.85662-6.1001q0.33375-2.3767-2.0429-2.7104l-7.6673-1.0767q-2.3767-0.33375-2.7104 2.0429l-0.85662 6.1001q-0.33375 2.3767 2.0429 2.7104l7.6673 1.0767q2.3767 0.33375 2.7104-2.0429z" clip-path="url(#a)" fill="#fff" stroke="#fff"/>
<g clip-path="url(#a)">
<defs>
<path id="an" d="m19.672 64.797v-56.688h11.922q15.094 0 22.094 6.8281 7 6.8438 7 21.594 0 14.641-7 21.453t-22.094 6.8125zm-9.8594 8.1094h20.266q21.188 0 31.094-8.8125 9.9219-8.8125 9.9219-27.562 0-18.859-9.9688-27.703-9.9531-8.8281-31.047-8.8281h-20.266z"/>
</defs>
<g transform="translate(85.766 506.92) rotate(-82.006) scale(.08 -.08)">
<use xlink:href="#an"/>
</g>
</g>
<path d="m85.991 501.75 0.44962 4.8028q0.2237 2.3896 2.6133 2.1658l7.7088-0.72168q2.3896-0.2237 2.1658-2.6133l-0.44962-4.8028q-0.2237-2.3896-2.6133-2.1658l-7.7088 0.72168q-2.3896 0.2237-2.1658 2.6133z" clip-path="url(#a)" fill="#fff" stroke="#fff"/>
<g clip-path="url(#a)">
<g transform="translate(90.037 501.37) rotate(84.652) scale(.08 -.08)">
<use xlink:href="#p"/>
</g>
</g>
<path d="m95.769 503.2 1.9191 5.125q0.84165 2.2476 3.0892 1.4059l7.2508-2.7152q2.2476-0.84165 1.4059-3.0892l-1.9191-5.125q-0.84165-2.2476-3.0892-1.4059l-7.2508 2.7152q-2.2476 0.84165-1.4059 3.0892z" clip-path="url(#a)" fill="#fff" stroke="#fff"/>
<g clip-path="url(#a)">
<g transform="translate(99.574 501.78) rotate(69.471) scale(.08 -.08)">
<use xlink:href="#n"/>
</g>
</g>
<path d="m133.52 558.39v33.808q0 2.4 2.4 2.4h7.7425q2.4 0 2.4-2.4v-33.808q0-2.4-2.4-2.4h-7.7425q-2.4 0-2.4 2.4z" clip-path="url(#a)" fill="#fff" stroke="#fff"/>
<g clip-path="url(#a)">
<defs>
<path id="g" d="m-0.29688 72.906h61.672v-8.3125h-25.875v-64.594h-9.9062v64.594h-25.891z"/>
<path id="e" d="m56.203 29.594v-4.3906h-41.312q0.59375-9.2812 5.5938-14.141t13.938-4.8594q5.1719 0 10.031 1.2656t9.6562 3.8125v-8.5q-4.8438-2.0469-9.9219-3.125t-10.297-1.0781q-13.094 0-20.734 7.6094-7.6406 7.625-7.6406 20.625 0 13.422 7.25 21.297 7.25 7.8906 19.562 7.8906 11.031 0 17.453-7.1094 6.4219-7.0938 6.4219-19.297zm-8.9844 2.6406q-0.09375 7.3594-4.125 11.75-4.0312 4.4062-10.672 4.4062-7.5156 0-12.031-4.25t-5.2031-11.969z"/>
<path id="j" d="m41.109 46.297q-1.5156 0.875-3.2969 1.2812-1.7812 0.42188-3.9219 0.42188-7.625 0-11.703-4.9531t-4.0781-14.234v-28.812h-9.0312v54.688h9.0312v-8.5q2.8438 4.9844 7.375 7.3906 4.5469 2.4219 11.047 2.4219 0.92188 0 2.0469-0.125 1.125-0.10938 2.4844-0.35938z"/>
<path id="l" d="m52 44.188q3.375 6.0625 8.0625 8.9375t11.031 2.875q8.5469 0 13.188-5.9844 4.6406-5.9688 4.6406-17v-33.016h-9.0312v32.719q0 7.8594-2.7969 11.656-2.7812 3.8125-8.4844 3.8125-6.9844 0-11.047-4.6406-4.0469-4.625-4.0469-12.641v-30.906h-9.0312v32.719q0 7.9062-2.7812 11.688t-8.5938 3.7812q-6.8906 0-10.953-4.6562-4.0469-4.6562-4.0469-12.625v-30.906h-9.0312v54.688h9.0312v-8.5q3.0781 5.0312 7.375 7.4219t10.203 2.3906q5.9688 0 10.141-3.0312 4.1719-3.0156 6.1719-8.7812z"/>
<path id="i" d="m9.4219 54.688h8.9844v-54.688h-8.9844zm0 21.297h8.9844v-11.391h-8.9844z"/>
<path id="f" d="m54.891 33.016v-33.016h-8.9844v32.719q0 7.7656-3.0312 11.609-3.0312 3.8594-9.0781 3.8594-7.2812 0-11.484-4.6406-4.2031-4.625-4.2031-12.641v-30.906h-9.0312v54.688h9.0312v-8.5q3.2344 4.9375 7.5938 7.375 4.375 2.4375 10.094 2.4375 9.4219 0 14.25-5.8281 4.8438-5.8281 4.8438-17.156z"/>
<path id="k" d="m34.281 27.484q-10.891 0-15.094-2.4844t-4.2031-8.5q0-4.7812 3.1562-7.5938 3.1562-2.7969 8.5625-2.7969 7.4844 0 12 5.2969t4.5156 14.078v2zm17.922 3.7188v-31.203h-8.9844v8.2969q-3.0781-4.9688-7.6719-7.3438t-11.234-2.375q-8.3906 0-13.359 4.7188-4.9531 4.7188-4.9531 12.625 0 9.2188 6.1719 13.906 6.1875 4.6875 18.438 4.6875h12.609v0.89062q0 6.2031-4.0781 9.5938t-11.453 3.3906q-4.6875 0-9.1406-1.125-4.4375-1.125-8.5312-3.375v8.3125q4.9219 1.9062 9.5625 2.8438 4.6406 0.95312 9.0312 0.95312 11.875 0 17.734-6.1562 5.8594-6.1406 5.8594-18.641z"/>
<path id="h" d="m9.4219 75.984h8.9844v-75.984h-8.9844z"/>
</defs>
<g transform="translate(137.58 558.39) rotate(90) scale(.08 -.08)">
<use xlink:href="#g"/>
<use x="44.083984" xlink:href="#e"/>
<use x="105.607422" xlink:href="#j"/>
<use x="144.970703" xlink:href="#l"/>
<use x="242.382812" xlink:href="#i"/>
<use x="270.166016" xlink:href="#f"/>
<use x="333.544922" xlink:href="#k"/>
<use x="394.824219" xlink:href="#h"/>
</g>
</g>
<path d="m184.59 430.06 1.3577 5.3014q0.59544 2.325 2.9204 1.7295l7.5004-1.9209q2.325-0.59543 1.7295-2.9204l-1.3577-5.3014q-0.59543-2.325-2.9204-1.7295l-7.5004 1.9209q-2.325 0.59543-1.7295 2.9204z" clip-path="url(#a)" fill="#fff" stroke="#fff"/>
<g clip-path="url(#a)">
<g transform="translate(188.52 429.05) rotate(75.635) scale(.08 -.08)">
<use xlink:href="#n"/>
</g>
</g>
<path d="m175.77 428.75v4.8238q0 2.4 2.4 2.4h7.7425q2.4 0 2.4-2.4v-4.8238q0-2.4-2.4-2.4h-7.7425q-2.4 0-2.4 2.4z" clip-path="url(#a)" fill="#fff" stroke="#fff"/>
<g clip-path="url(#a)">
<g transform="translate(179.84 428.75) rotate(90) scale(.08 -.08)">
<use xlink:href="#p"/>
</g>
</g>
<path d="m265.36 558.39v33.808q0 2.4 2.4 2.4h7.7425q2.4 0 2.4-2.4v-33.808q0-2.4-2.4-2.4h-7.7425q-2.4 0-2.4 2.4z" clip-path="url(#a)" fill="#fff" stroke="#fff"/>
<g clip-path="url(#a)">
<g transform="translate(269.42 558.39) rotate(90) scale(.08 -.08)">
<use xlink:href="#g"/>
<use x="44.083984" xlink:href="#e"/>
<use x="105.607422" xlink:href="#j"/>
<use x="144.970703" xlink:href="#l"/>
<use x="242.382812" xlink:href="#i"/>
<use x="270.166016" xlink:href="#f"/>
<use x="333.544922" xlink:href="#k"/>
<use x="394.824219" xlink:href="#h"/>
</g>
</g>
<path d="m402.11 398.65 1.4745-5.2701q0.64665-2.3112-1.6646-2.9579l-7.4562-2.0861q-2.3112-0.64665-2.9579 1.6646l-1.4745 5.2701q-0.64665 2.3112 1.6646 2.9579l7.4562 2.0861q2.3112 0.64665 2.9579-1.6646z" clip-path="url(#a)" fill="#fff" stroke="#fff"/>
<g clip-path="url(#a)">
<g transform="translate(398.2 397.56) rotate(-74.369) scale(.08 -.08)">
<use xlink:href="#n"/>
</g>
</g>
<path d="m426.35 398.12 0.7157-6.1183q0.27884-2.3837-2.1049-2.6626l-7.6901-0.89957q-2.3837-0.27884-2.6626 2.1049l-0.7157 6.1183q-0.27884 2.3837 2.1049 2.6626l7.6901 0.89957q2.3837 0.27885 2.6626-2.1049z" clip-path="url(#a)" fill="#fff" stroke="#fff"/>
<g clip-path="url(#a)">
<g transform="translate(422.31 397.64) rotate(-83.328) scale(.08 -.08)">
<use xlink:href="#an"/>
</g>
</g>
<path d="m439.43 392.28 0.27671 4.8158q0.13768 2.396 2.5337 2.2584l7.7298-0.44414q2.396-0.13768 2.2584-2.5337l-0.27671-4.8158q-0.13768-2.396-2.5337-2.2584l-7.7298 0.44414q-2.396 0.13768-2.2584 2.5337z" clip-path="url(#a)" fill="#fff" stroke="#fff"/>
<g clip-path="url(#a)">
<g transform="translate(443.49 392.05) rotate(86.711) scale(.08 -.08)">
<use xlink:href="#p"/>
</g>
</g>
<path d="m480.87 288.91 4.3981 3.2565q1.9288 1.4281 3.357-0.50069l4.6072-6.2225q1.4281-1.9288-0.5007-3.357l-4.3981-3.2565q-1.9288-1.4281-3.357 0.50069l-4.6072 6.2225q-1.4281 1.9288 0.50069 3.357z" clip-path="url(#a)" fill="#fff" stroke="#fff"/>
<g clip-path="url(#a)">
<g transform="translate(483.28 285.64) rotate(36.517) scale(.08 -.08)">
<use xlink:href="#n"/>
</g>
</g>
<path d="m349.87 558.39v33.808q0 2.4 2.4 2.4h7.7425q2.4 0 2.4-2.4v-33.808q0-2.4-2.4-2.4h-7.7425q-2.4 0-2.4 2.4z" clip-path="url(#a)" fill="#fff" stroke="#fff"/>
<g clip-path="url(#a)">
<g transform="translate(353.94 558.39) rotate(90) scale(.08 -.08)">
<use xlink:href="#g"/>
<use x="44.083984" xlink:href="#e"/>
<use x="105.607422" xlink:href="#j"/>
<use x="144.970703" xlink:href="#l"/>
<use x="242.382812" xlink:href="#i"/>
<use x="270.166016" xlink:href="#f"/>
<use x="333.544922" xlink:href="#k"/>
<use x="394.824219" xlink:href="#h"/>
</g>
</g>
<path d="m397.2 558.39v33.808q0 2.4 2.4 2.4h7.7425q2.4 0 2.4-2.4v-33.808q0-2.4-2.4-2.4h-7.7425q-2.4 0-2.4 2.4z" clip-path="url(#a)" fill="#fff" stroke="#fff"/>
<g clip-path="url(#a)">
<g transform="translate(401.27 558.39) rotate(90) scale(.08 -.08)">
<use xlink:href="#g"/>
<use x="44.083984" xlink:href="#e"/>
<use x="105.607422" xlink:href="#j"/>
<use x="144.970703" xlink:href="#l"/>
<use x="242.382812" xlink:href="#i"/>
<use x="270.166016" xlink:href="#f"/>
<use x="333.544922" xlink:href="#k"/>
<use x="394.824219" xlink:href="#h"/>
</g>
</g>
<path d="m447.91 558.39v33.808q0 2.4 2.4 2.4h7.7425q2.4 0 2.4-2.4v-33.808q0-2.4-2.4-2.4h-7.7425q-2.4 0-2.4 2.4z" clip-path="url(#a)" fill="#fff" stroke="#fff"/>
<g clip-path="url(#a)">
<g transform="translate(451.98 558.39) rotate(90) scale(.08 -.08)">
<use xlink:href="#g"/>
<use x="44.083984" xlink:href="#e"/>
<use x="105.607422" xlink:href="#j"/>
<use x="144.970703" xlink:href="#l"/>
<use x="242.382812" xlink:href="#i"/>
<use x="270.166016" xlink:href="#f"/>
<use x="333.544922" xlink:href="#k"/>
<use x="394.824219" xlink:href="#h"/>
</g>
</g>
<path d="m449.22 436.95 3.4871-4.2176q1.5293-1.8497-0.32035-3.379l-5.9671-4.9336q-1.8497-1.5293-3.379 0.32035l-3.4871 4.2176q-1.5293 1.8497 0.32035 3.379l5.9671 4.9336q1.8497 1.5293 3.379-0.32035z" clip-path="url(#a)" fill="#fff" stroke="#fff"/>
<g clip-path="url(#a)">
<g transform="translate(446.09 434.36) rotate(-50.416) scale(.08 -.08)">
<use xlink:href="#n"/>
</g>
</g>
<path d="m844.98 364.35 5.4357 0.63395q2.3838 0.27802 2.6619-2.1058l0.89691-7.6904q0.27802-2.3838-2.1058-2.6619l-5.4357-0.63395q-2.3838-0.27802-2.6619 2.1058l-0.89692 7.6904q-0.27802 2.3838 2.1058 2.6619z" clip-path="url(#a)" fill="#fff" stroke="#fff"/>
<g clip-path="url(#a)">
<g transform="translate(845.45 360.31) rotate(6.6522) scale(.08 -.08)">
<use xlink:href="#n"/>
</g>
</g>
<path d="m528.11 434.03 0.61204-4.7848q0.30451-2.3806-2.0761-2.6851l-7.6799-0.98237q-2.3806-0.30451-2.6851 2.0761l-0.61204 4.7848q-0.30451 2.3806 2.0761 2.6851l7.6799 0.98237q2.3806 0.30451 2.6851-2.0761z" clip-path="url(#a)" fill="#fff" stroke="#fff"/>
<g clip-path="url(#a)">
<g transform="translate(524.08 433.52) rotate(-82.711) scale(.08 -.08)">
<use xlink:href="#p"/>
</g>
</g>
<path d="m635.36 363.45 5.1644 1.8103q2.2649 0.79394 3.0588-1.4709l2.5613-7.3066q0.79394-2.2649-1.4709-3.0588l-5.1644-1.8103q-2.2649-0.79394-3.0588 1.4709l-2.5613 7.3066q-0.79394 2.2649 1.4709 3.0588z" clip-path="url(#a)" fill="#fff" stroke="#fff"/>
<g clip-path="url(#a)">
<g transform="translate(636.71 359.61) rotate(19.318) scale(.08 -.08)">
<use xlink:href="#n"/>
</g>
</g>
<path d="m502 558.39v33.808q0 2.4 2.4 2.4h7.7425q2.4 0 2.4-2.4v-33.808q0-2.4-2.4-2.4h-7.7425q-2.4 0-2.4 2.4z" clip-path="url(#a)" fill="#fff" stroke="#fff"/>
<g clip-path="url(#a)">
<g transform="translate(506.06 558.39) rotate(90) scale(.08 -.08)">
<use xlink:href="#g"/>
<use x="44.083984" xlink:href="#e"/>
<use x="105.607422" xlink:href="#j"/>
<use x="144.970703" xlink:href="#l"/>
<use x="242.382812" xlink:href="#i"/>
<use x="270.166016" xlink:href="#f"/>
<use x="333.544922" xlink:href="#k"/>
<use x="394.824219" xlink:href="#h"/>
</g>
</g>
<path d="m948.56 436.87 5.3913 0.93909q2.3644 0.41184 2.7762-1.9526l1.3286-7.6277q0.41184-2.3644-1.9526-2.7762l-5.3913-0.93909q-2.3644-0.41184-2.7762 1.9526l-1.3286 7.6277q-0.41184 2.3644 1.9526 2.7762z" clip-path="url(#a)" fill="#fff" stroke="#fff"/>
<g clip-path="url(#a)">
<g transform="translate(949.25 432.86) rotate(9.8809) scale(.08 -.08)">
<use xlink:href="#n"/>
</g>
</g>
<path d="m657.01 473.59 3.5706-2.9021q1.8624-1.5137 0.34873-3.3762l-4.8833-6.0083q-1.5137-1.8624-3.3762-0.34873l-3.5706 2.9021q-1.8624 1.5137-0.34873 3.3762l4.8833 6.0083q1.5137 1.8624 3.3762 0.34873z" clip-path="url(#a)" fill="#fff" stroke="#fff"/>
<g clip-path="url(#a)">
<defs>
<path id="am" d="m9.8125 72.906h41.891v-8.3125h-32.031v-21.484h28.906v-8.2969h-28.906v-34.812h-9.8594z"/>
</defs>
<g transform="translate(654.44 470.43) rotate(-39.103) scale(.08 -.08)">
<use xlink:href="#am"/>
</g>
</g>
<path d="m688.62 473.09 3.0366-3.748q1.5108-1.8648-0.35393-3.3756l-6.0158-4.874q-1.8648-1.5108-3.3756 0.35393l-3.0366 3.748q-1.5108 1.8648 0.35393 3.3756l6.0158 4.874q1.8648 1.5108 3.3756-0.35393z" clip-path="url(#a)" fill="#fff" stroke="#fff"/>
<g clip-path="url(#a)">
<g transform="translate(685.46 470.53) rotate(-50.986) scale(.08 -.08)">
<use xlink:href="#p"/>
</g>
</g>
<path d="m745.04 429.8 1.1521 5.3498q0.50528 2.3462 2.8515 1.8409l7.569-1.6301q2.3462-0.50528 1.8409-2.8515l-1.1521-5.3498q-0.50528-2.3462-2.8515-1.8409l-7.569 1.6301q-2.3462 0.50528-1.8409 2.8515z" clip-path="url(#a)" fill="#fff" stroke="#fff"/>
<g clip-path="url(#a)">
<g transform="translate(749.01 428.95) rotate(77.846) scale(.08 -.08)">
<use xlink:href="#n"/>
</g>
</g>
<path d="m879.65 436.54 5.2972 1.3741q2.3231 0.6026 2.9257-1.7205l1.944-7.4945q0.6026-2.3231-1.7205-2.9257l-5.2972-1.3741q-2.3231-0.6026-2.9257 1.7205l-1.944 7.4945q-0.6026 2.3231 1.7205 2.9257z" clip-path="url(#a)" fill="#fff" stroke="#fff"/>
<g clip-path="url(#a)">
<g transform="translate(880.67 432.61) rotate(14.542) scale(.08 -.08)">
<use xlink:href="#n"/>
</g>
</g>
<path d="m559.47 558.39v33.808q0 2.4 2.4 2.4h7.7425q2.4 0 2.4-2.4v-33.808q0-2.4-2.4-2.4h-7.7425q-2.4 0-2.4 2.4z" clip-path="url(#a)" fill="#fff" stroke="#fff"/>
<g clip-path="url(#a)">
<g transform="translate(563.54 558.39) rotate(90) scale(.08 -.08)">
<use xlink:href="#g"/>
<use x="44.083984" xlink:href="#e"/>
<use x="105.607422" xlink:href="#j"/>
<use x="144.970703" xlink:href="#l"/>
<use x="242.382812" xlink:href="#i"/>
<use x="270.166016" xlink:href="#f"/>
<use x="333.544922" xlink:href="#k"/>
<use x="394.824219" xlink:href="#h"/>
</g>
</g>
<path d="m620.32 558.39v33.808q0 2.4 2.4 2.4h7.7425q2.4 0 2.4-2.4v-33.808q0-2.4-2.4-2.4h-7.7425q-2.4 0-2.4 2.4z" clip-path="url(#a)" fill="#fff" stroke="#fff"/>
<g clip-path="url(#a)">
<g transform="translate(624.39 558.39) rotate(90) scale(.08 -.08)">
<use xlink:href="#g"/>
<use x="44.083984" xlink:href="#e"/>
<use x="105.607422" xlink:href="#j"/>
<use x="144.970703" xlink:href="#l"/>
<use x="242.382812" xlink:href="#i"/>
<use x="270.166016" xlink:href="#f"/>
<use x="333.544922" xlink:href="#k"/>
<use x="394.824219" xlink:href="#h"/>
</g>
</g>
<path d="m727.99 509.72 3.485-3.6616q1.6546-1.7385-0.083833-3.3931l-5.6083-5.3379q-1.7385-1.6546-3.3931 0.083833l-3.485 3.6616q-1.6546 1.7385 0.083833 3.3931l5.6083 5.3379q1.7385 1.6546 3.3931-0.083833z" clip-path="url(#a)" fill="#fff" stroke="#fff"/>
<g clip-path="url(#a)">
<defs>
<path id="af" d="m9.8125 72.906h46.094v-8.3125h-36.234v-21.578h34.719v-8.2969h-34.719v-26.422h37.109v-8.2969h-46.969z"/>
</defs>
<g transform="translate(725.05 506.92) rotate(-46.415) scale(.08 -.08)">
<use xlink:href="#af"/>
</g>
</g>
<path d="m765.23 506.19 0.078863-5.0544q0.037442-2.3997-2.3623-2.4372l-7.7416-0.12079q-2.3997-0.037443-2.4372 2.3623l-0.078863 5.0544q-0.037442 2.3997 2.3623 2.4372l7.7416 0.12079q2.3997 0.037443 2.4372-2.3623z" clip-path="url(#a)" fill="#fff" stroke="#fff"/>
<g clip-path="url(#a)">
<g transform="translate(761.17 506.13) rotate(-89.106) scale(.08 -.08)">
<use xlink:href="#af"/>
</g>
</g>
<path d="m788.05 505.92 3.884 4.015q1.6687 1.725 3.3936 0.056267l5.5648-5.3833q1.725-1.6687 0.056267-3.3936l-3.884-4.015q-1.6687-1.725-3.3936-0.056267l-5.5648 5.3833q-1.725 1.6687-0.056267 3.3936z" clip-path="url(#a)" fill="#fff" stroke="#fff"/>
<g clip-path="url(#a)">
<defs>
<path id="t" d="m64.406 67.281v-10.391q-4.9844 4.6406-10.625 6.9219-5.6406 2.2969-11.984 2.2969-12.5 0-19.141-7.6406t-6.6406-22.094q0-14.406 6.6406-22.047t19.141-7.6406q6.3438 0 11.984 2.2969t10.625 6.9375v-10.312q-5.1719-3.5156-10.969-5.2812-5.7812-1.75-12.219-1.75-16.562 0-26.094 10.125-9.5156 10.141-9.5156 27.672 0 17.578 9.5156 27.703 9.5312 10.141 26.094 10.141 6.5312 0 12.312-1.7344 5.7969-1.7344 10.875-5.2031z"/>
</defs>
<g transform="translate(790.97 503.1) rotate(45.95) scale(.08 -.08)">
<use xlink:href="#t"/>
</g>
</g>
<path d="m964.66 510.37 4.7628-2.8662q2.0564-1.2375 0.81886-3.2939l-3.9922-6.6339q-1.2375-2.0564-3.2939-0.81886l-4.7628 2.8662q-2.0564 1.2375-0.81886 3.2939l3.9922 6.6339q1.2375 2.0564 3.2939 0.81886z" clip-path="url(#a)" fill="#fff" stroke="#fff"/>
<g clip-path="url(#a)">
<defs>
<path id="al" d="m44.391 34.188q3.1719-1.0781 6.1719-4.5938t6.0312-9.6719l10.016-19.922h-10.609l-9.3125 18.703q-3.625 7.3281-7.0156 9.7188t-9.25 2.3906h-10.75v-30.812h-9.8594v72.906h22.266q12.5 0 18.656-5.2344 6.1562-5.2188 6.1562-15.766 0-6.8906-3.2031-11.438-3.2031-4.5312-9.2969-6.2812zm-24.719 30.609v-25.875h12.406q7.125 0 10.766 3.2969t3.6406 9.6875-3.6406 9.6406-10.766 3.25z"/>
</defs>
<g transform="translate(962.56 506.89) rotate(-31.039) scale(.08 -.08)">
<use xlink:href="#al"/>
</g>
</g>
<path d="m1006.7 509.15 2.8211-4.8216q1.212-2.0715-0.85943-3.2835l-6.6826-3.9101q-2.0715-1.212-3.2835 0.85943l-2.8211 4.8216q-1.212 2.0715 0.85943 3.2835l6.6826 3.9101q2.0715 1.212 3.2835-0.85943z" clip-path="url(#a)" fill="#fff" stroke="#fff"/>
<g clip-path="url(#a)">
<g transform="translate(1003.2 507.09) rotate(-59.668) scale(.08 -.08)">
<use xlink:href="#t"/>
</g>
</g>
<path d="m1036.3 503.96 2.7752 5.1555q1.1376 2.1133 3.2508 0.9757l6.8175-3.6699q2.1133-1.1376 0.9757-3.2508l-2.7752-5.1555q-1.1376-2.1133-3.2508-0.9757l-6.8175 3.6699q-2.1133 1.1376-0.9757 3.2508z" clip-path="url(#a)" fill="#fff" stroke="#fff"/>
<g clip-path="url(#a)">
<g transform="translate(1039.9 502.04) rotate(61.706) scale(.08 -.08)">
<use xlink:href="#w"/>
</g>
</g>
<path d="m1079.8 507.5 5.0531 2.9576q2.0713 1.2123 3.2836-0.85896l3.911-6.6821q1.2123-2.0713-0.85896-3.2836l-5.0531-2.9576q-2.0713-1.2123-3.2836 0.85896l-3.911 6.6821q-1.2123 2.0713 0.85896 3.2836z" clip-path="url(#a)" fill="#fff" stroke="#fff"/>
<g clip-path="url(#a)">
<g transform="translate(1081.9 503.99) rotate(30.341) scale(.08 -.08)">
<use xlink:href="#w"/>
</g>
</g>
<path d="m897.53 558.39v33.808q0 2.4 2.4 2.4h7.7425q2.4 0 2.4-2.4v-33.808q0-2.4-2.4-2.4h-7.7425q-2.4 0-2.4 2.4z" clip-path="url(#a)" fill="#fff" stroke="#fff"/>
<g clip-path="url(#a)">
<g transform="translate(901.59 558.39) rotate(90) scale(.08 -.08)">
<use xlink:href="#g"/>
<use x="44.083984" xlink:href="#e"/>
<use x="105.607422" xlink:href="#j"/>
<use x="144.970703" xlink:href="#l"/>
<use x="242.382812" xlink:href="#i"/>
<use x="270.166016" xlink:href="#f"/>
<use x="333.544922" xlink:href="#k"/>
<use x="394.824219" xlink:href="#h"/>
</g>
</g>
<path d="m975.28 558.39v33.808q0 2.4 2.4 2.4h7.7425q2.4 0 2.4-2.4v-33.808q0-2.4-2.4-2.4h-7.7425q-2.4 0-2.4 2.4z" clip-path="url(#a)" fill="#fff" stroke="#fff"/>
<g clip-path="url(#a)">
<g transform="translate(979.35 558.39) rotate(90) scale(.08 -.08)">
<use xlink:href="#g"/>
<use x="44.083984" xlink:href="#e"/>
<use x="105.607422" xlink:href="#j"/>
<use x="144.970703" xlink:href="#l"/>
<use x="242.382812" xlink:href="#i"/>
<use x="270.166016" xlink:href="#f"/>
<use x="333.544922" xlink:href="#k"/>
<use x="394.824219" xlink:href="#h"/>
</g>
</g>
<path d="m684.55 558.39v33.808q0 2.4 2.4 2.4h7.7425q2.4 0 2.4-2.4v-33.808q0-2.4-2.4-2.4h-7.7425q-2.4 0-2.4 2.4z" clip-path="url(#a)" fill="#fff" stroke="#fff"/>
<g clip-path="url(#a)">
<g transform="translate(688.62 558.39) rotate(90) scale(.08 -.08)">
<use xlink:href="#g"/>
<use x="44.083984" xlink:href="#e"/>
<use x="105.607422" xlink:href="#j"/>
<use x="144.970703" xlink:href="#l"/>
<use x="242.382812" xlink:href="#i"/>
<use x="270.166016" xlink:href="#f"/>
<use x="333.544922" xlink:href="#k"/>
<use x="394.824219" xlink:href="#h"/>
</g>
</g>
<path d="m752.17 558.39v33.808q0 2.4 2.4 2.4h7.7425q2.4 0 2.4-2.4v-33.808q0-2.4-2.4-2.4h-7.7425q-2.4 0-2.4 2.4z" clip-path="url(#a)" fill="#fff" stroke="#fff"/>
<g clip-path="url(#a)">
<g transform="translate(756.23 558.39) rotate(90) scale(.08 -.08)">
<use xlink:href="#g"/>
<use x="44.083984" xlink:href="#e"/>
<use x="105.607422" xlink:href="#j"/>
<use x="144.970703" xlink:href="#l"/>
<use x="242.382812" xlink:href="#i"/>
<use x="270.166016" xlink:href="#f"/>
<use x="333.544922" xlink:href="#k"/>
<use x="394.824219" xlink:href="#h"/>
</g>
</g>
<path d="m823.16 558.39v33.808q0 2.4 2.4 2.4h7.7425q2.4 0 2.4-2.4v-33.808q0-2.4-2.4-2.4h-7.7425q-2.4 0-2.4 2.4z" clip-path="url(#a)" fill="#fff" stroke="#fff"/>
<g clip-path="url(#a)">
<g transform="translate(827.22 558.39) rotate(90) scale(.08 -.08)">
<use xlink:href="#g"/>
<use x="44.083984" xlink:href="#e"/>
<use x="105.607422" xlink:href="#j"/>
<use x="144.970703" xlink:href="#l"/>
<use x="242.382812" xlink:href="#i"/>
<use x="270.166016" xlink:href="#f"/>
<use x="333.544922" xlink:href="#k"/>
<use x="394.824219" xlink:href="#h"/>
</g>
</g>
<path d="m180.05 507.33 1.0419-4.9465q0.49468-2.3485-1.8538-2.8431l-7.5762-1.5959q-2.3485-0.49468-2.8431 1.8538l-1.0419 4.9465q-0.49468 2.3485 1.8538 2.8431l7.5762 1.5959q2.3485 0.49468 2.8431-1.8538z" clip-path="url(#a)" fill="#fff" stroke="#fff"/>
<g clip-path="url(#a)">
<g transform="translate(176.08 506.5) rotate(-78.105) scale(.08 -.08)">
<use xlink:href="#af"/>
</g>
</g>
<path d="m182.94 502.13 1.1514 5.4663q0.49468 2.3485 2.8431 1.8538l7.5762-1.5959q2.3485-0.49468 1.8538-2.8431l-1.1514-5.4663q-0.49468-2.3485-2.8431-1.8538l-7.5762 1.5959q-2.3485 0.49468-1.8538 2.8431z" clip-path="url(#a)" fill="#fff" stroke="#fff"/>
<g clip-path="url(#a)">
<g transform="translate(186.92 501.29) rotate(78.105) scale(.08 -.08)">
<use xlink:href="#t"/>
</g>
</g>
<path d="m160.56 558.39v33.808q0 2.4 2.4 2.4h7.7425q2.4 0 2.4-2.4v-33.808q0-2.4-2.4-2.4h-7.7425q-2.4 0-2.4 2.4z" clip-path="url(#a)" fill="#fff" stroke="#fff"/>
<g clip-path="url(#a)">
<g transform="translate(164.62 558.39) rotate(90) scale(.08 -.08)">
<use xlink:href="#g"/>
<use x="44.083984" xlink:href="#e"/>
<use x="105.607422" xlink:href="#j"/>
<use x="144.970703" xlink:href="#l"/>
<use x="242.382812" xlink:href="#i"/>
<use x="270.166016" xlink:href="#f"/>
<use x="333.544922" xlink:href="#k"/>
<use x="394.824219" xlink:href="#h"/>
</g>
</g>
<path d="m190.99 558.39v33.808q0 2.4 2.4 2.4h7.7425q2.4 0 2.4-2.4v-33.808q0-2.4-2.4-2.4h-7.7425q-2.4 0-2.4 2.4z" clip-path="url(#a)" fill="#fff" stroke="#fff"/>
<g clip-path="url(#a)">
<g transform="translate(195.05 558.39) rotate(90) scale(.08 -.08)">
<use xlink:href="#g"/>
<use x="44.083984" xlink:href="#e"/>
<use x="105.607422" xlink:href="#j"/>
<use x="144.970703" xlink:href="#l"/>
<use x="242.382812" xlink:href="#i"/>
<use x="270.166016" xlink:href="#f"/>
<use x="333.544922" xlink:href="#k"/>
<use x="394.824219" xlink:href="#h"/>
</g>
</g>
<path d="m59.143 558.39v33.808q0 2.4 2.4 2.4h7.7425q2.4 0 2.4-2.4v-33.808q0-2.4-2.4-2.4h-7.7425q-2.4 0-2.4 2.4z" clip-path="url(#a)" fill="#fff" stroke="#fff"/>
<g clip-path="url(#a)">
<g transform="translate(63.207 558.39) rotate(90) scale(.08 -.08)">
<use xlink:href="#g"/>
<use x="44.083984" xlink:href="#e"/>
<use x="105.607422" xlink:href="#j"/>
<use x="144.970703" xlink:href="#l"/>
<use x="242.382812" xlink:href="#i"/>
<use x="270.166016" xlink:href="#f"/>
<use x="333.544922" xlink:href="#k"/>
<use x="394.824219" xlink:href="#h"/>
</g>
</g>
<path d="m72.666 558.39v33.808q0 2.4 2.4 2.4h7.7425q2.4 0 2.4-2.4v-33.808q0-2.4-2.4-2.4h-7.7425q-2.4 0-2.4 2.4z" clip-path="url(#a)" fill="#fff" stroke="#fff"/>
<g clip-path="url(#a)">
<g transform="translate(76.729 558.39) rotate(90) scale(.08 -.08)">
<use xlink:href="#g"/>
<use x="44.083984" xlink:href="#e"/>
<use x="105.607422" xlink:href="#j"/>
<use x="144.970703" xlink:href="#l"/>
<use x="242.382812" xlink:href="#i"/>
<use x="270.166016" xlink:href="#f"/>
<use x="333.544922" xlink:href="#k"/>
<use x="394.824219" xlink:href="#h"/>
</g>
</g>
<path d="m89.569 558.39v33.808q0 2.4 2.4 2.4h7.7425q2.4 0 2.4-2.4v-33.808q0-2.4-2.4-2.4h-7.7425q-2.4 0-2.4 2.4z" clip-path="url(#a)" fill="#fff" stroke="#fff"/>
<g clip-path="url(#a)">
<g transform="translate(93.632 558.39) rotate(90) scale(.08 -.08)">
<use xlink:href="#g"/>
<use x="44.083984" xlink:href="#e"/>
<use x="105.607422" xlink:href="#j"/>
<use x="144.970703" xlink:href="#l"/>
<use x="242.382812" xlink:href="#i"/>
<use x="270.166016" xlink:href="#f"/>
<use x="333.544922" xlink:href="#k"/>
<use x="394.824219" xlink:href="#h"/>
</g>
</g>
<path d="m109.85 558.39v33.808q0 2.4 2.4 2.4h7.7425q2.4 0 2.4-2.4v-33.808q0-2.4-2.4-2.4h-7.7425q-2.4 0-2.4 2.4z" clip-path="url(#a)" fill="#fff" stroke="#fff"/>
<g clip-path="url(#a)">
<g transform="translate(113.92 558.39) rotate(90) scale(.08 -.08)">
<use xlink:href="#g"/>
<use x="44.083984" xlink:href="#e"/>
<use x="105.607422" xlink:href="#j"/>
<use x="144.970703" xlink:href="#l"/>
<use x="242.382812" xlink:href="#i"/>
<use x="270.166016" xlink:href="#f"/>
<use x="333.544922" xlink:href="#k"/>
<use x="394.824219" xlink:href="#h"/>
</g>
</g>
<path d="m318.09 364.02 2.2255-9.7659q0.53326-2.34-1.8067-2.8733l-7.549-1.7203q-2.34-0.53326-2.8733 1.8067l-2.2255 9.7659q-0.53326 2.34 1.8067 2.8733l7.549 1.7203q2.34 0.53326 2.8733-1.8067z" clip-path="url(#a)" fill="#fff" stroke="#fff"/>
<g clip-path="url(#a)">
<g transform="translate(314.13 363.11) rotate(-77.162) scale(.08 -.08)">
<use xlink:href="#s"/>
<use x="55.712891" xlink:href="#al"/>
</g>
</g>
<path d="m388.08 213.75 7.5804 6.6895q1.7995 1.588 3.3875-0.21148l5.123-5.8053q1.588-1.7995-0.21148-3.3875l-7.5804-6.6895q-1.7995-1.588-3.3875 0.21148l-5.123 5.8053q-1.588 1.7995 0.21148 3.3875z" clip-path="url(#a)" fill="#fff" stroke="#fff"/>
<g clip-path="url(#a)">
<g transform="translate(390.77 210.7) rotate(41.428) scale(.08 -.08)">
<use xlink:href="#s"/>
<use x="57.962891" xlink:href="#n"/>
</g>
</g>
<path d="m49.001 558.39v33.808q0 2.4 2.4 2.4h7.7425q2.4 0 2.4-2.4v-33.808q0-2.4-2.4-2.4h-7.7425q-2.4 0-2.4 2.4z" clip-path="url(#a)" fill="#fff" stroke="#fff"/>
<g clip-path="url(#a)">
<g transform="translate(53.065 558.39) rotate(90) scale(.08 -.08)">
<use xlink:href="#g"/>
<use x="44.083984" xlink:href="#e"/>
<use x="105.607422" xlink:href="#j"/>
<use x="144.970703" xlink:href="#l"/>
<use x="242.382812" xlink:href="#i"/>
<use x="270.166016" xlink:href="#f"/>
<use x="333.544922" xlink:href="#k"/>
<use x="394.824219" xlink:href="#h"/>
</g>
</g>
<path d="m228.17 558.39v33.808q0 2.4 2.4 2.4h7.7425q2.4 0 2.4-2.4v-33.808q0-2.4-2.4-2.4h-7.7425q-2.4 0-2.4 2.4z" clip-path="url(#a)" fill="#fff" stroke="#fff"/>
<g clip-path="url(#a)">
<g transform="translate(232.24 558.39) rotate(90) scale(.08 -.08)">
<use xlink:href="#g"/>
<use x="44.083984" xlink:href="#e"/>
<use x="105.607422" xlink:href="#j"/>
<use x="144.970703" xlink:href="#l"/>
<use x="242.382812" xlink:href="#i"/>
<use x="270.166016" xlink:href="#f"/>
<use x="333.544922" xlink:href="#k"/>
<use x="394.824219" xlink:href="#h"/>
</g>
</g>
<path d="m305.93 558.39v33.808q0 2.4 2.4 2.4h7.7425q2.4 0 2.4-2.4v-33.808q0-2.4-2.4-2.4h-7.7425q-2.4 0-2.4 2.4z" clip-path="url(#a)" fill="#fff" stroke="#fff"/>
<g clip-path="url(#a)">
<g transform="translate(309.99 558.39) rotate(90) scale(.08 -.08)">
<use xlink:href="#g"/>
<use x="44.083984" xlink:href="#e"/>
<use x="105.607422" xlink:href="#j"/>
<use x="144.970703" xlink:href="#l"/>
<use x="242.382812" xlink:href="#i"/>
<use x="270.166016" xlink:href="#f"/>
<use x="333.544922" xlink:href="#k"/>
<use x="394.824219" xlink:href="#h"/>
</g>
</g>
<path d="m1056.4 558.39v33.808q0 2.4 2.4 2.4h7.7425q2.4 0 2.4-2.4v-33.808q0-2.4-2.4-2.4h-7.7425q-2.4 0-2.4 2.4z" clip-path="url(#a)" fill="#fff" stroke="#fff"/>
<g clip-path="url(#a)">
<g transform="translate(1060.5 558.39) rotate(90) scale(.08 -.08)">
<use xlink:href="#g"/>
<use x="44.083984" xlink:href="#e"/>
<use x="105.607422" xlink:href="#j"/>
<use x="144.970703" xlink:href="#l"/>
<use x="242.382812" xlink:href="#i"/>
<use x="270.166016" xlink:href="#f"/>
<use x="333.544922" xlink:href="#k"/>
<use x="394.824219" xlink:href="#h"/>
</g>
</g>
<path d="m1140.9 558.39v33.808q0 2.4 2.4 2.4h7.7425q2.4 0 2.4-2.4v-33.808q0-2.4-2.4-2.4h-7.7425q-2.4 0-2.4 2.4z" clip-path="url(#a)" fill="#fff" stroke="#fff"/>
<g clip-path="url(#a)">
<g transform="translate(1145 558.39) rotate(90) scale(.08 -.08)">
<use xlink:href="#g"/>
<use x="44.083984" xlink:href="#e"/>
<use x="105.607422" xlink:href="#j"/>
<use x="144.970703" xlink:href="#l"/>
<use x="242.382812" xlink:href="#i"/>
<use x="270.166016" xlink:href="#f"/>
<use x="333.544922" xlink:href="#k"/>
<use x="394.824219" xlink:href="#h"/>
</g>
</g>
<defs>
<path id="b" d="m0 8.6603c2.2967 0 4.4997-0.9125 6.1237-2.5365 1.624-1.624 2.5365-3.827 2.5365-6.1237s-0.9125-4.4997-2.5365-6.1237c-1.624-1.624-3.827-2.5365-6.1237-2.5365s-4.4997 0.9125-6.1237 2.5365c-1.624 1.624-2.5365 3.827-2.5365 6.1237s0.9125 4.4997 2.5365 6.1237c1.624 1.624 3.827 2.5365 6.1237 2.5365z"/>
</defs>
<g clip-path="url(#a)">
<use x="55.272727" y="610.909091" fill="#ffffff" stroke="#ffffff" xlink:href="#b"/>
<use x="65.414512" y="610.909091" fill="#ffffff" stroke="#ffffff" xlink:href="#b"/>
<use x="78.936892" y="610.909091" fill="#ffffff" stroke="#ffffff" xlink:href="#b"/>
<use x="95.839867" y="610.909091" fill="#ffffff" stroke="#ffffff" xlink:href="#b"/>
<use x="116.123436" y="610.909091" fill="#ffffff" stroke="#ffffff" xlink:href="#b"/>
<use x="139.787601" y="610.909091" fill="#ffffff" stroke="#ffffff" xlink:href="#b"/>
<use x="166.83236" y="610.909091" fill="#ffffff" stroke="#ffffff" xlink:href="#b"/>
<use x="197.257715" y="610.909091" fill="#ffffff" stroke="#ffffff" xlink:href="#b"/>
<use x="234.444259" y="610.909091" fill="#ffffff" stroke="#ffffff" xlink:href="#b"/>
<use x="271.630803" y="610.909091" fill="#ffffff" stroke="#ffffff" xlink:href="#b"/>
<use x="312.197943" y="610.909091" fill="#ffffff" stroke="#ffffff" xlink:href="#b"/>
<use x="356.145677" y="610.909091" fill="#ffffff" stroke="#ffffff" xlink:href="#b"/>
<use x="403.474006" y="610.909091" fill="#ffffff" stroke="#ffffff" xlink:href="#b"/>
<use x="454.18293" y="610.909091" fill="#ffffff" stroke="#ffffff" xlink:href="#b"/>
<use x="508.272449" y="610.909091" fill="#ffffff" stroke="#ffffff" xlink:href="#b"/>
<use x="565.742563" y="610.909091" fill="#ffffff" stroke="#ffffff" xlink:href="#b"/>
<use x="626.593272" y="610.909091" fill="#ffffff" stroke="#ffffff" xlink:href="#b"/>
<use x="690.824576" y="610.909091" fill="#ffffff" stroke="#ffffff" xlink:href="#b"/>
<use x="758.436475" y="610.909091" fill="#ffffff" stroke="#ffffff" xlink:href="#b"/>
<use x="829.428969" y="610.909091" fill="#ffffff" stroke="#ffffff" xlink:href="#b"/>
<use x="903.802057" y="610.909091" fill="#ffffff" stroke="#ffffff" xlink:href="#b"/>
<use x="981.555741" y="610.909091" fill="#ffffff" stroke="#ffffff" xlink:href="#b"/>
<use x="1062.690019" y="610.909091" fill="#ffffff" stroke="#ffffff" xlink:href="#b"/>
<use x="1147.204893" y="610.909091" fill="#ffffff" stroke="#ffffff" xlink:href="#b"/>
<use x="1160.727273" y="175.798991" fill="#ffffff" stroke="#ffffff" xlink:href="#b"/>
<use x="1160.727273" y="175.798991" fill="#ffffff" stroke="#ffffff" xlink:href="#b"/>
<use x="1160.727273" y="394.856803" fill="#ffffff" stroke="#ffffff" xlink:href="#b"/>
<use x="1160.727273" y="467.457061" fill="#ffffff" stroke="#ffffff" xlink:href="#b"/>
<use x="200.63831" y="467.457061" fill="#ffffff" stroke="#ffffff" xlink:href="#b"/>
<use x="215.242069" y="29.090909" fill="#ffffff" stroke="#ffffff" xlink:href="#b"/>
<use x="215.242069" y="102.497524" fill="#ffffff" stroke="#ffffff" xlink:href="#b"/>
<use x="215.242069" y="175.798991" fill="#ffffff" stroke="#ffffff" xlink:href="#b"/>
<use x="89.078677" y="467.457061" fill="#ffffff" stroke="#ffffff" xlink:href="#b"/>
<use x="139.787601" y="539.678524" fill="#ffffff" stroke="#ffffff" xlink:href="#b"/>
<use x="182.045038" y="394.856803" fill="#ffffff" stroke="#ffffff" xlink:href="#b"/>
<use x="271.630803" y="539.678524" fill="#ffffff" stroke="#ffffff" xlink:href="#b"/>
<use x="437.479505" y="248.977821" fill="#ffffff" stroke="#ffffff" xlink:href="#b"/>
<use x="356.145677" y="539.678524" fill="#ffffff" stroke="#ffffff" xlink:href="#b"/>
<use x="403.474006" y="539.678524" fill="#ffffff" stroke="#ffffff" xlink:href="#b"/>
<use x="454.18293" y="539.678524" fill="#ffffff" stroke="#ffffff" xlink:href="#b"/>
<use x="536.115405" y="322.009456" fill="#ffffff" stroke="#ffffff" xlink:href="#b"/>
<use x="508.272449" y="539.678524" fill="#ffffff" stroke="#ffffff" xlink:href="#b"/>
<use x="743.928088" y="394.856803" fill="#ffffff" stroke="#ffffff" xlink:href="#b"/>
<use x="565.742563" y="539.678524" fill="#ffffff" stroke="#ffffff" xlink:href="#b"/>
<use x="626.593272" y="539.678524" fill="#ffffff" stroke="#ffffff" xlink:href="#b"/>
<use x="759.56334" y="467.457061" fill="#ffffff" stroke="#ffffff" xlink:href="#b"/>
<use x="1023.813178" y="467.457061" fill="#ffffff" stroke="#ffffff" xlink:href="#b"/>
<use x="903.802057" y="539.678524" fill="#ffffff" stroke="#ffffff" xlink:href="#b"/>
<use x="981.555741" y="539.678524" fill="#ffffff" stroke="#ffffff" xlink:href="#b"/>
<use x="690.824576" y="539.678524" fill="#ffffff" stroke="#ffffff" xlink:href="#b"/>
<use x="758.436475" y="539.678524" fill="#ffffff" stroke="#ffffff" xlink:href="#b"/>
<use x="829.428969" y="539.678524" fill="#ffffff" stroke="#ffffff" xlink:href="#b"/>
<use x="182.045038" y="467.457061" fill="#ffffff" stroke="#ffffff" xlink:href="#b"/>
<use x="166.83236" y="539.678524" fill="#ffffff" stroke="#ffffff" xlink:href="#b"/>
<use x="197.257715" y="539.678524" fill="#ffffff" stroke="#ffffff" xlink:href="#b"/>
<use x="65.414512" y="539.678524" fill="#ffffff" stroke="#ffffff" xlink:href="#b"/>
<use x="78.936892" y="539.678524" fill="#ffffff" stroke="#ffffff" xlink:href="#b"/>
<use x="95.839867" y="539.678524" fill="#ffffff" stroke="#ffffff" xlink:href="#b"/>
<use x="116.123436" y="539.678524" fill="#ffffff" stroke="#ffffff" xlink:href="#b"/>
<use x="354.555154" y="175.798991" fill="#808080" stroke="#808080" xlink:href="#b"/>
<use x="55.272727" y="539.678524" fill="#ffffff" stroke="#ffffff" xlink:href="#b"/>
<use x="234.444259" y="539.678524" fill="#ffffff" stroke="#ffffff" xlink:href="#b"/>
<use x="312.197943" y="539.678524" fill="#ffffff" stroke="#ffffff" xlink:href="#b"/>
<use x="1062.690019" y="539.678524" fill="#ffffff" stroke="#ffffff" xlink:href="#b"/>
<use x="1147.204893" y="539.678524" fill="#ffffff" stroke="#ffffff" xlink:href="#b"/>
</g>
<g clip-path="url(#a)">
<defs>
<path id="ap" d="m17.922 72.906v-27.109h-8.2969v27.109zm18.453 0v-27.109h-8.2969v27.109z"/>
</defs>
<g transform="translate(52.973 613.67) scale(.1 -.1)">
<use xlink:href="#ap"/>
</g>
</g>
<g clip-path="url(#a)">
<defs>
<path id="y" d="m54.891 33.016v-33.016h-8.9844v32.719q0 7.7656-3.0312 11.609-3.0312 3.8594-9.0781 3.8594-7.2812 0-11.484-4.6406-4.2031-4.625-4.2031-12.641v-30.906h-9.0312v75.984h9.0312v-29.797q3.2344 4.9375 7.5938 7.375 4.375 2.4375 10.094 2.4375 9.4219 0 14.25-5.8281 4.8438-5.8281 4.8438-17.156z"/>
<path id="aq" d="m32.172-5.0781q-3.7969-9.7656-7.4219-12.734-3.6094-2.9844-9.6562-2.9844h-7.1875v7.5156h5.2812q3.7031 0 5.75 1.7656 2.0625 1.75 4.5469 8.2969l1.6094 4.0938-22.109 53.812h9.5156l17.094-42.766 17.094 42.766h9.5156z"/>
</defs>
<g transform="translate(53.156 613.67) scale(.1 -.1)">
<use xlink:href="#g"/>
<use x="61.083984" xlink:href="#y"/>
<use x="124.462891" xlink:href="#e"/>
<use x="185.986328" xlink:href="#aq"/>
</g>
</g>
<g clip-path="url(#a)">
<defs>
<path id="ao" d="m17.922 72.906v-27.109h-8.2969v27.109z"/>
</defs>
<g transform="translate(74.785 613.67) scale(.1 -.1)">
<use xlink:href="#ao"/>
<use x="27.490234" xlink:href="#h"/>
<use x="55.273438" xlink:href="#h"/>
</g>
</g>
<g clip-path="url(#a)">
<defs>
<path id="ax" d="m37.109 75.984v-7.4844h-8.5938q-4.8281 0-6.7188-1.9531-1.875-1.9531-1.875-7.0312v-4.8281h14.797v-6.9844h-14.797v-47.703h-9.0312v47.703h-8.5938v6.9844h8.5938v3.8125q0 9.125 4.25 13.297 4.25 4.1875 13.469 4.1875z"/>
<path id="as" d="m45.406 46.391v29.594h8.9844v-75.984h-8.9844v8.2031q-2.8281-4.875-7.1562-7.25-4.3125-2.375-10.375-2.375-9.9062 0-16.141 7.9062-6.2188 7.9219-6.2188 20.812t6.2188 20.797q6.2344 7.9062 16.141 7.9062 6.0625 0 10.375-2.375 4.3281-2.3594 7.1562-7.2344zm-30.609-19.094q0-9.9062 4.0781-15.547t11.203-5.6406 11.219 5.6406q4.1094 5.6406 4.1094 15.547t-4.1094 15.547q-4.0938 5.6406-11.219 5.6406t-11.203-5.6406-4.0781-15.547z"/>
</defs>
<g transform="translate(84.752 613.67) scale(.1 -.1)">
<use xlink:href="#ax"/>
<use x="35.205078" xlink:href="#e"/>
<use x="96.728516" xlink:href="#e"/>
<use x="158.251953" xlink:href="#as"/>
</g>
</g>
<g clip-path="url(#a)">
<defs>
<path id="u" d="m18.312 70.219v-15.531h18.5v-6.9844h-18.5v-29.688q0-6.6875 1.8281-8.5938t7.4531-1.9062h9.2188v-7.5156h-9.2188q-10.406 0-14.359 3.875-3.9531 3.8906-3.9531 14.141v29.688h-6.5938v6.9844h6.5938v15.531z"/>
</defs>
<g transform="translate(112.77 613.67) scale(.1 -.1)">
<use xlink:href="#i"/>
<use x="27.783203" xlink:href="#u"/>
</g>
</g>
<g clip-path="url(#a)">
<defs>
<path id="ak" d="m8.5 21.578v33.109h8.9844v-32.766q0-7.7656 3.0156-11.656 3.0312-3.875 9.0938-3.875 7.2656 0 11.484 4.6406 4.2344 4.6406 4.2344 12.656v31h8.9844v-54.688h-8.9844v8.4062q-3.2656-4.9844-7.5938-7.4062-4.3125-2.4219-10.031-2.4219-9.4219 0-14.312 5.8594-4.875 5.8594-4.875 17.141z"/>
<path id="ar" d="m45.406 27.984q0 9.7656-4.0312 15.125-4.0156 5.375-11.297 5.375-7.2188 0-11.25-5.375-4.0312-5.3594-4.0312-15.125 0-9.7188 4.0312-15.094t11.25-5.375q7.2812 0 11.297 5.375 4.0312 5.375 4.0312 15.094zm8.9844-21.203q0-13.953-6.2031-20.766-6.1875-6.8125-18.984-6.8125-4.7344 0-8.9375 0.70312t-8.1562 2.1719v8.7344q3.9531-2.1406 7.8125-3.1562 3.8594-1.0312 7.8594-1.0312 8.8438 0 13.234 4.6094t4.3906 13.938v4.4531q-2.7812-4.8438-7.125-7.2344t-10.406-2.3906q-10.047 0-16.203 7.6562-6.1562 7.6719-6.1562 20.328 0 12.688 6.1562 20.344 6.1562 7.6719 16.203 7.6719 6.0625 0 10.406-2.3906t7.125-7.2188v8.2969h8.9844z"/>
</defs>
<g transform="translate(123.66 613.67) scale(.1 -.1)">
<use xlink:href="#as"/>
<use x="63.476562" xlink:href="#ak"/>
<use x="126.855469" xlink:href="#j"/>
<use x="167.96875" xlink:href="#i"/>
<use x="195.751953" xlink:href="#f"/>
<use x="259.130859" xlink:href="#ar"/>
</g>
</g>
<g clip-path="url(#a)">
<defs>
<path id="v" d="m30.609 48.391q-7.2188 0-11.422-5.6406t-4.2031-15.453 4.1719-15.453q4.1875-5.6406 11.453-5.6406 7.1875 0 11.375 5.6562 4.2031 5.6719 4.2031 15.438 0 9.7188-4.2031 15.406-4.1875 5.6875-11.375 5.6875zm0 7.6094q11.719 0 18.406-7.625 6.7031-7.6094 6.7031-21.078 0-13.422-6.7031-21.078-6.6875-7.6406-18.406-7.6406-11.766 0-18.438 7.6406-6.6562 7.6562-6.6562 21.078 0 13.469 6.6562 21.078 6.6719 7.625 18.438 7.625z"/>
</defs>
<g transform="translate(158.55 613.67) scale(.1 -.1)">
<use xlink:href="#v"/>
<use x="61.181641" xlink:href="#ak"/>
<use x="124.560547" xlink:href="#j"/>
</g>
</g>
<g clip-path="url(#a)">
<defs>
<path id="at" d="m48.688 27.297q0 9.9062-4.0781 15.547t-11.203 5.6406q-7.1406 0-11.219-5.6406t-4.0781-15.547 4.0781-15.547 11.219-5.6406q7.125 0 11.203 5.6406t4.0781 15.547zm-30.578 19.094q2.8438 4.875 7.1562 7.2344 4.3281 2.375 10.328 2.375 9.9688 0 16.188-7.9062 6.2344-7.9062 6.2344-20.797t-6.2344-20.812q-6.2188-7.9062-16.188-7.9062-6 0-10.328 2.375-4.3125 2.375-7.1562 7.25v-8.2031h-9.0312v75.984h9.0312z"/>
<path id="ad" d="m44.281 53.078v-8.5q-3.7969 1.9531-7.9062 2.9219-4.0938 0.98438-8.5 0.98438-6.6875 0-10.031-2.0469t-3.3438-6.1562q0-3.125 2.3906-4.9062t9.625-3.3906l3.0781-0.6875q9.5625-2.0469 13.594-5.7812t4.0312-10.422q0-7.625-6.0312-12.078-6.0312-4.4375-16.578-4.4375-4.3906 0-9.1562 0.85938t-10.031 2.5625v9.2812q4.9844-2.5938 9.8125-3.8906 4.8281-1.2812 9.5781-1.2812 6.3438 0 9.75 2.1719 3.4219 2.1719 3.4219 6.125 0 3.6562-2.4688 5.6094-2.4531 1.9531-10.812 3.7656l-3.125 0.73438q-8.3438 1.75-12.062 5.3906-3.7031 3.6406-3.7031 9.9844 0 7.7188 5.4688 11.906 5.4688 4.2031 15.531 4.2031 4.9688 0 9.3594-0.73438 4.4062-0.71875 8.1094-2.1875z"/>
<path id="ae" d="m48.781 52.594v-8.4062q-3.8125 2.1094-7.6406 3.1562t-7.7344 1.0469q-8.75 0-13.594-5.5469-4.8281-5.5312-4.8281-15.547t4.8281-15.562q4.8438-5.5312 13.594-5.5312 3.9062 0 7.7344 1.0469t7.6406 3.1562v-8.3125q-3.7656-1.75-7.7969-2.625-4.0156-0.89062-8.5625-0.89062-12.359 0-19.641 7.7656-7.2656 7.7656-7.2656 20.953 0 13.375 7.3438 21.031 7.3594 7.6719 20.156 7.6719 4.1406 0 8.0938-0.85938 3.9531-0.84375 7.6719-2.5469z"/>
</defs>
<g transform="translate(176.34 613.67) scale(.1 -.1)">
<use xlink:href="#k"/>
<use x="61.279297" xlink:href="#at"/>
<use x="124.755859" xlink:href="#ad"/>
<use x="176.855469" xlink:href="#e"/>
<use x="238.378906" xlink:href="#f"/>
<use x="301.757812" xlink:href="#ae"/>
<use x="356.738281" xlink:href="#e"/>
</g>
</g>
<g clip-path="url(#a)">
<defs>
<path id="d" d="m10.688 12.406h10.312v-12.406h-10.312z"/>
</defs>
<g transform="translate(232.86 613.67) scale(.1 -.1)">
<use xlink:href="#d"/>
</g>
</g>
<g clip-path="url(#a)">
<defs>
<path id="aj" d="m4.2031 54.688h8.9844l11.234-42.672 11.172 42.672h10.594l11.234-42.672 11.188 42.672h8.9844l-14.312-54.688h-10.594l-11.766 44.828-11.812-44.828h-10.609z"/>
</defs>
<g transform="translate(251.77 613.67) scale(.1 -.1)">
<use xlink:href="#n"/>
<use x="68.408203" xlink:href="#f"/>
<use x="131.787109" xlink:href="#aq"/>
<use x="190.966797" xlink:href="#y"/>
<use x="254.345703" xlink:href="#v"/>
<use x="315.527344" xlink:href="#aj"/>
</g>
</g>
<g clip-path="url(#a)">
<defs>
<path id="au" d="m11.719 12.406h10.297v-8.4062l-8-15.625h-6.2969l4 15.625z"/>
</defs>
<g transform="translate(310.61 613.67) scale(.1 -.1)">
<use xlink:href="#au"/>
</g>
</g>
<g clip-path="url(#a)">
<g transform="translate(348.98 613.67) scale(.1 -.1)">
<use xlink:href="#aj"/>
<use x="81.787109" xlink:href="#e"/>
</g>
</g>
<g clip-path="url(#a)">
<g transform="translate(399.32 613.67) scale(.1 -.1)">
<use xlink:href="#ao"/>
<use x="27.490234" xlink:href="#h"/>
<use x="55.273438" xlink:href="#h"/>
</g>
</g>
<g clip-path="url(#a)">
<defs>
<path id="av" d="m2.9844 54.688h9.5156l17.094-45.891 17.094 45.891h9.5156l-20.516-54.688h-12.203z"/>
</defs>
<g transform="translate(440.62 613.67) scale(.1 -.1)">
<use xlink:href="#h"/>
<use x="27.783203" xlink:href="#e"/>
<use x="89.306641" xlink:href="#k"/>
<use x="150.585938" xlink:href="#av"/>
<use x="209.765625" xlink:href="#e"/>
</g>
</g>
<g clip-path="url(#a)">
<g transform="translate(478.99 613.67) scale(.1 -.1)">
<use xlink:href="#i"/>
<use x="27.783203" xlink:href="#f"/>
<use x="91.162109" xlink:href="#ad"/>
<use x="143.261719" xlink:href="#u"/>
<use x="182.470703" xlink:href="#j"/>
<use x="223.583984" xlink:href="#ak"/>
<use x="286.962891" xlink:href="#ae"/>
<use x="341.943359" xlink:href="#u"/>
<use x="381.152344" xlink:href="#i"/>
<use x="408.935547" xlink:href="#v"/>
<use x="470.117188" xlink:href="#f"/>
<use x="533.496094" xlink:href="#ad"/>
</g>
</g>
<g clip-path="url(#a)">
<g transform="translate(560.72 613.67) scale(.1 -.1)">
<use xlink:href="#u"/>
<use x="39.208984" xlink:href="#v"/>
</g>
</g>
<g clip-path="url(#a)">
<defs>
<path id="aw" d="m18.109 8.2031v-29h-9.0312v75.484h9.0312v-8.2969q2.8438 4.875 7.1562 7.2344 4.3281 2.375 10.328 2.375 9.9688 0 16.188-7.9062 6.2344-7.9062 6.2344-20.797t-6.2344-20.812q-6.2188-7.9062-16.188-7.9062-6 0-10.328 2.375-4.3125 2.375-7.1562 7.25zm30.578 19.094q0 9.9062-4.0781 15.547t-11.203 5.6406q-7.1406 0-11.219-5.6406t-4.0781-15.547 4.0781-15.547 11.219-5.6406q7.125 0 11.203 5.6406t4.0781 15.547z"/>
</defs>
<g transform="translate(616.26 613.67) scale(.1 -.1)">
<use xlink:href="#ad"/>
<use x="52.099609" xlink:href="#y"/>
<use x="115.478516" xlink:href="#i"/>
<use x="143.261719" xlink:href="#aw"/>
</g>
</g>
<g clip-path="url(#a)">
<g transform="translate(682.62 613.67) scale(.1 -.1)">
<use xlink:href="#u"/>
<use x="39.208984" xlink:href="#y"/>
<use x="102.587891" xlink:href="#e"/>
</g>
</g>
<g clip-path="url(#a)">
<g transform="translate(743.65 613.67) scale(.1 -.1)">
<use xlink:href="#aj"/>
<use x="81.787109" xlink:href="#y"/>
<use x="145.166016" xlink:href="#v"/>
<use x="206.347656" xlink:href="#h"/>
<use x="234.130859" xlink:href="#e"/>
</g>
</g>
<g clip-path="url(#a)">
<g transform="translate(802.48 613.67) scale(.1 -.1)">
<use xlink:href="#l"/>
<use x="97.412109" xlink:href="#e"/>
<use x="158.935547" xlink:href="#f"/>
<use x="222.314453" xlink:href="#k"/>
<use x="283.59375" xlink:href="#ar"/>
<use x="347.070312" xlink:href="#e"/>
<use x="408.59375" xlink:href="#j"/>
<use x="449.707031" xlink:href="#i"/>
<use x="477.490234" xlink:href="#e"/>
</g>
</g>
<g clip-path="url(#a)">
<g transform="translate(898.78 613.67) scale(.1 -.1)">
<use xlink:href="#u"/>
<use x="39.208984" xlink:href="#v"/>
</g>
</g>
<g clip-path="url(#a)">
<g transform="translate(964.93 613.67) scale(.1 -.1)">
<use xlink:href="#am"/>
<use x="50.269531" xlink:href="#j"/>
<use x="91.382812" xlink:href="#k"/>
<use x="152.662109" xlink:href="#f"/>
<use x="216.041016" xlink:href="#ae"/>
<use x="271.021484" xlink:href="#e"/>
</g>
</g>
<g clip-path="url(#a)">
<g transform="translate(1061.1 613.67) scale(.1 -.1)">
<use xlink:href="#d"/>
</g>
</g>
<g clip-path="url(#a)">
<g transform="translate(1144.9 613.67) scale(.1 -.1)">
<use xlink:href="#ap"/>
</g>
</g>
<g clip-path="url(#a)">
<defs>
<path id="m" d="m9.8125 72.906h9.8594v-72.906h-9.8594z"/>
<path id="x" d="m9.8125 72.906h14.703l18.594-49.609 18.703 49.609h14.703v-72.906h-9.625v64.016l-18.797-50h-9.9062l-18.797 50v-64.016h-9.5781z"/>
</defs>
<g transform="translate(1139.6 178.56) scale(.1 -.1)">
<use xlink:href="#m"/>
<use x="29.492188" xlink:href="#x"/>
<use x="115.771484" xlink:href="#p"/>
<use x="176.074219" xlink:href="#s"/>
<use x="231.787109" xlink:href="#m"/>
<use x="261.279297" xlink:href="#t"/>
<use x="331.103516" xlink:href="#m"/>
<use x="360.595703" xlink:href="#g"/>
</g>
</g>
<g clip-path="url(#a)">
<g transform="translate(1139.6 178.56) scale(.1 -.1)">
<use xlink:href="#m"/>
<use x="29.492188" xlink:href="#x"/>
<use x="115.771484" xlink:href="#p"/>
<use x="176.074219" xlink:href="#s"/>
<use x="231.787109" xlink:href="#m"/>
<use x="261.279297" xlink:href="#t"/>
<use x="331.103516" xlink:href="#m"/>
<use x="360.595703" xlink:href="#g"/>
</g>
</g>
<g clip-path="url(#a)">
<g transform="translate(1139.6 397.62) scale(.1 -.1)">
<use xlink:href="#m"/>
<use x="29.492188" xlink:href="#x"/>
<use x="115.771484" xlink:href="#p"/>
<use x="176.074219" xlink:href="#s"/>
<use x="231.787109" xlink:href="#m"/>
<use x="261.279297" xlink:href="#t"/>
<use x="331.103516" xlink:href="#m"/>
<use x="360.595703" xlink:href="#g"/>
</g>
</g>
<g clip-path="url(#a)">
<g transform="translate(1139.6 470.22) scale(.1 -.1)">
<use xlink:href="#m"/>
<use x="29.492188" xlink:href="#x"/>
<use x="115.771484" xlink:href="#p"/>
<use x="176.074219" xlink:href="#s"/>
<use x="231.787109" xlink:href="#m"/>
<use x="261.279297" xlink:href="#t"/>
<use x="331.103516" xlink:href="#m"/>
<use x="360.595703" xlink:href="#g"/>
</g>
</g>
<g clip-path="url(#a)">
<g transform="translate(179.55 470.22) scale(.1 -.1)">
<use xlink:href="#m"/>
<use x="29.492188" xlink:href="#x"/>
<use x="115.771484" xlink:href="#p"/>
<use x="176.074219" xlink:href="#s"/>
<use x="231.787109" xlink:href="#m"/>
<use x="261.279297" xlink:href="#t"/>
<use x="331.103516" xlink:href="#m"/>
<use x="360.595703" xlink:href="#g"/>
</g>
</g>
<g clip-path="url(#a)">
<defs>
<path id="c" d="m12.406 8.2969h16.109v55.625l-17.531-3.5156v8.9844l17.438 3.5156h9.8594v-64.609h16.109v-8.2969h-41.984z"/>
</defs>
<g transform="translate(207.29 31.85) scale(.1 -.1)">
<use xlink:href="#c"/>
<use x="63.623047" xlink:href="#d"/>
<use x="95.410156" xlink:href="#c"/>
</g>
</g>
<g clip-path="url(#a)">
<defs>
<path id="o" d="m19.188 8.2969h34.422v-8.2969h-46.281v8.2969q5.6094 5.8125 15.297 15.594 9.7031 9.7969 12.188 12.641 4.7344 5.3125 6.6094 9 1.8906 3.6875 1.8906 7.25 0 5.8125-4.0781 9.4688-4.0781 3.6719-10.625 3.6719-4.6406 0-9.7969-1.6094-5.1406-1.6094-11-4.8906v9.9688q5.9531 2.3906 11.125 3.6094 5.1875 1.2188 9.4844 1.2188 11.328 0 18.062-5.6719 6.7344-5.6562 6.7344-15.125 0-4.5-1.6875-8.5312-1.6719-4.0156-6.125-9.4844-1.2188-1.4219-7.7656-8.1875-6.5312-6.7656-18.453-18.922z"/>
</defs>
<g transform="translate(207.29 105.26) scale(.1 -.1)">
<use xlink:href="#c"/>
<use x="63.623047" xlink:href="#d"/>
<use x="95.410156" xlink:href="#o"/>
</g>
</g>
<g clip-path="url(#a)">
<defs>
<path id="ab" d="m31.781 34.625q-7.0312 0-11.062-3.7656-4.0156-3.7656-4.0156-10.344 0-6.5938 4.0156-10.359 4.0312-3.7656 11.062-3.7656t11.078 3.7812q4.0625 3.7969 4.0625 10.344 0 6.5781-4.0312 10.344-4.0156 3.7656-11.109 3.7656zm-9.8594 4.1875q-6.3438 1.5625-9.8906 5.9062-3.5312 4.3594-3.5312 10.609 0 8.7344 6.2188 13.812 6.2344 5.0781 17.062 5.0781 10.891 0 17.094-5.0781t6.2031-13.812q0-6.25-3.5469-10.609-3.5312-4.3438-9.8281-5.9062 7.125-1.6562 11.094-6.5 3.9844-4.8281 3.9844-11.797 0-10.609-6.4688-16.281-6.4688-5.6562-18.531-5.6562-12.047 0-18.531 5.6562-6.4688 5.6719-6.4688 16.281 0 6.9688 4 11.797 4.0156 4.8438 11.141 6.5zm-3.6094 15.578q0-5.6562 3.5312-8.8281 3.5469-3.1719 9.9375-3.1719 6.3594 0 9.9375 3.1719 3.5938 3.1719 3.5938 8.8281 0 5.6719-3.5938 8.8438-3.5781 3.1719-9.9375 3.1719-6.3906 0-9.9375-3.1719-3.5312-3.1719-3.5312-8.8438z"/>
</defs>
<g transform="translate(207.29 178.56) scale(.1 -.1)">
<use xlink:href="#c"/>
<use x="63.623047" xlink:href="#d"/>
<use x="95.410156" xlink:href="#ab"/>
</g>
</g>
<g clip-path="url(#a)">
<defs>
<path id="aa" d="m10.984 1.5156v8.9844q3.7188-1.7656 7.5156-2.6875 3.8125-0.92188 7.4844-0.92188 9.7656 0 14.906 6.5625 5.1562 6.5625 5.8906 19.953-2.8281-4.2031-7.1875-6.4531-4.3438-2.25-9.6094-2.25-10.938 0-17.312 6.6094-6.375 6.625-6.375 18.109 0 11.219 6.6406 18 6.6406 6.7969 17.672 6.7969 12.656 0 19.312-9.7031 6.6719-9.6875 6.6719-28.141 0-17.234-8.1875-27.516-8.1719-10.281-21.984-10.281-3.7188 0-7.5312 0.73438-3.7969 0.73438-7.9062 2.2031zm19.625 30.906q6.6406 0 10.516 4.5312 3.8906 4.5469 3.8906 12.469 0 7.8594-3.8906 12.422-3.875 4.5625-10.516 4.5625t-10.516-4.5625-3.875-12.422q0-7.9219 3.875-12.469 3.875-4.5312 10.516-4.5312z"/>
</defs>
<g transform="translate(81.127 470.22) scale(.1 -.1)">
<use xlink:href="#c"/>
<use x="63.623047" xlink:href="#d"/>
<use x="95.410156" xlink:href="#aa"/>
</g>
</g>
<g clip-path="url(#a)">
<defs>
<path id="ai" d="m31.781 66.406q-7.6094 0-11.453-7.5-3.8281-7.4844-3.8281-22.531 0-14.984 3.8281-22.484 3.8438-7.5 11.453-7.5 7.6719 0 11.5 7.5 3.8438 7.5 3.8438 22.484 0 15.047-3.8438 22.531-3.8281 7.5-11.5 7.5zm0 7.8125q12.266 0 18.734-9.7031 6.4688-9.6875 6.4688-28.141 0-18.406-6.4688-28.109-6.4688-9.6875-18.734-9.6875-12.25 0-18.719 9.6875-6.4688 9.7031-6.4688 28.109 0 18.453 6.4688 28.141 6.4688 9.7031 18.719 9.7031z"/>
</defs>
<g transform="translate(128.65 542.44) scale(.1 -.1)">
<use xlink:href="#c"/>
<use x="63.623047" xlink:href="#d"/>
<use x="95.410156" xlink:href="#c"/>
<use x="159.033203" xlink:href="#ai"/>
</g>
</g>
<g clip-path="url(#a)">
<g transform="translate(170.91 397.62) scale(.1 -.1)">
<use xlink:href="#c"/>
<use x="63.623047" xlink:href="#d"/>
<use x="95.410156" xlink:href="#c"/>
<use x="159.033203" xlink:href="#c"/>
</g>
</g>
<g clip-path="url(#a)">
<g transform="translate(260.5 542.44) scale(.1 -.1)">
<use xlink:href="#c"/>
<use x="63.623047" xlink:href="#d"/>
<use x="95.410156" xlink:href="#c"/>
<use x="159.033203" xlink:href="#o"/>
</g>
</g>
<g clip-path="url(#a)">
<defs>
<path id="q" d="m40.578 39.312q7.0781-1.5156 11.047-6.3125 3.9844-4.7812 3.9844-11.812 0-10.781-7.4219-16.703-7.4219-5.9062-21.094-5.9062-4.5781 0-9.4375 0.90625t-10.031 2.7188v9.5156q4.0938-2.3906 8.9688-3.6094 4.8906-1.2188 10.219-1.2188 9.2656 0 14.125 3.6562t4.8594 10.641q0 6.4531-4.5156 10.078-4.5156 3.6406-12.562 3.6406h-8.5v8.1094h8.8906q7.2656 0 11.125 2.9062t3.8594 8.375q0 5.6094-3.9844 8.6094-3.9688 3.0156-11.391 3.0156-4.0625 0-8.7031-0.89062-4.6406-0.875-10.203-2.7188v8.7812q5.625 1.5625 10.531 2.3438t9.25 0.78125q11.234 0 17.766-5.1094 6.5469-5.0938 6.5469-13.781 0-6.0625-3.4688-10.234t-9.8594-5.7812z"/>
</defs>
<g transform="translate(426.35 251.74) scale(.1 -.1)">
<use xlink:href="#c"/>
<use x="63.623047" xlink:href="#d"/>
<use x="95.410156" xlink:href="#c"/>
<use x="159.033203" xlink:href="#q"/>
</g>
</g>
<g clip-path="url(#a)">
<defs>
<path id="ac" d="m33.016 40.375q-6.6406 0-10.531-4.5469-3.875-4.5312-3.875-12.438 0-7.8594 3.875-12.438 3.8906-4.5625 10.531-4.5625t10.516 4.5625q3.875 4.5781 3.875 12.438 0 7.9062-3.875 12.438-3.875 4.5469-10.516 4.5469zm19.578 30.922v-8.9844q-3.7188 1.75-7.5 2.6719-3.7812 0.9375-7.5 0.9375-9.7656 0-14.922-6.5938-5.1406-6.5938-5.875-19.922 2.875 4.25 7.2188 6.5156 4.3594 2.2656 9.5781 2.2656 10.984 0 17.359-6.6719 6.375-6.6562 6.375-18.125 0-11.234-6.6406-18.031-6.6406-6.7812-17.672-6.7812-12.656 0-19.344 9.6875-6.6875 9.7031-6.6875 28.109 0 17.281 8.2031 27.562t22.016 10.281q3.7188 0 7.5-0.73438t7.8906-2.1875z"/>
</defs>
<g transform="translate(345.01 542.44) scale(.1 -.1)">
<use xlink:href="#c"/>
<use x="63.623047" xlink:href="#d"/>
<use x="95.410156" xlink:href="#c"/>
<use x="159.033203" xlink:href="#ac"/>
</g>
</g>
<g clip-path="url(#a)">
<defs>
<path id="ag" d="m8.2031 72.906h46.875v-4.2031l-26.469-68.703h-10.297l24.906 64.594h-35.016z"/>
</defs>
<g transform="translate(392.34 542.44) scale(.1 -.1)">
<use xlink:href="#c"/>
<use x="63.623047" xlink:href="#d"/>
<use x="95.410156" xlink:href="#c"/>
<use x="159.033203" xlink:href="#ag"/>
</g>
</g>
<g clip-path="url(#a)">
<g transform="translate(443.05 542.44) scale(.1 -.1)">
<use xlink:href="#c"/>
<use x="63.623047" xlink:href="#d"/>
<use x="95.410156" xlink:href="#c"/>
<use x="159.033203" xlink:href="#ab"/>
</g>
</g>
<g clip-path="url(#a)">
<g transform="translate(524.98 324.77) scale(.1 -.1)">
<use xlink:href="#c"/>
<use x="63.623047" xlink:href="#d"/>
<use x="95.410156" xlink:href="#c"/>
<use x="159.033203" xlink:href="#aa"/>
</g>
</g>
<g clip-path="url(#a)">
<g transform="translate(497.14 542.44) scale(.1 -.1)">
<use xlink:href="#c"/>
<use x="63.623047" xlink:href="#d"/>
<use x="95.410156" xlink:href="#o"/>
<use x="159.033203" xlink:href="#c"/>
</g>
</g>
<g clip-path="url(#a)">
<g transform="translate(732.8 397.62) scale(.1 -.1)">
<use xlink:href="#c"/>
<use x="63.623047" xlink:href="#d"/>
<use x="95.410156" xlink:href="#o"/>
<use x="159.033203" xlink:href="#o"/>
</g>
</g>
<g clip-path="url(#a)">
<defs>
<path id="r" d="m37.797 64.312-24.906-38.922h24.906zm-2.5938 8.5938h12.406v-47.516h10.406v-8.2031h-10.406v-17.188h-9.8125v17.188h-32.906v9.5156z"/>
</defs>
<g transform="translate(554.61 542.44) scale(.1 -.1)">
<use xlink:href="#c"/>
<use x="63.623047" xlink:href="#d"/>
<use x="95.410156" xlink:href="#o"/>
<use x="159.033203" xlink:href="#r"/>
</g>
</g>
<g clip-path="url(#a)">
<defs>
<path id="ah" d="m10.797 72.906h38.719v-8.3125h-29.688v-17.859q2.1406 0.73438 4.2812 1.0938 2.1562 0.35938 4.3125 0.35938 12.203 0 19.328-6.6875 7.1406-6.6875 7.1406-18.109 0-11.766-7.3281-18.297-7.3281-6.5156-20.656-6.5156-4.5938 0-9.3594 0.78125-4.75 0.78125-9.8281 2.3438v9.9219q4.3906-2.3906 9.0781-3.5625t9.9062-1.1719q8.4531 0 13.375 4.4375 4.9375 4.4375 4.9375 12.062 0 7.6094-4.9375 12.047-4.9219 4.4531-13.375 4.4531-3.9531 0-7.8906-0.875-3.9219-0.875-8.0156-2.7344z"/>
</defs>
<g transform="translate(615.46 542.44) scale(.1 -.1)">
<use xlink:href="#c"/>
<use x="63.623047" xlink:href="#d"/>
<use x="95.410156" xlink:href="#o"/>
<use x="159.033203" xlink:href="#ah"/>
</g>
</g>
<g clip-path="url(#a)">
<g transform="translate(748.43 470.22) scale(.1 -.1)">
<use xlink:href="#c"/>
<use x="63.623047" xlink:href="#d"/>
<use x="95.410156" xlink:href="#o"/>
<use x="159.033203" xlink:href="#ac"/>
</g>
</g>
<g clip-path="url(#a)">
<g transform="translate(1012.7 470.22) scale(.1 -.1)">
<use xlink:href="#c"/>
<use x="63.623047" xlink:href="#d"/>
<use x="95.410156" xlink:href="#o"/>
<use x="159.033203" xlink:href="#ag"/>
</g>
</g>
<g clip-path="url(#a)">
<g transform="translate(892.67 542.44) scale(.1 -.1)">
<use xlink:href="#c"/>
<use x="63.623047" xlink:href="#d"/>
<use x="95.410156" xlink:href="#o"/>
<use x="159.033203" xlink:href="#ab"/>
</g>
</g>
<g clip-path="url(#a)">
<g transform="translate(970.42 542.44) scale(.1 -.1)">
<use xlink:href="#c"/>
<use x="63.623047" xlink:href="#d"/>
<use x="95.410156" xlink:href="#o"/>
<use x="159.033203" xlink:href="#aa"/>
</g>
</g>
<g clip-path="url(#a)">
<g transform="translate(679.69 542.44) scale(.1 -.1)">
<use xlink:href="#c"/>
<use x="63.623047" xlink:href="#d"/>
<use x="95.410156" xlink:href="#q"/>
<use x="159.033203" xlink:href="#ai"/>
</g>
</g>
<g clip-path="url(#a)">
<g transform="translate(747.3 542.44) scale(.1 -.1)">
<use xlink:href="#c"/>
<use x="63.623047" xlink:href="#d"/>
<use x="95.410156" xlink:href="#q"/>
<use x="159.033203" xlink:href="#c"/>
</g>
</g>
<g clip-path="url(#a)">
<g transform="translate(818.3 542.44) scale(.1 -.1)">
<use xlink:href="#c"/>
<use x="63.623047" xlink:href="#d"/>
<use x="95.410156" xlink:href="#q"/>
<use x="159.033203" xlink:href="#o"/>
</g>
</g>
<g clip-path="url(#a)">
<g transform="translate(170.91 470.22) scale(.1 -.1)">
<use xlink:href="#c"/>
<use x="63.623047" xlink:href="#d"/>
<use x="95.410156" xlink:href="#q"/>
<use x="159.033203" xlink:href="#r"/>
</g>
</g>
<g clip-path="url(#a)">
<g transform="translate(155.7 542.44) scale(.1 -.1)">
<use xlink:href="#c"/>
<use x="63.623047" xlink:href="#d"/>
<use x="95.410156" xlink:href="#q"/>
<use x="159.033203" xlink:href="#ah"/>
</g>
</g>
<g clip-path="url(#a)">
<g transform="translate(186.12 542.44) scale(.1 -.1)">
<use xlink:href="#c"/>
<use x="63.623047" xlink:href="#d"/>
<use x="95.410156" xlink:href="#q"/>
<use x="159.033203" xlink:href="#ac"/>
</g>
</g>
<g clip-path="url(#a)">
<g transform="translate(54.282 542.44) scale(.1 -.1)">
<use xlink:href="#c"/>
<use x="63.623047" xlink:href="#d"/>
<use x="95.410156" xlink:href="#q"/>
<use x="159.033203" xlink:href="#ag"/>
</g>
</g>
<g clip-path="url(#a)">
<g transform="translate(67.804 542.44) scale(.1 -.1)">
<use xlink:href="#c"/>
<use x="63.623047" xlink:href="#d"/>
<use x="95.410156" xlink:href="#q"/>
<use x="159.033203" xlink:href="#ab"/>
</g>
</g>
<g clip-path="url(#a)">
<g transform="translate(84.707 542.44) scale(.1 -.1)">
<use xlink:href="#c"/>
<use x="63.623047" xlink:href="#d"/>
<use x="95.410156" xlink:href="#q"/>
<use x="159.033203" xlink:href="#aa"/>
</g>
</g>
<g clip-path="url(#a)">
<g transform="translate(104.99 542.44) scale(.1 -.1)">
<use xlink:href="#c"/>
<use x="63.623047" xlink:href="#d"/>
<use x="95.410156" xlink:href="#r"/>
<use x="159.033203" xlink:href="#ai"/>
</g>
</g>
<g clip-path="url(#a)">
<g transform="translate(343.42 178.56) scale(.1 -.1)">
<use xlink:href="#c"/>
<use x="63.623047" xlink:href="#d"/>
<use x="95.410156" xlink:href="#r"/>
<use x="159.033203" xlink:href="#c"/>
</g>
</g>
<g clip-path="url(#a)">
<g transform="translate(44.14 542.44) scale(.1 -.1)">
<use xlink:href="#c"/>
<use x="63.623047" xlink:href="#d"/>
<use x="95.410156" xlink:href="#r"/>
<use x="159.033203" xlink:href="#o"/>
</g>
</g>
<g clip-path="url(#a)">
<g transform="translate(223.31 542.44) scale(.1 -.1)">
<use xlink:href="#c"/>
<use x="63.623047" xlink:href="#d"/>
<use x="95.410156" xlink:href="#r"/>
<use x="159.033203" xlink:href="#q"/>
</g>
</g>
<g clip-path="url(#a)">
<g transform="translate(301.07 542.44) scale(.1 -.1)">
<use xlink:href="#c"/>
<use x="63.623047" xlink:href="#d"/>
<use x="95.410156" xlink:href="#r"/>
<use x="159.033203" xlink:href="#r"/>
</g>
</g>
<g clip-path="url(#a)">
<g transform="translate(1051.6 542.44) scale(.1 -.1)">
<use xlink:href="#c"/>
<use x="63.623047" xlink:href="#d"/>
<use x="95.410156" xlink:href="#r"/>
<use x="159.033203" xlink:href="#ah"/>
</g>
</g>
<g clip-path="url(#a)">
<g transform="translate(1136.1 542.44) scale(.1 -.1)">
<use xlink:href="#c"/>
<use x="63.623047" xlink:href="#d"/>
<use x="95.410156" xlink:href="#r"/>
<use x="159.033203" xlink:href="#ac"/>
</g>
</g>
<defs>
<clipPath id="a">
<rect width="1216" height="640"/>
</clipPath>
</defs>
</svg>
