<?xml version="1.0" encoding="UTF-8"?>
<!DOCTYPE svg  PUBLIC '-//W3C//DTD SVG 1.1//EN'  'http://www.w3.org/Graphics/SVG/1.1/DTD/svg11.dtd'>
<svg width="1621.3pt" height="853.33pt" version="1.1" viewBox="0 0 1621.3 853.33" xmlns="http://www.w3.org/2000/svg" xmlns:xlink="http://www.w3.org/1999/xlink">
<defs>
<style type="text/css">*{stroke-linecap:butt;stroke-linejoin:round;}</style>
</defs>
<path d="m0 853.33h1621.3v-853.33h-1621.3z" fill="#fff"/>
<g fill="none" stroke="#000">
<path d="m1168.2 39.563v118.09" clip-path="url(#a)"/>
<path d="m1168.2 157.66 379.24 656.11" clip-path="url(#a)"/>
<path d="m1168.2 157.66 335.9 656.11" clip-path="url(#a)"/>
<path d="m1168.2 157.66-715.13 114.92" clip-path="url(#a)"/>
<path d="m453.1 272.58-379.24 435.17" clip-path="url(#a)"/>
<path d="m453.1 272.58 32.506 329.14" clip-path="url(#a)"/>
<path d="m453.1 272.58-162.53 435.17" clip-path="url(#a)"/>
<path d="m453.1 272.58 35.215 221.64" clip-path="url(#a)"/>
<path d="m453.1 272.58 409.03 112.07" clip-path="url(#a)"/>
<path d="m453.1 272.58-205.87 435.17" clip-path="url(#a)"/>
<path d="m453.1 272.58 270.88 435.17" clip-path="url(#a)"/>
<path d="m73.864 707.74v106.03" clip-path="url(#a)"/>
<path d="m485.61 601.72 975.18 212.05" clip-path="url(#a)"/>
<path d="m485.61 601.72-368.4 106.03" clip-path="url(#a)"/>
<path d="m485.61 601.72-325.06 106.03" clip-path="url(#a)"/>
<path d="m485.61 601.72-281.72 106.03" clip-path="url(#a)"/>
<path d="m290.57 707.74v106.03" clip-path="url(#a)"/>
<path d="m488.32 494.22-154.4 213.53" clip-path="url(#a)"/>
<path d="m488.32 494.22-111.06 213.53" clip-path="url(#a)"/>
<path d="m488.32 494.22-67.721 213.53" clip-path="url(#a)"/>
<path d="m488.32 494.22-24.38 213.53" clip-path="url(#a)"/>
<path d="m488.32 494.22 18.962 213.53" clip-path="url(#a)"/>
<path d="m488.32 494.22 62.303 213.53" clip-path="url(#a)"/>
<path d="m488.32 494.22 105.64 213.53" clip-path="url(#a)"/>
<path d="m488.32 494.22 170.66 107.5" clip-path="url(#a)"/>
<path d="m862.13 384.65-94.809 323.1" clip-path="url(#a)"/>
<path d="m862.13 384.65-51.468 323.1" clip-path="url(#a)"/>
<path d="m862.13 384.65 146.28 109.57" clip-path="url(#a)"/>
<path d="m767.33 707.74v106.03" clip-path="url(#a)"/>
<path d="m810.67 707.74v106.03" clip-path="url(#a)"/>
<path d="m1008.4 494.22-132.73 107.5" clip-path="url(#a)"/>
<path d="m1008.4 494.22-67.721 213.53" clip-path="url(#a)"/>
<path d="m1008.4 494.22-24.38 213.53" clip-path="url(#a)"/>
<path d="m1008.4 494.22 224.83 107.5" clip-path="url(#a)"/>
<path d="m875.68 601.72-21.671 106.03" clip-path="url(#a)"/>
<path d="m875.68 601.72 21.671 106.03" clip-path="url(#a)"/>
<path d="m940.69 707.74v106.03" clip-path="url(#a)"/>
<path d="m984.03 707.74v106.03" clip-path="url(#a)"/>
<path d="m1233.2 601.72-184.2 106.03" clip-path="url(#a)"/>
<path d="m1233.2 601.72-119.19 106.03" clip-path="url(#a)"/>
<path d="m1233.2 601.72-75.847 106.03" clip-path="url(#a)"/>
<path d="m1233.2 601.72-32.506 106.03" clip-path="url(#a)"/>
<path d="m1233.2 601.72 10.835 106.03" clip-path="url(#a)"/>
<path d="m1233.2 601.72 75.847 106.03" clip-path="url(#a)"/>
<path d="m1233.2 601.72 140.86 106.03" clip-path="url(#a)"/>
<path d="m1233.2 601.72 184.2 106.03" clip-path="url(#a)"/>
<path d="m1049 707.74-21.671 106.03" clip-path="url(#a)"/>
<path d="m1049 707.74 21.671 106.03" clip-path="url(#a)"/>
<path d="m1114.1 707.74v106.03" clip-path="url(#a)"/>
<path d="m1157.4 707.74v106.03" clip-path="url(#a)"/>
<path d="m1200.7 707.74v106.03" clip-path="url(#a)"/>
<path d="m1244.1 707.74v106.03" clip-path="url(#a)"/>
<path d="m1309.1 707.74-21.671 106.03" clip-path="url(#a)"/>
<path d="m1309.1 707.74 21.671 106.03" clip-path="url(#a)"/>
<path d="m854.01 707.74v106.03" clip-path="url(#a)"/>
<path d="m897.35 707.74v106.03" clip-path="url(#a)"/>
<path d="m333.91 707.74v106.03" clip-path="url(#a)"/>
<path d="m377.25 707.74v106.03" clip-path="url(#a)"/>
<path d="m420.59 707.74v106.03" clip-path="url(#a)"/>
<path d="m463.94 707.74v106.03" clip-path="url(#a)"/>
<path d="m507.28 707.74v106.03" clip-path="url(#a)"/>
<path d="m550.62 707.74v106.03" clip-path="url(#a)"/>
<path d="m593.96 707.74v106.03" clip-path="url(#a)"/>
<path d="m658.97 601.72-21.671 106.03" clip-path="url(#a)"/>
<path d="m658.97 601.72 21.671 106.03" clip-path="url(#a)"/>
<path d="m637.3 707.74v106.03" clip-path="url(#a)"/>
<path d="m680.64 707.74v106.03" clip-path="url(#a)"/>
<path d="m117.21 707.74v106.03" clip-path="url(#a)"/>
<path d="m160.55 707.74v106.03" clip-path="url(#a)"/>
<path d="m203.89 707.74v106.03" clip-path="url(#a)"/>
<path d="m421.5 384.65 64.109 217.07" clip-path="url(#a)"/>
<path d="m421.5 384.65-130.93 323.1" clip-path="url(#a)"/>
<path d="m421.5 384.65 66.818 109.57" clip-path="url(#a)"/>
<path d="m279.74 494.22-205.87 213.53" clip-path="url(#a)"/>
<path d="m279.74 494.22 205.87 107.5" clip-path="url(#a)"/>
<path d="m247.23 707.74v106.03" clip-path="url(#a)"/>
<path d="m723.98 707.74v106.03" clip-path="url(#a)"/>
<path d="m1374.1 707.74v106.03" clip-path="url(#a)"/>
<path d="m1417.4 707.74v106.03" clip-path="url(#a)"/>
</g>
<path d="m1162 95.602v6.0162q0 2.4 2.4 2.4h7.7425q2.4 0 2.4-2.4v-6.0162q0-2.4-2.4-2.4h-7.7425q-2.4 0-2.4 2.4z" clip-path="url(#a)" fill="#fff" stroke="#fff"/>
<g clip-path="url(#a)">
<defs>
<path id="ae" d="m9.8125 72.906h9.8594v-29.891h35.844v29.891h9.8594v-72.906h-9.8594v34.719h-35.844v-34.719h-9.8594z"/>
</defs>
<g transform="translate(1166 95.602) rotate(90) scale(.08 -.08)">
<use xlink:href="#ae"/>
</g>
</g>
<path d="m1351.1 486.48 2.7386 4.738q1.201 2.0779 3.2789 0.87685l6.7033-3.8745q2.0779-1.201 0.87685-3.2789l-2.7386-4.738q-1.201-2.0779-3.2789-0.87685l-6.7033 3.8745q-2.0779 1.201-0.87685 3.2789z" clip-path="url(#a)" fill="#fff" stroke="#fff"/>
<g clip-path="url(#a)">
<defs>
<path id="n" d="m34.188 63.188-13.391-36.281h26.812zm-5.5781 9.7188h11.188l27.781-72.906h-10.25l-6.6406 18.703h-32.859l-6.6406-18.703h-10.406z"/>
</defs>
<g transform="translate(1354.6 484.45) rotate(59.972) scale(.08 -.08)">
<use xlink:href="#n"/>
</g>
</g>
<path d="m1329.5 486.42 2.1982 4.2938q1.0937 2.1363 3.23 1.0426l6.8919-3.5283q2.1363-1.0937 1.0426-3.23l-2.1982-4.2938q-1.0937-2.1363-3.23-1.0426l-6.8919 3.5283q-2.1363 1.0937-1.0426 3.23z" clip-path="url(#a)" fill="#fff" stroke="#fff"/>
<g clip-path="url(#a)">
<defs>
<path id="u" d="m19.672 64.797v-27.391h12.406q6.8906 0 10.641 3.5625 3.7656 3.5625 3.7656 10.156 0 6.5469-3.7656 10.109-3.75 3.5625-10.641 3.5625zm-9.8594 8.1094h22.266q12.266 0 18.531-5.5469 6.2812-5.5469 6.2812-16.234 0-10.797-6.2812-16.312-6.2656-5.5156-18.531-5.5156h-12.406v-29.297h-9.8594z"/>
</defs>
<g transform="translate(1333.1 484.57) rotate(62.89) scale(.08 -.08)">
<use xlink:href="#u"/>
</g>
</g>
<path d="m808.96 221.74 5.4032-0.86828q2.3696-0.38079 1.9888-2.7504l-1.2284-7.6444q-0.38079-2.3696-2.7504-1.9888l-5.4032 0.86828q-2.3696 0.38079-1.9888 2.7504l1.2284 7.6444q0.38079 2.3696 2.7504 1.9888z" clip-path="url(#a)" fill="#fff" stroke="#fff"/>
<g clip-path="url(#a)">
<g transform="translate(808.32 217.73) rotate(-9.1293) scale(.08 -.08)">
<use xlink:href="#n"/>
</g>
</g>
<path d="m266.75 495.96 2.9286-3.3605q1.5768-1.8093-0.23255-3.3861l-5.837-5.0868q-1.8093-1.5768-3.3861 0.23254l-2.9286 3.3605q-1.5768 1.8093 0.23255 3.3861l5.837 5.0868q1.8093 1.5768 3.3861-0.23255z" clip-path="url(#a)" fill="#fff" stroke="#fff"/>
<g clip-path="url(#a)">
<defs>
<path id="r" d="m9.8125 72.906h9.8594v-64.609h35.5v-8.2969h-45.359z"/>
</defs>
<g transform="translate(263.68 493.29) rotate(-48.929) scale(.08 -.08)">
<use xlink:href="#r"/>
</g>
</g>
<path d="m462.82 434.77 0.59129 5.9871q0.23588 2.3884 2.6243 2.1525l7.705-0.76095q2.3884-0.23588 2.1525-2.6243l-0.59129-5.9871q-0.23588-2.3884-2.6243-2.1525l-7.705 0.76095q-2.3884 0.23588-2.1525 2.6243z" clip-path="url(#a)" fill="#fff" stroke="#fff"/>
<g clip-path="url(#a)">
<g transform="translate(466.86 434.37) rotate(84.36) scale(.08 -.08)">
<use xlink:href="#ae"/>
</g>
</g>
<path d="m376.93 494.44 1.5596-4.1758q0.83972-2.2483-1.4086-3.088l-7.2531-2.709q-2.2483-0.83972-3.088 1.4086l-1.5596 4.1758q-0.83972 2.2483 1.4086 3.088l7.2531 2.709q2.2483 0.83972 3.088-1.4086z" clip-path="url(#a)" fill="#fff" stroke="#fff"/>
<g clip-path="url(#a)">
<g transform="translate(373.12 493.02) rotate(-69.52) scale(.08 -.08)">
<use xlink:href="#r"/>
</g>
</g>
<path d="m464.04 381.41 0.94404 5.9417q0.3766 2.3703 2.7469 1.9937l7.6466-1.2149q2.3703-0.3766 1.9937-2.7469l-0.94404-5.9417q-0.3766-2.3703-2.7469-1.9937l-7.6466 1.2149q-2.3703 0.3766-1.9937 2.7469z" clip-path="url(#a)" fill="#fff" stroke="#fff"/>
<g clip-path="url(#a)">
<g transform="translate(468.06 380.77) rotate(80.972) scale(.08 -.08)">
<use xlink:href="#ae"/>
</g>
</g>
<path d="m653.06 333.87 5.8024 1.5898q2.3147 0.63418 2.9489-1.6805l2.0459-7.4673q0.63418-2.3147-1.6805-2.9489l-5.8024-1.5898q-2.3147-0.63418-2.9489 1.6805l-2.0459 7.4673q-0.63418 2.3147 1.6805 2.9489z" clip-path="url(#a)" fill="#fff" stroke="#fff"/>
<g clip-path="url(#a)">
<g transform="translate(654.13 329.95) rotate(15.322) scale(.08 -.08)">
<use xlink:href="#ae"/>
</g>
</g>
<path d="m354.58 495.49 2.5039-5.2926q1.0263-2.1695-1.1431-3.1958l-6.9988-3.311q-2.1695-1.0263-3.1958 1.1431l-2.5039 5.2926q-1.0263 2.1695 1.1431 3.1958l6.9988 3.311q2.1695 1.0263 3.1958-1.1431z" clip-path="url(#a)" fill="#fff" stroke="#fff"/>
<g clip-path="url(#a)">
<defs>
<path id="ad" d="m8.6875 72.906h9.9219v-44.297q0-11.719 4.2344-16.875 4.25-5.1406 13.781-5.1406 9.4688 0 13.719 5.1406 4.25 5.1562 4.25 16.875v44.297h9.9062v-45.516q0-14.25-7.0625-21.531-7.0469-7.2812-20.812-7.2812-13.828 0-20.891 7.2812-7.0469 7.2812-7.0469 21.531z"/>
</defs>
<g transform="translate(350.91 493.75) rotate(-64.682) scale(.08 -.08)">
<use xlink:href="#ad"/>
</g>
</g>
<path d="m581.67 490.99 3.0941 4.9706q1.2683 2.0375 3.3058 0.76919l6.5731-4.0916q2.0375-1.2683 0.76919-3.3058l-3.0941-4.9706q-1.2683-2.0375-3.3058-0.76919l-6.5731 4.0916q-2.0375 1.2683-0.76919 3.3058z" clip-path="url(#a)" fill="#fff" stroke="#fff"/>
<g clip-path="url(#a)">
<g transform="translate(585.12 488.84) rotate(58.098) scale(.08 -.08)">
<use xlink:href="#ad"/>
</g>
</g>
<path d="m67.592 743.12v35.285q0 2.4 2.4 2.4h7.7425q2.4 0 2.4-2.4v-35.285q0-2.4-2.4-2.4h-7.7425q-2.4 0-2.4 2.4z" clip-path="url(#a)" fill="#fff" stroke="#fff"/>
<g clip-path="url(#a)">
<defs>
<path id="i" d="m-0.29688 72.906h61.672v-8.3125h-25.875v-64.594h-9.9062v64.594h-25.891z"/>
<path id="e" d="m56.203 29.594v-4.3906h-41.312q0.59375-9.2812 5.5938-14.141t13.938-4.8594q5.1719 0 10.031 1.2656t9.6562 3.8125v-8.5q-4.8438-2.0469-9.9219-3.125t-10.297-1.0781q-13.094 0-20.734 7.6094-7.6406 7.625-7.6406 20.625 0 13.422 7.25 21.297 7.25 7.8906 19.562 7.8906 11.031 0 17.453-7.1094 6.4219-7.0938 6.4219-19.297zm-8.9844 2.6406q-0.09375 7.3594-4.125 11.75-4.0312 4.4062-10.672 4.4062-7.5156 0-12.031-4.25t-5.2031-11.969z"/>
<path id="j" d="m41.109 46.297q-1.5156 0.875-3.2969 1.2812-1.7812 0.42188-3.9219 0.42188-7.625 0-11.703-4.9531t-4.0781-14.234v-28.812h-9.0312v54.688h9.0312v-8.5q2.8438 4.9844 7.375 7.3906 4.5469 2.4219 11.047 2.4219 0.92188 0 2.0469-0.125 1.125-0.10938 2.4844-0.35938z"/>
<path id="k" d="m52 44.188q3.375 6.0625 8.0625 8.9375t11.031 2.875q8.5469 0 13.188-5.9844 4.6406-5.9688 4.6406-17v-33.016h-9.0312v32.719q0 7.8594-2.7969 11.656-2.7812 3.8125-8.4844 3.8125-6.9844 0-11.047-4.6406-4.0469-4.625-4.0469-12.641v-30.906h-9.0312v32.719q0 7.9062-2.7812 11.688t-8.5938 3.7812q-6.8906 0-10.953-4.6562-4.0469-4.6562-4.0469-12.625v-30.906h-9.0312v54.688h9.0312v-8.5q3.0781 5.0312 7.375 7.4219t10.203 2.3906q5.9688 0 10.141-3.0312 4.1719-3.0156 6.1719-8.7812z"/>
<path id="h" d="m9.4219 54.688h8.9844v-54.688h-8.9844zm0 21.297h8.9844v-11.391h-8.9844z"/>
<path id="g" d="m54.891 33.016v-33.016h-8.9844v32.719q0 7.7656-3.0312 11.609-3.0312 3.8594-9.0781 3.8594-7.2812 0-11.484-4.6406-4.2031-4.625-4.2031-12.641v-30.906h-9.0312v54.688h9.0312v-8.5q3.2344 4.9375 7.5938 7.375 4.375 2.4375 10.094 2.4375 9.4219 0 14.25-5.8281 4.8438-5.8281 4.8438-17.156z"/>
<path id="f" d="m34.281 27.484q-10.891 0-15.094-2.4844t-4.2031-8.5q0-4.7812 3.1562-7.5938 3.1562-2.7969 8.5625-2.7969 7.4844 0 12 5.2969t4.5156 14.078v2zm17.922 3.7188v-31.203h-8.9844v8.2969q-3.0781-4.9688-7.6719-7.3438t-11.234-2.375q-8.3906 0-13.359 4.7188-4.9531 4.7188-4.9531 12.625 0 9.2188 6.1719 13.906 6.1875 4.6875 18.438 4.6875h12.609v0.89062q0 6.2031-4.0781 9.5938t-11.453 3.3906q-4.6875 0-9.1406-1.125-4.4375-1.125-8.5312-3.375v8.3125q4.9219 1.9062 9.5625 2.8438 4.6406 0.95312 9.0312 0.95312 11.875 0 17.734-6.1562 5.8594-6.1406 5.8594-18.641z"/>
<path id="l" d="m9.4219 75.984h8.9844v-75.984h-8.9844z"/>
</defs>
<g transform="translate(71.656 743.12) rotate(90) scale(.08 -.08)">
<use xlink:href="#i"/>
<use x="60.818359" xlink:href="#e"/>
<use x="122.341797" xlink:href="#j"/>
<use x="163.439453" xlink:href="#k"/>
<use x="260.851562" xlink:href="#h"/>
<use x="288.634766" xlink:href="#g"/>
<use x="352.013672" xlink:href="#f"/>
<use x="413.292969" xlink:href="#l"/>
</g>
</g>
<path d="m969.19 713.29 5.3475 1.1628q2.3452 0.50996 2.8552-1.8352l1.6452-7.5657q0.50996-2.3452-1.8352-2.8552l-5.3475-1.1628q-2.3452-0.50996-2.8552 1.8352l-1.6452 7.5657q-0.50996 2.3452 1.8352 2.8552z" clip-path="url(#a)" fill="#fff" stroke="#fff"/>
<g clip-path="url(#a)">
<g transform="translate(970.05 709.32) rotate(12.268) scale(.08 -.08)">
<use xlink:href="#n"/>
</g>
</g>
<path d="m300.82 661.42 4.6356-1.3341q2.3064-0.66378 1.6426-2.9702l-2.1414-7.4405q-0.66378-2.3064-2.9702-1.6426l-4.6356 1.3341q-2.3064 0.66378-1.6426 2.9702l2.1414 7.4405q0.66378 2.3064 2.9702 1.6426z" clip-path="url(#a)" fill="#fff" stroke="#fff"/>
<g clip-path="url(#a)">
<g transform="translate(299.7 657.52) rotate(-16.056) scale(.08 -.08)">
<use xlink:href="#u"/>
</g>
</g>
<path d="m322.42 661.54 5.2027-1.697q2.2817-0.74423 1.5375-3.0259l-2.4009-7.3608q-0.74423-2.2817-3.0259-1.5375l-5.2027 1.697q-2.2817 0.74423-1.5375 3.0259l2.4009 7.3608q0.74423 2.2817 3.0259 1.5375z" clip-path="url(#a)" fill="#fff" stroke="#fff"/>
<g clip-path="url(#a)">
<g transform="translate(321.16 657.68) rotate(-18.065) scale(.08 -.08)">
<use xlink:href="#n"/>
</g>
</g>
<path d="m344.07 661.69 5.7652-2.1698q2.2462-0.84536 1.4008-3.0916l-2.7272-7.2463q-0.84536-2.2462-3.0916-1.4008l-5.7652 2.1698q-2.2462 0.84536-1.4008 3.0916l2.7272 7.2463q0.84536 2.2462 3.0916 1.4008z" clip-path="url(#a)" fill="#fff" stroke="#fff"/>
<g clip-path="url(#a)">
<defs>
<path id="af" d="m19.672 64.797v-56.688h11.922q15.094 0 22.094 6.8281 7 6.8438 7 21.594 0 14.641-7 21.453t-22.094 6.8125zm-9.8594 8.1094h20.266q21.188 0 31.094-8.8125 9.9219-8.8125 9.9219-27.562 0-18.859-9.9688-27.703-9.9531-8.8281-31.047-8.8281h-20.266z"/>
</defs>
<g transform="translate(342.64 657.88) rotate(-20.624) scale(.08 -.08)">
<use xlink:href="#af"/>
</g>
</g>
<path d="m284.3 743.12v35.285q0 2.4 2.4 2.4h7.7425q2.4 0 2.4-2.4v-35.285q0-2.4-2.4-2.4h-7.7425q-2.4 0-2.4 2.4z" clip-path="url(#a)" fill="#fff" stroke="#fff"/>
<g clip-path="url(#a)">
<g transform="translate(288.36 743.12) rotate(90) scale(.08 -.08)">
<use xlink:href="#i"/>
<use x="60.818359" xlink:href="#e"/>
<use x="122.341797" xlink:href="#j"/>
<use x="163.439453" xlink:href="#k"/>
<use x="260.851562" xlink:href="#h"/>
<use x="288.634766" xlink:href="#g"/>
<use x="352.013672" xlink:href="#f"/>
<use x="413.292969" xlink:href="#l"/>
</g>
</g>
<path d="m414.59 606.87 3.2067-4.4346q1.4063-1.9448-0.5385-3.3511l-6.274-4.5368q-1.9448-1.4063-3.3511 0.5385l-3.2067 4.4346q-1.4063 1.9448 0.5385 3.3511l6.274 4.5368q1.9448 1.4063 3.3511-0.5385z" clip-path="url(#a)" fill="#fff" stroke="#fff"/>
<g clip-path="url(#a)">
<g transform="translate(411.3 604.49) rotate(-54.129) scale(.08 -.08)">
<use xlink:href="#n"/>
</g>
</g>
<path d="m437.29 605.92 2.1232-4.0821q1.1075-2.1292-1.0217-3.2367l-6.8689-3.5727q-2.1292-1.1075-3.2367 1.0217l-2.1232 4.0821q-1.1075 2.1292 1.0217 3.2367l6.8689 3.5727q2.1292 1.1075 3.2367-1.0217z" clip-path="url(#a)" fill="#fff" stroke="#fff"/>
<g clip-path="url(#a)">
<defs>
<path id="ak" d="m9.8125 72.906h41.891v-8.3125h-32.031v-21.484h28.906v-8.2969h-28.906v-34.812h-9.8594z"/>
</defs>
<g transform="translate(433.68 604.04) rotate(-62.52) scale(.08 -.08)">
<use xlink:href="#ak"/>
</g>
</g>
<path d="m459.5 605.81 1.8622-5.8718q0.72555-2.2877-1.5622-3.0133l-7.3802-2.3407q-2.2877-0.72555-3.0133 1.5622l-1.8622 5.8718q-0.72555 2.2877 1.5622 3.0133l7.3802 2.3407q2.2877 0.72555 3.0133-1.5622z" clip-path="url(#a)" fill="#fff" stroke="#fff"/>
<g clip-path="url(#a)">
<g transform="translate(455.63 604.58) rotate(-72.403) scale(.08 -.08)">
<use xlink:href="#af"/>
</g>
</g>
<path d="m482.01 604.75 0.69878-6.1202q0.27225-2.3845-2.1123-2.6568l-7.6925-0.87829q-2.3845-0.27225-2.6568 2.1123l-0.69878 6.1202q-0.27225 2.3845 2.1123 2.6568l7.6925 0.87829q2.3845 0.27225 2.6568-2.1123z" clip-path="url(#a)" fill="#fff" stroke="#fff"/>
<g clip-path="url(#a)">
<g transform="translate(477.97 604.29) rotate(-83.486) scale(.08 -.08)">
<use xlink:href="#af"/>
</g>
</g>
<path d="m491.35 599.24 0.407 4.5832q0.21229 2.3906 2.6029 2.1783l7.7122-0.68486q2.3906-0.21229 2.1783-2.6029l-0.407-4.5832q-0.21229-2.3906-2.6029-2.1783l-7.7122 0.68486q-2.3906 0.21229-2.1783 2.6029z" clip-path="url(#a)" fill="#fff" stroke="#fff"/>
<g clip-path="url(#a)">
<g transform="translate(495.39 598.88) rotate(84.925) scale(.08 -.08)">
<use xlink:href="#ak"/>
</g>
</g>
<path d="m512.77 600.42 1.3511 4.6307q0.67224 2.3039 2.9762 1.6317l7.4326-2.1687q2.3039-0.67224 1.6317-2.9762l-1.3511-4.6307q-0.67224-2.3039-2.9762-1.6317l-7.4326 2.1687q-2.3039 0.67224-1.6317 2.9762z" clip-path="url(#a)" fill="#fff" stroke="#fff"/>
<g clip-path="url(#a)">
<g transform="translate(516.67 599.28) rotate(73.734) scale(.08 -.08)">
<use xlink:href="#u"/>
</g>
</g>
<path d="m534.3 601.31 2.4268 4.905q1.0643 2.1511 3.2154 1.0868l6.9396-3.4334q2.1511-1.0643 1.0868-3.2154l-2.4268-4.905q-1.0643-2.1511-3.2154-1.0868l-6.9396 3.4334q-2.1511 1.0643-1.0868 3.2154z" clip-path="url(#a)" fill="#fff" stroke="#fff"/>
<g clip-path="url(#a)">
<g transform="translate(537.95 599.51) rotate(63.676) scale(.08 -.08)">
<use xlink:href="#n"/>
</g>
</g>
<path d="m567.99 551.82 4.6304 2.9168q2.0307 1.2792 3.3099-0.7515l4.1267-6.5511q1.2792-2.0307-0.7515-3.3099l-4.6304-2.9168q-2.0307-1.2792-3.3099 0.7515l-4.1267 6.5511q-1.2792 2.0307 0.7515 3.3099z" clip-path="url(#a)" fill="#fff" stroke="#fff"/>
<g clip-path="url(#a)">
<g transform="translate(570.15 548.38) rotate(32.208) scale(.08 -.08)">
<use xlink:href="#n"/>
</g>
</g>
<path d="m819.98 550.59 1.5409-5.2511q0.67576-2.3029-1.6271-2.9787l-7.4293-2.18q-2.3029-0.67576-2.9787 1.6271l-1.5409 5.2511q-0.67576 2.3029 1.6271 2.9787l7.4293 2.18q2.3029 0.67576 2.9787-1.6271z" clip-path="url(#a)" fill="#fff" stroke="#fff"/>
<g clip-path="url(#a)">
<g transform="translate(816.08 549.44) rotate(-73.646) scale(.08 -.08)">
<use xlink:href="#n"/>
</g>
</g>
<path d="m842.19 549.69 0.79894-5.0155q0.37755-2.3701-1.9926-2.7477l-7.6461-1.218q-2.3701-0.37755-2.7477 1.9926l-0.79894 5.0155q-0.37755 2.3701 1.9926 2.7477l7.6461 1.218q2.3701 0.37755 2.7477-1.9926z" clip-path="url(#a)" fill="#fff" stroke="#fff"/>
<g clip-path="url(#a)">
<defs>
<path id="ax" d="m53.516 70.516v-9.625q-5.6094 2.6875-10.594 4-4.9844 1.3281-9.625 1.3281-8.0469 0-12.422-3.125t-4.375-8.8906q0-4.8438 2.9062-7.3125 2.9062-2.4531 11.016-3.9688l5.9531-1.2188q11.031-2.1094 16.281-7.4062t5.25-14.172q0-10.609-7.1094-16.078-7.0938-5.4688-20.812-5.4688-5.1719 0-11.016 1.1719-5.8281 1.1719-12.078 3.4688v10.156q6-3.3594 11.766-5.0781 5.7656-1.7031 11.328-1.7031 8.4375 0 13.031 3.3125 4.5938 3.3281 4.5938 9.4844 0 5.3594-3.2969 8.3906t-10.812 4.5469l-6.0156 1.1719q-11.031 2.1875-15.969 6.875-4.9219 4.6875-4.9219 13.047 0 9.6719 6.8125 15.234t18.766 5.5625q5.1406 0 10.453-0.9375 5.3281-0.92188 10.891-2.7656z"/>
</defs>
<g transform="translate(838.18 549.05) rotate(-80.949) scale(.08 -.08)">
<use xlink:href="#ax"/>
</g>
</g>
<path d="m929.32 442.81 4.38 3.2809q1.9209 1.4389 3.3597-0.48201l4.6418-6.1968q1.4389-1.9209-0.48201-3.3597l-4.38-3.2809q-1.9209-1.4389-3.3597 0.48201l-4.6418 6.1968q-1.4389 1.9209 0.48201 3.3597z" clip-path="url(#a)" fill="#fff" stroke="#fff"/>
<g clip-path="url(#a)">
<g transform="translate(931.76 439.56) rotate(36.836) scale(.08 -.08)">
<use xlink:href="#n"/>
</g>
</g>
<path d="m761.05 743.12v35.285q0 2.4 2.4 2.4h7.7425q2.4 0 2.4-2.4v-35.285q0-2.4-2.4-2.4h-7.7425q-2.4 0-2.4 2.4z" clip-path="url(#a)" fill="#fff" stroke="#fff"/>
<g clip-path="url(#a)">
<g transform="translate(765.12 743.12) rotate(90) scale(.08 -.08)">
<use xlink:href="#i"/>
<use x="60.818359" xlink:href="#e"/>
<use x="122.341797" xlink:href="#j"/>
<use x="163.439453" xlink:href="#k"/>
<use x="260.851562" xlink:href="#h"/>
<use x="288.634766" xlink:href="#g"/>
<use x="352.013672" xlink:href="#f"/>
<use x="413.292969" xlink:href="#l"/>
</g>
</g>
<path d="m804.4 743.12v35.285q0 2.4 2.4 2.4h7.7425q2.4 0 2.4-2.4v-35.285q0-2.4-2.4-2.4h-7.7425q-2.4 0-2.4 2.4z" clip-path="url(#a)" fill="#fff" stroke="#fff"/>
<g clip-path="url(#a)">
<g transform="translate(808.46 743.12) rotate(90) scale(.08 -.08)">
<use xlink:href="#i"/>
<use x="60.818359" xlink:href="#e"/>
<use x="122.341797" xlink:href="#j"/>
<use x="163.439453" xlink:href="#k"/>
<use x="260.851562" xlink:href="#h"/>
<use x="288.634766" xlink:href="#g"/>
<use x="352.013672" xlink:href="#f"/>
<use x="413.292969" xlink:href="#l"/>
</g>
</g>
<path d="m944.03 554.43 3.9282-3.1815q1.865-1.5105 0.35453-3.3755l-4.873-6.0167q-1.5105-1.865-3.3755-0.35453l-3.9282 3.1815q-1.865 1.5105-0.35453 3.3755l4.873 6.0167q1.5105 1.865 3.3755 0.35453z" clip-path="url(#a)" fill="#fff" stroke="#fff"/>
<g clip-path="url(#a)">
<defs>
<path id="al" d="m9.8125 72.906h46.094v-8.3125h-36.234v-21.578h34.719v-8.2969h-34.719v-26.422h37.109v-8.2969h-46.969z"/>
</defs>
<g transform="translate(941.47 551.27) rotate(-39.004) scale(.08 -.08)">
<use xlink:href="#al"/>
</g>
</g>
<path d="m979.76 605.29 1.5282-4.8185q0.72555-2.2877-1.5622-3.0133l-7.3802-2.3407q-2.2877-0.72555-3.0133 1.5622l-1.5282 4.8185q-0.72555 2.2877 1.5622 3.0133l7.3802 2.3407q2.2877 0.72555 3.0133-1.5622z" clip-path="url(#a)" fill="#fff" stroke="#fff"/>
<g clip-path="url(#a)">
<g transform="translate(975.89 604.06) rotate(-72.403) scale(.08 -.08)">
<use xlink:href="#al"/>
</g>
</g>
<path d="m1002.1 604.47 0.63369-5.5502q0.27225-2.3845-2.1123-2.6568l-7.6925-0.87829q-2.3845-0.27225-2.6568 2.1123l-0.63369 5.5502q-0.27225 2.3845 2.1123 2.6568l7.6925 0.87829q2.3845 0.27225 2.6568-2.1123z" clip-path="url(#a)" fill="#fff" stroke="#fff"/>
<g clip-path="url(#a)">
<defs>
<path id="w" d="m64.406 67.281v-10.391q-4.9844 4.6406-10.625 6.9219-5.6406 2.2969-11.984 2.2969-12.5 0-19.141-7.6406t-6.6406-22.094q0-14.406 6.6406-22.047t19.141-7.6406q6.3438 0 11.984 2.2969t10.625 6.9375v-10.312q-5.1719-3.5156-10.969-5.2812-5.7812-1.75-12.219-1.75-16.562 0-26.094 10.125-9.5156 10.141-9.5156 27.672 0 17.578 9.5156 27.703 9.5312 10.141 26.094 10.141 6.5312 0 12.312-1.7344 5.7969-1.7344 10.875-5.2031z"/>
</defs>
<g transform="translate(998.1 604.01) rotate(-83.486) scale(.08 -.08)">
<use xlink:href="#w"/>
</g>
</g>
<path d="m1115.8 552.53 4.5605 2.1806q2.1652 1.0353 3.2005-1.13l3.3398-6.9851q1.0353-2.1652-1.13-3.2005l-4.5605-2.1806q-2.1652-1.0353-3.2005 1.13l-3.3398 6.9851q-1.0353 2.1652 1.13 3.2005z" clip-path="url(#a)" fill="#fff" stroke="#fff"/>
<g clip-path="url(#a)">
<g transform="translate(1117.6 548.87) rotate(25.554) scale(.08 -.08)">
<use xlink:href="#al"/>
</g>
</g>
<path d="m870.43 658.72 1.1186-5.4731q0.4806-2.3514-1.8708-2.832l-7.5857-1.5504q-2.3514-0.4806-2.832 1.8708l-1.1186 5.4731q-0.4806 2.3514 1.8708 2.832l7.5857 1.5504q2.3514 0.4806 2.832-1.8708z" clip-path="url(#a)" fill="#fff" stroke="#fff"/>
<g clip-path="url(#a)">
<g transform="translate(866.45 657.91) rotate(-78.448) scale(.08 -.08)">
<use xlink:href="#w"/>
</g>
</g>
<path d="m879.81 653.26 1.1131 5.4462q0.4806 2.3514 2.832 1.8708l7.5857-1.5504q2.3514-0.4806 1.8708-2.832l-1.1131-5.4462q-0.4806-2.3514-2.832-1.8708l-7.5857 1.5504q-2.3514 0.4806-1.8708 2.832z" clip-path="url(#a)" fill="#fff" stroke="#fff"/>
<g clip-path="url(#a)">
<defs>
<path id="y" d="m44.391 34.188q3.1719-1.0781 6.1719-4.5938t6.0312-9.6719l10.016-19.922h-10.609l-9.3125 18.703q-3.625 7.3281-7.0156 9.7188t-9.25 2.3906h-10.75v-30.812h-9.8594v72.906h22.266q12.5 0 18.656-5.2344 6.1562-5.2188 6.1562-15.766 0-6.8906-3.2031-11.438-3.2031-4.5312-9.2969-6.2812zm-24.719 30.609v-25.875h12.406q7.125 0 10.766 3.2969t3.6406 9.6875-3.6406 9.6406-10.766 3.25z"/>
</defs>
<g transform="translate(883.79 652.45) rotate(78.448) scale(.08 -.08)">
<use xlink:href="#y"/>
</g>
</g>
<path d="m934.42 743.12v35.285q0 2.4 2.4 2.4h7.7425q2.4 0 2.4-2.4v-35.285q0-2.4-2.4-2.4h-7.7425q-2.4 0-2.4 2.4z" clip-path="url(#a)" fill="#fff" stroke="#fff"/>
<g clip-path="url(#a)">
<g transform="translate(938.48 743.12) rotate(90) scale(.08 -.08)">
<use xlink:href="#i"/>
<use x="60.818359" xlink:href="#e"/>
<use x="122.341797" xlink:href="#j"/>
<use x="163.439453" xlink:href="#k"/>
<use x="260.851562" xlink:href="#h"/>
<use x="288.634766" xlink:href="#g"/>
<use x="352.013672" xlink:href="#f"/>
<use x="413.292969" xlink:href="#l"/>
</g>
</g>
<path d="m977.76 743.12v35.285q0 2.4 2.4 2.4h7.7425q2.4 0 2.4-2.4v-35.285q0-2.4-2.4-2.4h-7.7425q-2.4 0-2.4 2.4z" clip-path="url(#a)" fill="#fff" stroke="#fff"/>
<g clip-path="url(#a)">
<g transform="translate(981.82 743.12) rotate(90) scale(.08 -.08)">
<use xlink:href="#i"/>
<use x="60.818359" xlink:href="#e"/>
<use x="122.341797" xlink:href="#j"/>
<use x="163.439453" xlink:href="#k"/>
<use x="260.851562" xlink:href="#h"/>
<use x="288.634766" xlink:href="#g"/>
<use x="352.013672" xlink:href="#f"/>
<use x="413.292969" xlink:href="#l"/>
</g>
</g>
<path d="m1141.9 661.55 4.8177-2.7731q2.08-1.1973 0.88276-3.2773l-3.8624-6.7103q-1.1973-2.08-3.2773-0.88276l-4.8177 2.7731q-2.08 1.1973-0.88276 3.2773l3.8624 6.7103q1.1973 2.08 3.2773 0.88276z" clip-path="url(#a)" fill="#fff" stroke="#fff"/>
<g clip-path="url(#a)">
<g transform="translate(1139.8 658.03) rotate(-29.925) scale(.08 -.08)">
<use xlink:href="#y"/>
</g>
</g>
<path d="m1175.8 661.24 4.0888-3.6373q1.7932-1.5952 0.19803-3.3883l-5.146-5.7849q-1.5952-1.7932-3.3883-0.19803l-4.0888 3.6373q-1.7932 1.5952-0.19803 3.3883l5.146 5.7849q1.5952 1.7932 3.3883 0.19803z" clip-path="url(#a)" fill="#fff" stroke="#fff"/>
<g clip-path="url(#a)">
<g transform="translate(1173.1 658.2) rotate(-41.655) scale(.08 -.08)">
<use xlink:href="#n"/>
</g>
</g>
<path d="m1199.1 660.25 2.6771-3.7423q1.3964-1.952-0.5556-3.3483l-6.2971-4.5047q-1.952-1.3964-3.3483 0.5556l-2.6771 3.7423q-1.3964 1.952 0.5556 3.3483l6.2971 4.5047q1.952 1.3964 3.3483-0.5556z" clip-path="url(#a)" fill="#fff" stroke="#fff"/>
<g clip-path="url(#a)">
<g transform="translate(1195.8 657.89) rotate(-54.421) scale(.08 -.08)">
<use xlink:href="#ak"/>
</g>
</g>
<path d="m1222.1 659.51 1.8056-5.8894q0.70348-2.2946-1.5911-2.9981l-7.4024-2.2695q-2.2946-0.70348-2.9981 1.5911l-1.8056 5.8894q-0.70348 2.2946 1.5911 2.9981l7.4024 2.2695q2.2946 0.70348 2.9981-1.5911z" clip-path="url(#a)" fill="#fff" stroke="#fff"/>
<g clip-path="url(#a)">
<g transform="translate(1218.2 658.32) rotate(-72.955) scale(.08 -.08)">
<use xlink:href="#af"/>
</g>
</g>
<path d="m1232.2 652.94 0.49676 4.8609q0.244 2.3876 2.6316 2.1436l7.7024-0.78714q2.3876-0.244 2.1436-2.6316l-0.49676-4.8609q-0.244-2.3876-2.6316-2.1436l-7.7024 0.78714q-2.3876 0.244-2.1436 2.6316z" clip-path="url(#a)" fill="#fff" stroke="#fff"/>
<g clip-path="url(#a)">
<g transform="translate(1236.2 652.53) rotate(84.165) scale(.08 -.08)">
<use xlink:href="#i"/>
</g>
</g>
<path d="m1264.7 656.42 2.8065 3.9232q1.3964 1.952 3.3483 0.5556l6.2971-4.5047q1.952-1.3964 0.5556-3.3483l-2.8065-3.9232q-1.3964-1.952-3.3483-0.5556l-6.2971 4.5047q-1.952 1.3964-0.5556 3.3483z" clip-path="url(#a)" fill="#fff" stroke="#fff"/>
<g clip-path="url(#a)">
<g transform="translate(1268 654.05) rotate(54.421) scale(.08 -.08)">
<use xlink:href="#u"/>
</g>
</g>
<path d="m1297.6 657.98 4.6779 3.5211q1.9175 1.4433 3.3608-0.47418l4.6562-6.1859q1.4433-1.9175-0.47418-3.3608l-4.6779-3.5211q-1.9175-1.4433-3.3608 0.47418l-4.6562 6.1859q-1.4433 1.9175 0.47418 3.3608z" clip-path="url(#a)" fill="#fff" stroke="#fff"/>
<g clip-path="url(#a)">
<g transform="translate(1300 654.73) rotate(36.969) scale(.08 -.08)">
<use xlink:href="#ad"/>
</g>
</g>
<path d="m1319.7 658.71 5.0744 2.9208q2.08 1.1973 3.2773-0.88276l3.8624-6.7103q1.1973-2.08-0.88276-3.2773l-5.0744-2.9208q-2.08-1.1973-3.2773 0.88276l-3.8624 6.7103q-1.1973 2.08 0.88276 3.2773z" clip-path="url(#a)" fill="#fff" stroke="#fff"/>
<g clip-path="url(#a)">
<g transform="translate(1321.7 655.18) rotate(29.925) scale(.08 -.08)">
<use xlink:href="#ad"/>
</g>
</g>
<path d="m1040.8 779.3 7.0658-34.57q0.4806-2.3514-1.8708-2.832l-7.5857-1.5504q-2.3514-0.4806-2.832 1.8708l-7.0658 34.57q-0.4806 2.3514 1.8708 2.832l7.5857 1.5504q2.3514 0.4806 2.832-1.8708z" clip-path="url(#a)" fill="#fff" stroke="#fff"/>
<g clip-path="url(#a)">
<g transform="translate(1036.8 778.48) rotate(-78.448) scale(.08 -.08)">
<use xlink:href="#i"/>
<use x="60.818359" xlink:href="#e"/>
<use x="122.341797" xlink:href="#j"/>
<use x="163.439453" xlink:href="#k"/>
<use x="260.851562" xlink:href="#h"/>
<use x="288.634766" xlink:href="#g"/>
<use x="352.013672" xlink:href="#f"/>
<use x="413.292969" xlink:href="#l"/>
</g>
</g>
<path d="m1050.2 744.73 7.0658 34.57q0.4806 2.3514 2.832 1.8708l7.5857-1.5504q2.3514-0.4806 1.8708-2.832l-7.0658-34.57q-0.4806-2.3514-2.832-1.8708l-7.5857 1.5504q-2.3514 0.4806-1.8708 2.832z" clip-path="url(#a)" fill="#fff" stroke="#fff"/>
<g clip-path="url(#a)">
<g transform="translate(1054.2 743.91) rotate(78.448) scale(.08 -.08)">
<use xlink:href="#i"/>
<use x="60.818359" xlink:href="#e"/>
<use x="122.341797" xlink:href="#j"/>
<use x="163.439453" xlink:href="#k"/>
<use x="260.851562" xlink:href="#h"/>
<use x="288.634766" xlink:href="#g"/>
<use x="352.013672" xlink:href="#f"/>
<use x="413.292969" xlink:href="#l"/>
</g>
</g>
<path d="m1107.8 743.12v35.285q0 2.4 2.4 2.4h7.7425q2.4 0 2.4-2.4v-35.285q0-2.4-2.4-2.4h-7.7425q-2.4 0-2.4 2.4z" clip-path="url(#a)" fill="#fff" stroke="#fff"/>
<g clip-path="url(#a)">
<g transform="translate(1111.8 743.12) rotate(90) scale(.08 -.08)">
<use xlink:href="#i"/>
<use x="60.818359" xlink:href="#e"/>
<use x="122.341797" xlink:href="#j"/>
<use x="163.439453" xlink:href="#k"/>
<use x="260.851562" xlink:href="#h"/>
<use x="288.634766" xlink:href="#g"/>
<use x="352.013672" xlink:href="#f"/>
<use x="413.292969" xlink:href="#l"/>
</g>
</g>
<path d="m1151.1 743.12v35.285q0 2.4 2.4 2.4h7.7425q2.4 0 2.4-2.4v-35.285q0-2.4-2.4-2.4h-7.7425q-2.4 0-2.4 2.4z" clip-path="url(#a)" fill="#fff" stroke="#fff"/>
<g clip-path="url(#a)">
<g transform="translate(1155.2 743.12) rotate(90) scale(.08 -.08)">
<use xlink:href="#i"/>
<use x="60.818359" xlink:href="#e"/>
<use x="122.341797" xlink:href="#j"/>
<use x="163.439453" xlink:href="#k"/>
<use x="260.851562" xlink:href="#h"/>
<use x="288.634766" xlink:href="#g"/>
<use x="352.013672" xlink:href="#f"/>
<use x="413.292969" xlink:href="#l"/>
</g>
</g>
<path d="m1194.5 743.12v35.285q0 2.4 2.4 2.4h7.7425q2.4 0 2.4-2.4v-35.285q0-2.4-2.4-2.4h-7.7425q-2.4 0-2.4 2.4z" clip-path="url(#a)" fill="#fff" stroke="#fff"/>
<g clip-path="url(#a)">
<g transform="translate(1198.5 743.12) rotate(90) scale(.08 -.08)">
<use xlink:href="#i"/>
<use x="60.818359" xlink:href="#e"/>
<use x="122.341797" xlink:href="#j"/>
<use x="163.439453" xlink:href="#k"/>
<use x="260.851562" xlink:href="#h"/>
<use x="288.634766" xlink:href="#g"/>
<use x="352.013672" xlink:href="#f"/>
<use x="413.292969" xlink:href="#l"/>
</g>
</g>
<path d="m1237.8 743.12v35.285q0 2.4 2.4 2.4h7.7425q2.4 0 2.4-2.4v-35.285q0-2.4-2.4-2.4h-7.7425q-2.4 0-2.4 2.4z" clip-path="url(#a)" fill="#fff" stroke="#fff"/>
<g clip-path="url(#a)">
<g transform="translate(1241.9 743.12) rotate(90) scale(.08 -.08)">
<use xlink:href="#i"/>
<use x="60.818359" xlink:href="#e"/>
<use x="122.341797" xlink:href="#j"/>
<use x="163.439453" xlink:href="#k"/>
<use x="260.851562" xlink:href="#h"/>
<use x="288.634766" xlink:href="#g"/>
<use x="352.013672" xlink:href="#f"/>
<use x="413.292969" xlink:href="#l"/>
</g>
</g>
<path d="m1300.9 779.3 7.0658-34.57q0.4806-2.3514-1.8708-2.832l-7.5857-1.5504q-2.3514-0.4806-2.832 1.8708l-7.0658 34.57q-0.4806 2.3514 1.8708 2.832l7.5857 1.5504q2.3514 0.4806 2.832-1.8708z" clip-path="url(#a)" fill="#fff" stroke="#fff"/>
<g clip-path="url(#a)">
<g transform="translate(1296.9 778.48) rotate(-78.448) scale(.08 -.08)">
<use xlink:href="#i"/>
<use x="60.818359" xlink:href="#e"/>
<use x="122.341797" xlink:href="#j"/>
<use x="163.439453" xlink:href="#k"/>
<use x="260.851562" xlink:href="#h"/>
<use x="288.634766" xlink:href="#g"/>
<use x="352.013672" xlink:href="#f"/>
<use x="413.292969" xlink:href="#l"/>
</g>
</g>
<path d="m1310.3 744.73 7.0658 34.57q0.4806 2.3514 2.832 1.8708l7.5857-1.5504q2.3514-0.4806 1.8708-2.832l-7.0658-34.57q-0.4806-2.3514-2.832-1.8708l-7.5857 1.5504q-2.3514 0.4806-1.8708 2.832z" clip-path="url(#a)" fill="#fff" stroke="#fff"/>
<g clip-path="url(#a)">
<g transform="translate(1314.2 743.91) rotate(78.448) scale(.08 -.08)">
<use xlink:href="#i"/>
<use x="60.818359" xlink:href="#e"/>
<use x="122.341797" xlink:href="#j"/>
<use x="163.439453" xlink:href="#k"/>
<use x="260.851562" xlink:href="#h"/>
<use x="288.634766" xlink:href="#g"/>
<use x="352.013672" xlink:href="#f"/>
<use x="413.292969" xlink:href="#l"/>
</g>
</g>
<path d="m847.74 743.12v35.285q0 2.4 2.4 2.4h7.7425q2.4 0 2.4-2.4v-35.285q0-2.4-2.4-2.4h-7.7425q-2.4 0-2.4 2.4z" clip-path="url(#a)" fill="#fff" stroke="#fff"/>
<g clip-path="url(#a)">
<g transform="translate(851.8 743.12) rotate(90) scale(.08 -.08)">
<use xlink:href="#i"/>
<use x="60.818359" xlink:href="#e"/>
<use x="122.341797" xlink:href="#j"/>
<use x="163.439453" xlink:href="#k"/>
<use x="260.851562" xlink:href="#h"/>
<use x="288.634766" xlink:href="#g"/>
<use x="352.013672" xlink:href="#f"/>
<use x="413.292969" xlink:href="#l"/>
</g>
</g>
<path d="m891.08 743.12v35.285q0 2.4 2.4 2.4h7.7425q2.4 0 2.4-2.4v-35.285q0-2.4-2.4-2.4h-7.7425q-2.4 0-2.4 2.4z" clip-path="url(#a)" fill="#fff" stroke="#fff"/>
<g clip-path="url(#a)">
<g transform="translate(895.14 743.12) rotate(90) scale(.08 -.08)">
<use xlink:href="#i"/>
<use x="60.818359" xlink:href="#e"/>
<use x="122.341797" xlink:href="#j"/>
<use x="163.439453" xlink:href="#k"/>
<use x="260.851562" xlink:href="#h"/>
<use x="288.634766" xlink:href="#g"/>
<use x="352.013672" xlink:href="#f"/>
<use x="413.292969" xlink:href="#l"/>
</g>
</g>
<path d="m327.64 743.12v35.285q0 2.4 2.4 2.4h7.7425q2.4 0 2.4-2.4v-35.285q0-2.4-2.4-2.4h-7.7425q-2.4 0-2.4 2.4z" clip-path="url(#a)" fill="#fff" stroke="#fff"/>
<g clip-path="url(#a)">
<g transform="translate(331.7 743.12) rotate(90) scale(.08 -.08)">
<use xlink:href="#i"/>
<use x="60.818359" xlink:href="#e"/>
<use x="122.341797" xlink:href="#j"/>
<use x="163.439453" xlink:href="#k"/>
<use x="260.851562" xlink:href="#h"/>
<use x="288.634766" xlink:href="#g"/>
<use x="352.013672" xlink:href="#f"/>
<use x="413.292969" xlink:href="#l"/>
</g>
</g>
<path d="m370.98 743.12v35.285q0 2.4 2.4 2.4h7.7425q2.4 0 2.4-2.4v-35.285q0-2.4-2.4-2.4h-7.7425q-2.4 0-2.4 2.4z" clip-path="url(#a)" fill="#fff" stroke="#fff"/>
<g clip-path="url(#a)">
<g transform="translate(375.05 743.12) rotate(90) scale(.08 -.08)">
<use xlink:href="#i"/>
<use x="60.818359" xlink:href="#e"/>
<use x="122.341797" xlink:href="#j"/>
<use x="163.439453" xlink:href="#k"/>
<use x="260.851562" xlink:href="#h"/>
<use x="288.634766" xlink:href="#g"/>
<use x="352.013672" xlink:href="#f"/>
<use x="413.292969" xlink:href="#l"/>
</g>
</g>
<path d="m414.32 743.12v35.285q0 2.4 2.4 2.4h7.7425q2.4 0 2.4-2.4v-35.285q0-2.4-2.4-2.4h-7.7425q-2.4 0-2.4 2.4z" clip-path="url(#a)" fill="#fff" stroke="#fff"/>
<g clip-path="url(#a)">
<g transform="translate(418.39 743.12) rotate(90) scale(.08 -.08)">
<use xlink:href="#i"/>
<use x="60.818359" xlink:href="#e"/>
<use x="122.341797" xlink:href="#j"/>
<use x="163.439453" xlink:href="#k"/>
<use x="260.851562" xlink:href="#h"/>
<use x="288.634766" xlink:href="#g"/>
<use x="352.013672" xlink:href="#f"/>
<use x="413.292969" xlink:href="#l"/>
</g>
</g>
<path d="m457.66 743.12v35.285q0 2.4 2.4 2.4h7.7425q2.4 0 2.4-2.4v-35.285q0-2.4-2.4-2.4h-7.7425q-2.4 0-2.4 2.4z" clip-path="url(#a)" fill="#fff" stroke="#fff"/>
<g clip-path="url(#a)">
<g transform="translate(461.73 743.12) rotate(90) scale(.08 -.08)">
<use xlink:href="#i"/>
<use x="60.818359" xlink:href="#e"/>
<use x="122.341797" xlink:href="#j"/>
<use x="163.439453" xlink:href="#k"/>
<use x="260.851562" xlink:href="#h"/>
<use x="288.634766" xlink:href="#g"/>
<use x="352.013672" xlink:href="#f"/>
<use x="413.292969" xlink:href="#l"/>
</g>
</g>
<path d="m501.01 743.12v35.285q0 2.4 2.4 2.4h7.7425q2.4 0 2.4-2.4v-35.285q0-2.4-2.4-2.4h-7.7425q-2.4 0-2.4 2.4z" clip-path="url(#a)" fill="#fff" stroke="#fff"/>
<g clip-path="url(#a)">
<g transform="translate(505.07 743.12) rotate(90) scale(.08 -.08)">
<use xlink:href="#i"/>
<use x="60.818359" xlink:href="#e"/>
<use x="122.341797" xlink:href="#j"/>
<use x="163.439453" xlink:href="#k"/>
<use x="260.851562" xlink:href="#h"/>
<use x="288.634766" xlink:href="#g"/>
<use x="352.013672" xlink:href="#f"/>
<use x="413.292969" xlink:href="#l"/>
</g>
</g>
<path d="m544.35 743.12v35.285q0 2.4 2.4 2.4h7.7425q2.4 0 2.4-2.4v-35.285q0-2.4-2.4-2.4h-7.7425q-2.4 0-2.4 2.4z" clip-path="url(#a)" fill="#fff" stroke="#fff"/>
<g clip-path="url(#a)">
<g transform="translate(548.41 743.12) rotate(90) scale(.08 -.08)">
<use xlink:href="#i"/>
<use x="60.818359" xlink:href="#e"/>
<use x="122.341797" xlink:href="#j"/>
<use x="163.439453" xlink:href="#k"/>
<use x="260.851562" xlink:href="#h"/>
<use x="288.634766" xlink:href="#g"/>
<use x="352.013672" xlink:href="#f"/>
<use x="413.292969" xlink:href="#l"/>
</g>
</g>
<path d="m587.69 743.12v35.285q0 2.4 2.4 2.4h7.7425q2.4 0 2.4-2.4v-35.285q0-2.4-2.4-2.4h-7.7425q-2.4 0-2.4 2.4z" clip-path="url(#a)" fill="#fff" stroke="#fff"/>
<g clip-path="url(#a)">
<g transform="translate(591.75 743.12) rotate(90) scale(.08 -.08)">
<use xlink:href="#i"/>
<use x="60.818359" xlink:href="#e"/>
<use x="122.341797" xlink:href="#j"/>
<use x="163.439453" xlink:href="#k"/>
<use x="260.851562" xlink:href="#h"/>
<use x="288.634766" xlink:href="#g"/>
<use x="352.013672" xlink:href="#f"/>
<use x="413.292969" xlink:href="#l"/>
</g>
</g>
<path d="m653.72 658.71 1.1131-5.4462q0.4806-2.3514-1.8708-2.832l-7.5857-1.5504q-2.3514-0.4806-2.832 1.8708l-1.1131 5.4462q-0.4806 2.3514 1.8708 2.832l7.5857 1.5504q2.3514 0.4806 2.832-1.8708z" clip-path="url(#a)" fill="#fff" stroke="#fff"/>
<g clip-path="url(#a)">
<g transform="translate(649.74 657.9) rotate(-78.448) scale(.08 -.08)">
<use xlink:href="#y"/>
</g>
</g>
<path d="m663.1 653.25 1.1186 5.4731q0.4806 2.3514 2.832 1.8708l7.5857-1.5504q2.3514-0.4806 1.8708-2.832l-1.1186-5.4731q-0.4806-2.3514-2.832-1.8708l-7.5857 1.5504q-2.3514 0.4806-1.8708 2.832z" clip-path="url(#a)" fill="#fff" stroke="#fff"/>
<g clip-path="url(#a)">
<g transform="translate(667.09 652.44) rotate(78.448) scale(.08 -.08)">
<use xlink:href="#w"/>
</g>
</g>
<path d="m631.03 743.12v35.285q0 2.4 2.4 2.4h7.7425q2.4 0 2.4-2.4v-35.285q0-2.4-2.4-2.4h-7.7425q-2.4 0-2.4 2.4z" clip-path="url(#a)" fill="#fff" stroke="#fff"/>
<g clip-path="url(#a)">
<g transform="translate(635.09 743.12) rotate(90) scale(.08 -.08)">
<use xlink:href="#i"/>
<use x="60.818359" xlink:href="#e"/>
<use x="122.341797" xlink:href="#j"/>
<use x="163.439453" xlink:href="#k"/>
<use x="260.851562" xlink:href="#h"/>
<use x="288.634766" xlink:href="#g"/>
<use x="352.013672" xlink:href="#f"/>
<use x="413.292969" xlink:href="#l"/>
</g>
</g>
<path d="m674.37 743.12v35.285q0 2.4 2.4 2.4h7.7425q2.4 0 2.4-2.4v-35.285q0-2.4-2.4-2.4h-7.7425q-2.4 0-2.4 2.4z" clip-path="url(#a)" fill="#fff" stroke="#fff"/>
<g clip-path="url(#a)">
<g transform="translate(678.44 743.12) rotate(90) scale(.08 -.08)">
<use xlink:href="#i"/>
<use x="60.818359" xlink:href="#e"/>
<use x="122.341797" xlink:href="#j"/>
<use x="163.439453" xlink:href="#k"/>
<use x="260.851562" xlink:href="#h"/>
<use x="288.634766" xlink:href="#g"/>
<use x="352.013672" xlink:href="#f"/>
<use x="413.292969" xlink:href="#l"/>
</g>
</g>
<path d="m110.93 743.12v35.285q0 2.4 2.4 2.4h7.7425q2.4 0 2.4-2.4v-35.285q0-2.4-2.4-2.4h-7.7425q-2.4 0-2.4 2.4z" clip-path="url(#a)" fill="#fff" stroke="#fff"/>
<g clip-path="url(#a)">
<g transform="translate(115 743.12) rotate(90) scale(.08 -.08)">
<use xlink:href="#i"/>
<use x="60.818359" xlink:href="#e"/>
<use x="122.341797" xlink:href="#j"/>
<use x="163.439453" xlink:href="#k"/>
<use x="260.851562" xlink:href="#h"/>
<use x="288.634766" xlink:href="#g"/>
<use x="352.013672" xlink:href="#f"/>
<use x="413.292969" xlink:href="#l"/>
</g>
</g>
<path d="m154.28 743.12v35.285q0 2.4 2.4 2.4h7.7425q2.4 0 2.4-2.4v-35.285q0-2.4-2.4-2.4h-7.7425q-2.4 0-2.4 2.4z" clip-path="url(#a)" fill="#fff" stroke="#fff"/>
<g clip-path="url(#a)">
<g transform="translate(158.34 743.12) rotate(90) scale(.08 -.08)">
<use xlink:href="#i"/>
<use x="60.818359" xlink:href="#e"/>
<use x="122.341797" xlink:href="#j"/>
<use x="163.439453" xlink:href="#k"/>
<use x="260.851562" xlink:href="#h"/>
<use x="288.634766" xlink:href="#g"/>
<use x="352.013672" xlink:href="#f"/>
<use x="413.292969" xlink:href="#l"/>
</g>
</g>
<path d="m197.62 743.12v35.285q0 2.4 2.4 2.4h7.7425q2.4 0 2.4-2.4v-35.285q0-2.4-2.4-2.4h-7.7425q-2.4 0-2.4 2.4z" clip-path="url(#a)" fill="#fff" stroke="#fff"/>
<g clip-path="url(#a)">
<g transform="translate(201.68 743.12) rotate(90) scale(.08 -.08)">
<use xlink:href="#i"/>
<use x="60.818359" xlink:href="#e"/>
<use x="122.341797" xlink:href="#j"/>
<use x="163.439453" xlink:href="#k"/>
<use x="260.851562" xlink:href="#h"/>
<use x="288.634766" xlink:href="#g"/>
<use x="352.013672" xlink:href="#f"/>
<use x="413.292969" xlink:href="#l"/>
</g>
</g>
<path d="m446.13 490.2 2.8133 9.5258q0.67978 2.3017 2.9815 1.6219l7.4254-2.193q2.3017-0.67978 1.6219-2.9815l-2.8133-9.5258q-0.67978-2.3017-2.9815-1.6219l-7.4254 2.193q-2.3017 0.67978-1.6219 2.9815z" clip-path="url(#a)" fill="#fff" stroke="#fff"/>
<g clip-path="url(#a)">
<g transform="translate(450.03 489.04) rotate(73.546) scale(.08 -.08)">
<use xlink:href="#r"/>
<use x="55.744141" xlink:href="#n"/>
</g>
</g>
<path d="m359.97 553.19 3.7617-9.283q0.90134-2.2243-1.323-3.1257l-7.1757-2.9078q-2.2243-0.90134-3.1257 1.323l-3.7617 9.283q-0.90134 2.2243 1.323 3.1257l7.1757 2.9078q2.2243 0.90134 3.1257-1.323z" clip-path="url(#a)" fill="#fff" stroke="#fff"/>
<g clip-path="url(#a)">
<g transform="translate(356.2 551.67) rotate(-67.941) scale(.08 -.08)">
<use xlink:href="#r"/>
<use x="55.712891" xlink:href="#y"/>
</g>
</g>
<path d="m446.97 438.46 5.1713 8.4801q1.2495 2.0491 3.2986 0.79952l6.6104-4.0311q2.0491-1.2495 0.79952-3.2986l-5.1713-8.4801q-1.2495-2.0491-3.2986-0.79952l-6.6104 4.0311q-2.0491 1.2495-0.79952 3.2986z" clip-path="url(#a)" fill="#fff" stroke="#fff"/>
<g clip-path="url(#a)">
<g transform="translate(450.44 436.34) rotate(58.625) scale(.08 -.08)">
<use xlink:href="#r"/>
<use x="55.744141" xlink:href="#n"/>
</g>
</g>
<path d="m177.84 608.94 6.9521-7.2106q1.6658-1.7277-0.061949-3.3935l-5.5738-5.3739q-1.7277-1.6658-3.3935 0.06195l-6.9521 7.2106q-1.6658 1.7277 0.061949 3.3935l5.5738 5.3739q1.7277 1.6658 3.3935-0.061949z" clip-path="url(#a)" fill="#fff" stroke="#fff"/>
<g clip-path="url(#a)">
<g transform="translate(174.91 606.12) rotate(-46.046) scale(.08 -.08)">
<use xlink:href="#r"/>
<use x="55.712891" xlink:href="#y"/>
</g>
</g>
<path d="m375.37 551.23 8.8044 4.5975q2.1274 1.1109 3.2383-1.0165l3.5838-6.8632q1.1109-2.1274-1.0165-3.2383l-8.8044-4.5975q-2.1274-1.1109-3.2383 1.0165l-3.5838 6.8632q-1.1109 2.1274 1.0165 3.2383z" clip-path="url(#a)" fill="#fff" stroke="#fff"/>
<g clip-path="url(#a)">
<g transform="translate(377.25 547.63) rotate(27.573) scale(.08 -.08)">
<use xlink:href="#r"/>
<use x="55.744141" xlink:href="#n"/>
</g>
</g>
<path d="m240.96 743.12v35.285q0 2.4 2.4 2.4h7.7425q2.4 0 2.4-2.4v-35.285q0-2.4-2.4-2.4h-7.7425q-2.4 0-2.4 2.4z" clip-path="url(#a)" fill="#fff" stroke="#fff"/>
<g clip-path="url(#a)">
<g transform="translate(245.02 743.12) rotate(90) scale(.08 -.08)">
<use xlink:href="#i"/>
<use x="60.818359" xlink:href="#e"/>
<use x="122.341797" xlink:href="#j"/>
<use x="163.439453" xlink:href="#k"/>
<use x="260.851562" xlink:href="#h"/>
<use x="288.634766" xlink:href="#g"/>
<use x="352.013672" xlink:href="#f"/>
<use x="413.292969" xlink:href="#l"/>
</g>
</g>
<path d="m717.71 743.12v35.285q0 2.4 2.4 2.4h7.7425q2.4 0 2.4-2.4v-35.285q0-2.4-2.4-2.4h-7.7425q-2.4 0-2.4 2.4z" clip-path="url(#a)" fill="#fff" stroke="#fff"/>
<g clip-path="url(#a)">
<g transform="translate(721.78 743.12) rotate(90) scale(.08 -.08)">
<use xlink:href="#i"/>
<use x="60.818359" xlink:href="#e"/>
<use x="122.341797" xlink:href="#j"/>
<use x="163.439453" xlink:href="#k"/>
<use x="260.851562" xlink:href="#h"/>
<use x="288.634766" xlink:href="#g"/>
<use x="352.013672" xlink:href="#f"/>
<use x="413.292969" xlink:href="#l"/>
</g>
</g>
<path d="m1367.8 743.12v35.285q0 2.4 2.4 2.4h7.7425q2.4 0 2.4-2.4v-35.285q0-2.4-2.4-2.4h-7.7425q-2.4 0-2.4 2.4z" clip-path="url(#a)" fill="#fff" stroke="#fff"/>
<g clip-path="url(#a)">
<g transform="translate(1371.9 743.12) rotate(90) scale(.08 -.08)">
<use xlink:href="#i"/>
<use x="60.818359" xlink:href="#e"/>
<use x="122.341797" xlink:href="#j"/>
<use x="163.439453" xlink:href="#k"/>
<use x="260.851562" xlink:href="#h"/>
<use x="288.634766" xlink:href="#g"/>
<use x="352.013672" xlink:href="#f"/>
<use x="413.292969" xlink:href="#l"/>
</g>
</g>
<path d="m1411.2 743.12v35.285q0 2.4 2.4 2.4h7.7425q2.4 0 2.4-2.4v-35.285q0-2.4-2.4-2.4h-7.7425q-2.4 0-2.4 2.4z" clip-path="url(#a)" fill="#fff" stroke="#fff"/>
<g clip-path="url(#a)">
<g transform="translate(1415.2 743.12) rotate(90) scale(.08 -.08)">
<use xlink:href="#i"/>
<use x="60.818359" xlink:href="#e"/>
<use x="122.341797" xlink:href="#j"/>
<use x="163.439453" xlink:href="#k"/>
<use x="260.851562" xlink:href="#h"/>
<use x="288.634766" xlink:href="#g"/>
<use x="352.013672" xlink:href="#f"/>
<use x="413.292969" xlink:href="#l"/>
</g>
</g>
<defs>
<path id="b" d="m0 8.6603c2.2967 0 4.4997-0.9125 6.1237-2.5365 1.624-1.624 2.5365-3.827 2.5365-6.1237s-0.9125-4.4997-2.5365-6.1237c-1.624-1.624-3.827-2.5365-6.1237-2.5365s-4.4997 0.9125-6.1237 2.5365c-1.624 1.624-2.5365 3.827-2.5365 6.1237s0.9125 4.4997 2.5365 6.1237c1.624 1.624 3.827 2.5365 6.1237 2.5365z"/>
</defs>
<g clip-path="url(#a)">
<use x="73.863653" y="813.770711" fill="#ffffff" stroke="#ffffff" xlink:href="#b"/>
</g>
<g clip-path="url(#a)">
<use x="117.205007" y="813.770711" fill="#ffffff" stroke="#ffffff" xlink:href="#b"/>
</g>
<g clip-path="url(#a)">
<use x="160.546361" y="813.770711" fill="#ffffff" stroke="#ffffff" xlink:href="#b"/>
</g>
<g clip-path="url(#a)">
<use x="203.887715" y="813.770711" fill="#ffffff" stroke="#ffffff" xlink:href="#b"/>
</g>
<g clip-path="url(#a)">
<use x="247.229068" y="813.770711" fill="#ffffff" stroke="#ffffff" xlink:href="#b"/>
</g>
<g clip-path="url(#a)">
<use x="290.570422" y="813.770711" fill="#ffffff" stroke="#ffffff" xlink:href="#b"/>
</g>
<g clip-path="url(#a)">
<use x="333.911776" y="813.770711" fill="#ffffff" stroke="#ffffff" xlink:href="#b"/>
</g>
<g clip-path="url(#a)">
<use x="377.253129" y="813.770711" fill="#ffffff" stroke="#ffffff" xlink:href="#b"/>
</g>
<g clip-path="url(#a)">
<use x="420.594483" y="813.770711" fill="#ffffff" stroke="#ffffff" xlink:href="#b"/>
</g>
<g clip-path="url(#a)">
<use x="463.935837" y="813.770711" fill="#ffffff" stroke="#ffffff" xlink:href="#b"/>
</g>
<g clip-path="url(#a)">
<use x="507.277191" y="813.770711" fill="#ffffff" stroke="#ffffff" xlink:href="#b"/>
</g>
<g clip-path="url(#a)">
<use x="550.618544" y="813.770711" fill="#ffffff" stroke="#ffffff" xlink:href="#b"/>
</g>
<g clip-path="url(#a)">
<use x="593.959898" y="813.770711" fill="#ffffff" stroke="#ffffff" xlink:href="#b"/>
</g>
<g clip-path="url(#a)">
<use x="637.301252" y="813.770711" fill="#ffffff" stroke="#ffffff" xlink:href="#b"/>
</g>
<g clip-path="url(#a)">
<use x="680.642606" y="813.770711" fill="#ffffff" stroke="#ffffff" xlink:href="#b"/>
</g>
<g clip-path="url(#a)">
<use x="723.983959" y="813.770711" fill="#ffffff" stroke="#ffffff" xlink:href="#b"/>
</g>
<g clip-path="url(#a)">
<use x="767.325313" y="813.770711" fill="#ffffff" stroke="#ffffff" xlink:href="#b"/>
</g>
<g clip-path="url(#a)">
<use x="810.666667" y="813.770711" fill="#ffffff" stroke="#ffffff" xlink:href="#b"/>
</g>
<g clip-path="url(#a)">
<use x="854.00802" y="813.770711" fill="#ffffff" stroke="#ffffff" xlink:href="#b"/>
</g>
<g clip-path="url(#a)">
<use x="897.349374" y="813.770711" fill="#ffffff" stroke="#ffffff" xlink:href="#b"/>
</g>
<g clip-path="url(#a)">
<use x="940.690728" y="813.770711" fill="#ffffff" stroke="#ffffff" xlink:href="#b"/>
</g>
<g clip-path="url(#a)">
<use x="984.032082" y="813.770711" fill="#ffffff" stroke="#ffffff" xlink:href="#b"/>
</g>
<g clip-path="url(#a)">
<use x="1027.373435" y="813.770711" fill="#ffffff" stroke="#ffffff" xlink:href="#b"/>
</g>
<g clip-path="url(#a)">
<use x="1070.714789" y="813.770711" fill="#ffffff" stroke="#ffffff" xlink:href="#b"/>
</g>
<g clip-path="url(#a)">
<use x="1114.056143" y="813.770711" fill="#ffffff" stroke="#ffffff" xlink:href="#b"/>
</g>
<g clip-path="url(#a)">
<use x="1157.397496" y="813.770711" fill="#ffffff" stroke="#ffffff" xlink:href="#b"/>
</g>
<g clip-path="url(#a)">
<use x="1200.73885" y="813.770711" fill="#ffffff" stroke="#ffffff" xlink:href="#b"/>
</g>
<g clip-path="url(#a)">
<use x="1244.080204" y="813.770711" fill="#ffffff" stroke="#ffffff" xlink:href="#b"/>
</g>
<g clip-path="url(#a)">
<use x="1287.421558" y="813.770711" fill="#ffffff" stroke="#ffffff" xlink:href="#b"/>
</g>
<g clip-path="url(#a)">
<use x="1330.762911" y="813.770711" fill="#ffffff" stroke="#ffffff" xlink:href="#b"/>
</g>
<g clip-path="url(#a)">
<use x="1374.104265" y="813.770711" fill="#ffffff" stroke="#ffffff" xlink:href="#b"/>
</g>
<g clip-path="url(#a)">
<use x="1417.445619" y="813.770711" fill="#ffffff" stroke="#ffffff" xlink:href="#b"/>
</g>
<g clip-path="url(#a)">
<use x="1168.232835" y="39.562622" fill="#ffffff" stroke="#ffffff" xlink:href="#b"/>
</g>
<g clip-path="url(#a)">
<use x="1168.232835" y="157.657203" fill="#ffffff" stroke="#ffffff" xlink:href="#b"/>
</g>
<g clip-path="url(#a)">
<use x="1547.46968" y="813.770711" fill="#ffffff" stroke="#ffffff" xlink:href="#b"/>
</g>
<g clip-path="url(#a)">
<use x="1504.128326" y="813.770711" fill="#ffffff" stroke="#ffffff" xlink:href="#b"/>
</g>
<g clip-path="url(#a)">
<use x="453.100498" y="272.577727" fill="#ffffff" stroke="#ffffff" xlink:href="#b"/>
</g>
<g clip-path="url(#a)">
<use x="73.863653" y="707.744408" fill="#ffffff" stroke="#ffffff" xlink:href="#b"/>
</g>
<g clip-path="url(#a)">
<use x="485.606514" y="601.718105" fill="#ffffff" stroke="#ffffff" xlink:href="#b"/>
</g>
<g clip-path="url(#a)">
<use x="290.570422" y="707.744408" fill="#ffffff" stroke="#ffffff" xlink:href="#b"/>
</g>
<g clip-path="url(#a)">
<use x="488.315348" y="494.216859" fill="#ffffff" stroke="#ffffff" xlink:href="#b"/>
</g>
<g clip-path="url(#a)">
<use x="862.134524" y="384.645596" fill="#ffffff" stroke="#ffffff" xlink:href="#b"/>
</g>
<g clip-path="url(#a)">
<use x="767.325313" y="707.744408" fill="#ffffff" stroke="#ffffff" xlink:href="#b"/>
</g>
<g clip-path="url(#a)">
<use x="810.666667" y="707.744408" fill="#ffffff" stroke="#ffffff" xlink:href="#b"/>
</g>
<g clip-path="url(#a)">
<use x="1008.411593" y="494.216859" fill="#ffffff" stroke="#ffffff" xlink:href="#b"/>
</g>
<g clip-path="url(#a)">
<use x="875.678697" y="601.718105" fill="#ffffff" stroke="#ffffff" xlink:href="#b"/>
</g>
<g clip-path="url(#a)">
<use x="940.690728" y="707.744408" fill="#ffffff" stroke="#ffffff" xlink:href="#b"/>
</g>
<g clip-path="url(#a)">
<use x="984.032082" y="707.744408" fill="#ffffff" stroke="#ffffff" xlink:href="#b"/>
</g>
<g clip-path="url(#a)">
<use x="1233.244865" y="601.718105" fill="#ffffff" stroke="#ffffff" xlink:href="#b"/>
</g>
<g clip-path="url(#a)">
<use x="1049.044112" y="707.744408" fill="#ffffff" stroke="#ffffff" xlink:href="#b"/>
</g>
<g clip-path="url(#a)">
<use x="1114.056143" y="707.744408" fill="#ffffff" stroke="#ffffff" xlink:href="#b"/>
</g>
<g clip-path="url(#a)">
<use x="1157.397496" y="707.744408" fill="#ffffff" stroke="#ffffff" xlink:href="#b"/>
</g>
<g clip-path="url(#a)">
<use x="1200.73885" y="707.744408" fill="#ffffff" stroke="#ffffff" xlink:href="#b"/>
</g>
<g clip-path="url(#a)">
<use x="1244.080204" y="707.744408" fill="#ffffff" stroke="#ffffff" xlink:href="#b"/>
</g>
<g clip-path="url(#a)">
<use x="1309.092234" y="707.744408" fill="#ffffff" stroke="#ffffff" xlink:href="#b"/>
</g>
<g clip-path="url(#a)">
<use x="854.00802" y="707.744408" fill="#ffffff" stroke="#ffffff" xlink:href="#b"/>
</g>
<g clip-path="url(#a)">
<use x="897.349374" y="707.744408" fill="#ffffff" stroke="#ffffff" xlink:href="#b"/>
</g>
<g clip-path="url(#a)">
<use x="333.911776" y="707.744408" fill="#ffffff" stroke="#ffffff" xlink:href="#b"/>
</g>
<g clip-path="url(#a)">
<use x="377.253129" y="707.744408" fill="#ffffff" stroke="#ffffff" xlink:href="#b"/>
</g>
<g clip-path="url(#a)">
<use x="420.594483" y="707.744408" fill="#ffffff" stroke="#ffffff" xlink:href="#b"/>
</g>
<g clip-path="url(#a)">
<use x="463.935837" y="707.744408" fill="#ffffff" stroke="#ffffff" xlink:href="#b"/>
</g>
<g clip-path="url(#a)">
<use x="507.277191" y="707.744408" fill="#ffffff" stroke="#ffffff" xlink:href="#b"/>
</g>
<g clip-path="url(#a)">
<use x="550.618544" y="707.744408" fill="#ffffff" stroke="#ffffff" xlink:href="#b"/>
</g>
<g clip-path="url(#a)">
<use x="593.959898" y="707.744408" fill="#ffffff" stroke="#ffffff" xlink:href="#b"/>
</g>
<g clip-path="url(#a)">
<use x="658.971929" y="601.718105" fill="#ffffff" stroke="#ffffff" xlink:href="#b"/>
</g>
<g clip-path="url(#a)">
<use x="637.301252" y="707.744408" fill="#ffffff" stroke="#ffffff" xlink:href="#b"/>
</g>
<g clip-path="url(#a)">
<use x="680.642606" y="707.744408" fill="#ffffff" stroke="#ffffff" xlink:href="#b"/>
</g>
<g clip-path="url(#a)">
<use x="1460.786972" y="813.770711" fill="#ffffff" stroke="#ffffff" xlink:href="#b"/>
</g>
<g clip-path="url(#a)">
<use x="117.205007" y="707.744408" fill="#ffffff" stroke="#ffffff" xlink:href="#b"/>
</g>
<g clip-path="url(#a)">
<use x="160.546361" y="707.744408" fill="#ffffff" stroke="#ffffff" xlink:href="#b"/>
</g>
<g clip-path="url(#a)">
<use x="203.887715" y="707.744408" fill="#ffffff" stroke="#ffffff" xlink:href="#b"/>
</g>
<g clip-path="url(#a)">
<use x="421.497428" y="384.645596" fill="#808080" stroke="#808080" xlink:href="#b"/>
</g>
<g clip-path="url(#a)">
<use x="279.735084" y="494.216859" fill="#808080" stroke="#808080" xlink:href="#b"/>
</g>
<g clip-path="url(#a)">
<use x="247.229068" y="707.744408" fill="#ffffff" stroke="#ffffff" xlink:href="#b"/>
</g>
<g clip-path="url(#a)">
<use x="723.983959" y="707.744408" fill="#ffffff" stroke="#ffffff" xlink:href="#b"/>
</g>
<g clip-path="url(#a)">
<use x="1374.104265" y="707.744408" fill="#ffffff" stroke="#ffffff" xlink:href="#b"/>
</g>
<g clip-path="url(#a)">
<use x="1417.445619" y="707.744408" fill="#ffffff" stroke="#ffffff" xlink:href="#b"/>
</g>
<g clip-path="url(#a)">
<defs>
<path id="ay" d="m19.672 34.812v-26.703h15.828q7.9531 0 11.781 3.2969 3.8438 3.2969 3.8438 10.078 0 6.8438-3.8438 10.078-3.8281 3.25-11.781 3.25zm0 29.984v-21.969h14.609q7.2188 0 10.75 2.7031 3.5469 2.7188 3.5469 8.2812 0 5.5156-3.5469 8.25-3.5312 2.7344-10.75 2.7344zm-9.8594 8.1094h25.203q11.281 0 17.375-4.6875 6.1094-4.6875 6.1094-13.328 0-6.7031-3.125-10.656t-9.1875-4.9219q7.2812-1.5625 11.312-6.5312 4.0312-4.9531 4.0312-12.375 0-9.7656-6.6406-15.094-6.6406-5.3125-18.906-5.3125h-26.172z"/>
<path id="ao" d="m8.5 21.578v33.109h8.9844v-32.766q0-7.7656 3.0156-11.656 3.0312-3.875 9.0938-3.875 7.2656 0 11.484 4.6406 4.2344 4.6406 4.2344 12.656v31h8.9844v-54.688h-8.9844v8.4062q-3.2656-4.9844-7.5938-7.4062-4.3125-2.4219-10.031-2.4219-9.4219 0-14.312 5.8594-4.875 5.8594-4.875 17.141z"/>
<path id="t" d="m18.312 70.219v-15.531h18.5v-6.9844h-18.5v-29.688q0-6.6875 1.8281-8.5938t7.4531-1.9062h9.2188v-7.5156h-9.2188q-10.406 0-14.359 3.875-3.9531 3.8906-3.9531 14.141v29.688h-6.5938v6.9844h6.5938v15.531z"/>
</defs>
<g transform="translate(65.304 816.53) scale(.1 -.1)">
<use xlink:href="#ay"/>
<use x="68.603516" xlink:href="#ao"/>
<use x="131.982422" xlink:href="#t"/>
</g>
</g>
<g clip-path="url(#a)">
<defs>
<path id="v" d="m54.891 33.016v-33.016h-8.9844v32.719q0 7.7656-3.0312 11.609-3.0312 3.8594-9.0781 3.8594-7.2812 0-11.484-4.6406-4.2031-4.625-4.2031-12.641v-30.906h-9.0312v75.984h9.0312v-29.797q3.2344 4.9375 7.5938 7.375 4.375 2.4375 10.094 2.4375 9.4219 0 14.25-5.8281 4.8438-5.8281 4.8438-17.156z"/>
<path id="av" d="m9.0781 75.984h9.0312v-44.875l26.812 23.578h11.469l-29-25.578 30.234-29.109h-11.719l-27.797 26.703v-26.703h-9.0312z"/>
</defs>
<g transform="translate(104.62 816.53) scale(.1 -.1)">
<use xlink:href="#t"/>
<use x="39.208984" xlink:href="#v"/>
<use x="102.587891" xlink:href="#h"/>
<use x="130.371094" xlink:href="#g"/>
<use x="193.75" xlink:href="#av"/>
</g>
</g>
<g clip-path="url(#a)">
<g transform="translate(157.2 816.53) scale(.1 -.1)">
<use xlink:href="#h"/>
<use x="27.783203" xlink:href="#t"/>
</g>
</g>
<g clip-path="url(#a)">
<defs>
<path id="p" d="m30.609 48.391q-7.2188 0-11.422-5.6406t-4.2031-15.453 4.1719-15.453q4.1875-5.6406 11.453-5.6406 7.1875 0 11.375 5.6562 4.2031 5.6719 4.2031 15.438 0 9.7188-4.2031 15.406-4.1875 5.6875-11.375 5.6875zm0 7.6094q11.719 0 18.406-7.625 6.7031-7.6094 6.7031-21.078 0-13.422-6.7031-21.078-6.6875-7.6406-18.406-7.6406-11.766 0-18.438 7.6406-6.6562 7.6562-6.6562 21.078 0 13.469 6.6562 21.078 6.6719 7.625 18.438 7.625z"/>
<path id="at" d="m2.9844 54.688h9.5156l17.094-45.891 17.094 45.891h9.5156l-20.516-54.688h-12.203z"/>
</defs>
<g transform="translate(192.74 816.53) scale(.1 -.1)">
<use xlink:href="#p"/>
<use x="61.181641" xlink:href="#at"/>
<use x="120.361328" xlink:href="#e"/>
<use x="181.884766" xlink:href="#j"/>
</g>
</g>
<g clip-path="url(#a)">
<defs>
<path id="az" d="m11.719 12.406h10.297v-8.4062l-8-15.625h-6.2969l4 15.625z"/>
</defs>
<g transform="translate(245.64 816.53) scale(.1 -.1)">
<use xlink:href="#az"/>
</g>
</g>
<g clip-path="url(#a)">
<defs>
<path id="ar" d="m48.688 27.297q0 9.9062-4.0781 15.547t-11.203 5.6406q-7.1406 0-11.219-5.6406t-4.0781-15.547 4.0781-15.547 11.219-5.6406q7.125 0 11.203 5.6406t4.0781 15.547zm-30.578 19.094q2.8438 4.875 7.1562 7.2344 4.3281 2.375 10.328 2.375 9.9688 0 16.188-7.9062 6.2344-7.9062 6.2344-20.797t-6.2344-20.812q-6.2188-7.9062-16.188-7.9062-6 0-10.328 2.375-4.3125 2.375-7.1562 7.25v-8.2031h-9.0312v75.984h9.0312z"/>
<path id="ac" d="m48.781 52.594v-8.4062q-3.8125 2.1094-7.6406 3.1562t-7.7344 1.0469q-8.75 0-13.594-5.5469-4.8281-5.5312-4.8281-15.547t4.8281-15.562q4.8438-5.5312 13.594-5.5312 3.9062 0 7.7344 1.0469t7.6406 3.1562v-8.3125q-3.7656-1.75-7.7969-2.625-4.0156-0.89062-8.5625-0.89062-12.359 0-19.641 7.7656-7.2656 7.7656-7.2656 20.953 0 13.375 7.3438 21.031 7.3594 7.6719 20.156 7.6719 4.1406 0 8.0938-0.85938 3.9531-0.84375 7.6719-2.5469z"/>
<path id="x" d="m44.281 53.078v-8.5q-3.7969 1.9531-7.9062 2.9219-4.0938 0.98438-8.5 0.98438-6.6875 0-10.031-2.0469t-3.3438-6.1562q0-3.125 2.3906-4.9062t9.625-3.3906l3.0781-0.6875q9.5625-2.0469 13.594-5.7812t4.0312-10.422q0-7.625-6.0312-12.078-6.0312-4.4375-16.578-4.4375-4.3906 0-9.1562 0.85938t-10.031 2.5625v9.2812q4.9844-2.5938 9.8125-3.8906 4.8281-1.2812 9.5781-1.2812 6.3438 0 9.75 2.1719 3.4219 2.1719 3.4219 6.125 0 3.6562-2.4688 5.6094-2.4531 1.9531-10.812 3.7656l-3.125 0.73438q-8.3438 1.75-12.062 5.3906-3.7031 3.6406-3.7031 9.9844 0 7.7188 5.4688 11.906 5.4688 4.2031 15.531 4.2031 4.9688 0 9.3594-0.73438 4.4062-0.71875 8.1094-2.1875z"/>
</defs>
<g transform="translate(269.66 816.53) scale(.1 -.1)">
<use xlink:href="#ar"/>
<use x="63.476562" xlink:href="#e"/>
<use x="125" xlink:href="#ac"/>
<use x="179.980469" xlink:href="#f"/>
<use x="241.259766" xlink:href="#ao"/>
<use x="304.638672" xlink:href="#x"/>
<use x="356.738281" xlink:href="#e"/>
</g>
</g>
<g clip-path="url(#a)">
<defs>
<path id="s" d="m9.8125 72.906h9.8594v-72.906h-9.8594z"/>
</defs>
<g transform="translate(332.44 816.53) scale(.1 -.1)">
<use xlink:href="#s"/>
</g>
</g>
<g clip-path="url(#a)">
<defs>
<path id="aq" d="m45.406 46.391v29.594h8.9844v-75.984h-8.9844v8.2031q-2.8281-4.875-7.1562-7.25-4.3125-2.375-10.375-2.375-9.9062 0-16.141 7.9062-6.2188 7.9219-6.2188 20.812t6.2188 20.797q6.2344 7.9062 16.141 7.9062 6.0625 0 10.375-2.375 4.3281-2.3594 7.1562-7.2344zm-30.609-19.094q0-9.9062 4.0781-15.547t11.203-5.6406 11.219 5.6406q4.1094 5.6406 4.1094 15.547t-4.1094 15.547q-4.0938 5.6406-11.219 5.6406t-11.203-5.6406-4.0781-15.547z"/>
</defs>
<g transform="translate(371.02 816.53) scale(.1 -.1)">
<use xlink:href="#aq"/>
<use x="63.476562" xlink:href="#p"/>
</g>
</g>
<g clip-path="url(#a)">
<defs>
<path id="as" d="m17.922 72.906v-27.109h-8.2969v27.109z"/>
</defs>
<g transform="translate(414.09 816.53) scale(.1 -.1)">
<use xlink:href="#g"/>
<use x="63.378906" xlink:href="#as"/>
<use x="90.869141" xlink:href="#t"/>
</g>
</g>
<g clip-path="url(#a)">
<defs>
<path id="an" d="m4.2031 54.688h8.9844l11.234-42.672 11.172 42.672h10.594l11.234-42.672 11.188 42.672h8.9844l-14.312-54.688h-10.594l-11.766 44.828-11.812-44.828h-10.609z"/>
</defs>
<g transform="translate(451.65 816.53) scale(.1 -.1)">
<use xlink:href="#an"/>
<use x="81.787109" xlink:href="#f"/>
<use x="143.066406" xlink:href="#g"/>
<use x="206.445312" xlink:href="#t"/>
</g>
</g>
<g clip-path="url(#a)">
<g transform="translate(502.26 816.53) scale(.1 -.1)">
<use xlink:href="#t"/>
<use x="39.208984" xlink:href="#p"/>
</g>
</g>
<g clip-path="url(#a)">
<g transform="translate(539.81 816.53) scale(.1 -.1)">
<use xlink:href="#v"/>
<use x="63.378906" xlink:href="#h"/>
<use x="91.162109" xlink:href="#aq"/>
<use x="154.638672" xlink:href="#e"/>
</g>
</g>
<g clip-path="url(#a)">
<defs>
<path id="ai" d="m32.172-5.0781q-3.7969-9.7656-7.4219-12.734-3.6094-2.9844-9.6562-2.9844h-7.1875v7.5156h5.2812q3.7031 0 5.75 1.7656 2.0625 1.75 4.5469 8.2969l1.6094 4.0938-22.109 53.812h9.5156l17.094-42.766 17.094 42.766h9.5156z"/>
<path id="aw" d="m45.406 27.984q0 9.7656-4.0312 15.125-4.0156 5.375-11.297 5.375-7.2188 0-11.25-5.375-4.0312-5.3594-4.0312-15.125 0-9.7188 4.0312-15.094t11.25-5.375q7.2812 0 11.297 5.375 4.0312 5.375 4.0312 15.094zm8.9844-21.203q0-13.953-6.2031-20.766-6.1875-6.8125-18.984-6.8125-4.7344 0-8.9375 0.70312t-8.1562 2.1719v8.7344q3.9531-2.1406 7.8125-3.1562 3.8594-1.0312 7.8594-1.0312 8.8438 0 13.234 4.6094t4.3906 13.938v4.4531q-2.7812-4.8438-7.125-7.2344t-10.406-2.3906q-10.047 0-16.203 7.6562-6.1562 7.6719-6.1562 20.328 0 12.688 6.1562 20.344 6.1562 7.6719 16.203 7.6719 6.0625 0 10.406-2.3906t7.125-7.2188v8.2969h8.9844z"/>
</defs>
<g transform="translate(571.91 816.53) scale(.1 -.1)">
<use xlink:href="#f"/>
<use x="61.279297" xlink:href="#g"/>
<use x="124.658203" xlink:href="#ai"/>
<use x="183.837891" xlink:href="#t"/>
<use x="223.046875" xlink:href="#v"/>
<use x="286.425781" xlink:href="#h"/>
<use x="314.208984" xlink:href="#g"/>
<use x="377.587891" xlink:href="#aw"/>
</g>
</g>
<g clip-path="url(#a)">
<defs>
<path id="ap" d="m37.109 75.984v-7.4844h-8.5938q-4.8281 0-6.7188-1.9531-1.875-1.9531-1.875-7.0312v-4.8281h14.797v-6.9844h-14.797v-47.703h-9.0312v47.703h-8.5938v6.9844h8.5938v3.8125q0 9.125 4.25 13.297 4.25 4.1875 13.469 4.1875z"/>
</defs>
<g transform="translate(625.56 816.53) scale(.1 -.1)">
<use xlink:href="#ap"/>
<use x="35.205078" xlink:href="#j"/>
<use x="76.287109" xlink:href="#p"/>
<use x="137.46875" xlink:href="#k"/>
</g>
</g>
<g clip-path="url(#a)">
<g transform="translate(671.46 816.53) scale(.1 -.1)">
<use xlink:href="#ai"/>
<use x="59.179688" xlink:href="#p"/>
<use x="120.361328" xlink:href="#ao"/>
</g>
</g>
<g clip-path="url(#a)">
<defs>
<path id="d" d="m10.688 12.406h10.312v-12.406h-10.312z"/>
</defs>
<g transform="translate(722.39 816.53) scale(.1 -.1)">
<use xlink:href="#d"/>
</g>
</g>
<g clip-path="url(#a)">
<g transform="translate(757.11 816.53) scale(.1 -.1)">
<use xlink:href="#i"/>
<use x="61.083984" xlink:href="#v"/>
<use x="124.462891" xlink:href="#h"/>
<use x="152.246094" xlink:href="#x"/>
</g>
</g>
<g clip-path="url(#a)">
<g transform="translate(806.67 816.53) scale(.1 -.1)">
<use xlink:href="#h"/>
<use x="27.783203" xlink:href="#x"/>
</g>
</g>
<g clip-path="url(#a)">
<g transform="translate(844.7 816.53) scale(.1 -.1)">
<use xlink:href="#p"/>
<use x="61.181641" xlink:href="#g"/>
<use x="124.560547" xlink:href="#e"/>
</g>
</g>
<g clip-path="url(#a)">
<g transform="translate(892.53 816.53) scale(.1 -.1)">
<use xlink:href="#p"/>
<use x="61.181641" xlink:href="#ap"/>
</g>
</g>
<g clip-path="url(#a)">
<g transform="translate(926.82 816.53) scale(.1 -.1)">
<use xlink:href="#t"/>
<use x="39.208984" xlink:href="#v"/>
<use x="102.587891" xlink:href="#p"/>
<use x="163.769531" xlink:href="#x"/>
<use x="215.869141" xlink:href="#e"/>
</g>
</g>
<g clip-path="url(#a)">
<g transform="translate(963.13 816.53) scale(.1 -.1)">
<use xlink:href="#at"/>
<use x="59.179688" xlink:href="#p"/>
<use x="120.361328" xlink:href="#ai"/>
<use x="179.541016" xlink:href="#f"/>
<use x="240.820312" xlink:href="#aw"/>
<use x="304.296875" xlink:href="#e"/>
<use x="365.820312" xlink:href="#x"/>
</g>
</g>
<g clip-path="url(#a)">
<g transform="translate(1015.6 816.53) scale(.1 -.1)">
<use xlink:href="#ap"/>
<use x="35.205078" xlink:href="#j"/>
<use x="76.287109" xlink:href="#p"/>
<use x="137.46875" xlink:href="#k"/>
</g>
</g>
<g clip-path="url(#a)">
<g transform="translate(1056.1 816.53) scale(.1 -.1)">
<use xlink:href="#an"/>
<use x="81.787109" xlink:href="#v"/>
<use x="145.166016" xlink:href="#h"/>
<use x="172.949219" xlink:href="#ac"/>
<use x="227.929688" xlink:href="#v"/>
</g>
</g>
<g clip-path="url(#a)">
<defs>
<path id="au" d="m18.109 8.2031v-29h-9.0312v75.484h9.0312v-8.2969q2.8438 4.875 7.1562 7.2344 4.3281 2.375 10.328 2.375 9.9688 0 16.188-7.9062 6.2344-7.9062 6.2344-20.797t-6.2344-20.812q-6.2188-7.9062-16.188-7.9062-6 0-10.328 2.375-4.3125 2.375-7.1562 7.25zm30.578 19.094q0 9.9062-4.0781 15.547t-11.203 5.6406q-7.1406 0-11.219-5.6406t-4.0781-15.547 4.0781-15.547 11.219-5.6406q7.125 0 11.203 5.6406t4.0781 15.547z"/>
</defs>
<g transform="translate(1097.1 816.53) scale(.1 -.1)">
<use xlink:href="#au"/>
<use x="63.476562" xlink:href="#e"/>
<use x="125" xlink:href="#p"/>
<use x="186.181641" xlink:href="#au"/>
<use x="249.658203" xlink:href="#l"/>
<use x="277.441406" xlink:href="#e"/>
</g>
</g>
<g clip-path="url(#a)">
<g transform="translate(1151.2 816.53) scale(.1 -.1)">
<use xlink:href="#aq"/>
<use x="63.476562" xlink:href="#p"/>
</g>
</g>
<g clip-path="url(#a)">
<g transform="translate(1194.2 816.53) scale(.1 -.1)">
<use xlink:href="#g"/>
<use x="63.378906" xlink:href="#as"/>
<use x="90.869141" xlink:href="#t"/>
</g>
</g>
<g clip-path="url(#a)">
<g transform="translate(1226.9 816.53) scale(.1 -.1)">
<use xlink:href="#f"/>
<use x="61.279297" xlink:href="#l"/>
<use x="89.0625" xlink:href="#an"/>
<use x="170.849609" xlink:href="#f"/>
<use x="232.128906" xlink:href="#ai"/>
<use x="291.308594" xlink:href="#x"/>
</g>
</g>
<g clip-path="url(#a)">
<g transform="translate(1273.7 816.53) scale(.1 -.1)">
<use xlink:href="#ac"/>
<use x="54.980469" xlink:href="#p"/>
<use x="116.162109" xlink:href="#k"/>
<use x="213.574219" xlink:href="#e"/>
</g>
</g>
<g clip-path="url(#a)">
<g transform="translate(1318.9 816.53) scale(.1 -.1)">
<use xlink:href="#ar"/>
<use x="63.476562" xlink:href="#f"/>
<use x="124.755859" xlink:href="#ac"/>
<use x="179.736328" xlink:href="#av"/>
</g>
</g>
<g clip-path="url(#a)">
<defs>
<path id="bb" d="m15.094 12.406h9.9062v-12.406h-9.9062zm0 60.5h9.9062v-31.984l-0.96875-17.438h-7.9219l-1.0156 17.438z"/>
</defs>
<g transform="translate(1372.1 816.53) scale(.1 -.1)">
<use xlink:href="#bb"/>
</g>
</g>
<g clip-path="url(#a)">
<defs>
<path id="ba" d="m17.922 72.906v-27.109h-8.2969v27.109zm18.453 0v-27.109h-8.2969v27.109z"/>
</defs>
<g transform="translate(1415.1 816.53) scale(.1 -.1)">
<use xlink:href="#ba"/>
</g>
</g>
<g clip-path="url(#a)">
<defs>
<path id="c" d="m12.406 8.2969h16.109v55.625l-17.531-3.5156v8.9844l17.438 3.5156h9.8594v-64.609h16.109v-8.2969h-41.984z"/>
</defs>
<g transform="translate(1160.3 42.322) scale(.1 -.1)">
<use xlink:href="#c"/>
<use x="63.623047" xlink:href="#d"/>
<use x="95.410156" xlink:href="#c"/>
</g>
</g>
<g clip-path="url(#a)">
<defs>
<path id="m" d="m19.188 8.2969h34.422v-8.2969h-46.281v8.2969q5.6094 5.8125 15.297 15.594 9.7031 9.7969 12.188 12.641 4.7344 5.3125 6.6094 9 1.8906 3.6875 1.8906 7.25 0 5.8125-4.0781 9.4688-4.0781 3.6719-10.625 3.6719-4.6406 0-9.7969-1.6094-5.1406-1.6094-11-4.8906v9.9688q5.9531 2.3906 11.125 3.6094 5.1875 1.2188 9.4844 1.2188 11.328 0 18.062-5.6719 6.7344-5.6562 6.7344-15.125 0-4.5-1.6875-8.5312-1.6719-4.0156-6.125-9.4844-1.2188-1.4219-7.7656-8.1875-6.5312-6.7656-18.453-18.922z"/>
</defs>
<g transform="translate(1160.3 160.42) scale(.1 -.1)">
<use xlink:href="#c"/>
<use x="63.623047" xlink:href="#d"/>
<use x="95.410156" xlink:href="#m"/>
</g>
</g>
<g clip-path="url(#a)">
<defs>
<path id="aj" d="m9.8125 72.906h14.703l18.594-49.609 18.703 49.609h14.703v-72.906h-9.625v64.016l-18.797-50h-9.9062l-18.797 50v-64.016h-9.5781z"/>
</defs>
<g transform="translate(1526.4 816.53) scale(.1 -.1)">
<use xlink:href="#s"/>
<use x="29.492188" xlink:href="#aj"/>
<use x="115.771484" xlink:href="#u"/>
<use x="176.074219" xlink:href="#r"/>
<use x="231.787109" xlink:href="#s"/>
<use x="261.279297" xlink:href="#w"/>
<use x="331.103516" xlink:href="#s"/>
<use x="360.595703" xlink:href="#i"/>
</g>
</g>
<g clip-path="url(#a)">
<g transform="translate(1483 816.53) scale(.1 -.1)">
<use xlink:href="#s"/>
<use x="29.492188" xlink:href="#aj"/>
<use x="115.771484" xlink:href="#u"/>
<use x="176.074219" xlink:href="#r"/>
<use x="231.787109" xlink:href="#s"/>
<use x="261.279297" xlink:href="#w"/>
<use x="331.103516" xlink:href="#s"/>
<use x="360.595703" xlink:href="#i"/>
</g>
</g>
<g clip-path="url(#a)">
<defs>
<path id="ab" d="m8.2031 72.906h46.875v-4.2031l-26.469-68.703h-10.297l24.906 64.594h-35.016z"/>
</defs>
<g transform="translate(445.15 275.34) scale(.1 -.1)">
<use xlink:href="#c"/>
<use x="63.623047" xlink:href="#d"/>
<use x="95.410156" xlink:href="#ab"/>
</g>
</g>
<g clip-path="url(#a)">
<defs>
<path id="aa" d="m31.781 34.625q-7.0312 0-11.062-3.7656-4.0156-3.7656-4.0156-10.344 0-6.5938 4.0156-10.359 4.0312-3.7656 11.062-3.7656t11.078 3.7812q4.0625 3.7969 4.0625 10.344 0 6.5781-4.0312 10.344-4.0156 3.7656-11.109 3.7656zm-9.8594 4.1875q-6.3438 1.5625-9.8906 5.9062-3.5312 4.3594-3.5312 10.609 0 8.7344 6.2188 13.812 6.2344 5.0781 17.062 5.0781 10.891 0 17.094-5.0781t6.2031-13.812q0-6.25-3.5469-10.609-3.5312-4.3438-9.8281-5.9062 7.125-1.6562 11.094-6.5 3.9844-4.8281 3.9844-11.797 0-10.609-6.4688-16.281-6.4688-5.6562-18.531-5.6562-12.047 0-18.531 5.6562-6.4688 5.6719-6.4688 16.281 0 6.9688 4 11.797 4.0156 4.8438 11.141 6.5zm-3.6094 15.578q0-5.6562 3.5312-8.8281 3.5469-3.1719 9.9375-3.1719 6.3594 0 9.9375 3.1719 3.5938 3.1719 3.5938 8.8281 0 5.6719-3.5938 8.8438-3.5781 3.1719-9.9375 3.1719-6.3906 0-9.9375-3.1719-3.5312-3.1719-3.5312-8.8438z"/>
</defs>
<g transform="translate(65.912 710.5) scale(.1 -.1)">
<use xlink:href="#c"/>
<use x="63.623047" xlink:href="#d"/>
<use x="95.410156" xlink:href="#aa"/>
</g>
</g>
<g clip-path="url(#a)">
<defs>
<path id="z" d="m10.984 1.5156v8.9844q3.7188-1.7656 7.5156-2.6875 3.8125-0.92188 7.4844-0.92188 9.7656 0 14.906 6.5625 5.1562 6.5625 5.8906 19.953-2.8281-4.2031-7.1875-6.4531-4.3438-2.25-9.6094-2.25-10.938 0-17.312 6.6094-6.375 6.625-6.375 18.109 0 11.219 6.6406 18 6.6406 6.7969 17.672 6.7969 12.656 0 19.312-9.7031 6.6719-9.6875 6.6719-28.141 0-17.234-8.1875-27.516-8.1719-10.281-21.984-10.281-3.7188 0-7.5312 0.73438-3.7969 0.73438-7.9062 2.2031zm19.625 30.906q6.6406 0 10.516 4.5312 3.8906 4.5469 3.8906 12.469 0 7.8594-3.8906 12.422-3.875 4.5625-10.516 4.5625t-10.516-4.5625-3.875-12.422q0-7.9219 3.875-12.469 3.875-4.5312 10.516-4.5312z"/>
</defs>
<g transform="translate(477.65 604.48) scale(.1 -.1)">
<use xlink:href="#c"/>
<use x="63.623047" xlink:href="#d"/>
<use x="95.410156" xlink:href="#z"/>
</g>
</g>
<g clip-path="url(#a)">
<defs>
<path id="am" d="m31.781 66.406q-7.6094 0-11.453-7.5-3.8281-7.4844-3.8281-22.531 0-14.984 3.8281-22.484 3.8438-7.5 11.453-7.5 7.6719 0 11.5 7.5 3.8438 7.5 3.8438 22.484 0 15.047-3.8438 22.531-3.8281 7.5-11.5 7.5zm0 7.8125q12.266 0 18.734-9.7031 6.4688-9.6875 6.4688-28.141 0-18.406-6.4688-28.109-6.4688-9.6875-18.734-9.6875-12.25 0-18.719 9.6875-6.4688 9.7031-6.4688 28.109 0 18.453 6.4688 28.141 6.4688 9.7031 18.719 9.7031z"/>
</defs>
<g transform="translate(279.44 710.5) scale(.1 -.1)">
<use xlink:href="#c"/>
<use x="63.623047" xlink:href="#d"/>
<use x="95.410156" xlink:href="#c"/>
<use x="159.033203" xlink:href="#am"/>
</g>
</g>
<g clip-path="url(#a)">
<g transform="translate(477.18 496.98) scale(.1 -.1)">
<use xlink:href="#c"/>
<use x="63.623047" xlink:href="#d"/>
<use x="95.410156" xlink:href="#c"/>
<use x="159.033203" xlink:href="#c"/>
</g>
</g>
<g clip-path="url(#a)">
<g transform="translate(851 387.4) scale(.1 -.1)">
<use xlink:href="#c"/>
<use x="63.623047" xlink:href="#d"/>
<use x="95.410156" xlink:href="#c"/>
<use x="159.033203" xlink:href="#m"/>
</g>
</g>
<g clip-path="url(#a)">
<defs>
<path id="ah" d="m10.797 72.906h38.719v-8.3125h-29.688v-17.859q2.1406 0.73438 4.2812 1.0938 2.1562 0.35938 4.3125 0.35938 12.203 0 19.328-6.6875 7.1406-6.6875 7.1406-18.109 0-11.766-7.3281-18.297-7.3281-6.5156-20.656-6.5156-4.5938 0-9.3594 0.78125-4.75 0.78125-9.8281 2.3438v9.9219q4.3906-2.3906 9.0781-3.5625t9.9062-1.1719q8.4531 0 13.375 4.4375 4.9375 4.4375 4.9375 12.062 0 7.6094-4.9375 12.047-4.9219 4.4531-13.375 4.4531-3.9531 0-7.8906-0.875-3.9219-0.875-8.0156-2.7344z"/>
</defs>
<g transform="translate(756.19 710.5) scale(.1 -.1)">
<use xlink:href="#c"/>
<use x="63.623047" xlink:href="#d"/>
<use x="95.410156" xlink:href="#c"/>
<use x="159.033203" xlink:href="#ah"/>
</g>
</g>
<g clip-path="url(#a)">
<defs>
<path id="ag" d="m33.016 40.375q-6.6406 0-10.531-4.5469-3.875-4.5312-3.875-12.438 0-7.8594 3.875-12.438 3.8906-4.5625 10.531-4.5625t10.516 4.5625q3.875 4.5781 3.875 12.438 0 7.9062-3.875 12.438-3.875 4.5469-10.516 4.5469zm19.578 30.922v-8.9844q-3.7188 1.75-7.5 2.6719-3.7812 0.9375-7.5 0.9375-9.7656 0-14.922-6.5938-5.1406-6.5938-5.875-19.922 2.875 4.25 7.2188 6.5156 4.3594 2.2656 9.5781 2.2656 10.984 0 17.359-6.6719 6.375-6.6562 6.375-18.125 0-11.234-6.6406-18.031-6.6406-6.7812-17.672-6.7812-12.656 0-19.344 9.6875-6.6875 9.7031-6.6875 28.109 0 17.281 8.2031 27.562t22.016 10.281q3.7188 0 7.5-0.73438t7.8906-2.1875z"/>
</defs>
<g transform="translate(799.53 710.5) scale(.1 -.1)">
<use xlink:href="#c"/>
<use x="63.623047" xlink:href="#d"/>
<use x="95.410156" xlink:href="#c"/>
<use x="159.033203" xlink:href="#ag"/>
</g>
</g>
<g clip-path="url(#a)">
<g transform="translate(997.28 496.98) scale(.1 -.1)">
<use xlink:href="#c"/>
<use x="63.623047" xlink:href="#d"/>
<use x="95.410156" xlink:href="#c"/>
<use x="159.033203" xlink:href="#ab"/>
</g>
</g>
<g clip-path="url(#a)">
<g transform="translate(864.55 604.48) scale(.1 -.1)">
<use xlink:href="#c"/>
<use x="63.623047" xlink:href="#d"/>
<use x="95.410156" xlink:href="#c"/>
<use x="159.033203" xlink:href="#aa"/>
</g>
</g>
<g clip-path="url(#a)">
<g transform="translate(929.56 710.5) scale(.1 -.1)">
<use xlink:href="#c"/>
<use x="63.623047" xlink:href="#d"/>
<use x="95.410156" xlink:href="#c"/>
<use x="159.033203" xlink:href="#z"/>
</g>
</g>
<g clip-path="url(#a)">
<g transform="translate(972.9 710.5) scale(.1 -.1)">
<use xlink:href="#c"/>
<use x="63.623047" xlink:href="#d"/>
<use x="95.410156" xlink:href="#m"/>
<use x="159.033203" xlink:href="#am"/>
</g>
</g>
<g clip-path="url(#a)">
<g transform="translate(1222.1 604.48) scale(.1 -.1)">
<use xlink:href="#c"/>
<use x="63.623047" xlink:href="#d"/>
<use x="95.410156" xlink:href="#m"/>
<use x="159.033203" xlink:href="#c"/>
</g>
</g>
<g clip-path="url(#a)">
<g transform="translate(1037.9 710.5) scale(.1 -.1)">
<use xlink:href="#c"/>
<use x="63.623047" xlink:href="#d"/>
<use x="95.410156" xlink:href="#m"/>
<use x="159.033203" xlink:href="#m"/>
</g>
</g>
<g clip-path="url(#a)">
<defs>
<path id="o" d="m40.578 39.312q7.0781-1.5156 11.047-6.3125 3.9844-4.7812 3.9844-11.812 0-10.781-7.4219-16.703-7.4219-5.9062-21.094-5.9062-4.5781 0-9.4375 0.90625t-10.031 2.7188v9.5156q4.0938-2.3906 8.9688-3.6094 4.8906-1.2188 10.219-1.2188 9.2656 0 14.125 3.6562t4.8594 10.641q0 6.4531-4.5156 10.078-4.5156 3.6406-12.562 3.6406h-8.5v8.1094h8.8906q7.2656 0 11.125 2.9062t3.8594 8.375q0 5.6094-3.9844 8.6094-3.9688 3.0156-11.391 3.0156-4.0625 0-8.7031-0.89062-4.6406-0.875-10.203-2.7188v8.7812q5.625 1.5625 10.531 2.3438t9.25 0.78125q11.234 0 17.766-5.1094 6.5469-5.0938 6.5469-13.781 0-6.0625-3.4688-10.234t-9.8594-5.7812z"/>
</defs>
<g transform="translate(1102.9 710.5) scale(.1 -.1)">
<use xlink:href="#c"/>
<use x="63.623047" xlink:href="#d"/>
<use x="95.410156" xlink:href="#m"/>
<use x="159.033203" xlink:href="#o"/>
</g>
</g>
<g clip-path="url(#a)">
<defs>
<path id="q" d="m37.797 64.312-24.906-38.922h24.906zm-2.5938 8.5938h12.406v-47.516h10.406v-8.2031h-10.406v-17.188h-9.8125v17.188h-32.906v9.5156z"/>
</defs>
<g transform="translate(1146.3 710.5) scale(.1 -.1)">
<use xlink:href="#c"/>
<use x="63.623047" xlink:href="#d"/>
<use x="95.410156" xlink:href="#m"/>
<use x="159.033203" xlink:href="#q"/>
</g>
</g>
<g clip-path="url(#a)">
<g transform="translate(1189.6 710.5) scale(.1 -.1)">
<use xlink:href="#c"/>
<use x="63.623047" xlink:href="#d"/>
<use x="95.410156" xlink:href="#m"/>
<use x="159.033203" xlink:href="#ah"/>
</g>
</g>
<g clip-path="url(#a)">
<g transform="translate(1232.9 710.5) scale(.1 -.1)">
<use xlink:href="#c"/>
<use x="63.623047" xlink:href="#d"/>
<use x="95.410156" xlink:href="#m"/>
<use x="159.033203" xlink:href="#ag"/>
</g>
</g>
<g clip-path="url(#a)">
<g transform="translate(1298 710.5) scale(.1 -.1)">
<use xlink:href="#c"/>
<use x="63.623047" xlink:href="#d"/>
<use x="95.410156" xlink:href="#m"/>
<use x="159.033203" xlink:href="#ab"/>
</g>
</g>
<g clip-path="url(#a)">
<g transform="translate(842.88 710.5) scale(.1 -.1)">
<use xlink:href="#c"/>
<use x="63.623047" xlink:href="#d"/>
<use x="95.410156" xlink:href="#m"/>
<use x="159.033203" xlink:href="#aa"/>
</g>
</g>
<g clip-path="url(#a)">
<g transform="translate(886.22 710.5) scale(.1 -.1)">
<use xlink:href="#c"/>
<use x="63.623047" xlink:href="#d"/>
<use x="95.410156" xlink:href="#m"/>
<use x="159.033203" xlink:href="#z"/>
</g>
</g>
<g clip-path="url(#a)">
<g transform="translate(322.78 710.5) scale(.1 -.1)">
<use xlink:href="#c"/>
<use x="63.623047" xlink:href="#d"/>
<use x="95.410156" xlink:href="#o"/>
<use x="159.033203" xlink:href="#am"/>
</g>
</g>
<g clip-path="url(#a)">
<g transform="translate(366.12 710.5) scale(.1 -.1)">
<use xlink:href="#c"/>
<use x="63.623047" xlink:href="#d"/>
<use x="95.410156" xlink:href="#o"/>
<use x="159.033203" xlink:href="#c"/>
</g>
</g>
<g clip-path="url(#a)">
<g transform="translate(409.46 710.5) scale(.1 -.1)">
<use xlink:href="#c"/>
<use x="63.623047" xlink:href="#d"/>
<use x="95.410156" xlink:href="#o"/>
<use x="159.033203" xlink:href="#m"/>
</g>
</g>
<g clip-path="url(#a)">
<g transform="translate(452.8 710.5) scale(.1 -.1)">
<use xlink:href="#c"/>
<use x="63.623047" xlink:href="#d"/>
<use x="95.410156" xlink:href="#o"/>
<use x="159.033203" xlink:href="#o"/>
</g>
</g>
<g clip-path="url(#a)">
<g transform="translate(496.14 710.5) scale(.1 -.1)">
<use xlink:href="#c"/>
<use x="63.623047" xlink:href="#d"/>
<use x="95.410156" xlink:href="#o"/>
<use x="159.033203" xlink:href="#q"/>
</g>
</g>
<g clip-path="url(#a)">
<g transform="translate(539.49 710.5) scale(.1 -.1)">
<use xlink:href="#c"/>
<use x="63.623047" xlink:href="#d"/>
<use x="95.410156" xlink:href="#o"/>
<use x="159.033203" xlink:href="#ah"/>
</g>
</g>
<g clip-path="url(#a)">
<g transform="translate(582.83 710.5) scale(.1 -.1)">
<use xlink:href="#c"/>
<use x="63.623047" xlink:href="#d"/>
<use x="95.410156" xlink:href="#o"/>
<use x="159.033203" xlink:href="#ag"/>
</g>
</g>
<g clip-path="url(#a)">
<g transform="translate(647.84 604.48) scale(.1 -.1)">
<use xlink:href="#c"/>
<use x="63.623047" xlink:href="#d"/>
<use x="95.410156" xlink:href="#o"/>
<use x="159.033203" xlink:href="#ab"/>
</g>
</g>
<g clip-path="url(#a)">
<g transform="translate(626.17 710.5) scale(.1 -.1)">
<use xlink:href="#c"/>
<use x="63.623047" xlink:href="#d"/>
<use x="95.410156" xlink:href="#o"/>
<use x="159.033203" xlink:href="#aa"/>
</g>
</g>
<g clip-path="url(#a)">
<g transform="translate(669.51 710.5) scale(.1 -.1)">
<use xlink:href="#c"/>
<use x="63.623047" xlink:href="#d"/>
<use x="95.410156" xlink:href="#o"/>
<use x="159.033203" xlink:href="#z"/>
</g>
</g>
<g clip-path="url(#a)">
<g transform="translate(1439.7 816.53) scale(.1 -.1)">
<use xlink:href="#s"/>
<use x="29.492188" xlink:href="#aj"/>
<use x="115.771484" xlink:href="#u"/>
<use x="176.074219" xlink:href="#r"/>
<use x="231.787109" xlink:href="#s"/>
<use x="261.279297" xlink:href="#w"/>
<use x="331.103516" xlink:href="#s"/>
<use x="360.595703" xlink:href="#i"/>
</g>
</g>
<g clip-path="url(#a)">
<g transform="translate(106.07 710.5) scale(.1 -.1)">
<use xlink:href="#c"/>
<use x="63.623047" xlink:href="#d"/>
<use x="95.410156" xlink:href="#q"/>
<use x="159.033203" xlink:href="#c"/>
</g>
</g>
<g clip-path="url(#a)">
<g transform="translate(149.41 710.5) scale(.1 -.1)">
<use xlink:href="#c"/>
<use x="63.623047" xlink:href="#d"/>
<use x="95.410156" xlink:href="#q"/>
<use x="159.033203" xlink:href="#m"/>
</g>
</g>
<g clip-path="url(#a)">
<g transform="translate(192.75 710.5) scale(.1 -.1)">
<use xlink:href="#c"/>
<use x="63.623047" xlink:href="#d"/>
<use x="95.410156" xlink:href="#q"/>
<use x="159.033203" xlink:href="#o"/>
</g>
</g>
<g clip-path="url(#a)">
<g transform="translate(410.36 387.4) scale(.1 -.1)">
<use xlink:href="#c"/>
<use x="63.623047" xlink:href="#d"/>
<use x="95.410156" xlink:href="#q"/>
<use x="159.033203" xlink:href="#q"/>
</g>
</g>
<g clip-path="url(#a)">
<g transform="translate(268.6 496.98) scale(.1 -.1)">
<use xlink:href="#c"/>
<use x="63.623047" xlink:href="#d"/>
<use x="95.410156" xlink:href="#q"/>
<use x="159.033203" xlink:href="#ah"/>
</g>
</g>
<g clip-path="url(#a)">
<g transform="translate(236.1 710.5) scale(.1 -.1)">
<use xlink:href="#c"/>
<use x="63.623047" xlink:href="#d"/>
<use x="95.410156" xlink:href="#q"/>
<use x="159.033203" xlink:href="#ag"/>
</g>
</g>
<g clip-path="url(#a)">
<g transform="translate(712.85 710.5) scale(.1 -.1)">
<use xlink:href="#c"/>
<use x="63.623047" xlink:href="#d"/>
<use x="95.410156" xlink:href="#q"/>
<use x="159.033203" xlink:href="#ab"/>
</g>
</g>
<g clip-path="url(#a)">
<g transform="translate(1363 710.5) scale(.1 -.1)">
<use xlink:href="#c"/>
<use x="63.623047" xlink:href="#d"/>
<use x="95.410156" xlink:href="#q"/>
<use x="159.033203" xlink:href="#aa"/>
</g>
</g>
<g clip-path="url(#a)">
<g transform="translate(1406.3 710.5) scale(.1 -.1)">
<use xlink:href="#c"/>
<use x="63.623047" xlink:href="#d"/>
<use x="95.410156" xlink:href="#q"/>
<use x="159.033203" xlink:href="#z"/>
</g>
</g>
<defs>
<clipPath id="a">
<rect width="1621.3" height="853.33"/>
</clipPath>
</defs>
</svg>
