<?xml version="1.0" encoding="UTF-8"?>
<!DOCTYPE svg  PUBLIC '-//W3C//DTD SVG 1.1//EN'  'http://www.w3.org/Graphics/SVG/1.1/DTD/svg11.dtd'>
<svg width="1469.3pt" height="773.33pt" version="1.1" viewBox="0 0 1469.3 773.33" xmlns="http://www.w3.org/2000/svg" xmlns:xlink="http://www.w3.org/1999/xlink">
<defs>
<style type="text/css">*{stroke-linecap:butt;stroke-linejoin:round;}</style>
</defs>
<path d="m0 773.33h1469.3v-773.33h-1469.3z" fill="#fff"/>
<g fill="none" stroke="#000">
<path d="m285.56 35.152-152.15 236.24" clip-path="url(#a)"/>
<path d="m285.56 35.152-1.9275 587.94" clip-path="url(#a)"/>
<path d="m285.56 35.152 190.7 118.24" clip-path="url(#a)"/>
<path d="m285.56 35.152-36.623 587.94" clip-path="url(#a)"/>
<path d="m133.41 271.39-46.862 117.7" clip-path="url(#a)"/>
<path d="m133.41 271.39-14.577 351.7" clip-path="url(#a)"/>
<path d="m133.41 271.39 5.662 351.7" clip-path="url(#a)"/>
<path d="m133.41 271.39 55.777 235.01" clip-path="url(#a)"/>
<path d="m283.63 623.09v115.09" clip-path="url(#a)"/>
<path d="m476.26 153.39-155.04 469.7" clip-path="url(#a)"/>
<path d="m476.26 153.39-114.57 469.7" clip-path="url(#a)"/>
<path d="m476.26 153.39-23.973 353.01" clip-path="url(#a)"/>
<path d="m476.26 153.39 293.58 118" clip-path="url(#a)"/>
<path d="m321.22 623.09v115.09" clip-path="url(#a)"/>
<path d="m361.7 623.09v115.09" clip-path="url(#a)"/>
<path d="m452.29 506.4-47.224 116.69" clip-path="url(#a)"/>
<path d="m452.29 506.4-0.96375 116.69" clip-path="url(#a)"/>
<path d="m452.29 506.4 48.188 116.69" clip-path="url(#a)"/>
<path d="m769.84 271.39-217.33 351.7" clip-path="url(#a)"/>
<path d="m769.84 271.39-162.39 351.7" clip-path="url(#a)"/>
<path d="m769.84 271.39 21.684 117.7" clip-path="url(#a)"/>
<path d="m769.84 271.39 86.256 351.7" clip-path="url(#a)"/>
<path d="m769.84 271.39 271.78 117.7" clip-path="url(#a)"/>
<path d="m552.52 623.09v115.09" clip-path="url(#a)"/>
<path d="m607.45 623.09v115.09" clip-path="url(#a)"/>
<path d="m791.53 389.09 64.571 234" clip-path="url(#a)" stroke-dasharray="3.7,1.6"/>
<path d="m791.53 389.09-64.571 117.3" clip-path="url(#a)"/>
<path d="m856.1 623.09v115.09" clip-path="url(#a)"/>
<path d="m1041.6 389.09-185.52 234" clip-path="url(#a)" stroke-dasharray="3.7,1.6"/>
<path d="m1041.6 389.09-116.13 234" clip-path="url(#a)"/>
<path d="m1041.6 389.09-43.851 234" clip-path="url(#a)"/>
<path d="m1041.6 389.09 70.354 117.3" clip-path="url(#a)"/>
<path d="m1041.6 389.09 275.15 117.3" clip-path="url(#a)"/>
<path d="m925.49 623.09v115.09" clip-path="url(#a)"/>
<path d="m997.77 623.09v115.09" clip-path="url(#a)"/>
<path d="m1112 506.4-39.032 116.69" clip-path="url(#a)"/>
<path d="m1112 506.4 39.032 116.69" clip-path="url(#a)"/>
<path d="m1316.8 506.4-84.81 116.69" clip-path="url(#a)"/>
<path d="m1316.8 506.4-0.96375 116.69" clip-path="url(#a)"/>
<path d="m1316.8 506.4 85.774 116.69" clip-path="url(#a)"/>
<path d="m1232 623.09v115.09" clip-path="url(#a)"/>
<path d="m1315.8 623.09v115.09" clip-path="url(#a)"/>
<path d="m1072.9 623.09v115.09" clip-path="url(#a)"/>
<path d="m1151 623.09v115.09" clip-path="url(#a)"/>
<path d="m726.96 506.4-61.68 231.78" clip-path="url(#a)"/>
<path d="m726.96 506.4 62.644 231.78" clip-path="url(#a)"/>
<path d="m726.96 506.4-0.96375 116.69" clip-path="url(#a)"/>
<path d="m405.06 623.09v115.09" clip-path="url(#a)"/>
<path d="m451.32 623.09v115.09" clip-path="url(#a)"/>
<path d="m500.48 623.09v115.09" clip-path="url(#a)"/>
<path d="m86.545 389.09-15.42 117.3" clip-path="url(#a)"/>
<path d="m86.545 389.09 0.48188 234" clip-path="url(#a)"/>
<path d="m86.545 389.09 14.938 234" clip-path="url(#a)"/>
<path d="m118.83 623.09v115.09" clip-path="url(#a)"/>
<path d="m139.07 623.09v115.09" clip-path="url(#a)"/>
<path d="m189.18 506.4-26.985 116.69" clip-path="url(#a)"/>
<path d="m189.18 506.4-0.96375 116.69" clip-path="url(#a)"/>
<path d="m189.18 506.4 27.949 116.69" clip-path="url(#a)"/>
<path d="m162.2 623.09v115.09" clip-path="url(#a)"/>
<path d="m188.22 623.09v115.09" clip-path="url(#a)"/>
<path d="m217.13 623.09v115.09" clip-path="url(#a)"/>
<path d="m71.125 506.4-4.3369 116.69" clip-path="url(#a)"/>
<path d="m71.125 506.4 4.3369 116.69" clip-path="url(#a)"/>
<path d="m87.027 623.09v115.09" clip-path="url(#a)"/>
<path d="m101.48 623.09v115.09" clip-path="url(#a)"/>
<path d="m66.788 623.09v115.09" clip-path="url(#a)"/>
<path d="m75.462 623.09v115.09" clip-path="url(#a)"/>
<path d="m297.77 35.152-164.36 236.24" clip-path="url(#a)"/>
<path d="m297.77 35.152-14.135 587.94" clip-path="url(#a)"/>
<path d="m297.77 35.152 178.49 118.24" clip-path="url(#a)"/>
<path d="m248.94 623.09v115.09" clip-path="url(#a)"/>
<path d="m725.99 623.09v115.09" clip-path="url(#a)"/>
<path d="m1402.5 623.09v115.09" clip-path="url(#a)"/>
</g>
<path d="m213.13 159.2 3.2576-5.058q1.2995-2.0177-0.7182-3.3173l-6.5093-4.1923q-2.0177-1.2995-3.3173 0.7182l-3.2576 5.058q-1.2995 2.0177 0.7182 3.3173l6.5093 4.1923q2.0177 1.2995 3.3173-0.7182z" clip-path="url(#a)" fill="#fff" stroke="#fff"/>
<g clip-path="url(#a)">
<defs>
<path id="ai" d="m9.8125 72.906h9.8594v-29.891h35.844v29.891h9.8594v-72.906h-9.8594v34.719h-35.844v-34.719h-9.8594z"/>
</defs>
<g transform="translate(209.71 157) rotate(-57.216) scale(.08 -.08)">
<use xlink:href="#ai"/>
</g>
</g>
<path d="m290.86 331.37 0.014613-4.4575q0.007868-2.4-2.3921-2.4079l-7.7425-0.025383q-2.4-0.007868-2.4079 2.3921l-0.014614 4.4575q-0.007868 2.4 2.3921 2.4079l7.7425 0.025383q2.4 0.007868 2.4079-2.3921z" clip-path="url(#a)" fill="#fff" stroke="#fff"/>
<g clip-path="url(#a)">
<defs>
<path id="z" d="m9.8125 72.906h9.8594v-64.609h35.5v-8.2969h-45.359z"/>
</defs>
<g transform="translate(286.8 331.36) rotate(-89.812) scale(.08 -.08)">
<use xlink:href="#z"/>
</g>
</g>
<path d="m375.05 98.016 5.1132 3.1703q2.0398 1.2647 3.3044-0.77507l4.0799-6.5803q1.2647-2.0397-0.77506-3.3044l-5.1132-3.1703q-2.0397-1.2647-3.3044 0.77507l-4.0799 6.5803q-1.2647 2.0398 0.77507 3.3044z" clip-path="url(#a)" fill="#fff" stroke="#fff"/>
<g clip-path="url(#a)">
<g transform="translate(377.19 94.562) rotate(31.8) scale(.08 -.08)">
<use xlink:href="#ai"/>
</g>
</g>
<path d="m273.33 332.43 0.364-5.8437q0.14921-2.3954-2.2462-2.5446l-7.7275-0.48134q-2.3954-0.14921-2.5446 2.2462l-0.364 5.8437q-0.14921 2.3954 2.2462 2.5446l7.7275 0.48134q2.3954 0.14921 2.5446-2.2462z" clip-path="url(#a)" fill="#fff" stroke="#fff"/>
<g clip-path="url(#a)">
<defs>
<path id="ag" d="m8.6875 72.906h9.9219v-44.297q0-11.719 4.2344-16.875 4.25-5.1406 13.781-5.1406 9.4688 0 13.719 5.1406 4.25 5.1562 4.25 16.875v44.297h9.9062v-45.516q0-14.25-7.0625-21.531-7.0469-7.2812-20.812-7.2812-13.828 0-20.891 7.2812-7.0469 7.2812-7.0469 21.531z"/>
</defs>
<g transform="translate(269.27 332.18) rotate(-86.436) scale(.08 -.08)">
<use xlink:href="#ag"/>
</g>
</g>
<path d="m114.79 335.11 2.0243-5.0843q0.88776-2.2298-1.342-3.1175l-7.1933-2.864q-2.2298-0.88776-3.1175 1.342l-2.0243 5.0843q-0.88776 2.2298 1.342 3.1175l7.1933 2.864q2.2298 0.88776 3.1175-1.342z" clip-path="url(#a)" fill="#fff" stroke="#fff"/>
<g clip-path="url(#a)">
<defs>
<path id="o" d="m34.188 63.188-13.391-36.281h26.812zm-5.5781 9.7188h11.188l27.781-72.906h-10.25l-6.6406 18.703h-32.859l-6.6406-18.703h-10.406z"/>
</defs>
<g transform="translate(111.01 333.6) rotate(-68.291) scale(.08 -.08)">
<use xlink:href="#o"/>
</g>
</g>
<path d="m132.28 449.91 0.19976-4.8196q0.099386-2.3979-2.2986-2.4973l-7.7359-0.32062q-2.3979-0.099386-2.4973 2.2986l-0.19976 4.8196q-0.099386 2.3979 2.2986 2.4973l7.7359 0.32062q2.3979 0.099387 2.4973-2.2986z" clip-path="url(#a)" fill="#fff" stroke="#fff"/>
<g clip-path="url(#a)">
<defs>
<path id="ah" d="m19.672 64.797v-27.391h12.406q6.8906 0 10.641 3.5625 3.7656 3.5625 3.7656 10.156 0 6.5469-3.7656 10.109-3.75 3.5625-10.641 3.5625zm-9.8594 8.1094h22.266q12.266 0 18.531-5.5469 6.2812-5.5469 6.2812-16.234 0-10.797-6.2812-16.312-6.2656-5.5156-18.531-5.5156h-12.406v-29.297h-9.8594z"/>
</defs>
<g transform="translate(128.22 449.74) rotate(-87.627) scale(.08 -.08)">
<use xlink:href="#ah"/>
</g>
</g>
<path d="m129.92 444.61 0.088091 5.4718q0.038633 2.3997 2.4383 2.3611l7.7415-0.12463q2.3997-0.038633 2.3611-2.4383l-0.088091-5.4718q-0.038633-2.3997-2.4383-2.3611l-7.7415 0.12463q-2.3997 0.038632-2.3611 2.4383z" clip-path="url(#a)" fill="#fff" stroke="#fff"/>
<g clip-path="url(#a)">
<g transform="translate(133.99 444.54) rotate(89.078) scale(.08 -.08)">
<use xlink:href="#o"/>
</g>
</g>
<path d="m154.56 387.68 1.2637 5.3246q0.55422 2.3351 2.8894 1.7809l7.5332-1.7879q2.3351-0.55422 1.7809-2.8894l-1.2637-5.3246q-0.55422-2.3351-2.8894-1.7809l-7.5332 1.7879q-2.3351 0.55422-1.7809 2.8894z" clip-path="url(#a)" fill="#fff" stroke="#fff"/>
<g clip-path="url(#a)">
<g transform="translate(158.52 386.74) rotate(76.648) scale(.08 -.08)">
<use xlink:href="#o"/>
</g>
</g>
<path d="m277.36 663.73v33.808q0 2.4 2.4 2.4h7.7425q2.4 0 2.4-2.4v-33.808q0-2.4-2.4-2.4h-7.7425q-2.4 0-2.4 2.4z" clip-path="url(#a)" fill="#fff" stroke="#fff"/>
<g clip-path="url(#a)">
<defs>
<path id="l" d="m-0.29688 72.906h61.672v-8.3125h-25.875v-64.594h-9.9062v64.594h-25.891z"/>
<path id="d" d="m56.203 29.594v-4.3906h-41.312q0.59375-9.2812 5.5938-14.141t13.938-4.8594q5.1719 0 10.031 1.2656t9.6562 3.8125v-8.5q-4.8438-2.0469-9.9219-3.125t-10.297-1.0781q-13.094 0-20.734 7.6094-7.6406 7.625-7.6406 20.625 0 13.422 7.25 21.297 7.25 7.8906 19.562 7.8906 11.031 0 17.453-7.1094 6.4219-7.0938 6.4219-19.297zm-8.9844 2.6406q-0.09375 7.3594-4.125 11.75-4.0312 4.4062-10.672 4.4062-7.5156 0-12.031-4.25t-5.2031-11.969z"/>
<path id="f" d="m41.109 46.297q-1.5156 0.875-3.2969 1.2812-1.7812 0.42188-3.9219 0.42188-7.625 0-11.703-4.9531t-4.0781-14.234v-28.812h-9.0312v54.688h9.0312v-8.5q2.8438 4.9844 7.375 7.3906 4.5469 2.4219 11.047 2.4219 0.92188 0 2.0469-0.125 1.125-0.10938 2.4844-0.35938z"/>
<path id="j" d="m52 44.188q3.375 6.0625 8.0625 8.9375t11.031 2.875q8.5469 0 13.188-5.9844 4.6406-5.9688 4.6406-17v-33.016h-9.0312v32.719q0 7.8594-2.7969 11.656-2.7812 3.8125-8.4844 3.8125-6.9844 0-11.047-4.6406-4.0469-4.625-4.0469-12.641v-30.906h-9.0312v32.719q0 7.9062-2.7812 11.688t-8.5938 3.7812q-6.8906 0-10.953-4.6562-4.0469-4.6562-4.0469-12.625v-30.906h-9.0312v54.688h9.0312v-8.5q3.0781 5.0312 7.375 7.4219t10.203 2.3906q5.9688 0 10.141-3.0312 4.1719-3.0156 6.1719-8.7812z"/>
<path id="i" d="m9.4219 54.688h8.9844v-54.688h-8.9844zm0 21.297h8.9844v-11.391h-8.9844z"/>
<path id="g" d="m54.891 33.016v-33.016h-8.9844v32.719q0 7.7656-3.0312 11.609-3.0312 3.8594-9.0781 3.8594-7.2812 0-11.484-4.6406-4.2031-4.625-4.2031-12.641v-30.906h-9.0312v54.688h9.0312v-8.5q3.2344 4.9375 7.5938 7.375 4.375 2.4375 10.094 2.4375 9.4219 0 14.25-5.8281 4.8438-5.8281 4.8438-17.156z"/>
<path id="h" d="m34.281 27.484q-10.891 0-15.094-2.4844t-4.2031-8.5q0-4.7812 3.1562-7.5938 3.1562-2.7969 8.5625-2.7969 7.4844 0 12 5.2969t4.5156 14.078v2zm17.922 3.7188v-31.203h-8.9844v8.2969q-3.0781-4.9688-7.6719-7.3438t-11.234-2.375q-8.3906 0-13.359 4.7188-4.9531 4.7188-4.9531 12.625 0 9.2188 6.1719 13.906 6.1875 4.6875 18.438 4.6875h12.609v0.89062q0 6.2031-4.0781 9.5938t-11.453 3.3906q-4.6875 0-9.1406-1.125-4.4375-1.125-8.5312-3.375v8.3125q4.9219 1.9062 9.5625 2.8438 4.6406 0.95312 9.0312 0.95312 11.875 0 17.734-6.1562 5.8594-6.1406 5.8594-18.641z"/>
<path id="k" d="m9.4219 75.984h8.9844v-75.984h-8.9844z"/>
</defs>
<g transform="translate(281.42 663.73) rotate(90) scale(.08 -.08)">
<use xlink:href="#l"/>
<use x="44.083984" xlink:href="#d"/>
<use x="105.607422" xlink:href="#f"/>
<use x="144.970703" xlink:href="#j"/>
<use x="242.382812" xlink:href="#i"/>
<use x="270.166016" xlink:href="#g"/>
<use x="333.544922" xlink:href="#h"/>
<use x="394.824219" xlink:href="#k"/>
</g>
</g>
<path d="m403.84 392.8 1.7154-5.1967q0.75229-2.279-1.5268-3.0313l-7.3523-2.4269q-2.279-0.75229-3.0313 1.5268l-1.7154 5.1967q-0.75229 2.279 1.5268 3.0313l7.3523 2.4269q2.279 0.75229 3.0313-1.5268z" clip-path="url(#a)" fill="#fff" stroke="#fff"/>
<g clip-path="url(#a)">
<g transform="translate(399.98 391.53) rotate(-71.732) scale(.08 -.08)">
<use xlink:href="#o"/>
</g>
</g>
<path d="m424.5 392.07 1.1431-4.6864q0.56872-2.3316-1.7629-2.9004l-7.522-1.8347q-2.3316-0.56872-2.9004 1.7629l-1.1431 4.6864q-0.56872 2.3316 1.7629 2.9004l7.522 1.8347q2.3316 0.56872 2.9004-1.7629z" clip-path="url(#a)" fill="#fff" stroke="#fff"/>
<g clip-path="url(#a)">
<g transform="translate(420.55 391.11) rotate(-76.292) scale(.08 -.08)">
<use xlink:href="#ah"/>
</g>
</g>
<path d="m470.32 333.39 0.41737-6.1458q0.16261-2.3945-2.2319-2.5571l-7.7247-0.5246q-2.3945-0.16261-2.5571 2.2319l-0.41737 6.1458q-0.16261 2.3945 2.2319 2.5571l7.7247 0.5246q2.3945 0.16261 2.5571-2.2319z" clip-path="url(#a)" fill="#fff" stroke="#fff"/>
<g clip-path="url(#a)">
<defs>
<path id="ap" d="m19.672 64.797v-56.688h11.922q15.094 0 22.094 6.8281 7 6.8438 7 21.594 0 14.641-7 21.453t-22.094 6.8125zm-9.8594 8.1094h20.266q21.188 0 31.094-8.8125 9.9219-8.8125 9.9219-27.562 0-18.859-9.9688-27.703-9.9531-8.8281-31.047-8.8281h-20.266z"/>
</defs>
<g transform="translate(466.27 333.12) rotate(-86.115) scale(.08 -.08)">
<use xlink:href="#ap"/>
</g>
</g>
<path d="m618.17 217.19 5.0777 2.0409q2.2269 0.89505 3.1219-1.3318l2.8875-7.1839q0.89505-2.2269-1.3318-3.1219l-5.0777-2.0409q-2.2269-0.89505-3.1219 1.3318l-2.8875 7.1839q-0.89505 2.2269 1.3318 3.1219z" clip-path="url(#a)" fill="#fff" stroke="#fff"/>
<g clip-path="url(#a)">
<g transform="translate(619.69 213.42) rotate(21.897) scale(.08 -.08)">
<use xlink:href="#o"/>
</g>
</g>
<path d="m314.95 663.73v33.808q0 2.4 2.4 2.4h7.7425q2.4 0 2.4-2.4v-33.808q0-2.4-2.4-2.4h-7.7425q-2.4 0-2.4 2.4z" clip-path="url(#a)" fill="#fff" stroke="#fff"/>
<g clip-path="url(#a)">
<g transform="translate(319.01 663.73) rotate(90) scale(.08 -.08)">
<use xlink:href="#l"/>
<use x="44.083984" xlink:href="#d"/>
<use x="105.607422" xlink:href="#f"/>
<use x="144.970703" xlink:href="#j"/>
<use x="242.382812" xlink:href="#i"/>
<use x="270.166016" xlink:href="#g"/>
<use x="333.544922" xlink:href="#h"/>
<use x="394.824219" xlink:href="#k"/>
</g>
</g>
<path d="m355.42 663.73v33.808q0 2.4 2.4 2.4h7.7425q2.4 0 2.4-2.4v-33.808q0-2.4-2.4-2.4h-7.7425q-2.4 0-2.4 2.4z" clip-path="url(#a)" fill="#fff" stroke="#fff"/>
<g clip-path="url(#a)">
<g transform="translate(359.49 663.73) rotate(90) scale(.08 -.08)">
<use xlink:href="#l"/>
<use x="44.083984" xlink:href="#d"/>
<use x="105.607422" xlink:href="#f"/>
<use x="144.970703" xlink:href="#j"/>
<use x="242.382812" xlink:href="#i"/>
<use x="270.166016" xlink:href="#g"/>
<use x="333.544922" xlink:href="#h"/>
<use x="394.824219" xlink:href="#k"/>
</g>
</g>
<path d="m433.45 569.67 2.0853-5.1528q0.90032-2.2247-1.3244-3.125l-7.1771-2.9045q-2.2247-0.90032-3.125 1.3244l-2.0853 5.1528q-0.90032 2.2247 1.3244 3.125l7.1771 2.9045q2.2247 0.90032 3.125-1.3244z" clip-path="url(#a)" fill="#fff" stroke="#fff"/>
<g clip-path="url(#a)">
<defs>
<path id="t" d="m44.391 34.188q3.1719-1.0781 6.1719-4.5938t6.0312-9.6719l10.016-19.922h-10.609l-9.3125 18.703q-3.625 7.3281-7.0156 9.7188t-9.25 2.3906h-10.75v-30.812h-9.8594v72.906h22.266q12.5 0 18.656-5.2344 6.1562-5.2188 6.1562-15.766 0-6.8906-3.2031-11.438-3.2031-4.5312-9.2969-6.2812zm-24.719 30.609v-25.875h12.406q7.125 0 10.766 3.2969t3.6406 9.6875-3.6406 9.6406-10.766 3.25z"/>
</defs>
<g transform="translate(429.68 568.15) rotate(-67.967) scale(.08 -.08)">
<use xlink:href="#t"/>
</g>
</g>
<path d="m458.06 567.32 0.041747-5.0548q0.019821-2.3999-2.3801-2.4197l-7.7422-0.063943q-2.3999-0.01982-2.4197 2.3801l-0.041747 5.0548q-0.019821 2.3999 2.3801 2.4197l7.7422 0.063943q2.3999 0.01982 2.4197-2.3801z" clip-path="url(#a)" fill="#fff" stroke="#fff"/>
<g clip-path="url(#a)">
<defs>
<path id="s" d="m9.8125 72.906h46.094v-8.3125h-36.234v-21.578h34.719v-8.2969h-34.719v-26.422h37.109v-8.2969h-46.969z"/>
</defs>
<g transform="translate(453.99 567.29) rotate(-89.527) scale(.08 -.08)">
<use xlink:href="#s"/>
</g>
</g>
<path d="m469.52 564.56 2.1322 5.1633q0.91604 2.2183 3.1343 1.3023l7.1563-2.9552q2.2183-0.91604 1.3023-3.1343l-2.1322-5.1633q-0.91604-2.2183-3.1343-1.3023l-7.1563 2.9552q-2.2183 0.91604-1.3023 3.1343z" clip-path="url(#a)" fill="#fff" stroke="#fff"/>
<g clip-path="url(#a)">
<defs>
<path id="u" d="m64.406 67.281v-10.391q-4.9844 4.6406-10.625 6.9219-5.6406 2.2969-11.984 2.2969-12.5 0-19.141-7.6406t-6.6406-22.094q0-14.406 6.6406-22.047t19.141-7.6406q6.3438 0 11.984 2.2969t10.625 6.9375v-10.312q-5.1719-3.5156-10.969-5.2812-5.7812-1.75-12.219-1.75-16.562 0-26.094 10.125-9.5156 10.141-9.5156 27.672 0 17.578 9.5156 27.703 9.5312 10.141 26.094 10.141 6.5312 0 12.312-1.7344 5.7969-1.7344 10.875-5.2031z"/>
</defs>
<g transform="translate(473.28 563.01) rotate(67.562) scale(.08 -.08)">
<use xlink:href="#u"/>
</g>
</g>
<path d="m665.05 452.9 2.9221-4.7288q1.2616-2.0417-0.78006-3.3033l-6.5865-4.07q-2.0417-1.2616-3.3033 0.78006l-2.9221 4.7288q-1.2616 2.0417 0.78006 3.3033l6.5865 4.07q2.0417 1.2616 3.3033-0.78006z" clip-path="url(#a)" fill="#fff" stroke="#fff"/>
<g clip-path="url(#a)">
<g transform="translate(661.6 450.77) rotate(-58.287) scale(.08 -.08)">
<use xlink:href="#t"/>
</g>
</g>
<path d="m693.28 452.16 2.1191-4.5894q1.0061-2.1789-1.1728-3.185l-7.0294-3.2457q-2.1789-1.0061-3.185 1.1728l-2.1191 4.5894q-1.0061 2.1789 1.1728 3.185l7.0294 3.2457q2.1789 1.0061 3.185-1.1728z" clip-path="url(#a)" fill="#fff" stroke="#fff"/>
<g clip-path="url(#a)">
<g transform="translate(689.59 450.46) rotate(-65.216) scale(.08 -.08)">
<use xlink:href="#s"/>
</g>
</g>
<path d="m774.06 328.89 0.91586 4.9713q0.43483 2.3603 2.7951 1.9254l7.6144-1.4028q2.3603-0.43483 1.9254-2.7951l-0.91587-4.9713q-0.43483-2.3603-2.7951-1.9254l-7.6144 1.4028q-2.3603 0.43483-1.9254 2.7951z" clip-path="url(#a)" fill="#fff" stroke="#fff"/>
<g clip-path="url(#a)">
<g transform="translate(778.06 328.16) rotate(79.561) scale(.08 -.08)">
<use xlink:href="#s"/>
</g>
</g>
<path d="m806.22 446.02 1.3306 5.4255q0.57167 2.3309 2.9026 1.7593l7.5196-1.8442q2.3309-0.57167 1.7593-2.9026l-1.3306-5.4255q-0.57167-2.3309-2.9026-1.7593l-7.5196 1.8442q-2.3309 0.57167-1.7593 2.9026z" clip-path="url(#a)" fill="#fff" stroke="#fff"/>
<g clip-path="url(#a)">
<g transform="translate(810.16 445.05) rotate(76.22) scale(.08 -.08)">
<use xlink:href="#u"/>
</g>
</g>
<path d="m900.92 334.99 4.6387 2.0089q2.2023 0.9538 3.1561-1.2485l3.077-7.1048q0.9538-2.2023-1.2485-3.1561l-4.6387-2.0089q-2.2023-0.9538-3.1561 1.2485l-3.077 7.1048q-0.9538 2.2023 1.2485 3.1561z" clip-path="url(#a)" fill="#fff" stroke="#fff"/>
<g clip-path="url(#a)">
<g transform="translate(902.54 331.26) rotate(23.417) scale(.08 -.08)">
<use xlink:href="#s"/>
</g>
</g>
<path d="m546.25 663.73v33.808q0 2.4 2.4 2.4h7.7425q2.4 0 2.4-2.4v-33.808q0-2.4-2.4-2.4h-7.7425q-2.4 0-2.4 2.4z" clip-path="url(#a)" fill="#fff" stroke="#fff"/>
<g clip-path="url(#a)">
<g transform="translate(550.31 663.73) rotate(90) scale(.08 -.08)">
<use xlink:href="#l"/>
<use x="44.083984" xlink:href="#d"/>
<use x="105.607422" xlink:href="#f"/>
<use x="144.970703" xlink:href="#j"/>
<use x="242.382812" xlink:href="#i"/>
<use x="270.166016" xlink:href="#g"/>
<use x="333.544922" xlink:href="#h"/>
<use x="394.824219" xlink:href="#k"/>
</g>
</g>
<path d="m601.18 663.73v33.808q0 2.4 2.4 2.4h7.7425q2.4 0 2.4-2.4v-33.808q0-2.4-2.4-2.4h-7.7425q-2.4 0-2.4 2.4z" clip-path="url(#a)" fill="#fff" stroke="#fff"/>
<g clip-path="url(#a)">
<g transform="translate(605.24 663.73) rotate(90) scale(.08 -.08)">
<use xlink:href="#l"/>
<use x="44.083984" xlink:href="#d"/>
<use x="105.607422" xlink:href="#f"/>
<use x="144.970703" xlink:href="#j"/>
<use x="242.382812" xlink:href="#i"/>
<use x="270.166016" xlink:href="#g"/>
<use x="333.544922" xlink:href="#h"/>
<use x="394.824219" xlink:href="#k"/>
</g>
</g>
<path d="m817.04 505.12 1.4557 5.2753q0.63842 2.3135 2.9519 1.6751l7.4635-2.0596q2.3135-0.63842 1.6751-2.9519l-1.4557-5.2753q-0.63842-2.3135-2.9519-1.6751l-7.4635 2.0596q-2.3135 0.63842-1.6751 2.9519z" clip-path="url(#a)" fill="#fff" stroke="#fff"/>
<g clip-path="url(#a)">
<g transform="translate(820.96 504.04) rotate(74.573) scale(.08 -.08)">
<use xlink:href="#o"/>
</g>
</g>
<path d="m763.51 453 2.4491-4.4492q1.1573-2.1025-0.94516-3.2599l-6.7828-3.7337q-2.1025-1.1573-3.2599 0.94516l-2.4491 4.4492q-1.1573 2.1025 0.94516 3.2599l6.7828 3.7337q2.1025 1.1573 3.2599-0.94516z" clip-path="url(#a)" fill="#fff" stroke="#fff"/>
<g clip-path="url(#a)">
<defs>
<path id="am" d="m53.516 70.516v-9.625q-5.6094 2.6875-10.594 4-4.9844 1.3281-9.625 1.3281-8.0469 0-12.422-3.125t-4.375-8.8906q0-4.8438 2.9062-7.3125 2.9062-2.4531 11.016-3.9688l5.9531-1.2188q11.031-2.1094 16.281-7.4062t5.25-14.172q0-10.609-7.1094-16.078-7.0938-5.4688-20.812-5.4688-5.1719 0-11.016 1.1719-5.8281 1.1719-12.078 3.4688v10.156q6-3.3594 11.766-5.0781 5.7656-1.7031 11.328-1.7031 8.4375 0 13.031 3.3125 4.5938 3.3281 4.5938 9.4844 0 5.3594-3.2969 8.3906t-10.812 4.5469l-6.0156 1.1719q-11.031 2.1875-15.969 6.875-4.9219 4.6875-4.9219 13.047 0 9.6719 6.8125 15.234t18.766 5.5625q5.1406 0 10.453-0.9375 5.3281-0.92188 10.891-2.7656z"/>
</defs>
<g transform="translate(759.95 451.04) rotate(-61.169) scale(.08 -.08)">
<use xlink:href="#am"/>
</g>
</g>
<path d="m849.83 663.73v33.808q0 2.4 2.4 2.4h7.7425q2.4 0 2.4-2.4v-33.808q0-2.4-2.4-2.4h-7.7425q-2.4 0-2.4 2.4z" clip-path="url(#a)" fill="#fff" stroke="#fff"/>
<g clip-path="url(#a)">
<g transform="translate(853.89 663.73) rotate(90) scale(.08 -.08)">
<use xlink:href="#l"/>
<use x="44.083984" xlink:href="#d"/>
<use x="105.607422" xlink:href="#f"/>
<use x="144.970703" xlink:href="#j"/>
<use x="242.382812" xlink:href="#i"/>
<use x="270.166016" xlink:href="#g"/>
<use x="333.544922" xlink:href="#h"/>
<use x="394.824219" xlink:href="#k"/>
</g>
</g>
<path d="m952.07 512.13 3.3999-4.2882q1.491-1.8806-0.38959-3.3717l-6.067-4.8102q-1.8806-1.491-3.3717 0.38959l-3.3999 4.2882q-1.491 1.8806 0.38959 3.3717l6.067 4.8102q1.8806 1.491 3.3717-0.38959z" clip-path="url(#a)" fill="#fff" stroke="#fff"/>
<g clip-path="url(#a)">
<g transform="translate(948.89 509.61) rotate(-51.591) scale(.08 -.08)">
<use xlink:href="#o"/>
</g>
</g>
<path d="m987.94 511.37 2.4712-4.9792q1.0669-2.1498-1.0829-3.2167l-6.9353-3.442q-2.1498-1.0669-3.2167 1.0829l-2.4712 4.9792q-1.0669 2.1498 1.0829 3.2167l6.9353 3.442q2.1498 1.0669 3.2167-1.0829z" clip-path="url(#a)" fill="#fff" stroke="#fff"/>
<g clip-path="url(#a)">
<g transform="translate(984.3 509.56) rotate(-63.605) scale(.08 -.08)">
<use xlink:href="#t"/>
</g>
</g>
<path d="m1025.4 509.62 0.8885-4.7412q0.44206-2.3589-1.9169-2.801l-7.61-1.4261q-2.3589-0.44206-2.801 1.9169l-0.8885 4.7412q-0.44206 2.3589 1.9169 2.801l7.61 1.4261q2.3589 0.44206 2.801-1.9169z" clip-path="url(#a)" fill="#fff" stroke="#fff"/>
<g clip-path="url(#a)">
<g transform="translate(1021.4 508.87) rotate(-79.386) scale(.08 -.08)">
<use xlink:href="#ah"/>
</g>
</g>
<path d="m1070 448.63 2.8147 4.6931q1.2344 2.0582 3.2926 0.82378l6.6399-3.9823q2.0582-1.2344 0.82379-3.2926l-2.8147-4.6931q-1.2344-2.0582-3.2926-0.82379l-6.6399 3.9823q-2.0582 1.2344-0.82379 3.2926z" clip-path="url(#a)" fill="#fff" stroke="#fff"/>
<g clip-path="url(#a)">
<g transform="translate(1073.5 446.54) rotate(59.047) scale(.08 -.08)">
<use xlink:href="#o"/>
</g>
</g>
<path d="m1174.2 452.44 5.0341 2.1462q2.2077 0.94122 3.149-1.2665l3.0364-7.1223q0.94122-2.2077-1.2665-3.149l-5.0341-2.1462q-2.2077-0.94122-3.149 1.2665l-3.0364 7.1223q-0.94122 2.2077 1.2665 3.149z" clip-path="url(#a)" fill="#fff" stroke="#fff"/>
<g clip-path="url(#a)">
<g transform="translate(1175.8 448.7) rotate(23.09) scale(.08 -.08)">
<use xlink:href="#o"/>
</g>
</g>
<path d="m919.22 663.73v33.808q0 2.4 2.4 2.4h7.7425q2.4 0 2.4-2.4v-33.808q0-2.4-2.4-2.4h-7.7425q-2.4 0-2.4 2.4z" clip-path="url(#a)" fill="#fff" stroke="#fff"/>
<g clip-path="url(#a)">
<g transform="translate(923.28 663.73) rotate(90) scale(.08 -.08)">
<use xlink:href="#l"/>
<use x="44.083984" xlink:href="#d"/>
<use x="105.607422" xlink:href="#f"/>
<use x="144.970703" xlink:href="#j"/>
<use x="242.382812" xlink:href="#i"/>
<use x="270.166016" xlink:href="#g"/>
<use x="333.544922" xlink:href="#h"/>
<use x="394.824219" xlink:href="#k"/>
</g>
</g>
<path d="m991.5 663.73v33.808q0 2.4 2.4 2.4h7.7425q2.4 0 2.4-2.4v-33.808q0-2.4-2.4-2.4h-7.7425q-2.4 0-2.4 2.4z" clip-path="url(#a)" fill="#fff" stroke="#fff"/>
<g clip-path="url(#a)">
<g transform="translate(995.56 663.73) rotate(90) scale(.08 -.08)">
<use xlink:href="#l"/>
<use x="44.083984" xlink:href="#d"/>
<use x="105.607422" xlink:href="#f"/>
<use x="144.970703" xlink:href="#j"/>
<use x="242.382812" xlink:href="#i"/>
<use x="270.166016" xlink:href="#g"/>
<use x="333.544922" xlink:href="#h"/>
<use x="394.824219" xlink:href="#k"/>
</g>
</g>
<path d="m1097.6 569.13 1.6035-4.7939q0.76131-2.2761-1.5147-3.0374l-7.3426-2.456q-2.2761-0.76131-3.0374 1.5147l-1.6035 4.7939q-0.76131 2.2761 1.5147 3.0374l7.3426 2.456q2.2761 0.76131 3.0374-1.5147z" clip-path="url(#a)" fill="#fff" stroke="#fff"/>
<g clip-path="url(#a)">
<g transform="translate(1093.8 567.84) rotate(-71.506) scale(.08 -.08)">
<use xlink:href="#s"/>
</g>
</g>
<path d="m1124.7 564.09 1.772 5.2977q0.76131 2.2761 3.0374 1.5147l7.3426-2.456q2.2761-0.76131 1.5147-3.0374l-1.772-5.2977q-0.76131-2.2761-3.0374-1.5147l-7.3426 2.456q-2.2761 0.76131-1.5147 3.0374z" clip-path="url(#a)" fill="#fff" stroke="#fff"/>
<g clip-path="url(#a)">
<g transform="translate(1128.5 562.8) rotate(71.506) scale(.08 -.08)">
<use xlink:href="#u"/>
</g>
</g>
<path d="m1277.8 570.68 3.2681-4.4966q1.411-1.9414-0.53042-3.3524l-6.2631-4.5519q-1.9414-1.411-3.3524 0.53042l-3.2681 4.4966q-1.411 1.9414 0.53042 3.3524l6.2631 4.5519q1.9414 1.411 3.3524-0.53042z" clip-path="url(#a)" fill="#fff" stroke="#fff"/>
<g clip-path="url(#a)">
<g transform="translate(1274.5 568.29) rotate(-53.991) scale(.08 -.08)">
<use xlink:href="#t"/>
</g>
</g>
<path d="m1322.5 567.59 0.046135-5.5861q0.019821-2.3999-2.3801-2.4197l-7.7422-0.063943q-2.3999-0.01982-2.4197 2.3801l-0.046135 5.5861q-0.019821 2.3999 2.3801 2.4197l7.7422 0.063943q2.3999 0.01982 2.4197-2.3801z" clip-path="url(#a)" fill="#fff" stroke="#fff"/>
<g clip-path="url(#a)">
<g transform="translate(1318.5 567.56) rotate(-89.527) scale(.08 -.08)">
<use xlink:href="#u"/>
</g>
</g>
<path d="m1352.9 566.1 3.4677 4.7176q1.4214 1.9338 3.3552 0.51237l6.2385-4.5856q1.9338-1.4214 0.51237-3.3552l-3.4677-4.7176q-1.4214-1.9338-3.3552-0.51237l-6.2385 4.5856q-1.9338 1.4214-0.51237 3.3552z" clip-path="url(#a)" fill="#fff" stroke="#fff"/>
<g clip-path="url(#a)">
<g transform="translate(1356.1 563.69) rotate(53.682) scale(.08 -.08)">
<use xlink:href="#ag"/>
</g>
</g>
<path d="m1225.7 663.73v33.808q0 2.4 2.4 2.4h7.7425q2.4 0 2.4-2.4v-33.808q0-2.4-2.4-2.4h-7.7425q-2.4 0-2.4 2.4z" clip-path="url(#a)" fill="#fff" stroke="#fff"/>
<g clip-path="url(#a)">
<g transform="translate(1229.8 663.73) rotate(90) scale(.08 -.08)">
<use xlink:href="#l"/>
<use x="44.083984" xlink:href="#d"/>
<use x="105.607422" xlink:href="#f"/>
<use x="144.970703" xlink:href="#j"/>
<use x="242.382812" xlink:href="#i"/>
<use x="270.166016" xlink:href="#g"/>
<use x="333.544922" xlink:href="#h"/>
<use x="394.824219" xlink:href="#k"/>
</g>
</g>
<path d="m1309.5 663.73v33.808q0 2.4 2.4 2.4h7.7425q2.4 0 2.4-2.4v-33.808q0-2.4-2.4-2.4h-7.7425q-2.4 0-2.4 2.4z" clip-path="url(#a)" fill="#fff" stroke="#fff"/>
<g clip-path="url(#a)">
<g transform="translate(1313.6 663.73) rotate(90) scale(.08 -.08)">
<use xlink:href="#l"/>
<use x="44.083984" xlink:href="#d"/>
<use x="105.607422" xlink:href="#f"/>
<use x="144.970703" xlink:href="#j"/>
<use x="242.382812" xlink:href="#i"/>
<use x="270.166016" xlink:href="#g"/>
<use x="333.544922" xlink:href="#h"/>
<use x="394.824219" xlink:href="#k"/>
</g>
</g>
<path d="m1066.7 663.73v33.808q0 2.4 2.4 2.4h7.7425q2.4 0 2.4-2.4v-33.808q0-2.4-2.4-2.4h-7.7425q-2.4 0-2.4 2.4z" clip-path="url(#a)" fill="#fff" stroke="#fff"/>
<g clip-path="url(#a)">
<g transform="translate(1070.7 663.73) rotate(90) scale(.08 -.08)">
<use xlink:href="#l"/>
<use x="44.083984" xlink:href="#d"/>
<use x="105.607422" xlink:href="#f"/>
<use x="144.970703" xlink:href="#j"/>
<use x="242.382812" xlink:href="#i"/>
<use x="270.166016" xlink:href="#g"/>
<use x="333.544922" xlink:href="#h"/>
<use x="394.824219" xlink:href="#k"/>
</g>
</g>
<path d="m1144.7 663.73v33.808q0 2.4 2.4 2.4h7.7425q2.4 0 2.4-2.4v-33.808q0-2.4-2.4-2.4h-7.7425q-2.4 0-2.4 2.4z" clip-path="url(#a)" fill="#fff" stroke="#fff"/>
<g clip-path="url(#a)">
<g transform="translate(1148.8 663.73) rotate(90) scale(.08 -.08)">
<use xlink:href="#l"/>
<use x="44.083984" xlink:href="#d"/>
<use x="105.607422" xlink:href="#f"/>
<use x="144.970703" xlink:href="#j"/>
<use x="242.382812" xlink:href="#i"/>
<use x="270.166016" xlink:href="#g"/>
<use x="333.544922" xlink:href="#h"/>
<use x="394.824219" xlink:href="#k"/>
</g>
</g>
<path d="m697.83 640.24 8.694-32.671q0.61719-2.3193-1.7021-2.9365l-7.4821-1.9911q-2.3193-0.61719-2.9365 1.7021l-8.694 32.671q-0.61719 2.3193 1.7021 2.9365l7.4821 1.9911q2.3193 0.61719 2.9365-1.7021z" clip-path="url(#a)" fill="#fff" stroke="#fff"/>
<g clip-path="url(#a)">
<g transform="translate(693.9 639.19) rotate(-75.098) scale(.08 -.08)">
<use xlink:href="#l"/>
<use x="44.083984" xlink:href="#d"/>
<use x="105.607422" xlink:href="#f"/>
<use x="144.970703" xlink:href="#j"/>
<use x="242.382812" xlink:href="#i"/>
<use x="270.166016" xlink:href="#g"/>
<use x="333.544922" xlink:href="#h"/>
<use x="394.824219" xlink:href="#k"/>
</g>
</g>
<path d="m747.81 607.61 8.8206 32.637q0.62618 2.3169 2.9431 1.6907l7.4743-2.0201q2.3169-0.62618 1.6907-2.9431l-8.8206-32.637q-0.62618-2.3169-2.9431-1.6907l-7.4743 2.0201q-2.3169 0.62618-1.6907 2.9431z" clip-path="url(#a)" fill="#fff" stroke="#fff"/>
<g clip-path="url(#a)">
<g transform="translate(751.74 606.55) rotate(74.876) scale(.08 -.08)">
<use xlink:href="#l"/>
<use x="44.083984" xlink:href="#d"/>
<use x="105.607422" xlink:href="#f"/>
<use x="144.970703" xlink:href="#j"/>
<use x="242.382812" xlink:href="#i"/>
<use x="270.166016" xlink:href="#g"/>
<use x="333.544922" xlink:href="#h"/>
<use x="394.824219" xlink:href="#k"/>
</g>
</g>
<path d="m732.72 567.72 0.048354-5.8548q0.019821-2.3999-2.3801-2.4197l-7.7422-0.063942q-2.3999-0.019821-2.4197 2.3801l-0.048354 5.8548q-0.019821 2.3999 2.3801 2.4197l7.7422 0.063942q2.3999 0.019821 2.4197-2.3801z" clip-path="url(#a)" fill="#fff" stroke="#fff"/>
<g clip-path="url(#a)">
<g transform="translate(728.66 567.69) rotate(-89.527) scale(.08 -.08)">
<use xlink:href="#ag"/>
</g>
</g>
<path d="m398.79 663.73v33.808q0 2.4 2.4 2.4h7.7425q2.4 0 2.4-2.4v-33.808q0-2.4-2.4-2.4h-7.7425q-2.4 0-2.4 2.4z" clip-path="url(#a)" fill="#fff" stroke="#fff"/>
<g clip-path="url(#a)">
<g transform="translate(402.86 663.73) rotate(90) scale(.08 -.08)">
<use xlink:href="#l"/>
<use x="44.083984" xlink:href="#d"/>
<use x="105.607422" xlink:href="#f"/>
<use x="144.970703" xlink:href="#j"/>
<use x="242.382812" xlink:href="#i"/>
<use x="270.166016" xlink:href="#g"/>
<use x="333.544922" xlink:href="#h"/>
<use x="394.824219" xlink:href="#k"/>
</g>
</g>
<path d="m445.05 663.73v33.808q0 2.4 2.4 2.4h7.7425q2.4 0 2.4-2.4v-33.808q0-2.4-2.4-2.4h-7.7425q-2.4 0-2.4 2.4z" clip-path="url(#a)" fill="#fff" stroke="#fff"/>
<g clip-path="url(#a)">
<g transform="translate(449.12 663.73) rotate(90) scale(.08 -.08)">
<use xlink:href="#l"/>
<use x="44.083984" xlink:href="#d"/>
<use x="105.607422" xlink:href="#f"/>
<use x="144.970703" xlink:href="#j"/>
<use x="242.382812" xlink:href="#i"/>
<use x="270.166016" xlink:href="#g"/>
<use x="333.544922" xlink:href="#h"/>
<use x="394.824219" xlink:href="#k"/>
</g>
</g>
<path d="m494.2 663.73v33.808q0 2.4 2.4 2.4h7.7425q2.4 0 2.4-2.4v-33.808q0-2.4-2.4-2.4h-7.7425q-2.4 0-2.4 2.4z" clip-path="url(#a)" fill="#fff" stroke="#fff"/>
<g clip-path="url(#a)">
<g transform="translate(498.27 663.73) rotate(90) scale(.08 -.08)">
<use xlink:href="#l"/>
<use x="44.083984" xlink:href="#d"/>
<use x="105.607422" xlink:href="#f"/>
<use x="144.970703" xlink:href="#j"/>
<use x="242.382812" xlink:href="#i"/>
<use x="270.166016" xlink:href="#g"/>
<use x="333.544922" xlink:href="#h"/>
<use x="394.824219" xlink:href="#k"/>
</g>
</g>
<path d="m84.723 451.07 0.65883-5.0119q0.3128-2.3795-2.0667-2.6923l-7.6765-1.0091q-2.3795-0.3128-2.6923 2.0667l-0.65883 5.0119q-0.3128 2.3795 2.0667 2.6923l7.6765 1.0091q2.3795 0.3128 2.6923-2.0667z" clip-path="url(#a)" fill="#fff" stroke="#fff"/>
<g clip-path="url(#a)">
<g transform="translate(80.694 450.54) rotate(-82.511) scale(.08 -.08)">
<use xlink:href="#s"/>
</g>
</g>
<path d="m80.509 503.58 0.01041 5.055q0.004942 2.4 2.4049 2.3951l7.7425-0.015944q2.4-0.004943 2.3951-2.4049l-0.01041-5.055q-0.004942-2.4-2.4049-2.3951l-7.7425 0.015944q-2.4 0.004942-2.3951 2.4049z" clip-path="url(#a)" fill="#fff" stroke="#fff"/>
<g clip-path="url(#a)">
<g transform="translate(84.573 503.57) rotate(89.882) scale(.08 -.08)">
<use xlink:href="#s"/>
</g>
</g>
<path d="m87.577 503.7 0.3559 5.5749q0.1529 2.3951 2.548 2.2422l7.7268-0.49327q2.3951-0.1529 2.2422-2.548l-0.3559-5.5749q-0.1529-2.3951-2.548-2.2422l-7.7268 0.49327q-2.3951 0.1529-2.2422 2.548z" clip-path="url(#a)" fill="#fff" stroke="#fff"/>
<g clip-path="url(#a)">
<g transform="translate(91.633 503.45) rotate(86.347) scale(.08 -.08)">
<use xlink:href="#u"/>
</g>
</g>
<path d="m112.56 663.73v33.808q0 2.4 2.4 2.4h7.7425q2.4 0 2.4-2.4v-33.808q0-2.4-2.4-2.4h-7.7425q-2.4 0-2.4 2.4z" clip-path="url(#a)" fill="#fff" stroke="#fff"/>
<g clip-path="url(#a)">
<g transform="translate(116.62 663.73) rotate(90) scale(.08 -.08)">
<use xlink:href="#l"/>
<use x="44.083984" xlink:href="#d"/>
<use x="105.607422" xlink:href="#f"/>
<use x="144.970703" xlink:href="#j"/>
<use x="242.382812" xlink:href="#i"/>
<use x="270.166016" xlink:href="#g"/>
<use x="333.544922" xlink:href="#h"/>
<use x="394.824219" xlink:href="#k"/>
</g>
</g>
<path d="m132.8 663.73v33.808q0 2.4 2.4 2.4h7.7425q2.4 0 2.4-2.4v-33.808q0-2.4-2.4-2.4h-7.7425q-2.4 0-2.4 2.4z" clip-path="url(#a)" fill="#fff" stroke="#fff"/>
<g clip-path="url(#a)">
<g transform="translate(136.86 663.73) rotate(90) scale(.08 -.08)">
<use xlink:href="#l"/>
<use x="44.083984" xlink:href="#d"/>
<use x="105.607422" xlink:href="#f"/>
<use x="144.970703" xlink:href="#j"/>
<use x="242.382812" xlink:href="#i"/>
<use x="270.166016" xlink:href="#g"/>
<use x="333.544922" xlink:href="#h"/>
<use x="394.824219" xlink:href="#k"/>
</g>
</g>
<path d="m181.18 568.87 1.2524-5.4158q0.54073-2.3383-1.7976-2.879l-7.5434-1.7444q-2.3383-0.54073-2.879 1.7976l-1.2524 5.4158q-0.54073 2.3383 1.7976 2.879l7.5434 1.7444q2.3383 0.54073 2.879-1.7976z" clip-path="url(#a)" fill="#fff" stroke="#fff"/>
<g clip-path="url(#a)">
<g transform="translate(177.22 567.95) rotate(-76.979) scale(.08 -.08)">
<use xlink:href="#t"/>
</g>
</g>
<path d="m194.95 567.32 0.041748-5.0548q0.01982-2.3999-2.3801-2.4197l-7.7422-0.063943q-2.3999-0.01982-2.4197 2.3801l-0.041747 5.0548q-0.019821 2.3999 2.3801 2.4197l7.7422 0.063943q2.3999 0.01982 2.4197-2.3801z" clip-path="url(#a)" fill="#fff" stroke="#fff"/>
<g clip-path="url(#a)">
<g transform="translate(190.89 567.29) rotate(-89.527) scale(.08 -.08)">
<use xlink:href="#s"/>
</g>
</g>
<path d="m196.41 563.49 1.3012 5.4326q0.55901 2.334 2.893 1.775l7.5295-1.8034q2.334-0.55901 1.775-2.893l-1.3012-5.4326q-0.55901-2.334-2.893-1.775l-7.5295 1.8034q-2.334 0.55901-1.775 2.893z" clip-path="url(#a)" fill="#fff" stroke="#fff"/>
<g clip-path="url(#a)">
<g transform="translate(200.36 562.54) rotate(76.531) scale(.08 -.08)">
<use xlink:href="#u"/>
</g>
</g>
<path d="m155.93 663.73v33.808q0 2.4 2.4 2.4h7.7425q2.4 0 2.4-2.4v-33.808q0-2.4-2.4-2.4h-7.7425q-2.4 0-2.4 2.4z" clip-path="url(#a)" fill="#fff" stroke="#fff"/>
<g clip-path="url(#a)">
<g transform="translate(159.99 663.73) rotate(90) scale(.08 -.08)">
<use xlink:href="#l"/>
<use x="44.083984" xlink:href="#d"/>
<use x="105.607422" xlink:href="#f"/>
<use x="144.970703" xlink:href="#j"/>
<use x="242.382812" xlink:href="#i"/>
<use x="270.166016" xlink:href="#g"/>
<use x="333.544922" xlink:href="#h"/>
<use x="394.824219" xlink:href="#k"/>
</g>
</g>
<path d="m181.95 663.73v33.808q0 2.4 2.4 2.4h7.7425q2.4 0 2.4-2.4v-33.808q0-2.4-2.4-2.4h-7.7425q-2.4 0-2.4 2.4z" clip-path="url(#a)" fill="#fff" stroke="#fff"/>
<g clip-path="url(#a)">
<g transform="translate(186.01 663.73) rotate(90) scale(.08 -.08)">
<use xlink:href="#l"/>
<use x="44.083984" xlink:href="#d"/>
<use x="105.607422" xlink:href="#f"/>
<use x="144.970703" xlink:href="#j"/>
<use x="242.382812" xlink:href="#i"/>
<use x="270.166016" xlink:href="#g"/>
<use x="333.544922" xlink:href="#h"/>
<use x="394.824219" xlink:href="#k"/>
</g>
</g>
<path d="m210.86 663.73v33.808q0 2.4 2.4 2.4h7.7425q2.4 0 2.4-2.4v-33.808q0-2.4-2.4-2.4h-7.7425q-2.4 0-2.4 2.4z" clip-path="url(#a)" fill="#fff" stroke="#fff"/>
<g clip-path="url(#a)">
<g transform="translate(214.93 663.73) rotate(90) scale(.08 -.08)">
<use xlink:href="#l"/>
<use x="44.083984" xlink:href="#d"/>
<use x="105.607422" xlink:href="#f"/>
<use x="144.970703" xlink:href="#j"/>
<use x="242.382812" xlink:href="#i"/>
<use x="270.166016" xlink:href="#g"/>
<use x="333.544922" xlink:href="#h"/>
<use x="394.824219" xlink:href="#k"/>
</g>
</g>
<path d="m75.12 567.77 0.20747-5.5824q0.089135-2.3983-2.3092-2.4875l-7.7372-0.28755q-2.3983-0.089135-2.4875 2.3092l-0.20747 5.5824q-0.089135 2.3983 2.3092 2.4875l7.7372 0.28755q2.3983 0.089135 2.4875-2.3092z" clip-path="url(#a)" fill="#fff" stroke="#fff"/>
<g clip-path="url(#a)">
<g transform="translate(71.059 567.62) rotate(-87.872) scale(.08 -.08)">
<use xlink:href="#u"/>
</g>
</g>
<path d="m66.923 562.2 0.20645 5.5549q0.089135 2.3983 2.4875 2.3092l7.7372-0.28755q2.3983-0.089135 2.3092-2.4875l-0.20645-5.5549q-0.089134-2.3983-2.4875-2.3092l-7.7372 0.28755q-2.3983 0.089135-2.3092 2.4875z" clip-path="url(#a)" fill="#fff" stroke="#fff"/>
<g clip-path="url(#a)">
<g transform="translate(70.984 562.05) rotate(87.872) scale(.08 -.08)">
<use xlink:href="#t"/>
</g>
</g>
<path d="m80.755 663.73v33.808q0 2.4 2.4 2.4h7.7425q2.4 0 2.4-2.4v-33.808q0-2.4-2.4-2.4h-7.7425q-2.4 0-2.4 2.4z" clip-path="url(#a)" fill="#fff" stroke="#fff"/>
<g clip-path="url(#a)">
<g transform="translate(84.819 663.73) rotate(90) scale(.08 -.08)">
<use xlink:href="#l"/>
<use x="44.083984" xlink:href="#d"/>
<use x="105.607422" xlink:href="#f"/>
<use x="144.970703" xlink:href="#j"/>
<use x="242.382812" xlink:href="#i"/>
<use x="270.166016" xlink:href="#g"/>
<use x="333.544922" xlink:href="#h"/>
<use x="394.824219" xlink:href="#k"/>
</g>
</g>
<path d="m95.212 663.73v33.808q0 2.4 2.4 2.4h7.7425q2.4 0 2.4-2.4v-33.808q0-2.4-2.4-2.4h-7.7425q-2.4 0-2.4 2.4z" clip-path="url(#a)" fill="#fff" stroke="#fff"/>
<g clip-path="url(#a)">
<g transform="translate(99.275 663.73) rotate(90) scale(.08 -.08)">
<use xlink:href="#l"/>
<use x="44.083984" xlink:href="#d"/>
<use x="105.607422" xlink:href="#f"/>
<use x="144.970703" xlink:href="#j"/>
<use x="242.382812" xlink:href="#i"/>
<use x="270.166016" xlink:href="#g"/>
<use x="333.544922" xlink:href="#h"/>
<use x="394.824219" xlink:href="#k"/>
</g>
</g>
<path d="m60.517 663.73v33.808q0 2.4 2.4 2.4h7.7425q2.4 0 2.4-2.4v-33.808q0-2.4-2.4-2.4h-7.7425q-2.4 0-2.4 2.4z" clip-path="url(#a)" fill="#fff" stroke="#fff"/>
<g clip-path="url(#a)">
<g transform="translate(64.58 663.73) rotate(90) scale(.08 -.08)">
<use xlink:href="#l"/>
<use x="44.083984" xlink:href="#d"/>
<use x="105.607422" xlink:href="#f"/>
<use x="144.970703" xlink:href="#j"/>
<use x="242.382812" xlink:href="#i"/>
<use x="270.166016" xlink:href="#g"/>
<use x="333.544922" xlink:href="#h"/>
<use x="394.824219" xlink:href="#k"/>
</g>
</g>
<path d="m69.19 663.73v33.808q0 2.4 2.4 2.4h7.7425q2.4 0 2.4-2.4v-33.808q0-2.4-2.4-2.4h-7.7425q-2.4 0-2.4 2.4z" clip-path="url(#a)" fill="#fff" stroke="#fff"/>
<g clip-path="url(#a)">
<g transform="translate(73.254 663.73) rotate(90) scale(.08 -.08)">
<use xlink:href="#l"/>
<use x="44.083984" xlink:href="#d"/>
<use x="105.607422" xlink:href="#f"/>
<use x="144.970703" xlink:href="#j"/>
<use x="242.382812" xlink:href="#i"/>
<use x="270.166016" xlink:href="#g"/>
<use x="333.544922" xlink:href="#h"/>
<use x="394.824219" xlink:href="#k"/>
</g>
</g>
<path d="m217.85 161 5.7739-8.299q1.3707-1.9701-0.59944-3.3408l-6.3556-4.4218q-1.9701-1.3707-3.3408 0.59944l-5.7739 8.299q-1.3707 1.9701 0.59944 3.3408l6.3556 4.4218q1.9701 1.3707 3.3408-0.59944z" clip-path="url(#a)" fill="#fff" stroke="#fff"/>
<g clip-path="url(#a)">
<g transform="translate(214.51 158.68) rotate(-55.172) scale(.08 -.08)">
<use xlink:href="#z"/>
<use x="57.962891" xlink:href="#o"/>
</g>
</g>
<path d="m296.85 334.28 0.24074-10.013q0.057684-2.3993-2.3416-2.457l-7.7403-0.18609q-2.3993-0.057683-2.457 2.3416l-0.24074 10.013q-0.057684 2.3993 2.3416 2.457l7.7403 0.18609q2.3993 0.057683 2.457-2.3416z" clip-path="url(#a)" fill="#fff" stroke="#fff"/>
<g clip-path="url(#a)">
<g transform="translate(292.79 334.18) rotate(-88.623) scale(.08 -.08)">
<use xlink:href="#z"/>
<use x="55.712891" xlink:href="#t"/>
</g>
</g>
<path d="m379.34 96.708 8.4285 5.5832q2.0008 1.3254 3.3262-0.67543l4.2758-6.4548q1.3254-2.0008-0.67544-3.3262l-8.4285-5.5832q-2.0008-1.3254-3.3262 0.67544l-4.2758 6.4548q-1.3254 2.0008 0.67543 3.3262z" clip-path="url(#a)" fill="#fff" stroke="#fff"/>
<g clip-path="url(#a)">
<g transform="translate(381.58 93.32) rotate(33.521) scale(.08 -.08)">
<use xlink:href="#z"/>
<use x="57.962891" xlink:href="#o"/>
</g>
</g>
<path d="m242.67 663.73v33.808q0 2.4 2.4 2.4h7.7425q2.4 0 2.4-2.4v-33.808q0-2.4-2.4-2.4h-7.7425q-2.4 0-2.4 2.4z" clip-path="url(#a)" fill="#fff" stroke="#fff"/>
<g clip-path="url(#a)">
<g transform="translate(246.73 663.73) rotate(90) scale(.08 -.08)">
<use xlink:href="#l"/>
<use x="44.083984" xlink:href="#d"/>
<use x="105.607422" xlink:href="#f"/>
<use x="144.970703" xlink:href="#j"/>
<use x="242.382812" xlink:href="#i"/>
<use x="270.166016" xlink:href="#g"/>
<use x="333.544922" xlink:href="#h"/>
<use x="394.824219" xlink:href="#k"/>
</g>
</g>
<path d="m719.72 663.73v33.808q0 2.4 2.4 2.4h7.7425q2.4 0 2.4-2.4v-33.808q0-2.4-2.4-2.4h-7.7425q-2.4 0-2.4 2.4z" clip-path="url(#a)" fill="#fff" stroke="#fff"/>
<g clip-path="url(#a)">
<g transform="translate(723.79 663.73) rotate(90) scale(.08 -.08)">
<use xlink:href="#l"/>
<use x="44.083984" xlink:href="#d"/>
<use x="105.607422" xlink:href="#f"/>
<use x="144.970703" xlink:href="#j"/>
<use x="242.382812" xlink:href="#i"/>
<use x="270.166016" xlink:href="#g"/>
<use x="333.544922" xlink:href="#h"/>
<use x="394.824219" xlink:href="#k"/>
</g>
</g>
<path d="m1396.3 663.73v33.808q0 2.4 2.4 2.4h7.7425q2.4 0 2.4-2.4v-33.808q0-2.4-2.4-2.4h-7.7425q-2.4 0-2.4 2.4z" clip-path="url(#a)" fill="#fff" stroke="#fff"/>
<g clip-path="url(#a)">
<g transform="translate(1400.3 663.73) rotate(90) scale(.08 -.08)">
<use xlink:href="#l"/>
<use x="44.083984" xlink:href="#d"/>
<use x="105.607422" xlink:href="#f"/>
<use x="144.970703" xlink:href="#j"/>
<use x="242.382812" xlink:href="#i"/>
<use x="270.166016" xlink:href="#g"/>
<use x="333.544922" xlink:href="#h"/>
<use x="394.824219" xlink:href="#k"/>
</g>
</g>
<defs>
<path id="b" d="m0 8.6603c2.2967 0 4.4997-0.9125 6.1237-2.5365 1.624-1.624 2.5365-3.827 2.5365-6.1237s-0.9125-4.4997-2.5365-6.1237c-1.624-1.624-3.827-2.5365-6.1237-2.5365s-4.4997 0.9125-6.1237 2.5365c-1.624 1.624-2.5365 3.827-2.5365 6.1237s0.9125 4.4997 2.5365 6.1237c1.624 1.624 3.827 2.5365 6.1237 2.5365z"/>
</defs>
<g clip-path="url(#a)">
<use x="66.787879" y="738.181818" fill="#ffffff" stroke="#ffffff" xlink:href="#b"/>
<use x="75.461629" y="738.181818" fill="#ffffff" stroke="#ffffff" xlink:href="#b"/>
<use x="87.02663" y="738.181818" fill="#ffffff" stroke="#ffffff" xlink:href="#b"/>
<use x="101.482881" y="738.181818" fill="#ffffff" stroke="#ffffff" xlink:href="#b"/>
<use x="118.830382" y="738.181818" fill="#ffffff" stroke="#ffffff" xlink:href="#b"/>
<use x="139.069133" y="738.181818" fill="#ffffff" stroke="#ffffff" xlink:href="#b"/>
<use x="162.199134" y="738.181818" fill="#ffffff" stroke="#ffffff" xlink:href="#b"/>
<use x="188.220386" y="738.181818" fill="#ffffff" stroke="#ffffff" xlink:href="#b"/>
<use x="217.132887" y="738.181818" fill="#ffffff" stroke="#ffffff" xlink:href="#b"/>
<use x="248.936639" y="738.181818" fill="#ffffff" stroke="#ffffff" xlink:href="#b"/>
<use x="283.631641" y="738.181818" fill="#ffffff" stroke="#ffffff" xlink:href="#b"/>
<use x="321.217893" y="738.181818" fill="#ffffff" stroke="#ffffff" xlink:href="#b"/>
<use x="361.695396" y="738.181818" fill="#ffffff" stroke="#ffffff" xlink:href="#b"/>
<use x="405.064148" y="738.181818" fill="#ffffff" stroke="#ffffff" xlink:href="#b"/>
<use x="451.324151" y="738.181818" fill="#ffffff" stroke="#ffffff" xlink:href="#b"/>
<use x="500.475403" y="738.181818" fill="#ffffff" stroke="#ffffff" xlink:href="#b"/>
<use x="552.517906" y="738.181818" fill="#ffffff" stroke="#ffffff" xlink:href="#b"/>
<use x="607.451659" y="738.181818" fill="#ffffff" stroke="#ffffff" xlink:href="#b"/>
<use x="665.276663" y="738.181818" fill="#ffffff" stroke="#ffffff" xlink:href="#b"/>
<use x="725.992916" y="738.181818" fill="#ffffff" stroke="#ffffff" xlink:href="#b"/>
<use x="789.60042" y="738.181818" fill="#ffffff" stroke="#ffffff" xlink:href="#b"/>
<use x="856.099174" y="738.181818" fill="#ffffff" stroke="#ffffff" xlink:href="#b"/>
<use x="925.489177" y="738.181818" fill="#ffffff" stroke="#ffffff" xlink:href="#b"/>
<use x="997.770432" y="738.181818" fill="#ffffff" stroke="#ffffff" xlink:href="#b"/>
<use x="1072.942936" y="738.181818" fill="#ffffff" stroke="#ffffff" xlink:href="#b"/>
<use x="1151.00669" y="738.181818" fill="#ffffff" stroke="#ffffff" xlink:href="#b"/>
<use x="1231.961695" y="738.181818" fill="#ffffff" stroke="#ffffff" xlink:href="#b"/>
<use x="1315.80795" y="738.181818" fill="#ffffff" stroke="#ffffff" xlink:href="#b"/>
<use x="1402.545455" y="738.181818" fill="#ffffff" stroke="#ffffff" xlink:href="#b"/>
<use x="285.559141" y="35.151515" fill="#ffffff" stroke="#ffffff" xlink:href="#b"/>
<use x="133.407101" y="271.391464" fill="#ffffff" stroke="#ffffff" xlink:href="#b"/>
<use x="283.631641" y="623.09084" fill="#ffffff" stroke="#ffffff" xlink:href="#b"/>
<use x="476.261183" y="153.390406" fill="#ffffff" stroke="#ffffff" xlink:href="#b"/>
<use x="321.217893" y="623.09084" fill="#ffffff" stroke="#ffffff" xlink:href="#b"/>
<use x="361.695396" y="623.09084" fill="#ffffff" stroke="#ffffff" xlink:href="#b"/>
<use x="452.287901" y="506.398819" fill="#ffffff" stroke="#ffffff" xlink:href="#b"/>
<use x="769.843544" y="271.391464" fill="#ffffff" stroke="#ffffff" xlink:href="#b"/>
<use x="552.517906" y="623.09084" fill="#ffffff" stroke="#ffffff" xlink:href="#b"/>
<use x="607.451659" y="623.09084" fill="#ffffff" stroke="#ffffff" xlink:href="#b"/>
<use x="791.52792" y="389.094759" fill="#ffffff" stroke="#ffffff" xlink:href="#b"/>
<use x="856.099174" y="623.09084" fill="#ffffff" stroke="#ffffff" xlink:href="#b"/>
<use x="1041.621059" y="389.094759" fill="#ffffff" stroke="#ffffff" xlink:href="#b"/>
<use x="925.489177" y="623.09084" fill="#ffffff" stroke="#ffffff" xlink:href="#b"/>
<use x="997.770432" y="623.09084" fill="#ffffff" stroke="#ffffff" xlink:href="#b"/>
<use x="1111.974813" y="506.398819" fill="#ffffff" stroke="#ffffff" xlink:href="#b"/>
<use x="1316.7717" y="506.398819" fill="#ffffff" stroke="#ffffff" xlink:href="#b"/>
<use x="1231.961695" y="623.09084" fill="#ffffff" stroke="#ffffff" xlink:href="#b"/>
<use x="1315.80795" y="623.09084" fill="#ffffff" stroke="#ffffff" xlink:href="#b"/>
<use x="1072.942936" y="623.09084" fill="#ffffff" stroke="#ffffff" xlink:href="#b"/>
<use x="1151.00669" y="623.09084" fill="#ffffff" stroke="#ffffff" xlink:href="#b"/>
<use x="726.956666" y="506.398819" fill="#ffffff" stroke="#ffffff" xlink:href="#b"/>
<use x="405.064148" y="623.09084" fill="#ffffff" stroke="#ffffff" xlink:href="#b"/>
<use x="451.324151" y="623.09084" fill="#ffffff" stroke="#ffffff" xlink:href="#b"/>
<use x="500.475403" y="623.09084" fill="#ffffff" stroke="#ffffff" xlink:href="#b"/>
<use x="86.544755" y="389.094759" fill="#ffffff" stroke="#ffffff" xlink:href="#b"/>
<use x="118.830382" y="623.09084" fill="#ffffff" stroke="#ffffff" xlink:href="#b"/>
<use x="139.069133" y="623.09084" fill="#ffffff" stroke="#ffffff" xlink:href="#b"/>
<use x="189.184136" y="506.398819" fill="#ffffff" stroke="#ffffff" xlink:href="#b"/>
<use x="162.199134" y="623.09084" fill="#ffffff" stroke="#ffffff" xlink:href="#b"/>
<use x="188.220386" y="623.09084" fill="#ffffff" stroke="#ffffff" xlink:href="#b"/>
<use x="217.132887" y="623.09084" fill="#ffffff" stroke="#ffffff" xlink:href="#b"/>
<use x="71.124754" y="506.398819" fill="#ffffff" stroke="#ffffff" xlink:href="#b"/>
<use x="87.02663" y="623.09084" fill="#ffffff" stroke="#ffffff" xlink:href="#b"/>
<use x="101.482881" y="623.09084" fill="#ffffff" stroke="#ffffff" xlink:href="#b"/>
<use x="66.787879" y="623.09084" fill="#ffffff" stroke="#ffffff" xlink:href="#b"/>
<use x="75.461629" y="623.09084" fill="#ffffff" stroke="#ffffff" xlink:href="#b"/>
<use x="297.766642" y="35.151515" fill="#808080" stroke="#808080" xlink:href="#b"/>
<use x="248.936639" y="623.09084" fill="#ffffff" stroke="#ffffff" xlink:href="#b"/>
<use x="725.992916" y="623.09084" fill="#ffffff" stroke="#ffffff" xlink:href="#b"/>
<use x="1402.545455" y="623.09084" fill="#ffffff" stroke="#ffffff" xlink:href="#b"/>
</g>
<g clip-path="url(#a)">
<defs>
<path id="an" d="m39.406 66.219q-10.75 0-17.078-8.0156-6.3125-8-6.3125-21.828 0-13.766 6.3125-21.781 6.3281-8 17.078-8 10.734 0 17.016 8 6.2812 8.0156 6.2812 21.781 0 13.828-6.2812 21.828-6.2812 8.0156-17.016 8.0156zm0 8q15.328 0 24.5-10.281 9.1875-10.281 9.1875-27.562 0-17.234-9.1875-27.516-9.1719-10.281-24.5-10.281-15.375 0-24.594 10.25-9.2031 10.266-9.2031 27.547t9.2031 27.562q9.2188 10.281 24.594 10.281z"/>
</defs>
<g transform="translate(56.607 740.94) scale(.1 -.1)">
<use xlink:href="#an"/>
<use x="78.710938" xlink:href="#g"/>
<use x="142.089844" xlink:href="#d"/>
</g>
</g>
<g clip-path="url(#a)">
<defs>
<path id="p" d="m30.609 48.391q-7.2188 0-11.422-5.6406t-4.2031-15.453 4.1719-15.453q4.1875-5.6406 11.453-5.6406 7.1875 0 11.375 5.6562 4.2031 5.6719 4.2031 15.438 0 9.7188-4.2031 15.406-4.1875 5.6875-11.375 5.6875zm0 7.6094q11.719 0 18.406-7.625 6.7031-7.6094 6.7031-21.078 0-13.422-6.7031-21.078-6.6875-7.6406-18.406-7.6406-11.766 0-18.438 7.6406-6.6562 7.6562-6.6562 21.078 0 13.469 6.6562 21.078 6.6719 7.625 18.438 7.625z"/>
<path id="y" d="m37.109 75.984v-7.4844h-8.5938q-4.8281 0-6.7188-1.9531-1.875-1.9531-1.875-7.0312v-4.8281h14.797v-6.9844h-14.797v-47.703h-9.0312v47.703h-8.5938v6.9844h8.5938v3.8125q0 9.125 4.25 13.297 4.25 4.1875 13.469 4.1875z"/>
</defs>
<g transform="translate(70.642 740.94) scale(.1 -.1)">
<use xlink:href="#p"/>
<use x="61.181641" xlink:href="#y"/>
</g>
</g>
<g clip-path="url(#a)">
<defs>
<path id="r" d="m18.312 70.219v-15.531h18.5v-6.9844h-18.5v-29.688q0-6.6875 1.8281-8.5938t7.4531-1.9062h9.2188v-7.5156h-9.2188q-10.406 0-14.359 3.875-3.9531 3.8906-3.9531 14.141v29.688h-6.5938v6.9844h6.5938v15.531z"/>
<path id="v" d="m54.891 33.016v-33.016h-8.9844v32.719q0 7.7656-3.0312 11.609-3.0312 3.8594-9.0781 3.8594-7.2812 0-11.484-4.6406-4.2031-4.625-4.2031-12.641v-30.906h-9.0312v75.984h9.0312v-29.797q3.2344 4.9375 7.5938 7.375 4.375 2.4375 10.094 2.4375 9.4219 0 14.25-5.8281 4.8438-5.8281 4.8438-17.156z"/>
</defs>
<g transform="translate(78.821 740.94) scale(.1 -.1)">
<use xlink:href="#r"/>
<use x="39.208984" xlink:href="#v"/>
<use x="102.587891" xlink:href="#d"/>
</g>
</g>
<g clip-path="url(#a)">
<defs>
<path id="w" d="m44.281 53.078v-8.5q-3.7969 1.9531-7.9062 2.9219-4.0938 0.98438-8.5 0.98438-6.6875 0-10.031-2.0469t-3.3438-6.1562q0-3.125 2.3906-4.9062t9.625-3.3906l3.0781-0.6875q9.5625-2.0469 13.594-5.7812t4.0312-10.422q0-7.625-6.0312-12.078-6.0312-4.4375-16.578-4.4375-4.3906 0-9.1562 0.85938t-10.031 2.5625v9.2812q4.9844-2.5938 9.8125-3.8906 4.8281-1.2812 9.5781-1.2812 6.3438 0 9.75 2.1719 3.4219 2.1719 3.4219 6.125 0 3.6562-2.4688 5.6094-2.4531 1.9531-10.812 3.7656l-3.125 0.73438q-8.3438 1.75-12.062 5.3906-3.7031 3.6406-3.7031 9.9844 0 7.7188 5.4688 11.906 5.4688 4.2031 15.531 4.2031 4.9688 0 9.3594-0.73438 4.4062-0.71875 8.1094-2.1875z"/>
</defs>
<g transform="translate(85.316 740.94) scale(.1 -.1)">
<use xlink:href="#w"/>
<use x="52.099609" xlink:href="#h"/>
<use x="113.378906" xlink:href="#i"/>
<use x="141.162109" xlink:href="#k"/>
<use x="168.945312" xlink:href="#p"/>
<use x="230.126953" xlink:href="#f"/>
<use x="271.240234" xlink:href="#w"/>
</g>
</g>
<g clip-path="url(#a)">
<defs>
<path id="x" d="m45.406 46.391v29.594h8.9844v-75.984h-8.9844v8.2031q-2.8281-4.875-7.1562-7.25-4.3125-2.375-10.375-2.375-9.9062 0-16.141 7.9062-6.2188 7.9219-6.2188 20.812t6.2188 20.797q6.2344 7.9062 16.141 7.9062 6.0625 0 10.375-2.375 4.3281-2.3594 7.1562-7.2344zm-30.609-19.094q0-9.9062 4.0781-15.547t11.203-5.6406 11.219 5.6406q4.1094 5.6406 4.1094 15.547t-4.1094 15.547q-4.0938 5.6406-11.219 5.6406t-11.203-5.6406-4.0781-15.547z"/>
</defs>
<g transform="translate(111.19 740.94) scale(.1 -.1)">
<use xlink:href="#k"/>
<use x="27.783203" xlink:href="#d"/>
<use x="89.306641" xlink:href="#x"/>
</g>
</g>
<g clip-path="url(#a)">
<g transform="translate(131.12 740.94) scale(.1 -.1)">
<use xlink:href="#j"/>
<use x="97.412109" xlink:href="#d"/>
</g>
</g>
<g clip-path="url(#a)">
<g transform="translate(157.18 740.94) scale(.1 -.1)">
<use xlink:href="#r"/>
<use x="39.208984" xlink:href="#p"/>
</g>
</g>
<g clip-path="url(#a)">
<g transform="translate(180.01 740.94) scale(.1 -.1)">
<use xlink:href="#r"/>
<use x="39.208984" xlink:href="#v"/>
<use x="102.587891" xlink:href="#d"/>
</g>
</g>
<g clip-path="url(#a)">
<defs>
<path id="af" d="m48.781 52.594v-8.4062q-3.8125 2.1094-7.6406 3.1562t-7.7344 1.0469q-8.75 0-13.594-5.5469-4.8281-5.5312-4.8281-15.547t4.8281-15.562q4.8438-5.5312 13.594-5.5312 3.9062 0 7.7344 1.0469t7.6406 3.1562v-8.3125q-3.7656-1.75-7.7969-2.625-4.0156-0.89062-8.5625-0.89062-12.359 0-19.641 7.7656-7.2656 7.7656-7.2656 20.953 0 13.375 7.3438 21.031 7.3594 7.6719 20.156 7.6719 4.1406 0 8.0938-0.85938 3.9531-0.84375 7.6719-2.5469z"/>
<path id="al" d="m9.0781 75.984h9.0312v-44.875l26.812 23.578h11.469l-29-25.578 30.234-29.109h-11.719l-27.797 26.703v-26.703h-9.0312z"/>
</defs>
<g transform="translate(193.5 740.94) scale(.1 -.1)">
<use xlink:href="#h"/>
<use x="61.279297" xlink:href="#y"/>
<use x="94.734375" xlink:href="#r"/>
<use x="133.943359" xlink:href="#d"/>
<use x="195.466797" xlink:href="#f"/>
<use x="234.830078" xlink:href="#x"/>
<use x="298.306641" xlink:href="#d"/>
<use x="359.830078" xlink:href="#af"/>
<use x="414.810547" xlink:href="#al"/>
</g>
</g>
<g clip-path="url(#a)">
<defs>
<path id="ar" d="m11.719 12.406h10.297v-8.4062l-8-15.625h-6.2969l4 15.625z"/>
</defs>
<g transform="translate(247.35 740.94) scale(.1 -.1)">
<use xlink:href="#ar"/>
</g>
</g>
<g clip-path="url(#a)">
<defs>
<path id="ak" d="m4.2031 54.688h8.9844l11.234-42.672 11.172 42.672h10.594l11.234-42.672 11.188 42.672h8.9844l-14.312-54.688h-10.594l-11.766 44.828-11.812-44.828h-10.609z"/>
</defs>
<g transform="translate(268.28 740.94) scale(.1 -.1)">
<use xlink:href="#ak"/>
<use x="81.787109" xlink:href="#v"/>
<use x="145.166016" xlink:href="#d"/>
<use x="206.689453" xlink:href="#f"/>
<use x="245.552734" xlink:href="#d"/>
</g>
</g>
<g clip-path="url(#a)">
<defs>
<path id="ao" d="m9.8125 72.906h9.8594v-72.906h-9.8594z"/>
</defs>
<g transform="translate(319.74 740.94) scale(.1 -.1)">
<use xlink:href="#ao"/>
</g>
</g>
<g clip-path="url(#a)">
<g transform="translate(347.84 740.94) scale(.1 -.1)">
<use xlink:href="#w"/>
<use x="52.099609" xlink:href="#r"/>
<use x="91.308594" xlink:href="#p"/>
<use x="152.490234" xlink:href="#p"/>
<use x="213.671875" xlink:href="#x"/>
</g>
</g>
<g clip-path="url(#a)">
<g transform="translate(400.51 740.94) scale(.1 -.1)">
<use xlink:href="#i"/>
<use x="27.783203" xlink:href="#g"/>
</g>
</g>
<g clip-path="url(#a)">
<g transform="translate(443.12 740.94) scale(.1 -.1)">
<use xlink:href="#r"/>
<use x="39.208984" xlink:href="#v"/>
<use x="102.587891" xlink:href="#d"/>
</g>
</g>
<g clip-path="url(#a)">
<defs>
<path id="at" d="m18.109 8.2031v-29h-9.0312v75.484h9.0312v-8.2969q2.8438 4.875 7.1562 7.2344 4.3281 2.375 10.328 2.375 9.9688 0 16.188-7.9062 6.2344-7.9062 6.2344-20.797t-6.2344-20.812q-6.2188-7.9062-16.188-7.9062-6 0-10.328 2.375-4.3125 2.375-7.1562 7.25zm30.578 19.094q0 9.9062-4.0781 15.547t-11.203 5.6406q-7.1406 0-11.219-5.6406t-4.0781-15.547 4.0781-15.547 11.219-5.6406q7.125 0 11.203 5.6406t4.0781 15.547z"/>
</defs>
<g transform="translate(477.61 740.94) scale(.1 -.1)">
<use xlink:href="#at"/>
<use x="63.476562" xlink:href="#f"/>
<use x="102.339844" xlink:href="#d"/>
<use x="163.863281" xlink:href="#w"/>
<use x="215.962891" xlink:href="#d"/>
<use x="277.486328" xlink:href="#g"/>
<use x="340.865234" xlink:href="#af"/>
<use x="395.845703" xlink:href="#d"/>
</g>
</g>
<g clip-path="url(#a)">
<g transform="translate(547.7 740.94) scale(.1 -.1)">
<use xlink:href="#p"/>
<use x="61.181641" xlink:href="#y"/>
</g>
</g>
<g clip-path="url(#a)">
<g transform="translate(604.39 740.94) scale(.1 -.1)">
<use xlink:href="#h"/>
</g>
</g>
<g clip-path="url(#a)">
<g transform="translate(650.72 740.94) scale(.1 -.1)">
<use xlink:href="#w"/>
<use x="52.099609" xlink:href="#j"/>
<use x="149.511719" xlink:href="#h"/>
<use x="210.791016" xlink:href="#f"/>
<use x="251.904297" xlink:href="#r"/>
</g>
</g>
<g clip-path="url(#a)">
<defs>
<path id="aq" d="m4.8906 31.391h26.312v-8h-26.312z"/>
</defs>
<g transform="translate(724.19 740.94) scale(.1 -.1)">
<use xlink:href="#aq"/>
</g>
</g>
<g clip-path="url(#a)">
<defs>
<path id="au" d="m45.406 27.984q0 9.7656-4.0312 15.125-4.0156 5.375-11.297 5.375-7.2188 0-11.25-5.375-4.0312-5.3594-4.0312-15.125 0-9.7188 4.0312-15.094t11.25-5.375q7.2812 0 11.297 5.375 4.0312 5.375 4.0312 15.094zm8.9844-21.203q0-13.953-6.2031-20.766-6.1875-6.8125-18.984-6.8125-4.7344 0-8.9375 0.70312t-8.1562 2.1719v8.7344q3.9531-2.1406 7.8125-3.1562 3.8594-1.0312 7.8594-1.0312 8.8438 0 13.234 4.6094t4.3906 13.938v4.4531q-2.7812-4.8438-7.125-7.2344t-10.406-2.3906q-10.047 0-16.203 7.6562-6.1562 7.6719-6.1562 20.328 0 12.688 6.1562 20.344 6.1562 7.6719 16.203 7.6719 6.0625 0 10.406-2.3906t7.125-7.2188v8.2969h8.9844z"/>
</defs>
<g transform="translate(771.47 740.94) scale(.1 -.1)">
<use xlink:href="#k"/>
<use x="27.783203" xlink:href="#p"/>
<use x="88.964844" xlink:href="#p"/>
<use x="150.146484" xlink:href="#al"/>
<use x="208.056641" xlink:href="#i"/>
<use x="235.839844" xlink:href="#g"/>
<use x="299.21875" xlink:href="#au"/>
</g>
</g>
<g clip-path="url(#a)">
<g transform="translate(840.25 740.94) scale(.1 -.1)">
<use xlink:href="#p"/>
<use x="61.181641" xlink:href="#y"/>
<use x="96.386719" xlink:href="#y"/>
<use x="131.591797" xlink:href="#i"/>
<use x="159.375" xlink:href="#af"/>
<use x="214.355469" xlink:href="#d"/>
<use x="275.878906" xlink:href="#f"/>
</g>
</g>
<g clip-path="url(#a)">
<g transform="translate(915.17 740.94) scale(.1 -.1)">
<use xlink:href="#ak"/>
<use x="81.787109" xlink:href="#v"/>
<use x="145.166016" xlink:href="#p"/>
</g>
</g>
<g clip-path="url(#a)">
<defs>
<path id="as" d="m54.891 54.688-19.781-26.609 20.797-28.078h-10.594l-15.922 21.484-15.906-21.484h-10.609l21.25 28.609-19.438 26.078h10.594l14.5-19.484 14.5 19.484z"/>
</defs>
<g transform="translate(974.19 740.94) scale(.1 -.1)">
<use xlink:href="#d"/>
<use x="59.773438" xlink:href="#as"/>
<use x="118.953125" xlink:href="#r"/>
<use x="158.162109" xlink:href="#d"/>
<use x="219.685547" xlink:href="#g"/>
<use x="283.064453" xlink:href="#x"/>
<use x="346.541016" xlink:href="#d"/>
<use x="408.064453" xlink:href="#x"/>
</g>
</g>
<g clip-path="url(#a)">
<g transform="translate(1065.8 740.94) scale(.1 -.1)">
<use xlink:href="#v"/>
<use x="63.378906" xlink:href="#i"/>
<use x="91.162109" xlink:href="#w"/>
</g>
</g>
<g clip-path="url(#a)">
<g transform="translate(1138.4 740.94) scale(.1 -.1)">
<use xlink:href="#v"/>
<use x="63.378906" xlink:href="#h"/>
<use x="124.658203" xlink:href="#g"/>
<use x="188.037109" xlink:href="#x"/>
</g>
</g>
<g clip-path="url(#a)">
<g transform="translate(1226.9 740.94) scale(.1 -.1)">
<use xlink:href="#r"/>
<use x="39.208984" xlink:href="#p"/>
</g>
</g>
<g clip-path="url(#a)">
<g transform="translate(1307.9 740.94) scale(.1 -.1)">
<use xlink:href="#j"/>
<use x="97.412109" xlink:href="#d"/>
</g>
</g>
<g clip-path="url(#a)">
<defs>
<path id="e" d="m10.688 12.406h10.312v-12.406h-10.312z"/>
</defs>
<g transform="translate(1401 740.94) scale(.1 -.1)">
<use xlink:href="#e"/>
</g>
</g>
<g clip-path="url(#a)">
<defs>
<path id="c" d="m12.406 8.2969h16.109v55.625l-17.531-3.5156v8.9844l17.438 3.5156h9.8594v-64.609h16.109v-8.2969h-41.984z"/>
</defs>
<g transform="translate(277.61 37.911) scale(.1 -.1)">
<use xlink:href="#c"/>
<use x="63.623047" xlink:href="#e"/>
<use x="95.410156" xlink:href="#c"/>
</g>
</g>
<g clip-path="url(#a)">
<defs>
<path id="n" d="m19.188 8.2969h34.422v-8.2969h-46.281v8.2969q5.6094 5.8125 15.297 15.594 9.7031 9.7969 12.188 12.641 4.7344 5.3125 6.6094 9 1.8906 3.6875 1.8906 7.25 0 5.8125-4.0781 9.4688-4.0781 3.6719-10.625 3.6719-4.6406 0-9.7969-1.6094-5.1406-1.6094-11-4.8906v9.9688q5.9531 2.3906 11.125 3.6094 5.1875 1.2188 9.4844 1.2188 11.328 0 18.062-5.6719 6.7344-5.6562 6.7344-15.125 0-4.5-1.6875-8.5312-1.6719-4.0156-6.125-9.4844-1.2188-1.4219-7.7656-8.1875-6.5312-6.7656-18.453-18.922z"/>
</defs>
<g transform="translate(125.46 274.15) scale(.1 -.1)">
<use xlink:href="#c"/>
<use x="63.623047" xlink:href="#e"/>
<use x="95.410156" xlink:href="#n"/>
</g>
</g>
<g clip-path="url(#a)">
<defs>
<path id="m" d="m40.578 39.312q7.0781-1.5156 11.047-6.3125 3.9844-4.7812 3.9844-11.812 0-10.781-7.4219-16.703-7.4219-5.9062-21.094-5.9062-4.5781 0-9.4375 0.90625t-10.031 2.7188v9.5156q4.0938-2.3906 8.9688-3.6094 4.8906-1.2188 10.219-1.2188 9.2656 0 14.125 3.6562t4.8594 10.641q0 6.4531-4.5156 10.078-4.5156 3.6406-12.562 3.6406h-8.5v8.1094h8.8906q7.2656 0 11.125 2.9062t3.8594 8.375q0 5.6094-3.9844 8.6094-3.9688 3.0156-11.391 3.0156-4.0625 0-8.7031-0.89062-4.6406-0.875-10.203-2.7188v8.7812q5.625 1.5625 10.531 2.3438t9.25 0.78125q11.234 0 17.766-5.1094 6.5469-5.0938 6.5469-13.781 0-6.0625-3.4688-10.234t-9.8594-5.7812z"/>
</defs>
<g transform="translate(275.68 625.85) scale(.1 -.1)">
<use xlink:href="#c"/>
<use x="63.623047" xlink:href="#e"/>
<use x="95.410156" xlink:href="#m"/>
</g>
</g>
<g clip-path="url(#a)">
<defs>
<path id="q" d="m37.797 64.312-24.906-38.922h24.906zm-2.5938 8.5938h12.406v-47.516h10.406v-8.2031h-10.406v-17.188h-9.8125v17.188h-32.906v9.5156z"/>
</defs>
<g transform="translate(468.31 156.15) scale(.1 -.1)">
<use xlink:href="#c"/>
<use x="63.623047" xlink:href="#e"/>
<use x="95.410156" xlink:href="#q"/>
</g>
</g>
<g clip-path="url(#a)">
<defs>
<path id="ad" d="m33.016 40.375q-6.6406 0-10.531-4.5469-3.875-4.5312-3.875-12.438 0-7.8594 3.875-12.438 3.8906-4.5625 10.531-4.5625t10.516 4.5625q3.875 4.5781 3.875 12.438 0 7.9062-3.875 12.438-3.875 4.5469-10.516 4.5469zm19.578 30.922v-8.9844q-3.7188 1.75-7.5 2.6719-3.7812 0.9375-7.5 0.9375-9.7656 0-14.922-6.5938-5.1406-6.5938-5.875-19.922 2.875 4.25 7.2188 6.5156 4.3594 2.2656 9.5781 2.2656 10.984 0 17.359-6.6719 6.375-6.6562 6.375-18.125 0-11.234-6.6406-18.031-6.6406-6.7812-17.672-6.7812-12.656 0-19.344 9.6875-6.6875 9.7031-6.6875 28.109 0 17.281 8.2031 27.562t22.016 10.281q3.7188 0 7.5-0.73438t7.8906-2.1875z"/>
</defs>
<g transform="translate(313.27 625.85) scale(.1 -.1)">
<use xlink:href="#c"/>
<use x="63.623047" xlink:href="#e"/>
<use x="95.410156" xlink:href="#ad"/>
</g>
</g>
<g clip-path="url(#a)">
<defs>
<path id="ac" d="m8.2031 72.906h46.875v-4.2031l-26.469-68.703h-10.297l24.906 64.594h-35.016z"/>
</defs>
<g transform="translate(353.74 625.85) scale(.1 -.1)">
<use xlink:href="#c"/>
<use x="63.623047" xlink:href="#e"/>
<use x="95.410156" xlink:href="#ac"/>
</g>
</g>
<g clip-path="url(#a)">
<defs>
<path id="ab" d="m31.781 34.625q-7.0312 0-11.062-3.7656-4.0156-3.7656-4.0156-10.344 0-6.5938 4.0156-10.359 4.0312-3.7656 11.062-3.7656t11.078 3.7812q4.0625 3.7969 4.0625 10.344 0 6.5781-4.0312 10.344-4.0156 3.7656-11.109 3.7656zm-9.8594 4.1875q-6.3438 1.5625-9.8906 5.9062-3.5312 4.3594-3.5312 10.609 0 8.7344 6.2188 13.812 6.2344 5.0781 17.062 5.0781 10.891 0 17.094-5.0781t6.2031-13.812q0-6.25-3.5469-10.609-3.5312-4.3438-9.8281-5.9062 7.125-1.6562 11.094-6.5 3.9844-4.8281 3.9844-11.797 0-10.609-6.4688-16.281-6.4688-5.6562-18.531-5.6562-12.047 0-18.531 5.6562-6.4688 5.6719-6.4688 16.281 0 6.9688 4 11.797 4.0156 4.8438 11.141 6.5zm-3.6094 15.578q0-5.6562 3.5312-8.8281 3.5469-3.1719 9.9375-3.1719 6.3594 0 9.9375 3.1719 3.5938 3.1719 3.5938 8.8281 0 5.6719-3.5938 8.8438-3.5781 3.1719-9.9375 3.1719-6.3906 0-9.9375-3.1719-3.5312-3.1719-3.5312-8.8438z"/>
</defs>
<g transform="translate(444.34 509.16) scale(.1 -.1)">
<use xlink:href="#c"/>
<use x="63.623047" xlink:href="#e"/>
<use x="95.410156" xlink:href="#ab"/>
</g>
</g>
<g clip-path="url(#a)">
<defs>
<path id="aa" d="m10.984 1.5156v8.9844q3.7188-1.7656 7.5156-2.6875 3.8125-0.92188 7.4844-0.92188 9.7656 0 14.906 6.5625 5.1562 6.5625 5.8906 19.953-2.8281-4.2031-7.1875-6.4531-4.3438-2.25-9.6094-2.25-10.938 0-17.312 6.6094-6.375 6.625-6.375 18.109 0 11.219 6.6406 18 6.6406 6.7969 17.672 6.7969 12.656 0 19.312-9.7031 6.6719-9.6875 6.6719-28.141 0-17.234-8.1875-27.516-8.1719-10.281-21.984-10.281-3.7188 0-7.5312 0.73438-3.7969 0.73438-7.9062 2.2031zm19.625 30.906q6.6406 0 10.516 4.5312 3.8906 4.5469 3.8906 12.469 0 7.8594-3.8906 12.422-3.875 4.5625-10.516 4.5625t-10.516-4.5625-3.875-12.422q0-7.9219 3.875-12.469 3.875-4.5312 10.516-4.5312z"/>
</defs>
<g transform="translate(761.89 274.15) scale(.1 -.1)">
<use xlink:href="#c"/>
<use x="63.623047" xlink:href="#e"/>
<use x="95.410156" xlink:href="#aa"/>
</g>
</g>
<g clip-path="url(#a)">
<defs>
<path id="ae" d="m31.781 66.406q-7.6094 0-11.453-7.5-3.8281-7.4844-3.8281-22.531 0-14.984 3.8281-22.484 3.8438-7.5 11.453-7.5 7.6719 0 11.5 7.5 3.8438 7.5 3.8438 22.484 0 15.047-3.8438 22.531-3.8281 7.5-11.5 7.5zm0 7.8125q12.266 0 18.734-9.7031 6.4688-9.6875 6.4688-28.141 0-18.406-6.4688-28.109-6.4688-9.6875-18.734-9.6875-12.25 0-18.719 9.6875-6.4688 9.7031-6.4688 28.109 0 18.453 6.4688 28.141 6.4688 9.7031 18.719 9.7031z"/>
</defs>
<g transform="translate(541.39 625.85) scale(.1 -.1)">
<use xlink:href="#c"/>
<use x="63.623047" xlink:href="#e"/>
<use x="95.410156" xlink:href="#c"/>
<use x="159.033203" xlink:href="#ae"/>
</g>
</g>
<g clip-path="url(#a)">
<g transform="translate(596.32 625.85) scale(.1 -.1)">
<use xlink:href="#c"/>
<use x="63.623047" xlink:href="#e"/>
<use x="95.410156" xlink:href="#c"/>
<use x="159.033203" xlink:href="#c"/>
</g>
</g>
<g clip-path="url(#a)">
<g transform="translate(780.4 391.85) scale(.1 -.1)">
<use xlink:href="#c"/>
<use x="63.623047" xlink:href="#e"/>
<use x="95.410156" xlink:href="#c"/>
<use x="159.033203" xlink:href="#n"/>
</g>
</g>
<g clip-path="url(#a)">
<g transform="translate(844.97 625.85) scale(.1 -.1)">
<use xlink:href="#c"/>
<use x="63.623047" xlink:href="#e"/>
<use x="95.410156" xlink:href="#c"/>
<use x="159.033203" xlink:href="#m"/>
</g>
</g>
<g clip-path="url(#a)">
<g transform="translate(1030.5 391.85) scale(.1 -.1)">
<use xlink:href="#c"/>
<use x="63.623047" xlink:href="#e"/>
<use x="95.410156" xlink:href="#c"/>
<use x="159.033203" xlink:href="#q"/>
</g>
</g>
<g clip-path="url(#a)">
<defs>
<path id="aj" d="m10.797 72.906h38.719v-8.3125h-29.688v-17.859q2.1406 0.73438 4.2812 1.0938 2.1562 0.35938 4.3125 0.35938 12.203 0 19.328-6.6875 7.1406-6.6875 7.1406-18.109 0-11.766-7.3281-18.297-7.3281-6.5156-20.656-6.5156-4.5938 0-9.3594 0.78125-4.75 0.78125-9.8281 2.3438v9.9219q4.3906-2.3906 9.0781-3.5625t9.9062-1.1719q8.4531 0 13.375 4.4375 4.9375 4.4375 4.9375 12.062 0 7.6094-4.9375 12.047-4.9219 4.4531-13.375 4.4531-3.9531 0-7.8906-0.875-3.9219-0.875-8.0156-2.7344z"/>
</defs>
<g transform="translate(914.36 625.85) scale(.1 -.1)">
<use xlink:href="#c"/>
<use x="63.623047" xlink:href="#e"/>
<use x="95.410156" xlink:href="#c"/>
<use x="159.033203" xlink:href="#aj"/>
</g>
</g>
<g clip-path="url(#a)">
<g transform="translate(986.64 625.85) scale(.1 -.1)">
<use xlink:href="#c"/>
<use x="63.623047" xlink:href="#e"/>
<use x="95.410156" xlink:href="#c"/>
<use x="159.033203" xlink:href="#ad"/>
</g>
</g>
<g clip-path="url(#a)">
<g transform="translate(1100.8 509.16) scale(.1 -.1)">
<use xlink:href="#c"/>
<use x="63.623047" xlink:href="#e"/>
<use x="95.410156" xlink:href="#c"/>
<use x="159.033203" xlink:href="#ac"/>
</g>
</g>
<g clip-path="url(#a)">
<g transform="translate(1305.6 509.16) scale(.1 -.1)">
<use xlink:href="#c"/>
<use x="63.623047" xlink:href="#e"/>
<use x="95.410156" xlink:href="#c"/>
<use x="159.033203" xlink:href="#ab"/>
</g>
</g>
<g clip-path="url(#a)">
<g transform="translate(1220.8 625.85) scale(.1 -.1)">
<use xlink:href="#c"/>
<use x="63.623047" xlink:href="#e"/>
<use x="95.410156" xlink:href="#c"/>
<use x="159.033203" xlink:href="#aa"/>
</g>
</g>
<g clip-path="url(#a)">
<g transform="translate(1304.7 625.85) scale(.1 -.1)">
<use xlink:href="#c"/>
<use x="63.623047" xlink:href="#e"/>
<use x="95.410156" xlink:href="#n"/>
<use x="159.033203" xlink:href="#ae"/>
</g>
</g>
<g clip-path="url(#a)">
<g transform="translate(1061.8 625.85) scale(.1 -.1)">
<use xlink:href="#c"/>
<use x="63.623047" xlink:href="#e"/>
<use x="95.410156" xlink:href="#n"/>
<use x="159.033203" xlink:href="#n"/>
</g>
</g>
<g clip-path="url(#a)">
<g transform="translate(1139.9 625.85) scale(.1 -.1)">
<use xlink:href="#c"/>
<use x="63.623047" xlink:href="#e"/>
<use x="95.410156" xlink:href="#n"/>
<use x="159.033203" xlink:href="#m"/>
</g>
</g>
<g clip-path="url(#a)">
<g transform="translate(715.82 509.16) scale(.1 -.1)">
<use xlink:href="#c"/>
<use x="63.623047" xlink:href="#e"/>
<use x="95.410156" xlink:href="#n"/>
<use x="159.033203" xlink:href="#q"/>
</g>
</g>
<g clip-path="url(#a)">
<g transform="translate(393.93 625.85) scale(.1 -.1)">
<use xlink:href="#c"/>
<use x="63.623047" xlink:href="#e"/>
<use x="95.410156" xlink:href="#n"/>
<use x="159.033203" xlink:href="#ad"/>
</g>
</g>
<g clip-path="url(#a)">
<g transform="translate(440.19 625.85) scale(.1 -.1)">
<use xlink:href="#c"/>
<use x="63.623047" xlink:href="#e"/>
<use x="95.410156" xlink:href="#n"/>
<use x="159.033203" xlink:href="#ac"/>
</g>
</g>
<g clip-path="url(#a)">
<g transform="translate(489.34 625.85) scale(.1 -.1)">
<use xlink:href="#c"/>
<use x="63.623047" xlink:href="#e"/>
<use x="95.410156" xlink:href="#n"/>
<use x="159.033203" xlink:href="#ab"/>
</g>
</g>
<g clip-path="url(#a)">
<g transform="translate(75.412 391.85) scale(.1 -.1)">
<use xlink:href="#c"/>
<use x="63.623047" xlink:href="#e"/>
<use x="95.410156" xlink:href="#n"/>
<use x="159.033203" xlink:href="#aa"/>
</g>
</g>
<g clip-path="url(#a)">
<g transform="translate(107.7 625.85) scale(.1 -.1)">
<use xlink:href="#c"/>
<use x="63.623047" xlink:href="#e"/>
<use x="95.410156" xlink:href="#m"/>
<use x="159.033203" xlink:href="#ae"/>
</g>
</g>
<g clip-path="url(#a)">
<g transform="translate(127.94 625.85) scale(.1 -.1)">
<use xlink:href="#c"/>
<use x="63.623047" xlink:href="#e"/>
<use x="95.410156" xlink:href="#m"/>
<use x="159.033203" xlink:href="#c"/>
</g>
</g>
<g clip-path="url(#a)">
<g transform="translate(178.05 509.16) scale(.1 -.1)">
<use xlink:href="#c"/>
<use x="63.623047" xlink:href="#e"/>
<use x="95.410156" xlink:href="#m"/>
<use x="159.033203" xlink:href="#n"/>
</g>
</g>
<g clip-path="url(#a)">
<g transform="translate(151.07 625.85) scale(.1 -.1)">
<use xlink:href="#c"/>
<use x="63.623047" xlink:href="#e"/>
<use x="95.410156" xlink:href="#m"/>
<use x="159.033203" xlink:href="#m"/>
</g>
</g>
<g clip-path="url(#a)">
<g transform="translate(177.09 625.85) scale(.1 -.1)">
<use xlink:href="#c"/>
<use x="63.623047" xlink:href="#e"/>
<use x="95.410156" xlink:href="#m"/>
<use x="159.033203" xlink:href="#q"/>
</g>
</g>
<g clip-path="url(#a)">
<g transform="translate(206 625.85) scale(.1 -.1)">
<use xlink:href="#c"/>
<use x="63.623047" xlink:href="#e"/>
<use x="95.410156" xlink:href="#m"/>
<use x="159.033203" xlink:href="#aj"/>
</g>
</g>
<g clip-path="url(#a)">
<g transform="translate(59.992 509.16) scale(.1 -.1)">
<use xlink:href="#c"/>
<use x="63.623047" xlink:href="#e"/>
<use x="95.410156" xlink:href="#m"/>
<use x="159.033203" xlink:href="#ad"/>
</g>
</g>
<g clip-path="url(#a)">
<g transform="translate(75.894 625.85) scale(.1 -.1)">
<use xlink:href="#c"/>
<use x="63.623047" xlink:href="#e"/>
<use x="95.410156" xlink:href="#m"/>
<use x="159.033203" xlink:href="#ac"/>
</g>
</g>
<g clip-path="url(#a)">
<g transform="translate(90.35 625.85) scale(.1 -.1)">
<use xlink:href="#c"/>
<use x="63.623047" xlink:href="#e"/>
<use x="95.410156" xlink:href="#m"/>
<use x="159.033203" xlink:href="#ab"/>
</g>
</g>
<g clip-path="url(#a)">
<g transform="translate(55.655 625.85) scale(.1 -.1)">
<use xlink:href="#c"/>
<use x="63.623047" xlink:href="#e"/>
<use x="95.410156" xlink:href="#m"/>
<use x="159.033203" xlink:href="#aa"/>
</g>
</g>
<g clip-path="url(#a)">
<g transform="translate(64.329 625.85) scale(.1 -.1)">
<use xlink:href="#c"/>
<use x="63.623047" xlink:href="#e"/>
<use x="95.410156" xlink:href="#q"/>
<use x="159.033203" xlink:href="#ae"/>
</g>
</g>
<g clip-path="url(#a)">
<g transform="translate(286.63 37.911) scale(.1 -.1)">
<use xlink:href="#c"/>
<use x="63.623047" xlink:href="#e"/>
<use x="95.410156" xlink:href="#q"/>
<use x="159.033203" xlink:href="#c"/>
</g>
</g>
<g clip-path="url(#a)">
<g transform="translate(237.8 625.85) scale(.1 -.1)">
<use xlink:href="#c"/>
<use x="63.623047" xlink:href="#e"/>
<use x="95.410156" xlink:href="#q"/>
<use x="159.033203" xlink:href="#n"/>
</g>
</g>
<g clip-path="url(#a)">
<g transform="translate(714.86 625.85) scale(.1 -.1)">
<use xlink:href="#c"/>
<use x="63.623047" xlink:href="#e"/>
<use x="95.410156" xlink:href="#q"/>
<use x="159.033203" xlink:href="#m"/>
</g>
</g>
<g clip-path="url(#a)">
<g transform="translate(1391.4 625.85) scale(.1 -.1)">
<use xlink:href="#c"/>
<use x="63.623047" xlink:href="#e"/>
<use x="95.410156" xlink:href="#q"/>
<use x="159.033203" xlink:href="#q"/>
</g>
</g>
<defs>
<clipPath id="a">
<rect width="1469.3" height="773.33"/>
</clipPath>
</defs>
</svg>
