<?xml version="1.0" encoding="UTF-8"?>
<!DOCTYPE svg  PUBLIC '-//W3C//DTD SVG 1.1//EN'  'http://www.w3.org/Graphics/SVG/1.1/DTD/svg11.dtd'>
<svg width="810.67pt" height="426.67pt" version="1.1" viewBox="0 0 810.67 426.67" xmlns="http://www.w3.org/2000/svg" xmlns:xlink="http://www.w3.org/1999/xlink">
<defs>
<style type="text/css">*{stroke-linecap:butt;stroke-linejoin:round;white-space:pre;}</style>
</defs>
<path d="m0 426.67h810.67v-426.67h-810.67z" fill="#fff"/>
<g fill="none" stroke="#000">
<path d="m426.19 20.498-212.28 79.863" clip-path="url(#a)"/>
<path d="m426.19 20.498 212.28 157.95" clip-path="url(#a)"/>
<path d="m213.92 100.36-152.15 154.69" clip-path="url(#a)"/>
<path d="m213.92 100.36-78.53 230.25" clip-path="url(#a)"/>
<path d="m213.92 100.36-29.449 230.25" clip-path="url(#a)"/>
<path d="m213.92 100.36 19.632 230.25" clip-path="url(#a)"/>
<path d="m213.92 100.36 240.5 78.084" clip-path="url(#a)"/>
<path d="m638.47 178.44-12.27 152.17" clip-path="url(#a)"/>
<path d="m638.47 178.44 36.811 152.17" clip-path="url(#a)"/>
<path d="m638.47 178.44 36.811 76.609" clip-path="url(#a)"/>
<path d="m638.47 178.44-61.351 152.17" clip-path="url(#a)"/>
<path d="m626.2 330.61v75.558" clip-path="url(#a)"/>
<path d="m675.28 330.61v75.558" clip-path="url(#a)"/>
<path d="m675.28 255.05 49.081 75.558" clip-path="url(#a)"/>
<path d="m675.28 255.05-147.24 75.558" clip-path="url(#a)" stroke-dasharray="3.7,1.6"/>
<path d="m675.28 255.05 98.162 75.558" clip-path="url(#a)"/>
<path d="m724.36 330.61v75.558" clip-path="url(#a)"/>
<path d="m61.766 255.05-24.54 75.558" clip-path="url(#a)"/>
<path d="m61.766 255.05 24.54 75.558" clip-path="url(#a)"/>
<path d="m135.39 330.61v75.558" clip-path="url(#a)"/>
<path d="m184.47 330.61v75.558" clip-path="url(#a)"/>
<path d="m233.55 330.61v75.558" clip-path="url(#a)"/>
<path d="m454.41 178.44-98.162 76.609" clip-path="url(#a)"/>
<path d="m454.41 178.44 24.54 152.17" clip-path="url(#a)"/>
<path d="m454.41 178.44 73.621 152.17" clip-path="url(#a)"/>
<path d="m356.25 255.05-73.621 75.558" clip-path="url(#a)"/>
<path d="m356.25 255.05-24.54 75.558" clip-path="url(#a)"/>
<path d="m356.25 255.05 24.54 75.558" clip-path="url(#a)"/>
<path d="m356.25 255.05 73.621 75.558" clip-path="url(#a)"/>
<path d="m478.95 330.61v75.558" clip-path="url(#a)"/>
<path d="m528.04 330.61v75.558" clip-path="url(#a)"/>
<path d="m282.63 330.61v75.558" clip-path="url(#a)"/>
<path d="m331.71 330.61v75.558" clip-path="url(#a)"/>
<path d="m380.79 330.61v75.558" clip-path="url(#a)"/>
<path d="m429.87 330.61v75.558" clip-path="url(#a)"/>
<path d="m37.226 330.61v75.558" clip-path="url(#a)"/>
<path d="m86.307 330.61v75.558" clip-path="url(#a)"/>
<path d="m577.12 330.61v75.558" clip-path="url(#a)"/>
<path d="m773.44 330.61v75.558" clip-path="url(#a)"/>
</g>
<path d="m319.45 67.358 5.6309-2.1185q2.2463-0.84511 1.4012-3.0914l-2.7263-7.2466q-0.8451-2.2463-3.0914-1.4012l-5.6309 2.1185q-2.2463 0.8451-1.4012 3.0914l2.7263 7.2466q0.84511 2.2463 3.0914 1.4012z" clip-path="url(#a)" fill="#fff" stroke="#fff"/>
<g clip-path="url(#a)">
<defs>
<path id="ac" d="m9.8125 72.906h9.8594v-29.891h35.844v29.891h9.8594v-72.906h-9.8594v34.719h-35.844v-34.719h-9.8594z"/>
</defs>
<g transform="translate(318.02 63.555) rotate(-20.617) scale(.08 -.08)">
<use xlink:href="#ac"/>
</g>
</g>
<path d="m526.17 102.71 4.8267 3.5914q1.9255 1.4327 3.3581-0.49279l4.6219-6.2116q1.4327-1.9255-0.49279-3.3581l-4.8267-3.5914q-1.9255-1.4327-3.3581 0.49279l-4.6219 6.2116q-1.4327 1.9255 0.4928 3.3581z" clip-path="url(#a)" fill="#fff" stroke="#fff"/>
<g clip-path="url(#a)">
<g transform="translate(528.6 99.447) rotate(36.652) scale(.08 -.08)">
<use xlink:href="#ac"/>
</g>
</g>
<path d="m140.39 184.06 3.8375-3.9016q1.6829-1.7111-0.02811-3.394l-5.5199-5.4292q-1.7111-1.6829-3.394 0.02811l-3.8375 3.9016q-1.6829 1.7111 0.028109 3.394l5.5199 5.4292q1.7111 1.6829 3.394-0.02811z" clip-path="url(#a)" fill="#fff" stroke="#fff"/>
<g clip-path="url(#a)">
<defs>
<path id="r" d="m34.188 63.188-13.391-36.281h26.812zm-5.5781 9.7188h11.188l27.781-72.906h-10.25l-6.6406 18.703h-32.859l-6.6406-18.703h-10.406z"/>
</defs>
<g transform="translate(137.5 181.21) rotate(-45.475) scale(.08 -.08)">
<use xlink:href="#r"/>
</g>
</g>
<path d="m179.85 219.69 1.4853-4.3549q0.77473-2.2715-1.4968-3.0462l-7.328-2.4993q-2.2715-0.77473-3.0462 1.4968l-1.4853 4.3549q-0.77473 2.2715 1.4968 3.0462l7.328 2.4993q2.2715 0.77473 3.0462-1.4968z" clip-path="url(#a)" fill="#fff" stroke="#fff"/>
<g clip-path="url(#a)">
<defs>
<path id="an" d="m9.8125 72.906h41.891v-8.3125h-32.031v-21.484h28.906v-8.2969h-28.906v-34.812h-9.8594z"/>
</defs>
<g transform="translate(176 218.38) rotate(-71.167) scale(.08 -.08)">
<use xlink:href="#an"/>
</g>
</g>
<path d="m205.1 218.71 0.61989-4.8468q0.30448-2.3806-2.0761-2.6851l-7.6799-0.98225q-2.3806-0.30448-2.6851 2.0761l-0.61989 4.8468q-0.30448 2.3806 2.0761 2.6851l7.6799 0.98225q2.3806 0.30448 2.6851-2.0761z" clip-path="url(#a)" fill="#fff" stroke="#fff"/>
<g clip-path="url(#a)">
<defs>
<path id="j" d="m-0.29688 72.906h61.672v-8.3125h-25.875v-64.594h-9.9062v64.594h-25.891z"/>
</defs>
<g transform="translate(201.07 218.19) rotate(-82.712) scale(.08 -.08)">
<use xlink:href="#j"/>
</g>
</g>
<path d="m217.28 213.62 0.40981 4.8063q0.2039 2.3913 2.5952 2.1874l7.7145-0.65778q2.3913-0.2039 2.1874-2.5952l-0.40981-4.8063q-0.2039-2.3913-2.5952-2.1874l-7.7145 0.65778q-2.3913 0.2039-2.1874 2.5952z" clip-path="url(#a)" fill="#fff" stroke="#fff"/>
<g clip-path="url(#a)">
<defs>
<path id="ab" d="m19.672 64.797v-27.391h12.406q6.8906 0 10.641 3.5625 3.7656 3.5625 3.7656 10.156 0 6.5469-3.7656 10.109-3.75 3.5625-10.641 3.5625zm-9.8594 8.1094h22.266q12.266 0 18.531-5.5469 6.2812-5.5469 6.2812-16.234 0-10.797-6.2812-16.312-6.2656-5.5156-18.531-5.5156h-12.406v-29.297h-9.8594z"/>
</defs>
<g transform="translate(221.33 213.27) rotate(85.126) scale(.08 -.08)">
<use xlink:href="#ab"/>
</g>
</g>
<path d="m329.63 144.52 5.205 1.69q2.2827 0.74114 3.0238-1.5416l2.3909-7.3641q0.74114-2.2827-1.5416-3.0238l-5.205-1.69q-2.2827-0.74114-3.0238 1.5416l-2.3909 7.3641q-0.74114 2.2827 1.5416 3.0238z" clip-path="url(#a)" fill="#fff" stroke="#fff"/>
<g clip-path="url(#a)">
<g transform="translate(330.88 140.66) rotate(17.987) scale(.08 -.08)">
<use xlink:href="#r"/>
</g>
</g>
<path d="m638.36 257.76 0.43986-5.4548q0.1929-2.3922-2.1993-2.5851l-7.7174-0.62231q-2.3922-0.1929-2.5851 2.1993l-0.43986 5.4548q-0.1929 2.3922 2.1993 2.5851l7.7174 0.62231q2.3922 0.1929 2.5851-2.1993z" clip-path="url(#a)" fill="#fff" stroke="#fff"/>
<g clip-path="url(#a)">
<g transform="translate(634.31 257.43) rotate(-85.39) scale(.08 -.08)">
<use xlink:href="#r"/>
</g>
</g>
<path d="m650.21 253.66 1.1342 4.6885q0.56431 2.3327 2.897 1.7684l7.5254-1.8205q2.3327-0.56431 1.7684-2.897l-1.1342-4.6885q-0.56431-2.3327-2.897-1.7684l-7.5254 1.8205q-2.3327 0.56431-1.7684 2.897z" clip-path="url(#a)" fill="#fff" stroke="#fff"/>
<g clip-path="url(#a)">
<g transform="translate(654.16 252.7) rotate(76.401) scale(.08 -.08)">
<use xlink:href="#ab"/>
</g>
</g>
<path d="m650.04 217 2.3701 4.9326q1.0394 2.1632 3.2027 1.1238l6.9787-3.3533q2.1632-1.0394 1.1238-3.2027l-2.3701-4.9326q-1.0394-2.1632-3.2027-1.1238l-6.9787 3.3533q-2.1632 1.0394-1.1238 3.2027z" clip-path="url(#a)" fill="#fff" stroke="#fff"/>
<g clip-path="url(#a)">
<g transform="translate(653.7 215.24) rotate(64.336) scale(.08 -.08)">
<use xlink:href="#r"/>
</g>
</g>
<path d="m612.51 259.59 2.1894-5.4302q0.89745-2.2259-1.3284-3.1233l-7.1808-2.8952q-2.2259-0.89745-3.1233 1.3284l-2.1894 5.4302q-0.89745 2.2259 1.3284 3.1233l7.1808 2.8952q2.2259 0.89745 3.1233-1.3284z" clip-path="url(#a)" fill="#fff" stroke="#fff"/>
<g clip-path="url(#a)">
<defs>
<path id="aa" d="m8.6875 72.906h9.9219v-44.297q0-11.719 4.2344-16.875 4.25-5.1406 13.781-5.1406 9.4688 0 13.719 5.1406 4.25 5.1562 4.25 16.875v44.297h9.9062v-45.516q0-14.25-7.0625-21.531-7.0469-7.2812-20.812-7.2812-13.828 0-20.891 7.2812-7.0469 7.2812-7.0469 21.531z"/>
</defs>
<g transform="translate(608.75 258.07) rotate(-68.041) scale(.08 -.08)">
<use xlink:href="#aa"/>
</g>
</g>
<path d="m619.93 350.75v35.285q0 2.4 2.4 2.4h7.7425q2.4 0 2.4-2.4v-35.285q0-2.4-2.4-2.4h-7.7425q-2.4 0-2.4 2.4z" clip-path="url(#a)" fill="#fff" stroke="#fff"/>
<g clip-path="url(#a)">
<defs>
<path id="e" d="m56.203 29.594v-4.3906h-41.312q0.59375-9.2812 5.5938-14.141t13.938-4.8594q5.1719 0 10.031 1.2656t9.6562 3.8125v-8.5q-4.8438-2.0469-9.9219-3.125t-10.297-1.0781q-13.094 0-20.734 7.6094-7.6406 7.625-7.6406 20.625 0 13.422 7.25 21.297 7.25 7.8906 19.562 7.8906 11.031 0 17.453-7.1094 6.4219-7.0938 6.4219-19.297zm-8.9844 2.6406q-0.09375 7.3594-4.125 11.75-4.0312 4.4062-10.672 4.4062-7.5156 0-12.031-4.25t-5.2031-11.969z"/>
<path id="g" d="m41.109 46.297q-1.5156 0.875-3.2969 1.2812-1.7812 0.42188-3.9219 0.42188-7.625 0-11.703-4.9531t-4.0781-14.234v-28.812h-9.0312v54.688h9.0312v-8.5q2.8438 4.9844 7.375 7.3906 4.5469 2.4219 11.047 2.4219 0.92188 0 2.0469-0.125 1.125-0.10938 2.4844-0.35938z"/>
<path id="i" d="m52 44.188q3.375 6.0625 8.0625 8.9375t11.031 2.875q8.5469 0 13.188-5.9844 4.6406-5.9688 4.6406-17v-33.016h-9.0312v32.719q0 7.8594-2.7969 11.656-2.7812 3.8125-8.4844 3.8125-6.9844 0-11.047-4.6406-4.0469-4.625-4.0469-12.641v-30.906h-9.0312v32.719q0 7.9062-2.7812 11.688t-8.5938 3.7812q-6.8906 0-10.953-4.6562-4.0469-4.6562-4.0469-12.625v-30.906h-9.0312v54.688h9.0312v-8.5q3.0781 5.0312 7.375 7.4219t10.203 2.3906q5.9688 0 10.141-3.0312 4.1719-3.0156 6.1719-8.7812z"/>
<path id="h" d="m9.4219 54.688h8.9844v-54.688h-8.9844zm0 21.297h8.9844v-11.391h-8.9844z"/>
<path id="l" d="m54.891 33.016v-33.016h-8.9844v32.719q0 7.7656-3.0312 11.609-3.0312 3.8594-9.0781 3.8594-7.2812 0-11.484-4.6406-4.2031-4.625-4.2031-12.641v-30.906h-9.0312v54.688h9.0312v-8.5q3.2344 4.9375 7.5938 7.375 4.375 2.4375 10.094 2.4375 9.4219 0 14.25-5.8281 4.8438-5.8281 4.8438-17.156z"/>
<path id="f" d="m34.281 27.484q-10.891 0-15.094-2.4844t-4.2031-8.5q0-4.7812 3.1562-7.5938 3.1562-2.7969 8.5625-2.7969 7.4844 0 12 5.2969t4.5156 14.078v2zm17.922 3.7188v-31.203h-8.9844v8.2969q-3.0781-4.9688-7.6719-7.3438t-11.234-2.375q-8.3906 0-13.359 4.7188-4.9531 4.7188-4.9531 12.625 0 9.2188 6.1719 13.906 6.1875 4.6875 18.438 4.6875h12.609v0.89062q0 6.2031-4.0781 9.5938t-11.453 3.3906q-4.6875 0-9.1406-1.125-4.4375-1.125-8.5312-3.375v8.3125q4.9219 1.9062 9.5625 2.8438 4.6406 0.95312 9.0312 0.95312 11.875 0 17.734-6.1562 5.8594-6.1406 5.8594-18.641z"/>
<path id="k" d="m9.4219 75.984h8.9844v-75.984h-8.9844z"/>
</defs>
<g transform="translate(623.99 350.75) rotate(90) scale(.08 -.08)">
<use xlink:href="#j"/>
<use x="60.818359" xlink:href="#e"/>
<use x="122.341797" xlink:href="#g"/>
<use x="163.439453" xlink:href="#i"/>
<use x="260.851562" xlink:href="#h"/>
<use x="288.634766" xlink:href="#l"/>
<use x="352.013672" xlink:href="#f"/>
<use x="413.292969" xlink:href="#k"/>
</g>
</g>
<path d="m669.01 350.75v35.285q0 2.4 2.4 2.4h7.7425q2.4 0 2.4-2.4v-35.285q0-2.4-2.4-2.4h-7.7425q-2.4 0-2.4 2.4z" clip-path="url(#a)" fill="#fff" stroke="#fff"/>
<g clip-path="url(#a)">
<g transform="translate(673.07 350.75) rotate(90) scale(.08 -.08)">
<use xlink:href="#j"/>
<use x="60.818359" xlink:href="#e"/>
<use x="122.341797" xlink:href="#g"/>
<use x="163.439453" xlink:href="#i"/>
<use x="260.851562" xlink:href="#h"/>
<use x="288.634766" xlink:href="#l"/>
<use x="352.013672" xlink:href="#f"/>
<use x="413.292969" xlink:href="#k"/>
</g>
</g>
<path d="m693.05 293.92 3.0281 4.6616q1.3074 2.0126 3.32 0.70526l6.4929-4.2177q2.0126-1.3074 0.70526-3.32l-3.0281-4.6616q-1.3074-2.0126-3.32-0.70526l-6.4929 4.2177q-2.0126 1.3074-0.70526 3.32z" clip-path="url(#a)" fill="#fff" stroke="#fff"/>
<g clip-path="url(#a)">
<defs>
<path id="t" d="m44.391 34.188q3.1719-1.0781 6.1719-4.5938t6.0312-9.6719l10.016-19.922h-10.609l-9.3125 18.703q-3.625 7.3281-7.0156 9.7188t-9.25 2.3906h-10.75v-30.812h-9.8594v72.906h22.266q12.5 0 18.656-5.2344 6.1562-5.2188 6.1562-15.766 0-6.8906-3.2031-11.438-3.2031-4.5312-9.2969-6.2812zm-24.719 30.609v-25.875h12.406q7.125 0 10.766 3.2969t3.6406 9.6875-3.6406 9.6406-10.766 3.25z"/>
</defs>
<g transform="translate(696.45 291.7) rotate(56.993) scale(.08 -.08)">
<use xlink:href="#t"/>
</g>
</g>
<path d="m602.04 299.69 4.9701-2.5504q2.1353-1.0957 1.0396-3.231l-3.5348-6.8885q-1.0957-2.1353-3.231-1.0396l-4.9701 2.5504q-2.1353 1.0957-1.0396 3.231l3.5348 6.8885q1.0957 2.1353 3.231 1.0396z" clip-path="url(#a)" fill="#fff" stroke="#fff"/>
<g clip-path="url(#a)">
<defs>
<path id="q" d="m64.406 67.281v-10.391q-4.9844 4.6406-10.625 6.9219-5.6406 2.2969-11.984 2.2969-12.5 0-19.141-7.6406t-6.6406-22.094q0-14.406 6.6406-22.047t19.141-7.6406q6.3438 0 11.984 2.2969t10.625 6.9375v-10.312q-5.1719-3.5156-10.969-5.2812-5.7812-1.75-12.219-1.75-16.562 0-26.094 10.125-9.5156 10.141-9.5156 27.672 0 17.578 9.5156 27.703 9.5312 10.141 26.094 10.141 6.5312 0 12.312-1.7344 5.7969-1.7344 10.875-5.2031z"/>
</defs>
<g transform="translate(600.18 296.07) rotate(-27.165) scale(.08 -.08)">
<use xlink:href="#q"/>
</g>
</g>
<path d="m718.21 296.02 4.6397 3.5713q1.9018 1.4639 3.3657-0.43795l4.7226-6.1354q1.4639-1.9018-0.43795-3.3657l-4.6397-3.5713q-1.9018-1.4639-3.3657 0.43795l-4.7226 6.1354q-1.4639 1.9018 0.43795 3.3657z" clip-path="url(#a)" fill="#fff" stroke="#fff"/>
<g clip-path="url(#a)">
<g transform="translate(720.69 292.8) rotate(37.586) scale(.08 -.08)">
<use xlink:href="#aa"/>
</g>
</g>
<path d="m718.09 350.75v35.285q0 2.4 2.4 2.4h7.7425q2.4 0 2.4-2.4v-35.285q0-2.4-2.4-2.4h-7.7425q-2.4 0-2.4 2.4z" clip-path="url(#a)" fill="#fff" stroke="#fff"/>
<g clip-path="url(#a)">
<g transform="translate(722.15 350.75) rotate(90) scale(.08 -.08)">
<use xlink:href="#j"/>
<use x="60.818359" xlink:href="#e"/>
<use x="122.341797" xlink:href="#g"/>
<use x="163.439453" xlink:href="#i"/>
<use x="260.851562" xlink:href="#h"/>
<use x="288.634766" xlink:href="#l"/>
<use x="352.013672" xlink:href="#f"/>
<use x="413.292969" xlink:href="#k"/>
</g>
</g>
<path d="m54.68 297.17 1.5615-4.8078q0.74138-2.2826-1.5412-3.024l-7.3638-2.3917q-2.2826-0.74138-3.024 1.5412l-1.5615 4.8078q-0.74138 2.2826 1.5412 3.024l7.3638 2.3917q2.2826 0.74138 3.024-1.5412z" clip-path="url(#a)" fill="#fff" stroke="#fff"/>
<g clip-path="url(#a)">
<defs>
<path id="p" d="m9.8125 72.906h46.094v-8.3125h-36.234v-21.578h34.719v-8.2969h-34.719v-26.422h37.109v-8.2969h-46.969z"/>
</defs>
<g transform="translate(50.815 295.92) rotate(-72.007) scale(.08 -.08)">
<use xlink:href="#p"/>
</g>
</g>
<path d="m67.209 292.11 1.7256 5.313q0.74138 2.2826 3.024 1.5412l7.3638-2.3917q2.2826-0.74138 1.5412-3.024l-1.7256-5.313q-0.74138-2.2826-3.024-1.5412l-7.3638 2.3917q-2.2826 0.74138-1.5412 3.024z" clip-path="url(#a)" fill="#fff" stroke="#fff"/>
<g clip-path="url(#a)">
<g transform="translate(71.074 290.86) rotate(72.007) scale(.08 -.08)">
<use xlink:href="#q"/>
</g>
</g>
<path d="m129.12 350.75v35.285q0 2.4 2.4 2.4h7.7425q2.4 0 2.4-2.4v-35.285q0-2.4-2.4-2.4h-7.7425q-2.4 0-2.4 2.4z" clip-path="url(#a)" fill="#fff" stroke="#fff"/>
<g clip-path="url(#a)">
<g transform="translate(133.18 350.75) rotate(90) scale(.08 -.08)">
<use xlink:href="#j"/>
<use x="60.818359" xlink:href="#e"/>
<use x="122.341797" xlink:href="#g"/>
<use x="163.439453" xlink:href="#i"/>
<use x="260.851562" xlink:href="#h"/>
<use x="288.634766" xlink:href="#l"/>
<use x="352.013672" xlink:href="#f"/>
<use x="413.292969" xlink:href="#k"/>
</g>
</g>
<path d="m178.2 350.75v35.285q0 2.4 2.4 2.4h7.7425q2.4 0 2.4-2.4v-35.285q0-2.4-2.4-2.4h-7.7425q-2.4 0-2.4 2.4z" clip-path="url(#a)" fill="#fff" stroke="#fff"/>
<g clip-path="url(#a)">
<g transform="translate(182.26 350.75) rotate(90) scale(.08 -.08)">
<use xlink:href="#j"/>
<use x="60.818359" xlink:href="#e"/>
<use x="122.341797" xlink:href="#g"/>
<use x="163.439453" xlink:href="#i"/>
<use x="260.851562" xlink:href="#h"/>
<use x="288.634766" xlink:href="#l"/>
<use x="352.013672" xlink:href="#f"/>
<use x="413.292969" xlink:href="#k"/>
</g>
</g>
<path d="m227.28 350.75v35.285q0 2.4 2.4 2.4h7.7425q2.4 0 2.4-2.4v-35.285q0-2.4-2.4-2.4h-7.7425q-2.4 0-2.4 2.4z" clip-path="url(#a)" fill="#fff" stroke="#fff"/>
<g clip-path="url(#a)">
<g transform="translate(231.34 350.75) rotate(90) scale(.08 -.08)">
<use xlink:href="#j"/>
<use x="60.818359" xlink:href="#e"/>
<use x="122.341797" xlink:href="#g"/>
<use x="163.439453" xlink:href="#i"/>
<use x="260.851562" xlink:href="#h"/>
<use x="288.634766" xlink:href="#l"/>
<use x="352.013672" xlink:href="#f"/>
<use x="413.292969" xlink:href="#k"/>
</g>
</g>
<path d="m407.2 223.25 3.985-3.1101q1.892-1.4766 0.41543-3.3686l-4.7635-6.1037q-1.4766-1.892-3.3686-0.41543l-3.985 3.1101q-1.892 1.4766-0.41543 3.3686l4.7635 6.1037q1.4766 1.892 3.3686 0.41543z" clip-path="url(#a)" fill="#fff" stroke="#fff"/>
<g clip-path="url(#a)">
<g transform="translate(404.7 220.04) rotate(-37.97) scale(.08 -.08)">
<use xlink:href="#p"/>
</g>
</g>
<path d="m460.09 253.03 0.80484 4.9905q0.38212 2.3694 2.7515 1.9873l7.6437-1.2327q2.3694-0.38212 1.9873-2.7515l-0.80484-4.9905q-0.38212-2.3694-2.7515-1.9873l-7.6437 1.2327q-2.3694 0.38212-1.9873 2.7515z" clip-path="url(#a)" fill="#fff" stroke="#fff"/>
<g clip-path="url(#a)">
<g transform="translate(464.1 252.38) rotate(80.839) scale(.08 -.08)">
<use xlink:href="#p"/>
</g>
</g>
<path d="m484.36 254.74 2.433 5.0286q1.0453 2.1604 3.2057 1.1152l6.9696-3.3721q2.1604-1.0453 1.1152-3.2057l-2.433-5.0286q-1.0453-2.1604-3.2057-1.1152l-6.9696 3.3721q-2.1604 1.0453-1.1152 3.2057z" clip-path="url(#a)" fill="#fff" stroke="#fff"/>
<g clip-path="url(#a)">
<g transform="translate(488.02 252.98) rotate(64.181) scale(.08 -.08)">
<use xlink:href="#q"/>
</g>
</g>
<path d="m321.99 299.2 3.8793-3.9813q1.6749-1.7189-0.044045-3.3938l-5.5454-5.4033q-1.7189-1.6749-3.3938 0.044045l-3.8793 3.9813q-1.6749 1.7189 0.044045 3.3938l5.5454 5.4033q1.7189 1.6749 3.3938-0.044046z" clip-path="url(#a)" fill="#fff" stroke="#fff"/>
<g clip-path="url(#a)">
<g transform="translate(319.08 296.36) rotate(-45.744) scale(.08 -.08)">
<use xlink:href="#t"/>
</g>
</g>
<path d="m349.17 297.17 1.5615-4.8078q0.74138-2.2826-1.5412-3.024l-7.3638-2.3917q-2.2826-0.74138-3.024 1.5412l-1.5615 4.8078q-0.74138 2.2826 1.5412 3.024l7.3638 2.3917q2.2826 0.74138 3.024-1.5412z" clip-path="url(#a)" fill="#fff" stroke="#fff"/>
<g clip-path="url(#a)">
<g transform="translate(345.3 295.92) rotate(-72.007) scale(.08 -.08)">
<use xlink:href="#p"/>
</g>
</g>
<path d="m361.7 292.11 1.7256 5.313q0.74138 2.2826 3.024 1.5412l7.3638-2.3917q2.2826-0.74138 1.5412-3.024l-1.7256-5.313q-0.74138-2.2826-3.024-1.5412l-7.3638 2.3917q-2.2826 0.74138-1.5412 3.024z" clip-path="url(#a)" fill="#fff" stroke="#fff"/>
<g clip-path="url(#a)">
<g transform="translate(365.56 290.86) rotate(72.007) scale(.08 -.08)">
<use xlink:href="#q"/>
</g>
</g>
<path d="m386.63 295.22 3.8793 3.9813q1.6749 1.7189 3.3938 0.044046l5.5454-5.4033q1.7189-1.6749 0.044045-3.3938l-3.8793-3.9813q-1.6749-1.7189-3.3938-0.044045l-5.5454 5.4033q-1.7189 1.6749-0.044045 3.3938z" clip-path="url(#a)" fill="#fff" stroke="#fff"/>
<g clip-path="url(#a)">
<g transform="translate(389.54 292.38) rotate(45.744) scale(.08 -.08)">
<use xlink:href="#t"/>
</g>
</g>
<path d="m472.68 350.75v35.285q0 2.4 2.4 2.4h7.7425q2.4 0 2.4-2.4v-35.285q0-2.4-2.4-2.4h-7.7425q-2.4 0-2.4 2.4z" clip-path="url(#a)" fill="#fff" stroke="#fff"/>
<g clip-path="url(#a)">
<g transform="translate(476.75 350.75) rotate(90) scale(.08 -.08)">
<use xlink:href="#j"/>
<use x="60.818359" xlink:href="#e"/>
<use x="122.341797" xlink:href="#g"/>
<use x="163.439453" xlink:href="#i"/>
<use x="260.851562" xlink:href="#h"/>
<use x="288.634766" xlink:href="#l"/>
<use x="352.013672" xlink:href="#f"/>
<use x="413.292969" xlink:href="#k"/>
</g>
</g>
<path d="m521.76 350.75v35.285q0 2.4 2.4 2.4h7.7425q2.4 0 2.4-2.4v-35.285q0-2.4-2.4-2.4h-7.7425q-2.4 0-2.4 2.4z" clip-path="url(#a)" fill="#fff" stroke="#fff"/>
<g clip-path="url(#a)">
<g transform="translate(525.83 350.75) rotate(90) scale(.08 -.08)">
<use xlink:href="#j"/>
<use x="60.818359" xlink:href="#e"/>
<use x="122.341797" xlink:href="#g"/>
<use x="163.439453" xlink:href="#i"/>
<use x="260.851562" xlink:href="#h"/>
<use x="288.634766" xlink:href="#l"/>
<use x="352.013672" xlink:href="#f"/>
<use x="413.292969" xlink:href="#k"/>
</g>
</g>
<path d="m276.36 350.75v35.285q0 2.4 2.4 2.4h7.7425q2.4 0 2.4-2.4v-35.285q0-2.4-2.4-2.4h-7.7425q-2.4 0-2.4 2.4z" clip-path="url(#a)" fill="#fff" stroke="#fff"/>
<g clip-path="url(#a)">
<g transform="translate(280.42 350.75) rotate(90) scale(.08 -.08)">
<use xlink:href="#j"/>
<use x="60.818359" xlink:href="#e"/>
<use x="122.341797" xlink:href="#g"/>
<use x="163.439453" xlink:href="#i"/>
<use x="260.851562" xlink:href="#h"/>
<use x="288.634766" xlink:href="#l"/>
<use x="352.013672" xlink:href="#f"/>
<use x="413.292969" xlink:href="#k"/>
</g>
</g>
<path d="m325.44 350.75v35.285q0 2.4 2.4 2.4h7.7425q2.4 0 2.4-2.4v-35.285q0-2.4-2.4-2.4h-7.7425q-2.4 0-2.4 2.4z" clip-path="url(#a)" fill="#fff" stroke="#fff"/>
<g clip-path="url(#a)">
<g transform="translate(329.5 350.75) rotate(90) scale(.08 -.08)">
<use xlink:href="#j"/>
<use x="60.818359" xlink:href="#e"/>
<use x="122.341797" xlink:href="#g"/>
<use x="163.439453" xlink:href="#i"/>
<use x="260.851562" xlink:href="#h"/>
<use x="288.634766" xlink:href="#l"/>
<use x="352.013672" xlink:href="#f"/>
<use x="413.292969" xlink:href="#k"/>
</g>
</g>
<path d="m374.52 350.75v35.285q0 2.4 2.4 2.4h7.7425q2.4 0 2.4-2.4v-35.285q0-2.4-2.4-2.4h-7.7425q-2.4 0-2.4 2.4z" clip-path="url(#a)" fill="#fff" stroke="#fff"/>
<g clip-path="url(#a)">
<g transform="translate(378.59 350.75) rotate(90) scale(.08 -.08)">
<use xlink:href="#j"/>
<use x="60.818359" xlink:href="#e"/>
<use x="122.341797" xlink:href="#g"/>
<use x="163.439453" xlink:href="#i"/>
<use x="260.851562" xlink:href="#h"/>
<use x="288.634766" xlink:href="#l"/>
<use x="352.013672" xlink:href="#f"/>
<use x="413.292969" xlink:href="#k"/>
</g>
</g>
<path d="m423.6 350.75v35.285q0 2.4 2.4 2.4h7.7425q2.4 0 2.4-2.4v-35.285q0-2.4-2.4-2.4h-7.7425q-2.4 0-2.4 2.4z" clip-path="url(#a)" fill="#fff" stroke="#fff"/>
<g clip-path="url(#a)">
<g transform="translate(427.67 350.75) rotate(90) scale(.08 -.08)">
<use xlink:href="#j"/>
<use x="60.818359" xlink:href="#e"/>
<use x="122.341797" xlink:href="#g"/>
<use x="163.439453" xlink:href="#i"/>
<use x="260.851562" xlink:href="#h"/>
<use x="288.634766" xlink:href="#l"/>
<use x="352.013672" xlink:href="#f"/>
<use x="413.292969" xlink:href="#k"/>
</g>
</g>
<path d="m30.955 350.75v35.285q0 2.4 2.4 2.4h7.7425q2.4 0 2.4-2.4v-35.285q0-2.4-2.4-2.4h-7.7425q-2.4 0-2.4 2.4z" clip-path="url(#a)" fill="#fff" stroke="#fff"/>
<g clip-path="url(#a)">
<g transform="translate(35.018 350.75) rotate(90) scale(.08 -.08)">
<use xlink:href="#j"/>
<use x="60.818359" xlink:href="#e"/>
<use x="122.341797" xlink:href="#g"/>
<use x="163.439453" xlink:href="#i"/>
<use x="260.851562" xlink:href="#h"/>
<use x="288.634766" xlink:href="#l"/>
<use x="352.013672" xlink:href="#f"/>
<use x="413.292969" xlink:href="#k"/>
</g>
</g>
<path d="m80.036 350.75v35.285q0 2.4 2.4 2.4h7.7425q2.4 0 2.4-2.4v-35.285q0-2.4-2.4-2.4h-7.7425q-2.4 0-2.4 2.4z" clip-path="url(#a)" fill="#fff" stroke="#fff"/>
<g clip-path="url(#a)">
<g transform="translate(84.099 350.75) rotate(90) scale(.08 -.08)">
<use xlink:href="#j"/>
<use x="60.818359" xlink:href="#e"/>
<use x="122.341797" xlink:href="#g"/>
<use x="163.439453" xlink:href="#i"/>
<use x="260.851562" xlink:href="#h"/>
<use x="288.634766" xlink:href="#l"/>
<use x="352.013672" xlink:href="#f"/>
<use x="413.292969" xlink:href="#k"/>
</g>
</g>
<path d="m570.85 350.75v35.285q0 2.4 2.4 2.4h7.7425q2.4 0 2.4-2.4v-35.285q0-2.4-2.4-2.4h-7.7425q-2.4 0-2.4 2.4z" clip-path="url(#a)" fill="#fff" stroke="#fff"/>
<g clip-path="url(#a)">
<g transform="translate(574.91 350.75) rotate(90) scale(.08 -.08)">
<use xlink:href="#j"/>
<use x="60.818359" xlink:href="#e"/>
<use x="122.341797" xlink:href="#g"/>
<use x="163.439453" xlink:href="#i"/>
<use x="260.851562" xlink:href="#h"/>
<use x="288.634766" xlink:href="#l"/>
<use x="352.013672" xlink:href="#f"/>
<use x="413.292969" xlink:href="#k"/>
</g>
</g>
<path d="m767.17 350.75v35.285q0 2.4 2.4 2.4h7.7425q2.4 0 2.4-2.4v-35.285q0-2.4-2.4-2.4h-7.7425q-2.4 0-2.4 2.4z" clip-path="url(#a)" fill="#fff" stroke="#fff"/>
<g clip-path="url(#a)">
<g transform="translate(771.23 350.75) rotate(90) scale(.08 -.08)">
<use xlink:href="#j"/>
<use x="60.818359" xlink:href="#e"/>
<use x="122.341797" xlink:href="#g"/>
<use x="163.439453" xlink:href="#i"/>
<use x="260.851562" xlink:href="#h"/>
<use x="288.634766" xlink:href="#l"/>
<use x="352.013672" xlink:href="#f"/>
<use x="413.292969" xlink:href="#k"/>
</g>
</g>
<defs>
<path id="b" d="m0 8.6603c2.2967 0 4.4997-0.9125 6.1237-2.5365 1.624-1.624 2.5365-3.827 2.5365-6.1237s-0.9125-4.4997-2.5365-6.1237c-1.624-1.624-3.827-2.5365-6.1237-2.5365s-4.4997 0.9125-6.1237 2.5365c-1.624 1.624-2.5365 3.827-2.5365 6.1237s0.9125 4.4997 2.5365 6.1237c1.624 1.624 3.827 2.5365 6.1237 2.5365z"/>
</defs>
<g clip-path="url(#a)">
<use x="37.226" y="406.168516" fill="#ffffff" stroke="#ffffff" xlink:href="#b"/>
</g>
<g clip-path="url(#a)">
<use x="86.306978" y="406.168516" fill="#ffffff" stroke="#ffffff" xlink:href="#b"/>
</g>
<g clip-path="url(#a)">
<use x="135.387955" y="406.168516" fill="#ffffff" stroke="#ffffff" xlink:href="#b"/>
</g>
<g clip-path="url(#a)">
<use x="184.468933" y="406.168516" fill="#ffffff" stroke="#ffffff" xlink:href="#b"/>
</g>
<g clip-path="url(#a)">
<use x="233.549911" y="406.168516" fill="#ffffff" stroke="#ffffff" xlink:href="#b"/>
</g>
<g clip-path="url(#a)">
<use x="282.630889" y="406.168516" fill="#ffffff" stroke="#ffffff" xlink:href="#b"/>
</g>
<g clip-path="url(#a)">
<use x="331.711867" y="406.168516" fill="#ffffff" stroke="#ffffff" xlink:href="#b"/>
</g>
<g clip-path="url(#a)">
<use x="380.792844" y="406.168516" fill="#ffffff" stroke="#ffffff" xlink:href="#b"/>
</g>
<g clip-path="url(#a)">
<use x="429.873822" y="406.168516" fill="#ffffff" stroke="#ffffff" xlink:href="#b"/>
</g>
<g clip-path="url(#a)">
<use x="478.9548" y="406.168516" fill="#ffffff" stroke="#ffffff" xlink:href="#b"/>
</g>
<g clip-path="url(#a)">
<use x="528.035778" y="406.168516" fill="#ffffff" stroke="#ffffff" xlink:href="#b"/>
</g>
<g clip-path="url(#a)">
<use x="577.116756" y="406.168516" fill="#ffffff" stroke="#ffffff" xlink:href="#b"/>
</g>
<g clip-path="url(#a)">
<use x="626.197734" y="406.168516" fill="#ffffff" stroke="#ffffff" xlink:href="#b"/>
</g>
<g clip-path="url(#a)">
<use x="675.278711" y="406.168516" fill="#ffffff" stroke="#ffffff" xlink:href="#b"/>
</g>
<g clip-path="url(#a)">
<use x="724.359689" y="406.168516" fill="#ffffff" stroke="#ffffff" xlink:href="#b"/>
</g>
<g clip-path="url(#a)">
<use x="773.440667" y="406.168516" fill="#ffffff" stroke="#ffffff" xlink:href="#b"/>
</g>
<g clip-path="url(#a)">
<use x="426.192749" y="20.498151" fill="#ffffff" stroke="#ffffff" xlink:href="#b"/>
</g>
<g clip-path="url(#a)">
<use x="213.91752" y="100.361078" fill="#ffffff" stroke="#ffffff" xlink:href="#b"/>
</g>
<g clip-path="url(#a)">
<use x="638.467978" y="178.444849" fill="#ffffff" stroke="#ffffff" xlink:href="#b"/>
</g>
<g clip-path="url(#a)">
<use x="626.197734" y="330.61099" fill="#ffffff" stroke="#ffffff" xlink:href="#b"/>
</g>
<g clip-path="url(#a)">
<use x="675.278711" y="330.61099" fill="#ffffff" stroke="#ffffff" xlink:href="#b"/>
</g>
<g clip-path="url(#a)">
<use x="675.278711" y="255.053464" fill="#ffffff" stroke="#ffffff" xlink:href="#b"/>
</g>
<g clip-path="url(#a)">
<use x="724.359689" y="330.61099" fill="#ffffff" stroke="#ffffff" xlink:href="#b"/>
</g>
<g clip-path="url(#a)">
<use x="61.766489" y="255.053464" fill="#ffffff" stroke="#ffffff" xlink:href="#b"/>
</g>
<g clip-path="url(#a)">
<use x="135.387955" y="330.61099" fill="#ffffff" stroke="#ffffff" xlink:href="#b"/>
</g>
<g clip-path="url(#a)">
<use x="184.468933" y="330.61099" fill="#ffffff" stroke="#ffffff" xlink:href="#b"/>
</g>
<g clip-path="url(#a)">
<use x="233.549911" y="330.61099" fill="#ffffff" stroke="#ffffff" xlink:href="#b"/>
</g>
<g clip-path="url(#a)">
<use x="454.414311" y="178.444849" fill="#ffffff" stroke="#ffffff" xlink:href="#b"/>
</g>
<g clip-path="url(#a)">
<use x="356.252356" y="255.053464" fill="#ffffff" stroke="#ffffff" xlink:href="#b"/>
</g>
<g clip-path="url(#a)">
<use x="478.9548" y="330.61099" fill="#ffffff" stroke="#ffffff" xlink:href="#b"/>
</g>
<g clip-path="url(#a)">
<use x="528.035778" y="330.61099" fill="#ffffff" stroke="#ffffff" xlink:href="#b"/>
</g>
<g clip-path="url(#a)">
<use x="282.630889" y="330.61099" fill="#ffffff" stroke="#ffffff" xlink:href="#b"/>
</g>
<g clip-path="url(#a)">
<use x="331.711867" y="330.61099" fill="#ffffff" stroke="#ffffff" xlink:href="#b"/>
</g>
<g clip-path="url(#a)">
<use x="380.792844" y="330.61099" fill="#ffffff" stroke="#ffffff" xlink:href="#b"/>
</g>
<g clip-path="url(#a)">
<use x="429.873822" y="330.61099" fill="#ffffff" stroke="#ffffff" xlink:href="#b"/>
</g>
<g clip-path="url(#a)">
<use x="37.226" y="330.61099" fill="#ffffff" stroke="#ffffff" xlink:href="#b"/>
</g>
<g clip-path="url(#a)">
<use x="86.306978" y="330.61099" fill="#ffffff" stroke="#ffffff" xlink:href="#b"/>
</g>
<g clip-path="url(#a)">
<use x="577.116756" y="330.61099" fill="#ffffff" stroke="#ffffff" xlink:href="#b"/>
</g>
<g clip-path="url(#a)">
<use x="773.440667" y="330.61099" fill="#ffffff" stroke="#ffffff" xlink:href="#b"/>
</g>
<g clip-path="url(#a)">
<defs>
<path id="al" d="m39.406 66.219q-10.75 0-17.078-8.0156-6.3125-8-6.3125-21.828 0-13.766 6.3125-21.781 6.3281-8 17.078-8 10.734 0 17.016 8 6.2812 8.0156 6.2812 21.781 0 13.828-6.2812 21.828-6.2812 8.0156-17.016 8.0156zm0 8q15.328 0 24.5-10.281 9.1875-10.281 9.1875-27.562 0-17.234-9.1875-27.516-9.1719-10.281-24.5-10.281-15.375 0-24.594 10.25-9.2031 10.266-9.2031 27.547t9.2031 27.562q9.2188 10.281 24.594 10.281z"/>
<path id="ai" d="m8.5 21.578v33.109h8.9844v-32.766q0-7.7656 3.0156-11.656 3.0312-3.875 9.0938-3.875 7.2656 0 11.484 4.6406 4.2344 4.6406 4.2344 12.656v31h8.9844v-54.688h-8.9844v8.4062q-3.2656-4.9844-7.5938-7.4062-4.3125-2.4219-10.031-2.4219-9.4219 0-14.312 5.8594-4.875 5.8594-4.875 17.141z"/>
</defs>
<g transform="translate(28.066 408.93) scale(.1 -.1)">
<use xlink:href="#al"/>
<use x="78.710938" xlink:href="#ai"/>
<use x="142.089844" xlink:href="#g"/>
</g>
</g>
<g clip-path="url(#a)">
<defs>
<path id="z" d="m48.688 27.297q0 9.9062-4.0781 15.547t-11.203 5.6406q-7.1406 0-11.219-5.6406t-4.0781-15.547 4.0781-15.547 11.219-5.6406q7.125 0 11.203 5.6406t4.0781 15.547zm-30.578 19.094q2.8438 4.875 7.1562 7.2344 4.3281 2.375 10.328 2.375 9.9688 0 16.188-7.9062 6.2344-7.9062 6.2344-20.797t-6.2344-20.812q-6.2188-7.9062-16.188-7.9062-6 0-10.328 2.375-4.3125 2.375-7.1562 7.25v-8.2031h-9.0312v75.984h9.0312z"/>
<path id="s" d="m45.406 27.984q0 9.7656-4.0312 15.125-4.0156 5.375-11.297 5.375-7.2188 0-11.25-5.375-4.0312-5.3594-4.0312-15.125 0-9.7188 4.0312-15.094t11.25-5.375q7.2812 0 11.297 5.375 4.0312 5.375 4.0312 15.094zm8.9844-21.203q0-13.953-6.2031-20.766-6.1875-6.8125-18.984-6.8125-4.7344 0-8.9375 0.70312t-8.1562 2.1719v8.7344q3.9531-2.1406 7.8125-3.1562 3.8594-1.0312 7.8594-1.0312 8.8438 0 13.234 4.6094t4.3906 13.938v4.4531q-2.7812-4.8438-7.125-7.2344t-10.406-2.3906q-10.047 0-16.203 7.6562-6.1562 7.6719-6.1562 20.328 0 12.688 6.1562 20.344 6.1562 7.6719 16.203 7.6719 6.0625 0 10.406-2.3906t7.125-7.2188v8.2969h8.9844z"/>
</defs>
<g transform="translate(64.405 408.93) scale(.1 -.1)">
<use xlink:href="#z"/>
<use x="63.476562" xlink:href="#f"/>
<use x="124.755859" xlink:href="#s"/>
<use x="188.232422" xlink:href="#s"/>
<use x="251.708984" xlink:href="#f"/>
<use x="312.988281" xlink:href="#s"/>
<use x="376.464844" xlink:href="#e"/>
</g>
</g>
<g clip-path="url(#a)">
<defs>
<path id="aq" d="m4.2031 54.688h8.9844l11.234-42.672 11.172 42.672h10.594l11.234-42.672 11.188 42.672h8.9844l-14.312-54.688h-10.594l-11.766 44.828-11.812-44.828h-10.609z"/>
<path id="aj" d="m44.281 53.078v-8.5q-3.7969 1.9531-7.9062 2.9219-4.0938 0.98438-8.5 0.98438-6.6875 0-10.031-2.0469t-3.3438-6.1562q0-3.125 2.3906-4.9062t9.625-3.3906l3.0781-0.6875q9.5625-2.0469 13.594-5.7812t4.0312-10.422q0-7.625-6.0312-12.078-6.0312-4.4375-16.578-4.4375-4.3906 0-9.1562 0.85938t-10.031 2.5625v9.2812q4.9844-2.5938 9.8125-3.8906 4.8281-1.2812 9.5781-1.2812 6.3438 0 9.75 2.1719 3.4219 2.1719 3.4219 6.125 0 3.6562-2.4688 5.6094-2.4531 1.9531-10.812 3.7656l-3.125 0.73438q-8.3438 1.75-12.062 5.3906-3.7031 3.6406-3.7031 9.9844 0 7.7188 5.4688 11.906 5.4688 4.2031 15.531 4.2031 4.9688 0 9.3594-0.73438 4.4062-0.71875 8.1094-2.1875z"/>
</defs>
<g transform="translate(125.63 408.93) scale(.1 -.1)">
<use xlink:href="#aq"/>
<use x="81.787109" xlink:href="#f"/>
<use x="143.066406" xlink:href="#aj"/>
</g>
</g>
<g clip-path="url(#a)">
<defs>
<path id="o" d="m45.406 46.391v29.594h8.9844v-75.984h-8.9844v8.2031q-2.8281-4.875-7.1562-7.25-4.3125-2.375-10.375-2.375-9.9062 0-16.141 7.9062-6.2188 7.9219-6.2188 20.812t6.2188 20.797q6.2344 7.9062 16.141 7.9062 6.0625 0 10.375-2.375 4.3281-2.3594 7.1562-7.2344zm-30.609-19.094q0-9.9062 4.0781-15.547t11.203-5.6406 11.219 5.6406q4.1094 5.6406 4.1094 15.547t-4.1094 15.547q-4.0938 5.6406-11.219 5.6406t-11.203-5.6406-4.0781-15.547z"/>
<path id="n" d="m18.312 70.219v-15.531h18.5v-6.9844h-18.5v-29.688q0-6.6875 1.8281-8.5938t7.4531-1.9062h9.2188v-7.5156h-9.2188q-10.406 0-14.359 3.875-3.9531 3.8906-3.9531 14.141v29.688h-6.5938v6.9844h6.5938v15.531z"/>
<path id="ap" d="m32.172-5.0781q-3.7969-9.7656-7.4219-12.734-3.6094-2.9844-9.6562-2.9844h-7.1875v7.5156h5.2812q3.7031 0 5.75 1.7656 2.0625 1.75 4.5469 8.2969l1.6094 4.0938-22.109 53.812h9.5156l17.094-42.766 17.094 42.766h9.5156z"/>
</defs>
<g transform="translate(153.25 408.93) scale(.1 -.1)">
<use xlink:href="#h"/>
<use x="27.783203" xlink:href="#i"/>
<use x="125.195312" xlink:href="#i"/>
<use x="222.607422" xlink:href="#e"/>
<use x="284.130859" xlink:href="#o"/>
<use x="347.607422" xlink:href="#h"/>
<use x="375.390625" xlink:href="#f"/>
<use x="436.669922" xlink:href="#n"/>
<use x="475.878906" xlink:href="#e"/>
<use x="537.402344" xlink:href="#k"/>
<use x="565.185547" xlink:href="#ap"/>
</g>
</g>
<g clip-path="url(#a)">
<defs>
<path id="y" d="m48.781 52.594v-8.4062q-3.8125 2.1094-7.6406 3.1562t-7.7344 1.0469q-8.75 0-13.594-5.5469-4.8281-5.5312-4.8281-15.547t4.8281-15.562q4.8438-5.5312 13.594-5.5312 3.9062 0 7.7344 1.0469t7.6406 3.1562v-8.3125q-3.7656-1.75-7.7969-2.625-4.0156-0.89062-8.5625-0.89062-12.359 0-19.641 7.7656-7.2656 7.7656-7.2656 20.953 0 13.375 7.3438 21.031 7.3594 7.6719 20.156 7.6719 4.1406 0 8.0938-0.85938 3.9531-0.84375 7.6719-2.5469z"/>
</defs>
<g transform="translate(215.99 408.93) scale(.1 -.1)">
<use xlink:href="#y"/>
<use x="54.980469" xlink:href="#f"/>
<use x="116.259766" xlink:href="#g"/>
<use x="157.357422" xlink:href="#g"/>
<use x="198.470703" xlink:href="#h"/>
<use x="226.253906" xlink:href="#e"/>
<use x="287.777344" xlink:href="#o"/>
</g>
</g>
<g clip-path="url(#a)">
<defs>
<path id="w" d="m30.609 48.391q-7.2188 0-11.422-5.6406t-4.2031-15.453 4.1719-15.453q4.1875-5.6406 11.453-5.6406 7.1875 0 11.375 5.6562 4.2031 5.6719 4.2031 15.438 0 9.7188-4.2031 15.406-4.1875 5.6875-11.375 5.6875zm0 7.6094q11.719 0 18.406-7.625 6.7031-7.6094 6.7031-21.078 0-13.422-6.7031-21.078-6.6875-7.6406-18.406-7.6406-11.766 0-18.438 7.6406-6.6562 7.6562-6.6562 21.078 0 13.469 6.6562 21.078 6.6719 7.625 18.438 7.625z"/>
</defs>
<g transform="translate(277.61 408.93) scale(.1 -.1)">
<use xlink:href="#n"/>
<use x="39.208984" xlink:href="#w"/>
</g>
</g>
<g clip-path="url(#a)">
<defs>
<path id="x" d="m54.891 33.016v-33.016h-8.9844v32.719q0 7.7656-3.0312 11.609-3.0312 3.8594-9.0781 3.8594-7.2812 0-11.484-4.6406-4.2031-4.625-4.2031-12.641v-30.906h-9.0312v75.984h9.0312v-29.797q3.2344 4.9375 7.5938 7.375 4.375 2.4375 10.094 2.4375 9.4219 0 14.25-5.8281 4.8438-5.8281 4.8438-17.156z"/>
</defs>
<g transform="translate(323.51 408.93) scale(.1 -.1)">
<use xlink:href="#n"/>
<use x="39.208984" xlink:href="#x"/>
<use x="102.587891" xlink:href="#e"/>
</g>
</g>
<g clip-path="url(#a)">
<defs>
<path id="ar" d="m9.0781 75.984h9.0312v-44.875l26.812 23.578h11.469l-29-25.578 30.234-29.109h-11.719l-27.797 26.703v-26.703h-9.0312z"/>
</defs>
<g transform="translate(368.9 408.93) scale(.1 -.1)">
<use xlink:href="#o"/>
<use x="63.476562" xlink:href="#e"/>
<use x="125" xlink:href="#y"/>
<use x="179.980469" xlink:href="#ar"/>
</g>
</g>
<g clip-path="url(#a)">
<defs>
<path id="ak" d="m37.109 75.984v-7.4844h-8.5938q-4.8281 0-6.7188-1.9531-1.875-1.9531-1.875-7.0312v-4.8281h14.797v-6.9844h-14.797v-47.703h-9.0312v47.703h-8.5938v6.9844h8.5938v3.8125q0 9.125 4.25 13.297 4.25 4.1875 13.469 4.1875z"/>
</defs>
<g transform="translate(425.05 408.93) scale(.1 -.1)">
<use xlink:href="#w"/>
<use x="61.181641" xlink:href="#ak"/>
</g>
</g>
<g clip-path="url(#a)">
<g transform="translate(470.75 408.93) scale(.1 -.1)">
<use xlink:href="#n"/>
<use x="39.208984" xlink:href="#x"/>
<use x="102.587891" xlink:href="#e"/>
</g>
</g>
<g clip-path="url(#a)">
<g transform="translate(511.56 408.93) scale(.1 -.1)">
<use xlink:href="#ak"/>
<use x="35.205078" xlink:href="#g"/>
<use x="76.318359" xlink:href="#h"/>
<use x="104.101562" xlink:href="#s"/>
<use x="167.578125" xlink:href="#f"/>
<use x="228.857422" xlink:href="#n"/>
<use x="268.066406" xlink:href="#e"/>
</g>
</g>
<g clip-path="url(#a)">
<defs>
<path id="d" d="m10.688 12.406h10.312v-12.406h-10.312z"/>
</defs>
<g transform="translate(575.53 408.93) scale(.1 -.1)">
<use xlink:href="#d"/>
</g>
</g>
<g clip-path="url(#a)">
<defs>
<path id="am" d="m9.8125 72.906h9.8594v-72.906h-9.8594z"/>
</defs>
<g transform="translate(624.72 408.93) scale(.1 -.1)">
<use xlink:href="#am"/>
</g>
</g>
<g clip-path="url(#a)">
<g transform="translate(658.03 408.93) scale(.1 -.1)">
<use xlink:href="#g"/>
<use x="41.113281" xlink:href="#ai"/>
<use x="104.492188" xlink:href="#aj"/>
<use x="156.591797" xlink:href="#x"/>
<use x="219.970703" xlink:href="#e"/>
<use x="281.494141" xlink:href="#o"/>
</g>
</g>
<g clip-path="url(#a)">
<g transform="translate(706.77 408.93) scale(.1 -.1)">
<use xlink:href="#f"/>
<use x="61.279297" xlink:href="#z"/>
<use x="124.755859" xlink:href="#w"/>
<use x="185.9375" xlink:href="#f"/>
<use x="247.216797" xlink:href="#g"/>
<use x="288.314453" xlink:href="#o"/>
</g>
</g>
<g clip-path="url(#a)">
<g transform="translate(771.85 408.93) scale(.1 -.1)">
<use xlink:href="#d"/>
</g>
</g>
<g clip-path="url(#a)">
<defs>
<path id="c" d="m12.406 8.2969h16.109v55.625l-17.531-3.5156v8.9844l17.438 3.5156h9.8594v-64.609h16.109v-8.2969h-41.984z"/>
</defs>
<g transform="translate(418.24 23.258) scale(.1 -.1)">
<use xlink:href="#c"/>
<use x="63.623047" xlink:href="#d"/>
<use x="95.410156" xlink:href="#c"/>
</g>
</g>
<g clip-path="url(#a)">
<defs>
<path id="m" d="m19.188 8.2969h34.422v-8.2969h-46.281v8.2969q5.6094 5.8125 15.297 15.594 9.7031 9.7969 12.188 12.641 4.7344 5.3125 6.6094 9 1.8906 3.6875 1.8906 7.25 0 5.8125-4.0781 9.4688-4.0781 3.6719-10.625 3.6719-4.6406 0-9.7969-1.6094-5.1406-1.6094-11-4.8906v9.9688q5.9531 2.3906 11.125 3.6094 5.1875 1.2188 9.4844 1.2188 11.328 0 18.062-5.6719 6.7344-5.6562 6.7344-15.125 0-4.5-1.6875-8.5312-1.6719-4.0156-6.125-9.4844-1.2188-1.4219-7.7656-8.1875-6.5312-6.7656-18.453-18.922z"/>
</defs>
<g transform="translate(205.97 103.12) scale(.1 -.1)">
<use xlink:href="#c"/>
<use x="63.623047" xlink:href="#d"/>
<use x="95.410156" xlink:href="#m"/>
</g>
</g>
<g clip-path="url(#a)">
<defs>
<path id="v" d="m40.578 39.312q7.0781-1.5156 11.047-6.3125 3.9844-4.7812 3.9844-11.812 0-10.781-7.4219-16.703-7.4219-5.9062-21.094-5.9062-4.5781 0-9.4375 0.90625t-10.031 2.7188v9.5156q4.0938-2.3906 8.9688-3.6094 4.8906-1.2188 10.219-1.2188 9.2656 0 14.125 3.6562t4.8594 10.641q0 6.4531-4.5156 10.078-4.5156 3.6406-12.562 3.6406h-8.5v8.1094h8.8906q7.2656 0 11.125 2.9062t3.8594 8.375q0 5.6094-3.9844 8.6094-3.9688 3.0156-11.391 3.0156-4.0625 0-8.7031-0.89062-4.6406-0.875-10.203-2.7188v8.7812q5.625 1.5625 10.531 2.3438t9.25 0.78125q11.234 0 17.766-5.1094 6.5469-5.0938 6.5469-13.781 0-6.0625-3.4688-10.234t-9.8594-5.7812z"/>
</defs>
<g transform="translate(630.52 181.2) scale(.1 -.1)">
<use xlink:href="#c"/>
<use x="63.623047" xlink:href="#d"/>
<use x="95.410156" xlink:href="#v"/>
</g>
</g>
<g clip-path="url(#a)">
<defs>
<path id="u" d="m10.797 72.906h38.719v-8.3125h-29.688v-17.859q2.1406 0.73438 4.2812 1.0938 2.1562 0.35938 4.3125 0.35938 12.203 0 19.328-6.6875 7.1406-6.6875 7.1406-18.109 0-11.766-7.3281-18.297-7.3281-6.5156-20.656-6.5156-4.5938 0-9.3594 0.78125-4.75 0.78125-9.8281 2.3438v9.9219q4.3906-2.3906 9.0781-3.5625t9.9062-1.1719q8.4531 0 13.375 4.4375 4.9375 4.4375 4.9375 12.062 0 7.6094-4.9375 12.047-4.9219 4.4531-13.375 4.4531-3.9531 0-7.8906-0.875-3.9219-0.875-8.0156-2.7344z"/>
</defs>
<g transform="translate(618.25 333.37) scale(.1 -.1)">
<use xlink:href="#c"/>
<use x="63.623047" xlink:href="#d"/>
<use x="95.410156" xlink:href="#u"/>
</g>
</g>
<g clip-path="url(#a)">
<defs>
<path id="af" d="m33.016 40.375q-6.6406 0-10.531-4.5469-3.875-4.5312-3.875-12.438 0-7.8594 3.875-12.438 3.8906-4.5625 10.531-4.5625t10.516 4.5625q3.875 4.5781 3.875 12.438 0 7.9062-3.875 12.438-3.875 4.5469-10.516 4.5469zm19.578 30.922v-8.9844q-3.7188 1.75-7.5 2.6719-3.7812 0.9375-7.5 0.9375-9.7656 0-14.922-6.5938-5.1406-6.5938-5.875-19.922 2.875 4.25 7.2188 6.5156 4.3594 2.2656 9.5781 2.2656 10.984 0 17.359-6.6719 6.375-6.6562 6.375-18.125 0-11.234-6.6406-18.031-6.6406-6.7812-17.672-6.7812-12.656 0-19.344 9.6875-6.6875 9.7031-6.6875 28.109 0 17.281 8.2031 27.562t22.016 10.281q3.7188 0 7.5-0.73438t7.8906-2.1875z"/>
</defs>
<g transform="translate(667.33 333.37) scale(.1 -.1)">
<use xlink:href="#c"/>
<use x="63.623047" xlink:href="#d"/>
<use x="95.410156" xlink:href="#af"/>
</g>
</g>
<g clip-path="url(#a)">
<defs>
<path id="ae" d="m8.2031 72.906h46.875v-4.2031l-26.469-68.703h-10.297l24.906 64.594h-35.016z"/>
</defs>
<g transform="translate(667.33 257.81) scale(.1 -.1)">
<use xlink:href="#c"/>
<use x="63.623047" xlink:href="#d"/>
<use x="95.410156" xlink:href="#ae"/>
</g>
</g>
<g clip-path="url(#a)">
<defs>
<path id="ad" d="m10.984 1.5156v8.9844q3.7188-1.7656 7.5156-2.6875 3.8125-0.92188 7.4844-0.92188 9.7656 0 14.906 6.5625 5.1562 6.5625 5.8906 19.953-2.8281-4.2031-7.1875-6.4531-4.3438-2.25-9.6094-2.25-10.938 0-17.312 6.6094-6.375 6.625-6.375 18.109 0 11.219 6.6406 18 6.6406 6.7969 17.672 6.7969 12.656 0 19.312-9.7031 6.6719-9.6875 6.6719-28.141 0-17.234-8.1875-27.516-8.1719-10.281-21.984-10.281-3.7188 0-7.5312 0.73438-3.7969 0.73438-7.9062 2.2031zm19.625 30.906q6.6406 0 10.516 4.5312 3.8906 4.5469 3.8906 12.469 0 7.8594-3.8906 12.422-3.875 4.5625-10.516 4.5625t-10.516-4.5625-3.875-12.422q0-7.9219 3.875-12.469 3.875-4.5312 10.516-4.5312z"/>
</defs>
<g transform="translate(716.41 333.37) scale(.1 -.1)">
<use xlink:href="#c"/>
<use x="63.623047" xlink:href="#d"/>
<use x="95.410156" xlink:href="#ad"/>
</g>
</g>
<g clip-path="url(#a)">
<defs>
<path id="ah" d="m31.781 66.406q-7.6094 0-11.453-7.5-3.8281-7.4844-3.8281-22.531 0-14.984 3.8281-22.484 3.8438-7.5 11.453-7.5 7.6719 0 11.5 7.5 3.8438 7.5 3.8438 22.484 0 15.047-3.8438 22.531-3.8281 7.5-11.5 7.5zm0 7.8125q12.266 0 18.734-9.7031 6.4688-9.6875 6.4688-28.141 0-18.406-6.4688-28.109-6.4688-9.6875-18.734-9.6875-12.25 0-18.719 9.6875-6.4688 9.7031-6.4688 28.109 0 18.453 6.4688 28.141 6.4688 9.7031 18.719 9.7031z"/>
</defs>
<g transform="translate(50.634 257.81) scale(.1 -.1)">
<use xlink:href="#c"/>
<use x="63.623047" xlink:href="#d"/>
<use x="95.410156" xlink:href="#c"/>
<use x="159.033203" xlink:href="#ah"/>
</g>
</g>
<g clip-path="url(#a)">
<g transform="translate(124.26 333.37) scale(.1 -.1)">
<use xlink:href="#c"/>
<use x="63.623047" xlink:href="#d"/>
<use x="95.410156" xlink:href="#c"/>
<use x="159.033203" xlink:href="#c"/>
</g>
</g>
<g clip-path="url(#a)">
<g transform="translate(173.34 333.37) scale(.1 -.1)">
<use xlink:href="#c"/>
<use x="63.623047" xlink:href="#d"/>
<use x="95.410156" xlink:href="#c"/>
<use x="159.033203" xlink:href="#m"/>
</g>
</g>
<g clip-path="url(#a)">
<g transform="translate(222.42 333.37) scale(.1 -.1)">
<use xlink:href="#c"/>
<use x="63.623047" xlink:href="#d"/>
<use x="95.410156" xlink:href="#c"/>
<use x="159.033203" xlink:href="#v"/>
</g>
</g>
<g clip-path="url(#a)">
<defs>
<path id="ag" d="m37.797 64.312-24.906-38.922h24.906zm-2.5938 8.5938h12.406v-47.516h10.406v-8.2031h-10.406v-17.188h-9.8125v17.188h-32.906v9.5156z"/>
</defs>
<g transform="translate(443.28 181.2) scale(.1 -.1)">
<use xlink:href="#c"/>
<use x="63.623047" xlink:href="#d"/>
<use x="95.410156" xlink:href="#c"/>
<use x="159.033203" xlink:href="#ag"/>
</g>
</g>
<g clip-path="url(#a)">
<g transform="translate(345.12 257.81) scale(.1 -.1)">
<use xlink:href="#c"/>
<use x="63.623047" xlink:href="#d"/>
<use x="95.410156" xlink:href="#c"/>
<use x="159.033203" xlink:href="#u"/>
</g>
</g>
<g clip-path="url(#a)">
<g transform="translate(467.82 333.37) scale(.1 -.1)">
<use xlink:href="#c"/>
<use x="63.623047" xlink:href="#d"/>
<use x="95.410156" xlink:href="#c"/>
<use x="159.033203" xlink:href="#af"/>
</g>
</g>
<g clip-path="url(#a)">
<g transform="translate(516.9 333.37) scale(.1 -.1)">
<use xlink:href="#c"/>
<use x="63.623047" xlink:href="#d"/>
<use x="95.410156" xlink:href="#c"/>
<use x="159.033203" xlink:href="#ae"/>
</g>
</g>
<g clip-path="url(#a)">
<defs>
<path id="ao" d="m31.781 34.625q-7.0312 0-11.062-3.7656-4.0156-3.7656-4.0156-10.344 0-6.5938 4.0156-10.359 4.0312-3.7656 11.062-3.7656t11.078 3.7812q4.0625 3.7969 4.0625 10.344 0 6.5781-4.0312 10.344-4.0156 3.7656-11.109 3.7656zm-9.8594 4.1875q-6.3438 1.5625-9.8906 5.9062-3.5312 4.3594-3.5312 10.609 0 8.7344 6.2188 13.812 6.2344 5.0781 17.062 5.0781 10.891 0 17.094-5.0781t6.2031-13.812q0-6.25-3.5469-10.609-3.5312-4.3438-9.8281-5.9062 7.125-1.6562 11.094-6.5 3.9844-4.8281 3.9844-11.797 0-10.609-6.4688-16.281-6.4688-5.6562-18.531-5.6562-12.047 0-18.531 5.6562-6.4688 5.6719-6.4688 16.281 0 6.9688 4 11.797 4.0156 4.8438 11.141 6.5zm-3.6094 15.578q0-5.6562 3.5312-8.8281 3.5469-3.1719 9.9375-3.1719 6.3594 0 9.9375 3.1719 3.5938 3.1719 3.5938 8.8281 0 5.6719-3.5938 8.8438-3.5781 3.1719-9.9375 3.1719-6.3906 0-9.9375-3.1719-3.5312-3.1719-3.5312-8.8438z"/>
</defs>
<g transform="translate(271.5 333.37) scale(.1 -.1)">
<use xlink:href="#c"/>
<use x="63.623047" xlink:href="#d"/>
<use x="95.410156" xlink:href="#c"/>
<use x="159.033203" xlink:href="#ao"/>
</g>
</g>
<g clip-path="url(#a)">
<g transform="translate(320.58 333.37) scale(.1 -.1)">
<use xlink:href="#c"/>
<use x="63.623047" xlink:href="#d"/>
<use x="95.410156" xlink:href="#c"/>
<use x="159.033203" xlink:href="#ad"/>
</g>
</g>
<g clip-path="url(#a)">
<g transform="translate(369.66 333.37) scale(.1 -.1)">
<use xlink:href="#c"/>
<use x="63.623047" xlink:href="#d"/>
<use x="95.410156" xlink:href="#m"/>
<use x="159.033203" xlink:href="#ah"/>
</g>
</g>
<g clip-path="url(#a)">
<g transform="translate(418.74 333.37) scale(.1 -.1)">
<use xlink:href="#c"/>
<use x="63.623047" xlink:href="#d"/>
<use x="95.410156" xlink:href="#m"/>
<use x="159.033203" xlink:href="#c"/>
</g>
</g>
<g clip-path="url(#a)">
<g transform="translate(26.093 333.37) scale(.1 -.1)">
<use xlink:href="#c"/>
<use x="63.623047" xlink:href="#d"/>
<use x="95.410156" xlink:href="#m"/>
<use x="159.033203" xlink:href="#m"/>
</g>
</g>
<g clip-path="url(#a)">
<g transform="translate(75.174 333.37) scale(.1 -.1)">
<use xlink:href="#c"/>
<use x="63.623047" xlink:href="#d"/>
<use x="95.410156" xlink:href="#m"/>
<use x="159.033203" xlink:href="#v"/>
</g>
</g>
<g clip-path="url(#a)">
<g transform="translate(565.98 333.37) scale(.1 -.1)">
<use xlink:href="#c"/>
<use x="63.623047" xlink:href="#d"/>
<use x="95.410156" xlink:href="#m"/>
<use x="159.033203" xlink:href="#ag"/>
</g>
</g>
<g clip-path="url(#a)">
<g transform="translate(762.31 333.37) scale(.1 -.1)">
<use xlink:href="#c"/>
<use x="63.623047" xlink:href="#d"/>
<use x="95.410156" xlink:href="#m"/>
<use x="159.033203" xlink:href="#u"/>
</g>
</g>
<defs>
<clipPath id="a">
<rect width="810.67" height="426.67"/>
</clipPath>
</defs>
</svg>
