<?xml version="1.0" encoding="UTF-8"?>
<!DOCTYPE svg  PUBLIC '-//W3C//DTD SVG 1.1//EN'  'http://www.w3.org/Graphics/SVG/1.1/DTD/svg11.dtd'>
<svg width="1064pt" height="560pt" version="1.1" viewBox="0 0 1064 560" xmlns="http://www.w3.org/2000/svg" xmlns:xlink="http://www.w3.org/1999/xlink">
<defs>
<style type="text/css">*{stroke-linecap:butt;stroke-linejoin:round;}</style>
</defs>
<path d="m0 560h1064v-560h-1064z" fill="#fff"/>
<g fill="none" stroke="#000">
<path d="m178.07 26.124v68.911" clip-path="url(#a)"/>
<path d="m178.07 95.034-129.42 378.74" clip-path="url(#a)"/>
<path d="m178.07 95.034-32.752 318.64" clip-path="url(#a)"/>
<path d="m178.07 95.034-32.752 378.74" clip-path="url(#a)"/>
<path d="m178.07 95.034 194.93 66.939" clip-path="url(#a)"/>
<path d="m48.647 473.78v60.099" clip-path="url(#a)"/>
<path d="m145.32 413.68-48.335 60.099" clip-path="url(#a)"/>
<path d="m145.32 413.68 48.335 60.099" clip-path="url(#a)"/>
<path d="m145.32 473.78v60.099" clip-path="url(#a)"/>
<path d="m373 161.97-131.01 311.8" clip-path="url(#a)"/>
<path d="m373 161.97-82.674 311.8" clip-path="url(#a)"/>
<path d="m373 161.97-34.338 311.8" clip-path="url(#a)"/>
<path d="m373 161.97 234.02 65.14" clip-path="url(#a)"/>
<path d="m373 161.97 13.997 311.8" clip-path="url(#a)"/>
<path d="m241.99 473.78v60.099" clip-path="url(#a)"/>
<path d="m290.32 473.78v60.099" clip-path="url(#a)"/>
<path d="m338.66 473.78v60.099" clip-path="url(#a)"/>
<path d="m607.02 227.11-129.4 125.63" clip-path="url(#a)"/>
<path d="m607.02 227.11 118.32 246.66" clip-path="url(#a)"/>
<path d="m607.02 227.11 11.077 63.523" clip-path="url(#a)"/>
<path d="m477.62 352.74-138.96 121.03" clip-path="url(#a)" stroke-dasharray="3.7,1.6"/>
<path d="m477.62 352.74-42.293 121.03" clip-path="url(#a)"/>
<path d="m477.62 352.74 30.21 60.935" clip-path="url(#a)"/>
<path d="m477.62 352.74 151.05 60.935" clip-path="url(#a)"/>
<path d="m725.34 473.78v60.099" clip-path="url(#a)"/>
<path d="m618.1 290.64-279.44 183.14" clip-path="url(#a)" stroke-dasharray="3.7,1.6"/>
<path d="m618.1 290.64 155.58 183.14" clip-path="url(#a)"/>
<path d="m618.1 290.64 306.63 62.108" clip-path="url(#a)"/>
<path d="m618.1 290.64-182.77 183.14" clip-path="url(#a)" stroke-dasharray="3.7,1.6"/>
<path d="m773.68 473.78v60.099" clip-path="url(#a)"/>
<path d="m924.72 352.74-102.71 121.03" clip-path="url(#a)"/>
<path d="m924.72 352.74-30.21 60.935" clip-path="url(#a)"/>
<path d="m924.72 352.74 42.293 121.03" clip-path="url(#a)"/>
<path d="m924.72 352.74 90.629 121.03" clip-path="url(#a)"/>
<path d="m822.01 473.78v60.099" clip-path="url(#a)"/>
<path d="m894.51 413.68-24.168 60.099" clip-path="url(#a)"/>
<path d="m894.51 413.68 24.168 60.099" clip-path="url(#a)"/>
<path d="m967.02 473.78v60.099" clip-path="url(#a)"/>
<path d="m870.35 473.78v60.099" clip-path="url(#a)"/>
<path d="m918.68 473.78v60.099" clip-path="url(#a)"/>
<path d="m435.33 473.78v60.099" clip-path="url(#a)"/>
<path d="m507.83 413.68-24.168 60.099" clip-path="url(#a)"/>
<path d="m507.83 413.68 24.168 60.099" clip-path="url(#a)"/>
<path d="m628.67 413.68-48.335 60.099" clip-path="url(#a)"/>
<path d="m628.67 413.68v60.099" clip-path="url(#a)"/>
<path d="m628.67 413.68 48.335 60.099" clip-path="url(#a)"/>
<path d="m580.34 473.78v60.099" clip-path="url(#a)"/>
<path d="m628.67 473.78v60.099" clip-path="url(#a)"/>
<path d="m677.01 473.78v60.099" clip-path="url(#a)"/>
<path d="m483.66 473.78v60.099" clip-path="url(#a)"/>
<path d="m532 473.78v60.099" clip-path="url(#a)"/>
<path d="m96.982 473.78v60.099" clip-path="url(#a)"/>
<path d="m193.65 473.78v60.099" clip-path="url(#a)"/>
<path d="m607.02 227.11-129.4 125.63" clip-path="url(#a)"/>
<path d="m607.02 227.11 118.32 246.66" clip-path="url(#a)"/>
<path d="m607.02 227.11 11.077 63.523" clip-path="url(#a)"/>
<path d="m386.99 473.78v60.099" clip-path="url(#a)"/>
<path d="m1015.4 473.78v60.099" clip-path="url(#a)"/>
</g>
<path d="m171.8 57.571v6.0162q0 2.4 2.4 2.4h7.7425q2.4 0 2.4-2.4v-6.0162q0-2.4-2.4-2.4h-7.7425q-2.4 0-2.4 2.4z" clip-path="url(#a)" fill="#fff" stroke="#fff"/>
<g clip-path="url(#a)">
<defs>
<path id="ac" d="m9.8125 72.906h9.8594v-29.891h35.844v29.891h9.8594v-72.906h-9.8594v34.719h-35.844v-34.719h-9.8594z"/>
</defs>
<g transform="translate(175.86 57.571) rotate(90) scale(.08 -.08)">
<use xlink:href="#ac"/>
</g>
</g>
<path d="m118.41 289.02 1.7696-5.1785q0.77606-2.2711-1.495-3.0471l-7.3265-2.5036q-2.2711-0.77606-3.0471 1.495l-1.7696 5.1785q-0.77606 2.2711 1.495 3.0471l7.3265 2.5036q2.2711 0.77606 3.0471-1.495z" clip-path="url(#a)" fill="#fff" stroke="#fff"/>
<g clip-path="url(#a)">
<defs>
<path id="o" d="m34.188 63.188-13.391-36.281h26.812zm-5.5781 9.7188h11.188l27.781-72.906h-10.25l-6.6406 18.703h-32.859l-6.6406-18.703h-10.406z"/>
</defs>
<g transform="translate(114.56 287.71) rotate(-71.134) scale(.08 -.08)">
<use xlink:href="#o"/>
</g>
</g>
<path d="m167.67 257.52 0.51929-5.0521q0.24539-2.3874-2.142-2.6328l-7.7019-0.79165q-2.3874-0.24539-2.6328 2.142l-0.51929 5.0521q-0.24539 2.3874 2.142 2.6328l7.7019 0.79165q2.3874 0.24539 2.6328-2.142z" clip-path="url(#a)" fill="#fff" stroke="#fff"/>
<g clip-path="url(#a)">
<defs>
<path id="ak" d="m53.516 70.516v-9.625q-5.6094 2.6875-10.594 4-4.9844 1.3281-9.625 1.3281-8.0469 0-12.422-3.125t-4.375-8.8906q0-4.8438 2.9062-7.3125 2.9062-2.4531 11.016-3.9688l5.9531-1.2188q11.031-2.1094 16.281-7.4062t5.25-14.172q0-10.609-7.1094-16.078-7.0938-5.4688-20.812-5.4688-5.1719 0-11.016 1.1719-5.8281 1.1719-12.078 3.4688v10.156q6-3.3594 11.766-5.0781 5.7656-1.7031 11.328-1.7031 8.4375 0 13.031 3.3125 4.5938 3.3281 4.5938 9.4844 0 5.3594-3.2969 8.3906t-10.812 4.5469l-6.0156 1.1719q-11.031 2.1875-15.969 6.875-4.9219 4.6875-4.9219 13.047 0 9.6719 6.8125 15.234t18.766 5.5625q5.1406 0 10.453-0.9375 5.3281-0.92188 10.891-2.7656z"/>
</defs>
<g transform="translate(163.63 257.11) rotate(-84.131) scale(.08 -.08)">
<use xlink:href="#ak"/>
</g>
</g>
<path d="m167.68 288.01 0.53071-6.1371q0.20677-2.3911-2.1843-2.5978l-7.7137-0.66705q-2.3911-0.20677-2.5978 2.1843l-0.53071 6.1371q-0.20677 2.3911 2.1843 2.5978l7.7137 0.66705q2.3911 0.20677 2.5978-2.1843z" clip-path="url(#a)" fill="#fff" stroke="#fff"/>
<g clip-path="url(#a)">
<defs>
<path id="aq" d="m19.672 64.797v-56.688h11.922q15.094 0 22.094 6.8281 7 6.8438 7 21.594 0 14.641-7 21.453t-22.094 6.8125zm-9.8594 8.1094h20.266q21.188 0 31.094-8.8125 9.9219-8.8125 9.9219-27.562 0-18.859-9.9688-27.703-9.9531-8.8281-31.047-8.8281h-20.266z"/>
</defs>
<g transform="translate(163.63 287.66) rotate(-85.058) scale(.08 -.08)">
<use xlink:href="#aq"/>
</g>
</g>
<path d="m270.91 133.55 5.1758 1.7774q2.2699 0.77949 3.0494-1.4904l2.5147-7.3228q0.77949-2.2699-1.4904-3.0494l-5.1758-1.7774q-2.2699-0.77949-3.0494 1.4904l-2.5147 7.3228q-0.77949 2.2699 1.4904 3.0494z" clip-path="url(#a)" fill="#fff" stroke="#fff"/>
<g clip-path="url(#a)">
<g transform="translate(272.23 129.7) rotate(18.953) scale(.08 -.08)">
<use xlink:href="#o"/>
</g>
</g>
<path d="m42.376 486.18v35.285q0 2.4 2.4 2.4h7.7425q2.4 0 2.4-2.4v-35.285q0-2.4-2.4-2.4h-7.7425q-2.4 0-2.4 2.4z" clip-path="url(#a)" fill="#fff" stroke="#fff"/>
<g clip-path="url(#a)">
<defs>
<path id="l" d="m-0.29688 72.906h61.672v-8.3125h-25.875v-64.594h-9.9062v64.594h-25.891z"/>
<path id="e" d="m56.203 29.594v-4.3906h-41.312q0.59375-9.2812 5.5938-14.141t13.938-4.8594q5.1719 0 10.031 1.2656t9.6562 3.8125v-8.5q-4.8438-2.0469-9.9219-3.125t-10.297-1.0781q-13.094 0-20.734 7.6094-7.6406 7.625-7.6406 20.625 0 13.422 7.25 21.297 7.25 7.8906 19.562 7.8906 11.031 0 17.453-7.1094 6.4219-7.0938 6.4219-19.297zm-8.9844 2.6406q-0.09375 7.3594-4.125 11.75-4.0312 4.4062-10.672 4.4062-7.5156 0-12.031-4.25t-5.2031-11.969z"/>
<path id="j" d="m41.109 46.297q-1.5156 0.875-3.2969 1.2812-1.7812 0.42188-3.9219 0.42188-7.625 0-11.703-4.9531t-4.0781-14.234v-28.812h-9.0312v54.688h9.0312v-8.5q2.8438 4.9844 7.375 7.3906 4.5469 2.4219 11.047 2.4219 0.92188 0 2.0469-0.125 1.125-0.10938 2.4844-0.35938z"/>
<path id="k" d="m52 44.188q3.375 6.0625 8.0625 8.9375t11.031 2.875q8.5469 0 13.188-5.9844 4.6406-5.9688 4.6406-17v-33.016h-9.0312v32.719q0 7.8594-2.7969 11.656-2.7812 3.8125-8.4844 3.8125-6.9844 0-11.047-4.6406-4.0469-4.625-4.0469-12.641v-30.906h-9.0312v32.719q0 7.9062-2.7812 11.688t-8.5938 3.7812q-6.8906 0-10.953-4.6562-4.0469-4.6562-4.0469-12.625v-30.906h-9.0312v54.688h9.0312v-8.5q3.0781 5.0312 7.375 7.4219t10.203 2.3906q5.9688 0 10.141-3.0312 4.1719-3.0156 6.1719-8.7812z"/>
<path id="f" d="m9.4219 54.688h8.9844v-54.688h-8.9844zm0 21.297h8.9844v-11.391h-8.9844z"/>
<path id="h" d="m54.891 33.016v-33.016h-8.9844v32.719q0 7.7656-3.0312 11.609-3.0312 3.8594-9.0781 3.8594-7.2812 0-11.484-4.6406-4.2031-4.625-4.2031-12.641v-30.906h-9.0312v54.688h9.0312v-8.5q3.2344 4.9375 7.5938 7.375 4.375 2.4375 10.094 2.4375 9.4219 0 14.25-5.8281 4.8438-5.8281 4.8438-17.156z"/>
<path id="g" d="m34.281 27.484q-10.891 0-15.094-2.4844t-4.2031-8.5q0-4.7812 3.1562-7.5938 3.1562-2.7969 8.5625-2.7969 7.4844 0 12 5.2969t4.5156 14.078v2zm17.922 3.7188v-31.203h-8.9844v8.2969q-3.0781-4.9688-7.6719-7.3438t-11.234-2.375q-8.3906 0-13.359 4.7188-4.9531 4.7188-4.9531 12.625 0 9.2188 6.1719 13.906 6.1875 4.6875 18.438 4.6875h12.609v0.89062q0 6.2031-4.0781 9.5938t-11.453 3.3906q-4.6875 0-9.1406-1.125-4.4375-1.125-8.5312-3.375v8.3125q4.9219 1.9062 9.5625 2.8438 4.6406 0.95312 9.0312 0.95312 11.875 0 17.734-6.1562 5.8594-6.1406 5.8594-18.641z"/>
<path id="i" d="m9.4219 75.984h8.9844v-75.984h-8.9844z"/>
</defs>
<g transform="translate(46.439 486.18) rotate(90) scale(.08 -.08)">
<use xlink:href="#l"/>
<use x="60.818359" xlink:href="#e"/>
<use x="122.341797" xlink:href="#j"/>
<use x="163.439453" xlink:href="#k"/>
<use x="260.851562" xlink:href="#f"/>
<use x="288.634766" xlink:href="#h"/>
<use x="352.013672" xlink:href="#g"/>
<use x="413.292969" xlink:href="#i"/>
</g>
</g>
<path d="m124.59 449.45 2.8837-3.5855q1.5041-1.8702-0.36606-3.3743l-6.0333-4.8524q-1.8702-1.5041-3.3743 0.36606l-2.8837 3.5855q-1.5041 1.8702 0.36606 3.3743l6.0333 4.8524q1.8702 1.5041 3.3743-0.36606z" clip-path="url(#a)" fill="#fff" stroke="#fff"/>
<g clip-path="url(#a)">
<defs>
<path id="al" d="m9.8125 72.906h41.891v-8.3125h-32.031v-21.484h28.906v-8.2969h-28.906v-34.812h-9.8594z"/>
</defs>
<g transform="translate(121.43 446.9) rotate(-51.191) scale(.08 -.08)">
<use xlink:href="#al"/>
</g>
</g>
<path d="m162.85 445.48 3.501 4.3531q1.5041 1.8702 3.3743 0.36606l6.0333-4.8524q1.8702-1.5041 0.36606-3.3743l-3.501-4.3531q-1.5041-1.8702-3.3743-0.36606l-6.0333 4.8524q-1.8702 1.5041-0.36606 3.3743z" clip-path="url(#a)" fill="#fff" stroke="#fff"/>
<g clip-path="url(#a)">
<defs>
<path id="s" d="m64.406 67.281v-10.391q-4.9844 4.6406-10.625 6.9219-5.6406 2.2969-11.984 2.2969-12.5 0-19.141-7.6406t-6.6406-22.094q0-14.406 6.6406-22.047t19.141-7.6406q6.3438 0 11.984 2.2969t10.625 6.9375v-10.312q-5.1719-3.5156-10.969-5.2812-5.7812-1.75-12.219-1.75-16.562 0-26.094 10.125-9.5156 10.141-9.5156 27.672 0 17.578 9.5156 27.703 9.5312 10.141 26.094 10.141 6.5312 0 12.312-1.7344 5.7969-1.7344 10.875-5.2031z"/>
</defs>
<g transform="translate(166.01 442.94) rotate(51.191) scale(.08 -.08)">
<use xlink:href="#s"/>
</g>
</g>
<path d="m139.05 486.18v35.285q0 2.4 2.4 2.4h7.7425q2.4 0 2.4-2.4v-35.285q0-2.4-2.4-2.4h-7.7425q-2.4 0-2.4 2.4z" clip-path="url(#a)" fill="#fff" stroke="#fff"/>
<g clip-path="url(#a)">
<g transform="translate(143.11 486.18) rotate(90) scale(.08 -.08)">
<use xlink:href="#l"/>
<use x="60.818359" xlink:href="#e"/>
<use x="122.341797" xlink:href="#j"/>
<use x="163.439453" xlink:href="#k"/>
<use x="260.851562" xlink:href="#f"/>
<use x="288.634766" xlink:href="#h"/>
<use x="352.013672" xlink:href="#g"/>
<use x="413.292969" xlink:href="#i"/>
</g>
</g>
<path d="m312.2 322.87 2.1532-5.1248q0.92967-2.2126-1.283-3.1423l-7.138-2.9991q-2.2126-0.92967-3.1423 1.283l-2.1532 5.1248q-0.92967 2.2126 1.283 3.1423l7.138 2.9991q2.2126 0.92967 3.1423-1.283z" clip-path="url(#a)" fill="#fff" stroke="#fff"/>
<g clip-path="url(#a)">
<defs>
<path id="r" d="m44.391 34.188q3.1719-1.0781 6.1719-4.5938t6.0312-9.6719l10.016-19.922h-10.609l-9.3125 18.703q-3.625 7.3281-7.0156 9.7188t-9.25 2.3906h-10.75v-30.812h-9.8594v72.906h22.266q12.5 0 18.656-5.2344 6.1562-5.2188 6.1562-15.766 0-6.8906-3.2031-11.438-3.2031-4.5312-9.2969-6.2812zm-24.719 30.609v-25.875h12.406q7.125 0 10.766 3.2969t3.6406 9.6875-3.6406 9.6406-10.766 3.25z"/>
</defs>
<g transform="translate(308.45 321.29) rotate(-67.21) scale(.08 -.08)">
<use xlink:href="#r"/>
</g>
</g>
<path d="m337.07 321.93 1.2955-4.8862q0.6151-2.3198-1.7047-2.9349l-7.4839-1.9843q-2.3198-0.6151-2.9349 1.7047l-1.2955 4.8862q-0.6151 2.3198 1.7047 2.9349l7.4839 1.9843q2.3198 0.6151 2.9349-1.7047z" clip-path="url(#a)" fill="#fff" stroke="#fff"/>
<g clip-path="url(#a)">
<defs>
<path id="t" d="m9.8125 72.906h46.094v-8.3125h-36.234v-21.578h34.719v-8.2969h-34.719v-26.422h37.109v-8.2969h-46.969z"/>
</defs>
<g transform="translate(333.15 320.88) rotate(-75.15) scale(.08 -.08)">
<use xlink:href="#t"/>
</g>
</g>
<path d="m361.76 321.34 0.6115-5.5527q0.26272-2.3856-2.1229-2.6483l-7.696-0.84754q-2.3856-0.26272-2.6483 2.1229l-0.6115 5.5527q-0.26272 2.3856 2.1229 2.6483l7.696 0.84754q2.3856 0.26272 2.6483-2.1229z" clip-path="url(#a)" fill="#fff" stroke="#fff"/>
<g clip-path="url(#a)">
<g transform="translate(357.72 320.89) rotate(-83.715) scale(.08 -.08)">
<use xlink:href="#s"/>
</g>
</g>
<path d="m485.89 199.91 4.8699 1.3555q2.3121 0.64357 2.9557-1.6685l2.0762-7.4589q0.64357-2.3121-1.6685-2.9557l-4.8699-1.3555q-2.3121-0.64357-2.9557 1.6685l-2.0762 7.4589q-0.64357 2.3121 1.6685 2.9557z" clip-path="url(#a)" fill="#fff" stroke="#fff"/>
<g clip-path="url(#a)">
<g transform="translate(486.98 195.99) rotate(15.554) scale(.08 -.08)">
<use xlink:href="#t"/>
</g>
</g>
<path d="m373.6 315.23 0.26257 5.8491q0.10763 2.3976 2.5052 2.29l7.7347-0.34722q2.3976-0.10763 2.29-2.5052l-0.26257-5.8491q-0.10763-2.3976-2.5052-2.29l-7.7347 0.34722q-2.3976 0.10763-2.29 2.5052z" clip-path="url(#a)" fill="#fff" stroke="#fff"/>
<g clip-path="url(#a)">
<defs>
<path id="aj" d="m8.6875 72.906h9.9219v-44.297q0-11.719 4.2344-16.875 4.25-5.1406 13.781-5.1406 9.4688 0 13.719 5.1406 4.25 5.1562 4.25 16.875v44.297h9.9062v-45.516q0-14.25-7.0625-21.531-7.0469-7.2812-20.812-7.2812-13.828 0-20.891 7.2812-7.0469 7.2812-7.0469 21.531z"/>
</defs>
<g transform="translate(377.66 315.05) rotate(87.43) scale(.08 -.08)">
<use xlink:href="#aj"/>
</g>
</g>
<path d="m235.72 486.18v35.285q0 2.4 2.4 2.4h7.7425q2.4 0 2.4-2.4v-35.285q0-2.4-2.4-2.4h-7.7425q-2.4 0-2.4 2.4z" clip-path="url(#a)" fill="#fff" stroke="#fff"/>
<g clip-path="url(#a)">
<g transform="translate(239.78 486.18) rotate(90) scale(.08 -.08)">
<use xlink:href="#l"/>
<use x="60.818359" xlink:href="#e"/>
<use x="122.341797" xlink:href="#j"/>
<use x="163.439453" xlink:href="#k"/>
<use x="260.851562" xlink:href="#f"/>
<use x="288.634766" xlink:href="#h"/>
<use x="352.013672" xlink:href="#g"/>
<use x="413.292969" xlink:href="#i"/>
</g>
</g>
<path d="m284.05 486.18v35.285q0 2.4 2.4 2.4h7.7425q2.4 0 2.4-2.4v-35.285q0-2.4-2.4-2.4h-7.7425q-2.4 0-2.4 2.4z" clip-path="url(#a)" fill="#fff" stroke="#fff"/>
<g clip-path="url(#a)">
<g transform="translate(288.12 486.18) rotate(90) scale(.08 -.08)">
<use xlink:href="#l"/>
<use x="60.818359" xlink:href="#e"/>
<use x="122.341797" xlink:href="#j"/>
<use x="163.439453" xlink:href="#k"/>
<use x="260.851562" xlink:href="#f"/>
<use x="288.634766" xlink:href="#h"/>
<use x="352.013672" xlink:href="#g"/>
<use x="413.292969" xlink:href="#i"/>
</g>
</g>
<path d="m332.39 486.18v35.285q0 2.4 2.4 2.4h7.7425q2.4 0 2.4-2.4v-35.285q0-2.4-2.4-2.4h-7.7425q-2.4 0-2.4 2.4z" clip-path="url(#a)" fill="#fff" stroke="#fff"/>
<g clip-path="url(#a)">
<g transform="translate(336.45 486.18) rotate(90) scale(.08 -.08)">
<use xlink:href="#l"/>
<use x="60.818359" xlink:href="#e"/>
<use x="122.341797" xlink:href="#j"/>
<use x="163.439453" xlink:href="#k"/>
<use x="260.851562" xlink:href="#f"/>
<use x="288.634766" xlink:href="#h"/>
<use x="352.013672" xlink:href="#g"/>
<use x="413.292969" xlink:href="#i"/>
</g>
</g>
<path d="m544.53 296.52 4.3165-4.1908q1.7219-1.6718 0.050124-3.3937l-5.3933-5.555q-1.6718-1.7219-3.3937-0.050124l-4.3165 4.1908q-1.7219 1.6718-0.050125 3.3937l5.3933 5.555q1.6718 1.7219 3.3937 0.050124z" clip-path="url(#a)" fill="#fff" stroke="#fff"/>
<g clip-path="url(#a)">
<g transform="translate(541.7 293.61) rotate(-44.154) scale(.08 -.08)">
<use xlink:href="#ac"/>
</g>
</g>
<path d="m659.56 351.15 1.9279 4.019q1.038 2.1639 3.2019 1.1259l6.9809-3.3486q2.1639-1.038 1.1259-3.2019l-1.9279-4.019q-1.038-2.1639-3.2019-1.1259l-6.9809 3.3486q-2.1639 1.038-1.1259 3.2019z" clip-path="url(#a)" fill="#fff" stroke="#fff"/>
<g clip-path="url(#a)">
<defs>
<path id="x" d="m9.8125 72.906h9.8594v-64.609h35.5v-8.2969h-45.359z"/>
</defs>
<g transform="translate(663.23 349.39) rotate(64.374) scale(.08 -.08)">
<use xlink:href="#x"/>
</g>
</g>
<path d="m605.86 256.99 1.0335 5.9268q0.41228 2.3643 2.7766 1.952l7.6274-1.33q2.3643-0.41228 1.952-2.7766l-1.0335-5.9268q-0.41228-2.3643-2.7766-1.952l-7.6274 1.33q-2.3643 0.41228-1.952 2.7766z" clip-path="url(#a)" fill="#fff" stroke="#fff"/>
<g clip-path="url(#a)">
<g transform="translate(609.87 256.29) rotate(80.108) scale(.08 -.08)">
<use xlink:href="#ac"/>
</g>
</g>
<path d="m410.2 419.79 4.1267-3.5942q1.8098-1.5763 0.23352-3.3861l-5.0851-5.8385q-1.5763-1.8098-3.3861-0.23352l-4.1267 3.5942q-1.8098 1.5763-0.23352 3.3861l5.0851 5.8385q1.5763 1.8098 3.3861 0.23352z" clip-path="url(#a)" fill="#fff" stroke="#fff"/>
<g clip-path="url(#a)">
<g transform="translate(407.53 416.72) rotate(-41.055) scale(.08 -.08)">
<use xlink:href="#o"/>
</g>
</g>
<path d="m461.48 417.95 1.8337-5.2476q0.7917-2.2657-1.474-3.0574l-7.3091-2.5541q-2.2657-0.7917-3.0574 1.474l-1.8337 5.2476q-0.7917 2.2657 1.474 3.0574l7.3091 2.5541q2.2657 0.7917 3.0574-1.474z" clip-path="url(#a)" fill="#fff" stroke="#fff"/>
<g clip-path="url(#a)">
<g transform="translate(457.64 416.61) rotate(-70.739) scale(.08 -.08)">
<use xlink:href="#r"/>
</g>
</g>
<path d="m485.98 383.72 2.2559 4.5502q1.066 2.1503 3.2163 1.0842l6.9368-3.4391q2.1503-1.066 1.0842-3.2163l-2.2559-4.5502q-1.066-2.1502-3.2163-1.0842l-6.9368 3.4391q-2.1503 1.066-1.0842 3.2163z" clip-path="url(#a)" fill="#fff" stroke="#fff"/>
<g clip-path="url(#a)">
<g transform="translate(489.62 381.92) rotate(63.629) scale(.08 -.08)">
<use xlink:href="#ak"/>
</g>
</g>
<path d="m548.26 388 5.0751 2.0474q2.2257 0.89788 3.1236-1.3278l2.8966-7.1802q0.89788-2.2257-1.3278-3.1236l-5.0751-2.0474q-2.2257-0.89788-3.1236 1.3278l-2.8966 7.1803q-0.89788 2.2257 1.3278 3.1236z" clip-path="url(#a)" fill="#fff" stroke="#fff"/>
<g clip-path="url(#a)">
<g transform="translate(549.78 384.24) rotate(21.97) scale(.08 -.08)">
<use xlink:href="#o"/>
</g>
</g>
<path d="m719.07 486.18v35.285q0 2.4 2.4 2.4h7.7425q2.4 0 2.4-2.4v-35.285q0-2.4-2.4-2.4h-7.7425q-2.4 0-2.4 2.4z" clip-path="url(#a)" fill="#fff" stroke="#fff"/>
<g clip-path="url(#a)">
<g transform="translate(723.13 486.18) rotate(90) scale(.08 -.08)">
<use xlink:href="#l"/>
<use x="60.818359" xlink:href="#e"/>
<use x="122.341797" xlink:href="#j"/>
<use x="163.439453" xlink:href="#k"/>
<use x="260.851562" xlink:href="#f"/>
<use x="288.634766" xlink:href="#h"/>
<use x="352.013672" xlink:href="#g"/>
<use x="413.292969" xlink:href="#i"/>
</g>
</g>
<path d="m479.53 388.95 4.5771-2.9998q2.0073-1.3156 0.69174-3.3229l-4.2441-6.4757q-1.3156-2.0073-3.3229-0.69174l-4.5771 2.9998q-2.0073 1.3156-0.69174 3.3229l4.2441 6.4757q1.3156 2.0073 3.3229 0.69174z" clip-path="url(#a)" fill="#fff" stroke="#fff"/>
<g clip-path="url(#a)">
<g transform="translate(477.3 385.55) rotate(-33.24) scale(.08 -.08)">
<use xlink:href="#o"/>
</g>
</g>
<path d="m689.55 384.43 3.123 3.6763q1.5538 1.8291 3.3829 0.27527l5.9008-5.0127q1.8291-1.5538 0.27527-3.3829l-3.123-3.6763q-1.5538-1.8291-3.3829-0.27527l-5.9008 5.0127q-1.8291 1.5538-0.27527 3.3829z" clip-path="url(#a)" fill="#fff" stroke="#fff"/>
<g clip-path="url(#a)">
<defs>
<path id="ao" d="m19.672 64.797v-27.391h12.406q6.8906 0 10.641 3.5625 3.7656 3.5625 3.7656 10.156 0 6.5469-3.7656 10.109-3.75 3.5625-10.641 3.5625zm-9.8594 8.1094h22.266q12.266 0 18.531-5.5469 6.2812-5.5469 6.2812-16.234 0-10.797-6.2812-16.312-6.2656-5.5156-18.531-5.5156h-12.406v-29.297h-9.8594z"/>
</defs>
<g transform="translate(692.64 381.8) rotate(49.652) scale(.08 -.08)">
<use xlink:href="#ao"/>
</g>
</g>
<path d="m767.48 327.29 5.3636 1.0864q2.3522 0.47645 2.8287-1.8758l1.537-7.5884q0.47645-2.3522-1.8758-2.8287l-5.3636-1.0864q-2.3522-0.47645-2.8287 1.8758l-1.537 7.5884q-0.47645 2.3522 1.8758 2.8287z" clip-path="url(#a)" fill="#fff" stroke="#fff"/>
<g clip-path="url(#a)">
<g transform="translate(768.29 323.31) rotate(11.45) scale(.08 -.08)">
<use xlink:href="#o"/>
</g>
</g>
<path d="m529.19 388.6 3.9266-3.9346q1.6953-1.6988-0.003461-3.3941l-5.4804-5.4692q-1.6988-1.6953-3.3941 0.003461l-3.9266 3.9346q-1.6953 1.6988 0.003462 3.3941l5.4804 5.4692q1.6988 1.6953 3.3941-0.003462z" clip-path="url(#a)" fill="#fff" stroke="#fff"/>
<g clip-path="url(#a)">
<g transform="translate(526.31 385.73) rotate(-45.058) scale(.08 -.08)">
<use xlink:href="#r"/>
</g>
</g>
<path d="m767.41 486.18v35.285q0 2.4 2.4 2.4h7.7425q2.4 0 2.4-2.4v-35.285q0-2.4-2.4-2.4h-7.7425q-2.4 0-2.4 2.4z" clip-path="url(#a)" fill="#fff" stroke="#fff"/>
<g clip-path="url(#a)">
<g transform="translate(771.47 486.18) rotate(90) scale(.08 -.08)">
<use xlink:href="#l"/>
<use x="60.818359" xlink:href="#e"/>
<use x="122.341797" xlink:href="#j"/>
<use x="163.439453" xlink:href="#k"/>
<use x="260.851562" xlink:href="#f"/>
<use x="288.634766" xlink:href="#h"/>
<use x="352.013672" xlink:href="#g"/>
<use x="413.292969" xlink:href="#i"/>
</g>
</g>
<path d="m876.35 419.44 3.5967-4.2383q1.5529-1.8299-0.27699-3.3828l-5.9033-5.0097q-1.8299-1.5529-3.3828 0.27699l-3.5967 4.2383q-1.5529 1.8299 0.27699 3.3828l5.9033 5.0097q1.8299 1.5529 3.3828-0.27699z" clip-path="url(#a)" fill="#fff" stroke="#fff"/>
<g clip-path="url(#a)">
<g transform="translate(873.25 416.81) rotate(-49.681) scale(.08 -.08)">
<use xlink:href="#r"/>
</g>
</g>
<path d="m914.12 388.26 2.2453-4.529q1.066-2.1503-1.0842-3.2163l-6.9368-3.4391q-2.1502-1.066-3.2163 1.0842l-2.2453 4.529q-1.066 2.1503 1.0842 3.2163l6.9368 3.4391q2.1503 1.066 3.2163-1.0842z" clip-path="url(#a)" fill="#fff" stroke="#fff"/>
<g clip-path="url(#a)">
<g transform="translate(910.47 386.46) rotate(-63.629) scale(.08 -.08)">
<use xlink:href="#t"/>
</g>
</g>
<path d="m939.03 412.69 1.8428 5.2736q0.7917 2.2657 3.0574 1.474l7.3091-2.5541q2.2657-0.7917 1.474-3.0574l-1.8428-5.2736q-0.7917-2.2657-3.0574-1.474l-7.3091 2.5541q-2.2657 0.7917-1.474 3.0574z" clip-path="url(#a)" fill="#fff" stroke="#fff"/>
<g clip-path="url(#a)">
<g transform="translate(942.87 411.35) rotate(70.739) scale(.08 -.08)">
<use xlink:href="#s"/>
</g>
</g>
<path d="m963.26 414.68 3.5094 4.6867q1.4385 1.9211 3.3596 0.4826l6.1976-4.6407q1.9211-1.4385 0.4826-3.3596l-3.5094-4.6867q-1.4385-1.9211-3.3596-0.4826l-6.1976 4.6407q-1.9211 1.4385-0.4826 3.3596z" clip-path="url(#a)" fill="#fff" stroke="#fff"/>
<g clip-path="url(#a)">
<g transform="translate(966.52 412.24) rotate(53.174) scale(.08 -.08)">
<use xlink:href="#aj"/>
</g>
</g>
<path d="m815.74 486.18v35.285q0 2.4 2.4 2.4h7.7425q2.4 0 2.4-2.4v-35.285q0-2.4-2.4-2.4h-7.7425q-2.4 0-2.4 2.4z" clip-path="url(#a)" fill="#fff" stroke="#fff"/>
<g clip-path="url(#a)">
<g transform="translate(819.8 486.18) rotate(90) scale(.08 -.08)">
<use xlink:href="#l"/>
<use x="60.818359" xlink:href="#e"/>
<use x="122.341797" xlink:href="#j"/>
<use x="163.439453" xlink:href="#k"/>
<use x="260.851562" xlink:href="#f"/>
<use x="288.634766" xlink:href="#h"/>
<use x="352.013672" xlink:href="#g"/>
<use x="413.292969" xlink:href="#i"/>
</g>
</g>
<path d="m887.31 448.41 1.886-4.69q0.89543-2.2267-1.3313-3.1221l-7.1834-2.8887q-2.2267-0.89543-3.1221 1.3313l-1.886 4.69q-0.89543 2.2267 1.3313 3.1221l7.1834 2.8887q2.2267 0.89543 3.1221-1.3313z" clip-path="url(#a)" fill="#fff" stroke="#fff"/>
<g clip-path="url(#a)">
<g transform="translate(883.54 446.9) rotate(-68.093) scale(.08 -.08)">
<use xlink:href="#t"/>
</g>
</g>
<path d="m899.74 443.48 2.0842 5.1829q0.89543 2.2267 3.1221 1.3313l7.1834-2.8887q2.2267-0.89543 1.3313-3.1221l-2.0842-5.1829q-0.89543-2.2267-3.1221-1.3313l-7.1834 2.8887q-2.2267 0.89543-1.3313 3.1221z" clip-path="url(#a)" fill="#fff" stroke="#fff"/>
<g clip-path="url(#a)">
<g transform="translate(903.51 441.96) rotate(68.093) scale(.08 -.08)">
<use xlink:href="#s"/>
</g>
</g>
<path d="m960.75 486.18v35.285q0 2.4 2.4 2.4h7.7425q2.4 0 2.4-2.4v-35.285q0-2.4-2.4-2.4h-7.7425q-2.4 0-2.4 2.4z" clip-path="url(#a)" fill="#fff" stroke="#fff"/>
<g clip-path="url(#a)">
<g transform="translate(964.81 486.18) rotate(90) scale(.08 -.08)">
<use xlink:href="#l"/>
<use x="60.818359" xlink:href="#e"/>
<use x="122.341797" xlink:href="#j"/>
<use x="163.439453" xlink:href="#k"/>
<use x="260.851562" xlink:href="#f"/>
<use x="288.634766" xlink:href="#h"/>
<use x="352.013672" xlink:href="#g"/>
<use x="413.292969" xlink:href="#i"/>
</g>
</g>
<path d="m864.08 486.18v35.285q0 2.4 2.4 2.4h7.7425q2.4 0 2.4-2.4v-35.285q0-2.4-2.4-2.4h-7.7425q-2.4 0-2.4 2.4z" clip-path="url(#a)" fill="#fff" stroke="#fff"/>
<g clip-path="url(#a)">
<g transform="translate(868.14 486.18) rotate(90) scale(.08 -.08)">
<use xlink:href="#l"/>
<use x="60.818359" xlink:href="#e"/>
<use x="122.341797" xlink:href="#j"/>
<use x="163.439453" xlink:href="#k"/>
<use x="260.851562" xlink:href="#f"/>
<use x="288.634766" xlink:href="#h"/>
<use x="352.013672" xlink:href="#g"/>
<use x="413.292969" xlink:href="#i"/>
</g>
</g>
<path d="m912.41 486.18v35.285q0 2.4 2.4 2.4h7.7425q2.4 0 2.4-2.4v-35.285q0-2.4-2.4-2.4h-7.7425q-2.4 0-2.4 2.4z" clip-path="url(#a)" fill="#fff" stroke="#fff"/>
<g clip-path="url(#a)">
<g transform="translate(916.47 486.18) rotate(90) scale(.08 -.08)">
<use xlink:href="#l"/>
<use x="60.818359" xlink:href="#e"/>
<use x="122.341797" xlink:href="#j"/>
<use x="163.439453" xlink:href="#k"/>
<use x="260.851562" xlink:href="#f"/>
<use x="288.634766" xlink:href="#h"/>
<use x="352.013672" xlink:href="#g"/>
<use x="413.292969" xlink:href="#i"/>
</g>
</g>
<path d="m429.06 486.18v35.285q0 2.4 2.4 2.4h7.7425q2.4 0 2.4-2.4v-35.285q0-2.4-2.4-2.4h-7.7425q-2.4 0-2.4 2.4z" clip-path="url(#a)" fill="#fff" stroke="#fff"/>
<g clip-path="url(#a)">
<g transform="translate(433.12 486.18) rotate(90) scale(.08 -.08)">
<use xlink:href="#l"/>
<use x="60.818359" xlink:href="#e"/>
<use x="122.341797" xlink:href="#j"/>
<use x="163.439453" xlink:href="#k"/>
<use x="260.851562" xlink:href="#f"/>
<use x="288.634766" xlink:href="#h"/>
<use x="352.013672" xlink:href="#g"/>
<use x="413.292969" xlink:href="#i"/>
</g>
</g>
<path d="m500.71 448.2 1.7167-4.269q0.89543-2.2267-1.3313-3.1221l-7.1834-2.8887q-2.2267-0.89543-3.1221 1.3313l-1.7167 4.269q-0.89543 2.2267 1.3313 3.1221l7.1834 2.8887q2.2267 0.89543 3.1221-1.3313z" clip-path="url(#a)" fill="#fff" stroke="#fff"/>
<g clip-path="url(#a)">
<g transform="translate(496.94 446.69) rotate(-68.093) scale(.08 -.08)">
<use xlink:href="#al"/>
</g>
</g>
<path d="m513.06 443.48 2.0842 5.1829q0.89543 2.2267 3.1221 1.3313l7.1834-2.8887q2.2267-0.89543 1.3313-3.1221l-2.0842-5.1829q-0.89543-2.2267-3.1221-1.3313l-7.1834 2.8887q-2.2267 0.89543-1.3313 3.1221z" clip-path="url(#a)" fill="#fff" stroke="#fff"/>
<g clip-path="url(#a)">
<g transform="translate(516.83 441.96) rotate(68.093) scale(.08 -.08)">
<use xlink:href="#s"/>
</g>
</g>
<path d="m607.65 449.82 3.4838-4.3316q1.5041-1.8702-0.36606-3.3743l-6.0333-4.8524q-1.8702-1.5041-3.3743 0.36606l-3.4838 4.3316q-1.5041 1.8702 0.36606 3.3743l6.0333 4.8524q1.8702 1.5041 3.3743-0.36606z" clip-path="url(#a)" fill="#fff" stroke="#fff"/>
<g clip-path="url(#a)">
<g transform="translate(604.48 447.28) rotate(-51.191) scale(.08 -.08)">
<use xlink:href="#r"/>
</g>
</g>
<path d="m622.4 441.2v5.055q0 2.4 2.4 2.4h7.7425q2.4 0 2.4-2.4v-5.055q0-2.4-2.4-2.4h-7.7425q-2.4 0-2.4 2.4z" clip-path="url(#a)" fill="#fff" stroke="#fff"/>
<g clip-path="url(#a)">
<g transform="translate(626.46 441.2) rotate(90) scale(.08 -.08)">
<use xlink:href="#t"/>
</g>
</g>
<path d="m646.2 445.48 3.501 4.3531q1.5041 1.8702 3.3743 0.36606l6.0333-4.8524q1.8702-1.5041 0.36606-3.3743l-3.501-4.3531q-1.5041-1.8702-3.3743-0.36606l-6.0333 4.8524q-1.8702 1.5041-0.36606 3.3743z" clip-path="url(#a)" fill="#fff" stroke="#fff"/>
<g clip-path="url(#a)">
<g transform="translate(649.37 442.94) rotate(51.191) scale(.08 -.08)">
<use xlink:href="#s"/>
</g>
</g>
<path d="m574.06 486.18v35.285q0 2.4 2.4 2.4h7.7425q2.4 0 2.4-2.4v-35.285q0-2.4-2.4-2.4h-7.7425q-2.4 0-2.4 2.4z" clip-path="url(#a)" fill="#fff" stroke="#fff"/>
<g clip-path="url(#a)">
<g transform="translate(578.13 486.18) rotate(90) scale(.08 -.08)">
<use xlink:href="#l"/>
<use x="60.818359" xlink:href="#e"/>
<use x="122.341797" xlink:href="#j"/>
<use x="163.439453" xlink:href="#k"/>
<use x="260.851562" xlink:href="#f"/>
<use x="288.634766" xlink:href="#h"/>
<use x="352.013672" xlink:href="#g"/>
<use x="413.292969" xlink:href="#i"/>
</g>
</g>
<path d="m622.4 486.18v35.285q0 2.4 2.4 2.4h7.7425q2.4 0 2.4-2.4v-35.285q0-2.4-2.4-2.4h-7.7425q-2.4 0-2.4 2.4z" clip-path="url(#a)" fill="#fff" stroke="#fff"/>
<g clip-path="url(#a)">
<g transform="translate(626.46 486.18) rotate(90) scale(.08 -.08)">
<use xlink:href="#l"/>
<use x="60.818359" xlink:href="#e"/>
<use x="122.341797" xlink:href="#j"/>
<use x="163.439453" xlink:href="#k"/>
<use x="260.851562" xlink:href="#f"/>
<use x="288.634766" xlink:href="#h"/>
<use x="352.013672" xlink:href="#g"/>
<use x="413.292969" xlink:href="#i"/>
</g>
</g>
<path d="m670.73 486.18v35.285q0 2.4 2.4 2.4h7.7425q2.4 0 2.4-2.4v-35.285q0-2.4-2.4-2.4h-7.7425q-2.4 0-2.4 2.4z" clip-path="url(#a)" fill="#fff" stroke="#fff"/>
<g clip-path="url(#a)">
<g transform="translate(674.8 486.18) rotate(90) scale(.08 -.08)">
<use xlink:href="#l"/>
<use x="60.818359" xlink:href="#e"/>
<use x="122.341797" xlink:href="#j"/>
<use x="163.439453" xlink:href="#k"/>
<use x="260.851562" xlink:href="#f"/>
<use x="288.634766" xlink:href="#h"/>
<use x="352.013672" xlink:href="#g"/>
<use x="413.292969" xlink:href="#i"/>
</g>
</g>
<path d="m477.39 486.18v35.285q0 2.4 2.4 2.4h7.7425q2.4 0 2.4-2.4v-35.285q0-2.4-2.4-2.4h-7.7425q-2.4 0-2.4 2.4z" clip-path="url(#a)" fill="#fff" stroke="#fff"/>
<g clip-path="url(#a)">
<g transform="translate(481.46 486.18) rotate(90) scale(.08 -.08)">
<use xlink:href="#l"/>
<use x="60.818359" xlink:href="#e"/>
<use x="122.341797" xlink:href="#j"/>
<use x="163.439453" xlink:href="#k"/>
<use x="260.851562" xlink:href="#f"/>
<use x="288.634766" xlink:href="#h"/>
<use x="352.013672" xlink:href="#g"/>
<use x="413.292969" xlink:href="#i"/>
</g>
</g>
<path d="m525.73 486.18v35.285q0 2.4 2.4 2.4h7.7425q2.4 0 2.4-2.4v-35.285q0-2.4-2.4-2.4h-7.7425q-2.4 0-2.4 2.4z" clip-path="url(#a)" fill="#fff" stroke="#fff"/>
<g clip-path="url(#a)">
<g transform="translate(529.79 486.18) rotate(90) scale(.08 -.08)">
<use xlink:href="#l"/>
<use x="60.818359" xlink:href="#e"/>
<use x="122.341797" xlink:href="#j"/>
<use x="163.439453" xlink:href="#k"/>
<use x="260.851562" xlink:href="#f"/>
<use x="288.634766" xlink:href="#h"/>
<use x="352.013672" xlink:href="#g"/>
<use x="413.292969" xlink:href="#i"/>
</g>
</g>
<path d="m90.711 486.18v35.285q0 2.4 2.4 2.4h7.7425q2.4 0 2.4-2.4v-35.285q0-2.4-2.4-2.4h-7.7425q-2.4 0-2.4 2.4z" clip-path="url(#a)" fill="#fff" stroke="#fff"/>
<g clip-path="url(#a)">
<g transform="translate(94.775 486.18) rotate(90) scale(.08 -.08)">
<use xlink:href="#l"/>
<use x="60.818359" xlink:href="#e"/>
<use x="122.341797" xlink:href="#j"/>
<use x="163.439453" xlink:href="#k"/>
<use x="260.851562" xlink:href="#f"/>
<use x="288.634766" xlink:href="#h"/>
<use x="352.013672" xlink:href="#g"/>
<use x="413.292969" xlink:href="#i"/>
</g>
</g>
<path d="m187.38 486.18v35.285q0 2.4 2.4 2.4h7.7425q2.4 0 2.4-2.4v-35.285q0-2.4-2.4-2.4h-7.7425q-2.4 0-2.4 2.4z" clip-path="url(#a)" fill="#fff" stroke="#fff"/>
<g clip-path="url(#a)">
<g transform="translate(191.45 486.18) rotate(90) scale(.08 -.08)">
<use xlink:href="#l"/>
<use x="60.818359" xlink:href="#e"/>
<use x="122.341797" xlink:href="#j"/>
<use x="163.439453" xlink:href="#k"/>
<use x="260.851562" xlink:href="#f"/>
<use x="288.634766" xlink:href="#h"/>
<use x="352.013672" xlink:href="#g"/>
<use x="413.292969" xlink:href="#i"/>
</g>
</g>
<path d="m543.13 297.89 7.1263-6.9189q1.7219-1.6718 0.050124-3.3937l-5.3933-5.555q-1.6718-1.7219-3.3937-0.050124l-7.1263 6.9189q-1.7219 1.6718-0.050124 3.3937l5.3933 5.555q1.6718 1.7219 3.3937 0.050124z" clip-path="url(#a)" fill="#fff" stroke="#fff"/>
<g clip-path="url(#a)">
<g transform="translate(540.3 294.97) rotate(-44.154) scale(.08 -.08)">
<use xlink:href="#x"/>
<use x="55.744141" xlink:href="#o"/>
</g>
</g>
<path d="m658.36 348.64 4.332 9.031q1.038 2.1639 3.2019 1.1259l6.9809-3.3486q2.1639-1.038 1.1259-3.2019l-4.332-9.031q-1.038-2.1639-3.2019-1.1259l-6.9809 3.3486q-2.1639 1.038-1.1259 3.2019z" clip-path="url(#a)" fill="#fff" stroke="#fff"/>
<g clip-path="url(#a)">
<g transform="translate(662.02 346.88) rotate(64.374) scale(.08 -.08)">
<use xlink:href="#x"/>
<use x="55.712891" xlink:href="#r"/>
</g>
</g>
<path d="m605.53 255.06 1.7062 9.7849q0.41228 2.3643 2.7766 1.952l7.6274-1.33q2.3643-0.41228 1.952-2.7766l-1.7062-9.7849q-0.41228-2.3643-2.7766-1.952l-7.6274 1.33q-2.3643 0.41228-1.952 2.7766z" clip-path="url(#a)" fill="#fff" stroke="#fff"/>
<g clip-path="url(#a)">
<g transform="translate(609.53 254.36) rotate(80.108) scale(.08 -.08)">
<use xlink:href="#x"/>
<use x="55.744141" xlink:href="#o"/>
</g>
</g>
<path d="m380.72 486.18v35.285q0 2.4 2.4 2.4h7.7425q2.4 0 2.4-2.4v-35.285q0-2.4-2.4-2.4h-7.7425q-2.4 0-2.4 2.4z" clip-path="url(#a)" fill="#fff" stroke="#fff"/>
<g clip-path="url(#a)">
<g transform="translate(384.79 486.18) rotate(90) scale(.08 -.08)">
<use xlink:href="#l"/>
<use x="60.818359" xlink:href="#e"/>
<use x="122.341797" xlink:href="#j"/>
<use x="163.439453" xlink:href="#k"/>
<use x="260.851562" xlink:href="#f"/>
<use x="288.634766" xlink:href="#h"/>
<use x="352.013672" xlink:href="#g"/>
<use x="413.292969" xlink:href="#i"/>
</g>
</g>
<path d="m1009.1 486.18v35.285q0 2.4 2.4 2.4h7.7425q2.4 0 2.4-2.4v-35.285q0-2.4-2.4-2.4h-7.7425q-2.4 0-2.4 2.4z" clip-path="url(#a)" fill="#fff" stroke="#fff"/>
<g clip-path="url(#a)">
<g transform="translate(1013.1 486.18) rotate(90) scale(.08 -.08)">
<use xlink:href="#l"/>
<use x="60.818359" xlink:href="#e"/>
<use x="122.341797" xlink:href="#j"/>
<use x="163.439453" xlink:href="#k"/>
<use x="260.851562" xlink:href="#f"/>
<use x="288.634766" xlink:href="#h"/>
<use x="352.013672" xlink:href="#g"/>
<use x="413.292969" xlink:href="#i"/>
</g>
</g>
<defs>
<path id="b" d="m0 8.6603c2.2967 0 4.4997-0.9125 6.1237-2.5365 1.624-1.624 2.5365-3.827 2.5365-6.1237s-0.9125-4.4997-2.5365-6.1237c-1.624-1.624-3.827-2.5365-6.1237-2.5365s-4.4997 0.9125-6.1237 2.5365c-1.624 1.624-2.5365 3.827-2.5365 6.1237s0.9125 4.4997 2.5365 6.1237c1.624 1.624 3.827 2.5365 6.1237 2.5365z"/>
</defs>
<g clip-path="url(#a)">
<use x="48.646897" y="533.876281" fill="#ffffff" stroke="#ffffff" xlink:href="#b"/>
</g>
<g clip-path="url(#a)">
<use x="96.982207" y="533.876281" fill="#ffffff" stroke="#ffffff" xlink:href="#b"/>
</g>
<g clip-path="url(#a)">
<use x="145.317517" y="533.876281" fill="#ffffff" stroke="#ffffff" xlink:href="#b"/>
</g>
<g clip-path="url(#a)">
<use x="193.652828" y="533.876281" fill="#ffffff" stroke="#ffffff" xlink:href="#b"/>
</g>
<g clip-path="url(#a)">
<use x="241.988138" y="533.876281" fill="#ffffff" stroke="#ffffff" xlink:href="#b"/>
</g>
<g clip-path="url(#a)">
<use x="290.323448" y="533.876281" fill="#ffffff" stroke="#ffffff" xlink:href="#b"/>
</g>
<g clip-path="url(#a)">
<use x="338.658759" y="533.876281" fill="#ffffff" stroke="#ffffff" xlink:href="#b"/>
</g>
<g clip-path="url(#a)">
<use x="386.994069" y="533.876281" fill="#ffffff" stroke="#ffffff" xlink:href="#b"/>
</g>
<g clip-path="url(#a)">
<use x="435.329379" y="533.876281" fill="#ffffff" stroke="#ffffff" xlink:href="#b"/>
</g>
<g clip-path="url(#a)">
<use x="483.66469" y="533.876281" fill="#ffffff" stroke="#ffffff" xlink:href="#b"/>
</g>
<g clip-path="url(#a)">
<use x="532" y="533.876281" fill="#ffffff" stroke="#ffffff" xlink:href="#b"/>
</g>
<g clip-path="url(#a)">
<use x="580.33531" y="533.876281" fill="#ffffff" stroke="#ffffff" xlink:href="#b"/>
</g>
<g clip-path="url(#a)">
<use x="628.670621" y="533.876281" fill="#ffffff" stroke="#ffffff" xlink:href="#b"/>
</g>
<g clip-path="url(#a)">
<use x="677.005931" y="533.876281" fill="#ffffff" stroke="#ffffff" xlink:href="#b"/>
</g>
<g clip-path="url(#a)">
<use x="725.341241" y="533.876281" fill="#ffffff" stroke="#ffffff" xlink:href="#b"/>
</g>
<g clip-path="url(#a)">
<use x="773.676552" y="533.876281" fill="#ffffff" stroke="#ffffff" xlink:href="#b"/>
</g>
<g clip-path="url(#a)">
<use x="822.011862" y="533.876281" fill="#ffffff" stroke="#ffffff" xlink:href="#b"/>
</g>
<g clip-path="url(#a)">
<use x="870.347172" y="533.876281" fill="#ffffff" stroke="#ffffff" xlink:href="#b"/>
</g>
<g clip-path="url(#a)">
<use x="918.682483" y="533.876281" fill="#ffffff" stroke="#ffffff" xlink:href="#b"/>
</g>
<g clip-path="url(#a)">
<use x="967.017793" y="533.876281" fill="#ffffff" stroke="#ffffff" xlink:href="#b"/>
</g>
<g clip-path="url(#a)">
<use x="1015.353103" y="533.876281" fill="#ffffff" stroke="#ffffff" xlink:href="#b"/>
</g>
<g clip-path="url(#a)">
<use x="178.069725" y="26.123719" fill="#ffffff" stroke="#ffffff" xlink:href="#b"/>
</g>
<g clip-path="url(#a)">
<use x="178.069725" y="95.034424" fill="#ffffff" stroke="#ffffff" xlink:href="#b"/>
</g>
<g clip-path="url(#a)">
<use x="48.646897" y="473.777735" fill="#ffffff" stroke="#ffffff" xlink:href="#b"/>
</g>
<g clip-path="url(#a)">
<use x="145.317517" y="413.67919" fill="#ffffff" stroke="#ffffff" xlink:href="#b"/>
</g>
<g clip-path="url(#a)">
<use x="145.317517" y="473.777735" fill="#ffffff" stroke="#ffffff" xlink:href="#b"/>
</g>
<g clip-path="url(#a)">
<use x="372.996969" y="161.973591" fill="#ffffff" stroke="#ffffff" xlink:href="#b"/>
</g>
<g clip-path="url(#a)">
<use x="241.988138" y="473.777735" fill="#ffffff" stroke="#ffffff" xlink:href="#b"/>
</g>
<g clip-path="url(#a)">
<use x="290.323448" y="473.777735" fill="#ffffff" stroke="#ffffff" xlink:href="#b"/>
</g>
<g clip-path="url(#a)">
<use x="338.658759" y="473.777735" fill="#ffffff" stroke="#ffffff" xlink:href="#b"/>
</g>
<g clip-path="url(#a)">
<use x="607.02043" y="227.113619" fill="#ffffff" stroke="#ffffff" xlink:href="#b"/>
</g>
<g clip-path="url(#a)">
<use x="477.622776" y="352.744608" fill="#ffffff" stroke="#ffffff" xlink:href="#b"/>
</g>
<g clip-path="url(#a)">
<use x="725.341241" y="473.777735" fill="#ffffff" stroke="#ffffff" xlink:href="#b"/>
</g>
<g clip-path="url(#a)">
<use x="618.097271" y="290.636685" fill="#ffffff" stroke="#ffffff" xlink:href="#b"/>
</g>
<g clip-path="url(#a)">
<use x="773.676552" y="473.777735" fill="#ffffff" stroke="#ffffff" xlink:href="#b"/>
</g>
<g clip-path="url(#a)">
<use x="924.724396" y="352.744608" fill="#ffffff" stroke="#ffffff" xlink:href="#b"/>
</g>
<g clip-path="url(#a)">
<use x="822.011862" y="473.777735" fill="#ffffff" stroke="#ffffff" xlink:href="#b"/>
</g>
<g clip-path="url(#a)">
<use x="894.514827" y="413.67919" fill="#ffffff" stroke="#ffffff" xlink:href="#b"/>
</g>
<g clip-path="url(#a)">
<use x="967.017793" y="473.777735" fill="#ffffff" stroke="#ffffff" xlink:href="#b"/>
</g>
<g clip-path="url(#a)">
<use x="870.347172" y="473.777735" fill="#ffffff" stroke="#ffffff" xlink:href="#b"/>
</g>
<g clip-path="url(#a)">
<use x="918.682483" y="473.777735" fill="#ffffff" stroke="#ffffff" xlink:href="#b"/>
</g>
<g clip-path="url(#a)">
<use x="435.329379" y="473.777735" fill="#ffffff" stroke="#ffffff" xlink:href="#b"/>
</g>
<g clip-path="url(#a)">
<use x="507.832345" y="413.67919" fill="#ffffff" stroke="#ffffff" xlink:href="#b"/>
</g>
<g clip-path="url(#a)">
<use x="628.670621" y="413.67919" fill="#ffffff" stroke="#ffffff" xlink:href="#b"/>
</g>
<g clip-path="url(#a)">
<use x="580.33531" y="473.777735" fill="#ffffff" stroke="#ffffff" xlink:href="#b"/>
</g>
<g clip-path="url(#a)">
<use x="628.670621" y="473.777735" fill="#ffffff" stroke="#ffffff" xlink:href="#b"/>
</g>
<g clip-path="url(#a)">
<use x="677.005931" y="473.777735" fill="#ffffff" stroke="#ffffff" xlink:href="#b"/>
</g>
<g clip-path="url(#a)">
<use x="483.66469" y="473.777735" fill="#ffffff" stroke="#ffffff" xlink:href="#b"/>
</g>
<g clip-path="url(#a)">
<use x="532" y="473.777735" fill="#ffffff" stroke="#ffffff" xlink:href="#b"/>
</g>
<g clip-path="url(#a)">
<use x="96.982207" y="473.777735" fill="#ffffff" stroke="#ffffff" xlink:href="#b"/>
</g>
<g clip-path="url(#a)">
<use x="193.652828" y="473.777735" fill="#ffffff" stroke="#ffffff" xlink:href="#b"/>
</g>
<g clip-path="url(#a)">
<use x="607.02043" y="227.113619" fill="#808080" stroke="#808080" xlink:href="#b"/>
</g>
<g clip-path="url(#a)">
<use x="386.994069" y="473.777735" fill="#ffffff" stroke="#ffffff" xlink:href="#b"/>
</g>
<g clip-path="url(#a)">
<use x="1015.353103" y="473.777735" fill="#ffffff" stroke="#ffffff" xlink:href="#b"/>
</g>
<g clip-path="url(#a)">
<defs>
<path id="ap" d="m9.8125 72.906h9.8594v-72.906h-9.8594z"/>
</defs>
<g transform="translate(47.172 536.64) scale(.1 -.1)">
<use xlink:href="#ap"/>
</g>
</g>
<g clip-path="url(#a)">
<defs>
<path id="u" d="m4.2031 54.688h8.9844l11.234-42.672 11.172 42.672h10.594l11.234-42.672 11.188 42.672h8.9844l-14.312-54.688h-10.594l-11.766 44.828-11.812-44.828h-10.609z"/>
<path id="p" d="m44.281 53.078v-8.5q-3.7969 1.9531-7.9062 2.9219-4.0938 0.98438-8.5 0.98438-6.6875 0-10.031-2.0469t-3.3438-6.1562q0-3.125 2.3906-4.9062t9.625-3.3906l3.0781-0.6875q9.5625-2.0469 13.594-5.7812t4.0312-10.422q0-7.625-6.0312-12.078-6.0312-4.4375-16.578-4.4375-4.3906 0-9.1562 0.85938t-10.031 2.5625v9.2812q4.9844-2.5938 9.8125-3.8906 4.8281-1.2812 9.5781-1.2812 6.3438 0 9.75 2.1719 3.4219 2.1719 3.4219 6.125 0 3.6562-2.4688 5.6094-2.4531 1.9531-10.812 3.7656l-3.125 0.73438q-8.3438 1.75-12.062 5.3906-3.7031 3.6406-3.7031 9.9844 0 7.7188 5.4688 11.906 5.4688 4.2031 15.531 4.2031 4.9688 0 9.3594-0.73438 4.4062-0.71875 8.1094-2.1875z"/>
</defs>
<g transform="translate(87.224 536.64) scale(.1 -.1)">
<use xlink:href="#u"/>
<use x="81.787109" xlink:href="#g"/>
<use x="143.066406" xlink:href="#p"/>
</g>
</g>
<g clip-path="url(#a)">
<g transform="translate(135.37 536.64) scale(.1 -.1)">
<use xlink:href="#u"/>
<use x="81.787109" xlink:href="#e"/>
<use x="143.310547" xlink:href="#i"/>
<use x="171.09375" xlink:href="#i"/>
</g>
</g>
<g clip-path="url(#a)">
<defs>
<path id="q" d="m18.312 70.219v-15.531h18.5v-6.9844h-18.5v-29.688q0-6.6875 1.8281-8.5938t7.4531-1.9062h9.2188v-7.5156h-9.2188q-10.406 0-14.359 3.875-3.9531 3.8906-3.9531 14.141v29.688h-6.5938v6.9844h6.5938v15.531z"/>
<path id="ai" d="m37.109 75.984v-7.4844h-8.5938q-4.8281 0-6.7188-1.9531-1.875-1.9531-1.875-7.0312v-4.8281h14.797v-6.9844h-14.797v-47.703h-9.0312v47.703h-8.5938v6.9844h8.5938v3.8125q0 9.125 4.25 13.297 4.25 4.1875 13.469 4.1875z"/>
<path id="ab" d="m45.406 46.391v29.594h8.9844v-75.984h-8.9844v8.2031q-2.8281-4.875-7.1562-7.25-4.3125-2.375-10.375-2.375-9.9062 0-16.141 7.9062-6.2188 7.9219-6.2188 20.812t6.2188 20.797q6.2344 7.9062 16.141 7.9062 6.0625 0 10.375-2.375 4.3281-2.3594 7.1562-7.2344zm-30.609-19.094q0-9.9062 4.0781-15.547t11.203-5.6406 11.219 5.6406q4.1094 5.6406 4.1094 15.547t-4.1094 15.547q-4.0938 5.6406-11.219 5.6406t-11.203-5.6406-4.0781-15.547z"/>
</defs>
<g transform="translate(172.63 536.64) scale(.1 -.1)">
<use xlink:href="#p"/>
<use x="52.099609" xlink:href="#g"/>
<use x="113.378906" xlink:href="#q"/>
<use x="152.587891" xlink:href="#f"/>
<use x="180.371094" xlink:href="#p"/>
<use x="232.470703" xlink:href="#ai"/>
<use x="267.675781" xlink:href="#f"/>
<use x="295.458984" xlink:href="#e"/>
<use x="356.982422" xlink:href="#ab"/>
</g>
</g>
<g clip-path="url(#a)">
<defs>
<path id="v" d="m54.891 33.016v-33.016h-8.9844v32.719q0 7.7656-3.0312 11.609-3.0312 3.8594-9.0781 3.8594-7.2812 0-11.484-4.6406-4.2031-4.625-4.2031-12.641v-30.906h-9.0312v75.984h9.0312v-29.797q3.2344 4.9375 7.5938 7.375 4.375 2.4375 10.094 2.4375 9.4219 0 14.25-5.8281 4.8438-5.8281 4.8438-17.156z"/>
</defs>
<g transform="translate(231.38 536.64) scale(.1 -.1)">
<use xlink:href="#u"/>
<use x="81.787109" xlink:href="#f"/>
<use x="109.570312" xlink:href="#q"/>
<use x="148.779297" xlink:href="#v"/>
</g>
</g>
<g clip-path="url(#a)">
<defs>
<path id="as" d="m32.172-5.0781q-3.7969-9.7656-7.4219-12.734-3.6094-2.9844-9.6562-2.9844h-7.1875v7.5156h5.2812q3.7031 0 5.75 1.7656 2.0625 1.75 4.5469 8.2969l1.6094 4.0938-22.109 53.812h9.5156l17.094-42.766 17.094 42.766h9.5156z"/>
</defs>
<g transform="translate(282.49 536.64) scale(.1 -.1)">
<use xlink:href="#k"/>
<use x="97.412109" xlink:href="#as"/>
</g>
</g>
<g clip-path="url(#a)">
<defs>
<path id="w" d="m48.781 52.594v-8.4062q-3.8125 2.1094-7.6406 3.1562t-7.7344 1.0469q-8.75 0-13.594-5.5469-4.8281-5.5312-4.8281-15.547t4.8281-15.562q4.8438-5.5312 13.594-5.5312 3.9062 0 7.7344 1.0469t7.6406 3.1562v-8.3125q-3.7656-1.75-7.7969-2.625-4.0156-0.89062-8.5625-0.89062-12.359 0-19.641 7.7656-7.2656 7.7656-7.2656 20.953 0 13.375 7.3438 21.031 7.3594 7.6719 20.156 7.6719 4.1406 0 8.0938-0.85938 3.9531-0.84375 7.6719-2.5469z"/>
<path id="am" d="m48.688 27.297q0 9.9062-4.0781 15.547t-11.203 5.6406q-7.1406 0-11.219-5.6406t-4.0781-15.547 4.0781-15.547 11.219-5.6406q7.125 0 11.203 5.6406t4.0781 15.547zm-30.578 19.094q2.8438 4.875 7.1562 7.2344 4.3281 2.375 10.328 2.375 9.9688 0 16.188-7.9062 6.2344-7.9062 6.2344-20.797t-6.2344-20.812q-6.2188-7.9062-16.188-7.9062-6 0-10.328 2.375-4.3125 2.375-7.1562 7.25v-8.2031h-9.0312v75.984h9.0312z"/>
</defs>
<g transform="translate(325.11 536.64) scale(.1 -.1)">
<use xlink:href="#w"/>
<use x="54.980469" xlink:href="#g"/>
<use x="116.259766" xlink:href="#am"/>
<use x="179.736328" xlink:href="#f"/>
<use x="207.519531" xlink:href="#h"/>
</g>
</g>
<g clip-path="url(#a)">
<defs>
<path id="ar" d="m11.719 12.406h10.297v-8.4062l-8-15.625h-6.2969l4 15.625z"/>
</defs>
<g transform="translate(385.41 536.64) scale(.1 -.1)">
<use xlink:href="#ar"/>
</g>
</g>
<g clip-path="url(#a)">
<g transform="translate(420.76 536.64) scale(.1 -.1)">
<use xlink:href="#u"/>
<use x="81.787109" xlink:href="#v"/>
<use x="145.166016" xlink:href="#f"/>
<use x="172.949219" xlink:href="#w"/>
<use x="227.929688" xlink:href="#v"/>
</g>
</g>
<g clip-path="url(#a)">
<g transform="translate(473.91 536.64) scale(.1 -.1)">
<use xlink:href="#u"/>
<use x="81.787109" xlink:href="#g"/>
<use x="143.066406" xlink:href="#p"/>
</g>
</g>
<g clip-path="url(#a)">
<defs>
<path id="aa" d="m30.609 48.391q-7.2188 0-11.422-5.6406t-4.2031-15.453 4.1719-15.453q4.1875-5.6406 11.453-5.6406 7.1875 0 11.375 5.6562 4.2031 5.6719 4.2031 15.438 0 9.7188-4.2031 15.406-4.1875 5.6875-11.375 5.6875zm0 7.6094q11.719 0 18.406-7.625 6.7031-7.6094 6.7031-21.078 0-13.422-6.7031-21.078-6.6875-7.6406-18.406-7.6406-11.766 0-18.438 7.6406-6.6562 7.6562-6.6562 21.078 0 13.469 6.6562 21.078 6.6719 7.625 18.438 7.625z"/>
</defs>
<g transform="translate(513.53 536.64) scale(.1 -.1)">
<use xlink:href="#i"/>
<use x="27.783203" xlink:href="#aa"/>
<use x="88.964844" xlink:href="#w"/>
<use x="143.945312" xlink:href="#g"/>
<use x="205.224609" xlink:href="#q"/>
<use x="244.433594" xlink:href="#e"/>
<use x="305.957031" xlink:href="#ab"/>
</g>
</g>
<g clip-path="url(#a)">
<g transform="translate(575.78 536.64) scale(.1 -.1)">
<use xlink:href="#f"/>
<use x="27.783203" xlink:href="#h"/>
</g>
</g>
<g clip-path="url(#a)">
<g transform="translate(620.47 536.64) scale(.1 -.1)">
<use xlink:href="#q"/>
<use x="39.208984" xlink:href="#v"/>
<use x="102.587891" xlink:href="#e"/>
</g>
</g>
<g clip-path="url(#a)">
<g transform="translate(664.14 536.64) scale(.1 -.1)">
<use xlink:href="#p"/>
<use x="52.099609" xlink:href="#q"/>
<use x="91.308594" xlink:href="#e"/>
<use x="152.832031" xlink:href="#j"/>
<use x="193.929688" xlink:href="#h"/>
</g>
</g>
<g clip-path="url(#a)">
<g transform="translate(715.93 536.64) scale(.1 -.1)">
<use xlink:href="#g"/>
<use x="61.279297" xlink:href="#h"/>
<use x="124.658203" xlink:href="#ab"/>
</g>
</g>
<g clip-path="url(#a)">
<defs>
<path id="at" d="m18.109 8.2031v-29h-9.0312v75.484h9.0312v-8.2969q2.8438 4.875 7.1562 7.2344 4.3281 2.375 10.328 2.375 9.9688 0 16.188-7.9062 6.2344-7.9062 6.2344-20.797t-6.2344-20.812q-6.2188-7.9062-16.188-7.9062-6 0-10.328 2.375-4.3125 2.375-7.1562 7.25zm30.578 19.094q0 9.9062-4.0781 15.547t-11.203 5.6406q-7.1406 0-11.219-5.6406t-4.0781-15.547 4.0781-15.547 11.219-5.6406q7.125 0 11.203 5.6406t4.0781 15.547z"/>
</defs>
<g transform="translate(754.95 536.64) scale(.1 -.1)">
<use xlink:href="#aa"/>
<use x="61.181641" xlink:href="#at"/>
<use x="124.658203" xlink:href="#e"/>
<use x="186.181641" xlink:href="#h"/>
<use x="249.560547" xlink:href="#e"/>
<use x="311.083984" xlink:href="#ab"/>
</g>
</g>
<g clip-path="url(#a)">
<g transform="translate(812.43 536.64) scale(.1 -.1)">
<use xlink:href="#f"/>
<use x="27.783203" xlink:href="#h"/>
<use x="91.162109" xlink:href="#q"/>
<use x="130.371094" xlink:href="#aa"/>
</g>
</g>
<g clip-path="url(#a)">
<g transform="translate(862.14 536.64) scale(.1 -.1)">
<use xlink:href="#q"/>
<use x="39.208984" xlink:href="#v"/>
<use x="102.587891" xlink:href="#e"/>
</g>
</g>
<g clip-path="url(#a)">
<defs>
<path id="an" d="m12.703 72.906h10.297v-7.4219l-8.0156-15.578h-6.2969l4.0156 15.578z"/>
</defs>
<g transform="translate(898.64 536.64) scale(.1 -.1)">
<use xlink:href="#aa"/>
<use x="61.181641" xlink:href="#ai"/>
<use x="96.386719" xlink:href="#ai"/>
<use x="131.591797" xlink:href="#f"/>
<use x="159.375" xlink:href="#w"/>
<use x="214.355469" xlink:href="#e"/>
<use x="275.878906" xlink:href="#j"/>
<use x="316.992188" xlink:href="#p"/>
<use x="369.091797" xlink:href="#an"/>
</g>
</g>
<g clip-path="url(#a)">
<g transform="translate(953.86 536.64) scale(.1 -.1)">
<use xlink:href="#k"/>
<use x="97.412109" xlink:href="#e"/>
<use x="158.935547" xlink:href="#p"/>
<use x="211.035156" xlink:href="#p"/>
</g>
</g>
<g clip-path="url(#a)">
<defs>
<path id="d" d="m10.688 12.406h10.312v-12.406h-10.312z"/>
</defs>
<g transform="translate(1013.8 536.64) scale(.1 -.1)">
<use xlink:href="#d"/>
</g>
</g>
<g clip-path="url(#a)">
<defs>
<path id="c" d="m12.406 8.2969h16.109v55.625l-17.531-3.5156v8.9844l17.438 3.5156h9.8594v-64.609h16.109v-8.2969h-41.984z"/>
</defs>
<g transform="translate(170.12 28.883) scale(.1 -.1)">
<use xlink:href="#c"/>
<use x="63.623047" xlink:href="#d"/>
<use x="95.410156" xlink:href="#c"/>
</g>
</g>
<g clip-path="url(#a)">
<defs>
<path id="m" d="m19.188 8.2969h34.422v-8.2969h-46.281v8.2969q5.6094 5.8125 15.297 15.594 9.7031 9.7969 12.188 12.641 4.7344 5.3125 6.6094 9 1.8906 3.6875 1.8906 7.25 0 5.8125-4.0781 9.4688-4.0781 3.6719-10.625 3.6719-4.6406 0-9.7969-1.6094-5.1406-1.6094-11-4.8906v9.9688q5.9531 2.3906 11.125 3.6094 5.1875 1.2188 9.4844 1.2188 11.328 0 18.062-5.6719 6.7344-5.6562 6.7344-15.125 0-4.5-1.6875-8.5312-1.6719-4.0156-6.125-9.4844-1.2188-1.4219-7.7656-8.1875-6.5312-6.7656-18.453-18.922z"/>
</defs>
<g transform="translate(170.12 97.794) scale(.1 -.1)">
<use xlink:href="#c"/>
<use x="63.623047" xlink:href="#d"/>
<use x="95.410156" xlink:href="#m"/>
</g>
</g>
<g clip-path="url(#a)">
<defs>
<path id="z" d="m37.797 64.312-24.906-38.922h24.906zm-2.5938 8.5938h12.406v-47.516h10.406v-8.2031h-10.406v-17.188h-9.8125v17.188h-32.906v9.5156z"/>
</defs>
<g transform="translate(40.695 476.54) scale(.1 -.1)">
<use xlink:href="#c"/>
<use x="63.623047" xlink:href="#d"/>
<use x="95.410156" xlink:href="#z"/>
</g>
</g>
<g clip-path="url(#a)">
<defs>
<path id="y" d="m10.797 72.906h38.719v-8.3125h-29.688v-17.859q2.1406 0.73438 4.2812 1.0938 2.1562 0.35938 4.3125 0.35938 12.203 0 19.328-6.6875 7.1406-6.6875 7.1406-18.109 0-11.766-7.3281-18.297-7.3281-6.5156-20.656-6.5156-4.5938 0-9.3594 0.78125-4.75 0.78125-9.8281 2.3438v9.9219q4.3906-2.3906 9.0781-3.5625t9.9062-1.1719q8.4531 0 13.375 4.4375 4.9375 4.4375 4.9375 12.062 0 7.6094-4.9375 12.047-4.9219 4.4531-13.375 4.4531-3.9531 0-7.8906-0.875-3.9219-0.875-8.0156-2.7344z"/>
</defs>
<g transform="translate(137.37 416.44) scale(.1 -.1)">
<use xlink:href="#c"/>
<use x="63.623047" xlink:href="#d"/>
<use x="95.410156" xlink:href="#y"/>
</g>
</g>
<g clip-path="url(#a)">
<defs>
<path id="ag" d="m33.016 40.375q-6.6406 0-10.531-4.5469-3.875-4.5312-3.875-12.438 0-7.8594 3.875-12.438 3.8906-4.5625 10.531-4.5625t10.516 4.5625q3.875 4.5781 3.875 12.438 0 7.9062-3.875 12.438-3.875 4.5469-10.516 4.5469zm19.578 30.922v-8.9844q-3.7188 1.75-7.5 2.6719-3.7812 0.9375-7.5 0.9375-9.7656 0-14.922-6.5938-5.1406-6.5938-5.875-19.922 2.875 4.25 7.2188 6.5156 4.3594 2.2656 9.5781 2.2656 10.984 0 17.359-6.6719 6.375-6.6562 6.375-18.125 0-11.234-6.6406-18.031-6.6406-6.7812-17.672-6.7812-12.656 0-19.344 9.6875-6.6875 9.7031-6.6875 28.109 0 17.281 8.2031 27.562t22.016 10.281q3.7188 0 7.5-0.73438t7.8906-2.1875z"/>
</defs>
<g transform="translate(137.37 476.54) scale(.1 -.1)">
<use xlink:href="#c"/>
<use x="63.623047" xlink:href="#d"/>
<use x="95.410156" xlink:href="#ag"/>
</g>
</g>
<g clip-path="url(#a)">
<defs>
<path id="af" d="m8.2031 72.906h46.875v-4.2031l-26.469-68.703h-10.297l24.906 64.594h-35.016z"/>
</defs>
<g transform="translate(365.05 164.73) scale(.1 -.1)">
<use xlink:href="#c"/>
<use x="63.623047" xlink:href="#d"/>
<use x="95.410156" xlink:href="#af"/>
</g>
</g>
<g clip-path="url(#a)">
<defs>
<path id="ae" d="m31.781 34.625q-7.0312 0-11.062-3.7656-4.0156-3.7656-4.0156-10.344 0-6.5938 4.0156-10.359 4.0312-3.7656 11.062-3.7656t11.078 3.7812q4.0625 3.7969 4.0625 10.344 0 6.5781-4.0312 10.344-4.0156 3.7656-11.109 3.7656zm-9.8594 4.1875q-6.3438 1.5625-9.8906 5.9062-3.5312 4.3594-3.5312 10.609 0 8.7344 6.2188 13.812 6.2344 5.0781 17.062 5.0781 10.891 0 17.094-5.0781t6.2031-13.812q0-6.25-3.5469-10.609-3.5312-4.3438-9.8281-5.9062 7.125-1.6562 11.094-6.5 3.9844-4.8281 3.9844-11.797 0-10.609-6.4688-16.281-6.4688-5.6562-18.531-5.6562-12.047 0-18.531 5.6562-6.4688 5.6719-6.4688 16.281 0 6.9688 4 11.797 4.0156 4.8438 11.141 6.5zm-3.6094 15.578q0-5.6562 3.5312-8.8281 3.5469-3.1719 9.9375-3.1719 6.3594 0 9.9375 3.1719 3.5938 3.1719 3.5938 8.8281 0 5.6719-3.5938 8.8438-3.5781 3.1719-9.9375 3.1719-6.3906 0-9.9375-3.1719-3.5312-3.1719-3.5312-8.8438z"/>
</defs>
<g transform="translate(234.04 476.54) scale(.1 -.1)">
<use xlink:href="#c"/>
<use x="63.623047" xlink:href="#d"/>
<use x="95.410156" xlink:href="#ae"/>
</g>
</g>
<g clip-path="url(#a)">
<defs>
<path id="ad" d="m10.984 1.5156v8.9844q3.7188-1.7656 7.5156-2.6875 3.8125-0.92188 7.4844-0.92188 9.7656 0 14.906 6.5625 5.1562 6.5625 5.8906 19.953-2.8281-4.2031-7.1875-6.4531-4.3438-2.25-9.6094-2.25-10.938 0-17.312 6.6094-6.375 6.625-6.375 18.109 0 11.219 6.6406 18 6.6406 6.7969 17.672 6.7969 12.656 0 19.312-9.7031 6.6719-9.6875 6.6719-28.141 0-17.234-8.1875-27.516-8.1719-10.281-21.984-10.281-3.7188 0-7.5312 0.73438-3.7969 0.73438-7.9062 2.2031zm19.625 30.906q6.6406 0 10.516 4.5312 3.8906 4.5469 3.8906 12.469 0 7.8594-3.8906 12.422-3.875 4.5625-10.516 4.5625t-10.516-4.5625-3.875-12.422q0-7.9219 3.875-12.469 3.875-4.5312 10.516-4.5312z"/>
</defs>
<g transform="translate(282.37 476.54) scale(.1 -.1)">
<use xlink:href="#c"/>
<use x="63.623047" xlink:href="#d"/>
<use x="95.410156" xlink:href="#ad"/>
</g>
</g>
<g clip-path="url(#a)">
<defs>
<path id="ah" d="m31.781 66.406q-7.6094 0-11.453-7.5-3.8281-7.4844-3.8281-22.531 0-14.984 3.8281-22.484 3.8438-7.5 11.453-7.5 7.6719 0 11.5 7.5 3.8438 7.5 3.8438 22.484 0 15.047-3.8438 22.531-3.8281 7.5-11.5 7.5zm0 7.8125q12.266 0 18.734-9.7031 6.4688-9.6875 6.4688-28.141 0-18.406-6.4688-28.109-6.4688-9.6875-18.734-9.6875-12.25 0-18.719 9.6875-6.4688 9.7031-6.4688 28.109 0 18.453 6.4688 28.141 6.4688 9.7031 18.719 9.7031z"/>
</defs>
<g transform="translate(327.53 476.54) scale(.1 -.1)">
<use xlink:href="#c"/>
<use x="63.623047" xlink:href="#d"/>
<use x="95.410156" xlink:href="#c"/>
<use x="159.033203" xlink:href="#ah"/>
</g>
</g>
<g clip-path="url(#a)">
<g transform="translate(595.89 229.87) scale(.1 -.1)">
<use xlink:href="#c"/>
<use x="63.623047" xlink:href="#d"/>
<use x="95.410156" xlink:href="#c"/>
<use x="159.033203" xlink:href="#m"/>
</g>
</g>
<g clip-path="url(#a)">
<defs>
<path id="n" d="m40.578 39.312q7.0781-1.5156 11.047-6.3125 3.9844-4.7812 3.9844-11.812 0-10.781-7.4219-16.703-7.4219-5.9062-21.094-5.9062-4.5781 0-9.4375 0.90625t-10.031 2.7188v9.5156q4.0938-2.3906 8.9688-3.6094 4.8906-1.2188 10.219-1.2188 9.2656 0 14.125 3.6562t4.8594 10.641q0 6.4531-4.5156 10.078-4.5156 3.6406-12.562 3.6406h-8.5v8.1094h8.8906q7.2656 0 11.125 2.9062t3.8594 8.375q0 5.6094-3.9844 8.6094-3.9688 3.0156-11.391 3.0156-4.0625 0-8.7031-0.89062-4.6406-0.875-10.203-2.7188v8.7812q5.625 1.5625 10.531 2.3438t9.25 0.78125q11.234 0 17.766-5.1094 6.5469-5.0938 6.5469-13.781 0-6.0625-3.4688-10.234t-9.8594-5.7812z"/>
</defs>
<g transform="translate(466.49 355.5) scale(.1 -.1)">
<use xlink:href="#c"/>
<use x="63.623047" xlink:href="#d"/>
<use x="95.410156" xlink:href="#c"/>
<use x="159.033203" xlink:href="#n"/>
</g>
</g>
<g clip-path="url(#a)">
<g transform="translate(714.21 476.54) scale(.1 -.1)">
<use xlink:href="#c"/>
<use x="63.623047" xlink:href="#d"/>
<use x="95.410156" xlink:href="#c"/>
<use x="159.033203" xlink:href="#z"/>
</g>
</g>
<g clip-path="url(#a)">
<g transform="translate(606.96 293.4) scale(.1 -.1)">
<use xlink:href="#c"/>
<use x="63.623047" xlink:href="#d"/>
<use x="95.410156" xlink:href="#c"/>
<use x="159.033203" xlink:href="#y"/>
</g>
</g>
<g clip-path="url(#a)">
<g transform="translate(762.54 476.54) scale(.1 -.1)">
<use xlink:href="#c"/>
<use x="63.623047" xlink:href="#d"/>
<use x="95.410156" xlink:href="#c"/>
<use x="159.033203" xlink:href="#ag"/>
</g>
</g>
<g clip-path="url(#a)">
<g transform="translate(913.59 355.5) scale(.1 -.1)">
<use xlink:href="#c"/>
<use x="63.623047" xlink:href="#d"/>
<use x="95.410156" xlink:href="#c"/>
<use x="159.033203" xlink:href="#af"/>
</g>
</g>
<g clip-path="url(#a)">
<g transform="translate(810.88 476.54) scale(.1 -.1)">
<use xlink:href="#c"/>
<use x="63.623047" xlink:href="#d"/>
<use x="95.410156" xlink:href="#c"/>
<use x="159.033203" xlink:href="#ae"/>
</g>
</g>
<g clip-path="url(#a)">
<g transform="translate(883.38 416.44) scale(.1 -.1)">
<use xlink:href="#c"/>
<use x="63.623047" xlink:href="#d"/>
<use x="95.410156" xlink:href="#c"/>
<use x="159.033203" xlink:href="#ad"/>
</g>
</g>
<g clip-path="url(#a)">
<g transform="translate(955.88 476.54) scale(.1 -.1)">
<use xlink:href="#c"/>
<use x="63.623047" xlink:href="#d"/>
<use x="95.410156" xlink:href="#m"/>
<use x="159.033203" xlink:href="#ah"/>
</g>
</g>
<g clip-path="url(#a)">
<g transform="translate(859.21 476.54) scale(.1 -.1)">
<use xlink:href="#c"/>
<use x="63.623047" xlink:href="#d"/>
<use x="95.410156" xlink:href="#m"/>
<use x="159.033203" xlink:href="#c"/>
</g>
</g>
<g clip-path="url(#a)">
<g transform="translate(907.55 476.54) scale(.1 -.1)">
<use xlink:href="#c"/>
<use x="63.623047" xlink:href="#d"/>
<use x="95.410156" xlink:href="#m"/>
<use x="159.033203" xlink:href="#m"/>
</g>
</g>
<g clip-path="url(#a)">
<g transform="translate(424.2 476.54) scale(.1 -.1)">
<use xlink:href="#c"/>
<use x="63.623047" xlink:href="#d"/>
<use x="95.410156" xlink:href="#m"/>
<use x="159.033203" xlink:href="#n"/>
</g>
</g>
<g clip-path="url(#a)">
<g transform="translate(496.7 416.44) scale(.1 -.1)">
<use xlink:href="#c"/>
<use x="63.623047" xlink:href="#d"/>
<use x="95.410156" xlink:href="#m"/>
<use x="159.033203" xlink:href="#z"/>
</g>
</g>
<g clip-path="url(#a)">
<g transform="translate(617.54 416.44) scale(.1 -.1)">
<use xlink:href="#c"/>
<use x="63.623047" xlink:href="#d"/>
<use x="95.410156" xlink:href="#m"/>
<use x="159.033203" xlink:href="#y"/>
</g>
</g>
<g clip-path="url(#a)">
<g transform="translate(569.2 476.54) scale(.1 -.1)">
<use xlink:href="#c"/>
<use x="63.623047" xlink:href="#d"/>
<use x="95.410156" xlink:href="#m"/>
<use x="159.033203" xlink:href="#ag"/>
</g>
</g>
<g clip-path="url(#a)">
<g transform="translate(617.54 476.54) scale(.1 -.1)">
<use xlink:href="#c"/>
<use x="63.623047" xlink:href="#d"/>
<use x="95.410156" xlink:href="#m"/>
<use x="159.033203" xlink:href="#af"/>
</g>
</g>
<g clip-path="url(#a)">
<g transform="translate(665.87 476.54) scale(.1 -.1)">
<use xlink:href="#c"/>
<use x="63.623047" xlink:href="#d"/>
<use x="95.410156" xlink:href="#m"/>
<use x="159.033203" xlink:href="#ae"/>
</g>
</g>
<g clip-path="url(#a)">
<g transform="translate(472.53 476.54) scale(.1 -.1)">
<use xlink:href="#c"/>
<use x="63.623047" xlink:href="#d"/>
<use x="95.410156" xlink:href="#m"/>
<use x="159.033203" xlink:href="#ad"/>
</g>
</g>
<g clip-path="url(#a)">
<g transform="translate(520.87 476.54) scale(.1 -.1)">
<use xlink:href="#c"/>
<use x="63.623047" xlink:href="#d"/>
<use x="95.410156" xlink:href="#n"/>
<use x="159.033203" xlink:href="#ah"/>
</g>
</g>
<g clip-path="url(#a)">
<g transform="translate(85.849 476.54) scale(.1 -.1)">
<use xlink:href="#c"/>
<use x="63.623047" xlink:href="#d"/>
<use x="95.410156" xlink:href="#n"/>
<use x="159.033203" xlink:href="#c"/>
</g>
</g>
<g clip-path="url(#a)">
<g transform="translate(182.52 476.54) scale(.1 -.1)">
<use xlink:href="#c"/>
<use x="63.623047" xlink:href="#d"/>
<use x="95.410156" xlink:href="#n"/>
<use x="159.033203" xlink:href="#m"/>
</g>
</g>
<g clip-path="url(#a)">
<g transform="translate(595.89 229.87) scale(.1 -.1)">
<use xlink:href="#c"/>
<use x="63.623047" xlink:href="#d"/>
<use x="95.410156" xlink:href="#n"/>
<use x="159.033203" xlink:href="#n"/>
</g>
</g>
<g clip-path="url(#a)">
<g transform="translate(375.86 476.54) scale(.1 -.1)">
<use xlink:href="#c"/>
<use x="63.623047" xlink:href="#d"/>
<use x="95.410156" xlink:href="#n"/>
<use x="159.033203" xlink:href="#z"/>
</g>
</g>
<g clip-path="url(#a)">
<g transform="translate(1004.2 476.54) scale(.1 -.1)">
<use xlink:href="#c"/>
<use x="63.623047" xlink:href="#d"/>
<use x="95.410156" xlink:href="#n"/>
<use x="159.033203" xlink:href="#y"/>
</g>
</g>
<defs>
<clipPath id="a">
<rect width="1064" height="560"/>
</clipPath>
</defs>
</svg>
