<?xml version="1.0" encoding="UTF-8"?>
<!DOCTYPE svg  PUBLIC '-//W3C//DTD SVG 1.1//EN'  'http://www.w3.org/Graphics/SVG/1.1/DTD/svg11.dtd'>
<svg width="1570.7pt" height="826.67pt" version="1.1" viewBox="0 0 1570.7 826.67" xmlns="http://www.w3.org/2000/svg" xmlns:xlink="http://www.w3.org/1999/xlink">
<defs>
<style type="text/css">*{stroke-linecap:butt;stroke-linejoin:round;}</style>
</defs>
<path d="m0 826.67h1570.7v-826.67h-1570.7z" fill="#fff"/>
<g fill="none" stroke="#000">
<path d="m508.83 38.49-437.25 628.54" clip-path="url(#a)"/>
<path d="m508.83 38.49-171.08 259.36" clip-path="url(#a)"/>
<path d="m508.83 38.49 236.65 131.31" clip-path="url(#a)"/>
<path d="m508.83 38.49 371.67 628.54" clip-path="url(#a)"/>
<path d="m71.583 667.03v121.15" clip-path="url(#a)"/>
<path d="m337.75 297.85-194.79 248.03" clip-path="url(#a)"/>
<path d="m337.75 297.85-16.357 248.03" clip-path="url(#a)"/>
<path d="m337.75 297.85-75.836 369.18" clip-path="url(#a)"/>
<path d="m337.75 297.85 286.99 125.2" clip-path="url(#a)"/>
<path d="m745.48 169.8 206.39 376.08" clip-path="url(#a)"/>
<path d="m745.48 169.8 372.34 128.05" clip-path="url(#a)"/>
<path d="m745.48 169.8-578.73 497.23" clip-path="url(#a)" stroke-dasharray="3.7,1.6"/>
<path d="m951.88 545.88-23.792 121.15" clip-path="url(#a)"/>
<path d="m951.88 545.88 23.792 121.15" clip-path="url(#a)"/>
<path d="m1117.8 297.85-94.572 369.18" clip-path="url(#a)"/>
<path d="m1117.8 297.85-46.989 369.18" clip-path="url(#a)"/>
<path d="m1117.8 297.85 0.59479 369.18" clip-path="url(#a)"/>
<path d="m1117.8 297.85 140.97 125.2" clip-path="url(#a)"/>
<path d="m1023.3 667.03v121.15" clip-path="url(#a)"/>
<path d="m1070.8 667.03v121.15" clip-path="url(#a)"/>
<path d="m1118.4 667.03v121.15" clip-path="url(#a)"/>
<path d="m1258.8 423.05-140.37 243.98" clip-path="url(#a)" stroke-dasharray="3.7,1.6"/>
<path d="m1258.8 423.05-92.788 243.98" clip-path="url(#a)"/>
<path d="m1258.8 423.05-21.413 122.83" clip-path="url(#a)"/>
<path d="m1258.8 423.05 157.03 122.83" clip-path="url(#a)"/>
<path d="m1258.8 423.05 97.546 243.98" clip-path="url(#a)"/>
<path d="m1166 667.03v121.15" clip-path="url(#a)"/>
<path d="m1237.4 545.88-23.792 121.15" clip-path="url(#a)"/>
<path d="m1237.4 545.88 23.792 121.15" clip-path="url(#a)"/>
<path d="m1415.8 545.88-107.06 121.15" clip-path="url(#a)"/>
<path d="m1415.8 545.88-11.896 121.15" clip-path="url(#a)"/>
<path d="m1415.8 545.88 35.688 121.15" clip-path="url(#a)"/>
<path d="m1415.8 545.88 83.271 121.15" clip-path="url(#a)"/>
<path d="m1356.3 667.03v121.15" clip-path="url(#a)"/>
<path d="m1308.8 667.03v121.15" clip-path="url(#a)"/>
<path d="m1403.9 667.03v121.15" clip-path="url(#a)"/>
<path d="m1451.5 667.03v121.15" clip-path="url(#a)"/>
<path d="m1213.6 667.03v121.15" clip-path="url(#a)"/>
<path d="m1261.2 667.03v121.15" clip-path="url(#a)"/>
<path d="m928.08 667.03v121.15" clip-path="url(#a)"/>
<path d="m975.67 667.03v121.15" clip-path="url(#a)"/>
<path d="m142.96 545.88-23.792 121.15" clip-path="url(#a)"/>
<path d="m142.96 545.88 23.792 121.15" clip-path="url(#a)"/>
<path d="m321.4 545.88-107.06 121.15" clip-path="url(#a)"/>
<path d="m321.4 545.88-11.896 121.15" clip-path="url(#a)"/>
<path d="m321.4 545.88 35.688 121.15" clip-path="url(#a)"/>
<path d="m321.4 545.88 83.271 121.15" clip-path="url(#a)"/>
<path d="m261.92 667.03v121.15" clip-path="url(#a)"/>
<path d="m624.74 423.05-124.91 122.83" clip-path="url(#a)"/>
<path d="m624.74 423.05 17.844 243.98" clip-path="url(#a)"/>
<path d="m624.74 423.05 136.8 122.83" clip-path="url(#a)"/>
<path d="m624.74 423.05-29.74 243.98" clip-path="url(#a)"/>
<path d="m499.83 545.88-47.583 121.15" clip-path="url(#a)"/>
<path d="m499.83 545.88v121.15" clip-path="url(#a)"/>
<path d="m499.83 545.88 47.583 121.15" clip-path="url(#a)"/>
<path d="m642.58 667.03v121.15" clip-path="url(#a)"/>
<path d="m761.54 545.88-71.375 121.15" clip-path="url(#a)"/>
<path d="m761.54 545.88-23.792 121.15" clip-path="url(#a)"/>
<path d="m761.54 545.88 23.792 121.15" clip-path="url(#a)"/>
<path d="m761.54 545.88 71.375 121.15" clip-path="url(#a)"/>
<path d="m690.17 667.03v121.15" clip-path="url(#a)"/>
<path d="m737.75 667.03v121.15" clip-path="url(#a)"/>
<path d="m785.33 667.03v121.15" clip-path="url(#a)"/>
<path d="m832.92 667.03v121.15" clip-path="url(#a)"/>
<path d="m452.25 667.03v121.15" clip-path="url(#a)"/>
<path d="m499.83 667.03v121.15" clip-path="url(#a)"/>
<path d="m547.42 667.03v121.15" clip-path="url(#a)"/>
<path d="m214.33 667.03v121.15" clip-path="url(#a)"/>
<path d="m309.5 667.03v121.15" clip-path="url(#a)"/>
<path d="m357.08 667.03v121.15" clip-path="url(#a)"/>
<path d="m404.67 667.03v121.15" clip-path="url(#a)"/>
<path d="m119.17 667.03v121.15" clip-path="url(#a)"/>
<path d="m166.75 667.03v121.15" clip-path="url(#a)"/>
<path d="m204.67 169.8-133.08 497.23" clip-path="url(#a)"/>
<path d="m204.67 169.8 133.08 128.05" clip-path="url(#a)"/>
<path d="m595 667.03v121.15" clip-path="url(#a)"/>
<path d="m880.5 667.03v121.15" clip-path="url(#a)"/>
<path d="m1499.1 667.03v121.15" clip-path="url(#a)"/>
</g>
<path d="m294.08 358.17 2.5455-3.6592q1.3706-1.9702-0.59961-3.3407l-6.3559-4.4215q-1.9702-1.3706-3.3407 0.59961l-2.5455 3.6592q-1.3706 1.9702 0.59961 3.3407l6.3559 4.4215q1.9702 1.3706 3.3407-0.59961z" clip-path="url(#a)" fill="#fff" stroke="#fff"/>
<g clip-path="url(#a)">
<defs>
<path id="aj" d="m9.8125 72.906h9.8594v-64.609h35.5v-8.2969h-45.359z"/>
</defs>
<g transform="translate(290.75 355.85) rotate(-55.175) scale(.08 -.08)">
<use xlink:href="#aj"/>
</g>
</g>
<path d="m426.87 174.13 3.3126-5.0221q1.3215-2.0034-0.68195-3.3249l-6.4631-4.2631q-2.0034-1.3215-3.3249 0.68195l-3.3126 5.0221q-1.3215 2.0034 0.68195 3.3249l6.4631 4.2631q2.0034 1.3215 3.3249-0.68195z" clip-path="url(#a)" fill="#fff" stroke="#fff"/>
<g clip-path="url(#a)">
<defs>
<path id="al" d="m9.8125 72.906h9.8594v-29.891h35.844v29.891h9.8594v-72.906h-9.8594v34.719h-35.844v-34.719h-9.8594z"/>
</defs>
<g transform="translate(423.48 171.9) rotate(-56.591) scale(.08 -.08)">
<use xlink:href="#al"/>
</g>
</g>
<path d="m621.48 108.17 5.2607 2.919q2.0986 1.1644 3.263-0.93416l3.7565-6.7701q1.1644-2.0986-0.93416-3.263l-5.2607-2.919q-2.0986-1.1644-3.263 0.93416l-3.7565 6.7701q-1.1644 2.0986 0.93416 3.263z" clip-path="url(#a)" fill="#fff" stroke="#fff"/>
<g clip-path="url(#a)">
<g transform="translate(623.45 104.62) rotate(29.024) scale(.08 -.08)">
<use xlink:href="#al"/>
</g>
</g>
<path d="m687.78 353.43 2.9802 5.0398q1.2216 2.0658 3.2874 0.84426l6.6645-3.9409q2.0658-1.2216 0.84426-3.2874l-2.9802-5.0398q-1.2216-2.0658-3.2874-0.84426l-6.6645 3.9409q-2.0658 1.2216-0.84426 3.2874z" clip-path="url(#a)" fill="#fff" stroke="#fff"/>
<g clip-path="url(#a)">
<defs>
<path id="ag" d="m8.6875 72.906h9.9219v-44.297q0-11.719 4.2344-16.875 4.25-5.1406 13.781-5.1406 9.4688 0 13.719 5.1406 4.25 5.1562 4.25 16.875v44.297h9.9062v-45.516q0-14.25-7.0625-21.531-7.0469-7.2812-20.812-7.2812-13.828 0-20.891 7.2812-7.0469 7.2812-7.0469 21.531z"/>
</defs>
<g transform="translate(691.27 351.36) rotate(59.403) scale(.08 -.08)">
<use xlink:href="#ag"/>
</g>
</g>
<path d="m65.312 709.96v35.285q0 2.4 2.4 2.4h7.7425q2.4 0 2.4-2.4v-35.285q0-2.4-2.4-2.4h-7.7425q-2.4 0-2.4 2.4z" clip-path="url(#a)" fill="#fff" stroke="#fff"/>
<g clip-path="url(#a)">
<defs>
<path id="l" d="m-0.29688 72.906h61.672v-8.3125h-25.875v-64.594h-9.9062v64.594h-25.891z"/>
<path id="e" d="m56.203 29.594v-4.3906h-41.312q0.59375-9.2812 5.5938-14.141t13.938-4.8594q5.1719 0 10.031 1.2656t9.6562 3.8125v-8.5q-4.8438-2.0469-9.9219-3.125t-10.297-1.0781q-13.094 0-20.734 7.6094-7.6406 7.625-7.6406 20.625 0 13.422 7.25 21.297 7.25 7.8906 19.562 7.8906 11.031 0 17.453-7.1094 6.4219-7.0938 6.4219-19.297zm-8.9844 2.6406q-0.09375 7.3594-4.125 11.75-4.0312 4.4062-10.672 4.4062-7.5156 0-12.031-4.25t-5.2031-11.969z"/>
<path id="h" d="m41.109 46.297q-1.5156 0.875-3.2969 1.2812-1.7812 0.42188-3.9219 0.42188-7.625 0-11.703-4.9531t-4.0781-14.234v-28.812h-9.0312v54.688h9.0312v-8.5q2.8438 4.9844 7.375 7.3906 4.5469 2.4219 11.047 2.4219 0.92188 0 2.0469-0.125 1.125-0.10938 2.4844-0.35938z"/>
<path id="j" d="m52 44.188q3.375 6.0625 8.0625 8.9375t11.031 2.875q8.5469 0 13.188-5.9844 4.6406-5.9688 4.6406-17v-33.016h-9.0312v32.719q0 7.8594-2.7969 11.656-2.7812 3.8125-8.4844 3.8125-6.9844 0-11.047-4.6406-4.0469-4.625-4.0469-12.641v-30.906h-9.0312v32.719q0 7.9062-2.7812 11.688t-8.5938 3.7812q-6.8906 0-10.953-4.6562-4.0469-4.6562-4.0469-12.625v-30.906h-9.0312v54.688h9.0312v-8.5q3.0781 5.0312 7.375 7.4219t10.203 2.3906q5.9688 0 10.141-3.0312 4.1719-3.0156 6.1719-8.7812z"/>
<path id="i" d="m9.4219 54.688h8.9844v-54.688h-8.9844zm0 21.297h8.9844v-11.391h-8.9844z"/>
<path id="g" d="m54.891 33.016v-33.016h-8.9844v32.719q0 7.7656-3.0312 11.609-3.0312 3.8594-9.0781 3.8594-7.2812 0-11.484-4.6406-4.2031-4.625-4.2031-12.641v-30.906h-9.0312v54.688h9.0312v-8.5q3.2344 4.9375 7.5938 7.375 4.375 2.4375 10.094 2.4375 9.4219 0 14.25-5.8281 4.8438-5.8281 4.8438-17.156z"/>
<path id="f" d="m34.281 27.484q-10.891 0-15.094-2.4844t-4.2031-8.5q0-4.7812 3.1562-7.5938 3.1562-2.7969 8.5625-2.7969 7.4844 0 12 5.2969t4.5156 14.078v2zm17.922 3.7188v-31.203h-8.9844v8.2969q-3.0781-4.9688-7.6719-7.3438t-11.234-2.375q-8.3906 0-13.359 4.7188-4.9531 4.7188-4.9531 12.625 0 9.2188 6.1719 13.906 6.1875 4.6875 18.438 4.6875h12.609v0.89062q0 6.2031-4.0781 9.5938t-11.453 3.3906q-4.6875 0-9.1406-1.125-4.4375-1.125-8.5312-3.375v8.3125q4.9219 1.9062 9.5625 2.8438 4.6406 0.95312 9.0312 0.95312 11.875 0 17.734-6.1562 5.8594-6.1406 5.8594-18.641z"/>
<path id="k" d="m9.4219 75.984h8.9844v-75.984h-8.9844z"/>
</defs>
<g transform="translate(69.375 709.96) rotate(90) scale(.08 -.08)">
<use xlink:href="#l"/>
<use x="60.818359" xlink:href="#e"/>
<use x="122.341797" xlink:href="#h"/>
<use x="163.439453" xlink:href="#j"/>
<use x="260.851562" xlink:href="#i"/>
<use x="288.634766" xlink:href="#g"/>
<use x="352.013672" xlink:href="#f"/>
<use x="413.292969" xlink:href="#k"/>
</g>
</g>
<path d="m243.6 427.89 3.3801-4.3039q1.4824-1.8875-0.40512-3.3698l-6.0891-4.7822q-1.8875-1.4824-3.3698 0.40512l-3.3801 4.3039q-1.4824 1.8875 0.40512 3.3698l6.0891 4.7822q1.8875 1.4824 3.3698-0.40512z" clip-path="url(#a)" fill="#fff" stroke="#fff"/>
<g clip-path="url(#a)">
<defs>
<path id="t" d="m34.188 63.188-13.391-36.281h26.812zm-5.5781 9.7188h11.188l27.781-72.906h-10.25l-6.6406 18.703h-32.859l-6.6406-18.703h-10.406z"/>
</defs>
<g transform="translate(240.4 425.38) rotate(-51.855) scale(.08 -.08)">
<use xlink:href="#t"/>
</g>
</g>
<path d="m335.67 424.69 0.31742-4.8133q0.15793-2.3948-2.2369-2.5527l-7.7257-0.50948q-2.3948-0.15793-2.5527 2.2369l-0.31742 4.8133q-0.15793 2.3948 2.2369 2.5527l7.7257 0.50948q2.3948 0.15793 2.5527-2.2369z" clip-path="url(#a)" fill="#fff" stroke="#fff"/>
<g clip-path="url(#a)">
<defs>
<path id="ai" d="m19.672 64.797v-27.391h12.406q6.8906 0 10.641 3.5625 3.7656 3.5625 3.7656 10.156 0 6.5469-3.7656 10.109-3.75 3.5625-10.641 3.5625zm-9.8594 8.1094h22.266q12.266 0 18.531-5.5469 6.2812-5.5469 6.2812-16.234 0-10.797-6.2812-16.312-6.2656-5.5156-18.531-5.5156h-12.406v-29.297h-9.8594z"/>
</defs>
<g transform="translate(331.62 424.42) rotate(-86.227) scale(.08 -.08)">
<use xlink:href="#ai"/>
</g>
</g>
<path d="m305.36 486.72 1.2395-6.034q0.48292-2.3509-1.868-2.8338l-7.5841-1.5579q-2.3509-0.48292-2.8338 1.868l-1.2395 6.034q-0.48292 2.3509 1.868 2.8338l7.5841 1.5579q2.3509 0.48292 2.8338-1.868z" clip-path="url(#a)" fill="#fff" stroke="#fff"/>
<g clip-path="url(#a)">
<defs>
<path id="am" d="m19.672 64.797v-56.688h11.922q15.094 0 22.094 6.8281 7 6.8438 7 21.594 0 14.641-7 21.453t-22.094 6.8125zm-9.8594 8.1094h20.266q21.188 0 31.094-8.8125 9.9219-8.8125 9.9219-27.562 0-18.859-9.9688-27.703-9.9531-8.8281-31.047-8.8281h-20.266z"/>
</defs>
<g transform="translate(301.38 485.9) rotate(-78.392) scale(.08 -.08)">
<use xlink:href="#am"/>
</g>
</g>
<path d="m476.23 365.1 5.016 2.1882q2.1998 0.95966 3.1594-1.2401l3.0959-7.0966q0.95966-2.1998-1.2401-3.1594l-5.016-2.1882q-2.1998-0.95966-3.1594 1.2401l-3.0959 7.0966q-0.95966 2.1998 1.2401 3.1594z" clip-path="url(#a)" fill="#fff" stroke="#fff"/>
<g clip-path="url(#a)">
<g transform="translate(477.86 361.38) rotate(23.569) scale(.08 -.08)">
<use xlink:href="#t"/>
</g>
</g>
<path d="m842.02 358.74 2.3208 4.2288q1.1547 2.104 3.2586 0.94932l6.7875-3.725q2.104-1.1547 0.94932-3.2586l-2.3208-4.2288q-1.1547-2.104-3.2586-0.94932l-6.7875 3.725q-2.104 1.1547-0.94932 3.2586z" clip-path="url(#a)" fill="#fff" stroke="#fff"/>
<g clip-path="url(#a)">
<g transform="translate(845.58 356.79) rotate(61.242) scale(.08 -.08)">
<use xlink:href="#ai"/>
</g>
</g>
<path d="m927.03 238.87 5.175 1.7797q2.2695 0.78051 3.05-1.489l2.518-7.3216q0.78051-2.2695-1.489-3.0501l-5.175-1.7797q-2.2695-0.78051-3.0501 1.489l-2.518 7.3216q-0.78051 2.2695 1.489 3.0501z" clip-path="url(#a)" fill="#fff" stroke="#fff"/>
<g clip-path="url(#a)">
<g transform="translate(928.35 235.02) rotate(18.979) scale(.08 -.08)">
<use xlink:href="#t"/>
</g>
</g>
<path d="m458.13 424.95 4.1509-3.5663q1.8204-1.564 0.25637-3.3844l-5.0456-5.8727q-1.564-1.8204-3.3844-0.25637l-4.1509 3.5663q-1.8204 1.564-0.25637 3.3844l5.0456 5.8727q1.564 1.8204 3.3844 0.25637z" clip-path="url(#a)" fill="#fff" stroke="#fff"/>
<g clip-path="url(#a)">
<g transform="translate(455.48 421.87) rotate(-40.668) scale(.08 -.08)">
<use xlink:href="#t"/>
</g>
</g>
<path d="m945.69 609.92 0.88668-4.515q0.46249-2.355-1.8925-2.8175l-7.5974-1.492q-2.355-0.46249-2.8175 1.8925l-0.88668 4.515q-0.46249 2.355 1.8925 2.8175l7.5974 1.492q2.355 0.46249 2.8175-1.8925z" clip-path="url(#a)" fill="#fff" stroke="#fff"/>
<g clip-path="url(#a)">
<defs>
<path id="u" d="m9.8125 72.906h41.891v-8.3125h-32.031v-21.484h28.906v-8.2969h-28.906v-34.812h-9.8594z"/>
</defs>
<g transform="translate(941.7 609.14) rotate(-78.889) scale(.08 -.08)">
<use xlink:href="#u"/>
</g>
</g>
<path d="m957.08 604.92 1.0765 5.4815q0.46249 2.355 2.8175 1.8925l7.5974-1.492q2.355-0.46249 1.8925-2.8175l-1.0765-5.4815q-0.46249-2.355-2.8175-1.8925l-7.5974 1.492q-2.355 0.46249-1.8925 2.8175z" clip-path="url(#a)" fill="#fff" stroke="#fff"/>
<g clip-path="url(#a)">
<defs>
<path id="p" d="m64.406 67.281v-10.391q-4.9844 4.6406-10.625 6.9219-5.6406 2.2969-11.984 2.2969-12.5 0-19.141-7.6406t-6.6406-22.094q0-14.406 6.6406-22.047t19.141-7.6406q6.3438 0 11.984 2.2969t10.625 6.9375v-10.312q-5.1719-3.5156-10.969-5.2812-5.7812-1.75-12.219-1.75-16.562 0-26.094 10.125-9.5156 10.141-9.5156 27.672 0 17.578 9.5156 27.703 9.5312 10.141 26.094 10.141 6.5312 0 12.312-1.7344 5.7969-1.7344 10.875-5.2031z"/>
</defs>
<g transform="translate(961.07 604.14) rotate(78.889) scale(.08 -.08)">
<use xlink:href="#p"/>
</g>
</g>
<path d="m1075.9 486.69 1.3794-5.3849q0.59557-2.3249-1.7294-2.9205l-7.5003-1.9213q-2.3249-0.59557-2.9205 1.7294l-1.3794 5.3849q-0.59557 2.3249 1.7294 2.9205l7.5003 1.9213q2.3249 0.59557 2.9205-1.7294z" clip-path="url(#a)" fill="#fff" stroke="#fff"/>
<g clip-path="url(#a)">
<defs>
<path id="ah" d="m44.391 34.188q3.1719-1.0781 6.1719-4.5938t6.0312-9.6719l10.016-19.922h-10.609l-9.3125 18.703q-3.625 7.3281-7.0156 9.7188t-9.25 2.3906h-10.75v-30.812h-9.8594v72.906h22.266q12.5 0 18.656-5.2344 6.1562-5.2188 6.1562-15.766 0-6.8906-3.2031-11.438-3.2031-4.5312-9.2969-6.2812zm-24.719 30.609v-25.875h12.406q7.125 0 10.766 3.2969t3.6406 9.6875-3.6406 9.6406-10.766 3.25z"/>
</defs>
<g transform="translate(1072 485.68) rotate(-75.632) scale(.08 -.08)">
<use xlink:href="#ah"/>
</g>
</g>
<path d="m1100.2 485.74 0.63824-5.0145q0.30302-2.3808-2.0778-2.6838l-7.6805-0.97757q-2.3808-0.30302-2.6838 2.0778l-0.63824 5.0145q-0.30302 2.3808 2.0778 2.6838l7.6805 0.97757q2.3808 0.30302 2.6838-2.0778z" clip-path="url(#a)" fill="#fff" stroke="#fff"/>
<g clip-path="url(#a)">
<defs>
<path id="q" d="m9.8125 72.906h46.094v-8.3125h-36.234v-21.578h34.719v-8.2969h-34.719v-26.422h37.109v-8.2969h-46.969z"/>
</defs>
<g transform="translate(1096.2 485.23) rotate(-82.746) scale(.08 -.08)">
<use xlink:href="#q"/>
</g>
</g>
<path d="m1111.8 479.66 9e-3 5.5862q0.003867 2.4 2.4039 2.3961l7.7425-0.012474q2.4-0.003867 2.3961-2.4039l-0.009001-5.5862q-0.003866-2.4-2.4039-2.3961l-7.7425 0.012474q-2.4 0.003867-2.3961 2.4039z" clip-path="url(#a)" fill="#fff" stroke="#fff"/>
<g clip-path="url(#a)">
<g transform="translate(1115.9 479.65) rotate(89.908) scale(.08 -.08)">
<use xlink:href="#p"/>
</g>
</g>
<path d="m1182.3 363.46 3.7795 3.3568q1.7944 1.5937 3.3882-0.20072l5.1414-5.789q1.5937-1.7944-0.20072-3.3882l-3.7795-3.3568q-1.7944-1.5937-3.3882 0.20072l-5.1414 5.789q-1.5937 1.7944 0.20072 3.3882z" clip-path="url(#a)" fill="#fff" stroke="#fff"/>
<g clip-path="url(#a)">
<g transform="translate(1184.9 360.42) rotate(41.61) scale(.08 -.08)">
<use xlink:href="#q"/>
</g>
</g>
<path d="m1017 709.96v35.285q0 2.4 2.4 2.4h7.7425q2.4 0 2.4-2.4v-35.285q0-2.4-2.4-2.4h-7.7425q-2.4 0-2.4 2.4z" clip-path="url(#a)" fill="#fff" stroke="#fff"/>
<g clip-path="url(#a)">
<g transform="translate(1021 709.96) rotate(90) scale(.08 -.08)">
<use xlink:href="#l"/>
<use x="60.818359" xlink:href="#e"/>
<use x="122.341797" xlink:href="#h"/>
<use x="163.439453" xlink:href="#j"/>
<use x="260.851562" xlink:href="#i"/>
<use x="288.634766" xlink:href="#g"/>
<use x="352.013672" xlink:href="#f"/>
<use x="413.292969" xlink:href="#k"/>
</g>
</g>
<path d="m1064.6 709.96v35.285q0 2.4 2.4 2.4h7.7425q2.4 0 2.4-2.4v-35.285q0-2.4-2.4-2.4h-7.7425q-2.4 0-2.4 2.4z" clip-path="url(#a)" fill="#fff" stroke="#fff"/>
<g clip-path="url(#a)">
<g transform="translate(1068.6 709.96) rotate(90) scale(.08 -.08)">
<use xlink:href="#l"/>
<use x="60.818359" xlink:href="#e"/>
<use x="122.341797" xlink:href="#h"/>
<use x="163.439453" xlink:href="#j"/>
<use x="260.851562" xlink:href="#i"/>
<use x="288.634766" xlink:href="#g"/>
<use x="352.013672" xlink:href="#f"/>
<use x="413.292969" xlink:href="#k"/>
</g>
</g>
<path d="m1112.1 709.96v35.285q0 2.4 2.4 2.4h7.7425q2.4 0 2.4-2.4v-35.285q0-2.4-2.4-2.4h-7.7425q-2.4 0-2.4 2.4z" clip-path="url(#a)" fill="#fff" stroke="#fff"/>
<g clip-path="url(#a)">
<g transform="translate(1116.2 709.96) rotate(90) scale(.08 -.08)">
<use xlink:href="#l"/>
<use x="60.818359" xlink:href="#e"/>
<use x="122.341797" xlink:href="#h"/>
<use x="163.439453" xlink:href="#j"/>
<use x="260.851562" xlink:href="#i"/>
<use x="288.634766" xlink:href="#g"/>
<use x="352.013672" xlink:href="#f"/>
<use x="413.292969" xlink:href="#k"/>
</g>
</g>
<path d="m1192.7 550.54 2.7291-4.7435q1.1969-2.0803-0.88342-3.2771l-6.711-3.8611q-2.0803-1.1969-3.2771 0.88342l-2.7291 4.7435q-1.1969 2.0803 0.88342 3.2771l6.711 3.8611q2.0803 1.1969 3.2771-0.88342z" clip-path="url(#a)" fill="#fff" stroke="#fff"/>
<g clip-path="url(#a)">
<g transform="translate(1189.2 548.51) rotate(-60.087) scale(.08 -.08)">
<use xlink:href="#t"/>
</g>
</g>
<path d="m1217.3 549.87 1.976-5.1957q0.85312-2.2433-1.3901-3.0964l-7.2368-2.7522q-2.2433-0.85312-3.0964 1.3901l-1.976 5.1957q-0.85312 2.2433 1.3901 3.0964l7.2368 2.7522q2.2433 0.85312 3.0964-1.3901z" clip-path="url(#a)" fill="#fff" stroke="#fff"/>
<g clip-path="url(#a)">
<g transform="translate(1213.5 548.42) rotate(-69.178) scale(.08 -.08)">
<use xlink:href="#ah"/>
</g>
</g>
<path d="m1253.8 488.24 0.9398-5.3912q0.41216-2.3643-1.9522-2.7765l-7.6275-1.3296q-2.3643-0.41216-2.7765 1.9522l-0.93981 5.3912q-0.41216 2.3643 1.9522 2.7765l7.6275 1.3296q2.3643 0.41216 2.7765-1.9522z" clip-path="url(#a)" fill="#fff" stroke="#fff"/>
<g clip-path="url(#a)">
<g transform="translate(1249.8 487.54) rotate(-80.111) scale(.08 -.08)">
<use xlink:href="#t"/>
</g>
</g>
<path d="m1331.5 487.92 3.7994 2.9721q1.8903 1.4787 3.3691-0.41162l4.7704-6.0983q1.4787-1.8903-0.41162-3.3691l-3.7994-2.9721q-1.8903-1.4787-3.3691 0.41162l-4.7704 6.0983q-1.4787 1.8903 0.41162 3.3691z" clip-path="url(#a)" fill="#fff" stroke="#fff"/>
<g clip-path="url(#a)">
<g transform="translate(1334 484.72) rotate(38.034) scale(.08 -.08)">
<use xlink:href="#ai"/>
</g>
</g>
<path d="m1300.6 544.51 2.2868 5.7198q0.89097 2.2285 3.1195 1.3375l7.1892-2.8743q2.2285-0.89097 1.3375-3.1195l-2.2868-5.7198q-0.89097-2.2285-3.1195-1.3375l-7.1892 2.8743q-2.2285 0.89097-1.3375 3.1195z" clip-path="url(#a)" fill="#fff" stroke="#fff"/>
<g clip-path="url(#a)">
<g transform="translate(1304.4 543) rotate(68.208) scale(.08 -.08)">
<use xlink:href="#am"/>
</g>
</g>
<path d="m1159.7 709.96v35.285q0 2.4 2.4 2.4h7.7425q2.4 0 2.4-2.4v-35.285q0-2.4-2.4-2.4h-7.7425q-2.4 0-2.4 2.4z" clip-path="url(#a)" fill="#fff" stroke="#fff"/>
<g clip-path="url(#a)">
<g transform="translate(1163.8 709.96) rotate(90) scale(.08 -.08)">
<use xlink:href="#l"/>
<use x="60.818359" xlink:href="#e"/>
<use x="122.341797" xlink:href="#h"/>
<use x="163.439453" xlink:href="#j"/>
<use x="260.851562" xlink:href="#i"/>
<use x="288.634766" xlink:href="#g"/>
<use x="352.013672" xlink:href="#f"/>
<use x="413.292969" xlink:href="#k"/>
</g>
</g>
<path d="m1231.1 610.14 0.97412-4.9603q0.46249-2.355-1.8925-2.8175l-7.5974-1.492q-2.355-0.46249-2.8175 1.8925l-0.97412 4.9603q-0.46249 2.355 1.8925 2.8175l7.5974 1.492q2.355 0.46249 2.8175-1.8925z" clip-path="url(#a)" fill="#fff" stroke="#fff"/>
<g clip-path="url(#a)">
<g transform="translate(1227.2 609.36) rotate(-78.889) scale(.08 -.08)">
<use xlink:href="#q"/>
</g>
</g>
<path d="m1242.6 604.92 1.0765 5.4815q0.46249 2.355 2.8175 1.8925l7.5974-1.492q2.355-0.46249 1.8925-2.8175l-1.0765-5.4815q-0.46249-2.355-2.8175-1.8925l-7.5974 1.492q-2.355 0.46249-1.8925 2.8175z" clip-path="url(#a)" fill="#fff" stroke="#fff"/>
<g clip-path="url(#a)">
<g transform="translate(1246.6 604.14) rotate(78.889) scale(.08 -.08)">
<use xlink:href="#p"/>
</g>
</g>
<path d="m1365.5 612.33 3.047-3.4478q1.5893-1.7984-0.20908-3.3877l-5.8016-5.1271q-1.7984-1.5893-3.3877 0.20908l-3.047 3.4478q-1.5893 1.7984 0.20908 3.3877l5.8016 5.1271q1.7984 1.5893 3.3877-0.20908z" clip-path="url(#a)" fill="#fff" stroke="#fff"/>
<g clip-path="url(#a)">
<g transform="translate(1362.4 609.64) rotate(-48.532) scale(.08 -.08)">
<use xlink:href="#u"/>
</g>
</g>
<path d="m1415.9 609.36 0.44965-4.5792q0.23454-2.3885-2.154-2.623l-7.7054-0.75662q-2.3885-0.23454-2.623 2.154l-0.44965 4.5792q-0.23454 2.3885 2.154 2.623l7.7054 0.75662q2.3885 0.23454 2.623-2.154z" clip-path="url(#a)" fill="#fff" stroke="#fff"/>
<g clip-path="url(#a)">
<g transform="translate(1411.8 608.96) rotate(-84.392) scale(.08 -.08)">
<use xlink:href="#u"/>
</g>
</g>
<path d="m1426.9 605.55 1.5785 5.3586q0.67818 2.3022 2.9804 1.624l7.427-2.1878q2.3022-0.67818 1.624-2.9804l-1.5785-5.3586q-0.67818-2.3022-2.9804-1.624l-7.427 2.1878q-2.3022 0.67818-1.624 2.9804z" clip-path="url(#a)" fill="#fff" stroke="#fff"/>
<g clip-path="url(#a)">
<g transform="translate(1430.7 604.4) rotate(73.586) scale(.08 -.08)">
<use xlink:href="#p"/>
</g>
</g>
<path d="m1450.6 607.6 3.3165 4.8251q1.3595 1.9778 3.3373 0.61837l6.3806-4.3857q1.9778-1.3595 0.61837-3.3373l-3.3165-4.8251q-1.3595-1.9778-3.3373-0.61837l-6.3806 4.3857q-1.9778 1.3595-0.61837 3.3373z" clip-path="url(#a)" fill="#fff" stroke="#fff"/>
<g clip-path="url(#a)">
<g transform="translate(1454 605.29) rotate(55.497) scale(.08 -.08)">
<use xlink:href="#ag"/>
</g>
</g>
<path d="m1350.1 709.96v35.285q0 2.4 2.4 2.4h7.7425q2.4 0 2.4-2.4v-35.285q0-2.4-2.4-2.4h-7.7425q-2.4 0-2.4 2.4z" clip-path="url(#a)" fill="#fff" stroke="#fff"/>
<g clip-path="url(#a)">
<g transform="translate(1354.1 709.96) rotate(90) scale(.08 -.08)">
<use xlink:href="#l"/>
<use x="60.818359" xlink:href="#e"/>
<use x="122.341797" xlink:href="#h"/>
<use x="163.439453" xlink:href="#j"/>
<use x="260.851562" xlink:href="#i"/>
<use x="288.634766" xlink:href="#g"/>
<use x="352.013672" xlink:href="#f"/>
<use x="413.292969" xlink:href="#k"/>
</g>
</g>
<path d="m1302.5 709.96v35.285q0 2.4 2.4 2.4h7.7425q2.4 0 2.4-2.4v-35.285q0-2.4-2.4-2.4h-7.7425q-2.4 0-2.4 2.4z" clip-path="url(#a)" fill="#fff" stroke="#fff"/>
<g clip-path="url(#a)">
<g transform="translate(1306.5 709.96) rotate(90) scale(.08 -.08)">
<use xlink:href="#l"/>
<use x="60.818359" xlink:href="#e"/>
<use x="122.341797" xlink:href="#h"/>
<use x="163.439453" xlink:href="#j"/>
<use x="260.851562" xlink:href="#i"/>
<use x="288.634766" xlink:href="#g"/>
<use x="352.013672" xlink:href="#f"/>
<use x="413.292969" xlink:href="#k"/>
</g>
</g>
<path d="m1397.6 709.96v35.285q0 2.4 2.4 2.4h7.7425q2.4 0 2.4-2.4v-35.285q0-2.4-2.4-2.4h-7.7425q-2.4 0-2.4 2.4z" clip-path="url(#a)" fill="#fff" stroke="#fff"/>
<g clip-path="url(#a)">
<g transform="translate(1401.7 709.96) rotate(90) scale(.08 -.08)">
<use xlink:href="#l"/>
<use x="60.818359" xlink:href="#e"/>
<use x="122.341797" xlink:href="#h"/>
<use x="163.439453" xlink:href="#j"/>
<use x="260.851562" xlink:href="#i"/>
<use x="288.634766" xlink:href="#g"/>
<use x="352.013672" xlink:href="#f"/>
<use x="413.292969" xlink:href="#k"/>
</g>
</g>
<path d="m1445.2 709.96v35.285q0 2.4 2.4 2.4h7.7425q2.4 0 2.4-2.4v-35.285q0-2.4-2.4-2.4h-7.7425q-2.4 0-2.4 2.4z" clip-path="url(#a)" fill="#fff" stroke="#fff"/>
<g clip-path="url(#a)">
<g transform="translate(1449.3 709.96) rotate(90) scale(.08 -.08)">
<use xlink:href="#l"/>
<use x="60.818359" xlink:href="#e"/>
<use x="122.341797" xlink:href="#h"/>
<use x="163.439453" xlink:href="#j"/>
<use x="260.851562" xlink:href="#i"/>
<use x="288.634766" xlink:href="#g"/>
<use x="352.013672" xlink:href="#f"/>
<use x="413.292969" xlink:href="#k"/>
</g>
</g>
<path d="m1207.3 709.96v35.285q0 2.4 2.4 2.4h7.7425q2.4 0 2.4-2.4v-35.285q0-2.4-2.4-2.4h-7.7425q-2.4 0-2.4 2.4z" clip-path="url(#a)" fill="#fff" stroke="#fff"/>
<g clip-path="url(#a)">
<g transform="translate(1211.4 709.96) rotate(90) scale(.08 -.08)">
<use xlink:href="#l"/>
<use x="60.818359" xlink:href="#e"/>
<use x="122.341797" xlink:href="#h"/>
<use x="163.439453" xlink:href="#j"/>
<use x="260.851562" xlink:href="#i"/>
<use x="288.634766" xlink:href="#g"/>
<use x="352.013672" xlink:href="#f"/>
<use x="413.292969" xlink:href="#k"/>
</g>
</g>
<path d="m1254.9 709.96v35.285q0 2.4 2.4 2.4h7.7425q2.4 0 2.4-2.4v-35.285q0-2.4-2.4-2.4h-7.7425q-2.4 0-2.4 2.4z" clip-path="url(#a)" fill="#fff" stroke="#fff"/>
<g clip-path="url(#a)">
<g transform="translate(1259 709.96) rotate(90) scale(.08 -.08)">
<use xlink:href="#l"/>
<use x="60.818359" xlink:href="#e"/>
<use x="122.341797" xlink:href="#h"/>
<use x="163.439453" xlink:href="#j"/>
<use x="260.851562" xlink:href="#i"/>
<use x="288.634766" xlink:href="#g"/>
<use x="352.013672" xlink:href="#f"/>
<use x="413.292969" xlink:href="#k"/>
</g>
</g>
<path d="m921.81 709.96v35.285q0 2.4 2.4 2.4h7.7425q2.4 0 2.4-2.4v-35.285q0-2.4-2.4-2.4h-7.7425q-2.4 0-2.4 2.4z" clip-path="url(#a)" fill="#fff" stroke="#fff"/>
<g clip-path="url(#a)">
<g transform="translate(925.88 709.96) rotate(90) scale(.08 -.08)">
<use xlink:href="#l"/>
<use x="60.818359" xlink:href="#e"/>
<use x="122.341797" xlink:href="#h"/>
<use x="163.439453" xlink:href="#j"/>
<use x="260.851562" xlink:href="#i"/>
<use x="288.634766" xlink:href="#g"/>
<use x="352.013672" xlink:href="#f"/>
<use x="413.292969" xlink:href="#k"/>
</g>
</g>
<path d="m969.4 709.96v35.285q0 2.4 2.4 2.4h7.7425q2.4 0 2.4-2.4v-35.285q0-2.4-2.4-2.4h-7.7425q-2.4 0-2.4 2.4z" clip-path="url(#a)" fill="#fff" stroke="#fff"/>
<g clip-path="url(#a)">
<g transform="translate(973.46 709.96) rotate(90) scale(.08 -.08)">
<use xlink:href="#l"/>
<use x="60.818359" xlink:href="#e"/>
<use x="122.341797" xlink:href="#h"/>
<use x="163.439453" xlink:href="#j"/>
<use x="260.851562" xlink:href="#i"/>
<use x="288.634766" xlink:href="#g"/>
<use x="352.013672" xlink:href="#f"/>
<use x="413.292969" xlink:href="#k"/>
</g>
</g>
<path d="m136.73 610.14 0.97412-4.9603q0.46249-2.355-1.8925-2.8175l-7.5974-1.492q-2.355-0.46249-2.8175 1.8925l-0.97412 4.9603q-0.46249 2.355 1.8925 2.8175l7.5974 1.492q2.355 0.46249 2.8175-1.8925z" clip-path="url(#a)" fill="#fff" stroke="#fff"/>
<g clip-path="url(#a)">
<g transform="translate(132.74 609.36) rotate(-78.889) scale(.08 -.08)">
<use xlink:href="#q"/>
</g>
</g>
<path d="m148.16 604.92 1.0765 5.4815q0.46249 2.355 2.8175 1.8925l7.5974-1.492q2.355-0.46249 1.8925-2.8175l-1.0765-5.4815q-0.46249-2.355-2.8175-1.8925l-7.5974 1.492q-2.355 0.46249-1.8925 2.8175z" clip-path="url(#a)" fill="#fff" stroke="#fff"/>
<g clip-path="url(#a)">
<g transform="translate(152.15 604.14) rotate(78.889) scale(.08 -.08)">
<use xlink:href="#p"/>
</g>
</g>
<path d="m271.04 612.33 3.047-3.4478q1.5893-1.7984-0.20909-3.3877l-5.8016-5.1271q-1.7984-1.5893-3.3877 0.20908l-3.047 3.4478q-1.5893 1.7984 0.20909 3.3877l5.8016 5.1271q1.7984 1.5893 3.3877-0.20908z" clip-path="url(#a)" fill="#fff" stroke="#fff"/>
<g clip-path="url(#a)">
<g transform="translate(267.99 609.64) rotate(-48.532) scale(.08 -.08)">
<use xlink:href="#u"/>
</g>
</g>
<path d="m321.44 609.58 0.49399-5.0308q0.23454-2.3885-2.154-2.623l-7.7054-0.75662q-2.3885-0.23454-2.623 2.154l-0.49399 5.0308q-0.23454 2.3885 2.154 2.623l7.7054 0.75662q2.3885 0.23454 2.623-2.154z" clip-path="url(#a)" fill="#fff" stroke="#fff"/>
<g clip-path="url(#a)">
<g transform="translate(317.4 609.19) rotate(-84.392) scale(.08 -.08)">
<use xlink:href="#q"/>
</g>
</g>
<path d="m332.57 606.02 1.3002 4.4137q0.67818 2.3022 2.9804 1.624l7.427-2.1878q2.3022-0.67818 1.624-2.9804l-1.3002-4.4137q-0.67818-2.3022-2.9804-1.624l-7.427 2.1878q-2.3022 0.67818-1.624 2.9804z" clip-path="url(#a)" fill="#fff" stroke="#fff"/>
<g clip-path="url(#a)">
<g transform="translate(336.47 604.87) rotate(73.586) scale(.08 -.08)">
<use xlink:href="#u"/>
</g>
</g>
<path d="m356.28 607.71 3.1643 4.6036q1.3595 1.9778 3.3373 0.61837l6.3806-4.3857q1.9778-1.3595 0.61837-3.3373l-3.1643-4.6036q-1.3595-1.9778-3.3373-0.61837l-6.3806 4.3857q-1.9778 1.3595-0.61837 3.3373z" clip-path="url(#a)" fill="#fff" stroke="#fff"/>
<g clip-path="url(#a)">
<g transform="translate(359.63 605.4) rotate(55.497) scale(.08 -.08)">
<use xlink:href="#p"/>
</g>
</g>
<path d="m255.65 709.96v35.285q0 2.4 2.4 2.4h7.7425q2.4 0 2.4-2.4v-35.285q0-2.4-2.4-2.4h-7.7425q-2.4 0-2.4 2.4z" clip-path="url(#a)" fill="#fff" stroke="#fff"/>
<g clip-path="url(#a)">
<g transform="translate(259.71 709.96) rotate(90) scale(.08 -.08)">
<use xlink:href="#l"/>
<use x="60.818359" xlink:href="#e"/>
<use x="122.341797" xlink:href="#h"/>
<use x="163.439453" xlink:href="#j"/>
<use x="260.851562" xlink:href="#i"/>
<use x="288.634766" xlink:href="#g"/>
<use x="352.013672" xlink:href="#f"/>
<use x="413.292969" xlink:href="#k"/>
</g>
</g>
<path d="m564.69 490.9 3.983-3.9169q1.7112-1.6828 0.028405-3.394l-5.4288-5.5204q-1.6828-1.7112-3.394-0.028405l-3.983 3.9169q-1.7112 1.6828-0.028405 3.394l5.4288 5.5204q1.6828 1.7112 3.394 0.028405z" clip-path="url(#a)" fill="#fff" stroke="#fff"/>
<g clip-path="url(#a)">
<g transform="translate(561.84 488) rotate(-44.52) scale(.08 -.08)">
<use xlink:href="#p"/>
</g>
</g>
<path d="m627.19 542.51 0.43655 5.9691q0.17506 2.3936 2.5687 2.2185l7.7219-0.56475q2.3936-0.17506 2.2185-2.5687l-0.43655-5.9691q-0.17506-2.3936-2.5687-2.2185l-7.7219 0.56475q-2.3936 0.17506-2.2185 2.5687z" clip-path="url(#a)" fill="#fff" stroke="#fff"/>
<g clip-path="url(#a)">
<defs>
<path id="aq" d="m9.8125 72.906h13.281l32.328-60.984v60.984h9.5625v-72.906h-13.281l-32.312 60.984v-60.984h-9.5781z"/>
</defs>
<g transform="translate(631.24 542.22) rotate(85.817) scale(.08 -.08)">
<use xlink:href="#aq"/>
</g>
</g>
<path d="m686.87 487.27 4.1566 3.7322q1.7858 1.6034 3.3892-0.18235l5.1727-5.761q1.6034-1.7858-0.18235-3.3892l-4.1566-3.7322q-1.7858-1.6034-3.3892 0.18235l-5.1727 5.761q-1.6034 1.7858 0.18235 3.3892z" clip-path="url(#a)" fill="#fff" stroke="#fff"/>
<g clip-path="url(#a)">
<g transform="translate(689.59 484.24) rotate(41.92) scale(.08 -.08)">
<use xlink:href="#p"/>
</g>
</g>
<path d="m615.74 548.7 0.70844-5.812q0.2904-2.3824-2.092-2.6728l-7.6856-0.93682q-2.3824-0.2904-2.6728 2.092l-0.70844 5.812q-0.2904 2.3824 2.092 2.6728l7.6856 0.93682q2.3824 0.2904 2.6728-2.092z" clip-path="url(#a)" fill="#fff" stroke="#fff"/>
<g clip-path="url(#a)">
<g transform="translate(611.71 548.21) rotate(-83.05) scale(.08 -.08)">
<use xlink:href="#ag"/>
</g>
</g>
<path d="m480.95 611.1 1.848-4.7051q0.8774-2.2339-1.3565-3.1113l-7.2066-2.8305q-2.2339-0.8774-3.1113 1.3565l-1.848 4.7051q-0.8774 2.2339 1.3565 3.1113l7.2066 2.8305q2.2339 0.8774 3.1113-1.3565z" clip-path="url(#a)" fill="#fff" stroke="#fff"/>
<g clip-path="url(#a)">
<g transform="translate(477.17 609.62) rotate(-68.557) scale(.08 -.08)">
<use xlink:href="#q"/>
</g>
</g>
<path d="m493.56 603.93v5.055q0 2.4 2.4 2.4h7.7425q2.4 0 2.4-2.4v-5.055q0-2.4-2.4-2.4h-7.7425q-2.4 0-2.4 2.4z" clip-path="url(#a)" fill="#fff" stroke="#fff"/>
<g clip-path="url(#a)">
<g transform="translate(497.63 603.93) rotate(90) scale(.08 -.08)">
<use xlink:href="#q"/>
</g>
</g>
<path d="m516.77 606.15 2.0422 5.1996q0.8774 2.2339 3.1113 1.3565l7.2066-2.8305q2.2339-0.8774 1.3565-3.1113l-2.0422-5.1996q-0.8774-2.2339-3.1113-1.3565l-7.2066 2.8305q-2.2339 0.8774-1.3565 3.1113z" clip-path="url(#a)" fill="#fff" stroke="#fff"/>
<g clip-path="url(#a)">
<g transform="translate(520.55 604.66) rotate(68.557) scale(.08 -.08)">
<use xlink:href="#p"/>
</g>
</g>
<path d="m636.31 709.96v35.285q0 2.4 2.4 2.4h7.7425q2.4 0 2.4-2.4v-35.285q0-2.4-2.4-2.4h-7.7425q-2.4 0-2.4 2.4z" clip-path="url(#a)" fill="#fff" stroke="#fff"/>
<g clip-path="url(#a)">
<g transform="translate(640.38 709.96) rotate(90) scale(.08 -.08)">
<use xlink:href="#l"/>
<use x="60.818359" xlink:href="#e"/>
<use x="122.341797" xlink:href="#h"/>
<use x="163.439453" xlink:href="#j"/>
<use x="260.851562" xlink:href="#i"/>
<use x="288.634766" xlink:href="#g"/>
<use x="352.013672" xlink:href="#f"/>
<use x="413.292969" xlink:href="#k"/>
</g>
</g>
<path d="m729.97 611.82 2.566-4.3553q1.2183-2.0678-0.84954-3.2861l-6.6708-3.9302q-2.0678-1.2183-3.2861 0.84954l-2.566 4.3553q-1.2183 2.0678 0.84954 3.2861l6.6708 3.9302q2.0678 1.2183 3.2861-0.84954z" clip-path="url(#a)" fill="#fff" stroke="#fff"/>
<g clip-path="url(#a)">
<g transform="translate(726.47 609.75) rotate(-59.495) scale(.08 -.08)">
<use xlink:href="#q"/>
</g>
</g>
<path d="m755.31 610.14 0.97412-4.9603q0.46249-2.355-1.8925-2.8175l-7.5974-1.492q-2.355-0.46249-2.8175 1.8925l-0.97412 4.9603q-0.46249 2.355 1.8925 2.8175l7.5974 1.492q2.355 0.46249 2.8175-1.8925z" clip-path="url(#a)" fill="#fff" stroke="#fff"/>
<g clip-path="url(#a)">
<g transform="translate(751.32 609.36) rotate(-78.889) scale(.08 -.08)">
<use xlink:href="#q"/>
</g>
</g>
<path d="m766.8 605.18 0.97412 4.9603q0.46249 2.355 2.8175 1.8925l7.5974-1.492q2.355-0.46249 1.8925-2.8175l-0.97412-4.9603q-0.46249-2.355-2.8175-1.8925l-7.5974 1.492q-2.355 0.46249-1.8925 2.8175z" clip-path="url(#a)" fill="#fff" stroke="#fff"/>
<g clip-path="url(#a)">
<g transform="translate(770.78 604.4) rotate(78.889) scale(.08 -.08)">
<use xlink:href="#q"/>
</g>
</g>
<path d="m790.41 607.23 2.8356 4.813q1.2183 2.0678 3.2861 0.84954l6.6708-3.9302q2.0678-1.2183 0.84954-3.2861l-2.8356-4.813q-1.2183-2.0678-3.2861-0.84954l-6.6708 3.9302q-2.0678 1.2183-0.84954 3.2861z" clip-path="url(#a)" fill="#fff" stroke="#fff"/>
<g clip-path="url(#a)">
<g transform="translate(793.91 605.17) rotate(59.495) scale(.08 -.08)">
<use xlink:href="#p"/>
</g>
</g>
<path d="m683.9 709.96v35.285q0 2.4 2.4 2.4h7.7425q2.4 0 2.4-2.4v-35.285q0-2.4-2.4-2.4h-7.7425q-2.4 0-2.4 2.4z" clip-path="url(#a)" fill="#fff" stroke="#fff"/>
<g clip-path="url(#a)">
<g transform="translate(687.96 709.96) rotate(90) scale(.08 -.08)">
<use xlink:href="#l"/>
<use x="60.818359" xlink:href="#e"/>
<use x="122.341797" xlink:href="#h"/>
<use x="163.439453" xlink:href="#j"/>
<use x="260.851562" xlink:href="#i"/>
<use x="288.634766" xlink:href="#g"/>
<use x="352.013672" xlink:href="#f"/>
<use x="413.292969" xlink:href="#k"/>
</g>
</g>
<path d="m731.48 709.96v35.285q0 2.4 2.4 2.4h7.7425q2.4 0 2.4-2.4v-35.285q0-2.4-2.4-2.4h-7.7425q-2.4 0-2.4 2.4z" clip-path="url(#a)" fill="#fff" stroke="#fff"/>
<g clip-path="url(#a)">
<g transform="translate(735.54 709.96) rotate(90) scale(.08 -.08)">
<use xlink:href="#l"/>
<use x="60.818359" xlink:href="#e"/>
<use x="122.341797" xlink:href="#h"/>
<use x="163.439453" xlink:href="#j"/>
<use x="260.851562" xlink:href="#i"/>
<use x="288.634766" xlink:href="#g"/>
<use x="352.013672" xlink:href="#f"/>
<use x="413.292969" xlink:href="#k"/>
</g>
</g>
<path d="m779.06 709.96v35.285q0 2.4 2.4 2.4h7.7425q2.4 0 2.4-2.4v-35.285q0-2.4-2.4-2.4h-7.7425q-2.4 0-2.4 2.4z" clip-path="url(#a)" fill="#fff" stroke="#fff"/>
<g clip-path="url(#a)">
<g transform="translate(783.13 709.96) rotate(90) scale(.08 -.08)">
<use xlink:href="#l"/>
<use x="60.818359" xlink:href="#e"/>
<use x="122.341797" xlink:href="#h"/>
<use x="163.439453" xlink:href="#j"/>
<use x="260.851562" xlink:href="#i"/>
<use x="288.634766" xlink:href="#g"/>
<use x="352.013672" xlink:href="#f"/>
<use x="413.292969" xlink:href="#k"/>
</g>
</g>
<path d="m826.65 709.96v35.285q0 2.4 2.4 2.4h7.7425q2.4 0 2.4-2.4v-35.285q0-2.4-2.4-2.4h-7.7425q-2.4 0-2.4 2.4z" clip-path="url(#a)" fill="#fff" stroke="#fff"/>
<g clip-path="url(#a)">
<g transform="translate(830.71 709.96) rotate(90) scale(.08 -.08)">
<use xlink:href="#l"/>
<use x="60.818359" xlink:href="#e"/>
<use x="122.341797" xlink:href="#h"/>
<use x="163.439453" xlink:href="#j"/>
<use x="260.851562" xlink:href="#i"/>
<use x="288.634766" xlink:href="#g"/>
<use x="352.013672" xlink:href="#f"/>
<use x="413.292969" xlink:href="#k"/>
</g>
</g>
<path d="m445.98 709.96v35.285q0 2.4 2.4 2.4h7.7425q2.4 0 2.4-2.4v-35.285q0-2.4-2.4-2.4h-7.7425q-2.4 0-2.4 2.4z" clip-path="url(#a)" fill="#fff" stroke="#fff"/>
<g clip-path="url(#a)">
<g transform="translate(450.04 709.96) rotate(90) scale(.08 -.08)">
<use xlink:href="#l"/>
<use x="60.818359" xlink:href="#e"/>
<use x="122.341797" xlink:href="#h"/>
<use x="163.439453" xlink:href="#j"/>
<use x="260.851562" xlink:href="#i"/>
<use x="288.634766" xlink:href="#g"/>
<use x="352.013672" xlink:href="#f"/>
<use x="413.292969" xlink:href="#k"/>
</g>
</g>
<path d="m493.56 709.96v35.285q0 2.4 2.4 2.4h7.7425q2.4 0 2.4-2.4v-35.285q0-2.4-2.4-2.4h-7.7425q-2.4 0-2.4 2.4z" clip-path="url(#a)" fill="#fff" stroke="#fff"/>
<g clip-path="url(#a)">
<g transform="translate(497.63 709.96) rotate(90) scale(.08 -.08)">
<use xlink:href="#l"/>
<use x="60.818359" xlink:href="#e"/>
<use x="122.341797" xlink:href="#h"/>
<use x="163.439453" xlink:href="#j"/>
<use x="260.851562" xlink:href="#i"/>
<use x="288.634766" xlink:href="#g"/>
<use x="352.013672" xlink:href="#f"/>
<use x="413.292969" xlink:href="#k"/>
</g>
</g>
<path d="m541.15 709.96v35.285q0 2.4 2.4 2.4h7.7425q2.4 0 2.4-2.4v-35.285q0-2.4-2.4-2.4h-7.7425q-2.4 0-2.4 2.4z" clip-path="url(#a)" fill="#fff" stroke="#fff"/>
<g clip-path="url(#a)">
<g transform="translate(545.21 709.96) rotate(90) scale(.08 -.08)">
<use xlink:href="#l"/>
<use x="60.818359" xlink:href="#e"/>
<use x="122.341797" xlink:href="#h"/>
<use x="163.439453" xlink:href="#j"/>
<use x="260.851562" xlink:href="#i"/>
<use x="288.634766" xlink:href="#g"/>
<use x="352.013672" xlink:href="#f"/>
<use x="413.292969" xlink:href="#k"/>
</g>
</g>
<path d="m208.06 709.96v35.285q0 2.4 2.4 2.4h7.7425q2.4 0 2.4-2.4v-35.285q0-2.4-2.4-2.4h-7.7425q-2.4 0-2.4 2.4z" clip-path="url(#a)" fill="#fff" stroke="#fff"/>
<g clip-path="url(#a)">
<g transform="translate(212.13 709.96) rotate(90) scale(.08 -.08)">
<use xlink:href="#l"/>
<use x="60.818359" xlink:href="#e"/>
<use x="122.341797" xlink:href="#h"/>
<use x="163.439453" xlink:href="#j"/>
<use x="260.851562" xlink:href="#i"/>
<use x="288.634766" xlink:href="#g"/>
<use x="352.013672" xlink:href="#f"/>
<use x="413.292969" xlink:href="#k"/>
</g>
</g>
<path d="m303.23 709.96v35.285q0 2.4 2.4 2.4h7.7425q2.4 0 2.4-2.4v-35.285q0-2.4-2.4-2.4h-7.7425q-2.4 0-2.4 2.4z" clip-path="url(#a)" fill="#fff" stroke="#fff"/>
<g clip-path="url(#a)">
<g transform="translate(307.29 709.96) rotate(90) scale(.08 -.08)">
<use xlink:href="#l"/>
<use x="60.818359" xlink:href="#e"/>
<use x="122.341797" xlink:href="#h"/>
<use x="163.439453" xlink:href="#j"/>
<use x="260.851562" xlink:href="#i"/>
<use x="288.634766" xlink:href="#g"/>
<use x="352.013672" xlink:href="#f"/>
<use x="413.292969" xlink:href="#k"/>
</g>
</g>
<path d="m350.81 709.96v35.285q0 2.4 2.4 2.4h7.7425q2.4 0 2.4-2.4v-35.285q0-2.4-2.4-2.4h-7.7425q-2.4 0-2.4 2.4z" clip-path="url(#a)" fill="#fff" stroke="#fff"/>
<g clip-path="url(#a)">
<g transform="translate(354.88 709.96) rotate(90) scale(.08 -.08)">
<use xlink:href="#l"/>
<use x="60.818359" xlink:href="#e"/>
<use x="122.341797" xlink:href="#h"/>
<use x="163.439453" xlink:href="#j"/>
<use x="260.851562" xlink:href="#i"/>
<use x="288.634766" xlink:href="#g"/>
<use x="352.013672" xlink:href="#f"/>
<use x="413.292969" xlink:href="#k"/>
</g>
</g>
<path d="m398.4 709.96v35.285q0 2.4 2.4 2.4h7.7425q2.4 0 2.4-2.4v-35.285q0-2.4-2.4-2.4h-7.7425q-2.4 0-2.4 2.4z" clip-path="url(#a)" fill="#fff" stroke="#fff"/>
<g clip-path="url(#a)">
<g transform="translate(402.46 709.96) rotate(90) scale(.08 -.08)">
<use xlink:href="#l"/>
<use x="60.818359" xlink:href="#e"/>
<use x="122.341797" xlink:href="#h"/>
<use x="163.439453" xlink:href="#j"/>
<use x="260.851562" xlink:href="#i"/>
<use x="288.634766" xlink:href="#g"/>
<use x="352.013672" xlink:href="#f"/>
<use x="413.292969" xlink:href="#k"/>
</g>
</g>
<path d="m112.89 709.96v35.285q0 2.4 2.4 2.4h7.7425q2.4 0 2.4-2.4v-35.285q0-2.4-2.4-2.4h-7.7425q-2.4 0-2.4 2.4z" clip-path="url(#a)" fill="#fff" stroke="#fff"/>
<g clip-path="url(#a)">
<g transform="translate(116.96 709.96) rotate(90) scale(.08 -.08)">
<use xlink:href="#l"/>
<use x="60.818359" xlink:href="#e"/>
<use x="122.341797" xlink:href="#h"/>
<use x="163.439453" xlink:href="#j"/>
<use x="260.851562" xlink:href="#i"/>
<use x="288.634766" xlink:href="#g"/>
<use x="352.013672" xlink:href="#f"/>
<use x="413.292969" xlink:href="#k"/>
</g>
</g>
<path d="m160.48 709.96v35.285q0 2.4 2.4 2.4h7.7425q2.4 0 2.4-2.4v-35.285q0-2.4-2.4-2.4h-7.7425q-2.4 0-2.4 2.4z" clip-path="url(#a)" fill="#fff" stroke="#fff"/>
<g clip-path="url(#a)">
<g transform="translate(164.54 709.96) rotate(90) scale(.08 -.08)">
<use xlink:href="#l"/>
<use x="60.818359" xlink:href="#e"/>
<use x="122.341797" xlink:href="#h"/>
<use x="163.439453" xlink:href="#j"/>
<use x="260.851562" xlink:href="#i"/>
<use x="288.634766" xlink:href="#g"/>
<use x="352.013672" xlink:href="#f"/>
<use x="413.292969" xlink:href="#k"/>
</g>
</g>
<path d="m142.89 424.87 2.5897-9.6757q0.62052-2.3184-1.6979-2.9389l-7.4792-2.0018q-2.3184-0.62052-2.9389 1.6979l-2.5897 9.6757q-0.62052 2.3184 1.6979 2.9389l7.4792 2.0018q2.3184 0.62052 2.9389-1.6979z" clip-path="url(#a)" fill="#fff" stroke="#fff"/>
<g clip-path="url(#a)">
<g transform="translate(138.96 423.82) rotate(-75.016) scale(.08 -.08)">
<use xlink:href="#aj"/>
<use x="55.712891" xlink:href="#ah"/>
</g>
</g>
<path d="m263.28 234.9 7.1574 6.8867q1.7294 1.664 3.3935-0.065415l5.3682-5.5793q1.664-1.7294-0.065416-3.3935l-7.1574-6.8867q-1.7294-1.664-3.3935 0.065415l-5.3682 5.5793q-1.664 1.7294 0.065416 3.3935z" clip-path="url(#a)" fill="#fff" stroke="#fff"/>
<g clip-path="url(#a)">
<g transform="translate(266.1 231.97) rotate(43.896) scale(.08 -.08)">
<use xlink:href="#aj"/>
<use x="55.744141" xlink:href="#t"/>
</g>
</g>
<path d="m588.73 709.96v35.285q0 2.4 2.4 2.4h7.7425q2.4 0 2.4-2.4v-35.285q0-2.4-2.4-2.4h-7.7425q-2.4 0-2.4 2.4z" clip-path="url(#a)" fill="#fff" stroke="#fff"/>
<g clip-path="url(#a)">
<g transform="translate(592.79 709.96) rotate(90) scale(.08 -.08)">
<use xlink:href="#l"/>
<use x="60.818359" xlink:href="#e"/>
<use x="122.341797" xlink:href="#h"/>
<use x="163.439453" xlink:href="#j"/>
<use x="260.851562" xlink:href="#i"/>
<use x="288.634766" xlink:href="#g"/>
<use x="352.013672" xlink:href="#f"/>
<use x="413.292969" xlink:href="#k"/>
</g>
</g>
<path d="m874.23 709.96v35.285q0 2.4 2.4 2.4h7.7425q2.4 0 2.4-2.4v-35.285q0-2.4-2.4-2.4h-7.7425q-2.4 0-2.4 2.4z" clip-path="url(#a)" fill="#fff" stroke="#fff"/>
<g clip-path="url(#a)">
<g transform="translate(878.29 709.96) rotate(90) scale(.08 -.08)">
<use xlink:href="#l"/>
<use x="60.818359" xlink:href="#e"/>
<use x="122.341797" xlink:href="#h"/>
<use x="163.439453" xlink:href="#j"/>
<use x="260.851562" xlink:href="#i"/>
<use x="288.634766" xlink:href="#g"/>
<use x="352.013672" xlink:href="#f"/>
<use x="413.292969" xlink:href="#k"/>
</g>
</g>
<path d="m1492.8 709.96v35.285q0 2.4 2.4 2.4h7.7425q2.4 0 2.4-2.4v-35.285q0-2.4-2.4-2.4h-7.7425q-2.4 0-2.4 2.4z" clip-path="url(#a)" fill="#fff" stroke="#fff"/>
<g clip-path="url(#a)">
<g transform="translate(1496.9 709.96) rotate(90) scale(.08 -.08)">
<use xlink:href="#l"/>
<use x="60.818359" xlink:href="#e"/>
<use x="122.341797" xlink:href="#h"/>
<use x="163.439453" xlink:href="#j"/>
<use x="260.851562" xlink:href="#i"/>
<use x="288.634766" xlink:href="#g"/>
<use x="352.013672" xlink:href="#f"/>
<use x="413.292969" xlink:href="#k"/>
</g>
</g>
<defs>
<path id="b" d="m0 8.6603c2.2967 0 4.4997-0.9125 6.1237-2.5365 1.624-1.624 2.5365-3.827 2.5365-6.1237s-0.9125-4.4997-2.5365-6.1237c-1.624-1.624-3.827-2.5365-6.1237-2.5365s-4.4997 0.9125-6.1237 2.5365c-1.624 1.624-2.5365 3.827-2.5365 6.1237s0.9125 4.4997 2.5365 6.1237c1.624 1.624 3.827 2.5365 6.1237 2.5365z"/>
</defs>
<g clip-path="url(#a)">
<use x="71.58284" y="788.177116" fill="#ffffff" stroke="#ffffff" xlink:href="#b"/>
</g>
<g clip-path="url(#a)">
<use x="119.166207" y="788.177116" fill="#ffffff" stroke="#ffffff" xlink:href="#b"/>
</g>
<g clip-path="url(#a)">
<use x="166.749573" y="788.177116" fill="#ffffff" stroke="#ffffff" xlink:href="#b"/>
</g>
<g clip-path="url(#a)">
<use x="214.332939" y="788.177116" fill="#ffffff" stroke="#ffffff" xlink:href="#b"/>
</g>
<g clip-path="url(#a)">
<use x="261.916305" y="788.177116" fill="#ffffff" stroke="#ffffff" xlink:href="#b"/>
</g>
<g clip-path="url(#a)">
<use x="309.499671" y="788.177116" fill="#ffffff" stroke="#ffffff" xlink:href="#b"/>
</g>
<g clip-path="url(#a)">
<use x="357.083038" y="788.177116" fill="#ffffff" stroke="#ffffff" xlink:href="#b"/>
</g>
<g clip-path="url(#a)">
<use x="404.666404" y="788.177116" fill="#ffffff" stroke="#ffffff" xlink:href="#b"/>
</g>
<g clip-path="url(#a)">
<use x="452.24977" y="788.177116" fill="#ffffff" stroke="#ffffff" xlink:href="#b"/>
</g>
<g clip-path="url(#a)">
<use x="499.833136" y="788.177116" fill="#ffffff" stroke="#ffffff" xlink:href="#b"/>
</g>
<g clip-path="url(#a)">
<use x="547.416502" y="788.177116" fill="#ffffff" stroke="#ffffff" xlink:href="#b"/>
</g>
<g clip-path="url(#a)">
<use x="594.999869" y="788.177116" fill="#ffffff" stroke="#ffffff" xlink:href="#b"/>
</g>
<g clip-path="url(#a)">
<use x="642.583235" y="788.177116" fill="#ffffff" stroke="#ffffff" xlink:href="#b"/>
</g>
<g clip-path="url(#a)">
<use x="690.166601" y="788.177116" fill="#ffffff" stroke="#ffffff" xlink:href="#b"/>
</g>
<g clip-path="url(#a)">
<use x="737.749967" y="788.177116" fill="#ffffff" stroke="#ffffff" xlink:href="#b"/>
</g>
<g clip-path="url(#a)">
<use x="785.333333" y="788.177116" fill="#ffffff" stroke="#ffffff" xlink:href="#b"/>
</g>
<g clip-path="url(#a)">
<use x="832.9167" y="788.177116" fill="#ffffff" stroke="#ffffff" xlink:href="#b"/>
</g>
<g clip-path="url(#a)">
<use x="880.500066" y="788.177116" fill="#ffffff" stroke="#ffffff" xlink:href="#b"/>
</g>
<g clip-path="url(#a)">
<use x="928.083432" y="788.177116" fill="#ffffff" stroke="#ffffff" xlink:href="#b"/>
</g>
<g clip-path="url(#a)">
<use x="975.666798" y="788.177116" fill="#ffffff" stroke="#ffffff" xlink:href="#b"/>
</g>
<g clip-path="url(#a)">
<use x="1023.250164" y="788.177116" fill="#ffffff" stroke="#ffffff" xlink:href="#b"/>
</g>
<g clip-path="url(#a)">
<use x="1070.833531" y="788.177116" fill="#ffffff" stroke="#ffffff" xlink:href="#b"/>
</g>
<g clip-path="url(#a)">
<use x="1118.416897" y="788.177116" fill="#ffffff" stroke="#ffffff" xlink:href="#b"/>
</g>
<g clip-path="url(#a)">
<use x="1166.000263" y="788.177116" fill="#ffffff" stroke="#ffffff" xlink:href="#b"/>
</g>
<g clip-path="url(#a)">
<use x="1213.583629" y="788.177116" fill="#ffffff" stroke="#ffffff" xlink:href="#b"/>
</g>
<g clip-path="url(#a)">
<use x="1261.166995" y="788.177116" fill="#ffffff" stroke="#ffffff" xlink:href="#b"/>
</g>
<g clip-path="url(#a)">
<use x="1308.750361" y="788.177116" fill="#ffffff" stroke="#ffffff" xlink:href="#b"/>
</g>
<g clip-path="url(#a)">
<use x="1356.333728" y="788.177116" fill="#ffffff" stroke="#ffffff" xlink:href="#b"/>
</g>
<g clip-path="url(#a)">
<use x="1403.917094" y="788.177116" fill="#ffffff" stroke="#ffffff" xlink:href="#b"/>
</g>
<g clip-path="url(#a)">
<use x="1451.50046" y="788.177116" fill="#ffffff" stroke="#ffffff" xlink:href="#b"/>
</g>
<g clip-path="url(#a)">
<use x="1499.083826" y="788.177116" fill="#ffffff" stroke="#ffffff" xlink:href="#b"/>
</g>
<g clip-path="url(#a)">
<use x="508.829366" y="38.48955" fill="#ffffff" stroke="#ffffff" xlink:href="#b"/>
</g>
<g clip-path="url(#a)">
<use x="71.58284" y="667.029479" fill="#ffffff" stroke="#ffffff" xlink:href="#b"/>
</g>
<g clip-path="url(#a)">
<use x="337.752295" y="297.850734" fill="#ffffff" stroke="#ffffff" xlink:href="#b"/>
</g>
<g clip-path="url(#a)">
<use x="745.482264" y="169.79989" fill="#ffffff" stroke="#ffffff" xlink:href="#b"/>
</g>
<g clip-path="url(#a)">
<use x="951.875115" y="545.881842" fill="#ffffff" stroke="#ffffff" xlink:href="#b"/>
</g>
<g clip-path="url(#a)">
<use x="1117.822105" y="297.850734" fill="#ffffff" stroke="#ffffff" xlink:href="#b"/>
</g>
<g clip-path="url(#a)">
<use x="1023.250164" y="667.029479" fill="#ffffff" stroke="#ffffff" xlink:href="#b"/>
</g>
<g clip-path="url(#a)">
<use x="1070.833531" y="667.029479" fill="#ffffff" stroke="#ffffff" xlink:href="#b"/>
</g>
<g clip-path="url(#a)">
<use x="1118.416897" y="667.029479" fill="#ffffff" stroke="#ffffff" xlink:href="#b"/>
</g>
<g clip-path="url(#a)">
<use x="1258.787827" y="423.048909" fill="#ffffff" stroke="#ffffff" xlink:href="#b"/>
</g>
<g clip-path="url(#a)">
<use x="1166.000263" y="667.029479" fill="#ffffff" stroke="#ffffff" xlink:href="#b"/>
</g>
<g clip-path="url(#a)">
<use x="1237.375312" y="545.881842" fill="#ffffff" stroke="#ffffff" xlink:href="#b"/>
</g>
<g clip-path="url(#a)">
<use x="1415.812935" y="545.881842" fill="#ffffff" stroke="#ffffff" xlink:href="#b"/>
</g>
<g clip-path="url(#a)">
<use x="1356.333728" y="667.029479" fill="#ffffff" stroke="#ffffff" xlink:href="#b"/>
</g>
<g clip-path="url(#a)">
<use x="1308.750361" y="667.029479" fill="#ffffff" stroke="#ffffff" xlink:href="#b"/>
</g>
<g clip-path="url(#a)">
<use x="1403.917094" y="667.029479" fill="#ffffff" stroke="#ffffff" xlink:href="#b"/>
</g>
<g clip-path="url(#a)">
<use x="1451.50046" y="667.029479" fill="#ffffff" stroke="#ffffff" xlink:href="#b"/>
</g>
<g clip-path="url(#a)">
<use x="1213.583629" y="667.029479" fill="#ffffff" stroke="#ffffff" xlink:href="#b"/>
</g>
<g clip-path="url(#a)">
<use x="1261.166995" y="667.029479" fill="#ffffff" stroke="#ffffff" xlink:href="#b"/>
</g>
<g clip-path="url(#a)">
<use x="928.083432" y="667.029479" fill="#ffffff" stroke="#ffffff" xlink:href="#b"/>
</g>
<g clip-path="url(#a)">
<use x="975.666798" y="667.029479" fill="#ffffff" stroke="#ffffff" xlink:href="#b"/>
</g>
<g clip-path="url(#a)">
<use x="142.95789" y="545.881842" fill="#ffffff" stroke="#ffffff" xlink:href="#b"/>
</g>
<g clip-path="url(#a)">
<use x="321.395513" y="545.881842" fill="#ffffff" stroke="#ffffff" xlink:href="#b"/>
</g>
<g clip-path="url(#a)">
<use x="261.916305" y="667.029479" fill="#ffffff" stroke="#ffffff" xlink:href="#b"/>
</g>
<g clip-path="url(#a)">
<use x="624.739472" y="423.048909" fill="#ffffff" stroke="#ffffff" xlink:href="#b"/>
</g>
<g clip-path="url(#a)">
<use x="499.833136" y="545.881842" fill="#ffffff" stroke="#ffffff" xlink:href="#b"/>
</g>
<g clip-path="url(#a)">
<use x="642.583235" y="667.029479" fill="#ffffff" stroke="#ffffff" xlink:href="#b"/>
</g>
<g clip-path="url(#a)">
<use x="761.54165" y="545.881842" fill="#ffffff" stroke="#ffffff" xlink:href="#b"/>
</g>
<g clip-path="url(#a)">
<use x="690.166601" y="667.029479" fill="#ffffff" stroke="#ffffff" xlink:href="#b"/>
</g>
<g clip-path="url(#a)">
<use x="737.749967" y="667.029479" fill="#ffffff" stroke="#ffffff" xlink:href="#b"/>
</g>
<g clip-path="url(#a)">
<use x="785.333333" y="667.029479" fill="#ffffff" stroke="#ffffff" xlink:href="#b"/>
</g>
<g clip-path="url(#a)">
<use x="832.9167" y="667.029479" fill="#ffffff" stroke="#ffffff" xlink:href="#b"/>
</g>
<g clip-path="url(#a)">
<use x="452.24977" y="667.029479" fill="#ffffff" stroke="#ffffff" xlink:href="#b"/>
</g>
<g clip-path="url(#a)">
<use x="499.833136" y="667.029479" fill="#ffffff" stroke="#ffffff" xlink:href="#b"/>
</g>
<g clip-path="url(#a)">
<use x="547.416502" y="667.029479" fill="#ffffff" stroke="#ffffff" xlink:href="#b"/>
</g>
<g clip-path="url(#a)">
<use x="214.332939" y="667.029479" fill="#ffffff" stroke="#ffffff" xlink:href="#b"/>
</g>
<g clip-path="url(#a)">
<use x="309.499671" y="667.029479" fill="#ffffff" stroke="#ffffff" xlink:href="#b"/>
</g>
<g clip-path="url(#a)">
<use x="357.083038" y="667.029479" fill="#ffffff" stroke="#ffffff" xlink:href="#b"/>
</g>
<g clip-path="url(#a)">
<use x="404.666404" y="667.029479" fill="#ffffff" stroke="#ffffff" xlink:href="#b"/>
</g>
<g clip-path="url(#a)">
<use x="119.166207" y="667.029479" fill="#ffffff" stroke="#ffffff" xlink:href="#b"/>
</g>
<g clip-path="url(#a)">
<use x="166.749573" y="667.029479" fill="#ffffff" stroke="#ffffff" xlink:href="#b"/>
</g>
<g clip-path="url(#a)">
<use x="204.667568" y="169.79989" fill="#808080" stroke="#808080" xlink:href="#b"/>
</g>
<g clip-path="url(#a)">
<use x="594.999869" y="667.029479" fill="#ffffff" stroke="#ffffff" xlink:href="#b"/>
</g>
<g clip-path="url(#a)">
<use x="880.500066" y="667.029479" fill="#ffffff" stroke="#ffffff" xlink:href="#b"/>
</g>
<g clip-path="url(#a)">
<use x="1499.083826" y="667.029479" fill="#ffffff" stroke="#ffffff" xlink:href="#b"/>
</g>
<g clip-path="url(#a)">
<defs>
<path id="ar" d="m19.672 34.812v-26.703h15.828q7.9531 0 11.781 3.2969 3.8438 3.2969 3.8438 10.078 0 6.8438-3.8438 10.078-3.8281 3.25-11.781 3.25zm0 29.984v-21.969h14.609q7.2188 0 10.75 2.7031 3.5469 2.7188 3.5469 8.2812 0 5.5156-3.5469 8.25-3.5312 2.7344-10.75 2.7344zm-9.8594 8.1094h25.203q11.281 0 17.375-4.6875 6.1094-4.6875 6.1094-13.328 0-6.7031-3.125-10.656t-9.1875-4.9219q7.2812-1.5625 11.312-6.5312 4.0312-4.9531 4.0312-12.375 0-9.7656-6.6406-15.094-6.6406-5.3125-18.906-5.3125h-26.172z"/>
<path id="af" d="m8.5 21.578v33.109h8.9844v-32.766q0-7.7656 3.0156-11.656 3.0312-3.875 9.0938-3.875 7.2656 0 11.484 4.6406 4.2344 4.6406 4.2344 12.656v31h8.9844v-54.688h-8.9844v8.4062q-3.2656-4.9844-7.5938-7.4062-4.3125-2.4219-10.031-2.4219-9.4219 0-14.312 5.8594-4.875 5.8594-4.875 17.141z"/>
<path id="r" d="m18.312 70.219v-15.531h18.5v-6.9844h-18.5v-29.688q0-6.6875 1.8281-8.5938t7.4531-1.9062h9.2188v-7.5156h-9.2188q-10.406 0-14.359 3.875-3.9531 3.8906-3.9531 14.141v29.688h-6.5938v6.9844h6.5938v15.531z"/>
</defs>
<g transform="translate(63.023 790.94) scale(.1 -.1)">
<use xlink:href="#ar"/>
<use x="68.603516" xlink:href="#af"/>
<use x="131.982422" xlink:href="#r"/>
</g>
</g>
<g clip-path="url(#a)">
<defs>
<path id="v" d="m30.609 48.391q-7.2188 0-11.422-5.6406t-4.2031-15.453 4.1719-15.453q4.1875-5.6406 11.453-5.6406 7.1875 0 11.375 5.6562 4.2031 5.6719 4.2031 15.438 0 9.7188-4.2031 15.406-4.1875 5.6875-11.375 5.6875zm0 7.6094q11.719 0 18.406-7.625 6.7031-7.6094 6.7031-21.078 0-13.422-6.7031-21.078-6.6875-7.6406-18.406-7.6406-11.766 0-18.438 7.6406-6.6562 7.6562-6.6562 21.078 0 13.469 6.6562 21.078 6.6719 7.625 18.438 7.625z"/>
<path id="x" d="m45.406 46.391v29.594h8.9844v-75.984h-8.9844v8.2031q-2.8281-4.875-7.1562-7.25-4.3125-2.375-10.375-2.375-9.9062 0-16.141 7.9062-6.2188 7.9219-6.2188 20.812t6.2188 20.797q6.2344 7.9062 16.141 7.9062 6.0625 0 10.375-2.375 4.3281-2.3594 7.1562-7.2344zm-30.609-19.094q0-9.9062 4.0781-15.547t11.203-5.6406 11.219 5.6406q4.1094 5.6406 4.1094 15.547t-4.1094 15.547q-4.0938 5.6406-11.219 5.6406t-11.203-5.6406-4.0781-15.547z"/>
</defs>
<g transform="translate(88.336 790.94) scale(.1 -.1)">
<use xlink:href="#p"/>
<use x="69.824219" xlink:href="#v"/>
<use x="131.005859" xlink:href="#j"/>
<use x="228.417969" xlink:href="#j"/>
<use x="325.830078" xlink:href="#f"/>
<use x="387.109375" xlink:href="#g"/>
<use x="450.488281" xlink:href="#x"/>
<use x="513.964844" xlink:href="#e"/>
<use x="575.488281" xlink:href="#h"/>
</g>
</g>
<g clip-path="url(#a)">
<defs>
<path id="ab" d="m45.406 27.984q0 9.7656-4.0312 15.125-4.0156 5.375-11.297 5.375-7.2188 0-11.25-5.375-4.0312-5.3594-4.0312-15.125 0-9.7188 4.0312-15.094t11.25-5.375q7.2812 0 11.297 5.375 4.0312 5.375 4.0312 15.094zm8.9844-21.203q0-13.953-6.2031-20.766-6.1875-6.8125-18.984-6.8125-4.7344 0-8.9375 0.70312t-8.1562 2.1719v8.7344q3.9531-2.1406 7.8125-3.1562 3.8594-1.0312 7.8594-1.0312 8.8438 0 13.234 4.6094t4.3906 13.938v4.4531q-2.7812-4.8438-7.125-7.2344t-10.406-2.3906q-10.047 0-16.203 7.6562-6.1562 7.6719-6.1562 20.328 0 12.688 6.1562 20.344 6.1562 7.6719 16.203 7.6719 6.0625 0 10.406-2.3906t7.125-7.2188v8.2969h8.9844z"/>
</defs>
<g transform="translate(145.34 790.94) scale(.1 -.1)">
<use xlink:href="#u"/>
<use x="57.378906" xlink:href="#f"/>
<use x="118.658203" xlink:href="#h"/>
<use x="159.755859" xlink:href="#h"/>
<use x="200.869141" xlink:href="#f"/>
<use x="262.148438" xlink:href="#ab"/>
<use x="325.625" xlink:href="#af"/>
<use x="389.003906" xlink:href="#r"/>
</g>
</g>
<g clip-path="url(#a)">
<g transform="translate(203.43 790.94) scale(.1 -.1)">
<use xlink:href="#x"/>
<use x="63.476562" xlink:href="#i"/>
<use x="91.259766" xlink:href="#x"/>
<use x="154.736328" xlink:href="#g"/>
</g>
</g>
<g clip-path="url(#a)">
<defs>
<path id="ap" d="m12.703 72.906h10.297v-7.4219l-8.0156-15.578h-6.2969l4.0156 15.578z"/>
</defs>
<g transform="translate(258.37 790.94) scale(.1 -.1)">
<use xlink:href="#ap"/>
<use x="31.787109" xlink:href="#r"/>
</g>
</g>
<g clip-path="url(#a)">
<defs>
<path id="ak" d="m4.2031 54.688h8.9844l11.234-42.672 11.172 42.672h10.594l11.234-42.672 11.188 42.672h8.9844l-14.312-54.688h-10.594l-11.766 44.828-11.812-44.828h-10.609z"/>
</defs>
<g transform="translate(297.22 790.94) scale(.1 -.1)">
<use xlink:href="#ak"/>
<use x="81.787109" xlink:href="#f"/>
<use x="143.066406" xlink:href="#g"/>
<use x="206.445312" xlink:href="#r"/>
</g>
</g>
<g clip-path="url(#a)">
<g transform="translate(352.06 790.94) scale(.1 -.1)">
<use xlink:href="#r"/>
<use x="39.208984" xlink:href="#v"/>
</g>
</g>
<g clip-path="url(#a)">
<defs>
<path id="s" d="m44.281 53.078v-8.5q-3.7969 1.9531-7.9062 2.9219-4.0938 0.98438-8.5 0.98438-6.6875 0-10.031-2.0469t-3.3438-6.1562q0-3.125 2.3906-4.9062t9.625-3.3906l3.0781-0.6875q9.5625-2.0469 13.594-5.7812t4.0312-10.422q0-7.625-6.0312-12.078-6.0312-4.4375-16.578-4.4375-4.3906 0-9.1562 0.85938t-10.031 2.5625v9.2812q4.9844-2.5938 9.8125-3.8906 4.8281-1.2812 9.5781-1.2812 6.3438 0 9.75 2.1719 3.4219 2.1719 3.4219 6.125 0 3.6562-2.4688 5.6094-2.4531 1.9531-10.812 3.7656l-3.125 0.73438q-8.3438 1.75-12.062 5.3906-3.7031 3.6406-3.7031 9.9844 0 7.7188 5.4688 11.906 5.4688 4.2031 15.531 4.2031 4.9688 0 9.3594-0.73438 4.4062-0.71875 8.1094-2.1875z"/>
</defs>
<g transform="translate(389.87 790.94) scale(.1 -.1)">
<use xlink:href="#ak"/>
<use x="81.787109" xlink:href="#f"/>
<use x="143.066406" xlink:href="#s"/>
<use x="195.166016" xlink:href="#r"/>
<use x="234.375" xlink:href="#e"/>
</g>
</g>
<g clip-path="url(#a)">
<g transform="translate(449.19 790.94) scale(.1 -.1)">
<use xlink:href="#f"/>
</g>
</g>
<g clip-path="url(#a)">
<g transform="translate(485.03 790.94) scale(.1 -.1)">
<use xlink:href="#s"/>
<use x="52.099609" xlink:href="#i"/>
<use x="79.882812" xlink:href="#g"/>
<use x="143.261719" xlink:href="#ab"/>
<use x="206.738281" xlink:href="#k"/>
<use x="234.521484" xlink:href="#e"/>
</g>
</g>
<g clip-path="url(#a)">
<defs>
<path id="as" d="m32.172-5.0781q-3.7969-9.7656-7.4219-12.734-3.6094-2.9844-9.6562-2.9844h-7.1875v7.5156h5.2812q3.7031 0 5.75 1.7656 2.0625 1.75 4.5469 8.2969l1.6094 4.0938-22.109 53.812h9.5156l17.094-42.766 17.094 42.766h9.5156z"/>
</defs>
<g transform="translate(538.22 790.94) scale(.1 -.1)">
<use xlink:href="#x"/>
<use x="63.476562" xlink:href="#f"/>
<use x="124.755859" xlink:href="#as"/>
</g>
</g>
<g clip-path="url(#a)">
<defs>
<path id="an" d="m11.719 12.406h10.297v-8.4062l-8-15.625h-6.2969l4 15.625z"/>
</defs>
<g transform="translate(593.41 790.94) scale(.1 -.1)">
<use xlink:href="#an"/>
</g>
</g>
<g clip-path="url(#a)">
<g transform="translate(637.47 790.94) scale(.1 -.1)">
<use xlink:href="#v"/>
<use x="61.181641" xlink:href="#h"/>
</g>
</g>
<g clip-path="url(#a)">
<defs>
<path id="at" d="m2.9844 54.688h9.5156l17.094-45.891 17.094 45.891h9.5156l-20.516-54.688h-12.203z"/>
</defs>
<g transform="translate(677.89 790.94) scale(.1 -.1)">
<use xlink:href="#e"/>
<use x="61.523438" xlink:href="#at"/>
<use x="120.703125" xlink:href="#e"/>
<use x="182.226562" xlink:href="#g"/>
</g>
</g>
<g clip-path="url(#a)">
<g transform="translate(734.69 790.94) scale(.1 -.1)">
<use xlink:href="#f"/>
</g>
</g>
<g clip-path="url(#a)">
<g transform="translate(770.53 790.94) scale(.1 -.1)">
<use xlink:href="#s"/>
<use x="52.099609" xlink:href="#i"/>
<use x="79.882812" xlink:href="#g"/>
<use x="143.261719" xlink:href="#ab"/>
<use x="206.738281" xlink:href="#k"/>
<use x="234.521484" xlink:href="#e"/>
</g>
</g>
<g clip-path="url(#a)">
<defs>
<path id="w" d="m54.891 33.016v-33.016h-8.9844v32.719q0 7.7656-3.0312 11.609-3.0312 3.8594-9.0781 3.8594-7.2812 0-11.484-4.6406-4.2031-4.625-4.2031-12.641v-30.906h-9.0312v75.984h9.0312v-29.797q3.2344 4.9375 7.5938 7.375 4.375 2.4375 10.094 2.4375 9.4219 0 14.25-5.8281 4.8438-5.8281 4.8438-17.156z"/>
</defs>
<g transform="translate(821.46 790.94) scale(.1 -.1)">
<use xlink:href="#w"/>
<use x="63.378906" xlink:href="#v"/>
<use x="124.560547" xlink:href="#af"/>
<use x="187.939453" xlink:href="#h"/>
</g>
</g>
<g clip-path="url(#a)">
<g transform="translate(878.91 790.94) scale(.1 -.1)">
<use xlink:href="#an"/>
</g>
</g>
<g clip-path="url(#a)">
<g transform="translate(923.53 790.94) scale(.1 -.1)">
<use xlink:href="#i"/>
<use x="27.783203" xlink:href="#g"/>
</g>
</g>
<g clip-path="url(#a)">
<defs>
<path id="au" d="m9.0781 75.984h9.0312v-44.875l26.812 23.578h11.469l-29-25.578 30.234-29.109h-11.719l-27.797 26.703v-26.703h-9.0312z"/>
</defs>
<g transform="translate(957.11 790.94) scale(.1 -.1)">
<use xlink:href="#j"/>
<use x="97.412109" xlink:href="#f"/>
<use x="158.691406" xlink:href="#au"/>
<use x="216.601562" xlink:href="#i"/>
<use x="244.384766" xlink:href="#g"/>
<use x="307.763672" xlink:href="#ab"/>
</g>
</g>
<g clip-path="url(#a)">
<defs>
<path id="aw" d="m37.109 75.984v-7.4844h-8.5938q-4.8281 0-6.7188-1.9531-1.875-1.9531-1.875-7.0312v-4.8281h14.797v-6.9844h-14.797v-47.703h-9.0312v47.703h-8.5938v6.9844h8.5938v3.8125q0 9.125 4.25 13.297 4.25 4.1875 13.469 4.1875z"/>
</defs>
<g transform="translate(1016.4 790.94) scale(.1 -.1)">
<use xlink:href="#aw"/>
<use x="35.205078" xlink:href="#v"/>
<use x="96.386719" xlink:href="#h"/>
</g>
</g>
<g clip-path="url(#a)">
<g transform="translate(1057 790.94) scale(.1 -.1)">
<use xlink:href="#r"/>
<use x="39.208984" xlink:href="#w"/>
<use x="102.587891" xlink:href="#v"/>
<use x="163.769531" xlink:href="#s"/>
<use x="215.869141" xlink:href="#e"/>
</g>
</g>
<g clip-path="url(#a)">
<g transform="translate(1107.1 790.94) scale(.1 -.1)">
<use xlink:href="#s"/>
<use x="52.099609" xlink:href="#e"/>
<use x="113.623047" xlink:href="#f"/>
<use x="174.902344" xlink:href="#s"/>
</g>
</g>
<g clip-path="url(#a)">
<g transform="translate(1150.5 790.94) scale(.1 -.1)">
<use xlink:href="#ak"/>
<use x="81.787109" xlink:href="#w"/>
<use x="145.166016" xlink:href="#e"/>
<use x="206.689453" xlink:href="#h"/>
<use x="247.771484" xlink:href="#e"/>
</g>
</g>
<g clip-path="url(#a)">
<g transform="translate(1205.4 790.94) scale(.1 -.1)">
<use xlink:href="#r"/>
<use x="39.208984" xlink:href="#w"/>
<use x="102.587891" xlink:href="#e"/>
</g>
</g>
<g clip-path="url(#a)">
<g transform="translate(1244.2 790.94) scale(.1 -.1)">
<use xlink:href="#f"/>
<use x="61.279297" xlink:href="#g"/>
<use x="124.658203" xlink:href="#i"/>
<use x="152.441406" xlink:href="#j"/>
<use x="249.853516" xlink:href="#f"/>
<use x="311.132812" xlink:href="#k"/>
</g>
</g>
<g clip-path="url(#a)">
<g transform="translate(1299.3 790.94) scale(.1 -.1)">
<use xlink:href="#w"/>
<use x="63.378906" xlink:href="#f"/>
<use x="124.658203" xlink:href="#x"/>
</g>
</g>
<g clip-path="url(#a)">
<defs>
<path id="av" d="m9.4219 54.688h8.9844v-55.672q0-10.438-3.9844-15.125-3.9688-4.6875-12.812-4.6875h-3.4219v7.6094h2.4062q5.125 0 6.9688 2.375 1.8594 2.3594 1.8594 9.8281zm0 21.297h8.9844v-11.391h-8.9844z"/>
</defs>
<g transform="translate(1347.2 790.94) scale(.1 -.1)">
<use xlink:href="#av"/>
<use x="27.783203" xlink:href="#af"/>
<use x="91.162109" xlink:href="#s"/>
<use x="143.261719" xlink:href="#r"/>
</g>
</g>
<g clip-path="url(#a)">
<defs>
<path id="ao" d="m48.688 27.297q0 9.9062-4.0781 15.547t-11.203 5.6406q-7.1406 0-11.219-5.6406t-4.0781-15.547 4.0781-15.547 11.219-5.6406q7.125 0 11.203 5.6406t4.0781 15.547zm-30.578 19.094q2.8438 4.875 7.1562 7.2344 4.3281 2.375 10.328 2.375 9.9688 0 16.188-7.9062 6.2344-7.9062 6.2344-20.797t-6.2344-20.812q-6.2188-7.9062-16.188-7.9062-6 0-10.328 2.375-4.3125 2.375-7.1562 7.25v-8.2031h-9.0312v75.984h9.0312z"/>
</defs>
<g transform="translate(1391.4 790.94) scale(.1 -.1)">
<use xlink:href="#ao"/>
<use x="63.476562" xlink:href="#e"/>
<use x="125" xlink:href="#e"/>
<use x="186.523438" xlink:href="#g"/>
</g>
</g>
<g clip-path="url(#a)">
<g transform="translate(1433 790.94) scale(.1 -.1)">
<use xlink:href="#s"/>
<use x="52.099609" xlink:href="#i"/>
<use x="79.882812" xlink:href="#ab"/>
<use x="143.359375" xlink:href="#w"/>
<use x="206.738281" xlink:href="#r"/>
<use x="245.947266" xlink:href="#e"/>
<use x="307.470703" xlink:href="#x"/>
</g>
</g>
<g clip-path="url(#a)">
<defs>
<path id="d" d="m10.688 12.406h10.312v-12.406h-10.312z"/>
</defs>
<g transform="translate(1497.5 790.94) scale(.1 -.1)">
<use xlink:href="#d"/>
</g>
</g>
<g clip-path="url(#a)">
<defs>
<path id="c" d="m12.406 8.2969h16.109v55.625l-17.531-3.5156v8.9844l17.438 3.5156h9.8594v-64.609h16.109v-8.2969h-41.984z"/>
</defs>
<g transform="translate(500.88 41.249) scale(.1 -.1)">
<use xlink:href="#c"/>
<use x="63.623047" xlink:href="#d"/>
<use x="95.410156" xlink:href="#c"/>
</g>
</g>
<g clip-path="url(#a)">
<defs>
<path id="n" d="m19.188 8.2969h34.422v-8.2969h-46.281v8.2969q5.6094 5.8125 15.297 15.594 9.7031 9.7969 12.188 12.641 4.7344 5.3125 6.6094 9 1.8906 3.6875 1.8906 7.25 0 5.8125-4.0781 9.4688-4.0781 3.6719-10.625 3.6719-4.6406 0-9.7969-1.6094-5.1406-1.6094-11-4.8906v9.9688q5.9531 2.3906 11.125 3.6094 5.1875 1.2188 9.4844 1.2188 11.328 0 18.062-5.6719 6.7344-5.6562 6.7344-15.125 0-4.5-1.6875-8.5312-1.6719-4.0156-6.125-9.4844-1.2188-1.4219-7.7656-8.1875-6.5312-6.7656-18.453-18.922z"/>
</defs>
<g transform="translate(63.631 669.79) scale(.1 -.1)">
<use xlink:href="#c"/>
<use x="63.623047" xlink:href="#d"/>
<use x="95.410156" xlink:href="#n"/>
</g>
</g>
<g clip-path="url(#a)">
<defs>
<path id="o" d="m40.578 39.312q7.0781-1.5156 11.047-6.3125 3.9844-4.7812 3.9844-11.812 0-10.781-7.4219-16.703-7.4219-5.9062-21.094-5.9062-4.5781 0-9.4375 0.90625t-10.031 2.7188v9.5156q4.0938-2.3906 8.9688-3.6094 4.8906-1.2188 10.219-1.2188 9.2656 0 14.125 3.6562t4.8594 10.641q0 6.4531-4.5156 10.078-4.5156 3.6406-12.562 3.6406h-8.5v8.1094h8.8906q7.2656 0 11.125 2.9062t3.8594 8.375q0 5.6094-3.9844 8.6094-3.9688 3.0156-11.391 3.0156-4.0625 0-8.7031-0.89062-4.6406-0.875-10.203-2.7188v8.7812q5.625 1.5625 10.531 2.3438t9.25 0.78125q11.234 0 17.766-5.1094 6.5469-5.0938 6.5469-13.781 0-6.0625-3.4688-10.234t-9.8594-5.7812z"/>
</defs>
<g transform="translate(329.8 300.61) scale(.1 -.1)">
<use xlink:href="#c"/>
<use x="63.623047" xlink:href="#d"/>
<use x="95.410156" xlink:href="#o"/>
</g>
</g>
<g clip-path="url(#a)">
<defs>
<path id="aa" d="m10.797 72.906h38.719v-8.3125h-29.688v-17.859q2.1406 0.73438 4.2812 1.0938 2.1562 0.35938 4.3125 0.35938 12.203 0 19.328-6.6875 7.1406-6.6875 7.1406-18.109 0-11.766-7.3281-18.297-7.3281-6.5156-20.656-6.5156-4.5938 0-9.3594 0.78125-4.75 0.78125-9.8281 2.3438v9.9219q4.3906-2.3906 9.0781-3.5625t9.9062-1.1719q8.4531 0 13.375 4.4375 4.9375 4.4375 4.9375 12.062 0 7.6094-4.9375 12.047-4.9219 4.4531-13.375 4.4531-3.9531 0-7.8906-0.875-3.9219-0.875-8.0156-2.7344z"/>
</defs>
<g transform="translate(737.53 172.56) scale(.1 -.1)">
<use xlink:href="#c"/>
<use x="63.623047" xlink:href="#d"/>
<use x="95.410156" xlink:href="#aa"/>
</g>
</g>
<g clip-path="url(#a)">
<defs>
<path id="z" d="m8.2031 72.906h46.875v-4.2031l-26.469-68.703h-10.297l24.906 64.594h-35.016z"/>
</defs>
<g transform="translate(943.92 548.64) scale(.1 -.1)">
<use xlink:href="#c"/>
<use x="63.623047" xlink:href="#d"/>
<use x="95.410156" xlink:href="#z"/>
</g>
</g>
<g clip-path="url(#a)">
<defs>
<path id="y" d="m31.781 34.625q-7.0312 0-11.062-3.7656-4.0156-3.7656-4.0156-10.344 0-6.5938 4.0156-10.359 4.0312-3.7656 11.062-3.7656t11.078 3.7812q4.0625 3.7969 4.0625 10.344 0 6.5781-4.0312 10.344-4.0156 3.7656-11.109 3.7656zm-9.8594 4.1875q-6.3438 1.5625-9.8906 5.9062-3.5312 4.3594-3.5312 10.609 0 8.7344 6.2188 13.812 6.2344 5.0781 17.062 5.0781 10.891 0 17.094-5.0781t6.2031-13.812q0-6.25-3.5469-10.609-3.5312-4.3438-9.8281-5.9062 7.125-1.6562 11.094-6.5 3.9844-4.8281 3.9844-11.797 0-10.609-6.4688-16.281-6.4688-5.6562-18.531-5.6562-12.047 0-18.531 5.6562-6.4688 5.6719-6.4688 16.281 0 6.9688 4 11.797 4.0156 4.8438 11.141 6.5zm-3.6094 15.578q0-5.6562 3.5312-8.8281 3.5469-3.1719 9.9375-3.1719 6.3594 0 9.9375 3.1719 3.5938 3.1719 3.5938 8.8281 0 5.6719-3.5938 8.8438-3.5781 3.1719-9.9375 3.1719-6.3906 0-9.9375-3.1719-3.5312-3.1719-3.5312-8.8438z"/>
</defs>
<g transform="translate(1109.9 300.61) scale(.1 -.1)">
<use xlink:href="#c"/>
<use x="63.623047" xlink:href="#d"/>
<use x="95.410156" xlink:href="#y"/>
</g>
</g>
<g clip-path="url(#a)">
<defs>
<path id="ac" d="m10.984 1.5156v8.9844q3.7188-1.7656 7.5156-2.6875 3.8125-0.92188 7.4844-0.92188 9.7656 0 14.906 6.5625 5.1562 6.5625 5.8906 19.953-2.8281-4.2031-7.1875-6.4531-4.3438-2.25-9.6094-2.25-10.938 0-17.312 6.6094-6.375 6.625-6.375 18.109 0 11.219 6.6406 18 6.6406 6.7969 17.672 6.7969 12.656 0 19.312-9.7031 6.6719-9.6875 6.6719-28.141 0-17.234-8.1875-27.516-8.1719-10.281-21.984-10.281-3.7188 0-7.5312 0.73438-3.7969 0.73438-7.9062 2.2031zm19.625 30.906q6.6406 0 10.516 4.5312 3.8906 4.5469 3.8906 12.469 0 7.8594-3.8906 12.422-3.875 4.5625-10.516 4.5625t-10.516-4.5625-3.875-12.422q0-7.9219 3.875-12.469 3.875-4.5312 10.516-4.5312z"/>
</defs>
<g transform="translate(1015.3 669.79) scale(.1 -.1)">
<use xlink:href="#c"/>
<use x="63.623047" xlink:href="#d"/>
<use x="95.410156" xlink:href="#ac"/>
</g>
</g>
<g clip-path="url(#a)">
<defs>
<path id="ae" d="m31.781 66.406q-7.6094 0-11.453-7.5-3.8281-7.4844-3.8281-22.531 0-14.984 3.8281-22.484 3.8438-7.5 11.453-7.5 7.6719 0 11.5 7.5 3.8438 7.5 3.8438 22.484 0 15.047-3.8438 22.531-3.8281 7.5-11.5 7.5zm0 7.8125q12.266 0 18.734-9.7031 6.4688-9.6875 6.4688-28.141 0-18.406-6.4688-28.109-6.4688-9.6875-18.734-9.6875-12.25 0-18.719 9.6875-6.4688 9.7031-6.4688 28.109 0 18.453 6.4688 28.141 6.4688 9.7031 18.719 9.7031z"/>
</defs>
<g transform="translate(1059.7 669.79) scale(.1 -.1)">
<use xlink:href="#c"/>
<use x="63.623047" xlink:href="#d"/>
<use x="95.410156" xlink:href="#c"/>
<use x="159.033203" xlink:href="#ae"/>
</g>
</g>
<g clip-path="url(#a)">
<g transform="translate(1107.3 669.79) scale(.1 -.1)">
<use xlink:href="#c"/>
<use x="63.623047" xlink:href="#d"/>
<use x="95.410156" xlink:href="#c"/>
<use x="159.033203" xlink:href="#c"/>
</g>
</g>
<g clip-path="url(#a)">
<g transform="translate(1247.7 425.81) scale(.1 -.1)">
<use xlink:href="#c"/>
<use x="63.623047" xlink:href="#d"/>
<use x="95.410156" xlink:href="#c"/>
<use x="159.033203" xlink:href="#n"/>
</g>
</g>
<g clip-path="url(#a)">
<g transform="translate(1154.9 669.79) scale(.1 -.1)">
<use xlink:href="#c"/>
<use x="63.623047" xlink:href="#d"/>
<use x="95.410156" xlink:href="#c"/>
<use x="159.033203" xlink:href="#o"/>
</g>
</g>
<g clip-path="url(#a)">
<defs>
<path id="m" d="m37.797 64.312-24.906-38.922h24.906zm-2.5938 8.5938h12.406v-47.516h10.406v-8.2031h-10.406v-17.188h-9.8125v17.188h-32.906v9.5156z"/>
</defs>
<g transform="translate(1226.2 548.64) scale(.1 -.1)">
<use xlink:href="#c"/>
<use x="63.623047" xlink:href="#d"/>
<use x="95.410156" xlink:href="#c"/>
<use x="159.033203" xlink:href="#m"/>
</g>
</g>
<g clip-path="url(#a)">
<g transform="translate(1404.7 548.64) scale(.1 -.1)">
<use xlink:href="#c"/>
<use x="63.623047" xlink:href="#d"/>
<use x="95.410156" xlink:href="#c"/>
<use x="159.033203" xlink:href="#aa"/>
</g>
</g>
<g clip-path="url(#a)">
<defs>
<path id="ad" d="m33.016 40.375q-6.6406 0-10.531-4.5469-3.875-4.5312-3.875-12.438 0-7.8594 3.875-12.438 3.8906-4.5625 10.531-4.5625t10.516 4.5625q3.875 4.5781 3.875 12.438 0 7.9062-3.875 12.438-3.875 4.5469-10.516 4.5469zm19.578 30.922v-8.9844q-3.7188 1.75-7.5 2.6719-3.7812 0.9375-7.5 0.9375-9.7656 0-14.922-6.5938-5.1406-6.5938-5.875-19.922 2.875 4.25 7.2188 6.5156 4.3594 2.2656 9.5781 2.2656 10.984 0 17.359-6.6719 6.375-6.6562 6.375-18.125 0-11.234-6.6406-18.031-6.6406-6.7812-17.672-6.7812-12.656 0-19.344 9.6875-6.6875 9.7031-6.6875 28.109 0 17.281 8.2031 27.562t22.016 10.281q3.7188 0 7.5-0.73438t7.8906-2.1875z"/>
</defs>
<g transform="translate(1345.2 669.79) scale(.1 -.1)">
<use xlink:href="#c"/>
<use x="63.623047" xlink:href="#d"/>
<use x="95.410156" xlink:href="#c"/>
<use x="159.033203" xlink:href="#ad"/>
</g>
</g>
<g clip-path="url(#a)">
<g transform="translate(1297.6 669.79) scale(.1 -.1)">
<use xlink:href="#c"/>
<use x="63.623047" xlink:href="#d"/>
<use x="95.410156" xlink:href="#c"/>
<use x="159.033203" xlink:href="#z"/>
</g>
</g>
<g clip-path="url(#a)">
<g transform="translate(1392.8 669.79) scale(.1 -.1)">
<use xlink:href="#c"/>
<use x="63.623047" xlink:href="#d"/>
<use x="95.410156" xlink:href="#c"/>
<use x="159.033203" xlink:href="#y"/>
</g>
</g>
<g clip-path="url(#a)">
<g transform="translate(1440.4 669.79) scale(.1 -.1)">
<use xlink:href="#c"/>
<use x="63.623047" xlink:href="#d"/>
<use x="95.410156" xlink:href="#c"/>
<use x="159.033203" xlink:href="#ac"/>
</g>
</g>
<g clip-path="url(#a)">
<g transform="translate(1202.5 669.79) scale(.1 -.1)">
<use xlink:href="#c"/>
<use x="63.623047" xlink:href="#d"/>
<use x="95.410156" xlink:href="#n"/>
<use x="159.033203" xlink:href="#ae"/>
</g>
</g>
<g clip-path="url(#a)">
<g transform="translate(1250 669.79) scale(.1 -.1)">
<use xlink:href="#c"/>
<use x="63.623047" xlink:href="#d"/>
<use x="95.410156" xlink:href="#n"/>
<use x="159.033203" xlink:href="#c"/>
</g>
</g>
<g clip-path="url(#a)">
<g transform="translate(916.95 669.79) scale(.1 -.1)">
<use xlink:href="#c"/>
<use x="63.623047" xlink:href="#d"/>
<use x="95.410156" xlink:href="#n"/>
<use x="159.033203" xlink:href="#n"/>
</g>
</g>
<g clip-path="url(#a)">
<g transform="translate(964.53 669.79) scale(.1 -.1)">
<use xlink:href="#c"/>
<use x="63.623047" xlink:href="#d"/>
<use x="95.410156" xlink:href="#n"/>
<use x="159.033203" xlink:href="#o"/>
</g>
</g>
<g clip-path="url(#a)">
<g transform="translate(131.83 548.64) scale(.1 -.1)">
<use xlink:href="#c"/>
<use x="63.623047" xlink:href="#d"/>
<use x="95.410156" xlink:href="#n"/>
<use x="159.033203" xlink:href="#m"/>
</g>
</g>
<g clip-path="url(#a)">
<g transform="translate(310.26 548.64) scale(.1 -.1)">
<use xlink:href="#c"/>
<use x="63.623047" xlink:href="#d"/>
<use x="95.410156" xlink:href="#n"/>
<use x="159.033203" xlink:href="#aa"/>
</g>
</g>
<g clip-path="url(#a)">
<g transform="translate(250.78 669.79) scale(.1 -.1)">
<use xlink:href="#c"/>
<use x="63.623047" xlink:href="#d"/>
<use x="95.410156" xlink:href="#n"/>
<use x="159.033203" xlink:href="#ad"/>
</g>
</g>
<g clip-path="url(#a)">
<g transform="translate(613.61 425.81) scale(.1 -.1)">
<use xlink:href="#c"/>
<use x="63.623047" xlink:href="#d"/>
<use x="95.410156" xlink:href="#n"/>
<use x="159.033203" xlink:href="#z"/>
</g>
</g>
<g clip-path="url(#a)">
<g transform="translate(488.7 548.64) scale(.1 -.1)">
<use xlink:href="#c"/>
<use x="63.623047" xlink:href="#d"/>
<use x="95.410156" xlink:href="#n"/>
<use x="159.033203" xlink:href="#y"/>
</g>
</g>
<g clip-path="url(#a)">
<g transform="translate(631.45 669.79) scale(.1 -.1)">
<use xlink:href="#c"/>
<use x="63.623047" xlink:href="#d"/>
<use x="95.410156" xlink:href="#o"/>
<use x="159.033203" xlink:href="#ae"/>
</g>
</g>
<g clip-path="url(#a)">
<g transform="translate(750.41 548.64) scale(.1 -.1)">
<use xlink:href="#c"/>
<use x="63.623047" xlink:href="#d"/>
<use x="95.410156" xlink:href="#o"/>
<use x="159.033203" xlink:href="#c"/>
</g>
</g>
<g clip-path="url(#a)">
<g transform="translate(679.03 669.79) scale(.1 -.1)">
<use xlink:href="#c"/>
<use x="63.623047" xlink:href="#d"/>
<use x="95.410156" xlink:href="#o"/>
<use x="159.033203" xlink:href="#n"/>
</g>
</g>
<g clip-path="url(#a)">
<g transform="translate(726.62 669.79) scale(.1 -.1)">
<use xlink:href="#c"/>
<use x="63.623047" xlink:href="#d"/>
<use x="95.410156" xlink:href="#o"/>
<use x="159.033203" xlink:href="#m"/>
</g>
</g>
<g clip-path="url(#a)">
<g transform="translate(774.2 669.79) scale(.1 -.1)">
<use xlink:href="#c"/>
<use x="63.623047" xlink:href="#d"/>
<use x="95.410156" xlink:href="#o"/>
<use x="159.033203" xlink:href="#aa"/>
</g>
</g>
<g clip-path="url(#a)">
<g transform="translate(821.78 669.79) scale(.1 -.1)">
<use xlink:href="#c"/>
<use x="63.623047" xlink:href="#d"/>
<use x="95.410156" xlink:href="#o"/>
<use x="159.033203" xlink:href="#ad"/>
</g>
</g>
<g clip-path="url(#a)">
<g transform="translate(441.12 669.79) scale(.1 -.1)">
<use xlink:href="#c"/>
<use x="63.623047" xlink:href="#d"/>
<use x="95.410156" xlink:href="#o"/>
<use x="159.033203" xlink:href="#z"/>
</g>
</g>
<g clip-path="url(#a)">
<g transform="translate(488.7 669.79) scale(.1 -.1)">
<use xlink:href="#c"/>
<use x="63.623047" xlink:href="#d"/>
<use x="95.410156" xlink:href="#o"/>
<use x="159.033203" xlink:href="#y"/>
</g>
</g>
<g clip-path="url(#a)">
<g transform="translate(536.28 669.79) scale(.1 -.1)">
<use xlink:href="#c"/>
<use x="63.623047" xlink:href="#d"/>
<use x="95.410156" xlink:href="#o"/>
<use x="159.033203" xlink:href="#ac"/>
</g>
</g>
<g clip-path="url(#a)">
<g transform="translate(203.2 669.79) scale(.1 -.1)">
<use xlink:href="#c"/>
<use x="63.623047" xlink:href="#d"/>
<use x="95.410156" xlink:href="#m"/>
<use x="159.033203" xlink:href="#ae"/>
</g>
</g>
<g clip-path="url(#a)">
<g transform="translate(298.37 669.79) scale(.1 -.1)">
<use xlink:href="#c"/>
<use x="63.623047" xlink:href="#d"/>
<use x="95.410156" xlink:href="#m"/>
<use x="159.033203" xlink:href="#c"/>
</g>
</g>
<g clip-path="url(#a)">
<g transform="translate(345.95 669.79) scale(.1 -.1)">
<use xlink:href="#c"/>
<use x="63.623047" xlink:href="#d"/>
<use x="95.410156" xlink:href="#m"/>
<use x="159.033203" xlink:href="#n"/>
</g>
</g>
<g clip-path="url(#a)">
<g transform="translate(393.53 669.79) scale(.1 -.1)">
<use xlink:href="#c"/>
<use x="63.623047" xlink:href="#d"/>
<use x="95.410156" xlink:href="#m"/>
<use x="159.033203" xlink:href="#o"/>
</g>
</g>
<g clip-path="url(#a)">
<g transform="translate(108.03 669.79) scale(.1 -.1)">
<use xlink:href="#c"/>
<use x="63.623047" xlink:href="#d"/>
<use x="95.410156" xlink:href="#m"/>
<use x="159.033203" xlink:href="#m"/>
</g>
</g>
<g clip-path="url(#a)">
<g transform="translate(155.62 669.79) scale(.1 -.1)">
<use xlink:href="#c"/>
<use x="63.623047" xlink:href="#d"/>
<use x="95.410156" xlink:href="#m"/>
<use x="159.033203" xlink:href="#aa"/>
</g>
</g>
<g clip-path="url(#a)">
<g transform="translate(193.53 172.56) scale(.1 -.1)">
<use xlink:href="#c"/>
<use x="63.623047" xlink:href="#d"/>
<use x="95.410156" xlink:href="#m"/>
<use x="159.033203" xlink:href="#ad"/>
</g>
</g>
<g clip-path="url(#a)">
<g transform="translate(583.87 669.79) scale(.1 -.1)">
<use xlink:href="#c"/>
<use x="63.623047" xlink:href="#d"/>
<use x="95.410156" xlink:href="#m"/>
<use x="159.033203" xlink:href="#z"/>
</g>
</g>
<g clip-path="url(#a)">
<g transform="translate(869.37 669.79) scale(.1 -.1)">
<use xlink:href="#c"/>
<use x="63.623047" xlink:href="#d"/>
<use x="95.410156" xlink:href="#m"/>
<use x="159.033203" xlink:href="#y"/>
</g>
</g>
<g clip-path="url(#a)">
<g transform="translate(1488 669.79) scale(.1 -.1)">
<use xlink:href="#c"/>
<use x="63.623047" xlink:href="#d"/>
<use x="95.410156" xlink:href="#m"/>
<use x="159.033203" xlink:href="#ac"/>
</g>
</g>
<defs>
<clipPath id="a">
<rect width="1570.7" height="826.67"/>
</clipPath>
</defs>
</svg>
