<?xml version="1.0" encoding="utf-8" standalone="no"?>
<!DOCTYPE svg PUBLIC "-//W3C//DTD SVG 1.1//EN"
  "http://www.w3.org/Graphics/SVG/1.1/DTD/svg11.dtd">
<!-- Created with matplotlib (https://matplotlib.org/) -->
<svg height="320pt" version="1.1" viewBox="0 0 608 320" width="608pt" xmlns="http://www.w3.org/2000/svg" xmlns:xlink="http://www.w3.org/1999/xlink">
 <defs>
  <style type="text/css">
*{stroke-linecap:butt;stroke-linejoin:round;}
  </style>
 </defs>
 <g id="figure_1">
  <g id="patch_1">
   <path d="M 0 320 
L 608 320 
L 608 0 
L 0 0 
z
" style="fill:#ffffff;"/>
  </g>
  <g id="axes_1">
   <g id="LineCollection_1">
    <path clip-path="url(#p13f15ebf7e)" d="M 394.55658 15.455742 
L 394.55658 66.090584 
" style="fill:none;stroke:#000000;"/>
    <path clip-path="url(#p13f15ebf7e)" d="M 394.55658 66.090584 
L 249.666052 115.468525 
" style="fill:none;stroke:#000000;"/>
    <path clip-path="url(#p13f15ebf7e)" d="M 394.55658 66.090584 
L 404.308827 257.828276 
" style="fill:none;stroke:#000000;"/>
    <path clip-path="url(#p13f15ebf7e)" d="M 394.55658 66.090584 
L 529.694861 211.112295 
" style="fill:none;stroke:#000000;"/>
    <path clip-path="url(#p13f15ebf7e)" d="M 249.666052 115.468525 
L 161.895828 163.746442 
" style="fill:none;stroke:#000000;"/>
    <path clip-path="url(#p13f15ebf7e)" d="M 249.666052 115.468525 
L 278.922793 257.828276 
" style="fill:none;stroke:#000000;"/>
    <path clip-path="url(#p13f15ebf7e)" d="M 249.666052 115.468525 
L 329.077207 257.828276 
" style="fill:none;stroke:#000000;"/>
    <path clip-path="url(#p13f15ebf7e)" d="M 249.666052 115.468525 
L 228.76838 257.828276 
" style="fill:none;stroke:#000000;"/>
    <path clip-path="url(#p13f15ebf7e)" d="M 404.308827 257.828276 
L 379.23162 304.544258 
" style="fill:none;stroke:#000000;"/>
    <path clip-path="url(#p13f15ebf7e)" d="M 404.308827 257.828276 
L 429.386034 304.544258 
" style="fill:none;stroke:#000000;"/>
    <path clip-path="url(#p13f15ebf7e)" d="M 529.694861 211.112295 
L 479.540447 257.828276 
" style="fill:none;stroke:#000000;"/>
    <path clip-path="url(#p13f15ebf7e)" d="M 529.694861 211.112295 
L 529.694861 257.828276 
" style="fill:none;stroke:#000000;"/>
    <path clip-path="url(#p13f15ebf7e)" d="M 529.694861 211.112295 
L 579.849275 257.828276 
" style="fill:none;stroke:#000000;"/>
    <path clip-path="url(#p13f15ebf7e)" d="M 479.540447 257.828276 
L 479.540447 304.544258 
" style="fill:none;stroke:#000000;"/>
    <path clip-path="url(#p13f15ebf7e)" d="M 529.694861 257.828276 
L 529.694861 304.544258 
" style="fill:none;stroke:#000000;"/>
    <path clip-path="url(#p13f15ebf7e)" d="M 161.895828 163.746442 
L 329.077207 257.828276 
" style="fill:none;stroke:#000000;stroke-dasharray:3.7,1.6;stroke-dashoffset:0;"/>
    <path clip-path="url(#p13f15ebf7e)" d="M 161.895828 163.746442 
L 28.150725 257.828276 
" style="fill:none;stroke:#000000;"/>
    <path clip-path="url(#p13f15ebf7e)" d="M 161.895828 163.746442 
L 128.459553 211.112295 
" style="fill:none;stroke:#000000;"/>
    <path clip-path="url(#p13f15ebf7e)" d="M 278.922793 257.828276 
L 278.922793 304.544258 
" style="fill:none;stroke:#000000;"/>
    <path clip-path="url(#p13f15ebf7e)" d="M 329.077207 257.828276 
L 329.077207 304.544258 
" style="fill:none;stroke:#000000;"/>
    <path clip-path="url(#p13f15ebf7e)" d="M 28.150725 257.828276 
L 28.150725 304.544258 
" style="fill:none;stroke:#000000;"/>
    <path clip-path="url(#p13f15ebf7e)" d="M 128.459553 211.112295 
L 78.305139 257.828276 
" style="fill:none;stroke:#000000;"/>
    <path clip-path="url(#p13f15ebf7e)" d="M 128.459553 211.112295 
L 128.459553 257.828276 
" style="fill:none;stroke:#000000;"/>
    <path clip-path="url(#p13f15ebf7e)" d="M 128.459553 211.112295 
L 178.613966 257.828276 
" style="fill:none;stroke:#000000;"/>
    <path clip-path="url(#p13f15ebf7e)" d="M 78.305139 257.828276 
L 78.305139 304.544258 
" style="fill:none;stroke:#000000;"/>
    <path clip-path="url(#p13f15ebf7e)" d="M 128.459553 257.828276 
L 128.459553 304.544258 
" style="fill:none;stroke:#000000;"/>
    <path clip-path="url(#p13f15ebf7e)" d="M 178.613966 257.828276 
L 178.613966 304.544258 
" style="fill:none;stroke:#000000;"/>
    <path clip-path="url(#p13f15ebf7e)" d="M 228.76838 257.828276 
L 228.76838 304.544258 
" style="fill:none;stroke:#000000;"/>
    <path clip-path="url(#p13f15ebf7e)" d="M 579.849275 257.828276 
L 579.849275 304.544258 
" style="fill:none;stroke:#000000;"/>
   </g>
   <g id="text_1">
    <g id="patch_2">
     <path clip-path="url(#p13f15ebf7e)" d="M 388.28533 37.765038 
L 388.28533 43.781288 
Q 388.28533 46.181288 390.68533 46.181288 
L 398.42783 46.181288 
Q 400.82783 46.181288 400.82783 43.781288 
L 400.82783 37.765038 
Q 400.82783 35.365038 398.42783 35.365038 
L 390.68533 35.365038 
Q 388.28533 35.365038 388.28533 37.765038 
z
" style="fill:#ffffff;stroke:#ffffff;stroke-linejoin:miter;"/>
    </g>
    <g clip-path="url(#p13f15ebf7e)">
     <!-- H -->
     <defs>
      <path d="M 9.8125 72.90625 
L 19.671875 72.90625 
L 19.671875 43.015625 
L 55.515625 43.015625 
L 55.515625 72.90625 
L 65.375 72.90625 
L 65.375 0 
L 55.515625 0 
L 55.515625 34.71875 
L 19.671875 34.71875 
L 19.671875 0 
L 9.8125 0 
z
" id="DejaVuSans-72"/>
     </defs>
     <g transform="translate(392.34908 37.765038)rotate(-270)scale(0.08 -0.08)">
      <use xlink:href="#DejaVuSans-72"/>
     </g>
    </g>
   </g>
   <g id="text_2">
    <g id="patch_3">
     <path clip-path="url(#p13f15ebf7e)" d="M 321.544298 97.598215 
L 326.724256 95.832912 
Q 328.99596 95.058727 328.221775 92.787024 
L 325.724222 85.458413 
Q 324.950037 83.186709 322.678334 83.960894 
L 317.498376 85.726197 
Q 315.226672 86.500381 316.000857 88.772085 
L 318.49841 96.100696 
Q 319.272595 98.3724 321.544298 97.598215 
z
" style="fill:#ffffff;stroke:#ffffff;stroke-linejoin:miter;"/>
    </g>
    <g clip-path="url(#p13f15ebf7e)">
     <!-- A -->
     <defs>
      <path d="M 34.1875 63.1875 
L 20.796875 26.90625 
L 47.609375 26.90625 
z
M 28.609375 72.90625 
L 39.796875 72.90625 
L 67.578125 0 
L 57.328125 0 
L 50.6875 18.703125 
L 17.828125 18.703125 
L 11.1875 0 
L 0.78125 0 
z
" id="DejaVuSans-65"/>
     </defs>
     <g transform="translate(320.233426 93.7517)rotate(-18.818844)scale(0.08 -0.08)">
      <use xlink:href="#DejaVuSans-65"/>
     </g>
    </g>
   </g>
   <g id="text_3">
    <g id="patch_4">
     <path clip-path="url(#p13f15ebf7e)" d="M 393.047034 159.869228 
L 393.292065 164.686751 
Q 393.413977 167.083652 395.810879 166.96174 
L 403.543384 166.568446 
Q 405.940285 166.446534 405.818373 164.049632 
L 405.573342 159.232109 
Q 405.45143 156.835208 403.054528 156.95712 
L 395.322024 157.350414 
Q 392.925122 157.472326 393.047034 159.869228 
z
" style="fill:#ffffff;stroke:#ffffff;stroke-linejoin:miter;"/>
    </g>
    <g clip-path="url(#p13f15ebf7e)">
     <!-- P -->
     <defs>
      <path d="M 19.671875 64.796875 
L 19.671875 37.40625 
L 32.078125 37.40625 
Q 38.96875 37.40625 42.71875 40.96875 
Q 46.484375 44.53125 46.484375 51.125 
Q 46.484375 57.671875 42.71875 61.234375 
Q 38.96875 64.796875 32.078125 64.796875 
z
M 9.8125 72.90625 
L 32.078125 72.90625 
Q 44.34375 72.90625 50.609375 67.359375 
Q 56.890625 61.8125 56.890625 51.125 
Q 56.890625 40.328125 50.609375 34.8125 
Q 44.34375 29.296875 32.078125 29.296875 
L 19.671875 29.296875 
L 19.671875 0 
L 9.8125 0 
z
" id="DejaVuSans-80"/>
     </defs>
     <g transform="translate(397.105538 159.662803)rotate(-272.911694)scale(0.08 -0.08)">
      <use xlink:href="#DejaVuSans-80"/>
     </g>
    </g>
   </g>
   <g id="text_4">
    <g id="patch_5">
     <path clip-path="url(#p13f15ebf7e)" d="M 455.437942 140.623467 
L 459.637445 145.130104 
Q 461.273615 146.885936 463.029448 145.249766 
L 468.693836 139.971414 
Q 470.449669 138.335244 468.813499 136.579411 
L 464.613996 132.072775 
Q 462.977826 130.316942 461.221993 131.953112 
L 455.557605 137.231465 
Q 453.801772 138.867635 455.437942 140.623467 
z
" style="fill:#ffffff;stroke:#ffffff;stroke-linejoin:miter;"/>
    </g>
    <g clip-path="url(#p13f15ebf7e)">
     <!-- D -->
     <defs>
      <path d="M 19.671875 64.796875 
L 19.671875 8.109375 
L 31.59375 8.109375 
Q 46.6875 8.109375 53.6875 14.9375 
Q 60.6875 21.78125 60.6875 36.53125 
Q 60.6875 51.171875 53.6875 57.984375 
Q 46.6875 64.796875 31.59375 64.796875 
z
M 9.8125 72.90625 
L 30.078125 72.90625 
Q 51.265625 72.90625 61.171875 64.09375 
Q 71.09375 55.28125 71.09375 36.53125 
Q 71.09375 17.671875 61.125 8.828125 
Q 51.171875 0 30.078125 0 
L 9.8125 0 
z
" id="DejaVuSans-68"/>
     </defs>
     <g transform="translate(458.410969 137.853057)rotate(-312.979569)scale(0.08 -0.08)">
      <use xlink:href="#DejaVuSans-68"/>
     </g>
    </g>
   </g>
   <g id="text_5">
    <g id="patch_6">
     <path clip-path="url(#p13f15ebf7e)" d="M 206.58879 146.320472 
L 211.017969 143.884206 
Q 213.120844 142.727522 211.96416 140.624647 
L 208.232649 133.840686 
Q 207.075965 131.737811 204.973091 132.894495 
L 200.543911 135.330761 
Q 198.441036 136.487445 199.59772 138.59032 
L 203.329231 145.374281 
Q 204.485915 147.477156 206.58879 146.320472 
z
" style="fill:#ffffff;stroke:#ffffff;stroke-linejoin:miter;"/>
    </g>
    <g clip-path="url(#p13f15ebf7e)">
     <!-- E -->
     <defs>
      <path d="M 9.8125 72.90625 
L 55.90625 72.90625 
L 55.90625 64.59375 
L 19.671875 64.59375 
L 19.671875 43.015625 
L 54.390625 43.015625 
L 54.390625 34.71875 
L 19.671875 34.71875 
L 19.671875 8.296875 
L 56.78125 8.296875 
L 56.78125 0 
L 9.8125 0 
z
" id="DejaVuSans-69"/>
     </defs>
     <g transform="translate(204.630258 142.759823)rotate(-28.812946)scale(0.08 -0.08)">
      <use xlink:href="#DejaVuSans-69"/>
     </g>
    </g>
   </g>
   <g id="text_6">
    <g id="patch_7">
     <path clip-path="url(#p13f15ebf7e)" d="M 257.642755 185.43508 
L 258.660354 190.386596 
Q 259.143488 192.737465 261.494356 192.254331 
L 269.078355 190.695723 
Q 271.429224 190.21259 270.94609 187.861721 
L 269.928491 182.910205 
Q 269.445357 180.559336 267.094489 181.04247 
L 259.51049 182.601078 
Q 257.159621 183.084211 257.642755 185.43508 
z
" style="fill:#ffffff;stroke:#ffffff;stroke-linejoin:miter;"/>
    </g>
    <g clip-path="url(#p13f15ebf7e)">
     <!-- E -->
     <g transform="translate(261.623314 184.617024)rotate(-281.613316)scale(0.08 -0.08)">
      <use xlink:href="#DejaVuSans-69"/>
     </g>
    </g>
   </g>
   <g id="text_7">
    <g id="patch_8">
     <path clip-path="url(#p13f15ebf7e)" d="M 282.534164 187.264181 
L 285.255525 192.142744 
Q 286.424694 194.238703 288.520653 193.069535 
L 295.282305 189.297748 
Q 297.378264 188.12858 296.209095 186.03262 
L 293.487734 181.154057 
Q 292.318565 179.058098 290.222606 180.227266 
L 283.460954 183.999053 
Q 281.364995 185.168221 282.534164 187.264181 
z
" style="fill:#ffffff;stroke:#ffffff;stroke-linejoin:miter;"/>
    </g>
    <g clip-path="url(#p13f15ebf7e)">
     <!-- C -->
     <defs>
      <path d="M 64.40625 67.28125 
L 64.40625 56.890625 
Q 59.421875 61.53125 53.78125 63.8125 
Q 48.140625 66.109375 41.796875 66.109375 
Q 29.296875 66.109375 22.65625 58.46875 
Q 16.015625 50.828125 16.015625 36.375 
Q 16.015625 21.96875 22.65625 14.328125 
Q 29.296875 6.6875 41.796875 6.6875 
Q 48.140625 6.6875 53.78125 8.984375 
Q 59.421875 11.28125 64.40625 15.921875 
L 64.40625 5.609375 
Q 59.234375 2.09375 53.4375 0.328125 
Q 47.65625 -1.421875 41.21875 -1.421875 
Q 24.65625 -1.421875 15.125 8.703125 
Q 5.609375 18.84375 5.609375 36.375 
Q 5.609375 53.953125 15.125 64.078125 
Q 24.65625 74.21875 41.21875 74.21875 
Q 47.75 74.21875 53.53125 72.484375 
Q 59.328125 70.75 64.40625 67.28125 
z
" id="DejaVuSans-67"/>
     </defs>
     <g transform="translate(286.083103 185.28451)rotate(-299.153664)scale(0.08 -0.08)">
      <use xlink:href="#DejaVuSans-67"/>
     </g>
    </g>
   </g>
   <g id="text_8">
    <g id="patch_9">
     <path clip-path="url(#p13f15ebf7e)" d="M 244.996785 190.455685 
L 245.847155 184.662767 
Q 246.195727 182.288215 243.821175 181.939643 
L 236.160771 180.815136 
Q 233.786219 180.466564 233.437647 182.841116 
L 232.587277 188.634034 
Q 232.238705 191.008586 234.613257 191.357158 
L 242.273661 192.481665 
Q 244.648213 192.830237 244.996785 190.455685 
z
" style="fill:#ffffff;stroke:#ffffff;stroke-linejoin:miter;"/>
    </g>
    <g clip-path="url(#p13f15ebf7e)">
     <!-- U -->
     <defs>
      <path d="M 8.6875 72.90625 
L 18.609375 72.90625 
L 18.609375 28.609375 
Q 18.609375 16.890625 22.84375 11.734375 
Q 27.09375 6.59375 36.625 6.59375 
Q 46.09375 6.59375 50.34375 11.734375 
Q 54.59375 16.890625 54.59375 28.609375 
L 54.59375 72.90625 
L 64.5 72.90625 
L 64.5 27.390625 
Q 64.5 13.140625 57.4375 5.859375 
Q 50.390625 -1.421875 36.625 -1.421875 
Q 22.796875 -1.421875 15.734375 5.859375 
Q 8.6875 13.140625 8.6875 27.390625 
z
" id="DejaVuSans-85"/>
     </defs>
     <g transform="translate(240.976124 189.865473)rotate(-81.648921)scale(0.08 -0.08)">
      <use xlink:href="#DejaVuSans-85"/>
     </g>
    </g>
   </g>
   <g id="text_9">
    <g id="patch_10">
     <path clip-path="url(#p13f15ebf7e)" d="M 388.951408 299.696822 
L 405.639997 268.607882 
Q 406.775114 266.493287 404.66052 265.35817 
L 397.838751 261.696235 
Q 395.724156 260.561117 394.589039 262.675712 
L 377.900451 293.764652 
Q 376.765333 295.879247 378.879928 297.014364 
L 385.701697 300.676299 
Q 387.816291 301.811417 388.951408 299.696822 
z
" style="fill:#ffffff;stroke:#ffffff;stroke-linejoin:miter;"/>
    </g>
    <g clip-path="url(#p13f15ebf7e)">
     <!-- Terminal -->
     <defs>
      <path d="M -0.296875 72.90625 
L 61.375 72.90625 
L 61.375 64.59375 
L 35.5 64.59375 
L 35.5 0 
L 25.59375 0 
L 25.59375 64.59375 
L -0.296875 64.59375 
z
" id="DejaVuSans-84"/>
      <path d="M 56.203125 29.59375 
L 56.203125 25.203125 
L 14.890625 25.203125 
Q 15.484375 15.921875 20.484375 11.0625 
Q 25.484375 6.203125 34.421875 6.203125 
Q 39.59375 6.203125 44.453125 7.46875 
Q 49.3125 8.734375 54.109375 11.28125 
L 54.109375 2.78125 
Q 49.265625 0.734375 44.1875 -0.34375 
Q 39.109375 -1.421875 33.890625 -1.421875 
Q 20.796875 -1.421875 13.15625 6.1875 
Q 5.515625 13.8125 5.515625 26.8125 
Q 5.515625 40.234375 12.765625 48.109375 
Q 20.015625 56 32.328125 56 
Q 43.359375 56 49.78125 48.890625 
Q 56.203125 41.796875 56.203125 29.59375 
z
M 47.21875 32.234375 
Q 47.125 39.59375 43.09375 43.984375 
Q 39.0625 48.390625 32.421875 48.390625 
Q 24.90625 48.390625 20.390625 44.140625 
Q 15.875 39.890625 15.1875 32.171875 
z
" id="DejaVuSans-101"/>
      <path d="M 41.109375 46.296875 
Q 39.59375 47.171875 37.8125 47.578125 
Q 36.03125 48 33.890625 48 
Q 26.265625 48 22.1875 43.046875 
Q 18.109375 38.09375 18.109375 28.8125 
L 18.109375 0 
L 9.078125 0 
L 9.078125 54.6875 
L 18.109375 54.6875 
L 18.109375 46.1875 
Q 20.953125 51.171875 25.484375 53.578125 
Q 30.03125 56 36.53125 56 
Q 37.453125 56 38.578125 55.875 
Q 39.703125 55.765625 41.0625 55.515625 
z
" id="DejaVuSans-114"/>
      <path d="M 52 44.1875 
Q 55.375 50.25 60.0625 53.125 
Q 64.75 56 71.09375 56 
Q 79.640625 56 84.28125 50.015625 
Q 88.921875 44.046875 88.921875 33.015625 
L 88.921875 0 
L 79.890625 0 
L 79.890625 32.71875 
Q 79.890625 40.578125 77.09375 44.375 
Q 74.3125 48.1875 68.609375 48.1875 
Q 61.625 48.1875 57.5625 43.546875 
Q 53.515625 38.921875 53.515625 30.90625 
L 53.515625 0 
L 44.484375 0 
L 44.484375 32.71875 
Q 44.484375 40.625 41.703125 44.40625 
Q 38.921875 48.1875 33.109375 48.1875 
Q 26.21875 48.1875 22.15625 43.53125 
Q 18.109375 38.875 18.109375 30.90625 
L 18.109375 0 
L 9.078125 0 
L 9.078125 54.6875 
L 18.109375 54.6875 
L 18.109375 46.1875 
Q 21.1875 51.21875 25.484375 53.609375 
Q 29.78125 56 35.6875 56 
Q 41.65625 56 45.828125 52.96875 
Q 50 49.953125 52 44.1875 
z
" id="DejaVuSans-109"/>
      <path d="M 9.421875 54.6875 
L 18.40625 54.6875 
L 18.40625 0 
L 9.421875 0 
z
M 9.421875 75.984375 
L 18.40625 75.984375 
L 18.40625 64.59375 
L 9.421875 64.59375 
z
" id="DejaVuSans-105"/>
      <path d="M 54.890625 33.015625 
L 54.890625 0 
L 45.90625 0 
L 45.90625 32.71875 
Q 45.90625 40.484375 42.875 44.328125 
Q 39.84375 48.1875 33.796875 48.1875 
Q 26.515625 48.1875 22.3125 43.546875 
Q 18.109375 38.921875 18.109375 30.90625 
L 18.109375 0 
L 9.078125 0 
L 9.078125 54.6875 
L 18.109375 54.6875 
L 18.109375 46.1875 
Q 21.34375 51.125 25.703125 53.5625 
Q 30.078125 56 35.796875 56 
Q 45.21875 56 50.046875 50.171875 
Q 54.890625 44.34375 54.890625 33.015625 
z
" id="DejaVuSans-110"/>
      <path d="M 34.28125 27.484375 
Q 23.390625 27.484375 19.1875 25 
Q 14.984375 22.515625 14.984375 16.5 
Q 14.984375 11.71875 18.140625 8.90625 
Q 21.296875 6.109375 26.703125 6.109375 
Q 34.1875 6.109375 38.703125 11.40625 
Q 43.21875 16.703125 43.21875 25.484375 
L 43.21875 27.484375 
z
M 52.203125 31.203125 
L 52.203125 0 
L 43.21875 0 
L 43.21875 8.296875 
Q 40.140625 3.328125 35.546875 0.953125 
Q 30.953125 -1.421875 24.3125 -1.421875 
Q 15.921875 -1.421875 10.953125 3.296875 
Q 6 8.015625 6 15.921875 
Q 6 25.140625 12.171875 29.828125 
Q 18.359375 34.515625 30.609375 34.515625 
L 43.21875 34.515625 
L 43.21875 35.40625 
Q 43.21875 41.609375 39.140625 45 
Q 35.0625 48.390625 27.6875 48.390625 
Q 23 48.390625 18.546875 47.265625 
Q 14.109375 46.140625 10.015625 43.890625 
L 10.015625 52.203125 
Q 14.9375 54.109375 19.578125 55.046875 
Q 24.21875 56 28.609375 56 
Q 40.484375 56 46.34375 49.84375 
Q 52.203125 43.703125 52.203125 31.203125 
z
" id="DejaVuSans-97"/>
      <path d="M 9.421875 75.984375 
L 18.40625 75.984375 
L 18.40625 0 
L 9.421875 0 
z
" id="DejaVuSans-108"/>
     </defs>
     <g transform="translate(385.370916 297.774809)rotate(-61.773032)scale(0.08 -0.08)">
      <use xlink:href="#DejaVuSans-84"/>
      <use x="60.818359" xlink:href="#DejaVuSans-101"/>
      <use x="122.341797" xlink:href="#DejaVuSans-114"/>
      <use x="163.439453" xlink:href="#DejaVuSans-109"/>
      <use x="260.851562" xlink:href="#DejaVuSans-105"/>
      <use x="288.634766" xlink:href="#DejaVuSans-110"/>
      <use x="352.013672" xlink:href="#DejaVuSans-97"/>
      <use x="413.292969" xlink:href="#DejaVuSans-108"/>
     </g>
    </g>
   </g>
   <g id="text_10">
    <g id="patch_11">
     <path clip-path="url(#p13f15ebf7e)" d="M 402.977657 268.607882 
L 419.666246 299.696822 
Q 420.801363 301.811417 422.915957 300.676299 
L 429.737727 297.014364 
Q 431.852321 295.879247 430.717204 293.764652 
L 414.028615 262.675712 
Q 412.893498 260.561117 410.778904 261.696235 
L 403.957134 265.35817 
Q 401.84254 266.493287 402.977657 268.607882 
z
" style="fill:#ffffff;stroke:#ffffff;stroke-linejoin:miter;"/>
    </g>
    <g clip-path="url(#p13f15ebf7e)">
     <!-- Terminal -->
     <g transform="translate(406.55815 266.685868)rotate(-298.226968)scale(0.08 -0.08)">
      <use xlink:href="#DejaVuSans-84"/>
      <use x="60.818359" xlink:href="#DejaVuSans-101"/>
      <use x="122.341797" xlink:href="#DejaVuSans-114"/>
      <use x="163.439453" xlink:href="#DejaVuSans-109"/>
      <use x="260.851562" xlink:href="#DejaVuSans-105"/>
      <use x="288.634766" xlink:href="#DejaVuSans-110"/>
      <use x="352.013672" xlink:href="#DejaVuSans-97"/>
      <use x="413.292969" xlink:href="#DejaVuSans-108"/>
     </g>
    </g>
   </g>
   <g id="text_11">
    <g id="patch_12">
     <path clip-path="url(#p13f15ebf7e)" d="M 506.858211 240.953603 
L 510.925798 237.164878 
Q 512.681985 235.529089 511.046197 233.772901 
L 505.769074 228.107367 
Q 504.133285 226.351179 502.377097 227.986968 
L 498.309511 231.775693 
Q 496.553323 233.411482 498.189112 235.16767 
L 503.466235 240.833204 
Q 505.102024 242.589392 506.858211 240.953603 
z
" style="fill:#ffffff;stroke:#ffffff;stroke-linejoin:miter;"/>
    </g>
    <g clip-path="url(#p13f15ebf7e)">
     <!-- R -->
     <defs>
      <path d="M 44.390625 34.1875 
Q 47.5625 33.109375 50.5625 29.59375 
Q 53.5625 26.078125 56.59375 19.921875 
L 66.609375 0 
L 56 0 
L 46.6875 18.703125 
Q 43.0625 26.03125 39.671875 28.421875 
Q 36.28125 30.8125 30.421875 30.8125 
L 19.671875 30.8125 
L 19.671875 0 
L 9.8125 0 
L 9.8125 72.90625 
L 32.078125 72.90625 
Q 44.578125 72.90625 50.734375 67.671875 
Q 56.890625 62.453125 56.890625 51.90625 
Q 56.890625 45.015625 53.6875 40.46875 
Q 50.484375 35.9375 44.390625 34.1875 
z
M 19.671875 64.796875 
L 19.671875 38.921875 
L 32.078125 38.921875 
Q 39.203125 38.921875 42.84375 42.21875 
Q 46.484375 45.515625 46.484375 51.90625 
Q 46.484375 58.296875 42.84375 61.546875 
Q 39.203125 64.796875 32.078125 64.796875 
z
" id="DejaVuSans-82"/>
     </defs>
     <g transform="translate(504.088446 237.979975)rotate(-42.96713)scale(0.08 -0.08)">
      <use xlink:href="#DejaVuSans-82"/>
     </g>
    </g>
   </g>
   <g id="text_12">
    <g id="patch_13">
     <path clip-path="url(#p13f15ebf7e)" d="M 523.423611 231.67716 
L 523.423611 237.26341 
Q 523.423611 239.66341 525.823611 239.66341 
L 533.566111 239.66341 
Q 535.966111 239.66341 535.966111 237.26341 
L 535.966111 231.67716 
Q 535.966111 229.27716 533.566111 229.27716 
L 525.823611 229.27716 
Q 523.423611 229.27716 523.423611 231.67716 
z
" style="fill:#ffffff;stroke:#ffffff;stroke-linejoin:miter;"/>
    </g>
    <g clip-path="url(#p13f15ebf7e)">
     <!-- C -->
     <g transform="translate(527.487361 231.67716)rotate(-270)scale(0.08 -0.08)">
      <use xlink:href="#DejaVuSans-67"/>
     </g>
    </g>
   </g>
   <g id="text_13">
    <g id="patch_14">
     <path clip-path="url(#p13f15ebf7e)" d="M 548.355535 237.063919 
L 552.639901 241.054562 
Q 554.396088 242.690351 556.031877 240.934163 
L 561.309 235.268629 
Q 562.944789 233.512441 561.188601 231.876652 
L 556.904235 227.886009 
Q 555.148047 226.25022 553.512259 228.006408 
L 548.235136 233.671942 
Q 546.599347 235.42813 548.355535 237.063919 
z
" style="fill:#ffffff;stroke:#ffffff;stroke-linejoin:miter;"/>
    </g>
    <g clip-path="url(#p13f15ebf7e)">
     <!-- U -->
     <g transform="translate(551.1253 234.090291)rotate(-317.03287)scale(0.08 -0.08)">
      <use xlink:href="#DejaVuSans-85"/>
     </g>
    </g>
   </g>
   <g id="text_14">
    <g id="patch_15">
     <path clip-path="url(#p13f15ebf7e)" d="M 473.269197 263.543767 
L 473.269197 298.828767 
Q 473.269197 301.228767 475.669197 301.228767 
L 483.411697 301.228767 
Q 485.811697 301.228767 485.811697 298.828767 
L 485.811697 263.543767 
Q 485.811697 261.143767 483.411697 261.143767 
L 475.669197 261.143767 
Q 473.269197 261.143767 473.269197 263.543767 
z
" style="fill:#ffffff;stroke:#ffffff;stroke-linejoin:miter;"/>
    </g>
    <g clip-path="url(#p13f15ebf7e)">
     <!-- Terminal -->
     <g transform="translate(477.332947 263.543767)rotate(-270)scale(0.08 -0.08)">
      <use xlink:href="#DejaVuSans-84"/>
      <use x="60.818359" xlink:href="#DejaVuSans-101"/>
      <use x="122.341797" xlink:href="#DejaVuSans-114"/>
      <use x="163.439453" xlink:href="#DejaVuSans-109"/>
      <use x="260.851562" xlink:href="#DejaVuSans-105"/>
      <use x="288.634766" xlink:href="#DejaVuSans-110"/>
      <use x="352.013672" xlink:href="#DejaVuSans-97"/>
      <use x="413.292969" xlink:href="#DejaVuSans-108"/>
     </g>
    </g>
   </g>
   <g id="text_15">
    <g id="patch_16">
     <path clip-path="url(#p13f15ebf7e)" d="M 523.423611 263.543767 
L 523.423611 298.828767 
Q 523.423611 301.228767 525.823611 301.228767 
L 533.566111 301.228767 
Q 535.966111 301.228767 535.966111 298.828767 
L 535.966111 263.543767 
Q 535.966111 261.143767 533.566111 261.143767 
L 525.823611 261.143767 
Q 523.423611 261.143767 523.423611 263.543767 
z
" style="fill:#ffffff;stroke:#ffffff;stroke-linejoin:miter;"/>
    </g>
    <g clip-path="url(#p13f15ebf7e)">
     <!-- Terminal -->
     <g transform="translate(527.487361 263.543767)rotate(-270)scale(0.08 -0.08)">
      <use xlink:href="#DejaVuSans-84"/>
      <use x="60.818359" xlink:href="#DejaVuSans-101"/>
      <use x="122.341797" xlink:href="#DejaVuSans-114"/>
      <use x="163.439453" xlink:href="#DejaVuSans-109"/>
      <use x="260.851562" xlink:href="#DejaVuSans-105"/>
      <use x="288.634766" xlink:href="#DejaVuSans-110"/>
      <use x="352.013672" xlink:href="#DejaVuSans-97"/>
      <use x="413.292969" xlink:href="#DejaVuSans-108"/>
     </g>
    </g>
   </g>
   <g id="text_16">
    <g id="patch_17">
     <path clip-path="url(#p13f15ebf7e)" d="M 240.026325 214.910701 
L 244.795507 217.594572 
Q 246.887062 218.771601 248.064091 216.680046 
L 251.861236 209.932602 
Q 253.038265 207.841047 250.94671 206.664018 
L 246.177528 203.980147 
Q 244.085973 202.803118 242.908944 204.894673 
L 239.111799 211.642116 
Q 237.93477 213.733672 240.026325 214.910701 
z
" style="fill:#ffffff;stroke:#ffffff;stroke-linejoin:miter;"/>
    </g>
    <g clip-path="url(#p13f15ebf7e)">
     <!-- A -->
     <g transform="translate(242.019305 211.369218)rotate(-330.631233)scale(0.08 -0.08)">
      <use xlink:href="#DejaVuSans-65"/>
     </g>
    </g>
   </g>
   <g id="text_17">
    <g id="patch_18">
     <path clip-path="url(#p13f15ebf7e)" d="M 96.658749 217.304333 
L 100.60413 214.528989 
Q 102.567108 213.148149 101.186268 211.185172 
L 96.731622 204.852524 
Q 95.350782 202.889546 93.387804 204.270385 
L 89.442424 207.045729 
Q 87.479446 208.426569 88.860285 210.389547 
L 93.314932 216.722195 
Q 94.695772 218.685173 96.658749 217.304333 
z
" style="fill:#ffffff;stroke:#ffffff;stroke-linejoin:miter;"/>
    </g>
    <g clip-path="url(#p13f15ebf7e)">
     <!-- P -->
     <g transform="translate(94.320671 213.980562)rotate(-35.124138)scale(0.08 -0.08)">
      <use xlink:href="#DejaVuSans-80"/>
     </g>
    </g>
   </g>
   <g id="text_18">
    <g id="patch_19">
     <path clip-path="url(#p13f15ebf7e)" d="M 148.723022 193.281399 
L 151.879019 188.810612 
Q 153.263102 186.849919 151.302409 185.465836 
L 144.977134 181.000728 
Q 143.016441 179.616645 141.632358 181.577338 
L 138.476362 186.048125 
Q 137.092279 188.008818 139.052971 189.392901 
L 145.378247 193.858009 
Q 147.33894 195.242092 148.723022 193.281399 
z
" style="fill:#ffffff;stroke:#ffffff;stroke-linejoin:miter;"/>
    </g>
    <g clip-path="url(#p13f15ebf7e)">
     <!-- A -->
     <g transform="translate(145.403121 190.93783)rotate(-54.78115)scale(0.08 -0.08)">
      <use xlink:href="#DejaVuSans-65"/>
     </g>
    </g>
   </g>
   <g id="text_19">
    <g id="patch_20">
     <path clip-path="url(#p13f15ebf7e)" d="M 272.651543 263.543767 
L 272.651543 298.828767 
Q 272.651543 301.228767 275.051543 301.228767 
L 282.794043 301.228767 
Q 285.194043 301.228767 285.194043 298.828767 
L 285.194043 263.543767 
Q 285.194043 261.143767 282.794043 261.143767 
L 275.051543 261.143767 
Q 272.651543 261.143767 272.651543 263.543767 
z
" style="fill:#ffffff;stroke:#ffffff;stroke-linejoin:miter;"/>
    </g>
    <g clip-path="url(#p13f15ebf7e)">
     <!-- Terminal -->
     <g transform="translate(276.715293 263.543767)rotate(-270)scale(0.08 -0.08)">
      <use xlink:href="#DejaVuSans-84"/>
      <use x="60.818359" xlink:href="#DejaVuSans-101"/>
      <use x="122.341797" xlink:href="#DejaVuSans-114"/>
      <use x="163.439453" xlink:href="#DejaVuSans-109"/>
      <use x="260.851562" xlink:href="#DejaVuSans-105"/>
      <use x="288.634766" xlink:href="#DejaVuSans-110"/>
      <use x="352.013672" xlink:href="#DejaVuSans-97"/>
      <use x="413.292969" xlink:href="#DejaVuSans-108"/>
     </g>
    </g>
   </g>
   <g id="text_20">
    <g id="patch_21">
     <path clip-path="url(#p13f15ebf7e)" d="M 322.805957 263.543767 
L 322.805957 298.828767 
Q 322.805957 301.228767 325.205957 301.228767 
L 332.948457 301.228767 
Q 335.348457 301.228767 335.348457 298.828767 
L 335.348457 263.543767 
Q 335.348457 261.143767 332.948457 261.143767 
L 325.205957 261.143767 
Q 322.805957 261.143767 322.805957 263.543767 
z
" style="fill:#ffffff;stroke:#ffffff;stroke-linejoin:miter;"/>
    </g>
    <g clip-path="url(#p13f15ebf7e)">
     <!-- Terminal -->
     <g transform="translate(326.869707 263.543767)rotate(-270)scale(0.08 -0.08)">
      <use xlink:href="#DejaVuSans-84"/>
      <use x="60.818359" xlink:href="#DejaVuSans-101"/>
      <use x="122.341797" xlink:href="#DejaVuSans-114"/>
      <use x="163.439453" xlink:href="#DejaVuSans-109"/>
      <use x="260.851562" xlink:href="#DejaVuSans-105"/>
      <use x="288.634766" xlink:href="#DejaVuSans-110"/>
      <use x="352.013672" xlink:href="#DejaVuSans-97"/>
      <use x="413.292969" xlink:href="#DejaVuSans-108"/>
     </g>
    </g>
   </g>
   <g id="text_21">
    <g id="patch_22">
     <path clip-path="url(#p13f15ebf7e)" d="M 21.879475 263.543767 
L 21.879475 298.828767 
Q 21.879475 301.228767 24.279475 301.228767 
L 32.021975 301.228767 
Q 34.421975 301.228767 34.421975 298.828767 
L 34.421975 263.543767 
Q 34.421975 261.143767 32.021975 261.143767 
L 24.279475 261.143767 
Q 21.879475 261.143767 21.879475 263.543767 
z
" style="fill:#ffffff;stroke:#ffffff;stroke-linejoin:miter;"/>
    </g>
    <g clip-path="url(#p13f15ebf7e)">
     <!-- Terminal -->
     <g transform="translate(25.943225 263.543767)rotate(-270)scale(0.08 -0.08)">
      <use xlink:href="#DejaVuSans-84"/>
      <use x="60.818359" xlink:href="#DejaVuSans-101"/>
      <use x="122.341797" xlink:href="#DejaVuSans-114"/>
      <use x="163.439453" xlink:href="#DejaVuSans-109"/>
      <use x="260.851562" xlink:href="#DejaVuSans-105"/>
      <use x="288.634766" xlink:href="#DejaVuSans-110"/>
      <use x="352.013672" xlink:href="#DejaVuSans-97"/>
      <use x="413.292969" xlink:href="#DejaVuSans-108"/>
     </g>
    </g>
   </g>
   <g id="text_22">
    <g id="patch_23">
     <path clip-path="url(#p13f15ebf7e)" d="M 105.622903 240.953603 
L 109.690489 237.164878 
Q 111.446677 235.529089 109.810888 233.772901 
L 104.533765 228.107367 
Q 102.897976 226.351179 101.141789 227.986968 
L 97.074202 231.775693 
Q 95.318015 233.411482 96.953803 235.16767 
L 102.230926 240.833204 
Q 103.866715 242.589392 105.622903 240.953603 
z
" style="fill:#ffffff;stroke:#ffffff;stroke-linejoin:miter;"/>
    </g>
    <g clip-path="url(#p13f15ebf7e)">
     <!-- R -->
     <g transform="translate(102.853137 237.979975)rotate(-42.96713)scale(0.08 -0.08)">
      <use xlink:href="#DejaVuSans-82"/>
     </g>
    </g>
   </g>
   <g id="text_23">
    <g id="patch_24">
     <path clip-path="url(#p13f15ebf7e)" d="M 122.188303 231.942785 
L 122.188303 236.997785 
Q 122.188303 239.397785 124.588303 239.397785 
L 132.330803 239.397785 
Q 134.730803 239.397785 134.730803 236.997785 
L 134.730803 231.942785 
Q 134.730803 229.542785 132.330803 229.542785 
L 124.588303 229.542785 
Q 122.188303 229.542785 122.188303 231.942785 
z
" style="fill:#ffffff;stroke:#ffffff;stroke-linejoin:miter;"/>
    </g>
    <g clip-path="url(#p13f15ebf7e)">
     <!-- E -->
     <g transform="translate(126.252053 231.942785)rotate(-270)scale(0.08 -0.08)">
      <use xlink:href="#DejaVuSans-69"/>
     </g>
    </g>
   </g>
   <g id="text_24">
    <g id="patch_25">
     <path clip-path="url(#p13f15ebf7e)" d="M 147.218554 237.155506 
L 151.306264 240.962975 
Q 153.062452 242.598764 154.69824 240.842576 
L 159.975363 235.177041 
Q 161.611152 233.420854 159.854964 231.785065 
L 155.767255 227.977596 
Q 154.011067 226.341807 152.375278 228.097995 
L 147.098155 233.763529 
Q 145.462367 235.519717 147.218554 237.155506 
z
" style="fill:#ffffff;stroke:#ffffff;stroke-linejoin:miter;"/>
    </g>
    <g clip-path="url(#p13f15ebf7e)">
     <!-- C -->
     <g transform="translate(149.98832 234.181878)rotate(-317.03287)scale(0.08 -0.08)">
      <use xlink:href="#DejaVuSans-67"/>
     </g>
    </g>
   </g>
   <g id="text_25">
    <g id="patch_26">
     <path clip-path="url(#p13f15ebf7e)" d="M 72.033889 263.543767 
L 72.033889 298.828767 
Q 72.033889 301.228767 74.433889 301.228767 
L 82.176389 301.228767 
Q 84.576389 301.228767 84.576389 298.828767 
L 84.576389 263.543767 
Q 84.576389 261.143767 82.176389 261.143767 
L 74.433889 261.143767 
Q 72.033889 261.143767 72.033889 263.543767 
z
" style="fill:#ffffff;stroke:#ffffff;stroke-linejoin:miter;"/>
    </g>
    <g clip-path="url(#p13f15ebf7e)">
     <!-- Terminal -->
     <g transform="translate(76.097639 263.543767)rotate(-270)scale(0.08 -0.08)">
      <use xlink:href="#DejaVuSans-84"/>
      <use x="60.818359" xlink:href="#DejaVuSans-101"/>
      <use x="122.341797" xlink:href="#DejaVuSans-114"/>
      <use x="163.439453" xlink:href="#DejaVuSans-109"/>
      <use x="260.851562" xlink:href="#DejaVuSans-105"/>
      <use x="288.634766" xlink:href="#DejaVuSans-110"/>
      <use x="352.013672" xlink:href="#DejaVuSans-97"/>
      <use x="413.292969" xlink:href="#DejaVuSans-108"/>
     </g>
    </g>
   </g>
   <g id="text_26">
    <g id="patch_27">
     <path clip-path="url(#p13f15ebf7e)" d="M 122.188303 263.543767 
L 122.188303 298.828767 
Q 122.188303 301.228767 124.588303 301.228767 
L 132.330803 301.228767 
Q 134.730803 301.228767 134.730803 298.828767 
L 134.730803 263.543767 
Q 134.730803 261.143767 132.330803 261.143767 
L 124.588303 261.143767 
Q 122.188303 261.143767 122.188303 263.543767 
z
" style="fill:#ffffff;stroke:#ffffff;stroke-linejoin:miter;"/>
    </g>
    <g clip-path="url(#p13f15ebf7e)">
     <!-- Terminal -->
     <g transform="translate(126.252053 263.543767)rotate(-270)scale(0.08 -0.08)">
      <use xlink:href="#DejaVuSans-84"/>
      <use x="60.818359" xlink:href="#DejaVuSans-101"/>
      <use x="122.341797" xlink:href="#DejaVuSans-114"/>
      <use x="163.439453" xlink:href="#DejaVuSans-109"/>
      <use x="260.851562" xlink:href="#DejaVuSans-105"/>
      <use x="288.634766" xlink:href="#DejaVuSans-110"/>
      <use x="352.013672" xlink:href="#DejaVuSans-97"/>
      <use x="413.292969" xlink:href="#DejaVuSans-108"/>
     </g>
    </g>
   </g>
   <g id="text_27">
    <g id="patch_28">
     <path clip-path="url(#p13f15ebf7e)" d="M 172.342716 263.543767 
L 172.342716 298.828767 
Q 172.342716 301.228767 174.742716 301.228767 
L 182.485216 301.228767 
Q 184.885216 301.228767 184.885216 298.828767 
L 184.885216 263.543767 
Q 184.885216 261.143767 182.485216 261.143767 
L 174.742716 261.143767 
Q 172.342716 261.143767 172.342716 263.543767 
z
" style="fill:#ffffff;stroke:#ffffff;stroke-linejoin:miter;"/>
    </g>
    <g clip-path="url(#p13f15ebf7e)">
     <!-- Terminal -->
     <g transform="translate(176.406466 263.543767)rotate(-270)scale(0.08 -0.08)">
      <use xlink:href="#DejaVuSans-84"/>
      <use x="60.818359" xlink:href="#DejaVuSans-101"/>
      <use x="122.341797" xlink:href="#DejaVuSans-114"/>
      <use x="163.439453" xlink:href="#DejaVuSans-109"/>
      <use x="260.851562" xlink:href="#DejaVuSans-105"/>
      <use x="288.634766" xlink:href="#DejaVuSans-110"/>
      <use x="352.013672" xlink:href="#DejaVuSans-97"/>
      <use x="413.292969" xlink:href="#DejaVuSans-108"/>
     </g>
    </g>
   </g>
   <g id="text_28">
    <g id="patch_29">
     <path clip-path="url(#p13f15ebf7e)" d="M 222.49713 263.543767 
L 222.49713 298.828767 
Q 222.49713 301.228767 224.89713 301.228767 
L 232.63963 301.228767 
Q 235.03963 301.228767 235.03963 298.828767 
L 235.03963 263.543767 
Q 235.03963 261.143767 232.63963 261.143767 
L 224.89713 261.143767 
Q 222.49713 261.143767 222.49713 263.543767 
z
" style="fill:#ffffff;stroke:#ffffff;stroke-linejoin:miter;"/>
    </g>
    <g clip-path="url(#p13f15ebf7e)">
     <!-- Terminal -->
     <g transform="translate(226.56088 263.543767)rotate(-270)scale(0.08 -0.08)">
      <use xlink:href="#DejaVuSans-84"/>
      <use x="60.818359" xlink:href="#DejaVuSans-101"/>
      <use x="122.341797" xlink:href="#DejaVuSans-114"/>
      <use x="163.439453" xlink:href="#DejaVuSans-109"/>
      <use x="260.851562" xlink:href="#DejaVuSans-105"/>
      <use x="288.634766" xlink:href="#DejaVuSans-110"/>
      <use x="352.013672" xlink:href="#DejaVuSans-97"/>
      <use x="413.292969" xlink:href="#DejaVuSans-108"/>
     </g>
    </g>
   </g>
   <g id="text_29">
    <g id="patch_30">
     <path clip-path="url(#p13f15ebf7e)" d="M 573.578025 263.543767 
L 573.578025 298.828767 
Q 573.578025 301.228767 575.978025 301.228767 
L 583.720525 301.228767 
Q 586.120525 301.228767 586.120525 298.828767 
L 586.120525 263.543767 
Q 586.120525 261.143767 583.720525 261.143767 
L 575.978025 261.143767 
Q 573.578025 261.143767 573.578025 263.543767 
z
" style="fill:#ffffff;stroke:#ffffff;stroke-linejoin:miter;"/>
    </g>
    <g clip-path="url(#p13f15ebf7e)">
     <!-- Terminal -->
     <g transform="translate(577.641775 263.543767)rotate(-270)scale(0.08 -0.08)">
      <use xlink:href="#DejaVuSans-84"/>
      <use x="60.818359" xlink:href="#DejaVuSans-101"/>
      <use x="122.341797" xlink:href="#DejaVuSans-114"/>
      <use x="163.439453" xlink:href="#DejaVuSans-109"/>
      <use x="260.851562" xlink:href="#DejaVuSans-105"/>
      <use x="288.634766" xlink:href="#DejaVuSans-110"/>
      <use x="352.013672" xlink:href="#DejaVuSans-97"/>
      <use x="413.292969" xlink:href="#DejaVuSans-108"/>
     </g>
    </g>
   </g>
   <g id="PathCollection_1">
    <defs>
     <path d="M 0 8.660254 
C 2.296726 8.660254 4.499694 7.747755 6.123724 6.123724 
C 7.747755 4.499694 8.660254 2.296726 8.660254 0 
C 8.660254 -2.296726 7.747755 -4.499694 6.123724 -6.123724 
C 4.499694 -7.747755 2.296726 -8.660254 0 -8.660254 
C -2.296726 -8.660254 -4.499694 -7.747755 -6.123724 -6.123724 
C -7.747755 -4.499694 -8.660254 -2.296726 -8.660254 0 
C -8.660254 2.296726 -7.747755 4.499694 -6.123724 6.123724 
C -4.499694 7.747755 -2.296726 8.660254 0 8.660254 
z
" id="C0_0_637ac28d30"/>
    </defs>
    <g clip-path="url(#p13f15ebf7e)">
     <use style="fill:#ffffff;stroke:#ffffff;" x="28.150725" xlink:href="#C0_0_637ac28d30" y="304.544258"/>
    </g>
    <g clip-path="url(#p13f15ebf7e)">
     <use style="fill:#ffffff;stroke:#ffffff;" x="78.305139" xlink:href="#C0_0_637ac28d30" y="304.544258"/>
    </g>
    <g clip-path="url(#p13f15ebf7e)">
     <use style="fill:#ffffff;stroke:#ffffff;" x="128.459553" xlink:href="#C0_0_637ac28d30" y="304.544258"/>
    </g>
    <g clip-path="url(#p13f15ebf7e)">
     <use style="fill:#ffffff;stroke:#ffffff;" x="178.613966" xlink:href="#C0_0_637ac28d30" y="304.544258"/>
    </g>
    <g clip-path="url(#p13f15ebf7e)">
     <use style="fill:#ffffff;stroke:#ffffff;" x="228.76838" xlink:href="#C0_0_637ac28d30" y="304.544258"/>
    </g>
    <g clip-path="url(#p13f15ebf7e)">
     <use style="fill:#ffffff;stroke:#ffffff;" x="278.922793" xlink:href="#C0_0_637ac28d30" y="304.544258"/>
    </g>
    <g clip-path="url(#p13f15ebf7e)">
     <use style="fill:#ffffff;stroke:#ffffff;" x="329.077207" xlink:href="#C0_0_637ac28d30" y="304.544258"/>
    </g>
    <g clip-path="url(#p13f15ebf7e)">
     <use style="fill:#ffffff;stroke:#ffffff;" x="379.23162" xlink:href="#C0_0_637ac28d30" y="304.544258"/>
    </g>
    <g clip-path="url(#p13f15ebf7e)">
     <use style="fill:#ffffff;stroke:#ffffff;" x="429.386034" xlink:href="#C0_0_637ac28d30" y="304.544258"/>
    </g>
    <g clip-path="url(#p13f15ebf7e)">
     <use style="fill:#ffffff;stroke:#ffffff;" x="479.540447" xlink:href="#C0_0_637ac28d30" y="304.544258"/>
    </g>
    <g clip-path="url(#p13f15ebf7e)">
     <use style="fill:#ffffff;stroke:#ffffff;" x="529.694861" xlink:href="#C0_0_637ac28d30" y="304.544258"/>
    </g>
    <g clip-path="url(#p13f15ebf7e)">
     <use style="fill:#ffffff;stroke:#ffffff;" x="579.849275" xlink:href="#C0_0_637ac28d30" y="304.544258"/>
    </g>
    <g clip-path="url(#p13f15ebf7e)">
     <use style="fill:#ffffff;stroke:#ffffff;" x="394.55658" xlink:href="#C0_0_637ac28d30" y="15.455742"/>
    </g>
    <g clip-path="url(#p13f15ebf7e)">
     <use style="fill:#ffffff;stroke:#ffffff;" x="394.55658" xlink:href="#C0_0_637ac28d30" y="66.090584"/>
    </g>
    <g clip-path="url(#p13f15ebf7e)">
     <use style="fill:#ffffff;stroke:#ffffff;" x="249.666052" xlink:href="#C0_0_637ac28d30" y="115.468525"/>
    </g>
    <g clip-path="url(#p13f15ebf7e)">
     <use style="fill:#ffffff;stroke:#ffffff;" x="404.308827" xlink:href="#C0_0_637ac28d30" y="257.828276"/>
    </g>
    <g clip-path="url(#p13f15ebf7e)">
     <use style="fill:#ffffff;stroke:#ffffff;" x="529.694861" xlink:href="#C0_0_637ac28d30" y="211.112295"/>
    </g>
    <g clip-path="url(#p13f15ebf7e)">
     <use style="fill:#ffffff;stroke:#ffffff;" x="479.540447" xlink:href="#C0_0_637ac28d30" y="257.828276"/>
    </g>
    <g clip-path="url(#p13f15ebf7e)">
     <use style="fill:#ffffff;stroke:#ffffff;" x="529.694861" xlink:href="#C0_0_637ac28d30" y="257.828276"/>
    </g>
    <g clip-path="url(#p13f15ebf7e)">
     <use style="fill:#ffffff;stroke:#ffffff;" x="161.895828" xlink:href="#C0_0_637ac28d30" y="163.746442"/>
    </g>
    <g clip-path="url(#p13f15ebf7e)">
     <use style="fill:#ffffff;stroke:#ffffff;" x="278.922793" xlink:href="#C0_0_637ac28d30" y="257.828276"/>
    </g>
    <g clip-path="url(#p13f15ebf7e)">
     <use style="fill:#ffffff;stroke:#ffffff;" x="329.077207" xlink:href="#C0_0_637ac28d30" y="257.828276"/>
    </g>
    <g clip-path="url(#p13f15ebf7e)">
     <use style="fill:#ffffff;stroke:#ffffff;" x="28.150725" xlink:href="#C0_0_637ac28d30" y="257.828276"/>
    </g>
    <g clip-path="url(#p13f15ebf7e)">
     <use style="fill:#ffffff;stroke:#ffffff;" x="128.459553" xlink:href="#C0_0_637ac28d30" y="211.112295"/>
    </g>
    <g clip-path="url(#p13f15ebf7e)">
     <use style="fill:#ffffff;stroke:#ffffff;" x="78.305139" xlink:href="#C0_0_637ac28d30" y="257.828276"/>
    </g>
    <g clip-path="url(#p13f15ebf7e)">
     <use style="fill:#ffffff;stroke:#ffffff;" x="128.459553" xlink:href="#C0_0_637ac28d30" y="257.828276"/>
    </g>
    <g clip-path="url(#p13f15ebf7e)">
     <use style="fill:#ffffff;stroke:#ffffff;" x="178.613966" xlink:href="#C0_0_637ac28d30" y="257.828276"/>
    </g>
    <g clip-path="url(#p13f15ebf7e)">
     <use style="fill:#ffffff;stroke:#ffffff;" x="228.76838" xlink:href="#C0_0_637ac28d30" y="257.828276"/>
    </g>
    <g clip-path="url(#p13f15ebf7e)">
     <use style="fill:#ffffff;stroke:#ffffff;" x="579.849275" xlink:href="#C0_0_637ac28d30" y="257.828276"/>
    </g>
   </g>
   <g id="text_30">
    <g clip-path="url(#p13f15ebf7e)">
     <!-- Departing -->
     <defs>
      <path d="M 18.109375 8.203125 
L 18.109375 -20.796875 
L 9.078125 -20.796875 
L 9.078125 54.6875 
L 18.109375 54.6875 
L 18.109375 46.390625 
Q 20.953125 51.265625 25.265625 53.625 
Q 29.59375 56 35.59375 56 
Q 45.5625 56 51.78125 48.09375 
Q 58.015625 40.1875 58.015625 27.296875 
Q 58.015625 14.40625 51.78125 6.484375 
Q 45.5625 -1.421875 35.59375 -1.421875 
Q 29.59375 -1.421875 25.265625 0.953125 
Q 20.953125 3.328125 18.109375 8.203125 
z
M 48.6875 27.296875 
Q 48.6875 37.203125 44.609375 42.84375 
Q 40.53125 48.484375 33.40625 48.484375 
Q 26.265625 48.484375 22.1875 42.84375 
Q 18.109375 37.203125 18.109375 27.296875 
Q 18.109375 17.390625 22.1875 11.75 
Q 26.265625 6.109375 33.40625 6.109375 
Q 40.53125 6.109375 44.609375 11.75 
Q 48.6875 17.390625 48.6875 27.296875 
z
" id="DejaVuSans-112"/>
      <path d="M 18.3125 70.21875 
L 18.3125 54.6875 
L 36.8125 54.6875 
L 36.8125 47.703125 
L 18.3125 47.703125 
L 18.3125 18.015625 
Q 18.3125 11.328125 20.140625 9.421875 
Q 21.96875 7.515625 27.59375 7.515625 
L 36.8125 7.515625 
L 36.8125 0 
L 27.59375 0 
Q 17.1875 0 13.234375 3.875 
Q 9.28125 7.765625 9.28125 18.015625 
L 9.28125 47.703125 
L 2.6875 47.703125 
L 2.6875 54.6875 
L 9.28125 54.6875 
L 9.28125 70.21875 
z
" id="DejaVuSans-116"/>
      <path d="M 45.40625 27.984375 
Q 45.40625 37.75 41.375 43.109375 
Q 37.359375 48.484375 30.078125 48.484375 
Q 22.859375 48.484375 18.828125 43.109375 
Q 14.796875 37.75 14.796875 27.984375 
Q 14.796875 18.265625 18.828125 12.890625 
Q 22.859375 7.515625 30.078125 7.515625 
Q 37.359375 7.515625 41.375 12.890625 
Q 45.40625 18.265625 45.40625 27.984375 
z
M 54.390625 6.78125 
Q 54.390625 -7.171875 48.1875 -13.984375 
Q 42 -20.796875 29.203125 -20.796875 
Q 24.46875 -20.796875 20.265625 -20.09375 
Q 16.0625 -19.390625 12.109375 -17.921875 
L 12.109375 -9.1875 
Q 16.0625 -11.328125 19.921875 -12.34375 
Q 23.78125 -13.375 27.78125 -13.375 
Q 36.625 -13.375 41.015625 -8.765625 
Q 45.40625 -4.15625 45.40625 5.171875 
L 45.40625 9.625 
Q 42.625 4.78125 38.28125 2.390625 
Q 33.9375 0 27.875 0 
Q 17.828125 0 11.671875 7.65625 
Q 5.515625 15.328125 5.515625 27.984375 
Q 5.515625 40.671875 11.671875 48.328125 
Q 17.828125 56 27.875 56 
Q 33.9375 56 38.28125 53.609375 
Q 42.625 51.21875 45.40625 46.390625 
L 45.40625 54.6875 
L 54.390625 54.6875 
z
" id="DejaVuSans-103"/>
     </defs>
     <g transform="translate(3.238225 307.303633)scale(0.1 -0.1)">
      <use xlink:href="#DejaVuSans-68"/>
      <use x="77.001953" xlink:href="#DejaVuSans-101"/>
      <use x="138.525391" xlink:href="#DejaVuSans-112"/>
      <use x="202.001953" xlink:href="#DejaVuSans-97"/>
      <use x="263.28125" xlink:href="#DejaVuSans-114"/>
      <use x="304.394531" xlink:href="#DejaVuSans-116"/>
      <use x="343.603516" xlink:href="#DejaVuSans-105"/>
      <use x="371.386719" xlink:href="#DejaVuSans-110"/>
      <use x="434.765625" xlink:href="#DejaVuSans-103"/>
     </g>
    </g>
   </g>
   <g id="text_31">
    <g clip-path="url(#p13f15ebf7e)">
     <!-- from -->
     <defs>
      <path d="M 37.109375 75.984375 
L 37.109375 68.5 
L 28.515625 68.5 
Q 23.6875 68.5 21.796875 66.546875 
Q 19.921875 64.59375 19.921875 59.515625 
L 19.921875 54.6875 
L 34.71875 54.6875 
L 34.71875 47.703125 
L 19.921875 47.703125 
L 19.921875 0 
L 10.890625 0 
L 10.890625 47.703125 
L 2.296875 47.703125 
L 2.296875 54.6875 
L 10.890625 54.6875 
L 10.890625 58.5 
Q 10.890625 67.625 15.140625 71.796875 
Q 19.390625 75.984375 28.609375 75.984375 
z
" id="DejaVuSans-102"/>
      <path d="M 30.609375 48.390625 
Q 23.390625 48.390625 19.1875 42.75 
Q 14.984375 37.109375 14.984375 27.296875 
Q 14.984375 17.484375 19.15625 11.84375 
Q 23.34375 6.203125 30.609375 6.203125 
Q 37.796875 6.203125 41.984375 11.859375 
Q 46.1875 17.53125 46.1875 27.296875 
Q 46.1875 37.015625 41.984375 42.703125 
Q 37.796875 48.390625 30.609375 48.390625 
z
M 30.609375 56 
Q 42.328125 56 49.015625 48.375 
Q 55.71875 40.765625 55.71875 27.296875 
Q 55.71875 13.875 49.015625 6.21875 
Q 42.328125 -1.421875 30.609375 -1.421875 
Q 18.84375 -1.421875 12.171875 6.21875 
Q 5.515625 13.875 5.515625 27.296875 
Q 5.515625 40.765625 12.171875 48.375 
Q 18.84375 56 30.609375 56 
z
" id="DejaVuSans-111"/>
     </defs>
     <g transform="translate(66.561389 307.303633)scale(0.1 -0.1)">
      <use xlink:href="#DejaVuSans-102"/>
      <use x="35.205078" xlink:href="#DejaVuSans-114"/>
      <use x="76.287109" xlink:href="#DejaVuSans-111"/>
      <use x="137.46875" xlink:href="#DejaVuSans-109"/>
     </g>
    </g>
   </g>
   <g id="text_32">
    <g clip-path="url(#p13f15ebf7e)">
     <!-- 500,000 -->
     <defs>
      <path d="M 10.796875 72.90625 
L 49.515625 72.90625 
L 49.515625 64.59375 
L 19.828125 64.59375 
L 19.828125 46.734375 
Q 21.96875 47.46875 24.109375 47.828125 
Q 26.265625 48.1875 28.421875 48.1875 
Q 40.625 48.1875 47.75 41.5 
Q 54.890625 34.8125 54.890625 23.390625 
Q 54.890625 11.625 47.5625 5.09375 
Q 40.234375 -1.421875 26.90625 -1.421875 
Q 22.3125 -1.421875 17.546875 -0.640625 
Q 12.796875 0.140625 7.71875 1.703125 
L 7.71875 11.625 
Q 12.109375 9.234375 16.796875 8.0625 
Q 21.484375 6.890625 26.703125 6.890625 
Q 35.15625 6.890625 40.078125 11.328125 
Q 45.015625 15.765625 45.015625 23.390625 
Q 45.015625 31 40.078125 35.4375 
Q 35.15625 39.890625 26.703125 39.890625 
Q 22.75 39.890625 18.8125 39.015625 
Q 14.890625 38.140625 10.796875 36.28125 
z
" id="DejaVuSans-53"/>
      <path d="M 31.78125 66.40625 
Q 24.171875 66.40625 20.328125 58.90625 
Q 16.5 51.421875 16.5 36.375 
Q 16.5 21.390625 20.328125 13.890625 
Q 24.171875 6.390625 31.78125 6.390625 
Q 39.453125 6.390625 43.28125 13.890625 
Q 47.125 21.390625 47.125 36.375 
Q 47.125 51.421875 43.28125 58.90625 
Q 39.453125 66.40625 31.78125 66.40625 
z
M 31.78125 74.21875 
Q 44.046875 74.21875 50.515625 64.515625 
Q 56.984375 54.828125 56.984375 36.375 
Q 56.984375 17.96875 50.515625 8.265625 
Q 44.046875 -1.421875 31.78125 -1.421875 
Q 19.53125 -1.421875 13.0625 8.265625 
Q 6.59375 17.96875 6.59375 36.375 
Q 6.59375 54.828125 13.0625 64.515625 
Q 19.53125 74.21875 31.78125 74.21875 
z
" id="DejaVuSans-48"/>
      <path d="M 11.71875 12.40625 
L 22.015625 12.40625 
L 22.015625 4 
L 14.015625 -11.625 
L 7.71875 -11.625 
L 11.71875 4 
z
" id="DejaVuSans-44"/>
     </defs>
     <g transform="translate(107.78299 307.303633)scale(0.1 -0.1)">
      <use xlink:href="#DejaVuSans-53"/>
      <use x="63.623047" xlink:href="#DejaVuSans-48"/>
      <use x="127.246094" xlink:href="#DejaVuSans-48"/>
      <use x="190.869141" xlink:href="#DejaVuSans-44"/>
      <use x="222.65625" xlink:href="#DejaVuSans-48"/>
      <use x="286.279297" xlink:href="#DejaVuSans-48"/>
      <use x="349.902344" xlink:href="#DejaVuSans-48"/>
     </g>
    </g>
   </g>
   <g id="text_33">
    <g clip-path="url(#p13f15ebf7e)">
     <!-- throats -->
     <defs>
      <path d="M 54.890625 33.015625 
L 54.890625 0 
L 45.90625 0 
L 45.90625 32.71875 
Q 45.90625 40.484375 42.875 44.328125 
Q 39.84375 48.1875 33.796875 48.1875 
Q 26.515625 48.1875 22.3125 43.546875 
Q 18.109375 38.921875 18.109375 30.90625 
L 18.109375 0 
L 9.078125 0 
L 9.078125 75.984375 
L 18.109375 75.984375 
L 18.109375 46.1875 
Q 21.34375 51.125 25.703125 53.5625 
Q 30.078125 56 35.796875 56 
Q 45.21875 56 50.046875 50.171875 
Q 54.890625 44.34375 54.890625 33.015625 
z
" id="DejaVuSans-104"/>
      <path d="M 44.28125 53.078125 
L 44.28125 44.578125 
Q 40.484375 46.53125 36.375 47.5 
Q 32.28125 48.484375 27.875 48.484375 
Q 21.1875 48.484375 17.84375 46.4375 
Q 14.5 44.390625 14.5 40.28125 
Q 14.5 37.15625 16.890625 35.375 
Q 19.28125 33.59375 26.515625 31.984375 
L 29.59375 31.296875 
Q 39.15625 29.25 43.1875 25.515625 
Q 47.21875 21.78125 47.21875 15.09375 
Q 47.21875 7.46875 41.1875 3.015625 
Q 35.15625 -1.421875 24.609375 -1.421875 
Q 20.21875 -1.421875 15.453125 -0.5625 
Q 10.6875 0.296875 5.421875 2 
L 5.421875 11.28125 
Q 10.40625 8.6875 15.234375 7.390625 
Q 20.0625 6.109375 24.8125 6.109375 
Q 31.15625 6.109375 34.5625 8.28125 
Q 37.984375 10.453125 37.984375 14.40625 
Q 37.984375 18.0625 35.515625 20.015625 
Q 33.0625 21.96875 24.703125 23.78125 
L 21.578125 24.515625 
Q 13.234375 26.265625 9.515625 29.90625 
Q 5.8125 33.546875 5.8125 39.890625 
Q 5.8125 47.609375 11.28125 51.796875 
Q 16.75 56 26.8125 56 
Q 31.78125 56 36.171875 55.265625 
Q 40.578125 54.546875 44.28125 53.078125 
z
" id="DejaVuSans-115"/>
     </defs>
     <g transform="translate(160.742872 307.303633)scale(0.1 -0.1)">
      <use xlink:href="#DejaVuSans-116"/>
      <use x="39.208984" xlink:href="#DejaVuSans-104"/>
      <use x="102.587891" xlink:href="#DejaVuSans-114"/>
      <use x="143.669922" xlink:href="#DejaVuSans-111"/>
      <use x="204.851562" xlink:href="#DejaVuSans-97"/>
      <use x="266.130859" xlink:href="#DejaVuSans-116"/>
      <use x="305.339844" xlink:href="#DejaVuSans-115"/>
     </g>
    </g>
   </g>
   <g id="text_34">
    <g clip-path="url(#p13f15ebf7e)">
     <!-- , -->
     <g transform="translate(227.179317 307.303633)scale(0.1 -0.1)">
      <use xlink:href="#DejaVuSans-44"/>
     </g>
    </g>
   </g>
   <g id="text_35">
    <g clip-path="url(#p13f15ebf7e)">
     <!-- three -->
     <g transform="translate(265.586856 307.303633)scale(0.1 -0.1)">
      <use xlink:href="#DejaVuSans-116"/>
      <use x="39.208984" xlink:href="#DejaVuSans-104"/>
      <use x="102.587891" xlink:href="#DejaVuSans-114"/>
      <use x="143.669922" xlink:href="#DejaVuSans-101"/>
      <use x="205.193359" xlink:href="#DejaVuSans-101"/>
     </g>
    </g>
   </g>
   <g id="text_36">
    <g clip-path="url(#p13f15ebf7e)">
     <!-- cheers -->
     <defs>
      <path d="M 48.78125 52.59375 
L 48.78125 44.1875 
Q 44.96875 46.296875 41.140625 47.34375 
Q 37.3125 48.390625 33.40625 48.390625 
Q 24.65625 48.390625 19.8125 42.84375 
Q 14.984375 37.3125 14.984375 27.296875 
Q 14.984375 17.28125 19.8125 11.734375 
Q 24.65625 6.203125 33.40625 6.203125 
Q 37.3125 6.203125 41.140625 7.25 
Q 44.96875 8.296875 48.78125 10.40625 
L 48.78125 2.09375 
Q 45.015625 0.34375 40.984375 -0.53125 
Q 36.96875 -1.421875 32.421875 -1.421875 
Q 20.0625 -1.421875 12.78125 6.34375 
Q 5.515625 14.109375 5.515625 27.296875 
Q 5.515625 40.671875 12.859375 48.328125 
Q 20.21875 56 33.015625 56 
Q 37.15625 56 41.109375 55.140625 
Q 45.0625 54.296875 48.78125 52.59375 
z
" id="DejaVuSans-99"/>
     </defs>
     <g transform="translate(312.345957 307.303633)scale(0.1 -0.1)">
      <use xlink:href="#DejaVuSans-99"/>
      <use x="54.980469" xlink:href="#DejaVuSans-104"/>
      <use x="118.359375" xlink:href="#DejaVuSans-101"/>
      <use x="179.882812" xlink:href="#DejaVuSans-101"/>
      <use x="241.40625" xlink:href="#DejaVuSans-114"/>
      <use x="282.519531" xlink:href="#DejaVuSans-115"/>
     </g>
    </g>
   </g>
   <g id="text_37">
    <g clip-path="url(#p13f15ebf7e)">
     <!-- burst -->
     <defs>
      <path d="M 48.6875 27.296875 
Q 48.6875 37.203125 44.609375 42.84375 
Q 40.53125 48.484375 33.40625 48.484375 
Q 26.265625 48.484375 22.1875 42.84375 
Q 18.109375 37.203125 18.109375 27.296875 
Q 18.109375 17.390625 22.1875 11.75 
Q 26.265625 6.109375 33.40625 6.109375 
Q 40.53125 6.109375 44.609375 11.75 
Q 48.6875 17.390625 48.6875 27.296875 
z
M 18.109375 46.390625 
Q 20.953125 51.265625 25.265625 53.625 
Q 29.59375 56 35.59375 56 
Q 45.5625 56 51.78125 48.09375 
Q 58.015625 40.1875 58.015625 27.296875 
Q 58.015625 14.40625 51.78125 6.484375 
Q 45.5625 -1.421875 35.59375 -1.421875 
Q 29.59375 -1.421875 25.265625 0.953125 
Q 20.953125 3.328125 18.109375 8.203125 
L 18.109375 0 
L 9.078125 0 
L 9.078125 75.984375 
L 18.109375 75.984375 
z
" id="DejaVuSans-98"/>
      <path d="M 8.5 21.578125 
L 8.5 54.6875 
L 17.484375 54.6875 
L 17.484375 21.921875 
Q 17.484375 14.15625 20.5 10.265625 
Q 23.53125 6.390625 29.59375 6.390625 
Q 36.859375 6.390625 41.078125 11.03125 
Q 45.3125 15.671875 45.3125 23.6875 
L 45.3125 54.6875 
L 54.296875 54.6875 
L 54.296875 0 
L 45.3125 0 
L 45.3125 8.40625 
Q 42.046875 3.421875 37.71875 1 
Q 33.40625 -1.421875 27.6875 -1.421875 
Q 18.265625 -1.421875 13.375 4.4375 
Q 8.5 10.296875 8.5 21.578125 
z
M 31.109375 56 
z
" id="DejaVuSans-117"/>
     </defs>
     <g transform="translate(366.268339 307.303633)scale(0.1 -0.1)">
      <use xlink:href="#DejaVuSans-98"/>
      <use x="63.476562" xlink:href="#DejaVuSans-117"/>
      <use x="126.855469" xlink:href="#DejaVuSans-114"/>
      <use x="167.96875" xlink:href="#DejaVuSans-115"/>
      <use x="220.068359" xlink:href="#DejaVuSans-116"/>
     </g>
    </g>
   </g>
   <g id="text_38">
    <g clip-path="url(#p13f15ebf7e)">
     <!-- forth -->
     <g transform="translate(417.382128 307.303633)scale(0.1 -0.1)">
      <use xlink:href="#DejaVuSans-102"/>
      <use x="35.205078" xlink:href="#DejaVuSans-111"/>
      <use x="96.386719" xlink:href="#DejaVuSans-114"/>
      <use x="137.5" xlink:href="#DejaVuSans-116"/>
      <use x="176.708984" xlink:href="#DejaVuSans-104"/>
     </g>
    </g>
   </g>
   <g id="text_39">
    <g clip-path="url(#p13f15ebf7e)">
     <!-- in -->
     <g transform="translate(474.982635 307.303633)scale(0.1 -0.1)">
      <use xlink:href="#DejaVuSans-105"/>
      <use x="27.783203" xlink:href="#DejaVuSans-110"/>
     </g>
    </g>
   </g>
   <g id="text_40">
    <g clip-path="url(#p13f15ebf7e)">
     <!-- succession -->
     <g transform="translate(502.519861 307.303633)scale(0.1 -0.1)">
      <use xlink:href="#DejaVuSans-115"/>
      <use x="52.099609" xlink:href="#DejaVuSans-117"/>
      <use x="115.478516" xlink:href="#DejaVuSans-99"/>
      <use x="170.458984" xlink:href="#DejaVuSans-99"/>
      <use x="225.439453" xlink:href="#DejaVuSans-101"/>
      <use x="286.962891" xlink:href="#DejaVuSans-115"/>
      <use x="339.0625" xlink:href="#DejaVuSans-115"/>
      <use x="391.162109" xlink:href="#DejaVuSans-105"/>
      <use x="418.945312" xlink:href="#DejaVuSans-111"/>
      <use x="480.126953" xlink:href="#DejaVuSans-110"/>
     </g>
    </g>
   </g>
   <g id="text_41">
    <g clip-path="url(#p13f15ebf7e)">
     <!-- . -->
     <defs>
      <path d="M 10.6875 12.40625 
L 21 12.40625 
L 21 0 
L 10.6875 0 
z
" id="DejaVuSans-46"/>
     </defs>
     <g transform="translate(578.260212 307.303633)scale(0.1 -0.1)">
      <use xlink:href="#DejaVuSans-46"/>
     </g>
    </g>
   </g>
   <g id="text_42">
    <g clip-path="url(#p13f15ebf7e)">
     <!-- 1.1 -->
     <defs>
      <path d="M 12.40625 8.296875 
L 28.515625 8.296875 
L 28.515625 63.921875 
L 10.984375 60.40625 
L 10.984375 69.390625 
L 28.421875 72.90625 
L 38.28125 72.90625 
L 38.28125 8.296875 
L 54.390625 8.296875 
L 54.390625 0 
L 12.40625 0 
z
" id="DejaVuSans-49"/>
     </defs>
     <g transform="translate(386.605018 18.215117)scale(0.1 -0.1)">
      <use xlink:href="#DejaVuSans-49"/>
      <use x="63.623047" xlink:href="#DejaVuSans-46"/>
      <use x="95.410156" xlink:href="#DejaVuSans-49"/>
     </g>
    </g>
   </g>
   <g id="text_43">
    <g clip-path="url(#p13f15ebf7e)">
     <!-- 1.2 -->
     <defs>
      <path d="M 19.1875 8.296875 
L 53.609375 8.296875 
L 53.609375 0 
L 7.328125 0 
L 7.328125 8.296875 
Q 12.9375 14.109375 22.625 23.890625 
Q 32.328125 33.6875 34.8125 36.53125 
Q 39.546875 41.84375 41.421875 45.53125 
Q 43.3125 49.21875 43.3125 52.78125 
Q 43.3125 58.59375 39.234375 62.25 
Q 35.15625 65.921875 28.609375 65.921875 
Q 23.96875 65.921875 18.8125 64.3125 
Q 13.671875 62.703125 7.8125 59.421875 
L 7.8125 69.390625 
Q 13.765625 71.78125 18.9375 73 
Q 24.125 74.21875 28.421875 74.21875 
Q 39.75 74.21875 46.484375 68.546875 
Q 53.21875 62.890625 53.21875 53.421875 
Q 53.21875 48.921875 51.53125 44.890625 
Q 49.859375 40.875 45.40625 35.40625 
Q 44.1875 33.984375 37.640625 27.21875 
Q 31.109375 20.453125 19.1875 8.296875 
z
" id="DejaVuSans-50"/>
     </defs>
     <g transform="translate(386.605018 68.849959)scale(0.1 -0.1)">
      <use xlink:href="#DejaVuSans-49"/>
      <use x="63.623047" xlink:href="#DejaVuSans-46"/>
      <use x="95.410156" xlink:href="#DejaVuSans-50"/>
     </g>
    </g>
   </g>
   <g id="text_44">
    <g clip-path="url(#p13f15ebf7e)">
     <!-- 1.4 -->
     <defs>
      <path d="M 37.796875 64.3125 
L 12.890625 25.390625 
L 37.796875 25.390625 
z
M 35.203125 72.90625 
L 47.609375 72.90625 
L 47.609375 25.390625 
L 58.015625 25.390625 
L 58.015625 17.1875 
L 47.609375 17.1875 
L 47.609375 0 
L 37.796875 0 
L 37.796875 17.1875 
L 4.890625 17.1875 
L 4.890625 26.703125 
z
" id="DejaVuSans-52"/>
     </defs>
     <g transform="translate(241.714489 118.2279)scale(0.1 -0.1)">
      <use xlink:href="#DejaVuSans-49"/>
      <use x="63.623047" xlink:href="#DejaVuSans-46"/>
      <use x="95.410156" xlink:href="#DejaVuSans-52"/>
     </g>
    </g>
   </g>
   <g id="text_45">
    <g clip-path="url(#p13f15ebf7e)">
     <!-- 1.5 -->
     <g transform="translate(396.357265 260.587651)scale(0.1 -0.1)">
      <use xlink:href="#DejaVuSans-49"/>
      <use x="63.623047" xlink:href="#DejaVuSans-46"/>
      <use x="95.410156" xlink:href="#DejaVuSans-53"/>
     </g>
    </g>
   </g>
   <g id="text_46">
    <g clip-path="url(#p13f15ebf7e)">
     <!-- 1.6 -->
     <defs>
      <path d="M 33.015625 40.375 
Q 26.375 40.375 22.484375 35.828125 
Q 18.609375 31.296875 18.609375 23.390625 
Q 18.609375 15.53125 22.484375 10.953125 
Q 26.375 6.390625 33.015625 6.390625 
Q 39.65625 6.390625 43.53125 10.953125 
Q 47.40625 15.53125 47.40625 23.390625 
Q 47.40625 31.296875 43.53125 35.828125 
Q 39.65625 40.375 33.015625 40.375 
z
M 52.59375 71.296875 
L 52.59375 62.3125 
Q 48.875 64.0625 45.09375 64.984375 
Q 41.3125 65.921875 37.59375 65.921875 
Q 27.828125 65.921875 22.671875 59.328125 
Q 17.53125 52.734375 16.796875 39.40625 
Q 19.671875 43.65625 24.015625 45.921875 
Q 28.375 48.1875 33.59375 48.1875 
Q 44.578125 48.1875 50.953125 41.515625 
Q 57.328125 34.859375 57.328125 23.390625 
Q 57.328125 12.15625 50.6875 5.359375 
Q 44.046875 -1.421875 33.015625 -1.421875 
Q 20.359375 -1.421875 13.671875 8.265625 
Q 6.984375 17.96875 6.984375 36.375 
Q 6.984375 53.65625 15.1875 63.9375 
Q 23.390625 74.21875 37.203125 74.21875 
Q 40.921875 74.21875 44.703125 73.484375 
Q 48.484375 72.75 52.59375 71.296875 
z
" id="DejaVuSans-54"/>
     </defs>
     <g transform="translate(521.743299 213.87167)scale(0.1 -0.1)">
      <use xlink:href="#DejaVuSans-49"/>
      <use x="63.623047" xlink:href="#DejaVuSans-46"/>
      <use x="95.410156" xlink:href="#DejaVuSans-54"/>
     </g>
    </g>
   </g>
   <g id="text_47">
    <g clip-path="url(#p13f15ebf7e)">
     <!-- 1.7 -->
     <defs>
      <path d="M 8.203125 72.90625 
L 55.078125 72.90625 
L 55.078125 68.703125 
L 28.609375 0 
L 18.3125 0 
L 43.21875 64.59375 
L 8.203125 64.59375 
z
" id="DejaVuSans-55"/>
     </defs>
     <g transform="translate(471.588885 260.587651)scale(0.1 -0.1)">
      <use xlink:href="#DejaVuSans-49"/>
      <use x="63.623047" xlink:href="#DejaVuSans-46"/>
      <use x="95.410156" xlink:href="#DejaVuSans-55"/>
     </g>
    </g>
   </g>
   <g id="text_48">
    <g clip-path="url(#p13f15ebf7e)">
     <!-- 1.8 -->
     <defs>
      <path d="M 31.78125 34.625 
Q 24.75 34.625 20.71875 30.859375 
Q 16.703125 27.09375 16.703125 20.515625 
Q 16.703125 13.921875 20.71875 10.15625 
Q 24.75 6.390625 31.78125 6.390625 
Q 38.8125 6.390625 42.859375 10.171875 
Q 46.921875 13.96875 46.921875 20.515625 
Q 46.921875 27.09375 42.890625 30.859375 
Q 38.875 34.625 31.78125 34.625 
z
M 21.921875 38.8125 
Q 15.578125 40.375 12.03125 44.71875 
Q 8.5 49.078125 8.5 55.328125 
Q 8.5 64.0625 14.71875 69.140625 
Q 20.953125 74.21875 31.78125 74.21875 
Q 42.671875 74.21875 48.875 69.140625 
Q 55.078125 64.0625 55.078125 55.328125 
Q 55.078125 49.078125 51.53125 44.71875 
Q 48 40.375 41.703125 38.8125 
Q 48.828125 37.15625 52.796875 32.3125 
Q 56.78125 27.484375 56.78125 20.515625 
Q 56.78125 9.90625 50.3125 4.234375 
Q 43.84375 -1.421875 31.78125 -1.421875 
Q 19.734375 -1.421875 13.25 4.234375 
Q 6.78125 9.90625 6.78125 20.515625 
Q 6.78125 27.484375 10.78125 32.3125 
Q 14.796875 37.15625 21.921875 38.8125 
z
M 18.3125 54.390625 
Q 18.3125 48.734375 21.84375 45.5625 
Q 25.390625 42.390625 31.78125 42.390625 
Q 38.140625 42.390625 41.71875 45.5625 
Q 45.3125 48.734375 45.3125 54.390625 
Q 45.3125 60.0625 41.71875 63.234375 
Q 38.140625 66.40625 31.78125 66.40625 
Q 25.390625 66.40625 21.84375 63.234375 
Q 18.3125 60.0625 18.3125 54.390625 
z
" id="DejaVuSans-56"/>
     </defs>
     <g transform="translate(521.743299 260.587651)scale(0.1 -0.1)">
      <use xlink:href="#DejaVuSans-49"/>
      <use x="63.623047" xlink:href="#DejaVuSans-46"/>
      <use x="95.410156" xlink:href="#DejaVuSans-56"/>
     </g>
    </g>
   </g>
   <g id="text_49">
    <g clip-path="url(#p13f15ebf7e)">
     <!-- 1.9 -->
     <defs>
      <path d="M 10.984375 1.515625 
L 10.984375 10.5 
Q 14.703125 8.734375 18.5 7.8125 
Q 22.3125 6.890625 25.984375 6.890625 
Q 35.75 6.890625 40.890625 13.453125 
Q 46.046875 20.015625 46.78125 33.40625 
Q 43.953125 29.203125 39.59375 26.953125 
Q 35.25 24.703125 29.984375 24.703125 
Q 19.046875 24.703125 12.671875 31.3125 
Q 6.296875 37.9375 6.296875 49.421875 
Q 6.296875 60.640625 12.9375 67.421875 
Q 19.578125 74.21875 30.609375 74.21875 
Q 43.265625 74.21875 49.921875 64.515625 
Q 56.59375 54.828125 56.59375 36.375 
Q 56.59375 19.140625 48.40625 8.859375 
Q 40.234375 -1.421875 26.421875 -1.421875 
Q 22.703125 -1.421875 18.890625 -0.6875 
Q 15.09375 0.046875 10.984375 1.515625 
z
M 30.609375 32.421875 
Q 37.25 32.421875 41.125 36.953125 
Q 45.015625 41.5 45.015625 49.421875 
Q 45.015625 57.28125 41.125 61.84375 
Q 37.25 66.40625 30.609375 66.40625 
Q 23.96875 66.40625 20.09375 61.84375 
Q 16.21875 57.28125 16.21875 49.421875 
Q 16.21875 41.5 20.09375 36.953125 
Q 23.96875 32.421875 30.609375 32.421875 
z
" id="DejaVuSans-57"/>
     </defs>
     <g transform="translate(153.944266 166.505817)scale(0.1 -0.1)">
      <use xlink:href="#DejaVuSans-49"/>
      <use x="63.623047" xlink:href="#DejaVuSans-46"/>
      <use x="95.410156" xlink:href="#DejaVuSans-57"/>
     </g>
    </g>
   </g>
   <g id="text_50">
    <g clip-path="url(#p13f15ebf7e)">
     <!-- 1.10 -->
     <g transform="translate(267.789981 260.587651)scale(0.1 -0.1)">
      <use xlink:href="#DejaVuSans-49"/>
      <use x="63.623047" xlink:href="#DejaVuSans-46"/>
      <use x="95.410156" xlink:href="#DejaVuSans-49"/>
      <use x="159.033203" xlink:href="#DejaVuSans-48"/>
     </g>
    </g>
   </g>
   <g id="text_51">
    <g clip-path="url(#p13f15ebf7e)">
     <!-- 1.11 -->
     <g transform="translate(317.944394 260.587651)scale(0.1 -0.1)">
      <use xlink:href="#DejaVuSans-49"/>
      <use x="63.623047" xlink:href="#DejaVuSans-46"/>
      <use x="95.410156" xlink:href="#DejaVuSans-49"/>
      <use x="159.033203" xlink:href="#DejaVuSans-49"/>
     </g>
    </g>
   </g>
   <g id="text_52">
    <g clip-path="url(#p13f15ebf7e)">
     <!-- 1.13 -->
     <defs>
      <path d="M 40.578125 39.3125 
Q 47.65625 37.796875 51.625 33 
Q 55.609375 28.21875 55.609375 21.1875 
Q 55.609375 10.40625 48.1875 4.484375 
Q 40.765625 -1.421875 27.09375 -1.421875 
Q 22.515625 -1.421875 17.65625 -0.515625 
Q 12.796875 0.390625 7.625 2.203125 
L 7.625 11.71875 
Q 11.71875 9.328125 16.59375 8.109375 
Q 21.484375 6.890625 26.8125 6.890625 
Q 36.078125 6.890625 40.9375 10.546875 
Q 45.796875 14.203125 45.796875 21.1875 
Q 45.796875 27.640625 41.28125 31.265625 
Q 36.765625 34.90625 28.71875 34.90625 
L 20.21875 34.90625 
L 20.21875 43.015625 
L 29.109375 43.015625 
Q 36.375 43.015625 40.234375 45.921875 
Q 44.09375 48.828125 44.09375 54.296875 
Q 44.09375 59.90625 40.109375 62.90625 
Q 36.140625 65.921875 28.71875 65.921875 
Q 24.65625 65.921875 20.015625 65.03125 
Q 15.375 64.15625 9.8125 62.3125 
L 9.8125 71.09375 
Q 15.4375 72.65625 20.34375 73.4375 
Q 25.25 74.21875 29.59375 74.21875 
Q 40.828125 74.21875 47.359375 69.109375 
Q 53.90625 64.015625 53.90625 55.328125 
Q 53.90625 49.265625 50.4375 45.09375 
Q 46.96875 40.921875 40.578125 39.3125 
z
" id="DejaVuSans-51"/>
     </defs>
     <g transform="translate(17.017913 260.587651)scale(0.1 -0.1)">
      <use xlink:href="#DejaVuSans-49"/>
      <use x="63.623047" xlink:href="#DejaVuSans-46"/>
      <use x="95.410156" xlink:href="#DejaVuSans-49"/>
      <use x="159.033203" xlink:href="#DejaVuSans-51"/>
     </g>
    </g>
   </g>
   <g id="text_53">
    <g clip-path="url(#p13f15ebf7e)">
     <!-- 1.14 -->
     <g transform="translate(117.32674 213.87167)scale(0.1 -0.1)">
      <use xlink:href="#DejaVuSans-49"/>
      <use x="63.623047" xlink:href="#DejaVuSans-46"/>
      <use x="95.410156" xlink:href="#DejaVuSans-49"/>
      <use x="159.033203" xlink:href="#DejaVuSans-52"/>
     </g>
    </g>
   </g>
   <g id="text_54">
    <g clip-path="url(#p13f15ebf7e)">
     <!-- 1.15 -->
     <g transform="translate(67.172326 260.587651)scale(0.1 -0.1)">
      <use xlink:href="#DejaVuSans-49"/>
      <use x="63.623047" xlink:href="#DejaVuSans-46"/>
      <use x="95.410156" xlink:href="#DejaVuSans-49"/>
      <use x="159.033203" xlink:href="#DejaVuSans-53"/>
     </g>
    </g>
   </g>
   <g id="text_55">
    <g clip-path="url(#p13f15ebf7e)">
     <!-- 1.16 -->
     <g transform="translate(117.32674 260.587651)scale(0.1 -0.1)">
      <use xlink:href="#DejaVuSans-49"/>
      <use x="63.623047" xlink:href="#DejaVuSans-46"/>
      <use x="95.410156" xlink:href="#DejaVuSans-49"/>
      <use x="159.033203" xlink:href="#DejaVuSans-54"/>
     </g>
    </g>
   </g>
   <g id="text_56">
    <g clip-path="url(#p13f15ebf7e)">
     <!-- 1.17 -->
     <g transform="translate(167.481154 260.587651)scale(0.1 -0.1)">
      <use xlink:href="#DejaVuSans-49"/>
      <use x="63.623047" xlink:href="#DejaVuSans-46"/>
      <use x="95.410156" xlink:href="#DejaVuSans-49"/>
      <use x="159.033203" xlink:href="#DejaVuSans-55"/>
     </g>
    </g>
   </g>
   <g id="text_57">
    <g clip-path="url(#p13f15ebf7e)">
     <!-- 1.18 -->
     <g transform="translate(217.635567 260.587651)scale(0.1 -0.1)">
      <use xlink:href="#DejaVuSans-49"/>
      <use x="63.623047" xlink:href="#DejaVuSans-46"/>
      <use x="95.410156" xlink:href="#DejaVuSans-49"/>
      <use x="159.033203" xlink:href="#DejaVuSans-56"/>
     </g>
    </g>
   </g>
   <g id="text_58">
    <g clip-path="url(#p13f15ebf7e)">
     <!-- 1.19 -->
     <g transform="translate(568.716462 260.587651)scale(0.1 -0.1)">
      <use xlink:href="#DejaVuSans-49"/>
      <use x="63.623047" xlink:href="#DejaVuSans-46"/>
      <use x="95.410156" xlink:href="#DejaVuSans-49"/>
      <use x="159.033203" xlink:href="#DejaVuSans-57"/>
     </g>
    </g>
   </g>
  </g>
 </g>
 <defs>
  <clipPath id="p13f15ebf7e">
   <rect height="320" width="608" x="0" y="0"/>
  </clipPath>
 </defs>
</svg>
