<?xml version="1.0" encoding="utf-8" standalone="no"?>
<!DOCTYPE svg PUBLIC "-//W3C//DTD SVG 1.1//EN"
  "http://www.w3.org/Graphics/SVG/1.1/DTD/svg11.dtd">
<!-- Created with matplotlib (https://matplotlib.org/) -->
<svg height="506.666667pt" version="1.1" viewBox="0 0 962.666667 506.666667" width="962.666667pt" xmlns="http://www.w3.org/2000/svg" xmlns:xlink="http://www.w3.org/1999/xlink">
 <defs>
  <style type="text/css">
*{stroke-linecap:butt;stroke-linejoin:round;}
  </style>
 </defs>
 <g id="figure_1">
  <g id="patch_1">
   <path d="M 0 506.666667 
L 962.666667 506.666667 
L 962.666667 0 
L 0 0 
z
" style="fill:#ffffff;"/>
  </g>
  <g id="axes_1">
   <g id="LineCollection_1">
    <path clip-path="url(#p85f0c9fda2)" d="M 353.292767 23.942694 
L 214.118238 259.278909 
" style="fill:none;stroke:#000000;"/>
    <path clip-path="url(#p85f0c9fda2)" d="M 353.292767 23.942694 
L 432.74877 408.586064 
" style="fill:none;stroke:#000000;"/>
    <path clip-path="url(#p85f0c9fda2)" d="M 353.292767 23.942694 
L 413.011292 104.299803 
" style="fill:none;stroke:#000000;"/>
    <path clip-path="url(#p85f0c9fda2)" d="M 214.118238 259.278909 
L 92.65683 334.448157 
" style="fill:none;stroke:#000000;"/>
    <path clip-path="url(#p85f0c9fda2)" d="M 214.118238 259.278909 
L 214.118238 408.586064 
" style="fill:none;stroke:#000000;"/>
    <path clip-path="url(#p85f0c9fda2)" d="M 214.118238 259.278909 
L 335.579645 334.448157 
" style="fill:none;stroke:#000000;"/>
    <path clip-path="url(#p85f0c9fda2)" d="M 432.74877 408.586064 
L 432.74877 482.723972 
" style="fill:none;stroke:#000000;"/>
    <path clip-path="url(#p85f0c9fda2)" d="M 413.011292 104.299803 
L 481.333333 408.586064 
" style="fill:none;stroke:#000000;"/>
    <path clip-path="url(#p85f0c9fda2)" d="M 413.011292 104.299803 
L 616.459149 182.66222 
" style="fill:none;stroke:#000000;"/>
    <path clip-path="url(#p85f0c9fda2)" d="M 413.011292 104.299803 
L 141.241393 408.586064 
" style="fill:none;stroke:#000000;stroke-dasharray:3.7,1.6;stroke-dashoffset:0;"/>
    <path clip-path="url(#p85f0c9fda2)" d="M 481.333333 408.586064 
L 481.333333 482.723972 
" style="fill:none;stroke:#000000;"/>
    <path clip-path="url(#p85f0c9fda2)" d="M 616.459149 182.66222 
L 529.917896 408.586064 
" style="fill:none;stroke:#000000;"/>
    <path clip-path="url(#p85f0c9fda2)" d="M 616.459149 182.66222 
L 578.502459 408.586064 
" style="fill:none;stroke:#000000;"/>
    <path clip-path="url(#p85f0c9fda2)" d="M 616.459149 182.66222 
L 627.087022 408.586064 
" style="fill:none;stroke:#000000;"/>
    <path clip-path="url(#p85f0c9fda2)" d="M 616.459149 182.66222 
L 730.329218 259.278909 
" style="fill:none;stroke:#000000;"/>
    <path clip-path="url(#p85f0c9fda2)" d="M 529.917896 408.586064 
L 529.917896 482.723972 
" style="fill:none;stroke:#000000;"/>
    <path clip-path="url(#p85f0c9fda2)" d="M 578.502459 408.586064 
L 578.502459 482.723972 
" style="fill:none;stroke:#000000;"/>
    <path clip-path="url(#p85f0c9fda2)" d="M 627.087022 408.586064 
L 627.087022 482.723972 
" style="fill:none;stroke:#000000;"/>
    <path clip-path="url(#p85f0c9fda2)" d="M 730.329218 259.278909 
L 627.087022 408.586064 
" style="fill:none;stroke:#000000;stroke-dasharray:3.7,1.6;stroke-dashoffset:0;"/>
    <path clip-path="url(#p85f0c9fda2)" d="M 730.329218 259.278909 
L 675.671585 408.586064 
" style="fill:none;stroke:#000000;"/>
    <path clip-path="url(#p85f0c9fda2)" d="M 730.329218 259.278909 
L 748.548429 334.448157 
" style="fill:none;stroke:#000000;"/>
    <path clip-path="url(#p85f0c9fda2)" d="M 730.329218 259.278909 
L 870.009836 334.448157 
" style="fill:none;stroke:#000000;"/>
    <path clip-path="url(#p85f0c9fda2)" d="M 675.671585 408.586064 
L 675.671585 482.723972 
" style="fill:none;stroke:#000000;"/>
    <path clip-path="url(#p85f0c9fda2)" d="M 748.548429 334.448157 
L 724.256148 408.586064 
" style="fill:none;stroke:#000000;"/>
    <path clip-path="url(#p85f0c9fda2)" d="M 748.548429 334.448157 
L 772.84071 408.586064 
" style="fill:none;stroke:#000000;"/>
    <path clip-path="url(#p85f0c9fda2)" d="M 870.009836 334.448157 
L 821.425273 408.586064 
" style="fill:none;stroke:#000000;"/>
    <path clip-path="url(#p85f0c9fda2)" d="M 870.009836 334.448157 
L 870.009836 408.586064 
" style="fill:none;stroke:#000000;"/>
    <path clip-path="url(#p85f0c9fda2)" d="M 870.009836 334.448157 
L 918.594399 408.586064 
" style="fill:none;stroke:#000000;"/>
    <path clip-path="url(#p85f0c9fda2)" d="M 821.425273 408.586064 
L 821.425273 482.723972 
" style="fill:none;stroke:#000000;"/>
    <path clip-path="url(#p85f0c9fda2)" d="M 870.009836 408.586064 
L 870.009836 482.723972 
" style="fill:none;stroke:#000000;"/>
    <path clip-path="url(#p85f0c9fda2)" d="M 724.256148 408.586064 
L 724.256148 482.723972 
" style="fill:none;stroke:#000000;"/>
    <path clip-path="url(#p85f0c9fda2)" d="M 772.84071 408.586064 
L 772.84071 482.723972 
" style="fill:none;stroke:#000000;"/>
    <path clip-path="url(#p85f0c9fda2)" d="M 92.65683 334.448157 
L 44.072268 408.586064 
" style="fill:none;stroke:#000000;"/>
    <path clip-path="url(#p85f0c9fda2)" d="M 92.65683 334.448157 
L 92.65683 408.586064 
" style="fill:none;stroke:#000000;"/>
    <path clip-path="url(#p85f0c9fda2)" d="M 92.65683 334.448157 
L 141.241393 408.586064 
" style="fill:none;stroke:#000000;"/>
    <path clip-path="url(#p85f0c9fda2)" d="M 214.118238 408.586064 
L 189.825956 482.723972 
" style="fill:none;stroke:#000000;"/>
    <path clip-path="url(#p85f0c9fda2)" d="M 214.118238 408.586064 
L 238.410519 482.723972 
" style="fill:none;stroke:#000000;"/>
    <path clip-path="url(#p85f0c9fda2)" d="M 335.579645 334.448157 
L 286.995082 408.586064 
" style="fill:none;stroke:#000000;"/>
    <path clip-path="url(#p85f0c9fda2)" d="M 335.579645 334.448157 
L 335.579645 408.586064 
" style="fill:none;stroke:#000000;"/>
    <path clip-path="url(#p85f0c9fda2)" d="M 335.579645 334.448157 
L 384.164208 408.586064 
" style="fill:none;stroke:#000000;"/>
    <path clip-path="url(#p85f0c9fda2)" d="M 286.995082 408.586064 
L 286.995082 482.723972 
" style="fill:none;stroke:#000000;"/>
    <path clip-path="url(#p85f0c9fda2)" d="M 335.579645 408.586064 
L 335.579645 482.723972 
" style="fill:none;stroke:#000000;"/>
    <path clip-path="url(#p85f0c9fda2)" d="M 384.164208 408.586064 
L 384.164208 482.723972 
" style="fill:none;stroke:#000000;"/>
    <path clip-path="url(#p85f0c9fda2)" d="M 44.072268 408.586064 
L 44.072268 482.723972 
" style="fill:none;stroke:#000000;"/>
    <path clip-path="url(#p85f0c9fda2)" d="M 92.65683 408.586064 
L 92.65683 482.723972 
" style="fill:none;stroke:#000000;"/>
    <path clip-path="url(#p85f0c9fda2)" d="M 141.241393 408.586064 
L 141.241393 482.723972 
" style="fill:none;stroke:#000000;"/>
    <path clip-path="url(#p85f0c9fda2)" d="M 353.292767 23.942694 
L 214.118238 259.278909 
" style="fill:none;stroke:#000000;"/>
    <path clip-path="url(#p85f0c9fda2)" d="M 353.292767 23.942694 
L 432.74877 408.586064 
" style="fill:none;stroke:#000000;"/>
    <path clip-path="url(#p85f0c9fda2)" d="M 353.292767 23.942694 
L 413.011292 104.299803 
" style="fill:none;stroke:#000000;"/>
    <path clip-path="url(#p85f0c9fda2)" d="M 918.594399 408.586064 
L 918.594399 482.723972 
" style="fill:none;stroke:#000000;"/>
   </g>
   <g id="text_1">
    <g id="patch_2">
     <path clip-path="url(#p85f0c9fda2)" d="M 287.572224 147.392312 
L 290.634696 142.213844 
Q 291.856377 140.148052 289.790585 138.926372 
L 283.126253 134.98518 
Q 281.060461 133.763499 279.838781 135.829292 
L 276.776308 141.007759 
Q 275.554628 143.073551 277.62042 144.295231 
L 284.284751 148.236423 
Q 286.350543 149.458104 287.572224 147.392312 
z
" style="fill:#ffffff;stroke:#ffffff;stroke-linejoin:miter;"/>
    </g>
    <g clip-path="url(#p85f0c9fda2)">
     <!-- H -->
     <defs>
      <path d="M 9.8125 72.90625 
L 19.671875 72.90625 
L 19.671875 43.015625 
L 55.515625 43.015625 
L 55.515625 72.90625 
L 65.375 72.90625 
L 65.375 0 
L 55.515625 0 
L 55.515625 34.71875 
L 19.671875 34.71875 
L 19.671875 0 
L 9.8125 0 
z
" id="DejaVuSans-72"/>
     </defs>
     <g transform="translate(284.074364 145.323727)rotate(-59.400527)scale(0.08 -0.08)">
      <use xlink:href="#DejaVuSans-72"/>
     </g>
    </g>
   </g>
   <g id="text_2">
    <g id="patch_3">
     <path clip-path="url(#p85f0c9fda2)" d="M 386.42831 215.350382 
L 387.33006 219.715718 
Q 387.815578 222.066095 390.165955 221.580576 
L 397.748369 220.014272 
Q 400.098746 219.528753 399.613227 217.178377 
L 398.711477 212.813041 
Q 398.225959 210.462664 395.875582 210.948183 
L 388.293168 212.514487 
Q 385.942791 213.000005 386.42831 215.350382 
z
" style="fill:#ffffff;stroke:#ffffff;stroke-linejoin:miter;"/>
    </g>
    <g clip-path="url(#p85f0c9fda2)">
     <!-- L -->
     <defs>
      <path d="M 9.8125 72.90625 
L 19.671875 72.90625 
L 19.671875 8.296875 
L 55.171875 8.296875 
L 55.171875 0 
L 9.8125 0 
z
" id="DejaVuSans-76"/>
     </defs>
     <g transform="translate(390.408037 214.528288)rotate(-281.671458)scale(0.08 -0.08)">
      <use xlink:href="#DejaVuSans-76"/>
     </g>
    </g>
   </g>
   <g id="text_3">
    <g id="patch_4">
     <path clip-path="url(#p85f0c9fda2)" d="M 376.324267 65.447543 
L 379.912857 70.276341 
Q 381.344415 72.202643 383.270717 70.771084 
L 389.485048 66.152816 
Q 391.41135 64.721257 389.979791 62.794955 
L 386.391202 57.966157 
Q 384.959643 56.039855 383.033341 57.471414 
L 376.81901 62.089682 
Q 374.892708 63.521241 376.324267 65.447543 
z
" style="fill:#ffffff;stroke:#ffffff;stroke-linejoin:miter;"/>
    </g>
    <g clip-path="url(#p85f0c9fda2)">
     <!-- H -->
     <g transform="translate(379.585938 63.023586)rotate(-306.618409)scale(0.08 -0.08)">
      <use xlink:href="#DejaVuSans-72"/>
     </g>
    </g>
   </g>
   <g id="text_4">
    <g id="patch_5">
     <path clip-path="url(#p85f0c9fda2)" d="M 154.361045 303.636118 
L 159.014483 300.756229 
Q 161.055279 299.493234 159.792285 297.452439 
L 155.717813 290.868748 
Q 154.454819 288.827953 152.414023 290.090947 
L 147.760585 292.970837 
Q 145.719789 294.233831 146.982783 296.274626 
L 151.057255 302.858317 
Q 152.32025 304.899113 154.361045 303.636118 
z
" style="fill:#ffffff;stroke:#ffffff;stroke-linejoin:miter;"/>
    </g>
    <g clip-path="url(#p85f0c9fda2)">
     <!-- A -->
     <defs>
      <path d="M 34.1875 63.1875 
L 20.796875 26.90625 
L 47.609375 26.90625 
z
M 28.609375 72.90625 
L 39.796875 72.90625 
L 67.578125 0 
L 57.328125 0 
L 50.6875 18.703125 
L 17.828125 18.703125 
L 11.1875 0 
L 0.78125 0 
z
" id="DejaVuSans-65"/>
     </defs>
     <g transform="translate(152.222506 300.180584)rotate(-31.752268)scale(0.08 -0.08)">
      <use xlink:href="#DejaVuSans-65"/>
     </g>
    </g>
   </g>
   <g id="text_5">
    <g id="patch_6">
     <path clip-path="url(#p85f0c9fda2)" d="M 207.846988 331.520612 
L 207.846988 336.344362 
Q 207.846988 338.744362 210.246988 338.744362 
L 217.989488 338.744362 
Q 220.389488 338.744362 220.389488 336.344362 
L 220.389488 331.520612 
Q 220.389488 329.120612 217.989488 329.120612 
L 210.246988 329.120612 
Q 207.846988 329.120612 207.846988 331.520612 
z
" style="fill:#ffffff;stroke:#ffffff;stroke-linejoin:miter;"/>
    </g>
    <g clip-path="url(#p85f0c9fda2)">
     <!-- P -->
     <defs>
      <path d="M 19.671875 64.796875 
L 19.671875 37.40625 
L 32.078125 37.40625 
Q 38.96875 37.40625 42.71875 40.96875 
Q 46.484375 44.53125 46.484375 51.125 
Q 46.484375 57.671875 42.71875 61.234375 
Q 38.96875 64.796875 32.078125 64.796875 
z
M 9.8125 72.90625 
L 32.078125 72.90625 
Q 44.34375 72.90625 50.609375 67.359375 
Q 56.890625 61.8125 56.890625 51.125 
Q 56.890625 40.328125 50.609375 34.8125 
Q 44.34375 29.296875 32.078125 29.296875 
L 19.671875 29.296875 
L 19.671875 0 
L 9.8125 0 
z
" id="DejaVuSans-80"/>
     </defs>
     <g transform="translate(211.910738 331.520612)rotate(-270)scale(0.08 -0.08)">
      <use xlink:href="#DejaVuSans-80"/>
     </g>
    </g>
   </g>
   <g id="text_6">
    <g id="patch_7">
     <path clip-path="url(#p85f0c9fda2)" d="M 269.221992 300.756229 
L 273.87543 303.636118 
Q 275.916226 304.899113 277.17922 302.858317 
L 281.253692 296.274626 
Q 282.516686 294.233831 280.475891 292.970837 
L 275.822452 290.090947 
Q 273.781657 288.827953 272.518662 290.868748 
L 268.444191 297.452439 
Q 267.181196 299.493234 269.221992 300.756229 
z
" style="fill:#ffffff;stroke:#ffffff;stroke-linejoin:miter;"/>
    </g>
    <g clip-path="url(#p85f0c9fda2)">
     <!-- A -->
     <g transform="translate(271.36053 297.300694)rotate(-328.247732)scale(0.08 -0.08)">
      <use xlink:href="#DejaVuSans-65"/>
     </g>
    </g>
   </g>
   <g id="text_7">
    <g id="patch_8">
     <path clip-path="url(#p85f0c9fda2)" d="M 426.47752 428.012518 
L 426.47752 463.297518 
Q 426.47752 465.697518 428.87752 465.697518 
L 436.62002 465.697518 
Q 439.02002 465.697518 439.02002 463.297518 
L 439.02002 428.012518 
Q 439.02002 425.612518 436.62002 425.612518 
L 428.87752 425.612518 
Q 426.47752 425.612518 426.47752 428.012518 
z
" style="fill:#ffffff;stroke:#ffffff;stroke-linejoin:miter;"/>
    </g>
    <g clip-path="url(#p85f0c9fda2)">
     <!-- Terminal -->
     <defs>
      <path d="M -0.296875 72.90625 
L 61.375 72.90625 
L 61.375 64.59375 
L 35.5 64.59375 
L 35.5 0 
L 25.59375 0 
L 25.59375 64.59375 
L -0.296875 64.59375 
z
" id="DejaVuSans-84"/>
      <path d="M 56.203125 29.59375 
L 56.203125 25.203125 
L 14.890625 25.203125 
Q 15.484375 15.921875 20.484375 11.0625 
Q 25.484375 6.203125 34.421875 6.203125 
Q 39.59375 6.203125 44.453125 7.46875 
Q 49.3125 8.734375 54.109375 11.28125 
L 54.109375 2.78125 
Q 49.265625 0.734375 44.1875 -0.34375 
Q 39.109375 -1.421875 33.890625 -1.421875 
Q 20.796875 -1.421875 13.15625 6.1875 
Q 5.515625 13.8125 5.515625 26.8125 
Q 5.515625 40.234375 12.765625 48.109375 
Q 20.015625 56 32.328125 56 
Q 43.359375 56 49.78125 48.890625 
Q 56.203125 41.796875 56.203125 29.59375 
z
M 47.21875 32.234375 
Q 47.125 39.59375 43.09375 43.984375 
Q 39.0625 48.390625 32.421875 48.390625 
Q 24.90625 48.390625 20.390625 44.140625 
Q 15.875 39.890625 15.1875 32.171875 
z
" id="DejaVuSans-101"/>
      <path d="M 41.109375 46.296875 
Q 39.59375 47.171875 37.8125 47.578125 
Q 36.03125 48 33.890625 48 
Q 26.265625 48 22.1875 43.046875 
Q 18.109375 38.09375 18.109375 28.8125 
L 18.109375 0 
L 9.078125 0 
L 9.078125 54.6875 
L 18.109375 54.6875 
L 18.109375 46.1875 
Q 20.953125 51.171875 25.484375 53.578125 
Q 30.03125 56 36.53125 56 
Q 37.453125 56 38.578125 55.875 
Q 39.703125 55.765625 41.0625 55.515625 
z
" id="DejaVuSans-114"/>
      <path d="M 52 44.1875 
Q 55.375 50.25 60.0625 53.125 
Q 64.75 56 71.09375 56 
Q 79.640625 56 84.28125 50.015625 
Q 88.921875 44.046875 88.921875 33.015625 
L 88.921875 0 
L 79.890625 0 
L 79.890625 32.71875 
Q 79.890625 40.578125 77.09375 44.375 
Q 74.3125 48.1875 68.609375 48.1875 
Q 61.625 48.1875 57.5625 43.546875 
Q 53.515625 38.921875 53.515625 30.90625 
L 53.515625 0 
L 44.484375 0 
L 44.484375 32.71875 
Q 44.484375 40.625 41.703125 44.40625 
Q 38.921875 48.1875 33.109375 48.1875 
Q 26.21875 48.1875 22.15625 43.53125 
Q 18.109375 38.875 18.109375 30.90625 
L 18.109375 0 
L 9.078125 0 
L 9.078125 54.6875 
L 18.109375 54.6875 
L 18.109375 46.1875 
Q 21.1875 51.21875 25.484375 53.609375 
Q 29.78125 56 35.6875 56 
Q 41.65625 56 45.828125 52.96875 
Q 50 49.953125 52 44.1875 
z
" id="DejaVuSans-109"/>
      <path d="M 9.421875 54.6875 
L 18.40625 54.6875 
L 18.40625 0 
L 9.421875 0 
z
M 9.421875 75.984375 
L 18.40625 75.984375 
L 18.40625 64.59375 
L 9.421875 64.59375 
z
" id="DejaVuSans-105"/>
      <path d="M 54.890625 33.015625 
L 54.890625 0 
L 45.90625 0 
L 45.90625 32.71875 
Q 45.90625 40.484375 42.875 44.328125 
Q 39.84375 48.1875 33.796875 48.1875 
Q 26.515625 48.1875 22.3125 43.546875 
Q 18.109375 38.921875 18.109375 30.90625 
L 18.109375 0 
L 9.078125 0 
L 9.078125 54.6875 
L 18.109375 54.6875 
L 18.109375 46.1875 
Q 21.34375 51.125 25.703125 53.5625 
Q 30.078125 56 35.796875 56 
Q 45.21875 56 50.046875 50.171875 
Q 54.890625 44.34375 54.890625 33.015625 
z
" id="DejaVuSans-110"/>
      <path d="M 34.28125 27.484375 
Q 23.390625 27.484375 19.1875 25 
Q 14.984375 22.515625 14.984375 16.5 
Q 14.984375 11.71875 18.140625 8.90625 
Q 21.296875 6.109375 26.703125 6.109375 
Q 34.1875 6.109375 38.703125 11.40625 
Q 43.21875 16.703125 43.21875 25.484375 
L 43.21875 27.484375 
z
M 52.203125 31.203125 
L 52.203125 0 
L 43.21875 0 
L 43.21875 8.296875 
Q 40.140625 3.328125 35.546875 0.953125 
Q 30.953125 -1.421875 24.3125 -1.421875 
Q 15.921875 -1.421875 10.953125 3.296875 
Q 6 8.015625 6 15.921875 
Q 6 25.140625 12.171875 29.828125 
Q 18.359375 34.515625 30.609375 34.515625 
L 43.21875 34.515625 
L 43.21875 35.40625 
Q 43.21875 41.609375 39.140625 45 
Q 35.0625 48.390625 27.6875 48.390625 
Q 23 48.390625 18.546875 47.265625 
Q 14.109375 46.140625 10.015625 43.890625 
L 10.015625 52.203125 
Q 14.9375 54.109375 19.578125 55.046875 
Q 24.21875 56 28.609375 56 
Q 40.484375 56 46.34375 49.84375 
Q 52.203125 43.703125 52.203125 31.203125 
z
" id="DejaVuSans-97"/>
      <path d="M 9.421875 75.984375 
L 18.40625 75.984375 
L 18.40625 0 
L 9.421875 0 
z
" id="DejaVuSans-108"/>
     </defs>
     <g transform="translate(430.54127 428.012518)rotate(-270)scale(0.08 -0.08)">
      <use xlink:href="#DejaVuSans-84"/>
      <use x="60.818359" xlink:href="#DejaVuSans-101"/>
      <use x="122.341797" xlink:href="#DejaVuSans-114"/>
      <use x="163.439453" xlink:href="#DejaVuSans-109"/>
      <use x="260.851562" xlink:href="#DejaVuSans-105"/>
      <use x="288.634766" xlink:href="#DejaVuSans-110"/>
      <use x="352.013672" xlink:href="#DejaVuSans-97"/>
      <use x="413.292969" xlink:href="#DejaVuSans-108"/>
     </g>
    </g>
   </g>
   <g id="text_8">
    <g id="patch_9">
     <path clip-path="url(#p85f0c9fda2)" d="M 440.525019 255.46354 
L 441.581795 260.170109 
Q 442.107582 262.511807 444.44928 261.986021 
L 452.003694 260.289812 
Q 454.345392 259.764025 453.819606 257.422328 
L 452.76283 252.715759 
Q 452.237043 250.374061 449.895346 250.899847 
L 442.340931 252.596056 
Q 439.999233 253.121843 440.525019 255.46354 
z
" style="fill:#ffffff;stroke:#ffffff;stroke-linejoin:miter;"/>
    </g>
    <g clip-path="url(#p85f0c9fda2)">
     <!-- P -->
     <g transform="translate(444.49005 254.573264)rotate(-282.654866)scale(0.08 -0.08)">
      <use xlink:href="#DejaVuSans-80"/>
     </g>
    </g>
   </g>
   <g id="text_9">
    <g id="patch_10">
     <path clip-path="url(#p85f0c9fda2)" d="M 509.927745 148.349669 
L 515.034526 150.316658 
Q 517.274137 151.179294 518.136773 148.939682 
L 520.919671 141.714602 
Q 521.782307 139.474991 519.542696 138.612355 
L 514.435915 136.645366 
Q 512.196303 135.78273 511.333668 138.022342 
L 508.550769 145.247422 
Q 507.688133 147.487033 509.927745 148.349669 
z
" style="fill:#ffffff;stroke:#ffffff;stroke-linejoin:miter;"/>
    </g>
    <g clip-path="url(#p85f0c9fda2)">
     <!-- A -->
     <g transform="translate(511.388385 144.557493)rotate(-338.934712)scale(0.08 -0.08)">
      <use xlink:href="#DejaVuSans-65"/>
     </g>
    </g>
   </g>
   <g id="text_10">
    <g id="patch_11">
     <path clip-path="url(#p85f0c9fda2)" d="M 279.980944 262.661205 
L 283.626355 258.579632 
Q 285.225073 256.789633 283.435074 255.190914 
L 277.66046 250.033382 
Q 275.87046 248.434663 274.271741 250.224663 
L 270.62633 254.306236 
Q 269.027612 256.096235 270.817612 257.694954 
L 276.592225 262.852486 
Q 278.382225 264.451205 279.980944 262.661205 
z
" style="fill:#ffffff;stroke:#ffffff;stroke-linejoin:miter;"/>
    </g>
    <g clip-path="url(#p85f0c9fda2)">
     <!-- A -->
     <g transform="translate(276.950064 259.954208)rotate(-48.230719)scale(0.08 -0.08)">
      <use xlink:href="#DejaVuSans-65"/>
     </g>
    </g>
   </g>
   <g id="text_11">
    <g id="patch_12">
     <path clip-path="url(#p85f0c9fda2)" d="M 475.062083 428.012518 
L 475.062083 463.297518 
Q 475.062083 465.697518 477.462083 465.697518 
L 485.204583 465.697518 
Q 487.604583 465.697518 487.604583 463.297518 
L 487.604583 428.012518 
Q 487.604583 425.612518 485.204583 425.612518 
L 477.462083 425.612518 
Q 475.062083 425.612518 475.062083 428.012518 
z
" style="fill:#ffffff;stroke:#ffffff;stroke-linejoin:miter;"/>
    </g>
    <g clip-path="url(#p85f0c9fda2)">
     <!-- Terminal -->
     <g transform="translate(479.125833 428.012518)rotate(-270)scale(0.08 -0.08)">
      <use xlink:href="#DejaVuSans-84"/>
      <use x="60.818359" xlink:href="#DejaVuSans-101"/>
      <use x="122.341797" xlink:href="#DejaVuSans-114"/>
      <use x="163.439453" xlink:href="#DejaVuSans-109"/>
      <use x="260.851562" xlink:href="#DejaVuSans-105"/>
      <use x="288.634766" xlink:href="#DejaVuSans-110"/>
      <use x="352.013672" xlink:href="#DejaVuSans-97"/>
      <use x="413.292969" xlink:href="#DejaVuSans-108"/>
     </g>
    </g>
   </g>
   <g id="text_12">
    <g id="patch_13">
     <path clip-path="url(#p85f0c9fda2)" d="M 578.140712 300.22769 
L 579.948933 295.507164 
Q 580.807435 293.265965 578.566236 292.407463 
L 571.336035 289.637898 
Q 569.094835 288.779396 568.236333 291.020595 
L 566.428112 295.74112 
Q 565.56961 297.98232 567.810809 298.840822 
L 575.04101 301.610387 
Q 577.28221 302.468889 578.140712 300.22769 
z
" style="fill:#ffffff;stroke:#ffffff;stroke-linejoin:miter;"/>
    </g>
    <g clip-path="url(#p85f0c9fda2)">
     <!-- E -->
     <defs>
      <path d="M 9.8125 72.90625 
L 55.90625 72.90625 
L 55.90625 64.59375 
L 19.671875 64.59375 
L 19.671875 43.015625 
L 54.390625 43.015625 
L 54.390625 34.71875 
L 19.671875 34.71875 
L 19.671875 8.296875 
L 56.78125 8.296875 
L 56.78125 0 
L 9.8125 0 
z
" id="DejaVuSans-69"/>
     </defs>
     <g transform="translate(574.345848 298.774049)rotate(-69.040413)scale(0.08 -0.08)">
      <use xlink:href="#DejaVuSans-69"/>
     </g>
    </g>
   </g>
   <g id="text_13">
    <g id="patch_14">
     <path clip-path="url(#p85f0c9fda2)" d="M 603.24661 299.155758 
L 604.084145 294.170625 
Q 604.481788 291.803795 602.114959 291.406153 
L 594.47947 290.12334 
Q 592.112641 289.725697 591.714998 292.092526 
L 590.877462 297.07766 
Q 590.47982 299.444489 592.846649 299.842132 
L 600.482138 301.124945 
Q 602.848967 301.522588 603.24661 299.155758 
z
" style="fill:#ffffff;stroke:#ffffff;stroke-linejoin:miter;"/>
    </g>
    <g clip-path="url(#p85f0c9fda2)">
     <!-- E -->
     <g transform="translate(599.239026 298.482458)rotate(-80.462998)scale(0.08 -0.08)">
      <use xlink:href="#DejaVuSans-69"/>
     </g>
    </g>
   </g>
   <g id="text_14">
    <g id="patch_15">
     <path clip-path="url(#p85f0c9fda2)" d="M 615.377514 293.128788 
L 615.640011 298.708867 
Q 615.752787 301.106216 618.150136 300.99344 
L 625.884083 300.629621 
Q 628.281432 300.516846 628.168657 298.119497 
L 627.906159 292.539418 
Q 627.793384 290.142069 625.396035 290.254844 
L 617.662087 290.618664 
Q 615.264738 290.731439 615.377514 293.128788 
z
" style="fill:#ffffff;stroke:#ffffff;stroke-linejoin:miter;"/>
    </g>
    <g clip-path="url(#p85f0c9fda2)">
     <!-- C -->
     <defs>
      <path d="M 64.40625 67.28125 
L 64.40625 56.890625 
Q 59.421875 61.53125 53.78125 63.8125 
Q 48.140625 66.109375 41.796875 66.109375 
Q 29.296875 66.109375 22.65625 58.46875 
Q 16.015625 50.828125 16.015625 36.375 
Q 16.015625 21.96875 22.65625 14.328125 
Q 29.296875 6.6875 41.796875 6.6875 
Q 48.140625 6.6875 53.78125 8.984375 
Q 59.421875 11.28125 64.40625 15.921875 
L 64.40625 5.609375 
Q 59.234375 2.09375 53.4375 0.328125 
Q 47.65625 -1.421875 41.21875 -1.421875 
Q 24.65625 -1.421875 15.125 8.703125 
Q 5.609375 18.84375 5.609375 36.375 
Q 5.609375 53.953125 15.125 64.078125 
Q 24.65625 74.21875 41.21875 74.21875 
Q 47.75 74.21875 53.53125 72.484375 
Q 59.328125 70.75 64.40625 67.28125 
z
" id="DejaVuSans-67"/>
     </defs>
     <g transform="translate(619.436775 292.937833)rotate(-272.693313)scale(0.08 -0.08)">
      <use xlink:href="#DejaVuSans-67"/>
     </g>
    </g>
   </g>
   <g id="text_15">
    <g id="patch_16">
     <path clip-path="url(#p85f0c9fda2)" d="M 667.796293 224.762722 
L 671.990313 227.584639 
Q 673.981539 228.924422 675.321322 226.933196 
L 679.643517 220.509417 
Q 680.9833 218.518191 678.992074 217.178408 
L 674.798054 214.35649 
Q 672.806827 213.016707 671.467045 215.007934 
L 667.144849 221.431712 
Q 665.805067 223.422939 667.796293 224.762722 
z
" style="fill:#ffffff;stroke:#ffffff;stroke-linejoin:miter;"/>
    </g>
    <g clip-path="url(#p85f0c9fda2)">
     <!-- E -->
     <g transform="translate(670.064852 221.391119)rotate(-326.065635)scale(0.08 -0.08)">
      <use xlink:href="#DejaVuSans-69"/>
     </g>
    </g>
   </g>
   <g id="text_16">
    <g id="patch_17">
     <path clip-path="url(#p85f0c9fda2)" d="M 523.646646 428.012518 
L 523.646646 463.297518 
Q 523.646646 465.697518 526.046646 465.697518 
L 533.789146 465.697518 
Q 536.189146 465.697518 536.189146 463.297518 
L 536.189146 428.012518 
Q 536.189146 425.612518 533.789146 425.612518 
L 526.046646 425.612518 
Q 523.646646 425.612518 523.646646 428.012518 
z
" style="fill:#ffffff;stroke:#ffffff;stroke-linejoin:miter;"/>
    </g>
    <g clip-path="url(#p85f0c9fda2)">
     <!-- Terminal -->
     <g transform="translate(527.710396 428.012518)rotate(-270)scale(0.08 -0.08)">
      <use xlink:href="#DejaVuSans-84"/>
      <use x="60.818359" xlink:href="#DejaVuSans-101"/>
      <use x="122.341797" xlink:href="#DejaVuSans-114"/>
      <use x="163.439453" xlink:href="#DejaVuSans-109"/>
      <use x="260.851562" xlink:href="#DejaVuSans-105"/>
      <use x="288.634766" xlink:href="#DejaVuSans-110"/>
      <use x="352.013672" xlink:href="#DejaVuSans-97"/>
      <use x="413.292969" xlink:href="#DejaVuSans-108"/>
     </g>
    </g>
   </g>
   <g id="text_17">
    <g id="patch_18">
     <path clip-path="url(#p85f0c9fda2)" d="M 572.231209 428.012518 
L 572.231209 463.297518 
Q 572.231209 465.697518 574.631209 465.697518 
L 582.373709 465.697518 
Q 584.773709 465.697518 584.773709 463.297518 
L 584.773709 428.012518 
Q 584.773709 425.612518 582.373709 425.612518 
L 574.631209 425.612518 
Q 572.231209 425.612518 572.231209 428.012518 
z
" style="fill:#ffffff;stroke:#ffffff;stroke-linejoin:miter;"/>
    </g>
    <g clip-path="url(#p85f0c9fda2)">
     <!-- Terminal -->
     <g transform="translate(576.294959 428.012518)rotate(-270)scale(0.08 -0.08)">
      <use xlink:href="#DejaVuSans-84"/>
      <use x="60.818359" xlink:href="#DejaVuSans-101"/>
      <use x="122.341797" xlink:href="#DejaVuSans-114"/>
      <use x="163.439453" xlink:href="#DejaVuSans-109"/>
      <use x="260.851562" xlink:href="#DejaVuSans-105"/>
      <use x="288.634766" xlink:href="#DejaVuSans-110"/>
      <use x="352.013672" xlink:href="#DejaVuSans-97"/>
      <use x="413.292969" xlink:href="#DejaVuSans-108"/>
     </g>
    </g>
   </g>
   <g id="text_18">
    <g id="patch_19">
     <path clip-path="url(#p85f0c9fda2)" d="M 620.815772 428.012518 
L 620.815772 463.297518 
Q 620.815772 465.697518 623.215772 465.697518 
L 630.958272 465.697518 
Q 633.358272 465.697518 633.358272 463.297518 
L 633.358272 428.012518 
Q 633.358272 425.612518 630.958272 425.612518 
L 623.215772 425.612518 
Q 620.815772 425.612518 620.815772 428.012518 
z
" style="fill:#ffffff;stroke:#ffffff;stroke-linejoin:miter;"/>
    </g>
    <g clip-path="url(#p85f0c9fda2)">
     <!-- Terminal -->
     <g transform="translate(624.879522 428.012518)rotate(-270)scale(0.08 -0.08)">
      <use xlink:href="#DejaVuSans-84"/>
      <use x="60.818359" xlink:href="#DejaVuSans-101"/>
      <use x="122.341797" xlink:href="#DejaVuSans-114"/>
      <use x="163.439453" xlink:href="#DejaVuSans-109"/>
      <use x="260.851562" xlink:href="#DejaVuSans-105"/>
      <use x="288.634766" xlink:href="#DejaVuSans-110"/>
      <use x="352.013672" xlink:href="#DejaVuSans-97"/>
      <use x="413.292969" xlink:href="#DejaVuSans-108"/>
     </g>
    </g>
   </g>
   <g id="text_19">
    <g id="patch_20">
     <path clip-path="url(#p85f0c9fda2)" d="M 682.310068 339.749841 
L 685.422536 335.248641 
Q 686.787528 333.274611 684.813498 331.909619 
L 678.445195 327.506095 
Q 676.471165 326.141102 675.106172 328.115132 
L 671.993704 332.616332 
Q 670.628712 334.590362 672.602742 335.955355 
L 678.971045 340.358878 
Q 680.945075 341.723871 682.310068 339.749841 
z
" style="fill:#ffffff;stroke:#ffffff;stroke-linejoin:miter;"/>
    </g>
    <g clip-path="url(#p85f0c9fda2)">
     <!-- A -->
     <g transform="translate(678.967582 337.438596)rotate(-55.337103)scale(0.08 -0.08)">
      <use xlink:href="#DejaVuSans-65"/>
     </g>
    </g>
   </g>
   <g id="text_20">
    <g id="patch_21">
     <path clip-path="url(#p85f0c9fda2)" d="M 708.060337 338.353208 
L 709.718573 333.823437 
Q 710.543609 331.569704 708.289875 330.744668 
L 701.019236 328.083068 
Q 698.765502 327.258032 697.940466 329.511766 
L 696.28223 334.041536 
Q 695.457194 336.29527 697.710928 337.120305 
L 704.981567 339.781905 
Q 707.235301 340.606941 708.060337 338.353208 
z
" style="fill:#ffffff;stroke:#ffffff;stroke-linejoin:miter;"/>
    </g>
    <g clip-path="url(#p85f0c9fda2)">
     <!-- P -->
     <g transform="translate(704.244249 336.956233)rotate(-69.893579)scale(0.08 -0.08)">
      <use xlink:href="#DejaVuSans-80"/>
     </g>
    </g>
   </g>
   <g id="text_21">
    <g id="patch_22">
     <path clip-path="url(#p85f0c9fda2)" d="M 732.699502 295.681507 
L 733.98858 301.000015 
Q 734.553914 303.332481 736.88638 302.767148 
L 744.411012 300.943358 
Q 746.743479 300.378025 746.178145 298.045559 
L 744.889067 292.72705 
Q 744.323733 290.394584 741.991267 290.959918 
L 734.466635 292.783707 
Q 732.134169 293.34904 732.699502 295.681507 
z
" style="fill:#ffffff;stroke:#ffffff;stroke-linejoin:miter;"/>
    </g>
    <g clip-path="url(#p85f0c9fda2)">
     <!-- A -->
     <g transform="translate(736.648902 294.724267)rotate(-283.624377)scale(0.08 -0.08)">
      <use xlink:href="#DejaVuSans-65"/>
     </g>
    </g>
   </g>
   <g id="text_22">
    <g id="patch_23">
     <path clip-path="url(#p85f0c9fda2)" d="M 794.788157 301.089228 
L 799.60716 303.682578 
Q 801.720565 304.819909 802.857895 302.706504 
L 806.526971 295.888573 
Q 807.664302 293.775168 805.550897 292.637838 
L 800.731894 290.044487 
Q 798.618489 288.907156 797.481159 291.020561 
L 793.812083 297.838493 
Q 792.674753 299.951897 794.788157 301.089228 
z
" style="fill:#ffffff;stroke:#ffffff;stroke-linejoin:miter;"/>
    </g>
    <g clip-path="url(#p85f0c9fda2)">
     <!-- A -->
     <g transform="translate(796.713918 297.510749)rotate(-331.713045)scale(0.08 -0.08)">
      <use xlink:href="#DejaVuSans-65"/>
     </g>
    </g>
   </g>
   <g id="text_23">
    <g id="patch_24">
     <path clip-path="url(#p85f0c9fda2)" d="M 669.400335 428.012518 
L 669.400335 463.297518 
Q 669.400335 465.697518 671.800335 465.697518 
L 679.542835 465.697518 
Q 681.942835 465.697518 681.942835 463.297518 
L 681.942835 428.012518 
Q 681.942835 425.612518 679.542835 425.612518 
L 671.800335 425.612518 
Q 669.400335 425.612518 669.400335 428.012518 
z
" style="fill:#ffffff;stroke:#ffffff;stroke-linejoin:miter;"/>
    </g>
    <g clip-path="url(#p85f0c9fda2)">
     <!-- Terminal -->
     <g transform="translate(673.464085 428.012518)rotate(-270)scale(0.08 -0.08)">
      <use xlink:href="#DejaVuSans-84"/>
      <use x="60.818359" xlink:href="#DejaVuSans-101"/>
      <use x="122.341797" xlink:href="#DejaVuSans-114"/>
      <use x="163.439453" xlink:href="#DejaVuSans-109"/>
      <use x="260.851562" xlink:href="#DejaVuSans-105"/>
      <use x="288.634766" xlink:href="#DejaVuSans-110"/>
      <use x="352.013672" xlink:href="#DejaVuSans-97"/>
      <use x="413.292969" xlink:href="#DejaVuSans-108"/>
     </g>
    </g>
   </g>
   <g id="text_24">
    <g id="patch_25">
     <path clip-path="url(#p85f0c9fda2)" d="M 741.496351 376.111022 
L 743.227204 370.828612 
Q 743.974502 368.547923 741.693813 367.800624 
L 734.336213 365.389808 
Q 732.055524 364.642509 731.308225 366.923199 
L 729.577373 372.205609 
Q 728.830074 374.486298 731.110764 375.233597 
L 738.468363 377.644413 
Q 740.749053 378.391712 741.496351 376.111022 
z
" style="fill:#ffffff;stroke:#ffffff;stroke-linejoin:miter;"/>
    </g>
    <g clip-path="url(#p85f0c9fda2)">
     <!-- R -->
     <defs>
      <path d="M 44.390625 34.1875 
Q 47.5625 33.109375 50.5625 29.59375 
Q 53.5625 26.078125 56.59375 19.921875 
L 66.609375 0 
L 56 0 
L 46.6875 18.703125 
Q 43.0625 26.03125 39.671875 28.421875 
Q 36.28125 30.8125 30.421875 30.8125 
L 19.671875 30.8125 
L 19.671875 0 
L 9.8125 0 
L 9.8125 72.90625 
L 32.078125 72.90625 
Q 44.578125 72.90625 50.734375 67.671875 
Q 56.890625 62.453125 56.890625 51.90625 
Q 56.890625 45.015625 53.6875 40.46875 
Q 50.484375 35.9375 44.390625 34.1875 
z
M 19.671875 64.796875 
L 19.671875 38.921875 
L 32.078125 38.921875 
Q 39.203125 38.921875 42.84375 42.21875 
Q 46.484375 45.515625 46.484375 51.90625 
Q 46.484375 58.296875 42.84375 61.546875 
Q 39.203125 64.796875 32.078125 64.796875 
z
" id="DejaVuSans-82"/>
     </defs>
     <g transform="translate(737.634621 374.845674)rotate(-71.857922)scale(0.08 -0.08)">
      <use xlink:href="#DejaVuSans-82"/>
     </g>
    </g>
   </g>
   <g id="text_25">
    <g id="patch_26">
     <path clip-path="url(#p85f0c9fda2)" d="M 753.865373 370.815546 
L 755.604788 376.124089 
Q 756.352087 378.404778 758.632776 377.657479 
L 765.990376 375.246663 
Q 768.271065 374.499365 767.523767 372.218675 
L 765.784351 366.910133 
Q 765.037053 364.629443 762.756363 365.376742 
L 755.398764 367.787558 
Q 753.118074 368.534856 753.865373 370.815546 
z
" style="fill:#ffffff;stroke:#ffffff;stroke-linejoin:miter;"/>
    </g>
    <g clip-path="url(#p85f0c9fda2)">
     <!-- C -->
     <g transform="translate(757.727103 369.550198)rotate(-288.142078)scale(0.08 -0.08)">
      <use xlink:href="#DejaVuSans-67"/>
     </g>
    </g>
   </g>
   <g id="text_26">
    <g id="patch_27">
     <path clip-path="url(#p85f0c9fda2)" d="M 849.439419 377.279162 
L 852.486262 372.629812 
Q 853.801742 370.622448 851.794377 369.306968 
L 845.318536 365.063175 
Q 843.311171 363.747695 841.995691 365.755059 
L 838.948848 370.404409 
Q 837.633368 372.411773 839.640732 373.727253 
L 846.116574 377.971046 
Q 848.123939 379.286526 849.439419 377.279162 
z
" style="fill:#ffffff;stroke:#ffffff;stroke-linejoin:miter;"/>
    </g>
    <g clip-path="url(#p85f0c9fda2)">
     <!-- R -->
     <g transform="translate(846.04049 375.051753)rotate(-56.762098)scale(0.08 -0.08)">
      <use xlink:href="#DejaVuSans-82"/>
     </g>
    </g>
   </g>
   <g id="text_27">
    <g id="patch_28">
     <path clip-path="url(#p85f0c9fda2)" d="M 863.738586 368.723986 
L 863.738586 374.310236 
Q 863.738586 376.710236 866.138586 376.710236 
L 873.881086 376.710236 
Q 876.281086 376.710236 876.281086 374.310236 
L 876.281086 368.723986 
Q 876.281086 366.323986 873.881086 366.323986 
L 866.138586 366.323986 
Q 863.738586 366.323986 863.738586 368.723986 
z
" style="fill:#ffffff;stroke:#ffffff;stroke-linejoin:miter;"/>
    </g>
    <g clip-path="url(#p85f0c9fda2)">
     <!-- C -->
     <g transform="translate(867.802336 368.723986)rotate(-270)scale(0.08 -0.08)">
      <use xlink:href="#DejaVuSans-67"/>
     </g>
    </g>
   </g>
   <g id="text_28">
    <g id="patch_29">
     <path clip-path="url(#p85f0c9fda2)" d="M 887.452221 372.50592 
L 890.661444 377.403054 
Q 891.976924 379.410418 893.984288 378.094938 
L 900.46013 373.851145 
Q 902.467494 372.535665 901.152015 370.528301 
L 897.942792 365.631167 
Q 896.627312 363.623803 894.619947 364.939283 
L 888.144105 369.183076 
Q 886.136741 370.498556 887.452221 372.50592 
z
" style="fill:#ffffff;stroke:#ffffff;stroke-linejoin:miter;"/>
    </g>
    <g clip-path="url(#p85f0c9fda2)">
     <!-- U -->
     <defs>
      <path d="M 8.6875 72.90625 
L 18.609375 72.90625 
L 18.609375 28.609375 
Q 18.609375 16.890625 22.84375 11.734375 
Q 27.09375 6.59375 36.625 6.59375 
Q 46.09375 6.59375 50.34375 11.734375 
Q 54.59375 16.890625 54.59375 28.609375 
L 54.59375 72.90625 
L 64.5 72.90625 
L 64.5 27.390625 
Q 64.5 13.140625 57.4375 5.859375 
Q 50.390625 -1.421875 36.625 -1.421875 
Q 22.796875 -1.421875 15.734375 5.859375 
Q 8.6875 13.140625 8.6875 27.390625 
z
" id="DejaVuSans-85"/>
     </defs>
     <g transform="translate(890.851149 370.278511)rotate(-303.237902)scale(0.08 -0.08)">
      <use xlink:href="#DejaVuSans-85"/>
     </g>
    </g>
   </g>
   <g id="text_29">
    <g id="patch_30">
     <path clip-path="url(#p85f0c9fda2)" d="M 815.154023 428.012518 
L 815.154023 463.297518 
Q 815.154023 465.697518 817.554023 465.697518 
L 825.296523 465.697518 
Q 827.696523 465.697518 827.696523 463.297518 
L 827.696523 428.012518 
Q 827.696523 425.612518 825.296523 425.612518 
L 817.554023 425.612518 
Q 815.154023 425.612518 815.154023 428.012518 
z
" style="fill:#ffffff;stroke:#ffffff;stroke-linejoin:miter;"/>
    </g>
    <g clip-path="url(#p85f0c9fda2)">
     <!-- Terminal -->
     <g transform="translate(819.217773 428.012518)rotate(-270)scale(0.08 -0.08)">
      <use xlink:href="#DejaVuSans-84"/>
      <use x="60.818359" xlink:href="#DejaVuSans-101"/>
      <use x="122.341797" xlink:href="#DejaVuSans-114"/>
      <use x="163.439453" xlink:href="#DejaVuSans-109"/>
      <use x="260.851562" xlink:href="#DejaVuSans-105"/>
      <use x="288.634766" xlink:href="#DejaVuSans-110"/>
      <use x="352.013672" xlink:href="#DejaVuSans-97"/>
      <use x="413.292969" xlink:href="#DejaVuSans-108"/>
     </g>
    </g>
   </g>
   <g id="text_30">
    <g id="patch_31">
     <path clip-path="url(#p85f0c9fda2)" d="M 863.738586 428.012518 
L 863.738586 463.297518 
Q 863.738586 465.697518 866.138586 465.697518 
L 873.881086 465.697518 
Q 876.281086 465.697518 876.281086 463.297518 
L 876.281086 428.012518 
Q 876.281086 425.612518 873.881086 425.612518 
L 866.138586 425.612518 
Q 863.738586 425.612518 863.738586 428.012518 
z
" style="fill:#ffffff;stroke:#ffffff;stroke-linejoin:miter;"/>
    </g>
    <g clip-path="url(#p85f0c9fda2)">
     <!-- Terminal -->
     <g transform="translate(867.802336 428.012518)rotate(-270)scale(0.08 -0.08)">
      <use xlink:href="#DejaVuSans-84"/>
      <use x="60.818359" xlink:href="#DejaVuSans-101"/>
      <use x="122.341797" xlink:href="#DejaVuSans-114"/>
      <use x="163.439453" xlink:href="#DejaVuSans-109"/>
      <use x="260.851562" xlink:href="#DejaVuSans-105"/>
      <use x="288.634766" xlink:href="#DejaVuSans-110"/>
      <use x="352.013672" xlink:href="#DejaVuSans-97"/>
      <use x="413.292969" xlink:href="#DejaVuSans-108"/>
     </g>
    </g>
   </g>
   <g id="text_31">
    <g id="patch_32">
     <path clip-path="url(#p85f0c9fda2)" d="M 717.984898 428.012518 
L 717.984898 463.297518 
Q 717.984898 465.697518 720.384898 465.697518 
L 728.127398 465.697518 
Q 730.527398 465.697518 730.527398 463.297518 
L 730.527398 428.012518 
Q 730.527398 425.612518 728.127398 425.612518 
L 720.384898 425.612518 
Q 717.984898 425.612518 717.984898 428.012518 
z
" style="fill:#ffffff;stroke:#ffffff;stroke-linejoin:miter;"/>
    </g>
    <g clip-path="url(#p85f0c9fda2)">
     <!-- Terminal -->
     <g transform="translate(722.048648 428.012518)rotate(-270)scale(0.08 -0.08)">
      <use xlink:href="#DejaVuSans-84"/>
      <use x="60.818359" xlink:href="#DejaVuSans-101"/>
      <use x="122.341797" xlink:href="#DejaVuSans-114"/>
      <use x="163.439453" xlink:href="#DejaVuSans-109"/>
      <use x="260.851562" xlink:href="#DejaVuSans-105"/>
      <use x="288.634766" xlink:href="#DejaVuSans-110"/>
      <use x="352.013672" xlink:href="#DejaVuSans-97"/>
      <use x="413.292969" xlink:href="#DejaVuSans-108"/>
     </g>
    </g>
   </g>
   <g id="text_32">
    <g id="patch_33">
     <path clip-path="url(#p85f0c9fda2)" d="M 766.56946 428.012518 
L 766.56946 463.297518 
Q 766.56946 465.697518 768.96946 465.697518 
L 776.71196 465.697518 
Q 779.11196 465.697518 779.11196 463.297518 
L 779.11196 428.012518 
Q 779.11196 425.612518 776.71196 425.612518 
L 768.96946 425.612518 
Q 766.56946 425.612518 766.56946 428.012518 
z
" style="fill:#ffffff;stroke:#ffffff;stroke-linejoin:miter;"/>
    </g>
    <g clip-path="url(#p85f0c9fda2)">
     <!-- Terminal -->
     <g transform="translate(770.63321 428.012518)rotate(-270)scale(0.08 -0.08)">
      <use xlink:href="#DejaVuSans-84"/>
      <use x="60.818359" xlink:href="#DejaVuSans-101"/>
      <use x="122.341797" xlink:href="#DejaVuSans-114"/>
      <use x="163.439453" xlink:href="#DejaVuSans-109"/>
      <use x="260.851562" xlink:href="#DejaVuSans-105"/>
      <use x="288.634766" xlink:href="#DejaVuSans-110"/>
      <use x="352.013672" xlink:href="#DejaVuSans-97"/>
      <use x="413.292969" xlink:href="#DejaVuSans-108"/>
     </g>
    </g>
   </g>
   <g id="text_33">
    <g id="patch_34">
     <path clip-path="url(#p85f0c9fda2)" d="M 72.22447 377.068493 
L 74.995199 372.840481 
Q 76.310679 370.833117 74.303315 369.517637 
L 67.827473 365.273844 
Q 65.820108 363.958364 64.504628 365.965728 
L 61.733899 370.19374 
Q 60.418419 372.201104 62.425783 373.516584 
L 68.901625 377.760377 
Q 70.90899 379.075857 72.22447 377.068493 
z
" style="fill:#ffffff;stroke:#ffffff;stroke-linejoin:miter;"/>
    </g>
    <g clip-path="url(#p85f0c9fda2)">
     <!-- E -->
     <g transform="translate(68.825541 374.841084)rotate(-56.762098)scale(0.08 -0.08)">
      <use xlink:href="#DejaVuSans-69"/>
     </g>
    </g>
   </g>
   <g id="text_34">
    <g id="patch_35">
     <path clip-path="url(#p85f0c9fda2)" d="M 86.38558 368.989611 
L 86.38558 374.044611 
Q 86.38558 376.444611 88.78558 376.444611 
L 96.52808 376.444611 
Q 98.92808 376.444611 98.92808 374.044611 
L 98.92808 368.989611 
Q 98.92808 366.589611 96.52808 366.589611 
L 88.78558 366.589611 
Q 86.38558 366.589611 86.38558 368.989611 
z
" style="fill:#ffffff;stroke:#ffffff;stroke-linejoin:miter;"/>
    </g>
    <g clip-path="url(#p85f0c9fda2)">
     <!-- E -->
     <g transform="translate(90.44933 368.989611)rotate(-270)scale(0.08 -0.08)">
      <use xlink:href="#DejaVuSans-69"/>
     </g>
    </g>
   </g>
   <g id="text_35">
    <g id="patch_36">
     <path clip-path="url(#p85f0c9fda2)" d="M 110.172868 372.618312 
L 113.234785 377.290662 
Q 114.550265 379.298027 116.557629 377.982547 
L 123.033471 373.738754 
Q 125.040836 372.423274 123.725356 370.415909 
L 120.663439 365.743559 
Q 119.347959 363.736194 117.340595 365.051674 
L 110.864753 369.295467 
Q 108.857388 370.610947 110.172868 372.618312 
z
" style="fill:#ffffff;stroke:#ffffff;stroke-linejoin:miter;"/>
    </g>
    <g clip-path="url(#p85f0c9fda2)">
     <!-- C -->
     <g transform="translate(113.571796 370.390903)rotate(-303.237902)scale(0.08 -0.08)">
      <use xlink:href="#DejaVuSans-67"/>
     </g>
    </g>
   </g>
   <g id="text_36">
    <g id="patch_37">
     <path clip-path="url(#p85f0c9fda2)" d="M 202.438163 464.373169 
L 213.425009 430.842281 
Q 214.172308 428.561592 211.891618 427.814293 
L 204.534019 425.403477 
Q 202.253329 424.656178 201.50603 426.936868 
L 190.519185 460.467756 
Q 189.771886 462.748445 192.052576 463.495744 
L 199.410175 465.90656 
Q 201.690865 466.653859 202.438163 464.373169 
z
" style="fill:#ffffff;stroke:#ffffff;stroke-linejoin:miter;"/>
    </g>
    <g clip-path="url(#p85f0c9fda2)">
     <!-- Terminal -->
     <g transform="translate(198.576433 463.107821)rotate(-71.857922)scale(0.08 -0.08)">
      <use xlink:href="#DejaVuSans-84"/>
      <use x="60.818359" xlink:href="#DejaVuSans-101"/>
      <use x="122.341797" xlink:href="#DejaVuSans-114"/>
      <use x="163.439453" xlink:href="#DejaVuSans-109"/>
      <use x="260.851562" xlink:href="#DejaVuSans-105"/>
      <use x="288.634766" xlink:href="#DejaVuSans-110"/>
      <use x="352.013672" xlink:href="#DejaVuSans-97"/>
      <use x="413.292969" xlink:href="#DejaVuSans-108"/>
     </g>
    </g>
   </g>
   <g id="text_37">
    <g id="patch_38">
     <path clip-path="url(#p85f0c9fda2)" d="M 214.811466 430.842281 
L 225.798312 464.373169 
Q 226.54561 466.653859 228.8263 465.90656 
L 236.1839 463.495744 
Q 238.464589 462.748445 237.717291 460.467756 
L 226.730445 426.936868 
Q 225.983146 424.656178 223.702457 425.403477 
L 216.344857 427.814293 
Q 214.064168 428.561592 214.811466 430.842281 
z
" style="fill:#ffffff;stroke:#ffffff;stroke-linejoin:miter;"/>
    </g>
    <g clip-path="url(#p85f0c9fda2)">
     <!-- Terminal -->
     <g transform="translate(218.673196 429.576933)rotate(-288.142078)scale(0.08 -0.08)">
      <use xlink:href="#DejaVuSans-84"/>
      <use x="60.818359" xlink:href="#DejaVuSans-101"/>
      <use x="122.341797" xlink:href="#DejaVuSans-114"/>
      <use x="163.439453" xlink:href="#DejaVuSans-109"/>
      <use x="260.851562" xlink:href="#DejaVuSans-105"/>
      <use x="288.634766" xlink:href="#DejaVuSans-110"/>
      <use x="352.013672" xlink:href="#DejaVuSans-97"/>
      <use x="413.292969" xlink:href="#DejaVuSans-108"/>
     </g>
    </g>
   </g>
   <g id="text_38">
    <g id="patch_39">
     <path clip-path="url(#p85f0c9fda2)" d="M 315.009227 377.279162 
L 318.05607 372.629812 
Q 319.37155 370.622448 317.364186 369.306968 
L 310.888344 365.063175 
Q 308.880979 363.747695 307.5655 365.755059 
L 304.518656 370.404409 
Q 303.203176 372.411773 305.210541 373.727253 
L 311.686383 377.971046 
Q 313.693747 379.286526 315.009227 377.279162 
z
" style="fill:#ffffff;stroke:#ffffff;stroke-linejoin:miter;"/>
    </g>
    <g clip-path="url(#p85f0c9fda2)">
     <!-- R -->
     <g transform="translate(311.610299 375.051753)rotate(-56.762098)scale(0.08 -0.08)">
      <use xlink:href="#DejaVuSans-82"/>
     </g>
    </g>
   </g>
   <g id="text_39">
    <g id="patch_40">
     <path clip-path="url(#p85f0c9fda2)" d="M 329.308395 368.989611 
L 329.308395 374.044611 
Q 329.308395 376.444611 331.708395 376.444611 
L 339.450895 376.444611 
Q 341.850895 376.444611 341.850895 374.044611 
L 341.850895 368.989611 
Q 341.850895 366.589611 339.450895 366.589611 
L 331.708395 366.589611 
Q 329.308395 366.589611 329.308395 368.989611 
z
" style="fill:#ffffff;stroke:#ffffff;stroke-linejoin:miter;"/>
    </g>
    <g clip-path="url(#p85f0c9fda2)">
     <!-- E -->
     <g transform="translate(333.372145 368.989611)rotate(-270)scale(0.08 -0.08)">
      <use xlink:href="#DejaVuSans-69"/>
     </g>
    </g>
   </g>
   <g id="text_40">
    <g id="patch_41">
     <path clip-path="url(#p85f0c9fda2)" d="M 353.095682 372.618312 
L 356.157599 377.290662 
Q 357.473079 379.298027 359.480444 377.982547 
L 365.956285 373.738754 
Q 367.96365 372.423274 366.64817 370.415909 
L 363.586253 365.743559 
Q 362.270773 363.736194 360.263409 365.051674 
L 353.787567 369.295467 
Q 351.780203 370.610947 353.095682 372.618312 
z
" style="fill:#ffffff;stroke:#ffffff;stroke-linejoin:miter;"/>
    </g>
    <g clip-path="url(#p85f0c9fda2)">
     <!-- C -->
     <g transform="translate(356.494611 370.390903)rotate(-303.237902)scale(0.08 -0.08)">
      <use xlink:href="#DejaVuSans-67"/>
     </g>
    </g>
   </g>
   <g id="text_41">
    <g id="patch_42">
     <path clip-path="url(#p85f0c9fda2)" d="M 280.723832 428.012518 
L 280.723832 463.297518 
Q 280.723832 465.697518 283.123832 465.697518 
L 290.866332 465.697518 
Q 293.266332 465.697518 293.266332 463.297518 
L 293.266332 428.012518 
Q 293.266332 425.612518 290.866332 425.612518 
L 283.123832 425.612518 
Q 280.723832 425.612518 280.723832 428.012518 
z
" style="fill:#ffffff;stroke:#ffffff;stroke-linejoin:miter;"/>
    </g>
    <g clip-path="url(#p85f0c9fda2)">
     <!-- Terminal -->
     <g transform="translate(284.787582 428.012518)rotate(-270)scale(0.08 -0.08)">
      <use xlink:href="#DejaVuSans-84"/>
      <use x="60.818359" xlink:href="#DejaVuSans-101"/>
      <use x="122.341797" xlink:href="#DejaVuSans-114"/>
      <use x="163.439453" xlink:href="#DejaVuSans-109"/>
      <use x="260.851562" xlink:href="#DejaVuSans-105"/>
      <use x="288.634766" xlink:href="#DejaVuSans-110"/>
      <use x="352.013672" xlink:href="#DejaVuSans-97"/>
      <use x="413.292969" xlink:href="#DejaVuSans-108"/>
     </g>
    </g>
   </g>
   <g id="text_42">
    <g id="patch_43">
     <path clip-path="url(#p85f0c9fda2)" d="M 329.308395 428.012518 
L 329.308395 463.297518 
Q 329.308395 465.697518 331.708395 465.697518 
L 339.450895 465.697518 
Q 341.850895 465.697518 341.850895 463.297518 
L 341.850895 428.012518 
Q 341.850895 425.612518 339.450895 425.612518 
L 331.708395 425.612518 
Q 329.308395 425.612518 329.308395 428.012518 
z
" style="fill:#ffffff;stroke:#ffffff;stroke-linejoin:miter;"/>
    </g>
    <g clip-path="url(#p85f0c9fda2)">
     <!-- Terminal -->
     <g transform="translate(333.372145 428.012518)rotate(-270)scale(0.08 -0.08)">
      <use xlink:href="#DejaVuSans-84"/>
      <use x="60.818359" xlink:href="#DejaVuSans-101"/>
      <use x="122.341797" xlink:href="#DejaVuSans-114"/>
      <use x="163.439453" xlink:href="#DejaVuSans-109"/>
      <use x="260.851562" xlink:href="#DejaVuSans-105"/>
      <use x="288.634766" xlink:href="#DejaVuSans-110"/>
      <use x="352.013672" xlink:href="#DejaVuSans-97"/>
      <use x="413.292969" xlink:href="#DejaVuSans-108"/>
     </g>
    </g>
   </g>
   <g id="text_43">
    <g id="patch_44">
     <path clip-path="url(#p85f0c9fda2)" d="M 377.892958 428.012518 
L 377.892958 463.297518 
Q 377.892958 465.697518 380.292958 465.697518 
L 388.035458 465.697518 
Q 390.435458 465.697518 390.435458 463.297518 
L 390.435458 428.012518 
Q 390.435458 425.612518 388.035458 425.612518 
L 380.292958 425.612518 
Q 377.892958 425.612518 377.892958 428.012518 
z
" style="fill:#ffffff;stroke:#ffffff;stroke-linejoin:miter;"/>
    </g>
    <g clip-path="url(#p85f0c9fda2)">
     <!-- Terminal -->
     <g transform="translate(381.956708 428.012518)rotate(-270)scale(0.08 -0.08)">
      <use xlink:href="#DejaVuSans-84"/>
      <use x="60.818359" xlink:href="#DejaVuSans-101"/>
      <use x="122.341797" xlink:href="#DejaVuSans-114"/>
      <use x="163.439453" xlink:href="#DejaVuSans-109"/>
      <use x="260.851562" xlink:href="#DejaVuSans-105"/>
      <use x="288.634766" xlink:href="#DejaVuSans-110"/>
      <use x="352.013672" xlink:href="#DejaVuSans-97"/>
      <use x="413.292969" xlink:href="#DejaVuSans-108"/>
     </g>
    </g>
   </g>
   <g id="text_44">
    <g id="patch_45">
     <path clip-path="url(#p85f0c9fda2)" d="M 37.801018 428.012518 
L 37.801018 463.297518 
Q 37.801018 465.697518 40.201018 465.697518 
L 47.943518 465.697518 
Q 50.343518 465.697518 50.343518 463.297518 
L 50.343518 428.012518 
Q 50.343518 425.612518 47.943518 425.612518 
L 40.201018 425.612518 
Q 37.801018 425.612518 37.801018 428.012518 
z
" style="fill:#ffffff;stroke:#ffffff;stroke-linejoin:miter;"/>
    </g>
    <g clip-path="url(#p85f0c9fda2)">
     <!-- Terminal -->
     <g transform="translate(41.864768 428.012518)rotate(-270)scale(0.08 -0.08)">
      <use xlink:href="#DejaVuSans-84"/>
      <use x="60.818359" xlink:href="#DejaVuSans-101"/>
      <use x="122.341797" xlink:href="#DejaVuSans-114"/>
      <use x="163.439453" xlink:href="#DejaVuSans-109"/>
      <use x="260.851562" xlink:href="#DejaVuSans-105"/>
      <use x="288.634766" xlink:href="#DejaVuSans-110"/>
      <use x="352.013672" xlink:href="#DejaVuSans-97"/>
      <use x="413.292969" xlink:href="#DejaVuSans-108"/>
     </g>
    </g>
   </g>
   <g id="text_45">
    <g id="patch_46">
     <path clip-path="url(#p85f0c9fda2)" d="M 86.38558 428.012518 
L 86.38558 463.297518 
Q 86.38558 465.697518 88.78558 465.697518 
L 96.52808 465.697518 
Q 98.92808 465.697518 98.92808 463.297518 
L 98.92808 428.012518 
Q 98.92808 425.612518 96.52808 425.612518 
L 88.78558 425.612518 
Q 86.38558 425.612518 86.38558 428.012518 
z
" style="fill:#ffffff;stroke:#ffffff;stroke-linejoin:miter;"/>
    </g>
    <g clip-path="url(#p85f0c9fda2)">
     <!-- Terminal -->
     <g transform="translate(90.44933 428.012518)rotate(-270)scale(0.08 -0.08)">
      <use xlink:href="#DejaVuSans-84"/>
      <use x="60.818359" xlink:href="#DejaVuSans-101"/>
      <use x="122.341797" xlink:href="#DejaVuSans-114"/>
      <use x="163.439453" xlink:href="#DejaVuSans-109"/>
      <use x="260.851562" xlink:href="#DejaVuSans-105"/>
      <use x="288.634766" xlink:href="#DejaVuSans-110"/>
      <use x="352.013672" xlink:href="#DejaVuSans-97"/>
      <use x="413.292969" xlink:href="#DejaVuSans-108"/>
     </g>
    </g>
   </g>
   <g id="text_46">
    <g id="patch_47">
     <path clip-path="url(#p85f0c9fda2)" d="M 134.970143 428.012518 
L 134.970143 463.297518 
Q 134.970143 465.697518 137.370143 465.697518 
L 145.112643 465.697518 
Q 147.512643 465.697518 147.512643 463.297518 
L 147.512643 428.012518 
Q 147.512643 425.612518 145.112643 425.612518 
L 137.370143 425.612518 
Q 134.970143 425.612518 134.970143 428.012518 
z
" style="fill:#ffffff;stroke:#ffffff;stroke-linejoin:miter;"/>
    </g>
    <g clip-path="url(#p85f0c9fda2)">
     <!-- Terminal -->
     <g transform="translate(139.033893 428.012518)rotate(-270)scale(0.08 -0.08)">
      <use xlink:href="#DejaVuSans-84"/>
      <use x="60.818359" xlink:href="#DejaVuSans-101"/>
      <use x="122.341797" xlink:href="#DejaVuSans-114"/>
      <use x="163.439453" xlink:href="#DejaVuSans-109"/>
      <use x="260.851562" xlink:href="#DejaVuSans-105"/>
      <use x="288.634766" xlink:href="#DejaVuSans-110"/>
      <use x="352.013672" xlink:href="#DejaVuSans-97"/>
      <use x="413.292969" xlink:href="#DejaVuSans-108"/>
     </g>
    </g>
   </g>
   <g id="text_47">
    <g id="patch_48">
     <path clip-path="url(#p85f0c9fda2)" d="M 286.575472 149.077761 
L 291.631448 140.528395 
Q 292.853128 138.462602 290.787336 137.240922 
L 284.123004 133.29973 
Q 282.057212 132.07805 280.835532 134.143842 
L 275.779557 142.693209 
Q 274.557876 144.759001 276.623668 145.980681 
L 283.288 149.921873 
Q 285.353792 151.143553 286.575472 149.077761 
z
" style="fill:#ffffff;stroke:#ffffff;stroke-linejoin:miter;"/>
    </g>
    <g clip-path="url(#p85f0c9fda2)">
     <!-- LA -->
     <g transform="translate(283.077613 147.009176)rotate(-59.400527)scale(0.08 -0.08)">
      <use xlink:href="#DejaVuSans-76"/>
      <use x="55.744141" xlink:href="#DejaVuSans-65"/>
     </g>
    </g>
   </g>
   <g id="text_48">
    <g id="patch_49">
     <path clip-path="url(#p85f0c9fda2)" d="M 385.866044 212.628474 
L 387.892326 222.437625 
Q 388.377844 224.788002 390.728221 224.302484 
L 398.310635 222.73618 
Q 400.661012 222.250661 400.175493 219.900284 
L 398.149211 210.091133 
Q 397.663693 207.740756 395.313316 208.226275 
L 387.730902 209.792579 
Q 385.380525 210.278097 385.866044 212.628474 
z
" style="fill:#ffffff;stroke:#ffffff;stroke-linejoin:miter;"/>
    </g>
    <g clip-path="url(#p85f0c9fda2)">
     <!-- LR -->
     <g transform="translate(389.84577 211.80638)rotate(-281.671458)scale(0.08 -0.08)">
      <use xlink:href="#DejaVuSans-76"/>
      <use x="55.712891" xlink:href="#DejaVuSans-82"/>
     </g>
    </g>
   </g>
   <g id="text_49">
    <g id="patch_50">
     <path clip-path="url(#p85f0c9fda2)" d="M 375.156279 63.875901 
L 381.080844 71.847982 
Q 382.512403 73.774284 384.438705 72.342726 
L 390.653036 67.724458 
Q 392.579338 66.292899 391.147779 64.366597 
L 385.223214 56.394515 
Q 383.791655 54.468213 381.865353 55.899772 
L 375.651022 60.51804 
Q 373.72472 61.949599 375.156279 63.875901 
z
" style="fill:#ffffff;stroke:#ffffff;stroke-linejoin:miter;"/>
    </g>
    <g clip-path="url(#p85f0c9fda2)">
     <!-- LA -->
     <g transform="translate(378.41795 61.451944)rotate(-306.618409)scale(0.08 -0.08)">
      <use xlink:href="#DejaVuSans-76"/>
      <use x="55.744141" xlink:href="#DejaVuSans-65"/>
     </g>
    </g>
   </g>
   <g id="text_50">
    <g id="patch_51">
     <path clip-path="url(#p85f0c9fda2)" d="M 912.323149 428.012518 
L 912.323149 463.297518 
Q 912.323149 465.697518 914.723149 465.697518 
L 922.465649 465.697518 
Q 924.865649 465.697518 924.865649 463.297518 
L 924.865649 428.012518 
Q 924.865649 425.612518 922.465649 425.612518 
L 914.723149 425.612518 
Q 912.323149 425.612518 912.323149 428.012518 
z
" style="fill:#ffffff;stroke:#ffffff;stroke-linejoin:miter;"/>
    </g>
    <g clip-path="url(#p85f0c9fda2)">
     <!-- Terminal -->
     <g transform="translate(916.386899 428.012518)rotate(-270)scale(0.08 -0.08)">
      <use xlink:href="#DejaVuSans-84"/>
      <use x="60.818359" xlink:href="#DejaVuSans-101"/>
      <use x="122.341797" xlink:href="#DejaVuSans-114"/>
      <use x="163.439453" xlink:href="#DejaVuSans-109"/>
      <use x="260.851562" xlink:href="#DejaVuSans-105"/>
      <use x="288.634766" xlink:href="#DejaVuSans-110"/>
      <use x="352.013672" xlink:href="#DejaVuSans-97"/>
      <use x="413.292969" xlink:href="#DejaVuSans-108"/>
     </g>
    </g>
   </g>
   <g id="PathCollection_1">
    <defs>
     <path d="M 0 8.660254 
C 2.296726 8.660254 4.499694 7.747755 6.123724 6.123724 
C 7.747755 4.499694 8.660254 2.296726 8.660254 0 
C 8.660254 -2.296726 7.747755 -4.499694 6.123724 -6.123724 
C 4.499694 -7.747755 2.296726 -8.660254 0 -8.660254 
C -2.296726 -8.660254 -4.499694 -7.747755 -6.123724 -6.123724 
C -7.747755 -4.499694 -8.660254 -2.296726 -8.660254 0 
C -8.660254 2.296726 -7.747755 4.499694 -6.123724 6.123724 
C -4.499694 7.747755 -2.296726 8.660254 0 8.660254 
z
" id="C0_0_6f7d0c6c22"/>
    </defs>
    <g clip-path="url(#p85f0c9fda2)">
     <use style="fill:#ffffff;stroke:#ffffff;" x="44.072268" xlink:href="#C0_0_6f7d0c6c22" y="482.723972"/>
    </g>
    <g clip-path="url(#p85f0c9fda2)">
     <use style="fill:#ffffff;stroke:#ffffff;" x="92.65683" xlink:href="#C0_0_6f7d0c6c22" y="482.723972"/>
    </g>
    <g clip-path="url(#p85f0c9fda2)">
     <use style="fill:#ffffff;stroke:#ffffff;" x="141.241393" xlink:href="#C0_0_6f7d0c6c22" y="482.723972"/>
    </g>
    <g clip-path="url(#p85f0c9fda2)">
     <use style="fill:#ffffff;stroke:#ffffff;" x="189.825956" xlink:href="#C0_0_6f7d0c6c22" y="482.723972"/>
    </g>
    <g clip-path="url(#p85f0c9fda2)">
     <use style="fill:#ffffff;stroke:#ffffff;" x="238.410519" xlink:href="#C0_0_6f7d0c6c22" y="482.723972"/>
    </g>
    <g clip-path="url(#p85f0c9fda2)">
     <use style="fill:#ffffff;stroke:#ffffff;" x="286.995082" xlink:href="#C0_0_6f7d0c6c22" y="482.723972"/>
    </g>
    <g clip-path="url(#p85f0c9fda2)">
     <use style="fill:#ffffff;stroke:#ffffff;" x="335.579645" xlink:href="#C0_0_6f7d0c6c22" y="482.723972"/>
    </g>
    <g clip-path="url(#p85f0c9fda2)">
     <use style="fill:#ffffff;stroke:#ffffff;" x="384.164208" xlink:href="#C0_0_6f7d0c6c22" y="482.723972"/>
    </g>
    <g clip-path="url(#p85f0c9fda2)">
     <use style="fill:#ffffff;stroke:#ffffff;" x="432.74877" xlink:href="#C0_0_6f7d0c6c22" y="482.723972"/>
    </g>
    <g clip-path="url(#p85f0c9fda2)">
     <use style="fill:#ffffff;stroke:#ffffff;" x="481.333333" xlink:href="#C0_0_6f7d0c6c22" y="482.723972"/>
    </g>
    <g clip-path="url(#p85f0c9fda2)">
     <use style="fill:#ffffff;stroke:#ffffff;" x="529.917896" xlink:href="#C0_0_6f7d0c6c22" y="482.723972"/>
    </g>
    <g clip-path="url(#p85f0c9fda2)">
     <use style="fill:#ffffff;stroke:#ffffff;" x="578.502459" xlink:href="#C0_0_6f7d0c6c22" y="482.723972"/>
    </g>
    <g clip-path="url(#p85f0c9fda2)">
     <use style="fill:#ffffff;stroke:#ffffff;" x="627.087022" xlink:href="#C0_0_6f7d0c6c22" y="482.723972"/>
    </g>
    <g clip-path="url(#p85f0c9fda2)">
     <use style="fill:#ffffff;stroke:#ffffff;" x="675.671585" xlink:href="#C0_0_6f7d0c6c22" y="482.723972"/>
    </g>
    <g clip-path="url(#p85f0c9fda2)">
     <use style="fill:#ffffff;stroke:#ffffff;" x="724.256148" xlink:href="#C0_0_6f7d0c6c22" y="482.723972"/>
    </g>
    <g clip-path="url(#p85f0c9fda2)">
     <use style="fill:#ffffff;stroke:#ffffff;" x="772.84071" xlink:href="#C0_0_6f7d0c6c22" y="482.723972"/>
    </g>
    <g clip-path="url(#p85f0c9fda2)">
     <use style="fill:#ffffff;stroke:#ffffff;" x="821.425273" xlink:href="#C0_0_6f7d0c6c22" y="482.723972"/>
    </g>
    <g clip-path="url(#p85f0c9fda2)">
     <use style="fill:#ffffff;stroke:#ffffff;" x="870.009836" xlink:href="#C0_0_6f7d0c6c22" y="482.723972"/>
    </g>
    <g clip-path="url(#p85f0c9fda2)">
     <use style="fill:#ffffff;stroke:#ffffff;" x="918.594399" xlink:href="#C0_0_6f7d0c6c22" y="482.723972"/>
    </g>
    <g clip-path="url(#p85f0c9fda2)">
     <use style="fill:#ffffff;stroke:#ffffff;" x="353.292767" xlink:href="#C0_0_6f7d0c6c22" y="23.942694"/>
    </g>
    <g clip-path="url(#p85f0c9fda2)">
     <use style="fill:#ffffff;stroke:#ffffff;" x="214.118238" xlink:href="#C0_0_6f7d0c6c22" y="259.278909"/>
    </g>
    <g clip-path="url(#p85f0c9fda2)">
     <use style="fill:#ffffff;stroke:#ffffff;" x="432.74877" xlink:href="#C0_0_6f7d0c6c22" y="408.586064"/>
    </g>
    <g clip-path="url(#p85f0c9fda2)">
     <use style="fill:#ffffff;stroke:#ffffff;" x="413.011292" xlink:href="#C0_0_6f7d0c6c22" y="104.299803"/>
    </g>
    <g clip-path="url(#p85f0c9fda2)">
     <use style="fill:#ffffff;stroke:#ffffff;" x="481.333333" xlink:href="#C0_0_6f7d0c6c22" y="408.586064"/>
    </g>
    <g clip-path="url(#p85f0c9fda2)">
     <use style="fill:#ffffff;stroke:#ffffff;" x="616.459149" xlink:href="#C0_0_6f7d0c6c22" y="182.66222"/>
    </g>
    <g clip-path="url(#p85f0c9fda2)">
     <use style="fill:#ffffff;stroke:#ffffff;" x="529.917896" xlink:href="#C0_0_6f7d0c6c22" y="408.586064"/>
    </g>
    <g clip-path="url(#p85f0c9fda2)">
     <use style="fill:#ffffff;stroke:#ffffff;" x="578.502459" xlink:href="#C0_0_6f7d0c6c22" y="408.586064"/>
    </g>
    <g clip-path="url(#p85f0c9fda2)">
     <use style="fill:#ffffff;stroke:#ffffff;" x="627.087022" xlink:href="#C0_0_6f7d0c6c22" y="408.586064"/>
    </g>
    <g clip-path="url(#p85f0c9fda2)">
     <use style="fill:#ffffff;stroke:#ffffff;" x="730.329218" xlink:href="#C0_0_6f7d0c6c22" y="259.278909"/>
    </g>
    <g clip-path="url(#p85f0c9fda2)">
     <use style="fill:#ffffff;stroke:#ffffff;" x="675.671585" xlink:href="#C0_0_6f7d0c6c22" y="408.586064"/>
    </g>
    <g clip-path="url(#p85f0c9fda2)">
     <use style="fill:#ffffff;stroke:#ffffff;" x="748.548429" xlink:href="#C0_0_6f7d0c6c22" y="334.448157"/>
    </g>
    <g clip-path="url(#p85f0c9fda2)">
     <use style="fill:#ffffff;stroke:#ffffff;" x="870.009836" xlink:href="#C0_0_6f7d0c6c22" y="334.448157"/>
    </g>
    <g clip-path="url(#p85f0c9fda2)">
     <use style="fill:#ffffff;stroke:#ffffff;" x="821.425273" xlink:href="#C0_0_6f7d0c6c22" y="408.586064"/>
    </g>
    <g clip-path="url(#p85f0c9fda2)">
     <use style="fill:#ffffff;stroke:#ffffff;" x="870.009836" xlink:href="#C0_0_6f7d0c6c22" y="408.586064"/>
    </g>
    <g clip-path="url(#p85f0c9fda2)">
     <use style="fill:#ffffff;stroke:#ffffff;" x="724.256148" xlink:href="#C0_0_6f7d0c6c22" y="408.586064"/>
    </g>
    <g clip-path="url(#p85f0c9fda2)">
     <use style="fill:#ffffff;stroke:#ffffff;" x="772.84071" xlink:href="#C0_0_6f7d0c6c22" y="408.586064"/>
    </g>
    <g clip-path="url(#p85f0c9fda2)">
     <use style="fill:#ffffff;stroke:#ffffff;" x="92.65683" xlink:href="#C0_0_6f7d0c6c22" y="334.448157"/>
    </g>
    <g clip-path="url(#p85f0c9fda2)">
     <use style="fill:#ffffff;stroke:#ffffff;" x="214.118238" xlink:href="#C0_0_6f7d0c6c22" y="408.586064"/>
    </g>
    <g clip-path="url(#p85f0c9fda2)">
     <use style="fill:#ffffff;stroke:#ffffff;" x="335.579645" xlink:href="#C0_0_6f7d0c6c22" y="334.448157"/>
    </g>
    <g clip-path="url(#p85f0c9fda2)">
     <use style="fill:#ffffff;stroke:#ffffff;" x="286.995082" xlink:href="#C0_0_6f7d0c6c22" y="408.586064"/>
    </g>
    <g clip-path="url(#p85f0c9fda2)">
     <use style="fill:#ffffff;stroke:#ffffff;" x="335.579645" xlink:href="#C0_0_6f7d0c6c22" y="408.586064"/>
    </g>
    <g clip-path="url(#p85f0c9fda2)">
     <use style="fill:#ffffff;stroke:#ffffff;" x="384.164208" xlink:href="#C0_0_6f7d0c6c22" y="408.586064"/>
    </g>
    <g clip-path="url(#p85f0c9fda2)">
     <use style="fill:#ffffff;stroke:#ffffff;" x="44.072268" xlink:href="#C0_0_6f7d0c6c22" y="408.586064"/>
    </g>
    <g clip-path="url(#p85f0c9fda2)">
     <use style="fill:#ffffff;stroke:#ffffff;" x="92.65683" xlink:href="#C0_0_6f7d0c6c22" y="408.586064"/>
    </g>
    <g clip-path="url(#p85f0c9fda2)">
     <use style="fill:#ffffff;stroke:#ffffff;" x="141.241393" xlink:href="#C0_0_6f7d0c6c22" y="408.586064"/>
    </g>
    <g clip-path="url(#p85f0c9fda2)">
     <use style="fill:#808080;stroke:#808080;" x="353.292767" xlink:href="#C0_0_6f7d0c6c22" y="23.942694"/>
    </g>
    <g clip-path="url(#p85f0c9fda2)">
     <use style="fill:#ffffff;stroke:#ffffff;" x="918.594399" xlink:href="#C0_0_6f7d0c6c22" y="408.586064"/>
    </g>
   </g>
   <g id="text_51">
    <g clip-path="url(#p85f0c9fda2)">
     <!-- The -->
     <defs>
      <path d="M 54.890625 33.015625 
L 54.890625 0 
L 45.90625 0 
L 45.90625 32.71875 
Q 45.90625 40.484375 42.875 44.328125 
Q 39.84375 48.1875 33.796875 48.1875 
Q 26.515625 48.1875 22.3125 43.546875 
Q 18.109375 38.921875 18.109375 30.90625 
L 18.109375 0 
L 9.078125 0 
L 9.078125 75.984375 
L 18.109375 75.984375 
L 18.109375 46.1875 
Q 21.34375 51.125 25.703125 53.5625 
Q 30.078125 56 35.796875 56 
Q 45.21875 56 50.046875 50.171875 
Q 54.890625 44.34375 54.890625 33.015625 
z
" id="DejaVuSans-104"/>
     </defs>
     <g transform="translate(34.773049 485.483347)scale(0.1 -0.1)">
      <use xlink:href="#DejaVuSans-84"/>
      <use x="61.083984" xlink:href="#DejaVuSans-104"/>
      <use x="124.462891" xlink:href="#DejaVuSans-101"/>
     </g>
    </g>
   </g>
   <g id="text_52">
    <g clip-path="url(#p85f0c9fda2)">
     <!-- harbor -->
     <defs>
      <path d="M 48.6875 27.296875 
Q 48.6875 37.203125 44.609375 42.84375 
Q 40.53125 48.484375 33.40625 48.484375 
Q 26.265625 48.484375 22.1875 42.84375 
Q 18.109375 37.203125 18.109375 27.296875 
Q 18.109375 17.390625 22.1875 11.75 
Q 26.265625 6.109375 33.40625 6.109375 
Q 40.53125 6.109375 44.609375 11.75 
Q 48.6875 17.390625 48.6875 27.296875 
z
M 18.109375 46.390625 
Q 20.953125 51.265625 25.265625 53.625 
Q 29.59375 56 35.59375 56 
Q 45.5625 56 51.78125 48.09375 
Q 58.015625 40.1875 58.015625 27.296875 
Q 58.015625 14.40625 51.78125 6.484375 
Q 45.5625 -1.421875 35.59375 -1.421875 
Q 29.59375 -1.421875 25.265625 0.953125 
Q 20.953125 3.328125 18.109375 8.203125 
L 18.109375 0 
L 9.078125 0 
L 9.078125 75.984375 
L 18.109375 75.984375 
z
" id="DejaVuSans-98"/>
      <path d="M 30.609375 48.390625 
Q 23.390625 48.390625 19.1875 42.75 
Q 14.984375 37.109375 14.984375 27.296875 
Q 14.984375 17.484375 19.15625 11.84375 
Q 23.34375 6.203125 30.609375 6.203125 
Q 37.796875 6.203125 41.984375 11.859375 
Q 46.1875 17.53125 46.1875 27.296875 
Q 46.1875 37.015625 41.984375 42.703125 
Q 37.796875 48.390625 30.609375 48.390625 
z
M 30.609375 56 
Q 42.328125 56 49.015625 48.375 
Q 55.71875 40.765625 55.71875 27.296875 
Q 55.71875 13.875 49.015625 6.21875 
Q 42.328125 -1.421875 30.609375 -1.421875 
Q 18.84375 -1.421875 12.171875 6.21875 
Q 5.515625 13.875 5.515625 27.296875 
Q 5.515625 40.765625 12.171875 48.375 
Q 18.84375 56 30.609375 56 
z
" id="DejaVuSans-111"/>
     </defs>
     <g transform="translate(76.079487 485.483347)scale(0.1 -0.1)">
      <use xlink:href="#DejaVuSans-104"/>
      <use x="63.378906" xlink:href="#DejaVuSans-97"/>
      <use x="124.658203" xlink:href="#DejaVuSans-114"/>
      <use x="165.771484" xlink:href="#DejaVuSans-98"/>
      <use x="229.248047" xlink:href="#DejaVuSans-111"/>
      <use x="290.429688" xlink:href="#DejaVuSans-114"/>
     </g>
    </g>
   </g>
   <g id="text_53">
    <g clip-path="url(#p85f0c9fda2)">
     <!-- pilot -->
     <defs>
      <path d="M 18.109375 8.203125 
L 18.109375 -20.796875 
L 9.078125 -20.796875 
L 9.078125 54.6875 
L 18.109375 54.6875 
L 18.109375 46.390625 
Q 20.953125 51.265625 25.265625 53.625 
Q 29.59375 56 35.59375 56 
Q 45.5625 56 51.78125 48.09375 
Q 58.015625 40.1875 58.015625 27.296875 
Q 58.015625 14.40625 51.78125 6.484375 
Q 45.5625 -1.421875 35.59375 -1.421875 
Q 29.59375 -1.421875 25.265625 0.953125 
Q 20.953125 3.328125 18.109375 8.203125 
z
M 48.6875 27.296875 
Q 48.6875 37.203125 44.609375 42.84375 
Q 40.53125 48.484375 33.40625 48.484375 
Q 26.265625 48.484375 22.1875 42.84375 
Q 18.109375 37.203125 18.109375 27.296875 
Q 18.109375 17.390625 22.1875 11.75 
Q 26.265625 6.109375 33.40625 6.109375 
Q 40.53125 6.109375 44.609375 11.75 
Q 48.6875 17.390625 48.6875 27.296875 
z
" id="DejaVuSans-112"/>
      <path d="M 18.3125 70.21875 
L 18.3125 54.6875 
L 36.8125 54.6875 
L 36.8125 47.703125 
L 18.3125 47.703125 
L 18.3125 18.015625 
Q 18.3125 11.328125 20.140625 9.421875 
Q 21.96875 7.515625 27.59375 7.515625 
L 36.8125 7.515625 
L 36.8125 0 
L 27.59375 0 
Q 17.1875 0 13.234375 3.875 
Q 9.28125 7.765625 9.28125 18.015625 
L 9.28125 47.703125 
L 2.6875 47.703125 
L 2.6875 54.6875 
L 9.28125 54.6875 
L 9.28125 70.21875 
z
" id="DejaVuSans-116"/>
     </defs>
     <g transform="translate(130.269518 485.483347)scale(0.1 -0.1)">
      <use xlink:href="#DejaVuSans-112"/>
      <use x="63.476562" xlink:href="#DejaVuSans-105"/>
      <use x="91.259766" xlink:href="#DejaVuSans-108"/>
      <use x="119.042969" xlink:href="#DejaVuSans-111"/>
      <use x="180.224609" xlink:href="#DejaVuSans-116"/>
     </g>
    </g>
   </g>
   <g id="text_54">
    <g clip-path="url(#p85f0c9fda2)">
     <!-- went -->
     <defs>
      <path d="M 4.203125 54.6875 
L 13.1875 54.6875 
L 24.421875 12.015625 
L 35.59375 54.6875 
L 46.1875 54.6875 
L 57.421875 12.015625 
L 68.609375 54.6875 
L 77.59375 54.6875 
L 63.28125 0 
L 52.6875 0 
L 40.921875 44.828125 
L 29.109375 0 
L 18.5 0 
z
" id="DejaVuSans-119"/>
     </defs>
     <g transform="translate(177.531425 485.483347)scale(0.1 -0.1)">
      <use xlink:href="#DejaVuSans-119"/>
      <use x="81.787109" xlink:href="#DejaVuSans-101"/>
      <use x="143.310547" xlink:href="#DejaVuSans-110"/>
      <use x="206.689453" xlink:href="#DejaVuSans-116"/>
     </g>
    </g>
   </g>
   <g id="text_55">
    <g clip-path="url(#p85f0c9fda2)">
     <!-- down -->
     <defs>
      <path d="M 45.40625 46.390625 
L 45.40625 75.984375 
L 54.390625 75.984375 
L 54.390625 0 
L 45.40625 0 
L 45.40625 8.203125 
Q 42.578125 3.328125 38.25 0.953125 
Q 33.9375 -1.421875 27.875 -1.421875 
Q 17.96875 -1.421875 11.734375 6.484375 
Q 5.515625 14.40625 5.515625 27.296875 
Q 5.515625 40.1875 11.734375 48.09375 
Q 17.96875 56 27.875 56 
Q 33.9375 56 38.25 53.625 
Q 42.578125 51.265625 45.40625 46.390625 
z
M 14.796875 27.296875 
Q 14.796875 17.390625 18.875 11.75 
Q 22.953125 6.109375 30.078125 6.109375 
Q 37.203125 6.109375 41.296875 11.75 
Q 45.40625 17.390625 45.40625 27.296875 
Q 45.40625 37.203125 41.296875 42.84375 
Q 37.203125 48.484375 30.078125 48.484375 
Q 22.953125 48.484375 18.875 42.84375 
Q 14.796875 37.203125 14.796875 27.296875 
z
" id="DejaVuSans-100"/>
     </defs>
     <g transform="translate(224.919113 485.483347)scale(0.1 -0.1)">
      <use xlink:href="#DejaVuSans-100"/>
      <use x="63.476562" xlink:href="#DejaVuSans-111"/>
      <use x="124.658203" xlink:href="#DejaVuSans-119"/>
      <use x="206.445312" xlink:href="#DejaVuSans-110"/>
     </g>
    </g>
   </g>
   <g id="text_56">
    <g clip-path="url(#p85f0c9fda2)">
     <!-- into -->
     <g transform="translate(277.417738 485.483347)scale(0.1 -0.1)">
      <use xlink:href="#DejaVuSans-105"/>
      <use x="27.783203" xlink:href="#DejaVuSans-110"/>
      <use x="91.162109" xlink:href="#DejaVuSans-116"/>
      <use x="130.371094" xlink:href="#DejaVuSans-111"/>
     </g>
    </g>
   </g>
   <g id="text_57">
    <g clip-path="url(#p85f0c9fda2)">
     <!-- his -->
     <defs>
      <path d="M 44.28125 53.078125 
L 44.28125 44.578125 
Q 40.484375 46.53125 36.375 47.5 
Q 32.28125 48.484375 27.875 48.484375 
Q 21.1875 48.484375 17.84375 46.4375 
Q 14.5 44.390625 14.5 40.28125 
Q 14.5 37.15625 16.890625 35.375 
Q 19.28125 33.59375 26.515625 31.984375 
L 29.59375 31.296875 
Q 39.15625 29.25 43.1875 25.515625 
Q 47.21875 21.78125 47.21875 15.09375 
Q 47.21875 7.46875 41.1875 3.015625 
Q 35.15625 -1.421875 24.609375 -1.421875 
Q 20.21875 -1.421875 15.453125 -0.5625 
Q 10.6875 0.296875 5.421875 2 
L 5.421875 11.28125 
Q 10.40625 8.6875 15.234375 7.390625 
Q 20.0625 6.109375 24.8125 6.109375 
Q 31.15625 6.109375 34.5625 8.28125 
Q 37.984375 10.453125 37.984375 14.40625 
Q 37.984375 18.0625 35.515625 20.015625 
Q 33.0625 21.96875 24.703125 23.78125 
L 21.578125 24.515625 
Q 13.234375 26.265625 9.515625 29.90625 
Q 5.8125 33.546875 5.8125 39.890625 
Q 5.8125 47.609375 11.28125 51.796875 
Q 16.75 56 26.8125 56 
Q 31.78125 56 36.171875 55.265625 
Q 40.578125 54.546875 44.28125 53.078125 
z
" id="DejaVuSans-115"/>
     </defs>
     <g transform="translate(328.417145 485.483347)scale(0.1 -0.1)">
      <use xlink:href="#DejaVuSans-104"/>
      <use x="63.378906" xlink:href="#DejaVuSans-105"/>
      <use x="91.162109" xlink:href="#DejaVuSans-115"/>
     </g>
    </g>
   </g>
   <g id="text_58">
    <g clip-path="url(#p85f0c9fda2)">
     <!-- dinghy -->
     <defs>
      <path d="M 45.40625 27.984375 
Q 45.40625 37.75 41.375 43.109375 
Q 37.359375 48.484375 30.078125 48.484375 
Q 22.859375 48.484375 18.828125 43.109375 
Q 14.796875 37.75 14.796875 27.984375 
Q 14.796875 18.265625 18.828125 12.890625 
Q 22.859375 7.515625 30.078125 7.515625 
Q 37.359375 7.515625 41.375 12.890625 
Q 45.40625 18.265625 45.40625 27.984375 
z
M 54.390625 6.78125 
Q 54.390625 -7.171875 48.1875 -13.984375 
Q 42 -20.796875 29.203125 -20.796875 
Q 24.46875 -20.796875 20.265625 -20.09375 
Q 16.0625 -19.390625 12.109375 -17.921875 
L 12.109375 -9.1875 
Q 16.0625 -11.328125 19.921875 -12.34375 
Q 23.78125 -13.375 27.78125 -13.375 
Q 36.625 -13.375 41.015625 -8.765625 
Q 45.40625 -4.15625 45.40625 5.171875 
L 45.40625 9.625 
Q 42.625 4.78125 38.28125 2.390625 
Q 33.9375 0 27.875 0 
Q 17.828125 0 11.671875 7.65625 
Q 5.515625 15.328125 5.515625 27.984375 
Q 5.515625 40.671875 11.671875 48.328125 
Q 17.828125 56 27.875 56 
Q 33.9375 56 38.28125 53.609375 
Q 42.625 51.21875 45.40625 46.390625 
L 45.40625 54.6875 
L 54.390625 54.6875 
z
" id="DejaVuSans-103"/>
      <path d="M 32.171875 -5.078125 
Q 28.375 -14.84375 24.75 -17.8125 
Q 21.140625 -20.796875 15.09375 -20.796875 
L 7.90625 -20.796875 
L 7.90625 -13.28125 
L 13.1875 -13.28125 
Q 16.890625 -13.28125 18.9375 -11.515625 
Q 21 -9.765625 23.484375 -3.21875 
L 25.09375 0.875 
L 2.984375 54.6875 
L 12.5 54.6875 
L 29.59375 11.921875 
L 46.6875 54.6875 
L 56.203125 54.6875 
z
" id="DejaVuSans-121"/>
     </defs>
     <g transform="translate(367.129833 485.483347)scale(0.1 -0.1)">
      <use xlink:href="#DejaVuSans-100"/>
      <use x="63.476562" xlink:href="#DejaVuSans-105"/>
      <use x="91.259766" xlink:href="#DejaVuSans-110"/>
      <use x="154.638672" xlink:href="#DejaVuSans-103"/>
      <use x="218.115234" xlink:href="#DejaVuSans-104"/>
      <use x="281.494141" xlink:href="#DejaVuSans-121"/>
     </g>
    </g>
   </g>
   <g id="text_59">
    <g clip-path="url(#p85f0c9fda2)">
     <!-- and -->
     <g transform="translate(423.341739 485.483347)scale(0.1 -0.1)">
      <use xlink:href="#DejaVuSans-97"/>
      <use x="61.279297" xlink:href="#DejaVuSans-110"/>
      <use x="124.658203" xlink:href="#DejaVuSans-100"/>
     </g>
    </g>
   </g>
   <g id="text_60">
    <g clip-path="url(#p85f0c9fda2)">
     <!-- rejoined -->
     <defs>
      <path d="M 9.421875 54.6875 
L 18.40625 54.6875 
L 18.40625 -0.984375 
Q 18.40625 -11.421875 14.421875 -16.109375 
Q 10.453125 -20.796875 1.609375 -20.796875 
L -1.8125 -20.796875 
L -1.8125 -13.1875 
L 0.59375 -13.1875 
Q 5.71875 -13.1875 7.5625 -10.8125 
Q 9.421875 -8.453125 9.421875 -0.984375 
z
M 9.421875 75.984375 
L 18.40625 75.984375 
L 18.40625 64.59375 
L 9.421875 64.59375 
z
" id="DejaVuSans-106"/>
     </defs>
     <g transform="translate(460.945833 485.483347)scale(0.1 -0.1)">
      <use xlink:href="#DejaVuSans-114"/>
      <use x="41.082031" xlink:href="#DejaVuSans-101"/>
      <use x="102.605469" xlink:href="#DejaVuSans-106"/>
      <use x="130.388672" xlink:href="#DejaVuSans-111"/>
      <use x="191.570312" xlink:href="#DejaVuSans-105"/>
      <use x="219.353516" xlink:href="#DejaVuSans-110"/>
      <use x="282.732422" xlink:href="#DejaVuSans-101"/>
      <use x="344.255859" xlink:href="#DejaVuSans-100"/>
     </g>
    </g>
   </g>
   <g id="text_61">
    <g clip-path="url(#p85f0c9fda2)">
     <!-- a -->
     <g transform="translate(526.853834 485.483347)scale(0.1 -0.1)">
      <use xlink:href="#DejaVuSans-97"/>
     </g>
    </g>
   </g>
   <g id="text_62">
    <g clip-path="url(#p85f0c9fda2)">
     <!-- little -->
     <g transform="translate(567.338397 485.483347)scale(0.1 -0.1)">
      <use xlink:href="#DejaVuSans-108"/>
      <use x="27.783203" xlink:href="#DejaVuSans-105"/>
      <use x="55.566406" xlink:href="#DejaVuSans-116"/>
      <use x="94.775391" xlink:href="#DejaVuSans-116"/>
      <use x="133.984375" xlink:href="#DejaVuSans-108"/>
      <use x="161.767578" xlink:href="#DejaVuSans-101"/>
     </g>
    </g>
   </g>
   <g id="text_63">
    <g clip-path="url(#p85f0c9fda2)">
     <!-- schooner -->
     <defs>
      <path d="M 48.78125 52.59375 
L 48.78125 44.1875 
Q 44.96875 46.296875 41.140625 47.34375 
Q 37.3125 48.390625 33.40625 48.390625 
Q 24.65625 48.390625 19.8125 42.84375 
Q 14.984375 37.3125 14.984375 27.296875 
Q 14.984375 17.28125 19.8125 11.734375 
Q 24.65625 6.203125 33.40625 6.203125 
Q 37.3125 6.203125 41.140625 7.25 
Q 44.96875 8.296875 48.78125 10.40625 
L 48.78125 2.09375 
Q 45.015625 0.34375 40.984375 -0.53125 
Q 36.96875 -1.421875 32.421875 -1.421875 
Q 20.0625 -1.421875 12.78125 6.34375 
Q 5.515625 14.109375 5.515625 27.296875 
Q 5.515625 40.671875 12.859375 48.328125 
Q 20.21875 56 33.015625 56 
Q 37.15625 56 41.109375 55.140625 
Q 45.0625 54.296875 48.78125 52.59375 
z
" id="DejaVuSans-99"/>
     </defs>
     <g transform="translate(604.144834 485.483347)scale(0.1 -0.1)">
      <use xlink:href="#DejaVuSans-115"/>
      <use x="52.099609" xlink:href="#DejaVuSans-99"/>
      <use x="107.080078" xlink:href="#DejaVuSans-104"/>
      <use x="170.458984" xlink:href="#DejaVuSans-111"/>
      <use x="231.640625" xlink:href="#DejaVuSans-111"/>
      <use x="292.822266" xlink:href="#DejaVuSans-110"/>
      <use x="356.201172" xlink:href="#DejaVuSans-101"/>
      <use x="417.724609" xlink:href="#DejaVuSans-114"/>
     </g>
    </g>
   </g>
   <g id="text_64">
    <g clip-path="url(#p85f0c9fda2)">
     <!-- waiting -->
     <g transform="translate(657.43721 485.483347)scale(0.1 -0.1)">
      <use xlink:href="#DejaVuSans-119"/>
      <use x="81.787109" xlink:href="#DejaVuSans-97"/>
      <use x="143.066406" xlink:href="#DejaVuSans-105"/>
      <use x="170.849609" xlink:href="#DejaVuSans-116"/>
      <use x="210.058594" xlink:href="#DejaVuSans-105"/>
      <use x="237.841797" xlink:href="#DejaVuSans-110"/>
      <use x="301.220703" xlink:href="#DejaVuSans-103"/>
     </g>
    </g>
   </g>
   <g id="text_65">
    <g clip-path="url(#p85f0c9fda2)">
     <!-- for -->
     <defs>
      <path d="M 37.109375 75.984375 
L 37.109375 68.5 
L 28.515625 68.5 
Q 23.6875 68.5 21.796875 66.546875 
Q 19.921875 64.59375 19.921875 59.515625 
L 19.921875 54.6875 
L 34.71875 54.6875 
L 34.71875 47.703125 
L 19.921875 47.703125 
L 19.921875 0 
L 10.890625 0 
L 10.890625 47.703125 
L 2.296875 47.703125 
L 2.296875 54.6875 
L 10.890625 54.6875 
L 10.890625 58.5 
Q 10.890625 67.625 15.140625 71.796875 
Q 19.390625 75.984375 28.609375 75.984375 
z
" id="DejaVuSans-102"/>
     </defs>
     <g transform="translate(717.381148 485.483347)scale(0.1 -0.1)">
      <use xlink:href="#DejaVuSans-102"/>
      <use x="35.205078" xlink:href="#DejaVuSans-111"/>
      <use x="96.386719" xlink:href="#DejaVuSans-114"/>
     </g>
    </g>
   </g>
   <g id="text_66">
    <g clip-path="url(#p85f0c9fda2)">
     <!-- him -->
     <g transform="translate(763.412585 485.483347)scale(0.1 -0.1)">
      <use xlink:href="#DejaVuSans-104"/>
      <use x="63.378906" xlink:href="#DejaVuSans-105"/>
      <use x="91.162109" xlink:href="#DejaVuSans-109"/>
     </g>
    </g>
   </g>
   <g id="text_67">
    <g clip-path="url(#p85f0c9fda2)">
     <!-- to -->
     <g transform="translate(816.405742 485.483347)scale(0.1 -0.1)">
      <use xlink:href="#DejaVuSans-116"/>
      <use x="39.208984" xlink:href="#DejaVuSans-111"/>
     </g>
    </g>
   </g>
   <g id="text_68">
    <g clip-path="url(#p85f0c9fda2)">
     <!-- leeward -->
     <g transform="translate(850.085617 485.483347)scale(0.1 -0.1)">
      <use xlink:href="#DejaVuSans-108"/>
      <use x="27.783203" xlink:href="#DejaVuSans-101"/>
      <use x="89.306641" xlink:href="#DejaVuSans-101"/>
      <use x="150.830078" xlink:href="#DejaVuSans-119"/>
      <use x="232.617188" xlink:href="#DejaVuSans-97"/>
      <use x="293.896484" xlink:href="#DejaVuSans-114"/>
      <use x="334.994141" xlink:href="#DejaVuSans-100"/>
     </g>
    </g>
   </g>
   <g id="text_69">
    <g clip-path="url(#p85f0c9fda2)">
     <!-- . -->
     <defs>
      <path d="M 10.6875 12.40625 
L 21 12.40625 
L 21 0 
L 10.6875 0 
z
" id="DejaVuSans-46"/>
     </defs>
     <g transform="translate(917.005337 485.483347)scale(0.1 -0.1)">
      <use xlink:href="#DejaVuSans-46"/>
     </g>
    </g>
   </g>
   <g id="text_70">
    <g clip-path="url(#p85f0c9fda2)">
     <!-- 1.1 -->
     <defs>
      <path d="M 12.40625 8.296875 
L 28.515625 8.296875 
L 28.515625 63.921875 
L 10.984375 60.40625 
L 10.984375 69.390625 
L 28.421875 72.90625 
L 38.28125 72.90625 
L 38.28125 8.296875 
L 54.390625 8.296875 
L 54.390625 0 
L 12.40625 0 
z
" id="DejaVuSans-49"/>
     </defs>
     <g transform="translate(345.341204 26.702069)scale(0.1 -0.1)">
      <use xlink:href="#DejaVuSans-49"/>
      <use x="63.623047" xlink:href="#DejaVuSans-46"/>
      <use x="95.410156" xlink:href="#DejaVuSans-49"/>
     </g>
    </g>
   </g>
   <g id="text_71">
    <g clip-path="url(#p85f0c9fda2)">
     <!-- 1.2 -->
     <defs>
      <path d="M 19.1875 8.296875 
L 53.609375 8.296875 
L 53.609375 0 
L 7.328125 0 
L 7.328125 8.296875 
Q 12.9375 14.109375 22.625 23.890625 
Q 32.328125 33.6875 34.8125 36.53125 
Q 39.546875 41.84375 41.421875 45.53125 
Q 43.3125 49.21875 43.3125 52.78125 
Q 43.3125 58.59375 39.234375 62.25 
Q 35.15625 65.921875 28.609375 65.921875 
Q 23.96875 65.921875 18.8125 64.3125 
Q 13.671875 62.703125 7.8125 59.421875 
L 7.8125 69.390625 
Q 13.765625 71.78125 18.9375 73 
Q 24.125 74.21875 28.421875 74.21875 
Q 39.75 74.21875 46.484375 68.546875 
Q 53.21875 62.890625 53.21875 53.421875 
Q 53.21875 48.921875 51.53125 44.890625 
Q 49.859375 40.875 45.40625 35.40625 
Q 44.1875 33.984375 37.640625 27.21875 
Q 31.109375 20.453125 19.1875 8.296875 
z
" id="DejaVuSans-50"/>
     </defs>
     <g transform="translate(206.166675 262.038284)scale(0.1 -0.1)">
      <use xlink:href="#DejaVuSans-49"/>
      <use x="63.623047" xlink:href="#DejaVuSans-46"/>
      <use x="95.410156" xlink:href="#DejaVuSans-50"/>
     </g>
    </g>
   </g>
   <g id="text_72">
    <g clip-path="url(#p85f0c9fda2)">
     <!-- 1.3 -->
     <defs>
      <path d="M 40.578125 39.3125 
Q 47.65625 37.796875 51.625 33 
Q 55.609375 28.21875 55.609375 21.1875 
Q 55.609375 10.40625 48.1875 4.484375 
Q 40.765625 -1.421875 27.09375 -1.421875 
Q 22.515625 -1.421875 17.65625 -0.515625 
Q 12.796875 0.390625 7.625 2.203125 
L 7.625 11.71875 
Q 11.71875 9.328125 16.59375 8.109375 
Q 21.484375 6.890625 26.8125 6.890625 
Q 36.078125 6.890625 40.9375 10.546875 
Q 45.796875 14.203125 45.796875 21.1875 
Q 45.796875 27.640625 41.28125 31.265625 
Q 36.765625 34.90625 28.71875 34.90625 
L 20.21875 34.90625 
L 20.21875 43.015625 
L 29.109375 43.015625 
Q 36.375 43.015625 40.234375 45.921875 
Q 44.09375 48.828125 44.09375 54.296875 
Q 44.09375 59.90625 40.109375 62.90625 
Q 36.140625 65.921875 28.71875 65.921875 
Q 24.65625 65.921875 20.015625 65.03125 
Q 15.375 64.15625 9.8125 62.3125 
L 9.8125 71.09375 
Q 15.4375 72.65625 20.34375 73.4375 
Q 25.25 74.21875 29.59375 74.21875 
Q 40.828125 74.21875 47.359375 69.109375 
Q 53.90625 64.015625 53.90625 55.328125 
Q 53.90625 49.265625 50.4375 45.09375 
Q 46.96875 40.921875 40.578125 39.3125 
z
" id="DejaVuSans-51"/>
     </defs>
     <g transform="translate(424.797208 411.345439)scale(0.1 -0.1)">
      <use xlink:href="#DejaVuSans-49"/>
      <use x="63.623047" xlink:href="#DejaVuSans-46"/>
      <use x="95.410156" xlink:href="#DejaVuSans-51"/>
     </g>
    </g>
   </g>
   <g id="text_73">
    <g clip-path="url(#p85f0c9fda2)">
     <!-- 1.4 -->
     <defs>
      <path d="M 37.796875 64.3125 
L 12.890625 25.390625 
L 37.796875 25.390625 
z
M 35.203125 72.90625 
L 47.609375 72.90625 
L 47.609375 25.390625 
L 58.015625 25.390625 
L 58.015625 17.1875 
L 47.609375 17.1875 
L 47.609375 0 
L 37.796875 0 
L 37.796875 17.1875 
L 4.890625 17.1875 
L 4.890625 26.703125 
z
" id="DejaVuSans-52"/>
     </defs>
     <g transform="translate(405.059729 107.059178)scale(0.1 -0.1)">
      <use xlink:href="#DejaVuSans-49"/>
      <use x="63.623047" xlink:href="#DejaVuSans-46"/>
      <use x="95.410156" xlink:href="#DejaVuSans-52"/>
     </g>
    </g>
   </g>
   <g id="text_74">
    <g clip-path="url(#p85f0c9fda2)">
     <!-- 1.6 -->
     <defs>
      <path d="M 33.015625 40.375 
Q 26.375 40.375 22.484375 35.828125 
Q 18.609375 31.296875 18.609375 23.390625 
Q 18.609375 15.53125 22.484375 10.953125 
Q 26.375 6.390625 33.015625 6.390625 
Q 39.65625 6.390625 43.53125 10.953125 
Q 47.40625 15.53125 47.40625 23.390625 
Q 47.40625 31.296875 43.53125 35.828125 
Q 39.65625 40.375 33.015625 40.375 
z
M 52.59375 71.296875 
L 52.59375 62.3125 
Q 48.875 64.0625 45.09375 64.984375 
Q 41.3125 65.921875 37.59375 65.921875 
Q 27.828125 65.921875 22.671875 59.328125 
Q 17.53125 52.734375 16.796875 39.40625 
Q 19.671875 43.65625 24.015625 45.921875 
Q 28.375 48.1875 33.59375 48.1875 
Q 44.578125 48.1875 50.953125 41.515625 
Q 57.328125 34.859375 57.328125 23.390625 
Q 57.328125 12.15625 50.6875 5.359375 
Q 44.046875 -1.421875 33.015625 -1.421875 
Q 20.359375 -1.421875 13.671875 8.265625 
Q 6.984375 17.96875 6.984375 36.375 
Q 6.984375 53.65625 15.1875 63.9375 
Q 23.390625 74.21875 37.203125 74.21875 
Q 40.921875 74.21875 44.703125 73.484375 
Q 48.484375 72.75 52.59375 71.296875 
z
" id="DejaVuSans-54"/>
     </defs>
     <g transform="translate(473.381771 411.345439)scale(0.1 -0.1)">
      <use xlink:href="#DejaVuSans-49"/>
      <use x="63.623047" xlink:href="#DejaVuSans-46"/>
      <use x="95.410156" xlink:href="#DejaVuSans-54"/>
     </g>
    </g>
   </g>
   <g id="text_75">
    <g clip-path="url(#p85f0c9fda2)">
     <!-- 1.7 -->
     <defs>
      <path d="M 8.203125 72.90625 
L 55.078125 72.90625 
L 55.078125 68.703125 
L 28.609375 0 
L 18.3125 0 
L 43.21875 64.59375 
L 8.203125 64.59375 
z
" id="DejaVuSans-55"/>
     </defs>
     <g transform="translate(608.507586 185.421595)scale(0.1 -0.1)">
      <use xlink:href="#DejaVuSans-49"/>
      <use x="63.623047" xlink:href="#DejaVuSans-46"/>
      <use x="95.410156" xlink:href="#DejaVuSans-55"/>
     </g>
    </g>
   </g>
   <g id="text_76">
    <g clip-path="url(#p85f0c9fda2)">
     <!-- 1.8 -->
     <defs>
      <path d="M 31.78125 34.625 
Q 24.75 34.625 20.71875 30.859375 
Q 16.703125 27.09375 16.703125 20.515625 
Q 16.703125 13.921875 20.71875 10.15625 
Q 24.75 6.390625 31.78125 6.390625 
Q 38.8125 6.390625 42.859375 10.171875 
Q 46.921875 13.96875 46.921875 20.515625 
Q 46.921875 27.09375 42.890625 30.859375 
Q 38.875 34.625 31.78125 34.625 
z
M 21.921875 38.8125 
Q 15.578125 40.375 12.03125 44.71875 
Q 8.5 49.078125 8.5 55.328125 
Q 8.5 64.0625 14.71875 69.140625 
Q 20.953125 74.21875 31.78125 74.21875 
Q 42.671875 74.21875 48.875 69.140625 
Q 55.078125 64.0625 55.078125 55.328125 
Q 55.078125 49.078125 51.53125 44.71875 
Q 48 40.375 41.703125 38.8125 
Q 48.828125 37.15625 52.796875 32.3125 
Q 56.78125 27.484375 56.78125 20.515625 
Q 56.78125 9.90625 50.3125 4.234375 
Q 43.84375 -1.421875 31.78125 -1.421875 
Q 19.734375 -1.421875 13.25 4.234375 
Q 6.78125 9.90625 6.78125 20.515625 
Q 6.78125 27.484375 10.78125 32.3125 
Q 14.796875 37.15625 21.921875 38.8125 
z
M 18.3125 54.390625 
Q 18.3125 48.734375 21.84375 45.5625 
Q 25.390625 42.390625 31.78125 42.390625 
Q 38.140625 42.390625 41.71875 45.5625 
Q 45.3125 48.734375 45.3125 54.390625 
Q 45.3125 60.0625 41.71875 63.234375 
Q 38.140625 66.40625 31.78125 66.40625 
Q 25.390625 66.40625 21.84375 63.234375 
Q 18.3125 60.0625 18.3125 54.390625 
z
" id="DejaVuSans-56"/>
     </defs>
     <g transform="translate(521.966334 411.345439)scale(0.1 -0.1)">
      <use xlink:href="#DejaVuSans-49"/>
      <use x="63.623047" xlink:href="#DejaVuSans-46"/>
      <use x="95.410156" xlink:href="#DejaVuSans-56"/>
     </g>
    </g>
   </g>
   <g id="text_77">
    <g clip-path="url(#p85f0c9fda2)">
     <!-- 1.9 -->
     <defs>
      <path d="M 10.984375 1.515625 
L 10.984375 10.5 
Q 14.703125 8.734375 18.5 7.8125 
Q 22.3125 6.890625 25.984375 6.890625 
Q 35.75 6.890625 40.890625 13.453125 
Q 46.046875 20.015625 46.78125 33.40625 
Q 43.953125 29.203125 39.59375 26.953125 
Q 35.25 24.703125 29.984375 24.703125 
Q 19.046875 24.703125 12.671875 31.3125 
Q 6.296875 37.9375 6.296875 49.421875 
Q 6.296875 60.640625 12.9375 67.421875 
Q 19.578125 74.21875 30.609375 74.21875 
Q 43.265625 74.21875 49.921875 64.515625 
Q 56.59375 54.828125 56.59375 36.375 
Q 56.59375 19.140625 48.40625 8.859375 
Q 40.234375 -1.421875 26.421875 -1.421875 
Q 22.703125 -1.421875 18.890625 -0.6875 
Q 15.09375 0.046875 10.984375 1.515625 
z
M 30.609375 32.421875 
Q 37.25 32.421875 41.125 36.953125 
Q 45.015625 41.5 45.015625 49.421875 
Q 45.015625 57.28125 41.125 61.84375 
Q 37.25 66.40625 30.609375 66.40625 
Q 23.96875 66.40625 20.09375 61.84375 
Q 16.21875 57.28125 16.21875 49.421875 
Q 16.21875 41.5 20.09375 36.953125 
Q 23.96875 32.421875 30.609375 32.421875 
z
" id="DejaVuSans-57"/>
     </defs>
     <g transform="translate(570.550897 411.345439)scale(0.1 -0.1)">
      <use xlink:href="#DejaVuSans-49"/>
      <use x="63.623047" xlink:href="#DejaVuSans-46"/>
      <use x="95.410156" xlink:href="#DejaVuSans-57"/>
     </g>
    </g>
   </g>
   <g id="text_78">
    <g clip-path="url(#p85f0c9fda2)">
     <!-- 1.10 -->
     <defs>
      <path d="M 31.78125 66.40625 
Q 24.171875 66.40625 20.328125 58.90625 
Q 16.5 51.421875 16.5 36.375 
Q 16.5 21.390625 20.328125 13.890625 
Q 24.171875 6.390625 31.78125 6.390625 
Q 39.453125 6.390625 43.28125 13.890625 
Q 47.125 21.390625 47.125 36.375 
Q 47.125 51.421875 43.28125 58.90625 
Q 39.453125 66.40625 31.78125 66.40625 
z
M 31.78125 74.21875 
Q 44.046875 74.21875 50.515625 64.515625 
Q 56.984375 54.828125 56.984375 36.375 
Q 56.984375 17.96875 50.515625 8.265625 
Q 44.046875 -1.421875 31.78125 -1.421875 
Q 19.53125 -1.421875 13.0625 8.265625 
Q 6.59375 17.96875 6.59375 36.375 
Q 6.59375 54.828125 13.0625 64.515625 
Q 19.53125 74.21875 31.78125 74.21875 
z
" id="DejaVuSans-48"/>
     </defs>
     <g transform="translate(615.954209 411.345439)scale(0.1 -0.1)">
      <use xlink:href="#DejaVuSans-49"/>
      <use x="63.623047" xlink:href="#DejaVuSans-46"/>
      <use x="95.410156" xlink:href="#DejaVuSans-49"/>
      <use x="159.033203" xlink:href="#DejaVuSans-48"/>
     </g>
    </g>
   </g>
   <g id="text_79">
    <g clip-path="url(#p85f0c9fda2)">
     <!-- 1.11 -->
     <g transform="translate(719.196405 262.038284)scale(0.1 -0.1)">
      <use xlink:href="#DejaVuSans-49"/>
      <use x="63.623047" xlink:href="#DejaVuSans-46"/>
      <use x="95.410156" xlink:href="#DejaVuSans-49"/>
      <use x="159.033203" xlink:href="#DejaVuSans-49"/>
     </g>
    </g>
   </g>
   <g id="text_80">
    <g clip-path="url(#p85f0c9fda2)">
     <!-- 1.12 -->
     <g transform="translate(664.538772 411.345439)scale(0.1 -0.1)">
      <use xlink:href="#DejaVuSans-49"/>
      <use x="63.623047" xlink:href="#DejaVuSans-46"/>
      <use x="95.410156" xlink:href="#DejaVuSans-49"/>
      <use x="159.033203" xlink:href="#DejaVuSans-50"/>
     </g>
    </g>
   </g>
   <g id="text_81">
    <g clip-path="url(#p85f0c9fda2)">
     <!-- 1.13 -->
     <g transform="translate(737.415617 337.207532)scale(0.1 -0.1)">
      <use xlink:href="#DejaVuSans-49"/>
      <use x="63.623047" xlink:href="#DejaVuSans-46"/>
      <use x="95.410156" xlink:href="#DejaVuSans-49"/>
      <use x="159.033203" xlink:href="#DejaVuSans-51"/>
     </g>
    </g>
   </g>
   <g id="text_82">
    <g clip-path="url(#p85f0c9fda2)">
     <!-- 1.14 -->
     <g transform="translate(858.877024 337.207532)scale(0.1 -0.1)">
      <use xlink:href="#DejaVuSans-49"/>
      <use x="63.623047" xlink:href="#DejaVuSans-46"/>
      <use x="95.410156" xlink:href="#DejaVuSans-49"/>
      <use x="159.033203" xlink:href="#DejaVuSans-52"/>
     </g>
    </g>
   </g>
   <g id="text_83">
    <g clip-path="url(#p85f0c9fda2)">
     <!-- 1.15 -->
     <defs>
      <path d="M 10.796875 72.90625 
L 49.515625 72.90625 
L 49.515625 64.59375 
L 19.828125 64.59375 
L 19.828125 46.734375 
Q 21.96875 47.46875 24.109375 47.828125 
Q 26.265625 48.1875 28.421875 48.1875 
Q 40.625 48.1875 47.75 41.5 
Q 54.890625 34.8125 54.890625 23.390625 
Q 54.890625 11.625 47.5625 5.09375 
Q 40.234375 -1.421875 26.90625 -1.421875 
Q 22.3125 -1.421875 17.546875 -0.640625 
Q 12.796875 0.140625 7.71875 1.703125 
L 7.71875 11.625 
Q 12.109375 9.234375 16.796875 8.0625 
Q 21.484375 6.890625 26.703125 6.890625 
Q 35.15625 6.890625 40.078125 11.328125 
Q 45.015625 15.765625 45.015625 23.390625 
Q 45.015625 31 40.078125 35.4375 
Q 35.15625 39.890625 26.703125 39.890625 
Q 22.75 39.890625 18.8125 39.015625 
Q 14.890625 38.140625 10.796875 36.28125 
z
" id="DejaVuSans-53"/>
     </defs>
     <g transform="translate(810.292461 411.345439)scale(0.1 -0.1)">
      <use xlink:href="#DejaVuSans-49"/>
      <use x="63.623047" xlink:href="#DejaVuSans-46"/>
      <use x="95.410156" xlink:href="#DejaVuSans-49"/>
      <use x="159.033203" xlink:href="#DejaVuSans-53"/>
     </g>
    </g>
   </g>
   <g id="text_84">
    <g clip-path="url(#p85f0c9fda2)">
     <!-- 1.16 -->
     <g transform="translate(858.877024 411.345439)scale(0.1 -0.1)">
      <use xlink:href="#DejaVuSans-49"/>
      <use x="63.623047" xlink:href="#DejaVuSans-46"/>
      <use x="95.410156" xlink:href="#DejaVuSans-49"/>
      <use x="159.033203" xlink:href="#DejaVuSans-54"/>
     </g>
    </g>
   </g>
   <g id="text_85">
    <g clip-path="url(#p85f0c9fda2)">
     <!-- 1.17 -->
     <g transform="translate(713.123335 411.345439)scale(0.1 -0.1)">
      <use xlink:href="#DejaVuSans-49"/>
      <use x="63.623047" xlink:href="#DejaVuSans-46"/>
      <use x="95.410156" xlink:href="#DejaVuSans-49"/>
      <use x="159.033203" xlink:href="#DejaVuSans-55"/>
     </g>
    </g>
   </g>
   <g id="text_86">
    <g clip-path="url(#p85f0c9fda2)">
     <!-- 1.18 -->
     <g transform="translate(761.707898 411.345439)scale(0.1 -0.1)">
      <use xlink:href="#DejaVuSans-49"/>
      <use x="63.623047" xlink:href="#DejaVuSans-46"/>
      <use x="95.410156" xlink:href="#DejaVuSans-49"/>
      <use x="159.033203" xlink:href="#DejaVuSans-56"/>
     </g>
    </g>
   </g>
   <g id="text_87">
    <g clip-path="url(#p85f0c9fda2)">
     <!-- 1.19 -->
     <g transform="translate(81.524018 337.207532)scale(0.1 -0.1)">
      <use xlink:href="#DejaVuSans-49"/>
      <use x="63.623047" xlink:href="#DejaVuSans-46"/>
      <use x="95.410156" xlink:href="#DejaVuSans-49"/>
      <use x="159.033203" xlink:href="#DejaVuSans-57"/>
     </g>
    </g>
   </g>
   <g id="text_88">
    <g clip-path="url(#p85f0c9fda2)">
     <!-- 1.20 -->
     <g transform="translate(202.985425 411.345439)scale(0.1 -0.1)">
      <use xlink:href="#DejaVuSans-49"/>
      <use x="63.623047" xlink:href="#DejaVuSans-46"/>
      <use x="95.410156" xlink:href="#DejaVuSans-50"/>
      <use x="159.033203" xlink:href="#DejaVuSans-48"/>
     </g>
    </g>
   </g>
   <g id="text_89">
    <g clip-path="url(#p85f0c9fda2)">
     <!-- 1.21 -->
     <g transform="translate(324.446832 337.207532)scale(0.1 -0.1)">
      <use xlink:href="#DejaVuSans-49"/>
      <use x="63.623047" xlink:href="#DejaVuSans-46"/>
      <use x="95.410156" xlink:href="#DejaVuSans-50"/>
      <use x="159.033203" xlink:href="#DejaVuSans-49"/>
     </g>
    </g>
   </g>
   <g id="text_90">
    <g clip-path="url(#p85f0c9fda2)">
     <!-- 1.22 -->
     <g transform="translate(275.862269 411.345439)scale(0.1 -0.1)">
      <use xlink:href="#DejaVuSans-49"/>
      <use x="63.623047" xlink:href="#DejaVuSans-46"/>
      <use x="95.410156" xlink:href="#DejaVuSans-50"/>
      <use x="159.033203" xlink:href="#DejaVuSans-50"/>
     </g>
    </g>
   </g>
   <g id="text_91">
    <g clip-path="url(#p85f0c9fda2)">
     <!-- 1.23 -->
     <g transform="translate(324.446832 411.345439)scale(0.1 -0.1)">
      <use xlink:href="#DejaVuSans-49"/>
      <use x="63.623047" xlink:href="#DejaVuSans-46"/>
      <use x="95.410156" xlink:href="#DejaVuSans-50"/>
      <use x="159.033203" xlink:href="#DejaVuSans-51"/>
     </g>
    </g>
   </g>
   <g id="text_92">
    <g clip-path="url(#p85f0c9fda2)">
     <!-- 1.24 -->
     <g transform="translate(373.031395 411.345439)scale(0.1 -0.1)">
      <use xlink:href="#DejaVuSans-49"/>
      <use x="63.623047" xlink:href="#DejaVuSans-46"/>
      <use x="95.410156" xlink:href="#DejaVuSans-50"/>
      <use x="159.033203" xlink:href="#DejaVuSans-52"/>
     </g>
    </g>
   </g>
   <g id="text_93">
    <g clip-path="url(#p85f0c9fda2)">
     <!-- 1.25 -->
     <g transform="translate(32.939455 411.345439)scale(0.1 -0.1)">
      <use xlink:href="#DejaVuSans-49"/>
      <use x="63.623047" xlink:href="#DejaVuSans-46"/>
      <use x="95.410156" xlink:href="#DejaVuSans-50"/>
      <use x="159.033203" xlink:href="#DejaVuSans-53"/>
     </g>
    </g>
   </g>
   <g id="text_94">
    <g clip-path="url(#p85f0c9fda2)">
     <!-- 1.26 -->
     <g transform="translate(81.524018 411.345439)scale(0.1 -0.1)">
      <use xlink:href="#DejaVuSans-49"/>
      <use x="63.623047" xlink:href="#DejaVuSans-46"/>
      <use x="95.410156" xlink:href="#DejaVuSans-50"/>
      <use x="159.033203" xlink:href="#DejaVuSans-54"/>
     </g>
    </g>
   </g>
   <g id="text_95">
    <g clip-path="url(#p85f0c9fda2)">
     <!-- 1.27 -->
     <g transform="translate(130.108581 411.345439)scale(0.1 -0.1)">
      <use xlink:href="#DejaVuSans-49"/>
      <use x="63.623047" xlink:href="#DejaVuSans-46"/>
      <use x="95.410156" xlink:href="#DejaVuSans-50"/>
      <use x="159.033203" xlink:href="#DejaVuSans-55"/>
     </g>
    </g>
   </g>
   <g id="text_96">
    <g clip-path="url(#p85f0c9fda2)">
     <!-- 1.28 -->
     <g transform="translate(342.159954 26.702069)scale(0.1 -0.1)">
      <use xlink:href="#DejaVuSans-49"/>
      <use x="63.623047" xlink:href="#DejaVuSans-46"/>
      <use x="95.410156" xlink:href="#DejaVuSans-50"/>
      <use x="159.033203" xlink:href="#DejaVuSans-56"/>
     </g>
    </g>
   </g>
   <g id="text_97">
    <g clip-path="url(#p85f0c9fda2)">
     <!-- 1.29 -->
     <g transform="translate(907.461587 411.345439)scale(0.1 -0.1)">
      <use xlink:href="#DejaVuSans-49"/>
      <use x="63.623047" xlink:href="#DejaVuSans-46"/>
      <use x="95.410156" xlink:href="#DejaVuSans-50"/>
      <use x="159.033203" xlink:href="#DejaVuSans-57"/>
     </g>
    </g>
   </g>
  </g>
 </g>
 <defs>
  <clipPath id="p85f0c9fda2">
   <rect height="506.666667" width="962.666667" x="0" y="0"/>
  </clipPath>
 </defs>
</svg>
