<?xml version="1.0" encoding="UTF-8"?>
<!DOCTYPE svg  PUBLIC '-//W3C//DTD SVG 1.1//EN'  'http://www.w3.org/Graphics/SVG/1.1/DTD/svg11.dtd'>
<svg width="354.67pt" height="186.67pt" version="1.1" viewBox="0 0 354.67 186.67" xmlns="http://www.w3.org/2000/svg" xmlns:xlink="http://www.w3.org/1999/xlink">
<defs>
<style type="text/css">*{stroke-linecap:butt;stroke-linejoin:round;}</style>
</defs>
<path d="m0 186.67h354.67v-186.67h-354.67z" fill="#fff"/>
<g fill="none" stroke="#000">
<path d="m241.89 9.581v34.686" clip-path="url(#a)"/>
<path d="m241.89 44.267-126.88 33.913" clip-path="url(#a)"/>
<path d="m241.89 44.267-11.13 100" clip-path="url(#a)"/>
<path d="m241.89 44.267 42.294 100" clip-path="url(#a)"/>
<path d="m241.89 44.267 95.719 100" clip-path="url(#a)"/>
<path d="m115 78.181-71.232 33.273" clip-path="url(#a)"/>
<path d="m115 78.181 8.904 66.089" clip-path="url(#a)"/>
<path d="m115 78.181 62.328 66.089" clip-path="url(#a)"/>
<path d="m230.76 144.27v32.816" clip-path="url(#a)"/>
<path d="m284.18 144.27v32.816" clip-path="url(#a)"/>
<path d="m43.773 111.45-26.712 32.816" clip-path="url(#a)"/>
<path d="m43.773 111.45 26.712 32.816" clip-path="url(#a)"/>
<path d="m123.91 144.27v32.816" clip-path="url(#a)"/>
<path d="m177.33 144.27v32.816" clip-path="url(#a)"/>
<path d="m17.06 144.27v32.816" clip-path="url(#a)"/>
<path d="m70.485 144.27v32.816" clip-path="url(#a)"/>
<path d="m337.61 144.27v32.816" clip-path="url(#a)"/>
</g>
<path d="m235.62 23.916v6.0162q0 2.4 2.4 2.4h7.7425q2.4 0 2.4-2.4v-6.0162q0-2.4-2.4-2.4h-7.7425q-2.4 0-2.4 2.4z" clip-path="url(#a)" fill="#fff" stroke="#fff"/>
<g clip-path="url(#a)">
<defs>
<path id="n" d="m9.8125 72.906h9.8594v-29.891h35.844v29.891h9.8594v-72.906h-9.8594v34.719h-35.844v-34.719h-9.8594z"/>
</defs>
<g transform="translate(239.68 23.916) rotate(90) scale(.08 -.08)">
<use xlink:href="#n"/>
</g>
</g>
<path d="m177.42 67.989 5.2869-1.4131q2.3186-0.61972 1.6989-2.9383l-1.9992-7.4799q-0.61972-2.3186-2.9383-1.6989l-5.2869 1.4131q-2.3186 0.61972-1.6989 2.9383l1.9992 7.4799q0.61972 2.3186 2.9383 1.6989z" clip-path="url(#a)" fill="#fff" stroke="#fff"/>
<g clip-path="url(#a)">
<defs>
<path id="w" d="m34.188 63.188-13.391-36.281h26.812zm-5.5781 9.7188h11.188l27.781-72.906h-10.25l-6.6406 18.703h-32.859l-6.6406-18.703h-10.406z"/>
</defs>
<g transform="translate(176.37 64.063) rotate(-14.964) scale(.08 -.08)">
<use xlink:href="#w"/>
</g>
</g>
<path d="m242.3 97.248 0.50897-4.573q0.26548-2.3853-2.1198-2.6507l-7.695-0.85644q-2.3853-0.26548-2.6507 2.1198l-0.50897 4.573q-0.26548 2.3853 2.1198 2.6507l7.695 0.85644q2.3853 0.26548 2.6507-2.1198z" clip-path="url(#a)" fill="#fff" stroke="#fff"/>
<g clip-path="url(#a)">
<defs>
<path id="u" d="m9.8125 72.906h41.891v-8.3125h-32.031v-21.484h28.906v-8.2969h-28.906v-34.812h-9.8594z"/>
</defs>
<g transform="translate(238.26 96.799) rotate(-83.649) scale(.08 -.08)">
<use xlink:href="#u"/>
</g>
</g>
<path d="m256.27 94.372 1.9783 4.6776q0.93486 2.2104 3.1453 1.2756l7.131-3.0159q2.2104-0.93486 1.2756-3.1453l-1.9783-4.6776q-0.93486-2.2104-3.1453-1.2756l-7.131 3.0159q-2.2104 0.93486-1.2756 3.1453z" clip-path="url(#a)" fill="#fff" stroke="#fff"/>
<g clip-path="url(#a)">
<defs>
<path id="s" d="m53.516 70.516v-9.625q-5.6094 2.6875-10.594 4-4.9844 1.3281-9.625 1.3281-8.0469 0-12.422-3.125t-4.375-8.8906q0-4.8438 2.9062-7.3125 2.9062-2.4531 11.016-3.9688l5.9531-1.2188q11.031-2.1094 16.281-7.4062t5.25-14.172q0-10.609-7.1094-16.078-7.0938-5.4688-20.812-5.4688-5.1719 0-11.016 1.1719-5.8281 1.1719-12.078 3.4688v10.156q6-3.3594 11.766-5.0781 5.7656-1.7031 11.328-1.7031 8.4375 0 13.031 3.3125 4.5938 3.3281 4.5938 9.4844 0 5.3594-3.2969 8.3906t-10.812 4.5469l-6.0156 1.1719q-11.031 2.1875-15.969 6.875-4.9219 4.6875-4.9219 13.047 0 9.6719 6.8125 15.234t18.766 5.5625q5.1406 0 10.453-0.9375 5.3281-0.92188 10.891-2.7656z"/>
</defs>
<g transform="translate(260.01 92.789) rotate(67.075) scale(.08 -.08)">
<use xlink:href="#s"/>
</g>
</g>
<path d="m283.19 96.49 4.0485 4.2297q1.6595 1.7338 3.3933 0.07427l5.5933-5.3537q1.7338-1.6595 0.074269-3.3933l-4.0485-4.2297q-1.6595-1.7338-3.3933-0.07427l-5.5933 5.3537q-1.7338 1.6595-0.074269 3.3933z" clip-path="url(#a)" fill="#fff" stroke="#fff"/>
<g clip-path="url(#a)">
<defs>
<path id="r" d="m8.6875 72.906h9.9219v-44.297q0-11.719 4.2344-16.875 4.25-5.1406 13.781-5.1406 9.4688 0 13.719 5.1406 4.25 5.1562 4.25 16.875v44.297h9.9062v-45.516q0-14.25-7.0625-21.531-7.0469-7.2812-20.812-7.2812-13.828 0-20.891 7.2812-7.0469 7.2812-7.0469 21.531z"/>
</defs>
<g transform="translate(286.13 93.68) rotate(46.254) scale(.08 -.08)">
<use xlink:href="#r"/>
</g>
</g>
<path d="m79.512 101.68 5.0613-2.3641q2.1745-1.0157 1.1588-3.1902l-3.2767-7.015q-1.0157-2.1745-3.1902-1.1588l-5.0613 2.3641q-2.1745 1.0157-1.1588 3.1902l3.2767 7.015q1.0157 2.1745 3.1902 1.1588z" clip-path="url(#a)" fill="#fff" stroke="#fff"/>
<g clip-path="url(#a)">
<defs>
<path id="m" d="m64.406 67.281v-10.391q-4.9844 4.6406-10.625 6.9219-5.6406 2.2969-11.984 2.2969-12.5 0-19.141-7.6406t-6.6406-22.094q0-14.406 6.6406-22.047t19.141-7.6406q6.3438 0 11.984 2.2969t10.625 6.9375v-10.312q-5.1719-3.5156-10.969-5.2812-5.7812-1.75-12.219-1.75-16.562 0-26.094 10.125-9.5156 10.141-9.5156 27.672 0 17.578 9.5156 27.703 9.5312 10.141 26.094 10.141 6.5312 0 12.312-1.7344 5.7969-1.7344 10.875-5.2031z"/>
</defs>
<g transform="translate(77.792 97.999) rotate(-25.037) scale(.08 -.08)">
<use xlink:href="#m"/>
</g>
</g>
<path d="m112.84 109.1 0.79913 5.9314q0.32045 2.3785 2.699 2.0581l7.6732-1.0338q2.3785-0.32045 2.0581-2.699l-0.79913-5.9314q-0.32045-2.3785-2.699-2.0581l-7.6732 1.0338q-2.3785 0.32045-2.0581 2.699z" clip-path="url(#a)" fill="#fff" stroke="#fff"/>
<g clip-path="url(#a)">
<defs>
<path id="t" d="m9.8125 72.906h13.281l32.328-60.984v60.984h9.5625v-72.906h-13.281l-32.312 60.984v-60.984h-9.5781z"/>
</defs>
<g transform="translate(116.87 108.55) rotate(82.327) scale(.08 -.08)">
<use xlink:href="#t"/>
</g>
</g>
<path d="m139.69 113.5 3.8328 4.064q1.6467 1.746 3.3927 0.09935l5.6327-5.3122q1.746-1.6467 0.09935-3.3927l-3.8328-4.064q-1.6467-1.746-3.3927-0.099351l-5.6327 5.3122q-1.746 1.6467-0.099351 3.3927z" clip-path="url(#a)" fill="#fff" stroke="#fff"/>
<g clip-path="url(#a)">
<g transform="translate(142.65 110.71) rotate(46.677) scale(.08 -.08)">
<use xlink:href="#m"/>
</g>
</g>
<path d="m224.49 143.04v35.285q0 2.4 2.4 2.4h7.7425q2.4 0 2.4-2.4v-35.285q0-2.4-2.4-2.4h-7.7425q-2.4 0-2.4 2.4z" clip-path="url(#a)" fill="#fff" stroke="#fff"/>
<g clip-path="url(#a)">
<defs>
<path id="j" d="m-0.29688 72.906h61.672v-8.3125h-25.875v-64.594h-9.9062v64.594h-25.891z"/>
<path id="e" d="m56.203 29.594v-4.3906h-41.312q0.59375-9.2812 5.5938-14.141t13.938-4.8594q5.1719 0 10.031 1.2656t9.6562 3.8125v-8.5q-4.8438-2.0469-9.9219-3.125t-10.297-1.0781q-13.094 0-20.734 7.6094-7.6406 7.625-7.6406 20.625 0 13.422 7.25 21.297 7.25 7.8906 19.562 7.8906 11.031 0 17.453-7.1094 6.4219-7.0938 6.4219-19.297zm-8.9844 2.6406q-0.09375 7.3594-4.125 11.75-4.0312 4.4062-10.672 4.4062-7.5156 0-12.031-4.25t-5.2031-11.969z"/>
<path id="i" d="m41.109 46.297q-1.5156 0.875-3.2969 1.2812-1.7812 0.42188-3.9219 0.42188-7.625 0-11.703-4.9531t-4.0781-14.234v-28.812h-9.0312v54.688h9.0312v-8.5q2.8438 4.9844 7.375 7.3906 4.5469 2.4219 11.047 2.4219 0.92188 0 2.0469-0.125 1.125-0.10938 2.4844-0.35938z"/>
<path id="k" d="m52 44.188q3.375 6.0625 8.0625 8.9375t11.031 2.875q8.5469 0 13.188-5.9844 4.6406-5.9688 4.6406-17v-33.016h-9.0312v32.719q0 7.8594-2.7969 11.656-2.7812 3.8125-8.4844 3.8125-6.9844 0-11.047-4.6406-4.0469-4.625-4.0469-12.641v-30.906h-9.0312v32.719q0 7.9062-2.7812 11.688t-8.5938 3.7812q-6.8906 0-10.953-4.6562-4.0469-4.6562-4.0469-12.625v-30.906h-9.0312v54.688h9.0312v-8.5q3.0781 5.0312 7.375 7.4219t10.203 2.3906q5.9688 0 10.141-3.0312 4.1719-3.0156 6.1719-8.7812z"/>
<path id="g" d="m9.4219 54.688h8.9844v-54.688h-8.9844zm0 21.297h8.9844v-11.391h-8.9844z"/>
<path id="f" d="m54.891 33.016v-33.016h-8.9844v32.719q0 7.7656-3.0312 11.609-3.0312 3.8594-9.0781 3.8594-7.2812 0-11.484-4.6406-4.2031-4.625-4.2031-12.641v-30.906h-9.0312v54.688h9.0312v-8.5q3.2344 4.9375 7.5938 7.375 4.375 2.4375 10.094 2.4375 9.4219 0 14.25-5.8281 4.8438-5.8281 4.8438-17.156z"/>
<path id="h" d="m34.281 27.484q-10.891 0-15.094-2.4844t-4.2031-8.5q0-4.7812 3.1562-7.5938 3.1562-2.7969 8.5625-2.7969 7.4844 0 12 5.2969t4.5156 14.078v2zm17.922 3.7188v-31.203h-8.9844v8.2969q-3.0781-4.9688-7.6719-7.3438t-11.234-2.375q-8.3906 0-13.359 4.7188-4.9531 4.7188-4.9531 12.625 0 9.2188 6.1719 13.906 6.1875 4.6875 18.438 4.6875h12.609v0.89062q0 6.2031-4.0781 9.5938t-11.453 3.3906q-4.6875 0-9.1406-1.125-4.4375-1.125-8.5312-3.375v8.3125q4.9219 1.9062 9.5625 2.8438 4.6406 0.95312 9.0312 0.95312 11.875 0 17.734-6.1562 5.8594-6.1406 5.8594-18.641z"/>
<path id="l" d="m9.4219 75.984h8.9844v-75.984h-8.9844z"/>
</defs>
<g transform="translate(228.55 143.04) rotate(90) scale(.08 -.08)">
<use xlink:href="#j"/>
<use x="60.818359" xlink:href="#e"/>
<use x="122.341797" xlink:href="#i"/>
<use x="163.439453" xlink:href="#k"/>
<use x="260.851562" xlink:href="#g"/>
<use x="288.634766" xlink:href="#f"/>
<use x="352.013672" xlink:href="#h"/>
<use x="413.292969" xlink:href="#l"/>
</g>
</g>
<path d="m277.91 143.04v35.285q0 2.4 2.4 2.4h7.7425q2.4 0 2.4-2.4v-35.285q0-2.4-2.4-2.4h-7.7425q-2.4 0-2.4 2.4z" clip-path="url(#a)" fill="#fff" stroke="#fff"/>
<g clip-path="url(#a)">
<g transform="translate(281.97 143.04) rotate(90) scale(.08 -.08)">
<use xlink:href="#j"/>
<use x="60.818359" xlink:href="#e"/>
<use x="122.341797" xlink:href="#i"/>
<use x="163.439453" xlink:href="#k"/>
<use x="260.851562" xlink:href="#g"/>
<use x="288.634766" xlink:href="#f"/>
<use x="352.013672" xlink:href="#h"/>
<use x="413.292969" xlink:href="#l"/>
</g>
</g>
<path d="m33.685 133.78 3.1912-3.9204q1.5151-1.8613-0.34622-3.3764l-6.0047-4.8878q-1.8613-1.5151-3.3764 0.34622l-3.1912 3.9204q-1.5151 1.8613 0.34622 3.3764l6.0047 4.8878q1.8613 1.5151 3.3764-0.34622z" clip-path="url(#a)" fill="#fff" stroke="#fff"/>
<g clip-path="url(#a)">
<defs>
<path id="v" d="m9.8125 72.906h46.094v-8.3125h-36.234v-21.578h34.719v-8.2969h-34.719v-26.422h37.109v-8.2969h-46.969z"/>
</defs>
<g transform="translate(30.533 131.22) rotate(-50.855) scale(.08 -.08)">
<use xlink:href="#v"/>
</g>
</g>
<path d="m50.502 129.65 3.5265 4.3324q1.5151 1.8613 3.3764 0.34622l6.0047-4.8878q1.8613-1.5151 0.34622-3.3764l-3.5265-4.3324q-1.5151-1.8613-3.3764-0.34622l-6.0047 4.8878q-1.8613 1.5151-0.34622 3.3764z" clip-path="url(#a)" fill="#fff" stroke="#fff"/>
<g clip-path="url(#a)">
<g transform="translate(53.653 127.09) rotate(50.855) scale(.08 -.08)">
<use xlink:href="#m"/>
</g>
</g>
<path d="m117.64 143.04v35.285q0 2.4 2.4 2.4h7.7425q2.4 0 2.4-2.4v-35.285q0-2.4-2.4-2.4h-7.7425q-2.4 0-2.4 2.4z" clip-path="url(#a)" fill="#fff" stroke="#fff"/>
<g clip-path="url(#a)">
<g transform="translate(121.7 143.04) rotate(90) scale(.08 -.08)">
<use xlink:href="#j"/>
<use x="60.818359" xlink:href="#e"/>
<use x="122.341797" xlink:href="#i"/>
<use x="163.439453" xlink:href="#k"/>
<use x="260.851562" xlink:href="#g"/>
<use x="288.634766" xlink:href="#f"/>
<use x="352.013672" xlink:href="#h"/>
<use x="413.292969" xlink:href="#l"/>
</g>
</g>
<path d="m171.06 143.04v35.285q0 2.4 2.4 2.4h7.7425q2.4 0 2.4-2.4v-35.285q0-2.4-2.4-2.4h-7.7425q-2.4 0-2.4 2.4z" clip-path="url(#a)" fill="#fff" stroke="#fff"/>
<g clip-path="url(#a)">
<g transform="translate(175.13 143.04) rotate(90) scale(.08 -.08)">
<use xlink:href="#j"/>
<use x="60.818359" xlink:href="#e"/>
<use x="122.341797" xlink:href="#i"/>
<use x="163.439453" xlink:href="#k"/>
<use x="260.851562" xlink:href="#g"/>
<use x="288.634766" xlink:href="#f"/>
<use x="352.013672" xlink:href="#h"/>
<use x="413.292969" xlink:href="#l"/>
</g>
</g>
<path d="m10.789 143.04v35.285q0 2.4 2.4 2.4h7.7425q2.4 0 2.4-2.4v-35.285q0-2.4-2.4-2.4h-7.7425q-2.4 0-2.4 2.4z" clip-path="url(#a)" fill="#fff" stroke="#fff"/>
<g clip-path="url(#a)">
<g transform="translate(14.853 143.04) rotate(90) scale(.08 -.08)">
<use xlink:href="#j"/>
<use x="60.818359" xlink:href="#e"/>
<use x="122.341797" xlink:href="#i"/>
<use x="163.439453" xlink:href="#k"/>
<use x="260.851562" xlink:href="#g"/>
<use x="288.634766" xlink:href="#f"/>
<use x="352.013672" xlink:href="#h"/>
<use x="413.292969" xlink:href="#l"/>
</g>
</g>
<path d="m64.214 143.04v35.285q0 2.4 2.4 2.4h7.7425q2.4 0 2.4-2.4v-35.285q0-2.4-2.4-2.4h-7.7425q-2.4 0-2.4 2.4z" clip-path="url(#a)" fill="#fff" stroke="#fff"/>
<g clip-path="url(#a)">
<g transform="translate(68.277 143.04) rotate(90) scale(.08 -.08)">
<use xlink:href="#j"/>
<use x="60.818359" xlink:href="#e"/>
<use x="122.341797" xlink:href="#i"/>
<use x="163.439453" xlink:href="#k"/>
<use x="260.851562" xlink:href="#g"/>
<use x="288.634766" xlink:href="#f"/>
<use x="352.013672" xlink:href="#h"/>
<use x="413.292969" xlink:href="#l"/>
</g>
</g>
<path d="m331.33 143.04v35.285q0 2.4 2.4 2.4h7.7425q2.4 0 2.4-2.4v-35.285q0-2.4-2.4-2.4h-7.7425q-2.4 0-2.4 2.4z" clip-path="url(#a)" fill="#fff" stroke="#fff"/>
<g clip-path="url(#a)">
<g transform="translate(335.4 143.04) rotate(90) scale(.08 -.08)">
<use xlink:href="#j"/>
<use x="60.818359" xlink:href="#e"/>
<use x="122.341797" xlink:href="#i"/>
<use x="163.439453" xlink:href="#k"/>
<use x="260.851562" xlink:href="#g"/>
<use x="288.634766" xlink:href="#f"/>
<use x="352.013672" xlink:href="#h"/>
<use x="413.292969" xlink:href="#l"/>
</g>
</g>
<defs>
<path id="b" d="m0 8.6603c2.2967 0 4.4997-0.9125 6.1237-2.5365 1.624-1.624 2.5365-3.827 2.5365-6.1237s-0.9125-4.4997-2.5365-6.1237c-1.624-1.624-3.827-2.5365-6.1237-2.5365s-4.4997 0.9125-6.1237 2.5365c-1.624 1.624-2.5365 3.827-2.5365 6.1237s0.9125 4.4997 2.5365 6.1237c1.624 1.624 3.827 2.5365 6.1237 2.5365z"/>
</defs>
<g clip-path="url(#a)">
<use x="17.060463" y="177.085631" fill="#ffffff" stroke="#ffffff" xlink:href="#b"/>
</g>
<g clip-path="url(#a)">
<use x="70.484753" y="177.085631" fill="#ffffff" stroke="#ffffff" xlink:href="#b"/>
</g>
<g clip-path="url(#a)">
<use x="123.909043" y="177.085631" fill="#ffffff" stroke="#ffffff" xlink:href="#b"/>
</g>
<g clip-path="url(#a)">
<use x="177.333333" y="177.085631" fill="#ffffff" stroke="#ffffff" xlink:href="#b"/>
</g>
<g clip-path="url(#a)">
<use x="230.757624" y="177.085631" fill="#ffffff" stroke="#ffffff" xlink:href="#b"/>
</g>
<g clip-path="url(#a)">
<use x="284.181914" y="177.085631" fill="#ffffff" stroke="#ffffff" xlink:href="#b"/>
</g>
<g clip-path="url(#a)">
<use x="337.606204" y="177.085631" fill="#ffffff" stroke="#ffffff" xlink:href="#b"/>
</g>
<g clip-path="url(#a)">
<use x="241.887684" y="9.581035" fill="#ffffff" stroke="#ffffff" xlink:href="#b"/>
</g>
<g clip-path="url(#a)">
<use x="241.887684" y="44.267152" fill="#ffffff" stroke="#ffffff" xlink:href="#b"/>
</g>
<g clip-path="url(#a)">
<use x="115.004995" y="78.180545" fill="#ffffff" stroke="#ffffff" xlink:href="#b"/>
</g>
<g clip-path="url(#a)">
<use x="230.757624" y="144.269439" fill="#ffffff" stroke="#ffffff" xlink:href="#b"/>
</g>
<g clip-path="url(#a)">
<use x="284.181914" y="144.269439" fill="#ffffff" stroke="#ffffff" xlink:href="#b"/>
</g>
<g clip-path="url(#a)">
<use x="43.772608" y="111.453247" fill="#ffffff" stroke="#ffffff" xlink:href="#b"/>
</g>
<g clip-path="url(#a)">
<use x="123.909043" y="144.269439" fill="#ffffff" stroke="#ffffff" xlink:href="#b"/>
</g>
<g clip-path="url(#a)">
<use x="177.333333" y="144.269439" fill="#ffffff" stroke="#ffffff" xlink:href="#b"/>
</g>
<g clip-path="url(#a)">
<use x="17.060463" y="144.269439" fill="#ffffff" stroke="#ffffff" xlink:href="#b"/>
</g>
<g clip-path="url(#a)">
<use x="70.484753" y="144.269439" fill="#ffffff" stroke="#ffffff" xlink:href="#b"/>
</g>
<g clip-path="url(#a)">
<use x="337.606204" y="144.269439" fill="#ffffff" stroke="#ffffff" xlink:href="#b"/>
</g>
<g clip-path="url(#a)">
<defs>
<path id="p" d="m44.281 53.078v-8.5q-3.7969 1.9531-7.9062 2.9219-4.0938 0.98438-8.5 0.98438-6.6875 0-10.031-2.0469t-3.3438-6.1562q0-3.125 2.3906-4.9062t9.625-3.3906l3.0781-0.6875q9.5625-2.0469 13.594-5.7812t4.0312-10.422q0-7.625-6.0312-12.078-6.0312-4.4375-16.578-4.4375-4.3906 0-9.1562 0.85938t-10.031 2.5625v9.2812q4.9844-2.5938 9.8125-3.8906 4.8281-1.2812 9.5781-1.2812 6.3438 0 9.75 2.1719 3.4219 2.1719 3.4219 6.125 0 3.6562-2.4688 5.6094-2.4531 1.9531-10.812 3.7656l-3.125 0.73438q-8.3438 1.75-12.062 5.3906-3.7031 3.6406-3.7031 9.9844 0 7.7188 5.4688 11.906 5.4688 4.2031 15.531 4.2031 4.9688 0 9.3594-0.73438 4.4062-0.71875 8.1094-2.1875z"/>
</defs>
<g transform="translate(9.3066 179.85) scale(.1 -.1)">
<use xlink:href="#n"/>
<use x="75.195312" xlink:href="#g"/>
<use x="102.978516" xlink:href="#p"/>
</g>
</g>
<g clip-path="url(#a)">
<defs>
<path id="q" d="m54.891 33.016v-33.016h-8.9844v32.719q0 7.7656-3.0312 11.609-3.0312 3.8594-9.0781 3.8594-7.2812 0-11.484-4.6406-4.2031-4.625-4.2031-12.641v-30.906h-9.0312v75.984h9.0312v-29.797q3.2344 4.9375 7.5938 7.375 4.375 2.4375 10.094 2.4375 9.4219 0 14.25-5.8281 4.8438-5.8281 4.8438-17.156z"/>
<path id="af" d="m18.109 8.2031v-29h-9.0312v75.484h9.0312v-8.2969q2.8438 4.875 7.1562 7.2344 4.3281 2.375 10.328 2.375 9.9688 0 16.188-7.9062 6.2344-7.9062 6.2344-20.797t-6.2344-20.812q-6.2188-7.9062-16.188-7.9062-6 0-10.328 2.375-4.3125 2.375-7.1562 7.25zm30.578 19.094q0 9.9062-4.0781 15.547t-11.203 5.6406q-7.1406 0-11.219-5.6406t-4.0781-15.547 4.0781-15.547 11.219-5.6406q7.125 0 11.203 5.6406t4.0781 15.547z"/>
</defs>
<g transform="translate(60.148 179.85) scale(.1 -.1)">
<use xlink:href="#p"/>
<use x="52.099609" xlink:href="#q"/>
<use x="115.478516" xlink:href="#g"/>
<use x="143.261719" xlink:href="#af"/>
</g>
</g>
<g clip-path="url(#a)">
<defs>
<path id="ah" d="m45.406 46.391v29.594h8.9844v-75.984h-8.9844v8.2031q-2.8281-4.875-7.1562-7.25-4.3125-2.375-10.375-2.375-9.9062 0-16.141 7.9062-6.2188 7.9219-6.2188 20.812t6.2188 20.797q6.2344 7.9062 16.141 7.9062 6.0625 0 10.375-2.375 4.3281-2.3594 7.1562-7.2344zm-30.609-19.094q0-9.9062 4.0781-15.547t11.203-5.6406 11.219 5.6406q4.1094 5.6406 4.1094 15.547t-4.1094 15.547q-4.0938 5.6406-11.219 5.6406t-11.203-5.6406-4.0781-15.547z"/>
</defs>
<g transform="translate(114.5 179.85) scale(.1 -.1)">
<use xlink:href="#h"/>
<use x="61.279297" xlink:href="#f"/>
<use x="124.658203" xlink:href="#ah"/>
</g>
</g>
<g clip-path="url(#a)">
<g transform="translate(171.09 179.85) scale(.1 -.1)">
<use xlink:href="#q"/>
<use x="63.378906" xlink:href="#e"/>
</g>
</g>
<g clip-path="url(#a)">
<defs>
<path id="ae" d="m4.2031 54.688h8.9844l11.234-42.672 11.172 42.672h10.594l11.234-42.672 11.188 42.672h8.9844l-14.312-54.688h-10.594l-11.766 44.828-11.812-44.828h-10.609z"/>
</defs>
<g transform="translate(218.46 179.85) scale(.1 -.1)">
<use xlink:href="#ae"/>
<use x="81.787109" xlink:href="#e"/>
<use x="143.310547" xlink:href="#i"/>
<use x="184.392578" xlink:href="#e"/>
</g>
</g>
<g clip-path="url(#a)">
<defs>
<path id="ag" d="m30.609 48.391q-7.2188 0-11.422-5.6406t-4.2031-15.453 4.1719-15.453q4.1875-5.6406 11.453-5.6406 7.1875 0 11.375 5.6562 4.2031 5.6719 4.2031 15.438 0 9.7188-4.2031 15.406-4.1875 5.6875-11.375 5.6875zm0 7.6094q11.719 0 18.406-7.625 6.7031-7.6094 6.7031-21.078 0-13.422-6.7031-21.078-6.6875-7.6406-18.406-7.6406-11.766 0-18.438 7.6406-6.6562 7.6562-6.6562 21.078 0 13.469 6.6562 21.078 6.6719 7.625 18.438 7.625z"/>
</defs>
<g transform="translate(274.88 179.85) scale(.1 -.1)">
<use xlink:href="#ag"/>
<use x="61.181641" xlink:href="#f"/>
<use x="124.560547" xlink:href="#e"/>
</g>
</g>
<g clip-path="url(#a)">
<defs>
<path id="d" d="m10.688 12.406h10.312v-12.406h-10.312z"/>
</defs>
<g transform="translate(336.02 179.85) scale(.1 -.1)">
<use xlink:href="#d"/>
</g>
</g>
<g clip-path="url(#a)">
<defs>
<path id="c" d="m12.406 8.2969h16.109v55.625l-17.531-3.5156v8.9844l17.438 3.5156h9.8594v-64.609h16.109v-8.2969h-41.984z"/>
</defs>
<g transform="translate(233.94 12.34) scale(.1 -.1)">
<use xlink:href="#c"/>
<use x="63.623047" xlink:href="#d"/>
<use x="95.410156" xlink:href="#c"/>
</g>
</g>
<g clip-path="url(#a)">
<defs>
<path id="o" d="m19.188 8.2969h34.422v-8.2969h-46.281v8.2969q5.6094 5.8125 15.297 15.594 9.7031 9.7969 12.188 12.641 4.7344 5.3125 6.6094 9 1.8906 3.6875 1.8906 7.25 0 5.8125-4.0781 9.4688-4.0781 3.6719-10.625 3.6719-4.6406 0-9.7969-1.6094-5.1406-1.6094-11-4.8906v9.9688q5.9531 2.3906 11.125 3.6094 5.1875 1.2188 9.4844 1.2188 11.328 0 18.062-5.6719 6.7344-5.6562 6.7344-15.125 0-4.5-1.6875-8.5312-1.6719-4.0156-6.125-9.4844-1.2188-1.4219-7.7656-8.1875-6.5312-6.7656-18.453-18.922z"/>
</defs>
<g transform="translate(233.94 47.027) scale(.1 -.1)">
<use xlink:href="#c"/>
<use x="63.623047" xlink:href="#d"/>
<use x="95.410156" xlink:href="#o"/>
</g>
</g>
<g clip-path="url(#a)">
<defs>
<path id="ac" d="m37.797 64.312-24.906-38.922h24.906zm-2.5938 8.5938h12.406v-47.516h10.406v-8.2031h-10.406v-17.188h-9.8125v17.188h-32.906v9.5156z"/>
</defs>
<g transform="translate(107.05 80.94) scale(.1 -.1)">
<use xlink:href="#c"/>
<use x="63.623047" xlink:href="#d"/>
<use x="95.410156" xlink:href="#ac"/>
</g>
</g>
<g clip-path="url(#a)">
<defs>
<path id="ab" d="m10.797 72.906h38.719v-8.3125h-29.688v-17.859q2.1406 0.73438 4.2812 1.0938 2.1562 0.35938 4.3125 0.35938 12.203 0 19.328-6.6875 7.1406-6.6875 7.1406-18.109 0-11.766-7.3281-18.297-7.3281-6.5156-20.656-6.5156-4.5938 0-9.3594 0.78125-4.75 0.78125-9.8281 2.3438v9.9219q4.3906-2.3906 9.0781-3.5625t9.9062-1.1719q8.4531 0 13.375 4.4375 4.9375 4.4375 4.9375 12.062 0 7.6094-4.9375 12.047-4.9219 4.4531-13.375 4.4531-3.9531 0-7.8906-0.875-3.9219-0.875-8.0156-2.7344z"/>
</defs>
<g transform="translate(222.81 147.03) scale(.1 -.1)">
<use xlink:href="#c"/>
<use x="63.623047" xlink:href="#d"/>
<use x="95.410156" xlink:href="#ab"/>
</g>
</g>
<g clip-path="url(#a)">
<defs>
<path id="aa" d="m33.016 40.375q-6.6406 0-10.531-4.5469-3.875-4.5312-3.875-12.438 0-7.8594 3.875-12.438 3.8906-4.5625 10.531-4.5625t10.516 4.5625q3.875 4.5781 3.875 12.438 0 7.9062-3.875 12.438-3.875 4.5469-10.516 4.5469zm19.578 30.922v-8.9844q-3.7188 1.75-7.5 2.6719-3.7812 0.9375-7.5 0.9375-9.7656 0-14.922-6.5938-5.1406-6.5938-5.875-19.922 2.875 4.25 7.2188 6.5156 4.3594 2.2656 9.5781 2.2656 10.984 0 17.359-6.6719 6.375-6.6562 6.375-18.125 0-11.234-6.6406-18.031-6.6406-6.7812-17.672-6.7812-12.656 0-19.344 9.6875-6.6875 9.7031-6.6875 28.109 0 17.281 8.2031 27.562t22.016 10.281q3.7188 0 7.5-0.73438t7.8906-2.1875z"/>
</defs>
<g transform="translate(276.23 147.03) scale(.1 -.1)">
<use xlink:href="#c"/>
<use x="63.623047" xlink:href="#d"/>
<use x="95.410156" xlink:href="#aa"/>
</g>
</g>
<g clip-path="url(#a)">
<defs>
<path id="z" d="m8.2031 72.906h46.875v-4.2031l-26.469-68.703h-10.297l24.906 64.594h-35.016z"/>
</defs>
<g transform="translate(35.821 114.21) scale(.1 -.1)">
<use xlink:href="#c"/>
<use x="63.623047" xlink:href="#d"/>
<use x="95.410156" xlink:href="#z"/>
</g>
</g>
<g clip-path="url(#a)">
<defs>
<path id="y" d="m31.781 34.625q-7.0312 0-11.062-3.7656-4.0156-3.7656-4.0156-10.344 0-6.5938 4.0156-10.359 4.0312-3.7656 11.062-3.7656t11.078 3.7812q4.0625 3.7969 4.0625 10.344 0 6.5781-4.0312 10.344-4.0156 3.7656-11.109 3.7656zm-9.8594 4.1875q-6.3438 1.5625-9.8906 5.9062-3.5312 4.3594-3.5312 10.609 0 8.7344 6.2188 13.812 6.2344 5.0781 17.062 5.0781 10.891 0 17.094-5.0781t6.2031-13.812q0-6.25-3.5469-10.609-3.5312-4.3438-9.8281-5.9062 7.125-1.6562 11.094-6.5 3.9844-4.8281 3.9844-11.797 0-10.609-6.4688-16.281-6.4688-5.6562-18.531-5.6562-12.047 0-18.531 5.6562-6.4688 5.6719-6.4688 16.281 0 6.9688 4 11.797 4.0156 4.8438 11.141 6.5zm-3.6094 15.578q0-5.6562 3.5312-8.8281 3.5469-3.1719 9.9375-3.1719 6.3594 0 9.9375 3.1719 3.5938 3.1719 3.5938 8.8281 0 5.6719-3.5938 8.8438-3.5781 3.1719-9.9375 3.1719-6.3906 0-9.9375-3.1719-3.5312-3.1719-3.5312-8.8438z"/>
</defs>
<g transform="translate(115.96 147.03) scale(.1 -.1)">
<use xlink:href="#c"/>
<use x="63.623047" xlink:href="#d"/>
<use x="95.410156" xlink:href="#y"/>
</g>
</g>
<g clip-path="url(#a)">
<defs>
<path id="x" d="m10.984 1.5156v8.9844q3.7188-1.7656 7.5156-2.6875 3.8125-0.92188 7.4844-0.92188 9.7656 0 14.906 6.5625 5.1562 6.5625 5.8906 19.953-2.8281-4.2031-7.1875-6.4531-4.3438-2.25-9.6094-2.25-10.938 0-17.312 6.6094-6.375 6.625-6.375 18.109 0 11.219 6.6406 18 6.6406 6.7969 17.672 6.7969 12.656 0 19.312-9.7031 6.6719-9.6875 6.6719-28.141 0-17.234-8.1875-27.516-8.1719-10.281-21.984-10.281-3.7188 0-7.5312 0.73438-3.7969 0.73438-7.9062 2.2031zm19.625 30.906q6.6406 0 10.516 4.5312 3.8906 4.5469 3.8906 12.469 0 7.8594-3.8906 12.422-3.875 4.5625-10.516 4.5625t-10.516-4.5625-3.875-12.422q0-7.9219 3.875-12.469 3.875-4.5312 10.516-4.5312z"/>
</defs>
<g transform="translate(169.38 147.03) scale(.1 -.1)">
<use xlink:href="#c"/>
<use x="63.623047" xlink:href="#d"/>
<use x="95.410156" xlink:href="#x"/>
</g>
</g>
<g clip-path="url(#a)">
<defs>
<path id="ad" d="m31.781 66.406q-7.6094 0-11.453-7.5-3.8281-7.4844-3.8281-22.531 0-14.984 3.8281-22.484 3.8438-7.5 11.453-7.5 7.6719 0 11.5 7.5 3.8438 7.5 3.8438 22.484 0 15.047-3.8438 22.531-3.8281 7.5-11.5 7.5zm0 7.8125q12.266 0 18.734-9.7031 6.4688-9.6875 6.4688-28.141 0-18.406-6.4688-28.109-6.4688-9.6875-18.734-9.6875-12.25 0-18.719 9.6875-6.4688 9.7031-6.4688 28.109 0 18.453 6.4688 28.141 6.4688 9.7031 18.719 9.7031z"/>
</defs>
<g transform="translate(5.9276 147.03) scale(.1 -.1)">
<use xlink:href="#c"/>
<use x="63.623047" xlink:href="#d"/>
<use x="95.410156" xlink:href="#c"/>
<use x="159.033203" xlink:href="#ad"/>
</g>
</g>
<g clip-path="url(#a)">
<g transform="translate(59.352 147.03) scale(.1 -.1)">
<use xlink:href="#c"/>
<use x="63.623047" xlink:href="#d"/>
<use x="95.410156" xlink:href="#c"/>
<use x="159.033203" xlink:href="#c"/>
</g>
</g>
<g clip-path="url(#a)">
<g transform="translate(326.47 147.03) scale(.1 -.1)">
<use xlink:href="#c"/>
<use x="63.623047" xlink:href="#d"/>
<use x="95.410156" xlink:href="#c"/>
<use x="159.033203" xlink:href="#o"/>
</g>
</g>
<defs>
<clipPath id="a">
<rect width="354.67" height="186.67"/>
</clipPath>
</defs>
</svg>
