<?xml version="1.0" encoding="UTF-8"?>
<!DOCTYPE svg  PUBLIC '-//W3C//DTD SVG 1.1//EN'  'http://www.w3.org/Graphics/SVG/1.1/DTD/svg11.dtd'>
<svg width="861.33pt" height="453.33pt" version="1.1" viewBox="0 0 861.33 453.33" xmlns="http://www.w3.org/2000/svg" xmlns:xlink="http://www.w3.org/1999/xlink">
<defs>
<style type="text/css">*{stroke-linecap:butt;stroke-linejoin:round;white-space:pre;}</style>
</defs>
<path d="m0 453.33h861.33v-453.33h-861.33z" fill="#fff"/>
<g fill="none" stroke="#000">
<path d="m490.77 21.997v104.52" clip-path="url(#a)"/>
<path d="m490.77 126.52-280.13 102.54" clip-path="url(#a)"/>
<path d="m490.77 126.52-60.1 203.68" clip-path="url(#a)"/>
<path d="m490.77 126.52-11.205 203.68" clip-path="url(#a)"/>
<path d="m490.77 126.52 37.69 203.68" clip-path="url(#a)"/>
<path d="m490.77 126.52 86.585 203.68" clip-path="url(#a)"/>
<path d="m490.77 126.52 227.16 102.54" clip-path="url(#a)"/>
<path d="m210.64 229.06-171.13 202.28" clip-path="url(#a)"/>
<path d="m210.64 229.06-73.343 202.28" clip-path="url(#a)"/>
<path d="m210.64 229.06-24.448 202.28" clip-path="url(#a)"/>
<path d="m210.64 229.06 24.448 202.28" clip-path="url(#a)"/>
<path d="m210.64 229.06 73.343 202.28" clip-path="url(#a)"/>
<path d="m210.64 229.06 122.24 202.28" clip-path="url(#a)"/>
<path d="m210.64 229.06 171.13 202.28" clip-path="url(#a)"/>
<path d="m210.64 229.06-122.24 101.14" clip-path="url(#a)"/>
<path d="m430.67 330.2v101.14" clip-path="url(#a)"/>
<path d="m479.56 330.2v101.14" clip-path="url(#a)"/>
<path d="m528.46 330.2v101.14" clip-path="url(#a)"/>
<path d="m577.35 330.2v101.14" clip-path="url(#a)"/>
<path d="m717.93 229.06-91.678 101.14" clip-path="url(#a)"/>
<path d="m717.93 229.06-42.783 101.14" clip-path="url(#a)"/>
<path d="m717.93 229.06 30.559 101.14" clip-path="url(#a)"/>
<path d="m717.93 229.06 103.9 101.14" clip-path="url(#a)"/>
<path d="m626.25 330.2v101.14" clip-path="url(#a)"/>
<path d="m675.14 330.2v101.14" clip-path="url(#a)"/>
<path d="m748.49 330.2-24.448 101.14" clip-path="url(#a)"/>
<path d="m748.49 330.2 24.448 101.14" clip-path="url(#a)"/>
<path d="m88.401 330.2v101.14" clip-path="url(#a)"/>
<path d="m821.83 330.2v101.14" clip-path="url(#a)"/>
</g>
<path d="m484.5 71.249v6.0162q0 2.4 2.4 2.4h7.7425q2.4 0 2.4-2.4v-6.0162q0-2.4-2.4-2.4h-7.7425q-2.4 0-2.4 2.4z" clip-path="url(#a)" fill="#fff" stroke="#fff"/>
<g clip-path="url(#a)">
<defs>
<path id="ae" d="m9.8125 72.906h9.8594v-29.891h35.844v29.891h9.8594v-72.906h-9.8594v34.719h-35.844v-34.719h-9.8594z"/>
</defs>
<g transform="translate(488.56 71.249) rotate(90) scale(.08 -.08)">
<use xlink:href="#ae"/>
</g>
</g>
<path d="m349.95 184.74 5.821-2.1308q2.2537-0.82501 1.4287-3.0788l-2.6615-7.2707q-0.82501-2.2537-3.0788-1.4287l-5.821 2.1308q-2.2537 0.82501-1.4287 3.0788l2.6615 7.2707q0.82501 2.2537 3.0788 1.4287z" clip-path="url(#a)" fill="#fff" stroke="#fff"/>
<g clip-path="url(#a)">
<defs>
<path id="af" d="m59.516 10.406v19.578h-16.109v8.1094h25.875v-31.312q-5.7031-4.0469-12.594-6.125-6.875-2.0781-14.688-2.0781-17.094 0-26.75 9.9844-9.6406 10-9.6406 27.812 0 17.875 9.6406 27.859 9.6562 9.9844 26.75 9.9844 7.125 0 13.547-1.7656 6.4219-1.75 11.844-5.1719v-10.5q-5.4688 4.6406-11.625 6.9844t-12.938 2.3438q-13.391 0-20.109-7.4688-6.7031-7.4688-6.7031-22.266 0-14.75 6.7031-22.219 6.7188-7.4688 20.109-7.4688 5.2188 0 9.3125 0.90625 4.1094 0.90625 7.375 2.8125z"/>
</defs>
<g transform="translate(348.55 180.93) rotate(-20.106) scale(.08 -.08)">
<use xlink:href="#af"/>
</g>
</g>
<path d="m465.96 232.76 1.5488-5.2488q0.67921-2.3019-1.6227-2.9811l-7.426-2.1912q-2.3019-0.67921-2.9811 1.6227l-1.5488 5.2488q-0.67921 2.3019 1.6227 2.9811l7.426 2.1912q2.3019 0.67921 2.9811-1.6227z" clip-path="url(#a)" fill="#fff" stroke="#fff"/>
<g clip-path="url(#a)">
<defs>
<path id="r" d="m34.188 63.188-13.391-36.281h26.812zm-5.5781 9.7188h11.188l27.781-72.906h-10.25l-6.6406 18.703h-32.859l-6.6406-18.703h-10.406z"/>
</defs>
<g transform="translate(462.06 231.61) rotate(-73.56) scale(.08 -.08)">
<use xlink:href="#r"/>
</g>
</g>
<path d="m491.26 231.78 0.33837-6.1507q0.13183-2.3964-2.2645-2.5282l-7.7308-0.42529q-2.3964-0.13183-2.5282 2.2645l-0.33837 6.1507q-0.13183 2.3964 2.2645 2.5282l7.7308 0.42529q2.3964 0.13183 2.5282-2.2645z" clip-path="url(#a)" fill="#fff" stroke="#fff"/>
<g clip-path="url(#a)">
<defs>
<path id="u" d="m19.672 64.797v-56.688h11.922q15.094 0 22.094 6.8281 7 6.8438 7 21.594 0 14.641-7 21.453t-22.094 6.8125zm-9.8594 8.1094h20.266q21.188 0 31.094-8.8125 9.9219-8.8125 9.9219-27.562 0-18.859-9.9688-27.703-9.9531-8.8281-31.047-8.8281h-20.266z"/>
</defs>
<g transform="translate(487.2 231.55) rotate(-86.851) scale(.08 -.08)">
<use xlink:href="#u"/>
</g>
</g>
<path d="m502.88 226.47 1.1208 6.0572q0.43669 2.3599 2.7966 1.9232l7.6133-1.4088q2.3599-0.43669 1.9232-2.7966l-1.1208-6.0572q-0.43669-2.3599-2.7966-1.9232l-7.6133 1.4088q-2.3599 0.43669-1.9232 2.7966z" clip-path="url(#a)" fill="#fff" stroke="#fff"/>
<g clip-path="url(#a)">
<g transform="translate(506.88 225.73) rotate(79.516) scale(.08 -.08)">
<use xlink:href="#u"/>
</g>
</g>
<path d="m527.34 228.59 1.8871 4.4393q0.93892 2.2087 3.1476 1.2698l7.1254-3.029q2.2087-0.93892 1.2698-3.1476l-1.8871-4.4393q-0.93892-2.2087-3.1476-1.2698l-7.1254 3.029q-2.2087 0.93892-1.2698 3.1476z" clip-path="url(#a)" fill="#fff" stroke="#fff"/>
<g clip-path="url(#a)">
<defs>
<path id="ab" d="m19.672 64.797v-27.391h12.406q6.8906 0 10.641 3.5625 3.7656 3.5625 3.7656 10.156 0 6.5469-3.7656 10.109-3.75 3.5625-10.641 3.5625zm-9.8594 8.1094h22.266q12.266 0 18.531-5.5469 6.2812-5.5469 6.2812-16.234 0-10.797-6.2812-16.312-6.2656-5.5156-18.531-5.5156h-12.406v-29.297h-9.8594z"/>
</defs>
<g transform="translate(531.08 227) rotate(66.97) scale(.08 -.08)">
<use xlink:href="#ab"/>
</g>
</g>
<path d="m599.27 182.38 4.9878 2.2516q2.1874 0.98746 3.1749-1.2l3.1856-7.0568q0.98746-2.1874-1.2-3.1749l-4.9878-2.2516q-2.1874-0.98746-3.1749 1.2l-3.1856 7.0568q-0.98746 2.1874 1.2 3.1749z" clip-path="url(#a)" fill="#fff" stroke="#fff"/>
<g clip-path="url(#a)">
<g transform="translate(600.94 178.67) rotate(24.295) scale(.08 -.08)">
<use xlink:href="#r"/>
</g>
</g>
<path d="m118.46 347.72 22.79-26.938q1.5501-1.8322-0.28209-3.3824l-5.9108-5.0008q-1.8322-1.5501-3.3824 0.28209l-22.79 26.938q-1.5501 1.8322 0.28209 3.3824l5.9108 5.0008q1.8322 1.5501 3.3824-0.28209z" clip-path="url(#a)" fill="#fff" stroke="#fff"/>
<g clip-path="url(#a)">
<defs>
<path id="k" d="m-0.29688 72.906h61.672v-8.3125h-25.875v-64.594h-9.9062v64.594h-25.891z"/>
<path id="b" d="m56.203 29.594v-4.3906h-41.312q0.59375-9.2812 5.5938-14.141t13.938-4.8594q5.1719 0 10.031 1.2656t9.6562 3.8125v-8.5q-4.8438-2.0469-9.9219-3.125t-10.297-1.0781q-13.094 0-20.734 7.6094-7.6406 7.625-7.6406 20.625 0 13.422 7.25 21.297 7.25 7.8906 19.562 7.8906 11.031 0 17.453-7.1094 6.4219-7.0938 6.4219-19.297zm-8.9844 2.6406q-0.09375 7.3594-4.125 11.75-4.0312 4.4062-10.672 4.4062-7.5156 0-12.031-4.25t-5.2031-11.969z"/>
<path id="d" d="m41.109 46.297q-1.5156 0.875-3.2969 1.2812-1.7812 0.42188-3.9219 0.42188-7.625 0-11.703-4.9531t-4.0781-14.234v-28.812h-9.0312v54.688h9.0312v-8.5q2.8438 4.9844 7.375 7.3906 4.5469 2.4219 11.047 2.4219 0.92188 0 2.0469-0.125 1.125-0.10938 2.4844-0.35938z"/>
<path id="j" d="m52 44.188q3.375 6.0625 8.0625 8.9375t11.031 2.875q8.5469 0 13.188-5.9844 4.6406-5.9688 4.6406-17v-33.016h-9.0312v32.719q0 7.8594-2.7969 11.656-2.7812 3.8125-8.4844 3.8125-6.9844 0-11.047-4.6406-4.0469-4.625-4.0469-12.641v-30.906h-9.0312v32.719q0 7.9062-2.7812 11.688t-8.5938 3.7812q-6.8906 0-10.953-4.6562-4.0469-4.6562-4.0469-12.625v-30.906h-9.0312v54.688h9.0312v-8.5q3.0781 5.0312 7.375 7.4219t10.203 2.3906q5.9688 0 10.141-3.0312 4.1719-3.0156 6.1719-8.7812z"/>
<path id="h" d="m9.4219 54.688h8.9844v-54.688h-8.9844zm0 21.297h8.9844v-11.391h-8.9844z"/>
<path id="i" d="m54.891 33.016v-33.016h-8.9844v32.719q0 7.7656-3.0312 11.609-3.0312 3.8594-9.0781 3.8594-7.2812 0-11.484-4.6406-4.2031-4.625-4.2031-12.641v-30.906h-9.0312v54.688h9.0312v-8.5q3.2344 4.9375 7.5938 7.375 4.375 2.4375 10.094 2.4375 9.4219 0 14.25-5.8281 4.8438-5.8281 4.8438-17.156z"/>
<path id="e" d="m34.281 27.484q-10.891 0-15.094-2.4844t-4.2031-8.5q0-4.7812 3.1562-7.5938 3.1562-2.7969 8.5625-2.7969 7.4844 0 12 5.2969t4.5156 14.078v2zm17.922 3.7188v-31.203h-8.9844v8.2969q-3.0781-4.9688-7.6719-7.3438t-11.234-2.375q-8.3906 0-13.359 4.7188-4.9531 4.7188-4.9531 12.625 0 9.2188 6.1719 13.906 6.1875 4.6875 18.438 4.6875h12.609v0.89062q0 6.2031-4.0781 9.5938t-11.453 3.3906q-4.6875 0-9.1406-1.125-4.4375-1.125-8.5312-3.375v8.3125q4.9219 1.9062 9.5625 2.8438 4.6406 0.95312 9.0312 0.95312 11.875 0 17.734-6.1562 5.8594-6.1406 5.8594-18.641z"/>
<path id="f" d="m9.4219 75.984h8.9844v-75.984h-8.9844z"/>
</defs>
<g transform="translate(115.36 345.09) rotate(-49.767) scale(.08 -.08)">
<use xlink:href="#k"/>
<use x="60.818359" xlink:href="#b"/>
<use x="122.341797" xlink:href="#d"/>
<use x="163.439453" xlink:href="#j"/>
<use x="260.851562" xlink:href="#h"/>
<use x="288.634766" xlink:href="#i"/>
<use x="352.013672" xlink:href="#e"/>
<use x="413.292969" xlink:href="#f"/>
</g>
</g>
<path d="m173.85 348.92 12.028-33.172q0.8181-2.2563-1.4382-3.0744l-7.2788-2.6392q-2.2563-0.8181-3.0744 1.4382l-12.028 33.172q-0.8181 2.2563 1.4382 3.0744l7.2788 2.6392q2.2563 0.8181 3.0744-1.4382z" clip-path="url(#a)" fill="#fff" stroke="#fff"/>
<g clip-path="url(#a)">
<g transform="translate(170.03 347.54) rotate(-70.07) scale(.08 -.08)">
<use xlink:href="#k"/>
<use x="60.818359" xlink:href="#b"/>
<use x="122.341797" xlink:href="#d"/>
<use x="163.439453" xlink:href="#j"/>
<use x="260.851562" xlink:href="#h"/>
<use x="288.634766" xlink:href="#i"/>
<use x="352.013672" xlink:href="#e"/>
<use x="413.292969" xlink:href="#f"/>
</g>
</g>
<path d="m202.52 348.47 4.2338-35.03q0.28798-2.3827-2.0947-2.6706l-7.6866-0.92902q-2.3827-0.28798-2.6706 2.0947l-4.2338 35.03q-0.28798 2.3827 2.0947 2.6706l7.6866 0.92902q2.3827 0.28798 2.6706-2.0947z" clip-path="url(#a)" fill="#fff" stroke="#fff"/>
<g clip-path="url(#a)">
<g transform="translate(198.49 347.98) rotate(-83.108) scale(.08 -.08)">
<use xlink:href="#k"/>
<use x="60.818359" xlink:href="#b"/>
<use x="122.341797" xlink:href="#d"/>
<use x="163.439453" xlink:href="#j"/>
<use x="260.851562" xlink:href="#h"/>
<use x="288.634766" xlink:href="#i"/>
<use x="352.013672" xlink:href="#e"/>
<use x="413.292969" xlink:href="#f"/>
</g>
</g>
<path d="m214.52 313.44 4.2338 35.03q0.28798 2.3827 2.6706 2.0947l7.6866-0.92902q2.3827-0.28798 2.0947-2.6706l-4.2338-35.03q-0.28798-2.3827-2.6706-2.0947l-7.6866 0.92902q-2.3827 0.28798-2.0947 2.6706z" clip-path="url(#a)" fill="#fff" stroke="#fff"/>
<g clip-path="url(#a)">
<g transform="translate(218.55 312.95) rotate(83.108) scale(.08 -.08)">
<use xlink:href="#k"/>
<use x="60.818359" xlink:href="#b"/>
<use x="122.341797" xlink:href="#d"/>
<use x="163.439453" xlink:href="#j"/>
<use x="260.851562" xlink:href="#h"/>
<use x="288.634766" xlink:href="#i"/>
<use x="352.013672" xlink:href="#e"/>
<use x="413.292969" xlink:href="#f"/>
</g>
</g>
<path d="m235.4 315.75 12.028 33.172q0.8181 2.2563 3.0744 1.4382l7.2788-2.6392q2.2563-0.8181 1.4382-3.0744l-12.028-33.172q-0.8181-2.2563-3.0744-1.4382l-7.2788 2.6392q-2.2563 0.8181-1.4382 3.0744z" clip-path="url(#a)" fill="#fff" stroke="#fff"/>
<g clip-path="url(#a)">
<g transform="translate(239.22 314.37) rotate(70.07) scale(.08 -.08)">
<use xlink:href="#k"/>
<use x="60.818359" xlink:href="#b"/>
<use x="122.341797" xlink:href="#d"/>
<use x="163.439453" xlink:href="#j"/>
<use x="260.851562" xlink:href="#h"/>
<use x="288.634766" xlink:href="#i"/>
<use x="352.013672" xlink:href="#e"/>
<use x="413.292969" xlink:href="#f"/>
</g>
</g>
<path d="m257.27 318.34 18.25 30.199q1.2413 2.0541 3.2954 0.81276l6.6265-4.0045q2.0541-1.2413 0.81276-3.2954l-18.25-30.199q-1.2413-2.0541-3.2954-0.81276l-6.6265 4.0045q-2.0541 1.2413-0.81276 3.2954z" clip-path="url(#a)" fill="#fff" stroke="#fff"/>
<g clip-path="url(#a)">
<g transform="translate(260.74 316.24) rotate(58.855) scale(.08 -.08)">
<use xlink:href="#k"/>
<use x="60.818359" xlink:href="#b"/>
<use x="122.341797" xlink:href="#d"/>
<use x="163.439453" xlink:href="#j"/>
<use x="260.851562" xlink:href="#h"/>
<use x="288.634766" xlink:href="#i"/>
<use x="352.013672" xlink:href="#e"/>
<use x="413.292969" xlink:href="#f"/>
</g>
</g>
<path d="m280.02 320.78 22.79 26.938q1.5501 1.8322 3.3824 0.28209l5.9108-5.0008q1.8322-1.5501 0.28209-3.3824l-22.79-26.938q-1.5501-1.8322-3.3824-0.28209l-5.9108 5.0008q-1.8322 1.5501-0.28209 3.3824z" clip-path="url(#a)" fill="#fff" stroke="#fff"/>
<g clip-path="url(#a)">
<g transform="translate(283.12 318.16) rotate(49.767) scale(.08 -.08)">
<use xlink:href="#k"/>
<use x="60.818359" xlink:href="#b"/>
<use x="122.341797" xlink:href="#d"/>
<use x="163.439453" xlink:href="#j"/>
<use x="260.851562" xlink:href="#h"/>
<use x="288.634766" xlink:href="#i"/>
<use x="352.013672" xlink:href="#e"/>
<use x="413.292969" xlink:href="#f"/>
</g>
</g>
<path d="m151.26 286.33 4.5111-3.7324q1.8491-1.5299 0.31919-3.3791l-4.9357-5.9654q-1.5299-1.8491-3.3791-0.31919l-4.5111 3.7324q-1.8491 1.5299-0.31919 3.3791l4.9357 5.9654q1.5299 1.8491 3.3791 0.31919z" clip-path="url(#a)" fill="#fff" stroke="#fff"/>
<g clip-path="url(#a)">
<defs>
<path id="t" d="m8.6875 72.906h9.9219v-44.297q0-11.719 4.2344-16.875 4.25-5.1406 13.781-5.1406 9.4688 0 13.719 5.1406 4.25 5.1562 4.25 16.875v44.297h9.9062v-45.516q0-14.25-7.0625-21.531-7.0469-7.2812-20.812-7.2812-13.828 0-20.891 7.2812-7.0469 7.2812-7.0469 21.531z"/>
</defs>
<g transform="translate(148.67 283.2) rotate(-39.604) scale(.08 -.08)">
<use xlink:href="#t"/>
</g>
</g>
<path d="m424.4 363.12v35.285q0 2.4 2.4 2.4h7.7425q2.4 0 2.4-2.4v-35.285q0-2.4-2.4-2.4h-7.7425q-2.4 0-2.4 2.4z" clip-path="url(#a)" fill="#fff" stroke="#fff"/>
<g clip-path="url(#a)">
<g transform="translate(428.46 363.12) rotate(90) scale(.08 -.08)">
<use xlink:href="#k"/>
<use x="60.818359" xlink:href="#b"/>
<use x="122.341797" xlink:href="#d"/>
<use x="163.439453" xlink:href="#j"/>
<use x="260.851562" xlink:href="#h"/>
<use x="288.634766" xlink:href="#i"/>
<use x="352.013672" xlink:href="#e"/>
<use x="413.292969" xlink:href="#f"/>
</g>
</g>
<path d="m473.29 363.12v35.285q0 2.4 2.4 2.4h7.7425q2.4 0 2.4-2.4v-35.285q0-2.4-2.4-2.4h-7.7425q-2.4 0-2.4 2.4z" clip-path="url(#a)" fill="#fff" stroke="#fff"/>
<g clip-path="url(#a)">
<g transform="translate(477.35 363.12) rotate(90) scale(.08 -.08)">
<use xlink:href="#k"/>
<use x="60.818359" xlink:href="#b"/>
<use x="122.341797" xlink:href="#d"/>
<use x="163.439453" xlink:href="#j"/>
<use x="260.851562" xlink:href="#h"/>
<use x="288.634766" xlink:href="#i"/>
<use x="352.013672" xlink:href="#e"/>
<use x="413.292969" xlink:href="#f"/>
</g>
</g>
<path d="m522.19 363.12v35.285q0 2.4 2.4 2.4h7.7425q2.4 0 2.4-2.4v-35.285q0-2.4-2.4-2.4h-7.7425q-2.4 0-2.4 2.4z" clip-path="url(#a)" fill="#fff" stroke="#fff"/>
<g clip-path="url(#a)">
<g transform="translate(526.25 363.12) rotate(90) scale(.08 -.08)">
<use xlink:href="#k"/>
<use x="60.818359" xlink:href="#b"/>
<use x="122.341797" xlink:href="#d"/>
<use x="163.439453" xlink:href="#j"/>
<use x="260.851562" xlink:href="#h"/>
<use x="288.634766" xlink:href="#i"/>
<use x="352.013672" xlink:href="#e"/>
<use x="413.292969" xlink:href="#f"/>
</g>
</g>
<path d="m571.08 363.12v35.285q0 2.4 2.4 2.4h7.7425q2.4 0 2.4-2.4v-35.285q0-2.4-2.4-2.4h-7.7425q-2.4 0-2.4 2.4z" clip-path="url(#a)" fill="#fff" stroke="#fff"/>
<g clip-path="url(#a)">
<g transform="translate(575.14 363.12) rotate(90) scale(.08 -.08)">
<use xlink:href="#k"/>
<use x="60.818359" xlink:href="#b"/>
<use x="122.341797" xlink:href="#d"/>
<use x="163.439453" xlink:href="#j"/>
<use x="260.851562" xlink:href="#h"/>
<use x="288.634766" xlink:href="#i"/>
<use x="352.013672" xlink:href="#e"/>
<use x="413.292969" xlink:href="#f"/>
</g>
</g>
<path d="m674.87 285.9 3.7333-4.1185q1.6119-1.7782-0.16631-3.39l-5.7365-5.1999q-1.7782-1.6119-3.39 0.16631l-3.7333 4.1185q-1.6119 1.7782 0.16631 3.39l5.7365 5.1999q1.7782 1.6119 3.39-0.16631z" clip-path="url(#a)" fill="#fff" stroke="#fff"/>
<g clip-path="url(#a)">
<defs>
<path id="aa" d="m44.391 34.188q3.1719-1.0781 6.1719-4.5938t6.0312-9.6719l10.016-19.922h-10.609l-9.3125 18.703q-3.625 7.3281-7.0156 9.7188t-9.25 2.3906h-10.75v-30.812h-9.8594v72.906h22.266q12.5 0 18.656-5.2344 6.1562-5.2188 6.1562-15.766 0-6.8906-3.2031-11.438-3.2031-4.5312-9.2969-6.2812zm-24.719 30.609v-25.875h12.406q7.125 0 10.766 3.2969t3.6406 9.6875-3.6406 9.6406-10.766 3.25z"/>
</defs>
<g transform="translate(671.86 283.17) rotate(-47.809) scale(.08 -.08)">
<use xlink:href="#aa"/>
</g>
</g>
<path d="m701.33 284.4 1.9694-4.6556q0.93503-2.2104-1.2753-3.1454l-7.1307-3.0164q-2.2104-0.93503-3.1454 1.2753l-1.9694 4.6556q-0.93503 2.2104 1.2753 3.1454l7.1307 3.0164q2.2104 0.93503 3.1454-1.2753z" clip-path="url(#a)" fill="#fff" stroke="#fff"/>
<g clip-path="url(#a)">
<defs>
<path id="ag" d="m9.8125 72.906h46.094v-8.3125h-36.234v-21.578h34.719v-8.2969h-34.719v-26.422h37.109v-8.2969h-46.969z"/>
</defs>
<g transform="translate(697.58 282.82) rotate(-67.071) scale(.08 -.08)">
<use xlink:href="#ag"/>
</g>
</g>
<path d="m726.39 278.77 1.6158 5.3475q0.69418 2.2974 2.9916 1.6032l7.4116-2.2395q2.2974-0.69418 1.6032-2.9916l-1.6158-5.3475q-0.69418-2.2974-2.9916-1.6032l-7.4116 2.2395q-2.2974 0.69418-1.6032 2.9916z" clip-path="url(#a)" fill="#fff" stroke="#fff"/>
<g clip-path="url(#a)">
<defs>
<path id="ah" d="m64.406 67.281v-10.391q-4.9844 4.6406-10.625 6.9219-5.6406 2.2969-11.984 2.2969-12.5 0-19.141-7.6406t-6.6406-22.094q0-14.406 6.6406-22.047t19.141-7.6406q6.3438 0 11.984 2.2969t10.625 6.9375v-10.312q-5.1719-3.5156-10.969-5.2812-5.7812-1.75-12.219-1.75-16.562 0-26.094 10.125-9.5156 10.141-9.5156 27.672 0 17.578 9.5156 27.703 9.5312 10.141 26.094 10.141 6.5312 0 12.312-1.7344 5.7969-1.7344 10.875-5.2031z"/>
</defs>
<g transform="translate(730.28 277.59) rotate(73.187) scale(.08 -.08)">
<use xlink:href="#ah"/>
</g>
</g>
<path d="m763.4 282.08 4.1956 4.0839q1.7198 1.674 3.3938-0.045759l5.4005-5.5481q1.674-1.7198-0.045759-3.3938l-4.1956-4.0839q-1.7198-1.674-3.3938 0.045758l-5.4005 5.5481q-1.674 1.7198 0.045759 3.3938z" clip-path="url(#a)" fill="#fff" stroke="#fff"/>
<g clip-path="url(#a)">
<g transform="translate(766.24 279.17) rotate(44.228) scale(.08 -.08)">
<use xlink:href="#t"/>
</g>
</g>
<path d="m619.98 363.12v35.285q0 2.4 2.4 2.4h7.7425q2.4 0 2.4-2.4v-35.285q0-2.4-2.4-2.4h-7.7425q-2.4 0-2.4 2.4z" clip-path="url(#a)" fill="#fff" stroke="#fff"/>
<g clip-path="url(#a)">
<g transform="translate(624.04 363.12) rotate(90) scale(.08 -.08)">
<use xlink:href="#k"/>
<use x="60.818359" xlink:href="#b"/>
<use x="122.341797" xlink:href="#d"/>
<use x="163.439453" xlink:href="#j"/>
<use x="260.851562" xlink:href="#h"/>
<use x="288.634766" xlink:href="#i"/>
<use x="352.013672" xlink:href="#e"/>
<use x="413.292969" xlink:href="#f"/>
</g>
</g>
<path d="m668.87 363.12v35.285q0 2.4 2.4 2.4h7.7425q2.4 0 2.4-2.4v-35.285q0-2.4-2.4-2.4h-7.7425q-2.4 0-2.4 2.4z" clip-path="url(#a)" fill="#fff" stroke="#fff"/>
<g clip-path="url(#a)">
<g transform="translate(672.93 363.12) rotate(90) scale(.08 -.08)">
<use xlink:href="#k"/>
<use x="60.818359" xlink:href="#b"/>
<use x="122.341797" xlink:href="#d"/>
<use x="163.439453" xlink:href="#j"/>
<use x="260.851562" xlink:href="#h"/>
<use x="288.634766" xlink:href="#i"/>
<use x="352.013672" xlink:href="#e"/>
<use x="413.292969" xlink:href="#f"/>
</g>
</g>
<path d="m738.21 399.39 8.2905-34.297q0.5639-2.3328-1.7689-2.8967l-7.5258-1.8192q-2.3328-0.5639-2.8967 1.7689l-8.2905 34.297q-0.5639 2.3328 1.7689 2.8967l7.5258 1.8192q2.3328 0.5639 2.8967-1.7689z" clip-path="url(#a)" fill="#fff" stroke="#fff"/>
<g clip-path="url(#a)">
<g transform="translate(734.26 398.43) rotate(-76.411) scale(.08 -.08)">
<use xlink:href="#k"/>
<use x="60.818359" xlink:href="#b"/>
<use x="122.341797" xlink:href="#d"/>
<use x="163.439453" xlink:href="#j"/>
<use x="260.851562" xlink:href="#h"/>
<use x="288.634766" xlink:href="#i"/>
<use x="352.013672" xlink:href="#e"/>
<use x="413.292969" xlink:href="#f"/>
</g>
</g>
<path d="m750.47 365.09 8.2905 34.297q0.5639 2.3328 2.8967 1.7689l7.5258-1.8192q2.3328-0.5639 1.7689-2.8967l-8.2905-34.297q-0.5639-2.3328-2.8967-1.7689l-7.5258 1.8192q-2.3328 0.5639-1.7689 2.8967z" clip-path="url(#a)" fill="#fff" stroke="#fff"/>
<g clip-path="url(#a)">
<g transform="translate(754.42 364.14) rotate(76.411) scale(.08 -.08)">
<use xlink:href="#k"/>
<use x="60.818359" xlink:href="#b"/>
<use x="122.341797" xlink:href="#d"/>
<use x="163.439453" xlink:href="#j"/>
<use x="260.851562" xlink:href="#h"/>
<use x="288.634766" xlink:href="#i"/>
<use x="352.013672" xlink:href="#e"/>
<use x="413.292969" xlink:href="#f"/>
</g>
</g>
<path d="m82.129 363.12v35.285q0 2.4 2.4 2.4h7.7425q2.4 0 2.4-2.4v-35.285q0-2.4-2.4-2.4h-7.7425q-2.4 0-2.4 2.4z" clip-path="url(#a)" fill="#fff" stroke="#fff"/>
<g clip-path="url(#a)">
<g transform="translate(86.193 363.12) rotate(90) scale(.08 -.08)">
<use xlink:href="#k"/>
<use x="60.818359" xlink:href="#b"/>
<use x="122.341797" xlink:href="#d"/>
<use x="163.439453" xlink:href="#j"/>
<use x="260.851562" xlink:href="#h"/>
<use x="288.634766" xlink:href="#i"/>
<use x="352.013672" xlink:href="#e"/>
<use x="413.292969" xlink:href="#f"/>
</g>
</g>
<path d="m815.56 363.12v35.285q0 2.4 2.4 2.4h7.7425q2.4 0 2.4-2.4v-35.285q0-2.4-2.4-2.4h-7.7425q-2.4 0-2.4 2.4z" clip-path="url(#a)" fill="#fff" stroke="#fff"/>
<g clip-path="url(#a)">
<g transform="translate(819.62 363.12) rotate(90) scale(.08 -.08)">
<use xlink:href="#k"/>
<use x="60.818359" xlink:href="#b"/>
<use x="122.341797" xlink:href="#d"/>
<use x="163.439453" xlink:href="#j"/>
<use x="260.851562" xlink:href="#h"/>
<use x="288.634766" xlink:href="#i"/>
<use x="352.013672" xlink:href="#e"/>
<use x="413.292969" xlink:href="#f"/>
</g>
</g>
<defs>
<path id="c" d="m0 8.6603c2.2967 0 4.4997-0.9125 6.1237-2.5365 1.624-1.624 2.5365-3.827 2.5365-6.1237s-0.9125-4.4997-2.5365-6.1237c-1.624-1.624-3.827-2.5365-6.1237-2.5365s-4.4997 0.9125-6.1237 2.5365c-1.624 1.624-2.5365 3.827-2.5365 6.1237s0.9125 4.4997 2.5365 6.1237c1.624 1.624 3.827 2.5365 6.1237 2.5365z"/>
</defs>
<g clip-path="url(#a)">
<use x="39.505478" y="431.336173" fill="#ffffff" stroke="#ffffff" xlink:href="#c"/>
</g>
<g clip-path="url(#a)">
<use x="88.400627" y="431.336173" fill="#ffffff" stroke="#ffffff" xlink:href="#c"/>
</g>
<g clip-path="url(#a)">
<use x="137.295775" y="431.336173" fill="#ffffff" stroke="#ffffff" xlink:href="#c"/>
</g>
<g clip-path="url(#a)">
<use x="186.190924" y="431.336173" fill="#ffffff" stroke="#ffffff" xlink:href="#c"/>
</g>
<g clip-path="url(#a)">
<use x="235.086072" y="431.336173" fill="#ffffff" stroke="#ffffff" xlink:href="#c"/>
</g>
<g clip-path="url(#a)">
<use x="283.981221" y="431.336173" fill="#ffffff" stroke="#ffffff" xlink:href="#c"/>
</g>
<g clip-path="url(#a)">
<use x="332.876369" y="431.336173" fill="#ffffff" stroke="#ffffff" xlink:href="#c"/>
</g>
<g clip-path="url(#a)">
<use x="381.771518" y="431.336173" fill="#ffffff" stroke="#ffffff" xlink:href="#c"/>
</g>
<g clip-path="url(#a)">
<use x="430.666667" y="431.336173" fill="#ffffff" stroke="#ffffff" xlink:href="#c"/>
</g>
<g clip-path="url(#a)">
<use x="479.561815" y="431.336173" fill="#ffffff" stroke="#ffffff" xlink:href="#c"/>
</g>
<g clip-path="url(#a)">
<use x="528.456964" y="431.336173" fill="#ffffff" stroke="#ffffff" xlink:href="#c"/>
</g>
<g clip-path="url(#a)">
<use x="577.352112" y="431.336173" fill="#ffffff" stroke="#ffffff" xlink:href="#c"/>
</g>
<g clip-path="url(#a)">
<use x="626.247261" y="431.336173" fill="#ffffff" stroke="#ffffff" xlink:href="#c"/>
</g>
<g clip-path="url(#a)">
<use x="675.14241" y="431.336173" fill="#ffffff" stroke="#ffffff" xlink:href="#c"/>
</g>
<g clip-path="url(#a)">
<use x="724.037558" y="431.336173" fill="#ffffff" stroke="#ffffff" xlink:href="#c"/>
</g>
<g clip-path="url(#a)">
<use x="772.932707" y="431.336173" fill="#ffffff" stroke="#ffffff" xlink:href="#c"/>
</g>
<g clip-path="url(#a)">
<use x="821.827855" y="431.336173" fill="#ffffff" stroke="#ffffff" xlink:href="#c"/>
</g>
<g clip-path="url(#a)">
<use x="490.766953" y="21.99716" fill="#ffffff" stroke="#ffffff" xlink:href="#c"/>
</g>
<g clip-path="url(#a)">
<use x="490.766953" y="126.516311" fill="#ffffff" stroke="#ffffff" xlink:href="#c"/>
</g>
<g clip-path="url(#a)">
<use x="210.638498" y="229.060889" fill="#ffffff" stroke="#ffffff" xlink:href="#c"/>
</g>
<g clip-path="url(#a)">
<use x="430.666667" y="330.198531" fill="#ffffff" stroke="#ffffff" xlink:href="#c"/>
</g>
<g clip-path="url(#a)">
<use x="479.561815" y="330.198531" fill="#ffffff" stroke="#ffffff" xlink:href="#c"/>
</g>
<g clip-path="url(#a)">
<use x="528.456964" y="330.198531" fill="#ffffff" stroke="#ffffff" xlink:href="#c"/>
</g>
<g clip-path="url(#a)">
<use x="577.352112" y="330.198531" fill="#ffffff" stroke="#ffffff" xlink:href="#c"/>
</g>
<g clip-path="url(#a)">
<use x="717.925665" y="229.060889" fill="#ffffff" stroke="#ffffff" xlink:href="#c"/>
</g>
<g clip-path="url(#a)">
<use x="626.247261" y="330.198531" fill="#ffffff" stroke="#ffffff" xlink:href="#c"/>
</g>
<g clip-path="url(#a)">
<use x="675.14241" y="330.198531" fill="#ffffff" stroke="#ffffff" xlink:href="#c"/>
</g>
<g clip-path="url(#a)">
<use x="748.485132" y="330.198531" fill="#ffffff" stroke="#ffffff" xlink:href="#c"/>
</g>
<g clip-path="url(#a)">
<use x="88.400627" y="330.198531" fill="#ffffff" stroke="#ffffff" xlink:href="#c"/>
</g>
<g clip-path="url(#a)">
<use x="821.827855" y="330.198531" fill="#ffffff" stroke="#ffffff" xlink:href="#c"/>
</g>
<g clip-path="url(#a)">
<defs>
<path id="ad" d="m9.8125 72.906h9.8594v-72.906h-9.8594z"/>
</defs>
<g transform="translate(38.03 434.1) scale(.1 -.1)">
<use xlink:href="#ad"/>
</g>
</g>
<g clip-path="url(#a)">
<defs>
<path id="an" d="m17.922 72.906v-27.109h-8.2969v27.109z"/>
</defs>
<g transform="translate(87.026 434.1) scale(.1 -.1)">
<use xlink:href="#an"/>
</g>
</g>
<g clip-path="url(#a)">
<g transform="translate(134.52 434.1) scale(.1 -.1)">
<use xlink:href="#f"/>
<use x="27.783203" xlink:href="#f"/>
</g>
</g>
<g clip-path="url(#a)">
<defs>
<path id="m" d="m18.312 70.219v-15.531h18.5v-6.9844h-18.5v-29.688q0-6.6875 1.8281-8.5938t7.4531-1.9062h9.2188v-7.5156h-9.2188q-10.406 0-14.359 3.875-3.9531 3.8906-3.9531 14.141v29.688h-6.5938v6.9844h6.5938v15.531z"/>
</defs>
<g transform="translate(179.77 434.1) scale(.1 -.1)">
<use xlink:href="#f"/>
<use x="27.783203" xlink:href="#b"/>
<use x="89.306641" xlink:href="#m"/>
</g>
</g>
<g clip-path="url(#a)">
<defs>
<path id="n" d="m54.891 33.016v-33.016h-8.9844v32.719q0 7.7656-3.0312 11.609-3.0312 3.8594-9.0781 3.8594-7.2812 0-11.484-4.6406-4.2031-4.625-4.2031-12.641v-30.906h-9.0312v75.984h9.0312v-29.797q3.2344 4.9375 7.5938 7.375 4.375 2.4375 10.094 2.4375 9.4219 0 14.25-5.8281 4.8438-5.8281 4.8438-17.156z"/>
</defs>
<g transform="translate(226.88 434.1) scale(.1 -.1)">
<use xlink:href="#m"/>
<use x="39.208984" xlink:href="#n"/>
<use x="102.587891" xlink:href="#b"/>
</g>
</g>
<g clip-path="url(#a)">
<defs>
<path id="p" d="m45.406 46.391v29.594h8.9844v-75.984h-8.9844v8.2031q-2.8281-4.875-7.1562-7.25-4.3125-2.375-10.375-2.375-9.9062 0-16.141 7.9062-6.2188 7.9219-6.2188 20.812t6.2188 20.797q6.2344 7.9062 16.141 7.9062 6.0625 0 10.375-2.375 4.3281-2.3594 7.1562-7.2344zm-30.609-19.094q0-9.9062 4.0781-15.547t11.203-5.6406 11.219 5.6406q4.1094 5.6406 4.1094 15.547t-4.1094 15.547q-4.0938 5.6406-11.219 5.6406t-11.203-5.6406-4.0781-15.547z"/>
</defs>
<g transform="translate(267.48 434.1) scale(.1 -.1)">
<use xlink:href="#d"/>
<use x="41.082031" xlink:href="#b"/>
<use x="102.605469" xlink:href="#e"/>
<use x="163.884766" xlink:href="#p"/>
<use x="227.361328" xlink:href="#b"/>
<use x="288.884766" xlink:href="#d"/>
</g>
</g>
<g clip-path="url(#a)">
<defs>
<path id="q" d="m48.781 52.594v-8.4062q-3.8125 2.1094-7.6406 3.1562t-7.7344 1.0469q-8.75 0-13.594-5.5469-4.8281-5.5312-4.8281-15.547t4.8281-15.562q4.8438-5.5312 13.594-5.5312 3.9062 0 7.7344 1.0469t7.6406 3.1562v-8.3125q-3.7656-1.75-7.7969-2.625-4.0156-0.89062-8.5625-0.89062-12.359 0-19.641 7.7656-7.2656 7.7656-7.2656 20.953 0 13.375 7.3438 21.031 7.3594 7.6719 20.156 7.6719 4.1406 0 8.0938-0.85938 3.9531-0.84375 7.6719-2.5469z"/>
</defs>
<g transform="translate(316.24 434.1) scale(.1 -.1)">
<use xlink:href="#p"/>
<use x="63.476562" xlink:href="#b"/>
<use x="125" xlink:href="#q"/>
<use x="179.980469" xlink:href="#h"/>
<use x="207.763672" xlink:href="#p"/>
<use x="271.240234" xlink:href="#b"/>
</g>
</g>
<g clip-path="url(#a)">
<defs>
<path id="aq" d="m4.2031 54.688h8.9844l11.234-42.672 11.172 42.672h10.594l11.234-42.672 11.188 42.672h8.9844l-14.312-54.688h-10.594l-11.766 44.828-11.812-44.828h-10.609z"/>
</defs>
<g transform="translate(361.18 434.1) scale(.1 -.1)">
<use xlink:href="#aq"/>
<use x="81.787109" xlink:href="#n"/>
<use x="145.166016" xlink:href="#b"/>
<use x="206.689453" xlink:href="#m"/>
<use x="245.898438" xlink:href="#n"/>
<use x="309.277344" xlink:href="#b"/>
<use x="370.800781" xlink:href="#d"/>
</g>
</g>
<g clip-path="url(#a)">
<defs>
<path id="ao" d="m32.172-5.0781q-3.7969-9.7656-7.4219-12.734-3.6094-2.9844-9.6562-2.9844h-7.1875v7.5156h5.2812q3.7031 0 5.75 1.7656 2.0625 1.75 4.5469 8.2969l1.6094 4.0938-22.109 53.812h9.5156l17.094-42.766 17.094 42.766h9.5156z"/>
<path id="y" d="m44.281 53.078v-8.5q-3.7969 1.9531-7.9062 2.9219-4.0938 0.98438-8.5 0.98438-6.6875 0-10.031-2.0469t-3.3438-6.1562q0-3.125 2.3906-4.9062t9.625-3.3906l3.0781-0.6875q9.5625-2.0469 13.594-5.7812t4.0312-10.422q0-7.625-6.0312-12.078-6.0312-4.4375-16.578-4.4375-4.3906 0-9.1562 0.85938t-10.031 2.5625v9.2812q4.9844-2.5938 9.8125-3.8906 4.8281-1.2812 9.5781-1.2812 6.3438 0 9.75 2.1719 3.4219 2.1719 3.4219 6.125 0 3.6562-2.4688 5.6094-2.4531 1.9531-10.812 3.7656l-3.125 0.73438q-8.3438 1.75-12.062 5.3906-3.7031 3.6406-3.7031 9.9844 0 7.7188 5.4688 11.906 5.4688 4.2031 15.531 4.2031 4.9688 0 9.3594-0.73438 4.4062-0.71875 8.1094-2.1875z"/>
</defs>
<g transform="translate(418.95 434.1) scale(.1 -.1)">
<use xlink:href="#b"/>
<use x="61.523438" xlink:href="#ao"/>
<use x="120.703125" xlink:href="#b"/>
<use x="182.226562" xlink:href="#y"/>
</g>
</g>
<g clip-path="url(#a)">
<defs>
<path id="ar" d="m45.406 27.984q0 9.7656-4.0312 15.125-4.0156 5.375-11.297 5.375-7.2188 0-11.25-5.375-4.0312-5.3594-4.0312-15.125 0-9.7188 4.0312-15.094t11.25-5.375q7.2812 0 11.297 5.375 4.0312 5.375 4.0312 15.094zm8.9844-21.203q0-13.953-6.2031-20.766-6.1875-6.8125-18.984-6.8125-4.7344 0-8.9375 0.70312t-8.1562 2.1719v8.7344q3.9531-2.1406 7.8125-3.1562 3.8594-1.0312 7.8594-1.0312 8.8438 0 13.234 4.6094t4.3906 13.938v4.4531q-2.7812-4.8438-7.125-7.2344t-10.406-2.3906q-10.047 0-16.203 7.6562-6.1562 7.6719-6.1562 20.328 0 12.688 6.1562 20.344 6.1562 7.6719 16.203 7.6719 6.0625 0 10.406-2.3906t7.125-7.2188v8.2969h8.9844z"/>
<path id="o" d="m30.609 48.391q-7.2188 0-11.422-5.6406t-4.2031-15.453 4.1719-15.453q4.1875-5.6406 11.453-5.6406 7.1875 0 11.375 5.6562 4.2031 5.6719 4.2031 15.438 0 9.7188-4.2031 15.406-4.1875 5.6875-11.375 5.6875zm0 7.6094q11.719 0 18.406-7.625 6.7031-7.6094 6.7031-21.078 0-13.422-6.7031-21.078-6.6875-7.6406-18.406-7.6406-11.766 0-18.438 7.6406-6.6562 7.6562-6.6562 21.078 0 13.469 6.6562 21.078 6.6719 7.625 18.438 7.625z"/>
</defs>
<g transform="translate(471.37 434.1) scale(.1 -.1)">
<use xlink:href="#ar"/>
<use x="63.476562" xlink:href="#o"/>
<use x="124.658203" xlink:href="#m"/>
</g>
</g>
<g clip-path="url(#a)">
<defs>
<path id="z" d="m18.109 8.2031v-29h-9.0312v75.484h9.0312v-8.2969q2.8438 4.875 7.1562 7.2344 4.3281 2.375 10.328 2.375 9.9688 0 16.188-7.9062 6.2344-7.9062 6.2344-20.797t-6.2344-20.812q-6.2188-7.9062-16.188-7.9062-6 0-10.328 2.375-4.3125 2.375-7.1562 7.25zm30.578 19.094q0 9.9062-4.0781 15.547t-11.203 5.6406q-7.1406 0-11.219-5.6406t-4.0781-15.547 4.0781-15.547 11.219-5.6406q7.125 0 11.203 5.6406t4.0781 15.547z"/>
</defs>
<g transform="translate(511.86 434.1) scale(.1 -.1)">
<use xlink:href="#z"/>
<use x="63.476562" xlink:href="#d"/>
<use x="104.558594" xlink:href="#o"/>
<use x="165.740234" xlink:href="#z"/>
<use x="229.216797" xlink:href="#b"/>
<use x="290.740234" xlink:href="#d"/>
</g>
</g>
<g clip-path="url(#a)">
<defs>
<path id="ap" d="m54.891 54.688-19.781-26.609 20.797-28.078h-10.594l-15.922 21.484-15.906-21.484h-10.609l21.25 28.609-19.438 26.078h10.594l14.5-19.484 14.5 19.484z"/>
</defs>
<g transform="translate(556.37 434.1) scale(.1 -.1)">
<use xlink:href="#b"/>
<use x="61.507812" xlink:href="#ap"/>
<use x="120.640625" xlink:href="#b"/>
<use x="182.164062" xlink:href="#d"/>
<use x="223.246094" xlink:href="#q"/>
<use x="278.226562" xlink:href="#h"/>
<use x="306.009766" xlink:href="#y"/>
<use x="358.109375" xlink:href="#b"/>
</g>
</g>
<g clip-path="url(#a)">
<defs>
<path id="s" d="m48.688 27.297q0 9.9062-4.0781 15.547t-11.203 5.6406q-7.1406 0-11.219-5.6406t-4.0781-15.547 4.0781-15.547 11.219-5.6406q7.125 0 11.203 5.6406t4.0781 15.547zm-30.578 19.094q2.8438 4.875 7.1562 7.2344 4.3281 2.375 10.328 2.375 9.9688 0 16.188-7.9062 6.2344-7.9062 6.2344-20.797t-6.2344-20.812q-6.2188-7.9062-16.188-7.9062-6 0-10.328 2.375-4.3125 2.375-7.1562 7.25v-8.2031h-9.0312v75.984h9.0312z"/>
</defs>
<g transform="translate(608.66 434.1) scale(.1 -.1)">
<use xlink:href="#e"/>
<use x="61.279297" xlink:href="#s"/>
<use x="124.755859" xlink:href="#o"/>
<use x="185.9375" xlink:href="#e"/>
<use x="247.216797" xlink:href="#d"/>
<use x="288.314453" xlink:href="#p"/>
</g>
</g>
<g clip-path="url(#a)">
<g transform="translate(666.94 434.1) scale(.1 -.1)">
<use xlink:href="#m"/>
<use x="39.208984" xlink:href="#n"/>
<use x="102.587891" xlink:href="#b"/>
</g>
</g>
<g clip-path="url(#a)">
<g transform="translate(701.22 434.1) scale(.1 -.1)">
<use xlink:href="#r"/>
<use x="68.408203" xlink:href="#s"/>
<use x="131.884766" xlink:href="#d"/>
<use x="172.998047" xlink:href="#e"/>
<use x="234.277344" xlink:href="#n"/>
<use x="297.65625" xlink:href="#e"/>
<use x="358.935547" xlink:href="#j"/>
</g>
</g>
<g clip-path="url(#a)">
<defs>
<path id="ac" d="m9.8125 72.906h9.8594v-64.609h35.5v-8.2969h-45.359z"/>
</defs>
<g transform="translate(755.22 434.1) scale(.1 -.1)">
<use xlink:href="#ac"/>
<use x="55.712891" xlink:href="#h"/>
<use x="83.496094" xlink:href="#i"/>
<use x="146.875" xlink:href="#q"/>
<use x="201.855469" xlink:href="#o"/>
<use x="263.037109" xlink:href="#f"/>
<use x="290.820312" xlink:href="#i"/>
</g>
</g>
<g clip-path="url(#a)">
<defs>
<path id="l" d="m10.688 12.406h10.312v-12.406h-10.312z"/>
</defs>
<g transform="translate(820.24 434.1) scale(.1 -.1)">
<use xlink:href="#l"/>
</g>
</g>
<g clip-path="url(#a)">
<defs>
<path id="g" d="m12.406 8.2969h16.109v55.625l-17.531-3.5156v8.9844l17.438 3.5156h9.8594v-64.609h16.109v-8.2969h-41.984z"/>
</defs>
<g transform="translate(482.82 24.757) scale(.1 -.1)">
<use xlink:href="#g"/>
<use x="63.623047" xlink:href="#l"/>
<use x="95.410156" xlink:href="#g"/>
</g>
</g>
<g clip-path="url(#a)">
<defs>
<path id="x" d="m19.188 8.2969h34.422v-8.2969h-46.281v8.2969q5.6094 5.8125 15.297 15.594 9.7031 9.7969 12.188 12.641 4.7344 5.3125 6.6094 9 1.8906 3.6875 1.8906 7.25 0 5.8125-4.0781 9.4688-4.0781 3.6719-10.625 3.6719-4.6406 0-9.7969-1.6094-5.1406-1.6094-11-4.8906v9.9688q5.9531 2.3906 11.125 3.6094 5.1875 1.2188 9.4844 1.2188 11.328 0 18.062-5.6719 6.7344-5.6562 6.7344-15.125 0-4.5-1.6875-8.5312-1.6719-4.0156-6.125-9.4844-1.2188-1.4219-7.7656-8.1875-6.5312-6.7656-18.453-18.922z"/>
</defs>
<g transform="translate(482.82 129.28) scale(.1 -.1)">
<use xlink:href="#g"/>
<use x="63.623047" xlink:href="#l"/>
<use x="95.410156" xlink:href="#x"/>
</g>
</g>
<g clip-path="url(#a)">
<defs>
<path id="w" d="m40.578 39.312q7.0781-1.5156 11.047-6.3125 3.9844-4.7812 3.9844-11.812 0-10.781-7.4219-16.703-7.4219-5.9062-21.094-5.9062-4.5781 0-9.4375 0.90625t-10.031 2.7188v9.5156q4.0938-2.3906 8.9688-3.6094 4.8906-1.2188 10.219-1.2188 9.2656 0 14.125 3.6562t4.8594 10.641q0 6.4531-4.5156 10.078-4.5156 3.6406-12.562 3.6406h-8.5v8.1094h8.8906q7.2656 0 11.125 2.9062t3.8594 8.375q0 5.6094-3.9844 8.6094-3.9688 3.0156-11.391 3.0156-4.0625 0-8.7031-0.89062-4.6406-0.875-10.203-2.7188v8.7812q5.625 1.5625 10.531 2.3438t9.25 0.78125q11.234 0 17.766-5.1094 6.5469-5.0938 6.5469-13.781 0-6.0625-3.4688-10.234t-9.8594-5.7812z"/>
</defs>
<g transform="translate(202.69 231.82) scale(.1 -.1)">
<use xlink:href="#g"/>
<use x="63.623047" xlink:href="#l"/>
<use x="95.410156" xlink:href="#w"/>
</g>
</g>
<g clip-path="url(#a)">
<defs>
<path id="v" d="m37.797 64.312-24.906-38.922h24.906zm-2.5938 8.5938h12.406v-47.516h10.406v-8.2031h-10.406v-17.188h-9.8125v17.188h-32.906v9.5156z"/>
</defs>
<g transform="translate(422.72 332.96) scale(.1 -.1)">
<use xlink:href="#g"/>
<use x="63.623047" xlink:href="#l"/>
<use x="95.410156" xlink:href="#v"/>
</g>
</g>
<g clip-path="url(#a)">
<defs>
<path id="al" d="m10.797 72.906h38.719v-8.3125h-29.688v-17.859q2.1406 0.73438 4.2812 1.0938 2.1562 0.35938 4.3125 0.35938 12.203 0 19.328-6.6875 7.1406-6.6875 7.1406-18.109 0-11.766-7.3281-18.297-7.3281-6.5156-20.656-6.5156-4.5938 0-9.3594 0.78125-4.75 0.78125-9.8281 2.3438v9.9219q4.3906-2.3906 9.0781-3.5625t9.9062-1.1719q8.4531 0 13.375 4.4375 4.9375 4.4375 4.9375 12.062 0 7.6094-4.9375 12.047-4.9219 4.4531-13.375 4.4531-3.9531 0-7.8906-0.875-3.9219-0.875-8.0156-2.7344z"/>
</defs>
<g transform="translate(471.61 332.96) scale(.1 -.1)">
<use xlink:href="#g"/>
<use x="63.623047" xlink:href="#l"/>
<use x="95.410156" xlink:href="#al"/>
</g>
</g>
<g clip-path="url(#a)">
<defs>
<path id="ak" d="m33.016 40.375q-6.6406 0-10.531-4.5469-3.875-4.5312-3.875-12.438 0-7.8594 3.875-12.438 3.8906-4.5625 10.531-4.5625t10.516 4.5625q3.875 4.5781 3.875 12.438 0 7.9062-3.875 12.438-3.875 4.5469-10.516 4.5469zm19.578 30.922v-8.9844q-3.7188 1.75-7.5 2.6719-3.7812 0.9375-7.5 0.9375-9.7656 0-14.922-6.5938-5.1406-6.5938-5.875-19.922 2.875 4.25 7.2188 6.5156 4.3594 2.2656 9.5781 2.2656 10.984 0 17.359-6.6719 6.375-6.6562 6.375-18.125 0-11.234-6.6406-18.031-6.6406-6.7812-17.672-6.7812-12.656 0-19.344 9.6875-6.6875 9.7031-6.6875 28.109 0 17.281 8.2031 27.562t22.016 10.281q3.7188 0 7.5-0.73438t7.8906-2.1875z"/>
</defs>
<g transform="translate(520.51 332.96) scale(.1 -.1)">
<use xlink:href="#g"/>
<use x="63.623047" xlink:href="#l"/>
<use x="95.410156" xlink:href="#ak"/>
</g>
</g>
<g clip-path="url(#a)">
<defs>
<path id="aj" d="m8.2031 72.906h46.875v-4.2031l-26.469-68.703h-10.297l24.906 64.594h-35.016z"/>
</defs>
<g transform="translate(569.4 332.96) scale(.1 -.1)">
<use xlink:href="#g"/>
<use x="63.623047" xlink:href="#l"/>
<use x="95.410156" xlink:href="#aj"/>
</g>
</g>
<g clip-path="url(#a)">
<defs>
<path id="ai" d="m31.781 34.625q-7.0312 0-11.062-3.7656-4.0156-3.7656-4.0156-10.344 0-6.5938 4.0156-10.359 4.0312-3.7656 11.062-3.7656t11.078 3.7812q4.0625 3.7969 4.0625 10.344 0 6.5781-4.0312 10.344-4.0156 3.7656-11.109 3.7656zm-9.8594 4.1875q-6.3438 1.5625-9.8906 5.9062-3.5312 4.3594-3.5312 10.609 0 8.7344 6.2188 13.812 6.2344 5.0781 17.062 5.0781 10.891 0 17.094-5.0781t6.2031-13.812q0-6.25-3.5469-10.609-3.5312-4.3438-9.8281-5.9062 7.125-1.6562 11.094-6.5 3.9844-4.8281 3.9844-11.797 0-10.609-6.4688-16.281-6.4688-5.6562-18.531-5.6562-12.047 0-18.531 5.6562-6.4688 5.6719-6.4688 16.281 0 6.9688 4 11.797 4.0156 4.8438 11.141 6.5zm-3.6094 15.578q0-5.6562 3.5312-8.8281 3.5469-3.1719 9.9375-3.1719 6.3594 0 9.9375 3.1719 3.5938 3.1719 3.5938 8.8281 0 5.6719-3.5938 8.8438-3.5781 3.1719-9.9375 3.1719-6.3906 0-9.9375-3.1719-3.5312-3.1719-3.5312-8.8438z"/>
</defs>
<g transform="translate(709.97 231.82) scale(.1 -.1)">
<use xlink:href="#g"/>
<use x="63.623047" xlink:href="#l"/>
<use x="95.410156" xlink:href="#ai"/>
</g>
</g>
<g clip-path="url(#a)">
<defs>
<path id="am" d="m31.781 66.406q-7.6094 0-11.453-7.5-3.8281-7.4844-3.8281-22.531 0-14.984 3.8281-22.484 3.8438-7.5 11.453-7.5 7.6719 0 11.5 7.5 3.8438 7.5 3.8438 22.484 0 15.047-3.8438 22.531-3.8281 7.5-11.5 7.5zm0 7.8125q12.266 0 18.734-9.7031 6.4688-9.6875 6.4688-28.141 0-18.406-6.4688-28.109-6.4688-9.6875-18.734-9.6875-12.25 0-18.719 9.6875-6.4688 9.7031-6.4688 28.109 0 18.453 6.4688 28.141 6.4688 9.7031 18.719 9.7031z"/>
</defs>
<g transform="translate(615.11 332.96) scale(.1 -.1)">
<use xlink:href="#g"/>
<use x="63.623047" xlink:href="#l"/>
<use x="95.410156" xlink:href="#g"/>
<use x="159.033203" xlink:href="#am"/>
</g>
</g>
<g clip-path="url(#a)">
<g transform="translate(664.01 332.96) scale(.1 -.1)">
<use xlink:href="#g"/>
<use x="63.623047" xlink:href="#l"/>
<use x="95.410156" xlink:href="#g"/>
<use x="159.033203" xlink:href="#g"/>
</g>
</g>
<g clip-path="url(#a)">
<g transform="translate(737.35 332.96) scale(.1 -.1)">
<use xlink:href="#g"/>
<use x="63.623047" xlink:href="#l"/>
<use x="95.410156" xlink:href="#g"/>
<use x="159.033203" xlink:href="#x"/>
</g>
</g>
<g clip-path="url(#a)">
<g transform="translate(77.268 332.96) scale(.1 -.1)">
<use xlink:href="#g"/>
<use x="63.623047" xlink:href="#l"/>
<use x="95.410156" xlink:href="#g"/>
<use x="159.033203" xlink:href="#w"/>
</g>
</g>
<g clip-path="url(#a)">
<g transform="translate(810.7 332.96) scale(.1 -.1)">
<use xlink:href="#g"/>
<use x="63.623047" xlink:href="#l"/>
<use x="95.410156" xlink:href="#g"/>
<use x="159.033203" xlink:href="#v"/>
</g>
</g>
<defs>
<clipPath id="a">
<rect width="861.33" height="453.33"/>
</clipPath>
</defs>
</svg>
