<?xml version="1.0" encoding="UTF-8"?>
<!DOCTYPE svg  PUBLIC '-//W3C//DTD SVG 1.1//EN'  'http://www.w3.org/Graphics/SVG/1.1/DTD/svg11.dtd'>
<svg width="1114.7pt" height="586.67pt" version="1.1" viewBox="0 0 1114.7 586.67" xmlns="http://www.w3.org/2000/svg" xmlns:xlink="http://www.w3.org/1999/xlink">
<defs>
<style type="text/css">*{stroke-linecap:butt;stroke-linejoin:round;}</style>
</defs>
<path d="m0 586.67h1114.7v-586.67h-1114.7z" fill="#fff"/>
<g fill="none" stroke="#000">
<path d="m525.26 27.773v109.98" clip-path="url(#a)"/>
<path d="m525.26 137.75-450.21 213.03" clip-path="url(#a)"/>
<path d="m525.26 137.75-94.527 107.53" clip-path="url(#a)"/>
<path d="m525.26 137.75 80.3 213.03" clip-path="url(#a)"/>
<path d="m525.26 137.75 311.8 107.53" clip-path="url(#a)"/>
<path d="m525.26 137.75 152.64 317.09" clip-path="url(#a)"/>
<path d="m75.051 350.79-24.114 104.05" clip-path="url(#a)"/>
<path d="m75.051 350.79 24.114 104.05" clip-path="url(#a)"/>
<path d="m430.73 245.29-162.77 105.5" clip-path="url(#a)"/>
<path d="m430.73 245.29 6.0285 209.55" clip-path="url(#a)"/>
<path d="m430.73 245.29 54.257 209.55" clip-path="url(#a)"/>
<path d="m430.73 245.29 102.49 209.55" clip-path="url(#a)"/>
<path d="m605.56 350.79-24.114 104.05" clip-path="url(#a)"/>
<path d="m605.56 350.79 24.114 104.05" clip-path="url(#a)"/>
<path d="m837.06 245.29-110.93 209.55" clip-path="url(#a)"/>
<path d="m837.06 245.29-62.697 209.55" clip-path="url(#a)"/>
<path d="m837.06 245.29-14.468 209.55" clip-path="url(#a)"/>
<path d="m837.06 245.29 33.76 209.55" clip-path="url(#a)"/>
<path d="m837.06 245.29 154.33 105.5" clip-path="url(#a)"/>
<path d="m726.13 454.84v104.05" clip-path="url(#a)"/>
<path d="m774.36 454.84v104.05" clip-path="url(#a)"/>
<path d="m822.59 454.84v104.05" clip-path="url(#a)"/>
<path d="m870.82 454.84v104.05" clip-path="url(#a)"/>
<path d="m991.39 350.79-72.342 104.05" clip-path="url(#a)"/>
<path d="m991.39 350.79-24.114 104.05" clip-path="url(#a)"/>
<path d="m991.39 350.79 24.114 104.05" clip-path="url(#a)"/>
<path d="m991.39 350.79 72.342 104.05" clip-path="url(#a)"/>
<path d="m919.05 454.84v104.05" clip-path="url(#a)"/>
<path d="m967.27 454.84v104.05" clip-path="url(#a)"/>
<path d="m1015.5 454.84v104.05" clip-path="url(#a)"/>
<path d="m581.45 454.84v104.05" clip-path="url(#a)"/>
<path d="m629.68 454.84v104.05" clip-path="url(#a)"/>
<path d="m267.96 350.79-120.57 104.05" clip-path="url(#a)"/>
<path d="m267.96 350.79-72.342 104.05" clip-path="url(#a)"/>
<path d="m267.96 350.79-24.114 104.05" clip-path="url(#a)"/>
<path d="m267.96 350.79 24.114 104.05" clip-path="url(#a)"/>
<path d="m267.96 350.79 72.342 104.05" clip-path="url(#a)"/>
<path d="m267.96 350.79 120.57 104.05" clip-path="url(#a)"/>
<path d="m436.76 454.84v104.05" clip-path="url(#a)"/>
<path d="m484.99 454.84v104.05" clip-path="url(#a)"/>
<path d="m533.22 454.84v104.05" clip-path="url(#a)"/>
<path d="m147.39 454.84v104.05" clip-path="url(#a)"/>
<path d="m195.62 454.84v104.05" clip-path="url(#a)"/>
<path d="m243.85 454.84v104.05" clip-path="url(#a)"/>
<path d="m292.08 454.84v104.05" clip-path="url(#a)"/>
<path d="m340.31 454.84v104.05" clip-path="url(#a)"/>
<path d="m388.53 454.84v104.05" clip-path="url(#a)"/>
<path d="m50.936 454.84v104.05" clip-path="url(#a)"/>
<path d="m99.165 454.84v104.05" clip-path="url(#a)"/>
<path d="m677.9 454.84v104.05" clip-path="url(#a)"/>
<path d="m1063.7 454.84v104.05" clip-path="url(#a)"/>
</g>
<path d="m518.99 79.756v6.0162q0 2.4 2.4 2.4h7.7425q2.4 0 2.4-2.4v-6.0162q0-2.4-2.4-2.4h-7.7425q-2.4 0-2.4 2.4z" clip-path="url(#a)" fill="#fff" stroke="#fff"/>
<g clip-path="url(#a)">
<defs>
<path id="aq" d="m9.8125 72.906h9.8594v-29.891h35.844v29.891h9.8594v-72.906h-9.8594v34.719h-35.844v-34.719h-9.8594z"/>
</defs>
<g transform="translate(523.05 79.756) rotate(90) scale(.08 -.08)">
<use xlink:href="#aq"/>
</g>
</g>
<path d="m300.37 251.11 4.9467-2.3407q2.1694-1.0265 1.1429-3.1959l-3.3116-6.9985q-1.0265-2.1694-3.1959-1.1429l-4.9467 2.3407q-2.1694 1.0265-1.1429 3.1959l3.3116 6.9985q1.0265 2.1694 3.1959 1.1429z" clip-path="url(#a)" fill="#fff" stroke="#fff"/>
<g clip-path="url(#a)">
<defs>
<path id="w" d="m34.188 63.188-13.391-36.281h26.812zm-5.5781 9.7188h11.188l27.781-72.906h-10.25l-6.6406 18.703h-32.859l-6.6406-18.703h-10.406z"/>
</defs>
<g transform="translate(298.63 247.44) rotate(-25.323) scale(.08 -.08)">
<use xlink:href="#w"/>
</g>
</g>
<path d="m481.12 197.47 3.1848-3.6229q1.5846-1.8026-0.218-3.3871l-5.8151-5.1118q-1.8026-1.5846-3.3871 0.218l-3.1848 3.6229q-1.5846 1.8026 0.218 3.3871l5.8151 5.1118q1.8026 1.5846 3.3871-0.218z" clip-path="url(#a)" fill="#fff" stroke="#fff"/>
<g clip-path="url(#a)">
<defs>
<path id="ao" d="m19.672 64.797v-27.391h12.406q6.8906 0 10.641 3.5625 3.7656 3.5625 3.7656 10.156 0 6.5469-3.7656 10.109-3.75 3.5625-10.641 3.5625zm-9.8594 8.1094h22.266q12.266 0 18.531-5.5469 6.2812-5.5469 6.2812-16.234 0-10.797-6.2812-16.312-6.2656-5.5156-18.531-5.5156h-12.406v-29.297h-9.8594z"/>
</defs>
<g transform="translate(478.06 194.79) rotate(-48.683) scale(.08 -.08)">
<use xlink:href="#ao"/>
</g>
</g>
<path d="m558.58 243.92 1.9302 5.1208q0.84651 2.2458 3.0923 1.3992l7.2449-2.7309q2.2458-0.84651 1.3992-3.0923l-1.9302-5.1208q-0.84651-2.2458-3.0923-1.3992l-7.2449 2.7309q-2.2458 0.84651-1.3992 3.0923z" clip-path="url(#a)" fill="#fff" stroke="#fff"/>
<g clip-path="url(#a)">
<g transform="translate(562.38 242.49) rotate(69.347) scale(.08 -.08)">
<use xlink:href="#w"/>
</g>
</g>
<path d="m676.53 196.56 5.1735 1.7842q2.2689 0.78248 3.0513-1.4864l2.5243-7.3194q0.78248-2.2689-1.4864-3.0513l-5.1735-1.7842q-2.2689-0.78248-3.0513 1.4864l-2.5243 7.3194q-0.78248 2.2689 1.4864 3.0513z" clip-path="url(#a)" fill="#fff" stroke="#fff"/>
<g clip-path="url(#a)">
<g transform="translate(677.85 192.72) rotate(19.028) scale(.08 -.08)">
<use xlink:href="#w"/>
</g>
</g>
<path d="m594.66 296.38 2.5396 5.2756q1.041 2.1625 3.2035 1.1215l6.9763-3.3583q2.1625-1.041 1.1215-3.2035l-2.5396-5.2756q-1.041-2.1625-3.2035-1.1215l-6.9763 3.3583q-2.1625 1.041-1.1215 3.2035z" clip-path="url(#a)" fill="#fff" stroke="#fff"/>
<g clip-path="url(#a)">
<defs>
<path id="af" d="m8.6875 72.906h9.9219v-44.297q0-11.719 4.2344-16.875 4.25-5.1406 13.781-5.1406 9.4688 0 13.719 5.1406 4.25 5.1562 4.25 16.875v44.297h9.9062v-45.516q0-14.25-7.0625-21.531-7.0469-7.2812-20.812-7.2812-13.828 0-20.891 7.2812-7.0469 7.2812-7.0469 21.531z"/>
</defs>
<g transform="translate(598.32 294.62) rotate(64.294) scale(.08 -.08)">
<use xlink:href="#af"/>
</g>
</g>
<path d="m68.532 406.69 1.1412-4.9245q0.54184-2.338-1.7962-2.8799l-7.5426-1.748q-2.338-0.54184-2.8799 1.7962l-1.1412 4.9245q-0.54184 2.338 1.7962 2.8799l7.5426 1.748q2.338 0.54184 2.8799-1.7962z" clip-path="url(#a)" fill="#fff" stroke="#fff"/>
<g clip-path="url(#a)">
<defs>
<path id="n" d="m9.8125 72.906h46.094v-8.3125h-36.234v-21.578h34.719v-8.2969h-34.719v-26.422h37.109v-8.2969h-46.969z"/>
</defs>
<g transform="translate(64.573 405.77) rotate(-76.952) scale(.08 -.08)">
<use xlink:href="#n"/>
</g>
</g>
<path d="m80.368 401.51 1.2612 5.442q0.54184 2.338 2.8799 1.7962l7.5426-1.748q2.338-0.54184 1.7962-2.8799l-1.2612-5.442q-0.54184-2.338-2.8799-1.7962l-7.5426 1.748q-2.338 0.54184-1.7962 2.8799z" clip-path="url(#a)" fill="#fff" stroke="#fff"/>
<g clip-path="url(#a)">
<defs>
<path id="s" d="m64.406 67.281v-10.391q-4.9844 4.6406-10.625 6.9219-5.6406 2.2969-11.984 2.2969-12.5 0-19.141-7.6406t-6.6406-22.094q0-14.406 6.6406-22.047t19.141-7.6406q6.3438 0 11.984 2.2969t10.625 6.9375v-10.312q-5.1719-3.5156-10.969-5.2812-5.7812-1.75-12.219-1.75-16.562 0-26.094 10.125-9.5156 10.141-9.5156 27.672 0 17.578 9.5156 27.703 9.5312 10.141 26.094 10.141 6.5312 0 12.312-1.7344 5.7969-1.7344 10.875-5.2031z"/>
</defs>
<g transform="translate(84.327 400.59) rotate(76.952) scale(.08 -.08)">
<use xlink:href="#s"/>
</g>
</g>
<path d="m350.64 304.67 4.2419-2.7494q2.014-1.3054 0.7086-3.3193l-4.2111-6.4971q-1.3054-2.014-3.3193-0.7086l-4.2419 2.7494q-2.014 1.3054-0.7086 3.3193l4.2111 6.4971q1.3054 2.014 3.3193 0.7086z" clip-path="url(#a)" fill="#fff" stroke="#fff"/>
<g clip-path="url(#a)">
<g transform="translate(348.43 301.26) rotate(-32.95) scale(.08 -.08)">
<use xlink:href="#n"/>
</g>
</g>
<path d="m427.41 347.94 0.13232 4.5993q0.069016 2.399 2.468 2.33l7.7393-0.22265q2.399-0.069016 2.33-2.468l-0.13232-4.5993q-0.069016-2.399-2.468-2.33l-7.7393 0.22265q-2.399 0.069016-2.33 2.468z" clip-path="url(#a)" fill="#fff" stroke="#fff"/>
<g clip-path="url(#a)">
<defs>
<path id="z" d="m9.8125 72.906h41.891v-8.3125h-32.031v-21.484h28.906v-8.2969h-28.906v-34.812h-9.8594z"/>
</defs>
<g transform="translate(431.48 347.83) rotate(88.352) scale(.08 -.08)">
<use xlink:href="#z"/>
</g>
</g>
<path d="m451.09 348.93 1.4002 5.4079q0.60156 2.3234 2.9249 1.7218l7.4953-1.9407q2.3234-0.60156 1.7218-2.9249l-1.4002-5.4079q-0.60156-2.3234-2.9249-1.7218l-7.4953 1.9407q-2.3234 0.60156-1.7218 2.9249z" clip-path="url(#a)" fill="#fff" stroke="#fff"/>
<g clip-path="url(#a)">
<g transform="translate(455.03 347.91) rotate(75.484) scale(.08 -.08)">
<use xlink:href="#s"/>
</g>
</g>
<path d="m475.23 350.55 2.2208 4.541q1.0544 2.156 3.2104 1.1016l6.9553-3.4016q2.156-1.0544 1.1016-3.2104l-2.2208-4.541q-1.0544-2.156-3.2104-1.1016l-6.9553 3.4016q-2.156 1.0544-1.1016 3.2104z" clip-path="url(#a)" fill="#fff" stroke="#fff"/>
<g clip-path="url(#a)">
<g transform="translate(478.88 348.76) rotate(63.938) scale(.08 -.08)">
<use xlink:href="#n"/>
</g>
</g>
<path d="m599.04 406.69 1.1412-4.9245q0.54184-2.338-1.7962-2.8799l-7.5426-1.748q-2.338-0.54184-2.8799 1.7962l-1.1412 4.9245q-0.54184 2.338 1.7962 2.8799l7.5426 1.748q2.338 0.54184 2.8799-1.7962z" clip-path="url(#a)" fill="#fff" stroke="#fff"/>
<g clip-path="url(#a)">
<g transform="translate(595.08 405.77) rotate(-76.952) scale(.08 -.08)">
<use xlink:href="#n"/>
</g>
</g>
<path d="m610.88 401.51 1.2612 5.442q0.54184 2.338 2.8799 1.7962l7.5426-1.748q2.338-0.54184 1.7962-2.8799l-1.2612-5.442q-0.54184-2.338-2.8799-1.7962l-7.5426 1.748q-2.338 0.54184-1.7962 2.8799z" clip-path="url(#a)" fill="#fff" stroke="#fff"/>
<g clip-path="url(#a)">
<g transform="translate(614.84 400.59) rotate(76.952) scale(.08 -.08)">
<use xlink:href="#s"/>
</g>
</g>
<path d="m785.84 355.45 2.6006-4.9129q1.1228-2.1212-0.99834-3.244l-6.8429-3.6222q-2.1212-1.1228-3.244 0.99834l-2.6006 4.9129q-1.1228 2.1212 0.99834 3.244l6.8429 3.6222q2.1212 1.1228 3.244-0.99834z" clip-path="url(#a)" fill="#fff" stroke="#fff"/>
<g clip-path="url(#a)">
<defs>
<path id="ag" d="m44.391 34.188q3.1719-1.0781 6.1719-4.5938t6.0312-9.6719l10.016-19.922h-10.609l-9.3125 18.703q-3.625 7.3281-7.0156 9.7188t-9.25 2.3906h-10.75v-30.812h-9.8594v72.906h22.266q12.5 0 18.656-5.2344 6.1562-5.2188 6.1562-15.766 0-6.8906-3.2031-11.438-3.2031-4.5312-9.2969-6.2812zm-24.719 30.609v-25.875h12.406q7.125 0 10.766 3.2969t3.6406 9.6875-3.6406 9.6406-10.766 3.25z"/>
</defs>
<g transform="translate(782.25 353.55) rotate(-62.106) scale(.08 -.08)">
<use xlink:href="#ag"/>
</g>
</g>
<path d="m810.99 354.28 1.449-4.8429q0.68793-2.2993-1.6114-2.9872l-7.4176-2.2193q-2.2993-0.68793-2.9872 1.6114l-1.449 4.8429q-0.68793 2.2993 1.6114 2.9872l7.4176 2.2193q2.2993 0.68793 2.9872-1.6114z" clip-path="url(#a)" fill="#fff" stroke="#fff"/>
<g clip-path="url(#a)">
<g transform="translate(807.1 353.12) rotate(-73.343) scale(.08 -.08)">
<use xlink:href="#n"/>
</g>
</g>
<path d="m835.91 353.02 0.34819-5.043q0.16531-2.3943-2.229-2.5596l-7.7241-0.5333q-2.3943-0.16531-2.5596 2.229l-0.34819 5.043q-0.16531 2.3943 2.229 2.5596l7.7241 0.5333q2.3943 0.16531 2.5596-2.229z" clip-path="url(#a)" fill="#fff" stroke="#fff"/>
<g clip-path="url(#a)">
<g transform="translate(831.85 352.74) rotate(-86.05) scale(.08 -.08)">
<use xlink:href="#n"/>
</g>
</g>
<path d="m847.3 348.3 0.88851 5.5151q0.38172 2.3694 2.7512 1.9877l7.6439-1.2315q2.3694-0.38172 1.9877-2.7512l-0.88851-5.5151q-0.38173-2.3694-2.7512-1.9877l-7.6439 1.2315q-2.3694 0.38173-1.9877 2.7512z" clip-path="url(#a)" fill="#fff" stroke="#fff"/>
<g clip-path="url(#a)">
<g transform="translate(851.31 347.66) rotate(80.848) scale(.08 -.08)">
<use xlink:href="#s"/>
</g>
</g>
<path d="m908.6 301.79 4.1731 2.8527q1.9813 1.3544 3.3357-0.62688l4.3694-6.3918q1.3544-1.9813-0.62688-3.3357l-4.1731-2.8527q-1.9813-1.3544-3.3357 0.62688l-4.3694 6.3918q-1.3544 1.9813 0.62688 3.3357z" clip-path="url(#a)" fill="#fff" stroke="#fff"/>
<g clip-path="url(#a)">
<g transform="translate(910.89 298.43) rotate(34.357) scale(.08 -.08)">
<use xlink:href="#n"/>
</g>
</g>
<path d="m719.86 489.22v35.285q0 2.4 2.4 2.4h7.7425q2.4 0 2.4-2.4v-35.285q0-2.4-2.4-2.4h-7.7425q-2.4 0-2.4 2.4z" clip-path="url(#a)" fill="#fff" stroke="#fff"/>
<g clip-path="url(#a)">
<defs>
<path id="l" d="m-0.29688 72.906h61.672v-8.3125h-25.875v-64.594h-9.9062v64.594h-25.891z"/>
<path id="d" d="m56.203 29.594v-4.3906h-41.312q0.59375-9.2812 5.5938-14.141t13.938-4.8594q5.1719 0 10.031 1.2656t9.6562 3.8125v-8.5q-4.8438-2.0469-9.9219-3.125t-10.297-1.0781q-13.094 0-20.734 7.6094-7.6406 7.625-7.6406 20.625 0 13.422 7.25 21.297 7.25 7.8906 19.562 7.8906 11.031 0 17.453-7.1094 6.4219-7.0938 6.4219-19.297zm-8.9844 2.6406q-0.09375 7.3594-4.125 11.75-4.0312 4.4062-10.672 4.4062-7.5156 0-12.031-4.25t-5.2031-11.969z"/>
<path id="g" d="m41.109 46.297q-1.5156 0.875-3.2969 1.2812-1.7812 0.42188-3.9219 0.42188-7.625 0-11.703-4.9531t-4.0781-14.234v-28.812h-9.0312v54.688h9.0312v-8.5q2.8438 4.9844 7.375 7.3906 4.5469 2.4219 11.047 2.4219 0.92188 0 2.0469-0.125 1.125-0.10938 2.4844-0.35938z"/>
<path id="k" d="m52 44.188q3.375 6.0625 8.0625 8.9375t11.031 2.875q8.5469 0 13.188-5.9844 4.6406-5.9688 4.6406-17v-33.016h-9.0312v32.719q0 7.8594-2.7969 11.656-2.7812 3.8125-8.4844 3.8125-6.9844 0-11.047-4.6406-4.0469-4.625-4.0469-12.641v-30.906h-9.0312v32.719q0 7.9062-2.7812 11.688t-8.5938 3.7812q-6.8906 0-10.953-4.6562-4.0469-4.6562-4.0469-12.625v-30.906h-9.0312v54.688h9.0312v-8.5q3.0781 5.0312 7.375 7.4219t10.203 2.3906q5.9688 0 10.141-3.0312 4.1719-3.0156 6.1719-8.7812z"/>
<path id="h" d="m9.4219 54.688h8.9844v-54.688h-8.9844zm0 21.297h8.9844v-11.391h-8.9844z"/>
<path id="j" d="m54.891 33.016v-33.016h-8.9844v32.719q0 7.7656-3.0312 11.609-3.0312 3.8594-9.0781 3.8594-7.2812 0-11.484-4.6406-4.2031-4.625-4.2031-12.641v-30.906h-9.0312v54.688h9.0312v-8.5q3.2344 4.9375 7.5938 7.375 4.375 2.4375 10.094 2.4375 9.4219 0 14.25-5.8281 4.8438-5.8281 4.8438-17.156z"/>
<path id="e" d="m34.281 27.484q-10.891 0-15.094-2.4844t-4.2031-8.5q0-4.7812 3.1562-7.5938 3.1562-2.7969 8.5625-2.7969 7.4844 0 12 5.2969t4.5156 14.078v2zm17.922 3.7188v-31.203h-8.9844v8.2969q-3.0781-4.9688-7.6719-7.3438t-11.234-2.375q-8.3906 0-13.359 4.7188-4.9531 4.7188-4.9531 12.625 0 9.2188 6.1719 13.906 6.1875 4.6875 18.438 4.6875h12.609v0.89062q0 6.2031-4.0781 9.5938t-11.453 3.3906q-4.6875 0-9.1406-1.125-4.4375-1.125-8.5312-3.375v8.3125q4.9219 1.9062 9.5625 2.8438 4.6406 0.95312 9.0312 0.95312 11.875 0 17.734-6.1562 5.8594-6.1406 5.8594-18.641z"/>
<path id="i" d="m9.4219 75.984h8.9844v-75.984h-8.9844z"/>
</defs>
<g transform="translate(723.92 489.22) rotate(90) scale(.08 -.08)">
<use xlink:href="#l"/>
<use x="60.818359" xlink:href="#d"/>
<use x="122.341797" xlink:href="#g"/>
<use x="163.439453" xlink:href="#k"/>
<use x="260.851562" xlink:href="#h"/>
<use x="288.634766" xlink:href="#j"/>
<use x="352.013672" xlink:href="#e"/>
<use x="413.292969" xlink:href="#i"/>
</g>
</g>
<path d="m768.09 489.22v35.285q0 2.4 2.4 2.4h7.7425q2.4 0 2.4-2.4v-35.285q0-2.4-2.4-2.4h-7.7425q-2.4 0-2.4 2.4z" clip-path="url(#a)" fill="#fff" stroke="#fff"/>
<g clip-path="url(#a)">
<g transform="translate(772.15 489.22) rotate(90) scale(.08 -.08)">
<use xlink:href="#l"/>
<use x="60.818359" xlink:href="#d"/>
<use x="122.341797" xlink:href="#g"/>
<use x="163.439453" xlink:href="#k"/>
<use x="260.851562" xlink:href="#h"/>
<use x="288.634766" xlink:href="#j"/>
<use x="352.013672" xlink:href="#e"/>
<use x="413.292969" xlink:href="#i"/>
</g>
</g>
<path d="m816.32 489.22v35.285q0 2.4 2.4 2.4h7.7425q2.4 0 2.4-2.4v-35.285q0-2.4-2.4-2.4h-7.7425q-2.4 0-2.4 2.4z" clip-path="url(#a)" fill="#fff" stroke="#fff"/>
<g clip-path="url(#a)">
<g transform="translate(820.38 489.22) rotate(90) scale(.08 -.08)">
<use xlink:href="#l"/>
<use x="60.818359" xlink:href="#d"/>
<use x="122.341797" xlink:href="#g"/>
<use x="163.439453" xlink:href="#k"/>
<use x="260.851562" xlink:href="#h"/>
<use x="288.634766" xlink:href="#j"/>
<use x="352.013672" xlink:href="#e"/>
<use x="413.292969" xlink:href="#i"/>
</g>
</g>
<path d="m864.55 489.22v35.285q0 2.4 2.4 2.4h7.7425q2.4 0 2.4-2.4v-35.285q0-2.4-2.4-2.4h-7.7425q-2.4 0-2.4 2.4z" clip-path="url(#a)" fill="#fff" stroke="#fff"/>
<g clip-path="url(#a)">
<g transform="translate(868.61 489.22) rotate(90) scale(.08 -.08)">
<use xlink:href="#l"/>
<use x="60.818359" xlink:href="#d"/>
<use x="122.341797" xlink:href="#g"/>
<use x="163.439453" xlink:href="#k"/>
<use x="260.851562" xlink:href="#h"/>
<use x="288.634766" xlink:href="#j"/>
<use x="352.013672" xlink:href="#e"/>
<use x="413.292969" xlink:href="#i"/>
</g>
</g>
<path d="m958.78 408.68 3.1732-4.5641q1.37-1.9705-0.60054-3.3406l-6.3571-4.4197q-1.9705-1.37-3.3406 0.60054l-3.1732 4.5641q-1.37 1.9705 0.60054 3.3406l6.3571 4.4197q1.9705 1.37 3.3406-0.60054z" clip-path="url(#a)" fill="#fff" stroke="#fff"/>
<g clip-path="url(#a)">
<g transform="translate(955.44 406.36) rotate(-55.191) scale(.08 -.08)">
<use xlink:href="#ag"/>
</g>
</g>
<path d="m984.87 406.69 1.1412-4.9245q0.54184-2.338-1.7962-2.8799l-7.5426-1.748q-2.338-0.54184-2.8799 1.7962l-1.1412 4.9245q-0.54184 2.338 1.7962 2.8799l7.5426 1.748q2.338 0.54184 2.8799-1.7962z" clip-path="url(#a)" fill="#fff" stroke="#fff"/>
<g clip-path="url(#a)">
<g transform="translate(980.91 405.77) rotate(-76.952) scale(.08 -.08)">
<use xlink:href="#n"/>
</g>
</g>
<path d="m996.7 401.51 1.2612 5.442q0.54184 2.338 2.8799 1.7962l7.5426-1.748q2.338-0.54184 1.7962-2.8799l-1.2612-5.442q-0.54184-2.338-2.8799-1.7962l-7.5426 1.748q-2.338 0.54184-1.7962 2.8799z" clip-path="url(#a)" fill="#fff" stroke="#fff"/>
<g clip-path="url(#a)">
<g transform="translate(1000.7 400.59) rotate(76.952) scale(.08 -.08)">
<use xlink:href="#s"/>
</g>
</g>
<path d="m1020.7 403.99 3.3423 4.8073q1.37 1.9705 3.3406 0.60054l6.3571-4.4197q1.9705-1.37 0.60054-3.3406l-3.3423-4.8073q-1.37-1.9705-3.3406-0.60054l-6.3571 4.4197q-1.9705 1.37-0.60054 3.3406z" clip-path="url(#a)" fill="#fff" stroke="#fff"/>
<g clip-path="url(#a)">
<g transform="translate(1024.1 401.67) rotate(55.191) scale(.08 -.08)">
<use xlink:href="#af"/>
</g>
</g>
<path d="m912.77 489.22v35.285q0 2.4 2.4 2.4h7.7425q2.4 0 2.4-2.4v-35.285q0-2.4-2.4-2.4h-7.7425q-2.4 0-2.4 2.4z" clip-path="url(#a)" fill="#fff" stroke="#fff"/>
<g clip-path="url(#a)">
<g transform="translate(916.84 489.22) rotate(90) scale(.08 -.08)">
<use xlink:href="#l"/>
<use x="60.818359" xlink:href="#d"/>
<use x="122.341797" xlink:href="#g"/>
<use x="163.439453" xlink:href="#k"/>
<use x="260.851562" xlink:href="#h"/>
<use x="288.634766" xlink:href="#j"/>
<use x="352.013672" xlink:href="#e"/>
<use x="413.292969" xlink:href="#i"/>
</g>
</g>
<path d="m961 489.22v35.285q0 2.4 2.4 2.4h7.7425q2.4 0 2.4-2.4v-35.285q0-2.4-2.4-2.4h-7.7425q-2.4 0-2.4 2.4z" clip-path="url(#a)" fill="#fff" stroke="#fff"/>
<g clip-path="url(#a)">
<g transform="translate(965.07 489.22) rotate(90) scale(.08 -.08)">
<use xlink:href="#l"/>
<use x="60.818359" xlink:href="#d"/>
<use x="122.341797" xlink:href="#g"/>
<use x="163.439453" xlink:href="#k"/>
<use x="260.851562" xlink:href="#h"/>
<use x="288.634766" xlink:href="#j"/>
<use x="352.013672" xlink:href="#e"/>
<use x="413.292969" xlink:href="#i"/>
</g>
</g>
<path d="m1009.2 489.22v35.285q0 2.4 2.4 2.4h7.7425q2.4 0 2.4-2.4v-35.285q0-2.4-2.4-2.4h-7.7425q-2.4 0-2.4 2.4z" clip-path="url(#a)" fill="#fff" stroke="#fff"/>
<g clip-path="url(#a)">
<g transform="translate(1013.3 489.22) rotate(90) scale(.08 -.08)">
<use xlink:href="#l"/>
<use x="60.818359" xlink:href="#d"/>
<use x="122.341797" xlink:href="#g"/>
<use x="163.439453" xlink:href="#k"/>
<use x="260.851562" xlink:href="#h"/>
<use x="288.634766" xlink:href="#j"/>
<use x="352.013672" xlink:href="#e"/>
<use x="413.292969" xlink:href="#i"/>
</g>
</g>
<path d="m575.18 489.22v35.285q0 2.4 2.4 2.4h7.7425q2.4 0 2.4-2.4v-35.285q0-2.4-2.4-2.4h-7.7425q-2.4 0-2.4 2.4z" clip-path="url(#a)" fill="#fff" stroke="#fff"/>
<g clip-path="url(#a)">
<g transform="translate(579.24 489.22) rotate(90) scale(.08 -.08)">
<use xlink:href="#l"/>
<use x="60.818359" xlink:href="#d"/>
<use x="122.341797" xlink:href="#g"/>
<use x="163.439453" xlink:href="#k"/>
<use x="260.851562" xlink:href="#h"/>
<use x="288.634766" xlink:href="#j"/>
<use x="352.013672" xlink:href="#e"/>
<use x="413.292969" xlink:href="#i"/>
</g>
</g>
<path d="m623.4 489.22v35.285q0 2.4 2.4 2.4h7.7425q2.4 0 2.4-2.4v-35.285q0-2.4-2.4-2.4h-7.7425q-2.4 0-2.4 2.4z" clip-path="url(#a)" fill="#fff" stroke="#fff"/>
<g clip-path="url(#a)">
<g transform="translate(627.47 489.22) rotate(90) scale(.08 -.08)">
<use xlink:href="#l"/>
<use x="60.818359" xlink:href="#d"/>
<use x="122.341797" xlink:href="#g"/>
<use x="163.439453" xlink:href="#k"/>
<use x="260.851562" xlink:href="#h"/>
<use x="288.634766" xlink:href="#j"/>
<use x="352.013672" xlink:href="#e"/>
<use x="413.292969" xlink:href="#i"/>
</g>
</g>
<path d="m209.86 409.21 3.8269-3.3027q1.8169-1.568 0.24891-3.385l-5.0585-5.8615q-1.568-1.8169-3.385-0.24891l-3.8269 3.3027q-1.8169 1.568-0.24891 3.385l5.0585 5.8615q1.568 1.8169 3.385 0.24891z" clip-path="url(#a)" fill="#fff" stroke="#fff"/>
<g clip-path="url(#a)">
<g transform="translate(207.21 406.14) rotate(-40.794) scale(.08 -.08)">
<use xlink:href="#n"/>
</g>
</g>
<path d="m235.63 408.28 2.6266-3.7779q1.37-1.9705-0.60054-3.3406l-6.3571-4.4197q-1.9705-1.37-3.3406 0.60054l-2.6266 3.7779q-1.37 1.9705 0.60054 3.3406l6.3571 4.4197q1.9705 1.37 3.3406-0.60054z" clip-path="url(#a)" fill="#fff" stroke="#fff"/>
<g clip-path="url(#a)">
<g transform="translate(232.29 405.96) rotate(-55.191) scale(.08 -.08)">
<use xlink:href="#z"/>
</g>
</g>
<path d="m261.5 406.47 1.0388-4.4825q0.54184-2.338-1.7962-2.8799l-7.5426-1.748q-2.338-0.54184-2.8799 1.7962l-1.0388 4.4825q-0.54184 2.338 1.7962 2.8799l7.5426 1.748q2.338 0.54184 2.8799-1.7962z" clip-path="url(#a)" fill="#fff" stroke="#fff"/>
<g clip-path="url(#a)">
<g transform="translate(257.54 405.55) rotate(-76.952) scale(.08 -.08)">
<use xlink:href="#z"/>
</g>
</g>
<path d="m273.34 401.77 1.1412 4.9245q0.54184 2.338 2.8799 1.7962l7.5426-1.748q2.338-0.54184 1.7962-2.8799l-1.1412-4.9245q-0.54184-2.338-2.8799-1.7962l-7.5426 1.748q-2.338 0.54184-1.7962 2.8799z" clip-path="url(#a)" fill="#fff" stroke="#fff"/>
<g clip-path="url(#a)">
<g transform="translate(277.3 400.85) rotate(76.952) scale(.08 -.08)">
<use xlink:href="#n"/>
</g>
</g>
<path d="m297.54 404.32 2.8856 4.1505q1.37 1.9705 3.3406 0.60054l6.3571-4.4197q1.9705-1.37 0.60054-3.3406l-2.8856-4.1505q-1.37-1.9705-3.3406-0.60054l-6.3571 4.4197q-1.9705 1.37-0.60054 3.3406z" clip-path="url(#a)" fill="#fff" stroke="#fff"/>
<g clip-path="url(#a)">
<g transform="translate(300.88 402) rotate(55.191) scale(.08 -.08)">
<use xlink:href="#n"/>
</g>
</g>
<path d="m322.04 405.74 4.2291 3.6498q1.8169 1.568 3.385-0.24891l5.0585-5.8615q1.568-1.8169-0.24891-3.385l-4.2291-3.6498q-1.8169-1.568-3.385 0.24891l-5.0585 5.8615q-1.568 1.8169 0.24891 3.385z" clip-path="url(#a)" fill="#fff" stroke="#fff"/>
<g clip-path="url(#a)">
<g transform="translate(324.69 402.66) rotate(40.794) scale(.08 -.08)">
<use xlink:href="#s"/>
</g>
</g>
<path d="m430.49 489.22v35.285q0 2.4 2.4 2.4h7.7425q2.4 0 2.4-2.4v-35.285q0-2.4-2.4-2.4h-7.7425q-2.4 0-2.4 2.4z" clip-path="url(#a)" fill="#fff" stroke="#fff"/>
<g clip-path="url(#a)">
<g transform="translate(434.56 489.22) rotate(90) scale(.08 -.08)">
<use xlink:href="#l"/>
<use x="60.818359" xlink:href="#d"/>
<use x="122.341797" xlink:href="#g"/>
<use x="163.439453" xlink:href="#k"/>
<use x="260.851562" xlink:href="#h"/>
<use x="288.634766" xlink:href="#j"/>
<use x="352.013672" xlink:href="#e"/>
<use x="413.292969" xlink:href="#i"/>
</g>
</g>
<path d="m478.72 489.22v35.285q0 2.4 2.4 2.4h7.7425q2.4 0 2.4-2.4v-35.285q0-2.4-2.4-2.4h-7.7425q-2.4 0-2.4 2.4z" clip-path="url(#a)" fill="#fff" stroke="#fff"/>
<g clip-path="url(#a)">
<g transform="translate(482.78 489.22) rotate(90) scale(.08 -.08)">
<use xlink:href="#l"/>
<use x="60.818359" xlink:href="#d"/>
<use x="122.341797" xlink:href="#g"/>
<use x="163.439453" xlink:href="#k"/>
<use x="260.851562" xlink:href="#h"/>
<use x="288.634766" xlink:href="#j"/>
<use x="352.013672" xlink:href="#e"/>
<use x="413.292969" xlink:href="#i"/>
</g>
</g>
<path d="m526.95 489.22v35.285q0 2.4 2.4 2.4h7.7425q2.4 0 2.4-2.4v-35.285q0-2.4-2.4-2.4h-7.7425q-2.4 0-2.4 2.4z" clip-path="url(#a)" fill="#fff" stroke="#fff"/>
<g clip-path="url(#a)">
<g transform="translate(531.01 489.22) rotate(90) scale(.08 -.08)">
<use xlink:href="#l"/>
<use x="60.818359" xlink:href="#d"/>
<use x="122.341797" xlink:href="#g"/>
<use x="163.439453" xlink:href="#k"/>
<use x="260.851562" xlink:href="#h"/>
<use x="288.634766" xlink:href="#j"/>
<use x="352.013672" xlink:href="#e"/>
<use x="413.292969" xlink:href="#i"/>
</g>
</g>
<path d="m141.12 489.22v35.285q0 2.4 2.4 2.4h7.7425q2.4 0 2.4-2.4v-35.285q0-2.4-2.4-2.4h-7.7425q-2.4 0-2.4 2.4z" clip-path="url(#a)" fill="#fff" stroke="#fff"/>
<g clip-path="url(#a)">
<g transform="translate(145.19 489.22) rotate(90) scale(.08 -.08)">
<use xlink:href="#l"/>
<use x="60.818359" xlink:href="#d"/>
<use x="122.341797" xlink:href="#g"/>
<use x="163.439453" xlink:href="#k"/>
<use x="260.851562" xlink:href="#h"/>
<use x="288.634766" xlink:href="#j"/>
<use x="352.013672" xlink:href="#e"/>
<use x="413.292969" xlink:href="#i"/>
</g>
</g>
<path d="m189.35 489.22v35.285q0 2.4 2.4 2.4h7.7425q2.4 0 2.4-2.4v-35.285q0-2.4-2.4-2.4h-7.7425q-2.4 0-2.4 2.4z" clip-path="url(#a)" fill="#fff" stroke="#fff"/>
<g clip-path="url(#a)">
<g transform="translate(193.41 489.22) rotate(90) scale(.08 -.08)">
<use xlink:href="#l"/>
<use x="60.818359" xlink:href="#d"/>
<use x="122.341797" xlink:href="#g"/>
<use x="163.439453" xlink:href="#k"/>
<use x="260.851562" xlink:href="#h"/>
<use x="288.634766" xlink:href="#j"/>
<use x="352.013672" xlink:href="#e"/>
<use x="413.292969" xlink:href="#i"/>
</g>
</g>
<path d="m237.58 489.22v35.285q0 2.4 2.4 2.4h7.7425q2.4 0 2.4-2.4v-35.285q0-2.4-2.4-2.4h-7.7425q-2.4 0-2.4 2.4z" clip-path="url(#a)" fill="#fff" stroke="#fff"/>
<g clip-path="url(#a)">
<g transform="translate(241.64 489.22) rotate(90) scale(.08 -.08)">
<use xlink:href="#l"/>
<use x="60.818359" xlink:href="#d"/>
<use x="122.341797" xlink:href="#g"/>
<use x="163.439453" xlink:href="#k"/>
<use x="260.851562" xlink:href="#h"/>
<use x="288.634766" xlink:href="#j"/>
<use x="352.013672" xlink:href="#e"/>
<use x="413.292969" xlink:href="#i"/>
</g>
</g>
<path d="m285.81 489.22v35.285q0 2.4 2.4 2.4h7.7425q2.4 0 2.4-2.4v-35.285q0-2.4-2.4-2.4h-7.7425q-2.4 0-2.4 2.4z" clip-path="url(#a)" fill="#fff" stroke="#fff"/>
<g clip-path="url(#a)">
<g transform="translate(289.87 489.22) rotate(90) scale(.08 -.08)">
<use xlink:href="#l"/>
<use x="60.818359" xlink:href="#d"/>
<use x="122.341797" xlink:href="#g"/>
<use x="163.439453" xlink:href="#k"/>
<use x="260.851562" xlink:href="#h"/>
<use x="288.634766" xlink:href="#j"/>
<use x="352.013672" xlink:href="#e"/>
<use x="413.292969" xlink:href="#i"/>
</g>
</g>
<path d="m334.03 489.22v35.285q0 2.4 2.4 2.4h7.7425q2.4 0 2.4-2.4v-35.285q0-2.4-2.4-2.4h-7.7425q-2.4 0-2.4 2.4z" clip-path="url(#a)" fill="#fff" stroke="#fff"/>
<g clip-path="url(#a)">
<g transform="translate(338.1 489.22) rotate(90) scale(.08 -.08)">
<use xlink:href="#l"/>
<use x="60.818359" xlink:href="#d"/>
<use x="122.341797" xlink:href="#g"/>
<use x="163.439453" xlink:href="#k"/>
<use x="260.851562" xlink:href="#h"/>
<use x="288.634766" xlink:href="#j"/>
<use x="352.013672" xlink:href="#e"/>
<use x="413.292969" xlink:href="#i"/>
</g>
</g>
<path d="m382.26 489.22v35.285q0 2.4 2.4 2.4h7.7425q2.4 0 2.4-2.4v-35.285q0-2.4-2.4-2.4h-7.7425q-2.4 0-2.4 2.4z" clip-path="url(#a)" fill="#fff" stroke="#fff"/>
<g clip-path="url(#a)">
<g transform="translate(386.33 489.22) rotate(90) scale(.08 -.08)">
<use xlink:href="#l"/>
<use x="60.818359" xlink:href="#d"/>
<use x="122.341797" xlink:href="#g"/>
<use x="163.439453" xlink:href="#k"/>
<use x="260.851562" xlink:href="#h"/>
<use x="288.634766" xlink:href="#j"/>
<use x="352.013672" xlink:href="#e"/>
<use x="413.292969" xlink:href="#i"/>
</g>
</g>
<path d="m44.665 489.22v35.285q0 2.4 2.4 2.4h7.7425q2.4 0 2.4-2.4v-35.285q0-2.4-2.4-2.4h-7.7425q-2.4 0-2.4 2.4z" clip-path="url(#a)" fill="#fff" stroke="#fff"/>
<g clip-path="url(#a)">
<g transform="translate(48.729 489.22) rotate(90) scale(.08 -.08)">
<use xlink:href="#l"/>
<use x="60.818359" xlink:href="#d"/>
<use x="122.341797" xlink:href="#g"/>
<use x="163.439453" xlink:href="#k"/>
<use x="260.851562" xlink:href="#h"/>
<use x="288.634766" xlink:href="#j"/>
<use x="352.013672" xlink:href="#e"/>
<use x="413.292969" xlink:href="#i"/>
</g>
</g>
<path d="m92.893 489.22v35.285q0 2.4 2.4 2.4h7.7425q2.4 0 2.4-2.4v-35.285q0-2.4-2.4-2.4h-7.7425q-2.4 0-2.4 2.4z" clip-path="url(#a)" fill="#fff" stroke="#fff"/>
<g clip-path="url(#a)">
<g transform="translate(96.957 489.22) rotate(90) scale(.08 -.08)">
<use xlink:href="#l"/>
<use x="60.818359" xlink:href="#d"/>
<use x="122.341797" xlink:href="#g"/>
<use x="163.439453" xlink:href="#k"/>
<use x="260.851562" xlink:href="#h"/>
<use x="288.634766" xlink:href="#j"/>
<use x="352.013672" xlink:href="#e"/>
<use x="413.292969" xlink:href="#i"/>
</g>
</g>
<path d="m671.63 489.22v35.285q0 2.4 2.4 2.4h7.7425q2.4 0 2.4-2.4v-35.285q0-2.4-2.4-2.4h-7.7425q-2.4 0-2.4 2.4z" clip-path="url(#a)" fill="#fff" stroke="#fff"/>
<g clip-path="url(#a)">
<g transform="translate(675.7 489.22) rotate(90) scale(.08 -.08)">
<use xlink:href="#l"/>
<use x="60.818359" xlink:href="#d"/>
<use x="122.341797" xlink:href="#g"/>
<use x="163.439453" xlink:href="#k"/>
<use x="260.851562" xlink:href="#h"/>
<use x="288.634766" xlink:href="#j"/>
<use x="352.013672" xlink:href="#e"/>
<use x="413.292969" xlink:href="#i"/>
</g>
</g>
<path d="m1057.5 489.22v35.285q0 2.4 2.4 2.4h7.7425q2.4 0 2.4-2.4v-35.285q0-2.4-2.4-2.4h-7.7425q-2.4 0-2.4 2.4z" clip-path="url(#a)" fill="#fff" stroke="#fff"/>
<g clip-path="url(#a)">
<g transform="translate(1061.5 489.22) rotate(90) scale(.08 -.08)">
<use xlink:href="#l"/>
<use x="60.818359" xlink:href="#d"/>
<use x="122.341797" xlink:href="#g"/>
<use x="163.439453" xlink:href="#k"/>
<use x="260.851562" xlink:href="#h"/>
<use x="288.634766" xlink:href="#j"/>
<use x="352.013672" xlink:href="#e"/>
<use x="413.292969" xlink:href="#i"/>
</g>
</g>
<defs>
<path id="b" d="m0 8.6603c2.2967 0 4.4997-0.9125 6.1237-2.5365 1.624-1.624 2.5365-3.827 2.5365-6.1237s-0.9125-4.4997-2.5365-6.1237c-1.624-1.624-3.827-2.5365-6.1237-2.5365s-4.4997 0.9125-6.1237 2.5365c-1.624 1.624-2.5365 3.827-2.5365 6.1237s0.9125 4.4997 2.5365 6.1237c1.624 1.624 3.827 2.5365 6.1237 2.5365z"/>
</defs>
<g clip-path="url(#a)">
<use x="50.936453" y="558.894072" fill="#ffffff" stroke="#ffffff" xlink:href="#b"/>
</g>
<g clip-path="url(#a)">
<use x="99.164727" y="558.894072" fill="#ffffff" stroke="#ffffff" xlink:href="#b"/>
</g>
<g clip-path="url(#a)">
<use x="147.393002" y="558.894072" fill="#ffffff" stroke="#ffffff" xlink:href="#b"/>
</g>
<g clip-path="url(#a)">
<use x="195.621276" y="558.894072" fill="#ffffff" stroke="#ffffff" xlink:href="#b"/>
</g>
<g clip-path="url(#a)">
<use x="243.84955" y="558.894072" fill="#ffffff" stroke="#ffffff" xlink:href="#b"/>
</g>
<g clip-path="url(#a)">
<use x="292.077825" y="558.894072" fill="#ffffff" stroke="#ffffff" xlink:href="#b"/>
</g>
<g clip-path="url(#a)">
<use x="340.306099" y="558.894072" fill="#ffffff" stroke="#ffffff" xlink:href="#b"/>
</g>
<g clip-path="url(#a)">
<use x="388.534373" y="558.894072" fill="#ffffff" stroke="#ffffff" xlink:href="#b"/>
</g>
<g clip-path="url(#a)">
<use x="436.762648" y="558.894072" fill="#ffffff" stroke="#ffffff" xlink:href="#b"/>
</g>
<g clip-path="url(#a)">
<use x="484.990922" y="558.894072" fill="#ffffff" stroke="#ffffff" xlink:href="#b"/>
</g>
<g clip-path="url(#a)">
<use x="533.219196" y="558.894072" fill="#ffffff" stroke="#ffffff" xlink:href="#b"/>
</g>
<g clip-path="url(#a)">
<use x="581.44747" y="558.894072" fill="#ffffff" stroke="#ffffff" xlink:href="#b"/>
</g>
<g clip-path="url(#a)">
<use x="629.675745" y="558.894072" fill="#ffffff" stroke="#ffffff" xlink:href="#b"/>
</g>
<g clip-path="url(#a)">
<use x="677.904019" y="558.894072" fill="#ffffff" stroke="#ffffff" xlink:href="#b"/>
</g>
<g clip-path="url(#a)">
<use x="726.132293" y="558.894072" fill="#ffffff" stroke="#ffffff" xlink:href="#b"/>
</g>
<g clip-path="url(#a)">
<use x="774.360568" y="558.894072" fill="#ffffff" stroke="#ffffff" xlink:href="#b"/>
</g>
<g clip-path="url(#a)">
<use x="822.588842" y="558.894072" fill="#ffffff" stroke="#ffffff" xlink:href="#b"/>
</g>
<g clip-path="url(#a)">
<use x="870.817116" y="558.894072" fill="#ffffff" stroke="#ffffff" xlink:href="#b"/>
</g>
<g clip-path="url(#a)">
<use x="919.045391" y="558.894072" fill="#ffffff" stroke="#ffffff" xlink:href="#b"/>
</g>
<g clip-path="url(#a)">
<use x="967.273665" y="558.894072" fill="#ffffff" stroke="#ffffff" xlink:href="#b"/>
</g>
<g clip-path="url(#a)">
<use x="1015.501939" y="558.894072" fill="#ffffff" stroke="#ffffff" xlink:href="#b"/>
</g>
<g clip-path="url(#a)">
<use x="1063.730214" y="558.894072" fill="#ffffff" stroke="#ffffff" xlink:href="#b"/>
</g>
<g clip-path="url(#a)">
<use x="525.261531" y="27.772595" fill="#ffffff" stroke="#ffffff" xlink:href="#b"/>
</g>
<g clip-path="url(#a)">
<use x="525.261531" y="137.754901" fill="#ffffff" stroke="#ffffff" xlink:href="#b"/>
</g>
<g clip-path="url(#a)">
<use x="75.05059" y="350.787728" fill="#ffffff" stroke="#ffffff" xlink:href="#b"/>
</g>
<g clip-path="url(#a)">
<use x="430.734113" y="245.287062" fill="#ffffff" stroke="#ffffff" xlink:href="#b"/>
</g>
<g clip-path="url(#a)">
<use x="605.561608" y="350.787728" fill="#ffffff" stroke="#ffffff" xlink:href="#b"/>
</g>
<g clip-path="url(#a)">
<use x="837.057324" y="245.287062" fill="#ffffff" stroke="#ffffff" xlink:href="#b"/>
</g>
<g clip-path="url(#a)">
<use x="726.132293" y="454.8409" fill="#ffffff" stroke="#ffffff" xlink:href="#b"/>
</g>
<g clip-path="url(#a)">
<use x="774.360568" y="454.8409" fill="#ffffff" stroke="#ffffff" xlink:href="#b"/>
</g>
<g clip-path="url(#a)">
<use x="822.588842" y="454.8409" fill="#ffffff" stroke="#ffffff" xlink:href="#b"/>
</g>
<g clip-path="url(#a)">
<use x="870.817116" y="454.8409" fill="#ffffff" stroke="#ffffff" xlink:href="#b"/>
</g>
<g clip-path="url(#a)">
<use x="991.387802" y="350.787728" fill="#ffffff" stroke="#ffffff" xlink:href="#b"/>
</g>
<g clip-path="url(#a)">
<use x="919.045391" y="454.8409" fill="#ffffff" stroke="#ffffff" xlink:href="#b"/>
</g>
<g clip-path="url(#a)">
<use x="967.273665" y="454.8409" fill="#ffffff" stroke="#ffffff" xlink:href="#b"/>
</g>
<g clip-path="url(#a)">
<use x="1015.501939" y="454.8409" fill="#ffffff" stroke="#ffffff" xlink:href="#b"/>
</g>
<g clip-path="url(#a)">
<use x="581.44747" y="454.8409" fill="#ffffff" stroke="#ffffff" xlink:href="#b"/>
</g>
<g clip-path="url(#a)">
<use x="629.675745" y="454.8409" fill="#ffffff" stroke="#ffffff" xlink:href="#b"/>
</g>
<g clip-path="url(#a)">
<use x="267.963687" y="350.787728" fill="#ffffff" stroke="#ffffff" xlink:href="#b"/>
</g>
<g clip-path="url(#a)">
<use x="436.762648" y="454.8409" fill="#ffffff" stroke="#ffffff" xlink:href="#b"/>
</g>
<g clip-path="url(#a)">
<use x="484.990922" y="454.8409" fill="#ffffff" stroke="#ffffff" xlink:href="#b"/>
</g>
<g clip-path="url(#a)">
<use x="533.219196" y="454.8409" fill="#ffffff" stroke="#ffffff" xlink:href="#b"/>
</g>
<g clip-path="url(#a)">
<use x="147.393002" y="454.8409" fill="#ffffff" stroke="#ffffff" xlink:href="#b"/>
</g>
<g clip-path="url(#a)">
<use x="195.621276" y="454.8409" fill="#ffffff" stroke="#ffffff" xlink:href="#b"/>
</g>
<g clip-path="url(#a)">
<use x="243.84955" y="454.8409" fill="#ffffff" stroke="#ffffff" xlink:href="#b"/>
</g>
<g clip-path="url(#a)">
<use x="292.077825" y="454.8409" fill="#ffffff" stroke="#ffffff" xlink:href="#b"/>
</g>
<g clip-path="url(#a)">
<use x="340.306099" y="454.8409" fill="#ffffff" stroke="#ffffff" xlink:href="#b"/>
</g>
<g clip-path="url(#a)">
<use x="388.534373" y="454.8409" fill="#ffffff" stroke="#ffffff" xlink:href="#b"/>
</g>
<g clip-path="url(#a)">
<use x="50.936453" y="454.8409" fill="#ffffff" stroke="#ffffff" xlink:href="#b"/>
</g>
<g clip-path="url(#a)">
<use x="99.164727" y="454.8409" fill="#ffffff" stroke="#ffffff" xlink:href="#b"/>
</g>
<g clip-path="url(#a)">
<use x="677.904019" y="454.8409" fill="#ffffff" stroke="#ffffff" xlink:href="#b"/>
</g>
<g clip-path="url(#a)">
<use x="1063.730214" y="454.8409" fill="#ffffff" stroke="#ffffff" xlink:href="#b"/>
</g>
<g clip-path="url(#a)">
<defs>
<path id="ap" d="m39.406 66.219q-10.75 0-17.078-8.0156-6.3125-8-6.3125-21.828 0-13.766 6.3125-21.781 6.3281-8 17.078-8 10.734 0 17.016 8 6.2812 8.0156 6.2812 21.781 0 13.828-6.2812 21.828-6.2812 8.0156-17.016 8.0156zm0 8q15.328 0 24.5-10.281 9.1875-10.281 9.1875-27.562 0-17.234-9.1875-27.516-9.1719-10.281-24.5-10.281-15.375 0-24.594 10.25-9.2031 10.266-9.2031 27.547t9.2031 27.562q9.2188 10.281 24.594 10.281z"/>
<path id="ac" d="m8.5 21.578v33.109h8.9844v-32.766q0-7.7656 3.0156-11.656 3.0312-3.875 9.0938-3.875 7.2656 0 11.484 4.6406 4.2344 4.6406 4.2344 12.656v31h8.9844v-54.688h-8.9844v8.4062q-3.2656-4.9844-7.5938-7.4062-4.3125-2.4219-10.031-2.4219-9.4219 0-14.312 5.8594-4.875 5.8594-4.875 17.141z"/>
</defs>
<g transform="translate(41.776 561.65) scale(.1 -.1)">
<use xlink:href="#ap"/>
<use x="78.710938" xlink:href="#ac"/>
<use x="142.089844" xlink:href="#g"/>
</g>
</g>
<g clip-path="url(#a)">
<defs>
<path id="v" d="m37.109 75.984v-7.4844h-8.5938q-4.8281 0-6.7188-1.9531-1.875-1.9531-1.875-7.0312v-4.8281h14.797v-6.9844h-14.797v-47.703h-9.0312v47.703h-8.5938v6.9844h8.5938v3.8125q0 9.125 4.25 13.297 4.25 4.1875 13.469 4.1875z"/>
<path id="u" d="m45.406 27.984q0 9.7656-4.0312 15.125-4.0156 5.375-11.297 5.375-7.2188 0-11.25-5.375-4.0312-5.3594-4.0312-15.125 0-9.7188 4.0312-15.094t11.25-5.375q7.2812 0 11.297 5.375 4.0312 5.375 4.0312 15.094zm8.9844-21.203q0-13.953-6.2031-20.766-6.1875-6.8125-18.984-6.8125-4.7344 0-8.9375 0.70312t-8.1562 2.1719v8.7344q3.9531-2.1406 7.8125-3.1562 3.8594-1.0312 7.8594-1.0312 8.8438 0 13.234 4.6094t4.3906 13.938v4.4531q-2.7812-4.8438-7.125-7.2344t-10.406-2.3906q-10.047 0-16.203 7.6562-6.1562 7.6719-6.1562 20.328 0 12.688 6.1562 20.344 6.1562 7.6719 16.203 7.6719 6.0625 0 10.406-2.3906t7.125-7.2188v8.2969h8.9844z"/>
<path id="p" d="m18.312 70.219v-15.531h18.5v-6.9844h-18.5v-29.688q0-6.6875 1.8281-8.5938t7.4531-1.9062h9.2188v-7.5156h-9.2188q-10.406 0-14.359 3.875-3.9531 3.8906-3.9531 14.141v29.688h-6.5938v6.9844h6.5938v15.531z"/>
</defs>
<g transform="translate(82.685 561.65) scale(.1 -.1)">
<use xlink:href="#v"/>
<use x="35.205078" xlink:href="#g"/>
<use x="76.318359" xlink:href="#h"/>
<use x="104.101562" xlink:href="#u"/>
<use x="167.578125" xlink:href="#e"/>
<use x="228.857422" xlink:href="#p"/>
<use x="268.066406" xlink:href="#d"/>
</g>
</g>
<g clip-path="url(#a)">
<defs>
<path id="al" d="m4.2031 54.688h8.9844l11.234-42.672 11.172 42.672h10.594l11.234-42.672 11.188 42.672h8.9844l-14.312-54.688h-10.594l-11.766 44.828-11.812-44.828h-10.609z"/>
<path id="q" d="m30.609 48.391q-7.2188 0-11.422-5.6406t-4.2031-15.453 4.1719-15.453q4.1875-5.6406 11.453-5.6406 7.1875 0 11.375 5.6562 4.2031 5.6719 4.2031 15.438 0 9.7188-4.2031 15.406-4.1875 5.6875-11.375 5.6875zm0 7.6094q11.719 0 18.406-7.625 6.7031-7.6094 6.7031-21.078 0-13.422-6.7031-21.078-6.6875-7.6406-18.406-7.6406-11.766 0-18.438 7.6406-6.6562 7.6562-6.6562 21.078 0 13.469 6.6562 21.078 6.6719 7.625 18.438 7.625z"/>
<path id="ad" d="m45.406 46.391v29.594h8.9844v-75.984h-8.9844v8.2031q-2.8281-4.875-7.1562-7.25-4.3125-2.375-10.375-2.375-9.9062 0-16.141 7.9062-6.2188 7.9219-6.2188 20.812t6.2188 20.797q6.2344 7.9062 16.141 7.9062 6.0625 0 10.375-2.375 4.3281-2.3594 7.1562-7.2344zm-30.609-19.094q0-9.9062 4.0781-15.547t11.203-5.6406 11.219 5.6406q4.1094 5.6406 4.1094 15.547t-4.1094 15.547q-4.0938 5.6406-11.219 5.6406t-11.203-5.6406-4.0781-15.547z"/>
</defs>
<g transform="translate(132.51 561.65) scale(.1 -.1)">
<use xlink:href="#al"/>
<use x="81.787109" xlink:href="#q"/>
<use x="142.96875" xlink:href="#ac"/>
<use x="206.347656" xlink:href="#i"/>
<use x="234.130859" xlink:href="#ad"/>
</g>
</g>
<g clip-path="url(#a)">
<defs>
<path id="t" d="m54.891 33.016v-33.016h-8.9844v32.719q0 7.7656-3.0312 11.609-3.0312 3.8594-9.0781 3.8594-7.2812 0-11.484-4.6406-4.2031-4.625-4.2031-12.641v-30.906h-9.0312v75.984h9.0312v-29.797q3.2344 4.9375 7.5938 7.375 4.375 2.4375 10.094 2.4375 9.4219 0 14.25-5.8281 4.8438-5.8281 4.8438-17.156z"/>
<path id="am" d="m2.9844 54.688h9.5156l17.094-45.891 17.094 45.891h9.5156l-20.516-54.688h-12.203z"/>
</defs>
<g transform="translate(183.35 561.65) scale(.1 -.1)">
<use xlink:href="#t"/>
<use x="63.378906" xlink:href="#e"/>
<use x="124.658203" xlink:href="#am"/>
<use x="183.837891" xlink:href="#d"/>
</g>
</g>
<g clip-path="url(#a)">
<g transform="translate(234.44 561.65) scale(.1 -.1)">
<use xlink:href="#t"/>
<use x="63.378906" xlink:href="#e"/>
<use x="124.658203" xlink:href="#ad"/>
</g>
</g>
<g clip-path="url(#a)">
<defs>
<path id="r" d="m44.281 53.078v-8.5q-3.7969 1.9531-7.9062 2.9219-4.0938 0.98438-8.5 0.98438-6.6875 0-10.031-2.0469t-3.3438-6.1562q0-3.125 2.3906-4.9062t9.625-3.3906l3.0781-0.6875q9.5625-2.0469 13.594-5.7812t4.0312-10.422q0-7.625-6.0312-12.078-6.0312-4.4375-16.578-4.4375-4.3906 0-9.1562 0.85938t-10.031 2.5625v9.2812q4.9844-2.5938 9.8125-3.8906 4.8281-1.2812 9.5781-1.2812 6.3438 0 9.75 2.1719 3.4219 2.1719 3.4219 6.125 0 3.6562-2.4688 5.6094-2.4531 1.9531-10.812 3.7656l-3.125 0.73438q-8.3438 1.75-12.062 5.3906-3.7031 3.6406-3.7031 9.9844 0 7.7188 5.4688 11.906 5.4688 4.2031 15.531 4.2031 4.9688 0 9.3594-0.73438 4.4062-0.71875 8.1094-2.1875z"/>
<path id="ae" d="m48.781 52.594v-8.4062q-3.8125 2.1094-7.6406 3.1562t-7.7344 1.0469q-8.75 0-13.594-5.5469-4.8281-5.5312-4.8281-15.547t4.8281-15.562q4.8438-5.5312 13.594-5.5312 3.9062 0 7.7344 1.0469t7.6406 3.1562v-8.3125q-3.7656-1.75-7.7969-2.625-4.0156-0.89062-8.5625-0.89062-12.359 0-19.641 7.7656-7.2656 7.7656-7.2656 20.953 0 13.375 7.3438 21.031 7.3594 7.6719 20.156 7.6719 4.1406 0 8.0938-0.85938 3.9531-0.84375 7.6719-2.5469z"/>
</defs>
<g transform="translate(269.35 561.65) scale(.1 -.1)">
<use xlink:href="#v"/>
<use x="35.205078" xlink:href="#h"/>
<use x="62.988281" xlink:href="#am"/>
<use x="122.167969" xlink:href="#d"/>
<use x="183.691406" xlink:href="#r"/>
<use x="235.791016" xlink:href="#ae"/>
<use x="290.771484" xlink:href="#q"/>
<use x="351.953125" xlink:href="#g"/>
<use x="393.035156" xlink:href="#d"/>
</g>
</g>
<g clip-path="url(#a)">
<g transform="translate(327.84 561.65) scale(.1 -.1)">
<use xlink:href="#u"/>
<use x="63.476562" xlink:href="#q"/>
<use x="124.658203" xlink:href="#q"/>
<use x="185.839844" xlink:href="#ad"/>
</g>
</g>
<g clip-path="url(#a)">
<g transform="translate(368.9 561.65) scale(.1 -.1)">
<use xlink:href="#g"/>
<use x="41.082031" xlink:href="#d"/>
<use x="102.605469" xlink:href="#e"/>
<use x="163.884766" xlink:href="#r"/>
<use x="215.984375" xlink:href="#q"/>
<use x="277.166016" xlink:href="#j"/>
<use x="340.544922" xlink:href="#r"/>
</g>
</g>
<g clip-path="url(#a)">
<g transform="translate(429.89 561.65) scale(.1 -.1)">
<use xlink:href="#v"/>
<use x="35.205078" xlink:href="#q"/>
<use x="96.386719" xlink:href="#g"/>
</g>
</g>
<g clip-path="url(#a)">
<g transform="translate(461.03 561.65) scale(.1 -.1)">
<use xlink:href="#g"/>
<use x="41.082031" xlink:href="#d"/>
<use x="102.605469" xlink:href="#j"/>
<use x="165.984375" xlink:href="#e"/>
<use x="227.263672" xlink:href="#k"/>
<use x="324.675781" xlink:href="#h"/>
<use x="352.458984" xlink:href="#j"/>
<use x="415.837891" xlink:href="#u"/>
</g>
</g>
<g clip-path="url(#a)">
<g transform="translate(521.04 561.65) scale(.1 -.1)">
<use xlink:href="#h"/>
<use x="27.783203" xlink:href="#p"/>
<use x="66.992188" xlink:href="#r"/>
<use x="119.091797" xlink:href="#d"/>
<use x="180.615234" xlink:href="#i"/>
<use x="208.398438" xlink:href="#v"/>
</g>
</g>
<g clip-path="url(#a)">
<g transform="translate(573.24 561.65) scale(.1 -.1)">
<use xlink:href="#p"/>
<use x="39.208984" xlink:href="#t"/>
<use x="102.587891" xlink:href="#d"/>
</g>
</g>
<g clip-path="url(#a)">
<g transform="translate(615.25 561.65) scale(.1 -.1)">
<use xlink:href="#w"/>
<use x="68.408203" xlink:href="#g"/>
<use x="109.505859" xlink:href="#u"/>
<use x="172.982422" xlink:href="#ac"/>
<use x="236.361328" xlink:href="#r"/>
</g>
</g>
<g clip-path="url(#a)">
<defs>
<path id="ar" d="m11.719 12.406h10.297v-8.4062l-8-15.625h-6.2969l4 15.625z"/>
</defs>
<g transform="translate(676.31 561.65) scale(.1 -.1)">
<use xlink:href="#ar"/>
</g>
</g>
<g clip-path="url(#a)">
<g transform="translate(714.22 561.65) scale(.1 -.1)">
<use xlink:href="#e"/>
<use x="61.279297" xlink:href="#v"/>
<use x="96.46875" xlink:href="#p"/>
<use x="135.677734" xlink:href="#d"/>
<use x="197.201172" xlink:href="#g"/>
</g>
</g>
<g clip-path="url(#a)">
<g transform="translate(764.21 561.65) scale(.1 -.1)">
<use xlink:href="#p"/>
<use x="39.208984" xlink:href="#t"/>
<use x="102.587891" xlink:href="#e"/>
<use x="163.867188" xlink:href="#p"/>
</g>
</g>
<g clip-path="url(#a)">
<defs>
<path id="ak" d="m32.172-5.0781q-3.7969-9.7656-7.4219-12.734-3.6094-2.9844-9.6562-2.9844h-7.1875v7.5156h5.2812q3.7031 0 5.75 1.7656 2.0625 1.75 4.5469 8.2969l1.6094 4.0938-22.109 53.812h9.5156l17.094-42.766 17.094 42.766h9.5156z"/>
</defs>
<g transform="translate(790.36 561.65) scale(.1 -.1)">
<use xlink:href="#k"/>
<use x="97.412109" xlink:href="#ak"/>
<use x="156.591797" xlink:href="#p"/>
<use x="195.800781" xlink:href="#t"/>
<use x="259.179688" xlink:href="#q"/>
<use x="320.361328" xlink:href="#i"/>
<use x="348.144531" xlink:href="#q"/>
<use x="409.326172" xlink:href="#u"/>
<use x="472.802734" xlink:href="#h"/>
<use x="500.585938" xlink:href="#ae"/>
<use x="555.566406" xlink:href="#e"/>
<use x="616.845703" xlink:href="#i"/>
</g>
</g>
<g clip-path="url(#a)">
<defs>
<path id="an" d="m48.688 27.297q0 9.9062-4.0781 15.547t-11.203 5.6406q-7.1406 0-11.219-5.6406t-4.0781-15.547 4.0781-15.547 11.219-5.6406q7.125 0 11.203 5.6406t4.0781 15.547zm-30.578 19.094q2.8438 4.875 7.1562 7.2344 4.3281 2.375 10.328 2.375 9.9688 0 16.188-7.9062 6.2344-7.9062 6.2344-20.797t-6.2344-20.812q-6.2188-7.9062-16.188-7.9062-6 0-10.328 2.375-4.3125 2.375-7.1562 7.25v-8.2031h-9.0312v75.984h9.0312z"/>
</defs>
<g transform="translate(856.94 561.65) scale(.1 -.1)">
<use xlink:href="#an"/>
<use x="63.476562" xlink:href="#d"/>
<use x="125" xlink:href="#e"/>
<use x="186.279297" xlink:href="#r"/>
<use x="238.378906" xlink:href="#p"/>
</g>
</g>
<g clip-path="url(#a)">
<g transform="translate(908.44 561.65) scale(.1 -.1)">
<use xlink:href="#al"/>
<use x="81.787109" xlink:href="#h"/>
<use x="109.570312" xlink:href="#p"/>
<use x="148.779297" xlink:href="#t"/>
</g>
</g>
<g clip-path="url(#a)">
<defs>
<path id="c" d="m12.406 8.2969h16.109v55.625l-17.531-3.5156v8.9844l17.438 3.5156h9.8594v-64.609h16.109v-8.2969h-41.984z"/>
<path id="y" d="m31.781 66.406q-7.6094 0-11.453-7.5-3.8281-7.4844-3.8281-22.531 0-14.984 3.8281-22.484 3.8438-7.5 11.453-7.5 7.6719 0 11.5 7.5 3.8438 7.5 3.8438 22.484 0 15.047-3.8438 22.531-3.8281 7.5-11.5 7.5zm0 7.8125q12.266 0 18.734-9.7031 6.4688-9.6875 6.4688-28.141 0-18.406-6.4688-28.109-6.4688-9.6875-18.734-9.6875-12.25 0-18.719 9.6875-6.4688 9.7031-6.4688 28.109 0 18.453 6.4688 28.141 6.4688 9.7031 18.719 9.7031z"/>
</defs>
<g transform="translate(957.73 561.65) scale(.1 -.1)">
<use xlink:href="#c"/>
<use x="63.623047" xlink:href="#y"/>
<use x="127.246094" xlink:href="#y"/>
</g>
</g>
<g clip-path="url(#a)">
<g transform="translate(1003.8 561.65) scale(.1 -.1)">
<use xlink:href="#d"/>
<use x="61.523438" xlink:href="#ak"/>
<use x="120.703125" xlink:href="#d"/>
<use x="182.226562" xlink:href="#r"/>
</g>
</g>
<g clip-path="url(#a)">
<defs>
<path id="as" d="m15.094 12.406h9.9062v-12.406h-9.9062zm0 60.5h9.9062v-31.984l-0.96875-17.438h-7.9219l-1.0156 17.438z"/>
</defs>
<g transform="translate(1061.7 561.65) scale(.1 -.1)">
<use xlink:href="#as"/>
</g>
</g>
<g clip-path="url(#a)">
<defs>
<path id="f" d="m10.688 12.406h10.312v-12.406h-10.312z"/>
</defs>
<g transform="translate(517.31 30.532) scale(.1 -.1)">
<use xlink:href="#c"/>
<use x="63.623047" xlink:href="#f"/>
<use x="95.410156" xlink:href="#c"/>
</g>
</g>
<g clip-path="url(#a)">
<defs>
<path id="m" d="m19.188 8.2969h34.422v-8.2969h-46.281v8.2969q5.6094 5.8125 15.297 15.594 9.7031 9.7969 12.188 12.641 4.7344 5.3125 6.6094 9 1.8906 3.6875 1.8906 7.25 0 5.8125-4.0781 9.4688-4.0781 3.6719-10.625 3.6719-4.6406 0-9.7969-1.6094-5.1406-1.6094-11-4.8906v9.9688q5.9531 2.3906 11.125 3.6094 5.1875 1.2188 9.4844 1.2188 11.328 0 18.062-5.6719 6.7344-5.6562 6.7344-15.125 0-4.5-1.6875-8.5312-1.6719-4.0156-6.125-9.4844-1.2188-1.4219-7.7656-8.1875-6.5312-6.7656-18.453-18.922z"/>
</defs>
<g transform="translate(517.31 140.51) scale(.1 -.1)">
<use xlink:href="#c"/>
<use x="63.623047" xlink:href="#f"/>
<use x="95.410156" xlink:href="#m"/>
</g>
</g>
<g clip-path="url(#a)">
<defs>
<path id="o" d="m40.578 39.312q7.0781-1.5156 11.047-6.3125 3.9844-4.7812 3.9844-11.812 0-10.781-7.4219-16.703-7.4219-5.9062-21.094-5.9062-4.5781 0-9.4375 0.90625t-10.031 2.7188v9.5156q4.0938-2.3906 8.9688-3.6094 4.8906-1.2188 10.219-1.2188 9.2656 0 14.125 3.6562t4.8594 10.641q0 6.4531-4.5156 10.078-4.5156 3.6406-12.562 3.6406h-8.5v8.1094h8.8906q7.2656 0 11.125 2.9062t3.8594 8.375q0 5.6094-3.9844 8.6094-3.9688 3.0156-11.391 3.0156-4.0625 0-8.7031-0.89062-4.6406-0.875-10.203-2.7188v8.7812q5.625 1.5625 10.531 2.3438t9.25 0.78125q11.234 0 17.766-5.1094 6.5469-5.0938 6.5469-13.781 0-6.0625-3.4688-10.234t-9.8594-5.7812z"/>
</defs>
<g transform="translate(67.099 353.55) scale(.1 -.1)">
<use xlink:href="#c"/>
<use x="63.623047" xlink:href="#f"/>
<use x="95.410156" xlink:href="#o"/>
</g>
</g>
<g clip-path="url(#a)">
<defs>
<path id="x" d="m37.797 64.312-24.906-38.922h24.906zm-2.5938 8.5938h12.406v-47.516h10.406v-8.2031h-10.406v-17.188h-9.8125v17.188h-32.906v9.5156z"/>
</defs>
<g transform="translate(422.78 248.05) scale(.1 -.1)">
<use xlink:href="#c"/>
<use x="63.623047" xlink:href="#f"/>
<use x="95.410156" xlink:href="#x"/>
</g>
</g>
<g clip-path="url(#a)">
<defs>
<path id="ab" d="m10.797 72.906h38.719v-8.3125h-29.688v-17.859q2.1406 0.73438 4.2812 1.0938 2.1562 0.35938 4.3125 0.35938 12.203 0 19.328-6.6875 7.1406-6.6875 7.1406-18.109 0-11.766-7.3281-18.297-7.3281-6.5156-20.656-6.5156-4.5938 0-9.3594 0.78125-4.75 0.78125-9.8281 2.3438v9.9219q4.3906-2.3906 9.0781-3.5625t9.9062-1.1719q8.4531 0 13.375 4.4375 4.9375 4.4375 4.9375 12.062 0 7.6094-4.9375 12.047-4.9219 4.4531-13.375 4.4531-3.9531 0-7.8906-0.875-3.9219-0.875-8.0156-2.7344z"/>
</defs>
<g transform="translate(597.61 353.55) scale(.1 -.1)">
<use xlink:href="#c"/>
<use x="63.623047" xlink:href="#f"/>
<use x="95.410156" xlink:href="#ab"/>
</g>
</g>
<g clip-path="url(#a)">
<defs>
<path id="ai" d="m8.2031 72.906h46.875v-4.2031l-26.469-68.703h-10.297l24.906 64.594h-35.016z"/>
</defs>
<g transform="translate(829.11 248.05) scale(.1 -.1)">
<use xlink:href="#c"/>
<use x="63.623047" xlink:href="#f"/>
<use x="95.410156" xlink:href="#ai"/>
</g>
</g>
<g clip-path="url(#a)">
<defs>
<path id="aa" d="m10.984 1.5156v8.9844q3.7188-1.7656 7.5156-2.6875 3.8125-0.92188 7.4844-0.92188 9.7656 0 14.906 6.5625 5.1562 6.5625 5.8906 19.953-2.8281-4.2031-7.1875-6.4531-4.3438-2.25-9.6094-2.25-10.938 0-17.312 6.6094-6.375 6.625-6.375 18.109 0 11.219 6.6406 18 6.6406 6.7969 17.672 6.7969 12.656 0 19.312-9.7031 6.6719-9.6875 6.6719-28.141 0-17.234-8.1875-27.516-8.1719-10.281-21.984-10.281-3.7188 0-7.5312 0.73438-3.7969 0.73438-7.9062 2.2031zm19.625 30.906q6.6406 0 10.516 4.5312 3.8906 4.5469 3.8906 12.469 0 7.8594-3.8906 12.422-3.875 4.5625-10.516 4.5625t-10.516-4.5625-3.875-12.422q0-7.9219 3.875-12.469 3.875-4.5312 10.516-4.5312z"/>
</defs>
<g transform="translate(718.18 457.6) scale(.1 -.1)">
<use xlink:href="#c"/>
<use x="63.623047" xlink:href="#f"/>
<use x="95.410156" xlink:href="#aa"/>
</g>
</g>
<g clip-path="url(#a)">
<g transform="translate(763.23 457.6) scale(.1 -.1)">
<use xlink:href="#c"/>
<use x="63.623047" xlink:href="#f"/>
<use x="95.410156" xlink:href="#c"/>
<use x="159.033203" xlink:href="#y"/>
</g>
</g>
<g clip-path="url(#a)">
<g transform="translate(811.46 457.6) scale(.1 -.1)">
<use xlink:href="#c"/>
<use x="63.623047" xlink:href="#f"/>
<use x="95.410156" xlink:href="#c"/>
<use x="159.033203" xlink:href="#c"/>
</g>
</g>
<g clip-path="url(#a)">
<g transform="translate(859.68 457.6) scale(.1 -.1)">
<use xlink:href="#c"/>
<use x="63.623047" xlink:href="#f"/>
<use x="95.410156" xlink:href="#c"/>
<use x="159.033203" xlink:href="#m"/>
</g>
</g>
<g clip-path="url(#a)">
<g transform="translate(980.25 353.55) scale(.1 -.1)">
<use xlink:href="#c"/>
<use x="63.623047" xlink:href="#f"/>
<use x="95.410156" xlink:href="#c"/>
<use x="159.033203" xlink:href="#o"/>
</g>
</g>
<g clip-path="url(#a)">
<g transform="translate(907.91 457.6) scale(.1 -.1)">
<use xlink:href="#c"/>
<use x="63.623047" xlink:href="#f"/>
<use x="95.410156" xlink:href="#c"/>
<use x="159.033203" xlink:href="#x"/>
</g>
</g>
<g clip-path="url(#a)">
<g transform="translate(956.14 457.6) scale(.1 -.1)">
<use xlink:href="#c"/>
<use x="63.623047" xlink:href="#f"/>
<use x="95.410156" xlink:href="#c"/>
<use x="159.033203" xlink:href="#ab"/>
</g>
</g>
<g clip-path="url(#a)">
<defs>
<path id="aj" d="m33.016 40.375q-6.6406 0-10.531-4.5469-3.875-4.5312-3.875-12.438 0-7.8594 3.875-12.438 3.8906-4.5625 10.531-4.5625t10.516 4.5625q3.875 4.5781 3.875 12.438 0 7.9062-3.875 12.438-3.875 4.5469-10.516 4.5469zm19.578 30.922v-8.9844q-3.7188 1.75-7.5 2.6719-3.7812 0.9375-7.5 0.9375-9.7656 0-14.922-6.5938-5.1406-6.5938-5.875-19.922 2.875 4.25 7.2188 6.5156 4.3594 2.2656 9.5781 2.2656 10.984 0 17.359-6.6719 6.375-6.6562 6.375-18.125 0-11.234-6.6406-18.031-6.6406-6.7812-17.672-6.7812-12.656 0-19.344 9.6875-6.6875 9.7031-6.6875 28.109 0 17.281 8.2031 27.562t22.016 10.281q3.7188 0 7.5-0.73438t7.8906-2.1875z"/>
</defs>
<g transform="translate(1004.4 457.6) scale(.1 -.1)">
<use xlink:href="#c"/>
<use x="63.623047" xlink:href="#f"/>
<use x="95.410156" xlink:href="#c"/>
<use x="159.033203" xlink:href="#aj"/>
</g>
</g>
<g clip-path="url(#a)">
<g transform="translate(570.31 457.6) scale(.1 -.1)">
<use xlink:href="#c"/>
<use x="63.623047" xlink:href="#f"/>
<use x="95.410156" xlink:href="#c"/>
<use x="159.033203" xlink:href="#ai"/>
</g>
</g>
<g clip-path="url(#a)">
<defs>
<path id="ah" d="m31.781 34.625q-7.0312 0-11.062-3.7656-4.0156-3.7656-4.0156-10.344 0-6.5938 4.0156-10.359 4.0312-3.7656 11.062-3.7656t11.078 3.7812q4.0625 3.7969 4.0625 10.344 0 6.5781-4.0312 10.344-4.0156 3.7656-11.109 3.7656zm-9.8594 4.1875q-6.3438 1.5625-9.8906 5.9062-3.5312 4.3594-3.5312 10.609 0 8.7344 6.2188 13.812 6.2344 5.0781 17.062 5.0781 10.891 0 17.094-5.0781t6.2031-13.812q0-6.25-3.5469-10.609-3.5312-4.3438-9.8281-5.9062 7.125-1.6562 11.094-6.5 3.9844-4.8281 3.9844-11.797 0-10.609-6.4688-16.281-6.4688-5.6562-18.531-5.6562-12.047 0-18.531 5.6562-6.4688 5.6719-6.4688 16.281 0 6.9688 4 11.797 4.0156 4.8438 11.141 6.5zm-3.6094 15.578q0-5.6562 3.5312-8.8281 3.5469-3.1719 9.9375-3.1719 6.3594 0 9.9375 3.1719 3.5938 3.1719 3.5938 8.8281 0 5.6719-3.5938 8.8438-3.5781 3.1719-9.9375 3.1719-6.3906 0-9.9375-3.1719-3.5312-3.1719-3.5312-8.8438z"/>
</defs>
<g transform="translate(618.54 457.6) scale(.1 -.1)">
<use xlink:href="#c"/>
<use x="63.623047" xlink:href="#f"/>
<use x="95.410156" xlink:href="#c"/>
<use x="159.033203" xlink:href="#ah"/>
</g>
</g>
<g clip-path="url(#a)">
<g transform="translate(256.83 353.55) scale(.1 -.1)">
<use xlink:href="#c"/>
<use x="63.623047" xlink:href="#f"/>
<use x="95.410156" xlink:href="#c"/>
<use x="159.033203" xlink:href="#aa"/>
</g>
</g>
<g clip-path="url(#a)">
<g transform="translate(425.63 457.6) scale(.1 -.1)">
<use xlink:href="#c"/>
<use x="63.623047" xlink:href="#f"/>
<use x="95.410156" xlink:href="#m"/>
<use x="159.033203" xlink:href="#c"/>
</g>
</g>
<g clip-path="url(#a)">
<g transform="translate(473.86 457.6) scale(.1 -.1)">
<use xlink:href="#c"/>
<use x="63.623047" xlink:href="#f"/>
<use x="95.410156" xlink:href="#m"/>
<use x="159.033203" xlink:href="#m"/>
</g>
</g>
<g clip-path="url(#a)">
<g transform="translate(522.09 457.6) scale(.1 -.1)">
<use xlink:href="#c"/>
<use x="63.623047" xlink:href="#f"/>
<use x="95.410156" xlink:href="#m"/>
<use x="159.033203" xlink:href="#o"/>
</g>
</g>
<g clip-path="url(#a)">
<g transform="translate(136.26 457.6) scale(.1 -.1)">
<use xlink:href="#c"/>
<use x="63.623047" xlink:href="#f"/>
<use x="95.410156" xlink:href="#m"/>
<use x="159.033203" xlink:href="#x"/>
</g>
</g>
<g clip-path="url(#a)">
<g transform="translate(184.49 457.6) scale(.1 -.1)">
<use xlink:href="#c"/>
<use x="63.623047" xlink:href="#f"/>
<use x="95.410156" xlink:href="#m"/>
<use x="159.033203" xlink:href="#ab"/>
</g>
</g>
<g clip-path="url(#a)">
<g transform="translate(232.72 457.6) scale(.1 -.1)">
<use xlink:href="#c"/>
<use x="63.623047" xlink:href="#f"/>
<use x="95.410156" xlink:href="#m"/>
<use x="159.033203" xlink:href="#aj"/>
</g>
</g>
<g clip-path="url(#a)">
<g transform="translate(280.95 457.6) scale(.1 -.1)">
<use xlink:href="#c"/>
<use x="63.623047" xlink:href="#f"/>
<use x="95.410156" xlink:href="#m"/>
<use x="159.033203" xlink:href="#ah"/>
</g>
</g>
<g clip-path="url(#a)">
<g transform="translate(329.17 457.6) scale(.1 -.1)">
<use xlink:href="#c"/>
<use x="63.623047" xlink:href="#f"/>
<use x="95.410156" xlink:href="#m"/>
<use x="159.033203" xlink:href="#aa"/>
</g>
</g>
<g clip-path="url(#a)">
<g transform="translate(377.4 457.6) scale(.1 -.1)">
<use xlink:href="#c"/>
<use x="63.623047" xlink:href="#f"/>
<use x="95.410156" xlink:href="#o"/>
<use x="159.033203" xlink:href="#y"/>
</g>
</g>
<g clip-path="url(#a)">
<g transform="translate(39.804 457.6) scale(.1 -.1)">
<use xlink:href="#c"/>
<use x="63.623047" xlink:href="#f"/>
<use x="95.410156" xlink:href="#o"/>
<use x="159.033203" xlink:href="#c"/>
</g>
</g>
<g clip-path="url(#a)">
<g transform="translate(88.032 457.6) scale(.1 -.1)">
<use xlink:href="#c"/>
<use x="63.623047" xlink:href="#f"/>
<use x="95.410156" xlink:href="#o"/>
<use x="159.033203" xlink:href="#m"/>
</g>
</g>
<g clip-path="url(#a)">
<g transform="translate(666.77 457.6) scale(.1 -.1)">
<use xlink:href="#c"/>
<use x="63.623047" xlink:href="#f"/>
<use x="95.410156" xlink:href="#o"/>
<use x="159.033203" xlink:href="#o"/>
</g>
</g>
<g clip-path="url(#a)">
<g transform="translate(1052.6 457.6) scale(.1 -.1)">
<use xlink:href="#c"/>
<use x="63.623047" xlink:href="#f"/>
<use x="95.410156" xlink:href="#o"/>
<use x="159.033203" xlink:href="#x"/>
</g>
</g>
<defs>
<clipPath id="a">
<rect width="1114.7" height="586.67"/>
</clipPath>
</defs>
</svg>
