<?xml version="1.0" encoding="UTF-8"?>
<!DOCTYPE svg  PUBLIC '-//W3C//DTD SVG 1.1//EN'  'http://www.w3.org/Graphics/SVG/1.1/DTD/svg11.dtd'>
<svg width="1722.7pt" height="906.67pt" version="1.1" viewBox="0 0 1722.7 906.67" xmlns="http://www.w3.org/2000/svg" xmlns:xlink="http://www.w3.org/1999/xlink">
<defs>
<style type="text/css">*{stroke-linecap:butt;stroke-linejoin:round;}</style>
</defs>
<path d="m0 906.67h1722.7v-906.67h-1722.7z" fill="#fff"/>
<g fill="none" stroke="#000">
<path d="m578.19 41.987v125.49" clip-path="url(#a)"/>
<path d="m578.19 167.48 1066 697.2" clip-path="url(#a)"/>
<path d="m578.19 167.48-454.99 471.87" clip-path="url(#a)"/>
<path d="m578.19 167.48-365.52 584.54" clip-path="url(#a)"/>
<path d="m578.19 167.48-320.79 584.54" clip-path="url(#a)"/>
<path d="m578.19 167.48 75.288 122.12" clip-path="url(#a)"/>
<path d="m123.2 639.35-44.735 112.67" clip-path="url(#a)"/>
<path d="m123.2 639.35v112.67" clip-path="url(#a)"/>
<path d="m123.2 639.35 44.735 112.67" clip-path="url(#a)"/>
<path d="m212.67 752.01v112.67" clip-path="url(#a)"/>
<path d="m257.41 752.01v112.67" clip-path="url(#a)"/>
<path d="m653.48 289.59-351.34 462.42" clip-path="url(#a)"/>
<path d="m653.48 289.59-306.6 462.42" clip-path="url(#a)"/>
<path d="m653.48 289.59-261.87 462.42" clip-path="url(#a)"/>
<path d="m653.48 289.59 69.174 349.75" clip-path="url(#a)"/>
<path d="m653.48 289.59-82.926 462.42" clip-path="url(#a)"/>
<path d="m653.48 289.59 107.2 119.09" clip-path="url(#a)"/>
<path d="m653.48 289.59 500.12 119.09" clip-path="url(#a)"/>
<path d="m653.48 289.59-38.191 462.42" clip-path="url(#a)"/>
<path d="m653.48 289.59 364.43 462.42" clip-path="url(#a)"/>
<path d="m302.14 752.01v112.67" clip-path="url(#a)"/>
<path d="m346.88 752.01v112.67" clip-path="url(#a)"/>
<path d="m391.61 752.01v112.67" clip-path="url(#a)"/>
<path d="m722.65 639.35-152.1 112.67" clip-path="url(#a)" stroke-dasharray="3.7,1.6"/>
<path d="m722.65 639.35 876.81 225.33" clip-path="url(#a)"/>
<path d="m722.65 639.35-286.31 112.67" clip-path="url(#a)"/>
<path d="m722.65 639.35-196.84 112.67" clip-path="url(#a)"/>
<path d="m722.65 639.35-241.57 112.67" clip-path="url(#a)"/>
<path d="m570.55 752.01v112.67" clip-path="url(#a)"/>
<path d="m760.68 408.68-83.879 116.43" clip-path="url(#a)"/>
<path d="m760.68 408.68 78.287 343.33" clip-path="url(#a)"/>
<path d="m760.68 408.68 5.5919 116.43" clip-path="url(#a)"/>
<path d="m1153.6 408.68-90.962 343.33" clip-path="url(#a)"/>
<path d="m1153.6 408.68-46.227 343.33" clip-path="url(#a)"/>
<path d="m1153.6 408.68 137.19 116.43" clip-path="url(#a)"/>
<path d="m1062.6 752.01v112.67" clip-path="url(#a)"/>
<path d="m1107.4 752.01v112.67" clip-path="url(#a)"/>
<path d="m1290.8 525.11-138.68 226.9" clip-path="url(#a)"/>
<path d="m1290.8 525.11-93.944 226.9" clip-path="url(#a)"/>
<path d="m1290.8 525.11-49.209 226.9" clip-path="url(#a)"/>
<path d="m1290.8 525.11 62.629 114.23" clip-path="url(#a)"/>
<path d="m1290.8 525.11 219.2 114.23" clip-path="url(#a)"/>
<path d="m1152.1 752.01v112.67" clip-path="url(#a)"/>
<path d="m1196.8 752.01v112.67" clip-path="url(#a)"/>
<path d="m1241.6 752.01v112.67" clip-path="url(#a)"/>
<path d="m1353.4 639.35-67.103 112.67" clip-path="url(#a)"/>
<path d="m1353.4 639.35-22.368 112.67" clip-path="url(#a)"/>
<path d="m1353.4 639.35 22.368 112.67" clip-path="url(#a)"/>
<path d="m1353.4 639.35 67.103 112.67" clip-path="url(#a)"/>
<path d="m1510 639.35-44.735 112.67" clip-path="url(#a)"/>
<path d="m1510 639.35v112.67" clip-path="url(#a)"/>
<path d="m1510 639.35 44.735 112.67" clip-path="url(#a)"/>
<path d="m1465.3 752.01v112.67" clip-path="url(#a)"/>
<path d="m1510 752.01v112.67" clip-path="url(#a)"/>
<path d="m1286.3 752.01v112.67" clip-path="url(#a)"/>
<path d="m1331.1 752.01v112.67" clip-path="url(#a)"/>
<path d="m1375.8 752.01v112.67" clip-path="url(#a)"/>
<path d="m1420.5 752.01v112.67" clip-path="url(#a)"/>
<path d="m676.8 525.11-106.25 226.9" clip-path="url(#a)" stroke-dasharray="3.7,1.6"/>
<path d="m676.8 525.11-16.776 226.9" clip-path="url(#a)"/>
<path d="m676.8 525.11 27.96 226.9" clip-path="url(#a)"/>
<path d="m676.8 525.11 95.063 114.23" clip-path="url(#a)"/>
<path d="m838.97 752.01v112.67" clip-path="url(#a)"/>
<path d="m766.27 525.11-195.72 226.9" clip-path="url(#a)" stroke-dasharray="3.7,1.6"/>
<path d="m766.27 525.11 117.43 226.9" clip-path="url(#a)"/>
<path d="m766.27 525.11 184.53 114.23" clip-path="url(#a)"/>
<path d="m766.27 525.11-106.25 226.9" clip-path="url(#a)" stroke-dasharray="3.7,1.6"/>
<path d="m883.7 752.01v112.67" clip-path="url(#a)"/>
<path d="m950.8 639.35-22.368 112.67" clip-path="url(#a)"/>
<path d="m950.8 639.35 22.368 112.67" clip-path="url(#a)"/>
<path d="m928.44 752.01v112.67" clip-path="url(#a)"/>
<path d="m973.17 752.01v112.67" clip-path="url(#a)"/>
<path d="m660.02 752.01v112.67" clip-path="url(#a)"/>
<path d="m704.76 752.01v112.67" clip-path="url(#a)"/>
<path d="m771.86 639.35-22.368 112.67" clip-path="url(#a)"/>
<path d="m771.86 639.35 22.368 112.67" clip-path="url(#a)"/>
<path d="m749.49 752.01v112.67" clip-path="url(#a)"/>
<path d="m794.23 752.01v112.67" clip-path="url(#a)"/>
<path d="m436.35 752.01v112.67" clip-path="url(#a)"/>
<path d="m525.82 752.01v112.67" clip-path="url(#a)"/>
<path d="m481.08 752.01v112.67" clip-path="url(#a)"/>
<path d="m78.465 752.01v112.67" clip-path="url(#a)"/>
<path d="m123.2 752.01v112.67" clip-path="url(#a)"/>
<path d="m167.94 752.01v112.67" clip-path="url(#a)"/>
<path d="m615.29 752.01v112.67" clip-path="url(#a)"/>
<path d="m1017.9 752.01v112.67" clip-path="url(#a)"/>
<path d="m1554.7 752.01v112.67" clip-path="url(#a)"/>
</g>
<path d="m571.92 101.72v6.0162q0 2.4 2.4 2.4h7.7425q2.4 0 2.4-2.4v-6.0162q0-2.4-2.4-2.4h-7.7425q-2.4 0-2.4 2.4z" clip-path="url(#a)" fill="#fff" stroke="#fff"/>
<g clip-path="url(#a)">
<defs>
<path id="ax" d="m9.8125 72.906h9.8594v-29.891h35.844v29.891h9.8594v-72.906h-9.8594v34.719h-35.844v-34.719h-9.8594z"/>
</defs>
<g transform="translate(575.98 101.72) rotate(90) scale(.08 -.08)">
<use xlink:href="#ax"/>
</g>
</g>
<path d="m1105.5 519.83 4.5799 2.9954q2.0086 1.3137 3.3222-0.6949l4.2379-6.4797q1.3137-2.0086-0.6949-3.3222l-4.5799-2.9954q-2.0086-1.3137-3.3222 0.6949l-4.2379 6.4797q-1.3137 2.0086 0.6949 3.3222z" clip-path="url(#a)" fill="#fff" stroke="#fff"/>
<g clip-path="url(#a)">
<defs>
<path id="s" d="m34.188 63.188-13.391-36.281h26.812zm-5.5781 9.7188h11.188l27.781-72.906h-10.25l-6.6406 18.703h-32.859l-6.6406-18.703h-10.406z"/>
</defs>
<g transform="translate(1107.7 516.43) rotate(33.186) scale(.08 -.08)">
<use xlink:href="#s"/>
</g>
</g>
<path d="m353.31 409.73 3.7985-3.9395q1.6659-1.7277-0.061798-3.3935l-5.5735-5.3742q-1.7277-1.6659-3.3936 0.061798l-3.7985 3.9395q-1.6659 1.7277 0.061798 3.3936l5.5735 5.3742q1.7277 1.6659 3.3936-0.061799z" clip-path="url(#a)" fill="#fff" stroke="#fff"/>
<g clip-path="url(#a)">
<g transform="translate(350.39 406.91) rotate(-46.043) scale(.08 -.08)">
<use xlink:href="#s"/>
</g>
</g>
<path d="m399.53 465.02 2.4395-3.9013q1.2725-2.0349-0.76244-3.3074l-6.5647-4.105q-2.0349-1.2725-3.3074 0.76244l-2.4395 3.9013q-1.2725 2.0349 0.76244 3.3074l6.5647 4.105q2.0349 1.2725 3.3074-0.76244z" clip-path="url(#a)" fill="#fff" stroke="#fff"/>
<g clip-path="url(#a)">
<defs>
<path id="ar" d="m9.8125 72.906h41.891v-8.3125h-32.031v-21.484h28.906v-8.2969h-28.906v-34.812h-9.8594z"/>
</defs>
<g transform="translate(396.08 462.87) rotate(-57.982) scale(.08 -.08)">
<use xlink:href="#ar"/>
</g>
</g>
<path d="m422.14 464.88 2.3207-4.2288q1.1546-2.104-0.94935-3.2586l-6.7876-3.7249q-2.104-1.1546-3.2586 0.94935l-2.3207 4.2288q-1.1546 2.104 0.94935 3.2586l6.7876 3.7249q2.104 1.1546 3.2586-0.94935z" clip-path="url(#a)" fill="#fff" stroke="#fff"/>
<g clip-path="url(#a)">
<defs>
<path id="aa" d="m19.672 64.797v-27.391h12.406q6.8906 0 10.641 3.5625 3.7656 3.5625 3.7656 10.156 0 6.5469-3.7656 10.109-3.75 3.5625-10.641 3.5625zm-9.8594 8.1094h22.266q12.266 0 18.531-5.5469 6.2812-5.5469 6.2812-16.234 0-10.797-6.2812-16.312-6.2656-5.5156-18.531-5.5156h-12.406v-29.297h-9.8594z"/>
</defs>
<g transform="translate(418.57 462.92) rotate(-61.243) scale(.08 -.08)">
<use xlink:href="#aa"/>
</g>
</g>
<path d="m609.06 229.5 2.872 4.6583q1.2595 2.0429 3.3025 0.78343l6.5906-4.0633q2.0429-1.2595 0.78343-3.3025l-2.872-4.6583q-1.2595-2.0429-3.3025-0.78343l-6.5906 4.0633q-2.0429 1.2595-0.78343 3.3025z" clip-path="url(#a)" fill="#fff" stroke="#fff"/>
<g clip-path="url(#a)">
<g transform="translate(612.52 227.37) rotate(58.345) scale(.08 -.08)">
<use xlink:href="#s"/>
</g>
</g>
<path d="m105.64 700.58 2.0514-5.1664q0.88568-2.2306-1.3449-3.1163l-7.196-2.8572q-2.2306-0.88568-3.1163 1.3449l-2.0514 5.1664q-0.88568 2.2306 1.3449 3.1163l7.196 2.8572q2.2306 0.88568 3.1163-1.3449z" clip-path="url(#a)" fill="#fff" stroke="#fff"/>
<g clip-path="url(#a)">
<defs>
<path id="w" d="m44.391 34.188q3.1719-1.0781 6.1719-4.5938t6.0312-9.6719l10.016-19.922h-10.609l-9.3125 18.703q-3.625 7.3281-7.0156 9.7188t-9.25 2.3906h-10.75v-30.812h-9.8594v72.906h22.266q12.5 0 18.656-5.2344 6.1562-5.2188 6.1562-15.766 0-6.8906-3.2031-11.438-3.2031-4.5312-9.2969-6.2812zm-24.719 30.609v-25.875h12.406q7.125 0 10.766 3.2969t3.6406 9.6875-3.6406 9.6406-10.766 3.25z"/>
</defs>
<g transform="translate(101.86 699.08) rotate(-68.344) scale(.08 -.08)">
<use xlink:href="#w"/>
</g>
</g>
<path d="m116.93 693.15v5.055q0 2.4 2.4 2.4h7.7425q2.4 0 2.4-2.4v-5.055q0-2.4-2.4-2.4h-7.7425q-2.4 0-2.4 2.4z" clip-path="url(#a)" fill="#fff" stroke="#fff"/>
<g clip-path="url(#a)">
<defs>
<path id="p" d="m9.8125 72.906h46.094v-8.3125h-36.234v-21.578h34.719v-8.2969h-34.719v-26.422h37.109v-8.2969h-46.969z"/>
</defs>
<g transform="translate(120.99 693.15) rotate(90) scale(.08 -.08)">
<use xlink:href="#p"/>
</g>
</g>
<path d="m138.71 695.4 2.0615 5.1919q0.88568 2.2306 3.1163 1.3449l7.196-2.8573q2.2306-0.88568 1.3449-3.1163l-2.0615-5.1919q-0.88568-2.2306-3.1163-1.3449l-7.196 2.8573q-2.2306 0.88568-1.3449 3.1163z" clip-path="url(#a)" fill="#fff" stroke="#fff"/>
<g clip-path="url(#a)">
<defs>
<path id="r" d="m64.406 67.281v-10.391q-4.9844 4.6406-10.625 6.9219-5.6406 2.2969-11.984 2.2969-12.5 0-19.141-7.6406t-6.6406-22.094q0-14.406 6.6406-22.047t19.141-7.6406q6.3438 0 11.984 2.2969t10.625 6.9375v-10.312q-5.1719-3.5156-10.969-5.2812-5.7812-1.75-12.219-1.75-16.562 0-26.094 10.125-9.5156 10.141-9.5156 27.672 0 17.578 9.5156 27.703 9.5312 10.141 26.094 10.141 6.5312 0 12.312-1.7344 5.7969-1.7344 10.875-5.2031z"/>
</defs>
<g transform="translate(142.49 693.9) rotate(68.344) scale(.08 -.08)">
<use xlink:href="#r"/>
</g>
</g>
<path d="m206.4 790.7v35.285q0 2.4 2.4 2.4h7.7425q2.4 0 2.4-2.4v-35.285q0-2.4-2.4-2.4h-7.7425q-2.4 0-2.4 2.4z" clip-path="url(#a)" fill="#fff" stroke="#fff"/>
<g clip-path="url(#a)">
<defs>
<path id="k" d="m-0.29688 72.906h61.672v-8.3125h-25.875v-64.594h-9.9062v64.594h-25.891z"/>
<path id="d" d="m56.203 29.594v-4.3906h-41.312q0.59375-9.2812 5.5938-14.141t13.938-4.8594q5.1719 0 10.031 1.2656t9.6562 3.8125v-8.5q-4.8438-2.0469-9.9219-3.125t-10.297-1.0781q-13.094 0-20.734 7.6094-7.6406 7.625-7.6406 20.625 0 13.422 7.25 21.297 7.25 7.8906 19.562 7.8906 11.031 0 17.453-7.1094 6.4219-7.0938 6.4219-19.297zm-8.9844 2.6406q-0.09375 7.3594-4.125 11.75-4.0312 4.4062-10.672 4.4062-7.5156 0-12.031-4.25t-5.2031-11.969z"/>
<path id="h" d="m41.109 46.297q-1.5156 0.875-3.2969 1.2812-1.7812 0.42188-3.9219 0.42188-7.625 0-11.703-4.9531t-4.0781-14.234v-28.812h-9.0312v54.688h9.0312v-8.5q2.8438 4.9844 7.375 7.3906 4.5469 2.4219 11.047 2.4219 0.92188 0 2.0469-0.125 1.125-0.10938 2.4844-0.35938z"/>
<path id="l" d="m52 44.188q3.375 6.0625 8.0625 8.9375t11.031 2.875q8.5469 0 13.188-5.9844 4.6406-5.9688 4.6406-17v-33.016h-9.0312v32.719q0 7.8594-2.7969 11.656-2.7812 3.8125-8.4844 3.8125-6.9844 0-11.047-4.6406-4.0469-4.625-4.0469-12.641v-30.906h-9.0312v32.719q0 7.9062-2.7812 11.688t-8.5938 3.7812q-6.8906 0-10.953-4.6562-4.0469-4.6562-4.0469-12.625v-30.906h-9.0312v54.688h9.0312v-8.5q3.0781 5.0312 7.375 7.4219t10.203 2.3906q5.9688 0 10.141-3.0312 4.1719-3.0156 6.1719-8.7812z"/>
<path id="j" d="m9.4219 54.688h8.9844v-54.688h-8.9844zm0 21.297h8.9844v-11.391h-8.9844z"/>
<path id="g" d="m54.891 33.016v-33.016h-8.9844v32.719q0 7.7656-3.0312 11.609-3.0312 3.8594-9.0781 3.8594-7.2812 0-11.484-4.6406-4.2031-4.625-4.2031-12.641v-30.906h-9.0312v54.688h9.0312v-8.5q3.2344 4.9375 7.5938 7.375 4.375 2.4375 10.094 2.4375 9.4219 0 14.25-5.8281 4.8438-5.8281 4.8438-17.156z"/>
<path id="f" d="m34.281 27.484q-10.891 0-15.094-2.4844t-4.2031-8.5q0-4.7812 3.1562-7.5938 3.1562-2.7969 8.5625-2.7969 7.4844 0 12 5.2969t4.5156 14.078v2zm17.922 3.7188v-31.203h-8.9844v8.2969q-3.0781-4.9688-7.6719-7.3438t-11.234-2.375q-8.3906 0-13.359 4.7188-4.9531 4.7188-4.9531 12.625 0 9.2188 6.1719 13.906 6.1875 4.6875 18.438 4.6875h12.609v0.89062q0 6.2031-4.0781 9.5938t-11.453 3.3906q-4.6875 0-9.1406-1.125-4.4375-1.125-8.5312-3.375v8.3125q4.9219 1.9062 9.5625 2.8438 4.6406 0.95312 9.0312 0.95312 11.875 0 17.734-6.1562 5.8594-6.1406 5.8594-18.641z"/>
<path id="i" d="m9.4219 75.984h8.9844v-75.984h-8.9844z"/>
</defs>
<g transform="translate(210.46 790.7) rotate(90) scale(.08 -.08)">
<use xlink:href="#k"/>
<use x="60.818359" xlink:href="#d"/>
<use x="122.341797" xlink:href="#h"/>
<use x="163.439453" xlink:href="#l"/>
<use x="260.851562" xlink:href="#j"/>
<use x="288.634766" xlink:href="#g"/>
<use x="352.013672" xlink:href="#f"/>
<use x="413.292969" xlink:href="#i"/>
</g>
</g>
<path d="m251.14 790.7v35.285q0 2.4 2.4 2.4h7.7425q2.4 0 2.4-2.4v-35.285q0-2.4-2.4-2.4h-7.7425q-2.4 0-2.4 2.4z" clip-path="url(#a)" fill="#fff" stroke="#fff"/>
<g clip-path="url(#a)">
<g transform="translate(255.2 790.7) rotate(90) scale(.08 -.08)">
<use xlink:href="#k"/>
<use x="60.818359" xlink:href="#d"/>
<use x="122.341797" xlink:href="#h"/>
<use x="163.439453" xlink:href="#l"/>
<use x="260.851562" xlink:href="#j"/>
<use x="288.634766" xlink:href="#g"/>
<use x="352.013672" xlink:href="#f"/>
<use x="413.292969" xlink:href="#i"/>
</g>
</g>
<path d="m481.28 526.61 3.0581-4.025q1.4519-1.911-0.45905-3.3629l-6.1649-4.684q-1.911-1.4519-3.3629 0.45905l-3.0581 4.025q-1.4519 1.911 0.45905 3.3629l6.1649 4.684q1.911 1.4519 3.3629-0.45905z" clip-path="url(#a)" fill="#fff" stroke="#fff"/>
<g clip-path="url(#a)">
<g transform="translate(478.04 524.15) rotate(-52.773) scale(.08 -.08)">
<use xlink:href="#p"/>
</g>
</g>
<path d="m504.01 526.38 2.7934-4.2131q1.3263-2.0003-0.67401-3.3265l-6.4529-4.2786q-2.0003-1.3263-3.3265 0.67401l-2.7934 4.213q-1.3263 2.0003 0.67401 3.3265l6.4529 4.2786q2.0003 1.3263 3.3265-0.67401z" clip-path="url(#a)" fill="#fff" stroke="#fff"/>
<g clip-path="url(#a)">
<g transform="translate(500.62 524.13) rotate(-56.454) scale(.08 -.08)">
<use xlink:href="#p"/>
</g>
</g>
<path d="m526.76 526.09 2.491-4.3987q1.1826-2.0884-0.90573-3.271l-6.7372-3.8153q-2.0884-1.1826-3.271 0.90573l-2.491 4.3987q-1.1826 2.0884 0.90573 3.271l6.7372 3.8153q2.0884 1.1826 3.271-0.90573z" clip-path="url(#a)" fill="#fff" stroke="#fff"/>
<g clip-path="url(#a)">
<g transform="translate(523.22 524.09) rotate(-60.477) scale(.08 -.08)">
<use xlink:href="#p"/>
</g>
</g>
<path d="m681.42 463.21 0.98078 4.9589q0.46565 2.3544 2.82 1.8887l7.5954-1.5022q2.3544-0.46565 1.8887-2.82l-0.98078-4.9589q-0.46565-2.3544-2.82-1.8887l-7.5954 1.5022q-2.3544 0.46565-1.8887 2.82z" clip-path="url(#a)" fill="#fff" stroke="#fff"/>
<g clip-path="url(#a)">
<g transform="translate(685.41 462.42) rotate(78.812) scale(.08 -.08)">
<use xlink:href="#p"/>
</g>
</g>
<path d="m617.7 524.66 0.98606-5.4985q0.42364-2.3623-1.9387-2.786l-7.6209-1.3667q-2.3623-0.42364-2.786 1.9387l-0.98606 5.4985q-0.42364 2.3623 1.9387 2.786l7.6209 1.3667q2.3623 0.42364 2.786-1.9387z" clip-path="url(#a)" fill="#fff" stroke="#fff"/>
<g clip-path="url(#a)">
<g transform="translate(613.7 523.94) rotate(-79.833) scale(.08 -.08)">
<use xlink:href="#r"/>
</g>
</g>
<path d="m700.73 351.45 3.382 3.757q1.6057 1.7837 3.3894 0.17805l5.7544-5.18q1.7837-1.6057 0.17805-3.3894l-3.382-3.757q-1.6057-1.7837-3.3894-0.17805l-5.7544 5.18q-1.7837 1.6057-0.17805 3.3894z" clip-path="url(#a)" fill="#fff" stroke="#fff"/>
<g clip-path="url(#a)">
<g transform="translate(703.75 348.74) rotate(48.007) scale(.08 -.08)">
<use xlink:href="#p"/>
</g>
</g>
<path d="m899.63 354.65 4.9175 1.1709q2.3347 0.55593 2.8907-1.7788l1.7934-7.5319q0.55593-2.3347-1.7788-2.8907l-4.9175-1.1709q-2.3347-0.55593-2.8907 1.7788l-1.7934 7.5319q-0.55593 2.3347 1.7788 2.8907z" clip-path="url(#a)" fill="#fff" stroke="#fff"/>
<g clip-path="url(#a)">
<g transform="translate(900.57 350.7) rotate(13.393) scale(.08 -.08)">
<use xlink:href="#p"/>
</g>
</g>
<path d="m640.39 524.24 0.48192-5.8351q0.19754-2.3919-2.1943-2.5894l-7.7162-0.63728q-2.3919-0.19754-2.5894 2.1943l-0.48192 5.8351q-0.19754 2.3919 2.1943 2.5894l7.7162 0.63728q2.3919 0.19754 2.5894-2.1943z" clip-path="url(#a)" fill="#fff" stroke="#fff"/>
<g clip-path="url(#a)">
<defs>
<path id="z" d="m8.6875 72.906h9.9219v-44.297q0-11.719 4.2344-16.875 4.25-5.1406 13.781-5.1406 9.4688 0 13.719 5.1406 4.25 5.1562 4.25 16.875v44.297h9.9062v-45.516q0-14.25-7.0625-21.531-7.0469-7.2812-20.812-7.2812-13.828 0-20.891 7.2812-7.0469 7.2812-7.0469 21.531z"/>
</defs>
<g transform="translate(636.34 523.9) rotate(-85.279) scale(.08 -.08)">
<use xlink:href="#z"/>
</g>
</g>
<path d="m828.96 522.39 3.6241 4.5986q1.4855 1.885 3.3705 0.39945l6.081-4.7924q1.885-1.4855 0.39945-3.3705l-3.6241-4.5986q-1.4855-1.885-3.3705-0.39945l-6.081 4.7924q-1.885 1.4855-0.39945 3.3705z" clip-path="url(#a)" fill="#fff" stroke="#fff"/>
<g clip-path="url(#a)">
<g transform="translate(832.15 519.87) rotate(51.759) scale(.08 -.08)">
<use xlink:href="#z"/>
</g>
</g>
<path d="m295.87 790.7v35.285q0 2.4 2.4 2.4h7.7425q2.4 0 2.4-2.4v-35.285q0-2.4-2.4-2.4h-7.7425q-2.4 0-2.4 2.4z" clip-path="url(#a)" fill="#fff" stroke="#fff"/>
<g clip-path="url(#a)">
<g transform="translate(299.93 790.7) rotate(90) scale(.08 -.08)">
<use xlink:href="#k"/>
<use x="60.818359" xlink:href="#d"/>
<use x="122.341797" xlink:href="#h"/>
<use x="163.439453" xlink:href="#l"/>
<use x="260.851562" xlink:href="#j"/>
<use x="288.634766" xlink:href="#g"/>
<use x="352.013672" xlink:href="#f"/>
<use x="413.292969" xlink:href="#i"/>
</g>
</g>
<path d="m340.61 790.7v35.285q0 2.4 2.4 2.4h7.7425q2.4 0 2.4-2.4v-35.285q0-2.4-2.4-2.4h-7.7425q-2.4 0-2.4 2.4z" clip-path="url(#a)" fill="#fff" stroke="#fff"/>
<g clip-path="url(#a)">
<g transform="translate(344.67 790.7) rotate(90) scale(.08 -.08)">
<use xlink:href="#k"/>
<use x="60.818359" xlink:href="#d"/>
<use x="122.341797" xlink:href="#h"/>
<use x="163.439453" xlink:href="#l"/>
<use x="260.851562" xlink:href="#j"/>
<use x="288.634766" xlink:href="#g"/>
<use x="352.013672" xlink:href="#f"/>
<use x="413.292969" xlink:href="#i"/>
</g>
</g>
<path d="m385.34 790.7v35.285q0 2.4 2.4 2.4h7.7425q2.4 0 2.4-2.4v-35.285q0-2.4-2.4-2.4h-7.7425q-2.4 0-2.4 2.4z" clip-path="url(#a)" fill="#fff" stroke="#fff"/>
<g clip-path="url(#a)">
<g transform="translate(389.4 790.7) rotate(90) scale(.08 -.08)">
<use xlink:href="#k"/>
<use x="60.818359" xlink:href="#d"/>
<use x="122.341797" xlink:href="#h"/>
<use x="163.439453" xlink:href="#l"/>
<use x="260.851562" xlink:href="#j"/>
<use x="288.634766" xlink:href="#g"/>
<use x="352.013672" xlink:href="#f"/>
<use x="413.292969" xlink:href="#i"/>
</g>
</g>
<path d="m648.14 702.35 4.3975-3.2574q1.9285-1.4285 0.5-3.3571l-4.6085-6.2216q-1.4285-1.9285-3.3571-0.5l-4.3975 3.2574q-1.9285 1.4285-0.5 3.3571l4.6085 6.2216q1.4285 1.9285 3.3571 0.5z" clip-path="url(#a)" fill="#fff" stroke="#fff"/>
<g clip-path="url(#a)">
<g transform="translate(645.72 699.08) rotate(-36.529) scale(.08 -.08)">
<use xlink:href="#s"/>
</g>
</g>
<path d="m1156.8 757.41 5.3003 1.3621q2.3245 0.59737 2.9218-1.7271l1.9271-7.4988q0.59737-2.3245-1.7271-2.9218l-5.3003-1.3621q-2.3245-0.59737-2.9218 1.7271l-1.9271 7.4988q-0.59737 2.3245 1.7271 2.9218z" clip-path="url(#a)" fill="#fff" stroke="#fff"/>
<g clip-path="url(#a)">
<g transform="translate(1157.9 753.47) rotate(14.413) scale(.08 -.08)">
<use xlink:href="#s"/>
</g>
</g>
<path d="m578.93 702.64 5.7321-2.2557q2.2333-0.87884 1.3545-3.1121l-2.8352-7.2047q-0.87884-2.2333-3.1121-1.3545l-5.7321 2.2557q-2.2333 0.87884-1.3545 3.1121l2.8352 7.2047q0.87884 2.2333 3.1121 1.3545z" clip-path="url(#a)" fill="#fff" stroke="#fff"/>
<g clip-path="url(#a)">
<defs>
<path id="al" d="m19.672 64.797v-56.688h11.922q15.094 0 22.094 6.8281 7 6.8438 7 21.594 0 14.641-7 21.453t-22.094 6.8125zm-9.8594 8.1094h20.266q21.188 0 31.094-8.8125 9.9219-8.8125 9.9219-27.562 0-18.859-9.9688-27.703-9.9531-8.8281-31.047-8.8281h-20.266z"/>
</defs>
<g transform="translate(577.44 698.86) rotate(-21.48) scale(.08 -.08)">
<use xlink:href="#al"/>
</g>
</g>
<path d="m625.26 702.32 4.1865-2.3963q2.0829-1.1922 0.89068-3.2752l-3.8462-6.7196q-1.1922-2.0829-3.2752-0.89068l-4.1865 2.3963q-2.0829 1.1922-0.89068 3.2752l3.8462 6.7196q1.1922 2.0829 3.2752 0.89068z" clip-path="url(#a)" fill="#fff" stroke="#fff"/>
<g clip-path="url(#a)">
<g transform="translate(623.24 698.79) rotate(-29.786) scale(.08 -.08)">
<use xlink:href="#aa"/>
</g>
</g>
<path d="m601.87 702.6 5.3063-2.4748q2.1751-1.0144 1.1606-3.1895l-3.2726-7.0169q-1.0144-2.1751-3.1895-1.1606l-5.3063 2.4748q-2.1751 1.0144-1.1606 3.1895l3.2726 7.0169q1.0144 2.1751 3.1895 1.1606z" clip-path="url(#a)" fill="#fff" stroke="#fff"/>
<g clip-path="url(#a)">
<g transform="translate(600.15 698.92) rotate(-25.004) scale(.08 -.08)">
<use xlink:href="#z"/>
</g>
</g>
<path d="m564.28 790.7v35.285q0 2.4 2.4 2.4h7.7425q2.4 0 2.4-2.4v-35.285q0-2.4-2.4-2.4h-7.7425q-2.4 0-2.4 2.4z" clip-path="url(#a)" fill="#fff" stroke="#fff"/>
<g clip-path="url(#a)">
<g transform="translate(568.35 790.7) rotate(90) scale(.08 -.08)">
<use xlink:href="#k"/>
<use x="60.818359" xlink:href="#d"/>
<use x="122.341797" xlink:href="#h"/>
<use x="163.439453" xlink:href="#l"/>
<use x="260.851562" xlink:href="#j"/>
<use x="288.634766" xlink:href="#g"/>
<use x="352.013672" xlink:href="#f"/>
<use x="413.292969" xlink:href="#i"/>
</g>
</g>
<path d="m722.2 472.83 3.2653-4.5326q1.4028-1.9473-0.54446-3.3502l-6.2821-4.5256q-1.9473-1.4028-3.3502 0.54446l-3.2653 4.5326q-1.4028 1.9473 0.54446 3.3502l6.2821 4.5256q1.9473 1.4028 3.3502-0.54446z" clip-path="url(#a)" fill="#fff" stroke="#fff"/>
<g clip-path="url(#a)">
<g transform="translate(718.9 470.45) rotate(-54.231) scale(.08 -.08)">
<use xlink:href="#r"/>
</g>
</g>
<path d="m793.04 578.82 1.3306 5.8352q0.53355 2.3399 2.8735 1.8064l7.5487-1.7213q2.3399-0.53355 1.8064-2.8735l-1.3306-5.8352q-0.53355-2.3399-2.8735-1.8064l-7.5487 1.7213q-2.3399 0.53355-1.8064 2.8735z" clip-path="url(#a)" fill="#fff" stroke="#fff"/>
<g clip-path="url(#a)">
<defs>
<path id="aw" d="m9.8125 72.906h13.281l32.328-60.984v60.984h9.5625v-72.906h-13.281l-32.312 60.984v-60.984h-9.5781z"/>
</defs>
<g transform="translate(797 577.92) rotate(77.155) scale(.08 -.08)">
<use xlink:href="#aw"/>
</g>
</g>
<path d="m757.08 464.41 0.26798 5.5798q0.11513 2.3972 2.5124 2.2821l7.7336-0.37142q2.3972-0.11513 2.2821-2.5124l-0.26798-5.5798q-0.11513-2.3972-2.5124-2.2821l-7.7336 0.37142q-2.3972 0.11513-2.2821 2.5124z" clip-path="url(#a)" fill="#fff" stroke="#fff"/>
<g clip-path="url(#a)">
<g transform="translate(761.14 464.21) rotate(87.25) scale(.08 -.08)">
<use xlink:href="#r"/>
</g>
</g>
<path d="m1113.5 584.4 1.2946-4.8864q0.61464-2.32-1.7053-2.9346l-7.4843-1.9829q-2.32-0.61464-2.9346 1.7053l-1.2946 4.8864q-0.61464 2.32 1.7053 2.9346l7.4843 1.9829q2.32 0.61464 2.9346-1.7053z" clip-path="url(#a)" fill="#fff" stroke="#fff"/>
<g clip-path="url(#a)">
<g transform="translate(1109.6 583.36) rotate(-75.161) scale(.08 -.08)">
<use xlink:href="#p"/>
</g>
</g>
<path d="m1136.3 583.95 0.74541-5.5363q0.32025-2.3785-2.0583-2.6988l-7.6733-1.0331q-2.3785-0.32025-2.6988 2.0583l-0.74541 5.5363q-0.32025 2.3785 2.0583 2.6988l7.6733 1.0331q2.3785 0.32025 2.6988-2.0583z" clip-path="url(#a)" fill="#fff" stroke="#fff"/>
<g clip-path="url(#a)">
<g transform="translate(1132.3 583.41) rotate(-82.332) scale(.08 -.08)">
<use xlink:href="#r"/>
</g>
</g>
<path d="m1216.2 470.04 3.8541 3.271q1.8298 1.553 3.3828-0.27683l5.01-5.9031q1.553-1.8298-0.27683-3.3828l-3.8541-3.271q-1.8298-1.553-3.3828 0.27683l-5.01 5.9031q-1.553 1.8298 0.27683 3.3828z" clip-path="url(#a)" fill="#fff" stroke="#fff"/>
<g clip-path="url(#a)">
<g transform="translate(1218.8 466.94) rotate(40.322) scale(.08 -.08)">
<use xlink:href="#p"/>
</g>
</g>
<path d="m1056.4 790.7v35.285q0 2.4 2.4 2.4h7.7425q2.4 0 2.4-2.4v-35.285q0-2.4-2.4-2.4h-7.7425q-2.4 0-2.4 2.4z" clip-path="url(#a)" fill="#fff" stroke="#fff"/>
<g clip-path="url(#a)">
<g transform="translate(1060.4 790.7) rotate(90) scale(.08 -.08)">
<use xlink:href="#k"/>
<use x="60.818359" xlink:href="#d"/>
<use x="122.341797" xlink:href="#h"/>
<use x="163.439453" xlink:href="#l"/>
<use x="260.851562" xlink:href="#j"/>
<use x="288.634766" xlink:href="#g"/>
<use x="352.013672" xlink:href="#f"/>
<use x="413.292969" xlink:href="#i"/>
</g>
</g>
<path d="m1101.1 790.7v35.285q0 2.4 2.4 2.4h7.7425q2.4 0 2.4-2.4v-35.285q0-2.4-2.4-2.4h-7.7425q-2.4 0-2.4 2.4z" clip-path="url(#a)" fill="#fff" stroke="#fff"/>
<g clip-path="url(#a)">
<g transform="translate(1105.2 790.7) rotate(90) scale(.08 -.08)">
<use xlink:href="#k"/>
<use x="60.818359" xlink:href="#d"/>
<use x="122.341797" xlink:href="#h"/>
<use x="163.439453" xlink:href="#l"/>
<use x="260.851562" xlink:href="#j"/>
<use x="288.634766" xlink:href="#g"/>
<use x="352.013672" xlink:href="#f"/>
<use x="413.292969" xlink:href="#i"/>
</g>
</g>
<path d="m1225.4 644.21 2.8989-4.743q1.2516-2.0478-0.7962-3.2994l-6.6063-4.0377q-2.0478-1.2516-3.2994 0.7962l-2.8989 4.743q-1.2516 2.0478 0.7962 3.2994l6.6063 4.0377q2.0478 1.2516 3.2994-0.7962z" clip-path="url(#a)" fill="#fff" stroke="#fff"/>
<g clip-path="url(#a)">
<g transform="translate(1221.9 642.09) rotate(-58.567) scale(.08 -.08)">
<use xlink:href="#w"/>
</g>
</g>
<path d="m1248.7 643.09 1.7602-4.2513q0.9181-2.2175-1.2994-3.1356l-7.1536-2.9618q-2.2175-0.9181-3.1356 1.2994l-1.7602 4.2513q-0.9181 2.2175 1.2994 3.1356l7.1536 2.9618q2.2175 0.9181 3.1356-1.2994z" clip-path="url(#a)" fill="#fff" stroke="#fff"/>
<g clip-path="url(#a)">
<g transform="translate(1245 641.53) rotate(-67.509) scale(.08 -.08)">
<use xlink:href="#ar"/>
</g>
</g>
<path d="m1271.8 642.25 1.0224-4.7142q0.50868-2.3455-1.8368-2.8541l-7.5666-1.641q-2.3455-0.50868-2.8541 1.8368l-1.0224 4.7142q-0.50867 2.3455 1.8368 2.8541l7.5666 1.641q2.3455 0.50868 2.8541-1.8368z" clip-path="url(#a)" fill="#fff" stroke="#fff"/>
<g clip-path="url(#a)">
<g transform="translate(1267.8 641.39) rotate(-77.763) scale(.08 -.08)">
<use xlink:href="#aa"/>
</g>
</g>
<path d="m1315.3 582.85 2.6309 4.7986q1.1538 2.1045 3.2583 0.95067l6.7891-3.7222q2.1045-1.1538 0.95067-3.2583l-2.6309-4.7986q-1.1538-2.1045-3.2583-0.95067l-6.7891 3.7222q-2.1045 1.1538-0.95067 3.2583z" clip-path="url(#a)" fill="#fff" stroke="#fff"/>
<g clip-path="url(#a)">
<g transform="translate(1318.9 580.89) rotate(61.266) scale(.08 -.08)">
<use xlink:href="#s"/>
</g>
</g>
<path d="m1395.3 586.66 4.3332 2.2581q2.1283 1.1091 3.2375-1.0192l3.5781-6.8661q1.1091-2.1283-1.0192-3.2375l-4.3332-2.2581q-2.1283-1.1091-3.2375 1.0192l-3.5781 6.8661q-1.1091 2.1283 1.0192 3.2375z" clip-path="url(#a)" fill="#fff" stroke="#fff"/>
<g clip-path="url(#a)">
<g transform="translate(1397.2 583.06) rotate(27.525) scale(.08 -.08)">
<use xlink:href="#k"/>
</g>
</g>
<path d="m1145.8 790.7v35.285q0 2.4 2.4 2.4h7.7425q2.4 0 2.4-2.4v-35.285q0-2.4-2.4-2.4h-7.7425q-2.4 0-2.4 2.4z" clip-path="url(#a)" fill="#fff" stroke="#fff"/>
<g clip-path="url(#a)">
<g transform="translate(1149.9 790.7) rotate(90) scale(.08 -.08)">
<use xlink:href="#k"/>
<use x="60.818359" xlink:href="#d"/>
<use x="122.341797" xlink:href="#h"/>
<use x="163.439453" xlink:href="#l"/>
<use x="260.851562" xlink:href="#j"/>
<use x="288.634766" xlink:href="#g"/>
<use x="352.013672" xlink:href="#f"/>
<use x="413.292969" xlink:href="#i"/>
</g>
</g>
<path d="m1190.6 790.7v35.285q0 2.4 2.4 2.4h7.7425q2.4 0 2.4-2.4v-35.285q0-2.4-2.4-2.4h-7.7425q-2.4 0-2.4 2.4z" clip-path="url(#a)" fill="#fff" stroke="#fff"/>
<g clip-path="url(#a)">
<g transform="translate(1194.6 790.7) rotate(90) scale(.08 -.08)">
<use xlink:href="#k"/>
<use x="60.818359" xlink:href="#d"/>
<use x="122.341797" xlink:href="#h"/>
<use x="163.439453" xlink:href="#l"/>
<use x="260.851562" xlink:href="#j"/>
<use x="288.634766" xlink:href="#g"/>
<use x="352.013672" xlink:href="#f"/>
<use x="413.292969" xlink:href="#i"/>
</g>
</g>
<path d="m1235.3 790.7v35.285q0 2.4 2.4 2.4h7.7425q2.4 0 2.4-2.4v-35.285q0-2.4-2.4-2.4h-7.7425q-2.4 0-2.4 2.4z" clip-path="url(#a)" fill="#fff" stroke="#fff"/>
<g clip-path="url(#a)">
<g transform="translate(1239.4 790.7) rotate(90) scale(.08 -.08)">
<use xlink:href="#k"/>
<use x="60.818359" xlink:href="#d"/>
<use x="122.341797" xlink:href="#h"/>
<use x="163.439453" xlink:href="#l"/>
<use x="260.851562" xlink:href="#j"/>
<use x="288.634766" xlink:href="#g"/>
<use x="352.013672" xlink:href="#f"/>
<use x="413.292969" xlink:href="#i"/>
</g>
</g>
<path d="m1323.8 701.28 2.8445-4.7759q1.2281-2.062-0.83388-3.2901l-6.652-3.9619q-2.062-1.2281-3.2901 0.83388l-2.8445 4.7759q-1.2281 2.062 0.83388 3.2901l6.652 3.9619q2.062 1.2281 3.2901-0.83388z" clip-path="url(#a)" fill="#fff" stroke="#fff"/>
<g clip-path="url(#a)">
<g transform="translate(1320.3 699.2) rotate(-59.222) scale(.08 -.08)">
<use xlink:href="#w"/>
</g>
</g>
<path d="m1347.9 699.38 0.98436-4.9582q0.46735-2.3541-1.8867-2.8214l-7.5943-1.5077q-2.3541-0.46735-2.8214 1.8867l-0.98436 4.9582q-0.46735 2.3541 1.8867 2.8214l7.5943 1.5077q2.3541 0.46735 2.8214-1.8867z" clip-path="url(#a)" fill="#fff" stroke="#fff"/>
<g clip-path="url(#a)">
<g transform="translate(1343.9 698.59) rotate(-78.771) scale(.08 -.08)">
<use xlink:href="#p"/>
</g>
</g>
<path d="m1358 694.42 0.98436 4.9582q0.46735 2.3541 2.8214 1.8867l7.5943-1.5077q2.3541-0.46735 1.8867-2.8214l-0.98436-4.9582q-0.46735-2.3541-2.8214-1.8867l-7.5943 1.5077q-2.3541 0.46735-1.8867 2.8214z" clip-path="url(#a)" fill="#fff" stroke="#fff"/>
<g clip-path="url(#a)">
<g transform="translate(1361.9 693.63) rotate(78.771) scale(.08 -.08)">
<use xlink:href="#p"/>
</g>
</g>
<path d="m1380.2 696.49 2.8585 4.7995q1.2281 2.062 3.2901 0.83388l6.652-3.9619q2.062-1.2281 0.83388-3.2901l-2.8585-4.7995q-1.2281-2.062-3.2901-0.83388l-6.652 3.9619q-2.062 1.2281-0.83388 3.2901z" clip-path="url(#a)" fill="#fff" stroke="#fff"/>
<g clip-path="url(#a)">
<g transform="translate(1383.6 694.41) rotate(59.222) scale(.08 -.08)">
<use xlink:href="#r"/>
</g>
</g>
<path d="m1492.4 700.58 2.0514-5.1664q0.88568-2.2306-1.3449-3.1163l-7.196-2.8572q-2.2306-0.88568-3.1163 1.3449l-2.0514 5.1664q-0.88568 2.2306 1.3449 3.1163l7.196 2.8572q2.2306 0.88568 3.1163-1.3449z" clip-path="url(#a)" fill="#fff" stroke="#fff"/>
<g clip-path="url(#a)">
<g transform="translate(1488.7 699.08) rotate(-68.344) scale(.08 -.08)">
<use xlink:href="#w"/>
</g>
</g>
<path d="m1503.7 692.89v5.5862q0 2.4 2.4 2.4h7.7425q2.4 0 2.4-2.4v-5.5862q0-2.4-2.4-2.4h-7.7425q-2.4 0-2.4 2.4z" clip-path="url(#a)" fill="#fff" stroke="#fff"/>
<g clip-path="url(#a)">
<g transform="translate(1507.8 692.89) rotate(90) scale(.08 -.08)">
<use xlink:href="#r"/>
</g>
</g>
<path d="m1525.5 695.27 2.1607 5.4417q0.88568 2.2306 3.1163 1.3449l7.196-2.8572q2.2306-0.88568 1.3449-3.1163l-2.1607-5.4417q-0.88568-2.2306-3.1163-1.3449l-7.196 2.8572q-2.2306 0.88568-1.3449 3.1163z" clip-path="url(#a)" fill="#fff" stroke="#fff"/>
<g clip-path="url(#a)">
<g transform="translate(1529.2 693.77) rotate(68.344) scale(.08 -.08)">
<use xlink:href="#z"/>
</g>
</g>
<path d="m1459 790.7v35.285q0 2.4 2.4 2.4h7.7425q2.4 0 2.4-2.4v-35.285q0-2.4-2.4-2.4h-7.7425q-2.4 0-2.4 2.4z" clip-path="url(#a)" fill="#fff" stroke="#fff"/>
<g clip-path="url(#a)">
<g transform="translate(1463.1 790.7) rotate(90) scale(.08 -.08)">
<use xlink:href="#k"/>
<use x="60.818359" xlink:href="#d"/>
<use x="122.341797" xlink:href="#h"/>
<use x="163.439453" xlink:href="#l"/>
<use x="260.851562" xlink:href="#j"/>
<use x="288.634766" xlink:href="#g"/>
<use x="352.013672" xlink:href="#f"/>
<use x="413.292969" xlink:href="#i"/>
</g>
</g>
<path d="m1503.7 790.7v35.285q0 2.4 2.4 2.4h7.7425q2.4 0 2.4-2.4v-35.285q0-2.4-2.4-2.4h-7.7425q-2.4 0-2.4 2.4z" clip-path="url(#a)" fill="#fff" stroke="#fff"/>
<g clip-path="url(#a)">
<g transform="translate(1507.8 790.7) rotate(90) scale(.08 -.08)">
<use xlink:href="#k"/>
<use x="60.818359" xlink:href="#d"/>
<use x="122.341797" xlink:href="#h"/>
<use x="163.439453" xlink:href="#l"/>
<use x="260.851562" xlink:href="#j"/>
<use x="288.634766" xlink:href="#g"/>
<use x="352.013672" xlink:href="#f"/>
<use x="413.292969" xlink:href="#i"/>
</g>
</g>
<path d="m1280 790.7v35.285q0 2.4 2.4 2.4h7.7425q2.4 0 2.4-2.4v-35.285q0-2.4-2.4-2.4h-7.7425q-2.4 0-2.4 2.4z" clip-path="url(#a)" fill="#fff" stroke="#fff"/>
<g clip-path="url(#a)">
<g transform="translate(1284.1 790.7) rotate(90) scale(.08 -.08)">
<use xlink:href="#k"/>
<use x="60.818359" xlink:href="#d"/>
<use x="122.341797" xlink:href="#h"/>
<use x="163.439453" xlink:href="#l"/>
<use x="260.851562" xlink:href="#j"/>
<use x="288.634766" xlink:href="#g"/>
<use x="352.013672" xlink:href="#f"/>
<use x="413.292969" xlink:href="#i"/>
</g>
</g>
<path d="m1324.8 790.7v35.285q0 2.4 2.4 2.4h7.7425q2.4 0 2.4-2.4v-35.285q0-2.4-2.4-2.4h-7.7425q-2.4 0-2.4 2.4z" clip-path="url(#a)" fill="#fff" stroke="#fff"/>
<g clip-path="url(#a)">
<g transform="translate(1328.8 790.7) rotate(90) scale(.08 -.08)">
<use xlink:href="#k"/>
<use x="60.818359" xlink:href="#d"/>
<use x="122.341797" xlink:href="#h"/>
<use x="163.439453" xlink:href="#l"/>
<use x="260.851562" xlink:href="#j"/>
<use x="288.634766" xlink:href="#g"/>
<use x="352.013672" xlink:href="#f"/>
<use x="413.292969" xlink:href="#i"/>
</g>
</g>
<path d="m1369.5 790.7v35.285q0 2.4 2.4 2.4h7.7425q2.4 0 2.4-2.4v-35.285q0-2.4-2.4-2.4h-7.7425q-2.4 0-2.4 2.4z" clip-path="url(#a)" fill="#fff" stroke="#fff"/>
<g clip-path="url(#a)">
<g transform="translate(1373.6 790.7) rotate(90) scale(.08 -.08)">
<use xlink:href="#k"/>
<use x="60.818359" xlink:href="#d"/>
<use x="122.341797" xlink:href="#h"/>
<use x="163.439453" xlink:href="#l"/>
<use x="260.851562" xlink:href="#j"/>
<use x="288.634766" xlink:href="#g"/>
<use x="352.013672" xlink:href="#f"/>
<use x="413.292969" xlink:href="#i"/>
</g>
</g>
<path d="m1414.3 790.7v35.285q0 2.4 2.4 2.4h7.7425q2.4 0 2.4-2.4v-35.285q0-2.4-2.4-2.4h-7.7425q-2.4 0-2.4 2.4z" clip-path="url(#a)" fill="#fff" stroke="#fff"/>
<g clip-path="url(#a)">
<g transform="translate(1418.3 790.7) rotate(90) scale(.08 -.08)">
<use xlink:href="#k"/>
<use x="60.818359" xlink:href="#d"/>
<use x="122.341797" xlink:href="#h"/>
<use x="163.439453" xlink:href="#l"/>
<use x="260.851562" xlink:href="#j"/>
<use x="288.634766" xlink:href="#g"/>
<use x="352.013672" xlink:href="#f"/>
<use x="413.292969" xlink:href="#i"/>
</g>
</g>
<path d="m628.2 643.7 2.3207-4.9561q1.0178-2.1735-1.1558-3.1913l-7.0119-3.2833q-2.1735-1.0178-3.1913 1.1558l-2.3207 4.9561q-1.0178 2.1735 1.1558 3.1913l7.0119 3.2833q2.1735 1.0178 3.1913-1.1558z" clip-path="url(#a)" fill="#fff" stroke="#fff"/>
<g clip-path="url(#a)">
<g transform="translate(624.52 641.98) rotate(-64.909) scale(.08 -.08)">
<use xlink:href="#s"/>
</g>
</g>
<path d="m674.44 642.1 0.4542-6.1432q0.17696-2.3935-2.2165-2.5704l-7.7214-0.57088q-2.3935-0.17696-2.5704 2.2165l-0.4542 6.1432q-0.17696 2.3935 2.2165 2.5704l7.7214 0.57088q2.3935 0.17696 2.5704-2.2165z" clip-path="url(#a)" fill="#fff" stroke="#fff"/>
<g clip-path="url(#a)">
<g transform="translate(670.39 641.8) rotate(-85.772) scale(.08 -.08)">
<use xlink:href="#al"/>
</g>
</g>
<path d="m684.25 636.81 0.62113 5.0406q0.29352 2.382 2.6755 2.0885l7.6844-0.9469q2.382-0.29352 2.0885-2.6755l-0.62113-5.0406q-0.29352-2.382-2.6755-2.0885l-7.6844 0.9469q-2.382 0.29352-2.0885 2.6755z" clip-path="url(#a)" fill="#fff" stroke="#fff"/>
<g clip-path="url(#a)">
<defs>
<path id="ao" d="m53.516 70.516v-9.625q-5.6094 2.6875-10.594 4-4.9844 1.3281-9.625 1.3281-8.0469 0-12.422-3.125t-4.375-8.8906q0-4.8438 2.9062-7.3125 2.9062-2.4531 11.016-3.9688l5.9531-1.2188q11.031-2.1094 16.281-7.4062t5.25-14.172q0-10.609-7.1094-16.078-7.0938-5.4688-20.812-5.4688-5.1719 0-11.016 1.1719-5.8281 1.1719-12.078 3.4688v10.156q6-3.3594 11.766-5.0781 5.7656-1.7031 11.328-1.7031 8.4375 0 13.031 3.3125 4.5938 3.3281 4.5938 9.4844 0 5.3594-3.2969 8.3906t-10.812 4.5469l-6.0156 1.1719q-11.031 2.1875-15.969 6.875-4.9219 4.6875-4.9219 13.047 0 9.6719 6.8125 15.234t18.766 5.5625q5.1406 0 10.453-0.9375 5.3281-0.92188 10.891-2.7656z"/>
</defs>
<g transform="translate(688.28 636.31) rotate(82.975) scale(.08 -.08)">
<use xlink:href="#ao"/>
</g>
</g>
<path d="m717.76 584.14 3.5005 4.2065q1.5352 1.8448 3.38 0.30959l5.9513-4.9526q1.8448-1.5352 0.3096-3.38l-3.5005-4.2065q-1.5352-1.8448-3.38-0.3096l-5.9513 4.9526q-1.8448 1.5352-0.3096 3.38z" clip-path="url(#a)" fill="#fff" stroke="#fff"/>
<g clip-path="url(#a)">
<g transform="translate(720.88 581.54) rotate(50.234) scale(.08 -.08)">
<use xlink:href="#s"/>
</g>
</g>
<path d="m832.69 790.7v35.285q0 2.4 2.4 2.4h7.7425q2.4 0 2.4-2.4v-35.285q0-2.4-2.4-2.4h-7.7425q-2.4 0-2.4 2.4z" clip-path="url(#a)" fill="#fff" stroke="#fff"/>
<g clip-path="url(#a)">
<g transform="translate(836.76 790.7) rotate(90) scale(.08 -.08)">
<use xlink:href="#k"/>
<use x="60.818359" xlink:href="#d"/>
<use x="122.341797" xlink:href="#h"/>
<use x="163.439453" xlink:href="#l"/>
<use x="260.851562" xlink:href="#j"/>
<use x="288.634766" xlink:href="#g"/>
<use x="352.013672" xlink:href="#f"/>
<use x="413.292969" xlink:href="#i"/>
</g>
</g>
<path d="m671.37 644.73 3.5744-4.1439q1.5676-1.8173-0.24975-3.3849l-5.8628-5.0571q-1.8173-1.5676-3.3849 0.24975l-3.5744 4.1439q-1.5676 1.8173 0.24975 3.3849l5.8628 5.0571q1.8173 1.5676 3.3849-0.24975z" clip-path="url(#a)" fill="#fff" stroke="#fff"/>
<g clip-path="url(#a)">
<g transform="translate(668.3 642.08) rotate(-49.22) scale(.08 -.08)">
<use xlink:href="#s"/>
</g>
</g>
<path d="m818.25 639.19 2.3344 4.5105q1.1031 2.1315 3.2346 1.0283l6.8762-3.5587q2.1315-1.1031 1.0283-3.2346l-2.3344-4.5105q-1.1031-2.1315-3.2346-1.0283l-6.8762 3.5587q-2.1315 1.1031-1.0283 3.2346z" clip-path="url(#a)" fill="#fff" stroke="#fff"/>
<g clip-path="url(#a)">
<g transform="translate(821.86 637.32) rotate(62.637) scale(.08 -.08)">
<use xlink:href="#ao"/>
</g>
</g>
<path d="m852.91 586.12 4.6531 2.8805q2.0406 1.2632 3.3039-0.7774l4.0753-6.5832q1.2632-2.0406-0.7774-3.3039l-4.6531-2.8804q-2.0406-1.2632-3.3039 0.7774l-4.0753 6.5832q-1.2632 2.0406 0.7774 3.3039z" clip-path="url(#a)" fill="#fff" stroke="#fff"/>
<g clip-path="url(#a)">
<g transform="translate(855.05 582.67) rotate(31.759) scale(.08 -.08)">
<use xlink:href="#s"/>
</g>
</g>
<path d="m717.52 644.01 2.6122-5.5787q1.0178-2.1735-1.1558-3.1913l-7.0119-3.2833q-2.1735-1.0178-3.1913 1.1558l-2.6122 5.5787q-1.0178 2.1735 1.1558 3.1913l7.0119 3.2833q2.1735 1.0178 3.1913-1.1558z" clip-path="url(#a)" fill="#fff" stroke="#fff"/>
<g clip-path="url(#a)">
<g transform="translate(713.84 642.29) rotate(-64.909) scale(.08 -.08)">
<use xlink:href="#al"/>
</g>
</g>
<path d="m877.43 790.7v35.285q0 2.4 2.4 2.4h7.7425q2.4 0 2.4-2.4v-35.285q0-2.4-2.4-2.4h-7.7425q-2.4 0-2.4 2.4z" clip-path="url(#a)" fill="#fff" stroke="#fff"/>
<g clip-path="url(#a)">
<g transform="translate(881.49 790.7) rotate(90) scale(.08 -.08)">
<use xlink:href="#k"/>
<use x="60.818359" xlink:href="#d"/>
<use x="122.341797" xlink:href="#h"/>
<use x="163.439453" xlink:href="#l"/>
<use x="260.851562" xlink:href="#j"/>
<use x="288.634766" xlink:href="#g"/>
<use x="352.013672" xlink:href="#f"/>
<use x="413.292969" xlink:href="#i"/>
</g>
</g>
<path d="m945.23 699.63 1.0825-5.4523q0.46735-2.3541-1.8867-2.8214l-7.5943-1.5077q-2.3541-0.46735-2.8214 1.8867l-1.0825 5.4523q-0.46735 2.3541 1.8867 2.8214l7.5943 1.5077q2.3541 0.46735 2.8214-1.8867z" clip-path="url(#a)" fill="#fff" stroke="#fff"/>
<g clip-path="url(#a)">
<g transform="translate(941.24 698.84) rotate(-78.771) scale(.08 -.08)">
<use xlink:href="#w"/>
</g>
</g>
<path d="m955.29 694.16 1.0878 5.4793q0.46735 2.3541 2.8214 1.8867l7.5943-1.5077q2.3541-0.46735 1.8867-2.8214l-1.0878-5.4793q-0.46735-2.3541-2.8214-1.8867l-7.5943 1.5077q-2.3541 0.46735-1.8867 2.8214z" clip-path="url(#a)" fill="#fff" stroke="#fff"/>
<g clip-path="url(#a)">
<g transform="translate(959.28 693.37) rotate(78.771) scale(.08 -.08)">
<use xlink:href="#r"/>
</g>
</g>
<path d="m922.17 790.7v35.285q0 2.4 2.4 2.4h7.7425q2.4 0 2.4-2.4v-35.285q0-2.4-2.4-2.4h-7.7425q-2.4 0-2.4 2.4z" clip-path="url(#a)" fill="#fff" stroke="#fff"/>
<g clip-path="url(#a)">
<g transform="translate(926.23 790.7) rotate(90) scale(.08 -.08)">
<use xlink:href="#k"/>
<use x="60.818359" xlink:href="#d"/>
<use x="122.341797" xlink:href="#h"/>
<use x="163.439453" xlink:href="#l"/>
<use x="260.851562" xlink:href="#j"/>
<use x="288.634766" xlink:href="#g"/>
<use x="352.013672" xlink:href="#f"/>
<use x="413.292969" xlink:href="#i"/>
</g>
</g>
<path d="m966.9 790.7v35.285q0 2.4 2.4 2.4h7.7425q2.4 0 2.4-2.4v-35.285q0-2.4-2.4-2.4h-7.7425q-2.4 0-2.4 2.4z" clip-path="url(#a)" fill="#fff" stroke="#fff"/>
<g clip-path="url(#a)">
<g transform="translate(970.96 790.7) rotate(90) scale(.08 -.08)">
<use xlink:href="#k"/>
<use x="60.818359" xlink:href="#d"/>
<use x="122.341797" xlink:href="#h"/>
<use x="163.439453" xlink:href="#l"/>
<use x="260.851562" xlink:href="#j"/>
<use x="288.634766" xlink:href="#g"/>
<use x="352.013672" xlink:href="#f"/>
<use x="413.292969" xlink:href="#i"/>
</g>
</g>
<path d="m653.75 790.7v35.285q0 2.4 2.4 2.4h7.7425q2.4 0 2.4-2.4v-35.285q0-2.4-2.4-2.4h-7.7425q-2.4 0-2.4 2.4z" clip-path="url(#a)" fill="#fff" stroke="#fff"/>
<g clip-path="url(#a)">
<g transform="translate(657.82 790.7) rotate(90) scale(.08 -.08)">
<use xlink:href="#k"/>
<use x="60.818359" xlink:href="#d"/>
<use x="122.341797" xlink:href="#h"/>
<use x="163.439453" xlink:href="#l"/>
<use x="260.851562" xlink:href="#j"/>
<use x="288.634766" xlink:href="#g"/>
<use x="352.013672" xlink:href="#f"/>
<use x="413.292969" xlink:href="#i"/>
</g>
</g>
<path d="m698.49 790.7v35.285q0 2.4 2.4 2.4h7.7425q2.4 0 2.4-2.4v-35.285q0-2.4-2.4-2.4h-7.7425q-2.4 0-2.4 2.4z" clip-path="url(#a)" fill="#fff" stroke="#fff"/>
<g clip-path="url(#a)">
<g transform="translate(702.55 790.7) rotate(90) scale(.08 -.08)">
<use xlink:href="#k"/>
<use x="60.818359" xlink:href="#d"/>
<use x="122.341797" xlink:href="#h"/>
<use x="163.439453" xlink:href="#l"/>
<use x="260.851562" xlink:href="#j"/>
<use x="288.634766" xlink:href="#g"/>
<use x="352.013672" xlink:href="#f"/>
<use x="413.292969" xlink:href="#i"/>
</g>
</g>
<path d="m766.29 699.63 1.0825-5.4523q0.46735-2.3541-1.8867-2.8214l-7.5943-1.5077q-2.3541-0.46735-2.8214 1.8867l-1.0825 5.4523q-0.46735 2.3541 1.8867 2.8214l7.5943 1.5077q2.3541 0.46735 2.8214-1.8867z" clip-path="url(#a)" fill="#fff" stroke="#fff"/>
<g clip-path="url(#a)">
<g transform="translate(762.3 698.84) rotate(-78.771) scale(.08 -.08)">
<use xlink:href="#w"/>
</g>
</g>
<path d="m776.35 694.16 1.0878 5.4793q0.46735 2.3541 2.8214 1.8867l7.5943-1.5077q2.3541-0.46735 1.8867-2.8214l-1.0878-5.4793q-0.46735-2.3541-2.8214-1.8867l-7.5943 1.5077q-2.3541 0.46735-1.8867 2.8214z" clip-path="url(#a)" fill="#fff" stroke="#fff"/>
<g clip-path="url(#a)">
<g transform="translate(780.34 693.37) rotate(78.771) scale(.08 -.08)">
<use xlink:href="#r"/>
</g>
</g>
<path d="m743.22 790.7v35.285q0 2.4 2.4 2.4h7.7425q2.4 0 2.4-2.4v-35.285q0-2.4-2.4-2.4h-7.7425q-2.4 0-2.4 2.4z" clip-path="url(#a)" fill="#fff" stroke="#fff"/>
<g clip-path="url(#a)">
<g transform="translate(747.29 790.7) rotate(90) scale(.08 -.08)">
<use xlink:href="#k"/>
<use x="60.818359" xlink:href="#d"/>
<use x="122.341797" xlink:href="#h"/>
<use x="163.439453" xlink:href="#l"/>
<use x="260.851562" xlink:href="#j"/>
<use x="288.634766" xlink:href="#g"/>
<use x="352.013672" xlink:href="#f"/>
<use x="413.292969" xlink:href="#i"/>
</g>
</g>
<path d="m787.96 790.7v35.285q0 2.4 2.4 2.4h7.7425q2.4 0 2.4-2.4v-35.285q0-2.4-2.4-2.4h-7.7425q-2.4 0-2.4 2.4z" clip-path="url(#a)" fill="#fff" stroke="#fff"/>
<g clip-path="url(#a)">
<g transform="translate(792.02 790.7) rotate(90) scale(.08 -.08)">
<use xlink:href="#k"/>
<use x="60.818359" xlink:href="#d"/>
<use x="122.341797" xlink:href="#h"/>
<use x="163.439453" xlink:href="#l"/>
<use x="260.851562" xlink:href="#j"/>
<use x="288.634766" xlink:href="#g"/>
<use x="352.013672" xlink:href="#f"/>
<use x="413.292969" xlink:href="#i"/>
</g>
</g>
<path d="m430.08 790.7v35.285q0 2.4 2.4 2.4h7.7425q2.4 0 2.4-2.4v-35.285q0-2.4-2.4-2.4h-7.7425q-2.4 0-2.4 2.4z" clip-path="url(#a)" fill="#fff" stroke="#fff"/>
<g clip-path="url(#a)">
<g transform="translate(434.14 790.7) rotate(90) scale(.08 -.08)">
<use xlink:href="#k"/>
<use x="60.818359" xlink:href="#d"/>
<use x="122.341797" xlink:href="#h"/>
<use x="163.439453" xlink:href="#l"/>
<use x="260.851562" xlink:href="#j"/>
<use x="288.634766" xlink:href="#g"/>
<use x="352.013672" xlink:href="#f"/>
<use x="413.292969" xlink:href="#i"/>
</g>
</g>
<path d="m519.55 790.7v35.285q0 2.4 2.4 2.4h7.7425q2.4 0 2.4-2.4v-35.285q0-2.4-2.4-2.4h-7.7425q-2.4 0-2.4 2.4z" clip-path="url(#a)" fill="#fff" stroke="#fff"/>
<g clip-path="url(#a)">
<g transform="translate(523.61 790.7) rotate(90) scale(.08 -.08)">
<use xlink:href="#k"/>
<use x="60.818359" xlink:href="#d"/>
<use x="122.341797" xlink:href="#h"/>
<use x="163.439453" xlink:href="#l"/>
<use x="260.851562" xlink:href="#j"/>
<use x="288.634766" xlink:href="#g"/>
<use x="352.013672" xlink:href="#f"/>
<use x="413.292969" xlink:href="#i"/>
</g>
</g>
<path d="m474.81 790.7v35.285q0 2.4 2.4 2.4h7.7425q2.4 0 2.4-2.4v-35.285q0-2.4-2.4-2.4h-7.7425q-2.4 0-2.4 2.4z" clip-path="url(#a)" fill="#fff" stroke="#fff"/>
<g clip-path="url(#a)">
<g transform="translate(478.88 790.7) rotate(90) scale(.08 -.08)">
<use xlink:href="#k"/>
<use x="60.818359" xlink:href="#d"/>
<use x="122.341797" xlink:href="#h"/>
<use x="163.439453" xlink:href="#l"/>
<use x="260.851562" xlink:href="#j"/>
<use x="288.634766" xlink:href="#g"/>
<use x="352.013672" xlink:href="#f"/>
<use x="413.292969" xlink:href="#i"/>
</g>
</g>
<path d="m72.194 790.7v35.285q0 2.4 2.4 2.4h7.7425q2.4 0 2.4-2.4v-35.285q0-2.4-2.4-2.4h-7.7425q-2.4 0-2.4 2.4z" clip-path="url(#a)" fill="#fff" stroke="#fff"/>
<g clip-path="url(#a)">
<g transform="translate(76.257 790.7) rotate(90) scale(.08 -.08)">
<use xlink:href="#k"/>
<use x="60.818359" xlink:href="#d"/>
<use x="122.341797" xlink:href="#h"/>
<use x="163.439453" xlink:href="#l"/>
<use x="260.851562" xlink:href="#j"/>
<use x="288.634766" xlink:href="#g"/>
<use x="352.013672" xlink:href="#f"/>
<use x="413.292969" xlink:href="#i"/>
</g>
</g>
<path d="m116.93 790.7v35.285q0 2.4 2.4 2.4h7.7425q2.4 0 2.4-2.4v-35.285q0-2.4-2.4-2.4h-7.7425q-2.4 0-2.4 2.4z" clip-path="url(#a)" fill="#fff" stroke="#fff"/>
<g clip-path="url(#a)">
<g transform="translate(120.99 790.7) rotate(90) scale(.08 -.08)">
<use xlink:href="#k"/>
<use x="60.818359" xlink:href="#d"/>
<use x="122.341797" xlink:href="#h"/>
<use x="163.439453" xlink:href="#l"/>
<use x="260.851562" xlink:href="#j"/>
<use x="288.634766" xlink:href="#g"/>
<use x="352.013672" xlink:href="#f"/>
<use x="413.292969" xlink:href="#i"/>
</g>
</g>
<path d="m161.66 790.7v35.285q0 2.4 2.4 2.4h7.7425q2.4 0 2.4-2.4v-35.285q0-2.4-2.4-2.4h-7.7425q-2.4 0-2.4 2.4z" clip-path="url(#a)" fill="#fff" stroke="#fff"/>
<g clip-path="url(#a)">
<g transform="translate(165.73 790.7) rotate(90) scale(.08 -.08)">
<use xlink:href="#k"/>
<use x="60.818359" xlink:href="#d"/>
<use x="122.341797" xlink:href="#h"/>
<use x="163.439453" xlink:href="#l"/>
<use x="260.851562" xlink:href="#j"/>
<use x="288.634766" xlink:href="#g"/>
<use x="352.013672" xlink:href="#f"/>
<use x="413.292969" xlink:href="#i"/>
</g>
</g>
<path d="m609.02 790.7v35.285q0 2.4 2.4 2.4h7.7425q2.4 0 2.4-2.4v-35.285q0-2.4-2.4-2.4h-7.7425q-2.4 0-2.4 2.4z" clip-path="url(#a)" fill="#fff" stroke="#fff"/>
<g clip-path="url(#a)">
<g transform="translate(613.08 790.7) rotate(90) scale(.08 -.08)">
<use xlink:href="#k"/>
<use x="60.818359" xlink:href="#d"/>
<use x="122.341797" xlink:href="#h"/>
<use x="163.439453" xlink:href="#l"/>
<use x="260.851562" xlink:href="#j"/>
<use x="288.634766" xlink:href="#g"/>
<use x="352.013672" xlink:href="#f"/>
<use x="413.292969" xlink:href="#i"/>
</g>
</g>
<path d="m1011.6 790.7v35.285q0 2.4 2.4 2.4h7.7425q2.4 0 2.4-2.4v-35.285q0-2.4-2.4-2.4h-7.7425q-2.4 0-2.4 2.4z" clip-path="url(#a)" fill="#fff" stroke="#fff"/>
<g clip-path="url(#a)">
<g transform="translate(1015.7 790.7) rotate(90) scale(.08 -.08)">
<use xlink:href="#k"/>
<use x="60.818359" xlink:href="#d"/>
<use x="122.341797" xlink:href="#h"/>
<use x="163.439453" xlink:href="#l"/>
<use x="260.851562" xlink:href="#j"/>
<use x="288.634766" xlink:href="#g"/>
<use x="352.013672" xlink:href="#f"/>
<use x="413.292969" xlink:href="#i"/>
</g>
</g>
<path d="m1548.5 790.7v35.285q0 2.4 2.4 2.4h7.7425q2.4 0 2.4-2.4v-35.285q0-2.4-2.4-2.4h-7.7425q-2.4 0-2.4 2.4z" clip-path="url(#a)" fill="#fff" stroke="#fff"/>
<g clip-path="url(#a)">
<g transform="translate(1552.5 790.7) rotate(90) scale(.08 -.08)">
<use xlink:href="#k"/>
<use x="60.818359" xlink:href="#d"/>
<use x="122.341797" xlink:href="#h"/>
<use x="163.439453" xlink:href="#l"/>
<use x="260.851562" xlink:href="#j"/>
<use x="288.634766" xlink:href="#g"/>
<use x="352.013672" xlink:href="#f"/>
<use x="413.292969" xlink:href="#i"/>
</g>
</g>
<defs>
<path id="b" d="m0 8.6603c2.2967 0 4.4997-0.9125 6.1237-2.5365 1.624-1.624 2.5365-3.827 2.5365-6.1237s-0.9125-4.4997-2.5365-6.1237c-1.624-1.624-3.827-2.5365-6.1237-2.5365s-4.4997 0.9125-6.1237 2.5365c-1.624 1.624-2.5365 3.827-2.5365 6.1237s0.9125 4.4997 2.5365 6.1237c1.624 1.624 3.827 2.5365 6.1237 2.5365z"/>
</defs>
<g clip-path="url(#a)">
<use x="78.464955" y="864.679711" fill="#ffffff" stroke="#ffffff" xlink:href="#b"/>
</g>
<g clip-path="url(#a)">
<use x="123.200291" y="864.679711" fill="#ffffff" stroke="#ffffff" xlink:href="#b"/>
</g>
<g clip-path="url(#a)">
<use x="167.935627" y="864.679711" fill="#ffffff" stroke="#ffffff" xlink:href="#b"/>
</g>
<g clip-path="url(#a)">
<use x="212.670963" y="864.679711" fill="#ffffff" stroke="#ffffff" xlink:href="#b"/>
</g>
<g clip-path="url(#a)">
<use x="257.406298" y="864.679711" fill="#ffffff" stroke="#ffffff" xlink:href="#b"/>
</g>
<g clip-path="url(#a)">
<use x="302.141634" y="864.679711" fill="#ffffff" stroke="#ffffff" xlink:href="#b"/>
</g>
<g clip-path="url(#a)">
<use x="346.87697" y="864.679711" fill="#ffffff" stroke="#ffffff" xlink:href="#b"/>
</g>
<g clip-path="url(#a)">
<use x="391.612306" y="864.679711" fill="#ffffff" stroke="#ffffff" xlink:href="#b"/>
</g>
<g clip-path="url(#a)">
<use x="436.347642" y="864.679711" fill="#ffffff" stroke="#ffffff" xlink:href="#b"/>
</g>
<g clip-path="url(#a)">
<use x="481.082978" y="864.679711" fill="#ffffff" stroke="#ffffff" xlink:href="#b"/>
</g>
<g clip-path="url(#a)">
<use x="525.818314" y="864.679711" fill="#ffffff" stroke="#ffffff" xlink:href="#b"/>
</g>
<g clip-path="url(#a)">
<use x="570.55365" y="864.679711" fill="#ffffff" stroke="#ffffff" xlink:href="#b"/>
</g>
<g clip-path="url(#a)">
<use x="615.288986" y="864.679711" fill="#ffffff" stroke="#ffffff" xlink:href="#b"/>
</g>
<g clip-path="url(#a)">
<use x="660.024322" y="864.679711" fill="#ffffff" stroke="#ffffff" xlink:href="#b"/>
</g>
<g clip-path="url(#a)">
<use x="704.759658" y="864.679711" fill="#ffffff" stroke="#ffffff" xlink:href="#b"/>
</g>
<g clip-path="url(#a)">
<use x="749.494994" y="864.679711" fill="#ffffff" stroke="#ffffff" xlink:href="#b"/>
</g>
<g clip-path="url(#a)">
<use x="794.230329" y="864.679711" fill="#ffffff" stroke="#ffffff" xlink:href="#b"/>
</g>
<g clip-path="url(#a)">
<use x="838.965665" y="864.679711" fill="#ffffff" stroke="#ffffff" xlink:href="#b"/>
</g>
<g clip-path="url(#a)">
<use x="883.701001" y="864.679711" fill="#ffffff" stroke="#ffffff" xlink:href="#b"/>
</g>
<g clip-path="url(#a)">
<use x="928.436337" y="864.679711" fill="#ffffff" stroke="#ffffff" xlink:href="#b"/>
</g>
<g clip-path="url(#a)">
<use x="973.171673" y="864.679711" fill="#ffffff" stroke="#ffffff" xlink:href="#b"/>
</g>
<g clip-path="url(#a)">
<use x="1017.907009" y="864.679711" fill="#ffffff" stroke="#ffffff" xlink:href="#b"/>
</g>
<g clip-path="url(#a)">
<use x="1062.642345" y="864.679711" fill="#ffffff" stroke="#ffffff" xlink:href="#b"/>
</g>
<g clip-path="url(#a)">
<use x="1107.377681" y="864.679711" fill="#ffffff" stroke="#ffffff" xlink:href="#b"/>
</g>
<g clip-path="url(#a)">
<use x="1152.113017" y="864.679711" fill="#ffffff" stroke="#ffffff" xlink:href="#b"/>
</g>
<g clip-path="url(#a)">
<use x="1196.848353" y="864.679711" fill="#ffffff" stroke="#ffffff" xlink:href="#b"/>
</g>
<g clip-path="url(#a)">
<use x="1241.583689" y="864.679711" fill="#ffffff" stroke="#ffffff" xlink:href="#b"/>
</g>
<g clip-path="url(#a)">
<use x="1286.319025" y="864.679711" fill="#ffffff" stroke="#ffffff" xlink:href="#b"/>
</g>
<g clip-path="url(#a)">
<use x="1331.05436" y="864.679711" fill="#ffffff" stroke="#ffffff" xlink:href="#b"/>
</g>
<g clip-path="url(#a)">
<use x="1375.789696" y="864.679711" fill="#ffffff" stroke="#ffffff" xlink:href="#b"/>
</g>
<g clip-path="url(#a)">
<use x="1420.525032" y="864.679711" fill="#ffffff" stroke="#ffffff" xlink:href="#b"/>
</g>
<g clip-path="url(#a)">
<use x="1465.260368" y="864.679711" fill="#ffffff" stroke="#ffffff" xlink:href="#b"/>
</g>
<g clip-path="url(#a)">
<use x="1509.995704" y="864.679711" fill="#ffffff" stroke="#ffffff" xlink:href="#b"/>
</g>
<g clip-path="url(#a)">
<use x="1554.73104" y="864.679711" fill="#ffffff" stroke="#ffffff" xlink:href="#b"/>
</g>
<g clip-path="url(#a)">
<use x="578.191794" y="41.986956" fill="#ffffff" stroke="#ffffff" xlink:href="#b"/>
</g>
<g clip-path="url(#a)">
<use x="578.191794" y="167.477192" fill="#ffffff" stroke="#ffffff" xlink:href="#b"/>
</g>
<g clip-path="url(#a)">
<use x="1644.201712" y="864.679711" fill="#ffffff" stroke="#ffffff" xlink:href="#b"/>
</g>
<g clip-path="url(#a)">
<use x="123.200291" y="639.347342" fill="#ffffff" stroke="#ffffff" xlink:href="#b"/>
</g>
<g clip-path="url(#a)">
<use x="212.670963" y="752.013526" fill="#ffffff" stroke="#ffffff" xlink:href="#b"/>
</g>
<g clip-path="url(#a)">
<use x="257.406298" y="752.013526" fill="#ffffff" stroke="#ffffff" xlink:href="#b"/>
</g>
<g clip-path="url(#a)">
<use x="653.479708" y="289.594596" fill="#ffffff" stroke="#ffffff" xlink:href="#b"/>
</g>
<g clip-path="url(#a)">
<use x="302.141634" y="752.013526" fill="#ffffff" stroke="#ffffff" xlink:href="#b"/>
</g>
<g clip-path="url(#a)">
<use x="346.87697" y="752.013526" fill="#ffffff" stroke="#ffffff" xlink:href="#b"/>
</g>
<g clip-path="url(#a)">
<use x="391.612306" y="752.013526" fill="#ffffff" stroke="#ffffff" xlink:href="#b"/>
</g>
<g clip-path="url(#a)">
<use x="722.653792" y="639.347342" fill="#ffffff" stroke="#ffffff" xlink:href="#b"/>
</g>
<g clip-path="url(#a)">
<use x="570.55365" y="752.013526" fill="#ffffff" stroke="#ffffff" xlink:href="#b"/>
</g>
<g clip-path="url(#a)">
<use x="760.678828" y="408.680699" fill="#ffffff" stroke="#ffffff" xlink:href="#b"/>
</g>
<g clip-path="url(#a)">
<use x="1153.604195" y="408.680699" fill="#ffffff" stroke="#ffffff" xlink:href="#b"/>
</g>
<g clip-path="url(#a)">
<use x="1062.642345" y="752.013526" fill="#ffffff" stroke="#ffffff" xlink:href="#b"/>
</g>
<g clip-path="url(#a)">
<use x="1107.377681" y="752.013526" fill="#ffffff" stroke="#ffffff" xlink:href="#b"/>
</g>
<g clip-path="url(#a)">
<use x="1290.792558" y="525.113847" fill="#ffffff" stroke="#ffffff" xlink:href="#b"/>
</g>
<g clip-path="url(#a)">
<use x="1152.113017" y="752.013526" fill="#ffffff" stroke="#ffffff" xlink:href="#b"/>
</g>
<g clip-path="url(#a)">
<use x="1196.848353" y="752.013526" fill="#ffffff" stroke="#ffffff" xlink:href="#b"/>
</g>
<g clip-path="url(#a)">
<use x="1241.583689" y="752.013526" fill="#ffffff" stroke="#ffffff" xlink:href="#b"/>
</g>
<g clip-path="url(#a)">
<use x="1353.422028" y="639.347342" fill="#ffffff" stroke="#ffffff" xlink:href="#b"/>
</g>
<g clip-path="url(#a)">
<use x="1509.995704" y="639.347342" fill="#ffffff" stroke="#ffffff" xlink:href="#b"/>
</g>
<g clip-path="url(#a)">
<use x="1465.260368" y="752.013526" fill="#ffffff" stroke="#ffffff" xlink:href="#b"/>
</g>
<g clip-path="url(#a)">
<use x="1509.995704" y="752.013526" fill="#ffffff" stroke="#ffffff" xlink:href="#b"/>
</g>
<g clip-path="url(#a)">
<use x="1286.319025" y="752.013526" fill="#ffffff" stroke="#ffffff" xlink:href="#b"/>
</g>
<g clip-path="url(#a)">
<use x="1331.05436" y="752.013526" fill="#ffffff" stroke="#ffffff" xlink:href="#b"/>
</g>
<g clip-path="url(#a)">
<use x="1375.789696" y="752.013526" fill="#ffffff" stroke="#ffffff" xlink:href="#b"/>
</g>
<g clip-path="url(#a)">
<use x="1420.525032" y="752.013526" fill="#ffffff" stroke="#ffffff" xlink:href="#b"/>
</g>
<g clip-path="url(#a)">
<use x="676.800073" y="525.113847" fill="#ffffff" stroke="#ffffff" xlink:href="#b"/>
</g>
<g clip-path="url(#a)">
<use x="838.965665" y="752.013526" fill="#ffffff" stroke="#ffffff" xlink:href="#b"/>
</g>
<g clip-path="url(#a)">
<use x="766.270745" y="525.113847" fill="#ffffff" stroke="#ffffff" xlink:href="#b"/>
</g>
<g clip-path="url(#a)">
<use x="883.701001" y="752.013526" fill="#ffffff" stroke="#ffffff" xlink:href="#b"/>
</g>
<g clip-path="url(#a)">
<use x="950.804005" y="639.347342" fill="#ffffff" stroke="#ffffff" xlink:href="#b"/>
</g>
<g clip-path="url(#a)">
<use x="928.436337" y="752.013526" fill="#ffffff" stroke="#ffffff" xlink:href="#b"/>
</g>
<g clip-path="url(#a)">
<use x="973.171673" y="752.013526" fill="#ffffff" stroke="#ffffff" xlink:href="#b"/>
</g>
<g clip-path="url(#a)">
<use x="660.024322" y="752.013526" fill="#ffffff" stroke="#ffffff" xlink:href="#b"/>
</g>
<g clip-path="url(#a)">
<use x="704.759658" y="752.013526" fill="#ffffff" stroke="#ffffff" xlink:href="#b"/>
</g>
<g clip-path="url(#a)">
<use x="771.862662" y="639.347342" fill="#ffffff" stroke="#ffffff" xlink:href="#b"/>
</g>
<g clip-path="url(#a)">
<use x="749.494994" y="752.013526" fill="#ffffff" stroke="#ffffff" xlink:href="#b"/>
</g>
<g clip-path="url(#a)">
<use x="794.230329" y="752.013526" fill="#ffffff" stroke="#ffffff" xlink:href="#b"/>
</g>
<g clip-path="url(#a)">
<use x="1599.466376" y="864.679711" fill="#ffffff" stroke="#ffffff" xlink:href="#b"/>
</g>
<g clip-path="url(#a)">
<use x="436.347642" y="752.013526" fill="#ffffff" stroke="#ffffff" xlink:href="#b"/>
</g>
<g clip-path="url(#a)">
<use x="525.818314" y="752.013526" fill="#ffffff" stroke="#ffffff" xlink:href="#b"/>
</g>
<g clip-path="url(#a)">
<use x="481.082978" y="752.013526" fill="#ffffff" stroke="#ffffff" xlink:href="#b"/>
</g>
<g clip-path="url(#a)">
<use x="78.464955" y="752.013526" fill="#ffffff" stroke="#ffffff" xlink:href="#b"/>
</g>
<g clip-path="url(#a)">
<use x="123.200291" y="752.013526" fill="#ffffff" stroke="#ffffff" xlink:href="#b"/>
</g>
<g clip-path="url(#a)">
<use x="167.935627" y="752.013526" fill="#ffffff" stroke="#ffffff" xlink:href="#b"/>
</g>
<g clip-path="url(#a)">
<use x="615.288986" y="752.013526" fill="#ffffff" stroke="#ffffff" xlink:href="#b"/>
</g>
<g clip-path="url(#a)">
<use x="1017.907009" y="752.013526" fill="#ffffff" stroke="#ffffff" xlink:href="#b"/>
</g>
<g clip-path="url(#a)">
<use x="1554.73104" y="752.013526" fill="#ffffff" stroke="#ffffff" xlink:href="#b"/>
</g>
<g clip-path="url(#a)">
<defs>
<path id="av" d="m39.406 66.219q-10.75 0-17.078-8.0156-6.3125-8-6.3125-21.828 0-13.766 6.3125-21.781 6.3281-8 17.078-8 10.734 0 17.016 8 6.2812 8.0156 6.2812 21.781 0 13.828-6.2812 21.828-6.2812 8.0156-17.016 8.0156zm0 8q15.328 0 24.5-10.281 9.1875-10.281 9.1875-27.562 0-17.234-9.1875-27.516-9.1719-10.281-24.5-10.281-15.375 0-24.594 10.25-9.2031 10.266-9.2031 27.547t9.2031 27.562q9.2188 10.281 24.594 10.281z"/>
</defs>
<g transform="translate(71.36 867.44) scale(.1 -.1)">
<use xlink:href="#av"/>
<use x="78.710938" xlink:href="#g"/>
</g>
</g>
<g clip-path="url(#a)">
<defs>
<path id="t" d="m18.312 70.219v-15.531h18.5v-6.9844h-18.5v-29.688q0-6.6875 1.8281-8.5938t7.4531-1.9062h9.2188v-7.5156h-9.2188q-10.406 0-14.359 3.875-3.9531 3.8906-3.9531 14.141v29.688h-6.5938v6.9844h6.5938v15.531z"/>
<path id="v" d="m54.891 33.016v-33.016h-8.9844v32.719q0 7.7656-3.0312 11.609-3.0312 3.8594-9.0781 3.8594-7.2812 0-11.484-4.6406-4.2031-4.625-4.2031-12.641v-30.906h-9.0312v75.984h9.0312v-29.797q3.2344 4.9375 7.5938 7.375 4.375 2.4375 10.094 2.4375 9.4219 0 14.25-5.8281 4.8438-5.8281 4.8438-17.156z"/>
</defs>
<g transform="translate(114.99 867.44) scale(.1 -.1)">
<use xlink:href="#t"/>
<use x="39.208984" xlink:href="#v"/>
<use x="102.587891" xlink:href="#d"/>
</g>
</g>
<g clip-path="url(#a)">
<defs>
<path id="af" d="m37.109 75.984v-7.4844h-8.5938q-4.8281 0-6.7188-1.9531-1.875-1.9531-1.875-7.0312v-4.8281h14.797v-6.9844h-14.797v-47.703h-9.0312v47.703h-8.5938v6.9844h8.5938v3.8125q0 9.125 4.25 13.297 4.25 4.1875 13.469 4.1875z"/>
<path id="o" d="m30.609 48.391q-7.2188 0-11.422-5.6406t-4.2031-15.453 4.1719-15.453q4.1875-5.6406 11.453-5.6406 7.1875 0 11.375 5.6562 4.2031 5.6719 4.2031 15.438 0 9.7188-4.2031 15.406-4.1875 5.6875-11.375 5.6875zm0 7.6094q11.719 0 18.406-7.625 6.7031-7.6094 6.7031-21.078 0-13.422-6.7031-21.078-6.6875-7.6406-18.406-7.6406-11.766 0-18.438 7.6406-6.6562 7.6562-6.6562 21.078 0 13.469 6.6562 21.078 6.6719 7.625 18.438 7.625z"/>
<path id="ak" d="m48.781 52.594v-8.4062q-3.8125 2.1094-7.6406 3.1562t-7.7344 1.0469q-8.75 0-13.594-5.5469-4.8281-5.5312-4.8281-15.547t4.8281-15.562q4.8438-5.5312 13.594-5.5312 3.9062 0 7.7344 1.0469t7.6406 3.1562v-8.3125q-3.7656-1.75-7.7969-2.625-4.0156-0.89062-8.5625-0.89062-12.359 0-19.641 7.7656-7.2656 7.7656-7.2656 20.953 0 13.375 7.3438 21.031 7.3594 7.6719 20.156 7.6719 4.1406 0 8.0938-0.85938 3.9531-0.84375 7.6719-2.5469z"/>
<path id="aj" d="m44.281 53.078v-8.5q-3.7969 1.9531-7.9062 2.9219-4.0938 0.98438-8.5 0.98438-6.6875 0-10.031-2.0469t-3.3438-6.1562q0-3.125 2.3906-4.9062t9.625-3.3906l3.0781-0.6875q9.5625-2.0469 13.594-5.7812t4.0312-10.422q0-7.625-6.0312-12.078-6.0312-4.4375-16.578-4.4375-4.3906 0-9.1562 0.85938t-10.031 2.5625v9.2812q4.9844-2.5938 9.8125-3.8906 4.8281-1.2812 9.5781-1.2812 6.3438 0 9.75 2.1719 3.4219 2.1719 3.4219 6.125 0 3.6562-2.4688 5.6094-2.4531 1.9531-10.812 3.7656l-3.125 0.73438q-8.3438 1.75-12.062 5.3906-3.7031 3.6406-3.7031 9.9844 0 7.7188 5.4688 11.906 5.4688 4.2031 15.531 4.2031 4.9688 0 9.3594-0.73438 4.4062-0.71875 8.1094-2.1875z"/>
</defs>
<g transform="translate(143.14 867.44) scale(.1 -.1)">
<use xlink:href="#af"/>
<use x="35.205078" xlink:href="#o"/>
<use x="96.386719" xlink:href="#h"/>
<use x="137.46875" xlink:href="#d"/>
<use x="198.992188" xlink:href="#ak"/>
<use x="253.972656" xlink:href="#f"/>
<use x="315.251953" xlink:href="#aj"/>
<use x="367.351562" xlink:href="#t"/>
<use x="406.560547" xlink:href="#i"/>
<use x="434.34375" xlink:href="#d"/>
</g>
</g>
<g clip-path="url(#a)">
<defs>
<path id="ai" d="m4.2031 54.688h8.9844l11.234-42.672 11.172 42.672h10.594l11.234-42.672 11.188 42.672h8.9844l-14.312-54.688h-10.594l-11.766 44.828-11.812-44.828h-10.609z"/>
</defs>
<g transform="translate(202.91 867.44) scale(.1 -.1)">
<use xlink:href="#ai"/>
<use x="81.787109" xlink:href="#f"/>
<use x="143.066406" xlink:href="#aj"/>
</g>
</g>
<g clip-path="url(#a)">
<defs>
<path id="an" d="m8.5 21.578v33.109h8.9844v-32.766q0-7.7656 3.0156-11.656 3.0312-3.875 9.0938-3.875 7.2656 0 11.484 4.6406 4.2344 4.6406 4.2344 12.656v31h8.9844v-54.688h-8.9844v8.4062q-3.2656-4.9844-7.5938-7.4062-4.3125-2.4219-10.031-2.4219-9.4219 0-14.312 5.8594-4.875 5.8594-4.875 17.141z"/>
<path id="ag" d="m45.406 46.391v29.594h8.9844v-75.984h-8.9844v8.2031q-2.8281-4.875-7.1562-7.25-4.3125-2.375-10.375-2.375-9.9062 0-16.141 7.9062-6.2188 7.9219-6.2188 20.812t6.2188 20.797q6.2344 7.9062 16.141 7.9062 6.0625 0 10.375-2.375 4.3281-2.3594 7.1562-7.2344zm-30.609-19.094q0-9.9062 4.0781-15.547t11.203-5.6406 11.219 5.6406q4.1094 5.6406 4.1094 15.547t-4.1094 15.547q-4.0938 5.6406-11.219 5.6406t-11.203-5.6406-4.0781-15.547z"/>
</defs>
<g transform="translate(234.93 867.44) scale(.1 -.1)">
<use xlink:href="#l"/>
<use x="97.412109" xlink:href="#o"/>
<use x="158.59375" xlink:href="#an"/>
<use x="221.972656" xlink:href="#g"/>
<use x="285.351562" xlink:href="#t"/>
<use x="324.560547" xlink:href="#d"/>
<use x="386.083984" xlink:href="#ag"/>
</g>
</g>
<g clip-path="url(#a)">
<g transform="translate(293.94 867.44) scale(.1 -.1)">
<use xlink:href="#t"/>
<use x="39.208984" xlink:href="#v"/>
<use x="102.587891" xlink:href="#d"/>
</g>
</g>
<g clip-path="url(#a)">
<g transform="translate(332.82 867.44) scale(.1 -.1)">
<use xlink:href="#i"/>
<use x="27.783203" xlink:href="#f"/>
<use x="89.0625" xlink:href="#t"/>
<use x="128.271484" xlink:href="#d"/>
<use x="189.794922" xlink:href="#aj"/>
<use x="241.894531" xlink:href="#t"/>
</g>
</g>
<g clip-path="url(#a)">
<g transform="translate(376.04 867.44) scale(.1 -.1)">
<use xlink:href="#l"/>
<use x="97.412109" xlink:href="#o"/>
<use x="158.59375" xlink:href="#ag"/>
<use x="222.070312" xlink:href="#d"/>
<use x="283.59375" xlink:href="#i"/>
</g>
</g>
<g clip-path="url(#a)">
<defs>
<path id="ah" d="m48.688 27.297q0 9.9062-4.0781 15.547t-11.203 5.6406q-7.1406 0-11.219-5.6406t-4.0781-15.547 4.0781-15.547 11.219-5.6406q7.125 0 11.203 5.6406t4.0781 15.547zm-30.578 19.094q2.8438 4.875 7.1562 7.2344 4.3281 2.375 10.328 2.375 9.9688 0 16.188-7.9062 6.2344-7.9062 6.2344-20.797t-6.2344-20.812q-6.2188-7.9062-16.188-7.9062-6 0-10.328 2.375-4.3125 2.375-7.1562 7.25v-8.2031h-9.0312v75.984h9.0312z"/>
</defs>
<g transform="translate(419.05 867.44) scale(.1 -.1)">
<use xlink:href="#ah"/>
<use x="63.476562" xlink:href="#h"/>
<use x="104.558594" xlink:href="#d"/>
<use x="166.082031" xlink:href="#d"/>
<use x="227.605469" xlink:href="#ak"/>
<use x="282.585938" xlink:href="#v"/>
</g>
</g>
<g clip-path="url(#a)">
<defs>
<path id="ay" d="m4.8906 31.391h26.312v-8h-26.312z"/>
</defs>
<g transform="translate(479.28 867.44) scale(.1 -.1)">
<use xlink:href="#ay"/>
</g>
</g>
<g clip-path="url(#a)">
<defs>
<path id="au" d="m45.406 27.984q0 9.7656-4.0312 15.125-4.0156 5.375-11.297 5.375-7.2188 0-11.25-5.375-4.0312-5.3594-4.0312-15.125 0-9.7188 4.0312-15.094t11.25-5.375q7.2812 0 11.297 5.375 4.0312 5.375 4.0312 15.094zm8.9844-21.203q0-13.953-6.2031-20.766-6.1875-6.8125-18.984-6.8125-4.7344 0-8.9375 0.70312t-8.1562 2.1719v8.7344q3.9531-2.1406 7.8125-3.1562 3.8594-1.0312 7.8594-1.0312 8.8438 0 13.234 4.6094t4.3906 13.938v4.4531q-2.7812-4.8438-7.125-7.2344t-10.406-2.3906q-10.047 0-16.203 7.6562-6.1562 7.6719-6.1562 20.328 0 12.688 6.1562 20.344 6.1562 7.6719 16.203 7.6719 6.0625 0 10.406-2.3906t7.125-7.2188v8.2969h8.9844z"/>
</defs>
<g transform="translate(507.4 867.44) scale(.1 -.1)">
<use xlink:href="#i"/>
<use x="27.783203" xlink:href="#o"/>
<use x="88.964844" xlink:href="#f"/>
<use x="150.244141" xlink:href="#ag"/>
<use x="213.720703" xlink:href="#j"/>
<use x="241.503906" xlink:href="#g"/>
<use x="304.882812" xlink:href="#au"/>
</g>
</g>
<g clip-path="url(#a)">
<g transform="translate(552.17 867.44) scale(.1 -.1)">
<use xlink:href="#ak"/>
<use x="54.980469" xlink:href="#f"/>
<use x="116.259766" xlink:href="#g"/>
<use x="179.638672" xlink:href="#g"/>
<use x="243.017578" xlink:href="#o"/>
<use x="304.199219" xlink:href="#g"/>
</g>
</g>
<g clip-path="url(#a)">
<defs>
<path id="as" d="m11.719 12.406h10.297v-8.4062l-8-15.625h-6.2969l4 15.625z"/>
</defs>
<g transform="translate(613.7 867.44) scale(.1 -.1)">
<use xlink:href="#as"/>
</g>
</g>
<g clip-path="url(#a)">
<defs>
<path id="am" d="m2.9844 54.688h9.5156l17.094-45.891 17.094 45.891h9.5156l-20.516-54.688h-12.203z"/>
<path id="at" d="m32.172-5.0781q-3.7969-9.7656-7.4219-12.734-3.6094-2.9844-9.6562-2.9844h-7.1875v7.5156h5.2812q3.7031 0 5.75 1.7656 2.0625 1.75 4.5469 8.2969l1.6094 4.0938-22.109 53.812h9.5156l17.094-42.766 17.094 42.766h9.5156z"/>
</defs>
<g transform="translate(648.97 867.44) scale(.1 -.1)">
<use xlink:href="#am"/>
<use x="59.179688" xlink:href="#d"/>
<use x="120.703125" xlink:href="#h"/>
<use x="161.816406" xlink:href="#at"/>
</g>
</g>
<g clip-path="url(#a)">
<g transform="translate(689.53 867.44) scale(.1 -.1)">
<use xlink:href="#v"/>
<use x="63.378906" xlink:href="#d"/>
<use x="124.902344" xlink:href="#f"/>
<use x="186.181641" xlink:href="#am"/>
<use x="245.361328" xlink:href="#at"/>
</g>
</g>
<g clip-path="url(#a)">
<g transform="translate(744.68 867.44) scale(.1 -.1)">
<use xlink:href="#o"/>
<use x="61.181641" xlink:href="#af"/>
</g>
</g>
<g clip-path="url(#a)">
<g transform="translate(779.42 867.44) scale(.1 -.1)">
<use xlink:href="#ah"/>
<use x="63.476562" xlink:href="#f"/>
<use x="124.755859" xlink:href="#h"/>
<use x="165.853516" xlink:href="#h"/>
<use x="206.935547" xlink:href="#d"/>
<use x="268.458984" xlink:href="#i"/>
</g>
</g>
<g clip-path="url(#a)">
<g transform="translate(829.56 867.44) scale(.1 -.1)">
<use xlink:href="#f"/>
<use x="61.279297" xlink:href="#g"/>
<use x="124.658203" xlink:href="#ag"/>
</g>
</g>
<g clip-path="url(#a)">
<g transform="translate(866.21 867.44) scale(.1 -.1)">
<use xlink:href="#g"/>
<use x="63.378906" xlink:href="#f"/>
<use x="124.658203" xlink:href="#h"/>
<use x="165.755859" xlink:href="#h"/>
<use x="206.837891" xlink:href="#o"/>
<use x="268.019531" xlink:href="#ai"/>
</g>
</g>
<g clip-path="url(#a)">
<g transform="translate(923.62 867.44) scale(.1 -.1)">
<use xlink:href="#o"/>
<use x="61.181641" xlink:href="#af"/>
</g>
</g>
<g clip-path="url(#a)">
<g transform="translate(961.81 867.44) scale(.1 -.1)">
<use xlink:href="#ah"/>
<use x="63.476562" xlink:href="#o"/>
<use x="124.658203" xlink:href="#h"/>
<use x="165.740234" xlink:href="#d"/>
</g>
</g>
<g clip-path="url(#a)">
<g transform="translate(1016.3 867.44) scale(.1 -.1)">
<use xlink:href="#as"/>
</g>
</g>
<g clip-path="url(#a)">
<g transform="translate(1059.6 867.44) scale(.1 -.1)">
<use xlink:href="#f"/>
</g>
</g>
<g clip-path="url(#a)">
<defs>
<path id="ba" d="m18.109 8.2031v-29h-9.0312v75.484h9.0312v-8.2969q2.8438 4.875 7.1562 7.2344 4.3281 2.375 10.328 2.375 9.9688 0 16.188-7.9062 6.2344-7.9062 6.2344-20.797t-6.2344-20.812q-6.2188-7.9062-16.188-7.9062-6 0-10.328 2.375-4.3125 2.375-7.1562 7.25zm30.578 19.094q0 9.9062-4.0781 15.547t-11.203 5.6406q-7.1406 0-11.219-5.6406t-4.0781-15.547 4.0781-15.547 11.219-5.6406q7.125 0 11.203 5.6406t4.0781 15.547z"/>
</defs>
<g transform="translate(1087.7 867.44) scale(.1 -.1)">
<use xlink:href="#ai"/>
<use x="81.787109" xlink:href="#d"/>
<use x="143.310547" xlink:href="#f"/>
<use x="204.589844" xlink:href="#ba"/>
<use x="268.066406" xlink:href="#o"/>
<use x="329.248047" xlink:href="#g"/>
</g>
</g>
<g clip-path="url(#a)">
<g transform="translate(1142 867.44) scale(.1 -.1)">
<use xlink:href="#t"/>
<use x="39.208984" xlink:href="#v"/>
<use x="102.587891" xlink:href="#f"/>
<use x="163.867188" xlink:href="#t"/>
</g>
</g>
<g clip-path="url(#a)">
<g transform="translate(1182 867.44) scale(.1 -.1)">
<use xlink:href="#ai"/>
<use x="81.787109" xlink:href="#o"/>
<use x="142.96875" xlink:href="#an"/>
<use x="206.347656" xlink:href="#i"/>
<use x="234.130859" xlink:href="#ag"/>
</g>
</g>
<g clip-path="url(#a)">
<g transform="translate(1227 867.44) scale(.1 -.1)">
<use xlink:href="#af"/>
<use x="35.205078" xlink:href="#j"/>
<use x="62.988281" xlink:href="#au"/>
<use x="126.464844" xlink:href="#an"/>
<use x="189.84375" xlink:href="#h"/>
<use x="230.925781" xlink:href="#d"/>
</g>
</g>
<g clip-path="url(#a)">
<g transform="translate(1281.8 867.44) scale(.1 -.1)">
<use xlink:href="#j"/>
<use x="27.783203" xlink:href="#g"/>
</g>
</g>
<g clip-path="url(#a)">
<g transform="translate(1322.8 867.44) scale(.1 -.1)">
<use xlink:href="#t"/>
<use x="39.208984" xlink:href="#v"/>
<use x="102.587891" xlink:href="#d"/>
</g>
</g>
<g clip-path="url(#a)">
<g transform="translate(1352.4 867.44) scale(.1 -.1)">
<use xlink:href="#z"/>
<use x="73.193359" xlink:href="#g"/>
<use x="136.572266" xlink:href="#j"/>
<use x="164.355469" xlink:href="#am"/>
<use x="223.535156" xlink:href="#d"/>
<use x="285.058594" xlink:href="#h"/>
<use x="326.171875" xlink:href="#aj"/>
<use x="378.271484" xlink:href="#f"/>
<use x="439.550781" xlink:href="#i"/>
</g>
</g>
<g clip-path="url(#a)">
<defs>
<path id="az" d="m54.891 54.688-19.781-26.609 20.797-28.078h-10.594l-15.922 21.484-15.906-21.484h-10.609l21.25 28.609-19.438 26.078h10.594l14.5-19.484 14.5 19.484z"/>
</defs>
<g transform="translate(1395.7 867.44) scale(.1 -.1)">
<use xlink:href="#p"/>
<use x="63.183594" xlink:href="#az"/>
<use x="122.363281" xlink:href="#v"/>
<use x="185.742188" xlink:href="#j"/>
<use x="213.525391" xlink:href="#ah"/>
<use x="277.001953" xlink:href="#j"/>
<use x="304.785156" xlink:href="#t"/>
<use x="343.994141" xlink:href="#j"/>
<use x="371.777344" xlink:href="#o"/>
<use x="432.958984" xlink:href="#g"/>
</g>
</g>
<g clip-path="url(#a)">
<g transform="translate(1460.4 867.44) scale(.1 -.1)">
<use xlink:href="#o"/>
<use x="61.181641" xlink:href="#af"/>
</g>
</g>
<g clip-path="url(#a)">
<defs>
<path id="c" d="m12.406 8.2969h16.109v55.625l-17.531-3.5156v8.9844l17.438 3.5156h9.8594v-64.609h16.109v-8.2969h-41.984z"/>
<path id="y" d="m31.781 34.625q-7.0312 0-11.062-3.7656-4.0156-3.7656-4.0156-10.344 0-6.5938 4.0156-10.359 4.0312-3.7656 11.062-3.7656t11.078 3.7812q4.0625 3.7969 4.0625 10.344 0 6.5781-4.0312 10.344-4.0156 3.7656-11.109 3.7656zm-9.8594 4.1875q-6.3438 1.5625-9.8906 5.9062-3.5312 4.3594-3.5312 10.609 0 8.7344 6.2188 13.812 6.2344 5.0781 17.062 5.0781 10.891 0 17.094-5.0781t6.2031-13.812q0-6.25-3.5469-10.609-3.5312-4.3438-9.8281-5.9062 7.125-1.6562 11.094-6.5 3.9844-4.8281 3.9844-11.797 0-10.609-6.4688-16.281-6.4688-5.6562-18.531-5.6562-12.047 0-18.531 5.6562-6.4688 5.6719-6.4688 16.281 0 6.9688 4 11.797 4.0156 4.8438 11.141 6.5zm-3.6094 15.578q0-5.6562 3.5312-8.8281 3.5469-3.1719 9.9375-3.1719 6.3594 0 9.9375 3.1719 3.5938 3.1719 3.5938 8.8281 0 5.6719-3.5938 8.8438-3.5781 3.1719-9.9375 3.1719-6.3906 0-9.9375-3.1719-3.5312-3.1719-3.5312-8.8438z"/>
<path id="ad" d="m33.016 40.375q-6.6406 0-10.531-4.5469-3.875-4.5312-3.875-12.438 0-7.8594 3.875-12.438 3.8906-4.5625 10.531-4.5625t10.516 4.5625q3.875 4.5781 3.875 12.438 0 7.9062-3.875 12.438-3.875 4.5469-10.516 4.5469zm19.578 30.922v-8.9844q-3.7188 1.75-7.5 2.6719-3.7812 0.9375-7.5 0.9375-9.7656 0-14.922-6.5938-5.1406-6.5938-5.875-19.922 2.875 4.25 7.2188 6.5156 4.3594 2.2656 9.5781 2.2656 10.984 0 17.359-6.6719 6.375-6.6562 6.375-18.125 0-11.234-6.6406-18.031-6.6406-6.7812-17.672-6.7812-12.656 0-19.344 9.6875-6.6875 9.7031-6.6875 28.109 0 17.281 8.2031 27.562t22.016 10.281q3.7188 0 7.5-0.73438t7.8906-2.1875z"/>
<path id="ac" d="m8.2031 72.906h46.875v-4.2031l-26.469-68.703h-10.297l24.906 64.594h-35.016z"/>
</defs>
<g transform="translate(1497.3 867.44) scale(.1 -.1)">
<use xlink:href="#c"/>
<use x="63.623047" xlink:href="#y"/>
<use x="127.246094" xlink:href="#ad"/>
<use x="190.869141" xlink:href="#ac"/>
</g>
</g>
<g clip-path="url(#a)">
<defs>
<path id="e" d="m10.688 12.406h10.312v-12.406h-10.312z"/>
</defs>
<g transform="translate(1553.1 867.44) scale(.1 -.1)">
<use xlink:href="#e"/>
</g>
</g>
<g clip-path="url(#a)">
<g transform="translate(570.24 44.746) scale(.1 -.1)">
<use xlink:href="#c"/>
<use x="63.623047" xlink:href="#e"/>
<use x="95.410156" xlink:href="#c"/>
</g>
</g>
<g clip-path="url(#a)">
<defs>
<path id="m" d="m19.188 8.2969h34.422v-8.2969h-46.281v8.2969q5.6094 5.8125 15.297 15.594 9.7031 9.7969 12.188 12.641 4.7344 5.3125 6.6094 9 1.8906 3.6875 1.8906 7.25 0 5.8125-4.0781 9.4688-4.0781 3.6719-10.625 3.6719-4.6406 0-9.7969-1.6094-5.1406-1.6094-11-4.8906v9.9688q5.9531 2.3906 11.125 3.6094 5.1875 1.2188 9.4844 1.2188 11.328 0 18.062-5.6719 6.7344-5.6562 6.7344-15.125 0-4.5-1.6875-8.5312-1.6719-4.0156-6.125-9.4844-1.2188-1.4219-7.7656-8.1875-6.5312-6.7656-18.453-18.922z"/>
</defs>
<g transform="translate(570.24 170.24) scale(.1 -.1)">
<use xlink:href="#c"/>
<use x="63.623047" xlink:href="#e"/>
<use x="95.410156" xlink:href="#m"/>
</g>
</g>
<g clip-path="url(#a)">
<defs>
<path id="x" d="m9.8125 72.906h9.8594v-72.906h-9.8594z"/>
<path id="ap" d="m9.8125 72.906h14.703l18.594-49.609 18.703 49.609h14.703v-72.906h-9.625v64.016l-18.797-50h-9.9062l-18.797 50v-64.016h-9.5781z"/>
<path id="aq" d="m9.8125 72.906h9.8594v-64.609h35.5v-8.2969h-45.359z"/>
</defs>
<g transform="translate(1623.1 867.44) scale(.1 -.1)">
<use xlink:href="#x"/>
<use x="29.492188" xlink:href="#ap"/>
<use x="115.771484" xlink:href="#aa"/>
<use x="176.074219" xlink:href="#aq"/>
<use x="231.787109" xlink:href="#x"/>
<use x="261.279297" xlink:href="#r"/>
<use x="331.103516" xlink:href="#x"/>
<use x="360.595703" xlink:href="#k"/>
</g>
</g>
<g clip-path="url(#a)">
<defs>
<path id="u" d="m10.797 72.906h38.719v-8.3125h-29.688v-17.859q2.1406 0.73438 4.2812 1.0938 2.1562 0.35938 4.3125 0.35938 12.203 0 19.328-6.6875 7.1406-6.6875 7.1406-18.109 0-11.766-7.3281-18.297-7.3281-6.5156-20.656-6.5156-4.5938 0-9.3594 0.78125-4.75 0.78125-9.8281 2.3438v9.9219q4.3906-2.3906 9.0781-3.5625t9.9062-1.1719q8.4531 0 13.375 4.4375 4.9375 4.4375 4.9375 12.062 0 7.6094-4.9375 12.047-4.9219 4.4531-13.375 4.4531-3.9531 0-7.8906-0.875-3.9219-0.875-8.0156-2.7344z"/>
</defs>
<g transform="translate(115.25 642.11) scale(.1 -.1)">
<use xlink:href="#c"/>
<use x="63.623047" xlink:href="#e"/>
<use x="95.410156" xlink:href="#u"/>
</g>
</g>
<g clip-path="url(#a)">
<g transform="translate(204.72 754.77) scale(.1 -.1)">
<use xlink:href="#c"/>
<use x="63.623047" xlink:href="#e"/>
<use x="95.410156" xlink:href="#ad"/>
</g>
</g>
<g clip-path="url(#a)">
<g transform="translate(249.45 754.77) scale(.1 -.1)">
<use xlink:href="#c"/>
<use x="63.623047" xlink:href="#e"/>
<use x="95.410156" xlink:href="#ac"/>
</g>
</g>
<g clip-path="url(#a)">
<g transform="translate(645.53 292.35) scale(.1 -.1)">
<use xlink:href="#c"/>
<use x="63.623047" xlink:href="#e"/>
<use x="95.410156" xlink:href="#y"/>
</g>
</g>
<g clip-path="url(#a)">
<defs>
<path id="ab" d="m10.984 1.5156v8.9844q3.7188-1.7656 7.5156-2.6875 3.8125-0.92188 7.4844-0.92188 9.7656 0 14.906 6.5625 5.1562 6.5625 5.8906 19.953-2.8281-4.2031-7.1875-6.4531-4.3438-2.25-9.6094-2.25-10.938 0-17.312 6.6094-6.375 6.625-6.375 18.109 0 11.219 6.6406 18 6.6406 6.7969 17.672 6.7969 12.656 0 19.312-9.7031 6.6719-9.6875 6.6719-28.141 0-17.234-8.1875-27.516-8.1719-10.281-21.984-10.281-3.7188 0-7.5312 0.73438-3.7969 0.73438-7.9062 2.2031zm19.625 30.906q6.6406 0 10.516 4.5312 3.8906 4.5469 3.8906 12.469 0 7.8594-3.8906 12.422-3.875 4.5625-10.516 4.5625t-10.516-4.5625-3.875-12.422q0-7.9219 3.875-12.469 3.875-4.5312 10.516-4.5312z"/>
</defs>
<g transform="translate(294.19 754.77) scale(.1 -.1)">
<use xlink:href="#c"/>
<use x="63.623047" xlink:href="#e"/>
<use x="95.410156" xlink:href="#ab"/>
</g>
</g>
<g clip-path="url(#a)">
<defs>
<path id="ae" d="m31.781 66.406q-7.6094 0-11.453-7.5-3.8281-7.4844-3.8281-22.531 0-14.984 3.8281-22.484 3.8438-7.5 11.453-7.5 7.6719 0 11.5 7.5 3.8438 7.5 3.8438 22.484 0 15.047-3.8438 22.531-3.8281 7.5-11.5 7.5zm0 7.8125q12.266 0 18.734-9.7031 6.4688-9.6875 6.4688-28.141 0-18.406-6.4688-28.109-6.4688-9.6875-18.734-9.6875-12.25 0-18.719 9.6875-6.4688 9.7031-6.4688 28.109 0 18.453 6.4688 28.141 6.4688 9.7031 18.719 9.7031z"/>
</defs>
<g transform="translate(335.74 754.77) scale(.1 -.1)">
<use xlink:href="#c"/>
<use x="63.623047" xlink:href="#e"/>
<use x="95.410156" xlink:href="#c"/>
<use x="159.033203" xlink:href="#ae"/>
</g>
</g>
<g clip-path="url(#a)">
<g transform="translate(380.48 754.77) scale(.1 -.1)">
<use xlink:href="#c"/>
<use x="63.623047" xlink:href="#e"/>
<use x="95.410156" xlink:href="#c"/>
<use x="159.033203" xlink:href="#c"/>
</g>
</g>
<g clip-path="url(#a)">
<g transform="translate(711.52 642.11) scale(.1 -.1)">
<use xlink:href="#c"/>
<use x="63.623047" xlink:href="#e"/>
<use x="95.410156" xlink:href="#c"/>
<use x="159.033203" xlink:href="#m"/>
</g>
</g>
<g clip-path="url(#a)">
<defs>
<path id="n" d="m40.578 39.312q7.0781-1.5156 11.047-6.3125 3.9844-4.7812 3.9844-11.812 0-10.781-7.4219-16.703-7.4219-5.9062-21.094-5.9062-4.5781 0-9.4375 0.90625t-10.031 2.7188v9.5156q4.0938-2.3906 8.9688-3.6094 4.8906-1.2188 10.219-1.2188 9.2656 0 14.125 3.6562t4.8594 10.641q0 6.4531-4.5156 10.078-4.5156 3.6406-12.562 3.6406h-8.5v8.1094h8.8906q7.2656 0 11.125 2.9062t3.8594 8.375q0 5.6094-3.9844 8.6094-3.9688 3.0156-11.391 3.0156-4.0625 0-8.7031-0.89062-4.6406-0.875-10.203-2.7188v8.7812q5.625 1.5625 10.531 2.3438t9.25 0.78125q11.234 0 17.766-5.1094 6.5469-5.0938 6.5469-13.781 0-6.0625-3.4688-10.234t-9.8594-5.7812z"/>
</defs>
<g transform="translate(559.42 754.77) scale(.1 -.1)">
<use xlink:href="#c"/>
<use x="63.623047" xlink:href="#e"/>
<use x="95.410156" xlink:href="#c"/>
<use x="159.033203" xlink:href="#n"/>
</g>
</g>
<g clip-path="url(#a)">
<defs>
<path id="q" d="m37.797 64.312-24.906-38.922h24.906zm-2.5938 8.5938h12.406v-47.516h10.406v-8.2031h-10.406v-17.188h-9.8125v17.188h-32.906v9.5156z"/>
</defs>
<g transform="translate(749.55 411.44) scale(.1 -.1)">
<use xlink:href="#c"/>
<use x="63.623047" xlink:href="#e"/>
<use x="95.410156" xlink:href="#c"/>
<use x="159.033203" xlink:href="#q"/>
</g>
</g>
<g clip-path="url(#a)">
<g transform="translate(1142.5 411.44) scale(.1 -.1)">
<use xlink:href="#c"/>
<use x="63.623047" xlink:href="#e"/>
<use x="95.410156" xlink:href="#c"/>
<use x="159.033203" xlink:href="#u"/>
</g>
</g>
<g clip-path="url(#a)">
<g transform="translate(1051.5 754.77) scale(.1 -.1)">
<use xlink:href="#c"/>
<use x="63.623047" xlink:href="#e"/>
<use x="95.410156" xlink:href="#c"/>
<use x="159.033203" xlink:href="#y"/>
</g>
</g>
<g clip-path="url(#a)">
<g transform="translate(1096.2 754.77) scale(.1 -.1)">
<use xlink:href="#c"/>
<use x="63.623047" xlink:href="#e"/>
<use x="95.410156" xlink:href="#c"/>
<use x="159.033203" xlink:href="#ab"/>
</g>
</g>
<g clip-path="url(#a)">
<g transform="translate(1279.7 527.87) scale(.1 -.1)">
<use xlink:href="#c"/>
<use x="63.623047" xlink:href="#e"/>
<use x="95.410156" xlink:href="#m"/>
<use x="159.033203" xlink:href="#ae"/>
</g>
</g>
<g clip-path="url(#a)">
<g transform="translate(1141 754.77) scale(.1 -.1)">
<use xlink:href="#c"/>
<use x="63.623047" xlink:href="#e"/>
<use x="95.410156" xlink:href="#m"/>
<use x="159.033203" xlink:href="#c"/>
</g>
</g>
<g clip-path="url(#a)">
<g transform="translate(1185.7 754.77) scale(.1 -.1)">
<use xlink:href="#c"/>
<use x="63.623047" xlink:href="#e"/>
<use x="95.410156" xlink:href="#m"/>
<use x="159.033203" xlink:href="#m"/>
</g>
</g>
<g clip-path="url(#a)">
<g transform="translate(1230.5 754.77) scale(.1 -.1)">
<use xlink:href="#c"/>
<use x="63.623047" xlink:href="#e"/>
<use x="95.410156" xlink:href="#m"/>
<use x="159.033203" xlink:href="#n"/>
</g>
</g>
<g clip-path="url(#a)">
<g transform="translate(1342.3 642.11) scale(.1 -.1)">
<use xlink:href="#c"/>
<use x="63.623047" xlink:href="#e"/>
<use x="95.410156" xlink:href="#m"/>
<use x="159.033203" xlink:href="#q"/>
</g>
</g>
<g clip-path="url(#a)">
<g transform="translate(1498.9 642.11) scale(.1 -.1)">
<use xlink:href="#c"/>
<use x="63.623047" xlink:href="#e"/>
<use x="95.410156" xlink:href="#m"/>
<use x="159.033203" xlink:href="#u"/>
</g>
</g>
<g clip-path="url(#a)">
<g transform="translate(1454.1 754.77) scale(.1 -.1)">
<use xlink:href="#c"/>
<use x="63.623047" xlink:href="#e"/>
<use x="95.410156" xlink:href="#m"/>
<use x="159.033203" xlink:href="#ad"/>
</g>
</g>
<g clip-path="url(#a)">
<g transform="translate(1498.9 754.77) scale(.1 -.1)">
<use xlink:href="#c"/>
<use x="63.623047" xlink:href="#e"/>
<use x="95.410156" xlink:href="#m"/>
<use x="159.033203" xlink:href="#ac"/>
</g>
</g>
<g clip-path="url(#a)">
<g transform="translate(1275.2 754.77) scale(.1 -.1)">
<use xlink:href="#c"/>
<use x="63.623047" xlink:href="#e"/>
<use x="95.410156" xlink:href="#m"/>
<use x="159.033203" xlink:href="#y"/>
</g>
</g>
<g clip-path="url(#a)">
<g transform="translate(1319.9 754.77) scale(.1 -.1)">
<use xlink:href="#c"/>
<use x="63.623047" xlink:href="#e"/>
<use x="95.410156" xlink:href="#m"/>
<use x="159.033203" xlink:href="#ab"/>
</g>
</g>
<g clip-path="url(#a)">
<g transform="translate(1364.7 754.77) scale(.1 -.1)">
<use xlink:href="#c"/>
<use x="63.623047" xlink:href="#e"/>
<use x="95.410156" xlink:href="#n"/>
<use x="159.033203" xlink:href="#ae"/>
</g>
</g>
<g clip-path="url(#a)">
<g transform="translate(1409.4 754.77) scale(.1 -.1)">
<use xlink:href="#c"/>
<use x="63.623047" xlink:href="#e"/>
<use x="95.410156" xlink:href="#n"/>
<use x="159.033203" xlink:href="#c"/>
</g>
</g>
<g clip-path="url(#a)">
<g transform="translate(665.67 527.87) scale(.1 -.1)">
<use xlink:href="#c"/>
<use x="63.623047" xlink:href="#e"/>
<use x="95.410156" xlink:href="#n"/>
<use x="159.033203" xlink:href="#m"/>
</g>
</g>
<g clip-path="url(#a)">
<g transform="translate(827.83 754.77) scale(.1 -.1)">
<use xlink:href="#c"/>
<use x="63.623047" xlink:href="#e"/>
<use x="95.410156" xlink:href="#n"/>
<use x="159.033203" xlink:href="#n"/>
</g>
</g>
<g clip-path="url(#a)">
<g transform="translate(755.14 527.87) scale(.1 -.1)">
<use xlink:href="#c"/>
<use x="63.623047" xlink:href="#e"/>
<use x="95.410156" xlink:href="#n"/>
<use x="159.033203" xlink:href="#q"/>
</g>
</g>
<g clip-path="url(#a)">
<g transform="translate(872.57 754.77) scale(.1 -.1)">
<use xlink:href="#c"/>
<use x="63.623047" xlink:href="#e"/>
<use x="95.410156" xlink:href="#n"/>
<use x="159.033203" xlink:href="#u"/>
</g>
</g>
<g clip-path="url(#a)">
<g transform="translate(939.67 642.11) scale(.1 -.1)">
<use xlink:href="#c"/>
<use x="63.623047" xlink:href="#e"/>
<use x="95.410156" xlink:href="#n"/>
<use x="159.033203" xlink:href="#ad"/>
</g>
</g>
<g clip-path="url(#a)">
<g transform="translate(917.3 754.77) scale(.1 -.1)">
<use xlink:href="#c"/>
<use x="63.623047" xlink:href="#e"/>
<use x="95.410156" xlink:href="#n"/>
<use x="159.033203" xlink:href="#ac"/>
</g>
</g>
<g clip-path="url(#a)">
<g transform="translate(962.04 754.77) scale(.1 -.1)">
<use xlink:href="#c"/>
<use x="63.623047" xlink:href="#e"/>
<use x="95.410156" xlink:href="#n"/>
<use x="159.033203" xlink:href="#y"/>
</g>
</g>
<g clip-path="url(#a)">
<g transform="translate(648.89 754.77) scale(.1 -.1)">
<use xlink:href="#c"/>
<use x="63.623047" xlink:href="#e"/>
<use x="95.410156" xlink:href="#n"/>
<use x="159.033203" xlink:href="#ab"/>
</g>
</g>
<g clip-path="url(#a)">
<g transform="translate(693.63 754.77) scale(.1 -.1)">
<use xlink:href="#c"/>
<use x="63.623047" xlink:href="#e"/>
<use x="95.410156" xlink:href="#q"/>
<use x="159.033203" xlink:href="#ae"/>
</g>
</g>
<g clip-path="url(#a)">
<g transform="translate(760.73 642.11) scale(.1 -.1)">
<use xlink:href="#c"/>
<use x="63.623047" xlink:href="#e"/>
<use x="95.410156" xlink:href="#q"/>
<use x="159.033203" xlink:href="#c"/>
</g>
</g>
<g clip-path="url(#a)">
<g transform="translate(738.36 754.77) scale(.1 -.1)">
<use xlink:href="#c"/>
<use x="63.623047" xlink:href="#e"/>
<use x="95.410156" xlink:href="#q"/>
<use x="159.033203" xlink:href="#m"/>
</g>
</g>
<g clip-path="url(#a)">
<g transform="translate(783.1 754.77) scale(.1 -.1)">
<use xlink:href="#c"/>
<use x="63.623047" xlink:href="#e"/>
<use x="95.410156" xlink:href="#q"/>
<use x="159.033203" xlink:href="#n"/>
</g>
</g>
<g clip-path="url(#a)">
<g transform="translate(1578.4 867.44) scale(.1 -.1)">
<use xlink:href="#x"/>
<use x="29.492188" xlink:href="#ap"/>
<use x="115.771484" xlink:href="#aa"/>
<use x="176.074219" xlink:href="#aq"/>
<use x="231.787109" xlink:href="#x"/>
<use x="261.279297" xlink:href="#r"/>
<use x="331.103516" xlink:href="#x"/>
<use x="360.595703" xlink:href="#k"/>
</g>
</g>
<g clip-path="url(#a)">
<g transform="translate(425.21 754.77) scale(.1 -.1)">
<use xlink:href="#c"/>
<use x="63.623047" xlink:href="#e"/>
<use x="95.410156" xlink:href="#q"/>
<use x="159.033203" xlink:href="#u"/>
</g>
</g>
<g clip-path="url(#a)">
<g transform="translate(514.69 754.77) scale(.1 -.1)">
<use xlink:href="#c"/>
<use x="63.623047" xlink:href="#e"/>
<use x="95.410156" xlink:href="#q"/>
<use x="159.033203" xlink:href="#ad"/>
</g>
</g>
<g clip-path="url(#a)">
<g transform="translate(469.95 754.77) scale(.1 -.1)">
<use xlink:href="#c"/>
<use x="63.623047" xlink:href="#e"/>
<use x="95.410156" xlink:href="#q"/>
<use x="159.033203" xlink:href="#ac"/>
</g>
</g>
<g clip-path="url(#a)">
<g transform="translate(67.332 754.77) scale(.1 -.1)">
<use xlink:href="#c"/>
<use x="63.623047" xlink:href="#e"/>
<use x="95.410156" xlink:href="#q"/>
<use x="159.033203" xlink:href="#y"/>
</g>
</g>
<g clip-path="url(#a)">
<g transform="translate(112.07 754.77) scale(.1 -.1)">
<use xlink:href="#c"/>
<use x="63.623047" xlink:href="#e"/>
<use x="95.410156" xlink:href="#q"/>
<use x="159.033203" xlink:href="#ab"/>
</g>
</g>
<g clip-path="url(#a)">
<g transform="translate(156.8 754.77) scale(.1 -.1)">
<use xlink:href="#c"/>
<use x="63.623047" xlink:href="#e"/>
<use x="95.410156" xlink:href="#u"/>
<use x="159.033203" xlink:href="#ae"/>
</g>
</g>
<g clip-path="url(#a)">
<g transform="translate(604.16 754.77) scale(.1 -.1)">
<use xlink:href="#c"/>
<use x="63.623047" xlink:href="#e"/>
<use x="95.410156" xlink:href="#u"/>
<use x="159.033203" xlink:href="#c"/>
</g>
</g>
<g clip-path="url(#a)">
<g transform="translate(1006.8 754.77) scale(.1 -.1)">
<use xlink:href="#c"/>
<use x="63.623047" xlink:href="#e"/>
<use x="95.410156" xlink:href="#u"/>
<use x="159.033203" xlink:href="#m"/>
</g>
</g>
<g clip-path="url(#a)">
<g transform="translate(1543.6 754.77) scale(.1 -.1)">
<use xlink:href="#c"/>
<use x="63.623047" xlink:href="#e"/>
<use x="95.410156" xlink:href="#u"/>
<use x="159.033203" xlink:href="#n"/>
</g>
</g>
<defs>
<clipPath id="a">
<rect width="1722.7" height="906.67"/>
</clipPath>
</defs>
</svg>
