<?xml version="1.0" encoding="UTF-8"?>
<!DOCTYPE svg  PUBLIC '-//W3C//DTD SVG 1.1//EN'  'http://www.w3.org/Graphics/SVG/1.1/DTD/svg11.dtd'>
<svg width="1165.3pt" height="613.33pt" version="1.1" viewBox="0 0 1165.3 613.33" xmlns="http://www.w3.org/2000/svg" xmlns:xlink="http://www.w3.org/1999/xlink">
<defs>
<style type="text/css">*{stroke-linecap:butt;stroke-linejoin:round;}</style>
</defs>
<path d="m0 613.33h1165.3v-613.33h-1165.3z" fill="#fff"/>
<g fill="none" stroke="#000">
<path d="m229.67 27.879v93.776" clip-path="url(#a)"/>
<path d="m229.67 121.65-164.81 372.52" clip-path="url(#a)"/>
<path d="m229.67 121.65-100.01 279.97" clip-path="url(#a)"/>
<path d="m229.67 121.65-58.993 372.52" clip-path="url(#a)"/>
<path d="m229.67 121.65-26.89 372.52" clip-path="url(#a)"/>
<path d="m229.67 121.65 8.78 372.52" clip-path="url(#a)"/>
<path d="m229.67 121.65 69.419 279.97" clip-path="url(#a)"/>
<path d="m229.67 121.65 406.41 93.587" clip-path="url(#a)"/>
<path d="m229.67 121.65-133.9 372.52" clip-path="url(#a)"/>
<path d="m64.86 494.18-11.89 91.279" clip-path="url(#a)"/>
<path d="m64.86 494.18-1.189 91.279" clip-path="url(#a)"/>
<path d="m64.86 494.18 13.079 91.279" clip-path="url(#a)"/>
<path d="m129.66 401.63-12.484 92.549" clip-path="url(#a)"/>
<path d="m129.66 401.63 12.484 92.549" clip-path="url(#a)"/>
<path d="m170.68 494.18v91.279" clip-path="url(#a)"/>
<path d="m202.78 494.18v91.279" clip-path="url(#a)"/>
<path d="m238.45 494.18v91.279" clip-path="url(#a)"/>
<path d="m299.09 401.63-21.402 92.549" clip-path="url(#a)"/>
<path d="m299.09 401.63 21.402 92.549" clip-path="url(#a)"/>
<path d="m636.08 215.24-269.22 278.93" clip-path="url(#a)"/>
<path d="m636.08 215.24-143.04 93.351" clip-path="url(#a)"/>
<path d="m636.08 215.24 16.141 278.93" clip-path="url(#a)"/>
<path d="m636.08 215.24 83.913 278.93" clip-path="url(#a)"/>
<path d="m636.08 215.24 312.2 186.39" clip-path="url(#a)"/>
<path d="m366.86 494.18v91.279" clip-path="url(#a)"/>
<path d="m493.05 308.59-76.244 185.58" clip-path="url(#a)"/>
<path d="m493.05 308.59-22.74 185.58" clip-path="url(#a)"/>
<path d="m493.05 308.59 34.332 185.58" clip-path="url(#a)"/>
<path d="m493.05 308.59 64.652 93.034" clip-path="url(#a)"/>
<path d="m652.22 494.18v91.279" clip-path="url(#a)"/>
<path d="m720 494.18v91.279" clip-path="url(#a)"/>
<path d="m948.28 401.63-156.95 92.549" clip-path="url(#a)"/>
<path d="m948.28 401.63-82.041 92.549" clip-path="url(#a)"/>
<path d="m948.28 401.63-3.567 92.549" clip-path="url(#a)"/>
<path d="m948.28 401.63 78.474 92.549" clip-path="url(#a)"/>
<path d="m948.28 401.63 164.08 92.549" clip-path="url(#a)"/>
<path d="m791.34 494.18v91.279" clip-path="url(#a)"/>
<path d="m866.24 494.18v91.279" clip-path="url(#a)"/>
<path d="m944.72 494.18v91.279" clip-path="url(#a)"/>
<path d="m1026.8 494.18v91.279" clip-path="url(#a)"/>
<path d="m416.8 494.18v91.279" clip-path="url(#a)"/>
<path d="m470.31 494.18v91.279" clip-path="url(#a)"/>
<path d="m527.38 494.18v91.279" clip-path="url(#a)"/>
<path d="m557.7 401.63-30.319 92.549" clip-path="url(#a)" stroke-dasharray="3.7,1.6"/>
<path d="m557.7 401.63 30.319 92.549" clip-path="url(#a)"/>
<path d="m588.02 494.18v91.279" clip-path="url(#a)"/>
<path d="m277.69 494.18v91.279" clip-path="url(#a)"/>
<path d="m320.49 494.18v91.279" clip-path="url(#a)"/>
<path d="m117.18 494.18v91.279" clip-path="url(#a)"/>
<path d="m142.14 494.18v91.279" clip-path="url(#a)"/>
<path d="m95.773 494.18v91.279" clip-path="url(#a)"/>
<path d="m1112.4 494.18v91.279" clip-path="url(#a)"/>
</g>
<path d="m223.4 71.758v6.0162q0 2.4 2.4 2.4h7.7425q2.4 0 2.4-2.4v-6.0162q0-2.4-2.4-2.4h-7.7425q-2.4 0-2.4 2.4z" clip-path="url(#a)" fill="#fff" stroke="#fff"/>
<g clip-path="url(#a)">
<defs>
<path id="ao" d="m9.8125 72.906h9.8594v-29.891h35.844v29.891h9.8594v-72.906h-9.8594v34.719h-35.844v-34.719h-9.8594z"/>
</defs>
<g transform="translate(227.47 71.758) rotate(90) scale(.08 -.08)">
<use xlink:href="#ao"/>
</g>
</g>
<path d="m151.75 313.29 2.508-5.6687q0.97103-2.1948-1.2238-3.1658l-7.0805-3.1326q-2.1948-0.97103-3.1658 1.2238l-2.508 5.6687q-0.97103 2.1948 1.2238 3.1658l7.0805 3.1326q2.1948 0.97103 3.1658-1.2238z" clip-path="url(#a)" fill="#fff" stroke="#fff"/>
<g clip-path="url(#a)">
<defs>
<path id="ap" d="m59.516 10.406v19.578h-16.109v8.1094h25.875v-31.312q-5.7031-4.0469-12.594-6.125-6.875-2.0781-14.688-2.0781-17.094 0-26.75 9.9844-9.6406 10-9.6406 27.812 0 17.875 9.6406 27.859 9.6562 9.9844 26.75 9.9844 7.125 0 13.547-1.7656 6.4219-1.75 11.844-5.1719v-10.5q-5.4688 4.6406-11.625 6.9844t-12.938 2.3438q-13.391 0-20.109-7.4688-6.7031-7.4688-6.7031-22.266 0-14.75 6.7031-22.219 6.7188-7.4688 20.109-7.4688 5.2188 0 9.3125 0.90625 4.1094 0.90625 7.375 2.8125z"/>
</defs>
<g transform="translate(148.03 311.64) rotate(-66.134) scale(.08 -.08)">
<use xlink:href="#ap"/>
</g>
</g>
<path d="m184.65 266.33 1.841-5.1535q0.80737-2.2601-1.4528-3.0675l-7.2912-2.6046q-2.2601-0.80737-3.0675 1.4528l-1.841 5.1535q-0.80737 2.2601 1.4528 3.0675l7.2912 2.6046q2.2601 0.80737 3.0675-1.4528z" clip-path="url(#a)" fill="#fff" stroke="#fff"/>
<g clip-path="url(#a)">
<defs>
<path id="o" d="m34.188 63.188-13.391-36.281h26.812zm-5.5781 9.7188h11.188l27.781-72.906h-10.25l-6.6406 18.703h-32.859l-6.6406-18.703h-10.406z"/>
</defs>
<g transform="translate(180.82 264.96) rotate(-70.342) scale(.08 -.08)">
<use xlink:href="#o"/>
</g>
</g>
<path d="m206.01 311.17 0.71969-4.5446q0.37539-2.3705-1.9951-2.7458l-7.6472-1.211q-2.3705-0.37539-2.7458 1.9951l-0.71969 4.5446q-0.37539 2.3705 1.9951 2.7458l7.6472 1.211q2.3705 0.37539 2.7458-1.9951z" clip-path="url(#a)" fill="#fff" stroke="#fff"/>
<g clip-path="url(#a)">
<defs>
<path id="x" d="m9.8125 72.906h41.891v-8.3125h-32.031v-21.484h28.906v-8.2969h-28.906v-34.812h-9.8594z"/>
</defs>
<g transform="translate(202 310.53) rotate(-81.001) scale(.08 -.08)">
<use xlink:href="#x"/>
</g>
</g>
<path d="m222.26 311.44 0.4435-6.144q0.17279-2.3938-2.221-2.5666l-7.7224-0.55743q-2.3938-0.17279-2.5666 2.221l-0.4435 6.144q-0.17279 2.3938 2.221 2.5666l7.7224 0.55743q2.3938 0.17279 2.5666-2.221z" clip-path="url(#a)" fill="#fff" stroke="#fff"/>
<g clip-path="url(#a)">
<defs>
<path id="aq" d="m19.672 64.797v-56.688h11.922q15.094 0 22.094 6.8281 7 6.8438 7 21.594 0 14.641-7 21.453t-22.094 6.8125zm-9.8594 8.1094h20.266q21.188 0 31.094-8.8125 9.9219-8.8125 9.9219-27.562 0-18.859-9.9688-27.703-9.9531-8.8281-31.047-8.8281h-20.266z"/>
</defs>
<g transform="translate(218.21 311.15) rotate(-85.871) scale(.08 -.08)">
<use xlink:href="#aq"/>
</g>
</g>
<path d="m227.74 305.65 0.11366 4.8224q0.05655 2.3993 2.4559 2.3428l7.7404-0.18243q2.3993-0.05655 2.3428-2.4559l-0.11366-4.8224q-0.05655-2.3993-2.4559-2.3428l-7.7404 0.18243q-2.3993 0.05655-2.3428 2.4559z" clip-path="url(#a)" fill="#fff" stroke="#fff"/>
<g clip-path="url(#a)">
<defs>
<path id="al" d="m19.672 64.797v-27.391h12.406q6.8906 0 10.641 3.5625 3.7656 3.5625 3.7656 10.156 0 6.5469-3.7656 10.109-3.75 3.5625-10.641 3.5625zm-9.8594 8.1094h22.266q12.266 0 18.531-5.5469 6.2812-5.5469 6.2812-16.234 0-10.797-6.2812-16.312-6.2656-5.5156-18.531-5.5156h-12.406v-29.297h-9.8594z"/>
</defs>
<g transform="translate(231.8 305.56) rotate(88.65) scale(.08 -.08)">
<use xlink:href="#al"/>
</g>
</g>
<path d="m257.64 260.49 1.317 5.3117q0.57759 2.3295 2.907 1.7519l7.5149-1.8633q2.3295-0.57759 1.7519-2.907l-1.317-5.3117q-0.57759-2.3295-2.907-1.7519l-7.5149 1.8633q-2.3295 0.57759-1.7519 2.907z" clip-path="url(#a)" fill="#fff" stroke="#fff"/>
<g clip-path="url(#a)">
<g transform="translate(261.58 259.52) rotate(76.074) scale(.08 -.08)">
<use xlink:href="#o"/>
</g>
</g>
<path d="m428.8 173.95 5.3329 1.2281q2.3388 0.53857 2.8774-1.8002l1.7375-7.545q0.53857-2.3388-1.8002-2.8774l-5.3329-1.2281q-2.3388-0.53857-2.8774 1.8002l-1.7375 7.545q-0.53857 2.3388 1.8002 2.8774z" clip-path="url(#a)" fill="#fff" stroke="#fff"/>
<g clip-path="url(#a)">
<g transform="translate(429.72 169.99) rotate(12.968) scale(.08 -.08)">
<use xlink:href="#o"/>
</g>
</g>
<path d="m167.63 312.79 1.9805-5.5099q0.81181-2.2585-1.4467-3.0703l-7.2861-2.6189q-2.2585-0.81181-3.0703 1.4467l-1.9805 5.5099q-0.81181 2.2585 1.4467 3.0703l7.2861 2.6189q2.2585 0.81181 3.0703-1.4467z" clip-path="url(#a)" fill="#fff" stroke="#fff"/>
<g clip-path="url(#a)">
<defs>
<path id="aj" d="m8.6875 72.906h9.9219v-44.297q0-11.719 4.2344-16.875 4.25-5.1406 13.781-5.1406 9.4688 0 13.719 5.1406 4.25 5.1562 4.25 16.875v44.297h9.9062v-45.516q0-14.25-7.0625-21.531-7.0469-7.2812-20.812-7.2812-13.828 0-20.891 7.2812-7.0469 7.2812-7.0469 21.531z"/>
</defs>
<g transform="translate(163.81 311.42) rotate(-70.229) scale(.08 -.08)">
<use xlink:href="#aj"/>
</g>
</g>
<path d="m62.95 557.39 4.3668-33.524q0.31-2.3799-2.0699-2.6899l-7.6776-1.0001q-2.3799-0.31-2.6899 2.0699l-4.3668 33.524q-0.31 2.3799 2.0699 2.6899l7.6776 1.0001q2.3799 0.31 2.6899-2.0699z" clip-path="url(#a)" fill="#fff" stroke="#fff"/>
<g clip-path="url(#a)">
<defs>
<path id="l" d="m-0.29688 72.906h61.672v-8.3125h-25.875v-64.594h-9.9062v64.594h-25.891z"/>
<path id="e" d="m56.203 29.594v-4.3906h-41.312q0.59375-9.2812 5.5938-14.141t13.938-4.8594q5.1719 0 10.031 1.2656t9.6562 3.8125v-8.5q-4.8438-2.0469-9.9219-3.125t-10.297-1.0781q-13.094 0-20.734 7.6094-7.6406 7.625-7.6406 20.625 0 13.422 7.25 21.297 7.25 7.8906 19.562 7.8906 11.031 0 17.453-7.1094 6.4219-7.0938 6.4219-19.297zm-8.9844 2.6406q-0.09375 7.3594-4.125 11.75-4.0312 4.4062-10.672 4.4062-7.5156 0-12.031-4.25t-5.2031-11.969z"/>
<path id="h" d="m41.109 46.297q-1.5156 0.875-3.2969 1.2812-1.7812 0.42188-3.9219 0.42188-7.625 0-11.703-4.9531t-4.0781-14.234v-28.812h-9.0312v54.688h9.0312v-8.5q2.8438 4.9844 7.375 7.3906 4.5469 2.4219 11.047 2.4219 0.92188 0 2.0469-0.125 1.125-0.10938 2.4844-0.35938z"/>
<path id="k" d="m52 44.188q3.375 6.0625 8.0625 8.9375t11.031 2.875q8.5469 0 13.188-5.9844 4.6406-5.9688 4.6406-17v-33.016h-9.0312v32.719q0 7.8594-2.7969 11.656-2.7812 3.8125-8.4844 3.8125-6.9844 0-11.047-4.6406-4.0469-4.625-4.0469-12.641v-30.906h-9.0312v32.719q0 7.9062-2.7812 11.688t-8.5938 3.7812q-6.8906 0-10.953-4.6562-4.0469-4.6562-4.0469-12.625v-30.906h-9.0312v54.688h9.0312v-8.5q3.0781 5.0312 7.375 7.4219t10.203 2.3906q5.9688 0 10.141-3.0312 4.1719-3.0156 6.1719-8.7812z"/>
<path id="f" d="m9.4219 54.688h8.9844v-54.688h-8.9844zm0 21.297h8.9844v-11.391h-8.9844z"/>
<path id="i" d="m54.891 33.016v-33.016h-8.9844v32.719q0 7.7656-3.0312 11.609-3.0312 3.8594-9.0781 3.8594-7.2812 0-11.484-4.6406-4.2031-4.625-4.2031-12.641v-30.906h-9.0312v54.688h9.0312v-8.5q3.2344 4.9375 7.5938 7.375 4.375 2.4375 10.094 2.4375 9.4219 0 14.25-5.8281 4.8438-5.8281 4.8438-17.156z"/>
<path id="d" d="m34.281 27.484q-10.891 0-15.094-2.4844t-4.2031-8.5q0-4.7812 3.1562-7.5938 3.1562-2.7969 8.5625-2.7969 7.4844 0 12 5.2969t4.5156 14.078v2zm17.922 3.7188v-31.203h-8.9844v8.2969q-3.0781-4.9688-7.6719-7.3438t-11.234-2.375q-8.3906 0-13.359 4.7188-4.9531 4.7188-4.9531 12.625 0 9.2188 6.1719 13.906 6.1875 4.6875 18.438 4.6875h12.609v0.89062q0 6.2031-4.0781 9.5938t-11.453 3.3906q-4.6875 0-9.1406-1.125-4.4375-1.125-8.5312-3.375v8.3125q4.9219 1.9062 9.5625 2.8438 4.6406 0.95312 9.0312 0.95312 11.875 0 17.734-6.1562 5.8594-6.1406 5.8594-18.641z"/>
<path id="j" d="m9.4219 75.984h8.9844v-75.984h-8.9844z"/>
</defs>
<g transform="translate(58.92 556.86) rotate(-82.578) scale(.08 -.08)">
<use xlink:href="#l"/>
<use x="44.083984" xlink:href="#e"/>
<use x="105.607422" xlink:href="#h"/>
<use x="144.970703" xlink:href="#k"/>
<use x="242.382812" xlink:href="#f"/>
<use x="270.166016" xlink:href="#i"/>
<use x="333.544922" xlink:href="#d"/>
<use x="394.824219" xlink:href="#j"/>
</g>
</g>
<path d="m70.316 556.8 0.44034-33.805q0.03126-2.3998-2.3685-2.4311l-7.7418-0.10084q-2.3998-0.03126-2.4311 2.3685l-0.44034 33.805q-0.03126 2.3998 2.3685 2.4311l7.7418 0.10084q2.3998 0.03126 2.4311-2.3685z" clip-path="url(#a)" fill="#fff" stroke="#fff"/>
<g clip-path="url(#a)">
<g transform="translate(66.252 556.75) rotate(-89.254) scale(.08 -.08)">
<use xlink:href="#l"/>
<use x="44.083984" xlink:href="#e"/>
<use x="105.607422" xlink:href="#h"/>
<use x="144.970703" xlink:href="#k"/>
<use x="242.382812" xlink:href="#f"/>
<use x="270.166016" xlink:href="#i"/>
<use x="333.544922" xlink:href="#d"/>
<use x="394.824219" xlink:href="#j"/>
</g>
</g>
<path d="m62.794 523.97 4.7951 33.466q0.34041 2.3757 2.7161 2.0353l7.6642-1.0982q2.3757-0.34041 2.0353-2.7161l-4.7951-33.466q-0.34041-2.3757-2.7161-2.0353l-7.6642 1.0982q-2.3757 0.34041-2.0353 2.7161z" clip-path="url(#a)" fill="#fff" stroke="#fff"/>
<g clip-path="url(#a)">
<g transform="translate(66.816 523.4) rotate(81.846) scale(.08 -.08)">
<use xlink:href="#l"/>
<use x="44.083984" xlink:href="#e"/>
<use x="105.607422" xlink:href="#h"/>
<use x="144.970703" xlink:href="#k"/>
<use x="242.382812" xlink:href="#f"/>
<use x="270.166016" xlink:href="#i"/>
<use x="333.544922" xlink:href="#d"/>
<use x="394.824219" xlink:href="#j"/>
</g>
</g>
<path d="m129.29 451.24 0.67578-5.0096q0.32084-2.3785-2.0576-2.6993l-7.673-1.0351q-2.3785-0.32084-2.6993 2.0576l-0.67578 5.0096q-0.32084 2.3785 2.0576 2.6993l7.673 1.0351q2.3785 0.32084 2.6993-2.0576z" clip-path="url(#a)" fill="#fff" stroke="#fff"/>
<g clip-path="url(#a)">
<defs>
<path id="n" d="m9.8125 72.906h46.094v-8.3125h-36.234v-21.578h34.719v-8.2969h-34.719v-26.422h37.109v-8.2969h-46.969z"/>
</defs>
<g transform="translate(125.27 450.7) rotate(-82.317) scale(.08 -.08)">
<use xlink:href="#n"/>
</g>
</g>
<path d="m129.31 445.97 0.7468 5.5361q0.32084 2.3785 2.6993 2.0576l7.673-1.0351q2.3785-0.32084 2.0576-2.6993l-0.7468-5.5361q-0.32084-2.3785-2.6993-2.0576l-7.673 1.0351q-2.3785 0.32084-2.0576 2.6993z" clip-path="url(#a)" fill="#fff" stroke="#fff"/>
<g clip-path="url(#a)">
<defs>
<path id="s" d="m64.406 67.281v-10.391q-4.9844 4.6406-10.625 6.9219-5.6406 2.2969-11.984 2.2969-12.5 0-19.141-7.6406t-6.6406-22.094q0-14.406 6.6406-22.047t19.141-7.6406q6.3438 0 11.984 2.2969t10.625 6.9375v-10.312q-5.1719-3.5156-10.969-5.2812-5.7812-1.75-12.219-1.75-16.562 0-26.094 10.125-9.5156 10.141-9.5156 27.672 0 17.578 9.5156 27.703 9.5312 10.141 26.094 10.141 6.5312 0 12.312-1.7344 5.7969-1.7344 10.875-5.2031z"/>
</defs>
<g transform="translate(133.34 445.43) rotate(82.317) scale(.08 -.08)">
<use xlink:href="#s"/>
</g>
</g>
<path d="m164.41 522.91v33.808q0 2.4 2.4 2.4h7.7425q2.4 0 2.4-2.4v-33.808q0-2.4-2.4-2.4h-7.7425q-2.4 0-2.4 2.4z" clip-path="url(#a)" fill="#fff" stroke="#fff"/>
<g clip-path="url(#a)">
<g transform="translate(168.47 522.91) rotate(90) scale(.08 -.08)">
<use xlink:href="#l"/>
<use x="44.083984" xlink:href="#e"/>
<use x="105.607422" xlink:href="#h"/>
<use x="144.970703" xlink:href="#k"/>
<use x="242.382812" xlink:href="#f"/>
<use x="270.166016" xlink:href="#i"/>
<use x="333.544922" xlink:href="#d"/>
<use x="394.824219" xlink:href="#j"/>
</g>
</g>
<path d="m196.51 522.91v33.808q0 2.4 2.4 2.4h7.7425q2.4 0 2.4-2.4v-33.808q0-2.4-2.4-2.4h-7.7425q-2.4 0-2.4 2.4z" clip-path="url(#a)" fill="#fff" stroke="#fff"/>
<g clip-path="url(#a)">
<g transform="translate(200.58 522.91) rotate(90) scale(.08 -.08)">
<use xlink:href="#l"/>
<use x="44.083984" xlink:href="#e"/>
<use x="105.607422" xlink:href="#h"/>
<use x="144.970703" xlink:href="#k"/>
<use x="242.382812" xlink:href="#f"/>
<use x="270.166016" xlink:href="#i"/>
<use x="333.544922" xlink:href="#d"/>
<use x="394.824219" xlink:href="#j"/>
</g>
</g>
<path d="m232.18 522.91v33.808q0 2.4 2.4 2.4h7.7425q2.4 0 2.4-2.4v-33.808q0-2.4-2.4-2.4h-7.7425q-2.4 0-2.4 2.4z" clip-path="url(#a)" fill="#fff" stroke="#fff"/>
<g clip-path="url(#a)">
<g transform="translate(236.25 522.91) rotate(90) scale(.08 -.08)">
<use xlink:href="#l"/>
<use x="44.083984" xlink:href="#e"/>
<use x="105.607422" xlink:href="#h"/>
<use x="144.970703" xlink:href="#k"/>
<use x="242.382812" xlink:href="#f"/>
<use x="270.166016" xlink:href="#i"/>
<use x="333.544922" xlink:href="#d"/>
<use x="394.824219" xlink:href="#j"/>
</g>
</g>
<path d="m293.93 451.78 1.1389-4.925q0.54073-2.3383-1.7976-2.879l-7.5434-1.7444q-2.3383-0.54073-2.879 1.7976l-1.1389 4.925q-0.54073 2.3383 1.7976 2.879l7.5434 1.7444q2.3383 0.54073 2.879-1.7976z" clip-path="url(#a)" fill="#fff" stroke="#fff"/>
<g clip-path="url(#a)">
<g transform="translate(289.97 450.86) rotate(-76.979) scale(.08 -.08)">
<use xlink:href="#n"/>
</g>
</g>
<path d="m303.05 446.59 1.2586 5.4426q0.54073 2.3383 2.879 1.7976l7.5434-1.7444q2.3383-0.54073 1.7976-2.879l-1.2586-5.4426q-0.54073-2.3383-2.879-1.7976l-7.5434 1.7444q-2.3383 0.54073-1.7976 2.879z" clip-path="url(#a)" fill="#fff" stroke="#fff"/>
<g clip-path="url(#a)">
<g transform="translate(307.01 445.68) rotate(76.979) scale(.08 -.08)">
<use xlink:href="#s"/>
</g>
</g>
<path d="m504.06 361.06 3.8604-3.9997q1.6667-1.7269-0.06015-3.3936l-5.5709-5.3769q-1.7269-1.6667-3.3936 0.060151l-3.8604 3.9997q-1.6667 1.7269 0.06015 3.3936l5.5709 5.3769q1.7269 1.6667 3.3936-0.060151z" clip-path="url(#a)" fill="#fff" stroke="#fff"/>
<g clip-path="url(#a)">
<defs>
<path id="ak" d="m44.391 34.188q3.1719-1.0781 6.1719-4.5938t6.0312-9.6719l10.016-19.922h-10.609l-9.3125 18.703q-3.625 7.3281-7.0156 9.7188t-9.25 2.3906h-10.75v-30.812h-9.8594v72.906h22.266q12.5 0 18.656-5.2344 6.1562-5.2188 6.1562-15.766 0-6.8906-3.2031-11.438-3.2031-4.5312-9.2969-6.2812zm-24.719 30.609v-25.875h12.406q7.125 0 10.766 3.2969t3.6406 9.6875-3.6406 9.6406-10.766 3.25z"/>
</defs>
<g transform="translate(501.13 358.24) rotate(-46.015) scale(.08 -.08)">
<use xlink:href="#ak"/>
</g>
</g>
<path d="m565.7 268.66 4.5828-2.9909q2.0098-1.3117 0.69814-3.3215l-4.2316-6.4838q-1.3117-2.0098-3.3215-0.69814l-4.5828 2.9909q-2.0098 1.3117-0.69814 3.3215l4.2316 6.4838q1.3117 2.0098 3.3215 0.69814z" clip-path="url(#a)" fill="#fff" stroke="#fff"/>
<g clip-path="url(#a)">
<g transform="translate(563.48 265.26) rotate(-33.13) scale(.08 -.08)">
<use xlink:href="#o"/>
</g>
</g>
<path d="m637.76 352.77 0.26581 4.5936q0.13864 2.396 2.5346 2.2573l7.7296-0.44727q2.396-0.13864 2.2573-2.5346l-0.26581-4.5936q-0.13864-2.396-2.5346-2.2573l-7.7296 0.44727q-2.396 0.13864-2.2573 2.5346z" clip-path="url(#a)" fill="#fff" stroke="#fff"/>
<g clip-path="url(#a)">
<g transform="translate(641.82 352.54) rotate(86.688) scale(.08 -.08)">
<use xlink:href="#x"/>
</g>
</g>
<path d="m671.34 354.21 1.3896 4.6193q0.6914 2.2983 2.9896 1.6069l7.4143-2.2305q2.2983-0.6914 1.6069-2.9897l-1.3896-4.6192q-0.6914-2.2983-2.9896-1.6069l-7.4143 2.2305q-2.2983 0.6914-1.6069 2.9897z" clip-path="url(#a)" fill="#fff" stroke="#fff"/>
<g clip-path="url(#a)">
<g transform="translate(675.23 353.03) rotate(73.257) scale(.08 -.08)">
<use xlink:href="#al"/>
</g>
</g>
<path d="m786.62 312.42 4.6988 2.8052q2.0607 1.2302 3.291-0.83045l3.9688-6.6479q1.2302-2.0607-0.83045-3.291l-4.6988-2.8052q-2.0607-1.2302-3.2909 0.83045l-3.9688 6.6479q-1.2302 2.0607 0.83045 3.2909z" clip-path="url(#a)" fill="#fff" stroke="#fff"/>
<g clip-path="url(#a)">
<g transform="translate(788.7 308.93) rotate(30.837) scale(.08 -.08)">
<use xlink:href="#o"/>
</g>
</g>
<path d="m360.59 522.91v33.808q0 2.4 2.4 2.4h7.7425q2.4 0 2.4-2.4v-33.808q0-2.4-2.4-2.4h-7.7425q-2.4 0-2.4 2.4z" clip-path="url(#a)" fill="#fff" stroke="#fff"/>
<g clip-path="url(#a)">
<g transform="translate(364.66 522.91) rotate(90) scale(.08 -.08)">
<use xlink:href="#l"/>
<use x="44.083984" xlink:href="#e"/>
<use x="105.607422" xlink:href="#h"/>
<use x="144.970703" xlink:href="#k"/>
<use x="242.382812" xlink:href="#f"/>
<use x="270.166016" xlink:href="#i"/>
<use x="333.544922" xlink:href="#d"/>
<use x="394.824219" xlink:href="#j"/>
</g>
</g>
<path d="m459.76 406.11 1.921-4.6758q0.91204-2.22-1.3079-3.132l-7.1617-2.9423q-2.22-0.91204-3.132 1.3079l-1.921 4.6758q-0.91204 2.22 1.3079 3.132l7.1617 2.9423q2.22 0.91204 3.132-1.3079z" clip-path="url(#a)" fill="#fff" stroke="#fff"/>
<g clip-path="url(#a)">
<g transform="translate(456.01 404.56) rotate(-67.665) scale(.08 -.08)">
<use xlink:href="#n"/>
</g>
</g>
<path d="m487.59 404.66 0.61479-5.0175q0.29189-2.3822-2.0903-2.6741l-7.685-0.94165q-2.3822-0.29189-2.6741 2.0903l-0.61479 5.0175q-0.29189 2.3822 2.0903 2.6741l7.685 0.94165q2.3822 0.29189 2.6741-2.0903z" clip-path="url(#a)" fill="#fff" stroke="#fff"/>
<g clip-path="url(#a)">
<g transform="translate(483.56 404.16) rotate(-83.014) scale(.08 -.08)">
<use xlink:href="#n"/>
</g>
</g>
<path d="m503.54 399.78 1.0162 5.493q0.43658 2.36 2.7965 1.9234l7.6133-1.4084q2.36-0.43658 1.9234-2.7965l-1.0162-5.493q-0.43658-2.36-2.7965-1.9234l-7.6133 1.4084q-2.36 0.43658-1.9234 2.7965z" clip-path="url(#a)" fill="#fff" stroke="#fff"/>
<g clip-path="url(#a)">
<g transform="translate(507.53 399.04) rotate(79.519) scale(.08 -.08)">
<use xlink:href="#s"/>
</g>
</g>
<path d="m518.78 356.61 2.8847 4.1511q1.3696 1.9708 3.3404 0.60126l6.358-4.4183q1.9708-1.3696 0.60126-3.3404l-2.8847-4.1511q-1.3696-1.9708-3.3404-0.60126l-6.358 4.4183q-1.9708 1.3696-0.60126 3.3404z" clip-path="url(#a)" fill="#fff" stroke="#fff"/>
<g clip-path="url(#a)">
<g transform="translate(522.12 354.29) rotate(55.204) scale(.08 -.08)">
<use xlink:href="#n"/>
</g>
</g>
<path d="m645.95 522.91v33.808q0 2.4 2.4 2.4h7.7425q2.4 0 2.4-2.4v-33.808q0-2.4-2.4-2.4h-7.7425q-2.4 0-2.4 2.4z" clip-path="url(#a)" fill="#fff" stroke="#fff"/>
<g clip-path="url(#a)">
<g transform="translate(650.02 522.91) rotate(90) scale(.08 -.08)">
<use xlink:href="#l"/>
<use x="44.083984" xlink:href="#e"/>
<use x="105.607422" xlink:href="#h"/>
<use x="144.970703" xlink:href="#k"/>
<use x="242.382812" xlink:href="#f"/>
<use x="270.166016" xlink:href="#i"/>
<use x="333.544922" xlink:href="#d"/>
<use x="394.824219" xlink:href="#j"/>
</g>
</g>
<path d="m713.72 522.91v33.808q0 2.4 2.4 2.4h7.7425q2.4 0 2.4-2.4v-33.808q0-2.4-2.4-2.4h-7.7425q-2.4 0-2.4 2.4z" clip-path="url(#a)" fill="#fff" stroke="#fff"/>
<g clip-path="url(#a)">
<g transform="translate(717.79 522.91) rotate(90) scale(.08 -.08)">
<use xlink:href="#l"/>
<use x="44.083984" xlink:href="#e"/>
<use x="105.607422" xlink:href="#h"/>
<use x="144.970703" xlink:href="#k"/>
<use x="242.382812" xlink:href="#f"/>
<use x="270.166016" xlink:href="#i"/>
<use x="333.544922" xlink:href="#d"/>
<use x="394.824219" xlink:href="#j"/>
</g>
</g>
<path d="m870.6 454.71 4.7882-2.8235q2.0673-1.2191 0.84827-3.2864l-3.9328-6.6693q-1.2191-2.0673-3.2864-0.84827l-4.7882 2.8235q-2.0673 1.2191-0.84827 3.2864l3.9328 6.6693q1.2191 2.0673 3.2864 0.84827z" clip-path="url(#a)" fill="#fff" stroke="#fff"/>
<g clip-path="url(#a)">
<g transform="translate(868.54 451.21) rotate(-30.527) scale(.08 -.08)">
<use xlink:href="#ak"/>
</g>
</g>
<path d="m910.28 453.95 3.3532-3.7827q1.592-1.7959-0.20392-3.388l-5.7938-5.136q-1.7959-1.592-3.388 0.20392l-3.3532 3.7827q-1.592 1.7959 0.20392 3.388l5.7938 5.136q1.7959 1.592 3.388-0.20392z" clip-path="url(#a)" fill="#fff" stroke="#fff"/>
<g clip-path="url(#a)">
<g transform="translate(907.24 451.26) rotate(-48.444) scale(.08 -.08)">
<use xlink:href="#n"/>
</g>
</g>
<path d="m952.67 450.67 0.19468-5.0512q0.092431-2.3982-2.3058-2.4907l-7.7368-0.29819q-2.3982-0.092431-2.4907 2.3058l-0.19468 5.0512q-0.092432 2.3982 2.3058 2.4906l7.7368 0.29819q2.3982 0.092431 2.4906-2.3058z" clip-path="url(#a)" fill="#fff" stroke="#fff"/>
<g clip-path="url(#a)">
<g transform="translate(948.61 450.51) rotate(-87.793) scale(.08 -.08)">
<use xlink:href="#n"/>
</g>
</g>
<path d="m980.93 449.83 3.6128 4.2608q1.5521 1.8305 3.3827 0.2784l5.9054-5.0073q1.8305-1.5521 0.2784-3.3827l-3.6128-4.2608q-1.5521-1.8305-3.3827-0.2784l-5.9054 5.0073q-1.8305 1.5521-0.2784 3.3827z" clip-path="url(#a)" fill="#fff" stroke="#fff"/>
<g clip-path="url(#a)">
<g transform="translate(984.03 447.2) rotate(49.705) scale(.08 -.08)">
<use xlink:href="#s"/>
</g>
</g>
<path d="m1024.7 451.93 5.0997 2.8765q2.0904 1.1791 3.2695-0.91132l3.8037-6.7437q1.1791-2.0904-0.91132-3.2695l-5.0997-2.8765q-2.0904-1.1791-3.2695 0.91133l-3.8038 6.7437q-1.1791 2.0904 0.91133 3.2695z" clip-path="url(#a)" fill="#fff" stroke="#fff"/>
<g clip-path="url(#a)">
<g transform="translate(1026.7 448.39) rotate(29.425) scale(.08 -.08)">
<use xlink:href="#aj"/>
</g>
</g>
<path d="m785.06 522.91v33.808q0 2.4 2.4 2.4h7.7425q2.4 0 2.4-2.4v-33.808q0-2.4-2.4-2.4h-7.7425q-2.4 0-2.4 2.4z" clip-path="url(#a)" fill="#fff" stroke="#fff"/>
<g clip-path="url(#a)">
<g transform="translate(789.13 522.91) rotate(90) scale(.08 -.08)">
<use xlink:href="#l"/>
<use x="44.083984" xlink:href="#e"/>
<use x="105.607422" xlink:href="#h"/>
<use x="144.970703" xlink:href="#k"/>
<use x="242.382812" xlink:href="#f"/>
<use x="270.166016" xlink:href="#i"/>
<use x="333.544922" xlink:href="#d"/>
<use x="394.824219" xlink:href="#j"/>
</g>
</g>
<path d="m859.97 522.91v33.808q0 2.4 2.4 2.4h7.7425q2.4 0 2.4-2.4v-33.808q0-2.4-2.4-2.4h-7.7425q-2.4 0-2.4 2.4z" clip-path="url(#a)" fill="#fff" stroke="#fff"/>
<g clip-path="url(#a)">
<g transform="translate(864.03 522.91) rotate(90) scale(.08 -.08)">
<use xlink:href="#l"/>
<use x="44.083984" xlink:href="#e"/>
<use x="105.607422" xlink:href="#h"/>
<use x="144.970703" xlink:href="#k"/>
<use x="242.382812" xlink:href="#f"/>
<use x="270.166016" xlink:href="#i"/>
<use x="333.544922" xlink:href="#d"/>
<use x="394.824219" xlink:href="#j"/>
</g>
</g>
<path d="m938.44 522.91v33.808q0 2.4 2.4 2.4h7.7425q2.4 0 2.4-2.4v-33.808q0-2.4-2.4-2.4h-7.7425q-2.4 0-2.4 2.4z" clip-path="url(#a)" fill="#fff" stroke="#fff"/>
<g clip-path="url(#a)">
<g transform="translate(942.51 522.91) rotate(90) scale(.08 -.08)">
<use xlink:href="#l"/>
<use x="44.083984" xlink:href="#e"/>
<use x="105.607422" xlink:href="#h"/>
<use x="144.970703" xlink:href="#k"/>
<use x="242.382812" xlink:href="#f"/>
<use x="270.166016" xlink:href="#i"/>
<use x="333.544922" xlink:href="#d"/>
<use x="394.824219" xlink:href="#j"/>
</g>
</g>
<path d="m1020.5 522.91v33.808q0 2.4 2.4 2.4h7.7425q2.4 0 2.4-2.4v-33.808q0-2.4-2.4-2.4h-7.7425q-2.4 0-2.4 2.4z" clip-path="url(#a)" fill="#fff" stroke="#fff"/>
<g clip-path="url(#a)">
<g transform="translate(1024.5 522.91) rotate(90) scale(.08 -.08)">
<use xlink:href="#l"/>
<use x="44.083984" xlink:href="#e"/>
<use x="105.607422" xlink:href="#h"/>
<use x="144.970703" xlink:href="#k"/>
<use x="242.382812" xlink:href="#f"/>
<use x="270.166016" xlink:href="#i"/>
<use x="333.544922" xlink:href="#d"/>
<use x="394.824219" xlink:href="#j"/>
</g>
</g>
<path d="m410.53 522.91v33.808q0 2.4 2.4 2.4h7.7425q2.4 0 2.4-2.4v-33.808q0-2.4-2.4-2.4h-7.7425q-2.4 0-2.4 2.4z" clip-path="url(#a)" fill="#fff" stroke="#fff"/>
<g clip-path="url(#a)">
<g transform="translate(414.59 522.91) rotate(90) scale(.08 -.08)">
<use xlink:href="#l"/>
<use x="44.083984" xlink:href="#e"/>
<use x="105.607422" xlink:href="#h"/>
<use x="144.970703" xlink:href="#k"/>
<use x="242.382812" xlink:href="#f"/>
<use x="270.166016" xlink:href="#i"/>
<use x="333.544922" xlink:href="#d"/>
<use x="394.824219" xlink:href="#j"/>
</g>
</g>
<path d="m464.04 522.91v33.808q0 2.4 2.4 2.4h7.7425q2.4 0 2.4-2.4v-33.808q0-2.4-2.4-2.4h-7.7425q-2.4 0-2.4 2.4z" clip-path="url(#a)" fill="#fff" stroke="#fff"/>
<g clip-path="url(#a)">
<g transform="translate(468.1 522.91) rotate(90) scale(.08 -.08)">
<use xlink:href="#l"/>
<use x="44.083984" xlink:href="#e"/>
<use x="105.607422" xlink:href="#h"/>
<use x="144.970703" xlink:href="#k"/>
<use x="242.382812" xlink:href="#f"/>
<use x="270.166016" xlink:href="#i"/>
<use x="333.544922" xlink:href="#d"/>
<use x="394.824219" xlink:href="#j"/>
</g>
</g>
<path d="m521.11 522.91v33.808q0 2.4 2.4 2.4h7.7425q2.4 0 2.4-2.4v-33.808q0-2.4-2.4-2.4h-7.7425q-2.4 0-2.4 2.4z" clip-path="url(#a)" fill="#fff" stroke="#fff"/>
<g clip-path="url(#a)">
<g transform="translate(525.17 522.91) rotate(90) scale(.08 -.08)">
<use xlink:href="#l"/>
<use x="44.083984" xlink:href="#e"/>
<use x="105.607422" xlink:href="#h"/>
<use x="144.970703" xlink:href="#k"/>
<use x="242.382812" xlink:href="#f"/>
<use x="270.166016" xlink:href="#i"/>
<use x="333.544922" xlink:href="#d"/>
<use x="394.824219" xlink:href="#j"/>
</g>
</g>
<path d="m547.65 452.45 1.7037-5.2005q0.74718-2.2807-1.5336-3.0279l-7.3577-2.4104q-2.2807-0.74718-3.0279 1.5336l-1.7037 5.2005q-0.74718 2.2807 1.5336 3.0279l7.3577 2.4104q2.2807 0.74718 3.0279-1.5336z" clip-path="url(#a)" fill="#fff" stroke="#fff"/>
<g clip-path="url(#a)">
<g transform="translate(543.78 451.19) rotate(-71.861) scale(.08 -.08)">
<use xlink:href="#o"/>
</g>
</g>
<path d="m566.11 447.44 1.5811 4.8264q0.74718 2.2807 3.0279 1.5336l7.3577-2.4104q2.2807-0.74718 1.5336-3.0279l-1.5811-4.8264q-0.74718-2.2807-3.0279-1.5336l-7.3577 2.4104q-2.2807 0.74718-1.5336 3.0279z" clip-path="url(#a)" fill="#fff" stroke="#fff"/>
<g clip-path="url(#a)">
<defs>
<path id="am" d="m53.516 70.516v-9.625q-5.6094 2.6875-10.594 4-4.9844 1.3281-9.625 1.3281-8.0469 0-12.422-3.125t-4.375-8.8906q0-4.8438 2.9062-7.3125 2.9062-2.4531 11.016-3.9688l5.9531-1.2188q11.031-2.1094 16.281-7.4062t5.25-14.172q0-10.609-7.1094-16.078-7.0938-5.4688-20.812-5.4688-5.1719 0-11.016 1.1719-5.8281 1.1719-12.078 3.4688v10.156q6-3.3594 11.766-5.0781 5.7656-1.7031 11.328-1.7031 8.4375 0 13.031 3.3125 4.5938 3.3281 4.5938 9.4844 0 5.3594-3.2969 8.3906t-10.812 4.5469l-6.0156 1.1719q-11.031 2.1875-15.969 6.875-4.9219 4.6875-4.9219 13.047 0 9.6719 6.8125 15.234t18.766 5.5625q5.1406 0 10.453-0.9375 5.3281-0.92188 10.891-2.7656z"/>
</defs>
<g transform="translate(569.97 446.18) rotate(71.861) scale(.08 -.08)">
<use xlink:href="#am"/>
</g>
</g>
<path d="m581.75 522.91v33.808q0 2.4 2.4 2.4h7.7425q2.4 0 2.4-2.4v-33.808q0-2.4-2.4-2.4h-7.7425q-2.4 0-2.4 2.4z" clip-path="url(#a)" fill="#fff" stroke="#fff"/>
<g clip-path="url(#a)">
<g transform="translate(585.81 522.91) rotate(90) scale(.08 -.08)">
<use xlink:href="#l"/>
<use x="44.083984" xlink:href="#e"/>
<use x="105.607422" xlink:href="#h"/>
<use x="144.970703" xlink:href="#k"/>
<use x="242.382812" xlink:href="#f"/>
<use x="270.166016" xlink:href="#i"/>
<use x="333.544922" xlink:href="#d"/>
<use x="394.824219" xlink:href="#j"/>
</g>
</g>
<path d="m271.42 522.91v33.808q0 2.4 2.4 2.4h7.7425q2.4 0 2.4-2.4v-33.808q0-2.4-2.4-2.4h-7.7425q-2.4 0-2.4 2.4z" clip-path="url(#a)" fill="#fff" stroke="#fff"/>
<g clip-path="url(#a)">
<g transform="translate(275.48 522.91) rotate(90) scale(.08 -.08)">
<use xlink:href="#l"/>
<use x="44.083984" xlink:href="#e"/>
<use x="105.607422" xlink:href="#h"/>
<use x="144.970703" xlink:href="#k"/>
<use x="242.382812" xlink:href="#f"/>
<use x="270.166016" xlink:href="#i"/>
<use x="333.544922" xlink:href="#d"/>
<use x="394.824219" xlink:href="#j"/>
</g>
</g>
<path d="m314.22 522.91v33.808q0 2.4 2.4 2.4h7.7425q2.4 0 2.4-2.4v-33.808q0-2.4-2.4-2.4h-7.7425q-2.4 0-2.4 2.4z" clip-path="url(#a)" fill="#fff" stroke="#fff"/>
<g clip-path="url(#a)">
<g transform="translate(318.29 522.91) rotate(90) scale(.08 -.08)">
<use xlink:href="#l"/>
<use x="44.083984" xlink:href="#e"/>
<use x="105.607422" xlink:href="#h"/>
<use x="144.970703" xlink:href="#k"/>
<use x="242.382812" xlink:href="#f"/>
<use x="270.166016" xlink:href="#i"/>
<use x="333.544922" xlink:href="#d"/>
<use x="394.824219" xlink:href="#j"/>
</g>
</g>
<path d="m110.9 522.91v33.808q0 2.4 2.4 2.4h7.7425q2.4 0 2.4-2.4v-33.808q0-2.4-2.4-2.4h-7.7425q-2.4 0-2.4 2.4z" clip-path="url(#a)" fill="#fff" stroke="#fff"/>
<g clip-path="url(#a)">
<g transform="translate(114.97 522.91) rotate(90) scale(.08 -.08)">
<use xlink:href="#l"/>
<use x="44.083984" xlink:href="#e"/>
<use x="105.607422" xlink:href="#h"/>
<use x="144.970703" xlink:href="#k"/>
<use x="242.382812" xlink:href="#f"/>
<use x="270.166016" xlink:href="#i"/>
<use x="333.544922" xlink:href="#d"/>
<use x="394.824219" xlink:href="#j"/>
</g>
</g>
<path d="m135.87 522.91v33.808q0 2.4 2.4 2.4h7.7425q2.4 0 2.4-2.4v-33.808q0-2.4-2.4-2.4h-7.7425q-2.4 0-2.4 2.4z" clip-path="url(#a)" fill="#fff" stroke="#fff"/>
<g clip-path="url(#a)">
<g transform="translate(139.94 522.91) rotate(90) scale(.08 -.08)">
<use xlink:href="#l"/>
<use x="44.083984" xlink:href="#e"/>
<use x="105.607422" xlink:href="#h"/>
<use x="144.970703" xlink:href="#k"/>
<use x="242.382812" xlink:href="#f"/>
<use x="270.166016" xlink:href="#i"/>
<use x="333.544922" xlink:href="#d"/>
<use x="394.824219" xlink:href="#j"/>
</g>
</g>
<path d="m89.502 522.91v33.808q0 2.4 2.4 2.4h7.7425q2.4 0 2.4-2.4v-33.808q0-2.4-2.4-2.4h-7.7425q-2.4 0-2.4 2.4z" clip-path="url(#a)" fill="#fff" stroke="#fff"/>
<g clip-path="url(#a)">
<g transform="translate(93.566 522.91) rotate(90) scale(.08 -.08)">
<use xlink:href="#l"/>
<use x="44.083984" xlink:href="#e"/>
<use x="105.607422" xlink:href="#h"/>
<use x="144.970703" xlink:href="#k"/>
<use x="242.382812" xlink:href="#f"/>
<use x="270.166016" xlink:href="#i"/>
<use x="333.544922" xlink:href="#d"/>
<use x="394.824219" xlink:href="#j"/>
</g>
</g>
<path d="m1106.1 522.91v33.808q0 2.4 2.4 2.4h7.7425q2.4 0 2.4-2.4v-33.808q0-2.4-2.4-2.4h-7.7425q-2.4 0-2.4 2.4z" clip-path="url(#a)" fill="#fff" stroke="#fff"/>
<g clip-path="url(#a)">
<g transform="translate(1110.2 522.91) rotate(90) scale(.08 -.08)">
<use xlink:href="#l"/>
<use x="44.083984" xlink:href="#e"/>
<use x="105.607422" xlink:href="#h"/>
<use x="144.970703" xlink:href="#k"/>
<use x="242.382812" xlink:href="#f"/>
<use x="270.166016" xlink:href="#i"/>
<use x="333.544922" xlink:href="#d"/>
<use x="394.824219" xlink:href="#j"/>
</g>
</g>
<defs>
<path id="b" d="m0 8.6603c2.2967 0 4.4997-0.9125 6.1237-2.5365 1.624-1.624 2.5365-3.827 2.5365-6.1237s-0.9125-4.4997-2.5365-6.1237c-1.624-1.624-3.827-2.5365-6.1237-2.5365s-4.4997 0.9125-6.1237 2.5365c-1.624 1.624-2.5365 3.827-2.5365 6.1237s0.9125 4.4997 2.5365 6.1237c1.624 1.624 3.827 2.5365 6.1237 2.5365z"/>
</defs>
<g clip-path="url(#a)" fill="#ffffff" stroke="#ffffff">
<use x="52.969697" y="585.454545" xlink:href="#b"/>
<use x="63.670646" y="585.454545" xlink:href="#b"/>
<use x="77.938578" y="585.454545" xlink:href="#b"/>
<use x="95.773493" y="585.454545" xlink:href="#b"/>
<use x="117.17539" y="585.454545" xlink:href="#b"/>
<use x="142.144271" y="585.454545" xlink:href="#b"/>
<use x="170.680135" y="585.454545" xlink:href="#b"/>
<use x="202.782981" y="585.454545" xlink:href="#b"/>
<use x="238.452811" y="585.454545" xlink:href="#b"/>
<use x="277.689624" y="585.454545" xlink:href="#b"/>
<use x="320.493419" y="585.454545" xlink:href="#b"/>
<use x="366.864198" y="585.454545" xlink:href="#b"/>
<use x="416.801959" y="585.454545" xlink:href="#b"/>
<use x="470.306703" y="585.454545" xlink:href="#b"/>
<use x="527.378431" y="585.454545" xlink:href="#b"/>
<use x="588.017141" y="585.454545" xlink:href="#b"/>
<use x="652.222834" y="585.454545" xlink:href="#b"/>
<use x="719.995511" y="585.454545" xlink:href="#b"/>
<use x="791.33517" y="585.454545" xlink:href="#b"/>
<use x="866.241812" y="585.454545" xlink:href="#b"/>
<use x="944.715437" y="585.454545" xlink:href="#b"/>
<use x="1026.756045" y="585.454545" xlink:href="#b"/>
<use x="1112.363636" y="585.454545" xlink:href="#b"/>
<use x="229.672831" y="27.878788" xlink:href="#b"/>
<use x="229.672831" y="121.65446" xlink:href="#b"/>
<use x="64.85964" y="494.175494" xlink:href="#b"/>
<use x="129.659831" y="401.62665" xlink:href="#b"/>
<use x="170.680135" y="494.175494" xlink:href="#b"/>
<use x="202.782981" y="494.175494" xlink:href="#b"/>
<use x="238.452811" y="494.175494" xlink:href="#b"/>
<use x="299.091521" y="401.62665" xlink:href="#b"/>
<use x="636.082237" y="215.241506" xlink:href="#b"/>
<use x="366.864198" y="494.175494" xlink:href="#b"/>
<use x="493.04622" y="308.592395" xlink:href="#b"/>
<use x="652.222834" y="494.175494" xlink:href="#b"/>
<use x="719.995511" y="494.175494" xlink:href="#b"/>
<use x="948.28242" y="401.62665" xlink:href="#b"/>
<use x="791.33517" y="494.175494" xlink:href="#b"/>
<use x="866.241812" y="494.175494" xlink:href="#b"/>
<use x="944.715437" y="494.175494" xlink:href="#b"/>
<use x="1026.756045" y="494.175494" xlink:href="#b"/>
<use x="416.801959" y="494.175494" xlink:href="#b"/>
<use x="470.306703" y="494.175494" xlink:href="#b"/>
<use x="527.378431" y="494.175494" xlink:href="#b"/>
<use x="557.697786" y="401.62665" xlink:href="#b"/>
<use x="588.017141" y="494.175494" xlink:href="#b"/>
<use x="277.689624" y="494.175494" xlink:href="#b"/>
<use x="320.493419" y="494.175494" xlink:href="#b"/>
<use x="117.17539" y="494.175494" xlink:href="#b"/>
<use x="142.144271" y="494.175494" xlink:href="#b"/>
<use x="95.773493" y="494.175494" xlink:href="#b"/>
<use x="1112.363636" y="494.175494" xlink:href="#b"/>
</g>
<g clip-path="url(#a)">
<defs>
<path id="t" d="m44.281 53.078v-8.5q-3.7969 1.9531-7.9062 2.9219-4.0938 0.98438-8.5 0.98438-6.6875 0-10.031-2.0469t-3.3438-6.1562q0-3.125 2.3906-4.9062t9.625-3.3906l3.0781-0.6875q9.5625-2.0469 13.594-5.7812t4.0312-10.422q0-7.625-6.0312-12.078-6.0312-4.4375-16.578-4.4375-4.3906 0-9.1562 0.85938t-10.031 2.5625v9.2812q4.9844-2.5938 9.8125-3.8906 4.8281-1.2812 9.5781-1.2812 6.3438 0 9.75 2.1719 3.4219 2.1719 3.4219 6.125 0 3.6562-2.4688 5.6094-2.4531 1.9531-10.812 3.7656l-3.125 0.73438q-8.3438 1.75-12.062 5.3906-3.7031 3.6406-3.7031 9.9844 0 7.7188 5.4688 11.906 5.4688 4.2031 15.531 4.2031 4.9688 0 9.3594-0.73438 4.4062-0.71875 8.1094-2.1875z"/>
</defs>
<g transform="translate(46.945 588.21) scale(.1 -.1)">
<use xlink:href="#o"/>
<use x="68.408203" xlink:href="#t"/>
</g>
</g>
<g clip-path="url(#a)">
<defs>
<path id="an" d="m9.8125 72.906h9.8594v-72.906h-9.8594z"/>
</defs>
<g transform="translate(62.196 588.21) scale(.1 -.1)">
<use xlink:href="#an"/>
</g>
</g>
<g clip-path="url(#a)">
<defs>
<path id="r" d="m45.406 46.391v29.594h8.9844v-75.984h-8.9844v8.2031q-2.8281-4.875-7.1562-7.25-4.3125-2.375-10.375-2.375-9.9062 0-16.141 7.9062-6.2188 7.9219-6.2188 20.812t6.2188 20.797q6.2344 7.9062 16.141 7.9062 6.0625 0 10.375-2.375 4.3281-2.3594 7.1562-7.2344zm-30.609-19.094q0-9.9062 4.0781-15.547t11.203-5.6406 11.219 5.6406q4.1094 5.6406 4.1094 15.547t-4.1094 15.547q-4.0938 5.6406-11.219 5.6406t-11.203-5.6406-4.0781-15.547z"/>
</defs>
<g transform="translate(67.707 588.21) scale(.1 -.1)">
<use xlink:href="#t"/>
<use x="52.099609" xlink:href="#d"/>
<use x="113.378906" xlink:href="#f"/>
<use x="141.162109" xlink:href="#r"/>
</g>
</g>
<g clip-path="url(#a)">
<defs>
<path id="ar" d="m11.719 12.406h10.297v-8.4062l-8-15.625h-6.2969l4 15.625z"/>
</defs>
<g transform="translate(94.184 588.21) scale(.1 -.1)">
<use xlink:href="#ar"/>
</g>
</g>
<g clip-path="url(#a)">
<defs>
<path id="ah" d="m30.609 48.391q-7.2188 0-11.422-5.6406t-4.2031-15.453 4.1719-15.453q4.1875-5.6406 11.453-5.6406 7.1875 0 11.375 5.6562 4.2031 5.6719 4.2031 15.438 0 9.7188-4.2031 15.406-4.1875 5.6875-11.375 5.6875zm0 7.6094q11.719 0 18.406-7.625 6.7031-7.6094 6.7031-21.078 0-13.422-6.7031-21.078-6.6875-7.6406-18.406-7.6406-11.766 0-18.438 7.6406-6.6562 7.6562-6.6562 21.078 0 13.469 6.6562 21.078 6.6719 7.625 18.438 7.625z"/>
</defs>
<g transform="translate(86.345 588.21) scale(.1 -.1)">
<use xlink:href="#s"/>
<use x="69.824219" xlink:href="#ah"/>
<use x="131.005859" xlink:href="#k"/>
<use x="228.417969" xlink:href="#k"/>
<use x="325.830078" xlink:href="#d"/>
<use x="387.109375" xlink:href="#i"/>
<use x="450.488281" xlink:href="#r"/>
<use x="513.964844" xlink:href="#e"/>
<use x="575.488281" xlink:href="#h"/>
</g>
</g>
<g clip-path="url(#a)">
<defs>
<path id="w" d="m45.406 27.984q0 9.7656-4.0312 15.125-4.0156 5.375-11.297 5.375-7.2188 0-11.25-5.375-4.0312-5.3594-4.0312-15.125 0-9.7188 4.0312-15.094t11.25-5.375q7.2812 0 11.297 5.375 4.0312 5.375 4.0312 15.094zm8.9844-21.203q0-13.953-6.2031-20.766-6.1875-6.8125-18.984-6.8125-4.7344 0-8.9375 0.70312t-8.1562 2.1719v8.7344q3.9531-2.1406 7.8125-3.1562 3.8594-1.0312 7.8594-1.0312 8.8438 0 13.234 4.6094t4.3906 13.938v4.4531q-2.7812-4.8438-7.125-7.2344t-10.406-2.3906q-10.047 0-16.203 7.6562-6.1562 7.6719-6.1562 20.328 0 12.688 6.1562 20.344 6.1562 7.6719 16.203 7.6719 6.0625 0 10.406-2.3906t7.125-7.2188v8.2969h8.9844z"/>
<path id="af" d="m8.5 21.578v33.109h8.9844v-32.766q0-7.7656 3.0156-11.656 3.0312-3.875 9.0938-3.875 7.2656 0 11.484 4.6406 4.2344 4.6406 4.2344 12.656v31h8.9844v-54.688h-8.9844v8.4062q-3.2656-4.9844-7.5938-7.4062-4.3125-2.4219-10.031-2.4219-9.4219 0-14.312 5.8594-4.875 5.8594-4.875 17.141z"/>
<path id="p" d="m18.312 70.219v-15.531h18.5v-6.9844h-18.5v-29.688q0-6.6875 1.8281-8.5938t7.4531-1.9062h9.2188v-7.5156h-9.2188q-10.406 0-14.359 3.875-3.9531 3.8906-3.9531 14.141v29.688h-6.5938v6.9844h6.5938v15.531z"/>
</defs>
<g transform="translate(121.27 588.21) scale(.1 -.1)">
<use xlink:href="#x"/>
<use x="48.394531" xlink:href="#d"/>
<use x="109.673828" xlink:href="#h"/>
<use x="149.037109" xlink:href="#h"/>
<use x="190.150391" xlink:href="#d"/>
<use x="251.429688" xlink:href="#w"/>
<use x="314.90625" xlink:href="#af"/>
<use x="378.285156" xlink:href="#p"/>
</g>
</g>
<g clip-path="url(#a)">
<defs>
<path id="q" d="m54.891 33.016v-33.016h-8.9844v32.719q0 7.7656-3.0312 11.609-3.0312 3.8594-9.0781 3.8594-7.2812 0-11.484-4.6406-4.2031-4.625-4.2031-12.641v-30.906h-9.0312v75.984h9.0312v-29.797q3.2344 4.9375 7.5938 7.375 4.375 2.4375 10.094 2.4375 9.4219 0 14.25-5.8281 4.8438-5.8281 4.8438-17.156z"/>
</defs>
<g transform="translate(161.27 588.21) scale(.1 -.1)">
<use xlink:href="#q"/>
<use x="63.378906" xlink:href="#d"/>
<use x="124.658203" xlink:href="#r"/>
</g>
</g>
<g clip-path="url(#a)">
<defs>
<path id="u" d="m48.781 52.594v-8.4062q-3.8125 2.1094-7.6406 3.1562t-7.7344 1.0469q-8.75 0-13.594-5.5469-4.8281-5.5312-4.8281-15.547t4.8281-15.562q4.8438-5.5312 13.594-5.5312 3.9062 0 7.7344 1.0469t7.6406 3.1562v-8.3125q-3.7656-1.75-7.7969-2.625-4.0156-0.89062-8.5625-0.89062-12.359 0-19.641 7.7656-7.2656 7.7656-7.2656 20.953 0 13.375 7.3438 21.031 7.3594 7.6719 20.156 7.6719 4.1406 0 8.0938-0.85938 3.9531-0.84375 7.6719-2.5469z"/>
<path id="ai" d="m37.109 75.984v-7.4844h-8.5938q-4.8281 0-6.7188-1.9531-1.875-1.9531-1.875-7.0312v-4.8281h14.797v-6.9844h-14.797v-47.703h-9.0312v47.703h-8.5938v6.9844h8.5938v3.8125q0 9.125 4.25 13.297 4.25 4.1875 13.469 4.1875z"/>
<path id="as" d="m32.172-5.0781q-3.7969-9.7656-7.4219-12.734-3.6094-2.9844-9.6562-2.9844h-7.1875v7.5156h5.2812q3.7031 0 5.75 1.7656 2.0625 1.75 4.5469 8.2969l1.6094 4.0938-22.109 53.812h9.5156l17.094-42.766 17.094 42.766h9.5156z"/>
</defs>
<g transform="translate(181.28 588.21) scale(.1 -.1)">
<use xlink:href="#u"/>
<use x="54.980469" xlink:href="#d"/>
<use x="116.259766" xlink:href="#h"/>
<use x="155.123047" xlink:href="#e"/>
<use x="216.646484" xlink:href="#ai"/>
<use x="251.851562" xlink:href="#af"/>
<use x="315.230469" xlink:href="#j"/>
<use x="343.013672" xlink:href="#j"/>
<use x="370.796875" xlink:href="#as"/>
</g>
</g>
<g clip-path="url(#a)">
<defs>
<path id="au" d="m14.797 27.297q0-9.9062 4.0781-15.547t11.203-5.6406 11.219 5.6406q4.1094 5.6406 4.1094 15.547t-4.1094 15.547q-4.0938 5.6406-11.219 5.6406t-11.203-5.6406-4.0781-15.547zm30.609-19.094q-2.8281-4.875-7.1562-7.25-4.3125-2.375-10.375-2.375-9.9062 0-16.141 7.9062-6.2188 7.9219-6.2188 20.812t6.2188 20.797q6.2344 7.9062 16.141 7.9062 6.0625 0 10.375-2.375 4.3281-2.3594 7.1562-7.2344v8.2969h8.9844v-75.484h-8.9844z"/>
<path id="ag" d="m18.109 8.2031v-29h-9.0312v75.484h9.0312v-8.2969q2.8438 4.875 7.1562 7.2344 4.3281 2.375 10.328 2.375 9.9688 0 16.188-7.9062 6.2344-7.9062 6.2344-20.797t-6.2344-20.812q-6.2188-7.9062-16.188-7.9062-6 0-10.328 2.375-4.3125 2.375-7.1562 7.25zm30.578 19.094q0 9.9062-4.0781 15.547t-11.203 5.6406q-7.1406 0-11.219-5.6406t-4.0781-15.547 4.0781-15.547 11.219-5.6406q7.125 0 11.203 5.6406t4.0781 15.547z"/>
</defs>
<g transform="translate(215.04 588.21) scale(.1 -.1)">
<use xlink:href="#e"/>
<use x="61.523438" xlink:href="#au"/>
<use x="125" xlink:href="#af"/>
<use x="188.378906" xlink:href="#f"/>
<use x="216.162109" xlink:href="#ag"/>
<use x="279.638672" xlink:href="#ag"/>
<use x="343.115234" xlink:href="#e"/>
<use x="404.638672" xlink:href="#r"/>
</g>
</g>
<g clip-path="url(#a)">
<g transform="translate(270.53 588.21) scale(.1 -.1)">
<use xlink:href="#q"/>
<use x="63.378906" xlink:href="#f"/>
<use x="91.162109" xlink:href="#t"/>
</g>
</g>
<g clip-path="url(#a)">
<g transform="translate(310.16 588.21) scale(.1 -.1)">
<use xlink:href="#t"/>
<use x="52.099609" xlink:href="#q"/>
<use x="115.478516" xlink:href="#f"/>
<use x="143.261719" xlink:href="#ag"/>
</g>
</g>
<g clip-path="url(#a)">
<defs>
<path id="at" d="m4.2031 54.688h8.9844l11.234-42.672 11.172 42.672h10.594l11.234-42.672 11.188 42.672h8.9844l-14.312-54.688h-10.594l-11.766 44.828-11.812-44.828h-10.609z"/>
</defs>
<g transform="translate(356.26 588.21) scale(.1 -.1)">
<use xlink:href="#at"/>
<use x="81.787109" xlink:href="#f"/>
<use x="109.570312" xlink:href="#p"/>
<use x="148.779297" xlink:href="#q"/>
</g>
</g>
<g clip-path="url(#a)">
<g transform="translate(410.96 588.21) scale(.1 -.1)">
<use xlink:href="#d"/>
<use x="61.279297" xlink:href="#j"/>
<use x="89.0625" xlink:href="#j"/>
</g>
</g>
<g clip-path="url(#a)">
<g transform="translate(462.1 588.21) scale(.1 -.1)">
<use xlink:href="#p"/>
<use x="39.208984" xlink:href="#q"/>
<use x="102.587891" xlink:href="#e"/>
</g>
</g>
<g clip-path="url(#a)">
<g transform="translate(516.01 588.21) scale(.1 -.1)">
<use xlink:href="#w"/>
<use x="63.476562" xlink:href="#e"/>
<use x="125" xlink:href="#d"/>
<use x="186.279297" xlink:href="#h"/>
</g>
</g>
<g clip-path="url(#a)">
<g transform="translate(569.27 588.21) scale(.1 -.1)">
<use xlink:href="#i"/>
<use x="63.378906" xlink:href="#e"/>
<use x="124.902344" xlink:href="#e"/>
<use x="186.425781" xlink:href="#r"/>
<use x="249.902344" xlink:href="#e"/>
<use x="311.425781" xlink:href="#r"/>
</g>
</g>
<g clip-path="url(#a)">
<g transform="translate(647.2 588.21) scale(.1 -.1)">
<use xlink:href="#p"/>
<use x="39.208984" xlink:href="#ah"/>
</g>
</g>
<g clip-path="url(#a)">
<g transform="translate(711.07 588.21) scale(.1 -.1)">
<use xlink:href="#ai"/>
<use x="35.205078" xlink:href="#f"/>
<use x="62.988281" xlink:href="#t"/>
<use x="115.087891" xlink:href="#q"/>
</g>
</g>
<g clip-path="url(#a)">
<g transform="translate(784.46 588.21) scale(.1 -.1)">
<use xlink:href="#ai"/>
<use x="35.205078" xlink:href="#ah"/>
<use x="96.386719" xlink:href="#h"/>
</g>
</g>
<g clip-path="url(#a)">
<g transform="translate(863.18 588.21) scale(.1 -.1)">
<use xlink:href="#d"/>
</g>
</g>
<g clip-path="url(#a)">
<g transform="translate(924.65 588.21) scale(.1 -.1)">
<use xlink:href="#w"/>
<use x="63.476562" xlink:href="#f"/>
<use x="91.259766" xlink:href="#w"/>
<use x="154.736328" xlink:href="#d"/>
<use x="216.015625" xlink:href="#i"/>
<use x="279.394531" xlink:href="#p"/>
<use x="318.603516" xlink:href="#f"/>
<use x="346.386719" xlink:href="#u"/>
</g>
</g>
<g clip-path="url(#a)">
<g transform="translate(1003.8 588.21) scale(.1 -.1)">
<use xlink:href="#u"/>
<use x="54.980469" xlink:href="#e"/>
<use x="116.503906" xlink:href="#p"/>
<use x="155.712891" xlink:href="#d"/>
<use x="216.992188" xlink:href="#u"/>
<use x="271.972656" xlink:href="#e"/>
<use x="333.496094" xlink:href="#d"/>
<use x="394.775391" xlink:href="#i"/>
</g>
</g>
<g clip-path="url(#a)">
<defs>
<path id="g" d="m10.688 12.406h10.312v-12.406h-10.312z"/>
</defs>
<g transform="translate(1110.8 588.21) scale(.1 -.1)">
<use xlink:href="#g"/>
</g>
</g>
<g clip-path="url(#a)">
<defs>
<path id="c" d="m12.406 8.2969h16.109v55.625l-17.531-3.5156v8.9844l17.438 3.5156h9.8594v-64.609h16.109v-8.2969h-41.984z"/>
</defs>
<g transform="translate(221.72 30.638) scale(.1 -.1)">
<use xlink:href="#c"/>
<use x="63.623047" xlink:href="#g"/>
<use x="95.410156" xlink:href="#c"/>
</g>
</g>
<g clip-path="url(#a)">
<defs>
<path id="m" d="m19.188 8.2969h34.422v-8.2969h-46.281v8.2969q5.6094 5.8125 15.297 15.594 9.7031 9.7969 12.188 12.641 4.7344 5.3125 6.6094 9 1.8906 3.6875 1.8906 7.25 0 5.8125-4.0781 9.4688-4.0781 3.6719-10.625 3.6719-4.6406 0-9.7969-1.6094-5.1406-1.6094-11-4.8906v9.9688q5.9531 2.3906 11.125 3.6094 5.1875 1.2188 9.4844 1.2188 11.328 0 18.062-5.6719 6.7344-5.6562 6.7344-15.125 0-4.5-1.6875-8.5312-1.6719-4.0156-6.125-9.4844-1.2188-1.4219-7.7656-8.1875-6.5312-6.7656-18.453-18.922z"/>
</defs>
<g transform="translate(221.72 124.41) scale(.1 -.1)">
<use xlink:href="#c"/>
<use x="63.623047" xlink:href="#g"/>
<use x="95.410156" xlink:href="#m"/>
</g>
</g>
<g clip-path="url(#a)">
<defs>
<path id="ad" d="m37.797 64.312-24.906-38.922h24.906zm-2.5938 8.5938h12.406v-47.516h10.406v-8.2031h-10.406v-17.188h-9.8125v17.188h-32.906v9.5156z"/>
</defs>
<g transform="translate(56.908 496.93) scale(.1 -.1)">
<use xlink:href="#c"/>
<use x="63.623047" xlink:href="#g"/>
<use x="95.410156" xlink:href="#ad"/>
</g>
</g>
<g clip-path="url(#a)">
<defs>
<path id="ac" d="m10.797 72.906h38.719v-8.3125h-29.688v-17.859q2.1406 0.73438 4.2812 1.0938 2.1562 0.35938 4.3125 0.35938 12.203 0 19.328-6.6875 7.1406-6.6875 7.1406-18.109 0-11.766-7.3281-18.297-7.3281-6.5156-20.656-6.5156-4.5938 0-9.3594 0.78125-4.75 0.78125-9.8281 2.3438v9.9219q4.3906-2.3906 9.0781-3.5625t9.9062-1.1719q8.4531 0 13.375 4.4375 4.9375 4.4375 4.9375 12.062 0 7.6094-4.9375 12.047-4.9219 4.4531-13.375 4.4531-3.9531 0-7.8906-0.875-3.9219-0.875-8.0156-2.7344z"/>
</defs>
<g transform="translate(121.71 404.39) scale(.1 -.1)">
<use xlink:href="#c"/>
<use x="63.623047" xlink:href="#g"/>
<use x="95.410156" xlink:href="#ac"/>
</g>
</g>
<g clip-path="url(#a)">
<defs>
<path id="ab" d="m33.016 40.375q-6.6406 0-10.531-4.5469-3.875-4.5312-3.875-12.438 0-7.8594 3.875-12.438 3.8906-4.5625 10.531-4.5625t10.516 4.5625q3.875 4.5781 3.875 12.438 0 7.9062-3.875 12.438-3.875 4.5469-10.516 4.5469zm19.578 30.922v-8.9844q-3.7188 1.75-7.5 2.6719-3.7812 0.9375-7.5 0.9375-9.7656 0-14.922-6.5938-5.1406-6.5938-5.875-19.922 2.875 4.25 7.2188 6.5156 4.3594 2.2656 9.5781 2.2656 10.984 0 17.359-6.6719 6.375-6.6562 6.375-18.125 0-11.234-6.6406-18.031-6.6406-6.7812-17.672-6.7812-12.656 0-19.344 9.6875-6.6875 9.7031-6.6875 28.109 0 17.281 8.2031 27.562t22.016 10.281q3.7188 0 7.5-0.73438t7.8906-2.1875z"/>
</defs>
<g transform="translate(162.73 496.93) scale(.1 -.1)">
<use xlink:href="#c"/>
<use x="63.623047" xlink:href="#g"/>
<use x="95.410156" xlink:href="#ab"/>
</g>
</g>
<g clip-path="url(#a)">
<defs>
<path id="aa" d="m8.2031 72.906h46.875v-4.2031l-26.469-68.703h-10.297l24.906 64.594h-35.016z"/>
</defs>
<g transform="translate(194.83 496.93) scale(.1 -.1)">
<use xlink:href="#c"/>
<use x="63.623047" xlink:href="#g"/>
<use x="95.410156" xlink:href="#aa"/>
</g>
</g>
<g clip-path="url(#a)">
<defs>
<path id="z" d="m31.781 34.625q-7.0312 0-11.062-3.7656-4.0156-3.7656-4.0156-10.344 0-6.5938 4.0156-10.359 4.0312-3.7656 11.062-3.7656t11.078 3.7812q4.0625 3.7969 4.0625 10.344 0 6.5781-4.0312 10.344-4.0156 3.7656-11.109 3.7656zm-9.8594 4.1875q-6.3438 1.5625-9.8906 5.9062-3.5312 4.3594-3.5312 10.609 0 8.7344 6.2188 13.812 6.2344 5.0781 17.062 5.0781 10.891 0 17.094-5.0781t6.2031-13.812q0-6.25-3.5469-10.609-3.5312-4.3438-9.8281-5.9062 7.125-1.6562 11.094-6.5 3.9844-4.8281 3.9844-11.797 0-10.609-6.4688-16.281-6.4688-5.6562-18.531-5.6562-12.047 0-18.531 5.6562-6.4688 5.6719-6.4688 16.281 0 6.9688 4 11.797 4.0156 4.8438 11.141 6.5zm-3.6094 15.578q0-5.6562 3.5312-8.8281 3.5469-3.1719 9.9375-3.1719 6.3594 0 9.9375 3.1719 3.5938 3.1719 3.5938 8.8281 0 5.6719-3.5938 8.8438-3.5781 3.1719-9.9375 3.1719-6.3906 0-9.9375-3.1719-3.5312-3.1719-3.5312-8.8438z"/>
</defs>
<g transform="translate(230.5 496.93) scale(.1 -.1)">
<use xlink:href="#c"/>
<use x="63.623047" xlink:href="#g"/>
<use x="95.410156" xlink:href="#z"/>
</g>
</g>
<g clip-path="url(#a)">
<defs>
<path id="y" d="m10.984 1.5156v8.9844q3.7188-1.7656 7.5156-2.6875 3.8125-0.92188 7.4844-0.92188 9.7656 0 14.906 6.5625 5.1562 6.5625 5.8906 19.953-2.8281-4.2031-7.1875-6.4531-4.3438-2.25-9.6094-2.25-10.938 0-17.312 6.6094-6.375 6.625-6.375 18.109 0 11.219 6.6406 18 6.6406 6.7969 17.672 6.7969 12.656 0 19.312-9.7031 6.6719-9.6875 6.6719-28.141 0-17.234-8.1875-27.516-8.1719-10.281-21.984-10.281-3.7188 0-7.5312 0.73438-3.7969 0.73438-7.9062 2.2031zm19.625 30.906q6.6406 0 10.516 4.5312 3.8906 4.5469 3.8906 12.469 0 7.8594-3.8906 12.422-3.875 4.5625-10.516 4.5625t-10.516-4.5625-3.875-12.422q0-7.9219 3.875-12.469 3.875-4.5312 10.516-4.5312z"/>
</defs>
<g transform="translate(291.14 404.39) scale(.1 -.1)">
<use xlink:href="#c"/>
<use x="63.623047" xlink:href="#g"/>
<use x="95.410156" xlink:href="#y"/>
</g>
</g>
<g clip-path="url(#a)">
<defs>
<path id="ae" d="m31.781 66.406q-7.6094 0-11.453-7.5-3.8281-7.4844-3.8281-22.531 0-14.984 3.8281-22.484 3.8438-7.5 11.453-7.5 7.6719 0 11.5 7.5 3.8438 7.5 3.8438 22.484 0 15.047-3.8438 22.531-3.8281 7.5-11.5 7.5zm0 7.8125q12.266 0 18.734-9.7031 6.4688-9.6875 6.4688-28.141 0-18.406-6.4688-28.109-6.4688-9.6875-18.734-9.6875-12.25 0-18.719 9.6875-6.4688 9.7031-6.4688 28.109 0 18.453 6.4688 28.141 6.4688 9.7031 18.719 9.7031z"/>
</defs>
<g transform="translate(624.95 218) scale(.1 -.1)">
<use xlink:href="#c"/>
<use x="63.623047" xlink:href="#g"/>
<use x="95.410156" xlink:href="#c"/>
<use x="159.033203" xlink:href="#ae"/>
</g>
</g>
<g clip-path="url(#a)">
<g transform="translate(355.73 496.93) scale(.1 -.1)">
<use xlink:href="#c"/>
<use x="63.623047" xlink:href="#g"/>
<use x="95.410156" xlink:href="#c"/>
<use x="159.033203" xlink:href="#m"/>
</g>
</g>
<g clip-path="url(#a)">
<defs>
<path id="v" d="m40.578 39.312q7.0781-1.5156 11.047-6.3125 3.9844-4.7812 3.9844-11.812 0-10.781-7.4219-16.703-7.4219-5.9062-21.094-5.9062-4.5781 0-9.4375 0.90625t-10.031 2.7188v9.5156q4.0938-2.3906 8.9688-3.6094 4.8906-1.2188 10.219-1.2188 9.2656 0 14.125 3.6562t4.8594 10.641q0 6.4531-4.5156 10.078-4.5156 3.6406-12.562 3.6406h-8.5v8.1094h8.8906q7.2656 0 11.125 2.9062t3.8594 8.375q0 5.6094-3.9844 8.6094-3.9688 3.0156-11.391 3.0156-4.0625 0-8.7031-0.89062-4.6406-0.875-10.203-2.7188v8.7812q5.625 1.5625 10.531 2.3438t9.25 0.78125q11.234 0 17.766-5.1094 6.5469-5.0938 6.5469-13.781 0-6.0625-3.4688-10.234t-9.8594-5.7812z"/>
</defs>
<g transform="translate(481.91 311.35) scale(.1 -.1)">
<use xlink:href="#c"/>
<use x="63.623047" xlink:href="#g"/>
<use x="95.410156" xlink:href="#c"/>
<use x="159.033203" xlink:href="#v"/>
</g>
</g>
<g clip-path="url(#a)">
<g transform="translate(641.09 496.93) scale(.1 -.1)">
<use xlink:href="#c"/>
<use x="63.623047" xlink:href="#g"/>
<use x="95.410156" xlink:href="#c"/>
<use x="159.033203" xlink:href="#ad"/>
</g>
</g>
<g clip-path="url(#a)">
<g transform="translate(708.86 496.93) scale(.1 -.1)">
<use xlink:href="#c"/>
<use x="63.623047" xlink:href="#g"/>
<use x="95.410156" xlink:href="#c"/>
<use x="159.033203" xlink:href="#ac"/>
</g>
</g>
<g clip-path="url(#a)">
<g transform="translate(937.15 404.39) scale(.1 -.1)">
<use xlink:href="#c"/>
<use x="63.623047" xlink:href="#g"/>
<use x="95.410156" xlink:href="#c"/>
<use x="159.033203" xlink:href="#ab"/>
</g>
</g>
<g clip-path="url(#a)">
<g transform="translate(780.2 496.93) scale(.1 -.1)">
<use xlink:href="#c"/>
<use x="63.623047" xlink:href="#g"/>
<use x="95.410156" xlink:href="#c"/>
<use x="159.033203" xlink:href="#aa"/>
</g>
</g>
<g clip-path="url(#a)">
<g transform="translate(855.11 496.93) scale(.1 -.1)">
<use xlink:href="#c"/>
<use x="63.623047" xlink:href="#g"/>
<use x="95.410156" xlink:href="#c"/>
<use x="159.033203" xlink:href="#z"/>
</g>
</g>
<g clip-path="url(#a)">
<g transform="translate(933.58 496.93) scale(.1 -.1)">
<use xlink:href="#c"/>
<use x="63.623047" xlink:href="#g"/>
<use x="95.410156" xlink:href="#c"/>
<use x="159.033203" xlink:href="#y"/>
</g>
</g>
<g clip-path="url(#a)">
<g transform="translate(1015.6 496.93) scale(.1 -.1)">
<use xlink:href="#c"/>
<use x="63.623047" xlink:href="#g"/>
<use x="95.410156" xlink:href="#m"/>
<use x="159.033203" xlink:href="#ae"/>
</g>
</g>
<g clip-path="url(#a)">
<g transform="translate(405.67 496.93) scale(.1 -.1)">
<use xlink:href="#c"/>
<use x="63.623047" xlink:href="#g"/>
<use x="95.410156" xlink:href="#m"/>
<use x="159.033203" xlink:href="#c"/>
</g>
</g>
<g clip-path="url(#a)">
<g transform="translate(459.17 496.93) scale(.1 -.1)">
<use xlink:href="#c"/>
<use x="63.623047" xlink:href="#g"/>
<use x="95.410156" xlink:href="#m"/>
<use x="159.033203" xlink:href="#m"/>
</g>
</g>
<g clip-path="url(#a)">
<g transform="translate(516.25 496.93) scale(.1 -.1)">
<use xlink:href="#c"/>
<use x="63.623047" xlink:href="#g"/>
<use x="95.410156" xlink:href="#m"/>
<use x="159.033203" xlink:href="#v"/>
</g>
</g>
<g clip-path="url(#a)">
<g transform="translate(546.56 404.39) scale(.1 -.1)">
<use xlink:href="#c"/>
<use x="63.623047" xlink:href="#g"/>
<use x="95.410156" xlink:href="#m"/>
<use x="159.033203" xlink:href="#ad"/>
</g>
</g>
<g clip-path="url(#a)">
<g transform="translate(576.88 496.93) scale(.1 -.1)">
<use xlink:href="#c"/>
<use x="63.623047" xlink:href="#g"/>
<use x="95.410156" xlink:href="#m"/>
<use x="159.033203" xlink:href="#ac"/>
</g>
</g>
<g clip-path="url(#a)">
<g transform="translate(266.56 496.93) scale(.1 -.1)">
<use xlink:href="#c"/>
<use x="63.623047" xlink:href="#g"/>
<use x="95.410156" xlink:href="#m"/>
<use x="159.033203" xlink:href="#ab"/>
</g>
</g>
<g clip-path="url(#a)">
<g transform="translate(309.36 496.93) scale(.1 -.1)">
<use xlink:href="#c"/>
<use x="63.623047" xlink:href="#g"/>
<use x="95.410156" xlink:href="#m"/>
<use x="159.033203" xlink:href="#aa"/>
</g>
</g>
<g clip-path="url(#a)">
<g transform="translate(106.04 496.93) scale(.1 -.1)">
<use xlink:href="#c"/>
<use x="63.623047" xlink:href="#g"/>
<use x="95.410156" xlink:href="#m"/>
<use x="159.033203" xlink:href="#z"/>
</g>
</g>
<g clip-path="url(#a)">
<g transform="translate(131.01 496.93) scale(.1 -.1)">
<use xlink:href="#c"/>
<use x="63.623047" xlink:href="#g"/>
<use x="95.410156" xlink:href="#m"/>
<use x="159.033203" xlink:href="#y"/>
</g>
</g>
<g clip-path="url(#a)">
<g transform="translate(84.641 496.93) scale(.1 -.1)">
<use xlink:href="#c"/>
<use x="63.623047" xlink:href="#g"/>
<use x="95.410156" xlink:href="#v"/>
<use x="159.033203" xlink:href="#ae"/>
</g>
</g>
<g clip-path="url(#a)">
<g transform="translate(1101.2 496.93) scale(.1 -.1)">
<use xlink:href="#c"/>
<use x="63.623047" xlink:href="#g"/>
<use x="95.410156" xlink:href="#v"/>
<use x="159.033203" xlink:href="#c"/>
</g>
</g>
<defs>
<clipPath id="a">
<rect width="1165.3" height="613.33"/>
</clipPath>
</defs>
</svg>
