<?xml version="1.0" encoding="UTF-8"?>
<!DOCTYPE svg  PUBLIC '-//W3C//DTD SVG 1.1//EN'  'http://www.w3.org/Graphics/SVG/1.1/DTD/svg11.dtd'>
<svg width="1317.3pt" height="693.33pt" version="1.1" viewBox="0 0 1317.3 693.33" xmlns="http://www.w3.org/2000/svg" xmlns:xlink="http://www.w3.org/1999/xlink">
<defs>
<style type="text/css">*{stroke-linecap:butt;stroke-linejoin:round;}</style>
</defs>
<path d="m0 693.33h1317.3v-693.33h-1317.3z" fill="#fff"/>
<g fill="none" stroke="#000">
<path d="m326.85 31.515-129.29 106.01" clip-path="url(#a)"/>
<path d="m326.85 31.515-65.78 527.12" clip-path="url(#a)"/>
<path d="m326.85 31.515 138.21 317.33" clip-path="url(#a)"/>
<path d="m326.85 31.515-100.91 527.12" clip-path="url(#a)"/>
<path d="m326.85 31.515 157.77 527.12" clip-path="url(#a)"/>
<path d="m197.57 137.52-137.69 421.11" clip-path="url(#a)"/>
<path d="m197.57 137.52-128.11 421.11" clip-path="url(#a)"/>
<path d="m197.57 137.52-107.35 316.49" clip-path="url(#a)"/>
<path d="m197.57 137.52-69.026 316.49" clip-path="url(#a)"/>
<path d="m197.57 137.52-32.3 421.11" clip-path="url(#a)"/>
<path d="m197.57 137.52-3.5585 421.11" clip-path="url(#a)"/>
<path d="m197.57 137.52 478.03 105.79" clip-path="url(#a)"/>
<path d="m261.07 558.63v103.19" clip-path="url(#a)"/>
<path d="m465.06 348.84-144.91 105.17" clip-path="url(#a)"/>
<path d="m465.06 348.84-79.439 209.79" clip-path="url(#a)"/>
<path d="m465.06 348.84-31.536 209.79" clip-path="url(#a)"/>
<path d="m465.06 348.84 255.88 209.79" clip-path="url(#a)" stroke-dasharray="3.7,1.6"/>
<path d="m320.15 454.01-20.758 104.62" clip-path="url(#a)"/>
<path d="m320.15 454.01 20.758 104.62" clip-path="url(#a)"/>
<path d="m385.62 558.63v103.19" clip-path="url(#a)"/>
<path d="m433.52 558.63v103.19" clip-path="url(#a)"/>
<path d="m299.39 558.63v103.19" clip-path="url(#a)"/>
<path d="m340.91 558.63v103.19" clip-path="url(#a)"/>
<path d="m59.879 558.63v103.19" clip-path="url(#a)"/>
<path d="m69.459 558.63v103.19" clip-path="url(#a)"/>
<path d="m90.217 454.01-7.9838 104.62" clip-path="url(#a)"/>
<path d="m90.217 454.01 7.9838 104.62" clip-path="url(#a)"/>
<path d="m128.54 454.01-11.177 104.62" clip-path="url(#a)"/>
<path d="m128.54 454.01 11.177 104.62" clip-path="url(#a)"/>
<path d="m165.27 558.63v103.19" clip-path="url(#a)"/>
<path d="m194.01 558.63v103.19" clip-path="url(#a)"/>
<path d="m675.59 243.32-136.68 315.32" clip-path="url(#a)"/>
<path d="m675.59 243.32-79.2 315.32" clip-path="url(#a)"/>
<path d="m675.59 243.32-18.523 315.32" clip-path="url(#a)"/>
<path d="m675.59 243.32 45.348 315.32" clip-path="url(#a)"/>
<path d="m675.59 243.32 189.06 105.53" clip-path="url(#a)"/>
<path d="m538.91 558.63v103.19" clip-path="url(#a)"/>
<path d="m596.39 558.63v103.19" clip-path="url(#a)"/>
<path d="m657.07 558.63v103.19" clip-path="url(#a)"/>
<path d="m720.94 558.63v103.19" clip-path="url(#a)"/>
<path d="m864.65 348.84-143.71 209.79" clip-path="url(#a)" stroke-dasharray="3.7,1.6"/>
<path d="m864.65 348.84-76.645 209.79" clip-path="url(#a)"/>
<path d="m864.65 348.84-6.3871 209.79" clip-path="url(#a)"/>
<path d="m864.65 348.84 226.74 105.17" clip-path="url(#a)"/>
<path d="m788 558.63v103.19" clip-path="url(#a)"/>
<path d="m858.26 558.63v103.19" clip-path="url(#a)"/>
<path d="m1091.4 454.01-159.68 104.62" clip-path="url(#a)"/>
<path d="m1091.4 454.01-83.032 104.62" clip-path="url(#a)"/>
<path d="m1091.4 454.01-3.1935 104.62" clip-path="url(#a)"/>
<path d="m1091.4 454.01 79.838 104.62" clip-path="url(#a)"/>
<path d="m1091.4 454.01 166.06 104.62" clip-path="url(#a)"/>
<path d="m931.71 558.63v103.19" clip-path="url(#a)"/>
<path d="m1008.4 558.63v103.19" clip-path="url(#a)"/>
<path d="m1088.2 558.63v103.19" clip-path="url(#a)"/>
<path d="m1171.2 558.63v103.19" clip-path="url(#a)"/>
<path d="m117.36 558.63v103.19" clip-path="url(#a)"/>
<path d="m139.72 558.63v103.19" clip-path="url(#a)"/>
<path d="m82.234 558.63v103.19" clip-path="url(#a)"/>
<path d="m98.201 558.63v103.19" clip-path="url(#a)"/>
<path d="m307.9 31.515-110.33 106.01" clip-path="url(#a)"/>
<path d="m307.9 31.515-46.827 527.12" clip-path="url(#a)"/>
<path d="m307.9 31.515 157.16 317.33" clip-path="url(#a)"/>
<path d="m225.94 558.63v103.19" clip-path="url(#a)"/>
<path d="m484.62 558.63v103.19" clip-path="url(#a)"/>
<path d="m1257.5 558.63v103.19" clip-path="url(#a)"/>
</g>
<path d="m263.86 91.276 4.6523-3.8146q1.8559-1.5217 0.33416-3.3776l-4.9092-5.9872q-1.5217-1.8559-3.3776-0.33416l-4.6523 3.8146q-1.8559 1.5217-0.33416 3.3776l4.9092 5.9872q1.5217 1.8559 3.3776 0.33416z" clip-path="url(#a)" fill="#fff" stroke="#fff"/>
<g clip-path="url(#a)">
<defs>
<path id="ak" d="m9.8125 72.906h9.8594v-29.891h35.844v29.891h9.8594v-72.906h-9.8594v34.719h-35.844v-34.719h-9.8594z"/>
</defs>
<g transform="translate(261.28 88.133) rotate(-39.35) scale(.08 -.08)">
<use xlink:href="#ak"/>
</g>
</g>
<path d="m299.91 298.06 0.55198-4.4232q0.2972-2.3815-2.0843-2.6787l-7.6829-0.95876q-2.3815-0.2972-2.6787 2.0843l-0.55198 4.4232q-0.2972 2.3815 2.0843 2.6787l7.6829 0.95876q2.3815 0.2972 2.6787-2.0843z" clip-path="url(#a)" fill="#fff" stroke="#fff"/>
<g clip-path="url(#a)">
<defs>
<path id="w" d="m9.8125 72.906h9.8594v-64.609h35.5v-8.2969h-45.359z"/>
</defs>
<g transform="translate(295.88 297.56) rotate(-82.887) scale(.08 -.08)">
<use xlink:href="#w"/>
</g>
</g>
<path d="m389 189.93 2.4023 5.5158q0.95833 2.2004 3.1587 1.242l7.0985-3.0916q2.2004-0.95833 1.242-3.1587l-2.4023-5.5158q-0.95833-2.2004-3.1587-1.242l-7.0985 3.0916q-2.2004 0.95833-1.242 3.1587z" clip-path="url(#a)" fill="#fff" stroke="#fff"/>
<g clip-path="url(#a)">
<g transform="translate(392.73 188.3) rotate(66.465) scale(.08 -.08)">
<use xlink:href="#ak"/>
</g>
</g>
<path d="m282.01 299.13 1.1009-5.7506q0.45125-2.3572-1.9059-2.8084l-7.6044-1.4558q-2.3572-0.45125-2.8084 1.9059l-1.1009 5.7506q-0.45125 2.3572 1.9059 2.8084l7.6044 1.4558q2.3572 0.45125 2.8084-1.9059z" clip-path="url(#a)" fill="#fff" stroke="#fff"/>
<g clip-path="url(#a)">
<defs>
<path id="ac" d="m8.6875 72.906h9.9219v-44.297q0-11.719 4.2344-16.875 4.25-5.1406 13.781-5.1406 9.4688 0 13.719 5.1406 4.25 5.1562 4.25 16.875v44.297h9.9062v-45.516q0-14.25-7.0625-21.531-7.0469-7.2812-20.812-7.2812-13.828 0-20.891 7.2812-7.0469 7.2812-7.0469 21.531z"/>
</defs>
<g transform="translate(278.01 298.36) rotate(-79.163) scale(.08 -.08)">
<use xlink:href="#ac"/>
</g>
</g>
<path d="m398.89 294.07 1.6788 5.6092q0.68816 2.2992 2.9874 1.6111l7.4174-2.22q2.2992-0.68816 1.6111-2.9874l-1.6788-5.6091q-0.68816-2.2992-2.9874-1.6111l-7.4174 2.22q-2.2992 0.68816-1.6111 2.9874z" clip-path="url(#a)" fill="#fff" stroke="#fff"/>
<g clip-path="url(#a)">
<g transform="translate(402.78 292.9) rotate(73.337) scale(.08 -.08)">
<use xlink:href="#ac"/>
</g>
</g>
<path d="m133.97 352.21 1.4299-4.3734q0.74585-2.2812-1.5353-3.027l-7.3591-2.4062q-2.2812-0.74585-3.027 1.5353l-1.4299 4.3734q-0.74585 2.2812 1.5353 3.027l7.3591 2.4062q2.2812 0.74585 3.027-1.5353z" clip-path="url(#a)" fill="#fff" stroke="#fff"/>
<g clip-path="url(#a)">
<defs>
<path id="x" d="m9.8125 72.906h41.891v-8.3125h-32.031v-21.484h28.906v-8.2969h-28.906v-34.812h-9.8594z"/>
</defs>
<g transform="translate(130.11 350.95) rotate(-71.894) scale(.08 -.08)">
<use xlink:href="#x"/>
</g>
</g>
<path d="m138.84 352.1 1.3392-4.4021q0.6985-2.2961-1.5976-2.9946l-7.4073-2.2534q-2.2961-0.6985-2.9946 1.5976l-1.3392 4.4021q-0.6985 2.2961 1.5976 2.9946l7.4073 2.2534q2.2961 0.6985 2.9946-1.5976z" clip-path="url(#a)" fill="#fff" stroke="#fff"/>
<g clip-path="url(#a)">
<g transform="translate(134.95 350.92) rotate(-73.08) scale(.08 -.08)">
<use xlink:href="#x"/>
</g>
</g>
<path d="m148.84 300.7 1.9787-5.8336q0.7709-2.2728-1.5019-3.0437l-7.3322-2.487q-2.2728-0.7709-3.0437 1.5019l-1.9787 5.8336q-0.7709 2.2728 1.5019 3.0437l7.3322 2.487q2.2728 0.7709 3.0437-1.5019z" clip-path="url(#a)" fill="#fff" stroke="#fff"/>
<g clip-path="url(#a)">
<defs>
<path id="aq" d="m19.672 64.797v-56.688h11.922q15.094 0 22.094 6.8281 7 6.8438 7 21.594 0 14.641-7 21.453t-22.094 6.8125zm-9.8594 8.1094h20.266q21.188 0 31.094-8.8125 9.9219-8.8125 9.9219-27.562 0-18.859-9.9688-27.703-9.9531-8.8281-31.047-8.8281h-20.266z"/>
</defs>
<g transform="translate(144.99 299.39) rotate(-71.264) scale(.08 -.08)">
<use xlink:href="#aq"/>
</g>
</g>
<path d="m168.6 299.78 1.1661-5.3468q0.51141-2.3449-1.8335-2.8563l-7.5647-1.6498q-2.3449-0.51141-2.8563 1.8335l-1.1661 5.3468q-0.51141 2.3449 1.8335 2.8563l7.5647 1.6498q2.3449 0.51141 2.8563-1.8335z" clip-path="url(#a)" fill="#fff" stroke="#fff"/>
<g clip-path="url(#a)">
<defs>
<path id="q" d="m34.188 63.188-13.391-36.281h26.812zm-5.5781 9.7188h11.188l27.781-72.906h-10.25l-6.6406 18.703h-32.859l-6.6406-18.703h-10.406z"/>
</defs>
<g transform="translate(164.63 298.91) rotate(-77.697) scale(.08 -.08)">
<use xlink:href="#q"/>
</g>
</g>
<path d="m187.49 350.85 0.3519-4.5878q0.18355-2.393-2.2094-2.5765l-7.7198-0.59213q-2.393-0.18355-2.5765 2.2094l-0.35189 4.5878q-0.18355 2.393 2.2094 2.5765l7.7198 0.59213q2.393 0.18355 2.5765-2.2094z" clip-path="url(#a)" fill="#fff" stroke="#fff"/>
<g clip-path="url(#a)">
<g transform="translate(183.44 350.54) rotate(-85.614) scale(.08 -.08)">
<use xlink:href="#x"/>
</g>
</g>
<path d="m202.04 350.54 0.040761-4.8236q0.02028-2.3999-2.3796-2.4202l-7.7422-0.065425q-2.3999-0.02028-2.4202 2.3796l-0.04076 4.8236q-0.02028 2.3999 2.3796 2.4202l7.7422 0.065424q2.3999 0.02028 2.4202-2.3796z" clip-path="url(#a)" fill="#fff" stroke="#fff"/>
<g clip-path="url(#a)">
<defs>
<path id="ad" d="m19.672 64.797v-27.391h12.406q6.8906 0 10.641 3.5625 3.7656 3.5625 3.7656 10.156 0 6.5469-3.7656 10.109-3.75 3.5625-10.641 3.5625zm-9.8594 8.1094h22.266q12.266 0 18.531-5.5469 6.2812-5.5469 6.2812-16.234 0-10.797-6.2812-16.312-6.2656-5.5156-18.531-5.5156h-12.406v-29.297h-9.8594z"/>
</defs>
<g transform="translate(197.97 350.51) rotate(-89.516) scale(.08 -.08)">
<use xlink:href="#ad"/>
</g>
</g>
<path d="m432.55 195.95 5.3432 1.1825q2.3433 0.5186 2.8619-1.8247l1.673-7.5596q0.5186-2.3433-1.8247-2.8619l-5.3432-1.1825q-2.3433-0.51861-2.8619 1.8247l-1.673 7.5596q-0.51861 2.3433 1.8247 2.8619z" clip-path="url(#a)" fill="#fff" stroke="#fff"/>
<g clip-path="url(#a)">
<g transform="translate(433.43 191.98) rotate(12.479) scale(.08 -.08)">
<use xlink:href="#q"/>
</g>
</g>
<path d="m254.8 593.32v33.808q0 2.4 2.4 2.4h7.7425q2.4 0 2.4-2.4v-33.808q0-2.4-2.4-2.4h-7.7425q-2.4 0-2.4 2.4z" clip-path="url(#a)" fill="#fff" stroke="#fff"/>
<g clip-path="url(#a)">
<defs>
<path id="l" d="m-0.29688 72.906h61.672v-8.3125h-25.875v-64.594h-9.9062v64.594h-25.891z"/>
<path id="h" d="m56.203 29.594v-4.3906h-41.312q0.59375-9.2812 5.5938-14.141t13.938-4.8594q5.1719 0 10.031 1.2656t9.6562 3.8125v-8.5q-4.8438-2.0469-9.9219-3.125t-10.297-1.0781q-13.094 0-20.734 7.6094-7.6406 7.625-7.6406 20.625 0 13.422 7.25 21.297 7.25 7.8906 19.562 7.8906 11.031 0 17.453-7.1094 6.4219-7.0938 6.4219-19.297zm-8.9844 2.6406q-0.09375 7.3594-4.125 11.75-4.0312 4.4062-10.672 4.4062-7.5156 0-12.031-4.25t-5.2031-11.969z"/>
<path id="i" d="m41.109 46.297q-1.5156 0.875-3.2969 1.2812-1.7812 0.42188-3.9219 0.42188-7.625 0-11.703-4.9531t-4.0781-14.234v-28.812h-9.0312v54.688h9.0312v-8.5q2.8438 4.9844 7.375 7.3906 4.5469 2.4219 11.047 2.4219 0.92188 0 2.0469-0.125 1.125-0.10938 2.4844-0.35938z"/>
<path id="k" d="m52 44.188q3.375 6.0625 8.0625 8.9375t11.031 2.875q8.5469 0 13.188-5.9844 4.6406-5.9688 4.6406-17v-33.016h-9.0312v32.719q0 7.8594-2.7969 11.656-2.7812 3.8125-8.4844 3.8125-6.9844 0-11.047-4.6406-4.0469-4.625-4.0469-12.641v-30.906h-9.0312v32.719q0 7.9062-2.7812 11.688t-8.5938 3.7812q-6.8906 0-10.953-4.6562-4.0469-4.6562-4.0469-12.625v-30.906h-9.0312v54.688h9.0312v-8.5q3.0781 5.0312 7.375 7.4219t10.203 2.3906q5.9688 0 10.141-3.0312 4.1719-3.0156 6.1719-8.7812z"/>
<path id="f" d="m9.4219 54.688h8.9844v-54.688h-8.9844zm0 21.297h8.9844v-11.391h-8.9844z"/>
<path id="g" d="m54.891 33.016v-33.016h-8.9844v32.719q0 7.7656-3.0312 11.609-3.0312 3.8594-9.0781 3.8594-7.2812 0-11.484-4.6406-4.2031-4.625-4.2031-12.641v-30.906h-9.0312v54.688h9.0312v-8.5q3.2344 4.9375 7.5938 7.375 4.375 2.4375 10.094 2.4375 9.4219 0 14.25-5.8281 4.8438-5.8281 4.8438-17.156z"/>
<path id="d" d="m34.281 27.484q-10.891 0-15.094-2.4844t-4.2031-8.5q0-4.7812 3.1562-7.5938 3.1562-2.7969 8.5625-2.7969 7.4844 0 12 5.2969t4.5156 14.078v2zm17.922 3.7188v-31.203h-8.9844v8.2969q-3.0781-4.9688-7.6719-7.3438t-11.234-2.375q-8.3906 0-13.359 4.7188-4.9531 4.7188-4.9531 12.625 0 9.2188 6.1719 13.906 6.1875 4.6875 18.438 4.6875h12.609v0.89062q0 6.2031-4.0781 9.5938t-11.453 3.3906q-4.6875 0-9.1406-1.125-4.4375-1.125-8.5312-3.375v8.3125q4.9219 1.9062 9.5625 2.8438 4.6406 0.95312 9.0312 0.95312 11.875 0 17.734-6.1562 5.8594-6.1406 5.8594-18.641z"/>
<path id="j" d="m9.4219 75.984h8.9844v-75.984h-8.9844z"/>
</defs>
<g transform="translate(258.86 593.32) rotate(90) scale(.08 -.08)">
<use xlink:href="#l"/>
<use x="44.083984" xlink:href="#h"/>
<use x="105.607422" xlink:href="#i"/>
<use x="144.970703" xlink:href="#k"/>
<use x="242.382812" xlink:href="#f"/>
<use x="270.166016" xlink:href="#g"/>
<use x="333.544922" xlink:href="#d"/>
<use x="394.824219" xlink:href="#j"/>
</g>
</g>
<path d="m394.07 408.11 4.429-3.2144q1.9424-1.4097 0.53265-3.3521l-4.5478-6.2661q-1.4097-1.9424-3.3521-0.53265l-4.429 3.2144q-1.9424 1.4097-0.53265 3.3521l4.5478 6.2661q1.4097 1.9424 3.3521 0.53265z" clip-path="url(#a)" fill="#fff" stroke="#fff"/>
<g clip-path="url(#a)">
<g transform="translate(391.69 404.82) rotate(-35.971) scale(.08 -.08)">
<use xlink:href="#q"/>
</g>
</g>
<path d="m430.39 458.11 1.6294-4.3031q0.8499-2.2445-1.3946-3.0944l-7.2408-2.7418q-2.2445-0.8499-3.0944 1.3946l-1.6294 4.3031q-0.8499 2.2445 1.3946 3.0944l7.2408 2.7418q2.2445 0.8499 3.0944-1.3946z" clip-path="url(#a)" fill="#fff" stroke="#fff"/>
<g clip-path="url(#a)">
<g transform="translate(426.59 456.67) rotate(-69.26) scale(.08 -.08)">
<use xlink:href="#x"/>
</g>
</g>
<path d="m455.13 457.06 0.71706-4.7702q0.35677-2.3733-2.0166-2.7301l-7.6565-1.1509q-2.3733-0.35677-2.7301 2.0166l-0.71706 4.7702q-0.35677 2.3733 2.0166 2.7301l7.6565 1.1509q2.3733 0.35677 2.7301-2.0166z" clip-path="url(#a)" fill="#fff" stroke="#fff"/>
<g clip-path="url(#a)">
<g transform="translate(451.11 456.45) rotate(-81.451) scale(.08 -.08)">
<use xlink:href="#ad"/>
</g>
</g>
<path d="m586.91 456.85 4.232 3.4697q1.856 1.5216 3.3776-0.33432l4.9089-5.9874q1.5216-1.856-0.33432-3.3776l-4.232-3.4697q-1.856-1.5216-3.3776 0.33432l-4.9089 5.9874q-1.5216 1.856 0.33432 3.3776z" clip-path="url(#a)" fill="#fff" stroke="#fff"/>
<g clip-path="url(#a)">
<g transform="translate(589.48 453.71) rotate(39.347) scale(.08 -.08)">
<use xlink:href="#q"/>
</g>
</g>
<path d="m315.38 510.27 1.0818-5.4525q0.46708-2.3541-1.887-2.8212l-7.5945-1.5068q-2.3541-0.46708-2.8212 1.887l-1.0818 5.4525q-0.46708 2.3541 1.887 2.8212l7.5945 1.5068q2.3541 0.46708 2.8212-1.887z" clip-path="url(#a)" fill="#fff" stroke="#fff"/>
<g clip-path="url(#a)">
<defs>
<path id="u" d="m44.391 34.188q3.1719-1.0781 6.1719-4.5938t6.0312-9.6719l10.016-19.922h-10.609l-9.3125 18.703q-3.625 7.3281-7.0156 9.7188t-9.25 2.3906h-10.75v-30.812h-9.8594v72.906h22.266q12.5 0 18.656-5.2344 6.1562-5.2188 6.1562-15.766 0-6.8906-3.2031-11.438-3.2031-4.5312-9.2969-6.2812zm-24.719 30.609v-25.875h12.406q7.125 0 10.766 3.2969t3.6406 9.6875-3.6406 9.6406-10.766 3.25z"/>
</defs>
<g transform="translate(311.4 509.48) rotate(-78.778) scale(.08 -.08)">
<use xlink:href="#u"/>
</g>
</g>
<path d="m323.84 504.8 1.0872 5.4794q0.46708 2.3541 2.8212 1.887l7.5945-1.5068q2.3541-0.46708 1.887-2.8212l-1.0872-5.4794q-0.46708-2.3541-2.8212-1.887l-7.5945 1.5068q-2.3541 0.46708-1.887 2.8212z" clip-path="url(#a)" fill="#fff" stroke="#fff"/>
<g clip-path="url(#a)">
<defs>
<path id="t" d="m64.406 67.281v-10.391q-4.9844 4.6406-10.625 6.9219-5.6406 2.2969-11.984 2.2969-12.5 0-19.141-7.6406t-6.6406-22.094q0-14.406 6.6406-22.047t19.141-7.6406q6.3438 0 11.984 2.2969t10.625 6.9375v-10.312q-5.1719-3.5156-10.969-5.2812-5.7812-1.75-12.219-1.75-16.562 0-26.094 10.125-9.5156 10.141-9.5156 27.672 0 17.578 9.5156 27.703 9.5312 10.141 26.094 10.141 6.5312 0 12.312-1.7344 5.7969-1.7344 10.875-5.2031z"/>
</defs>
<g transform="translate(327.82 504.01) rotate(78.778) scale(.08 -.08)">
<use xlink:href="#t"/>
</g>
</g>
<path d="m379.35 593.32v33.808q0 2.4 2.4 2.4h7.7425q2.4 0 2.4-2.4v-33.808q0-2.4-2.4-2.4h-7.7425q-2.4 0-2.4 2.4z" clip-path="url(#a)" fill="#fff" stroke="#fff"/>
<g clip-path="url(#a)">
<g transform="translate(383.41 593.32) rotate(90) scale(.08 -.08)">
<use xlink:href="#l"/>
<use x="44.083984" xlink:href="#h"/>
<use x="105.607422" xlink:href="#i"/>
<use x="144.970703" xlink:href="#k"/>
<use x="242.382812" xlink:href="#f"/>
<use x="270.166016" xlink:href="#g"/>
<use x="333.544922" xlink:href="#d"/>
<use x="394.824219" xlink:href="#j"/>
</g>
</g>
<path d="m427.25 593.32v33.808q0 2.4 2.4 2.4h7.7425q2.4 0 2.4-2.4v-33.808q0-2.4-2.4-2.4h-7.7425q-2.4 0-2.4 2.4z" clip-path="url(#a)" fill="#fff" stroke="#fff"/>
<g clip-path="url(#a)">
<g transform="translate(431.31 593.32) rotate(90) scale(.08 -.08)">
<use xlink:href="#l"/>
<use x="44.083984" xlink:href="#h"/>
<use x="105.607422" xlink:href="#i"/>
<use x="144.970703" xlink:href="#k"/>
<use x="242.382812" xlink:href="#f"/>
<use x="270.166016" xlink:href="#g"/>
<use x="333.544922" xlink:href="#d"/>
<use x="394.824219" xlink:href="#j"/>
</g>
</g>
<path d="m293.12 593.32v33.808q0 2.4 2.4 2.4h7.7425q2.4 0 2.4-2.4v-33.808q0-2.4-2.4-2.4h-7.7425q-2.4 0-2.4 2.4z" clip-path="url(#a)" fill="#fff" stroke="#fff"/>
<g clip-path="url(#a)">
<g transform="translate(297.19 593.32) rotate(90) scale(.08 -.08)">
<use xlink:href="#l"/>
<use x="44.083984" xlink:href="#h"/>
<use x="105.607422" xlink:href="#i"/>
<use x="144.970703" xlink:href="#k"/>
<use x="242.382812" xlink:href="#f"/>
<use x="270.166016" xlink:href="#g"/>
<use x="333.544922" xlink:href="#d"/>
<use x="394.824219" xlink:href="#j"/>
</g>
</g>
<path d="m334.64 593.32v33.808q0 2.4 2.4 2.4h7.7425q2.4 0 2.4-2.4v-33.808q0-2.4-2.4-2.4h-7.7425q-2.4 0-2.4 2.4z" clip-path="url(#a)" fill="#fff" stroke="#fff"/>
<g clip-path="url(#a)">
<g transform="translate(338.7 593.32) rotate(90) scale(.08 -.08)">
<use xlink:href="#l"/>
<use x="44.083984" xlink:href="#h"/>
<use x="105.607422" xlink:href="#i"/>
<use x="144.970703" xlink:href="#k"/>
<use x="242.382812" xlink:href="#f"/>
<use x="270.166016" xlink:href="#g"/>
<use x="333.544922" xlink:href="#d"/>
<use x="394.824219" xlink:href="#j"/>
</g>
</g>
<path d="m53.608 593.32v33.808q0 2.4 2.4 2.4h7.7425q2.4 0 2.4-2.4v-33.808q0-2.4-2.4-2.4h-7.7425q-2.4 0-2.4 2.4z" clip-path="url(#a)" fill="#fff" stroke="#fff"/>
<g clip-path="url(#a)">
<g transform="translate(57.671 593.32) rotate(90) scale(.08 -.08)">
<use xlink:href="#l"/>
<use x="44.083984" xlink:href="#h"/>
<use x="105.607422" xlink:href="#i"/>
<use x="144.970703" xlink:href="#k"/>
<use x="242.382812" xlink:href="#f"/>
<use x="270.166016" xlink:href="#g"/>
<use x="333.544922" xlink:href="#d"/>
<use x="394.824219" xlink:href="#j"/>
</g>
</g>
<path d="m63.188 593.32v33.808q0 2.4 2.4 2.4h7.7425q2.4 0 2.4-2.4v-33.808q0-2.4-2.4-2.4h-7.7425q-2.4 0-2.4 2.4z" clip-path="url(#a)" fill="#fff" stroke="#fff"/>
<g clip-path="url(#a)">
<g transform="translate(67.252 593.32) rotate(90) scale(.08 -.08)">
<use xlink:href="#l"/>
<use x="44.083984" xlink:href="#h"/>
<use x="105.607422" xlink:href="#i"/>
<use x="144.970703" xlink:href="#k"/>
<use x="242.382812" xlink:href="#f"/>
<use x="270.166016" xlink:href="#g"/>
<use x="333.544922" xlink:href="#d"/>
<use x="394.824219" xlink:href="#j"/>
</g>
</g>
<path d="m92.286 509.32 0.38464-5.0403q0.18262-2.393-2.2104-2.5757l-7.7201-0.58914q-2.393-0.18262-2.5757 2.2104l-0.38464 5.0403q-0.18262 2.393 2.2104 2.5757l7.7201 0.58914q2.393 0.18262 2.5757-2.2104z" clip-path="url(#a)" fill="#fff" stroke="#fff"/>
<g clip-path="url(#a)">
<defs>
<path id="r" d="m9.8125 72.906h46.094v-8.3125h-36.234v-21.578h34.719v-8.2969h-34.719v-26.422h37.109v-8.2969h-46.969z"/>
</defs>
<g transform="translate(88.234 509.01) rotate(-85.636) scale(.08 -.08)">
<use xlink:href="#r"/>
</g>
</g>
<path d="m87.744 504.02 0.42506 5.5701q0.18262 2.393 2.5757 2.2104l7.7201-0.58914q2.393-0.18262 2.2104-2.5757l-0.42506-5.5701q-0.18262-2.393-2.5757-2.2104l-7.7201 0.58914q-2.393 0.18262-2.2104 2.5757z" clip-path="url(#a)" fill="#fff" stroke="#fff"/>
<g clip-path="url(#a)">
<g transform="translate(91.796 503.71) rotate(85.636) scale(.08 -.08)">
<use xlink:href="#t"/>
</g>
</g>
<path d="m128.89 509.75 0.59052-5.5273q0.25496-2.3864-2.1315-2.6414l-7.6987-0.82251q-2.3864-0.25496-2.6414 2.1315l-0.59052 5.5273q-0.25496 2.3864 2.1315 2.6414l7.6987 0.82251q2.3864 0.25496 2.6414-2.1315z" clip-path="url(#a)" fill="#fff" stroke="#fff"/>
<g clip-path="url(#a)">
<g transform="translate(124.85 509.32) rotate(-83.902) scale(.08 -.08)">
<use xlink:href="#u"/>
</g>
</g>
<path d="m127.6 504.21 0.59344 5.5546q0.25496 2.3864 2.6414 2.1315l7.6987-0.82251q2.3864-0.25496 2.1315-2.6414l-0.59344-5.5546q-0.25496-2.3864-2.6414-2.1315l-7.6987 0.82251q-2.3864 0.25496-2.1315 2.6414z" clip-path="url(#a)" fill="#fff" stroke="#fff"/>
<g clip-path="url(#a)">
<g transform="translate(131.64 503.78) rotate(83.902) scale(.08 -.08)">
<use xlink:href="#t"/>
</g>
</g>
<path d="m158.99 593.32v33.808q0 2.4 2.4 2.4h7.7425q2.4 0 2.4-2.4v-33.808q0-2.4-2.4-2.4h-7.7425q-2.4 0-2.4 2.4z" clip-path="url(#a)" fill="#fff" stroke="#fff"/>
<g clip-path="url(#a)">
<g transform="translate(163.06 593.32) rotate(90) scale(.08 -.08)">
<use xlink:href="#l"/>
<use x="44.083984" xlink:href="#h"/>
<use x="105.607422" xlink:href="#i"/>
<use x="144.970703" xlink:href="#k"/>
<use x="242.382812" xlink:href="#f"/>
<use x="270.166016" xlink:href="#g"/>
<use x="333.544922" xlink:href="#d"/>
<use x="394.824219" xlink:href="#j"/>
</g>
</g>
<path d="m187.74 593.32v33.808q0 2.4 2.4 2.4h7.7425q2.4 0 2.4-2.4v-33.808q0-2.4-2.4-2.4h-7.7425q-2.4 0-2.4 2.4z" clip-path="url(#a)" fill="#fff" stroke="#fff"/>
<g clip-path="url(#a)">
<g transform="translate(191.8 593.32) rotate(90) scale(.08 -.08)">
<use xlink:href="#l"/>
<use x="44.083984" xlink:href="#h"/>
<use x="105.607422" xlink:href="#i"/>
<use x="144.970703" xlink:href="#k"/>
<use x="242.382812" xlink:href="#f"/>
<use x="270.166016" xlink:href="#g"/>
<use x="333.544922" xlink:href="#d"/>
<use x="394.824219" xlink:href="#j"/>
</g>
</g>
<path d="m612 405.79 2.0105-4.638q0.95453-2.202-1.2475-3.1565l-7.1038-3.0793q-2.202-0.95453-3.1565 1.2475l-2.0105 4.638q-0.95453 2.202 1.2475 3.1565l7.1038 3.0794q2.202 0.95453 3.1565-1.2475z" clip-path="url(#a)" fill="#fff" stroke="#fff"/>
<g clip-path="url(#a)">
<g transform="translate(608.27 404.17) rotate(-66.564) scale(.08 -.08)">
<use xlink:href="#r"/>
</g>
</g>
<path d="m641.46 404.95 1.2314-4.9027q0.58466-2.3277-1.743-2.9124l-7.5092-1.8861q-2.3277-0.58466-2.9124 1.743l-1.2314 4.9027q-0.58466 2.3277 1.743 2.9124l7.5092 1.8861q2.3277 0.58466 2.9124-1.743z" clip-path="url(#a)" fill="#fff" stroke="#fff"/>
<g clip-path="url(#a)">
<g transform="translate(637.52 403.96) rotate(-75.9) scale(.08 -.08)">
<use xlink:href="#r"/>
</g>
</g>
<path d="m672.44 403.87 0.29643-5.0463q0.14074-2.3959-2.2551-2.5366l-7.7292-0.45403q-2.3959-0.14074-2.5366 2.2551l-0.29643 5.0463q-0.14074 2.3959 2.2551 2.5366l7.7292 0.45403q2.3959 0.14074 2.5366-2.2551z" clip-path="url(#a)" fill="#fff" stroke="#fff"/>
<g clip-path="url(#a)">
<g transform="translate(668.39 403.63) rotate(-86.638) scale(.08 -.08)">
<use xlink:href="#r"/>
</g>
</g>
<path d="m691.66 399.1 0.79522 5.5294q0.34165 2.3756 2.7172 2.0339l7.6636-1.1022q2.3756-0.34165 2.0339-2.7172l-0.79522-5.5294q-0.34165-2.3756-2.7172-2.0339l-7.6636 1.1022q-2.3756 0.34165-2.0339 2.7172z" clip-path="url(#a)" fill="#fff" stroke="#fff"/>
<g clip-path="url(#a)">
<g transform="translate(695.68 398.52) rotate(81.816) scale(.08 -.08)">
<use xlink:href="#t"/>
</g>
</g>
<path d="m764.86 300.32 4.4139 2.4638q2.0956 1.1697 3.2654-0.92591l3.7736-6.7606q1.1697-2.0956-0.92591-3.2654l-4.4139-2.4638q-2.0956-1.1697-3.2654 0.92591l-3.7736 6.7606q-1.1697 2.0956 0.92591 3.2654z" clip-path="url(#a)" fill="#fff" stroke="#fff"/>
<g clip-path="url(#a)">
<g transform="translate(766.84 296.78) rotate(29.169) scale(.08 -.08)">
<use xlink:href="#r"/>
</g>
</g>
<path d="m532.64 593.32v33.808q0 2.4 2.4 2.4h7.7425q2.4 0 2.4-2.4v-33.808q0-2.4-2.4-2.4h-7.7425q-2.4 0-2.4 2.4z" clip-path="url(#a)" fill="#fff" stroke="#fff"/>
<g clip-path="url(#a)">
<g transform="translate(536.7 593.32) rotate(90) scale(.08 -.08)">
<use xlink:href="#l"/>
<use x="44.083984" xlink:href="#h"/>
<use x="105.607422" xlink:href="#i"/>
<use x="144.970703" xlink:href="#k"/>
<use x="242.382812" xlink:href="#f"/>
<use x="270.166016" xlink:href="#g"/>
<use x="333.544922" xlink:href="#d"/>
<use x="394.824219" xlink:href="#j"/>
</g>
</g>
<path d="m590.12 593.32v33.808q0 2.4 2.4 2.4h7.7425q2.4 0 2.4-2.4v-33.808q0-2.4-2.4-2.4h-7.7425q-2.4 0-2.4 2.4z" clip-path="url(#a)" fill="#fff" stroke="#fff"/>
<g clip-path="url(#a)">
<g transform="translate(594.19 593.32) rotate(90) scale(.08 -.08)">
<use xlink:href="#l"/>
<use x="44.083984" xlink:href="#h"/>
<use x="105.607422" xlink:href="#i"/>
<use x="144.970703" xlink:href="#k"/>
<use x="242.382812" xlink:href="#f"/>
<use x="270.166016" xlink:href="#g"/>
<use x="333.544922" xlink:href="#d"/>
<use x="394.824219" xlink:href="#j"/>
</g>
</g>
<path d="m650.8 593.32v33.808q0 2.4 2.4 2.4h7.7425q2.4 0 2.4-2.4v-33.808q0-2.4-2.4-2.4h-7.7425q-2.4 0-2.4 2.4z" clip-path="url(#a)" fill="#fff" stroke="#fff"/>
<g clip-path="url(#a)">
<g transform="translate(654.86 593.32) rotate(90) scale(.08 -.08)">
<use xlink:href="#l"/>
<use x="44.083984" xlink:href="#h"/>
<use x="105.607422" xlink:href="#i"/>
<use x="144.970703" xlink:href="#k"/>
<use x="242.382812" xlink:href="#f"/>
<use x="270.166016" xlink:href="#g"/>
<use x="333.544922" xlink:href="#d"/>
<use x="394.824219" xlink:href="#j"/>
</g>
</g>
<path d="m714.67 593.32v33.808q0 2.4 2.4 2.4h7.7425q2.4 0 2.4-2.4v-33.808q0-2.4-2.4-2.4h-7.7425q-2.4 0-2.4 2.4z" clip-path="url(#a)" fill="#fff" stroke="#fff"/>
<g clip-path="url(#a)">
<g transform="translate(718.73 593.32) rotate(90) scale(.08 -.08)">
<use xlink:href="#l"/>
<use x="44.083984" xlink:href="#h"/>
<use x="105.607422" xlink:href="#i"/>
<use x="144.970703" xlink:href="#k"/>
<use x="242.382812" xlink:href="#f"/>
<use x="270.166016" xlink:href="#g"/>
<use x="333.544922" xlink:href="#d"/>
<use x="394.824219" xlink:href="#j"/>
</g>
</g>
<path d="m796.42 459.54 3.0927-4.5148q1.3563-1.98-0.62367-3.3363l-6.3875-4.3756q-1.98-1.3563-3.3363 0.62367l-3.0927 4.5148q-1.3563 1.98 0.62367 3.3363l6.3875 4.3756q1.98 1.3563 3.3363-0.62367z" clip-path="url(#a)" fill="#fff" stroke="#fff"/>
<g clip-path="url(#a)">
<g transform="translate(793.07 457.24) rotate(-55.588) scale(.08 -.08)">
<use xlink:href="#q"/>
</g>
</g>
<path d="m831.38 458.19 1.6768-4.5895q0.82358-2.2543-1.4307-3.0778l-7.2724-2.6569q-2.2543-0.82358-3.0778 1.4307l-1.6768 4.5895q-0.82358 2.2543 1.4307 3.0778l7.2724 2.6569q2.2543 0.82358 3.0778-1.4307z" clip-path="url(#a)" fill="#fff" stroke="#fff"/>
<g clip-path="url(#a)">
<g transform="translate(827.56 456.79) rotate(-69.931) scale(.08 -.08)">
<use xlink:href="#l"/>
</g>
</g>
<path d="m867.65 456.34 0.14679-4.8215q0.073035-2.3989-2.3259-2.4719l-7.7389-0.23561q-2.3989-0.073034-2.4719 2.3259l-0.14679 4.8215q-0.073034 2.3989 2.3259 2.4719l7.7389 0.23561q2.3989 0.073034 2.4719-2.3259z" clip-path="url(#a)" fill="#fff" stroke="#fff"/>
<g clip-path="url(#a)">
<g transform="translate(863.59 456.22) rotate(-88.256) scale(.08 -.08)">
<use xlink:href="#ad"/>
</g>
</g>
<path d="m972.9 405.97 4.9645 2.3027q2.1772 1.0098 3.1871-1.1674l3.2578-7.0237q1.0098-2.1772-1.1674-3.187l-4.9645-2.3027q-2.1772-1.0098-3.1871 1.1674l-3.2578 7.0237q-1.0098 2.1772 1.1674 3.1871z" clip-path="url(#a)" fill="#fff" stroke="#fff"/>
<g clip-path="url(#a)">
<g transform="translate(974.61 402.28) rotate(24.883) scale(.08 -.08)">
<use xlink:href="#q"/>
</g>
</g>
<path d="m781.73 593.32v33.808q0 2.4 2.4 2.4h7.7425q2.4 0 2.4-2.4v-33.808q0-2.4-2.4-2.4h-7.7425q-2.4 0-2.4 2.4z" clip-path="url(#a)" fill="#fff" stroke="#fff"/>
<g clip-path="url(#a)">
<g transform="translate(785.8 593.32) rotate(90) scale(.08 -.08)">
<use xlink:href="#l"/>
<use x="44.083984" xlink:href="#h"/>
<use x="105.607422" xlink:href="#i"/>
<use x="144.970703" xlink:href="#k"/>
<use x="242.382812" xlink:href="#f"/>
<use x="270.166016" xlink:href="#g"/>
<use x="333.544922" xlink:href="#d"/>
<use x="394.824219" xlink:href="#j"/>
</g>
</g>
<path d="m851.99 593.32v33.808q0 2.4 2.4 2.4h7.7425q2.4 0 2.4-2.4v-33.808q0-2.4-2.4-2.4h-7.7425q-2.4 0-2.4 2.4z" clip-path="url(#a)" fill="#fff" stroke="#fff"/>
<g clip-path="url(#a)">
<g transform="translate(856.06 593.32) rotate(90) scale(.08 -.08)">
<use xlink:href="#l"/>
<use x="44.083984" xlink:href="#h"/>
<use x="105.607422" xlink:href="#i"/>
<use x="144.970703" xlink:href="#k"/>
<use x="242.382812" xlink:href="#f"/>
<use x="270.166016" xlink:href="#g"/>
<use x="333.544922" xlink:href="#d"/>
<use x="394.824219" xlink:href="#j"/>
</g>
</g>
<path d="m1012.7 513.09 4.6496-3.0464q2.0075-1.3153 0.69218-3.3228l-4.2432-6.4762q-1.3153-2.0075-3.3228-0.69218l-4.6496 3.0464q-2.0075 1.3153-0.69218 3.3228l4.2432 6.4762q1.3153 2.0075 3.3228 0.69218z" clip-path="url(#a)" fill="#fff" stroke="#fff"/>
<g clip-path="url(#a)">
<g transform="translate(1010.4 509.69) rotate(-33.233) scale(.08 -.08)">
<use xlink:href="#u"/>
</g>
</g>
<path d="m1053.2 512.2 3.1425-3.9595q1.492-1.8799-0.38792-3.3719l-6.0646-4.8132q-1.8799-1.492-3.3719 0.38792l-3.1425 3.9595q-1.492 1.8799 0.38792 3.3719l6.0646 4.8132q1.8799 1.492 3.3719-0.38792z" clip-path="url(#a)" fill="#fff" stroke="#fff"/>
<g clip-path="url(#a)">
<g transform="translate(1050 509.68) rotate(-51.563) scale(.08 -.08)">
<use xlink:href="#r"/>
</g>
</g>
<path d="m1096 509.04 0.15423-5.0526q0.073225-2.3989-2.3257-2.4721l-7.7389-0.23623q-2.3989-0.073226-2.4721 2.3257l-0.15423 5.0526q-0.073226 2.3989 2.3257 2.4721l7.7389 0.23623q2.3989 0.073226 2.4721-2.3257z" clip-path="url(#a)" fill="#fff" stroke="#fff"/>
<g clip-path="url(#a)">
<g transform="translate(1091.9 508.92) rotate(-88.252) scale(.08 -.08)">
<use xlink:href="#r"/>
</g>
</g>
<path d="m1124.6 507.91 3.3889 4.4409q1.456 1.9079 3.3639 0.45194l6.155-4.697q1.9079-1.456 0.45194-3.3639l-3.3889-4.4409q-1.456-1.9079-3.3639-0.45194l-6.155 4.697q-1.9079 1.456-0.45194 3.3639z" clip-path="url(#a)" fill="#fff" stroke="#fff"/>
<g clip-path="url(#a)">
<g transform="translate(1127.9 505.44) rotate(52.652) scale(.08 -.08)">
<use xlink:href="#t"/>
</g>
</g>
<path d="m1168.6 510.07 4.9539 3.1209q2.0306 1.2793 3.3099-0.75133l4.127-6.5509q1.2793-2.0306-0.75133-3.3099l-4.9539-3.1209q-2.0306-1.2793-3.3099 0.75133l-4.127 6.5509q-1.2793 2.0306 0.75133 3.3099z" clip-path="url(#a)" fill="#fff" stroke="#fff"/>
<g clip-path="url(#a)">
<g transform="translate(1170.8 506.63) rotate(32.211) scale(.08 -.08)">
<use xlink:href="#ac"/>
</g>
</g>
<path d="m925.44 593.32v33.808q0 2.4 2.4 2.4h7.7425q2.4 0 2.4-2.4v-33.808q0-2.4-2.4-2.4h-7.7425q-2.4 0-2.4 2.4z" clip-path="url(#a)" fill="#fff" stroke="#fff"/>
<g clip-path="url(#a)">
<g transform="translate(929.51 593.32) rotate(90) scale(.08 -.08)">
<use xlink:href="#l"/>
<use x="44.083984" xlink:href="#h"/>
<use x="105.607422" xlink:href="#i"/>
<use x="144.970703" xlink:href="#k"/>
<use x="242.382812" xlink:href="#f"/>
<use x="270.166016" xlink:href="#g"/>
<use x="333.544922" xlink:href="#d"/>
<use x="394.824219" xlink:href="#j"/>
</g>
</g>
<path d="m1002.1 593.32v33.808q0 2.4 2.4 2.4h7.7425q2.4 0 2.4-2.4v-33.808q0-2.4-2.4-2.4h-7.7425q-2.4 0-2.4 2.4z" clip-path="url(#a)" fill="#fff" stroke="#fff"/>
<g clip-path="url(#a)">
<g transform="translate(1006.2 593.32) rotate(90) scale(.08 -.08)">
<use xlink:href="#l"/>
<use x="44.083984" xlink:href="#h"/>
<use x="105.607422" xlink:href="#i"/>
<use x="144.970703" xlink:href="#k"/>
<use x="242.382812" xlink:href="#f"/>
<use x="270.166016" xlink:href="#g"/>
<use x="333.544922" xlink:href="#d"/>
<use x="394.824219" xlink:href="#j"/>
</g>
</g>
<path d="m1081.9 593.32v33.808q0 2.4 2.4 2.4h7.7425q2.4 0 2.4-2.4v-33.808q0-2.4-2.4-2.4h-7.7425q-2.4 0-2.4 2.4z" clip-path="url(#a)" fill="#fff" stroke="#fff"/>
<g clip-path="url(#a)">
<g transform="translate(1086 593.32) rotate(90) scale(.08 -.08)">
<use xlink:href="#l"/>
<use x="44.083984" xlink:href="#h"/>
<use x="105.607422" xlink:href="#i"/>
<use x="144.970703" xlink:href="#k"/>
<use x="242.382812" xlink:href="#f"/>
<use x="270.166016" xlink:href="#g"/>
<use x="333.544922" xlink:href="#d"/>
<use x="394.824219" xlink:href="#j"/>
</g>
</g>
<path d="m1165 593.32v33.808q0 2.4 2.4 2.4h7.7425q2.4 0 2.4-2.4v-33.808q0-2.4-2.4-2.4h-7.7425q-2.4 0-2.4 2.4z" clip-path="url(#a)" fill="#fff" stroke="#fff"/>
<g clip-path="url(#a)">
<g transform="translate(1169 593.32) rotate(90) scale(.08 -.08)">
<use xlink:href="#l"/>
<use x="44.083984" xlink:href="#h"/>
<use x="105.607422" xlink:href="#i"/>
<use x="144.970703" xlink:href="#k"/>
<use x="242.382812" xlink:href="#f"/>
<use x="270.166016" xlink:href="#g"/>
<use x="333.544922" xlink:href="#d"/>
<use x="394.824219" xlink:href="#j"/>
</g>
</g>
<path d="m111.09 593.32v33.808q0 2.4 2.4 2.4h7.7425q2.4 0 2.4-2.4v-33.808q0-2.4-2.4-2.4h-7.7425q-2.4 0-2.4 2.4z" clip-path="url(#a)" fill="#fff" stroke="#fff"/>
<g clip-path="url(#a)">
<g transform="translate(115.15 593.32) rotate(90) scale(.08 -.08)">
<use xlink:href="#l"/>
<use x="44.083984" xlink:href="#h"/>
<use x="105.607422" xlink:href="#i"/>
<use x="144.970703" xlink:href="#k"/>
<use x="242.382812" xlink:href="#f"/>
<use x="270.166016" xlink:href="#g"/>
<use x="333.544922" xlink:href="#d"/>
<use x="394.824219" xlink:href="#j"/>
</g>
</g>
<path d="m133.45 593.32v33.808q0 2.4 2.4 2.4h7.7425q2.4 0 2.4-2.4v-33.808q0-2.4-2.4-2.4h-7.7425q-2.4 0-2.4 2.4z" clip-path="url(#a)" fill="#fff" stroke="#fff"/>
<g clip-path="url(#a)">
<g transform="translate(137.51 593.32) rotate(90) scale(.08 -.08)">
<use xlink:href="#l"/>
<use x="44.083984" xlink:href="#h"/>
<use x="105.607422" xlink:href="#i"/>
<use x="144.970703" xlink:href="#k"/>
<use x="242.382812" xlink:href="#f"/>
<use x="270.166016" xlink:href="#g"/>
<use x="333.544922" xlink:href="#d"/>
<use x="394.824219" xlink:href="#j"/>
</g>
</g>
<path d="m75.962 593.32v33.808q0 2.4 2.4 2.4h7.7425q2.4 0 2.4-2.4v-33.808q0-2.4-2.4-2.4h-7.7425q-2.4 0-2.4 2.4z" clip-path="url(#a)" fill="#fff" stroke="#fff"/>
<g clip-path="url(#a)">
<g transform="translate(80.026 593.32) rotate(90) scale(.08 -.08)">
<use xlink:href="#l"/>
<use x="44.083984" xlink:href="#h"/>
<use x="105.607422" xlink:href="#i"/>
<use x="144.970703" xlink:href="#k"/>
<use x="242.382812" xlink:href="#f"/>
<use x="270.166016" xlink:href="#g"/>
<use x="333.544922" xlink:href="#d"/>
<use x="394.824219" xlink:href="#j"/>
</g>
</g>
<path d="m91.93 593.32v33.808q0 2.4 2.4 2.4h7.7425q2.4 0 2.4-2.4v-33.808q0-2.4-2.4-2.4h-7.7425q-2.4 0-2.4 2.4z" clip-path="url(#a)" fill="#fff" stroke="#fff"/>
<g clip-path="url(#a)">
<g transform="translate(95.994 593.32) rotate(90) scale(.08 -.08)">
<use xlink:href="#l"/>
<use x="44.083984" xlink:href="#h"/>
<use x="105.607422" xlink:href="#i"/>
<use x="144.970703" xlink:href="#k"/>
<use x="242.382812" xlink:href="#f"/>
<use x="270.166016" xlink:href="#g"/>
<use x="333.544922" xlink:href="#d"/>
<use x="394.824219" xlink:href="#j"/>
</g>
</g>
<path d="m253.43 92.543 7.2903-7.0045q1.7306-1.6628 0.067849-3.3934l-5.3642-5.5831q-1.6628-1.7306-3.3934-0.06785l-7.2903 7.0045q-1.7306 1.6628-0.067849 3.3934l5.3642 5.5831q1.6628 1.7306 3.3934 0.067849z" clip-path="url(#a)" fill="#fff" stroke="#fff"/>
<g clip-path="url(#a)">
<g transform="translate(250.62 89.613) rotate(-43.855) scale(.08 -.08)">
<use xlink:href="#w"/>
<use x="57.962891" xlink:href="#q"/>
</g>
</g>
<path d="m290.29 300.62 0.88631-9.977q0.21237-2.3906-2.1782-2.603l-7.7121-0.68512q-2.3906-0.21237-2.603 2.1782l-0.88631 9.977q-0.21237 2.3906 2.1782 2.603l7.7121 0.68512q2.3906 0.21237 2.603-2.1782z" clip-path="url(#a)" fill="#fff" stroke="#fff"/>
<g clip-path="url(#a)">
<g transform="translate(286.24 300.26) rotate(-84.923) scale(.08 -.08)">
<use xlink:href="#w"/>
<use x="55.712891" xlink:href="#u"/>
</g>
</g>
<path d="m378.62 188.43 4.4869 9.0598q1.0651 2.1507 3.2158 1.0855l6.9382-3.4362q2.1507-1.0651 1.0855-3.2158l-4.4869-9.0598q-1.0651-2.1507-3.2158-1.0855l-6.9382 3.4362q-2.1507 1.0651-1.0855 3.2158z" clip-path="url(#a)" fill="#fff" stroke="#fff"/>
<g clip-path="url(#a)">
<g transform="translate(382.26 186.63) rotate(63.653) scale(.08 -.08)">
<use xlink:href="#w"/>
<use x="57.962891" xlink:href="#q"/>
</g>
</g>
<path d="m219.67 593.32v33.808q0 2.4 2.4 2.4h7.7425q2.4 0 2.4-2.4v-33.808q0-2.4-2.4-2.4h-7.7425q-2.4 0-2.4 2.4z" clip-path="url(#a)" fill="#fff" stroke="#fff"/>
<g clip-path="url(#a)">
<g transform="translate(223.74 593.32) rotate(90) scale(.08 -.08)">
<use xlink:href="#l"/>
<use x="44.083984" xlink:href="#h"/>
<use x="105.607422" xlink:href="#i"/>
<use x="144.970703" xlink:href="#k"/>
<use x="242.382812" xlink:href="#f"/>
<use x="270.166016" xlink:href="#g"/>
<use x="333.544922" xlink:href="#d"/>
<use x="394.824219" xlink:href="#j"/>
</g>
</g>
<path d="m478.35 593.32v33.808q0 2.4 2.4 2.4h7.7425q2.4 0 2.4-2.4v-33.808q0-2.4-2.4-2.4h-7.7425q-2.4 0-2.4 2.4z" clip-path="url(#a)" fill="#fff" stroke="#fff"/>
<g clip-path="url(#a)">
<g transform="translate(482.41 593.32) rotate(90) scale(.08 -.08)">
<use xlink:href="#l"/>
<use x="44.083984" xlink:href="#h"/>
<use x="105.607422" xlink:href="#i"/>
<use x="144.970703" xlink:href="#k"/>
<use x="242.382812" xlink:href="#f"/>
<use x="270.166016" xlink:href="#g"/>
<use x="333.544922" xlink:href="#d"/>
<use x="394.824219" xlink:href="#j"/>
</g>
</g>
<path d="m1251.2 593.32v33.808q0 2.4 2.4 2.4h7.7425q2.4 0 2.4-2.4v-33.808q0-2.4-2.4-2.4h-7.7425q-2.4 0-2.4 2.4z" clip-path="url(#a)" fill="#fff" stroke="#fff"/>
<g clip-path="url(#a)">
<g transform="translate(1255.2 593.32) rotate(90) scale(.08 -.08)">
<use xlink:href="#l"/>
<use x="44.083984" xlink:href="#h"/>
<use x="105.607422" xlink:href="#i"/>
<use x="144.970703" xlink:href="#k"/>
<use x="242.382812" xlink:href="#f"/>
<use x="270.166016" xlink:href="#g"/>
<use x="333.544922" xlink:href="#d"/>
<use x="394.824219" xlink:href="#j"/>
</g>
</g>
<defs>
<path id="b" d="m0 8.6603c2.2967 0 4.4997-0.9125 6.1237-2.5365 1.624-1.624 2.5365-3.827 2.5365-6.1237s-0.9125-4.4997-2.5365-6.1237c-1.624-1.624-3.827-2.5365-6.1237-2.5365s-4.4997 0.9125-6.1237 2.5365c-1.624 1.624-2.5365 3.827-2.5365 6.1237s0.9125 4.4997 2.5365 6.1237c1.624 1.624 3.827 2.5365 6.1237 2.5365z"/>
</defs>
<g clip-path="url(#a)">
<use x="59.878788" y="661.818182" fill="#ffffff" stroke="#ffffff" xlink:href="#b"/>
</g>
<g clip-path="url(#a)">
<use x="69.459394" y="661.818182" fill="#ffffff" stroke="#ffffff" xlink:href="#b"/>
</g>
<g clip-path="url(#a)">
<use x="82.233535" y="661.818182" fill="#ffffff" stroke="#ffffff" xlink:href="#b"/>
</g>
<g clip-path="url(#a)">
<use x="98.201212" y="661.818182" fill="#ffffff" stroke="#ffffff" xlink:href="#b"/>
</g>
<g clip-path="url(#a)">
<use x="117.362424" y="661.818182" fill="#ffffff" stroke="#ffffff" xlink:href="#b"/>
</g>
<g clip-path="url(#a)">
<use x="139.717172" y="661.818182" fill="#ffffff" stroke="#ffffff" xlink:href="#b"/>
</g>
<g clip-path="url(#a)">
<use x="165.265455" y="661.818182" fill="#ffffff" stroke="#ffffff" xlink:href="#b"/>
</g>
<g clip-path="url(#a)">
<use x="194.007273" y="661.818182" fill="#ffffff" stroke="#ffffff" xlink:href="#b"/>
</g>
<g clip-path="url(#a)">
<use x="225.942626" y="661.818182" fill="#ffffff" stroke="#ffffff" xlink:href="#b"/>
</g>
<g clip-path="url(#a)">
<use x="261.071515" y="661.818182" fill="#ffffff" stroke="#ffffff" xlink:href="#b"/>
</g>
<g clip-path="url(#a)">
<use x="299.393939" y="661.818182" fill="#ffffff" stroke="#ffffff" xlink:href="#b"/>
</g>
<g clip-path="url(#a)">
<use x="340.909899" y="661.818182" fill="#ffffff" stroke="#ffffff" xlink:href="#b"/>
</g>
<g clip-path="url(#a)">
<use x="385.619394" y="661.818182" fill="#ffffff" stroke="#ffffff" xlink:href="#b"/>
</g>
<g clip-path="url(#a)">
<use x="433.522424" y="661.818182" fill="#ffffff" stroke="#ffffff" xlink:href="#b"/>
</g>
<g clip-path="url(#a)">
<use x="484.61899" y="661.818182" fill="#ffffff" stroke="#ffffff" xlink:href="#b"/>
</g>
<g clip-path="url(#a)">
<use x="538.909091" y="661.818182" fill="#ffffff" stroke="#ffffff" xlink:href="#b"/>
</g>
<g clip-path="url(#a)">
<use x="596.392727" y="661.818182" fill="#ffffff" stroke="#ffffff" xlink:href="#b"/>
</g>
<g clip-path="url(#a)">
<use x="657.069899" y="661.818182" fill="#ffffff" stroke="#ffffff" xlink:href="#b"/>
</g>
<g clip-path="url(#a)">
<use x="720.940606" y="661.818182" fill="#ffffff" stroke="#ffffff" xlink:href="#b"/>
</g>
<g clip-path="url(#a)">
<use x="788.004848" y="661.818182" fill="#ffffff" stroke="#ffffff" xlink:href="#b"/>
</g>
<g clip-path="url(#a)">
<use x="858.262626" y="661.818182" fill="#ffffff" stroke="#ffffff" xlink:href="#b"/>
</g>
<g clip-path="url(#a)">
<use x="931.713939" y="661.818182" fill="#ffffff" stroke="#ffffff" xlink:href="#b"/>
</g>
<g clip-path="url(#a)">
<use x="1008.358788" y="661.818182" fill="#ffffff" stroke="#ffffff" xlink:href="#b"/>
</g>
<g clip-path="url(#a)">
<use x="1088.197172" y="661.818182" fill="#ffffff" stroke="#ffffff" xlink:href="#b"/>
</g>
<g clip-path="url(#a)">
<use x="1171.229091" y="661.818182" fill="#ffffff" stroke="#ffffff" xlink:href="#b"/>
</g>
<g clip-path="url(#a)">
<use x="1257.454545" y="661.818182" fill="#ffffff" stroke="#ffffff" xlink:href="#b"/>
</g>
<g clip-path="url(#a)">
<use x="326.8515" y="31.515152" fill="#ffffff" stroke="#ffffff" xlink:href="#b"/>
</g>
<g clip-path="url(#a)">
<use x="197.565784" y="137.522433" fill="#ffffff" stroke="#ffffff" xlink:href="#b"/>
</g>
<g clip-path="url(#a)">
<use x="261.071515" y="558.633167" fill="#ffffff" stroke="#ffffff" xlink:href="#b"/>
</g>
<g clip-path="url(#a)">
<use x="465.058586" y="348.843577" fill="#ffffff" stroke="#ffffff" xlink:href="#b"/>
</g>
<g clip-path="url(#a)">
<use x="320.151919" y="454.012734" fill="#ffffff" stroke="#ffffff" xlink:href="#b"/>
</g>
<g clip-path="url(#a)">
<use x="385.619394" y="558.633167" fill="#ffffff" stroke="#ffffff" xlink:href="#b"/>
</g>
<g clip-path="url(#a)">
<use x="433.522424" y="558.633167" fill="#ffffff" stroke="#ffffff" xlink:href="#b"/>
</g>
<g clip-path="url(#a)">
<use x="299.393939" y="558.633167" fill="#ffffff" stroke="#ffffff" xlink:href="#b"/>
</g>
<g clip-path="url(#a)">
<use x="340.909899" y="558.633167" fill="#ffffff" stroke="#ffffff" xlink:href="#b"/>
</g>
<g clip-path="url(#a)">
<use x="59.878788" y="558.633167" fill="#ffffff" stroke="#ffffff" xlink:href="#b"/>
</g>
<g clip-path="url(#a)">
<use x="69.459394" y="558.633167" fill="#ffffff" stroke="#ffffff" xlink:href="#b"/>
</g>
<g clip-path="url(#a)">
<use x="90.217374" y="454.012734" fill="#ffffff" stroke="#ffffff" xlink:href="#b"/>
</g>
<g clip-path="url(#a)">
<use x="128.539798" y="454.012734" fill="#ffffff" stroke="#ffffff" xlink:href="#b"/>
</g>
<g clip-path="url(#a)">
<use x="165.265455" y="558.633167" fill="#ffffff" stroke="#ffffff" xlink:href="#b"/>
</g>
<g clip-path="url(#a)">
<use x="194.007273" y="558.633167" fill="#ffffff" stroke="#ffffff" xlink:href="#b"/>
</g>
<g clip-path="url(#a)">
<use x="675.592404" y="243.316485" fill="#ffffff" stroke="#ffffff" xlink:href="#b"/>
</g>
<g clip-path="url(#a)">
<use x="538.909091" y="558.633167" fill="#ffffff" stroke="#ffffff" xlink:href="#b"/>
</g>
<g clip-path="url(#a)">
<use x="596.392727" y="558.633167" fill="#ffffff" stroke="#ffffff" xlink:href="#b"/>
</g>
<g clip-path="url(#a)">
<use x="657.069899" y="558.633167" fill="#ffffff" stroke="#ffffff" xlink:href="#b"/>
</g>
<g clip-path="url(#a)">
<use x="720.940606" y="558.633167" fill="#ffffff" stroke="#ffffff" xlink:href="#b"/>
</g>
<g clip-path="url(#a)">
<use x="864.649697" y="348.843577" fill="#ffffff" stroke="#ffffff" xlink:href="#b"/>
</g>
<g clip-path="url(#a)">
<use x="788.004848" y="558.633167" fill="#ffffff" stroke="#ffffff" xlink:href="#b"/>
</g>
<g clip-path="url(#a)">
<use x="858.262626" y="558.633167" fill="#ffffff" stroke="#ffffff" xlink:href="#b"/>
</g>
<g clip-path="url(#a)">
<use x="1091.390707" y="454.012734" fill="#ffffff" stroke="#ffffff" xlink:href="#b"/>
</g>
<g clip-path="url(#a)">
<use x="931.713939" y="558.633167" fill="#ffffff" stroke="#ffffff" xlink:href="#b"/>
</g>
<g clip-path="url(#a)">
<use x="1008.358788" y="558.633167" fill="#ffffff" stroke="#ffffff" xlink:href="#b"/>
</g>
<g clip-path="url(#a)">
<use x="1088.197172" y="558.633167" fill="#ffffff" stroke="#ffffff" xlink:href="#b"/>
</g>
<g clip-path="url(#a)">
<use x="1171.229091" y="558.633167" fill="#ffffff" stroke="#ffffff" xlink:href="#b"/>
</g>
<g clip-path="url(#a)">
<use x="117.362424" y="558.633167" fill="#ffffff" stroke="#ffffff" xlink:href="#b"/>
</g>
<g clip-path="url(#a)">
<use x="139.717172" y="558.633167" fill="#ffffff" stroke="#ffffff" xlink:href="#b"/>
</g>
<g clip-path="url(#a)">
<use x="82.233535" y="558.633167" fill="#ffffff" stroke="#ffffff" xlink:href="#b"/>
</g>
<g clip-path="url(#a)">
<use x="98.201212" y="558.633167" fill="#ffffff" stroke="#ffffff" xlink:href="#b"/>
</g>
<g clip-path="url(#a)">
<use x="307.898628" y="31.515152" fill="#808080" stroke="#808080" xlink:href="#b"/>
</g>
<g clip-path="url(#a)">
<use x="225.942626" y="558.633167" fill="#ffffff" stroke="#ffffff" xlink:href="#b"/>
</g>
<g clip-path="url(#a)">
<use x="484.61899" y="558.633167" fill="#ffffff" stroke="#ffffff" xlink:href="#b"/>
</g>
<g clip-path="url(#a)">
<use x="1257.454545" y="558.633167" fill="#ffffff" stroke="#ffffff" xlink:href="#b"/>
</g>
<g clip-path="url(#a)">
<defs>
<path id="ap" d="m9.8125 72.906h9.8594v-72.906h-9.8594z"/>
<path id="o" d="m18.312 70.219v-15.531h18.5v-6.9844h-18.5v-29.688q0-6.6875 1.8281-8.5938t7.4531-1.9062h9.2188v-7.5156h-9.2188q-10.406 0-14.359 3.875-3.9531 3.8906-3.9531 14.141v29.688h-6.5938v6.9844h6.5938v15.531z"/>
</defs>
<g transform="translate(56.444 664.58) scale(.1 -.1)">
<use xlink:href="#ap"/>
<use x="29.492188" xlink:href="#o"/>
</g>
</g>
<g clip-path="url(#a)">
<defs>
<path id="as" d="m4.2031 54.688h8.9844l11.234-42.672 11.172 42.672h10.594l11.234-42.672 11.188 42.672h8.9844l-14.312-54.688h-10.594l-11.766 44.828-11.812-44.828h-10.609z"/>
<path id="s" d="m44.281 53.078v-8.5q-3.7969 1.9531-7.9062 2.9219-4.0938 0.98438-8.5 0.98438-6.6875 0-10.031-2.0469t-3.3438-6.1562q0-3.125 2.3906-4.9062t9.625-3.3906l3.0781-0.6875q9.5625-2.0469 13.594-5.7812t4.0312-10.422q0-7.625-6.0312-12.078-6.0312-4.4375-16.578-4.4375-4.3906 0-9.1562 0.85938t-10.031 2.5625v9.2812q4.9844-2.5938 9.8125-3.8906 4.8281-1.2812 9.5781-1.2812 6.3438 0 9.75 2.1719 3.4219 2.1719 3.4219 6.125 0 3.6562-2.4688 5.6094-2.4531 1.9531-10.812 3.7656l-3.125 0.73438q-8.3438 1.75-12.062 5.3906-3.7031 3.6406-3.7031 9.9844 0 7.7188 5.4688 11.906 5.4688 4.2031 15.531 4.2031 4.9688 0 9.3594-0.73438 4.4062-0.71875 8.1094-2.1875z"/>
</defs>
<g transform="translate(59.702 664.58) scale(.1 -.1)">
<use xlink:href="#as"/>
<use x="81.787109" xlink:href="#d"/>
<use x="143.066406" xlink:href="#s"/>
</g>
</g>
<g clip-path="url(#a)">
<g transform="translate(76.001 664.58) scale(.1 -.1)">
<use xlink:href="#d"/>
<use x="61.279297" xlink:href="#g"/>
</g>
</g>
<g clip-path="url(#a)">
<defs>
<path id="p" d="m30.609 48.391q-7.2188 0-11.422-5.6406t-4.2031-15.453 4.1719-15.453q4.1875-5.6406 11.453-5.6406 7.1875 0 11.375 5.6562 4.2031 5.6719 4.2031 15.438 0 9.7188-4.2031 15.406-4.1875 5.6875-11.375 5.6875zm0 7.6094q11.719 0 18.406-7.625 6.7031-7.6094 6.7031-21.078 0-13.422-6.7031-21.078-6.6875-7.6406-18.406-7.6406-11.766 0-18.438 7.6406-6.6562 7.6562-6.6562 21.078 0 13.469 6.6562 21.078 6.6719 7.625 18.438 7.625z"/>
<path id="ab" d="m18.109 8.2031v-29h-9.0312v75.484h9.0312v-8.2969q2.8438 4.875 7.1562 7.2344 4.3281 2.375 10.328 2.375 9.9688 0 16.188-7.9062 6.2344-7.9062 6.2344-20.797t-6.2344-20.812q-6.2188-7.9062-16.188-7.9062-6 0-10.328 2.375-4.3125 2.375-7.1562 7.25zm30.578 19.094q0 9.9062-4.0781 15.547t-11.203 5.6406q-7.1406 0-11.219-5.6406t-4.0781-15.547 4.0781-15.547 11.219-5.6406q7.125 0 11.203 5.6406t4.0781 15.547z"/>
<path id="am" d="m8.5 21.578v33.109h8.9844v-32.766q0-7.7656 3.0156-11.656 3.0312-3.875 9.0938-3.875 7.2656 0 11.484 4.6406 4.2344 4.6406 4.2344 12.656v31h8.9844v-54.688h-8.9844v8.4062q-3.2656-4.9844-7.5938-7.4062-4.3125-2.4219-10.031-2.4219-9.4219 0-14.312 5.8594-4.875 5.8594-4.875 17.141z"/>
<path id="ar" d="m32.172-5.0781q-3.7969-9.7656-7.4219-12.734-3.6094-2.9844-9.6562-2.9844h-7.1875v7.5156h5.2812q3.7031 0 5.75 1.7656 2.0625 1.75 4.5469 8.2969l1.6094 4.0938-22.109 53.812h9.5156l17.094-42.766 17.094 42.766h9.5156z"/>
</defs>
<g transform="translate(69.072 664.58) scale(.1 -.1)">
<use xlink:href="#p"/>
<use x="61.181641" xlink:href="#ab"/>
<use x="124.658203" xlink:href="#ab"/>
<use x="188.134766" xlink:href="#p"/>
<use x="249.316406" xlink:href="#i"/>
<use x="290.429688" xlink:href="#o"/>
<use x="329.638672" xlink:href="#am"/>
<use x="393.017578" xlink:href="#g"/>
<use x="456.396484" xlink:href="#f"/>
<use x="484.179688" xlink:href="#o"/>
<use x="523.388672" xlink:href="#ar"/>
</g>
</g>
<g clip-path="url(#a)">
<defs>
<path id="an" d="m37.109 75.984v-7.4844h-8.5938q-4.8281 0-6.7188-1.9531-1.875-1.9531-1.875-7.0312v-4.8281h14.797v-6.9844h-14.797v-47.703h-9.0312v47.703h-8.5938v6.9844h8.5938v3.8125q0 9.125 4.25 13.297 4.25 4.1875 13.469 4.1875z"/>
</defs>
<g transform="translate(110.49 664.58) scale(.1 -.1)">
<use xlink:href="#an"/>
<use x="35.205078" xlink:href="#p"/>
<use x="96.386719" xlink:href="#i"/>
</g>
</g>
<g clip-path="url(#a)">
<defs>
<path id="ai" d="m54.891 33.016v-33.016h-8.9844v32.719q0 7.7656-3.0312 11.609-3.0312 3.8594-9.0781 3.8594-7.2812 0-11.484-4.6406-4.2031-4.625-4.2031-12.641v-30.906h-9.0312v75.984h9.0312v-29.797q3.2344 4.9375 7.5938 7.375 4.375 2.4375 10.094 2.4375 9.4219 0 14.25-5.8281 4.8438-5.8281 4.8438-17.156z"/>
</defs>
<g transform="translate(130.29 664.58) scale(.1 -.1)">
<use xlink:href="#ai"/>
<use x="63.378906" xlink:href="#f"/>
<use x="91.162109" xlink:href="#k"/>
</g>
</g>
<g clip-path="url(#a)">
<g transform="translate(160.25 664.58) scale(.1 -.1)">
<use xlink:href="#o"/>
<use x="39.208984" xlink:href="#p"/>
</g>
</g>
<g clip-path="url(#a)">
<defs>
<path id="au" d="m9.0781 75.984h9.0312v-44.875l26.812 23.578h11.469l-29-25.578 30.234-29.109h-11.719l-27.797 26.703v-26.703h-9.0312z"/>
</defs>
<g transform="translate(179.19 664.58) scale(.1 -.1)">
<use xlink:href="#s"/>
<use x="52.099609" xlink:href="#ab"/>
<use x="115.576172" xlink:href="#h"/>
<use x="177.099609" xlink:href="#d"/>
<use x="238.378906" xlink:href="#au"/>
</g>
</g>
<g clip-path="url(#a)">
<defs>
<path id="al" d="m11.719 12.406h10.297v-8.4062l-8-15.625h-6.2969l4 15.625z"/>
</defs>
<g transform="translate(224.35 664.58) scale(.1 -.1)">
<use xlink:href="#al"/>
</g>
</g>
<g clip-path="url(#a)">
<defs>
<path id="v" d="m45.406 46.391v29.594h8.9844v-75.984h-8.9844v8.2031q-2.8281-4.875-7.1562-7.25-4.3125-2.375-10.375-2.375-9.9062 0-16.141 7.9062-6.2188 7.9219-6.2188 20.812t6.2188 20.797q6.2344 7.9062 16.141 7.9062 6.0625 0 10.375-2.375 4.3281-2.3594 7.1562-7.2344zm-30.609-19.094q0-9.9062 4.0781-15.547t11.203-5.6406 11.219 5.6406q4.1094 5.6406 4.1094 15.547t-4.1094 15.547q-4.0938 5.6406-11.219 5.6406t-11.203-5.6406-4.0781-15.547z"/>
</defs>
<g transform="translate(251.66 664.58) scale(.1 -.1)">
<use xlink:href="#d"/>
<use x="61.279297" xlink:href="#g"/>
<use x="124.658203" xlink:href="#v"/>
</g>
</g>
<g clip-path="url(#a)">
<g transform="translate(292.52 664.58) scale(.1 -.1)">
<use xlink:href="#an"/>
<use x="35.205078" xlink:href="#p"/>
<use x="96.386719" xlink:href="#i"/>
</g>
</g>
<g clip-path="url(#a)">
<g transform="translate(332.96 664.58) scale(.1 -.1)">
<use xlink:href="#k"/>
<use x="97.412109" xlink:href="#h"/>
</g>
</g>
<g clip-path="url(#a)">
<g transform="translate(380.6 664.58) scale(.1 -.1)">
<use xlink:href="#o"/>
<use x="39.208984" xlink:href="#p"/>
</g>
</g>
<g clip-path="url(#a)">
<g transform="translate(422.16 664.58) scale(.1 -.1)">
<use xlink:href="#ai"/>
<use x="63.378906" xlink:href="#h"/>
<use x="124.902344" xlink:href="#d"/>
<use x="186.181641" xlink:href="#i"/>
</g>
</g>
<g clip-path="url(#a)">
<g transform="translate(483.03 664.58) scale(.1 -.1)">
<use xlink:href="#al"/>
</g>
</g>
<g clip-path="url(#a)">
<g transform="translate(528.76 664.58) scale(.1 -.1)">
<use xlink:href="#o"/>
<use x="39.208984" xlink:href="#ai"/>
<use x="102.587891" xlink:href="#d"/>
<use x="163.867188" xlink:href="#o"/>
</g>
</g>
<g clip-path="url(#a)">
<g transform="translate(588.77 664.58) scale(.1 -.1)">
<use xlink:href="#p"/>
<use x="61.181641" xlink:href="#j"/>
<use x="88.964844" xlink:href="#v"/>
</g>
</g>
<g clip-path="url(#a)">
<defs>
<path id="ao" d="m48.688 27.297q0 9.9062-4.0781 15.547t-11.203 5.6406q-7.1406 0-11.219-5.6406t-4.0781-15.547 4.0781-15.547 11.219-5.6406q7.125 0 11.203 5.6406t4.0781 15.547zm-30.578 19.094q2.8438 4.875 7.1562 7.2344 4.3281 2.375 10.328 2.375 9.9688 0 16.188-7.9062 6.2344-7.9062 6.2344-20.797t-6.2344-20.812q-6.2188-7.9062-16.188-7.9062-6 0-10.328 2.375-4.3125 2.375-7.1562 7.25v-8.2031h-9.0312v75.984h9.0312z"/>
</defs>
<g transform="translate(628.32 664.58) scale(.1 -.1)">
<use xlink:href="#u"/>
<use x="67.232422" xlink:href="#d"/>
<use x="128.511719" xlink:href="#ao"/>
<use x="191.988281" xlink:href="#h"/>
<use x="253.511719" xlink:href="#j"/>
<use x="281.294922" xlink:href="#d"/>
<use x="342.574219" xlink:href="#f"/>
<use x="370.357422" xlink:href="#s"/>
<use x="422.457031" xlink:href="#f"/>
<use x="450.240234" xlink:href="#d"/>
<use x="511.519531" xlink:href="#g"/>
</g>
</g>
<g clip-path="url(#a)">
<defs>
<path id="aj" d="m48.781 52.594v-8.4062q-3.8125 2.1094-7.6406 3.1562t-7.7344 1.0469q-8.75 0-13.594-5.5469-4.8281-5.5312-4.8281-15.547t4.8281-15.562q4.8438-5.5312 13.594-5.5312 3.9062 0 7.7344 1.0469t7.6406 3.1562v-8.3125q-3.7656-1.75-7.7969-2.625-4.0156-0.89062-8.5625-0.89062-12.359 0-19.641 7.7656-7.2656 7.7656-7.2656 20.953 0 13.375 7.3438 21.031 7.3594 7.6719 20.156 7.6719 4.1406 0 8.0938-0.85938 3.9531-0.84375 7.6719-2.5469z"/>
</defs>
<g transform="translate(704.14 664.58) scale(.1 -.1)">
<use xlink:href="#v"/>
<use x="63.476562" xlink:href="#f"/>
<use x="91.259766" xlink:href="#d"/>
<use x="152.539062" xlink:href="#j"/>
<use x="180.322266" xlink:href="#h"/>
<use x="241.845703" xlink:href="#aj"/>
<use x="296.826172" xlink:href="#o"/>
</g>
</g>
<g clip-path="url(#a)">
<g transform="translate(779.27 664.58) scale(.1 -.1)">
<use xlink:href="#s"/>
<use x="52.099609" xlink:href="#o"/>
<use x="91.308594" xlink:href="#f"/>
<use x="119.091797" xlink:href="#j"/>
<use x="146.875" xlink:href="#j"/>
</g>
</g>
<g clip-path="url(#a)">
<g transform="translate(846.24 664.58) scale(.1 -.1)">
<use xlink:href="#am"/>
<use x="63.378906" xlink:href="#s"/>
<use x="115.478516" xlink:href="#h"/>
<use x="177.001953" xlink:href="#v"/>
</g>
</g>
<g clip-path="url(#a)">
<g transform="translate(927.16 664.58) scale(.1 -.1)">
<use xlink:href="#f"/>
<use x="27.783203" xlink:href="#g"/>
</g>
</g>
<g clip-path="url(#a)">
<g transform="translate(994.75 664.58) scale(.1 -.1)">
<use xlink:href="#s"/>
<use x="52.099609" xlink:href="#p"/>
<use x="113.28125" xlink:href="#k"/>
<use x="210.693359" xlink:href="#h"/>
</g>
</g>
<g clip-path="url(#a)">
<g transform="translate(1064.6 664.58) scale(.1 -.1)">
<use xlink:href="#t"/>
<use x="69.824219" xlink:href="#d"/>
<use x="131.103516" xlink:href="#g"/>
<use x="194.482422" xlink:href="#d"/>
<use x="255.761719" xlink:href="#v"/>
<use x="319.238281" xlink:href="#f"/>
<use x="347.021484" xlink:href="#d"/>
<use x="408.300781" xlink:href="#g"/>
</g>
</g>
<g clip-path="url(#a)">
<defs>
<path id="at" d="m2.9844 54.688h9.5156l17.094-45.891 17.094 45.891h9.5156l-20.516-54.688h-12.203z"/>
</defs>
<g transform="translate(1147.1 664.58) scale(.1 -.1)">
<use xlink:href="#ab"/>
<use x="63.476562" xlink:href="#i"/>
<use x="102.339844" xlink:href="#p"/>
<use x="163.521484" xlink:href="#at"/>
<use x="222.701172" xlink:href="#f"/>
<use x="250.484375" xlink:href="#g"/>
<use x="313.863281" xlink:href="#aj"/>
<use x="368.84375" xlink:href="#h"/>
<use x="430.367188" xlink:href="#s"/>
</g>
</g>
<g clip-path="url(#a)">
<defs>
<path id="e" d="m10.688 12.406h10.312v-12.406h-10.312z"/>
</defs>
<g transform="translate(1255.9 664.58) scale(.1 -.1)">
<use xlink:href="#e"/>
</g>
</g>
<g clip-path="url(#a)">
<defs>
<path id="c" d="m12.406 8.2969h16.109v55.625l-17.531-3.5156v8.9844l17.438 3.5156h9.8594v-64.609h16.109v-8.2969h-41.984z"/>
</defs>
<g transform="translate(318.9 34.275) scale(.1 -.1)">
<use xlink:href="#c"/>
<use x="63.623047" xlink:href="#e"/>
<use x="95.410156" xlink:href="#c"/>
</g>
</g>
<g clip-path="url(#a)">
<defs>
<path id="n" d="m19.188 8.2969h34.422v-8.2969h-46.281v8.2969q5.6094 5.8125 15.297 15.594 9.7031 9.7969 12.188 12.641 4.7344 5.3125 6.6094 9 1.8906 3.6875 1.8906 7.25 0 5.8125-4.0781 9.4688-4.0781 3.6719-10.625 3.6719-4.6406 0-9.7969-1.6094-5.1406-1.6094-11-4.8906v9.9688q5.9531 2.3906 11.125 3.6094 5.1875 1.2188 9.4844 1.2188 11.328 0 18.062-5.6719 6.7344-5.6562 6.7344-15.125 0-4.5-1.6875-8.5312-1.6719-4.0156-6.125-9.4844-1.2188-1.4219-7.7656-8.1875-6.5312-6.7656-18.453-18.922z"/>
</defs>
<g transform="translate(189.61 140.28) scale(.1 -.1)">
<use xlink:href="#c"/>
<use x="63.623047" xlink:href="#e"/>
<use x="95.410156" xlink:href="#n"/>
</g>
</g>
<g clip-path="url(#a)">
<defs>
<path id="m" d="m40.578 39.312q7.0781-1.5156 11.047-6.3125 3.9844-4.7812 3.9844-11.812 0-10.781-7.4219-16.703-7.4219-5.9062-21.094-5.9062-4.5781 0-9.4375 0.90625t-10.031 2.7188v9.5156q4.0938-2.3906 8.9688-3.6094 4.8906-1.2188 10.219-1.2188 9.2656 0 14.125 3.6562t4.8594 10.641q0 6.4531-4.5156 10.078-4.5156 3.6406-12.562 3.6406h-8.5v8.1094h8.8906q7.2656 0 11.125 2.9062t3.8594 8.375q0 5.6094-3.9844 8.6094-3.9688 3.0156-11.391 3.0156-4.0625 0-8.7031-0.89062-4.6406-0.875-10.203-2.7188v8.7812q5.625 1.5625 10.531 2.3438t9.25 0.78125q11.234 0 17.766-5.1094 6.5469-5.0938 6.5469-13.781 0-6.0625-3.4688-10.234t-9.8594-5.7812z"/>
</defs>
<g transform="translate(253.12 561.39) scale(.1 -.1)">
<use xlink:href="#c"/>
<use x="63.623047" xlink:href="#e"/>
<use x="95.410156" xlink:href="#m"/>
</g>
</g>
<g clip-path="url(#a)">
<defs>
<path id="aa" d="m37.797 64.312-24.906-38.922h24.906zm-2.5938 8.5938h12.406v-47.516h10.406v-8.2031h-10.406v-17.188h-9.8125v17.188h-32.906v9.5156z"/>
</defs>
<g transform="translate(457.11 351.6) scale(.1 -.1)">
<use xlink:href="#c"/>
<use x="63.623047" xlink:href="#e"/>
<use x="95.410156" xlink:href="#aa"/>
</g>
</g>
<g clip-path="url(#a)">
<defs>
<path id="z" d="m31.781 34.625q-7.0312 0-11.062-3.7656-4.0156-3.7656-4.0156-10.344 0-6.5938 4.0156-10.359 4.0312-3.7656 11.062-3.7656t11.078 3.7812q4.0625 3.7969 4.0625 10.344 0 6.5781-4.0312 10.344-4.0156 3.7656-11.109 3.7656zm-9.8594 4.1875q-6.3438 1.5625-9.8906 5.9062-3.5312 4.3594-3.5312 10.609 0 8.7344 6.2188 13.812 6.2344 5.0781 17.062 5.0781 10.891 0 17.094-5.0781t6.2031-13.812q0-6.25-3.5469-10.609-3.5312-4.3438-9.8281-5.9062 7.125-1.6562 11.094-6.5 3.9844-4.8281 3.9844-11.797 0-10.609-6.4688-16.281-6.4688-5.6562-18.531-5.6562-12.047 0-18.531 5.6562-6.4688 5.6719-6.4688 16.281 0 6.9688 4 11.797 4.0156 4.8438 11.141 6.5zm-3.6094 15.578q0-5.6562 3.5312-8.8281 3.5469-3.1719 9.9375-3.1719 6.3594 0 9.9375 3.1719 3.5938 3.1719 3.5938 8.8281 0 5.6719-3.5938 8.8438-3.5781 3.1719-9.9375 3.1719-6.3906 0-9.9375-3.1719-3.5312-3.1719-3.5312-8.8438z"/>
</defs>
<g transform="translate(312.2 456.77) scale(.1 -.1)">
<use xlink:href="#c"/>
<use x="63.623047" xlink:href="#e"/>
<use x="95.410156" xlink:href="#z"/>
</g>
</g>
<g clip-path="url(#a)">
<defs>
<path id="y" d="m10.984 1.5156v8.9844q3.7188-1.7656 7.5156-2.6875 3.8125-0.92188 7.4844-0.92188 9.7656 0 14.906 6.5625 5.1562 6.5625 5.8906 19.953-2.8281-4.2031-7.1875-6.4531-4.3438-2.25-9.6094-2.25-10.938 0-17.312 6.6094-6.375 6.625-6.375 18.109 0 11.219 6.6406 18 6.6406 6.7969 17.672 6.7969 12.656 0 19.312-9.7031 6.6719-9.6875 6.6719-28.141 0-17.234-8.1875-27.516-8.1719-10.281-21.984-10.281-3.7188 0-7.5312 0.73438-3.7969 0.73438-7.9062 2.2031zm19.625 30.906q6.6406 0 10.516 4.5312 3.8906 4.5469 3.8906 12.469 0 7.8594-3.8906 12.422-3.875 4.5625-10.516 4.5625t-10.516-4.5625-3.875-12.422q0-7.9219 3.875-12.469 3.875-4.5312 10.516-4.5312z"/>
</defs>
<g transform="translate(377.67 561.39) scale(.1 -.1)">
<use xlink:href="#c"/>
<use x="63.623047" xlink:href="#e"/>
<use x="95.410156" xlink:href="#y"/>
</g>
</g>
<g clip-path="url(#a)">
<defs>
<path id="ah" d="m31.781 66.406q-7.6094 0-11.453-7.5-3.8281-7.4844-3.8281-22.531 0-14.984 3.8281-22.484 3.8438-7.5 11.453-7.5 7.6719 0 11.5 7.5 3.8438 7.5 3.8438 22.484 0 15.047-3.8438 22.531-3.8281 7.5-11.5 7.5zm0 7.8125q12.266 0 18.734-9.7031 6.4688-9.6875 6.4688-28.141 0-18.406-6.4688-28.109-6.4688-9.6875-18.734-9.6875-12.25 0-18.719 9.6875-6.4688 9.7031-6.4688 28.109 0 18.453 6.4688 28.141 6.4688 9.7031 18.719 9.7031z"/>
</defs>
<g transform="translate(422.39 561.39) scale(.1 -.1)">
<use xlink:href="#c"/>
<use x="63.623047" xlink:href="#e"/>
<use x="95.410156" xlink:href="#c"/>
<use x="159.033203" xlink:href="#ah"/>
</g>
</g>
<g clip-path="url(#a)">
<g transform="translate(288.26 561.39) scale(.1 -.1)">
<use xlink:href="#c"/>
<use x="63.623047" xlink:href="#e"/>
<use x="95.410156" xlink:href="#c"/>
<use x="159.033203" xlink:href="#c"/>
</g>
</g>
<g clip-path="url(#a)">
<g transform="translate(329.78 561.39) scale(.1 -.1)">
<use xlink:href="#c"/>
<use x="63.623047" xlink:href="#e"/>
<use x="95.410156" xlink:href="#c"/>
<use x="159.033203" xlink:href="#n"/>
</g>
</g>
<g clip-path="url(#a)">
<g transform="translate(48.746 561.39) scale(.1 -.1)">
<use xlink:href="#c"/>
<use x="63.623047" xlink:href="#e"/>
<use x="95.410156" xlink:href="#c"/>
<use x="159.033203" xlink:href="#m"/>
</g>
</g>
<g clip-path="url(#a)">
<g transform="translate(58.327 561.39) scale(.1 -.1)">
<use xlink:href="#c"/>
<use x="63.623047" xlink:href="#e"/>
<use x="95.410156" xlink:href="#c"/>
<use x="159.033203" xlink:href="#aa"/>
</g>
</g>
<g clip-path="url(#a)">
<defs>
<path id="ag" d="m10.797 72.906h38.719v-8.3125h-29.688v-17.859q2.1406 0.73438 4.2812 1.0938 2.1562 0.35938 4.3125 0.35938 12.203 0 19.328-6.6875 7.1406-6.6875 7.1406-18.109 0-11.766-7.3281-18.297-7.3281-6.5156-20.656-6.5156-4.5938 0-9.3594 0.78125-4.75 0.78125-9.8281 2.3438v9.9219q4.3906-2.3906 9.0781-3.5625t9.9062-1.1719q8.4531 0 13.375 4.4375 4.9375 4.4375 4.9375 12.062 0 7.6094-4.9375 12.047-4.9219 4.4531-13.375 4.4531-3.9531 0-7.8906-0.875-3.9219-0.875-8.0156-2.7344z"/>
</defs>
<g transform="translate(79.085 456.77) scale(.1 -.1)">
<use xlink:href="#c"/>
<use x="63.623047" xlink:href="#e"/>
<use x="95.410156" xlink:href="#c"/>
<use x="159.033203" xlink:href="#ag"/>
</g>
</g>
<g clip-path="url(#a)">
<defs>
<path id="af" d="m33.016 40.375q-6.6406 0-10.531-4.5469-3.875-4.5312-3.875-12.438 0-7.8594 3.875-12.438 3.8906-4.5625 10.531-4.5625t10.516 4.5625q3.875 4.5781 3.875 12.438 0 7.9062-3.875 12.438-3.875 4.5469-10.516 4.5469zm19.578 30.922v-8.9844q-3.7188 1.75-7.5 2.6719-3.7812 0.9375-7.5 0.9375-9.7656 0-14.922-6.5938-5.1406-6.5938-5.875-19.922 2.875 4.25 7.2188 6.5156 4.3594 2.2656 9.5781 2.2656 10.984 0 17.359-6.6719 6.375-6.6562 6.375-18.125 0-11.234-6.6406-18.031-6.6406-6.7812-17.672-6.7812-12.656 0-19.344 9.6875-6.6875 9.7031-6.6875 28.109 0 17.281 8.2031 27.562t22.016 10.281q3.7188 0 7.5-0.73438t7.8906-2.1875z"/>
</defs>
<g transform="translate(117.41 456.77) scale(.1 -.1)">
<use xlink:href="#c"/>
<use x="63.623047" xlink:href="#e"/>
<use x="95.410156" xlink:href="#c"/>
<use x="159.033203" xlink:href="#af"/>
</g>
</g>
<g clip-path="url(#a)">
<defs>
<path id="ae" d="m8.2031 72.906h46.875v-4.2031l-26.469-68.703h-10.297l24.906 64.594h-35.016z"/>
</defs>
<g transform="translate(154.13 561.39) scale(.1 -.1)">
<use xlink:href="#c"/>
<use x="63.623047" xlink:href="#e"/>
<use x="95.410156" xlink:href="#c"/>
<use x="159.033203" xlink:href="#ae"/>
</g>
</g>
<g clip-path="url(#a)">
<g transform="translate(182.87 561.39) scale(.1 -.1)">
<use xlink:href="#c"/>
<use x="63.623047" xlink:href="#e"/>
<use x="95.410156" xlink:href="#c"/>
<use x="159.033203" xlink:href="#z"/>
</g>
</g>
<g clip-path="url(#a)">
<g transform="translate(664.46 246.08) scale(.1 -.1)">
<use xlink:href="#c"/>
<use x="63.623047" xlink:href="#e"/>
<use x="95.410156" xlink:href="#c"/>
<use x="159.033203" xlink:href="#y"/>
</g>
</g>
<g clip-path="url(#a)">
<g transform="translate(527.78 561.39) scale(.1 -.1)">
<use xlink:href="#c"/>
<use x="63.623047" xlink:href="#e"/>
<use x="95.410156" xlink:href="#n"/>
<use x="159.033203" xlink:href="#ah"/>
</g>
</g>
<g clip-path="url(#a)">
<g transform="translate(585.26 561.39) scale(.1 -.1)">
<use xlink:href="#c"/>
<use x="63.623047" xlink:href="#e"/>
<use x="95.410156" xlink:href="#n"/>
<use x="159.033203" xlink:href="#c"/>
</g>
</g>
<g clip-path="url(#a)">
<g transform="translate(645.94 561.39) scale(.1 -.1)">
<use xlink:href="#c"/>
<use x="63.623047" xlink:href="#e"/>
<use x="95.410156" xlink:href="#n"/>
<use x="159.033203" xlink:href="#n"/>
</g>
</g>
<g clip-path="url(#a)">
<g transform="translate(709.81 561.39) scale(.1 -.1)">
<use xlink:href="#c"/>
<use x="63.623047" xlink:href="#e"/>
<use x="95.410156" xlink:href="#n"/>
<use x="159.033203" xlink:href="#m"/>
</g>
</g>
<g clip-path="url(#a)">
<g transform="translate(853.52 351.6) scale(.1 -.1)">
<use xlink:href="#c"/>
<use x="63.623047" xlink:href="#e"/>
<use x="95.410156" xlink:href="#n"/>
<use x="159.033203" xlink:href="#aa"/>
</g>
</g>
<g clip-path="url(#a)">
<g transform="translate(776.87 561.39) scale(.1 -.1)">
<use xlink:href="#c"/>
<use x="63.623047" xlink:href="#e"/>
<use x="95.410156" xlink:href="#n"/>
<use x="159.033203" xlink:href="#ag"/>
</g>
</g>
<g clip-path="url(#a)">
<g transform="translate(847.13 561.39) scale(.1 -.1)">
<use xlink:href="#c"/>
<use x="63.623047" xlink:href="#e"/>
<use x="95.410156" xlink:href="#n"/>
<use x="159.033203" xlink:href="#af"/>
</g>
</g>
<g clip-path="url(#a)">
<g transform="translate(1080.3 456.77) scale(.1 -.1)">
<use xlink:href="#c"/>
<use x="63.623047" xlink:href="#e"/>
<use x="95.410156" xlink:href="#n"/>
<use x="159.033203" xlink:href="#ae"/>
</g>
</g>
<g clip-path="url(#a)">
<g transform="translate(920.58 561.39) scale(.1 -.1)">
<use xlink:href="#c"/>
<use x="63.623047" xlink:href="#e"/>
<use x="95.410156" xlink:href="#n"/>
<use x="159.033203" xlink:href="#z"/>
</g>
</g>
<g clip-path="url(#a)">
<g transform="translate(997.23 561.39) scale(.1 -.1)">
<use xlink:href="#c"/>
<use x="63.623047" xlink:href="#e"/>
<use x="95.410156" xlink:href="#n"/>
<use x="159.033203" xlink:href="#y"/>
</g>
</g>
<g clip-path="url(#a)">
<g transform="translate(1077.1 561.39) scale(.1 -.1)">
<use xlink:href="#c"/>
<use x="63.623047" xlink:href="#e"/>
<use x="95.410156" xlink:href="#m"/>
<use x="159.033203" xlink:href="#ah"/>
</g>
</g>
<g clip-path="url(#a)">
<g transform="translate(1160.1 561.39) scale(.1 -.1)">
<use xlink:href="#c"/>
<use x="63.623047" xlink:href="#e"/>
<use x="95.410156" xlink:href="#m"/>
<use x="159.033203" xlink:href="#c"/>
</g>
</g>
<g clip-path="url(#a)">
<g transform="translate(106.23 561.39) scale(.1 -.1)">
<use xlink:href="#c"/>
<use x="63.623047" xlink:href="#e"/>
<use x="95.410156" xlink:href="#m"/>
<use x="159.033203" xlink:href="#n"/>
</g>
</g>
<g clip-path="url(#a)">
<g transform="translate(128.58 561.39) scale(.1 -.1)">
<use xlink:href="#c"/>
<use x="63.623047" xlink:href="#e"/>
<use x="95.410156" xlink:href="#m"/>
<use x="159.033203" xlink:href="#m"/>
</g>
</g>
<g clip-path="url(#a)">
<g transform="translate(71.101 561.39) scale(.1 -.1)">
<use xlink:href="#c"/>
<use x="63.623047" xlink:href="#e"/>
<use x="95.410156" xlink:href="#m"/>
<use x="159.033203" xlink:href="#aa"/>
</g>
</g>
<g clip-path="url(#a)">
<g transform="translate(87.068 561.39) scale(.1 -.1)">
<use xlink:href="#c"/>
<use x="63.623047" xlink:href="#e"/>
<use x="95.410156" xlink:href="#m"/>
<use x="159.033203" xlink:href="#ag"/>
</g>
</g>
<g clip-path="url(#a)">
<g transform="translate(296.77 34.275) scale(.1 -.1)">
<use xlink:href="#c"/>
<use x="63.623047" xlink:href="#e"/>
<use x="95.410156" xlink:href="#m"/>
<use x="159.033203" xlink:href="#af"/>
</g>
</g>
<g clip-path="url(#a)">
<g transform="translate(214.81 561.39) scale(.1 -.1)">
<use xlink:href="#c"/>
<use x="63.623047" xlink:href="#e"/>
<use x="95.410156" xlink:href="#m"/>
<use x="159.033203" xlink:href="#ae"/>
</g>
</g>
<g clip-path="url(#a)">
<g transform="translate(473.49 561.39) scale(.1 -.1)">
<use xlink:href="#c"/>
<use x="63.623047" xlink:href="#e"/>
<use x="95.410156" xlink:href="#m"/>
<use x="159.033203" xlink:href="#z"/>
</g>
</g>
<g clip-path="url(#a)">
<g transform="translate(1246.3 561.39) scale(.1 -.1)">
<use xlink:href="#c"/>
<use x="63.623047" xlink:href="#e"/>
<use x="95.410156" xlink:href="#m"/>
<use x="159.033203" xlink:href="#y"/>
</g>
</g>
<defs>
<clipPath id="a">
<rect width="1317.3" height="693.33"/>
</clipPath>
</defs>
</svg>
