<?xml version="1.0" encoding="utf-8" standalone="no"?>
<!DOCTYPE svg PUBLIC "-//W3C//DTD SVG 1.1//EN"
  "http://www.w3.org/Graphics/SVG/1.1/DTD/svg11.dtd">
<!-- Created with matplotlib (https://matplotlib.org/) -->
<svg height="560pt" version="1.1" viewBox="0 0 1064 560" width="1064pt" xmlns="http://www.w3.org/2000/svg" xmlns:xlink="http://www.w3.org/1999/xlink">
 <defs>
  <style type="text/css">
*{stroke-linecap:butt;stroke-linejoin:round;}
  </style>
 </defs>
 <g id="figure_1">
  <g id="patch_1">
   <path d="M 0 560 
L 1064 560 
L 1064 0 
L 0 0 
z
" style="fill:#ffffff;"/>
  </g>
  <g id="axes_1">
   <g id="LineCollection_1">
    <path clip-path="url(#p3bb1b4c992)" d="M 864.017789 26.367281 
L 864.017789 115.216557 
" style="fill:none;stroke:#000000;"/>
    <path clip-path="url(#p3bb1b4c992)" d="M 864.017789 115.216557 
L 1015.37884 533.632719 
" style="fill:none;stroke:#000000;"/>
    <path clip-path="url(#p3bb1b4c992)" d="M 864.017789 115.216557 
L 971.435309 533.632719 
" style="fill:none;stroke:#000000;"/>
    <path clip-path="url(#p3bb1b4c992)" d="M 864.017789 115.216557 
L 605.239218 201.86034 
" style="fill:none;stroke:#000000;"/>
    <path clip-path="url(#p3bb1b4c992)" d="M 605.239218 201.86034 
L 316.676698 286.573906 
" style="fill:none;stroke:#000000;"/>
    <path clip-path="url(#p3bb1b4c992)" d="M 605.239218 201.86034 
L 835.210364 286.573906 
" style="fill:none;stroke:#000000;"/>
    <path clip-path="url(#p3bb1b4c992)" d="M 605.239218 201.86034 
L 663.830593 451.659892 
" style="fill:none;stroke:#000000;"/>
    <path clip-path="url(#p3bb1b4c992)" d="M 316.676698 286.573906 
L 48.62116 451.659892 
" style="fill:none;stroke:#000000;"/>
    <path clip-path="url(#p3bb1b4c992)" d="M 316.676698 286.573906 
L 180.451752 451.659892 
" style="fill:none;stroke:#000000;"/>
    <path clip-path="url(#p3bb1b4c992)" d="M 316.676698 286.573906 
L 312.282345 451.659892 
" style="fill:none;stroke:#000000;"/>
    <path clip-path="url(#p3bb1b4c992)" d="M 316.676698 286.573906 
L 356.225876 451.659892 
" style="fill:none;stroke:#000000;"/>
    <path clip-path="url(#p3bb1b4c992)" d="M 316.676698 286.573906 
L 400.169407 451.659892 
" style="fill:none;stroke:#000000;"/>
    <path clip-path="url(#p3bb1b4c992)" d="M 316.676698 286.573906 
L 444.112938 451.659892 
" style="fill:none;stroke:#000000;"/>
    <path clip-path="url(#p3bb1b4c992)" d="M 316.676698 286.573906 
L 488.056469 451.659892 
" style="fill:none;stroke:#000000;"/>
    <path clip-path="url(#p3bb1b4c992)" d="M 316.676698 286.573906 
L 575.943531 369.687065 
" style="fill:none;stroke:#000000;"/>
    <path clip-path="url(#p3bb1b4c992)" d="M 316.676698 286.573906 
L 92.564691 451.659892 
" style="fill:none;stroke:#000000;"/>
    <path clip-path="url(#p3bb1b4c992)" d="M 316.676698 286.573906 
L 268.338814 451.659892 
" style="fill:none;stroke:#000000;"/>
    <path clip-path="url(#p3bb1b4c992)" d="M 835.210364 286.573906 
L 729.745889 369.687065 
" style="fill:none;stroke:#000000;"/>
    <path clip-path="url(#p3bb1b4c992)" d="M 835.210364 286.573906 
L 795.661186 451.659892 
" style="fill:none;stroke:#000000;"/>
    <path clip-path="url(#p3bb1b4c992)" d="M 835.210364 286.573906 
L 839.604717 451.659892 
" style="fill:none;stroke:#000000;"/>
    <path clip-path="url(#p3bb1b4c992)" d="M 835.210364 286.573906 
L 883.548248 451.659892 
" style="fill:none;stroke:#000000;"/>
    <path clip-path="url(#p3bb1b4c992)" d="M 835.210364 286.573906 
L 927.491778 451.659892 
" style="fill:none;stroke:#000000;"/>
    <path clip-path="url(#p3bb1b4c992)" d="M 729.745889 369.687065 
L 707.774124 451.659892 
" style="fill:none;stroke:#000000;"/>
    <path clip-path="url(#p3bb1b4c992)" d="M 729.745889 369.687065 
L 751.717655 451.659892 
" style="fill:none;stroke:#000000;"/>
    <path clip-path="url(#p3bb1b4c992)" d="M 795.661186 451.659892 
L 795.661186 533.632719 
" style="fill:none;stroke:#000000;"/>
    <path clip-path="url(#p3bb1b4c992)" d="M 839.604717 451.659892 
L 839.604717 533.632719 
" style="fill:none;stroke:#000000;"/>
    <path clip-path="url(#p3bb1b4c992)" d="M 883.548248 451.659892 
L 883.548248 533.632719 
" style="fill:none;stroke:#000000;"/>
    <path clip-path="url(#p3bb1b4c992)" d="M 707.774124 451.659892 
L 707.774124 533.632719 
" style="fill:none;stroke:#000000;"/>
    <path clip-path="url(#p3bb1b4c992)" d="M 751.717655 451.659892 
L 751.717655 533.632719 
" style="fill:none;stroke:#000000;"/>
    <path clip-path="url(#p3bb1b4c992)" d="M 48.62116 451.659892 
L 48.62116 533.632719 
" style="fill:none;stroke:#000000;"/>
    <path clip-path="url(#p3bb1b4c992)" d="M 180.451752 451.659892 
L 136.508222 533.632719 
" style="fill:none;stroke:#000000;"/>
    <path clip-path="url(#p3bb1b4c992)" d="M 180.451752 451.659892 
L 180.451752 533.632719 
" style="fill:none;stroke:#000000;"/>
    <path clip-path="url(#p3bb1b4c992)" d="M 180.451752 451.659892 
L 224.395283 533.632719 
" style="fill:none;stroke:#000000;"/>
    <path clip-path="url(#p3bb1b4c992)" d="M 312.282345 451.659892 
L 312.282345 533.632719 
" style="fill:none;stroke:#000000;"/>
    <path clip-path="url(#p3bb1b4c992)" d="M 356.225876 451.659892 
L 356.225876 533.632719 
" style="fill:none;stroke:#000000;"/>
    <path clip-path="url(#p3bb1b4c992)" d="M 400.169407 451.659892 
L 400.169407 533.632719 
" style="fill:none;stroke:#000000;"/>
    <path clip-path="url(#p3bb1b4c992)" d="M 444.112938 451.659892 
L 444.112938 533.632719 
" style="fill:none;stroke:#000000;"/>
    <path clip-path="url(#p3bb1b4c992)" d="M 488.056469 451.659892 
L 488.056469 533.632719 
" style="fill:none;stroke:#000000;"/>
    <path clip-path="url(#p3bb1b4c992)" d="M 575.943531 369.687065 
L 532 451.659892 
" style="fill:none;stroke:#000000;"/>
    <path clip-path="url(#p3bb1b4c992)" d="M 575.943531 369.687065 
L 575.943531 451.659892 
" style="fill:none;stroke:#000000;"/>
    <path clip-path="url(#p3bb1b4c992)" d="M 575.943531 369.687065 
L 619.887062 451.659892 
" style="fill:none;stroke:#000000;"/>
    <path clip-path="url(#p3bb1b4c992)" d="M 92.564691 451.659892 
L 92.564691 533.632719 
" style="fill:none;stroke:#000000;"/>
    <path clip-path="url(#p3bb1b4c992)" d="M 532 451.659892 
L 532 533.632719 
" style="fill:none;stroke:#000000;"/>
    <path clip-path="url(#p3bb1b4c992)" d="M 575.943531 451.659892 
L 575.943531 533.632719 
" style="fill:none;stroke:#000000;"/>
    <path clip-path="url(#p3bb1b4c992)" d="M 619.887062 451.659892 
L 619.887062 533.632719 
" style="fill:none;stroke:#000000;"/>
    <path clip-path="url(#p3bb1b4c992)" d="M 268.338814 451.659892 
L 268.338814 533.632719 
" style="fill:none;stroke:#000000;"/>
    <path clip-path="url(#p3bb1b4c992)" d="M 663.830593 451.659892 
L 663.830593 533.632719 
" style="fill:none;stroke:#000000;"/>
    <path clip-path="url(#p3bb1b4c992)" d="M 927.491778 451.659892 
L 927.491778 533.632719 
" style="fill:none;stroke:#000000;"/>
   </g>
   <g id="text_1">
    <g id="patch_2">
     <path clip-path="url(#p3bb1b4c992)" d="M 857.746539 67.783794 
L 857.746539 73.800044 
Q 857.746539 76.200044 860.146539 76.200044 
L 867.889039 76.200044 
Q 870.289039 76.200044 870.289039 73.800044 
L 870.289039 67.783794 
Q 870.289039 65.383794 867.889039 65.383794 
L 860.146539 65.383794 
Q 857.746539 65.383794 857.746539 67.783794 
z
" style="fill:#ffffff;stroke:#ffffff;stroke-linejoin:miter;"/>
    </g>
    <g clip-path="url(#p3bb1b4c992)">
     <!-- H -->
     <defs>
      <path d="M 9.8125 72.90625 
L 19.671875 72.90625 
L 19.671875 43.015625 
L 55.515625 43.015625 
L 55.515625 72.90625 
L 65.375 72.90625 
L 65.375 0 
L 55.515625 0 
L 55.515625 34.71875 
L 19.671875 34.71875 
L 19.671875 0 
L 9.8125 0 
z
" id="DejaVuSans-72"/>
     </defs>
     <g transform="translate(861.810289 67.783794)rotate(-270)scale(0.08 -0.08)">
      <use xlink:href="#DejaVuSans-72"/>
     </g>
    </g>
   </g>
   <g id="text_2">
    <g id="patch_3">
     <path clip-path="url(#p3bb1b4c992)" d="M 932.980609 324.289916 
L 934.621523 328.82599 
Q 935.437941 331.08286 937.694811 330.266443 
L 944.975568 327.632646 
Q 947.232438 326.816229 946.41602 324.559359 
L 944.775107 320.023285 
Q 943.958689 317.766415 941.701819 318.582832 
L 934.421062 321.216629 
Q 932.164192 322.033046 932.980609 324.289916 
z
" style="fill:#ffffff;stroke:#ffffff;stroke-linejoin:miter;"/>
    </g>
    <g clip-path="url(#p3bb1b4c992)">
     <!-- P -->
     <defs>
      <path d="M 19.671875 64.796875 
L 19.671875 37.40625 
L 32.078125 37.40625 
Q 38.96875 37.40625 42.71875 40.96875 
Q 46.484375 44.53125 46.484375 51.125 
Q 46.484375 57.671875 42.71875 61.234375 
Q 38.96875 64.796875 32.078125 64.796875 
z
M 9.8125 72.90625 
L 32.078125 72.90625 
Q 44.34375 72.90625 50.609375 67.359375 
Q 56.890625 61.8125 56.890625 51.125 
Q 56.890625 40.328125 50.609375 34.8125 
Q 44.34375 29.296875 32.078125 29.296875 
L 19.671875 29.296875 
L 19.671875 0 
L 9.8125 0 
z
" id="DejaVuSans-80"/>
     </defs>
     <g transform="translate(936.802008 322.907535)rotate(-289.88747)scale(0.08 -0.08)">
      <use xlink:href="#DejaVuSans-80"/>
     </g>
    </g>
   </g>
   <g id="text_3">
    <g id="patch_4">
     <path clip-path="url(#p3bb1b4c992)" d="M 910.971878 323.333744 
L 912.332673 328.634357 
Q 912.929458 330.958974 915.254076 330.362189 
L 922.753389 328.436934 
Q 925.078007 327.840149 924.481221 325.515531 
L 923.120426 320.214919 
Q 922.523641 317.890301 920.199023 318.487087 
L 912.69971 320.412341 
Q 910.375092 321.009127 910.971878 323.333744 
z
" style="fill:#ffffff;stroke:#ffffff;stroke-linejoin:miter;"/>
    </g>
    <g clip-path="url(#p3bb1b4c992)">
     <!-- A -->
     <defs>
      <path d="M 34.1875 63.1875 
L 20.796875 26.90625 
L 47.609375 26.90625 
z
M 28.609375 72.90625 
L 39.796875 72.90625 
L 67.578125 0 
L 57.328125 0 
L 50.6875 18.703125 
L 17.828125 18.703125 
L 11.1875 0 
L 0.78125 0 
z
" id="DejaVuSans-65"/>
     </defs>
     <g transform="translate(914.907988 322.32325)rotate(-284.398267)scale(0.08 -0.08)">
      <use xlink:href="#DejaVuSans-65"/>
     </g>
    </g>
   </g>
   <g id="text_4">
    <g id="patch_5">
     <path clip-path="url(#p3bb1b4c992)" d="M 734.024916 165.353969 
L 739.214269 163.616479 
Q 741.490093 162.854492 740.728106 160.578668 
L 738.269903 153.236764 
Q 737.507915 150.96094 735.232091 151.722928 
L 730.042738 153.460418 
Q 727.766914 154.222405 728.528902 156.498229 
L 730.987105 163.840132 
Q 731.749092 166.115956 734.024916 165.353969 
z
" style="fill:#ffffff;stroke:#ffffff;stroke-linejoin:miter;"/>
    </g>
    <g clip-path="url(#p3bb1b4c992)">
     <!-- A -->
     <g transform="translate(732.734697 161.500477)rotate(-18.511485)scale(0.08 -0.08)">
      <use xlink:href="#DejaVuSans-65"/>
     </g>
    </g>
   </g>
   <g id="text_5">
    <g id="patch_6">
     <path clip-path="url(#p3bb1b4c992)" d="M 459.838148 251.081773 
L 465.610784 249.387095 
Q 467.913602 248.711054 467.237561 246.408237 
L 465.056627 238.979251 
Q 464.380587 236.676433 462.077769 237.352473 
L 456.305133 239.047151 
Q 454.002315 239.723192 454.678355 242.026009 
L 456.85929 249.454995 
Q 457.53533 251.757813 459.838148 251.081773 
z
" style="fill:#ffffff;stroke:#ffffff;stroke-linejoin:miter;"/>
    </g>
    <g clip-path="url(#p3bb1b4c992)">
     <!-- H -->
     <g transform="translate(458.693456 247.182575)rotate(-16.360705)scale(0.08 -0.08)">
      <use xlink:href="#DejaVuSans-72"/>
     </g>
    </g>
   </g>
   <g id="text_6">
    <g id="patch_7">
     <path clip-path="url(#p3bb1b4c992)" d="M 715.234367 249.062024 
L 720.879775 251.141601 
Q 723.131838 251.971184 723.961422 249.719121 
L 726.637694 242.45387 
Q 727.467278 240.201806 725.215214 239.372222 
L 719.569807 237.292646 
Q 717.317743 236.463062 716.488159 238.715125 
L 713.811888 245.980377 
Q 712.982304 248.23244 715.234367 249.062024 
z
" style="fill:#ffffff;stroke:#ffffff;stroke-linejoin:miter;"/>
    </g>
    <g clip-path="url(#p3bb1b4c992)">
     <!-- H -->
     <g transform="translate(716.639043 245.248764)rotate(-339.777915)scale(0.08 -0.08)">
      <use xlink:href="#DejaVuSans-72"/>
     </g>
    </g>
   </g>
   <g id="text_7">
    <g id="patch_8">
     <path clip-path="url(#p3bb1b4c992)" d="M 627.760844 325.342046 
L 629.097869 331.042343 
Q 629.645924 333.378929 631.98251 332.830875 
L 639.520435 331.062828 
Q 641.857022 330.514773 641.308967 328.178186 
L 639.971942 322.477889 
Q 639.423887 320.141303 637.087301 320.689357 
L 629.549376 322.457405 
Q 627.212789 323.005459 627.760844 325.342046 
z
" style="fill:#ffffff;stroke:#ffffff;stroke-linejoin:miter;"/>
    </g>
    <g clip-path="url(#p3bb1b4c992)">
     <!-- U -->
     <defs>
      <path d="M 8.6875 72.90625 
L 18.609375 72.90625 
L 18.609375 28.609375 
Q 18.609375 16.890625 22.84375 11.734375 
Q 27.09375 6.59375 36.625 6.59375 
Q 46.09375 6.59375 50.34375 11.734375 
Q 54.59375 16.890625 54.59375 28.609375 
L 54.59375 72.90625 
L 64.5 72.90625 
L 64.5 27.390625 
Q 64.5 13.140625 57.4375 5.859375 
Q 50.390625 -1.421875 36.625 -1.421875 
Q 22.796875 -1.421875 15.734375 5.859375 
Q 8.6875 13.140625 8.6875 27.390625 
z
" id="DejaVuSans-85"/>
     </defs>
     <g transform="translate(631.71722 324.414064)rotate(-283.200308)scale(0.08 -0.08)">
      <use xlink:href="#DejaVuSans-85"/>
     </g>
    </g>
   </g>
   <g id="text_8">
    <g id="patch_9">
     <path clip-path="url(#p3bb1b4c992)" d="M 183.978608 375.66315 
L 187.896461 373.250282 
Q 189.940003 371.991737 188.681457 369.948195 
L 184.621337 363.355644 
Q 183.362791 361.312102 181.31925 362.570648 
L 177.401397 364.983516 
Q 175.357855 366.242061 176.616401 368.285603 
L 180.676521 374.878154 
Q 181.935067 376.921696 183.978608 375.66315 
z
" style="fill:#ffffff;stroke:#ffffff;stroke-linejoin:miter;"/>
    </g>
    <g clip-path="url(#p3bb1b4c992)">
     <!-- F -->
     <defs>
      <path d="M 9.8125 72.90625 
L 51.703125 72.90625 
L 51.703125 64.59375 
L 19.671875 64.59375 
L 19.671875 43.109375 
L 48.578125 43.109375 
L 48.578125 34.8125 
L 19.671875 34.8125 
L 19.671875 0 
L 9.8125 0 
z
" id="DejaVuSans-70"/>
     </defs>
     <g transform="translate(181.847602 372.202966)rotate(-31.627456)scale(0.08 -0.08)">
      <use xlink:href="#DejaVuSans-70"/>
     </g>
    </g>
   </g>
   <g id="text_9">
    <g id="patch_10">
     <path clip-path="url(#p3bb1b4c992)" d="M 251.428643 375.49889 
L 255.373922 370.717752 
Q 256.901435 368.866616 255.050299 367.339104 
L 249.078456 362.411284 
Q 247.22732 360.883772 245.699807 362.734908 
L 241.754529 367.516045 
Q 240.227016 369.367182 242.078152 370.894694 
L 248.049995 375.822514 
Q 249.901131 377.350026 251.428643 375.49889 
z
" style="fill:#ffffff;stroke:#ffffff;stroke-linejoin:miter;"/>
    </g>
    <g clip-path="url(#p3bb1b4c992)">
     <!-- G -->
     <defs>
      <path d="M 59.515625 10.40625 
L 59.515625 29.984375 
L 43.40625 29.984375 
L 43.40625 38.09375 
L 69.28125 38.09375 
L 69.28125 6.78125 
Q 63.578125 2.734375 56.6875 0.65625 
Q 49.8125 -1.421875 42 -1.421875 
Q 24.90625 -1.421875 15.25 8.5625 
Q 5.609375 18.5625 5.609375 36.375 
Q 5.609375 54.25 15.25 64.234375 
Q 24.90625 74.21875 42 74.21875 
Q 49.125 74.21875 55.546875 72.453125 
Q 61.96875 70.703125 67.390625 67.28125 
L 67.390625 56.78125 
Q 61.921875 61.421875 55.765625 63.765625 
Q 49.609375 66.109375 42.828125 66.109375 
Q 29.4375 66.109375 22.71875 58.640625 
Q 16.015625 51.171875 16.015625 36.375 
Q 16.015625 21.625 22.71875 14.15625 
Q 29.4375 6.6875 42.828125 6.6875 
Q 48.046875 6.6875 52.140625 7.59375 
Q 56.25 8.5 59.515625 10.40625 
z
" id="DejaVuSans-71"/>
     </defs>
     <g transform="translate(248.294246 372.912461)rotate(-50.471379)scale(0.08 -0.08)">
      <use xlink:href="#DejaVuSans-71"/>
     </g>
    </g>
   </g>
   <g id="text_10">
    <g id="patch_11">
     <path clip-path="url(#p3bb1b4c992)" d="M 320.675742 372.019053 
L 320.821361 366.54849 
Q 320.885222 364.14934 318.486072 364.085478 
L 310.746314 363.879457 
Q 308.347164 363.815595 308.283302 366.214745 
L 308.137683 371.685307 
Q 308.073821 374.084458 310.472971 374.14832 
L 318.21273 374.354341 
Q 320.61188 374.418203 320.675742 372.019053 
z
" style="fill:#ffffff;stroke:#ffffff;stroke-linejoin:miter;"/>
    </g>
    <g clip-path="url(#p3bb1b4c992)">
     <!-- A -->
     <g transform="translate(316.613431 371.91092)rotate(-88.475228)scale(0.08 -0.08)">
      <use xlink:href="#DejaVuSans-65"/>
     </g>
    </g>
   </g>
   <g id="text_11">
    <g id="patch_12">
     <path clip-path="url(#p3bb1b4c992)" d="M 329.635042 367.582696 
L 331.070168 373.57319 
Q 331.629307 375.907148 333.963266 375.348009 
L 341.492714 373.5442 
Q 343.826672 372.98506 343.267532 370.651102 
L 341.832407 364.660608 
Q 341.273267 362.32665 338.939309 362.885789 
L 331.409861 364.689598 
Q 329.075902 365.248737 329.635042 367.582696 
z
" style="fill:#ffffff;stroke:#ffffff;stroke-linejoin:miter;"/>
    </g>
    <g clip-path="url(#p3bb1b4c992)">
     <!-- D -->
     <defs>
      <path d="M 19.671875 64.796875 
L 19.671875 8.109375 
L 31.59375 8.109375 
Q 46.6875 8.109375 53.6875 14.9375 
Q 60.6875 21.78125 60.6875 36.53125 
Q 60.6875 51.171875 53.6875 57.984375 
Q 46.6875 64.796875 31.59375 64.796875 
z
M 9.8125 72.90625 
L 30.078125 72.90625 
Q 51.265625 72.90625 61.171875 64.09375 
Q 71.09375 55.28125 71.09375 36.53125 
Q 71.09375 17.671875 61.125 8.828125 
Q 51.171875 0 30.078125 0 
L 9.8125 0 
z
" id="DejaVuSans-68"/>
     </defs>
     <g transform="translate(333.586969 366.635944)rotate(-283.472281)scale(0.08 -0.08)">
      <use xlink:href="#DejaVuSans-68"/>
     </g>
    </g>
   </g>
   <g id="text_12">
    <g id="patch_13">
     <path clip-path="url(#p3bb1b4c992)" d="M 351.43676 369.198731 
L 354.216866 374.695695 
Q 355.300024 376.83737 357.441698 375.754212 
L 364.350829 372.259899 
Q 366.492503 371.176741 365.409345 369.035067 
L 362.62924 363.538103 
Q 361.546082 361.396428 359.404408 362.479586 
L 352.495277 365.973899 
Q 350.353603 367.057057 351.43676 369.198731 
z
" style="fill:#ffffff;stroke:#ffffff;stroke-linejoin:miter;"/>
    </g>
    <g clip-path="url(#p3bb1b4c992)">
     <!-- D -->
     <g transform="translate(355.063106 367.364696)rotate(-296.828135)scale(0.08 -0.08)">
      <use xlink:href="#DejaVuSans-68"/>
     </g>
    </g>
   </g>
   <g id="text_13">
    <g id="patch_14">
     <path clip-path="url(#p3bb1b4c992)" d="M 374.024767 371.127842 
L 376.83639 374.770132 
Q 378.302926 376.669941 380.202735 375.203405 
L 386.331597 370.4723 
Q 388.231406 369.005764 386.76487 367.105956 
L 383.953246 363.463666 
Q 382.486711 361.563857 380.586902 363.030393 
L 374.45804 367.761498 
Q 372.558231 369.228034 374.024767 371.127842 
z
" style="fill:#ffffff;stroke:#ffffff;stroke-linejoin:miter;"/>
    </g>
    <g clip-path="url(#p3bb1b4c992)">
     <!-- F -->
     <g transform="translate(377.241578 368.644661)rotate(-307.665935)scale(0.08 -0.08)">
      <use xlink:href="#DejaVuSans-70"/>
     </g>
    </g>
   </g>
   <g id="text_14">
    <g id="patch_15">
     <path clip-path="url(#p3bb1b4c992)" d="M 396.278799 371.960242 
L 399.752901 375.30676 
Q 401.481399 376.971781 403.14642 375.243282 
L 408.517846 369.667075 
Q 410.182866 367.938576 408.454368 366.273556 
L 404.980266 362.927038 
Q 403.251768 361.262017 401.586748 362.990516 
L 396.215322 368.566723 
Q 394.550301 370.295221 396.278799 371.960242 
z
" style="fill:#ffffff;stroke:#ffffff;stroke-linejoin:miter;"/>
    </g>
    <g clip-path="url(#p3bb1b4c992)">
     <!-- P -->
     <g transform="translate(399.098061 369.033498)rotate(-316.071625)scale(0.08 -0.08)">
      <use xlink:href="#DejaVuSans-80"/>
     </g>
    </g>
   </g>
   <g id="text_15">
    <g id="patch_16">
     <path clip-path="url(#p3bb1b4c992)" d="M 442.069197 333.356579 
L 446.722209 334.848195 
Q 449.007648 335.580838 449.740291 333.295398 
L 452.103829 325.922475 
Q 452.836472 323.637036 450.551033 322.904392 
L 445.898021 321.412776 
Q 443.612581 320.680133 442.879938 322.965573 
L 440.5164 330.338496 
Q 439.783757 332.623935 442.069197 333.356579 
z
" style="fill:#ffffff;stroke:#ffffff;stroke-linejoin:miter;"/>
    </g>
    <g clip-path="url(#p3bb1b4c992)">
     <!-- T -->
     <defs>
      <path d="M -0.296875 72.90625 
L 61.375 72.90625 
L 61.375 64.59375 
L 35.5 64.59375 
L 35.5 0 
L 25.59375 0 
L 25.59375 64.59375 
L -0.296875 64.59375 
z
" id="DejaVuSans-84"/>
     </defs>
     <g transform="translate(443.309729 329.486806)rotate(-342.22571)scale(0.08 -0.08)">
      <use xlink:href="#DejaVuSans-84"/>
     </g>
    </g>
   </g>
   <g id="text_16">
    <g id="patch_17">
     <path clip-path="url(#p3bb1b4c992)" d="M 205.983028 375.902389 
L 210.697124 372.429879 
Q 212.62946 371.006477 211.206057 369.07414 
L 206.6141 362.840342 
Q 205.190698 360.908006 203.258361 362.331408 
L 198.544265 365.803918 
Q 196.611929 367.227321 198.035332 369.159658 
L 202.627289 375.393456 
Q 204.050691 377.325792 205.983028 375.902389 
z
" style="fill:#ffffff;stroke:#ffffff;stroke-linejoin:miter;"/>
    </g>
    <g clip-path="url(#p3bb1b4c992)">
     <!-- U -->
     <g transform="translate(203.572881 372.630501)rotate(-36.376202)scale(0.08 -0.08)">
      <use xlink:href="#DejaVuSans-85"/>
     </g>
    </g>
   </g>
   <g id="text_17">
    <g id="patch_18">
     <path clip-path="url(#p3bb1b4c992)" d="M 297.703667 373.688697 
L 299.348958 368.069619 
Q 300.023372 365.766324 297.720078 365.09191 
L 290.289554 362.916221 
Q 287.98626 362.241806 287.311845 364.545101 
L 285.666555 370.164179 
Q 284.99214 372.467474 287.295435 373.141888 
L 294.725959 375.317577 
Q 297.029253 375.991992 297.703667 373.688697 
z
" style="fill:#ffffff;stroke:#ffffff;stroke-linejoin:miter;"/>
    </g>
    <g clip-path="url(#p3bb1b4c992)">
     <!-- U -->
     <g transform="translate(293.803662 372.546759)rotate(-73.679743)scale(0.08 -0.08)">
      <use xlink:href="#DejaVuSans-85"/>
     </g>
    </g>
   </g>
   <g id="text_18">
    <g id="patch_19">
     <path clip-path="url(#p3bb1b4c992)" d="M 783.940711 334.962456 
L 788.778895 331.149639 
Q 790.663902 329.664126 789.178389 327.779119 
L 784.386061 321.698008 
Q 782.900548 319.813002 781.015541 321.298515 
L 776.177357 325.111332 
Q 774.292351 326.596845 775.777864 328.481852 
L 780.570191 334.562962 
Q 782.055705 336.447969 783.940711 334.962456 
z
" style="fill:#ffffff;stroke:#ffffff;stroke-linejoin:miter;"/>
    </g>
    <g clip-path="url(#p3bb1b4c992)">
     <!-- D -->
     <g transform="translate(781.425397 331.770708)rotate(-38.240507)scale(0.08 -0.08)">
      <use xlink:href="#DejaVuSans-68"/>
     </g>
    </g>
   </g>
   <g id="text_19">
    <g id="patch_20">
     <path clip-path="url(#p3bb1b4c992)" d="M 820.998469 372.815261 
L 822.070445 368.340625 
Q 822.629585 366.006666 820.295626 365.447526 
L 812.766178 363.643718 
Q 810.43222 363.084578 809.87308 365.418537 
L 808.801104 369.893173 
Q 808.241964 372.227132 810.575923 372.786272 
L 818.105371 374.59008 
Q 820.439329 375.14922 820.998469 372.815261 
z
" style="fill:#ffffff;stroke:#ffffff;stroke-linejoin:miter;"/>
    </g>
    <g clip-path="url(#p3bb1b4c992)">
     <!-- F -->
     <g transform="translate(817.046542 371.868509)rotate(-76.527719)scale(0.08 -0.08)">
      <use xlink:href="#DejaVuSans-70"/>
     </g>
    </g>
   </g>
   <g id="text_20">
    <g id="patch_21">
     <path clip-path="url(#p3bb1b4c992)" d="M 831.074333 366.872751 
L 831.202689 371.694793 
Q 831.266551 374.093943 833.665701 374.030081 
L 841.405459 373.824059 
Q 843.804609 373.760198 843.740747 371.361047 
L 843.612392 366.539005 
Q 843.54853 364.139855 841.149379 364.203717 
L 833.409621 364.409738 
Q 831.010471 364.4736 831.074333 366.872751 
z
" style="fill:#ffffff;stroke:#ffffff;stroke-linejoin:miter;"/>
    </g>
    <g clip-path="url(#p3bb1b4c992)">
     <!-- P -->
     <g transform="translate(835.136644 366.764618)rotate(-271.524772)scale(0.08 -0.08)">
      <use xlink:href="#DejaVuSans-80"/>
     </g>
    </g>
   </g>
   <g id="text_21">
    <g id="patch_22">
     <path clip-path="url(#p3bb1b4c992)" d="M 852.591847 368.253162 
L 854.129652 373.505154 
Q 854.804066 375.808448 857.107361 375.134033 
L 864.537885 372.958344 
Q 866.841179 372.28393 866.166765 369.980635 
L 864.628959 364.728644 
Q 863.954545 362.42535 861.65125 363.099764 
L 854.220726 365.275454 
Q 851.917432 365.949868 852.591847 368.253162 
z
" style="fill:#ffffff;stroke:#ffffff;stroke-linejoin:miter;"/>
    </g>
    <g clip-path="url(#p3bb1b4c992)">
     <!-- A -->
     <g transform="translate(856.491852 367.111224)rotate(-286.320257)scale(0.08 -0.08)">
      <use xlink:href="#DejaVuSans-65"/>
     </g>
    </g>
   </g>
   <g id="text_22">
    <g id="patch_23">
     <path clip-path="url(#p3bb1b4c992)" d="M 874.448591 369.621482 
L 877.305433 374.732204 
Q 878.47647 376.82712 880.571386 375.656083 
L 887.329672 371.878269 
Q 889.424588 370.707232 888.253551 368.612316 
L 885.396709 363.501594 
Q 884.225672 361.406678 882.130756 362.577715 
L 875.37247 366.355529 
Q 873.277554 367.526566 874.448591 369.621482 
z
" style="fill:#ffffff;stroke:#ffffff;stroke-linejoin:miter;"/>
    </g>
    <g clip-path="url(#p3bb1b4c992)">
     <!-- U -->
     <g transform="translate(877.995764 367.638648)rotate(-299.204754)scale(0.08 -0.08)">
      <use xlink:href="#DejaVuSans-85"/>
     </g>
    </g>
   </g>
   <g id="text_23">
    <g id="patch_24">
     <path clip-path="url(#p3bb1b4c992)" d="M 724.16307 414.738419 
L 725.471801 409.855771 
Q 726.093157 407.5376 723.774986 406.916244 
L 716.29647 404.911724 
Q 713.978299 404.290367 713.356943 406.608538 
L 712.048212 411.491186 
Q 711.426856 413.809357 713.745027 414.430713 
L 721.223543 416.435233 
Q 723.541714 417.05659 724.16307 414.738419 
z
" style="fill:#ffffff;stroke:#ffffff;stroke-linejoin:miter;"/>
    </g>
    <g clip-path="url(#p3bb1b4c992)">
     <!-- E -->
     <defs>
      <path d="M 9.8125 72.90625 
L 55.90625 72.90625 
L 55.90625 64.59375 
L 19.671875 64.59375 
L 19.671875 43.015625 
L 54.390625 43.015625 
L 54.390625 34.71875 
L 19.671875 34.71875 
L 19.671875 8.296875 
L 56.78125 8.296875 
L 56.78125 0 
L 9.8125 0 
z
" id="DejaVuSans-69"/>
     </defs>
     <g transform="translate(720.237875 413.68632)rotate(-74.995296)scale(0.08 -0.08)">
      <use xlink:href="#DejaVuSans-69"/>
     </g>
    </g>
   </g>
   <g id="text_24">
    <g id="patch_25">
     <path clip-path="url(#p3bb1b4c992)" d="M 733.951207 409.599202 
L 735.397478 414.994987 
Q 736.018834 417.313158 738.337005 416.691802 
L 745.815522 414.687281 
Q 748.133692 414.065925 747.512336 411.747755 
L 746.066066 406.35197 
Q 745.44471 404.033799 743.126539 404.655155 
L 735.648022 406.659675 
Q 733.329851 407.281032 733.951207 409.599202 
z
" style="fill:#ffffff;stroke:#ffffff;stroke-linejoin:miter;"/>
    </g>
    <g clip-path="url(#p3bb1b4c992)">
     <!-- C -->
     <defs>
      <path d="M 64.40625 67.28125 
L 64.40625 56.890625 
Q 59.421875 61.53125 53.78125 63.8125 
Q 48.140625 66.109375 41.796875 66.109375 
Q 29.296875 66.109375 22.65625 58.46875 
Q 16.015625 50.828125 16.015625 36.375 
Q 16.015625 21.96875 22.65625 14.328125 
Q 29.296875 6.6875 41.796875 6.6875 
Q 48.140625 6.6875 53.78125 8.984375 
Q 59.421875 11.28125 64.40625 15.921875 
L 64.40625 5.609375 
Q 59.234375 2.09375 53.4375 0.328125 
Q 47.65625 -1.421875 41.21875 -1.421875 
Q 24.65625 -1.421875 15.125 8.703125 
Q 5.609375 18.84375 5.609375 36.375 
Q 5.609375 53.953125 15.125 64.078125 
Q 24.65625 74.21875 41.21875 74.21875 
Q 47.75 74.21875 53.53125 72.484375 
Q 59.328125 70.75 64.40625 67.28125 
z
" id="DejaVuSans-67"/>
     </defs>
     <g transform="translate(737.876402 408.547104)rotate(-285.004704)scale(0.08 -0.08)">
      <use xlink:href="#DejaVuSans-67"/>
     </g>
    </g>
   </g>
   <g id="text_25">
    <g id="patch_26">
     <path clip-path="url(#p3bb1b4c992)" d="M 789.389936 475.003805 
L 789.389936 510.288805 
Q 789.389936 512.688805 791.789936 512.688805 
L 799.532436 512.688805 
Q 801.932436 512.688805 801.932436 510.288805 
L 801.932436 475.003805 
Q 801.932436 472.603805 799.532436 472.603805 
L 791.789936 472.603805 
Q 789.389936 472.603805 789.389936 475.003805 
z
" style="fill:#ffffff;stroke:#ffffff;stroke-linejoin:miter;"/>
    </g>
    <g clip-path="url(#p3bb1b4c992)">
     <!-- Terminal -->
     <defs>
      <path d="M 56.203125 29.59375 
L 56.203125 25.203125 
L 14.890625 25.203125 
Q 15.484375 15.921875 20.484375 11.0625 
Q 25.484375 6.203125 34.421875 6.203125 
Q 39.59375 6.203125 44.453125 7.46875 
Q 49.3125 8.734375 54.109375 11.28125 
L 54.109375 2.78125 
Q 49.265625 0.734375 44.1875 -0.34375 
Q 39.109375 -1.421875 33.890625 -1.421875 
Q 20.796875 -1.421875 13.15625 6.1875 
Q 5.515625 13.8125 5.515625 26.8125 
Q 5.515625 40.234375 12.765625 48.109375 
Q 20.015625 56 32.328125 56 
Q 43.359375 56 49.78125 48.890625 
Q 56.203125 41.796875 56.203125 29.59375 
z
M 47.21875 32.234375 
Q 47.125 39.59375 43.09375 43.984375 
Q 39.0625 48.390625 32.421875 48.390625 
Q 24.90625 48.390625 20.390625 44.140625 
Q 15.875 39.890625 15.1875 32.171875 
z
" id="DejaVuSans-101"/>
      <path d="M 41.109375 46.296875 
Q 39.59375 47.171875 37.8125 47.578125 
Q 36.03125 48 33.890625 48 
Q 26.265625 48 22.1875 43.046875 
Q 18.109375 38.09375 18.109375 28.8125 
L 18.109375 0 
L 9.078125 0 
L 9.078125 54.6875 
L 18.109375 54.6875 
L 18.109375 46.1875 
Q 20.953125 51.171875 25.484375 53.578125 
Q 30.03125 56 36.53125 56 
Q 37.453125 56 38.578125 55.875 
Q 39.703125 55.765625 41.0625 55.515625 
z
" id="DejaVuSans-114"/>
      <path d="M 52 44.1875 
Q 55.375 50.25 60.0625 53.125 
Q 64.75 56 71.09375 56 
Q 79.640625 56 84.28125 50.015625 
Q 88.921875 44.046875 88.921875 33.015625 
L 88.921875 0 
L 79.890625 0 
L 79.890625 32.71875 
Q 79.890625 40.578125 77.09375 44.375 
Q 74.3125 48.1875 68.609375 48.1875 
Q 61.625 48.1875 57.5625 43.546875 
Q 53.515625 38.921875 53.515625 30.90625 
L 53.515625 0 
L 44.484375 0 
L 44.484375 32.71875 
Q 44.484375 40.625 41.703125 44.40625 
Q 38.921875 48.1875 33.109375 48.1875 
Q 26.21875 48.1875 22.15625 43.53125 
Q 18.109375 38.875 18.109375 30.90625 
L 18.109375 0 
L 9.078125 0 
L 9.078125 54.6875 
L 18.109375 54.6875 
L 18.109375 46.1875 
Q 21.1875 51.21875 25.484375 53.609375 
Q 29.78125 56 35.6875 56 
Q 41.65625 56 45.828125 52.96875 
Q 50 49.953125 52 44.1875 
z
" id="DejaVuSans-109"/>
      <path d="M 9.421875 54.6875 
L 18.40625 54.6875 
L 18.40625 0 
L 9.421875 0 
z
M 9.421875 75.984375 
L 18.40625 75.984375 
L 18.40625 64.59375 
L 9.421875 64.59375 
z
" id="DejaVuSans-105"/>
      <path d="M 54.890625 33.015625 
L 54.890625 0 
L 45.90625 0 
L 45.90625 32.71875 
Q 45.90625 40.484375 42.875 44.328125 
Q 39.84375 48.1875 33.796875 48.1875 
Q 26.515625 48.1875 22.3125 43.546875 
Q 18.109375 38.921875 18.109375 30.90625 
L 18.109375 0 
L 9.078125 0 
L 9.078125 54.6875 
L 18.109375 54.6875 
L 18.109375 46.1875 
Q 21.34375 51.125 25.703125 53.5625 
Q 30.078125 56 35.796875 56 
Q 45.21875 56 50.046875 50.171875 
Q 54.890625 44.34375 54.890625 33.015625 
z
" id="DejaVuSans-110"/>
      <path d="M 34.28125 27.484375 
Q 23.390625 27.484375 19.1875 25 
Q 14.984375 22.515625 14.984375 16.5 
Q 14.984375 11.71875 18.140625 8.90625 
Q 21.296875 6.109375 26.703125 6.109375 
Q 34.1875 6.109375 38.703125 11.40625 
Q 43.21875 16.703125 43.21875 25.484375 
L 43.21875 27.484375 
z
M 52.203125 31.203125 
L 52.203125 0 
L 43.21875 0 
L 43.21875 8.296875 
Q 40.140625 3.328125 35.546875 0.953125 
Q 30.953125 -1.421875 24.3125 -1.421875 
Q 15.921875 -1.421875 10.953125 3.296875 
Q 6 8.015625 6 15.921875 
Q 6 25.140625 12.171875 29.828125 
Q 18.359375 34.515625 30.609375 34.515625 
L 43.21875 34.515625 
L 43.21875 35.40625 
Q 43.21875 41.609375 39.140625 45 
Q 35.0625 48.390625 27.6875 48.390625 
Q 23 48.390625 18.546875 47.265625 
Q 14.109375 46.140625 10.015625 43.890625 
L 10.015625 52.203125 
Q 14.9375 54.109375 19.578125 55.046875 
Q 24.21875 56 28.609375 56 
Q 40.484375 56 46.34375 49.84375 
Q 52.203125 43.703125 52.203125 31.203125 
z
" id="DejaVuSans-97"/>
      <path d="M 9.421875 75.984375 
L 18.40625 75.984375 
L 18.40625 0 
L 9.421875 0 
z
" id="DejaVuSans-108"/>
     </defs>
     <g transform="translate(793.453686 475.003805)rotate(-270)scale(0.08 -0.08)">
      <use xlink:href="#DejaVuSans-84"/>
      <use x="60.818359" xlink:href="#DejaVuSans-101"/>
      <use x="122.341797" xlink:href="#DejaVuSans-114"/>
      <use x="163.439453" xlink:href="#DejaVuSans-109"/>
      <use x="260.851562" xlink:href="#DejaVuSans-105"/>
      <use x="288.634766" xlink:href="#DejaVuSans-110"/>
      <use x="352.013672" xlink:href="#DejaVuSans-97"/>
      <use x="413.292969" xlink:href="#DejaVuSans-108"/>
     </g>
    </g>
   </g>
   <g id="text_26">
    <g id="patch_27">
     <path clip-path="url(#p3bb1b4c992)" d="M 833.333467 475.003805 
L 833.333467 510.288805 
Q 833.333467 512.688805 835.733467 512.688805 
L 843.475967 512.688805 
Q 845.875967 512.688805 845.875967 510.288805 
L 845.875967 475.003805 
Q 845.875967 472.603805 843.475967 472.603805 
L 835.733467 472.603805 
Q 833.333467 472.603805 833.333467 475.003805 
z
" style="fill:#ffffff;stroke:#ffffff;stroke-linejoin:miter;"/>
    </g>
    <g clip-path="url(#p3bb1b4c992)">
     <!-- Terminal -->
     <g transform="translate(837.397217 475.003805)rotate(-270)scale(0.08 -0.08)">
      <use xlink:href="#DejaVuSans-84"/>
      <use x="60.818359" xlink:href="#DejaVuSans-101"/>
      <use x="122.341797" xlink:href="#DejaVuSans-114"/>
      <use x="163.439453" xlink:href="#DejaVuSans-109"/>
      <use x="260.851562" xlink:href="#DejaVuSans-105"/>
      <use x="288.634766" xlink:href="#DejaVuSans-110"/>
      <use x="352.013672" xlink:href="#DejaVuSans-97"/>
      <use x="413.292969" xlink:href="#DejaVuSans-108"/>
     </g>
    </g>
   </g>
   <g id="text_27">
    <g id="patch_28">
     <path clip-path="url(#p3bb1b4c992)" d="M 877.276998 475.003805 
L 877.276998 510.288805 
Q 877.276998 512.688805 879.676998 512.688805 
L 887.419498 512.688805 
Q 889.819498 512.688805 889.819498 510.288805 
L 889.819498 475.003805 
Q 889.819498 472.603805 887.419498 472.603805 
L 879.676998 472.603805 
Q 877.276998 472.603805 877.276998 475.003805 
z
" style="fill:#ffffff;stroke:#ffffff;stroke-linejoin:miter;"/>
    </g>
    <g clip-path="url(#p3bb1b4c992)">
     <!-- Terminal -->
     <g transform="translate(881.340748 475.003805)rotate(-270)scale(0.08 -0.08)">
      <use xlink:href="#DejaVuSans-84"/>
      <use x="60.818359" xlink:href="#DejaVuSans-101"/>
      <use x="122.341797" xlink:href="#DejaVuSans-114"/>
      <use x="163.439453" xlink:href="#DejaVuSans-109"/>
      <use x="260.851562" xlink:href="#DejaVuSans-105"/>
      <use x="288.634766" xlink:href="#DejaVuSans-110"/>
      <use x="352.013672" xlink:href="#DejaVuSans-97"/>
      <use x="413.292969" xlink:href="#DejaVuSans-108"/>
     </g>
    </g>
   </g>
   <g id="text_28">
    <g id="patch_29">
     <path clip-path="url(#p3bb1b4c992)" d="M 701.502874 475.003805 
L 701.502874 510.288805 
Q 701.502874 512.688805 703.902874 512.688805 
L 711.645374 512.688805 
Q 714.045374 512.688805 714.045374 510.288805 
L 714.045374 475.003805 
Q 714.045374 472.603805 711.645374 472.603805 
L 703.902874 472.603805 
Q 701.502874 472.603805 701.502874 475.003805 
z
" style="fill:#ffffff;stroke:#ffffff;stroke-linejoin:miter;"/>
    </g>
    <g clip-path="url(#p3bb1b4c992)">
     <!-- Terminal -->
     <g transform="translate(705.566624 475.003805)rotate(-270)scale(0.08 -0.08)">
      <use xlink:href="#DejaVuSans-84"/>
      <use x="60.818359" xlink:href="#DejaVuSans-101"/>
      <use x="122.341797" xlink:href="#DejaVuSans-114"/>
      <use x="163.439453" xlink:href="#DejaVuSans-109"/>
      <use x="260.851562" xlink:href="#DejaVuSans-105"/>
      <use x="288.634766" xlink:href="#DejaVuSans-110"/>
      <use x="352.013672" xlink:href="#DejaVuSans-97"/>
      <use x="413.292969" xlink:href="#DejaVuSans-108"/>
     </g>
    </g>
   </g>
   <g id="text_29">
    <g id="patch_30">
     <path clip-path="url(#p3bb1b4c992)" d="M 745.446405 475.003805 
L 745.446405 510.288805 
Q 745.446405 512.688805 747.846405 512.688805 
L 755.588905 512.688805 
Q 757.988905 512.688805 757.988905 510.288805 
L 757.988905 475.003805 
Q 757.988905 472.603805 755.588905 472.603805 
L 747.846405 472.603805 
Q 745.446405 472.603805 745.446405 475.003805 
z
" style="fill:#ffffff;stroke:#ffffff;stroke-linejoin:miter;"/>
    </g>
    <g clip-path="url(#p3bb1b4c992)">
     <!-- Terminal -->
     <g transform="translate(749.510155 475.003805)rotate(-270)scale(0.08 -0.08)">
      <use xlink:href="#DejaVuSans-84"/>
      <use x="60.818359" xlink:href="#DejaVuSans-101"/>
      <use x="122.341797" xlink:href="#DejaVuSans-114"/>
      <use x="163.439453" xlink:href="#DejaVuSans-109"/>
      <use x="260.851562" xlink:href="#DejaVuSans-105"/>
      <use x="288.634766" xlink:href="#DejaVuSans-110"/>
      <use x="352.013672" xlink:href="#DejaVuSans-97"/>
      <use x="413.292969" xlink:href="#DejaVuSans-108"/>
     </g>
    </g>
   </g>
   <g id="text_30">
    <g id="patch_31">
     <path clip-path="url(#p3bb1b4c992)" d="M 42.34991 475.003805 
L 42.34991 510.288805 
Q 42.34991 512.688805 44.74991 512.688805 
L 52.49241 512.688805 
Q 54.89241 512.688805 54.89241 510.288805 
L 54.89241 475.003805 
Q 54.89241 472.603805 52.49241 472.603805 
L 44.74991 472.603805 
Q 42.34991 472.603805 42.34991 475.003805 
z
" style="fill:#ffffff;stroke:#ffffff;stroke-linejoin:miter;"/>
    </g>
    <g clip-path="url(#p3bb1b4c992)">
     <!-- Terminal -->
     <g transform="translate(46.41366 475.003805)rotate(-270)scale(0.08 -0.08)">
      <use xlink:href="#DejaVuSans-84"/>
      <use x="60.818359" xlink:href="#DejaVuSans-101"/>
      <use x="122.341797" xlink:href="#DejaVuSans-114"/>
      <use x="163.439453" xlink:href="#DejaVuSans-109"/>
      <use x="260.851562" xlink:href="#DejaVuSans-105"/>
      <use x="288.634766" xlink:href="#DejaVuSans-110"/>
      <use x="352.013672" xlink:href="#DejaVuSans-97"/>
      <use x="413.292969" xlink:href="#DejaVuSans-108"/>
     </g>
    </g>
   </g>
   <g id="text_31">
    <g id="patch_32">
     <path clip-path="url(#p3bb1b4c992)" d="M 155.671623 511.158449 
L 172.342656 480.060091 
Q 173.476579 477.944856 171.361344 476.810933 
L 164.537509 473.15285 
Q 162.422274 472.018927 161.288351 474.134161 
L 144.617318 505.23252 
Q 143.483395 507.347755 145.59863 508.481678 
L 152.422465 512.139761 
Q 154.5377 513.273684 155.671623 511.158449 
z
" style="fill:#ffffff;stroke:#ffffff;stroke-linejoin:miter;"/>
    </g>
    <g clip-path="url(#p3bb1b4c992)">
     <!-- Terminal -->
     <g transform="translate(152.090046 509.238458)rotate(-61.805382)scale(0.08 -0.08)">
      <use xlink:href="#DejaVuSans-84"/>
      <use x="60.818359" xlink:href="#DejaVuSans-101"/>
      <use x="122.341797" xlink:href="#DejaVuSans-114"/>
      <use x="163.439453" xlink:href="#DejaVuSans-109"/>
      <use x="260.851562" xlink:href="#DejaVuSans-105"/>
      <use x="288.634766" xlink:href="#DejaVuSans-110"/>
      <use x="352.013672" xlink:href="#DejaVuSans-97"/>
      <use x="413.292969" xlink:href="#DejaVuSans-108"/>
     </g>
    </g>
   </g>
   <g id="text_32">
    <g id="patch_33">
     <path clip-path="url(#p3bb1b4c992)" d="M 174.180502 475.003805 
L 174.180502 510.288805 
Q 174.180502 512.688805 176.580502 512.688805 
L 184.323002 512.688805 
Q 186.723002 512.688805 186.723002 510.288805 
L 186.723002 475.003805 
Q 186.723002 472.603805 184.323002 472.603805 
L 176.580502 472.603805 
Q 174.180502 472.603805 174.180502 475.003805 
z
" style="fill:#ffffff;stroke:#ffffff;stroke-linejoin:miter;"/>
    </g>
    <g clip-path="url(#p3bb1b4c992)">
     <!-- Terminal -->
     <g transform="translate(178.244252 475.003805)rotate(-270)scale(0.08 -0.08)">
      <use xlink:href="#DejaVuSans-84"/>
      <use x="60.818359" xlink:href="#DejaVuSans-101"/>
      <use x="122.341797" xlink:href="#DejaVuSans-114"/>
      <use x="163.439453" xlink:href="#DejaVuSans-109"/>
      <use x="260.851562" xlink:href="#DejaVuSans-105"/>
      <use x="288.634766" xlink:href="#DejaVuSans-110"/>
      <use x="352.013672" xlink:href="#DejaVuSans-97"/>
      <use x="413.292969" xlink:href="#DejaVuSans-108"/>
     </g>
    </g>
   </g>
   <g id="text_33">
    <g id="patch_34">
     <path clip-path="url(#p3bb1b4c992)" d="M 188.560849 480.060091 
L 205.231882 511.158449 
Q 206.365805 513.273684 208.48104 512.139761 
L 215.304875 508.481678 
Q 217.42011 507.347755 216.286187 505.23252 
L 199.615154 474.134161 
Q 198.481231 472.018927 196.365996 473.15285 
L 189.542161 476.810933 
Q 187.426926 477.944856 188.560849 480.060091 
z
" style="fill:#ffffff;stroke:#ffffff;stroke-linejoin:miter;"/>
    </g>
    <g clip-path="url(#p3bb1b4c992)">
     <!-- Terminal -->
     <g transform="translate(192.142426 478.140099)rotate(-298.194618)scale(0.08 -0.08)">
      <use xlink:href="#DejaVuSans-84"/>
      <use x="60.818359" xlink:href="#DejaVuSans-101"/>
      <use x="122.341797" xlink:href="#DejaVuSans-114"/>
      <use x="163.439453" xlink:href="#DejaVuSans-109"/>
      <use x="260.851562" xlink:href="#DejaVuSans-105"/>
      <use x="288.634766" xlink:href="#DejaVuSans-110"/>
      <use x="352.013672" xlink:href="#DejaVuSans-97"/>
      <use x="413.292969" xlink:href="#DejaVuSans-108"/>
     </g>
    </g>
   </g>
   <g id="text_34">
    <g id="patch_35">
     <path clip-path="url(#p3bb1b4c992)" d="M 306.011095 475.003805 
L 306.011095 510.288805 
Q 306.011095 512.688805 308.411095 512.688805 
L 316.153595 512.688805 
Q 318.553595 512.688805 318.553595 510.288805 
L 318.553595 475.003805 
Q 318.553595 472.603805 316.153595 472.603805 
L 308.411095 472.603805 
Q 306.011095 472.603805 306.011095 475.003805 
z
" style="fill:#ffffff;stroke:#ffffff;stroke-linejoin:miter;"/>
    </g>
    <g clip-path="url(#p3bb1b4c992)">
     <!-- Terminal -->
     <g transform="translate(310.074845 475.003805)rotate(-270)scale(0.08 -0.08)">
      <use xlink:href="#DejaVuSans-84"/>
      <use x="60.818359" xlink:href="#DejaVuSans-101"/>
      <use x="122.341797" xlink:href="#DejaVuSans-114"/>
      <use x="163.439453" xlink:href="#DejaVuSans-109"/>
      <use x="260.851562" xlink:href="#DejaVuSans-105"/>
      <use x="288.634766" xlink:href="#DejaVuSans-110"/>
      <use x="352.013672" xlink:href="#DejaVuSans-97"/>
      <use x="413.292969" xlink:href="#DejaVuSans-108"/>
     </g>
    </g>
   </g>
   <g id="text_35">
    <g id="patch_36">
     <path clip-path="url(#p3bb1b4c992)" d="M 349.954626 475.003805 
L 349.954626 510.288805 
Q 349.954626 512.688805 352.354626 512.688805 
L 360.097126 512.688805 
Q 362.497126 512.688805 362.497126 510.288805 
L 362.497126 475.003805 
Q 362.497126 472.603805 360.097126 472.603805 
L 352.354626 472.603805 
Q 349.954626 472.603805 349.954626 475.003805 
z
" style="fill:#ffffff;stroke:#ffffff;stroke-linejoin:miter;"/>
    </g>
    <g clip-path="url(#p3bb1b4c992)">
     <!-- Terminal -->
     <g transform="translate(354.018376 475.003805)rotate(-270)scale(0.08 -0.08)">
      <use xlink:href="#DejaVuSans-84"/>
      <use x="60.818359" xlink:href="#DejaVuSans-101"/>
      <use x="122.341797" xlink:href="#DejaVuSans-114"/>
      <use x="163.439453" xlink:href="#DejaVuSans-109"/>
      <use x="260.851562" xlink:href="#DejaVuSans-105"/>
      <use x="288.634766" xlink:href="#DejaVuSans-110"/>
      <use x="352.013672" xlink:href="#DejaVuSans-97"/>
      <use x="413.292969" xlink:href="#DejaVuSans-108"/>
     </g>
    </g>
   </g>
   <g id="text_36">
    <g id="patch_37">
     <path clip-path="url(#p3bb1b4c992)" d="M 393.898157 475.003805 
L 393.898157 510.288805 
Q 393.898157 512.688805 396.298157 512.688805 
L 404.040657 512.688805 
Q 406.440657 512.688805 406.440657 510.288805 
L 406.440657 475.003805 
Q 406.440657 472.603805 404.040657 472.603805 
L 396.298157 472.603805 
Q 393.898157 472.603805 393.898157 475.003805 
z
" style="fill:#ffffff;stroke:#ffffff;stroke-linejoin:miter;"/>
    </g>
    <g clip-path="url(#p3bb1b4c992)">
     <!-- Terminal -->
     <g transform="translate(397.961907 475.003805)rotate(-270)scale(0.08 -0.08)">
      <use xlink:href="#DejaVuSans-84"/>
      <use x="60.818359" xlink:href="#DejaVuSans-101"/>
      <use x="122.341797" xlink:href="#DejaVuSans-114"/>
      <use x="163.439453" xlink:href="#DejaVuSans-109"/>
      <use x="260.851562" xlink:href="#DejaVuSans-105"/>
      <use x="288.634766" xlink:href="#DejaVuSans-110"/>
      <use x="352.013672" xlink:href="#DejaVuSans-97"/>
      <use x="413.292969" xlink:href="#DejaVuSans-108"/>
     </g>
    </g>
   </g>
   <g id="text_37">
    <g id="patch_38">
     <path clip-path="url(#p3bb1b4c992)" d="M 437.841688 475.003805 
L 437.841688 510.288805 
Q 437.841688 512.688805 440.241688 512.688805 
L 447.984188 512.688805 
Q 450.384188 512.688805 450.384188 510.288805 
L 450.384188 475.003805 
Q 450.384188 472.603805 447.984188 472.603805 
L 440.241688 472.603805 
Q 437.841688 472.603805 437.841688 475.003805 
z
" style="fill:#ffffff;stroke:#ffffff;stroke-linejoin:miter;"/>
    </g>
    <g clip-path="url(#p3bb1b4c992)">
     <!-- Terminal -->
     <g transform="translate(441.905438 475.003805)rotate(-270)scale(0.08 -0.08)">
      <use xlink:href="#DejaVuSans-84"/>
      <use x="60.818359" xlink:href="#DejaVuSans-101"/>
      <use x="122.341797" xlink:href="#DejaVuSans-114"/>
      <use x="163.439453" xlink:href="#DejaVuSans-109"/>
      <use x="260.851562" xlink:href="#DejaVuSans-105"/>
      <use x="288.634766" xlink:href="#DejaVuSans-110"/>
      <use x="352.013672" xlink:href="#DejaVuSans-97"/>
      <use x="413.292969" xlink:href="#DejaVuSans-108"/>
     </g>
    </g>
   </g>
   <g id="text_38">
    <g id="patch_39">
     <path clip-path="url(#p3bb1b4c992)" d="M 481.785219 475.003805 
L 481.785219 510.288805 
Q 481.785219 512.688805 484.185219 512.688805 
L 491.927719 512.688805 
Q 494.327719 512.688805 494.327719 510.288805 
L 494.327719 475.003805 
Q 494.327719 472.603805 491.927719 472.603805 
L 484.185219 472.603805 
Q 481.785219 472.603805 481.785219 475.003805 
z
" style="fill:#ffffff;stroke:#ffffff;stroke-linejoin:miter;"/>
    </g>
    <g clip-path="url(#p3bb1b4c992)">
     <!-- Terminal -->
     <g transform="translate(485.848969 475.003805)rotate(-270)scale(0.08 -0.08)">
      <use xlink:href="#DejaVuSans-84"/>
      <use x="60.818359" xlink:href="#DejaVuSans-101"/>
      <use x="122.341797" xlink:href="#DejaVuSans-114"/>
      <use x="163.439453" xlink:href="#DejaVuSans-109"/>
      <use x="260.851562" xlink:href="#DejaVuSans-105"/>
      <use x="288.634766" xlink:href="#DejaVuSans-110"/>
      <use x="352.013672" xlink:href="#DejaVuSans-97"/>
      <use x="413.292969" xlink:href="#DejaVuSans-108"/>
     </g>
    </g>
   </g>
   <g id="text_39">
    <g id="patch_40">
     <path clip-path="url(#p3bb1b4c992)" d="M 558.304755 415.86405 
L 560.693081 411.408837 
Q 561.827004 409.293602 559.711769 408.159679 
L 552.887934 404.501595 
Q 550.772699 403.367672 549.638776 405.482907 
L 547.25045 409.93812 
Q 546.116527 412.053355 548.231762 413.187278 
L 555.055597 416.845362 
Q 557.170832 417.979285 558.304755 415.86405 
z
" style="fill:#ffffff;stroke:#ffffff;stroke-linejoin:miter;"/>
    </g>
    <g clip-path="url(#p3bb1b4c992)">
     <!-- E -->
     <g transform="translate(554.723178 413.944058)rotate(-61.805382)scale(0.08 -0.08)">
      <use xlink:href="#DejaVuSans-69"/>
     </g>
    </g>
   </g>
   <g id="text_40">
    <g id="patch_41">
     <path clip-path="url(#p3bb1b4c992)" d="M 569.672281 407.880353 
L 569.672281 413.466603 
Q 569.672281 415.866603 572.072281 415.866603 
L 579.814781 415.866603 
Q 582.214781 415.866603 582.214781 413.466603 
L 582.214781 407.880353 
Q 582.214781 405.480353 579.814781 405.480353 
L 572.072281 405.480353 
Q 569.672281 405.480353 569.672281 407.880353 
z
" style="fill:#ffffff;stroke:#ffffff;stroke-linejoin:miter;"/>
    </g>
    <g clip-path="url(#p3bb1b4c992)">
     <!-- C -->
     <g transform="translate(573.736031 407.880353)rotate(-270)scale(0.08 -0.08)">
      <use xlink:href="#DejaVuSans-67"/>
     </g>
    </g>
   </g>
   <g id="text_41">
    <g id="patch_42">
     <path clip-path="url(#p3bb1b4c992)" d="M 591.193981 411.408837 
L 593.582307 415.86405 
Q 594.71623 417.979285 596.831465 416.845362 
L 603.6553 413.187278 
Q 605.770535 412.053355 604.636612 409.93812 
L 602.248286 405.482907 
Q 601.114363 403.367672 598.999128 404.501595 
L 592.175293 408.159679 
Q 590.060058 409.293602 591.193981 411.408837 
z
" style="fill:#ffffff;stroke:#ffffff;stroke-linejoin:miter;"/>
    </g>
    <g clip-path="url(#p3bb1b4c992)">
     <!-- E -->
     <g transform="translate(594.775558 409.488845)rotate(-298.194618)scale(0.08 -0.08)">
      <use xlink:href="#DejaVuSans-69"/>
     </g>
    </g>
   </g>
   <g id="text_42">
    <g id="patch_43">
     <path clip-path="url(#p3bb1b4c992)" d="M 86.293441 475.003805 
L 86.293441 510.288805 
Q 86.293441 512.688805 88.693441 512.688805 
L 96.435941 512.688805 
Q 98.835941 512.688805 98.835941 510.288805 
L 98.835941 475.003805 
Q 98.835941 472.603805 96.435941 472.603805 
L 88.693441 472.603805 
Q 86.293441 472.603805 86.293441 475.003805 
z
" style="fill:#ffffff;stroke:#ffffff;stroke-linejoin:miter;"/>
    </g>
    <g clip-path="url(#p3bb1b4c992)">
     <!-- Terminal -->
     <g transform="translate(90.357191 475.003805)rotate(-270)scale(0.08 -0.08)">
      <use xlink:href="#DejaVuSans-84"/>
      <use x="60.818359" xlink:href="#DejaVuSans-101"/>
      <use x="122.341797" xlink:href="#DejaVuSans-114"/>
      <use x="163.439453" xlink:href="#DejaVuSans-109"/>
      <use x="260.851562" xlink:href="#DejaVuSans-105"/>
      <use x="288.634766" xlink:href="#DejaVuSans-110"/>
      <use x="352.013672" xlink:href="#DejaVuSans-97"/>
      <use x="413.292969" xlink:href="#DejaVuSans-108"/>
     </g>
    </g>
   </g>
   <g id="text_43">
    <g id="patch_44">
     <path clip-path="url(#p3bb1b4c992)" d="M 525.72875 475.003805 
L 525.72875 510.288805 
Q 525.72875 512.688805 528.12875 512.688805 
L 535.87125 512.688805 
Q 538.27125 512.688805 538.27125 510.288805 
L 538.27125 475.003805 
Q 538.27125 472.603805 535.87125 472.603805 
L 528.12875 472.603805 
Q 525.72875 472.603805 525.72875 475.003805 
z
" style="fill:#ffffff;stroke:#ffffff;stroke-linejoin:miter;"/>
    </g>
    <g clip-path="url(#p3bb1b4c992)">
     <!-- Terminal -->
     <g transform="translate(529.7925 475.003805)rotate(-270)scale(0.08 -0.08)">
      <use xlink:href="#DejaVuSans-84"/>
      <use x="60.818359" xlink:href="#DejaVuSans-101"/>
      <use x="122.341797" xlink:href="#DejaVuSans-114"/>
      <use x="163.439453" xlink:href="#DejaVuSans-109"/>
      <use x="260.851562" xlink:href="#DejaVuSans-105"/>
      <use x="288.634766" xlink:href="#DejaVuSans-110"/>
      <use x="352.013672" xlink:href="#DejaVuSans-97"/>
      <use x="413.292969" xlink:href="#DejaVuSans-108"/>
     </g>
    </g>
   </g>
   <g id="text_44">
    <g id="patch_45">
     <path clip-path="url(#p3bb1b4c992)" d="M 569.672281 475.003805 
L 569.672281 510.288805 
Q 569.672281 512.688805 572.072281 512.688805 
L 579.814781 512.688805 
Q 582.214781 512.688805 582.214781 510.288805 
L 582.214781 475.003805 
Q 582.214781 472.603805 579.814781 472.603805 
L 572.072281 472.603805 
Q 569.672281 472.603805 569.672281 475.003805 
z
" style="fill:#ffffff;stroke:#ffffff;stroke-linejoin:miter;"/>
    </g>
    <g clip-path="url(#p3bb1b4c992)">
     <!-- Terminal -->
     <g transform="translate(573.736031 475.003805)rotate(-270)scale(0.08 -0.08)">
      <use xlink:href="#DejaVuSans-84"/>
      <use x="60.818359" xlink:href="#DejaVuSans-101"/>
      <use x="122.341797" xlink:href="#DejaVuSans-114"/>
      <use x="163.439453" xlink:href="#DejaVuSans-109"/>
      <use x="260.851562" xlink:href="#DejaVuSans-105"/>
      <use x="288.634766" xlink:href="#DejaVuSans-110"/>
      <use x="352.013672" xlink:href="#DejaVuSans-97"/>
      <use x="413.292969" xlink:href="#DejaVuSans-108"/>
     </g>
    </g>
   </g>
   <g id="text_45">
    <g id="patch_46">
     <path clip-path="url(#p3bb1b4c992)" d="M 613.615812 475.003805 
L 613.615812 510.288805 
Q 613.615812 512.688805 616.015812 512.688805 
L 623.758312 512.688805 
Q 626.158312 512.688805 626.158312 510.288805 
L 626.158312 475.003805 
Q 626.158312 472.603805 623.758312 472.603805 
L 616.015812 472.603805 
Q 613.615812 472.603805 613.615812 475.003805 
z
" style="fill:#ffffff;stroke:#ffffff;stroke-linejoin:miter;"/>
    </g>
    <g clip-path="url(#p3bb1b4c992)">
     <!-- Terminal -->
     <g transform="translate(617.679562 475.003805)rotate(-270)scale(0.08 -0.08)">
      <use xlink:href="#DejaVuSans-84"/>
      <use x="60.818359" xlink:href="#DejaVuSans-101"/>
      <use x="122.341797" xlink:href="#DejaVuSans-114"/>
      <use x="163.439453" xlink:href="#DejaVuSans-109"/>
      <use x="260.851562" xlink:href="#DejaVuSans-105"/>
      <use x="288.634766" xlink:href="#DejaVuSans-110"/>
      <use x="352.013672" xlink:href="#DejaVuSans-97"/>
      <use x="413.292969" xlink:href="#DejaVuSans-108"/>
     </g>
    </g>
   </g>
   <g id="text_46">
    <g id="patch_47">
     <path clip-path="url(#p3bb1b4c992)" d="M 262.067564 475.003805 
L 262.067564 510.288805 
Q 262.067564 512.688805 264.467564 512.688805 
L 272.210064 512.688805 
Q 274.610064 512.688805 274.610064 510.288805 
L 274.610064 475.003805 
Q 274.610064 472.603805 272.210064 472.603805 
L 264.467564 472.603805 
Q 262.067564 472.603805 262.067564 475.003805 
z
" style="fill:#ffffff;stroke:#ffffff;stroke-linejoin:miter;"/>
    </g>
    <g clip-path="url(#p3bb1b4c992)">
     <!-- Terminal -->
     <g transform="translate(266.131314 475.003805)rotate(-270)scale(0.08 -0.08)">
      <use xlink:href="#DejaVuSans-84"/>
      <use x="60.818359" xlink:href="#DejaVuSans-101"/>
      <use x="122.341797" xlink:href="#DejaVuSans-114"/>
      <use x="163.439453" xlink:href="#DejaVuSans-109"/>
      <use x="260.851562" xlink:href="#DejaVuSans-105"/>
      <use x="288.634766" xlink:href="#DejaVuSans-110"/>
      <use x="352.013672" xlink:href="#DejaVuSans-97"/>
      <use x="413.292969" xlink:href="#DejaVuSans-108"/>
     </g>
    </g>
   </g>
   <g id="text_47">
    <g id="patch_48">
     <path clip-path="url(#p3bb1b4c992)" d="M 657.559343 475.003805 
L 657.559343 510.288805 
Q 657.559343 512.688805 659.959343 512.688805 
L 667.701843 512.688805 
Q 670.101843 512.688805 670.101843 510.288805 
L 670.101843 475.003805 
Q 670.101843 472.603805 667.701843 472.603805 
L 659.959343 472.603805 
Q 657.559343 472.603805 657.559343 475.003805 
z
" style="fill:#ffffff;stroke:#ffffff;stroke-linejoin:miter;"/>
    </g>
    <g clip-path="url(#p3bb1b4c992)">
     <!-- Terminal -->
     <g transform="translate(661.623093 475.003805)rotate(-270)scale(0.08 -0.08)">
      <use xlink:href="#DejaVuSans-84"/>
      <use x="60.818359" xlink:href="#DejaVuSans-101"/>
      <use x="122.341797" xlink:href="#DejaVuSans-114"/>
      <use x="163.439453" xlink:href="#DejaVuSans-109"/>
      <use x="260.851562" xlink:href="#DejaVuSans-105"/>
      <use x="288.634766" xlink:href="#DejaVuSans-110"/>
      <use x="352.013672" xlink:href="#DejaVuSans-97"/>
      <use x="413.292969" xlink:href="#DejaVuSans-108"/>
     </g>
    </g>
   </g>
   <g id="text_48">
    <g id="patch_49">
     <path clip-path="url(#p3bb1b4c992)" d="M 921.220528 475.003805 
L 921.220528 510.288805 
Q 921.220528 512.688805 923.620528 512.688805 
L 931.363028 512.688805 
Q 933.763028 512.688805 933.763028 510.288805 
L 933.763028 475.003805 
Q 933.763028 472.603805 931.363028 472.603805 
L 923.620528 472.603805 
Q 921.220528 472.603805 921.220528 475.003805 
z
" style="fill:#ffffff;stroke:#ffffff;stroke-linejoin:miter;"/>
    </g>
    <g clip-path="url(#p3bb1b4c992)">
     <!-- Terminal -->
     <g transform="translate(925.284278 475.003805)rotate(-270)scale(0.08 -0.08)">
      <use xlink:href="#DejaVuSans-84"/>
      <use x="60.818359" xlink:href="#DejaVuSans-101"/>
      <use x="122.341797" xlink:href="#DejaVuSans-114"/>
      <use x="163.439453" xlink:href="#DejaVuSans-109"/>
      <use x="260.851562" xlink:href="#DejaVuSans-105"/>
      <use x="288.634766" xlink:href="#DejaVuSans-110"/>
      <use x="352.013672" xlink:href="#DejaVuSans-97"/>
      <use x="413.292969" xlink:href="#DejaVuSans-108"/>
     </g>
    </g>
   </g>
   <g id="PathCollection_1">
    <defs>
     <path d="M 0 8.660254 
C 2.296726 8.660254 4.499694 7.747755 6.123724 6.123724 
C 7.747755 4.499694 8.660254 2.296726 8.660254 0 
C 8.660254 -2.296726 7.747755 -4.499694 6.123724 -6.123724 
C 4.499694 -7.747755 2.296726 -8.660254 0 -8.660254 
C -2.296726 -8.660254 -4.499694 -7.747755 -6.123724 -6.123724 
C -7.747755 -4.499694 -8.660254 -2.296726 -8.660254 0 
C -8.660254 2.296726 -7.747755 4.499694 -6.123724 6.123724 
C -4.499694 7.747755 -2.296726 8.660254 0 8.660254 
z
" id="C0_0_82dc6e8f29"/>
    </defs>
    <g clip-path="url(#p3bb1b4c992)">
     <use style="fill:#ffffff;stroke:#ffffff;" x="48.62116" xlink:href="#C0_0_82dc6e8f29" y="533.632719"/>
    </g>
    <g clip-path="url(#p3bb1b4c992)">
     <use style="fill:#ffffff;stroke:#ffffff;" x="92.564691" xlink:href="#C0_0_82dc6e8f29" y="533.632719"/>
    </g>
    <g clip-path="url(#p3bb1b4c992)">
     <use style="fill:#ffffff;stroke:#ffffff;" x="136.508222" xlink:href="#C0_0_82dc6e8f29" y="533.632719"/>
    </g>
    <g clip-path="url(#p3bb1b4c992)">
     <use style="fill:#ffffff;stroke:#ffffff;" x="180.451752" xlink:href="#C0_0_82dc6e8f29" y="533.632719"/>
    </g>
    <g clip-path="url(#p3bb1b4c992)">
     <use style="fill:#ffffff;stroke:#ffffff;" x="224.395283" xlink:href="#C0_0_82dc6e8f29" y="533.632719"/>
    </g>
    <g clip-path="url(#p3bb1b4c992)">
     <use style="fill:#ffffff;stroke:#ffffff;" x="268.338814" xlink:href="#C0_0_82dc6e8f29" y="533.632719"/>
    </g>
    <g clip-path="url(#p3bb1b4c992)">
     <use style="fill:#ffffff;stroke:#ffffff;" x="312.282345" xlink:href="#C0_0_82dc6e8f29" y="533.632719"/>
    </g>
    <g clip-path="url(#p3bb1b4c992)">
     <use style="fill:#ffffff;stroke:#ffffff;" x="356.225876" xlink:href="#C0_0_82dc6e8f29" y="533.632719"/>
    </g>
    <g clip-path="url(#p3bb1b4c992)">
     <use style="fill:#ffffff;stroke:#ffffff;" x="400.169407" xlink:href="#C0_0_82dc6e8f29" y="533.632719"/>
    </g>
    <g clip-path="url(#p3bb1b4c992)">
     <use style="fill:#ffffff;stroke:#ffffff;" x="444.112938" xlink:href="#C0_0_82dc6e8f29" y="533.632719"/>
    </g>
    <g clip-path="url(#p3bb1b4c992)">
     <use style="fill:#ffffff;stroke:#ffffff;" x="488.056469" xlink:href="#C0_0_82dc6e8f29" y="533.632719"/>
    </g>
    <g clip-path="url(#p3bb1b4c992)">
     <use style="fill:#ffffff;stroke:#ffffff;" x="532" xlink:href="#C0_0_82dc6e8f29" y="533.632719"/>
    </g>
    <g clip-path="url(#p3bb1b4c992)">
     <use style="fill:#ffffff;stroke:#ffffff;" x="575.943531" xlink:href="#C0_0_82dc6e8f29" y="533.632719"/>
    </g>
    <g clip-path="url(#p3bb1b4c992)">
     <use style="fill:#ffffff;stroke:#ffffff;" x="619.887062" xlink:href="#C0_0_82dc6e8f29" y="533.632719"/>
    </g>
    <g clip-path="url(#p3bb1b4c992)">
     <use style="fill:#ffffff;stroke:#ffffff;" x="663.830593" xlink:href="#C0_0_82dc6e8f29" y="533.632719"/>
    </g>
    <g clip-path="url(#p3bb1b4c992)">
     <use style="fill:#ffffff;stroke:#ffffff;" x="707.774124" xlink:href="#C0_0_82dc6e8f29" y="533.632719"/>
    </g>
    <g clip-path="url(#p3bb1b4c992)">
     <use style="fill:#ffffff;stroke:#ffffff;" x="751.717655" xlink:href="#C0_0_82dc6e8f29" y="533.632719"/>
    </g>
    <g clip-path="url(#p3bb1b4c992)">
     <use style="fill:#ffffff;stroke:#ffffff;" x="795.661186" xlink:href="#C0_0_82dc6e8f29" y="533.632719"/>
    </g>
    <g clip-path="url(#p3bb1b4c992)">
     <use style="fill:#ffffff;stroke:#ffffff;" x="839.604717" xlink:href="#C0_0_82dc6e8f29" y="533.632719"/>
    </g>
    <g clip-path="url(#p3bb1b4c992)">
     <use style="fill:#ffffff;stroke:#ffffff;" x="883.548248" xlink:href="#C0_0_82dc6e8f29" y="533.632719"/>
    </g>
    <g clip-path="url(#p3bb1b4c992)">
     <use style="fill:#ffffff;stroke:#ffffff;" x="927.491778" xlink:href="#C0_0_82dc6e8f29" y="533.632719"/>
    </g>
    <g clip-path="url(#p3bb1b4c992)">
     <use style="fill:#ffffff;stroke:#ffffff;" x="864.017789" xlink:href="#C0_0_82dc6e8f29" y="26.367281"/>
    </g>
    <g clip-path="url(#p3bb1b4c992)">
     <use style="fill:#ffffff;stroke:#ffffff;" x="864.017789" xlink:href="#C0_0_82dc6e8f29" y="115.216557"/>
    </g>
    <g clip-path="url(#p3bb1b4c992)">
     <use style="fill:#ffffff;stroke:#ffffff;" x="1015.37884" xlink:href="#C0_0_82dc6e8f29" y="533.632719"/>
    </g>
    <g clip-path="url(#p3bb1b4c992)">
     <use style="fill:#ffffff;stroke:#ffffff;" x="971.435309" xlink:href="#C0_0_82dc6e8f29" y="533.632719"/>
    </g>
    <g clip-path="url(#p3bb1b4c992)">
     <use style="fill:#ffffff;stroke:#ffffff;" x="605.239218" xlink:href="#C0_0_82dc6e8f29" y="201.86034"/>
    </g>
    <g clip-path="url(#p3bb1b4c992)">
     <use style="fill:#ffffff;stroke:#ffffff;" x="316.676698" xlink:href="#C0_0_82dc6e8f29" y="286.573906"/>
    </g>
    <g clip-path="url(#p3bb1b4c992)">
     <use style="fill:#ffffff;stroke:#ffffff;" x="835.210364" xlink:href="#C0_0_82dc6e8f29" y="286.573906"/>
    </g>
    <g clip-path="url(#p3bb1b4c992)">
     <use style="fill:#ffffff;stroke:#ffffff;" x="729.745889" xlink:href="#C0_0_82dc6e8f29" y="369.687065"/>
    </g>
    <g clip-path="url(#p3bb1b4c992)">
     <use style="fill:#ffffff;stroke:#ffffff;" x="795.661186" xlink:href="#C0_0_82dc6e8f29" y="451.659892"/>
    </g>
    <g clip-path="url(#p3bb1b4c992)">
     <use style="fill:#ffffff;stroke:#ffffff;" x="839.604717" xlink:href="#C0_0_82dc6e8f29" y="451.659892"/>
    </g>
    <g clip-path="url(#p3bb1b4c992)">
     <use style="fill:#ffffff;stroke:#ffffff;" x="883.548248" xlink:href="#C0_0_82dc6e8f29" y="451.659892"/>
    </g>
    <g clip-path="url(#p3bb1b4c992)">
     <use style="fill:#ffffff;stroke:#ffffff;" x="707.774124" xlink:href="#C0_0_82dc6e8f29" y="451.659892"/>
    </g>
    <g clip-path="url(#p3bb1b4c992)">
     <use style="fill:#ffffff;stroke:#ffffff;" x="751.717655" xlink:href="#C0_0_82dc6e8f29" y="451.659892"/>
    </g>
    <g clip-path="url(#p3bb1b4c992)">
     <use style="fill:#ffffff;stroke:#ffffff;" x="48.62116" xlink:href="#C0_0_82dc6e8f29" y="451.659892"/>
    </g>
    <g clip-path="url(#p3bb1b4c992)">
     <use style="fill:#ffffff;stroke:#ffffff;" x="180.451752" xlink:href="#C0_0_82dc6e8f29" y="451.659892"/>
    </g>
    <g clip-path="url(#p3bb1b4c992)">
     <use style="fill:#ffffff;stroke:#ffffff;" x="312.282345" xlink:href="#C0_0_82dc6e8f29" y="451.659892"/>
    </g>
    <g clip-path="url(#p3bb1b4c992)">
     <use style="fill:#ffffff;stroke:#ffffff;" x="356.225876" xlink:href="#C0_0_82dc6e8f29" y="451.659892"/>
    </g>
    <g clip-path="url(#p3bb1b4c992)">
     <use style="fill:#ffffff;stroke:#ffffff;" x="400.169407" xlink:href="#C0_0_82dc6e8f29" y="451.659892"/>
    </g>
    <g clip-path="url(#p3bb1b4c992)">
     <use style="fill:#ffffff;stroke:#ffffff;" x="444.112938" xlink:href="#C0_0_82dc6e8f29" y="451.659892"/>
    </g>
    <g clip-path="url(#p3bb1b4c992)">
     <use style="fill:#ffffff;stroke:#ffffff;" x="488.056469" xlink:href="#C0_0_82dc6e8f29" y="451.659892"/>
    </g>
    <g clip-path="url(#p3bb1b4c992)">
     <use style="fill:#ffffff;stroke:#ffffff;" x="575.943531" xlink:href="#C0_0_82dc6e8f29" y="369.687065"/>
    </g>
    <g clip-path="url(#p3bb1b4c992)">
     <use style="fill:#ffffff;stroke:#ffffff;" x="92.564691" xlink:href="#C0_0_82dc6e8f29" y="451.659892"/>
    </g>
    <g clip-path="url(#p3bb1b4c992)">
     <use style="fill:#ffffff;stroke:#ffffff;" x="532" xlink:href="#C0_0_82dc6e8f29" y="451.659892"/>
    </g>
    <g clip-path="url(#p3bb1b4c992)">
     <use style="fill:#ffffff;stroke:#ffffff;" x="575.943531" xlink:href="#C0_0_82dc6e8f29" y="451.659892"/>
    </g>
    <g clip-path="url(#p3bb1b4c992)">
     <use style="fill:#ffffff;stroke:#ffffff;" x="619.887062" xlink:href="#C0_0_82dc6e8f29" y="451.659892"/>
    </g>
    <g clip-path="url(#p3bb1b4c992)">
     <use style="fill:#ffffff;stroke:#ffffff;" x="268.338814" xlink:href="#C0_0_82dc6e8f29" y="451.659892"/>
    </g>
    <g clip-path="url(#p3bb1b4c992)">
     <use style="fill:#ffffff;stroke:#ffffff;" x="663.830593" xlink:href="#C0_0_82dc6e8f29" y="451.659892"/>
    </g>
    <g clip-path="url(#p3bb1b4c992)">
     <use style="fill:#ffffff;stroke:#ffffff;" x="927.491778" xlink:href="#C0_0_82dc6e8f29" y="451.659892"/>
    </g>
   </g>
   <g id="text_49">
    <g clip-path="url(#p3bb1b4c992)">
     <!-- Ah -->
     <defs>
      <path d="M 54.890625 33.015625 
L 54.890625 0 
L 45.90625 0 
L 45.90625 32.71875 
Q 45.90625 40.484375 42.875 44.328125 
Q 39.84375 48.1875 33.796875 48.1875 
Q 26.515625 48.1875 22.3125 43.546875 
Q 18.109375 38.921875 18.109375 30.90625 
L 18.109375 0 
L 9.078125 0 
L 9.078125 75.984375 
L 18.109375 75.984375 
L 18.109375 46.1875 
Q 21.34375 51.125 25.703125 53.5625 
Q 30.078125 56 35.796875 56 
Q 45.21875 56 50.046875 50.171875 
Q 54.890625 44.34375 54.890625 33.015625 
z
" id="DejaVuSans-104"/>
     </defs>
     <g transform="translate(42.032097 536.392094)scale(0.1 -0.1)">
      <use xlink:href="#DejaVuSans-65"/>
      <use x="68.408203" xlink:href="#DejaVuSans-104"/>
     </g>
    </g>
   </g>
   <g id="text_50">
    <g clip-path="url(#p3bb1b4c992)">
     <!-- , -->
     <defs>
      <path d="M 11.71875 12.40625 
L 22.015625 12.40625 
L 22.015625 4 
L 14.015625 -11.625 
L 7.71875 -11.625 
L 11.71875 4 
z
" id="DejaVuSans-44"/>
     </defs>
     <g transform="translate(90.975628 536.392094)scale(0.1 -0.1)">
      <use xlink:href="#DejaVuSans-44"/>
     </g>
    </g>
   </g>
   <g id="text_51">
    <g clip-path="url(#p3bb1b4c992)">
     <!-- my -->
     <defs>
      <path d="M 32.171875 -5.078125 
Q 28.375 -14.84375 24.75 -17.8125 
Q 21.140625 -20.796875 15.09375 -20.796875 
L 7.90625 -20.796875 
L 7.90625 -13.28125 
L 13.1875 -13.28125 
Q 16.890625 -13.28125 18.9375 -11.515625 
Q 21 -9.765625 23.484375 -3.21875 
L 25.09375 0.875 
L 2.984375 54.6875 
L 12.5 54.6875 
L 29.59375 11.921875 
L 46.6875 54.6875 
L 56.203125 54.6875 
z
" id="DejaVuSans-121"/>
     </defs>
     <g transform="translate(128.678534 536.392094)scale(0.1 -0.1)">
      <use xlink:href="#DejaVuSans-109"/>
      <use x="97.412109" xlink:href="#DejaVuSans-121"/>
     </g>
    </g>
   </g>
   <g id="text_52">
    <g clip-path="url(#p3bb1b4c992)">
     <!-- gallant -->
     <defs>
      <path d="M 45.40625 27.984375 
Q 45.40625 37.75 41.375 43.109375 
Q 37.359375 48.484375 30.078125 48.484375 
Q 22.859375 48.484375 18.828125 43.109375 
Q 14.796875 37.75 14.796875 27.984375 
Q 14.796875 18.265625 18.828125 12.890625 
Q 22.859375 7.515625 30.078125 7.515625 
Q 37.359375 7.515625 41.375 12.890625 
Q 45.40625 18.265625 45.40625 27.984375 
z
M 54.390625 6.78125 
Q 54.390625 -7.171875 48.1875 -13.984375 
Q 42 -20.796875 29.203125 -20.796875 
Q 24.46875 -20.796875 20.265625 -20.09375 
Q 16.0625 -19.390625 12.109375 -17.921875 
L 12.109375 -9.1875 
Q 16.0625 -11.328125 19.921875 -12.34375 
Q 23.78125 -13.375 27.78125 -13.375 
Q 36.625 -13.375 41.015625 -8.765625 
Q 45.40625 -4.15625 45.40625 5.171875 
L 45.40625 9.625 
Q 42.625 4.78125 38.28125 2.390625 
Q 33.9375 0 27.875 0 
Q 17.828125 0 11.671875 7.65625 
Q 5.515625 15.328125 5.515625 27.984375 
Q 5.515625 40.671875 11.671875 48.328125 
Q 17.828125 56 27.875 56 
Q 33.9375 56 38.28125 53.609375 
Q 42.625 51.21875 45.40625 46.390625 
L 45.40625 54.6875 
L 54.390625 54.6875 
z
" id="DejaVuSans-103"/>
      <path d="M 18.3125 70.21875 
L 18.3125 54.6875 
L 36.8125 54.6875 
L 36.8125 47.703125 
L 18.3125 47.703125 
L 18.3125 18.015625 
Q 18.3125 11.328125 20.140625 9.421875 
Q 21.96875 7.515625 27.59375 7.515625 
L 36.8125 7.515625 
L 36.8125 0 
L 27.59375 0 
Q 17.1875 0 13.234375 3.875 
Q 9.28125 7.765625 9.28125 18.015625 
L 9.28125 47.703125 
L 2.6875 47.703125 
L 2.6875 54.6875 
L 9.28125 54.6875 
L 9.28125 70.21875 
z
" id="DejaVuSans-116"/>
     </defs>
     <g transform="translate(163.242377 536.392094)scale(0.1 -0.1)">
      <use xlink:href="#DejaVuSans-103"/>
      <use x="63.476562" xlink:href="#DejaVuSans-97"/>
      <use x="124.755859" xlink:href="#DejaVuSans-108"/>
      <use x="152.539062" xlink:href="#DejaVuSans-108"/>
      <use x="180.322266" xlink:href="#DejaVuSans-97"/>
      <use x="241.601562" xlink:href="#DejaVuSans-110"/>
      <use x="304.980469" xlink:href="#DejaVuSans-116"/>
     </g>
    </g>
   </g>
   <g id="text_53">
    <g clip-path="url(#p3bb1b4c992)">
     <!-- Ned -->
     <defs>
      <path d="M 9.8125 72.90625 
L 23.09375 72.90625 
L 55.421875 11.921875 
L 55.421875 72.90625 
L 64.984375 72.90625 
L 64.984375 0 
L 51.703125 0 
L 19.390625 60.984375 
L 19.390625 0 
L 9.8125 0 
z
" id="DejaVuSans-78"/>
      <path d="M 45.40625 46.390625 
L 45.40625 75.984375 
L 54.390625 75.984375 
L 54.390625 0 
L 45.40625 0 
L 45.40625 8.203125 
Q 42.578125 3.328125 38.25 0.953125 
Q 33.9375 -1.421875 27.875 -1.421875 
Q 17.96875 -1.421875 11.734375 6.484375 
Q 5.515625 14.40625 5.515625 27.296875 
Q 5.515625 40.1875 11.734375 48.09375 
Q 17.96875 56 27.875 56 
Q 33.9375 56 38.25 53.625 
Q 42.578125 51.265625 45.40625 46.390625 
z
M 14.796875 27.296875 
Q 14.796875 17.390625 18.875 11.75 
Q 22.953125 6.109375 30.078125 6.109375 
Q 37.203125 6.109375 41.296875 11.75 
Q 45.40625 17.390625 45.40625 27.296875 
Q 45.40625 37.203125 41.296875 42.84375 
Q 37.203125 48.484375 30.078125 48.484375 
Q 22.953125 48.484375 18.875 42.84375 
Q 14.796875 37.203125 14.796875 27.296875 
z
" id="DejaVuSans-100"/>
     </defs>
     <g transform="translate(214.403877 536.392094)scale(0.1 -0.1)">
      <use xlink:href="#DejaVuSans-78"/>
      <use x="74.804688" xlink:href="#DejaVuSans-101"/>
      <use x="136.328125" xlink:href="#DejaVuSans-100"/>
     </g>
    </g>
   </g>
   <g id="text_54">
    <g clip-path="url(#p3bb1b4c992)">
     <!-- ! -->
     <defs>
      <path d="M 15.09375 12.40625 
L 25 12.40625 
L 25 0 
L 15.09375 0 
z
M 15.09375 72.90625 
L 25 72.90625 
L 25 40.921875 
L 24.03125 23.484375 
L 16.109375 23.484375 
L 15.09375 40.921875 
z
" id="DejaVuSans-33"/>
     </defs>
     <g transform="translate(266.334127 536.392094)scale(0.1 -0.1)">
      <use xlink:href="#DejaVuSans-33"/>
     </g>
    </g>
   </g>
   <g id="text_55">
    <g clip-path="url(#p3bb1b4c992)">
     <!-- I -->
     <defs>
      <path d="M 9.8125 72.90625 
L 19.671875 72.90625 
L 19.671875 0 
L 9.8125 0 
z
" id="DejaVuSans-73"/>
     </defs>
     <g transform="translate(310.807345 536.392094)scale(0.1 -0.1)">
      <use xlink:href="#DejaVuSans-73"/>
     </g>
    </g>
   </g>
   <g id="text_56">
    <g clip-path="url(#p3bb1b4c992)">
     <!-- ask -->
     <defs>
      <path d="M 44.28125 53.078125 
L 44.28125 44.578125 
Q 40.484375 46.53125 36.375 47.5 
Q 32.28125 48.484375 27.875 48.484375 
Q 21.1875 48.484375 17.84375 46.4375 
Q 14.5 44.390625 14.5 40.28125 
Q 14.5 37.15625 16.890625 35.375 
Q 19.28125 33.59375 26.515625 31.984375 
L 29.59375 31.296875 
Q 39.15625 29.25 43.1875 25.515625 
Q 47.21875 21.78125 47.21875 15.09375 
Q 47.21875 7.46875 41.1875 3.015625 
Q 35.15625 -1.421875 24.609375 -1.421875 
Q 20.21875 -1.421875 15.453125 -0.5625 
Q 10.6875 0.296875 5.421875 2 
L 5.421875 11.28125 
Q 10.40625 8.6875 15.234375 7.390625 
Q 20.0625 6.109375 24.8125 6.109375 
Q 31.15625 6.109375 34.5625 8.28125 
Q 37.984375 10.453125 37.984375 14.40625 
Q 37.984375 18.0625 35.515625 20.015625 
Q 33.0625 21.96875 24.703125 23.78125 
L 21.578125 24.515625 
Q 13.234375 26.265625 9.515625 29.90625 
Q 5.8125 33.546875 5.8125 39.890625 
Q 5.8125 47.609375 11.28125 51.796875 
Q 16.75 56 26.8125 56 
Q 31.78125 56 36.171875 55.265625 
Q 40.578125 54.546875 44.28125 53.078125 
z
" id="DejaVuSans-115"/>
      <path d="M 9.078125 75.984375 
L 18.109375 75.984375 
L 18.109375 31.109375 
L 44.921875 54.6875 
L 56.390625 54.6875 
L 27.390625 29.109375 
L 57.625 0 
L 45.90625 0 
L 18.109375 26.703125 
L 18.109375 0 
L 9.078125 0 
z
" id="DejaVuSans-107"/>
     </defs>
     <g transform="translate(347.661814 536.392094)scale(0.1 -0.1)">
      <use xlink:href="#DejaVuSans-97"/>
      <use x="61.279297" xlink:href="#DejaVuSans-115"/>
      <use x="113.378906" xlink:href="#DejaVuSans-107"/>
     </g>
    </g>
   </g>
   <g id="text_57">
    <g clip-path="url(#p3bb1b4c992)">
     <!-- only -->
     <defs>
      <path d="M 30.609375 48.390625 
Q 23.390625 48.390625 19.1875 42.75 
Q 14.984375 37.109375 14.984375 27.296875 
Q 14.984375 17.484375 19.15625 11.84375 
Q 23.34375 6.203125 30.609375 6.203125 
Q 37.796875 6.203125 41.984375 11.859375 
Q 46.1875 17.53125 46.1875 27.296875 
Q 46.1875 37.015625 41.984375 42.703125 
Q 37.796875 48.390625 30.609375 48.390625 
z
M 30.609375 56 
Q 42.328125 56 49.015625 48.375 
Q 55.71875 40.765625 55.71875 27.296875 
Q 55.71875 13.875 49.015625 6.21875 
Q 42.328125 -1.421875 30.609375 -1.421875 
Q 18.84375 -1.421875 12.171875 6.21875 
Q 5.515625 13.875 5.515625 27.296875 
Q 5.515625 40.765625 12.171875 48.375 
Q 18.84375 56 30.609375 56 
z
" id="DejaVuSans-111"/>
     </defs>
     <g transform="translate(389.592845 536.392094)scale(0.1 -0.1)">
      <use xlink:href="#DejaVuSans-111"/>
      <use x="61.181641" xlink:href="#DejaVuSans-110"/>
      <use x="124.560547" xlink:href="#DejaVuSans-108"/>
      <use x="152.34375" xlink:href="#DejaVuSans-121"/>
     </g>
    </g>
   </g>
   <g id="text_58">
    <g clip-path="url(#p3bb1b4c992)">
     <!-- to -->
     <g transform="translate(439.093407 536.392094)scale(0.1 -0.1)">
      <use xlink:href="#DejaVuSans-116"/>
      <use x="39.208984" xlink:href="#DejaVuSans-111"/>
     </g>
    </g>
   </g>
   <g id="text_59">
    <g clip-path="url(#p3bb1b4c992)">
     <!-- live -->
     <defs>
      <path d="M 2.984375 54.6875 
L 12.5 54.6875 
L 29.59375 8.796875 
L 46.6875 54.6875 
L 56.203125 54.6875 
L 35.6875 0 
L 23.484375 0 
z
" id="DejaVuSans-118"/>
     </defs>
     <g transform="translate(479.242407 536.392094)scale(0.1 -0.1)">
      <use xlink:href="#DejaVuSans-108"/>
      <use x="27.783203" xlink:href="#DejaVuSans-105"/>
      <use x="55.566406" xlink:href="#DejaVuSans-118"/>
      <use x="114.746094" xlink:href="#DejaVuSans-101"/>
     </g>
    </g>
   </g>
   <g id="text_60">
    <g clip-path="url(#p3bb1b4c992)">
     <!-- 100 -->
     <defs>
      <path d="M 12.40625 8.296875 
L 28.515625 8.296875 
L 28.515625 63.921875 
L 10.984375 60.40625 
L 10.984375 69.390625 
L 28.421875 72.90625 
L 38.28125 72.90625 
L 38.28125 8.296875 
L 54.390625 8.296875 
L 54.390625 0 
L 12.40625 0 
z
" id="DejaVuSans-49"/>
      <path d="M 31.78125 66.40625 
Q 24.171875 66.40625 20.328125 58.90625 
Q 16.5 51.421875 16.5 36.375 
Q 16.5 21.390625 20.328125 13.890625 
Q 24.171875 6.390625 31.78125 6.390625 
Q 39.453125 6.390625 43.28125 13.890625 
Q 47.125 21.390625 47.125 36.375 
Q 47.125 51.421875 43.28125 58.90625 
Q 39.453125 66.40625 31.78125 66.40625 
z
M 31.78125 74.21875 
Q 44.046875 74.21875 50.515625 64.515625 
Q 56.984375 54.828125 56.984375 36.375 
Q 56.984375 17.96875 50.515625 8.265625 
Q 44.046875 -1.421875 31.78125 -1.421875 
Q 19.53125 -1.421875 13.0625 8.265625 
Q 6.59375 17.96875 6.59375 36.375 
Q 6.59375 54.828125 13.0625 64.515625 
Q 19.53125 74.21875 31.78125 74.21875 
z
" id="DejaVuSans-48"/>
     </defs>
     <g transform="translate(522.45625 536.392094)scale(0.1 -0.1)">
      <use xlink:href="#DejaVuSans-49"/>
      <use x="63.623047" xlink:href="#DejaVuSans-48"/>
      <use x="127.246094" xlink:href="#DejaVuSans-48"/>
     </g>
    </g>
   </g>
   <g id="text_61">
    <g clip-path="url(#p3bb1b4c992)">
     <!-- years -->
     <g transform="translate(562.183375 536.392094)scale(0.1 -0.1)">
      <use xlink:href="#DejaVuSans-121"/>
      <use x="59.179688" xlink:href="#DejaVuSans-101"/>
      <use x="120.703125" xlink:href="#DejaVuSans-97"/>
      <use x="181.982422" xlink:href="#DejaVuSans-114"/>
      <use x="223.095703" xlink:href="#DejaVuSans-115"/>
     </g>
    </g>
   </g>
   <g id="text_62">
    <g clip-path="url(#p3bb1b4c992)">
     <!-- more -->
     <g transform="translate(606.826906 536.392094)scale(0.1 -0.1)">
      <use xlink:href="#DejaVuSans-109"/>
      <use x="97.412109" xlink:href="#DejaVuSans-111"/>
      <use x="158.59375" xlink:href="#DejaVuSans-114"/>
      <use x="199.675781" xlink:href="#DejaVuSans-101"/>
     </g>
    </g>
   </g>
   <g id="text_63">
    <g clip-path="url(#p3bb1b4c992)">
     <!-- , -->
     <g transform="translate(662.24153 536.392094)scale(0.1 -0.1)">
      <use xlink:href="#DejaVuSans-44"/>
     </g>
    </g>
   </g>
   <g id="text_64">
    <g clip-path="url(#p3bb1b4c992)">
     <!-- the -->
     <g transform="translate(699.568655 536.392094)scale(0.1 -0.1)">
      <use xlink:href="#DejaVuSans-116"/>
      <use x="39.208984" xlink:href="#DejaVuSans-104"/>
      <use x="102.587891" xlink:href="#DejaVuSans-101"/>
     </g>
    </g>
   </g>
   <g id="text_65">
    <g clip-path="url(#p3bb1b4c992)">
     <!-- longer -->
     <g transform="translate(735.794217 536.392094)scale(0.1 -0.1)">
      <use xlink:href="#DejaVuSans-108"/>
      <use x="27.783203" xlink:href="#DejaVuSans-111"/>
      <use x="88.964844" xlink:href="#DejaVuSans-110"/>
      <use x="152.34375" xlink:href="#DejaVuSans-103"/>
      <use x="215.820312" xlink:href="#DejaVuSans-101"/>
      <use x="277.34375" xlink:href="#DejaVuSans-114"/>
     </g>
    </g>
   </g>
   <g id="text_66">
    <g clip-path="url(#p3bb1b4c992)">
     <!-- to -->
     <g transform="translate(790.641654 536.392094)scale(0.1 -0.1)">
      <use xlink:href="#DejaVuSans-116"/>
      <use x="39.208984" xlink:href="#DejaVuSans-111"/>
     </g>
    </g>
   </g>
   <g id="text_67">
    <g clip-path="url(#p3bb1b4c992)">
     <!-- remember -->
     <defs>
      <path d="M 48.6875 27.296875 
Q 48.6875 37.203125 44.609375 42.84375 
Q 40.53125 48.484375 33.40625 48.484375 
Q 26.265625 48.484375 22.1875 42.84375 
Q 18.109375 37.203125 18.109375 27.296875 
Q 18.109375 17.390625 22.1875 11.75 
Q 26.265625 6.109375 33.40625 6.109375 
Q 40.53125 6.109375 44.609375 11.75 
Q 48.6875 17.390625 48.6875 27.296875 
z
M 18.109375 46.390625 
Q 20.953125 51.265625 25.265625 53.625 
Q 29.59375 56 35.59375 56 
Q 45.5625 56 51.78125 48.09375 
Q 58.015625 40.1875 58.015625 27.296875 
Q 58.015625 14.40625 51.78125 6.484375 
Q 45.5625 -1.421875 35.59375 -1.421875 
Q 29.59375 -1.421875 25.265625 0.953125 
Q 20.953125 3.328125 18.109375 8.203125 
L 18.109375 0 
L 9.078125 0 
L 9.078125 75.984375 
L 18.109375 75.984375 
z
" id="DejaVuSans-98"/>
     </defs>
     <g transform="translate(813.35081 536.392094)scale(0.1 -0.1)">
      <use xlink:href="#DejaVuSans-114"/>
      <use x="41.082031" xlink:href="#DejaVuSans-101"/>
      <use x="102.605469" xlink:href="#DejaVuSans-109"/>
      <use x="200.017578" xlink:href="#DejaVuSans-101"/>
      <use x="261.541016" xlink:href="#DejaVuSans-109"/>
      <use x="358.953125" xlink:href="#DejaVuSans-98"/>
      <use x="422.429688" xlink:href="#DejaVuSans-101"/>
      <use x="483.953125" xlink:href="#DejaVuSans-114"/>
     </g>
    </g>
   </g>
   <g id="text_68">
    <g clip-path="url(#p3bb1b4c992)">
     <!-- you -->
     <defs>
      <path d="M 8.5 21.578125 
L 8.5 54.6875 
L 17.484375 54.6875 
L 17.484375 21.921875 
Q 17.484375 14.15625 20.5 10.265625 
Q 23.53125 6.390625 29.59375 6.390625 
Q 36.859375 6.390625 41.078125 11.03125 
Q 45.3125 15.671875 45.3125 23.6875 
L 45.3125 54.6875 
L 54.296875 54.6875 
L 54.296875 0 
L 45.3125 0 
L 45.3125 8.40625 
Q 42.046875 3.421875 37.71875 1 
Q 33.40625 -1.421875 27.6875 -1.421875 
Q 18.265625 -1.421875 13.375 4.4375 
Q 8.5 10.296875 8.5 21.578125 
z
M 31.109375 56 
z
" id="DejaVuSans-117"/>
     </defs>
     <g transform="translate(874.360748 536.392094)scale(0.1 -0.1)">
      <use xlink:href="#DejaVuSans-121"/>
      <use x="59.179688" xlink:href="#DejaVuSans-111"/>
      <use x="120.361328" xlink:href="#DejaVuSans-117"/>
     </g>
    </g>
   </g>
   <g id="text_69">
    <g clip-path="url(#p3bb1b4c992)">
     <!-- ! -->
     <g transform="translate(925.487091 536.392094)scale(0.1 -0.1)">
      <use xlink:href="#DejaVuSans-33"/>
     </g>
    </g>
   </g>
   <g id="text_70">
    <g clip-path="url(#p3bb1b4c992)">
     <!-- 1.1 -->
     <defs>
      <path d="M 10.6875 12.40625 
L 21 12.40625 
L 21 0 
L 10.6875 0 
z
" id="DejaVuSans-46"/>
     </defs>
     <g transform="translate(856.066227 29.126656)scale(0.1 -0.1)">
      <use xlink:href="#DejaVuSans-49"/>
      <use x="63.623047" xlink:href="#DejaVuSans-46"/>
      <use x="95.410156" xlink:href="#DejaVuSans-49"/>
     </g>
    </g>
   </g>
   <g id="text_71">
    <g clip-path="url(#p3bb1b4c992)">
     <!-- 1.2 -->
     <defs>
      <path d="M 19.1875 8.296875 
L 53.609375 8.296875 
L 53.609375 0 
L 7.328125 0 
L 7.328125 8.296875 
Q 12.9375 14.109375 22.625 23.890625 
Q 32.328125 33.6875 34.8125 36.53125 
Q 39.546875 41.84375 41.421875 45.53125 
Q 43.3125 49.21875 43.3125 52.78125 
Q 43.3125 58.59375 39.234375 62.25 
Q 35.15625 65.921875 28.609375 65.921875 
Q 23.96875 65.921875 18.8125 64.3125 
Q 13.671875 62.703125 7.8125 59.421875 
L 7.8125 69.390625 
Q 13.765625 71.78125 18.9375 73 
Q 24.125 74.21875 28.421875 74.21875 
Q 39.75 74.21875 46.484375 68.546875 
Q 53.21875 62.890625 53.21875 53.421875 
Q 53.21875 48.921875 51.53125 44.890625 
Q 49.859375 40.875 45.40625 35.40625 
Q 44.1875 33.984375 37.640625 27.21875 
Q 31.109375 20.453125 19.1875 8.296875 
z
" id="DejaVuSans-50"/>
     </defs>
     <g transform="translate(856.066227 117.975932)scale(0.1 -0.1)">
      <use xlink:href="#DejaVuSans-49"/>
      <use x="63.623047" xlink:href="#DejaVuSans-46"/>
      <use x="95.410156" xlink:href="#DejaVuSans-50"/>
     </g>
    </g>
   </g>
   <g id="text_72">
    <g clip-path="url(#p3bb1b4c992)">
     <!-- IMPLICIT -->
     <defs>
      <path d="M 9.8125 72.90625 
L 24.515625 72.90625 
L 43.109375 23.296875 
L 61.8125 72.90625 
L 76.515625 72.90625 
L 76.515625 0 
L 66.890625 0 
L 66.890625 64.015625 
L 48.09375 14.015625 
L 38.1875 14.015625 
L 19.390625 64.015625 
L 19.390625 0 
L 9.8125 0 
z
" id="DejaVuSans-77"/>
      <path d="M 9.8125 72.90625 
L 19.671875 72.90625 
L 19.671875 8.296875 
L 55.171875 8.296875 
L 55.171875 0 
L 9.8125 0 
z
" id="DejaVuSans-76"/>
     </defs>
     <g transform="translate(994.293684 536.392094)scale(0.1 -0.1)">
      <use xlink:href="#DejaVuSans-73"/>
      <use x="29.492188" xlink:href="#DejaVuSans-77"/>
      <use x="115.771484" xlink:href="#DejaVuSans-80"/>
      <use x="176.074219" xlink:href="#DejaVuSans-76"/>
      <use x="231.787109" xlink:href="#DejaVuSans-73"/>
      <use x="261.279297" xlink:href="#DejaVuSans-67"/>
      <use x="331.103516" xlink:href="#DejaVuSans-73"/>
      <use x="360.595703" xlink:href="#DejaVuSans-84"/>
     </g>
    </g>
   </g>
   <g id="text_73">
    <g clip-path="url(#p3bb1b4c992)">
     <!-- IMPLICIT -->
     <g transform="translate(950.350153 536.392094)scale(0.1 -0.1)">
      <use xlink:href="#DejaVuSans-73"/>
      <use x="29.492188" xlink:href="#DejaVuSans-77"/>
      <use x="115.771484" xlink:href="#DejaVuSans-80"/>
      <use x="176.074219" xlink:href="#DejaVuSans-76"/>
      <use x="231.787109" xlink:href="#DejaVuSans-73"/>
      <use x="261.279297" xlink:href="#DejaVuSans-67"/>
      <use x="331.103516" xlink:href="#DejaVuSans-73"/>
      <use x="360.595703" xlink:href="#DejaVuSans-84"/>
     </g>
    </g>
   </g>
   <g id="text_74">
    <g clip-path="url(#p3bb1b4c992)">
     <!-- 1.5 -->
     <defs>
      <path d="M 10.796875 72.90625 
L 49.515625 72.90625 
L 49.515625 64.59375 
L 19.828125 64.59375 
L 19.828125 46.734375 
Q 21.96875 47.46875 24.109375 47.828125 
Q 26.265625 48.1875 28.421875 48.1875 
Q 40.625 48.1875 47.75 41.5 
Q 54.890625 34.8125 54.890625 23.390625 
Q 54.890625 11.625 47.5625 5.09375 
Q 40.234375 -1.421875 26.90625 -1.421875 
Q 22.3125 -1.421875 17.546875 -0.640625 
Q 12.796875 0.140625 7.71875 1.703125 
L 7.71875 11.625 
Q 12.109375 9.234375 16.796875 8.0625 
Q 21.484375 6.890625 26.703125 6.890625 
Q 35.15625 6.890625 40.078125 11.328125 
Q 45.015625 15.765625 45.015625 23.390625 
Q 45.015625 31 40.078125 35.4375 
Q 35.15625 39.890625 26.703125 39.890625 
Q 22.75 39.890625 18.8125 39.015625 
Q 14.890625 38.140625 10.796875 36.28125 
z
" id="DejaVuSans-53"/>
     </defs>
     <g transform="translate(597.287656 204.619715)scale(0.1 -0.1)">
      <use xlink:href="#DejaVuSans-49"/>
      <use x="63.623047" xlink:href="#DejaVuSans-46"/>
      <use x="95.410156" xlink:href="#DejaVuSans-53"/>
     </g>
    </g>
   </g>
   <g id="text_75">
    <g clip-path="url(#p3bb1b4c992)">
     <!-- 1.6 -->
     <defs>
      <path d="M 33.015625 40.375 
Q 26.375 40.375 22.484375 35.828125 
Q 18.609375 31.296875 18.609375 23.390625 
Q 18.609375 15.53125 22.484375 10.953125 
Q 26.375 6.390625 33.015625 6.390625 
Q 39.65625 6.390625 43.53125 10.953125 
Q 47.40625 15.53125 47.40625 23.390625 
Q 47.40625 31.296875 43.53125 35.828125 
Q 39.65625 40.375 33.015625 40.375 
z
M 52.59375 71.296875 
L 52.59375 62.3125 
Q 48.875 64.0625 45.09375 64.984375 
Q 41.3125 65.921875 37.59375 65.921875 
Q 27.828125 65.921875 22.671875 59.328125 
Q 17.53125 52.734375 16.796875 39.40625 
Q 19.671875 43.65625 24.015625 45.921875 
Q 28.375 48.1875 33.59375 48.1875 
Q 44.578125 48.1875 50.953125 41.515625 
Q 57.328125 34.859375 57.328125 23.390625 
Q 57.328125 12.15625 50.6875 5.359375 
Q 44.046875 -1.421875 33.015625 -1.421875 
Q 20.359375 -1.421875 13.671875 8.265625 
Q 6.984375 17.96875 6.984375 36.375 
Q 6.984375 53.65625 15.1875 63.9375 
Q 23.390625 74.21875 37.203125 74.21875 
Q 40.921875 74.21875 44.703125 73.484375 
Q 48.484375 72.75 52.59375 71.296875 
z
" id="DejaVuSans-54"/>
     </defs>
     <g transform="translate(308.725136 289.333281)scale(0.1 -0.1)">
      <use xlink:href="#DejaVuSans-49"/>
      <use x="63.623047" xlink:href="#DejaVuSans-46"/>
      <use x="95.410156" xlink:href="#DejaVuSans-54"/>
     </g>
    </g>
   </g>
   <g id="text_76">
    <g clip-path="url(#p3bb1b4c992)">
     <!-- 1.7 -->
     <defs>
      <path d="M 8.203125 72.90625 
L 55.078125 72.90625 
L 55.078125 68.703125 
L 28.609375 0 
L 18.3125 0 
L 43.21875 64.59375 
L 8.203125 64.59375 
z
" id="DejaVuSans-55"/>
     </defs>
     <g transform="translate(827.258801 289.333281)scale(0.1 -0.1)">
      <use xlink:href="#DejaVuSans-49"/>
      <use x="63.623047" xlink:href="#DejaVuSans-46"/>
      <use x="95.410156" xlink:href="#DejaVuSans-55"/>
     </g>
    </g>
   </g>
   <g id="text_77">
    <g clip-path="url(#p3bb1b4c992)">
     <!-- 1.9 -->
     <defs>
      <path d="M 10.984375 1.515625 
L 10.984375 10.5 
Q 14.703125 8.734375 18.5 7.8125 
Q 22.3125 6.890625 25.984375 6.890625 
Q 35.75 6.890625 40.890625 13.453125 
Q 46.046875 20.015625 46.78125 33.40625 
Q 43.953125 29.203125 39.59375 26.953125 
Q 35.25 24.703125 29.984375 24.703125 
Q 19.046875 24.703125 12.671875 31.3125 
Q 6.296875 37.9375 6.296875 49.421875 
Q 6.296875 60.640625 12.9375 67.421875 
Q 19.578125 74.21875 30.609375 74.21875 
Q 43.265625 74.21875 49.921875 64.515625 
Q 56.59375 54.828125 56.59375 36.375 
Q 56.59375 19.140625 48.40625 8.859375 
Q 40.234375 -1.421875 26.421875 -1.421875 
Q 22.703125 -1.421875 18.890625 -0.6875 
Q 15.09375 0.046875 10.984375 1.515625 
z
M 30.609375 32.421875 
Q 37.25 32.421875 41.125 36.953125 
Q 45.015625 41.5 45.015625 49.421875 
Q 45.015625 57.28125 41.125 61.84375 
Q 37.25 66.40625 30.609375 66.40625 
Q 23.96875 66.40625 20.09375 61.84375 
Q 16.21875 57.28125 16.21875 49.421875 
Q 16.21875 41.5 20.09375 36.953125 
Q 23.96875 32.421875 30.609375 32.421875 
z
" id="DejaVuSans-57"/>
     </defs>
     <g transform="translate(721.794327 372.44644)scale(0.1 -0.1)">
      <use xlink:href="#DejaVuSans-49"/>
      <use x="63.623047" xlink:href="#DejaVuSans-46"/>
      <use x="95.410156" xlink:href="#DejaVuSans-57"/>
     </g>
    </g>
   </g>
   <g id="text_78">
    <g clip-path="url(#p3bb1b4c992)">
     <!-- 1.10 -->
     <g transform="translate(784.528373 454.419267)scale(0.1 -0.1)">
      <use xlink:href="#DejaVuSans-49"/>
      <use x="63.623047" xlink:href="#DejaVuSans-46"/>
      <use x="95.410156" xlink:href="#DejaVuSans-49"/>
      <use x="159.033203" xlink:href="#DejaVuSans-48"/>
     </g>
    </g>
   </g>
   <g id="text_79">
    <g clip-path="url(#p3bb1b4c992)">
     <!-- 1.11 -->
     <g transform="translate(828.471904 454.419267)scale(0.1 -0.1)">
      <use xlink:href="#DejaVuSans-49"/>
      <use x="63.623047" xlink:href="#DejaVuSans-46"/>
      <use x="95.410156" xlink:href="#DejaVuSans-49"/>
      <use x="159.033203" xlink:href="#DejaVuSans-49"/>
     </g>
    </g>
   </g>
   <g id="text_80">
    <g clip-path="url(#p3bb1b4c992)">
     <!-- 1.12 -->
     <g transform="translate(872.415435 454.419267)scale(0.1 -0.1)">
      <use xlink:href="#DejaVuSans-49"/>
      <use x="63.623047" xlink:href="#DejaVuSans-46"/>
      <use x="95.410156" xlink:href="#DejaVuSans-49"/>
      <use x="159.033203" xlink:href="#DejaVuSans-50"/>
     </g>
    </g>
   </g>
   <g id="text_81">
    <g clip-path="url(#p3bb1b4c992)">
     <!-- 1.14 -->
     <defs>
      <path d="M 37.796875 64.3125 
L 12.890625 25.390625 
L 37.796875 25.390625 
z
M 35.203125 72.90625 
L 47.609375 72.90625 
L 47.609375 25.390625 
L 58.015625 25.390625 
L 58.015625 17.1875 
L 47.609375 17.1875 
L 47.609375 0 
L 37.796875 0 
L 37.796875 17.1875 
L 4.890625 17.1875 
L 4.890625 26.703125 
z
" id="DejaVuSans-52"/>
     </defs>
     <g transform="translate(696.641311 454.419267)scale(0.1 -0.1)">
      <use xlink:href="#DejaVuSans-49"/>
      <use x="63.623047" xlink:href="#DejaVuSans-46"/>
      <use x="95.410156" xlink:href="#DejaVuSans-49"/>
      <use x="159.033203" xlink:href="#DejaVuSans-52"/>
     </g>
    </g>
   </g>
   <g id="text_82">
    <g clip-path="url(#p3bb1b4c992)">
     <!-- 1.15 -->
     <g transform="translate(740.584842 454.419267)scale(0.1 -0.1)">
      <use xlink:href="#DejaVuSans-49"/>
      <use x="63.623047" xlink:href="#DejaVuSans-46"/>
      <use x="95.410156" xlink:href="#DejaVuSans-49"/>
      <use x="159.033203" xlink:href="#DejaVuSans-53"/>
     </g>
    </g>
   </g>
   <g id="text_83">
    <g clip-path="url(#p3bb1b4c992)">
     <!-- 1.16 -->
     <g transform="translate(37.488347 454.419267)scale(0.1 -0.1)">
      <use xlink:href="#DejaVuSans-49"/>
      <use x="63.623047" xlink:href="#DejaVuSans-46"/>
      <use x="95.410156" xlink:href="#DejaVuSans-49"/>
      <use x="159.033203" xlink:href="#DejaVuSans-54"/>
     </g>
    </g>
   </g>
   <g id="text_84">
    <g clip-path="url(#p3bb1b4c992)">
     <!-- 1.17 -->
     <g transform="translate(169.31894 454.419267)scale(0.1 -0.1)">
      <use xlink:href="#DejaVuSans-49"/>
      <use x="63.623047" xlink:href="#DejaVuSans-46"/>
      <use x="95.410156" xlink:href="#DejaVuSans-49"/>
      <use x="159.033203" xlink:href="#DejaVuSans-55"/>
     </g>
    </g>
   </g>
   <g id="text_85">
    <g clip-path="url(#p3bb1b4c992)">
     <!-- 1.18 -->
     <defs>
      <path d="M 31.78125 34.625 
Q 24.75 34.625 20.71875 30.859375 
Q 16.703125 27.09375 16.703125 20.515625 
Q 16.703125 13.921875 20.71875 10.15625 
Q 24.75 6.390625 31.78125 6.390625 
Q 38.8125 6.390625 42.859375 10.171875 
Q 46.921875 13.96875 46.921875 20.515625 
Q 46.921875 27.09375 42.890625 30.859375 
Q 38.875 34.625 31.78125 34.625 
z
M 21.921875 38.8125 
Q 15.578125 40.375 12.03125 44.71875 
Q 8.5 49.078125 8.5 55.328125 
Q 8.5 64.0625 14.71875 69.140625 
Q 20.953125 74.21875 31.78125 74.21875 
Q 42.671875 74.21875 48.875 69.140625 
Q 55.078125 64.0625 55.078125 55.328125 
Q 55.078125 49.078125 51.53125 44.71875 
Q 48 40.375 41.703125 38.8125 
Q 48.828125 37.15625 52.796875 32.3125 
Q 56.78125 27.484375 56.78125 20.515625 
Q 56.78125 9.90625 50.3125 4.234375 
Q 43.84375 -1.421875 31.78125 -1.421875 
Q 19.734375 -1.421875 13.25 4.234375 
Q 6.78125 9.90625 6.78125 20.515625 
Q 6.78125 27.484375 10.78125 32.3125 
Q 14.796875 37.15625 21.921875 38.8125 
z
M 18.3125 54.390625 
Q 18.3125 48.734375 21.84375 45.5625 
Q 25.390625 42.390625 31.78125 42.390625 
Q 38.140625 42.390625 41.71875 45.5625 
Q 45.3125 48.734375 45.3125 54.390625 
Q 45.3125 60.0625 41.71875 63.234375 
Q 38.140625 66.40625 31.78125 66.40625 
Q 25.390625 66.40625 21.84375 63.234375 
Q 18.3125 60.0625 18.3125 54.390625 
z
" id="DejaVuSans-56"/>
     </defs>
     <g transform="translate(301.149533 454.419267)scale(0.1 -0.1)">
      <use xlink:href="#DejaVuSans-49"/>
      <use x="63.623047" xlink:href="#DejaVuSans-46"/>
      <use x="95.410156" xlink:href="#DejaVuSans-49"/>
      <use x="159.033203" xlink:href="#DejaVuSans-56"/>
     </g>
    </g>
   </g>
   <g id="text_86">
    <g clip-path="url(#p3bb1b4c992)">
     <!-- 1.19 -->
     <g transform="translate(345.093064 454.419267)scale(0.1 -0.1)">
      <use xlink:href="#DejaVuSans-49"/>
      <use x="63.623047" xlink:href="#DejaVuSans-46"/>
      <use x="95.410156" xlink:href="#DejaVuSans-49"/>
      <use x="159.033203" xlink:href="#DejaVuSans-57"/>
     </g>
    </g>
   </g>
   <g id="text_87">
    <g clip-path="url(#p3bb1b4c992)">
     <!-- 1.20 -->
     <g transform="translate(389.036595 454.419267)scale(0.1 -0.1)">
      <use xlink:href="#DejaVuSans-49"/>
      <use x="63.623047" xlink:href="#DejaVuSans-46"/>
      <use x="95.410156" xlink:href="#DejaVuSans-50"/>
      <use x="159.033203" xlink:href="#DejaVuSans-48"/>
     </g>
    </g>
   </g>
   <g id="text_88">
    <g clip-path="url(#p3bb1b4c992)">
     <!-- 1.21 -->
     <g transform="translate(432.980126 454.419267)scale(0.1 -0.1)">
      <use xlink:href="#DejaVuSans-49"/>
      <use x="63.623047" xlink:href="#DejaVuSans-46"/>
      <use x="95.410156" xlink:href="#DejaVuSans-50"/>
      <use x="159.033203" xlink:href="#DejaVuSans-49"/>
     </g>
    </g>
   </g>
   <g id="text_89">
    <g clip-path="url(#p3bb1b4c992)">
     <!-- 1.22 -->
     <g transform="translate(476.923657 454.419267)scale(0.1 -0.1)">
      <use xlink:href="#DejaVuSans-49"/>
      <use x="63.623047" xlink:href="#DejaVuSans-46"/>
      <use x="95.410156" xlink:href="#DejaVuSans-50"/>
      <use x="159.033203" xlink:href="#DejaVuSans-50"/>
     </g>
    </g>
   </g>
   <g id="text_90">
    <g clip-path="url(#p3bb1b4c992)">
     <!-- 1.23 -->
     <defs>
      <path d="M 40.578125 39.3125 
Q 47.65625 37.796875 51.625 33 
Q 55.609375 28.21875 55.609375 21.1875 
Q 55.609375 10.40625 48.1875 4.484375 
Q 40.765625 -1.421875 27.09375 -1.421875 
Q 22.515625 -1.421875 17.65625 -0.515625 
Q 12.796875 0.390625 7.625 2.203125 
L 7.625 11.71875 
Q 11.71875 9.328125 16.59375 8.109375 
Q 21.484375 6.890625 26.8125 6.890625 
Q 36.078125 6.890625 40.9375 10.546875 
Q 45.796875 14.203125 45.796875 21.1875 
Q 45.796875 27.640625 41.28125 31.265625 
Q 36.765625 34.90625 28.71875 34.90625 
L 20.21875 34.90625 
L 20.21875 43.015625 
L 29.109375 43.015625 
Q 36.375 43.015625 40.234375 45.921875 
Q 44.09375 48.828125 44.09375 54.296875 
Q 44.09375 59.90625 40.109375 62.90625 
Q 36.140625 65.921875 28.71875 65.921875 
Q 24.65625 65.921875 20.015625 65.03125 
Q 15.375 64.15625 9.8125 62.3125 
L 9.8125 71.09375 
Q 15.4375 72.65625 20.34375 73.4375 
Q 25.25 74.21875 29.59375 74.21875 
Q 40.828125 74.21875 47.359375 69.109375 
Q 53.90625 64.015625 53.90625 55.328125 
Q 53.90625 49.265625 50.4375 45.09375 
Q 46.96875 40.921875 40.578125 39.3125 
z
" id="DejaVuSans-51"/>
     </defs>
     <g transform="translate(564.810718 372.44644)scale(0.1 -0.1)">
      <use xlink:href="#DejaVuSans-49"/>
      <use x="63.623047" xlink:href="#DejaVuSans-46"/>
      <use x="95.410156" xlink:href="#DejaVuSans-50"/>
      <use x="159.033203" xlink:href="#DejaVuSans-51"/>
     </g>
    </g>
   </g>
   <g id="text_91">
    <g clip-path="url(#p3bb1b4c992)">
     <!-- 1.25 -->
     <g transform="translate(81.431878 454.419267)scale(0.1 -0.1)">
      <use xlink:href="#DejaVuSans-49"/>
      <use x="63.623047" xlink:href="#DejaVuSans-46"/>
      <use x="95.410156" xlink:href="#DejaVuSans-50"/>
      <use x="159.033203" xlink:href="#DejaVuSans-53"/>
     </g>
    </g>
   </g>
   <g id="text_92">
    <g clip-path="url(#p3bb1b4c992)">
     <!-- 1.26 -->
     <g transform="translate(520.867188 454.419267)scale(0.1 -0.1)">
      <use xlink:href="#DejaVuSans-49"/>
      <use x="63.623047" xlink:href="#DejaVuSans-46"/>
      <use x="95.410156" xlink:href="#DejaVuSans-50"/>
      <use x="159.033203" xlink:href="#DejaVuSans-54"/>
     </g>
    </g>
   </g>
   <g id="text_93">
    <g clip-path="url(#p3bb1b4c992)">
     <!-- 1.27 -->
     <g transform="translate(564.810718 454.419267)scale(0.1 -0.1)">
      <use xlink:href="#DejaVuSans-49"/>
      <use x="63.623047" xlink:href="#DejaVuSans-46"/>
      <use x="95.410156" xlink:href="#DejaVuSans-50"/>
      <use x="159.033203" xlink:href="#DejaVuSans-55"/>
     </g>
    </g>
   </g>
   <g id="text_94">
    <g clip-path="url(#p3bb1b4c992)">
     <!-- 1.28 -->
     <g transform="translate(608.754249 454.419267)scale(0.1 -0.1)">
      <use xlink:href="#DejaVuSans-49"/>
      <use x="63.623047" xlink:href="#DejaVuSans-46"/>
      <use x="95.410156" xlink:href="#DejaVuSans-50"/>
      <use x="159.033203" xlink:href="#DejaVuSans-56"/>
     </g>
    </g>
   </g>
   <g id="text_95">
    <g clip-path="url(#p3bb1b4c992)">
     <!-- 1.29 -->
     <g transform="translate(257.206002 454.419267)scale(0.1 -0.1)">
      <use xlink:href="#DejaVuSans-49"/>
      <use x="63.623047" xlink:href="#DejaVuSans-46"/>
      <use x="95.410156" xlink:href="#DejaVuSans-50"/>
      <use x="159.033203" xlink:href="#DejaVuSans-57"/>
     </g>
    </g>
   </g>
   <g id="text_96">
    <g clip-path="url(#p3bb1b4c992)">
     <!-- 1.30 -->
     <g transform="translate(652.69778 454.419267)scale(0.1 -0.1)">
      <use xlink:href="#DejaVuSans-49"/>
      <use x="63.623047" xlink:href="#DejaVuSans-46"/>
      <use x="95.410156" xlink:href="#DejaVuSans-51"/>
      <use x="159.033203" xlink:href="#DejaVuSans-48"/>
     </g>
    </g>
   </g>
   <g id="text_97">
    <g clip-path="url(#p3bb1b4c992)">
     <!-- 1.31 -->
     <g transform="translate(916.358966 454.419267)scale(0.1 -0.1)">
      <use xlink:href="#DejaVuSans-49"/>
      <use x="63.623047" xlink:href="#DejaVuSans-46"/>
      <use x="95.410156" xlink:href="#DejaVuSans-51"/>
      <use x="159.033203" xlink:href="#DejaVuSans-49"/>
     </g>
    </g>
   </g>
  </g>
 </g>
 <defs>
  <clipPath id="p3bb1b4c992">
   <rect height="560" width="1064" x="0" y="0"/>
  </clipPath>
 </defs>
</svg>
