<?xml version="1.0" encoding="UTF-8"?>
<!DOCTYPE svg  PUBLIC '-//W3C//DTD SVG 1.1//EN'  'http://www.w3.org/Graphics/SVG/1.1/DTD/svg11.dtd'>
<svg width="1317.3pt" height="693.33pt" version="1.1" viewBox="0 0 1317.3 693.33" xmlns="http://www.w3.org/2000/svg" xmlns:xlink="http://www.w3.org/1999/xlink">
<defs>
<style type="text/css">*{stroke-linecap:butt;stroke-linejoin:round;}</style>
</defs>
<path d="m0 693.33h1317.3v-693.33h-1317.3z" fill="#fff"/>
<g fill="none" stroke="#000">
<path d="m429.57 31.515-332.36 127.18" clip-path="url(#a)"/>
<path d="m429.57 31.515 3.9539 506.26" clip-path="url(#a)"/>
<path d="m429.57 31.515 372.35 127.18" clip-path="url(#a)"/>
<path d="m429.57 31.515-43.949 506.26" clip-path="url(#a)"/>
<path d="m97.213 158.7-37.334 379.07" clip-path="url(#a)"/>
<path d="m97.213 158.7-27.753 379.07" clip-path="url(#a)"/>
<path d="m97.213 158.7-14.979 379.07" clip-path="url(#a)"/>
<path d="m97.213 158.7 80.066 126.86" clip-path="url(#a)"/>
<path d="m433.52 537.77v124.05" clip-path="url(#a)"/>
<path d="m801.92 158.7-275.78 126.86" clip-path="url(#a)"/>
<path d="m801.92 158.7-80.979 379.07" clip-path="url(#a)"/>
<path d="m801.92 158.7-13.915 379.07" clip-path="url(#a)"/>
<path d="m801.92 158.7 56.343 379.07" clip-path="url(#a)"/>
<path d="m801.92 158.7 129.79 379.07" clip-path="url(#a)"/>
<path d="m801.92 158.7 329.39 253.3" clip-path="url(#a)"/>
<path d="m801.92 158.7-144.85 379.07" clip-path="url(#a)"/>
<path d="m526.13 285.56-41.516 252.21" clip-path="url(#a)"/>
<path d="m526.13 285.56 41.516 126.43" clip-path="url(#a)"/>
<path d="m720.94 537.77v124.05" clip-path="url(#a)"/>
<path d="m788 537.77v124.05" clip-path="url(#a)"/>
<path d="m858.26 537.77v124.05" clip-path="url(#a)"/>
<path d="m931.71 537.77v124.05" clip-path="url(#a)"/>
<path d="m1131.3 412-122.95 125.77" clip-path="url(#a)"/>
<path d="m1131.3 412-43.113 125.77" clip-path="url(#a)"/>
<path d="m1131.3 412 39.919 125.77" clip-path="url(#a)"/>
<path d="m1131.3 412 126.14 125.77" clip-path="url(#a)"/>
<path d="m1008.4 537.77v124.05" clip-path="url(#a)"/>
<path d="m1088.2 537.77v124.05" clip-path="url(#a)"/>
<path d="m1171.2 537.77v124.05" clip-path="url(#a)"/>
<path d="m484.62 537.77v124.05" clip-path="url(#a)"/>
<path d="m567.65 412-28.742 125.77" clip-path="url(#a)"/>
<path d="m567.65 412 28.742 125.77" clip-path="url(#a)"/>
<path d="m538.91 537.77v124.05" clip-path="url(#a)"/>
<path d="m596.39 537.77v124.05" clip-path="url(#a)"/>
<path d="m59.879 537.77v124.05" clip-path="url(#a)"/>
<path d="m69.459 537.77v124.05" clip-path="url(#a)"/>
<path d="m82.234 537.77v124.05" clip-path="url(#a)"/>
<path d="m177.28 285.56-79.078 252.21" clip-path="url(#a)"/>
<path d="m177.28 285.56-59.917 252.21" clip-path="url(#a)"/>
<path d="m177.28 285.56-37.562 252.21" clip-path="url(#a)"/>
<path d="m177.28 285.56-12.014 252.21" clip-path="url(#a)"/>
<path d="m177.28 285.56 16.728 252.21" clip-path="url(#a)"/>
<path d="m177.28 285.56 48.663 252.21" clip-path="url(#a)"/>
<path d="m177.28 285.56 123.18 126.43" clip-path="url(#a)"/>
<path d="m98.201 537.77v124.05" clip-path="url(#a)"/>
<path d="m117.36 537.77v124.05" clip-path="url(#a)"/>
<path d="m139.72 537.77v124.05" clip-path="url(#a)"/>
<path d="m165.27 537.77v124.05" clip-path="url(#a)"/>
<path d="m194.01 537.77v124.05" clip-path="url(#a)"/>
<path d="m225.94 537.77v124.05" clip-path="url(#a)"/>
<path d="m300.46 412-39.387 125.77" clip-path="url(#a)"/>
<path d="m300.46 412-1.0645 125.77" clip-path="url(#a)"/>
<path d="m300.46 412 40.451 125.77" clip-path="url(#a)"/>
<path d="m261.07 537.77v124.05" clip-path="url(#a)"/>
<path d="m299.39 537.77v124.05" clip-path="url(#a)"/>
<path d="m340.91 537.77v124.05" clip-path="url(#a)"/>
<path d="m444.22 31.515-347.01 127.18" clip-path="url(#a)"/>
<path d="m444.22 31.515-10.696 506.26" clip-path="url(#a)"/>
<path d="m444.22 31.515 357.7 127.18" clip-path="url(#a)"/>
<path d="m385.62 537.77v124.05" clip-path="url(#a)"/>
<path d="m657.07 537.77v124.05" clip-path="url(#a)"/>
<path d="m1257.5 537.77v124.05" clip-path="url(#a)"/>
</g>
<path d="m262.82 102.04 5.6189-2.1502q2.2415-0.85776 1.3837-3.0992l-2.7672-7.2311q-0.85776-2.2415-3.0992-1.3837l-5.6189 2.1502q-2.2415 0.85776-1.3837 3.0992l2.7672 7.2311q0.85776 2.2415 3.0992 1.3837z" clip-path="url(#a)" fill="#fff" stroke="#fff"/>
<g clip-path="url(#a)">
<defs>
<path id="aj" d="m9.8125 72.906h9.8594v-29.891h35.844v29.891h9.8594v-72.906h-9.8594v34.719h-35.844v-34.719h-9.8594z"/>
</defs>
<g transform="translate(261.37 98.244) rotate(-20.941) scale(.08 -.08)">
<use xlink:href="#aj"/>
</g>
</g>
<path d="m425.26 282.46 0.034812 4.4574q0.018744 2.3999 2.4187 2.3812l7.7423-0.060468q2.3999-0.018743 2.3812-2.4187l-0.034813-4.4574q-0.018743-2.3999-2.4187-2.3812l-7.7423 0.060468q-2.3999 0.018743-2.3812 2.4187z" clip-path="url(#a)" fill="#fff" stroke="#fff"/>
<g clip-path="url(#a)">
<defs>
<path id="v" d="m9.8125 72.906h9.8594v-64.609h35.5v-8.2969h-45.359z"/>
</defs>
<g transform="translate(429.32 282.43) rotate(89.553) scale(.08 -.08)">
<use xlink:href="#v"/>
</g>
</g>
<path d="m610.87 100.07 5.6933 1.9447q2.2712 0.77576 3.0469-1.4954l2.5027-7.3269q0.77577-2.2712-1.4954-3.0469l-5.6933-1.9447q-2.2712-0.77576-3.0469 1.4954l-2.5027 7.3269q-0.77576 2.2712 1.4954 3.0469z" clip-path="url(#a)" fill="#fff" stroke="#fff"/>
<g clip-path="url(#a)">
<g transform="translate(612.18 96.224) rotate(18.859) scale(.08 -.08)">
<use xlink:href="#aj"/>
</g>
</g>
<path d="m413.59 288.1 0.50638-5.8331q0.20757-2.391-2.1834-2.5986l-7.7135-0.66962q-2.391-0.20757-2.5986 2.1834l-0.50638 5.8331q-0.20757 2.391 2.1834 2.5986l7.7135 0.66962q2.391 0.20757 2.5986-2.1834z" clip-path="url(#a)" fill="#fff" stroke="#fff"/>
<g clip-path="url(#a)">
<defs>
<path id="ac" d="m8.6875 72.906h9.9219v-44.297q0-11.719 4.2344-16.875 4.25-5.1406 13.781-5.1406 9.4688 0 13.719 5.1406 4.25 5.1562 4.25 16.875v44.297h9.9062v-45.516q0-14.25-7.0625-21.531-7.0469-7.2812-20.812-7.2812-13.828 0-20.891 7.2812-7.0469 7.2812-7.0469 21.531z"/>
</defs>
<g transform="translate(409.54 287.75) rotate(-85.038) scale(.08 -.08)">
<use xlink:href="#ac"/>
</g>
</g>
<path d="m84.519 351.57 0.53638-5.4462q0.23523-2.3884-2.1532-2.6237l-7.7052-0.75887q-2.3884-0.23523-2.6237 2.1532l-0.53638 5.4462q-0.23523 2.3884 2.1532 2.6237l7.7052 0.75887q2.3884 0.23523 2.6237-2.1532z" clip-path="url(#a)" fill="#fff" stroke="#fff"/>
<g clip-path="url(#a)">
<defs>
<path id="p" d="m34.188 63.188-13.391-36.281h26.812zm-5.5781 9.7188h11.188l27.781-72.906h-10.25l-6.6406 18.703h-32.859l-6.6406-18.703h-10.406z"/>
</defs>
<g transform="translate(80.474 351.17) rotate(-84.375) scale(.08 -.08)">
<use xlink:href="#p"/>
</g>
</g>
<path d="m89.366 351.76 0.4498-6.1436q0.17524-2.3936-2.2183-2.5688l-7.7218-0.56535q-2.3936-0.17524-2.5688 2.2183l-0.4498 6.1436q-0.17524 2.3936 2.2183 2.5688l7.7218 0.56535q2.3936 0.17524 2.5688-2.2183z" clip-path="url(#a)" fill="#fff" stroke="#fff"/>
<g clip-path="url(#a)">
<defs>
<path id="t" d="m19.672 64.797v-56.688h11.922q15.094 0 22.094 6.8281 7 6.8438 7 21.594 0 14.641-7 21.453t-22.094 6.8125zm-9.8594 8.1094h20.266q21.188 0 31.094-8.8125 9.9219-8.8125 9.9219-27.562 0-18.859-9.9688-27.703-9.9531-8.8281-31.047-8.8281h-20.266z"/>
</defs>
<g transform="translate(85.313 351.47) rotate(-85.813) scale(.08 -.08)">
<use xlink:href="#t"/>
</g>
</g>
<path d="m95.894 350.89 0.19046-4.82q0.094764-2.3981-2.3034-2.4929l-7.7365-0.30571q-2.3981-0.094763-2.4929 2.3034l-0.19046 4.82q-0.094763 2.3981 2.3034 2.4929l7.7365 0.30571q2.3981 0.094763 2.4929-2.3034z" clip-path="url(#a)" fill="#fff" stroke="#fff"/>
<g clip-path="url(#a)">
<defs>
<path id="ad" d="m19.672 64.797v-27.391h12.406q6.8906 0 10.641 3.5625 3.7656 3.5625 3.7656 10.156 0 6.5469-3.7656 10.109-3.75 3.5625-10.641 3.5625zm-9.8594 8.1094h22.266q12.266 0 18.531-5.5469 6.2812-5.5469 6.2812-16.234 0-10.797-6.2812-16.312-6.2656-5.5156-18.531-5.5156h-12.406v-29.297h-9.8594z"/>
</defs>
<g transform="translate(91.834 350.73) rotate(-87.737) scale(.08 -.08)">
<use xlink:href="#ad"/>
</g>
</g>
<path d="m130.48 223.16 2.9208 4.6279q1.2809 2.0296 3.3105 0.74867l6.5475-4.1323q2.0296-1.2809 0.74867-3.3105l-2.9208-4.6279q-1.2809-2.0296-3.3105-0.74867l-6.5475 4.1323q-2.0296 1.2809-0.74867 3.3105z" clip-path="url(#a)" fill="#fff" stroke="#fff"/>
<g clip-path="url(#a)">
<g transform="translate(133.92 221) rotate(57.743) scale(.08 -.08)">
<use xlink:href="#p"/>
</g>
</g>
<path d="m427.25 582.89v33.808q0 2.4 2.4 2.4h7.7425q2.4 0 2.4-2.4v-33.808q0-2.4-2.4-2.4h-7.7425q-2.4 0-2.4 2.4z" clip-path="url(#a)" fill="#fff" stroke="#fff"/>
<g clip-path="url(#a)">
<defs>
<path id="l" d="m-0.29688 72.906h61.672v-8.3125h-25.875v-64.594h-9.9062v64.594h-25.891z"/>
<path id="e" d="m56.203 29.594v-4.3906h-41.312q0.59375-9.2812 5.5938-14.141t13.938-4.8594q5.1719 0 10.031 1.2656t9.6562 3.8125v-8.5q-4.8438-2.0469-9.9219-3.125t-10.297-1.0781q-13.094 0-20.734 7.6094-7.6406 7.625-7.6406 20.625 0 13.422 7.25 21.297 7.25 7.8906 19.562 7.8906 11.031 0 17.453-7.1094 6.4219-7.0938 6.4219-19.297zm-8.9844 2.6406q-0.09375 7.3594-4.125 11.75-4.0312 4.4062-10.672 4.4062-7.5156 0-12.031-4.25t-5.2031-11.969z"/>
<path id="j" d="m41.109 46.297q-1.5156 0.875-3.2969 1.2812-1.7812 0.42188-3.9219 0.42188-7.625 0-11.703-4.9531t-4.0781-14.234v-28.812h-9.0312v54.688h9.0312v-8.5q2.8438 4.9844 7.375 7.3906 4.5469 2.4219 11.047 2.4219 0.92188 0 2.0469-0.125 1.125-0.10938 2.4844-0.35938z"/>
<path id="k" d="m52 44.188q3.375 6.0625 8.0625 8.9375t11.031 2.875q8.5469 0 13.188-5.9844 4.6406-5.9688 4.6406-17v-33.016h-9.0312v32.719q0 7.8594-2.7969 11.656-2.7812 3.8125-8.4844 3.8125-6.9844 0-11.047-4.6406-4.0469-4.625-4.0469-12.641v-30.906h-9.0312v32.719q0 7.9062-2.7812 11.688t-8.5938 3.7812q-6.8906 0-10.953-4.6562-4.0469-4.6562-4.0469-12.625v-30.906h-9.0312v54.688h9.0312v-8.5q3.0781 5.0312 7.375 7.4219t10.203 2.3906q5.9688 0 10.141-3.0312 4.1719-3.0156 6.1719-8.7812z"/>
<path id="h" d="m9.4219 54.688h8.9844v-54.688h-8.9844zm0 21.297h8.9844v-11.391h-8.9844z"/>
<path id="d" d="m54.891 33.016v-33.016h-8.9844v32.719q0 7.7656-3.0312 11.609-3.0312 3.8594-9.0781 3.8594-7.2812 0-11.484-4.6406-4.2031-4.625-4.2031-12.641v-30.906h-9.0312v54.688h9.0312v-8.5q3.2344 4.9375 7.5938 7.375 4.375 2.4375 10.094 2.4375 9.4219 0 14.25-5.8281 4.8438-5.8281 4.8438-17.156z"/>
<path id="g" d="m34.281 27.484q-10.891 0-15.094-2.4844t-4.2031-8.5q0-4.7812 3.1562-7.5938 3.1562-2.7969 8.5625-2.7969 7.4844 0 12 5.2969t4.5156 14.078v2zm17.922 3.7188v-31.203h-8.9844v8.2969q-3.0781-4.9688-7.6719-7.3438t-11.234-2.375q-8.3906 0-13.359 4.7188-4.9531 4.7188-4.9531 12.625 0 9.2188 6.1719 13.906 6.1875 4.6875 18.438 4.6875h12.609v0.89062q0 6.2031-4.0781 9.5938t-11.453 3.3906q-4.6875 0-9.1406-1.125-4.4375-1.125-8.5312-3.375v8.3125q4.9219 1.9062 9.5625 2.8438 4.6406 0.95312 9.0312 0.95312 11.875 0 17.734-6.1562 5.8594-6.1406 5.8594-18.641z"/>
<path id="i" d="m9.4219 75.984h8.9844v-75.984h-8.9844z"/>
</defs>
<g transform="translate(431.31 582.89) rotate(90) scale(.08 -.08)">
<use xlink:href="#l"/>
<use x="44.083984" xlink:href="#e"/>
<use x="105.607422" xlink:href="#j"/>
<use x="144.970703" xlink:href="#k"/>
<use x="242.382812" xlink:href="#h"/>
<use x="270.166016" xlink:href="#d"/>
<use x="333.544922" xlink:href="#g"/>
<use x="394.824219" xlink:href="#i"/>
</g>
</g>
<path d="m663.85 229.12 5.5963-2.5743q2.1804-1.003 1.1774-3.1834l-3.2357-7.034q-1.003-2.1804-3.1834-1.1774l-5.5963 2.5743q-2.1804 1.003-1.1774 3.1834l3.2357 7.034q1.003 2.1804 3.1834 1.1774z" clip-path="url(#a)" fill="#fff" stroke="#fff"/>
<g clip-path="url(#a)">
<g transform="translate(662.15 225.42) rotate(-24.703) scale(.08 -.08)">
<use xlink:href="#t"/>
</g>
</g>
<path d="m766.99 352.22 1.1433-5.3517q0.50139-2.347-1.8457-2.8484l-7.5717-1.6175q-2.347-0.50139-2.8484 1.8457l-1.1433 5.3517q-0.50139 2.347 1.8457 2.8484l7.5717 1.6175q2.347 0.50139 2.8484-1.8457z" clip-path="url(#a)" fill="#fff" stroke="#fff"/>
<g clip-path="url(#a)">
<g transform="translate(763.02 351.37) rotate(-77.941) scale(.08 -.08)">
<use xlink:href="#p"/>
</g>
</g>
<path d="m801.14 350.76 0.16879-4.5982q0.088038-2.3984-2.3103-2.4864l-7.7373-0.28402q-2.3984-0.088038-2.4864 2.3103l-0.16879 4.5982q-0.088038 2.3984 2.3103 2.4864l7.7373 0.28402q2.3984 0.088038 2.4864-2.3103z" clip-path="url(#a)" fill="#fff" stroke="#fff"/>
<g clip-path="url(#a)">
<defs>
<path id="ak" d="m9.8125 72.906h41.891v-8.3125h-32.031v-21.484h28.906v-8.2969h-28.906v-34.812h-9.8594z"/>
</defs>
<g transform="translate(797.08 350.61) rotate(-87.898) scale(.08 -.08)">
<use xlink:href="#ak"/>
</g>
</g>
<path d="m823.44 346.11 0.90564 6.0931q0.35285 2.3739 2.7268 2.0211l7.6584-1.1383q2.3739-0.35285 2.0211-2.7268l-0.90564-6.0931q-0.35285-2.3739-2.7268-2.0211l-7.6584 1.1383q-2.3739 0.35285-2.0211 2.7268z" clip-path="url(#a)" fill="#fff" stroke="#fff"/>
<g clip-path="url(#a)">
<g transform="translate(827.45 345.51) rotate(81.546) scale(.08 -.08)">
<use xlink:href="#t"/>
</g>
</g>
<path d="m860.1 347.98 1.5626 4.5636q0.77745 2.2706 3.048 1.4931l7.325-2.5081q2.2706-0.77745 1.4931-3.048l-1.5626-4.5636q-0.77745-2.2706-3.048-1.4931l-7.325 2.5081q-2.2706 0.77745-1.4931 3.048z" clip-path="url(#a)" fill="#fff" stroke="#fff"/>
<g clip-path="url(#a)">
<g transform="translate(863.95 346.67) rotate(71.099) scale(.08 -.08)">
<use xlink:href="#ad"/>
</g>
</g>
<path d="m960.62 288.65 4.3381 3.336q1.9025 1.463 3.3655-0.43951l4.7197-6.1376q1.463-1.9025-0.43951-3.3655l-4.3381-3.336q-1.9025-1.463-3.3655 0.43951l-4.7197 6.1376q-1.463 1.9025 0.43951 3.3655z" clip-path="url(#a)" fill="#fff" stroke="#fff"/>
<g clip-path="url(#a)">
<g transform="translate(963.1 285.43) rotate(37.56) scale(.08 -.08)">
<use xlink:href="#p"/>
</g>
</g>
<path d="m734.31 353.21 2.0899-5.4693q0.85667-2.2419-1.3852-3.0986l-7.2325-2.7637q-2.2419-0.85667-3.0986 1.3852l-2.0899 5.4693q-0.85667 2.2419 1.3852 3.0986l7.2325 2.7637q2.2419 0.85667 3.0986-1.3852z" clip-path="url(#a)" fill="#fff" stroke="#fff"/>
<g clip-path="url(#a)">
<g transform="translate(730.51 351.76) rotate(-69.087) scale(.08 -.08)">
<use xlink:href="#ac"/>
</g>
</g>
<path d="m511.11 415.44 0.90735-5.5121q0.38982-2.3681-1.9783-2.7579l-7.6397-1.2576q-2.3681-0.38982-2.758 1.9783l-0.90735 5.5121q-0.38982 2.3681 1.9783 2.7579l7.6397 1.2576q2.3681 0.38982 2.7579-1.9783z" clip-path="url(#a)" fill="#fff" stroke="#fff"/>
<g clip-path="url(#a)">
<defs>
<path id="x" d="m64.406 67.281v-10.391q-4.9844 4.6406-10.625 6.9219-5.6406 2.2969-11.984 2.2969-12.5 0-19.141-7.6406t-6.6406-22.094q0-14.406 6.6406-22.047t19.141-7.6406q6.3438 0 11.984 2.2969t10.625 6.9375v-10.312q-5.1719-3.5156-10.969-5.2812-5.7812-1.75-12.219-1.75-16.562 0-26.094 10.125-9.5156 10.141-9.5156 27.672 0 17.578 9.5156 27.703 9.5312 10.141 26.094 10.141 6.5312 0 12.312-1.7344 5.7969-1.7344 10.875-5.2031z"/>
</defs>
<g transform="translate(507.1 414.78) rotate(-80.652) scale(.08 -.08)">
<use xlink:href="#x"/>
</g>
</g>
<path d="m540.15 348.34 1.577 4.8027q0.74874 2.2802 3.029 1.5315l7.3561-2.4155q2.2802-0.74874 1.5315-3.029l-1.577-4.8027q-0.74874-2.2802-3.029-1.5315l-7.3561 2.4155q-2.2802 0.74874-1.5315 3.029z" clip-path="url(#a)" fill="#fff" stroke="#fff"/>
<g clip-path="url(#a)">
<defs>
<path id="w" d="m9.8125 72.906h46.094v-8.3125h-36.234v-21.578h34.719v-8.2969h-34.719v-26.422h37.109v-8.2969h-46.969z"/>
</defs>
<g transform="translate(544.01 347.07) rotate(71.822) scale(.08 -.08)">
<use xlink:href="#w"/>
</g>
</g>
<path d="m714.67 582.89v33.808q0 2.4 2.4 2.4h7.7425q2.4 0 2.4-2.4v-33.808q0-2.4-2.4-2.4h-7.7425q-2.4 0-2.4 2.4z" clip-path="url(#a)" fill="#fff" stroke="#fff"/>
<g clip-path="url(#a)">
<g transform="translate(718.73 582.89) rotate(90) scale(.08 -.08)">
<use xlink:href="#l"/>
<use x="44.083984" xlink:href="#e"/>
<use x="105.607422" xlink:href="#j"/>
<use x="144.970703" xlink:href="#k"/>
<use x="242.382812" xlink:href="#h"/>
<use x="270.166016" xlink:href="#d"/>
<use x="333.544922" xlink:href="#g"/>
<use x="394.824219" xlink:href="#i"/>
</g>
</g>
<path d="m781.73 582.89v33.808q0 2.4 2.4 2.4h7.7425q2.4 0 2.4-2.4v-33.808q0-2.4-2.4-2.4h-7.7425q-2.4 0-2.4 2.4z" clip-path="url(#a)" fill="#fff" stroke="#fff"/>
<g clip-path="url(#a)">
<g transform="translate(785.8 582.89) rotate(90) scale(.08 -.08)">
<use xlink:href="#l"/>
<use x="44.083984" xlink:href="#e"/>
<use x="105.607422" xlink:href="#j"/>
<use x="144.970703" xlink:href="#k"/>
<use x="242.382812" xlink:href="#h"/>
<use x="270.166016" xlink:href="#d"/>
<use x="333.544922" xlink:href="#g"/>
<use x="394.824219" xlink:href="#i"/>
</g>
</g>
<path d="m851.99 582.89v33.808q0 2.4 2.4 2.4h7.7425q2.4 0 2.4-2.4v-33.808q0-2.4-2.4-2.4h-7.7425q-2.4 0-2.4 2.4z" clip-path="url(#a)" fill="#fff" stroke="#fff"/>
<g clip-path="url(#a)">
<g transform="translate(856.06 582.89) rotate(90) scale(.08 -.08)">
<use xlink:href="#l"/>
<use x="44.083984" xlink:href="#e"/>
<use x="105.607422" xlink:href="#j"/>
<use x="144.970703" xlink:href="#k"/>
<use x="242.382812" xlink:href="#h"/>
<use x="270.166016" xlink:href="#d"/>
<use x="333.544922" xlink:href="#g"/>
<use x="394.824219" xlink:href="#i"/>
</g>
</g>
<path d="m925.44 582.89v33.808q0 2.4 2.4 2.4h7.7425q2.4 0 2.4-2.4v-33.808q0-2.4-2.4-2.4h-7.7425q-2.4 0-2.4 2.4z" clip-path="url(#a)" fill="#fff" stroke="#fff"/>
<g clip-path="url(#a)">
<g transform="translate(929.51 582.89) rotate(90) scale(.08 -.08)">
<use xlink:href="#l"/>
<use x="44.083984" xlink:href="#e"/>
<use x="105.607422" xlink:href="#j"/>
<use x="144.970703" xlink:href="#k"/>
<use x="242.382812" xlink:href="#h"/>
<use x="270.166016" xlink:href="#d"/>
<use x="333.544922" xlink:href="#g"/>
<use x="394.824219" xlink:href="#i"/>
</g>
</g>
<path d="m1072.6 481.07 3.5336-3.6148q1.6777-1.7162-0.038513-3.3939l-5.5365-5.4123q-1.7162-1.6777-3.3939 0.038514l-3.5336 3.6148q-1.6777 1.7162 0.038513 3.3939l5.5365 5.4123q1.7162 1.6777 3.3939-0.038514z" clip-path="url(#a)" fill="#fff" stroke="#fff"/>
<g clip-path="url(#a)">
<g transform="translate(1069.6 478.23) rotate(-45.65) scale(.08 -.08)">
<use xlink:href="#w"/>
</g>
</g>
<path d="m1114.9 479.31 1.6391-4.7819q0.77822-2.2703-1.4921-3.0485l-7.3242-2.5106q-2.2703-0.77822-3.0485 1.4921l-1.6391 4.7819q-0.77822 2.2703 1.4921 3.0485l7.3242 2.5106q2.2703 0.77822 3.0485-1.4921z" clip-path="url(#a)" fill="#fff" stroke="#fff"/>
<g clip-path="url(#a)">
<g transform="translate(1111 477.99) rotate(-71.079) scale(.08 -.08)">
<use xlink:href="#w"/>
</g>
</g>
<path d="m1144.4 474.12 1.6899 5.3245q0.72604 2.2875 3.0136 1.5615l7.3797-2.3422q2.2875-0.72604 1.5615-3.0136l-1.6899-5.3245q-0.72604-2.2875-3.0136-1.5615l-7.3797 2.3422q-2.2875 0.72604-1.5615 3.0136z" clip-path="url(#a)" fill="#fff" stroke="#fff"/>
<g clip-path="url(#a)">
<g transform="translate(1148.3 472.89) rotate(72.391) scale(.08 -.08)">
<use xlink:href="#x"/>
</g>
</g>
<path d="m1187.9 477.26 4.1462 4.134q1.6996 1.6946 3.3941-0.004999l5.4667-5.4828q1.6946-1.6996-0.004999-3.3941l-4.1462-4.134q-1.6996-1.6946-3.3941 0.004999l-5.4667 5.4828q-1.6946 1.6996 0.004999 3.3941z" clip-path="url(#a)" fill="#fff" stroke="#fff"/>
<g clip-path="url(#a)">
<g transform="translate(1190.8 474.38) rotate(44.916) scale(.08 -.08)">
<use xlink:href="#ac"/>
</g>
</g>
<path d="m1002.1 582.89v33.808q0 2.4 2.4 2.4h7.7425q2.4 0 2.4-2.4v-33.808q0-2.4-2.4-2.4h-7.7425q-2.4 0-2.4 2.4z" clip-path="url(#a)" fill="#fff" stroke="#fff"/>
<g clip-path="url(#a)">
<g transform="translate(1006.2 582.89) rotate(90) scale(.08 -.08)">
<use xlink:href="#l"/>
<use x="44.083984" xlink:href="#e"/>
<use x="105.607422" xlink:href="#j"/>
<use x="144.970703" xlink:href="#k"/>
<use x="242.382812" xlink:href="#h"/>
<use x="270.166016" xlink:href="#d"/>
<use x="333.544922" xlink:href="#g"/>
<use x="394.824219" xlink:href="#i"/>
</g>
</g>
<path d="m1081.9 582.89v33.808q0 2.4 2.4 2.4h7.7425q2.4 0 2.4-2.4v-33.808q0-2.4-2.4-2.4h-7.7425q-2.4 0-2.4 2.4z" clip-path="url(#a)" fill="#fff" stroke="#fff"/>
<g clip-path="url(#a)">
<g transform="translate(1086 582.89) rotate(90) scale(.08 -.08)">
<use xlink:href="#l"/>
<use x="44.083984" xlink:href="#e"/>
<use x="105.607422" xlink:href="#j"/>
<use x="144.970703" xlink:href="#k"/>
<use x="242.382812" xlink:href="#h"/>
<use x="270.166016" xlink:href="#d"/>
<use x="333.544922" xlink:href="#g"/>
<use x="394.824219" xlink:href="#i"/>
</g>
</g>
<path d="m1165 582.89v33.808q0 2.4 2.4 2.4h7.7425q2.4 0 2.4-2.4v-33.808q0-2.4-2.4-2.4h-7.7425q-2.4 0-2.4 2.4z" clip-path="url(#a)" fill="#fff" stroke="#fff"/>
<g clip-path="url(#a)">
<g transform="translate(1169 582.89) rotate(90) scale(.08 -.08)">
<use xlink:href="#l"/>
<use x="44.083984" xlink:href="#e"/>
<use x="105.607422" xlink:href="#j"/>
<use x="144.970703" xlink:href="#k"/>
<use x="242.382812" xlink:href="#h"/>
<use x="270.166016" xlink:href="#d"/>
<use x="333.544922" xlink:href="#g"/>
<use x="394.824219" xlink:href="#i"/>
</g>
</g>
<path d="m478.35 582.89v33.808q0 2.4 2.4 2.4h7.7425q2.4 0 2.4-2.4v-33.808q0-2.4-2.4-2.4h-7.7425q-2.4 0-2.4 2.4z" clip-path="url(#a)" fill="#fff" stroke="#fff"/>
<g clip-path="url(#a)">
<g transform="translate(482.41 582.89) rotate(90) scale(.08 -.08)">
<use xlink:href="#l"/>
<use x="44.083984" xlink:href="#e"/>
<use x="105.607422" xlink:href="#j"/>
<use x="144.970703" xlink:href="#k"/>
<use x="242.382812" xlink:href="#h"/>
<use x="270.166016" xlink:href="#d"/>
<use x="333.544922" xlink:href="#g"/>
<use x="394.824219" xlink:href="#i"/>
</g>
</g>
<path d="m558.77 478.99 1.2384-5.4191q0.53467-2.3397-1.805-2.8744l-7.5479-1.7249q-2.3397-0.53467-2.8744 1.805l-1.2384 5.4191q-0.53467 2.3397 1.805 2.8744l7.5479 1.7249q2.3397 0.53467 2.8744-1.805z" clip-path="url(#a)" fill="#fff" stroke="#fff"/>
<g clip-path="url(#a)">
<defs>
<path id="u" d="m44.391 34.188q3.1719-1.0781 6.1719-4.5938t6.0312-9.6719l10.016-19.922h-10.609l-9.3125 18.703q-3.625 7.3281-7.0156 9.7188t-9.25 2.3906h-10.75v-30.812h-9.8594v72.906h22.266q12.5 0 18.656-5.2344 6.1562-5.2188 6.1562-15.766 0-6.8906-3.2031-11.438-3.2031-4.5312-9.2969-6.2812zm-24.719 30.609v-25.875h12.406q7.125 0 10.766 3.2969t3.6406 9.6875-3.6406 9.6406-10.766 3.25z"/>
</defs>
<g transform="translate(554.81 478.08) rotate(-77.128) scale(.08 -.08)">
<use xlink:href="#u"/>
</g>
</g>
<path d="m575.29 473.56 1.2445 5.4459q0.53467 2.3397 2.8744 1.805l7.5479-1.7249q2.3397-0.53467 1.805-2.8744l-1.2445-5.4459q-0.53467-2.3397-2.8744-1.805l-7.5479 1.7249q-2.3397 0.53467-1.805 2.8744z" clip-path="url(#a)" fill="#fff" stroke="#fff"/>
<g clip-path="url(#a)">
<g transform="translate(579.25 472.65) rotate(77.128) scale(.08 -.08)">
<use xlink:href="#x"/>
</g>
</g>
<path d="m532.64 582.89v33.808q0 2.4 2.4 2.4h7.7425q2.4 0 2.4-2.4v-33.808q0-2.4-2.4-2.4h-7.7425q-2.4 0-2.4 2.4z" clip-path="url(#a)" fill="#fff" stroke="#fff"/>
<g clip-path="url(#a)">
<g transform="translate(536.7 582.89) rotate(90) scale(.08 -.08)">
<use xlink:href="#l"/>
<use x="44.083984" xlink:href="#e"/>
<use x="105.607422" xlink:href="#j"/>
<use x="144.970703" xlink:href="#k"/>
<use x="242.382812" xlink:href="#h"/>
<use x="270.166016" xlink:href="#d"/>
<use x="333.544922" xlink:href="#g"/>
<use x="394.824219" xlink:href="#i"/>
</g>
</g>
<path d="m590.12 582.89v33.808q0 2.4 2.4 2.4h7.7425q2.4 0 2.4-2.4v-33.808q0-2.4-2.4-2.4h-7.7425q-2.4 0-2.4 2.4z" clip-path="url(#a)" fill="#fff" stroke="#fff"/>
<g clip-path="url(#a)">
<g transform="translate(594.19 582.89) rotate(90) scale(.08 -.08)">
<use xlink:href="#l"/>
<use x="44.083984" xlink:href="#e"/>
<use x="105.607422" xlink:href="#j"/>
<use x="144.970703" xlink:href="#k"/>
<use x="242.382812" xlink:href="#h"/>
<use x="270.166016" xlink:href="#d"/>
<use x="333.544922" xlink:href="#g"/>
<use x="394.824219" xlink:href="#i"/>
</g>
</g>
<path d="m53.608 582.89v33.808q0 2.4 2.4 2.4h7.7425q2.4 0 2.4-2.4v-33.808q0-2.4-2.4-2.4h-7.7425q-2.4 0-2.4 2.4z" clip-path="url(#a)" fill="#fff" stroke="#fff"/>
<g clip-path="url(#a)">
<g transform="translate(57.671 582.89) rotate(90) scale(.08 -.08)">
<use xlink:href="#l"/>
<use x="44.083984" xlink:href="#e"/>
<use x="105.607422" xlink:href="#j"/>
<use x="144.970703" xlink:href="#k"/>
<use x="242.382812" xlink:href="#h"/>
<use x="270.166016" xlink:href="#d"/>
<use x="333.544922" xlink:href="#g"/>
<use x="394.824219" xlink:href="#i"/>
</g>
</g>
<path d="m63.188 582.89v33.808q0 2.4 2.4 2.4h7.7425q2.4 0 2.4-2.4v-33.808q0-2.4-2.4-2.4h-7.7425q-2.4 0-2.4 2.4z" clip-path="url(#a)" fill="#fff" stroke="#fff"/>
<g clip-path="url(#a)">
<g transform="translate(67.252 582.89) rotate(90) scale(.08 -.08)">
<use xlink:href="#l"/>
<use x="44.083984" xlink:href="#e"/>
<use x="105.607422" xlink:href="#j"/>
<use x="144.970703" xlink:href="#k"/>
<use x="242.382812" xlink:href="#h"/>
<use x="270.166016" xlink:href="#d"/>
<use x="333.544922" xlink:href="#g"/>
<use x="394.824219" xlink:href="#i"/>
</g>
</g>
<path d="m75.962 582.89v33.808q0 2.4 2.4 2.4h7.7425q2.4 0 2.4-2.4v-33.808q0-2.4-2.4-2.4h-7.7425q-2.4 0-2.4 2.4z" clip-path="url(#a)" fill="#fff" stroke="#fff"/>
<g clip-path="url(#a)">
<g transform="translate(80.026 582.89) rotate(90) scale(.08 -.08)">
<use xlink:href="#l"/>
<use x="44.083984" xlink:href="#e"/>
<use x="105.607422" xlink:href="#j"/>
<use x="144.970703" xlink:href="#k"/>
<use x="242.382812" xlink:href="#h"/>
<use x="270.166016" xlink:href="#d"/>
<use x="333.544922" xlink:href="#g"/>
<use x="394.824219" xlink:href="#i"/>
</g>
</g>
<path d="m142.89 416.2 1.6631-5.3041q0.71804-2.2901-1.572-3.0081l-7.3879-2.3164q-2.2901-0.71804-3.0081 1.572l-1.6631 5.3041q-0.71804 2.2901 1.572 3.0081l7.3879 2.3164q2.2901 0.71804 3.0081-1.572z" clip-path="url(#a)" fill="#fff" stroke="#fff"/>
<g clip-path="url(#a)">
<g transform="translate(139.02 414.98) rotate(-72.591) scale(.08 -.08)">
<use xlink:href="#u"/>
</g>
</g>
<path d="m152.79 415.78 1.2649-5.3243q0.55473-2.335-1.7803-2.8897l-7.5328-1.7896q-2.335-0.55473-2.8897 1.7803l-1.2649 5.3243q-0.55473 2.335 1.7803 2.8897l7.5328 1.7896q2.335 0.55473 2.8897-1.7803z" clip-path="url(#a)" fill="#fff" stroke="#fff"/>
<g clip-path="url(#a)">
<g transform="translate(148.84 414.84) rotate(-76.636) scale(.08 -.08)">
<use xlink:href="#p"/>
</g>
</g>
<path d="m164.25 415.64 0.90742-6.0928q0.35354-2.3738-2.0203-2.7274l-7.658-1.1405q-2.3738-0.35354-2.7274 2.0203l-0.90742 6.0928q-0.35354 2.3738 2.0203 2.7274l7.658 1.1405q2.3738 0.35354 2.7274-2.0203z" clip-path="url(#a)" fill="#fff" stroke="#fff"/>
<g clip-path="url(#a)">
<g transform="translate(160.23 415.04) rotate(-81.529) scale(.08 -.08)">
<use xlink:href="#t"/>
</g>
</g>
<path d="m177.43 414.26 0.21893-4.596q0.11419-2.3973-2.2831-2.5115l-7.7337-0.36839q-2.3973-0.11419-2.5115 2.2831l-0.21893 4.596q-0.11419 2.3973 2.2831 2.5115l7.7337 0.36839q2.3973 0.11419 2.5115-2.2831z" clip-path="url(#a)" fill="#fff" stroke="#fff"/>
<g clip-path="url(#a)">
<g transform="translate(173.37 414.07) rotate(-87.273) scale(.08 -.08)">
<use xlink:href="#ak"/>
</g>
</g>
<path d="m179.18 409.01 0.40768 6.1465q0.15884 2.3947 2.5536 2.2359l7.7255-0.51241q2.3947-0.15884 2.2359-2.5536l-0.40768-6.1465q-0.15884-2.3947-2.5536-2.2359l-7.7255 0.51241q-2.3947 0.15884-2.2359 2.5536z" clip-path="url(#a)" fill="#fff" stroke="#fff"/>
<g clip-path="url(#a)">
<g transform="translate(183.24 408.74) rotate(86.205) scale(.08 -.08)">
<use xlink:href="#t"/>
</g>
</g>
<path d="m195 410.49 0.91389 4.7364q0.45469 2.3565 2.8112 1.9018l7.6023-1.4669q2.3565-0.45469 1.9018-2.8112l-0.91389-4.7364q-0.45469-2.3565-2.8112-1.9018l-7.6023 1.4669q-2.3565 0.45469-1.9018 2.8112z" clip-path="url(#a)" fill="#fff" stroke="#fff"/>
<g clip-path="url(#a)">
<g transform="translate(198.99 409.72) rotate(79.079) scale(.08 -.08)">
<use xlink:href="#ad"/>
</g>
</g>
<path d="m232.47 351.2 3.8189 3.9198q1.6748 1.719 3.3938 0.044244l5.5457-5.4029q1.719-1.6748 0.044244-3.3938l-3.8189-3.9198q-1.6748-1.719-3.3938-0.044244l-5.5457 5.4029q-1.719 1.6748-0.044244 3.3938z" clip-path="url(#a)" fill="#fff" stroke="#fff"/>
<g clip-path="url(#a)">
<g transform="translate(235.38 348.36) rotate(45.747) scale(.08 -.08)">
<use xlink:href="#p"/>
</g>
</g>
<path d="m91.93 582.89v33.808q0 2.4 2.4 2.4h7.7425q2.4 0 2.4-2.4v-33.808q0-2.4-2.4-2.4h-7.7425q-2.4 0-2.4 2.4z" clip-path="url(#a)" fill="#fff" stroke="#fff"/>
<g clip-path="url(#a)">
<g transform="translate(95.994 582.89) rotate(90) scale(.08 -.08)">
<use xlink:href="#l"/>
<use x="44.083984" xlink:href="#e"/>
<use x="105.607422" xlink:href="#j"/>
<use x="144.970703" xlink:href="#k"/>
<use x="242.382812" xlink:href="#h"/>
<use x="270.166016" xlink:href="#d"/>
<use x="333.544922" xlink:href="#g"/>
<use x="394.824219" xlink:href="#i"/>
</g>
</g>
<path d="m111.09 582.89v33.808q0 2.4 2.4 2.4h7.7425q2.4 0 2.4-2.4v-33.808q0-2.4-2.4-2.4h-7.7425q-2.4 0-2.4 2.4z" clip-path="url(#a)" fill="#fff" stroke="#fff"/>
<g clip-path="url(#a)">
<g transform="translate(115.15 582.89) rotate(90) scale(.08 -.08)">
<use xlink:href="#l"/>
<use x="44.083984" xlink:href="#e"/>
<use x="105.607422" xlink:href="#j"/>
<use x="144.970703" xlink:href="#k"/>
<use x="242.382812" xlink:href="#h"/>
<use x="270.166016" xlink:href="#d"/>
<use x="333.544922" xlink:href="#g"/>
<use x="394.824219" xlink:href="#i"/>
</g>
</g>
<path d="m133.45 582.89v33.808q0 2.4 2.4 2.4h7.7425q2.4 0 2.4-2.4v-33.808q0-2.4-2.4-2.4h-7.7425q-2.4 0-2.4 2.4z" clip-path="url(#a)" fill="#fff" stroke="#fff"/>
<g clip-path="url(#a)">
<g transform="translate(137.51 582.89) rotate(90) scale(.08 -.08)">
<use xlink:href="#l"/>
<use x="44.083984" xlink:href="#e"/>
<use x="105.607422" xlink:href="#j"/>
<use x="144.970703" xlink:href="#k"/>
<use x="242.382812" xlink:href="#h"/>
<use x="270.166016" xlink:href="#d"/>
<use x="333.544922" xlink:href="#g"/>
<use x="394.824219" xlink:href="#i"/>
</g>
</g>
<path d="m158.99 582.89v33.808q0 2.4 2.4 2.4h7.7425q2.4 0 2.4-2.4v-33.808q0-2.4-2.4-2.4h-7.7425q-2.4 0-2.4 2.4z" clip-path="url(#a)" fill="#fff" stroke="#fff"/>
<g clip-path="url(#a)">
<g transform="translate(163.06 582.89) rotate(90) scale(.08 -.08)">
<use xlink:href="#l"/>
<use x="44.083984" xlink:href="#e"/>
<use x="105.607422" xlink:href="#j"/>
<use x="144.970703" xlink:href="#k"/>
<use x="242.382812" xlink:href="#h"/>
<use x="270.166016" xlink:href="#d"/>
<use x="333.544922" xlink:href="#g"/>
<use x="394.824219" xlink:href="#i"/>
</g>
</g>
<path d="m187.74 582.89v33.808q0 2.4 2.4 2.4h7.7425q2.4 0 2.4-2.4v-33.808q0-2.4-2.4-2.4h-7.7425q-2.4 0-2.4 2.4z" clip-path="url(#a)" fill="#fff" stroke="#fff"/>
<g clip-path="url(#a)">
<g transform="translate(191.8 582.89) rotate(90) scale(.08 -.08)">
<use xlink:href="#l"/>
<use x="44.083984" xlink:href="#e"/>
<use x="105.607422" xlink:href="#j"/>
<use x="144.970703" xlink:href="#k"/>
<use x="242.382812" xlink:href="#h"/>
<use x="270.166016" xlink:href="#d"/>
<use x="333.544922" xlink:href="#g"/>
<use x="394.824219" xlink:href="#i"/>
</g>
</g>
<path d="m219.67 582.89v33.808q0 2.4 2.4 2.4h7.7425q2.4 0 2.4-2.4v-33.808q0-2.4-2.4-2.4h-7.7425q-2.4 0-2.4 2.4z" clip-path="url(#a)" fill="#fff" stroke="#fff"/>
<g clip-path="url(#a)">
<g transform="translate(223.74 582.89) rotate(90) scale(.08 -.08)">
<use xlink:href="#l"/>
<use x="44.083984" xlink:href="#e"/>
<use x="105.607422" xlink:href="#j"/>
<use x="144.970703" xlink:href="#k"/>
<use x="242.382812" xlink:href="#h"/>
<use x="270.166016" xlink:href="#d"/>
<use x="333.544922" xlink:href="#g"/>
<use x="394.824219" xlink:href="#i"/>
</g>
</g>
<path d="m285.92 479.41 1.6612-5.3047q0.71723-2.2903-1.5731-3.0076l-7.3887-2.3138q-2.2903-0.71723-3.0076 1.5731l-1.6612 5.3047q-0.71723 2.2903 1.5731 3.0076l7.3887 2.3138q2.2903 0.71723 3.0076-1.5731z" clip-path="url(#a)" fill="#fff" stroke="#fff"/>
<g clip-path="url(#a)">
<g transform="translate(282.04 478.2) rotate(-72.612) scale(.08 -.08)">
<use xlink:href="#u"/>
</g>
</g>
<path d="m306.18 477.46 0.042783-5.0548q0.020312-2.3999-2.3796-2.4202l-7.7422-0.065528q-2.3999-0.020312-2.4202 2.3796l-0.042782 5.0548q-0.020313 2.3999 2.3796 2.4202l7.7422 0.065528q2.3999 0.020312 2.4202-2.3796z" clip-path="url(#a)" fill="#fff" stroke="#fff"/>
<g clip-path="url(#a)">
<g transform="translate(302.11 477.43) rotate(-89.515) scale(.08 -.08)">
<use xlink:href="#w"/>
</g>
</g>
<path d="m313.86 474.14 1.7104 5.318q0.73482 2.2847 3.0196 1.5499l7.3707-2.3706q2.2847-0.73482 1.5499-3.0196l-1.7104-5.318q-0.73482-2.2847-3.0196-1.5499l-7.3707 2.3706q-2.2847 0.73482-1.5499 3.0196z" clip-path="url(#a)" fill="#fff" stroke="#fff"/>
<g clip-path="url(#a)">
<g transform="translate(317.73 472.9) rotate(72.171) scale(.08 -.08)">
<use xlink:href="#x"/>
</g>
</g>
<path d="m254.8 582.89v33.808q0 2.4 2.4 2.4h7.7425q2.4 0 2.4-2.4v-33.808q0-2.4-2.4-2.4h-7.7425q-2.4 0-2.4 2.4z" clip-path="url(#a)" fill="#fff" stroke="#fff"/>
<g clip-path="url(#a)">
<g transform="translate(258.86 582.89) rotate(90) scale(.08 -.08)">
<use xlink:href="#l"/>
<use x="44.083984" xlink:href="#e"/>
<use x="105.607422" xlink:href="#j"/>
<use x="144.970703" xlink:href="#k"/>
<use x="242.382812" xlink:href="#h"/>
<use x="270.166016" xlink:href="#d"/>
<use x="333.544922" xlink:href="#g"/>
<use x="394.824219" xlink:href="#i"/>
</g>
</g>
<path d="m293.12 582.89v33.808q0 2.4 2.4 2.4h7.7425q2.4 0 2.4-2.4v-33.808q0-2.4-2.4-2.4h-7.7425q-2.4 0-2.4 2.4z" clip-path="url(#a)" fill="#fff" stroke="#fff"/>
<g clip-path="url(#a)">
<g transform="translate(297.19 582.89) rotate(90) scale(.08 -.08)">
<use xlink:href="#l"/>
<use x="44.083984" xlink:href="#e"/>
<use x="105.607422" xlink:href="#j"/>
<use x="144.970703" xlink:href="#k"/>
<use x="242.382812" xlink:href="#h"/>
<use x="270.166016" xlink:href="#d"/>
<use x="333.544922" xlink:href="#g"/>
<use x="394.824219" xlink:href="#i"/>
</g>
</g>
<path d="m334.64 582.89v33.808q0 2.4 2.4 2.4h7.7425q2.4 0 2.4-2.4v-33.808q0-2.4-2.4-2.4h-7.7425q-2.4 0-2.4 2.4z" clip-path="url(#a)" fill="#fff" stroke="#fff"/>
<g clip-path="url(#a)">
<g transform="translate(338.7 582.89) rotate(90) scale(.08 -.08)">
<use xlink:href="#l"/>
<use x="44.083984" xlink:href="#e"/>
<use x="105.607422" xlink:href="#j"/>
<use x="144.970703" xlink:href="#k"/>
<use x="242.382812" xlink:href="#h"/>
<use x="270.166016" xlink:href="#d"/>
<use x="333.544922" xlink:href="#g"/>
<use x="394.824219" xlink:href="#i"/>
</g>
</g>
<path d="m268.13 102.74 9.4925-3.4792q2.2534-0.82592 1.4275-3.0793l-2.6645-7.2696q-0.82592-2.2534-3.0793-1.4275l-9.4925 3.4792q-2.2534 0.82592-1.4275 3.0793l2.6645 7.2696q0.82592 2.2534 3.0793 1.4275z" clip-path="url(#a)" fill="#fff" stroke="#fff"/>
<g clip-path="url(#a)">
<g transform="translate(266.73 98.92) rotate(-20.129) scale(.08 -.08)">
<use xlink:href="#v"/>
<use x="57.962891" xlink:href="#p"/>
</g>
</g>
<path d="m445.03 289.78 0.21157-10.014q0.050694-2.3995-2.3488-2.4502l-7.7408-0.16354q-2.3995-0.050694-2.4502 2.3488l-0.21157 10.014q-0.050694 2.3995 2.3488 2.4502l7.7408 0.16354q2.3995 0.050694 2.4502-2.3488z" clip-path="url(#a)" fill="#fff" stroke="#fff"/>
<g clip-path="url(#a)">
<g transform="translate(440.97 289.7) rotate(-88.79) scale(.08 -.08)">
<use xlink:href="#v"/>
<use x="55.712891" xlink:href="#u"/>
</g>
</g>
<path d="m616.21 99.323 9.5258 3.387q2.2613 0.80403 3.0653-1.4573l2.5938-7.2951q0.80403-2.2613-1.4573-3.0653l-9.5258-3.387q-2.2613-0.80403-3.0653 1.4573l-2.5938 7.2951q-0.80403 2.2613 1.4573 3.0653z" clip-path="url(#a)" fill="#fff" stroke="#fff"/>
<g clip-path="url(#a)">
<g transform="translate(617.57 95.494) rotate(19.573) scale(.08 -.08)">
<use xlink:href="#v"/>
<use x="57.962891" xlink:href="#p"/>
</g>
</g>
<path d="m379.35 582.89v33.808q0 2.4 2.4 2.4h7.7425q2.4 0 2.4-2.4v-33.808q0-2.4-2.4-2.4h-7.7425q-2.4 0-2.4 2.4z" clip-path="url(#a)" fill="#fff" stroke="#fff"/>
<g clip-path="url(#a)">
<g transform="translate(383.41 582.89) rotate(90) scale(.08 -.08)">
<use xlink:href="#l"/>
<use x="44.083984" xlink:href="#e"/>
<use x="105.607422" xlink:href="#j"/>
<use x="144.970703" xlink:href="#k"/>
<use x="242.382812" xlink:href="#h"/>
<use x="270.166016" xlink:href="#d"/>
<use x="333.544922" xlink:href="#g"/>
<use x="394.824219" xlink:href="#i"/>
</g>
</g>
<path d="m650.8 582.89v33.808q0 2.4 2.4 2.4h7.7425q2.4 0 2.4-2.4v-33.808q0-2.4-2.4-2.4h-7.7425q-2.4 0-2.4 2.4z" clip-path="url(#a)" fill="#fff" stroke="#fff"/>
<g clip-path="url(#a)">
<g transform="translate(654.86 582.89) rotate(90) scale(.08 -.08)">
<use xlink:href="#l"/>
<use x="44.083984" xlink:href="#e"/>
<use x="105.607422" xlink:href="#j"/>
<use x="144.970703" xlink:href="#k"/>
<use x="242.382812" xlink:href="#h"/>
<use x="270.166016" xlink:href="#d"/>
<use x="333.544922" xlink:href="#g"/>
<use x="394.824219" xlink:href="#i"/>
</g>
</g>
<path d="m1251.2 582.89v33.808q0 2.4 2.4 2.4h7.7425q2.4 0 2.4-2.4v-33.808q0-2.4-2.4-2.4h-7.7425q-2.4 0-2.4 2.4z" clip-path="url(#a)" fill="#fff" stroke="#fff"/>
<g clip-path="url(#a)">
<g transform="translate(1255.2 582.89) rotate(90) scale(.08 -.08)">
<use xlink:href="#l"/>
<use x="44.083984" xlink:href="#e"/>
<use x="105.607422" xlink:href="#j"/>
<use x="144.970703" xlink:href="#k"/>
<use x="242.382812" xlink:href="#h"/>
<use x="270.166016" xlink:href="#d"/>
<use x="333.544922" xlink:href="#g"/>
<use x="394.824219" xlink:href="#i"/>
</g>
</g>
<defs>
<path id="b" d="m0 8.6603c2.2967 0 4.4997-0.9125 6.1237-2.5365 1.624-1.624 2.5365-3.827 2.5365-6.1237s-0.9125-4.4997-2.5365-6.1237c-1.624-1.624-3.827-2.5365-6.1237-2.5365s-4.4997 0.9125-6.1237 2.5365c-1.624 1.624-2.5365 3.827-2.5365 6.1237s0.9125 4.4997 2.5365 6.1237c1.624 1.624 3.827 2.5365 6.1237 2.5365z"/>
</defs>
<g clip-path="url(#a)">
<use x="59.878788" y="661.818182" fill="#ffffff" stroke="#ffffff" xlink:href="#b"/>
<use x="69.459394" y="661.818182" fill="#ffffff" stroke="#ffffff" xlink:href="#b"/>
<use x="82.233535" y="661.818182" fill="#ffffff" stroke="#ffffff" xlink:href="#b"/>
<use x="98.201212" y="661.818182" fill="#ffffff" stroke="#ffffff" xlink:href="#b"/>
<use x="117.362424" y="661.818182" fill="#ffffff" stroke="#ffffff" xlink:href="#b"/>
<use x="139.717172" y="661.818182" fill="#ffffff" stroke="#ffffff" xlink:href="#b"/>
<use x="165.265455" y="661.818182" fill="#ffffff" stroke="#ffffff" xlink:href="#b"/>
<use x="194.007273" y="661.818182" fill="#ffffff" stroke="#ffffff" xlink:href="#b"/>
<use x="225.942626" y="661.818182" fill="#ffffff" stroke="#ffffff" xlink:href="#b"/>
<use x="261.071515" y="661.818182" fill="#ffffff" stroke="#ffffff" xlink:href="#b"/>
<use x="299.393939" y="661.818182" fill="#ffffff" stroke="#ffffff" xlink:href="#b"/>
<use x="340.909899" y="661.818182" fill="#ffffff" stroke="#ffffff" xlink:href="#b"/>
<use x="385.619394" y="661.818182" fill="#ffffff" stroke="#ffffff" xlink:href="#b"/>
<use x="433.522424" y="661.818182" fill="#ffffff" stroke="#ffffff" xlink:href="#b"/>
<use x="484.61899" y="661.818182" fill="#ffffff" stroke="#ffffff" xlink:href="#b"/>
<use x="538.909091" y="661.818182" fill="#ffffff" stroke="#ffffff" xlink:href="#b"/>
<use x="596.392727" y="661.818182" fill="#ffffff" stroke="#ffffff" xlink:href="#b"/>
<use x="657.069899" y="661.818182" fill="#ffffff" stroke="#ffffff" xlink:href="#b"/>
<use x="720.940606" y="661.818182" fill="#ffffff" stroke="#ffffff" xlink:href="#b"/>
<use x="788.004848" y="661.818182" fill="#ffffff" stroke="#ffffff" xlink:href="#b"/>
<use x="858.262626" y="661.818182" fill="#ffffff" stroke="#ffffff" xlink:href="#b"/>
<use x="931.713939" y="661.818182" fill="#ffffff" stroke="#ffffff" xlink:href="#b"/>
<use x="1008.358788" y="661.818182" fill="#ffffff" stroke="#ffffff" xlink:href="#b"/>
<use x="1088.197172" y="661.818182" fill="#ffffff" stroke="#ffffff" xlink:href="#b"/>
<use x="1171.229091" y="661.818182" fill="#ffffff" stroke="#ffffff" xlink:href="#b"/>
<use x="1257.454545" y="661.818182" fill="#ffffff" stroke="#ffffff" xlink:href="#b"/>
<use x="429.568523" y="31.515152" fill="#ffffff" stroke="#ffffff" xlink:href="#b"/>
<use x="97.212737" y="158.699688" fill="#ffffff" stroke="#ffffff" xlink:href="#b"/>
<use x="433.522424" y="537.770204" fill="#ffffff" stroke="#ffffff" xlink:href="#b"/>
<use x="801.919538" y="158.699688" fill="#ffffff" stroke="#ffffff" xlink:href="#b"/>
<use x="526.134949" y="285.563287" fill="#ffffff" stroke="#ffffff" xlink:href="#b"/>
<use x="720.940606" y="537.770204" fill="#ffffff" stroke="#ffffff" xlink:href="#b"/>
<use x="788.004848" y="537.770204" fill="#ffffff" stroke="#ffffff" xlink:href="#b"/>
<use x="858.262626" y="537.770204" fill="#ffffff" stroke="#ffffff" xlink:href="#b"/>
<use x="931.713939" y="537.770204" fill="#ffffff" stroke="#ffffff" xlink:href="#b"/>
<use x="1131.309899" y="411.996581" fill="#ffffff" stroke="#ffffff" xlink:href="#b"/>
<use x="1008.358788" y="537.770204" fill="#ffffff" stroke="#ffffff" xlink:href="#b"/>
<use x="1088.197172" y="537.770204" fill="#ffffff" stroke="#ffffff" xlink:href="#b"/>
<use x="1171.229091" y="537.770204" fill="#ffffff" stroke="#ffffff" xlink:href="#b"/>
<use x="484.61899" y="537.770204" fill="#ffffff" stroke="#ffffff" xlink:href="#b"/>
<use x="567.650909" y="411.996581" fill="#ffffff" stroke="#ffffff" xlink:href="#b"/>
<use x="538.909091" y="537.770204" fill="#ffffff" stroke="#ffffff" xlink:href="#b"/>
<use x="596.392727" y="537.770204" fill="#ffffff" stroke="#ffffff" xlink:href="#b"/>
<use x="59.878788" y="537.770204" fill="#ffffff" stroke="#ffffff" xlink:href="#b"/>
<use x="69.459394" y="537.770204" fill="#ffffff" stroke="#ffffff" xlink:href="#b"/>
<use x="82.233535" y="537.770204" fill="#ffffff" stroke="#ffffff" xlink:href="#b"/>
<use x="177.27923" y="285.563287" fill="#ffffff" stroke="#ffffff" xlink:href="#b"/>
<use x="98.201212" y="537.770204" fill="#ffffff" stroke="#ffffff" xlink:href="#b"/>
<use x="117.362424" y="537.770204" fill="#ffffff" stroke="#ffffff" xlink:href="#b"/>
<use x="139.717172" y="537.770204" fill="#ffffff" stroke="#ffffff" xlink:href="#b"/>
<use x="165.265455" y="537.770204" fill="#ffffff" stroke="#ffffff" xlink:href="#b"/>
<use x="194.007273" y="537.770204" fill="#ffffff" stroke="#ffffff" xlink:href="#b"/>
<use x="225.942626" y="537.770204" fill="#ffffff" stroke="#ffffff" xlink:href="#b"/>
<use x="300.458451" y="411.996581" fill="#ffffff" stroke="#ffffff" xlink:href="#b"/>
<use x="261.071515" y="537.770204" fill="#ffffff" stroke="#ffffff" xlink:href="#b"/>
<use x="299.393939" y="537.770204" fill="#ffffff" stroke="#ffffff" xlink:href="#b"/>
<use x="340.909899" y="537.770204" fill="#ffffff" stroke="#ffffff" xlink:href="#b"/>
<use x="444.218233" y="31.515152" fill="#808080" stroke="#808080" xlink:href="#b"/>
<use x="385.619394" y="537.770204" fill="#ffffff" stroke="#ffffff" xlink:href="#b"/>
<use x="657.069899" y="537.770204" fill="#ffffff" stroke="#ffffff" xlink:href="#b"/>
<use x="1257.454545" y="537.770204" fill="#ffffff" stroke="#ffffff" xlink:href="#b"/>
</g>
<g clip-path="url(#a)">
<defs>
<path id="aq" d="m9.8125 72.906h9.8594v-72.906h-9.8594z"/>
</defs>
<g transform="translate(58.404 664.58) scale(.1 -.1)">
<use xlink:href="#aq"/>
</g>
</g>
<g clip-path="url(#a)">
<defs>
<path id="ao" d="m8.5 21.578v33.109h8.9844v-32.766q0-7.7656 3.0156-11.656 3.0312-3.875 9.0938-3.875 7.2656 0 11.484 4.6406 4.2344 4.6406 4.2344 12.656v31h8.9844v-54.688h-8.9844v8.4062q-3.2656-4.9844-7.5938-7.4062-4.3125-2.4219-10.031-2.4219-9.4219 0-14.312 5.8594-4.875 5.8594-4.875 17.141z"/>
<path id="ap" d="m44.281 53.078v-8.5q-3.7969 1.9531-7.9062 2.9219-4.0938 0.98438-8.5 0.98438-6.6875 0-10.031-2.0469t-3.3438-6.1562q0-3.125 2.3906-4.9062t9.625-3.3906l3.0781-0.6875q9.5625-2.0469 13.594-5.7812t4.0312-10.422q0-7.625-6.0312-12.078-6.0312-4.4375-16.578-4.4375-4.3906 0-9.1562 0.85938t-10.031 2.5625v9.2812q4.9844-2.5938 9.8125-3.8906 4.8281-1.2812 9.5781-1.2812 6.3438 0 9.75 2.1719 3.4219 2.1719 3.4219 6.125 0 3.6562-2.4688 5.6094-2.4531 1.9531-10.812 3.7656l-3.125 0.73438q-8.3438 1.75-12.062 5.3906-3.7031 3.6406-3.7031 9.9844 0 7.7188 5.4688 11.906 5.4688 4.2031 15.531 4.2031 4.9688 0 9.3594-0.73438 4.4062-0.71875 8.1094-2.1875z"/>
<path id="o" d="m18.312 70.219v-15.531h18.5v-6.9844h-18.5v-29.688q0-6.6875 1.8281-8.5938t7.4531-1.9062h9.2188v-7.5156h-9.2188q-10.406 0-14.359 3.875-3.9531 3.8906-3.9531 14.141v29.688h-6.5938v6.9844h6.5938v15.531z"/>
</defs>
<g transform="translate(56.855 664.58) scale(.1 -.1)">
<use xlink:href="#k"/>
<use x="97.412109" xlink:href="#ao"/>
<use x="160.791016" xlink:href="#ap"/>
<use x="212.890625" xlink:href="#o"/>
</g>
</g>
<g clip-path="url(#a)">
<defs>
<path id="q" d="m45.406 46.391v29.594h8.9844v-75.984h-8.9844v8.2031q-2.8281-4.875-7.1562-7.25-4.3125-2.375-10.375-2.375-9.9062 0-16.141 7.9062-6.2188 7.9219-6.2188 20.812t6.2188 20.797q6.2344 7.9062 16.141 7.9062 6.0625 0 10.375-2.375 4.3281-2.3594 7.1562-7.2344zm-30.609-19.094q0-9.9062 4.0781-15.547t11.203-5.6406 11.219 5.6406q4.1094 5.6406 4.1094 15.547t-4.1094 15.547q-4.0938 5.6406-11.219 5.6406t-11.203-5.6406-4.0781-15.547z"/>
</defs>
<g transform="translate(67.776 664.58) scale(.1 -.1)">
<use xlink:href="#g"/>
<use x="61.279297" xlink:href="#q"/>
<use x="124.755859" xlink:href="#k"/>
<use x="222.167969" xlink:href="#h"/>
<use x="249.951172" xlink:href="#o"/>
</g>
</g>
<g clip-path="url(#a)">
<defs>
<path id="s" d="m54.891 33.016v-33.016h-8.9844v32.719q0 7.7656-3.0312 11.609-3.0312 3.8594-9.0781 3.8594-7.2812 0-11.484-4.6406-4.2031-4.625-4.2031-12.641v-30.906h-9.0312v75.984h9.0312v-29.797q3.2344 4.9375 7.5938 7.375 4.375 2.4375 10.094 2.4375 9.4219 0 14.25-5.8281 4.8438-5.8281 4.8438-17.156z"/>
</defs>
<g transform="translate(88.048 664.58) scale(.1 -.1)">
<use xlink:href="#o"/>
<use x="39.208984" xlink:href="#s"/>
<use x="102.587891" xlink:href="#g"/>
<use x="163.867188" xlink:href="#o"/>
</g>
</g>
<g clip-path="url(#a)">
<g transform="translate(111.12 664.58) scale(.1 -.1)">
<use xlink:href="#s"/>
<use x="63.378906" xlink:href="#e"/>
</g>
</g>
<g clip-path="url(#a)">
<defs>
<path id="at" d="m37.109 75.984v-7.4844h-8.5938q-4.8281 0-6.7188-1.9531-1.875-1.9531-1.875-7.0312v-4.8281h14.797v-6.9844h-14.797v-47.703h-9.0312v47.703h-8.5938v6.9844h8.5938v3.8125q0 9.125 4.25 13.297 4.25 4.1875 13.469 4.1875z"/>
<path id="ar" d="m32.172-5.0781q-3.7969-9.7656-7.4219-12.734-3.6094-2.9844-9.6562-2.9844h-7.1875v7.5156h5.2812q3.7031 0 5.75 1.7656 2.0625 1.75 4.5469 8.2969l1.6094 4.0938-22.109 53.812h9.5156l17.094-42.766 17.094 42.766h9.5156z"/>
</defs>
<g transform="translate(127.2 664.58) scale(.1 -.1)">
<use xlink:href="#at"/>
<use x="35.205078" xlink:href="#i"/>
<use x="62.988281" xlink:href="#g"/>
<use x="124.267578" xlink:href="#o"/>
<use x="163.476562" xlink:href="#i"/>
<use x="191.259766" xlink:href="#ar"/>
</g>
</g>
<g clip-path="url(#a)">
<g transform="translate(157.53 664.58) scale(.1 -.1)">
<use xlink:href="#q"/>
<use x="63.476562" xlink:href="#h"/>
<use x="91.259766" xlink:href="#q"/>
</g>
</g>
<g clip-path="url(#a)">
<defs>
<path id="am" d="m17.922 72.906v-27.109h-8.2969v27.109z"/>
</defs>
<g transform="translate(187.5 664.58) scale(.1 -.1)">
<use xlink:href="#d"/>
<use x="63.378906" xlink:href="#am"/>
<use x="90.869141" xlink:href="#o"/>
</g>
</g>
<g clip-path="url(#a)">
<defs>
<path id="ai" d="m48.688 27.297q0 9.9062-4.0781 15.547t-11.203 5.6406q-7.1406 0-11.219-5.6406t-4.0781-15.547 4.0781-15.547 11.219-5.6406q7.125 0 11.203 5.6406t4.0781 15.547zm-30.578 19.094q2.8438 4.875 7.1562 7.2344 4.3281 2.375 10.328 2.375 9.9688 0 16.188-7.9062 6.2344-7.9062 6.2344-20.797t-6.2344-20.812q-6.2188-7.9062-16.188-7.9062-6 0-10.328 2.375-4.3125 2.375-7.1562 7.25v-8.2031h-9.0312v75.984h9.0312z"/>
<path id="an" d="m2.9844 54.688h9.5156l17.094-45.891 17.094 45.891h9.5156l-20.516-54.688h-12.203z"/>
</defs>
<g transform="translate(207.8 664.58) scale(.1 -.1)">
<use xlink:href="#ai"/>
<use x="63.476562" xlink:href="#e"/>
<use x="125" xlink:href="#i"/>
<use x="152.783203" xlink:href="#h"/>
<use x="180.566406" xlink:href="#e"/>
<use x="242.089844" xlink:href="#an"/>
<use x="301.269531" xlink:href="#e"/>
</g>
</g>
<g clip-path="url(#a)">
<g transform="translate(256.51 664.58) scale(.1 -.1)">
<use xlink:href="#h"/>
<use x="27.783203" xlink:href="#d"/>
</g>
</g>
<g clip-path="url(#a)">
<g transform="translate(291.19 664.58) scale(.1 -.1)">
<use xlink:href="#o"/>
<use x="39.208984" xlink:href="#s"/>
<use x="102.587891" xlink:href="#e"/>
</g>
</g>
<g clip-path="url(#a)">
<defs>
<path id="ab" d="m48.781 52.594v-8.4062q-3.8125 2.1094-7.6406 3.1562t-7.7344 1.0469q-8.75 0-13.594-5.5469-4.8281-5.5312-4.8281-15.547t4.8281-15.562q4.8438-5.5312 13.594-5.5312 3.9062 0 7.7344 1.0469t7.6406 3.1562v-8.3125q-3.7656-1.75-7.7969-2.625-4.0156-0.89062-8.5625-0.89062-12.359 0-19.641 7.7656-7.2656 7.7656-7.2656 20.953 0 13.375 7.3438 21.031 7.3594 7.6719 20.156 7.6719 4.1406 0 8.0938-0.85938 3.9531-0.84375 7.6719-2.5469z"/>
<path id="r" d="m30.609 48.391q-7.2188 0-11.422-5.6406t-4.2031-15.453 4.1719-15.453q4.1875-5.6406 11.453-5.6406 7.1875 0 11.375 5.6562 4.2031 5.6719 4.2031 15.438 0 9.7188-4.2031 15.406-4.1875 5.6875-11.375 5.6875zm0 7.6094q11.719 0 18.406-7.625 6.7031-7.6094 6.7031-21.078 0-13.422-6.7031-21.078-6.6875-7.6406-18.406-7.6406-11.766 0-18.438 7.6406-6.6562 7.6562-6.6562 21.078 0 13.469 6.6562 21.078 6.6719 7.625 18.438 7.625z"/>
</defs>
<g transform="translate(322.24 664.58) scale(.1 -.1)">
<use xlink:href="#ao"/>
<use x="63.378906" xlink:href="#d"/>
<use x="126.757812" xlink:href="#h"/>
<use x="154.541016" xlink:href="#ab"/>
<use x="209.521484" xlink:href="#r"/>
<use x="270.703125" xlink:href="#j"/>
<use x="310.066406" xlink:href="#d"/>
</g>
</g>
<g clip-path="url(#a)">
<defs>
<path id="al" d="m11.719 12.406h10.297v-8.4062l-8-15.625h-6.2969l4 15.625z"/>
</defs>
<g transform="translate(384.03 664.58) scale(.1 -.1)">
<use xlink:href="#al"/>
</g>
</g>
<g clip-path="url(#a)">
<g transform="translate(424.12 664.58) scale(.1 -.1)">
<use xlink:href="#g"/>
<use x="61.279297" xlink:href="#d"/>
<use x="124.658203" xlink:href="#q"/>
</g>
</g>
<g clip-path="url(#a)">
<g transform="translate(470.86 664.58) scale(.1 -.1)">
<use xlink:href="#g"/>
<use x="61.279297" xlink:href="#i"/>
<use x="89.0625" xlink:href="#r"/>
<use x="150.244141" xlink:href="#d"/>
<use x="213.623047" xlink:href="#e"/>
</g>
</g>
<g clip-path="url(#a)">
<g transform="translate(532.68 664.58) scale(.1 -.1)">
<use xlink:href="#r"/>
<use x="61.181641" xlink:href="#d"/>
</g>
</g>
<g clip-path="url(#a)">
<g transform="translate(581.95 664.58) scale(.1 -.1)">
<use xlink:href="#ai"/>
<use x="63.476562" xlink:href="#r"/>
<use x="124.658203" xlink:href="#g"/>
<use x="185.9375" xlink:href="#j"/>
<use x="225.300781" xlink:href="#q"/>
</g>
</g>
<g clip-path="url(#a)">
<g transform="translate(655.48 664.58) scale(.1 -.1)">
<use xlink:href="#al"/>
</g>
</g>
<g clip-path="url(#a)">
<g transform="translate(714.7 664.58) scale(.1 -.1)">
<use xlink:href="#s"/>
<use x="63.378906" xlink:href="#e"/>
</g>
</g>
<g clip-path="url(#a)">
<g transform="translate(780.27 664.58) scale(.1 -.1)">
<use xlink:href="#q"/>
<use x="63.476562" xlink:href="#h"/>
<use x="91.259766" xlink:href="#q"/>
</g>
</g>
<g clip-path="url(#a)">
<g transform="translate(851.76 664.58) scale(.1 -.1)">
<use xlink:href="#d"/>
<use x="63.378906" xlink:href="#am"/>
<use x="90.869141" xlink:href="#o"/>
</g>
</g>
<g clip-path="url(#a)">
<g transform="translate(917.86 664.58) scale(.1 -.1)">
<use xlink:href="#ap"/>
<use x="52.099609" xlink:href="#s"/>
<use x="115.478516" xlink:href="#g"/>
<use x="176.757812" xlink:href="#j"/>
<use x="215.621094" xlink:href="#e"/>
</g>
</g>
<g clip-path="url(#a)">
<g transform="translate(1000.2 664.58) scale(.1 -.1)">
<use xlink:href="#o"/>
<use x="39.208984" xlink:href="#s"/>
<use x="102.587891" xlink:href="#e"/>
</g>
</g>
<g clip-path="url(#a)">
<defs>
<path id="as" d="m45.406 27.984q0 9.7656-4.0312 15.125-4.0156 5.375-11.297 5.375-7.2188 0-11.25-5.375-4.0312-5.3594-4.0312-15.125 0-9.7188 4.0312-15.094t11.25-5.375q7.2812 0 11.297 5.375 4.0312 5.375 4.0312 15.094zm8.9844-21.203q0-13.953-6.2031-20.766-6.1875-6.8125-18.984-6.8125-4.7344 0-8.9375 0.70312t-8.1562 2.1719v8.7344q3.9531-2.1406 7.8125-3.1562 3.8594-1.0312 7.8594-1.0312 8.8438 0 13.234 4.6094t4.3906 13.938v4.4531q-2.7812-4.8438-7.125-7.2344t-10.406-2.3906q-10.047 0-16.203 7.6562-6.1562 7.6719-6.1562 20.328 0 12.688 6.1562 20.344 6.1562 7.6719 16.203 7.6719 6.0625 0 10.406-2.3906t7.125-7.2188v8.2969h8.9844z"/>
</defs>
<g transform="translate(1069.2 664.58) scale(.1 -.1)">
<use xlink:href="#as"/>
<use x="63.476562" xlink:href="#e"/>
<use x="125" xlink:href="#d"/>
<use x="188.378906" xlink:href="#e"/>
<use x="249.902344" xlink:href="#j"/>
<use x="291.015625" xlink:href="#g"/>
<use x="352.294922" xlink:href="#i"/>
</g>
</g>
<g clip-path="url(#a)">
<g transform="translate(1145.6 664.58) scale(.1 -.1)">
<use xlink:href="#ab"/>
<use x="54.980469" xlink:href="#r"/>
<use x="116.162109" xlink:href="#d"/>
<use x="179.541016" xlink:href="#an"/>
<use x="238.720703" xlink:href="#h"/>
<use x="266.503906" xlink:href="#ab"/>
<use x="321.484375" xlink:href="#o"/>
<use x="360.693359" xlink:href="#h"/>
<use x="388.476562" xlink:href="#r"/>
<use x="449.658203" xlink:href="#d"/>
</g>
</g>
<g clip-path="url(#a)">
<defs>
<path id="f" d="m10.688 12.406h10.312v-12.406h-10.312z"/>
</defs>
<g transform="translate(1255.9 664.58) scale(.1 -.1)">
<use xlink:href="#f"/>
</g>
</g>
<g clip-path="url(#a)">
<defs>
<path id="c" d="m12.406 8.2969h16.109v55.625l-17.531-3.5156v8.9844l17.438 3.5156h9.8594v-64.609h16.109v-8.2969h-41.984z"/>
</defs>
<g transform="translate(421.62 34.275) scale(.1 -.1)">
<use xlink:href="#c"/>
<use x="63.623047" xlink:href="#f"/>
<use x="95.410156" xlink:href="#c"/>
</g>
</g>
<g clip-path="url(#a)">
<defs>
<path id="m" d="m19.188 8.2969h34.422v-8.2969h-46.281v8.2969q5.6094 5.8125 15.297 15.594 9.7031 9.7969 12.188 12.641 4.7344 5.3125 6.6094 9 1.8906 3.6875 1.8906 7.25 0 5.8125-4.0781 9.4688-4.0781 3.6719-10.625 3.6719-4.6406 0-9.7969-1.6094-5.1406-1.6094-11-4.8906v9.9688q5.9531 2.3906 11.125 3.6094 5.1875 1.2188 9.4844 1.2188 11.328 0 18.062-5.6719 6.7344-5.6562 6.7344-15.125 0-4.5-1.6875-8.5312-1.6719-4.0156-6.125-9.4844-1.2188-1.4219-7.7656-8.1875-6.5312-6.7656-18.453-18.922z"/>
</defs>
<g transform="translate(89.261 161.46) scale(.1 -.1)">
<use xlink:href="#c"/>
<use x="63.623047" xlink:href="#f"/>
<use x="95.410156" xlink:href="#m"/>
</g>
</g>
<g clip-path="url(#a)">
<defs>
<path id="n" d="m40.578 39.312q7.0781-1.5156 11.047-6.3125 3.9844-4.7812 3.9844-11.812 0-10.781-7.4219-16.703-7.4219-5.9062-21.094-5.9062-4.5781 0-9.4375 0.90625t-10.031 2.7188v9.5156q4.0938-2.3906 8.9688-3.6094 4.8906-1.2188 10.219-1.2188 9.2656 0 14.125 3.6562t4.8594 10.641q0 6.4531-4.5156 10.078-4.5156 3.6406-12.562 3.6406h-8.5v8.1094h8.8906q7.2656 0 11.125 2.9062t3.8594 8.375q0 5.6094-3.9844 8.6094-3.9688 3.0156-11.391 3.0156-4.0625 0-8.7031-0.89062-4.6406-0.875-10.203-2.7188v8.7812q5.625 1.5625 10.531 2.3438t9.25 0.78125q11.234 0 17.766-5.1094 6.5469-5.0938 6.5469-13.781 0-6.0625-3.4688-10.234t-9.8594-5.7812z"/>
</defs>
<g transform="translate(425.57 540.53) scale(.1 -.1)">
<use xlink:href="#c"/>
<use x="63.623047" xlink:href="#f"/>
<use x="95.410156" xlink:href="#n"/>
</g>
</g>
<g clip-path="url(#a)">
<defs>
<path id="aa" d="m37.797 64.312-24.906-38.922h24.906zm-2.5938 8.5938h12.406v-47.516h10.406v-8.2031h-10.406v-17.188h-9.8125v17.188h-32.906v9.5156z"/>
</defs>
<g transform="translate(793.97 161.46) scale(.1 -.1)">
<use xlink:href="#c"/>
<use x="63.623047" xlink:href="#f"/>
<use x="95.410156" xlink:href="#aa"/>
</g>
</g>
<g clip-path="url(#a)">
<defs>
<path id="z" d="m8.2031 72.906h46.875v-4.2031l-26.469-68.703h-10.297l24.906 64.594h-35.016z"/>
</defs>
<g transform="translate(518.18 288.32) scale(.1 -.1)">
<use xlink:href="#c"/>
<use x="63.623047" xlink:href="#f"/>
<use x="95.410156" xlink:href="#z"/>
</g>
</g>
<g clip-path="url(#a)">
<defs>
<path id="y" d="m31.781 34.625q-7.0312 0-11.062-3.7656-4.0156-3.7656-4.0156-10.344 0-6.5938 4.0156-10.359 4.0312-3.7656 11.062-3.7656t11.078 3.7812q4.0625 3.7969 4.0625 10.344 0 6.5781-4.0312 10.344-4.0156 3.7656-11.109 3.7656zm-9.8594 4.1875q-6.3438 1.5625-9.8906 5.9062-3.5312 4.3594-3.5312 10.609 0 8.7344 6.2188 13.812 6.2344 5.0781 17.062 5.0781 10.891 0 17.094-5.0781t6.2031-13.812q0-6.25-3.5469-10.609-3.5312-4.3438-9.8281-5.9062 7.125-1.6562 11.094-6.5 3.9844-4.8281 3.9844-11.797 0-10.609-6.4688-16.281-6.4688-5.6562-18.531-5.6562-12.047 0-18.531 5.6562-6.4688 5.6719-6.4688 16.281 0 6.9688 4 11.797 4.0156 4.8438 11.141 6.5zm-3.6094 15.578q0-5.6562 3.5312-8.8281 3.5469-3.1719 9.9375-3.1719 6.3594 0 9.9375 3.1719 3.5938 3.1719 3.5938 8.8281 0 5.6719-3.5938 8.8438-3.5781 3.1719-9.9375 3.1719-6.3906 0-9.9375-3.1719-3.5312-3.1719-3.5312-8.8438z"/>
</defs>
<g transform="translate(712.99 540.53) scale(.1 -.1)">
<use xlink:href="#c"/>
<use x="63.623047" xlink:href="#f"/>
<use x="95.410156" xlink:href="#y"/>
</g>
</g>
<g clip-path="url(#a)">
<defs>
<path id="ae" d="m10.984 1.5156v8.9844q3.7188-1.7656 7.5156-2.6875 3.8125-0.92188 7.4844-0.92188 9.7656 0 14.906 6.5625 5.1562 6.5625 5.8906 19.953-2.8281-4.2031-7.1875-6.4531-4.3438-2.25-9.6094-2.25-10.938 0-17.312 6.6094-6.375 6.625-6.375 18.109 0 11.219 6.6406 18 6.6406 6.7969 17.672 6.7969 12.656 0 19.312-9.7031 6.6719-9.6875 6.6719-28.141 0-17.234-8.1875-27.516-8.1719-10.281-21.984-10.281-3.7188 0-7.5312 0.73438-3.7969 0.73438-7.9062 2.2031zm19.625 30.906q6.6406 0 10.516 4.5312 3.8906 4.5469 3.8906 12.469 0 7.8594-3.8906 12.422-3.875 4.5625-10.516 4.5625t-10.516-4.5625-3.875-12.422q0-7.9219 3.875-12.469 3.875-4.5312 10.516-4.5312z"/>
</defs>
<g transform="translate(780.05 540.53) scale(.1 -.1)">
<use xlink:href="#c"/>
<use x="63.623047" xlink:href="#f"/>
<use x="95.410156" xlink:href="#ae"/>
</g>
</g>
<g clip-path="url(#a)">
<defs>
<path id="ah" d="m31.781 66.406q-7.6094 0-11.453-7.5-3.8281-7.4844-3.8281-22.531 0-14.984 3.8281-22.484 3.8438-7.5 11.453-7.5 7.6719 0 11.5 7.5 3.8438 7.5 3.8438 22.484 0 15.047-3.8438 22.531-3.8281 7.5-11.5 7.5zm0 7.8125q12.266 0 18.734-9.7031 6.4688-9.6875 6.4688-28.141 0-18.406-6.4688-28.109-6.4688-9.6875-18.734-9.6875-12.25 0-18.719 9.6875-6.4688 9.7031-6.4688 28.109 0 18.453 6.4688 28.141 6.4688 9.7031 18.719 9.7031z"/>
</defs>
<g transform="translate(847.13 540.53) scale(.1 -.1)">
<use xlink:href="#c"/>
<use x="63.623047" xlink:href="#f"/>
<use x="95.410156" xlink:href="#c"/>
<use x="159.033203" xlink:href="#ah"/>
</g>
</g>
<g clip-path="url(#a)">
<g transform="translate(920.58 540.53) scale(.1 -.1)">
<use xlink:href="#c"/>
<use x="63.623047" xlink:href="#f"/>
<use x="95.410156" xlink:href="#c"/>
<use x="159.033203" xlink:href="#c"/>
</g>
</g>
<g clip-path="url(#a)">
<g transform="translate(1120.2 414.76) scale(.1 -.1)">
<use xlink:href="#c"/>
<use x="63.623047" xlink:href="#f"/>
<use x="95.410156" xlink:href="#c"/>
<use x="159.033203" xlink:href="#m"/>
</g>
</g>
<g clip-path="url(#a)">
<g transform="translate(997.23 540.53) scale(.1 -.1)">
<use xlink:href="#c"/>
<use x="63.623047" xlink:href="#f"/>
<use x="95.410156" xlink:href="#c"/>
<use x="159.033203" xlink:href="#aa"/>
</g>
</g>
<g clip-path="url(#a)">
<defs>
<path id="ag" d="m10.797 72.906h38.719v-8.3125h-29.688v-17.859q2.1406 0.73438 4.2812 1.0938 2.1562 0.35938 4.3125 0.35938 12.203 0 19.328-6.6875 7.1406-6.6875 7.1406-18.109 0-11.766-7.3281-18.297-7.3281-6.5156-20.656-6.5156-4.5938 0-9.3594 0.78125-4.75 0.78125-9.8281 2.3438v9.9219q4.3906-2.3906 9.0781-3.5625t9.9062-1.1719q8.4531 0 13.375 4.4375 4.9375 4.4375 4.9375 12.062 0 7.6094-4.9375 12.047-4.9219 4.4531-13.375 4.4531-3.9531 0-7.8906-0.875-3.9219-0.875-8.0156-2.7344z"/>
</defs>
<g transform="translate(1077.1 540.53) scale(.1 -.1)">
<use xlink:href="#c"/>
<use x="63.623047" xlink:href="#f"/>
<use x="95.410156" xlink:href="#c"/>
<use x="159.033203" xlink:href="#ag"/>
</g>
</g>
<g clip-path="url(#a)">
<defs>
<path id="af" d="m33.016 40.375q-6.6406 0-10.531-4.5469-3.875-4.5312-3.875-12.438 0-7.8594 3.875-12.438 3.8906-4.5625 10.531-4.5625t10.516 4.5625q3.875 4.5781 3.875 12.438 0 7.9062-3.875 12.438-3.875 4.5469-10.516 4.5469zm19.578 30.922v-8.9844q-3.7188 1.75-7.5 2.6719-3.7812 0.9375-7.5 0.9375-9.7656 0-14.922-6.5938-5.1406-6.5938-5.875-19.922 2.875 4.25 7.2188 6.5156 4.3594 2.2656 9.5781 2.2656 10.984 0 17.359-6.6719 6.375-6.6562 6.375-18.125 0-11.234-6.6406-18.031-6.6406-6.7812-17.672-6.7812-12.656 0-19.344 9.6875-6.6875 9.7031-6.6875 28.109 0 17.281 8.2031 27.562t22.016 10.281q3.7188 0 7.5-0.73438t7.8906-2.1875z"/>
</defs>
<g transform="translate(1160.1 540.53) scale(.1 -.1)">
<use xlink:href="#c"/>
<use x="63.623047" xlink:href="#f"/>
<use x="95.410156" xlink:href="#c"/>
<use x="159.033203" xlink:href="#af"/>
</g>
</g>
<g clip-path="url(#a)">
<g transform="translate(473.49 540.53) scale(.1 -.1)">
<use xlink:href="#c"/>
<use x="63.623047" xlink:href="#f"/>
<use x="95.410156" xlink:href="#c"/>
<use x="159.033203" xlink:href="#z"/>
</g>
</g>
<g clip-path="url(#a)">
<g transform="translate(556.52 414.76) scale(.1 -.1)">
<use xlink:href="#c"/>
<use x="63.623047" xlink:href="#f"/>
<use x="95.410156" xlink:href="#c"/>
<use x="159.033203" xlink:href="#y"/>
</g>
</g>
<g clip-path="url(#a)">
<g transform="translate(527.78 540.53) scale(.1 -.1)">
<use xlink:href="#c"/>
<use x="63.623047" xlink:href="#f"/>
<use x="95.410156" xlink:href="#c"/>
<use x="159.033203" xlink:href="#ae"/>
</g>
</g>
<g clip-path="url(#a)">
<g transform="translate(585.26 540.53) scale(.1 -.1)">
<use xlink:href="#c"/>
<use x="63.623047" xlink:href="#f"/>
<use x="95.410156" xlink:href="#m"/>
<use x="159.033203" xlink:href="#ah"/>
</g>
</g>
<g clip-path="url(#a)">
<g transform="translate(48.746 540.53) scale(.1 -.1)">
<use xlink:href="#c"/>
<use x="63.623047" xlink:href="#f"/>
<use x="95.410156" xlink:href="#m"/>
<use x="159.033203" xlink:href="#c"/>
</g>
</g>
<g clip-path="url(#a)">
<g transform="translate(58.327 540.53) scale(.1 -.1)">
<use xlink:href="#c"/>
<use x="63.623047" xlink:href="#f"/>
<use x="95.410156" xlink:href="#m"/>
<use x="159.033203" xlink:href="#m"/>
</g>
</g>
<g clip-path="url(#a)">
<g transform="translate(71.101 540.53) scale(.1 -.1)">
<use xlink:href="#c"/>
<use x="63.623047" xlink:href="#f"/>
<use x="95.410156" xlink:href="#m"/>
<use x="159.033203" xlink:href="#n"/>
</g>
</g>
<g clip-path="url(#a)">
<g transform="translate(166.15 288.32) scale(.1 -.1)">
<use xlink:href="#c"/>
<use x="63.623047" xlink:href="#f"/>
<use x="95.410156" xlink:href="#m"/>
<use x="159.033203" xlink:href="#aa"/>
</g>
</g>
<g clip-path="url(#a)">
<g transform="translate(87.068 540.53) scale(.1 -.1)">
<use xlink:href="#c"/>
<use x="63.623047" xlink:href="#f"/>
<use x="95.410156" xlink:href="#m"/>
<use x="159.033203" xlink:href="#ag"/>
</g>
</g>
<g clip-path="url(#a)">
<g transform="translate(106.23 540.53) scale(.1 -.1)">
<use xlink:href="#c"/>
<use x="63.623047" xlink:href="#f"/>
<use x="95.410156" xlink:href="#m"/>
<use x="159.033203" xlink:href="#af"/>
</g>
</g>
<g clip-path="url(#a)">
<g transform="translate(128.58 540.53) scale(.1 -.1)">
<use xlink:href="#c"/>
<use x="63.623047" xlink:href="#f"/>
<use x="95.410156" xlink:href="#m"/>
<use x="159.033203" xlink:href="#z"/>
</g>
</g>
<g clip-path="url(#a)">
<g transform="translate(154.13 540.53) scale(.1 -.1)">
<use xlink:href="#c"/>
<use x="63.623047" xlink:href="#f"/>
<use x="95.410156" xlink:href="#m"/>
<use x="159.033203" xlink:href="#y"/>
</g>
</g>
<g clip-path="url(#a)">
<g transform="translate(182.87 540.53) scale(.1 -.1)">
<use xlink:href="#c"/>
<use x="63.623047" xlink:href="#f"/>
<use x="95.410156" xlink:href="#m"/>
<use x="159.033203" xlink:href="#ae"/>
</g>
</g>
<g clip-path="url(#a)">
<g transform="translate(214.81 540.53) scale(.1 -.1)">
<use xlink:href="#c"/>
<use x="63.623047" xlink:href="#f"/>
<use x="95.410156" xlink:href="#n"/>
<use x="159.033203" xlink:href="#ah"/>
</g>
</g>
<g clip-path="url(#a)">
<g transform="translate(289.33 414.76) scale(.1 -.1)">
<use xlink:href="#c"/>
<use x="63.623047" xlink:href="#f"/>
<use x="95.410156" xlink:href="#n"/>
<use x="159.033203" xlink:href="#c"/>
</g>
</g>
<g clip-path="url(#a)">
<g transform="translate(249.94 540.53) scale(.1 -.1)">
<use xlink:href="#c"/>
<use x="63.623047" xlink:href="#f"/>
<use x="95.410156" xlink:href="#n"/>
<use x="159.033203" xlink:href="#m"/>
</g>
</g>
<g clip-path="url(#a)">
<g transform="translate(288.26 540.53) scale(.1 -.1)">
<use xlink:href="#c"/>
<use x="63.623047" xlink:href="#f"/>
<use x="95.410156" xlink:href="#n"/>
<use x="159.033203" xlink:href="#n"/>
</g>
</g>
<g clip-path="url(#a)">
<g transform="translate(329.78 540.53) scale(.1 -.1)">
<use xlink:href="#c"/>
<use x="63.623047" xlink:href="#f"/>
<use x="95.410156" xlink:href="#n"/>
<use x="159.033203" xlink:href="#aa"/>
</g>
</g>
<g clip-path="url(#a)">
<g transform="translate(433.09 34.275) scale(.1 -.1)">
<use xlink:href="#c"/>
<use x="63.623047" xlink:href="#f"/>
<use x="95.410156" xlink:href="#n"/>
<use x="159.033203" xlink:href="#ag"/>
</g>
</g>
<g clip-path="url(#a)">
<g transform="translate(374.49 540.53) scale(.1 -.1)">
<use xlink:href="#c"/>
<use x="63.623047" xlink:href="#f"/>
<use x="95.410156" xlink:href="#n"/>
<use x="159.033203" xlink:href="#af"/>
</g>
</g>
<g clip-path="url(#a)">
<g transform="translate(645.94 540.53) scale(.1 -.1)">
<use xlink:href="#c"/>
<use x="63.623047" xlink:href="#f"/>
<use x="95.410156" xlink:href="#n"/>
<use x="159.033203" xlink:href="#z"/>
</g>
</g>
<g clip-path="url(#a)">
<g transform="translate(1246.3 540.53) scale(.1 -.1)">
<use xlink:href="#c"/>
<use x="63.623047" xlink:href="#f"/>
<use x="95.410156" xlink:href="#n"/>
<use x="159.033203" xlink:href="#y"/>
</g>
</g>
<defs>
<clipPath id="a">
<rect width="1317.3" height="693.33"/>
</clipPath>
</defs>
</svg>
