<?xml version="1.0" encoding="UTF-8"?>
<!DOCTYPE svg  PUBLIC '-//W3C//DTD SVG 1.1//EN'  'http://www.w3.org/Graphics/SVG/1.1/DTD/svg11.dtd'>
<svg width="1013.3pt" height="533.33pt" version="1.1" viewBox="0 0 1013.3 533.33" xmlns="http://www.w3.org/2000/svg" xmlns:xlink="http://www.w3.org/1999/xlink">
<defs>
<style type="text/css">*{stroke-linecap:butt;stroke-linejoin:round;}</style>
</defs>
<path d="m0 533.33h1013.3v-533.33h-1013.3z" fill="#fff"/>
<g fill="none" stroke="#000">
<path d="m291.49 24.242-245.43 389.43" clip-path="url(#a)"/>
<path d="m291.49 24.242 59.171 97.834" clip-path="url(#a)"/>
<path d="m291.49 24.242 419.56 195.42" clip-path="url(#a)"/>
<path d="m291.49 24.242-233.3 389.43" clip-path="url(#a)"/>
<path d="m46.061 413.67v95.422" clip-path="url(#a)"/>
<path d="m350.66 122.08 232.78 291.59" clip-path="url(#a)" stroke-dasharray="3.7,1.6"/>
<path d="m350.66 122.08-276.31 291.59" clip-path="url(#a)"/>
<path d="m350.66 122.08-124.6 97.587" clip-path="url(#a)"/>
<path d="m350.66 122.08 168.13 291.59" clip-path="url(#a)"/>
<path d="m711.04 219.66-127.61 194.01" clip-path="url(#a)"/>
<path d="m711.04 219.66-58.923 194.01" clip-path="url(#a)"/>
<path d="m711.04 219.66 13.805 194.01" clip-path="url(#a)"/>
<path d="m711.04 219.66 172.73 97.256" clip-path="url(#a)"/>
<path d="m583.43 413.67v95.422" clip-path="url(#a)"/>
<path d="m652.12 413.67v95.422" clip-path="url(#a)"/>
<path d="m724.85 413.67v95.422" clip-path="url(#a)"/>
<path d="m883.77 316.92-82.155 96.749" clip-path="url(#a)"/>
<path d="m883.77 316.92-1.3468 96.749" clip-path="url(#a)"/>
<path d="m883.77 316.92 83.502 96.749" clip-path="url(#a)"/>
<path d="m801.62 413.67v95.422" clip-path="url(#a)"/>
<path d="m882.42 413.67v95.422" clip-path="url(#a)"/>
<path d="m74.343 413.67v95.422" clip-path="url(#a)"/>
<path d="m226.06 219.66-131.52 194.01" clip-path="url(#a)"/>
<path d="m226.06 219.66-42.626 97.256" clip-path="url(#a)"/>
<path d="m226.06 219.66 74.545 194.01" clip-path="url(#a)"/>
<path d="m226.06 219.66 99.596 97.256" clip-path="url(#a)"/>
<path d="m94.545 413.67v95.422" clip-path="url(#a)"/>
<path d="m183.43 316.92-64.646 96.749" clip-path="url(#a)"/>
<path d="m183.43 316.92-36.364 96.749" clip-path="url(#a)"/>
<path d="m183.43 316.92-4.0404 96.749" clip-path="url(#a)"/>
<path d="m183.43 316.92 32.323 96.749" clip-path="url(#a)"/>
<path d="m183.43 316.92 72.727 96.749" clip-path="url(#a)"/>
<path d="m300.61 413.67v95.422" clip-path="url(#a)"/>
<path d="m325.66 316.92-25.051 96.749" clip-path="url(#a)" stroke-dasharray="3.7,1.6"/>
<path d="m325.66 316.92 23.434 96.749" clip-path="url(#a)"/>
<path d="m325.66 316.92 75.96 96.749" clip-path="url(#a)"/>
<path d="m325.66 316.92 132.53 96.749" clip-path="url(#a)"/>
<path d="m325.66 316.92-206.87 96.749" clip-path="url(#a)" stroke-dasharray="3.7,1.6"/>
<path d="m349.09 413.67v95.422" clip-path="url(#a)"/>
<path d="m401.62 413.67v95.422" clip-path="url(#a)"/>
<path d="m458.18 413.67v95.422" clip-path="url(#a)"/>
<path d="m118.79 413.67v95.422" clip-path="url(#a)"/>
<path d="m147.07 413.67v95.422" clip-path="url(#a)"/>
<path d="m179.39 413.67v95.422" clip-path="url(#a)"/>
<path d="m215.76 413.67v95.422" clip-path="url(#a)"/>
<path d="m256.16 413.67v95.422" clip-path="url(#a)"/>
<path d="m313.13 219.66-12.525 194.01" clip-path="url(#a)"/>
<path d="m313.13 219.66 12.525 97.256" clip-path="url(#a)"/>
<path d="m378.55 122.08-332.49 291.59" clip-path="url(#a)"/>
<path d="m378.55 122.08 332.49 97.587" clip-path="url(#a)"/>
<path d="m58.182 413.67v95.422" clip-path="url(#a)"/>
<path d="m518.79 413.67v95.422" clip-path="url(#a)"/>
<path d="m967.27 413.67v95.422" clip-path="url(#a)"/>
</g>
<path d="m172.89 224.19 2.3766-3.7711q1.2796-2.0304-0.75081-3.31l-6.5502-4.1281q-2.0304-1.2796-3.31 0.7508l-2.3766 3.7711q-1.2796 2.0304 0.7508 3.31l6.5502 4.1281q2.0304 1.2796 3.31-0.75081z" clip-path="url(#a)" fill="#fff" stroke="#fff"/>
<g clip-path="url(#a)">
<defs>
<path id="q" d="m9.8125 72.906h9.8594v-64.609h35.5v-8.2969h-45.359z"/>
</defs>
<g transform="translate(169.45 222.02) rotate(-57.78) scale(.08 -.08)">
<use xlink:href="#q"/>
</g>
</g>
<path d="m314.15 73.831 3.1135 5.1479q1.242 2.0536 3.2957 0.81157l6.625-4.0069q2.0536-1.242 0.81157-3.2957l-3.1135-5.1479q-1.242-2.0536-3.2957-0.81157l-6.625 4.0069q-2.0536 1.242-0.81157 3.2957z" clip-path="url(#a)" fill="#fff" stroke="#fff"/>
<g clip-path="url(#a)">
<defs>
<path id="v" d="m9.8125 72.906h9.8594v-29.891h35.844v29.891h9.8594v-72.906h-9.8594v34.719h-35.844v-34.719h-9.8594z"/>
</defs>
<g transform="translate(317.63 71.728) rotate(58.834) scale(.08 -.08)">
<use xlink:href="#v"/>
</g>
</g>
<path d="m495.89 126.37 5.4537 2.5402q2.1756 1.0133 3.1889-1.1622l3.2691-7.0185q1.0133-2.1756-1.1622-3.1889l-5.4537-2.5402q-2.1756-1.0133-3.1889 1.1622l-3.2691 7.0185q-1.0133 2.1756 1.1622 3.1889z" clip-path="url(#a)" fill="#fff" stroke="#fff"/>
<g clip-path="url(#a)">
<g transform="translate(497.61 122.68) rotate(24.975) scale(.08 -.08)">
<use xlink:href="#v"/>
</g>
</g>
<path d="m178.71 224.69 3.009-5.0226q1.2334-2.0588-0.82538-3.2922l-6.6418-3.9791q-2.0588-1.2334-3.2922 0.82538l-3.009 5.0226q-1.2334 2.0588 0.82538 3.2922l6.6418 3.9791q2.0588 1.2334 3.2922-0.82538z" clip-path="url(#a)" fill="#fff" stroke="#fff"/>
<g clip-path="url(#a)">
<defs>
<path id="w" d="m8.6875 72.906h9.9219v-44.297q0-11.719 4.2344-16.875 4.25-5.1406 13.781-5.1406 9.4688 0 13.719 5.1406 4.25 5.1562 4.25 16.875v44.297h9.9062v-45.516q0-14.25-7.0625-21.531-7.0469-7.2812-20.812-7.2812-13.828 0-20.891 7.2812-7.0469 7.2812-7.0469 21.531z"/>
</defs>
<g transform="translate(175.22 222.6) rotate(-59.074) scale(.08 -.08)">
<use xlink:href="#w"/>
</g>
</g>
<path d="m39.789 444.48v33.808q0 2.4 2.4 2.4h7.7425q2.4 0 2.4-2.4v-33.808q0-2.4-2.4-2.4h-7.7425q-2.4 0-2.4 2.4z" clip-path="url(#a)" fill="#fff" stroke="#fff"/>
<g clip-path="url(#a)">
<defs>
<path id="l" d="m-0.29688 72.906h61.672v-8.3125h-25.875v-64.594h-9.9062v64.594h-25.891z"/>
<path id="d" d="m56.203 29.594v-4.3906h-41.312q0.59375-9.2812 5.5938-14.141t13.938-4.8594q5.1719 0 10.031 1.2656t9.6562 3.8125v-8.5q-4.8438-2.0469-9.9219-3.125t-10.297-1.0781q-13.094 0-20.734 7.6094-7.6406 7.625-7.6406 20.625 0 13.422 7.25 21.297 7.25 7.8906 19.562 7.8906 11.031 0 17.453-7.1094 6.4219-7.0938 6.4219-19.297zm-8.9844 2.6406q-0.09375 7.3594-4.125 11.75-4.0312 4.4062-10.672 4.4062-7.5156 0-12.031-4.25t-5.2031-11.969z"/>
<path id="k" d="m41.109 46.297q-1.5156 0.875-3.2969 1.2812-1.7812 0.42188-3.9219 0.42188-7.625 0-11.703-4.9531t-4.0781-14.234v-28.812h-9.0312v54.688h9.0312v-8.5q2.8438 4.9844 7.375 7.3906 4.5469 2.4219 11.047 2.4219 0.92188 0 2.0469-0.125 1.125-0.10938 2.4844-0.35938z"/>
<path id="f" d="m52 44.188q3.375 6.0625 8.0625 8.9375t11.031 2.875q8.5469 0 13.188-5.9844 4.6406-5.9688 4.6406-17v-33.016h-9.0312v32.719q0 7.8594-2.7969 11.656-2.7812 3.8125-8.4844 3.8125-6.9844 0-11.047-4.6406-4.0469-4.625-4.0469-12.641v-30.906h-9.0312v32.719q0 7.9062-2.7812 11.688t-8.5938 3.7812q-6.8906 0-10.953-4.6562-4.0469-4.6562-4.0469-12.625v-30.906h-9.0312v54.688h9.0312v-8.5q3.0781 5.0312 7.375 7.4219t10.203 2.3906q5.9688 0 10.141-3.0312 4.1719-3.0156 6.1719-8.7812z"/>
<path id="h" d="m9.4219 54.688h8.9844v-54.688h-8.9844zm0 21.297h8.9844v-11.391h-8.9844z"/>
<path id="j" d="m54.891 33.016v-33.016h-8.9844v32.719q0 7.7656-3.0312 11.609-3.0312 3.8594-9.0781 3.8594-7.2812 0-11.484-4.6406-4.2031-4.625-4.2031-12.641v-30.906h-9.0312v54.688h9.0312v-8.5q3.2344 4.9375 7.5938 7.375 4.375 2.4375 10.094 2.4375 9.4219 0 14.25-5.8281 4.8438-5.8281 4.8438-17.156z"/>
<path id="i" d="m34.281 27.484q-10.891 0-15.094-2.4844t-4.2031-8.5q0-4.7812 3.1562-7.5938 3.1562-2.7969 8.5625-2.7969 7.4844 0 12 5.2969t4.5156 14.078v2zm17.922 3.7188v-31.203h-8.9844v8.2969q-3.0781-4.9688-7.6719-7.3438t-11.234-2.375q-8.3906 0-13.359 4.7188-4.9531 4.7188-4.9531 12.625 0 9.2188 6.1719 13.906 6.1875 4.6875 18.438 4.6875h12.609v0.89062q0 6.2031-4.0781 9.5938t-11.453 3.3906q-4.6875 0-9.1406-1.125-4.4375-1.125-8.5312-3.375v8.3125q4.9219 1.9062 9.5625 2.8438 4.6406 0.95312 9.0312 0.95312 11.875 0 17.734-6.1562 5.8594-6.1406 5.8594-18.641z"/>
<path id="g" d="m9.4219 75.984h8.9844v-75.984h-8.9844z"/>
</defs>
<g transform="translate(43.853 444.48) rotate(90) scale(.08 -.08)">
<use xlink:href="#l"/>
<use x="44.083984" xlink:href="#d"/>
<use x="105.607422" xlink:href="#k"/>
<use x="144.970703" xlink:href="#f"/>
<use x="242.382812" xlink:href="#h"/>
<use x="270.166016" xlink:href="#j"/>
<use x="333.544922" xlink:href="#i"/>
<use x="394.824219" xlink:href="#g"/>
</g>
</g>
<path d="m460.44 269.65 3.4142 4.2769q1.4973 1.8756 3.373 0.37832l6.0509-4.8304q1.8756-1.4973 0.37832-3.373l-3.4142-4.2769q-1.4973-1.8756-3.373-0.37832l-6.0509 4.8304q-1.8756 1.4973-0.37832 3.373z" clip-path="url(#a)" fill="#fff" stroke="#fff"/>
<g clip-path="url(#a)">
<defs>
<path id="n" d="m34.188 63.188-13.391-36.281h26.812zm-5.5781 9.7188h11.188l27.781-72.906h-10.25l-6.6406 18.703h-32.859l-6.6406-18.703h-10.406z"/>
</defs>
<g transform="translate(463.61 267.11) rotate(51.4) scale(.08 -.08)">
<use xlink:href="#n"/>
</g>
</g>
<path d="m215.39 273.94 3.3179-3.5014q1.6508-1.7421-0.091286-3.3929l-5.62-5.3255q-1.7421-1.6508-3.3929 0.091286l-3.3179 3.5014q-1.6508 1.7421 0.091286 3.3929l5.62 5.3255q1.7421 1.6508 3.3929-0.091286z" clip-path="url(#a)" fill="#fff" stroke="#fff"/>
<g clip-path="url(#a)">
<defs>
<path id="u" d="m19.672 64.797v-27.391h12.406q6.8906 0 10.641 3.5625 3.7656 3.5625 3.7656 10.156 0 6.5469-3.7656 10.109-3.75 3.5625-10.641 3.5625zm-9.8594 8.1094h22.266q12.266 0 18.531-5.5469 6.2812-5.5469 6.2812-16.234 0-10.797-6.2812-16.312-6.2656-5.5156-18.531-5.5156h-12.406v-29.297h-9.8594z"/>
</defs>
<g transform="translate(212.44 271.14) rotate(-46.541) scale(.08 -.08)">
<use xlink:href="#u"/>
</g>
</g>
<path d="m290.07 177.49 4.3083-3.3744q1.8894-1.4799 0.40957-3.3693l-4.7741-6.0954q-1.4799-1.8894-3.3693-0.40957l-4.3083 3.3744q-1.8894 1.4799-0.40957 3.3693l4.7741 6.0954q1.4799 1.8894 3.3693 0.40957z" clip-path="url(#a)" fill="#fff" stroke="#fff"/>
<g clip-path="url(#a)">
<g transform="translate(287.57 174.3) rotate(-38.069) scale(.08 -.08)">
<use xlink:href="#n"/>
</g>
</g>
<path d="m427.83 268.47 2.9246 5.0722q1.1988 2.0791 3.278 0.88032l6.7074-3.8675q2.0791-1.1988 0.88032-3.278l-2.9246-5.0722q-1.1988-2.0791-3.278-0.88032l-6.7074 3.8675q-2.0791 1.1988-0.88032 3.278z" clip-path="url(#a)" fill="#fff" stroke="#fff"/>
<g clip-path="url(#a)">
<g transform="translate(431.35 266.44) rotate(60.032) scale(.08 -.08)">
<use xlink:href="#w"/>
</g>
</g>
<path d="m650.97 322.4 3.0074-4.5721q1.3189-2.0051-0.68623-3.324l-6.4686-4.2548q-2.0051-1.3189-3.324 0.68623l-3.0074 4.5721q-1.3189 2.0051 0.68623 3.324l6.4686 4.2548q2.0051 1.3189 3.324-0.68623z" clip-path="url(#a)" fill="#fff" stroke="#fff"/>
<g clip-path="url(#a)">
<g transform="translate(647.58 320.17) rotate(-56.665) scale(.08 -.08)">
<use xlink:href="#n"/>
</g>
</g>
<path d="m686.88 320.8 1.4018-4.6156q0.69746-2.2964-1.599-2.9939l-7.4084-2.25q-2.2964-0.69746-2.9939 1.599l-1.4018 4.6156q-0.69746 2.2964 1.599 2.9939l7.4084 2.25q2.2964 0.69746 2.9939-1.599z" clip-path="url(#a)" fill="#fff" stroke="#fff"/>
<g clip-path="url(#a)">
<g transform="translate(682.99 319.62) rotate(-73.106) scale(.08 -.08)">
<use xlink:href="#u"/>
</g>
</g>
<path d="m711.5 314.38 0.38842 5.4587q0.17034 2.3939 2.5643 2.2236l7.723-0.54954q2.3939-0.17034 2.2236-2.5643l-0.38842-5.4587q-0.17034-2.3939-2.5643-2.2236l-7.723 0.54954q-2.3939 0.17034-2.2236 2.5643z" clip-path="url(#a)" fill="#fff" stroke="#fff"/>
<g clip-path="url(#a)">
<g transform="translate(715.55 314.09) rotate(85.93) scale(.08 -.08)">
<use xlink:href="#n"/>
</g>
</g>
<path d="m791.65 272.25 5.3676 3.0223q2.0913 1.1775 3.2688-0.91376l3.7987-6.7465q1.1775-2.0913-0.91376-3.2688l-5.3676-3.0223q-2.0913-1.1775-3.2688 0.91376l-3.7987 6.7465q-1.1775 2.0913 0.91376 3.2688z" clip-path="url(#a)" fill="#fff" stroke="#fff"/>
<g clip-path="url(#a)">
<defs>
<path id="t" d="m19.672 64.797v-56.688h11.922q15.094 0 22.094 6.8281 7 6.8438 7 21.594 0 14.641-7 21.453t-22.094 6.8125zm-9.8594 8.1094h20.266q21.188 0 31.094-8.8125 9.9219-8.8125 9.9219-27.562 0-18.859-9.9688-27.703-9.9531-8.8281-31.047-8.8281h-20.266z"/>
</defs>
<g transform="translate(793.64 268.7) rotate(29.382) scale(.08 -.08)">
<use xlink:href="#t"/>
</g>
</g>
<path d="m577.16 444.48v33.808q0 2.4 2.4 2.4h7.7425q2.4 0 2.4-2.4v-33.808q0-2.4-2.4-2.4h-7.7425q-2.4 0-2.4 2.4z" clip-path="url(#a)" fill="#fff" stroke="#fff"/>
<g clip-path="url(#a)">
<g transform="translate(581.23 444.48) rotate(90) scale(.08 -.08)">
<use xlink:href="#l"/>
<use x="44.083984" xlink:href="#d"/>
<use x="105.607422" xlink:href="#k"/>
<use x="144.970703" xlink:href="#f"/>
<use x="242.382812" xlink:href="#h"/>
<use x="270.166016" xlink:href="#j"/>
<use x="333.544922" xlink:href="#i"/>
<use x="394.824219" xlink:href="#g"/>
</g>
</g>
<path d="m645.85 444.48v33.808q0 2.4 2.4 2.4h7.7425q2.4 0 2.4-2.4v-33.808q0-2.4-2.4-2.4h-7.7425q-2.4 0-2.4 2.4z" clip-path="url(#a)" fill="#fff" stroke="#fff"/>
<g clip-path="url(#a)">
<g transform="translate(649.91 444.48) rotate(90) scale(.08 -.08)">
<use xlink:href="#l"/>
<use x="44.083984" xlink:href="#d"/>
<use x="105.607422" xlink:href="#k"/>
<use x="144.970703" xlink:href="#f"/>
<use x="242.382812" xlink:href="#h"/>
<use x="270.166016" xlink:href="#j"/>
<use x="333.544922" xlink:href="#i"/>
<use x="394.824219" xlink:href="#g"/>
</g>
</g>
<path d="m718.58 444.48v33.808q0 2.4 2.4 2.4h7.7425q2.4 0 2.4-2.4v-33.808q0-2.4-2.4-2.4h-7.7425q-2.4 0-2.4 2.4z" clip-path="url(#a)" fill="#fff" stroke="#fff"/>
<g clip-path="url(#a)">
<g transform="translate(722.64 444.48) rotate(90) scale(.08 -.08)">
<use xlink:href="#l"/>
<use x="44.083984" xlink:href="#d"/>
<use x="105.607422" xlink:href="#k"/>
<use x="144.970703" xlink:href="#f"/>
<use x="242.382812" xlink:href="#h"/>
<use x="270.166016" xlink:href="#j"/>
<use x="333.544922" xlink:href="#i"/>
<use x="394.824219" xlink:href="#g"/>
</g>
</g>
<path d="m845.84 371.28 3.272-3.8532q1.5535-1.8294-0.27596-3.3829l-5.9018-5.0115q-1.8294-1.5535-3.3829 0.27596l-3.272 3.8532q-1.5535 1.8294 0.27596 3.3829l5.9018 5.0115q1.8294 1.5535 3.3829-0.27596z" clip-path="url(#a)" fill="#fff" stroke="#fff"/>
<g clip-path="url(#a)">
<defs>
<path id="ao" d="m9.8125 72.906h46.094v-8.3125h-36.234v-21.578h34.719v-8.2969h-34.719v-26.422h37.109v-8.2969h-46.969z"/>
</defs>
<g transform="translate(842.74 368.65) rotate(-49.664) scale(.08 -.08)">
<use xlink:href="#ao"/>
</g>
</g>
<path d="m889.33 368.18 0.077757-5.5857q0.033406-2.3998-2.3664-2.4332l-7.7418-0.10777q-2.3998-0.033407-2.4332 2.3664l-0.077757 5.5857q-0.033406 2.3998 2.3664 2.4332l7.7418 0.10777q2.3998 0.033406 2.4332-2.3664z" clip-path="url(#a)" fill="#fff" stroke="#fff"/>
<g clip-path="url(#a)">
<defs>
<path id="ap" d="m64.406 67.281v-10.391q-4.9844 4.6406-10.625 6.9219-5.6406 2.2969-11.984 2.2969-12.5 0-19.141-7.6406t-6.6406-22.094q0-14.406 6.6406-22.047t19.141-7.6406q6.3438 0 11.984 2.2969t10.625 6.9375v-10.312q-5.1719-3.5156-10.969-5.2812-5.7812-1.75-12.219-1.75-16.562 0-26.094 10.125-9.5156 10.141-9.5156 27.672 0 17.578 9.5156 27.703 9.5312 10.141 26.094 10.141 6.5312 0 12.312-1.7344 5.7969-1.7344 10.875-5.2031z"/>
</defs>
<g transform="translate(885.27 368.12) rotate(-89.202) scale(.08 -.08)">
<use xlink:href="#ap"/>
</g>
</g>
<path d="m918.86 367.18 3.8255 4.4324q1.5681 1.8169 3.385 0.24878l5.8613-5.0588q1.8169-1.5681 0.24877-3.385l-3.8255-4.4324q-1.5681-1.8169-3.385-0.24877l-5.8613 5.0588q-1.8169 1.5681-0.24877 3.385z" clip-path="url(#a)" fill="#fff" stroke="#fff"/>
<g clip-path="url(#a)">
<g transform="translate(921.94 364.52) rotate(49.203) scale(.08 -.08)">
<use xlink:href="#w"/>
</g>
</g>
<path d="m795.34 444.48v33.808q0 2.4 2.4 2.4h7.7425q2.4 0 2.4-2.4v-33.808q0-2.4-2.4-2.4h-7.7425q-2.4 0-2.4 2.4z" clip-path="url(#a)" fill="#fff" stroke="#fff"/>
<g clip-path="url(#a)">
<g transform="translate(799.41 444.48) rotate(90) scale(.08 -.08)">
<use xlink:href="#l"/>
<use x="44.083984" xlink:href="#d"/>
<use x="105.607422" xlink:href="#k"/>
<use x="144.970703" xlink:href="#f"/>
<use x="242.382812" xlink:href="#h"/>
<use x="270.166016" xlink:href="#j"/>
<use x="333.544922" xlink:href="#i"/>
<use x="394.824219" xlink:href="#g"/>
</g>
</g>
<path d="m876.15 444.48v33.808q0 2.4 2.4 2.4h7.7425q2.4 0 2.4-2.4v-33.808q0-2.4-2.4-2.4h-7.7425q-2.4 0-2.4 2.4z" clip-path="url(#a)" fill="#fff" stroke="#fff"/>
<g clip-path="url(#a)">
<g transform="translate(880.22 444.48) rotate(90) scale(.08 -.08)">
<use xlink:href="#l"/>
<use x="44.083984" xlink:href="#d"/>
<use x="105.607422" xlink:href="#k"/>
<use x="144.970703" xlink:href="#f"/>
<use x="242.382812" xlink:href="#h"/>
<use x="270.166016" xlink:href="#j"/>
<use x="333.544922" xlink:href="#i"/>
<use x="394.824219" xlink:href="#g"/>
</g>
</g>
<path d="m68.072 444.48v33.808q0 2.4 2.4 2.4h7.7425q2.4 0 2.4-2.4v-33.808q0-2.4-2.4-2.4h-7.7425q-2.4 0-2.4 2.4z" clip-path="url(#a)" fill="#fff" stroke="#fff"/>
<g clip-path="url(#a)">
<g transform="translate(72.136 444.48) rotate(90) scale(.08 -.08)">
<use xlink:href="#l"/>
<use x="44.083984" xlink:href="#d"/>
<use x="105.607422" xlink:href="#k"/>
<use x="144.970703" xlink:href="#f"/>
<use x="242.382812" xlink:href="#h"/>
<use x="270.166016" xlink:href="#j"/>
<use x="333.544922" xlink:href="#i"/>
<use x="394.824219" xlink:href="#g"/>
</g>
</g>
<path d="m163.93 322.49 3.1191-4.6012q1.3467-1.9866-0.63988-3.3332l-6.4087-4.3445q-1.9866-1.3467-3.3332 0.63988l-3.1191 4.6012q-1.3467 1.9866 0.63988 3.3332l6.4087 4.3445q1.9866 1.3467 3.3332-0.63988z" clip-path="url(#a)" fill="#fff" stroke="#fff"/>
<g clip-path="url(#a)">
<defs>
<path id="x" d="m44.391 34.188q3.1719-1.0781 6.1719-4.5938t6.0312-9.6719l10.016-19.922h-10.609l-9.3125 18.703q-3.625 7.3281-7.0156 9.7188t-9.25 2.3906h-10.75v-30.812h-9.8594v72.906h22.266q12.5 0 18.656-5.2344 6.1562-5.2188 6.1562-15.766 0-6.8906-3.2031-11.438-3.2031-4.5312-9.2969-6.2812zm-24.719 30.609v-25.875h12.406q7.125 0 10.766 3.2969t3.6406 9.6875-3.6406 9.6406-10.766 3.25z"/>
</defs>
<g transform="translate(160.57 320.21) rotate(-55.867) scale(.08 -.08)">
<use xlink:href="#x"/>
</g>
</g>
<path d="m209.28 273.56 2.4151-5.5102q0.96342-2.1981-1.2347-3.1616l-7.0913-3.108q-2.1981-0.96342-3.1616 1.2347l-2.4151 5.5102q-0.96342 2.1981 1.2347 3.1616l7.0913 3.108q2.1981 0.96342 3.1616-1.2347z" clip-path="url(#a)" fill="#fff" stroke="#fff"/>
<g clip-path="url(#a)">
<g transform="translate(205.56 271.93) rotate(-66.333) scale(.08 -.08)">
<use xlink:href="#v"/>
</g>
</g>
<path d="m256.68 316.84 1.5988 4.1609q0.86082 2.2403 3.1011 1.3795l7.2273-2.7771q2.2403-0.86083 1.3795-3.1011l-1.5988-4.1609q-0.86083-2.2403-3.1011-1.3795l-7.2273 2.7771q-2.2403 0.86082-1.3795 3.1011z" clip-path="url(#a)" fill="#fff" stroke="#fff"/>
<g clip-path="url(#a)">
<g transform="translate(260.47 315.38) rotate(68.981) scale(.08 -.08)">
<use xlink:href="#q"/>
</g>
</g>
<path d="m269.32 270.68 4.3044 4.2033q1.7171 1.6768 3.3939-0.040336l5.4093-5.5394q1.6768-1.7171-0.040336-3.3939l-4.3044-4.2033q-1.7171-1.6768-3.3939 0.040336l-5.4093 5.5395q-1.6768 1.7171 0.040336 3.3939z" clip-path="url(#a)" fill="#fff" stroke="#fff"/>
<g clip-path="url(#a)">
<g transform="translate(272.16 267.77) rotate(44.319) scale(.08 -.08)">
<use xlink:href="#v"/>
</g>
</g>
<path d="m88.274 444.48v33.808q0 2.4 2.4 2.4h7.7425q2.4 0 2.4-2.4v-33.808q0-2.4-2.4-2.4h-7.7425q-2.4 0-2.4 2.4z" clip-path="url(#a)" fill="#fff" stroke="#fff"/>
<g clip-path="url(#a)">
<g transform="translate(92.338 444.48) rotate(90) scale(.08 -.08)">
<use xlink:href="#l"/>
<use x="44.083984" xlink:href="#d"/>
<use x="105.607422" xlink:href="#k"/>
<use x="144.970703" xlink:href="#f"/>
<use x="242.382812" xlink:href="#h"/>
<use x="270.166016" xlink:href="#j"/>
<use x="333.544922" xlink:href="#i"/>
<use x="394.824219" xlink:href="#g"/>
</g>
</g>
<path d="m154.81 371.05 3.0404-4.5502q1.3334-1.9955-0.66214-3.3289l-6.4376-4.3015q-1.9955-1.3334-3.3289 0.66214l-3.0404 4.5502q-1.3334 1.9955 0.66214 3.3289l6.4376 4.3015q1.9955 1.3334 3.3289-0.66214z" clip-path="url(#a)" fill="#fff" stroke="#fff"/>
<g clip-path="url(#a)">
<g transform="translate(151.43 368.8) rotate(-56.25) scale(.08 -.08)">
<use xlink:href="#n"/>
</g>
</g>
<path d="m170.04 370.38 2.1672-5.7662q0.84438-2.2466-1.4022-3.0909l-7.2475-2.724q-2.2466-0.84438-3.0909 1.4022l-2.1672 5.7662q-0.84438 2.2466 1.4022 3.0909l7.2475 2.724q2.2466 0.84438 3.0909-1.4022z" clip-path="url(#a)" fill="#fff" stroke="#fff"/>
<g clip-path="url(#a)">
<g transform="translate(166.24 368.95) rotate(-69.401) scale(.08 -.08)">
<use xlink:href="#t"/>
</g>
</g>
<path d="m187.55 368.63 0.25703-6.1546q0.10014-2.3979-2.2978-2.4981l-7.7358-0.32306q-2.3979-0.10014-2.4981 2.2978l-0.25703 6.1546q-0.10014 2.3979 2.2978 2.498l7.7358 0.32306q2.3979 0.10014 2.4981-2.2978z" clip-path="url(#a)" fill="#fff" stroke="#fff"/>
<g clip-path="url(#a)">
<g transform="translate(183.49 368.46) rotate(-87.609) scale(.08 -.08)">
<use xlink:href="#t"/>
</g>
</g>
<path d="m192.78 364.69 1.7341 5.1905q0.7605 2.2763 3.0368 1.5158l7.3435-2.4534q2.2763-0.7605 1.5158-3.0368l-1.7341-5.1905q-0.7605-2.2763-3.0368-1.5158l-7.3435 2.4534q-2.2763 0.7605-1.5158 3.0368z" clip-path="url(#a)" fill="#fff" stroke="#fff"/>
<g clip-path="url(#a)">
<g transform="translate(196.64 363.4) rotate(71.526) scale(.08 -.08)">
<use xlink:href="#n"/>
</g>
</g>
<path d="m213.34 367.14 2.8985 3.8558q1.4421 1.9184 3.3605 0.47632l6.1889-4.6523q1.9184-1.4421 0.47632-3.3605l-2.8985-3.8558q-1.4421-1.9184-3.3605-0.47632l-6.1889 4.6523q-1.9184 1.4421-0.47632 3.3605z" clip-path="url(#a)" fill="#fff" stroke="#fff"/>
<g clip-path="url(#a)">
<g transform="translate(216.58 364.69) rotate(53.067) scale(.08 -.08)">
<use xlink:href="#u"/>
</g>
</g>
<path d="m294.33 444.48v33.808q0 2.4 2.4 2.4h7.7425q2.4 0 2.4-2.4v-33.808q0-2.4-2.4-2.4h-7.7425q-2.4 0-2.4 2.4z" clip-path="url(#a)" fill="#fff" stroke="#fff"/>
<g clip-path="url(#a)">
<g transform="translate(298.4 444.48) rotate(90) scale(.08 -.08)">
<use xlink:href="#l"/>
<use x="44.083984" xlink:href="#d"/>
<use x="105.607422" xlink:href="#k"/>
<use x="144.970703" xlink:href="#f"/>
<use x="242.382812" xlink:href="#h"/>
<use x="270.166016" xlink:href="#j"/>
<use x="333.544922" xlink:href="#i"/>
<use x="394.824219" xlink:href="#g"/>
</g>
</g>
<path d="m318.43 369.85 1.544-5.9633q0.60158-2.3234-1.7218-2.925l-7.4953-1.9407q-2.3234-0.60158-2.925 1.7218l-1.544 5.9633q-0.60158 2.3234 1.7218 2.925l7.4953 1.9407q2.3234 0.60158 2.925-1.7218z" clip-path="url(#a)" fill="#fff" stroke="#fff"/>
<g clip-path="url(#a)">
<g transform="translate(314.5 368.83) rotate(-75.484) scale(.08 -.08)">
<use xlink:href="#t"/>
</g>
</g>
<path d="m330.71 364.43 1.1356 4.6882q0.56499 2.3326 2.8975 1.7676l7.5249-1.8227q2.3326-0.56499 1.7676-2.8975l-1.1356-4.6882q-0.56499-2.3326-2.8975-1.7676l-7.5249 1.8227q-2.3326 0.56499-1.7676 2.8975z" clip-path="url(#a)" fill="#fff" stroke="#fff"/>
<g clip-path="url(#a)">
<g transform="translate(334.66 363.47) rotate(76.384) scale(.08 -.08)">
<use xlink:href="#u"/>
</g>
</g>
<path d="m356.8 366.75 3.804 4.8451q1.4821 1.8877 3.3698 0.40563l6.0898-4.7812q1.8877-1.4821 0.40563-3.3698l-3.804-4.8451q-1.4821-1.8877-3.3698-0.40563l-6.0898 4.7812q-1.8877 1.4821-0.40563 3.3698z" clip-path="url(#a)" fill="#fff" stroke="#fff"/>
<g clip-path="url(#a)">
<g transform="translate(360 364.24) rotate(51.864) scale(.08 -.08)">
<use xlink:href="#t"/>
</g>
</g>
<path d="m386.36 369 3.7163 2.713q1.9384 1.4151 3.3535-0.52329l4.5652-6.2534q1.4151-1.9384-0.52329-3.3535l-3.7163-2.7131q-1.9384-1.4151-3.3535 0.52329l-4.5652 6.2534q-1.4151 1.9384 0.52329 3.3535z" clip-path="url(#a)" fill="#fff" stroke="#fff"/>
<g clip-path="url(#a)">
<defs>
<path id="an" d="m9.8125 72.906h41.891v-8.3125h-32.031v-21.484h28.906v-8.2969h-28.906v-34.812h-9.8594z"/>
</defs>
<g transform="translate(388.76 365.72) rotate(36.131) scale(.08 -.08)">
<use xlink:href="#an"/>
</g>
</g>
<path d="m222.4 372.13 4.9572-2.3184q2.174-1.0167 1.1573-3.1907l-3.28-7.0134q-1.0167-2.174-3.1907-1.1573l-4.9572 2.3184q-2.174 1.0167-1.1573 3.1907l3.28 7.0134q1.0167 2.174 3.1907 1.1573z" clip-path="url(#a)" fill="#fff" stroke="#fff"/>
<g clip-path="url(#a)">
<g transform="translate(220.68 368.45) rotate(-25.065) scale(.08 -.08)">
<use xlink:href="#n"/>
</g>
</g>
<path d="m342.82 444.48v33.808q0 2.4 2.4 2.4h7.7425q2.4 0 2.4-2.4v-33.808q0-2.4-2.4-2.4h-7.7425q-2.4 0-2.4 2.4z" clip-path="url(#a)" fill="#fff" stroke="#fff"/>
<g clip-path="url(#a)">
<g transform="translate(346.88 444.48) rotate(90) scale(.08 -.08)">
<use xlink:href="#l"/>
<use x="44.083984" xlink:href="#d"/>
<use x="105.607422" xlink:href="#k"/>
<use x="144.970703" xlink:href="#f"/>
<use x="242.382812" xlink:href="#h"/>
<use x="270.166016" xlink:href="#j"/>
<use x="333.544922" xlink:href="#i"/>
<use x="394.824219" xlink:href="#g"/>
</g>
</g>
<path d="m395.34 444.48v33.808q0 2.4 2.4 2.4h7.7425q2.4 0 2.4-2.4v-33.808q0-2.4-2.4-2.4h-7.7425q-2.4 0-2.4 2.4z" clip-path="url(#a)" fill="#fff" stroke="#fff"/>
<g clip-path="url(#a)">
<g transform="translate(399.41 444.48) rotate(90) scale(.08 -.08)">
<use xlink:href="#l"/>
<use x="44.083984" xlink:href="#d"/>
<use x="105.607422" xlink:href="#k"/>
<use x="144.970703" xlink:href="#f"/>
<use x="242.382812" xlink:href="#h"/>
<use x="270.166016" xlink:href="#j"/>
<use x="333.544922" xlink:href="#i"/>
<use x="394.824219" xlink:href="#g"/>
</g>
</g>
<path d="m451.91 444.48v33.808q0 2.4 2.4 2.4h7.7425q2.4 0 2.4-2.4v-33.808q0-2.4-2.4-2.4h-7.7425q-2.4 0-2.4 2.4z" clip-path="url(#a)" fill="#fff" stroke="#fff"/>
<g clip-path="url(#a)">
<g transform="translate(455.97 444.48) rotate(90) scale(.08 -.08)">
<use xlink:href="#l"/>
<use x="44.083984" xlink:href="#d"/>
<use x="105.607422" xlink:href="#k"/>
<use x="144.970703" xlink:href="#f"/>
<use x="242.382812" xlink:href="#h"/>
<use x="270.166016" xlink:href="#j"/>
<use x="333.544922" xlink:href="#i"/>
<use x="394.824219" xlink:href="#g"/>
</g>
</g>
<path d="m112.52 444.48v33.808q0 2.4 2.4 2.4h7.7425q2.4 0 2.4-2.4v-33.808q0-2.4-2.4-2.4h-7.7425q-2.4 0-2.4 2.4z" clip-path="url(#a)" fill="#fff" stroke="#fff"/>
<g clip-path="url(#a)">
<g transform="translate(116.58 444.48) rotate(90) scale(.08 -.08)">
<use xlink:href="#l"/>
<use x="44.083984" xlink:href="#d"/>
<use x="105.607422" xlink:href="#k"/>
<use x="144.970703" xlink:href="#f"/>
<use x="242.382812" xlink:href="#h"/>
<use x="270.166016" xlink:href="#j"/>
<use x="333.544922" xlink:href="#i"/>
<use x="394.824219" xlink:href="#g"/>
</g>
</g>
<path d="m140.8 444.48v33.808q0 2.4 2.4 2.4h7.7425q2.4 0 2.4-2.4v-33.808q0-2.4-2.4-2.4h-7.7425q-2.4 0-2.4 2.4z" clip-path="url(#a)" fill="#fff" stroke="#fff"/>
<g clip-path="url(#a)">
<g transform="translate(144.86 444.48) rotate(90) scale(.08 -.08)">
<use xlink:href="#l"/>
<use x="44.083984" xlink:href="#d"/>
<use x="105.607422" xlink:href="#k"/>
<use x="144.970703" xlink:href="#f"/>
<use x="242.382812" xlink:href="#h"/>
<use x="270.166016" xlink:href="#j"/>
<use x="333.544922" xlink:href="#i"/>
<use x="394.824219" xlink:href="#g"/>
</g>
</g>
<path d="m173.12 444.48v33.808q0 2.4 2.4 2.4h7.7425q2.4 0 2.4-2.4v-33.808q0-2.4-2.4-2.4h-7.7425q-2.4 0-2.4 2.4z" clip-path="url(#a)" fill="#fff" stroke="#fff"/>
<g clip-path="url(#a)">
<g transform="translate(177.19 444.48) rotate(90) scale(.08 -.08)">
<use xlink:href="#l"/>
<use x="44.083984" xlink:href="#d"/>
<use x="105.607422" xlink:href="#k"/>
<use x="144.970703" xlink:href="#f"/>
<use x="242.382812" xlink:href="#h"/>
<use x="270.166016" xlink:href="#j"/>
<use x="333.544922" xlink:href="#i"/>
<use x="394.824219" xlink:href="#g"/>
</g>
</g>
<path d="m209.49 444.48v33.808q0 2.4 2.4 2.4h7.7425q2.4 0 2.4-2.4v-33.808q0-2.4-2.4-2.4h-7.7425q-2.4 0-2.4 2.4z" clip-path="url(#a)" fill="#fff" stroke="#fff"/>
<g clip-path="url(#a)">
<g transform="translate(213.55 444.48) rotate(90) scale(.08 -.08)">
<use xlink:href="#l"/>
<use x="44.083984" xlink:href="#d"/>
<use x="105.607422" xlink:href="#k"/>
<use x="144.970703" xlink:href="#f"/>
<use x="242.382812" xlink:href="#h"/>
<use x="270.166016" xlink:href="#j"/>
<use x="333.544922" xlink:href="#i"/>
<use x="394.824219" xlink:href="#g"/>
</g>
</g>
<path d="m249.89 444.48v33.808q0 2.4 2.4 2.4h7.7425q2.4 0 2.4-2.4v-33.808q0-2.4-2.4-2.4h-7.7425q-2.4 0-2.4 2.4z" clip-path="url(#a)" fill="#fff" stroke="#fff"/>
<g clip-path="url(#a)">
<g transform="translate(253.95 444.48) rotate(90) scale(.08 -.08)">
<use xlink:href="#l"/>
<use x="44.083984" xlink:href="#d"/>
<use x="105.607422" xlink:href="#k"/>
<use x="144.970703" xlink:href="#f"/>
<use x="242.382812" xlink:href="#h"/>
<use x="270.166016" xlink:href="#j"/>
<use x="333.544922" xlink:href="#i"/>
<use x="394.824219" xlink:href="#g"/>
</g>
</g>
<path d="m312.8 322.07 0.64532-9.9954q0.15462-2.395-2.2404-2.5496l-7.7264-0.49883q-2.395-0.15462-2.5496 2.2404l-0.64532 9.9954q-0.15462 2.395 2.2404 2.5496l7.7264 0.49883q2.395 0.15463 2.5496-2.2404z" clip-path="url(#a)" fill="#fff" stroke="#fff"/>
<g clip-path="url(#a)">
<g transform="translate(308.75 321.81) rotate(-86.306) scale(.08 -.08)">
<use xlink:href="#q"/>
<use x="55.712891" xlink:href="#x"/>
</g>
</g>
<path d="m312.53 264.08 1.2914 10.027q0.30656 2.3803 2.6869 2.0738l7.6791-0.98896q2.3803-0.30655 2.0738-2.6869l-1.2914-10.027q-0.30655-2.3803-2.6869-2.0738l-7.6791 0.98896q-2.3803 0.30655-2.0738 2.6869z" clip-path="url(#a)" fill="#fff" stroke="#fff"/>
<g clip-path="url(#a)">
<g transform="translate(316.56 263.56) rotate(82.662) scale(.08 -.08)">
<use xlink:href="#q"/>
<use x="57.962891" xlink:href="#n"/>
</g>
</g>
<path d="m212.68 275.89 7.5306-6.6042q1.8044-1.5824 0.22196-3.3868l-5.105-5.8211q-1.5824-1.8044-3.3868-0.22195l-7.5306 6.6042q-1.8044 1.5824-0.22195 3.3868l5.105 5.8211q1.5824 1.8044 3.3868 0.22195z" clip-path="url(#a)" fill="#fff" stroke="#fff"/>
<g clip-path="url(#a)">
<g transform="translate(210 272.83) rotate(-41.251) scale(.08 -.08)">
<use xlink:href="#q"/>
<use x="55.712891" xlink:href="#x"/>
</g>
</g>
<path d="m538.18 175.46 9.7008 2.8472q2.3029 0.6759 2.9788-1.627l2.1805-7.4291q0.6759-2.3029-1.627-2.9788l-9.7008-2.8472q-2.3029-0.6759-2.9788 1.627l-2.1805 7.4291q-0.6759 2.3029 1.627 2.9788z" clip-path="url(#a)" fill="#fff" stroke="#fff"/>
<g clip-path="url(#a)">
<g transform="translate(539.33 171.56) rotate(16.357) scale(.08 -.08)">
<use xlink:href="#q"/>
<use x="57.962891" xlink:href="#n"/>
</g>
</g>
<path d="m51.911 444.48v33.808q0 2.4 2.4 2.4h7.7425q2.4 0 2.4-2.4v-33.808q0-2.4-2.4-2.4h-7.7425q-2.4 0-2.4 2.4z" clip-path="url(#a)" fill="#fff" stroke="#fff"/>
<g clip-path="url(#a)">
<g transform="translate(55.974 444.48) rotate(90) scale(.08 -.08)">
<use xlink:href="#l"/>
<use x="44.083984" xlink:href="#d"/>
<use x="105.607422" xlink:href="#k"/>
<use x="144.970703" xlink:href="#f"/>
<use x="242.382812" xlink:href="#h"/>
<use x="270.166016" xlink:href="#j"/>
<use x="333.544922" xlink:href="#i"/>
<use x="394.824219" xlink:href="#g"/>
</g>
</g>
<path d="m512.52 444.48v33.808q0 2.4 2.4 2.4h7.7425q2.4 0 2.4-2.4v-33.808q0-2.4-2.4-2.4h-7.7425q-2.4 0-2.4 2.4z" clip-path="url(#a)" fill="#fff" stroke="#fff"/>
<g clip-path="url(#a)">
<g transform="translate(516.58 444.48) rotate(90) scale(.08 -.08)">
<use xlink:href="#l"/>
<use x="44.083984" xlink:href="#d"/>
<use x="105.607422" xlink:href="#k"/>
<use x="144.970703" xlink:href="#f"/>
<use x="242.382812" xlink:href="#h"/>
<use x="270.166016" xlink:href="#j"/>
<use x="333.544922" xlink:href="#i"/>
<use x="394.824219" xlink:href="#g"/>
</g>
</g>
<path d="m961 444.48v33.808q0 2.4 2.4 2.4h7.7425q2.4 0 2.4-2.4v-33.808q0-2.4-2.4-2.4h-7.7425q-2.4 0-2.4 2.4z" clip-path="url(#a)" fill="#fff" stroke="#fff"/>
<g clip-path="url(#a)">
<g transform="translate(965.07 444.48) rotate(90) scale(.08 -.08)">
<use xlink:href="#l"/>
<use x="44.083984" xlink:href="#d"/>
<use x="105.607422" xlink:href="#k"/>
<use x="144.970703" xlink:href="#f"/>
<use x="242.382812" xlink:href="#h"/>
<use x="270.166016" xlink:href="#j"/>
<use x="333.544922" xlink:href="#i"/>
<use x="394.824219" xlink:href="#g"/>
</g>
</g>
<defs>
<path id="b" d="m0 8.6603c2.2967 0 4.4997-0.9125 6.1237-2.5365 1.624-1.624 2.5365-3.827 2.5365-6.1237s-0.9125-4.4997-2.5365-6.1237c-1.624-1.624-3.827-2.5365-6.1237-2.5365s-4.4997 0.9125-6.1237 2.5365c-1.624 1.624-2.5365 3.827-2.5365 6.1237s0.9125 4.4997 2.5365 6.1237c1.624 1.624 3.827 2.5365 6.1237 2.5365z"/>
</defs>
<g clip-path="url(#a)">
<use x="46.060606" y="509.090909" fill="#ffffff" stroke="#ffffff" xlink:href="#b"/>
</g>
<g clip-path="url(#a)">
<use x="58.181818" y="509.090909" fill="#ffffff" stroke="#ffffff" xlink:href="#b"/>
</g>
<g clip-path="url(#a)">
<use x="74.343434" y="509.090909" fill="#ffffff" stroke="#ffffff" xlink:href="#b"/>
</g>
<g clip-path="url(#a)">
<use x="94.545455" y="509.090909" fill="#ffffff" stroke="#ffffff" xlink:href="#b"/>
</g>
<g clip-path="url(#a)">
<use x="118.787879" y="509.090909" fill="#ffffff" stroke="#ffffff" xlink:href="#b"/>
</g>
<g clip-path="url(#a)">
<use x="147.070707" y="509.090909" fill="#ffffff" stroke="#ffffff" xlink:href="#b"/>
</g>
<g clip-path="url(#a)">
<use x="179.393939" y="509.090909" fill="#ffffff" stroke="#ffffff" xlink:href="#b"/>
</g>
<g clip-path="url(#a)">
<use x="215.757576" y="509.090909" fill="#ffffff" stroke="#ffffff" xlink:href="#b"/>
</g>
<g clip-path="url(#a)">
<use x="256.161616" y="509.090909" fill="#ffffff" stroke="#ffffff" xlink:href="#b"/>
</g>
<g clip-path="url(#a)">
<use x="300.606061" y="509.090909" fill="#ffffff" stroke="#ffffff" xlink:href="#b"/>
</g>
<g clip-path="url(#a)">
<use x="349.090909" y="509.090909" fill="#ffffff" stroke="#ffffff" xlink:href="#b"/>
</g>
<g clip-path="url(#a)">
<use x="401.616162" y="509.090909" fill="#ffffff" stroke="#ffffff" xlink:href="#b"/>
</g>
<g clip-path="url(#a)">
<use x="458.181818" y="509.090909" fill="#ffffff" stroke="#ffffff" xlink:href="#b"/>
</g>
<g clip-path="url(#a)">
<use x="518.787879" y="509.090909" fill="#ffffff" stroke="#ffffff" xlink:href="#b"/>
</g>
<g clip-path="url(#a)">
<use x="583.434343" y="509.090909" fill="#ffffff" stroke="#ffffff" xlink:href="#b"/>
</g>
<g clip-path="url(#a)">
<use x="652.121212" y="509.090909" fill="#ffffff" stroke="#ffffff" xlink:href="#b"/>
</g>
<g clip-path="url(#a)">
<use x="724.848485" y="509.090909" fill="#ffffff" stroke="#ffffff" xlink:href="#b"/>
</g>
<g clip-path="url(#a)">
<use x="801.616162" y="509.090909" fill="#ffffff" stroke="#ffffff" xlink:href="#b"/>
</g>
<g clip-path="url(#a)">
<use x="882.424242" y="509.090909" fill="#ffffff" stroke="#ffffff" xlink:href="#b"/>
</g>
<g clip-path="url(#a)">
<use x="967.272727" y="509.090909" fill="#ffffff" stroke="#ffffff" xlink:href="#b"/>
</g>
<g clip-path="url(#a)">
<use x="291.48569" y="24.242424" fill="#ffffff" stroke="#ffffff" xlink:href="#b"/>
</g>
<g clip-path="url(#a)">
<use x="46.060606" y="413.669387" fill="#ffffff" stroke="#ffffff" xlink:href="#b"/>
</g>
<g clip-path="url(#a)">
<use x="350.656566" y="122.076683" fill="#ffffff" stroke="#ffffff" xlink:href="#b"/>
</g>
<g clip-path="url(#a)">
<use x="711.043771" y="219.664067" fill="#ffffff" stroke="#ffffff" xlink:href="#b"/>
</g>
<g clip-path="url(#a)">
<use x="583.434343" y="413.669387" fill="#ffffff" stroke="#ffffff" xlink:href="#b"/>
</g>
<g clip-path="url(#a)">
<use x="652.121212" y="413.669387" fill="#ffffff" stroke="#ffffff" xlink:href="#b"/>
</g>
<g clip-path="url(#a)">
<use x="724.848485" y="413.669387" fill="#ffffff" stroke="#ffffff" xlink:href="#b"/>
</g>
<g clip-path="url(#a)">
<use x="883.771044" y="316.920447" fill="#ffffff" stroke="#ffffff" xlink:href="#b"/>
</g>
<g clip-path="url(#a)">
<use x="801.616162" y="413.669387" fill="#ffffff" stroke="#ffffff" xlink:href="#b"/>
</g>
<g clip-path="url(#a)">
<use x="882.424242" y="413.669387" fill="#ffffff" stroke="#ffffff" xlink:href="#b"/>
</g>
<g clip-path="url(#a)">
<use x="74.343434" y="413.669387" fill="#ffffff" stroke="#ffffff" xlink:href="#b"/>
</g>
<g clip-path="url(#a)">
<use x="226.060606" y="219.664067" fill="#ffffff" stroke="#ffffff" xlink:href="#b"/>
</g>
<g clip-path="url(#a)">
<use x="94.545455" y="413.669387" fill="#ffffff" stroke="#ffffff" xlink:href="#b"/>
</g>
<g clip-path="url(#a)">
<use x="183.434343" y="316.920447" fill="#ffffff" stroke="#ffffff" xlink:href="#b"/>
</g>
<g clip-path="url(#a)">
<use x="300.606061" y="413.669387" fill="#ffffff" stroke="#ffffff" xlink:href="#b"/>
</g>
<g clip-path="url(#a)">
<use x="325.656566" y="316.920447" fill="#ffffff" stroke="#ffffff" xlink:href="#b"/>
</g>
<g clip-path="url(#a)">
<use x="349.090909" y="413.669387" fill="#ffffff" stroke="#ffffff" xlink:href="#b"/>
</g>
<g clip-path="url(#a)">
<use x="401.616162" y="413.669387" fill="#ffffff" stroke="#ffffff" xlink:href="#b"/>
</g>
<g clip-path="url(#a)">
<use x="458.181818" y="413.669387" fill="#ffffff" stroke="#ffffff" xlink:href="#b"/>
</g>
<g clip-path="url(#a)">
<use x="118.787879" y="413.669387" fill="#ffffff" stroke="#ffffff" xlink:href="#b"/>
</g>
<g clip-path="url(#a)">
<use x="147.070707" y="413.669387" fill="#ffffff" stroke="#ffffff" xlink:href="#b"/>
</g>
<g clip-path="url(#a)">
<use x="179.393939" y="413.669387" fill="#ffffff" stroke="#ffffff" xlink:href="#b"/>
</g>
<g clip-path="url(#a)">
<use x="215.757576" y="413.669387" fill="#ffffff" stroke="#ffffff" xlink:href="#b"/>
</g>
<g clip-path="url(#a)">
<use x="256.161616" y="413.669387" fill="#ffffff" stroke="#ffffff" xlink:href="#b"/>
</g>
<g clip-path="url(#a)">
<use x="313.131313" y="219.664067" fill="#808080" stroke="#808080" xlink:href="#b"/>
</g>
<g clip-path="url(#a)">
<use x="378.552189" y="122.076683" fill="#808080" stroke="#808080" xlink:href="#b"/>
</g>
<g clip-path="url(#a)">
<use x="58.181818" y="413.669387" fill="#ffffff" stroke="#ffffff" xlink:href="#b"/>
</g>
<g clip-path="url(#a)">
<use x="518.787879" y="413.669387" fill="#ffffff" stroke="#ffffff" xlink:href="#b"/>
</g>
<g clip-path="url(#a)">
<use x="967.272727" y="413.669387" fill="#ffffff" stroke="#ffffff" xlink:href="#b"/>
</g>
<g clip-path="url(#a)">
<defs>
<path id="s" d="m54.891 33.016v-33.016h-8.9844v32.719q0 7.7656-3.0312 11.609-3.0312 3.8594-9.0781 3.8594-7.2812 0-11.484-4.6406-4.2031-4.625-4.2031-12.641v-30.906h-9.0312v75.984h9.0312v-29.797q3.2344 4.9375 7.5938 7.375 4.375 2.4375 10.094 2.4375 9.4219 0 14.25-5.8281 4.8438-5.8281 4.8438-17.156z"/>
</defs>
<g transform="translate(33.593 511.85) scale(.1 -.1)">
<use xlink:href="#l"/>
<use x="61.083984" xlink:href="#s"/>
<use x="124.462891" xlink:href="#d"/>
<use x="185.986328" xlink:href="#j"/>
</g>
</g>
<g clip-path="url(#a)">
<defs>
<path id="ah" d="m11.719 12.406h10.297v-8.4062l-8-15.625h-6.2969l4 15.625z"/>
</defs>
<g transform="translate(56.593 511.85) scale(.1 -.1)">
<use xlink:href="#ah"/>
</g>
</g>
<g clip-path="url(#a)">
<defs>
<path id="p" d="m44.281 53.078v-8.5q-3.7969 1.9531-7.9062 2.9219-4.0938 0.98438-8.5 0.98438-6.6875 0-10.031-2.0469t-3.3438-6.1562q0-3.125 2.3906-4.9062t9.625-3.3906l3.0781-0.6875q9.5625-2.0469 13.594-5.7812t4.0312-10.422q0-7.625-6.0312-12.078-6.0312-4.4375-16.578-4.4375-4.3906 0-9.1562 0.85938t-10.031 2.5625v9.2812q4.9844-2.5938 9.8125-3.8906 4.8281-1.2812 9.5781-1.2812 6.3438 0 9.75 2.1719 3.4219 2.1719 3.4219 6.125 0 3.6562-2.4688 5.6094-2.4531 1.9531-10.812 3.7656l-3.125 0.73438q-8.3438 1.75-12.062 5.3906-3.7031 3.6406-3.7031 9.9844 0 7.7188 5.4688 11.906 5.4688 4.2031 15.531 4.2031 4.9688 0 9.3594-0.73438 4.4062-0.71875 8.1094-2.1875z"/>
<path id="aj" d="m45.406 27.984q0 9.7656-4.0312 15.125-4.0156 5.375-11.297 5.375-7.2188 0-11.25-5.375-4.0312-5.3594-4.0312-15.125 0-9.7188 4.0312-15.094t11.25-5.375q7.2812 0 11.297 5.375 4.0312 5.375 4.0312 15.094zm8.9844-21.203q0-13.953-6.2031-20.766-6.1875-6.8125-18.984-6.8125-4.7344 0-8.9375 0.70312t-8.1562 2.1719v8.7344q3.9531-2.1406 7.8125-3.1562 3.8594-1.0312 7.8594-1.0312 8.8438 0 13.234 4.6094t4.3906 13.938v4.4531q-2.7812-4.8438-7.125-7.2344t-10.406-2.3906q-10.047 0-16.203 7.6562-6.1562 7.6719-6.1562 20.328 0 12.688 6.1562 20.344 6.1562 7.6719 16.203 7.6719 6.0625 0 10.406-2.3906t7.125-7.2188v8.2969h8.9844z"/>
</defs>
<g transform="translate(57.854 511.85) scale(.1 -.1)">
<use xlink:href="#p"/>
<use x="52.099609" xlink:href="#d"/>
<use x="113.623047" xlink:href="#d"/>
<use x="175.146484" xlink:href="#h"/>
<use x="202.929688" xlink:href="#j"/>
<use x="266.308594" xlink:href="#aj"/>
</g>
</g>
<g clip-path="url(#a)">
<defs>
<path id="o" d="m18.312 70.219v-15.531h18.5v-6.9844h-18.5v-29.688q0-6.6875 1.8281-8.5938t7.4531-1.9062h9.2188v-7.5156h-9.2188q-10.406 0-14.359 3.875-3.9531 3.8906-3.9531 14.141v29.688h-6.5938v6.9844h6.5938v15.531z"/>
</defs>
<g transform="translate(84.392 511.85) scale(.1 -.1)">
<use xlink:href="#o"/>
<use x="39.208984" xlink:href="#s"/>
<use x="102.587891" xlink:href="#i"/>
<use x="163.867188" xlink:href="#o"/>
</g>
</g>
<g clip-path="url(#a)">
<defs>
<path id="al" d="m9.8125 72.906h13.281l32.328-60.984v60.984h9.5625v-72.906h-13.281l-32.312 60.984v-60.984h-9.5781z"/>
<path id="ak" d="m45.406 46.391v29.594h8.9844v-75.984h-8.9844v8.2031q-2.8281-4.875-7.1562-7.25-4.3125-2.375-10.375-2.375-9.9062 0-16.141 7.9062-6.2188 7.9219-6.2188 20.812t6.2188 20.797q6.2344 7.9062 16.141 7.9062 6.0625 0 10.375-2.375 4.3281-2.3594 7.1562-7.2344zm-30.609-19.094q0-9.9062 4.0781-15.547t11.203-5.6406 11.219 5.6406q4.1094 5.6406 4.1094 15.547t-4.1094 15.547q-4.0938 5.6406-11.219 5.6406t-11.203-5.6406-4.0781-15.547z"/>
</defs>
<g transform="translate(108.8 511.85) scale(.1 -.1)">
<use xlink:href="#al"/>
<use x="74.804688" xlink:href="#d"/>
<use x="136.328125" xlink:href="#ak"/>
</g>
</g>
<g clip-path="url(#a)">
<defs>
<path id="au" d="m9.4219 54.688h8.9844v-55.672q0-10.438-3.9844-15.125-3.9688-4.6875-12.812-4.6875h-3.4219v7.6094h2.4062q5.125 0 6.9688 2.375 1.8594 2.3594 1.8594 9.8281zm0 21.297h8.9844v-11.391h-8.9844z"/>
<path id="ae" d="m8.5 21.578v33.109h8.9844v-32.766q0-7.7656 3.0156-11.656 3.0312-3.875 9.0938-3.875 7.2656 0 11.484 4.6406 4.2344 4.6406 4.2344 12.656v31h8.9844v-54.688h-8.9844v8.4062q-3.2656-4.9844-7.5938-7.4062-4.3125-2.4219-10.031-2.4219-9.4219 0-14.312 5.8594-4.875 5.8594-4.875 17.141z"/>
</defs>
<g transform="translate(137.95 511.85) scale(.1 -.1)">
<use xlink:href="#au"/>
<use x="27.783203" xlink:href="#ae"/>
<use x="91.162109" xlink:href="#p"/>
<use x="143.261719" xlink:href="#o"/>
</g>
</g>
<g clip-path="url(#a)">
<g transform="translate(172.97 511.85) scale(.1 -.1)">
<use xlink:href="#g"/>
<use x="27.783203" xlink:href="#d"/>
<use x="89.306641" xlink:href="#o"/>
</g>
</g>
<g clip-path="url(#a)">
<g transform="translate(207.81 511.85) scale(.1 -.1)">
<use xlink:href="#f"/>
<use x="97.412109" xlink:href="#d"/>
</g>
</g>
<g clip-path="url(#a)">
<defs>
<path id="at" d="m9.0781 75.984h9.0312v-44.875l26.812 23.578h11.469l-29-25.578 30.234-29.109h-11.719l-27.797 26.703v-26.703h-9.0312z"/>
</defs>
<g transform="translate(246.85 511.85) scale(.1 -.1)">
<use xlink:href="#o"/>
<use x="39.208984" xlink:href="#i"/>
<use x="100.488281" xlink:href="#g"/>
<use x="128.271484" xlink:href="#at"/>
</g>
</g>
<g clip-path="url(#a)">
<defs>
<path id="ar" d="m4.2031 54.688h8.9844l11.234-42.672 11.172 42.672h10.594l11.234-42.672 11.188 42.672h8.9844l-14.312-54.688h-10.594l-11.766 44.828-11.812-44.828h-10.609z"/>
<path id="af" d="m30.609 48.391q-7.2188 0-11.422-5.6406t-4.2031-15.453 4.1719-15.453q4.1875-5.6406 11.453-5.6406 7.1875 0 11.375 5.6562 4.2031 5.6719 4.2031 15.438 0 9.7188-4.2031 15.406-4.1875 5.6875-11.375 5.6875zm0 7.6094q11.719 0 18.406-7.625 6.7031-7.6094 6.7031-21.078 0-13.422-6.7031-21.078-6.6875-7.6406-18.406-7.6406-11.766 0-18.438 7.6406-6.6562 7.6562-6.6562 21.078 0 13.469 6.6562 21.078 6.6719 7.625 18.438 7.625z"/>
</defs>
<g transform="translate(281.81 511.85) scale(.1 -.1)">
<use xlink:href="#ar"/>
<use x="81.787109" xlink:href="#h"/>
<use x="109.570312" xlink:href="#o"/>
<use x="148.779297" xlink:href="#s"/>
<use x="212.158203" xlink:href="#af"/>
<use x="273.339844" xlink:href="#ae"/>
<use x="336.71875" xlink:href="#o"/>
</g>
</g>
<g clip-path="url(#a)">
<defs>
<path id="ai" d="m32.172-5.0781q-3.7969-9.7656-7.4219-12.734-3.6094-2.9844-9.6562-2.9844h-7.1875v7.5156h5.2812q3.7031 0 5.75 1.7656 2.0625 1.75 4.5469 8.2969l1.6094 4.0938-22.109 53.812h9.5156l17.094-42.766 17.094 42.766h9.5156z"/>
</defs>
<g transform="translate(332.73 511.85) scale(.1 -.1)">
<use xlink:href="#p"/>
<use x="52.099609" xlink:href="#i"/>
<use x="113.378906" xlink:href="#ai"/>
<use x="172.558594" xlink:href="#h"/>
<use x="200.341797" xlink:href="#j"/>
<use x="263.720703" xlink:href="#aj"/>
</g>
</g>
<g clip-path="url(#a)">
<defs>
<path id="ag" d="m48.781 52.594v-8.4062q-3.8125 2.1094-7.6406 3.1562t-7.7344 1.0469q-8.75 0-13.594-5.5469-4.8281-5.5312-4.8281-15.547t4.8281-15.562q4.8438-5.5312 13.594-5.5312 3.9062 0 7.7344 1.0469t7.6406 3.1562v-8.3125q-3.7656-1.75-7.7969-2.625-4.0156-0.89062-8.5625-0.89062-12.359 0-19.641 7.7656-7.2656 7.7656-7.2656 20.953 0 13.375 7.3438 21.031 7.3594 7.6719 20.156 7.6719 4.1406 0 8.0938-0.85938 3.9531-0.84375 7.6719-2.5469z"/>
</defs>
<g transform="translate(387.66 511.85) scale(.1 -.1)">
<use xlink:href="#f"/>
<use x="97.412109" xlink:href="#ae"/>
<use x="160.791016" xlink:href="#ag"/>
<use x="215.771484" xlink:href="#s"/>
</g>
</g>
<g clip-path="url(#a)">
<defs>
<path id="av" d="m37.109 75.984v-7.4844h-8.5938q-4.8281 0-6.7188-1.9531-1.875-1.9531-1.875-7.0312v-4.8281h14.797v-6.9844h-14.797v-47.703h-9.0312v47.703h-8.5938v6.9844h8.5938v3.8125q0 9.125 4.25 13.297 4.25 4.1875 13.469 4.1875z"/>
</defs>
<g transform="translate(439.92 511.85) scale(.1 -.1)">
<use xlink:href="#s"/>
<use x="63.378906" xlink:href="#h"/>
<use x="91.162109" xlink:href="#f"/>
<use x="188.574219" xlink:href="#p"/>
<use x="240.673828" xlink:href="#d"/>
<use x="302.197266" xlink:href="#g"/>
<use x="329.980469" xlink:href="#av"/>
</g>
</g>
<g clip-path="url(#a)">
<g transform="translate(517.2 511.85) scale(.1 -.1)">
<use xlink:href="#ah"/>
</g>
</g>
<g clip-path="url(#a)">
<defs>
<path id="am" d="m9.8125 72.906h9.8594v-72.906h-9.8594z"/>
</defs>
<g transform="translate(581.96 511.85) scale(.1 -.1)">
<use xlink:href="#am"/>
</g>
</g>
<g clip-path="url(#a)">
<defs>
<path id="as" d="m18.109 8.2031v-29h-9.0312v75.484h9.0312v-8.2969q2.8438 4.875 7.1562 7.2344 4.3281 2.375 10.328 2.375 9.9688 0 16.188-7.9062 6.2344-7.9062 6.2344-20.797t-6.2344-20.812q-6.2188-7.9062-16.188-7.9062-6 0-10.328 2.375-4.3125 2.375-7.1562 7.25zm30.578 19.094q0 9.9062-4.0781 15.547t-11.203 5.6406q-7.1406 0-11.219-5.6406t-4.0781-15.547 4.0781-15.547 11.219-5.6406q7.125 0 11.203 5.6406t4.0781 15.547z"/>
</defs>
<g transform="translate(632.47 511.85) scale(.1 -.1)">
<use xlink:href="#as"/>
<use x="63.476562" xlink:href="#k"/>
<use x="102.339844" xlink:href="#d"/>
<use x="163.863281" xlink:href="#p"/>
<use x="215.962891" xlink:href="#p"/>
<use x="268.0625" xlink:href="#d"/>
<use x="329.585938" xlink:href="#ak"/>
</g>
</g>
<g clip-path="url(#a)">
<g transform="translate(715.42 511.85) scale(.1 -.1)">
<use xlink:href="#s"/>
<use x="63.378906" xlink:href="#h"/>
<use x="91.162109" xlink:href="#f"/>
</g>
</g>
<g clip-path="url(#a)">
<g transform="translate(788.67 511.85) scale(.1 -.1)">
<use xlink:href="#f"/>
<use x="97.412109" xlink:href="#af"/>
<use x="158.59375" xlink:href="#k"/>
<use x="197.457031" xlink:href="#d"/>
</g>
</g>
<g clip-path="url(#a)">
<g transform="translate(865.2 511.85) scale(.1 -.1)">
<use xlink:href="#ag"/>
<use x="54.980469" xlink:href="#g"/>
<use x="82.763672" xlink:href="#af"/>
<use x="143.945312" xlink:href="#p"/>
<use x="196.044922" xlink:href="#d"/>
<use x="257.568359" xlink:href="#g"/>
<use x="285.351562" xlink:href="#ai"/>
</g>
</g>
<g clip-path="url(#a)">
<defs>
<path id="e" d="m10.688 12.406h10.312v-12.406h-10.312z"/>
</defs>
<g transform="translate(965.68 511.85) scale(.1 -.1)">
<use xlink:href="#e"/>
</g>
</g>
<g clip-path="url(#a)">
<defs>
<path id="c" d="m12.406 8.2969h16.109v55.625l-17.531-3.5156v8.9844l17.438 3.5156h9.8594v-64.609h16.109v-8.2969h-41.984z"/>
</defs>
<g transform="translate(283.53 27.002) scale(.1 -.1)">
<use xlink:href="#c"/>
<use x="63.623047" xlink:href="#e"/>
<use x="95.410156" xlink:href="#c"/>
</g>
</g>
<g clip-path="url(#a)">
<defs>
<path id="m" d="m19.188 8.2969h34.422v-8.2969h-46.281v8.2969q5.6094 5.8125 15.297 15.594 9.7031 9.7969 12.188 12.641 4.7344 5.3125 6.6094 9 1.8906 3.6875 1.8906 7.25 0 5.8125-4.0781 9.4688-4.0781 3.6719-10.625 3.6719-4.6406 0-9.7969-1.6094-5.1406-1.6094-11-4.8906v9.9688q5.9531 2.3906 11.125 3.6094 5.1875 1.2188 9.4844 1.2188 11.328 0 18.062-5.6719 6.7344-5.6562 6.7344-15.125 0-4.5-1.6875-8.5312-1.6719-4.0156-6.125-9.4844-1.2188-1.4219-7.7656-8.1875-6.5312-6.7656-18.453-18.922z"/>
</defs>
<g transform="translate(38.109 416.43) scale(.1 -.1)">
<use xlink:href="#c"/>
<use x="63.623047" xlink:href="#e"/>
<use x="95.410156" xlink:href="#m"/>
</g>
</g>
<g clip-path="url(#a)">
<defs>
<path id="r" d="m40.578 39.312q7.0781-1.5156 11.047-6.3125 3.9844-4.7812 3.9844-11.812 0-10.781-7.4219-16.703-7.4219-5.9062-21.094-5.9062-4.5781 0-9.4375 0.90625t-10.031 2.7188v9.5156q4.0938-2.3906 8.9688-3.6094 4.8906-1.2188 10.219-1.2188 9.2656 0 14.125 3.6562t4.8594 10.641q0 6.4531-4.5156 10.078-4.5156 3.6406-12.562 3.6406h-8.5v8.1094h8.8906q7.2656 0 11.125 2.9062t3.8594 8.375q0 5.6094-3.9844 8.6094-3.9688 3.0156-11.391 3.0156-4.0625 0-8.7031-0.89062-4.6406-0.875-10.203-2.7188v8.7812q5.625 1.5625 10.531 2.3438t9.25 0.78125q11.234 0 17.766-5.1094 6.5469-5.0938 6.5469-13.781 0-6.0625-3.4688-10.234t-9.8594-5.7812z"/>
</defs>
<g transform="translate(342.71 124.84) scale(.1 -.1)">
<use xlink:href="#c"/>
<use x="63.623047" xlink:href="#e"/>
<use x="95.410156" xlink:href="#r"/>
</g>
</g>
<g clip-path="url(#a)">
<defs>
<path id="ac" d="m37.797 64.312-24.906-38.922h24.906zm-2.5938 8.5938h12.406v-47.516h10.406v-8.2031h-10.406v-17.188h-9.8125v17.188h-32.906v9.5156z"/>
</defs>
<g transform="translate(703.09 222.42) scale(.1 -.1)">
<use xlink:href="#c"/>
<use x="63.623047" xlink:href="#e"/>
<use x="95.410156" xlink:href="#ac"/>
</g>
</g>
<g clip-path="url(#a)">
<defs>
<path id="ab" d="m33.016 40.375q-6.6406 0-10.531-4.5469-3.875-4.5312-3.875-12.438 0-7.8594 3.875-12.438 3.8906-4.5625 10.531-4.5625t10.516 4.5625q3.875 4.5781 3.875 12.438 0 7.9062-3.875 12.438-3.875 4.5469-10.516 4.5469zm19.578 30.922v-8.9844q-3.7188 1.75-7.5 2.6719-3.7812 0.9375-7.5 0.9375-9.7656 0-14.922-6.5938-5.1406-6.5938-5.875-19.922 2.875 4.25 7.2188 6.5156 4.3594 2.2656 9.5781 2.2656 10.984 0 17.359-6.6719 6.375-6.6562 6.375-18.125 0-11.234-6.6406-18.031-6.6406-6.7812-17.672-6.7812-12.656 0-19.344 9.6875-6.6875 9.7031-6.6875 28.109 0 17.281 8.2031 27.562t22.016 10.281q3.7188 0 7.5-0.73438t7.8906-2.1875z"/>
</defs>
<g transform="translate(575.48 416.43) scale(.1 -.1)">
<use xlink:href="#c"/>
<use x="63.623047" xlink:href="#e"/>
<use x="95.410156" xlink:href="#ab"/>
</g>
</g>
<g clip-path="url(#a)">
<defs>
<path id="aa" d="m8.2031 72.906h46.875v-4.2031l-26.469-68.703h-10.297l24.906 64.594h-35.016z"/>
</defs>
<g transform="translate(644.17 416.43) scale(.1 -.1)">
<use xlink:href="#c"/>
<use x="63.623047" xlink:href="#e"/>
<use x="95.410156" xlink:href="#aa"/>
</g>
</g>
<g clip-path="url(#a)">
<defs>
<path id="z" d="m31.781 34.625q-7.0312 0-11.062-3.7656-4.0156-3.7656-4.0156-10.344 0-6.5938 4.0156-10.359 4.0312-3.7656 11.062-3.7656t11.078 3.7812q4.0625 3.7969 4.0625 10.344 0 6.5781-4.0312 10.344-4.0156 3.7656-11.109 3.7656zm-9.8594 4.1875q-6.3438 1.5625-9.8906 5.9062-3.5312 4.3594-3.5312 10.609 0 8.7344 6.2188 13.812 6.2344 5.0781 17.062 5.0781 10.891 0 17.094-5.0781t6.2031-13.812q0-6.25-3.5469-10.609-3.5312-4.3438-9.8281-5.9062 7.125-1.6562 11.094-6.5 3.9844-4.8281 3.9844-11.797 0-10.609-6.4688-16.281-6.4688-5.6562-18.531-5.6562-12.047 0-18.531 5.6562-6.4688 5.6719-6.4688 16.281 0 6.9688 4 11.797 4.0156 4.8438 11.141 6.5zm-3.6094 15.578q0-5.6562 3.5312-8.8281 3.5469-3.1719 9.9375-3.1719 6.3594 0 9.9375 3.1719 3.5938 3.1719 3.5938 8.8281 0 5.6719-3.5938 8.8438-3.5781 3.1719-9.9375 3.1719-6.3906 0-9.9375-3.1719-3.5312-3.1719-3.5312-8.8438z"/>
</defs>
<g transform="translate(716.9 416.43) scale(.1 -.1)">
<use xlink:href="#c"/>
<use x="63.623047" xlink:href="#e"/>
<use x="95.410156" xlink:href="#z"/>
</g>
</g>
<g clip-path="url(#a)">
<defs>
<path id="y" d="m10.984 1.5156v8.9844q3.7188-1.7656 7.5156-2.6875 3.8125-0.92188 7.4844-0.92188 9.7656 0 14.906 6.5625 5.1562 6.5625 5.8906 19.953-2.8281-4.2031-7.1875-6.4531-4.3438-2.25-9.6094-2.25-10.938 0-17.312 6.6094-6.375 6.625-6.375 18.109 0 11.219 6.6406 18 6.6406 6.7969 17.672 6.7969 12.656 0 19.312-9.7031 6.6719-9.6875 6.6719-28.141 0-17.234-8.1875-27.516-8.1719-10.281-21.984-10.281-3.7188 0-7.5312 0.73438-3.7969 0.73438-7.9062 2.2031zm19.625 30.906q6.6406 0 10.516 4.5312 3.8906 4.5469 3.8906 12.469 0 7.8594-3.8906 12.422-3.875 4.5625-10.516 4.5625t-10.516-4.5625-3.875-12.422q0-7.9219 3.875-12.469 3.875-4.5312 10.516-4.5312z"/>
</defs>
<g transform="translate(875.82 319.68) scale(.1 -.1)">
<use xlink:href="#c"/>
<use x="63.623047" xlink:href="#e"/>
<use x="95.410156" xlink:href="#y"/>
</g>
</g>
<g clip-path="url(#a)">
<defs>
<path id="ad" d="m31.781 66.406q-7.6094 0-11.453-7.5-3.8281-7.4844-3.8281-22.531 0-14.984 3.8281-22.484 3.8438-7.5 11.453-7.5 7.6719 0 11.5 7.5 3.8438 7.5 3.8438 22.484 0 15.047-3.8438 22.531-3.8281 7.5-11.5 7.5zm0 7.8125q12.266 0 18.734-9.7031 6.4688-9.6875 6.4688-28.141 0-18.406-6.4688-28.109-6.4688-9.6875-18.734-9.6875-12.25 0-18.719 9.6875-6.4688 9.7031-6.4688 28.109 0 18.453 6.4688 28.141 6.4688 9.7031 18.719 9.7031z"/>
</defs>
<g transform="translate(790.48 416.43) scale(.1 -.1)">
<use xlink:href="#c"/>
<use x="63.623047" xlink:href="#e"/>
<use x="95.410156" xlink:href="#c"/>
<use x="159.033203" xlink:href="#ad"/>
</g>
</g>
<g clip-path="url(#a)">
<g transform="translate(871.29 416.43) scale(.1 -.1)">
<use xlink:href="#c"/>
<use x="63.623047" xlink:href="#e"/>
<use x="95.410156" xlink:href="#c"/>
<use x="159.033203" xlink:href="#c"/>
</g>
</g>
<g clip-path="url(#a)">
<g transform="translate(63.211 416.43) scale(.1 -.1)">
<use xlink:href="#c"/>
<use x="63.623047" xlink:href="#e"/>
<use x="95.410156" xlink:href="#c"/>
<use x="159.033203" xlink:href="#r"/>
</g>
</g>
<g clip-path="url(#a)">
<g transform="translate(214.93 222.42) scale(.1 -.1)">
<use xlink:href="#c"/>
<use x="63.623047" xlink:href="#e"/>
<use x="95.410156" xlink:href="#c"/>
<use x="159.033203" xlink:href="#ac"/>
</g>
</g>
<g clip-path="url(#a)">
<g transform="translate(83.413 416.43) scale(.1 -.1)">
<use xlink:href="#c"/>
<use x="63.623047" xlink:href="#e"/>
<use x="95.410156" xlink:href="#c"/>
<use x="159.033203" xlink:href="#ab"/>
</g>
</g>
<g clip-path="url(#a)">
<g transform="translate(172.3 319.68) scale(.1 -.1)">
<use xlink:href="#c"/>
<use x="63.623047" xlink:href="#e"/>
<use x="95.410156" xlink:href="#c"/>
<use x="159.033203" xlink:href="#aa"/>
</g>
</g>
<g clip-path="url(#a)">
<g transform="translate(289.47 416.43) scale(.1 -.1)">
<use xlink:href="#c"/>
<use x="63.623047" xlink:href="#e"/>
<use x="95.410156" xlink:href="#c"/>
<use x="159.033203" xlink:href="#z"/>
</g>
</g>
<g clip-path="url(#a)">
<g transform="translate(314.52 319.68) scale(.1 -.1)">
<use xlink:href="#c"/>
<use x="63.623047" xlink:href="#e"/>
<use x="95.410156" xlink:href="#c"/>
<use x="159.033203" xlink:href="#y"/>
</g>
</g>
<g clip-path="url(#a)">
<g transform="translate(337.96 416.43) scale(.1 -.1)">
<use xlink:href="#c"/>
<use x="63.623047" xlink:href="#e"/>
<use x="95.410156" xlink:href="#m"/>
<use x="159.033203" xlink:href="#ad"/>
</g>
</g>
<g clip-path="url(#a)">
<g transform="translate(390.48 416.43) scale(.1 -.1)">
<use xlink:href="#c"/>
<use x="63.623047" xlink:href="#e"/>
<use x="95.410156" xlink:href="#m"/>
<use x="159.033203" xlink:href="#c"/>
</g>
</g>
<g clip-path="url(#a)">
<g transform="translate(447.05 416.43) scale(.1 -.1)">
<use xlink:href="#c"/>
<use x="63.623047" xlink:href="#e"/>
<use x="95.410156" xlink:href="#m"/>
<use x="159.033203" xlink:href="#m"/>
</g>
</g>
<g clip-path="url(#a)">
<g transform="translate(107.66 416.43) scale(.1 -.1)">
<use xlink:href="#c"/>
<use x="63.623047" xlink:href="#e"/>
<use x="95.410156" xlink:href="#m"/>
<use x="159.033203" xlink:href="#r"/>
</g>
</g>
<g clip-path="url(#a)">
<g transform="translate(135.94 416.43) scale(.1 -.1)">
<use xlink:href="#c"/>
<use x="63.623047" xlink:href="#e"/>
<use x="95.410156" xlink:href="#m"/>
<use x="159.033203" xlink:href="#ac"/>
</g>
</g>
<g clip-path="url(#a)">
<defs>
<path id="aq" d="m10.797 72.906h38.719v-8.3125h-29.688v-17.859q2.1406 0.73438 4.2812 1.0938 2.1562 0.35938 4.3125 0.35938 12.203 0 19.328-6.6875 7.1406-6.6875 7.1406-18.109 0-11.766-7.3281-18.297-7.3281-6.5156-20.656-6.5156-4.5938 0-9.3594 0.78125-4.75 0.78125-9.8281 2.3438v9.9219q4.3906-2.3906 9.0781-3.5625t9.9062-1.1719q8.4531 0 13.375 4.4375 4.9375 4.4375 4.9375 12.062 0 7.6094-4.9375 12.047-4.9219 4.4531-13.375 4.4531-3.9531 0-7.8906-0.875-3.9219-0.875-8.0156-2.7344z"/>
</defs>
<g transform="translate(168.26 416.43) scale(.1 -.1)">
<use xlink:href="#c"/>
<use x="63.623047" xlink:href="#e"/>
<use x="95.410156" xlink:href="#m"/>
<use x="159.033203" xlink:href="#aq"/>
</g>
</g>
<g clip-path="url(#a)">
<g transform="translate(204.62 416.43) scale(.1 -.1)">
<use xlink:href="#c"/>
<use x="63.623047" xlink:href="#e"/>
<use x="95.410156" xlink:href="#m"/>
<use x="159.033203" xlink:href="#ab"/>
</g>
</g>
<g clip-path="url(#a)">
<g transform="translate(245.03 416.43) scale(.1 -.1)">
<use xlink:href="#c"/>
<use x="63.623047" xlink:href="#e"/>
<use x="95.410156" xlink:href="#m"/>
<use x="159.033203" xlink:href="#aa"/>
</g>
</g>
<g clip-path="url(#a)">
<g transform="translate(302 222.42) scale(.1 -.1)">
<use xlink:href="#c"/>
<use x="63.623047" xlink:href="#e"/>
<use x="95.410156" xlink:href="#m"/>
<use x="159.033203" xlink:href="#z"/>
</g>
</g>
<g clip-path="url(#a)">
<g transform="translate(367.42 124.84) scale(.1 -.1)">
<use xlink:href="#c"/>
<use x="63.623047" xlink:href="#e"/>
<use x="95.410156" xlink:href="#m"/>
<use x="159.033203" xlink:href="#y"/>
</g>
</g>
<g clip-path="url(#a)">
<g transform="translate(47.049 416.43) scale(.1 -.1)">
<use xlink:href="#c"/>
<use x="63.623047" xlink:href="#e"/>
<use x="95.410156" xlink:href="#r"/>
<use x="159.033203" xlink:href="#ad"/>
</g>
</g>
<g clip-path="url(#a)">
<g transform="translate(507.66 416.43) scale(.1 -.1)">
<use xlink:href="#c"/>
<use x="63.623047" xlink:href="#e"/>
<use x="95.410156" xlink:href="#r"/>
<use x="159.033203" xlink:href="#c"/>
</g>
</g>
<g clip-path="url(#a)">
<g transform="translate(956.14 416.43) scale(.1 -.1)">
<use xlink:href="#c"/>
<use x="63.623047" xlink:href="#e"/>
<use x="95.410156" xlink:href="#r"/>
<use x="159.033203" xlink:href="#m"/>
</g>
</g>
<defs>
<clipPath id="a">
<rect width="1013.3" height="533.33"/>
</clipPath>
</defs>
</svg>
