<?xml version="1.0" encoding="UTF-8"?>
<!DOCTYPE svg  PUBLIC '-//W3C//DTD SVG 1.1//EN'  'http://www.w3.org/Graphics/SVG/1.1/DTD/svg11.dtd'>
<svg width="557.33pt" height="293.33pt" version="1.1" viewBox="0 0 557.33 293.33" xmlns="http://www.w3.org/2000/svg" xmlns:xlink="http://www.w3.org/1999/xlink">
<defs>
<style type="text/css">*{stroke-linecap:butt;stroke-linejoin:round;}</style>
</defs>
<path d="m0 293.33h557.33v-293.33h-557.33z" fill="#fff"/>
<g fill="none" stroke="#000">
<path d="m280.64 14.435 55.972 108.31" clip-path="url(#a)"/>
<path d="m280.64 14.435-9.8774 54.764" clip-path="url(#a)"/>
<path d="m280.64 14.435-44.119 212.65" clip-path="url(#a)"/>
<path d="m280.64 14.435-1.9755 212.65" clip-path="url(#a)"/>
<path d="m336.61 122.74 194.91 156.16" clip-path="url(#a)"/>
<path d="m336.61 122.74 152.77 156.16" clip-path="url(#a)"/>
<path d="m336.61 122.74-205.45 52.532" clip-path="url(#a)"/>
<path d="m336.61 122.74-142.23 104.34" clip-path="url(#a)"/>
<path d="m270.76 69.199 65.849 53.544" clip-path="url(#a)" stroke-dasharray="3.7,1.6"/>
<path d="m270.76 69.199 71.117 106.08" clip-path="url(#a)"/>
<path d="m270.76 69.199 134.33 157.89" clip-path="url(#a)"/>
<path d="m270.76 69.199-244.96 157.89" clip-path="url(#a)"/>
<path d="m270.76 69.199-202.82 157.89" clip-path="url(#a)"/>
<path d="m270.76 69.199 176.48 157.89" clip-path="url(#a)"/>
<path d="m341.88 175.28-21.072 51.812" clip-path="url(#a)"/>
<path d="m341.88 175.28 21.072 51.812" clip-path="url(#a)"/>
<path d="m405.1 227.09v51.812" clip-path="url(#a)"/>
<path d="m320.81 227.09v51.812" clip-path="url(#a)"/>
<path d="m362.95 227.09v51.812" clip-path="url(#a)"/>
<path d="m131.16 175.28-21.072 51.812" clip-path="url(#a)"/>
<path d="m131.16 175.28 21.072 51.812" clip-path="url(#a)"/>
<path d="m194.38 227.09v51.812" clip-path="url(#a)"/>
<path d="m110.09 227.09v51.812" clip-path="url(#a)"/>
<path d="m152.24 227.09v51.812" clip-path="url(#a)"/>
<path d="m25.805 227.09v51.812" clip-path="url(#a)"/>
<path d="m67.948 227.09v51.812" clip-path="url(#a)"/>
<path d="m236.52 227.09v51.812" clip-path="url(#a)"/>
<path d="m278.67 227.09v51.812" clip-path="url(#a)"/>
<path d="m447.24 227.09v51.812" clip-path="url(#a)"/>
</g>
<path d="m301.68 68.796 2.7621 5.3447q1.1018 2.1321 3.234 1.0303l6.8783-3.5546q2.1321-1.1018 1.0303-3.234l-2.7621-5.3447q-1.1018-2.1321-3.234-1.0303l-6.8783 3.5546q-2.1321 1.1018-1.0303 3.234z" clip-path="url(#a)" fill="#fff" stroke="#fff"/>
<g clip-path="url(#a)">
<defs>
<path id="w" d="m9.8125 72.906h9.8594v-29.891h35.844v29.891h9.8594v-72.906h-9.8594v34.719h-35.844v-34.719h-9.8594z"/>
</defs>
<g transform="translate(305.29 66.93) rotate(62.671) scale(.08 -.08)">
<use xlink:href="#w"/>
</g>
</g>
<path d="m281.34 45.89 1.0679-5.9207q0.426-2.3619-1.9359-2.7879l-7.6196-1.3743q-2.3619-0.426-2.7879 1.9359l-1.0679 5.9207q-0.426 2.3619 1.9359 2.7879l7.6196 1.3743q2.3619 0.426 2.7879-1.9359z" clip-path="url(#a)" fill="#fff" stroke="#fff"/>
<g clip-path="url(#a)">
<g transform="translate(277.34 45.169) rotate(-79.776) scale(.08 -.08)">
<use xlink:href="#w"/>
</g>
</g>
<path d="m264.13 124.9 1.1894-5.7329q0.48755-2.35-1.8624-2.8375l-7.5811-1.5728q-2.35-0.48755-2.8375 1.8624l-1.1894 5.7329q-0.48755 2.35 1.8624 2.8375l7.5811 1.5728q2.35 0.48755 2.8375-1.8624z" clip-path="url(#a)" fill="#fff" stroke="#fff"/>
<g clip-path="url(#a)">
<defs>
<path id="o" d="m8.6875 72.906h9.9219v-44.297q0-11.719 4.2344-16.875 4.25-5.1406 13.781-5.1406 9.4688 0 13.719 5.1406 4.25 5.1562 4.25 16.875v44.297h9.9062v-45.516q0-14.25-7.0625-21.531-7.0469-7.2812-20.812-7.2812-13.828 0-20.891 7.2812-7.0469 7.2812-7.0469 21.531z"/>
</defs>
<g transform="translate(260.15 124.08) rotate(-78.279) scale(.08 -.08)">
<use xlink:href="#o"/>
</g>
</g>
<path d="m285.9 123.75 0.054389-5.8547q0.022295-2.3999-2.3776-2.4222l-7.7422-0.071922q-2.3999-0.022295-2.4222 2.3776l-0.054389 5.8547q-0.022294 2.3999 2.3776 2.4222l7.7422 0.071923q2.3999 0.022294 2.4222-2.3776z" clip-path="url(#a)" fill="#fff" stroke="#fff"/>
<g clip-path="url(#a)">
<g transform="translate(281.83 123.71) rotate(-89.468) scale(.08 -.08)">
<use xlink:href="#o"/>
</g>
</g>
<path d="m428.01 204 4.2709 3.4216q1.873 1.5006 3.3736-0.37245l4.8409-6.0425q1.5006-1.873-0.37245-3.3736l-4.2709-3.4216q-1.873-1.5006-3.3736 0.37245l-4.8409 6.0425q-1.5006 1.873 0.37245 3.3736z" clip-path="url(#a)" fill="#fff" stroke="#fff"/>
<g clip-path="url(#a)">
<defs>
<path id="r" d="m34.188 63.188-13.391-36.281h26.812zm-5.5781 9.7188h11.188l27.781-72.906h-10.25l-6.6406 18.703h-32.859l-6.6406-18.703h-10.406z"/>
</defs>
<g transform="translate(430.56 200.83) rotate(38.7) scale(.08 -.08)">
<use xlink:href="#r"/>
</g>
</g>
<path d="m406.83 203.48 3.3733 3.4481q1.6784 1.7155 3.3939 0.03719l5.5344-5.4145q1.7155-1.6784 0.03719-3.3939l-3.3733-3.4481q-1.6784-1.7155-3.3939-0.03719l-5.5344 5.4145q-1.7155 1.6784-0.03719 3.3939z" clip-path="url(#a)" fill="#fff" stroke="#fff"/>
<g clip-path="url(#a)">
<defs>
<path id="q" d="m19.672 64.797v-27.391h12.406q6.8906 0 10.641 3.5625 3.7656 3.5625 3.7656 10.156 0 6.5469-3.7656 10.109-3.75 3.5625-10.641 3.5625zm-9.8594 8.1094h22.266q12.266 0 18.531-5.5469 6.2812-5.5469 6.2812-16.234 0-10.797-6.2812-16.312-6.2656-5.5156-18.531-5.5156h-12.406v-29.297h-9.8594z"/>
</defs>
<g transform="translate(409.73 200.64) rotate(45.628) scale(.08 -.08)">
<use xlink:href="#q"/>
</g>
</g>
<path d="m232.79 155.76 5.3019-1.3557q2.3252-0.59454 1.7307-2.9197l-1.918-7.5012q-0.59454-2.3252-2.9197-1.7307l-5.3019 1.3557q-2.3252 0.59454-1.7307 2.9197l1.918 7.5012q0.59454 2.3252 2.9197 1.7307z" clip-path="url(#a)" fill="#fff" stroke="#fff"/>
<g clip-path="url(#a)">
<g transform="translate(231.78 151.83) rotate(-14.343) scale(.08 -.08)">
<use xlink:href="#r"/>
</g>
</g>
<path d="m266.72 181.79 4.9668-3.6437q1.9351-1.4196 0.51551-3.3547l-4.5797-6.2428q-1.4196-1.9351-3.3547-0.51551l-4.9668 3.6437q-1.9351 1.4196-0.51551 3.3547l4.5797 6.2428q1.4196 1.9351 3.3547 0.51551z" clip-path="url(#a)" fill="#fff" stroke="#fff"/>
<g clip-path="url(#a)">
<defs>
<path id="ai" d="m19.672 64.797v-56.688h11.922q15.094 0 22.094 6.8281 7 6.8438 7 21.594 0 14.641-7 21.453t-22.094 6.8125zm-9.8594 8.1094h20.266q21.188 0 31.094-8.8125 9.9219-8.8125 9.9219-27.562 0-18.859-9.9688-27.703-9.9531-8.8281-31.047-8.8281h-20.266z"/>
</defs>
<g transform="translate(264.32 178.52) rotate(-36.264) scale(.08 -.08)">
<use xlink:href="#ai"/>
</g>
</g>
<path d="m297.61 99.11 4.246 3.4525q1.8621 1.5141 3.3762-0.34797l4.8846-6.0072q1.5141-1.8621-0.34798-3.3762l-4.246-3.4525q-1.8621-1.5141-3.3762 0.34798l-4.8846 6.0072q-1.5141 1.8621 0.34798 3.3762z" clip-path="url(#a)" fill="#fff" stroke="#fff"/>
<g clip-path="url(#a)">
<g transform="translate(300.17 95.957) rotate(39.116) scale(.08 -.08)">
<use xlink:href="#r"/>
</g>
</g>
<path d="m299.59 123.46 3.0474 4.5455q1.3365 1.9934 3.3299 0.65697l6.4309-4.3115q1.9934-1.3365 0.65697-3.3299l-3.0474-4.5455q-1.3365-1.9934-3.3299-0.65697l-6.4309 4.3115q-1.9934 1.3365-0.65697 3.3299z" clip-path="url(#a)" fill="#fff" stroke="#fff"/>
<g clip-path="url(#a)">
<g transform="translate(302.97 121.19) rotate(56.161) scale(.08 -.08)">
<use xlink:href="#r"/>
</g>
</g>
<path d="m331.59 150.37 3.1258 3.6739q1.5552 1.8279 3.3831 0.27271l5.897-5.0172q1.8279-1.5552 0.27271-3.3831l-3.1258-3.6739q-1.5552-1.8279-3.3831-0.27271l-5.897 5.0172q-1.8279 1.5552-0.27271 3.3831z" clip-path="url(#a)" fill="#fff" stroke="#fff"/>
<g clip-path="url(#a)">
<g transform="translate(334.69 147.74) rotate(49.609) scale(.08 -.08)">
<use xlink:href="#q"/>
</g>
</g>
<path d="m149.22 155 4.9213-3.172q2.0173-1.3002 0.71705-3.3175l-4.1946-6.5078q-1.3002-2.0173-3.3175-0.71705l-4.9213 3.172q-2.0173 1.3002-0.71705 3.3175l4.1946 6.5078q1.3002 2.0173 3.3175 0.71705z" clip-path="url(#a)" fill="#fff" stroke="#fff"/>
<g clip-path="url(#a)">
<g transform="translate(147.02 151.58) rotate(-32.804) scale(.08 -.08)">
<use xlink:href="#o"/>
</g>
</g>
<path d="m170.9 154.89 4.6201-3.5966q1.8938-1.4743 0.41952-3.3681l-4.7561-6.1095q-1.4743-1.8938-3.3681-0.41952l-4.6201 3.5966q-1.8938 1.4743-0.41952 3.3681l4.7561 6.1095q1.4743 1.8938 3.3681 0.41952z" clip-path="url(#a)" fill="#fff" stroke="#fff"/>
<g clip-path="url(#a)">
<g transform="translate(168.4 151.68) rotate(-37.9) scale(.08 -.08)">
<use xlink:href="#o"/>
</g>
</g>
<path d="m352.64 150.86 4.3635 3.9039q1.7886 1.6002 3.3889-0.1884l5.1624-5.7702q1.6002-1.7886-0.1884-3.3889l-4.3635-3.9039q-1.7886-1.6002-3.3889 0.1884l-5.1624 5.7702q-1.6002 1.7886 0.1884 3.3889z" clip-path="url(#a)" fill="#fff" stroke="#fff"/>
<g clip-path="url(#a)">
<g transform="translate(355.35 147.84) rotate(41.818) scale(.08 -.08)">
<use xlink:href="#o"/>
</g>
</g>
<path d="m336.2 205.88 1.9044-4.6826q0.90416-2.2232-1.319-3.1273l-7.172-2.9169q-2.2232-0.90416-3.1273 1.319l-1.9044 4.6826q-0.90416 2.2232 1.319 3.1273l7.172 2.9169q2.2232 0.90416 3.1273-1.319z" clip-path="url(#a)" fill="#fff" stroke="#fff"/>
<g clip-path="url(#a)">
<defs>
<path id="x" d="m9.8125 72.906h46.094v-8.3125h-36.234v-21.578h34.719v-8.2969h-34.719v-26.422h37.109v-8.2969h-46.969z"/>
</defs>
<g transform="translate(332.44 204.35) rotate(-67.868) scale(.08 -.08)">
<use xlink:href="#x"/>
</g>
</g>
<path d="m345.56 200.96 2.1045 5.1747q0.90416 2.2232 3.1273 1.319l7.172-2.9169q2.2232-0.90416 1.319-3.1273l-2.1045-5.1747q-0.90416-2.2232-3.1273-1.319l-7.172 2.9169q-2.2232 0.90416-1.319 3.1273z" clip-path="url(#a)" fill="#fff" stroke="#fff"/>
<g clip-path="url(#a)">
<defs>
<path id="p" d="m64.406 67.281v-10.391q-4.9844 4.6406-10.625 6.9219-5.6406 2.2969-11.984 2.2969-12.5 0-19.141-7.6406t-6.6406-22.094q0-14.406 6.6406-22.047t19.141-7.6406q6.3438 0 11.984 2.2969t10.625 6.9375v-10.312q-5.1719-3.5156-10.969-5.2812-5.7812-1.75-12.219-1.75-16.562 0-26.094 10.125-9.5156 10.141-9.5156 27.672 0 17.578 9.5156 27.703 9.5312 10.141 26.094 10.141 6.5312 0 12.312-1.7344 5.7969-1.7344 10.875-5.2031z"/>
</defs>
<g transform="translate(349.32 199.43) rotate(67.868) scale(.08 -.08)">
<use xlink:href="#p"/>
</g>
</g>
<path d="m398.83 235.35v35.285q0 2.4 2.4 2.4h7.7425q2.4 0 2.4-2.4v-35.285q0-2.4-2.4-2.4h-7.7425q-2.4 0-2.4 2.4z" clip-path="url(#a)" fill="#fff" stroke="#fff"/>
<g clip-path="url(#a)">
<defs>
<path id="i" d="m-0.29688 72.906h61.672v-8.3125h-25.875v-64.594h-9.9062v64.594h-25.891z"/>
<path id="e" d="m56.203 29.594v-4.3906h-41.312q0.59375-9.2812 5.5938-14.141t13.938-4.8594q5.1719 0 10.031 1.2656t9.6562 3.8125v-8.5q-4.8438-2.0469-9.9219-3.125t-10.297-1.0781q-13.094 0-20.734 7.6094-7.6406 7.625-7.6406 20.625 0 13.422 7.25 21.297 7.25 7.8906 19.562 7.8906 11.031 0 17.453-7.1094 6.4219-7.0938 6.4219-19.297zm-8.9844 2.6406q-0.09375 7.3594-4.125 11.75-4.0312 4.4062-10.672 4.4062-7.5156 0-12.031-4.25t-5.2031-11.969z"/>
<path id="j" d="m41.109 46.297q-1.5156 0.875-3.2969 1.2812-1.7812 0.42188-3.9219 0.42188-7.625 0-11.703-4.9531t-4.0781-14.234v-28.812h-9.0312v54.688h9.0312v-8.5q2.8438 4.9844 7.375 7.3906 4.5469 2.4219 11.047 2.4219 0.92188 0 2.0469-0.125 1.125-0.10938 2.4844-0.35938z"/>
<path id="k" d="m52 44.188q3.375 6.0625 8.0625 8.9375t11.031 2.875q8.5469 0 13.188-5.9844 4.6406-5.9688 4.6406-17v-33.016h-9.0312v32.719q0 7.8594-2.7969 11.656-2.7812 3.8125-8.4844 3.8125-6.9844 0-11.047-4.6406-4.0469-4.625-4.0469-12.641v-30.906h-9.0312v32.719q0 7.9062-2.7812 11.688t-8.5938 3.7812q-6.8906 0-10.953-4.6562-4.0469-4.6562-4.0469-12.625v-30.906h-9.0312v54.688h9.0312v-8.5q3.0781 5.0312 7.375 7.4219t10.203 2.3906q5.9688 0 10.141-3.0312 4.1719-3.0156 6.1719-8.7812z"/>
<path id="h" d="m9.4219 54.688h8.9844v-54.688h-8.9844zm0 21.297h8.9844v-11.391h-8.9844z"/>
<path id="g" d="m54.891 33.016v-33.016h-8.9844v32.719q0 7.7656-3.0312 11.609-3.0312 3.8594-9.0781 3.8594-7.2812 0-11.484-4.6406-4.2031-4.625-4.2031-12.641v-30.906h-9.0312v54.688h9.0312v-8.5q3.2344 4.9375 7.5938 7.375 4.375 2.4375 10.094 2.4375 9.4219 0 14.25-5.8281 4.8438-5.8281 4.8438-17.156z"/>
<path id="f" d="m34.281 27.484q-10.891 0-15.094-2.4844t-4.2031-8.5q0-4.7812 3.1562-7.5938 3.1562-2.7969 8.5625-2.7969 7.4844 0 12 5.2969t4.5156 14.078v2zm17.922 3.7188v-31.203h-8.9844v8.2969q-3.0781-4.9688-7.6719-7.3438t-11.234-2.375q-8.3906 0-13.359 4.7188-4.9531 4.7188-4.9531 12.625 0 9.2188 6.1719 13.906 6.1875 4.6875 18.438 4.6875h12.609v0.89062q0 6.2031-4.0781 9.5938t-11.453 3.3906q-4.6875 0-9.1406-1.125-4.4375-1.125-8.5312-3.375v8.3125q4.9219 1.9062 9.5625 2.8438 4.6406 0.95312 9.0312 0.95312 11.875 0 17.734-6.1562 5.8594-6.1406 5.8594-18.641z"/>
<path id="l" d="m9.4219 75.984h8.9844v-75.984h-8.9844z"/>
</defs>
<g transform="translate(402.89 235.35) rotate(90) scale(.08 -.08)">
<use xlink:href="#i"/>
<use x="60.818359" xlink:href="#e"/>
<use x="122.341797" xlink:href="#j"/>
<use x="163.439453" xlink:href="#k"/>
<use x="260.851562" xlink:href="#h"/>
<use x="288.634766" xlink:href="#g"/>
<use x="352.013672" xlink:href="#f"/>
<use x="413.292969" xlink:href="#l"/>
</g>
</g>
<path d="m314.54 235.35v35.285q0 2.4 2.4 2.4h7.7425q2.4 0 2.4-2.4v-35.285q0-2.4-2.4-2.4h-7.7425q-2.4 0-2.4 2.4z" clip-path="url(#a)" fill="#fff" stroke="#fff"/>
<g clip-path="url(#a)">
<g transform="translate(318.6 235.35) rotate(90) scale(.08 -.08)">
<use xlink:href="#i"/>
<use x="60.818359" xlink:href="#e"/>
<use x="122.341797" xlink:href="#j"/>
<use x="163.439453" xlink:href="#k"/>
<use x="260.851562" xlink:href="#h"/>
<use x="288.634766" xlink:href="#g"/>
<use x="352.013672" xlink:href="#f"/>
<use x="413.292969" xlink:href="#l"/>
</g>
</g>
<path d="m356.68 235.35v35.285q0 2.4 2.4 2.4h7.7425q2.4 0 2.4-2.4v-35.285q0-2.4-2.4-2.4h-7.7425q-2.4 0-2.4 2.4z" clip-path="url(#a)" fill="#fff" stroke="#fff"/>
<g clip-path="url(#a)">
<g transform="translate(360.75 235.35) rotate(90) scale(.08 -.08)">
<use xlink:href="#i"/>
<use x="60.818359" xlink:href="#e"/>
<use x="122.341797" xlink:href="#j"/>
<use x="163.439453" xlink:href="#k"/>
<use x="260.851562" xlink:href="#h"/>
<use x="288.634766" xlink:href="#g"/>
<use x="352.013672" xlink:href="#f"/>
<use x="413.292969" xlink:href="#l"/>
</g>
</g>
<path d="m125.49 205.88 1.9044-4.6826q0.90416-2.2232-1.319-3.1273l-7.172-2.9169q-2.2232-0.90416-3.1273 1.319l-1.9044 4.6826q-0.90416 2.2232 1.319 3.1273l7.172 2.9169q2.2232 0.90416 3.1273-1.319z" clip-path="url(#a)" fill="#fff" stroke="#fff"/>
<g clip-path="url(#a)">
<g transform="translate(121.72 204.35) rotate(-67.868) scale(.08 -.08)">
<use xlink:href="#x"/>
</g>
</g>
<path d="m134.84 200.96 2.1045 5.1747q0.90416 2.2232 3.1273 1.319l7.172-2.9169q2.2232-0.90416 1.319-3.1273l-2.1045-5.1747q-0.90416-2.2232-3.1273-1.319l-7.172 2.9169q-2.2232 0.90416-1.319 3.1273z" clip-path="url(#a)" fill="#fff" stroke="#fff"/>
<g clip-path="url(#a)">
<g transform="translate(138.6 199.43) rotate(67.868) scale(.08 -.08)">
<use xlink:href="#p"/>
</g>
</g>
<path d="m188.11 235.35v35.285q0 2.4 2.4 2.4h7.7425q2.4 0 2.4-2.4v-35.285q0-2.4-2.4-2.4h-7.7425q-2.4 0-2.4 2.4z" clip-path="url(#a)" fill="#fff" stroke="#fff"/>
<g clip-path="url(#a)">
<g transform="translate(192.17 235.35) rotate(90) scale(.08 -.08)">
<use xlink:href="#i"/>
<use x="60.818359" xlink:href="#e"/>
<use x="122.341797" xlink:href="#j"/>
<use x="163.439453" xlink:href="#k"/>
<use x="260.851562" xlink:href="#h"/>
<use x="288.634766" xlink:href="#g"/>
<use x="352.013672" xlink:href="#f"/>
<use x="413.292969" xlink:href="#l"/>
</g>
</g>
<path d="m103.82 235.35v35.285q0 2.4 2.4 2.4h7.7425q2.4 0 2.4-2.4v-35.285q0-2.4-2.4-2.4h-7.7425q-2.4 0-2.4 2.4z" clip-path="url(#a)" fill="#fff" stroke="#fff"/>
<g clip-path="url(#a)">
<g transform="translate(107.88 235.35) rotate(90) scale(.08 -.08)">
<use xlink:href="#i"/>
<use x="60.818359" xlink:href="#e"/>
<use x="122.341797" xlink:href="#j"/>
<use x="163.439453" xlink:href="#k"/>
<use x="260.851562" xlink:href="#h"/>
<use x="288.634766" xlink:href="#g"/>
<use x="352.013672" xlink:href="#f"/>
<use x="413.292969" xlink:href="#l"/>
</g>
</g>
<path d="m145.96 235.35v35.285q0 2.4 2.4 2.4h7.7425q2.4 0 2.4-2.4v-35.285q0-2.4-2.4-2.4h-7.7425q-2.4 0-2.4 2.4z" clip-path="url(#a)" fill="#fff" stroke="#fff"/>
<g clip-path="url(#a)">
<g transform="translate(150.03 235.35) rotate(90) scale(.08 -.08)">
<use xlink:href="#i"/>
<use x="60.818359" xlink:href="#e"/>
<use x="122.341797" xlink:href="#j"/>
<use x="163.439453" xlink:href="#k"/>
<use x="260.851562" xlink:href="#h"/>
<use x="288.634766" xlink:href="#g"/>
<use x="352.013672" xlink:href="#f"/>
<use x="413.292969" xlink:href="#l"/>
</g>
</g>
<path d="m19.534 235.35v35.285q0 2.4 2.4 2.4h7.7425q2.4 0 2.4-2.4v-35.285q0-2.4-2.4-2.4h-7.7425q-2.4 0-2.4 2.4z" clip-path="url(#a)" fill="#fff" stroke="#fff"/>
<g clip-path="url(#a)">
<g transform="translate(23.597 235.35) rotate(90) scale(.08 -.08)">
<use xlink:href="#i"/>
<use x="60.818359" xlink:href="#e"/>
<use x="122.341797" xlink:href="#j"/>
<use x="163.439453" xlink:href="#k"/>
<use x="260.851562" xlink:href="#h"/>
<use x="288.634766" xlink:href="#g"/>
<use x="352.013672" xlink:href="#f"/>
<use x="413.292969" xlink:href="#l"/>
</g>
</g>
<path d="m61.677 235.35v35.285q0 2.4 2.4 2.4h7.7425q2.4 0 2.4-2.4v-35.285q0-2.4-2.4-2.4h-7.7425q-2.4 0-2.4 2.4z" clip-path="url(#a)" fill="#fff" stroke="#fff"/>
<g clip-path="url(#a)">
<g transform="translate(65.741 235.35) rotate(90) scale(.08 -.08)">
<use xlink:href="#i"/>
<use x="60.818359" xlink:href="#e"/>
<use x="122.341797" xlink:href="#j"/>
<use x="163.439453" xlink:href="#k"/>
<use x="260.851562" xlink:href="#h"/>
<use x="288.634766" xlink:href="#g"/>
<use x="352.013672" xlink:href="#f"/>
<use x="413.292969" xlink:href="#l"/>
</g>
</g>
<path d="m230.25 235.35v35.285q0 2.4 2.4 2.4h7.7425q2.4 0 2.4-2.4v-35.285q0-2.4-2.4-2.4h-7.7425q-2.4 0-2.4 2.4z" clip-path="url(#a)" fill="#fff" stroke="#fff"/>
<g clip-path="url(#a)">
<g transform="translate(234.32 235.35) rotate(90) scale(.08 -.08)">
<use xlink:href="#i"/>
<use x="60.818359" xlink:href="#e"/>
<use x="122.341797" xlink:href="#j"/>
<use x="163.439453" xlink:href="#k"/>
<use x="260.851562" xlink:href="#h"/>
<use x="288.634766" xlink:href="#g"/>
<use x="352.013672" xlink:href="#f"/>
<use x="413.292969" xlink:href="#l"/>
</g>
</g>
<path d="m272.4 235.35v35.285q0 2.4 2.4 2.4h7.7425q2.4 0 2.4-2.4v-35.285q0-2.4-2.4-2.4h-7.7425q-2.4 0-2.4 2.4z" clip-path="url(#a)" fill="#fff" stroke="#fff"/>
<g clip-path="url(#a)">
<g transform="translate(276.46 235.35) rotate(90) scale(.08 -.08)">
<use xlink:href="#i"/>
<use x="60.818359" xlink:href="#e"/>
<use x="122.341797" xlink:href="#j"/>
<use x="163.439453" xlink:href="#k"/>
<use x="260.851562" xlink:href="#h"/>
<use x="288.634766" xlink:href="#g"/>
<use x="352.013672" xlink:href="#f"/>
<use x="413.292969" xlink:href="#l"/>
</g>
</g>
<path d="m440.97 235.35v35.285q0 2.4 2.4 2.4h7.7425q2.4 0 2.4-2.4v-35.285q0-2.4-2.4-2.4h-7.7425q-2.4 0-2.4 2.4z" clip-path="url(#a)" fill="#fff" stroke="#fff"/>
<g clip-path="url(#a)">
<g transform="translate(445.03 235.35) rotate(90) scale(.08 -.08)">
<use xlink:href="#i"/>
<use x="60.818359" xlink:href="#e"/>
<use x="122.341797" xlink:href="#j"/>
<use x="163.439453" xlink:href="#k"/>
<use x="260.851562" xlink:href="#h"/>
<use x="288.634766" xlink:href="#g"/>
<use x="352.013672" xlink:href="#f"/>
<use x="413.292969" xlink:href="#l"/>
</g>
</g>
<defs>
<path id="b" d="m0 8.6603c2.2967 0 4.4997-0.9125 6.1237-2.5365 1.624-1.624 2.5365-3.827 2.5365-6.1237s-0.9125-4.4997-2.5365-6.1237c-1.624-1.624-3.827-2.5365-6.1237-2.5365s-4.4997 0.9125-6.1237 2.5365c-1.624 1.624-2.5365 3.827-2.5365 6.1237s0.9125 4.4997 2.5365 6.1237c1.624 1.624 3.827 2.5365 6.1237 2.5365z"/>
</defs>
<g clip-path="url(#a)">
<use x="25.804832" y="278.898639" fill="#ffffff" stroke="#ffffff" xlink:href="#b"/>
</g>
<g clip-path="url(#a)">
<use x="67.948471" y="278.898639" fill="#ffffff" stroke="#ffffff" xlink:href="#b"/>
</g>
<g clip-path="url(#a)">
<use x="110.09211" y="278.898639" fill="#ffffff" stroke="#ffffff" xlink:href="#b"/>
</g>
<g clip-path="url(#a)">
<use x="152.235749" y="278.898639" fill="#ffffff" stroke="#ffffff" xlink:href="#b"/>
</g>
<g clip-path="url(#a)">
<use x="194.379388" y="278.898639" fill="#ffffff" stroke="#ffffff" xlink:href="#b"/>
</g>
<g clip-path="url(#a)">
<use x="236.523027" y="278.898639" fill="#ffffff" stroke="#ffffff" xlink:href="#b"/>
</g>
<g clip-path="url(#a)">
<use x="278.666667" y="278.898639" fill="#ffffff" stroke="#ffffff" xlink:href="#b"/>
</g>
<g clip-path="url(#a)">
<use x="320.810306" y="278.898639" fill="#ffffff" stroke="#ffffff" xlink:href="#b"/>
</g>
<g clip-path="url(#a)">
<use x="362.953945" y="278.898639" fill="#ffffff" stroke="#ffffff" xlink:href="#b"/>
</g>
<g clip-path="url(#a)">
<use x="405.097584" y="278.898639" fill="#ffffff" stroke="#ffffff" xlink:href="#b"/>
</g>
<g clip-path="url(#a)">
<use x="447.241223" y="278.898639" fill="#ffffff" stroke="#ffffff" xlink:href="#b"/>
</g>
<g clip-path="url(#a)">
<use x="280.64215" y="14.434694" fill="#ffffff" stroke="#ffffff" xlink:href="#b"/>
</g>
<g clip-path="url(#a)">
<use x="336.614171" y="122.742749" fill="#ffffff" stroke="#ffffff" xlink:href="#b"/>
</g>
<g clip-path="url(#a)">
<use x="270.764734" y="69.198728" fill="#ffffff" stroke="#ffffff" xlink:href="#b"/>
</g>
<g clip-path="url(#a)">
<use x="341.882125" y="175.275218" fill="#ffffff" stroke="#ffffff" xlink:href="#b"/>
</g>
<g clip-path="url(#a)">
<use x="405.097584" y="227.086928" fill="#ffffff" stroke="#ffffff" xlink:href="#b"/>
</g>
<g clip-path="url(#a)">
<use x="320.810306" y="227.086928" fill="#ffffff" stroke="#ffffff" xlink:href="#b"/>
</g>
<g clip-path="url(#a)">
<use x="362.953945" y="227.086928" fill="#ffffff" stroke="#ffffff" xlink:href="#b"/>
</g>
<g clip-path="url(#a)">
<use x="531.528502" y="278.898639" fill="#ffffff" stroke="#ffffff" xlink:href="#b"/>
</g>
<g clip-path="url(#a)">
<use x="489.384863" y="278.898639" fill="#ffffff" stroke="#ffffff" xlink:href="#b"/>
</g>
<g clip-path="url(#a)">
<use x="131.16393" y="175.275218" fill="#ffffff" stroke="#ffffff" xlink:href="#b"/>
</g>
<g clip-path="url(#a)">
<use x="194.379388" y="227.086928" fill="#ffffff" stroke="#ffffff" xlink:href="#b"/>
</g>
<g clip-path="url(#a)">
<use x="110.09211" y="227.086928" fill="#ffffff" stroke="#ffffff" xlink:href="#b"/>
</g>
<g clip-path="url(#a)">
<use x="152.235749" y="227.086928" fill="#ffffff" stroke="#ffffff" xlink:href="#b"/>
</g>
<g clip-path="url(#a)">
<use x="25.804832" y="227.086928" fill="#ffffff" stroke="#ffffff" xlink:href="#b"/>
</g>
<g clip-path="url(#a)">
<use x="67.948471" y="227.086928" fill="#ffffff" stroke="#ffffff" xlink:href="#b"/>
</g>
<g clip-path="url(#a)">
<use x="236.523027" y="227.086928" fill="#ffffff" stroke="#ffffff" xlink:href="#b"/>
</g>
<g clip-path="url(#a)">
<use x="278.666667" y="227.086928" fill="#ffffff" stroke="#ffffff" xlink:href="#b"/>
</g>
<g clip-path="url(#a)">
<use x="447.241223" y="227.086928" fill="#ffffff" stroke="#ffffff" xlink:href="#b"/>
</g>
<g clip-path="url(#a)">
<defs>
<path id="t" d="m12.5 72.906h10.297v-8.4062l-8-15.625h-6.2969l4 15.625zm20.016 0h10.312v-8.4062l-8.0156-15.625h-6.2969l4 15.625z"/>
</defs>
<g transform="translate(23.214 281.66) scale(.1 -.1)">
<use xlink:href="#t"/>
</g>
</g>
<g clip-path="url(#a)">
<defs>
<path id="ah" d="m18.797 48.875h-10.297v8.4531l8 15.578h6.2969l-4-15.578zm20.016 0h-10.297v8.4531l8.0156 15.578h6.2969l-4.0156-15.578z"/>
</defs>
<g transform="translate(65.358 281.66) scale(.1 -.1)">
<use xlink:href="#ah"/>
</g>
</g>
<g clip-path="url(#a)">
<defs>
<path id="ag" d="m3.3281 72.906h9.9531l15.328-61.625 15.281 61.625h11.094l15.328-61.625 15.281 61.625h10.016l-18.312-72.906h-12.406l-15.375 63.281-15.531-63.281h-12.406z"/>
<path id="ad" d="m30.609 48.391q-7.2188 0-11.422-5.6406t-4.2031-15.453 4.1719-15.453q4.1875-5.6406 11.453-5.6406 7.1875 0 11.375 5.6562 4.2031 5.6719 4.2031 15.438 0 9.7188-4.2031 15.406-4.1875 5.6875-11.375 5.6875zm0 7.6094q11.719 0 18.406-7.625 6.7031-7.6094 6.7031-21.078 0-13.422-6.7031-21.078-6.6875-7.6406-18.406-7.6406-11.766 0-18.438 7.6406-6.6562 7.6562-6.6562 21.078 0 13.469 6.6562 21.078 6.6719 7.625 18.438 7.625z"/>
<path id="s" d="m45.406 46.391v29.594h8.9844v-75.984h-8.9844v8.2031q-2.8281-4.875-7.1562-7.25-4.3125-2.375-10.375-2.375-9.9062 0-16.141 7.9062-6.2188 7.9219-6.2188 20.812t6.2188 20.797q6.2344 7.9062 16.141 7.9062 6.0625 0 10.375-2.375 4.3281-2.3594 7.1562-7.2344zm-30.609-19.094q0-9.9062 4.0781-15.547t11.203-5.6406 11.219 5.6406q4.1094 5.6406 4.1094 15.547t-4.1094 15.547q-4.0938 5.6406-11.219 5.6406t-11.203-5.6406-4.0781-15.547z"/>
</defs>
<g transform="translate(89.614 281.66) scale(.1 -.1)">
<use xlink:href="#ag"/>
<use x="98.798828" xlink:href="#ad"/>
<use x="159.980469" xlink:href="#ad"/>
<use x="221.162109" xlink:href="#s"/>
<use x="284.638672" xlink:href="#e"/>
<use x="346.162109" xlink:href="#g"/>
</g>
</g>
<g clip-path="url(#a)">
<defs>
<path id="ab" d="m44.281 53.078v-8.5q-3.7969 1.9531-7.9062 2.9219-4.0938 0.98438-8.5 0.98438-6.6875 0-10.031-2.0469t-3.3438-6.1562q0-3.125 2.3906-4.9062t9.625-3.3906l3.0781-0.6875q9.5625-2.0469 13.594-5.7812t4.0312-10.422q0-7.625-6.0312-12.078-6.0312-4.4375-16.578-4.4375-4.3906 0-9.1562 0.85938t-10.031 2.5625v9.2812q4.9844-2.5938 9.8125-3.8906 4.8281-1.2812 9.5781-1.2812 6.3438 0 9.75 2.1719 3.4219 2.1719 3.4219 6.125 0 3.6562-2.4688 5.6094-2.4531 1.9531-10.812 3.7656l-3.125 0.73438q-8.3438 1.75-12.062 5.3906-3.7031 3.6406-3.7031 9.9844 0 7.7188 5.4688 11.906 5.4688 4.2031 15.531 4.2031 4.9688 0 9.3594-0.73438 4.4062-0.71875 8.1094-2.1875z"/>
<path id="ae" d="m54.891 33.016v-33.016h-8.9844v32.719q0 7.7656-3.0312 11.609-3.0312 3.8594-9.0781 3.8594-7.2812 0-11.484-4.6406-4.2031-4.625-4.2031-12.641v-30.906h-9.0312v75.984h9.0312v-29.797q3.2344 4.9375 7.5938 7.375 4.375 2.4375 10.094 2.4375 9.4219 0 14.25-5.8281 4.8438-5.8281 4.8438-17.156z"/>
<path id="ac" d="m18.109 8.2031v-29h-9.0312v75.484h9.0312v-8.2969q2.8438 4.875 7.1562 7.2344 4.3281 2.375 10.328 2.375 9.9688 0 16.188-7.9062 6.2344-7.9062 6.2344-20.797t-6.2344-20.812q-6.2188-7.9062-16.188-7.9062-6 0-10.328 2.375-4.3125 2.375-7.1562 7.25zm30.578 19.094q0 9.9062-4.0781 15.547t-11.203 5.6406q-7.1406 0-11.219-5.6406t-4.0781-15.547 4.0781-15.547 11.219-5.6406q7.125 0 11.203 5.6406t4.0781 15.547z"/>
</defs>
<g transform="translate(139.29 281.66) scale(.1 -.1)">
<use xlink:href="#ab"/>
<use x="52.099609" xlink:href="#ae"/>
<use x="115.478516" xlink:href="#h"/>
<use x="143.261719" xlink:href="#ac"/>
<use x="206.738281" xlink:href="#ab"/>
</g>
</g>
<g clip-path="url(#a)">
<defs>
<path id="ap" d="m32.172-5.0781q-3.7969-9.7656-7.4219-12.734-3.6094-2.9844-9.6562-2.9844h-7.1875v7.5156h5.2812q3.7031 0 5.75 1.7656 2.0625 1.75 4.5469 8.2969l1.6094 4.0938-22.109 53.812h9.5156l17.094-42.766 17.094 42.766h9.5156z"/>
<path id="af" d="m48.688 27.297q0 9.9062-4.0781 15.547t-11.203 5.6406q-7.1406 0-11.219-5.6406t-4.0781-15.547 4.0781-15.547 11.219-5.6406q7.125 0 11.203 5.6406t4.0781 15.547zm-30.578 19.094q2.8438 4.875 7.1562 7.2344 4.3281 2.375 10.328 2.375 9.9688 0 16.188-7.9062 6.2344-7.9062 6.2344-20.797t-6.2344-20.812q-6.2188-7.9062-16.188-7.9062-6 0-10.328 2.375-4.3125 2.375-7.1562 7.25v-8.2031h-9.0312v75.984h9.0312z"/>
</defs>
<g transform="translate(177.23 281.66) scale(.1 -.1)">
<use xlink:href="#k"/>
<use x="97.412109" xlink:href="#f"/>
<use x="158.691406" xlink:href="#ap"/>
<use x="217.871094" xlink:href="#af"/>
<use x="281.347656" xlink:href="#e"/>
</g>
</g>
<g clip-path="url(#a)">
<defs>
<path id="ao" d="m11.719 12.406h10.297v-8.4062l-8-15.625h-6.2969l4 15.625z"/>
</defs>
<g transform="translate(234.93 281.66) scale(.1 -.1)">
<use xlink:href="#ao"/>
</g>
</g>
<g clip-path="url(#a)">
<g transform="translate(276.08 281.66) scale(.1 -.1)">
<use xlink:href="#t"/>
</g>
</g>
<g clip-path="url(#a)">
<defs>
<path id="aq" d="m18.312 70.219v-15.531h18.5v-6.9844h-18.5v-29.688q0-6.6875 1.8281-8.5938t7.4531-1.9062h9.2188v-7.5156h-9.2188q-10.406 0-14.359 3.875-3.9531 3.8906-3.9531 14.141v29.688h-6.5938v6.9844h6.5938v15.531z"/>
</defs>
<g transform="translate(312.6 281.66) scale(.1 -.1)">
<use xlink:href="#aq"/>
<use x="39.208984" xlink:href="#ae"/>
<use x="102.587891" xlink:href="#e"/>
</g>
</g>
<g clip-path="url(#a)">
<g transform="translate(339.37 281.66) scale(.1 -.1)">
<use xlink:href="#p"/>
<use x="69.824219" xlink:href="#f"/>
<use x="131.103516" xlink:href="#g"/>
<use x="194.482422" xlink:href="#f"/>
<use x="255.761719" xlink:href="#s"/>
<use x="319.238281" xlink:href="#h"/>
<use x="347.021484" xlink:href="#f"/>
<use x="408.300781" xlink:href="#g"/>
</g>
</g>
<g clip-path="url(#a)">
<g transform="translate(387.76 281.66) scale(.1 -.1)">
<use xlink:href="#j"/>
<use x="41.082031" xlink:href="#e"/>
<use x="102.605469" xlink:href="#ac"/>
<use x="166.082031" xlink:href="#l"/>
<use x="193.865234" xlink:href="#h"/>
<use x="221.648438" xlink:href="#e"/>
<use x="283.171875" xlink:href="#s"/>
</g>
</g>
<g clip-path="url(#a)">
<defs>
<path id="d" d="m10.688 12.406h10.312v-12.406h-10.312z"/>
</defs>
<g transform="translate(445.65 281.66) scale(.1 -.1)">
<use xlink:href="#d"/>
</g>
</g>
<g clip-path="url(#a)">
<defs>
<path id="c" d="m12.406 8.2969h16.109v55.625l-17.531-3.5156v8.9844l17.438 3.5156h9.8594v-64.609h16.109v-8.2969h-41.984z"/>
</defs>
<g transform="translate(272.69 17.194) scale(.1 -.1)">
<use xlink:href="#c"/>
<use x="63.623047" xlink:href="#d"/>
<use x="95.410156" xlink:href="#c"/>
</g>
</g>
<g clip-path="url(#a)">
<defs>
<path id="am" d="m37.797 64.312-24.906-38.922h24.906zm-2.5938 8.5938h12.406v-47.516h10.406v-8.2031h-10.406v-17.188h-9.8125v17.188h-32.906v9.5156z"/>
</defs>
<g transform="translate(328.66 125.5) scale(.1 -.1)">
<use xlink:href="#c"/>
<use x="63.623047" xlink:href="#d"/>
<use x="95.410156" xlink:href="#am"/>
</g>
</g>
<g clip-path="url(#a)">
<defs>
<path id="z" d="m8.2031 72.906h46.875v-4.2031l-26.469-68.703h-10.297l24.906 64.594h-35.016z"/>
</defs>
<g transform="translate(262.81 71.958) scale(.1 -.1)">
<use xlink:href="#c"/>
<use x="63.623047" xlink:href="#d"/>
<use x="95.410156" xlink:href="#z"/>
</g>
</g>
<g clip-path="url(#a)">
<defs>
<path id="y" d="m10.984 1.5156v8.9844q3.7188-1.7656 7.5156-2.6875 3.8125-0.92188 7.4844-0.92188 9.7656 0 14.906 6.5625 5.1562 6.5625 5.8906 19.953-2.8281-4.2031-7.1875-6.4531-4.3438-2.25-9.6094-2.25-10.938 0-17.312 6.6094-6.375 6.625-6.375 18.109 0 11.219 6.6406 18 6.6406 6.7969 17.672 6.7969 12.656 0 19.312-9.7031 6.6719-9.6875 6.6719-28.141 0-17.234-8.1875-27.516-8.1719-10.281-21.984-10.281-3.7188 0-7.5312 0.73438-3.7969 0.73438-7.9062 2.2031zm19.625 30.906q6.6406 0 10.516 4.5312 3.8906 4.5469 3.8906 12.469 0 7.8594-3.8906 12.422-3.875 4.5625-10.516 4.5625t-10.516-4.5625-3.875-12.422q0-7.9219 3.875-12.469 3.875-4.5312 10.516-4.5312z"/>
</defs>
<g transform="translate(333.93 178.03) scale(.1 -.1)">
<use xlink:href="#c"/>
<use x="63.623047" xlink:href="#d"/>
<use x="95.410156" xlink:href="#y"/>
</g>
</g>
<g clip-path="url(#a)">
<defs>
<path id="aa" d="m31.781 66.406q-7.6094 0-11.453-7.5-3.8281-7.4844-3.8281-22.531 0-14.984 3.8281-22.484 3.8438-7.5 11.453-7.5 7.6719 0 11.5 7.5 3.8438 7.5 3.8438 22.484 0 15.047-3.8438 22.531-3.8281 7.5-11.5 7.5zm0 7.8125q12.266 0 18.734-9.7031 6.4688-9.6875 6.4688-28.141 0-18.406-6.4688-28.109-6.4688-9.6875-18.734-9.6875-12.25 0-18.719 9.6875-6.4688 9.7031-6.4688 28.109 0 18.453 6.4688 28.141 6.4688 9.7031 18.719 9.7031z"/>
</defs>
<g transform="translate(393.96 229.85) scale(.1 -.1)">
<use xlink:href="#c"/>
<use x="63.623047" xlink:href="#d"/>
<use x="95.410156" xlink:href="#c"/>
<use x="159.033203" xlink:href="#aa"/>
</g>
</g>
<g clip-path="url(#a)">
<g transform="translate(309.68 229.85) scale(.1 -.1)">
<use xlink:href="#c"/>
<use x="63.623047" xlink:href="#d"/>
<use x="95.410156" xlink:href="#c"/>
<use x="159.033203" xlink:href="#c"/>
</g>
</g>
<g clip-path="url(#a)">
<defs>
<path id="n" d="m19.188 8.2969h34.422v-8.2969h-46.281v8.2969q5.6094 5.8125 15.297 15.594 9.7031 9.7969 12.188 12.641 4.7344 5.3125 6.6094 9 1.8906 3.6875 1.8906 7.25 0 5.8125-4.0781 9.4688-4.0781 3.6719-10.625 3.6719-4.6406 0-9.7969-1.6094-5.1406-1.6094-11-4.8906v9.9688q5.9531 2.3906 11.125 3.6094 5.1875 1.2188 9.4844 1.2188 11.328 0 18.062-5.6719 6.7344-5.6562 6.7344-15.125 0-4.5-1.6875-8.5312-1.6719-4.0156-6.125-9.4844-1.2188-1.4219-7.7656-8.1875-6.5312-6.7656-18.453-18.922z"/>
</defs>
<g transform="translate(351.82 229.85) scale(.1 -.1)">
<use xlink:href="#c"/>
<use x="63.623047" xlink:href="#d"/>
<use x="95.410156" xlink:href="#c"/>
<use x="159.033203" xlink:href="#n"/>
</g>
</g>
<g clip-path="url(#a)">
<defs>
<path id="m" d="m9.8125 72.906h9.8594v-72.906h-9.8594z"/>
<path id="u" d="m9.8125 72.906h14.703l18.594-49.609 18.703 49.609h14.703v-72.906h-9.625v64.016l-18.797-50h-9.9062l-18.797 50v-64.016h-9.5781z"/>
<path id="v" d="m9.8125 72.906h9.8594v-64.609h35.5v-8.2969h-45.359z"/>
</defs>
<g transform="translate(510.44 281.66) scale(.1 -.1)">
<use xlink:href="#m"/>
<use x="29.492188" xlink:href="#u"/>
<use x="115.771484" xlink:href="#q"/>
<use x="176.074219" xlink:href="#v"/>
<use x="231.787109" xlink:href="#m"/>
<use x="261.279297" xlink:href="#p"/>
<use x="331.103516" xlink:href="#m"/>
<use x="360.595703" xlink:href="#i"/>
</g>
</g>
<g clip-path="url(#a)">
<g transform="translate(468.3 281.66) scale(.1 -.1)">
<use xlink:href="#m"/>
<use x="29.492188" xlink:href="#u"/>
<use x="115.771484" xlink:href="#q"/>
<use x="176.074219" xlink:href="#v"/>
<use x="231.787109" xlink:href="#m"/>
<use x="261.279297" xlink:href="#p"/>
<use x="331.103516" xlink:href="#m"/>
<use x="360.595703" xlink:href="#i"/>
</g>
</g>
<g clip-path="url(#a)">
<defs>
<path id="al" d="m10.797 72.906h38.719v-8.3125h-29.688v-17.859q2.1406 0.73438 4.2812 1.0938 2.1562 0.35938 4.3125 0.35938 12.203 0 19.328-6.6875 7.1406-6.6875 7.1406-18.109 0-11.766-7.3281-18.297-7.3281-6.5156-20.656-6.5156-4.5938 0-9.3594 0.78125-4.75 0.78125-9.8281 2.3438v9.9219q4.3906-2.3906 9.0781-3.5625t9.9062-1.1719q8.4531 0 13.375 4.4375 4.9375 4.4375 4.9375 12.062 0 7.6094-4.9375 12.047-4.9219 4.4531-13.375 4.4531-3.9531 0-7.8906-0.875-3.9219-0.875-8.0156-2.7344z"/>
</defs>
<g transform="translate(120.03 178.03) scale(.1 -.1)">
<use xlink:href="#c"/>
<use x="63.623047" xlink:href="#d"/>
<use x="95.410156" xlink:href="#c"/>
<use x="159.033203" xlink:href="#al"/>
</g>
</g>
<g clip-path="url(#a)">
<defs>
<path id="ak" d="m33.016 40.375q-6.6406 0-10.531-4.5469-3.875-4.5312-3.875-12.438 0-7.8594 3.875-12.438 3.8906-4.5625 10.531-4.5625t10.516 4.5625q3.875 4.5781 3.875 12.438 0 7.9062-3.875 12.438-3.875 4.5469-10.516 4.5469zm19.578 30.922v-8.9844q-3.7188 1.75-7.5 2.6719-3.7812 0.9375-7.5 0.9375-9.7656 0-14.922-6.5938-5.1406-6.5938-5.875-19.922 2.875 4.25 7.2188 6.5156 4.3594 2.2656 9.5781 2.2656 10.984 0 17.359-6.6719 6.375-6.6562 6.375-18.125 0-11.234-6.6406-18.031-6.6406-6.7812-17.672-6.7812-12.656 0-19.344 9.6875-6.6875 9.7031-6.6875 28.109 0 17.281 8.2031 27.562t22.016 10.281q3.7188 0 7.5-0.73438t7.8906-2.1875z"/>
</defs>
<g transform="translate(183.25 229.85) scale(.1 -.1)">
<use xlink:href="#c"/>
<use x="63.623047" xlink:href="#d"/>
<use x="95.410156" xlink:href="#c"/>
<use x="159.033203" xlink:href="#ak"/>
</g>
</g>
<g clip-path="url(#a)">
<g transform="translate(98.959 229.85) scale(.1 -.1)">
<use xlink:href="#c"/>
<use x="63.623047" xlink:href="#d"/>
<use x="95.410156" xlink:href="#c"/>
<use x="159.033203" xlink:href="#z"/>
</g>
</g>
<g clip-path="url(#a)">
<defs>
<path id="aj" d="m31.781 34.625q-7.0312 0-11.062-3.7656-4.0156-3.7656-4.0156-10.344 0-6.5938 4.0156-10.359 4.0312-3.7656 11.062-3.7656t11.078 3.7812q4.0625 3.7969 4.0625 10.344 0 6.5781-4.0312 10.344-4.0156 3.7656-11.109 3.7656zm-9.8594 4.1875q-6.3438 1.5625-9.8906 5.9062-3.5312 4.3594-3.5312 10.609 0 8.7344 6.2188 13.812 6.2344 5.0781 17.062 5.0781 10.891 0 17.094-5.0781t6.2031-13.812q0-6.25-3.5469-10.609-3.5312-4.3438-9.8281-5.9062 7.125-1.6562 11.094-6.5 3.9844-4.8281 3.9844-11.797 0-10.609-6.4688-16.281-6.4688-5.6562-18.531-5.6562-12.047 0-18.531 5.6562-6.4688 5.6719-6.4688 16.281 0 6.9688 4 11.797 4.0156 4.8438 11.141 6.5zm-3.6094 15.578q0-5.6562 3.5312-8.8281 3.5469-3.1719 9.9375-3.1719 6.3594 0 9.9375 3.1719 3.5938 3.1719 3.5938 8.8281 0 5.6719-3.5938 8.8438-3.5781 3.1719-9.9375 3.1719-6.3906 0-9.9375-3.1719-3.5312-3.1719-3.5312-8.8438z"/>
</defs>
<g transform="translate(141.1 229.85) scale(.1 -.1)">
<use xlink:href="#c"/>
<use x="63.623047" xlink:href="#d"/>
<use x="95.410156" xlink:href="#c"/>
<use x="159.033203" xlink:href="#aj"/>
</g>
</g>
<g clip-path="url(#a)">
<g transform="translate(14.672 229.85) scale(.1 -.1)">
<use xlink:href="#c"/>
<use x="63.623047" xlink:href="#d"/>
<use x="95.410156" xlink:href="#c"/>
<use x="159.033203" xlink:href="#y"/>
</g>
</g>
<g clip-path="url(#a)">
<g transform="translate(56.816 229.85) scale(.1 -.1)">
<use xlink:href="#c"/>
<use x="63.623047" xlink:href="#d"/>
<use x="95.410156" xlink:href="#n"/>
<use x="159.033203" xlink:href="#aa"/>
</g>
</g>
<g clip-path="url(#a)">
<g transform="translate(225.39 229.85) scale(.1 -.1)">
<use xlink:href="#c"/>
<use x="63.623047" xlink:href="#d"/>
<use x="95.410156" xlink:href="#n"/>
<use x="159.033203" xlink:href="#c"/>
</g>
</g>
<g clip-path="url(#a)">
<g transform="translate(267.53 229.85) scale(.1 -.1)">
<use xlink:href="#c"/>
<use x="63.623047" xlink:href="#d"/>
<use x="95.410156" xlink:href="#n"/>
<use x="159.033203" xlink:href="#n"/>
</g>
</g>
<g clip-path="url(#a)">
<defs>
<path id="an" d="m40.578 39.312q7.0781-1.5156 11.047-6.3125 3.9844-4.7812 3.9844-11.812 0-10.781-7.4219-16.703-7.4219-5.9062-21.094-5.9062-4.5781 0-9.4375 0.90625t-10.031 2.7188v9.5156q4.0938-2.3906 8.9688-3.6094 4.8906-1.2188 10.219-1.2188 9.2656 0 14.125 3.6562t4.8594 10.641q0 6.4531-4.5156 10.078-4.5156 3.6406-12.562 3.6406h-8.5v8.1094h8.8906q7.2656 0 11.125 2.9062t3.8594 8.375q0 5.6094-3.9844 8.6094-3.9688 3.0156-11.391 3.0156-4.0625 0-8.7031-0.89062-4.6406-0.875-10.203-2.7188v8.7812q5.625 1.5625 10.531 2.3438t9.25 0.78125q11.234 0 17.766-5.1094 6.5469-5.0938 6.5469-13.781 0-6.0625-3.4688-10.234t-9.8594-5.7812z"/>
</defs>
<g transform="translate(436.11 229.85) scale(.1 -.1)">
<use xlink:href="#c"/>
<use x="63.623047" xlink:href="#d"/>
<use x="95.410156" xlink:href="#n"/>
<use x="159.033203" xlink:href="#an"/>
</g>
</g>
<defs>
<clipPath id="a">
<rect width="557.33" height="293.33"/>
</clipPath>
</defs>
</svg>
