<?xml version="1.0" encoding="UTF-8"?>
<!DOCTYPE svg  PUBLIC '-//W3C//DTD SVG 1.1//EN'  'http://www.w3.org/Graphics/SVG/1.1/DTD/svg11.dtd'>
<svg width="861.33pt" height="453.33pt" version="1.1" viewBox="0 0 861.33 453.33" xmlns="http://www.w3.org/2000/svg" xmlns:xlink="http://www.w3.org/1999/xlink">
<defs>
<style type="text/css">*{stroke-linecap:butt;stroke-linejoin:round;}</style>
</defs>
<path d="m0 453.33h861.33v-453.33h-861.33z" fill="#fff"/>
<g fill="none" stroke="#000">
<path d="m219.62 21.518-111.1 343.99" clip-path="url(#a)"/>
<path d="m219.62 21.518 3.955 343.99" clip-path="url(#a)"/>
<path d="m219.62 21.518 279.36 71.865" clip-path="url(#a)"/>
<path d="m219.62 21.518-180.13 343.99" clip-path="url(#a)"/>
<path d="m219.62 21.518-42.066 343.99" clip-path="url(#a)"/>
<path d="m219.62 21.518 49.976 343.99" clip-path="url(#a)"/>
<path d="m108.52 365.51-23.011 66.303" clip-path="url(#a)"/>
<path d="m108.52 365.51 23.011 66.303" clip-path="url(#a)"/>
<path d="m223.57 365.51v66.303" clip-path="url(#a)"/>
<path d="m498.98 93.383 322.87 338.43" clip-path="url(#a)"/>
<path d="m498.98 93.383-183.37 272.13" clip-path="url(#a)"/>
<path d="m498.98 93.383-137.35 272.13" clip-path="url(#a)"/>
<path d="m498.98 93.383-2.1573 70.081" clip-path="url(#a)"/>
<path d="m315.61 365.51v66.303" clip-path="url(#a)"/>
<path d="m361.63 365.51v66.303" clip-path="url(#a)"/>
<path d="m496.82 163.46-89.166 202.05" clip-path="url(#a)"/>
<path d="m496.82 163.46 89.166 68.52" clip-path="url(#a)"/>
<path d="m407.66 365.51v66.303" clip-path="url(#a)"/>
<path d="m585.99 231.98-132.31 133.53" clip-path="url(#a)"/>
<path d="m585.99 231.98-63.279 67.225" clip-path="url(#a)"/>
<path d="m585.99 231.98 97.795 67.225" clip-path="url(#a)"/>
<path d="m585.99 231.98 97.795 133.53" clip-path="url(#a)"/>
<path d="m453.68 365.51v66.303" clip-path="url(#a)"/>
<path d="m522.71 299.21-23.011 66.303" clip-path="url(#a)"/>
<path d="m522.71 299.21 23.011 66.303" clip-path="url(#a)"/>
<path d="m683.78 299.21-92.043 66.303" clip-path="url(#a)"/>
<path d="m683.78 299.21v66.303" clip-path="url(#a)"/>
<path d="m683.78 299.21 92.043 66.303" clip-path="url(#a)"/>
<path d="m683.78 365.51v66.303" clip-path="url(#a)"/>
<path d="m591.74 365.51v66.303" clip-path="url(#a)"/>
<path d="m683.78 365.51-46.021 66.303" clip-path="url(#a)"/>
<path d="m683.78 365.51 46.021 66.303" clip-path="url(#a)"/>
<path d="m499.7 365.51v66.303" clip-path="url(#a)"/>
<path d="m545.72 365.51v66.303" clip-path="url(#a)"/>
<path d="m303.75 21.518-195.23 343.99" clip-path="url(#a)"/>
<path d="m303.75 21.518 195.23 71.865" clip-path="url(#a)"/>
<path d="m39.485 365.51v66.303" clip-path="url(#a)"/>
<path d="m177.55 365.51v66.303" clip-path="url(#a)"/>
<path d="m269.59 365.51v66.303" clip-path="url(#a)"/>
<path d="m775.83 365.51v66.303" clip-path="url(#a)"/>
</g>
<path d="m169.35 197.56 1.3699-4.2418q0.7376-2.2838-1.5462-3.0214l-7.3678-2.3795q-2.2838-0.7376-3.0214 1.5462l-1.3699 4.2418q-0.7376 2.2838 1.5462 3.0214l7.3678 2.3795q2.2838 0.7376 3.0214-1.5462z" clip-path="url(#a)" fill="#fff" stroke="#fff"/>
<g clip-path="url(#a)">
<defs>
<path id="s" d="m9.8125 72.906h9.8594v-64.609h35.5v-8.2969h-45.359z"/>
</defs>
<g transform="translate(165.48 196.31) rotate(-72.101) scale(.08 -.08)">
<use xlink:href="#s"/>
</g>
</g>
<path d="m215.29 190.58 0.069165 6.0159q0.027592 2.3998 2.4274 2.3722l7.742-0.089011q2.3998-0.027591 2.3722-2.4274l-0.069166-6.0159q-0.027591-2.3998-2.4274-2.3722l-7.742 0.089011q-2.3998 0.027592-2.3722 2.4274z" clip-path="url(#a)" fill="#fff" stroke="#fff"/>
<g clip-path="url(#a)">
<defs>
<path id="ae" d="m9.8125 72.906h9.8594v-29.891h35.844v29.891h9.8594v-72.906h-9.8594v34.719h-35.844v-34.719h-9.8594z"/>
</defs>
<g transform="translate(219.35 190.53) rotate(89.341) scale(.08 -.08)">
<use xlink:href="#ae"/>
</g>
</g>
<path d="m354.82 62.775 5.8266 1.4988q2.3243 0.59792 2.9222-1.7264l1.9289-7.4984q0.59792-2.3243-1.7264-2.9222l-5.8266-1.4988q-2.3243-0.59792-2.9222 1.7264l-1.9289 7.4984q-0.59792 2.3243 1.7264 2.9222z" clip-path="url(#a)" fill="#fff" stroke="#fff"/>
<g clip-path="url(#a)">
<g transform="translate(355.83 58.839) rotate(14.426) scale(.08 -.08)">
<use xlink:href="#ae"/>
</g>
</g>
<path d="m133.75 199.02 2.7161-5.1869q1.1133-2.1261-1.0128-3.2395l-6.859-3.5917q-2.1261-1.1133-3.2395 1.0128l-2.7161 5.1869q-1.1133 2.1261 1.0128 3.2395l6.859 3.5917q2.1261 1.1133 3.2395-1.0128z" clip-path="url(#a)" fill="#fff" stroke="#fff"/>
<g clip-path="url(#a)">
<defs>
<path id="r" d="m8.6875 72.906h9.9219v-44.297q0-11.719 4.2344-16.875 4.25-5.1406 13.781-5.1406 9.4688 0 13.719 5.1406 4.25 5.1562 4.25 16.875v44.297h9.9062v-45.516q0-14.25-7.0625-21.531-7.0469-7.2812-20.812-7.2812-13.828 0-20.891 7.2812-7.0469 7.2812-7.0469 21.531z"/>
</defs>
<g transform="translate(130.15 197.13) rotate(-62.361) scale(.08 -.08)">
<use xlink:href="#r"/>
</g>
</g>
<path d="m204.45 197.18 0.7107-5.8117q0.29132-2.3823-2.0909-2.6736l-7.6852-0.93982q-2.3823-0.29132-2.6736 2.0909l-0.7107 5.8117q-0.29132 2.3823 2.0909 2.6736l7.6852 0.93982q2.3823 0.29132 2.6736-2.0909z" clip-path="url(#a)" fill="#fff" stroke="#fff"/>
<g clip-path="url(#a)">
<g transform="translate(200.42 196.69) rotate(-83.028) scale(.08 -.08)">
<use xlink:href="#r"/>
</g>
</g>
<path d="m237.98 191.52 0.84179 5.7942q0.34506 2.3751 2.7201 2.03l7.6621-1.1132q2.3751-0.34506 2.03-2.7201l-0.84179-5.7942q-0.34506-2.3751-2.7201-2.03l-7.6621 1.1132q-2.3751 0.34506-2.03 2.7201z" clip-path="url(#a)" fill="#fff" stroke="#fff"/>
<g clip-path="url(#a)">
<g transform="translate(242 190.94) rotate(81.734) scale(.08 -.08)">
<use xlink:href="#r"/>
</g>
</g>
<path d="m97.152 417.39 11.569-33.335q0.78689-2.2673-1.4804-3.0542l-7.3145-2.5385q-2.2673-0.78689-3.0542 1.4804l-11.569 33.335q-0.78689 2.2673 1.4804 3.0542l7.3145 2.5385q2.2673 0.78689 3.0542-1.4804z" clip-path="url(#a)" fill="#fff" stroke="#fff"/>
<g clip-path="url(#a)">
<defs>
<path id="j" d="m-0.29688 72.906h61.672v-8.3125h-25.875v-64.594h-9.9062v64.594h-25.891z"/>
<path id="d" d="m56.203 29.594v-4.3906h-41.312q0.59375-9.2812 5.5938-14.141t13.938-4.8594q5.1719 0 10.031 1.2656t9.6562 3.8125v-8.5q-4.8438-2.0469-9.9219-3.125t-10.297-1.0781q-13.094 0-20.734 7.6094-7.6406 7.625-7.6406 20.625 0 13.422 7.25 21.297 7.25 7.8906 19.562 7.8906 11.031 0 17.453-7.1094 6.4219-7.0938 6.4219-19.297zm-8.9844 2.6406q-0.09375 7.3594-4.125 11.75-4.0312 4.4062-10.672 4.4062-7.5156 0-12.031-4.25t-5.2031-11.969z"/>
<path id="i" d="m41.109 46.297q-1.5156 0.875-3.2969 1.2812-1.7812 0.42188-3.9219 0.42188-7.625 0-11.703-4.9531t-4.0781-14.234v-28.812h-9.0312v54.688h9.0312v-8.5q2.8438 4.9844 7.375 7.3906 4.5469 2.4219 11.047 2.4219 0.92188 0 2.0469-0.125 1.125-0.10938 2.4844-0.35938z"/>
<path id="k" d="m52 44.188q3.375 6.0625 8.0625 8.9375t11.031 2.875q8.5469 0 13.188-5.9844 4.6406-5.9688 4.6406-17v-33.016h-9.0312v32.719q0 7.8594-2.7969 11.656-2.7812 3.8125-8.4844 3.8125-6.9844 0-11.047-4.6406-4.0469-4.625-4.0469-12.641v-30.906h-9.0312v32.719q0 7.9062-2.7812 11.688t-8.5938 3.7812q-6.8906 0-10.953-4.6562-4.0469-4.6562-4.0469-12.625v-30.906h-9.0312v54.688h9.0312v-8.5q3.0781 5.0312 7.375 7.4219t10.203 2.3906q5.9688 0 10.141-3.0312 4.1719-3.0156 6.1719-8.7812z"/>
<path id="l" d="m9.4219 54.688h8.9844v-54.688h-8.9844zm0 21.297h8.9844v-11.391h-8.9844z"/>
<path id="f" d="m54.891 33.016v-33.016h-8.9844v32.719q0 7.7656-3.0312 11.609-3.0312 3.8594-9.0781 3.8594-7.2812 0-11.484-4.6406-4.2031-4.625-4.2031-12.641v-30.906h-9.0312v54.688h9.0312v-8.5q3.2344 4.9375 7.5938 7.375 4.375 2.4375 10.094 2.4375 9.4219 0 14.25-5.8281 4.8438-5.8281 4.8438-17.156z"/>
<path id="g" d="m34.281 27.484q-10.891 0-15.094-2.4844t-4.2031-8.5q0-4.7812 3.1562-7.5938 3.1562-2.7969 8.5625-2.7969 7.4844 0 12 5.2969t4.5156 14.078v2zm17.922 3.7188v-31.203h-8.9844v8.2969q-3.0781-4.9688-7.6719-7.3438t-11.234-2.375q-8.3906 0-13.359 4.7188-4.9531 4.7188-4.9531 12.625 0 9.2188 6.1719 13.906 6.1875 4.6875 18.438 4.6875h12.609v0.89062q0 6.2031-4.0781 9.5938t-11.453 3.3906q-4.6875 0-9.1406-1.125-4.4375-1.125-8.5312-3.375v8.3125q4.9219 1.9062 9.5625 2.8438 4.6406 0.95312 9.0312 0.95312 11.875 0 17.734-6.1562 5.8594-6.1406 5.8594-18.641z"/>
<path id="h" d="m9.4219 75.984h8.9844v-75.984h-8.9844z"/>
</defs>
<g transform="translate(93.312 416.05) rotate(-70.86) scale(.08 -.08)">
<use xlink:href="#j"/>
<use x="60.818359" xlink:href="#d"/>
<use x="122.341797" xlink:href="#i"/>
<use x="163.439453" xlink:href="#k"/>
<use x="260.851562" xlink:href="#l"/>
<use x="288.634766" xlink:href="#f"/>
<use x="352.013672" xlink:href="#g"/>
<use x="413.292969" xlink:href="#h"/>
</g>
</g>
<path d="m108.31 384.05 11.569 33.335q0.78689 2.2673 3.0542 1.4804l7.3145-2.5385q2.2673-0.78689 1.4804-3.0542l-11.569-33.335q-0.78689-2.2673-3.0542-1.4804l-7.3145 2.5385q-2.2673 0.78689-1.4804 3.0542z" clip-path="url(#a)" fill="#fff" stroke="#fff"/>
<g clip-path="url(#a)">
<g transform="translate(112.15 382.72) rotate(70.86) scale(.08 -.08)">
<use xlink:href="#j"/>
<use x="60.818359" xlink:href="#d"/>
<use x="122.341797" xlink:href="#i"/>
<use x="163.439453" xlink:href="#k"/>
<use x="260.851562" xlink:href="#l"/>
<use x="288.634766" xlink:href="#f"/>
<use x="352.013672" xlink:href="#g"/>
<use x="413.292969" xlink:href="#h"/>
</g>
</g>
<path d="m217.3 381.02v35.285q0 2.4 2.4 2.4h7.7425q2.4 0 2.4-2.4v-35.285q0-2.4-2.4-2.4h-7.7425q-2.4 0-2.4 2.4z" clip-path="url(#a)" fill="#fff" stroke="#fff"/>
<g clip-path="url(#a)">
<g transform="translate(221.36 381.02) rotate(90) scale(.08 -.08)">
<use xlink:href="#j"/>
<use x="60.818359" xlink:href="#d"/>
<use x="122.341797" xlink:href="#i"/>
<use x="163.439453" xlink:href="#k"/>
<use x="260.851562" xlink:href="#l"/>
<use x="288.634766" xlink:href="#f"/>
<use x="352.013672" xlink:href="#g"/>
<use x="413.292969" xlink:href="#h"/>
</g>
</g>
<path d="m653.99 264.95 3.7775 3.9596q1.6567 1.7365 3.3932 0.079856l5.6021-5.3444q1.7365-1.6567 0.079857-3.3932l-3.7775-3.9596q-1.6567-1.7365-3.3932-0.079856l-5.6021 5.3444q-1.7365 1.6567-0.079856 3.3932z" clip-path="url(#a)" fill="#fff" stroke="#fff"/>
<g clip-path="url(#a)">
<defs>
<path id="o" d="m34.188 63.188-13.391-36.281h26.812zm-5.5781 9.7188h11.188l27.781-72.906h-10.25l-6.6406 18.703h-32.859l-6.6406-18.703h-10.406z"/>
</defs>
<g transform="translate(656.93 262.14) rotate(46.348) scale(.08 -.08)">
<use xlink:href="#o"/>
</g>
</g>
<path d="m410.97 235.22 3.058-4.5384q1.3411-1.9903-0.6492-3.3314l-6.4209-4.3265q-1.9903-1.3411-3.3314 0.6492l-3.058 4.5384q-1.3411 1.9903 0.6492 3.3314l6.4209 4.3265q1.9903 1.3411 3.3314-0.6492z" clip-path="url(#a)" fill="#fff" stroke="#fff"/>
<g clip-path="url(#a)">
<g transform="translate(407.6 232.95) rotate(-56.027) scale(.08 -.08)">
<use xlink:href="#o"/>
</g>
</g>
<path d="m434.82 234.43 2.1734-4.3064q1.0814-2.1426-1.0612-3.2239l-6.912-3.4885q-2.1426-1.0814-3.2239 1.0612l-2.1734 4.3064q-1.0814 2.1426 1.0612 3.2239l6.912 3.4885q2.1426 1.0814 3.2239-1.0612z" clip-path="url(#a)" fill="#fff" stroke="#fff"/>
<g clip-path="url(#a)">
<defs>
<path id="v" d="m19.672 64.797v-27.391h12.406q6.8906 0 10.641 3.5625 3.7656 3.5625 3.7656 10.156 0 6.5469-3.7656 10.109-3.75 3.5625-10.641 3.5625zm-9.8594 8.1094h22.266q12.266 0 18.531-5.5469 6.2812-5.5469 6.2812-16.234 0-10.797-6.2812-16.312-6.2656-5.5156-18.531-5.5156h-12.406v-29.297h-9.8594z"/>
</defs>
<g transform="translate(431.19 232.6) rotate(-63.22) scale(.08 -.08)">
<use xlink:href="#v"/>
</g>
</g>
<path d="m504.09 131.35 0.16838-5.4699q0.073842-2.3989-2.325-2.4727l-7.7388-0.23822q-2.3989-0.073842-2.4727 2.325l-0.16838 5.4699q-0.073843 2.3989 2.325 2.4727l7.7388 0.23822q2.3989 0.073842 2.4727-2.325z" clip-path="url(#a)" fill="#fff" stroke="#fff"/>
<g clip-path="url(#a)">
<g transform="translate(500.02 131.23) rotate(-88.237) scale(.08 -.08)">
<use xlink:href="#o"/>
</g>
</g>
<path d="m309.34 381.02v35.285q0 2.4 2.4 2.4h7.7425q2.4 0 2.4-2.4v-35.285q0-2.4-2.4-2.4h-7.7425q-2.4 0-2.4 2.4z" clip-path="url(#a)" fill="#fff" stroke="#fff"/>
<g clip-path="url(#a)">
<g transform="translate(313.41 381.02) rotate(90) scale(.08 -.08)">
<use xlink:href="#j"/>
<use x="60.818359" xlink:href="#d"/>
<use x="122.341797" xlink:href="#i"/>
<use x="163.439453" xlink:href="#k"/>
<use x="260.851562" xlink:href="#l"/>
<use x="288.634766" xlink:href="#f"/>
<use x="352.013672" xlink:href="#g"/>
<use x="413.292969" xlink:href="#h"/>
</g>
</g>
<path d="m355.36 381.02v35.285q0 2.4 2.4 2.4h7.7425q2.4 0 2.4-2.4v-35.285q0-2.4-2.4-2.4h-7.7425q-2.4 0-2.4 2.4z" clip-path="url(#a)" fill="#fff" stroke="#fff"/>
<g clip-path="url(#a)">
<g transform="translate(359.43 381.02) rotate(90) scale(.08 -.08)">
<use xlink:href="#j"/>
<use x="60.818359" xlink:href="#d"/>
<use x="122.341797" xlink:href="#i"/>
<use x="163.439453" xlink:href="#k"/>
<use x="260.851562" xlink:href="#l"/>
<use x="288.634766" xlink:href="#f"/>
<use x="352.013672" xlink:href="#g"/>
<use x="413.292969" xlink:href="#h"/>
</g>
</g>
<path d="m456.85 269.58 2.2554-5.1107q0.96899-2.1957-1.2267-3.1647l-7.0834-3.126q-2.1957-0.96899-3.1647 1.2267l-2.2554 5.1107q-0.96899 2.1957 1.2267 3.1647l7.0834 3.126q2.1957 0.96899 3.1647-1.2267z" clip-path="url(#a)" fill="#fff" stroke="#fff"/>
<g clip-path="url(#a)">
<defs>
<path id="t" d="m64.406 67.281v-10.391q-4.9844 4.6406-10.625 6.9219-5.6406 2.2969-11.984 2.2969-12.5 0-19.141-7.6406t-6.6406-22.094q0-14.406 6.6406-22.047t19.141-7.6406q6.3438 0 11.984 2.2969t10.625 6.9375v-10.312q-5.1719-3.5156-10.969-5.2812-5.7812-1.75-12.219-1.75-16.562 0-26.094 10.125-9.5156 10.141-9.5156 27.672 0 17.578 9.5156 27.703 9.5312 10.141 26.094 10.141 6.5312 0 12.312-1.7344 5.7969-1.7344 10.875-5.2031z"/>
</defs>
<g transform="translate(453.13 267.93) rotate(-66.188) scale(.08 -.08)">
<use xlink:href="#t"/>
</g>
</g>
<path d="m535.58 201.16 4.0082 3.0801q1.903 1.4624 3.3654-0.44065l4.7177-6.1392q1.4624-1.903-0.44065-3.3654l-4.0082-3.0801q-1.903-1.4624-3.3654 0.44065l-4.7177 6.1392q-1.4624 1.903 0.44065 3.3654z" clip-path="url(#a)" fill="#fff" stroke="#fff"/>
<g clip-path="url(#a)">
<defs>
<path id="x" d="m9.8125 72.906h46.094v-8.3125h-36.234v-21.578h34.719v-8.2969h-34.719v-26.422h37.109v-8.2969h-46.969z"/>
</defs>
<g transform="translate(538.06 197.93) rotate(37.54) scale(.08 -.08)">
<use xlink:href="#x"/>
</g>
</g>
<path d="m401.38 381.02v35.285q0 2.4 2.4 2.4h7.7425q2.4 0 2.4-2.4v-35.285q0-2.4-2.4-2.4h-7.7425q-2.4 0-2.4 2.4z" clip-path="url(#a)" fill="#fff" stroke="#fff"/>
<g clip-path="url(#a)">
<g transform="translate(405.45 381.02) rotate(90) scale(.08 -.08)">
<use xlink:href="#j"/>
<use x="60.818359" xlink:href="#d"/>
<use x="122.341797" xlink:href="#i"/>
<use x="163.439453" xlink:href="#k"/>
<use x="260.851562" xlink:href="#l"/>
<use x="288.634766" xlink:href="#f"/>
<use x="352.013672" xlink:href="#g"/>
<use x="413.292969" xlink:href="#h"/>
</g>
</g>
<path d="m522.33 305.14 3.9126-3.9486q1.6893-1.7048-0.015535-3.3941l-5.4998-5.4497q-1.7048-1.6893-3.3941 0.015535l-3.9126 3.9486q-1.6893 1.7048 0.015536 3.3941l5.4998 5.4497q1.7048 1.6893 3.3941-0.015536z" clip-path="url(#a)" fill="#fff" stroke="#fff"/>
<g clip-path="url(#a)">
<defs>
<path id="ad" d="m44.391 34.188q3.1719-1.0781 6.1719-4.5938t6.0312-9.6719l10.016-19.922h-10.609l-9.3125 18.703q-3.625 7.3281-7.0156 9.7188t-9.25 2.3906h-10.75v-30.812h-9.8594v72.906h22.266q12.5 0 18.656-5.2344 6.1562-5.2188 6.1562-15.766 0-6.8906-3.2031-11.438-3.2031-4.5312-9.2969-6.2812zm-24.719 30.609v-25.875h12.406q7.125 0 10.766 3.2969t3.6406 9.6875-3.6406 9.6406-10.766 3.25z"/>
</defs>
<g transform="translate(519.44 302.28) rotate(-45.262) scale(.08 -.08)">
<use xlink:href="#ad"/>
</g>
</g>
<path d="m557.04 271.89 3.7509-3.9848q1.645-1.7476-0.10258-3.3926l-5.6377-5.3068q-1.7476-1.645-3.3926 0.10258l-3.7509 3.9848q-1.645 1.7476 0.10258 3.3926l5.6377 5.3068q1.7476 1.645 3.3926-0.10258z" clip-path="url(#a)" fill="#fff" stroke="#fff"/>
<g clip-path="url(#a)">
<g transform="translate(554.08 269.1) rotate(-46.732) scale(.08 -.08)">
<use xlink:href="#o"/>
</g>
</g>
<path d="m629.35 269.4 3.9751 2.7325q1.9778 1.3595 3.3373-0.61824l4.3859-6.3804q1.3595-1.9778-0.61824-3.3373l-3.9751-2.7325q-1.9778-1.3595-3.3373 0.61824l-4.3859 6.3804q-1.3595 1.9778 0.61824 3.3373z" clip-path="url(#a)" fill="#fff" stroke="#fff"/>
<g clip-path="url(#a)">
<g transform="translate(631.65 266.05) rotate(34.505) scale(.08 -.08)">
<use xlink:href="#v"/>
</g>
</g>
<path d="m628.01 299.97 3.6398 4.9697q1.4181 1.9362 3.3543 0.51815l6.2464-4.5748q1.9362-1.4181 0.51815-3.3543l-3.6398-4.9697q-1.4181-1.9362-3.3543-0.51815l-6.2464 4.5748q-1.9362 1.4181-0.51815 3.3543z" clip-path="url(#a)" fill="#fff" stroke="#fff"/>
<g clip-path="url(#a)">
<defs>
<path id="ap" d="m19.672 64.797v-56.688h11.922q15.094 0 22.094 6.8281 7 6.8438 7 21.594 0 14.641-7 21.453t-22.094 6.8125zm-9.8594 8.1094h20.266q21.188 0 31.094-8.8125 9.9219-8.8125 9.9219-27.562 0-18.859-9.9688-27.703-9.9531-8.8281-31.047-8.8281h-20.266z"/>
</defs>
<g transform="translate(631.29 297.57) rotate(53.781) scale(.08 -.08)">
<use xlink:href="#ap"/>
</g>
</g>
<path d="m447.41 381.02v35.285q0 2.4 2.4 2.4h7.7425q2.4 0 2.4-2.4v-35.285q0-2.4-2.4-2.4h-7.7425q-2.4 0-2.4 2.4z" clip-path="url(#a)" fill="#fff" stroke="#fff"/>
<g clip-path="url(#a)">
<g transform="translate(451.47 381.02) rotate(90) scale(.08 -.08)">
<use xlink:href="#j"/>
<use x="60.818359" xlink:href="#d"/>
<use x="122.341797" xlink:href="#i"/>
<use x="163.439453" xlink:href="#k"/>
<use x="260.851562" xlink:href="#l"/>
<use x="288.634766" xlink:href="#f"/>
<use x="352.013672" xlink:href="#g"/>
<use x="413.292969" xlink:href="#h"/>
</g>
</g>
<path d="m516.3 336.8 1.6574-4.7756q0.78689-2.2673-1.4804-3.0542l-7.3145-2.5385q-2.2673-0.78689-3.0542 1.4804l-1.6574 4.7756q-0.78689 2.2673 1.4804 3.0542l7.3145 2.5385q2.2673 0.78689 3.0542-1.4804z" clip-path="url(#a)" fill="#fff" stroke="#fff"/>
<g clip-path="url(#a)">
<g transform="translate(512.46 335.47) rotate(-70.86) scale(.08 -.08)">
<use xlink:href="#x"/>
</g>
</g>
<path d="m527.37 331.78 1.8316 5.2775q0.78689 2.2673 3.0542 1.4804l7.3145-2.5385q2.2673-0.78689 1.4804-3.0542l-1.8316-5.2775q-0.78689-2.2673-3.0542-1.4804l-7.3145 2.5385q-2.2673 0.78689-1.4804 3.0542z" clip-path="url(#a)" fill="#fff" stroke="#fff"/>
<g clip-path="url(#a)">
<g transform="translate(531.21 330.45) rotate(70.86) scale(.08 -.08)">
<use xlink:href="#t"/>
</g>
</g>
<path d="m639.56 338.79 3.7335-2.6894q1.9474-1.4028 0.54458-3.3501l-4.5254-6.2823q-1.4028-1.9474-3.3501-0.54458l-3.7335 2.6894q-1.9474 1.4028-0.54458 3.3501l4.5254 6.2823q1.4028 1.9474 3.3501 0.54458z" clip-path="url(#a)" fill="#fff" stroke="#fff"/>
<g clip-path="url(#a)">
<defs>
<path id="ao" d="m9.8125 72.906h41.891v-8.3125h-32.031v-21.484h28.906v-8.2969h-28.906v-34.812h-9.8594z"/>
</defs>
<g transform="translate(637.19 335.5) rotate(-35.767) scale(.08 -.08)">
<use xlink:href="#ao"/>
</g>
</g>
<path d="m677.51 329.57v5.5862q0 2.4 2.4 2.4h7.7425q2.4 0 2.4-2.4v-5.5862q0-2.4-2.4-2.4h-7.7425q-2.4 0-2.4 2.4z" clip-path="url(#a)" fill="#fff" stroke="#fff"/>
<g clip-path="url(#a)">
<g transform="translate(681.58 329.57) rotate(90) scale(.08 -.08)">
<use xlink:href="#t"/>
</g>
</g>
<path d="m723.76 335.74 4.7507 3.4222q1.9474 1.4028 3.3501-0.54458l4.5254-6.2823q1.4028-1.9474-0.54458-3.3501l-4.7507-3.4222q-1.9474-1.4028-3.3501 0.54458l-4.5254 6.2823q-1.4028 1.9474 0.54458 3.3501z" clip-path="url(#a)" fill="#fff" stroke="#fff"/>
<g clip-path="url(#a)">
<g transform="translate(726.14 332.44) rotate(35.767) scale(.08 -.08)">
<use xlink:href="#r"/>
</g>
</g>
<path d="m677.51 381.02v35.285q0 2.4 2.4 2.4h7.7425q2.4 0 2.4-2.4v-35.285q0-2.4-2.4-2.4h-7.7425q-2.4 0-2.4 2.4z" clip-path="url(#a)" fill="#fff" stroke="#fff"/>
<g clip-path="url(#a)">
<g transform="translate(681.58 381.02) rotate(90) scale(.08 -.08)">
<use xlink:href="#j"/>
<use x="60.818359" xlink:href="#d"/>
<use x="122.341797" xlink:href="#i"/>
<use x="163.439453" xlink:href="#k"/>
<use x="260.851562" xlink:href="#l"/>
<use x="288.634766" xlink:href="#f"/>
<use x="352.013672" xlink:href="#g"/>
<use x="413.292969" xlink:href="#h"/>
</g>
</g>
<path d="m585.47 381.02v35.285q0 2.4 2.4 2.4h7.7425q2.4 0 2.4-2.4v-35.285q0-2.4-2.4-2.4h-7.7425q-2.4 0-2.4 2.4z" clip-path="url(#a)" fill="#fff" stroke="#fff"/>
<g clip-path="url(#a)">
<g transform="translate(589.53 381.02) rotate(90) scale(.08 -.08)">
<use xlink:href="#j"/>
<use x="60.818359" xlink:href="#d"/>
<use x="122.341797" xlink:href="#i"/>
<use x="163.439453" xlink:href="#k"/>
<use x="260.851562" xlink:href="#l"/>
<use x="288.634766" xlink:href="#f"/>
<use x="352.013672" xlink:href="#g"/>
<use x="413.292969" xlink:href="#h"/>
</g>
</g>
<path d="m655.87 416.73 20.12-28.987q1.3685-1.9716-0.6031-3.3401l-6.3605-4.4148q-1.9716-1.3685-3.3401 0.6031l-20.12 28.987q-1.3685 1.9716 0.6031 3.3401l6.3605 4.4148q1.9716 1.3685 3.3401-0.6031z" clip-path="url(#a)" fill="#fff" stroke="#fff"/>
<g clip-path="url(#a)">
<g transform="translate(652.53 414.42) rotate(-55.235) scale(.08 -.08)">
<use xlink:href="#j"/>
<use x="60.818359" xlink:href="#d"/>
<use x="122.341797" xlink:href="#i"/>
<use x="163.439453" xlink:href="#k"/>
<use x="260.851562" xlink:href="#l"/>
<use x="288.634766" xlink:href="#f"/>
<use x="352.013672" xlink:href="#g"/>
<use x="413.292969" xlink:href="#h"/>
</g>
</g>
<path d="m691.58 387.75 20.12 28.987q1.3685 1.9716 3.3401 0.6031l6.3605-4.4148q1.9716-1.3685 0.6031-3.3401l-20.12-28.987q-1.3685-1.9716-3.3401-0.6031l-6.3605 4.4148q-1.9716 1.3685-0.6031 3.3401z" clip-path="url(#a)" fill="#fff" stroke="#fff"/>
<g clip-path="url(#a)">
<g transform="translate(694.92 385.43) rotate(55.235) scale(.08 -.08)">
<use xlink:href="#j"/>
<use x="60.818359" xlink:href="#d"/>
<use x="122.341797" xlink:href="#i"/>
<use x="163.439453" xlink:href="#k"/>
<use x="260.851562" xlink:href="#l"/>
<use x="288.634766" xlink:href="#f"/>
<use x="352.013672" xlink:href="#g"/>
<use x="413.292969" xlink:href="#h"/>
</g>
</g>
<path d="m493.43 381.02v35.285q0 2.4 2.4 2.4h7.7425q2.4 0 2.4-2.4v-35.285q0-2.4-2.4-2.4h-7.7425q-2.4 0-2.4 2.4z" clip-path="url(#a)" fill="#fff" stroke="#fff"/>
<g clip-path="url(#a)">
<g transform="translate(497.49 381.02) rotate(90) scale(.08 -.08)">
<use xlink:href="#j"/>
<use x="60.818359" xlink:href="#d"/>
<use x="122.341797" xlink:href="#i"/>
<use x="163.439453" xlink:href="#k"/>
<use x="260.851562" xlink:href="#l"/>
<use x="288.634766" xlink:href="#f"/>
<use x="352.013672" xlink:href="#g"/>
<use x="413.292969" xlink:href="#h"/>
</g>
</g>
<path d="m539.45 381.02v35.285q0 2.4 2.4 2.4h7.7425q2.4 0 2.4-2.4v-35.285q0-2.4-2.4-2.4h-7.7425q-2.4 0-2.4 2.4z" clip-path="url(#a)" fill="#fff" stroke="#fff"/>
<g clip-path="url(#a)">
<g transform="translate(543.51 381.02) rotate(90) scale(.08 -.08)">
<use xlink:href="#j"/>
<use x="60.818359" xlink:href="#d"/>
<use x="122.341797" xlink:href="#i"/>
<use x="163.439453" xlink:href="#k"/>
<use x="260.851562" xlink:href="#l"/>
<use x="288.634766" xlink:href="#f"/>
<use x="352.013672" xlink:href="#g"/>
<use x="413.292969" xlink:href="#h"/>
</g>
</g>
<path d="m209.11 200.97 4.9439-8.7111q1.1846-2.0873-0.90265-3.2719l-6.7336-3.8216q-2.0873-1.1846-3.2719 0.90266l-4.9439 8.7111q-1.1846 2.0873 0.90266 3.2719l6.7336 3.8216q2.0873 1.1846 3.2719-0.90265z" clip-path="url(#a)" fill="#fff" stroke="#fff"/>
<g clip-path="url(#a)">
<g transform="translate(205.58 198.96) rotate(-60.423) scale(.08 -.08)">
<use xlink:href="#s"/>
<use x="55.712891" xlink:href="#ad"/>
</g>
</g>
<path d="m394.54 61.62 9.3211 3.4311q2.2523 0.82906 3.0813-1.4232l2.6746-7.2659q0.82906-2.2523-1.4232-3.0813l-9.3211-3.4311q-2.2523-0.82906-3.0813 1.4232l-2.6746 7.2659q-0.82906 2.2523 1.4232 3.0813z" clip-path="url(#a)" fill="#fff" stroke="#fff"/>
<g clip-path="url(#a)">
<g transform="translate(395.94 57.807) rotate(20.209) scale(.08 -.08)">
<use xlink:href="#s"/>
<use x="55.744141" xlink:href="#o"/>
</g>
</g>
<path d="m33.213 381.02v35.285q0 2.4 2.4 2.4h7.7425q2.4 0 2.4-2.4v-35.285q0-2.4-2.4-2.4h-7.7425q-2.4 0-2.4 2.4z" clip-path="url(#a)" fill="#fff" stroke="#fff"/>
<g clip-path="url(#a)">
<g transform="translate(37.277 381.02) rotate(90) scale(.08 -.08)">
<use xlink:href="#j"/>
<use x="60.818359" xlink:href="#d"/>
<use x="122.341797" xlink:href="#i"/>
<use x="163.439453" xlink:href="#k"/>
<use x="260.851562" xlink:href="#l"/>
<use x="288.634766" xlink:href="#f"/>
<use x="352.013672" xlink:href="#g"/>
<use x="413.292969" xlink:href="#h"/>
</g>
</g>
<path d="m171.28 381.02v35.285q0 2.4 2.4 2.4h7.7425q2.4 0 2.4-2.4v-35.285q0-2.4-2.4-2.4h-7.7425q-2.4 0-2.4 2.4z" clip-path="url(#a)" fill="#fff" stroke="#fff"/>
<g clip-path="url(#a)">
<g transform="translate(175.34 381.02) rotate(90) scale(.08 -.08)">
<use xlink:href="#j"/>
<use x="60.818359" xlink:href="#d"/>
<use x="122.341797" xlink:href="#i"/>
<use x="163.439453" xlink:href="#k"/>
<use x="260.851562" xlink:href="#l"/>
<use x="288.634766" xlink:href="#f"/>
<use x="352.013672" xlink:href="#g"/>
<use x="413.292969" xlink:href="#h"/>
</g>
</g>
<path d="m263.32 381.02v35.285q0 2.4 2.4 2.4h7.7425q2.4 0 2.4-2.4v-35.285q0-2.4-2.4-2.4h-7.7425q-2.4 0-2.4 2.4z" clip-path="url(#a)" fill="#fff" stroke="#fff"/>
<g clip-path="url(#a)">
<g transform="translate(267.38 381.02) rotate(90) scale(.08 -.08)">
<use xlink:href="#j"/>
<use x="60.818359" xlink:href="#d"/>
<use x="122.341797" xlink:href="#i"/>
<use x="163.439453" xlink:href="#k"/>
<use x="260.851562" xlink:href="#l"/>
<use x="288.634766" xlink:href="#f"/>
<use x="352.013672" xlink:href="#g"/>
<use x="413.292969" xlink:href="#h"/>
</g>
</g>
<path d="m769.56 381.02v35.285q0 2.4 2.4 2.4h7.7425q2.4 0 2.4-2.4v-35.285q0-2.4-2.4-2.4h-7.7425q-2.4 0-2.4 2.4z" clip-path="url(#a)" fill="#fff" stroke="#fff"/>
<g clip-path="url(#a)">
<g transform="translate(773.62 381.02) rotate(90) scale(.08 -.08)">
<use xlink:href="#j"/>
<use x="60.818359" xlink:href="#d"/>
<use x="122.341797" xlink:href="#i"/>
<use x="163.439453" xlink:href="#k"/>
<use x="260.851562" xlink:href="#l"/>
<use x="288.634766" xlink:href="#f"/>
<use x="352.013672" xlink:href="#g"/>
<use x="413.292969" xlink:href="#h"/>
</g>
</g>
<defs>
<path id="b" d="m0 8.6603c2.2967 0 4.4997-0.9125 6.1237-2.5365 1.624-1.624 2.5365-3.827 2.5365-6.1237s-0.9125-4.4997-2.5365-6.1237c-1.624-1.624-3.827-2.5365-6.1237-2.5365s-4.4997 0.9125-6.1237 2.5365c-1.624 1.624-2.5365 3.827-2.5365 6.1237s0.9125 4.4997 2.5365 6.1237c1.624 1.624 3.827 2.5365 6.1237 2.5365z"/>
</defs>
<g clip-path="url(#a)">
<use x="39.484674" y="431.815307" fill="#ffffff" stroke="#ffffff" xlink:href="#b"/>
</g>
<g clip-path="url(#a)">
<use x="85.506085" y="431.815307" fill="#ffffff" stroke="#ffffff" xlink:href="#b"/>
</g>
<g clip-path="url(#a)">
<use x="131.527496" y="431.815307" fill="#ffffff" stroke="#ffffff" xlink:href="#b"/>
</g>
<g clip-path="url(#a)">
<use x="177.548907" y="431.815307" fill="#ffffff" stroke="#ffffff" xlink:href="#b"/>
</g>
<g clip-path="url(#a)">
<use x="223.570318" y="431.815307" fill="#ffffff" stroke="#ffffff" xlink:href="#b"/>
</g>
<g clip-path="url(#a)">
<use x="269.591729" y="431.815307" fill="#ffffff" stroke="#ffffff" xlink:href="#b"/>
</g>
<g clip-path="url(#a)">
<use x="315.61314" y="431.815307" fill="#ffffff" stroke="#ffffff" xlink:href="#b"/>
</g>
<g clip-path="url(#a)">
<use x="361.63455" y="431.815307" fill="#ffffff" stroke="#ffffff" xlink:href="#b"/>
</g>
<g clip-path="url(#a)">
<use x="407.655961" y="431.815307" fill="#ffffff" stroke="#ffffff" xlink:href="#b"/>
</g>
<g clip-path="url(#a)">
<use x="453.677372" y="431.815307" fill="#ffffff" stroke="#ffffff" xlink:href="#b"/>
</g>
<g clip-path="url(#a)">
<use x="499.698783" y="431.815307" fill="#ffffff" stroke="#ffffff" xlink:href="#b"/>
</g>
<g clip-path="url(#a)">
<use x="545.720194" y="431.815307" fill="#ffffff" stroke="#ffffff" xlink:href="#b"/>
</g>
<g clip-path="url(#a)">
<use x="591.741605" y="431.815307" fill="#ffffff" stroke="#ffffff" xlink:href="#b"/>
</g>
<g clip-path="url(#a)">
<use x="637.763016" y="431.815307" fill="#ffffff" stroke="#ffffff" xlink:href="#b"/>
</g>
<g clip-path="url(#a)">
<use x="683.784426" y="431.815307" fill="#ffffff" stroke="#ffffff" xlink:href="#b"/>
</g>
<g clip-path="url(#a)">
<use x="729.805837" y="431.815307" fill="#ffffff" stroke="#ffffff" xlink:href="#b"/>
</g>
<g clip-path="url(#a)">
<use x="775.827248" y="431.815307" fill="#ffffff" stroke="#ffffff" xlink:href="#b"/>
</g>
<g clip-path="url(#a)">
<use x="219.615353" y="21.518027" fill="#ffffff" stroke="#ffffff" xlink:href="#b"/>
</g>
<g clip-path="url(#a)">
<use x="108.516791" y="365.512292" fill="#ffffff" stroke="#ffffff" xlink:href="#b"/>
</g>
<g clip-path="url(#a)">
<use x="223.570318" y="365.512292" fill="#ffffff" stroke="#ffffff" xlink:href="#b"/>
</g>
<g clip-path="url(#a)">
<use x="498.979698" y="93.382998" fill="#ffffff" stroke="#ffffff" xlink:href="#b"/>
</g>
<g clip-path="url(#a)">
<use x="821.848659" y="431.815307" fill="#ffffff" stroke="#ffffff" xlink:href="#b"/>
</g>
<g clip-path="url(#a)">
<use x="315.61314" y="365.512292" fill="#ffffff" stroke="#ffffff" xlink:href="#b"/>
</g>
<g clip-path="url(#a)">
<use x="361.63455" y="365.512292" fill="#ffffff" stroke="#ffffff" xlink:href="#b"/>
</g>
<g clip-path="url(#a)">
<use x="496.822445" y="163.464076" fill="#ffffff" stroke="#ffffff" xlink:href="#b"/>
</g>
<g clip-path="url(#a)">
<use x="407.655961" y="365.512292" fill="#ffffff" stroke="#ffffff" xlink:href="#b"/>
</g>
<g clip-path="url(#a)">
<use x="585.988928" y="231.983914" fill="#ffffff" stroke="#ffffff" xlink:href="#b"/>
</g>
<g clip-path="url(#a)">
<use x="453.677372" y="365.512292" fill="#ffffff" stroke="#ffffff" xlink:href="#b"/>
</g>
<g clip-path="url(#a)">
<use x="522.709488" y="299.209277" fill="#ffffff" stroke="#ffffff" xlink:href="#b"/>
</g>
<g clip-path="url(#a)">
<use x="683.784426" y="299.209277" fill="#ffffff" stroke="#ffffff" xlink:href="#b"/>
</g>
<g clip-path="url(#a)">
<use x="683.784426" y="365.512292" fill="#ffffff" stroke="#ffffff" xlink:href="#b"/>
</g>
<g clip-path="url(#a)">
<use x="591.741605" y="365.512292" fill="#ffffff" stroke="#ffffff" xlink:href="#b"/>
</g>
<g clip-path="url(#a)">
<use x="683.784426" y="365.512292" fill="#ffffff" stroke="#ffffff" xlink:href="#b"/>
</g>
<g clip-path="url(#a)">
<use x="499.698783" y="365.512292" fill="#ffffff" stroke="#ffffff" xlink:href="#b"/>
</g>
<g clip-path="url(#a)">
<use x="545.720194" y="365.512292" fill="#ffffff" stroke="#ffffff" xlink:href="#b"/>
</g>
<g clip-path="url(#a)">
<use x="303.748245" y="21.518027" fill="#808080" stroke="#808080" xlink:href="#b"/>
</g>
<g clip-path="url(#a)">
<use x="39.484674" y="365.512292" fill="#ffffff" stroke="#ffffff" xlink:href="#b"/>
</g>
<g clip-path="url(#a)">
<use x="177.548907" y="365.512292" fill="#ffffff" stroke="#ffffff" xlink:href="#b"/>
</g>
<g clip-path="url(#a)">
<use x="269.591729" y="365.512292" fill="#ffffff" stroke="#ffffff" xlink:href="#b"/>
</g>
<g clip-path="url(#a)">
<use x="775.827248" y="365.512292" fill="#ffffff" stroke="#ffffff" xlink:href="#b"/>
</g>
<g clip-path="url(#a)">
<defs>
<path id="al" d="m18.797 48.875h-10.297v8.4531l8 15.578h6.2969l-4-15.578zm20.016 0h-10.297v8.4531l8.0156 15.578h6.2969l-4.0156-15.578z"/>
</defs>
<g transform="translate(36.894 434.57) scale(.1 -.1)">
<use xlink:href="#al"/>
</g>
</g>
<g clip-path="url(#a)">
<defs>
<path id="ab" d="m2.9844 54.688h9.5156l17.094-45.891 17.094 45.891h9.5156l-20.516-54.688h-12.203z"/>
</defs>
<g transform="translate(73.142 434.57) scale(.1 -.1)">
<use xlink:href="#x"/>
<use x="63.183594" xlink:href="#ab"/>
<use x="122.363281" xlink:href="#d"/>
<use x="183.886719" xlink:href="#f"/>
</g>
</g>
<g clip-path="url(#a)">
<defs>
<path id="n" d="m44.281 53.078v-8.5q-3.7969 1.9531-7.9062 2.9219-4.0938 0.98438-8.5 0.98438-6.6875 0-10.031-2.0469t-3.3438-6.1562q0-3.125 2.3906-4.9062t9.625-3.3906l3.0781-0.6875q9.5625-2.0469 13.594-5.7812t4.0312-10.422q0-7.625-6.0312-12.078-6.0312-4.4375-16.578-4.4375-4.3906 0-9.1562 0.85938t-10.031 2.5625v9.2812q4.9844-2.5938 9.8125-3.8906 4.8281-1.2812 9.5781-1.2812 6.3438 0 9.75 2.1719 3.4219 2.1719 3.4219 6.125 0 3.6562-2.4688 5.6094-2.4531 1.9531-10.812 3.7656l-3.125 0.73438q-8.3438 1.75-12.062 5.3906-3.7031 3.6406-3.7031 9.9844 0 7.7188 5.4688 11.906 5.4688 4.2031 15.531 4.2031 4.9688 0 9.3594-0.73438 4.4062-0.71875 8.1094-2.1875z"/>
<path id="u" d="m30.609 48.391q-7.2188 0-11.422-5.6406t-4.2031-15.453 4.1719-15.453q4.1875-5.6406 11.453-5.6406 7.1875 0 11.375 5.6562 4.2031 5.6719 4.2031 15.438 0 9.7188-4.2031 15.406-4.1875 5.6875-11.375 5.6875zm0 7.6094q11.719 0 18.406-7.625 6.7031-7.6094 6.7031-21.078 0-13.422-6.7031-21.078-6.6875-7.6406-18.406-7.6406-11.766 0-18.438 7.6406-6.6562 7.6562-6.6562 21.078 0 13.469 6.6562 21.078 6.6719 7.625 18.438 7.625z"/>
</defs>
<g transform="translate(125.86 434.57) scale(.1 -.1)">
<use xlink:href="#n"/>
<use x="52.099609" xlink:href="#u"/>
</g>
</g>
<g clip-path="url(#a)">
<defs>
<path id="ai" d="m11.719 12.406h10.297v-8.4062l-8-15.625h-6.2969l4 15.625z"/>
</defs>
<g transform="translate(175.96 434.57) scale(.1 -.1)">
<use xlink:href="#ai"/>
</g>
</g>
<g clip-path="url(#a)">
<defs>
<path id="am" d="m9.8125 72.906h13.281l32.328-60.984v60.984h9.5625v-72.906h-13.281l-32.312 60.984v-60.984h-9.5781z"/>
<path id="av" d="m45.406 46.391v29.594h8.9844v-75.984h-8.9844v8.2031q-2.8281-4.875-7.1562-7.25-4.3125-2.375-10.375-2.375-9.9062 0-16.141 7.9062-6.2188 7.9219-6.2188 20.812t6.2188 20.797q6.2344 7.9062 16.141 7.9062 6.0625 0 10.375-2.375 4.3281-2.3594 7.1562-7.2344zm-30.609-19.094q0-9.9062 4.0781-15.547t11.203-5.6406 11.219 5.6406q4.1094 5.6406 4.1094 15.547t-4.1094 15.547q-4.0938 5.6406-11.219 5.6406t-11.203-5.6406-4.0781-15.547z"/>
</defs>
<g transform="translate(213.58 434.57) scale(.1 -.1)">
<use xlink:href="#am"/>
<use x="74.804688" xlink:href="#d"/>
<use x="136.328125" xlink:href="#av"/>
</g>
</g>
<g clip-path="url(#a)">
<g transform="translate(268 434.57) scale(.1 -.1)">
<use xlink:href="#ai"/>
</g>
</g>
<g clip-path="url(#a)">
<defs>
<path id="aj" d="m18.109 8.2031v-29h-9.0312v75.484h9.0312v-8.2969q2.8438 4.875 7.1562 7.2344 4.3281 2.375 10.328 2.375 9.9688 0 16.188-7.9062 6.2344-7.9062 6.2344-20.797t-6.2344-20.812q-6.2188-7.9062-16.188-7.9062-6 0-10.328 2.375-4.3125 2.375-7.1562 7.25zm30.578 19.094q0 9.9062-4.0781 15.547t-11.203 5.6406q-7.1406 0-11.219-5.6406t-4.0781-15.547 4.0781-15.547 11.219-5.6406q7.125 0 11.203 5.6406t4.0781 15.547z"/>
</defs>
<g transform="translate(298.66 434.57) scale(.1 -.1)">
<use xlink:href="#aj"/>
<use x="63.476562" xlink:href="#d"/>
<use x="125" xlink:href="#u"/>
<use x="186.181641" xlink:href="#aj"/>
<use x="249.658203" xlink:href="#h"/>
<use x="277.441406" xlink:href="#d"/>
</g>
</g>
<g clip-path="url(#a)">
<defs>
<path id="p" d="m18.312 70.219v-15.531h18.5v-6.9844h-18.5v-29.688q0-6.6875 1.8281-8.5938t7.4531-1.9062h9.2188v-7.5156h-9.2188q-10.406 0-14.359 3.875-3.9531 3.8906-3.9531 14.141v29.688h-6.5938v6.9844h6.5938v15.531z"/>
</defs>
<g transform="translate(340.94 434.57) scale(.1 -.1)">
<use xlink:href="#k"/>
<use x="97.412109" xlink:href="#d"/>
<use x="158.935547" xlink:href="#f"/>
<use x="222.314453" xlink:href="#p"/>
<use x="261.523438" xlink:href="#l"/>
<use x="289.306641" xlink:href="#u"/>
<use x="350.488281" xlink:href="#f"/>
</g>
</g>
<g clip-path="url(#a)">
<g transform="translate(389.34 434.57) scale(.1 -.1)">
<use xlink:href="#ab"/>
<use x="59.179688" xlink:href="#d"/>
<use x="120.703125" xlink:href="#n"/>
<use x="172.802734" xlink:href="#n"/>
<use x="224.902344" xlink:href="#d"/>
<use x="286.425781" xlink:href="#h"/>
<use x="314.208984" xlink:href="#n"/>
</g>
</g>
<g clip-path="url(#a)">
<defs>
<path id="q" d="m54.891 33.016v-33.016h-8.9844v32.719q0 7.7656-3.0312 11.609-3.0312 3.8594-9.0781 3.8594-7.2812 0-11.484-4.6406-4.2031-4.625-4.2031-12.641v-30.906h-9.0312v75.984h9.0312v-29.797q3.2344 4.9375 7.5938 7.375 4.375 2.4375 10.094 2.4375 9.4219 0 14.25-5.8281 4.8438-5.8281 4.8438-17.156z"/>
</defs>
<g transform="translate(443.52 434.57) scale(.1 -.1)">
<use xlink:href="#p"/>
<use x="39.208984" xlink:href="#q"/>
<use x="102.587891" xlink:href="#g"/>
<use x="163.867188" xlink:href="#p"/>
</g>
</g>
<g clip-path="url(#a)">
<defs>
<path id="as" d="m4.2031 54.688h8.9844l11.234-42.672 11.172 42.672h10.594l11.234-42.672 11.188 42.672h8.9844l-14.312-54.688h-10.594l-11.766 44.828-11.812-44.828h-10.609z"/>
</defs>
<g transform="translate(476.62 434.57) scale(.1 -.1)">
<use xlink:href="#f"/>
<use x="63.378906" xlink:href="#g"/>
<use x="124.658203" xlink:href="#i"/>
<use x="165.771484" xlink:href="#as"/>
<use x="247.558594" xlink:href="#q"/>
<use x="310.9375" xlink:href="#g"/>
<use x="372.216797" xlink:href="#h"/>
<use x="400" xlink:href="#d"/>
</g>
</g>
<g clip-path="url(#a)">
<defs>
<path id="ac" d="m8.5 21.578v33.109h8.9844v-32.766q0-7.7656 3.0156-11.656 3.0312-3.875 9.0938-3.875 7.2656 0 11.484 4.6406 4.2344 4.6406 4.2344 12.656v31h8.9844v-54.688h-8.9844v8.4062q-3.2656-4.9844-7.5938-7.4062-4.3125-2.4219-10.031-2.4219-9.4219 0-14.312 5.8594-4.875 5.8594-4.875 17.141z"/>
<path id="at" d="m9.0781 75.984h9.0312v-44.875l26.812 23.578h11.469l-29-25.578 30.234-29.109h-11.719l-27.797 26.703v-26.703h-9.0312z"/>
</defs>
<g transform="translate(532.49 434.57) scale(.1 -.1)">
<use xlink:href="#p"/>
<use x="39.208984" xlink:href="#ac"/>
<use x="102.587891" xlink:href="#n"/>
<use x="154.6875" xlink:href="#at"/>
<use x="212.597656" xlink:href="#n"/>
</g>
</g>
<g clip-path="url(#a)">
<g transform="translate(579.47 434.57) scale(.1 -.1)">
<use xlink:href="#q"/>
<use x="63.378906" xlink:href="#g"/>
<use x="124.658203" xlink:href="#ab"/>
<use x="183.837891" xlink:href="#d"/>
</g>
</g>
<g clip-path="url(#a)">
<g transform="translate(629.37 434.57) scale(.1 -.1)">
<use xlink:href="#i"/>
<use x="41.113281" xlink:href="#ac"/>
<use x="104.492188" xlink:href="#f"/>
</g>
</g>
<g clip-path="url(#a)">
<defs>
<path id="ak" d="m48.781 52.594v-8.4062q-3.8125 2.1094-7.6406 3.1562t-7.7344 1.0469q-8.75 0-13.594-5.5469-4.8281-5.5312-4.8281-15.547t4.8281-15.562q4.8438-5.5312 13.594-5.5312 3.9062 0 7.7344 1.0469t7.6406 3.1562v-8.3125q-3.7656-1.75-7.7969-2.625-4.0156-0.89062-8.5625-0.89062-12.359 0-19.641 7.7656-7.2656 7.7656-7.2656 20.953 0 13.375 7.3438 21.031 7.3594 7.6719 20.156 7.6719 4.1406 0 8.0938-0.85938 3.9531-0.84375 7.6719-2.5469z"/>
</defs>
<g transform="translate(670.34 434.57) scale(.1 -.1)">
<use xlink:href="#ak"/>
<use x="54.980469" xlink:href="#h"/>
<use x="82.763672" xlink:href="#d"/>
<use x="144.287109" xlink:href="#g"/>
<use x="205.566406" xlink:href="#f"/>
</g>
</g>
<g clip-path="url(#a)">
<defs>
<path id="au" d="m45.406 27.984q0 9.7656-4.0312 15.125-4.0156 5.375-11.297 5.375-7.2188 0-11.25-5.375-4.0312-5.3594-4.0312-15.125 0-9.7188 4.0312-15.094t11.25-5.375q7.2812 0 11.297 5.375 4.0312 5.375 4.0312 15.094zm8.9844-21.203q0-13.953-6.2031-20.766-6.1875-6.8125-18.984-6.8125-4.7344 0-8.9375 0.70312t-8.1562 2.1719v8.7344q3.9531-2.1406 7.8125-3.1562 3.8594-1.0312 7.8594-1.0312 8.8438 0 13.234 4.6094t4.3906 13.938v4.4531q-2.7812-4.8438-7.125-7.2344t-10.406-2.3906q-10.047 0-16.203 7.6562-6.1562 7.6719-6.1562 20.328 0 12.688 6.1562 20.344 6.1562 7.6719 16.203 7.6719 6.0625 0 10.406-2.3906t7.125-7.2188v8.2969h8.9844z"/>
</defs>
<g transform="translate(710.05 434.57) scale(.1 -.1)">
<use xlink:href="#p"/>
<use x="39.208984" xlink:href="#q"/>
<use x="102.587891" xlink:href="#i"/>
<use x="143.669922" xlink:href="#u"/>
<use x="204.851562" xlink:href="#ac"/>
<use x="268.230469" xlink:href="#au"/>
<use x="331.707031" xlink:href="#q"/>
</g>
</g>
<g clip-path="url(#a)">
<defs>
<path id="e" d="m10.688 12.406h10.312v-12.406h-10.312z"/>
</defs>
<g transform="translate(774.24 434.57) scale(.1 -.1)">
<use xlink:href="#e"/>
</g>
</g>
<g clip-path="url(#a)">
<defs>
<path id="c" d="m12.406 8.2969h16.109v55.625l-17.531-3.5156v8.9844l17.438 3.5156h9.8594v-64.609h16.109v-8.2969h-41.984z"/>
</defs>
<g transform="translate(211.66 24.277) scale(.1 -.1)">
<use xlink:href="#c"/>
<use x="63.623047" xlink:href="#e"/>
<use x="95.410156" xlink:href="#c"/>
</g>
</g>
<g clip-path="url(#a)">
<defs>
<path id="aa" d="m40.578 39.312q7.0781-1.5156 11.047-6.3125 3.9844-4.7812 3.9844-11.812 0-10.781-7.4219-16.703-7.4219-5.9062-21.094-5.9062-4.5781 0-9.4375 0.90625t-10.031 2.7188v9.5156q4.0938-2.3906 8.9688-3.6094 4.8906-1.2188 10.219-1.2188 9.2656 0 14.125 3.6562t4.8594 10.641q0 6.4531-4.5156 10.078-4.5156 3.6406-12.562 3.6406h-8.5v8.1094h8.8906q7.2656 0 11.125 2.9062t3.8594 8.375q0 5.6094-3.9844 8.6094-3.9688 3.0156-11.391 3.0156-4.0625 0-8.7031-0.89062-4.6406-0.875-10.203-2.7188v8.7812q5.625 1.5625 10.531 2.3438t9.25 0.78125q11.234 0 17.766-5.1094 6.5469-5.0938 6.5469-13.781 0-6.0625-3.4688-10.234t-9.8594-5.7812z"/>
</defs>
<g transform="translate(100.57 368.27) scale(.1 -.1)">
<use xlink:href="#c"/>
<use x="63.623047" xlink:href="#e"/>
<use x="95.410156" xlink:href="#aa"/>
</g>
</g>
<g clip-path="url(#a)">
<defs>
<path id="z" d="m10.797 72.906h38.719v-8.3125h-29.688v-17.859q2.1406 0.73438 4.2812 1.0938 2.1562 0.35938 4.3125 0.35938 12.203 0 19.328-6.6875 7.1406-6.6875 7.1406-18.109 0-11.766-7.3281-18.297-7.3281-6.5156-20.656-6.5156-4.5938 0-9.3594 0.78125-4.75 0.78125-9.8281 2.3438v9.9219q4.3906-2.3906 9.0781-3.5625t9.9062-1.1719q8.4531 0 13.375 4.4375 4.9375 4.4375 4.9375 12.062 0 7.6094-4.9375 12.047-4.9219 4.4531-13.375 4.4531-3.9531 0-7.8906-0.875-3.9219-0.875-8.0156-2.7344z"/>
</defs>
<g transform="translate(215.62 368.27) scale(.1 -.1)">
<use xlink:href="#c"/>
<use x="63.623047" xlink:href="#e"/>
<use x="95.410156" xlink:href="#z"/>
</g>
</g>
<g clip-path="url(#a)">
<defs>
<path id="y" d="m8.2031 72.906h46.875v-4.2031l-26.469-68.703h-10.297l24.906 64.594h-35.016z"/>
</defs>
<g transform="translate(491.03 96.142) scale(.1 -.1)">
<use xlink:href="#c"/>
<use x="63.623047" xlink:href="#e"/>
<use x="95.410156" xlink:href="#y"/>
</g>
</g>
<g clip-path="url(#a)">
<defs>
<path id="w" d="m9.8125 72.906h9.8594v-72.906h-9.8594z"/>
<path id="an" d="m9.8125 72.906h14.703l18.594-49.609 18.703 49.609h14.703v-72.906h-9.625v64.016l-18.797-50h-9.9062l-18.797 50v-64.016h-9.5781z"/>
</defs>
<g transform="translate(800.76 434.57) scale(.1 -.1)">
<use xlink:href="#w"/>
<use x="29.492188" xlink:href="#an"/>
<use x="115.771484" xlink:href="#v"/>
<use x="176.074219" xlink:href="#s"/>
<use x="231.787109" xlink:href="#w"/>
<use x="261.279297" xlink:href="#t"/>
<use x="331.103516" xlink:href="#w"/>
<use x="360.595703" xlink:href="#j"/>
</g>
</g>
<g clip-path="url(#a)">
<defs>
<path id="ah" d="m31.781 66.406q-7.6094 0-11.453-7.5-3.8281-7.4844-3.8281-22.531 0-14.984 3.8281-22.484 3.8438-7.5 11.453-7.5 7.6719 0 11.5 7.5 3.8438 7.5 3.8438 22.484 0 15.047-3.8438 22.531-3.8281 7.5-11.5 7.5zm0 7.8125q12.266 0 18.734-9.7031 6.4688-9.6875 6.4688-28.141 0-18.406-6.4688-28.109-6.4688-9.6875-18.734-9.6875-12.25 0-18.719 9.6875-6.4688 9.7031-6.4688 28.109 0 18.453 6.4688 28.141 6.4688 9.7031 18.719 9.7031z"/>
</defs>
<g transform="translate(304.48 368.27) scale(.1 -.1)">
<use xlink:href="#c"/>
<use x="63.623047" xlink:href="#e"/>
<use x="95.410156" xlink:href="#c"/>
<use x="159.033203" xlink:href="#ah"/>
</g>
</g>
<g clip-path="url(#a)">
<g transform="translate(350.5 368.27) scale(.1 -.1)">
<use xlink:href="#c"/>
<use x="63.623047" xlink:href="#e"/>
<use x="95.410156" xlink:href="#c"/>
<use x="159.033203" xlink:href="#c"/>
</g>
</g>
<g clip-path="url(#a)">
<defs>
<path id="m" d="m19.188 8.2969h34.422v-8.2969h-46.281v8.2969q5.6094 5.8125 15.297 15.594 9.7031 9.7969 12.188 12.641 4.7344 5.3125 6.6094 9 1.8906 3.6875 1.8906 7.25 0 5.8125-4.0781 9.4688-4.0781 3.6719-10.625 3.6719-4.6406 0-9.7969-1.6094-5.1406-1.6094-11-4.8906v9.9688q5.9531 2.3906 11.125 3.6094 5.1875 1.2188 9.4844 1.2188 11.328 0 18.062-5.6719 6.7344-5.6562 6.7344-15.125 0-4.5-1.6875-8.5312-1.6719-4.0156-6.125-9.4844-1.2188-1.4219-7.7656-8.1875-6.5312-6.7656-18.453-18.922z"/>
</defs>
<g transform="translate(485.69 166.22) scale(.1 -.1)">
<use xlink:href="#c"/>
<use x="63.623047" xlink:href="#e"/>
<use x="95.410156" xlink:href="#c"/>
<use x="159.033203" xlink:href="#m"/>
</g>
</g>
<g clip-path="url(#a)">
<g transform="translate(396.52 368.27) scale(.1 -.1)">
<use xlink:href="#c"/>
<use x="63.623047" xlink:href="#e"/>
<use x="95.410156" xlink:href="#c"/>
<use x="159.033203" xlink:href="#aa"/>
</g>
</g>
<g clip-path="url(#a)">
<defs>
<path id="ag" d="m37.797 64.312-24.906-38.922h24.906zm-2.5938 8.5938h12.406v-47.516h10.406v-8.2031h-10.406v-17.188h-9.8125v17.188h-32.906v9.5156z"/>
</defs>
<g transform="translate(574.86 234.74) scale(.1 -.1)">
<use xlink:href="#c"/>
<use x="63.623047" xlink:href="#e"/>
<use x="95.410156" xlink:href="#c"/>
<use x="159.033203" xlink:href="#ag"/>
</g>
</g>
<g clip-path="url(#a)">
<g transform="translate(442.54 368.27) scale(.1 -.1)">
<use xlink:href="#c"/>
<use x="63.623047" xlink:href="#e"/>
<use x="95.410156" xlink:href="#c"/>
<use x="159.033203" xlink:href="#z"/>
</g>
</g>
<g clip-path="url(#a)">
<defs>
<path id="af" d="m33.016 40.375q-6.6406 0-10.531-4.5469-3.875-4.5312-3.875-12.438 0-7.8594 3.875-12.438 3.8906-4.5625 10.531-4.5625t10.516 4.5625q3.875 4.5781 3.875 12.438 0 7.9062-3.875 12.438-3.875 4.5469-10.516 4.5469zm19.578 30.922v-8.9844q-3.7188 1.75-7.5 2.6719-3.7812 0.9375-7.5 0.9375-9.7656 0-14.922-6.5938-5.1406-6.5938-5.875-19.922 2.875 4.25 7.2188 6.5156 4.3594 2.2656 9.5781 2.2656 10.984 0 17.359-6.6719 6.375-6.6562 6.375-18.125 0-11.234-6.6406-18.031-6.6406-6.7812-17.672-6.7812-12.656 0-19.344 9.6875-6.6875 9.7031-6.6875 28.109 0 17.281 8.2031 27.562t22.016 10.281q3.7188 0 7.5-0.73438t7.8906-2.1875z"/>
</defs>
<g transform="translate(511.58 301.97) scale(.1 -.1)">
<use xlink:href="#c"/>
<use x="63.623047" xlink:href="#e"/>
<use x="95.410156" xlink:href="#c"/>
<use x="159.033203" xlink:href="#af"/>
</g>
</g>
<g clip-path="url(#a)">
<g transform="translate(672.65 301.97) scale(.1 -.1)">
<use xlink:href="#c"/>
<use x="63.623047" xlink:href="#e"/>
<use x="95.410156" xlink:href="#c"/>
<use x="159.033203" xlink:href="#y"/>
</g>
</g>
<g clip-path="url(#a)">
<defs>
<path id="ar" d="m31.781 34.625q-7.0312 0-11.062-3.7656-4.0156-3.7656-4.0156-10.344 0-6.5938 4.0156-10.359 4.0312-3.7656 11.062-3.7656t11.078 3.7812q4.0625 3.7969 4.0625 10.344 0 6.5781-4.0312 10.344-4.0156 3.7656-11.109 3.7656zm-9.8594 4.1875q-6.3438 1.5625-9.8906 5.9062-3.5312 4.3594-3.5312 10.609 0 8.7344 6.2188 13.812 6.2344 5.0781 17.062 5.0781 10.891 0 17.094-5.0781t6.2031-13.812q0-6.25-3.5469-10.609-3.5312-4.3438-9.8281-5.9062 7.125-1.6562 11.094-6.5 3.9844-4.8281 3.9844-11.797 0-10.609-6.4688-16.281-6.4688-5.6562-18.531-5.6562-12.047 0-18.531 5.6562-6.4688 5.6719-6.4688 16.281 0 6.9688 4 11.797 4.0156 4.8438 11.141 6.5zm-3.6094 15.578q0-5.6562 3.5312-8.8281 3.5469-3.1719 9.9375-3.1719 6.3594 0 9.9375 3.1719 3.5938 3.1719 3.5938 8.8281 0 5.6719-3.5938 8.8438-3.5781 3.1719-9.9375 3.1719-6.3906 0-9.9375-3.1719-3.5312-3.1719-3.5312-8.8438z"/>
</defs>
<g transform="translate(672.65 368.27) scale(.1 -.1)">
<use xlink:href="#c"/>
<use x="63.623047" xlink:href="#e"/>
<use x="95.410156" xlink:href="#c"/>
<use x="159.033203" xlink:href="#ar"/>
</g>
</g>
<g clip-path="url(#a)">
<defs>
<path id="aq" d="m10.984 1.5156v8.9844q3.7188-1.7656 7.5156-2.6875 3.8125-0.92188 7.4844-0.92188 9.7656 0 14.906 6.5625 5.1562 6.5625 5.8906 19.953-2.8281-4.2031-7.1875-6.4531-4.3438-2.25-9.6094-2.25-10.938 0-17.312 6.6094-6.375 6.625-6.375 18.109 0 11.219 6.6406 18 6.6406 6.7969 17.672 6.7969 12.656 0 19.312-9.7031 6.6719-9.6875 6.6719-28.141 0-17.234-8.1875-27.516-8.1719-10.281-21.984-10.281-3.7188 0-7.5312 0.73438-3.7969 0.73438-7.9062 2.2031zm19.625 30.906q6.6406 0 10.516 4.5312 3.8906 4.5469 3.8906 12.469 0 7.8594-3.8906 12.422-3.875 4.5625-10.516 4.5625t-10.516-4.5625-3.875-12.422q0-7.9219 3.875-12.469 3.875-4.5312 10.516-4.5312z"/>
</defs>
<g transform="translate(580.61 368.27) scale(.1 -.1)">
<use xlink:href="#c"/>
<use x="63.623047" xlink:href="#e"/>
<use x="95.410156" xlink:href="#c"/>
<use x="159.033203" xlink:href="#aq"/>
</g>
</g>
<g clip-path="url(#a)">
<g transform="translate(672.65 368.27) scale(.1 -.1)">
<use xlink:href="#c"/>
<use x="63.623047" xlink:href="#e"/>
<use x="95.410156" xlink:href="#m"/>
<use x="159.033203" xlink:href="#ah"/>
</g>
</g>
<g clip-path="url(#a)">
<g transform="translate(488.57 368.27) scale(.1 -.1)">
<use xlink:href="#c"/>
<use x="63.623047" xlink:href="#e"/>
<use x="95.410156" xlink:href="#m"/>
<use x="159.033203" xlink:href="#c"/>
</g>
</g>
<g clip-path="url(#a)">
<g transform="translate(534.59 368.27) scale(.1 -.1)">
<use xlink:href="#c"/>
<use x="63.623047" xlink:href="#e"/>
<use x="95.410156" xlink:href="#m"/>
<use x="159.033203" xlink:href="#m"/>
</g>
</g>
<g clip-path="url(#a)">
<g transform="translate(292.62 24.277) scale(.1 -.1)">
<use xlink:href="#c"/>
<use x="63.623047" xlink:href="#e"/>
<use x="95.410156" xlink:href="#m"/>
<use x="159.033203" xlink:href="#aa"/>
</g>
</g>
<g clip-path="url(#a)">
<g transform="translate(28.352 368.27) scale(.1 -.1)">
<use xlink:href="#c"/>
<use x="63.623047" xlink:href="#e"/>
<use x="95.410156" xlink:href="#m"/>
<use x="159.033203" xlink:href="#ag"/>
</g>
</g>
<g clip-path="url(#a)">
<g transform="translate(166.42 368.27) scale(.1 -.1)">
<use xlink:href="#c"/>
<use x="63.623047" xlink:href="#e"/>
<use x="95.410156" xlink:href="#m"/>
<use x="159.033203" xlink:href="#z"/>
</g>
</g>
<g clip-path="url(#a)">
<g transform="translate(258.46 368.27) scale(.1 -.1)">
<use xlink:href="#c"/>
<use x="63.623047" xlink:href="#e"/>
<use x="95.410156" xlink:href="#m"/>
<use x="159.033203" xlink:href="#af"/>
</g>
</g>
<g clip-path="url(#a)">
<g transform="translate(764.69 368.27) scale(.1 -.1)">
<use xlink:href="#c"/>
<use x="63.623047" xlink:href="#e"/>
<use x="95.410156" xlink:href="#m"/>
<use x="159.033203" xlink:href="#y"/>
</g>
</g>
<defs>
<clipPath id="a">
<rect width="861.33" height="453.33"/>
</clipPath>
</defs>
</svg>
