<?xml version="1.0" encoding="UTF-8"?>
<!DOCTYPE svg  PUBLIC '-//W3C//DTD SVG 1.1//EN'  'http://www.w3.org/Graphics/SVG/1.1/DTD/svg11.dtd'>
<svg width="1672pt" height="880pt" version="1.1" viewBox="0 0 1672 880" xmlns="http://www.w3.org/2000/svg" xmlns:xlink="http://www.w3.org/1999/xlink">
<defs>
<style type="text/css">*{stroke-linecap:butt;stroke-linejoin:round;white-space:pre;}</style>
</defs>
<path d="m0 880h1672v-880h-1672z" fill="#fff"/>
<g fill="none" stroke="#000">
<path d="m554.41 40.775v121.79" clip-path="url(#a)"/>
<path d="m554.41 162.57-478.25 567.31" clip-path="url(#a)"/>
<path d="m554.41 162.57 95.352 457.97" clip-path="url(#a)"/>
<path d="m554.41 162.57-254.77 567.31" clip-path="url(#a)"/>
<path d="m554.41 162.57-210.07 567.31" clip-path="url(#a)"/>
<path d="m554.41 162.57-40.226 347.1" clip-path="url(#a)"/>
<path d="m554.41 162.57 651.07 118.52" clip-path="url(#a)"/>
<path d="m554.41 162.57 236.89 567.31" clip-path="url(#a)"/>
<path d="m76.167 729.88v109.35" clip-path="url(#a)"/>
<path d="m649.77 620.53 946.07 218.69" clip-path="url(#a)"/>
<path d="m649.77 620.53 901.37 218.69" clip-path="url(#a)"/>
<path d="m649.77 620.53-528.9 109.35" clip-path="url(#a)"/>
<path d="m649.77 620.53-484.21 109.35" clip-path="url(#a)"/>
<path d="m649.77 620.53-439.51 109.35" clip-path="url(#a)"/>
<path d="m649.77 620.53-394.82 109.35" clip-path="url(#a)"/>
<path d="m299.65 729.88v109.35" clip-path="url(#a)"/>
<path d="m344.34 729.88v109.35" clip-path="url(#a)"/>
<path d="m514.19 509.67-125.15 220.21" clip-path="url(#a)"/>
<path d="m514.19 509.67-80.453 220.21" clip-path="url(#a)"/>
<path d="m514.19 509.67-35.757 220.21" clip-path="url(#a)"/>
<path d="m514.19 509.67 53.635 110.87" clip-path="url(#a)"/>
<path d="m514.19 509.67 187.72 110.87" clip-path="url(#a)"/>
<path d="m1205.5 281.09-280.1 115.58" clip-path="url(#a)"/>
<path d="m1205.5 281.09-11.919 448.79" clip-path="url(#a)"/>
<path d="m1205.5 281.09 32.777 448.79" clip-path="url(#a)"/>
<path d="m1205.5 281.09 77.473 448.79" clip-path="url(#a)"/>
<path d="m1205.5 281.09 181.76 228.58" clip-path="url(#a)"/>
<path d="m925.39 396.66-89.392 333.22" clip-path="url(#a)"/>
<path d="m925.39 396.66-44.696 333.22" clip-path="url(#a)"/>
<path d="m925.39 396.66v333.22" clip-path="url(#a)"/>
<path d="m925.39 396.66 134.09 113" clip-path="url(#a)"/>
<path d="m1193.6 729.88v109.35" clip-path="url(#a)"/>
<path d="m1238.3 729.88v109.35" clip-path="url(#a)"/>
<path d="m1283 729.88v109.35" clip-path="url(#a)"/>
<path d="m1387.3 509.67-59.595 220.21" clip-path="url(#a)"/>
<path d="m1387.3 509.67-14.899 220.21" clip-path="url(#a)"/>
<path d="m1387.3 509.67 74.493 110.87" clip-path="url(#a)"/>
<path d="m1327.7 729.88v109.35" clip-path="url(#a)"/>
<path d="m1372.4 729.88v109.35" clip-path="url(#a)"/>
<path d="m1461.7 620.53-44.696 109.35" clip-path="url(#a)"/>
<path d="m1461.7 620.53v109.35" clip-path="url(#a)"/>
<path d="m1461.7 620.53 44.696 109.35" clip-path="url(#a)"/>
<path d="m1417 729.88v109.35" clip-path="url(#a)"/>
<path d="m1461.7 729.88v109.35" clip-path="url(#a)"/>
<path d="m836 729.88v109.35" clip-path="url(#a)"/>
<path d="m880.7 729.88v109.35" clip-path="url(#a)"/>
<path d="m925.39 729.88v109.35" clip-path="url(#a)"/>
<path d="m1059.5 509.67-89.392 220.21" clip-path="url(#a)"/>
<path d="m1059.5 509.67v110.87" clip-path="url(#a)"/>
<path d="m1059.5 509.67 89.392 220.21" clip-path="url(#a)"/>
<path d="m970.09 729.88v109.35" clip-path="url(#a)"/>
<path d="m1059.5 620.53-44.696 109.35" clip-path="url(#a)"/>
<path d="m1059.5 620.53v109.35" clip-path="url(#a)"/>
<path d="m1059.5 620.53 44.696 109.35" clip-path="url(#a)"/>
<path d="m1148.9 729.88v109.35" clip-path="url(#a)"/>
<path d="m1014.8 729.88v109.35" clip-path="url(#a)"/>
<path d="m1059.5 729.88v109.35" clip-path="url(#a)"/>
<path d="m1104.2 729.88v109.35" clip-path="url(#a)"/>
<path d="m389.04 729.88v109.35" clip-path="url(#a)"/>
<path d="m433.74 729.88v109.35" clip-path="url(#a)"/>
<path d="m478.43 729.88v109.35" clip-path="url(#a)"/>
<path d="m567.82 620.53-44.696 109.35" clip-path="url(#a)"/>
<path d="m567.82 620.53v109.35" clip-path="url(#a)"/>
<path d="m567.82 620.53 44.696 109.35" clip-path="url(#a)"/>
<path d="m701.91 620.53-44.696 109.35" clip-path="url(#a)"/>
<path d="m701.91 620.53v109.35" clip-path="url(#a)"/>
<path d="m701.91 620.53 44.696 109.35" clip-path="url(#a)"/>
<path d="m657.22 729.88v109.35" clip-path="url(#a)"/>
<path d="m701.91 729.88v109.35" clip-path="url(#a)"/>
<path d="m746.61 729.88v109.35" clip-path="url(#a)"/>
<path d="m523.13 729.88v109.35" clip-path="url(#a)"/>
<path d="m567.82 729.88v109.35" clip-path="url(#a)"/>
<path d="m612.52 729.88v109.35" clip-path="url(#a)"/>
<path d="m120.86 729.88v109.35" clip-path="url(#a)"/>
<path d="m165.56 729.88v109.35" clip-path="url(#a)"/>
<path d="m210.25 729.88v109.35" clip-path="url(#a)"/>
<path d="m254.95 729.88v109.35" clip-path="url(#a)"/>
<path d="m688.01 162.57-343.66 567.31" clip-path="url(#a)"/>
<path d="m688.01 162.57-173.82 347.1" clip-path="url(#a)"/>
<path d="m688.01 162.57 517.48 118.52" clip-path="url(#a)"/>
<path d="m718.3 162.57-68.534 457.97" clip-path="url(#a)"/>
<path d="m718.3 162.57-418.65 567.31" clip-path="url(#a)"/>
<path d="m718.3 162.57 487.19 118.52" clip-path="url(#a)"/>
<path d="m791.3 729.88v109.35" clip-path="url(#a)"/>
<path d="m1506.4 729.88v109.35" clip-path="url(#a)"/>
</g>
<path d="m548.14 98.663v6.0162q0 2.4 2.4 2.4h7.7425q2.4 0 2.4-2.4v-6.0162q0-2.4-2.4-2.4h-7.7425q-2.4 0-2.4 2.4z" clip-path="url(#a)" fill="#fff" stroke="#fff"/>
<g clip-path="url(#a)">
<defs>
<path id="ah" d="m9.8125 72.906h9.8594v-29.891h35.844v29.891h9.8594v-72.906h-9.8594v34.719h-35.844v-34.719h-9.8594z"/>
</defs>
<g transform="translate(552.21 98.663) rotate(90) scale(.08 -.08)">
<use xlink:href="#ah"/>
</g>
</g>
<path d="m318.65 451.97 2.873-3.4081q1.5469-1.835-0.28808-3.3819l-5.9197-4.9903q-1.835-1.5469-3.3819 0.28808l-2.873 3.4081q-1.5469 1.835 0.28808 3.3819l5.9197 4.9903q1.835 1.5469 3.3819-0.28808z" clip-path="url(#a)" fill="#fff" stroke="#fff"/>
<g clip-path="url(#a)">
<defs>
<path id="p" d="m9.8125 72.906h9.8594v-64.609h35.5v-8.2969h-45.359z"/>
</defs>
<g transform="translate(315.54 449.35) rotate(-49.869) scale(.08 -.08)">
<use xlink:href="#p"/>
</g>
</g>
<path d="m595.34 389.88 1.2263 5.8899q0.48921 2.3496 2.8388 1.8604l7.5799-1.5782q2.3496-0.4892 1.8604-2.8388l-1.2263-5.8899q-0.48921-2.3496-2.8388-1.8604l-7.5799 1.5782q-2.3496 0.4892-1.8604 2.8388z" clip-path="url(#a)" fill="#fff" stroke="#fff"/>
<g clip-path="url(#a)">
<g transform="translate(599.32 389.05) rotate(78.239) scale(.08 -.08)">
<use xlink:href="#ah"/>
</g>
</g>
<path d="m431.84 450.83 1.8261-4.0663q0.9832-2.1894-1.2062-3.1726l-7.063-3.1718q-2.1894-0.9832-3.1726 1.2062l-1.8261 4.0663q-0.9832 2.1894 1.2062 3.1726l7.063 3.1718q2.1894 0.9832 3.1726-1.2062z" clip-path="url(#a)" fill="#fff" stroke="#fff"/>
<g clip-path="url(#a)">
<g transform="translate(428.13 449.16) rotate(-65.816) scale(.08 -.08)">
<use xlink:href="#p"/>
</g>
</g>
<path d="m454.49 450.49 1.5479-4.1801q0.8334-2.2507-1.4173-3.0841l-7.2607-2.6886q-2.2507-0.8334-3.0841 1.4173l-1.5479 4.1801q-0.8334 2.2507 1.4173 3.0841l7.2607 2.6886q2.2507 0.8334 3.0841-1.4173z" clip-path="url(#a)" fill="#fff" stroke="#fff"/>
<g clip-path="url(#a)">
<g transform="translate(450.68 449.08) rotate(-69.681) scale(.08 -.08)">
<use xlink:href="#p"/>
</g>
</g>
<path d="m540.18 339.83 0.69261-5.9762q0.2763-2.384-2.1077-2.6603l-7.691-0.89134q-2.384-0.2763-2.6603 2.1077l-0.69261 5.9762q-0.2763 2.384 2.1077 2.6603l7.691 0.89134q2.384 0.2763 2.6603-2.1077z" clip-path="url(#a)" fill="#fff" stroke="#fff"/>
<g clip-path="url(#a)">
<g transform="translate(536.15 339.36) rotate(-83.389) scale(.08 -.08)">
<use xlink:href="#ah"/>
</g>
</g>
<path d="m875.87 227.46 5.919 1.0775q2.3612 0.42982 2.791-1.9314l1.3866-7.6173q0.42982-2.3612-1.9314-2.791l-5.919-1.0775q-2.3612-0.42982-2.791 1.9314l-1.3866 7.6173q-0.42982 2.3612 1.9314 2.791z" clip-path="url(#a)" fill="#fff" stroke="#fff"/>
<g clip-path="url(#a)">
<g transform="translate(876.6 223.46) rotate(10.317) scale(.08 -.08)">
<use xlink:href="#ah"/>
</g>
</g>
<path d="m665.94 445.94 2.2561 5.4029q0.92477 2.2147 3.1394 1.2899l7.1446-2.9833q2.2147-0.92477 1.2899-3.1394l-2.2561-5.4029q-0.92477-2.2147-3.1394-1.2899l-7.1446 2.9833q-2.2147 0.92477-1.2899 3.1394z" clip-path="url(#a)" fill="#fff" stroke="#fff"/>
<g clip-path="url(#a)">
<defs>
<path id="ar" d="m8.6875 72.906h9.9219v-44.297q0-11.719 4.2344-16.875 4.25-5.1406 13.781-5.1406 9.4688 0 13.719 5.1406 4.25 5.1562 4.25 16.875v44.297h9.9062v-45.516q0-14.25-7.0625-21.531-7.0469-7.2812-20.812-7.2812-13.828 0-20.891 7.2812-7.0469 7.2812-7.0469 21.531z"/>
</defs>
<g transform="translate(669.69 444.37) rotate(67.336) scale(.08 -.08)">
<use xlink:href="#ar"/>
</g>
</g>
<path d="m69.895 766.91v35.285q0 2.4 2.4 2.4h7.7425q2.4 0 2.4-2.4v-35.285q0-2.4-2.4-2.4h-7.7425q-2.4 0-2.4 2.4z" clip-path="url(#a)" fill="#fff" stroke="#fff"/>
<g clip-path="url(#a)">
<defs>
<path id="l" d="m-0.29688 72.906h61.672v-8.3125h-25.875v-64.594h-9.9062v64.594h-25.891z"/>
<path id="d" d="m56.203 29.594v-4.3906h-41.312q0.59375-9.2812 5.5938-14.141t13.938-4.8594q5.1719 0 10.031 1.2656t9.6562 3.8125v-8.5q-4.8438-2.0469-9.9219-3.125t-10.297-1.0781q-13.094 0-20.734 7.6094-7.6406 7.625-7.6406 20.625 0 13.422 7.25 21.297 7.25 7.8906 19.562 7.8906 11.031 0 17.453-7.1094 6.4219-7.0938 6.4219-19.297zm-8.9844 2.6406q-0.09375 7.3594-4.125 11.75-4.0312 4.4062-10.672 4.4062-7.5156 0-12.031-4.25t-5.2031-11.969z"/>
<path id="g" d="m41.109 46.297q-1.5156 0.875-3.2969 1.2812-1.7812 0.42188-3.9219 0.42188-7.625 0-11.703-4.9531t-4.0781-14.234v-28.812h-9.0312v54.688h9.0312v-8.5q2.8438 4.9844 7.375 7.3906 4.5469 2.4219 11.047 2.4219 0.92188 0 2.0469-0.125 1.125-0.10938 2.4844-0.35938z"/>
<path id="j" d="m52 44.188q3.375 6.0625 8.0625 8.9375t11.031 2.875q8.5469 0 13.188-5.9844 4.6406-5.9688 4.6406-17v-33.016h-9.0312v32.719q0 7.8594-2.7969 11.656-2.7812 3.8125-8.4844 3.8125-6.9844 0-11.047-4.6406-4.0469-4.625-4.0469-12.641v-30.906h-9.0312v32.719q0 7.9062-2.7812 11.688t-8.5938 3.7812q-6.8906 0-10.953-4.6562-4.0469-4.6562-4.0469-12.625v-30.906h-9.0312v54.688h9.0312v-8.5q3.0781 5.0312 7.375 7.4219t10.203 2.3906q5.9688 0 10.141-3.0312 4.1719-3.0156 6.1719-8.7812z"/>
<path id="i" d="m9.4219 54.688h8.9844v-54.688h-8.9844zm0 21.297h8.9844v-11.391h-8.9844z"/>
<path id="h" d="m54.891 33.016v-33.016h-8.9844v32.719q0 7.7656-3.0312 11.609-3.0312 3.8594-9.0781 3.8594-7.2812 0-11.484-4.6406-4.2031-4.625-4.2031-12.641v-30.906h-9.0312v54.688h9.0312v-8.5q3.2344 4.9375 7.5938 7.375 4.375 2.4375 10.094 2.4375 9.4219 0 14.25-5.8281 4.8438-5.8281 4.8438-17.156z"/>
<path id="f" d="m34.281 27.484q-10.891 0-15.094-2.4844t-4.2031-8.5q0-4.7812 3.1562-7.5938 3.1562-2.7969 8.5625-2.7969 7.4844 0 12 5.2969t4.5156 14.078v2zm17.922 3.7188v-31.203h-8.9844v8.2969q-3.0781-4.9688-7.6719-7.3438t-11.234-2.375q-8.3906 0-13.359 4.7188-4.9531 4.7188-4.9531 12.625 0 9.2188 6.1719 13.906 6.1875 4.6875 18.438 4.6875h12.609v0.89062q0 6.2031-4.0781 9.5938t-11.453 3.3906q-4.6875 0-9.1406-1.125-4.4375-1.125-8.5312-3.375v8.3125q4.9219 1.9062 9.5625 2.8438 4.6406 0.95312 9.0312 0.95312 11.875 0 17.734-6.1562 5.8594-6.1406 5.8594-18.641z"/>
<path id="k" d="m9.4219 75.984h8.9844v-75.984h-8.9844z"/>
</defs>
<g transform="translate(73.959 766.91) rotate(90) scale(.08 -.08)">
<use xlink:href="#l"/>
<use x="60.818359" xlink:href="#d"/>
<use x="122.341797" xlink:href="#g"/>
<use x="163.439453" xlink:href="#j"/>
<use x="260.851562" xlink:href="#i"/>
<use x="288.634766" xlink:href="#h"/>
<use x="352.013672" xlink:href="#f"/>
<use x="413.292969" xlink:href="#k"/>
</g>
</g>
<path d="m1118.7 735.37 5.3319 1.2325q2.3383 0.54053 2.8789-1.7978l1.7438-7.5436q0.54053-2.3383-1.7978-2.8789l-5.3319-1.2325q-2.3383-0.54053-2.8789 1.7978l-1.7438 7.5436q-0.54053 2.3383 1.7978 2.8789z" clip-path="url(#a)" fill="#fff" stroke="#fff"/>
<g clip-path="url(#a)">
<defs>
<path id="q" d="m34.188 63.188-13.391-36.281h26.812zm-5.5781 9.7188h11.188l27.781-72.906h-10.25l-6.6406 18.703h-32.859l-6.6406-18.703h-10.406z"/>
</defs>
<g transform="translate(1119.6 731.41) rotate(13.016) scale(.08 -.08)">
<use xlink:href="#q"/>
</g>
</g>
<path d="m1096.3 735.33 5.3182 1.2903q2.3323 0.56588 2.8982-1.7665l1.8255-7.5242q0.56588-2.3323-1.7665-2.8982l-5.3182-1.2903q-2.3323-0.56588-2.8982 1.7665l-1.8255 7.5242q-0.56588 2.3323 1.7665 2.8982z" clip-path="url(#a)" fill="#fff" stroke="#fff"/>
<g clip-path="url(#a)">
<g transform="translate(1097.3 731.38) rotate(13.638) scale(.08 -.08)">
<use xlink:href="#q"/>
</g>
</g>
<path d="m384.33 681.81 4.506-0.93157q2.3503-0.4859 1.8644-2.8362l-1.5675-7.5822q-0.4859-2.3503-2.8362-1.8644l-4.506 0.93157q-2.3503 0.4859-1.8644 2.8362l1.5675 7.5822q0.4859 2.3503 2.8362 1.8644z" clip-path="url(#a)" fill="#fff" stroke="#fff"/>
<g clip-path="url(#a)">
<defs>
<path id="al" d="m9.8125 72.906h41.891v-8.3125h-32.031v-21.484h28.906v-8.2969h-28.906v-34.812h-9.8594z"/>
</defs>
<g transform="translate(383.51 677.83) rotate(-11.681) scale(.08 -.08)">
<use xlink:href="#al"/>
</g>
</g>
<path d="m406.04 682 6.0087-1.3569q2.341-0.52867 1.8124-2.8697l-1.7055-7.5523q-0.52867-2.341-2.8697-1.8124l-6.0087 1.3569q-2.341 0.52867-1.8124 2.8697l1.7055 7.5523q0.52867 2.341 2.8697 1.8124z" clip-path="url(#a)" fill="#fff" stroke="#fff"/>
<g clip-path="url(#a)">
<defs>
<path id="am" d="m19.672 64.797v-56.688h11.922q15.094 0 22.094 6.8281 7 6.8438 7 21.594 0 14.641-7 21.453t-22.094 6.8125zm-9.8594 8.1094h20.266q21.188 0 31.094-8.8125 9.9219-8.8125 9.9219-27.562 0-18.859-9.9688-27.703-9.9531-8.8281-31.047-8.8281h-20.266z"/>
</defs>
<g transform="translate(405.14 678.04) rotate(-12.725) scale(.08 -.08)">
<use xlink:href="#am"/>
</g>
</g>
<path d="m429.29 681.85 4.4651-1.1109q2.329-0.57943 1.7496-2.9084l-1.8693-7.5135q-0.57943-2.329-2.9084-1.7496l-4.4651 1.1109q-2.329 0.57943-1.7496 2.9084l1.8693 7.5135q0.57943 2.329 2.9084 1.7496z" clip-path="url(#a)" fill="#fff" stroke="#fff"/>
<g clip-path="url(#a)">
<g transform="translate(428.31 677.9) rotate(-13.971) scale(.08 -.08)">
<use xlink:href="#al"/>
</g>
</g>
<path d="m451.71 681.89 4.6488-1.2875q2.3129-0.64058 1.6724-2.9535l-2.0665-7.4616q-0.64058-2.3129-2.9535-1.6724l-4.6488 1.2875q-2.3129 0.64058-1.6724 2.9535l2.0665 7.4616q0.64058 2.3129 2.9535 1.6724z" clip-path="url(#a)" fill="#fff" stroke="#fff"/>
<g clip-path="url(#a)">
<defs>
<path id="ad" d="m19.672 64.797v-27.391h12.406q6.8906 0 10.641 3.5625 3.7656 3.5625 3.7656 10.156 0 6.5469-3.7656 10.109-3.75 3.5625-10.641 3.5625zm-9.8594 8.1094h22.266q12.266 0 18.531-5.5469 6.2812-5.5469 6.2812-16.234 0-10.797-6.2812-16.312-6.2656-5.5156-18.531-5.5156h-12.406v-29.297h-9.8594z"/>
</defs>
<g transform="translate(450.62 677.98) rotate(-15.48) scale(.08 -.08)">
<use xlink:href="#ad"/>
</g>
</g>
<path d="m293.38 766.91v35.285q0 2.4 2.4 2.4h7.7425q2.4 0 2.4-2.4v-35.285q0-2.4-2.4-2.4h-7.7425q-2.4 0-2.4 2.4z" clip-path="url(#a)" fill="#fff" stroke="#fff"/>
<g clip-path="url(#a)">
<g transform="translate(297.44 766.91) rotate(90) scale(.08 -.08)">
<use xlink:href="#l"/>
<use x="60.818359" xlink:href="#d"/>
<use x="122.341797" xlink:href="#g"/>
<use x="163.439453" xlink:href="#j"/>
<use x="260.851562" xlink:href="#i"/>
<use x="288.634766" xlink:href="#h"/>
<use x="352.013672" xlink:href="#f"/>
<use x="413.292969" xlink:href="#k"/>
</g>
</g>
<path d="m338.07 766.91v35.285q0 2.4 2.4 2.4h7.7425q2.4 0 2.4-2.4v-35.285q0-2.4-2.4-2.4h-7.7425q-2.4 0-2.4 2.4z" clip-path="url(#a)" fill="#fff" stroke="#fff"/>
<g clip-path="url(#a)">
<g transform="translate(342.14 766.91) rotate(90) scale(.08 -.08)">
<use xlink:href="#l"/>
<use x="60.818359" xlink:href="#d"/>
<use x="122.341797" xlink:href="#g"/>
<use x="163.439453" xlink:href="#j"/>
<use x="260.851562" xlink:href="#i"/>
<use x="288.634766" xlink:href="#h"/>
<use x="352.013672" xlink:href="#f"/>
<use x="413.292969" xlink:href="#k"/>
</g>
</g>
<path d="m455.71 625.25 2.7039-4.7578q1.1858-2.0866-0.90076-3.2724l-6.7314-3.8255q-2.0866-1.1858-3.2724 0.90076l-2.7039 4.7578q-1.1858 2.0866 0.90076 3.2724l6.7314 3.8255q2.0866 1.1858 3.2724-0.90076z" clip-path="url(#a)" fill="#fff" stroke="#fff"/>
<g clip-path="url(#a)">
<g transform="translate(452.18 623.24) rotate(-60.39) scale(.08 -.08)">
<use xlink:href="#q"/>
</g>
</g>
<path d="m478.8 624.82 2.1138-5.786q0.82358-2.2543-1.4307-3.0778l-7.2724-2.6569q-2.2543-0.82358-3.0778 1.4307l-2.1138 5.786q-0.82358 2.2543 1.4307 3.0778l7.2724 2.6569q2.2543 0.82358 3.0778-1.4307z" clip-path="url(#a)" fill="#fff" stroke="#fff"/>
<g clip-path="url(#a)">
<g transform="translate(474.98 623.42) rotate(-69.931) scale(.08 -.08)">
<use xlink:href="#am"/>
</g>
</g>
<path d="m502.11 623.16 0.77312-4.7614q0.38466-2.369-1.9843-2.7536l-7.6424-1.2409q-2.369-0.38466-2.7536 1.9843l-0.77312 4.7614q-0.38466 2.369 1.9843 2.7536l7.6424 1.2409q2.369 0.38466 2.7536-1.9843z" clip-path="url(#a)" fill="#fff" stroke="#fff"/>
<g clip-path="url(#a)">
<g transform="translate(498.1 622.51) rotate(-80.777) scale(.08 -.08)">
<use xlink:href="#ad"/>
</g>
</g>
<path d="m534.17 565.37 2.3832 4.9263q1.0452 2.1605 3.2056 1.1153l6.9697-3.3718q2.1605-1.0452 1.1153-3.2056l-2.3832-4.9263q-1.0452-2.1605-3.2056-1.1153l-6.9697 3.3718q-2.1605 1.0452-1.1153 3.2056z" clip-path="url(#a)" fill="#fff" stroke="#fff"/>
<g clip-path="url(#a)">
<g transform="translate(537.83 563.6) rotate(64.183) scale(.08 -.08)">
<use xlink:href="#q"/>
</g>
</g>
<path d="m602.5 569.11 4.7121 2.7829q2.0665 1.2205 3.287-0.84605l3.9373-6.6667q1.2205-2.0665-0.84605-3.287l-4.7121-2.7829q-2.0665-1.2205-3.287 0.84606l-3.9373 6.6667q-1.2205 2.0665 0.84606 3.287z" clip-path="url(#a)" fill="#fff" stroke="#fff"/>
<g clip-path="url(#a)">
<g transform="translate(604.57 565.61) rotate(30.566) scale(.08 -.08)">
<use xlink:href="#q"/>
</g>
</g>
<path d="m1065.3 345.72 5.0588-2.0874q2.2185-0.91545 1.3031-3.134l-2.9533-7.1571q-0.91545-2.2185-3.134-1.3031l-5.0588 2.0874q-2.2185 0.91545-1.3031 3.134l2.9533 7.1571q0.91545 2.2185 3.134 1.3031z" clip-path="url(#a)" fill="#fff" stroke="#fff"/>
<g clip-path="url(#a)">
<g transform="translate(1063.8 341.96) rotate(-22.423) scale(.08 -.08)">
<use xlink:href="#q"/>
</g>
</g>
<path d="m1205.7 508.73 0.16354-6.1578q0.063716-2.3992-2.3354-2.4629l-7.7398-0.20555q-2.3992-0.063716-2.4629 2.3354l-0.16354 6.1578q-0.063716 2.3992 2.3354 2.4629l7.7398 0.20555q2.3992 0.063717 2.4629-2.3354z" clip-path="url(#a)" fill="#fff" stroke="#fff"/>
<g clip-path="url(#a)">
<g transform="translate(1201.7 508.62) rotate(-88.479) scale(.08 -.08)">
<use xlink:href="#am"/>
</g>
</g>
<path d="m1215.5 503.64 0.33516 4.589q0.17482 2.3936 2.5684 2.2188l7.7219-0.56396q2.3936-0.17482 2.2188-2.5684l-0.33516-4.589q-0.17482-2.3936-2.5684-2.2188l-7.7219 0.56396q-2.3936 0.17482-2.2188 2.5684z" clip-path="url(#a)" fill="#fff" stroke="#fff"/>
<g clip-path="url(#a)">
<g transform="translate(1219.5 503.35) rotate(85.823) scale(.08 -.08)">
<use xlink:href="#al"/>
</g>
</g>
<path d="m1237.6 504.17 0.82057 4.7534q0.40826 2.365 2.7733 1.9568l7.6297-1.3171q2.365-0.40826 1.9568-2.7733l-0.82057-4.7534q-0.40826-2.365-2.7733-1.9568l-7.6297 1.3171q-2.365 0.40826-1.9568 2.7733z" clip-path="url(#a)" fill="#fff" stroke="#fff"/>
<g clip-path="url(#a)">
<g transform="translate(1241.6 503.48) rotate(80.206) scale(.08 -.08)">
<use xlink:href="#ad"/>
</g>
</g>
<path d="m1289.8 397.14 3.4061 4.2833q1.4938 1.8785 3.3722 0.38473l6.0601-4.8189q1.8785-1.4938 0.38473-3.3722l-3.4061-4.2833q-1.4938-1.8785-3.3722-0.38473l-6.0601 4.8189q-1.8785 1.4938-0.38473 3.3722z" clip-path="url(#a)" fill="#fff" stroke="#fff"/>
<g clip-path="url(#a)">
<g transform="translate(1292.9 394.61) rotate(51.509) scale(.08 -.08)">
<use xlink:href="#q"/>
</g>
</g>
<path d="m886.1 567.34 1.3098-4.8824q0.62186-2.318-1.6962-2.9399l-7.4781-2.0062q-2.318-0.62186-2.9399 1.6962l-1.3098 4.8824q-0.62186 2.318 1.6962 2.9399l7.4781 2.0062q2.318 0.62186 2.9399-1.6962z" clip-path="url(#a)" fill="#fff" stroke="#fff"/>
<g clip-path="url(#a)">
<defs>
<path id="s" d="m9.8125 72.906h46.094v-8.3125h-36.234v-21.578h34.719v-8.2969h-34.719v-26.422h37.109v-8.2969h-46.969z"/>
</defs>
<g transform="translate(882.17 566.28) rotate(-74.983) scale(.08 -.08)">
<use xlink:href="#s"/>
</g>
</g>
<path d="m908.92 566.61 0.67204-5.0101q0.31907-2.3787-2.0596-2.6978l-7.6738-1.0293q-2.3787-0.31907-2.6978 2.0596l-0.67204 5.0101q-0.31907 2.3787 2.0596 2.6978l7.6738 1.0293q2.3787 0.31907 2.6978-2.0596z" clip-path="url(#a)" fill="#fff" stroke="#fff"/>
<g clip-path="url(#a)">
<g transform="translate(904.9 566.07) rotate(-82.36) scale(.08 -.08)">
<use xlink:href="#s"/>
</g>
</g>
<path d="m919.12 560.48v5.5862q0 2.4 2.4 2.4h7.7425q2.4 0 2.4-2.4v-5.5862q0-2.4-2.4-2.4h-7.7425q-2.4 0-2.4 2.4z" clip-path="url(#a)" fill="#fff" stroke="#fff"/>
<g clip-path="url(#a)">
<defs>
<path id="v" d="m64.406 67.281v-10.391q-4.9844 4.6406-10.625 6.9219-5.6406 2.2969-11.984 2.2969-12.5 0-19.141-7.6406t-6.6406-22.094q0-14.406 6.6406-22.047t19.141-7.6406q6.3438 0 11.984 2.2969t10.625 6.9375v-10.312q-5.1719-3.5156-10.969-5.2812-5.7812-1.75-12.219-1.75-16.562 0-26.094 10.125-9.5156 10.141-9.5156 27.672 0 17.578 9.5156 27.703 9.5312 10.141 26.094 10.141 6.5312 0 12.312-1.7344 5.7969-1.7344 10.875-5.2031z"/>
</defs>
<g transform="translate(923.18 560.48) rotate(90) scale(.08 -.08)">
<use xlink:href="#v"/>
</g>
</g>
<path d="m986.46 456.33 3.8654 3.2576q1.8352 1.5466 3.3818-0.2886l4.9894-5.9205q1.5466-1.8352-0.2886-3.3818l-3.8654-3.2576q-1.8352-1.5466-3.3818 0.2886l-4.9894 5.9205q-1.5466 1.8352 0.2886 3.3818z" clip-path="url(#a)" fill="#fff" stroke="#fff"/>
<g clip-path="url(#a)">
<g transform="translate(989.08 453.22) rotate(40.122) scale(.08 -.08)">
<use xlink:href="#s"/>
</g>
</g>
<path d="m1187.3 766.91v35.285q0 2.4 2.4 2.4h7.7425q2.4 0 2.4-2.4v-35.285q0-2.4-2.4-2.4h-7.7425q-2.4 0-2.4 2.4z" clip-path="url(#a)" fill="#fff" stroke="#fff"/>
<g clip-path="url(#a)">
<g transform="translate(1191.4 766.91) rotate(90) scale(.08 -.08)">
<use xlink:href="#l"/>
<use x="60.818359" xlink:href="#d"/>
<use x="122.341797" xlink:href="#g"/>
<use x="163.439453" xlink:href="#j"/>
<use x="260.851562" xlink:href="#i"/>
<use x="288.634766" xlink:href="#h"/>
<use x="352.013672" xlink:href="#f"/>
<use x="413.292969" xlink:href="#k"/>
</g>
</g>
<path d="m1232 766.91v35.285q0 2.4 2.4 2.4h7.7425q2.4 0 2.4-2.4v-35.285q0-2.4-2.4-2.4h-7.7425q-2.4 0-2.4 2.4z" clip-path="url(#a)" fill="#fff" stroke="#fff"/>
<g clip-path="url(#a)">
<g transform="translate(1236.1 766.91) rotate(90) scale(.08 -.08)">
<use xlink:href="#l"/>
<use x="60.818359" xlink:href="#d"/>
<use x="122.341797" xlink:href="#g"/>
<use x="163.439453" xlink:href="#j"/>
<use x="260.851562" xlink:href="#i"/>
<use x="288.634766" xlink:href="#h"/>
<use x="352.013672" xlink:href="#f"/>
<use x="413.292969" xlink:href="#k"/>
</g>
</g>
<path d="m1276.7 766.91v35.285q0 2.4 2.4 2.4h7.7425q2.4 0 2.4-2.4v-35.285q0-2.4-2.4-2.4h-7.7425q-2.4 0-2.4 2.4z" clip-path="url(#a)" fill="#fff" stroke="#fff"/>
<g clip-path="url(#a)">
<g transform="translate(1280.8 766.91) rotate(90) scale(.08 -.08)">
<use xlink:href="#l"/>
<use x="60.818359" xlink:href="#d"/>
<use x="122.341797" xlink:href="#g"/>
<use x="163.439453" xlink:href="#j"/>
<use x="260.851562" xlink:href="#i"/>
<use x="288.634766" xlink:href="#h"/>
<use x="352.013672" xlink:href="#f"/>
<use x="413.292969" xlink:href="#k"/>
</g>
</g>
<path d="m1362.8 623.85 1.3205-4.8795q0.62694-2.3167-1.6897-2.9436l-7.4737-2.0225q-2.3167-0.62694-2.9436 1.6897l-1.3205 4.8795q-0.62694 2.3167 1.6897 2.9436l7.4737 2.0225q2.3167 0.62694 2.9436-1.6897z" clip-path="url(#a)" fill="#fff" stroke="#fff"/>
<g clip-path="url(#a)">
<g transform="translate(1358.9 622.79) rotate(-74.857) scale(.08 -.08)">
<use xlink:href="#s"/>
</g>
</g>
<path d="m1385.9 622.98 0.37708-5.5735q0.162-2.3945-2.2325-2.5565l-7.7248-0.52263q-2.3945-0.162-2.5565 2.2325l-0.37708 5.5735q-0.162 2.3945 2.2325 2.5565l7.7248 0.52263q2.3945 0.162 2.5565-2.2325z" clip-path="url(#a)" fill="#fff" stroke="#fff"/>
<g clip-path="url(#a)">
<g transform="translate(1381.8 622.71) rotate(-86.13) scale(.08 -.08)">
<use xlink:href="#v"/>
</g>
</g>
<path d="m1417.9 566.5 2.8192 4.1958q1.3385 1.9921 3.3306 0.65357l6.4265-4.3181q1.9921-1.3385 0.65357-3.3306l-2.8192-4.1958q-1.3385-1.9921-3.3306-0.65357l-6.4265 4.3181q-1.9921 1.3385-0.65357 3.3306z" clip-path="url(#a)" fill="#fff" stroke="#fff"/>
<g clip-path="url(#a)">
<g transform="translate(1421.3 564.23) rotate(56.102) scale(.08 -.08)">
<use xlink:href="#s"/>
</g>
</g>
<path d="m1321.4 766.91v35.285q0 2.4 2.4 2.4h7.7425q2.4 0 2.4-2.4v-35.285q0-2.4-2.4-2.4h-7.7425q-2.4 0-2.4 2.4z" clip-path="url(#a)" fill="#fff" stroke="#fff"/>
<g clip-path="url(#a)">
<g transform="translate(1325.4 766.91) rotate(90) scale(.08 -.08)">
<use xlink:href="#l"/>
<use x="60.818359" xlink:href="#d"/>
<use x="122.341797" xlink:href="#g"/>
<use x="163.439453" xlink:href="#j"/>
<use x="260.851562" xlink:href="#i"/>
<use x="288.634766" xlink:href="#h"/>
<use x="352.013672" xlink:href="#f"/>
<use x="413.292969" xlink:href="#k"/>
</g>
</g>
<path d="m1366.1 766.91v35.285q0 2.4 2.4 2.4h7.7425q2.4 0 2.4-2.4v-35.285q0-2.4-2.4-2.4h-7.7425q-2.4 0-2.4 2.4z" clip-path="url(#a)" fill="#fff" stroke="#fff"/>
<g clip-path="url(#a)">
<g transform="translate(1370.1 766.91) rotate(90) scale(.08 -.08)">
<use xlink:href="#l"/>
<use x="60.818359" xlink:href="#d"/>
<use x="122.341797" xlink:href="#g"/>
<use x="163.439453" xlink:href="#j"/>
<use x="260.851562" xlink:href="#i"/>
<use x="288.634766" xlink:href="#h"/>
<use x="352.013672" xlink:href="#f"/>
<use x="413.292969" xlink:href="#k"/>
</g>
</g>
<path d="m1444.2 680.15 2.1033-5.1455q0.90808-2.2216-1.3135-3.1297l-7.1669-2.9295q-2.2216-0.90808-3.1297 1.3135l-2.1033 5.1455q-0.90808 2.2216 1.3135 3.1297l7.1669 2.9295q2.2216 0.90808 3.1297-1.3135z" clip-path="url(#a)" fill="#fff" stroke="#fff"/>
<g clip-path="url(#a)">
<defs>
<path id="ab" d="m44.391 34.188q3.1719-1.0781 6.1719-4.5938t6.0312-9.6719l10.016-19.922h-10.609l-9.3125 18.703q-3.625 7.3281-7.0156 9.7188t-9.25 2.3906h-10.75v-30.812h-9.8594v72.906h22.266q12.5 0 18.656-5.2344 6.1562-5.2188 6.1562-15.766 0-6.8906-3.2031-11.438-3.2031-4.5312-9.2969-6.2812zm-24.719 30.609v-25.875h12.406q7.125 0 10.766 3.2969t3.6406 9.6875-3.6406 9.6406-10.766 3.25z"/>
</defs>
<g transform="translate(1440.4 678.61) rotate(-67.767) scale(.08 -.08)">
<use xlink:href="#ab"/>
</g>
</g>
<path d="m1455.5 672.41v5.5862q0 2.4 2.4 2.4h7.7425q2.4 0 2.4-2.4v-5.5862q0-2.4-2.4-2.4h-7.7425q-2.4 0-2.4 2.4z" clip-path="url(#a)" fill="#fff" stroke="#fff"/>
<g clip-path="url(#a)">
<g transform="translate(1459.5 672.41) rotate(90) scale(.08 -.08)">
<use xlink:href="#v"/>
</g>
</g>
<path d="m1477.2 674.87 2.2153 5.4197q0.90808 2.2216 3.1297 1.3135l7.1669-2.9295q2.2216-0.90808 1.3135-3.1297l-2.2153-5.4197q-0.90808-2.2216-3.1297-1.3135l-7.1669 2.9295q-2.2216 0.90808-1.3135 3.1297z" clip-path="url(#a)" fill="#fff" stroke="#fff"/>
<g clip-path="url(#a)">
<g transform="translate(1480.9 673.33) rotate(67.767) scale(.08 -.08)">
<use xlink:href="#ar"/>
</g>
</g>
<path d="m1410.8 766.91v35.285q0 2.4 2.4 2.4h7.7425q2.4 0 2.4-2.4v-35.285q0-2.4-2.4-2.4h-7.7425q-2.4 0-2.4 2.4z" clip-path="url(#a)" fill="#fff" stroke="#fff"/>
<g clip-path="url(#a)">
<g transform="translate(1414.8 766.91) rotate(90) scale(.08 -.08)">
<use xlink:href="#l"/>
<use x="60.818359" xlink:href="#d"/>
<use x="122.341797" xlink:href="#g"/>
<use x="163.439453" xlink:href="#j"/>
<use x="260.851562" xlink:href="#i"/>
<use x="288.634766" xlink:href="#h"/>
<use x="352.013672" xlink:href="#f"/>
<use x="413.292969" xlink:href="#k"/>
</g>
</g>
<path d="m1455.5 766.91v35.285q0 2.4 2.4 2.4h7.7425q2.4 0 2.4-2.4v-35.285q0-2.4-2.4-2.4h-7.7425q-2.4 0-2.4 2.4z" clip-path="url(#a)" fill="#fff" stroke="#fff"/>
<g clip-path="url(#a)">
<g transform="translate(1459.5 766.91) rotate(90) scale(.08 -.08)">
<use xlink:href="#l"/>
<use x="60.818359" xlink:href="#d"/>
<use x="122.341797" xlink:href="#g"/>
<use x="163.439453" xlink:href="#j"/>
<use x="260.851562" xlink:href="#i"/>
<use x="288.634766" xlink:href="#h"/>
<use x="352.013672" xlink:href="#f"/>
<use x="413.292969" xlink:href="#k"/>
</g>
</g>
<path d="m829.73 766.91v35.285q0 2.4 2.4 2.4h7.7425q2.4 0 2.4-2.4v-35.285q0-2.4-2.4-2.4h-7.7425q-2.4 0-2.4 2.4z" clip-path="url(#a)" fill="#fff" stroke="#fff"/>
<g clip-path="url(#a)">
<g transform="translate(833.79 766.91) rotate(90) scale(.08 -.08)">
<use xlink:href="#l"/>
<use x="60.818359" xlink:href="#d"/>
<use x="122.341797" xlink:href="#g"/>
<use x="163.439453" xlink:href="#j"/>
<use x="260.851562" xlink:href="#i"/>
<use x="288.634766" xlink:href="#h"/>
<use x="352.013672" xlink:href="#f"/>
<use x="413.292969" xlink:href="#k"/>
</g>
</g>
<path d="m874.42 766.91v35.285q0 2.4 2.4 2.4h7.7425q2.4 0 2.4-2.4v-35.285q0-2.4-2.4-2.4h-7.7425q-2.4 0-2.4 2.4z" clip-path="url(#a)" fill="#fff" stroke="#fff"/>
<g clip-path="url(#a)">
<g transform="translate(878.49 766.91) rotate(90) scale(.08 -.08)">
<use xlink:href="#l"/>
<use x="60.818359" xlink:href="#d"/>
<use x="122.341797" xlink:href="#g"/>
<use x="163.439453" xlink:href="#j"/>
<use x="260.851562" xlink:href="#i"/>
<use x="288.634766" xlink:href="#h"/>
<use x="352.013672" xlink:href="#f"/>
<use x="413.292969" xlink:href="#k"/>
</g>
</g>
<path d="m919.12 766.91v35.285q0 2.4 2.4 2.4h7.7425q2.4 0 2.4-2.4v-35.285q0-2.4-2.4-2.4h-7.7425q-2.4 0-2.4 2.4z" clip-path="url(#a)" fill="#fff" stroke="#fff"/>
<g clip-path="url(#a)">
<g transform="translate(923.18 766.91) rotate(90) scale(.08 -.08)">
<use xlink:href="#l"/>
<use x="60.818359" xlink:href="#d"/>
<use x="122.341797" xlink:href="#g"/>
<use x="163.439453" xlink:href="#j"/>
<use x="260.851562" xlink:href="#i"/>
<use x="288.634766" xlink:href="#h"/>
<use x="352.013672" xlink:href="#f"/>
<use x="413.292969" xlink:href="#k"/>
</g>
</g>
<path d="m1019.5 624.71 2.0908-5.1506q0.9027-2.2238-1.3211-3.1265l-7.174-2.9122q-2.2238-0.9027-3.1265 1.3211l-2.0908 5.1506q-0.9027 2.2238 1.3211 3.1265l7.174 2.9122q2.2238 0.9027 3.1265-1.3211z" clip-path="url(#a)" fill="#fff" stroke="#fff"/>
<g clip-path="url(#a)">
<g transform="translate(1015.8 623.18) rotate(-67.906) scale(.08 -.08)">
<use xlink:href="#ab"/>
</g>
</g>
<path d="m1053.2 562.57v5.055q0 2.4 2.4 2.4h7.7425q2.4 0 2.4-2.4v-5.055q0-2.4-2.4-2.4h-7.7425q-2.4 0-2.4 2.4z" clip-path="url(#a)" fill="#fff" stroke="#fff"/>
<g clip-path="url(#a)">
<g transform="translate(1057.3 562.57) rotate(90) scale(.08 -.08)">
<use xlink:href="#s"/>
</g>
</g>
<path d="m1097.3 619.54 2.1011 5.176q0.9027 2.2238 3.1265 1.3211l7.174-2.9122q2.2238-0.9027 1.3211-3.1265l-2.1011-5.176q-0.9027-2.2238-3.1265-1.3211l-7.174 2.9122q-2.2238 0.9027-1.3211 3.1265z" clip-path="url(#a)" fill="#fff" stroke="#fff"/>
<g clip-path="url(#a)">
<g transform="translate(1101.1 618.01) rotate(67.906) scale(.08 -.08)">
<use xlink:href="#v"/>
</g>
</g>
<path d="m963.82 766.91v35.285q0 2.4 2.4 2.4h7.7425q2.4 0 2.4-2.4v-35.285q0-2.4-2.4-2.4h-7.7425q-2.4 0-2.4 2.4z" clip-path="url(#a)" fill="#fff" stroke="#fff"/>
<g clip-path="url(#a)">
<g transform="translate(967.88 766.91) rotate(90) scale(.08 -.08)">
<use xlink:href="#l"/>
<use x="60.818359" xlink:href="#d"/>
<use x="122.341797" xlink:href="#g"/>
<use x="163.439453" xlink:href="#j"/>
<use x="260.851562" xlink:href="#i"/>
<use x="288.634766" xlink:href="#h"/>
<use x="352.013672" xlink:href="#f"/>
<use x="413.292969" xlink:href="#k"/>
</g>
</g>
<path d="m1042 679.92 1.9127-4.6792q0.90808-2.2216-1.3135-3.1297l-7.1669-2.9295q-2.2216-0.90808-3.1297 1.3135l-1.9127 4.6792q-0.90808 2.2216 1.3135 3.1297l7.1669 2.9295q2.2216 0.90808 3.1297-1.3135z" clip-path="url(#a)" fill="#fff" stroke="#fff"/>
<g clip-path="url(#a)">
<g transform="translate(1038.2 678.38) rotate(-67.767) scale(.08 -.08)">
<use xlink:href="#s"/>
</g>
</g>
<path d="m1053.2 672.41v5.5862q0 2.4 2.4 2.4h7.7425q2.4 0 2.4-2.4v-5.5862q0-2.4-2.4-2.4h-7.7425q-2.4 0-2.4 2.4z" clip-path="url(#a)" fill="#fff" stroke="#fff"/>
<g clip-path="url(#a)">
<g transform="translate(1057.3 672.41) rotate(90) scale(.08 -.08)">
<use xlink:href="#v"/>
</g>
</g>
<path d="m1075 675.01 2.1033 5.1455q0.90808 2.2216 3.1297 1.3135l7.1669-2.9295q2.2216-0.90808 1.3135-3.1297l-2.1033-5.1455q-0.90808-2.2216-3.1297-1.3135l-7.1669 2.9295q-2.2216 0.90808-1.3135 3.1297z" clip-path="url(#a)" fill="#fff" stroke="#fff"/>
<g clip-path="url(#a)">
<g transform="translate(1078.7 673.47) rotate(67.767) scale(.08 -.08)">
<use xlink:href="#ab"/>
</g>
</g>
<path d="m1142.6 766.91v35.285q0 2.4 2.4 2.4h7.7425q2.4 0 2.4-2.4v-35.285q0-2.4-2.4-2.4h-7.7425q-2.4 0-2.4 2.4z" clip-path="url(#a)" fill="#fff" stroke="#fff"/>
<g clip-path="url(#a)">
<g transform="translate(1146.7 766.91) rotate(90) scale(.08 -.08)">
<use xlink:href="#l"/>
<use x="60.818359" xlink:href="#d"/>
<use x="122.341797" xlink:href="#g"/>
<use x="163.439453" xlink:href="#j"/>
<use x="260.851562" xlink:href="#i"/>
<use x="288.634766" xlink:href="#h"/>
<use x="352.013672" xlink:href="#f"/>
<use x="413.292969" xlink:href="#k"/>
</g>
</g>
<path d="m1008.5 766.91v35.285q0 2.4 2.4 2.4h7.7425q2.4 0 2.4-2.4v-35.285q0-2.4-2.4-2.4h-7.7425q-2.4 0-2.4 2.4z" clip-path="url(#a)" fill="#fff" stroke="#fff"/>
<g clip-path="url(#a)">
<g transform="translate(1012.6 766.91) rotate(90) scale(.08 -.08)">
<use xlink:href="#l"/>
<use x="60.818359" xlink:href="#d"/>
<use x="122.341797" xlink:href="#g"/>
<use x="163.439453" xlink:href="#j"/>
<use x="260.851562" xlink:href="#i"/>
<use x="288.634766" xlink:href="#h"/>
<use x="352.013672" xlink:href="#f"/>
<use x="413.292969" xlink:href="#k"/>
</g>
</g>
<path d="m1053.2 766.91v35.285q0 2.4 2.4 2.4h7.7425q2.4 0 2.4-2.4v-35.285q0-2.4-2.4-2.4h-7.7425q-2.4 0-2.4 2.4z" clip-path="url(#a)" fill="#fff" stroke="#fff"/>
<g clip-path="url(#a)">
<g transform="translate(1057.3 766.91) rotate(90) scale(.08 -.08)">
<use xlink:href="#l"/>
<use x="60.818359" xlink:href="#d"/>
<use x="122.341797" xlink:href="#g"/>
<use x="163.439453" xlink:href="#j"/>
<use x="260.851562" xlink:href="#i"/>
<use x="288.634766" xlink:href="#h"/>
<use x="352.013672" xlink:href="#f"/>
<use x="413.292969" xlink:href="#k"/>
</g>
</g>
<path d="m1097.9 766.91v35.285q0 2.4 2.4 2.4h7.7425q2.4 0 2.4-2.4v-35.285q0-2.4-2.4-2.4h-7.7425q-2.4 0-2.4 2.4z" clip-path="url(#a)" fill="#fff" stroke="#fff"/>
<g clip-path="url(#a)">
<g transform="translate(1102 766.91) rotate(90) scale(.08 -.08)">
<use xlink:href="#l"/>
<use x="60.818359" xlink:href="#d"/>
<use x="122.341797" xlink:href="#g"/>
<use x="163.439453" xlink:href="#j"/>
<use x="260.851562" xlink:href="#i"/>
<use x="288.634766" xlink:href="#h"/>
<use x="352.013672" xlink:href="#f"/>
<use x="413.292969" xlink:href="#k"/>
</g>
</g>
<path d="m382.77 766.91v35.285q0 2.4 2.4 2.4h7.7425q2.4 0 2.4-2.4v-35.285q0-2.4-2.4-2.4h-7.7425q-2.4 0-2.4 2.4z" clip-path="url(#a)" fill="#fff" stroke="#fff"/>
<g clip-path="url(#a)">
<g transform="translate(386.83 766.91) rotate(90) scale(.08 -.08)">
<use xlink:href="#l"/>
<use x="60.818359" xlink:href="#d"/>
<use x="122.341797" xlink:href="#g"/>
<use x="163.439453" xlink:href="#j"/>
<use x="260.851562" xlink:href="#i"/>
<use x="288.634766" xlink:href="#h"/>
<use x="352.013672" xlink:href="#f"/>
<use x="413.292969" xlink:href="#k"/>
</g>
</g>
<path d="m427.46 766.91v35.285q0 2.4 2.4 2.4h7.7425q2.4 0 2.4-2.4v-35.285q0-2.4-2.4-2.4h-7.7425q-2.4 0-2.4 2.4z" clip-path="url(#a)" fill="#fff" stroke="#fff"/>
<g clip-path="url(#a)">
<g transform="translate(431.53 766.91) rotate(90) scale(.08 -.08)">
<use xlink:href="#l"/>
<use x="60.818359" xlink:href="#d"/>
<use x="122.341797" xlink:href="#g"/>
<use x="163.439453" xlink:href="#j"/>
<use x="260.851562" xlink:href="#i"/>
<use x="288.634766" xlink:href="#h"/>
<use x="352.013672" xlink:href="#f"/>
<use x="413.292969" xlink:href="#k"/>
</g>
</g>
<path d="m472.16 766.91v35.285q0 2.4 2.4 2.4h7.7425q2.4 0 2.4-2.4v-35.285q0-2.4-2.4-2.4h-7.7425q-2.4 0-2.4 2.4z" clip-path="url(#a)" fill="#fff" stroke="#fff"/>
<g clip-path="url(#a)">
<g transform="translate(476.22 766.91) rotate(90) scale(.08 -.08)">
<use xlink:href="#l"/>
<use x="60.818359" xlink:href="#d"/>
<use x="122.341797" xlink:href="#g"/>
<use x="163.439453" xlink:href="#j"/>
<use x="260.851562" xlink:href="#i"/>
<use x="288.634766" xlink:href="#h"/>
<use x="352.013672" xlink:href="#f"/>
<use x="413.292969" xlink:href="#k"/>
</g>
</g>
<path d="m550.32 679.92 1.9127-4.6792q0.90808-2.2216-1.3135-3.1297l-7.1669-2.9295q-2.2216-0.90808-3.1297 1.3135l-1.9127 4.6792q-0.90808 2.2216 1.3135 3.1297l7.1669 2.9295q2.2216 0.90808 3.1297-1.3135z" clip-path="url(#a)" fill="#fff" stroke="#fff"/>
<g clip-path="url(#a)">
<g transform="translate(546.56 678.38) rotate(-67.767) scale(.08 -.08)">
<use xlink:href="#s"/>
</g>
</g>
<path d="m561.55 672.68v5.055q0 2.4 2.4 2.4h7.7425q2.4 0 2.4-2.4v-5.055q0-2.4-2.4-2.4h-7.7425q-2.4 0-2.4 2.4z" clip-path="url(#a)" fill="#fff" stroke="#fff"/>
<g clip-path="url(#a)">
<g transform="translate(565.62 672.68) rotate(90) scale(.08 -.08)">
<use xlink:href="#s"/>
</g>
</g>
<path d="m583.31 674.99 2.1137 5.1709q0.90808 2.2216 3.1297 1.3135l7.1669-2.9295q2.2216-0.90808 1.3135-3.1297l-2.1137-5.1709q-0.90808-2.2216-3.1297-1.3135l-7.1669 2.9295q-2.2216 0.90808-1.3135 3.1297z" clip-path="url(#a)" fill="#fff" stroke="#fff"/>
<g clip-path="url(#a)">
<g transform="translate(587.07 673.46) rotate(67.767) scale(.08 -.08)">
<use xlink:href="#v"/>
</g>
</g>
<path d="m684.32 680.15 2.1033-5.1455q0.90808-2.2216-1.3135-3.1297l-7.1669-2.9295q-2.2216-0.90808-3.1297 1.3135l-2.1033 5.1455q-0.90808 2.2216 1.3135 3.1297l7.1669 2.9295q2.2216 0.90808 3.1297-1.3135z" clip-path="url(#a)" fill="#fff" stroke="#fff"/>
<g clip-path="url(#a)">
<g transform="translate(680.56 678.61) rotate(-67.767) scale(.08 -.08)">
<use xlink:href="#ab"/>
</g>
</g>
<path d="m695.64 672.68v5.055q0 2.4 2.4 2.4h7.7425q2.4 0 2.4-2.4v-5.055q0-2.4-2.4-2.4h-7.7425q-2.4 0-2.4 2.4z" clip-path="url(#a)" fill="#fff" stroke="#fff"/>
<g clip-path="url(#a)">
<g transform="translate(699.7 672.68) rotate(90) scale(.08 -.08)">
<use xlink:href="#s"/>
</g>
</g>
<path d="m717.4 674.99 2.1137 5.1709q0.90808 2.2216 3.1297 1.3135l7.1669-2.9295q2.2216-0.90808 1.3135-3.1297l-2.1137-5.1709q-0.90808-2.2216-3.1297-1.3135l-7.1669 2.9295q-2.2216 0.90808-1.3135 3.1297z" clip-path="url(#a)" fill="#fff" stroke="#fff"/>
<g clip-path="url(#a)">
<g transform="translate(721.16 673.46) rotate(67.767) scale(.08 -.08)">
<use xlink:href="#v"/>
</g>
</g>
<path d="m650.94 766.91v35.285q0 2.4 2.4 2.4h7.7425q2.4 0 2.4-2.4v-35.285q0-2.4-2.4-2.4h-7.7425q-2.4 0-2.4 2.4z" clip-path="url(#a)" fill="#fff" stroke="#fff"/>
<g clip-path="url(#a)">
<g transform="translate(655.01 766.91) rotate(90) scale(.08 -.08)">
<use xlink:href="#l"/>
<use x="60.818359" xlink:href="#d"/>
<use x="122.341797" xlink:href="#g"/>
<use x="163.439453" xlink:href="#j"/>
<use x="260.851562" xlink:href="#i"/>
<use x="288.634766" xlink:href="#h"/>
<use x="352.013672" xlink:href="#f"/>
<use x="413.292969" xlink:href="#k"/>
</g>
</g>
<path d="m695.64 766.91v35.285q0 2.4 2.4 2.4h7.7425q2.4 0 2.4-2.4v-35.285q0-2.4-2.4-2.4h-7.7425q-2.4 0-2.4 2.4z" clip-path="url(#a)" fill="#fff" stroke="#fff"/>
<g clip-path="url(#a)">
<g transform="translate(699.7 766.91) rotate(90) scale(.08 -.08)">
<use xlink:href="#l"/>
<use x="60.818359" xlink:href="#d"/>
<use x="122.341797" xlink:href="#g"/>
<use x="163.439453" xlink:href="#j"/>
<use x="260.851562" xlink:href="#i"/>
<use x="288.634766" xlink:href="#h"/>
<use x="352.013672" xlink:href="#f"/>
<use x="413.292969" xlink:href="#k"/>
</g>
</g>
<path d="m740.34 766.91v35.285q0 2.4 2.4 2.4h7.7425q2.4 0 2.4-2.4v-35.285q0-2.4-2.4-2.4h-7.7425q-2.4 0-2.4 2.4z" clip-path="url(#a)" fill="#fff" stroke="#fff"/>
<g clip-path="url(#a)">
<g transform="translate(744.4 766.91) rotate(90) scale(.08 -.08)">
<use xlink:href="#l"/>
<use x="60.818359" xlink:href="#d"/>
<use x="122.341797" xlink:href="#g"/>
<use x="163.439453" xlink:href="#j"/>
<use x="260.851562" xlink:href="#i"/>
<use x="288.634766" xlink:href="#h"/>
<use x="352.013672" xlink:href="#f"/>
<use x="413.292969" xlink:href="#k"/>
</g>
</g>
<path d="m516.86 766.91v35.285q0 2.4 2.4 2.4h7.7425q2.4 0 2.4-2.4v-35.285q0-2.4-2.4-2.4h-7.7425q-2.4 0-2.4 2.4z" clip-path="url(#a)" fill="#fff" stroke="#fff"/>
<g clip-path="url(#a)">
<g transform="translate(520.92 766.91) rotate(90) scale(.08 -.08)">
<use xlink:href="#l"/>
<use x="60.818359" xlink:href="#d"/>
<use x="122.341797" xlink:href="#g"/>
<use x="163.439453" xlink:href="#j"/>
<use x="260.851562" xlink:href="#i"/>
<use x="288.634766" xlink:href="#h"/>
<use x="352.013672" xlink:href="#f"/>
<use x="413.292969" xlink:href="#k"/>
</g>
</g>
<path d="m561.55 766.91v35.285q0 2.4 2.4 2.4h7.7425q2.4 0 2.4-2.4v-35.285q0-2.4-2.4-2.4h-7.7425q-2.4 0-2.4 2.4z" clip-path="url(#a)" fill="#fff" stroke="#fff"/>
<g clip-path="url(#a)">
<g transform="translate(565.62 766.91) rotate(90) scale(.08 -.08)">
<use xlink:href="#l"/>
<use x="60.818359" xlink:href="#d"/>
<use x="122.341797" xlink:href="#g"/>
<use x="163.439453" xlink:href="#j"/>
<use x="260.851562" xlink:href="#i"/>
<use x="288.634766" xlink:href="#h"/>
<use x="352.013672" xlink:href="#f"/>
<use x="413.292969" xlink:href="#k"/>
</g>
</g>
<path d="m606.25 766.91v35.285q0 2.4 2.4 2.4h7.7425q2.4 0 2.4-2.4v-35.285q0-2.4-2.4-2.4h-7.7425q-2.4 0-2.4 2.4z" clip-path="url(#a)" fill="#fff" stroke="#fff"/>
<g clip-path="url(#a)">
<g transform="translate(610.31 766.91) rotate(90) scale(.08 -.08)">
<use xlink:href="#l"/>
<use x="60.818359" xlink:href="#d"/>
<use x="122.341797" xlink:href="#g"/>
<use x="163.439453" xlink:href="#j"/>
<use x="260.851562" xlink:href="#i"/>
<use x="288.634766" xlink:href="#h"/>
<use x="352.013672" xlink:href="#f"/>
<use x="413.292969" xlink:href="#k"/>
</g>
</g>
<path d="m114.59 766.91v35.285q0 2.4 2.4 2.4h7.7425q2.4 0 2.4-2.4v-35.285q0-2.4-2.4-2.4h-7.7425q-2.4 0-2.4 2.4z" clip-path="url(#a)" fill="#fff" stroke="#fff"/>
<g clip-path="url(#a)">
<g transform="translate(118.66 766.91) rotate(90) scale(.08 -.08)">
<use xlink:href="#l"/>
<use x="60.818359" xlink:href="#d"/>
<use x="122.341797" xlink:href="#g"/>
<use x="163.439453" xlink:href="#j"/>
<use x="260.851562" xlink:href="#i"/>
<use x="288.634766" xlink:href="#h"/>
<use x="352.013672" xlink:href="#f"/>
<use x="413.292969" xlink:href="#k"/>
</g>
</g>
<path d="m159.29 766.91v35.285q0 2.4 2.4 2.4h7.7425q2.4 0 2.4-2.4v-35.285q0-2.4-2.4-2.4h-7.7425q-2.4 0-2.4 2.4z" clip-path="url(#a)" fill="#fff" stroke="#fff"/>
<g clip-path="url(#a)">
<g transform="translate(163.35 766.91) rotate(90) scale(.08 -.08)">
<use xlink:href="#l"/>
<use x="60.818359" xlink:href="#d"/>
<use x="122.341797" xlink:href="#g"/>
<use x="163.439453" xlink:href="#j"/>
<use x="260.851562" xlink:href="#i"/>
<use x="288.634766" xlink:href="#h"/>
<use x="352.013672" xlink:href="#f"/>
<use x="413.292969" xlink:href="#k"/>
</g>
</g>
<path d="m203.98 766.91v35.285q0 2.4 2.4 2.4h7.7425q2.4 0 2.4-2.4v-35.285q0-2.4-2.4-2.4h-7.7425q-2.4 0-2.4 2.4z" clip-path="url(#a)" fill="#fff" stroke="#fff"/>
<g clip-path="url(#a)">
<g transform="translate(208.05 766.91) rotate(90) scale(.08 -.08)">
<use xlink:href="#l"/>
<use x="60.818359" xlink:href="#d"/>
<use x="122.341797" xlink:href="#g"/>
<use x="163.439453" xlink:href="#j"/>
<use x="260.851562" xlink:href="#i"/>
<use x="288.634766" xlink:href="#h"/>
<use x="352.013672" xlink:href="#f"/>
<use x="413.292969" xlink:href="#k"/>
</g>
</g>
<path d="m248.68 766.91v35.285q0 2.4 2.4 2.4h7.7425q2.4 0 2.4-2.4v-35.285q0-2.4-2.4-2.4h-7.7425q-2.4 0-2.4 2.4z" clip-path="url(#a)" fill="#fff" stroke="#fff"/>
<g clip-path="url(#a)">
<g transform="translate(252.74 766.91) rotate(90) scale(.08 -.08)">
<use xlink:href="#l"/>
<use x="60.818359" xlink:href="#d"/>
<use x="122.341797" xlink:href="#g"/>
<use x="163.439453" xlink:href="#j"/>
<use x="260.851562" xlink:href="#i"/>
<use x="288.634766" xlink:href="#h"/>
<use x="352.013672" xlink:href="#f"/>
<use x="413.292969" xlink:href="#k"/>
</g>
</g>
<path d="m518.94 453.76 5.1896-8.567q1.2435-2.0527-0.80924-3.2962l-6.6222-4.0116q-2.0527-1.2435-3.2962 0.80924l-5.1896 8.567q-1.2435 2.0527 0.80924 3.2962l6.6222 4.0116q2.0527 1.2435 3.2962-0.80924z" clip-path="url(#a)" fill="#fff" stroke="#fff"/>
<g clip-path="url(#a)">
<g transform="translate(515.47 451.65) rotate(-58.794) scale(.08 -.08)">
<use xlink:href="#p"/>
<use x="55.712891" xlink:href="#ab"/>
</g>
</g>
<path d="m604.48 343.36 4.4475-8.8811q1.0746-2.146-1.0713-3.2206l-6.923-3.4668q-2.146-1.0746-3.2206 1.0713l-4.4475 8.8811q-1.0746 2.146 1.0713 3.2206l6.923 3.4668q2.146 1.0746 3.2206-1.0713z" clip-path="url(#a)" fill="#fff" stroke="#fff"/>
<g clip-path="url(#a)">
<g transform="translate(600.85 341.55) rotate(-63.399) scale(.08 -.08)">
<use xlink:href="#p"/>
<use x="55.744141" xlink:href="#q"/>
</g>
</g>
<path d="m940.51 226.83 9.6818 2.2174q2.3394 0.5358 2.8752-1.8036l1.7285-7.5471q0.5358-2.3394-1.8036-2.8752l-9.6818-2.2174q-2.3394-0.5358-2.8752 1.8036l-1.7285 7.5471q-0.5358 2.3394 1.8036 2.8752z" clip-path="url(#a)" fill="#fff" stroke="#fff"/>
<g clip-path="url(#a)">
<g transform="translate(941.41 222.87) rotate(12.9) scale(.08 -.08)">
<use xlink:href="#p"/>
<use x="55.744141" xlink:href="#q"/>
</g>
</g>
<path d="m689.5 397.39 1.47-9.8231q0.3552-2.3736-2.0184-2.7288l-7.6572-1.1459q-2.3736-0.3552-2.7288 2.0184l-1.47 9.8231q-0.3552 2.3736 2.0184 2.7288l7.6572 1.1459q2.3736 0.3552 2.7288-2.0184z" clip-path="url(#a)" fill="#fff" stroke="#fff"/>
<g clip-path="url(#a)">
<g transform="translate(685.48 396.79) rotate(-81.489) scale(.08 -.08)">
<use xlink:href="#p"/>
<use x="55.744141" xlink:href="#q"/>
</g>
</g>
<path d="m511.05 453.98 5.9475-8.0593q1.4251-1.9311-0.50603-3.3562l-6.2298-4.5974q-1.9311-1.4251-3.3562 0.50603l-5.9475 8.0593q-1.4251 1.9311 0.50603 3.3562l6.2298 4.5974q1.9311 1.4251 3.3562-0.50603z" clip-path="url(#a)" fill="#fff" stroke="#fff"/>
<g clip-path="url(#a)">
<g transform="translate(507.78 451.56) rotate(-53.574) scale(.08 -.08)">
<use xlink:href="#p"/>
<use x="55.712891" xlink:href="#ab"/>
</g>
</g>
<path d="m955.59 226.75 9.651 2.3478q2.332 0.56731 2.8993-1.7647l1.8302-7.5231q0.56731-2.332-1.7647-2.8993l-9.651-2.3478q-2.332-0.56731-2.8993 1.7647l-1.8302 7.5231q-0.56731 2.332 1.7647 2.8993z" clip-path="url(#a)" fill="#fff" stroke="#fff"/>
<g clip-path="url(#a)">
<g transform="translate(956.55 222.8) rotate(13.673) scale(.08 -.08)">
<use xlink:href="#p"/>
<use x="55.744141" xlink:href="#q"/>
</g>
</g>
<path d="m785.03 766.91v35.285q0 2.4 2.4 2.4h7.7425q2.4 0 2.4-2.4v-35.285q0-2.4-2.4-2.4h-7.7425q-2.4 0-2.4 2.4z" clip-path="url(#a)" fill="#fff" stroke="#fff"/>
<g clip-path="url(#a)">
<g transform="translate(789.1 766.91) rotate(90) scale(.08 -.08)">
<use xlink:href="#l"/>
<use x="60.818359" xlink:href="#d"/>
<use x="122.341797" xlink:href="#g"/>
<use x="163.439453" xlink:href="#j"/>
<use x="260.851562" xlink:href="#i"/>
<use x="288.634766" xlink:href="#h"/>
<use x="352.013672" xlink:href="#f"/>
<use x="413.292969" xlink:href="#k"/>
</g>
</g>
<path d="m1500.2 766.91v35.285q0 2.4 2.4 2.4h7.7425q2.4 0 2.4-2.4v-35.285q0-2.4-2.4-2.4h-7.7425q-2.4 0-2.4 2.4z" clip-path="url(#a)" fill="#fff" stroke="#fff"/>
<g clip-path="url(#a)">
<g transform="translate(1504.2 766.91) rotate(90) scale(.08 -.08)">
<use xlink:href="#l"/>
<use x="60.818359" xlink:href="#d"/>
<use x="122.341797" xlink:href="#g"/>
<use x="163.439453" xlink:href="#j"/>
<use x="260.851562" xlink:href="#i"/>
<use x="288.634766" xlink:href="#h"/>
<use x="352.013672" xlink:href="#f"/>
<use x="413.292969" xlink:href="#k"/>
</g>
</g>
<defs>
<path id="b" d="m0 8.6603c2.2967 0 4.4997-0.9125 6.1237-2.5365 1.624-1.624 2.5365-3.827 2.5365-6.1237s-0.9125-4.4997-2.5365-6.1237c-1.624-1.624-3.827-2.5365-6.1237-2.5365s-4.4997 0.9125-6.1237 2.5365c-1.624 1.624-2.5365 3.827-2.5365 6.1237s0.9125 4.4997 2.5365 6.1237c1.624 1.624 3.827 2.5365 6.1237 2.5365z"/>
</defs>
<g clip-path="url(#a)">
<use x="76.166685" y="839.225209" fill="#ffffff" stroke="#ffffff" xlink:href="#b"/>
</g>
<g clip-path="url(#a)">
<use x="120.862762" y="839.225209" fill="#ffffff" stroke="#ffffff" xlink:href="#b"/>
</g>
<g clip-path="url(#a)">
<use x="165.55884" y="839.225209" fill="#ffffff" stroke="#ffffff" xlink:href="#b"/>
</g>
<g clip-path="url(#a)">
<use x="210.254917" y="839.225209" fill="#ffffff" stroke="#ffffff" xlink:href="#b"/>
</g>
<g clip-path="url(#a)">
<use x="254.950994" y="839.225209" fill="#ffffff" stroke="#ffffff" xlink:href="#b"/>
</g>
<g clip-path="url(#a)">
<use x="299.647072" y="839.225209" fill="#ffffff" stroke="#ffffff" xlink:href="#b"/>
</g>
<g clip-path="url(#a)">
<use x="344.343149" y="839.225209" fill="#ffffff" stroke="#ffffff" xlink:href="#b"/>
</g>
<g clip-path="url(#a)">
<use x="389.039226" y="839.225209" fill="#ffffff" stroke="#ffffff" xlink:href="#b"/>
</g>
<g clip-path="url(#a)">
<use x="433.735304" y="839.225209" fill="#ffffff" stroke="#ffffff" xlink:href="#b"/>
</g>
<g clip-path="url(#a)">
<use x="478.431381" y="839.225209" fill="#ffffff" stroke="#ffffff" xlink:href="#b"/>
</g>
<g clip-path="url(#a)">
<use x="523.127458" y="839.225209" fill="#ffffff" stroke="#ffffff" xlink:href="#b"/>
</g>
<g clip-path="url(#a)">
<use x="567.823536" y="839.225209" fill="#ffffff" stroke="#ffffff" xlink:href="#b"/>
</g>
<g clip-path="url(#a)">
<use x="612.519613" y="839.225209" fill="#ffffff" stroke="#ffffff" xlink:href="#b"/>
</g>
<g clip-path="url(#a)">
<use x="657.215691" y="839.225209" fill="#ffffff" stroke="#ffffff" xlink:href="#b"/>
</g>
<g clip-path="url(#a)">
<use x="701.911768" y="839.225209" fill="#ffffff" stroke="#ffffff" xlink:href="#b"/>
</g>
<g clip-path="url(#a)">
<use x="746.607845" y="839.225209" fill="#ffffff" stroke="#ffffff" xlink:href="#b"/>
</g>
<g clip-path="url(#a)">
<use x="791.303923" y="839.225209" fill="#ffffff" stroke="#ffffff" xlink:href="#b"/>
</g>
<g clip-path="url(#a)">
<use x="836" y="839.225209" fill="#ffffff" stroke="#ffffff" xlink:href="#b"/>
</g>
<g clip-path="url(#a)">
<use x="880.696077" y="839.225209" fill="#ffffff" stroke="#ffffff" xlink:href="#b"/>
</g>
<g clip-path="url(#a)">
<use x="925.392155" y="839.225209" fill="#ffffff" stroke="#ffffff" xlink:href="#b"/>
</g>
<g clip-path="url(#a)">
<use x="970.088232" y="839.225209" fill="#ffffff" stroke="#ffffff" xlink:href="#b"/>
</g>
<g clip-path="url(#a)">
<use x="1014.784309" y="839.225209" fill="#ffffff" stroke="#ffffff" xlink:href="#b"/>
</g>
<g clip-path="url(#a)">
<use x="1059.480387" y="839.225209" fill="#ffffff" stroke="#ffffff" xlink:href="#b"/>
</g>
<g clip-path="url(#a)">
<use x="1104.176464" y="839.225209" fill="#ffffff" stroke="#ffffff" xlink:href="#b"/>
</g>
<g clip-path="url(#a)">
<use x="1148.872542" y="839.225209" fill="#ffffff" stroke="#ffffff" xlink:href="#b"/>
</g>
<g clip-path="url(#a)">
<use x="1193.568619" y="839.225209" fill="#ffffff" stroke="#ffffff" xlink:href="#b"/>
</g>
<g clip-path="url(#a)">
<use x="1238.264696" y="839.225209" fill="#ffffff" stroke="#ffffff" xlink:href="#b"/>
</g>
<g clip-path="url(#a)">
<use x="1282.960774" y="839.225209" fill="#ffffff" stroke="#ffffff" xlink:href="#b"/>
</g>
<g clip-path="url(#a)">
<use x="1327.656851" y="839.225209" fill="#ffffff" stroke="#ffffff" xlink:href="#b"/>
</g>
<g clip-path="url(#a)">
<use x="1372.352928" y="839.225209" fill="#ffffff" stroke="#ffffff" xlink:href="#b"/>
</g>
<g clip-path="url(#a)">
<use x="1417.049006" y="839.225209" fill="#ffffff" stroke="#ffffff" xlink:href="#b"/>
</g>
<g clip-path="url(#a)">
<use x="1461.745083" y="839.225209" fill="#ffffff" stroke="#ffffff" xlink:href="#b"/>
</g>
<g clip-path="url(#a)">
<use x="1506.44116" y="839.225209" fill="#ffffff" stroke="#ffffff" xlink:href="#b"/>
</g>
<g clip-path="url(#a)">
<use x="554.414713" y="40.774791" fill="#ffffff" stroke="#ffffff" xlink:href="#b"/>
</g>
<g clip-path="url(#a)">
<use x="554.414713" y="162.567198" fill="#ffffff" stroke="#ffffff" xlink:href="#b"/>
</g>
<g clip-path="url(#a)">
<use x="76.166685" y="729.878966" fill="#ffffff" stroke="#ffffff" xlink:href="#b"/>
</g>
<g clip-path="url(#a)">
<use x="649.766344" y="620.532723" fill="#ffffff" stroke="#ffffff" xlink:href="#b"/>
</g>
<g clip-path="url(#a)">
<use x="299.647072" y="729.878966" fill="#ffffff" stroke="#ffffff" xlink:href="#b"/>
</g>
<g clip-path="url(#a)">
<use x="344.343149" y="729.878966" fill="#ffffff" stroke="#ffffff" xlink:href="#b"/>
</g>
<g clip-path="url(#a)">
<use x="514.188243" y="509.665353" fill="#ffffff" stroke="#ffffff" xlink:href="#b"/>
</g>
<g clip-path="url(#a)">
<use x="1205.487573" y="281.086162" fill="#ffffff" stroke="#ffffff" xlink:href="#b"/>
</g>
<g clip-path="url(#a)">
<use x="925.392155" y="396.663148" fill="#ffffff" stroke="#ffffff" xlink:href="#b"/>
</g>
<g clip-path="url(#a)">
<use x="1193.568619" y="729.878966" fill="#ffffff" stroke="#ffffff" xlink:href="#b"/>
</g>
<g clip-path="url(#a)">
<use x="1238.264696" y="729.878966" fill="#ffffff" stroke="#ffffff" xlink:href="#b"/>
</g>
<g clip-path="url(#a)">
<use x="1282.960774" y="729.878966" fill="#ffffff" stroke="#ffffff" xlink:href="#b"/>
</g>
<g clip-path="url(#a)">
<use x="1387.251621" y="509.665353" fill="#ffffff" stroke="#ffffff" xlink:href="#b"/>
</g>
<g clip-path="url(#a)">
<use x="1327.656851" y="729.878966" fill="#ffffff" stroke="#ffffff" xlink:href="#b"/>
</g>
<g clip-path="url(#a)">
<use x="1372.352928" y="729.878966" fill="#ffffff" stroke="#ffffff" xlink:href="#b"/>
</g>
<g clip-path="url(#a)">
<use x="1461.745083" y="620.532723" fill="#ffffff" stroke="#ffffff" xlink:href="#b"/>
</g>
<g clip-path="url(#a)">
<use x="1417.049006" y="729.878966" fill="#ffffff" stroke="#ffffff" xlink:href="#b"/>
</g>
<g clip-path="url(#a)">
<use x="1461.745083" y="729.878966" fill="#ffffff" stroke="#ffffff" xlink:href="#b"/>
</g>
<g clip-path="url(#a)">
<use x="836" y="729.878966" fill="#ffffff" stroke="#ffffff" xlink:href="#b"/>
</g>
<g clip-path="url(#a)">
<use x="880.696077" y="729.878966" fill="#ffffff" stroke="#ffffff" xlink:href="#b"/>
</g>
<g clip-path="url(#a)">
<use x="925.392155" y="729.878966" fill="#ffffff" stroke="#ffffff" xlink:href="#b"/>
</g>
<g clip-path="url(#a)">
<use x="1059.480387" y="509.665353" fill="#ffffff" stroke="#ffffff" xlink:href="#b"/>
</g>
<g clip-path="url(#a)">
<use x="970.088232" y="729.878966" fill="#ffffff" stroke="#ffffff" xlink:href="#b"/>
</g>
<g clip-path="url(#a)">
<use x="1059.480387" y="620.532723" fill="#ffffff" stroke="#ffffff" xlink:href="#b"/>
</g>
<g clip-path="url(#a)">
<use x="1148.872542" y="729.878966" fill="#ffffff" stroke="#ffffff" xlink:href="#b"/>
</g>
<g clip-path="url(#a)">
<use x="1014.784309" y="729.878966" fill="#ffffff" stroke="#ffffff" xlink:href="#b"/>
</g>
<g clip-path="url(#a)">
<use x="1059.480387" y="729.878966" fill="#ffffff" stroke="#ffffff" xlink:href="#b"/>
</g>
<g clip-path="url(#a)">
<use x="1104.176464" y="729.878966" fill="#ffffff" stroke="#ffffff" xlink:href="#b"/>
</g>
<g clip-path="url(#a)">
<use x="389.039226" y="729.878966" fill="#ffffff" stroke="#ffffff" xlink:href="#b"/>
</g>
<g clip-path="url(#a)">
<use x="433.735304" y="729.878966" fill="#ffffff" stroke="#ffffff" xlink:href="#b"/>
</g>
<g clip-path="url(#a)">
<use x="478.431381" y="729.878966" fill="#ffffff" stroke="#ffffff" xlink:href="#b"/>
</g>
<g clip-path="url(#a)">
<use x="567.823536" y="620.532723" fill="#ffffff" stroke="#ffffff" xlink:href="#b"/>
</g>
<g clip-path="url(#a)">
<use x="701.911768" y="620.532723" fill="#ffffff" stroke="#ffffff" xlink:href="#b"/>
</g>
<g clip-path="url(#a)">
<use x="657.215691" y="729.878966" fill="#ffffff" stroke="#ffffff" xlink:href="#b"/>
</g>
<g clip-path="url(#a)">
<use x="701.911768" y="729.878966" fill="#ffffff" stroke="#ffffff" xlink:href="#b"/>
</g>
<g clip-path="url(#a)">
<use x="746.607845" y="729.878966" fill="#ffffff" stroke="#ffffff" xlink:href="#b"/>
</g>
<g clip-path="url(#a)">
<use x="523.127458" y="729.878966" fill="#ffffff" stroke="#ffffff" xlink:href="#b"/>
</g>
<g clip-path="url(#a)">
<use x="567.823536" y="729.878966" fill="#ffffff" stroke="#ffffff" xlink:href="#b"/>
</g>
<g clip-path="url(#a)">
<use x="612.519613" y="729.878966" fill="#ffffff" stroke="#ffffff" xlink:href="#b"/>
</g>
<g clip-path="url(#a)">
<use x="1595.833315" y="839.225209" fill="#ffffff" stroke="#ffffff" xlink:href="#b"/>
</g>
<g clip-path="url(#a)">
<use x="1551.137238" y="839.225209" fill="#ffffff" stroke="#ffffff" xlink:href="#b"/>
</g>
<g clip-path="url(#a)">
<use x="120.862762" y="729.878966" fill="#ffffff" stroke="#ffffff" xlink:href="#b"/>
</g>
<g clip-path="url(#a)">
<use x="165.55884" y="729.878966" fill="#ffffff" stroke="#ffffff" xlink:href="#b"/>
</g>
<g clip-path="url(#a)">
<use x="210.254917" y="729.878966" fill="#ffffff" stroke="#ffffff" xlink:href="#b"/>
</g>
<g clip-path="url(#a)">
<use x="254.950994" y="729.878966" fill="#ffffff" stroke="#ffffff" xlink:href="#b"/>
</g>
<g clip-path="url(#a)">
<use x="688.006322" y="162.567198" fill="#808080" stroke="#808080" xlink:href="#b"/>
</g>
<g clip-path="url(#a)">
<use x="718.30033" y="162.567198" fill="#808080" stroke="#808080" xlink:href="#b"/>
</g>
<g clip-path="url(#a)">
<use x="791.303923" y="729.878966" fill="#ffffff" stroke="#ffffff" xlink:href="#b"/>
</g>
<g clip-path="url(#a)">
<use x="1506.44116" y="729.878966" fill="#ffffff" stroke="#ffffff" xlink:href="#b"/>
</g>
<g clip-path="url(#a)">
<defs>
<path id="au" d="m3.3281 72.906h9.9531l15.328-61.625 15.281 61.625h11.094l15.328-61.625 15.281 61.625h10.016l-18.312-72.906h-12.406l-15.375 63.281-15.531-63.281h-12.406z"/>
<path id="y" d="m54.891 33.016v-33.016h-8.9844v32.719q0 7.7656-3.0312 11.609-3.0312 3.8594-9.0781 3.8594-7.2812 0-11.484-4.6406-4.2031-4.625-4.2031-12.641v-30.906h-9.0312v75.984h9.0312v-29.797q3.2344 4.9375 7.5938 7.375 4.375 2.4375 10.094 2.4375 9.4219 0 14.25-5.8281 4.8438-5.8281 4.8438-17.156z"/>
<path id="u" d="m48.781 52.594v-8.4062q-3.8125 2.1094-7.6406 3.1562t-7.7344 1.0469q-8.75 0-13.594-5.5469-4.8281-5.5312-4.8281-15.547t4.8281-15.562q4.8438-5.5312 13.594-5.5312 3.9062 0 7.7344 1.0469t7.6406 3.1562v-8.3125q-3.7656-1.75-7.7969-2.625-4.0156-0.89062-8.5625-0.89062-12.359 0-19.641 7.7656-7.2656 7.7656-7.2656 20.953 0 13.375 7.3438 21.031 7.3594 7.6719 20.156 7.6719 4.1406 0 8.0938-0.85938 3.9531-0.84375 7.6719-2.5469z"/>
</defs>
<g transform="translate(60.747 841.98) scale(.1 -.1)">
<use xlink:href="#au"/>
<use x="98.876953" xlink:href="#y"/>
<use x="162.255859" xlink:href="#i"/>
<use x="190.039062" xlink:href="#u"/>
<use x="245.019531" xlink:href="#y"/>
</g>
</g>
<g clip-path="url(#a)">
<defs>
<path id="x" d="m44.281 53.078v-8.5q-3.7969 1.9531-7.9062 2.9219-4.0938 0.98438-8.5 0.98438-6.6875 0-10.031-2.0469t-3.3438-6.1562q0-3.125 2.3906-4.9062t9.625-3.3906l3.0781-0.6875q9.5625-2.0469 13.594-5.7812t4.0312-10.422q0-7.625-6.0312-12.078-6.0312-4.4375-16.578-4.4375-4.3906 0-9.1562 0.85938t-10.031 2.5625v9.2812q4.9844-2.5938 9.8125-3.8906 4.8281-1.2812 9.5781-1.2812 6.3438 0 9.75 2.1719 3.4219 2.1719 3.4219 6.125 0 3.6562-2.4688 5.6094-2.4531 1.9531-10.812 3.7656l-3.125 0.73438q-8.3438 1.75-12.062 5.3906-3.7031 3.6406-3.7031 9.9844 0 7.7188 5.4688 11.906 5.4688 4.2031 15.531 4.2031 4.9688 0 9.3594-0.73438 4.4062-0.71875 8.1094-2.1875z"/>
</defs>
<g transform="translate(116.87 841.98) scale(.1 -.1)">
<use xlink:href="#i"/>
<use x="27.783203" xlink:href="#x"/>
</g>
</g>
<g clip-path="url(#a)">
<defs>
<path id="t" d="m18.312 70.219v-15.531h18.5v-6.9844h-18.5v-29.688q0-6.6875 1.8281-8.5938t7.4531-1.9062h9.2188v-7.5156h-9.2188q-10.406 0-14.359 3.875-3.9531 3.8906-3.9531 14.141v29.688h-6.5938v6.9844h6.5938v15.531z"/>
<path id="r" d="m30.609 48.391q-7.2188 0-11.422-5.6406t-4.2031-15.453 4.1719-15.453q4.1875-5.6406 11.453-5.6406 7.1875 0 11.375 5.6562 4.2031 5.6719 4.2031 15.438 0 9.7188-4.2031 15.406-4.1875 5.6875-11.375 5.6875zm0 7.6094q11.719 0 18.406-7.625 6.7031-7.6094 6.7031-21.078 0-13.422-6.7031-21.078-6.6875-7.6406-18.406-7.6406-11.766 0-18.438 7.6406-6.6562 7.6562-6.6562 21.078 0 13.469 6.6562 21.078 6.6719 7.625 18.438 7.625z"/>
<path id="w" d="m8.5 21.578v33.109h8.9844v-32.766q0-7.7656 3.0156-11.656 3.0312-3.875 9.0938-3.875 7.2656 0 11.484 4.6406 4.2344 4.6406 4.2344 12.656v31h8.9844v-54.688h-8.9844v8.4062q-3.2656-4.9844-7.5938-7.4062-4.3125-2.4219-10.031-2.4219-9.4219 0-14.312 5.8594-4.875 5.8594-4.875 17.141z"/>
</defs>
<g transform="translate(136.11 841.98) scale(.1 -.1)">
<use xlink:href="#t"/>
<use x="39.208984" xlink:href="#f"/>
<use x="100.488281" xlink:href="#h"/>
<use x="163.867188" xlink:href="#t"/>
<use x="203.076172" xlink:href="#f"/>
<use x="264.355469" xlink:href="#j"/>
<use x="361.767578" xlink:href="#r"/>
<use x="422.949219" xlink:href="#w"/>
<use x="486.328125" xlink:href="#h"/>
<use x="549.707031" xlink:href="#t"/>
</g>
</g>
<g clip-path="url(#a)">
<g transform="translate(205.24 841.98) scale(.1 -.1)">
<use xlink:href="#t"/>
<use x="39.208984" xlink:href="#r"/>
</g>
</g>
<g clip-path="url(#a)">
<defs>
<path id="aj" d="m32.172-5.0781q-3.7969-9.7656-7.4219-12.734-3.6094-2.9844-9.6562-2.9844h-7.1875v7.5156h5.2812q3.7031 0 5.75 1.7656 2.0625 1.75 4.5469 8.2969l1.6094 4.0938-22.109 53.812h9.5156l17.094-42.766 17.094 42.766h9.5156z"/>
<path id="ao" d="m45.406 27.984q0 9.7656-4.0312 15.125-4.0156 5.375-11.297 5.375-7.2188 0-11.25-5.375-4.0312-5.3594-4.0312-15.125 0-9.7188 4.0312-15.094t11.25-5.375q7.2812 0 11.297 5.375 4.0312 5.375 4.0312 15.094zm8.9844-21.203q0-13.953-6.2031-20.766-6.1875-6.8125-18.984-6.8125-4.7344 0-8.9375 0.70312t-8.1562 2.1719v8.7344q3.9531-2.1406 7.8125-3.1562 3.8594-1.0312 7.8594-1.0312 8.8438 0 13.234 4.6094t4.3906 13.938v4.4531q-2.7812-4.8438-7.125-7.2344t-10.406-2.3906q-10.047 0-16.203 7.6562-6.1562 7.6719-6.1562 20.328 0 12.688 6.1562 20.344 6.1562 7.6719 16.203 7.6719 6.0625 0 10.406-2.3906t7.125-7.2188v8.2969h8.9844z"/>
</defs>
<g transform="translate(238.59 841.98) scale(.1 -.1)">
<use xlink:href="#x"/>
<use x="52.099609" xlink:href="#f"/>
<use x="113.378906" xlink:href="#aj"/>
<use x="172.558594" xlink:href="#i"/>
<use x="200.341797" xlink:href="#h"/>
<use x="263.720703" xlink:href="#ao"/>
</g>
</g>
<g clip-path="url(#a)">
<g transform="translate(289.49 841.98) scale(.1 -.1)">
<use xlink:href="#t"/>
<use x="39.208984" xlink:href="#y"/>
<use x="102.587891" xlink:href="#f"/>
<use x="163.867188" xlink:href="#t"/>
</g>
</g>
<g clip-path="url(#a)">
<defs>
<path id="ap" d="m37.109 75.984v-7.4844h-8.5938q-4.8281 0-6.7188-1.9531-1.875-1.9531-1.875-7.0312v-4.8281h14.797v-6.9844h-14.797v-47.703h-9.0312v47.703h-8.5938v6.9844h8.5938v3.8125q0 9.125 4.25 13.297 4.25 4.1875 13.469 4.1875z"/>
</defs>
<g transform="translate(341.19 841.98) scale(.1 -.1)">
<use xlink:href="#i"/>
<use x="27.783203" xlink:href="#ap"/>
</g>
</g>
<g clip-path="url(#a)">
<g transform="translate(379.85 841.98) scale(.1 -.1)">
<use xlink:href="#aj"/>
<use x="59.179688" xlink:href="#r"/>
<use x="120.361328" xlink:href="#w"/>
</g>
</g>
<g clip-path="url(#a)">
<defs>
<path id="ak" d="m45.406 46.391v29.594h8.9844v-75.984h-8.9844v8.2031q-2.8281-4.875-7.1562-7.25-4.3125-2.375-10.375-2.375-9.9062 0-16.141 7.9062-6.2188 7.9219-6.2188 20.812t6.2188 20.797q6.2344 7.9062 16.141 7.9062 6.0625 0 10.375-2.375 4.3281-2.3594 7.1562-7.2344zm-30.609-19.094q0-9.9062 4.0781-15.547t11.203-5.6406 11.219 5.6406q4.1094 5.6406 4.1094 15.547t-4.1094 15.547q-4.0938 5.6406-11.219 5.6406t-11.203-5.6406-4.0781-15.547z"/>
</defs>
<g transform="translate(420.19 841.98) scale(.1 -.1)">
<use xlink:href="#u"/>
<use x="54.980469" xlink:href="#r"/>
<use x="116.162109" xlink:href="#w"/>
<use x="179.541016" xlink:href="#k"/>
<use x="207.324219" xlink:href="#ak"/>
</g>
</g>
<g clip-path="url(#a)">
<g transform="translate(464.32 841.98) scale(.1 -.1)">
<use xlink:href="#g"/>
<use x="41.082031" xlink:href="#d"/>
<use x="102.605469" xlink:href="#f"/>
<use x="163.884766" xlink:href="#u"/>
<use x="218.865234" xlink:href="#y"/>
</g>
</g>
<g clip-path="url(#a)">
<g transform="translate(511.44 841.98) scale(.1 -.1)">
<use xlink:href="#x"/>
<use x="52.099609" xlink:href="#w"/>
<use x="115.478516" xlink:href="#u"/>
<use x="170.458984" xlink:href="#y"/>
</g>
</g>
<g clip-path="url(#a)">
<g transform="translate(564.76 841.98) scale(.1 -.1)">
<use xlink:href="#f"/>
</g>
</g>
<g clip-path="url(#a)">
<defs>
<path id="an" d="m18.109 8.2031v-29h-9.0312v75.484h9.0312v-8.2969q2.8438 4.875 7.1562 7.2344 4.3281 2.375 10.328 2.375 9.9688 0 16.188-7.9062 6.2344-7.9062 6.2344-20.797t-6.2344-20.812q-6.2188-7.9062-16.188-7.9062-6 0-10.328 2.375-4.3125 2.375-7.1562 7.25zm30.578 19.094q0 9.9062-4.0781 15.547t-11.203 5.6406q-7.1406 0-11.219-5.6406t-4.0781-15.547 4.0781-15.547 11.219-5.6406q7.125 0 11.203 5.6406t4.0781 15.547z"/>
</defs>
<g transform="translate(597.97 841.98) scale(.1 -.1)">
<use xlink:href="#ak"/>
<use x="63.476562" xlink:href="#d"/>
<use x="125" xlink:href="#an"/>
<use x="188.476562" xlink:href="#t"/>
<use x="227.685547" xlink:href="#y"/>
</g>
</g>
<g clip-path="url(#a)">
<g transform="translate(652.66 841.98) scale(.1 -.1)">
<use xlink:href="#i"/>
<use x="27.783203" xlink:href="#h"/>
</g>
</g>
<g clip-path="url(#a)">
<g transform="translate(693.71 841.98) scale(.1 -.1)">
<use xlink:href="#t"/>
<use x="39.208984" xlink:href="#y"/>
<use x="102.587891" xlink:href="#d"/>
</g>
</g>
<g clip-path="url(#a)">
<g transform="translate(731.49 841.98) scale(.1 -.1)">
<use xlink:href="#r"/>
<use x="61.181641" xlink:href="#u"/>
<use x="116.162109" xlink:href="#d"/>
<use x="177.685547" xlink:href="#f"/>
<use x="238.964844" xlink:href="#h"/>
</g>
</g>
<g clip-path="url(#a)">
<defs>
<path id="at" d="m11.719 12.406h10.297v-8.4062l-8-15.625h-6.2969l4 15.625z"/>
</defs>
<g transform="translate(789.71 841.98) scale(.1 -.1)">
<use xlink:href="#at"/>
</g>
</g>
<g clip-path="url(#a)">
<g transform="translate(823.94 841.98) scale(.1 -.1)">
<use xlink:href="#d"/>
<use x="61.523438" xlink:href="#f"/>
<use x="122.802734" xlink:href="#u"/>
<use x="177.783203" xlink:href="#y"/>
</g>
</g>
<g clip-path="url(#a)">
<defs>
<path id="ay" d="m14.797 27.297q0-9.9062 4.0781-15.547t11.203-5.6406 11.219 5.6406q4.1094 5.6406 4.1094 15.547t-4.1094 15.547q-4.0938 5.6406-11.219 5.6406t-11.203-5.6406-4.0781-15.547zm30.609-19.094q-2.8281-4.875-7.1562-7.25-4.3125-2.375-10.375-2.375-9.9062 0-16.141 7.9062-6.2188 7.9219-6.2188 20.812t6.2188 20.797q6.2344 7.9062 16.141 7.9062 6.0625 0 10.375-2.375 4.3281-2.3594 7.1562-7.2344v8.2969h8.9844v-75.484h-8.9844z"/>
</defs>
<g transform="translate(863.55 841.98) scale(.1 -.1)">
<use xlink:href="#x"/>
<use x="52.099609" xlink:href="#ay"/>
<use x="115.576172" xlink:href="#w"/>
<use x="178.955078" xlink:href="#f"/>
<use x="240.234375" xlink:href="#g"/>
<use x="281.316406" xlink:href="#d"/>
</g>
</g>
<g clip-path="url(#a)">
<g transform="translate(898.01 841.98) scale(.1 -.1)">
<use xlink:href="#u"/>
<use x="54.980469" xlink:href="#d"/>
<use x="116.503906" xlink:href="#h"/>
<use x="179.882812" xlink:href="#t"/>
<use x="219.091797" xlink:href="#i"/>
<use x="246.875" xlink:href="#j"/>
<use x="344.287109" xlink:href="#d"/>
<use x="405.810547" xlink:href="#t"/>
<use x="445.019531" xlink:href="#d"/>
<use x="506.542969" xlink:href="#g"/>
</g>
</g>
<g clip-path="url(#a)">
<g transform="translate(963.86 841.98) scale(.1 -.1)">
<use xlink:href="#r"/>
<use x="61.181641" xlink:href="#h"/>
</g>
</g>
<g clip-path="url(#a)">
<g transform="translate(1003.5 841.98) scale(.1 -.1)">
<use xlink:href="#aj"/>
<use x="59.179688" xlink:href="#r"/>
<use x="120.361328" xlink:href="#w"/>
<use x="183.740234" xlink:href="#g"/>
</g>
</g>
<g clip-path="url(#a)">
<defs>
<path id="aq" d="m48.688 27.297q0 9.9062-4.0781 15.547t-11.203 5.6406q-7.1406 0-11.219-5.6406t-4.0781-15.547 4.0781-15.547 11.219-5.6406q7.125 0 11.203 5.6406t4.0781 15.547zm-30.578 19.094q2.8438 4.875 7.1562 7.2344 4.3281 2.375 10.328 2.375 9.9688 0 16.188-7.9062 6.2344-7.9062 6.2344-20.797t-6.2344-20.812q-6.2188-7.9062-16.188-7.9062-6 0-10.328 2.375-4.3125 2.375-7.1562 7.25v-8.2031h-9.0312v75.984h9.0312z"/>
</defs>
<g transform="translate(1047.1 841.98) scale(.1 -.1)">
<use xlink:href="#aq"/>
<use x="63.476562" xlink:href="#r"/>
<use x="124.658203" xlink:href="#ak"/>
<use x="188.134766" xlink:href="#aj"/>
</g>
</g>
<g clip-path="url(#a)">
<defs>
<path id="av" d="m17.922 72.906v-27.109h-8.2969v27.109z"/>
</defs>
<g transform="translate(1100.2 841.98) scale(.1 -.1)">
<use xlink:href="#av"/>
<use x="27.490234" xlink:href="#x"/>
</g>
</g>
<g clip-path="url(#a)">
<g transform="translate(1130.4 841.98) scale(.1 -.1)">
<use xlink:href="#x"/>
<use x="52.099609" xlink:href="#w"/>
<use x="115.478516" xlink:href="#g"/>
<use x="156.591797" xlink:href="#ap"/>
<use x="191.796875" xlink:href="#f"/>
<use x="253.076172" xlink:href="#u"/>
<use x="308.056641" xlink:href="#d"/>
</g>
</g>
<g clip-path="url(#a)">
<defs>
<path id="ax" d="m4.2031 54.688h8.9844l11.234-42.672 11.172 42.672h10.594l11.234-42.672 11.188 42.672h8.9844l-14.312-54.688h-10.594l-11.766 44.828-11.812-44.828h-10.609z"/>
</defs>
<g transform="translate(1178.7 841.98) scale(.1 -.1)">
<use xlink:href="#ax"/>
<use x="81.787109" xlink:href="#r"/>
<use x="142.96875" xlink:href="#w"/>
<use x="206.347656" xlink:href="#k"/>
<use x="234.130859" xlink:href="#ak"/>
</g>
</g>
<g clip-path="url(#a)">
<g transform="translate(1232 841.98) scale(.1 -.1)">
<use xlink:href="#aq"/>
<use x="63.476562" xlink:href="#d"/>
</g>
</g>
<g clip-path="url(#a)">
<defs>
<path id="aw" d="m54.891 54.688-19.781-26.609 20.797-28.078h-10.594l-15.922 21.484-15.906-21.484h-10.609l21.25 28.609-19.438 26.078h10.594l14.5-19.484 14.5 19.484z"/>
</defs>
<g transform="translate(1250.5 841.98) scale(.1 -.1)">
<use xlink:href="#d"/>
<use x="61.507812" xlink:href="#aw"/>
<use x="120.6875" xlink:href="#an"/>
<use x="184.164062" xlink:href="#d"/>
<use x="245.6875" xlink:href="#g"/>
<use x="286.800781" xlink:href="#i"/>
<use x="314.583984" xlink:href="#d"/>
<use x="376.107422" xlink:href="#h"/>
<use x="439.486328" xlink:href="#u"/>
<use x="494.466797" xlink:href="#i"/>
<use x="522.25" xlink:href="#h"/>
<use x="585.628906" xlink:href="#ao"/>
</g>
</g>
<g clip-path="url(#a)">
<defs>
<path id="c" d="m12.406 8.2969h16.109v55.625l-17.531-3.5156v8.9844l17.438 3.5156h9.8594v-64.609h16.109v-8.2969h-41.984z"/>
<path id="aa" d="m31.781 66.406q-7.6094 0-11.453-7.5-3.8281-7.4844-3.8281-22.531 0-14.984 3.8281-22.484 3.8438-7.5 11.453-7.5 7.6719 0 11.5 7.5 3.8438 7.5 3.8438 22.484 0 15.047-3.8438 22.531-3.8281 7.5-11.5 7.5zm0 7.8125q12.266 0 18.734-9.7031 6.4688-9.6875 6.4688-28.141 0-18.406-6.4688-28.109-6.4688-9.6875-18.734-9.6875-12.25 0-18.719 9.6875-6.4688 9.7031-6.4688 28.109 0 18.453 6.4688 28.141 6.4688 9.7031 18.719 9.7031z"/>
</defs>
<g transform="translate(1313.3 841.98) scale(.1 -.1)">
<use xlink:href="#c"/>
<use x="63.623047" xlink:href="#at"/>
<use x="95.410156" xlink:href="#aa"/>
<use x="159.033203" xlink:href="#aa"/>
<use x="222.65625" xlink:href="#aa"/>
</g>
</g>
<g clip-path="url(#a)">
<defs>
<path id="az" d="m9.0781 75.984h9.0312v-44.875l26.812 23.578h11.469l-29-25.578 30.234-29.109h-11.719l-27.797 26.703v-26.703h-9.0312z"/>
</defs>
<g transform="translate(1347.9 841.98) scale(.1 -.1)">
<use xlink:href="#az"/>
<use x="57.910156" xlink:href="#i"/>
<use x="85.693359" xlink:href="#k"/>
<use x="113.476562" xlink:href="#r"/>
<use x="174.658203" xlink:href="#ao"/>
<use x="238.134766" xlink:href="#g"/>
<use x="279.248047" xlink:href="#f"/>
<use x="340.527344" xlink:href="#j"/>
<use x="437.939453" xlink:href="#x"/>
</g>
</g>
<g clip-path="url(#a)">
<g transform="translate(1412.2 841.98) scale(.1 -.1)">
<use xlink:href="#r"/>
<use x="61.181641" xlink:href="#ap"/>
</g>
</g>
<g clip-path="url(#a)">
<g transform="translate(1439.9 841.98) scale(.1 -.1)">
<use xlink:href="#an"/>
<use x="63.476562" xlink:href="#g"/>
<use x="104.558594" xlink:href="#d"/>
<use x="166.082031" xlink:href="#x"/>
<use x="218.181641" xlink:href="#x"/>
<use x="270.28125" xlink:href="#w"/>
<use x="333.660156" xlink:href="#g"/>
<use x="374.742188" xlink:href="#d"/>
</g>
</g>
<g clip-path="url(#a)">
<defs>
<path id="e" d="m10.688 12.406h10.312v-12.406h-10.312z"/>
</defs>
<g transform="translate(1504.9 841.98) scale(.1 -.1)">
<use xlink:href="#e"/>
</g>
</g>
<g clip-path="url(#a)">
<g transform="translate(546.46 43.534) scale(.1 -.1)">
<use xlink:href="#c"/>
<use x="63.623047" xlink:href="#e"/>
<use x="95.410156" xlink:href="#c"/>
</g>
</g>
<g clip-path="url(#a)">
<defs>
<path id="n" d="m19.188 8.2969h34.422v-8.2969h-46.281v8.2969q5.6094 5.8125 15.297 15.594 9.7031 9.7969 12.188 12.641 4.7344 5.3125 6.6094 9 1.8906 3.6875 1.8906 7.25 0 5.8125-4.0781 9.4688-4.0781 3.6719-10.625 3.6719-4.6406 0-9.7969-1.6094-5.1406-1.6094-11-4.8906v9.9688q5.9531 2.3906 11.125 3.6094 5.1875 1.2188 9.4844 1.2188 11.328 0 18.062-5.6719 6.7344-5.6562 6.7344-15.125 0-4.5-1.6875-8.5312-1.6719-4.0156-6.125-9.4844-1.2188-1.4219-7.7656-8.1875-6.5312-6.7656-18.453-18.922z"/>
</defs>
<g transform="translate(546.46 165.33) scale(.1 -.1)">
<use xlink:href="#c"/>
<use x="63.623047" xlink:href="#e"/>
<use x="95.410156" xlink:href="#n"/>
</g>
</g>
<g clip-path="url(#a)">
<defs>
<path id="m" d="m40.578 39.312q7.0781-1.5156 11.047-6.3125 3.9844-4.7812 3.9844-11.812 0-10.781-7.4219-16.703-7.4219-5.9062-21.094-5.9062-4.5781 0-9.4375 0.90625t-10.031 2.7188v9.5156q4.0938-2.3906 8.9688-3.6094 4.8906-1.2188 10.219-1.2188 9.2656 0 14.125 3.6562t4.8594 10.641q0 6.4531-4.5156 10.078-4.5156 3.6406-12.562 3.6406h-8.5v8.1094h8.8906q7.2656 0 11.125 2.9062t3.8594 8.375q0 5.6094-3.9844 8.6094-3.9688 3.0156-11.391 3.0156-4.0625 0-8.7031-0.89062-4.6406-0.875-10.203-2.7188v8.7812q5.625 1.5625 10.531 2.3438t9.25 0.78125q11.234 0 17.766-5.1094 6.5469-5.0938 6.5469-13.781 0-6.0625-3.4688-10.234t-9.8594-5.7812z"/>
</defs>
<g transform="translate(68.215 732.64) scale(.1 -.1)">
<use xlink:href="#c"/>
<use x="63.623047" xlink:href="#e"/>
<use x="95.410156" xlink:href="#m"/>
</g>
</g>
<g clip-path="url(#a)">
<defs>
<path id="o" d="m37.797 64.312-24.906-38.922h24.906zm-2.5938 8.5938h12.406v-47.516h10.406v-8.2031h-10.406v-17.188h-9.8125v17.188h-32.906v9.5156z"/>
</defs>
<g transform="translate(641.81 623.29) scale(.1 -.1)">
<use xlink:href="#c"/>
<use x="63.623047" xlink:href="#e"/>
<use x="95.410156" xlink:href="#o"/>
</g>
</g>
<g clip-path="url(#a)">
<defs>
<path id="z" d="m10.797 72.906h38.719v-8.3125h-29.688v-17.859q2.1406 0.73438 4.2812 1.0938 2.1562 0.35938 4.3125 0.35938 12.203 0 19.328-6.6875 7.1406-6.6875 7.1406-18.109 0-11.766-7.3281-18.297-7.3281-6.5156-20.656-6.5156-4.5938 0-9.3594 0.78125-4.75 0.78125-9.8281 2.3438v9.9219q4.3906-2.3906 9.0781-3.5625t9.9062-1.1719q8.4531 0 13.375 4.4375 4.9375 4.4375 4.9375 12.062 0 7.6094-4.9375 12.047-4.9219 4.4531-13.375 4.4531-3.9531 0-7.8906-0.875-3.9219-0.875-8.0156-2.7344z"/>
</defs>
<g transform="translate(291.7 732.64) scale(.1 -.1)">
<use xlink:href="#c"/>
<use x="63.623047" xlink:href="#e"/>
<use x="95.410156" xlink:href="#z"/>
</g>
</g>
<g clip-path="url(#a)">
<defs>
<path id="ag" d="m33.016 40.375q-6.6406 0-10.531-4.5469-3.875-4.5312-3.875-12.438 0-7.8594 3.875-12.438 3.8906-4.5625 10.531-4.5625t10.516 4.5625q3.875 4.5781 3.875 12.438 0 7.9062-3.875 12.438-3.875 4.5469-10.516 4.5469zm19.578 30.922v-8.9844q-3.7188 1.75-7.5 2.6719-3.7812 0.9375-7.5 0.9375-9.7656 0-14.922-6.5938-5.1406-6.5938-5.875-19.922 2.875 4.25 7.2188 6.5156 4.3594 2.2656 9.5781 2.2656 10.984 0 17.359-6.6719 6.375-6.6562 6.375-18.125 0-11.234-6.6406-18.031-6.6406-6.7812-17.672-6.7812-12.656 0-19.344 9.6875-6.6875 9.7031-6.6875 28.109 0 17.281 8.2031 27.562t22.016 10.281q3.7188 0 7.5-0.73438t7.8906-2.1875z"/>
</defs>
<g transform="translate(336.39 732.64) scale(.1 -.1)">
<use xlink:href="#c"/>
<use x="63.623047" xlink:href="#e"/>
<use x="95.410156" xlink:href="#ag"/>
</g>
</g>
<g clip-path="url(#a)">
<defs>
<path id="af" d="m8.2031 72.906h46.875v-4.2031l-26.469-68.703h-10.297l24.906 64.594h-35.016z"/>
</defs>
<g transform="translate(506.24 512.42) scale(.1 -.1)">
<use xlink:href="#c"/>
<use x="63.623047" xlink:href="#e"/>
<use x="95.410156" xlink:href="#af"/>
</g>
</g>
<g clip-path="url(#a)">
<defs>
<path id="ae" d="m31.781 34.625q-7.0312 0-11.062-3.7656-4.0156-3.7656-4.0156-10.344 0-6.5938 4.0156-10.359 4.0312-3.7656 11.062-3.7656t11.078 3.7812q4.0625 3.7969 4.0625 10.344 0 6.5781-4.0312 10.344-4.0156 3.7656-11.109 3.7656zm-9.8594 4.1875q-6.3438 1.5625-9.8906 5.9062-3.5312 4.3594-3.5312 10.609 0 8.7344 6.2188 13.812 6.2344 5.0781 17.062 5.0781 10.891 0 17.094-5.0781t6.2031-13.812q0-6.25-3.5469-10.609-3.5312-4.3438-9.8281-5.9062 7.125-1.6562 11.094-6.5 3.9844-4.8281 3.9844-11.797 0-10.609-6.4688-16.281-6.4688-5.6562-18.531-5.6562-12.047 0-18.531 5.6562-6.4688 5.6719-6.4688 16.281 0 6.9688 4 11.797 4.0156 4.8438 11.141 6.5zm-3.6094 15.578q0-5.6562 3.5312-8.8281 3.5469-3.1719 9.9375-3.1719 6.3594 0 9.9375 3.1719 3.5938 3.1719 3.5938 8.8281 0 5.6719-3.5938 8.8438-3.5781 3.1719-9.9375 3.1719-6.3906 0-9.9375-3.1719-3.5312-3.1719-3.5312-8.8438z"/>
</defs>
<g transform="translate(1197.5 283.85) scale(.1 -.1)">
<use xlink:href="#c"/>
<use x="63.623047" xlink:href="#e"/>
<use x="95.410156" xlink:href="#ae"/>
</g>
</g>
<g clip-path="url(#a)">
<g transform="translate(914.26 399.42) scale(.1 -.1)">
<use xlink:href="#c"/>
<use x="63.623047" xlink:href="#e"/>
<use x="95.410156" xlink:href="#c"/>
<use x="159.033203" xlink:href="#c"/>
</g>
</g>
<g clip-path="url(#a)">
<g transform="translate(1182.4 732.64) scale(.1 -.1)">
<use xlink:href="#c"/>
<use x="63.623047" xlink:href="#e"/>
<use x="95.410156" xlink:href="#c"/>
<use x="159.033203" xlink:href="#n"/>
</g>
</g>
<g clip-path="url(#a)">
<g transform="translate(1227.1 732.64) scale(.1 -.1)">
<use xlink:href="#c"/>
<use x="63.623047" xlink:href="#e"/>
<use x="95.410156" xlink:href="#c"/>
<use x="159.033203" xlink:href="#m"/>
</g>
</g>
<g clip-path="url(#a)">
<g transform="translate(1271.8 732.64) scale(.1 -.1)">
<use xlink:href="#c"/>
<use x="63.623047" xlink:href="#e"/>
<use x="95.410156" xlink:href="#c"/>
<use x="159.033203" xlink:href="#o"/>
</g>
</g>
<g clip-path="url(#a)">
<g transform="translate(1376.1 512.42) scale(.1 -.1)">
<use xlink:href="#c"/>
<use x="63.623047" xlink:href="#e"/>
<use x="95.410156" xlink:href="#c"/>
<use x="159.033203" xlink:href="#z"/>
</g>
</g>
<g clip-path="url(#a)">
<g transform="translate(1316.5 732.64) scale(.1 -.1)">
<use xlink:href="#c"/>
<use x="63.623047" xlink:href="#e"/>
<use x="95.410156" xlink:href="#c"/>
<use x="159.033203" xlink:href="#ag"/>
</g>
</g>
<g clip-path="url(#a)">
<g transform="translate(1361.2 732.64) scale(.1 -.1)">
<use xlink:href="#c"/>
<use x="63.623047" xlink:href="#e"/>
<use x="95.410156" xlink:href="#c"/>
<use x="159.033203" xlink:href="#af"/>
</g>
</g>
<g clip-path="url(#a)">
<g transform="translate(1450.6 623.29) scale(.1 -.1)">
<use xlink:href="#c"/>
<use x="63.623047" xlink:href="#e"/>
<use x="95.410156" xlink:href="#c"/>
<use x="159.033203" xlink:href="#ae"/>
</g>
</g>
<g clip-path="url(#a)">
<defs>
<path id="ai" d="m10.984 1.5156v8.9844q3.7188-1.7656 7.5156-2.6875 3.8125-0.92188 7.4844-0.92188 9.7656 0 14.906 6.5625 5.1562 6.5625 5.8906 19.953-2.8281-4.2031-7.1875-6.4531-4.3438-2.25-9.6094-2.25-10.938 0-17.312 6.6094-6.375 6.625-6.375 18.109 0 11.219 6.6406 18 6.6406 6.7969 17.672 6.7969 12.656 0 19.312-9.7031 6.6719-9.6875 6.6719-28.141 0-17.234-8.1875-27.516-8.1719-10.281-21.984-10.281-3.7188 0-7.5312 0.73438-3.7969 0.73438-7.9062 2.2031zm19.625 30.906q6.6406 0 10.516 4.5312 3.8906 4.5469 3.8906 12.469 0 7.8594-3.8906 12.422-3.875 4.5625-10.516 4.5625t-10.516-4.5625-3.875-12.422q0-7.9219 3.875-12.469 3.875-4.5312 10.516-4.5312z"/>
</defs>
<g transform="translate(1405.9 732.64) scale(.1 -.1)">
<use xlink:href="#c"/>
<use x="63.623047" xlink:href="#e"/>
<use x="95.410156" xlink:href="#c"/>
<use x="159.033203" xlink:href="#ai"/>
</g>
</g>
<g clip-path="url(#a)">
<g transform="translate(1450.6 732.64) scale(.1 -.1)">
<use xlink:href="#c"/>
<use x="63.623047" xlink:href="#e"/>
<use x="95.410156" xlink:href="#n"/>
<use x="159.033203" xlink:href="#aa"/>
</g>
</g>
<g clip-path="url(#a)">
<g transform="translate(824.87 732.64) scale(.1 -.1)">
<use xlink:href="#c"/>
<use x="63.623047" xlink:href="#e"/>
<use x="95.410156" xlink:href="#n"/>
<use x="159.033203" xlink:href="#c"/>
</g>
</g>
<g clip-path="url(#a)">
<g transform="translate(869.56 732.64) scale(.1 -.1)">
<use xlink:href="#c"/>
<use x="63.623047" xlink:href="#e"/>
<use x="95.410156" xlink:href="#n"/>
<use x="159.033203" xlink:href="#n"/>
</g>
</g>
<g clip-path="url(#a)">
<g transform="translate(914.26 732.64) scale(.1 -.1)">
<use xlink:href="#c"/>
<use x="63.623047" xlink:href="#e"/>
<use x="95.410156" xlink:href="#n"/>
<use x="159.033203" xlink:href="#m"/>
</g>
</g>
<g clip-path="url(#a)">
<g transform="translate(1048.3 512.42) scale(.1 -.1)">
<use xlink:href="#c"/>
<use x="63.623047" xlink:href="#e"/>
<use x="95.410156" xlink:href="#n"/>
<use x="159.033203" xlink:href="#o"/>
</g>
</g>
<g clip-path="url(#a)">
<g transform="translate(958.96 732.64) scale(.1 -.1)">
<use xlink:href="#c"/>
<use x="63.623047" xlink:href="#e"/>
<use x="95.410156" xlink:href="#n"/>
<use x="159.033203" xlink:href="#z"/>
</g>
</g>
<g clip-path="url(#a)">
<g transform="translate(1048.3 623.29) scale(.1 -.1)">
<use xlink:href="#c"/>
<use x="63.623047" xlink:href="#e"/>
<use x="95.410156" xlink:href="#n"/>
<use x="159.033203" xlink:href="#ag"/>
</g>
</g>
<g clip-path="url(#a)">
<g transform="translate(1137.7 732.64) scale(.1 -.1)">
<use xlink:href="#c"/>
<use x="63.623047" xlink:href="#e"/>
<use x="95.410156" xlink:href="#n"/>
<use x="159.033203" xlink:href="#af"/>
</g>
</g>
<g clip-path="url(#a)">
<g transform="translate(1003.7 732.64) scale(.1 -.1)">
<use xlink:href="#c"/>
<use x="63.623047" xlink:href="#e"/>
<use x="95.410156" xlink:href="#n"/>
<use x="159.033203" xlink:href="#ae"/>
</g>
</g>
<g clip-path="url(#a)">
<g transform="translate(1048.3 732.64) scale(.1 -.1)">
<use xlink:href="#c"/>
<use x="63.623047" xlink:href="#e"/>
<use x="95.410156" xlink:href="#n"/>
<use x="159.033203" xlink:href="#ai"/>
</g>
</g>
<g clip-path="url(#a)">
<g transform="translate(1093 732.64) scale(.1 -.1)">
<use xlink:href="#c"/>
<use x="63.623047" xlink:href="#e"/>
<use x="95.410156" xlink:href="#m"/>
<use x="159.033203" xlink:href="#aa"/>
</g>
</g>
<g clip-path="url(#a)">
<g transform="translate(377.91 732.64) scale(.1 -.1)">
<use xlink:href="#c"/>
<use x="63.623047" xlink:href="#e"/>
<use x="95.410156" xlink:href="#m"/>
<use x="159.033203" xlink:href="#c"/>
</g>
</g>
<g clip-path="url(#a)">
<g transform="translate(422.6 732.64) scale(.1 -.1)">
<use xlink:href="#c"/>
<use x="63.623047" xlink:href="#e"/>
<use x="95.410156" xlink:href="#m"/>
<use x="159.033203" xlink:href="#n"/>
</g>
</g>
<g clip-path="url(#a)">
<g transform="translate(467.3 732.64) scale(.1 -.1)">
<use xlink:href="#c"/>
<use x="63.623047" xlink:href="#e"/>
<use x="95.410156" xlink:href="#m"/>
<use x="159.033203" xlink:href="#m"/>
</g>
</g>
<g clip-path="url(#a)">
<g transform="translate(556.69 623.29) scale(.1 -.1)">
<use xlink:href="#c"/>
<use x="63.623047" xlink:href="#e"/>
<use x="95.410156" xlink:href="#m"/>
<use x="159.033203" xlink:href="#o"/>
</g>
</g>
<g clip-path="url(#a)">
<g transform="translate(690.78 623.29) scale(.1 -.1)">
<use xlink:href="#c"/>
<use x="63.623047" xlink:href="#e"/>
<use x="95.410156" xlink:href="#m"/>
<use x="159.033203" xlink:href="#z"/>
</g>
</g>
<g clip-path="url(#a)">
<g transform="translate(646.08 732.64) scale(.1 -.1)">
<use xlink:href="#c"/>
<use x="63.623047" xlink:href="#e"/>
<use x="95.410156" xlink:href="#m"/>
<use x="159.033203" xlink:href="#ag"/>
</g>
</g>
<g clip-path="url(#a)">
<g transform="translate(690.78 732.64) scale(.1 -.1)">
<use xlink:href="#c"/>
<use x="63.623047" xlink:href="#e"/>
<use x="95.410156" xlink:href="#m"/>
<use x="159.033203" xlink:href="#af"/>
</g>
</g>
<g clip-path="url(#a)">
<g transform="translate(735.48 732.64) scale(.1 -.1)">
<use xlink:href="#c"/>
<use x="63.623047" xlink:href="#e"/>
<use x="95.410156" xlink:href="#m"/>
<use x="159.033203" xlink:href="#ae"/>
</g>
</g>
<g clip-path="url(#a)">
<g transform="translate(511.99 732.64) scale(.1 -.1)">
<use xlink:href="#c"/>
<use x="63.623047" xlink:href="#e"/>
<use x="95.410156" xlink:href="#m"/>
<use x="159.033203" xlink:href="#ai"/>
</g>
</g>
<g clip-path="url(#a)">
<g transform="translate(556.69 732.64) scale(.1 -.1)">
<use xlink:href="#c"/>
<use x="63.623047" xlink:href="#e"/>
<use x="95.410156" xlink:href="#o"/>
<use x="159.033203" xlink:href="#aa"/>
</g>
</g>
<g clip-path="url(#a)">
<g transform="translate(601.39 732.64) scale(.1 -.1)">
<use xlink:href="#c"/>
<use x="63.623047" xlink:href="#e"/>
<use x="95.410156" xlink:href="#o"/>
<use x="159.033203" xlink:href="#c"/>
</g>
</g>
<g clip-path="url(#a)">
<defs>
<path id="ac" d="m9.8125 72.906h9.8594v-72.906h-9.8594z"/>
<path id="as" d="m9.8125 72.906h14.703l18.594-49.609 18.703 49.609h14.703v-72.906h-9.625v64.016l-18.797-50h-9.9062l-18.797 50v-64.016h-9.5781z"/>
</defs>
<g transform="translate(1574.7 841.98) scale(.1 -.1)">
<use xlink:href="#ac"/>
<use x="29.492188" xlink:href="#as"/>
<use x="115.771484" xlink:href="#ad"/>
<use x="176.074219" xlink:href="#p"/>
<use x="231.787109" xlink:href="#ac"/>
<use x="261.279297" xlink:href="#v"/>
<use x="331.103516" xlink:href="#ac"/>
<use x="360.595703" xlink:href="#l"/>
</g>
</g>
<g clip-path="url(#a)">
<g transform="translate(1530.1 841.98) scale(.1 -.1)">
<use xlink:href="#ac"/>
<use x="29.492188" xlink:href="#as"/>
<use x="115.771484" xlink:href="#ad"/>
<use x="176.074219" xlink:href="#p"/>
<use x="231.787109" xlink:href="#ac"/>
<use x="261.279297" xlink:href="#v"/>
<use x="331.103516" xlink:href="#ac"/>
<use x="360.595703" xlink:href="#l"/>
</g>
</g>
<g clip-path="url(#a)">
<g transform="translate(109.73 732.64) scale(.1 -.1)">
<use xlink:href="#c"/>
<use x="63.623047" xlink:href="#e"/>
<use x="95.410156" xlink:href="#o"/>
<use x="159.033203" xlink:href="#o"/>
</g>
</g>
<g clip-path="url(#a)">
<g transform="translate(154.43 732.64) scale(.1 -.1)">
<use xlink:href="#c"/>
<use x="63.623047" xlink:href="#e"/>
<use x="95.410156" xlink:href="#o"/>
<use x="159.033203" xlink:href="#z"/>
</g>
</g>
<g clip-path="url(#a)">
<g transform="translate(199.12 732.64) scale(.1 -.1)">
<use xlink:href="#c"/>
<use x="63.623047" xlink:href="#e"/>
<use x="95.410156" xlink:href="#o"/>
<use x="159.033203" xlink:href="#ag"/>
</g>
</g>
<g clip-path="url(#a)">
<g transform="translate(243.82 732.64) scale(.1 -.1)">
<use xlink:href="#c"/>
<use x="63.623047" xlink:href="#e"/>
<use x="95.410156" xlink:href="#o"/>
<use x="159.033203" xlink:href="#af"/>
</g>
</g>
<g clip-path="url(#a)">
<g transform="translate(676.87 165.33) scale(.1 -.1)">
<use xlink:href="#c"/>
<use x="63.623047" xlink:href="#e"/>
<use x="95.410156" xlink:href="#o"/>
<use x="159.033203" xlink:href="#ae"/>
</g>
</g>
<g clip-path="url(#a)">
<g transform="translate(707.17 165.33) scale(.1 -.1)">
<use xlink:href="#c"/>
<use x="63.623047" xlink:href="#e"/>
<use x="95.410156" xlink:href="#o"/>
<use x="159.033203" xlink:href="#ai"/>
</g>
</g>
<g clip-path="url(#a)">
<g transform="translate(780.17 732.64) scale(.1 -.1)">
<use xlink:href="#c"/>
<use x="63.623047" xlink:href="#e"/>
<use x="95.410156" xlink:href="#z"/>
<use x="159.033203" xlink:href="#aa"/>
</g>
</g>
<g clip-path="url(#a)">
<g transform="translate(1495.3 732.64) scale(.1 -.1)">
<use xlink:href="#c"/>
<use x="63.623047" xlink:href="#e"/>
<use x="95.410156" xlink:href="#z"/>
<use x="159.033203" xlink:href="#c"/>
</g>
</g>
<defs>
<clipPath id="a">
<rect width="1672" height="880"/>
</clipPath>
</defs>
</svg>
