<?xml version="1.0" encoding="UTF-8"?>
<!DOCTYPE svg  PUBLIC '-//W3C//DTD SVG 1.1//EN'  'http://www.w3.org/Graphics/SVG/1.1/DTD/svg11.dtd'>
<svg width="1216pt" height="640pt" version="1.1" viewBox="0 0 1216 640" xmlns="http://www.w3.org/2000/svg" xmlns:xlink="http://www.w3.org/1999/xlink">
<defs>
<style type="text/css">*{stroke-linecap:butt;stroke-linejoin:round;}</style>
</defs>
<path d="m0 640h1216v-640h-1216z" fill="#fff"/>
<g fill="none" stroke="#000">
<path d="m285.68 29.091-191.19 234.51" clip-path="url(#a)"/>
<path d="m285.68 29.091-49.02 467.31" clip-path="url(#a)"/>
<path d="m285.68 29.091 323.46 117.4" clip-path="url(#a)"/>
<path d="m285.68 29.091-83.244 467.31" clip-path="url(#a)"/>
<path d="m94.488 263.6 77.148 116.71" clip-path="url(#a)"/>
<path d="m94.488 263.6-34.082 116.71" clip-path="url(#a)"/>
<path d="m94.488 263.6-15.258 232.81" clip-path="url(#a)"/>
<path d="m94.488 263.6 1.8538 232.81" clip-path="url(#a)"/>
<path d="m94.488 263.6 47.487 116.71" clip-path="url(#a)"/>
<path d="m236.66 496.4v114.51" clip-path="url(#a)"/>
<path d="m609.14 146.49-292.62 233.81" clip-path="url(#a)"/>
<path d="m609.14 146.49-92.977 117.1" clip-path="url(#a)"/>
<path d="m609.14 146.49 24.528 349.91" clip-path="url(#a)"/>
<path d="m609.14 146.49 89.554 349.91" clip-path="url(#a)"/>
<path d="m609.14 146.49 271.52 117.1" clip-path="url(#a)"/>
<path d="m316.52 380.3-42.21 116.1" clip-path="url(#a)"/>
<path d="m316.52 380.3-1.1408 116.1" clip-path="url(#a)"/>
<path d="m316.52 380.3 43.351 116.1" clip-path="url(#a)"/>
<path d="m516.16 263.6-55.9 116.71" clip-path="url(#a)"/>
<path d="m516.16 263.6 55.9 232.81" clip-path="url(#a)"/>
<path d="m633.67 496.4v114.51" clip-path="url(#a)"/>
<path d="m698.7 496.4v114.51" clip-path="url(#a)"/>
<path d="m880.66 263.6-113.51 232.81" clip-path="url(#a)"/>
<path d="m880.66 263.6-41.64 232.81" clip-path="url(#a)"/>
<path d="m880.66 263.6 155.15 116.71" clip-path="url(#a)"/>
<path d="m767.14 496.4v114.51" clip-path="url(#a)"/>
<path d="m839.02 496.4v114.51" clip-path="url(#a)"/>
<path d="m1035.8 380.3-121.5 116.1" clip-path="url(#a)"/>
<path d="m1035.8 380.3-42.781 116.1" clip-path="url(#a)"/>
<path d="m1035.8 380.3 39.358 116.1" clip-path="url(#a)"/>
<path d="m1035.8 380.3 124.92 116.1" clip-path="url(#a)"/>
<path d="m914.31 496.4v114.51" clip-path="url(#a)"/>
<path d="m993.03 496.4v114.51" clip-path="url(#a)"/>
<path d="m1075.2 496.4v114.51" clip-path="url(#a)"/>
<path d="m460.26 380.3-52.478 116.1" clip-path="url(#a)"/>
<path d="m460.26 380.3-1.1408 116.1" clip-path="url(#a)"/>
<path d="m460.26 380.3 53.619 116.1" clip-path="url(#a)"/>
<path d="m572.06 496.4v114.51" clip-path="url(#a)"/>
<path d="m407.79 496.4v114.51" clip-path="url(#a)"/>
<path d="m459.12 496.4v114.51" clip-path="url(#a)"/>
<path d="m513.88 496.4v114.51" clip-path="url(#a)"/>
<path d="m274.31 496.4v114.51" clip-path="url(#a)"/>
<path d="m315.38 496.4v114.51" clip-path="url(#a)"/>
<path d="m359.87 496.4v114.51" clip-path="url(#a)"/>
<path d="m60.406 380.3-5.1337 116.1" clip-path="url(#a)"/>
<path d="m60.406 380.3 5.1337 116.1" clip-path="url(#a)"/>
<path d="m79.23 496.4v114.51" clip-path="url(#a)"/>
<path d="m96.342 496.4v114.51" clip-path="url(#a)"/>
<path d="m141.98 380.3-25.098 116.1" clip-path="url(#a)"/>
<path d="m141.98 380.3-1.1408 116.1" clip-path="url(#a)"/>
<path d="m141.98 380.3 26.239 116.1" clip-path="url(#a)"/>
<path d="m116.88 496.4v114.51" clip-path="url(#a)"/>
<path d="m140.83 496.4v114.51" clip-path="url(#a)"/>
<path d="m168.21 496.4v114.51" clip-path="url(#a)"/>
<path d="m55.273 496.4v114.51" clip-path="url(#a)"/>
<path d="m65.54 496.4v114.51" clip-path="url(#a)"/>
<path d="m313.43 29.091-218.94 234.51" clip-path="url(#a)"/>
<path d="m313.43 29.091-76.768 467.31" clip-path="url(#a)"/>
<path d="m313.43 29.091 295.71 117.4" clip-path="url(#a)"/>
<path d="m202.44 496.4v114.51" clip-path="url(#a)"/>
<path d="m1160.7 496.4v114.51" clip-path="url(#a)"/>
</g>
<path d="m193.05 152.64 3.8017-4.6629q1.5166-1.8601-0.34355-3.3767l-6.0008-4.8925q-1.8601-1.5166-3.3767 0.34355l-3.8017 4.6629q-1.5166 1.8601 0.34355 3.3767l6.0008 4.8925q1.8601 1.5166 3.3767-0.34355z" clip-path="url(#a)" fill="#fff" stroke="#fff"/>
<g clip-path="url(#a)">
<defs>
<path id="am" d="m9.8125 72.906h9.8594v-29.891h35.844v29.891h9.8594v-72.906h-9.8594v34.719h-35.844v-34.719h-9.8594z"/>
</defs>
<g transform="translate(189.9 150.07) rotate(-50.809) scale(.08 -.08)">
<use xlink:href="#am"/>
</g>
</g>
<path d="m267.18 265.62 0.46503-4.4332q0.25038-2.3869-2.1365-2.6373l-7.7003-0.80773q-2.3869-0.25038-2.6373 2.1365l-0.46503 4.4332q-0.25038 2.3869 2.1365 2.6373l7.7003 0.80773q2.3869 0.25038 2.6373-2.1365z" clip-path="url(#a)" fill="#fff" stroke="#fff"/>
<g clip-path="url(#a)">
<defs>
<path id="v" d="m9.8125 72.906h9.8594v-64.609h35.5v-8.2969h-45.359z"/>
</defs>
<g transform="translate(263.14 265.19) rotate(-84.012) scale(.08 -.08)">
<use xlink:href="#v"/>
</g>
</g>
<path d="m442.44 92.66 5.6553 2.0526q2.256 0.81883 3.0748-1.4372l2.6416-7.2779q0.81883-2.256-1.4372-3.0748l-5.6553-2.0526q-2.256-0.81883-3.0748 1.4372l-2.6416 7.2779q-0.81883 2.256 1.4372 3.0748z" clip-path="url(#a)" fill="#fff" stroke="#fff"/>
<g clip-path="url(#a)">
<g transform="translate(443.83 88.84) rotate(19.949) scale(.08 -.08)">
<use xlink:href="#am"/>
</g>
</g>
<path d="m249.72 266.73 1.0268-5.7643q0.4209-2.3628-1.9419-2.7837l-7.6225-1.3578q-2.3628-0.4209-2.7837 1.9419l-1.0268 5.7643q-0.4209 2.3628 1.9419 2.7837l7.6225 1.3578q2.3628 0.4209 2.7837-1.9419z" clip-path="url(#a)" fill="#fff" stroke="#fff"/>
<g clip-path="url(#a)">
<defs>
<path id="al" d="m8.6875 72.906h9.9219v-44.297q0-11.719 4.2344-16.875 4.25-5.1406 13.781-5.1406 9.4688 0 13.719 5.1406 4.25 5.1562 4.25 16.875v44.297h9.9062v-45.516q0-14.25-7.0625-21.531-7.0469-7.2812-20.812-7.2812-13.828 0-20.891 7.2812-7.0469 7.2812-7.0469 21.531z"/>
</defs>
<g transform="translate(245.72 266.02) rotate(-79.9) scale(.08 -.08)">
<use xlink:href="#al"/>
</g>
</g>
<path d="m126.32 323.13 3.0178 4.5652q1.3235 2.0021 3.3256 0.67864l6.4589-4.2696q2.0021-1.3235 0.67864-3.3256l-3.0178-4.5652q-1.3235-2.0021-3.3256-0.67864l-6.4589 4.2696q-2.0021 1.3235-0.67864 3.3256z" clip-path="url(#a)" fill="#fff" stroke="#fff"/>
<g clip-path="url(#a)">
<defs>
<path id="r" d="m34.188 63.188-13.391-36.281h26.812zm-5.5781 9.7188h11.188l27.781-72.906h-10.25l-6.6406 18.703h-32.859l-6.6406-18.703h-10.406z"/>
</defs>
<g transform="translate(129.71 320.89) rotate(56.534) scale(.08 -.08)">
<use xlink:href="#r"/>
</g>
</g>
<path d="m82.7 326.34 1.5341-5.2531q0.67277-2.3038-1.631-2.9765l-7.4321-2.1704q-2.3038-0.67277-2.9765 1.631l-1.5341 5.2531q-0.67277 2.3038 1.631 2.9765l7.4321 2.1704q2.3038 0.67277 2.9765-1.631z" clip-path="url(#a)" fill="#fff" stroke="#fff"/>
<g clip-path="url(#a)">
<g transform="translate(78.799 325.2) rotate(-73.721) scale(.08 -.08)">
<use xlink:href="#r"/>
</g>
</g>
<path d="m92.967 382.71 0.30093-4.5914q0.15696-2.3949-2.2379-2.5518l-7.7259-0.50637q-2.3949-0.15696-2.5518 2.2379l-0.30093 4.5914q-0.15696 2.3949 2.2379 2.5518l7.7259 0.50637q2.3949 0.15696 2.5518-2.2379z" clip-path="url(#a)" fill="#fff" stroke="#fff"/>
<g clip-path="url(#a)">
<defs>
<path id="ar" d="m9.8125 72.906h41.891v-8.3125h-32.031v-21.484h28.906v-8.2969h-28.906v-34.812h-9.8594z"/>
</defs>
<g transform="translate(88.911 382.44) rotate(-86.25) scale(.08 -.08)">
<use xlink:href="#ar"/>
</g>
</g>
<path d="m89.125 377.64 0.038411 4.8236q0.01911 2.3999 2.419 2.3808l7.7423-0.061652q2.3999-0.01911 2.3808-2.419l-0.03841-4.8236q-0.019111-2.3999-2.419-2.3808l-7.7423 0.061651q-2.3999 0.019111-2.3808 2.419z" clip-path="url(#a)" fill="#fff" stroke="#fff"/>
<g clip-path="url(#a)">
<defs>
<path id="z" d="m19.672 64.797v-27.391h12.406q6.8906 0 10.641 3.5625 3.7656 3.5625 3.7656 10.156 0 6.5469-3.7656 10.109-3.75 3.5625-10.641 3.5625zm-9.8594 8.1094h22.266q12.266 0 18.531-5.5469 6.2812-5.5469 6.2812-16.234 0-10.797-6.2812-16.312-6.2656-5.5156-18.531-5.5156h-12.406v-29.297h-9.8594z"/>
</defs>
<g transform="translate(93.189 377.61) rotate(89.544) scale(.08 -.08)">
<use xlink:href="#z"/>
</g>
</g>
<path d="m111.39 321.78 2.0625 5.069q0.90452 2.223 3.1275 1.3185l7.1716-2.918q2.223-0.90452 1.3185-3.1275l-2.0625-5.069q-0.90452-2.223-3.1275-1.3185l-7.1716 2.918q-2.223 0.90452-1.3185 3.1275z" clip-path="url(#a)" fill="#fff" stroke="#fff"/>
<g clip-path="url(#a)">
<g transform="translate(115.16 320.25) rotate(67.859) scale(.08 -.08)">
<use xlink:href="#r"/>
</g>
</g>
<path d="m230.39 536.75v33.808q0 2.4 2.4 2.4h7.7425q2.4 0 2.4-2.4v-33.808q0-2.4-2.4-2.4h-7.7425q-2.4 0-2.4 2.4z" clip-path="url(#a)" fill="#fff" stroke="#fff"/>
<g clip-path="url(#a)">
<defs>
<path id="k" d="m-0.29688 72.906h61.672v-8.3125h-25.875v-64.594h-9.9062v64.594h-25.891z"/>
<path id="d" d="m56.203 29.594v-4.3906h-41.312q0.59375-9.2812 5.5938-14.141t13.938-4.8594q5.1719 0 10.031 1.2656t9.6562 3.8125v-8.5q-4.8438-2.0469-9.9219-3.125t-10.297-1.0781q-13.094 0-20.734 7.6094-7.6406 7.625-7.6406 20.625 0 13.422 7.25 21.297 7.25 7.8906 19.562 7.8906 11.031 0 17.453-7.1094 6.4219-7.0938 6.4219-19.297zm-8.9844 2.6406q-0.09375 7.3594-4.125 11.75-4.0312 4.4062-10.672 4.4062-7.5156 0-12.031-4.25t-5.2031-11.969z"/>
<path id="f" d="m41.109 46.297q-1.5156 0.875-3.2969 1.2812-1.7812 0.42188-3.9219 0.42188-7.625 0-11.703-4.9531t-4.0781-14.234v-28.812h-9.0312v54.688h9.0312v-8.5q2.8438 4.9844 7.375 7.3906 4.5469 2.4219 11.047 2.4219 0.92188 0 2.0469-0.125 1.125-0.10938 2.4844-0.35938z"/>
<path id="l" d="m52 44.188q3.375 6.0625 8.0625 8.9375t11.031 2.875q8.5469 0 13.188-5.9844 4.6406-5.9688 4.6406-17v-33.016h-9.0312v32.719q0 7.8594-2.7969 11.656-2.7812 3.8125-8.4844 3.8125-6.9844 0-11.047-4.6406-4.0469-4.625-4.0469-12.641v-30.906h-9.0312v32.719q0 7.9062-2.7812 11.688t-8.5938 3.7812q-6.8906 0-10.953-4.6562-4.0469-4.6562-4.0469-12.625v-30.906h-9.0312v54.688h9.0312v-8.5q3.0781 5.0312 7.375 7.4219t10.203 2.3906q5.9688 0 10.141-3.0312 4.1719-3.0156 6.1719-8.7812z"/>
<path id="j" d="m9.4219 54.688h8.9844v-54.688h-8.9844zm0 21.297h8.9844v-11.391h-8.9844z"/>
<path id="h" d="m54.891 33.016v-33.016h-8.9844v32.719q0 7.7656-3.0312 11.609-3.0312 3.8594-9.0781 3.8594-7.2812 0-11.484-4.6406-4.2031-4.625-4.2031-12.641v-30.906h-9.0312v54.688h9.0312v-8.5q3.2344 4.9375 7.5938 7.375 4.375 2.4375 10.094 2.4375 9.4219 0 14.25-5.8281 4.8438-5.8281 4.8438-17.156z"/>
<path id="g" d="m34.281 27.484q-10.891 0-15.094-2.4844t-4.2031-8.5q0-4.7812 3.1562-7.5938 3.1562-2.7969 8.5625-2.7969 7.4844 0 12 5.2969t4.5156 14.078v2zm17.922 3.7188v-31.203h-8.9844v8.2969q-3.0781-4.9688-7.6719-7.3438t-11.234-2.375q-8.3906 0-13.359 4.7188-4.9531 4.7188-4.9531 12.625 0 9.2188 6.1719 13.906 6.1875 4.6875 18.438 4.6875h12.609v0.89062q0 6.2031-4.0781 9.5938t-11.453 3.3906q-4.6875 0-9.1406-1.125-4.4375-1.125-8.5312-3.375v8.3125q4.9219 1.9062 9.5625 2.8438 4.6406 0.95312 9.0312 0.95312 11.875 0 17.734-6.1562 5.8594-6.1406 5.8594-18.641z"/>
<path id="i" d="m9.4219 75.984h8.9844v-75.984h-8.9844z"/>
</defs>
<g transform="translate(234.46 536.75) rotate(90) scale(.08 -.08)">
<use xlink:href="#k"/>
<use x="44.083984" xlink:href="#d"/>
<use x="105.607422" xlink:href="#f"/>
<use x="144.970703" xlink:href="#l"/>
<use x="242.382812" xlink:href="#j"/>
<use x="270.166016" xlink:href="#h"/>
<use x="333.544922" xlink:href="#g"/>
<use x="394.824219" xlink:href="#i"/>
</g>
</g>
<path d="m464.84 269.82 3.8173-3.0502q1.875-1.4982 0.37681-3.3731l-4.8331-6.0487q-1.4982-1.875-3.3731-0.37681l-3.8173 3.0502q-1.875 1.4982-0.37681 3.3731l4.8331 6.0487q1.4982 1.875 3.3731 0.37681z" clip-path="url(#a)" fill="#fff" stroke="#fff"/>
<g clip-path="url(#a)">
<g transform="translate(462.3 266.65) rotate(-38.626) scale(.08 -.08)">
<use xlink:href="#k"/>
</g>
</g>
<path d="m565.86 211.09 3.4028-4.2859q1.4923-1.8796-0.38727-3.3719l-6.0637-4.8143q-1.8796-1.4923-3.3719 0.38727l-3.4028 4.2859q-1.4923 1.8796 0.38727 3.3719l6.0637 4.8143q1.8796 1.4923 3.3719-0.38727z" clip-path="url(#a)" fill="#fff" stroke="#fff"/>
<g clip-path="url(#a)">
<g transform="translate(562.68 208.56) rotate(-51.552) scale(.08 -.08)">
<use xlink:href="#r"/>
</g>
</g>
<path d="m614.93 318.81 0.43074 6.1449q0.16782 2.3941 2.5619 2.2263l7.7235-0.5414q2.3941-0.16782 2.2263-2.5619l-0.43074-6.1449q-0.16782-2.3941-2.5619-2.2263l-7.7235 0.5414q-2.3941 0.16782-2.2263 2.5619z" clip-path="url(#a)" fill="#fff" stroke="#fff"/>
<g clip-path="url(#a)">
<defs>
<path id="as" d="m19.672 64.797v-56.688h11.922q15.094 0 22.094 6.8281 7 6.8438 7 21.594 0 14.641-7 21.453t-22.094 6.8125zm-9.8594 8.1094h20.266q21.188 0 31.094-8.8125 9.9219-8.8125 9.9219-27.562 0-18.859-9.9688-27.703-9.9531-8.8281-31.047-8.8281h-20.266z"/>
</defs>
<g transform="translate(618.99 318.53) rotate(85.99) scale(.08 -.08)">
<use xlink:href="#as"/>
</g>
</g>
<path d="m647.24 320.67 1.196 4.6731q0.59506 2.3251 2.9201 1.73l7.5007-1.9197q2.3251-0.59506 1.73-2.9201l-1.196-4.6731q-0.59506-2.3251-2.9201-1.73l-7.5007 1.9197q-2.3251 0.59506-1.73 2.9201z" clip-path="url(#a)" fill="#fff" stroke="#fff"/>
<g clip-path="url(#a)">
<g transform="translate(651.18 319.66) rotate(75.644) scale(.08 -.08)">
<use xlink:href="#z"/>
</g>
</g>
<path d="m739.9 209.72 5.025 2.1673q2.2038 0.95049 3.1543-1.2533l3.0663-7.1094q0.95049-2.2038-1.2533-3.1543l-5.025-2.1673q-2.2038-0.95049-3.1542 1.2533l-3.0663 7.1094q-0.95049 2.2038 1.2533 3.1543z" clip-path="url(#a)" fill="#fff" stroke="#fff"/>
<g clip-path="url(#a)">
<g transform="translate(741.51 205.99) rotate(23.331) scale(.08 -.08)">
<use xlink:href="#r"/>
</g>
</g>
<path d="m300.45 442.87 1.7272-4.7508q0.82006-2.2556-1.4355-3.0756l-7.2765-2.6455q-2.2556-0.82006-3.0756 1.4355l-1.7272 4.7508q-0.82006 2.2556 1.4355 3.0756l7.2765 2.6455q2.2556 0.82006 3.0756-1.4355z" clip-path="url(#a)" fill="#fff" stroke="#fff"/>
<g clip-path="url(#a)">
<defs>
<path id="p" d="m9.8125 72.906h46.094v-8.3125h-36.234v-21.578h34.719v-8.2969h-34.719v-26.422h37.109v-8.2969h-46.969z"/>
</defs>
<g transform="translate(296.63 441.48) rotate(-70.02) scale(.08 -.08)">
<use xlink:href="#p"/>
</g>
</g>
<path d="m322.2 440.94 0.049669-5.0548q0.023582-2.3999-2.3763-2.4235l-7.7421-0.076077q-2.3999-0.023582-2.4235 2.3763l-0.04967 5.0548q-0.023582 2.3999 2.3763 2.4235l7.7421 0.076076q2.3999 0.023582 2.4235-2.3763z" clip-path="url(#a)" fill="#fff" stroke="#fff"/>
<g clip-path="url(#a)">
<g transform="translate(318.13 440.9) rotate(-89.437) scale(.08 -.08)">
<use xlink:href="#p"/>
</g>
</g>
<path d="m331.34 437.93 1.9541 5.2333q0.83954 2.2484 3.0879 1.4088l7.2533-2.7084q2.2484-0.83954 1.4088-3.0879l-1.9541-5.2333q-0.83954-2.2484-3.0879-1.4088l-7.2533 2.7084q-2.2484 0.83954-1.4088 3.0879z" clip-path="url(#a)" fill="#fff" stroke="#fff"/>
<g clip-path="url(#a)">
<defs>
<path id="q" d="m64.406 67.281v-10.391q-4.9844 4.6406-10.625 6.9219-5.6406 2.2969-11.984 2.2969-12.5 0-19.141-7.6406t-6.6406-22.094q0-14.406 6.6406-22.047t19.141-7.6406q6.3438 0 11.984 2.2969t10.625 6.9375v-10.312q-5.1719-3.5156-10.969-5.2812-5.7812-1.75-12.219-1.75-16.562 0-26.094 10.125-9.5156 10.141-9.5156 27.672 0 17.578 9.5156 27.703 9.5312 10.141 26.094 10.141 6.5312 0 12.312-1.7344 5.7969-1.7344 10.875-5.2031z"/>
</defs>
<g transform="translate(335.15 436.51) rotate(69.524) scale(.08 -.08)">
<use xlink:href="#q"/>
</g>
</g>
<path d="m492.78 326.94 2.1837-4.559q1.0368-2.1645-1.1278-3.2013l-6.9828-3.3446q-2.1645-1.0368-3.2013 1.1278l-2.1837 4.559q-1.0368 2.1645 1.1278 3.2013l6.9828 3.3446q2.1645 1.0368 3.2013-1.1278z" clip-path="url(#a)" fill="#fff" stroke="#fff"/>
<g clip-path="url(#a)">
<g transform="translate(489.11 325.18) rotate(-64.407) scale(.08 -.08)">
<use xlink:href="#p"/>
</g>
</g>
<path d="m537.36 378.75 1.3043 5.4319q0.56035 2.3337 2.894 1.7733l7.5285-1.8077q2.3337-0.56035 1.7733-2.894l-1.3043-5.4319q-0.56035-2.3337-2.894-1.7733l-7.5285 1.8077q-2.3337 0.56035-1.7733 2.894z" clip-path="url(#a)" fill="#fff" stroke="#fff"/>
<g clip-path="url(#a)">
<g transform="translate(541.32 377.8) rotate(76.498) scale(.08 -.08)">
<use xlink:href="#q"/>
</g>
</g>
<path d="m627.4 536.75v33.808q0 2.4 2.4 2.4h7.7425q2.4 0 2.4-2.4v-33.808q0-2.4-2.4-2.4h-7.7425q-2.4 0-2.4 2.4z" clip-path="url(#a)" fill="#fff" stroke="#fff"/>
<g clip-path="url(#a)">
<g transform="translate(631.46 536.75) rotate(90) scale(.08 -.08)">
<use xlink:href="#k"/>
<use x="44.083984" xlink:href="#d"/>
<use x="105.607422" xlink:href="#f"/>
<use x="144.970703" xlink:href="#l"/>
<use x="242.382812" xlink:href="#j"/>
<use x="270.166016" xlink:href="#h"/>
<use x="333.544922" xlink:href="#g"/>
<use x="394.824219" xlink:href="#i"/>
</g>
</g>
<path d="m692.42 536.75v33.808q0 2.4 2.4 2.4h7.7425q2.4 0 2.4-2.4v-33.808q0-2.4-2.4-2.4h-7.7425q-2.4 0-2.4 2.4z" clip-path="url(#a)" fill="#fff" stroke="#fff"/>
<g clip-path="url(#a)">
<g transform="translate(696.49 536.75) rotate(90) scale(.08 -.08)">
<use xlink:href="#k"/>
<use x="44.083984" xlink:href="#d"/>
<use x="105.607422" xlink:href="#f"/>
<use x="144.970703" xlink:href="#l"/>
<use x="242.382812" xlink:href="#j"/>
<use x="270.166016" xlink:href="#h"/>
<use x="333.544922" xlink:href="#g"/>
<use x="394.824219" xlink:href="#i"/>
</g>
</g>
<path d="m828.43 385.02 2.2154-4.5437q1.0518-2.1572-1.1054-3.2091l-6.9593-3.3932q-2.1572-1.0518-3.2091 1.1054l-2.2154 4.5437q-1.0518 2.1572 1.1054 3.2091l6.9593 3.3932q2.1572 1.0518 3.2091-1.1054z" clip-path="url(#a)" fill="#fff" stroke="#fff"/>
<g clip-path="url(#a)">
<g transform="translate(824.78 383.24) rotate(-64.007) scale(.08 -.08)">
<use xlink:href="#p"/>
</g>
</g>
<path d="m865.52 383.85 0.98355-5.499q0.42256-2.3625-1.9399-2.7851l-7.6215-1.3632q-2.3625-0.42256-2.7851 1.9399l-0.98355 5.499q-0.42256 2.3625 1.9399 2.7851l7.6215 1.3632q2.3625 0.42256 2.7851-1.9399z" clip-path="url(#a)" fill="#fff" stroke="#fff"/>
<g clip-path="url(#a)">
<g transform="translate(861.52 383.14) rotate(-79.859) scale(.08 -.08)">
<use xlink:href="#q"/>
</g>
</g>
<path d="m952.44 325.44 4.0397 3.0387q1.918 1.4427 3.3607-0.47524l4.6543-6.1874q1.4427-1.918-0.47524-3.3607l-4.0397-3.0387q-1.918-1.4427-3.3607 0.47524l-4.6543 6.1874q-1.4427 1.918 0.47524 3.3607z" clip-path="url(#a)" fill="#fff" stroke="#fff"/>
<g clip-path="url(#a)">
<g transform="translate(954.88 322.2) rotate(36.951) scale(.08 -.08)">
<use xlink:href="#p"/>
</g>
</g>
<path d="m760.87 536.75v33.808q0 2.4 2.4 2.4h7.7425q2.4 0 2.4-2.4v-33.808q0-2.4-2.4-2.4h-7.7425q-2.4 0-2.4 2.4z" clip-path="url(#a)" fill="#fff" stroke="#fff"/>
<g clip-path="url(#a)">
<g transform="translate(764.94 536.75) rotate(90) scale(.08 -.08)">
<use xlink:href="#k"/>
<use x="44.083984" xlink:href="#d"/>
<use x="105.607422" xlink:href="#f"/>
<use x="144.970703" xlink:href="#l"/>
<use x="242.382812" xlink:href="#j"/>
<use x="270.166016" xlink:href="#h"/>
<use x="333.544922" xlink:href="#g"/>
<use x="394.824219" xlink:href="#i"/>
</g>
</g>
<path d="m832.74 536.75v33.808q0 2.4 2.4 2.4h7.7425q2.4 0 2.4-2.4v-33.808q0-2.4-2.4-2.4h-7.7425q-2.4 0-2.4 2.4z" clip-path="url(#a)" fill="#fff" stroke="#fff"/>
<g clip-path="url(#a)">
<g transform="translate(836.81 536.75) rotate(90) scale(.08 -.08)">
<use xlink:href="#k"/>
<use x="44.083984" xlink:href="#d"/>
<use x="105.607422" xlink:href="#f"/>
<use x="144.970703" xlink:href="#l"/>
<use x="242.382812" xlink:href="#j"/>
<use x="270.166016" xlink:href="#h"/>
<use x="333.544922" xlink:href="#g"/>
<use x="394.824219" xlink:href="#i"/>
</g>
</g>
<path d="m977.38 444.81 4.0189-3.8403q1.7352-1.6581 0.0771-3.3932l-5.349-5.5977q-1.6581-1.7352-3.3932-0.077101l-4.0189 3.8403q-1.7352 1.6581-0.0771 3.3932l5.349 5.5977q1.6581 1.7352 3.3932 0.0771z" clip-path="url(#a)" fill="#fff" stroke="#fff"/>
<g clip-path="url(#a)">
<defs>
<path id="y" d="m44.391 34.188q3.1719-1.0781 6.1719-4.5938t6.0312-9.6719l10.016-19.922h-10.609l-9.3125 18.703q-3.625 7.3281-7.0156 9.7188t-9.25 2.3906h-10.75v-30.812h-9.8594v72.906h22.266q12.5 0 18.656-5.2344 6.1562-5.2188 6.1562-15.766 0-6.8906-3.2031-11.438-3.2031-4.5312-9.2969-6.2812zm-24.719 30.609v-25.875h12.406q7.125 0 10.766 3.2969t3.6406 9.6875-3.6406 9.6406-10.766 3.25z"/>
</defs>
<g transform="translate(974.57 441.87) rotate(-43.698) scale(.08 -.08)">
<use xlink:href="#y"/>
</g>
</g>
<path d="m1019.4 442.89 1.7478-4.7432q0.82982-2.252-1.4222-3.0818l-7.265-2.677q-2.252-0.82982-3.0818 1.4222l-1.7478 4.7432q-0.82982 2.252 1.4222 3.0818l7.265 2.677q2.252 0.82982 3.0818-1.4222z" clip-path="url(#a)" fill="#fff" stroke="#fff"/>
<g clip-path="url(#a)">
<g transform="translate(1015.6 441.49) rotate(-69.772) scale(.08 -.08)">
<use xlink:href="#p"/>
</g>
</g>
<path d="m1048.7 437.72 1.7935 5.2905q0.77054 2.2729 3.0435 1.5024l7.3326-2.4858q2.2729-0.77054 1.5024-3.0435l-1.7935-5.2905q-0.77054-2.2729-3.0435-1.5024l-7.3326 2.4858q-2.2729 0.77054-1.5024 3.0435z" clip-path="url(#a)" fill="#fff" stroke="#fff"/>
<g clip-path="url(#a)">
<g transform="translate(1052.5 436.42) rotate(71.273) scale(.08 -.08)">
<use xlink:href="#q"/>
</g>
</g>
<path d="m1091.9 440.95 4.2888 3.9859q1.758 1.6339 3.3918-0.12414l5.2709-5.6713q1.6339-1.758-0.12414-3.3918l-4.2888-3.9859q-1.758-1.6339-3.3918 0.12414l-5.2709 5.6713q-1.6339 1.758 0.12414 3.3918z" clip-path="url(#a)" fill="#fff" stroke="#fff"/>
<g clip-path="url(#a)">
<g transform="translate(1094.6 437.98) rotate(42.904) scale(.08 -.08)">
<use xlink:href="#al"/>
</g>
</g>
<path d="m908.04 536.75v33.808q0 2.4 2.4 2.4h7.7425q2.4 0 2.4-2.4v-33.808q0-2.4-2.4-2.4h-7.7425q-2.4 0-2.4 2.4z" clip-path="url(#a)" fill="#fff" stroke="#fff"/>
<g clip-path="url(#a)">
<g transform="translate(912.1 536.75) rotate(90) scale(.08 -.08)">
<use xlink:href="#k"/>
<use x="44.083984" xlink:href="#d"/>
<use x="105.607422" xlink:href="#f"/>
<use x="144.970703" xlink:href="#l"/>
<use x="242.382812" xlink:href="#j"/>
<use x="270.166016" xlink:href="#h"/>
<use x="333.544922" xlink:href="#g"/>
<use x="394.824219" xlink:href="#i"/>
</g>
</g>
<path d="m986.76 536.75v33.808q0 2.4 2.4 2.4h7.7425q2.4 0 2.4-2.4v-33.808q0-2.4-2.4-2.4h-7.7425q-2.4 0-2.4 2.4z" clip-path="url(#a)" fill="#fff" stroke="#fff"/>
<g clip-path="url(#a)">
<g transform="translate(990.82 536.75) rotate(90) scale(.08 -.08)">
<use xlink:href="#k"/>
<use x="44.083984" xlink:href="#d"/>
<use x="105.607422" xlink:href="#f"/>
<use x="144.970703" xlink:href="#l"/>
<use x="242.382812" xlink:href="#j"/>
<use x="270.166016" xlink:href="#h"/>
<use x="333.544922" xlink:href="#g"/>
<use x="394.824219" xlink:href="#i"/>
</g>
</g>
<path d="m1068.9 536.75v33.808q0 2.4 2.4 2.4h7.7425q2.4 0 2.4-2.4v-33.808q0-2.4-2.4-2.4h-7.7425q-2.4 0-2.4 2.4z" clip-path="url(#a)" fill="#fff" stroke="#fff"/>
<g clip-path="url(#a)">
<g transform="translate(1073 536.75) rotate(90) scale(.08 -.08)">
<use xlink:href="#k"/>
<use x="44.083984" xlink:href="#d"/>
<use x="105.607422" xlink:href="#f"/>
<use x="144.970703" xlink:href="#l"/>
<use x="242.382812" xlink:href="#j"/>
<use x="270.166016" xlink:href="#h"/>
<use x="333.544922" xlink:href="#g"/>
<use x="394.824219" xlink:href="#i"/>
</g>
</g>
<path d="m438.7 443.24 2.0821-4.6063q0.98853-2.187-1.1984-3.1755l-7.0552-3.189q-2.187-0.98853-3.1755 1.1984l-2.0821 4.6063q-0.98853 2.187 1.1984 3.1755l7.0552 3.189q2.187 0.98853 3.1755-1.1984z" clip-path="url(#a)" fill="#fff" stroke="#fff"/>
<g clip-path="url(#a)">
<g transform="translate(435 441.57) rotate(-65.677) scale(.08 -.08)">
<use xlink:href="#p"/>
</g>
</g>
<path d="m465.94 441.21 0.05489-5.586q0.023582-2.3999-2.3763-2.4235l-7.7421-0.076077q-2.3999-0.023582-2.4235 2.3763l-0.054889 5.586q-0.023582 2.3999 2.3763 2.4235l7.7421 0.076076q2.3999 0.023582 2.4235-2.3763z" clip-path="url(#a)" fill="#fff" stroke="#fff"/>
<g clip-path="url(#a)">
<g transform="translate(461.87 441.17) rotate(-89.437) scale(.08 -.08)">
<use xlink:href="#q"/>
</g>
</g>
<path d="m480.21 438.46 2.3307 5.0465q1.0063 2.1789 3.1851 1.1726l7.0291-3.2463q2.1789-1.0063 1.1726-3.1851l-2.3307-5.0465q-1.0063-2.1789-3.1851-1.1726l-7.0291 3.2463q-2.1789 1.0063-1.1726 3.1851z" clip-path="url(#a)" fill="#fff" stroke="#fff"/>
<g clip-path="url(#a)">
<g transform="translate(483.9 436.76) rotate(65.211) scale(.08 -.08)">
<use xlink:href="#y"/>
</g>
</g>
<path d="m565.79 536.75v33.808q0 2.4 2.4 2.4h7.7425q2.4 0 2.4-2.4v-33.808q0-2.4-2.4-2.4h-7.7425q-2.4 0-2.4 2.4z" clip-path="url(#a)" fill="#fff" stroke="#fff"/>
<g clip-path="url(#a)">
<g transform="translate(569.86 536.75) rotate(90) scale(.08 -.08)">
<use xlink:href="#k"/>
<use x="44.083984" xlink:href="#d"/>
<use x="105.607422" xlink:href="#f"/>
<use x="144.970703" xlink:href="#l"/>
<use x="242.382812" xlink:href="#j"/>
<use x="270.166016" xlink:href="#h"/>
<use x="333.544922" xlink:href="#g"/>
<use x="394.824219" xlink:href="#i"/>
</g>
</g>
<path d="m401.51 536.75v33.808q0 2.4 2.4 2.4h7.7425q2.4 0 2.4-2.4v-33.808q0-2.4-2.4-2.4h-7.7425q-2.4 0-2.4 2.4z" clip-path="url(#a)" fill="#fff" stroke="#fff"/>
<g clip-path="url(#a)">
<g transform="translate(405.58 536.75) rotate(90) scale(.08 -.08)">
<use xlink:href="#k"/>
<use x="44.083984" xlink:href="#d"/>
<use x="105.607422" xlink:href="#f"/>
<use x="144.970703" xlink:href="#l"/>
<use x="242.382812" xlink:href="#j"/>
<use x="270.166016" xlink:href="#h"/>
<use x="333.544922" xlink:href="#g"/>
<use x="394.824219" xlink:href="#i"/>
</g>
</g>
<path d="m452.85 536.75v33.808q0 2.4 2.4 2.4h7.7425q2.4 0 2.4-2.4v-33.808q0-2.4-2.4-2.4h-7.7425q-2.4 0-2.4 2.4z" clip-path="url(#a)" fill="#fff" stroke="#fff"/>
<g clip-path="url(#a)">
<g transform="translate(456.92 536.75) rotate(90) scale(.08 -.08)">
<use xlink:href="#k"/>
<use x="44.083984" xlink:href="#d"/>
<use x="105.607422" xlink:href="#f"/>
<use x="144.970703" xlink:href="#l"/>
<use x="242.382812" xlink:href="#j"/>
<use x="270.166016" xlink:href="#h"/>
<use x="333.544922" xlink:href="#g"/>
<use x="394.824219" xlink:href="#i"/>
</g>
</g>
<path d="m507.61 536.75v33.808q0 2.4 2.4 2.4h7.7425q2.4 0 2.4-2.4v-33.808q0-2.4-2.4-2.4h-7.7425q-2.4 0-2.4 2.4z" clip-path="url(#a)" fill="#fff" stroke="#fff"/>
<g clip-path="url(#a)">
<g transform="translate(511.67 536.75) rotate(90) scale(.08 -.08)">
<use xlink:href="#k"/>
<use x="44.083984" xlink:href="#d"/>
<use x="105.607422" xlink:href="#f"/>
<use x="144.970703" xlink:href="#l"/>
<use x="242.382812" xlink:href="#j"/>
<use x="270.166016" xlink:href="#h"/>
<use x="333.544922" xlink:href="#g"/>
<use x="394.824219" xlink:href="#i"/>
</g>
</g>
<path d="m268.04 536.75v33.808q0 2.4 2.4 2.4h7.7425q2.4 0 2.4-2.4v-33.808q0-2.4-2.4-2.4h-7.7425q-2.4 0-2.4 2.4z" clip-path="url(#a)" fill="#fff" stroke="#fff"/>
<g clip-path="url(#a)">
<g transform="translate(272.1 536.75) rotate(90) scale(.08 -.08)">
<use xlink:href="#k"/>
<use x="44.083984" xlink:href="#d"/>
<use x="105.607422" xlink:href="#f"/>
<use x="144.970703" xlink:href="#l"/>
<use x="242.382812" xlink:href="#j"/>
<use x="270.166016" xlink:href="#h"/>
<use x="333.544922" xlink:href="#g"/>
<use x="394.824219" xlink:href="#i"/>
</g>
</g>
<path d="m309.11 536.75v33.808q0 2.4 2.4 2.4h7.7425q2.4 0 2.4-2.4v-33.808q0-2.4-2.4-2.4h-7.7425q-2.4 0-2.4 2.4z" clip-path="url(#a)" fill="#fff" stroke="#fff"/>
<g clip-path="url(#a)">
<g transform="translate(313.17 536.75) rotate(90) scale(.08 -.08)">
<use xlink:href="#k"/>
<use x="44.083984" xlink:href="#d"/>
<use x="105.607422" xlink:href="#f"/>
<use x="144.970703" xlink:href="#l"/>
<use x="242.382812" xlink:href="#j"/>
<use x="270.166016" xlink:href="#h"/>
<use x="333.544922" xlink:href="#g"/>
<use x="394.824219" xlink:href="#i"/>
</g>
</g>
<path d="m353.6 536.75v33.808q0 2.4 2.4 2.4h7.7425q2.4 0 2.4-2.4v-33.808q0-2.4-2.4-2.4h-7.7425q-2.4 0-2.4 2.4z" clip-path="url(#a)" fill="#fff" stroke="#fff"/>
<g clip-path="url(#a)">
<g transform="translate(357.66 536.75) rotate(90) scale(.08 -.08)">
<use xlink:href="#k"/>
<use x="44.083984" xlink:href="#d"/>
<use x="105.607422" xlink:href="#f"/>
<use x="144.970703" xlink:href="#l"/>
<use x="242.382812" xlink:href="#j"/>
<use x="270.166016" xlink:href="#h"/>
<use x="333.544922" xlink:href="#g"/>
<use x="394.824219" xlink:href="#i"/>
</g>
</g>
<path d="m63.993 441.16 0.2233-5.0501q0.10602-2.3977-2.2916-2.5037l-7.7349-0.34203q-2.3977-0.10602-2.5037 2.2916l-0.22331 5.0501q-0.10602 2.3977 2.2916 2.5037l7.7349 0.34203q2.3977 0.10602 2.5037-2.2916z" clip-path="url(#a)" fill="#fff" stroke="#fff"/>
<g clip-path="url(#a)">
<g transform="translate(59.933 440.98) rotate(-87.468) scale(.08 -.08)">
<use xlink:href="#p"/>
</g>
</g>
<path d="m56.585 435.84 0.24677 5.5808q0.10602 2.3977 2.5037 2.2916l7.7349-0.34203q2.3977-0.10602 2.2916-2.5037l-0.24677-5.5808q-0.10602-2.3977-2.5037-2.2916l-7.7349 0.34203q-2.3977 0.10602-2.2916 2.5037z" clip-path="url(#a)" fill="#fff" stroke="#fff"/>
<g clip-path="url(#a)">
<g transform="translate(60.645 435.66) rotate(87.468) scale(.08 -.08)">
<use xlink:href="#q"/>
</g>
</g>
<path d="m72.959 536.75v33.808q0 2.4 2.4 2.4h7.7425q2.4 0 2.4-2.4v-33.808q0-2.4-2.4-2.4h-7.7425q-2.4 0-2.4 2.4z" clip-path="url(#a)" fill="#fff" stroke="#fff"/>
<g clip-path="url(#a)">
<g transform="translate(77.022 536.75) rotate(90) scale(.08 -.08)">
<use xlink:href="#k"/>
<use x="44.083984" xlink:href="#d"/>
<use x="105.607422" xlink:href="#f"/>
<use x="144.970703" xlink:href="#l"/>
<use x="242.382812" xlink:href="#j"/>
<use x="270.166016" xlink:href="#h"/>
<use x="333.544922" xlink:href="#g"/>
<use x="394.824219" xlink:href="#i"/>
</g>
</g>
<path d="m90.071 536.75v33.808q0 2.4 2.4 2.4h7.7425q2.4 0 2.4-2.4v-33.808q0-2.4-2.4-2.4h-7.7425q-2.4 0-2.4 2.4z" clip-path="url(#a)" fill="#fff" stroke="#fff"/>
<g clip-path="url(#a)">
<g transform="translate(94.135 536.75) rotate(90) scale(.08 -.08)">
<use xlink:href="#k"/>
<use x="44.083984" xlink:href="#d"/>
<use x="105.607422" xlink:href="#f"/>
<use x="144.970703" xlink:href="#l"/>
<use x="242.382812" xlink:href="#j"/>
<use x="270.166016" xlink:href="#h"/>
<use x="333.544922" xlink:href="#g"/>
<use x="394.824219" xlink:href="#i"/>
</g>
</g>
<path d="m134.97 442.4 1.1746-5.4332q0.50711-2.3458-1.8387-2.8529l-7.5677-1.636q-2.3458-0.50711-2.8529 1.8387l-1.1745 5.4332q-0.50711 2.3458 1.8387 2.8529l7.5677 1.636q2.3458 0.50711 2.8529-1.8387z" clip-path="url(#a)" fill="#fff" stroke="#fff"/>
<g clip-path="url(#a)">
<g transform="translate(131 441.54) rotate(-77.802) scale(.08 -.08)">
<use xlink:href="#y"/>
</g>
</g>
<path d="m147.65 440.94 0.04967-5.0548q0.023582-2.3999-2.3763-2.4235l-7.7421-0.076077q-2.3999-0.023582-2.4235 2.3763l-0.049669 5.0548q-0.023582 2.3999 2.3763 2.4235l7.7421 0.076076q2.3999 0.023582 2.4235-2.3763z" clip-path="url(#a)" fill="#fff" stroke="#fff"/>
<g clip-path="url(#a)">
<g transform="translate(143.59 440.9) rotate(-89.437) scale(.08 -.08)">
<use xlink:href="#p"/>
</g>
</g>
<path d="m148.36 437.01 1.2315 5.4488q0.52907 2.341 2.87 1.8119l7.552-1.7068q2.341-0.52907 1.8119-2.87l-1.2315-5.4488q-0.52907-2.341-2.87-1.8119l-7.552 1.7068q-2.341 0.52907-1.8119 2.87z" clip-path="url(#a)" fill="#fff" stroke="#fff"/>
<g clip-path="url(#a)">
<g transform="translate(152.33 436.12) rotate(77.265) scale(.08 -.08)">
<use xlink:href="#q"/>
</g>
</g>
<path d="m110.61 536.75v33.808q0 2.4 2.4 2.4h7.7425q2.4 0 2.4-2.4v-33.808q0-2.4-2.4-2.4h-7.7425q-2.4 0-2.4 2.4z" clip-path="url(#a)" fill="#fff" stroke="#fff"/>
<g clip-path="url(#a)">
<g transform="translate(114.67 536.75) rotate(90) scale(.08 -.08)">
<use xlink:href="#k"/>
<use x="44.083984" xlink:href="#d"/>
<use x="105.607422" xlink:href="#f"/>
<use x="144.970703" xlink:href="#l"/>
<use x="242.382812" xlink:href="#j"/>
<use x="270.166016" xlink:href="#h"/>
<use x="333.544922" xlink:href="#g"/>
<use x="394.824219" xlink:href="#i"/>
</g>
</g>
<path d="m134.56 536.75v33.808q0 2.4 2.4 2.4h7.7425q2.4 0 2.4-2.4v-33.808q0-2.4-2.4-2.4h-7.7425q-2.4 0-2.4 2.4z" clip-path="url(#a)" fill="#fff" stroke="#fff"/>
<g clip-path="url(#a)">
<g transform="translate(138.63 536.75) rotate(90) scale(.08 -.08)">
<use xlink:href="#k"/>
<use x="44.083984" xlink:href="#d"/>
<use x="105.607422" xlink:href="#f"/>
<use x="144.970703" xlink:href="#l"/>
<use x="242.382812" xlink:href="#j"/>
<use x="270.166016" xlink:href="#h"/>
<use x="333.544922" xlink:href="#g"/>
<use x="394.824219" xlink:href="#i"/>
</g>
</g>
<path d="m161.94 536.75v33.808q0 2.4 2.4 2.4h7.7425q2.4 0 2.4-2.4v-33.808q0-2.4-2.4-2.4h-7.7425q-2.4 0-2.4 2.4z" clip-path="url(#a)" fill="#fff" stroke="#fff"/>
<g clip-path="url(#a)">
<g transform="translate(166.01 536.75) rotate(90) scale(.08 -.08)">
<use xlink:href="#k"/>
<use x="44.083984" xlink:href="#d"/>
<use x="105.607422" xlink:href="#f"/>
<use x="144.970703" xlink:href="#l"/>
<use x="242.382812" xlink:href="#j"/>
<use x="270.166016" xlink:href="#h"/>
<use x="333.544922" xlink:href="#g"/>
<use x="394.824219" xlink:href="#i"/>
</g>
</g>
<path d="m49.001 536.75v33.808q0 2.4 2.4 2.4h7.7425q2.4 0 2.4-2.4v-33.808q0-2.4-2.4-2.4h-7.7425q-2.4 0-2.4 2.4z" clip-path="url(#a)" fill="#fff" stroke="#fff"/>
<g clip-path="url(#a)">
<g transform="translate(53.065 536.75) rotate(90) scale(.08 -.08)">
<use xlink:href="#k"/>
<use x="44.083984" xlink:href="#d"/>
<use x="105.607422" xlink:href="#f"/>
<use x="144.970703" xlink:href="#l"/>
<use x="242.382812" xlink:href="#j"/>
<use x="270.166016" xlink:href="#h"/>
<use x="333.544922" xlink:href="#g"/>
<use x="394.824219" xlink:href="#i"/>
</g>
</g>
<path d="m59.269 536.75v33.808q0 2.4 2.4 2.4h7.7425q2.4 0 2.4-2.4v-33.808q0-2.4-2.4-2.4h-7.7425q-2.4 0-2.4 2.4z" clip-path="url(#a)" fill="#fff" stroke="#fff"/>
<g clip-path="url(#a)">
<g transform="translate(63.333 536.75) rotate(90) scale(.08 -.08)">
<use xlink:href="#k"/>
<use x="44.083984" xlink:href="#d"/>
<use x="105.607422" xlink:href="#f"/>
<use x="144.970703" xlink:href="#l"/>
<use x="242.382812" xlink:href="#j"/>
<use x="270.166016" xlink:href="#h"/>
<use x="333.544922" xlink:href="#g"/>
<use x="394.824219" xlink:href="#i"/>
</g>
</g>
<path d="m205.09 154.32 6.8994-7.3899q1.6378-1.7543-0.11643-3.3921l-5.6594-5.2838q-1.7543-1.6378-3.3921 0.11643l-6.8994 7.3899q-1.6378 1.7543 0.11643 3.3921l5.6594 5.2838q1.7543 1.6378 3.3921-0.11643z" clip-path="url(#a)" fill="#fff" stroke="#fff"/>
<g clip-path="url(#a)">
<g transform="translate(202.12 151.55) rotate(-46.966) scale(.08 -.08)">
<use xlink:href="#v"/>
<use x="57.962891" xlink:href="#r"/>
</g>
</g>
<path d="m280.42 268.71 1.6237-9.8838q0.38904-2.3683-1.9792-2.7573l-7.6401-1.2551q-2.3683-0.38904-2.7573 1.9792l-1.6237 9.8838q-0.38904 2.3683 1.9792 2.7573l7.6401 1.2551q2.3683 0.38904 2.7573-1.9792z" clip-path="url(#a)" fill="#fff" stroke="#fff"/>
<g clip-path="url(#a)">
<g transform="translate(276.41 268.05) rotate(-80.671) scale(.08 -.08)">
<use xlink:href="#v"/>
<use x="55.712891" xlink:href="#y"/>
</g>
</g>
<path d="m454.27 91.755 9.3965 3.7306q2.2306 0.88559 3.1162-1.345l2.857-7.1961q0.88559-2.2306-1.345-3.1162l-9.3965-3.7306q-2.2306-0.88559-3.1162 1.345l-2.857 7.1961q-0.88559 2.2306 1.345 3.1162z" clip-path="url(#a)" fill="#fff" stroke="#fff"/>
<g clip-path="url(#a)">
<g transform="translate(455.77 87.978) rotate(21.654) scale(.08 -.08)">
<use xlink:href="#v"/>
<use x="57.962891" xlink:href="#r"/>
</g>
</g>
<path d="m196.17 536.75v33.808q0 2.4 2.4 2.4h7.7425q2.4 0 2.4-2.4v-33.808q0-2.4-2.4-2.4h-7.7425q-2.4 0-2.4 2.4z" clip-path="url(#a)" fill="#fff" stroke="#fff"/>
<g clip-path="url(#a)">
<g transform="translate(200.23 536.75) rotate(90) scale(.08 -.08)">
<use xlink:href="#k"/>
<use x="44.083984" xlink:href="#d"/>
<use x="105.607422" xlink:href="#f"/>
<use x="144.970703" xlink:href="#l"/>
<use x="242.382812" xlink:href="#j"/>
<use x="270.166016" xlink:href="#h"/>
<use x="333.544922" xlink:href="#g"/>
<use x="394.824219" xlink:href="#i"/>
</g>
</g>
<path d="m1154.5 536.75v33.808q0 2.4 2.4 2.4h7.7425q2.4 0 2.4-2.4v-33.808q0-2.4-2.4-2.4h-7.7425q-2.4 0-2.4 2.4z" clip-path="url(#a)" fill="#fff" stroke="#fff"/>
<g clip-path="url(#a)">
<g transform="translate(1158.5 536.75) rotate(90) scale(.08 -.08)">
<use xlink:href="#k"/>
<use x="44.083984" xlink:href="#d"/>
<use x="105.607422" xlink:href="#f"/>
<use x="144.970703" xlink:href="#l"/>
<use x="242.382812" xlink:href="#j"/>
<use x="270.166016" xlink:href="#h"/>
<use x="333.544922" xlink:href="#g"/>
<use x="394.824219" xlink:href="#i"/>
</g>
</g>
<defs>
<path id="b" d="m0 8.6603c2.2967 0 4.4997-0.9125 6.1237-2.5365 1.624-1.624 2.5365-3.827 2.5365-6.1237s-0.9125-4.4997-2.5365-6.1237c-1.624-1.624-3.827-2.5365-6.1237-2.5365s-4.4997 0.9125-6.1237 2.5365c-1.624 1.624-2.5365 3.827-2.5365 6.1237s0.9125 4.4997 2.5365 6.1237c1.624 1.624 3.827 2.5365 6.1237 2.5365z"/>
</defs>
<g clip-path="url(#a)">
<use x="55.272727" y="610.909091" fill="#ffffff" stroke="#ffffff" xlink:href="#b"/>
</g>
<g clip-path="url(#a)">
<use x="65.540107" y="610.909091" fill="#ffffff" stroke="#ffffff" xlink:href="#b"/>
</g>
<g clip-path="url(#a)">
<use x="79.229947" y="610.909091" fill="#ffffff" stroke="#ffffff" xlink:href="#b"/>
</g>
<g clip-path="url(#a)">
<use x="96.342246" y="610.909091" fill="#ffffff" stroke="#ffffff" xlink:href="#b"/>
</g>
<g clip-path="url(#a)">
<use x="116.877005" y="610.909091" fill="#ffffff" stroke="#ffffff" xlink:href="#b"/>
</g>
<g clip-path="url(#a)">
<use x="140.834225" y="610.909091" fill="#ffffff" stroke="#ffffff" xlink:href="#b"/>
</g>
<g clip-path="url(#a)">
<use x="168.213904" y="610.909091" fill="#ffffff" stroke="#ffffff" xlink:href="#b"/>
</g>
<g clip-path="url(#a)">
<use x="202.438503" y="610.909091" fill="#ffffff" stroke="#ffffff" xlink:href="#b"/>
</g>
<g clip-path="url(#a)">
<use x="236.663102" y="610.909091" fill="#ffffff" stroke="#ffffff" xlink:href="#b"/>
</g>
<g clip-path="url(#a)">
<use x="274.31016" y="610.909091" fill="#ffffff" stroke="#ffffff" xlink:href="#b"/>
</g>
<g clip-path="url(#a)">
<use x="315.379679" y="610.909091" fill="#ffffff" stroke="#ffffff" xlink:href="#b"/>
</g>
<g clip-path="url(#a)">
<use x="359.871658" y="610.909091" fill="#ffffff" stroke="#ffffff" xlink:href="#b"/>
</g>
<g clip-path="url(#a)">
<use x="407.786096" y="610.909091" fill="#ffffff" stroke="#ffffff" xlink:href="#b"/>
</g>
<g clip-path="url(#a)">
<use x="459.122995" y="610.909091" fill="#ffffff" stroke="#ffffff" xlink:href="#b"/>
</g>
<g clip-path="url(#a)">
<use x="513.882353" y="610.909091" fill="#ffffff" stroke="#ffffff" xlink:href="#b"/>
</g>
<g clip-path="url(#a)">
<use x="572.064171" y="610.909091" fill="#ffffff" stroke="#ffffff" xlink:href="#b"/>
</g>
<g clip-path="url(#a)">
<use x="633.668449" y="610.909091" fill="#ffffff" stroke="#ffffff" xlink:href="#b"/>
</g>
<g clip-path="url(#a)">
<use x="698.695187" y="610.909091" fill="#ffffff" stroke="#ffffff" xlink:href="#b"/>
</g>
<g clip-path="url(#a)">
<use x="767.144385" y="610.909091" fill="#ffffff" stroke="#ffffff" xlink:href="#b"/>
</g>
<g clip-path="url(#a)">
<use x="839.016043" y="610.909091" fill="#ffffff" stroke="#ffffff" xlink:href="#b"/>
</g>
<g clip-path="url(#a)">
<use x="914.31016" y="610.909091" fill="#ffffff" stroke="#ffffff" xlink:href="#b"/>
</g>
<g clip-path="url(#a)">
<use x="993.026738" y="610.909091" fill="#ffffff" stroke="#ffffff" xlink:href="#b"/>
</g>
<g clip-path="url(#a)">
<use x="1075.165775" y="610.909091" fill="#ffffff" stroke="#ffffff" xlink:href="#b"/>
</g>
<g clip-path="url(#a)">
<use x="1160.727273" y="610.909091" fill="#ffffff" stroke="#ffffff" xlink:href="#b"/>
</g>
<g clip-path="url(#a)">
<use x="171.636364" y="380.304537" fill="#ffffff" stroke="#ffffff" xlink:href="#b"/>
</g>
<g clip-path="url(#a)">
<use x="285.682709" y="29.090909" fill="#ffffff" stroke="#ffffff" xlink:href="#b"/>
</g>
<g clip-path="url(#a)">
<use x="94.488414" y="263.596881" fill="#ffffff" stroke="#ffffff" xlink:href="#b"/>
</g>
<g clip-path="url(#a)">
<use x="236.663102" y="496.403265" fill="#ffffff" stroke="#ffffff" xlink:href="#b"/>
</g>
<g clip-path="url(#a)">
<use x="609.14082" y="146.492019" fill="#ffffff" stroke="#ffffff" xlink:href="#b"/>
</g>
<g clip-path="url(#a)">
<use x="316.520499" y="380.304537" fill="#ffffff" stroke="#ffffff" xlink:href="#b"/>
</g>
<g clip-path="url(#a)">
<use x="516.163993" y="263.596881" fill="#ffffff" stroke="#ffffff" xlink:href="#b"/>
</g>
<g clip-path="url(#a)">
<use x="633.668449" y="496.403265" fill="#ffffff" stroke="#ffffff" xlink:href="#b"/>
</g>
<g clip-path="url(#a)">
<use x="698.695187" y="496.403265" fill="#ffffff" stroke="#ffffff" xlink:href="#b"/>
</g>
<g clip-path="url(#a)">
<use x="880.655971" y="263.596881" fill="#ffffff" stroke="#ffffff" xlink:href="#b"/>
</g>
<g clip-path="url(#a)">
<use x="767.144385" y="496.403265" fill="#ffffff" stroke="#ffffff" xlink:href="#b"/>
</g>
<g clip-path="url(#a)">
<use x="839.016043" y="496.403265" fill="#ffffff" stroke="#ffffff" xlink:href="#b"/>
</g>
<g clip-path="url(#a)">
<use x="1035.807487" y="380.304537" fill="#ffffff" stroke="#ffffff" xlink:href="#b"/>
</g>
<g clip-path="url(#a)">
<use x="914.31016" y="496.403265" fill="#ffffff" stroke="#ffffff" xlink:href="#b"/>
</g>
<g clip-path="url(#a)">
<use x="993.026738" y="496.403265" fill="#ffffff" stroke="#ffffff" xlink:href="#b"/>
</g>
<g clip-path="url(#a)">
<use x="1075.165775" y="496.403265" fill="#ffffff" stroke="#ffffff" xlink:href="#b"/>
</g>
<g clip-path="url(#a)">
<use x="460.263815" y="380.304537" fill="#ffffff" stroke="#ffffff" xlink:href="#b"/>
</g>
<g clip-path="url(#a)">
<use x="572.064171" y="496.403265" fill="#ffffff" stroke="#ffffff" xlink:href="#b"/>
</g>
<g clip-path="url(#a)">
<use x="407.786096" y="496.403265" fill="#ffffff" stroke="#ffffff" xlink:href="#b"/>
</g>
<g clip-path="url(#a)">
<use x="459.122995" y="496.403265" fill="#ffffff" stroke="#ffffff" xlink:href="#b"/>
</g>
<g clip-path="url(#a)">
<use x="513.882353" y="496.403265" fill="#ffffff" stroke="#ffffff" xlink:href="#b"/>
</g>
<g clip-path="url(#a)">
<use x="274.31016" y="496.403265" fill="#ffffff" stroke="#ffffff" xlink:href="#b"/>
</g>
<g clip-path="url(#a)">
<use x="315.379679" y="496.403265" fill="#ffffff" stroke="#ffffff" xlink:href="#b"/>
</g>
<g clip-path="url(#a)">
<use x="359.871658" y="496.403265" fill="#ffffff" stroke="#ffffff" xlink:href="#b"/>
</g>
<g clip-path="url(#a)">
<use x="60.406417" y="380.304537" fill="#ffffff" stroke="#ffffff" xlink:href="#b"/>
</g>
<g clip-path="url(#a)">
<use x="79.229947" y="496.403265" fill="#ffffff" stroke="#ffffff" xlink:href="#b"/>
</g>
<g clip-path="url(#a)">
<use x="96.342246" y="496.403265" fill="#ffffff" stroke="#ffffff" xlink:href="#b"/>
</g>
<g clip-path="url(#a)">
<use x="141.975045" y="380.304537" fill="#ffffff" stroke="#ffffff" xlink:href="#b"/>
</g>
<g clip-path="url(#a)">
<use x="116.877005" y="496.403265" fill="#ffffff" stroke="#ffffff" xlink:href="#b"/>
</g>
<g clip-path="url(#a)">
<use x="140.834225" y="496.403265" fill="#ffffff" stroke="#ffffff" xlink:href="#b"/>
</g>
<g clip-path="url(#a)">
<use x="168.213904" y="496.403265" fill="#ffffff" stroke="#ffffff" xlink:href="#b"/>
</g>
<g clip-path="url(#a)">
<use x="55.272727" y="496.403265" fill="#ffffff" stroke="#ffffff" xlink:href="#b"/>
</g>
<g clip-path="url(#a)">
<use x="65.540107" y="496.403265" fill="#ffffff" stroke="#ffffff" xlink:href="#b"/>
</g>
<g clip-path="url(#a)">
<use x="313.430778" y="29.090909" fill="#808080" stroke="#808080" xlink:href="#b"/>
</g>
<g clip-path="url(#a)">
<use x="202.438503" y="496.403265" fill="#ffffff" stroke="#ffffff" xlink:href="#b"/>
</g>
<g clip-path="url(#a)">
<use x="1160.727273" y="496.403265" fill="#ffffff" stroke="#ffffff" xlink:href="#b"/>
</g>
<g clip-path="url(#a)">
<defs>
<path id="ap" d="m39.406 66.219q-10.75 0-17.078-8.0156-6.3125-8-6.3125-21.828 0-13.766 6.3125-21.781 6.3281-8 17.078-8 10.734 0 17.016 8 6.2812 8.0156 6.2812 21.781 0 13.828-6.2812 21.828-6.2812 8.0156-17.016 8.0156zm0 8q15.328 0 24.5-10.281 9.1875-10.281 9.1875-27.562 0-17.234-9.1875-27.516-9.1719-10.281-24.5-10.281-15.375 0-24.594 10.25-9.2031 10.266-9.2031 27.547t9.2031 27.562q9.2188 10.281 24.594 10.281z"/>
<path id="ac" d="m8.5 21.578v33.109h8.9844v-32.766q0-7.7656 3.0156-11.656 3.0312-3.875 9.0938-3.875 7.2656 0 11.484 4.6406 4.2344 4.6406 4.2344 12.656v31h8.9844v-54.688h-8.9844v8.4062q-3.2656-4.9844-7.5938-7.4062-4.3125-2.4219-10.031-2.4219-9.4219 0-14.312 5.8594-4.875 5.8594-4.875 17.141z"/>
</defs>
<g transform="translate(46.113 613.67) scale(.1 -.1)">
<use xlink:href="#ap"/>
<use x="78.710938" xlink:href="#ac"/>
<use x="142.089844" xlink:href="#f"/>
</g>
</g>
<g clip-path="url(#a)">
<defs>
<path id="x" d="m48.781 52.594v-8.4062q-3.8125 2.1094-7.6406 3.1562t-7.7344 1.0469q-8.75 0-13.594-5.5469-4.8281-5.5312-4.8281-15.547t4.8281-15.562q4.8438-5.5312 13.594-5.5312 3.9062 0 7.7344 1.0469t7.6406 3.1562v-8.3125q-3.7656-1.75-7.7969-2.625-4.0156-0.89062-8.5625-0.89062-12.359 0-19.641 7.7656-7.2656 7.7656-7.2656 20.953 0 13.375 7.3438 21.031 7.3594 7.6719 20.156 7.6719 4.1406 0 8.0938-0.85938 3.9531-0.84375 7.6719-2.5469z"/>
<path id="t" d="m30.609 48.391q-7.2188 0-11.422-5.6406t-4.2031-15.453 4.1719-15.453q4.1875-5.6406 11.453-5.6406 7.1875 0 11.375 5.6562 4.2031 5.6719 4.2031 15.438 0 9.7188-4.2031 15.406-4.1875 5.6875-11.375 5.6875zm0 7.6094q11.719 0 18.406-7.625 6.7031-7.6094 6.7031-21.078 0-13.422-6.7031-21.078-6.6875-7.6406-18.406-7.6406-11.766 0-18.438 7.6406-6.6562 7.6562-6.6562 21.078 0 13.469 6.6562 21.078 6.6719 7.625 18.438 7.625z"/>
<path id="s" d="m44.281 53.078v-8.5q-3.7969 1.9531-7.9062 2.9219-4.0938 0.98438-8.5 0.98438-6.6875 0-10.031-2.0469t-3.3438-6.1562q0-3.125 2.3906-4.9062t9.625-3.3906l3.0781-0.6875q9.5625-2.0469 13.594-5.7812t4.0312-10.422q0-7.625-6.0312-12.078-6.0312-4.4375-16.578-4.4375-4.3906 0-9.1562 0.85938t-10.031 2.5625v9.2812q4.9844-2.5938 9.8125-3.8906 4.8281-1.2812 9.5781-1.2812 6.3438 0 9.75 2.1719 3.4219 2.1719 3.4219 6.125 0 3.6562-2.4688 5.6094-2.4531 1.9531-10.812 3.7656l-3.125 0.73438q-8.3438 1.75-12.062 5.3906-3.7031 3.6406-3.7031 9.9844 0 7.7188 5.4688 11.906 5.4688 4.2031 15.531 4.2031 4.9688 0 9.3594-0.73438 4.4062-0.71875 8.1094-2.1875z"/>
</defs>
<g transform="translate(48.826 613.67) scale(.1 -.1)">
<use xlink:href="#x"/>
<use x="54.980469" xlink:href="#t"/>
<use x="116.162109" xlink:href="#ac"/>
<use x="179.541016" xlink:href="#f"/>
<use x="220.654297" xlink:href="#s"/>
<use x="272.753906" xlink:href="#d"/>
</g>
</g>
<g clip-path="url(#a)">
<defs>
<path id="aj" d="m4.2031 54.688h8.9844l11.234-42.672 11.172 42.672h10.594l11.234-42.672 11.188 42.672h8.9844l-14.312-54.688h-10.594l-11.766 44.828-11.812-44.828h-10.609z"/>
</defs>
<g transform="translate(69.472 613.67) scale(.1 -.1)">
<use xlink:href="#aj"/>
<use x="81.787109" xlink:href="#g"/>
<use x="143.066406" xlink:href="#s"/>
</g>
</g>
<g clip-path="url(#a)">
<defs>
<path id="o" d="m18.312 70.219v-15.531h18.5v-6.9844h-18.5v-29.688q0-6.6875 1.8281-8.5938t7.4531-1.9062h9.2188v-7.5156h-9.2188q-10.406 0-14.359 3.875-3.9531 3.8906-3.9531 14.141v29.688h-6.5938v6.9844h6.5938v15.531z"/>
</defs>
<g transform="translate(88.701 613.67) scale(.1 -.1)">
<use xlink:href="#s"/>
<use x="52.099609" xlink:href="#d"/>
<use x="113.623047" xlink:href="#o"/>
</g>
</g>
<g clip-path="url(#a)">
<defs>
<path id="w" d="m37.109 75.984v-7.4844h-8.5938q-4.8281 0-6.7188-1.9531-1.875-1.9531-1.875-7.0312v-4.8281h14.797v-6.9844h-14.797v-47.703h-9.0312v47.703h-8.5938v6.9844h8.5938v3.8125q0 9.125 4.25 13.297 4.25 4.1875 13.469 4.1875z"/>
</defs>
<g transform="translate(110 613.67) scale(.1 -.1)">
<use xlink:href="#w"/>
<use x="35.205078" xlink:href="#t"/>
<use x="96.386719" xlink:href="#f"/>
</g>
</g>
<g clip-path="url(#a)">
<defs>
<path id="u" d="m54.891 33.016v-33.016h-8.9844v32.719q0 7.7656-3.0312 11.609-3.0312 3.8594-9.0781 3.8594-7.2812 0-11.484-4.6406-4.2031-4.625-4.2031-12.641v-30.906h-9.0312v75.984h9.0312v-29.797q3.2344 4.9375 7.5938 7.375 4.375 2.4375 10.094 2.4375 9.4219 0 14.25-5.8281 4.8438-5.8281 4.8438-17.156z"/>
</defs>
<g transform="translate(132.63 613.67) scale(.1 -.1)">
<use xlink:href="#o"/>
<use x="39.208984" xlink:href="#u"/>
<use x="102.587891" xlink:href="#d"/>
</g>
</g>
<g clip-path="url(#a)">
<g transform="translate(143.07 613.67) scale(.1 -.1)">
<use xlink:href="#h"/>
<use x="63.378906" xlink:href="#t"/>
<use x="124.560547" xlink:href="#f"/>
<use x="165.673828" xlink:href="#o"/>
<use x="204.882812" xlink:href="#u"/>
<use x="268.261719" xlink:href="#aj"/>
<use x="350.048828" xlink:href="#d"/>
<use x="411.572266" xlink:href="#s"/>
<use x="463.671875" xlink:href="#o"/>
</g>
</g>
<g clip-path="url(#a)">
<defs>
<path id="at" d="m11.719 12.406h10.297v-8.4062l-8-15.625h-6.2969l4 15.625z"/>
</defs>
<g transform="translate(200.85 613.67) scale(.1 -.1)">
<use xlink:href="#at"/>
</g>
</g>
<g clip-path="url(#a)">
<defs>
<path id="ak" d="m45.406 46.391v29.594h8.9844v-75.984h-8.9844v8.2031q-2.8281-4.875-7.1562-7.25-4.3125-2.375-10.375-2.375-9.9062 0-16.141 7.9062-6.2188 7.9219-6.2188 20.812t6.2188 20.797q6.2344 7.9062 16.141 7.9062 6.0625 0 10.375-2.375 4.3281-2.3594 7.1562-7.2344zm-30.609-19.094q0-9.9062 4.0781-15.547t11.203-5.6406 11.219 5.6406q4.1094 5.6406 4.1094 15.547t-4.1094 15.547q-4.0938 5.6406-11.219 5.6406t-11.203-5.6406-4.0781-15.547z"/>
</defs>
<g transform="translate(227.26 613.67) scale(.1 -.1)">
<use xlink:href="#g"/>
<use x="61.279297" xlink:href="#h"/>
<use x="124.658203" xlink:href="#ak"/>
</g>
</g>
<g clip-path="url(#a)">
<g transform="translate(266.1 613.67) scale(.1 -.1)">
<use xlink:href="#o"/>
<use x="39.208984" xlink:href="#u"/>
<use x="102.587891" xlink:href="#d"/>
</g>
</g>
<g clip-path="url(#a)">
<defs>
<path id="av" d="m54.891 54.688-19.781-26.609 20.797-28.078h-10.594l-15.922 21.484-15.906-21.484h-10.609l21.25 28.609-19.438 26.078h10.594l14.5-19.484 14.5 19.484z"/>
</defs>
<g transform="translate(304.3 613.67) scale(.1 -.1)">
<use xlink:href="#h"/>
<use x="63.378906" xlink:href="#d"/>
<use x="123.152344" xlink:href="#av"/>
<use x="182.332031" xlink:href="#o"/>
</g>
</g>
<g clip-path="url(#a)">
<defs>
<path id="an" d="m32.172-5.0781q-3.7969-9.7656-7.4219-12.734-3.6094-2.9844-9.6562-2.9844h-7.1875v7.5156h5.2812q3.7031 0 5.75 1.7656 2.0625 1.75 4.5469 8.2969l1.6094 4.0938-22.109 53.812h9.5156l17.094-42.766 17.094 42.766h9.5156z"/>
</defs>
<g transform="translate(350.67 613.67) scale(.1 -.1)">
<use xlink:href="#ak"/>
<use x="63.476562" xlink:href="#g"/>
<use x="124.755859" xlink:href="#an"/>
</g>
</g>
<g clip-path="url(#a)">
<g transform="translate(399.5 613.67) scale(.1 -.1)">
<use xlink:href="#t"/>
<use x="61.181641" xlink:href="#ac"/>
<use x="124.560547" xlink:href="#f"/>
</g>
</g>
<g clip-path="url(#a)">
<defs>
<path id="aw" d="m45.406 27.984q0 9.7656-4.0312 15.125-4.0156 5.375-11.297 5.375-7.2188 0-11.25-5.375-4.0312-5.3594-4.0312-15.125 0-9.7188 4.0312-15.094t11.25-5.375q7.2812 0 11.297 5.375 4.0312 5.375 4.0312 15.094zm8.9844-21.203q0-13.953-6.2031-20.766-6.1875-6.8125-18.984-6.8125-4.7344 0-8.9375 0.70312t-8.1562 2.1719v8.7344q3.9531-2.1406 7.8125-3.1562 3.8594-1.0312 7.8594-1.0312 8.8438 0 13.234 4.6094t4.3906 13.938v4.4531q-2.7812-4.8438-7.125-7.2344t-10.406-2.3906q-10.047 0-16.203 7.6562-6.1562 7.6719-6.1562 20.328 0 12.688 6.1562 20.344 6.1562 7.6719 16.203 7.6719 6.0625 0 10.406-2.3906t7.125-7.2188v8.2969h8.9844z"/>
</defs>
<g transform="translate(442.64 613.67) scale(.1 -.1)">
<use xlink:href="#w"/>
<use x="35.205078" xlink:href="#f"/>
<use x="76.318359" xlink:href="#j"/>
<use x="104.101562" xlink:href="#aw"/>
<use x="167.578125" xlink:href="#g"/>
<use x="228.857422" xlink:href="#o"/>
<use x="268.066406" xlink:href="#d"/>
</g>
</g>
<g clip-path="url(#a)">
<defs>
<path id="au" d="m17.922 72.906v-27.109h-8.2969v27.109z"/>
</defs>
<g transform="translate(509.9 613.67) scale(.1 -.1)">
<use xlink:href="#au"/>
<use x="27.490234" xlink:href="#s"/>
</g>
</g>
<g clip-path="url(#a)">
<defs>
<path id="ao" d="m18.109 8.2031v-29h-9.0312v75.484h9.0312v-8.2969q2.8438 4.875 7.1562 7.2344 4.3281 2.375 10.328 2.375 9.9688 0 16.188-7.9062 6.2344-7.9062 6.2344-20.797t-6.2344-20.812q-6.2188-7.9062-16.188-7.9062-6 0-10.328 2.375-4.3125 2.375-7.1562 7.25zm30.578 19.094q0 9.9062-4.0781 15.547t-11.203 5.6406q-7.1406 0-11.219-5.6406t-4.0781-15.547 4.0781-15.547 11.219-5.6406q7.125 0 11.203 5.6406t4.0781 15.547z"/>
</defs>
<g transform="translate(549.73 613.67) scale(.1 -.1)">
<use xlink:href="#ao"/>
<use x="63.476562" xlink:href="#f"/>
<use x="102.339844" xlink:href="#t"/>
<use x="163.521484" xlink:href="#ao"/>
<use x="226.998047" xlink:href="#d"/>
<use x="288.521484" xlink:href="#i"/>
<use x="316.304688" xlink:href="#i"/>
<use x="344.087891" xlink:href="#d"/>
<use x="405.611328" xlink:href="#f"/>
</g>
</g>
<g clip-path="url(#a)">
<g transform="translate(618.55 613.67) scale(.1 -.1)">
<use xlink:href="#w"/>
<use x="35.205078" xlink:href="#j"/>
<use x="62.988281" xlink:href="#h"/>
<use x="126.367188" xlink:href="#g"/>
<use x="187.646484" xlink:href="#i"/>
<use x="215.429688" xlink:href="#i"/>
<use x="243.212891" xlink:href="#an"/>
</g>
</g>
<g clip-path="url(#a)">
<g transform="translate(678.22 613.67) scale(.1 -.1)">
<use xlink:href="#x"/>
<use x="54.980469" xlink:href="#u"/>
<use x="118.359375" xlink:href="#ac"/>
<use x="181.738281" xlink:href="#f"/>
<use x="221.101562" xlink:href="#h"/>
<use x="284.480469" xlink:href="#d"/>
<use x="346.003906" xlink:href="#ak"/>
</g>
</g>
<g clip-path="url(#a)">
<g transform="translate(758.94 613.67) scale(.1 -.1)">
<use xlink:href="#o"/>
<use x="39.208984" xlink:href="#u"/>
<use x="102.587891" xlink:href="#d"/>
</g>
</g>
<g clip-path="url(#a)">
<g transform="translate(822.17 613.67) scale(.1 -.1)">
<use xlink:href="#aj"/>
<use x="81.787109" xlink:href="#g"/>
<use x="143.066406" xlink:href="#o"/>
<use x="182.275391" xlink:href="#d"/>
<use x="243.798828" xlink:href="#f"/>
<use x="284.912109" xlink:href="#s"/>
</g>
</g>
<g clip-path="url(#a)">
<g transform="translate(909.49 613.67) scale(.1 -.1)">
<use xlink:href="#t"/>
<use x="61.181641" xlink:href="#w"/>
</g>
</g>
<g clip-path="url(#a)">
<g transform="translate(984.82 613.67) scale(.1 -.1)">
<use xlink:href="#o"/>
<use x="39.208984" xlink:href="#u"/>
<use x="102.587891" xlink:href="#d"/>
</g>
</g>
<g clip-path="url(#a)">
<g transform="translate(1059.3 613.67) scale(.1 -.1)">
<use xlink:href="#z"/>
<use x="55.802734" xlink:href="#g"/>
<use x="117.082031" xlink:href="#x"/>
<use x="172.0625" xlink:href="#j"/>
<use x="199.845703" xlink:href="#w"/>
<use x="235.050781" xlink:href="#j"/>
<use x="262.833984" xlink:href="#x"/>
</g>
</g>
<g clip-path="url(#a)">
<defs>
<path id="e" d="m10.688 12.406h10.312v-12.406h-10.312z"/>
</defs>
<g transform="translate(1159.1 613.67) scale(.1 -.1)">
<use xlink:href="#e"/>
</g>
</g>
<g clip-path="url(#a)">
<defs>
<path id="ad" d="m9.8125 72.906h9.8594v-72.906h-9.8594z"/>
<path id="aq" d="m9.8125 72.906h14.703l18.594-49.609 18.703 49.609h14.703v-72.906h-9.625v64.016l-18.797-50h-9.9062l-18.797 50v-64.016h-9.5781z"/>
</defs>
<g transform="translate(150.55 383.06) scale(.1 -.1)">
<use xlink:href="#ad"/>
<use x="29.492188" xlink:href="#aq"/>
<use x="115.771484" xlink:href="#z"/>
<use x="176.074219" xlink:href="#v"/>
<use x="231.787109" xlink:href="#ad"/>
<use x="261.279297" xlink:href="#q"/>
<use x="331.103516" xlink:href="#ad"/>
<use x="360.595703" xlink:href="#k"/>
</g>
</g>
<g clip-path="url(#a)">
<defs>
<path id="c" d="m12.406 8.2969h16.109v55.625l-17.531-3.5156v8.9844l17.438 3.5156h9.8594v-64.609h16.109v-8.2969h-41.984z"/>
</defs>
<g transform="translate(277.73 31.85) scale(.1 -.1)">
<use xlink:href="#c"/>
<use x="63.623047" xlink:href="#e"/>
<use x="95.410156" xlink:href="#c"/>
</g>
</g>
<g clip-path="url(#a)">
<defs>
<path id="n" d="m19.188 8.2969h34.422v-8.2969h-46.281v8.2969q5.6094 5.8125 15.297 15.594 9.7031 9.7969 12.188 12.641 4.7344 5.3125 6.6094 9 1.8906 3.6875 1.8906 7.25 0 5.8125-4.0781 9.4688-4.0781 3.6719-10.625 3.6719-4.6406 0-9.7969-1.6094-5.1406-1.6094-11-4.8906v9.9688q5.9531 2.3906 11.125 3.6094 5.1875 1.2188 9.4844 1.2188 11.328 0 18.062-5.6719 6.7344-5.6562 6.7344-15.125 0-4.5-1.6875-8.5312-1.6719-4.0156-6.125-9.4844-1.2188-1.4219-7.7656-8.1875-6.5312-6.7656-18.453-18.922z"/>
</defs>
<g transform="translate(86.537 266.36) scale(.1 -.1)">
<use xlink:href="#c"/>
<use x="63.623047" xlink:href="#e"/>
<use x="95.410156" xlink:href="#n"/>
</g>
</g>
<g clip-path="url(#a)">
<defs>
<path id="m" d="m40.578 39.312q7.0781-1.5156 11.047-6.3125 3.9844-4.7812 3.9844-11.812 0-10.781-7.4219-16.703-7.4219-5.9062-21.094-5.9062-4.5781 0-9.4375 0.90625t-10.031 2.7188v9.5156q4.0938-2.3906 8.9688-3.6094 4.8906-1.2188 10.219-1.2188 9.2656 0 14.125 3.6562t4.8594 10.641q0 6.4531-4.5156 10.078-4.5156 3.6406-12.562 3.6406h-8.5v8.1094h8.8906q7.2656 0 11.125 2.9062t3.8594 8.375q0 5.6094-3.9844 8.6094-3.9688 3.0156-11.391 3.0156-4.0625 0-8.7031-0.89062-4.6406-0.875-10.203-2.7188v8.7812q5.625 1.5625 10.531 2.3438t9.25 0.78125q11.234 0 17.766-5.1094 6.5469-5.0938 6.5469-13.781 0-6.0625-3.4688-10.234t-9.8594-5.7812z"/>
</defs>
<g transform="translate(228.71 499.16) scale(.1 -.1)">
<use xlink:href="#c"/>
<use x="63.623047" xlink:href="#e"/>
<use x="95.410156" xlink:href="#m"/>
</g>
</g>
<g clip-path="url(#a)">
<defs>
<path id="ab" d="m37.797 64.312-24.906-38.922h24.906zm-2.5938 8.5938h12.406v-47.516h10.406v-8.2031h-10.406v-17.188h-9.8125v17.188h-32.906v9.5156z"/>
</defs>
<g transform="translate(601.19 149.25) scale(.1 -.1)">
<use xlink:href="#c"/>
<use x="63.623047" xlink:href="#e"/>
<use x="95.410156" xlink:href="#ab"/>
</g>
</g>
<g clip-path="url(#a)">
<defs>
<path id="ag" d="m33.016 40.375q-6.6406 0-10.531-4.5469-3.875-4.5312-3.875-12.438 0-7.8594 3.875-12.438 3.8906-4.5625 10.531-4.5625t10.516 4.5625q3.875 4.5781 3.875 12.438 0 7.9062-3.875 12.438-3.875 4.5469-10.516 4.5469zm19.578 30.922v-8.9844q-3.7188 1.75-7.5 2.6719-3.7812 0.9375-7.5 0.9375-9.7656 0-14.922-6.5938-5.1406-6.5938-5.875-19.922 2.875 4.25 7.2188 6.5156 4.3594 2.2656 9.5781 2.2656 10.984 0 17.359-6.6719 6.375-6.6562 6.375-18.125 0-11.234-6.6406-18.031-6.6406-6.7812-17.672-6.7812-12.656 0-19.344 9.6875-6.6875 9.7031-6.6875 28.109 0 17.281 8.2031 27.562t22.016 10.281q3.7188 0 7.5-0.73438t7.8906-2.1875z"/>
</defs>
<g transform="translate(308.57 383.06) scale(.1 -.1)">
<use xlink:href="#c"/>
<use x="63.623047" xlink:href="#e"/>
<use x="95.410156" xlink:href="#ag"/>
</g>
</g>
<g clip-path="url(#a)">
<defs>
<path id="af" d="m8.2031 72.906h46.875v-4.2031l-26.469-68.703h-10.297l24.906 64.594h-35.016z"/>
</defs>
<g transform="translate(508.21 266.36) scale(.1 -.1)">
<use xlink:href="#c"/>
<use x="63.623047" xlink:href="#e"/>
<use x="95.410156" xlink:href="#af"/>
</g>
</g>
<g clip-path="url(#a)">
<defs>
<path id="aa" d="m31.781 34.625q-7.0312 0-11.062-3.7656-4.0156-3.7656-4.0156-10.344 0-6.5938 4.0156-10.359 4.0312-3.7656 11.062-3.7656t11.078 3.7812q4.0625 3.7969 4.0625 10.344 0 6.5781-4.0312 10.344-4.0156 3.7656-11.109 3.7656zm-9.8594 4.1875q-6.3438 1.5625-9.8906 5.9062-3.5312 4.3594-3.5312 10.609 0 8.7344 6.2188 13.812 6.2344 5.0781 17.062 5.0781 10.891 0 17.094-5.0781t6.2031-13.812q0-6.25-3.5469-10.609-3.5312-4.3438-9.8281-5.9062 7.125-1.6562 11.094-6.5 3.9844-4.8281 3.9844-11.797 0-10.609-6.4688-16.281-6.4688-5.6562-18.531-5.6562-12.047 0-18.531 5.6562-6.4688 5.6719-6.4688 16.281 0 6.9688 4 11.797 4.0156 4.8438 11.141 6.5zm-3.6094 15.578q0-5.6562 3.5312-8.8281 3.5469-3.1719 9.9375-3.1719 6.3594 0 9.9375 3.1719 3.5938 3.1719 3.5938 8.8281 0 5.6719-3.5938 8.8438-3.5781 3.1719-9.9375 3.1719-6.3906 0-9.9375-3.1719-3.5312-3.1719-3.5312-8.8438z"/>
</defs>
<g transform="translate(625.72 499.16) scale(.1 -.1)">
<use xlink:href="#c"/>
<use x="63.623047" xlink:href="#e"/>
<use x="95.410156" xlink:href="#aa"/>
</g>
</g>
<g clip-path="url(#a)">
<defs>
<path id="ae" d="m10.984 1.5156v8.9844q3.7188-1.7656 7.5156-2.6875 3.8125-0.92188 7.4844-0.92188 9.7656 0 14.906 6.5625 5.1562 6.5625 5.8906 19.953-2.8281-4.2031-7.1875-6.4531-4.3438-2.25-9.6094-2.25-10.938 0-17.312 6.6094-6.375 6.625-6.375 18.109 0 11.219 6.6406 18 6.6406 6.7969 17.672 6.7969 12.656 0 19.312-9.7031 6.6719-9.6875 6.6719-28.141 0-17.234-8.1875-27.516-8.1719-10.281-21.984-10.281-3.7188 0-7.5312 0.73438-3.7969 0.73438-7.9062 2.2031zm19.625 30.906q6.6406 0 10.516 4.5312 3.8906 4.5469 3.8906 12.469 0 7.8594-3.8906 12.422-3.875 4.5625-10.516 4.5625t-10.516-4.5625-3.875-12.422q0-7.9219 3.875-12.469 3.875-4.5312 10.516-4.5312z"/>
</defs>
<g transform="translate(690.74 499.16) scale(.1 -.1)">
<use xlink:href="#c"/>
<use x="63.623047" xlink:href="#e"/>
<use x="95.410156" xlink:href="#ae"/>
</g>
</g>
<g clip-path="url(#a)">
<defs>
<path id="ai" d="m31.781 66.406q-7.6094 0-11.453-7.5-3.8281-7.4844-3.8281-22.531 0-14.984 3.8281-22.484 3.8438-7.5 11.453-7.5 7.6719 0 11.5 7.5 3.8438 7.5 3.8438 22.484 0 15.047-3.8438 22.531-3.8281 7.5-11.5 7.5zm0 7.8125q12.266 0 18.734-9.7031 6.4688-9.6875 6.4688-28.141 0-18.406-6.4688-28.109-6.4688-9.6875-18.734-9.6875-12.25 0-18.719 9.6875-6.4688 9.7031-6.4688 28.109 0 18.453 6.4688 28.141 6.4688 9.7031 18.719 9.7031z"/>
</defs>
<g transform="translate(869.52 266.36) scale(.1 -.1)">
<use xlink:href="#c"/>
<use x="63.623047" xlink:href="#e"/>
<use x="95.410156" xlink:href="#c"/>
<use x="159.033203" xlink:href="#ai"/>
</g>
</g>
<g clip-path="url(#a)">
<g transform="translate(756.01 499.16) scale(.1 -.1)">
<use xlink:href="#c"/>
<use x="63.623047" xlink:href="#e"/>
<use x="95.410156" xlink:href="#c"/>
<use x="159.033203" xlink:href="#c"/>
</g>
</g>
<g clip-path="url(#a)">
<g transform="translate(827.88 499.16) scale(.1 -.1)">
<use xlink:href="#c"/>
<use x="63.623047" xlink:href="#e"/>
<use x="95.410156" xlink:href="#c"/>
<use x="159.033203" xlink:href="#n"/>
</g>
</g>
<g clip-path="url(#a)">
<g transform="translate(1024.7 383.06) scale(.1 -.1)">
<use xlink:href="#c"/>
<use x="63.623047" xlink:href="#e"/>
<use x="95.410156" xlink:href="#c"/>
<use x="159.033203" xlink:href="#m"/>
</g>
</g>
<g clip-path="url(#a)">
<g transform="translate(903.18 499.16) scale(.1 -.1)">
<use xlink:href="#c"/>
<use x="63.623047" xlink:href="#e"/>
<use x="95.410156" xlink:href="#c"/>
<use x="159.033203" xlink:href="#ab"/>
</g>
</g>
<g clip-path="url(#a)">
<defs>
<path id="ah" d="m10.797 72.906h38.719v-8.3125h-29.688v-17.859q2.1406 0.73438 4.2812 1.0938 2.1562 0.35938 4.3125 0.35938 12.203 0 19.328-6.6875 7.1406-6.6875 7.1406-18.109 0-11.766-7.3281-18.297-7.3281-6.5156-20.656-6.5156-4.5938 0-9.3594 0.78125-4.75 0.78125-9.8281 2.3438v9.9219q4.3906-2.3906 9.0781-3.5625t9.9062-1.1719q8.4531 0 13.375 4.4375 4.9375 4.4375 4.9375 12.062 0 7.6094-4.9375 12.047-4.9219 4.4531-13.375 4.4531-3.9531 0-7.8906-0.875-3.9219-0.875-8.0156-2.7344z"/>
</defs>
<g transform="translate(981.89 499.16) scale(.1 -.1)">
<use xlink:href="#c"/>
<use x="63.623047" xlink:href="#e"/>
<use x="95.410156" xlink:href="#c"/>
<use x="159.033203" xlink:href="#ah"/>
</g>
</g>
<g clip-path="url(#a)">
<g transform="translate(1064 499.16) scale(.1 -.1)">
<use xlink:href="#c"/>
<use x="63.623047" xlink:href="#e"/>
<use x="95.410156" xlink:href="#c"/>
<use x="159.033203" xlink:href="#ag"/>
</g>
</g>
<g clip-path="url(#a)">
<g transform="translate(449.13 383.06) scale(.1 -.1)">
<use xlink:href="#c"/>
<use x="63.623047" xlink:href="#e"/>
<use x="95.410156" xlink:href="#c"/>
<use x="159.033203" xlink:href="#aa"/>
</g>
</g>
<g clip-path="url(#a)">
<g transform="translate(560.93 499.16) scale(.1 -.1)">
<use xlink:href="#c"/>
<use x="63.623047" xlink:href="#e"/>
<use x="95.410156" xlink:href="#c"/>
<use x="159.033203" xlink:href="#ae"/>
</g>
</g>
<g clip-path="url(#a)">
<g transform="translate(396.65 499.16) scale(.1 -.1)">
<use xlink:href="#c"/>
<use x="63.623047" xlink:href="#e"/>
<use x="95.410156" xlink:href="#n"/>
<use x="159.033203" xlink:href="#ai"/>
</g>
</g>
<g clip-path="url(#a)">
<g transform="translate(447.99 499.16) scale(.1 -.1)">
<use xlink:href="#c"/>
<use x="63.623047" xlink:href="#e"/>
<use x="95.410156" xlink:href="#n"/>
<use x="159.033203" xlink:href="#c"/>
</g>
</g>
<g clip-path="url(#a)">
<g transform="translate(502.75 499.16) scale(.1 -.1)">
<use xlink:href="#c"/>
<use x="63.623047" xlink:href="#e"/>
<use x="95.410156" xlink:href="#n"/>
<use x="159.033203" xlink:href="#n"/>
</g>
</g>
<g clip-path="url(#a)">
<g transform="translate(263.18 499.16) scale(.1 -.1)">
<use xlink:href="#c"/>
<use x="63.623047" xlink:href="#e"/>
<use x="95.410156" xlink:href="#n"/>
<use x="159.033203" xlink:href="#m"/>
</g>
</g>
<g clip-path="url(#a)">
<g transform="translate(304.25 499.16) scale(.1 -.1)">
<use xlink:href="#c"/>
<use x="63.623047" xlink:href="#e"/>
<use x="95.410156" xlink:href="#n"/>
<use x="159.033203" xlink:href="#ab"/>
</g>
</g>
<g clip-path="url(#a)">
<g transform="translate(348.74 499.16) scale(.1 -.1)">
<use xlink:href="#c"/>
<use x="63.623047" xlink:href="#e"/>
<use x="95.410156" xlink:href="#n"/>
<use x="159.033203" xlink:href="#ah"/>
</g>
</g>
<g clip-path="url(#a)">
<g transform="translate(49.274 383.06) scale(.1 -.1)">
<use xlink:href="#c"/>
<use x="63.623047" xlink:href="#e"/>
<use x="95.410156" xlink:href="#n"/>
<use x="159.033203" xlink:href="#af"/>
</g>
</g>
<g clip-path="url(#a)">
<g transform="translate(68.097 499.16) scale(.1 -.1)">
<use xlink:href="#c"/>
<use x="63.623047" xlink:href="#e"/>
<use x="95.410156" xlink:href="#n"/>
<use x="159.033203" xlink:href="#aa"/>
</g>
</g>
<g clip-path="url(#a)">
<g transform="translate(85.209 499.16) scale(.1 -.1)">
<use xlink:href="#c"/>
<use x="63.623047" xlink:href="#e"/>
<use x="95.410156" xlink:href="#n"/>
<use x="159.033203" xlink:href="#ae"/>
</g>
</g>
<g clip-path="url(#a)">
<g transform="translate(130.84 383.06) scale(.1 -.1)">
<use xlink:href="#c"/>
<use x="63.623047" xlink:href="#e"/>
<use x="95.410156" xlink:href="#m"/>
<use x="159.033203" xlink:href="#ai"/>
</g>
</g>
<g clip-path="url(#a)">
<g transform="translate(105.74 499.16) scale(.1 -.1)">
<use xlink:href="#c"/>
<use x="63.623047" xlink:href="#e"/>
<use x="95.410156" xlink:href="#m"/>
<use x="159.033203" xlink:href="#c"/>
</g>
</g>
<g clip-path="url(#a)">
<g transform="translate(129.7 499.16) scale(.1 -.1)">
<use xlink:href="#c"/>
<use x="63.623047" xlink:href="#e"/>
<use x="95.410156" xlink:href="#m"/>
<use x="159.033203" xlink:href="#n"/>
</g>
</g>
<g clip-path="url(#a)">
<g transform="translate(157.08 499.16) scale(.1 -.1)">
<use xlink:href="#c"/>
<use x="63.623047" xlink:href="#e"/>
<use x="95.410156" xlink:href="#m"/>
<use x="159.033203" xlink:href="#m"/>
</g>
</g>
<g clip-path="url(#a)">
<g transform="translate(44.14 499.16) scale(.1 -.1)">
<use xlink:href="#c"/>
<use x="63.623047" xlink:href="#e"/>
<use x="95.410156" xlink:href="#m"/>
<use x="159.033203" xlink:href="#ab"/>
</g>
</g>
<g clip-path="url(#a)">
<g transform="translate(54.407 499.16) scale(.1 -.1)">
<use xlink:href="#c"/>
<use x="63.623047" xlink:href="#e"/>
<use x="95.410156" xlink:href="#m"/>
<use x="159.033203" xlink:href="#ah"/>
</g>
</g>
<g clip-path="url(#a)">
<g transform="translate(302.3 31.85) scale(.1 -.1)">
<use xlink:href="#c"/>
<use x="63.623047" xlink:href="#e"/>
<use x="95.410156" xlink:href="#m"/>
<use x="159.033203" xlink:href="#ag"/>
</g>
</g>
<g clip-path="url(#a)">
<g transform="translate(191.31 499.16) scale(.1 -.1)">
<use xlink:href="#c"/>
<use x="63.623047" xlink:href="#e"/>
<use x="95.410156" xlink:href="#m"/>
<use x="159.033203" xlink:href="#af"/>
</g>
</g>
<g clip-path="url(#a)">
<g transform="translate(1149.6 499.16) scale(.1 -.1)">
<use xlink:href="#c"/>
<use x="63.623047" xlink:href="#e"/>
<use x="95.410156" xlink:href="#m"/>
<use x="159.033203" xlink:href="#aa"/>
</g>
</g>
<defs>
<clipPath id="a">
<rect width="1216" height="640"/>
</clipPath>
</defs>
</svg>
