<?xml version="1.0" encoding="UTF-8"?>
<!DOCTYPE svg  PUBLIC '-//W3C//DTD SVG 1.1//EN'  'http://www.w3.org/Graphics/SVG/1.1/DTD/svg11.dtd'>
<svg width="1216pt" height="640pt" version="1.1" viewBox="0 0 1216 640" xmlns="http://www.w3.org/2000/svg" xmlns:xlink="http://www.w3.org/1999/xlink">
<defs>
<style type="text/css">*{stroke-linecap:butt;stroke-linejoin:round;}</style>
</defs>
<path d="m0 640h1216v-640h-1216z" fill="#fff"/>
<g fill="none" stroke="#000">
<path d="m426.94 30.197-323.38 352.5" clip-path="url(#a)"/>
<path d="m426.94 30.197-63.655 120.02" clip-path="url(#a)"/>
<path d="m426.94 30.197 277.14 466.05" clip-path="url(#a)"/>
<path d="m426.94 30.197 337.19 120.02" clip-path="url(#a)"/>
<path d="m426.94 30.197-227.3 466.05" clip-path="url(#a)"/>
<path d="m103.56 382.7-48.042 113.55" clip-path="url(#a)"/>
<path d="m103.56 382.7v113.55" clip-path="url(#a)"/>
<path d="m103.56 382.7 48.042 113.55" clip-path="url(#a)"/>
<path d="m363.29 150.22-115.6 346.03" clip-path="url(#a)"/>
<path d="m363.29 150.22-19.517 232.48" clip-path="url(#a)"/>
<path d="m363.29 150.22-19.517 346.03" clip-path="url(#a)"/>
<path d="m363.29 150.22 154.63 117.35" clip-path="url(#a)"/>
<path d="m704.08 496.25-24.021 113.55" clip-path="url(#a)"/>
<path d="m704.08 496.25 24.021 113.55" clip-path="url(#a)"/>
<path d="m764.14 150.22 168.15 117.35" clip-path="url(#a)"/>
<path d="m764.14 150.22 348.3 232.48" clip-path="url(#a)"/>
<path d="m764.14 150.22-516.45 346.03" clip-path="url(#a)" stroke-dasharray="3.7,1.6"/>
<path d="m932.28 267.57-108.09 115.13" clip-path="url(#a)"/>
<path d="m932.28 267.57-12.01 228.68" clip-path="url(#a)"/>
<path d="m932.28 267.57 36.031 228.68" clip-path="url(#a)"/>
<path d="m932.28 267.57 84.073 228.68" clip-path="url(#a)"/>
<path d="m1112.4 382.7-48.042 113.55" clip-path="url(#a)"/>
<path d="m1112.4 382.7v113.55" clip-path="url(#a)"/>
<path d="m1112.4 382.7 48.042 113.55" clip-path="url(#a)"/>
<path d="m1064.4 496.25v113.55" clip-path="url(#a)"/>
<path d="m1112.4 496.25v113.55" clip-path="url(#a)"/>
<path d="m824.19 382.7-48.042 113.55" clip-path="url(#a)"/>
<path d="m824.19 382.7v113.55" clip-path="url(#a)"/>
<path d="m824.19 382.7 48.042 113.55" clip-path="url(#a)"/>
<path d="m920.27 496.25v113.55" clip-path="url(#a)"/>
<path d="m968.31 496.25v113.55" clip-path="url(#a)"/>
<path d="m1016.4 496.25v113.55" clip-path="url(#a)"/>
<path d="m776.15 496.25v113.55" clip-path="url(#a)"/>
<path d="m824.19 496.25v113.55" clip-path="url(#a)"/>
<path d="m872.23 496.25v113.55" clip-path="url(#a)"/>
<path d="m247.69 496.25v113.55" clip-path="url(#a)"/>
<path d="m343.77 382.7-48.042 113.55" clip-path="url(#a)"/>
<path d="m343.77 382.7 48.042 113.55" clip-path="url(#a)"/>
<path d="m343.77 496.25v113.55" clip-path="url(#a)"/>
<path d="m517.92 267.57-78.068 228.68" clip-path="url(#a)"/>
<path d="m517.92 267.57-30.026 228.68" clip-path="url(#a)"/>
<path d="m517.92 267.57 18.016 228.68" clip-path="url(#a)"/>
<path d="m517.92 267.57 90.078 115.13" clip-path="url(#a)"/>
<path d="m439.85 496.25v113.55" clip-path="url(#a)"/>
<path d="m487.9 496.25v113.55" clip-path="url(#a)"/>
<path d="m535.94 496.25v113.55" clip-path="url(#a)"/>
<path d="m608 382.7-24.021 113.55" clip-path="url(#a)"/>
<path d="m608 382.7 24.021 113.55" clip-path="url(#a)"/>
<path d="m583.98 496.25v113.55" clip-path="url(#a)"/>
<path d="m632.02 496.25v113.55" clip-path="url(#a)"/>
<path d="m295.73 496.25v113.55" clip-path="url(#a)"/>
<path d="m391.81 496.25v113.55" clip-path="url(#a)"/>
<path d="m55.519 496.25v113.55" clip-path="url(#a)"/>
<path d="m103.56 496.25v113.55" clip-path="url(#a)"/>
<path d="m151.6 496.25v113.55" clip-path="url(#a)"/>
<path d="m610.5 30.197-247.22 120.02" clip-path="url(#a)"/>
<path d="m610.5 30.197 93.581 466.05" clip-path="url(#a)"/>
<path d="m610.5 30.197 153.63 120.02" clip-path="url(#a)"/>
<path d="m233.42 30.197-129.86 352.5" clip-path="url(#a)"/>
<path d="m233.42 30.197 129.86 120.02" clip-path="url(#a)"/>
<path d="m199.64 496.25v113.55" clip-path="url(#a)"/>
<path d="m1160.5 496.25v113.55" clip-path="url(#a)"/>
</g>
<path d="m268.37 212.33 3.0133-3.2847q1.6224-1.7685-0.1461-3.391l-5.7054-5.234q-1.7685-1.6224-3.391 0.1461l-3.0133 3.2847q-1.6224 1.7685 0.1461 3.391l5.7054 5.234q1.7685 1.6224 3.391-0.1461z" clip-path="url(#a)" fill="#fff" stroke="#fff"/>
<g clip-path="url(#a)">
<defs>
<path id="q" d="m9.8125 72.906h9.8594v-64.609h35.5v-8.2969h-45.359z"/>
</defs>
<g transform="translate(265.37 209.58) rotate(-47.467) scale(.08 -.08)">
<use xlink:href="#q"/>
</g>
</g>
<path d="m399.25 95.804 2.8189-5.315q1.1245-2.1203-0.99575-3.2448l-6.84-3.6277q-2.1203-1.1245-3.2448 0.99575l-2.8189 5.315q-1.1245 2.1203 0.99575 3.2448l6.84 3.6277q2.1203 1.1245 3.2448-0.99575z" clip-path="url(#a)" fill="#fff" stroke="#fff"/>
<g clip-path="url(#a)">
<defs>
<path id="ak" d="m9.8125 72.906h9.8594v-29.891h35.844v29.891h9.8594v-72.906h-9.8594v34.719h-35.844v-34.719h-9.8594z"/>
</defs>
<g transform="translate(395.66 93.9) rotate(-62.06) scale(.08 -.08)">
<use xlink:href="#ak"/>
</g>
</g>
<path d="m558.98 264.51 2.2783 3.8313q1.2267 2.0628 3.2895 0.83616l6.6548-3.9573q2.0628-1.2267 0.83616-3.2895l-2.2783-3.8313q-1.2267-2.0628-3.2895-0.83616l-6.6548 3.9573q-2.0628 1.2267-0.83616 3.2895z" clip-path="url(#a)" fill="#fff" stroke="#fff"/>
<g clip-path="url(#a)">
<g transform="translate(562.48 262.44) rotate(59.262) scale(.08 -.08)">
<use xlink:href="#q"/>
</g>
</g>
<path d="m590.6 95.108 5.6679 2.0175q2.261 0.8048 3.0658-1.4562l2.5963-7.2942q0.8048-2.261-1.4562-3.0658l-5.6679-2.0175q-2.261-0.8048-3.0658 1.4562l-2.5963 7.2942q-0.8048 2.261 1.4562 3.0658z" clip-path="url(#a)" fill="#fff" stroke="#fff"/>
<g clip-path="url(#a)">
<g transform="translate(591.96 91.279) rotate(19.593) scale(.08 -.08)">
<use xlink:href="#ak"/>
</g>
</g>
<path d="m317.65 268.6 2.5666-5.2625q1.052-2.1571-1.1051-3.2092l-6.959-3.3939q-2.1571-1.052-3.2092 1.1051l-2.5666 5.2625q-1.052 2.1571 1.1051 3.2092l6.959 3.3939q2.1571 1.052 3.2092-1.1051z" clip-path="url(#a)" fill="#fff" stroke="#fff"/>
<g clip-path="url(#a)">
<defs>
<path id="aj" d="m8.6875 72.906h9.9219v-44.297q0-11.719 4.2344-16.875 4.25-5.1406 13.781-5.1406 9.4688 0 13.719 5.1406 4.25 5.1562 4.25 16.875v44.297h9.9062v-45.516q0-14.25-7.0625-21.531-7.0469-7.2812-20.812-7.2812-13.828 0-20.891 7.2812-7.0469 7.2812-7.0469 21.531z"/>
</defs>
<g transform="translate(313.99 266.82) rotate(-64.001) scale(.08 -.08)">
<use xlink:href="#aj"/>
</g>
</g>
<path d="m84.233 444.48 2.1659-5.1194q0.93515-2.2103-1.2752-3.1455l-7.1306-3.0168q-2.2103-0.93515-3.1455 1.2752l-2.1659 5.1194q-0.93515 2.2103 1.2752 3.1455l7.1306 3.0168q2.2103 0.93515 3.1455-1.2752z" clip-path="url(#a)" fill="#fff" stroke="#fff"/>
<g clip-path="url(#a)">
<defs>
<path id="o" d="m44.391 34.188q3.1719-1.0781 6.1719-4.5938t6.0312-9.6719l10.016-19.922h-10.609l-9.3125 18.703q-3.625 7.3281-7.0156 9.7188t-9.25 2.3906h-10.75v-30.812h-9.8594v72.906h22.266q12.5 0 18.656-5.2344 6.1562-5.2188 6.1562-15.766 0-6.8906-3.2031-11.438-3.2031-4.5312-9.2969-6.2812zm-24.719 30.609v-25.875h12.406q7.125 0 10.766 3.2969t3.6406 9.6875-3.6406 9.6406-10.766 3.25z"/>
</defs>
<g transform="translate(80.49 442.89) rotate(-67.068) scale(.08 -.08)">
<use xlink:href="#o"/>
</g>
</g>
<path d="m97.29 436.7v5.5588q0 2.4 2.4 2.4h7.7425q2.4 0 2.4-2.4v-5.5588q0-2.4-2.4-2.4h-7.7425q-2.4 0-2.4 2.4z" clip-path="url(#a)" fill="#fff" stroke="#fff"/>
<g clip-path="url(#a)">
<g transform="translate(101.35 436.7) rotate(90) scale(.08 -.08)">
<use xlink:href="#o"/>
</g>
</g>
<path d="m120.72 439.35 2.1767 5.1447q0.93515 2.2103 3.1455 1.2752l7.1306-3.0168q2.2103-0.93515 1.2752-3.1455l-2.1767-5.1447q-0.93515-2.2103-3.1455-1.2752l-7.1306 3.0168q-2.2103 0.93515-1.2752 3.1455z" clip-path="url(#a)" fill="#fff" stroke="#fff"/>
<g clip-path="url(#a)">
<defs>
<path id="r" d="m64.406 67.281v-10.391q-4.9844 4.6406-10.625 6.9219-5.6406 2.2969-11.984 2.2969-12.5 0-19.141-7.6406t-6.6406-22.094q0-14.406 6.6406-22.047t19.141-7.6406q6.3438 0 11.984 2.2969t10.625 6.9375v-10.312q-5.1719-3.5156-10.969-5.2812-5.7812-1.75-12.219-1.75-16.562 0-26.094 10.125-9.5156 10.141-9.5156 27.672 0 17.578 9.5156 27.703 9.5312 10.141 26.094 10.141 6.5312 0 12.312-1.7344 5.7969-1.7344 10.875-5.2031z"/>
</defs>
<g transform="translate(124.46 437.76) rotate(67.068) scale(.08 -.08)">
<use xlink:href="#r"/>
</g>
</g>
<path d="m310.57 327.82 1.734-5.1905q0.76047-2.2763-1.5159-3.0368l-7.3435-2.4533q-2.2763-0.76047-3.0368 1.5159l-1.734 5.1905q-0.76047 2.2763 1.5159 3.0368l7.3435 2.4533q2.2763 0.76047 3.0368-1.5159z" clip-path="url(#a)" fill="#fff" stroke="#fff"/>
<g clip-path="url(#a)">
<defs>
<path id="p" d="m34.188 63.188-13.391-36.281h26.812zm-5.5781 9.7188h11.188l27.781-72.906h-10.25l-6.6406 18.703h-32.859l-6.6406-18.703h-10.406z"/>
</defs>
<g transform="translate(306.71 326.53) rotate(-71.527) scale(.08 -.08)">
<use xlink:href="#p"/>
</g>
</g>
<path d="m359.58 269.39 0.40354-4.8068q0.20078-2.3916-2.1908-2.5924l-7.7154-0.64771q-2.3916-0.20078-2.5924 2.1908l-0.40354 4.8068q-0.20078 2.3916 2.1908 2.5924l7.7154 0.64771q2.3916 0.20078 2.5924-2.1908z" clip-path="url(#a)" fill="#fff" stroke="#fff"/>
<g clip-path="url(#a)">
<defs>
<path id="an" d="m19.672 64.797v-27.391h12.406q6.8906 0 10.641 3.5625 3.7656 3.5625 3.7656 10.156 0 6.5469-3.7656 10.109-3.75 3.5625-10.641 3.5625zm-9.8594 8.1094h22.266q12.266 0 18.531-5.5469 6.2812-5.5469 6.2812-16.234 0-10.797-6.2812-16.312-6.2656-5.5156-18.531-5.5156h-12.406v-29.297h-9.8594z"/>
</defs>
<g transform="translate(355.53 269.05) rotate(-85.201) scale(.08 -.08)">
<use xlink:href="#an"/>
</g>
</g>
<path d="m359.62 326.66 0.34689-6.1502q0.13515-2.3962-2.261-2.5313l-7.7302-0.436q-2.3962-0.13515-2.5313 2.261l-0.34689 6.1502q-0.13515 2.3962 2.261 2.5313l7.7302 0.436q2.3962 0.13515 2.5313-2.261z" clip-path="url(#a)" fill="#fff" stroke="#fff"/>
<g clip-path="url(#a)">
<defs>
<path id="ap" d="m19.672 64.797v-56.688h11.922q15.094 0 22.094 6.8281 7 6.8438 7 21.594 0 14.641-7 21.453t-22.094 6.8125zm-9.8594 8.1094h20.266q21.188 0 31.094-8.8125 9.9219-8.8125 9.9219-27.562 0-18.859-9.9688-27.703-9.9531-8.8281-31.047-8.8281h-20.266z"/>
</defs>
<g transform="translate(355.56 326.43) rotate(-86.772) scale(.08 -.08)">
<use xlink:href="#ap"/>
</g>
</g>
<path d="m434.63 212.24 4.3594 3.3082q1.9118 1.4508 3.3627-0.46099l4.6805-6.1676q1.4508-1.9118-0.46099-3.3627l-4.3594-3.3082q-1.9118-1.4508-3.3627 0.46099l-4.6805 6.1676q-1.4508 1.9118 0.46099 3.3627z" clip-path="url(#a)" fill="#fff" stroke="#fff"/>
<g clip-path="url(#a)">
<g transform="translate(437.09 209) rotate(37.194) scale(.08 -.08)">
<use xlink:href="#p"/>
</g>
</g>
<path d="m694.56 571.59 7.3026-34.521q0.49671-2.348-1.8513-2.8447l-7.5749-1.6024q-2.348-0.49671-2.8447 1.8513l-7.3026 34.521q-0.49671 2.348 1.8513 2.8447l7.5749 1.6024q2.348 0.49671 2.8447-1.8513z" clip-path="url(#a)" fill="#fff" stroke="#fff"/>
<g clip-path="url(#a)">
<defs>
<path id="l" d="m-0.29688 72.906h61.672v-8.3125h-25.875v-64.594h-9.9062v64.594h-25.891z"/>
<path id="f" d="m56.203 29.594v-4.3906h-41.312q0.59375-9.2812 5.5938-14.141t13.938-4.8594q5.1719 0 10.031 1.2656t9.6562 3.8125v-8.5q-4.8438-2.0469-9.9219-3.125t-10.297-1.0781q-13.094 0-20.734 7.6094-7.6406 7.625-7.6406 20.625 0 13.422 7.25 21.297 7.25 7.8906 19.562 7.8906 11.031 0 17.453-7.1094 6.4219-7.0938 6.4219-19.297zm-8.9844 2.6406q-0.09375 7.3594-4.125 11.75-4.0312 4.4062-10.672 4.4062-7.5156 0-12.031-4.25t-5.2031-11.969z"/>
<path id="g" d="m41.109 46.297q-1.5156 0.875-3.2969 1.2812-1.7812 0.42188-3.9219 0.42188-7.625 0-11.703-4.9531t-4.0781-14.234v-28.812h-9.0312v54.688h9.0312v-8.5q2.8438 4.9844 7.375 7.3906 4.5469 2.4219 11.047 2.4219 0.92188 0 2.0469-0.125 1.125-0.10938 2.4844-0.35938z"/>
<path id="i" d="m52 44.188q3.375 6.0625 8.0625 8.9375t11.031 2.875q8.5469 0 13.188-5.9844 4.6406-5.9688 4.6406-17v-33.016h-9.0312v32.719q0 7.8594-2.7969 11.656-2.7812 3.8125-8.4844 3.8125-6.9844 0-11.047-4.6406-4.0469-4.625-4.0469-12.641v-30.906h-9.0312v32.719q0 7.9062-2.7812 11.688t-8.5938 3.7812q-6.8906 0-10.953-4.6562-4.0469-4.6562-4.0469-12.625v-30.906h-9.0312v54.688h9.0312v-8.5q3.0781 5.0312 7.375 7.4219t10.203 2.3906q5.9688 0 10.141-3.0312 4.1719-3.0156 6.1719-8.7812z"/>
<path id="k" d="m9.4219 54.688h8.9844v-54.688h-8.9844zm0 21.297h8.9844v-11.391h-8.9844z"/>
<path id="h" d="m54.891 33.016v-33.016h-8.9844v32.719q0 7.7656-3.0312 11.609-3.0312 3.8594-9.0781 3.8594-7.2812 0-11.484-4.6406-4.2031-4.625-4.2031-12.641v-30.906h-9.0312v54.688h9.0312v-8.5q3.2344 4.9375 7.5938 7.375 4.375 2.4375 10.094 2.4375 9.4219 0 14.25-5.8281 4.8438-5.8281 4.8438-17.156z"/>
<path id="e" d="m34.281 27.484q-10.891 0-15.094-2.4844t-4.2031-8.5q0-4.7812 3.1562-7.5938 3.1562-2.7969 8.5625-2.7969 7.4844 0 12 5.2969t4.5156 14.078v2zm17.922 3.7188v-31.203h-8.9844v8.2969q-3.0781-4.9688-7.6719-7.3438t-11.234-2.375q-8.3906 0-13.359 4.7188-4.9531 4.7188-4.9531 12.625 0 9.2188 6.1719 13.906 6.1875 4.6875 18.438 4.6875h12.609v0.89062q0 6.2031-4.0781 9.5938t-11.453 3.3906q-4.6875 0-9.1406-1.125-4.4375-1.125-8.5312-3.375v8.3125q4.9219 1.9062 9.5625 2.8438 4.6406 0.95312 9.0312 0.95312 11.875 0 17.734-6.1562 5.8594-6.1406 5.8594-18.641z"/>
<path id="j" d="m9.4219 75.984h8.9844v-75.984h-8.9844z"/>
</defs>
<g transform="translate(690.58 570.74) rotate(-78.056) scale(.08 -.08)">
<use xlink:href="#l"/>
<use x="60.818359" xlink:href="#f"/>
<use x="122.341797" xlink:href="#g"/>
<use x="163.439453" xlink:href="#i"/>
<use x="260.851562" xlink:href="#k"/>
<use x="288.634766" xlink:href="#h"/>
<use x="352.013672" xlink:href="#e"/>
<use x="413.292969" xlink:href="#j"/>
</g>
</g>
<path d="m706.31 537.06 7.3026 34.521q0.49671 2.348 2.8447 1.8513l7.5749-1.6024q2.348-0.49671 1.8513-2.8447l-7.3026-34.521q-0.49671-2.348-2.8447-1.8513l-7.5749 1.6024q-2.348 0.49671-1.8513 2.8447z" clip-path="url(#a)" fill="#fff" stroke="#fff"/>
<g clip-path="url(#a)">
<g transform="translate(710.28 536.22) rotate(78.056) scale(.08 -.08)">
<use xlink:href="#l"/>
<use x="60.818359" xlink:href="#f"/>
<use x="122.341797" xlink:href="#g"/>
<use x="163.439453" xlink:href="#i"/>
<use x="260.851562" xlink:href="#k"/>
<use x="288.634766" xlink:href="#h"/>
<use x="352.013672" xlink:href="#e"/>
<use x="413.292969" xlink:href="#j"/>
</g>
</g>
<path d="m842.54 212.58 4.1648 2.9066q1.9681 1.3735 3.3416-0.59458l4.4311-6.3492q1.3735-1.9681-0.59458-3.3416l-4.1648-2.9066q-1.9681-1.3735-3.3416 0.59458l-4.4311 6.3492q-1.3735 1.9681 0.59458 3.3416z" clip-path="url(#a)" fill="#fff" stroke="#fff"/>
<g clip-path="url(#a)">
<defs>
<path id="am" d="m53.516 70.516v-9.625q-5.6094 2.6875-10.594 4-4.9844 1.3281-9.625 1.3281-8.0469 0-12.422-3.125t-4.375-8.8906q0-4.8438 2.9062-7.3125 2.9062-2.4531 11.016-3.9688l5.9531-1.2188q11.031-2.1094 16.281-7.4062t5.25-14.172q0-10.609-7.1094-16.078-7.0938-5.4688-20.812-5.4688-5.1719 0-11.016 1.1719-5.8281 1.1719-12.078 3.4688v10.156q6-3.3594 11.766-5.0781 5.7656-1.7031 11.328-1.7031 8.4375 0 13.031 3.3125 4.5938 3.3281 4.5938 9.4844 0 5.3594-3.2969 8.3906t-10.812 4.5469l-6.0156 1.1719q-11.031 2.1875-15.969 6.875-4.9219 4.6875-4.9219 13.047 0 9.6719 6.8125 15.234t18.766 5.5625q5.1406 0 10.453-0.9375 5.3281-0.92188 10.891-2.7656z"/>
</defs>
<g transform="translate(844.86 209.25) rotate(34.911) scale(.08 -.08)">
<use xlink:href="#am"/>
</g>
</g>
<path d="m932.53 270.16 4.5517 3.0381q1.9962 1.3324 3.3286-0.6638l4.2983-6.4398q1.3324-1.9962-0.6638-3.3286l-4.5517-3.0381q-1.9962-1.3324-3.3286 0.6638l-4.2983 6.4398q-1.3324 1.9962 0.6638 3.3286z" clip-path="url(#a)" fill="#fff" stroke="#fff"/>
<g clip-path="url(#a)">
<g transform="translate(934.79 266.78) rotate(33.722) scale(.08 -.08)">
<use xlink:href="#p"/>
</g>
</g>
<path d="m507.13 329.97 4.5463-3.0461q1.9938-1.3359 0.65792-3.3297l-4.3097-6.4322q-1.3359-1.9938-3.3297-0.65792l-4.5463 3.0461q-1.9938 1.3359-0.65792 3.3297l4.3097 6.4322q1.3359 1.9938 3.3297 0.65792z" clip-path="url(#a)" fill="#fff" stroke="#fff"/>
<g clip-path="url(#a)">
<g transform="translate(504.87 326.59) rotate(-33.823) scale(.08 -.08)">
<use xlink:href="#p"/>
</g>
</g>
<path d="m881.08 331.27 3.46-3.6853q1.6427-1.7497-0.10695-3.3924l-5.6446-5.2995q-1.7497-1.6427-3.3924 0.10695l-3.46 3.6853q-1.6427 1.7497 0.10695 3.3924l5.6446 5.2995q1.7497 1.6427 3.3924-0.10695z" clip-path="url(#a)" fill="#fff" stroke="#fff"/>
<g clip-path="url(#a)">
<defs>
<path id="u" d="m9.8125 72.906h46.094v-8.3125h-36.234v-21.578h34.719v-8.2969h-34.719v-26.422h37.109v-8.2969h-46.969z"/>
</defs>
<g transform="translate(878.11 328.49) rotate(-46.806) scale(.08 -.08)">
<use xlink:href="#u"/>
</g>
</g>
<path d="m932.41 384.76 0.26512-5.048q0.12588-2.3967-2.2708-2.5226l-7.7318-0.40608q-2.3967-0.12587-2.5226 2.2708l-0.26512 5.048q-0.12588 2.3967 2.2708 2.5226l7.7318 0.40608q2.3967 0.12587 2.5226-2.2708z" clip-path="url(#a)" fill="#fff" stroke="#fff"/>
<g clip-path="url(#a)">
<g transform="translate(928.35 384.55) rotate(-86.994) scale(.08 -.08)">
<use xlink:href="#u"/>
</g>
</g>
<path d="m943.71 380.39 0.78676 4.9934q0.37354 2.3708 2.7443 1.9972l7.6481-1.205q2.3708-0.37354 1.9972-2.7443l-0.78676-4.9934q-0.37354-2.3708-2.7443-1.9972l-7.6481 1.205q-2.3708 0.37354-1.9972 2.7443z" clip-path="url(#a)" fill="#fff" stroke="#fff"/>
<g clip-path="url(#a)">
<g transform="translate(947.72 379.76) rotate(81.046) scale(.08 -.08)">
<use xlink:href="#u"/>
</g>
</g>
<path d="m967.47 381.45 1.9276 5.2431q0.82814 2.2526 3.0807 1.4244l7.267-2.6716q2.2526-0.82814 1.4244-3.0807l-1.9276-5.2431q-0.82814-2.2526-3.0807-1.4244l-7.267 2.6716q-2.2526 0.82814-1.4244 3.0807z" clip-path="url(#a)" fill="#fff" stroke="#fff"/>
<g clip-path="url(#a)">
<g transform="translate(971.28 380.05) rotate(69.815) scale(.08 -.08)">
<use xlink:href="#r"/>
</g>
</g>
<path d="m1093.1 444.48 2.1659-5.1194q0.93515-2.2103-1.2752-3.1455l-7.1306-3.0168q-2.2103-0.93515-3.1455 1.2752l-2.1659 5.1194q-0.93515 2.2103 1.2752 3.1455l7.1306 3.0168q2.2103 0.93515 3.1455-1.2752z" clip-path="url(#a)" fill="#fff" stroke="#fff"/>
<g clip-path="url(#a)">
<g transform="translate(1089.4 442.89) rotate(-67.068) scale(.08 -.08)">
<use xlink:href="#o"/>
</g>
</g>
<path d="m1106.2 436.68v5.5862q0 2.4 2.4 2.4h7.7425q2.4 0 2.4-2.4v-5.5862q0-2.4-2.4-2.4h-7.7425q-2.4 0-2.4 2.4z" clip-path="url(#a)" fill="#fff" stroke="#fff"/>
<g clip-path="url(#a)">
<g transform="translate(1110.2 436.68) rotate(90) scale(.08 -.08)">
<use xlink:href="#r"/>
</g>
</g>
<path d="m1129.5 439.22 2.2814 5.3923q0.93515 2.2103 3.1455 1.2752l7.1306-3.0168q2.2103-0.93515 1.2752-3.1455l-2.2814-5.3923q-0.93515-2.2103-3.1455-1.2752l-7.1306 3.0168q-2.2103 0.93515-1.2752 3.1455z" clip-path="url(#a)" fill="#fff" stroke="#fff"/>
<g clip-path="url(#a)">
<g transform="translate(1133.3 437.64) rotate(67.068) scale(.08 -.08)">
<use xlink:href="#aj"/>
</g>
</g>
<path d="m1058.1 535.38v35.285q0 2.4 2.4 2.4h7.7425q2.4 0 2.4-2.4v-35.285q0-2.4-2.4-2.4h-7.7425q-2.4 0-2.4 2.4z" clip-path="url(#a)" fill="#fff" stroke="#fff"/>
<g clip-path="url(#a)">
<g transform="translate(1062.2 535.38) rotate(90) scale(.08 -.08)">
<use xlink:href="#l"/>
<use x="60.818359" xlink:href="#f"/>
<use x="122.341797" xlink:href="#g"/>
<use x="163.439453" xlink:href="#i"/>
<use x="260.851562" xlink:href="#k"/>
<use x="288.634766" xlink:href="#h"/>
<use x="352.013672" xlink:href="#e"/>
<use x="413.292969" xlink:href="#j"/>
</g>
</g>
<path d="m1106.2 535.38v35.285q0 2.4 2.4 2.4h7.7425q2.4 0 2.4-2.4v-35.285q0-2.4-2.4-2.4h-7.7425q-2.4 0-2.4 2.4z" clip-path="url(#a)" fill="#fff" stroke="#fff"/>
<g clip-path="url(#a)">
<g transform="translate(1110.2 535.38) rotate(90) scale(.08 -.08)">
<use xlink:href="#l"/>
<use x="60.818359" xlink:href="#f"/>
<use x="122.341797" xlink:href="#g"/>
<use x="163.439453" xlink:href="#i"/>
<use x="260.851562" xlink:href="#k"/>
<use x="288.634766" xlink:href="#h"/>
<use x="352.013672" xlink:href="#e"/>
<use x="413.292969" xlink:href="#j"/>
</g>
</g>
<path d="m805.05 444.04 1.7929-4.2376q0.93515-2.2103-1.2752-3.1455l-7.1306-3.0168q-2.2103-0.93515-3.1455 1.2752l-1.7929 4.2376q-0.93515 2.2103 1.2752 3.1455l7.1306 3.0168q2.2103 0.93515 3.1455-1.2752z" clip-path="url(#a)" fill="#fff" stroke="#fff"/>
<g clip-path="url(#a)">
<defs>
<path id="al" d="m9.8125 72.906h41.891v-8.3125h-32.031v-21.484h28.906v-8.2969h-28.906v-34.812h-9.8594z"/>
</defs>
<g transform="translate(801.3 442.45) rotate(-67.068) scale(.08 -.08)">
<use xlink:href="#al"/>
</g>
</g>
<path d="m817.92 436.68v5.5862q0 2.4 2.4 2.4h7.7425q2.4 0 2.4-2.4v-5.5862q0-2.4-2.4-2.4h-7.7425q-2.4 0-2.4 2.4z" clip-path="url(#a)" fill="#fff" stroke="#fff"/>
<g clip-path="url(#a)">
<g transform="translate(821.98 436.68) rotate(90) scale(.08 -.08)">
<use xlink:href="#r"/>
</g>
</g>
<path d="m841.35 439.36 2.1659 5.1194q0.93515 2.2103 3.1455 1.2752l7.1306-3.0168q2.2103-0.93515 1.2752-3.1455l-2.1659-5.1194q-0.93515-2.2103-3.1455-1.2752l-7.1306 3.0168q-2.2103 0.93515-1.2752 3.1455z" clip-path="url(#a)" fill="#fff" stroke="#fff"/>
<g clip-path="url(#a)">
<g transform="translate(845.09 437.78) rotate(67.068) scale(.08 -.08)">
<use xlink:href="#o"/>
</g>
</g>
<path d="m914 535.38v35.285q0 2.4 2.4 2.4h7.7425q2.4 0 2.4-2.4v-35.285q0-2.4-2.4-2.4h-7.7425q-2.4 0-2.4 2.4z" clip-path="url(#a)" fill="#fff" stroke="#fff"/>
<g clip-path="url(#a)">
<g transform="translate(918.06 535.38) rotate(90) scale(.08 -.08)">
<use xlink:href="#l"/>
<use x="60.818359" xlink:href="#f"/>
<use x="122.341797" xlink:href="#g"/>
<use x="163.439453" xlink:href="#i"/>
<use x="260.851562" xlink:href="#k"/>
<use x="288.634766" xlink:href="#h"/>
<use x="352.013672" xlink:href="#e"/>
<use x="413.292969" xlink:href="#j"/>
</g>
</g>
<path d="m962.04 535.38v35.285q0 2.4 2.4 2.4h7.7425q2.4 0 2.4-2.4v-35.285q0-2.4-2.4-2.4h-7.7425q-2.4 0-2.4 2.4z" clip-path="url(#a)" fill="#fff" stroke="#fff"/>
<g clip-path="url(#a)">
<g transform="translate(966.11 535.38) rotate(90) scale(.08 -.08)">
<use xlink:href="#l"/>
<use x="60.818359" xlink:href="#f"/>
<use x="122.341797" xlink:href="#g"/>
<use x="163.439453" xlink:href="#i"/>
<use x="260.851562" xlink:href="#k"/>
<use x="288.634766" xlink:href="#h"/>
<use x="352.013672" xlink:href="#e"/>
<use x="413.292969" xlink:href="#j"/>
</g>
</g>
<path d="m1010.1 535.38v35.285q0 2.4 2.4 2.4h7.7425q2.4 0 2.4-2.4v-35.285q0-2.4-2.4-2.4h-7.7425q-2.4 0-2.4 2.4z" clip-path="url(#a)" fill="#fff" stroke="#fff"/>
<g clip-path="url(#a)">
<g transform="translate(1014.1 535.38) rotate(90) scale(.08 -.08)">
<use xlink:href="#l"/>
<use x="60.818359" xlink:href="#f"/>
<use x="122.341797" xlink:href="#g"/>
<use x="163.439453" xlink:href="#i"/>
<use x="260.851562" xlink:href="#k"/>
<use x="288.634766" xlink:href="#h"/>
<use x="352.013672" xlink:href="#e"/>
<use x="413.292969" xlink:href="#j"/>
</g>
</g>
<path d="m769.88 535.38v35.285q0 2.4 2.4 2.4h7.7425q2.4 0 2.4-2.4v-35.285q0-2.4-2.4-2.4h-7.7425q-2.4 0-2.4 2.4z" clip-path="url(#a)" fill="#fff" stroke="#fff"/>
<g clip-path="url(#a)">
<g transform="translate(773.94 535.38) rotate(90) scale(.08 -.08)">
<use xlink:href="#l"/>
<use x="60.818359" xlink:href="#f"/>
<use x="122.341797" xlink:href="#g"/>
<use x="163.439453" xlink:href="#i"/>
<use x="260.851562" xlink:href="#k"/>
<use x="288.634766" xlink:href="#h"/>
<use x="352.013672" xlink:href="#e"/>
<use x="413.292969" xlink:href="#j"/>
</g>
</g>
<path d="m817.92 535.38v35.285q0 2.4 2.4 2.4h7.7425q2.4 0 2.4-2.4v-35.285q0-2.4-2.4-2.4h-7.7425q-2.4 0-2.4 2.4z" clip-path="url(#a)" fill="#fff" stroke="#fff"/>
<g clip-path="url(#a)">
<g transform="translate(821.98 535.38) rotate(90) scale(.08 -.08)">
<use xlink:href="#l"/>
<use x="60.818359" xlink:href="#f"/>
<use x="122.341797" xlink:href="#g"/>
<use x="163.439453" xlink:href="#i"/>
<use x="260.851562" xlink:href="#k"/>
<use x="288.634766" xlink:href="#h"/>
<use x="352.013672" xlink:href="#e"/>
<use x="413.292969" xlink:href="#j"/>
</g>
</g>
<path d="m865.96 535.38v35.285q0 2.4 2.4 2.4h7.7425q2.4 0 2.4-2.4v-35.285q0-2.4-2.4-2.4h-7.7425q-2.4 0-2.4 2.4z" clip-path="url(#a)" fill="#fff" stroke="#fff"/>
<g clip-path="url(#a)">
<g transform="translate(870.02 535.38) rotate(90) scale(.08 -.08)">
<use xlink:href="#l"/>
<use x="60.818359" xlink:href="#f"/>
<use x="122.341797" xlink:href="#g"/>
<use x="163.439453" xlink:href="#i"/>
<use x="260.851562" xlink:href="#k"/>
<use x="288.634766" xlink:href="#h"/>
<use x="352.013672" xlink:href="#e"/>
<use x="413.292969" xlink:href="#j"/>
</g>
</g>
<path d="m241.42 535.38v35.285q0 2.4 2.4 2.4h7.7425q2.4 0 2.4-2.4v-35.285q0-2.4-2.4-2.4h-7.7425q-2.4 0-2.4 2.4z" clip-path="url(#a)" fill="#fff" stroke="#fff"/>
<g clip-path="url(#a)">
<g transform="translate(245.48 535.38) rotate(90) scale(.08 -.08)">
<use xlink:href="#l"/>
<use x="60.818359" xlink:href="#f"/>
<use x="122.341797" xlink:href="#g"/>
<use x="163.439453" xlink:href="#i"/>
<use x="260.851562" xlink:href="#k"/>
<use x="288.634766" xlink:href="#h"/>
<use x="352.013672" xlink:href="#e"/>
<use x="413.292969" xlink:href="#j"/>
</g>
</g>
<path d="m324.63 444.04 1.7929-4.2376q0.93515-2.2103-1.2752-3.1455l-7.1306-3.0168q-2.2103-0.93515-3.1455 1.2752l-1.7929 4.2376q-0.93515 2.2103 1.2752 3.1455l7.1306 3.0168q2.2103 0.93515 3.1455-1.2752z" clip-path="url(#a)" fill="#fff" stroke="#fff"/>
<g clip-path="url(#a)">
<g transform="translate(320.89 442.45) rotate(-67.068) scale(.08 -.08)">
<use xlink:href="#al"/>
</g>
</g>
<path d="m360.93 439.35 2.1767 5.1447q0.93515 2.2103 3.1455 1.2752l7.1306-3.0168q2.2103-0.93515 1.2752-3.1455l-2.1767-5.1447q-0.93515-2.2103-3.1455-1.2752l-7.1306 3.0168q-2.2103 0.93515-1.2752 3.1455z" clip-path="url(#a)" fill="#fff" stroke="#fff"/>
<g clip-path="url(#a)">
<g transform="translate(364.67 437.76) rotate(67.068) scale(.08 -.08)">
<use xlink:href="#r"/>
</g>
</g>
<path d="m337.5 535.38v35.285q0 2.4 2.4 2.4h7.7425q2.4 0 2.4-2.4v-35.285q0-2.4-2.4-2.4h-7.7425q-2.4 0-2.4 2.4z" clip-path="url(#a)" fill="#fff" stroke="#fff"/>
<g clip-path="url(#a)">
<g transform="translate(341.56 535.38) rotate(90) scale(.08 -.08)">
<use xlink:href="#l"/>
<use x="60.818359" xlink:href="#f"/>
<use x="122.341797" xlink:href="#g"/>
<use x="163.439453" xlink:href="#i"/>
<use x="260.851562" xlink:href="#k"/>
<use x="288.634766" xlink:href="#h"/>
<use x="352.013672" xlink:href="#e"/>
<use x="413.292969" xlink:href="#j"/>
</g>
</g>
<path d="m483.92 386.57 1.7959-5.2607q0.77538-2.2713-1.4959-3.0467l-7.3273-2.5014q-2.2713-0.77538-3.0467 1.4959l-1.7959 5.2607q-0.77538 2.2713 1.4959 3.0467l7.3273 2.5014q2.2713 0.77538 3.0467-1.4959z" clip-path="url(#a)" fill="#fff" stroke="#fff"/>
<g clip-path="url(#a)">
<g transform="translate(480.08 385.25) rotate(-71.151) scale(.08 -.08)">
<use xlink:href="#o"/>
</g>
</g>
<path d="m508.8 385.23 0.65807-5.012q0.31244-2.3796-2.0671-2.692l-7.6766-1.0079q-2.3796-0.31244-2.692 2.0671l-0.65807 5.012q-0.31244 2.3796 2.0671 2.692l7.6766 1.0079q2.3796 0.31244 2.692-2.0671z" clip-path="url(#a)" fill="#fff" stroke="#fff"/>
<g clip-path="url(#a)">
<g transform="translate(504.77 384.7) rotate(-82.52) scale(.08 -.08)">
<use xlink:href="#u"/>
</g>
</g>
<path d="m520.46 379.62 0.43873 5.569q0.18849 2.3926 2.5811 2.2041l7.7186-0.60807q2.3926-0.18849 2.2041-2.5811l-0.43873-5.569q-0.18849-2.3926-2.5811-2.2041l-7.7186 0.60807q-2.3926 0.18849-2.2041 2.5811z" clip-path="url(#a)" fill="#fff" stroke="#fff"/>
<g clip-path="url(#a)">
<g transform="translate(524.51 379.3) rotate(85.496) scale(.08 -.08)">
<use xlink:href="#r"/>
</g>
</g>
<path d="m556.46 327.01 3.1149 3.9812q1.4789 1.8902 3.3691 0.41132l6.0979-4.771q1.8902-1.4789 0.41132-3.3691l-3.1149-3.9812q-1.4789-1.8902-3.3691-0.41132l-6.0979 4.771q-1.8902 1.4789-0.41132 3.3691z" clip-path="url(#a)" fill="#fff" stroke="#fff"/>
<g clip-path="url(#a)">
<g transform="translate(559.66 324.5) rotate(51.961) scale(.08 -.08)">
<use xlink:href="#u"/>
</g>
</g>
<path d="m433.58 535.38v35.285q0 2.4 2.4 2.4h7.7425q2.4 0 2.4-2.4v-35.285q0-2.4-2.4-2.4h-7.7425q-2.4 0-2.4 2.4z" clip-path="url(#a)" fill="#fff" stroke="#fff"/>
<g clip-path="url(#a)">
<g transform="translate(437.65 535.38) rotate(90) scale(.08 -.08)">
<use xlink:href="#l"/>
<use x="60.818359" xlink:href="#f"/>
<use x="122.341797" xlink:href="#g"/>
<use x="163.439453" xlink:href="#i"/>
<use x="260.851562" xlink:href="#k"/>
<use x="288.634766" xlink:href="#h"/>
<use x="352.013672" xlink:href="#e"/>
<use x="413.292969" xlink:href="#j"/>
</g>
</g>
<path d="m481.62 535.38v35.285q0 2.4 2.4 2.4h7.7425q2.4 0 2.4-2.4v-35.285q0-2.4-2.4-2.4h-7.7425q-2.4 0-2.4 2.4z" clip-path="url(#a)" fill="#fff" stroke="#fff"/>
<g clip-path="url(#a)">
<g transform="translate(485.69 535.38) rotate(90) scale(.08 -.08)">
<use xlink:href="#l"/>
<use x="60.818359" xlink:href="#f"/>
<use x="122.341797" xlink:href="#g"/>
<use x="163.439453" xlink:href="#i"/>
<use x="260.851562" xlink:href="#k"/>
<use x="288.634766" xlink:href="#h"/>
<use x="352.013672" xlink:href="#e"/>
<use x="413.292969" xlink:href="#j"/>
</g>
</g>
<path d="m529.67 535.38v35.285q0 2.4 2.4 2.4h7.7425q2.4 0 2.4-2.4v-35.285q0-2.4-2.4-2.4h-7.7425q-2.4 0-2.4 2.4z" clip-path="url(#a)" fill="#fff" stroke="#fff"/>
<g clip-path="url(#a)">
<g transform="translate(533.73 535.38) rotate(90) scale(.08 -.08)">
<use xlink:href="#l"/>
<use x="60.818359" xlink:href="#f"/>
<use x="122.341797" xlink:href="#g"/>
<use x="163.439453" xlink:href="#i"/>
<use x="260.851562" xlink:href="#k"/>
<use x="288.634766" xlink:href="#h"/>
<use x="352.013672" xlink:href="#e"/>
<use x="413.292969" xlink:href="#j"/>
</g>
</g>
<path d="m601.55 443.49 1.1504-5.4384q0.49671-2.348-1.8513-2.8447l-7.5749-1.6024q-2.348-0.49671-2.8447 1.8513l-1.1504 5.4384q-0.49671 2.348 1.8513 2.8447l7.5749 1.6024q2.348 0.49671 2.8447-1.8513z" clip-path="url(#a)" fill="#fff" stroke="#fff"/>
<g clip-path="url(#a)">
<g transform="translate(597.57 442.65) rotate(-78.056) scale(.08 -.08)">
<use xlink:href="#o"/>
</g>
</g>
<path d="m613.3 438.04 1.1561 5.4653q0.49671 2.348 2.8447 1.8513l7.5749-1.6024q2.348-0.49671 1.8513-2.8447l-1.1561-5.4653q-0.49671-2.348-2.8447-1.8513l-7.5749 1.6024q-2.348 0.49671-1.8513 2.8447z" clip-path="url(#a)" fill="#fff" stroke="#fff"/>
<g clip-path="url(#a)">
<g transform="translate(617.27 437.2) rotate(78.056) scale(.08 -.08)">
<use xlink:href="#r"/>
</g>
</g>
<path d="m577.71 535.38v35.285q0 2.4 2.4 2.4h7.7425q2.4 0 2.4-2.4v-35.285q0-2.4-2.4-2.4h-7.7425q-2.4 0-2.4 2.4z" clip-path="url(#a)" fill="#fff" stroke="#fff"/>
<g clip-path="url(#a)">
<g transform="translate(581.77 535.38) rotate(90) scale(.08 -.08)">
<use xlink:href="#l"/>
<use x="60.818359" xlink:href="#f"/>
<use x="122.341797" xlink:href="#g"/>
<use x="163.439453" xlink:href="#i"/>
<use x="260.851562" xlink:href="#k"/>
<use x="288.634766" xlink:href="#h"/>
<use x="352.013672" xlink:href="#e"/>
<use x="413.292969" xlink:href="#j"/>
</g>
</g>
<path d="m625.75 535.38v35.285q0 2.4 2.4 2.4h7.7425q2.4 0 2.4-2.4v-35.285q0-2.4-2.4-2.4h-7.7425q-2.4 0-2.4 2.4z" clip-path="url(#a)" fill="#fff" stroke="#fff"/>
<g clip-path="url(#a)">
<g transform="translate(629.81 535.38) rotate(90) scale(.08 -.08)">
<use xlink:href="#l"/>
<use x="60.818359" xlink:href="#f"/>
<use x="122.341797" xlink:href="#g"/>
<use x="163.439453" xlink:href="#i"/>
<use x="260.851562" xlink:href="#k"/>
<use x="288.634766" xlink:href="#h"/>
<use x="352.013672" xlink:href="#e"/>
<use x="413.292969" xlink:href="#j"/>
</g>
</g>
<path d="m289.46 535.38v35.285q0 2.4 2.4 2.4h7.7425q2.4 0 2.4-2.4v-35.285q0-2.4-2.4-2.4h-7.7425q-2.4 0-2.4 2.4z" clip-path="url(#a)" fill="#fff" stroke="#fff"/>
<g clip-path="url(#a)">
<g transform="translate(293.52 535.38) rotate(90) scale(.08 -.08)">
<use xlink:href="#l"/>
<use x="60.818359" xlink:href="#f"/>
<use x="122.341797" xlink:href="#g"/>
<use x="163.439453" xlink:href="#i"/>
<use x="260.851562" xlink:href="#k"/>
<use x="288.634766" xlink:href="#h"/>
<use x="352.013672" xlink:href="#e"/>
<use x="413.292969" xlink:href="#j"/>
</g>
</g>
<path d="m385.54 535.38v35.285q0 2.4 2.4 2.4h7.7425q2.4 0 2.4-2.4v-35.285q0-2.4-2.4-2.4h-7.7425q-2.4 0-2.4 2.4z" clip-path="url(#a)" fill="#fff" stroke="#fff"/>
<g clip-path="url(#a)">
<g transform="translate(389.6 535.38) rotate(90) scale(.08 -.08)">
<use xlink:href="#l"/>
<use x="60.818359" xlink:href="#f"/>
<use x="122.341797" xlink:href="#g"/>
<use x="163.439453" xlink:href="#i"/>
<use x="260.851562" xlink:href="#k"/>
<use x="288.634766" xlink:href="#h"/>
<use x="352.013672" xlink:href="#e"/>
<use x="413.292969" xlink:href="#j"/>
</g>
</g>
<path d="m49.248 535.38v35.285q0 2.4 2.4 2.4h7.7425q2.4 0 2.4-2.4v-35.285q0-2.4-2.4-2.4h-7.7425q-2.4 0-2.4 2.4z" clip-path="url(#a)" fill="#fff" stroke="#fff"/>
<g clip-path="url(#a)">
<g transform="translate(53.312 535.38) rotate(90) scale(.08 -.08)">
<use xlink:href="#l"/>
<use x="60.818359" xlink:href="#f"/>
<use x="122.341797" xlink:href="#g"/>
<use x="163.439453" xlink:href="#i"/>
<use x="260.851562" xlink:href="#k"/>
<use x="288.634766" xlink:href="#h"/>
<use x="352.013672" xlink:href="#e"/>
<use x="413.292969" xlink:href="#j"/>
</g>
</g>
<path d="m97.29 535.38v35.285q0 2.4 2.4 2.4h7.7425q2.4 0 2.4-2.4v-35.285q0-2.4-2.4-2.4h-7.7425q-2.4 0-2.4 2.4z" clip-path="url(#a)" fill="#fff" stroke="#fff"/>
<g clip-path="url(#a)">
<g transform="translate(101.35 535.38) rotate(90) scale(.08 -.08)">
<use xlink:href="#l"/>
<use x="60.818359" xlink:href="#f"/>
<use x="122.341797" xlink:href="#g"/>
<use x="163.439453" xlink:href="#i"/>
<use x="260.851562" xlink:href="#k"/>
<use x="288.634766" xlink:href="#h"/>
<use x="352.013672" xlink:href="#e"/>
<use x="413.292969" xlink:href="#j"/>
</g>
</g>
<path d="m145.33 535.38v35.285q0 2.4 2.4 2.4h7.7425q2.4 0 2.4-2.4v-35.285q0-2.4-2.4-2.4h-7.7425q-2.4 0-2.4 2.4z" clip-path="url(#a)" fill="#fff" stroke="#fff"/>
<g clip-path="url(#a)">
<g transform="translate(149.4 535.38) rotate(90) scale(.08 -.08)">
<use xlink:href="#l"/>
<use x="60.818359" xlink:href="#f"/>
<use x="122.341797" xlink:href="#g"/>
<use x="163.439453" xlink:href="#i"/>
<use x="260.851562" xlink:href="#k"/>
<use x="288.634766" xlink:href="#h"/>
<use x="352.013672" xlink:href="#e"/>
<use x="413.292969" xlink:href="#j"/>
</g>
</g>
<path d="m485.17 98.019 8.9351-4.338q2.159-1.0482 1.1108-3.2072l-3.3815-6.965q-1.0482-2.159-3.2072-1.1108l-8.9351 4.338q-2.159 1.0482-1.1108 3.2072l3.3815 6.965q1.0482 2.159 3.2072 1.1108z" clip-path="url(#a)" fill="#fff" stroke="#fff"/>
<g clip-path="url(#a)">
<g transform="translate(483.39 94.363) rotate(-25.896) scale(.08 -.08)">
<use xlink:href="#q"/>
<use x="55.744141" xlink:href="#p"/>
</g>
</g>
<path d="m650.16 259.55 1.9719 9.8202q0.47248 2.353 2.8255 1.8806l7.591-1.5242q2.353-0.47248 1.8806-2.8255l-1.9719-9.8202q-0.47248-2.353-2.8255-1.8806l-7.591 1.5242q-2.353 0.47248-1.8806 2.8255z" clip-path="url(#a)" fill="#fff" stroke="#fff"/>
<g clip-path="url(#a)">
<g transform="translate(654.14 258.75) rotate(78.646) scale(.08 -.08)">
<use xlink:href="#q"/>
<use x="55.712891" xlink:href="#o"/>
</g>
</g>
<path d="m679.54 92.093 7.8272 6.1148q1.8913 1.4775 3.3688-0.41377l4.7665-6.1014q1.4775-1.8913-0.41377-3.3688l-7.8272-6.1148q-1.8913-1.4775-3.3688 0.41377l-4.7665 6.1014q-1.4775 1.8913 0.41377 3.3688z" clip-path="url(#a)" fill="#fff" stroke="#fff"/>
<g clip-path="url(#a)">
<g transform="translate(682.05 88.891) rotate(37.998) scale(.08 -.08)">
<use xlink:href="#q"/>
<use x="55.744141" xlink:href="#p"/>
</g>
</g>
<path d="m172.65 213.32 3.4625-9.3987q0.82966-2.252-1.4224-3.0817l-7.2652-2.6765q-2.252-0.82966-3.0817 1.4224l-3.4625 9.3987q-0.82966 2.252 1.4224 3.0817l7.2652 2.6765q2.252 0.82966 3.0817-1.4224z" clip-path="url(#a)" fill="#fff" stroke="#fff"/>
<g clip-path="url(#a)">
<g transform="translate(168.83 211.91) rotate(-69.776) scale(.08 -.08)">
<use xlink:href="#q"/>
<use x="55.712891" xlink:href="#o"/>
</g>
</g>
<path d="m290.45 91.443 7.2943 6.7415q1.7625 1.629 3.3915-0.13356l5.2551-5.686q1.629-1.7625-0.13356-3.3915l-7.2943-6.7415q-1.7625-1.629-3.3915 0.13356l-5.2551 5.686q-1.629 1.7625 0.13356 3.3915z" clip-path="url(#a)" fill="#fff" stroke="#fff"/>
<g clip-path="url(#a)">
<g transform="translate(293.21 88.459) rotate(42.745) scale(.08 -.08)">
<use xlink:href="#q"/>
<use x="55.744141" xlink:href="#p"/>
</g>
</g>
<path d="m193.37 535.38v35.285q0 2.4 2.4 2.4h7.7425q2.4 0 2.4-2.4v-35.285q0-2.4-2.4-2.4h-7.7425q-2.4 0-2.4 2.4z" clip-path="url(#a)" fill="#fff" stroke="#fff"/>
<g clip-path="url(#a)">
<g transform="translate(197.44 535.38) rotate(90) scale(.08 -.08)">
<use xlink:href="#l"/>
<use x="60.818359" xlink:href="#f"/>
<use x="122.341797" xlink:href="#g"/>
<use x="163.439453" xlink:href="#i"/>
<use x="260.851562" xlink:href="#k"/>
<use x="288.634766" xlink:href="#h"/>
<use x="352.013672" xlink:href="#e"/>
<use x="413.292969" xlink:href="#j"/>
</g>
</g>
<path d="m1154.2 535.38v35.285q0 2.4 2.4 2.4h7.7425q2.4 0 2.4-2.4v-35.285q0-2.4-2.4-2.4h-7.7425q-2.4 0-2.4 2.4z" clip-path="url(#a)" fill="#fff" stroke="#fff"/>
<g clip-path="url(#a)">
<g transform="translate(1158.3 535.38) rotate(90) scale(.08 -.08)">
<use xlink:href="#l"/>
<use x="60.818359" xlink:href="#f"/>
<use x="122.341797" xlink:href="#g"/>
<use x="163.439453" xlink:href="#i"/>
<use x="260.851562" xlink:href="#k"/>
<use x="288.634766" xlink:href="#h"/>
<use x="352.013672" xlink:href="#e"/>
<use x="413.292969" xlink:href="#j"/>
</g>
</g>
<defs>
<path id="b" d="m0 8.6603c2.2967 0 4.4997-0.9125 6.1237-2.5365 1.624-1.624 2.5365-3.827 2.5365-6.1237s-0.9125-4.4997-2.5365-6.1237c-1.624-1.624-3.827-2.5365-6.1237-2.5365s-4.4997 0.9125-6.1237 2.5365c-1.624 1.624-2.5365 3.827-2.5365 6.1237s0.9125 4.4997 2.5365 6.1237c1.624 1.624 3.827 2.5365 6.1237 2.5365z"/>
</defs>
<g clip-path="url(#a)">
<use x="55.519075" y="609.80278" fill="#ffffff" stroke="#ffffff" xlink:href="#b"/>
</g>
<g clip-path="url(#a)">
<use x="103.560895" y="609.80278" fill="#ffffff" stroke="#ffffff" xlink:href="#b"/>
</g>
<g clip-path="url(#a)">
<use x="151.602714" y="609.80278" fill="#ffffff" stroke="#ffffff" xlink:href="#b"/>
</g>
<g clip-path="url(#a)">
<use x="199.644534" y="609.80278" fill="#ffffff" stroke="#ffffff" xlink:href="#b"/>
</g>
<g clip-path="url(#a)">
<use x="247.686353" y="609.80278" fill="#ffffff" stroke="#ffffff" xlink:href="#b"/>
</g>
<g clip-path="url(#a)">
<use x="295.728173" y="609.80278" fill="#ffffff" stroke="#ffffff" xlink:href="#b"/>
</g>
<g clip-path="url(#a)">
<use x="343.769993" y="609.80278" fill="#ffffff" stroke="#ffffff" xlink:href="#b"/>
</g>
<g clip-path="url(#a)">
<use x="391.811812" y="609.80278" fill="#ffffff" stroke="#ffffff" xlink:href="#b"/>
</g>
<g clip-path="url(#a)">
<use x="439.853632" y="609.80278" fill="#ffffff" stroke="#ffffff" xlink:href="#b"/>
</g>
<g clip-path="url(#a)">
<use x="487.895451" y="609.80278" fill="#ffffff" stroke="#ffffff" xlink:href="#b"/>
</g>
<g clip-path="url(#a)">
<use x="535.937271" y="609.80278" fill="#ffffff" stroke="#ffffff" xlink:href="#b"/>
</g>
<g clip-path="url(#a)">
<use x="583.97909" y="609.80278" fill="#ffffff" stroke="#ffffff" xlink:href="#b"/>
</g>
<g clip-path="url(#a)">
<use x="632.02091" y="609.80278" fill="#ffffff" stroke="#ffffff" xlink:href="#b"/>
</g>
<g clip-path="url(#a)">
<use x="680.062729" y="609.80278" fill="#ffffff" stroke="#ffffff" xlink:href="#b"/>
</g>
<g clip-path="url(#a)">
<use x="728.104549" y="609.80278" fill="#ffffff" stroke="#ffffff" xlink:href="#b"/>
</g>
<g clip-path="url(#a)">
<use x="776.146368" y="609.80278" fill="#ffffff" stroke="#ffffff" xlink:href="#b"/>
</g>
<g clip-path="url(#a)">
<use x="824.188188" y="609.80278" fill="#ffffff" stroke="#ffffff" xlink:href="#b"/>
</g>
<g clip-path="url(#a)">
<use x="872.230007" y="609.80278" fill="#ffffff" stroke="#ffffff" xlink:href="#b"/>
</g>
<g clip-path="url(#a)">
<use x="920.271827" y="609.80278" fill="#ffffff" stroke="#ffffff" xlink:href="#b"/>
</g>
<g clip-path="url(#a)">
<use x="968.313647" y="609.80278" fill="#ffffff" stroke="#ffffff" xlink:href="#b"/>
</g>
<g clip-path="url(#a)">
<use x="1016.355466" y="609.80278" fill="#ffffff" stroke="#ffffff" xlink:href="#b"/>
</g>
<g clip-path="url(#a)">
<use x="1064.397286" y="609.80278" fill="#ffffff" stroke="#ffffff" xlink:href="#b"/>
</g>
<g clip-path="url(#a)">
<use x="1112.439105" y="609.80278" fill="#ffffff" stroke="#ffffff" xlink:href="#b"/>
</g>
<g clip-path="url(#a)">
<use x="1160.480925" y="609.80278" fill="#ffffff" stroke="#ffffff" xlink:href="#b"/>
</g>
<g clip-path="url(#a)">
<use x="426.942393" y="30.19722" fill="#ffffff" stroke="#ffffff" xlink:href="#b"/>
</g>
<g clip-path="url(#a)">
<use x="103.560895" y="382.69919" fill="#ffffff" stroke="#ffffff" xlink:href="#b"/>
</g>
<g clip-path="url(#a)">
<use x="363.286982" y="150.219397" fill="#ffffff" stroke="#ffffff" xlink:href="#b"/>
</g>
<g clip-path="url(#a)">
<use x="704.083639" y="496.250985" fill="#ffffff" stroke="#ffffff" xlink:href="#b"/>
</g>
<g clip-path="url(#a)">
<use x="764.135914" y="150.219397" fill="#ffffff" stroke="#ffffff" xlink:href="#b"/>
</g>
<g clip-path="url(#a)">
<use x="932.282282" y="267.567765" fill="#ffffff" stroke="#ffffff" xlink:href="#b"/>
</g>
<g clip-path="url(#a)">
<use x="1112.439105" y="382.69919" fill="#ffffff" stroke="#ffffff" xlink:href="#b"/>
</g>
<g clip-path="url(#a)">
<use x="1064.397286" y="496.250985" fill="#ffffff" stroke="#ffffff" xlink:href="#b"/>
</g>
<g clip-path="url(#a)">
<use x="1112.439105" y="496.250985" fill="#ffffff" stroke="#ffffff" xlink:href="#b"/>
</g>
<g clip-path="url(#a)">
<use x="824.188188" y="382.69919" fill="#ffffff" stroke="#ffffff" xlink:href="#b"/>
</g>
<g clip-path="url(#a)">
<use x="920.271827" y="496.250985" fill="#ffffff" stroke="#ffffff" xlink:href="#b"/>
</g>
<g clip-path="url(#a)">
<use x="968.313647" y="496.250985" fill="#ffffff" stroke="#ffffff" xlink:href="#b"/>
</g>
<g clip-path="url(#a)">
<use x="1016.355466" y="496.250985" fill="#ffffff" stroke="#ffffff" xlink:href="#b"/>
</g>
<g clip-path="url(#a)">
<use x="776.146368" y="496.250985" fill="#ffffff" stroke="#ffffff" xlink:href="#b"/>
</g>
<g clip-path="url(#a)">
<use x="824.188188" y="496.250985" fill="#ffffff" stroke="#ffffff" xlink:href="#b"/>
</g>
<g clip-path="url(#a)">
<use x="872.230007" y="496.250985" fill="#ffffff" stroke="#ffffff" xlink:href="#b"/>
</g>
<g clip-path="url(#a)">
<use x="247.686353" y="496.250985" fill="#ffffff" stroke="#ffffff" xlink:href="#b"/>
</g>
<g clip-path="url(#a)">
<use x="343.769993" y="382.69919" fill="#ffffff" stroke="#ffffff" xlink:href="#b"/>
</g>
<g clip-path="url(#a)">
<use x="343.769993" y="496.250985" fill="#ffffff" stroke="#ffffff" xlink:href="#b"/>
</g>
<g clip-path="url(#a)">
<use x="517.921588" y="267.567765" fill="#ffffff" stroke="#ffffff" xlink:href="#b"/>
</g>
<g clip-path="url(#a)">
<use x="439.853632" y="496.250985" fill="#ffffff" stroke="#ffffff" xlink:href="#b"/>
</g>
<g clip-path="url(#a)">
<use x="487.895451" y="496.250985" fill="#ffffff" stroke="#ffffff" xlink:href="#b"/>
</g>
<g clip-path="url(#a)">
<use x="535.937271" y="496.250985" fill="#ffffff" stroke="#ffffff" xlink:href="#b"/>
</g>
<g clip-path="url(#a)">
<use x="608" y="382.69919" fill="#ffffff" stroke="#ffffff" xlink:href="#b"/>
</g>
<g clip-path="url(#a)">
<use x="583.97909" y="496.250985" fill="#ffffff" stroke="#ffffff" xlink:href="#b"/>
</g>
<g clip-path="url(#a)">
<use x="632.02091" y="496.250985" fill="#ffffff" stroke="#ffffff" xlink:href="#b"/>
</g>
<g clip-path="url(#a)">
<use x="295.728173" y="496.250985" fill="#ffffff" stroke="#ffffff" xlink:href="#b"/>
</g>
<g clip-path="url(#a)">
<use x="391.811812" y="496.250985" fill="#ffffff" stroke="#ffffff" xlink:href="#b"/>
</g>
<g clip-path="url(#a)">
<use x="55.519075" y="496.250985" fill="#ffffff" stroke="#ffffff" xlink:href="#b"/>
</g>
<g clip-path="url(#a)">
<use x="103.560895" y="496.250985" fill="#ffffff" stroke="#ffffff" xlink:href="#b"/>
</g>
<g clip-path="url(#a)">
<use x="151.602714" y="496.250985" fill="#ffffff" stroke="#ffffff" xlink:href="#b"/>
</g>
<g clip-path="url(#a)">
<use x="610.502178" y="30.19722" fill="#808080" stroke="#808080" xlink:href="#b"/>
</g>
<g clip-path="url(#a)">
<use x="233.423938" y="30.19722" fill="#808080" stroke="#808080" xlink:href="#b"/>
</g>
<g clip-path="url(#a)">
<use x="199.644534" y="496.250985" fill="#ffffff" stroke="#ffffff" xlink:href="#b"/>
</g>
<g clip-path="url(#a)">
<use x="1160.480925" y="496.250985" fill="#ffffff" stroke="#ffffff" xlink:href="#b"/>
</g>
<g clip-path="url(#a)">
<defs>
<path id="aa" d="m44.281 53.078v-8.5q-3.7969 1.9531-7.9062 2.9219-4.0938 0.98438-8.5 0.98438-6.6875 0-10.031-2.0469t-3.3438-6.1562q0-3.125 2.3906-4.9062t9.625-3.3906l3.0781-0.6875q9.5625-2.0469 13.594-5.7812t4.0312-10.422q0-7.625-6.0312-12.078-6.0312-4.4375-16.578-4.4375-4.3906 0-9.1562 0.85938t-10.031 2.5625v9.2812q4.9844-2.5938 9.8125-3.8906 4.8281-1.2812 9.5781-1.2812 6.3438 0 9.75 2.1719 3.4219 2.1719 3.4219 6.125 0 3.6562-2.4688 5.6094-2.4531 1.9531-10.812 3.7656l-3.125 0.73438q-8.3438 1.75-12.062 5.3906-3.7031 3.6406-3.7031 9.9844 0 7.7188 5.4688 11.906 5.4688 4.2031 15.531 4.2031 4.9688 0 9.3594-0.73438 4.4062-0.71875 8.1094-2.1875z"/>
</defs>
<g transform="translate(49.494 612.56) scale(.1 -.1)">
<use xlink:href="#p"/>
<use x="68.408203" xlink:href="#aa"/>
</g>
</g>
<g clip-path="url(#a)">
<defs>
<path id="ab" d="m37.109 75.984v-7.4844h-8.5938q-4.8281 0-6.7188-1.9531-1.875-1.9531-1.875-7.0312v-4.8281h14.797v-6.9844h-14.797v-47.703h-9.0312v47.703h-8.5938v6.9844h8.5938v3.8125q0 9.125 4.25 13.297 4.25 4.1875 13.469 4.1875z"/>
<path id="t" d="m30.609 48.391q-7.2188 0-11.422-5.6406t-4.2031-15.453 4.1719-15.453q4.1875-5.6406 11.453-5.6406 7.1875 0 11.375 5.6562 4.2031 5.6719 4.2031 15.438 0 9.7188-4.2031 15.406-4.1875 5.6875-11.375 5.6875zm0 7.6094q11.719 0 18.406-7.625 6.7031-7.6094 6.7031-21.078 0-13.422-6.7031-21.078-6.6875-7.6406-18.406-7.6406-11.766 0-18.438 7.6406-6.6562 7.6562-6.6562 21.078 0 13.469 6.6562 21.078 6.6719 7.625 18.438 7.625z"/>
</defs>
<g transform="translate(96.686 612.56) scale(.1 -.1)">
<use xlink:href="#ab"/>
<use x="35.205078" xlink:href="#t"/>
<use x="96.386719" xlink:href="#g"/>
</g>
</g>
<g clip-path="url(#a)">
<g transform="translate(143.66 612.56) scale(.1 -.1)">
<use xlink:href="#i"/>
<use x="97.412109" xlink:href="#f"/>
</g>
</g>
<g clip-path="url(#a)">
<defs>
<path id="aq" d="m11.719 12.406h10.297v-8.4062l-8-15.625h-6.2969l4 15.625z"/>
</defs>
<g transform="translate(198.06 612.56) scale(.1 -.1)">
<use xlink:href="#aq"/>
</g>
</g>
<g clip-path="url(#a)">
<defs>
<path id="ao" d="m9.8125 72.906h9.8594v-72.906h-9.8594z"/>
</defs>
<g transform="translate(246.21 612.56) scale(.1 -.1)">
<use xlink:href="#ao"/>
</g>
</g>
<g clip-path="url(#a)">
<defs>
<path id="ag" d="m4.2031 54.688h8.9844l11.234-42.672 11.172 42.672h10.594l11.234-42.672 11.188 42.672h8.9844l-14.312-54.688h-10.594l-11.766 44.828-11.812-44.828h-10.609z"/>
</defs>
<g transform="translate(285.97 612.56) scale(.1 -.1)">
<use xlink:href="#ag"/>
<use x="81.787109" xlink:href="#e"/>
<use x="143.066406" xlink:href="#aa"/>
</g>
</g>
<g clip-path="url(#a)">
<defs>
<path id="ah" d="m54.891 33.016v-33.016h-8.9844v32.719q0 7.7656-3.0312 11.609-3.0312 3.8594-9.0781 3.8594-7.2812 0-11.484-4.6406-4.2031-4.625-4.2031-12.641v-30.906h-9.0312v75.984h9.0312v-29.797q3.2344 4.9375 7.5938 7.375 4.375 2.4375 10.094 2.4375 9.4219 0 14.25-5.8281 4.8438-5.8281 4.8438-17.156z"/>
<path id="ac" d="m45.406 46.391v29.594h8.9844v-75.984h-8.9844v8.2031q-2.8281-4.875-7.1562-7.25-4.3125-2.375-10.375-2.375-9.9062 0-16.141 7.9062-6.2188 7.9219-6.2188 20.812t6.2188 20.797q6.2344 7.9062 16.141 7.9062 6.0625 0 10.375-2.375 4.3281-2.3594 7.1562-7.2344zm-30.609-19.094q0-9.9062 4.0781-15.547t11.203-5.6406 11.219 5.6406q4.1094 5.6406 4.1094 15.547t-4.1094 15.547q-4.0938 5.6406-11.219 5.6406t-11.203-5.6406-4.0781-15.547z"/>
<path id="z" d="m32.172-5.0781q-3.7969-9.7656-7.4219-12.734-3.6094-2.9844-9.6562-2.9844h-7.1875v7.5156h5.2812q3.7031 0 5.75 1.7656 2.0625 1.75 4.5469 8.2969l1.6094 4.0938-22.109 53.812h9.5156l17.094-42.766 17.094 42.766h9.5156z"/>
</defs>
<g transform="translate(327.96 612.56) scale(.1 -.1)">
<use xlink:href="#ah"/>
<use x="63.378906" xlink:href="#e"/>
<use x="124.658203" xlink:href="#g"/>
<use x="165.755859" xlink:href="#ac"/>
<use x="229.232422" xlink:href="#j"/>
<use x="257.015625" xlink:href="#z"/>
</g>
</g>
<g clip-path="url(#a)">
<g transform="translate(376.26 612.56) scale(.1 -.1)">
<use xlink:href="#ac"/>
<use x="63.476562" xlink:href="#g"/>
<use x="104.589844" xlink:href="#e"/>
<use x="165.869141" xlink:href="#ag"/>
<use x="247.65625" xlink:href="#h"/>
</g>
</g>
<g clip-path="url(#a)">
<defs>
<path id="ai" d="m48.688 27.297q0 9.9062-4.0781 15.547t-11.203 5.6406q-7.1406 0-11.219-5.6406t-4.0781-15.547 4.0781-15.547 11.219-5.6406q7.125 0 11.203 5.6406t4.0781 15.547zm-30.578 19.094q2.8438 4.875 7.1562 7.2344 4.3281 2.375 10.328 2.375 9.9688 0 16.188-7.9062 6.2344-7.9062 6.2344-20.797t-6.2344-20.812q-6.2188-7.9062-16.188-7.9062-6 0-10.328 2.375-4.3125 2.375-7.1562 7.25v-8.2031h-9.0312v75.984h9.0312z"/>
</defs>
<g transform="translate(433.72 612.56) scale(.1 -.1)">
<use xlink:href="#ai"/>
<use x="63.476562" xlink:href="#z"/>
</g>
</g>
<g clip-path="url(#a)">
<defs>
<path id="s" d="m18.312 70.219v-15.531h18.5v-6.9844h-18.5v-29.688q0-6.6875 1.8281-8.5938t7.4531-1.9062h9.2188v-7.5156h-9.2188q-10.406 0-14.359 3.875-3.9531 3.8906-3.9531 14.141v29.688h-6.5938v6.9844h6.5938v15.531z"/>
</defs>
<g transform="translate(479.69 612.56) scale(.1 -.1)">
<use xlink:href="#s"/>
<use x="39.208984" xlink:href="#ah"/>
<use x="102.587891" xlink:href="#f"/>
</g>
</g>
<g clip-path="url(#a)">
<defs>
<path id="as" d="m8.5 21.578v33.109h8.9844v-32.766q0-7.7656 3.0156-11.656 3.0312-3.875 9.0938-3.875 7.2656 0 11.484 4.6406 4.2344 4.6406 4.2344 12.656v31h8.9844v-54.688h-8.9844v8.4062q-3.2656-4.9844-7.5938-7.4062-4.3125-2.4219-10.031-2.4219-9.4219 0-14.312 5.8594-4.875 5.8594-4.875 17.141z"/>
</defs>
<g transform="translate(526.25 612.56) scale(.1 -.1)">
<use xlink:href="#j"/>
<use x="27.783203" xlink:href="#as"/>
<use x="91.162109" xlink:href="#g"/>
<use x="132.244141" xlink:href="#f"/>
</g>
</g>
<g clip-path="url(#a)">
<g transform="translate(579.16 612.56) scale(.1 -.1)">
<use xlink:href="#t"/>
<use x="61.181641" xlink:href="#ab"/>
</g>
</g>
<g clip-path="url(#a)">
<g transform="translate(614.89 612.56) scale(.1 -.1)">
<use xlink:href="#i"/>
<use x="97.412109" xlink:href="#t"/>
<use x="158.59375" xlink:href="#h"/>
<use x="221.972656" xlink:href="#f"/>
<use x="283.496094" xlink:href="#z"/>
</g>
</g>
<g clip-path="url(#a)">
<g transform="translate(670.66 612.56) scale(.1 -.1)">
<use xlink:href="#e"/>
<use x="61.279297" xlink:href="#h"/>
<use x="124.658203" xlink:href="#ac"/>
</g>
</g>
<g clip-path="url(#a)">
<g transform="translate(720.11 612.56) scale(.1 -.1)">
<use xlink:href="#z"/>
<use x="59.179688" xlink:href="#f"/>
<use x="120.703125" xlink:href="#s"/>
</g>
</g>
<g clip-path="url(#a)">
<g transform="translate(766.39 612.56) scale(.1 -.1)">
<use xlink:href="#ag"/>
<use x="81.787109" xlink:href="#e"/>
<use x="143.066406" xlink:href="#aa"/>
</g>
</g>
<g clip-path="url(#a)">
<g transform="translate(817.31 612.56) scale(.1 -.1)">
<use xlink:href="#ab"/>
<use x="35.205078" xlink:href="#e"/>
<use x="96.484375" xlink:href="#g"/>
</g>
</g>
<g clip-path="url(#a)">
<g transform="translate(860.49 612.56) scale(.1 -.1)">
<use xlink:href="#ab"/>
<use x="35.205078" xlink:href="#g"/>
<use x="76.287109" xlink:href="#t"/>
<use x="137.46875" xlink:href="#i"/>
</g>
</g>
<g clip-path="url(#a)">
<g transform="translate(912.07 612.56) scale(.1 -.1)">
<use xlink:href="#s"/>
<use x="39.208984" xlink:href="#ah"/>
<use x="102.587891" xlink:href="#f"/>
</g>
</g>
<g clip-path="url(#a)">
<g transform="translate(956.22 612.56) scale(.1 -.1)">
<use xlink:href="#j"/>
<use x="27.783203" xlink:href="#f"/>
<use x="89.306641" xlink:href="#e"/>
<use x="150.585938" xlink:href="#aa"/>
<use x="202.685547" xlink:href="#s"/>
</g>
</g>
<g clip-path="url(#a)">
<defs>
<path id="ar" d="m2.9844 54.688h9.5156l17.094-45.891 17.094 45.891h9.5156l-20.516-54.688h-12.203z"/>
</defs>
<g transform="translate(993.74 612.56) scale(.1 -.1)">
<use xlink:href="#e"/>
<use x="61.279297" xlink:href="#s"/>
<use x="100.488281" xlink:href="#s"/>
<use x="139.697266" xlink:href="#f"/>
<use x="201.220703" xlink:href="#h"/>
<use x="264.599609" xlink:href="#s"/>
<use x="303.808594" xlink:href="#k"/>
<use x="331.591797" xlink:href="#ar"/>
<use x="390.771484" xlink:href="#f"/>
</g>
</g>
<g clip-path="url(#a)">
<g transform="translate(1058.2 612.56) scale(.1 -.1)">
<use xlink:href="#t"/>
<use x="61.181641" xlink:href="#h"/>
</g>
</g>
<g clip-path="url(#a)">
<g transform="translate(1097.9 612.56) scale(.1 -.1)">
<use xlink:href="#ai"/>
<use x="63.476562" xlink:href="#t"/>
<use x="124.658203" xlink:href="#e"/>
<use x="185.9375" xlink:href="#g"/>
<use x="227.035156" xlink:href="#ac"/>
</g>
</g>
<g clip-path="url(#a)">
<defs>
<path id="d" d="m10.688 12.406h10.312v-12.406h-10.312z"/>
</defs>
<g transform="translate(1158.9 612.56) scale(.1 -.1)">
<use xlink:href="#d"/>
</g>
</g>
<g clip-path="url(#a)">
<defs>
<path id="c" d="m12.406 8.2969h16.109v55.625l-17.531-3.5156v8.9844l17.438 3.5156h9.8594v-64.609h16.109v-8.2969h-41.984z"/>
</defs>
<g transform="translate(418.99 32.957) scale(.1 -.1)">
<use xlink:href="#c"/>
<use x="63.623047" xlink:href="#d"/>
<use x="95.410156" xlink:href="#c"/>
</g>
</g>
<g clip-path="url(#a)">
<defs>
<path id="m" d="m19.188 8.2969h34.422v-8.2969h-46.281v8.2969q5.6094 5.8125 15.297 15.594 9.7031 9.7969 12.188 12.641 4.7344 5.3125 6.6094 9 1.8906 3.6875 1.8906 7.25 0 5.8125-4.0781 9.4688-4.0781 3.6719-10.625 3.6719-4.6406 0-9.7969-1.6094-5.1406-1.6094-11-4.8906v9.9688q5.9531 2.3906 11.125 3.6094 5.1875 1.2188 9.4844 1.2188 11.328 0 18.062-5.6719 6.7344-5.6562 6.7344-15.125 0-4.5-1.6875-8.5312-1.6719-4.0156-6.125-9.4844-1.2188-1.4219-7.7656-8.1875-6.5312-6.7656-18.453-18.922z"/>
</defs>
<g transform="translate(95.609 385.46) scale(.1 -.1)">
<use xlink:href="#c"/>
<use x="63.623047" xlink:href="#d"/>
<use x="95.410156" xlink:href="#m"/>
</g>
</g>
<g clip-path="url(#a)">
<defs>
<path id="y" d="m37.797 64.312-24.906-38.922h24.906zm-2.5938 8.5938h12.406v-47.516h10.406v-8.2031h-10.406v-17.188h-9.8125v17.188h-32.906v9.5156z"/>
</defs>
<g transform="translate(355.34 152.98) scale(.1 -.1)">
<use xlink:href="#c"/>
<use x="63.623047" xlink:href="#d"/>
<use x="95.410156" xlink:href="#y"/>
</g>
</g>
<g clip-path="url(#a)">
<defs>
<path id="x" d="m10.797 72.906h38.719v-8.3125h-29.688v-17.859q2.1406 0.73438 4.2812 1.0938 2.1562 0.35938 4.3125 0.35938 12.203 0 19.328-6.6875 7.1406-6.6875 7.1406-18.109 0-11.766-7.3281-18.297-7.3281-6.5156-20.656-6.5156-4.5938 0-9.3594 0.78125-4.75 0.78125-9.8281 2.3438v9.9219q4.3906-2.3906 9.0781-3.5625t9.9062-1.1719q8.4531 0 13.375 4.4375 4.9375 4.4375 4.9375 12.062 0 7.6094-4.9375 12.047-4.9219 4.4531-13.375 4.4531-3.9531 0-7.8906-0.875-3.9219-0.875-8.0156-2.7344z"/>
</defs>
<g transform="translate(696.13 499.01) scale(.1 -.1)">
<use xlink:href="#c"/>
<use x="63.623047" xlink:href="#d"/>
<use x="95.410156" xlink:href="#x"/>
</g>
</g>
<g clip-path="url(#a)">
<defs>
<path id="w" d="m33.016 40.375q-6.6406 0-10.531-4.5469-3.875-4.5312-3.875-12.438 0-7.8594 3.875-12.438 3.8906-4.5625 10.531-4.5625t10.516 4.5625q3.875 4.5781 3.875 12.438 0 7.9062-3.875 12.438-3.875 4.5469-10.516 4.5469zm19.578 30.922v-8.9844q-3.7188 1.75-7.5 2.6719-3.7812 0.9375-7.5 0.9375-9.7656 0-14.922-6.5938-5.1406-6.5938-5.875-19.922 2.875 4.25 7.2188 6.5156 4.3594 2.2656 9.5781 2.2656 10.984 0 17.359-6.6719 6.375-6.6562 6.375-18.125 0-11.234-6.6406-18.031-6.6406-6.7812-17.672-6.7812-12.656 0-19.344 9.6875-6.6875 9.7031-6.6875 28.109 0 17.281 8.2031 27.562t22.016 10.281q3.7188 0 7.5-0.73438t7.8906-2.1875z"/>
</defs>
<g transform="translate(756.18 152.98) scale(.1 -.1)">
<use xlink:href="#c"/>
<use x="63.623047" xlink:href="#d"/>
<use x="95.410156" xlink:href="#w"/>
</g>
</g>
<g clip-path="url(#a)">
<defs>
<path id="v" d="m31.781 34.625q-7.0312 0-11.062-3.7656-4.0156-3.7656-4.0156-10.344 0-6.5938 4.0156-10.359 4.0312-3.7656 11.062-3.7656t11.078 3.7812q4.0625 3.7969 4.0625 10.344 0 6.5781-4.0312 10.344-4.0156 3.7656-11.109 3.7656zm-9.8594 4.1875q-6.3438 1.5625-9.8906 5.9062-3.5312 4.3594-3.5312 10.609 0 8.7344 6.2188 13.812 6.2344 5.0781 17.062 5.0781 10.891 0 17.094-5.0781t6.2031-13.812q0-6.25-3.5469-10.609-3.5312-4.3438-9.8281-5.9062 7.125-1.6562 11.094-6.5 3.9844-4.8281 3.9844-11.797 0-10.609-6.4688-16.281-6.4688-5.6562-18.531-5.6562-12.047 0-18.531 5.6562-6.4688 5.6719-6.4688 16.281 0 6.9688 4 11.797 4.0156 4.8438 11.141 6.5zm-3.6094 15.578q0-5.6562 3.5312-8.8281 3.5469-3.1719 9.9375-3.1719 6.3594 0 9.9375 3.1719 3.5938 3.1719 3.5938 8.8281 0 5.6719-3.5938 8.8438-3.5781 3.1719-9.9375 3.1719-6.3906 0-9.9375-3.1719-3.5312-3.1719-3.5312-8.8438z"/>
</defs>
<g transform="translate(924.33 270.33) scale(.1 -.1)">
<use xlink:href="#c"/>
<use x="63.623047" xlink:href="#d"/>
<use x="95.410156" xlink:href="#v"/>
</g>
</g>
<g clip-path="url(#a)">
<defs>
<path id="ad" d="m10.984 1.5156v8.9844q3.7188-1.7656 7.5156-2.6875 3.8125-0.92188 7.4844-0.92188 9.7656 0 14.906 6.5625 5.1562 6.5625 5.8906 19.953-2.8281-4.2031-7.1875-6.4531-4.3438-2.25-9.6094-2.25-10.938 0-17.312 6.6094-6.375 6.625-6.375 18.109 0 11.219 6.6406 18 6.6406 6.7969 17.672 6.7969 12.656 0 19.312-9.7031 6.6719-9.6875 6.6719-28.141 0-17.234-8.1875-27.516-8.1719-10.281-21.984-10.281-3.7188 0-7.5312 0.73438-3.7969 0.73438-7.9062 2.2031zm19.625 30.906q6.6406 0 10.516 4.5312 3.8906 4.5469 3.8906 12.469 0 7.8594-3.8906 12.422-3.875 4.5625-10.516 4.5625t-10.516-4.5625-3.875-12.422q0-7.9219 3.875-12.469 3.875-4.5312 10.516-4.5312z"/>
</defs>
<g transform="translate(1104.5 385.46) scale(.1 -.1)">
<use xlink:href="#c"/>
<use x="63.623047" xlink:href="#d"/>
<use x="95.410156" xlink:href="#ad"/>
</g>
</g>
<g clip-path="url(#a)">
<defs>
<path id="af" d="m31.781 66.406q-7.6094 0-11.453-7.5-3.8281-7.4844-3.8281-22.531 0-14.984 3.8281-22.484 3.8438-7.5 11.453-7.5 7.6719 0 11.5 7.5 3.8438 7.5 3.8438 22.484 0 15.047-3.8438 22.531-3.8281 7.5-11.5 7.5zm0 7.8125q12.266 0 18.734-9.7031 6.4688-9.6875 6.4688-28.141 0-18.406-6.4688-28.109-6.4688-9.6875-18.734-9.6875-12.25 0-18.719 9.6875-6.4688 9.7031-6.4688 28.109 0 18.453 6.4688 28.141 6.4688 9.7031 18.719 9.7031z"/>
</defs>
<g transform="translate(1053.3 499.01) scale(.1 -.1)">
<use xlink:href="#c"/>
<use x="63.623047" xlink:href="#d"/>
<use x="95.410156" xlink:href="#c"/>
<use x="159.033203" xlink:href="#af"/>
</g>
</g>
<g clip-path="url(#a)">
<g transform="translate(1101.3 499.01) scale(.1 -.1)">
<use xlink:href="#c"/>
<use x="63.623047" xlink:href="#d"/>
<use x="95.410156" xlink:href="#c"/>
<use x="159.033203" xlink:href="#c"/>
</g>
</g>
<g clip-path="url(#a)">
<g transform="translate(813.06 385.46) scale(.1 -.1)">
<use xlink:href="#c"/>
<use x="63.623047" xlink:href="#d"/>
<use x="95.410156" xlink:href="#c"/>
<use x="159.033203" xlink:href="#m"/>
</g>
</g>
<g clip-path="url(#a)">
<g transform="translate(909.14 499.01) scale(.1 -.1)">
<use xlink:href="#c"/>
<use x="63.623047" xlink:href="#d"/>
<use x="95.410156" xlink:href="#c"/>
<use x="159.033203" xlink:href="#y"/>
</g>
</g>
<g clip-path="url(#a)">
<g transform="translate(957.18 499.01) scale(.1 -.1)">
<use xlink:href="#c"/>
<use x="63.623047" xlink:href="#d"/>
<use x="95.410156" xlink:href="#c"/>
<use x="159.033203" xlink:href="#x"/>
</g>
</g>
<g clip-path="url(#a)">
<g transform="translate(1005.2 499.01) scale(.1 -.1)">
<use xlink:href="#c"/>
<use x="63.623047" xlink:href="#d"/>
<use x="95.410156" xlink:href="#c"/>
<use x="159.033203" xlink:href="#w"/>
</g>
</g>
<g clip-path="url(#a)">
<defs>
<path id="ae" d="m8.2031 72.906h46.875v-4.2031l-26.469-68.703h-10.297l24.906 64.594h-35.016z"/>
</defs>
<g transform="translate(765.01 499.01) scale(.1 -.1)">
<use xlink:href="#c"/>
<use x="63.623047" xlink:href="#d"/>
<use x="95.410156" xlink:href="#c"/>
<use x="159.033203" xlink:href="#ae"/>
</g>
</g>
<g clip-path="url(#a)">
<g transform="translate(813.06 499.01) scale(.1 -.1)">
<use xlink:href="#c"/>
<use x="63.623047" xlink:href="#d"/>
<use x="95.410156" xlink:href="#c"/>
<use x="159.033203" xlink:href="#v"/>
</g>
</g>
<g clip-path="url(#a)">
<g transform="translate(861.1 499.01) scale(.1 -.1)">
<use xlink:href="#c"/>
<use x="63.623047" xlink:href="#d"/>
<use x="95.410156" xlink:href="#c"/>
<use x="159.033203" xlink:href="#ad"/>
</g>
</g>
<g clip-path="url(#a)">
<g transform="translate(236.55 499.01) scale(.1 -.1)">
<use xlink:href="#c"/>
<use x="63.623047" xlink:href="#d"/>
<use x="95.410156" xlink:href="#m"/>
<use x="159.033203" xlink:href="#af"/>
</g>
</g>
<g clip-path="url(#a)">
<g transform="translate(332.64 385.46) scale(.1 -.1)">
<use xlink:href="#c"/>
<use x="63.623047" xlink:href="#d"/>
<use x="95.410156" xlink:href="#m"/>
<use x="159.033203" xlink:href="#c"/>
</g>
</g>
<g clip-path="url(#a)">
<g transform="translate(332.64 499.01) scale(.1 -.1)">
<use xlink:href="#c"/>
<use x="63.623047" xlink:href="#d"/>
<use x="95.410156" xlink:href="#m"/>
<use x="159.033203" xlink:href="#m"/>
</g>
</g>
<g clip-path="url(#a)">
<defs>
<path id="n" d="m40.578 39.312q7.0781-1.5156 11.047-6.3125 3.9844-4.7812 3.9844-11.812 0-10.781-7.4219-16.703-7.4219-5.9062-21.094-5.9062-4.5781 0-9.4375 0.90625t-10.031 2.7188v9.5156q4.0938-2.3906 8.9688-3.6094 4.8906-1.2188 10.219-1.2188 9.2656 0 14.125 3.6562t4.8594 10.641q0 6.4531-4.5156 10.078-4.5156 3.6406-12.562 3.6406h-8.5v8.1094h8.8906q7.2656 0 11.125 2.9062t3.8594 8.375q0 5.6094-3.9844 8.6094-3.9688 3.0156-11.391 3.0156-4.0625 0-8.7031-0.89062-4.6406-0.875-10.203-2.7188v8.7812q5.625 1.5625 10.531 2.3438t9.25 0.78125q11.234 0 17.766-5.1094 6.5469-5.0938 6.5469-13.781 0-6.0625-3.4688-10.234t-9.8594-5.7812z"/>
</defs>
<g transform="translate(506.79 270.33) scale(.1 -.1)">
<use xlink:href="#c"/>
<use x="63.623047" xlink:href="#d"/>
<use x="95.410156" xlink:href="#m"/>
<use x="159.033203" xlink:href="#n"/>
</g>
</g>
<g clip-path="url(#a)">
<g transform="translate(428.72 499.01) scale(.1 -.1)">
<use xlink:href="#c"/>
<use x="63.623047" xlink:href="#d"/>
<use x="95.410156" xlink:href="#m"/>
<use x="159.033203" xlink:href="#y"/>
</g>
</g>
<g clip-path="url(#a)">
<g transform="translate(476.76 499.01) scale(.1 -.1)">
<use xlink:href="#c"/>
<use x="63.623047" xlink:href="#d"/>
<use x="95.410156" xlink:href="#m"/>
<use x="159.033203" xlink:href="#x"/>
</g>
</g>
<g clip-path="url(#a)">
<g transform="translate(524.8 499.01) scale(.1 -.1)">
<use xlink:href="#c"/>
<use x="63.623047" xlink:href="#d"/>
<use x="95.410156" xlink:href="#m"/>
<use x="159.033203" xlink:href="#w"/>
</g>
</g>
<g clip-path="url(#a)">
<g transform="translate(596.87 385.46) scale(.1 -.1)">
<use xlink:href="#c"/>
<use x="63.623047" xlink:href="#d"/>
<use x="95.410156" xlink:href="#m"/>
<use x="159.033203" xlink:href="#ae"/>
</g>
</g>
<g clip-path="url(#a)">
<g transform="translate(572.85 499.01) scale(.1 -.1)">
<use xlink:href="#c"/>
<use x="63.623047" xlink:href="#d"/>
<use x="95.410156" xlink:href="#m"/>
<use x="159.033203" xlink:href="#v"/>
</g>
</g>
<g clip-path="url(#a)">
<g transform="translate(620.89 499.01) scale(.1 -.1)">
<use xlink:href="#c"/>
<use x="63.623047" xlink:href="#d"/>
<use x="95.410156" xlink:href="#m"/>
<use x="159.033203" xlink:href="#ad"/>
</g>
</g>
<g clip-path="url(#a)">
<g transform="translate(284.6 499.01) scale(.1 -.1)">
<use xlink:href="#c"/>
<use x="63.623047" xlink:href="#d"/>
<use x="95.410156" xlink:href="#n"/>
<use x="159.033203" xlink:href="#af"/>
</g>
</g>
<g clip-path="url(#a)">
<g transform="translate(380.68 499.01) scale(.1 -.1)">
<use xlink:href="#c"/>
<use x="63.623047" xlink:href="#d"/>
<use x="95.410156" xlink:href="#n"/>
<use x="159.033203" xlink:href="#c"/>
</g>
</g>
<g clip-path="url(#a)">
<g transform="translate(44.386 499.01) scale(.1 -.1)">
<use xlink:href="#c"/>
<use x="63.623047" xlink:href="#d"/>
<use x="95.410156" xlink:href="#n"/>
<use x="159.033203" xlink:href="#m"/>
</g>
</g>
<g clip-path="url(#a)">
<g transform="translate(92.428 499.01) scale(.1 -.1)">
<use xlink:href="#c"/>
<use x="63.623047" xlink:href="#d"/>
<use x="95.410156" xlink:href="#n"/>
<use x="159.033203" xlink:href="#n"/>
</g>
</g>
<g clip-path="url(#a)">
<g transform="translate(140.47 499.01) scale(.1 -.1)">
<use xlink:href="#c"/>
<use x="63.623047" xlink:href="#d"/>
<use x="95.410156" xlink:href="#n"/>
<use x="159.033203" xlink:href="#y"/>
</g>
</g>
<g clip-path="url(#a)">
<g transform="translate(599.37 32.957) scale(.1 -.1)">
<use xlink:href="#c"/>
<use x="63.623047" xlink:href="#d"/>
<use x="95.410156" xlink:href="#n"/>
<use x="159.033203" xlink:href="#x"/>
</g>
</g>
<g clip-path="url(#a)">
<g transform="translate(222.29 32.957) scale(.1 -.1)">
<use xlink:href="#c"/>
<use x="63.623047" xlink:href="#d"/>
<use x="95.410156" xlink:href="#n"/>
<use x="159.033203" xlink:href="#w"/>
</g>
</g>
<g clip-path="url(#a)">
<g transform="translate(188.51 499.01) scale(.1 -.1)">
<use xlink:href="#c"/>
<use x="63.623047" xlink:href="#d"/>
<use x="95.410156" xlink:href="#n"/>
<use x="159.033203" xlink:href="#ae"/>
</g>
</g>
<g clip-path="url(#a)">
<g transform="translate(1149.3 499.01) scale(.1 -.1)">
<use xlink:href="#c"/>
<use x="63.623047" xlink:href="#d"/>
<use x="95.410156" xlink:href="#n"/>
<use x="159.033203" xlink:href="#v"/>
</g>
</g>
<defs>
<clipPath id="a">
<rect width="1216" height="640"/>
</clipPath>
</defs>
</svg>
