<?xml version="1.0" encoding="UTF-8"?>
<!DOCTYPE svg  PUBLIC '-//W3C//DTD SVG 1.1//EN'  'http://www.w3.org/Graphics/SVG/1.1/DTD/svg11.dtd'>
<svg width="1976pt" height="1040pt" version="1.1" viewBox="0 0 1976 1040" xmlns="http://www.w3.org/2000/svg" xmlns:xlink="http://www.w3.org/1999/xlink">
<defs>
<style type="text/css">*{stroke-linecap:butt;stroke-linejoin:round;}</style>
</defs>
<path d="m0 1040h1976v-1040h-1976z" fill="#fff"/>
<g fill="none" stroke="#000">
<path d="m827.49 47.273-707.37 317.7" clip-path="url(#a)"/>
<path d="m827.49 47.273-326.84 159.01" clip-path="url(#a)"/>
<path d="m827.49 47.273 506.93 475.99" clip-path="url(#a)"/>
<path d="m827.49 47.273 781.62 475.99" clip-path="url(#a)"/>
<path d="m827.49 47.273-599.32 790.68" clip-path="url(#a)"/>
<path d="m827.49 47.273 344.98 790.68" clip-path="url(#a)"/>
<path d="m120.12 364.97-27.004 472.98" clip-path="url(#a)"/>
<path d="m120.12 364.97-14.926 472.98" clip-path="url(#a)"/>
<path d="m120.12 364.97 2.6421 472.98" clip-path="url(#a)"/>
<path d="m120.12 364.97 39.289 158.29" clip-path="url(#a)"/>
<path d="m500.66 206.28-141.6 158.69" clip-path="url(#a)"/>
<path d="m500.66 206.28-41.902 631.67" clip-path="url(#a)"/>
<path d="m500.66 206.28-0.1769 631.67" clip-path="url(#a)"/>
<path d="m500.66 206.28 183.68 158.69" clip-path="url(#a)"/>
<path d="m1334.4 523.27-55.45 157.75" clip-path="url(#a)"/>
<path d="m1334.4 523.27 55.45 314.68" clip-path="url(#a)"/>
<path d="m1609.1 523.27 277.07 157.75" clip-path="url(#a)"/>
<path d="m1609.1 523.27-142.38 314.68" clip-path="url(#a)"/>
<path d="m1609.1 523.27-63.319 314.68" clip-path="url(#a)"/>
<path d="m1609.1 523.27 17.934 314.68" clip-path="url(#a)"/>
<path d="m1609.1 523.27 187.76 157.75" clip-path="url(#a)"/>
<path d="m1466.7 837.95v154.78" clip-path="url(#a)"/>
<path d="m1545.8 837.95v154.78" clip-path="url(#a)"/>
<path d="m1627 837.95v154.78" clip-path="url(#a)"/>
<path d="m1796.9 681.02-86.378 156.93" clip-path="url(#a)"/>
<path d="m1796.9 681.02-0.73202 156.93" clip-path="url(#a)"/>
<path d="m1796.9 681.02 87.11 156.93" clip-path="url(#a)"/>
<path d="m1710.5 837.95v154.78" clip-path="url(#a)"/>
<path d="m1796.1 837.95v154.78" clip-path="url(#a)"/>
<path d="m1279 681.02-36.235 156.93" clip-path="url(#a)"/>
<path d="m1279 681.02 36.235 156.93" clip-path="url(#a)"/>
<path d="m1389.9 837.95v154.78" clip-path="url(#a)"/>
<path d="m1242.7 837.95v154.78" clip-path="url(#a)"/>
<path d="m1315.2 837.95v154.78" clip-path="url(#a)"/>
<path d="m359.05 364.97 99.7 472.98" clip-path="url(#a)" stroke-dasharray="3.7,1.6"/>
<path d="m359.05 364.97-104.53 472.98" clip-path="url(#a)"/>
<path d="m359.05 364.97-60.611 316.04" clip-path="url(#a)"/>
<path d="m359.05 364.97 5.2705 158.29" clip-path="url(#a)"/>
<path d="m359.05 364.97 60.172 472.98" clip-path="url(#a)"/>
<path d="m458.75 837.95v154.78" clip-path="url(#a)"/>
<path d="m500.48 837.95v154.78" clip-path="url(#a)"/>
<path d="m684.34 364.97-139.94 472.98" clip-path="url(#a)"/>
<path d="m684.34 364.97-93.82 472.98" clip-path="url(#a)"/>
<path d="m684.34 364.97-45.507 472.98" clip-path="url(#a)"/>
<path d="m684.34 364.97 5.0021 472.98" clip-path="url(#a)"/>
<path d="m684.34 364.97 57.707 472.98" clip-path="url(#a)"/>
<path d="m684.34 364.97 216.55 158.29" clip-path="url(#a)"/>
<path d="m544.4 837.95v154.78" clip-path="url(#a)"/>
<path d="m590.52 837.95v154.78" clip-path="url(#a)"/>
<path d="m638.83 837.95v154.78" clip-path="url(#a)"/>
<path d="m689.34 837.95v154.78" clip-path="url(#a)"/>
<path d="m742.04 837.95v154.78" clip-path="url(#a)"/>
<path d="m900.89 523.27-103.95 314.68" clip-path="url(#a)"/>
<path d="m900.89 523.27-46.849 314.68" clip-path="url(#a)"/>
<path d="m900.89 523.27 12.444 314.68" clip-path="url(#a)"/>
<path d="m900.89 523.27 138.35 157.75" clip-path="url(#a)"/>
<path d="m796.94 837.95v154.78" clip-path="url(#a)"/>
<path d="m854.04 837.95v154.78" clip-path="url(#a)"/>
<path d="m913.33 837.95v154.78" clip-path="url(#a)"/>
<path d="m1039.2 681.02-64.417 156.93" clip-path="url(#a)"/>
<path d="m1039.2 681.02-0.73202 156.93" clip-path="url(#a)"/>
<path d="m1039.2 681.02 65.149 156.93" clip-path="url(#a)"/>
<path d="m974.82 837.95v154.78" clip-path="url(#a)"/>
<path d="m1038.5 837.95v154.78" clip-path="url(#a)"/>
<path d="m1104.4 837.95v154.78" clip-path="url(#a)"/>
<path d="m254.52 837.95v154.78" clip-path="url(#a)"/>
<path d="m298.44 681.02-15.372 156.93" clip-path="url(#a)"/>
<path d="m298.44 681.02 15.372 156.93" clip-path="url(#a)"/>
<path d="m364.32 523.27-17.568 314.68" clip-path="url(#a)"/>
<path d="m364.32 523.27 17.568 157.75" clip-path="url(#a)"/>
<path d="m346.76 837.95v154.78" clip-path="url(#a)"/>
<path d="m381.89 681.02v156.93" clip-path="url(#a)"/>
<path d="m381.89 837.95v154.78" clip-path="url(#a)"/>
<path d="m283.07 837.95v154.78" clip-path="url(#a)"/>
<path d="m313.81 837.95v154.78" clip-path="url(#a)"/>
<path d="m93.112 837.95-3.2941 154.78" clip-path="url(#a)"/>
<path d="m93.112 837.95 3.2941 154.78" clip-path="url(#a)"/>
<path d="m105.19 837.95v154.78" clip-path="url(#a)"/>
<path d="m122.76 837.95-6.5881 154.78" clip-path="url(#a)"/>
<path d="m122.76 837.95 6.5881 154.78" clip-path="url(#a)"/>
<path d="m159.41 523.27-14.686 314.68" clip-path="url(#a)"/>
<path d="m159.41 523.27 2.8823 314.68" clip-path="url(#a)"/>
<path d="m159.41 523.27 22.647 314.68" clip-path="url(#a)"/>
<path d="m159.41 523.27-10.843 157.75" clip-path="url(#a)"/>
<path d="m144.72 837.95v154.78" clip-path="url(#a)"/>
<path d="m162.29 837.95v154.78" clip-path="url(#a)"/>
<path d="m182.05 837.95v154.78" clip-path="url(#a)"/>
<path d="m148.56 681.02-55.45 156.93" clip-path="url(#a)" stroke-dasharray="3.7,1.6"/>
<path d="m148.56 681.02 55.45 156.93" clip-path="url(#a)"/>
<path d="m204.01 837.95v154.78" clip-path="url(#a)"/>
<path d="m1148.1 47.273-647.41 159.01" clip-path="url(#a)"/>
<path d="m1148.1 47.273 186.36 475.99" clip-path="url(#a)"/>
<path d="m1148.1 47.273 461.05 475.99" clip-path="url(#a)"/>
<path d="m228.17 837.95v154.78" clip-path="url(#a)"/>
<path d="m419.22 837.95v154.78" clip-path="url(#a)"/>
<path d="m1172.5 837.95v154.78" clip-path="url(#a)"/>
<path d="m1884 837.95v154.78" clip-path="url(#a)"/>
</g>
<path d="m473.63 213.08 5.4881-2.4649q2.1893-0.98329 1.206-3.1726l-3.1721-7.0629q-0.98329-2.1893-3.1726-1.206l-5.4881 2.4649q-2.1893 0.98329-1.206 3.1726l3.1721 7.0629q0.98329 2.1893 3.1726 1.206z" clip-path="url(#a)" fill="#fff" stroke="#fff"/>
<g clip-path="url(#a)">
<defs>
<path id="al" d="m9.8125 72.906h9.8594v-29.891h35.844v29.891h9.8594v-72.906h-9.8594v34.719h-35.844v-34.719h-9.8594z"/>
</defs>
<g transform="translate(471.96 209.37) rotate(-24.186) scale(.08 -.08)">
<use xlink:href="#al"/>
</g>
</g>
<path d="m664.11 133.73 5.41-2.632q2.1581-1.05 1.1082-3.2081l-3.3872-6.9622q-1.05-2.1581-3.2081-1.1082l-5.41 2.632q-2.1581 1.05-1.1082 3.2081l3.3872 6.9622q1.05 2.1581 3.2081 1.1082z" clip-path="url(#a)" fill="#fff" stroke="#fff"/>
<g clip-path="url(#a)">
<g transform="translate(662.33 130.08) rotate(-25.944) scale(.08 -.08)">
<use xlink:href="#al"/>
</g>
</g>
<path d="m1075 288.32 3.2495 3.0512q1.7496 1.6428 3.3924-0.10679l5.2998-5.6443q1.6428-1.7496-0.10679-3.3924l-3.2495-3.0512q-1.7496-1.6428-3.3924 0.10679l-5.2998 5.6443q-1.6428 1.7496 0.10679 3.3924z" clip-path="url(#a)" fill="#fff" stroke="#fff"/>
<g clip-path="url(#a)">
<defs>
<path id="z" d="m9.8125 72.906h9.8594v-64.609h35.5v-8.2969h-45.359z"/>
</defs>
<g transform="translate(1077.8 285.35) rotate(43.197) scale(.08 -.08)">
<use xlink:href="#z"/>
</g>
</g>
<path d="m1212.5 289.06 5.1384 3.1292q2.0498 1.2483 3.2981-0.80152l4.0271-6.6128q1.2483-2.0498-0.80152-3.2981l-5.1384-3.1292q-2.0498-1.2483-3.2981 0.80152l-4.0271 6.6128q-1.2483 2.0498 0.80152 3.2981z" clip-path="url(#a)" fill="#fff" stroke="#fff"/>
<g clip-path="url(#a)">
<g transform="translate(1214.6 285.59) rotate(31.341) scale(.08 -.08)">
<use xlink:href="#al"/>
</g>
</g>
<path d="m531.06 448.73 3.5368-4.6661q1.4498-1.9126-0.46288-3.3624l-6.1703-4.677q-1.9126-1.4498-3.3624 0.46288l-3.5368 4.6661q-1.4498 1.9126 0.46288 3.3624l6.1703 4.677q1.9126 1.4498 3.3624-0.46289z" clip-path="url(#a)" fill="#fff" stroke="#fff"/>
<g clip-path="url(#a)">
<defs>
<path id="ai" d="m8.6875 72.906h9.9219v-44.297q0-11.719 4.2344-16.875 4.25-5.1406 13.781-5.1406 9.4688 0 13.719 5.1406 4.25 5.1562 4.25 16.875v44.297h9.9062v-45.516q0-14.25-7.0625-21.531-7.0469-7.2812-20.812-7.2812-13.828 0-20.891 7.2812-7.0469 7.2812-7.0469 21.531z"/>
</defs>
<g transform="translate(527.82 446.28) rotate(-52.838) scale(.08 -.08)">
<use xlink:href="#ai"/>
</g>
</g>
<path d="m993.06 442.44 2.3414 5.3665q0.95976 2.1997 3.1595 1.24l7.0965-3.0962q2.1997-0.95976 1.24-3.1595l-2.3414-5.3665q-0.95976-2.1997-3.1595-1.24l-7.0965 3.0962q-2.1997 0.95976-1.24 3.1595z" clip-path="url(#a)" fill="#fff" stroke="#fff"/>
<g clip-path="url(#a)">
<g transform="translate(996.79 440.81) rotate(66.428) scale(.08 -.08)">
<use xlink:href="#ai"/>
</g>
</g>
<path d="m112.72 604.55 0.31194-5.4636q0.1368-2.3961-2.2593-2.5329l-7.7299-0.44134q-2.3961-0.1368-2.5329 2.2593l-0.31194 5.4636q-0.1368 2.3961 2.2593 2.5329l7.7299 0.44134q2.3961 0.1368 2.5329-2.2593z" clip-path="url(#a)" fill="#fff" stroke="#fff"/>
<g clip-path="url(#a)">
<defs>
<path id="r" d="m34.188 63.188-13.391-36.281h26.812zm-5.5781 9.7188h11.188l27.781-72.906h-10.25l-6.6406 18.703h-32.859l-6.6406-18.703h-10.406z"/>
</defs>
<g transform="translate(108.66 604.32) rotate(-86.732) scale(.08 -.08)">
<use xlink:href="#r"/>
</g>
</g>
<path d="m118.82 604.74 0.1943-6.1569q0.075702-2.3988-2.3231-2.4745l-7.7386-0.24422q-2.3988-0.075702-2.4745 2.3231l-0.1943 6.1569q-0.075702 2.3988 2.3231 2.4745l7.7386 0.24422q2.3988 0.075702 2.4745-2.3231z" clip-path="url(#a)" fill="#fff" stroke="#fff"/>
<g clip-path="url(#a)">
<defs>
<path id="ap" d="m19.672 64.797v-56.688h11.922q15.094 0 22.094 6.8281 7 6.8438 7 21.594 0 14.641-7 21.453t-22.094 6.8125zm-9.8594 8.1094h20.266q21.188 0 31.094-8.8125 9.9219-8.8125 9.9219-27.562 0-18.859-9.9688-27.703-9.9531-8.8281-31.047-8.8281h-20.266z"/>
</defs>
<g transform="translate(114.76 604.61) rotate(-88.192) scale(.08 -.08)">
<use xlink:href="#ap"/>
</g>
</g>
<path d="m115.15 599.09 0.026946 4.8237q0.013406 2.4 2.4134 2.3866l7.7424-0.043251q2.4-0.013406 2.3866-2.4134l-0.026946-4.8237q-0.013406-2.4-2.4134-2.3866l-7.7424 0.04325q-2.4 0.013406-2.3866 2.4134z" clip-path="url(#a)" fill="#fff" stroke="#fff"/>
<g clip-path="url(#a)">
<defs>
<path id="w" d="m19.672 64.797v-27.391h12.406q6.8906 0 10.641 3.5625 3.7656 3.5625 3.7656 10.156 0 6.5469-3.7656 10.109-3.75 3.5625-10.641 3.5625zm-9.8594 8.1094h22.266q12.266 0 18.531-5.5469 6.2812-5.5469 6.2812-16.234 0-10.797-6.2812-16.312-6.2656-5.5156-18.531-5.5156h-12.406v-29.297h-9.8594z"/>
</defs>
<g transform="translate(119.22 599.06) rotate(89.68) scale(.08 -.08)">
<use xlink:href="#w"/>
</g>
</g>
<path d="m133.02 442.98 1.3183 5.3113q0.57815 2.3293 2.9075 1.7512l7.5145-1.8651q2.3293-0.57815 1.7512-2.9075l-1.3183-5.3113q-0.57815-2.3293-2.9075-1.7512l-7.5145 1.8651q-2.3293 0.57815-1.7512 2.9075z" clip-path="url(#a)" fill="#fff" stroke="#fff"/>
<g clip-path="url(#a)">
<g transform="translate(136.96 442) rotate(76.061) scale(.08 -.08)">
<use xlink:href="#r"/>
</g>
</g>
<path d="m432.71 291.85 3.6435-4.0832q1.5979-1.7907-0.19284-3.3886l-5.777-5.1549q-1.7907-1.5979-3.3886 0.19284l-3.6435 4.0832q-1.5979 1.7907 0.19284 3.3886l5.777 5.1549q1.7907 1.5979 3.3886-0.19284z" clip-path="url(#a)" fill="#fff" stroke="#fff"/>
<g clip-path="url(#a)">
<g transform="translate(429.68 289.14) rotate(-48.257) scale(.08 -.08)">
<use xlink:href="#r"/>
</g>
</g>
<path d="m485.78 525.26 0.36222-5.4605q0.15886-2.3947-2.2359-2.5536l-7.7255-0.51247q-2.3947-0.15886-2.5536 2.2359l-0.36222 5.4605q-0.15886 2.3947 2.2359 2.5536l7.7255 0.51247q2.3947 0.15886 2.5536-2.2359z" clip-path="url(#a)" fill="#fff" stroke="#fff"/>
<g clip-path="url(#a)">
<g transform="translate(481.73 524.99) rotate(-86.205) scale(.08 -.08)">
<use xlink:href="#r"/>
</g>
</g>
<path d="m506.84 524.53 0.00135-4.8238q6.73e-4 -2.4-2.3993-2.4007l-7.7425-0.002168q-2.4-6.73e-4 -2.4007 2.3993l-0.001351 4.8238q-6.72e-4 2.4 2.3993 2.4007l7.7425 0.002169q2.4 6.72e-4 2.4007-2.3993z" clip-path="url(#a)" fill="#fff" stroke="#fff"/>
<g clip-path="url(#a)">
<g transform="translate(502.77 524.53) rotate(-89.984) scale(.08 -.08)">
<use xlink:href="#w"/>
</g>
</g>
<path d="m586.33 288.59 4.1411 3.5777q1.8161 1.569 3.3851-0.24708l5.0617-5.8588q1.569-1.8161-0.24708-3.3851l-4.1411-3.5777q-1.8161-1.569-3.3851 0.24708l-5.0617 5.8588q-1.569 1.8161 0.24708 3.3851z" clip-path="url(#a)" fill="#fff" stroke="#fff"/>
<g clip-path="url(#a)">
<g transform="translate(588.98 285.51) rotate(40.825) scale(.08 -.08)">
<use xlink:href="#r"/>
</g>
</g>
<path d="m1311.8 606.61 1.6763-4.769q0.79586-2.2642-1.4683-3.0601l-7.3044-2.5675q-2.2642-0.79586-3.0601 1.4683l-1.6763 4.769q-0.79586 2.2642 1.4683 3.0601l7.3044 2.5675q2.2642 0.79586 3.0601-1.4683z" clip-path="url(#a)" fill="#fff" stroke="#fff"/>
<g clip-path="url(#a)">
<defs>
<path id="x" d="m9.8125 72.906h46.094v-8.3125h-36.234v-21.578h34.719v-8.2969h-34.719v-26.422h37.109v-8.2969h-46.969z"/>
</defs>
<g transform="translate(1307.9 605.26) rotate(-70.634) scale(.08 -.08)">
<use xlink:href="#x"/>
</g>
</g>
<path d="m1355.5 678.95 0.96941 5.5015q0.41648 2.3636 2.7801 1.9471l7.625-1.3436q2.3636-0.41648 1.9471-2.7801l-0.96941-5.5015q-0.41648-2.3636-2.7801-1.9471l-7.625 1.3436q-2.3636 0.41648-1.9471 2.7801z" clip-path="url(#a)" fill="#fff" stroke="#fff"/>
<g clip-path="url(#a)">
<defs>
<path id="u" d="m64.406 67.281v-10.391q-4.9844 4.6406-10.625 6.9219-5.6406 2.2969-11.984 2.2969-12.5 0-19.141-7.6406t-6.6406-22.094q0-14.406 6.6406-22.047t19.141-7.6406q6.3438 0 11.984 2.2969t10.625 6.9375v-10.312q-5.1719-3.5156-10.969-5.2812-5.7812-1.75-12.219-1.75-16.562 0-26.094 10.125-9.5156 10.141-9.5156 27.672 0 17.578 9.5156 27.703 9.5312 10.141 26.094 10.141 6.5312 0 12.312-1.7344 5.7969-1.7344 10.875-5.2031z"/>
</defs>
<g transform="translate(1359.5 678.24) rotate(80.007) scale(.08 -.08)">
<use xlink:href="#u"/>
</g>
</g>
<path d="m1742.2 606.24 4.7557 2.7077q2.0856 1.1875 3.2731-0.89814l3.8309-6.7283q1.1875-2.0856-0.89814-3.2731l-4.7557-2.7077q-2.0856-1.1875-3.2731 0.89814l-3.8309 6.7283q-1.1875 2.0856 0.89814 3.2731z" clip-path="url(#a)" fill="#fff" stroke="#fff"/>
<g clip-path="url(#a)">
<g transform="translate(1744.2 602.71) rotate(29.656) scale(.08 -.08)">
<use xlink:href="#r"/>
</g>
</g>
<path d="m1542.4 686 2.5392-5.6123q0.98932-2.1866-1.1973-3.1759l-7.0541-3.1916q-2.1866-0.98932-3.1759 1.1973l-2.5392 5.6123q-0.98932 2.1866 1.1973 3.1759l7.0541 3.1916q2.1866 0.98932 3.1759-1.1973z" clip-path="url(#a)" fill="#fff" stroke="#fff"/>
<g clip-path="url(#a)">
<g transform="translate(1538.7 684.32) rotate(-65.656) scale(.08 -.08)">
<use xlink:href="#ap"/>
</g>
</g>
<path d="m1583.1 684.53 1.0795-5.365q0.47343-2.3528-1.8794-2.8263l-7.5904-1.5273q-2.3528-0.47343-2.8263 1.8794l-1.0795 5.365q-0.47343 2.3528 1.8794 2.8263l7.5904 1.5273q2.3528 0.47343 2.8263-1.8794z" clip-path="url(#a)" fill="#fff" stroke="#fff"/>
<g clip-path="url(#a)">
<g transform="translate(1579.1 683.73) rotate(-78.623) scale(.08 -.08)">
<use xlink:href="#r"/>
</g>
</g>
<path d="m1611.7 678.67 0.26181 4.5938q0.13656 2.3961 2.5327 2.2596l7.73-0.44054q2.3961-0.13656 2.2596-2.5327l-0.26181-4.5938q-0.13656-2.3961-2.5327-2.2596l-7.73 0.44054q-2.3961 0.13656-2.2596 2.5327z" clip-path="url(#a)" fill="#fff" stroke="#fff"/>
<g clip-path="url(#a)">
<defs>
<path id="aw" d="m9.8125 72.906h41.891v-8.3125h-32.031v-21.484h28.906v-8.2969h-28.906v-34.812h-9.8594z"/>
</defs>
<g transform="translate(1615.7 678.44) rotate(86.738) scale(.08 -.08)">
<use xlink:href="#aw"/>
</g>
</g>
<path d="m1697.1 605.39 3.6932 3.103q1.8375 1.5439 3.3814-0.29367l4.9805-5.9279q1.5439-1.8375-0.29367-3.3814l-3.6932-3.103q-1.8375-1.5439-3.3814 0.29367l-4.9805 5.9279q-1.5439 1.8375 0.29367 3.3814z" clip-path="url(#a)" fill="#fff" stroke="#fff"/>
<g clip-path="url(#a)">
<g transform="translate(1699.7 602.28) rotate(40.036) scale(.08 -.08)">
<use xlink:href="#w"/>
</g>
</g>
<path d="m1460.5 898.43v33.808q0 2.4 2.4 2.4h7.7425q2.4 0 2.4-2.4v-33.808q0-2.4-2.4-2.4h-7.7425q-2.4 0-2.4 2.4z" clip-path="url(#a)" fill="#fff" stroke="#fff"/>
<g clip-path="url(#a)">
<defs>
<path id="k" d="m-0.29688 72.906h61.672v-8.3125h-25.875v-64.594h-9.9062v64.594h-25.891z"/>
<path id="d" d="m56.203 29.594v-4.3906h-41.312q0.59375-9.2812 5.5938-14.141t13.938-4.8594q5.1719 0 10.031 1.2656t9.6562 3.8125v-8.5q-4.8438-2.0469-9.9219-3.125t-10.297-1.0781q-13.094 0-20.734 7.6094-7.6406 7.625-7.6406 20.625 0 13.422 7.25 21.297 7.25 7.8906 19.562 7.8906 11.031 0 17.453-7.1094 6.4219-7.0938 6.4219-19.297zm-8.9844 2.6406q-0.09375 7.3594-4.125 11.75-4.0312 4.4062-10.672 4.4062-7.5156 0-12.031-4.25t-5.2031-11.969z"/>
<path id="j" d="m41.109 46.297q-1.5156 0.875-3.2969 1.2812-1.7812 0.42188-3.9219 0.42188-7.625 0-11.703-4.9531t-4.0781-14.234v-28.812h-9.0312v54.688h9.0312v-8.5q2.8438 4.9844 7.375 7.3906 4.5469 2.4219 11.047 2.4219 0.92188 0 2.0469-0.125 1.125-0.10938 2.4844-0.35938z"/>
<path id="l" d="m52 44.188q3.375 6.0625 8.0625 8.9375t11.031 2.875q8.5469 0 13.188-5.9844 4.6406-5.9688 4.6406-17v-33.016h-9.0312v32.719q0 7.8594-2.7969 11.656-2.7812 3.8125-8.4844 3.8125-6.9844 0-11.047-4.6406-4.0469-4.625-4.0469-12.641v-30.906h-9.0312v32.719q0 7.9062-2.7812 11.688t-8.5938 3.7812q-6.8906 0-10.953-4.6562-4.0469-4.6562-4.0469-12.625v-30.906h-9.0312v54.688h9.0312v-8.5q3.0781 5.0312 7.375 7.4219t10.203 2.3906q5.9688 0 10.141-3.0312 4.1719-3.0156 6.1719-8.7812z"/>
<path id="i" d="m9.4219 54.688h8.9844v-54.688h-8.9844zm0 21.297h8.9844v-11.391h-8.9844z"/>
<path id="g" d="m54.891 33.016v-33.016h-8.9844v32.719q0 7.7656-3.0312 11.609-3.0312 3.8594-9.0781 3.8594-7.2812 0-11.484-4.6406-4.2031-4.625-4.2031-12.641v-30.906h-9.0312v54.688h9.0312v-8.5q3.2344 4.9375 7.5938 7.375 4.375 2.4375 10.094 2.4375 9.4219 0 14.25-5.8281 4.8438-5.8281 4.8438-17.156z"/>
<path id="f" d="m34.281 27.484q-10.891 0-15.094-2.4844t-4.2031-8.5q0-4.7812 3.1562-7.5938 3.1562-2.7969 8.5625-2.7969 7.4844 0 12 5.2969t4.5156 14.078v2zm17.922 3.7188v-31.203h-8.9844v8.2969q-3.0781-4.9688-7.6719-7.3438t-11.234-2.375q-8.3906 0-13.359 4.7188-4.9531 4.7188-4.9531 12.625 0 9.2188 6.1719 13.906 6.1875 4.6875 18.438 4.6875h12.609v0.89062q0 6.2031-4.0781 9.5938t-11.453 3.3906q-4.6875 0-9.1406-1.125-4.4375-1.125-8.5312-3.375v8.3125q4.9219 1.9062 9.5625 2.8438 4.6406 0.95312 9.0312 0.95312 11.875 0 17.734-6.1562 5.8594-6.1406 5.8594-18.641z"/>
<path id="h" d="m9.4219 75.984h8.9844v-75.984h-8.9844z"/>
</defs>
<g transform="translate(1464.5 898.43) rotate(90) scale(.08 -.08)">
<use xlink:href="#k"/>
<use x="44.083984" xlink:href="#d"/>
<use x="105.607422" xlink:href="#j"/>
<use x="144.970703" xlink:href="#l"/>
<use x="242.382812" xlink:href="#i"/>
<use x="270.166016" xlink:href="#g"/>
<use x="333.544922" xlink:href="#f"/>
<use x="394.824219" xlink:href="#h"/>
</g>
</g>
<path d="m1539.5 898.43v33.808q0 2.4 2.4 2.4h7.7425q2.4 0 2.4-2.4v-33.808q0-2.4-2.4-2.4h-7.7425q-2.4 0-2.4 2.4z" clip-path="url(#a)" fill="#fff" stroke="#fff"/>
<g clip-path="url(#a)">
<g transform="translate(1543.6 898.43) rotate(90) scale(.08 -.08)">
<use xlink:href="#k"/>
<use x="44.083984" xlink:href="#d"/>
<use x="105.607422" xlink:href="#j"/>
<use x="144.970703" xlink:href="#l"/>
<use x="242.382812" xlink:href="#i"/>
<use x="270.166016" xlink:href="#g"/>
<use x="333.544922" xlink:href="#f"/>
<use x="394.824219" xlink:href="#h"/>
</g>
</g>
<path d="m1620.8 898.43v33.808q0 2.4 2.4 2.4h7.7425q2.4 0 2.4-2.4v-33.808q0-2.4-2.4-2.4h-7.7425q-2.4 0-2.4 2.4z" clip-path="url(#a)" fill="#fff" stroke="#fff"/>
<g clip-path="url(#a)">
<g transform="translate(1624.8 898.43) rotate(90) scale(.08 -.08)">
<use xlink:href="#k"/>
<use x="44.083984" xlink:href="#d"/>
<use x="105.607422" xlink:href="#j"/>
<use x="144.970703" xlink:href="#l"/>
<use x="242.382812" xlink:href="#i"/>
<use x="270.166016" xlink:href="#g"/>
<use x="333.544922" xlink:href="#f"/>
<use x="394.824219" xlink:href="#h"/>
</g>
</g>
<path d="m1757.8 764.94 2.6804-4.8698q1.1573-2.1025-0.94526-3.2598l-6.7829-3.7334q-2.1025-1.1573-3.2598 0.94526l-2.6804 4.8698q-1.1573 2.1025 0.94526 3.2598l6.7829 3.7334q2.1025 1.1573 3.2598-0.94526z" clip-path="url(#a)" fill="#fff" stroke="#fff"/>
<g clip-path="url(#a)">
<defs>
<path id="v" d="m44.391 34.188q3.1719-1.0781 6.1719-4.5938t6.0312-9.6719l10.016-19.922h-10.609l-9.3125 18.703q-3.625 7.3281-7.0156 9.7188t-9.25 2.3906h-10.75v-30.812h-9.8594v72.906h22.266q12.5 0 18.656-5.2344 6.1562-5.2188 6.1562-15.766 0-6.8906-3.2031-11.438-3.2031-4.5312-9.2969-6.2812zm-24.719 30.609v-25.875h12.406q7.125 0 10.766 3.2969t3.6406 9.6875-3.6406 9.6406-10.766 3.25z"/>
</defs>
<g transform="translate(1754.3 762.98) rotate(-61.171) scale(.08 -.08)">
<use xlink:href="#v"/>
</g>
</g>
<path d="m1802.8 762.31 0.026058-5.5862q0.011194-2.4-2.3888-2.4112l-7.7424-0.036115q-2.4-0.011195-2.4112 2.3888l-0.026057 5.5862q-0.011195 2.4 2.3888 2.4112l7.7424 0.036115q2.4 0.011195 2.4112-2.3888z" clip-path="url(#a)" fill="#fff" stroke="#fff"/>
<g clip-path="url(#a)">
<g transform="translate(1798.7 762.29) rotate(-89.733) scale(.08 -.08)">
<use xlink:href="#u"/>
</g>
</g>
<path d="m1833.5 759.97 2.8416 5.1192q1.1648 2.0984 3.2632 0.93361l6.7695-3.7577q2.0984-1.1648 0.93361-3.2632l-2.8416-5.1192q-1.1648-2.0984-3.2632-0.93361l-6.7695 3.7577q-2.0984 1.1648-0.93361 3.2632z" clip-path="url(#a)" fill="#fff" stroke="#fff"/>
<g clip-path="url(#a)">
<g transform="translate(1837.1 758) rotate(60.966) scale(.08 -.08)">
<use xlink:href="#ai"/>
</g>
</g>
<path d="m1704.2 898.43v33.808q0 2.4 2.4 2.4h7.7425q2.4 0 2.4-2.4v-33.808q0-2.4-2.4-2.4h-7.7425q-2.4 0-2.4 2.4z" clip-path="url(#a)" fill="#fff" stroke="#fff"/>
<g clip-path="url(#a)">
<g transform="translate(1708.3 898.43) rotate(90) scale(.08 -.08)">
<use xlink:href="#k"/>
<use x="44.083984" xlink:href="#d"/>
<use x="105.607422" xlink:href="#j"/>
<use x="144.970703" xlink:href="#l"/>
<use x="242.382812" xlink:href="#i"/>
<use x="270.166016" xlink:href="#g"/>
<use x="333.544922" xlink:href="#f"/>
<use x="394.824219" xlink:href="#h"/>
</g>
</g>
<path d="m1789.9 898.43v33.808q0 2.4 2.4 2.4h7.7425q2.4 0 2.4-2.4v-33.808q0-2.4-2.4-2.4h-7.7425q-2.4 0-2.4 2.4z" clip-path="url(#a)" fill="#fff" stroke="#fff"/>
<g clip-path="url(#a)">
<g transform="translate(1793.9 898.43) rotate(90) scale(.08 -.08)">
<use xlink:href="#k"/>
<use x="44.083984" xlink:href="#d"/>
<use x="105.607422" xlink:href="#j"/>
<use x="144.970703" xlink:href="#l"/>
<use x="242.382812" xlink:href="#i"/>
<use x="270.166016" xlink:href="#g"/>
<use x="333.544922" xlink:href="#f"/>
<use x="394.824219" xlink:href="#h"/>
</g>
</g>
<path d="m1266.3 763.6 1.2506-5.4162q0.53994-2.3385-1.7985-2.8784l-7.544-1.7419q-2.3385-0.53994-2.8784 1.7985l-1.2506 5.4162q-0.53994 2.3385 1.7985 2.8784l7.544 1.7419q2.3385 0.53994 2.8784-1.7985z" clip-path="url(#a)" fill="#fff" stroke="#fff"/>
<g clip-path="url(#a)">
<g transform="translate(1262.4 762.69) rotate(-76.998) scale(.08 -.08)">
<use xlink:href="#v"/>
</g>
</g>
<path d="m1290.4 758.17 1.2568 5.443q0.53994 2.3385 2.8784 1.7985l7.544-1.7419q2.3385-0.53994 1.7985-2.8784l-1.2568-5.443q-0.53994-2.3385-2.8784-1.7985l-7.544 1.7419q-2.3385 0.53994-1.7985 2.8784z" clip-path="url(#a)" fill="#fff" stroke="#fff"/>
<g clip-path="url(#a)">
<g transform="translate(1294.3 757.26) rotate(76.998) scale(.08 -.08)">
<use xlink:href="#u"/>
</g>
</g>
<path d="m1383.6 898.43v33.808q0 2.4 2.4 2.4h7.7425q2.4 0 2.4-2.4v-33.808q0-2.4-2.4-2.4h-7.7425q-2.4 0-2.4 2.4z" clip-path="url(#a)" fill="#fff" stroke="#fff"/>
<g clip-path="url(#a)">
<g transform="translate(1387.7 898.43) rotate(90) scale(.08 -.08)">
<use xlink:href="#k"/>
<use x="44.083984" xlink:href="#d"/>
<use x="105.607422" xlink:href="#j"/>
<use x="144.970703" xlink:href="#l"/>
<use x="242.382812" xlink:href="#i"/>
<use x="270.166016" xlink:href="#g"/>
<use x="333.544922" xlink:href="#f"/>
<use x="394.824219" xlink:href="#h"/>
</g>
</g>
<path d="m1236.5 898.43v33.808q0 2.4 2.4 2.4h7.7425q2.4 0 2.4-2.4v-33.808q0-2.4-2.4-2.4h-7.7425q-2.4 0-2.4 2.4z" clip-path="url(#a)" fill="#fff" stroke="#fff"/>
<g clip-path="url(#a)">
<g transform="translate(1240.5 898.43) rotate(90) scale(.08 -.08)">
<use xlink:href="#k"/>
<use x="44.083984" xlink:href="#d"/>
<use x="105.607422" xlink:href="#j"/>
<use x="144.970703" xlink:href="#l"/>
<use x="242.382812" xlink:href="#i"/>
<use x="270.166016" xlink:href="#g"/>
<use x="333.544922" xlink:href="#f"/>
<use x="394.824219" xlink:href="#h"/>
</g>
</g>
<path d="m1308.9 898.43v33.808q0 2.4 2.4 2.4h7.7425q2.4 0 2.4-2.4v-33.808q0-2.4-2.4-2.4h-7.7425q-2.4 0-2.4 2.4z" clip-path="url(#a)" fill="#fff" stroke="#fff"/>
<g clip-path="url(#a)">
<g transform="translate(1313 898.43) rotate(90) scale(.08 -.08)">
<use xlink:href="#k"/>
<use x="44.083984" xlink:href="#d"/>
<use x="105.607422" xlink:href="#j"/>
<use x="144.970703" xlink:href="#l"/>
<use x="242.382812" xlink:href="#i"/>
<use x="270.166016" xlink:href="#g"/>
<use x="333.544922" xlink:href="#f"/>
<use x="394.824219" xlink:href="#h"/>
</g>
</g>
<path d="m402.2 600.08 1.1288 5.3548q0.49503 2.3484 2.8434 1.8534l7.576-1.597q2.3484-0.49503 1.8534-2.8434l-1.1288-5.3548q-0.49503-2.3484-2.8434-1.8534l-7.576 1.597q-2.3484 0.49503-1.8534 2.8434z" clip-path="url(#a)" fill="#fff" stroke="#fff"/>
<g clip-path="url(#a)">
<g transform="translate(406.18 599.24) rotate(78.097) scale(.08 -.08)">
<use xlink:href="#r"/>
</g>
</g>
<path d="m312.31 605.53 1.1996-5.4278q0.51792-2.3434-1.8255-2.8614l-7.5601-1.6708q-2.3434-0.51792-2.8614 1.8255l-1.1996 5.4278q-0.51792 2.3434 1.8255 2.8614l7.5601 1.6708q2.3434 0.51792 2.8614-1.8255z" clip-path="url(#a)" fill="#fff" stroke="#fff"/>
<g clip-path="url(#a)">
<g transform="translate(308.34 604.65) rotate(-77.537) scale(.08 -.08)">
<use xlink:href="#v"/>
</g>
</g>
<path d="m334.45 526.58 0.92031-4.7988q0.45203-2.357-1.905-2.8091l-7.6039-1.4583q-2.357-0.45203-2.8091 1.905l-0.92031 4.7988q-0.45203 2.357 1.905 2.8091l7.6039 1.4583q2.357 0.45203 2.8091-1.905z" clip-path="url(#a)" fill="#fff" stroke="#fff"/>
<g clip-path="url(#a)">
<g transform="translate(330.46 525.81) rotate(-79.144) scale(.08 -.08)">
<use xlink:href="#k"/>
</g>
</g>
<path d="m355.34 441.92 0.16052 4.8211q0.079867 2.3987 2.4785 2.3188l7.7382-0.25766q2.3987-0.079867 2.3188-2.4785l-0.16052-4.8211q-0.079867-2.3987-2.4785-2.3188l-7.7382 0.25766q-2.3987 0.079867-2.3188 2.4785z" clip-path="url(#a)" fill="#fff" stroke="#fff"/>
<g clip-path="url(#a)">
<g transform="translate(359.4 441.78) rotate(88.093) scale(.08 -.08)">
<use xlink:href="#w"/>
</g>
</g>
<path d="m382.55 599.35 0.73891 5.8082q0.30289 2.3808 2.6837 2.0779l7.6806-0.97712q2.3808-0.30288 2.0779-2.6837l-0.73891-5.8082q-0.30288-2.3808-2.6837-2.0779l-7.6806 0.97712q-2.3808 0.30288-2.0779 2.6837z" clip-path="url(#a)" fill="#fff" stroke="#fff"/>
<g clip-path="url(#a)">
<g transform="translate(386.58 598.84) rotate(82.75) scale(.08 -.08)">
<use xlink:href="#ai"/>
</g>
</g>
<path d="m452.48 898.43v33.808q0 2.4 2.4 2.4h7.7425q2.4 0 2.4-2.4v-33.808q0-2.4-2.4-2.4h-7.7425q-2.4 0-2.4 2.4z" clip-path="url(#a)" fill="#fff" stroke="#fff"/>
<g clip-path="url(#a)">
<g transform="translate(456.55 898.43) rotate(90) scale(.08 -.08)">
<use xlink:href="#k"/>
<use x="44.083984" xlink:href="#d"/>
<use x="105.607422" xlink:href="#j"/>
<use x="144.970703" xlink:href="#l"/>
<use x="242.382812" xlink:href="#i"/>
<use x="270.166016" xlink:href="#g"/>
<use x="333.544922" xlink:href="#f"/>
<use x="394.824219" xlink:href="#h"/>
</g>
</g>
<path d="m494.21 898.43v33.808q0 2.4 2.4 2.4h7.7425q2.4 0 2.4-2.4v-33.808q0-2.4-2.4-2.4h-7.7425q-2.4 0-2.4 2.4z" clip-path="url(#a)" fill="#fff" stroke="#fff"/>
<g clip-path="url(#a)">
<g transform="translate(498.27 898.43) rotate(90) scale(.08 -.08)">
<use xlink:href="#k"/>
<use x="44.083984" xlink:href="#d"/>
<use x="105.607422" xlink:href="#j"/>
<use x="144.970703" xlink:href="#l"/>
<use x="242.382812" xlink:href="#i"/>
<use x="270.166016" xlink:href="#g"/>
<use x="333.544922" xlink:href="#f"/>
<use x="394.824219" xlink:href="#h"/>
</g>
</g>
<path d="m619.59 605.91 1.5771-5.3303q0.6809-2.3014-1.6205-2.9823l-7.4244-2.1966q-2.3014-0.6809-2.9823 1.6205l-1.5771 5.3303q-0.6809 2.3014 1.6205 2.9823l7.4244 2.1966q2.3014 0.6809 2.9823-1.6205z" clip-path="url(#a)" fill="#fff" stroke="#fff"/>
<g clip-path="url(#a)">
<g transform="translate(615.7 604.75) rotate(-73.518) scale(.08 -.08)">
<use xlink:href="#v"/>
</g>
</g>
<path d="m643.05 605.37 1.0648-5.3679q0.46697-2.3541-1.8872-2.8211l-7.5945-1.5065q-2.3541-0.46697-2.8211 1.8872l-1.0648 5.3679q-0.46697 2.3541 1.8872 2.8211l7.5945 1.5065q2.3541 0.46697 2.8211-1.8872z" clip-path="url(#a)" fill="#fff" stroke="#fff"/>
<g clip-path="url(#a)">
<g transform="translate(639.06 604.58) rotate(-78.78) scale(.08 -.08)">
<use xlink:href="#r"/>
</g>
</g>
<path d="m667.59 604.49 0.46796-4.8638q0.22985-2.389-2.1591-2.6188l-7.7069-0.74151q-2.389-0.22985-2.6188 2.1591l-0.46796 4.8638q-0.22985 2.389 2.1591 2.6188l7.7069 0.74151q2.389 0.22985 2.6188-2.1591z" clip-path="url(#a)" fill="#fff" stroke="#fff"/>
<g clip-path="url(#a)">
<g transform="translate(663.55 604.11) rotate(-84.504) scale(.08 -.08)">
<use xlink:href="#k"/>
</g>
</g>
<path d="m680.53 598.43 0.065553 6.1984q0.02538 2.3999 2.4252 2.3745l7.7421-0.081878q2.3999-0.025381 2.3745-2.4252l-0.065553-6.1984q-0.02538-2.3999-2.4252-2.3745l-7.7421 0.081878q-2.3999 0.025381-2.3745 2.4252z" clip-path="url(#a)" fill="#fff" stroke="#fff"/>
<g clip-path="url(#a)">
<defs>
<path id="av" d="m59.516 10.406v19.578h-16.109v8.1094h25.875v-31.312q-5.7031-4.0469-12.594-6.125-6.875-2.0781-14.688-2.0781-17.094 0-26.75 9.9844-9.6406 10-9.6406 27.812 0 17.875 9.6406 27.859 9.6562 9.9844 26.75 9.9844 7.125 0 13.547-1.7656 6.4219-1.75 11.844-5.1719v-10.5q-5.4688 4.6406-11.625 6.9844t-12.938 2.3438q-13.391 0-20.109-7.4688-6.7031-7.4688-6.7031-22.266 0-14.75 6.7031-22.219 6.7188-7.4688 20.109-7.4688 5.2188 0 9.3125 0.90625 4.1094 0.90625 7.375 2.8125z"/>
</defs>
<g transform="translate(684.6 598.39) rotate(89.394) scale(.08 -.08)">
<use xlink:href="#av"/>
</g>
</g>
<path d="m706.67 599.83 0.58421 4.7882q0.29067 2.3823 2.673 2.0917l7.6855-0.9377q2.3823-0.29066 2.0917-2.673l-0.58421-4.7882q-0.29067-2.3823-2.673-2.0917l-7.6855 0.9377q-2.3823 0.29067-2.0917 2.673z" clip-path="url(#a)" fill="#fff" stroke="#fff"/>
<g clip-path="url(#a)">
<g transform="translate(710.71 599.34) rotate(83.044) scale(.08 -.08)">
<use xlink:href="#w"/>
</g>
</g>
<path d="m786.7 447.57 4.4181 3.2294q1.9376 1.4163 3.3538-0.5213l4.5689-6.2507q1.4163-1.9376-0.5213-3.3538l-4.4181-3.2294q-1.9376-1.4163-3.3538 0.5213l-4.5689 6.2507q-1.4163 1.9376 0.5213 3.3538z" clip-path="url(#a)" fill="#fff" stroke="#fff"/>
<g clip-path="url(#a)">
<g transform="translate(789.1 444.29) rotate(36.165) scale(.08 -.08)">
<use xlink:href="#r"/>
</g>
</g>
<path d="m538.13 898.43v33.808q0 2.4 2.4 2.4h7.7425q2.4 0 2.4-2.4v-33.808q0-2.4-2.4-2.4h-7.7425q-2.4 0-2.4 2.4z" clip-path="url(#a)" fill="#fff" stroke="#fff"/>
<g clip-path="url(#a)">
<g transform="translate(542.19 898.43) rotate(90) scale(.08 -.08)">
<use xlink:href="#k"/>
<use x="44.083984" xlink:href="#d"/>
<use x="105.607422" xlink:href="#j"/>
<use x="144.970703" xlink:href="#l"/>
<use x="242.382812" xlink:href="#i"/>
<use x="270.166016" xlink:href="#g"/>
<use x="333.544922" xlink:href="#f"/>
<use x="394.824219" xlink:href="#h"/>
</g>
</g>
<path d="m584.24 898.43v33.808q0 2.4 2.4 2.4h7.7425q2.4 0 2.4-2.4v-33.808q0-2.4-2.4-2.4h-7.7425q-2.4 0-2.4 2.4z" clip-path="url(#a)" fill="#fff" stroke="#fff"/>
<g clip-path="url(#a)">
<g transform="translate(588.31 898.43) rotate(90) scale(.08 -.08)">
<use xlink:href="#k"/>
<use x="44.083984" xlink:href="#d"/>
<use x="105.607422" xlink:href="#j"/>
<use x="144.970703" xlink:href="#l"/>
<use x="242.382812" xlink:href="#i"/>
<use x="270.166016" xlink:href="#g"/>
<use x="333.544922" xlink:href="#f"/>
<use x="394.824219" xlink:href="#h"/>
</g>
</g>
<path d="m632.56 898.43v33.808q0 2.4 2.4 2.4h7.7425q2.4 0 2.4-2.4v-33.808q0-2.4-2.4-2.4h-7.7425q-2.4 0-2.4 2.4z" clip-path="url(#a)" fill="#fff" stroke="#fff"/>
<g clip-path="url(#a)">
<g transform="translate(636.62 898.43) rotate(90) scale(.08 -.08)">
<use xlink:href="#k"/>
<use x="44.083984" xlink:href="#d"/>
<use x="105.607422" xlink:href="#j"/>
<use x="144.970703" xlink:href="#l"/>
<use x="242.382812" xlink:href="#i"/>
<use x="270.166016" xlink:href="#g"/>
<use x="333.544922" xlink:href="#f"/>
<use x="394.824219" xlink:href="#h"/>
</g>
</g>
<path d="m683.07 898.43v33.808q0 2.4 2.4 2.4h7.7425q2.4 0 2.4-2.4v-33.808q0-2.4-2.4-2.4h-7.7425q-2.4 0-2.4 2.4z" clip-path="url(#a)" fill="#fff" stroke="#fff"/>
<g clip-path="url(#a)">
<g transform="translate(687.13 898.43) rotate(90) scale(.08 -.08)">
<use xlink:href="#k"/>
<use x="44.083984" xlink:href="#d"/>
<use x="105.607422" xlink:href="#j"/>
<use x="144.970703" xlink:href="#l"/>
<use x="242.382812" xlink:href="#i"/>
<use x="270.166016" xlink:href="#g"/>
<use x="333.544922" xlink:href="#f"/>
<use x="394.824219" xlink:href="#h"/>
</g>
</g>
<path d="m735.77 898.43v33.808q0 2.4 2.4 2.4h7.7425q2.4 0 2.4-2.4v-33.808q0-2.4-2.4-2.4h-7.7425q-2.4 0-2.4 2.4z" clip-path="url(#a)" fill="#fff" stroke="#fff"/>
<g clip-path="url(#a)">
<g transform="translate(739.84 898.43) rotate(90) scale(.08 -.08)">
<use xlink:href="#k"/>
<use x="44.083984" xlink:href="#d"/>
<use x="105.607422" xlink:href="#j"/>
<use x="144.970703" xlink:href="#l"/>
<use x="242.382812" xlink:href="#i"/>
<use x="270.166016" xlink:href="#g"/>
<use x="333.544922" xlink:href="#f"/>
<use x="394.824219" xlink:href="#h"/>
</g>
</g>
<path d="m854 685.21 1.7435-5.2782q0.75276-2.2789-1.5261-3.0317l-7.3518-2.4284q-2.2789-0.75276-3.0317 1.5261l-1.7435 5.2782q-0.75276 2.2789 1.5261 3.0317l7.3518 2.4284q2.2789 0.75276 3.0317-1.5261z" clip-path="url(#a)" fill="#fff" stroke="#fff"/>
<g clip-path="url(#a)">
<g transform="translate(850.14 683.94) rotate(-71.721) scale(.08 -.08)">
<use xlink:href="#v"/>
</g>
</g>
<path d="m883.3 684.03 0.74436-4.9999q0.35341-2.3738-2.0204-2.7272l-7.6581-1.1401q-2.3738-0.35341-2.7272 2.0204l-0.74436 4.9999q-0.35341 2.3738 2.0204 2.7272l7.6581 1.1401q2.3738 0.35341 2.7272-2.0204z" clip-path="url(#a)" fill="#fff" stroke="#fff"/>
<g clip-path="url(#a)">
<g transform="translate(879.28 683.43) rotate(-81.532) scale(.08 -.08)">
<use xlink:href="#x"/>
</g>
</g>
<path d="m900.74 678.06 0.22074 5.5819q0.094835 2.3981 2.493 2.3033l7.7365-0.30594q2.3981-0.094834 2.3033-2.493l-0.22074-5.5819q-0.094834-2.3981-2.493-2.3033l-7.7365 0.30594q-2.3981 0.094835-2.3033 2.493z" clip-path="url(#a)" fill="#fff" stroke="#fff"/>
<g clip-path="url(#a)">
<g transform="translate(904.8 677.9) rotate(87.735) scale(.08 -.08)">
<use xlink:href="#u"/>
</g>
</g>
<path d="m963.68 604.38 3.3331 3.8005q1.5825 1.8044 3.3868 0.22193l5.821-5.1051q1.8044-1.5825 0.22193-3.3868l-3.3331-3.8005q-1.5825-1.8044-3.3868-0.22193l-5.821 5.1051q-1.8044 1.5825-0.22193 3.3868z" clip-path="url(#a)" fill="#fff" stroke="#fff"/>
<g clip-path="url(#a)">
<g transform="translate(966.74 601.7) rotate(48.749) scale(.08 -.08)">
<use xlink:href="#x"/>
</g>
</g>
<path d="m790.67 898.43v33.808q0 2.4 2.4 2.4h7.7425q2.4 0 2.4-2.4v-33.808q0-2.4-2.4-2.4h-7.7425q-2.4 0-2.4 2.4z" clip-path="url(#a)" fill="#fff" stroke="#fff"/>
<g clip-path="url(#a)">
<g transform="translate(794.74 898.43) rotate(90) scale(.08 -.08)">
<use xlink:href="#k"/>
<use x="44.083984" xlink:href="#d"/>
<use x="105.607422" xlink:href="#j"/>
<use x="144.970703" xlink:href="#l"/>
<use x="242.382812" xlink:href="#i"/>
<use x="270.166016" xlink:href="#g"/>
<use x="333.544922" xlink:href="#f"/>
<use x="394.824219" xlink:href="#h"/>
</g>
</g>
<path d="m847.77 898.43v33.808q0 2.4 2.4 2.4h7.7425q2.4 0 2.4-2.4v-33.808q0-2.4-2.4-2.4h-7.7425q-2.4 0-2.4 2.4z" clip-path="url(#a)" fill="#fff" stroke="#fff"/>
<g clip-path="url(#a)">
<g transform="translate(851.83 898.43) rotate(90) scale(.08 -.08)">
<use xlink:href="#k"/>
<use x="44.083984" xlink:href="#d"/>
<use x="105.607422" xlink:href="#j"/>
<use x="144.970703" xlink:href="#l"/>
<use x="242.382812" xlink:href="#i"/>
<use x="270.166016" xlink:href="#g"/>
<use x="333.544922" xlink:href="#f"/>
<use x="394.824219" xlink:href="#h"/>
</g>
</g>
<path d="m907.06 898.43v33.808q0 2.4 2.4 2.4h7.7425q2.4 0 2.4-2.4v-33.808q0-2.4-2.4-2.4h-7.7425q-2.4 0-2.4 2.4z" clip-path="url(#a)" fill="#fff" stroke="#fff"/>
<g clip-path="url(#a)">
<g transform="translate(911.13 898.43) rotate(90) scale(.08 -.08)">
<use xlink:href="#k"/>
<use x="44.083984" xlink:href="#d"/>
<use x="105.607422" xlink:href="#j"/>
<use x="144.970703" xlink:href="#l"/>
<use x="242.382812" xlink:href="#i"/>
<use x="270.166016" xlink:href="#g"/>
<use x="333.544922" xlink:href="#f"/>
<use x="394.824219" xlink:href="#h"/>
</g>
</g>
<path d="m1011.8 764.44 2.1109-5.1424q0.91136-2.2202-1.3089-3.1316l-7.1625-2.9401q-2.2202-0.91136-3.1316 1.3089l-2.1109 5.1424q-0.91136 2.2202 1.3089 3.1316l7.1626 2.9401q2.2202 0.91136 3.1316-1.3089z" clip-path="url(#a)" fill="#fff" stroke="#fff"/>
<g clip-path="url(#a)">
<g transform="translate(1008 762.89) rotate(-67.683) scale(.08 -.08)">
<use xlink:href="#v"/>
</g>
</g>
<path d="m1045.1 762.04 0.02358-5.0549q0.011194-2.4-2.3888-2.4112l-7.7424-0.036115q-2.4-0.011195-2.4112 2.3888l-0.023579 5.0549q-0.011195 2.4 2.3888 2.4112l7.7424 0.036115q2.4 0.011195 2.4112-2.3888z" clip-path="url(#a)" fill="#fff" stroke="#fff"/>
<g clip-path="url(#a)">
<g transform="translate(1041.1 762.02) rotate(-89.733) scale(.08 -.08)">
<use xlink:href="#x"/>
</g>
</g>
<path d="m1065 759.31 2.1419 5.1593q0.92021 2.2166 3.1368 1.2964l7.1508-2.9686q2.2166-0.92021 1.2964-3.1368l-2.1419-5.1593q-0.92021-2.2166-3.1368-1.2964l-7.1508 2.9686q-2.2166 0.92021-1.2964 3.1368z" clip-path="url(#a)" fill="#fff" stroke="#fff"/>
<g clip-path="url(#a)">
<g transform="translate(1068.7 757.75) rotate(67.454) scale(.08 -.08)">
<use xlink:href="#u"/>
</g>
</g>
<path d="m968.55 898.43v33.808q0 2.4 2.4 2.4h7.7425q2.4 0 2.4-2.4v-33.808q0-2.4-2.4-2.4h-7.7425q-2.4 0-2.4 2.4z" clip-path="url(#a)" fill="#fff" stroke="#fff"/>
<g clip-path="url(#a)">
<g transform="translate(972.62 898.43) rotate(90) scale(.08 -.08)">
<use xlink:href="#k"/>
<use x="44.083984" xlink:href="#d"/>
<use x="105.607422" xlink:href="#j"/>
<use x="144.970703" xlink:href="#l"/>
<use x="242.382812" xlink:href="#i"/>
<use x="270.166016" xlink:href="#g"/>
<use x="333.544922" xlink:href="#f"/>
<use x="394.824219" xlink:href="#h"/>
</g>
</g>
<path d="m1032.2 898.43v33.808q0 2.4 2.4 2.4h7.7425q2.4 0 2.4-2.4v-33.808q0-2.4-2.4-2.4h-7.7425q-2.4 0-2.4 2.4z" clip-path="url(#a)" fill="#fff" stroke="#fff"/>
<g clip-path="url(#a)">
<g transform="translate(1036.3 898.43) rotate(90) scale(.08 -.08)">
<use xlink:href="#k"/>
<use x="44.083984" xlink:href="#d"/>
<use x="105.607422" xlink:href="#j"/>
<use x="144.970703" xlink:href="#l"/>
<use x="242.382812" xlink:href="#i"/>
<use x="270.166016" xlink:href="#g"/>
<use x="333.544922" xlink:href="#f"/>
<use x="394.824219" xlink:href="#h"/>
</g>
</g>
<path d="m1098.1 898.43v33.808q0 2.4 2.4 2.4h7.7425q2.4 0 2.4-2.4v-33.808q0-2.4-2.4-2.4h-7.7425q-2.4 0-2.4 2.4z" clip-path="url(#a)" fill="#fff" stroke="#fff"/>
<g clip-path="url(#a)">
<g transform="translate(1102.2 898.43) rotate(90) scale(.08 -.08)">
<use xlink:href="#k"/>
<use x="44.083984" xlink:href="#d"/>
<use x="105.607422" xlink:href="#j"/>
<use x="144.970703" xlink:href="#l"/>
<use x="242.382812" xlink:href="#i"/>
<use x="270.166016" xlink:href="#g"/>
<use x="333.544922" xlink:href="#f"/>
<use x="394.824219" xlink:href="#h"/>
</g>
</g>
<path d="m248.25 898.43v33.808q0 2.4 2.4 2.4h7.7425q2.4 0 2.4-2.4v-33.808q0-2.4-2.4-2.4h-7.7425q-2.4 0-2.4 2.4z" clip-path="url(#a)" fill="#fff" stroke="#fff"/>
<g clip-path="url(#a)">
<g transform="translate(252.31 898.43) rotate(90) scale(.08 -.08)">
<use xlink:href="#k"/>
<use x="44.083984" xlink:href="#d"/>
<use x="105.607422" xlink:href="#j"/>
<use x="144.970703" xlink:href="#l"/>
<use x="242.382812" xlink:href="#i"/>
<use x="270.166016" xlink:href="#g"/>
<use x="333.544922" xlink:href="#f"/>
<use x="394.824219" xlink:href="#h"/>
</g>
</g>
<path d="m296.75 762.61 0.49281-5.0309q0.23397-2.3886-2.1546-2.6225l-7.7056-0.75481q-2.3886-0.23398-2.6225 2.1546l-0.49281 5.0309q-0.23397 2.3886 2.1546 2.6225l7.7056 0.75481q2.3886 0.23398 2.6225-2.1546z" clip-path="url(#a)" fill="#fff" stroke="#fff"/>
<g clip-path="url(#a)">
<g transform="translate(292.71 762.22) rotate(-84.405) scale(.08 -.08)">
<use xlink:href="#x"/>
</g>
</g>
<path d="m299.61 757.32 0.5446 5.5596q0.23398 2.3886 2.6225 2.1546l7.7056-0.75481q2.3886-0.23398 2.1546-2.6225l-0.5446-5.5596q-0.23398-2.3886-2.6225-2.1546l-7.7056 0.75481q-2.3886 0.23398-2.1546 2.6225z" clip-path="url(#a)" fill="#fff" stroke="#fff"/>
<g clip-path="url(#a)">
<g transform="translate(303.66 756.92) rotate(84.405) scale(.08 -.08)">
<use xlink:href="#u"/>
</g>
</g>
<path d="m361.65 683.73 0.30985-5.5501q0.13378-2.3963-2.2625-2.53l-7.7305-0.43158q-2.3963-0.13378-2.53 2.2625l-0.30985 5.5501q-0.13378 2.3963 2.2625 2.53l7.7305 0.43158q2.3963 0.13378 2.53-2.2625z" clip-path="url(#a)" fill="#fff" stroke="#fff"/>
<g clip-path="url(#a)">
<g transform="translate(357.59 683.51) rotate(-86.805) scale(.08 -.08)">
<use xlink:href="#v"/>
</g>
</g>
<path d="m366.57 600.06 0.61829 5.5519q0.26564 2.3853 2.6509 2.1196l7.6949-0.85695q2.3853-0.26564 2.1196-2.6509l-0.61829-5.5519q-0.26564-2.3853-2.6509-2.1196l-7.6949 0.85695q-2.3853 0.26564-2.1196 2.6509z" clip-path="url(#a)" fill="#fff" stroke="#fff"/>
<g clip-path="url(#a)">
<g transform="translate(370.6 599.61) rotate(83.645) scale(.08 -.08)">
<use xlink:href="#u"/>
</g>
</g>
<path d="m340.48 898.43v33.808q0 2.4 2.4 2.4h7.7425q2.4 0 2.4-2.4v-33.808q0-2.4-2.4-2.4h-7.7425q-2.4 0-2.4 2.4z" clip-path="url(#a)" fill="#fff" stroke="#fff"/>
<g clip-path="url(#a)">
<g transform="translate(344.55 898.43) rotate(90) scale(.08 -.08)">
<use xlink:href="#k"/>
<use x="44.083984" xlink:href="#d"/>
<use x="105.607422" xlink:href="#j"/>
<use x="144.970703" xlink:href="#l"/>
<use x="242.382812" xlink:href="#i"/>
<use x="270.166016" xlink:href="#g"/>
<use x="333.544922" xlink:href="#f"/>
<use x="394.824219" xlink:href="#h"/>
</g>
</g>
<path d="m375.62 757.07v4.8238q0 2.4 2.4 2.4h7.7425q2.4 0 2.4-2.4v-4.8238q0-2.4-2.4-2.4h-7.7425q-2.4 0-2.4 2.4z" clip-path="url(#a)" fill="#fff" stroke="#fff"/>
<g clip-path="url(#a)">
<g transform="translate(379.68 757.07) rotate(90) scale(.08 -.08)">
<use xlink:href="#w"/>
</g>
</g>
<path d="m375.62 898.43v33.808q0 2.4 2.4 2.4h7.7425q2.4 0 2.4-2.4v-33.808q0-2.4-2.4-2.4h-7.7425q-2.4 0-2.4 2.4z" clip-path="url(#a)" fill="#fff" stroke="#fff"/>
<g clip-path="url(#a)">
<g transform="translate(379.68 898.43) rotate(90) scale(.08 -.08)">
<use xlink:href="#k"/>
<use x="44.083984" xlink:href="#d"/>
<use x="105.607422" xlink:href="#j"/>
<use x="144.970703" xlink:href="#l"/>
<use x="242.382812" xlink:href="#i"/>
<use x="270.166016" xlink:href="#g"/>
<use x="333.544922" xlink:href="#f"/>
<use x="394.824219" xlink:href="#h"/>
</g>
</g>
<path d="m276.8 898.43v33.808q0 2.4 2.4 2.4h7.7425q2.4 0 2.4-2.4v-33.808q0-2.4-2.4-2.4h-7.7425q-2.4 0-2.4 2.4z" clip-path="url(#a)" fill="#fff" stroke="#fff"/>
<g clip-path="url(#a)">
<g transform="translate(280.86 898.43) rotate(90) scale(.08 -.08)">
<use xlink:href="#k"/>
<use x="44.083984" xlink:href="#d"/>
<use x="105.607422" xlink:href="#j"/>
<use x="144.970703" xlink:href="#l"/>
<use x="242.382812" xlink:href="#i"/>
<use x="270.166016" xlink:href="#g"/>
<use x="333.544922" xlink:href="#f"/>
<use x="394.824219" xlink:href="#h"/>
</g>
</g>
<path d="m307.54 898.43v33.808q0 2.4 2.4 2.4h7.7425q2.4 0 2.4-2.4v-33.808q0-2.4-2.4-2.4h-7.7425q-2.4 0-2.4 2.4z" clip-path="url(#a)" fill="#fff" stroke="#fff"/>
<g clip-path="url(#a)">
<g transform="translate(311.61 898.43) rotate(90) scale(.08 -.08)">
<use xlink:href="#k"/>
<use x="44.083984" xlink:href="#d"/>
<use x="105.607422" xlink:href="#j"/>
<use x="144.970703" xlink:href="#l"/>
<use x="242.382812" xlink:href="#i"/>
<use x="270.166016" xlink:href="#g"/>
<use x="333.544922" xlink:href="#f"/>
<use x="394.824219" xlink:href="#h"/>
</g>
</g>
<path d="m97.375 932.37 0.71935-33.8q0.051066-2.3995-2.3484-2.4505l-7.7407-0.16474q-2.3995-0.051066-2.4505 2.3484l-0.71935 33.8q-0.051066 2.3995 2.3484 2.4505l7.7407 0.16474q2.3995 0.051066 2.4505-2.3484z" clip-path="url(#a)" fill="#fff" stroke="#fff"/>
<g clip-path="url(#a)">
<g transform="translate(93.313 932.29) rotate(-88.781) scale(.08 -.08)">
<use xlink:href="#k"/>
<use x="44.083984" xlink:href="#d"/>
<use x="105.607422" xlink:href="#j"/>
<use x="144.970703" xlink:href="#l"/>
<use x="242.382812" xlink:href="#i"/>
<use x="270.166016" xlink:href="#g"/>
<use x="333.544922" xlink:href="#f"/>
<use x="394.824219" xlink:href="#h"/>
</g>
</g>
<path d="m88.13 898.57 0.71935 33.8q0.051066 2.3995 2.4505 2.3484l7.7407-0.16474q2.3995-0.051067 2.3484-2.4505l-0.71935-33.8q-0.051067-2.3995-2.4505-2.3484l-7.7407 0.16474q-2.3995 0.051067-2.3484 2.4505z" clip-path="url(#a)" fill="#fff" stroke="#fff"/>
<g clip-path="url(#a)">
<g transform="translate(92.193 898.49) rotate(88.781) scale(.08 -.08)">
<use xlink:href="#k"/>
<use x="44.083984" xlink:href="#d"/>
<use x="105.607422" xlink:href="#j"/>
<use x="144.970703" xlink:href="#l"/>
<use x="242.382812" xlink:href="#i"/>
<use x="270.166016" xlink:href="#g"/>
<use x="333.544922" xlink:href="#f"/>
<use x="394.824219" xlink:href="#h"/>
</g>
</g>
<path d="m98.919 898.43v33.808q0 2.4 2.4 2.4h7.7425q2.4 0 2.4-2.4v-33.808q0-2.4-2.4-2.4h-7.7425q-2.4 0-2.4 2.4z" clip-path="url(#a)" fill="#fff" stroke="#fff"/>
<g clip-path="url(#a)">
<g transform="translate(102.98 898.43) rotate(90) scale(.08 -.08)">
<use xlink:href="#k"/>
<use x="44.083984" xlink:href="#d"/>
<use x="105.607422" xlink:href="#j"/>
<use x="144.970703" xlink:href="#l"/>
<use x="242.382812" xlink:href="#i"/>
<use x="270.166016" xlink:href="#g"/>
<use x="333.544922" xlink:href="#f"/>
<use x="394.824219" xlink:href="#h"/>
</g>
</g>
<path d="m125.01 932.49 1.4377-33.777q0.10206-2.3978-2.2958-2.4999l-7.7355-0.32926q-2.3978-0.10206-2.4999 2.2958l-1.4377 33.777q-0.10206 2.3978 2.2958 2.4999l7.7355 0.32926q2.3978 0.10206 2.4999-2.2958z" clip-path="url(#a)" fill="#fff" stroke="#fff"/>
<g clip-path="url(#a)">
<g transform="translate(120.95 932.32) rotate(-87.563) scale(.08 -.08)">
<use xlink:href="#k"/>
<use x="44.083984" xlink:href="#d"/>
<use x="105.607422" xlink:href="#j"/>
<use x="144.970703" xlink:href="#l"/>
<use x="242.382812" xlink:href="#i"/>
<use x="270.166016" xlink:href="#g"/>
<use x="333.544922" xlink:href="#f"/>
<use x="394.824219" xlink:href="#h"/>
</g>
</g>
<path d="m119.07 898.72 1.4377 33.777q0.10206 2.3978 2.4999 2.2958l7.7355-0.32926q2.3978-0.10206 2.2958-2.4999l-1.4377-33.777q-0.10206-2.3978-2.4999-2.2958l-7.7355 0.32926q-2.3978 0.10206-2.2958 2.4999z" clip-path="url(#a)" fill="#fff" stroke="#fff"/>
<g clip-path="url(#a)">
<g transform="translate(123.13 898.54) rotate(87.563) scale(.08 -.08)">
<use xlink:href="#k"/>
<use x="44.083984" xlink:href="#d"/>
<use x="105.607422" xlink:href="#j"/>
<use x="144.970703" xlink:href="#l"/>
<use x="242.382812" xlink:href="#i"/>
<use x="270.166016" xlink:href="#g"/>
<use x="333.544922" xlink:href="#f"/>
<use x="394.824219" xlink:href="#h"/>
</g>
</g>
<path d="m158.21 683.42 0.23566-5.0495q0.11188-2.3974-2.2855-2.5093l-7.7341-0.36094q-2.3974-0.11188-2.5093 2.2855l-0.23566 5.0495q-0.11188 2.3974 2.2855 2.5093l7.7341 0.36094q2.3974 0.11188 2.5093-2.2855z" clip-path="url(#a)" fill="#fff" stroke="#fff"/>
<g clip-path="url(#a)">
<g transform="translate(154.15 683.24) rotate(-87.328) scale(.08 -.08)">
<use xlink:href="#x"/>
</g>
</g>
<path d="m154.55 678.14 0.046298 5.0548q0.021982 2.3999 2.4219 2.3779l7.7422-0.070913q2.3999-0.021982 2.3779-2.4219l-0.046298-5.0548q-0.021982-2.3999-2.4219-2.3779l-7.7422 0.070913q-2.3999 0.021982-2.3779 2.4219z" clip-path="url(#a)" fill="#fff" stroke="#fff"/>
<g clip-path="url(#a)">
<g transform="translate(158.62 678.1) rotate(89.475) scale(.08 -.08)">
<use xlink:href="#x"/>
</g>
</g>
<path d="m164.29 678.54 0.36285 5.042q0.17227 2.3938 2.5661 2.2215l7.7225-0.55576q2.3938-0.17227 2.2215-2.5661l-0.36285-5.042q-0.17227-2.3938-2.5661-2.2215l-7.7225 0.55576q-2.3938 0.17227-2.2215 2.5661z" clip-path="url(#a)" fill="#fff" stroke="#fff"/>
<g clip-path="url(#a)">
<g transform="translate(168.35 678.25) rotate(85.884) scale(.08 -.08)">
<use xlink:href="#x"/>
</g>
</g>
<path d="m160.05 605.36 0.38306-5.5731q0.16457-2.3944-2.2298-2.5589l-7.7243-0.53092q-2.3944-0.16457-2.5589 2.2298l-0.38306 5.5731q-0.16457 2.3944 2.2298 2.5589l7.7243 0.53092q2.3944 0.16457 2.5589-2.2298z" clip-path="url(#a)" fill="#fff" stroke="#fff"/>
<g clip-path="url(#a)">
<g transform="translate(155.99 605.08) rotate(-86.068) scale(.08 -.08)">
<use xlink:href="#u"/>
</g>
</g>
<path d="m138.45 898.43v33.808q0 2.4 2.4 2.4h7.7425q2.4 0 2.4-2.4v-33.808q0-2.4-2.4-2.4h-7.7425q-2.4 0-2.4 2.4z" clip-path="url(#a)" fill="#fff" stroke="#fff"/>
<g clip-path="url(#a)">
<g transform="translate(142.51 898.43) rotate(90) scale(.08 -.08)">
<use xlink:href="#k"/>
<use x="44.083984" xlink:href="#d"/>
<use x="105.607422" xlink:href="#j"/>
<use x="144.970703" xlink:href="#l"/>
<use x="242.382812" xlink:href="#i"/>
<use x="270.166016" xlink:href="#g"/>
<use x="333.544922" xlink:href="#f"/>
<use x="394.824219" xlink:href="#h"/>
</g>
</g>
<path d="m156.02 898.43v33.808q0 2.4 2.4 2.4h7.7425q2.4 0 2.4-2.4v-33.808q0-2.4-2.4-2.4h-7.7425q-2.4 0-2.4 2.4z" clip-path="url(#a)" fill="#fff" stroke="#fff"/>
<g clip-path="url(#a)">
<g transform="translate(160.08 898.43) rotate(90) scale(.08 -.08)">
<use xlink:href="#k"/>
<use x="44.083984" xlink:href="#d"/>
<use x="105.607422" xlink:href="#j"/>
<use x="144.970703" xlink:href="#l"/>
<use x="242.382812" xlink:href="#i"/>
<use x="270.166016" xlink:href="#g"/>
<use x="333.544922" xlink:href="#f"/>
<use x="394.824219" xlink:href="#h"/>
</g>
</g>
<path d="m175.78 898.43v33.808q0 2.4 2.4 2.4h7.7425q2.4 0 2.4-2.4v-33.808q0-2.4-2.4-2.4h-7.7425q-2.4 0-2.4 2.4z" clip-path="url(#a)" fill="#fff" stroke="#fff"/>
<g clip-path="url(#a)">
<g transform="translate(179.84 898.43) rotate(90) scale(.08 -.08)">
<use xlink:href="#k"/>
<use x="44.083984" xlink:href="#d"/>
<use x="105.607422" xlink:href="#j"/>
<use x="144.970703" xlink:href="#l"/>
<use x="242.382812" xlink:href="#i"/>
<use x="270.166016" xlink:href="#g"/>
<use x="333.544922" xlink:href="#f"/>
<use x="394.824219" xlink:href="#h"/>
</g>
</g>
<path d="m125.84 764.15 1.8232-5.1599q0.79957-2.2629-1.4633-3.0625l-7.3002-2.5795q-2.2629-0.79957-3.0625 1.4633l-1.8232 5.1599q-0.79957 2.2629 1.4633 3.0625l7.3002 2.5795q2.2629 0.79957 3.0625-1.4633z" clip-path="url(#a)" fill="#fff" stroke="#fff"/>
<g clip-path="url(#a)">
<g transform="translate(122.01 762.8) rotate(-70.54) scale(.08 -.08)">
<use xlink:href="#r"/>
</g>
</g>
<path d="m169.57 759.3 1.6071 4.5482q0.79957 2.2629 3.0625 1.4633l7.3002-2.5795q2.2629-0.79957 1.4633-3.0625l-1.6071-4.5482q-0.79957-2.2629-3.0625-1.4633l-7.3002 2.5795q-2.2629 0.79957-1.4633 3.0625z" clip-path="url(#a)" fill="#fff" stroke="#fff"/>
<g clip-path="url(#a)">
<g transform="translate(173.4 757.95) rotate(70.54) scale(.08 -.08)">
<use xlink:href="#w"/>
</g>
</g>
<path d="m197.74 898.43v33.808q0 2.4 2.4 2.4h7.7425q2.4 0 2.4-2.4v-33.808q0-2.4-2.4-2.4h-7.7425q-2.4 0-2.4 2.4z" clip-path="url(#a)" fill="#fff" stroke="#fff"/>
<g clip-path="url(#a)">
<g transform="translate(201.8 898.43) rotate(90) scale(.08 -.08)">
<use xlink:href="#k"/>
<use x="44.083984" xlink:href="#d"/>
<use x="105.607422" xlink:href="#j"/>
<use x="144.970703" xlink:href="#l"/>
<use x="242.382812" xlink:href="#i"/>
<use x="270.166016" xlink:href="#g"/>
<use x="333.544922" xlink:href="#f"/>
<use x="394.824219" xlink:href="#h"/>
</g>
</g>
<path d="m820.95 134.07 9.8182-2.4115q2.3307-0.57245 1.7583-2.9032l-1.8468-7.519q-0.57245-2.3307-2.9032-1.7583l-9.8182 2.4115q-2.3307 0.57245-1.7583 2.9032l1.8468 7.519q0.57245 2.3307 2.9032 1.7583z" clip-path="url(#a)" fill="#fff" stroke="#fff"/>
<g clip-path="url(#a)">
<g transform="translate(819.98 130.13) rotate(-13.799) scale(.08 -.08)">
<use xlink:href="#z"/>
<use x="57.962891" xlink:href="#r"/>
</g>
</g>
<path d="m1233.6 282.89 3.6517 9.3269q0.87498 2.2348 3.1098 1.3598l7.2096-2.8227q2.2348-0.87498 1.3598-3.1098l-3.6517-9.3269q-0.87498-2.2348-3.1098-1.3598l-7.2096 2.8227q-2.2348 0.87498-1.3598 3.1098z" clip-path="url(#a)" fill="#fff" stroke="#fff"/>
<g clip-path="url(#a)">
<g transform="translate(1237.4 281.41) rotate(68.619) scale(.08 -.08)">
<use xlink:href="#z"/>
<use x="55.712891" xlink:href="#v"/>
</g>
</g>
<path d="m1370.6 286 7.0339 7.2619q1.6698 1.7239 3.3937 0.054121l5.5614-5.3868q1.7239-1.6698 0.05412-3.3937l-7.0339-7.2619q-1.6698-1.7239-3.3937-0.054121l-5.5614 5.3868q-1.7239 1.6698-0.05412 3.3937z" clip-path="url(#a)" fill="#fff" stroke="#fff"/>
<g clip-path="url(#a)">
<g transform="translate(1373.5 283.17) rotate(45.914) scale(.08 -.08)">
<use xlink:href="#z"/>
<use x="57.962891" xlink:href="#r"/>
</g>
</g>
<path d="m221.9 898.43v33.808q0 2.4 2.4 2.4h7.7425q2.4 0 2.4-2.4v-33.808q0-2.4-2.4-2.4h-7.7425q-2.4 0-2.4 2.4z" clip-path="url(#a)" fill="#fff" stroke="#fff"/>
<g clip-path="url(#a)">
<g transform="translate(225.96 898.43) rotate(90) scale(.08 -.08)">
<use xlink:href="#k"/>
<use x="44.083984" xlink:href="#d"/>
<use x="105.607422" xlink:href="#j"/>
<use x="144.970703" xlink:href="#l"/>
<use x="242.382812" xlink:href="#i"/>
<use x="270.166016" xlink:href="#g"/>
<use x="333.544922" xlink:href="#f"/>
<use x="394.824219" xlink:href="#h"/>
</g>
</g>
<path d="m412.95 898.43v33.808q0 2.4 2.4 2.4h7.7425q2.4 0 2.4-2.4v-33.808q0-2.4-2.4-2.4h-7.7425q-2.4 0-2.4 2.4z" clip-path="url(#a)" fill="#fff" stroke="#fff"/>
<g clip-path="url(#a)">
<g transform="translate(417.02 898.43) rotate(90) scale(.08 -.08)">
<use xlink:href="#k"/>
<use x="44.083984" xlink:href="#d"/>
<use x="105.607422" xlink:href="#j"/>
<use x="144.970703" xlink:href="#l"/>
<use x="242.382812" xlink:href="#i"/>
<use x="270.166016" xlink:href="#g"/>
<use x="333.544922" xlink:href="#f"/>
<use x="394.824219" xlink:href="#h"/>
</g>
</g>
<path d="m1166.2 898.43v33.808q0 2.4 2.4 2.4h7.7425q2.4 0 2.4-2.4v-33.808q0-2.4-2.4-2.4h-7.7425q-2.4 0-2.4 2.4z" clip-path="url(#a)" fill="#fff" stroke="#fff"/>
<g clip-path="url(#a)">
<g transform="translate(1170.3 898.43) rotate(90) scale(.08 -.08)">
<use xlink:href="#k"/>
<use x="44.083984" xlink:href="#d"/>
<use x="105.607422" xlink:href="#j"/>
<use x="144.970703" xlink:href="#l"/>
<use x="242.382812" xlink:href="#i"/>
<use x="270.166016" xlink:href="#g"/>
<use x="333.544922" xlink:href="#f"/>
<use x="394.824219" xlink:href="#h"/>
</g>
</g>
<path d="m1877.7 898.43v33.808q0 2.4 2.4 2.4h7.7425q2.4 0 2.4-2.4v-33.808q0-2.4-2.4-2.4h-7.7425q-2.4 0-2.4 2.4z" clip-path="url(#a)" fill="#fff" stroke="#fff"/>
<g clip-path="url(#a)">
<g transform="translate(1881.8 898.43) rotate(90) scale(.08 -.08)">
<use xlink:href="#k"/>
<use x="44.083984" xlink:href="#d"/>
<use x="105.607422" xlink:href="#j"/>
<use x="144.970703" xlink:href="#l"/>
<use x="242.382812" xlink:href="#i"/>
<use x="270.166016" xlink:href="#g"/>
<use x="333.544922" xlink:href="#f"/>
<use x="394.824219" xlink:href="#h"/>
</g>
</g>
<defs>
<path id="b" d="m0 8.6603c2.2967 0 4.4997-0.9125 6.1237-2.5365 1.624-1.624 2.5365-3.827 2.5365-6.1237s-0.9125-4.4997-2.5365-6.1237c-1.624-1.624-3.827-2.5365-6.1237-2.5365s-4.4997 0.9125-6.1237 2.5365c-1.624 1.624-2.5365 3.827-2.5365 6.1237s0.9125 4.4997 2.5365 6.1237c1.624 1.624 3.827 2.5365 6.1237 2.5365z"/>
</defs>
<g clip-path="url(#a)">
<use x="89.818182" y="992.727273" fill="#ffffff" stroke="#ffffff" xlink:href="#b"/>
</g>
<g clip-path="url(#a)">
<use x="96.406313" y="992.727273" fill="#ffffff" stroke="#ffffff" xlink:href="#b"/>
</g>
<g clip-path="url(#a)">
<use x="105.190487" y="992.727273" fill="#ffffff" stroke="#ffffff" xlink:href="#b"/>
</g>
<g clip-path="url(#a)">
<use x="116.170705" y="992.727273" fill="#ffffff" stroke="#ffffff" xlink:href="#b"/>
</g>
<g clip-path="url(#a)">
<use x="129.346966" y="992.727273" fill="#ffffff" stroke="#ffffff" xlink:href="#b"/>
</g>
<g clip-path="url(#a)">
<use x="144.719271" y="992.727273" fill="#ffffff" stroke="#ffffff" xlink:href="#b"/>
</g>
<g clip-path="url(#a)">
<use x="162.287619" y="992.727273" fill="#ffffff" stroke="#ffffff" xlink:href="#b"/>
</g>
<g clip-path="url(#a)">
<use x="182.052012" y="992.727273" fill="#ffffff" stroke="#ffffff" xlink:href="#b"/>
</g>
<g clip-path="url(#a)">
<use x="204.012447" y="992.727273" fill="#ffffff" stroke="#ffffff" xlink:href="#b"/>
</g>
<g clip-path="url(#a)">
<use x="228.168926" y="992.727273" fill="#ffffff" stroke="#ffffff" xlink:href="#b"/>
</g>
<g clip-path="url(#a)">
<use x="254.521449" y="992.727273" fill="#ffffff" stroke="#ffffff" xlink:href="#b"/>
</g>
<g clip-path="url(#a)">
<use x="283.070016" y="992.727273" fill="#ffffff" stroke="#ffffff" xlink:href="#b"/>
</g>
<g clip-path="url(#a)">
<use x="313.814625" y="992.727273" fill="#ffffff" stroke="#ffffff" xlink:href="#b"/>
</g>
<g clip-path="url(#a)">
<use x="346.755279" y="992.727273" fill="#ffffff" stroke="#ffffff" xlink:href="#b"/>
</g>
<g clip-path="url(#a)">
<use x="381.891976" y="992.727273" fill="#ffffff" stroke="#ffffff" xlink:href="#b"/>
</g>
<g clip-path="url(#a)">
<use x="419.224717" y="992.727273" fill="#ffffff" stroke="#ffffff" xlink:href="#b"/>
</g>
<g clip-path="url(#a)">
<use x="458.753501" y="992.727273" fill="#ffffff" stroke="#ffffff" xlink:href="#b"/>
</g>
<g clip-path="url(#a)">
<use x="500.478329" y="992.727273" fill="#ffffff" stroke="#ffffff" xlink:href="#b"/>
</g>
<g clip-path="url(#a)">
<use x="544.3992" y="992.727273" fill="#ffffff" stroke="#ffffff" xlink:href="#b"/>
</g>
<g clip-path="url(#a)">
<use x="590.516115" y="992.727273" fill="#ffffff" stroke="#ffffff" xlink:href="#b"/>
</g>
<g clip-path="url(#a)">
<use x="638.829073" y="992.727273" fill="#ffffff" stroke="#ffffff" xlink:href="#b"/>
</g>
<g clip-path="url(#a)">
<use x="689.338075" y="992.727273" fill="#ffffff" stroke="#ffffff" xlink:href="#b"/>
</g>
<g clip-path="url(#a)">
<use x="742.043121" y="992.727273" fill="#ffffff" stroke="#ffffff" xlink:href="#b"/>
</g>
<g clip-path="url(#a)">
<use x="796.94421" y="992.727273" fill="#ffffff" stroke="#ffffff" xlink:href="#b"/>
</g>
<g clip-path="url(#a)">
<use x="854.041343" y="992.727273" fill="#ffffff" stroke="#ffffff" xlink:href="#b"/>
</g>
<g clip-path="url(#a)">
<use x="913.334519" y="992.727273" fill="#ffffff" stroke="#ffffff" xlink:href="#b"/>
</g>
<g clip-path="url(#a)">
<use x="974.823739" y="992.727273" fill="#ffffff" stroke="#ffffff" xlink:href="#b"/>
</g>
<g clip-path="url(#a)">
<use x="1038.509002" y="992.727273" fill="#ffffff" stroke="#ffffff" xlink:href="#b"/>
</g>
<g clip-path="url(#a)">
<use x="1104.390309" y="992.727273" fill="#ffffff" stroke="#ffffff" xlink:href="#b"/>
</g>
<g clip-path="url(#a)">
<use x="1172.467659" y="992.727273" fill="#ffffff" stroke="#ffffff" xlink:href="#b"/>
</g>
<g clip-path="url(#a)">
<use x="1242.741054" y="992.727273" fill="#ffffff" stroke="#ffffff" xlink:href="#b"/>
</g>
<g clip-path="url(#a)">
<use x="1315.210491" y="992.727273" fill="#ffffff" stroke="#ffffff" xlink:href="#b"/>
</g>
<g clip-path="url(#a)">
<use x="1389.875972" y="992.727273" fill="#ffffff" stroke="#ffffff" xlink:href="#b"/>
</g>
<g clip-path="url(#a)">
<use x="1466.737497" y="992.727273" fill="#ffffff" stroke="#ffffff" xlink:href="#b"/>
</g>
<g clip-path="url(#a)">
<use x="1545.795066" y="992.727273" fill="#ffffff" stroke="#ffffff" xlink:href="#b"/>
</g>
<g clip-path="url(#a)">
<use x="1627.048677" y="992.727273" fill="#ffffff" stroke="#ffffff" xlink:href="#b"/>
</g>
<g clip-path="url(#a)">
<use x="1710.498333" y="992.727273" fill="#ffffff" stroke="#ffffff" xlink:href="#b"/>
</g>
<g clip-path="url(#a)">
<use x="1796.144032" y="992.727273" fill="#ffffff" stroke="#ffffff" xlink:href="#b"/>
</g>
<g clip-path="url(#a)">
<use x="1883.985775" y="992.727273" fill="#ffffff" stroke="#ffffff" xlink:href="#b"/>
</g>
<g clip-path="url(#a)">
<use x="1886.181818" y="681.019102" fill="#ffffff" stroke="#ffffff" xlink:href="#b"/>
</g>
<g clip-path="url(#a)">
<use x="827.491455" y="47.272727" fill="#ffffff" stroke="#ffffff" xlink:href="#b"/>
</g>
<g clip-path="url(#a)">
<use x="120.11672" y="364.974727" fill="#ffffff" stroke="#ffffff" xlink:href="#b"/>
</g>
<g clip-path="url(#a)">
<use x="500.655232" y="206.283649" fill="#ffffff" stroke="#ffffff" xlink:href="#b"/>
</g>
<g clip-path="url(#a)">
<use x="1334.425872" y="523.265366" fill="#ffffff" stroke="#ffffff" xlink:href="#b"/>
</g>
<g clip-path="url(#a)">
<use x="1609.114322" y="523.265366" fill="#ffffff" stroke="#ffffff" xlink:href="#b"/>
</g>
<g clip-path="url(#a)">
<use x="1466.737497" y="837.94975" fill="#ffffff" stroke="#ffffff" xlink:href="#b"/>
</g>
<g clip-path="url(#a)">
<use x="1545.795066" y="837.94975" fill="#ffffff" stroke="#ffffff" xlink:href="#b"/>
</g>
<g clip-path="url(#a)">
<use x="1627.048677" y="837.94975" fill="#ffffff" stroke="#ffffff" xlink:href="#b"/>
</g>
<g clip-path="url(#a)">
<use x="1796.876047" y="681.019102" fill="#ffffff" stroke="#ffffff" xlink:href="#b"/>
</g>
<g clip-path="url(#a)">
<use x="1710.498333" y="837.94975" fill="#ffffff" stroke="#ffffff" xlink:href="#b"/>
</g>
<g clip-path="url(#a)">
<use x="1796.144032" y="837.94975" fill="#ffffff" stroke="#ffffff" xlink:href="#b"/>
</g>
<g clip-path="url(#a)">
<use x="1278.975772" y="681.019102" fill="#ffffff" stroke="#ffffff" xlink:href="#b"/>
</g>
<g clip-path="url(#a)">
<use x="1389.875972" y="837.94975" fill="#ffffff" stroke="#ffffff" xlink:href="#b"/>
</g>
<g clip-path="url(#a)">
<use x="1242.741054" y="837.94975" fill="#ffffff" stroke="#ffffff" xlink:href="#b"/>
</g>
<g clip-path="url(#a)">
<use x="1315.210491" y="837.94975" fill="#ffffff" stroke="#ffffff" xlink:href="#b"/>
</g>
<g clip-path="url(#a)">
<use x="359.053123" y="364.974727" fill="#ffffff" stroke="#ffffff" xlink:href="#b"/>
</g>
<g clip-path="url(#a)">
<use x="458.753501" y="837.94975" fill="#ffffff" stroke="#ffffff" xlink:href="#b"/>
</g>
<g clip-path="url(#a)">
<use x="500.478329" y="837.94975" fill="#ffffff" stroke="#ffffff" xlink:href="#b"/>
</g>
<g clip-path="url(#a)">
<use x="684.335976" y="364.974727" fill="#ffffff" stroke="#ffffff" xlink:href="#b"/>
</g>
<g clip-path="url(#a)">
<use x="544.3992" y="837.94975" fill="#ffffff" stroke="#ffffff" xlink:href="#b"/>
</g>
<g clip-path="url(#a)">
<use x="590.516115" y="837.94975" fill="#ffffff" stroke="#ffffff" xlink:href="#b"/>
</g>
<g clip-path="url(#a)">
<use x="638.829073" y="837.94975" fill="#ffffff" stroke="#ffffff" xlink:href="#b"/>
</g>
<g clip-path="url(#a)">
<use x="689.338075" y="837.94975" fill="#ffffff" stroke="#ffffff" xlink:href="#b"/>
</g>
<g clip-path="url(#a)">
<use x="742.043121" y="837.94975" fill="#ffffff" stroke="#ffffff" xlink:href="#b"/>
</g>
<g clip-path="url(#a)">
<use x="900.890272" y="523.265366" fill="#ffffff" stroke="#ffffff" xlink:href="#b"/>
</g>
<g clip-path="url(#a)">
<use x="796.94421" y="837.94975" fill="#ffffff" stroke="#ffffff" xlink:href="#b"/>
</g>
<g clip-path="url(#a)">
<use x="854.041343" y="837.94975" fill="#ffffff" stroke="#ffffff" xlink:href="#b"/>
</g>
<g clip-path="url(#a)">
<use x="913.334519" y="837.94975" fill="#ffffff" stroke="#ffffff" xlink:href="#b"/>
</g>
<g clip-path="url(#a)">
<use x="1039.241017" y="681.019102" fill="#ffffff" stroke="#ffffff" xlink:href="#b"/>
</g>
<g clip-path="url(#a)">
<use x="974.823739" y="837.94975" fill="#ffffff" stroke="#ffffff" xlink:href="#b"/>
</g>
<g clip-path="url(#a)">
<use x="1038.509002" y="837.94975" fill="#ffffff" stroke="#ffffff" xlink:href="#b"/>
</g>
<g clip-path="url(#a)">
<use x="1104.390309" y="837.94975" fill="#ffffff" stroke="#ffffff" xlink:href="#b"/>
</g>
<g clip-path="url(#a)">
<use x="254.521449" y="837.94975" fill="#ffffff" stroke="#ffffff" xlink:href="#b"/>
</g>
<g clip-path="url(#a)">
<use x="298.442321" y="681.019102" fill="#ffffff" stroke="#ffffff" xlink:href="#b"/>
</g>
<g clip-path="url(#a)">
<use x="364.323627" y="523.265366" fill="#ffffff" stroke="#ffffff" xlink:href="#b"/>
</g>
<g clip-path="url(#a)">
<use x="346.755279" y="837.94975" fill="#ffffff" stroke="#ffffff" xlink:href="#b"/>
</g>
<g clip-path="url(#a)">
<use x="381.891976" y="681.019102" fill="#ffffff" stroke="#ffffff" xlink:href="#b"/>
</g>
<g clip-path="url(#a)">
<use x="381.891976" y="837.94975" fill="#ffffff" stroke="#ffffff" xlink:href="#b"/>
</g>
<g clip-path="url(#a)">
<use x="283.070016" y="837.94975" fill="#ffffff" stroke="#ffffff" xlink:href="#b"/>
</g>
<g clip-path="url(#a)">
<use x="313.814625" y="837.94975" fill="#ffffff" stroke="#ffffff" xlink:href="#b"/>
</g>
<g clip-path="url(#a)">
<use x="93.112247" y="837.94975" fill="#ffffff" stroke="#ffffff" xlink:href="#b"/>
</g>
<g clip-path="url(#a)">
<use x="105.190487" y="837.94975" fill="#ffffff" stroke="#ffffff" xlink:href="#b"/>
</g>
<g clip-path="url(#a)">
<use x="122.758835" y="837.94975" fill="#ffffff" stroke="#ffffff" xlink:href="#b"/>
</g>
<g clip-path="url(#a)">
<use x="159.405312" y="523.265366" fill="#ffffff" stroke="#ffffff" xlink:href="#b"/>
</g>
<g clip-path="url(#a)">
<use x="144.719271" y="837.94975" fill="#ffffff" stroke="#ffffff" xlink:href="#b"/>
</g>
<g clip-path="url(#a)">
<use x="162.287619" y="837.94975" fill="#ffffff" stroke="#ffffff" xlink:href="#b"/>
</g>
<g clip-path="url(#a)">
<use x="182.052012" y="837.94975" fill="#ffffff" stroke="#ffffff" xlink:href="#b"/>
</g>
<g clip-path="url(#a)">
<use x="148.562347" y="681.019102" fill="#ffffff" stroke="#ffffff" xlink:href="#b"/>
</g>
<g clip-path="url(#a)">
<use x="204.012447" y="837.94975" fill="#ffffff" stroke="#ffffff" xlink:href="#b"/>
</g>
<g clip-path="url(#a)">
<use x="1148.065142" y="47.272727" fill="#808080" stroke="#808080" xlink:href="#b"/>
</g>
<g clip-path="url(#a)">
<use x="228.168926" y="837.94975" fill="#ffffff" stroke="#ffffff" xlink:href="#b"/>
</g>
<g clip-path="url(#a)">
<use x="419.224717" y="837.94975" fill="#ffffff" stroke="#ffffff" xlink:href="#b"/>
</g>
<g clip-path="url(#a)">
<use x="1172.467659" y="837.94975" fill="#ffffff" stroke="#ffffff" xlink:href="#b"/>
</g>
<g clip-path="url(#a)">
<use x="1883.985775" y="837.94975" fill="#ffffff" stroke="#ffffff" xlink:href="#b"/>
</g>
<g clip-path="url(#a)">
<defs>
<path id="at" d="m9.8125 72.906h13.281l32.328-60.984v60.984h9.5625v-72.906h-13.281l-32.312 60.984v-60.984h-9.5781z"/>
<path id="aa" d="m45.406 46.391v29.594h8.9844v-75.984h-8.9844v8.2031q-2.8281-4.875-7.1562-7.25-4.3125-2.375-10.375-2.375-9.9062 0-16.141 7.9062-6.2188 7.9219-6.2188 20.812t6.2188 20.797q6.2344 7.9062 16.141 7.9062 6.0625 0 10.375-2.375 4.3281-2.3594 7.1562-7.2344zm-30.609-19.094q0-9.9062 4.0781-15.547t11.203-5.6406 11.219 5.6406q4.1094 5.6406 4.1094 15.547t-4.1094 15.547q-4.0938 5.6406-11.219 5.6406t-11.203-5.6406-4.0781-15.547z"/>
</defs>
<g transform="translate(79.827 995.49) scale(.1 -.1)">
<use xlink:href="#at"/>
<use x="74.804688" xlink:href="#d"/>
<use x="136.328125" xlink:href="#aa"/>
</g>
</g>
<g clip-path="url(#a)">
<g transform="translate(84.213 995.49) scale(.1 -.1)">
<use xlink:href="#z"/>
<use x="55.712891" xlink:href="#f"/>
<use x="116.992188" xlink:href="#g"/>
<use x="180.371094" xlink:href="#aa"/>
</g>
</g>
<g clip-path="url(#a)">
<defs>
<path id="s" d="m44.281 53.078v-8.5q-3.7969 1.9531-7.9062 2.9219-4.0938 0.98438-8.5 0.98438-6.6875 0-10.031-2.0469t-3.3438-6.1562q0-3.125 2.3906-4.9062t9.625-3.3906l3.0781-0.6875q9.5625-2.0469 13.594-5.7812t4.0312-10.422q0-7.625-6.0312-12.078-6.0312-4.4375-16.578-4.4375-4.3906 0-9.1562 0.85938t-10.031 2.5625v9.2812q4.9844-2.5938 9.8125-3.8906 4.8281-1.2812 9.5781-1.2812 6.3438 0 9.75 2.1719 3.4219 2.1719 3.4219 6.125 0 3.6562-2.4688 5.6094-2.4531 1.9531-10.812 3.7656l-3.125 0.73438q-8.3438 1.75-12.062 5.3906-3.7031 3.6406-3.7031 9.9844 0 7.7188 5.4688 11.906 5.4688 4.2031 15.531 4.2031 4.9688 0 9.3594-0.73438 4.4062-0.71875 8.1094-2.1875z"/>
<path id="p" d="m18.312 70.219v-15.531h18.5v-6.9844h-18.5v-29.688q0-6.6875 1.8281-8.5938t7.4531-1.9062h9.2188v-7.5156h-9.2188q-10.406 0-14.359 3.875-3.9531 3.8906-3.9531 14.141v29.688h-6.5938v6.9844h6.5938v15.531z"/>
</defs>
<g transform="translate(96.458 995.49) scale(.1 -.1)">
<use xlink:href="#s"/>
<use x="52.099609" xlink:href="#p"/>
<use x="91.308594" xlink:href="#i"/>
<use x="119.091797" xlink:href="#h"/>
<use x="146.875" xlink:href="#h"/>
</g>
</g>
<g clip-path="url(#a)">
<defs>
<path id="ao" d="m9.0781 75.984h9.0312v-44.875l26.812 23.578h11.469l-29-25.578 30.234-29.109h-11.719l-27.797 26.703v-26.703h-9.0312z"/>
<path id="ag" d="m18.109 8.2031v-29h-9.0312v75.484h9.0312v-8.2969q2.8438 4.875 7.1562 7.2344 4.3281 2.375 10.328 2.375 9.9688 0 16.188-7.9062 6.2344-7.9062 6.2344-20.797t-6.2344-20.812q-6.2188-7.9062-16.188-7.9062-6 0-10.328 2.375-4.3125 2.375-7.1562 7.25zm30.578 19.094q0 9.9062-4.0781 15.547t-11.203 5.6406q-7.1406 0-11.219-5.6406t-4.0781-15.547 4.0781-15.547 11.219-5.6406q7.125 0 11.203 5.6406t4.0781 15.547z"/>
</defs>
<g transform="translate(105.25 995.49) scale(.1 -.1)">
<use xlink:href="#ao"/>
<use x="54.285156" xlink:href="#d"/>
<use x="115.808594" xlink:href="#ag"/>
<use x="179.285156" xlink:href="#p"/>
</g>
</g>
<g clip-path="url(#a)">
<defs>
<path id="an" d="m8.5 21.578v33.109h8.9844v-32.766q0-7.7656 3.0156-11.656 3.0312-3.875 9.0938-3.875 7.2656 0 11.484 4.6406 4.2344 4.6406 4.2344 12.656v31h8.9844v-54.688h-8.9844v8.4062q-3.2656-4.9844-7.5938-7.4062-4.3125-2.4219-10.031-2.4219-9.4219 0-14.312 5.8594-4.875 5.8594-4.875 17.141z"/>
</defs>
<g transform="translate(123 995.49) scale(.1 -.1)">
<use xlink:href="#an"/>
<use x="63.378906" xlink:href="#ag"/>
</g>
</g>
<g clip-path="url(#a)">
<defs>
<path id="t" d="m54.891 33.016v-33.016h-8.9844v32.719q0 7.7656-3.0312 11.609-3.0312 3.8594-9.0781 3.8594-7.2812 0-11.484-4.6406-4.2031-4.625-4.2031-12.641v-30.906h-9.0312v75.984h9.0312v-29.797q3.2344 4.9375 7.5938 7.375 4.375 2.4375 10.094 2.4375 9.4219 0 14.25-5.8281 4.8438-5.8281 4.8438-17.156z"/>
</defs>
<g transform="translate(136.51 995.49) scale(.1 -.1)">
<use xlink:href="#p"/>
<use x="39.208984" xlink:href="#t"/>
<use x="102.587891" xlink:href="#d"/>
</g>
</g>
<g clip-path="url(#a)">
<defs>
<path id="y" d="m30.609 48.391q-7.2188 0-11.422-5.6406t-4.2031-15.453 4.1719-15.453q4.1875-5.6406 11.453-5.6406 7.1875 0 11.375 5.6562 4.2031 5.6719 4.2031 15.438 0 9.7188-4.2031 15.406-4.1875 5.6875-11.375 5.6875zm0 7.6094q11.719 0 18.406-7.625 6.7031-7.6094 6.7031-21.078 0-13.422-6.7031-21.078-6.6875-7.6406-18.406-7.6406-11.766 0-18.438 7.6406-6.6562 7.6562-6.6562 21.078 0 13.469 6.6562 21.078 6.6719 7.625 18.438 7.625z"/>
</defs>
<g transform="translate(149.79 995.49) scale(.1 -.1)">
<use xlink:href="#l"/>
<use x="97.412109" xlink:href="#y"/>
<use x="158.59375" xlink:href="#s"/>
<use x="210.693359" xlink:href="#p"/>
</g>
</g>
<g clip-path="url(#a)">
<defs>
<path id="ah" d="m48.781 52.594v-8.4062q-3.8125 2.1094-7.6406 3.1562t-7.7344 1.0469q-8.75 0-13.594-5.5469-4.8281-5.5312-4.8281-15.547t4.8281-15.562q4.8438-5.5312 13.594-5.5312 3.9062 0 7.7344 1.0469t7.6406 3.1562v-8.3125q-3.7656-1.75-7.7969-2.625-4.0156-0.89062-8.5625-0.89062-12.359 0-19.641 7.7656-7.2656 7.7656-7.2656 20.953 0 13.375 7.3438 21.031 7.3594 7.6719 20.156 7.6719 4.1406 0 8.0938-0.85938 3.9531-0.84375 7.6719-2.5469z"/>
</defs>
<g transform="translate(157.81 995.49) scale(.1 -.1)">
<use xlink:href="#p"/>
<use x="39.208984" xlink:href="#d"/>
<use x="100.732422" xlink:href="#g"/>
<use x="164.111328" xlink:href="#f"/>
<use x="225.390625" xlink:href="#ah"/>
<use x="280.371094" xlink:href="#i"/>
<use x="308.154297" xlink:href="#y"/>
<use x="369.335938" xlink:href="#an"/>
<use x="432.714844" xlink:href="#s"/>
</g>
</g>
<g clip-path="url(#a)">
<g transform="translate(177.48 995.49) scale(.1 -.1)">
<use xlink:href="#s"/>
<use x="52.099609" xlink:href="#ao"/>
<use x="106.384766" xlink:href="#d"/>
<use x="167.908203" xlink:href="#ag"/>
<use x="231.384766" xlink:href="#p"/>
<use x="270.59375" xlink:href="#i"/>
<use x="298.376953" xlink:href="#ah"/>
<use x="353.357422" xlink:href="#i"/>
<use x="381.140625" xlink:href="#s"/>
<use x="433.240234" xlink:href="#l"/>
</g>
</g>
<g clip-path="url(#a)">
<defs>
<path id="ax" d="m11.719 51.703h10.297v-12.391h-10.297zm0-39.297h10.297v-8.4062l-8-15.625h-6.2969l4 15.625z"/>
</defs>
<g transform="translate(226.48 995.49) scale(.1 -.1)">
<use xlink:href="#ax"/>
</g>
</g>
<g clip-path="url(#a)">
<defs>
<path id="as" d="m48.688 27.297q0 9.9062-4.0781 15.547t-11.203 5.6406q-7.1406 0-11.219-5.6406t-4.0781-15.547 4.0781-15.547 11.219-5.6406q7.125 0 11.203 5.6406t4.0781 15.547zm-30.578 19.094q2.8438 4.875 7.1562 7.2344 4.3281 2.375 10.328 2.375 9.9688 0 16.188-7.9062 6.2344-7.9062 6.2344-20.797t-6.2344-20.812q-6.2188-7.9062-16.188-7.9062-6 0-10.328 2.375-4.3125 2.375-7.1562 7.25v-8.2031h-9.0312v75.984h9.0312z"/>
<path id="ay" d="m32.172-5.0781q-3.7969-9.7656-7.4219-12.734-3.6094-2.9844-9.6562-2.9844h-7.1875v7.5156h5.2812q3.7031 0 5.75 1.7656 2.0625 1.75 4.5469 8.2969l1.6094 4.0938-22.109 53.812h9.5156l17.094-42.766 17.094 42.766h9.5156z"/>
</defs>
<g transform="translate(235.91 995.49) scale(.1 -.1)">
<use xlink:href="#as"/>
<use x="63.476562" xlink:href="#d"/>
<use x="125" xlink:href="#ay"/>
<use x="184.179688" xlink:href="#y"/>
<use x="245.361328" xlink:href="#g"/>
<use x="308.740234" xlink:href="#aa"/>
</g>
</g>
<g clip-path="url(#a)">
<g transform="translate(275.91 995.49) scale(.1 -.1)">
<use xlink:href="#t"/>
<use x="63.378906" xlink:href="#i"/>
<use x="91.162109" xlink:href="#s"/>
</g>
</g>
<g clip-path="url(#a)">
<g transform="translate(299.58 995.49) scale(.1 -.1)">
<use xlink:href="#s"/>
<use x="52.099609" xlink:href="#ag"/>
<use x="115.576172" xlink:href="#d"/>
<use x="177.099609" xlink:href="#h"/>
<use x="204.882812" xlink:href="#h"/>
<use x="232.666016" xlink:href="#s"/>
</g>
</g>
<g clip-path="url(#a)">
<g transform="translate(340.53 995.49) scale(.1 -.1)">
<use xlink:href="#y"/>
<use x="61.181641" xlink:href="#g"/>
</g>
</g>
<g clip-path="url(#a)">
<defs>
<path id="af" d="m4.2031 54.688h8.9844l11.234-42.672 11.172 42.672h10.594l11.234-42.672 11.188 42.672h8.9844l-14.312-54.688h-10.594l-11.766 44.828-11.812-44.828h-10.609z"/>
</defs>
<g transform="translate(366.86 995.49) scale(.1 -.1)">
<use xlink:href="#af"/>
<use x="81.787109" xlink:href="#f"/>
<use x="143.066406" xlink:href="#p"/>
<use x="182.275391" xlink:href="#ah"/>
<use x="237.255859" xlink:href="#t"/>
</g>
</g>
<g clip-path="url(#a)">
<defs>
<path id="aq" d="m11.719 12.406h10.297v-8.4062l-8-15.625h-6.2969l4 15.625z"/>
</defs>
<g transform="translate(417.64 995.49) scale(.1 -.1)">
<use xlink:href="#aq"/>
</g>
</g>
<g clip-path="url(#a)">
<g transform="translate(452.51 995.49) scale(.1 -.1)">
<use xlink:href="#t"/>
<use x="63.378906" xlink:href="#d"/>
</g>
</g>
<g clip-path="url(#a)">
<g transform="translate(474.65 995.49) scale(.1 -.1)">
<use xlink:href="#ag"/>
<use x="63.476562" xlink:href="#j"/>
<use x="102.339844" xlink:href="#d"/>
<use x="163.863281" xlink:href="#p"/>
<use x="203.072266" xlink:href="#d"/>
<use x="264.595703" xlink:href="#g"/>
<use x="327.974609" xlink:href="#aa"/>
<use x="391.451172" xlink:href="#d"/>
<use x="452.974609" xlink:href="#aa"/>
</g>
</g>
<g clip-path="url(#a)">
<g transform="translate(534.25 995.49) scale(.1 -.1)">
<use xlink:href="#p"/>
<use x="39.208984" xlink:href="#t"/>
<use x="102.587891" xlink:href="#f"/>
<use x="163.867188" xlink:href="#p"/>
</g>
</g>
<g clip-path="url(#a)">
<g transform="translate(584.27 995.49) scale(.1 -.1)">
<use xlink:href="#t"/>
<use x="63.378906" xlink:href="#d"/>
</g>
</g>
<g clip-path="url(#a)">
<defs>
<path id="am" d="m2.9844 54.688h9.5156l17.094-45.891 17.094 45.891h9.5156l-20.516-54.688h-12.203z"/>
</defs>
<g transform="translate(624.49 995.49) scale(.1 -.1)">
<use xlink:href="#g"/>
<use x="63.378906" xlink:href="#d"/>
<use x="124.902344" xlink:href="#am"/>
<use x="184.082031" xlink:href="#d"/>
<use x="245.605469" xlink:href="#j"/>
</g>
</g>
<g clip-path="url(#a)">
<g transform="translate(677.06 995.49) scale(.1 -.1)">
<use xlink:href="#d"/>
<use x="61.523438" xlink:href="#am"/>
<use x="120.703125" xlink:href="#d"/>
<use x="182.226562" xlink:href="#g"/>
</g>
</g>
<g clip-path="url(#a)">
<g transform="translate(725.57 995.49) scale(.1 -.1)">
<use xlink:href="#h"/>
<use x="27.783203" xlink:href="#y"/>
<use x="88.964844" xlink:href="#y"/>
<use x="150.146484" xlink:href="#ao"/>
<use x="204.431641" xlink:href="#d"/>
<use x="265.955078" xlink:href="#aa"/>
</g>
</g>
<g clip-path="url(#a)">
<g transform="translate(791.92 995.49) scale(.1 -.1)">
<use xlink:href="#f"/>
<use x="61.279297" xlink:href="#p"/>
</g>
</g>
<g clip-path="url(#a)">
<g transform="translate(845.84 995.49) scale(.1 -.1)">
<use xlink:href="#p"/>
<use x="39.208984" xlink:href="#t"/>
<use x="102.587891" xlink:href="#d"/>
</g>
</g>
<g clip-path="url(#a)">
<defs>
<path id="ar" d="m37.109 75.984v-7.4844h-8.5938q-4.8281 0-6.7188-1.9531-1.875-1.9531-1.875-7.0312v-4.8281h14.797v-6.9844h-14.797v-47.703h-9.0312v47.703h-8.5938v6.9844h8.5938v3.8125q0 9.125 4.25 13.297 4.25 4.1875 13.469 4.1875z"/>
</defs>
<g transform="translate(894.86 995.49) scale(.1 -.1)">
<use xlink:href="#s"/>
<use x="52.099609" xlink:href="#an"/>
<use x="115.478516" xlink:href="#j"/>
<use x="156.591797" xlink:href="#ar"/>
<use x="191.796875" xlink:href="#f"/>
<use x="253.076172" xlink:href="#ah"/>
<use x="308.056641" xlink:href="#d"/>
</g>
</g>
<g clip-path="url(#a)">
<g transform="translate(970 995.49) scale(.1 -.1)">
<use xlink:href="#y"/>
<use x="61.181641" xlink:href="#ar"/>
</g>
</g>
<g clip-path="url(#a)">
<g transform="translate(1030.3 995.49) scale(.1 -.1)">
<use xlink:href="#p"/>
<use x="39.208984" xlink:href="#t"/>
<use x="102.587891" xlink:href="#d"/>
</g>
</g>
<g clip-path="url(#a)">
<g transform="translate(1088.6 995.49) scale(.1 -.1)">
<use xlink:href="#af"/>
<use x="81.787109" xlink:href="#f"/>
<use x="143.066406" xlink:href="#am"/>
<use x="202.246094" xlink:href="#d"/>
<use x="263.769531" xlink:href="#s"/>
</g>
</g>
<g clip-path="url(#a)">
<g transform="translate(1170.9 995.49) scale(.1 -.1)">
<use xlink:href="#aq"/>
</g>
</g>
<g clip-path="url(#a)">
<g transform="translate(1237.7 995.49) scale(.1 -.1)">
<use xlink:href="#f"/>
<use x="61.279297" xlink:href="#p"/>
</g>
</g>
<g clip-path="url(#a)">
<g transform="translate(1303.1 995.49) scale(.1 -.1)">
<use xlink:href="#h"/>
<use x="27.783203" xlink:href="#d"/>
<use x="89.306641" xlink:href="#f"/>
<use x="150.585938" xlink:href="#s"/>
<use x="202.685547" xlink:href="#p"/>
</g>
</g>
<g clip-path="url(#a)">
<g transform="translate(1376.8 995.49) scale(.1 -.1)">
<use xlink:href="#af"/>
<use x="81.787109" xlink:href="#t"/>
<use x="145.166016" xlink:href="#i"/>
<use x="172.949219" xlink:href="#h"/>
<use x="200.732422" xlink:href="#d"/>
</g>
</g>
<g clip-path="url(#a)">
<g transform="translate(1460.5 995.49) scale(.1 -.1)">
<use xlink:href="#g"/>
<use x="63.378906" xlink:href="#y"/>
</g>
</g>
<g clip-path="url(#a)">
<g transform="translate(1528.4 995.49) scale(.1 -.1)">
<use xlink:href="#af"/>
<use x="81.787109" xlink:href="#t"/>
<use x="145.166016" xlink:href="#f"/>
<use x="206.445312" xlink:href="#h"/>
<use x="234.228516" xlink:href="#d"/>
<use x="295.751953" xlink:href="#s"/>
</g>
</g>
<g clip-path="url(#a)">
<g transform="translate(1614.9 995.49) scale(.1 -.1)">
<use xlink:href="#af"/>
<use x="81.787109" xlink:href="#d"/>
<use x="143.310547" xlink:href="#j"/>
<use x="182.173828" xlink:href="#d"/>
</g>
</g>
<g clip-path="url(#a)">
<g transform="translate(1705.9 995.49) scale(.1 -.1)">
<use xlink:href="#i"/>
<use x="27.783203" xlink:href="#g"/>
</g>
</g>
<g clip-path="url(#a)">
<defs>
<path id="az" d="m45.406 27.984q0 9.7656-4.0312 15.125-4.0156 5.375-11.297 5.375-7.2188 0-11.25-5.375-4.0312-5.3594-4.0312-15.125 0-9.7188 4.0312-15.094t11.25-5.375q7.2812 0 11.297 5.375 4.0312 5.375 4.0312 15.094zm8.9844-21.203q0-13.953-6.2031-20.766-6.1875-6.8125-18.984-6.8125-4.7344 0-8.9375 0.70312t-8.1562 2.1719v8.7344q3.9531-2.1406 7.8125-3.1562 3.8594-1.0312 7.8594-1.0312 8.8438 0 13.234 4.6094t4.3906 13.938v4.4531q-2.7812-4.8438-7.125-7.2344t-10.406-2.3906q-10.047 0-16.203 7.6562-6.1562 7.6719-6.1562 20.328 0 12.688 6.1562 20.344 6.1562 7.6719 16.203 7.6719 6.0625 0 10.406-2.3906t7.125-7.2188v8.2969h8.9844z"/>
</defs>
<g transform="translate(1783.8 995.49) scale(.1 -.1)">
<use xlink:href="#s"/>
<use x="52.099609" xlink:href="#i"/>
<use x="79.882812" xlink:href="#az"/>
<use x="143.359375" xlink:href="#t"/>
<use x="206.738281" xlink:href="#p"/>
</g>
</g>
<g clip-path="url(#a)">
<defs>
<path id="e" d="m10.688 12.406h10.312v-12.406h-10.312z"/>
</defs>
<g transform="translate(1882.4 995.49) scale(.1 -.1)">
<use xlink:href="#e"/>
</g>
</g>
<g clip-path="url(#a)">
<defs>
<path id="ak" d="m9.8125 72.906h9.8594v-72.906h-9.8594z"/>
<path id="au" d="m9.8125 72.906h14.703l18.594-49.609 18.703 49.609h14.703v-72.906h-9.625v64.016l-18.797-50h-9.9062l-18.797 50v-64.016h-9.5781z"/>
</defs>
<g transform="translate(1865.1 683.78) scale(.1 -.1)">
<use xlink:href="#ak"/>
<use x="29.492188" xlink:href="#au"/>
<use x="115.771484" xlink:href="#w"/>
<use x="176.074219" xlink:href="#z"/>
<use x="231.787109" xlink:href="#ak"/>
<use x="261.279297" xlink:href="#u"/>
<use x="331.103516" xlink:href="#ak"/>
<use x="360.595703" xlink:href="#k"/>
</g>
</g>
<g clip-path="url(#a)">
<defs>
<path id="c" d="m12.406 8.2969h16.109v55.625l-17.531-3.5156v8.9844l17.438 3.5156h9.8594v-64.609h16.109v-8.2969h-41.984z"/>
</defs>
<g transform="translate(819.54 50.032) scale(.1 -.1)">
<use xlink:href="#c"/>
<use x="63.623047" xlink:href="#e"/>
<use x="95.410156" xlink:href="#c"/>
</g>
</g>
<g clip-path="url(#a)">
<defs>
<path id="o" d="m19.188 8.2969h34.422v-8.2969h-46.281v8.2969q5.6094 5.8125 15.297 15.594 9.7031 9.7969 12.188 12.641 4.7344 5.3125 6.6094 9 1.8906 3.6875 1.8906 7.25 0 5.8125-4.0781 9.4688-4.0781 3.6719-10.625 3.6719-4.6406 0-9.7969-1.6094-5.1406-1.6094-11-4.8906v9.9688q5.9531 2.3906 11.125 3.6094 5.1875 1.2188 9.4844 1.2188 11.328 0 18.062-5.6719 6.7344-5.6562 6.7344-15.125 0-4.5-1.6875-8.5312-1.6719-4.0156-6.125-9.4844-1.2188-1.4219-7.7656-8.1875-6.5312-6.7656-18.453-18.922z"/>
</defs>
<g transform="translate(112.17 367.73) scale(.1 -.1)">
<use xlink:href="#c"/>
<use x="63.623047" xlink:href="#e"/>
<use x="95.410156" xlink:href="#o"/>
</g>
</g>
<g clip-path="url(#a)">
<defs>
<path id="n" d="m40.578 39.312q7.0781-1.5156 11.047-6.3125 3.9844-4.7812 3.9844-11.812 0-10.781-7.4219-16.703-7.4219-5.9062-21.094-5.9062-4.5781 0-9.4375 0.90625t-10.031 2.7188v9.5156q4.0938-2.3906 8.9688-3.6094 4.8906-1.2188 10.219-1.2188 9.2656 0 14.125 3.6562t4.8594 10.641q0 6.4531-4.5156 10.078-4.5156 3.6406-12.562 3.6406h-8.5v8.1094h8.8906q7.2656 0 11.125 2.9062t3.8594 8.375q0 5.6094-3.9844 8.6094-3.9688 3.0156-11.391 3.0156-4.0625 0-8.7031-0.89062-4.6406-0.875-10.203-2.7188v8.7812q5.625 1.5625 10.531 2.3438t9.25 0.78125q11.234 0 17.766-5.1094 6.5469-5.0938 6.5469-13.781 0-6.0625-3.4688-10.234t-9.8594-5.7812z"/>
</defs>
<g transform="translate(492.7 209.04) scale(.1 -.1)">
<use xlink:href="#c"/>
<use x="63.623047" xlink:href="#e"/>
<use x="95.410156" xlink:href="#n"/>
</g>
</g>
<g clip-path="url(#a)">
<defs>
<path id="q" d="m37.797 64.312-24.906-38.922h24.906zm-2.5938 8.5938h12.406v-47.516h10.406v-8.2031h-10.406v-17.188h-9.8125v17.188h-32.906v9.5156z"/>
</defs>
<g transform="translate(1326.5 526.02) scale(.1 -.1)">
<use xlink:href="#c"/>
<use x="63.623047" xlink:href="#e"/>
<use x="95.410156" xlink:href="#q"/>
</g>
</g>
<g clip-path="url(#a)">
<defs>
<path id="m" d="m10.797 72.906h38.719v-8.3125h-29.688v-17.859q2.1406 0.73438 4.2812 1.0938 2.1562 0.35938 4.3125 0.35938 12.203 0 19.328-6.6875 7.1406-6.6875 7.1406-18.109 0-11.766-7.3281-18.297-7.3281-6.5156-20.656-6.5156-4.5938 0-9.3594 0.78125-4.75 0.78125-9.8281 2.3438v9.9219q4.3906-2.3906 9.0781-3.5625t9.9062-1.1719q8.4531 0 13.375 4.4375 4.9375 4.4375 4.9375 12.062 0 7.6094-4.9375 12.047-4.9219 4.4531-13.375 4.4531-3.9531 0-7.8906-0.875-3.9219-0.875-8.0156-2.7344z"/>
</defs>
<g transform="translate(1601.2 526.02) scale(.1 -.1)">
<use xlink:href="#c"/>
<use x="63.623047" xlink:href="#e"/>
<use x="95.410156" xlink:href="#m"/>
</g>
</g>
<g clip-path="url(#a)">
<defs>
<path id="aj" d="m31.781 66.406q-7.6094 0-11.453-7.5-3.8281-7.4844-3.8281-22.531 0-14.984 3.8281-22.484 3.8438-7.5 11.453-7.5 7.6719 0 11.5 7.5 3.8438 7.5 3.8438 22.484 0 15.047-3.8438 22.531-3.8281 7.5-11.5 7.5zm0 7.8125q12.266 0 18.734-9.7031 6.4688-9.6875 6.4688-28.141 0-18.406-6.4688-28.109-6.4688-9.6875-18.734-9.6875-12.25 0-18.719 9.6875-6.4688 9.7031-6.4688 28.109 0 18.453 6.4688 28.141 6.4688 9.7031 18.719 9.7031z"/>
</defs>
<g transform="translate(1455.6 840.71) scale(.1 -.1)">
<use xlink:href="#c"/>
<use x="63.623047" xlink:href="#e"/>
<use x="95.410156" xlink:href="#c"/>
<use x="159.033203" xlink:href="#aj"/>
</g>
</g>
<g clip-path="url(#a)">
<g transform="translate(1534.7 840.71) scale(.1 -.1)">
<use xlink:href="#c"/>
<use x="63.623047" xlink:href="#e"/>
<use x="95.410156" xlink:href="#c"/>
<use x="159.033203" xlink:href="#c"/>
</g>
</g>
<g clip-path="url(#a)">
<g transform="translate(1615.9 840.71) scale(.1 -.1)">
<use xlink:href="#c"/>
<use x="63.623047" xlink:href="#e"/>
<use x="95.410156" xlink:href="#c"/>
<use x="159.033203" xlink:href="#o"/>
</g>
</g>
<g clip-path="url(#a)">
<g transform="translate(1785.7 683.78) scale(.1 -.1)">
<use xlink:href="#c"/>
<use x="63.623047" xlink:href="#e"/>
<use x="95.410156" xlink:href="#c"/>
<use x="159.033203" xlink:href="#n"/>
</g>
</g>
<g clip-path="url(#a)">
<g transform="translate(1699.4 840.71) scale(.1 -.1)">
<use xlink:href="#c"/>
<use x="63.623047" xlink:href="#e"/>
<use x="95.410156" xlink:href="#c"/>
<use x="159.033203" xlink:href="#q"/>
</g>
</g>
<g clip-path="url(#a)">
<g transform="translate(1785 840.71) scale(.1 -.1)">
<use xlink:href="#c"/>
<use x="63.623047" xlink:href="#e"/>
<use x="95.410156" xlink:href="#c"/>
<use x="159.033203" xlink:href="#m"/>
</g>
</g>
<g clip-path="url(#a)">
<defs>
<path id="ae" d="m33.016 40.375q-6.6406 0-10.531-4.5469-3.875-4.5312-3.875-12.438 0-7.8594 3.875-12.438 3.8906-4.5625 10.531-4.5625t10.516 4.5625q3.875 4.5781 3.875 12.438 0 7.9062-3.875 12.438-3.875 4.5469-10.516 4.5469zm19.578 30.922v-8.9844q-3.7188 1.75-7.5 2.6719-3.7812 0.9375-7.5 0.9375-9.7656 0-14.922-6.5938-5.1406-6.5938-5.875-19.922 2.875 4.25 7.2188 6.5156 4.3594 2.2656 9.5781 2.2656 10.984 0 17.359-6.6719 6.375-6.6562 6.375-18.125 0-11.234-6.6406-18.031-6.6406-6.7812-17.672-6.7812-12.656 0-19.344 9.6875-6.6875 9.7031-6.6875 28.109 0 17.281 8.2031 27.562t22.016 10.281q3.7188 0 7.5-0.73438t7.8906-2.1875z"/>
</defs>
<g transform="translate(1267.8 683.78) scale(.1 -.1)">
<use xlink:href="#c"/>
<use x="63.623047" xlink:href="#e"/>
<use x="95.410156" xlink:href="#c"/>
<use x="159.033203" xlink:href="#ae"/>
</g>
</g>
<g clip-path="url(#a)">
<defs>
<path id="ad" d="m8.2031 72.906h46.875v-4.2031l-26.469-68.703h-10.297l24.906 64.594h-35.016z"/>
</defs>
<g transform="translate(1378.7 840.71) scale(.1 -.1)">
<use xlink:href="#c"/>
<use x="63.623047" xlink:href="#e"/>
<use x="95.410156" xlink:href="#c"/>
<use x="159.033203" xlink:href="#ad"/>
</g>
</g>
<g clip-path="url(#a)">
<defs>
<path id="ac" d="m31.781 34.625q-7.0312 0-11.062-3.7656-4.0156-3.7656-4.0156-10.344 0-6.5938 4.0156-10.359 4.0312-3.7656 11.062-3.7656t11.078 3.7812q4.0625 3.7969 4.0625 10.344 0 6.5781-4.0312 10.344-4.0156 3.7656-11.109 3.7656zm-9.8594 4.1875q-6.3438 1.5625-9.8906 5.9062-3.5312 4.3594-3.5312 10.609 0 8.7344 6.2188 13.812 6.2344 5.0781 17.062 5.0781 10.891 0 17.094-5.0781t6.2031-13.812q0-6.25-3.5469-10.609-3.5312-4.3438-9.8281-5.9062 7.125-1.6562 11.094-6.5 3.9844-4.8281 3.9844-11.797 0-10.609-6.4688-16.281-6.4688-5.6562-18.531-5.6562-12.047 0-18.531 5.6562-6.4688 5.6719-6.4688 16.281 0 6.9688 4 11.797 4.0156 4.8438 11.141 6.5zm-3.6094 15.578q0-5.6562 3.5312-8.8281 3.5469-3.1719 9.9375-3.1719 6.3594 0 9.9375 3.1719 3.5938 3.1719 3.5938 8.8281 0 5.6719-3.5938 8.8438-3.5781 3.1719-9.9375 3.1719-6.3906 0-9.9375-3.1719-3.5312-3.1719-3.5312-8.8438z"/>
</defs>
<g transform="translate(1231.6 840.71) scale(.1 -.1)">
<use xlink:href="#c"/>
<use x="63.623047" xlink:href="#e"/>
<use x="95.410156" xlink:href="#c"/>
<use x="159.033203" xlink:href="#ac"/>
</g>
</g>
<g clip-path="url(#a)">
<defs>
<path id="ab" d="m10.984 1.5156v8.9844q3.7188-1.7656 7.5156-2.6875 3.8125-0.92188 7.4844-0.92188 9.7656 0 14.906 6.5625 5.1562 6.5625 5.8906 19.953-2.8281-4.2031-7.1875-6.4531-4.3438-2.25-9.6094-2.25-10.938 0-17.312 6.6094-6.375 6.625-6.375 18.109 0 11.219 6.6406 18 6.6406 6.7969 17.672 6.7969 12.656 0 19.312-9.7031 6.6719-9.6875 6.6719-28.141 0-17.234-8.1875-27.516-8.1719-10.281-21.984-10.281-3.7188 0-7.5312 0.73438-3.7969 0.73438-7.9062 2.2031zm19.625 30.906q6.6406 0 10.516 4.5312 3.8906 4.5469 3.8906 12.469 0 7.8594-3.8906 12.422-3.875 4.5625-10.516 4.5625t-10.516-4.5625-3.875-12.422q0-7.9219 3.875-12.469 3.875-4.5312 10.516-4.5312z"/>
</defs>
<g transform="translate(1304.1 840.71) scale(.1 -.1)">
<use xlink:href="#c"/>
<use x="63.623047" xlink:href="#e"/>
<use x="95.410156" xlink:href="#c"/>
<use x="159.033203" xlink:href="#ab"/>
</g>
</g>
<g clip-path="url(#a)">
<g transform="translate(347.92 367.73) scale(.1 -.1)">
<use xlink:href="#c"/>
<use x="63.623047" xlink:href="#e"/>
<use x="95.410156" xlink:href="#o"/>
<use x="159.033203" xlink:href="#aj"/>
</g>
</g>
<g clip-path="url(#a)">
<g transform="translate(447.62 840.71) scale(.1 -.1)">
<use xlink:href="#c"/>
<use x="63.623047" xlink:href="#e"/>
<use x="95.410156" xlink:href="#o"/>
<use x="159.033203" xlink:href="#c"/>
</g>
</g>
<g clip-path="url(#a)">
<g transform="translate(489.35 840.71) scale(.1 -.1)">
<use xlink:href="#c"/>
<use x="63.623047" xlink:href="#e"/>
<use x="95.410156" xlink:href="#o"/>
<use x="159.033203" xlink:href="#o"/>
</g>
</g>
<g clip-path="url(#a)">
<g transform="translate(673.2 367.73) scale(.1 -.1)">
<use xlink:href="#c"/>
<use x="63.623047" xlink:href="#e"/>
<use x="95.410156" xlink:href="#o"/>
<use x="159.033203" xlink:href="#n"/>
</g>
</g>
<g clip-path="url(#a)">
<g transform="translate(533.27 840.71) scale(.1 -.1)">
<use xlink:href="#c"/>
<use x="63.623047" xlink:href="#e"/>
<use x="95.410156" xlink:href="#o"/>
<use x="159.033203" xlink:href="#q"/>
</g>
</g>
<g clip-path="url(#a)">
<g transform="translate(579.38 840.71) scale(.1 -.1)">
<use xlink:href="#c"/>
<use x="63.623047" xlink:href="#e"/>
<use x="95.410156" xlink:href="#o"/>
<use x="159.033203" xlink:href="#m"/>
</g>
</g>
<g clip-path="url(#a)">
<g transform="translate(627.7 840.71) scale(.1 -.1)">
<use xlink:href="#c"/>
<use x="63.623047" xlink:href="#e"/>
<use x="95.410156" xlink:href="#o"/>
<use x="159.033203" xlink:href="#ae"/>
</g>
</g>
<g clip-path="url(#a)">
<g transform="translate(678.21 840.71) scale(.1 -.1)">
<use xlink:href="#c"/>
<use x="63.623047" xlink:href="#e"/>
<use x="95.410156" xlink:href="#o"/>
<use x="159.033203" xlink:href="#ad"/>
</g>
</g>
<g clip-path="url(#a)">
<g transform="translate(730.91 840.71) scale(.1 -.1)">
<use xlink:href="#c"/>
<use x="63.623047" xlink:href="#e"/>
<use x="95.410156" xlink:href="#o"/>
<use x="159.033203" xlink:href="#ac"/>
</g>
</g>
<g clip-path="url(#a)">
<g transform="translate(889.76 526.02) scale(.1 -.1)">
<use xlink:href="#c"/>
<use x="63.623047" xlink:href="#e"/>
<use x="95.410156" xlink:href="#o"/>
<use x="159.033203" xlink:href="#ab"/>
</g>
</g>
<g clip-path="url(#a)">
<g transform="translate(785.81 840.71) scale(.1 -.1)">
<use xlink:href="#c"/>
<use x="63.623047" xlink:href="#e"/>
<use x="95.410156" xlink:href="#n"/>
<use x="159.033203" xlink:href="#aj"/>
</g>
</g>
<g clip-path="url(#a)">
<g transform="translate(842.91 840.71) scale(.1 -.1)">
<use xlink:href="#c"/>
<use x="63.623047" xlink:href="#e"/>
<use x="95.410156" xlink:href="#n"/>
<use x="159.033203" xlink:href="#c"/>
</g>
</g>
<g clip-path="url(#a)">
<g transform="translate(902.2 840.71) scale(.1 -.1)">
<use xlink:href="#c"/>
<use x="63.623047" xlink:href="#e"/>
<use x="95.410156" xlink:href="#n"/>
<use x="159.033203" xlink:href="#o"/>
</g>
</g>
<g clip-path="url(#a)">
<g transform="translate(1028.1 683.78) scale(.1 -.1)">
<use xlink:href="#c"/>
<use x="63.623047" xlink:href="#e"/>
<use x="95.410156" xlink:href="#n"/>
<use x="159.033203" xlink:href="#n"/>
</g>
</g>
<g clip-path="url(#a)">
<g transform="translate(963.69 840.71) scale(.1 -.1)">
<use xlink:href="#c"/>
<use x="63.623047" xlink:href="#e"/>
<use x="95.410156" xlink:href="#n"/>
<use x="159.033203" xlink:href="#q"/>
</g>
</g>
<g clip-path="url(#a)">
<g transform="translate(1027.4 840.71) scale(.1 -.1)">
<use xlink:href="#c"/>
<use x="63.623047" xlink:href="#e"/>
<use x="95.410156" xlink:href="#n"/>
<use x="159.033203" xlink:href="#m"/>
</g>
</g>
<g clip-path="url(#a)">
<g transform="translate(1093.3 840.71) scale(.1 -.1)">
<use xlink:href="#c"/>
<use x="63.623047" xlink:href="#e"/>
<use x="95.410156" xlink:href="#n"/>
<use x="159.033203" xlink:href="#ae"/>
</g>
</g>
<g clip-path="url(#a)">
<g transform="translate(243.39 840.71) scale(.1 -.1)">
<use xlink:href="#c"/>
<use x="63.623047" xlink:href="#e"/>
<use x="95.410156" xlink:href="#n"/>
<use x="159.033203" xlink:href="#ad"/>
</g>
</g>
<g clip-path="url(#a)">
<g transform="translate(287.31 683.78) scale(.1 -.1)">
<use xlink:href="#c"/>
<use x="63.623047" xlink:href="#e"/>
<use x="95.410156" xlink:href="#n"/>
<use x="159.033203" xlink:href="#ac"/>
</g>
</g>
<g clip-path="url(#a)">
<g transform="translate(353.19 526.02) scale(.1 -.1)">
<use xlink:href="#c"/>
<use x="63.623047" xlink:href="#e"/>
<use x="95.410156" xlink:href="#n"/>
<use x="159.033203" xlink:href="#ab"/>
</g>
</g>
<g clip-path="url(#a)">
<g transform="translate(335.62 840.71) scale(.1 -.1)">
<use xlink:href="#c"/>
<use x="63.623047" xlink:href="#e"/>
<use x="95.410156" xlink:href="#q"/>
<use x="159.033203" xlink:href="#c"/>
</g>
</g>
<g clip-path="url(#a)">
<g transform="translate(370.76 683.78) scale(.1 -.1)">
<use xlink:href="#c"/>
<use x="63.623047" xlink:href="#e"/>
<use x="95.410156" xlink:href="#q"/>
<use x="159.033203" xlink:href="#o"/>
</g>
</g>
<g clip-path="url(#a)">
<g transform="translate(370.76 840.71) scale(.1 -.1)">
<use xlink:href="#c"/>
<use x="63.623047" xlink:href="#e"/>
<use x="95.410156" xlink:href="#q"/>
<use x="159.033203" xlink:href="#n"/>
</g>
</g>
<g clip-path="url(#a)">
<g transform="translate(271.94 840.71) scale(.1 -.1)">
<use xlink:href="#c"/>
<use x="63.623047" xlink:href="#e"/>
<use x="95.410156" xlink:href="#q"/>
<use x="159.033203" xlink:href="#q"/>
</g>
</g>
<g clip-path="url(#a)">
<g transform="translate(302.68 840.71) scale(.1 -.1)">
<use xlink:href="#c"/>
<use x="63.623047" xlink:href="#e"/>
<use x="95.410156" xlink:href="#q"/>
<use x="159.033203" xlink:href="#m"/>
</g>
</g>
<g clip-path="url(#a)">
<g transform="translate(81.979 840.71) scale(.1 -.1)">
<use xlink:href="#c"/>
<use x="63.623047" xlink:href="#e"/>
<use x="95.410156" xlink:href="#q"/>
<use x="159.033203" xlink:href="#ae"/>
</g>
</g>
<g clip-path="url(#a)">
<g transform="translate(94.058 840.71) scale(.1 -.1)">
<use xlink:href="#c"/>
<use x="63.623047" xlink:href="#e"/>
<use x="95.410156" xlink:href="#q"/>
<use x="159.033203" xlink:href="#ad"/>
</g>
</g>
<g clip-path="url(#a)">
<g transform="translate(111.63 840.71) scale(.1 -.1)">
<use xlink:href="#c"/>
<use x="63.623047" xlink:href="#e"/>
<use x="95.410156" xlink:href="#q"/>
<use x="159.033203" xlink:href="#ac"/>
</g>
</g>
<g clip-path="url(#a)">
<g transform="translate(148.27 526.02) scale(.1 -.1)">
<use xlink:href="#c"/>
<use x="63.623047" xlink:href="#e"/>
<use x="95.410156" xlink:href="#q"/>
<use x="159.033203" xlink:href="#ab"/>
</g>
</g>
<g clip-path="url(#a)">
<g transform="translate(133.59 840.71) scale(.1 -.1)">
<use xlink:href="#c"/>
<use x="63.623047" xlink:href="#e"/>
<use x="95.410156" xlink:href="#m"/>
<use x="159.033203" xlink:href="#aj"/>
</g>
</g>
<g clip-path="url(#a)">
<g transform="translate(151.15 840.71) scale(.1 -.1)">
<use xlink:href="#c"/>
<use x="63.623047" xlink:href="#e"/>
<use x="95.410156" xlink:href="#m"/>
<use x="159.033203" xlink:href="#c"/>
</g>
</g>
<g clip-path="url(#a)">
<g transform="translate(170.92 840.71) scale(.1 -.1)">
<use xlink:href="#c"/>
<use x="63.623047" xlink:href="#e"/>
<use x="95.410156" xlink:href="#m"/>
<use x="159.033203" xlink:href="#o"/>
</g>
</g>
<g clip-path="url(#a)">
<g transform="translate(137.43 683.78) scale(.1 -.1)">
<use xlink:href="#c"/>
<use x="63.623047" xlink:href="#e"/>
<use x="95.410156" xlink:href="#m"/>
<use x="159.033203" xlink:href="#n"/>
</g>
</g>
<g clip-path="url(#a)">
<g transform="translate(192.88 840.71) scale(.1 -.1)">
<use xlink:href="#c"/>
<use x="63.623047" xlink:href="#e"/>
<use x="95.410156" xlink:href="#m"/>
<use x="159.033203" xlink:href="#q"/>
</g>
</g>
<g clip-path="url(#a)">
<g transform="translate(1136.9 50.032) scale(.1 -.1)">
<use xlink:href="#c"/>
<use x="63.623047" xlink:href="#e"/>
<use x="95.410156" xlink:href="#m"/>
<use x="159.033203" xlink:href="#m"/>
</g>
</g>
<g clip-path="url(#a)">
<g transform="translate(217.04 840.71) scale(.1 -.1)">
<use xlink:href="#c"/>
<use x="63.623047" xlink:href="#e"/>
<use x="95.410156" xlink:href="#m"/>
<use x="159.033203" xlink:href="#ae"/>
</g>
</g>
<g clip-path="url(#a)">
<g transform="translate(408.09 840.71) scale(.1 -.1)">
<use xlink:href="#c"/>
<use x="63.623047" xlink:href="#e"/>
<use x="95.410156" xlink:href="#m"/>
<use x="159.033203" xlink:href="#ad"/>
</g>
</g>
<g clip-path="url(#a)">
<g transform="translate(1161.3 840.71) scale(.1 -.1)">
<use xlink:href="#c"/>
<use x="63.623047" xlink:href="#e"/>
<use x="95.410156" xlink:href="#m"/>
<use x="159.033203" xlink:href="#ac"/>
</g>
</g>
<g clip-path="url(#a)">
<g transform="translate(1872.9 840.71) scale(.1 -.1)">
<use xlink:href="#c"/>
<use x="63.623047" xlink:href="#e"/>
<use x="95.410156" xlink:href="#m"/>
<use x="159.033203" xlink:href="#ab"/>
</g>
</g>
<defs>
<clipPath id="a">
<rect width="1976" height="1040"/>
</clipPath>
</defs>
</svg>
