<?xml version="1.0" encoding="UTF-8"?>
<!DOCTYPE svg  PUBLIC '-//W3C//DTD SVG 1.1//EN'  'http://www.w3.org/Graphics/SVG/1.1/DTD/svg11.dtd'>
<svg width="1824pt" height="960pt" version="1.1" viewBox="0 0 1824 960" xmlns="http://www.w3.org/2000/svg" xmlns:xlink="http://www.w3.org/1999/xlink">
<defs>
<style type="text/css">*{stroke-linecap:butt;stroke-linejoin:round;}</style>
</defs>
<path d="m0 960h1824v-960h-1824z" fill="#fff"/>
<g fill="none" stroke="#000">
<path d="m721.27 44.744-590.84 699.97" clip-path="url(#a)"/>
<path d="m721.27 44.744-440.84 356.51" clip-path="url(#a)"/>
<path d="m721.27 44.744-306.63 699.97" clip-path="url(#a)"/>
<path d="m721.27 44.744-271.11 180.26" clip-path="url(#a)"/>
<path d="m721.27 44.744 214.41 699.97" clip-path="url(#a)"/>
<path d="m721.27 44.744 169.02 180.26" clip-path="url(#a)"/>
<path d="m721.27 44.744 688.08 699.97" clip-path="url(#a)"/>
<path d="m721.27 44.744 368.35 180.26" clip-path="url(#a)"/>
<path d="m721.27 44.744-638.2 699.97" clip-path="url(#a)"/>
<path d="m721.27 44.744 167.04 699.97" clip-path="url(#a)"/>
<path d="m721.27 44.744 640.72 699.97" clip-path="url(#a)"/>
<path d="m130.44 744.71v170.54" clip-path="url(#a)"/>
<path d="m280.44 401.25-78.946 172.92" clip-path="url(#a)"/>
<path d="m280.44 401.25 39.473 343.46" clip-path="url(#a)"/>
<path d="m280.44 401.25 39.473 343.46" clip-path="url(#a)"/>
<path d="m414.64 744.71v170.54" clip-path="url(#a)"/>
<path d="m450.17 225.01 11.842 519.71" clip-path="url(#a)"/>
<path d="m450.17 225.01 213.15 176.25" clip-path="url(#a)"/>
<path d="m450.17 225.01-225 519.71" clip-path="url(#a)" stroke-dasharray="3.7,1.6"/>
<path d="m935.68 744.71v170.54" clip-path="url(#a)"/>
<path d="m890.29 225.01 92.761 519.71" clip-path="url(#a)"/>
<path d="m890.29 225.01 195.39 176.25" clip-path="url(#a)"/>
<path d="m890.29 225.01 376.97 349.16" clip-path="url(#a)"/>
<path d="m890.29 225.01-665.12 519.71" clip-path="url(#a)" stroke-dasharray="3.7,1.6"/>
<path d="m1409.4 744.71v170.54" clip-path="url(#a)"/>
<path d="m1089.6 225.01 367.1 519.71" clip-path="url(#a)"/>
<path d="m1089.6 225.01 497.36 176.25" clip-path="url(#a)"/>
<path d="m1089.6 225.01-864.45 519.71" clip-path="url(#a)" stroke-dasharray="3.7,1.6"/>
<path d="m1456.7 744.71v170.54" clip-path="url(#a)"/>
<path d="m1587 401.25-82.893 343.46" clip-path="url(#a)"/>
<path d="m1587 401.25-35.526 343.46" clip-path="url(#a)"/>
<path d="m1587 401.25 11.842 343.46" clip-path="url(#a)"/>
<path d="m1587 401.25 106.58 172.92" clip-path="url(#a)"/>
<path d="m1504.1 744.71v170.54" clip-path="url(#a)"/>
<path d="m1551.5 744.71v170.54" clip-path="url(#a)"/>
<path d="m1598.8 744.71v170.54" clip-path="url(#a)"/>
<path d="m1693.6 574.17-47.367 170.54" clip-path="url(#a)"/>
<path d="m1693.6 574.17v170.54" clip-path="url(#a)"/>
<path d="m1693.6 574.17 47.367 170.54" clip-path="url(#a)"/>
<path d="m1646.2 744.71v170.54" clip-path="url(#a)"/>
<path d="m1693.6 744.71v170.54" clip-path="url(#a)"/>
<path d="m983.05 744.71v170.54" clip-path="url(#a)"/>
<path d="m1085.7 401.25-55.262 343.46" clip-path="url(#a)"/>
<path d="m1085.7 401.25-7.8946 343.46" clip-path="url(#a)"/>
<path d="m1085.7 401.25 63.156 172.92" clip-path="url(#a)"/>
<path d="m1267.3 574.17-47.367 170.54" clip-path="url(#a)"/>
<path d="m1267.3 574.17v170.54" clip-path="url(#a)"/>
<path d="m1267.3 574.17 47.367 170.54" clip-path="url(#a)"/>
<path d="m1219.9 744.71v170.54" clip-path="url(#a)"/>
<path d="m1267.3 744.71v170.54" clip-path="url(#a)"/>
<path d="m1314.6 744.71v170.54" clip-path="url(#a)"/>
<path d="m1030.4 744.71v170.54" clip-path="url(#a)"/>
<path d="m1077.8 744.71v170.54" clip-path="url(#a)"/>
<path d="m1148.8 574.17-23.684 170.54" clip-path="url(#a)"/>
<path d="m1148.8 574.17 23.684 170.54" clip-path="url(#a)"/>
<path d="m1125.2 744.71v170.54" clip-path="url(#a)"/>
<path d="m1172.5 744.71v170.54" clip-path="url(#a)"/>
<path d="m462.01 744.71v170.54" clip-path="url(#a)"/>
<path d="m663.32 401.25-27.631 172.92" clip-path="url(#a)"/>
<path d="m663.32 401.25-82.893 172.92" clip-path="url(#a)"/>
<path d="m663.32 401.25 82.893 343.46" clip-path="url(#a)"/>
<path d="m663.32 401.25 51.315 172.92" clip-path="url(#a)"/>
<path d="m663.32 401.25-59.209 343.46" clip-path="url(#a)"/>
<path d="m663.32 401.25 35.526 343.46" clip-path="url(#a)"/>
<path d="m635.69 574.17 205.26 170.54" clip-path="url(#a)" stroke-dasharray="3.7,1.6"/>
<path d="m635.69 574.17-126.31 170.54" clip-path="url(#a)"/>
<path d="m635.69 574.17-78.946 170.54" clip-path="url(#a)"/>
<path d="m580.43 574.17 71.051 170.54" clip-path="url(#a)"/>
<path d="m580.43 574.17-71.051 170.54" clip-path="url(#a)" stroke-dasharray="3.7,1.6"/>
<path d="m746.21 744.71v170.54" clip-path="url(#a)"/>
<path d="m714.64 574.17 78.946 170.54" clip-path="url(#a)"/>
<path d="m714.64 574.17 126.31 170.54" clip-path="url(#a)"/>
<path d="m714.64 574.17-205.26 170.54" clip-path="url(#a)" stroke-dasharray="3.7,1.6"/>
<path d="m793.58 744.71v170.54" clip-path="url(#a)"/>
<path d="m840.95 744.71v170.54" clip-path="url(#a)"/>
<path d="m651.48 744.71v170.54" clip-path="url(#a)"/>
<path d="m509.38 744.71v170.54" clip-path="url(#a)"/>
<path d="m556.74 744.71v170.54" clip-path="url(#a)"/>
<path d="m201.49 574.17-23.684 170.54" clip-path="url(#a)"/>
<path d="m201.49 574.17 23.684 170.54" clip-path="url(#a)"/>
<path d="m319.91 744.71-47.367 170.54" clip-path="url(#a)"/>
<path d="m319.91 744.71 47.367 170.54" clip-path="url(#a)"/>
<path d="m319.91 744.71v170.54" clip-path="url(#a)"/>
<path d="m177.81 744.71v170.54" clip-path="url(#a)"/>
<path d="m225.17 744.71v170.54" clip-path="url(#a)"/>
<path d="m1129.8 44.744-239.47 180.26" clip-path="url(#a)"/>
<path d="m1129.8 44.744 279.6 699.97" clip-path="url(#a)"/>
<path d="m1129.8 44.744-40.131 180.26" clip-path="url(#a)"/>
<path d="m702.14 44.744-421.7 356.51" clip-path="url(#a)"/>
<path d="m702.14 44.744 233.55 699.97" clip-path="url(#a)"/>
<path d="m702.14 44.744 188.15 180.26" clip-path="url(#a)"/>
<path d="m381.75 44.744-101.31 356.51" clip-path="url(#a)"/>
<path d="m381.75 44.744 32.894 699.97" clip-path="url(#a)"/>
<path d="m381.75 44.744 68.42 180.26" clip-path="url(#a)"/>
<path d="m205.44 225.01-74.998 519.71" clip-path="url(#a)"/>
<path d="m205.44 225.01 74.998 176.25" clip-path="url(#a)"/>
<path d="m83.071 744.71v170.54" clip-path="url(#a)"/>
<path d="m604.11 744.71v170.54" clip-path="url(#a)"/>
<path d="m698.85 744.71v170.54" clip-path="url(#a)"/>
<path d="m888.32 744.71v170.54" clip-path="url(#a)"/>
<path d="m1362 744.71v170.54" clip-path="url(#a)"/>
<path d="m1740.9 744.71v170.54" clip-path="url(#a)"/>
</g>
<path d="m429.21 400.48 2.8752-3.4063q1.5481-1.834-0.28594-3.382l-5.9165-4.9941q-1.834-1.5481-3.382 0.28594l-2.8752 3.4063q-1.5481 1.834 0.28594 3.382l5.9165 4.9941q1.834 1.5481 3.382-0.28594z" clip-path="url(#a)" fill="#fff" stroke="#fff"/>
<g clip-path="url(#a)">
<defs>
<path id="o" d="m9.8125 72.906h9.8594v-64.609h35.5v-8.2969h-45.359z"/>
</defs>
<g transform="translate(426.11 397.86) rotate(-49.833) scale(.08 -.08)">
<use xlink:href="#o"/>
</g>
</g>
<path d="m502.46 229.77 4.678-3.7831q1.8661-1.5091 0.35699-3.3753l-4.8686-6.0202q-1.5091-1.8661-3.3753-0.35699l-4.678 3.7831q-1.8661 1.5091-0.35699 3.3753l4.8686 6.0202q1.5091 1.8661 3.3753 0.35699z" clip-path="url(#a)" fill="#fff" stroke="#fff"/>
<g clip-path="url(#a)">
<defs>
<path id="af" d="m9.8125 72.906h9.8594v-29.891h35.844v29.891h9.8594v-72.906h-9.8594v34.719h-35.844v-34.719h-9.8594z"/>
</defs>
<g transform="translate(499.9 226.61) rotate(-38.963) scale(.08 -.08)">
<use xlink:href="#af"/>
</g>
</g>
<path d="m572.81 399.29 1.7886-4.0829q0.96301-2.1983-1.2353-3.1613l-7.0919-3.1067q-2.1983-0.96301-3.1613 1.2353l-1.7886 4.0829q-0.96301 2.1983 1.2353 3.1613l7.0919 3.1067q2.1983 0.96301 3.1613-1.2353z" clip-path="url(#a)" fill="#fff" stroke="#fff"/>
<g clip-path="url(#a)">
<g transform="translate(569.09 397.66) rotate(-66.343) scale(.08 -.08)">
<use xlink:href="#o"/>
</g>
</g>
<path d="m586.69 141.76 5.0099-3.3311q1.9985-1.3289 0.66969-3.3274l-4.2869-6.4474q-1.3289-1.9985-3.3274-0.66969l-5.0099 3.3311q-1.9985 1.3289-0.66969 3.3274l4.2869 6.4474q1.3289 1.9985 3.3274 0.66969z" clip-path="url(#a)" fill="#fff" stroke="#fff"/>
<g clip-path="url(#a)">
<g transform="translate(584.44 138.38) rotate(-33.62) scale(.08 -.08)">
<use xlink:href="#af"/>
</g>
</g>
<path d="m821.83 394.43 1.3055 4.262q0.70291 2.2948 2.9977 1.5918l7.403-2.2676q2.2948-0.70291 1.5918-2.9977l-1.3055-4.262q-0.70291-2.2948-2.9977-1.5918l-7.403 2.2676q-2.2948 0.70291-1.5918 2.9977z" clip-path="url(#a)" fill="#fff" stroke="#fff"/>
<g clip-path="url(#a)">
<g transform="translate(825.72 393.24) rotate(72.97) scale(.08 -.08)">
<use xlink:href="#o"/>
</g>
</g>
<path d="m799.15 136.97 4.115 4.3888q1.6416 1.7508 3.3924 0.10923l5.6481-5.2957q1.7508-1.6416 0.10923-3.3924l-4.115-4.3888q-1.6416-1.7508-3.3924-0.10923l-5.6481 5.2957q-1.7508 1.6416-0.10923 3.3924z" clip-path="url(#a)" fill="#fff" stroke="#fff"/>
<g clip-path="url(#a)">
<g transform="translate(802.11 134.19) rotate(46.844) scale(.08 -.08)">
<use xlink:href="#af"/>
</g>
</g>
<path d="m1059.3 397.53 3.1248 3.1788q1.6825 1.7115 3.394 0.02906l5.5214-5.4277q1.7115-1.6825 0.02906-3.394l-3.1248-3.1788q-1.6825-1.7115-3.394-0.029061l-5.5214 5.4277q-1.7115 1.6825-0.029061 3.394z" clip-path="url(#a)" fill="#fff" stroke="#fff"/>
<g clip-path="url(#a)">
<g transform="translate(1062.2 394.69) rotate(45.491) scale(.08 -.08)">
<use xlink:href="#o"/>
</g>
</g>
<path d="m899.99 139.19 5.4039 2.6445q2.1557 1.0549 3.2107-1.1008l3.4033-6.9544q1.0549-2.1557-1.1008-3.2107l-5.4039-2.6445q-2.1557-1.0549-3.2107 1.1008l-3.4033 6.9544q-1.0549 2.1557 1.1008 3.2107z" clip-path="url(#a)" fill="#fff" stroke="#fff"/>
<g clip-path="url(#a)">
<g transform="translate(901.78 135.54) rotate(26.076) scale(.08 -.08)">
<use xlink:href="#af"/>
</g>
</g>
<path d="m404.83 401.12 3.9448-4.3266q1.617-1.7735-0.15649-3.3905l-5.7214-5.2165q-1.7735-1.617-3.3905 0.15649l-3.9448 4.3266q-1.617 1.7735 0.15649 3.3905l5.7214 5.2165q1.7735 1.617 3.3905-0.15649z" clip-path="url(#a)" fill="#fff" stroke="#fff"/>
<g clip-path="url(#a)">
<defs>
<path id="aa" d="m8.6875 72.906h9.9219v-44.297q0-11.719 4.2344-16.875 4.25-5.1406 13.781-5.1406 9.4688 0 13.719 5.1406 4.25 5.1562 4.25 16.875v44.297h9.9062v-45.516q0-14.25-7.0625-21.531-7.0469-7.2812-20.812-7.2812-13.828 0-20.891 7.2812-7.0469 7.2812-7.0469 21.531z"/>
</defs>
<g transform="translate(401.83 398.38) rotate(-47.643) scale(.08 -.08)">
<use xlink:href="#aa"/>
</g>
</g>
<path d="m798.02 393.34 1.3591 5.6951q0.5571 2.3344 2.8915 1.7774l7.531-1.7972q2.3344-0.5571 1.7774-2.8915l-1.3591-5.6951q-0.5571-2.3344-2.8915-1.7774l-7.531 1.7972q-2.3344 0.5571-1.7774 2.8915z" clip-path="url(#a)" fill="#fff" stroke="#fff"/>
<g clip-path="url(#a)">
<g transform="translate(801.97 392.39) rotate(76.578) scale(.08 -.08)">
<use xlink:href="#aa"/>
</g>
</g>
<path d="m1035 396.8 3.9533 4.3189q1.6205 1.7703 3.3908 0.14986l5.7112-5.2277q1.7703-1.6205 0.14986-3.3908l-3.9533-4.3189q-1.6205-1.7703-3.3908-0.14986l-5.7112 5.2277q-1.7703 1.6205-0.14986 3.3908z" clip-path="url(#a)" fill="#fff" stroke="#fff"/>
<g clip-path="url(#a)">
<g transform="translate(1038 394.06) rotate(47.531) scale(.08 -.08)">
<use xlink:href="#aa"/>
</g>
</g>
<path d="m124.17 812.34v35.285q0 2.4 2.4 2.4h7.7425q2.4 0 2.4-2.4v-35.285q0-2.4-2.4-2.4h-7.7425q-2.4 0-2.4 2.4z" clip-path="url(#a)" fill="#fff" stroke="#fff"/>
<g clip-path="url(#a)">
<defs>
<path id="k" d="m-0.29688 72.906h61.672v-8.3125h-25.875v-64.594h-9.9062v64.594h-25.891z"/>
<path id="f" d="m56.203 29.594v-4.3906h-41.312q0.59375-9.2812 5.5938-14.141t13.938-4.8594q5.1719 0 10.031 1.2656t9.6562 3.8125v-8.5q-4.8438-2.0469-9.9219-3.125t-10.297-1.0781q-13.094 0-20.734 7.6094-7.6406 7.625-7.6406 20.625 0 13.422 7.25 21.297 7.25 7.8906 19.562 7.8906 11.031 0 17.453-7.1094 6.4219-7.0938 6.4219-19.297zm-8.9844 2.6406q-0.09375 7.3594-4.125 11.75-4.0312 4.4062-10.672 4.4062-7.5156 0-12.031-4.25t-5.2031-11.969z"/>
<path id="i" d="m41.109 46.297q-1.5156 0.875-3.2969 1.2812-1.7812 0.42188-3.9219 0.42188-7.625 0-11.703-4.9531t-4.0781-14.234v-28.812h-9.0312v54.688h9.0312v-8.5q2.8438 4.9844 7.375 7.3906 4.5469 2.4219 11.047 2.4219 0.92188 0 2.0469-0.125 1.125-0.10938 2.4844-0.35938z"/>
<path id="l" d="m52 44.188q3.375 6.0625 8.0625 8.9375t11.031 2.875q8.5469 0 13.188-5.9844 4.6406-5.9688 4.6406-17v-33.016h-9.0312v32.719q0 7.8594-2.7969 11.656-2.7812 3.8125-8.4844 3.8125-6.9844 0-11.047-4.6406-4.0469-4.625-4.0469-12.641v-30.906h-9.0312v32.719q0 7.9062-2.7812 11.688t-8.5938 3.7812q-6.8906 0-10.953-4.6562-4.0469-4.6562-4.0469-12.625v-30.906h-9.0312v54.688h9.0312v-8.5q3.0781 5.0312 7.375 7.4219t10.203 2.3906q5.9688 0 10.141-3.0312 4.1719-3.0156 6.1719-8.7812z"/>
<path id="h" d="m9.4219 54.688h8.9844v-54.688h-8.9844zm0 21.297h8.9844v-11.391h-8.9844z"/>
<path id="g" d="m54.891 33.016v-33.016h-8.9844v32.719q0 7.7656-3.0312 11.609-3.0312 3.8594-9.0781 3.8594-7.2812 0-11.484-4.6406-4.2031-4.625-4.2031-12.641v-30.906h-9.0312v54.688h9.0312v-8.5q3.2344 4.9375 7.5938 7.375 4.375 2.4375 10.094 2.4375 9.4219 0 14.25-5.8281 4.8438-5.8281 4.8438-17.156z"/>
<path id="e" d="m34.281 27.484q-10.891 0-15.094-2.4844t-4.2031-8.5q0-4.7812 3.1562-7.5938 3.1562-2.7969 8.5625-2.7969 7.4844 0 12 5.2969t4.5156 14.078v2zm17.922 3.7188v-31.203h-8.9844v8.2969q-3.0781-4.9688-7.6719-7.3438t-11.234-2.375q-8.3906 0-13.359 4.7188-4.9531 4.7188-4.9531 12.625 0 9.2188 6.1719 13.906 6.1875 4.6875 18.438 4.6875h12.609v0.89062q0 6.2031-4.0781 9.5938t-11.453 3.3906q-4.6875 0-9.1406-1.125-4.4375-1.125-8.5312-3.375v8.3125q4.9219 1.9062 9.5625 2.8438 4.6406 0.95312 9.0312 0.95312 11.875 0 17.734-6.1562 5.8594-6.1406 5.8594-18.641z"/>
<path id="j" d="m9.4219 75.984h8.9844v-75.984h-8.9844z"/>
</defs>
<g transform="translate(128.23 812.34) rotate(90) scale(.08 -.08)">
<use xlink:href="#k"/>
<use x="60.818359" xlink:href="#f"/>
<use x="122.341797" xlink:href="#i"/>
<use x="163.439453" xlink:href="#l"/>
<use x="260.851562" xlink:href="#h"/>
<use x="288.634766" xlink:href="#g"/>
<use x="352.013672" xlink:href="#e"/>
<use x="413.292969" xlink:href="#j"/>
</g>
</g>
<path d="m245.53 492.8 2.2728-4.9782q0.99676-2.1832-1.1865-3.18l-7.0432-3.2156q-2.1832-0.99676-3.18 1.1865l-2.2728 4.9782q-0.99676 2.1832 1.1865 3.18l7.0432 3.2156q2.1832 0.99676 3.18-1.1865z" clip-path="url(#a)" fill="#fff" stroke="#fff"/>
<g clip-path="url(#a)">
<defs>
<path id="p" d="m34.188 63.188-13.391-36.281h26.812zm-5.5781 9.7188h11.188l27.781-72.906h-10.25l-6.6406 18.703h-32.859l-6.6406-18.703h-10.406z"/>
</defs>
<g transform="translate(241.83 491.12) rotate(-65.461) scale(.08 -.08)">
<use xlink:href="#p"/>
</g>
</g>
<path d="m293.67 571.3 0.55075 4.7922q0.27402 2.3843 2.6583 2.1103l7.6919-0.884q2.3843-0.27402 2.1103-2.6583l-0.55075-4.7922q-0.27402-2.3843-2.6583-2.1103l-7.6919 0.884q-2.3843 0.27402-2.1103 2.6583z" clip-path="url(#a)" fill="#fff" stroke="#fff"/>
<g clip-path="url(#a)">
<defs>
<path id="ah" d="m19.672 64.797v-27.391h12.406q6.8906 0 10.641 3.5625 3.7656 3.5625 3.7656 10.156 0 6.5469-3.7656 10.109-3.75 3.5625-10.641 3.5625zm-9.8594 8.1094h22.266q12.266 0 18.531-5.5469 6.2812-5.5469 6.2812-16.234 0-10.797-6.2812-16.312-6.2656-5.5156-18.531-5.5156h-12.406v-29.297h-9.8594z"/>
</defs>
<g transform="translate(297.7 570.84) rotate(83.444) scale(.08 -.08)">
<use xlink:href="#ah"/>
</g>
</g>
<path d="m293.59 570.64 0.70332 6.1197q0.27402 2.3843 2.6583 2.1103l7.6919-0.884q2.3843-0.27402 2.1103-2.6583l-0.70332-6.1197q-0.27402-2.3843-2.6583-2.1103l-7.6919 0.884q-2.3843 0.27402-2.1103 2.6583z" clip-path="url(#a)" fill="#fff" stroke="#fff"/>
<g clip-path="url(#a)">
<defs>
<path id="at" d="m19.672 64.797v-56.688h11.922q15.094 0 22.094 6.8281 7 6.8438 7 21.594 0 14.641-7 21.453t-22.094 6.8125zm-9.8594 8.1094h20.266q21.188 0 31.094-8.8125 9.9219-8.8125 9.9219-27.562 0-18.859-9.9688-27.703-9.9531-8.8281-31.047-8.8281h-20.266z"/>
</defs>
<g transform="translate(297.63 570.17) rotate(83.444) scale(.08 -.08)">
<use xlink:href="#at"/>
</g>
</g>
<path d="m408.37 812.34v35.285q0 2.4 2.4 2.4h7.7425q2.4 0 2.4-2.4v-35.285q0-2.4-2.4-2.4h-7.7425q-2.4 0-2.4 2.4z" clip-path="url(#a)" fill="#fff" stroke="#fff"/>
<g clip-path="url(#a)">
<g transform="translate(412.44 812.34) rotate(90) scale(.08 -.08)">
<use xlink:href="#k"/>
<use x="60.818359" xlink:href="#f"/>
<use x="122.341797" xlink:href="#i"/>
<use x="163.439453" xlink:href="#l"/>
<use x="260.851562" xlink:href="#h"/>
<use x="288.634766" xlink:href="#g"/>
<use x="352.013672" xlink:href="#e"/>
<use x="413.292969" xlink:href="#j"/>
</g>
</g>
<path d="m449.76 482.59 0.10988 4.8225q0.054671 2.3994 2.454 2.3447l7.7405-0.17637q2.3994-0.054671 2.3447-2.454l-0.10988-4.8225q-0.054671-2.3994-2.454-2.3447l-7.7405 0.17637q-2.3994 0.054671-2.3447 2.454z" clip-path="url(#a)" fill="#fff" stroke="#fff"/>
<g clip-path="url(#a)">
<g transform="translate(453.83 482.5) rotate(88.695) scale(.08 -.08)">
<use xlink:href="#ah"/>
</g>
</g>
<path d="m550.64 316.22 4.2175 3.4872q1.8496 1.5294 3.379-0.32026l4.9338-5.9669q1.5294-1.8496-0.32026-3.379l-4.2175-3.4872q-1.8496-1.5294-3.379 0.32026l-4.9338 5.9669q-1.5294 1.8496 0.32026 3.379z" clip-path="url(#a)" fill="#fff" stroke="#fff"/>
<g clip-path="url(#a)">
<g transform="translate(553.23 313.09) rotate(39.586) scale(.08 -.08)">
<use xlink:href="#p"/>
</g>
</g>
<path d="m342.34 489.86 2.1742-5.0221q0.9535-2.2025-1.249-3.156l-7.1052-3.076q-2.2025-0.9535-3.156 1.249l-2.1742 5.0221q-0.9535 2.2025 1.249 3.156l7.1052 3.076q2.2025 0.9535 3.156-1.249z" clip-path="url(#a)" fill="#fff" stroke="#fff"/>
<g clip-path="url(#a)">
<g transform="translate(338.61 488.25) rotate(-66.591) scale(.08 -.08)">
<use xlink:href="#p"/>
</g>
</g>
<path d="m929.41 812.34v35.285q0 2.4 2.4 2.4h7.7425q2.4 0 2.4-2.4v-35.285q0-2.4-2.4-2.4h-7.7425q-2.4 0-2.4 2.4z" clip-path="url(#a)" fill="#fff" stroke="#fff"/>
<g clip-path="url(#a)">
<g transform="translate(933.48 812.34) rotate(90) scale(.08 -.08)">
<use xlink:href="#k"/>
<use x="60.818359" xlink:href="#f"/>
<use x="122.341797" xlink:href="#i"/>
<use x="163.439453" xlink:href="#l"/>
<use x="260.851562" xlink:href="#h"/>
<use x="288.634766" xlink:href="#g"/>
<use x="352.013672" xlink:href="#e"/>
<use x="413.292969" xlink:href="#j"/>
</g>
</g>
<path d="m930.07 483.59 0.84758 4.7487q0.4217 2.3627 2.7844 1.941l7.622-1.3604q2.3627-0.4217 1.941-2.7844l-0.84758-4.7487q-0.4217-2.3627-2.7844-1.941l-7.622 1.3604q-2.3627 0.4217-1.941 2.7844z" clip-path="url(#a)" fill="#fff" stroke="#fff"/>
<g clip-path="url(#a)">
<g transform="translate(934.07 482.87) rotate(79.88) scale(.08 -.08)">
<use xlink:href="#ah"/>
</g>
</g>
<path d="m981.75 315.95 4.0636 3.6654q1.7821 1.6075 3.3896-0.17461l5.1859-5.7492q1.6075-1.7821-0.17461-3.3896l-4.0636-3.6654q-1.7821-1.6075-3.3896 0.17461l-5.1859 5.7492q-1.6075 1.7821 0.17461 3.3896z" clip-path="url(#a)" fill="#fff" stroke="#fff"/>
<g clip-path="url(#a)">
<g transform="translate(984.47 312.94) rotate(42.051) scale(.08 -.08)">
<use xlink:href="#p"/>
</g>
</g>
<path d="m1072.5 402.33 4.0149 3.7188q1.7607 1.6309 3.3916-0.12986l5.2613-5.6802q1.6309-1.7607-0.12986-3.3916l-4.0149-3.7188q-1.7607-1.6309-3.3916 0.12986l-5.2613 5.6802q-1.6309 1.7607 0.12986 3.3916z" clip-path="url(#a)" fill="#fff" stroke="#fff"/>
<g clip-path="url(#a)">
<g transform="translate(1075.3 399.35) rotate(42.807) scale(.08 -.08)">
<use xlink:href="#p"/>
</g>
</g>
<path d="m559.44 491.49 4.3122-3.3694q1.8911-1.4777 0.41345-3.3688l-4.7671-6.1009q-1.4777-1.8911-3.3688-0.41345l-4.3122 3.3694q-1.8911 1.4777-0.41345 3.3688l4.7671 6.1009q1.4777 1.8911 3.3688 0.41345z" clip-path="url(#a)" fill="#fff" stroke="#fff"/>
<g clip-path="url(#a)">
<g transform="translate(556.93 488.28) rotate(-38.003) scale(.08 -.08)">
<use xlink:href="#p"/>
</g>
</g>
<path d="m1403.1 812.34v35.285q0 2.4 2.4 2.4h7.7425q2.4 0 2.4-2.4v-35.285q0-2.4-2.4-2.4h-7.7425q-2.4 0-2.4 2.4z" clip-path="url(#a)" fill="#fff" stroke="#fff"/>
<g clip-path="url(#a)">
<g transform="translate(1407.1 812.34) rotate(90) scale(.08 -.08)">
<use xlink:href="#k"/>
<use x="60.818359" xlink:href="#f"/>
<use x="122.341797" xlink:href="#i"/>
<use x="163.439453" xlink:href="#l"/>
<use x="260.851562" xlink:href="#h"/>
<use x="288.634766" xlink:href="#g"/>
<use x="352.013672" xlink:href="#e"/>
<use x="413.292969" xlink:href="#j"/>
</g>
</g>
<path d="m1266.7 486.51 2.783 3.94q1.3847 1.9603 3.3449 0.57563l6.324-4.467q1.9603-1.3847 0.57563-3.3449l-2.783-3.94q-1.3847-1.9603-3.3449-0.57563l-6.324 4.467q-1.9603 1.3847-0.57563 3.3449z" clip-path="url(#a)" fill="#fff" stroke="#fff"/>
<g clip-path="url(#a)">
<g transform="translate(1270 484.16) rotate(54.764) scale(.08 -.08)">
<use xlink:href="#ah"/>
</g>
</g>
<path d="m1333.6 318.13 5.1582 1.8279q2.2622 0.80163 3.0638-1.4605l2.5861-7.2978q0.80163-2.2622-1.4605-3.0638l-5.1582-1.8279q-2.2622-0.80163-3.0638 1.4605l-2.5861 7.2978q-0.80163 2.2622 1.4605 3.0638z" clip-path="url(#a)" fill="#fff" stroke="#fff"/>
<g clip-path="url(#a)">
<g transform="translate(1335 314.3) rotate(19.513) scale(.08 -.08)">
<use xlink:href="#p"/>
</g>
</g>
<path d="m658.29 491.64 4.6902-2.8197q2.0569-1.2366 0.8203-3.2935l-3.9893-6.6356q-1.2366-2.0569-3.2935-0.8203l-4.6902 2.8197q-2.0569 1.2366-0.8203 3.2935l3.9893 6.6356q1.2366 2.0569 3.2935 0.8203z" clip-path="url(#a)" fill="#fff" stroke="#fff"/>
<g clip-path="url(#a)">
<g transform="translate(656.19 488.16) rotate(-31.014) scale(.08 -.08)">
<use xlink:href="#p"/>
</g>
</g>
<path d="m1450.5 812.34v35.285q0 2.4 2.4 2.4h7.7425q2.4 0 2.4-2.4v-35.285q0-2.4-2.4-2.4h-7.7425q-2.4 0-2.4 2.4z" clip-path="url(#a)" fill="#fff" stroke="#fff"/>
<g clip-path="url(#a)">
<g transform="translate(1454.5 812.34) rotate(90) scale(.08 -.08)">
<use xlink:href="#k"/>
<use x="60.818359" xlink:href="#f"/>
<use x="122.341797" xlink:href="#i"/>
<use x="163.439453" xlink:href="#l"/>
<use x="260.851562" xlink:href="#h"/>
<use x="288.634766" xlink:href="#g"/>
<use x="352.013672" xlink:href="#e"/>
<use x="413.292969" xlink:href="#j"/>
</g>
</g>
<path d="m1551 577.16 1.3041-5.4036q0.56306-2.333-1.77-2.8961l-7.5264-1.8165q-2.333-0.56306-2.8961 1.7699l-1.3041 5.4036q-0.56306 2.333 1.77 2.8961l7.5264 1.8165q2.333 0.56306 2.8961-1.77z" clip-path="url(#a)" fill="#fff" stroke="#fff"/>
<g clip-path="url(#a)">
<defs>
<path id="v" d="m44.391 34.188q3.1719-1.0781 6.1719-4.5938t6.0312-9.6719l10.016-19.922h-10.609l-9.3125 18.703q-3.625 7.3281-7.0156 9.7188t-9.25 2.3906h-10.75v-30.812h-9.8594v72.906h22.266q12.5 0 18.656-5.2344 6.1562-5.2188 6.1562-15.766 0-6.8906-3.2031-11.438-3.2031-4.5312-9.2969-6.2812zm-24.719 30.609v-25.875h12.406q7.125 0 10.766 3.2969t3.6406 9.6875-3.6406 9.6406-10.766 3.25z"/>
</defs>
<g transform="translate(1547 576.2) rotate(-76.431) scale(.08 -.08)">
<use xlink:href="#v"/>
</g>
</g>
<path d="m1575.2 576.14 0.52008-5.0282q0.24692-2.3873-2.1403-2.6342l-7.7014-0.79659q-2.3873-0.24692-2.6342 2.1403l-0.52009 5.0282q-0.24692 2.3873 2.1403 2.6342l7.7014 0.79659q2.3873 0.24692 2.6342-2.1403z" clip-path="url(#a)" fill="#fff" stroke="#fff"/>
<g clip-path="url(#a)">
<defs>
<path id="u" d="m9.8125 72.906h46.094v-8.3125h-36.234v-21.578h34.719v-8.2969h-34.719v-26.422h37.109v-8.2969h-46.969z"/>
</defs>
<g transform="translate(1571.2 575.72) rotate(-84.095) scale(.08 -.08)">
<use xlink:href="#u"/>
</g>
</g>
<path d="m1586.5 570.41 0.19249 5.5829q0.082698 2.3986 2.4813 2.3159l7.7379-0.26679q2.3986-0.082698 2.3159-2.4813l-0.19249-5.5829q-0.082699-2.3986-2.4813-2.3159l-7.7379 0.26679q-2.3986 0.082698-2.3159 2.4813z" clip-path="url(#a)" fill="#fff" stroke="#fff"/>
<g clip-path="url(#a)">
<defs>
<path id="s" d="m64.406 67.281v-10.391q-4.9844 4.6406-10.625 6.9219-5.6406 2.2969-11.984 2.2969-12.5 0-19.141-7.6406t-6.6406-22.094q0-14.406 6.6406-22.047t19.141-7.6406q6.3438 0 11.984 2.2969t10.625 6.9375v-10.312q-5.1719-3.5156-10.969-5.2812-5.7812-1.75-12.219-1.75-16.562 0-26.094 10.125-9.5156 10.141-9.5156 27.672 0 17.578 9.5156 27.703 9.5312 10.141 26.094 10.141 6.5312 0 12.312-1.7344 5.7969-1.7344 10.875-5.2031z"/>
</defs>
<g transform="translate(1590.6 570.27) rotate(88.025) scale(.08 -.08)">
<use xlink:href="#s"/>
</g>
</g>
<path d="m1633.6 488.85 2.6523 4.3033q1.2593 2.0431 3.3024 0.78384l6.5911-4.0624q2.0431-1.2593 0.78384-3.3024l-2.6523-4.3033q-1.2593-2.0431-3.3024-0.78384l-6.5911 4.0624q-2.0431 1.2593-0.78384 3.3024z" clip-path="url(#a)" fill="#fff" stroke="#fff"/>
<g clip-path="url(#a)">
<g transform="translate(1637.1 486.72) rotate(58.352) scale(.08 -.08)">
<use xlink:href="#u"/>
</g>
</g>
<path d="m1497.8 812.34v35.285q0 2.4 2.4 2.4h7.7425q2.4 0 2.4-2.4v-35.285q0-2.4-2.4-2.4h-7.7425q-2.4 0-2.4 2.4z" clip-path="url(#a)" fill="#fff" stroke="#fff"/>
<g clip-path="url(#a)">
<g transform="translate(1501.9 812.34) rotate(90) scale(.08 -.08)">
<use xlink:href="#k"/>
<use x="60.818359" xlink:href="#f"/>
<use x="122.341797" xlink:href="#i"/>
<use x="163.439453" xlink:href="#l"/>
<use x="260.851562" xlink:href="#h"/>
<use x="288.634766" xlink:href="#g"/>
<use x="352.013672" xlink:href="#e"/>
<use x="413.292969" xlink:href="#j"/>
</g>
</g>
<path d="m1545.2 812.34v35.285q0 2.4 2.4 2.4h7.7425q2.4 0 2.4-2.4v-35.285q0-2.4-2.4-2.4h-7.7425q-2.4 0-2.4 2.4z" clip-path="url(#a)" fill="#fff" stroke="#fff"/>
<g clip-path="url(#a)">
<g transform="translate(1549.3 812.34) rotate(90) scale(.08 -.08)">
<use xlink:href="#k"/>
<use x="60.818359" xlink:href="#f"/>
<use x="122.341797" xlink:href="#i"/>
<use x="163.439453" xlink:href="#l"/>
<use x="260.851562" xlink:href="#h"/>
<use x="288.634766" xlink:href="#g"/>
<use x="352.013672" xlink:href="#e"/>
<use x="413.292969" xlink:href="#j"/>
</g>
</g>
<path d="m1592.6 812.34v35.285q0 2.4 2.4 2.4h7.7425q2.4 0 2.4-2.4v-35.285q0-2.4-2.4-2.4h-7.7425q-2.4 0-2.4 2.4z" clip-path="url(#a)" fill="#fff" stroke="#fff"/>
<g clip-path="url(#a)">
<g transform="translate(1596.6 812.34) rotate(90) scale(.08 -.08)">
<use xlink:href="#k"/>
<use x="60.818359" xlink:href="#f"/>
<use x="122.341797" xlink:href="#i"/>
<use x="163.439453" xlink:href="#l"/>
<use x="260.851562" xlink:href="#h"/>
<use x="288.634766" xlink:href="#g"/>
<use x="352.013672" xlink:href="#e"/>
<use x="413.292969" xlink:href="#j"/>
</g>
</g>
<path d="m1675.2 663.8 1.4876-5.356q0.64227-2.3125-1.6702-2.9547l-7.4601-2.072q-2.3125-0.64227-2.9547 1.6702l-1.4876 5.356q-0.64227 2.3125 1.6702 2.9547l7.4601 2.072q2.3125 0.64227 2.9547-1.6702z" clip-path="url(#a)" fill="#fff" stroke="#fff"/>
<g clip-path="url(#a)">
<g transform="translate(1671.3 662.71) rotate(-74.478) scale(.08 -.08)">
<use xlink:href="#v"/>
</g>
</g>
<path d="m1687.3 656.65v5.5862q0 2.4 2.4 2.4h7.7425q2.4 0 2.4-2.4v-5.5862q0-2.4-2.4-2.4h-7.7425q-2.4 0-2.4 2.4z" clip-path="url(#a)" fill="#fff" stroke="#fff"/>
<g clip-path="url(#a)">
<g transform="translate(1691.4 656.65) rotate(90) scale(.08 -.08)">
<use xlink:href="#s"/>
</g>
</g>
<path d="m1710.4 658.3 1.5669 5.6414q0.64227 2.3125 2.9547 1.6702l7.4601-2.072q2.3125-0.64227 1.6702-2.9547l-1.5669-5.6414q-0.64227-2.3125-2.9547-1.6702l-7.4601 2.072q-2.3125 0.64227-1.6702 2.9547z" clip-path="url(#a)" fill="#fff" stroke="#fff"/>
<g clip-path="url(#a)">
<g transform="translate(1714.3 657.21) rotate(74.478) scale(.08 -.08)">
<use xlink:href="#aa"/>
</g>
</g>
<path d="m1639.9 812.34v35.285q0 2.4 2.4 2.4h7.7425q2.4 0 2.4-2.4v-35.285q0-2.4-2.4-2.4h-7.7425q-2.4 0-2.4 2.4z" clip-path="url(#a)" fill="#fff" stroke="#fff"/>
<g clip-path="url(#a)">
<g transform="translate(1644 812.34) rotate(90) scale(.08 -.08)">
<use xlink:href="#k"/>
<use x="60.818359" xlink:href="#f"/>
<use x="122.341797" xlink:href="#i"/>
<use x="163.439453" xlink:href="#l"/>
<use x="260.851562" xlink:href="#h"/>
<use x="288.634766" xlink:href="#g"/>
<use x="352.013672" xlink:href="#e"/>
<use x="413.292969" xlink:href="#j"/>
</g>
</g>
<path d="m1687.3 812.34v35.285q0 2.4 2.4 2.4h7.7425q2.4 0 2.4-2.4v-35.285q0-2.4-2.4-2.4h-7.7425q-2.4 0-2.4 2.4z" clip-path="url(#a)" fill="#fff" stroke="#fff"/>
<g clip-path="url(#a)">
<g transform="translate(1691.4 812.34) rotate(90) scale(.08 -.08)">
<use xlink:href="#k"/>
<use x="60.818359" xlink:href="#f"/>
<use x="122.341797" xlink:href="#i"/>
<use x="163.439453" xlink:href="#l"/>
<use x="260.851562" xlink:href="#h"/>
<use x="288.634766" xlink:href="#g"/>
<use x="352.013672" xlink:href="#e"/>
<use x="413.292969" xlink:href="#j"/>
</g>
</g>
<path d="m976.78 812.34v35.285q0 2.4 2.4 2.4h7.7425q2.4 0 2.4-2.4v-35.285q0-2.4-2.4-2.4h-7.7425q-2.4 0-2.4 2.4z" clip-path="url(#a)" fill="#fff" stroke="#fff"/>
<g clip-path="url(#a)">
<g transform="translate(980.84 812.34) rotate(90) scale(.08 -.08)">
<use xlink:href="#k"/>
<use x="60.818359" xlink:href="#f"/>
<use x="122.341797" xlink:href="#i"/>
<use x="163.439453" xlink:href="#l"/>
<use x="260.851562" xlink:href="#h"/>
<use x="288.634766" xlink:href="#g"/>
<use x="352.013672" xlink:href="#e"/>
<use x="413.292969" xlink:href="#j"/>
</g>
</g>
<path d="m1063.8 576.47 0.80301-4.9908q0.38125-2.3695-1.9883-2.7508l-7.6442-1.2299q-2.3695-0.38125-2.7508 1.9883l-0.80301 4.9908q-0.38125 2.3695 1.9883 2.7508l7.6442 1.2299q2.3695 0.38125 2.7508-1.9883z" clip-path="url(#a)" fill="#fff" stroke="#fff"/>
<g clip-path="url(#a)">
<g transform="translate(1059.8 575.83) rotate(-80.86) scale(.08 -.08)">
<use xlink:href="#u"/>
</g>
</g>
<path d="m1087.9 575.92 0.12837-5.5848q0.05515-2.3994-2.3442-2.4545l-7.7405-0.17792q-2.3994-0.05515-2.4545 2.3442l-0.12837 5.5848q-0.05515 2.3994 2.3442 2.4545l7.7405 0.17792q2.3994 0.05515 2.4545-2.3442z" clip-path="url(#a)" fill="#fff" stroke="#fff"/>
<g clip-path="url(#a)">
<g transform="translate(1083.9 575.83) rotate(-88.683) scale(.08 -.08)">
<use xlink:href="#s"/>
</g>
</g>
<path d="m1110.5 487.49 1.7342 4.7482q0.82338 2.2543 3.0777 1.431l7.2726-2.6563q2.2543-0.82338 1.431-3.0777l-1.7342-4.7482q-0.82338-2.2543-3.0777-1.431l-7.2726 2.6563q-2.2543 0.82338-1.431 3.0777z" clip-path="url(#a)" fill="#fff" stroke="#fff"/>
<g clip-path="url(#a)">
<g transform="translate(1114.3 486.09) rotate(69.936) scale(.08 -.08)">
<use xlink:href="#u"/>
</g>
</g>
<path d="m1248.9 663.8 1.4876-5.356q0.64227-2.3125-1.6702-2.9547l-7.4601-2.072q-2.3125-0.64227-2.9547 1.6702l-1.4876 5.356q-0.64227 2.3125 1.6702 2.9547l7.4601 2.072q2.3125 0.64227 2.9547-1.6702z" clip-path="url(#a)" fill="#fff" stroke="#fff"/>
<g clip-path="url(#a)">
<g transform="translate(1245 662.71) rotate(-74.478) scale(.08 -.08)">
<use xlink:href="#v"/>
</g>
</g>
<path d="m1261 656.91v5.055q0 2.4 2.4 2.4h7.7425q2.4 0 2.4-2.4v-5.055q0-2.4-2.4-2.4h-7.7425q-2.4 0-2.4 2.4z" clip-path="url(#a)" fill="#fff" stroke="#fff"/>
<g clip-path="url(#a)">
<g transform="translate(1265 656.91) rotate(90) scale(.08 -.08)">
<use xlink:href="#u"/>
</g>
</g>
<path d="m1284.1 658.43 1.495 5.3825q0.64227 2.3125 2.9547 1.6702l7.4601-2.072q2.3125-0.64227 1.6702-2.9547l-1.495-5.3825q-0.64227-2.3125-2.9547-1.6702l-7.4601 2.072q-2.3125 0.64227-1.6702 2.9547z" clip-path="url(#a)" fill="#fff" stroke="#fff"/>
<g clip-path="url(#a)">
<g transform="translate(1288.1 657.34) rotate(74.478) scale(.08 -.08)">
<use xlink:href="#s"/>
</g>
</g>
<path d="m1213.6 812.34v35.285q0 2.4 2.4 2.4h7.7425q2.4 0 2.4-2.4v-35.285q0-2.4-2.4-2.4h-7.7425q-2.4 0-2.4 2.4z" clip-path="url(#a)" fill="#fff" stroke="#fff"/>
<g clip-path="url(#a)">
<g transform="translate(1217.7 812.34) rotate(90) scale(.08 -.08)">
<use xlink:href="#k"/>
<use x="60.818359" xlink:href="#f"/>
<use x="122.341797" xlink:href="#i"/>
<use x="163.439453" xlink:href="#l"/>
<use x="260.851562" xlink:href="#h"/>
<use x="288.634766" xlink:href="#g"/>
<use x="352.013672" xlink:href="#e"/>
<use x="413.292969" xlink:href="#j"/>
</g>
</g>
<path d="m1261 812.34v35.285q0 2.4 2.4 2.4h7.7425q2.4 0 2.4-2.4v-35.285q0-2.4-2.4-2.4h-7.7425q-2.4 0-2.4 2.4z" clip-path="url(#a)" fill="#fff" stroke="#fff"/>
<g clip-path="url(#a)">
<g transform="translate(1265 812.34) rotate(90) scale(.08 -.08)">
<use xlink:href="#k"/>
<use x="60.818359" xlink:href="#f"/>
<use x="122.341797" xlink:href="#i"/>
<use x="163.439453" xlink:href="#l"/>
<use x="260.851562" xlink:href="#h"/>
<use x="288.634766" xlink:href="#g"/>
<use x="352.013672" xlink:href="#e"/>
<use x="413.292969" xlink:href="#j"/>
</g>
</g>
<path d="m1308.4 812.34v35.285q0 2.4 2.4 2.4h7.7425q2.4 0 2.4-2.4v-35.285q0-2.4-2.4-2.4h-7.7425q-2.4 0-2.4 2.4z" clip-path="url(#a)" fill="#fff" stroke="#fff"/>
<g clip-path="url(#a)">
<g transform="translate(1312.4 812.34) rotate(90) scale(.08 -.08)">
<use xlink:href="#k"/>
<use x="60.818359" xlink:href="#f"/>
<use x="122.341797" xlink:href="#i"/>
<use x="163.439453" xlink:href="#l"/>
<use x="260.851562" xlink:href="#h"/>
<use x="288.634766" xlink:href="#g"/>
<use x="352.013672" xlink:href="#e"/>
<use x="413.292969" xlink:href="#j"/>
</g>
</g>
<path d="m1024.1 812.34v35.285q0 2.4 2.4 2.4h7.7425q2.4 0 2.4-2.4v-35.285q0-2.4-2.4-2.4h-7.7425q-2.4 0-2.4 2.4z" clip-path="url(#a)" fill="#fff" stroke="#fff"/>
<g clip-path="url(#a)">
<g transform="translate(1028.2 812.34) rotate(90) scale(.08 -.08)">
<use xlink:href="#k"/>
<use x="60.818359" xlink:href="#f"/>
<use x="122.341797" xlink:href="#i"/>
<use x="163.439453" xlink:href="#l"/>
<use x="260.851562" xlink:href="#h"/>
<use x="288.634766" xlink:href="#g"/>
<use x="352.013672" xlink:href="#e"/>
<use x="413.292969" xlink:href="#j"/>
</g>
</g>
<path d="m1071.5 812.34v35.285q0 2.4 2.4 2.4h7.7425q2.4 0 2.4-2.4v-35.285q0-2.4-2.4-2.4h-7.7425q-2.4 0-2.4 2.4z" clip-path="url(#a)" fill="#fff" stroke="#fff"/>
<g clip-path="url(#a)">
<g transform="translate(1075.6 812.34) rotate(90) scale(.08 -.08)">
<use xlink:href="#k"/>
<use x="60.818359" xlink:href="#f"/>
<use x="122.341797" xlink:href="#i"/>
<use x="163.439453" xlink:href="#l"/>
<use x="260.851562" xlink:href="#h"/>
<use x="288.634766" xlink:href="#g"/>
<use x="352.013672" xlink:href="#e"/>
<use x="413.292969" xlink:href="#j"/>
</g>
</g>
<path d="m1142.8 663.06 0.76461-5.5059q0.33012-2.3772-2.0471-2.7073l-7.6689-1.065q-2.3772-0.33012-2.7073 2.0471l-0.76461 5.5059q-0.33012 2.3772 2.0471 2.7073l7.6689 1.065q2.3772 0.33012 2.7073-2.0471z" clip-path="url(#a)" fill="#fff" stroke="#fff"/>
<g clip-path="url(#a)">
<g transform="translate(1138.8 662.5) rotate(-82.094) scale(.08 -.08)">
<use xlink:href="#v"/>
</g>
</g>
<path d="m1154.1 657.54 0.7684 5.5332q0.33012 2.3772 2.7073 2.0471l7.6689-1.065q2.3772-0.33012 2.0471-2.7073l-0.7684-5.5332q-0.33012-2.3772-2.7073-2.0471l-7.6689 1.065q-2.3772 0.33012-2.0471 2.7073z" clip-path="url(#a)" fill="#fff" stroke="#fff"/>
<g clip-path="url(#a)">
<g transform="translate(1158.1 656.98) rotate(82.094) scale(.08 -.08)">
<use xlink:href="#s"/>
</g>
</g>
<path d="m1118.9 812.34v35.285q0 2.4 2.4 2.4h7.7425q2.4 0 2.4-2.4v-35.285q0-2.4-2.4-2.4h-7.7425q-2.4 0-2.4 2.4z" clip-path="url(#a)" fill="#fff" stroke="#fff"/>
<g clip-path="url(#a)">
<g transform="translate(1122.9 812.34) rotate(90) scale(.08 -.08)">
<use xlink:href="#k"/>
<use x="60.818359" xlink:href="#f"/>
<use x="122.341797" xlink:href="#i"/>
<use x="163.439453" xlink:href="#l"/>
<use x="260.851562" xlink:href="#h"/>
<use x="288.634766" xlink:href="#g"/>
<use x="352.013672" xlink:href="#e"/>
<use x="413.292969" xlink:href="#j"/>
</g>
</g>
<path d="m1166.2 812.34v35.285q0 2.4 2.4 2.4h7.7425q2.4 0 2.4-2.4v-35.285q0-2.4-2.4-2.4h-7.7425q-2.4 0-2.4 2.4z" clip-path="url(#a)" fill="#fff" stroke="#fff"/>
<g clip-path="url(#a)">
<g transform="translate(1170.3 812.34) rotate(90) scale(.08 -.08)">
<use xlink:href="#k"/>
<use x="60.818359" xlink:href="#f"/>
<use x="122.341797" xlink:href="#i"/>
<use x="163.439453" xlink:href="#l"/>
<use x="260.851562" xlink:href="#h"/>
<use x="288.634766" xlink:href="#g"/>
<use x="352.013672" xlink:href="#e"/>
<use x="413.292969" xlink:href="#j"/>
</g>
</g>
<path d="m455.74 812.34v35.285q0 2.4 2.4 2.4h7.7425q2.4 0 2.4-2.4v-35.285q0-2.4-2.4-2.4h-7.7425q-2.4 0-2.4 2.4z" clip-path="url(#a)" fill="#fff" stroke="#fff"/>
<g clip-path="url(#a)">
<g transform="translate(459.8 812.34) rotate(90) scale(.08 -.08)">
<use xlink:href="#k"/>
<use x="60.818359" xlink:href="#f"/>
<use x="122.341797" xlink:href="#i"/>
<use x="163.439453" xlink:href="#l"/>
<use x="260.851562" xlink:href="#h"/>
<use x="288.634766" xlink:href="#g"/>
<use x="352.013672" xlink:href="#e"/>
<use x="413.292969" xlink:href="#j"/>
</g>
</g>
<path d="m655.26 491.46 0.88147-5.5163q0.3787-2.3699-1.9912-2.7486l-7.6455-1.2217q-2.3699-0.3787-2.7486 1.9912l-0.88147 5.5163q-0.3787 2.3699 1.9912 2.7486l7.6455 1.2217q2.3699 0.3787 2.7486-1.9912z" clip-path="url(#a)" fill="#fff" stroke="#fff"/>
<g clip-path="url(#a)">
<g transform="translate(651.24 490.82) rotate(-80.921) scale(.08 -.08)">
<use xlink:href="#s"/>
</g>
</g>
<path d="m626.32 492.94 2.4148-5.0373q1.0375-2.1642-1.1267-3.2016l-6.9817-3.3469q-2.1642-1.0375-3.2016 1.1267l-2.4148 5.0373q-1.0375 2.1642 1.1267 3.2016l6.9817 3.3469q2.1642 1.0375 3.2016-1.1267z" clip-path="url(#a)" fill="#fff" stroke="#fff"/>
<g clip-path="url(#a)">
<g transform="translate(622.66 491.18) rotate(-64.388) scale(.08 -.08)">
<use xlink:href="#s"/>
</g>
</g>
<path d="m697.97 571.54 1.4041 5.818q0.56306 2.333 2.8961 1.77l7.5264-1.8165q2.333-0.56306 1.77-2.8961l-1.4041-5.818q-0.56306-2.333-2.8961-1.77l-7.5264 1.8165q-2.333 0.56306-1.77 2.8961z" clip-path="url(#a)" fill="#fff" stroke="#fff"/>
<g clip-path="url(#a)">
<defs>
<path id="aq" d="m9.8125 72.906h13.281l32.328-60.984v60.984h9.5625v-72.906h-13.281l-32.312 60.984v-60.984h-9.5781z"/>
</defs>
<g transform="translate(701.92 570.59) rotate(76.431) scale(.08 -.08)">
<use xlink:href="#aq"/>
</g>
</g>
<path d="m682.17 486.82 1.5893 5.3554q0.68279 2.3008 2.9836 1.618l7.4226-2.2027q2.3008-0.68279 1.618-2.9836l-1.5893-5.3554q-0.68279-2.3008-2.9836-1.618l-7.4226 2.2027q-2.3008 0.68279-1.618 2.9836z" clip-path="url(#a)" fill="#fff" stroke="#fff"/>
<g clip-path="url(#a)">
<g transform="translate(686.07 485.66) rotate(73.471) scale(.08 -.08)">
<use xlink:href="#s"/>
</g>
</g>
<path d="m639.4 576.93 0.99467-5.7699q0.40772-2.3651-1.9574-2.7728l-7.63-1.3153q-2.3651-0.40772-2.7728 1.9574l-0.99467 5.7699q-0.40772 2.3651 1.9574 2.7728l7.63 1.3153q2.3651 0.40772 2.7728-1.9574z" clip-path="url(#a)" fill="#fff" stroke="#fff"/>
<g clip-path="url(#a)">
<g transform="translate(635.39 576.24) rotate(-80.219) scale(.08 -.08)">
<use xlink:href="#aa"/>
</g>
</g>
<path d="m674.54 570.72 0.60239 5.8239q0.24692 2.3873 2.6342 2.1403l7.7014-0.79659q2.3873-0.24692 2.1403-2.6342l-0.60239-5.8239q-0.24692-2.3873-2.6342-2.1403l-7.7014 0.79659q-2.3873 0.24692-2.1403 2.6342z" clip-path="url(#a)" fill="#fff" stroke="#fff"/>
<g clip-path="url(#a)">
<g transform="translate(678.59 570.3) rotate(84.095) scale(.08 -.08)">
<use xlink:href="#aa"/>
</g>
</g>
<path d="m732.16 662.48 4.2967 3.57q1.846 1.5338 3.3797-0.3122l4.948-5.9552q1.5338-1.846-0.3122-3.3797l-4.2967-3.57q-1.846-1.5338-3.3797 0.3122l-4.948 5.9552q-1.5338 1.846 0.3122 3.3797z" clip-path="url(#a)" fill="#fff" stroke="#fff"/>
<g clip-path="url(#a)">
<g transform="translate(734.76 659.35) rotate(39.722) scale(.08 -.08)">
<use xlink:href="#s"/>
</g>
</g>
<path d="m576.07 665.2 3.0086-4.0622q1.4284-1.9286-0.50019-3.3571l-6.2218-4.6082q-1.9286-1.4284-3.3571 0.50019l-3.0086 4.0622q-1.4284 1.9286 0.50019 3.3571l6.2218 4.6082q1.9286 1.4284 3.3571-0.50019z" clip-path="url(#a)" fill="#fff" stroke="#fff"/>
<g clip-path="url(#a)">
<g transform="translate(572.8 662.79) rotate(-53.475) scale(.08 -.08)">
<use xlink:href="#u"/>
</g>
</g>
<path d="m600.85 664.37 2.1235-4.5873q1.0082-2.178-1.1698-3.1862l-7.0262-3.2525q-2.178-1.0082-3.1862 1.1698l-2.1235 4.5873q-1.0082 2.178 1.1698 3.1862l7.0262 3.2525q2.178 1.0082 3.1862-1.1698z" clip-path="url(#a)" fill="#fff" stroke="#fff"/>
<g clip-path="url(#a)">
<g transform="translate(597.16 662.66) rotate(-65.16) scale(.08 -.08)">
<use xlink:href="#u"/>
</g>
</g>
<path d="m609.09 659.27 2.1483 5.1566q0.92298 2.2154 3.1384 1.2924l7.1471-2.9776q2.2154-0.92298 1.2924-3.1384l-2.1483-5.1566q-0.92298-2.2154-3.1384-1.2924l-7.1471 2.9776q-2.2154 0.92298-1.2924 3.1384z" clip-path="url(#a)" fill="#fff" stroke="#fff"/>
<g clip-path="url(#a)">
<g transform="translate(612.84 657.71) rotate(67.383) scale(.08 -.08)">
<use xlink:href="#s"/>
</g>
</g>
<path d="m549.72 664.18 1.944-4.6662q0.92298-2.2154-1.2924-3.1384l-7.1471-2.9776q-2.2154-0.92298-3.1384 1.2924l-1.944 4.6662q-0.92298 2.2154 1.2924 3.1384l7.1471 2.9776q2.2154 0.92298 3.1384-1.2924z" clip-path="url(#a)" fill="#fff" stroke="#fff"/>
<g clip-path="url(#a)">
<g transform="translate(545.97 662.62) rotate(-67.383) scale(.08 -.08)">
<use xlink:href="#u"/>
</g>
</g>
<path d="m739.94 812.34v35.285q0 2.4 2.4 2.4h7.7425q2.4 0 2.4-2.4v-35.285q0-2.4-2.4-2.4h-7.7425q-2.4 0-2.4 2.4z" clip-path="url(#a)" fill="#fff" stroke="#fff"/>
<g clip-path="url(#a)">
<g transform="translate(744.01 812.34) rotate(90) scale(.08 -.08)">
<use xlink:href="#k"/>
<use x="60.818359" xlink:href="#f"/>
<use x="122.341797" xlink:href="#i"/>
<use x="163.439453" xlink:href="#l"/>
<use x="260.851562" xlink:href="#h"/>
<use x="288.634766" xlink:href="#g"/>
<use x="352.013672" xlink:href="#e"/>
<use x="413.292969" xlink:href="#j"/>
</g>
</g>
<path d="m747.36 659.78 2.1235 4.5873q1.0082 2.178 3.1862 1.1698l7.0262-3.2525q2.178-1.0082 1.1698-3.1862l-2.1235-4.5873q-1.0082-2.178-3.1862-1.1698l-7.0262 3.2525q-2.178 1.0082-1.1698 3.1862z" clip-path="url(#a)" fill="#fff" stroke="#fff"/>
<g clip-path="url(#a)">
<g transform="translate(751.04 658.07) rotate(65.16) scale(.08 -.08)">
<use xlink:href="#u"/>
</g>
</g>
<path d="m771.09 660.93 3.3248 4.4891q1.4284 1.9286 3.3571 0.50019l6.2218-4.6082q1.9286-1.4284 0.50019-3.3571l-3.3248-4.4891q-1.4284-1.9286-3.3571-0.50019l-6.2218 4.6082q-1.9286 1.4284-0.50019 3.3571z" clip-path="url(#a)" fill="#fff" stroke="#fff"/>
<g clip-path="url(#a)">
<g transform="translate(774.36 658.51) rotate(53.475) scale(.08 -.08)">
<use xlink:href="#s"/>
</g>
</g>
<path d="m614.07 665.88 3.8881-3.2305q1.846-1.5338 0.3122-3.3797l-4.948-5.9552q-1.5338-1.846-3.3797-0.3122l-3.8881 3.2305q-1.846 1.5338-0.3122 3.3797l4.948 5.9552q1.5338 1.846 3.3797 0.3122z" clip-path="url(#a)" fill="#fff" stroke="#fff"/>
<g clip-path="url(#a)">
<g transform="translate(611.47 662.75) rotate(-39.722) scale(.08 -.08)">
<use xlink:href="#u"/>
</g>
</g>
<path d="m787.31 812.34v35.285q0 2.4 2.4 2.4h7.7425q2.4 0 2.4-2.4v-35.285q0-2.4-2.4-2.4h-7.7425q-2.4 0-2.4 2.4z" clip-path="url(#a)" fill="#fff" stroke="#fff"/>
<g clip-path="url(#a)">
<g transform="translate(791.37 812.34) rotate(90) scale(.08 -.08)">
<use xlink:href="#k"/>
<use x="60.818359" xlink:href="#f"/>
<use x="122.341797" xlink:href="#i"/>
<use x="163.439453" xlink:href="#l"/>
<use x="260.851562" xlink:href="#h"/>
<use x="288.634766" xlink:href="#g"/>
<use x="352.013672" xlink:href="#e"/>
<use x="413.292969" xlink:href="#j"/>
</g>
</g>
<path d="m834.68 812.34v35.285q0 2.4 2.4 2.4h7.7425q2.4 0 2.4-2.4v-35.285q0-2.4-2.4-2.4h-7.7425q-2.4 0-2.4 2.4z" clip-path="url(#a)" fill="#fff" stroke="#fff"/>
<g clip-path="url(#a)">
<g transform="translate(838.74 812.34) rotate(90) scale(.08 -.08)">
<use xlink:href="#k"/>
<use x="60.818359" xlink:href="#f"/>
<use x="122.341797" xlink:href="#i"/>
<use x="163.439453" xlink:href="#l"/>
<use x="260.851562" xlink:href="#h"/>
<use x="288.634766" xlink:href="#g"/>
<use x="352.013672" xlink:href="#e"/>
<use x="413.292969" xlink:href="#j"/>
</g>
</g>
<path d="m645.21 812.34v35.285q0 2.4 2.4 2.4h7.7425q2.4 0 2.4-2.4v-35.285q0-2.4-2.4-2.4h-7.7425q-2.4 0-2.4 2.4z" clip-path="url(#a)" fill="#fff" stroke="#fff"/>
<g clip-path="url(#a)">
<g transform="translate(649.27 812.34) rotate(90) scale(.08 -.08)">
<use xlink:href="#k"/>
<use x="60.818359" xlink:href="#f"/>
<use x="122.341797" xlink:href="#i"/>
<use x="163.439453" xlink:href="#l"/>
<use x="260.851562" xlink:href="#h"/>
<use x="288.634766" xlink:href="#g"/>
<use x="352.013672" xlink:href="#e"/>
<use x="413.292969" xlink:href="#j"/>
</g>
</g>
<path d="m503.11 812.34v35.285q0 2.4 2.4 2.4h7.7425q2.4 0 2.4-2.4v-35.285q0-2.4-2.4-2.4h-7.7425q-2.4 0-2.4 2.4z" clip-path="url(#a)" fill="#fff" stroke="#fff"/>
<g clip-path="url(#a)">
<g transform="translate(507.17 812.34) rotate(90) scale(.08 -.08)">
<use xlink:href="#k"/>
<use x="60.818359" xlink:href="#f"/>
<use x="122.341797" xlink:href="#i"/>
<use x="163.439453" xlink:href="#l"/>
<use x="260.851562" xlink:href="#h"/>
<use x="288.634766" xlink:href="#g"/>
<use x="352.013672" xlink:href="#e"/>
<use x="413.292969" xlink:href="#j"/>
</g>
</g>
<path d="m550.47 812.34v35.285q0 2.4 2.4 2.4h7.7425q2.4 0 2.4-2.4v-35.285q0-2.4-2.4-2.4h-7.7425q-2.4 0-2.4 2.4z" clip-path="url(#a)" fill="#fff" stroke="#fff"/>
<g clip-path="url(#a)">
<g transform="translate(554.54 812.34) rotate(90) scale(.08 -.08)">
<use xlink:href="#k"/>
<use x="60.818359" xlink:href="#f"/>
<use x="122.341797" xlink:href="#i"/>
<use x="163.439453" xlink:href="#l"/>
<use x="260.851562" xlink:href="#h"/>
<use x="288.634766" xlink:href="#g"/>
<use x="352.013672" xlink:href="#e"/>
<use x="413.292969" xlink:href="#j"/>
</g>
</g>
<path d="m195.51 662.81 0.69532-5.007q0.33012-2.3772-2.0471-2.7073l-7.6689-1.065q-2.3772-0.33012-2.7073 2.0471l-0.69532 5.007q-0.33012 2.3772 2.0471 2.7073l7.6689 1.065q2.3772 0.33012 2.7073-2.0471z" clip-path="url(#a)" fill="#fff" stroke="#fff"/>
<g clip-path="url(#a)">
<g transform="translate(191.49 662.25) rotate(-82.094) scale(.08 -.08)">
<use xlink:href="#u"/>
</g>
</g>
<path d="m206.74 657.54 0.7684 5.5332q0.33012 2.3772 2.7073 2.0471l7.6689-1.065q2.3772-0.33012 2.0471-2.7073l-0.7684-5.5332q-0.33012-2.3772-2.7073-2.0471l-7.6689 1.065q-2.3772 0.33012-2.0471 2.7073z" clip-path="url(#a)" fill="#fff" stroke="#fff"/>
<g clip-path="url(#a)">
<g transform="translate(210.76 656.98) rotate(82.094) scale(.08 -.08)">
<use xlink:href="#s"/>
</g>
</g>
<path d="m297.55 848.66 9.4427-33.998q0.64227-2.3125-1.6702-2.9547l-7.4601-2.072q-2.3125-0.64227-2.9547 1.6702l-9.4427 33.998q-0.64227 2.3125 1.6702 2.9547l7.4601 2.072q2.3125 0.64227 2.9547-1.6702z" clip-path="url(#a)" fill="#fff" stroke="#fff"/>
<g clip-path="url(#a)">
<g transform="translate(293.63 847.57) rotate(-74.478) scale(.08 -.08)">
<use xlink:href="#k"/>
<use x="60.818359" xlink:href="#f"/>
<use x="122.341797" xlink:href="#i"/>
<use x="163.439453" xlink:href="#l"/>
<use x="260.851562" xlink:href="#h"/>
<use x="288.634766" xlink:href="#g"/>
<use x="352.013672" xlink:href="#e"/>
<use x="413.292969" xlink:href="#j"/>
</g>
</g>
<path d="m332.83 814.66 9.4427 33.998q0.64227 2.3125 2.9547 1.6702l7.4601-2.072q2.3125-0.64227 1.6702-2.9547l-9.4427-33.998q-0.64227-2.3125-2.9547-1.6702l-7.4601 2.072q-2.3125 0.64227-1.6702 2.9547z" clip-path="url(#a)" fill="#fff" stroke="#fff"/>
<g clip-path="url(#a)">
<g transform="translate(336.74 813.58) rotate(74.478) scale(.08 -.08)">
<use xlink:href="#k"/>
<use x="60.818359" xlink:href="#f"/>
<use x="122.341797" xlink:href="#i"/>
<use x="163.439453" xlink:href="#l"/>
<use x="260.851562" xlink:href="#h"/>
<use x="288.634766" xlink:href="#g"/>
<use x="352.013672" xlink:href="#e"/>
<use x="413.292969" xlink:href="#j"/>
</g>
</g>
<path d="m313.64 812.34v35.285q0 2.4 2.4 2.4h7.7425q2.4 0 2.4-2.4v-35.285q0-2.4-2.4-2.4h-7.7425q-2.4 0-2.4 2.4z" clip-path="url(#a)" fill="#fff" stroke="#fff"/>
<g clip-path="url(#a)">
<g transform="translate(317.7 812.34) rotate(90) scale(.08 -.08)">
<use xlink:href="#k"/>
<use x="60.818359" xlink:href="#f"/>
<use x="122.341797" xlink:href="#i"/>
<use x="163.439453" xlink:href="#l"/>
<use x="260.851562" xlink:href="#h"/>
<use x="288.634766" xlink:href="#g"/>
<use x="352.013672" xlink:href="#e"/>
<use x="413.292969" xlink:href="#j"/>
</g>
</g>
<path d="m171.53 812.34v35.285q0 2.4 2.4 2.4h7.7425q2.4 0 2.4-2.4v-35.285q0-2.4-2.4-2.4h-7.7425q-2.4 0-2.4 2.4z" clip-path="url(#a)" fill="#fff" stroke="#fff"/>
<g clip-path="url(#a)">
<g transform="translate(175.6 812.34) rotate(90) scale(.08 -.08)">
<use xlink:href="#k"/>
<use x="60.818359" xlink:href="#f"/>
<use x="122.341797" xlink:href="#i"/>
<use x="163.439453" xlink:href="#l"/>
<use x="260.851562" xlink:href="#h"/>
<use x="288.634766" xlink:href="#g"/>
<use x="352.013672" xlink:href="#e"/>
<use x="413.292969" xlink:href="#j"/>
</g>
</g>
<path d="m218.9 812.34v35.285q0 2.4 2.4 2.4h7.7425q2.4 0 2.4-2.4v-35.285q0-2.4-2.4-2.4h-7.7425q-2.4 0-2.4 2.4z" clip-path="url(#a)" fill="#fff" stroke="#fff"/>
<g clip-path="url(#a)">
<g transform="translate(222.97 812.34) rotate(90) scale(.08 -.08)">
<use xlink:href="#k"/>
<use x="60.818359" xlink:href="#f"/>
<use x="122.341797" xlink:href="#i"/>
<use x="163.439453" xlink:href="#l"/>
<use x="260.851562" xlink:href="#h"/>
<use x="288.634766" xlink:href="#g"/>
<use x="352.013672" xlink:href="#e"/>
<use x="413.292969" xlink:href="#j"/>
</g>
</g>
<path d="m1009.8 142.87 7.9355-5.9735q1.9175-1.4434 0.47408-3.3608l-4.6564-6.1858q-1.4434-1.9175-3.3608-0.47408l-7.9355 5.9735q-1.9175 1.4434-0.47408 3.3608l4.6564 6.1858q1.4434 1.9175 3.3608 0.47408z" clip-path="url(#a)" fill="#fff" stroke="#fff"/>
<g clip-path="url(#a)">
<g transform="translate(1007.4 139.63) rotate(-36.971) scale(.08 -.08)">
<use xlink:href="#o"/>
<use x="55.744141" xlink:href="#p"/>
</g>
</g>
<path d="m1261.9 392.4 3.7155 9.3016q0.89027 2.2288 3.119 1.3385l7.1901-2.8721q2.2288-0.89027 1.3385-3.119l-3.7155-9.3016q-0.89027-2.2288-3.119-1.3385l-7.1901 2.8721q-2.2288 0.89027-1.3385 3.119z" clip-path="url(#a)" fill="#fff" stroke="#fff"/>
<g clip-path="url(#a)">
<g transform="translate(1265.7 390.9) rotate(68.226) scale(.08 -.08)">
<use xlink:href="#o"/>
<use x="55.712891" xlink:href="#v"/>
</g>
</g>
<path d="m1114.7 141.09 2.1584-9.6952q0.52153-2.3426-1.8211-2.8642l-7.5575-1.6825q-2.3426-0.52153-2.8642 1.8211l-2.1584 9.6952q-0.52153 2.3426 1.8211 2.8642l7.5575 1.6825q2.3426 0.52153 2.8642-1.8211z" clip-path="url(#a)" fill="#fff" stroke="#fff"/>
<g clip-path="url(#a)">
<g transform="translate(1110.8 140.2) rotate(-77.449) scale(.08 -.08)">
<use xlink:href="#o"/>
<use x="55.744141" xlink:href="#p"/>
</g>
</g>
<path d="m491.54 230.99 7.5851-6.4125q1.8328-1.5495 0.28334-3.3823l-4.9986-5.9127q-1.5495-1.8328-3.3823-0.28334l-7.5851 6.4125q-1.8328 1.5495-0.28334 3.3823l4.9986 5.9127q1.5495 1.8328 3.3823 0.28334z" clip-path="url(#a)" fill="#fff" stroke="#fff"/>
<g clip-path="url(#a)">
<g transform="translate(488.92 227.89) rotate(-40.211) scale(.08 -.08)">
<use xlink:href="#o"/>
<use x="55.744141" xlink:href="#p"/>
</g>
</g>
<path d="m811.38 391.96 3.1702 9.5013q0.7596 2.2766 3.0362 1.517l7.3445-2.4505q2.2766-0.7596 1.517-3.0362l-3.1702-9.5013q-0.7596-2.2766-3.0362-1.517l-7.3445 2.4505q-2.2766 0.7596-1.517 3.0362z" clip-path="url(#a)" fill="#fff" stroke="#fff"/>
<g clip-path="url(#a)">
<g transform="translate(815.23 390.68) rotate(71.548) scale(.08 -.08)">
<use xlink:href="#o"/>
<use x="55.712891" xlink:href="#v"/>
</g>
</g>
<path d="m788.29 135.97 7.1721 6.8713q1.733 1.6603 3.3933-0.07269l5.3563-5.5908q1.6603-1.733-0.07269-3.3933l-7.1721-6.8713q-1.733-1.6603-3.3933 0.07269l-5.3563 5.5908q-1.6603 1.733 0.07269 3.3933z" clip-path="url(#a)" fill="#fff" stroke="#fff"/>
<g clip-path="url(#a)">
<g transform="translate(791.1 133.03) rotate(43.773) scale(.08 -.08)">
<use xlink:href="#o"/>
<use x="55.744141" xlink:href="#p"/>
</g>
</g>
<path d="m335.77 229.49 2.7151-9.5542q0.65606-2.3086-1.6525-2.9647l-7.4476-2.1165q-2.3086-0.65606-2.9647 1.6525l-2.7151 9.5542q-0.65606 2.3086 1.6525 2.9647l7.4476 2.1165q2.3086 0.65606 2.9647-1.6525z" clip-path="url(#a)" fill="#fff" stroke="#fff"/>
<g clip-path="url(#a)">
<g transform="translate(331.86 228.38) rotate(-74.136) scale(.08 -.08)">
<use xlink:href="#o"/>
<use x="55.744141" xlink:href="#p"/>
</g>
</g>
<path d="m391.7 390.02 0.47018 10.005q0.11266 2.3974 2.51 2.2847l7.734-0.36345q2.3974-0.11266 2.2847-2.51l-0.47018-10.005q-0.11266-2.3974-2.51-2.2847l-7.734 0.36345q-2.3974 0.11266-2.2847 2.51z" clip-path="url(#a)" fill="#fff" stroke="#fff"/>
<g clip-path="url(#a)">
<g transform="translate(395.76 389.83) rotate(87.309) scale(.08 -.08)">
<use xlink:href="#o"/>
<use x="55.712891" xlink:href="#v"/>
</g>
</g>
<path d="m408.33 132.46 3.5246 9.2861q0.85165 2.2438 3.0955 1.3922l7.2386-2.7475q2.2438-0.85165 1.3922-3.0955l-3.5246-9.2861q-0.85165-2.2438-3.0955-1.3922l-7.2386 2.7475q-2.2438 0.85165-1.3922 3.0955z" clip-path="url(#a)" fill="#fff" stroke="#fff"/>
<g clip-path="url(#a)">
<g transform="translate(412.13 131.02) rotate(69.215) scale(.08 -.08)">
<use xlink:href="#o"/>
<use x="55.744141" xlink:href="#p"/>
</g>
</g>
<path d="m173.43 490.71 1.4306-9.9136q0.34279-2.3754-2.0326-2.7182l-7.6631-1.1059q-2.3754-0.34279-2.7182 2.0326l-1.4306 9.9136q-0.34279 2.3754 2.0326 2.7182l7.6631 1.1059q2.3754 0.34279 2.7182-2.0326z" clip-path="url(#a)" fill="#fff" stroke="#fff"/>
<g clip-path="url(#a)">
<g transform="translate(169.41 490.13) rotate(-81.788) scale(.08 -.08)">
<use xlink:href="#o"/>
<use x="55.712891" xlink:href="#v"/>
</g>
</g>
<path d="m235.22 311.01 3.8891 9.1394q0.93973 2.2084 3.1481 1.2686l7.1243-3.0316q2.2084-0.93973 1.2686-3.1481l-3.8891-9.1394q-0.93973-2.2084-3.1481-1.2686l-7.1243 3.0316q-2.2084 0.93973-1.2686 3.1481z" clip-path="url(#a)" fill="#fff" stroke="#fff"/>
<g clip-path="url(#a)">
<g transform="translate(238.96 309.42) rotate(66.949) scale(.08 -.08)">
<use xlink:href="#o"/>
<use x="55.744141" xlink:href="#p"/>
</g>
</g>
<path d="m76.8 812.34v35.285q0 2.4 2.4 2.4h7.7425q2.4 0 2.4-2.4v-35.285q0-2.4-2.4-2.4h-7.7425q-2.4 0-2.4 2.4z" clip-path="url(#a)" fill="#fff" stroke="#fff"/>
<g clip-path="url(#a)">
<g transform="translate(80.864 812.34) rotate(90) scale(.08 -.08)">
<use xlink:href="#k"/>
<use x="60.818359" xlink:href="#f"/>
<use x="122.341797" xlink:href="#i"/>
<use x="163.439453" xlink:href="#l"/>
<use x="260.851562" xlink:href="#h"/>
<use x="288.634766" xlink:href="#g"/>
<use x="352.013672" xlink:href="#e"/>
<use x="413.292969" xlink:href="#j"/>
</g>
</g>
<path d="m597.84 812.34v35.285q0 2.4 2.4 2.4h7.7425q2.4 0 2.4-2.4v-35.285q0-2.4-2.4-2.4h-7.7425q-2.4 0-2.4 2.4z" clip-path="url(#a)" fill="#fff" stroke="#fff"/>
<g clip-path="url(#a)">
<g transform="translate(601.9 812.34) rotate(90) scale(.08 -.08)">
<use xlink:href="#k"/>
<use x="60.818359" xlink:href="#f"/>
<use x="122.341797" xlink:href="#i"/>
<use x="163.439453" xlink:href="#l"/>
<use x="260.851562" xlink:href="#h"/>
<use x="288.634766" xlink:href="#g"/>
<use x="352.013672" xlink:href="#e"/>
<use x="413.292969" xlink:href="#j"/>
</g>
</g>
<path d="m692.58 812.34v35.285q0 2.4 2.4 2.4h7.7425q2.4 0 2.4-2.4v-35.285q0-2.4-2.4-2.4h-7.7425q-2.4 0-2.4 2.4z" clip-path="url(#a)" fill="#fff" stroke="#fff"/>
<g clip-path="url(#a)">
<g transform="translate(696.64 812.34) rotate(90) scale(.08 -.08)">
<use xlink:href="#k"/>
<use x="60.818359" xlink:href="#f"/>
<use x="122.341797" xlink:href="#i"/>
<use x="163.439453" xlink:href="#l"/>
<use x="260.851562" xlink:href="#h"/>
<use x="288.634766" xlink:href="#g"/>
<use x="352.013672" xlink:href="#e"/>
<use x="413.292969" xlink:href="#j"/>
</g>
</g>
<path d="m882.05 812.34v35.285q0 2.4 2.4 2.4h7.7425q2.4 0 2.4-2.4v-35.285q0-2.4-2.4-2.4h-7.7425q-2.4 0-2.4 2.4z" clip-path="url(#a)" fill="#fff" stroke="#fff"/>
<g clip-path="url(#a)">
<g transform="translate(886.11 812.34) rotate(90) scale(.08 -.08)">
<use xlink:href="#k"/>
<use x="60.818359" xlink:href="#f"/>
<use x="122.341797" xlink:href="#i"/>
<use x="163.439453" xlink:href="#l"/>
<use x="260.851562" xlink:href="#h"/>
<use x="288.634766" xlink:href="#g"/>
<use x="352.013672" xlink:href="#e"/>
<use x="413.292969" xlink:href="#j"/>
</g>
</g>
<path d="m1355.7 812.34v35.285q0 2.4 2.4 2.4h7.7425q2.4 0 2.4-2.4v-35.285q0-2.4-2.4-2.4h-7.7425q-2.4 0-2.4 2.4z" clip-path="url(#a)" fill="#fff" stroke="#fff"/>
<g clip-path="url(#a)">
<g transform="translate(1359.8 812.34) rotate(90) scale(.08 -.08)">
<use xlink:href="#k"/>
<use x="60.818359" xlink:href="#f"/>
<use x="122.341797" xlink:href="#i"/>
<use x="163.439453" xlink:href="#l"/>
<use x="260.851562" xlink:href="#h"/>
<use x="288.634766" xlink:href="#g"/>
<use x="352.013672" xlink:href="#e"/>
<use x="413.292969" xlink:href="#j"/>
</g>
</g>
<path d="m1734.7 812.34v35.285q0 2.4 2.4 2.4h7.7425q2.4 0 2.4-2.4v-35.285q0-2.4-2.4-2.4h-7.7425q-2.4 0-2.4 2.4z" clip-path="url(#a)" fill="#fff" stroke="#fff"/>
<g clip-path="url(#a)">
<g transform="translate(1738.7 812.34) rotate(90) scale(.08 -.08)">
<use xlink:href="#k"/>
<use x="60.818359" xlink:href="#f"/>
<use x="122.341797" xlink:href="#i"/>
<use x="163.439453" xlink:href="#l"/>
<use x="260.851562" xlink:href="#h"/>
<use x="288.634766" xlink:href="#g"/>
<use x="352.013672" xlink:href="#e"/>
<use x="413.292969" xlink:href="#j"/>
</g>
</g>
<defs>
<path id="b" d="m0 8.6603c2.2967 0 4.4997-0.9125 6.1237-2.5365 1.624-1.624 2.5365-3.827 2.5365-6.1237s-0.9125-4.4997-2.5365-6.1237c-1.624-1.624-3.827-2.5365-6.1237-2.5365s-4.4997 0.9125-6.1237 2.5365c-1.624 1.624-2.5365 3.827-2.5365 6.1237s0.9125 4.4997 2.5365 6.1237c1.624 1.624 3.827 2.5365 6.1237 2.5365z"/>
</defs>
<g clip-path="url(#a)">
<use x="83.071017" y="915.255921" fill="#ffffff" stroke="#ffffff" xlink:href="#b"/>
</g>
<g clip-path="url(#a)">
<use x="130.438388" y="915.255921" fill="#ffffff" stroke="#ffffff" xlink:href="#b"/>
</g>
<g clip-path="url(#a)">
<use x="177.805758" y="915.255921" fill="#ffffff" stroke="#ffffff" xlink:href="#b"/>
</g>
<g clip-path="url(#a)">
<use x="225.173129" y="915.255921" fill="#ffffff" stroke="#ffffff" xlink:href="#b"/>
</g>
<g clip-path="url(#a)">
<use x="272.540499" y="915.255921" fill="#ffffff" stroke="#ffffff" xlink:href="#b"/>
</g>
<g clip-path="url(#a)">
<use x="319.907869" y="915.255921" fill="#ffffff" stroke="#ffffff" xlink:href="#b"/>
</g>
<g clip-path="url(#a)">
<use x="367.27524" y="915.255921" fill="#ffffff" stroke="#ffffff" xlink:href="#b"/>
</g>
<g clip-path="url(#a)">
<use x="414.64261" y="915.255921" fill="#ffffff" stroke="#ffffff" xlink:href="#b"/>
</g>
<g clip-path="url(#a)">
<use x="462.009981" y="915.255921" fill="#ffffff" stroke="#ffffff" xlink:href="#b"/>
</g>
<g clip-path="url(#a)">
<use x="509.377351" y="915.255921" fill="#ffffff" stroke="#ffffff" xlink:href="#b"/>
</g>
<g clip-path="url(#a)">
<use x="556.744722" y="915.255921" fill="#ffffff" stroke="#ffffff" xlink:href="#b"/>
</g>
<g clip-path="url(#a)">
<use x="604.112092" y="915.255921" fill="#ffffff" stroke="#ffffff" xlink:href="#b"/>
</g>
<g clip-path="url(#a)">
<use x="651.479463" y="915.255921" fill="#ffffff" stroke="#ffffff" xlink:href="#b"/>
</g>
<g clip-path="url(#a)">
<use x="698.846833" y="915.255921" fill="#ffffff" stroke="#ffffff" xlink:href="#b"/>
</g>
<g clip-path="url(#a)">
<use x="746.214203" y="915.255921" fill="#ffffff" stroke="#ffffff" xlink:href="#b"/>
</g>
<g clip-path="url(#a)">
<use x="793.581574" y="915.255921" fill="#ffffff" stroke="#ffffff" xlink:href="#b"/>
</g>
<g clip-path="url(#a)">
<use x="840.948944" y="915.255921" fill="#ffffff" stroke="#ffffff" xlink:href="#b"/>
</g>
<g clip-path="url(#a)">
<use x="888.316315" y="915.255921" fill="#ffffff" stroke="#ffffff" xlink:href="#b"/>
</g>
<g clip-path="url(#a)">
<use x="935.683685" y="915.255921" fill="#ffffff" stroke="#ffffff" xlink:href="#b"/>
</g>
<g clip-path="url(#a)">
<use x="983.051056" y="915.255921" fill="#ffffff" stroke="#ffffff" xlink:href="#b"/>
</g>
<g clip-path="url(#a)">
<use x="1030.418426" y="915.255921" fill="#ffffff" stroke="#ffffff" xlink:href="#b"/>
</g>
<g clip-path="url(#a)">
<use x="1077.785797" y="915.255921" fill="#ffffff" stroke="#ffffff" xlink:href="#b"/>
</g>
<g clip-path="url(#a)">
<use x="1125.153167" y="915.255921" fill="#ffffff" stroke="#ffffff" xlink:href="#b"/>
</g>
<g clip-path="url(#a)">
<use x="1172.520537" y="915.255921" fill="#ffffff" stroke="#ffffff" xlink:href="#b"/>
</g>
<g clip-path="url(#a)">
<use x="1219.887908" y="915.255921" fill="#ffffff" stroke="#ffffff" xlink:href="#b"/>
</g>
<g clip-path="url(#a)">
<use x="1267.255278" y="915.255921" fill="#ffffff" stroke="#ffffff" xlink:href="#b"/>
</g>
<g clip-path="url(#a)">
<use x="1314.622649" y="915.255921" fill="#ffffff" stroke="#ffffff" xlink:href="#b"/>
</g>
<g clip-path="url(#a)">
<use x="1361.990019" y="915.255921" fill="#ffffff" stroke="#ffffff" xlink:href="#b"/>
</g>
<g clip-path="url(#a)">
<use x="1409.35739" y="915.255921" fill="#ffffff" stroke="#ffffff" xlink:href="#b"/>
</g>
<g clip-path="url(#a)">
<use x="1456.72476" y="915.255921" fill="#ffffff" stroke="#ffffff" xlink:href="#b"/>
</g>
<g clip-path="url(#a)">
<use x="1504.092131" y="915.255921" fill="#ffffff" stroke="#ffffff" xlink:href="#b"/>
</g>
<g clip-path="url(#a)">
<use x="1551.459501" y="915.255921" fill="#ffffff" stroke="#ffffff" xlink:href="#b"/>
</g>
<g clip-path="url(#a)">
<use x="1598.826871" y="915.255921" fill="#ffffff" stroke="#ffffff" xlink:href="#b"/>
</g>
<g clip-path="url(#a)">
<use x="1646.194242" y="915.255921" fill="#ffffff" stroke="#ffffff" xlink:href="#b"/>
</g>
<g clip-path="url(#a)">
<use x="1693.561612" y="915.255921" fill="#ffffff" stroke="#ffffff" xlink:href="#b"/>
</g>
<g clip-path="url(#a)">
<use x="1740.928983" y="915.255921" fill="#ffffff" stroke="#ffffff" xlink:href="#b"/>
</g>
<g clip-path="url(#a)">
<use x="721.274565" y="44.744079" fill="#ffffff" stroke="#ffffff" xlink:href="#b"/>
</g>
<g clip-path="url(#a)">
<use x="130.438388" y="744.712039" fill="#ffffff" stroke="#ffffff" xlink:href="#b"/>
</g>
<g clip-path="url(#a)">
<use x="280.435061" y="401.251822" fill="#ffffff" stroke="#ffffff" xlink:href="#b"/>
</g>
<g clip-path="url(#a)">
<use x="414.64261" y="744.712039" fill="#ffffff" stroke="#ffffff" xlink:href="#b"/>
</g>
<g clip-path="url(#a)">
<use x="450.168138" y="225.005853" fill="#ffffff" stroke="#ffffff" xlink:href="#b"/>
</g>
<g clip-path="url(#a)">
<use x="935.683685" y="744.712039" fill="#ffffff" stroke="#ffffff" xlink:href="#b"/>
</g>
<g clip-path="url(#a)">
<use x="890.289955" y="225.005853" fill="#ffffff" stroke="#ffffff" xlink:href="#b"/>
</g>
<g clip-path="url(#a)">
<use x="1409.35739" y="744.712039" fill="#ffffff" stroke="#ffffff" xlink:href="#b"/>
</g>
<g clip-path="url(#a)">
<use x="1089.627639" y="225.005853" fill="#ffffff" stroke="#ffffff" xlink:href="#b"/>
</g>
<g clip-path="url(#a)">
<use x="1456.72476" y="744.712039" fill="#ffffff" stroke="#ffffff" xlink:href="#b"/>
</g>
<g clip-path="url(#a)">
<use x="1586.985029" y="401.251822" fill="#ffffff" stroke="#ffffff" xlink:href="#b"/>
</g>
<g clip-path="url(#a)">
<use x="1504.092131" y="744.712039" fill="#ffffff" stroke="#ffffff" xlink:href="#b"/>
</g>
<g clip-path="url(#a)">
<use x="1551.459501" y="744.712039" fill="#ffffff" stroke="#ffffff" xlink:href="#b"/>
</g>
<g clip-path="url(#a)">
<use x="1598.826871" y="744.712039" fill="#ffffff" stroke="#ffffff" xlink:href="#b"/>
</g>
<g clip-path="url(#a)">
<use x="1693.561612" y="574.168157" fill="#ffffff" stroke="#ffffff" xlink:href="#b"/>
</g>
<g clip-path="url(#a)">
<use x="1646.194242" y="744.712039" fill="#ffffff" stroke="#ffffff" xlink:href="#b"/>
</g>
<g clip-path="url(#a)">
<use x="1693.561612" y="744.712039" fill="#ffffff" stroke="#ffffff" xlink:href="#b"/>
</g>
<g clip-path="url(#a)">
<use x="983.051056" y="744.712039" fill="#ffffff" stroke="#ffffff" xlink:href="#b"/>
</g>
<g clip-path="url(#a)">
<use x="1085.680358" y="401.251822" fill="#ffffff" stroke="#ffffff" xlink:href="#b"/>
</g>
<g clip-path="url(#a)">
<use x="1267.255278" y="574.168157" fill="#ffffff" stroke="#ffffff" xlink:href="#b"/>
</g>
<g clip-path="url(#a)">
<use x="1219.887908" y="744.712039" fill="#ffffff" stroke="#ffffff" xlink:href="#b"/>
</g>
<g clip-path="url(#a)">
<use x="1267.255278" y="744.712039" fill="#ffffff" stroke="#ffffff" xlink:href="#b"/>
</g>
<g clip-path="url(#a)">
<use x="1314.622649" y="744.712039" fill="#ffffff" stroke="#ffffff" xlink:href="#b"/>
</g>
<g clip-path="url(#a)">
<use x="1030.418426" y="744.712039" fill="#ffffff" stroke="#ffffff" xlink:href="#b"/>
</g>
<g clip-path="url(#a)">
<use x="1077.785797" y="744.712039" fill="#ffffff" stroke="#ffffff" xlink:href="#b"/>
</g>
<g clip-path="url(#a)">
<use x="1148.836852" y="574.168157" fill="#ffffff" stroke="#ffffff" xlink:href="#b"/>
</g>
<g clip-path="url(#a)">
<use x="1125.153167" y="744.712039" fill="#ffffff" stroke="#ffffff" xlink:href="#b"/>
</g>
<g clip-path="url(#a)">
<use x="1172.520537" y="744.712039" fill="#ffffff" stroke="#ffffff" xlink:href="#b"/>
</g>
<g clip-path="url(#a)">
<use x="462.009981" y="744.712039" fill="#ffffff" stroke="#ffffff" xlink:href="#b"/>
</g>
<g clip-path="url(#a)">
<use x="663.321305" y="401.251822" fill="#ffffff" stroke="#ffffff" xlink:href="#b"/>
</g>
<g clip-path="url(#a)">
<use x="635.690339" y="574.168157" fill="#ffffff" stroke="#ffffff" xlink:href="#b"/>
</g>
<g clip-path="url(#a)">
<use x="580.428407" y="574.168157" fill="#ffffff" stroke="#ffffff" xlink:href="#b"/>
</g>
<g clip-path="url(#a)">
<use x="746.214203" y="744.712039" fill="#ffffff" stroke="#ffffff" xlink:href="#b"/>
</g>
<g clip-path="url(#a)">
<use x="714.635956" y="574.168157" fill="#ffffff" stroke="#ffffff" xlink:href="#b"/>
</g>
<g clip-path="url(#a)">
<use x="793.581574" y="744.712039" fill="#ffffff" stroke="#ffffff" xlink:href="#b"/>
</g>
<g clip-path="url(#a)">
<use x="840.948944" y="744.712039" fill="#ffffff" stroke="#ffffff" xlink:href="#b"/>
</g>
<g clip-path="url(#a)">
<use x="651.479463" y="744.712039" fill="#ffffff" stroke="#ffffff" xlink:href="#b"/>
</g>
<g clip-path="url(#a)">
<use x="509.377351" y="744.712039" fill="#ffffff" stroke="#ffffff" xlink:href="#b"/>
</g>
<g clip-path="url(#a)">
<use x="556.744722" y="744.712039" fill="#ffffff" stroke="#ffffff" xlink:href="#b"/>
</g>
<g clip-path="url(#a)">
<use x="201.489443" y="574.168157" fill="#ffffff" stroke="#ffffff" xlink:href="#b"/>
</g>
<g clip-path="url(#a)">
<use x="319.907869" y="744.712039" fill="#ffffff" stroke="#ffffff" xlink:href="#b"/>
</g>
<g clip-path="url(#a)">
<use x="319.907869" y="744.712039" fill="#ffffff" stroke="#ffffff" xlink:href="#b"/>
</g>
<g clip-path="url(#a)">
<use x="177.805758" y="744.712039" fill="#ffffff" stroke="#ffffff" xlink:href="#b"/>
</g>
<g clip-path="url(#a)">
<use x="225.173129" y="744.712039" fill="#ffffff" stroke="#ffffff" xlink:href="#b"/>
</g>
<g clip-path="url(#a)">
<use x="1129.758328" y="44.744079" fill="#808080" stroke="#808080" xlink:href="#b"/>
</g>
<g clip-path="url(#a)">
<use x="702.136234" y="44.744079" fill="#808080" stroke="#808080" xlink:href="#b"/>
</g>
<g clip-path="url(#a)">
<use x="381.748603" y="44.744079" fill="#808080" stroke="#808080" xlink:href="#b"/>
</g>
<g clip-path="url(#a)">
<use x="205.436724" y="225.005853" fill="#808080" stroke="#808080" xlink:href="#b"/>
</g>
<g clip-path="url(#a)">
<use x="83.071017" y="744.712039" fill="#ffffff" stroke="#ffffff" xlink:href="#b"/>
</g>
<g clip-path="url(#a)">
<use x="604.112092" y="744.712039" fill="#ffffff" stroke="#ffffff" xlink:href="#b"/>
</g>
<g clip-path="url(#a)">
<use x="698.846833" y="744.712039" fill="#ffffff" stroke="#ffffff" xlink:href="#b"/>
</g>
<g clip-path="url(#a)">
<use x="888.316315" y="744.712039" fill="#ffffff" stroke="#ffffff" xlink:href="#b"/>
</g>
<g clip-path="url(#a)">
<use x="1361.990019" y="744.712039" fill="#ffffff" stroke="#ffffff" xlink:href="#b"/>
</g>
<g clip-path="url(#a)">
<use x="1740.928983" y="744.712039" fill="#ffffff" stroke="#ffffff" xlink:href="#b"/>
</g>
<g clip-path="url(#a)">
<defs>
<path id="au" d="m17.922 72.906v-27.109h-8.2969v27.109zm18.453 0v-27.109h-8.2969v27.109z"/>
</defs>
<g transform="translate(80.771 918.02) scale(.1 -.1)">
<use xlink:href="#au"/>
</g>
</g>
<g clip-path="url(#a)">
<defs>
<path id="ap" d="m53.516 70.516v-9.625q-5.6094 2.6875-10.594 4-4.9844 1.3281-9.625 1.3281-8.0469 0-12.422-3.125t-4.375-8.8906q0-4.8438 2.9062-7.3125 2.9062-2.4531 11.016-3.9688l5.9531-1.2188q11.031-2.1094 16.281-7.4062t5.25-14.172q0-10.609-7.1094-16.078-7.0938-5.4688-20.812-5.4688-5.1719 0-11.016 1.1719-5.8281 1.1719-12.078 3.4688v10.156q6-3.3594 11.766-5.0781 5.7656-1.7031 11.328-1.7031 8.4375 0 13.031 3.3125 4.5938 3.3281 4.5938 9.4844 0 5.3594-3.2969 8.3906t-10.812 4.5469l-6.0156 1.1719q-11.031 2.1875-15.969 6.875-4.9219 4.6875-4.9219 13.047 0 9.6719 6.8125 15.234t18.766 5.5625q5.1406 0 10.453-0.9375 5.3281-0.92188 10.891-2.7656z"/>
<path id="x" d="m30.609 48.391q-7.2188 0-11.422-5.6406t-4.2031-15.453 4.1719-15.453q4.1875-5.6406 11.453-5.6406 7.1875 0 11.375 5.6562 4.2031 5.6719 4.2031 15.438 0 9.7188-4.2031 15.406-4.1875 5.6875-11.375 5.6875zm0 7.6094q11.719 0 18.406-7.625 6.7031-7.6094 6.7031-21.078 0-13.422-6.7031-21.078-6.6875-7.6406-18.406-7.6406-11.766 0-18.438 7.6406-6.6562 7.6562-6.6562 21.078 0 13.469 6.6562 21.078 6.6719 7.625 18.438 7.625z"/>
</defs>
<g transform="translate(124.2 918.02) scale(.1 -.1)">
<use xlink:href="#ap"/>
<use x="63.476562" xlink:href="#x"/>
</g>
</g>
<g clip-path="url(#a)">
<defs>
<path id="t" d="m18.312 70.219v-15.531h18.5v-6.9844h-18.5v-29.688q0-6.6875 1.8281-8.5938t7.4531-1.9062h9.2188v-7.5156h-9.2188q-10.406 0-14.359 3.875-3.9531 3.8906-3.9531 14.141v29.688h-6.5938v6.9844h6.5938v15.531z"/>
<path id="y" d="m54.891 33.016v-33.016h-8.9844v32.719q0 7.7656-3.0312 11.609-3.0312 3.8594-9.0781 3.8594-7.2812 0-11.484-4.6406-4.2031-4.625-4.2031-12.641v-30.906h-9.0312v75.984h9.0312v-29.797q3.2344 4.9375 7.5938 7.375 4.375 2.4375 10.094 2.4375 9.4219 0 14.25-5.8281 4.8438-5.8281 4.8438-17.156z"/>
</defs>
<g transform="translate(169.6 918.02) scale(.1 -.1)">
<use xlink:href="#t"/>
<use x="39.208984" xlink:href="#y"/>
<use x="102.587891" xlink:href="#f"/>
</g>
</g>
<g clip-path="url(#a)">
<defs>
<path id="aj" d="m37.109 75.984v-7.4844h-8.5938q-4.8281 0-6.7188-1.9531-1.875-1.9531-1.875-7.0312v-4.8281h14.797v-6.9844h-14.797v-47.703h-9.0312v47.703h-8.5938v6.9844h8.5938v3.8125q0 9.125 4.25 13.297 4.25 4.1875 13.469 4.1875z"/>
<path id="ao" d="m45.406 27.984q0 9.7656-4.0312 15.125-4.0156 5.375-11.297 5.375-7.2188 0-11.25-5.375-4.0312-5.3594-4.0312-15.125 0-9.7188 4.0312-15.094t11.25-5.375q7.2812 0 11.297 5.375 4.0312 5.375 4.0312 15.094zm8.9844-21.203q0-13.953-6.2031-20.766-6.1875-6.8125-18.984-6.8125-4.7344 0-8.9375 0.70312t-8.1562 2.1719v8.7344q3.9531-2.1406 7.8125-3.1562 3.8594-1.0312 7.8594-1.0312 8.8438 0 13.234 4.6094t4.3906 13.938v4.4531q-2.7812-4.8438-7.125-7.2344t-10.406-2.3906q-10.047 0-16.203 7.6562-6.1562 7.6719-6.1562 20.328 0 12.688 6.1562 20.344 6.1562 7.6719 16.203 7.6719 6.0625 0 10.406-2.3906t7.125-7.2188v8.2969h8.9844z"/>
</defs>
<g transform="translate(208.69 918.02) scale(.1 -.1)">
<use xlink:href="#aj"/>
<use x="35.205078" xlink:href="#i"/>
<use x="76.318359" xlink:href="#h"/>
<use x="104.101562" xlink:href="#ao"/>
<use x="167.578125" xlink:href="#e"/>
<use x="228.857422" xlink:href="#t"/>
<use x="268.066406" xlink:href="#f"/>
</g>
</g>
<g clip-path="url(#a)">
<defs>
<path id="ax" d="m9.0781 75.984h9.0312v-44.875l26.812 23.578h11.469l-29-25.578 30.234-29.109h-11.719l-27.797 26.703v-26.703h-9.0312z"/>
<path id="an" d="m18.109 8.2031v-29h-9.0312v75.484h9.0312v-8.2969q2.8438 4.875 7.1562 7.2344 4.3281 2.375 10.328 2.375 9.9688 0 16.188-7.9062 6.2344-7.9062 6.2344-20.797t-6.2344-20.812q-6.2188-7.9062-16.188-7.9062-6 0-10.328 2.375-4.3125 2.375-7.1562 7.25zm30.578 19.094q0 9.9062-4.0781 15.547t-11.203 5.6406q-7.1406 0-11.219-5.6406t-4.0781-15.547 4.0781-15.547 11.219-5.6406q7.125 0 11.203 5.6406t4.0781 15.547z"/>
</defs>
<g transform="translate(261.44 918.02) scale(.1 -.1)">
<use xlink:href="#ax"/>
<use x="57.863281" xlink:href="#f"/>
<use x="119.386719" xlink:href="#an"/>
<use x="182.863281" xlink:href="#t"/>
</g>
</g>
<g clip-path="url(#a)">
<defs>
<path id="am" d="m4.2031 54.688h8.9844l11.234-42.672 11.172 42.672h10.594l11.234-42.672 11.188 42.672h8.9844l-14.312-54.688h-10.594l-11.766 44.828-11.812-44.828h-10.609z"/>
</defs>
<g transform="translate(309.96 918.02) scale(.1 -.1)">
<use xlink:href="#am"/>
<use x="81.787109" xlink:href="#f"/>
<use x="143.310547" xlink:href="#j"/>
<use x="171.09375" xlink:href="#j"/>
</g>
</g>
<g clip-path="url(#a)">
<defs>
<path id="ad" d="m8.5 21.578v33.109h8.9844v-32.766q0-7.7656 3.0156-11.656 3.0312-3.875 9.0938-3.875 7.2656 0 11.484 4.6406 4.2344 4.6406 4.2344 12.656v31h8.9844v-54.688h-8.9844v8.4062q-3.2656-4.9844-7.5938-7.4062-4.3125-2.4219-10.031-2.4219-9.4219 0-14.312 5.8594-4.875 5.8594-4.875 17.141z"/>
</defs>
<g transform="translate(359.09 918.02) scale(.1 -.1)">
<use xlink:href="#x"/>
<use x="61.181641" xlink:href="#ad"/>
<use x="124.560547" xlink:href="#t"/>
</g>
</g>
<g clip-path="url(#a)">
<g transform="translate(401.14 918.02) scale(.1 -.1)">
<use xlink:href="#am"/>
<use x="81.787109" xlink:href="#y"/>
<use x="145.166016" xlink:href="#f"/>
<use x="206.689453" xlink:href="#g"/>
</g>
</g>
<g clip-path="url(#a)">
<defs>
<path id="w" d="m44.281 53.078v-8.5q-3.7969 1.9531-7.9062 2.9219-4.0938 0.98438-8.5 0.98438-6.6875 0-10.031-2.0469t-3.3438-6.1562q0-3.125 2.3906-4.9062t9.625-3.3906l3.0781-0.6875q9.5625-2.0469 13.594-5.7812t4.0312-10.422q0-7.625-6.0312-12.078-6.0312-4.4375-16.578-4.4375-4.3906 0-9.1562 0.85938t-10.031 2.5625v9.2812q4.9844-2.5938 9.8125-3.8906 4.8281-1.2812 9.5781-1.2812 6.3438 0 9.75 2.1719 3.4219 2.1719 3.4219 6.125 0 3.6562-2.4688 5.6094-2.4531 1.9531-10.812 3.7656l-3.125 0.73438q-8.3438 1.75-12.062 5.3906-3.7031 3.6406-3.7031 9.9844 0 7.7188 5.4688 11.906 5.4688 4.2031 15.531 4.2031 4.9688 0 9.3594-0.73438 4.4062-0.71875 8.1094-2.1875z"/>
</defs>
<g transform="translate(442.83 918.02) scale(.1 -.1)">
<use xlink:href="#an"/>
<use x="63.476562" xlink:href="#e"/>
<use x="124.755859" xlink:href="#w"/>
<use x="176.855469" xlink:href="#w"/>
<use x="228.955078" xlink:href="#h"/>
<use x="256.738281" xlink:href="#g"/>
<use x="320.117188" xlink:href="#ao"/>
</g>
</g>
<g clip-path="url(#a)">
<g transform="translate(501.17 918.02) scale(.1 -.1)">
<use xlink:href="#t"/>
<use x="39.208984" xlink:href="#y"/>
<use x="102.587891" xlink:href="#f"/>
</g>
</g>
<g clip-path="url(#a)">
<g transform="translate(534.41 918.02) scale(.1 -.1)">
<use xlink:href="#k"/>
<use x="60.849609" xlink:href="#ad"/>
<use x="124.228516" xlink:href="#e"/>
<use x="185.507812" xlink:href="#l"/>
<use x="282.919922" xlink:href="#x"/>
<use x="344.101562" xlink:href="#t"/>
<use x="383.310547" xlink:href="#ad"/>
</g>
</g>
<g clip-path="url(#a)">
<defs>
<path id="al" d="m11.719 12.406h10.297v-8.4062l-8-15.625h-6.2969l4 15.625z"/>
</defs>
<g transform="translate(602.52 918.02) scale(.1 -.1)">
<use xlink:href="#al"/>
</g>
</g>
<g clip-path="url(#a)">
<defs>
<path id="ar" d="m9.8125 72.906h14.703l18.594-49.609 18.703 49.609h14.703v-72.906h-9.625v64.016l-18.797-50h-9.9062l-18.797 50v-64.016h-9.5781z"/>
<path id="aw" d="m14.797 27.297q0-9.9062 4.0781-15.547t11.203-5.6406 11.219 5.6406q4.1094 5.6406 4.1094 15.547t-4.1094 15.547q-4.0938 5.6406-11.219 5.6406t-11.203-5.6406-4.0781-15.547zm30.609-19.094q-2.8281-4.875-7.1562-7.25-4.3125-2.375-10.375-2.375-9.9062 0-16.141 7.9062-6.2188 7.9219-6.2188 20.812t6.2188 20.797q6.2344 7.9062 16.141 7.9062 6.0625 0 10.375-2.375 4.3281-2.3594 7.1562-7.2344v8.2969h8.9844v-75.484h-8.9844z"/>
</defs>
<g transform="translate(624.35 918.02) scale(.1 -.1)">
<use xlink:href="#ar"/>
<use x="86.279297" xlink:href="#e"/>
<use x="147.558594" xlink:href="#i"/>
<use x="188.65625" xlink:href="#aw"/>
<use x="252.132812" xlink:href="#ad"/>
<use x="315.511719" xlink:href="#f"/>
<use x="377.035156" xlink:href="#w"/>
<use x="429.134766" xlink:href="#e"/>
<use x="490.414062" xlink:href="#w"/>
</g>
</g>
<g clip-path="url(#a)">
<g transform="translate(697.26 918.02) scale(.1 -.1)">
<use xlink:href="#al"/>
</g>
</g>
<g clip-path="url(#a)">
<defs>
<path id="ae" d="m45.406 46.391v29.594h8.9844v-75.984h-8.9844v8.2031q-2.8281-4.875-7.1562-7.25-4.3125-2.375-10.375-2.375-9.9062 0-16.141 7.9062-6.2188 7.9219-6.2188 20.812t6.2188 20.797q6.2344 7.9062 16.141 7.9062 6.0625 0 10.375-2.375 4.3281-2.3594 7.1562-7.2344zm-30.609-19.094q0-9.9062 4.0781-15.547t11.203-5.6406 11.219 5.6406q4.1094 5.6406 4.1094 15.547t-4.1094 15.547q-4.0938 5.6406-11.219 5.6406t-11.203-5.6406-4.0781-15.547z"/>
</defs>
<g transform="translate(736.81 918.02) scale(.1 -.1)">
<use xlink:href="#e"/>
<use x="61.279297" xlink:href="#g"/>
<use x="124.658203" xlink:href="#ae"/>
</g>
</g>
<g clip-path="url(#a)">
<g transform="translate(770.59 918.02) scale(.1 -.1)">
<use xlink:href="#af"/>
<use x="75.195312" xlink:href="#e"/>
<use x="136.474609" xlink:href="#am"/>
<use x="218.261719" xlink:href="#e"/>
<use x="279.541016" xlink:href="#h"/>
<use x="307.324219" xlink:href="#h"/>
<use x="335.107422" xlink:href="#e"/>
<use x="396.386719" xlink:href="#g"/>
</g>
</g>
<g clip-path="url(#a)">
<defs>
<path id="as" d="m9.8125 72.906h9.8594v-72.906h-9.8594z"/>
</defs>
<g transform="translate(823.47 918.02) scale(.1 -.1)">
<use xlink:href="#as"/>
<use x="29.492188" xlink:href="#w"/>
<use x="81.591797" xlink:href="#j"/>
<use x="109.375" xlink:href="#e"/>
<use x="170.654297" xlink:href="#g"/>
<use x="234.033203" xlink:href="#ae"/>
<use x="297.509766" xlink:href="#w"/>
</g>
</g>
<g clip-path="url(#a)">
<g transform="translate(886.73 918.02) scale(.1 -.1)">
<use xlink:href="#al"/>
</g>
</g>
<g clip-path="url(#a)">
<g transform="translate(924.31 918.02) scale(.1 -.1)">
<use xlink:href="#t"/>
<use x="39.208984" xlink:href="#y"/>
<use x="102.587891" xlink:href="#f"/>
<use x="164.111328" xlink:href="#g"/>
</g>
</g>
<g clip-path="url(#a)">
<defs>
<path id="ak" d="m48.781 52.594v-8.4062q-3.8125 2.1094-7.6406 3.1562t-7.7344 1.0469q-8.75 0-13.594-5.5469-4.8281-5.5312-4.8281-15.547t4.8281-15.562q4.8438-5.5312 13.594-5.5312 3.9062 0 7.7344 1.0469t7.6406 3.1562v-8.3125q-3.7656-1.75-7.7969-2.625-4.0156-0.89062-8.5625-0.89062-12.359 0-19.641 7.7656-7.2656 7.7656-7.2656 20.953 0 13.375 7.3438 21.031 7.3594 7.6719 20.156 7.6719 4.1406 0 8.0938-0.85938 3.9531-0.84375 7.6719-2.5469z"/>
</defs>
<g transform="translate(975.17 918.02) scale(.1 -.1)">
<use xlink:href="#ak"/>
<use x="54.980469" xlink:href="#ad"/>
<use x="118.359375" xlink:href="#t"/>
</g>
</g>
<g clip-path="url(#a)">
<g transform="translate(1022.2 918.02) scale(.1 -.1)">
<use xlink:href="#t"/>
<use x="39.208984" xlink:href="#y"/>
<use x="102.587891" xlink:href="#f"/>
</g>
</g>
<g clip-path="url(#a)">
<g transform="translate(1062.3 918.02) scale(.1 -.1)">
<use xlink:href="#k"/>
<use x="60.865234" xlink:href="#i"/>
<use x="101.947266" xlink:href="#x"/>
<use x="163.128906" xlink:href="#an"/>
<use x="226.605469" xlink:href="#h"/>
<use x="254.388672" xlink:href="#ak"/>
</g>
</g>
<g clip-path="url(#a)">
<g transform="translate(1120.3 918.02) scale(.1 -.1)">
<use xlink:href="#x"/>
<use x="61.181641" xlink:href="#aj"/>
</g>
</g>
<g clip-path="url(#a)">
<g transform="translate(1154.9 918.02) scale(.1 -.1)">
<use xlink:href="#s"/>
<use x="69.824219" xlink:href="#e"/>
<use x="131.103516" xlink:href="#g"/>
<use x="194.482422" xlink:href="#ak"/>
<use x="249.462891" xlink:href="#f"/>
<use x="310.986328" xlink:href="#i"/>
</g>
</g>
<g clip-path="url(#a)">
<g transform="translate(1214.9 918.02) scale(.1 -.1)">
<use xlink:href="#e"/>
<use x="61.279297" xlink:href="#t"/>
</g>
</g>
<g clip-path="url(#a)">
<g transform="translate(1243.7 918.02) scale(.1 -.1)">
<use xlink:href="#j"/>
<use x="27.783203" xlink:href="#x"/>
<use x="88.964844" xlink:href="#g"/>
<use x="152.34375" xlink:href="#ao"/>
<use x="215.820312" xlink:href="#h"/>
<use x="243.603516" xlink:href="#t"/>
<use x="282.8125" xlink:href="#ad"/>
<use x="346.191406" xlink:href="#ae"/>
<use x="409.667969" xlink:href="#f"/>
</g>
</g>
<g clip-path="url(#a)">
<defs>
<path id="c" d="m12.406 8.2969h16.109v55.625l-17.531-3.5156v8.9844l17.438 3.5156h9.8594v-64.609h16.109v-8.2969h-41.984z"/>
<path id="n" d="m40.578 39.312q7.0781-1.5156 11.047-6.3125 3.9844-4.7812 3.9844-11.812 0-10.781-7.4219-16.703-7.4219-5.9062-21.094-5.9062-4.5781 0-9.4375 0.90625t-10.031 2.7188v9.5156q4.0938-2.3906 8.9688-3.6094 4.8906-1.2188 10.219-1.2188 9.2656 0 14.125 3.6562t4.8594 10.641q0 6.4531-4.5156 10.078-4.5156 3.6406-12.562 3.6406h-8.5v8.1094h8.8906q7.2656 0 11.125 2.9062t3.8594 8.375q0 5.6094-3.9844 8.6094-3.9688 3.0156-11.391 3.0156-4.0625 0-8.7031-0.89062-4.6406-0.875-10.203-2.7188v8.7812q5.625 1.5625 10.531 2.3438t9.25 0.78125q11.234 0 17.766-5.1094 6.5469-5.0938 6.5469-13.781 0-6.0625-3.4688-10.234t-9.8594-5.7812z"/>
<path id="r" d="m19.188 8.2969h34.422v-8.2969h-46.281v8.2969q5.6094 5.8125 15.297 15.594 9.7031 9.7969 12.188 12.641 4.7344 5.3125 6.6094 9 1.8906 3.6875 1.8906 7.25 0 5.8125-4.0781 9.4688-4.0781 3.6719-10.625 3.6719-4.6406 0-9.7969-1.6094-5.1406-1.6094-11-4.8906v9.9688q5.9531 2.3906 11.125 3.6094 5.1875 1.2188 9.4844 1.2188 11.328 0 18.062-5.6719 6.7344-5.6562 6.7344-15.125 0-4.5-1.6875-8.5312-1.6719-4.0156-6.125-9.4844-1.2188-1.4219-7.7656-8.1875-6.5312-6.7656-18.453-18.922z"/>
</defs>
<g transform="translate(1305.1 918.02) scale(.1 -.1)">
<use xlink:href="#c"/>
<use x="63.623047" xlink:href="#n"/>
<use x="127.246094" xlink:href="#r"/>
</g>
</g>
<g clip-path="url(#a)">
<defs>
<path id="av" d="m25 67.922q-3.9062 0-6.5938-2.7188-2.6875-2.7031-2.6875-6.6094 0-3.8594 2.6875-6.5156t6.5938-2.6562 6.5938 2.6562 2.6875 6.5156-2.7188 6.5938q-2.7031 2.7344-6.5625 2.7344zm0 6.2969q3.125 0 6-1.2031 2.8906-1.1875 4.9844-3.4375 2.25-2.1875 3.375-4.9844 1.125-2.7812 1.125-6 0-6.4375-4.5156-10.906t-11.062-4.4688q-6.5938 0-11 4.3906-4.3906 4.3906-4.3906 10.984 0 6.5469 4.4844 11.078 4.5 4.5469 11 4.5469z"/>
</defs>
<g transform="translate(1359.5 918.02) scale(.1 -.1)">
<use xlink:href="#av"/>
</g>
</g>
<g clip-path="url(#a)">
<g transform="translate(1400 918.02) scale(.1 -.1)">
<use xlink:href="#e"/>
<use x="61.279297" xlink:href="#g"/>
<use x="124.658203" xlink:href="#ae"/>
</g>
</g>
<g clip-path="url(#a)">
<g transform="translate(1438 918.02) scale(.1 -.1)">
<use xlink:href="#y"/>
<use x="63.378906" xlink:href="#f"/>
<use x="124.902344" xlink:href="#e"/>
<use x="186.181641" xlink:href="#ae"/>
<use x="249.658203" xlink:href="#f"/>
<use x="311.181641" xlink:href="#ae"/>
</g>
</g>
<g clip-path="url(#a)">
<g transform="translate(1497.2 918.02) scale(.1 -.1)">
<use xlink:href="#aj"/>
<use x="35.205078" xlink:href="#x"/>
<use x="96.386719" xlink:href="#i"/>
</g>
</g>
<g clip-path="url(#a)">
<g transform="translate(1543.3 918.02) scale(.1 -.1)">
<use xlink:href="#t"/>
<use x="39.208984" xlink:href="#y"/>
<use x="102.587891" xlink:href="#f"/>
</g>
</g>
<g clip-path="url(#a)">
<g transform="translate(1587.5 918.02) scale(.1 -.1)">
<use xlink:href="#w"/>
<use x="52.099609" xlink:href="#f"/>
<use x="113.623047" xlink:href="#e"/>
<use x="174.902344" xlink:href="#w"/>
</g>
</g>
<g clip-path="url(#a)">
<g transform="translate(1641.4 918.02) scale(.1 -.1)">
<use xlink:href="#x"/>
<use x="61.181641" xlink:href="#aj"/>
</g>
</g>
<g clip-path="url(#a)">
<g transform="translate(1679.3 918.02) scale(.1 -.1)">
<use xlink:href="#s"/>
<use x="69.824219" xlink:href="#y"/>
<use x="133.203125" xlink:href="#h"/>
<use x="160.986328" xlink:href="#g"/>
<use x="224.365234" xlink:href="#e"/>
</g>
</g>
<g clip-path="url(#a)">
<defs>
<path id="d" d="m10.688 12.406h10.312v-12.406h-10.312z"/>
</defs>
<g transform="translate(1739.3 918.02) scale(.1 -.1)">
<use xlink:href="#d"/>
</g>
</g>
<g clip-path="url(#a)">
<g transform="translate(713.32 47.503) scale(.1 -.1)">
<use xlink:href="#c"/>
<use x="63.623047" xlink:href="#d"/>
<use x="95.410156" xlink:href="#c"/>
</g>
</g>
<g clip-path="url(#a)">
<g transform="translate(122.49 747.47) scale(.1 -.1)">
<use xlink:href="#c"/>
<use x="63.623047" xlink:href="#d"/>
<use x="95.410156" xlink:href="#r"/>
</g>
</g>
<g clip-path="url(#a)">
<g transform="translate(272.48 404.01) scale(.1 -.1)">
<use xlink:href="#c"/>
<use x="63.623047" xlink:href="#d"/>
<use x="95.410156" xlink:href="#n"/>
</g>
</g>
<g clip-path="url(#a)">
<defs>
<path id="q" d="m37.797 64.312-24.906-38.922h24.906zm-2.5938 8.5938h12.406v-47.516h10.406v-8.2031h-10.406v-17.188h-9.8125v17.188h-32.906v9.5156z"/>
</defs>
<g transform="translate(406.69 747.47) scale(.1 -.1)">
<use xlink:href="#c"/>
<use x="63.623047" xlink:href="#d"/>
<use x="95.410156" xlink:href="#q"/>
</g>
</g>
<g clip-path="url(#a)">
<defs>
<path id="m" d="m10.797 72.906h38.719v-8.3125h-29.688v-17.859q2.1406 0.73438 4.2812 1.0938 2.1562 0.35938 4.3125 0.35938 12.203 0 19.328-6.6875 7.1406-6.6875 7.1406-18.109 0-11.766-7.3281-18.297-7.3281-6.5156-20.656-6.5156-4.5938 0-9.3594 0.78125-4.75 0.78125-9.8281 2.3438v9.9219q4.3906-2.3906 9.0781-3.5625t9.9062-1.1719q8.4531 0 13.375 4.4375 4.9375 4.4375 4.9375 12.062 0 7.6094-4.9375 12.047-4.9219 4.4531-13.375 4.4531-3.9531 0-7.8906-0.875-3.9219-0.875-8.0156-2.7344z"/>
</defs>
<g transform="translate(442.22 227.77) scale(.1 -.1)">
<use xlink:href="#c"/>
<use x="63.623047" xlink:href="#d"/>
<use x="95.410156" xlink:href="#m"/>
</g>
</g>
<g clip-path="url(#a)">
<defs>
<path id="z" d="m33.016 40.375q-6.6406 0-10.531-4.5469-3.875-4.5312-3.875-12.438 0-7.8594 3.875-12.438 3.8906-4.5625 10.531-4.5625t10.516 4.5625q3.875 4.5781 3.875 12.438 0 7.9062-3.875 12.438-3.875 4.5469-10.516 4.5469zm19.578 30.922v-8.9844q-3.7188 1.75-7.5 2.6719-3.7812 0.9375-7.5 0.9375-9.7656 0-14.922-6.5938-5.1406-6.5938-5.875-19.922 2.875 4.25 7.2188 6.5156 4.3594 2.2656 9.5781 2.2656 10.984 0 17.359-6.6719 6.375-6.6562 6.375-18.125 0-11.234-6.6406-18.031-6.6406-6.7812-17.672-6.7812-12.656 0-19.344 9.6875-6.6875 9.7031-6.6875 28.109 0 17.281 8.2031 27.562t22.016 10.281q3.7188 0 7.5-0.73438t7.8906-2.1875z"/>
</defs>
<g transform="translate(927.73 747.47) scale(.1 -.1)">
<use xlink:href="#c"/>
<use x="63.623047" xlink:href="#d"/>
<use x="95.410156" xlink:href="#z"/>
</g>
</g>
<g clip-path="url(#a)">
<defs>
<path id="ac" d="m8.2031 72.906h46.875v-4.2031l-26.469-68.703h-10.297l24.906 64.594h-35.016z"/>
</defs>
<g transform="translate(882.34 227.77) scale(.1 -.1)">
<use xlink:href="#c"/>
<use x="63.623047" xlink:href="#d"/>
<use x="95.410156" xlink:href="#ac"/>
</g>
</g>
<g clip-path="url(#a)">
<defs>
<path id="ab" d="m31.781 34.625q-7.0312 0-11.062-3.7656-4.0156-3.7656-4.0156-10.344 0-6.5938 4.0156-10.359 4.0312-3.7656 11.062-3.7656t11.078 3.7812q4.0625 3.7969 4.0625 10.344 0 6.5781-4.0312 10.344-4.0156 3.7656-11.109 3.7656zm-9.8594 4.1875q-6.3438 1.5625-9.8906 5.9062-3.5312 4.3594-3.5312 10.609 0 8.7344 6.2188 13.812 6.2344 5.0781 17.062 5.0781 10.891 0 17.094-5.0781t6.2031-13.812q0-6.25-3.5469-10.609-3.5312-4.3438-9.8281-5.9062 7.125-1.6562 11.094-6.5 3.9844-4.8281 3.9844-11.797 0-10.609-6.4688-16.281-6.4688-5.6562-18.531-5.6562-12.047 0-18.531 5.6562-6.4688 5.6719-6.4688 16.281 0 6.9688 4 11.797 4.0156 4.8438 11.141 6.5zm-3.6094 15.578q0-5.6562 3.5312-8.8281 3.5469-3.1719 9.9375-3.1719 6.3594 0 9.9375 3.1719 3.5938 3.1719 3.5938 8.8281 0 5.6719-3.5938 8.8438-3.5781 3.1719-9.9375 3.1719-6.3906 0-9.9375-3.1719-3.5312-3.1719-3.5312-8.8438z"/>
</defs>
<g transform="translate(1401.4 747.47) scale(.1 -.1)">
<use xlink:href="#c"/>
<use x="63.623047" xlink:href="#d"/>
<use x="95.410156" xlink:href="#ab"/>
</g>
</g>
<g clip-path="url(#a)">
<defs>
<path id="ag" d="m10.984 1.5156v8.9844q3.7188-1.7656 7.5156-2.6875 3.8125-0.92188 7.4844-0.92188 9.7656 0 14.906 6.5625 5.1562 6.5625 5.8906 19.953-2.8281-4.2031-7.1875-6.4531-4.3438-2.25-9.6094-2.25-10.938 0-17.312 6.6094-6.375 6.625-6.375 18.109 0 11.219 6.6406 18 6.6406 6.7969 17.672 6.7969 12.656 0 19.312-9.7031 6.6719-9.6875 6.6719-28.141 0-17.234-8.1875-27.516-8.1719-10.281-21.984-10.281-3.7188 0-7.5312 0.73438-3.7969 0.73438-7.9062 2.2031zm19.625 30.906q6.6406 0 10.516 4.5312 3.8906 4.5469 3.8906 12.469 0 7.8594-3.8906 12.422-3.875 4.5625-10.516 4.5625t-10.516-4.5625-3.875-12.422q0-7.9219 3.875-12.469 3.875-4.5312 10.516-4.5312z"/>
</defs>
<g transform="translate(1081.7 227.77) scale(.1 -.1)">
<use xlink:href="#c"/>
<use x="63.623047" xlink:href="#d"/>
<use x="95.410156" xlink:href="#ag"/>
</g>
</g>
<g clip-path="url(#a)">
<g transform="translate(1445.6 747.47) scale(.1 -.1)">
<use xlink:href="#c"/>
<use x="63.623047" xlink:href="#d"/>
<use x="95.410156" xlink:href="#c"/>
<use x="159.033203" xlink:href="#n"/>
</g>
</g>
<g clip-path="url(#a)">
<g transform="translate(1575.9 404.01) scale(.1 -.1)">
<use xlink:href="#c"/>
<use x="63.623047" xlink:href="#d"/>
<use x="95.410156" xlink:href="#c"/>
<use x="159.033203" xlink:href="#q"/>
</g>
</g>
<g clip-path="url(#a)">
<g transform="translate(1493 747.47) scale(.1 -.1)">
<use xlink:href="#c"/>
<use x="63.623047" xlink:href="#d"/>
<use x="95.410156" xlink:href="#c"/>
<use x="159.033203" xlink:href="#m"/>
</g>
</g>
<g clip-path="url(#a)">
<g transform="translate(1540.3 747.47) scale(.1 -.1)">
<use xlink:href="#c"/>
<use x="63.623047" xlink:href="#d"/>
<use x="95.410156" xlink:href="#c"/>
<use x="159.033203" xlink:href="#z"/>
</g>
</g>
<g clip-path="url(#a)">
<g transform="translate(1587.7 747.47) scale(.1 -.1)">
<use xlink:href="#c"/>
<use x="63.623047" xlink:href="#d"/>
<use x="95.410156" xlink:href="#c"/>
<use x="159.033203" xlink:href="#ac"/>
</g>
</g>
<g clip-path="url(#a)">
<g transform="translate(1682.4 576.93) scale(.1 -.1)">
<use xlink:href="#c"/>
<use x="63.623047" xlink:href="#d"/>
<use x="95.410156" xlink:href="#c"/>
<use x="159.033203" xlink:href="#ab"/>
</g>
</g>
<g clip-path="url(#a)">
<g transform="translate(1635.1 747.47) scale(.1 -.1)">
<use xlink:href="#c"/>
<use x="63.623047" xlink:href="#d"/>
<use x="95.410156" xlink:href="#c"/>
<use x="159.033203" xlink:href="#ag"/>
</g>
</g>
<g clip-path="url(#a)">
<defs>
<path id="ai" d="m31.781 66.406q-7.6094 0-11.453-7.5-3.8281-7.4844-3.8281-22.531 0-14.984 3.8281-22.484 3.8438-7.5 11.453-7.5 7.6719 0 11.5 7.5 3.8438 7.5 3.8438 22.484 0 15.047-3.8438 22.531-3.8281 7.5-11.5 7.5zm0 7.8125q12.266 0 18.734-9.7031 6.4688-9.6875 6.4688-28.141 0-18.406-6.4688-28.109-6.4688-9.6875-18.734-9.6875-12.25 0-18.719 9.6875-6.4688 9.7031-6.4688 28.109 0 18.453 6.4688 28.141 6.4688 9.7031 18.719 9.7031z"/>
</defs>
<g transform="translate(1682.4 747.47) scale(.1 -.1)">
<use xlink:href="#c"/>
<use x="63.623047" xlink:href="#d"/>
<use x="95.410156" xlink:href="#r"/>
<use x="159.033203" xlink:href="#ai"/>
</g>
</g>
<g clip-path="url(#a)">
<g transform="translate(971.92 747.47) scale(.1 -.1)">
<use xlink:href="#c"/>
<use x="63.623047" xlink:href="#d"/>
<use x="95.410156" xlink:href="#r"/>
<use x="159.033203" xlink:href="#r"/>
</g>
</g>
<g clip-path="url(#a)">
<g transform="translate(1074.5 404.01) scale(.1 -.1)">
<use xlink:href="#c"/>
<use x="63.623047" xlink:href="#d"/>
<use x="95.410156" xlink:href="#r"/>
<use x="159.033203" xlink:href="#n"/>
</g>
</g>
<g clip-path="url(#a)">
<g transform="translate(1256.1 576.93) scale(.1 -.1)">
<use xlink:href="#c"/>
<use x="63.623047" xlink:href="#d"/>
<use x="95.410156" xlink:href="#r"/>
<use x="159.033203" xlink:href="#q"/>
</g>
</g>
<g clip-path="url(#a)">
<g transform="translate(1208.8 747.47) scale(.1 -.1)">
<use xlink:href="#c"/>
<use x="63.623047" xlink:href="#d"/>
<use x="95.410156" xlink:href="#r"/>
<use x="159.033203" xlink:href="#m"/>
</g>
</g>
<g clip-path="url(#a)">
<g transform="translate(1256.1 747.47) scale(.1 -.1)">
<use xlink:href="#c"/>
<use x="63.623047" xlink:href="#d"/>
<use x="95.410156" xlink:href="#r"/>
<use x="159.033203" xlink:href="#z"/>
</g>
</g>
<g clip-path="url(#a)">
<g transform="translate(1303.5 747.47) scale(.1 -.1)">
<use xlink:href="#c"/>
<use x="63.623047" xlink:href="#d"/>
<use x="95.410156" xlink:href="#r"/>
<use x="159.033203" xlink:href="#ac"/>
</g>
</g>
<g clip-path="url(#a)">
<g transform="translate(1019.3 747.47) scale(.1 -.1)">
<use xlink:href="#c"/>
<use x="63.623047" xlink:href="#d"/>
<use x="95.410156" xlink:href="#r"/>
<use x="159.033203" xlink:href="#ab"/>
</g>
</g>
<g clip-path="url(#a)">
<g transform="translate(1066.7 747.47) scale(.1 -.1)">
<use xlink:href="#c"/>
<use x="63.623047" xlink:href="#d"/>
<use x="95.410156" xlink:href="#r"/>
<use x="159.033203" xlink:href="#ag"/>
</g>
</g>
<g clip-path="url(#a)">
<g transform="translate(1137.7 576.93) scale(.1 -.1)">
<use xlink:href="#c"/>
<use x="63.623047" xlink:href="#d"/>
<use x="95.410156" xlink:href="#n"/>
<use x="159.033203" xlink:href="#ai"/>
</g>
</g>
<g clip-path="url(#a)">
<g transform="translate(1114 747.47) scale(.1 -.1)">
<use xlink:href="#c"/>
<use x="63.623047" xlink:href="#d"/>
<use x="95.410156" xlink:href="#n"/>
<use x="159.033203" xlink:href="#c"/>
</g>
</g>
<g clip-path="url(#a)">
<g transform="translate(1161.4 747.47) scale(.1 -.1)">
<use xlink:href="#c"/>
<use x="63.623047" xlink:href="#d"/>
<use x="95.410156" xlink:href="#n"/>
<use x="159.033203" xlink:href="#r"/>
</g>
</g>
<g clip-path="url(#a)">
<g transform="translate(450.88 747.47) scale(.1 -.1)">
<use xlink:href="#c"/>
<use x="63.623047" xlink:href="#d"/>
<use x="95.410156" xlink:href="#n"/>
<use x="159.033203" xlink:href="#n"/>
</g>
</g>
<g clip-path="url(#a)">
<g transform="translate(652.19 404.01) scale(.1 -.1)">
<use xlink:href="#c"/>
<use x="63.623047" xlink:href="#d"/>
<use x="95.410156" xlink:href="#n"/>
<use x="159.033203" xlink:href="#q"/>
</g>
</g>
<g clip-path="url(#a)">
<g transform="translate(624.56 576.93) scale(.1 -.1)">
<use xlink:href="#c"/>
<use x="63.623047" xlink:href="#d"/>
<use x="95.410156" xlink:href="#n"/>
<use x="159.033203" xlink:href="#m"/>
</g>
</g>
<g clip-path="url(#a)">
<g transform="translate(569.3 576.93) scale(.1 -.1)">
<use xlink:href="#c"/>
<use x="63.623047" xlink:href="#d"/>
<use x="95.410156" xlink:href="#n"/>
<use x="159.033203" xlink:href="#z"/>
</g>
</g>
<g clip-path="url(#a)">
<g transform="translate(735.08 747.47) scale(.1 -.1)">
<use xlink:href="#c"/>
<use x="63.623047" xlink:href="#d"/>
<use x="95.410156" xlink:href="#n"/>
<use x="159.033203" xlink:href="#ac"/>
</g>
</g>
<g clip-path="url(#a)">
<g transform="translate(703.5 576.93) scale(.1 -.1)">
<use xlink:href="#c"/>
<use x="63.623047" xlink:href="#d"/>
<use x="95.410156" xlink:href="#n"/>
<use x="159.033203" xlink:href="#ab"/>
</g>
</g>
<g clip-path="url(#a)">
<g transform="translate(782.45 747.47) scale(.1 -.1)">
<use xlink:href="#c"/>
<use x="63.623047" xlink:href="#d"/>
<use x="95.410156" xlink:href="#q"/>
<use x="159.033203" xlink:href="#c"/>
</g>
</g>
<g clip-path="url(#a)">
<g transform="translate(829.82 747.47) scale(.1 -.1)">
<use xlink:href="#c"/>
<use x="63.623047" xlink:href="#d"/>
<use x="95.410156" xlink:href="#q"/>
<use x="159.033203" xlink:href="#r"/>
</g>
</g>
<g clip-path="url(#a)">
<g transform="translate(640.35 747.47) scale(.1 -.1)">
<use xlink:href="#c"/>
<use x="63.623047" xlink:href="#d"/>
<use x="95.410156" xlink:href="#q"/>
<use x="159.033203" xlink:href="#n"/>
</g>
</g>
<g clip-path="url(#a)">
<g transform="translate(498.24 747.47) scale(.1 -.1)">
<use xlink:href="#c"/>
<use x="63.623047" xlink:href="#d"/>
<use x="95.410156" xlink:href="#q"/>
<use x="159.033203" xlink:href="#q"/>
</g>
</g>
<g clip-path="url(#a)">
<g transform="translate(545.61 747.47) scale(.1 -.1)">
<use xlink:href="#c"/>
<use x="63.623047" xlink:href="#d"/>
<use x="95.410156" xlink:href="#q"/>
<use x="159.033203" xlink:href="#m"/>
</g>
</g>
<g clip-path="url(#a)">
<g transform="translate(190.36 576.93) scale(.1 -.1)">
<use xlink:href="#c"/>
<use x="63.623047" xlink:href="#d"/>
<use x="95.410156" xlink:href="#q"/>
<use x="159.033203" xlink:href="#z"/>
</g>
</g>
<g clip-path="url(#a)">
<g transform="translate(308.78 747.47) scale(.1 -.1)">
<use xlink:href="#c"/>
<use x="63.623047" xlink:href="#d"/>
<use x="95.410156" xlink:href="#q"/>
<use x="159.033203" xlink:href="#ac"/>
</g>
</g>
<g clip-path="url(#a)">
<g transform="translate(308.78 747.47) scale(.1 -.1)">
<use xlink:href="#c"/>
<use x="63.623047" xlink:href="#d"/>
<use x="95.410156" xlink:href="#q"/>
<use x="159.033203" xlink:href="#ab"/>
</g>
</g>
<g clip-path="url(#a)">
<g transform="translate(166.67 747.47) scale(.1 -.1)">
<use xlink:href="#c"/>
<use x="63.623047" xlink:href="#d"/>
<use x="95.410156" xlink:href="#q"/>
<use x="159.033203" xlink:href="#ag"/>
</g>
</g>
<g clip-path="url(#a)">
<g transform="translate(214.04 747.47) scale(.1 -.1)">
<use xlink:href="#c"/>
<use x="63.623047" xlink:href="#d"/>
<use x="95.410156" xlink:href="#m"/>
<use x="159.033203" xlink:href="#ai"/>
</g>
</g>
<g clip-path="url(#a)">
<g transform="translate(1118.6 47.503) scale(.1 -.1)">
<use xlink:href="#c"/>
<use x="63.623047" xlink:href="#d"/>
<use x="95.410156" xlink:href="#m"/>
<use x="159.033203" xlink:href="#c"/>
</g>
</g>
<g clip-path="url(#a)">
<g transform="translate(691 47.503) scale(.1 -.1)">
<use xlink:href="#c"/>
<use x="63.623047" xlink:href="#d"/>
<use x="95.410156" xlink:href="#m"/>
<use x="159.033203" xlink:href="#r"/>
</g>
</g>
<g clip-path="url(#a)">
<g transform="translate(370.62 47.503) scale(.1 -.1)">
<use xlink:href="#c"/>
<use x="63.623047" xlink:href="#d"/>
<use x="95.410156" xlink:href="#m"/>
<use x="159.033203" xlink:href="#n"/>
</g>
</g>
<g clip-path="url(#a)">
<g transform="translate(194.3 227.77) scale(.1 -.1)">
<use xlink:href="#c"/>
<use x="63.623047" xlink:href="#d"/>
<use x="95.410156" xlink:href="#m"/>
<use x="159.033203" xlink:href="#q"/>
</g>
</g>
<g clip-path="url(#a)">
<g transform="translate(71.938 747.47) scale(.1 -.1)">
<use xlink:href="#c"/>
<use x="63.623047" xlink:href="#d"/>
<use x="95.410156" xlink:href="#m"/>
<use x="159.033203" xlink:href="#m"/>
</g>
</g>
<g clip-path="url(#a)">
<g transform="translate(592.98 747.47) scale(.1 -.1)">
<use xlink:href="#c"/>
<use x="63.623047" xlink:href="#d"/>
<use x="95.410156" xlink:href="#m"/>
<use x="159.033203" xlink:href="#z"/>
</g>
</g>
<g clip-path="url(#a)">
<g transform="translate(687.71 747.47) scale(.1 -.1)">
<use xlink:href="#c"/>
<use x="63.623047" xlink:href="#d"/>
<use x="95.410156" xlink:href="#m"/>
<use x="159.033203" xlink:href="#ac"/>
</g>
</g>
<g clip-path="url(#a)">
<g transform="translate(877.18 747.47) scale(.1 -.1)">
<use xlink:href="#c"/>
<use x="63.623047" xlink:href="#d"/>
<use x="95.410156" xlink:href="#m"/>
<use x="159.033203" xlink:href="#ab"/>
</g>
</g>
<g clip-path="url(#a)">
<g transform="translate(1350.9 747.47) scale(.1 -.1)">
<use xlink:href="#c"/>
<use x="63.623047" xlink:href="#d"/>
<use x="95.410156" xlink:href="#m"/>
<use x="159.033203" xlink:href="#ag"/>
</g>
</g>
<g clip-path="url(#a)">
<g transform="translate(1729.8 747.47) scale(.1 -.1)">
<use xlink:href="#c"/>
<use x="63.623047" xlink:href="#d"/>
<use x="95.410156" xlink:href="#z"/>
<use x="159.033203" xlink:href="#ai"/>
</g>
</g>
<defs>
<clipPath id="a">
<rect width="1824" height="960"/>
</clipPath>
</defs>
</svg>
