<?xml version="1.0" encoding="UTF-8"?>
<!DOCTYPE svg  PUBLIC '-//W3C//DTD SVG 1.1//EN'  'http://www.w3.org/Graphics/SVG/1.1/DTD/svg11.dtd'>
<svg width="1469.3pt" height="773.33pt" version="1.1" viewBox="0 0 1469.3 773.33" xmlns="http://www.w3.org/2000/svg" xmlns:xlink="http://www.w3.org/1999/xlink">
<defs>
<style type="text/css">*{stroke-linecap:butt;stroke-linejoin:round;}</style>
</defs>
<path d="m0 773.33h1469.3v-773.33h-1469.3z" fill="#fff"/>
<g fill="none" stroke="#000">
<path d="m940.82 35.739v86.156" clip-path="url(#a)"/>
<path d="m940.82 121.89 461.55 615.7" clip-path="url(#a)"/>
<path d="m940.82 121.89 419.82 615.7" clip-path="url(#a)"/>
<path d="m940.82 121.89-873.85 542.82" clip-path="url(#a)"/>
<path d="m940.82 121.89-7.5237 83.561" clip-path="url(#a)"/>
<path d="m66.965 664.72v72.875" clip-path="url(#a)"/>
<path d="m933.29 205.46 385.61 532.14" clip-path="url(#a)"/>
<path d="m933.29 205.46-385.61 81.17" clip-path="url(#a)"/>
<path d="m547.68 286.63 729.5 450.97" clip-path="url(#a)"/>
<path d="m547.68 286.63-438.98 378.09" clip-path="url(#a)"/>
<path d="m547.68 286.63-397.25 378.09" clip-path="url(#a)"/>
<path d="m547.68 286.63 106.74 78.989" clip-path="url(#a)"/>
<path d="m108.7 664.72v72.875" clip-path="url(#a)"/>
<path d="m150.43 664.72v72.875" clip-path="url(#a)"/>
<path d="m654.41 365.61-420.52 226.23" clip-path="url(#a)"/>
<path d="m654.41 365.61-295.33 299.1" clip-path="url(#a)"/>
<path d="m654.41 365.61-211.87 226.23" clip-path="url(#a)"/>
<path d="m654.41 365.61-86.673 299.1" clip-path="url(#a)"/>
<path d="m654.41 365.61-3.2101 226.23" clip-path="url(#a)"/>
<path d="m654.41 365.61 121.98 299.1" clip-path="url(#a)"/>
<path d="m654.41 365.61 212.4 152.34" clip-path="url(#a)"/>
<path d="m654.41 365.61 330.64 299.1" clip-path="url(#a)"/>
<path d="m654.41 365.61 448.88 77.028" clip-path="url(#a)"/>
<path d="m654.41 365.61-337.06 299.1" clip-path="url(#a)"/>
<path d="m654.41 365.61-128.4 299.1" clip-path="url(#a)"/>
<path d="m654.41 365.61 80.253 299.1" clip-path="url(#a)"/>
<path d="m654.41 365.61 288.91 299.1" clip-path="url(#a)"/>
<path d="m233.89 591.84-41.731 72.875" clip-path="url(#a)"/>
<path d="m233.89 591.84v72.875" clip-path="url(#a)"/>
<path d="m233.89 591.84 41.731 72.875" clip-path="url(#a)"/>
<path d="m359.08 664.72v72.875" clip-path="url(#a)"/>
<path d="m442.55 591.84-41.731 72.875" clip-path="url(#a)"/>
<path d="m442.55 591.84v72.875" clip-path="url(#a)"/>
<path d="m442.55 591.84 41.731 72.875" clip-path="url(#a)"/>
<path d="m567.74 664.72v72.875" clip-path="url(#a)"/>
<path d="m651.2 591.84-41.731 72.875" clip-path="url(#a)"/>
<path d="m651.2 591.84v72.875" clip-path="url(#a)"/>
<path d="m651.2 591.84 41.731 72.875" clip-path="url(#a)"/>
<path d="m776.4 664.72v72.875" clip-path="url(#a)"/>
<path d="m866.82 517.95-48.687 146.76" clip-path="url(#a)"/>
<path d="m866.82 517.95 13.91 73.889" clip-path="url(#a)"/>
<path d="m866.82 517.95 34.776 146.76" clip-path="url(#a)"/>
<path d="m985.05 664.72v72.875" clip-path="url(#a)"/>
<path d="m1103.3 442.64-76.507 222.08" clip-path="url(#a)"/>
<path d="m1103.3 442.64 76.507 75.312" clip-path="url(#a)"/>
<path d="m1026.8 664.72v72.875" clip-path="url(#a)"/>
<path d="m1179.8 517.95-69.552 73.889" clip-path="url(#a)"/>
<path d="m1179.8 517.95 13.91 146.76" clip-path="url(#a)"/>
<path d="m1179.8 517.95 55.642 146.76" clip-path="url(#a)"/>
<path d="m1110.2 591.84-41.731 72.875" clip-path="url(#a)"/>
<path d="m1110.2 591.84v72.875" clip-path="url(#a)"/>
<path d="m1110.2 591.84 41.731 72.875" clip-path="url(#a)"/>
<path d="m1193.7 664.72v72.875" clip-path="url(#a)"/>
<path d="m1068.5 664.72v72.875" clip-path="url(#a)"/>
<path d="m1110.2 664.72v72.875" clip-path="url(#a)"/>
<path d="m1152 664.72v72.875" clip-path="url(#a)"/>
<path d="m818.13 664.72v72.875" clip-path="url(#a)"/>
<path d="m880.73 591.84 20.866 72.875" clip-path="url(#a)" stroke-dasharray="3.7,1.6"/>
<path d="m880.73 591.84-20.866 72.875" clip-path="url(#a)"/>
<path d="m901.59 664.72v72.875" clip-path="url(#a)"/>
<path d="m859.86 664.72v72.875" clip-path="url(#a)"/>
<path d="m609.47 664.72v72.875" clip-path="url(#a)"/>
<path d="m651.2 664.72v72.875" clip-path="url(#a)"/>
<path d="m692.94 664.72v72.875" clip-path="url(#a)"/>
<path d="m400.82 664.72v72.875" clip-path="url(#a)"/>
<path d="m442.55 664.72v72.875" clip-path="url(#a)"/>
<path d="m484.28 664.72v72.875" clip-path="url(#a)"/>
<path d="m192.16 664.72v72.875" clip-path="url(#a)"/>
<path d="m233.89 664.72v72.875" clip-path="url(#a)"/>
<path d="m275.62 664.72v72.875" clip-path="url(#a)"/>
<path d="m317.35 664.72v72.875" clip-path="url(#a)"/>
<path d="m526.01 664.72v72.875" clip-path="url(#a)"/>
<path d="m734.67 664.72v72.875" clip-path="url(#a)"/>
<path d="m943.32 664.72v72.875" clip-path="url(#a)"/>
<path d="m1235.4 664.72v72.875" clip-path="url(#a)"/>
</g>
<path d="m934.54 75.809v6.0162q0 2.4 2.4 2.4h7.7425q2.4 0 2.4-2.4v-6.0162q0-2.4-2.4-2.4h-7.7425q-2.4 0-2.4 2.4z" clip-path="url(#a)" fill="#fff" stroke="#fff"/>
<g clip-path="url(#a)">
<defs>
<path id="as" d="m9.8125 72.906h9.8594v-29.891h35.844v29.891h9.8594v-72.906h-9.8594v34.719h-35.844v-34.719h-9.8594z"/>
</defs>
<g transform="translate(938.61 75.809) rotate(90) scale(.08 -.08)">
<use xlink:href="#as"/>
</g>
</g>
<path d="m1164.9 431.32 3.2825 4.3788q1.4396 1.9203 3.3599 0.48078l6.1951-4.6441q1.9203-1.4396 0.48078-3.3599l-3.2825-4.3788q-1.4396-1.9203-3.3599-0.48078l-6.1951 4.6441q-1.9203 1.4396-0.48078 3.3599z" clip-path="url(#a)" fill="#fff" stroke="#fff"/>
<g clip-path="url(#a)">
<defs>
<path id="y" d="m34.188 63.188-13.391-36.281h26.812zm-5.5781 9.7188h11.188l27.781-72.906h-10.25l-6.6406 18.703h-32.859l-6.6406-18.703h-10.406z"/>
</defs>
<g transform="translate(1168.2 428.88) rotate(53.143) scale(.08 -.08)">
<use xlink:href="#y"/>
</g>
</g>
<path d="m1144.2 431.28 2.7175 3.9854q1.3521 1.9829 3.335 0.63084l6.3969-4.3618q1.9829-1.3521 0.63084-3.335l-2.7175-3.9854q-1.3521-1.9829-3.335-0.63084l-6.3969 4.3618q-1.9829 1.3521-0.63084 3.335z" clip-path="url(#a)" fill="#fff" stroke="#fff"/>
<g clip-path="url(#a)">
<defs>
<path id="t" d="m19.672 64.797v-27.391h12.406q6.8906 0 10.641 3.5625 3.7656 3.5625 3.7656 10.156 0 6.5469-3.7656 10.109-3.75 3.5625-10.641 3.5625zm-9.8594 8.1094h22.266q12.266 0 18.531-5.5469 6.2812-5.5469 6.2812-16.234 0-10.797-6.2812-16.312-6.2656-5.5156-18.531-5.5156h-12.406v-29.297h-9.8594z"/>
</defs>
<g transform="translate(1147.5 429) rotate(55.711) scale(.08 -.08)">
<use xlink:href="#t"/>
</g>
</g>
<path d="m504.58 400.26 5.2326-3.2504q2.0387-1.2664 0.77228-3.3051l-4.0855-6.5769q-1.2664-2.0387-3.3051-0.77228l-5.2326 3.2504q-2.0387 1.2664-0.77228 3.3051l4.0855 6.5769q1.2664 2.0387 3.3051 0.77228z" clip-path="url(#a)" fill="#fff" stroke="#fff"/>
<g clip-path="url(#a)">
<defs>
<path id="ap" d="m19.672 64.797v-56.688h11.922q15.094 0 22.094 6.8281 7 6.8438 7 21.594 0 14.641-7 21.453t-22.094 6.8125zm-9.8594 8.1094h20.266q21.188 0 31.094-8.8125 9.9219-8.8125 9.9219-27.562 0-18.859-9.9688-27.703-9.9531-8.8281-31.047-8.8281h-20.266z"/>
</defs>
<g transform="translate(502.44 396.81) rotate(-31.848) scale(.08 -.08)">
<use xlink:href="#ap"/>
</g>
</g>
<path d="m943.05 166.96 0.49075-5.4505q0.21522-2.3903-2.1751-2.6056l-7.7113-0.69431q-2.3903-0.21522-2.6056 2.1751l-0.49075 5.4505q-0.21522 2.3903 2.1751 2.6056l7.7113 0.69431q2.3903 0.21522 2.6056-2.1751z" clip-path="url(#a)" fill="#fff" stroke="#fff"/>
<g clip-path="url(#a)">
<g transform="translate(939.01 166.6) rotate(-84.855) scale(.08 -.08)">
<use xlink:href="#y"/>
</g>
</g>
<path d="m60.694 683.51v35.285q0 2.4 2.4 2.4h7.7425q2.4 0 2.4-2.4v-35.285q0-2.4-2.4-2.4h-7.7425q-2.4 0-2.4 2.4z" clip-path="url(#a)" fill="#fff" stroke="#fff"/>
<g clip-path="url(#a)">
<defs>
<path id="k" d="m-0.29688 72.906h61.672v-8.3125h-25.875v-64.594h-9.9062v64.594h-25.891z"/>
<path id="d" d="m56.203 29.594v-4.3906h-41.312q0.59375-9.2812 5.5938-14.141t13.938-4.8594q5.1719 0 10.031 1.2656t9.6562 3.8125v-8.5q-4.8438-2.0469-9.9219-3.125t-10.297-1.0781q-13.094 0-20.734 7.6094-7.6406 7.625-7.6406 20.625 0 13.422 7.25 21.297 7.25 7.8906 19.562 7.8906 11.031 0 17.453-7.1094 6.4219-7.0938 6.4219-19.297zm-8.9844 2.6406q-0.09375 7.3594-4.125 11.75-4.0312 4.4062-10.672 4.4062-7.5156 0-12.031-4.25t-5.2031-11.969z"/>
<path id="e" d="m41.109 46.297q-1.5156 0.875-3.2969 1.2812-1.7812 0.42188-3.9219 0.42188-7.625 0-11.703-4.9531t-4.0781-14.234v-28.812h-9.0312v54.688h9.0312v-8.5q2.8438 4.9844 7.375 7.3906 4.5469 2.4219 11.047 2.4219 0.92188 0 2.0469-0.125 1.125-0.10938 2.4844-0.35938z"/>
<path id="l" d="m52 44.188q3.375 6.0625 8.0625 8.9375t11.031 2.875q8.5469 0 13.188-5.9844 4.6406-5.9688 4.6406-17v-33.016h-9.0312v32.719q0 7.8594-2.7969 11.656-2.7812 3.8125-8.4844 3.8125-6.9844 0-11.047-4.6406-4.0469-4.625-4.0469-12.641v-30.906h-9.0312v32.719q0 7.9062-2.7812 11.688t-8.5938 3.7812q-6.8906 0-10.953-4.6562-4.0469-4.6562-4.0469-12.625v-30.906h-9.0312v54.688h9.0312v-8.5q3.0781 5.0312 7.375 7.4219t10.203 2.3906q5.9688 0 10.141-3.0312 4.1719-3.0156 6.1719-8.7812z"/>
<path id="i" d="m9.4219 54.688h8.9844v-54.688h-8.9844zm0 21.297h8.9844v-11.391h-8.9844z"/>
<path id="h" d="m54.891 33.016v-33.016h-8.9844v32.719q0 7.7656-3.0312 11.609-3.0312 3.8594-9.0781 3.8594-7.2812 0-11.484-4.6406-4.2031-4.625-4.2031-12.641v-30.906h-9.0312v54.688h9.0312v-8.5q3.2344 4.9375 7.5938 7.375 4.375 2.4375 10.094 2.4375 9.4219 0 14.25-5.8281 4.8438-5.8281 4.8438-17.156z"/>
<path id="f" d="m34.281 27.484q-10.891 0-15.094-2.4844t-4.2031-8.5q0-4.7812 3.1562-7.5938 3.1562-2.7969 8.5625-2.7969 7.4844 0 12 5.2969t4.5156 14.078v2zm17.922 3.7188v-31.203h-8.9844v8.2969q-3.0781-4.9688-7.6719-7.3438t-11.234-2.375q-8.3906 0-13.359 4.7188-4.9531 4.7188-4.9531 12.625 0 9.2188 6.1719 13.906 6.1875 4.6875 18.438 4.6875h12.609v0.89062q0 6.2031-4.0781 9.5938t-11.453 3.3906q-4.6875 0-9.1406-1.125-4.4375-1.125-8.5312-3.375v8.3125q4.9219 1.9062 9.5625 2.8438 4.6406 0.95312 9.0312 0.95312 11.875 0 17.734-6.1562 5.8594-6.1406 5.8594-18.641z"/>
<path id="j" d="m9.4219 75.984h8.9844v-75.984h-8.9844z"/>
</defs>
<g transform="translate(64.757 683.51) rotate(90) scale(.08 -.08)">
<use xlink:href="#k"/>
<use x="60.818359" xlink:href="#d"/>
<use x="122.341797" xlink:href="#e"/>
<use x="163.439453" xlink:href="#l"/>
<use x="260.851562" xlink:href="#i"/>
<use x="288.634766" xlink:href="#h"/>
<use x="352.013672" xlink:href="#f"/>
<use x="413.292969" xlink:href="#j"/>
</g>
</g>
<path d="m1119.4 472.94 3.2779 4.5234q1.4083 1.9434 3.3517 0.53511l6.2695-4.5432q1.9434-1.4083 0.53511-3.3517l-3.2779-4.5234q-1.4083-1.9434-3.3517-0.53511l-6.2695 4.5432q-1.9434 1.4083-0.53511 3.3517z" clip-path="url(#a)" fill="#fff" stroke="#fff"/>
<g clip-path="url(#a)">
<defs>
<path id="m" d="m64.406 67.281v-10.391q-4.9844 4.6406-10.625 6.9219-5.6406 2.2969-11.984 2.2969-12.5 0-19.141-7.6406t-6.6406-22.094q0-14.406 6.6406-22.047t19.141-7.6406q6.3438 0 11.984 2.2969t10.625 6.9375v-10.312q-5.1719-3.5156-10.969-5.2812-5.7812-1.75-12.219-1.75-16.562 0-26.094 10.125-9.5156 10.141-9.5156 27.672 0 17.578 9.5156 27.703 9.5312 10.141 26.094 10.141 6.5312 0 12.312-1.7344 5.7969-1.7344 10.875-5.2031z"/>
</defs>
<g transform="translate(1122.7 470.56) rotate(54.071) scale(.08 -.08)">
<use xlink:href="#m"/>
</g>
</g>
<path d="m739.3 252.7 4.9466-1.0412q2.3485-0.49436 1.8542-2.8429l-1.5948-7.5765q-0.49436-2.3485-2.8429-1.8542l-4.9466 1.0412q-2.3485 0.49436-1.8542 2.8429l1.5948 7.5765q0.49436 2.3485 2.8429 1.8542z" clip-path="url(#a)" fill="#fff" stroke="#fff"/>
<g clip-path="url(#a)">
<defs>
<path id="o" d="m9.8125 72.906h46.094v-8.3125h-36.234v-21.578h34.719v-8.2969h-34.719v-26.422h37.109v-8.2969h-46.969z"/>
</defs>
<g transform="translate(738.47 248.72) rotate(-11.887) scale(.08 -.08)">
<use xlink:href="#o"/>
</g>
</g>
<path d="m906.8 516.01 4.6549 2.8776q2.0414 1.262 3.3034-0.77943l4.0712-6.5857q1.262-2.0414-0.77943-3.3034l-4.6549-2.8776q-2.0414-1.262-3.3034 0.77943l-4.0712 6.5857q-1.262 2.0414 0.77943 3.3034z" clip-path="url(#a)" fill="#fff" stroke="#fff"/>
<g clip-path="url(#a)">
<g transform="translate(908.94 512.55) rotate(31.724) scale(.08 -.08)">
<use xlink:href="#y"/>
</g>
</g>
<path d="m329.95 482.43 4.6674-4.02q1.8185-1.5662 0.25223-3.3847l-5.0528-5.8665q-1.5662-1.8185-3.3847-0.25223l-4.6674 4.02q-1.8185 1.5662-0.25223 3.3847l5.0528 5.8665q1.5662 1.8185 3.3847 0.25223z" clip-path="url(#a)" fill="#fff" stroke="#fff"/>
<g clip-path="url(#a)">
<g transform="translate(327.29 479.36) rotate(-40.738) scale(.08 -.08)">
<use xlink:href="#ap"/>
</g>
</g>
<path d="m351.54 481.97 3.6788-3.5014q1.7385-1.6546 0.083837-3.3931l-5.3379-5.6083q-1.6546-1.7385-3.3931-0.083838l-3.6788 3.5014q-1.7385 1.6546-0.083838 3.3931l5.3379 5.6083q1.6546 1.7385 3.3931 0.083838z" clip-path="url(#a)" fill="#fff" stroke="#fff"/>
<g clip-path="url(#a)">
<defs>
<path id="ar" d="m53.516 70.516v-9.625q-5.6094 2.6875-10.594 4-4.9844 1.3281-9.625 1.3281-8.0469 0-12.422-3.125t-4.375-8.8906q0-4.8438 2.9062-7.3125 2.9062-2.4531 11.016-3.9688l5.9531-1.2188q11.031-2.1094 16.281-7.4062t5.25-14.172q0-10.609-7.1094-16.078-7.0938-5.4688-20.812-5.4688-5.1719 0-11.016 1.1719-5.8281 1.1719-12.078 3.4688v10.156q6-3.3594 11.766-5.0781 5.7656-1.7031 11.328-1.7031 8.4375 0 13.031 3.3125 4.5938 3.3281 4.5938 9.4844 0 5.3594-3.2969 8.3906t-10.812 4.5469l-6.0156 1.1719q-11.031 2.1875-15.969 6.875-4.9219 4.6875-4.9219 13.047 0 9.6719 6.8125 15.234t18.766 5.5625q5.1406 0 10.453-0.9375 5.3281-0.92188 10.891-2.7656z"/>
</defs>
<g transform="translate(348.74 479.02) rotate(-43.585) scale(.08 -.08)">
<use xlink:href="#ar"/>
</g>
</g>
<path d="m595.12 329.53 4.3989 3.2554q1.9292 1.4277 3.3569-0.50152l4.6057-6.2236q1.4277-1.9292-0.50152-3.3569l-4.3989-3.2554q-1.9292-1.4277-3.3569 0.50152l-4.6057 6.2236q-1.4277 1.9292 0.50152 3.3569z" clip-path="url(#a)" fill="#fff" stroke="#fff"/>
<g clip-path="url(#a)">
<g transform="translate(597.53 326.27) rotate(36.503) scale(.08 -.08)">
<use xlink:href="#y"/>
</g>
</g>
<path d="m102.43 683.51v35.285q0 2.4 2.4 2.4h7.7425q2.4 0 2.4-2.4v-35.285q0-2.4-2.4-2.4h-7.7425q-2.4 0-2.4 2.4z" clip-path="url(#a)" fill="#fff" stroke="#fff"/>
<g clip-path="url(#a)">
<g transform="translate(106.49 683.51) rotate(90) scale(.08 -.08)">
<use xlink:href="#k"/>
<use x="60.818359" xlink:href="#d"/>
<use x="122.341797" xlink:href="#e"/>
<use x="163.439453" xlink:href="#l"/>
<use x="260.851562" xlink:href="#i"/>
<use x="288.634766" xlink:href="#h"/>
<use x="352.013672" xlink:href="#f"/>
<use x="413.292969" xlink:href="#j"/>
</g>
</g>
<path d="m144.16 683.51v35.285q0 2.4 2.4 2.4h7.7425q2.4 0 2.4-2.4v-35.285q0-2.4-2.4-2.4h-7.7425q-2.4 0-2.4 2.4z" clip-path="url(#a)" fill="#fff" stroke="#fff"/>
<g clip-path="url(#a)">
<g transform="translate(148.22 683.51) rotate(90) scale(.08 -.08)">
<use xlink:href="#k"/>
<use x="60.818359" xlink:href="#d"/>
<use x="122.341797" xlink:href="#e"/>
<use x="163.439453" xlink:href="#l"/>
<use x="260.851562" xlink:href="#i"/>
<use x="288.634766" xlink:href="#h"/>
<use x="352.013672" xlink:href="#f"/>
<use x="413.292969" xlink:href="#j"/>
</g>
</g>
<path d="m444.66 485.58 4.9195-2.6466q2.1136-1.137 0.97653-3.2506l-3.6681-6.8184q-1.137-2.1136-3.2506-0.97653l-4.9195 2.6466q-2.1136 1.137-0.97653 3.2506l3.6681 6.8184q1.137 2.1136 3.2506 0.97653z" clip-path="url(#a)" fill="#fff" stroke="#fff"/>
<g clip-path="url(#a)">
<g transform="translate(442.74 482) rotate(-28.279) scale(.08 -.08)">
<use xlink:href="#m"/>
</g>
</g>
<path d="m509.11 521.7 4.2051-4.2588q1.6862-1.7078-0.021552-3.394l-5.5094-5.4399q-1.7078-1.6862-3.394 0.021553l-4.2051 4.2588q-1.6862 1.7078 0.021553 3.394l5.5094 5.4399q1.7078 1.6862 3.394-0.021552z" clip-path="url(#a)" fill="#fff" stroke="#fff"/>
<g clip-path="url(#a)">
<defs>
<path id="x" d="m9.8125 72.906h13.281l32.328-60.984v60.984h9.5625v-72.906h-13.281l-32.312 60.984v-60.984h-9.5781z"/>
</defs>
<g transform="translate(506.22 518.85) rotate(-45.364) scale(.08 -.08)">
<use xlink:href="#x"/>
</g>
</g>
<path d="m551.15 485.05 3.8185-4.0774q1.6405-1.7518-0.11121-3.3923l-5.6512-5.2925q-1.7518-1.6405-3.3923 0.11121l-3.8185 4.0774q-1.6405 1.7518 0.11121 3.3923l5.6512 5.2925q1.7518 1.6405 3.3923-0.11121z" clip-path="url(#a)" fill="#fff" stroke="#fff"/>
<g clip-path="url(#a)">
<g transform="translate(548.18 482.28) rotate(-46.878) scale(.08 -.08)">
<use xlink:href="#m"/>
</g>
</g>
<path d="m616.27 519.79 1.6658-5.7485q0.66798-2.3052-1.6372-2.9731l-7.4366-2.1549q-2.3052-0.66798-2.9731 1.6372l-1.6658 5.7485q-0.66798 2.3052 1.6372 2.9731l7.4366 2.1549q2.3052 0.66798 2.9731-1.6372z" clip-path="url(#a)" fill="#fff" stroke="#fff"/>
<g clip-path="url(#a)">
<g transform="translate(612.37 518.66) rotate(-73.84) scale(.08 -.08)">
<use xlink:href="#x"/>
</g>
</g>
<path d="m659.04 481.61 0.079259-5.5857q0.034052-2.3998-2.3657-2.4338l-7.7417-0.10985q-2.3998-0.034052-2.4338 2.3657l-0.079259 5.5857q-0.034052 2.3998 2.3657 2.4338l7.7417 0.10985q2.3998 0.034052 2.4338-2.3657z" clip-path="url(#a)" fill="#fff" stroke="#fff"/>
<g clip-path="url(#a)">
<g transform="translate(654.98 481.55) rotate(-89.187) scale(.08 -.08)">
<use xlink:href="#m"/>
</g>
</g>
<path d="m708.47 514.76 2.2601 5.5418q0.90632 2.2223 3.1286 1.316l7.1692-2.9238q2.2223-0.90632 1.316-3.1286l-2.2601-5.5418q-0.90632-2.2223-3.1286-1.316l-7.1692 2.9238q-2.2223 0.90632-1.316 3.1286z" clip-path="url(#a)" fill="#fff" stroke="#fff"/>
<g clip-path="url(#a)">
<g transform="translate(712.23 513.23) rotate(67.813) scale(.08 -.08)">
<use xlink:href="#x"/>
</g>
</g>
<path d="m754.69 445.25 4.5394 3.2558q1.9502 1.3988 3.349-0.55148l4.5125-6.2916q1.3988-1.9502-0.55148-3.349l-4.5394-3.2558q-1.9502-1.3988-3.349 0.55148l-4.5125 6.2916q-1.3988 1.9502 0.55148 3.349z" clip-path="url(#a)" fill="#fff" stroke="#fff"/>
<g clip-path="url(#a)">
<g transform="translate(757.06 441.95) rotate(35.649) scale(.08 -.08)">
<use xlink:href="#m"/>
</g>
</g>
<path d="m813.31 517.81 4.4384 4.0151q1.7798 1.6101 3.3899-0.16976l5.1941-5.7417q1.6101-1.7798-0.16976-3.3899l-4.4384-4.0151q-1.7798-1.6101-3.3899 0.16976l-5.1941 5.7417q-1.6101 1.7798 0.16976 3.3899z" clip-path="url(#a)" fill="#fff" stroke="#fff"/>
<g clip-path="url(#a)">
<g transform="translate(816.03 514.8) rotate(42.133) scale(.08 -.08)">
<use xlink:href="#x"/>
</g>
</g>
<path d="m875.04 409.84 5.5058 0.94479q2.3654 0.40591 2.7713-1.9595l1.3095-7.631q0.40591-2.3654-1.9595-2.7713l-5.5058-0.94479q-2.3654-0.40591-2.7713 1.9595l-1.3095 7.631q-0.40591 2.3654 1.9595 2.7713z" clip-path="url(#a)" fill="#fff" stroke="#fff"/>
<g clip-path="url(#a)">
<g transform="translate(875.73 405.83) rotate(9.7371) scale(.08 -.08)">
<use xlink:href="#m"/>
</g>
</g>
<path d="m487.86 521.8 4.3793-3.8862q1.7951-1.593 0.20215-3.3881l-5.139-5.7911q-1.593-1.7951-3.3881-0.20215l-4.3793 3.8862q-1.7951 1.593-0.20215 3.3881l5.139 5.7911q1.593 1.7951 3.3881 0.20215z" clip-path="url(#a)" fill="#fff" stroke="#fff"/>
<g clip-path="url(#a)">
<defs>
<path id="w" d="m8.6875 72.906h9.9219v-44.297q0-11.719 4.2344-16.875 4.25-5.1406 13.781-5.1406 9.4688 0 13.719 5.1406 4.25 5.1562 4.25 16.875v44.297h9.9062v-45.516q0-14.25-7.0625-21.531-7.0469-7.2812-20.812-7.2812-13.828 0-20.891 7.2812-7.0469 7.2812-7.0469 21.531z"/>
</defs>
<g transform="translate(485.16 518.76) rotate(-41.586) scale(.08 -.08)">
<use xlink:href="#w"/>
</g>
</g>
<path d="m594.82 520.33 2.3097-5.3802q0.94676-2.2054-1.2586-3.1521l-7.1146-3.0543q-2.2054-0.94676-3.1521 1.2586l-2.3097 5.3802q-0.94676 2.2054 1.2586 3.1521l7.1146 3.0543q2.2054 0.94676 3.1521-1.2586z" clip-path="url(#a)" fill="#fff" stroke="#fff"/>
<g clip-path="url(#a)">
<g transform="translate(591.09 518.73) rotate(-66.766) scale(.08 -.08)">
<use xlink:href="#w"/>
</g>
</g>
<path d="m687.72 513.96 1.5173 5.655q0.62195 2.318 2.94 1.6961l7.478-2.0064q2.318-0.62195 1.6961-2.94l-1.5173-5.655q-0.62195-2.318-2.94-1.6961l-7.478 2.0064q-2.318 0.62194-1.6961 2.94z" clip-path="url(#a)" fill="#fff" stroke="#fff"/>
<g clip-path="url(#a)">
<g transform="translate(691.65 512.91) rotate(74.981) scale(.08 -.08)">
<use xlink:href="#w"/>
</g>
</g>
<path d="m792.32 517.42 4.0677 4.2113q1.6674 1.7262 3.3936 0.058838l5.5689-5.379q1.7262-1.6674 0.058838-3.3936l-4.0677-4.2113q-1.6674-1.7262-3.3936-0.058838l-5.5689 5.379q-1.7262 1.6674-0.058838 3.3936z" clip-path="url(#a)" fill="#fff" stroke="#fff"/>
<g clip-path="url(#a)">
<g transform="translate(795.25 514.59) rotate(45.993) scale(.08 -.08)">
<use xlink:href="#w"/>
</g>
</g>
<path d="m217.21 633.59 2.512-4.3867q1.1926-2.0827-0.89006-3.2753l-6.7189-3.8475q-2.0827-1.1926-3.2753 0.89006l-2.512 4.3867q-1.1926 2.0827 0.89006 3.2753l6.7189 3.8475q2.0827 1.1926 3.2753-0.89006z" clip-path="url(#a)" fill="#fff" stroke="#fff"/>
<g clip-path="url(#a)">
<g transform="translate(213.68 631.57) rotate(-60.203) scale(.08 -.08)">
<use xlink:href="#o"/>
</g>
</g>
<path d="m227.62 625.75v5.055q0 2.4 2.4 2.4h7.7425q2.4 0 2.4-2.4v-5.055q0-2.4-2.4-2.4h-7.7425q-2.4 0-2.4 2.4z" clip-path="url(#a)" fill="#fff" stroke="#fff"/>
<g clip-path="url(#a)">
<g transform="translate(231.68 625.75) rotate(90) scale(.08 -.08)">
<use xlink:href="#o"/>
</g>
</g>
<path d="m247.93 628.97 2.776 4.8477q1.1926 2.0827 3.2753 0.89006l6.7189-3.8475q2.0827-1.1926 0.89006-3.2753l-2.776-4.8477q-1.1926-2.0827-3.2753-0.89006l-6.7189 3.8475q-2.0827 1.1926-0.89006 3.2753z" clip-path="url(#a)" fill="#fff" stroke="#fff"/>
<g clip-path="url(#a)">
<g transform="translate(251.45 626.95) rotate(60.203) scale(.08 -.08)">
<use xlink:href="#m"/>
</g>
</g>
<path d="m352.81 683.51v35.285q0 2.4 2.4 2.4h7.7425q2.4 0 2.4-2.4v-35.285q0-2.4-2.4-2.4h-7.7425q-2.4 0-2.4 2.4z" clip-path="url(#a)" fill="#fff" stroke="#fff"/>
<g clip-path="url(#a)">
<g transform="translate(356.88 683.51) rotate(90) scale(.08 -.08)">
<use xlink:href="#k"/>
<use x="60.818359" xlink:href="#d"/>
<use x="122.341797" xlink:href="#e"/>
<use x="163.439453" xlink:href="#l"/>
<use x="260.851562" xlink:href="#i"/>
<use x="288.634766" xlink:href="#h"/>
<use x="352.013672" xlink:href="#f"/>
<use x="413.292969" xlink:href="#j"/>
</g>
</g>
<path d="m425.87 633.59 2.512-4.3867q1.1926-2.0827-0.89006-3.2753l-6.7189-3.8475q-2.0827-1.1926-3.2753 0.89006l-2.512 4.3867q-1.1926 2.0827 0.89006 3.2753l6.7189 3.8475q2.0827 1.1926 3.2753-0.89006z" clip-path="url(#a)" fill="#fff" stroke="#fff"/>
<g clip-path="url(#a)">
<g transform="translate(422.34 631.57) rotate(-60.203) scale(.08 -.08)">
<use xlink:href="#o"/>
</g>
</g>
<path d="m436.28 625.75v5.055q0 2.4 2.4 2.4h7.7425q2.4 0 2.4-2.4v-5.055q0-2.4-2.4-2.4h-7.7425q-2.4 0-2.4 2.4z" clip-path="url(#a)" fill="#fff" stroke="#fff"/>
<g clip-path="url(#a)">
<g transform="translate(440.34 625.75) rotate(90) scale(.08 -.08)">
<use xlink:href="#o"/>
</g>
</g>
<path d="m456.58 628.97 2.776 4.8477q1.1926 2.0827 3.2753 0.89006l6.7189-3.8475q2.0827-1.1926 0.89006-3.2753l-2.776-4.8477q-1.1926-2.0827-3.2753-0.89006l-6.7189 3.8475q-2.0827 1.1926-0.89006 3.2753z" clip-path="url(#a)" fill="#fff" stroke="#fff"/>
<g clip-path="url(#a)">
<g transform="translate(460.11 626.95) rotate(60.203) scale(.08 -.08)">
<use xlink:href="#m"/>
</g>
</g>
<path d="m561.47 683.51v35.285q0 2.4 2.4 2.4h7.7425q2.4 0 2.4-2.4v-35.285q0-2.4-2.4-2.4h-7.7425q-2.4 0-2.4 2.4z" clip-path="url(#a)" fill="#fff" stroke="#fff"/>
<g clip-path="url(#a)">
<g transform="translate(565.53 683.51) rotate(90) scale(.08 -.08)">
<use xlink:href="#k"/>
<use x="60.818359" xlink:href="#d"/>
<use x="122.341797" xlink:href="#e"/>
<use x="163.439453" xlink:href="#l"/>
<use x="260.851562" xlink:href="#i"/>
<use x="288.634766" xlink:href="#h"/>
<use x="352.013672" xlink:href="#f"/>
<use x="413.292969" xlink:href="#j"/>
</g>
</g>
<path d="m634.52 633.59 2.512-4.3867q1.1926-2.0827-0.89006-3.2753l-6.7189-3.8475q-2.0827-1.1926-3.2753 0.89006l-2.512 4.3867q-1.1926 2.0827 0.89006 3.2753l6.7189 3.8475q2.0827 1.1926 3.2753-0.89006z" clip-path="url(#a)" fill="#fff" stroke="#fff"/>
<g clip-path="url(#a)">
<g transform="translate(631 631.57) rotate(-60.203) scale(.08 -.08)">
<use xlink:href="#o"/>
</g>
</g>
<path d="m644.93 625.75v5.055q0 2.4 2.4 2.4h7.7425q2.4 0 2.4-2.4v-5.055q0-2.4-2.4-2.4h-7.7425q-2.4 0-2.4 2.4z" clip-path="url(#a)" fill="#fff" stroke="#fff"/>
<g clip-path="url(#a)">
<g transform="translate(649 625.75) rotate(90) scale(.08 -.08)">
<use xlink:href="#o"/>
</g>
</g>
<path d="m665.24 628.97 2.776 4.8477q1.1926 2.0827 3.2753 0.89006l6.7189-3.8475q2.0827-1.1926 0.89006-3.2753l-2.776-4.8477q-1.1926-2.0827-3.2753-0.89006l-6.7189 3.8475q-2.0827 1.1926-0.89006 3.2753z" clip-path="url(#a)" fill="#fff" stroke="#fff"/>
<g clip-path="url(#a)">
<g transform="translate(668.77 626.95) rotate(60.203) scale(.08 -.08)">
<use xlink:href="#m"/>
</g>
</g>
<path d="m770.13 683.51v35.285q0 2.4 2.4 2.4h7.7425q2.4 0 2.4-2.4v-35.285q0-2.4-2.4-2.4h-7.7425q-2.4 0-2.4 2.4z" clip-path="url(#a)" fill="#fff" stroke="#fff"/>
<g clip-path="url(#a)">
<g transform="translate(774.19 683.51) rotate(90) scale(.08 -.08)">
<use xlink:href="#k"/>
<use x="60.818359" xlink:href="#d"/>
<use x="122.341797" xlink:href="#e"/>
<use x="163.439453" xlink:href="#l"/>
<use x="260.851562" xlink:href="#i"/>
<use x="288.634766" xlink:href="#h"/>
<use x="352.013672" xlink:href="#f"/>
<use x="413.292969" xlink:href="#j"/>
</g>
</g>
<path d="m847.63 595.71 1.5916-4.7979q0.75566-2.2779-1.5223-3.0336l-7.3487-2.4378q-2.2779-0.75566-3.0336 1.5223l-1.5916 4.7979q-0.75566 2.2779 1.5223 3.0336l7.3487 2.4378q2.2779 0.75566 3.0336-1.5223z" clip-path="url(#a)" fill="#fff" stroke="#fff"/>
<g clip-path="url(#a)">
<g transform="translate(843.77 594.43) rotate(-71.648) scale(.08 -.08)">
<use xlink:href="#o"/>
</g>
</g>
<path d="m867.14 553.58 0.93523 4.9677q0.44403 2.3586 2.8026 1.9145l7.6088-1.4324q2.3586-0.44403 1.9145-2.8026l-0.93523-4.9677q-0.44403-2.3586-2.8026-1.9145l-7.6088 1.4324q-2.3586 0.44403-1.9145 2.8026z" clip-path="url(#a)" fill="#fff" stroke="#fff"/>
<g clip-path="url(#a)">
<g transform="translate(871.13 552.82) rotate(79.338) scale(.08 -.08)">
<use xlink:href="#o"/>
</g>
</g>
<path d="m877.46 590.06 1.288 5.4357q0.55336 2.3353 2.8887 1.782l7.5339-1.7852q2.3353-0.55336 1.782-2.8887l-1.288-5.4357q-0.55336-2.3353-2.8887-1.782l-7.5339 1.7852q-2.3353 0.55336-1.782 2.8887z" clip-path="url(#a)" fill="#fff" stroke="#fff"/>
<g clip-path="url(#a)">
<g transform="translate(881.41 589.13) rotate(76.67) scale(.08 -.08)">
<use xlink:href="#m"/>
</g>
</g>
<path d="m978.78 683.51v35.285q0 2.4 2.4 2.4h7.7425q2.4 0 2.4-2.4v-35.285q0-2.4-2.4-2.4h-7.7425q-2.4 0-2.4 2.4z" clip-path="url(#a)" fill="#fff" stroke="#fff"/>
<g clip-path="url(#a)">
<g transform="translate(982.85 683.51) rotate(90) scale(.08 -.08)">
<use xlink:href="#k"/>
<use x="60.818359" xlink:href="#d"/>
<use x="122.341797" xlink:href="#e"/>
<use x="163.439453" xlink:href="#l"/>
<use x="260.851562" xlink:href="#i"/>
<use x="288.634766" xlink:href="#h"/>
<use x="352.013672" xlink:href="#f"/>
<use x="413.292969" xlink:href="#j"/>
</g>
</g>
<path d="m1070.1 558.36 1.8196-5.2816q0.78173-2.2691-1.4874-3.0509l-7.3203-2.5219q-2.2691-0.78173-3.0509 1.4874l-1.8196 5.2816q-0.78173 2.2691 1.4874 3.0508l7.3203 2.5219q2.2691 0.78173 3.0509-1.4874z" clip-path="url(#a)" fill="#fff" stroke="#fff"/>
<g clip-path="url(#a)">
<g transform="translate(1066.2 557.04) rotate(-70.991) scale(.08 -.08)">
<use xlink:href="#m"/>
</g>
</g>
<path d="m1135.3 482.99 3.6025 3.5462q1.7104 1.6836 3.394-0.026728l5.4315-5.5177q1.6836-1.7104-0.026727-3.394l-3.6025-3.5462q-1.7104-1.6836-3.394 0.026728l-5.4315 5.5177q-1.6836 1.7104 0.026727 3.394z" clip-path="url(#a)" fill="#fff" stroke="#fff"/>
<g clip-path="url(#a)">
<g transform="translate(1138.2 480.1) rotate(44.549) scale(.08 -.08)">
<use xlink:href="#o"/>
</g>
</g>
<path d="m1020.5 683.51v35.285q0 2.4 2.4 2.4h7.7425q2.4 0 2.4-2.4v-35.285q0-2.4-2.4-2.4h-7.7425q-2.4 0-2.4 2.4z" clip-path="url(#a)" fill="#fff" stroke="#fff"/>
<g clip-path="url(#a)">
<g transform="translate(1024.6 683.51) rotate(90) scale(.08 -.08)">
<use xlink:href="#k"/>
<use x="60.818359" xlink:href="#d"/>
<use x="122.341797" xlink:href="#e"/>
<use x="163.439453" xlink:href="#l"/>
<use x="260.851562" xlink:href="#i"/>
<use x="288.634766" xlink:href="#h"/>
<use x="352.013672" xlink:href="#f"/>
<use x="413.292969" xlink:href="#j"/>
</g>
</g>
<path d="m1147.9 561.04 3.4648-3.6808q1.645-1.7476-0.10257-3.3926l-5.6377-5.3068q-1.7476-1.645-3.3926 0.10257l-3.4648 3.6808q-1.645 1.7476 0.10257 3.3926l5.6377 5.3068q1.7476 1.645 3.3926-0.10257z" clip-path="url(#a)" fill="#fff" stroke="#fff"/>
<g clip-path="url(#a)">
<g transform="translate(1144.9 558.25) rotate(-46.732) scale(.08 -.08)">
<use xlink:href="#o"/>
</g>
</g>
<path d="m1180.2 589.15 0.52711 5.5613q0.22646 2.3893 2.6158 2.1628l7.708-0.73057q2.3893-0.22646 2.1628-2.6158l-0.52711-5.5613q-0.22646-2.3893-2.6158-2.1628l-7.708 0.73057q-2.3893 0.22646-2.1628 2.6158z" clip-path="url(#a)" fill="#fff" stroke="#fff"/>
<g clip-path="url(#a)">
<g transform="translate(1184.3 588.76) rotate(84.586) scale(.08 -.08)">
<use xlink:href="#m"/>
</g>
</g>
<path d="m1200.7 590.82 2.0756 5.4748q0.8508 2.2441 3.0949 1.3933l7.2397-2.7447q2.2441-0.8508 1.3933-3.0949l-2.0756-5.4748q-0.8508-2.2441-3.0949-1.3933l-7.2397 2.7447q-2.2441 0.8508-1.3933 3.0949z" clip-path="url(#a)" fill="#fff" stroke="#fff"/>
<g clip-path="url(#a)">
<g transform="translate(1204.5 589.38) rotate(69.237) scale(.08 -.08)">
<use xlink:href="#w"/>
</g>
</g>
<path d="m1093.6 633.59 2.512-4.3867q1.1926-2.0827-0.89006-3.2753l-6.7189-3.8475q-2.0827-1.1926-3.2753 0.89006l-2.512 4.3867q-1.1926 2.0827 0.89006 3.2753l6.7189 3.8475q2.0827 1.1926 3.2753-0.89006z" clip-path="url(#a)" fill="#fff" stroke="#fff"/>
<g clip-path="url(#a)">
<g transform="translate(1090 631.57) rotate(-60.203) scale(.08 -.08)">
<use xlink:href="#o"/>
</g>
</g>
<path d="m1104 625.75v5.055q0 2.4 2.4 2.4h7.7425q2.4 0 2.4-2.4v-5.055q0-2.4-2.4-2.4h-7.7425q-2.4 0-2.4 2.4z" clip-path="url(#a)" fill="#fff" stroke="#fff"/>
<g clip-path="url(#a)">
<g transform="translate(1108 625.75) rotate(90) scale(.08 -.08)">
<use xlink:href="#o"/>
</g>
</g>
<path d="m1124.3 628.97 2.776 4.8477q1.1926 2.0827 3.2753 0.89006l6.7189-3.8475q2.0827-1.1926 0.89006-3.2753l-2.776-4.8477q-1.1926-2.0827-3.2753-0.89006l-6.7189 3.8475q-2.0827 1.1926-0.89006 3.2753z" clip-path="url(#a)" fill="#fff" stroke="#fff"/>
<g clip-path="url(#a)">
<g transform="translate(1127.8 626.95) rotate(60.203) scale(.08 -.08)">
<use xlink:href="#m"/>
</g>
</g>
<path d="m1187.4 683.51v35.285q0 2.4 2.4 2.4h7.7425q2.4 0 2.4-2.4v-35.285q0-2.4-2.4-2.4h-7.7425q-2.4 0-2.4 2.4z" clip-path="url(#a)" fill="#fff" stroke="#fff"/>
<g clip-path="url(#a)">
<g transform="translate(1191.5 683.51) rotate(90) scale(.08 -.08)">
<use xlink:href="#k"/>
<use x="60.818359" xlink:href="#d"/>
<use x="122.341797" xlink:href="#e"/>
<use x="163.439453" xlink:href="#l"/>
<use x="260.851562" xlink:href="#i"/>
<use x="288.634766" xlink:href="#h"/>
<use x="352.013672" xlink:href="#f"/>
<use x="413.292969" xlink:href="#j"/>
</g>
</g>
<path d="m1062.2 683.51v35.285q0 2.4 2.4 2.4h7.7425q2.4 0 2.4-2.4v-35.285q0-2.4-2.4-2.4h-7.7425q-2.4 0-2.4 2.4z" clip-path="url(#a)" fill="#fff" stroke="#fff"/>
<g clip-path="url(#a)">
<g transform="translate(1066.3 683.51) rotate(90) scale(.08 -.08)">
<use xlink:href="#k"/>
<use x="60.818359" xlink:href="#d"/>
<use x="122.341797" xlink:href="#e"/>
<use x="163.439453" xlink:href="#l"/>
<use x="260.851562" xlink:href="#i"/>
<use x="288.634766" xlink:href="#h"/>
<use x="352.013672" xlink:href="#f"/>
<use x="413.292969" xlink:href="#j"/>
</g>
</g>
<path d="m1104 683.51v35.285q0 2.4 2.4 2.4h7.7425q2.4 0 2.4-2.4v-35.285q0-2.4-2.4-2.4h-7.7425q-2.4 0-2.4 2.4z" clip-path="url(#a)" fill="#fff" stroke="#fff"/>
<g clip-path="url(#a)">
<g transform="translate(1108 683.51) rotate(90) scale(.08 -.08)">
<use xlink:href="#k"/>
<use x="60.818359" xlink:href="#d"/>
<use x="122.341797" xlink:href="#e"/>
<use x="163.439453" xlink:href="#l"/>
<use x="260.851562" xlink:href="#i"/>
<use x="288.634766" xlink:href="#h"/>
<use x="352.013672" xlink:href="#f"/>
<use x="413.292969" xlink:href="#j"/>
</g>
</g>
<path d="m1145.7 683.51v35.285q0 2.4 2.4 2.4h7.7425q2.4 0 2.4-2.4v-35.285q0-2.4-2.4-2.4h-7.7425q-2.4 0-2.4 2.4z" clip-path="url(#a)" fill="#fff" stroke="#fff"/>
<g clip-path="url(#a)">
<g transform="translate(1149.8 683.51) rotate(90) scale(.08 -.08)">
<use xlink:href="#k"/>
<use x="60.818359" xlink:href="#d"/>
<use x="122.341797" xlink:href="#e"/>
<use x="163.439453" xlink:href="#l"/>
<use x="260.851562" xlink:href="#i"/>
<use x="288.634766" xlink:href="#h"/>
<use x="352.013672" xlink:href="#f"/>
<use x="413.292969" xlink:href="#j"/>
</g>
</g>
<path d="m811.86 683.51v35.285q0 2.4 2.4 2.4h7.7425q2.4 0 2.4-2.4v-35.285q0-2.4-2.4-2.4h-7.7425q-2.4 0-2.4 2.4z" clip-path="url(#a)" fill="#fff" stroke="#fff"/>
<g clip-path="url(#a)">
<g transform="translate(815.92 683.51) rotate(90) scale(.08 -.08)">
<use xlink:href="#k"/>
<use x="60.818359" xlink:href="#d"/>
<use x="122.341797" xlink:href="#e"/>
<use x="163.439453" xlink:href="#l"/>
<use x="260.851562" xlink:href="#i"/>
<use x="288.634766" xlink:href="#h"/>
<use x="352.013672" xlink:href="#f"/>
<use x="413.292969" xlink:href="#j"/>
</g>
</g>
<path d="m884.38 627.38 1.5064 5.2611q0.66062 2.3073 2.9679 1.6467l7.4434-2.1312q2.3073-0.66062 1.6467-2.9679l-1.5064-5.2611q-0.66062-2.3073-2.9679-1.6467l-7.4434 2.1312q-2.3073 0.66062-1.6467 2.9679z" clip-path="url(#a)" fill="#fff" stroke="#fff"/>
<g clip-path="url(#a)">
<g transform="translate(888.28 626.26) rotate(74.023) scale(.08 -.08)">
<use xlink:href="#y"/>
</g>
</g>
<path d="m875.66 632.33 1.3278-4.6374q0.66062-2.3073-1.6467-2.9679l-7.4434-2.1312q-2.3073-0.66062-2.9679 1.6467l-1.3278 4.6374q-0.66062 2.3073 1.6467 2.9679l7.4434 2.1312q2.3073 0.66062 2.9679-1.6467z" clip-path="url(#a)" fill="#fff" stroke="#fff"/>
<g clip-path="url(#a)">
<g transform="translate(871.75 631.21) rotate(-74.023) scale(.08 -.08)">
<use xlink:href="#t"/>
</g>
</g>
<path d="m895.32 683.51v35.285q0 2.4 2.4 2.4h7.7425q2.4 0 2.4-2.4v-35.285q0-2.4-2.4-2.4h-7.7425q-2.4 0-2.4 2.4z" clip-path="url(#a)" fill="#fff" stroke="#fff"/>
<g clip-path="url(#a)">
<g transform="translate(899.38 683.51) rotate(90) scale(.08 -.08)">
<use xlink:href="#k"/>
<use x="60.818359" xlink:href="#d"/>
<use x="122.341797" xlink:href="#e"/>
<use x="163.439453" xlink:href="#l"/>
<use x="260.851562" xlink:href="#i"/>
<use x="288.634766" xlink:href="#h"/>
<use x="352.013672" xlink:href="#f"/>
<use x="413.292969" xlink:href="#j"/>
</g>
</g>
<path d="m853.59 683.51v35.285q0 2.4 2.4 2.4h7.7425q2.4 0 2.4-2.4v-35.285q0-2.4-2.4-2.4h-7.7425q-2.4 0-2.4 2.4z" clip-path="url(#a)" fill="#fff" stroke="#fff"/>
<g clip-path="url(#a)">
<g transform="translate(857.65 683.51) rotate(90) scale(.08 -.08)">
<use xlink:href="#k"/>
<use x="60.818359" xlink:href="#d"/>
<use x="122.341797" xlink:href="#e"/>
<use x="163.439453" xlink:href="#l"/>
<use x="260.851562" xlink:href="#i"/>
<use x="288.634766" xlink:href="#h"/>
<use x="352.013672" xlink:href="#f"/>
<use x="413.292969" xlink:href="#j"/>
</g>
</g>
<path d="m603.2 683.51v35.285q0 2.4 2.4 2.4h7.7425q2.4 0 2.4-2.4v-35.285q0-2.4-2.4-2.4h-7.7425q-2.4 0-2.4 2.4z" clip-path="url(#a)" fill="#fff" stroke="#fff"/>
<g clip-path="url(#a)">
<g transform="translate(607.27 683.51) rotate(90) scale(.08 -.08)">
<use xlink:href="#k"/>
<use x="60.818359" xlink:href="#d"/>
<use x="122.341797" xlink:href="#e"/>
<use x="163.439453" xlink:href="#l"/>
<use x="260.851562" xlink:href="#i"/>
<use x="288.634766" xlink:href="#h"/>
<use x="352.013672" xlink:href="#f"/>
<use x="413.292969" xlink:href="#j"/>
</g>
</g>
<path d="m644.93 683.51v35.285q0 2.4 2.4 2.4h7.7425q2.4 0 2.4-2.4v-35.285q0-2.4-2.4-2.4h-7.7425q-2.4 0-2.4 2.4z" clip-path="url(#a)" fill="#fff" stroke="#fff"/>
<g clip-path="url(#a)">
<g transform="translate(649 683.51) rotate(90) scale(.08 -.08)">
<use xlink:href="#k"/>
<use x="60.818359" xlink:href="#d"/>
<use x="122.341797" xlink:href="#e"/>
<use x="163.439453" xlink:href="#l"/>
<use x="260.851562" xlink:href="#i"/>
<use x="288.634766" xlink:href="#h"/>
<use x="352.013672" xlink:href="#f"/>
<use x="413.292969" xlink:href="#j"/>
</g>
</g>
<path d="m686.66 683.51v35.285q0 2.4 2.4 2.4h7.7425q2.4 0 2.4-2.4v-35.285q0-2.4-2.4-2.4h-7.7425q-2.4 0-2.4 2.4z" clip-path="url(#a)" fill="#fff" stroke="#fff"/>
<g clip-path="url(#a)">
<g transform="translate(690.73 683.51) rotate(90) scale(.08 -.08)">
<use xlink:href="#k"/>
<use x="60.818359" xlink:href="#d"/>
<use x="122.341797" xlink:href="#e"/>
<use x="163.439453" xlink:href="#l"/>
<use x="260.851562" xlink:href="#i"/>
<use x="288.634766" xlink:href="#h"/>
<use x="352.013672" xlink:href="#f"/>
<use x="413.292969" xlink:href="#j"/>
</g>
</g>
<path d="m394.54 683.51v35.285q0 2.4 2.4 2.4h7.7425q2.4 0 2.4-2.4v-35.285q0-2.4-2.4-2.4h-7.7425q-2.4 0-2.4 2.4z" clip-path="url(#a)" fill="#fff" stroke="#fff"/>
<g clip-path="url(#a)">
<g transform="translate(398.61 683.51) rotate(90) scale(.08 -.08)">
<use xlink:href="#k"/>
<use x="60.818359" xlink:href="#d"/>
<use x="122.341797" xlink:href="#e"/>
<use x="163.439453" xlink:href="#l"/>
<use x="260.851562" xlink:href="#i"/>
<use x="288.634766" xlink:href="#h"/>
<use x="352.013672" xlink:href="#f"/>
<use x="413.292969" xlink:href="#j"/>
</g>
</g>
<path d="m436.28 683.51v35.285q0 2.4 2.4 2.4h7.7425q2.4 0 2.4-2.4v-35.285q0-2.4-2.4-2.4h-7.7425q-2.4 0-2.4 2.4z" clip-path="url(#a)" fill="#fff" stroke="#fff"/>
<g clip-path="url(#a)">
<g transform="translate(440.34 683.51) rotate(90) scale(.08 -.08)">
<use xlink:href="#k"/>
<use x="60.818359" xlink:href="#d"/>
<use x="122.341797" xlink:href="#e"/>
<use x="163.439453" xlink:href="#l"/>
<use x="260.851562" xlink:href="#i"/>
<use x="288.634766" xlink:href="#h"/>
<use x="352.013672" xlink:href="#f"/>
<use x="413.292969" xlink:href="#j"/>
</g>
</g>
<path d="m478.01 683.51v35.285q0 2.4 2.4 2.4h7.7425q2.4 0 2.4-2.4v-35.285q0-2.4-2.4-2.4h-7.7425q-2.4 0-2.4 2.4z" clip-path="url(#a)" fill="#fff" stroke="#fff"/>
<g clip-path="url(#a)">
<g transform="translate(482.07 683.51) rotate(90) scale(.08 -.08)">
<use xlink:href="#k"/>
<use x="60.818359" xlink:href="#d"/>
<use x="122.341797" xlink:href="#e"/>
<use x="163.439453" xlink:href="#l"/>
<use x="260.851562" xlink:href="#i"/>
<use x="288.634766" xlink:href="#h"/>
<use x="352.013672" xlink:href="#f"/>
<use x="413.292969" xlink:href="#j"/>
</g>
</g>
<path d="m185.89 683.51v35.285q0 2.4 2.4 2.4h7.7425q2.4 0 2.4-2.4v-35.285q0-2.4-2.4-2.4h-7.7425q-2.4 0-2.4 2.4z" clip-path="url(#a)" fill="#fff" stroke="#fff"/>
<g clip-path="url(#a)">
<g transform="translate(189.95 683.51) rotate(90) scale(.08 -.08)">
<use xlink:href="#k"/>
<use x="60.818359" xlink:href="#d"/>
<use x="122.341797" xlink:href="#e"/>
<use x="163.439453" xlink:href="#l"/>
<use x="260.851562" xlink:href="#i"/>
<use x="288.634766" xlink:href="#h"/>
<use x="352.013672" xlink:href="#f"/>
<use x="413.292969" xlink:href="#j"/>
</g>
</g>
<path d="m227.62 683.51v35.285q0 2.4 2.4 2.4h7.7425q2.4 0 2.4-2.4v-35.285q0-2.4-2.4-2.4h-7.7425q-2.4 0-2.4 2.4z" clip-path="url(#a)" fill="#fff" stroke="#fff"/>
<g clip-path="url(#a)">
<g transform="translate(231.68 683.51) rotate(90) scale(.08 -.08)">
<use xlink:href="#k"/>
<use x="60.818359" xlink:href="#d"/>
<use x="122.341797" xlink:href="#e"/>
<use x="163.439453" xlink:href="#l"/>
<use x="260.851562" xlink:href="#i"/>
<use x="288.634766" xlink:href="#h"/>
<use x="352.013672" xlink:href="#f"/>
<use x="413.292969" xlink:href="#j"/>
</g>
</g>
<path d="m269.35 683.51v35.285q0 2.4 2.4 2.4h7.7425q2.4 0 2.4-2.4v-35.285q0-2.4-2.4-2.4h-7.7425q-2.4 0-2.4 2.4z" clip-path="url(#a)" fill="#fff" stroke="#fff"/>
<g clip-path="url(#a)">
<g transform="translate(273.41 683.51) rotate(90) scale(.08 -.08)">
<use xlink:href="#k"/>
<use x="60.818359" xlink:href="#d"/>
<use x="122.341797" xlink:href="#e"/>
<use x="163.439453" xlink:href="#l"/>
<use x="260.851562" xlink:href="#i"/>
<use x="288.634766" xlink:href="#h"/>
<use x="352.013672" xlink:href="#f"/>
<use x="413.292969" xlink:href="#j"/>
</g>
</g>
<path d="m311.08 683.51v35.285q0 2.4 2.4 2.4h7.7425q2.4 0 2.4-2.4v-35.285q0-2.4-2.4-2.4h-7.7425q-2.4 0-2.4 2.4z" clip-path="url(#a)" fill="#fff" stroke="#fff"/>
<g clip-path="url(#a)">
<g transform="translate(315.15 683.51) rotate(90) scale(.08 -.08)">
<use xlink:href="#k"/>
<use x="60.818359" xlink:href="#d"/>
<use x="122.341797" xlink:href="#e"/>
<use x="163.439453" xlink:href="#l"/>
<use x="260.851562" xlink:href="#i"/>
<use x="288.634766" xlink:href="#h"/>
<use x="352.013672" xlink:href="#f"/>
<use x="413.292969" xlink:href="#j"/>
</g>
</g>
<path d="m519.74 683.51v35.285q0 2.4 2.4 2.4h7.7425q2.4 0 2.4-2.4v-35.285q0-2.4-2.4-2.4h-7.7425q-2.4 0-2.4 2.4z" clip-path="url(#a)" fill="#fff" stroke="#fff"/>
<g clip-path="url(#a)">
<g transform="translate(523.8 683.51) rotate(90) scale(.08 -.08)">
<use xlink:href="#k"/>
<use x="60.818359" xlink:href="#d"/>
<use x="122.341797" xlink:href="#e"/>
<use x="163.439453" xlink:href="#l"/>
<use x="260.851562" xlink:href="#i"/>
<use x="288.634766" xlink:href="#h"/>
<use x="352.013672" xlink:href="#f"/>
<use x="413.292969" xlink:href="#j"/>
</g>
</g>
<path d="m728.4 683.51v35.285q0 2.4 2.4 2.4h7.7425q2.4 0 2.4-2.4v-35.285q0-2.4-2.4-2.4h-7.7425q-2.4 0-2.4 2.4z" clip-path="url(#a)" fill="#fff" stroke="#fff"/>
<g clip-path="url(#a)">
<g transform="translate(732.46 683.51) rotate(90) scale(.08 -.08)">
<use xlink:href="#k"/>
<use x="60.818359" xlink:href="#d"/>
<use x="122.341797" xlink:href="#e"/>
<use x="163.439453" xlink:href="#l"/>
<use x="260.851562" xlink:href="#i"/>
<use x="288.634766" xlink:href="#h"/>
<use x="352.013672" xlink:href="#f"/>
<use x="413.292969" xlink:href="#j"/>
</g>
</g>
<path d="m937.05 683.51v35.285q0 2.4 2.4 2.4h7.7425q2.4 0 2.4-2.4v-35.285q0-2.4-2.4-2.4h-7.7425q-2.4 0-2.4 2.4z" clip-path="url(#a)" fill="#fff" stroke="#fff"/>
<g clip-path="url(#a)">
<g transform="translate(941.12 683.51) rotate(90) scale(.08 -.08)">
<use xlink:href="#k"/>
<use x="60.818359" xlink:href="#d"/>
<use x="122.341797" xlink:href="#e"/>
<use x="163.439453" xlink:href="#l"/>
<use x="260.851562" xlink:href="#i"/>
<use x="288.634766" xlink:href="#h"/>
<use x="352.013672" xlink:href="#f"/>
<use x="413.292969" xlink:href="#j"/>
</g>
</g>
<path d="m1229.2 683.51v35.285q0 2.4 2.4 2.4h7.7425q2.4 0 2.4-2.4v-35.285q0-2.4-2.4-2.4h-7.7425q-2.4 0-2.4 2.4z" clip-path="url(#a)" fill="#fff" stroke="#fff"/>
<g clip-path="url(#a)">
<g transform="translate(1233.2 683.51) rotate(90) scale(.08 -.08)">
<use xlink:href="#k"/>
<use x="60.818359" xlink:href="#d"/>
<use x="122.341797" xlink:href="#e"/>
<use x="163.439453" xlink:href="#l"/>
<use x="260.851562" xlink:href="#i"/>
<use x="288.634766" xlink:href="#h"/>
<use x="352.013672" xlink:href="#f"/>
<use x="413.292969" xlink:href="#j"/>
</g>
</g>
<defs>
<path id="b" d="m0 8.6603c2.2967 0 4.4997-0.9125 6.1237-2.5365 1.624-1.624 2.5365-3.827 2.5365-6.1237s-0.9125-4.4997-2.5365-6.1237c-1.624-1.624-3.827-2.5365-6.1237-2.5365s-4.4997 0.9125-6.1237 2.5365c-1.624 1.624-2.5365 3.827-2.5365 6.1237s0.9125 4.4997 2.5365 6.1237c1.624 1.624 3.827 2.5365 6.1237 2.5365z"/>
</defs>
<g clip-path="url(#a)">
<use x="66.964973" y="737.594225" fill="#ffffff" stroke="#ffffff" xlink:href="#b"/>
</g>
<g clip-path="url(#a)">
<use x="108.696329" y="737.594225" fill="#ffffff" stroke="#ffffff" xlink:href="#b"/>
</g>
<g clip-path="url(#a)">
<use x="150.427685" y="737.594225" fill="#ffffff" stroke="#ffffff" xlink:href="#b"/>
</g>
<g clip-path="url(#a)">
<use x="192.159041" y="737.594225" fill="#ffffff" stroke="#ffffff" xlink:href="#b"/>
</g>
<g clip-path="url(#a)">
<use x="233.890397" y="737.594225" fill="#ffffff" stroke="#ffffff" xlink:href="#b"/>
</g>
<g clip-path="url(#a)">
<use x="275.621753" y="737.594225" fill="#ffffff" stroke="#ffffff" xlink:href="#b"/>
</g>
<g clip-path="url(#a)">
<use x="317.353108" y="737.594225" fill="#ffffff" stroke="#ffffff" xlink:href="#b"/>
</g>
<g clip-path="url(#a)">
<use x="359.084464" y="737.594225" fill="#ffffff" stroke="#ffffff" xlink:href="#b"/>
</g>
<g clip-path="url(#a)">
<use x="400.81582" y="737.594225" fill="#ffffff" stroke="#ffffff" xlink:href="#b"/>
</g>
<g clip-path="url(#a)">
<use x="442.547176" y="737.594225" fill="#ffffff" stroke="#ffffff" xlink:href="#b"/>
</g>
<g clip-path="url(#a)">
<use x="484.278532" y="737.594225" fill="#ffffff" stroke="#ffffff" xlink:href="#b"/>
</g>
<g clip-path="url(#a)">
<use x="526.009888" y="737.594225" fill="#ffffff" stroke="#ffffff" xlink:href="#b"/>
</g>
<g clip-path="url(#a)">
<use x="567.741243" y="737.594225" fill="#ffffff" stroke="#ffffff" xlink:href="#b"/>
</g>
<g clip-path="url(#a)">
<use x="609.472599" y="737.594225" fill="#ffffff" stroke="#ffffff" xlink:href="#b"/>
</g>
<g clip-path="url(#a)">
<use x="651.203955" y="737.594225" fill="#ffffff" stroke="#ffffff" xlink:href="#b"/>
</g>
<g clip-path="url(#a)">
<use x="692.935311" y="737.594225" fill="#ffffff" stroke="#ffffff" xlink:href="#b"/>
</g>
<g clip-path="url(#a)">
<use x="734.666667" y="737.594225" fill="#ffffff" stroke="#ffffff" xlink:href="#b"/>
</g>
<g clip-path="url(#a)">
<use x="776.398022" y="737.594225" fill="#ffffff" stroke="#ffffff" xlink:href="#b"/>
</g>
<g clip-path="url(#a)">
<use x="818.129378" y="737.594225" fill="#ffffff" stroke="#ffffff" xlink:href="#b"/>
</g>
<g clip-path="url(#a)">
<use x="859.860734" y="737.594225" fill="#ffffff" stroke="#ffffff" xlink:href="#b"/>
</g>
<g clip-path="url(#a)">
<use x="901.59209" y="737.594225" fill="#ffffff" stroke="#ffffff" xlink:href="#b"/>
</g>
<g clip-path="url(#a)">
<use x="943.323446" y="737.594225" fill="#ffffff" stroke="#ffffff" xlink:href="#b"/>
</g>
<g clip-path="url(#a)">
<use x="985.054802" y="737.594225" fill="#ffffff" stroke="#ffffff" xlink:href="#b"/>
</g>
<g clip-path="url(#a)">
<use x="1026.786157" y="737.594225" fill="#ffffff" stroke="#ffffff" xlink:href="#b"/>
</g>
<g clip-path="url(#a)">
<use x="1068.517513" y="737.594225" fill="#ffffff" stroke="#ffffff" xlink:href="#b"/>
</g>
<g clip-path="url(#a)">
<use x="1110.248869" y="737.594225" fill="#ffffff" stroke="#ffffff" xlink:href="#b"/>
</g>
<g clip-path="url(#a)">
<use x="1151.980225" y="737.594225" fill="#ffffff" stroke="#ffffff" xlink:href="#b"/>
</g>
<g clip-path="url(#a)">
<use x="1193.711581" y="737.594225" fill="#ffffff" stroke="#ffffff" xlink:href="#b"/>
</g>
<g clip-path="url(#a)">
<use x="1235.442937" y="737.594225" fill="#ffffff" stroke="#ffffff" xlink:href="#b"/>
</g>
<g clip-path="url(#a)">
<use x="940.815552" y="35.739109" fill="#ffffff" stroke="#ffffff" xlink:href="#b"/>
</g>
<g clip-path="url(#a)">
<use x="940.815552" y="121.894732" fill="#ffffff" stroke="#ffffff" xlink:href="#b"/>
</g>
<g clip-path="url(#a)">
<use x="1402.36836" y="737.594225" fill="#ffffff" stroke="#ffffff" xlink:href="#b"/>
</g>
<g clip-path="url(#a)">
<use x="1360.637004" y="737.594225" fill="#ffffff" stroke="#ffffff" xlink:href="#b"/>
</g>
<g clip-path="url(#a)">
<use x="66.964973" y="664.718878" fill="#ffffff" stroke="#ffffff" xlink:href="#b"/>
</g>
<g clip-path="url(#a)">
<use x="933.29187" y="205.455681" fill="#ffffff" stroke="#ffffff" xlink:href="#b"/>
</g>
<g clip-path="url(#a)">
<use x="1318.905648" y="737.594225" fill="#ffffff" stroke="#ffffff" xlink:href="#b"/>
</g>
<g clip-path="url(#a)">
<use x="547.678092" y="286.625949" fill="#ffffff" stroke="#ffffff" xlink:href="#b"/>
</g>
<g clip-path="url(#a)">
<use x="1277.174292" y="737.594225" fill="#ffffff" stroke="#ffffff" xlink:href="#b"/>
</g>
<g clip-path="url(#a)">
<use x="108.696329" y="664.718878" fill="#ffffff" stroke="#ffffff" xlink:href="#b"/>
</g>
<g clip-path="url(#a)">
<use x="150.427685" y="664.718878" fill="#ffffff" stroke="#ffffff" xlink:href="#b"/>
</g>
<g clip-path="url(#a)">
<use x="654.414059" y="365.614584" fill="#ffffff" stroke="#ffffff" xlink:href="#b"/>
</g>
<g clip-path="url(#a)">
<use x="233.890397" y="591.843532" fill="#ffffff" stroke="#ffffff" xlink:href="#b"/>
</g>
<g clip-path="url(#a)">
<use x="359.084464" y="664.718878" fill="#ffffff" stroke="#ffffff" xlink:href="#b"/>
</g>
<g clip-path="url(#a)">
<use x="442.547176" y="591.843532" fill="#ffffff" stroke="#ffffff" xlink:href="#b"/>
</g>
<g clip-path="url(#a)">
<use x="567.741243" y="664.718878" fill="#ffffff" stroke="#ffffff" xlink:href="#b"/>
</g>
<g clip-path="url(#a)">
<use x="651.203955" y="591.843532" fill="#ffffff" stroke="#ffffff" xlink:href="#b"/>
</g>
<g clip-path="url(#a)">
<use x="776.398022" y="664.718878" fill="#ffffff" stroke="#ffffff" xlink:href="#b"/>
</g>
<g clip-path="url(#a)">
<use x="866.81596" y="517.95441" fill="#ffffff" stroke="#ffffff" xlink:href="#b"/>
</g>
<g clip-path="url(#a)">
<use x="985.054802" y="664.718878" fill="#ffffff" stroke="#ffffff" xlink:href="#b"/>
</g>
<g clip-path="url(#a)">
<use x="1103.293643" y="442.642496" fill="#ffffff" stroke="#ffffff" xlink:href="#b"/>
</g>
<g clip-path="url(#a)">
<use x="1026.786157" y="664.718878" fill="#ffffff" stroke="#ffffff" xlink:href="#b"/>
</g>
<g clip-path="url(#a)">
<use x="1179.801129" y="517.95441" fill="#ffffff" stroke="#ffffff" xlink:href="#b"/>
</g>
<g clip-path="url(#a)">
<use x="1110.248869" y="591.843532" fill="#ffffff" stroke="#ffffff" xlink:href="#b"/>
</g>
<g clip-path="url(#a)">
<use x="1193.711581" y="664.718878" fill="#ffffff" stroke="#ffffff" xlink:href="#b"/>
</g>
<g clip-path="url(#a)">
<use x="1068.517513" y="664.718878" fill="#ffffff" stroke="#ffffff" xlink:href="#b"/>
</g>
<g clip-path="url(#a)">
<use x="1110.248869" y="664.718878" fill="#ffffff" stroke="#ffffff" xlink:href="#b"/>
</g>
<g clip-path="url(#a)">
<use x="1151.980225" y="664.718878" fill="#ffffff" stroke="#ffffff" xlink:href="#b"/>
</g>
<g clip-path="url(#a)">
<use x="818.129378" y="664.718878" fill="#ffffff" stroke="#ffffff" xlink:href="#b"/>
</g>
<g clip-path="url(#a)">
<use x="880.726412" y="591.843532" fill="#ffffff" stroke="#ffffff" xlink:href="#b"/>
</g>
<g clip-path="url(#a)">
<use x="901.59209" y="664.718878" fill="#ffffff" stroke="#ffffff" xlink:href="#b"/>
</g>
<g clip-path="url(#a)">
<use x="859.860734" y="664.718878" fill="#ffffff" stroke="#ffffff" xlink:href="#b"/>
</g>
<g clip-path="url(#a)">
<use x="609.472599" y="664.718878" fill="#ffffff" stroke="#ffffff" xlink:href="#b"/>
</g>
<g clip-path="url(#a)">
<use x="651.203955" y="664.718878" fill="#ffffff" stroke="#ffffff" xlink:href="#b"/>
</g>
<g clip-path="url(#a)">
<use x="692.935311" y="664.718878" fill="#ffffff" stroke="#ffffff" xlink:href="#b"/>
</g>
<g clip-path="url(#a)">
<use x="400.81582" y="664.718878" fill="#ffffff" stroke="#ffffff" xlink:href="#b"/>
</g>
<g clip-path="url(#a)">
<use x="442.547176" y="664.718878" fill="#ffffff" stroke="#ffffff" xlink:href="#b"/>
</g>
<g clip-path="url(#a)">
<use x="484.278532" y="664.718878" fill="#ffffff" stroke="#ffffff" xlink:href="#b"/>
</g>
<g clip-path="url(#a)">
<use x="192.159041" y="664.718878" fill="#ffffff" stroke="#ffffff" xlink:href="#b"/>
</g>
<g clip-path="url(#a)">
<use x="233.890397" y="664.718878" fill="#ffffff" stroke="#ffffff" xlink:href="#b"/>
</g>
<g clip-path="url(#a)">
<use x="275.621753" y="664.718878" fill="#ffffff" stroke="#ffffff" xlink:href="#b"/>
</g>
<g clip-path="url(#a)">
<use x="317.353108" y="664.718878" fill="#ffffff" stroke="#ffffff" xlink:href="#b"/>
</g>
<g clip-path="url(#a)">
<use x="526.009888" y="664.718878" fill="#ffffff" stroke="#ffffff" xlink:href="#b"/>
</g>
<g clip-path="url(#a)">
<use x="734.666667" y="664.718878" fill="#ffffff" stroke="#ffffff" xlink:href="#b"/>
</g>
<g clip-path="url(#a)">
<use x="943.323446" y="664.718878" fill="#ffffff" stroke="#ffffff" xlink:href="#b"/>
</g>
<g clip-path="url(#a)">
<use x="1235.442937" y="664.718878" fill="#ffffff" stroke="#ffffff" xlink:href="#b"/>
</g>
<g clip-path="url(#a)">
<defs>
<path id="u" d="m30.609 48.391q-7.2188 0-11.422-5.6406t-4.2031-15.453 4.1719-15.453q4.1875-5.6406 11.453-5.6406 7.1875 0 11.375 5.6562 4.2031 5.6719 4.2031 15.438 0 9.7188-4.2031 15.406-4.1875 5.6875-11.375 5.6875zm0 7.6094q11.719 0 18.406-7.625 6.7031-7.6094 6.7031-21.078 0-13.422-6.7031-21.078-6.6875-7.6406-18.406-7.6406-11.766 0-18.438 7.6406-6.6562 7.6562-6.6562 21.078 0 13.469 6.6562 21.078 6.6719 7.625 18.438 7.625z"/>
<path id="s" d="m18.312 70.219v-15.531h18.5v-6.9844h-18.5v-29.688q0-6.6875 1.8281-8.5938t7.4531-1.9062h9.2188v-7.5156h-9.2188q-10.406 0-14.359 3.875-3.9531 3.8906-3.9531 14.141v29.688h-6.5938v6.9844h6.5938v15.531z"/>
<path id="v" d="m54.891 33.016v-33.016h-8.9844v32.719q0 7.7656-3.0312 11.609-3.0312 3.8594-9.0781 3.8594-7.2812 0-11.484-4.6406-4.2031-4.625-4.2031-12.641v-30.906h-9.0312v75.984h9.0312v-29.797q3.2344 4.9375 7.5938 7.375 4.375 2.4375 10.094 2.4375 9.4219 0 14.25-5.8281 4.8438-5.8281 4.8438-17.156z"/>
<path id="ad" d="m45.406 27.984q0 9.7656-4.0312 15.125-4.0156 5.375-11.297 5.375-7.2188 0-11.25-5.375-4.0312-5.3594-4.0312-15.125 0-9.7188 4.0312-15.094t11.25-5.375q7.2812 0 11.297 5.375 4.0312 5.375 4.0312 15.094zm8.9844-21.203q0-13.953-6.2031-20.766-6.1875-6.8125-18.984-6.8125-4.7344 0-8.9375 0.70312t-8.1562 2.1719v8.7344q3.9531-2.1406 7.8125-3.1562 3.8594-1.0312 7.8594-1.0312 8.8438 0 13.234 4.6094t4.3906 13.938v4.4531q-2.7812-4.8438-7.125-7.2344t-10.406-2.3906q-10.047 0-16.203 7.6562-6.1562 7.6719-6.1562 20.328 0 12.688 6.1562 20.344 6.1562 7.6719 16.203 7.6719 6.0625 0 10.406-2.3906t7.125-7.2188v8.2969h8.9844z"/>
</defs>
<g transform="translate(47.304 740.35) scale(.1 -.1)">
<use xlink:href="#x"/>
<use x="74.804688" xlink:href="#u"/>
<use x="135.986328" xlink:href="#s"/>
<use x="175.195312" xlink:href="#v"/>
<use x="238.574219" xlink:href="#i"/>
<use x="266.357422" xlink:href="#h"/>
<use x="329.736328" xlink:href="#ad"/>
</g>
</g>
<g clip-path="url(#a)">
<defs>
<path id="ai" d="m32.172-5.0781q-3.7969-9.7656-7.4219-12.734-3.6094-2.9844-9.6562-2.9844h-7.1875v7.5156h5.2812q3.7031 0 5.75 1.7656 2.0625 1.75 4.5469 8.2969l1.6094 4.0938-22.109 53.812h9.5156l17.094-42.766 17.094 42.766h9.5156z"/>
</defs>
<g transform="translate(86.251 740.35) scale(.1 -.1)">
<use xlink:href="#e"/>
<use x="41.082031" xlink:href="#d"/>
<use x="102.605469" xlink:href="#l"/>
<use x="200.017578" xlink:href="#u"/>
<use x="261.199219" xlink:href="#s"/>
<use x="300.408203" xlink:href="#d"/>
<use x="361.931641" xlink:href="#j"/>
<use x="389.714844" xlink:href="#ai"/>
</g>
</g>
<g clip-path="url(#a)">
<defs>
<path id="ak" d="m44.281 53.078v-8.5q-3.7969 1.9531-7.9062 2.9219-4.0938 0.98438-8.5 0.98438-6.6875 0-10.031-2.0469t-3.3438-6.1562q0-3.125 2.3906-4.9062t9.625-3.3906l3.0781-0.6875q9.5625-2.0469 13.594-5.7812t4.0312-10.422q0-7.625-6.0312-12.078-6.0312-4.4375-16.578-4.4375-4.3906 0-9.1562 0.85938t-10.031 2.5625v9.2812q4.9844-2.5938 9.8125-3.8906 4.8281-1.2812 9.5781-1.2812 6.3438 0 9.75 2.1719 3.4219 2.1719 3.4219 6.125 0 3.6562-2.4688 5.6094-2.4531 1.9531-10.812 3.7656l-3.125 0.73438q-8.3438 1.75-12.062 5.3906-3.7031 3.6406-3.7031 9.9844 0 7.7188 5.4688 11.906 5.4688 4.2031 15.531 4.2031 4.9688 0 9.3594-0.73438 4.4062-0.71875 8.1094-2.1875z"/>
<path id="ao" d="m48.688 27.297q0 9.9062-4.0781 15.547t-11.203 5.6406q-7.1406 0-11.219-5.6406t-4.0781-15.547 4.0781-15.547 11.219-5.6406q7.125 0 11.203 5.6406t4.0781 15.547zm-30.578 19.094q2.8438 4.875 7.1562 7.2344 4.3281 2.375 10.328 2.375 9.9688 0 16.188-7.9062 6.2344-7.9062 6.2344-20.797t-6.2344-20.812q-6.2188-7.9062-16.188-7.9062-6 0-10.328 2.375-4.3125 2.375-7.1562 7.25v-8.2031h-9.0312v75.984h9.0312z"/>
</defs>
<g transform="translate(122.45 740.35) scale(.1 -.1)">
<use xlink:href="#e"/>
<use x="41.082031" xlink:href="#d"/>
<use x="102.605469" xlink:href="#ak"/>
<use x="154.705078" xlink:href="#d"/>
<use x="216.228516" xlink:href="#l"/>
<use x="313.640625" xlink:href="#ao"/>
<use x="377.117188" xlink:href="#j"/>
<use x="404.900391" xlink:href="#i"/>
<use x="432.683594" xlink:href="#h"/>
<use x="496.0625" xlink:href="#ad"/>
</g>
</g>
<g clip-path="url(#a)">
<g transform="translate(189.09 740.35) scale(.1 -.1)">
<use xlink:href="#f"/>
</g>
</g>
<g clip-path="url(#a)">
<defs>
<path id="al" d="m48.781 52.594v-8.4062q-3.8125 2.1094-7.6406 3.1562t-7.7344 1.0469q-8.75 0-13.594-5.5469-4.8281-5.5312-4.8281-15.547t4.8281-15.562q4.8438-5.5312 13.594-5.5312 3.9062 0 7.7344 1.0469t7.6406 3.1562v-8.3125q-3.7656-1.75-7.7969-2.625-4.0156-0.89062-8.5625-0.89062-12.359 0-19.641 7.7656-7.2656 7.7656-7.2656 20.953 0 13.375 7.3438 21.031 7.3594 7.6719 20.156 7.6719 4.1406 0 8.0938-0.85938 3.9531-0.84375 7.6719-2.5469z"/>
</defs>
<g transform="translate(213.82 740.35) scale(.1 -.1)">
<use xlink:href="#ad"/>
<use x="63.476562" xlink:href="#i"/>
<use x="91.259766" xlink:href="#ad"/>
<use x="154.736328" xlink:href="#f"/>
<use x="216.015625" xlink:href="#h"/>
<use x="279.394531" xlink:href="#s"/>
<use x="318.603516" xlink:href="#i"/>
<use x="346.386719" xlink:href="#al"/>
</g>
</g>
<g clip-path="url(#a)">
<defs>
<path id="aj" d="m4.2031 54.688h8.9844l11.234-42.672 11.172 42.672h10.594l11.234-42.672 11.188 42.672h8.9844l-14.312-54.688h-10.594l-11.766 44.828-11.812-44.828h-10.609z"/>
</defs>
<g transform="translate(252.55 740.35) scale(.1 -.1)">
<use xlink:href="#h"/>
<use x="63.378906" xlink:href="#f"/>
<use x="124.658203" xlink:href="#e"/>
<use x="165.771484" xlink:href="#aj"/>
<use x="247.558594" xlink:href="#v"/>
<use x="310.9375" xlink:href="#f"/>
<use x="372.216797" xlink:href="#j"/>
<use x="400" xlink:href="#d"/>
</g>
</g>
<g clip-path="url(#a)">
<defs>
<path id="ah" d="m11.719 12.406h10.297v-8.4062l-8-15.625h-6.2969l4 15.625z"/>
</defs>
<g transform="translate(315.76 740.35) scale(.1 -.1)">
<use xlink:href="#ah"/>
</g>
</g>
<g clip-path="url(#a)">
<g transform="translate(353.97 740.35) scale(.1 -.1)">
<use xlink:href="#u"/>
<use x="61.181641" xlink:href="#e"/>
</g>
</g>
<g clip-path="url(#a)">
<g transform="translate(394.58 740.35) scale(.1 -.1)">
<use xlink:href="#f"/>
<use x="61.279297" xlink:href="#h"/>
</g>
</g>
<g clip-path="url(#a)">
<defs>
<path id="an" d="m8.5 21.578v33.109h8.9844v-32.766q0-7.7656 3.0156-11.656 3.0312-3.875 9.0938-3.875 7.2656 0 11.484 4.6406 4.2344 4.6406 4.2344 12.656v31h8.9844v-54.688h-8.9844v8.4062q-3.2656-4.9844-7.5938-7.4062-4.3125-2.4219-10.031-2.4219-9.4219 0-14.312 5.8594-4.875 5.8594-4.875 17.141z"/>
<path id="aq" d="m45.406 46.391v29.594h8.9844v-75.984h-8.9844v8.2031q-2.8281-4.875-7.1562-7.25-4.3125-2.375-10.375-2.375-9.9062 0-16.141 7.9062-6.2188 7.9219-6.2188 20.812t6.2188 20.797q6.2344 7.9062 16.141 7.9062 6.0625 0 10.375-2.375 4.3281-2.3594 7.1562-7.2344zm-30.609-19.094q0-9.9062 4.0781-15.547t11.203-5.6406 11.219 5.6406q4.1094 5.6406 4.1094 15.547t-4.1094 15.547q-4.0938 5.6406-11.219 5.6406t-11.203-5.6406-4.0781-15.547z"/>
</defs>
<g transform="translate(413.66 740.35) scale(.1 -.1)">
<use xlink:href="#an"/>
<use x="63.378906" xlink:href="#h"/>
<use x="126.757812" xlink:href="#aq"/>
<use x="190.234375" xlink:href="#d"/>
<use x="251.757812" xlink:href="#e"/>
<use x="292.871094" xlink:href="#aj"/>
<use x="374.658203" xlink:href="#f"/>
<use x="435.9375" xlink:href="#s"/>
<use x="475.146484" xlink:href="#d"/>
<use x="536.669922" xlink:href="#e"/>
</g>
</g>
<g clip-path="url(#a)">
<g transform="translate(473.86 740.35) scale(.1 -.1)">
<use xlink:href="#i"/>
<use x="27.783203" xlink:href="#ak"/>
<use x="79.882812" xlink:href="#j"/>
<use x="107.666016" xlink:href="#d"/>
<use x="169.189453" xlink:href="#s"/>
</g>
</g>
<g clip-path="url(#a)">
<g transform="translate(524.42 740.35) scale(.1 -.1)">
<use xlink:href="#ah"/>
</g>
</g>
<g clip-path="url(#a)">
<g transform="translate(562.63 740.35) scale(.1 -.1)">
<use xlink:href="#u"/>
<use x="61.181641" xlink:href="#e"/>
</g>
</g>
<g clip-path="url(#a)">
<g transform="translate(606.41 740.35) scale(.1 -.1)">
<use xlink:href="#f"/>
</g>
</g>
<g clip-path="url(#a)">
<g transform="translate(632.34 740.35) scale(.1 -.1)">
<use xlink:href="#aq"/>
<use x="63.476562" xlink:href="#d"/>
<use x="125" xlink:href="#e"/>
<use x="166.082031" xlink:href="#d"/>
<use x="227.605469" xlink:href="#j"/>
<use x="255.388672" xlink:href="#i"/>
<use x="283.171875" xlink:href="#al"/>
<use x="338.152344" xlink:href="#s"/>
</g>
</g>
<g clip-path="url(#a)">
<defs>
<path id="au" d="m18.109 8.2031v-29h-9.0312v75.484h9.0312v-8.2969q2.8438 4.875 7.1562 7.2344 4.3281 2.375 10.328 2.375 9.9688 0 16.188-7.9062 6.2344-7.9062 6.2344-20.797t-6.2344-20.812q-6.2188-7.9062-16.188-7.9062-6 0-10.328 2.375-4.3125 2.375-7.1562 7.25zm30.578 19.094q0 9.9062-4.0781 15.547t-11.203 5.6406q-7.1406 0-11.219-5.6406t-4.0781-15.547 4.0781-15.547 11.219-5.6406q7.125 0 11.203 5.6406t4.0781 15.547z"/>
<path id="av" d="m9.0781 75.984h9.0312v-44.875l26.812 23.578h11.469l-29-25.578 30.234-29.109h-11.719l-27.797 26.703v-26.703h-9.0312z"/>
</defs>
<g transform="translate(667.73 740.35) scale(.1 -.1)">
<use xlink:href="#ak"/>
<use x="52.099609" xlink:href="#v"/>
<use x="115.478516" xlink:href="#i"/>
<use x="143.261719" xlink:href="#au"/>
<use x="206.738281" xlink:href="#aj"/>
<use x="288.525391" xlink:href="#e"/>
<use x="329.607422" xlink:href="#d"/>
<use x="391.130859" xlink:href="#al"/>
<use x="446.111328" xlink:href="#av"/>
</g>
</g>
<g clip-path="url(#a)">
<g transform="translate(733.08 740.35) scale(.1 -.1)">
<use xlink:href="#ah"/>
</g>
</g>
<g clip-path="url(#a)">
<g transform="translate(771.28 740.35) scale(.1 -.1)">
<use xlink:href="#u"/>
<use x="61.181641" xlink:href="#e"/>
</g>
</g>
<g clip-path="url(#a)">
<g transform="translate(815.07 740.35) scale(.1 -.1)">
<use xlink:href="#f"/>
</g>
</g>
<g clip-path="url(#a)">
<g transform="translate(838.29 740.35) scale(.1 -.1)">
<use xlink:href="#e"/>
<use x="41.113281" xlink:href="#an"/>
<use x="104.492188" xlink:href="#h"/>
<use x="167.871094" xlink:href="#f"/>
<use x="229.150391" xlink:href="#aj"/>
<use x="310.9375" xlink:href="#f"/>
<use x="372.216797" xlink:href="#ai"/>
</g>
</g>
<g clip-path="url(#a)">
<defs>
<path id="aw" d="m37.109 75.984v-7.4844h-8.5938q-4.8281 0-6.7188-1.9531-1.875-1.9531-1.875-7.0312v-4.8281h14.797v-6.9844h-14.797v-47.703h-9.0312v47.703h-8.5938v6.9844h8.5938v3.8125q0 9.125 4.25 13.297 4.25 4.1875 13.469 4.1875z"/>
</defs>
<g transform="translate(891.62 740.35) scale(.1 -.1)">
<use xlink:href="#e"/>
<use x="41.082031" xlink:href="#d"/>
<use x="102.605469" xlink:href="#d"/>
<use x="164.128906" xlink:href="#aw"/>
</g>
</g>
<g clip-path="url(#a)">
<g transform="translate(941.73 740.35) scale(.1 -.1)">
<use xlink:href="#ah"/>
</g>
</g>
<g clip-path="url(#a)">
<g transform="translate(979.94 740.35) scale(.1 -.1)">
<use xlink:href="#u"/>
<use x="61.181641" xlink:href="#e"/>
</g>
</g>
<g clip-path="url(#a)">
<g transform="translate(1004.7 740.35) scale(.1 -.1)">
<use xlink:href="#f"/>
<use x="61.279297" xlink:href="#h"/>
<use x="124.658203" xlink:href="#ai"/>
<use x="183.837891" xlink:href="#s"/>
<use x="223.046875" xlink:href="#v"/>
<use x="286.425781" xlink:href="#i"/>
<use x="314.208984" xlink:href="#h"/>
<use x="377.587891" xlink:href="#ad"/>
</g>
</g>
<g clip-path="url(#a)">
<g transform="translate(1060.3 740.35) scale(.1 -.1)">
<use xlink:href="#s"/>
<use x="39.208984" xlink:href="#v"/>
<use x="102.587891" xlink:href="#d"/>
</g>
</g>
<g clip-path="url(#a)">
<g transform="translate(1098.2 740.35) scale(.1 -.1)">
<use xlink:href="#j"/>
<use x="27.783203" xlink:href="#d"/>
<use x="89.306641" xlink:href="#f"/>
<use x="150.585938" xlink:href="#ak"/>
<use x="202.685547" xlink:href="#s"/>
</g>
</g>
<g clip-path="url(#a)">
<g transform="translate(1145.5 740.35) scale(.1 -.1)">
<use xlink:href="#ao"/>
<use x="63.476562" xlink:href="#i"/>
<use x="91.259766" xlink:href="#s"/>
</g>
</g>
<g clip-path="url(#a)">
<g transform="translate(1169.7 740.35) scale(.1 -.1)">
<use xlink:href="#an"/>
<use x="63.378906" xlink:href="#h"/>
<use x="126.757812" xlink:href="#d"/>
<use x="188.28125" xlink:href="#f"/>
<use x="249.560547" xlink:href="#e"/>
<use x="290.673828" xlink:href="#s"/>
<use x="329.882812" xlink:href="#v"/>
<use x="393.261719" xlink:href="#j"/>
<use x="421.044922" xlink:href="#ai"/>
</g>
</g>
<g clip-path="url(#a)">
<defs>
<path id="at" d="m15.094 12.406h9.9062v-12.406h-9.9062zm0 60.5h9.9062v-31.984l-0.96875-17.438h-7.9219l-1.0156 17.438z"/>
</defs>
<g transform="translate(1233.4 740.35) scale(.1 -.1)">
<use xlink:href="#at"/>
</g>
</g>
<g clip-path="url(#a)">
<defs>
<path id="c" d="m12.406 8.2969h16.109v55.625l-17.531-3.5156v8.9844l17.438 3.5156h9.8594v-64.609h16.109v-8.2969h-41.984z"/>
<path id="g" d="m10.688 12.406h10.312v-12.406h-10.312z"/>
</defs>
<g transform="translate(932.86 38.498) scale(.1 -.1)">
<use xlink:href="#c"/>
<use x="63.623047" xlink:href="#g"/>
<use x="95.410156" xlink:href="#c"/>
</g>
</g>
<g clip-path="url(#a)">
<defs>
<path id="q" d="m19.188 8.2969h34.422v-8.2969h-46.281v8.2969q5.6094 5.8125 15.297 15.594 9.7031 9.7969 12.188 12.641 4.7344 5.3125 6.6094 9 1.8906 3.6875 1.8906 7.25 0 5.8125-4.0781 9.4688-4.0781 3.6719-10.625 3.6719-4.6406 0-9.7969-1.6094-5.1406-1.6094-11-4.8906v9.9688q5.9531 2.3906 11.125 3.6094 5.1875 1.2188 9.4844 1.2188 11.328 0 18.062-5.6719 6.7344-5.6562 6.7344-15.125 0-4.5-1.6875-8.5312-1.6719-4.0156-6.125-9.4844-1.2188-1.4219-7.7656-8.1875-6.5312-6.7656-18.453-18.922z"/>
</defs>
<g transform="translate(932.86 124.65) scale(.1 -.1)">
<use xlink:href="#c"/>
<use x="63.623047" xlink:href="#g"/>
<use x="95.410156" xlink:href="#q"/>
</g>
</g>
<g clip-path="url(#a)">
<defs>
<path id="r" d="m9.8125 72.906h9.8594v-72.906h-9.8594z"/>
<path id="ae" d="m9.8125 72.906h14.703l18.594-49.609 18.703 49.609h14.703v-72.906h-9.625v64.016l-18.797-50h-9.9062l-18.797 50v-64.016h-9.5781z"/>
<path id="af" d="m9.8125 72.906h9.8594v-64.609h35.5v-8.2969h-45.359z"/>
</defs>
<g transform="translate(1381.3 740.35) scale(.1 -.1)">
<use xlink:href="#r"/>
<use x="29.492188" xlink:href="#ae"/>
<use x="115.771484" xlink:href="#t"/>
<use x="176.074219" xlink:href="#af"/>
<use x="231.787109" xlink:href="#r"/>
<use x="261.279297" xlink:href="#m"/>
<use x="331.103516" xlink:href="#r"/>
<use x="360.595703" xlink:href="#k"/>
</g>
</g>
<g clip-path="url(#a)">
<g transform="translate(1339.6 740.35) scale(.1 -.1)">
<use xlink:href="#r"/>
<use x="29.492188" xlink:href="#ae"/>
<use x="115.771484" xlink:href="#t"/>
<use x="176.074219" xlink:href="#af"/>
<use x="231.787109" xlink:href="#r"/>
<use x="261.279297" xlink:href="#m"/>
<use x="331.103516" xlink:href="#r"/>
<use x="360.595703" xlink:href="#k"/>
</g>
</g>
<g clip-path="url(#a)">
<defs>
<path id="ab" d="m33.016 40.375q-6.6406 0-10.531-4.5469-3.875-4.5312-3.875-12.438 0-7.8594 3.875-12.438 3.8906-4.5625 10.531-4.5625t10.516 4.5625q3.875 4.5781 3.875 12.438 0 7.9062-3.875 12.438-3.875 4.5469-10.516 4.5469zm19.578 30.922v-8.9844q-3.7188 1.75-7.5 2.6719-3.7812 0.9375-7.5 0.9375-9.7656 0-14.922-6.5938-5.1406-6.5938-5.875-19.922 2.875 4.25 7.2188 6.5156 4.3594 2.2656 9.5781 2.2656 10.984 0 17.359-6.6719 6.375-6.6562 6.375-18.125 0-11.234-6.6406-18.031-6.6406-6.7812-17.672-6.7812-12.656 0-19.344 9.6875-6.6875 9.7031-6.6875 28.109 0 17.281 8.2031 27.562t22.016 10.281q3.7188 0 7.5-0.73438t7.8906-2.1875z"/>
</defs>
<g transform="translate(59.013 667.48) scale(.1 -.1)">
<use xlink:href="#c"/>
<use x="63.623047" xlink:href="#g"/>
<use x="95.410156" xlink:href="#ab"/>
</g>
</g>
<g clip-path="url(#a)">
<defs>
<path id="aa" d="m8.2031 72.906h46.875v-4.2031l-26.469-68.703h-10.297l24.906 64.594h-35.016z"/>
</defs>
<g transform="translate(925.34 208.22) scale(.1 -.1)">
<use xlink:href="#c"/>
<use x="63.623047" xlink:href="#g"/>
<use x="95.410156" xlink:href="#aa"/>
</g>
</g>
<g clip-path="url(#a)">
<g transform="translate(1297.8 740.35) scale(.1 -.1)">
<use xlink:href="#r"/>
<use x="29.492188" xlink:href="#ae"/>
<use x="115.771484" xlink:href="#t"/>
<use x="176.074219" xlink:href="#af"/>
<use x="231.787109" xlink:href="#r"/>
<use x="261.279297" xlink:href="#m"/>
<use x="331.103516" xlink:href="#r"/>
<use x="360.595703" xlink:href="#k"/>
</g>
</g>
<g clip-path="url(#a)">
<defs>
<path id="z" d="m10.984 1.5156v8.9844q3.7188-1.7656 7.5156-2.6875 3.8125-0.92188 7.4844-0.92188 9.7656 0 14.906 6.5625 5.1562 6.5625 5.8906 19.953-2.8281-4.2031-7.1875-6.4531-4.3438-2.25-9.6094-2.25-10.938 0-17.312 6.6094-6.375 6.625-6.375 18.109 0 11.219 6.6406 18 6.6406 6.7969 17.672 6.7969 12.656 0 19.312-9.7031 6.6719-9.6875 6.6719-28.141 0-17.234-8.1875-27.516-8.1719-10.281-21.984-10.281-3.7188 0-7.5312 0.73438-3.7969 0.73438-7.9062 2.2031zm19.625 30.906q6.6406 0 10.516 4.5312 3.8906 4.5469 3.8906 12.469 0 7.8594-3.8906 12.422-3.875 4.5625-10.516 4.5625t-10.516-4.5625-3.875-12.422q0-7.9219 3.875-12.469 3.875-4.5312 10.516-4.5312z"/>
</defs>
<g transform="translate(539.73 289.39) scale(.1 -.1)">
<use xlink:href="#c"/>
<use x="63.623047" xlink:href="#g"/>
<use x="95.410156" xlink:href="#z"/>
</g>
</g>
<g clip-path="url(#a)">
<g transform="translate(1256.1 740.35) scale(.1 -.1)">
<use xlink:href="#r"/>
<use x="29.492188" xlink:href="#ae"/>
<use x="115.771484" xlink:href="#t"/>
<use x="176.074219" xlink:href="#af"/>
<use x="231.787109" xlink:href="#r"/>
<use x="261.279297" xlink:href="#m"/>
<use x="331.103516" xlink:href="#r"/>
<use x="360.595703" xlink:href="#k"/>
</g>
</g>
<g clip-path="url(#a)">
<g transform="translate(97.564 667.48) scale(.1 -.1)">
<use xlink:href="#c"/>
<use x="63.623047" xlink:href="#g"/>
<use x="95.410156" xlink:href="#c"/>
<use x="159.033203" xlink:href="#c"/>
</g>
</g>
<g clip-path="url(#a)">
<g transform="translate(139.29 667.48) scale(.1 -.1)">
<use xlink:href="#c"/>
<use x="63.623047" xlink:href="#g"/>
<use x="95.410156" xlink:href="#c"/>
<use x="159.033203" xlink:href="#q"/>
</g>
</g>
<g clip-path="url(#a)">
<defs>
<path id="n" d="m40.578 39.312q7.0781-1.5156 11.047-6.3125 3.9844-4.7812 3.9844-11.812 0-10.781-7.4219-16.703-7.4219-5.9062-21.094-5.9062-4.5781 0-9.4375 0.90625t-10.031 2.7188v9.5156q4.0938-2.3906 8.9688-3.6094 4.8906-1.2188 10.219-1.2188 9.2656 0 14.125 3.6562t4.8594 10.641q0 6.4531-4.5156 10.078-4.5156 3.6406-12.562 3.6406h-8.5v8.1094h8.8906q7.2656 0 11.125 2.9062t3.8594 8.375q0 5.6094-3.9844 8.6094-3.9688 3.0156-11.391 3.0156-4.0625 0-8.7031-0.89062-4.6406-0.875-10.203-2.7188v8.7812q5.625 1.5625 10.531 2.3438t9.25 0.78125q11.234 0 17.766-5.1094 6.5469-5.0938 6.5469-13.781 0-6.0625-3.4688-10.234t-9.8594-5.7812z"/>
</defs>
<g transform="translate(643.28 368.37) scale(.1 -.1)">
<use xlink:href="#c"/>
<use x="63.623047" xlink:href="#g"/>
<use x="95.410156" xlink:href="#c"/>
<use x="159.033203" xlink:href="#n"/>
</g>
</g>
<g clip-path="url(#a)">
<defs>
<path id="p" d="m37.797 64.312-24.906-38.922h24.906zm-2.5938 8.5938h12.406v-47.516h10.406v-8.2031h-10.406v-17.188h-9.8125v17.188h-32.906v9.5156z"/>
</defs>
<g transform="translate(222.76 594.6) scale(.1 -.1)">
<use xlink:href="#c"/>
<use x="63.623047" xlink:href="#g"/>
<use x="95.410156" xlink:href="#c"/>
<use x="159.033203" xlink:href="#p"/>
</g>
</g>
<g clip-path="url(#a)">
<g transform="translate(347.95 667.48) scale(.1 -.1)">
<use xlink:href="#c"/>
<use x="63.623047" xlink:href="#g"/>
<use x="95.410156" xlink:href="#c"/>
<use x="159.033203" xlink:href="#ab"/>
</g>
</g>
<g clip-path="url(#a)">
<g transform="translate(431.41 594.6) scale(.1 -.1)">
<use xlink:href="#c"/>
<use x="63.623047" xlink:href="#g"/>
<use x="95.410156" xlink:href="#c"/>
<use x="159.033203" xlink:href="#aa"/>
</g>
</g>
<g clip-path="url(#a)">
<g transform="translate(556.61 667.48) scale(.1 -.1)">
<use xlink:href="#c"/>
<use x="63.623047" xlink:href="#g"/>
<use x="95.410156" xlink:href="#c"/>
<use x="159.033203" xlink:href="#z"/>
</g>
</g>
<g clip-path="url(#a)">
<defs>
<path id="ag" d="m31.781 66.406q-7.6094 0-11.453-7.5-3.8281-7.4844-3.8281-22.531 0-14.984 3.8281-22.484 3.8438-7.5 11.453-7.5 7.6719 0 11.5 7.5 3.8438 7.5 3.8438 22.484 0 15.047-3.8438 22.531-3.8281 7.5-11.5 7.5zm0 7.8125q12.266 0 18.734-9.7031 6.4688-9.6875 6.4688-28.141 0-18.406-6.4688-28.109-6.4688-9.6875-18.734-9.6875-12.25 0-18.719 9.6875-6.4688 9.7031-6.4688 28.109 0 18.453 6.4688 28.141 6.4688 9.7031 18.719 9.7031z"/>
</defs>
<g transform="translate(640.07 594.6) scale(.1 -.1)">
<use xlink:href="#c"/>
<use x="63.623047" xlink:href="#g"/>
<use x="95.410156" xlink:href="#q"/>
<use x="159.033203" xlink:href="#ag"/>
</g>
</g>
<g clip-path="url(#a)">
<g transform="translate(765.27 667.48) scale(.1 -.1)">
<use xlink:href="#c"/>
<use x="63.623047" xlink:href="#g"/>
<use x="95.410156" xlink:href="#q"/>
<use x="159.033203" xlink:href="#q"/>
</g>
</g>
<g clip-path="url(#a)">
<g transform="translate(855.68 520.71) scale(.1 -.1)">
<use xlink:href="#c"/>
<use x="63.623047" xlink:href="#g"/>
<use x="95.410156" xlink:href="#q"/>
<use x="159.033203" xlink:href="#n"/>
</g>
</g>
<g clip-path="url(#a)">
<defs>
<path id="ac" d="m10.797 72.906h38.719v-8.3125h-29.688v-17.859q2.1406 0.73438 4.2812 1.0938 2.1562 0.35938 4.3125 0.35938 12.203 0 19.328-6.6875 7.1406-6.6875 7.1406-18.109 0-11.766-7.3281-18.297-7.3281-6.5156-20.656-6.5156-4.5938 0-9.3594 0.78125-4.75 0.78125-9.8281 2.3438v9.9219q4.3906-2.3906 9.0781-3.5625t9.9062-1.1719q8.4531 0 13.375 4.4375 4.9375 4.4375 4.9375 12.062 0 7.6094-4.9375 12.047-4.9219 4.4531-13.375 4.4531-3.9531 0-7.8906-0.875-3.9219-0.875-8.0156-2.7344z"/>
</defs>
<g transform="translate(973.92 667.48) scale(.1 -.1)">
<use xlink:href="#c"/>
<use x="63.623047" xlink:href="#g"/>
<use x="95.410156" xlink:href="#q"/>
<use x="159.033203" xlink:href="#ac"/>
</g>
</g>
<g clip-path="url(#a)">
<g transform="translate(1092.2 445.4) scale(.1 -.1)">
<use xlink:href="#c"/>
<use x="63.623047" xlink:href="#g"/>
<use x="95.410156" xlink:href="#q"/>
<use x="159.033203" xlink:href="#ab"/>
</g>
</g>
<g clip-path="url(#a)">
<g transform="translate(1015.7 667.48) scale(.1 -.1)">
<use xlink:href="#c"/>
<use x="63.623047" xlink:href="#g"/>
<use x="95.410156" xlink:href="#q"/>
<use x="159.033203" xlink:href="#aa"/>
</g>
</g>
<g clip-path="url(#a)">
<defs>
<path id="am" d="m31.781 34.625q-7.0312 0-11.062-3.7656-4.0156-3.7656-4.0156-10.344 0-6.5938 4.0156-10.359 4.0312-3.7656 11.062-3.7656t11.078 3.7812q4.0625 3.7969 4.0625 10.344 0 6.5781-4.0312 10.344-4.0156 3.7656-11.109 3.7656zm-9.8594 4.1875q-6.3438 1.5625-9.8906 5.9062-3.5312 4.3594-3.5312 10.609 0 8.7344 6.2188 13.812 6.2344 5.0781 17.062 5.0781 10.891 0 17.094-5.0781t6.2031-13.812q0-6.25-3.5469-10.609-3.5312-4.3438-9.8281-5.9062 7.125-1.6562 11.094-6.5 3.9844-4.8281 3.9844-11.797 0-10.609-6.4688-16.281-6.4688-5.6562-18.531-5.6562-12.047 0-18.531 5.6562-6.4688 5.6719-6.4688 16.281 0 6.9688 4 11.797 4.0156 4.8438 11.141 6.5zm-3.6094 15.578q0-5.6562 3.5312-8.8281 3.5469-3.1719 9.9375-3.1719 6.3594 0 9.9375 3.1719 3.5938 3.1719 3.5938 8.8281 0 5.6719-3.5938 8.8438-3.5781 3.1719-9.9375 3.1719-6.3906 0-9.9375-3.1719-3.5312-3.1719-3.5312-8.8438z"/>
</defs>
<g transform="translate(1168.7 520.71) scale(.1 -.1)">
<use xlink:href="#c"/>
<use x="63.623047" xlink:href="#g"/>
<use x="95.410156" xlink:href="#q"/>
<use x="159.033203" xlink:href="#am"/>
</g>
</g>
<g clip-path="url(#a)">
<g transform="translate(1099.1 594.6) scale(.1 -.1)">
<use xlink:href="#c"/>
<use x="63.623047" xlink:href="#g"/>
<use x="95.410156" xlink:href="#q"/>
<use x="159.033203" xlink:href="#z"/>
</g>
</g>
<g clip-path="url(#a)">
<g transform="translate(1182.6 667.48) scale(.1 -.1)">
<use xlink:href="#c"/>
<use x="63.623047" xlink:href="#g"/>
<use x="95.410156" xlink:href="#n"/>
<use x="159.033203" xlink:href="#ag"/>
</g>
</g>
<g clip-path="url(#a)">
<g transform="translate(1057.4 667.48) scale(.1 -.1)">
<use xlink:href="#c"/>
<use x="63.623047" xlink:href="#g"/>
<use x="95.410156" xlink:href="#n"/>
<use x="159.033203" xlink:href="#c"/>
</g>
</g>
<g clip-path="url(#a)">
<g transform="translate(1099.1 667.48) scale(.1 -.1)">
<use xlink:href="#c"/>
<use x="63.623047" xlink:href="#g"/>
<use x="95.410156" xlink:href="#n"/>
<use x="159.033203" xlink:href="#q"/>
</g>
</g>
<g clip-path="url(#a)">
<g transform="translate(1140.8 667.48) scale(.1 -.1)">
<use xlink:href="#c"/>
<use x="63.623047" xlink:href="#g"/>
<use x="95.410156" xlink:href="#n"/>
<use x="159.033203" xlink:href="#n"/>
</g>
</g>
<g clip-path="url(#a)">
<g transform="translate(807 667.48) scale(.1 -.1)">
<use xlink:href="#c"/>
<use x="63.623047" xlink:href="#g"/>
<use x="95.410156" xlink:href="#n"/>
<use x="159.033203" xlink:href="#p"/>
</g>
</g>
<g clip-path="url(#a)">
<g transform="translate(869.59 594.6) scale(.1 -.1)">
<use xlink:href="#c"/>
<use x="63.623047" xlink:href="#g"/>
<use x="95.410156" xlink:href="#n"/>
<use x="159.033203" xlink:href="#ac"/>
</g>
</g>
<g clip-path="url(#a)">
<g transform="translate(890.46 667.48) scale(.1 -.1)">
<use xlink:href="#c"/>
<use x="63.623047" xlink:href="#g"/>
<use x="95.410156" xlink:href="#n"/>
<use x="159.033203" xlink:href="#ab"/>
</g>
</g>
<g clip-path="url(#a)">
<g transform="translate(848.73 667.48) scale(.1 -.1)">
<use xlink:href="#c"/>
<use x="63.623047" xlink:href="#g"/>
<use x="95.410156" xlink:href="#n"/>
<use x="159.033203" xlink:href="#aa"/>
</g>
</g>
<g clip-path="url(#a)">
<g transform="translate(598.34 667.48) scale(.1 -.1)">
<use xlink:href="#c"/>
<use x="63.623047" xlink:href="#g"/>
<use x="95.410156" xlink:href="#n"/>
<use x="159.033203" xlink:href="#am"/>
</g>
</g>
<g clip-path="url(#a)">
<g transform="translate(640.07 667.48) scale(.1 -.1)">
<use xlink:href="#c"/>
<use x="63.623047" xlink:href="#g"/>
<use x="95.410156" xlink:href="#n"/>
<use x="159.033203" xlink:href="#z"/>
</g>
</g>
<g clip-path="url(#a)">
<g transform="translate(681.8 667.48) scale(.1 -.1)">
<use xlink:href="#c"/>
<use x="63.623047" xlink:href="#g"/>
<use x="95.410156" xlink:href="#p"/>
<use x="159.033203" xlink:href="#ag"/>
</g>
</g>
<g clip-path="url(#a)">
<g transform="translate(389.68 667.48) scale(.1 -.1)">
<use xlink:href="#c"/>
<use x="63.623047" xlink:href="#g"/>
<use x="95.410156" xlink:href="#p"/>
<use x="159.033203" xlink:href="#c"/>
</g>
</g>
<g clip-path="url(#a)">
<g transform="translate(431.41 667.48) scale(.1 -.1)">
<use xlink:href="#c"/>
<use x="63.623047" xlink:href="#g"/>
<use x="95.410156" xlink:href="#p"/>
<use x="159.033203" xlink:href="#q"/>
</g>
</g>
<g clip-path="url(#a)">
<g transform="translate(473.15 667.48) scale(.1 -.1)">
<use xlink:href="#c"/>
<use x="63.623047" xlink:href="#g"/>
<use x="95.410156" xlink:href="#p"/>
<use x="159.033203" xlink:href="#n"/>
</g>
</g>
<g clip-path="url(#a)">
<g transform="translate(181.03 667.48) scale(.1 -.1)">
<use xlink:href="#c"/>
<use x="63.623047" xlink:href="#g"/>
<use x="95.410156" xlink:href="#p"/>
<use x="159.033203" xlink:href="#p"/>
</g>
</g>
<g clip-path="url(#a)">
<g transform="translate(222.76 667.48) scale(.1 -.1)">
<use xlink:href="#c"/>
<use x="63.623047" xlink:href="#g"/>
<use x="95.410156" xlink:href="#p"/>
<use x="159.033203" xlink:href="#ac"/>
</g>
</g>
<g clip-path="url(#a)">
<g transform="translate(264.49 667.48) scale(.1 -.1)">
<use xlink:href="#c"/>
<use x="63.623047" xlink:href="#g"/>
<use x="95.410156" xlink:href="#p"/>
<use x="159.033203" xlink:href="#ab"/>
</g>
</g>
<g clip-path="url(#a)">
<g transform="translate(306.22 667.48) scale(.1 -.1)">
<use xlink:href="#c"/>
<use x="63.623047" xlink:href="#g"/>
<use x="95.410156" xlink:href="#p"/>
<use x="159.033203" xlink:href="#aa"/>
</g>
</g>
<g clip-path="url(#a)">
<g transform="translate(514.88 667.48) scale(.1 -.1)">
<use xlink:href="#c"/>
<use x="63.623047" xlink:href="#g"/>
<use x="95.410156" xlink:href="#p"/>
<use x="159.033203" xlink:href="#am"/>
</g>
</g>
<g clip-path="url(#a)">
<g transform="translate(723.53 667.48) scale(.1 -.1)">
<use xlink:href="#c"/>
<use x="63.623047" xlink:href="#g"/>
<use x="95.410156" xlink:href="#p"/>
<use x="159.033203" xlink:href="#z"/>
</g>
</g>
<g clip-path="url(#a)">
<g transform="translate(932.19 667.48) scale(.1 -.1)">
<use xlink:href="#c"/>
<use x="63.623047" xlink:href="#g"/>
<use x="95.410156" xlink:href="#ac"/>
<use x="159.033203" xlink:href="#ag"/>
</g>
</g>
<g clip-path="url(#a)">
<g transform="translate(1224.3 667.48) scale(.1 -.1)">
<use xlink:href="#c"/>
<use x="63.623047" xlink:href="#g"/>
<use x="95.410156" xlink:href="#ac"/>
<use x="159.033203" xlink:href="#c"/>
</g>
</g>
<defs>
<clipPath id="a">
<rect width="1469.3" height="773.33"/>
</clipPath>
</defs>
</svg>
