<?xml version="1.0" encoding="UTF-8"?>
<!DOCTYPE svg  PUBLIC '-//W3C//DTD SVG 1.1//EN'  'http://www.w3.org/Graphics/SVG/1.1/DTD/svg11.dtd'>
<svg width="2026.7pt" height="1066.7pt" version="1.1" viewBox="0 0 2026.7 1066.7" xmlns="http://www.w3.org/2000/svg" xmlns:xlink="http://www.w3.org/1999/xlink">
<defs>
<style type="text/css">*{stroke-linecap:butt;stroke-linejoin:round;}</style>
</defs>
<path d="m0 1066.7h2026.7v-1066.7h-2026.7z" fill="#fff"/>
<g fill="none" stroke="#000">
<path d="m575.08 48.485-382.52 279.38" clip-path="url(#a)"/>
<path d="m575.08 48.485-229.87 833.84" clip-path="url(#a)"/>
<path d="m575.08 48.485-31.573 139.81" clip-path="url(#a)"/>
<path d="m575.08 48.485 460.25 279.38" clip-path="url(#a)"/>
<path d="m575.08 48.485-262.04 833.84" clip-path="url(#a)"/>
<path d="m575.08 48.485 445.76 833.84" clip-path="url(#a)"/>
<path d="m192.56 327.87-76.526 139.29" clip-path="url(#a)"/>
<path d="m192.56 327.87 13.24 554.46" clip-path="url(#a)"/>
<path d="m192.56 327.87 63.286 416.71" clip-path="url(#a)"/>
<path d="m345.21 882.32v135.86" clip-path="url(#a)"/>
<path d="m543.51 188.29-145.75 556.28" clip-path="url(#a)"/>
<path d="m543.51 188.29-88.909 694.03" clip-path="url(#a)"/>
<path d="m543.51 188.29-48.157 694.03" clip-path="url(#a)"/>
<path d="m543.51 188.29-5.26 694.03" clip-path="url(#a)"/>
<path d="m543.51 188.29 39.782 694.03" clip-path="url(#a)"/>
<path d="m543.51 188.29 111.63 694.03" clip-path="url(#a)"/>
<path d="m543.51 188.29 136.66 139.57" clip-path="url(#a)"/>
<path d="m1035.3 327.87 49.854 554.46" clip-path="url(#a)"/>
<path d="m1035.3 327.87 150.66 554.46" clip-path="url(#a)"/>
<path d="m1035.3 327.87 418.82 139.29" clip-path="url(#a)"/>
<path d="m1035.3 327.87-619.34 554.46" clip-path="url(#a)" stroke-dasharray="3.7,1.6"/>
<path d="m1085.2 882.32v135.86" clip-path="url(#a)"/>
<path d="m1186 882.32-34.318 135.86" clip-path="url(#a)"/>
<path d="m1186 882.32 34.318 135.86" clip-path="url(#a)"/>
<path d="m1454.2 467.16-163.06 415.16" clip-path="url(#a)"/>
<path d="m1454.2 467.16-90.137 415.16" clip-path="url(#a)"/>
<path d="m1454.2 467.16-15.068 415.16" clip-path="url(#a)"/>
<path d="m1454.2 467.16 268.27 138.94" clip-path="url(#a)"/>
<path d="m1291.1 882.32v135.86" clip-path="url(#a)"/>
<path d="m1364 882.32v135.86" clip-path="url(#a)"/>
<path d="m1439.1 882.32v135.86" clip-path="url(#a)"/>
<path d="m1722.4 606.1-206.12 276.22" clip-path="url(#a)"/>
<path d="m1722.4 606.1-126.76 276.22" clip-path="url(#a)"/>
<path d="m1722.4 606.1-3.4318 138.47" clip-path="url(#a)"/>
<path d="m1722.4 606.1 124.19 276.22" clip-path="url(#a)"/>
<path d="m1722.4 606.1 212.13 276.22" clip-path="url(#a)"/>
<path d="m1516.3 882.32v135.86" clip-path="url(#a)"/>
<path d="m1595.7 882.32v135.86" clip-path="url(#a)"/>
<path d="m1719 744.57-41.825 137.75" clip-path="url(#a)"/>
<path d="m1719 744.57 41.825 137.75" clip-path="url(#a)"/>
<path d="m1846.6 882.32v135.86" clip-path="url(#a)"/>
<path d="m1677.2 882.32v135.86" clip-path="url(#a)"/>
<path d="m1760.8 882.32v135.86" clip-path="url(#a)"/>
<path d="m397.76 744.57-18.231 137.75" clip-path="url(#a)"/>
<path d="m397.76 744.57 18.231 137.75" clip-path="url(#a)"/>
<path d="m454.6 882.32v135.86" clip-path="url(#a)"/>
<path d="m495.35 882.32v135.86" clip-path="url(#a)"/>
<path d="m538.25 882.32v135.86" clip-path="url(#a)"/>
<path d="m583.29 882.32v135.86" clip-path="url(#a)"/>
<path d="m655.14 882.32-24.666 135.86" clip-path="url(#a)"/>
<path d="m655.14 882.32 24.666 135.86" clip-path="url(#a)"/>
<path d="m680.17 327.87 51.119 554.46" clip-path="url(#a)"/>
<path d="m680.17 327.87-51.119 139.29" clip-path="url(#a)"/>
<path d="m731.29 882.32v135.86" clip-path="url(#a)"/>
<path d="m629.05 467.16 213.05 138.94" clip-path="url(#a)"/>
<path d="m629.05 467.16-213.05 415.16" clip-path="url(#a)" stroke-dasharray="3.7,1.6"/>
<path d="m842.1 606.1-57.196 276.22" clip-path="url(#a)"/>
<path d="m842.1 606.1 57.196 138.47" clip-path="url(#a)"/>
<path d="m784.91 882.32v135.86" clip-path="url(#a)"/>
<path d="m899.3 744.57-58.626 137.75" clip-path="url(#a)"/>
<path d="m899.3 744.57-0.71495 137.75" clip-path="url(#a)"/>
<path d="m899.3 744.57 59.341 137.75" clip-path="url(#a)"/>
<path d="m840.67 882.32v135.86" clip-path="url(#a)"/>
<path d="m898.58 882.32v135.86" clip-path="url(#a)"/>
<path d="m958.64 882.32v135.86" clip-path="url(#a)"/>
<path d="m379.53 882.32v135.86" clip-path="url(#a)"/>
<path d="m415.99 882.32v135.86" clip-path="url(#a)"/>
<path d="m116.03 467.16-16.762 277.41" clip-path="url(#a)"/>
<path d="m116.03 467.16 1.8271 415.16" clip-path="url(#a)"/>
<path d="m116.03 467.16 14.934 138.94" clip-path="url(#a)"/>
<path d="m205.8 882.32v135.86" clip-path="url(#a)"/>
<path d="m255.84 744.57-26.453 137.75" clip-path="url(#a)"/>
<path d="m255.84 744.57-0.71495 137.75" clip-path="url(#a)"/>
<path d="m255.84 744.57 27.168 137.75" clip-path="url(#a)"/>
<path d="m229.39 882.32v135.86" clip-path="url(#a)"/>
<path d="m255.13 882.32v135.86" clip-path="url(#a)"/>
<path d="m283.01 882.32v135.86" clip-path="url(#a)"/>
<path d="m99.271 744.57-7.1495 137.75" clip-path="url(#a)"/>
<path d="m99.271 744.57-0.71495 137.75" clip-path="url(#a)"/>
<path d="m99.271 744.57 7.8644 137.75" clip-path="url(#a)"/>
<path d="m117.86 882.32v135.86" clip-path="url(#a)"/>
<path d="m130.97 606.1 53.383 138.47" clip-path="url(#a)"/>
<path d="m130.97 606.1-0.23832 276.22" clip-path="url(#a)"/>
<path d="m130.97 606.1 32.649 138.47" clip-path="url(#a)"/>
<path d="m130.97 606.1-32.411 276.22" clip-path="url(#a)" stroke-dasharray="3.7,1.6"/>
<path d="m130.73 882.32v135.86" clip-path="url(#a)"/>
<path d="m163.62 744.57-17.874 137.75" clip-path="url(#a)"/>
<path d="m163.62 744.57-0.71495 137.75" clip-path="url(#a)"/>
<path d="m163.62 744.57 18.589 137.75" clip-path="url(#a)"/>
<path d="m145.74 882.32v135.86" clip-path="url(#a)"/>
<path d="m162.9 882.32v135.86" clip-path="url(#a)"/>
<path d="m182.2 882.32v135.86" clip-path="url(#a)"/>
<path d="m92.121 882.32v135.86" clip-path="url(#a)"/>
<path d="m98.556 882.32v135.86" clip-path="url(#a)"/>
<path d="m107.14 882.32v135.86" clip-path="url(#a)"/>
<path d="m360.43 48.485-167.87 279.38" clip-path="url(#a)"/>
<path d="m360.43 48.485-15.214 833.84" clip-path="url(#a)"/>
<path d="m360.43 48.485 183.08 139.81" clip-path="url(#a)"/>
<path d="m313.04 882.32v135.86" clip-path="url(#a)"/>
<path d="m1020.8 882.32v135.86" clip-path="url(#a)"/>
<path d="m1934.5 882.32v135.86" clip-path="url(#a)"/>
</g>
<path d="m385.09 195.01 4.8584-3.5484q1.9381-1.4155 0.52258-3.3536l-4.5666-6.2524q-1.4155-1.9381-3.3536-0.52258l-4.8584 3.5484q-1.9381 1.4155-0.52258 3.3536l4.5666 6.2524q1.4155 1.9381 3.3536 0.52258z" clip-path="url(#a)" fill="#fff" stroke="#fff"/>
<g clip-path="url(#a)">
<defs>
<path id="am" d="m9.8125 72.906h9.8594v-29.891h35.844v29.891h9.8594v-72.906h-9.8594v34.719h-35.844v-34.719h-9.8594z"/>
</defs>
<g transform="translate(382.69 191.73) rotate(-36.143) scale(.08 -.08)">
<use xlink:href="#am"/>
</g>
</g>
<path d="m465.6 469.22 1.1846-4.2972q0.63783-2.3137-1.6759-2.9515l-7.4641-2.0577q-2.3137-0.63783-2.9515 1.6759l-1.1846 4.2972q-0.63783 2.3137 1.6759 2.9515l7.4641 2.0577q2.3137 0.63783 2.9515-1.6759z" clip-path="url(#a)" fill="#fff" stroke="#fff"/>
<g clip-path="url(#a)">
<defs>
<path id="ad" d="m9.8125 72.906h9.8594v-64.609h35.5v-8.2969h-45.359z"/>
</defs>
<g transform="translate(461.68 468.14) rotate(-74.588) scale(.08 -.08)">
<use xlink:href="#ad"/>
</g>
</g>
<path d="m564.75 122.7 1.3253-5.8685q0.52868-2.341-1.8124-2.8697l-7.5523-1.7055q-2.341-0.52868-2.8697 1.8124l-1.3253 5.8685q-0.52868 2.341 1.8124 2.8697l7.5523 1.7055q2.341 0.52868 2.8697-1.8124z" clip-path="url(#a)" fill="#fff" stroke="#fff"/>
<g clip-path="url(#a)">
<g transform="translate(560.79 121.81) rotate(-77.274) scale(.08 -.08)">
<use xlink:href="#am"/>
</g>
</g>
<path d="m799.38 191.98 5.1429 3.1219q2.0516 1.2454 3.297-0.80623l4.0176-6.6185q1.2454-2.0516-0.80623-3.297l-5.1429-3.1219q-2.0516-1.2454-3.297 0.80622l-4.0176 6.6185q-1.2454 2.0516 0.80623 3.297z" clip-path="url(#a)" fill="#fff" stroke="#fff"/>
<g clip-path="url(#a)">
<g transform="translate(801.49 188.5) rotate(31.259) scale(.08 -.08)">
<use xlink:href="#am"/>
</g>
</g>
<path d="m449.17 470.08 1.7554-5.5857q0.71953-2.2896-1.5701-3.0091l-7.3864-2.3212q-2.2896-0.71953-3.0091 1.5701l-1.7554 5.5857q-0.71953 2.2896 1.5701 3.0091l7.3864 2.3212q2.2896 0.71953 3.0091-1.5701z" clip-path="url(#a)" fill="#fff" stroke="#fff"/>
<g clip-path="url(#a)">
<defs>
<path id="ak" d="m8.6875 72.906h9.9219v-44.297q0-11.719 4.2344-16.875 4.25-5.1406 13.781-5.1406 9.4688 0 13.719 5.1406 4.25 5.1562 4.25 16.875v44.297h9.9062v-45.516q0-14.25-7.0625-21.531-7.0469-7.2812-20.812-7.2812-13.828 0-20.891 7.2812-7.0469 7.2812-7.0469 21.531z"/>
</defs>
<g transform="translate(445.29 468.86) rotate(-72.554) scale(.08 -.08)">
<use xlink:href="#ak"/>
</g>
</g>
<path d="m791.05 465.78 2.7603 5.1635q1.1315 2.1165 3.248 0.98507l6.8281-3.6502q2.1165-1.1315 0.98507-3.248l-2.7603-5.1635q-1.1315-2.1165-3.248-0.98507l-6.8281 3.6502q-2.1165 1.1315-0.98507 3.248z" clip-path="url(#a)" fill="#fff" stroke="#fff"/>
<g clip-path="url(#a)">
<g transform="translate(794.63 463.86) rotate(61.872) scale(.08 -.08)">
<use xlink:href="#ak"/>
</g>
</g>
<path d="m158.47 402.93 2.635-4.7963q1.1556-2.1035-0.94785-3.2591l-6.7859-3.7281q-2.1035-1.1556-3.2591 0.94785l-2.635 4.7963q-1.1556 2.1035 0.94785 3.2591l6.7859 3.7281q2.1035 1.1556 3.2591-0.94785z" clip-path="url(#a)" fill="#fff" stroke="#fff"/>
<g clip-path="url(#a)">
<defs>
<path id="s" d="m34.188 63.188-13.391-36.281h26.812zm-5.5781 9.7188h11.188l27.781-72.906h-10.25l-6.6406 18.703h-32.859l-6.6406-18.703h-10.406z"/>
</defs>
<g transform="translate(154.91 400.98) rotate(-61.216) scale(.08 -.08)">
<use xlink:href="#s"/>
</g>
</g>
<path d="m192.85 602.83 0.11515 4.8224q0.057293 2.3993 2.4566 2.342l7.7403-0.18483q2.3993-0.057294 2.342-2.4566l-0.11515-4.8224q-0.057293-2.3993-2.4566-2.342l-7.7403 0.18483q-2.3993 0.057293-2.342 2.4566z" clip-path="url(#a)" fill="#fff" stroke="#fff"/>
<g clip-path="url(#a)">
<defs>
<path id="y" d="m19.672 64.797v-27.391h12.406q6.8906 0 10.641 3.5625 3.7656 3.5625 3.7656 10.156 0 6.5469-3.7656 10.109-3.75 3.5625-10.641 3.5625zm-9.8594 8.1094h22.266q12.266 0 18.531-5.5469 6.2812-5.5469 6.2812-16.234 0-10.797-6.2812-16.312-6.2656-5.5156-18.531-5.5156h-12.406v-29.297h-9.8594z"/>
</defs>
<g transform="translate(196.91 602.74) rotate(88.632) scale(.08 -.08)">
<use xlink:href="#y"/>
</g>
</g>
<path d="m217.54 534.12 0.92493 6.0902q0.36036 2.3728 2.7332 2.0124l7.6547-1.1625q2.3728-0.36036 2.0124-2.7332l-0.92493-6.0902q-0.36036-2.3728-2.7332-2.0124l-7.6547 1.1625q-2.3728 0.36036-2.0124 2.7332z" clip-path="url(#a)" fill="#fff" stroke="#fff"/>
<g clip-path="url(#a)">
<defs>
<path id="ae" d="m19.672 64.797v-56.688h11.922q15.094 0 22.094 6.8281 7 6.8438 7 21.594 0 14.641-7 21.453t-22.094 6.8125zm-9.8594 8.1094h20.266q21.188 0 31.094-8.8125 9.9219-8.8125 9.9219-27.562 0-18.859-9.9688-27.703-9.9531-8.8281-31.047-8.8281h-20.266z"/>
</defs>
<g transform="translate(221.56 533.51) rotate(81.364) scale(.08 -.08)">
<use xlink:href="#ae"/>
</g>
</g>
<path d="m338.94 933.35v33.808q0 2.4 2.4 2.4h7.7425q2.4 0 2.4-2.4v-33.808q0-2.4-2.4-2.4h-7.7425q-2.4 0-2.4 2.4z" clip-path="url(#a)" fill="#fff" stroke="#fff"/>
<g clip-path="url(#a)">
<defs>
<path id="l" d="m-0.29688 72.906h61.672v-8.3125h-25.875v-64.594h-9.9062v64.594h-25.891z"/>
<path id="f" d="m56.203 29.594v-4.3906h-41.312q0.59375-9.2812 5.5938-14.141t13.938-4.8594q5.1719 0 10.031 1.2656t9.6562 3.8125v-8.5q-4.8438-2.0469-9.9219-3.125t-10.297-1.0781q-13.094 0-20.734 7.6094-7.6406 7.625-7.6406 20.625 0 13.422 7.25 21.297 7.25 7.8906 19.562 7.8906 11.031 0 17.453-7.1094 6.4219-7.0938 6.4219-19.297zm-8.9844 2.6406q-0.09375 7.3594-4.125 11.75-4.0312 4.4062-10.672 4.4062-7.5156 0-12.031-4.25t-5.2031-11.969z"/>
<path id="k" d="m41.109 46.297q-1.5156 0.875-3.2969 1.2812-1.7812 0.42188-3.9219 0.42188-7.625 0-11.703-4.9531t-4.0781-14.234v-28.812h-9.0312v54.688h9.0312v-8.5q2.8438 4.9844 7.375 7.3906 4.5469 2.4219 11.047 2.4219 0.92188 0 2.0469-0.125 1.125-0.10938 2.4844-0.35938z"/>
<path id="j" d="m52 44.188q3.375 6.0625 8.0625 8.9375t11.031 2.875q8.5469 0 13.188-5.9844 4.6406-5.9688 4.6406-17v-33.016h-9.0312v32.719q0 7.8594-2.7969 11.656-2.7812 3.8125-8.4844 3.8125-6.9844 0-11.047-4.6406-4.0469-4.625-4.0469-12.641v-30.906h-9.0312v32.719q0 7.9062-2.7812 11.688t-8.5938 3.7812q-6.8906 0-10.953-4.6562-4.0469-4.6562-4.0469-12.625v-30.906h-9.0312v54.688h9.0312v-8.5q3.0781 5.0312 7.375 7.4219t10.203 2.3906q5.9688 0 10.141-3.0312 4.1719-3.0156 6.1719-8.7812z"/>
<path id="h" d="m9.4219 54.688h8.9844v-54.688h-8.9844zm0 21.297h8.9844v-11.391h-8.9844z"/>
<path id="g" d="m54.891 33.016v-33.016h-8.9844v32.719q0 7.7656-3.0312 11.609-3.0312 3.8594-9.0781 3.8594-7.2812 0-11.484-4.6406-4.2031-4.625-4.2031-12.641v-30.906h-9.0312v54.688h9.0312v-8.5q3.2344 4.9375 7.5938 7.375 4.375 2.4375 10.094 2.4375 9.4219 0 14.25-5.8281 4.8438-5.8281 4.8438-17.156z"/>
<path id="d" d="m34.281 27.484q-10.891 0-15.094-2.4844t-4.2031-8.5q0-4.7812 3.1562-7.5938 3.1562-2.7969 8.5625-2.7969 7.4844 0 12 5.2969t4.5156 14.078v2zm17.922 3.7188v-31.203h-8.9844v8.2969q-3.0781-4.9688-7.6719-7.3438t-11.234-2.375q-8.3906 0-13.359 4.7188-4.9531 4.7188-4.9531 12.625 0 9.2188 6.1719 13.906 6.1875 4.6875 18.438 4.6875h12.609v0.89062q0 6.2031-4.0781 9.5938t-11.453 3.3906q-4.6875 0-9.1406-1.125-4.4375-1.125-8.5312-3.375v8.3125q4.9219 1.9062 9.5625 2.8438 4.6406 0.95312 9.0312 0.95312 11.875 0 17.734-6.1562 5.8594-6.1406 5.8594-18.641z"/>
<path id="i" d="m9.4219 75.984h8.9844v-75.984h-8.9844z"/>
</defs>
<g transform="translate(343.01 933.35) rotate(90) scale(.08 -.08)">
<use xlink:href="#l"/>
<use x="44.083984" xlink:href="#f"/>
<use x="105.607422" xlink:href="#k"/>
<use x="144.970703" xlink:href="#j"/>
<use x="242.382812" xlink:href="#h"/>
<use x="270.166016" xlink:href="#g"/>
<use x="333.544922" xlink:href="#d"/>
<use x="394.824219" xlink:href="#i"/>
</g>
</g>
<path d="m476.01 470.67 1.387-5.2938q0.60828-2.3216-1.7134-2.9299l-7.4897-1.9623q-2.3216-0.60828-2.9299 1.7134l-1.387 5.2938q-0.60828 2.3216 1.7134 2.9299l7.4897 1.9623q2.3216 0.60828 2.9299-1.7134z" clip-path="url(#a)" fill="#fff" stroke="#fff"/>
<g clip-path="url(#a)">
<g transform="translate(472.08 469.64) rotate(-75.318) scale(.08 -.08)">
<use xlink:href="#s"/>
</g>
</g>
<path d="m504.96 538.53 0.62088-4.8466q0.30496-2.3805-2.0756-2.6855l-7.6797-0.98382q-2.3805-0.30496-2.6855 2.0756l-0.62088 4.8466q-0.30496 2.3805 2.0756 2.6855l7.6797 0.98382q2.3805 0.30496 2.6855-2.0756z" clip-path="url(#a)" fill="#fff" stroke="#fff"/>
<g clip-path="url(#a)">
<g transform="translate(500.93 538.01) rotate(-82.7) scale(.08 -.08)">
<use xlink:href="#l"/>
</g>
</g>
<path d="m525.47 538.81 0.4264-6.1452q0.16613-2.3942-2.2281-2.5604l-7.7239-0.53594q-2.3942-0.16613-2.5604 2.2281l-0.4264 6.1452q-0.16613 2.3942 2.2281 2.5604l7.7239 0.53594q2.3942 0.16613 2.5604-2.2281z" clip-path="url(#a)" fill="#fff" stroke="#fff"/>
<g clip-path="url(#a)">
<g transform="translate(521.42 538.53) rotate(-86.031) scale(.08 -.08)">
<use xlink:href="#ae"/>
</g>
</g>
<path d="m547.13 538.44 0.046684-6.1598q0.018189-2.3999-2.3817-2.4181l-7.7423-0.058678q-2.3999-0.018189-2.4181 2.3817l-0.046685 6.1598q-0.018189 2.3999 2.3817 2.4181l7.7423 0.058678q2.3999 0.018189 2.4181-2.3817z" clip-path="url(#a)" fill="#fff" stroke="#fff"/>
<g clip-path="url(#a)">
<g transform="translate(543.06 538.4) rotate(-89.566) scale(.08 -.08)">
<use xlink:href="#ae"/>
</g>
</g>
<path d="m557.01 533.37 0.26331 4.5937q0.13734 2.3961 2.5334 2.2587l7.7298-0.44307q2.3961-0.13734 2.2587-2.5334l-0.26331-4.5937q-0.13734-2.3961-2.5334-2.2587l-7.7298 0.44307q-2.3961 0.13734-2.2587 2.5334z" clip-path="url(#a)" fill="#fff" stroke="#fff"/>
<g clip-path="url(#a)">
<defs>
<path id="an" d="m9.8125 72.906h41.891v-8.3125h-32.031v-21.484h28.906v-8.2969h-28.906v-34.812h-9.8594z"/>
</defs>
<g transform="translate(561.06 533.14) rotate(86.719) scale(.08 -.08)">
<use xlink:href="#an"/>
</g>
</g>
<path d="m592.75 533.92 0.76605 4.7625q0.38114 2.3695 2.7507 1.9884l7.6442-1.2296q2.3695-0.38114 1.9884-2.7507l-0.76605-4.7625q-0.38114-2.3695-2.7507-1.9884l-7.6442 1.2296q-2.3695 0.38114-1.9884 2.7507z" clip-path="url(#a)" fill="#fff" stroke="#fff"/>
<g clip-path="url(#a)">
<g transform="translate(596.76 533.28) rotate(80.862) scale(.08 -.08)">
<use xlink:href="#y"/>
</g>
</g>
<path d="m605.44 260.51 3.8286 3.9103q1.679 1.7149 3.3939 0.03584l5.5323-5.4167q1.7149-1.679 0.03584-3.3939l-3.8286-3.9103q-1.679-1.7149-3.3939-0.03584l-5.5323 5.4167q-1.7149 1.679-0.03584 3.3939z" clip-path="url(#a)" fill="#fff" stroke="#fff"/>
<g clip-path="url(#a)">
<g transform="translate(608.35 257.67) rotate(45.605) scale(.08 -.08)">
<use xlink:href="#s"/>
</g>
</g>
<path d="m1053.8 603.37 0.41206 4.5828q0.21493 2.3904 2.6053 2.1754l7.7114-0.69338q2.3904-0.21493 2.1754-2.6053l-0.41206-4.5828q-0.21493-2.3904-2.6053-2.1754l-7.7114 0.69338q-2.3904 0.21493-2.1754 2.6053z" clip-path="url(#a)" fill="#fff" stroke="#fff"/>
<g clip-path="url(#a)">
<g transform="translate(1057.9 603) rotate(84.862) scale(.08 -.08)">
<use xlink:href="#an"/>
</g>
</g>
<path d="m1104 604.41 1.2649 4.655q0.62933 2.316 2.9454 1.6867l7.4716-2.0302q2.316-0.62933 1.6867-2.9454l-1.2649-4.655q-0.62933-2.316-2.9454-1.6867l-7.4716 2.0302q-2.316 0.62933-1.6867 2.9454z" clip-path="url(#a)" fill="#fff" stroke="#fff"/>
<g clip-path="url(#a)">
<g transform="translate(1107.9 603.35) rotate(74.798) scale(.08 -.08)">
<use xlink:href="#y"/>
</g>
</g>
<path d="m1240.2 402.6 5.1928 1.7271q2.2774 0.75741 3.0348-1.5199l2.4434-7.3468q0.75741-2.2774-1.5199-3.0348l-5.1928-1.7271q-2.2774-0.75741-3.0348 1.5199l-2.4434 7.3468q-0.75741 2.2774 1.5199 3.0348z" clip-path="url(#a)" fill="#fff" stroke="#fff"/>
<g clip-path="url(#a)">
<g transform="translate(1241.4 398.75) rotate(18.396) scale(.08 -.08)">
<use xlink:href="#s"/>
</g>
</g>
<path d="m727.81 611.59 4.0773-3.6502q1.7881-1.6008 0.18733-3.3889l-5.1643-5.7686q-1.6008-1.7881-3.3889-0.18733l-4.0773 3.6502q-1.7881 1.6008-0.18733 3.3889l5.1643 5.7686q1.6008 1.7881 3.3889 0.18733z" clip-path="url(#a)" fill="#fff" stroke="#fff"/>
<g clip-path="url(#a)">
<g transform="translate(725.1 608.57) rotate(-41.836) scale(.08 -.08)">
<use xlink:href="#s"/>
</g>
</g>
<path d="m1078.9 933.35v33.808q0 2.4 2.4 2.4h7.7425q2.4 0 2.4-2.4v-33.808q0-2.4-2.4-2.4h-7.7425q-2.4 0-2.4 2.4z" clip-path="url(#a)" fill="#fff" stroke="#fff"/>
<g clip-path="url(#a)">
<g transform="translate(1083 933.35) rotate(90) scale(.08 -.08)">
<use xlink:href="#l"/>
<use x="44.083984" xlink:href="#f"/>
<use x="105.607422" xlink:href="#k"/>
<use x="144.970703" xlink:href="#j"/>
<use x="242.382812" xlink:href="#h"/>
<use x="270.166016" xlink:href="#g"/>
<use x="333.544922" xlink:href="#d"/>
<use x="394.824219" xlink:href="#i"/>
</g>
</g>
<path d="m1170.8 968.18 8.2796-32.778q0.58777-2.3269-1.7391-2.9147l-7.5067-1.8962q-2.3269-0.58777-2.9147 1.7391l-8.2796 32.778q-0.58777 2.3269 1.7391 2.9147l7.5067 1.8962q2.3269 0.58777 2.9147-1.7391z" clip-path="url(#a)" fill="#fff" stroke="#fff"/>
<g clip-path="url(#a)">
<g transform="translate(1166.8 967.18) rotate(-75.824) scale(.08 -.08)">
<use xlink:href="#l"/>
<use x="44.083984" xlink:href="#f"/>
<use x="105.607422" xlink:href="#k"/>
<use x="144.970703" xlink:href="#j"/>
<use x="242.382812" xlink:href="#h"/>
<use x="270.166016" xlink:href="#g"/>
<use x="333.544922" xlink:href="#d"/>
<use x="394.824219" xlink:href="#i"/>
</g>
</g>
<path d="m1192.9 935.4 8.2796 32.778q0.58777 2.3269 2.9147 1.7391l7.5067-1.8962q2.3269-0.58777 1.7391-2.9147l-8.2796-32.778q-0.58777-2.3269-2.9147-1.7391l-7.5067 1.8962q-2.3269 0.58777-1.7391 2.9147z" clip-path="url(#a)" fill="#fff" stroke="#fff"/>
<g clip-path="url(#a)">
<g transform="translate(1196.9 934.4) rotate(75.824) scale(.08 -.08)">
<use xlink:href="#l"/>
<use x="44.083984" xlink:href="#f"/>
<use x="105.607422" xlink:href="#k"/>
<use x="144.970703" xlink:href="#j"/>
<use x="242.382812" xlink:href="#h"/>
<use x="270.166016" xlink:href="#g"/>
<use x="333.544922" xlink:href="#d"/>
<use x="394.824219" xlink:href="#i"/>
</g>
</g>
<path d="m1377.4 679.62 2.0322-5.174q0.87739-2.2339-1.3565-3.1113l-7.2066-2.8305q-2.2339-0.87739-3.1113 1.3565l-2.0322 5.174q-0.87739 2.2339 1.3565 3.1113l7.2066 2.8305q2.2339 0.87739 3.1113-1.3565z" clip-path="url(#a)" fill="#fff" stroke="#fff"/>
<g clip-path="url(#a)">
<defs>
<path id="aa" d="m44.391 34.188q3.1719-1.0781 6.1719-4.5938t6.0312-9.6719l10.016-19.922h-10.609l-9.3125 18.703q-3.625 7.3281-7.0156 9.7188t-9.25 2.3906h-10.75v-30.812h-9.8594v72.906h22.266q12.5 0 18.656-5.2344 6.1562-5.2188 6.1562-15.766 0-6.8906-3.2031-11.438-3.2031-4.5312-9.2969-6.2812zm-24.719 30.609v-25.875h12.406q7.125 0 10.766 3.2969t3.6406 9.6875-3.6406 9.6406-10.766 3.25z"/>
</defs>
<g transform="translate(1373.7 678.14) rotate(-68.557) scale(.08 -.08)">
<use xlink:href="#aa"/>
</g>
</g>
<path d="m1414.7 678.54 1.0725-4.9399q0.50921-2.3454-1.8361-2.8546l-7.5662-1.6427q-2.3454-0.50921-2.8546 1.8362l-1.0725 4.9399q-0.50921 2.3454 1.8361 2.8546l7.5662 1.6427q2.3454 0.50921 2.8546-1.8362z" clip-path="url(#a)" fill="#fff" stroke="#fff"/>
<g clip-path="url(#a)">
<defs>
<path id="u" d="m9.8125 72.906h46.094v-8.3125h-36.234v-21.578h34.719v-8.2969h-34.719v-26.422h37.109v-8.2969h-46.969z"/>
</defs>
<g transform="translate(1410.7 677.68) rotate(-77.75) scale(.08 -.08)">
<use xlink:href="#u"/>
</g>
</g>
<path d="m1452.8 677.76 0.20261-5.5826q0.087046-2.3984-2.3114-2.4855l-7.7374-0.28082q-2.3984-0.087046-2.4855 2.3114l-0.20261 5.5826q-0.087047 2.3984 2.3114 2.4855l7.7374 0.28082q2.3984 0.087046 2.4855-2.3114z" clip-path="url(#a)" fill="#fff" stroke="#fff"/>
<g clip-path="url(#a)">
<defs>
<path id="q" d="m64.406 67.281v-10.391q-4.9844 4.6406-10.625 6.9219-5.6406 2.2969-11.984 2.2969-12.5 0-19.141-7.6406t-6.6406-22.094q0-14.406 6.6406-22.047t19.141-7.6406q6.3438 0 11.984 2.2969t10.625 6.9375v-10.312q-5.1719-3.5156-10.969-5.2812-5.7812-1.75-12.219-1.75-16.562 0-26.094 10.125-9.5156 10.141-9.5156 27.672 0 17.578 9.5156 27.703 9.5312 10.141 26.094 10.141 6.5312 0 12.312-1.7344 5.7969-1.7344 10.875-5.2031z"/>
</defs>
<g transform="translate(1448.7 677.61) rotate(-87.921) scale(.08 -.08)">
<use xlink:href="#q"/>
</g>
</g>
<path d="m1583.2 541.04 4.4887 2.3248q2.1311 1.1038 3.2349-1.0274l3.5608-6.8751q1.1038-2.1311-1.0274-3.2349l-4.4887-2.3248q-2.1311-1.1038-3.2349 1.0274l-3.5608 6.8751q-1.1038 2.1311 1.0274 3.2349z" clip-path="url(#a)" fill="#fff" stroke="#fff"/>
<g clip-path="url(#a)">
<g transform="translate(1585 537.43) rotate(27.381) scale(.08 -.08)">
<use xlink:href="#u"/>
</g>
</g>
<path d="m1284.8 933.35v33.808q0 2.4 2.4 2.4h7.7425q2.4 0 2.4-2.4v-33.808q0-2.4-2.4-2.4h-7.7425q-2.4 0-2.4 2.4z" clip-path="url(#a)" fill="#fff" stroke="#fff"/>
<g clip-path="url(#a)">
<g transform="translate(1288.9 933.35) rotate(90) scale(.08 -.08)">
<use xlink:href="#l"/>
<use x="44.083984" xlink:href="#f"/>
<use x="105.607422" xlink:href="#k"/>
<use x="144.970703" xlink:href="#j"/>
<use x="242.382812" xlink:href="#h"/>
<use x="270.166016" xlink:href="#g"/>
<use x="333.544922" xlink:href="#d"/>
<use x="394.824219" xlink:href="#i"/>
</g>
</g>
<path d="m1357.7 933.35v33.808q0 2.4 2.4 2.4h7.7425q2.4 0 2.4-2.4v-33.808q0-2.4-2.4-2.4h-7.7425q-2.4 0-2.4 2.4z" clip-path="url(#a)" fill="#fff" stroke="#fff"/>
<g clip-path="url(#a)">
<g transform="translate(1361.8 933.35) rotate(90) scale(.08 -.08)">
<use xlink:href="#l"/>
<use x="44.083984" xlink:href="#f"/>
<use x="105.607422" xlink:href="#k"/>
<use x="144.970703" xlink:href="#j"/>
<use x="242.382812" xlink:href="#h"/>
<use x="270.166016" xlink:href="#g"/>
<use x="333.544922" xlink:href="#d"/>
<use x="394.824219" xlink:href="#i"/>
</g>
</g>
<path d="m1432.8 933.35v33.808q0 2.4 2.4 2.4h7.7425q2.4 0 2.4-2.4v-33.808q0-2.4-2.4-2.4h-7.7425q-2.4 0-2.4 2.4z" clip-path="url(#a)" fill="#fff" stroke="#fff"/>
<g clip-path="url(#a)">
<g transform="translate(1436.9 933.35) rotate(90) scale(.08 -.08)">
<use xlink:href="#l"/>
<use x="44.083984" xlink:href="#f"/>
<use x="105.607422" xlink:href="#k"/>
<use x="144.970703" xlink:href="#j"/>
<use x="242.382812" xlink:href="#h"/>
<use x="270.166016" xlink:href="#g"/>
<use x="333.544922" xlink:href="#d"/>
<use x="394.824219" xlink:href="#i"/>
</g>
</g>
<path d="m1622.7 750.16 3.2729-4.386q1.4353-1.9235-0.48815-3.3588l-6.2052-4.6305q-1.9235-1.4353-3.3588 0.48815l-3.2729 4.3859q-1.4353 1.9235 0.48815 3.3588l6.2052 4.6305q1.9235 1.4353 3.3588-0.48815z" clip-path="url(#a)" fill="#fff" stroke="#fff"/>
<g clip-path="url(#a)">
<g transform="translate(1619.5 747.73) rotate(-53.269) scale(.08 -.08)">
<use xlink:href="#s"/>
</g>
</g>
<path d="m1663.8 748.92 1.9191-4.1819q1.001-2.1813-1.1803-3.1823l-7.0369-3.2293q-2.1813-1.001-3.1823 1.1803l-1.9191 4.1819q-1.001 2.1813 1.1803 3.1823l7.0369 3.2293q2.1813 1.001 3.1823-1.1803z" clip-path="url(#a)" fill="#fff" stroke="#fff"/>
<g clip-path="url(#a)">
<g transform="translate(1660.1 747.23) rotate(-65.349) scale(.08 -.08)">
<use xlink:href="#an"/>
</g>
</g>
<path d="m1726.9 678.57 0.15262-6.1581q0.059461-2.3993-2.3398-2.4587l-7.7401-0.19182q-2.3993-0.059462-2.4587 2.3398l-0.15262 6.1581q-0.059461 2.3993 2.3398 2.4587l7.7401 0.19182q2.3993 0.059462 2.4587-2.3398z" clip-path="url(#a)" fill="#fff" stroke="#fff"/>
<g clip-path="url(#a)">
<g transform="translate(1722.8 678.47) rotate(-88.58) scale(.08 -.08)">
<use xlink:href="#ae"/>
</g>
</g>
<path d="m1777.8 744.59 1.978 4.3996q0.98414 2.1889 3.1731 1.2048l7.0616-3.1749q2.1889-0.98414 1.2048-3.1731l-1.978-4.3995q-0.98414-2.1889-3.1731-1.2048l-7.0616 3.1749q-2.1889 0.98414-1.2048 3.1731z" clip-path="url(#a)" fill="#fff" stroke="#fff"/>
<g clip-path="url(#a)">
<g transform="translate(1781.5 742.92) rotate(65.792) scale(.08 -.08)">
<use xlink:href="#y"/>
</g>
</g>
<path d="m1821.7 745.71 3.5661 4.6437q1.4618 1.9035 3.3653 0.44168l6.1407-4.7158q1.9035-1.4618 0.44168-3.3653l-3.5661-4.6437q-1.4618-1.9035-3.3653-0.44168l-6.1407 4.7158q-1.9035 1.4618-0.44168 3.3653z" clip-path="url(#a)" fill="#fff" stroke="#fff"/>
<g clip-path="url(#a)">
<g transform="translate(1824.9 743.24) rotate(52.477) scale(.08 -.08)">
<use xlink:href="#ak"/>
</g>
</g>
<path d="m1510 933.35v33.808q0 2.4 2.4 2.4h7.7425q2.4 0 2.4-2.4v-33.808q0-2.4-2.4-2.4h-7.7425q-2.4 0-2.4 2.4z" clip-path="url(#a)" fill="#fff" stroke="#fff"/>
<g clip-path="url(#a)">
<g transform="translate(1514.1 933.35) rotate(90) scale(.08 -.08)">
<use xlink:href="#l"/>
<use x="44.083984" xlink:href="#f"/>
<use x="105.607422" xlink:href="#k"/>
<use x="144.970703" xlink:href="#j"/>
<use x="242.382812" xlink:href="#h"/>
<use x="270.166016" xlink:href="#g"/>
<use x="333.544922" xlink:href="#d"/>
<use x="394.824219" xlink:href="#i"/>
</g>
</g>
<path d="m1589.4 933.35v33.808q0 2.4 2.4 2.4h7.7425q2.4 0 2.4-2.4v-33.808q0-2.4-2.4-2.4h-7.7425q-2.4 0-2.4 2.4z" clip-path="url(#a)" fill="#fff" stroke="#fff"/>
<g clip-path="url(#a)">
<g transform="translate(1593.5 933.35) rotate(90) scale(.08 -.08)">
<use xlink:href="#l"/>
<use x="44.083984" xlink:href="#f"/>
<use x="105.607422" xlink:href="#k"/>
<use x="144.970703" xlink:href="#j"/>
<use x="242.382812" xlink:href="#h"/>
<use x="270.166016" xlink:href="#g"/>
<use x="333.544922" xlink:href="#d"/>
<use x="394.824219" xlink:href="#i"/>
</g>
</g>
<path d="m1703.3 817.69 1.4686-4.837q0.69728-2.2965-1.5992-2.9938l-7.4085-2.2494q-2.2965-0.69728-2.9938 1.5992l-1.4686 4.837q-0.69728 2.2965 1.5992 2.9938l7.4085 2.2494q2.2965 0.69728 2.9938-1.5992z" clip-path="url(#a)" fill="#fff" stroke="#fff"/>
<g clip-path="url(#a)">
<g transform="translate(1699.5 816.51) rotate(-73.11) scale(.08 -.08)">
<use xlink:href="#u"/>
</g>
</g>
<path d="m1733.1 812.6 1.623 5.3453q0.69728 2.2965 2.9938 1.5992l7.4085-2.2494q2.2965-0.69728 1.5992-2.9938l-1.623-5.3453q-0.69728-2.2965-2.9938-1.5992l-7.4085 2.2494q-2.2965 0.69728-1.5992 2.9938z" clip-path="url(#a)" fill="#fff" stroke="#fff"/>
<g clip-path="url(#a)">
<g transform="translate(1737 811.42) rotate(73.11) scale(.08 -.08)">
<use xlink:href="#q"/>
</g>
</g>
<path d="m1840.3 933.35v33.808q0 2.4 2.4 2.4h7.7425q2.4 0 2.4-2.4v-33.808q0-2.4-2.4-2.4h-7.7425q-2.4 0-2.4 2.4z" clip-path="url(#a)" fill="#fff" stroke="#fff"/>
<g clip-path="url(#a)">
<g transform="translate(1844.4 933.35) rotate(90) scale(.08 -.08)">
<use xlink:href="#l"/>
<use x="44.083984" xlink:href="#f"/>
<use x="105.607422" xlink:href="#k"/>
<use x="144.970703" xlink:href="#j"/>
<use x="242.382812" xlink:href="#h"/>
<use x="270.166016" xlink:href="#g"/>
<use x="333.544922" xlink:href="#d"/>
<use x="394.824219" xlink:href="#i"/>
</g>
</g>
<path d="m1670.9 933.35v33.808q0 2.4 2.4 2.4h7.7425q2.4 0 2.4-2.4v-33.808q0-2.4-2.4-2.4h-7.7425q-2.4 0-2.4 2.4z" clip-path="url(#a)" fill="#fff" stroke="#fff"/>
<g clip-path="url(#a)">
<g transform="translate(1675 933.35) rotate(90) scale(.08 -.08)">
<use xlink:href="#l"/>
<use x="44.083984" xlink:href="#f"/>
<use x="105.607422" xlink:href="#k"/>
<use x="144.970703" xlink:href="#j"/>
<use x="242.382812" xlink:href="#h"/>
<use x="270.166016" xlink:href="#g"/>
<use x="333.544922" xlink:href="#d"/>
<use x="394.824219" xlink:href="#i"/>
</g>
</g>
<path d="m1754.5 933.35v33.808q0 2.4 2.4 2.4h7.7425q2.4 0 2.4-2.4v-33.808q0-2.4-2.4-2.4h-7.7425q-2.4 0-2.4 2.4z" clip-path="url(#a)" fill="#fff" stroke="#fff"/>
<g clip-path="url(#a)">
<g transform="translate(1758.6 933.35) rotate(90) scale(.08 -.08)">
<use xlink:href="#l"/>
<use x="44.083984" xlink:href="#f"/>
<use x="105.607422" xlink:href="#k"/>
<use x="144.970703" xlink:href="#j"/>
<use x="242.382812" xlink:href="#h"/>
<use x="270.166016" xlink:href="#g"/>
<use x="333.544922" xlink:href="#d"/>
<use x="394.824219" xlink:href="#i"/>
</g>
</g>
<path d="m394.53 816.78 0.66325-5.0113q0.3149-2.3793-2.0644-2.6942l-7.6756-1.0159q-2.3793-0.3149-2.6941 2.0644l-0.66325 5.0113q-0.3149 2.3793 2.0644 2.6942l7.6756 1.0159q2.3793 0.3149 2.6941-2.0644z" clip-path="url(#a)" fill="#fff" stroke="#fff"/>
<g clip-path="url(#a)">
<g transform="translate(390.5 816.24) rotate(-82.461) scale(.08 -.08)">
<use xlink:href="#u"/>
</g>
</g>
<path d="m400.29 811.5 0.73296 5.538q0.3149 2.3793 2.6941 2.0644l7.6756-1.0159q2.3793-0.3149 2.0644-2.6941l-0.73296-5.538q-0.3149-2.3793-2.6941-2.0644l-7.6756 1.0159q-2.3793 0.3149-2.0644 2.6941z" clip-path="url(#a)" fill="#fff" stroke="#fff"/>
<g clip-path="url(#a)">
<g transform="translate(404.32 810.97) rotate(82.461) scale(.08 -.08)">
<use xlink:href="#q"/>
</g>
</g>
<path d="m448.33 933.35v33.808q0 2.4 2.4 2.4h7.7425q2.4 0 2.4-2.4v-33.808q0-2.4-2.4-2.4h-7.7425q-2.4 0-2.4 2.4z" clip-path="url(#a)" fill="#fff" stroke="#fff"/>
<g clip-path="url(#a)">
<g transform="translate(452.39 933.35) rotate(90) scale(.08 -.08)">
<use xlink:href="#l"/>
<use x="44.083984" xlink:href="#f"/>
<use x="105.607422" xlink:href="#k"/>
<use x="144.970703" xlink:href="#j"/>
<use x="242.382812" xlink:href="#h"/>
<use x="270.166016" xlink:href="#g"/>
<use x="333.544922" xlink:href="#d"/>
<use x="394.824219" xlink:href="#i"/>
</g>
</g>
<path d="m489.08 933.35v33.808q0 2.4 2.4 2.4h7.7425q2.4 0 2.4-2.4v-33.808q0-2.4-2.4-2.4h-7.7425q-2.4 0-2.4 2.4z" clip-path="url(#a)" fill="#fff" stroke="#fff"/>
<g clip-path="url(#a)">
<g transform="translate(493.15 933.35) rotate(90) scale(.08 -.08)">
<use xlink:href="#l"/>
<use x="44.083984" xlink:href="#f"/>
<use x="105.607422" xlink:href="#k"/>
<use x="144.970703" xlink:href="#j"/>
<use x="242.382812" xlink:href="#h"/>
<use x="270.166016" xlink:href="#g"/>
<use x="333.544922" xlink:href="#d"/>
<use x="394.824219" xlink:href="#i"/>
</g>
</g>
<path d="m531.98 933.35v33.808q0 2.4 2.4 2.4h7.7425q2.4 0 2.4-2.4v-33.808q0-2.4-2.4-2.4h-7.7425q-2.4 0-2.4 2.4z" clip-path="url(#a)" fill="#fff" stroke="#fff"/>
<g clip-path="url(#a)">
<g transform="translate(536.04 933.35) rotate(90) scale(.08 -.08)">
<use xlink:href="#l"/>
<use x="44.083984" xlink:href="#f"/>
<use x="105.607422" xlink:href="#k"/>
<use x="144.970703" xlink:href="#j"/>
<use x="242.382812" xlink:href="#h"/>
<use x="270.166016" xlink:href="#g"/>
<use x="333.544922" xlink:href="#d"/>
<use x="394.824219" xlink:href="#i"/>
</g>
</g>
<path d="m577.02 933.35v33.808q0 2.4 2.4 2.4h7.7425q2.4 0 2.4-2.4v-33.808q0-2.4-2.4-2.4h-7.7425q-2.4 0-2.4 2.4z" clip-path="url(#a)" fill="#fff" stroke="#fff"/>
<g clip-path="url(#a)">
<g transform="translate(581.08 933.35) rotate(90) scale(.08 -.08)">
<use xlink:href="#l"/>
<use x="44.083984" xlink:href="#f"/>
<use x="105.607422" xlink:href="#k"/>
<use x="144.970703" xlink:href="#j"/>
<use x="242.382812" xlink:href="#h"/>
<use x="270.166016" xlink:href="#g"/>
<use x="333.544922" xlink:href="#d"/>
<use x="394.824219" xlink:href="#i"/>
</g>
</g>
<path d="m645.96 968 6.0392-33.264q0.42872-2.3614-1.9327-2.7901l-7.618-1.3831q-2.3614-0.42872-2.7901 1.9327l-6.0392 33.264q-0.42872 2.3614 1.9327 2.7901l7.618 1.3831q2.3614 0.42872 2.7901-1.9327z" clip-path="url(#a)" fill="#fff" stroke="#fff"/>
<g clip-path="url(#a)">
<g transform="translate(641.96 967.28) rotate(-79.71) scale(.08 -.08)">
<use xlink:href="#l"/>
<use x="44.083984" xlink:href="#f"/>
<use x="105.607422" xlink:href="#k"/>
<use x="144.970703" xlink:href="#j"/>
<use x="242.382812" xlink:href="#h"/>
<use x="270.166016" xlink:href="#g"/>
<use x="333.544922" xlink:href="#d"/>
<use x="394.824219" xlink:href="#i"/>
</g>
</g>
<path d="m658.29 934.74 6.0392 33.264q0.42872 2.3614 2.7901 1.9327l7.618-1.3831q2.3614-0.42872 1.9327-2.7901l-6.0392-33.264q-0.42872-2.3614-2.7901-1.9327l-7.618 1.3831q-2.3614 0.42872-1.9327 2.7901z" clip-path="url(#a)" fill="#fff" stroke="#fff"/>
<g clip-path="url(#a)">
<g transform="translate(662.29 934.02) rotate(79.71) scale(.08 -.08)">
<use xlink:href="#l"/>
<use x="44.083984" xlink:href="#f"/>
<use x="105.607422" xlink:href="#k"/>
<use x="144.970703" xlink:href="#j"/>
<use x="242.382812" xlink:href="#h"/>
<use x="270.166016" xlink:href="#g"/>
<use x="333.544922" xlink:href="#d"/>
<use x="394.824219" xlink:href="#i"/>
</g>
</g>
<path d="m699.23 602.9 0.51033 5.5353q0.22034 2.3899 2.6102 2.1695l7.7098-0.71082q2.3899-0.22034 2.1695-2.6102l-0.51033-5.5353q-0.22034-2.3899-2.6102-2.1695l-7.7098 0.71082q-2.3899 0.22034-2.1695 2.6102z" clip-path="url(#a)" fill="#fff" stroke="#fff"/>
<g clip-path="url(#a)">
<g transform="translate(703.27 602.53) rotate(84.732) scale(.08 -.08)">
<use xlink:href="#aa"/>
</g>
</g>
<path d="m659.53 402.3 1.9246-5.2443q0.82684-2.2531-1.4262-3.0799l-7.2685-2.6674q-2.2531-0.82684-3.0799 1.4262l-1.9246 5.2443q-0.82685 2.2531 1.4262 3.0799l7.2685 2.6674q2.2531 0.82684 3.0799-1.4262z" clip-path="url(#a)" fill="#fff" stroke="#fff"/>
<g clip-path="url(#a)">
<g transform="translate(655.72 400.9) rotate(-69.848) scale(.08 -.08)">
<use xlink:href="#q"/>
</g>
</g>
<path d="m725.01 933.35v33.808q0 2.4 2.4 2.4h7.7425q2.4 0 2.4-2.4v-33.808q0-2.4-2.4-2.4h-7.7425q-2.4 0-2.4 2.4z" clip-path="url(#a)" fill="#fff" stroke="#fff"/>
<g clip-path="url(#a)">
<g transform="translate(729.08 933.35) rotate(90) scale(.08 -.08)">
<use xlink:href="#l"/>
<use x="44.083984" xlink:href="#f"/>
<use x="105.607422" xlink:href="#k"/>
<use x="144.970703" xlink:href="#j"/>
<use x="242.382812" xlink:href="#h"/>
<use x="270.166016" xlink:href="#g"/>
<use x="333.544922" xlink:href="#d"/>
<use x="394.824219" xlink:href="#i"/>
</g>
</g>
<path d="m730.13 540.57 4.0405 2.635q2.0103 1.311 3.3213-0.69929l4.2293-6.4853q1.311-2.0103-0.69929-3.3213l-4.0405-2.635q-2.0103-1.311-3.3213 0.6993l-4.2293 6.4853q-1.311 2.0103 0.69929 3.3213z" clip-path="url(#a)" fill="#fff" stroke="#fff"/>
<g clip-path="url(#a)">
<g transform="translate(732.35 537.16) rotate(33.11) scale(.08 -.08)">
<use xlink:href="#y"/>
</g>
</g>
<path d="m526.85 680.04 2.4986-4.8688q1.0958-2.1352-1.0395-3.231l-6.8884-3.535q-2.1352-1.0958-3.231 1.0395l-2.4986 4.8688q-1.0958 2.1352 1.0395 3.231l6.8884 3.535q2.1352 1.0958 3.231-1.0395z" clip-path="url(#a)" fill="#fff" stroke="#fff"/>
<g clip-path="url(#a)">
<g transform="translate(523.24 678.18) rotate(-62.834) scale(.08 -.08)">
<use xlink:href="#s"/>
</g>
</g>
<path d="m819.13 747.96 1.025-4.95q0.48664-2.3501-1.8635-2.8368l-7.5817-1.5699q-2.3501-0.48664-2.8368 1.8635l-1.025 4.95q-0.48664 2.3501 1.8635 2.8368l7.5817 1.5699q2.3501 0.48664 2.8368-1.8635z" clip-path="url(#a)" fill="#fff" stroke="#fff"/>
<g clip-path="url(#a)">
<g transform="translate(815.15 747.14) rotate(-78.301) scale(.08 -.08)">
<use xlink:href="#u"/>
</g>
</g>
<path d="m863.84 675.15 2.1327 5.1631q0.91624 2.2182 3.1345 1.302l7.1561-2.9558q2.2182-0.91624 1.302-3.1345l-2.1327-5.1631q-0.91624-2.2182-3.1345-1.302l-7.1561 2.9558q-2.2182 0.91624-1.302 3.1345z" clip-path="url(#a)" fill="#fff" stroke="#fff"/>
<g clip-path="url(#a)">
<g transform="translate(867.59 673.6) rotate(67.557) scale(.08 -.08)">
<use xlink:href="#q"/>
</g>
</g>
<path d="m778.64 933.35v33.808q0 2.4 2.4 2.4h7.7425q2.4 0 2.4-2.4v-33.808q0-2.4-2.4-2.4h-7.7425q-2.4 0-2.4 2.4z" clip-path="url(#a)" fill="#fff" stroke="#fff"/>
<g clip-path="url(#a)">
<g transform="translate(782.7 933.35) rotate(90) scale(.08 -.08)">
<use xlink:href="#l"/>
<use x="44.083984" xlink:href="#f"/>
<use x="105.607422" xlink:href="#k"/>
<use x="144.970703" xlink:href="#j"/>
<use x="242.382812" xlink:href="#h"/>
<use x="270.166016" xlink:href="#g"/>
<use x="333.544922" xlink:href="#d"/>
<use x="394.824219" xlink:href="#i"/>
</g>
</g>
<path d="m874.66 818.47 2.1876-5.1401q0.93986-2.2083-1.2685-3.1482l-7.1241-3.032q-2.2083-0.93986-3.1482 1.2685l-2.1876 5.1401q-0.93986 2.2083 1.2685 3.1482l7.1241 3.032q2.2083 0.93986 3.1482-1.2685z" clip-path="url(#a)" fill="#fff" stroke="#fff"/>
<g clip-path="url(#a)">
<g transform="translate(870.92 816.88) rotate(-66.945) scale(.08 -.08)">
<use xlink:href="#q"/>
</g>
</g>
<path d="m905.2 816.47 0.031063-5.9849q0.012456-2.4-2.3875-2.4124l-7.7424-0.040185q-2.4-0.012456-2.4124 2.3875l-0.031063 5.9849q-0.012457 2.4 2.3875 2.4124l7.7424 0.040185q2.4 0.012456 2.4124-2.3875z" clip-path="url(#a)" fill="#fff" stroke="#fff"/>
<g clip-path="url(#a)">
<defs>
<path id="at" d="m9.8125 72.906h13.281l32.328-60.984v60.984h9.5625v-72.906h-13.281l-32.312 60.984v-60.984h-9.5781z"/>
</defs>
<g transform="translate(901.13 816.45) rotate(-89.703) scale(.08 -.08)">
<use xlink:href="#at"/>
</g>
</g>
<path d="m922.1 813.36 2.2101 5.1304q0.94954 2.2042 3.1537 1.2546l7.1108-3.0632q2.2042-0.94954 1.2546-3.1537l-2.2101-5.1304q-0.94954-2.2042-3.1537-1.2546l-7.1108 3.0632q-2.2042 0.94954-1.2546 3.1537z" clip-path="url(#a)" fill="#fff" stroke="#fff"/>
<g clip-path="url(#a)">
<g transform="translate(925.84 811.76) rotate(66.694) scale(.08 -.08)">
<use xlink:href="#q"/>
</g>
</g>
<path d="m834.4 933.35v33.808q0 2.4 2.4 2.4h7.7425q2.4 0 2.4-2.4v-33.808q0-2.4-2.4-2.4h-7.7425q-2.4 0-2.4 2.4z" clip-path="url(#a)" fill="#fff" stroke="#fff"/>
<g clip-path="url(#a)">
<g transform="translate(838.47 933.35) rotate(90) scale(.08 -.08)">
<use xlink:href="#l"/>
<use x="44.083984" xlink:href="#f"/>
<use x="105.607422" xlink:href="#k"/>
<use x="144.970703" xlink:href="#j"/>
<use x="242.382812" xlink:href="#h"/>
<use x="270.166016" xlink:href="#g"/>
<use x="333.544922" xlink:href="#d"/>
<use x="394.824219" xlink:href="#i"/>
</g>
</g>
<path d="m892.31 933.35v33.808q0 2.4 2.4 2.4h7.7425q2.4 0 2.4-2.4v-33.808q0-2.4-2.4-2.4h-7.7425q-2.4 0-2.4 2.4z" clip-path="url(#a)" fill="#fff" stroke="#fff"/>
<g clip-path="url(#a)">
<g transform="translate(896.38 933.35) rotate(90) scale(.08 -.08)">
<use xlink:href="#l"/>
<use x="44.083984" xlink:href="#f"/>
<use x="105.607422" xlink:href="#k"/>
<use x="144.970703" xlink:href="#j"/>
<use x="242.382812" xlink:href="#h"/>
<use x="270.166016" xlink:href="#g"/>
<use x="333.544922" xlink:href="#d"/>
<use x="394.824219" xlink:href="#i"/>
</g>
</g>
<path d="m952.37 933.35v33.808q0 2.4 2.4 2.4h7.7425q2.4 0 2.4-2.4v-33.808q0-2.4-2.4-2.4h-7.7425q-2.4 0-2.4 2.4z" clip-path="url(#a)" fill="#fff" stroke="#fff"/>
<g clip-path="url(#a)">
<g transform="translate(956.43 933.35) rotate(90) scale(.08 -.08)">
<use xlink:href="#l"/>
<use x="44.083984" xlink:href="#f"/>
<use x="105.607422" xlink:href="#k"/>
<use x="144.970703" xlink:href="#j"/>
<use x="242.382812" xlink:href="#h"/>
<use x="270.166016" xlink:href="#g"/>
<use x="333.544922" xlink:href="#d"/>
<use x="394.824219" xlink:href="#i"/>
</g>
</g>
<path d="m373.26 933.35v33.808q0 2.4 2.4 2.4h7.7425q2.4 0 2.4-2.4v-33.808q0-2.4-2.4-2.4h-7.7425q-2.4 0-2.4 2.4z" clip-path="url(#a)" fill="#fff" stroke="#fff"/>
<g clip-path="url(#a)">
<g transform="translate(377.32 933.35) rotate(90) scale(.08 -.08)">
<use xlink:href="#l"/>
<use x="44.083984" xlink:href="#f"/>
<use x="105.607422" xlink:href="#k"/>
<use x="144.970703" xlink:href="#j"/>
<use x="242.382812" xlink:href="#h"/>
<use x="270.166016" xlink:href="#g"/>
<use x="333.544922" xlink:href="#d"/>
<use x="394.824219" xlink:href="#i"/>
</g>
</g>
<path d="m409.72 933.35v33.808q0 2.4 2.4 2.4h7.7425q2.4 0 2.4-2.4v-33.808q0-2.4-2.4-2.4h-7.7425q-2.4 0-2.4 2.4z" clip-path="url(#a)" fill="#fff" stroke="#fff"/>
<g clip-path="url(#a)">
<g transform="translate(413.79 933.35) rotate(90) scale(.08 -.08)">
<use xlink:href="#l"/>
<use x="44.083984" xlink:href="#f"/>
<use x="105.607422" xlink:href="#k"/>
<use x="144.970703" xlink:href="#j"/>
<use x="242.382812" xlink:href="#h"/>
<use x="270.166016" xlink:href="#g"/>
<use x="333.544922" xlink:href="#d"/>
<use x="394.824219" xlink:href="#i"/>
</g>
</g>
<path d="m113.76 608.77 0.30487-5.0458q0.14475-2.3956-2.2509-2.5404l-7.7284-0.46696q-2.3956-0.14475-2.5404 2.2509l-0.30487 5.0458q-0.14475 2.3956 2.2509 2.5404l7.7284 0.46696q2.3956 0.14475 2.5404-2.2509z" clip-path="url(#a)" fill="#fff" stroke="#fff"/>
<g clip-path="url(#a)">
<g transform="translate(109.7 608.52) rotate(-86.542) scale(.08 -.08)">
<use xlink:href="#u"/>
</g>
</g>
<path d="m110.66 671.98 0.024584 5.5862q0.010562 2.4 2.4105 2.3894l7.7424-0.034073q2.4-0.010562 2.3894-2.4105l-0.024585-5.5862q-0.010562-2.4-2.4105-2.3894l-7.7424 0.034074q-2.4 0.010562-2.3894 2.4105z" clip-path="url(#a)" fill="#fff" stroke="#fff"/>
<g clip-path="url(#a)">
<g transform="translate(114.73 671.96) rotate(89.748) scale(.08 -.08)">
<use xlink:href="#q"/>
</g>
</g>
<path d="m116.99 534.79 0.54024 5.026q0.25649 2.3863 2.6427 2.1298l7.6982-0.82745q2.3863-0.25649 2.1298-2.6427l-0.54024-5.026q-0.25649-2.3863-2.6427-2.1298l-7.6982 0.82745q-2.3863 0.25649-2.1298 2.6427z" clip-path="url(#a)" fill="#fff" stroke="#fff"/>
<g clip-path="url(#a)">
<g transform="translate(121.03 534.36) rotate(83.865) scale(.08 -.08)">
<use xlink:href="#u"/>
</g>
</g>
<path d="m199.53 933.35v33.808q0 2.4 2.4 2.4h7.7425q2.4 0 2.4-2.4v-33.808q0-2.4-2.4-2.4h-7.7425q-2.4 0-2.4 2.4z" clip-path="url(#a)" fill="#fff" stroke="#fff"/>
<g clip-path="url(#a)">
<g transform="translate(203.59 933.35) rotate(90) scale(.08 -.08)">
<use xlink:href="#l"/>
<use x="44.083984" xlink:href="#f"/>
<use x="105.607422" xlink:href="#k"/>
<use x="144.970703" xlink:href="#j"/>
<use x="242.382812" xlink:href="#h"/>
<use x="270.166016" xlink:href="#g"/>
<use x="333.544922" xlink:href="#d"/>
<use x="394.824219" xlink:href="#i"/>
</g>
</g>
<path d="m248.3 817.11 0.95334-4.9643q0.45262-2.3569-1.9043-2.8096l-7.6036-1.4602q-2.3569-0.45262-2.8096 1.9043l-0.95334 4.9643q-0.45262 2.3569 1.9043 2.8096l7.6036 1.4602q2.3569 0.45262 2.8096-1.9043z" clip-path="url(#a)" fill="#fff" stroke="#fff"/>
<g clip-path="url(#a)">
<g transform="translate(244.31 816.35) rotate(-79.129) scale(.08 -.08)">
<use xlink:href="#u"/>
</g>
</g>
<path d="m261.74 816.26 0.028851-5.5587q0.012456-2.4-2.3875-2.4124l-7.7424-0.040185q-2.4-0.012456-2.4124 2.3875l-0.028851 5.5587q-0.012456 2.4 2.3875 2.4124l7.7424 0.040185q2.4 0.012456 2.4124-2.3875z" clip-path="url(#a)" fill="#fff" stroke="#fff"/>
<g clip-path="url(#a)">
<g transform="translate(257.68 816.24) rotate(-89.703) scale(.08 -.08)">
<use xlink:href="#aa"/>
</g>
</g>
<path d="m262.74 811.92 1.081 5.4807q0.4644 2.3546 2.819 1.8902l7.5962-1.4982q2.3546-0.4644 1.8902-2.819l-1.081-5.4807q-0.4644-2.3546-2.819-1.8902l-7.5962 1.4982q-2.3546 0.4644-1.8902 2.819z" clip-path="url(#a)" fill="#fff" stroke="#fff"/>
<g clip-path="url(#a)">
<g transform="translate(266.72 811.14) rotate(78.843) scale(.08 -.08)">
<use xlink:href="#q"/>
</g>
</g>
<path d="m223.12 933.35v33.808q0 2.4 2.4 2.4h7.7425q2.4 0 2.4-2.4v-33.808q0-2.4-2.4-2.4h-7.7425q-2.4 0-2.4 2.4z" clip-path="url(#a)" fill="#fff" stroke="#fff"/>
<g clip-path="url(#a)">
<g transform="translate(227.18 933.35) rotate(90) scale(.08 -.08)">
<use xlink:href="#l"/>
<use x="44.083984" xlink:href="#f"/>
<use x="105.607422" xlink:href="#k"/>
<use x="144.970703" xlink:href="#j"/>
<use x="242.382812" xlink:href="#h"/>
<use x="270.166016" xlink:href="#g"/>
<use x="333.544922" xlink:href="#d"/>
<use x="394.824219" xlink:href="#i"/>
</g>
</g>
<path d="m248.86 933.35v33.808q0 2.4 2.4 2.4h7.7425q2.4 0 2.4-2.4v-33.808q0-2.4-2.4-2.4h-7.7425q-2.4 0-2.4 2.4z" clip-path="url(#a)" fill="#fff" stroke="#fff"/>
<g clip-path="url(#a)">
<g transform="translate(252.92 933.35) rotate(90) scale(.08 -.08)">
<use xlink:href="#l"/>
<use x="44.083984" xlink:href="#f"/>
<use x="105.607422" xlink:href="#k"/>
<use x="144.970703" xlink:href="#j"/>
<use x="242.382812" xlink:href="#h"/>
<use x="270.166016" xlink:href="#g"/>
<use x="333.544922" xlink:href="#d"/>
<use x="394.824219" xlink:href="#i"/>
</g>
</g>
<path d="m276.74 933.35v33.808q0 2.4 2.4 2.4h7.7425q2.4 0 2.4-2.4v-33.808q0-2.4-2.4-2.4h-7.7425q-2.4 0-2.4 2.4z" clip-path="url(#a)" fill="#fff" stroke="#fff"/>
<g clip-path="url(#a)">
<g transform="translate(280.81 933.35) rotate(90) scale(.08 -.08)">
<use xlink:href="#l"/>
<use x="44.083984" xlink:href="#f"/>
<use x="105.607422" xlink:href="#k"/>
<use x="144.970703" xlink:href="#j"/>
<use x="242.382812" xlink:href="#h"/>
<use x="270.166016" xlink:href="#g"/>
<use x="333.544922" xlink:href="#d"/>
<use x="394.824219" xlink:href="#i"/>
</g>
</g>
<path d="m101.83 816.3 0.26202-5.0482q0.1244-2.3968-2.2724-2.5212l-7.7321-0.40132q-2.3968-0.1244-2.5212 2.2724l-0.26202 5.0482q-0.1244 2.3968 2.2724 2.5212l7.7321 0.40132q2.3968 0.1244 2.5212-2.2724z" clip-path="url(#a)" fill="#fff" stroke="#fff"/>
<g clip-path="url(#a)">
<g transform="translate(97.769 816.09) rotate(-87.029) scale(.08 -.08)">
<use xlink:href="#u"/>
</g>
</g>
<path d="m105.17 816.27 0.028993-5.5862q0.012457-2.4-2.3875-2.4124l-7.7424-0.040185q-2.4-0.012456-2.4124 2.3875l-0.028993 5.5862q-0.012457 2.4 2.3875 2.4124l7.7424 0.040185q2.4 0.012456 2.4124-2.3875z" clip-path="url(#a)" fill="#fff" stroke="#fff"/>
<g clip-path="url(#a)">
<g transform="translate(101.11 816.25) rotate(-89.703) scale(.08 -.08)">
<use xlink:href="#q"/>
</g>
</g>
<path d="m96.783 811.03 0.31685 5.5497q0.1368 2.3961 2.5329 2.2593l7.7299-0.44132q2.3961-0.1368 2.2593-2.5329l-0.31685-5.5497q-0.1368-2.3961-2.5329-2.2593l-7.7299 0.44132q-2.3961 0.1368-2.2593 2.5329z" clip-path="url(#a)" fill="#fff" stroke="#fff"/>
<g clip-path="url(#a)">
<g transform="translate(100.84 810.8) rotate(86.732) scale(.08 -.08)">
<use xlink:href="#aa"/>
</g>
</g>
<path d="m111.59 933.35v33.808q0 2.4 2.4 2.4h7.7425q2.4 0 2.4-2.4v-33.808q0-2.4-2.4-2.4h-7.7425q-2.4 0-2.4 2.4z" clip-path="url(#a)" fill="#fff" stroke="#fff"/>
<g clip-path="url(#a)">
<g transform="translate(115.65 933.35) rotate(90) scale(.08 -.08)">
<use xlink:href="#l"/>
<use x="44.083984" xlink:href="#f"/>
<use x="105.607422" xlink:href="#k"/>
<use x="144.970703" xlink:href="#j"/>
<use x="242.382812" xlink:href="#h"/>
<use x="270.166016" xlink:href="#g"/>
<use x="333.544922" xlink:href="#d"/>
<use x="394.824219" xlink:href="#i"/>
</g>
</g>
<path d="m150.82 675.04 1.9685 5.1062q0.86331 2.2394 3.1027 1.376l7.2242-2.7851q2.2394-0.86331 1.376-3.1027l-1.9685-5.1062q-0.86331-2.2394-3.1027-1.376l-7.2242 2.7851q-2.2394 0.86331-1.376 3.1027z" clip-path="url(#a)" fill="#fff" stroke="#fff"/>
<g clip-path="url(#a)">
<g transform="translate(154.61 673.58) rotate(68.918) scale(.08 -.08)">
<use xlink:href="#s"/>
</g>
</g>
<path d="m137.12 746.63 0.004162-4.8237q0.002071-2.4-2.3979-2.4021l-7.7425-0.00668q-2.4-0.002071-2.4021 2.3979l-0.004162 4.8237q-0.002071 2.4 2.3979 2.4021l7.7425 0.00668q2.4 0.002071 2.4021-2.3979z" clip-path="url(#a)" fill="#fff" stroke="#fff"/>
<g clip-path="url(#a)">
<g transform="translate(133.05 746.63) rotate(-89.951) scale(.08 -.08)">
<use xlink:href="#y"/>
</g>
</g>
<path d="m140.48 673.78 1.4137 5.9956q0.55078 2.3359 2.8867 1.7852l7.5359-1.7768q2.3359-0.55078 1.7852-2.8867l-1.4137-5.9956q-0.55078-2.3359-2.8867-1.7852l-7.5359 1.7768q-2.3359 0.55078-1.7852 2.8867z" clip-path="url(#a)" fill="#fff" stroke="#fff"/>
<g clip-path="url(#a)">
<g transform="translate(144.44 672.85) rotate(76.733) scale(.08 -.08)">
<use xlink:href="#ae"/>
</g>
</g>
<path d="m120.67 747.66 0.63776-5.4352q0.27969-2.3836-2.104-2.6633l-7.6897-0.9023q-2.3836-0.27969-2.6633 2.104l-0.63776 5.4352q-0.27969 2.3836 2.104 2.6633l7.6897 0.9023q2.3836 0.27969 2.6633-2.104z" clip-path="url(#a)" fill="#fff" stroke="#fff"/>
<g clip-path="url(#a)">
<g transform="translate(116.63 747.19) rotate(-83.308) scale(.08 -.08)">
<use xlink:href="#s"/>
</g>
</g>
<path d="m124.46 933.35v33.808q0 2.4 2.4 2.4h7.7425q2.4 0 2.4-2.4v-33.808q0-2.4-2.4-2.4h-7.7425q-2.4 0-2.4 2.4z" clip-path="url(#a)" fill="#fff" stroke="#fff"/>
<g clip-path="url(#a)">
<g transform="translate(128.52 933.35) rotate(90) scale(.08 -.08)">
<use xlink:href="#l"/>
<use x="44.083984" xlink:href="#f"/>
<use x="105.607422" xlink:href="#k"/>
<use x="144.970703" xlink:href="#j"/>
<use x="242.382812" xlink:href="#h"/>
<use x="270.166016" xlink:href="#g"/>
<use x="333.544922" xlink:href="#d"/>
<use x="394.824219" xlink:href="#i"/>
</g>
</g>
<path d="m160.54 817.01 0.71529-5.5125q0.30883-2.38-2.0712-2.6889l-7.6781-0.99629q-2.38-0.30883-2.6889 2.0712l-0.71529 5.5125q-0.30883 2.38 2.0712 2.6889l7.6781 0.99629q2.38 0.30883 2.6889-2.0712z" clip-path="url(#a)" fill="#fff" stroke="#fff"/>
<g clip-path="url(#a)">
<g transform="translate(156.51 816.49) rotate(-82.607) scale(.08 -.08)">
<use xlink:href="#aa"/>
</g>
</g>
<path d="m169.52 816.01 0.026236-5.0549q0.012457-2.4-2.3875-2.4124l-7.7424-0.040185q-2.4-0.012457-2.4124 2.3875l-0.026236 5.0549q-0.012457 2.4 2.3875 2.4124l7.7424 0.040185q2.4 0.012457 2.4124-2.3875z" clip-path="url(#a)" fill="#fff" stroke="#fff"/>
<g clip-path="url(#a)">
<g transform="translate(165.45 815.99) rotate(-89.703) scale(.08 -.08)">
<use xlink:href="#u"/>
</g>
</g>
<path d="m166.32 811.52 0.74707 5.5361q0.32096 2.3784 2.6994 2.0575l7.673-1.0354q2.3784-0.32096 2.0575-2.6994l-0.74707-5.5361q-0.32096-2.3784-2.6994-2.0575l-7.673 1.0354q-2.3784 0.32096-2.0575 2.6994z" clip-path="url(#a)" fill="#fff" stroke="#fff"/>
<g clip-path="url(#a)">
<g transform="translate(170.35 810.98) rotate(82.315) scale(.08 -.08)">
<use xlink:href="#q"/>
</g>
</g>
<path d="m139.47 933.35v33.808q0 2.4 2.4 2.4h7.7425q2.4 0 2.4-2.4v-33.808q0-2.4-2.4-2.4h-7.7425q-2.4 0-2.4 2.4z" clip-path="url(#a)" fill="#fff" stroke="#fff"/>
<g clip-path="url(#a)">
<g transform="translate(143.53 933.35) rotate(90) scale(.08 -.08)">
<use xlink:href="#l"/>
<use x="44.083984" xlink:href="#f"/>
<use x="105.607422" xlink:href="#k"/>
<use x="144.970703" xlink:href="#j"/>
<use x="242.382812" xlink:href="#h"/>
<use x="270.166016" xlink:href="#g"/>
<use x="333.544922" xlink:href="#d"/>
<use x="394.824219" xlink:href="#i"/>
</g>
</g>
<path d="m156.63 933.35v33.808q0 2.4 2.4 2.4h7.7425q2.4 0 2.4-2.4v-33.808q0-2.4-2.4-2.4h-7.7425q-2.4 0-2.4 2.4z" clip-path="url(#a)" fill="#fff" stroke="#fff"/>
<g clip-path="url(#a)">
<g transform="translate(160.69 933.35) rotate(90) scale(.08 -.08)">
<use xlink:href="#l"/>
<use x="44.083984" xlink:href="#f"/>
<use x="105.607422" xlink:href="#k"/>
<use x="144.970703" xlink:href="#j"/>
<use x="242.382812" xlink:href="#h"/>
<use x="270.166016" xlink:href="#g"/>
<use x="333.544922" xlink:href="#d"/>
<use x="394.824219" xlink:href="#i"/>
</g>
</g>
<path d="m175.93 933.35v33.808q0 2.4 2.4 2.4h7.7425q2.4 0 2.4-2.4v-33.808q0-2.4-2.4-2.4h-7.7425q-2.4 0-2.4 2.4z" clip-path="url(#a)" fill="#fff" stroke="#fff"/>
<g clip-path="url(#a)">
<g transform="translate(180 933.35) rotate(90) scale(.08 -.08)">
<use xlink:href="#l"/>
<use x="44.083984" xlink:href="#f"/>
<use x="105.607422" xlink:href="#k"/>
<use x="144.970703" xlink:href="#j"/>
<use x="242.382812" xlink:href="#h"/>
<use x="270.166016" xlink:href="#g"/>
<use x="333.544922" xlink:href="#d"/>
<use x="394.824219" xlink:href="#i"/>
</g>
</g>
<path d="m85.85 933.35v33.808q0 2.4 2.4 2.4h7.7425q2.4 0 2.4-2.4v-33.808q0-2.4-2.4-2.4h-7.7425q-2.4 0-2.4 2.4z" clip-path="url(#a)" fill="#fff" stroke="#fff"/>
<g clip-path="url(#a)">
<g transform="translate(89.914 933.35) rotate(90) scale(.08 -.08)">
<use xlink:href="#l"/>
<use x="44.083984" xlink:href="#f"/>
<use x="105.607422" xlink:href="#k"/>
<use x="144.970703" xlink:href="#j"/>
<use x="242.382812" xlink:href="#h"/>
<use x="270.166016" xlink:href="#g"/>
<use x="333.544922" xlink:href="#d"/>
<use x="394.824219" xlink:href="#i"/>
</g>
</g>
<path d="m92.285 933.35v33.808q0 2.4 2.4 2.4h7.7425q2.4 0 2.4-2.4v-33.808q0-2.4-2.4-2.4h-7.7425q-2.4 0-2.4 2.4z" clip-path="url(#a)" fill="#fff" stroke="#fff"/>
<g clip-path="url(#a)">
<g transform="translate(96.348 933.35) rotate(90) scale(.08 -.08)">
<use xlink:href="#l"/>
<use x="44.083984" xlink:href="#f"/>
<use x="105.607422" xlink:href="#k"/>
<use x="144.970703" xlink:href="#j"/>
<use x="242.382812" xlink:href="#h"/>
<use x="270.166016" xlink:href="#g"/>
<use x="333.544922" xlink:href="#d"/>
<use x="394.824219" xlink:href="#i"/>
</g>
</g>
<path d="m100.86 933.35v33.808q0 2.4 2.4 2.4h7.7425q2.4 0 2.4-2.4v-33.808q0-2.4-2.4-2.4h-7.7425q-2.4 0-2.4 2.4z" clip-path="url(#a)" fill="#fff" stroke="#fff"/>
<g clip-path="url(#a)">
<g transform="translate(104.93 933.35) rotate(90) scale(.08 -.08)">
<use xlink:href="#l"/>
<use x="44.083984" xlink:href="#f"/>
<use x="105.607422" xlink:href="#k"/>
<use x="144.970703" xlink:href="#j"/>
<use x="242.382812" xlink:href="#h"/>
<use x="270.166016" xlink:href="#g"/>
<use x="333.544922" xlink:href="#d"/>
<use x="394.824219" xlink:href="#i"/>
</g>
</g>
<path d="m279.26 195.74 5.207-8.666q1.2361-2.0572-0.82112-3.2933l-6.6366-3.9877q-2.0572-1.2361-3.2933 0.82112l-5.207 8.666q-1.2361 2.0572 0.82112 3.2933l6.6366 3.9877q2.0572 1.2361 3.2933-0.82112z" clip-path="url(#a)" fill="#fff" stroke="#fff"/>
<g clip-path="url(#a)">
<g transform="translate(275.78 193.65) rotate(-59) scale(.08 -.08)">
<use xlink:href="#ad"/>
<use x="57.962891" xlink:href="#s"/>
</g>
</g>
<path d="m359 470.53 0.18272-10.015q0.043782-2.3996-2.3558-2.4434l-7.7412-0.14124q-2.3996-0.043782-2.4434 2.3558l-0.18272 10.015q-0.043782 2.3996 2.3558 2.4434l7.7412 0.14124q2.3996 0.043782 2.4434-2.3558z" clip-path="url(#a)" fill="#fff" stroke="#fff"/>
<g clip-path="url(#a)">
<g transform="translate(354.94 470.45) rotate(-88.955) scale(.08 -.08)">
<use xlink:href="#ad"/>
<use x="55.712891" xlink:href="#aa"/>
</g>
</g>
<path d="m444.14 120.31 8.0351 6.1359q1.9074 1.4566 3.364-0.45085l4.699-6.1535q1.4566-1.9074-0.45085-3.364l-8.0351-6.1359q-1.9074-1.4566-3.364 0.45085l-4.699 6.1535q-1.4566 1.9074 0.45085 3.364z" clip-path="url(#a)" fill="#fff" stroke="#fff"/>
<g clip-path="url(#a)">
<g transform="translate(446.61 117.08) rotate(37.367) scale(.08 -.08)">
<use xlink:href="#ad"/>
<use x="57.962891" xlink:href="#s"/>
</g>
</g>
<path d="m306.77 933.35v33.808q0 2.4 2.4 2.4h7.7425q2.4 0 2.4-2.4v-33.808q0-2.4-2.4-2.4h-7.7425q-2.4 0-2.4 2.4z" clip-path="url(#a)" fill="#fff" stroke="#fff"/>
<g clip-path="url(#a)">
<g transform="translate(310.83 933.35) rotate(90) scale(.08 -.08)">
<use xlink:href="#l"/>
<use x="44.083984" xlink:href="#f"/>
<use x="105.607422" xlink:href="#k"/>
<use x="144.970703" xlink:href="#j"/>
<use x="242.382812" xlink:href="#h"/>
<use x="270.166016" xlink:href="#g"/>
<use x="333.544922" xlink:href="#d"/>
<use x="394.824219" xlink:href="#i"/>
</g>
</g>
<path d="m1014.6 933.35v33.808q0 2.4 2.4 2.4h7.7425q2.4 0 2.4-2.4v-33.808q0-2.4-2.4-2.4h-7.7425q-2.4 0-2.4 2.4z" clip-path="url(#a)" fill="#fff" stroke="#fff"/>
<g clip-path="url(#a)">
<g transform="translate(1018.6 933.35) rotate(90) scale(.08 -.08)">
<use xlink:href="#l"/>
<use x="44.083984" xlink:href="#f"/>
<use x="105.607422" xlink:href="#k"/>
<use x="144.970703" xlink:href="#j"/>
<use x="242.382812" xlink:href="#h"/>
<use x="270.166016" xlink:href="#g"/>
<use x="333.544922" xlink:href="#d"/>
<use x="394.824219" xlink:href="#i"/>
</g>
</g>
<path d="m1928.3 933.35v33.808q0 2.4 2.4 2.4h7.7425q2.4 0 2.4-2.4v-33.808q0-2.4-2.4-2.4h-7.7425q-2.4 0-2.4 2.4z" clip-path="url(#a)" fill="#fff" stroke="#fff"/>
<g clip-path="url(#a)">
<g transform="translate(1932.3 933.35) rotate(90) scale(.08 -.08)">
<use xlink:href="#l"/>
<use x="44.083984" xlink:href="#f"/>
<use x="105.607422" xlink:href="#k"/>
<use x="144.970703" xlink:href="#j"/>
<use x="242.382812" xlink:href="#h"/>
<use x="270.166016" xlink:href="#g"/>
<use x="333.544922" xlink:href="#d"/>
<use x="394.824219" xlink:href="#i"/>
</g>
</g>
<defs>
<path id="b" d="m0 8.6603c2.2967 0 4.4997-0.9125 6.1237-2.5365 1.624-1.624 2.5365-3.827 2.5365-6.1237s-0.9125-4.4997-2.5365-6.1237c-1.624-1.624-3.827-2.5365-6.1237-2.5365s-4.4997 0.9125-6.1237 2.5365c-1.624 1.624-2.5365 3.827-2.5365 6.1237s0.9125 4.4997 2.5365 6.1237c1.624 1.624 3.827 2.5365 6.1237 2.5365z"/>
</defs>
<g clip-path="url(#a)">
<use x="92.121212" y="1018.181818" fill="#ffffff" stroke="#ffffff" xlink:href="#b"/>
<use x="98.555755" y="1018.181818" fill="#ffffff" stroke="#ffffff" xlink:href="#b"/>
<use x="107.135147" y="1018.181818" fill="#ffffff" stroke="#ffffff" xlink:href="#b"/>
<use x="117.859385" y="1018.181818" fill="#ffffff" stroke="#ffffff" xlink:href="#b"/>
<use x="130.728472" y="1018.181818" fill="#ffffff" stroke="#ffffff" xlink:href="#b"/>
<use x="145.742407" y="1018.181818" fill="#ffffff" stroke="#ffffff" xlink:href="#b"/>
<use x="162.901189" y="1018.181818" fill="#ffffff" stroke="#ffffff" xlink:href="#b"/>
<use x="182.204819" y="1018.181818" fill="#ffffff" stroke="#ffffff" xlink:href="#b"/>
<use x="205.798144" y="1018.181818" fill="#ffffff" stroke="#ffffff" xlink:href="#b"/>
<use x="229.39147" y="1018.181818" fill="#ffffff" stroke="#ffffff" xlink:href="#b"/>
<use x="255.129643" y="1018.181818" fill="#ffffff" stroke="#ffffff" xlink:href="#b"/>
<use x="283.012664" y="1018.181818" fill="#ffffff" stroke="#ffffff" xlink:href="#b"/>
<use x="313.040533" y="1018.181818" fill="#ffffff" stroke="#ffffff" xlink:href="#b"/>
<use x="345.21325" y="1018.181818" fill="#ffffff" stroke="#ffffff" xlink:href="#b"/>
<use x="379.530815" y="1018.181818" fill="#ffffff" stroke="#ffffff" xlink:href="#b"/>
<use x="415.993227" y="1018.181818" fill="#ffffff" stroke="#ffffff" xlink:href="#b"/>
<use x="454.600487" y="1018.181818" fill="#ffffff" stroke="#ffffff" xlink:href="#b"/>
<use x="495.352595" y="1018.181818" fill="#ffffff" stroke="#ffffff" xlink:href="#b"/>
<use x="538.24955" y="1018.181818" fill="#ffffff" stroke="#ffffff" xlink:href="#b"/>
<use x="583.291354" y="1018.181818" fill="#ffffff" stroke="#ffffff" xlink:href="#b"/>
<use x="630.478005" y="1018.181818" fill="#ffffff" stroke="#ffffff" xlink:href="#b"/>
<use x="679.809504" y="1018.181818" fill="#ffffff" stroke="#ffffff" xlink:href="#b"/>
<use x="731.28585" y="1018.181818" fill="#ffffff" stroke="#ffffff" xlink:href="#b"/>
<use x="784.907045" y="1018.181818" fill="#ffffff" stroke="#ffffff" xlink:href="#b"/>
<use x="840.673087" y="1018.181818" fill="#ffffff" stroke="#ffffff" xlink:href="#b"/>
<use x="898.583977" y="1018.181818" fill="#ffffff" stroke="#ffffff" xlink:href="#b"/>
<use x="958.639715" y="1018.181818" fill="#ffffff" stroke="#ffffff" xlink:href="#b"/>
<use x="1020.840301" y="1018.181818" fill="#ffffff" stroke="#ffffff" xlink:href="#b"/>
<use x="1085.185734" y="1018.181818" fill="#ffffff" stroke="#ffffff" xlink:href="#b"/>
<use x="1151.676015" y="1018.181818" fill="#ffffff" stroke="#ffffff" xlink:href="#b"/>
<use x="1220.311144" y="1018.181818" fill="#ffffff" stroke="#ffffff" xlink:href="#b"/>
<use x="1291.091121" y="1018.181818" fill="#ffffff" stroke="#ffffff" xlink:href="#b"/>
<use x="1364.015945" y="1018.181818" fill="#ffffff" stroke="#ffffff" xlink:href="#b"/>
<use x="1439.085618" y="1018.181818" fill="#ffffff" stroke="#ffffff" xlink:href="#b"/>
<use x="1516.300138" y="1018.181818" fill="#ffffff" stroke="#ffffff" xlink:href="#b"/>
<use x="1595.659505" y="1018.181818" fill="#ffffff" stroke="#ffffff" xlink:href="#b"/>
<use x="1677.163721" y="1018.181818" fill="#ffffff" stroke="#ffffff" xlink:href="#b"/>
<use x="1760.812784" y="1018.181818" fill="#ffffff" stroke="#ffffff" xlink:href="#b"/>
<use x="1846.606696" y="1018.181818" fill="#ffffff" stroke="#ffffff" xlink:href="#b"/>
<use x="1934.545455" y="1018.181818" fill="#ffffff" stroke="#ffffff" xlink:href="#b"/>
<use x="184.349667" y="744.574749" fill="#ffffff" stroke="#ffffff" xlink:href="#b"/>
<use x="575.082232" y="48.484848" fill="#ffffff" stroke="#ffffff" xlink:href="#b"/>
<use x="192.558343" y="327.867753" fill="#ffffff" stroke="#ffffff" xlink:href="#b"/>
<use x="345.21325" y="882.323255" fill="#ffffff" stroke="#ffffff" xlink:href="#b"/>
<use x="543.509534" y="188.293252" fill="#ffffff" stroke="#ffffff" xlink:href="#b"/>
<use x="1035.331428" y="327.867753" fill="#ffffff" stroke="#ffffff" xlink:href="#b"/>
<use x="1085.185734" y="882.323255" fill="#ffffff" stroke="#ffffff" xlink:href="#b"/>
<use x="1185.99358" y="882.323255" fill="#ffffff" stroke="#ffffff" xlink:href="#b"/>
<use x="1454.153173" y="467.161505" fill="#ffffff" stroke="#ffffff" xlink:href="#b"/>
<use x="1291.091121" y="882.323255" fill="#ffffff" stroke="#ffffff" xlink:href="#b"/>
<use x="1364.015945" y="882.323255" fill="#ffffff" stroke="#ffffff" xlink:href="#b"/>
<use x="1439.085618" y="882.323255" fill="#ffffff" stroke="#ffffff" xlink:href="#b"/>
<use x="1722.420009" y="606.103765" fill="#ffffff" stroke="#ffffff" xlink:href="#b"/>
<use x="1516.300138" y="882.323255" fill="#ffffff" stroke="#ffffff" xlink:href="#b"/>
<use x="1595.659505" y="882.323255" fill="#ffffff" stroke="#ffffff" xlink:href="#b"/>
<use x="1718.988253" y="744.574749" fill="#ffffff" stroke="#ffffff" xlink:href="#b"/>
<use x="1846.606696" y="882.323255" fill="#ffffff" stroke="#ffffff" xlink:href="#b"/>
<use x="1677.163721" y="882.323255" fill="#ffffff" stroke="#ffffff" xlink:href="#b"/>
<use x="1760.812784" y="882.323255" fill="#ffffff" stroke="#ffffff" xlink:href="#b"/>
<use x="397.762021" y="744.574749" fill="#ffffff" stroke="#ffffff" xlink:href="#b"/>
<use x="454.600487" y="882.323255" fill="#ffffff" stroke="#ffffff" xlink:href="#b"/>
<use x="495.352595" y="882.323255" fill="#ffffff" stroke="#ffffff" xlink:href="#b"/>
<use x="538.24955" y="882.323255" fill="#ffffff" stroke="#ffffff" xlink:href="#b"/>
<use x="583.291354" y="882.323255" fill="#ffffff" stroke="#ffffff" xlink:href="#b"/>
<use x="655.143754" y="882.323255" fill="#ffffff" stroke="#ffffff" xlink:href="#b"/>
<use x="680.166978" y="327.867753" fill="#ffffff" stroke="#ffffff" xlink:href="#b"/>
<use x="731.28585" y="882.323255" fill="#ffffff" stroke="#ffffff" xlink:href="#b"/>
<use x="629.048106" y="467.161505" fill="#ffffff" stroke="#ffffff" xlink:href="#b"/>
<use x="842.102986" y="606.103765" fill="#ffffff" stroke="#ffffff" xlink:href="#b"/>
<use x="784.907045" y="882.323255" fill="#ffffff" stroke="#ffffff" xlink:href="#b"/>
<use x="899.298926" y="744.574749" fill="#ffffff" stroke="#ffffff" xlink:href="#b"/>
<use x="840.673087" y="882.323255" fill="#ffffff" stroke="#ffffff" xlink:href="#b"/>
<use x="898.583977" y="882.323255" fill="#ffffff" stroke="#ffffff" xlink:href="#b"/>
<use x="958.639715" y="882.323255" fill="#ffffff" stroke="#ffffff" xlink:href="#b"/>
<use x="379.530815" y="882.323255" fill="#ffffff" stroke="#ffffff" xlink:href="#b"/>
<use x="415.993227" y="882.323255" fill="#ffffff" stroke="#ffffff" xlink:href="#b"/>
<use x="116.032293" y="467.161505" fill="#ffffff" stroke="#ffffff" xlink:href="#b"/>
<use x="205.798144" y="882.323255" fill="#ffffff" stroke="#ffffff" xlink:href="#b"/>
<use x="255.844593" y="744.574749" fill="#ffffff" stroke="#ffffff" xlink:href="#b"/>
<use x="229.39147" y="882.323255" fill="#ffffff" stroke="#ffffff" xlink:href="#b"/>
<use x="255.129643" y="882.323255" fill="#ffffff" stroke="#ffffff" xlink:href="#b"/>
<use x="283.012664" y="882.323255" fill="#ffffff" stroke="#ffffff" xlink:href="#b"/>
<use x="99.270705" y="744.574749" fill="#ffffff" stroke="#ffffff" xlink:href="#b"/>
<use x="117.859385" y="882.323255" fill="#ffffff" stroke="#ffffff" xlink:href="#b"/>
<use x="130.966789" y="606.103765" fill="#ffffff" stroke="#ffffff" xlink:href="#b"/>
<use x="130.728472" y="882.323255" fill="#ffffff" stroke="#ffffff" xlink:href="#b"/>
<use x="163.616138" y="744.574749" fill="#ffffff" stroke="#ffffff" xlink:href="#b"/>
<use x="145.742407" y="882.323255" fill="#ffffff" stroke="#ffffff" xlink:href="#b"/>
<use x="162.901189" y="882.323255" fill="#ffffff" stroke="#ffffff" xlink:href="#b"/>
<use x="182.204819" y="882.323255" fill="#ffffff" stroke="#ffffff" xlink:href="#b"/>
<use x="92.121212" y="882.323255" fill="#ffffff" stroke="#ffffff" xlink:href="#b"/>
<use x="98.555755" y="882.323255" fill="#ffffff" stroke="#ffffff" xlink:href="#b"/>
<use x="107.135147" y="882.323255" fill="#ffffff" stroke="#ffffff" xlink:href="#b"/>
<use x="360.427042" y="48.484848" fill="#808080" stroke="#808080" xlink:href="#b"/>
<use x="313.040533" y="882.323255" fill="#ffffff" stroke="#ffffff" xlink:href="#b"/>
<use x="1020.840301" y="882.323255" fill="#ffffff" stroke="#ffffff" xlink:href="#b"/>
<use x="1934.545455" y="882.323255" fill="#ffffff" stroke="#ffffff" xlink:href="#b"/>
</g>
<g clip-path="url(#a)">
<defs>
<path id="z" d="m54.891 33.016v-33.016h-8.9844v32.719q0 7.7656-3.0312 11.609-3.0312 3.8594-9.0781 3.8594-7.2812 0-11.484-4.6406-4.2031-4.625-4.2031-12.641v-30.906h-9.0312v75.984h9.0312v-29.797q3.2344 4.9375 7.5938 7.375 4.375 2.4375 10.094 2.4375 9.4219 0 14.25-5.8281 4.8438-5.8281 4.8438-17.156z"/>
</defs>
<g transform="translate(82.822 1020.9) scale(.1 -.1)">
<use xlink:href="#l"/>
<use x="61.083984" xlink:href="#z"/>
<use x="124.462891" xlink:href="#f"/>
</g>
</g>
<g clip-path="url(#a)">
<defs>
<path id="r" d="m30.609 48.391q-7.2188 0-11.422-5.6406t-4.2031-15.453 4.1719-15.453q4.1875-5.6406 11.453-5.6406 7.1875 0 11.375 5.6562 4.2031 5.6719 4.2031 15.438 0 9.7188-4.2031 15.406-4.1875 5.6875-11.375 5.6875zm0 7.6094q11.719 0 18.406-7.625 6.7031-7.6094 6.7031-21.078 0-13.422-6.7031-21.078-6.6875-7.6406-18.406-7.6406-11.766 0-18.438 7.6406-6.6562 7.6562-6.6562 21.078 0 13.469 6.6562 21.078 6.6719 7.625 18.438 7.625z"/>
<path id="ai" d="m8.5 21.578v33.109h8.9844v-32.766q0-7.7656 3.0156-11.656 3.0312-3.875 9.0938-3.875 7.2656 0 11.484 4.6406 4.2344 4.6406 4.2344 12.656v31h8.9844v-54.688h-8.9844v8.4062q-3.2656-4.9844-7.5938-7.4062-4.3125-2.4219-10.031-2.4219-9.4219 0-14.312 5.8594-4.875 5.8594-4.875 17.141z"/>
<path id="t" d="m18.312 70.219v-15.531h18.5v-6.9844h-18.5v-29.688q0-6.6875 1.8281-8.5938t7.4531-1.9062h9.2188v-7.5156h-9.2188q-10.406 0-14.359 3.875-3.9531 3.8906-3.9531 14.141v29.688h-6.5938v6.9844h6.5938v15.531z"/>
<path id="v" d="m44.281 53.078v-8.5q-3.7969 1.9531-7.9062 2.9219-4.0938 0.98438-8.5 0.98438-6.6875 0-10.031-2.0469t-3.3438-6.1562q0-3.125 2.3906-4.9062t9.625-3.3906l3.0781-0.6875q9.5625-2.0469 13.594-5.7812t4.0312-10.422q0-7.625-6.0312-12.078-6.0312-4.4375-16.578-4.4375-4.3906 0-9.1562 0.85938t-10.031 2.5625v9.2812q4.9844-2.5938 9.8125-3.8906 4.8281-1.2812 9.5781-1.2812 6.3438 0 9.75 2.1719 3.4219 2.1719 3.4219 6.125 0 3.6562-2.4688 5.6094-2.4531 1.9531-10.812 3.7656l-3.125 0.73438q-8.3438 1.75-12.062 5.3906-3.7031 3.6406-3.7031 9.9844 0 7.7188 5.4688 11.906 5.4688 4.2031 15.531 4.2031 4.9688 0 9.3594-0.73438 4.4062-0.71875 8.1094-2.1875z"/>
</defs>
<g transform="translate(72.102 1020.9) scale(.1 -.1)">
<use xlink:href="#j"/>
<use x="97.412109" xlink:href="#r"/>
<use x="158.59375" xlink:href="#ai"/>
<use x="221.972656" xlink:href="#g"/>
<use x="285.351562" xlink:href="#t"/>
<use x="324.560547" xlink:href="#d"/>
<use x="385.839844" xlink:href="#h"/>
<use x="413.623047" xlink:href="#g"/>
<use x="477.001953" xlink:href="#v"/>
</g>
</g>
<g clip-path="url(#a)">
<defs>
<path id="aq" d="m37.109 75.984v-7.4844h-8.5938q-4.8281 0-6.7188-1.9531-1.875-1.9531-1.875-7.0312v-4.8281h14.797v-6.9844h-14.797v-47.703h-9.0312v47.703h-8.5938v6.9844h8.5938v3.8125q0 9.125 4.25 13.297 4.25 4.1875 13.469 4.1875z"/>
</defs>
<g transform="translate(102.32 1020.9) scale(.1 -.1)">
<use xlink:href="#r"/>
<use x="61.181641" xlink:href="#aq"/>
</g>
</g>
<g clip-path="url(#a)">
<defs>
<path id="ap" d="m45.406 27.984q0 9.7656-4.0312 15.125-4.0156 5.375-11.297 5.375-7.2188 0-11.25-5.375-4.0312-5.3594-4.0312-15.125 0-9.7188 4.0312-15.094t11.25-5.375q7.2812 0 11.297 5.375 4.0312 5.375 4.0312 15.094zm8.9844-21.203q0-13.953-6.2031-20.766-6.1875-6.8125-18.984-6.8125-4.7344 0-8.9375 0.70312t-8.1562 2.1719v8.7344q3.9531-2.1406 7.8125-3.1562 3.8594-1.0312 7.8594-1.0312 8.8438 0 13.234 4.6094t4.3906 13.938v4.4531q-2.7812-4.8438-7.125-7.2344t-10.406-2.3906q-10.047 0-16.203 7.6562-6.1562 7.6719-6.1562 20.328 0 12.688 6.1562 20.344 6.1562 7.6719 16.203 7.6719 6.0625 0 10.406-2.3906t7.125-7.2188v8.2969h8.9844z"/>
</defs>
<g transform="translate(90.804 1020.9) scale(.1 -.1)">
<use xlink:href="#d"/>
<use x="61.279297" xlink:href="#k"/>
<use x="100.642578" xlink:href="#ap"/>
<use x="164.119141" xlink:href="#ai"/>
<use x="227.498047" xlink:href="#j"/>
<use x="324.910156" xlink:href="#f"/>
<use x="386.433594" xlink:href="#g"/>
<use x="449.8125" xlink:href="#t"/>
<use x="489.021484" xlink:href="#v"/>
</g>
</g>
<g clip-path="url(#a)">
<defs>
<path id="w" d="m45.406 46.391v29.594h8.9844v-75.984h-8.9844v8.2031q-2.8281-4.875-7.1562-7.25-4.3125-2.375-10.375-2.375-9.9062 0-16.141 7.9062-6.2188 7.9219-6.2188 20.812t6.2188 20.797q6.2344 7.9062 16.141 7.9062 6.0625 0 10.375-2.375 4.3281-2.3594 7.1562-7.2344zm-30.609-19.094q0-9.9062 4.0781-15.547t11.203-5.6406 11.219 5.6406q4.1094 5.6406 4.1094 15.547t-4.1094 15.547q-4.0938 5.6406-11.219 5.6406t-11.203-5.6406-4.0781-15.547z"/>
</defs>
<g transform="translate(108.27 1020.9) scale(.1 -.1)">
<use xlink:href="#d"/>
<use x="61.279297" xlink:href="#j"/>
<use x="158.691406" xlink:href="#d"/>
<use x="219.970703" xlink:href="#v"/>
<use x="272.070312" xlink:href="#v"/>
<use x="324.169922" xlink:href="#f"/>
<use x="385.693359" xlink:href="#w"/>
</g>
</g>
<g clip-path="url(#a)">
<defs>
<path id="av" d="m2.9844 54.688h9.5156l17.094-45.891 17.094 45.891h9.5156l-20.516-54.688h-12.203z"/>
</defs>
<g transform="translate(134.59 1020.9) scale(.1 -.1)">
<use xlink:href="#r"/>
<use x="61.181641" xlink:href="#av"/>
<use x="120.361328" xlink:href="#f"/>
<use x="181.884766" xlink:href="#k"/>
</g>
</g>
<g clip-path="url(#a)">
<g transform="translate(159.84 1020.9) scale(.1 -.1)">
<use xlink:href="#d"/>
</g>
</g>
<g clip-path="url(#a)">
<defs>
<path id="ao" d="m32.172-5.0781q-3.7969-9.7656-7.4219-12.734-3.6094-2.9844-9.6562-2.9844h-7.1875v7.5156h5.2812q3.7031 0 5.75 1.7656 2.0625 1.75 4.5469 8.2969l1.6094 4.0938-22.109 53.812h9.5156l17.094-42.766 17.094 42.766h9.5156z"/>
</defs>
<g transform="translate(171.05 1020.9) scale(.1 -.1)">
<use xlink:href="#ao"/>
<use x="59.179688" xlink:href="#f"/>
<use x="120.703125" xlink:href="#d"/>
<use x="181.982422" xlink:href="#k"/>
</g>
</g>
<g clip-path="url(#a)">
<defs>
<path id="x" d="m48.781 52.594v-8.4062q-3.8125 2.1094-7.6406 3.1562t-7.7344 1.0469q-8.75 0-13.594-5.5469-4.8281-5.5312-4.8281-15.547t4.8281-15.562q4.8438-5.5312 13.594-5.5312 3.9062 0 7.7344 1.0469t7.6406 3.1562v-8.3125q-3.7656-1.75-7.7969-2.625-4.0156-0.89062-8.5625-0.89062-12.359 0-19.641 7.7656-7.2656 7.7656-7.2656 20.953 0 13.375 7.3438 21.031 7.3594 7.6719 20.156 7.6719 4.1406 0 8.0938-0.85938 3.9531-0.84375 7.6719-2.5469z"/>
<path id="aj" d="m18.109 8.2031v-29h-9.0312v75.484h9.0312v-8.2969q2.8438 4.875 7.1562 7.2344 4.3281 2.375 10.328 2.375 9.9688 0 16.188-7.9062 6.2344-7.9062 6.2344-20.797t-6.2344-20.812q-6.2188-7.9062-16.188-7.9062-6 0-10.328 2.375-4.3125 2.375-7.1562 7.25zm30.578 19.094q0 9.9062-4.0781 15.547t-11.203 5.6406q-7.1406 0-11.219-5.6406t-4.0781-15.547 4.0781-15.547 11.219-5.6406q7.125 0 11.203 5.6406t4.0781 15.547z"/>
</defs>
<g transform="translate(182.12 1020.9) scale(.1 -.1)">
<use xlink:href="#x"/>
<use x="54.980469" xlink:href="#r"/>
<use x="116.162109" xlink:href="#i"/>
<use x="143.945312" xlink:href="#i"/>
<use x="171.728516" xlink:href="#d"/>
<use x="233.007812" xlink:href="#aj"/>
<use x="296.484375" xlink:href="#v"/>
<use x="348.583984" xlink:href="#f"/>
<use x="410.107422" xlink:href="#w"/>
</g>
</g>
<g clip-path="url(#a)">
<g transform="translate(223.55 1020.9) scale(.1 -.1)">
<use xlink:href="#d"/>
<use x="61.279297" xlink:href="#i"/>
<use x="89.0625" xlink:href="#i"/>
</g>
</g>
<g clip-path="url(#a)">
<g transform="translate(250.11 1020.9) scale(.1 -.1)">
<use xlink:href="#d"/>
<use x="61.279297" xlink:href="#t"/>
</g>
</g>
<g clip-path="url(#a)">
<g transform="translate(270.96 1020.9) scale(.1 -.1)">
<use xlink:href="#r"/>
<use x="61.181641" xlink:href="#g"/>
<use x="124.560547" xlink:href="#x"/>
<use x="179.541016" xlink:href="#f"/>
</g>
</g>
<g clip-path="url(#a)">
<defs>
<path id="ar" d="m11.719 12.406h10.297v-8.4062l-8-15.625h-6.2969l4 15.625z"/>
</defs>
<g transform="translate(311.45 1020.9) scale(.1 -.1)">
<use xlink:href="#ar"/>
</g>
</g>
<g clip-path="url(#a)">
<g transform="translate(335.81 1020.9) scale(.1 -.1)">
<use xlink:href="#d"/>
<use x="61.279297" xlink:href="#g"/>
<use x="124.658203" xlink:href="#w"/>
</g>
</g>
<g clip-path="url(#a)">
<g transform="translate(367.47 1020.9) scale(.1 -.1)">
<use xlink:href="#f"/>
<use x="61.523438" xlink:href="#d"/>
<use x="122.802734" xlink:href="#x"/>
<use x="177.783203" xlink:href="#z"/>
</g>
</g>
<g clip-path="url(#a)">
<g transform="translate(404.89 1020.9) scale(.1 -.1)">
<use xlink:href="#j"/>
<use x="97.412109" xlink:href="#d"/>
<use x="158.691406" xlink:href="#g"/>
</g>
</g>
<g clip-path="url(#a)">
<defs>
<path id="as" d="m4.2031 54.688h8.9844l11.234-42.672 11.172 42.672h10.594l11.234-42.672 11.188 42.672h8.9844l-14.312-54.688h-10.594l-11.766 44.828-11.812-44.828h-10.609z"/>
</defs>
<g transform="translate(444.28 1020.9) scale(.1 -.1)">
<use xlink:href="#g"/>
<use x="63.378906" xlink:href="#r"/>
<use x="124.560547" xlink:href="#as"/>
</g>
</g>
<g clip-path="url(#a)">
<g transform="translate(476.82 1020.9) scale(.1 -.1)">
<use xlink:href="#as"/>
<use x="81.787109" xlink:href="#d"/>
<use x="143.066406" xlink:href="#g"/>
<use x="206.445312" xlink:href="#t"/>
<use x="245.654297" xlink:href="#f"/>
<use x="307.177734" xlink:href="#w"/>
</g>
</g>
<g clip-path="url(#a)">
<g transform="translate(527.67 1020.9) scale(.1 -.1)">
<use xlink:href="#r"/>
<use x="61.181641" xlink:href="#g"/>
<use x="124.560547" xlink:href="#i"/>
<use x="152.34375" xlink:href="#ao"/>
</g>
</g>
<g clip-path="url(#a)">
<g transform="translate(578.27 1020.9) scale(.1 -.1)">
<use xlink:href="#t"/>
<use x="39.208984" xlink:href="#r"/>
</g>
</g>
<g clip-path="url(#a)">
<g transform="translate(616.79 1020.9) scale(.1 -.1)">
<use xlink:href="#x"/>
<use x="54.980469" xlink:href="#d"/>
<use x="116.259766" xlink:href="#t"/>
<use x="155.46875" xlink:href="#x"/>
<use x="210.449219" xlink:href="#z"/>
</g>
</g>
<g clip-path="url(#a)">
<g transform="translate(673.47 1020.9) scale(.1 -.1)">
<use xlink:href="#ai"/>
<use x="63.378906" xlink:href="#aj"/>
</g>
</g>
<g clip-path="url(#a)">
<g transform="translate(725.06 1020.9) scale(.1 -.1)">
<use xlink:href="#r"/>
<use x="61.181641" xlink:href="#g"/>
</g>
</g>
<g clip-path="url(#a)">
<g transform="translate(777.74 1020.9) scale(.1 -.1)">
<use xlink:href="#z"/>
<use x="63.378906" xlink:href="#h"/>
<use x="91.162109" xlink:href="#v"/>
</g>
</g>
<g clip-path="url(#a)">
<g transform="translate(824.84 1020.9) scale(.1 -.1)">
<use xlink:href="#f"/>
<use x="61.523438" xlink:href="#d"/>
<use x="122.802734" xlink:href="#t"/>
<use x="162.011719" xlink:href="#h"/>
<use x="189.794922" xlink:href="#g"/>
<use x="253.173828" xlink:href="#ap"/>
</g>
</g>
<g clip-path="url(#a)">
<g transform="translate(889.18 1020.9) scale(.1 -.1)">
<use xlink:href="#d"/>
<use x="61.279297" xlink:href="#g"/>
<use x="124.658203" xlink:href="#w"/>
</g>
</g>
<g clip-path="url(#a)">
<g transform="translate(937.59 1020.9) scale(.1 -.1)">
<use xlink:href="#v"/>
<use x="52.099609" xlink:href="#i"/>
<use x="79.882812" xlink:href="#f"/>
<use x="141.40625" xlink:href="#f"/>
<use x="202.929688" xlink:href="#aj"/>
<use x="266.40625" xlink:href="#h"/>
<use x="294.189453" xlink:href="#g"/>
<use x="357.568359" xlink:href="#ap"/>
</g>
</g>
<g clip-path="url(#a)">
<g transform="translate(1019.3 1020.9) scale(.1 -.1)">
<use xlink:href="#ar"/>
</g>
</g>
<g clip-path="url(#a)">
<g transform="translate(1080.2 1020.9) scale(.1 -.1)">
<use xlink:href="#t"/>
<use x="39.208984" xlink:href="#r"/>
</g>
</g>
<g clip-path="url(#a)">
<defs>
<path id="aw" d="m9.0781 75.984h9.0312v-44.875l26.812 23.578h11.469l-29-25.578 30.234-29.109h-11.719l-27.797 26.703v-26.703h-9.0312z"/>
</defs>
<g transform="translate(1138 1020.9) scale(.1 -.1)">
<use xlink:href="#j"/>
<use x="97.412109" xlink:href="#d"/>
<use x="158.691406" xlink:href="#aw"/>
<use x="212.976562" xlink:href="#f"/>
</g>
</g>
<g clip-path="url(#a)">
<g transform="translate(1214 1020.9) scale(.1 -.1)">
<use xlink:href="#ai"/>
<use x="63.378906" xlink:href="#aj"/>
</g>
</g>
<g clip-path="url(#a)">
<g transform="translate(1284.2 1020.9) scale(.1 -.1)">
<use xlink:href="#aq"/>
<use x="35.205078" xlink:href="#r"/>
<use x="96.386719" xlink:href="#k"/>
</g>
</g>
<g clip-path="url(#a)">
<g transform="translate(1355.8 1020.9) scale(.1 -.1)">
<use xlink:href="#t"/>
<use x="39.208984" xlink:href="#z"/>
<use x="102.587891" xlink:href="#f"/>
</g>
</g>
<g clip-path="url(#a)">
<g transform="translate(1427.8 1020.9) scale(.1 -.1)">
<use xlink:href="#t"/>
<use x="39.208984" xlink:href="#h"/>
<use x="66.992188" xlink:href="#j"/>
<use x="164.404297" xlink:href="#f"/>
</g>
</g>
<g clip-path="url(#a)">
<g transform="translate(1510.1 1020.9) scale(.1 -.1)">
<use xlink:href="#z"/>
<use x="63.378906" xlink:href="#f"/>
</g>
</g>
<g clip-path="url(#a)">
<g transform="translate(1586.3 1020.9) scale(.1 -.1)">
<use xlink:href="#z"/>
<use x="63.378906" xlink:href="#d"/>
<use x="124.658203" xlink:href="#w"/>
</g>
</g>
<g clip-path="url(#a)">
<g transform="translate(1671.5 1020.9) scale(.1 -.1)">
<use xlink:href="#v"/>
<use x="52.099609" xlink:href="#r"/>
</g>
</g>
<g clip-path="url(#a)">
<g transform="translate(1741 1020.9) scale(.1 -.1)">
<use xlink:href="#v"/>
<use x="52.099609" xlink:href="#t"/>
<use x="91.308594" xlink:href="#ai"/>
<use x="154.6875" xlink:href="#aj"/>
<use x="218.164062" xlink:href="#h"/>
<use x="245.947266" xlink:href="#w"/>
<use x="309.423828" xlink:href="#i"/>
<use x="337.207031" xlink:href="#ao"/>
</g>
</g>
<g clip-path="url(#a)">
<g transform="translate(1822.6 1020.9) scale(.1 -.1)">
<use xlink:href="#v"/>
<use x="52.099609" xlink:href="#d"/>
<use x="113.378906" xlink:href="#x"/>
<use x="168.359375" xlink:href="#k"/>
<use x="209.472656" xlink:href="#h"/>
<use x="237.255859" xlink:href="#aq"/>
<use x="272.460938" xlink:href="#h"/>
<use x="300.244141" xlink:href="#x"/>
<use x="355.224609" xlink:href="#f"/>
<use x="416.748047" xlink:href="#w"/>
</g>
</g>
<g clip-path="url(#a)">
<defs>
<path id="e" d="m10.688 12.406h10.312v-12.406h-10.312z"/>
</defs>
<g transform="translate(1933 1020.9) scale(.1 -.1)">
<use xlink:href="#e"/>
</g>
</g>
<g clip-path="url(#a)">
<defs>
<path id="al" d="m9.8125 72.906h9.8594v-72.906h-9.8594z"/>
<path id="au" d="m9.8125 72.906h14.703l18.594-49.609 18.703 49.609h14.703v-72.906h-9.625v64.016l-18.797-50h-9.9062l-18.797 50v-64.016h-9.5781z"/>
</defs>
<g transform="translate(163.26 747.33) scale(.1 -.1)">
<use xlink:href="#al"/>
<use x="29.492188" xlink:href="#au"/>
<use x="115.771484" xlink:href="#y"/>
<use x="176.074219" xlink:href="#ad"/>
<use x="231.787109" xlink:href="#al"/>
<use x="261.279297" xlink:href="#q"/>
<use x="331.103516" xlink:href="#al"/>
<use x="360.595703" xlink:href="#l"/>
</g>
</g>
<g clip-path="url(#a)">
<defs>
<path id="c" d="m12.406 8.2969h16.109v55.625l-17.531-3.5156v8.9844l17.438 3.5156h9.8594v-64.609h16.109v-8.2969h-41.984z"/>
</defs>
<g transform="translate(567.13 51.244) scale(.1 -.1)">
<use xlink:href="#c"/>
<use x="63.623047" xlink:href="#e"/>
<use x="95.410156" xlink:href="#c"/>
</g>
</g>
<g clip-path="url(#a)">
<defs>
<path id="o" d="m19.188 8.2969h34.422v-8.2969h-46.281v8.2969q5.6094 5.8125 15.297 15.594 9.7031 9.7969 12.188 12.641 4.7344 5.3125 6.6094 9 1.8906 3.6875 1.8906 7.25 0 5.8125-4.0781 9.4688-4.0781 3.6719-10.625 3.6719-4.6406 0-9.7969-1.6094-5.1406-1.6094-11-4.8906v9.9688q5.9531 2.3906 11.125 3.6094 5.1875 1.2188 9.4844 1.2188 11.328 0 18.062-5.6719 6.7344-5.6562 6.7344-15.125 0-4.5-1.6875-8.5312-1.6719-4.0156-6.125-9.4844-1.2188-1.4219-7.7656-8.1875-6.5312-6.7656-18.453-18.922z"/>
</defs>
<g transform="translate(184.61 330.63) scale(.1 -.1)">
<use xlink:href="#c"/>
<use x="63.623047" xlink:href="#e"/>
<use x="95.410156" xlink:href="#o"/>
</g>
</g>
<g clip-path="url(#a)">
<defs>
<path id="n" d="m40.578 39.312q7.0781-1.5156 11.047-6.3125 3.9844-4.7812 3.9844-11.812 0-10.781-7.4219-16.703-7.4219-5.9062-21.094-5.9062-4.5781 0-9.4375 0.90625t-10.031 2.7188v9.5156q4.0938-2.3906 8.9688-3.6094 4.8906-1.2188 10.219-1.2188 9.2656 0 14.125 3.6562t4.8594 10.641q0 6.4531-4.5156 10.078-4.5156 3.6406-12.562 3.6406h-8.5v8.1094h8.8906q7.2656 0 11.125 2.9062t3.8594 8.375q0 5.6094-3.9844 8.6094-3.9688 3.0156-11.391 3.0156-4.0625 0-8.7031-0.89062-4.6406-0.875-10.203-2.7188v8.7812q5.625 1.5625 10.531 2.3438t9.25 0.78125q11.234 0 17.766-5.1094 6.5469-5.0938 6.5469-13.781 0-6.0625-3.4688-10.234t-9.8594-5.7812z"/>
</defs>
<g transform="translate(337.26 885.08) scale(.1 -.1)">
<use xlink:href="#c"/>
<use x="63.623047" xlink:href="#e"/>
<use x="95.410156" xlink:href="#n"/>
</g>
</g>
<g clip-path="url(#a)">
<defs>
<path id="p" d="m37.797 64.312-24.906-38.922h24.906zm-2.5938 8.5938h12.406v-47.516h10.406v-8.2031h-10.406v-17.188h-9.8125v17.188h-32.906v9.5156z"/>
</defs>
<g transform="translate(535.56 191.05) scale(.1 -.1)">
<use xlink:href="#c"/>
<use x="63.623047" xlink:href="#e"/>
<use x="95.410156" xlink:href="#p"/>
</g>
</g>
<g clip-path="url(#a)">
<defs>
<path id="m" d="m10.797 72.906h38.719v-8.3125h-29.688v-17.859q2.1406 0.73438 4.2812 1.0938 2.1562 0.35938 4.3125 0.35938 12.203 0 19.328-6.6875 7.1406-6.6875 7.1406-18.109 0-11.766-7.3281-18.297-7.3281-6.5156-20.656-6.5156-4.5938 0-9.3594 0.78125-4.75 0.78125-9.8281 2.3438v9.9219q4.3906-2.3906 9.0781-3.5625t9.9062-1.1719q8.4531 0 13.375 4.4375 4.9375 4.4375 4.9375 12.062 0 7.6094-4.9375 12.047-4.9219 4.4531-13.375 4.4531-3.9531 0-7.8906-0.875-3.9219-0.875-8.0156-2.7344z"/>
</defs>
<g transform="translate(1027.4 330.63) scale(.1 -.1)">
<use xlink:href="#c"/>
<use x="63.623047" xlink:href="#e"/>
<use x="95.410156" xlink:href="#m"/>
</g>
</g>
<g clip-path="url(#a)">
<defs>
<path id="ag" d="m31.781 34.625q-7.0312 0-11.062-3.7656-4.0156-3.7656-4.0156-10.344 0-6.5938 4.0156-10.359 4.0312-3.7656 11.062-3.7656t11.078 3.7812q4.0625 3.7969 4.0625 10.344 0 6.5781-4.0312 10.344-4.0156 3.7656-11.109 3.7656zm-9.8594 4.1875q-6.3438 1.5625-9.8906 5.9062-3.5312 4.3594-3.5312 10.609 0 8.7344 6.2188 13.812 6.2344 5.0781 17.062 5.0781 10.891 0 17.094-5.0781t6.2031-13.812q0-6.25-3.5469-10.609-3.5312-4.3438-9.8281-5.9062 7.125-1.6562 11.094-6.5 3.9844-4.8281 3.9844-11.797 0-10.609-6.4688-16.281-6.4688-5.6562-18.531-5.6562-12.047 0-18.531 5.6562-6.4688 5.6719-6.4688 16.281 0 6.9688 4 11.797 4.0156 4.8438 11.141 6.5zm-3.6094 15.578q0-5.6562 3.5312-8.8281 3.5469-3.1719 9.9375-3.1719 6.3594 0 9.9375 3.1719 3.5938 3.1719 3.5938 8.8281 0 5.6719-3.5938 8.8438-3.5781 3.1719-9.9375 3.1719-6.3906 0-9.9375-3.1719-3.5312-3.1719-3.5312-8.8438z"/>
</defs>
<g transform="translate(1077.2 885.08) scale(.1 -.1)">
<use xlink:href="#c"/>
<use x="63.623047" xlink:href="#e"/>
<use x="95.410156" xlink:href="#ag"/>
</g>
</g>
<g clip-path="url(#a)">
<defs>
<path id="af" d="m10.984 1.5156v8.9844q3.7188-1.7656 7.5156-2.6875 3.8125-0.92188 7.4844-0.92188 9.7656 0 14.906 6.5625 5.1562 6.5625 5.8906 19.953-2.8281-4.2031-7.1875-6.4531-4.3438-2.25-9.6094-2.25-10.938 0-17.312 6.6094-6.375 6.625-6.375 18.109 0 11.219 6.6406 18 6.6406 6.7969 17.672 6.7969 12.656 0 19.312-9.7031 6.6719-9.6875 6.6719-28.141 0-17.234-8.1875-27.516-8.1719-10.281-21.984-10.281-3.7188 0-7.5312 0.73438-3.7969 0.73438-7.9062 2.2031zm19.625 30.906q6.6406 0 10.516 4.5312 3.8906 4.5469 3.8906 12.469 0 7.8594-3.8906 12.422-3.875 4.5625-10.516 4.5625t-10.516-4.5625-3.875-12.422q0-7.9219 3.875-12.469 3.875-4.5312 10.516-4.5312z"/>
</defs>
<g transform="translate(1178 885.08) scale(.1 -.1)">
<use xlink:href="#c"/>
<use x="63.623047" xlink:href="#e"/>
<use x="95.410156" xlink:href="#af"/>
</g>
</g>
<g clip-path="url(#a)">
<defs>
<path id="ac" d="m31.781 66.406q-7.6094 0-11.453-7.5-3.8281-7.4844-3.8281-22.531 0-14.984 3.8281-22.484 3.8438-7.5 11.453-7.5 7.6719 0 11.5 7.5 3.8438 7.5 3.8438 22.484 0 15.047-3.8438 22.531-3.8281 7.5-11.5 7.5zm0 7.8125q12.266 0 18.734-9.7031 6.4688-9.6875 6.4688-28.141 0-18.406-6.4688-28.109-6.4688-9.6875-18.734-9.6875-12.25 0-18.719 9.6875-6.4688 9.7031-6.4688 28.109 0 18.453 6.4688 28.141 6.4688 9.7031 18.719 9.7031z"/>
</defs>
<g transform="translate(1443 469.92) scale(.1 -.1)">
<use xlink:href="#c"/>
<use x="63.623047" xlink:href="#e"/>
<use x="95.410156" xlink:href="#c"/>
<use x="159.033203" xlink:href="#ac"/>
</g>
</g>
<g clip-path="url(#a)">
<g transform="translate(1280 885.08) scale(.1 -.1)">
<use xlink:href="#c"/>
<use x="63.623047" xlink:href="#e"/>
<use x="95.410156" xlink:href="#c"/>
<use x="159.033203" xlink:href="#c"/>
</g>
</g>
<g clip-path="url(#a)">
<g transform="translate(1352.9 885.08) scale(.1 -.1)">
<use xlink:href="#c"/>
<use x="63.623047" xlink:href="#e"/>
<use x="95.410156" xlink:href="#c"/>
<use x="159.033203" xlink:href="#o"/>
</g>
</g>
<g clip-path="url(#a)">
<g transform="translate(1428 885.08) scale(.1 -.1)">
<use xlink:href="#c"/>
<use x="63.623047" xlink:href="#e"/>
<use x="95.410156" xlink:href="#c"/>
<use x="159.033203" xlink:href="#n"/>
</g>
</g>
<g clip-path="url(#a)">
<g transform="translate(1711.3 608.86) scale(.1 -.1)">
<use xlink:href="#c"/>
<use x="63.623047" xlink:href="#e"/>
<use x="95.410156" xlink:href="#c"/>
<use x="159.033203" xlink:href="#p"/>
</g>
</g>
<g clip-path="url(#a)">
<g transform="translate(1505.2 885.08) scale(.1 -.1)">
<use xlink:href="#c"/>
<use x="63.623047" xlink:href="#e"/>
<use x="95.410156" xlink:href="#c"/>
<use x="159.033203" xlink:href="#m"/>
</g>
</g>
<g clip-path="url(#a)">
<defs>
<path id="ab" d="m33.016 40.375q-6.6406 0-10.531-4.5469-3.875-4.5312-3.875-12.438 0-7.8594 3.875-12.438 3.8906-4.5625 10.531-4.5625t10.516 4.5625q3.875 4.5781 3.875 12.438 0 7.9062-3.875 12.438-3.875 4.5469-10.516 4.5469zm19.578 30.922v-8.9844q-3.7188 1.75-7.5 2.6719-3.7812 0.9375-7.5 0.9375-9.7656 0-14.922-6.5938-5.1406-6.5938-5.875-19.922 2.875 4.25 7.2188 6.5156 4.3594 2.2656 9.5781 2.2656 10.984 0 17.359-6.6719 6.375-6.6562 6.375-18.125 0-11.234-6.6406-18.031-6.6406-6.7812-17.672-6.7812-12.656 0-19.344 9.6875-6.6875 9.7031-6.6875 28.109 0 17.281 8.2031 27.562t22.016 10.281q3.7188 0 7.5-0.73438t7.8906-2.1875z"/>
</defs>
<g transform="translate(1584.5 885.08) scale(.1 -.1)">
<use xlink:href="#c"/>
<use x="63.623047" xlink:href="#e"/>
<use x="95.410156" xlink:href="#c"/>
<use x="159.033203" xlink:href="#ab"/>
</g>
</g>
<g clip-path="url(#a)">
<defs>
<path id="ah" d="m8.2031 72.906h46.875v-4.2031l-26.469-68.703h-10.297l24.906 64.594h-35.016z"/>
</defs>
<g transform="translate(1707.9 747.33) scale(.1 -.1)">
<use xlink:href="#c"/>
<use x="63.623047" xlink:href="#e"/>
<use x="95.410156" xlink:href="#c"/>
<use x="159.033203" xlink:href="#ah"/>
</g>
</g>
<g clip-path="url(#a)">
<g transform="translate(1835.5 885.08) scale(.1 -.1)">
<use xlink:href="#c"/>
<use x="63.623047" xlink:href="#e"/>
<use x="95.410156" xlink:href="#c"/>
<use x="159.033203" xlink:href="#ag"/>
</g>
</g>
<g clip-path="url(#a)">
<g transform="translate(1666 885.08) scale(.1 -.1)">
<use xlink:href="#c"/>
<use x="63.623047" xlink:href="#e"/>
<use x="95.410156" xlink:href="#o"/>
<use x="159.033203" xlink:href="#ac"/>
</g>
</g>
<g clip-path="url(#a)">
<g transform="translate(1749.7 885.08) scale(.1 -.1)">
<use xlink:href="#c"/>
<use x="63.623047" xlink:href="#e"/>
<use x="95.410156" xlink:href="#o"/>
<use x="159.033203" xlink:href="#c"/>
</g>
</g>
<g clip-path="url(#a)">
<g transform="translate(386.63 747.33) scale(.1 -.1)">
<use xlink:href="#c"/>
<use x="63.623047" xlink:href="#e"/>
<use x="95.410156" xlink:href="#o"/>
<use x="159.033203" xlink:href="#o"/>
</g>
</g>
<g clip-path="url(#a)">
<g transform="translate(443.47 885.08) scale(.1 -.1)">
<use xlink:href="#c"/>
<use x="63.623047" xlink:href="#e"/>
<use x="95.410156" xlink:href="#o"/>
<use x="159.033203" xlink:href="#n"/>
</g>
</g>
<g clip-path="url(#a)">
<g transform="translate(484.22 885.08) scale(.1 -.1)">
<use xlink:href="#c"/>
<use x="63.623047" xlink:href="#e"/>
<use x="95.410156" xlink:href="#o"/>
<use x="159.033203" xlink:href="#p"/>
</g>
</g>
<g clip-path="url(#a)">
<g transform="translate(527.12 885.08) scale(.1 -.1)">
<use xlink:href="#c"/>
<use x="63.623047" xlink:href="#e"/>
<use x="95.410156" xlink:href="#o"/>
<use x="159.033203" xlink:href="#m"/>
</g>
</g>
<g clip-path="url(#a)">
<g transform="translate(572.16 885.08) scale(.1 -.1)">
<use xlink:href="#c"/>
<use x="63.623047" xlink:href="#e"/>
<use x="95.410156" xlink:href="#o"/>
<use x="159.033203" xlink:href="#ab"/>
</g>
</g>
<g clip-path="url(#a)">
<g transform="translate(644.01 885.08) scale(.1 -.1)">
<use xlink:href="#c"/>
<use x="63.623047" xlink:href="#e"/>
<use x="95.410156" xlink:href="#o"/>
<use x="159.033203" xlink:href="#ah"/>
</g>
</g>
<g clip-path="url(#a)">
<g transform="translate(669.03 330.63) scale(.1 -.1)">
<use xlink:href="#c"/>
<use x="63.623047" xlink:href="#e"/>
<use x="95.410156" xlink:href="#o"/>
<use x="159.033203" xlink:href="#ag"/>
</g>
</g>
<g clip-path="url(#a)">
<g transform="translate(720.15 885.08) scale(.1 -.1)">
<use xlink:href="#c"/>
<use x="63.623047" xlink:href="#e"/>
<use x="95.410156" xlink:href="#o"/>
<use x="159.033203" xlink:href="#af"/>
</g>
</g>
<g clip-path="url(#a)">
<g transform="translate(617.92 469.92) scale(.1 -.1)">
<use xlink:href="#c"/>
<use x="63.623047" xlink:href="#e"/>
<use x="95.410156" xlink:href="#n"/>
<use x="159.033203" xlink:href="#ac"/>
</g>
</g>
<g clip-path="url(#a)">
<g transform="translate(830.97 608.86) scale(.1 -.1)">
<use xlink:href="#c"/>
<use x="63.623047" xlink:href="#e"/>
<use x="95.410156" xlink:href="#n"/>
<use x="159.033203" xlink:href="#c"/>
</g>
</g>
<g clip-path="url(#a)">
<g transform="translate(773.77 885.08) scale(.1 -.1)">
<use xlink:href="#c"/>
<use x="63.623047" xlink:href="#e"/>
<use x="95.410156" xlink:href="#n"/>
<use x="159.033203" xlink:href="#o"/>
</g>
</g>
<g clip-path="url(#a)">
<g transform="translate(888.17 747.33) scale(.1 -.1)">
<use xlink:href="#c"/>
<use x="63.623047" xlink:href="#e"/>
<use x="95.410156" xlink:href="#n"/>
<use x="159.033203" xlink:href="#n"/>
</g>
</g>
<g clip-path="url(#a)">
<g transform="translate(829.54 885.08) scale(.1 -.1)">
<use xlink:href="#c"/>
<use x="63.623047" xlink:href="#e"/>
<use x="95.410156" xlink:href="#n"/>
<use x="159.033203" xlink:href="#p"/>
</g>
</g>
<g clip-path="url(#a)">
<g transform="translate(887.45 885.08) scale(.1 -.1)">
<use xlink:href="#c"/>
<use x="63.623047" xlink:href="#e"/>
<use x="95.410156" xlink:href="#n"/>
<use x="159.033203" xlink:href="#m"/>
</g>
</g>
<g clip-path="url(#a)">
<g transform="translate(947.51 885.08) scale(.1 -.1)">
<use xlink:href="#c"/>
<use x="63.623047" xlink:href="#e"/>
<use x="95.410156" xlink:href="#n"/>
<use x="159.033203" xlink:href="#ab"/>
</g>
</g>
<g clip-path="url(#a)">
<g transform="translate(368.4 885.08) scale(.1 -.1)">
<use xlink:href="#c"/>
<use x="63.623047" xlink:href="#e"/>
<use x="95.410156" xlink:href="#n"/>
<use x="159.033203" xlink:href="#ah"/>
</g>
</g>
<g clip-path="url(#a)">
<g transform="translate(404.86 885.08) scale(.1 -.1)">
<use xlink:href="#c"/>
<use x="63.623047" xlink:href="#e"/>
<use x="95.410156" xlink:href="#n"/>
<use x="159.033203" xlink:href="#ag"/>
</g>
</g>
<g clip-path="url(#a)">
<g transform="translate(104.9 469.92) scale(.1 -.1)">
<use xlink:href="#c"/>
<use x="63.623047" xlink:href="#e"/>
<use x="95.410156" xlink:href="#n"/>
<use x="159.033203" xlink:href="#af"/>
</g>
</g>
<g clip-path="url(#a)">
<g transform="translate(194.67 885.08) scale(.1 -.1)">
<use xlink:href="#c"/>
<use x="63.623047" xlink:href="#e"/>
<use x="95.410156" xlink:href="#p"/>
<use x="159.033203" xlink:href="#ac"/>
</g>
</g>
<g clip-path="url(#a)">
<g transform="translate(244.71 747.33) scale(.1 -.1)">
<use xlink:href="#c"/>
<use x="63.623047" xlink:href="#e"/>
<use x="95.410156" xlink:href="#p"/>
<use x="159.033203" xlink:href="#c"/>
</g>
</g>
<g clip-path="url(#a)">
<g transform="translate(218.26 885.08) scale(.1 -.1)">
<use xlink:href="#c"/>
<use x="63.623047" xlink:href="#e"/>
<use x="95.410156" xlink:href="#p"/>
<use x="159.033203" xlink:href="#o"/>
</g>
</g>
<g clip-path="url(#a)">
<g transform="translate(244 885.08) scale(.1 -.1)">
<use xlink:href="#c"/>
<use x="63.623047" xlink:href="#e"/>
<use x="95.410156" xlink:href="#p"/>
<use x="159.033203" xlink:href="#n"/>
</g>
</g>
<g clip-path="url(#a)">
<g transform="translate(271.88 885.08) scale(.1 -.1)">
<use xlink:href="#c"/>
<use x="63.623047" xlink:href="#e"/>
<use x="95.410156" xlink:href="#p"/>
<use x="159.033203" xlink:href="#p"/>
</g>
</g>
<g clip-path="url(#a)">
<g transform="translate(88.138 747.33) scale(.1 -.1)">
<use xlink:href="#c"/>
<use x="63.623047" xlink:href="#e"/>
<use x="95.410156" xlink:href="#p"/>
<use x="159.033203" xlink:href="#m"/>
</g>
</g>
<g clip-path="url(#a)">
<g transform="translate(106.73 885.08) scale(.1 -.1)">
<use xlink:href="#c"/>
<use x="63.623047" xlink:href="#e"/>
<use x="95.410156" xlink:href="#p"/>
<use x="159.033203" xlink:href="#ab"/>
</g>
</g>
<g clip-path="url(#a)">
<g transform="translate(119.83 608.86) scale(.1 -.1)">
<use xlink:href="#c"/>
<use x="63.623047" xlink:href="#e"/>
<use x="95.410156" xlink:href="#p"/>
<use x="159.033203" xlink:href="#ah"/>
</g>
</g>
<g clip-path="url(#a)">
<g transform="translate(119.6 885.08) scale(.1 -.1)">
<use xlink:href="#c"/>
<use x="63.623047" xlink:href="#e"/>
<use x="95.410156" xlink:href="#p"/>
<use x="159.033203" xlink:href="#af"/>
</g>
</g>
<g clip-path="url(#a)">
<g transform="translate(152.48 747.33) scale(.1 -.1)">
<use xlink:href="#c"/>
<use x="63.623047" xlink:href="#e"/>
<use x="95.410156" xlink:href="#m"/>
<use x="159.033203" xlink:href="#ac"/>
</g>
</g>
<g clip-path="url(#a)">
<g transform="translate(134.61 885.08) scale(.1 -.1)">
<use xlink:href="#c"/>
<use x="63.623047" xlink:href="#e"/>
<use x="95.410156" xlink:href="#m"/>
<use x="159.033203" xlink:href="#c"/>
</g>
</g>
<g clip-path="url(#a)">
<g transform="translate(151.77 885.08) scale(.1 -.1)">
<use xlink:href="#c"/>
<use x="63.623047" xlink:href="#e"/>
<use x="95.410156" xlink:href="#m"/>
<use x="159.033203" xlink:href="#o"/>
</g>
</g>
<g clip-path="url(#a)">
<g transform="translate(171.07 885.08) scale(.1 -.1)">
<use xlink:href="#c"/>
<use x="63.623047" xlink:href="#e"/>
<use x="95.410156" xlink:href="#m"/>
<use x="159.033203" xlink:href="#n"/>
</g>
</g>
<g clip-path="url(#a)">
<g transform="translate(80.988 885.08) scale(.1 -.1)">
<use xlink:href="#c"/>
<use x="63.623047" xlink:href="#e"/>
<use x="95.410156" xlink:href="#m"/>
<use x="159.033203" xlink:href="#p"/>
</g>
</g>
<g clip-path="url(#a)">
<g transform="translate(87.423 885.08) scale(.1 -.1)">
<use xlink:href="#c"/>
<use x="63.623047" xlink:href="#e"/>
<use x="95.410156" xlink:href="#m"/>
<use x="159.033203" xlink:href="#m"/>
</g>
</g>
<g clip-path="url(#a)">
<g transform="translate(96.002 885.08) scale(.1 -.1)">
<use xlink:href="#c"/>
<use x="63.623047" xlink:href="#e"/>
<use x="95.410156" xlink:href="#m"/>
<use x="159.033203" xlink:href="#ab"/>
</g>
</g>
<g clip-path="url(#a)">
<g transform="translate(349.29 51.244) scale(.1 -.1)">
<use xlink:href="#c"/>
<use x="63.623047" xlink:href="#e"/>
<use x="95.410156" xlink:href="#m"/>
<use x="159.033203" xlink:href="#ah"/>
</g>
</g>
<g clip-path="url(#a)">
<g transform="translate(301.91 885.08) scale(.1 -.1)">
<use xlink:href="#c"/>
<use x="63.623047" xlink:href="#e"/>
<use x="95.410156" xlink:href="#m"/>
<use x="159.033203" xlink:href="#ag"/>
</g>
</g>
<g clip-path="url(#a)">
<g transform="translate(1009.7 885.08) scale(.1 -.1)">
<use xlink:href="#c"/>
<use x="63.623047" xlink:href="#e"/>
<use x="95.410156" xlink:href="#m"/>
<use x="159.033203" xlink:href="#af"/>
</g>
</g>
<g clip-path="url(#a)">
<g transform="translate(1923.4 885.08) scale(.1 -.1)">
<use xlink:href="#c"/>
<use x="63.623047" xlink:href="#e"/>
<use x="95.410156" xlink:href="#ab"/>
<use x="159.033203" xlink:href="#ac"/>
</g>
</g>
<defs>
<clipPath id="a">
<rect width="2026.7" height="1066.7"/>
</clipPath>
</defs>
</svg>
