<?xml version="1.0" encoding="UTF-8"?>
<!DOCTYPE svg  PUBLIC '-//W3C//DTD SVG 1.1//EN'  'http://www.w3.org/Graphics/SVG/1.1/DTD/svg11.dtd'>
<svg width="1064pt" height="560pt" version="1.1" viewBox="0 0 1064 560" xmlns="http://www.w3.org/2000/svg" xmlns:xlink="http://www.w3.org/1999/xlink">
<defs>
<style type="text/css">*{stroke-linecap:butt;stroke-linejoin:round;}</style>
</defs>
<path d="m0 560h1064v-560h-1064z" fill="#fff"/>
<g fill="none" stroke="#000">
<path d="m511 26.847-341.51 129.28" clip-path="url(#a)"/>
<path d="m511 26.847-124 381.21" clip-path="url(#a)"/>
<path d="m511 26.847-109.91 129.28" clip-path="url(#a)"/>
<path d="m511 26.847 262.68 381.21" clip-path="url(#a)"/>
<path d="m511 26.847 270.74 256.11" clip-path="url(#a)"/>
<path d="m511 26.847-172.34 381.21" clip-path="url(#a)"/>
<path d="m511 26.847 214.34 381.21" clip-path="url(#a)"/>
<path d="m169.49 156.13-96.671 126.84" clip-path="url(#a)"/>
<path d="m169.49 156.13-24.168 251.93" clip-path="url(#a)"/>
<path d="m169.49 156.13 24.168 251.93" clip-path="url(#a)"/>
<path d="m169.49 156.13 96.671 126.84" clip-path="url(#a)"/>
<path d="m386.99 408.06v125.1" clip-path="url(#a)"/>
<path d="m401.09 156.13 34.238 251.93" clip-path="url(#a)"/>
<path d="m401.09 156.13 82.573 251.93" clip-path="url(#a)"/>
<path d="m401.09 156.13 187.3 126.84" clip-path="url(#a)"/>
<path d="m401.09 156.13-304.11 251.93" clip-path="url(#a)" stroke-dasharray="3.7,1.6"/>
<path d="m773.68 408.06v125.1" clip-path="url(#a)"/>
<path d="m781.73 282.96 40.279 125.1" clip-path="url(#a)"/>
<path d="m781.73 282.96 88.615 125.1" clip-path="url(#a)"/>
<path d="m781.73 282.96 136.95 125.1" clip-path="url(#a)"/>
<path d="m781.73 282.96 185.29 125.1" clip-path="url(#a)"/>
<path d="m781.73 282.96-684.75 125.1" clip-path="url(#a)" stroke-dasharray="3.7,1.6"/>
<path d="m781.73 282.96 233.62 125.1" clip-path="url(#a)"/>
<path d="m822.01 408.06v125.1" clip-path="url(#a)"/>
<path d="m870.35 408.06v125.1" clip-path="url(#a)"/>
<path d="m918.68 408.06v125.1" clip-path="url(#a)"/>
<path d="m967.02 408.06v125.1" clip-path="url(#a)"/>
<path d="m435.33 408.06v125.1" clip-path="url(#a)"/>
<path d="m483.66 408.06v125.1" clip-path="url(#a)"/>
<path d="m588.39 282.96-56.391 125.1" clip-path="url(#a)"/>
<path d="m588.39 282.96-8.0559 125.1" clip-path="url(#a)"/>
<path d="m588.39 282.96 64.447 125.1" clip-path="url(#a)"/>
<path d="m532 408.06v125.1" clip-path="url(#a)"/>
<path d="m580.34 408.06v125.1" clip-path="url(#a)"/>
<path d="m652.84 408.06-24.168 125.1" clip-path="url(#a)"/>
<path d="m652.84 408.06 24.168 125.1" clip-path="url(#a)"/>
<path d="m72.815 282.96-24.168 125.1" clip-path="url(#a)"/>
<path d="m72.815 282.96 24.168 125.1" clip-path="url(#a)"/>
<path d="m145.32 408.06v125.1" clip-path="url(#a)"/>
<path d="m193.65 408.06v125.1" clip-path="url(#a)"/>
<path d="m266.16 282.96-24.168 125.1" clip-path="url(#a)"/>
<path d="m266.16 282.96 24.168 125.1" clip-path="url(#a)"/>
<path d="m241.99 408.06v125.1" clip-path="url(#a)"/>
<path d="m290.32 408.06v125.1" clip-path="url(#a)"/>
<path d="m48.647 408.06v125.1" clip-path="url(#a)"/>
<path d="m96.982 408.06v125.1" clip-path="url(#a)"/>
<path d="m652.17 26.847-251.08 129.28" clip-path="url(#a)"/>
<path d="m652.17 26.847 121.51 381.21" clip-path="url(#a)"/>
<path d="m652.17 26.847 129.57 256.11" clip-path="url(#a)"/>
<path d="m319.19 26.847-149.71 129.28" clip-path="url(#a)"/>
<path d="m319.19 26.847 67.804 381.21" clip-path="url(#a)"/>
<path d="m319.19 26.847 81.901 129.28" clip-path="url(#a)"/>
<path d="m338.66 408.06v125.1" clip-path="url(#a)"/>
<path d="m725.34 408.06v125.1" clip-path="url(#a)"/>
<path d="m1015.4 408.06v125.1" clip-path="url(#a)"/>
</g>
<path d="m339.65 98.417 5.6266-2.1299q2.2446-0.84967 1.3949-3.0942l-2.7411-7.2411q-0.84967-2.2446-3.0942-1.3949l-5.6266 2.1299q-2.2446 0.84967-1.3949 3.0942l2.7411 7.2411q0.84967 2.2446 3.0942 1.3949z" clip-path="url(#a)" fill="#fff" stroke="#fff"/>
<g clip-path="url(#a)">
<defs>
<path id="aa" d="m9.8125 72.906h9.8594v-29.891h35.844v29.891h9.8594v-72.906h-9.8594v34.719h-35.844v-34.719h-9.8594z"/>
</defs>
<g transform="translate(338.21 94.616) rotate(-20.734) scale(.08 -.08)">
<use xlink:href="#aa"/>
</g>
</g>
<path d="m454.27 221.51 1.3789-4.2389q0.7424-2.2823-1.5399-3.0247l-7.3628-2.395q-2.2823-0.7424-3.0247 1.5399l-1.3789 4.2389q-0.7424 2.2823 1.5399 3.0247l7.3628 2.395q2.2823 0.7424 3.0247-1.5399z" clip-path="url(#a)" fill="#fff" stroke="#fff"/>
<g clip-path="url(#a)">
<defs>
<path id="p" d="m9.8125 72.906h9.8594v-64.609h35.5v-8.2969h-45.359z"/>
</defs>
<g transform="translate(450.41 220.25) rotate(-71.981) scale(.08 -.08)">
<use xlink:href="#p"/>
</g>
</g>
<path d="m458.87 97.84 3.8968-4.5837q1.5545-1.8285-0.27401-3.383l-5.8989-5.0149q-1.8285-1.5545-3.383 0.27401l-3.8968 4.5837q-1.5545 1.8285 0.27401 3.383l5.8989 5.0149q1.8285 1.5545 3.383-0.27401z" clip-path="url(#a)" fill="#fff" stroke="#fff"/>
<g clip-path="url(#a)">
<g transform="translate(455.78 95.208) rotate(-49.631) scale(.08 -.08)">
<use xlink:href="#aa"/>
</g>
</g>
<path d="m635.91 219.18 2.5292 3.6705q1.3618 1.9763 3.338 0.61448l6.3755-4.3931q1.9763-1.3618 0.61448-3.338l-2.5292-3.6705q-1.3618-1.9763-3.338-0.61448l-6.3755 4.3931q-1.9763 1.3618-0.61448 3.338z" clip-path="url(#a)" fill="#fff" stroke="#fff"/>
<g clip-path="url(#a)">
<g transform="translate(639.25 216.87) rotate(55.431) scale(.08 -.08)">
<use xlink:href="#p"/>
</g>
</g>
<path d="m639.87 157.39 4.3705 4.1345q1.7435 1.6493 3.3928-0.094159l5.3208-5.6245q1.6493-1.7435-0.094158-3.3928l-4.3705-4.1345q-1.7435-1.6493-3.3928 0.094159l-5.3208 5.6245q-1.6493 1.7435 0.094159 3.3928z" clip-path="url(#a)" fill="#fff" stroke="#fff"/>
<g clip-path="url(#a)">
<g transform="translate(642.66 154.44) rotate(43.41) scale(.08 -.08)">
<use xlink:href="#aa"/>
</g>
</g>
<path d="m429.34 222.7 2.4119-5.3351q0.98866-2.1869-1.1982-3.1756l-7.055-3.1895q-2.1869-0.98866-3.1756 1.1982l-2.4119 5.3351q-0.98866 2.1869 1.1982 3.1756l7.055 3.1895q2.1869 0.98866 3.1756-1.1982z" clip-path="url(#a)" fill="#fff" stroke="#fff"/>
<g clip-path="url(#a)">
<defs>
<path id="x" d="m8.6875 72.906h9.9219v-44.297q0-11.719 4.2344-16.875 4.25-5.1406 13.781-5.1406 9.4688 0 13.719 5.1406 4.25 5.1562 4.25 16.875v44.297h9.9062v-45.516q0-14.25-7.0625-21.531-7.0469-7.2812-20.812-7.2812-13.828 0-20.891 7.2812-7.0469 7.2812-7.0469 21.531z"/>
</defs>
<g transform="translate(425.63 221.03) rotate(-65.673) scale(.08 -.08)">
<use xlink:href="#x"/>
</g>
</g>
<path d="m611.27 217.97 2.8696 5.1036q1.1763 2.092 3.2683 0.91572l6.7488-3.7947q2.092-1.1763 0.91572-3.2682l-2.8696-5.1036q-1.1763-2.092-3.2683-0.91572l-6.7488 3.7947q-2.092 1.1763-0.91572 3.2683z" clip-path="url(#a)" fill="#fff" stroke="#fff"/>
<g clip-path="url(#a)">
<g transform="translate(614.81 215.98) rotate(60.652) scale(.08 -.08)">
<use xlink:href="#x"/>
</g>
</g>
<path d="m124.48 225.52 3.3173-4.3524q1.4548-1.9088-0.45396-3.3636l-6.1578-4.6933q-1.9088-1.4548-3.3636 0.45397l-3.3173 4.3524q-1.4548 1.9088 0.45397 3.3636l6.1578 4.6933q1.9088 1.4548 3.3636-0.45396z" clip-path="url(#a)" fill="#fff" stroke="#fff"/>
<g clip-path="url(#a)">
<defs>
<path id="n" d="m34.188 63.188-13.391-36.281h26.812zm-5.5781 9.7188h11.188l27.781-72.906h-10.25l-6.6406 18.703h-32.859l-6.6406-18.703h-10.406z"/>
</defs>
<g transform="translate(121.25 223.06) rotate(-52.686) scale(.08 -.08)">
<use xlink:href="#n"/>
</g>
</g>
<path d="m163.41 285.09 0.46062-4.8017q0.22918-2.389-2.1599-2.6182l-7.7071-0.73934q-2.389-0.22918-2.6182 2.1599l-0.46063 4.8017q-0.22918 2.389 2.1599 2.6182l7.7071 0.73934q2.389 0.22918 2.6182-2.1599z" clip-path="url(#a)" fill="#fff" stroke="#fff"/>
<g clip-path="url(#a)">
<defs>
<path id="z" d="m19.672 64.797v-27.391h12.406q6.8906 0 10.641 3.5625 3.7656 3.5625 3.7656 10.156 0 6.5469-3.7656 10.109-3.75 3.5625-10.641 3.5625zm-9.8594 8.1094h22.266q12.266 0 18.531-5.5469 6.2812-5.5469 6.2812-16.234 0-10.797-6.2812-16.312-6.2656-5.5156-18.531-5.5156h-12.406v-29.297h-9.8594z"/>
</defs>
<g transform="translate(159.37 284.7) rotate(-84.52) scale(.08 -.08)">
<use xlink:href="#z"/>
</g>
</g>
<path d="m175.07 279.97 0.52258 5.4475q0.22918 2.389 2.6182 2.1599l7.7071-0.73934q2.389-0.22918 2.1599-2.6182l-0.52258-5.4475q-0.22918-2.389-2.6182-2.1599l-7.7071 0.73934q-2.389 0.22918-2.1599 2.6182z" clip-path="url(#a)" fill="#fff" stroke="#fff"/>
<g clip-path="url(#a)">
<g transform="translate(179.11 279.58) rotate(84.52) scale(.08 -.08)">
<use xlink:href="#n"/>
</g>
</g>
<path d="m211.17 221.17 3.3173 4.3524q1.4548 1.9088 3.3636 0.45396l6.1578-4.6933q1.9088-1.4548 0.45396-3.3636l-3.3173-4.3524q-1.4548-1.9088-3.3636-0.45397l-6.1578 4.6933q-1.9088 1.4548-0.45396 3.3636z" clip-path="url(#a)" fill="#fff" stroke="#fff"/>
<g clip-path="url(#a)">
<g transform="translate(214.41 218.71) rotate(52.686) scale(.08 -.08)">
<use xlink:href="#n"/>
</g>
</g>
<path d="m380.72 452.96v35.285q0 2.4 2.4 2.4h7.7425q2.4 0 2.4-2.4v-35.285q0-2.4-2.4-2.4h-7.7425q-2.4 0-2.4 2.4z" clip-path="url(#a)" fill="#fff" stroke="#fff"/>
<g clip-path="url(#a)">
<defs>
<path id="l" d="m-0.29688 72.906h61.672v-8.3125h-25.875v-64.594h-9.9062v64.594h-25.891z"/>
<path id="d" d="m56.203 29.594v-4.3906h-41.312q0.59375-9.2812 5.5938-14.141t13.938-4.8594q5.1719 0 10.031 1.2656t9.6562 3.8125v-8.5q-4.8438-2.0469-9.9219-3.125t-10.297-1.0781q-13.094 0-20.734 7.6094-7.6406 7.625-7.6406 20.625 0 13.422 7.25 21.297 7.25 7.8906 19.562 7.8906 11.031 0 17.453-7.1094 6.4219-7.0938 6.4219-19.297zm-8.9844 2.6406q-0.09375 7.3594-4.125 11.75-4.0312 4.4062-10.672 4.4062-7.5156 0-12.031-4.25t-5.2031-11.969z"/>
<path id="g" d="m41.109 46.297q-1.5156 0.875-3.2969 1.2812-1.7812 0.42188-3.9219 0.42188-7.625 0-11.703-4.9531t-4.0781-14.234v-28.812h-9.0312v54.688h9.0312v-8.5q2.8438 4.9844 7.375 7.3906 4.5469 2.4219 11.047 2.4219 0.92188 0 2.0469-0.125 1.125-0.10938 2.4844-0.35938z"/>
<path id="k" d="m52 44.188q3.375 6.0625 8.0625 8.9375t11.031 2.875q8.5469 0 13.188-5.9844 4.6406-5.9688 4.6406-17v-33.016h-9.0312v32.719q0 7.8594-2.7969 11.656-2.7812 3.8125-8.4844 3.8125-6.9844 0-11.047-4.6406-4.0469-4.625-4.0469-12.641v-30.906h-9.0312v32.719q0 7.9062-2.7812 11.688t-8.5938 3.7812q-6.8906 0-10.953-4.6562-4.0469-4.6562-4.0469-12.625v-30.906h-9.0312v54.688h9.0312v-8.5q3.0781 5.0312 7.375 7.4219t10.203 2.3906q5.9688 0 10.141-3.0312 4.1719-3.0156 6.1719-8.7812z"/>
<path id="i" d="m9.4219 54.688h8.9844v-54.688h-8.9844zm0 21.297h8.9844v-11.391h-8.9844z"/>
<path id="j" d="m54.891 33.016v-33.016h-8.9844v32.719q0 7.7656-3.0312 11.609-3.0312 3.8594-9.0781 3.8594-7.2812 0-11.484-4.6406-4.2031-4.625-4.2031-12.641v-30.906h-9.0312v54.688h9.0312v-8.5q3.2344 4.9375 7.5938 7.375 4.375 2.4375 10.094 2.4375 9.4219 0 14.25-5.8281 4.8438-5.8281 4.8438-17.156z"/>
<path id="f" d="m34.281 27.484q-10.891 0-15.094-2.4844t-4.2031-8.5q0-4.7812 3.1562-7.5938 3.1562-2.7969 8.5625-2.7969 7.4844 0 12 5.2969t4.5156 14.078v2zm17.922 3.7188v-31.203h-8.9844v8.2969q-3.0781-4.9688-7.6719-7.3438t-11.234-2.375q-8.3906 0-13.359 4.7188-4.9531 4.7188-4.9531 12.625 0 9.2188 6.1719 13.906 6.1875 4.6875 18.438 4.6875h12.609v0.89062q0 6.2031-4.0781 9.5938t-11.453 3.3906q-4.6875 0-9.1406-1.125-4.4375-1.125-8.5312-3.375v8.3125q4.9219 1.9062 9.5625 2.8438 4.6406 0.95312 9.0312 0.95312 11.875 0 17.734-6.1562 5.8594-6.1406 5.8594-18.641z"/>
<path id="h" d="m9.4219 75.984h8.9844v-75.984h-8.9844z"/>
</defs>
<g transform="translate(384.79 452.96) rotate(90) scale(.08 -.08)">
<use xlink:href="#l"/>
<use x="60.818359" xlink:href="#d"/>
<use x="122.341797" xlink:href="#g"/>
<use x="163.439453" xlink:href="#k"/>
<use x="260.851562" xlink:href="#i"/>
<use x="288.634766" xlink:href="#j"/>
<use x="352.013672" xlink:href="#f"/>
<use x="413.292969" xlink:href="#h"/>
</g>
</g>
<path d="m411.69 280.66 0.61961 4.5593q0.32319 2.3781 2.7013 2.055l7.672-1.0426q2.3781-0.32319 2.055-2.7013l-0.61962-4.5593q-0.32319-2.3781-2.7013-2.055l-7.672 1.0426q-2.3781 0.32319-2.055 2.7013z" clip-path="url(#a)" fill="#fff" stroke="#fff"/>
<g clip-path="url(#a)">
<defs>
<path id="as" d="m9.8125 72.906h41.891v-8.3125h-32.031v-21.484h28.906v-8.2969h-28.906v-34.812h-9.8594z"/>
</defs>
<g transform="translate(415.71 280.11) rotate(82.261) scale(.08 -.08)">
<use xlink:href="#as"/>
</g>
</g>
<path d="m435.67 281.75 1.5024 4.5838q0.7475 2.2806 3.0281 1.5331l7.3574-2.4115q2.2806-0.7475 1.5331-3.0281l-1.5024-4.5838q-0.7475-2.2806-3.0281-1.5331l-7.3574 2.4115q-2.2806 0.7475-1.5331 3.0281z" clip-path="url(#a)" fill="#fff" stroke="#fff"/>
<g clip-path="url(#a)">
<g transform="translate(439.53 280.49) rotate(71.853) scale(.08 -.08)">
<use xlink:href="#z"/>
</g>
</g>
<path d="m488.96 223.2 4.5313 3.0685q1.9872 1.3457 3.3329-0.64151l4.3413-6.4109q1.3457-1.9872-0.64151-3.3329l-4.5313-3.0685q-1.9872-1.3457-3.3329 0.64151l-4.3413 6.4109q-1.3457 1.9872 0.64151 3.3329z" clip-path="url(#a)" fill="#fff" stroke="#fff"/>
<g clip-path="url(#a)">
<g transform="translate(491.24 219.84) rotate(34.105) scale(.08 -.08)">
<use xlink:href="#n"/>
</g>
</g>
<path d="m250.93 288.67 4.2143-3.4912q1.8482-1.5311 0.31711-3.3793l-4.9393-5.9623q-1.5311-1.8482-3.3793-0.31711l-4.2143 3.4912q-1.8482 1.5311-0.31711 3.3793l4.9393 5.9623q1.5311 1.8482 3.3793 0.31711z" clip-path="url(#a)" fill="#fff" stroke="#fff"/>
<g clip-path="url(#a)">
<g transform="translate(248.34 285.54) rotate(-39.639) scale(.08 -.08)">
<use xlink:href="#n"/>
</g>
</g>
<path d="m767.41 452.96v35.285q0 2.4 2.4 2.4h7.7425q2.4 0 2.4-2.4v-35.285q0-2.4-2.4-2.4h-7.7425q-2.4 0-2.4 2.4z" clip-path="url(#a)" fill="#fff" stroke="#fff"/>
<g clip-path="url(#a)">
<g transform="translate(771.47 452.96) rotate(90) scale(.08 -.08)">
<use xlink:href="#l"/>
<use x="60.818359" xlink:href="#d"/>
<use x="122.341797" xlink:href="#g"/>
<use x="163.439453" xlink:href="#k"/>
<use x="260.851562" xlink:href="#i"/>
<use x="288.634766" xlink:href="#j"/>
<use x="352.013672" xlink:href="#f"/>
<use x="413.292969" xlink:href="#h"/>
</g>
</g>
<path d="m794.96 344.5 1.888 5.8635q0.73558 2.2845 3.0201 1.5489l7.3699-2.373q2.2845-0.73558 1.5489-3.0201l-1.888-5.8635q-0.73558-2.2845-3.0201-1.5489l-7.3699 2.373q-2.2845 0.73558-1.5489 3.0201z" clip-path="url(#a)" fill="#fff" stroke="#fff"/>
<g clip-path="url(#a)">
<defs>
<path id="ac" d="m19.672 64.797v-56.688h11.922q15.094 0 22.094 6.8281 7 6.8438 7 21.594 0 14.641-7 21.453t-22.094 6.8125zm-9.8594 8.1094h20.266q21.188 0 31.094-8.8125 9.9219-8.8125 9.9219-27.562 0-18.859-9.9688-27.703-9.9531-8.8281-31.047-8.8281h-20.266z"/>
</defs>
<g transform="translate(798.83 343.25) rotate(72.152) scale(.08 -.08)">
<use xlink:href="#ac"/>
</g>
</g>
<path d="m819.14 346.62 3.5607 5.0266q1.3873 1.9584 3.3457 0.57112l6.3179-4.4755q1.9584-1.3873 0.57112-3.3457l-3.5607-5.0266q-1.3873-1.9584-3.3457-0.57112l-6.3179 4.4755q-1.9584 1.3873-0.57112 3.3457z" clip-path="url(#a)" fill="#fff" stroke="#fff"/>
<g clip-path="url(#a)">
<g transform="translate(822.46 344.27) rotate(54.687) scale(.08 -.08)">
<use xlink:href="#ac"/>
</g>
</g>
<path d="m843.7 348.06 4.5482 4.1545q1.772 1.6186 3.3906-0.15339l5.2218-5.7166q1.6186-1.772-0.15339-3.3906l-4.5482-4.1545q-1.772-1.6186-3.3906 0.15339l-5.2218 5.7166q-1.6186 1.772 0.15339 3.3906z" clip-path="url(#a)" fill="#fff" stroke="#fff"/>
<g clip-path="url(#a)">
<g transform="translate(846.44 345.06) rotate(42.41) scale(.08 -.08)">
<use xlink:href="#ac"/>
</g>
</g>
<path d="m868.87 349.36 3.9979 2.6992q1.9891 1.3429 3.332-0.64616l4.3324-6.4169q1.3429-1.9891-0.64616-3.332l-3.9979-2.6992q-1.9891-1.3429-3.332 0.64616l-4.3324 6.4169q-1.3429 1.9891 0.64616 3.332z" clip-path="url(#a)" fill="#fff" stroke="#fff"/>
<g clip-path="url(#a)">
<g transform="translate(871.14 345.99) rotate(34.025) scale(.08 -.08)">
<use xlink:href="#z"/>
</g>
</g>
<path d="m437.79 352.17 5.3834-0.98348q2.3609-0.43131 1.9296-2.7922l-1.3914-7.6164q-0.43131-2.3609-2.7922-1.9296l-5.3834 0.98348q-2.3609 0.43131-1.9296 2.7922l1.3914 7.6164q0.43131 2.3609 2.7922 1.9296z" clip-path="url(#a)" fill="#fff" stroke="#fff"/>
<g clip-path="url(#a)">
<g transform="translate(437.06 348.17) rotate(-10.353) scale(.08 -.08)">
<use xlink:href="#n"/>
</g>
</g>
<path d="m893 349.66 5.1616 2.7639q2.1158 1.1329 3.2487-0.98285l3.6548-6.8256q1.1329-2.1158-0.98285-3.2487l-5.1616-2.7639q-2.1158-1.1329-3.2487 0.98285l-3.6548 6.8256q-1.1329 2.1158 0.98285 3.2487z" clip-path="url(#a)" fill="#fff" stroke="#fff"/>
<g clip-path="url(#a)">
<g transform="translate(894.92 346.07) rotate(28.167) scale(.08 -.08)">
<use xlink:href="#x"/>
</g>
</g>
<path d="m815.74 452.96v35.285q0 2.4 2.4 2.4h7.7425q2.4 0 2.4-2.4v-35.285q0-2.4-2.4-2.4h-7.7425q-2.4 0-2.4 2.4z" clip-path="url(#a)" fill="#fff" stroke="#fff"/>
<g clip-path="url(#a)">
<g transform="translate(819.8 452.96) rotate(90) scale(.08 -.08)">
<use xlink:href="#l"/>
<use x="60.818359" xlink:href="#d"/>
<use x="122.341797" xlink:href="#g"/>
<use x="163.439453" xlink:href="#k"/>
<use x="260.851562" xlink:href="#i"/>
<use x="288.634766" xlink:href="#j"/>
<use x="352.013672" xlink:href="#f"/>
<use x="413.292969" xlink:href="#h"/>
</g>
</g>
<path d="m864.08 452.96v35.285q0 2.4 2.4 2.4h7.7425q2.4 0 2.4-2.4v-35.285q0-2.4-2.4-2.4h-7.7425q-2.4 0-2.4 2.4z" clip-path="url(#a)" fill="#fff" stroke="#fff"/>
<g clip-path="url(#a)">
<g transform="translate(868.14 452.96) rotate(90) scale(.08 -.08)">
<use xlink:href="#l"/>
<use x="60.818359" xlink:href="#d"/>
<use x="122.341797" xlink:href="#g"/>
<use x="163.439453" xlink:href="#k"/>
<use x="260.851562" xlink:href="#i"/>
<use x="288.634766" xlink:href="#j"/>
<use x="352.013672" xlink:href="#f"/>
<use x="413.292969" xlink:href="#h"/>
</g>
</g>
<path d="m912.41 452.96v35.285q0 2.4 2.4 2.4h7.7425q2.4 0 2.4-2.4v-35.285q0-2.4-2.4-2.4h-7.7425q-2.4 0-2.4 2.4z" clip-path="url(#a)" fill="#fff" stroke="#fff"/>
<g clip-path="url(#a)">
<g transform="translate(916.47 452.96) rotate(90) scale(.08 -.08)">
<use xlink:href="#l"/>
<use x="60.818359" xlink:href="#d"/>
<use x="122.341797" xlink:href="#g"/>
<use x="163.439453" xlink:href="#k"/>
<use x="260.851562" xlink:href="#i"/>
<use x="288.634766" xlink:href="#j"/>
<use x="352.013672" xlink:href="#f"/>
<use x="413.292969" xlink:href="#h"/>
</g>
</g>
<path d="m960.75 452.96v35.285q0 2.4 2.4 2.4h7.7425q2.4 0 2.4-2.4v-35.285q0-2.4-2.4-2.4h-7.7425q-2.4 0-2.4 2.4z" clip-path="url(#a)" fill="#fff" stroke="#fff"/>
<g clip-path="url(#a)">
<g transform="translate(964.81 452.96) rotate(90) scale(.08 -.08)">
<use xlink:href="#l"/>
<use x="60.818359" xlink:href="#d"/>
<use x="122.341797" xlink:href="#g"/>
<use x="163.439453" xlink:href="#k"/>
<use x="260.851562" xlink:href="#i"/>
<use x="288.634766" xlink:href="#j"/>
<use x="352.013672" xlink:href="#f"/>
<use x="413.292969" xlink:href="#h"/>
</g>
</g>
<path d="m429.06 452.96v35.285q0 2.4 2.4 2.4h7.7425q2.4 0 2.4-2.4v-35.285q0-2.4-2.4-2.4h-7.7425q-2.4 0-2.4 2.4z" clip-path="url(#a)" fill="#fff" stroke="#fff"/>
<g clip-path="url(#a)">
<g transform="translate(433.12 452.96) rotate(90) scale(.08 -.08)">
<use xlink:href="#l"/>
<use x="60.818359" xlink:href="#d"/>
<use x="122.341797" xlink:href="#g"/>
<use x="163.439453" xlink:href="#k"/>
<use x="260.851562" xlink:href="#i"/>
<use x="288.634766" xlink:href="#j"/>
<use x="352.013672" xlink:href="#f"/>
<use x="413.292969" xlink:href="#h"/>
</g>
</g>
<path d="m477.39 452.96v35.285q0 2.4 2.4 2.4h7.7425q2.4 0 2.4-2.4v-35.285q0-2.4-2.4-2.4h-7.7425q-2.4 0-2.4 2.4z" clip-path="url(#a)" fill="#fff" stroke="#fff"/>
<g clip-path="url(#a)">
<g transform="translate(481.46 452.96) rotate(90) scale(.08 -.08)">
<use xlink:href="#l"/>
<use x="60.818359" xlink:href="#d"/>
<use x="122.341797" xlink:href="#g"/>
<use x="163.439453" xlink:href="#k"/>
<use x="260.851562" xlink:href="#i"/>
<use x="288.634766" xlink:href="#j"/>
<use x="352.013672" xlink:href="#f"/>
<use x="413.292969" xlink:href="#h"/>
</g>
</g>
<path d="m564.77 350.62 2.2844-5.0677q0.9863-2.188-1.2017-3.1743l-7.0585-3.1819q-2.188-0.9863-3.1743 1.2017l-2.2844 5.0677q-0.9863 2.188 1.2017 3.1743l7.0585 3.1819q2.188 0.9863 3.1743-1.2017z" clip-path="url(#a)" fill="#fff" stroke="#fff"/>
<g clip-path="url(#a)">
<defs>
<path id="y" d="m44.391 34.188q3.1719-1.0781 6.1719-4.5938t6.0312-9.6719l10.016-19.922h-10.609l-9.3125 18.703q-3.625 7.3281-7.0156 9.7188t-9.25 2.3906h-10.75v-30.812h-9.8594v72.906h22.266q12.5 0 18.656-5.2344 6.1562-5.2188 6.1562-15.766 0-6.8906-3.2031-11.438-3.2031-4.5312-9.2969-6.2812zm-24.719 30.609v-25.875h12.406q7.125 0 10.766 3.2969t3.6406 9.6875-3.6406 9.6406-10.766 3.25z"/>
</defs>
<g transform="translate(561.07 348.95) rotate(-65.735) scale(.08 -.08)">
<use xlink:href="#y"/>
</g>
</g>
<path d="m590.46 348.43 0.32486-5.0446q0.15424-2.395-2.2408-2.5493l-7.7265-0.49757q-2.395-0.15424-2.5493 2.2408l-0.32486 5.0446q-0.15424 2.395 2.2408 2.5493l7.7265 0.49757q2.395 0.15424 2.5493-2.2408z" clip-path="url(#a)" fill="#fff" stroke="#fff"/>
<g clip-path="url(#a)">
<defs>
<path id="ab" d="m9.8125 72.906h46.094v-8.3125h-36.234v-21.578h34.719v-8.2969h-34.719v-26.422h37.109v-8.2969h-46.969z"/>
</defs>
<g transform="translate(586.4 348.17) rotate(-86.315) scale(.08 -.08)">
<use xlink:href="#ab"/>
</g>
</g>
<path d="m613.76 345.9 2.5584 4.966q1.0991 2.1335 3.2327 1.0344l6.8828-3.5459q2.1335-1.0991 1.0344-3.2327l-2.5584-4.966q-1.0991-2.1335-3.2327-1.0344l-6.8828 3.5459q-2.1335 1.0991-1.0344 3.2327z" clip-path="url(#a)" fill="#fff" stroke="#fff"/>
<g clip-path="url(#a)">
<defs>
<path id="ad" d="m64.406 67.281v-10.391q-4.9844 4.6406-10.625 6.9219-5.6406 2.2969-11.984 2.2969-12.5 0-19.141-7.6406t-6.6406-22.094q0-14.406 6.6406-22.047t19.141-7.6406q6.3438 0 11.984 2.2969t10.625 6.9375v-10.312q-5.1719-3.5156-10.969-5.2812-5.7812-1.75-12.219-1.75-16.562 0-26.094 10.125-9.5156 10.141-9.5156 27.672 0 17.578 9.5156 27.703 9.5312 10.141 26.094 10.141 6.5312 0 12.312-1.7344 5.7969-1.7344 10.875-5.2031z"/>
</defs>
<g transform="translate(617.37 344.04) rotate(62.743) scale(.08 -.08)">
<use xlink:href="#ad"/>
</g>
</g>
<path d="m525.73 452.96v35.285q0 2.4 2.4 2.4h7.7425q2.4 0 2.4-2.4v-35.285q0-2.4-2.4-2.4h-7.7425q-2.4 0-2.4 2.4z" clip-path="url(#a)" fill="#fff" stroke="#fff"/>
<g clip-path="url(#a)">
<g transform="translate(529.79 452.96) rotate(90) scale(.08 -.08)">
<use xlink:href="#l"/>
<use x="60.818359" xlink:href="#d"/>
<use x="122.341797" xlink:href="#g"/>
<use x="163.439453" xlink:href="#k"/>
<use x="260.851562" xlink:href="#i"/>
<use x="288.634766" xlink:href="#j"/>
<use x="352.013672" xlink:href="#f"/>
<use x="413.292969" xlink:href="#h"/>
</g>
</g>
<path d="m574.06 452.96v35.285q0 2.4 2.4 2.4h7.7425q2.4 0 2.4-2.4v-35.285q0-2.4-2.4-2.4h-7.7425q-2.4 0-2.4 2.4z" clip-path="url(#a)" fill="#fff" stroke="#fff"/>
<g clip-path="url(#a)">
<g transform="translate(578.13 452.96) rotate(90) scale(.08 -.08)">
<use xlink:href="#l"/>
<use x="60.818359" xlink:href="#d"/>
<use x="122.341797" xlink:href="#g"/>
<use x="163.439453" xlink:href="#k"/>
<use x="260.851562" xlink:href="#i"/>
<use x="288.634766" xlink:href="#j"/>
<use x="352.013672" xlink:href="#f"/>
<use x="413.292969" xlink:href="#h"/>
</g>
</g>
<path d="m643.57 489.12 6.6931-34.644q0.45525-2.3564-1.9012-2.8117l-7.6019-1.4686q-2.3564-0.45525-2.8117 1.9012l-6.6931 34.644q-0.45525 2.3564 1.9012 2.8117l7.6019 1.4686q2.3564 0.45525 2.8117-1.9012z" clip-path="url(#a)" fill="#fff" stroke="#fff"/>
<g clip-path="url(#a)">
<g transform="translate(639.58 488.35) rotate(-79.066) scale(.08 -.08)">
<use xlink:href="#l"/>
<use x="60.818359" xlink:href="#d"/>
<use x="122.341797" xlink:href="#g"/>
<use x="163.439453" xlink:href="#k"/>
<use x="260.851562" xlink:href="#i"/>
<use x="288.634766" xlink:href="#j"/>
<use x="352.013672" xlink:href="#f"/>
<use x="413.292969" xlink:href="#h"/>
</g>
</g>
<path d="m655.42 454.47 6.6931 34.644q0.45525 2.3564 2.8117 1.9012l7.6019-1.4686q2.3564-0.45525 1.9012-2.8117l-6.6931-34.644q-0.45525-2.3564-2.8117-1.9012l-7.6019 1.4686q-2.3564 0.45525-1.9012 2.8117z" clip-path="url(#a)" fill="#fff" stroke="#fff"/>
<g clip-path="url(#a)">
<g transform="translate(659.41 453.7) rotate(79.066) scale(.08 -.08)">
<use xlink:href="#l"/>
<use x="60.818359" xlink:href="#d"/>
<use x="122.341797" xlink:href="#g"/>
<use x="163.439453" xlink:href="#k"/>
<use x="260.851562" xlink:href="#i"/>
<use x="288.634766" xlink:href="#j"/>
<use x="352.013672" xlink:href="#f"/>
<use x="413.292969" xlink:href="#h"/>
</g>
</g>
<path d="m66.409 349.18 0.95886-4.9632q0.45525-2.3564-1.9012-2.8117l-7.6019-1.4686q-2.3564-0.45525-2.8117 1.9012l-0.95886 4.9632q-0.45525 2.3564 1.9012 2.8117l7.6019 1.4686q2.3564 0.45525 2.8117-1.9012z" clip-path="url(#a)" fill="#fff" stroke="#fff"/>
<g clip-path="url(#a)">
<g transform="translate(62.419 348.41) rotate(-79.066) scale(.08 -.08)">
<use xlink:href="#ab"/>
</g>
</g>
<path d="m78.211 343.96 1.0596 5.4848q0.45525 2.3564 2.8117 1.9012l7.6019-1.4686q2.3564-0.45525 1.9012-2.8117l-1.0596-5.4848q-0.45525-2.3564-2.8117-1.9012l-7.6019 1.4686q-2.3564 0.45525-1.9012 2.8117z" clip-path="url(#a)" fill="#fff" stroke="#fff"/>
<g clip-path="url(#a)">
<g transform="translate(82.201 343.19) rotate(79.066) scale(.08 -.08)">
<use xlink:href="#ad"/>
</g>
</g>
<path d="m139.05 452.96v35.285q0 2.4 2.4 2.4h7.7425q2.4 0 2.4-2.4v-35.285q0-2.4-2.4-2.4h-7.7425q-2.4 0-2.4 2.4z" clip-path="url(#a)" fill="#fff" stroke="#fff"/>
<g clip-path="url(#a)">
<g transform="translate(143.11 452.96) rotate(90) scale(.08 -.08)">
<use xlink:href="#l"/>
<use x="60.818359" xlink:href="#d"/>
<use x="122.341797" xlink:href="#g"/>
<use x="163.439453" xlink:href="#k"/>
<use x="260.851562" xlink:href="#i"/>
<use x="288.634766" xlink:href="#j"/>
<use x="352.013672" xlink:href="#f"/>
<use x="413.292969" xlink:href="#h"/>
</g>
</g>
<path d="m187.38 452.96v35.285q0 2.4 2.4 2.4h7.7425q2.4 0 2.4-2.4v-35.285q0-2.4-2.4-2.4h-7.7425q-2.4 0-2.4 2.4z" clip-path="url(#a)" fill="#fff" stroke="#fff"/>
<g clip-path="url(#a)">
<g transform="translate(191.45 452.96) rotate(90) scale(.08 -.08)">
<use xlink:href="#l"/>
<use x="60.818359" xlink:href="#d"/>
<use x="122.341797" xlink:href="#g"/>
<use x="163.439453" xlink:href="#k"/>
<use x="260.851562" xlink:href="#i"/>
<use x="288.634766" xlink:href="#j"/>
<use x="352.013672" xlink:href="#f"/>
<use x="413.292969" xlink:href="#h"/>
</g>
</g>
<path d="m259.75 349.18 0.95886-4.9632q0.45525-2.3564-1.9012-2.8117l-7.6019-1.4686q-2.3564-0.45525-2.8117 1.9012l-0.95886 4.9632q-0.45525 2.3564 1.9012 2.8117l7.6019 1.4686q2.3564 0.45525 2.8117-1.9012z" clip-path="url(#a)" fill="#fff" stroke="#fff"/>
<g clip-path="url(#a)">
<g transform="translate(255.76 348.41) rotate(-79.066) scale(.08 -.08)">
<use xlink:href="#ab"/>
</g>
</g>
<path d="m271.55 343.96 1.0596 5.4848q0.45525 2.3564 2.8117 1.9012l7.6019-1.4686q2.3564-0.45525 1.9012-2.8117l-1.0596-5.4848q-0.45525-2.3564-2.8117-1.9012l-7.6019 1.4686q-2.3564 0.45525-1.9012 2.8117z" clip-path="url(#a)" fill="#fff" stroke="#fff"/>
<g clip-path="url(#a)">
<g transform="translate(275.54 343.19) rotate(79.066) scale(.08 -.08)">
<use xlink:href="#ad"/>
</g>
</g>
<path d="m235.72 452.96v35.285q0 2.4 2.4 2.4h7.7425q2.4 0 2.4-2.4v-35.285q0-2.4-2.4-2.4h-7.7425q-2.4 0-2.4 2.4z" clip-path="url(#a)" fill="#fff" stroke="#fff"/>
<g clip-path="url(#a)">
<g transform="translate(239.78 452.96) rotate(90) scale(.08 -.08)">
<use xlink:href="#l"/>
<use x="60.818359" xlink:href="#d"/>
<use x="122.341797" xlink:href="#g"/>
<use x="163.439453" xlink:href="#k"/>
<use x="260.851562" xlink:href="#i"/>
<use x="288.634766" xlink:href="#j"/>
<use x="352.013672" xlink:href="#f"/>
<use x="413.292969" xlink:href="#h"/>
</g>
</g>
<path d="m284.05 452.96v35.285q0 2.4 2.4 2.4h7.7425q2.4 0 2.4-2.4v-35.285q0-2.4-2.4-2.4h-7.7425q-2.4 0-2.4 2.4z" clip-path="url(#a)" fill="#fff" stroke="#fff"/>
<g clip-path="url(#a)">
<g transform="translate(288.12 452.96) rotate(90) scale(.08 -.08)">
<use xlink:href="#l"/>
<use x="60.818359" xlink:href="#d"/>
<use x="122.341797" xlink:href="#g"/>
<use x="163.439453" xlink:href="#k"/>
<use x="260.851562" xlink:href="#i"/>
<use x="288.634766" xlink:href="#j"/>
<use x="352.013672" xlink:href="#f"/>
<use x="413.292969" xlink:href="#h"/>
</g>
</g>
<path d="m42.376 452.96v35.285q0 2.4 2.4 2.4h7.7425q2.4 0 2.4-2.4v-35.285q0-2.4-2.4-2.4h-7.7425q-2.4 0-2.4 2.4z" clip-path="url(#a)" fill="#fff" stroke="#fff"/>
<g clip-path="url(#a)">
<g transform="translate(46.439 452.96) rotate(90) scale(.08 -.08)">
<use xlink:href="#l"/>
<use x="60.818359" xlink:href="#d"/>
<use x="122.341797" xlink:href="#g"/>
<use x="163.439453" xlink:href="#k"/>
<use x="260.851562" xlink:href="#i"/>
<use x="288.634766" xlink:href="#j"/>
<use x="352.013672" xlink:href="#f"/>
<use x="413.292969" xlink:href="#h"/>
</g>
</g>
<path d="m90.711 452.96v35.285q0 2.4 2.4 2.4h7.7425q2.4 0 2.4-2.4v-35.285q0-2.4-2.4-2.4h-7.7425q-2.4 0-2.4 2.4z" clip-path="url(#a)" fill="#fff" stroke="#fff"/>
<g clip-path="url(#a)">
<g transform="translate(94.775 452.96) rotate(90) scale(.08 -.08)">
<use xlink:href="#l"/>
<use x="60.818359" xlink:href="#d"/>
<use x="122.341797" xlink:href="#g"/>
<use x="163.439453" xlink:href="#k"/>
<use x="260.851562" xlink:href="#i"/>
<use x="288.634766" xlink:href="#j"/>
<use x="352.013672" xlink:href="#f"/>
<use x="413.292969" xlink:href="#h"/>
</g>
</g>
<path d="m525.08 99.336 8.8306-4.5469q2.1338-1.0987 1.0351-3.2324l-3.5444-6.8836q-1.0987-2.1338-3.2324-1.0351l-8.8306 4.5469q-2.1338 1.0987-1.0351 3.2324l3.5444 6.8836q1.0987 2.1338 3.2324 1.0351z" clip-path="url(#a)" fill="#fff" stroke="#fff"/>
<g clip-path="url(#a)">
<g transform="translate(523.22 95.723) rotate(-27.244) scale(.08 -.08)">
<use xlink:href="#p"/>
<use x="55.744141" xlink:href="#n"/>
</g>
</g>
<path d="m705.43 214.59 3.0419 9.5432q0.72886 2.2866 3.0155 1.5578l7.3768-2.3513q2.2866-0.72886 1.5578-3.0155l-3.0419-9.5432q-0.72886-2.2866-3.0155-1.5578l-7.3768 2.3513q-2.2866 0.72886-1.5578 3.0155z" clip-path="url(#a)" fill="#fff" stroke="#fff"/>
<g clip-path="url(#a)">
<g transform="translate(709.3 213.35) rotate(72.32) scale(.08 -.08)">
<use xlink:href="#p"/>
<use x="55.712891" xlink:href="#y"/>
</g>
</g>
<path d="m709.11 153.3 4.4837 8.8629q1.0834 2.1416 3.2249 1.0582l6.9087-3.4951q2.1416-1.0834 1.0582-3.2249l-4.4837-8.8629q-1.0834-2.1416-3.2249-1.0582l-6.9087 3.4951q-2.1416 1.0834-1.0582 3.2249z" clip-path="url(#a)" fill="#fff" stroke="#fff"/>
<g clip-path="url(#a)">
<g transform="translate(712.74 151.47) rotate(63.166) scale(.08 -.08)">
<use xlink:href="#p"/>
<use x="55.744141" xlink:href="#n"/>
</g>
</g>
<path d="m244.68 99.479 7.5175-6.4917q1.8165-1.5686 0.24785-3.385l-5.0604-5.8599q-1.5686-1.8165-3.3851-0.24785l-7.5175 6.4917q-1.8165 1.5686-0.24785 3.3851l5.0604 5.8599q1.5686 1.8165 3.3851 0.24785z" clip-path="url(#a)" fill="#fff" stroke="#fff"/>
<g clip-path="url(#a)">
<g transform="translate(242.02 96.403) rotate(-40.812) scale(.08 -.08)">
<use xlink:href="#p"/>
<use x="55.744141" xlink:href="#n"/>
</g>
</g>
<path d="m346.04 213.62 1.754 9.8615q0.42028 2.3629 2.7832 1.9426l7.6229-1.3558q2.3629-0.42028 1.9426-2.7832l-1.754-9.8615q-0.42028-2.3629-2.7832-1.9426l-7.6229 1.3558q-2.3629 0.42028-1.9426 2.7832z" clip-path="url(#a)" fill="#fff" stroke="#fff"/>
<g clip-path="url(#a)">
<g transform="translate(350.04 212.91) rotate(79.915) scale(.08 -.08)">
<use xlink:href="#p"/>
<use x="55.712891" xlink:href="#y"/>
</g>
</g>
<path d="m352.19 90.647 5.3156 8.3904q1.2844 2.0274 3.3118 0.74298l6.5404-4.1436q2.0274-1.2844 0.74298-3.3118l-5.3156-8.3904q-1.2844-2.0274-3.3118-0.74298l-6.5404 4.1436q-2.0274 1.2844-0.74298 3.3118z" clip-path="url(#a)" fill="#fff" stroke="#fff"/>
<g clip-path="url(#a)">
<g transform="translate(355.62 88.473) rotate(57.645) scale(.08 -.08)">
<use xlink:href="#p"/>
<use x="55.744141" xlink:href="#n"/>
</g>
</g>
<path d="m332.39 452.96v35.285q0 2.4 2.4 2.4h7.7425q2.4 0 2.4-2.4v-35.285q0-2.4-2.4-2.4h-7.7425q-2.4 0-2.4 2.4z" clip-path="url(#a)" fill="#fff" stroke="#fff"/>
<g clip-path="url(#a)">
<g transform="translate(336.45 452.96) rotate(90) scale(.08 -.08)">
<use xlink:href="#l"/>
<use x="60.818359" xlink:href="#d"/>
<use x="122.341797" xlink:href="#g"/>
<use x="163.439453" xlink:href="#k"/>
<use x="260.851562" xlink:href="#i"/>
<use x="288.634766" xlink:href="#j"/>
<use x="352.013672" xlink:href="#f"/>
<use x="413.292969" xlink:href="#h"/>
</g>
</g>
<path d="m719.07 452.96v35.285q0 2.4 2.4 2.4h7.7425q2.4 0 2.4-2.4v-35.285q0-2.4-2.4-2.4h-7.7425q-2.4 0-2.4 2.4z" clip-path="url(#a)" fill="#fff" stroke="#fff"/>
<g clip-path="url(#a)">
<g transform="translate(723.13 452.96) rotate(90) scale(.08 -.08)">
<use xlink:href="#l"/>
<use x="60.818359" xlink:href="#d"/>
<use x="122.341797" xlink:href="#g"/>
<use x="163.439453" xlink:href="#k"/>
<use x="260.851562" xlink:href="#i"/>
<use x="288.634766" xlink:href="#j"/>
<use x="352.013672" xlink:href="#f"/>
<use x="413.292969" xlink:href="#h"/>
</g>
</g>
<path d="m1009.1 452.96v35.285q0 2.4 2.4 2.4h7.7425q2.4 0 2.4-2.4v-35.285q0-2.4-2.4-2.4h-7.7425q-2.4 0-2.4 2.4z" clip-path="url(#a)" fill="#fff" stroke="#fff"/>
<g clip-path="url(#a)">
<g transform="translate(1013.1 452.96) rotate(90) scale(.08 -.08)">
<use xlink:href="#l"/>
<use x="60.818359" xlink:href="#d"/>
<use x="122.341797" xlink:href="#g"/>
<use x="163.439453" xlink:href="#k"/>
<use x="260.851562" xlink:href="#i"/>
<use x="288.634766" xlink:href="#j"/>
<use x="352.013672" xlink:href="#f"/>
<use x="413.292969" xlink:href="#h"/>
</g>
</g>
<defs>
<path id="b" d="m0 8.6603c2.2967 0 4.4997-0.9125 6.1237-2.5365 1.624-1.624 2.5365-3.827 2.5365-6.1237s-0.9125-4.4997-2.5365-6.1237c-1.624-1.624-3.827-2.5365-6.1237-2.5365s-4.4997 0.9125-6.1237 2.5365c-1.624 1.624-2.5365 3.827-2.5365 6.1237s0.9125 4.4997 2.5365 6.1237c1.624 1.624 3.827 2.5365 6.1237 2.5365z"/>
</defs>
<g clip-path="url(#a)">
<use x="48.646897" y="533.152564" fill="#ffffff" stroke="#ffffff" xlink:href="#b"/>
</g>
<g clip-path="url(#a)">
<use x="96.982207" y="533.152564" fill="#ffffff" stroke="#ffffff" xlink:href="#b"/>
</g>
<g clip-path="url(#a)">
<use x="145.317517" y="533.152564" fill="#ffffff" stroke="#ffffff" xlink:href="#b"/>
</g>
<g clip-path="url(#a)">
<use x="193.652828" y="533.152564" fill="#ffffff" stroke="#ffffff" xlink:href="#b"/>
</g>
<g clip-path="url(#a)">
<use x="241.988138" y="533.152564" fill="#ffffff" stroke="#ffffff" xlink:href="#b"/>
</g>
<g clip-path="url(#a)">
<use x="290.323448" y="533.152564" fill="#ffffff" stroke="#ffffff" xlink:href="#b"/>
</g>
<g clip-path="url(#a)">
<use x="338.658759" y="533.152564" fill="#ffffff" stroke="#ffffff" xlink:href="#b"/>
</g>
<g clip-path="url(#a)">
<use x="386.994069" y="533.152564" fill="#ffffff" stroke="#ffffff" xlink:href="#b"/>
</g>
<g clip-path="url(#a)">
<use x="435.329379" y="533.152564" fill="#ffffff" stroke="#ffffff" xlink:href="#b"/>
</g>
<g clip-path="url(#a)">
<use x="483.66469" y="533.152564" fill="#ffffff" stroke="#ffffff" xlink:href="#b"/>
</g>
<g clip-path="url(#a)">
<use x="532" y="533.152564" fill="#ffffff" stroke="#ffffff" xlink:href="#b"/>
</g>
<g clip-path="url(#a)">
<use x="580.33531" y="533.152564" fill="#ffffff" stroke="#ffffff" xlink:href="#b"/>
</g>
<g clip-path="url(#a)">
<use x="628.670621" y="533.152564" fill="#ffffff" stroke="#ffffff" xlink:href="#b"/>
</g>
<g clip-path="url(#a)">
<use x="677.005931" y="533.152564" fill="#ffffff" stroke="#ffffff" xlink:href="#b"/>
</g>
<g clip-path="url(#a)">
<use x="725.341241" y="533.152564" fill="#ffffff" stroke="#ffffff" xlink:href="#b"/>
</g>
<g clip-path="url(#a)">
<use x="773.676552" y="533.152564" fill="#ffffff" stroke="#ffffff" xlink:href="#b"/>
</g>
<g clip-path="url(#a)">
<use x="822.011862" y="533.152564" fill="#ffffff" stroke="#ffffff" xlink:href="#b"/>
</g>
<g clip-path="url(#a)">
<use x="870.347172" y="533.152564" fill="#ffffff" stroke="#ffffff" xlink:href="#b"/>
</g>
<g clip-path="url(#a)">
<use x="918.682483" y="533.152564" fill="#ffffff" stroke="#ffffff" xlink:href="#b"/>
</g>
<g clip-path="url(#a)">
<use x="967.017793" y="533.152564" fill="#ffffff" stroke="#ffffff" xlink:href="#b"/>
</g>
<g clip-path="url(#a)">
<use x="1015.353103" y="533.152564" fill="#ffffff" stroke="#ffffff" xlink:href="#b"/>
</g>
<g clip-path="url(#a)">
<use x="510.997157" y="26.847436" fill="#ffffff" stroke="#ffffff" xlink:href="#b"/>
</g>
<g clip-path="url(#a)">
<use x="169.485173" y="156.125566" fill="#ffffff" stroke="#ffffff" xlink:href="#b"/>
</g>
<g clip-path="url(#a)">
<use x="386.994069" y="408.05697" fill="#ffffff" stroke="#ffffff" xlink:href="#b"/>
</g>
<g clip-path="url(#a)">
<use x="401.091868" y="156.125566" fill="#ffffff" stroke="#ffffff" xlink:href="#b"/>
</g>
<g clip-path="url(#a)">
<use x="773.676552" y="408.05697" fill="#ffffff" stroke="#ffffff" xlink:href="#b"/>
</g>
<g clip-path="url(#a)">
<use x="781.732437" y="282.961377" fill="#ffffff" stroke="#ffffff" xlink:href="#b"/>
</g>
<g clip-path="url(#a)">
<use x="822.011862" y="408.05697" fill="#ffffff" stroke="#ffffff" xlink:href="#b"/>
</g>
<g clip-path="url(#a)">
<use x="870.347172" y="408.05697" fill="#ffffff" stroke="#ffffff" xlink:href="#b"/>
</g>
<g clip-path="url(#a)">
<use x="918.682483" y="408.05697" fill="#ffffff" stroke="#ffffff" xlink:href="#b"/>
</g>
<g clip-path="url(#a)">
<use x="967.017793" y="408.05697" fill="#ffffff" stroke="#ffffff" xlink:href="#b"/>
</g>
<g clip-path="url(#a)">
<use x="435.329379" y="408.05697" fill="#ffffff" stroke="#ffffff" xlink:href="#b"/>
</g>
<g clip-path="url(#a)">
<use x="483.66469" y="408.05697" fill="#ffffff" stroke="#ffffff" xlink:href="#b"/>
</g>
<g clip-path="url(#a)">
<use x="588.391195" y="282.961377" fill="#ffffff" stroke="#ffffff" xlink:href="#b"/>
</g>
<g clip-path="url(#a)">
<use x="532" y="408.05697" fill="#ffffff" stroke="#ffffff" xlink:href="#b"/>
</g>
<g clip-path="url(#a)">
<use x="580.33531" y="408.05697" fill="#ffffff" stroke="#ffffff" xlink:href="#b"/>
</g>
<g clip-path="url(#a)">
<use x="652.838276" y="408.05697" fill="#ffffff" stroke="#ffffff" xlink:href="#b"/>
</g>
<g clip-path="url(#a)">
<use x="72.814552" y="282.961377" fill="#ffffff" stroke="#ffffff" xlink:href="#b"/>
</g>
<g clip-path="url(#a)">
<use x="145.317517" y="408.05697" fill="#ffffff" stroke="#ffffff" xlink:href="#b"/>
</g>
<g clip-path="url(#a)">
<use x="193.652828" y="408.05697" fill="#ffffff" stroke="#ffffff" xlink:href="#b"/>
</g>
<g clip-path="url(#a)">
<use x="266.155793" y="282.961377" fill="#ffffff" stroke="#ffffff" xlink:href="#b"/>
</g>
<g clip-path="url(#a)">
<use x="241.988138" y="408.05697" fill="#ffffff" stroke="#ffffff" xlink:href="#b"/>
</g>
<g clip-path="url(#a)">
<use x="290.323448" y="408.05697" fill="#ffffff" stroke="#ffffff" xlink:href="#b"/>
</g>
<g clip-path="url(#a)">
<use x="48.646897" y="408.05697" fill="#ffffff" stroke="#ffffff" xlink:href="#b"/>
</g>
<g clip-path="url(#a)">
<use x="96.982207" y="408.05697" fill="#ffffff" stroke="#ffffff" xlink:href="#b"/>
</g>
<g clip-path="url(#a)">
<use x="652.166952" y="26.847436" fill="#808080" stroke="#808080" xlink:href="#b"/>
</g>
<g clip-path="url(#a)">
<use x="319.19037" y="26.847436" fill="#808080" stroke="#808080" xlink:href="#b"/>
</g>
<g clip-path="url(#a)">
<use x="338.658759" y="408.05697" fill="#ffffff" stroke="#ffffff" xlink:href="#b"/>
</g>
<g clip-path="url(#a)">
<use x="725.341241" y="408.05697" fill="#ffffff" stroke="#ffffff" xlink:href="#b"/>
</g>
<g clip-path="url(#a)">
<use x="1015.353103" y="408.05697" fill="#ffffff" stroke="#ffffff" xlink:href="#b"/>
</g>
<g clip-path="url(#a)">
<defs>
<path id="v" d="m54.891 33.016v-33.016h-8.9844v32.719q0 7.7656-3.0312 11.609-3.0312 3.8594-9.0781 3.8594-7.2812 0-11.484-4.6406-4.2031-4.625-4.2031-12.641v-30.906h-9.0312v75.984h9.0312v-29.797q3.2344 4.9375 7.5938 7.375 4.375 2.4375 10.094 2.4375 9.4219 0 14.25-5.8281 4.8438-5.8281 4.8438-17.156z"/>
</defs>
<g transform="translate(39.348 535.91) scale(.1 -.1)">
<use xlink:href="#l"/>
<use x="61.083984" xlink:href="#v"/>
<use x="124.462891" xlink:href="#d"/>
</g>
</g>
<g clip-path="url(#a)">
<defs>
<path id="ak" d="m48.781 52.594v-8.4062q-3.8125 2.1094-7.6406 3.1562t-7.7344 1.0469q-8.75 0-13.594-5.5469-4.8281-5.5312-4.8281-15.547t4.8281-15.562q4.8438-5.5312 13.594-5.5312 3.9062 0 7.7344 1.0469t7.6406 3.1562v-8.3125q-3.7656-1.75-7.7969-2.625-4.0156-0.89062-8.5625-0.89062-12.359 0-19.641 7.7656-7.2656 7.7656-7.2656 20.953 0 13.375 7.3438 21.031 7.3594 7.6719 20.156 7.6719 4.1406 0 8.0938-0.85938 3.9531-0.84375 7.6719-2.5469z"/>
<path id="aj" d="m4.2031 54.688h8.9844l11.234-42.672 11.172 42.672h10.594l11.234-42.672 11.188 42.672h8.9844l-14.312-54.688h-10.594l-11.766 44.828-11.812-44.828h-10.609z"/>
</defs>
<g transform="translate(85.013 535.91) scale(.1 -.1)">
<use xlink:href="#ak"/>
<use x="54.980469" xlink:href="#g"/>
<use x="96.0625" xlink:href="#d"/>
<use x="157.585938" xlink:href="#aj"/>
</g>
</g>
<g clip-path="url(#a)">
<defs>
<path id="t" d="m45.406 46.391v29.594h8.9844v-75.984h-8.9844v8.2031q-2.8281-4.875-7.1562-7.25-4.3125-2.375-10.375-2.375-9.9062 0-16.141 7.9062-6.2188 7.9219-6.2188 20.812t6.2188 20.797q6.2344 7.9062 16.141 7.9062 6.0625 0 10.375-2.375 4.3281-2.3594 7.1562-7.2344zm-30.609-19.094q0-9.9062 4.0781-15.547t11.203-5.6406 11.219 5.6406q4.1094 5.6406 4.1094 15.547t-4.1094 15.547q-4.0938 5.6406-11.219 5.6406t-11.203-5.6406-4.0781-15.547z"/>
</defs>
<g transform="translate(130.48 535.91) scale(.1 -.1)">
<use xlink:href="#ak"/>
<use x="54.980469" xlink:href="#f"/>
<use x="116.259766" xlink:href="#h"/>
<use x="144.042969" xlink:href="#h"/>
<use x="171.826172" xlink:href="#d"/>
<use x="233.349609" xlink:href="#t"/>
</g>
</g>
<g clip-path="url(#a)">
<defs>
<path id="r" d="m18.312 70.219v-15.531h18.5v-6.9844h-18.5v-29.688q0-6.6875 1.8281-8.5938t7.4531-1.9062h9.2188v-7.5156h-9.2188q-10.406 0-14.359 3.875-3.9531 3.8906-3.9531 14.141v29.688h-6.5938v6.9844h6.5938v15.531z"/>
<path id="s" d="m44.281 53.078v-8.5q-3.7969 1.9531-7.9062 2.9219-4.0938 0.98438-8.5 0.98438-6.6875 0-10.031-2.0469t-3.3438-6.1562q0-3.125 2.3906-4.9062t9.625-3.3906l3.0781-0.6875q9.5625-2.0469 13.594-5.7812t4.0312-10.422q0-7.625-6.0312-12.078-6.0312-4.4375-16.578-4.4375-4.3906 0-9.1562 0.85938t-10.031 2.5625v9.2812q4.9844-2.5938 9.8125-3.8906 4.8281-1.2812 9.5781-1.2812 6.3438 0 9.75 2.1719 3.4219 2.1719 3.4219 6.125 0 3.6562-2.4688 5.6094-2.4531 1.9531-10.812 3.7656l-3.125 0.73438q-8.3438 1.75-12.062 5.3906-3.7031 3.6406-3.7031 9.9844 0 7.7188 5.4688 11.906 5.4688 4.2031 15.531 4.2031 4.9688 0 9.3594-0.73438 4.4062-0.71875 8.1094-2.1875z"/>
<path id="aw" d="m2.9844 54.688h9.5156l17.094-45.891 17.094 45.891h9.5156l-20.516-54.688h-12.203z"/>
</defs>
<g transform="translate(164.87 535.91) scale(.1 -.1)">
<use xlink:href="#r"/>
<use x="39.208984" xlink:href="#v"/>
<use x="102.587891" xlink:href="#d"/>
<use x="164.111328" xlink:href="#k"/>
<use x="261.523438" xlink:href="#s"/>
<use x="313.623047" xlink:href="#d"/>
<use x="375.146484" xlink:href="#h"/>
<use x="402.929688" xlink:href="#aw"/>
<use x="462.109375" xlink:href="#d"/>
<use x="523.632812" xlink:href="#s"/>
</g>
</g>
<g clip-path="url(#a)">
<defs>
<path id="ar" d="m18.797 48.875h-10.297v8.4531l8 15.578h6.2969l-4-15.578zm20.016 0h-10.297v8.4531l8.0156 15.578h6.2969l-4.0156-15.578z"/>
<path id="o" d="m30.609 48.391q-7.2188 0-11.422-5.6406t-4.2031-15.453 4.1719-15.453q4.1875-5.6406 11.453-5.6406 7.1875 0 11.375 5.6562 4.2031 5.6719 4.2031 15.438 0 9.7188-4.2031 15.406-4.1875 5.6875-11.375 5.6875zm0 7.6094q11.719 0 18.406-7.625 6.7031-7.6094 6.7031-21.078 0-13.422-6.7031-21.078-6.6875-7.6406-18.406-7.6406-11.766 0-18.438 7.6406-6.6562 7.6562-6.6562 21.078 0 13.469 6.6562 21.078 6.6719 7.625 18.438 7.625z"/>
<path id="u" d="m8.5 21.578v33.109h8.9844v-32.766q0-7.7656 3.0156-11.656 3.0312-3.875 9.0938-3.875 7.2656 0 11.484 4.6406 4.2344 4.6406 4.2344 12.656v31h8.9844v-54.688h-8.9844v8.4062q-3.2656-4.9844-7.5938-7.4062-4.3125-2.4219-10.031-2.4219-9.4219 0-14.312 5.8594-4.875 5.8594-4.875 17.141z"/>
<path id="ap" d="m4.8906 31.391h26.312v-8h-26.312z"/>
</defs>
<g transform="translate(210.01 535.91) scale(.1 -.1)">
<use xlink:href="#ar"/>
<use x="51.697266" xlink:href="#o"/>
<use x="112.878906" xlink:href="#u"/>
<use x="176.257812" xlink:href="#r"/>
<use x="215.466797" xlink:href="#ap"/>
<use x="251.550781" xlink:href="#f"/>
<use x="312.830078" xlink:href="#j"/>
<use x="376.208984" xlink:href="#t"/>
<use x="439.685547" xlink:href="#ap"/>
<use x="475.785156" xlink:href="#o"/>
<use x="536.966797" xlink:href="#u"/>
<use x="600.345703" xlink:href="#r"/>
</g>
</g>
<g clip-path="url(#a)">
<defs>
<path id="w" d="m37.109 75.984v-7.4844h-8.5938q-4.8281 0-6.7188-1.9531-1.875-1.9531-1.875-7.0312v-4.8281h14.797v-6.9844h-14.797v-47.703h-9.0312v47.703h-8.5938v6.9844h8.5938v3.8125q0 9.125 4.25 13.297 4.25 4.1875 13.469 4.1875z"/>
</defs>
<g transform="translate(278.45 535.91) scale(.1 -.1)">
<use xlink:href="#w"/>
<use x="35.205078" xlink:href="#o"/>
<use x="96.386719" xlink:href="#o"/>
<use x="157.568359" xlink:href="#h"/>
<use x="185.351562" xlink:href="#s"/>
</g>
</g>
<g clip-path="url(#a)">
<defs>
<path id="au" d="m17.922 72.906v-27.109h-8.2969v27.109zm18.453 0v-27.109h-8.2969v27.109z"/>
</defs>
<g transform="translate(336.36 535.91) scale(.1 -.1)">
<use xlink:href="#au"/>
</g>
</g>
<g clip-path="url(#a)">
<g transform="translate(380.12 535.91) scale(.1 -.1)">
<use xlink:href="#w"/>
<use x="35.205078" xlink:href="#o"/>
<use x="96.386719" xlink:href="#g"/>
</g>
</g>
<g clip-path="url(#a)">
<defs>
<path id="al" d="m48.688 27.297q0 9.9062-4.0781 15.547t-11.203 5.6406q-7.1406 0-11.219-5.6406t-4.0781-15.547 4.0781-15.547 11.219-5.6406q7.125 0 11.203 5.6406t4.0781 15.547zm-30.578 19.094q2.8438 4.875 7.1562 7.2344 4.3281 2.375 10.328 2.375 9.9688 0 16.188-7.9062 6.2344-7.9062 6.2344-20.797t-6.2344-20.812q-6.2188-7.9062-16.188-7.9062-6 0-10.328 2.375-4.3125 2.375-7.1562 7.25v-8.2031h-9.0312v75.984h9.0312z"/>
<path id="aq" d="m45.406 27.984q0 9.7656-4.0312 15.125-4.0156 5.375-11.297 5.375-7.2188 0-11.25-5.375-4.0312-5.3594-4.0312-15.125 0-9.7188 4.0312-15.094t11.25-5.375q7.2812 0 11.297 5.375 4.0312 5.375 4.0312 15.094zm8.9844-21.203q0-13.953-6.2031-20.766-6.1875-6.8125-18.984-6.8125-4.7344 0-8.9375 0.70312t-8.1562 2.1719v8.7344q3.9531-2.1406 7.8125-3.1562 3.8594-1.0312 7.8594-1.0312 8.8438 0 13.234 4.6094t4.3906 13.938v4.4531q-2.7812-4.8438-7.125-7.2344t-10.406-2.3906q-10.047 0-16.203 7.6562-6.1562 7.6719-6.1562 20.328 0 12.688 6.1562 20.344 6.1562 7.6719 16.203 7.6719 6.0625 0 10.406-2.3906t7.125-7.2188v8.2969h8.9844z"/>
</defs>
<g transform="translate(421.35 535.91) scale(.1 -.1)">
<use xlink:href="#al"/>
<use x="63.476562" xlink:href="#d"/>
<use x="125" xlink:href="#i"/>
<use x="152.783203" xlink:href="#j"/>
<use x="216.162109" xlink:href="#aq"/>
</g>
</g>
<g clip-path="url(#a)">
<defs>
<path id="ax" d="m9.0781 75.984h9.0312v-44.875l26.812 23.578h11.469l-29-25.578 30.234-29.109h-11.719l-27.797 26.703v-26.703h-9.0312z"/>
</defs>
<g transform="translate(453.41 535.91) scale(.1 -.1)">
<use xlink:href="#v"/>
<use x="63.378906" xlink:href="#o"/>
<use x="124.560547" xlink:href="#o"/>
<use x="185.742188" xlink:href="#t"/>
<use x="249.21875" xlink:href="#aj"/>
<use x="331.005859" xlink:href="#i"/>
<use x="358.789062" xlink:href="#j"/>
<use x="422.167969" xlink:href="#ax"/>
<use x="480.03125" xlink:href="#d"/>
<use x="541.554688" xlink:href="#t"/>
</g>
</g>
<g clip-path="url(#a)">
<defs>
<path id="ai" d="m32.172-5.0781q-3.7969-9.7656-7.4219-12.734-3.6094-2.9844-9.6562-2.9844h-7.1875v7.5156h5.2812q3.7031 0 5.75 1.7656 2.0625 1.75 4.5469 8.2969l1.6094 4.0938-22.109 53.812h9.5156l17.094-42.766 17.094 42.766h9.5156z"/>
</defs>
<g transform="translate(525.87 535.91) scale(.1 -.1)">
<use xlink:href="#al"/>
<use x="63.476562" xlink:href="#ai"/>
</g>
</g>
<g clip-path="url(#a)">
<g transform="translate(577.27 535.91) scale(.1 -.1)">
<use xlink:href="#f"/>
</g>
</g>
<g clip-path="url(#a)">
<g transform="translate(617.44 535.91) scale(.1 -.1)">
<use xlink:href="#w"/>
<use x="35.205078" xlink:href="#f"/>
<use x="96.484375" xlink:href="#i"/>
<use x="124.267578" xlink:href="#g"/>
<use x="165.380859" xlink:href="#ai"/>
</g>
</g>
<g clip-path="url(#a)">
<g transform="translate(667.52 535.91) scale(.1 -.1)">
<use xlink:href="#r"/>
<use x="39.208984" xlink:href="#f"/>
<use x="100.488281" xlink:href="#h"/>
<use x="128.271484" xlink:href="#d"/>
</g>
</g>
<g clip-path="url(#a)">
<defs>
<path id="at" d="m11.719 12.406h10.297v-8.4062l-8-15.625h-6.2969l4 15.625z"/>
</defs>
<g transform="translate(723.75 535.91) scale(.1 -.1)">
<use xlink:href="#at"/>
</g>
</g>
<g clip-path="url(#a)">
<g transform="translate(762.3 535.91) scale(.1 -.1)">
<use xlink:href="#r"/>
<use x="39.208984" xlink:href="#v"/>
<use x="102.587891" xlink:href="#d"/>
<use x="164.111328" xlink:href="#j"/>
</g>
</g>
<g clip-path="url(#a)">
<g transform="translate(809.62 535.91) scale(.1 -.1)">
<use xlink:href="#aq"/>
<use x="63.476562" xlink:href="#g"/>
<use x="104.558594" xlink:href="#d"/>
<use x="166.082031" xlink:href="#aj"/>
</g>
</g>
<g clip-path="url(#a)">
<g transform="translate(850.73 535.91) scale(.1 -.1)">
<use xlink:href="#s"/>
<use x="52.099609" xlink:href="#r"/>
<use x="91.308594" xlink:href="#d"/>
<use x="152.832031" xlink:href="#f"/>
<use x="214.111328" xlink:href="#t"/>
<use x="277.587891" xlink:href="#i"/>
<use x="305.371094" xlink:href="#h"/>
<use x="333.154297" xlink:href="#ai"/>
</g>
</g>
<g clip-path="url(#a)">
<g transform="translate(905.62 535.91) scale(.1 -.1)">
<use xlink:href="#k"/>
<use x="97.412109" xlink:href="#o"/>
<use x="158.59375" xlink:href="#g"/>
<use x="199.675781" xlink:href="#d"/>
</g>
</g>
<g clip-path="url(#a)">
<g transform="translate(949.81 535.91) scale(.1 -.1)">
<use xlink:href="#w"/>
<use x="35.205078" xlink:href="#u"/>
<use x="98.583984" xlink:href="#g"/>
<use x="139.697266" xlink:href="#i"/>
<use x="167.480469" xlink:href="#o"/>
<use x="228.662109" xlink:href="#u"/>
<use x="292.041016" xlink:href="#s"/>
</g>
</g>
<g clip-path="url(#a)">
<defs>
<path id="av" d="m15.094 12.406h9.9062v-12.406h-9.9062zm0 60.5h9.9062v-31.984l-0.96875-17.438h-7.9219l-1.0156 17.438z"/>
</defs>
<g transform="translate(1013.3 535.91) scale(.1 -.1)">
<use xlink:href="#av"/>
</g>
</g>
<g clip-path="url(#a)">
<defs>
<path id="c" d="m12.406 8.2969h16.109v55.625l-17.531-3.5156v8.9844l17.438 3.5156h9.8594v-64.609h16.109v-8.2969h-41.984z"/>
<path id="e" d="m10.688 12.406h10.312v-12.406h-10.312z"/>
</defs>
<g transform="translate(503.05 29.607) scale(.1 -.1)">
<use xlink:href="#c"/>
<use x="63.623047" xlink:href="#e"/>
<use x="95.410156" xlink:href="#c"/>
</g>
</g>
<g clip-path="url(#a)">
<defs>
<path id="m" d="m19.188 8.2969h34.422v-8.2969h-46.281v8.2969q5.6094 5.8125 15.297 15.594 9.7031 9.7969 12.188 12.641 4.7344 5.3125 6.6094 9 1.8906 3.6875 1.8906 7.25 0 5.8125-4.0781 9.4688-4.0781 3.6719-10.625 3.6719-4.6406 0-9.7969-1.6094-5.1406-1.6094-11-4.8906v9.9688q5.9531 2.3906 11.125 3.6094 5.1875 1.2188 9.4844 1.2188 11.328 0 18.062-5.6719 6.7344-5.6562 6.7344-15.125 0-4.5-1.6875-8.5312-1.6719-4.0156-6.125-9.4844-1.2188-1.4219-7.7656-8.1875-6.5312-6.7656-18.453-18.922z"/>
</defs>
<g transform="translate(161.53 158.88) scale(.1 -.1)">
<use xlink:href="#c"/>
<use x="63.623047" xlink:href="#e"/>
<use x="95.410156" xlink:href="#m"/>
</g>
</g>
<g clip-path="url(#a)">
<defs>
<path id="q" d="m40.578 39.312q7.0781-1.5156 11.047-6.3125 3.9844-4.7812 3.9844-11.812 0-10.781-7.4219-16.703-7.4219-5.9062-21.094-5.9062-4.5781 0-9.4375 0.90625t-10.031 2.7188v9.5156q4.0938-2.3906 8.9688-3.6094 4.8906-1.2188 10.219-1.2188 9.2656 0 14.125 3.6562t4.8594 10.641q0 6.4531-4.5156 10.078-4.5156 3.6406-12.562 3.6406h-8.5v8.1094h8.8906q7.2656 0 11.125 2.9062t3.8594 8.375q0 5.6094-3.9844 8.6094-3.9688 3.0156-11.391 3.0156-4.0625 0-8.7031-0.89062-4.6406-0.875-10.203-2.7188v8.7812q5.625 1.5625 10.531 2.3438t9.25 0.78125q11.234 0 17.766-5.1094 6.5469-5.0938 6.5469-13.781 0-6.0625-3.4688-10.234t-9.8594-5.7812z"/>
</defs>
<g transform="translate(379.04 410.82) scale(.1 -.1)">
<use xlink:href="#c"/>
<use x="63.623047" xlink:href="#e"/>
<use x="95.410156" xlink:href="#q"/>
</g>
</g>
<g clip-path="url(#a)">
<defs>
<path id="ag" d="m37.797 64.312-24.906-38.922h24.906zm-2.5938 8.5938h12.406v-47.516h10.406v-8.2031h-10.406v-17.188h-9.8125v17.188h-32.906v9.5156z"/>
</defs>
<g transform="translate(393.14 158.88) scale(.1 -.1)">
<use xlink:href="#c"/>
<use x="63.623047" xlink:href="#e"/>
<use x="95.410156" xlink:href="#ag"/>
</g>
</g>
<g clip-path="url(#a)">
<defs>
<path id="af" d="m10.797 72.906h38.719v-8.3125h-29.688v-17.859q2.1406 0.73438 4.2812 1.0938 2.1562 0.35938 4.3125 0.35938 12.203 0 19.328-6.6875 7.1406-6.6875 7.1406-18.109 0-11.766-7.3281-18.297-7.3281-6.5156-20.656-6.5156-4.5938 0-9.3594 0.78125-4.75 0.78125-9.8281 2.3438v9.9219q4.3906-2.3906 9.0781-3.5625t9.9062-1.1719q8.4531 0 13.375 4.4375 4.9375 4.4375 4.9375 12.062 0 7.6094-4.9375 12.047-4.9219 4.4531-13.375 4.4531-3.9531 0-7.8906-0.875-3.9219-0.875-8.0156-2.7344z"/>
</defs>
<g transform="translate(765.72 410.82) scale(.1 -.1)">
<use xlink:href="#c"/>
<use x="63.623047" xlink:href="#e"/>
<use x="95.410156" xlink:href="#af"/>
</g>
</g>
<g clip-path="url(#a)">
<defs>
<path id="ae" d="m33.016 40.375q-6.6406 0-10.531-4.5469-3.875-4.5312-3.875-12.438 0-7.8594 3.875-12.438 3.8906-4.5625 10.531-4.5625t10.516 4.5625q3.875 4.5781 3.875 12.438 0 7.9062-3.875 12.438-3.875 4.5469-10.516 4.5469zm19.578 30.922v-8.9844q-3.7188 1.75-7.5 2.6719-3.7812 0.9375-7.5 0.9375-9.7656 0-14.922-6.5938-5.1406-6.5938-5.875-19.922 2.875 4.25 7.2188 6.5156 4.3594 2.2656 9.5781 2.2656 10.984 0 17.359-6.6719 6.375-6.6562 6.375-18.125 0-11.234-6.6406-18.031-6.6406-6.7812-17.672-6.7812-12.656 0-19.344 9.6875-6.6875 9.7031-6.6875 28.109 0 17.281 8.2031 27.562t22.016 10.281q3.7188 0 7.5-0.73438t7.8906-2.1875z"/>
</defs>
<g transform="translate(773.78 285.72) scale(.1 -.1)">
<use xlink:href="#c"/>
<use x="63.623047" xlink:href="#e"/>
<use x="95.410156" xlink:href="#ae"/>
</g>
</g>
<g clip-path="url(#a)">
<defs>
<path id="ah" d="m31.781 66.406q-7.6094 0-11.453-7.5-3.8281-7.4844-3.8281-22.531 0-14.984 3.8281-22.484 3.8438-7.5 11.453-7.5 7.6719 0 11.5 7.5 3.8438 7.5 3.8438 22.484 0 15.047-3.8438 22.531-3.8281 7.5-11.5 7.5zm0 7.8125q12.266 0 18.734-9.7031 6.4688-9.6875 6.4688-28.141 0-18.406-6.4688-28.109-6.4688-9.6875-18.734-9.6875-12.25 0-18.719 9.6875-6.4688 9.7031-6.4688 28.109 0 18.453 6.4688 28.141 6.4688 9.7031 18.719 9.7031z"/>
</defs>
<g transform="translate(810.88 410.82) scale(.1 -.1)">
<use xlink:href="#c"/>
<use x="63.623047" xlink:href="#e"/>
<use x="95.410156" xlink:href="#c"/>
<use x="159.033203" xlink:href="#ah"/>
</g>
</g>
<g clip-path="url(#a)">
<g transform="translate(859.21 410.82) scale(.1 -.1)">
<use xlink:href="#c"/>
<use x="63.623047" xlink:href="#e"/>
<use x="95.410156" xlink:href="#c"/>
<use x="159.033203" xlink:href="#c"/>
</g>
</g>
<g clip-path="url(#a)">
<g transform="translate(907.55 410.82) scale(.1 -.1)">
<use xlink:href="#c"/>
<use x="63.623047" xlink:href="#e"/>
<use x="95.410156" xlink:href="#c"/>
<use x="159.033203" xlink:href="#m"/>
</g>
</g>
<g clip-path="url(#a)">
<g transform="translate(955.88 410.82) scale(.1 -.1)">
<use xlink:href="#c"/>
<use x="63.623047" xlink:href="#e"/>
<use x="95.410156" xlink:href="#c"/>
<use x="159.033203" xlink:href="#q"/>
</g>
</g>
<g clip-path="url(#a)">
<g transform="translate(424.2 410.82) scale(.1 -.1)">
<use xlink:href="#c"/>
<use x="63.623047" xlink:href="#e"/>
<use x="95.410156" xlink:href="#c"/>
<use x="159.033203" xlink:href="#ag"/>
</g>
</g>
<g clip-path="url(#a)">
<g transform="translate(472.53 410.82) scale(.1 -.1)">
<use xlink:href="#c"/>
<use x="63.623047" xlink:href="#e"/>
<use x="95.410156" xlink:href="#c"/>
<use x="159.033203" xlink:href="#af"/>
</g>
</g>
<g clip-path="url(#a)">
<g transform="translate(577.26 285.72) scale(.1 -.1)">
<use xlink:href="#c"/>
<use x="63.623047" xlink:href="#e"/>
<use x="95.410156" xlink:href="#c"/>
<use x="159.033203" xlink:href="#ae"/>
</g>
</g>
<g clip-path="url(#a)">
<defs>
<path id="ao" d="m8.2031 72.906h46.875v-4.2031l-26.469-68.703h-10.297l24.906 64.594h-35.016z"/>
</defs>
<g transform="translate(520.87 410.82) scale(.1 -.1)">
<use xlink:href="#c"/>
<use x="63.623047" xlink:href="#e"/>
<use x="95.410156" xlink:href="#c"/>
<use x="159.033203" xlink:href="#ao"/>
</g>
</g>
<g clip-path="url(#a)">
<defs>
<path id="an" d="m31.781 34.625q-7.0312 0-11.062-3.7656-4.0156-3.7656-4.0156-10.344 0-6.5938 4.0156-10.359 4.0312-3.7656 11.062-3.7656t11.078 3.7812q4.0625 3.7969 4.0625 10.344 0 6.5781-4.0312 10.344-4.0156 3.7656-11.109 3.7656zm-9.8594 4.1875q-6.3438 1.5625-9.8906 5.9062-3.5312 4.3594-3.5312 10.609 0 8.7344 6.2188 13.812 6.2344 5.0781 17.062 5.0781 10.891 0 17.094-5.0781t6.2031-13.812q0-6.25-3.5469-10.609-3.5312-4.3438-9.8281-5.9062 7.125-1.6562 11.094-6.5 3.9844-4.8281 3.9844-11.797 0-10.609-6.4688-16.281-6.4688-5.6562-18.531-5.6562-12.047 0-18.531 5.6562-6.4688 5.6719-6.4688 16.281 0 6.9688 4 11.797 4.0156 4.8438 11.141 6.5zm-3.6094 15.578q0-5.6562 3.5312-8.8281 3.5469-3.1719 9.9375-3.1719 6.3594 0 9.9375 3.1719 3.5938 3.1719 3.5938 8.8281 0 5.6719-3.5938 8.8438-3.5781 3.1719-9.9375 3.1719-6.3906 0-9.9375-3.1719-3.5312-3.1719-3.5312-8.8438z"/>
</defs>
<g transform="translate(569.2 410.82) scale(.1 -.1)">
<use xlink:href="#c"/>
<use x="63.623047" xlink:href="#e"/>
<use x="95.410156" xlink:href="#c"/>
<use x="159.033203" xlink:href="#an"/>
</g>
</g>
<g clip-path="url(#a)">
<defs>
<path id="am" d="m10.984 1.5156v8.9844q3.7188-1.7656 7.5156-2.6875 3.8125-0.92188 7.4844-0.92188 9.7656 0 14.906 6.5625 5.1562 6.5625 5.8906 19.953-2.8281-4.2031-7.1875-6.4531-4.3438-2.25-9.6094-2.25-10.938 0-17.312 6.6094-6.375 6.625-6.375 18.109 0 11.219 6.6406 18 6.6406 6.7969 17.672 6.7969 12.656 0 19.312-9.7031 6.6719-9.6875 6.6719-28.141 0-17.234-8.1875-27.516-8.1719-10.281-21.984-10.281-3.7188 0-7.5312 0.73438-3.7969 0.73438-7.9062 2.2031zm19.625 30.906q6.6406 0 10.516 4.5312 3.8906 4.5469 3.8906 12.469 0 7.8594-3.8906 12.422-3.875 4.5625-10.516 4.5625t-10.516-4.5625-3.875-12.422q0-7.9219 3.875-12.469 3.875-4.5312 10.516-4.5312z"/>
</defs>
<g transform="translate(641.71 410.82) scale(.1 -.1)">
<use xlink:href="#c"/>
<use x="63.623047" xlink:href="#e"/>
<use x="95.410156" xlink:href="#c"/>
<use x="159.033203" xlink:href="#am"/>
</g>
</g>
<g clip-path="url(#a)">
<g transform="translate(61.682 285.72) scale(.1 -.1)">
<use xlink:href="#c"/>
<use x="63.623047" xlink:href="#e"/>
<use x="95.410156" xlink:href="#m"/>
<use x="159.033203" xlink:href="#ah"/>
</g>
</g>
<g clip-path="url(#a)">
<g transform="translate(134.18 410.82) scale(.1 -.1)">
<use xlink:href="#c"/>
<use x="63.623047" xlink:href="#e"/>
<use x="95.410156" xlink:href="#m"/>
<use x="159.033203" xlink:href="#c"/>
</g>
</g>
<g clip-path="url(#a)">
<g transform="translate(182.52 410.82) scale(.1 -.1)">
<use xlink:href="#c"/>
<use x="63.623047" xlink:href="#e"/>
<use x="95.410156" xlink:href="#m"/>
<use x="159.033203" xlink:href="#m"/>
</g>
</g>
<g clip-path="url(#a)">
<g transform="translate(255.02 285.72) scale(.1 -.1)">
<use xlink:href="#c"/>
<use x="63.623047" xlink:href="#e"/>
<use x="95.410156" xlink:href="#m"/>
<use x="159.033203" xlink:href="#q"/>
</g>
</g>
<g clip-path="url(#a)">
<g transform="translate(230.86 410.82) scale(.1 -.1)">
<use xlink:href="#c"/>
<use x="63.623047" xlink:href="#e"/>
<use x="95.410156" xlink:href="#m"/>
<use x="159.033203" xlink:href="#ag"/>
</g>
</g>
<g clip-path="url(#a)">
<g transform="translate(279.19 410.82) scale(.1 -.1)">
<use xlink:href="#c"/>
<use x="63.623047" xlink:href="#e"/>
<use x="95.410156" xlink:href="#m"/>
<use x="159.033203" xlink:href="#af"/>
</g>
</g>
<g clip-path="url(#a)">
<g transform="translate(37.514 410.82) scale(.1 -.1)">
<use xlink:href="#c"/>
<use x="63.623047" xlink:href="#e"/>
<use x="95.410156" xlink:href="#m"/>
<use x="159.033203" xlink:href="#ae"/>
</g>
</g>
<g clip-path="url(#a)">
<g transform="translate(85.849 410.82) scale(.1 -.1)">
<use xlink:href="#c"/>
<use x="63.623047" xlink:href="#e"/>
<use x="95.410156" xlink:href="#m"/>
<use x="159.033203" xlink:href="#ao"/>
</g>
</g>
<g clip-path="url(#a)">
<g transform="translate(641.03 29.607) scale(.1 -.1)">
<use xlink:href="#c"/>
<use x="63.623047" xlink:href="#e"/>
<use x="95.410156" xlink:href="#m"/>
<use x="159.033203" xlink:href="#an"/>
</g>
</g>
<g clip-path="url(#a)">
<g transform="translate(308.06 29.607) scale(.1 -.1)">
<use xlink:href="#c"/>
<use x="63.623047" xlink:href="#e"/>
<use x="95.410156" xlink:href="#m"/>
<use x="159.033203" xlink:href="#am"/>
</g>
</g>
<g clip-path="url(#a)">
<g transform="translate(327.53 410.82) scale(.1 -.1)">
<use xlink:href="#c"/>
<use x="63.623047" xlink:href="#e"/>
<use x="95.410156" xlink:href="#q"/>
<use x="159.033203" xlink:href="#ah"/>
</g>
</g>
<g clip-path="url(#a)">
<g transform="translate(714.21 410.82) scale(.1 -.1)">
<use xlink:href="#c"/>
<use x="63.623047" xlink:href="#e"/>
<use x="95.410156" xlink:href="#q"/>
<use x="159.033203" xlink:href="#c"/>
</g>
</g>
<g clip-path="url(#a)">
<g transform="translate(1004.2 410.82) scale(.1 -.1)">
<use xlink:href="#c"/>
<use x="63.623047" xlink:href="#e"/>
<use x="95.410156" xlink:href="#q"/>
<use x="159.033203" xlink:href="#m"/>
</g>
</g>
<defs>
<clipPath id="a">
<rect width="1064" height="560"/>
</clipPath>
</defs>
</svg>
