<?xml version="1.0" encoding="UTF-8"?>
<!DOCTYPE svg  PUBLIC '-//W3C//DTD SVG 1.1//EN'  'http://www.w3.org/Graphics/SVG/1.1/DTD/svg11.dtd'>
<svg width="557.33pt" height="293.33pt" version="1.1" viewBox="0 0 557.33 293.33" xmlns="http://www.w3.org/2000/svg" xmlns:xlink="http://www.w3.org/1999/xlink">
<defs>
<style type="text/css">*{stroke-linecap:butt;stroke-linejoin:round;}</style>
</defs>
<path d="m0 293.33h557.33v-293.33h-557.33z" fill="#fff"/>
<g fill="none" stroke="#000">
<path d="m128.72 13.333-103.39 214.18" clip-path="url(#a)"/>
<path d="m128.72 13.333 103.39 53.809" clip-path="url(#a)"/>
<path d="m25.333 227.52v52.482" clip-path="url(#a)"/>
<path d="m232.11 67.142-158.44 53.673" clip-path="url(#a)"/>
<path d="m232.11 67.142-80.111 160.38" clip-path="url(#a)"/>
<path d="m232.11 67.142-33.444 160.38" clip-path="url(#a)"/>
<path d="m232.11 67.142 49.889 160.38" clip-path="url(#a)"/>
<path d="m232.11 67.142 222.11 107.16" clip-path="url(#a)"/>
<path d="m73.667 120.82 38.333 53.491" clip-path="url(#a)"/>
<path d="m73.667 120.82 1.6667 53.491" clip-path="url(#a)"/>
<path d="m73.667 120.82-1.6667 106.7" clip-path="url(#a)"/>
<path d="m152 227.52v52.482" clip-path="url(#a)"/>
<path d="m198.67 227.52v52.482" clip-path="url(#a)"/>
<path d="m282 227.52-30 52.482" clip-path="url(#a)"/>
<path d="m282 227.52 30 52.482" clip-path="url(#a)"/>
<path d="m454.22 174.31-75.556 53.212" clip-path="url(#a)"/>
<path d="m454.22 174.31-2.2222 53.212" clip-path="url(#a)"/>
<path d="m454.22 174.31 77.778 53.212" clip-path="url(#a)"/>
<path d="m378.67 227.52v52.482" clip-path="url(#a)"/>
<path d="m452 227.52v52.482" clip-path="url(#a)"/>
<path d="m75.333 174.31-30 53.212" clip-path="url(#a)"/>
<path d="m75.333 174.31 30 53.212" clip-path="url(#a)"/>
<path d="m72 227.52v52.482" clip-path="url(#a)"/>
<path d="m45.333 227.52v52.482" clip-path="url(#a)"/>
<path d="m105.33 227.52v52.482" clip-path="url(#a)"/>
<path d="m128.72 13.333-103.39 214.18" clip-path="url(#a)"/>
<path d="m128.72 13.333 103.39 53.809" clip-path="url(#a)"/>
<path d="m532 227.52v52.482" clip-path="url(#a)"/>
</g>
<path d="m81.707 125.16 1.9377-4.0143q1.0433-2.1614-1.1181-3.2047l-6.9727-3.3658q-2.1614-1.0433-3.2047 1.1181l-1.9377 4.0143q-1.0433 2.1614 1.1181 3.2047l6.9727 3.3658q2.1614 1.0433 3.2047-1.1181z" clip-path="url(#a)" fill="#fff" stroke="#fff"/>
<g clip-path="url(#a)">
<defs>
<path id="m" d="m9.8125 72.906h9.8594v-64.609h35.5v-8.2969h-45.359z"/>
</defs>
<g transform="translate(78.047 123.39) rotate(-64.233) scale(.08 -.08)">
<use xlink:href="#m"/>
</g>
</g>
<path d="m174.85 44.412 5.3367 2.7775q2.1289 1.108 3.2369-1.0209l3.5745-6.868q1.108-2.1289-1.0209-3.2369l-5.3367-2.7775q-2.1289-1.108-3.2369 1.0209l-3.5745 6.868q-1.108 2.1289 1.0209 3.2369z" clip-path="url(#a)" fill="#fff" stroke="#fff"/>
<g clip-path="url(#a)">
<defs>
<path id="aj" d="m9.8125 72.906h9.8594v-29.891h35.844v29.891h9.8594v-72.906h-9.8594v34.719h-35.844v-34.719h-9.8594z"/>
</defs>
<g transform="translate(176.73 40.807) rotate(27.495) scale(.08 -.08)">
<use xlink:href="#aj"/>
</g>
</g>
<path d="m19.062 236.86v33.808q0 2.4 2.4 2.4h7.7425q2.4 0 2.4-2.4v-33.808q0-2.4-2.4-2.4h-7.7425q-2.4 0-2.4 2.4z" clip-path="url(#a)" fill="#fff" stroke="#fff"/>
<g clip-path="url(#a)">
<defs>
<path id="j" d="m-0.29688 72.906h61.672v-8.3125h-25.875v-64.594h-9.9062v64.594h-25.891z"/>
<path id="h" d="m56.203 29.594v-4.3906h-41.312q0.59375-9.2812 5.5938-14.141t13.938-4.8594q5.1719 0 10.031 1.2656t9.6562 3.8125v-8.5q-4.8438-2.0469-9.9219-3.125t-10.297-1.0781q-13.094 0-20.734 7.6094-7.6406 7.625-7.6406 20.625 0 13.422 7.25 21.297 7.25 7.8906 19.562 7.8906 11.031 0 17.453-7.1094 6.4219-7.0938 6.4219-19.297zm-8.9844 2.6406q-0.09375 7.3594-4.125 11.75-4.0312 4.4062-10.672 4.4062-7.5156 0-12.031-4.25t-5.2031-11.969z"/>
<path id="e" d="m41.109 46.297q-1.5156 0.875-3.2969 1.2812-1.7812 0.42188-3.9219 0.42188-7.625 0-11.703-4.9531t-4.0781-14.234v-28.812h-9.0312v54.688h9.0312v-8.5q2.8438 4.9844 7.375 7.3906 4.5469 2.4219 11.047 2.4219 0.92188 0 2.0469-0.125 1.125-0.10938 2.4844-0.35938z"/>
<path id="l" d="m52 44.188q3.375 6.0625 8.0625 8.9375t11.031 2.875q8.5469 0 13.188-5.9844 4.6406-5.9688 4.6406-17v-33.016h-9.0312v32.719q0 7.8594-2.7969 11.656-2.7812 3.8125-8.4844 3.8125-6.9844 0-11.047-4.6406-4.0469-4.625-4.0469-12.641v-30.906h-9.0312v32.719q0 7.9062-2.7812 11.688t-8.5938 3.7812q-6.8906 0-10.953-4.6562-4.0469-4.6562-4.0469-12.625v-30.906h-9.0312v54.688h9.0312v-8.5q3.0781 5.0312 7.375 7.4219t10.203 2.3906q5.9688 0 10.141-3.0312 4.1719-3.0156 6.1719-8.7812z"/>
<path id="k" d="m9.4219 54.688h8.9844v-54.688h-8.9844zm0 21.297h8.9844v-11.391h-8.9844z"/>
<path id="f" d="m54.891 33.016v-33.016h-8.9844v32.719q0 7.7656-3.0312 11.609-3.0312 3.8594-9.0781 3.8594-7.2812 0-11.484-4.6406-4.2031-4.625-4.2031-12.641v-30.906h-9.0312v54.688h9.0312v-8.5q3.2344 4.9375 7.5938 7.375 4.375 2.4375 10.094 2.4375 9.4219 0 14.25-5.8281 4.8438-5.8281 4.8438-17.156z"/>
<path id="i" d="m34.281 27.484q-10.891 0-15.094-2.4844t-4.2031-8.5q0-4.7812 3.1562-7.5938 3.1562-2.7969 8.5625-2.7969 7.4844 0 12 5.2969t4.5156 14.078v2zm17.922 3.7188v-31.203h-8.9844v8.2969q-3.0781-4.9688-7.6719-7.3438t-11.234-2.375q-8.3906 0-13.359 4.7188-4.9531 4.7188-4.9531 12.625 0 9.2188 6.1719 13.906 6.1875 4.6875 18.438 4.6875h12.609v0.89062q0 6.2031-4.0781 9.5938t-11.453 3.3906q-4.6875 0-9.1406-1.125-4.4375-1.125-8.5312-3.375v8.3125q4.9219 1.9062 9.5625 2.8438 4.6406 0.95312 9.0312 0.95312 11.875 0 17.734-6.1562 5.8594-6.1406 5.8594-18.641z"/>
<path id="g" d="m9.4219 75.984h8.9844v-75.984h-8.9844z"/>
</defs>
<g transform="translate(23.126 236.86) rotate(90) scale(.08 -.08)">
<use xlink:href="#j"/>
<use x="44.083984" xlink:href="#h"/>
<use x="105.607422" xlink:href="#e"/>
<use x="144.970703" xlink:href="#l"/>
<use x="242.382812" xlink:href="#k"/>
<use x="270.166016" xlink:href="#f"/>
<use x="333.544922" xlink:href="#i"/>
<use x="394.824219" xlink:href="#g"/>
</g>
</g>
<path d="m152.31 100.8 5.1832-1.7558q2.2731-0.77002 1.5031-3.0431l-2.4841-7.3332q-0.77002-2.2731-3.0431-1.5031l-5.1832 1.7558q-2.2731 0.77002-1.5031 3.0431l2.4841 7.3332q0.77002 2.2731 3.0431 1.5031z" clip-path="url(#a)" fill="#fff" stroke="#fff"/>
<g clip-path="url(#a)">
<defs>
<path id="u" d="m34.188 63.188-13.391-36.281h26.812zm-5.5781 9.7188h11.188l27.781-72.906h-10.25l-6.6406 18.703h-32.859l-6.6406-18.703h-10.406z"/>
</defs>
<g transform="translate(151.01 96.947) rotate(-18.714) scale(.08 -.08)">
<use xlink:href="#u"/>
</g>
</g>
<path d="m196.29 152.89 2.7527-5.5107q1.0725-2.147-1.0745-3.2195l-6.9264-3.4599q-2.147-1.0725-3.2195 1.0745l-2.7527 5.5107q-1.0725 2.147 1.0745 3.2195l6.9264 3.4599q2.147 1.0725 3.2195-1.0745z" clip-path="url(#a)" fill="#fff" stroke="#fff"/>
<g clip-path="url(#a)">
<defs>
<path id="s" d="m19.672 64.797v-56.688h11.922q15.094 0 22.094 6.8281 7 6.8438 7 21.594 0 14.641-7 21.453t-22.094 6.8125zm-9.8594 8.1094h20.266q21.188 0 31.094-8.8125 9.9219-8.8125 9.9219-27.562 0-18.859-9.9688-27.703-9.9531-8.8281-31.047-8.8281h-20.266z"/>
</defs>
<g transform="translate(192.65 151.07) rotate(-63.457) scale(.08 -.08)">
<use xlink:href="#s"/>
</g>
</g>
<path d="m220.9 151.63 1.2575-6.0303q0.48995-2.3495-1.8595-2.8394l-7.5794-1.5806q-2.3495-0.48995-2.8394 1.8595l-1.2575 6.0303q-0.48995 2.3495 1.8595 2.8394l7.5794 1.5806q2.3495 0.48995 2.8394-1.8595z" clip-path="url(#a)" fill="#fff" stroke="#fff"/>
<g clip-path="url(#a)">
<g transform="translate(216.92 150.8) rotate(-78.22) scale(.08 -.08)">
<use xlink:href="#s"/>
</g>
</g>
<path d="m250.35 146.89 1.4328 4.606q0.71288 2.2917 3.0046 1.5788l7.3931-2.2998q2.2917-0.71288 1.5788-3.0046l-1.4328-4.606q-0.71288-2.2917-3.0046-1.5788l-7.3931 2.2998q-2.2917 0.71288-1.5788 3.0046z" clip-path="url(#a)" fill="#fff" stroke="#fff"/>
<g clip-path="url(#a)">
<defs>
<path id="q" d="m19.672 64.797v-27.391h12.406q6.8906 0 10.641 3.5625 3.7656 3.5625 3.7656 10.156 0 6.5469-3.7656 10.109-3.75 3.5625-10.641 3.5625zm-9.8594 8.1094h22.266q12.266 0 18.531-5.5469 6.2812-5.5469 6.2812-16.234 0-10.797-6.2812-16.312-6.2656-5.5156-18.531-5.5156h-12.406v-29.297h-9.8594z"/>
</defs>
<g transform="translate(254.23 145.68) rotate(72.72) scale(.08 -.08)">
<use xlink:href="#q"/>
</g>
</g>
<path d="m338.24 125.31 4.4008 2.1233q2.1616 1.0429 3.2045-1.1187l3.3645-6.9733q1.0429-2.1616-1.1187-3.2045l-4.4008-2.1233q-2.1616-1.0429-3.2045 1.1187l-3.3645 6.9733q-1.0429 2.1616 1.1187 3.2045z" clip-path="url(#a)" fill="#fff" stroke="#fff"/>
<g clip-path="url(#a)">
<g transform="translate(340.01 121.65) rotate(25.756) scale(.08 -.08)">
<use xlink:href="#j"/>
</g>
</g>
<path d="m86.142 148.99 3.1877 4.4482q1.398 1.9508 3.3488 0.55279l6.2933-4.51q1.9508-1.398 0.55279-3.3488l-3.1877-4.4482q-1.398-1.9508-3.3488-0.55279l-6.2933 4.51q-1.9508 1.398-0.55279 3.3488z" clip-path="url(#a)" fill="#fff" stroke="#fff"/>
<g clip-path="url(#a)">
<g transform="translate(89.445 146.62) rotate(54.373) scale(.08 -.08)">
<use xlink:href="#u"/>
</g>
</g>
<path d="m68.157 145.35 0.15022 4.8214q0.074743 2.3988 2.4736 2.3241l7.7387-0.24112q2.3988-0.074743 2.3241-2.4736l-0.15022-4.8214q-0.074743-2.3988-2.4736-2.3241l-7.7387 0.24112q-2.3988 0.074743-2.3241 2.4736z" clip-path="url(#a)" fill="#fff" stroke="#fff"/>
<g clip-path="url(#a)">
<g transform="translate(72.218 145.22) rotate(88.215) scale(.08 -.08)">
<use xlink:href="#q"/>
</g>
</g>
<path d="m79.056 177.34 0.096205-6.1592q0.037483-2.3997-2.3622-2.4372l-7.7416-0.12092q-2.3997-0.037483-2.4372 2.3622l-0.096206 6.1592q-0.037482 2.3997 2.3622 2.4372l7.7416 0.12092q2.3997 0.037483 2.4372-2.3622z" clip-path="url(#a)" fill="#fff" stroke="#fff"/>
<g clip-path="url(#a)">
<g transform="translate(74.992 177.28) rotate(-89.105) scale(.08 -.08)">
<use xlink:href="#s"/>
</g>
</g>
<path d="m145.73 236.86v33.808q0 2.4 2.4 2.4h7.7425q2.4 0 2.4-2.4v-33.808q0-2.4-2.4-2.4h-7.7425q-2.4 0-2.4 2.4z" clip-path="url(#a)" fill="#fff" stroke="#fff"/>
<g clip-path="url(#a)">
<g transform="translate(149.79 236.86) rotate(90) scale(.08 -.08)">
<use xlink:href="#j"/>
<use x="44.083984" xlink:href="#h"/>
<use x="105.607422" xlink:href="#e"/>
<use x="144.970703" xlink:href="#l"/>
<use x="242.382812" xlink:href="#k"/>
<use x="270.166016" xlink:href="#f"/>
<use x="333.544922" xlink:href="#i"/>
<use x="394.824219" xlink:href="#g"/>
</g>
</g>
<path d="m192.4 236.86v33.808q0 2.4 2.4 2.4h7.7425q2.4 0 2.4-2.4v-33.808q0-2.4-2.4-2.4h-7.7425q-2.4 0-2.4 2.4z" clip-path="url(#a)" fill="#fff" stroke="#fff"/>
<g clip-path="url(#a)">
<g transform="translate(196.46 236.86) rotate(90) scale(.08 -.08)">
<use xlink:href="#j"/>
<use x="44.083984" xlink:href="#h"/>
<use x="105.607422" xlink:href="#e"/>
<use x="144.970703" xlink:href="#l"/>
<use x="242.382812" xlink:href="#k"/>
<use x="270.166016" xlink:href="#f"/>
<use x="333.544922" xlink:href="#i"/>
<use x="394.824219" xlink:href="#g"/>
</g>
</g>
<path d="m264.06 271.55 16.778-29.351q1.191-2.0836-0.89256-3.2746l-6.7218-3.8424q-2.0836-1.191-3.2746 0.89256l-16.778 29.351q-1.191 2.0836 0.89256 3.2746l6.7218 3.8424q2.0836 1.191 3.2746-0.89256z" clip-path="url(#a)" fill="#fff" stroke="#fff"/>
<g clip-path="url(#a)">
<g transform="translate(260.53 269.53) rotate(-60.247) scale(.08 -.08)">
<use xlink:href="#j"/>
<use x="44.083984" xlink:href="#h"/>
<use x="105.607422" xlink:href="#e"/>
<use x="144.970703" xlink:href="#l"/>
<use x="242.382812" xlink:href="#k"/>
<use x="270.166016" xlink:href="#f"/>
<use x="333.544922" xlink:href="#i"/>
<use x="394.824219" xlink:href="#g"/>
</g>
</g>
<path d="m283.17 242.2 16.778 29.351q1.191 2.0836 3.2746 0.89256l6.7218-3.8424q2.0836-1.191 0.89256-3.2746l-16.778-29.351q-1.191-2.0836-3.2746-0.89256l-6.7218 3.8424q-2.0836 1.191-0.89256 3.2746z" clip-path="url(#a)" fill="#fff" stroke="#fff"/>
<g clip-path="url(#a)">
<g transform="translate(286.69 240.18) rotate(60.247) scale(.08 -.08)">
<use xlink:href="#j"/>
<use x="44.083984" xlink:href="#h"/>
<use x="105.607422" xlink:href="#e"/>
<use x="144.970703" xlink:href="#l"/>
<use x="242.382812" xlink:href="#k"/>
<use x="270.166016" xlink:href="#f"/>
<use x="333.544922" xlink:href="#i"/>
<use x="394.824219" xlink:href="#g"/>
</g>
</g>
<path d="m417.99 207.49 4.1329-2.9107q1.9622-1.3819 0.58027-3.3441l-4.4582-6.3302q-1.3819-1.9622-3.3441-0.58027l-4.1329 2.9107q-1.9622 1.3819-0.58027 3.3441l4.4582 6.3302q1.3819 1.9622 3.3441 0.58027z" clip-path="url(#a)" fill="#fff" stroke="#fff"/>
<g clip-path="url(#a)">
<defs>
<path id="x" d="m9.8125 72.906h46.094v-8.3125h-36.234v-21.578h34.719v-8.2969h-34.719v-26.422h37.109v-8.2969h-46.969z"/>
</defs>
<g transform="translate(415.65 204.17) rotate(-35.156) scale(.08 -.08)">
<use xlink:href="#x"/>
</g>
</g>
<path d="m459.26 203.96 0.23309-5.5814q0.10014-2.3979-2.2978-2.4981l-7.7358-0.32306q-2.3979-0.10014-2.4981 2.2978l-0.23309 5.5814q-0.10014 2.3979 2.2978 2.4981l7.7358 0.32306q2.3979 0.10014 2.498-2.2978z" clip-path="url(#a)" fill="#fff" stroke="#fff"/>
<g clip-path="url(#a)">
<defs>
<path id="t" d="m64.406 67.281v-10.391q-4.9844 4.6406-10.625 6.9219-5.6406 2.2969-11.984 2.2969-12.5 0-19.141-7.6406t-6.6406-22.094q0-14.406 6.6406-22.047t19.141-7.6406q6.3438 0 11.984 2.2969t10.625 6.9375v-10.312q-5.1719-3.5156-10.969-5.2812-5.7812-1.75-12.219-1.75-16.562 0-26.094 10.125-9.5156 10.141-9.5156 27.672 0 17.578 9.5156 27.703 9.5312 10.141 26.094 10.141 6.5312 0 12.312-1.7344 5.7969-1.7344 10.875-5.2031z"/>
</defs>
<g transform="translate(455.2 203.8) rotate(-87.609) scale(.08 -.08)">
<use xlink:href="#t"/>
</g>
</g>
<path d="m487.15 204.44 4.8323 3.306q1.9808 1.3552 3.336-0.62563l4.3718-6.3901q1.3552-1.9808-0.62563-3.336l-4.8323-3.306q-1.9808-1.3552-3.336 0.62563l-4.3718 6.3901q-1.3552 1.9808 0.62563 3.336z" clip-path="url(#a)" fill="#fff" stroke="#fff"/>
<g clip-path="url(#a)">
<defs>
<path id="ag" d="m8.6875 72.906h9.9219v-44.297q0-11.719 4.2344-16.875 4.25-5.1406 13.781-5.1406 9.4688 0 13.719 5.1406 4.25 5.1562 4.25 16.875v44.297h9.9062v-45.516q0-14.25-7.0625-21.531-7.0469-7.2812-20.812-7.2812-13.828 0-20.891 7.2812-7.0469 7.2812-7.0469 21.531z"/>
</defs>
<g transform="translate(489.45 201.08) rotate(34.378) scale(.08 -.08)">
<use xlink:href="#ag"/>
</g>
</g>
<path d="m372.4 236.86v33.808q0 2.4 2.4 2.4h7.7425q2.4 0 2.4-2.4v-33.808q0-2.4-2.4-2.4h-7.7425q-2.4 0-2.4 2.4z" clip-path="url(#a)" fill="#fff" stroke="#fff"/>
<g clip-path="url(#a)">
<g transform="translate(376.46 236.86) rotate(90) scale(.08 -.08)">
<use xlink:href="#j"/>
<use x="44.083984" xlink:href="#h"/>
<use x="105.607422" xlink:href="#e"/>
<use x="144.970703" xlink:href="#l"/>
<use x="242.382812" xlink:href="#k"/>
<use x="270.166016" xlink:href="#f"/>
<use x="333.544922" xlink:href="#i"/>
<use x="394.824219" xlink:href="#g"/>
</g>
</g>
<path d="m445.73 236.86v33.808q0 2.4 2.4 2.4h7.7425q2.4 0 2.4-2.4v-33.808q0-2.4-2.4-2.4h-7.7425q-2.4 0-2.4 2.4z" clip-path="url(#a)" fill="#fff" stroke="#fff"/>
<g clip-path="url(#a)">
<g transform="translate(449.79 236.86) rotate(90) scale(.08 -.08)">
<use xlink:href="#j"/>
<use x="44.083984" xlink:href="#h"/>
<use x="105.607422" xlink:href="#e"/>
<use x="144.970703" xlink:href="#l"/>
<use x="242.382812" xlink:href="#k"/>
<use x="270.166016" xlink:href="#f"/>
<use x="333.544922" xlink:href="#i"/>
<use x="394.824219" xlink:href="#g"/>
</g>
</g>
<path d="m64.555 206.19 2.4826-4.4034q1.1787-2.0906-0.91197-3.2693l-6.7445-3.8024q-2.0906-1.1787-3.2693 0.91197l-2.4826 4.4034q-1.1787 2.0906 0.91197 3.2693l6.7445 3.8024q2.0906 1.1787 3.2693-0.91197z" clip-path="url(#a)" fill="#fff" stroke="#fff"/>
<g clip-path="url(#a)">
<g transform="translate(61.015 204.2) rotate(-60.586) scale(.08 -.08)">
<use xlink:href="#x"/>
</g>
</g>
<path d="m83.499 201.56 2.7435 4.8662q1.1787 2.0906 3.2693 0.91197l6.7445-3.8024q2.0906-1.1787 0.91197-3.2693l-2.7435-4.8662q-1.1787-2.0906-3.2693-0.91197l-6.7445 3.8024q-2.0906 1.1787-0.91197 3.2693z" clip-path="url(#a)" fill="#fff" stroke="#fff"/>
<g clip-path="url(#a)">
<g transform="translate(87.039 199.56) rotate(60.586) scale(.08 -.08)">
<use xlink:href="#t"/>
</g>
</g>
<path d="m65.729 236.86v33.808q0 2.4 2.4 2.4h7.7425q2.4 0 2.4-2.4v-33.808q0-2.4-2.4-2.4h-7.7425q-2.4 0-2.4 2.4z" clip-path="url(#a)" fill="#fff" stroke="#fff"/>
<g clip-path="url(#a)">
<g transform="translate(69.792 236.86) rotate(90) scale(.08 -.08)">
<use xlink:href="#j"/>
<use x="44.083984" xlink:href="#h"/>
<use x="105.607422" xlink:href="#e"/>
<use x="144.970703" xlink:href="#l"/>
<use x="242.382812" xlink:href="#k"/>
<use x="270.166016" xlink:href="#f"/>
<use x="333.544922" xlink:href="#i"/>
<use x="394.824219" xlink:href="#g"/>
</g>
</g>
<path d="m39.062 236.86v33.808q0 2.4 2.4 2.4h7.7425q2.4 0 2.4-2.4v-33.808q0-2.4-2.4-2.4h-7.7425q-2.4 0-2.4 2.4z" clip-path="url(#a)" fill="#fff" stroke="#fff"/>
<g clip-path="url(#a)">
<g transform="translate(43.126 236.86) rotate(90) scale(.08 -.08)">
<use xlink:href="#j"/>
<use x="44.083984" xlink:href="#h"/>
<use x="105.607422" xlink:href="#e"/>
<use x="144.970703" xlink:href="#l"/>
<use x="242.382812" xlink:href="#k"/>
<use x="270.166016" xlink:href="#f"/>
<use x="333.544922" xlink:href="#i"/>
<use x="394.824219" xlink:href="#g"/>
</g>
</g>
<path d="m99.062 236.86v33.808q0 2.4 2.4 2.4h7.7425q2.4 0 2.4-2.4v-33.808q0-2.4-2.4-2.4h-7.7425q-2.4 0-2.4 2.4z" clip-path="url(#a)" fill="#fff" stroke="#fff"/>
<g clip-path="url(#a)">
<g transform="translate(103.13 236.86) rotate(90) scale(.08 -.08)">
<use xlink:href="#j"/>
<use x="44.083984" xlink:href="#h"/>
<use x="105.607422" xlink:href="#e"/>
<use x="144.970703" xlink:href="#l"/>
<use x="242.382812" xlink:href="#k"/>
<use x="270.166016" xlink:href="#f"/>
<use x="333.544922" xlink:href="#i"/>
<use x="394.824219" xlink:href="#g"/>
</g>
</g>
<path d="m80.498 127.66 4.3542-9.0203q1.0433-2.1614-1.1181-3.2047l-6.9727-3.3658q-2.1614-1.0433-3.2047 1.1181l-4.3542 9.0203q-1.0433 2.1614 1.1181 3.2047l6.9727 3.3658q2.1614 1.0433 3.2047-1.1181z" clip-path="url(#a)" fill="#fff" stroke="#fff"/>
<g clip-path="url(#a)">
<defs>
<path id="ah" d="m44.391 34.188q3.1719-1.0781 6.1719-4.5938t6.0312-9.6719l10.016-19.922h-10.609l-9.3125 18.703q-3.625 7.3281-7.0156 9.7188t-9.25 2.3906h-10.75v-30.812h-9.8594v72.906h22.266q12.5 0 18.656-5.2344 6.1562-5.2188 6.1562-15.766 0-6.8906-3.2031-11.438-3.2031-4.5312-9.2969-6.2812zm-24.719 30.609v-25.875h12.406q7.125 0 10.766 3.2969t3.6406 9.6875-3.6406 9.6406-10.766 3.25z"/>
</defs>
<g transform="translate(76.839 125.9) rotate(-64.233) scale(.08 -.08)">
<use xlink:href="#m"/>
<use x="55.712891" xlink:href="#ah"/>
</g>
</g>
<path d="m173.04 43.467 8.9681 4.6675q2.1289 1.108 3.2369-1.0209l3.5745-6.868q1.108-2.1289-1.0209-3.2369l-8.9681-4.6675q-2.1289-1.108-3.2369 1.0209l-3.5745 6.868q-1.108 2.1289 1.0209 3.2369z" clip-path="url(#a)" fill="#fff" stroke="#fff"/>
<g clip-path="url(#a)">
<g transform="translate(174.91 39.862) rotate(27.495) scale(.08 -.08)">
<use xlink:href="#m"/>
<use x="57.962891" xlink:href="#u"/>
</g>
</g>
<path d="m525.73 236.86v33.808q0 2.4 2.4 2.4h7.7425q2.4 0 2.4-2.4v-33.808q0-2.4-2.4-2.4h-7.7425q-2.4 0-2.4 2.4z" clip-path="url(#a)" fill="#fff" stroke="#fff"/>
<g clip-path="url(#a)">
<g transform="translate(529.79 236.86) rotate(90) scale(.08 -.08)">
<use xlink:href="#j"/>
<use x="44.083984" xlink:href="#h"/>
<use x="105.607422" xlink:href="#e"/>
<use x="144.970703" xlink:href="#l"/>
<use x="242.382812" xlink:href="#k"/>
<use x="270.166016" xlink:href="#f"/>
<use x="333.544922" xlink:href="#i"/>
<use x="394.824219" xlink:href="#g"/>
</g>
</g>
<defs>
<path id="b" d="m0 8.6603c2.2967 0 4.4997-0.9125 6.1237-2.5365 1.624-1.624 2.5365-3.827 2.5365-6.1237s-0.9125-4.4997-2.5365-6.1237c-1.624-1.624-3.827-2.5365-6.1237-2.5365s-4.4997 0.9125-6.1237 2.5365c-1.624 1.624-2.5365 3.827-2.5365 6.1237s0.9125 4.4997 2.5365 6.1237c1.624 1.624 3.827 2.5365 6.1237 2.5365z"/>
</defs>
<g clip-path="url(#a)">
<use x="25.333333" y="280" fill="#ffffff" stroke="#ffffff" xlink:href="#b"/>
<use x="45.333333" y="280" fill="#ffffff" stroke="#ffffff" xlink:href="#b"/>
<use x="72" y="280" fill="#ffffff" stroke="#ffffff" xlink:href="#b"/>
<use x="105.333333" y="280" fill="#ffffff" stroke="#ffffff" xlink:href="#b"/>
<use x="152" y="280" fill="#ffffff" stroke="#ffffff" xlink:href="#b"/>
<use x="198.666667" y="280" fill="#ffffff" stroke="#ffffff" xlink:href="#b"/>
<use x="252" y="280" fill="#ffffff" stroke="#ffffff" xlink:href="#b"/>
<use x="312" y="280" fill="#ffffff" stroke="#ffffff" xlink:href="#b"/>
<use x="378.666667" y="280" fill="#ffffff" stroke="#ffffff" xlink:href="#b"/>
<use x="452" y="280" fill="#ffffff" stroke="#ffffff" xlink:href="#b"/>
<use x="532" y="280" fill="#ffffff" stroke="#ffffff" xlink:href="#b"/>
<use x="112" y="174.306246" fill="#ffffff" stroke="#ffffff" xlink:href="#b"/>
<use x="128.722222" y="13.333333" fill="#ffffff" stroke="#ffffff" xlink:href="#b"/>
<use x="25.333333" y="227.518163" fill="#ffffff" stroke="#ffffff" xlink:href="#b"/>
<use x="232.111111" y="67.142176" fill="#ffffff" stroke="#ffffff" xlink:href="#b"/>
<use x="73.666667" y="120.815237" fill="#ffffff" stroke="#ffffff" xlink:href="#b"/>
<use x="152" y="227.518163" fill="#ffffff" stroke="#ffffff" xlink:href="#b"/>
<use x="198.666667" y="227.518163" fill="#ffffff" stroke="#ffffff" xlink:href="#b"/>
<use x="282" y="227.518163" fill="#ffffff" stroke="#ffffff" xlink:href="#b"/>
<use x="454.222222" y="174.306246" fill="#ffffff" stroke="#ffffff" xlink:href="#b"/>
<use x="378.666667" y="227.518163" fill="#ffffff" stroke="#ffffff" xlink:href="#b"/>
<use x="452" y="227.518163" fill="#ffffff" stroke="#ffffff" xlink:href="#b"/>
<use x="75.333333" y="174.306246" fill="#ffffff" stroke="#ffffff" xlink:href="#b"/>
<use x="72" y="227.518163" fill="#ffffff" stroke="#ffffff" xlink:href="#b"/>
<use x="45.333333" y="227.518163" fill="#ffffff" stroke="#ffffff" xlink:href="#b"/>
<use x="105.333333" y="227.518163" fill="#ffffff" stroke="#ffffff" xlink:href="#b"/>
<use x="128.722222" y="13.333333" fill="#808080" stroke="#808080" xlink:href="#b"/>
<use x="532" y="227.518163" fill="#ffffff" stroke="#ffffff" xlink:href="#b"/>
</g>
<g clip-path="url(#a)">
<defs>
<path id="ak" d="m19.672 34.812v-26.703h15.828q7.9531 0 11.781 3.2969 3.8438 3.2969 3.8438 10.078 0 6.8438-3.8438 10.078-3.8281 3.25-11.781 3.25zm0 29.984v-21.969h14.609q7.2188 0 10.75 2.7031 3.5469 2.7188 3.5469 8.2812 0 5.5156-3.5469 8.25-3.5312 2.7344-10.75 2.7344zm-9.8594 8.1094h25.203q11.281 0 17.375-4.6875 6.1094-4.6875 6.1094-13.328 0-6.7031-3.125-10.656t-9.1875-4.9219q7.2812-1.5625 11.312-6.5312 4.0312-4.9531 4.0312-12.375 0-9.7656-6.6406-15.094-6.6406-5.3125-18.906-5.3125h-26.172z"/>
<path id="n" d="m8.5 21.578v33.109h8.9844v-32.766q0-7.7656 3.0156-11.656 3.0312-3.875 9.0938-3.875 7.2656 0 11.484 4.6406 4.2344 4.6406 4.2344 12.656v31h8.9844v-54.688h-8.9844v8.4062q-3.2656-4.9844-7.5938-7.4062-4.3125-2.4219-10.031-2.4219-9.4219 0-14.312 5.8594-4.875 5.8594-4.875 17.141z"/>
<path id="o" d="m18.312 70.219v-15.531h18.5v-6.9844h-18.5v-29.688q0-6.6875 1.8281-8.5938t7.4531-1.9062h9.2188v-7.5156h-9.2188q-10.406 0-14.359 3.875-3.9531 3.8906-3.9531 14.141v29.688h-6.5938v6.9844h6.5938v15.531z"/>
</defs>
<g transform="translate(16.774 282.76) scale(.1 -.1)">
<use xlink:href="#ak"/>
<use x="68.603516" xlink:href="#n"/>
<use x="131.982422" xlink:href="#o"/>
</g>
</g>
<g clip-path="url(#a)">
<defs>
<path id="w" d="m54.891 33.016v-33.016h-8.9844v32.719q0 7.7656-3.0312 11.609-3.0312 3.8594-9.0781 3.8594-7.2812 0-11.484-4.6406-4.2031-4.625-4.2031-12.641v-30.906h-9.0312v75.984h9.0312v-29.797q3.2344 4.9375 7.5938 7.375 4.375 2.4375 10.094 2.4375 9.4219 0 14.25-5.8281 4.8438-5.8281 4.8438-17.156z"/>
<path id="ad" d="m44.281 53.078v-8.5q-3.7969 1.9531-7.9062 2.9219-4.0938 0.98438-8.5 0.98438-6.6875 0-10.031-2.0469t-3.3438-6.1562q0-3.125 2.3906-4.9062t9.625-3.3906l3.0781-0.6875q9.5625-2.0469 13.594-5.7812t4.0312-10.422q0-7.625-6.0312-12.078-6.0312-4.4375-16.578-4.4375-4.3906 0-9.1562 0.85938t-10.031 2.5625v9.2812q4.9844-2.5938 9.8125-3.8906 4.8281-1.2812 9.5781-1.2812 6.3438 0 9.75 2.1719 3.4219 2.1719 3.4219 6.125 0 3.6562-2.4688 5.6094-2.4531 1.9531-10.812 3.7656l-3.125 0.73438q-8.3438 1.75-12.062 5.3906-3.7031 3.6406-3.7031 9.9844 0 7.7188 5.4688 11.906 5.4688 4.2031 15.531 4.2031 4.9688 0 9.3594-0.73438 4.4062-0.71875 8.1094-2.1875z"/>
</defs>
<g transform="translate(36.211 282.76) scale(.1 -.1)">
<use xlink:href="#o"/>
<use x="39.208984" xlink:href="#w"/>
<use x="102.587891" xlink:href="#k"/>
<use x="130.371094" xlink:href="#ad"/>
</g>
</g>
<g clip-path="url(#a)">
<defs>
<path id="aq" d="m37.109 75.984v-7.4844h-8.5938q-4.8281 0-6.7188-1.9531-1.875-1.9531-1.875-7.0312v-4.8281h14.797v-6.9844h-14.797v-47.703h-9.0312v47.703h-8.5938v6.9844h8.5938v3.8125q0 9.125 4.25 13.297 4.25 4.1875 13.469 4.1875z"/>
</defs>
<g transform="translate(59.256 282.76) scale(.1 -.1)">
<use xlink:href="#aq"/>
<use x="35.205078" xlink:href="#n"/>
<use x="98.583984" xlink:href="#o"/>
<use x="137.792969" xlink:href="#k"/>
<use x="165.576172" xlink:href="#g"/>
<use x="193.359375" xlink:href="#h"/>
</g>
</g>
<g clip-path="url(#a)">
<defs>
<path id="p" d="m48.781 52.594v-8.4062q-3.8125 2.1094-7.6406 3.1562t-7.7344 1.0469q-8.75 0-13.594-5.5469-4.8281-5.5312-4.8281-15.547t4.8281-15.562q4.8438-5.5312 13.594-5.5312 3.9062 0 7.7344 1.0469t7.6406 3.1562v-8.3125q-3.7656-1.75-7.7969-2.625-4.0156-0.89062-8.5625-0.89062-12.359 0-19.641 7.7656-7.2656 7.7656-7.2656 20.953 0 13.375 7.3438 21.031 7.3594 7.6719 20.156 7.6719 4.1406 0 8.0938-0.85938 3.9531-0.84375 7.6719-2.5469z"/>
</defs>
<g transform="translate(88.727 282.76) scale(.1 -.1)">
<use xlink:href="#ad"/>
<use x="52.099609" xlink:href="#h"/>
<use x="113.623047" xlink:href="#i"/>
<use x="174.902344" xlink:href="#e"/>
<use x="213.765625" xlink:href="#p"/>
<use x="268.746094" xlink:href="#w"/>
</g>
</g>
<g clip-path="url(#a)">
<defs>
<path id="v" d="m30.609 48.391q-7.2188 0-11.422-5.6406t-4.2031-15.453 4.1719-15.453q4.1875-5.6406 11.453-5.6406 7.1875 0 11.375 5.6562 4.2031 5.6719 4.2031 15.438 0 9.7188-4.2031 15.406-4.1875 5.6875-11.375 5.6875zm0 7.6094q11.719 0 18.406-7.625 6.7031-7.6094 6.7031-21.078 0-13.422-6.7031-21.078-6.6875-7.6406-18.406-7.6406-11.766 0-18.438 7.6406-6.6562 7.6562-6.6562 21.078 0 13.469 6.6562 21.078 6.6719 7.625 18.438 7.625z"/>
<path id="af" d="m45.406 46.391v29.594h8.9844v-75.984h-8.9844v8.2031q-2.8281-4.875-7.1562-7.25-4.3125-2.375-10.375-2.375-9.9062 0-16.141 7.9062-6.2188 7.9219-6.2188 20.812t6.2188 20.797q6.2344 7.9062 16.141 7.9062 6.0625 0 10.375-2.375 4.3281-2.3594 7.1562-7.2344zm-30.609-19.094q0-9.9062 4.0781-15.547t11.203-5.6406 11.219 5.6406q4.1094 5.6406 4.1094 15.547t-4.1094 15.547q-4.0938 5.6406-11.219 5.6406t-11.203-5.6406-4.0781-15.547z"/>
</defs>
<g transform="translate(138.46 282.76) scale(.1 -.1)">
<use xlink:href="#p"/>
<use x="54.980469" xlink:href="#v"/>
<use x="116.162109" xlink:href="#n"/>
<use x="179.541016" xlink:href="#g"/>
<use x="207.324219" xlink:href="#af"/>
</g>
</g>
<g clip-path="url(#a)">
<defs>
<path id="ap" d="m17.922 72.906v-27.109h-8.2969v27.109z"/>
</defs>
<g transform="translate(192.16 282.76) scale(.1 -.1)">
<use xlink:href="#f"/>
<use x="63.378906" xlink:href="#ap"/>
<use x="90.869141" xlink:href="#o"/>
</g>
</g>
<g clip-path="url(#a)">
<defs>
<path id="ae" d="m45.406 27.984q0 9.7656-4.0312 15.125-4.0156 5.375-11.297 5.375-7.2188 0-11.25-5.375-4.0312-5.3594-4.0312-15.125 0-9.7188 4.0312-15.094t11.25-5.375q7.2812 0 11.297 5.375 4.0312 5.375 4.0312 15.094zm8.9844-21.203q0-13.953-6.2031-20.766-6.1875-6.8125-18.984-6.8125-4.7344 0-8.9375 0.70312t-8.1562 2.1719v8.7344q3.9531-2.1406 7.8125-3.1562 3.8594-1.0312 7.8594-1.0312 8.8438 0 13.234 4.6094t4.3906 13.938v4.4531q-2.7812-4.8438-7.125-7.2344t-10.406-2.3906q-10.047 0-16.203 7.6562-6.1562 7.6719-6.1562 20.328 0 12.688 6.1562 20.344 6.1562 7.6719 16.203 7.6719 6.0625 0 10.406-2.3906t7.125-7.2188v8.2969h8.9844z"/>
</defs>
<g transform="translate(240.53 282.76) scale(.1 -.1)">
<use xlink:href="#af"/>
<use x="63.476562" xlink:href="#e"/>
<use x="104.589844" xlink:href="#i"/>
<use x="165.869141" xlink:href="#ae"/>
</g>
</g>
<g clip-path="url(#a)">
<g transform="translate(305.77 282.76) scale(.1 -.1)">
<use xlink:href="#v"/>
<use x="61.181641" xlink:href="#f"/>
</g>
</g>
<g clip-path="url(#a)">
<g transform="translate(364.71 282.76) scale(.1 -.1)">
<use xlink:href="#l"/>
<use x="97.412109" xlink:href="#n"/>
<use x="160.791016" xlink:href="#p"/>
<use x="215.771484" xlink:href="#w"/>
</g>
</g>
<g clip-path="url(#a)">
<g transform="translate(436.08 282.76) scale(.1 -.1)">
<use xlink:href="#g"/>
<use x="27.783203" xlink:href="#v"/>
<use x="88.964844" xlink:href="#f"/>
<use x="152.34375" xlink:href="#ae"/>
<use x="215.820312" xlink:href="#h"/>
<use x="277.34375" xlink:href="#e"/>
</g>
</g>
<g clip-path="url(#a)">
<defs>
<path id="d" d="m10.688 12.406h10.312v-12.406h-10.312z"/>
</defs>
<g transform="translate(530.41 282.76) scale(.1 -.1)">
<use xlink:href="#d"/>
</g>
</g>
<g clip-path="url(#a)">
<defs>
<path id="r" d="m9.8125 72.906h9.8594v-72.906h-9.8594z"/>
<path id="ai" d="m9.8125 72.906h14.703l18.594-49.609 18.703 49.609h14.703v-72.906h-9.625v64.016l-18.797-50h-9.9062l-18.797 50v-64.016h-9.5781z"/>
</defs>
<g transform="translate(90.915 177.07) scale(.1 -.1)">
<use xlink:href="#r"/>
<use x="29.492188" xlink:href="#ai"/>
<use x="115.771484" xlink:href="#q"/>
<use x="176.074219" xlink:href="#m"/>
<use x="231.787109" xlink:href="#r"/>
<use x="261.279297" xlink:href="#t"/>
<use x="331.103516" xlink:href="#r"/>
<use x="360.595703" xlink:href="#j"/>
</g>
</g>
<g clip-path="url(#a)">
<defs>
<path id="c" d="m12.406 8.2969h16.109v55.625l-17.531-3.5156v8.9844l17.438 3.5156h9.8594v-64.609h16.109v-8.2969h-41.984z"/>
</defs>
<g transform="translate(120.77 16.093) scale(.1 -.1)">
<use xlink:href="#c"/>
<use x="63.623047" xlink:href="#d"/>
<use x="95.410156" xlink:href="#c"/>
</g>
</g>
<g clip-path="url(#a)">
<defs>
<path id="an" d="m19.188 8.2969h34.422v-8.2969h-46.281v8.2969q5.6094 5.8125 15.297 15.594 9.7031 9.7969 12.188 12.641 4.7344 5.3125 6.6094 9 1.8906 3.6875 1.8906 7.25 0 5.8125-4.0781 9.4688-4.0781 3.6719-10.625 3.6719-4.6406 0-9.7969-1.6094-5.1406-1.6094-11-4.8906v9.9688q5.9531 2.3906 11.125 3.6094 5.1875 1.2188 9.4844 1.2188 11.328 0 18.062-5.6719 6.7344-5.6562 6.7344-15.125 0-4.5-1.6875-8.5312-1.6719-4.0156-6.125-9.4844-1.2188-1.4219-7.7656-8.1875-6.5312-6.7656-18.453-18.922z"/>
</defs>
<g transform="translate(17.382 230.28) scale(.1 -.1)">
<use xlink:href="#c"/>
<use x="63.623047" xlink:href="#d"/>
<use x="95.410156" xlink:href="#an"/>
</g>
</g>
<g clip-path="url(#a)">
<defs>
<path id="ac" d="m40.578 39.312q7.0781-1.5156 11.047-6.3125 3.9844-4.7812 3.9844-11.812 0-10.781-7.4219-16.703-7.4219-5.9062-21.094-5.9062-4.5781 0-9.4375 0.90625t-10.031 2.7188v9.5156q4.0938-2.3906 8.9688-3.6094 4.8906-1.2188 10.219-1.2188 9.2656 0 14.125 3.6562t4.8594 10.641q0 6.4531-4.5156 10.078-4.5156 3.6406-12.562 3.6406h-8.5v8.1094h8.8906q7.2656 0 11.125 2.9062t3.8594 8.375q0 5.6094-3.9844 8.6094-3.9688 3.0156-11.391 3.0156-4.0625 0-8.7031-0.89062-4.6406-0.875-10.203-2.7188v8.7812q5.625 1.5625 10.531 2.3438t9.25 0.78125q11.234 0 17.766-5.1094 6.5469-5.0938 6.5469-13.781 0-6.0625-3.4688-10.234t-9.8594-5.7812z"/>
</defs>
<g transform="translate(224.16 69.902) scale(.1 -.1)">
<use xlink:href="#c"/>
<use x="63.623047" xlink:href="#d"/>
<use x="95.410156" xlink:href="#ac"/>
</g>
</g>
<g clip-path="url(#a)">
<defs>
<path id="ab" d="m10.797 72.906h38.719v-8.3125h-29.688v-17.859q2.1406 0.73438 4.2812 1.0938 2.1562 0.35938 4.3125 0.35938 12.203 0 19.328-6.6875 7.1406-6.6875 7.1406-18.109 0-11.766-7.3281-18.297-7.3281-6.5156-20.656-6.5156-4.5938 0-9.3594 0.78125-4.75 0.78125-9.8281 2.3438v9.9219q4.3906-2.3906 9.0781-3.5625t9.9062-1.1719q8.4531 0 13.375 4.4375 4.9375 4.4375 4.9375 12.062 0 7.6094-4.9375 12.047-4.9219 4.4531-13.375 4.4531-3.9531 0-7.8906-0.875-3.9219-0.875-8.0156-2.7344z"/>
</defs>
<g transform="translate(65.715 123.57) scale(.1 -.1)">
<use xlink:href="#c"/>
<use x="63.623047" xlink:href="#d"/>
<use x="95.410156" xlink:href="#ab"/>
</g>
</g>
<g clip-path="url(#a)">
<defs>
<path id="aa" d="m33.016 40.375q-6.6406 0-10.531-4.5469-3.875-4.5312-3.875-12.438 0-7.8594 3.875-12.438 3.8906-4.5625 10.531-4.5625t10.516 4.5625q3.875 4.5781 3.875 12.438 0 7.9062-3.875 12.438-3.875 4.5469-10.516 4.5469zm19.578 30.922v-8.9844q-3.7188 1.75-7.5 2.6719-3.7812 0.9375-7.5 0.9375-9.7656 0-14.922-6.5938-5.1406-6.5938-5.875-19.922 2.875 4.25 7.2188 6.5156 4.3594 2.2656 9.5781 2.2656 10.984 0 17.359-6.6719 6.375-6.6562 6.375-18.125 0-11.234-6.6406-18.031-6.6406-6.7812-17.672-6.7812-12.656 0-19.344 9.6875-6.6875 9.7031-6.6875 28.109 0 17.281 8.2031 27.562t22.016 10.281q3.7188 0 7.5-0.73438t7.8906-2.1875z"/>
</defs>
<g transform="translate(144.05 230.28) scale(.1 -.1)">
<use xlink:href="#c"/>
<use x="63.623047" xlink:href="#d"/>
<use x="95.410156" xlink:href="#aa"/>
</g>
</g>
<g clip-path="url(#a)">
<defs>
<path id="z" d="m8.2031 72.906h46.875v-4.2031l-26.469-68.703h-10.297l24.906 64.594h-35.016z"/>
</defs>
<g transform="translate(190.72 230.28) scale(.1 -.1)">
<use xlink:href="#c"/>
<use x="63.623047" xlink:href="#d"/>
<use x="95.410156" xlink:href="#z"/>
</g>
</g>
<g clip-path="url(#a)">
<defs>
<path id="y" d="m31.781 34.625q-7.0312 0-11.062-3.7656-4.0156-3.7656-4.0156-10.344 0-6.5938 4.0156-10.359 4.0312-3.7656 11.062-3.7656t11.078 3.7812q4.0625 3.7969 4.0625 10.344 0 6.5781-4.0312 10.344-4.0156 3.7656-11.109 3.7656zm-9.8594 4.1875q-6.3438 1.5625-9.8906 5.9062-3.5312 4.3594-3.5312 10.609 0 8.7344 6.2188 13.812 6.2344 5.0781 17.062 5.0781 10.891 0 17.094-5.0781t6.2031-13.812q0-6.25-3.5469-10.609-3.5312-4.3438-9.8281-5.9062 7.125-1.6562 11.094-6.5 3.9844-4.8281 3.9844-11.797 0-10.609-6.4688-16.281-6.4688-5.6562-18.531-5.6562-12.047 0-18.531 5.6562-6.4688 5.6719-6.4688 16.281 0 6.9688 4 11.797 4.0156 4.8438 11.141 6.5zm-3.6094 15.578q0-5.6562 3.5312-8.8281 3.5469-3.1719 9.9375-3.1719 6.3594 0 9.9375 3.1719 3.5938 3.1719 3.5938 8.8281 0 5.6719-3.5938 8.8438-3.5781 3.1719-9.9375 3.1719-6.3906 0-9.9375-3.1719-3.5312-3.1719-3.5312-8.8438z"/>
</defs>
<g transform="translate(274.05 230.28) scale(.1 -.1)">
<use xlink:href="#c"/>
<use x="63.623047" xlink:href="#d"/>
<use x="95.410156" xlink:href="#y"/>
</g>
</g>
<g clip-path="url(#a)">
<defs>
<path id="al" d="m10.984 1.5156v8.9844q3.7188-1.7656 7.5156-2.6875 3.8125-0.92188 7.4844-0.92188 9.7656 0 14.906 6.5625 5.1562 6.5625 5.8906 19.953-2.8281-4.2031-7.1875-6.4531-4.3438-2.25-9.6094-2.25-10.938 0-17.312 6.6094-6.375 6.625-6.375 18.109 0 11.219 6.6406 18 6.6406 6.7969 17.672 6.7969 12.656 0 19.312-9.7031 6.6719-9.6875 6.6719-28.141 0-17.234-8.1875-27.516-8.1719-10.281-21.984-10.281-3.7188 0-7.5312 0.73438-3.7969 0.73438-7.9062 2.2031zm19.625 30.906q6.6406 0 10.516 4.5312 3.8906 4.5469 3.8906 12.469 0 7.8594-3.8906 12.422-3.875 4.5625-10.516 4.5625t-10.516-4.5625-3.875-12.422q0-7.9219 3.875-12.469 3.875-4.5312 10.516-4.5312z"/>
</defs>
<g transform="translate(446.27 177.07) scale(.1 -.1)">
<use xlink:href="#c"/>
<use x="63.623047" xlink:href="#d"/>
<use x="95.410156" xlink:href="#al"/>
</g>
</g>
<g clip-path="url(#a)">
<defs>
<path id="ao" d="m31.781 66.406q-7.6094 0-11.453-7.5-3.8281-7.4844-3.8281-22.531 0-14.984 3.8281-22.484 3.8438-7.5 11.453-7.5 7.6719 0 11.5 7.5 3.8438 7.5 3.8438 22.484 0 15.047-3.8438 22.531-3.8281 7.5-11.5 7.5zm0 7.8125q12.266 0 18.734-9.7031 6.4688-9.6875 6.4688-28.141 0-18.406-6.4688-28.109-6.4688-9.6875-18.734-9.6875-12.25 0-18.719 9.6875-6.4688 9.7031-6.4688 28.109 0 18.453 6.4688 28.141 6.4688 9.7031 18.719 9.7031z"/>
</defs>
<g transform="translate(367.53 230.28) scale(.1 -.1)">
<use xlink:href="#c"/>
<use x="63.623047" xlink:href="#d"/>
<use x="95.410156" xlink:href="#c"/>
<use x="159.033203" xlink:href="#ao"/>
</g>
</g>
<g clip-path="url(#a)">
<g transform="translate(440.87 230.28) scale(.1 -.1)">
<use xlink:href="#c"/>
<use x="63.623047" xlink:href="#d"/>
<use x="95.410156" xlink:href="#c"/>
<use x="159.033203" xlink:href="#c"/>
</g>
</g>
<g clip-path="url(#a)">
<g transform="translate(64.201 177.07) scale(.1 -.1)">
<use xlink:href="#c"/>
<use x="63.623047" xlink:href="#d"/>
<use x="95.410156" xlink:href="#c"/>
<use x="159.033203" xlink:href="#ac"/>
</g>
</g>
<g clip-path="url(#a)">
<defs>
<path id="am" d="m37.797 64.312-24.906-38.922h24.906zm-2.5938 8.5938h12.406v-47.516h10.406v-8.2031h-10.406v-17.188h-9.8125v17.188h-32.906v9.5156z"/>
</defs>
<g transform="translate(60.867 230.28) scale(.1 -.1)">
<use xlink:href="#c"/>
<use x="63.623047" xlink:href="#d"/>
<use x="95.410156" xlink:href="#c"/>
<use x="159.033203" xlink:href="#am"/>
</g>
</g>
<g clip-path="url(#a)">
<g transform="translate(34.201 230.28) scale(.1 -.1)">
<use xlink:href="#c"/>
<use x="63.623047" xlink:href="#d"/>
<use x="95.410156" xlink:href="#c"/>
<use x="159.033203" xlink:href="#ab"/>
</g>
</g>
<g clip-path="url(#a)">
<g transform="translate(94.201 230.28) scale(.1 -.1)">
<use xlink:href="#c"/>
<use x="63.623047" xlink:href="#d"/>
<use x="95.410156" xlink:href="#c"/>
<use x="159.033203" xlink:href="#aa"/>
</g>
</g>
<g clip-path="url(#a)">
<g transform="translate(117.59 16.093) scale(.1 -.1)">
<use xlink:href="#c"/>
<use x="63.623047" xlink:href="#d"/>
<use x="95.410156" xlink:href="#c"/>
<use x="159.033203" xlink:href="#z"/>
</g>
</g>
<g clip-path="url(#a)">
<g transform="translate(520.87 230.28) scale(.1 -.1)">
<use xlink:href="#c"/>
<use x="63.623047" xlink:href="#d"/>
<use x="95.410156" xlink:href="#c"/>
<use x="159.033203" xlink:href="#y"/>
</g>
</g>
<defs>
<clipPath id="a">
<rect width="557.33" height="293.33"/>
</clipPath>
</defs>
</svg>
