<?xml version="1.0" encoding="utf-8" standalone="no"?>
<!DOCTYPE svg PUBLIC "-//W3C//DTD SVG 1.1//EN"
  "http://www.w3.org/Graphics/SVG/1.1/DTD/svg11.dtd">
<!-- Created with matplotlib (https://matplotlib.org/) -->
<svg height="160pt" version="1.1" viewBox="0 0 304 160" width="304pt" xmlns="http://www.w3.org/2000/svg" xmlns:xlink="http://www.w3.org/1999/xlink">
 <defs>
  <style type="text/css">
*{stroke-linecap:butt;stroke-linejoin:round;}
  </style>
 </defs>
 <g id="figure_1">
  <g id="patch_1">
   <path d="M 0 160 
L 304 160 
L 304 0 
L 0 0 
z
" style="fill:#ffffff;"/>
  </g>
  <g id="axes_1">
   <g id="LineCollection_1">
    <path clip-path="url(#pe0a3e4ca7f)" d="M 170.274312 8.64682 
L 170.274312 45.084949 
" style="fill:none;stroke:#000000;"/>
    <path clip-path="url(#pe0a3e4ca7f)" d="M 170.274312 45.084949 
L 42.35413 80.834689 
" style="fill:none;stroke:#000000;"/>
    <path clip-path="url(#pe0a3e4ca7f)" d="M 170.274312 45.084949 
L 179.411468 116.093934 
" style="fill:none;stroke:#000000;"/>
    <path clip-path="url(#pe0a3e4ca7f)" d="M 170.274312 45.084949 
L 289.057338 116.093934 
" style="fill:none;stroke:#000000;"/>
    <path clip-path="url(#pe0a3e4ca7f)" d="M 42.35413 80.834689 
L 14.942662 116.093934 
" style="fill:none;stroke:#000000;"/>
    <path clip-path="url(#pe0a3e4ca7f)" d="M 42.35413 80.834689 
L 69.765597 116.093934 
" style="fill:none;stroke:#000000;"/>
    <path clip-path="url(#pe0a3e4ca7f)" d="M 179.411468 116.093934 
L 124.588532 151.35318 
" style="fill:none;stroke:#000000;"/>
    <path clip-path="url(#pe0a3e4ca7f)" d="M 179.411468 116.093934 
L 179.411468 151.35318 
" style="fill:none;stroke:#000000;"/>
    <path clip-path="url(#pe0a3e4ca7f)" d="M 179.411468 116.093934 
L 234.234403 151.35318 
" style="fill:none;stroke:#000000;"/>
    <path clip-path="url(#pe0a3e4ca7f)" d="M 14.942662 116.093934 
L 14.942662 151.35318 
" style="fill:none;stroke:#000000;"/>
    <path clip-path="url(#pe0a3e4ca7f)" d="M 69.765597 116.093934 
L 69.765597 151.35318 
" style="fill:none;stroke:#000000;"/>
    <path clip-path="url(#pe0a3e4ca7f)" d="M 289.057338 116.093934 
L 289.057338 151.35318 
" style="fill:none;stroke:#000000;"/>
   </g>
   <g id="text_1">
    <g id="patch_2">
     <path clip-path="url(#pe0a3e4ca7f)" d="M 164.003062 23.85776 
L 164.003062 29.87401 
Q 164.003062 32.27401 166.403062 32.27401 
L 174.145562 32.27401 
Q 176.545562 32.27401 176.545562 29.87401 
L 176.545562 23.85776 
Q 176.545562 21.45776 174.145562 21.45776 
L 166.403062 21.45776 
Q 164.003062 21.45776 164.003062 23.85776 
z
" style="fill:#ffffff;stroke:#ffffff;stroke-linejoin:miter;"/>
    </g>
    <g clip-path="url(#pe0a3e4ca7f)">
     <!-- H -->
     <defs>
      <path d="M 9.8125 72.90625 
L 19.671875 72.90625 
L 19.671875 43.015625 
L 55.515625 43.015625 
L 55.515625 72.90625 
L 65.375 72.90625 
L 65.375 0 
L 55.515625 0 
L 55.515625 34.71875 
L 19.671875 34.71875 
L 19.671875 0 
L 9.8125 0 
z
" id="DejaVuSans-72"/>
     </defs>
     <g transform="translate(168.066812 23.85776)rotate(-270)scale(0.08 -0.08)">
      <use xlink:href="#DejaVuSans-72"/>
     </g>
    </g>
   </g>
   <g id="text_2">
    <g id="patch_3">
     <path clip-path="url(#pe0a3e4ca7f)" d="M 105.366891 69.736116 
L 110.637437 68.263161 
Q 112.948869 67.617187 112.302895 65.305756 
L 110.218957 57.84898 
Q 109.572983 55.537548 107.261551 56.183522 
L 101.991004 57.656476 
Q 99.679572 58.30245 100.325546 60.613882 
L 102.409485 68.070658 
Q 103.055459 70.38209 105.366891 69.736116 
z
" style="fill:#ffffff;stroke:#ffffff;stroke-linejoin:miter;"/>
    </g>
    <g clip-path="url(#pe0a3e4ca7f)">
     <!-- A -->
     <defs>
      <path d="M 34.1875 63.1875 
L 20.796875 26.90625 
L 47.609375 26.90625 
z
M 28.609375 72.90625 
L 39.796875 72.90625 
L 67.578125 0 
L 57.328125 0 
L 50.6875 18.703125 
L 17.828125 18.703125 
L 11.1875 0 
L 0.78125 0 
z
" id="DejaVuSans-65"/>
     </defs>
     <g transform="translate(104.273109 65.822332)rotate(-15.614037)scale(0.08 -0.08)">
      <use xlink:href="#DejaVuSans-65"/>
     </g>
    </g>
   </g>
   <g id="text_3">
    <g id="patch_4">
     <path clip-path="url(#pe0a3e4ca7f)" d="M 168.315109 78.99765 
L 168.930735 83.781955 
Q 169.237032 86.162329 171.617406 85.856032 
L 179.296593 84.867904 
Q 181.676967 84.561607 181.37067 82.181233 
L 180.755045 77.396928 
Q 180.448748 75.016554 178.068373 75.322851 
L 170.389186 76.310979 
Q 168.008812 76.617276 168.315109 78.99765 
z
" style="fill:#ffffff;stroke:#ffffff;stroke-linejoin:miter;"/>
    </g>
    <g clip-path="url(#pe0a3e4ca7f)">
     <!-- P -->
     <defs>
      <path d="M 19.671875 64.796875 
L 19.671875 37.40625 
L 32.078125 37.40625 
Q 38.96875 37.40625 42.71875 40.96875 
Q 46.484375 44.53125 46.484375 51.125 
Q 46.484375 57.671875 42.71875 61.234375 
Q 38.96875 64.796875 32.078125 64.796875 
z
M 9.8125 72.90625 
L 32.078125 72.90625 
Q 44.34375 72.90625 50.609375 67.359375 
Q 56.890625 61.8125 56.890625 51.125 
Q 56.890625 40.328125 50.609375 34.8125 
Q 44.34375 29.296875 32.078125 29.296875 
L 19.671875 29.296875 
L 19.671875 0 
L 9.8125 0 
z
" id="DejaVuSans-80"/>
     </defs>
     <g transform="translate(172.345628 78.479019)rotate(-277.332304)scale(0.08 -0.08)">
      <use xlink:href="#DejaVuSans-80"/>
     </g>
    </g>
   </g>
   <g id="text_4">
    <g id="patch_5">
     <path clip-path="url(#pe0a3e4ca7f)" d="M 223.935247 84.470074 
L 228.96073 87.474329 
Q 231.020706 88.705791 232.252168 86.645815 
L 236.224916 80.000247 
Q 237.456379 77.940271 235.396403 76.708809 
L 230.37092 73.704554 
Q 228.310944 72.473092 227.079482 74.533068 
L 223.106733 81.178636 
Q 221.875271 83.238612 223.935247 84.470074 
z
" style="fill:#ffffff;stroke:#ffffff;stroke-linejoin:miter;"/>
    </g>
    <g clip-path="url(#pe0a3e4ca7f)">
     <!-- U -->
     <defs>
      <path d="M 8.6875 72.90625 
L 18.609375 72.90625 
L 18.609375 28.609375 
Q 18.609375 16.890625 22.84375 11.734375 
Q 27.09375 6.59375 36.625 6.59375 
Q 46.09375 6.59375 50.34375 11.734375 
Q 54.59375 16.890625 54.59375 28.609375 
L 54.59375 72.90625 
L 64.5 72.90625 
L 64.5 27.390625 
Q 64.5 13.140625 57.4375 5.859375 
Q 50.390625 -1.421875 36.625 -1.421875 
Q 22.796875 -1.421875 15.734375 5.859375 
Q 8.6875 13.140625 8.6875 27.390625 
z
" id="DejaVuSans-85"/>
     </defs>
     <g transform="translate(226.020395 80.982063)rotate(-329.128843)scale(0.08 -0.08)">
      <use xlink:href="#DejaVuSans-85"/>
     </g>
    </g>
   </g>
   <g id="text_5">
    <g id="patch_6">
     <path clip-path="url(#pe0a3e4ca7f)" d="M 32.048166 104.30883 
L 35.150762 100.317975 
Q 36.623805 98.423207 34.729037 96.950165 
L 28.616436 92.198068 
Q 26.721668 90.725025 25.248626 92.619793 
L 22.14603 96.610648 
Q 20.672987 98.505416 22.567755 99.978459 
L 28.680355 104.730555 
Q 30.575123 106.203598 32.048166 104.30883 
z
" style="fill:#ffffff;stroke:#ffffff;stroke-linejoin:miter;"/>
    </g>
    <g clip-path="url(#pe0a3e4ca7f)">
     <!-- E -->
     <defs>
      <path d="M 9.8125 72.90625 
L 55.90625 72.90625 
L 55.90625 64.59375 
L 19.671875 64.59375 
L 19.671875 43.015625 
L 54.390625 43.015625 
L 54.390625 34.71875 
L 19.671875 34.71875 
L 19.671875 8.296875 
L 56.78125 8.296875 
L 56.78125 0 
L 9.8125 0 
z
" id="DejaVuSans-69"/>
     </defs>
     <g transform="translate(28.83989 101.814631)rotate(-52.137563)scale(0.08 -0.08)">
      <use xlink:href="#DejaVuSans-69"/>
     </g>
    </g>
   </g>
   <g id="text_6">
    <g id="patch_7">
     <path clip-path="url(#pe0a3e4ca7f)" d="M 49.394465 100.108268 
L 52.823125 104.518538 
Q 54.296168 106.413305 56.190936 104.940263 
L 62.303536 100.188166 
Q 64.198304 98.715124 62.725262 96.820356 
L 59.296602 92.410086 
Q 57.823559 90.515318 55.928791 91.98836 
L 49.816191 96.740457 
Q 47.921423 98.2135 49.394465 100.108268 
z
" style="fill:#ffffff;stroke:#ffffff;stroke-linejoin:miter;"/>
    </g>
    <g clip-path="url(#pe0a3e4ca7f)">
     <!-- C -->
     <defs>
      <path d="M 64.40625 67.28125 
L 64.40625 56.890625 
Q 59.421875 61.53125 53.78125 63.8125 
Q 48.140625 66.109375 41.796875 66.109375 
Q 29.296875 66.109375 22.65625 58.46875 
Q 16.015625 50.828125 16.015625 36.375 
Q 16.015625 21.96875 22.65625 14.328125 
Q 29.296875 6.6875 41.796875 6.6875 
Q 48.140625 6.6875 53.78125 8.984375 
Q 59.421875 11.28125 64.40625 15.921875 
L 64.40625 5.609375 
Q 59.234375 2.09375 53.4375 0.328125 
Q 47.65625 -1.421875 41.21875 -1.421875 
Q 24.65625 -1.421875 15.125 8.703125 
Q 5.609375 18.84375 5.609375 36.375 
Q 5.609375 53.953125 15.125 64.078125 
Q 24.65625 74.21875 41.21875 74.21875 
Q 47.75 74.21875 53.53125 72.484375 
Q 59.328125 70.75 64.40625 67.28125 
z
" id="DejaVuSans-67"/>
     </defs>
     <g transform="translate(52.602742 97.614069)rotate(-307.862437)scale(0.08 -0.08)">
      <use xlink:href="#DejaVuSans-67"/>
     </g>
    </g>
   </g>
   <g id="text_7">
    <g id="patch_8">
     <path clip-path="url(#pe0a3e4ca7f)" d="M 140.553781 148.541467 
L 170.23084 129.454734 
Q 172.249402 128.156501 170.951168 126.137939 
L 166.763014 119.625976 
Q 165.464781 117.607414 163.446219 118.905647 
L 133.76916 137.99238 
Q 131.750598 139.290613 133.048832 141.309175 
L 137.236986 147.821138 
Q 138.535219 149.8397 140.553781 148.541467 
z
" style="fill:#ffffff;stroke:#ffffff;stroke-linejoin:miter;"/>
    </g>
    <g clip-path="url(#pe0a3e4ca7f)">
     <!-- Terminal -->
     <defs>
      <path d="M -0.296875 72.90625 
L 61.375 72.90625 
L 61.375 64.59375 
L 35.5 64.59375 
L 35.5 0 
L 25.59375 0 
L 25.59375 64.59375 
L -0.296875 64.59375 
z
" id="DejaVuSans-84"/>
      <path d="M 56.203125 29.59375 
L 56.203125 25.203125 
L 14.890625 25.203125 
Q 15.484375 15.921875 20.484375 11.0625 
Q 25.484375 6.203125 34.421875 6.203125 
Q 39.59375 6.203125 44.453125 7.46875 
Q 49.3125 8.734375 54.109375 11.28125 
L 54.109375 2.78125 
Q 49.265625 0.734375 44.1875 -0.34375 
Q 39.109375 -1.421875 33.890625 -1.421875 
Q 20.796875 -1.421875 13.15625 6.1875 
Q 5.515625 13.8125 5.515625 26.8125 
Q 5.515625 40.234375 12.765625 48.109375 
Q 20.015625 56 32.328125 56 
Q 43.359375 56 49.78125 48.890625 
Q 56.203125 41.796875 56.203125 29.59375 
z
M 47.21875 32.234375 
Q 47.125 39.59375 43.09375 43.984375 
Q 39.0625 48.390625 32.421875 48.390625 
Q 24.90625 48.390625 20.390625 44.140625 
Q 15.875 39.890625 15.1875 32.171875 
z
" id="DejaVuSans-101"/>
      <path d="M 41.109375 46.296875 
Q 39.59375 47.171875 37.8125 47.578125 
Q 36.03125 48 33.890625 48 
Q 26.265625 48 22.1875 43.046875 
Q 18.109375 38.09375 18.109375 28.8125 
L 18.109375 0 
L 9.078125 0 
L 9.078125 54.6875 
L 18.109375 54.6875 
L 18.109375 46.1875 
Q 20.953125 51.171875 25.484375 53.578125 
Q 30.03125 56 36.53125 56 
Q 37.453125 56 38.578125 55.875 
Q 39.703125 55.765625 41.0625 55.515625 
z
" id="DejaVuSans-114"/>
      <path d="M 52 44.1875 
Q 55.375 50.25 60.0625 53.125 
Q 64.75 56 71.09375 56 
Q 79.640625 56 84.28125 50.015625 
Q 88.921875 44.046875 88.921875 33.015625 
L 88.921875 0 
L 79.890625 0 
L 79.890625 32.71875 
Q 79.890625 40.578125 77.09375 44.375 
Q 74.3125 48.1875 68.609375 48.1875 
Q 61.625 48.1875 57.5625 43.546875 
Q 53.515625 38.921875 53.515625 30.90625 
L 53.515625 0 
L 44.484375 0 
L 44.484375 32.71875 
Q 44.484375 40.625 41.703125 44.40625 
Q 38.921875 48.1875 33.109375 48.1875 
Q 26.21875 48.1875 22.15625 43.53125 
Q 18.109375 38.875 18.109375 30.90625 
L 18.109375 0 
L 9.078125 0 
L 9.078125 54.6875 
L 18.109375 54.6875 
L 18.109375 46.1875 
Q 21.1875 51.21875 25.484375 53.609375 
Q 29.78125 56 35.6875 56 
Q 41.65625 56 45.828125 52.96875 
Q 50 49.953125 52 44.1875 
z
" id="DejaVuSans-109"/>
      <path d="M 9.421875 54.6875 
L 18.40625 54.6875 
L 18.40625 0 
L 9.421875 0 
z
M 9.421875 75.984375 
L 18.40625 75.984375 
L 18.40625 64.59375 
L 9.421875 64.59375 
z
" id="DejaVuSans-105"/>
      <path d="M 54.890625 33.015625 
L 54.890625 0 
L 45.90625 0 
L 45.90625 32.71875 
Q 45.90625 40.484375 42.875 44.328125 
Q 39.84375 48.1875 33.796875 48.1875 
Q 26.515625 48.1875 22.3125 43.546875 
Q 18.109375 38.921875 18.109375 30.90625 
L 18.109375 0 
L 9.078125 0 
L 9.078125 54.6875 
L 18.109375 54.6875 
L 18.109375 46.1875 
Q 21.34375 51.125 25.703125 53.5625 
Q 30.078125 56 35.796875 56 
Q 45.21875 56 50.046875 50.171875 
Q 54.890625 44.34375 54.890625 33.015625 
z
" id="DejaVuSans-110"/>
      <path d="M 34.28125 27.484375 
Q 23.390625 27.484375 19.1875 25 
Q 14.984375 22.515625 14.984375 16.5 
Q 14.984375 11.71875 18.140625 8.90625 
Q 21.296875 6.109375 26.703125 6.109375 
Q 34.1875 6.109375 38.703125 11.40625 
Q 43.21875 16.703125 43.21875 25.484375 
L 43.21875 27.484375 
z
M 52.203125 31.203125 
L 52.203125 0 
L 43.21875 0 
L 43.21875 8.296875 
Q 40.140625 3.328125 35.546875 0.953125 
Q 30.953125 -1.421875 24.3125 -1.421875 
Q 15.921875 -1.421875 10.953125 3.296875 
Q 6 8.015625 6 15.921875 
Q 6 25.140625 12.171875 29.828125 
Q 18.359375 34.515625 30.609375 34.515625 
L 43.21875 34.515625 
L 43.21875 35.40625 
Q 43.21875 41.609375 39.140625 45 
Q 35.0625 48.390625 27.6875 48.390625 
Q 23 48.390625 18.546875 47.265625 
Q 14.109375 46.140625 10.015625 43.890625 
L 10.015625 52.203125 
Q 14.9375 54.109375 19.578125 55.046875 
Q 24.21875 56 28.609375 56 
Q 40.484375 56 46.34375 49.84375 
Q 52.203125 43.703125 52.203125 31.203125 
z
" id="DejaVuSans-97"/>
      <path d="M 9.421875 75.984375 
L 18.40625 75.984375 
L 18.40625 0 
L 9.421875 0 
z
" id="DejaVuSans-108"/>
     </defs>
     <g transform="translate(138.355574 145.123579)rotate(-32.747005)scale(0.08 -0.08)">
      <use xlink:href="#DejaVuSans-84"/>
      <use x="60.818359" xlink:href="#DejaVuSans-101"/>
      <use x="122.341797" xlink:href="#DejaVuSans-114"/>
      <use x="163.439453" xlink:href="#DejaVuSans-109"/>
      <use x="260.851562" xlink:href="#DejaVuSans-105"/>
      <use x="288.634766" xlink:href="#DejaVuSans-110"/>
      <use x="352.013672" xlink:href="#DejaVuSans-97"/>
      <use x="413.292969" xlink:href="#DejaVuSans-108"/>
     </g>
    </g>
   </g>
   <g id="text_8">
    <g id="patch_9">
     <path clip-path="url(#pe0a3e4ca7f)" d="M 173.140218 116.081057 
L 173.140218 151.366057 
Q 173.140218 153.766057 175.540218 153.766057 
L 183.282718 153.766057 
Q 185.682718 153.766057 185.682718 151.366057 
L 185.682718 116.081057 
Q 185.682718 113.681057 183.282718 113.681057 
L 175.540218 113.681057 
Q 173.140218 113.681057 173.140218 116.081057 
z
" style="fill:#ffffff;stroke:#ffffff;stroke-linejoin:miter;"/>
    </g>
    <g clip-path="url(#pe0a3e4ca7f)">
     <!-- Terminal -->
     <g transform="translate(177.203968 116.081057)rotate(-270)scale(0.08 -0.08)">
      <use xlink:href="#DejaVuSans-84"/>
      <use x="60.818359" xlink:href="#DejaVuSans-101"/>
      <use x="122.341797" xlink:href="#DejaVuSans-114"/>
      <use x="163.439453" xlink:href="#DejaVuSans-109"/>
      <use x="260.851562" xlink:href="#DejaVuSans-105"/>
      <use x="288.634766" xlink:href="#DejaVuSans-110"/>
      <use x="352.013672" xlink:href="#DejaVuSans-97"/>
      <use x="413.292969" xlink:href="#DejaVuSans-108"/>
     </g>
    </g>
   </g>
   <g id="text_9">
    <g id="patch_10">
     <path clip-path="url(#pe0a3e4ca7f)" d="M 188.592095 129.454734 
L 218.269154 148.541467 
Q 220.287716 149.8397 221.585949 147.821138 
L 225.774104 141.309175 
Q 227.072337 139.290613 225.053775 137.99238 
L 195.376716 118.905647 
Q 193.358154 117.607414 192.059921 119.625976 
L 187.871767 126.137939 
Q 186.573534 128.156501 188.592095 129.454734 
z
" style="fill:#ffffff;stroke:#ffffff;stroke-linejoin:miter;"/>
    </g>
    <g clip-path="url(#pe0a3e4ca7f)">
     <!-- Terminal -->
     <g transform="translate(190.790301 126.036847)rotate(-327.252995)scale(0.08 -0.08)">
      <use xlink:href="#DejaVuSans-84"/>
      <use x="60.818359" xlink:href="#DejaVuSans-101"/>
      <use x="122.341797" xlink:href="#DejaVuSans-114"/>
      <use x="163.439453" xlink:href="#DejaVuSans-109"/>
      <use x="260.851562" xlink:href="#DejaVuSans-105"/>
      <use x="288.634766" xlink:href="#DejaVuSans-110"/>
      <use x="352.013672" xlink:href="#DejaVuSans-97"/>
      <use x="413.292969" xlink:href="#DejaVuSans-108"/>
     </g>
    </g>
   </g>
   <g id="text_10">
    <g id="patch_11">
     <path clip-path="url(#pe0a3e4ca7f)" d="M 8.671412 116.081057 
L 8.671412 151.366057 
Q 8.671412 153.766057 11.071412 153.766057 
L 18.813912 153.766057 
Q 21.213912 153.766057 21.213912 151.366057 
L 21.213912 116.081057 
Q 21.213912 113.681057 18.813912 113.681057 
L 11.071412 113.681057 
Q 8.671412 113.681057 8.671412 116.081057 
z
" style="fill:#ffffff;stroke:#ffffff;stroke-linejoin:miter;"/>
    </g>
    <g clip-path="url(#pe0a3e4ca7f)">
     <!-- Terminal -->
     <g transform="translate(12.735162 116.081057)rotate(-270)scale(0.08 -0.08)">
      <use xlink:href="#DejaVuSans-84"/>
      <use x="60.818359" xlink:href="#DejaVuSans-101"/>
      <use x="122.341797" xlink:href="#DejaVuSans-114"/>
      <use x="163.439453" xlink:href="#DejaVuSans-109"/>
      <use x="260.851562" xlink:href="#DejaVuSans-105"/>
      <use x="288.634766" xlink:href="#DejaVuSans-110"/>
      <use x="352.013672" xlink:href="#DejaVuSans-97"/>
      <use x="413.292969" xlink:href="#DejaVuSans-108"/>
     </g>
    </g>
   </g>
   <g id="text_11">
    <g id="patch_12">
     <path clip-path="url(#pe0a3e4ca7f)" d="M 63.494347 116.081057 
L 63.494347 151.366057 
Q 63.494347 153.766057 65.894347 153.766057 
L 73.636847 153.766057 
Q 76.036847 153.766057 76.036847 151.366057 
L 76.036847 116.081057 
Q 76.036847 113.681057 73.636847 113.681057 
L 65.894347 113.681057 
Q 63.494347 113.681057 63.494347 116.081057 
z
" style="fill:#ffffff;stroke:#ffffff;stroke-linejoin:miter;"/>
    </g>
    <g clip-path="url(#pe0a3e4ca7f)">
     <!-- Terminal -->
     <g transform="translate(67.558097 116.081057)rotate(-270)scale(0.08 -0.08)">
      <use xlink:href="#DejaVuSans-84"/>
      <use x="60.818359" xlink:href="#DejaVuSans-101"/>
      <use x="122.341797" xlink:href="#DejaVuSans-114"/>
      <use x="163.439453" xlink:href="#DejaVuSans-109"/>
      <use x="260.851562" xlink:href="#DejaVuSans-105"/>
      <use x="288.634766" xlink:href="#DejaVuSans-110"/>
      <use x="352.013672" xlink:href="#DejaVuSans-97"/>
      <use x="413.292969" xlink:href="#DejaVuSans-108"/>
     </g>
    </g>
   </g>
   <g id="text_12">
    <g id="patch_13">
     <path clip-path="url(#pe0a3e4ca7f)" d="M 282.786088 116.081057 
L 282.786088 151.366057 
Q 282.786088 153.766057 285.186088 153.766057 
L 292.928588 153.766057 
Q 295.328588 153.766057 295.328588 151.366057 
L 295.328588 116.081057 
Q 295.328588 113.681057 292.928588 113.681057 
L 285.186088 113.681057 
Q 282.786088 113.681057 282.786088 116.081057 
z
" style="fill:#ffffff;stroke:#ffffff;stroke-linejoin:miter;"/>
    </g>
    <g clip-path="url(#pe0a3e4ca7f)">
     <!-- Terminal -->
     <g transform="translate(286.849838 116.081057)rotate(-270)scale(0.08 -0.08)">
      <use xlink:href="#DejaVuSans-84"/>
      <use x="60.818359" xlink:href="#DejaVuSans-101"/>
      <use x="122.341797" xlink:href="#DejaVuSans-114"/>
      <use x="163.439453" xlink:href="#DejaVuSans-109"/>
      <use x="260.851562" xlink:href="#DejaVuSans-105"/>
      <use x="288.634766" xlink:href="#DejaVuSans-110"/>
      <use x="352.013672" xlink:href="#DejaVuSans-97"/>
      <use x="413.292969" xlink:href="#DejaVuSans-108"/>
     </g>
    </g>
   </g>
   <g id="PathCollection_1">
    <defs>
     <path d="M 0 8.660254 
C 2.296726 8.660254 4.499694 7.747755 6.123724 6.123724 
C 7.747755 4.499694 8.660254 2.296726 8.660254 0 
C 8.660254 -2.296726 7.747755 -4.499694 6.123724 -6.123724 
C 4.499694 -7.747755 2.296726 -8.660254 0 -8.660254 
C -2.296726 -8.660254 -4.499694 -7.747755 -6.123724 -6.123724 
C -7.747755 -4.499694 -8.660254 -2.296726 -8.660254 0 
C -8.660254 2.296726 -7.747755 4.499694 -6.123724 6.123724 
C -4.499694 7.747755 -2.296726 8.660254 0 8.660254 
z
" id="C0_0_1a214c84cd"/>
    </defs>
    <g clip-path="url(#pe0a3e4ca7f)">
     <use style="fill:#ffffff;stroke:#ffffff;" x="14.942662" xlink:href="#C0_0_1a214c84cd" y="151.35318"/>
    </g>
    <g clip-path="url(#pe0a3e4ca7f)">
     <use style="fill:#ffffff;stroke:#ffffff;" x="69.765597" xlink:href="#C0_0_1a214c84cd" y="151.35318"/>
    </g>
    <g clip-path="url(#pe0a3e4ca7f)">
     <use style="fill:#ffffff;stroke:#ffffff;" x="124.588532" xlink:href="#C0_0_1a214c84cd" y="151.35318"/>
    </g>
    <g clip-path="url(#pe0a3e4ca7f)">
     <use style="fill:#ffffff;stroke:#ffffff;" x="179.411468" xlink:href="#C0_0_1a214c84cd" y="151.35318"/>
    </g>
    <g clip-path="url(#pe0a3e4ca7f)">
     <use style="fill:#ffffff;stroke:#ffffff;" x="234.234403" xlink:href="#C0_0_1a214c84cd" y="151.35318"/>
    </g>
    <g clip-path="url(#pe0a3e4ca7f)">
     <use style="fill:#ffffff;stroke:#ffffff;" x="289.057338" xlink:href="#C0_0_1a214c84cd" y="151.35318"/>
    </g>
    <g clip-path="url(#pe0a3e4ca7f)">
     <use style="fill:#ffffff;stroke:#ffffff;" x="170.274312" xlink:href="#C0_0_1a214c84cd" y="8.64682"/>
    </g>
    <g clip-path="url(#pe0a3e4ca7f)">
     <use style="fill:#ffffff;stroke:#ffffff;" x="170.274312" xlink:href="#C0_0_1a214c84cd" y="45.084949"/>
    </g>
    <g clip-path="url(#pe0a3e4ca7f)">
     <use style="fill:#ffffff;stroke:#ffffff;" x="42.35413" xlink:href="#C0_0_1a214c84cd" y="80.834689"/>
    </g>
    <g clip-path="url(#pe0a3e4ca7f)">
     <use style="fill:#ffffff;stroke:#ffffff;" x="179.411468" xlink:href="#C0_0_1a214c84cd" y="116.093934"/>
    </g>
    <g clip-path="url(#pe0a3e4ca7f)">
     <use style="fill:#ffffff;stroke:#ffffff;" x="14.942662" xlink:href="#C0_0_1a214c84cd" y="116.093934"/>
    </g>
    <g clip-path="url(#pe0a3e4ca7f)">
     <use style="fill:#ffffff;stroke:#ffffff;" x="69.765597" xlink:href="#C0_0_1a214c84cd" y="116.093934"/>
    </g>
    <g clip-path="url(#pe0a3e4ca7f)">
     <use style="fill:#ffffff;stroke:#ffffff;" x="289.057338" xlink:href="#C0_0_1a214c84cd" y="116.093934"/>
    </g>
   </g>
   <g id="text_13">
    <g clip-path="url(#pe0a3e4ca7f)">
     <!-- The -->
     <defs>
      <path d="M 54.890625 33.015625 
L 54.890625 0 
L 45.90625 0 
L 45.90625 32.71875 
Q 45.90625 40.484375 42.875 44.328125 
Q 39.84375 48.1875 33.796875 48.1875 
Q 26.515625 48.1875 22.3125 43.546875 
Q 18.109375 38.921875 18.109375 30.90625 
L 18.109375 0 
L 9.078125 0 
L 9.078125 75.984375 
L 18.109375 75.984375 
L 18.109375 46.1875 
Q 21.34375 51.125 25.703125 53.5625 
Q 30.078125 56 35.796875 56 
Q 45.21875 56 50.046875 50.171875 
Q 54.890625 44.34375 54.890625 33.015625 
z
" id="DejaVuSans-104"/>
     </defs>
     <g transform="translate(5.643443 154.112555)scale(0.1 -0.1)">
      <use xlink:href="#DejaVuSans-84"/>
      <use x="61.083984" xlink:href="#DejaVuSans-104"/>
      <use x="124.462891" xlink:href="#DejaVuSans-101"/>
     </g>
    </g>
   </g>
   <g id="text_14">
    <g clip-path="url(#pe0a3e4ca7f)">
     <!-- commander -->
     <defs>
      <path d="M 48.78125 52.59375 
L 48.78125 44.1875 
Q 44.96875 46.296875 41.140625 47.34375 
Q 37.3125 48.390625 33.40625 48.390625 
Q 24.65625 48.390625 19.8125 42.84375 
Q 14.984375 37.3125 14.984375 27.296875 
Q 14.984375 17.28125 19.8125 11.734375 
Q 24.65625 6.203125 33.40625 6.203125 
Q 37.3125 6.203125 41.140625 7.25 
Q 44.96875 8.296875 48.78125 10.40625 
L 48.78125 2.09375 
Q 45.015625 0.34375 40.984375 -0.53125 
Q 36.96875 -1.421875 32.421875 -1.421875 
Q 20.0625 -1.421875 12.78125 6.34375 
Q 5.515625 14.109375 5.515625 27.296875 
Q 5.515625 40.671875 12.859375 48.328125 
Q 20.21875 56 33.015625 56 
Q 37.15625 56 41.109375 55.140625 
Q 45.0625 54.296875 48.78125 52.59375 
z
" id="DejaVuSans-99"/>
      <path d="M 30.609375 48.390625 
Q 23.390625 48.390625 19.1875 42.75 
Q 14.984375 37.109375 14.984375 27.296875 
Q 14.984375 17.484375 19.15625 11.84375 
Q 23.34375 6.203125 30.609375 6.203125 
Q 37.796875 6.203125 41.984375 11.859375 
Q 46.1875 17.53125 46.1875 27.296875 
Q 46.1875 37.015625 41.984375 42.703125 
Q 37.796875 48.390625 30.609375 48.390625 
z
M 30.609375 56 
Q 42.328125 56 49.015625 48.375 
Q 55.71875 40.765625 55.71875 27.296875 
Q 55.71875 13.875 49.015625 6.21875 
Q 42.328125 -1.421875 30.609375 -1.421875 
Q 18.84375 -1.421875 12.171875 6.21875 
Q 5.515625 13.875 5.515625 27.296875 
Q 5.515625 40.765625 12.171875 48.375 
Q 18.84375 56 30.609375 56 
z
" id="DejaVuSans-111"/>
      <path d="M 45.40625 46.390625 
L 45.40625 75.984375 
L 54.390625 75.984375 
L 54.390625 0 
L 45.40625 0 
L 45.40625 8.203125 
Q 42.578125 3.328125 38.25 0.953125 
Q 33.9375 -1.421875 27.875 -1.421875 
Q 17.96875 -1.421875 11.734375 6.484375 
Q 5.515625 14.40625 5.515625 27.296875 
Q 5.515625 40.1875 11.734375 48.09375 
Q 17.96875 56 27.875 56 
Q 33.9375 56 38.25 53.625 
Q 42.578125 51.265625 45.40625 46.390625 
z
M 14.796875 27.296875 
Q 14.796875 17.390625 18.875 11.75 
Q 22.953125 6.109375 30.078125 6.109375 
Q 37.203125 6.109375 41.296875 11.75 
Q 45.40625 17.390625 45.40625 27.296875 
Q 45.40625 37.203125 41.296875 42.84375 
Q 37.203125 48.484375 30.078125 48.484375 
Q 22.953125 48.484375 18.875 42.84375 
Q 14.796875 37.203125 14.796875 27.296875 
z
" id="DejaVuSans-100"/>
     </defs>
     <g transform="translate(39.677316 154.112555)scale(0.1 -0.1)">
      <use xlink:href="#DejaVuSans-99"/>
      <use x="54.980469" xlink:href="#DejaVuSans-111"/>
      <use x="116.162109" xlink:href="#DejaVuSans-109"/>
      <use x="213.574219" xlink:href="#DejaVuSans-109"/>
      <use x="310.986328" xlink:href="#DejaVuSans-97"/>
      <use x="372.265625" xlink:href="#DejaVuSans-110"/>
      <use x="435.644531" xlink:href="#DejaVuSans-100"/>
      <use x="499.121094" xlink:href="#DejaVuSans-101"/>
      <use x="560.644531" xlink:href="#DejaVuSans-114"/>
     </g>
    </g>
   </g>
   <g id="text_15">
    <g clip-path="url(#pe0a3e4ca7f)">
     <!-- stood -->
     <defs>
      <path d="M 44.28125 53.078125 
L 44.28125 44.578125 
Q 40.484375 46.53125 36.375 47.5 
Q 32.28125 48.484375 27.875 48.484375 
Q 21.1875 48.484375 17.84375 46.4375 
Q 14.5 44.390625 14.5 40.28125 
Q 14.5 37.15625 16.890625 35.375 
Q 19.28125 33.59375 26.515625 31.984375 
L 29.59375 31.296875 
Q 39.15625 29.25 43.1875 25.515625 
Q 47.21875 21.78125 47.21875 15.09375 
Q 47.21875 7.46875 41.1875 3.015625 
Q 35.15625 -1.421875 24.609375 -1.421875 
Q 20.21875 -1.421875 15.453125 -0.5625 
Q 10.6875 0.296875 5.421875 2 
L 5.421875 11.28125 
Q 10.40625 8.6875 15.234375 7.390625 
Q 20.0625 6.109375 24.8125 6.109375 
Q 31.15625 6.109375 34.5625 8.28125 
Q 37.984375 10.453125 37.984375 14.40625 
Q 37.984375 18.0625 35.515625 20.015625 
Q 33.0625 21.96875 24.703125 23.78125 
L 21.578125 24.515625 
Q 13.234375 26.265625 9.515625 29.90625 
Q 5.8125 33.546875 5.8125 39.890625 
Q 5.8125 47.609375 11.28125 51.796875 
Q 16.75 56 26.8125 56 
Q 31.78125 56 36.171875 55.265625 
Q 40.578125 54.546875 44.28125 53.078125 
z
" id="DejaVuSans-115"/>
      <path d="M 18.3125 70.21875 
L 18.3125 54.6875 
L 36.8125 54.6875 
L 36.8125 47.703125 
L 18.3125 47.703125 
L 18.3125 18.015625 
Q 18.3125 11.328125 20.140625 9.421875 
Q 21.96875 7.515625 27.59375 7.515625 
L 36.8125 7.515625 
L 36.8125 0 
L 27.59375 0 
Q 17.1875 0 13.234375 3.875 
Q 9.28125 7.765625 9.28125 18.015625 
L 9.28125 47.703125 
L 2.6875 47.703125 
L 2.6875 54.6875 
L 9.28125 54.6875 
L 9.28125 70.21875 
z
" id="DejaVuSans-116"/>
     </defs>
     <g transform="translate(110.73072 154.112555)scale(0.1 -0.1)">
      <use xlink:href="#DejaVuSans-115"/>
      <use x="52.099609" xlink:href="#DejaVuSans-116"/>
      <use x="91.308594" xlink:href="#DejaVuSans-111"/>
      <use x="152.490234" xlink:href="#DejaVuSans-111"/>
      <use x="213.671875" xlink:href="#DejaVuSans-100"/>
     </g>
    </g>
   </g>
   <g id="text_16">
    <g clip-path="url(#pe0a3e4ca7f)">
     <!-- his -->
     <g transform="translate(172.248968 154.112555)scale(0.1 -0.1)">
      <use xlink:href="#DejaVuSans-104"/>
      <use x="63.378906" xlink:href="#DejaVuSans-105"/>
      <use x="91.162109" xlink:href="#DejaVuSans-115"/>
     </g>
    </g>
   </g>
   <g id="text_17">
    <g clip-path="url(#pe0a3e4ca7f)">
     <!-- ground -->
     <defs>
      <path d="M 45.40625 27.984375 
Q 45.40625 37.75 41.375 43.109375 
Q 37.359375 48.484375 30.078125 48.484375 
Q 22.859375 48.484375 18.828125 43.109375 
Q 14.796875 37.75 14.796875 27.984375 
Q 14.796875 18.265625 18.828125 12.890625 
Q 22.859375 7.515625 30.078125 7.515625 
Q 37.359375 7.515625 41.375 12.890625 
Q 45.40625 18.265625 45.40625 27.984375 
z
M 54.390625 6.78125 
Q 54.390625 -7.171875 48.1875 -13.984375 
Q 42 -20.796875 29.203125 -20.796875 
Q 24.46875 -20.796875 20.265625 -20.09375 
Q 16.0625 -19.390625 12.109375 -17.921875 
L 12.109375 -9.1875 
Q 16.0625 -11.328125 19.921875 -12.34375 
Q 23.78125 -13.375 27.78125 -13.375 
Q 36.625 -13.375 41.015625 -8.765625 
Q 45.40625 -4.15625 45.40625 5.171875 
L 45.40625 9.625 
Q 42.625 4.78125 38.28125 2.390625 
Q 33.9375 0 27.875 0 
Q 17.828125 0 11.671875 7.65625 
Q 5.515625 15.328125 5.515625 27.984375 
Q 5.515625 40.671875 11.671875 48.328125 
Q 17.828125 56 27.875 56 
Q 33.9375 56 38.28125 53.609375 
Q 42.625 51.21875 45.40625 46.390625 
L 45.40625 54.6875 
L 54.390625 54.6875 
z
" id="DejaVuSans-103"/>
      <path d="M 8.5 21.578125 
L 8.5 54.6875 
L 17.484375 54.6875 
L 17.484375 21.921875 
Q 17.484375 14.15625 20.5 10.265625 
Q 23.53125 6.390625 29.59375 6.390625 
Q 36.859375 6.390625 41.078125 11.03125 
Q 45.3125 15.671875 45.3125 23.6875 
L 45.3125 54.6875 
L 54.296875 54.6875 
L 54.296875 0 
L 45.3125 0 
L 45.3125 8.40625 
Q 42.046875 3.421875 37.71875 1 
Q 33.40625 -1.421875 27.6875 -1.421875 
Q 18.265625 -1.421875 13.375 4.4375 
Q 8.5 10.296875 8.5 21.578125 
z
M 31.109375 56 
z
" id="DejaVuSans-117"/>
     </defs>
     <g transform="translate(216.435184 154.112555)scale(0.1 -0.1)">
      <use xlink:href="#DejaVuSans-103"/>
      <use x="63.476562" xlink:href="#DejaVuSans-114"/>
      <use x="104.558594" xlink:href="#DejaVuSans-111"/>
      <use x="165.740234" xlink:href="#DejaVuSans-117"/>
      <use x="229.119141" xlink:href="#DejaVuSans-110"/>
      <use x="292.498047" xlink:href="#DejaVuSans-100"/>
     </g>
    </g>
   </g>
   <g id="text_18">
    <g clip-path="url(#pe0a3e4ca7f)">
     <!-- . -->
     <defs>
      <path d="M 10.6875 12.40625 
L 21 12.40625 
L 21 0 
L 10.6875 0 
z
" id="DejaVuSans-46"/>
     </defs>
     <g transform="translate(287.468275 154.112555)scale(0.1 -0.1)">
      <use xlink:href="#DejaVuSans-46"/>
     </g>
    </g>
   </g>
   <g id="text_19">
    <g clip-path="url(#pe0a3e4ca7f)">
     <!-- 1.1 -->
     <defs>
      <path d="M 12.40625 8.296875 
L 28.515625 8.296875 
L 28.515625 63.921875 
L 10.984375 60.40625 
L 10.984375 69.390625 
L 28.421875 72.90625 
L 38.28125 72.90625 
L 38.28125 8.296875 
L 54.390625 8.296875 
L 54.390625 0 
L 12.40625 0 
z
" id="DejaVuSans-49"/>
     </defs>
     <g transform="translate(162.322749 11.406195)scale(0.1 -0.1)">
      <use xlink:href="#DejaVuSans-49"/>
      <use x="63.623047" xlink:href="#DejaVuSans-46"/>
      <use x="95.410156" xlink:href="#DejaVuSans-49"/>
     </g>
    </g>
   </g>
   <g id="text_20">
    <g clip-path="url(#pe0a3e4ca7f)">
     <!-- 1.2 -->
     <defs>
      <path d="M 19.1875 8.296875 
L 53.609375 8.296875 
L 53.609375 0 
L 7.328125 0 
L 7.328125 8.296875 
Q 12.9375 14.109375 22.625 23.890625 
Q 32.328125 33.6875 34.8125 36.53125 
Q 39.546875 41.84375 41.421875 45.53125 
Q 43.3125 49.21875 43.3125 52.78125 
Q 43.3125 58.59375 39.234375 62.25 
Q 35.15625 65.921875 28.609375 65.921875 
Q 23.96875 65.921875 18.8125 64.3125 
Q 13.671875 62.703125 7.8125 59.421875 
L 7.8125 69.390625 
Q 13.765625 71.78125 18.9375 73 
Q 24.125 74.21875 28.421875 74.21875 
Q 39.75 74.21875 46.484375 68.546875 
Q 53.21875 62.890625 53.21875 53.421875 
Q 53.21875 48.921875 51.53125 44.890625 
Q 49.859375 40.875 45.40625 35.40625 
Q 44.1875 33.984375 37.640625 27.21875 
Q 31.109375 20.453125 19.1875 8.296875 
z
" id="DejaVuSans-50"/>
     </defs>
     <g transform="translate(162.322749 47.844324)scale(0.1 -0.1)">
      <use xlink:href="#DejaVuSans-49"/>
      <use x="63.623047" xlink:href="#DejaVuSans-46"/>
      <use x="95.410156" xlink:href="#DejaVuSans-50"/>
     </g>
    </g>
   </g>
   <g id="text_21">
    <g clip-path="url(#pe0a3e4ca7f)">
     <!-- 1.4 -->
     <defs>
      <path d="M 37.796875 64.3125 
L 12.890625 25.390625 
L 37.796875 25.390625 
z
M 35.203125 72.90625 
L 47.609375 72.90625 
L 47.609375 25.390625 
L 58.015625 25.390625 
L 58.015625 17.1875 
L 47.609375 17.1875 
L 47.609375 0 
L 37.796875 0 
L 37.796875 17.1875 
L 4.890625 17.1875 
L 4.890625 26.703125 
z
" id="DejaVuSans-52"/>
     </defs>
     <g transform="translate(34.402567 83.594064)scale(0.1 -0.1)">
      <use xlink:href="#DejaVuSans-49"/>
      <use x="63.623047" xlink:href="#DejaVuSans-46"/>
      <use x="95.410156" xlink:href="#DejaVuSans-52"/>
     </g>
    </g>
   </g>
   <g id="text_22">
    <g clip-path="url(#pe0a3e4ca7f)">
     <!-- 1.5 -->
     <defs>
      <path d="M 10.796875 72.90625 
L 49.515625 72.90625 
L 49.515625 64.59375 
L 19.828125 64.59375 
L 19.828125 46.734375 
Q 21.96875 47.46875 24.109375 47.828125 
Q 26.265625 48.1875 28.421875 48.1875 
Q 40.625 48.1875 47.75 41.5 
Q 54.890625 34.8125 54.890625 23.390625 
Q 54.890625 11.625 47.5625 5.09375 
Q 40.234375 -1.421875 26.90625 -1.421875 
Q 22.3125 -1.421875 17.546875 -0.640625 
Q 12.796875 0.140625 7.71875 1.703125 
L 7.71875 11.625 
Q 12.109375 9.234375 16.796875 8.0625 
Q 21.484375 6.890625 26.703125 6.890625 
Q 35.15625 6.890625 40.078125 11.328125 
Q 45.015625 15.765625 45.015625 23.390625 
Q 45.015625 31 40.078125 35.4375 
Q 35.15625 39.890625 26.703125 39.890625 
Q 22.75 39.890625 18.8125 39.015625 
Q 14.890625 38.140625 10.796875 36.28125 
z
" id="DejaVuSans-53"/>
     </defs>
     <g transform="translate(171.459905 118.853309)scale(0.1 -0.1)">
      <use xlink:href="#DejaVuSans-49"/>
      <use x="63.623047" xlink:href="#DejaVuSans-46"/>
      <use x="95.410156" xlink:href="#DejaVuSans-53"/>
     </g>
    </g>
   </g>
   <g id="text_23">
    <g clip-path="url(#pe0a3e4ca7f)">
     <!-- 1.6 -->
     <defs>
      <path d="M 33.015625 40.375 
Q 26.375 40.375 22.484375 35.828125 
Q 18.609375 31.296875 18.609375 23.390625 
Q 18.609375 15.53125 22.484375 10.953125 
Q 26.375 6.390625 33.015625 6.390625 
Q 39.65625 6.390625 43.53125 10.953125 
Q 47.40625 15.53125 47.40625 23.390625 
Q 47.40625 31.296875 43.53125 35.828125 
Q 39.65625 40.375 33.015625 40.375 
z
M 52.59375 71.296875 
L 52.59375 62.3125 
Q 48.875 64.0625 45.09375 64.984375 
Q 41.3125 65.921875 37.59375 65.921875 
Q 27.828125 65.921875 22.671875 59.328125 
Q 17.53125 52.734375 16.796875 39.40625 
Q 19.671875 43.65625 24.015625 45.921875 
Q 28.375 48.1875 33.59375 48.1875 
Q 44.578125 48.1875 50.953125 41.515625 
Q 57.328125 34.859375 57.328125 23.390625 
Q 57.328125 12.15625 50.6875 5.359375 
Q 44.046875 -1.421875 33.015625 -1.421875 
Q 20.359375 -1.421875 13.671875 8.265625 
Q 6.984375 17.96875 6.984375 36.375 
Q 6.984375 53.65625 15.1875 63.9375 
Q 23.390625 74.21875 37.203125 74.21875 
Q 40.921875 74.21875 44.703125 73.484375 
Q 48.484375 72.75 52.59375 71.296875 
z
" id="DejaVuSans-54"/>
     </defs>
     <g transform="translate(6.9911 118.853309)scale(0.1 -0.1)">
      <use xlink:href="#DejaVuSans-49"/>
      <use x="63.623047" xlink:href="#DejaVuSans-46"/>
      <use x="95.410156" xlink:href="#DejaVuSans-54"/>
     </g>
    </g>
   </g>
   <g id="text_24">
    <g clip-path="url(#pe0a3e4ca7f)">
     <!-- 1.7 -->
     <defs>
      <path d="M 8.203125 72.90625 
L 55.078125 72.90625 
L 55.078125 68.703125 
L 28.609375 0 
L 18.3125 0 
L 43.21875 64.59375 
L 8.203125 64.59375 
z
" id="DejaVuSans-55"/>
     </defs>
     <g transform="translate(61.814035 118.853309)scale(0.1 -0.1)">
      <use xlink:href="#DejaVuSans-49"/>
      <use x="63.623047" xlink:href="#DejaVuSans-46"/>
      <use x="95.410156" xlink:href="#DejaVuSans-55"/>
     </g>
    </g>
   </g>
   <g id="text_25">
    <g clip-path="url(#pe0a3e4ca7f)">
     <!-- 1.8 -->
     <defs>
      <path d="M 31.78125 34.625 
Q 24.75 34.625 20.71875 30.859375 
Q 16.703125 27.09375 16.703125 20.515625 
Q 16.703125 13.921875 20.71875 10.15625 
Q 24.75 6.390625 31.78125 6.390625 
Q 38.8125 6.390625 42.859375 10.171875 
Q 46.921875 13.96875 46.921875 20.515625 
Q 46.921875 27.09375 42.890625 30.859375 
Q 38.875 34.625 31.78125 34.625 
z
M 21.921875 38.8125 
Q 15.578125 40.375 12.03125 44.71875 
Q 8.5 49.078125 8.5 55.328125 
Q 8.5 64.0625 14.71875 69.140625 
Q 20.953125 74.21875 31.78125 74.21875 
Q 42.671875 74.21875 48.875 69.140625 
Q 55.078125 64.0625 55.078125 55.328125 
Q 55.078125 49.078125 51.53125 44.71875 
Q 48 40.375 41.703125 38.8125 
Q 48.828125 37.15625 52.796875 32.3125 
Q 56.78125 27.484375 56.78125 20.515625 
Q 56.78125 9.90625 50.3125 4.234375 
Q 43.84375 -1.421875 31.78125 -1.421875 
Q 19.734375 -1.421875 13.25 4.234375 
Q 6.78125 9.90625 6.78125 20.515625 
Q 6.78125 27.484375 10.78125 32.3125 
Q 14.796875 37.15625 21.921875 38.8125 
z
M 18.3125 54.390625 
Q 18.3125 48.734375 21.84375 45.5625 
Q 25.390625 42.390625 31.78125 42.390625 
Q 38.140625 42.390625 41.71875 45.5625 
Q 45.3125 48.734375 45.3125 54.390625 
Q 45.3125 60.0625 41.71875 63.234375 
Q 38.140625 66.40625 31.78125 66.40625 
Q 25.390625 66.40625 21.84375 63.234375 
Q 18.3125 60.0625 18.3125 54.390625 
z
" id="DejaVuSans-56"/>
     </defs>
     <g transform="translate(281.105775 118.853309)scale(0.1 -0.1)">
      <use xlink:href="#DejaVuSans-49"/>
      <use x="63.623047" xlink:href="#DejaVuSans-46"/>
      <use x="95.410156" xlink:href="#DejaVuSans-56"/>
     </g>
    </g>
   </g>
  </g>
 </g>
 <defs>
  <clipPath id="pe0a3e4ca7f">
   <rect height="160" width="304" x="0" y="0"/>
  </clipPath>
 </defs>
</svg>
