<?xml version="1.0" encoding="UTF-8"?>
<!DOCTYPE svg  PUBLIC '-//W3C//DTD SVG 1.1//EN'  'http://www.w3.org/Graphics/SVG/1.1/DTD/svg11.dtd'>
<svg width="1266.7pt" height="666.67pt" version="1.1" viewBox="0 0 1266.7 666.67" xmlns="http://www.w3.org/2000/svg" xmlns:xlink="http://www.w3.org/1999/xlink">
<defs>
<style type="text/css">*{stroke-linecap:butt;stroke-linejoin:round;white-space:pre;}</style>
</defs>
<path d="m0 666.67h1266.7v-666.67h-1266.7z" fill="#fff"/>
<g fill="none" stroke="#000">
<path d="m546.21 31.077-144.08 269.45" clip-path="url(#a)"/>
<path d="m546.21 31.077-1.4219 521.73" clip-path="url(#a)"/>
<path d="m546.21 31.077 191.19 92.21" clip-path="url(#a)"/>
<path d="m546.21 31.077-45.694 521.73" clip-path="url(#a)"/>
<path d="m402.13 300.52 806.74 335.07" clip-path="url(#a)"/>
<path d="m402.13 300.52-292.69 85.555" clip-path="url(#a)"/>
<path d="m402.13 300.52-211.52 252.28" clip-path="url(#a)"/>
<path d="m402.13 300.52-167.25 252.28" clip-path="url(#a)"/>
<path d="m402.13 300.52-122.98 252.28" clip-path="url(#a)"/>
<path d="m402.13 300.52-12.298 169.49" clip-path="url(#a)"/>
<path d="m544.79 552.8v82.787" clip-path="url(#a)"/>
<path d="m737.4 123.29-126.21 346.73" clip-path="url(#a)"/>
<path d="m737.4 123.29-59.798 429.52" clip-path="url(#a)"/>
<path d="m737.4 123.29-15.526 429.52" clip-path="url(#a)"/>
<path d="m737.4 123.29 28.746 429.52" clip-path="url(#a)"/>
<path d="m737.4 123.29 73.019 429.52" clip-path="url(#a)"/>
<path d="m737.4 123.29 99.766 89.731" clip-path="url(#a)"/>
<path d="m611.2 470.02-22.136 82.787" clip-path="url(#a)"/>
<path d="m611.2 470.02 22.136 82.787" clip-path="url(#a)"/>
<path d="m677.61 552.8v82.787" clip-path="url(#a)"/>
<path d="m721.88 552.8v82.787" clip-path="url(#a)"/>
<path d="m766.15 552.8v82.787" clip-path="url(#a)"/>
<path d="m810.42 552.8v82.787" clip-path="url(#a)"/>
<path d="m837.17 213.02 17.524 339.78" clip-path="url(#a)"/>
<path d="m837.17 213.02 61.797 339.78" clip-path="url(#a)"/>
<path d="m837.17 213.02 124.52 87.504" clip-path="url(#a)"/>
<path d="m837.17 213.02-203.84 339.78" clip-path="url(#a)" stroke-dasharray="3.7,1.6"/>
<path d="m854.69 552.8v82.787" clip-path="url(#a)"/>
<path d="m898.97 552.8v82.787" clip-path="url(#a)"/>
<path d="m961.69 300.52 3.6894 169.49" clip-path="url(#a)"/>
<path d="m961.69 300.52-3.6894 85.555" clip-path="url(#a)"/>
<path d="m965.38 470.02-22.136 82.787" clip-path="url(#a)"/>
<path d="m965.38 470.02 22.136 82.787" clip-path="url(#a)"/>
<path d="m958 386.08 206.6 249.51" clip-path="url(#a)"/>
<path d="m958 386.08 118.06 83.938" clip-path="url(#a)"/>
<path d="m958 386.08-324.66 166.73" clip-path="url(#a)" stroke-dasharray="3.7,1.6"/>
<path d="m1076.1 470.02-44.272 82.787" clip-path="url(#a)"/>
<path d="m1076.1 470.02v82.787" clip-path="url(#a)"/>
<path d="m1076.1 470.02 44.272 82.787" clip-path="url(#a)"/>
<path d="m1031.8 552.8v82.787" clip-path="url(#a)"/>
<path d="m1076.1 552.8v82.787" clip-path="url(#a)"/>
<path d="m943.24 552.8v82.787" clip-path="url(#a)"/>
<path d="m987.51 552.8v82.787" clip-path="url(#a)"/>
<path d="m589.06 552.8v82.787" clip-path="url(#a)"/>
<path d="m633.33 552.8v82.787" clip-path="url(#a)"/>
<path d="m109.44 386.08-51.651 166.73" clip-path="url(#a)"/>
<path d="m109.44 386.08 14.757 83.938" clip-path="url(#a)"/>
<path d="m109.44 386.08 36.894 166.73" clip-path="url(#a)"/>
<path d="m190.61 552.8v82.787" clip-path="url(#a)"/>
<path d="m234.88 552.8v82.787" clip-path="url(#a)"/>
<path d="m279.16 552.8v82.787" clip-path="url(#a)"/>
<path d="m389.84 470.02-66.408 82.787" clip-path="url(#a)"/>
<path d="m389.84 470.02-22.136 82.787" clip-path="url(#a)"/>
<path d="m389.84 470.02 22.136 82.787" clip-path="url(#a)"/>
<path d="m389.84 470.02 66.408 82.787" clip-path="url(#a)"/>
<path d="m323.43 552.8v82.787" clip-path="url(#a)"/>
<path d="m367.7 552.8v82.787" clip-path="url(#a)"/>
<path d="m411.97 552.8v82.787" clip-path="url(#a)"/>
<path d="m456.24 552.8v82.787" clip-path="url(#a)"/>
<path d="m57.794 552.8v82.787" clip-path="url(#a)"/>
<path d="m124.2 470.02 22.136 82.787" clip-path="url(#a)" stroke-dasharray="3.7,1.6"/>
<path d="m124.2 470.02-22.136 82.787" clip-path="url(#a)"/>
<path d="m146.34 552.8v82.787" clip-path="url(#a)"/>
<path d="m102.07 552.8v82.787" clip-path="url(#a)"/>
<path d="m561.44 31.077-159.31 269.45" clip-path="url(#a)"/>
<path d="m561.44 31.077-16.653 521.73" clip-path="url(#a)"/>
<path d="m561.44 31.077 175.96 92.21" clip-path="url(#a)"/>
<path d="m500.52 552.8v82.787" clip-path="url(#a)"/>
<path d="m1120.3 552.8v82.787" clip-path="url(#a)"/>
</g>
<path d="m478.28 171.41 2.8369-5.3054q1.1317-2.1164-0.98474-3.2481l-6.8277-3.6509q-2.1164-1.1317-3.2481 0.98474l-2.8369 5.3054q-1.1317 2.1164 0.98474 3.2481l6.8277 3.6509q2.1164 1.1317 3.2481-0.98474z" clip-path="url(#a)" fill="#fff" stroke="#fff"/>
<g clip-path="url(#a)">
<defs>
<path id="aq" d="m9.8125 72.906h9.8594v-29.891h35.844v29.891h9.8594v-72.906h-9.8594v34.719h-35.844v-34.719h-9.8594z"/>
</defs>
<g transform="translate(474.7 169.49) rotate(-61.866) scale(.08 -.08)">
<use xlink:href="#aq"/>
</g>
</g>
<path d="m551.76 294.19 0.012148-4.4575q0.006542-2.4-2.3934-2.4065l-7.7425-0.021102q-2.4-0.006541-2.4065 2.3934l-0.012149 4.4575q-0.006541 2.4 2.3934 2.4065l7.7425 0.021101q2.4 0.006541 2.4065-2.3934z" clip-path="url(#a)" fill="#fff" stroke="#fff"/>
<g clip-path="url(#a)">
<defs>
<path id="u" d="m9.8125 72.906h9.8594v-64.609h35.5v-8.2969h-45.359z"/>
</defs>
<g transform="translate(547.7 294.17) rotate(-89.844) scale(.08 -.08)">
<use xlink:href="#u"/>
</g>
</g>
<path d="m636.37 81.524 5.4189 2.6135q2.1617 1.0426 3.2043-1.1192l3.3634-6.9738q1.0426-2.1617-1.1192-3.2043l-5.4189-2.6135q-2.1617-1.0426-3.2043 1.1192l-3.3634 6.9738q-1.0426 2.1617 1.1192 3.2043z" clip-path="url(#a)" fill="#fff" stroke="#fff"/>
<g clip-path="url(#a)">
<g transform="translate(638.14 77.864) rotate(25.747) scale(.08 -.08)">
<use xlink:href="#aq"/>
</g>
</g>
<path d="m529.36 295.4 0.51084-5.8327q0.2094-2.3908-2.1815-2.6002l-7.713-0.67552q-2.3908-0.2094-2.6002 2.1815l-0.51084 5.8327q-0.2094 2.3908 2.1815 2.6002l7.713 0.67552q2.3908 0.2094 2.6002-2.1814z" clip-path="url(#a)" fill="#fff" stroke="#fff"/>
<g clip-path="url(#a)">
<defs>
<path id="an" d="m8.6875 72.906h9.9219v-44.297q0-11.719 4.2344-16.875 4.25-5.1406 13.781-5.1406 9.4688 0 13.719 5.1406 4.25 5.1562 4.25 16.875v44.297h9.9062v-45.516q0-14.25-7.0625-21.531-7.0469-7.2812-20.812-7.2812-13.828 0-20.891 7.2812-7.0469 7.2812-7.0469 21.531z"/>
</defs>
<g transform="translate(525.31 295.05) rotate(-84.995) scale(.08 -.08)">
<use xlink:href="#an"/>
</g>
</g>
<path d="m800.57 472.8 5.0539 2.0991q2.2164 0.92056 3.137-1.2959l2.9698-7.1503q0.92056-2.2164-1.2959-3.137l-5.0539-2.0991q-2.2164-0.92056-3.137 1.2959l-2.9698 7.1503q-0.92056 2.2164 1.2959 3.137z" clip-path="url(#a)" fill="#fff" stroke="#fff"/>
<g clip-path="url(#a)">
<defs>
<path id="m" d="m34.188 63.188-13.391-36.281h26.812zm-5.5781 9.7188h11.188l27.781-72.906h-10.25l-6.6406 18.703h-32.859l-6.6406-18.703h-10.406z"/>
</defs>
<g transform="translate(802.13 469.05) rotate(22.555) scale(.08 -.08)">
<use xlink:href="#m"/>
</g>
</g>
<path d="m254.92 350.09 5.2527-1.5354q2.3036-0.67336 1.6302-2.977l-2.1723-7.4315q-0.67336-2.3036-2.977-1.6302l-5.2527 1.5354q-2.3036 0.67336-1.6302 2.977l2.1723 7.4315q0.67336 2.3036 2.977 1.6302z" clip-path="url(#a)" fill="#fff" stroke="#fff"/>
<g clip-path="url(#a)">
<g transform="translate(253.78 346.19) rotate(-16.294) scale(.08 -.08)">
<use xlink:href="#m"/>
</g>
</g>
<path d="m299.7 432.45 2.9563-3.5259q1.542-1.8391-0.29711-3.3811l-5.933-4.9745q-1.8391-1.542-3.3811 0.29711l-2.9563 3.5259q-1.542 1.8391 0.29711 3.3811l5.933 4.9745q1.8391 1.542 3.3811-0.29711z" clip-path="url(#a)" fill="#fff" stroke="#fff"/>
<g clip-path="url(#a)">
<defs>
<path id="aa" d="m9.8125 72.906h41.891v-8.3125h-32.031v-21.484h28.906v-8.2969h-28.906v-34.812h-9.8594z"/>
</defs>
<g transform="translate(296.59 429.84) rotate(-50.022) scale(.08 -.08)">
<use xlink:href="#aa"/>
</g>
</g>
<path d="m322.46 432.05 2.5425-3.835q1.3261-2.0003-0.6742-3.3265l-6.4532-4.2782q-2.0003-1.3261-3.3265 0.6742l-2.5425 3.835q-1.3261 2.0003 0.6742 3.3265l6.4532 4.2782q2.0003 1.3261 3.3265-0.6742z" clip-path="url(#a)" fill="#fff" stroke="#fff"/>
<g clip-path="url(#a)">
<g transform="translate(319.08 429.8) rotate(-56.457) scale(.08 -.08)">
<use xlink:href="#aa"/>
</g>
</g>
<path d="m345.22 431.58 2.1137-4.336q1.0516-2.1573-1.1057-3.209l-6.9596-3.3926q-2.1573-1.0516-3.209 1.1057l-2.1137 4.336q-1.0516 2.1573 1.1057 3.209l6.9596 3.3926q2.1573 1.0516 3.209-1.1057z" clip-path="url(#a)" fill="#fff" stroke="#fff"/>
<g clip-path="url(#a)">
<defs>
<path id="q" d="m19.672 64.797v-27.391h12.406q6.8906 0 10.641 3.5625 3.7656 3.5625 3.7656 10.156 0 6.5469-3.7656 10.109-3.75 3.5625-10.641 3.5625zm-9.8594 8.1094h22.266q12.266 0 18.531-5.5469 6.2812-5.5469 6.2812-16.234 0-10.797-6.2812-16.312-6.2656-5.5156-18.531-5.5156h-12.406v-29.297h-9.8594z"/>
</defs>
<g transform="translate(341.57 429.8) rotate(-64.012) scale(.08 -.08)">
<use xlink:href="#q"/>
</g>
</g>
<path d="m402.04 388.45 0.39602-5.4582q0.17368-2.3937-2.22-2.5674l-7.7222-0.5603q-2.3937-0.17368-2.5674 2.22l-0.39602 5.4582q-0.17368 2.3937 2.22 2.5674l7.7222 0.5603q2.3937 0.17368 2.5674-2.22z" clip-path="url(#a)" fill="#fff" stroke="#fff"/>
<g clip-path="url(#a)">
<g transform="translate(397.99 388.16) rotate(-85.85) scale(.08 -.08)">
<use xlink:href="#m"/>
</g>
</g>
<path d="m538.52 576.55v35.285q0 2.4 2.4 2.4h7.7425q2.4 0 2.4-2.4v-35.285q0-2.4-2.4-2.4h-7.7425q-2.4 0-2.4 2.4z" clip-path="url(#a)" fill="#fff" stroke="#fff"/>
<g clip-path="url(#a)">
<defs>
<path id="l" d="m-0.29688 72.906h61.672v-8.3125h-25.875v-64.594h-9.9062v64.594h-25.891z"/>
<path id="d" d="m56.203 29.594v-4.3906h-41.312q0.59375-9.2812 5.5938-14.141t13.938-4.8594q5.1719 0 10.031 1.2656t9.6562 3.8125v-8.5q-4.8438-2.0469-9.9219-3.125t-10.297-1.0781q-13.094 0-20.734 7.6094-7.6406 7.625-7.6406 20.625 0 13.422 7.25 21.297 7.25 7.8906 19.562 7.8906 11.031 0 17.453-7.1094 6.4219-7.0938 6.4219-19.297zm-8.9844 2.6406q-0.09375 7.3594-4.125 11.75-4.0312 4.4062-10.672 4.4062-7.5156 0-12.031-4.25t-5.2031-11.969z"/>
<path id="h" d="m41.109 46.297q-1.5156 0.875-3.2969 1.2812-1.7812 0.42188-3.9219 0.42188-7.625 0-11.703-4.9531t-4.0781-14.234v-28.812h-9.0312v54.688h9.0312v-8.5q2.8438 4.9844 7.375 7.3906 4.5469 2.4219 11.047 2.4219 0.92188 0 2.0469-0.125 1.125-0.10938 2.4844-0.35938z"/>
<path id="k" d="m52 44.188q3.375 6.0625 8.0625 8.9375t11.031 2.875q8.5469 0 13.188-5.9844 4.6406-5.9688 4.6406-17v-33.016h-9.0312v32.719q0 7.8594-2.7969 11.656-2.7812 3.8125-8.4844 3.8125-6.9844 0-11.047-4.6406-4.0469-4.625-4.0469-12.641v-30.906h-9.0312v32.719q0 7.9062-2.7812 11.688t-8.5938 3.7812q-6.8906 0-10.953-4.6562-4.0469-4.6562-4.0469-12.625v-30.906h-9.0312v54.688h9.0312v-8.5q3.0781 5.0312 7.375 7.4219t10.203 2.3906q5.9688 0 10.141-3.0312 4.1719-3.0156 6.1719-8.7812z"/>
<path id="j" d="m9.4219 54.688h8.9844v-54.688h-8.9844zm0 21.297h8.9844v-11.391h-8.9844z"/>
<path id="g" d="m54.891 33.016v-33.016h-8.9844v32.719q0 7.7656-3.0312 11.609-3.0312 3.8594-9.0781 3.8594-7.2812 0-11.484-4.6406-4.2031-4.625-4.2031-12.641v-30.906h-9.0312v54.688h9.0312v-8.5q3.2344 4.9375 7.5938 7.375 4.375 2.4375 10.094 2.4375 9.4219 0 14.25-5.8281 4.8438-5.8281 4.8438-17.156z"/>
<path id="f" d="m34.281 27.484q-10.891 0-15.094-2.4844t-4.2031-8.5q0-4.7812 3.1562-7.5938 3.1562-2.7969 8.5625-2.7969 7.4844 0 12 5.2969t4.5156 14.078v2zm17.922 3.7188v-31.203h-8.9844v8.2969q-3.0781-4.9688-7.6719-7.3438t-11.234-2.375q-8.3906 0-13.359 4.7188-4.9531 4.7188-4.9531 12.625 0 9.2188 6.1719 13.906 6.1875 4.6875 18.438 4.6875h12.609v0.89062q0 6.2031-4.0781 9.5938t-11.453 3.3906q-4.6875 0-9.1406-1.125-4.4375-1.125-8.5312-3.375v8.3125q4.9219 1.9062 9.5625 2.8438 4.6406 0.95312 9.0312 0.95312 11.875 0 17.734-6.1562 5.8594-6.1406 5.8594-18.641z"/>
<path id="i" d="m9.4219 75.984h8.9844v-75.984h-8.9844z"/>
</defs>
<g transform="translate(542.58 576.55) rotate(90) scale(.08 -.08)">
<use xlink:href="#l"/>
<use x="60.818359" xlink:href="#d"/>
<use x="122.341797" xlink:href="#h"/>
<use x="163.439453" xlink:href="#k"/>
<use x="260.851562" xlink:href="#j"/>
<use x="288.634766" xlink:href="#g"/>
<use x="352.013672" xlink:href="#f"/>
<use x="413.292969" xlink:href="#i"/>
</g>
</g>
<path d="m679.26 301.37 1.8718-5.1424q0.82089-2.2552-1.4344-3.0761l-7.2755-2.6482q-2.2552-0.82089-3.0761 1.4344l-1.8718 5.1424q-0.82089 2.2552 1.4344 3.0761l7.2755 2.6482q2.2552 0.82089 3.0761-1.4344z" clip-path="url(#a)" fill="#fff" stroke="#fff"/>
<g clip-path="url(#a)">
<g transform="translate(675.44 299.98) rotate(-69.999) scale(.08 -.08)">
<use xlink:href="#m"/>
</g>
</g>
<path d="m713.4 341.19 0.63448-4.5573q0.33094-2.3771-2.0461-2.708l-7.6685-1.0676q-2.3771-0.33094-2.708 2.0461l-0.63448 4.5573q-0.33094 2.3771 2.0461 2.708l7.6685 1.0676q2.3771 0.33094 2.708-2.0461z" clip-path="url(#a)" fill="#fff" stroke="#fff"/>
<g clip-path="url(#a)">
<g transform="translate(709.37 340.63) rotate(-82.074) scale(.08 -.08)">
<use xlink:href="#aa"/>
</g>
</g>
<path d="m735.8 341.35 0.22252-6.156q0.086698-2.3984-2.3117-2.4851l-7.7374-0.27969q-2.3984-0.086698-2.4851 2.3117l-0.22252 6.156q-0.086698 2.3984 2.3117 2.4851l7.7374 0.27969q2.3984 0.086698 2.4851-2.3117z" clip-path="url(#a)" fill="#fff" stroke="#fff"/>
<g clip-path="url(#a)">
<defs>
<path id="ar" d="m19.672 64.797v-56.688h11.922q15.094 0 22.094 6.8281 7 6.8438 7 21.594 0 14.641-7 21.453t-22.094 6.8125zm-9.8594 8.1094h20.266q21.188 0 31.094-8.8125 9.9219-8.8125 9.9219-27.562 0-18.859-9.9688-27.703-9.9531-8.8281-31.047-8.8281h-20.266z"/>
</defs>
<g transform="translate(731.74 341.2) rotate(-87.93) scale(.08 -.08)">
<use xlink:href="#ar"/>
</g>
</g>
<path d="m745.31 335.39 0.41135 6.1462q0.16027 2.3946 2.5549 2.2344l7.7252-0.51703q2.3946-0.16027 2.2344-2.5549l-0.41135-6.1462q-0.16027-2.3946-2.5549-2.2344l-7.7252 0.51703q-2.3946 0.16027-2.2344 2.5549z" clip-path="url(#a)" fill="#fff" stroke="#fff"/>
<g clip-path="url(#a)">
<g transform="translate(749.37 335.12) rotate(86.171) scale(.08 -.08)">
<use xlink:href="#ar"/>
</g>
</g>
<path d="m767.33 336.72 0.80845 4.7555q0.40223 2.3661 2.7683 1.9638l7.633-1.2976q2.3661-0.40223 1.9638-2.7683l-0.80845-4.7555q-0.40223-2.3661-2.7683-1.9638l-7.633 1.2976q-2.3661 0.40223-1.9638 2.7683z" clip-path="url(#a)" fill="#fff" stroke="#fff"/>
<g clip-path="url(#a)">
<g transform="translate(771.33 336.04) rotate(80.352) scale(.08 -.08)">
<use xlink:href="#q"/>
</g>
</g>
<path d="m781.06 170.99 4.0689 3.6596q1.7844 1.6049 3.3894-0.17948l5.1776-5.7566q1.6049-1.7844-0.17948-3.3894l-4.0689-3.6596q-1.7844-1.6049-3.3894 0.17948l-5.1776 5.7566q-1.6049 1.7844 0.17948 3.3894z" clip-path="url(#a)" fill="#fff" stroke="#fff"/>
<g clip-path="url(#a)">
<g transform="translate(783.78 167.96) rotate(41.969) scale(.08 -.08)">
<use xlink:href="#m"/>
</g>
</g>
<path d="m605.53 515.47 1.3058-4.8834q0.61995-2.3185-1.6986-2.9385l-7.4797-2q-2.3185-0.61995-2.9385 1.6986l-1.3058 4.8834q-0.61995 2.3185 1.6986 2.9385l7.4797 2q2.3185 0.61995 2.9385-1.6986z" clip-path="url(#a)" fill="#fff" stroke="#fff"/>
<g clip-path="url(#a)">
<defs>
<path id="w" d="m9.8125 72.906h46.094v-8.3125h-36.234v-21.578h34.719v-8.2969h-34.719v-26.422h37.109v-8.2969h-46.969z"/>
</defs>
<g transform="translate(601.61 514.42) rotate(-75.03) scale(.08 -.08)">
<use xlink:href="#w"/>
</g>
</g>
<path d="m615.49 510.33 1.443 5.3967q0.61995 2.3185 2.9385 1.6986l7.4797-2q2.3185-0.61995 1.6986-2.9385l-1.443-5.3967q-0.61995-2.3185-2.9385-1.6986l-7.4797 2q-2.3185 0.61995-1.6986 2.9385z" clip-path="url(#a)" fill="#fff" stroke="#fff"/>
<g clip-path="url(#a)">
<defs>
<path id="r" d="m64.406 67.281v-10.391q-4.9844 4.6406-10.625 6.9219-5.6406 2.2969-11.984 2.2969-12.5 0-19.141-7.6406t-6.6406-22.094q0-14.406 6.6406-22.047t19.141-7.6406q6.3438 0 11.984 2.2969t10.625 6.9375v-10.312q-5.1719-3.5156-10.969-5.2812-5.7812-1.75-12.219-1.75-16.562 0-26.094 10.125-9.5156 10.141-9.5156 27.672 0 17.578 9.5156 27.703 9.5312 10.141 26.094 10.141 6.5312 0 12.312-1.7344 5.7969-1.7344 10.875-5.2031z"/>
</defs>
<g transform="translate(619.41 509.28) rotate(75.03) scale(.08 -.08)">
<use xlink:href="#r"/>
</g>
</g>
<path d="m671.33 576.55v35.285q0 2.4 2.4 2.4h7.7425q2.4 0 2.4-2.4v-35.285q0-2.4-2.4-2.4h-7.7425q-2.4 0-2.4 2.4z" clip-path="url(#a)" fill="#fff" stroke="#fff"/>
<g clip-path="url(#a)">
<g transform="translate(675.4 576.55) rotate(90) scale(.08 -.08)">
<use xlink:href="#l"/>
<use x="60.818359" xlink:href="#d"/>
<use x="122.341797" xlink:href="#h"/>
<use x="163.439453" xlink:href="#k"/>
<use x="260.851562" xlink:href="#j"/>
<use x="288.634766" xlink:href="#g"/>
<use x="352.013672" xlink:href="#f"/>
<use x="413.292969" xlink:href="#i"/>
</g>
</g>
<path d="m715.61 576.55v35.285q0 2.4 2.4 2.4h7.7425q2.4 0 2.4-2.4v-35.285q0-2.4-2.4-2.4h-7.7425q-2.4 0-2.4 2.4z" clip-path="url(#a)" fill="#fff" stroke="#fff"/>
<g clip-path="url(#a)">
<g transform="translate(719.67 576.55) rotate(90) scale(.08 -.08)">
<use xlink:href="#l"/>
<use x="60.818359" xlink:href="#d"/>
<use x="122.341797" xlink:href="#h"/>
<use x="163.439453" xlink:href="#k"/>
<use x="260.851562" xlink:href="#j"/>
<use x="288.634766" xlink:href="#g"/>
<use x="352.013672" xlink:href="#f"/>
<use x="413.292969" xlink:href="#i"/>
</g>
</g>
<path d="m759.88 576.55v35.285q0 2.4 2.4 2.4h7.7425q2.4 0 2.4-2.4v-35.285q0-2.4-2.4-2.4h-7.7425q-2.4 0-2.4 2.4z" clip-path="url(#a)" fill="#fff" stroke="#fff"/>
<g clip-path="url(#a)">
<g transform="translate(763.94 576.55) rotate(90) scale(.08 -.08)">
<use xlink:href="#l"/>
<use x="60.818359" xlink:href="#d"/>
<use x="122.341797" xlink:href="#h"/>
<use x="163.439453" xlink:href="#k"/>
<use x="260.851562" xlink:href="#j"/>
<use x="288.634766" xlink:href="#g"/>
<use x="352.013672" xlink:href="#f"/>
<use x="413.292969" xlink:href="#i"/>
</g>
</g>
<path d="m804.15 576.55v35.285q0 2.4 2.4 2.4h7.7425q2.4 0 2.4-2.4v-35.285q0-2.4-2.4-2.4h-7.7425q-2.4 0-2.4 2.4z" clip-path="url(#a)" fill="#fff" stroke="#fff"/>
<g clip-path="url(#a)">
<g transform="translate(808.21 576.55) rotate(90) scale(.08 -.08)">
<use xlink:href="#l"/>
<use x="60.818359" xlink:href="#d"/>
<use x="122.341797" xlink:href="#h"/>
<use x="163.439453" xlink:href="#k"/>
<use x="260.851562" xlink:href="#j"/>
<use x="288.634766" xlink:href="#g"/>
<use x="352.013672" xlink:href="#f"/>
<use x="413.292969" xlink:href="#i"/>
</g>
</g>
<path d="m839.53 380.46 0.28631 5.5514q0.12362 2.3968 2.5204 2.2732l7.7322-0.39879q2.3968-0.12362 2.2732-2.5204l-0.28631-5.5514q-0.12362-2.3968-2.5204-2.2732l-7.7322 0.39879q-2.3968 0.12362-2.2732 2.5204z" clip-path="url(#a)" fill="#fff" stroke="#fff"/>
<g clip-path="url(#a)">
<defs>
<path id="ai" d="m44.391 34.188q3.1719-1.0781 6.1719-4.5938t6.0312-9.6719l10.016-19.922h-10.609l-9.3125 18.703q-3.625 7.3281-7.0156 9.7188t-9.25 2.3906h-10.75v-30.812h-9.8594v72.906h22.266q12.5 0 18.656-5.2344 6.1562-5.2188 6.1562-15.766 0-6.8906-3.2031-11.438-3.2031-4.5312-9.2969-6.2812zm-24.719 30.609v-25.875h12.406q7.125 0 10.766 3.2969t3.6406 9.6875-3.6406 9.6406-10.766 3.25z"/>
</defs>
<g transform="translate(843.58 380.25) rotate(87.048) scale(.08 -.08)">
<use xlink:href="#ai"/>
</g>
</g>
<path d="m861.47 381.66 0.86314 4.7459q0.42944 2.3613 2.7907 1.9318l7.6175-1.3854q2.3613-0.42944 1.9318-2.7907l-0.86314-4.7459q-0.42944-2.3613-2.7907-1.9318l-7.6175 1.3854q-2.3613 0.42944-1.9318 2.7907z" clip-path="url(#a)" fill="#fff" stroke="#fff"/>
<g clip-path="url(#a)">
<g transform="translate(865.47 380.93) rotate(79.692) scale(.08 -.08)">
<use xlink:href="#q"/>
</g>
</g>
<path d="m893.58 260.33 4.4774 3.1465q1.9636 1.3799 3.3436-0.58367l4.4517-6.3347q1.3799-1.9636-0.58367-3.3436l-4.4774-3.1465q-1.9636-1.3799-3.3435 0.58367l-4.4517 6.3347q-1.3799 1.9636 0.58367 3.3436z" clip-path="url(#a)" fill="#fff" stroke="#fff"/>
<g clip-path="url(#a)">
<g transform="translate(895.92 257) rotate(35.098) scale(.08 -.08)">
<use xlink:href="#m"/>
</g>
</g>
<path d="m739.22 388.48 2.8152-4.6928q1.2346-2.0581-0.82343-3.2927l-6.6394-3.983q-2.0581-1.2346-3.2927 0.82343l-2.8152 4.6928q-1.2346 2.0581 0.82343 3.2927l6.6394 3.983q2.0581 1.2346 3.2927-0.82343z" clip-path="url(#a)" fill="#fff" stroke="#fff"/>
<g clip-path="url(#a)">
<g transform="translate(735.74 386.39) rotate(-59.04) scale(.08 -.08)">
<use xlink:href="#m"/>
</g>
</g>
<path d="m848.42 576.55v35.285q0 2.4 2.4 2.4h7.7425q2.4 0 2.4-2.4v-35.285q0-2.4-2.4-2.4h-7.7425q-2.4 0-2.4 2.4z" clip-path="url(#a)" fill="#fff" stroke="#fff"/>
<g clip-path="url(#a)">
<g transform="translate(852.49 576.55) rotate(90) scale(.08 -.08)">
<use xlink:href="#l"/>
<use x="60.818359" xlink:href="#d"/>
<use x="122.341797" xlink:href="#h"/>
<use x="163.439453" xlink:href="#k"/>
<use x="260.851562" xlink:href="#j"/>
<use x="288.634766" xlink:href="#g"/>
<use x="352.013672" xlink:href="#f"/>
<use x="413.292969" xlink:href="#i"/>
</g>
</g>
<path d="m892.7 576.55v35.285q0 2.4 2.4 2.4h7.7425q2.4 0 2.4-2.4v-35.285q0-2.4-2.4-2.4h-7.7425q-2.4 0-2.4 2.4z" clip-path="url(#a)" fill="#fff" stroke="#fff"/>
<g clip-path="url(#a)">
<g transform="translate(896.76 576.55) rotate(90) scale(.08 -.08)">
<use xlink:href="#l"/>
<use x="60.818359" xlink:href="#d"/>
<use x="122.341797" xlink:href="#h"/>
<use x="163.439453" xlink:href="#k"/>
<use x="260.851562" xlink:href="#j"/>
<use x="288.634766" xlink:href="#g"/>
<use x="352.013672" xlink:href="#f"/>
<use x="413.292969" xlink:href="#i"/>
</g>
</g>
<path d="m957.21 382.99 0.10497 4.8226q0.052228 2.3994 2.4517 2.3472l7.7407-0.16849q2.3994-0.052228 2.3472-2.4517l-0.10497-4.8226q-0.052229-2.3994-2.4517-2.3472l-7.7407 0.16849q-2.3994 0.052228-2.3472 2.4517z" clip-path="url(#a)" fill="#fff" stroke="#fff"/>
<g clip-path="url(#a)">
<g transform="translate(961.27 382.91) rotate(88.753) scale(.08 -.08)">
<use xlink:href="#q"/>
</g>
</g>
<path d="m965.99 346.3 0.23577-5.4674q0.1034-2.3978-2.2944-2.5012l-7.7353-0.33357q-2.3978-0.1034-2.5012 2.2944l-0.23577 5.4674q-0.1034 2.3978 2.2944 2.5012l7.7353 0.33357q2.3978 0.1034 2.5012-2.2944z" clip-path="url(#a)" fill="#fff" stroke="#fff"/>
<g clip-path="url(#a)">
<g transform="translate(961.93 346.13) rotate(-87.531) scale(.08 -.08)">
<use xlink:href="#m"/>
</g>
</g>
<path d="m959.71 515.47 1.3058-4.8834q0.61995-2.3185-1.6986-2.9385l-7.4797-2q-2.3185-0.61995-2.9385 1.6986l-1.3058 4.8834q-0.61995 2.3185 1.6986 2.9385l7.4797 2q2.3185 0.61995 2.9385-1.6986z" clip-path="url(#a)" fill="#fff" stroke="#fff"/>
<g clip-path="url(#a)">
<g transform="translate(955.79 514.42) rotate(-75.03) scale(.08 -.08)">
<use xlink:href="#w"/>
</g>
</g>
<path d="m969.66 510.33 1.443 5.3967q0.61995 2.3185 2.9385 1.6986l7.4797-2q2.3185-0.61995 1.6986-2.9385l-1.443-5.3967q-0.61995-2.3185-2.9385-1.6986l-7.4797 2q-2.3185 0.61995-1.6986 2.9385z" clip-path="url(#a)" fill="#fff" stroke="#fff"/>
<g clip-path="url(#a)">
<g transform="translate(973.59 509.28) rotate(75.03) scale(.08 -.08)">
<use xlink:href="#r"/>
</g>
</g>
<path d="m1054.7 512.73 3.4902 4.2151q1.5307 1.8485 3.3792 0.31789l5.9635-4.9379q1.8485-1.5307 0.31789-3.3792l-3.4902-4.2151q-1.5307-1.8485-3.3792-0.31789l-5.9635 4.9379q-1.8485 1.5307-0.31789 3.3792z" clip-path="url(#a)" fill="#fff" stroke="#fff"/>
<g clip-path="url(#a)">
<g transform="translate(1057.9 510.13) rotate(50.374) scale(.08 -.08)">
<use xlink:href="#m"/>
</g>
</g>
<path d="m1011.4 431.76 3.9314 2.7951q1.956 1.3907 3.3467-0.56532l4.4864-6.3102q1.3907-1.956-0.56532-3.3467l-3.9314-2.7951q-1.956-1.3907-3.3467 0.56532l-4.4864 6.3102q-1.3907 1.956 0.56532 3.3467z" clip-path="url(#a)" fill="#fff" stroke="#fff"/>
<g clip-path="url(#a)">
<g transform="translate(1013.8 428.45) rotate(35.412) scale(.08 -.08)">
<use xlink:href="#q"/>
</g>
</g>
<path d="m796.1 476.27 4.8681-2.4999q2.1349-1.0964 1.0386-3.2313l-3.5369-6.8874q-1.0964-2.1349-3.2313-1.0386l-4.8681 2.4999q-2.1349 1.0964-1.0386 3.2313l3.5369 6.8874q1.0964 2.1349 3.2313 1.0386z" clip-path="url(#a)" fill="#fff" stroke="#fff"/>
<g clip-path="url(#a)">
<g transform="translate(794.24 472.65) rotate(-27.182) scale(.08 -.08)">
<use xlink:href="#m"/>
</g>
</g>
<path d="m1058.4 516.4 2.1698-4.0575q1.1318-2.1164-0.98459-3.2482l-6.8275-3.6512q-2.1164-1.1318-3.2482 0.98459l-2.1698 4.0575q-1.1318 2.1164 0.98459 3.2482l6.8275 3.6512q2.1164 1.1318 3.2482-0.98459z" clip-path="url(#a)" fill="#fff" stroke="#fff"/>
<g clip-path="url(#a)">
<g transform="translate(1054.8 514.48) rotate(-61.863) scale(.08 -.08)">
<use xlink:href="#aa"/>
</g>
</g>
<path d="m1069.8 508.62v5.5862q0 2.4 2.4 2.4h7.7425q2.4 0 2.4-2.4v-5.5862q0-2.4-2.4-2.4h-7.7425q-2.4 0-2.4 2.4z" clip-path="url(#a)" fill="#fff" stroke="#fff"/>
<g clip-path="url(#a)">
<g transform="translate(1073.8 508.62) rotate(90) scale(.08 -.08)">
<use xlink:href="#r"/>
</g>
</g>
<path d="m1091.3 511.79 2.7611 5.1631q1.1318 2.1164 3.2482 0.98459l6.8275-3.6512q2.1164-1.1318 0.98459-3.2482l-2.7611-5.1631q-1.1318-2.1164-3.2482-0.98459l-6.8275 3.6512q-2.1164 1.1318-0.98459 3.2482z" clip-path="url(#a)" fill="#fff" stroke="#fff"/>
<g clip-path="url(#a)">
<g transform="translate(1094.9 509.87) rotate(61.863) scale(.08 -.08)">
<use xlink:href="#an"/>
</g>
</g>
<path d="m1025.5 576.55v35.285q0 2.4 2.4 2.4h7.7425q2.4 0 2.4-2.4v-35.285q0-2.4-2.4-2.4h-7.7425q-2.4 0-2.4 2.4z" clip-path="url(#a)" fill="#fff" stroke="#fff"/>
<g clip-path="url(#a)">
<g transform="translate(1029.6 576.55) rotate(90) scale(.08 -.08)">
<use xlink:href="#l"/>
<use x="60.818359" xlink:href="#d"/>
<use x="122.341797" xlink:href="#h"/>
<use x="163.439453" xlink:href="#k"/>
<use x="260.851562" xlink:href="#j"/>
<use x="288.634766" xlink:href="#g"/>
<use x="352.013672" xlink:href="#f"/>
<use x="413.292969" xlink:href="#i"/>
</g>
</g>
<path d="m1069.8 576.55v35.285q0 2.4 2.4 2.4h7.7425q2.4 0 2.4-2.4v-35.285q0-2.4-2.4-2.4h-7.7425q-2.4 0-2.4 2.4z" clip-path="url(#a)" fill="#fff" stroke="#fff"/>
<g clip-path="url(#a)">
<g transform="translate(1073.8 576.55) rotate(90) scale(.08 -.08)">
<use xlink:href="#l"/>
<use x="60.818359" xlink:href="#d"/>
<use x="122.341797" xlink:href="#h"/>
<use x="163.439453" xlink:href="#k"/>
<use x="260.851562" xlink:href="#j"/>
<use x="288.634766" xlink:href="#g"/>
<use x="352.013672" xlink:href="#f"/>
<use x="413.292969" xlink:href="#i"/>
</g>
</g>
<path d="m936.97 576.55v35.285q0 2.4 2.4 2.4h7.7425q2.4 0 2.4-2.4v-35.285q0-2.4-2.4-2.4h-7.7425q-2.4 0-2.4 2.4z" clip-path="url(#a)" fill="#fff" stroke="#fff"/>
<g clip-path="url(#a)">
<g transform="translate(941.03 576.55) rotate(90) scale(.08 -.08)">
<use xlink:href="#l"/>
<use x="60.818359" xlink:href="#d"/>
<use x="122.341797" xlink:href="#h"/>
<use x="163.439453" xlink:href="#k"/>
<use x="260.851562" xlink:href="#j"/>
<use x="288.634766" xlink:href="#g"/>
<use x="352.013672" xlink:href="#f"/>
<use x="413.292969" xlink:href="#i"/>
</g>
</g>
<path d="m981.24 576.55v35.285q0 2.4 2.4 2.4h7.7425q2.4 0 2.4-2.4v-35.285q0-2.4-2.4-2.4h-7.7425q-2.4 0-2.4 2.4z" clip-path="url(#a)" fill="#fff" stroke="#fff"/>
<g clip-path="url(#a)">
<g transform="translate(985.3 576.55) rotate(90) scale(.08 -.08)">
<use xlink:href="#l"/>
<use x="60.818359" xlink:href="#d"/>
<use x="122.341797" xlink:href="#h"/>
<use x="163.439453" xlink:href="#k"/>
<use x="260.851562" xlink:href="#j"/>
<use x="288.634766" xlink:href="#g"/>
<use x="352.013672" xlink:href="#f"/>
<use x="413.292969" xlink:href="#i"/>
</g>
</g>
<path d="m582.79 576.55v35.285q0 2.4 2.4 2.4h7.7425q2.4 0 2.4-2.4v-35.285q0-2.4-2.4-2.4h-7.7425q-2.4 0-2.4 2.4z" clip-path="url(#a)" fill="#fff" stroke="#fff"/>
<g clip-path="url(#a)">
<g transform="translate(586.85 576.55) rotate(90) scale(.08 -.08)">
<use xlink:href="#l"/>
<use x="60.818359" xlink:href="#d"/>
<use x="122.341797" xlink:href="#h"/>
<use x="163.439453" xlink:href="#k"/>
<use x="260.851562" xlink:href="#j"/>
<use x="288.634766" xlink:href="#g"/>
<use x="352.013672" xlink:href="#f"/>
<use x="413.292969" xlink:href="#i"/>
</g>
</g>
<path d="m627.06 576.55v35.285q0 2.4 2.4 2.4h7.7425q2.4 0 2.4-2.4v-35.285q0-2.4-2.4-2.4h-7.7425q-2.4 0-2.4 2.4z" clip-path="url(#a)" fill="#fff" stroke="#fff"/>
<g clip-path="url(#a)">
<g transform="translate(631.13 576.55) rotate(90) scale(.08 -.08)">
<use xlink:href="#l"/>
<use x="60.818359" xlink:href="#d"/>
<use x="122.341797" xlink:href="#h"/>
<use x="163.439453" xlink:href="#k"/>
<use x="260.851562" xlink:href="#j"/>
<use x="288.634766" xlink:href="#g"/>
<use x="352.013672" xlink:href="#f"/>
<use x="413.292969" xlink:href="#i"/>
</g>
</g>
<path d="m88.862 473.71 1.4959-4.8286q0.71021-2.2925-1.5823-3.0027l-7.3957-2.2912q-2.2925-0.71021-3.0027 1.5823l-1.4959 4.8286q-0.71021 2.2925 1.5823 3.0027l7.3957 2.2912q2.2925 0.71021 3.0027-1.5823z" clip-path="url(#a)" fill="#fff" stroke="#fff"/>
<g clip-path="url(#a)">
<g transform="translate(84.98 472.51) rotate(-72.787) scale(.08 -.08)">
<use xlink:href="#w"/>
</g>
</g>
<path d="m110.21 426.64 0.87531 4.9786q0.41558 2.3637 2.7793 1.9482l7.6255-1.3407q2.3637-0.41558 1.9482-2.7793l-0.87531-4.9786q-0.41558-2.3637-2.7793-1.9482l-7.6255 1.3407q-2.3637 0.41558-1.9482 2.7793z" clip-path="url(#a)" fill="#fff" stroke="#fff"/>
<g clip-path="url(#a)">
<g transform="translate(114.21 425.94) rotate(80.029) scale(.08 -.08)">
<use xlink:href="#w"/>
</g>
</g>
<path d="m121.16 468.07 1.2069 5.4543q0.51854 2.3433 2.8619 1.8248l7.5596-1.6728q2.3433-0.51854 1.8248-2.8619l-1.2069-5.4543q-0.51854-2.3433-2.8619-1.8248l-7.5596 1.6728q-2.3433 0.51854-1.8248 2.8619z" clip-path="url(#a)" fill="#fff" stroke="#fff"/>
<g clip-path="url(#a)">
<g transform="translate(125.13 467.19) rotate(77.522) scale(.08 -.08)">
<use xlink:href="#r"/>
</g>
</g>
<path d="m184.34 576.55v35.285q0 2.4 2.4 2.4h7.7425q2.4 0 2.4-2.4v-35.285q0-2.4-2.4-2.4h-7.7425q-2.4 0-2.4 2.4z" clip-path="url(#a)" fill="#fff" stroke="#fff"/>
<g clip-path="url(#a)">
<g transform="translate(188.4 576.55) rotate(90) scale(.08 -.08)">
<use xlink:href="#l"/>
<use x="60.818359" xlink:href="#d"/>
<use x="122.341797" xlink:href="#h"/>
<use x="163.439453" xlink:href="#k"/>
<use x="260.851562" xlink:href="#j"/>
<use x="288.634766" xlink:href="#g"/>
<use x="352.013672" xlink:href="#f"/>
<use x="413.292969" xlink:href="#i"/>
</g>
</g>
<path d="m228.61 576.55v35.285q0 2.4 2.4 2.4h7.7425q2.4 0 2.4-2.4v-35.285q0-2.4-2.4-2.4h-7.7425q-2.4 0-2.4 2.4z" clip-path="url(#a)" fill="#fff" stroke="#fff"/>
<g clip-path="url(#a)">
<g transform="translate(232.68 576.55) rotate(90) scale(.08 -.08)">
<use xlink:href="#l"/>
<use x="60.818359" xlink:href="#d"/>
<use x="122.341797" xlink:href="#h"/>
<use x="163.439453" xlink:href="#k"/>
<use x="260.851562" xlink:href="#j"/>
<use x="288.634766" xlink:href="#g"/>
<use x="352.013672" xlink:href="#f"/>
<use x="413.292969" xlink:href="#i"/>
</g>
</g>
<path d="m272.88 576.55v35.285q0 2.4 2.4 2.4h7.7425q2.4 0 2.4-2.4v-35.285q0-2.4-2.4-2.4h-7.7425q-2.4 0-2.4 2.4z" clip-path="url(#a)" fill="#fff" stroke="#fff"/>
<g clip-path="url(#a)">
<g transform="translate(276.95 576.55) rotate(90) scale(.08 -.08)">
<use xlink:href="#l"/>
<use x="60.818359" xlink:href="#d"/>
<use x="122.341797" xlink:href="#h"/>
<use x="163.439453" xlink:href="#k"/>
<use x="260.851562" xlink:href="#j"/>
<use x="288.634766" xlink:href="#g"/>
<use x="352.013672" xlink:href="#f"/>
<use x="413.292969" xlink:href="#i"/>
</g>
</g>
<path d="m359.78 517.5 3.4782-4.3361q1.5017-1.8721-0.37037-3.3738l-6.0395-4.8447q-1.8721-1.5017-3.3738 0.37037l-3.4782 4.3361q-1.5017 1.8721 0.37037 3.3738l6.0395 4.8447q1.8721 1.5017 3.3738-0.37037z" clip-path="url(#a)" fill="#fff" stroke="#fff"/>
<g clip-path="url(#a)">
<g transform="translate(356.61 514.96) rotate(-51.265) scale(.08 -.08)">
<use xlink:href="#ai"/>
</g>
</g>
<path d="m384.17 515.47 1.3058-4.8834q0.61995-2.3185-1.6986-2.9385l-7.4797-2q-2.3185-0.61995-2.9385 1.6986l-1.3058 4.8834q-0.61995 2.3185 1.6986 2.9385l7.4797 2q2.3185 0.61995 2.9385-1.6986z" clip-path="url(#a)" fill="#fff" stroke="#fff"/>
<g clip-path="url(#a)">
<g transform="translate(380.25 514.42) rotate(-75.03) scale(.08 -.08)">
<use xlink:href="#w"/>
</g>
</g>
<path d="m394.19 510.59 1.3058 4.8834q0.61995 2.3185 2.9385 1.6986l7.4797-2q2.3185-0.61995 1.6986-2.9385l-1.3058-4.8834q-0.61995-2.3185-2.9385-1.6986l-7.4797 2q-2.3185 0.61995-1.6986 2.9385z" clip-path="url(#a)" fill="#fff" stroke="#fff"/>
<g clip-path="url(#a)">
<g transform="translate(398.12 509.54) rotate(75.03) scale(.08 -.08)">
<use xlink:href="#w"/>
</g>
</g>
<path d="m416.4 513.15 3.4954 4.3575q1.5017 1.8721 3.3738 0.37037l6.0395-4.8447q1.8721-1.5017 0.37037-3.3738l-3.4954-4.3575q-1.5017-1.8721-3.3738-0.37037l-6.0395 4.8447q-1.8721 1.5017-0.37037 3.3738z" clip-path="url(#a)" fill="#fff" stroke="#fff"/>
<g clip-path="url(#a)">
<g transform="translate(419.57 510.61) rotate(51.265) scale(.08 -.08)">
<use xlink:href="#r"/>
</g>
</g>
<path d="m317.16 576.55v35.285q0 2.4 2.4 2.4h7.7425q2.4 0 2.4-2.4v-35.285q0-2.4-2.4-2.4h-7.7425q-2.4 0-2.4 2.4z" clip-path="url(#a)" fill="#fff" stroke="#fff"/>
<g clip-path="url(#a)">
<g transform="translate(321.22 576.55) rotate(90) scale(.08 -.08)">
<use xlink:href="#l"/>
<use x="60.818359" xlink:href="#d"/>
<use x="122.341797" xlink:href="#h"/>
<use x="163.439453" xlink:href="#k"/>
<use x="260.851562" xlink:href="#j"/>
<use x="288.634766" xlink:href="#g"/>
<use x="352.013672" xlink:href="#f"/>
<use x="413.292969" xlink:href="#i"/>
</g>
</g>
<path d="m361.43 576.55v35.285q0 2.4 2.4 2.4h7.7425q2.4 0 2.4-2.4v-35.285q0-2.4-2.4-2.4h-7.7425q-2.4 0-2.4 2.4z" clip-path="url(#a)" fill="#fff" stroke="#fff"/>
<g clip-path="url(#a)">
<g transform="translate(365.49 576.55) rotate(90) scale(.08 -.08)">
<use xlink:href="#l"/>
<use x="60.818359" xlink:href="#d"/>
<use x="122.341797" xlink:href="#h"/>
<use x="163.439453" xlink:href="#k"/>
<use x="260.851562" xlink:href="#j"/>
<use x="288.634766" xlink:href="#g"/>
<use x="352.013672" xlink:href="#f"/>
<use x="413.292969" xlink:href="#i"/>
</g>
</g>
<path d="m405.7 576.55v35.285q0 2.4 2.4 2.4h7.7425q2.4 0 2.4-2.4v-35.285q0-2.4-2.4-2.4h-7.7425q-2.4 0-2.4 2.4z" clip-path="url(#a)" fill="#fff" stroke="#fff"/>
<g clip-path="url(#a)">
<g transform="translate(409.76 576.55) rotate(90) scale(.08 -.08)">
<use xlink:href="#l"/>
<use x="60.818359" xlink:href="#d"/>
<use x="122.341797" xlink:href="#h"/>
<use x="163.439453" xlink:href="#k"/>
<use x="260.851562" xlink:href="#j"/>
<use x="288.634766" xlink:href="#g"/>
<use x="352.013672" xlink:href="#f"/>
<use x="413.292969" xlink:href="#i"/>
</g>
</g>
<path d="m449.97 576.55v35.285q0 2.4 2.4 2.4h7.7425q2.4 0 2.4-2.4v-35.285q0-2.4-2.4-2.4h-7.7425q-2.4 0-2.4 2.4z" clip-path="url(#a)" fill="#fff" stroke="#fff"/>
<g clip-path="url(#a)">
<g transform="translate(454.04 576.55) rotate(90) scale(.08 -.08)">
<use xlink:href="#l"/>
<use x="60.818359" xlink:href="#d"/>
<use x="122.341797" xlink:href="#h"/>
<use x="163.439453" xlink:href="#k"/>
<use x="260.851562" xlink:href="#j"/>
<use x="288.634766" xlink:href="#g"/>
<use x="352.013672" xlink:href="#f"/>
<use x="413.292969" xlink:href="#i"/>
</g>
</g>
<path d="m51.522 576.55v35.285q0 2.4 2.4 2.4h7.7425q2.4 0 2.4-2.4v-35.285q0-2.4-2.4-2.4h-7.7425q-2.4 0-2.4 2.4z" clip-path="url(#a)" fill="#fff" stroke="#fff"/>
<g clip-path="url(#a)">
<g transform="translate(55.586 576.55) rotate(90) scale(.08 -.08)">
<use xlink:href="#l"/>
<use x="60.818359" xlink:href="#d"/>
<use x="122.341797" xlink:href="#h"/>
<use x="163.439453" xlink:href="#k"/>
<use x="260.851562" xlink:href="#j"/>
<use x="288.634766" xlink:href="#g"/>
<use x="352.013672" xlink:href="#f"/>
<use x="413.292969" xlink:href="#i"/>
</g>
</g>
<path d="m128.5 510.39 1.4136 5.2868q0.61995 2.3185 2.9385 1.6986l7.4797-2q2.3185-0.61995 1.6986-2.9385l-1.4136-5.2868q-0.61995-2.3185-2.9385-1.6986l-7.4797 2q-2.3185 0.61995-1.6986 2.9385z" clip-path="url(#a)" fill="#fff" stroke="#fff"/>
<g clip-path="url(#a)">
<g transform="translate(132.43 509.34) rotate(75.03) scale(.08 -.08)">
<use xlink:href="#m"/>
</g>
</g>
<path d="m118.54 515.48 1.3119-4.9064q0.61995-2.3185-1.6986-2.9385l-7.4797-2q-2.3185-0.61995-2.9385 1.6986l-1.3119 4.9064q-0.61995 2.3185 1.6986 2.9385l7.4797 2q2.3185 0.61995 2.9385-1.6986z" clip-path="url(#a)" fill="#fff" stroke="#fff"/>
<g clip-path="url(#a)">
<defs>
<path id="ao" d="m53.516 70.516v-9.625q-5.6094 2.6875-10.594 4-4.9844 1.3281-9.625 1.3281-8.0469 0-12.422-3.125t-4.375-8.8906q0-4.8438 2.9062-7.3125 2.9062-2.4531 11.016-3.9688l5.9531-1.2188q11.031-2.1094 16.281-7.4062t5.25-14.172q0-10.609-7.1094-16.078-7.0938-5.4688-20.812-5.4688-5.1719 0-11.016 1.1719-5.8281 1.1719-12.078 3.4688v10.156q6-3.3594 11.766-5.0781 5.7656-1.7031 11.328-1.7031 8.4375 0 13.031 3.3125 4.5938 3.3281 4.5938 9.4844 0 5.3594-3.2969 8.3906t-10.812 4.5469l-6.0156 1.1719q-11.031 2.1875-15.969 6.875-4.9219 4.6875-4.9219 13.047 0 9.6719 6.8125 15.234t18.766 5.5625q5.1406 0 10.453-0.9375 5.3281-0.92188 10.891-2.7656z"/>
</defs>
<g transform="translate(114.61 514.43) rotate(-75.03) scale(.08 -.08)">
<use xlink:href="#ao"/>
</g>
</g>
<path d="m140.07 576.55v35.285q0 2.4 2.4 2.4h7.7425q2.4 0 2.4-2.4v-35.285q0-2.4-2.4-2.4h-7.7425q-2.4 0-2.4 2.4z" clip-path="url(#a)" fill="#fff" stroke="#fff"/>
<g clip-path="url(#a)">
<g transform="translate(144.13 576.55) rotate(90) scale(.08 -.08)">
<use xlink:href="#l"/>
<use x="60.818359" xlink:href="#d"/>
<use x="122.341797" xlink:href="#h"/>
<use x="163.439453" xlink:href="#k"/>
<use x="260.851562" xlink:href="#j"/>
<use x="288.634766" xlink:href="#g"/>
<use x="352.013672" xlink:href="#f"/>
<use x="413.292969" xlink:href="#i"/>
</g>
</g>
<path d="m95.795 576.55v35.285q0 2.4 2.4 2.4h7.7425q2.4 0 2.4-2.4v-35.285q0-2.4-2.4-2.4h-7.7425q-2.4 0-2.4 2.4z" clip-path="url(#a)" fill="#fff" stroke="#fff"/>
<g clip-path="url(#a)">
<g transform="translate(99.858 576.55) rotate(90) scale(.08 -.08)">
<use xlink:href="#l"/>
<use x="60.818359" xlink:href="#d"/>
<use x="122.341797" xlink:href="#h"/>
<use x="163.439453" xlink:href="#k"/>
<use x="260.851562" xlink:href="#j"/>
<use x="288.634766" xlink:href="#g"/>
<use x="352.013672" xlink:href="#f"/>
<use x="413.292969" xlink:href="#i"/>
</g>
</g>
<path d="m484.66 173.27 5.0551-8.5499q1.2215-2.0659-0.84445-3.2874l-6.6647-3.9405q-2.0659-1.2215-3.2874 0.84445l-5.0551 8.5499q-1.2215 2.0659 0.84445 3.2874l6.6647 3.9405q2.0659 1.2215 3.2874-0.84445z" clip-path="url(#a)" fill="#fff" stroke="#fff"/>
<g clip-path="url(#a)">
<g transform="translate(481.16 171.2) rotate(-59.406) scale(.08 -.08)">
<use xlink:href="#u"/>
<use x="55.744141" xlink:href="#m"/>
</g>
</g>
<path d="m559.22 297.15 0.31955-10.011q0.076569-2.3988-2.3222-2.4753l-7.7386-0.24701q-2.3988-0.076568-2.4753 2.3222l-0.31955 10.011q-0.076568 2.3988 2.3222 2.4753l7.7386 0.24701q2.3988 0.076569 2.4753-2.3222z" clip-path="url(#a)" fill="#fff" stroke="#fff"/>
<g clip-path="url(#a)">
<g transform="translate(555.16 297.02) rotate(-88.172) scale(.08 -.08)">
<use xlink:href="#u"/>
<use x="55.712891" xlink:href="#ai"/>
</g>
</g>
<path d="m642.11 80.432 8.7977 4.6103q2.1258 1.114 3.2398-1.0118l3.5938-6.8579q1.114-2.1258-1.0118-3.2398l-8.7977-4.6103q-2.1258-1.114-3.2398 1.0118l-3.5938 6.8579q-1.114 2.1258 1.0118 3.2398z" clip-path="url(#a)" fill="#fff" stroke="#fff"/>
<g clip-path="url(#a)">
<g transform="translate(644 76.832) rotate(27.656) scale(.08 -.08)">
<use xlink:href="#u"/>
<use x="55.744141" xlink:href="#m"/>
</g>
</g>
<path d="m494.25 576.55v35.285q0 2.4 2.4 2.4h7.7425q2.4 0 2.4-2.4v-35.285q0-2.4-2.4-2.4h-7.7425q-2.4 0-2.4 2.4z" clip-path="url(#a)" fill="#fff" stroke="#fff"/>
<g clip-path="url(#a)">
<g transform="translate(498.31 576.55) rotate(90) scale(.08 -.08)">
<use xlink:href="#l"/>
<use x="60.818359" xlink:href="#d"/>
<use x="122.341797" xlink:href="#h"/>
<use x="163.439453" xlink:href="#k"/>
<use x="260.851562" xlink:href="#j"/>
<use x="288.634766" xlink:href="#g"/>
<use x="352.013672" xlink:href="#f"/>
<use x="413.292969" xlink:href="#i"/>
</g>
</g>
<path d="m1114.1 576.55v35.285q0 2.4 2.4 2.4h7.7425q2.4 0 2.4-2.4v-35.285q0-2.4-2.4-2.4h-7.7425q-2.4 0-2.4 2.4z" clip-path="url(#a)" fill="#fff" stroke="#fff"/>
<g clip-path="url(#a)">
<g transform="translate(1118.1 576.55) rotate(90) scale(.08 -.08)">
<use xlink:href="#l"/>
<use x="60.818359" xlink:href="#d"/>
<use x="122.341797" xlink:href="#h"/>
<use x="163.439453" xlink:href="#k"/>
<use x="260.851562" xlink:href="#j"/>
<use x="288.634766" xlink:href="#g"/>
<use x="352.013672" xlink:href="#f"/>
<use x="413.292969" xlink:href="#i"/>
</g>
</g>
<defs>
<path id="b" d="m0 8.6603c2.2967 0 4.4997-0.9125 6.1237-2.5365 1.624-1.624 2.5365-3.827 2.5365-6.1237s-0.9125-4.4997-2.5365-6.1237c-1.624-1.624-3.827-2.5365-6.1237-2.5365s-4.4997 0.9125-6.1237 2.5365c-1.624 1.624-2.5365 3.827-2.5365 6.1237s0.9125 4.4997 2.5365 6.1237c1.624 1.624 3.827 2.5365 6.1237 2.5365z"/>
</defs>
<g clip-path="url(#a)">
<use x="57.793695" y="635.589326" fill="#ffffff" stroke="#ffffff" xlink:href="#b"/>
</g>
<g clip-path="url(#a)">
<use x="102.065975" y="635.589326" fill="#ffffff" stroke="#ffffff" xlink:href="#b"/>
</g>
<g clip-path="url(#a)">
<use x="146.338255" y="635.589326" fill="#ffffff" stroke="#ffffff" xlink:href="#b"/>
</g>
<g clip-path="url(#a)">
<use x="190.610535" y="635.589326" fill="#ffffff" stroke="#ffffff" xlink:href="#b"/>
</g>
<g clip-path="url(#a)">
<use x="234.882815" y="635.589326" fill="#ffffff" stroke="#ffffff" xlink:href="#b"/>
</g>
<g clip-path="url(#a)">
<use x="279.155095" y="635.589326" fill="#ffffff" stroke="#ffffff" xlink:href="#b"/>
</g>
<g clip-path="url(#a)">
<use x="323.427374" y="635.589326" fill="#ffffff" stroke="#ffffff" xlink:href="#b"/>
</g>
<g clip-path="url(#a)">
<use x="367.699654" y="635.589326" fill="#ffffff" stroke="#ffffff" xlink:href="#b"/>
</g>
<g clip-path="url(#a)">
<use x="411.971934" y="635.589326" fill="#ffffff" stroke="#ffffff" xlink:href="#b"/>
</g>
<g clip-path="url(#a)">
<use x="456.244214" y="635.589326" fill="#ffffff" stroke="#ffffff" xlink:href="#b"/>
</g>
<g clip-path="url(#a)">
<use x="500.516494" y="635.589326" fill="#ffffff" stroke="#ffffff" xlink:href="#b"/>
</g>
<g clip-path="url(#a)">
<use x="544.788774" y="635.589326" fill="#ffffff" stroke="#ffffff" xlink:href="#b"/>
</g>
<g clip-path="url(#a)">
<use x="589.061053" y="635.589326" fill="#ffffff" stroke="#ffffff" xlink:href="#b"/>
</g>
<g clip-path="url(#a)">
<use x="633.333333" y="635.589326" fill="#ffffff" stroke="#ffffff" xlink:href="#b"/>
</g>
<g clip-path="url(#a)">
<use x="677.605613" y="635.589326" fill="#ffffff" stroke="#ffffff" xlink:href="#b"/>
</g>
<g clip-path="url(#a)">
<use x="721.877893" y="635.589326" fill="#ffffff" stroke="#ffffff" xlink:href="#b"/>
</g>
<g clip-path="url(#a)">
<use x="766.150173" y="635.589326" fill="#ffffff" stroke="#ffffff" xlink:href="#b"/>
</g>
<g clip-path="url(#a)">
<use x="810.422453" y="635.589326" fill="#ffffff" stroke="#ffffff" xlink:href="#b"/>
</g>
<g clip-path="url(#a)">
<use x="854.694733" y="635.589326" fill="#ffffff" stroke="#ffffff" xlink:href="#b"/>
</g>
<g clip-path="url(#a)">
<use x="898.967012" y="635.589326" fill="#ffffff" stroke="#ffffff" xlink:href="#b"/>
</g>
<g clip-path="url(#a)">
<use x="943.239292" y="635.589326" fill="#ffffff" stroke="#ffffff" xlink:href="#b"/>
</g>
<g clip-path="url(#a)">
<use x="987.511572" y="635.589326" fill="#ffffff" stroke="#ffffff" xlink:href="#b"/>
</g>
<g clip-path="url(#a)">
<use x="1031.783852" y="635.589326" fill="#ffffff" stroke="#ffffff" xlink:href="#b"/>
</g>
<g clip-path="url(#a)">
<use x="1076.056132" y="635.589326" fill="#ffffff" stroke="#ffffff" xlink:href="#b"/>
</g>
<g clip-path="url(#a)">
<use x="1120.328412" y="635.589326" fill="#ffffff" stroke="#ffffff" xlink:href="#b"/>
</g>
<g clip-path="url(#a)">
<use x="546.210713" y="31.077341" fill="#ffffff" stroke="#ffffff" xlink:href="#b"/>
</g>
<g clip-path="url(#a)">
<use x="402.13365" y="300.522722" fill="#ffffff" stroke="#ffffff" xlink:href="#b"/>
</g>
<g clip-path="url(#a)">
<use x="544.788774" y="552.802576" fill="#ffffff" stroke="#ffffff" xlink:href="#b"/>
</g>
<g clip-path="url(#a)">
<use x="737.403936" y="123.287162" fill="#ffffff" stroke="#ffffff" xlink:href="#b"/>
</g>
<g clip-path="url(#a)">
<use x="611.197193" y="470.015827" fill="#ffffff" stroke="#ffffff" xlink:href="#b"/>
</g>
<g clip-path="url(#a)">
<use x="677.605613" y="552.802576" fill="#ffffff" stroke="#ffffff" xlink:href="#b"/>
</g>
<g clip-path="url(#a)">
<use x="721.877893" y="552.802576" fill="#ffffff" stroke="#ffffff" xlink:href="#b"/>
</g>
<g clip-path="url(#a)">
<use x="766.150173" y="552.802576" fill="#ffffff" stroke="#ffffff" xlink:href="#b"/>
</g>
<g clip-path="url(#a)">
<use x="810.422453" y="552.802576" fill="#ffffff" stroke="#ffffff" xlink:href="#b"/>
</g>
<g clip-path="url(#a)">
<use x="837.170288" y="213.018637" fill="#ffffff" stroke="#ffffff" xlink:href="#b"/>
</g>
<g clip-path="url(#a)">
<use x="854.694733" y="552.802576" fill="#ffffff" stroke="#ffffff" xlink:href="#b"/>
</g>
<g clip-path="url(#a)">
<use x="898.967012" y="552.802576" fill="#ffffff" stroke="#ffffff" xlink:href="#b"/>
</g>
<g clip-path="url(#a)">
<use x="961.686075" y="300.522722" fill="#ffffff" stroke="#ffffff" xlink:href="#b"/>
</g>
<g clip-path="url(#a)">
<use x="965.375432" y="470.015827" fill="#ffffff" stroke="#ffffff" xlink:href="#b"/>
</g>
<g clip-path="url(#a)">
<use x="957.996719" y="386.077423" fill="#ffffff" stroke="#ffffff" xlink:href="#b"/>
</g>
<g clip-path="url(#a)">
<use x="1164.600691" y="635.589326" fill="#ffffff" stroke="#ffffff" xlink:href="#b"/>
</g>
<g clip-path="url(#a)">
<use x="1076.056132" y="470.015827" fill="#ffffff" stroke="#ffffff" xlink:href="#b"/>
</g>
<g clip-path="url(#a)">
<use x="1031.783852" y="552.802576" fill="#ffffff" stroke="#ffffff" xlink:href="#b"/>
</g>
<g clip-path="url(#a)">
<use x="1076.056132" y="552.802576" fill="#ffffff" stroke="#ffffff" xlink:href="#b"/>
</g>
<g clip-path="url(#a)">
<use x="943.239292" y="552.802576" fill="#ffffff" stroke="#ffffff" xlink:href="#b"/>
</g>
<g clip-path="url(#a)">
<use x="987.511572" y="552.802576" fill="#ffffff" stroke="#ffffff" xlink:href="#b"/>
</g>
<g clip-path="url(#a)">
<use x="589.061053" y="552.802576" fill="#ffffff" stroke="#ffffff" xlink:href="#b"/>
</g>
<g clip-path="url(#a)">
<use x="633.333333" y="552.802576" fill="#ffffff" stroke="#ffffff" xlink:href="#b"/>
</g>
<g clip-path="url(#a)">
<use x="1208.872971" y="635.589326" fill="#ffffff" stroke="#ffffff" xlink:href="#b"/>
</g>
<g clip-path="url(#a)">
<use x="109.444689" y="386.077423" fill="#ffffff" stroke="#ffffff" xlink:href="#b"/>
</g>
<g clip-path="url(#a)">
<use x="190.610535" y="552.802576" fill="#ffffff" stroke="#ffffff" xlink:href="#b"/>
</g>
<g clip-path="url(#a)">
<use x="234.882815" y="552.802576" fill="#ffffff" stroke="#ffffff" xlink:href="#b"/>
</g>
<g clip-path="url(#a)">
<use x="279.155095" y="552.802576" fill="#ffffff" stroke="#ffffff" xlink:href="#b"/>
</g>
<g clip-path="url(#a)">
<use x="389.835794" y="470.015827" fill="#ffffff" stroke="#ffffff" xlink:href="#b"/>
</g>
<g clip-path="url(#a)">
<use x="323.427374" y="552.802576" fill="#ffffff" stroke="#ffffff" xlink:href="#b"/>
</g>
<g clip-path="url(#a)">
<use x="367.699654" y="552.802576" fill="#ffffff" stroke="#ffffff" xlink:href="#b"/>
</g>
<g clip-path="url(#a)">
<use x="411.971934" y="552.802576" fill="#ffffff" stroke="#ffffff" xlink:href="#b"/>
</g>
<g clip-path="url(#a)">
<use x="456.244214" y="552.802576" fill="#ffffff" stroke="#ffffff" xlink:href="#b"/>
</g>
<g clip-path="url(#a)">
<use x="57.793695" y="552.802576" fill="#ffffff" stroke="#ffffff" xlink:href="#b"/>
</g>
<g clip-path="url(#a)">
<use x="124.202115" y="470.015827" fill="#ffffff" stroke="#ffffff" xlink:href="#b"/>
</g>
<g clip-path="url(#a)">
<use x="146.338255" y="552.802576" fill="#ffffff" stroke="#ffffff" xlink:href="#b"/>
</g>
<g clip-path="url(#a)">
<use x="102.065975" y="552.802576" fill="#ffffff" stroke="#ffffff" xlink:href="#b"/>
</g>
<g clip-path="url(#a)">
<use x="561.44212" y="31.077341" fill="#808080" stroke="#808080" xlink:href="#b"/>
</g>
<g clip-path="url(#a)">
<use x="500.516494" y="552.802576" fill="#ffffff" stroke="#ffffff" xlink:href="#b"/>
</g>
<g clip-path="url(#a)">
<use x="1120.328412" y="552.802576" fill="#ffffff" stroke="#ffffff" xlink:href="#b"/>
</g>
<g clip-path="url(#a)">
<g transform="translate(54.373 638.35) scale(.1 -.1)">
<use xlink:href="#m"/>
</g>
</g>
<g clip-path="url(#a)">
<defs>
<path id="x" d="m44.281 53.078v-8.5q-3.7969 1.9531-7.9062 2.9219-4.0938 0.98438-8.5 0.98438-6.6875 0-10.031-2.0469t-3.3438-6.1562q0-3.125 2.3906-4.9062t9.625-3.3906l3.0781-0.6875q9.5625-2.0469 13.594-5.7812t4.0312-10.422q0-7.625-6.0312-12.078-6.0312-4.4375-16.578-4.4375-4.3906 0-9.1562 0.85938t-10.031 2.5625v9.2812q4.9844-2.5938 9.8125-3.8906 4.8281-1.2812 9.5781-1.2812 6.3438 0 9.75 2.1719 3.4219 2.1719 3.4219 6.125 0 3.6562-2.4688 5.6094-2.4531 1.9531-10.812 3.7656l-3.125 0.73438q-8.3438 1.75-12.062 5.3906-3.7031 3.6406-3.7031 9.9844 0 7.7188 5.4688 11.906 5.4688 4.2031 15.531 4.2031 4.9688 0 9.3594-0.73438 4.4062-0.71875 8.1094-2.1875z"/>
<path id="ae" d="m8.5 21.578v33.109h8.9844v-32.766q0-7.7656 3.0156-11.656 3.0312-3.875 9.0938-3.875 7.2656 0 11.484 4.6406 4.2344 4.6406 4.2344 12.656v31h8.9844v-54.688h-8.9844v8.4062q-3.2656-4.9844-7.5938-7.4062-4.3125-2.4219-10.031-2.4219-9.4219 0-14.312 5.8594-4.875 5.8594-4.875 17.141z"/>
<path id="af" d="m18.109 8.2031v-29h-9.0312v75.484h9.0312v-8.2969q2.8438 4.875 7.1562 7.2344 4.3281 2.375 10.328 2.375 9.9688 0 16.188-7.9062 6.2344-7.9062 6.2344-20.797t-6.2344-20.812q-6.2188-7.9062-16.188-7.9062-6 0-10.328 2.375-4.3125 2.375-7.1562 7.25zm30.578 19.094q0 9.9062-4.0781 15.547t-11.203 5.6406q-7.1406 0-11.219-5.6406t-4.0781-15.547 4.0781-15.547 11.219-5.6406q7.125 0 11.203 5.6406t4.0781 15.547z"/>
</defs>
<g transform="translate(80.041 638.35) scale(.1 -.1)">
<use xlink:href="#x"/>
<use x="52.099609" xlink:href="#ae"/>
<use x="115.478516" xlink:href="#af"/>
<use x="178.955078" xlink:href="#h"/>
<use x="220.037109" xlink:href="#d"/>
<use x="281.560547" xlink:href="#k"/>
<use x="378.972656" xlink:href="#d"/>
</g>
</g>
<g clip-path="url(#a)">
<defs>
<path id="z" d="m48.781 52.594v-8.4062q-3.8125 2.1094-7.6406 3.1562t-7.7344 1.0469q-8.75 0-13.594-5.5469-4.8281-5.5312-4.8281-15.547t4.8281-15.562q4.8438-5.5312 13.594-5.5312 3.9062 0 7.7344 1.0469t7.6406 3.1562v-8.3125q-3.7656-1.75-7.7969-2.625-4.0156-0.89062-8.5625-0.89062-12.359 0-19.641 7.7656-7.2656 7.7656-7.2656 20.953 0 13.375 7.3438 21.031 7.3594 7.6719 20.156 7.6719 4.1406 0 8.0938-0.85938 3.9531-0.84375 7.6719-2.5469z"/>
<path id="t" d="m54.891 33.016v-33.016h-8.9844v32.719q0 7.7656-3.0312 11.609-3.0312 3.8594-9.0781 3.8594-7.2812 0-11.484-4.6406-4.2031-4.625-4.2031-12.641v-30.906h-9.0312v75.984h9.0312v-29.797q3.2344 4.9375 7.5938 7.375 4.375 2.4375 10.094 2.4375 9.4219 0 14.25-5.8281 4.8438-5.8281 4.8438-17.156z"/>
<path id="ag" d="m45.406 27.984q0 9.7656-4.0312 15.125-4.0156 5.375-11.297 5.375-7.2188 0-11.25-5.375-4.0312-5.3594-4.0312-15.125 0-9.7188 4.0312-15.094t11.25-5.375q7.2812 0 11.297 5.375 4.0312 5.375 4.0312 15.094zm8.9844-21.203q0-13.953-6.2031-20.766-6.1875-6.8125-18.984-6.8125-4.7344 0-8.9375 0.70312t-8.1562 2.1719v8.7344q3.9531-2.1406 7.8125-3.1562 3.8594-1.0312 7.8594-1.0312 8.8438 0 13.234 4.6094t4.3906 13.938v4.4531q-2.7812-4.8438-7.125-7.2344t-10.406-2.3906q-10.047 0-16.203 7.6562-6.1562 7.6719-6.1562 20.328 0 12.688 6.1562 20.344 6.1562 7.6719 16.203 7.6719 6.0625 0 10.406-2.3906t7.125-7.2188v8.2969h8.9844z"/>
</defs>
<g transform="translate(122.08 638.35) scale(.1 -.1)">
<use xlink:href="#z"/>
<use x="54.980469" xlink:href="#t"/>
<use x="118.359375" xlink:href="#f"/>
<use x="179.638672" xlink:href="#i"/>
<use x="207.421875" xlink:href="#i"/>
<use x="235.205078" xlink:href="#d"/>
<use x="296.728516" xlink:href="#g"/>
<use x="360.107422" xlink:href="#ag"/>
<use x="423.583984" xlink:href="#d"/>
</g>
</g>
<g clip-path="url(#a)">
<defs>
<path id="ah" d="m45.406 46.391v29.594h8.9844v-75.984h-8.9844v8.2031q-2.8281-4.875-7.1562-7.25-4.3125-2.375-10.375-2.375-9.9062 0-16.141 7.9062-6.2188 7.9219-6.2188 20.812t6.2188 20.797q6.2344 7.9062 16.141 7.9062 6.0625 0 10.375-2.375 4.3281-2.3594 7.1562-7.2344zm-30.609-19.094q0-9.9062 4.0781-15.547t11.203-5.6406 11.219 5.6406q4.1094 5.6406 4.1094 15.547t-4.1094 15.547q-4.0938 5.6406-11.219 5.6406t-11.203-5.6406-4.0781-15.547z"/>
</defs>
<g transform="translate(181.2 638.35) scale(.1 -.1)">
<use xlink:href="#t"/>
<use x="63.378906" xlink:href="#f"/>
<use x="124.658203" xlink:href="#ah"/>
</g>
</g>
<g clip-path="url(#a)">
<defs>
<path id="am" d="m48.688 27.297q0 9.9062-4.0781 15.547t-11.203 5.6406q-7.1406 0-11.219-5.6406t-4.0781-15.547 4.0781-15.547 11.219-5.6406q7.125 0 11.203 5.6406t4.0781 15.547zm-30.578 19.094q2.8438 4.875 7.1562 7.2344 4.3281 2.375 10.328 2.375 9.9688 0 16.188-7.9062 6.2344-7.9062 6.2344-20.797t-6.2344-20.812q-6.2188-7.9062-16.188-7.9062-6 0-10.328 2.375-4.3125 2.375-7.1562 7.25v-8.2031h-9.0312v75.984h9.0312z"/>
</defs>
<g transform="translate(222.39 638.35) scale(.1 -.1)">
<use xlink:href="#am"/>
<use x="63.476562" xlink:href="#d"/>
<use x="125" xlink:href="#d"/>
<use x="186.523438" xlink:href="#g"/>
</g>
</g>
<g clip-path="url(#a)">
<g transform="translate(263.14 638.35) scale(.1 -.1)">
<use xlink:href="#j"/>
<use x="27.783203" xlink:href="#x"/>
<use x="79.882812" xlink:href="#x"/>
<use x="131.982422" xlink:href="#ae"/>
<use x="195.361328" xlink:href="#d"/>
<use x="256.884766" xlink:href="#ah"/>
</g>
</g>
<g clip-path="url(#a)">
<defs>
<path id="p" d="m18.312 70.219v-15.531h18.5v-6.9844h-18.5v-29.688q0-6.6875 1.8281-8.5938t7.4531-1.9062h9.2188v-7.5156h-9.2188q-10.406 0-14.359 3.875-3.9531 3.8906-3.9531 14.141v29.688h-6.5938v6.9844h6.5938v15.531z"/>
<path id="y" d="m30.609 48.391q-7.2188 0-11.422-5.6406t-4.2031-15.453 4.1719-15.453q4.1875-5.6406 11.453-5.6406 7.1875 0 11.375 5.6562 4.2031 5.6719 4.2031 15.438 0 9.7188-4.2031 15.406-4.1875 5.6875-11.375 5.6875zm0 7.6094q11.719 0 18.406-7.625 6.7031-7.6094 6.7031-21.078 0-13.422-6.7031-21.078-6.6875-7.6406-18.406-7.6406-11.766 0-18.438 7.6406-6.6562 7.6562-6.6562 21.078 0 13.469 6.6562 21.078 6.6719 7.625 18.438 7.625z"/>
</defs>
<g transform="translate(318.41 638.35) scale(.1 -.1)">
<use xlink:href="#p"/>
<use x="39.208984" xlink:href="#y"/>
</g>
</g>
<g clip-path="url(#a)">
<g transform="translate(359.49 638.35) scale(.1 -.1)">
<use xlink:href="#p"/>
<use x="39.208984" xlink:href="#t"/>
<use x="102.587891" xlink:href="#d"/>
</g>
</g>
<g clip-path="url(#a)">
<g transform="translate(399.22 638.35) scale(.1 -.1)">
<use xlink:href="#ag"/>
<use x="63.476562" xlink:href="#j"/>
<use x="91.259766" xlink:href="#f"/>
<use x="152.539062" xlink:href="#g"/>
<use x="215.917969" xlink:href="#p"/>
</g>
</g>
<g clip-path="url(#a)">
<defs>
<path id="av" d="m4.2031 54.688h8.9844l11.234-42.672 11.172 42.672h10.594l11.234-42.672 11.188 42.672h8.9844l-14.312-54.688h-10.594l-11.766 44.828-11.812-44.828h-10.609z"/>
</defs>
<g transform="translate(433.17 638.35) scale(.1 -.1)">
<use xlink:href="#g"/>
<use x="63.378906" xlink:href="#f"/>
<use x="124.658203" xlink:href="#h"/>
<use x="165.771484" xlink:href="#av"/>
<use x="247.558594" xlink:href="#t"/>
<use x="310.9375" xlink:href="#f"/>
<use x="372.216797" xlink:href="#i"/>
<use x="400" xlink:href="#d"/>
</g>
</g>
<g clip-path="url(#a)">
<defs>
<path id="as" d="m11.719 12.406h10.297v-8.4062l-8-15.625h-6.2969l4 15.625z"/>
</defs>
<g transform="translate(498.93 638.35) scale(.1 -.1)">
<use xlink:href="#as"/>
</g>
</g>
<g clip-path="url(#a)">
<g transform="translate(535.38 638.35) scale(.1 -.1)">
<use xlink:href="#f"/>
<use x="61.279297" xlink:href="#g"/>
<use x="124.658203" xlink:href="#ah"/>
</g>
</g>
<g clip-path="url(#a)">
<g transform="translate(580.86 638.35) scale(.1 -.1)">
<use xlink:href="#p"/>
<use x="39.208984" xlink:href="#t"/>
<use x="102.587891" xlink:href="#d"/>
</g>
</g>
<g clip-path="url(#a)">
<g transform="translate(619.83 638.35) scale(.1 -.1)">
<use xlink:href="#i"/>
<use x="27.783203" xlink:href="#f"/>
<use x="89.0625" xlink:href="#p"/>
<use x="128.271484" xlink:href="#p"/>
<use x="167.480469" xlink:href="#d"/>
<use x="229.003906" xlink:href="#h"/>
</g>
</g>
<g clip-path="url(#a)">
<g transform="translate(668.2 638.35) scale(.1 -.1)">
<use xlink:href="#t"/>
<use x="63.378906" xlink:href="#f"/>
<use x="124.658203" xlink:href="#ah"/>
</g>
</g>
<g clip-path="url(#a)">
<g transform="translate(715.65 638.35) scale(.1 -.1)">
<use xlink:href="#g"/>
<use x="63.378906" xlink:href="#y"/>
</g>
</g>
<g clip-path="url(#a)">
<g transform="translate(738.67 638.35) scale(.1 -.1)">
<use xlink:href="#f"/>
<use x="61.279297" xlink:href="#z"/>
<use x="116.259766" xlink:href="#z"/>
<use x="171.240234" xlink:href="#d"/>
<use x="232.763672" xlink:href="#af"/>
<use x="296.240234" xlink:href="#p"/>
<use x="335.449219" xlink:href="#f"/>
<use x="396.728516" xlink:href="#am"/>
<use x="460.205078" xlink:href="#i"/>
<use x="487.988281" xlink:href="#d"/>
</g>
</g>
<g clip-path="url(#a)">
<defs>
<path id="au" d="m54.891 54.688-19.781-26.609 20.797-28.078h-10.594l-15.922 21.484-15.906-21.484h-10.609l21.25 28.609-19.438 26.078h10.594l14.5-19.484 14.5 19.484z"/>
</defs>
<g transform="translate(792.79 638.35) scale(.1 -.1)">
<use xlink:href="#d"/>
<use x="61.507812" xlink:href="#au"/>
<use x="120.671875" xlink:href="#z"/>
<use x="175.652344" xlink:href="#ae"/>
<use x="239.03125" xlink:href="#x"/>
<use x="291.130859" xlink:href="#d"/>
</g>
</g>
<g clip-path="url(#a)">
<defs>
<path id="aw" d="m37.109 75.984v-7.4844h-8.5938q-4.8281 0-6.7188-1.9531-1.875-1.9531-1.875-7.0312v-4.8281h14.797v-6.9844h-14.797v-47.703h-9.0312v47.703h-8.5938v6.9844h8.5938v3.8125q0 9.125 4.25 13.297 4.25 4.1875 13.469 4.1875z"/>
</defs>
<g transform="translate(847.82 638.35) scale(.1 -.1)">
<use xlink:href="#aw"/>
<use x="35.205078" xlink:href="#y"/>
<use x="96.386719" xlink:href="#h"/>
</g>
</g>
<g clip-path="url(#a)">
<g transform="translate(878.39 638.35) scale(.1 -.1)">
<use xlink:href="#j"/>
<use x="27.783203" xlink:href="#ag"/>
<use x="91.259766" xlink:href="#g"/>
<use x="154.638672" xlink:href="#y"/>
<use x="215.820312" xlink:href="#h"/>
<use x="256.933594" xlink:href="#j"/>
<use x="284.716797" xlink:href="#g"/>
<use x="348.095703" xlink:href="#ag"/>
</g>
</g>
<g clip-path="url(#a)">
<g transform="translate(934.12 638.35) scale(.1 -.1)">
<use xlink:href="#p"/>
<use x="39.208984" xlink:href="#t"/>
<use x="102.587891" xlink:href="#j"/>
<use x="130.371094" xlink:href="#x"/>
</g>
</g>
<g clip-path="url(#a)">
<g transform="translate(962.6 638.35) scale(.1 -.1)">
<use xlink:href="#ao"/>
<use x="63.476562" xlink:href="#ae"/>
<use x="126.855469" xlink:href="#k"/>
<use x="224.267578" xlink:href="#k"/>
<use x="321.679688" xlink:href="#y"/>
<use x="382.861328" xlink:href="#g"/>
<use x="446.240234" xlink:href="#x"/>
</g>
</g>
<g clip-path="url(#a)">
<g transform="translate(1026.8 638.35) scale(.1 -.1)">
<use xlink:href="#p"/>
<use x="39.208984" xlink:href="#y"/>
</g>
</g>
<g clip-path="url(#a)">
<g transform="translate(1058.1 638.35) scale(.1 -.1)">
<use xlink:href="#m"/>
<use x="68.408203" xlink:href="#af"/>
<use x="131.884766" xlink:href="#af"/>
<use x="195.361328" xlink:href="#d"/>
<use x="256.884766" xlink:href="#f"/>
<use x="318.164062" xlink:href="#h"/>
</g>
</g>
<g clip-path="url(#a)">
<defs>
<path id="at" d="m15.094 12.406h9.9062v-12.406h-9.9062zm0 60.5h9.9062v-31.984l-0.96875-17.438h-7.9219l-1.0156 17.438z"/>
</defs>
<g transform="translate(1118.3 638.35) scale(.1 -.1)">
<use xlink:href="#at"/>
</g>
</g>
<g clip-path="url(#a)">
<defs>
<path id="c" d="m12.406 8.2969h16.109v55.625l-17.531-3.5156v8.9844l17.438 3.5156h9.8594v-64.609h16.109v-8.2969h-41.984z"/>
<path id="e" d="m10.688 12.406h10.312v-12.406h-10.312z"/>
</defs>
<g transform="translate(538.26 33.837) scale(.1 -.1)">
<use xlink:href="#c"/>
<use x="63.623047" xlink:href="#e"/>
<use x="95.410156" xlink:href="#c"/>
</g>
</g>
<g clip-path="url(#a)">
<defs>
<path id="o" d="m19.188 8.2969h34.422v-8.2969h-46.281v8.2969q5.6094 5.8125 15.297 15.594 9.7031 9.7969 12.188 12.641 4.7344 5.3125 6.6094 9 1.8906 3.6875 1.8906 7.25 0 5.8125-4.0781 9.4688-4.0781 3.6719-10.625 3.6719-4.6406 0-9.7969-1.6094-5.1406-1.6094-11-4.8906v9.9688q5.9531 2.3906 11.125 3.6094 5.1875 1.2188 9.4844 1.2188 11.328 0 18.062-5.6719 6.7344-5.6562 6.7344-15.125 0-4.5-1.6875-8.5312-1.6719-4.0156-6.125-9.4844-1.2188-1.4219-7.7656-8.1875-6.5312-6.7656-18.453-18.922z"/>
</defs>
<g transform="translate(394.18 303.28) scale(.1 -.1)">
<use xlink:href="#c"/>
<use x="63.623047" xlink:href="#e"/>
<use x="95.410156" xlink:href="#o"/>
</g>
</g>
<g clip-path="url(#a)">
<defs>
<path id="n" d="m40.578 39.312q7.0781-1.5156 11.047-6.3125 3.9844-4.7812 3.9844-11.812 0-10.781-7.4219-16.703-7.4219-5.9062-21.094-5.9062-4.5781 0-9.4375 0.90625t-10.031 2.7188v9.5156q4.0938-2.3906 8.9688-3.6094 4.8906-1.2188 10.219-1.2188 9.2656 0 14.125 3.6562t4.8594 10.641q0 6.4531-4.5156 10.078-4.5156 3.6406-12.562 3.6406h-8.5v8.1094h8.8906q7.2656 0 11.125 2.9062t3.8594 8.375q0 5.6094-3.9844 8.6094-3.9688 3.0156-11.391 3.0156-4.0625 0-8.7031-0.89062-4.6406-0.875-10.203-2.7188v8.7812q5.625 1.5625 10.531 2.3438t9.25 0.78125q11.234 0 17.766-5.1094 6.5469-5.0938 6.5469-13.781 0-6.0625-3.4688-10.234t-9.8594-5.7812z"/>
</defs>
<g transform="translate(536.84 555.56) scale(.1 -.1)">
<use xlink:href="#c"/>
<use x="63.623047" xlink:href="#e"/>
<use x="95.410156" xlink:href="#n"/>
</g>
</g>
<g clip-path="url(#a)">
<defs>
<path id="s" d="m37.797 64.312-24.906-38.922h24.906zm-2.5938 8.5938h12.406v-47.516h10.406v-8.2031h-10.406v-17.188h-9.8125v17.188h-32.906v9.5156z"/>
</defs>
<g transform="translate(729.45 126.05) scale(.1 -.1)">
<use xlink:href="#c"/>
<use x="63.623047" xlink:href="#e"/>
<use x="95.410156" xlink:href="#s"/>
</g>
</g>
<g clip-path="url(#a)">
<defs>
<path id="ak" d="m33.016 40.375q-6.6406 0-10.531-4.5469-3.875-4.5312-3.875-12.438 0-7.8594 3.875-12.438 3.8906-4.5625 10.531-4.5625t10.516 4.5625q3.875 4.5781 3.875 12.438 0 7.9062-3.875 12.438-3.875 4.5469-10.516 4.5469zm19.578 30.922v-8.9844q-3.7188 1.75-7.5 2.6719-3.7812 0.9375-7.5 0.9375-9.7656 0-14.922-6.5938-5.1406-6.5938-5.875-19.922 2.875 4.25 7.2188 6.5156 4.3594 2.2656 9.5781 2.2656 10.984 0 17.359-6.6719 6.375-6.6562 6.375-18.125 0-11.234-6.6406-18.031-6.6406-6.7812-17.672-6.7812-12.656 0-19.344 9.6875-6.6875 9.7031-6.6875 28.109 0 17.281 8.2031 27.562t22.016 10.281q3.7188 0 7.5-0.73438t7.8906-2.1875z"/>
</defs>
<g transform="translate(603.25 472.78) scale(.1 -.1)">
<use xlink:href="#c"/>
<use x="63.623047" xlink:href="#e"/>
<use x="95.410156" xlink:href="#ak"/>
</g>
</g>
<g clip-path="url(#a)">
<defs>
<path id="aj" d="m8.2031 72.906h46.875v-4.2031l-26.469-68.703h-10.297l24.906 64.594h-35.016z"/>
</defs>
<g transform="translate(669.65 555.56) scale(.1 -.1)">
<use xlink:href="#c"/>
<use x="63.623047" xlink:href="#e"/>
<use x="95.410156" xlink:href="#aj"/>
</g>
</g>
<g clip-path="url(#a)">
<defs>
<path id="ac" d="m31.781 34.625q-7.0312 0-11.062-3.7656-4.0156-3.7656-4.0156-10.344 0-6.5938 4.0156-10.359 4.0312-3.7656 11.062-3.7656t11.078 3.7812q4.0625 3.7969 4.0625 10.344 0 6.5781-4.0312 10.344-4.0156 3.7656-11.109 3.7656zm-9.8594 4.1875q-6.3438 1.5625-9.8906 5.9062-3.5312 4.3594-3.5312 10.609 0 8.7344 6.2188 13.812 6.2344 5.0781 17.062 5.0781 10.891 0 17.094-5.0781t6.2031-13.812q0-6.25-3.5469-10.609-3.5312-4.3438-9.8281-5.9062 7.125-1.6562 11.094-6.5 3.9844-4.8281 3.9844-11.797 0-10.609-6.4688-16.281-6.4688-5.6562-18.531-5.6562-12.047 0-18.531 5.6562-6.4688 5.6719-6.4688 16.281 0 6.9688 4 11.797 4.0156 4.8438 11.141 6.5zm-3.6094 15.578q0-5.6562 3.5312-8.8281 3.5469-3.1719 9.9375-3.1719 6.3594 0 9.9375 3.1719 3.5938 3.1719 3.5938 8.8281 0 5.6719-3.5938 8.8438-3.5781 3.1719-9.9375 3.1719-6.3906 0-9.9375-3.1719-3.5312-3.1719-3.5312-8.8438z"/>
</defs>
<g transform="translate(713.93 555.56) scale(.1 -.1)">
<use xlink:href="#c"/>
<use x="63.623047" xlink:href="#e"/>
<use x="95.410156" xlink:href="#ac"/>
</g>
</g>
<g clip-path="url(#a)">
<defs>
<path id="ab" d="m10.984 1.5156v8.9844q3.7188-1.7656 7.5156-2.6875 3.8125-0.92188 7.4844-0.92188 9.7656 0 14.906 6.5625 5.1562 6.5625 5.8906 19.953-2.8281-4.2031-7.1875-6.4531-4.3438-2.25-9.6094-2.25-10.938 0-17.312 6.6094-6.375 6.625-6.375 18.109 0 11.219 6.6406 18 6.6406 6.7969 17.672 6.7969 12.656 0 19.312-9.7031 6.6719-9.6875 6.6719-28.141 0-17.234-8.1875-27.516-8.1719-10.281-21.984-10.281-3.7188 0-7.5312 0.73438-3.7969 0.73438-7.9062 2.2031zm19.625 30.906q6.6406 0 10.516 4.5312 3.8906 4.5469 3.8906 12.469 0 7.8594-3.8906 12.422-3.875 4.5625-10.516 4.5625t-10.516-4.5625-3.875-12.422q0-7.9219 3.875-12.469 3.875-4.5312 10.516-4.5312z"/>
</defs>
<g transform="translate(758.2 555.56) scale(.1 -.1)">
<use xlink:href="#c"/>
<use x="63.623047" xlink:href="#e"/>
<use x="95.410156" xlink:href="#ab"/>
</g>
</g>
<g clip-path="url(#a)">
<defs>
<path id="ad" d="m31.781 66.406q-7.6094 0-11.453-7.5-3.8281-7.4844-3.8281-22.531 0-14.984 3.8281-22.484 3.8438-7.5 11.453-7.5 7.6719 0 11.5 7.5 3.8438 7.5 3.8438 22.484 0 15.047-3.8438 22.531-3.8281 7.5-11.5 7.5zm0 7.8125q12.266 0 18.734-9.7031 6.4688-9.6875 6.4688-28.141 0-18.406-6.4688-28.109-6.4688-9.6875-18.734-9.6875-12.25 0-18.719 9.6875-6.4688 9.7031-6.4688 28.109 0 18.453 6.4688 28.141 6.4688 9.7031 18.719 9.7031z"/>
</defs>
<g transform="translate(799.29 555.56) scale(.1 -.1)">
<use xlink:href="#c"/>
<use x="63.623047" xlink:href="#e"/>
<use x="95.410156" xlink:href="#c"/>
<use x="159.033203" xlink:href="#ad"/>
</g>
</g>
<g clip-path="url(#a)">
<g transform="translate(826.04 215.78) scale(.1 -.1)">
<use xlink:href="#c"/>
<use x="63.623047" xlink:href="#e"/>
<use x="95.410156" xlink:href="#c"/>
<use x="159.033203" xlink:href="#c"/>
</g>
</g>
<g clip-path="url(#a)">
<g transform="translate(843.56 555.56) scale(.1 -.1)">
<use xlink:href="#c"/>
<use x="63.623047" xlink:href="#e"/>
<use x="95.410156" xlink:href="#c"/>
<use x="159.033203" xlink:href="#o"/>
</g>
</g>
<g clip-path="url(#a)">
<g transform="translate(887.83 555.56) scale(.1 -.1)">
<use xlink:href="#c"/>
<use x="63.623047" xlink:href="#e"/>
<use x="95.410156" xlink:href="#c"/>
<use x="159.033203" xlink:href="#n"/>
</g>
</g>
<g clip-path="url(#a)">
<g transform="translate(950.55 303.28) scale(.1 -.1)">
<use xlink:href="#c"/>
<use x="63.623047" xlink:href="#e"/>
<use x="95.410156" xlink:href="#c"/>
<use x="159.033203" xlink:href="#s"/>
</g>
</g>
<g clip-path="url(#a)">
<defs>
<path id="al" d="m10.797 72.906h38.719v-8.3125h-29.688v-17.859q2.1406 0.73438 4.2812 1.0938 2.1562 0.35938 4.3125 0.35938 12.203 0 19.328-6.6875 7.1406-6.6875 7.1406-18.109 0-11.766-7.3281-18.297-7.3281-6.5156-20.656-6.5156-4.5938 0-9.3594 0.78125-4.75 0.78125-9.8281 2.3438v9.9219q4.3906-2.3906 9.0781-3.5625t9.9062-1.1719q8.4531 0 13.375 4.4375 4.9375 4.4375 4.9375 12.062 0 7.6094-4.9375 12.047-4.9219 4.4531-13.375 4.4531-3.9531 0-7.8906-0.875-3.9219-0.875-8.0156-2.7344z"/>
</defs>
<g transform="translate(954.24 472.78) scale(.1 -.1)">
<use xlink:href="#c"/>
<use x="63.623047" xlink:href="#e"/>
<use x="95.410156" xlink:href="#c"/>
<use x="159.033203" xlink:href="#al"/>
</g>
</g>
<g clip-path="url(#a)">
<g transform="translate(946.86 388.84) scale(.1 -.1)">
<use xlink:href="#c"/>
<use x="63.623047" xlink:href="#e"/>
<use x="95.410156" xlink:href="#c"/>
<use x="159.033203" xlink:href="#ak"/>
</g>
</g>
<g clip-path="url(#a)">
<defs>
<path id="v" d="m9.8125 72.906h9.8594v-72.906h-9.8594z"/>
<path id="ap" d="m9.8125 72.906h14.703l18.594-49.609 18.703 49.609h14.703v-72.906h-9.625v64.016l-18.797-50h-9.9062l-18.797 50v-64.016h-9.5781z"/>
</defs>
<g transform="translate(1143.5 638.35) scale(.1 -.1)">
<use xlink:href="#v"/>
<use x="29.492188" xlink:href="#ap"/>
<use x="115.771484" xlink:href="#q"/>
<use x="176.074219" xlink:href="#u"/>
<use x="231.787109" xlink:href="#v"/>
<use x="261.279297" xlink:href="#r"/>
<use x="331.103516" xlink:href="#v"/>
<use x="360.595703" xlink:href="#l"/>
</g>
</g>
<g clip-path="url(#a)">
<g transform="translate(1064.9 472.78) scale(.1 -.1)">
<use xlink:href="#c"/>
<use x="63.623047" xlink:href="#e"/>
<use x="95.410156" xlink:href="#c"/>
<use x="159.033203" xlink:href="#ac"/>
</g>
</g>
<g clip-path="url(#a)">
<g transform="translate(1020.7 555.56) scale(.1 -.1)">
<use xlink:href="#c"/>
<use x="63.623047" xlink:href="#e"/>
<use x="95.410156" xlink:href="#c"/>
<use x="159.033203" xlink:href="#ab"/>
</g>
</g>
<g clip-path="url(#a)">
<g transform="translate(1064.9 555.56) scale(.1 -.1)">
<use xlink:href="#c"/>
<use x="63.623047" xlink:href="#e"/>
<use x="95.410156" xlink:href="#o"/>
<use x="159.033203" xlink:href="#ad"/>
</g>
</g>
<g clip-path="url(#a)">
<g transform="translate(932.11 555.56) scale(.1 -.1)">
<use xlink:href="#c"/>
<use x="63.623047" xlink:href="#e"/>
<use x="95.410156" xlink:href="#o"/>
<use x="159.033203" xlink:href="#o"/>
</g>
</g>
<g clip-path="url(#a)">
<g transform="translate(976.38 555.56) scale(.1 -.1)">
<use xlink:href="#c"/>
<use x="63.623047" xlink:href="#e"/>
<use x="95.410156" xlink:href="#o"/>
<use x="159.033203" xlink:href="#n"/>
</g>
</g>
<g clip-path="url(#a)">
<g transform="translate(577.93 555.56) scale(.1 -.1)">
<use xlink:href="#c"/>
<use x="63.623047" xlink:href="#e"/>
<use x="95.410156" xlink:href="#o"/>
<use x="159.033203" xlink:href="#s"/>
</g>
</g>
<g clip-path="url(#a)">
<g transform="translate(622.2 555.56) scale(.1 -.1)">
<use xlink:href="#c"/>
<use x="63.623047" xlink:href="#e"/>
<use x="95.410156" xlink:href="#o"/>
<use x="159.033203" xlink:href="#al"/>
</g>
</g>
<g clip-path="url(#a)">
<g transform="translate(1187.8 638.35) scale(.1 -.1)">
<use xlink:href="#v"/>
<use x="29.492188" xlink:href="#ap"/>
<use x="115.771484" xlink:href="#q"/>
<use x="176.074219" xlink:href="#u"/>
<use x="231.787109" xlink:href="#v"/>
<use x="261.279297" xlink:href="#r"/>
<use x="331.103516" xlink:href="#v"/>
<use x="360.595703" xlink:href="#l"/>
</g>
</g>
<g clip-path="url(#a)">
<g transform="translate(98.312 388.84) scale(.1 -.1)">
<use xlink:href="#c"/>
<use x="63.623047" xlink:href="#e"/>
<use x="95.410156" xlink:href="#o"/>
<use x="159.033203" xlink:href="#aj"/>
</g>
</g>
<g clip-path="url(#a)">
<g transform="translate(179.48 555.56) scale(.1 -.1)">
<use xlink:href="#c"/>
<use x="63.623047" xlink:href="#e"/>
<use x="95.410156" xlink:href="#o"/>
<use x="159.033203" xlink:href="#ac"/>
</g>
</g>
<g clip-path="url(#a)">
<g transform="translate(223.75 555.56) scale(.1 -.1)">
<use xlink:href="#c"/>
<use x="63.623047" xlink:href="#e"/>
<use x="95.410156" xlink:href="#o"/>
<use x="159.033203" xlink:href="#ab"/>
</g>
</g>
<g clip-path="url(#a)">
<g transform="translate(268.02 555.56) scale(.1 -.1)">
<use xlink:href="#c"/>
<use x="63.623047" xlink:href="#e"/>
<use x="95.410156" xlink:href="#n"/>
<use x="159.033203" xlink:href="#ad"/>
</g>
</g>
<g clip-path="url(#a)">
<g transform="translate(378.7 472.78) scale(.1 -.1)">
<use xlink:href="#c"/>
<use x="63.623047" xlink:href="#e"/>
<use x="95.410156" xlink:href="#n"/>
<use x="159.033203" xlink:href="#c"/>
</g>
</g>
<g clip-path="url(#a)">
<g transform="translate(312.29 555.56) scale(.1 -.1)">
<use xlink:href="#c"/>
<use x="63.623047" xlink:href="#e"/>
<use x="95.410156" xlink:href="#n"/>
<use x="159.033203" xlink:href="#o"/>
</g>
</g>
<g clip-path="url(#a)">
<g transform="translate(356.57 555.56) scale(.1 -.1)">
<use xlink:href="#c"/>
<use x="63.623047" xlink:href="#e"/>
<use x="95.410156" xlink:href="#n"/>
<use x="159.033203" xlink:href="#n"/>
</g>
</g>
<g clip-path="url(#a)">
<g transform="translate(400.84 555.56) scale(.1 -.1)">
<use xlink:href="#c"/>
<use x="63.623047" xlink:href="#e"/>
<use x="95.410156" xlink:href="#n"/>
<use x="159.033203" xlink:href="#s"/>
</g>
</g>
<g clip-path="url(#a)">
<g transform="translate(445.11 555.56) scale(.1 -.1)">
<use xlink:href="#c"/>
<use x="63.623047" xlink:href="#e"/>
<use x="95.410156" xlink:href="#n"/>
<use x="159.033203" xlink:href="#al"/>
</g>
</g>
<g clip-path="url(#a)">
<g transform="translate(46.661 555.56) scale(.1 -.1)">
<use xlink:href="#c"/>
<use x="63.623047" xlink:href="#e"/>
<use x="95.410156" xlink:href="#n"/>
<use x="159.033203" xlink:href="#ak"/>
</g>
</g>
<g clip-path="url(#a)">
<g transform="translate(113.07 472.78) scale(.1 -.1)">
<use xlink:href="#c"/>
<use x="63.623047" xlink:href="#e"/>
<use x="95.410156" xlink:href="#n"/>
<use x="159.033203" xlink:href="#aj"/>
</g>
</g>
<g clip-path="url(#a)">
<g transform="translate(135.21 555.56) scale(.1 -.1)">
<use xlink:href="#c"/>
<use x="63.623047" xlink:href="#e"/>
<use x="95.410156" xlink:href="#n"/>
<use x="159.033203" xlink:href="#ac"/>
</g>
</g>
<g clip-path="url(#a)">
<g transform="translate(90.933 555.56) scale(.1 -.1)">
<use xlink:href="#c"/>
<use x="63.623047" xlink:href="#e"/>
<use x="95.410156" xlink:href="#n"/>
<use x="159.033203" xlink:href="#ab"/>
</g>
</g>
<g clip-path="url(#a)">
<g transform="translate(550.31 33.837) scale(.1 -.1)">
<use xlink:href="#c"/>
<use x="63.623047" xlink:href="#e"/>
<use x="95.410156" xlink:href="#s"/>
<use x="159.033203" xlink:href="#ad"/>
</g>
</g>
<g clip-path="url(#a)">
<g transform="translate(489.38 555.56) scale(.1 -.1)">
<use xlink:href="#c"/>
<use x="63.623047" xlink:href="#e"/>
<use x="95.410156" xlink:href="#s"/>
<use x="159.033203" xlink:href="#c"/>
</g>
</g>
<g clip-path="url(#a)">
<g transform="translate(1109.2 555.56) scale(.1 -.1)">
<use xlink:href="#c"/>
<use x="63.623047" xlink:href="#e"/>
<use x="95.410156" xlink:href="#s"/>
<use x="159.033203" xlink:href="#o"/>
</g>
</g>
<defs>
<clipPath id="a">
<rect width="1266.7" height="666.67"/>
</clipPath>
</defs>
</svg>
