<?xml version="1.0" encoding="UTF-8"?>
<!DOCTYPE svg  PUBLIC '-//W3C//DTD SVG 1.1//EN'  'http://www.w3.org/Graphics/SVG/1.1/DTD/svg11.dtd'>
<svg width="1165.3pt" height="613.33pt" version="1.1" viewBox="0 0 1165.3 613.33" xmlns="http://www.w3.org/2000/svg" xmlns:xlink="http://www.w3.org/1999/xlink">
<defs>
<style type="text/css">*{stroke-linecap:butt;stroke-linejoin:round;}</style>
</defs>
<path d="m0 613.33h1165.3v-613.33h-1165.3z" fill="#fff"/>
<g fill="none" stroke="#000">
<path d="m521.5 28.985-251.68 115" clip-path="url(#a)"/>
<path d="m521.5 28.985 13.035 446.56" clip-path="url(#a)"/>
<path d="m521.5 28.985 273.74 227.44" clip-path="url(#a)"/>
<path d="m521.5 28.985-35.095 446.56" clip-path="url(#a)"/>
<path d="m269.82 143.99-120.33 112.44" clip-path="url(#a)"/>
<path d="m269.82 143.99-24.065 331.56" clip-path="url(#a)"/>
<path d="m269.82 143.99 24.065 331.56" clip-path="url(#a)"/>
<path d="m269.82 143.99 120.33 222.76" clip-path="url(#a)"/>
<path d="m534.54 475.55v108.8" clip-path="url(#a)"/>
<path d="m795.24 256.43-164.45 110.32" clip-path="url(#a)"/>
<path d="m795.24 256.43-164.45 219.12" clip-path="url(#a)"/>
<path d="m795.24 256.43 28.076 219.12" clip-path="url(#a)"/>
<path d="m795.24 256.43 244.67 110.32" clip-path="url(#a)"/>
<path d="m795.24 256.43-68.185 219.12" clip-path="url(#a)"/>
<path d="m795.24 256.43 124.34 219.12" clip-path="url(#a)"/>
<path d="m630.8 366.74-48.131 108.8" clip-path="url(#a)"/>
<path d="m630.8 366.74 48.131 108.8" clip-path="url(#a)"/>
<path d="m630.8 475.55v108.8" clip-path="url(#a)"/>
<path d="m823.32 475.55-48.131 108.8" clip-path="url(#a)"/>
<path d="m823.32 475.55v108.8" clip-path="url(#a)"/>
<path d="m823.32 475.55 48.131 108.8" clip-path="url(#a)"/>
<path d="m1039.9 366.74-72.196 108.8" clip-path="url(#a)"/>
<path d="m1039.9 366.74-24.065 108.8" clip-path="url(#a)"/>
<path d="m1039.9 366.74 24.065 108.8" clip-path="url(#a)"/>
<path d="m1039.9 366.74 72.196 108.8" clip-path="url(#a)"/>
<path d="m967.71 475.55v108.8" clip-path="url(#a)"/>
<path d="m1015.8 475.55v108.8" clip-path="url(#a)"/>
<path d="m1064 475.55v108.8" clip-path="url(#a)"/>
<path d="m582.67 475.55v108.8" clip-path="url(#a)"/>
<path d="m678.93 475.55v108.8" clip-path="url(#a)"/>
<path d="m149.49 256.43-48.131 110.32" clip-path="url(#a)"/>
<path d="m149.49 256.43 48.131 219.12" clip-path="url(#a)"/>
<path d="m245.75 475.55v108.8" clip-path="url(#a)"/>
<path d="m293.88 475.55v108.8" clip-path="url(#a)"/>
<path d="m390.14 366.74-48.131 108.8" clip-path="url(#a)"/>
<path d="m390.14 366.74v108.8" clip-path="url(#a)"/>
<path d="m390.14 366.74 48.131 108.8" clip-path="url(#a)"/>
<path d="m342.01 475.55v108.8" clip-path="url(#a)"/>
<path d="m390.14 475.55v108.8" clip-path="url(#a)"/>
<path d="m438.27 475.55v108.8" clip-path="url(#a)"/>
<path d="m101.36 366.74-48.131 108.8" clip-path="url(#a)"/>
<path d="m101.36 366.74v108.8" clip-path="url(#a)"/>
<path d="m101.36 366.74 48.131 108.8" clip-path="url(#a)"/>
<path d="m197.62 475.55v108.8" clip-path="url(#a)"/>
<path d="m53.227 475.55v108.8" clip-path="url(#a)"/>
<path d="m101.36 475.55v108.8" clip-path="url(#a)"/>
<path d="m149.49 475.55v108.8" clip-path="url(#a)"/>
<path d="m486.4 475.55v108.8" clip-path="url(#a)"/>
<path d="m727.06 475.55v108.8" clip-path="url(#a)"/>
<path d="m919.58 475.55v108.8" clip-path="url(#a)"/>
<path d="m1112.1 475.55v108.8" clip-path="url(#a)"/>
</g>
<path d="m395.53 93.44 5.4721-2.5004q2.1829-0.99744 1.1855-3.1804l-3.2178-7.0422q-0.99744-2.1829-3.1804-1.1855l-5.4721 2.5004q-2.1829 0.99744-1.1855 3.1804l3.2178 7.0422q0.99744 2.1829 3.1804 1.1855z" clip-path="url(#a)" fill="#fff" stroke="#fff"/>
<g clip-path="url(#a)">
<defs>
<path id="ag" d="m9.8125 72.906h9.8594v-29.891h35.844v29.891h9.8594v-72.906h-9.8594v34.719h-35.844v-34.719h-9.8594z"/>
</defs>
<g transform="translate(393.84 89.744) rotate(-24.557) scale(.08 -.08)">
<use xlink:href="#ag"/>
</g>
</g>
<path d="m521.68 250.22 0.13006 4.4556q0.070028 2.399 2.469 2.329l7.7392-0.22591q2.399-0.070028 2.329-2.469l-0.13006-4.4556q-0.070028-2.399-2.469-2.329l-7.7392 0.22591q-2.399 0.070028-2.329 2.469z" clip-path="url(#a)" fill="#fff" stroke="#fff"/>
<g clip-path="url(#a)">
<defs>
<path id="ap" d="m9.8125 72.906h9.8594v-64.609h35.5v-8.2969h-45.359z"/>
</defs>
<g transform="translate(525.75 250.1) rotate(88.328) scale(.08 -.08)">
<use xlink:href="#ap"/>
</g>
</g>
<path d="m652.05 145.61 4.6274 3.8447q1.846 1.5337 3.3797-0.31223l4.9479-5.9552q1.5337-1.846-0.31223-3.3797l-4.6274-3.8447q-1.846-1.5337-3.3797 0.31223l-4.9479 5.9552q-1.5337 1.846 0.31223 3.3797z" clip-path="url(#a)" fill="#fff" stroke="#fff"/>
<g clip-path="url(#a)">
<g transform="translate(654.65 142.48) rotate(39.722) scale(.08 -.08)">
<use xlink:href="#ag"/>
</g>
</g>
<path d="m509.98 255.68 0.45873-5.837q0.18804-2.3926-2.2046-2.5807l-7.7187-0.60662q-2.3926-0.18804-2.5807 2.2046l-0.45873 5.837q-0.18804 2.3926 2.2046 2.5807l7.7187 0.60662q2.3926 0.18804 2.5807-2.2046z" clip-path="url(#a)" fill="#fff" stroke="#fff"/>
<g clip-path="url(#a)">
<defs>
<path id="t" d="m8.6875 72.906h9.9219v-44.297q0-11.719 4.2344-16.875 4.25-5.1406 13.781-5.1406 9.4688 0 13.719 5.1406 4.25 5.1562 4.25 16.875v44.297h9.9062v-45.516q0-14.25-7.0625-21.531-7.0469-7.2812-20.812-7.2812-13.828 0-20.891 7.2812-7.0469 7.2812-7.0469 21.531z"/>
</defs>
<g transform="translate(505.92 255.36) rotate(-85.506) scale(.08 -.08)">
<use xlink:href="#t"/>
</g>
</g>
<path d="m211.94 206.66 3.9985-3.7364q1.7536-1.6386 0.11494-3.3922l-5.2862-5.657q-1.6386-1.7536-3.3922-0.11494l-3.9985 3.7364q-1.7536 1.6386-0.11494 3.3922l5.2862 5.657q1.6386 1.7536 3.3922 0.11494z" clip-path="url(#a)" fill="#fff" stroke="#fff"/>
<g clip-path="url(#a)">
<defs>
<path id="v" d="m34.188 63.188-13.391-36.281h26.812zm-5.5781 9.7188h11.188l27.781-72.906h-10.25l-6.6406 18.703h-32.859l-6.6406-18.703h-10.406z"/>
</defs>
<g transform="translate(209.16 203.69) rotate(-43.059) scale(.08 -.08)">
<use xlink:href="#v"/>
</g>
</g>
<path d="m263.87 312.52 0.33309-4.5892q0.17374-2.3937-2.22-2.5674l-7.7222-0.5605q-2.3937-0.17374-2.5674 2.22l-0.3331 4.5892q-0.17374 2.3937 2.22 2.5674l7.7222 0.5605q2.3937 0.17374 2.5674-2.22z" clip-path="url(#a)" fill="#fff" stroke="#fff"/>
<g clip-path="url(#a)">
<defs>
<path id="as" d="m9.8125 72.906h41.891v-8.3125h-32.031v-21.484h28.906v-8.2969h-28.906v-34.812h-9.8594z"/>
</defs>
<g transform="translate(259.82 312.22) rotate(-85.849) scale(.08 -.08)">
<use xlink:href="#as"/>
</g>
</g>
<path d="m275.42 307.81 0.3492 4.8111q0.17374 2.3937 2.5674 2.22l7.7222-0.5605q2.3937-0.17374 2.22-2.5674l-0.3492-4.8111q-0.17374-2.3937-2.5674-2.22l-7.7222 0.5605q-2.3937 0.17374-2.22 2.5674z" clip-path="url(#a)" fill="#fff" stroke="#fff"/>
<g clip-path="url(#a)">
<defs>
<path id="ao" d="m19.672 64.797v-27.391h12.406q6.8906 0 10.641 3.5625 3.7656 3.5625 3.7656 10.156 0 6.5469-3.7656 10.109-3.75 3.5625-10.641 3.5625zm-9.8594 8.1094h22.266q12.266 0 18.531-5.5469 6.2812-5.5469 6.2812-16.234 0-10.797-6.2812-16.312-6.2656-5.5156-18.531-5.5156h-12.406v-29.297h-9.8594z"/>
</defs>
<g transform="translate(279.47 307.52) rotate(85.849) scale(.08 -.08)">
<use xlink:href="#ao"/>
</g>
</g>
<path d="m323.16 255.94 2.6009 4.8149q1.1406 2.1116 3.2523 0.97098l6.8122-3.6798q2.1116-1.1406 0.97098-3.2523l-2.6009-4.8149q-1.1406-2.1116-3.2523-0.97098l-6.8122 3.6798q-2.1116 1.1406-0.97098 3.2523z" clip-path="url(#a)" fill="#fff" stroke="#fff"/>
<g clip-path="url(#a)">
<g transform="translate(326.74 254.01) rotate(61.623) scale(.08 -.08)">
<use xlink:href="#v"/>
</g>
</g>
<path d="m528.26 512.3v35.285q0 2.4 2.4 2.4h7.7425q2.4 0 2.4-2.4v-35.285q0-2.4-2.4-2.4h-7.7425q-2.4 0-2.4 2.4z" clip-path="url(#a)" fill="#fff" stroke="#fff"/>
<g clip-path="url(#a)">
<defs>
<path id="l" d="m-0.29688 72.906h61.672v-8.3125h-25.875v-64.594h-9.9062v64.594h-25.891z"/>
<path id="e" d="m56.203 29.594v-4.3906h-41.312q0.59375-9.2812 5.5938-14.141t13.938-4.8594q5.1719 0 10.031 1.2656t9.6562 3.8125v-8.5q-4.8438-2.0469-9.9219-3.125t-10.297-1.0781q-13.094 0-20.734 7.6094-7.6406 7.625-7.6406 20.625 0 13.422 7.25 21.297 7.25 7.8906 19.562 7.8906 11.031 0 17.453-7.1094 6.4219-7.0938 6.4219-19.297zm-8.9844 2.6406q-0.09375 7.3594-4.125 11.75-4.0312 4.4062-10.672 4.4062-7.5156 0-12.031-4.25t-5.2031-11.969z"/>
<path id="g" d="m41.109 46.297q-1.5156 0.875-3.2969 1.2812-1.7812 0.42188-3.9219 0.42188-7.625 0-11.703-4.9531t-4.0781-14.234v-28.812h-9.0312v54.688h9.0312v-8.5q2.8438 4.9844 7.375 7.3906 4.5469 2.4219 11.047 2.4219 0.92188 0 2.0469-0.125 1.125-0.10938 2.4844-0.35938z"/>
<path id="j" d="m52 44.188q3.375 6.0625 8.0625 8.9375t11.031 2.875q8.5469 0 13.188-5.9844 4.6406-5.9688 4.6406-17v-33.016h-9.0312v32.719q0 7.8594-2.7969 11.656-2.7812 3.8125-8.4844 3.8125-6.9844 0-11.047-4.6406-4.0469-4.625-4.0469-12.641v-30.906h-9.0312v32.719q0 7.9062-2.7812 11.688t-8.5938 3.7812q-6.8906 0-10.953-4.6562-4.0469-4.6562-4.0469-12.625v-30.906h-9.0312v54.688h9.0312v-8.5q3.0781 5.0312 7.375 7.4219t10.203 2.3906q5.9688 0 10.141-3.0312 4.1719-3.0156 6.1719-8.7812z"/>
<path id="h" d="m9.4219 54.688h8.9844v-54.688h-8.9844zm0 21.297h8.9844v-11.391h-8.9844z"/>
<path id="i" d="m54.891 33.016v-33.016h-8.9844v32.719q0 7.7656-3.0312 11.609-3.0312 3.8594-9.0781 3.8594-7.2812 0-11.484-4.6406-4.2031-4.625-4.2031-12.641v-30.906h-9.0312v54.688h9.0312v-8.5q3.2344 4.9375 7.5938 7.375 4.375 2.4375 10.094 2.4375 9.4219 0 14.25-5.8281 4.8438-5.8281 4.8438-17.156z"/>
<path id="d" d="m34.281 27.484q-10.891 0-15.094-2.4844t-4.2031-8.5q0-4.7812 3.1562-7.5938 3.1562-2.7969 8.5625-2.7969 7.4844 0 12 5.2969t4.5156 14.078v2zm17.922 3.7188v-31.203h-8.9844v8.2969q-3.0781-4.9688-7.6719-7.3438t-11.234-2.375q-8.3906 0-13.359 4.7188-4.9531 4.7188-4.9531 12.625 0 9.2188 6.1719 13.906 6.1875 4.6875 18.438 4.6875h12.609v0.89062q0 6.2031-4.0781 9.5938t-11.453 3.3906q-4.6875 0-9.1406-1.125-4.4375-1.125-8.5312-3.375v8.3125q4.9219 1.9062 9.5625 2.8438 4.6406 0.95312 9.0312 0.95312 11.875 0 17.734-6.1562 5.8594-6.1406 5.8594-18.641z"/>
<path id="k" d="m9.4219 75.984h8.9844v-75.984h-8.9844z"/>
</defs>
<g transform="translate(532.33 512.3) rotate(90) scale(.08 -.08)">
<use xlink:href="#l"/>
<use x="60.818359" xlink:href="#e"/>
<use x="122.341797" xlink:href="#g"/>
<use x="163.439453" xlink:href="#j"/>
<use x="260.851562" xlink:href="#h"/>
<use x="288.634766" xlink:href="#i"/>
<use x="352.013672" xlink:href="#d"/>
<use x="413.292969" xlink:href="#k"/>
</g>
</g>
<path d="m714.41 318.21 4.2177-2.8293q1.9931-1.337 0.65606-3.3301l-4.3133-6.4298q-1.337-1.9931-3.3301-0.65606l-4.2177 2.8293q-1.9931 1.337-0.65606 3.3301l4.3133 6.4298q1.337 1.9931 3.3301 0.65606z" clip-path="url(#a)" fill="#fff" stroke="#fff"/>
<g clip-path="url(#a)">
<defs>
<path id="an" d="m53.516 70.516v-9.625q-5.6094 2.6875-10.594 4-4.9844 1.3281-9.625 1.3281-8.0469 0-12.422-3.125t-4.375-8.8906q0-4.8438 2.9062-7.3125 2.9062-2.4531 11.016-3.9688l5.9531-1.2188q11.031-2.1094 16.281-7.4062t5.25-14.172q0-10.609-7.1094-16.078-7.0938-5.4688-20.812-5.4688-5.1719 0-11.016 1.1719-5.8281 1.1719-12.078 3.4688v10.156q6-3.3594 11.766-5.0781 5.7656-1.7031 11.328-1.7031 8.4375 0 13.031 3.3125 4.5938 3.3281 4.5938 9.4844 0 5.3594-3.2969 8.3906t-10.812 4.5469l-6.0156 1.1719q-11.031 2.1875-15.969 6.875-4.9219 4.6875-4.9219 13.047 0 9.6719 6.8125 15.234t18.766 5.5625q5.1406 0 10.453-0.9375 5.3281-0.92188 10.891-2.7656z"/>
</defs>
<g transform="translate(712.14 314.83) rotate(-33.855) scale(.08 -.08)">
<use xlink:href="#an"/>
</g>
</g>
<path d="m716.19 372.21 3.6976-4.9268q1.4406-1.9195-0.47894-3.3602l-6.1925-4.6475q-1.9195-1.4406-3.3602 0.47894l-3.6976 4.9268q-1.4406 1.9195 0.47894 3.3602l6.1925 4.6475q1.9195 1.4406 3.3602-0.47894z" clip-path="url(#a)" fill="#fff" stroke="#fff"/>
<g clip-path="url(#a)">
<defs>
<path id="at" d="m19.672 64.797v-56.688h11.922q15.094 0 22.094 6.8281 7 6.8438 7 21.594 0 14.641-7 21.453t-22.094 6.8125zm-9.8594 8.1094h20.266q21.188 0 31.094-8.8125 9.9219-8.8125 9.9219-27.562 0-18.859-9.9688-27.703-9.9531-8.8281-31.047-8.8281h-20.266z"/>
</defs>
<g transform="translate(712.94 369.78) rotate(-53.112) scale(.08 -.08)">
<use xlink:href="#at"/>
</g>
</g>
<path d="m802.67 363.71 0.78782 6.1485q0.30503 2.3805 2.6856 2.0755l7.6797-0.98403q2.3805-0.30503 2.0755-2.6856l-0.78782-6.1485q-0.30503-2.3805-2.6856-2.0755l-7.6797 0.98402q-2.3805 0.30503-2.0755 2.6856z" clip-path="url(#a)" fill="#fff" stroke="#fff"/>
<g clip-path="url(#a)">
<defs>
<path id="ar" d="m59.516 10.406v19.578h-16.109v8.1094h25.875v-31.312q-5.7031-4.0469-12.594-6.125-6.875-2.0781-14.688-2.0781-17.094 0-26.75 9.9844-9.6406 10-9.6406 27.812 0 17.875 9.6406 27.859 9.6562 9.9844 26.75 9.9844 7.125 0 13.547-1.7656 6.4219-1.75 11.844-5.1719v-10.5q-5.4688 4.6406-11.625 6.9844t-12.938 2.3438q-13.391 0-20.109-7.4688-6.7031-7.4688-6.7031-22.266 0-14.75 6.7031-22.219 6.7188-7.4688 20.109-7.4688 5.2188 0 9.3125 0.90625 4.1094 0.90625 7.375 2.8125z"/>
</defs>
<g transform="translate(806.7 363.19) rotate(82.698) scale(.08 -.08)">
<use xlink:href="#ar"/>
</g>
</g>
<path d="m912.51 316.18 4.9888 2.2494q2.1879 0.98649 3.1744-1.2014l3.1824-7.0582q0.98649-2.1879-1.2014-3.1744l-4.9888-2.2494q-2.1879-0.98649-3.1744 1.2014l-3.1824 7.0582q-0.98649 2.1879 1.2014 3.1744z" clip-path="url(#a)" fill="#fff" stroke="#fff"/>
<g clip-path="url(#a)">
<g transform="translate(914.18 312.47) rotate(24.27) scale(.08 -.08)">
<use xlink:href="#v"/>
</g>
</g>
<path d="m766.27 370.65 1.7397-5.5906q0.7131-2.2916-1.5785-3.0047l-7.3928-2.3005q-2.2916-0.7131-3.0047 1.5785l-1.7397 5.5906q-0.7131 2.2916 1.5785 3.0047l7.3928 2.3005q2.2916 0.7131 3.0047-1.5785z" clip-path="url(#a)" fill="#fff" stroke="#fff"/>
<g clip-path="url(#a)">
<g transform="translate(762.39 369.44) rotate(-72.715) scale(.08 -.08)">
<use xlink:href="#t"/>
</g>
</g>
<path d="m850.51 366.54 2.8896 5.0923q1.1845 2.0874 3.2718 0.90289l6.7339-3.8211q2.0874-1.1845 0.90289-3.2718l-2.8896-5.0923q-1.1845-2.0874-3.2718-0.90289l-6.7339 3.8211q-2.0874 1.1845-0.90289 3.2718z" clip-path="url(#a)" fill="#fff" stroke="#fff"/>
<g clip-path="url(#a)">
<g transform="translate(854.05 364.53) rotate(60.427) scale(.08 -.08)">
<use xlink:href="#t"/>
</g>
</g>
<path d="m611.44 425.99 2.045-4.6229q0.97093-2.1948-1.2239-3.1658l-7.0806-3.1323q-2.1948-0.97093-3.1658 1.2239l-2.045 4.6229q-0.97093 2.1948 1.2239 3.1658l7.0806 3.1323q2.1948 0.97093 3.1658-1.2239z" clip-path="url(#a)" fill="#fff" stroke="#fff"/>
<g clip-path="url(#a)">
<defs>
<path id="r" d="m9.8125 72.906h46.094v-8.3125h-36.234v-21.578h34.719v-8.2969h-34.719v-26.422h37.109v-8.2969h-46.969z"/>
</defs>
<g transform="translate(607.73 424.35) rotate(-66.137) scale(.08 -.08)">
<use xlink:href="#r"/>
</g>
</g>
<path d="m648 421.13 2.2599 5.1087q0.97093 2.1948 3.1658 1.2239l7.0806-3.1323q2.1948-0.97093 1.2239-3.1658l-2.2599-5.1087q-0.97093-2.1948-3.1658-1.2239l-7.0806 3.1323q-2.1948 0.97093-1.2239 3.1658z" clip-path="url(#a)" fill="#fff" stroke="#fff"/>
<g clip-path="url(#a)">
<defs>
<path id="s" d="m64.406 67.281v-10.391q-4.9844 4.6406-10.625 6.9219-5.6406 2.2969-11.984 2.2969-12.5 0-19.141-7.6406t-6.6406-22.094q0-14.406 6.6406-22.047t19.141-7.6406q6.3438 0 11.984 2.2969t10.625 6.9375v-10.312q-5.1719-3.5156-10.969-5.2812-5.7812-1.75-12.219-1.75-16.562 0-26.094 10.125-9.5156 10.141-9.5156 27.672 0 17.578 9.5156 27.703 9.5312 10.141 26.094 10.141 6.5312 0 12.312-1.7344 5.7969-1.7344 10.875-5.2031z"/>
</defs>
<g transform="translate(651.71 419.48) rotate(66.137) scale(.08 -.08)">
<use xlink:href="#s"/>
</g>
</g>
<path d="m624.53 512.3v35.285q0 2.4 2.4 2.4h7.7425q2.4 0 2.4-2.4v-35.285q0-2.4-2.4-2.4h-7.7425q-2.4 0-2.4 2.4z" clip-path="url(#a)" fill="#fff" stroke="#fff"/>
<g clip-path="url(#a)">
<g transform="translate(628.59 512.3) rotate(90) scale(.08 -.08)">
<use xlink:href="#l"/>
<use x="60.818359" xlink:href="#e"/>
<use x="122.341797" xlink:href="#g"/>
<use x="163.439453" xlink:href="#j"/>
<use x="260.851562" xlink:href="#h"/>
<use x="288.634766" xlink:href="#i"/>
<use x="352.013672" xlink:href="#d"/>
<use x="413.292969" xlink:href="#k"/>
</g>
</g>
<path d="m797.85 548.62 14.275-32.269q0.97093-2.1948-1.2239-3.1658l-7.0806-3.1323q-2.1948-0.97093-3.1658 1.2239l-14.275 32.269q-0.97093 2.1948 1.2239 3.1658l7.0806 3.1323q2.1948 0.97093 3.1658-1.2239z" clip-path="url(#a)" fill="#fff" stroke="#fff"/>
<g clip-path="url(#a)">
<g transform="translate(794.14 546.97) rotate(-66.137) scale(.08 -.08)">
<use xlink:href="#l"/>
<use x="60.818359" xlink:href="#e"/>
<use x="122.341797" xlink:href="#g"/>
<use x="163.439453" xlink:href="#j"/>
<use x="260.851562" xlink:href="#h"/>
<use x="288.634766" xlink:href="#i"/>
<use x="352.013672" xlink:href="#d"/>
<use x="413.292969" xlink:href="#k"/>
</g>
</g>
<path d="m817.05 512.3v35.285q0 2.4 2.4 2.4h7.7425q2.4 0 2.4-2.4v-35.285q0-2.4-2.4-2.4h-7.7425q-2.4 0-2.4 2.4z" clip-path="url(#a)" fill="#fff" stroke="#fff"/>
<g clip-path="url(#a)">
<g transform="translate(821.11 512.3) rotate(90) scale(.08 -.08)">
<use xlink:href="#l"/>
<use x="60.818359" xlink:href="#e"/>
<use x="122.341797" xlink:href="#g"/>
<use x="163.439453" xlink:href="#j"/>
<use x="260.851562" xlink:href="#h"/>
<use x="288.634766" xlink:href="#i"/>
<use x="352.013672" xlink:href="#d"/>
<use x="413.292969" xlink:href="#k"/>
</g>
</g>
<path d="m834.51 516.35 14.275 32.269q0.97093 2.1948 3.1658 1.2239l7.0806-3.1323q2.1948-0.97093 1.2239-3.1658l-14.275-32.269q-0.97093-2.1948-3.1658-1.2239l-7.0806 3.1323q-2.1948 0.97093-1.2239 3.1658z" clip-path="url(#a)" fill="#fff" stroke="#fff"/>
<g clip-path="url(#a)">
<g transform="translate(838.23 514.71) rotate(66.137) scale(.08 -.08)">
<use xlink:href="#l"/>
<use x="60.818359" xlink:href="#e"/>
<use x="122.341797" xlink:href="#g"/>
<use x="163.439453" xlink:href="#j"/>
<use x="260.851562" xlink:href="#h"/>
<use x="288.634766" xlink:href="#i"/>
<use x="352.013672" xlink:href="#d"/>
<use x="413.292969" xlink:href="#k"/>
</g>
</g>
<path d="m1007.5 426.93 3.0735-4.6318q1.327-1.9998-0.67282-3.3268l-6.4514-4.2809q-1.9998-1.327-3.3268 0.67282l-3.0735 4.6318q-1.327 1.9998 0.67282 3.3268l6.4514 4.2809q1.9998 1.327 3.3268-0.67282z" clip-path="url(#a)" fill="#fff" stroke="#fff"/>
<g clip-path="url(#a)">
<defs>
<path id="u" d="m44.391 34.188q3.1719-1.0781 6.1719-4.5938t6.0312-9.6719l10.016-19.922h-10.609l-9.3125 18.703q-3.625 7.3281-7.0156 9.7188t-9.25 2.3906h-10.75v-30.812h-9.8594v72.906h22.266q12.5 0 18.656-5.2344 6.1562-5.2188 6.1562-15.766 0-6.8906-3.2031-11.438-3.2031-4.5312-9.2969-6.2812zm-24.719 30.609v-25.875h12.406q7.125 0 10.766 3.2969t3.6406 9.6875-3.6406 9.6406-10.766 3.25z"/>
</defs>
<g transform="translate(1004.1 424.68) rotate(-56.434) scale(.08 -.08)">
<use xlink:href="#u"/>
</g>
</g>
<path d="m1033.5 424.97 1.0917-4.9357q0.51832-2.3434-1.825-2.8617l-7.5598-1.6721q-2.3434-0.51832-2.8617 1.825l-1.0917 4.9357q-0.51832 2.3434 1.825 2.8617l7.5598 1.6721q2.3434 0.51832 2.8617-1.825z" clip-path="url(#a)" fill="#fff" stroke="#fff"/>
<g clip-path="url(#a)">
<g transform="translate(1029.5 424.09) rotate(-77.528) scale(.08 -.08)">
<use xlink:href="#r"/>
</g>
</g>
<path d="m1045.2 419.77 1.2064 5.4544q0.51832 2.3434 2.8617 1.825l7.5598-1.6721q2.3434-0.51832 1.825-2.8617l-1.2064-5.4544q-0.51832-2.3434-2.8617-1.825l-7.5598 1.6721q-2.3434 0.51832-1.825 2.8617z" clip-path="url(#a)" fill="#fff" stroke="#fff"/>
<g clip-path="url(#a)">
<g transform="translate(1049.2 418.89) rotate(77.528) scale(.08 -.08)">
<use xlink:href="#s"/>
</g>
</g>
<path d="m1069.2 422.17 3.2372 4.8787q1.327 1.9998 3.3268 0.67282l6.4514-4.2809q1.9998-1.327 0.67282-3.3268l-3.2372-4.8787q-1.327-1.9998-3.3268-0.67282l-6.4514 4.2809q-1.9998 1.327-0.67282 3.3268z" clip-path="url(#a)" fill="#fff" stroke="#fff"/>
<g clip-path="url(#a)">
<g transform="translate(1072.5 419.93) rotate(56.434) scale(.08 -.08)">
<use xlink:href="#t"/>
</g>
</g>
<path d="m961.44 512.3v35.285q0 2.4 2.4 2.4h7.7425q2.4 0 2.4-2.4v-35.285q0-2.4-2.4-2.4h-7.7425q-2.4 0-2.4 2.4z" clip-path="url(#a)" fill="#fff" stroke="#fff"/>
<g clip-path="url(#a)">
<g transform="translate(965.51 512.3) rotate(90) scale(.08 -.08)">
<use xlink:href="#l"/>
<use x="60.818359" xlink:href="#e"/>
<use x="122.341797" xlink:href="#g"/>
<use x="163.439453" xlink:href="#j"/>
<use x="260.851562" xlink:href="#h"/>
<use x="288.634766" xlink:href="#i"/>
<use x="352.013672" xlink:href="#d"/>
<use x="413.292969" xlink:href="#k"/>
</g>
</g>
<path d="m1009.6 512.3v35.285q0 2.4 2.4 2.4h7.7425q2.4 0 2.4-2.4v-35.285q0-2.4-2.4-2.4h-7.7425q-2.4 0-2.4 2.4z" clip-path="url(#a)" fill="#fff" stroke="#fff"/>
<g clip-path="url(#a)">
<g transform="translate(1013.6 512.3) rotate(90) scale(.08 -.08)">
<use xlink:href="#l"/>
<use x="60.818359" xlink:href="#e"/>
<use x="122.341797" xlink:href="#g"/>
<use x="163.439453" xlink:href="#j"/>
<use x="260.851562" xlink:href="#h"/>
<use x="288.634766" xlink:href="#i"/>
<use x="352.013672" xlink:href="#d"/>
<use x="413.292969" xlink:href="#k"/>
</g>
</g>
<path d="m1057.7 512.3v35.285q0 2.4 2.4 2.4h7.7425q2.4 0 2.4-2.4v-35.285q0-2.4-2.4-2.4h-7.7425q-2.4 0-2.4 2.4z" clip-path="url(#a)" fill="#fff" stroke="#fff"/>
<g clip-path="url(#a)">
<g transform="translate(1061.8 512.3) rotate(90) scale(.08 -.08)">
<use xlink:href="#l"/>
<use x="60.818359" xlink:href="#e"/>
<use x="122.341797" xlink:href="#g"/>
<use x="163.439453" xlink:href="#j"/>
<use x="260.851562" xlink:href="#h"/>
<use x="288.634766" xlink:href="#i"/>
<use x="352.013672" xlink:href="#d"/>
<use x="413.292969" xlink:href="#k"/>
</g>
</g>
<path d="m576.4 512.3v35.285q0 2.4 2.4 2.4h7.7425q2.4 0 2.4-2.4v-35.285q0-2.4-2.4-2.4h-7.7425q-2.4 0-2.4 2.4z" clip-path="url(#a)" fill="#fff" stroke="#fff"/>
<g clip-path="url(#a)">
<g transform="translate(580.46 512.3) rotate(90) scale(.08 -.08)">
<use xlink:href="#l"/>
<use x="60.818359" xlink:href="#e"/>
<use x="122.341797" xlink:href="#g"/>
<use x="163.439453" xlink:href="#j"/>
<use x="260.851562" xlink:href="#h"/>
<use x="288.634766" xlink:href="#i"/>
<use x="352.013672" xlink:href="#d"/>
<use x="413.292969" xlink:href="#k"/>
</g>
</g>
<path d="m672.66 512.3v35.285q0 2.4 2.4 2.4h7.7425q2.4 0 2.4-2.4v-35.285q0-2.4-2.4-2.4h-7.7425q-2.4 0-2.4 2.4z" clip-path="url(#a)" fill="#fff" stroke="#fff"/>
<g clip-path="url(#a)">
<g transform="translate(676.72 512.3) rotate(90) scale(.08 -.08)">
<use xlink:href="#l"/>
<use x="60.818359" xlink:href="#e"/>
<use x="122.341797" xlink:href="#g"/>
<use x="163.439453" xlink:href="#j"/>
<use x="260.851562" xlink:href="#h"/>
<use x="288.634766" xlink:href="#i"/>
<use x="352.013672" xlink:href="#d"/>
<use x="413.292969" xlink:href="#k"/>
</g>
</g>
<path d="m130.16 316.41 2.0215-4.6332q0.95975-2.1997-1.24-3.1595l-7.0965-3.0962q-2.1997-0.95975-3.1595 1.24l-2.0215 4.6332q-0.95975 2.1997 1.24 3.1595l7.0965 3.0962q2.1997 0.95975 3.1595-1.24z" clip-path="url(#a)" fill="#fff" stroke="#fff"/>
<g clip-path="url(#a)">
<g transform="translate(126.44 314.78) rotate(-66.428) scale(.08 -.08)">
<use xlink:href="#r"/>
</g>
</g>
<path d="m166.83 364.6 1.1985 5.4562q0.5149 2.3441 2.859 1.8292l7.5622-1.6611q2.3441-0.5149 1.8292-2.859l-1.1985-5.4562q-0.5149-2.3441-2.859-1.8292l-7.5622 1.6611q-2.3441 0.5149-1.8292 2.859z" clip-path="url(#a)" fill="#fff" stroke="#fff"/>
<g clip-path="url(#a)">
<g transform="translate(170.8 363.73) rotate(77.611) scale(.08 -.08)">
<use xlink:href="#s"/>
</g>
</g>
<path d="m239.48 512.3v35.285q0 2.4 2.4 2.4h7.7425q2.4 0 2.4-2.4v-35.285q0-2.4-2.4-2.4h-7.7425q-2.4 0-2.4 2.4z" clip-path="url(#a)" fill="#fff" stroke="#fff"/>
<g clip-path="url(#a)">
<g transform="translate(243.54 512.3) rotate(90) scale(.08 -.08)">
<use xlink:href="#l"/>
<use x="60.818359" xlink:href="#e"/>
<use x="122.341797" xlink:href="#g"/>
<use x="163.439453" xlink:href="#j"/>
<use x="260.851562" xlink:href="#h"/>
<use x="288.634766" xlink:href="#i"/>
<use x="352.013672" xlink:href="#d"/>
<use x="413.292969" xlink:href="#k"/>
</g>
</g>
<path d="m287.61 512.3v35.285q0 2.4 2.4 2.4h7.7425q2.4 0 2.4-2.4v-35.285q0-2.4-2.4-2.4h-7.7425q-2.4 0-2.4 2.4z" clip-path="url(#a)" fill="#fff" stroke="#fff"/>
<g clip-path="url(#a)">
<g transform="translate(291.67 512.3) rotate(90) scale(.08 -.08)">
<use xlink:href="#l"/>
<use x="60.818359" xlink:href="#e"/>
<use x="122.341797" xlink:href="#g"/>
<use x="163.439453" xlink:href="#j"/>
<use x="260.851562" xlink:href="#h"/>
<use x="288.634766" xlink:href="#i"/>
<use x="352.013672" xlink:href="#d"/>
<use x="413.292969" xlink:href="#k"/>
</g>
</g>
<path d="m370.69 426.22 2.2488-5.0836q0.97093-2.1948-1.2239-3.1658l-7.0806-3.1323q-2.1948-0.97093-3.1658 1.2239l-2.2488 5.0836q-0.97093 2.1948 1.2239 3.1658l7.0806 3.1323q2.1948 0.97093 3.1658-1.2239z" clip-path="url(#a)" fill="#fff" stroke="#fff"/>
<g clip-path="url(#a)">
<g transform="translate(366.97 424.58) rotate(-66.137) scale(.08 -.08)">
<use xlink:href="#u"/>
</g>
</g>
<path d="m383.87 418.62v5.055q0 2.4 2.4 2.4h7.7425q2.4 0 2.4-2.4v-5.055q0-2.4-2.4-2.4h-7.7425q-2.4 0-2.4 2.4z" clip-path="url(#a)" fill="#fff" stroke="#fff"/>
<g clip-path="url(#a)">
<g transform="translate(387.94 418.62) rotate(90) scale(.08 -.08)">
<use xlink:href="#r"/>
</g>
</g>
<path d="m407.34 421.13 2.2599 5.1087q0.97093 2.1948 3.1658 1.2239l7.0806-3.1323q2.1948-0.97093 1.2239-3.1658l-2.2599-5.1087q-0.97093-2.1948-3.1658-1.2239l-7.0806 3.1323q-2.1948 0.97093-1.2239 3.1658z" clip-path="url(#a)" fill="#fff" stroke="#fff"/>
<g clip-path="url(#a)">
<g transform="translate(411.06 419.48) rotate(66.137) scale(.08 -.08)">
<use xlink:href="#s"/>
</g>
</g>
<path d="m335.74 512.3v35.285q0 2.4 2.4 2.4h7.7425q2.4 0 2.4-2.4v-35.285q0-2.4-2.4-2.4h-7.7425q-2.4 0-2.4 2.4z" clip-path="url(#a)" fill="#fff" stroke="#fff"/>
<g clip-path="url(#a)">
<g transform="translate(339.8 512.3) rotate(90) scale(.08 -.08)">
<use xlink:href="#l"/>
<use x="60.818359" xlink:href="#e"/>
<use x="122.341797" xlink:href="#g"/>
<use x="163.439453" xlink:href="#j"/>
<use x="260.851562" xlink:href="#h"/>
<use x="288.634766" xlink:href="#i"/>
<use x="352.013672" xlink:href="#d"/>
<use x="413.292969" xlink:href="#k"/>
</g>
</g>
<path d="m383.87 512.3v35.285q0 2.4 2.4 2.4h7.7425q2.4 0 2.4-2.4v-35.285q0-2.4-2.4-2.4h-7.7425q-2.4 0-2.4 2.4z" clip-path="url(#a)" fill="#fff" stroke="#fff"/>
<g clip-path="url(#a)">
<g transform="translate(387.94 512.3) rotate(90) scale(.08 -.08)">
<use xlink:href="#l"/>
<use x="60.818359" xlink:href="#e"/>
<use x="122.341797" xlink:href="#g"/>
<use x="163.439453" xlink:href="#j"/>
<use x="260.851562" xlink:href="#h"/>
<use x="288.634766" xlink:href="#i"/>
<use x="352.013672" xlink:href="#d"/>
<use x="413.292969" xlink:href="#k"/>
</g>
</g>
<path d="m432 512.3v35.285q0 2.4 2.4 2.4h7.7425q2.4 0 2.4-2.4v-35.285q0-2.4-2.4-2.4h-7.7425q-2.4 0-2.4 2.4z" clip-path="url(#a)" fill="#fff" stroke="#fff"/>
<g clip-path="url(#a)">
<g transform="translate(436.07 512.3) rotate(90) scale(.08 -.08)">
<use xlink:href="#l"/>
<use x="60.818359" xlink:href="#e"/>
<use x="122.341797" xlink:href="#g"/>
<use x="163.439453" xlink:href="#j"/>
<use x="260.851562" xlink:href="#h"/>
<use x="288.634766" xlink:href="#i"/>
<use x="352.013672" xlink:href="#d"/>
<use x="413.292969" xlink:href="#k"/>
</g>
</g>
<path d="m82.005 425.99 2.045-4.6229q0.97093-2.1948-1.2239-3.1658l-7.0806-3.1323q-2.1948-0.97093-3.1658 1.2239l-2.045 4.6229q-0.97093 2.1948 1.2239 3.1658l7.0806 3.1323q2.1948 0.97093 3.1658-1.2239z" clip-path="url(#a)" fill="#fff" stroke="#fff"/>
<g clip-path="url(#a)">
<g transform="translate(78.289 424.35) rotate(-66.137) scale(.08 -.08)">
<use xlink:href="#r"/>
</g>
</g>
<path d="m95.087 418.35v5.5862q0 2.4 2.4 2.4h7.7425q2.4 0 2.4-2.4v-5.5862q0-2.4-2.4-2.4h-7.7425q-2.4 0-2.4 2.4z" clip-path="url(#a)" fill="#fff" stroke="#fff"/>
<g clip-path="url(#a)">
<g transform="translate(99.151 418.35) rotate(90) scale(.08 -.08)">
<use xlink:href="#s"/>
</g>
</g>
<path d="m118.56 421.14 2.2488 5.0836q0.97093 2.1948 3.1658 1.2239l7.0806-3.1323q2.1948-0.97093 1.2239-3.1658l-2.2488-5.0836q-0.97093-2.1948-3.1658-1.2239l-7.0806 3.1323q-2.1948 0.97093-1.2239 3.1658z" clip-path="url(#a)" fill="#fff" stroke="#fff"/>
<g clip-path="url(#a)">
<g transform="translate(122.28 419.5) rotate(66.137) scale(.08 -.08)">
<use xlink:href="#u"/>
</g>
</g>
<path d="m191.35 512.3v35.285q0 2.4 2.4 2.4h7.7425q2.4 0 2.4-2.4v-35.285q0-2.4-2.4-2.4h-7.7425q-2.4 0-2.4 2.4z" clip-path="url(#a)" fill="#fff" stroke="#fff"/>
<g clip-path="url(#a)">
<g transform="translate(195.41 512.3) rotate(90) scale(.08 -.08)">
<use xlink:href="#l"/>
<use x="60.818359" xlink:href="#e"/>
<use x="122.341797" xlink:href="#g"/>
<use x="163.439453" xlink:href="#j"/>
<use x="260.851562" xlink:href="#h"/>
<use x="288.634766" xlink:href="#i"/>
<use x="352.013672" xlink:href="#d"/>
<use x="413.292969" xlink:href="#k"/>
</g>
</g>
<path d="m46.956 512.3v35.285q0 2.4 2.4 2.4h7.7425q2.4 0 2.4-2.4v-35.285q0-2.4-2.4-2.4h-7.7425q-2.4 0-2.4 2.4z" clip-path="url(#a)" fill="#fff" stroke="#fff"/>
<g clip-path="url(#a)">
<g transform="translate(51.02 512.3) rotate(90) scale(.08 -.08)">
<use xlink:href="#l"/>
<use x="60.818359" xlink:href="#e"/>
<use x="122.341797" xlink:href="#g"/>
<use x="163.439453" xlink:href="#j"/>
<use x="260.851562" xlink:href="#h"/>
<use x="288.634766" xlink:href="#i"/>
<use x="352.013672" xlink:href="#d"/>
<use x="413.292969" xlink:href="#k"/>
</g>
</g>
<path d="m95.087 512.3v35.285q0 2.4 2.4 2.4h7.7425q2.4 0 2.4-2.4v-35.285q0-2.4-2.4-2.4h-7.7425q-2.4 0-2.4 2.4z" clip-path="url(#a)" fill="#fff" stroke="#fff"/>
<g clip-path="url(#a)">
<g transform="translate(99.151 512.3) rotate(90) scale(.08 -.08)">
<use xlink:href="#l"/>
<use x="60.818359" xlink:href="#e"/>
<use x="122.341797" xlink:href="#g"/>
<use x="163.439453" xlink:href="#j"/>
<use x="260.851562" xlink:href="#h"/>
<use x="288.634766" xlink:href="#i"/>
<use x="352.013672" xlink:href="#d"/>
<use x="413.292969" xlink:href="#k"/>
</g>
</g>
<path d="m143.22 512.3v35.285q0 2.4 2.4 2.4h7.7425q2.4 0 2.4-2.4v-35.285q0-2.4-2.4-2.4h-7.7425q-2.4 0-2.4 2.4z" clip-path="url(#a)" fill="#fff" stroke="#fff"/>
<g clip-path="url(#a)">
<g transform="translate(147.28 512.3) rotate(90) scale(.08 -.08)">
<use xlink:href="#l"/>
<use x="60.818359" xlink:href="#e"/>
<use x="122.341797" xlink:href="#g"/>
<use x="163.439453" xlink:href="#j"/>
<use x="260.851562" xlink:href="#h"/>
<use x="288.634766" xlink:href="#i"/>
<use x="352.013672" xlink:href="#d"/>
<use x="413.292969" xlink:href="#k"/>
</g>
</g>
<path d="m480.13 512.3v35.285q0 2.4 2.4 2.4h7.7425q2.4 0 2.4-2.4v-35.285q0-2.4-2.4-2.4h-7.7425q-2.4 0-2.4 2.4z" clip-path="url(#a)" fill="#fff" stroke="#fff"/>
<g clip-path="url(#a)">
<g transform="translate(484.2 512.3) rotate(90) scale(.08 -.08)">
<use xlink:href="#l"/>
<use x="60.818359" xlink:href="#e"/>
<use x="122.341797" xlink:href="#g"/>
<use x="163.439453" xlink:href="#j"/>
<use x="260.851562" xlink:href="#h"/>
<use x="288.634766" xlink:href="#i"/>
<use x="352.013672" xlink:href="#d"/>
<use x="413.292969" xlink:href="#k"/>
</g>
</g>
<path d="m720.79 512.3v35.285q0 2.4 2.4 2.4h7.7425q2.4 0 2.4-2.4v-35.285q0-2.4-2.4-2.4h-7.7425q-2.4 0-2.4 2.4z" clip-path="url(#a)" fill="#fff" stroke="#fff"/>
<g clip-path="url(#a)">
<g transform="translate(724.85 512.3) rotate(90) scale(.08 -.08)">
<use xlink:href="#l"/>
<use x="60.818359" xlink:href="#e"/>
<use x="122.341797" xlink:href="#g"/>
<use x="163.439453" xlink:href="#j"/>
<use x="260.851562" xlink:href="#h"/>
<use x="288.634766" xlink:href="#i"/>
<use x="352.013672" xlink:href="#d"/>
<use x="413.292969" xlink:href="#k"/>
</g>
</g>
<path d="m913.31 512.3v35.285q0 2.4 2.4 2.4h7.7425q2.4 0 2.4-2.4v-35.285q0-2.4-2.4-2.4h-7.7425q-2.4 0-2.4 2.4z" clip-path="url(#a)" fill="#fff" stroke="#fff"/>
<g clip-path="url(#a)">
<g transform="translate(917.38 512.3) rotate(90) scale(.08 -.08)">
<use xlink:href="#l"/>
<use x="60.818359" xlink:href="#e"/>
<use x="122.341797" xlink:href="#g"/>
<use x="163.439453" xlink:href="#j"/>
<use x="260.851562" xlink:href="#h"/>
<use x="288.634766" xlink:href="#i"/>
<use x="352.013672" xlink:href="#d"/>
<use x="413.292969" xlink:href="#k"/>
</g>
</g>
<path d="m1105.8 512.3v35.285q0 2.4 2.4 2.4h7.7425q2.4 0 2.4-2.4v-35.285q0-2.4-2.4-2.4h-7.7425q-2.4 0-2.4 2.4z" clip-path="url(#a)" fill="#fff" stroke="#fff"/>
<g clip-path="url(#a)">
<g transform="translate(1109.9 512.3) rotate(90) scale(.08 -.08)">
<use xlink:href="#l"/>
<use x="60.818359" xlink:href="#e"/>
<use x="122.341797" xlink:href="#g"/>
<use x="163.439453" xlink:href="#j"/>
<use x="260.851562" xlink:href="#h"/>
<use x="288.634766" xlink:href="#i"/>
<use x="352.013672" xlink:href="#d"/>
<use x="413.292969" xlink:href="#k"/>
</g>
</g>
<defs>
<path id="b" d="m0 8.6603c2.2967 0 4.4997-0.9125 6.1237-2.5365 1.624-1.624 2.5365-3.827 2.5365-6.1237s-0.9125-4.4997-2.5365-6.1237c-1.624-1.624-3.827-2.5365-6.1237-2.5365s-4.4997 0.9125-6.1237 2.5365c-1.624 1.624-2.5365 3.827-2.5365 6.1237s0.9125 4.4997 2.5365 6.1237c1.624 1.624 3.827 2.5365 6.1237 2.5365z"/>
</defs>
<g clip-path="url(#a)">
<use x="53.227232" y="584.348418" fill="#ffffff" stroke="#ffffff" xlink:href="#b"/>
</g>
<g clip-path="url(#a)">
<use x="101.35809" y="584.348418" fill="#ffffff" stroke="#ffffff" xlink:href="#b"/>
</g>
<g clip-path="url(#a)">
<use x="149.488948" y="584.348418" fill="#ffffff" stroke="#ffffff" xlink:href="#b"/>
</g>
<g clip-path="url(#a)">
<use x="197.619805" y="584.348418" fill="#ffffff" stroke="#ffffff" xlink:href="#b"/>
</g>
<g clip-path="url(#a)">
<use x="245.750663" y="584.348418" fill="#ffffff" stroke="#ffffff" xlink:href="#b"/>
</g>
<g clip-path="url(#a)">
<use x="293.881521" y="584.348418" fill="#ffffff" stroke="#ffffff" xlink:href="#b"/>
</g>
<g clip-path="url(#a)">
<use x="342.012378" y="584.348418" fill="#ffffff" stroke="#ffffff" xlink:href="#b"/>
</g>
<g clip-path="url(#a)">
<use x="390.143236" y="584.348418" fill="#ffffff" stroke="#ffffff" xlink:href="#b"/>
</g>
<g clip-path="url(#a)">
<use x="438.274094" y="584.348418" fill="#ffffff" stroke="#ffffff" xlink:href="#b"/>
</g>
<g clip-path="url(#a)">
<use x="486.404951" y="584.348418" fill="#ffffff" stroke="#ffffff" xlink:href="#b"/>
</g>
<g clip-path="url(#a)">
<use x="534.535809" y="584.348418" fill="#ffffff" stroke="#ffffff" xlink:href="#b"/>
</g>
<g clip-path="url(#a)">
<use x="582.666667" y="584.348418" fill="#ffffff" stroke="#ffffff" xlink:href="#b"/>
</g>
<g clip-path="url(#a)">
<use x="630.797524" y="584.348418" fill="#ffffff" stroke="#ffffff" xlink:href="#b"/>
</g>
<g clip-path="url(#a)">
<use x="678.928382" y="584.348418" fill="#ffffff" stroke="#ffffff" xlink:href="#b"/>
</g>
<g clip-path="url(#a)">
<use x="727.05924" y="584.348418" fill="#ffffff" stroke="#ffffff" xlink:href="#b"/>
</g>
<g clip-path="url(#a)">
<use x="775.190097" y="584.348418" fill="#ffffff" stroke="#ffffff" xlink:href="#b"/>
</g>
<g clip-path="url(#a)">
<use x="823.320955" y="584.348418" fill="#ffffff" stroke="#ffffff" xlink:href="#b"/>
</g>
<g clip-path="url(#a)">
<use x="871.451813" y="584.348418" fill="#ffffff" stroke="#ffffff" xlink:href="#b"/>
</g>
<g clip-path="url(#a)">
<use x="919.58267" y="584.348418" fill="#ffffff" stroke="#ffffff" xlink:href="#b"/>
</g>
<g clip-path="url(#a)">
<use x="967.713528" y="584.348418" fill="#ffffff" stroke="#ffffff" xlink:href="#b"/>
</g>
<g clip-path="url(#a)">
<use x="1015.844386" y="584.348418" fill="#ffffff" stroke="#ffffff" xlink:href="#b"/>
</g>
<g clip-path="url(#a)">
<use x="1063.975244" y="584.348418" fill="#ffffff" stroke="#ffffff" xlink:href="#b"/>
</g>
<g clip-path="url(#a)">
<use x="1112.106101" y="584.348418" fill="#ffffff" stroke="#ffffff" xlink:href="#b"/>
</g>
<g clip-path="url(#a)">
<use x="521.500368" y="28.984916" fill="#ffffff" stroke="#ffffff" xlink:href="#b"/>
</g>
<g clip-path="url(#a)">
<use x="269.816092" y="143.987154" fill="#ffffff" stroke="#ffffff" xlink:href="#b"/>
</g>
<g clip-path="url(#a)">
<use x="534.535809" y="475.545937" fill="#ffffff" stroke="#ffffff" xlink:href="#b"/>
</g>
<g clip-path="url(#a)">
<use x="795.244621" y="256.427415" fill="#ffffff" stroke="#ffffff" xlink:href="#b"/>
</g>
<g clip-path="url(#a)">
<use x="630.797524" y="366.743457" fill="#ffffff" stroke="#ffffff" xlink:href="#b"/>
</g>
<g clip-path="url(#a)">
<use x="630.797524" y="475.545937" fill="#ffffff" stroke="#ffffff" xlink:href="#b"/>
</g>
<g clip-path="url(#a)">
<use x="823.320955" y="475.545937" fill="#ffffff" stroke="#ffffff" xlink:href="#b"/>
</g>
<g clip-path="url(#a)">
<use x="1039.909815" y="366.743457" fill="#ffffff" stroke="#ffffff" xlink:href="#b"/>
</g>
<g clip-path="url(#a)">
<use x="967.713528" y="475.545937" fill="#ffffff" stroke="#ffffff" xlink:href="#b"/>
</g>
<g clip-path="url(#a)">
<use x="1015.844386" y="475.545937" fill="#ffffff" stroke="#ffffff" xlink:href="#b"/>
</g>
<g clip-path="url(#a)">
<use x="1063.975244" y="475.545937" fill="#ffffff" stroke="#ffffff" xlink:href="#b"/>
</g>
<g clip-path="url(#a)">
<use x="582.666667" y="475.545937" fill="#ffffff" stroke="#ffffff" xlink:href="#b"/>
</g>
<g clip-path="url(#a)">
<use x="678.928382" y="475.545937" fill="#ffffff" stroke="#ffffff" xlink:href="#b"/>
</g>
<g clip-path="url(#a)">
<use x="149.488948" y="256.427415" fill="#ffffff" stroke="#ffffff" xlink:href="#b"/>
</g>
<g clip-path="url(#a)">
<use x="245.750663" y="475.545937" fill="#ffffff" stroke="#ffffff" xlink:href="#b"/>
</g>
<g clip-path="url(#a)">
<use x="293.881521" y="475.545937" fill="#ffffff" stroke="#ffffff" xlink:href="#b"/>
</g>
<g clip-path="url(#a)">
<use x="390.143236" y="366.743457" fill="#ffffff" stroke="#ffffff" xlink:href="#b"/>
</g>
<g clip-path="url(#a)">
<use x="342.012378" y="475.545937" fill="#ffffff" stroke="#ffffff" xlink:href="#b"/>
</g>
<g clip-path="url(#a)">
<use x="390.143236" y="475.545937" fill="#ffffff" stroke="#ffffff" xlink:href="#b"/>
</g>
<g clip-path="url(#a)">
<use x="438.274094" y="475.545937" fill="#ffffff" stroke="#ffffff" xlink:href="#b"/>
</g>
<g clip-path="url(#a)">
<use x="101.35809" y="366.743457" fill="#ffffff" stroke="#ffffff" xlink:href="#b"/>
</g>
<g clip-path="url(#a)">
<use x="197.619805" y="475.545937" fill="#ffffff" stroke="#ffffff" xlink:href="#b"/>
</g>
<g clip-path="url(#a)">
<use x="53.227232" y="475.545937" fill="#ffffff" stroke="#ffffff" xlink:href="#b"/>
</g>
<g clip-path="url(#a)">
<use x="101.35809" y="475.545937" fill="#ffffff" stroke="#ffffff" xlink:href="#b"/>
</g>
<g clip-path="url(#a)">
<use x="149.488948" y="475.545937" fill="#ffffff" stroke="#ffffff" xlink:href="#b"/>
</g>
<g clip-path="url(#a)">
<use x="486.404951" y="475.545937" fill="#ffffff" stroke="#ffffff" xlink:href="#b"/>
</g>
<g clip-path="url(#a)">
<use x="727.05924" y="475.545937" fill="#ffffff" stroke="#ffffff" xlink:href="#b"/>
</g>
<g clip-path="url(#a)">
<use x="919.58267" y="475.545937" fill="#ffffff" stroke="#ffffff" xlink:href="#b"/>
</g>
<g clip-path="url(#a)">
<use x="1112.106101" y="475.545937" fill="#ffffff" stroke="#ffffff" xlink:href="#b"/>
</g>
<g clip-path="url(#a)">
<defs>
<path id="o" d="m30.609 48.391q-7.2188 0-11.422-5.6406t-4.2031-15.453 4.1719-15.453q4.1875-5.6406 11.453-5.6406 7.1875 0 11.375 5.6562 4.2031 5.6719 4.2031 15.438 0 9.7188-4.2031 15.406-4.1875 5.6875-11.375 5.6875zm0 7.6094q11.719 0 18.406-7.625 6.7031-7.6094 6.7031-21.078 0-13.422-6.7031-21.078-6.6875-7.6406-18.406-7.6406-11.766 0-18.438 7.6406-6.6562 7.6562-6.6562 21.078 0 13.469 6.6562 21.078 6.6719 7.625 18.438 7.625z"/>
<path id="ac" d="m8.5 21.578v33.109h8.9844v-32.766q0-7.7656 3.0156-11.656 3.0312-3.875 9.0938-3.875 7.2656 0 11.484 4.6406 4.2344 4.6406 4.2344 12.656v31h8.9844v-54.688h-8.9844v8.4062q-3.2656-4.9844-7.5938-7.4062-4.3125-2.4219-10.031-2.4219-9.4219 0-14.312 5.8594-4.875 5.8594-4.875 17.141z"/>
<path id="n" d="m44.281 53.078v-8.5q-3.7969 1.9531-7.9062 2.9219-4.0938 0.98438-8.5 0.98438-6.6875 0-10.031-2.0469t-3.3438-6.1562q0-3.125 2.3906-4.9062t9.625-3.3906l3.0781-0.6875q9.5625-2.0469 13.594-5.7812t4.0312-10.422q0-7.625-6.0312-12.078-6.0312-4.4375-16.578-4.4375-4.3906 0-9.1562 0.85938t-10.031 2.5625v9.2812q4.9844-2.5938 9.8125-3.8906 4.8281-1.2812 9.5781-1.2812 6.3438 0 9.75 2.1719 3.4219 2.1719 3.4219 6.125 0 3.6562-2.4688 5.6094-2.4531 1.9531-10.812 3.7656l-3.125 0.73438q-8.3438 1.75-12.062 5.3906-3.7031 3.6406-3.7031 9.9844 0 7.7188 5.4688 11.906 5.4688 4.2031 15.531 4.2031 4.9688 0 9.3594-0.73438 4.4062-0.71875 8.1094-2.1875z"/>
</defs>
<g transform="translate(28.082 587.11) scale(.1 -.1)">
<use xlink:href="#r"/>
<use x="63.183594" xlink:href="#i"/>
<use x="126.5625" xlink:href="#o"/>
<use x="187.744141" xlink:href="#g"/>
<use x="228.841797" xlink:href="#j"/>
<use x="326.253906" xlink:href="#o"/>
<use x="387.435547" xlink:href="#ac"/>
<use x="450.814453" xlink:href="#n"/>
</g>
</g>
<g clip-path="url(#a)">
<defs>
<path id="ae" d="m45.406 46.391v29.594h8.9844v-75.984h-8.9844v8.2031q-2.8281-4.875-7.1562-7.25-4.3125-2.375-10.375-2.375-9.9062 0-16.141 7.9062-6.2188 7.9219-6.2188 20.812t6.2188 20.797q6.2344 7.9062 16.141 7.9062 6.0625 0 10.375-2.375 4.3281-2.3594 7.1562-7.2344zm-30.609-19.094q0-9.9062 4.0781-15.547t11.203-5.6406 11.219 5.6406q4.1094 5.6406 4.1094 15.547t-4.1094 15.547q-4.0938 5.6406-11.219 5.6406t-11.203-5.6406-4.0781-15.547z"/>
</defs>
<g transform="translate(88.509 587.11) scale(.1 -.1)">
<use xlink:href="#n"/>
<use x="52.099609" xlink:href="#h"/>
<use x="79.882812" xlink:href="#ae"/>
<use x="143.359375" xlink:href="#e"/>
<use x="204.882812" xlink:href="#n"/>
</g>
</g>
<g clip-path="url(#a)">
<defs>
<path id="ad" d="m37.109 75.984v-7.4844h-8.5938q-4.8281 0-6.7188-1.9531-1.875-1.9531-1.875-7.0312v-4.8281h14.797v-6.9844h-14.797v-47.703h-9.0312v47.703h-8.5938v6.9844h8.5938v3.8125q0 9.125 4.25 13.297 4.25 4.1875 13.469 4.1875z"/>
</defs>
<g transform="translate(144.67 587.11) scale(.1 -.1)">
<use xlink:href="#o"/>
<use x="61.181641" xlink:href="#ad"/>
</g>
</g>
<g clip-path="url(#a)">
<defs>
<path id="am" d="m48.688 27.297q0 9.9062-4.0781 15.547t-11.203 5.6406q-7.1406 0-11.219-5.6406t-4.0781-15.547 4.0781-15.547 11.219-5.6406q7.125 0 11.203 5.6406t4.0781 15.547zm-30.578 19.094q2.8438 4.875 7.1562 7.2344 4.3281 2.375 10.328 2.375 9.9688 0 16.188-7.9062 6.2344-7.9062 6.2344-20.797t-6.2344-20.812q-6.2188-7.9062-16.188-7.9062-6 0-10.328 2.375-4.3125 2.375-7.1562 7.25v-8.2031h-9.0312v75.984h9.0312z"/>
<path id="af" d="m48.781 52.594v-8.4062q-3.8125 2.1094-7.6406 3.1562t-7.7344 1.0469q-8.75 0-13.594-5.5469-4.8281-5.5312-4.8281-15.547t4.8281-15.562q4.8438-5.5312 13.594-5.5312 3.9062 0 7.7344 1.0469t7.6406 3.1562v-8.3125q-3.7656-1.75-7.7969-2.625-4.0156-0.89062-8.5625-0.89062-12.359 0-19.641 7.7656-7.2656 7.7656-7.2656 20.953 0 13.375 7.3438 21.031 7.3594 7.6719 20.156 7.6719 4.1406 0 8.0938-0.85938 3.9531-0.84375 7.6719-2.5469z"/>
</defs>
<g transform="translate(182.4 587.11) scale(.1 -.1)">
<use xlink:href="#am"/>
<use x="63.476562" xlink:href="#d"/>
<use x="124.755859" xlink:href="#af"/>
<use x="179.736328" xlink:href="#o"/>
<use x="240.917969" xlink:href="#i"/>
</g>
</g>
<g clip-path="url(#a)">
<defs>
<path id="aj" d="m4.2031 54.688h8.9844l11.234-42.672 11.172 42.672h10.594l11.234-42.672 11.188 42.672h8.9844l-14.312-54.688h-10.594l-11.766 44.828-11.812-44.828h-10.609z"/>
</defs>
<g transform="translate(233.45 587.11) scale(.1 -.1)">
<use xlink:href="#aj"/>
<use x="81.787109" xlink:href="#e"/>
<use x="143.310547" xlink:href="#g"/>
<use x="184.392578" xlink:href="#e"/>
</g>
</g>
<g clip-path="url(#a)">
<defs>
<path id="q" d="m18.312 70.219v-15.531h18.5v-6.9844h-18.5v-29.688q0-6.6875 1.8281-8.5938t7.4531-1.9062h9.2188v-7.5156h-9.2188q-10.406 0-14.359 3.875-3.9531 3.8906-3.9531 14.141v29.688h-6.5938v6.9844h6.5938v15.531z"/>
</defs>
<g transform="translate(277.77 587.11) scale(.1 -.1)">
<use xlink:href="#q"/>
<use x="39.208984" xlink:href="#g"/>
<use x="80.322266" xlink:href="#d"/>
<use x="141.601562" xlink:href="#h"/>
<use x="169.384766" xlink:href="#k"/>
<use x="197.167969" xlink:href="#e"/>
<use x="258.691406" xlink:href="#ae"/>
</g>
</g>
<g clip-path="url(#a)">
<g transform="translate(337.45 587.11) scale(.1 -.1)">
<use xlink:href="#h"/>
<use x="27.783203" xlink:href="#i"/>
</g>
</g>
<g clip-path="url(#a)">
<g transform="translate(381.86 587.11) scale(.1 -.1)">
<use xlink:href="#o"/>
<use x="61.181641" xlink:href="#ac"/>
<use x="124.560547" xlink:href="#g"/>
</g>
</g>
<g clip-path="url(#a)">
<defs>
<path id="ak" d="m9.0781 75.984h9.0312v-44.875l26.812 23.578h11.469l-29-25.578 30.234-29.109h-11.719l-27.797 26.703v-26.703h-9.0312z"/>
</defs>
<g transform="translate(425.15 587.11) scale(.1 -.1)">
<use xlink:href="#aj"/>
<use x="81.787109" xlink:href="#d"/>
<use x="143.066406" xlink:href="#ak"/>
<use x="200.929688" xlink:href="#e"/>
</g>
</g>
<g clip-path="url(#a)">
<defs>
<path id="ab" d="m11.719 12.406h10.297v-8.4062l-8-15.625h-6.2969l4 15.625z"/>
</defs>
<g transform="translate(484.82 587.11) scale(.1 -.1)">
<use xlink:href="#ab"/>
</g>
</g>
<g clip-path="url(#a)">
<g transform="translate(529.52 587.11) scale(.1 -.1)">
<use xlink:href="#q"/>
<use x="39.208984" xlink:href="#o"/>
</g>
</g>
<g clip-path="url(#a)">
<defs>
<path id="al" d="m54.891 33.016v-33.016h-8.9844v32.719q0 7.7656-3.0312 11.609-3.0312 3.8594-9.0781 3.8594-7.2812 0-11.484-4.6406-4.2031-4.625-4.2031-12.641v-30.906h-9.0312v75.984h9.0312v-29.797q3.2344 4.9375 7.5938 7.375 4.375 2.4375 10.094 2.4375 9.4219 0 14.25-5.8281 4.8438-5.8281 4.8438-17.156z"/>
</defs>
<g transform="translate(574.46 587.11) scale(.1 -.1)">
<use xlink:href="#q"/>
<use x="39.208984" xlink:href="#al"/>
<use x="102.587891" xlink:href="#e"/>
</g>
</g>
<g clip-path="url(#a)">
<defs>
<path id="av" d="m45.406 27.984q0 9.7656-4.0312 15.125-4.0156 5.375-11.297 5.375-7.2188 0-11.25-5.375-4.0312-5.3594-4.0312-15.125 0-9.7188 4.0312-15.094t11.25-5.375q7.2812 0 11.297 5.375 4.0312 5.375 4.0312 15.094zm8.9844-21.203q0-13.953-6.2031-20.766-6.1875-6.8125-18.984-6.8125-4.7344 0-8.9375 0.70312t-8.1562 2.1719v8.7344q3.9531-2.1406 7.8125-3.1562 3.8594-1.0312 7.8594-1.0312 8.8438 0 13.234 4.6094t4.3906 13.938v4.4531q-2.7812-4.8438-7.125-7.2344t-10.406-2.3906q-10.047 0-16.203 7.6562-6.1562 7.6719-6.1562 20.328 0 12.688 6.1562 20.344 6.1562 7.6719 16.203 7.6719 6.0625 0 10.406-2.3906t7.125-7.2188v8.2969h8.9844z"/>
</defs>
<g transform="translate(617.47 587.11) scale(.1 -.1)">
<use xlink:href="#av"/>
<use x="63.476562" xlink:href="#g"/>
<use x="104.558594" xlink:href="#e"/>
<use x="166.082031" xlink:href="#d"/>
<use x="227.361328" xlink:href="#q"/>
</g>
</g>
<g clip-path="url(#a)">
<g transform="translate(650.15 587.11) scale(.1 -.1)">
<use xlink:href="#n"/>
<use x="52.099609" xlink:href="#d"/>
<use x="113.378906" xlink:href="#q"/>
<use x="152.587891" xlink:href="#h"/>
<use x="180.371094" xlink:href="#n"/>
<use x="232.470703" xlink:href="#ad"/>
<use x="267.675781" xlink:href="#d"/>
<use x="328.955078" xlink:href="#af"/>
<use x="383.935547" xlink:href="#q"/>
<use x="423.144531" xlink:href="#h"/>
<use x="450.927734" xlink:href="#o"/>
<use x="512.109375" xlink:href="#i"/>
</g>
</g>
<g clip-path="url(#a)">
<g transform="translate(725.47 587.11) scale(.1 -.1)">
<use xlink:href="#ab"/>
</g>
</g>
<g clip-path="url(#a)">
<defs>
<path id="aq" d="m9.8125 72.906h9.8594v-72.906h-9.8594z"/>
</defs>
<g transform="translate(773.72 587.11) scale(.1 -.1)">
<use xlink:href="#aq"/>
</g>
</g>
<g clip-path="url(#a)">
<g transform="translate(810.72 587.11) scale(.1 -.1)">
<use xlink:href="#j"/>
<use x="97.412109" xlink:href="#ac"/>
<use x="160.791016" xlink:href="#n"/>
<use x="212.890625" xlink:href="#q"/>
</g>
</g>
<g clip-path="url(#a)">
<defs>
<path id="au" d="m32.172-5.0781q-3.7969-9.7656-7.4219-12.734-3.6094-2.9844-9.6562-2.9844h-7.1875v7.5156h5.2812q3.7031 0 5.75 1.7656 2.0625 1.75 4.5469 8.2969l1.6094 4.0938-22.109 53.812h9.5156l17.094-42.766 17.094 42.766h9.5156z"/>
</defs>
<g transform="translate(862.82 587.11) scale(.1 -.1)">
<use xlink:href="#n"/>
<use x="52.099609" xlink:href="#d"/>
<use x="113.378906" xlink:href="#au"/>
</g>
</g>
<g clip-path="url(#a)">
<g transform="translate(917.99 587.11) scale(.1 -.1)">
<use xlink:href="#ab"/>
</g>
</g>
<g clip-path="url(#a)">
<g transform="translate(962.89 587.11) scale(.1 -.1)">
<use xlink:href="#o"/>
<use x="61.181641" xlink:href="#ad"/>
</g>
</g>
<g clip-path="url(#a)">
<g transform="translate(994.25 587.11) scale(.1 -.1)">
<use xlink:href="#d"/>
<use x="61.279297" xlink:href="#n"/>
<use x="113.378906" xlink:href="#n"/>
<use x="165.478516" xlink:href="#o"/>
<use x="226.660156" xlink:href="#g"/>
<use x="267.773438" xlink:href="#q"/>
<use x="306.982422" xlink:href="#e"/>
<use x="368.505859" xlink:href="#ae"/>
</g>
</g>
<g clip-path="url(#a)">
<g transform="translate(1047.6 587.11) scale(.1 -.1)">
<use xlink:href="#n"/>
<use x="52.099609" xlink:href="#al"/>
<use x="115.478516" xlink:href="#d"/>
<use x="176.757812" xlink:href="#g"/>
<use x="217.871094" xlink:href="#ak"/>
<use x="275.78125" xlink:href="#n"/>
</g>
</g>
<g clip-path="url(#a)">
<defs>
<path id="f" d="m10.688 12.406h10.312v-12.406h-10.312z"/>
</defs>
<g transform="translate(1110.5 587.11) scale(.1 -.1)">
<use xlink:href="#f"/>
</g>
</g>
<g clip-path="url(#a)">
<defs>
<path id="c" d="m12.406 8.2969h16.109v55.625l-17.531-3.5156v8.9844l17.438 3.5156h9.8594v-64.609h16.109v-8.2969h-41.984z"/>
</defs>
<g transform="translate(513.55 31.744) scale(.1 -.1)">
<use xlink:href="#c"/>
<use x="63.623047" xlink:href="#f"/>
<use x="95.410156" xlink:href="#c"/>
</g>
</g>
<g clip-path="url(#a)">
<defs>
<path id="m" d="m19.188 8.2969h34.422v-8.2969h-46.281v8.2969q5.6094 5.8125 15.297 15.594 9.7031 9.7969 12.188 12.641 4.7344 5.3125 6.6094 9 1.8906 3.6875 1.8906 7.25 0 5.8125-4.0781 9.4688-4.0781 3.6719-10.625 3.6719-4.6406 0-9.7969-1.6094-5.1406-1.6094-11-4.8906v9.9688q5.9531 2.3906 11.125 3.6094 5.1875 1.2188 9.4844 1.2188 11.328 0 18.062-5.6719 6.7344-5.6562 6.7344-15.125 0-4.5-1.6875-8.5312-1.6719-4.0156-6.125-9.4844-1.2188-1.4219-7.7656-8.1875-6.5312-6.7656-18.453-18.922z"/>
</defs>
<g transform="translate(261.86 146.75) scale(.1 -.1)">
<use xlink:href="#c"/>
<use x="63.623047" xlink:href="#f"/>
<use x="95.410156" xlink:href="#m"/>
</g>
</g>
<g clip-path="url(#a)">
<defs>
<path id="p" d="m40.578 39.312q7.0781-1.5156 11.047-6.3125 3.9844-4.7812 3.9844-11.812 0-10.781-7.4219-16.703-7.4219-5.9062-21.094-5.9062-4.5781 0-9.4375 0.90625t-10.031 2.7188v9.5156q4.0938-2.3906 8.9688-3.6094 4.8906-1.2188 10.219-1.2188 9.2656 0 14.125 3.6562t4.8594 10.641q0 6.4531-4.5156 10.078-4.5156 3.6406-12.562 3.6406h-8.5v8.1094h8.8906q7.2656 0 11.125 2.9062t3.8594 8.375q0 5.6094-3.9844 8.6094-3.9688 3.0156-11.391 3.0156-4.0625 0-8.7031-0.89062-4.6406-0.875-10.203-2.7188v8.7812q5.625 1.5625 10.531 2.3438t9.25 0.78125q11.234 0 17.766-5.1094 6.5469-5.0938 6.5469-13.781 0-6.0625-3.4688-10.234t-9.8594-5.7812z"/>
</defs>
<g transform="translate(526.58 478.31) scale(.1 -.1)">
<use xlink:href="#c"/>
<use x="63.623047" xlink:href="#f"/>
<use x="95.410156" xlink:href="#p"/>
</g>
</g>
<g clip-path="url(#a)">
<defs>
<path id="z" d="m37.797 64.312-24.906-38.922h24.906zm-2.5938 8.5938h12.406v-47.516h10.406v-8.2031h-10.406v-17.188h-9.8125v17.188h-32.906v9.5156z"/>
</defs>
<g transform="translate(787.29 259.19) scale(.1 -.1)">
<use xlink:href="#c"/>
<use x="63.623047" xlink:href="#f"/>
<use x="95.410156" xlink:href="#z"/>
</g>
</g>
<g clip-path="url(#a)">
<defs>
<path id="y" d="m8.2031 72.906h46.875v-4.2031l-26.469-68.703h-10.297l24.906 64.594h-35.016z"/>
</defs>
<g transform="translate(622.85 369.5) scale(.1 -.1)">
<use xlink:href="#c"/>
<use x="63.623047" xlink:href="#f"/>
<use x="95.410156" xlink:href="#y"/>
</g>
</g>
<g clip-path="url(#a)">
<defs>
<path id="x" d="m31.781 34.625q-7.0312 0-11.062-3.7656-4.0156-3.7656-4.0156-10.344 0-6.5938 4.0156-10.359 4.0312-3.7656 11.062-3.7656t11.078 3.7812q4.0625 3.7969 4.0625 10.344 0 6.5781-4.0312 10.344-4.0156 3.7656-11.109 3.7656zm-9.8594 4.1875q-6.3438 1.5625-9.8906 5.9062-3.5312 4.3594-3.5312 10.609 0 8.7344 6.2188 13.812 6.2344 5.0781 17.062 5.0781 10.891 0 17.094-5.0781t6.2031-13.812q0-6.25-3.5469-10.609-3.5312-4.3438-9.8281-5.9062 7.125-1.6562 11.094-6.5 3.9844-4.8281 3.9844-11.797 0-10.609-6.4688-16.281-6.4688-5.6562-18.531-5.6562-12.047 0-18.531 5.6562-6.4688 5.6719-6.4688 16.281 0 6.9688 4 11.797 4.0156 4.8438 11.141 6.5zm-3.6094 15.578q0-5.6562 3.5312-8.8281 3.5469-3.1719 9.9375-3.1719 6.3594 0 9.9375 3.1719 3.5938 3.1719 3.5938 8.8281 0 5.6719-3.5938 8.8438-3.5781 3.1719-9.9375 3.1719-6.3906 0-9.9375-3.1719-3.5312-3.1719-3.5312-8.8438z"/>
</defs>
<g transform="translate(622.85 478.31) scale(.1 -.1)">
<use xlink:href="#c"/>
<use x="63.623047" xlink:href="#f"/>
<use x="95.410156" xlink:href="#x"/>
</g>
</g>
<g clip-path="url(#a)">
<defs>
<path id="w" d="m10.984 1.5156v8.9844q3.7188-1.7656 7.5156-2.6875 3.8125-0.92188 7.4844-0.92188 9.7656 0 14.906 6.5625 5.1562 6.5625 5.8906 19.953-2.8281-4.2031-7.1875-6.4531-4.3438-2.25-9.6094-2.25-10.938 0-17.312 6.6094-6.375 6.625-6.375 18.109 0 11.219 6.6406 18 6.6406 6.7969 17.672 6.7969 12.656 0 19.312-9.7031 6.6719-9.6875 6.6719-28.141 0-17.234-8.1875-27.516-8.1719-10.281-21.984-10.281-3.7188 0-7.5312 0.73438-3.7969 0.73438-7.9062 2.2031zm19.625 30.906q6.6406 0 10.516 4.5312 3.8906 4.5469 3.8906 12.469 0 7.8594-3.8906 12.422-3.875 4.5625-10.516 4.5625t-10.516-4.5625-3.875-12.422q0-7.9219 3.875-12.469 3.875-4.5312 10.516-4.5312z"/>
</defs>
<g transform="translate(815.37 478.31) scale(.1 -.1)">
<use xlink:href="#c"/>
<use x="63.623047" xlink:href="#f"/>
<use x="95.410156" xlink:href="#w"/>
</g>
</g>
<g clip-path="url(#a)">
<defs>
<path id="aa" d="m31.781 66.406q-7.6094 0-11.453-7.5-3.8281-7.4844-3.8281-22.531 0-14.984 3.8281-22.484 3.8438-7.5 11.453-7.5 7.6719 0 11.5 7.5 3.8438 7.5 3.8438 22.484 0 15.047-3.8438 22.531-3.8281 7.5-11.5 7.5zm0 7.8125q12.266 0 18.734-9.7031 6.4688-9.6875 6.4688-28.141 0-18.406-6.4688-28.109-6.4688-9.6875-18.734-9.6875-12.25 0-18.719 9.6875-6.4688 9.7031-6.4688 28.109 0 18.453 6.4688 28.141 6.4688 9.7031 18.719 9.7031z"/>
</defs>
<g transform="translate(1028.8 369.5) scale(.1 -.1)">
<use xlink:href="#c"/>
<use x="63.623047" xlink:href="#f"/>
<use x="95.410156" xlink:href="#c"/>
<use x="159.033203" xlink:href="#aa"/>
</g>
</g>
<g clip-path="url(#a)">
<g transform="translate(956.58 478.31) scale(.1 -.1)">
<use xlink:href="#c"/>
<use x="63.623047" xlink:href="#f"/>
<use x="95.410156" xlink:href="#c"/>
<use x="159.033203" xlink:href="#p"/>
</g>
</g>
<g clip-path="url(#a)">
<g transform="translate(1004.7 478.31) scale(.1 -.1)">
<use xlink:href="#c"/>
<use x="63.623047" xlink:href="#f"/>
<use x="95.410156" xlink:href="#c"/>
<use x="159.033203" xlink:href="#z"/>
</g>
</g>
<g clip-path="url(#a)">
<defs>
<path id="ai" d="m10.797 72.906h38.719v-8.3125h-29.688v-17.859q2.1406 0.73438 4.2812 1.0938 2.1562 0.35938 4.3125 0.35938 12.203 0 19.328-6.6875 7.1406-6.6875 7.1406-18.109 0-11.766-7.3281-18.297-7.3281-6.5156-20.656-6.5156-4.5938 0-9.3594 0.78125-4.75 0.78125-9.8281 2.3438v9.9219q4.3906-2.3906 9.0781-3.5625t9.9062-1.1719q8.4531 0 13.375 4.4375 4.9375 4.4375 4.9375 12.062 0 7.6094-4.9375 12.047-4.9219 4.4531-13.375 4.4531-3.9531 0-7.8906-0.875-3.9219-0.875-8.0156-2.7344z"/>
</defs>
<g transform="translate(1052.8 478.31) scale(.1 -.1)">
<use xlink:href="#c"/>
<use x="63.623047" xlink:href="#f"/>
<use x="95.410156" xlink:href="#c"/>
<use x="159.033203" xlink:href="#ai"/>
</g>
</g>
<g clip-path="url(#a)">
<defs>
<path id="ah" d="m33.016 40.375q-6.6406 0-10.531-4.5469-3.875-4.5312-3.875-12.438 0-7.8594 3.875-12.438 3.8906-4.5625 10.531-4.5625t10.516 4.5625q3.875 4.5781 3.875 12.438 0 7.9062-3.875 12.438-3.875 4.5469-10.516 4.5469zm19.578 30.922v-8.9844q-3.7188 1.75-7.5 2.6719-3.7812 0.9375-7.5 0.9375-9.7656 0-14.922-6.5938-5.1406-6.5938-5.875-19.922 2.875 4.25 7.2188 6.5156 4.3594 2.2656 9.5781 2.2656 10.984 0 17.359-6.6719 6.375-6.6562 6.375-18.125 0-11.234-6.6406-18.031-6.6406-6.7812-17.672-6.7812-12.656 0-19.344 9.6875-6.6875 9.7031-6.6875 28.109 0 17.281 8.2031 27.562t22.016 10.281q3.7188 0 7.5-0.73438t7.8906-2.1875z"/>
</defs>
<g transform="translate(571.53 478.31) scale(.1 -.1)">
<use xlink:href="#c"/>
<use x="63.623047" xlink:href="#f"/>
<use x="95.410156" xlink:href="#c"/>
<use x="159.033203" xlink:href="#ah"/>
</g>
</g>
<g clip-path="url(#a)">
<g transform="translate(667.8 478.31) scale(.1 -.1)">
<use xlink:href="#c"/>
<use x="63.623047" xlink:href="#f"/>
<use x="95.410156" xlink:href="#c"/>
<use x="159.033203" xlink:href="#y"/>
</g>
</g>
<g clip-path="url(#a)">
<g transform="translate(138.36 259.19) scale(.1 -.1)">
<use xlink:href="#c"/>
<use x="63.623047" xlink:href="#f"/>
<use x="95.410156" xlink:href="#c"/>
<use x="159.033203" xlink:href="#x"/>
</g>
</g>
<g clip-path="url(#a)">
<g transform="translate(234.62 478.31) scale(.1 -.1)">
<use xlink:href="#c"/>
<use x="63.623047" xlink:href="#f"/>
<use x="95.410156" xlink:href="#c"/>
<use x="159.033203" xlink:href="#w"/>
</g>
</g>
<g clip-path="url(#a)">
<g transform="translate(282.75 478.31) scale(.1 -.1)">
<use xlink:href="#c"/>
<use x="63.623047" xlink:href="#f"/>
<use x="95.410156" xlink:href="#m"/>
<use x="159.033203" xlink:href="#aa"/>
</g>
</g>
<g clip-path="url(#a)">
<g transform="translate(379.01 369.5) scale(.1 -.1)">
<use xlink:href="#c"/>
<use x="63.623047" xlink:href="#f"/>
<use x="95.410156" xlink:href="#m"/>
<use x="159.033203" xlink:href="#c"/>
</g>
</g>
<g clip-path="url(#a)">
<g transform="translate(330.88 478.31) scale(.1 -.1)">
<use xlink:href="#c"/>
<use x="63.623047" xlink:href="#f"/>
<use x="95.410156" xlink:href="#m"/>
<use x="159.033203" xlink:href="#m"/>
</g>
</g>
<g clip-path="url(#a)">
<g transform="translate(379.01 478.31) scale(.1 -.1)">
<use xlink:href="#c"/>
<use x="63.623047" xlink:href="#f"/>
<use x="95.410156" xlink:href="#m"/>
<use x="159.033203" xlink:href="#p"/>
</g>
</g>
<g clip-path="url(#a)">
<g transform="translate(427.14 478.31) scale(.1 -.1)">
<use xlink:href="#c"/>
<use x="63.623047" xlink:href="#f"/>
<use x="95.410156" xlink:href="#m"/>
<use x="159.033203" xlink:href="#z"/>
</g>
</g>
<g clip-path="url(#a)">
<g transform="translate(90.225 369.5) scale(.1 -.1)">
<use xlink:href="#c"/>
<use x="63.623047" xlink:href="#f"/>
<use x="95.410156" xlink:href="#m"/>
<use x="159.033203" xlink:href="#ai"/>
</g>
</g>
<g clip-path="url(#a)">
<g transform="translate(186.49 478.31) scale(.1 -.1)">
<use xlink:href="#c"/>
<use x="63.623047" xlink:href="#f"/>
<use x="95.410156" xlink:href="#m"/>
<use x="159.033203" xlink:href="#ah"/>
</g>
</g>
<g clip-path="url(#a)">
<g transform="translate(42.094 478.31) scale(.1 -.1)">
<use xlink:href="#c"/>
<use x="63.623047" xlink:href="#f"/>
<use x="95.410156" xlink:href="#m"/>
<use x="159.033203" xlink:href="#y"/>
</g>
</g>
<g clip-path="url(#a)">
<g transform="translate(90.225 478.31) scale(.1 -.1)">
<use xlink:href="#c"/>
<use x="63.623047" xlink:href="#f"/>
<use x="95.410156" xlink:href="#m"/>
<use x="159.033203" xlink:href="#x"/>
</g>
</g>
<g clip-path="url(#a)">
<g transform="translate(138.36 478.31) scale(.1 -.1)">
<use xlink:href="#c"/>
<use x="63.623047" xlink:href="#f"/>
<use x="95.410156" xlink:href="#m"/>
<use x="159.033203" xlink:href="#w"/>
</g>
</g>
<g clip-path="url(#a)">
<g transform="translate(475.27 478.31) scale(.1 -.1)">
<use xlink:href="#c"/>
<use x="63.623047" xlink:href="#f"/>
<use x="95.410156" xlink:href="#p"/>
<use x="159.033203" xlink:href="#aa"/>
</g>
</g>
<g clip-path="url(#a)">
<g transform="translate(715.93 478.31) scale(.1 -.1)">
<use xlink:href="#c"/>
<use x="63.623047" xlink:href="#f"/>
<use x="95.410156" xlink:href="#p"/>
<use x="159.033203" xlink:href="#c"/>
</g>
</g>
<g clip-path="url(#a)">
<g transform="translate(908.45 478.31) scale(.1 -.1)">
<use xlink:href="#c"/>
<use x="63.623047" xlink:href="#f"/>
<use x="95.410156" xlink:href="#p"/>
<use x="159.033203" xlink:href="#m"/>
</g>
</g>
<g clip-path="url(#a)">
<g transform="translate(1101 478.31) scale(.1 -.1)">
<use xlink:href="#c"/>
<use x="63.623047" xlink:href="#f"/>
<use x="95.410156" xlink:href="#p"/>
<use x="159.033203" xlink:href="#p"/>
</g>
</g>
<defs>
<clipPath id="a">
<rect width="1165.3" height="613.33"/>
</clipPath>
</defs>
</svg>
