<?xml version="1.0" encoding="utf-8" standalone="no"?>
<!DOCTYPE svg PUBLIC "-//W3C//DTD SVG 1.1//EN"
  "http://www.w3.org/Graphics/SVG/1.1/DTD/svg11.dtd">
<!-- Created with matplotlib (https://matplotlib.org/) -->
<svg height="106.666667pt" version="1.1" viewBox="0 0 202.666667 106.666667" width="202.666667pt" xmlns="http://www.w3.org/2000/svg" xmlns:xlink="http://www.w3.org/1999/xlink">
 <defs>
  <style type="text/css">
*{stroke-linecap:butt;stroke-linejoin:round;}
  </style>
 </defs>
 <g id="figure_1">
  <g id="patch_1">
   <path d="M 0 106.666667 
L 202.666667 106.666667 
L 202.666667 0 
L 0 0 
z
" style="fill:#ffffff;"/>
  </g>
  <g id="axes_1">
   <g id="LineCollection_1">
    <path clip-path="url(#p42fba78806)" d="M 121.393262 6.209719 
L 121.393262 30.274467 
" style="fill:none;stroke:#000000;"/>
    <path clip-path="url(#p42fba78806)" d="M 121.393262 30.274467 
L 41.153547 53.884585 
" style="fill:none;stroke:#000000;"/>
    <path clip-path="url(#p42fba78806)" d="M 121.393262 30.274467 
L 131.423226 77.170767 
" style="fill:none;stroke:#000000;"/>
    <path clip-path="url(#p42fba78806)" d="M 121.393262 30.274467 
L 191.603013 77.170767 
" style="fill:none;stroke:#000000;"/>
    <path clip-path="url(#p42fba78806)" d="M 41.153547 53.884585 
L 11.063654 77.170767 
" style="fill:none;stroke:#000000;"/>
    <path clip-path="url(#p42fba78806)" d="M 41.153547 53.884585 
L 71.24344 77.170767 
" style="fill:none;stroke:#000000;"/>
    <path clip-path="url(#p42fba78806)" d="M 131.423226 77.170767 
L 131.423226 100.456948 
" style="fill:none;stroke:#000000;"/>
    <path clip-path="url(#p42fba78806)" d="M 11.063654 77.170767 
L 11.063654 100.456948 
" style="fill:none;stroke:#000000;"/>
    <path clip-path="url(#p42fba78806)" d="M 71.24344 77.170767 
L 71.24344 100.456948 
" style="fill:none;stroke:#000000;"/>
    <path clip-path="url(#p42fba78806)" d="M 191.603013 77.170767 
L 191.603013 100.456948 
" style="fill:none;stroke:#000000;"/>
   </g>
   <g id="text_1">
    <g id="patch_2">
     <path clip-path="url(#p42fba78806)" d="M 115.122012 15.233968 
L 115.122012 21.250218 
Q 115.122012 23.650218 117.522012 23.650218 
L 125.264512 23.650218 
Q 127.664512 23.650218 127.664512 21.250218 
L 127.664512 15.233968 
Q 127.664512 12.833968 125.264512 12.833968 
L 117.522012 12.833968 
Q 115.122012 12.833968 115.122012 15.233968 
z
" style="fill:#ffffff;stroke:#ffffff;stroke-linejoin:miter;"/>
    </g>
    <g clip-path="url(#p42fba78806)">
     <!-- H -->
     <defs>
      <path d="M 9.8125 72.90625 
L 19.671875 72.90625 
L 19.671875 43.015625 
L 55.515625 43.015625 
L 55.515625 72.90625 
L 65.375 72.90625 
L 65.375 0 
L 55.515625 0 
L 55.515625 34.71875 
L 19.671875 34.71875 
L 19.671875 0 
L 9.8125 0 
z
" id="DejaVuSans-72"/>
     </defs>
     <g transform="translate(119.185762 15.233968)rotate(-270)scale(0.08 -0.08)">
      <use xlink:href="#DejaVuSans-72"/>
     </g>
    </g>
   </g>
   <g id="text_2">
    <g id="patch_3">
     <path clip-path="url(#p42fba78806)" d="M 80.699875 48.785382 
L 85.387413 47.406098 
Q 87.689811 46.728629 87.012343 44.426231 
L 84.826801 36.9986 
Q 84.149332 34.696202 81.846934 35.37367 
L 77.159396 36.752954 
Q 74.856998 37.430423 75.534467 39.732821 
L 77.720008 47.160452 
Q 78.397477 49.46285 80.699875 48.785382 
z
" style="fill:#ffffff;stroke:#ffffff;stroke-linejoin:miter;"/>
    </g>
    <g clip-path="url(#p42fba78806)">
     <!-- T -->
     <defs>
      <path d="M -0.296875 72.90625 
L 61.375 72.90625 
L 61.375 64.59375 
L 35.5 64.59375 
L 35.5 0 
L 25.59375 0 
L 25.59375 64.59375 
L -0.296875 64.59375 
z
" id="DejaVuSans-84"/>
     </defs>
     <g transform="translate(79.552765 44.886894)rotate(-16.396245)scale(0.08 -0.08)">
      <use xlink:href="#DejaVuSans-84"/>
     </g>
    </g>
   </g>
   <g id="text_3">
    <g id="patch_4">
     <path clip-path="url(#p42fba78806)" d="M 119.771253 52.675685 
L 120.780118 57.392755 
Q 121.282067 59.739678 123.62899 59.237729 
L 131.200261 57.618421 
Q 133.547184 57.116472 133.045235 54.769549 
L 132.03637 50.052478 
Q 131.534421 47.705555 129.187498 48.207504 
L 121.616227 49.826813 
Q 119.269304 50.328762 119.771253 52.675685 
z
" style="fill:#ffffff;stroke:#ffffff;stroke-linejoin:miter;"/>
    </g>
    <g clip-path="url(#p42fba78806)">
     <!-- P -->
     <defs>
      <path d="M 19.671875 64.796875 
L 19.671875 37.40625 
L 32.078125 37.40625 
Q 38.96875 37.40625 42.71875 40.96875 
Q 46.484375 44.53125 46.484375 51.125 
Q 46.484375 57.671875 42.71875 61.234375 
Q 38.96875 64.796875 32.078125 64.796875 
z
M 9.8125 72.90625 
L 32.078125 72.90625 
Q 44.34375 72.90625 50.609375 67.359375 
Q 56.890625 61.8125 56.890625 51.125 
Q 56.890625 40.328125 50.609375 34.8125 
Q 44.34375 29.296875 32.078125 29.296875 
L 19.671875 29.296875 
L 19.671875 0 
L 9.8125 0 
z
" id="DejaVuSans-80"/>
     </defs>
     <g transform="translate(123.745131 51.82577)rotate(-282.072277)scale(0.08 -0.08)">
      <use xlink:href="#DejaVuSans-80"/>
     </g>
    </g>
   </g>
   <g id="text_4">
    <g id="patch_5">
     <path clip-path="url(#p42fba78806)" d="M 150.580468 57.311492 
L 155.449247 60.563572 
Q 157.444988 61.896619 158.778036 59.900877 
L 163.078501 53.462531 
Q 164.411548 51.466789 162.415806 50.133742 
L 157.547028 46.881662 
Q 155.551286 45.548615 154.218239 47.544357 
L 149.917773 53.982703 
Q 148.584726 55.978445 150.580468 57.311492 
z
" style="fill:#ffffff;stroke:#ffffff;stroke-linejoin:miter;"/>
    </g>
    <g clip-path="url(#p42fba78806)">
     <!-- U -->
     <defs>
      <path d="M 8.6875 72.90625 
L 18.609375 72.90625 
L 18.609375 28.609375 
Q 18.609375 16.890625 22.84375 11.734375 
Q 27.09375 6.59375 36.625 6.59375 
Q 46.09375 6.59375 50.34375 11.734375 
Q 54.59375 16.890625 54.59375 28.609375 
L 54.59375 72.90625 
L 64.5 72.90625 
L 64.5 27.390625 
Q 64.5 13.140625 57.4375 5.859375 
Q 50.390625 -1.421875 36.625 -1.421875 
Q 22.796875 -1.421875 15.734375 5.859375 
Q 8.6875 13.140625 8.6875 27.390625 
z
" id="DejaVuSans-85"/>
     </defs>
     <g transform="translate(152.837622 53.932244)rotate(-326.259229)scale(0.08 -0.08)">
      <use xlink:href="#DejaVuSans-85"/>
     </g>
    </g>
   </g>
   <g id="text_5">
    <g id="patch_6">
     <path clip-path="url(#p42fba78806)" d="M 27.947891 72.034122 
L 31.945592 68.940353 
Q 33.843611 67.471501 32.374759 65.573482 
L 27.636181 59.450396 
Q 26.167329 57.552377 24.26931 59.02123 
L 20.271609 62.114999 
Q 18.373591 63.583851 19.842443 65.481869 
L 24.581021 71.604956 
Q 26.049873 73.502974 27.947891 72.034122 
z
" style="fill:#ffffff;stroke:#ffffff;stroke-linejoin:miter;"/>
    </g>
    <g clip-path="url(#p42fba78806)">
     <!-- E -->
     <defs>
      <path d="M 9.8125 72.90625 
L 55.90625 72.90625 
L 55.90625 64.59375 
L 19.671875 64.59375 
L 19.671875 43.015625 
L 54.390625 43.015625 
L 54.390625 34.71875 
L 19.671875 34.71875 
L 19.671875 8.296875 
L 56.78125 8.296875 
L 56.78125 0 
L 9.8125 0 
z
" id="DejaVuSans-69"/>
     </defs>
     <g transform="translate(25.460788 68.820342)rotate(-37.735827)scale(0.08 -0.08)">
      <use xlink:href="#DejaVuSans-69"/>
     </g>
    </g>
   </g>
   <g id="text_6">
    <g id="patch_7">
     <path clip-path="url(#p42fba78806)" d="M 50.151435 68.777784 
L 54.569271 72.19669 
Q 56.467289 73.665542 57.936141 71.767524 
L 62.674719 65.644438 
Q 64.143571 63.746419 62.245552 62.277567 
L 57.827717 58.858661 
Q 55.929699 57.389809 54.460847 59.287828 
L 49.722269 65.410914 
Q 48.253417 67.308932 50.151435 68.777784 
z
" style="fill:#ffffff;stroke:#ffffff;stroke-linejoin:miter;"/>
    </g>
    <g clip-path="url(#p42fba78806)">
     <!-- C -->
     <defs>
      <path d="M 64.40625 67.28125 
L 64.40625 56.890625 
Q 59.421875 61.53125 53.78125 63.8125 
Q 48.140625 66.109375 41.796875 66.109375 
Q 29.296875 66.109375 22.65625 58.46875 
Q 16.015625 50.828125 16.015625 36.375 
Q 16.015625 21.96875 22.65625 14.328125 
Q 29.296875 6.6875 41.796875 6.6875 
Q 48.140625 6.6875 53.78125 8.984375 
Q 59.421875 11.28125 64.40625 15.921875 
L 64.40625 5.609375 
Q 59.234375 2.09375 53.4375 0.328125 
Q 47.65625 -1.421875 41.21875 -1.421875 
Q 24.65625 -1.421875 15.125 8.703125 
Q 5.609375 18.84375 5.609375 36.375 
Q 5.609375 53.953125 15.125 64.078125 
Q 24.65625 74.21875 41.21875 74.21875 
Q 47.75 74.21875 53.53125 72.484375 
Q 59.328125 70.75 64.40625 67.28125 
z
" id="DejaVuSans-67"/>
     </defs>
     <g transform="translate(52.638538 65.564004)rotate(-322.264173)scale(0.08 -0.08)">
      <use xlink:href="#DejaVuSans-67"/>
     </g>
    </g>
   </g>
   <g id="text_7">
    <g id="patch_8">
     <path clip-path="url(#p42fba78806)" d="M 125.151976 71.171357 
L 125.151976 106.456357 
Q 125.151976 108.856357 127.551976 108.856357 
L 135.294476 108.856357 
Q 137.694476 108.856357 137.694476 106.456357 
L 137.694476 71.171357 
Q 137.694476 68.771357 135.294476 68.771357 
L 127.551976 68.771357 
Q 125.151976 68.771357 125.151976 71.171357 
z
" style="fill:#ffffff;stroke:#ffffff;stroke-linejoin:miter;"/>
    </g>
    <g clip-path="url(#p42fba78806)">
     <!-- Terminal -->
     <defs>
      <path d="M 56.203125 29.59375 
L 56.203125 25.203125 
L 14.890625 25.203125 
Q 15.484375 15.921875 20.484375 11.0625 
Q 25.484375 6.203125 34.421875 6.203125 
Q 39.59375 6.203125 44.453125 7.46875 
Q 49.3125 8.734375 54.109375 11.28125 
L 54.109375 2.78125 
Q 49.265625 0.734375 44.1875 -0.34375 
Q 39.109375 -1.421875 33.890625 -1.421875 
Q 20.796875 -1.421875 13.15625 6.1875 
Q 5.515625 13.8125 5.515625 26.8125 
Q 5.515625 40.234375 12.765625 48.109375 
Q 20.015625 56 32.328125 56 
Q 43.359375 56 49.78125 48.890625 
Q 56.203125 41.796875 56.203125 29.59375 
z
M 47.21875 32.234375 
Q 47.125 39.59375 43.09375 43.984375 
Q 39.0625 48.390625 32.421875 48.390625 
Q 24.90625 48.390625 20.390625 44.140625 
Q 15.875 39.890625 15.1875 32.171875 
z
" id="DejaVuSans-101"/>
      <path d="M 41.109375 46.296875 
Q 39.59375 47.171875 37.8125 47.578125 
Q 36.03125 48 33.890625 48 
Q 26.265625 48 22.1875 43.046875 
Q 18.109375 38.09375 18.109375 28.8125 
L 18.109375 0 
L 9.078125 0 
L 9.078125 54.6875 
L 18.109375 54.6875 
L 18.109375 46.1875 
Q 20.953125 51.171875 25.484375 53.578125 
Q 30.03125 56 36.53125 56 
Q 37.453125 56 38.578125 55.875 
Q 39.703125 55.765625 41.0625 55.515625 
z
" id="DejaVuSans-114"/>
      <path d="M 52 44.1875 
Q 55.375 50.25 60.0625 53.125 
Q 64.75 56 71.09375 56 
Q 79.640625 56 84.28125 50.015625 
Q 88.921875 44.046875 88.921875 33.015625 
L 88.921875 0 
L 79.890625 0 
L 79.890625 32.71875 
Q 79.890625 40.578125 77.09375 44.375 
Q 74.3125 48.1875 68.609375 48.1875 
Q 61.625 48.1875 57.5625 43.546875 
Q 53.515625 38.921875 53.515625 30.90625 
L 53.515625 0 
L 44.484375 0 
L 44.484375 32.71875 
Q 44.484375 40.625 41.703125 44.40625 
Q 38.921875 48.1875 33.109375 48.1875 
Q 26.21875 48.1875 22.15625 43.53125 
Q 18.109375 38.875 18.109375 30.90625 
L 18.109375 0 
L 9.078125 0 
L 9.078125 54.6875 
L 18.109375 54.6875 
L 18.109375 46.1875 
Q 21.1875 51.21875 25.484375 53.609375 
Q 29.78125 56 35.6875 56 
Q 41.65625 56 45.828125 52.96875 
Q 50 49.953125 52 44.1875 
z
" id="DejaVuSans-109"/>
      <path d="M 9.421875 54.6875 
L 18.40625 54.6875 
L 18.40625 0 
L 9.421875 0 
z
M 9.421875 75.984375 
L 18.40625 75.984375 
L 18.40625 64.59375 
L 9.421875 64.59375 
z
" id="DejaVuSans-105"/>
      <path d="M 54.890625 33.015625 
L 54.890625 0 
L 45.90625 0 
L 45.90625 32.71875 
Q 45.90625 40.484375 42.875 44.328125 
Q 39.84375 48.1875 33.796875 48.1875 
Q 26.515625 48.1875 22.3125 43.546875 
Q 18.109375 38.921875 18.109375 30.90625 
L 18.109375 0 
L 9.078125 0 
L 9.078125 54.6875 
L 18.109375 54.6875 
L 18.109375 46.1875 
Q 21.34375 51.125 25.703125 53.5625 
Q 30.078125 56 35.796875 56 
Q 45.21875 56 50.046875 50.171875 
Q 54.890625 44.34375 54.890625 33.015625 
z
" id="DejaVuSans-110"/>
      <path d="M 34.28125 27.484375 
Q 23.390625 27.484375 19.1875 25 
Q 14.984375 22.515625 14.984375 16.5 
Q 14.984375 11.71875 18.140625 8.90625 
Q 21.296875 6.109375 26.703125 6.109375 
Q 34.1875 6.109375 38.703125 11.40625 
Q 43.21875 16.703125 43.21875 25.484375 
L 43.21875 27.484375 
z
M 52.203125 31.203125 
L 52.203125 0 
L 43.21875 0 
L 43.21875 8.296875 
Q 40.140625 3.328125 35.546875 0.953125 
Q 30.953125 -1.421875 24.3125 -1.421875 
Q 15.921875 -1.421875 10.953125 3.296875 
Q 6 8.015625 6 15.921875 
Q 6 25.140625 12.171875 29.828125 
Q 18.359375 34.515625 30.609375 34.515625 
L 43.21875 34.515625 
L 43.21875 35.40625 
Q 43.21875 41.609375 39.140625 45 
Q 35.0625 48.390625 27.6875 48.390625 
Q 23 48.390625 18.546875 47.265625 
Q 14.109375 46.140625 10.015625 43.890625 
L 10.015625 52.203125 
Q 14.9375 54.109375 19.578125 55.046875 
Q 24.21875 56 28.609375 56 
Q 40.484375 56 46.34375 49.84375 
Q 52.203125 43.703125 52.203125 31.203125 
z
" id="DejaVuSans-97"/>
      <path d="M 9.421875 75.984375 
L 18.40625 75.984375 
L 18.40625 0 
L 9.421875 0 
z
" id="DejaVuSans-108"/>
     </defs>
     <g transform="translate(129.215726 71.171357)rotate(-270)scale(0.08 -0.08)">
      <use xlink:href="#DejaVuSans-84"/>
      <use x="60.818359" xlink:href="#DejaVuSans-101"/>
      <use x="122.341797" xlink:href="#DejaVuSans-114"/>
      <use x="163.439453" xlink:href="#DejaVuSans-109"/>
      <use x="260.851562" xlink:href="#DejaVuSans-105"/>
      <use x="288.634766" xlink:href="#DejaVuSans-110"/>
      <use x="352.013672" xlink:href="#DejaVuSans-97"/>
      <use x="413.292969" xlink:href="#DejaVuSans-108"/>
     </g>
    </g>
   </g>
   <g id="text_8">
    <g id="patch_9">
     <path clip-path="url(#p42fba78806)" d="M 4.792404 71.171357 
L 4.792404 106.456357 
Q 4.792404 108.856357 7.192404 108.856357 
L 14.934904 108.856357 
Q 17.334904 108.856357 17.334904 106.456357 
L 17.334904 71.171357 
Q 17.334904 68.771357 14.934904 68.771357 
L 7.192404 68.771357 
Q 4.792404 68.771357 4.792404 71.171357 
z
" style="fill:#ffffff;stroke:#ffffff;stroke-linejoin:miter;"/>
    </g>
    <g clip-path="url(#p42fba78806)">
     <!-- Terminal -->
     <g transform="translate(8.856154 71.171357)rotate(-270)scale(0.08 -0.08)">
      <use xlink:href="#DejaVuSans-84"/>
      <use x="60.818359" xlink:href="#DejaVuSans-101"/>
      <use x="122.341797" xlink:href="#DejaVuSans-114"/>
      <use x="163.439453" xlink:href="#DejaVuSans-109"/>
      <use x="260.851562" xlink:href="#DejaVuSans-105"/>
      <use x="288.634766" xlink:href="#DejaVuSans-110"/>
      <use x="352.013672" xlink:href="#DejaVuSans-97"/>
      <use x="413.292969" xlink:href="#DejaVuSans-108"/>
     </g>
    </g>
   </g>
   <g id="text_9">
    <g id="patch_10">
     <path clip-path="url(#p42fba78806)" d="M 64.97219 71.171357 
L 64.97219 106.456357 
Q 64.97219 108.856357 67.37219 108.856357 
L 75.11469 108.856357 
Q 77.51469 108.856357 77.51469 106.456357 
L 77.51469 71.171357 
Q 77.51469 68.771357 75.11469 68.771357 
L 67.37219 68.771357 
Q 64.97219 68.771357 64.97219 71.171357 
z
" style="fill:#ffffff;stroke:#ffffff;stroke-linejoin:miter;"/>
    </g>
    <g clip-path="url(#p42fba78806)">
     <!-- Terminal -->
     <g transform="translate(69.03594 71.171357)rotate(-270)scale(0.08 -0.08)">
      <use xlink:href="#DejaVuSans-84"/>
      <use x="60.818359" xlink:href="#DejaVuSans-101"/>
      <use x="122.341797" xlink:href="#DejaVuSans-114"/>
      <use x="163.439453" xlink:href="#DejaVuSans-109"/>
      <use x="260.851562" xlink:href="#DejaVuSans-105"/>
      <use x="288.634766" xlink:href="#DejaVuSans-110"/>
      <use x="352.013672" xlink:href="#DejaVuSans-97"/>
      <use x="413.292969" xlink:href="#DejaVuSans-108"/>
     </g>
    </g>
   </g>
   <g id="text_10">
    <g id="patch_11">
     <path clip-path="url(#p42fba78806)" d="M 185.331763 71.171357 
L 185.331763 106.456357 
Q 185.331763 108.856357 187.731763 108.856357 
L 195.474263 108.856357 
Q 197.874263 108.856357 197.874263 106.456357 
L 197.874263 71.171357 
Q 197.874263 68.771357 195.474263 68.771357 
L 187.731763 68.771357 
Q 185.331763 68.771357 185.331763 71.171357 
z
" style="fill:#ffffff;stroke:#ffffff;stroke-linejoin:miter;"/>
    </g>
    <g clip-path="url(#p42fba78806)">
     <!-- Terminal -->
     <g transform="translate(189.395513 71.171357)rotate(-270)scale(0.08 -0.08)">
      <use xlink:href="#DejaVuSans-84"/>
      <use x="60.818359" xlink:href="#DejaVuSans-101"/>
      <use x="122.341797" xlink:href="#DejaVuSans-114"/>
      <use x="163.439453" xlink:href="#DejaVuSans-109"/>
      <use x="260.851562" xlink:href="#DejaVuSans-105"/>
      <use x="288.634766" xlink:href="#DejaVuSans-110"/>
      <use x="352.013672" xlink:href="#DejaVuSans-97"/>
      <use x="413.292969" xlink:href="#DejaVuSans-108"/>
     </g>
    </g>
   </g>
   <g id="PathCollection_1">
    <defs>
     <path d="M 0 8.660254 
C 2.296726 8.660254 4.499694 7.747755 6.123724 6.123724 
C 7.747755 4.499694 8.660254 2.296726 8.660254 0 
C 8.660254 -2.296726 7.747755 -4.499694 6.123724 -6.123724 
C 4.499694 -7.747755 2.296726 -8.660254 0 -8.660254 
C -2.296726 -8.660254 -4.499694 -7.747755 -6.123724 -6.123724 
C -7.747755 -4.499694 -8.660254 -2.296726 -8.660254 0 
C -8.660254 2.296726 -7.747755 4.499694 -6.123724 6.123724 
C -4.499694 7.747755 -2.296726 8.660254 0 8.660254 
z
" id="C0_0_3b74711b28"/>
    </defs>
    <g clip-path="url(#p42fba78806)">
     <use style="fill:#ffffff;stroke:#ffffff;" x="11.063654" xlink:href="#C0_0_3b74711b28" y="100.456948"/>
    </g>
    <g clip-path="url(#p42fba78806)">
     <use style="fill:#ffffff;stroke:#ffffff;" x="71.24344" xlink:href="#C0_0_3b74711b28" y="100.456948"/>
    </g>
    <g clip-path="url(#p42fba78806)">
     <use style="fill:#ffffff;stroke:#ffffff;" x="131.423226" xlink:href="#C0_0_3b74711b28" y="100.456948"/>
    </g>
    <g clip-path="url(#p42fba78806)">
     <use style="fill:#ffffff;stroke:#ffffff;" x="191.603013" xlink:href="#C0_0_3b74711b28" y="100.456948"/>
    </g>
    <g clip-path="url(#p42fba78806)">
     <use style="fill:#ffffff;stroke:#ffffff;" x="121.393262" xlink:href="#C0_0_3b74711b28" y="6.209719"/>
    </g>
    <g clip-path="url(#p42fba78806)">
     <use style="fill:#ffffff;stroke:#ffffff;" x="121.393262" xlink:href="#C0_0_3b74711b28" y="30.274467"/>
    </g>
    <g clip-path="url(#p42fba78806)">
     <use style="fill:#ffffff;stroke:#ffffff;" x="41.153547" xlink:href="#C0_0_3b74711b28" y="53.884585"/>
    </g>
    <g clip-path="url(#p42fba78806)">
     <use style="fill:#ffffff;stroke:#ffffff;" x="131.423226" xlink:href="#C0_0_3b74711b28" y="77.170767"/>
    </g>
    <g clip-path="url(#p42fba78806)">
     <use style="fill:#ffffff;stroke:#ffffff;" x="11.063654" xlink:href="#C0_0_3b74711b28" y="77.170767"/>
    </g>
    <g clip-path="url(#p42fba78806)">
     <use style="fill:#ffffff;stroke:#ffffff;" x="71.24344" xlink:href="#C0_0_3b74711b28" y="77.170767"/>
    </g>
    <g clip-path="url(#p42fba78806)">
     <use style="fill:#ffffff;stroke:#ffffff;" x="191.603013" xlink:href="#C0_0_3b74711b28" y="77.170767"/>
    </g>
   </g>
   <g id="text_11">
    <g clip-path="url(#p42fba78806)">
     <!-- Two -->
     <defs>
      <path d="M 4.203125 54.6875 
L 13.1875 54.6875 
L 24.421875 12.015625 
L 35.59375 54.6875 
L 46.1875 54.6875 
L 57.421875 12.015625 
L 68.609375 54.6875 
L 77.59375 54.6875 
L 63.28125 0 
L 52.6875 0 
L 40.921875 44.828125 
L 29.109375 0 
L 18.5 0 
z
" id="DejaVuSans-119"/>
      <path d="M 30.609375 48.390625 
Q 23.390625 48.390625 19.1875 42.75 
Q 14.984375 37.109375 14.984375 27.296875 
Q 14.984375 17.484375 19.15625 11.84375 
Q 23.34375 6.203125 30.609375 6.203125 
Q 37.796875 6.203125 41.984375 11.859375 
Q 46.1875 17.53125 46.1875 27.296875 
Q 46.1875 37.015625 41.984375 42.703125 
Q 37.796875 48.390625 30.609375 48.390625 
z
M 30.609375 56 
Q 42.328125 56 49.015625 48.375 
Q 55.71875 40.765625 55.71875 27.296875 
Q 55.71875 13.875 49.015625 6.21875 
Q 42.328125 -1.421875 30.609375 -1.421875 
Q 18.84375 -1.421875 12.171875 6.21875 
Q 5.515625 13.875 5.515625 27.296875 
Q 5.515625 40.765625 12.171875 48.375 
Q 18.84375 56 30.609375 56 
z
" id="DejaVuSans-111"/>
     </defs>
     <g transform="translate(0.87381 103.216323)scale(0.1 -0.1)">
      <use xlink:href="#DejaVuSans-84"/>
      <use x="60.833984" xlink:href="#DejaVuSans-119"/>
      <use x="142.621094" xlink:href="#DejaVuSans-111"/>
     </g>
    </g>
   </g>
   <g id="text_12">
    <g clip-path="url(#p42fba78806)">
     <!-- days -->
     <defs>
      <path d="M 45.40625 46.390625 
L 45.40625 75.984375 
L 54.390625 75.984375 
L 54.390625 0 
L 45.40625 0 
L 45.40625 8.203125 
Q 42.578125 3.328125 38.25 0.953125 
Q 33.9375 -1.421875 27.875 -1.421875 
Q 17.96875 -1.421875 11.734375 6.484375 
Q 5.515625 14.40625 5.515625 27.296875 
Q 5.515625 40.1875 11.734375 48.09375 
Q 17.96875 56 27.875 56 
Q 33.9375 56 38.25 53.625 
Q 42.578125 51.265625 45.40625 46.390625 
z
M 14.796875 27.296875 
Q 14.796875 17.390625 18.875 11.75 
Q 22.953125 6.109375 30.078125 6.109375 
Q 37.203125 6.109375 41.296875 11.75 
Q 45.40625 17.390625 45.40625 27.296875 
Q 45.40625 37.203125 41.296875 42.84375 
Q 37.203125 48.484375 30.078125 48.484375 
Q 22.953125 48.484375 18.875 42.84375 
Q 14.796875 37.203125 14.796875 27.296875 
z
" id="DejaVuSans-100"/>
      <path d="M 32.171875 -5.078125 
Q 28.375 -14.84375 24.75 -17.8125 
Q 21.140625 -20.796875 15.09375 -20.796875 
L 7.90625 -20.796875 
L 7.90625 -13.28125 
L 13.1875 -13.28125 
Q 16.890625 -13.28125 18.9375 -11.515625 
Q 21 -9.765625 23.484375 -3.21875 
L 25.09375 0.875 
L 2.984375 54.6875 
L 12.5 54.6875 
L 29.59375 11.921875 
L 46.6875 54.6875 
L 56.203125 54.6875 
z
" id="DejaVuSans-121"/>
      <path d="M 44.28125 53.078125 
L 44.28125 44.578125 
Q 40.484375 46.53125 36.375 47.5 
Q 32.28125 48.484375 27.875 48.484375 
Q 21.1875 48.484375 17.84375 46.4375 
Q 14.5 44.390625 14.5 40.28125 
Q 14.5 37.15625 16.890625 35.375 
Q 19.28125 33.59375 26.515625 31.984375 
L 29.59375 31.296875 
Q 39.15625 29.25 43.1875 25.515625 
Q 47.21875 21.78125 47.21875 15.09375 
Q 47.21875 7.46875 41.1875 3.015625 
Q 35.15625 -1.421875 24.609375 -1.421875 
Q 20.21875 -1.421875 15.453125 -0.5625 
Q 10.6875 0.296875 5.421875 2 
L 5.421875 11.28125 
Q 10.40625 8.6875 15.234375 7.390625 
Q 20.0625 6.109375 24.8125 6.109375 
Q 31.15625 6.109375 34.5625 8.28125 
Q 37.984375 10.453125 37.984375 14.40625 
Q 37.984375 18.0625 35.515625 20.015625 
Q 33.0625 21.96875 24.703125 23.78125 
L 21.578125 24.515625 
Q 13.234375 26.265625 9.515625 29.90625 
Q 5.8125 33.546875 5.8125 39.890625 
Q 5.8125 47.609375 11.28125 51.796875 
Q 16.75 56 26.8125 56 
Q 31.78125 56 36.171875 55.265625 
Q 40.578125 54.546875 44.28125 53.078125 
z
" id="DejaVuSans-115"/>
     </defs>
     <g transform="translate(59.441097 103.216323)scale(0.1 -0.1)">
      <use xlink:href="#DejaVuSans-100"/>
      <use x="63.476562" xlink:href="#DejaVuSans-97"/>
      <use x="124.755859" xlink:href="#DejaVuSans-121"/>
      <use x="183.935547" xlink:href="#DejaVuSans-115"/>
     </g>
    </g>
   </g>
   <g id="text_13">
    <g clip-path="url(#p42fba78806)">
     <!-- passed -->
     <defs>
      <path d="M 18.109375 8.203125 
L 18.109375 -20.796875 
L 9.078125 -20.796875 
L 9.078125 54.6875 
L 18.109375 54.6875 
L 18.109375 46.390625 
Q 20.953125 51.265625 25.265625 53.625 
Q 29.59375 56 35.59375 56 
Q 45.5625 56 51.78125 48.09375 
Q 58.015625 40.1875 58.015625 27.296875 
Q 58.015625 14.40625 51.78125 6.484375 
Q 45.5625 -1.421875 35.59375 -1.421875 
Q 29.59375 -1.421875 25.265625 0.953125 
Q 20.953125 3.328125 18.109375 8.203125 
z
M 48.6875 27.296875 
Q 48.6875 37.203125 44.609375 42.84375 
Q 40.53125 48.484375 33.40625 48.484375 
Q 26.265625 48.484375 22.1875 42.84375 
Q 18.109375 37.203125 18.109375 27.296875 
Q 18.109375 17.390625 22.1875 11.75 
Q 26.265625 6.109375 33.40625 6.109375 
Q 40.53125 6.109375 44.609375 11.75 
Q 48.6875 17.390625 48.6875 27.296875 
z
" id="DejaVuSans-112"/>
     </defs>
     <g transform="translate(113.724789 103.216323)scale(0.1 -0.1)">
      <use xlink:href="#DejaVuSans-112"/>
      <use x="63.476562" xlink:href="#DejaVuSans-97"/>
      <use x="124.755859" xlink:href="#DejaVuSans-115"/>
      <use x="176.855469" xlink:href="#DejaVuSans-115"/>
      <use x="228.955078" xlink:href="#DejaVuSans-101"/>
      <use x="290.478516" xlink:href="#DejaVuSans-100"/>
     </g>
    </g>
   </g>
   <g id="text_14">
    <g clip-path="url(#p42fba78806)">
     <!-- . -->
     <defs>
      <path d="M 10.6875 12.40625 
L 21 12.40625 
L 21 0 
L 10.6875 0 
z
" id="DejaVuSans-46"/>
     </defs>
     <g transform="translate(190.01395 103.216323)scale(0.1 -0.1)">
      <use xlink:href="#DejaVuSans-46"/>
     </g>
    </g>
   </g>
   <g id="text_15">
    <g clip-path="url(#p42fba78806)">
     <!-- 1.1 -->
     <defs>
      <path d="M 12.40625 8.296875 
L 28.515625 8.296875 
L 28.515625 63.921875 
L 10.984375 60.40625 
L 10.984375 69.390625 
L 28.421875 72.90625 
L 38.28125 72.90625 
L 38.28125 8.296875 
L 54.390625 8.296875 
L 54.390625 0 
L 12.40625 0 
z
" id="DejaVuSans-49"/>
     </defs>
     <g transform="translate(113.4417 8.969094)scale(0.1 -0.1)">
      <use xlink:href="#DejaVuSans-49"/>
      <use x="63.623047" xlink:href="#DejaVuSans-46"/>
      <use x="95.410156" xlink:href="#DejaVuSans-49"/>
     </g>
    </g>
   </g>
   <g id="text_16">
    <g clip-path="url(#p42fba78806)">
     <!-- 1.2 -->
     <defs>
      <path d="M 19.1875 8.296875 
L 53.609375 8.296875 
L 53.609375 0 
L 7.328125 0 
L 7.328125 8.296875 
Q 12.9375 14.109375 22.625 23.890625 
Q 32.328125 33.6875 34.8125 36.53125 
Q 39.546875 41.84375 41.421875 45.53125 
Q 43.3125 49.21875 43.3125 52.78125 
Q 43.3125 58.59375 39.234375 62.25 
Q 35.15625 65.921875 28.609375 65.921875 
Q 23.96875 65.921875 18.8125 64.3125 
Q 13.671875 62.703125 7.8125 59.421875 
L 7.8125 69.390625 
Q 13.765625 71.78125 18.9375 73 
Q 24.125 74.21875 28.421875 74.21875 
Q 39.75 74.21875 46.484375 68.546875 
Q 53.21875 62.890625 53.21875 53.421875 
Q 53.21875 48.921875 51.53125 44.890625 
Q 49.859375 40.875 45.40625 35.40625 
Q 44.1875 33.984375 37.640625 27.21875 
Q 31.109375 20.453125 19.1875 8.296875 
z
" id="DejaVuSans-50"/>
     </defs>
     <g transform="translate(113.4417 33.033842)scale(0.1 -0.1)">
      <use xlink:href="#DejaVuSans-49"/>
      <use x="63.623047" xlink:href="#DejaVuSans-46"/>
      <use x="95.410156" xlink:href="#DejaVuSans-50"/>
     </g>
    </g>
   </g>
   <g id="text_17">
    <g clip-path="url(#p42fba78806)">
     <!-- 1.4 -->
     <defs>
      <path d="M 37.796875 64.3125 
L 12.890625 25.390625 
L 37.796875 25.390625 
z
M 35.203125 72.90625 
L 47.609375 72.90625 
L 47.609375 25.390625 
L 58.015625 25.390625 
L 58.015625 17.1875 
L 47.609375 17.1875 
L 47.609375 0 
L 37.796875 0 
L 37.796875 17.1875 
L 4.890625 17.1875 
L 4.890625 26.703125 
z
" id="DejaVuSans-52"/>
     </defs>
     <g transform="translate(33.201985 56.64396)scale(0.1 -0.1)">
      <use xlink:href="#DejaVuSans-49"/>
      <use x="63.623047" xlink:href="#DejaVuSans-46"/>
      <use x="95.410156" xlink:href="#DejaVuSans-52"/>
     </g>
    </g>
   </g>
   <g id="text_18">
    <g clip-path="url(#p42fba78806)">
     <!-- 1.5 -->
     <defs>
      <path d="M 10.796875 72.90625 
L 49.515625 72.90625 
L 49.515625 64.59375 
L 19.828125 64.59375 
L 19.828125 46.734375 
Q 21.96875 47.46875 24.109375 47.828125 
Q 26.265625 48.1875 28.421875 48.1875 
Q 40.625 48.1875 47.75 41.5 
Q 54.890625 34.8125 54.890625 23.390625 
Q 54.890625 11.625 47.5625 5.09375 
Q 40.234375 -1.421875 26.90625 -1.421875 
Q 22.3125 -1.421875 17.546875 -0.640625 
Q 12.796875 0.140625 7.71875 1.703125 
L 7.71875 11.625 
Q 12.109375 9.234375 16.796875 8.0625 
Q 21.484375 6.890625 26.703125 6.890625 
Q 35.15625 6.890625 40.078125 11.328125 
Q 45.015625 15.765625 45.015625 23.390625 
Q 45.015625 31 40.078125 35.4375 
Q 35.15625 39.890625 26.703125 39.890625 
Q 22.75 39.890625 18.8125 39.015625 
Q 14.890625 38.140625 10.796875 36.28125 
z
" id="DejaVuSans-53"/>
     </defs>
     <g transform="translate(123.471664 79.930142)scale(0.1 -0.1)">
      <use xlink:href="#DejaVuSans-49"/>
      <use x="63.623047" xlink:href="#DejaVuSans-46"/>
      <use x="95.410156" xlink:href="#DejaVuSans-53"/>
     </g>
    </g>
   </g>
   <g id="text_19">
    <g clip-path="url(#p42fba78806)">
     <!-- 1.6 -->
     <defs>
      <path d="M 33.015625 40.375 
Q 26.375 40.375 22.484375 35.828125 
Q 18.609375 31.296875 18.609375 23.390625 
Q 18.609375 15.53125 22.484375 10.953125 
Q 26.375 6.390625 33.015625 6.390625 
Q 39.65625 6.390625 43.53125 10.953125 
Q 47.40625 15.53125 47.40625 23.390625 
Q 47.40625 31.296875 43.53125 35.828125 
Q 39.65625 40.375 33.015625 40.375 
z
M 52.59375 71.296875 
L 52.59375 62.3125 
Q 48.875 64.0625 45.09375 64.984375 
Q 41.3125 65.921875 37.59375 65.921875 
Q 27.828125 65.921875 22.671875 59.328125 
Q 17.53125 52.734375 16.796875 39.40625 
Q 19.671875 43.65625 24.015625 45.921875 
Q 28.375 48.1875 33.59375 48.1875 
Q 44.578125 48.1875 50.953125 41.515625 
Q 57.328125 34.859375 57.328125 23.390625 
Q 57.328125 12.15625 50.6875 5.359375 
Q 44.046875 -1.421875 33.015625 -1.421875 
Q 20.359375 -1.421875 13.671875 8.265625 
Q 6.984375 17.96875 6.984375 36.375 
Q 6.984375 53.65625 15.1875 63.9375 
Q 23.390625 74.21875 37.203125 74.21875 
Q 40.921875 74.21875 44.703125 73.484375 
Q 48.484375 72.75 52.59375 71.296875 
z
" id="DejaVuSans-54"/>
     </defs>
     <g transform="translate(3.112092 79.930142)scale(0.1 -0.1)">
      <use xlink:href="#DejaVuSans-49"/>
      <use x="63.623047" xlink:href="#DejaVuSans-46"/>
      <use x="95.410156" xlink:href="#DejaVuSans-54"/>
     </g>
    </g>
   </g>
   <g id="text_20">
    <g clip-path="url(#p42fba78806)">
     <!-- 1.7 -->
     <defs>
      <path d="M 8.203125 72.90625 
L 55.078125 72.90625 
L 55.078125 68.703125 
L 28.609375 0 
L 18.3125 0 
L 43.21875 64.59375 
L 8.203125 64.59375 
z
" id="DejaVuSans-55"/>
     </defs>
     <g transform="translate(63.291878 79.930142)scale(0.1 -0.1)">
      <use xlink:href="#DejaVuSans-49"/>
      <use x="63.623047" xlink:href="#DejaVuSans-46"/>
      <use x="95.410156" xlink:href="#DejaVuSans-55"/>
     </g>
    </g>
   </g>
   <g id="text_21">
    <g clip-path="url(#p42fba78806)">
     <!-- 1.8 -->
     <defs>
      <path d="M 31.78125 34.625 
Q 24.75 34.625 20.71875 30.859375 
Q 16.703125 27.09375 16.703125 20.515625 
Q 16.703125 13.921875 20.71875 10.15625 
Q 24.75 6.390625 31.78125 6.390625 
Q 38.8125 6.390625 42.859375 10.171875 
Q 46.921875 13.96875 46.921875 20.515625 
Q 46.921875 27.09375 42.890625 30.859375 
Q 38.875 34.625 31.78125 34.625 
z
M 21.921875 38.8125 
Q 15.578125 40.375 12.03125 44.71875 
Q 8.5 49.078125 8.5 55.328125 
Q 8.5 64.0625 14.71875 69.140625 
Q 20.953125 74.21875 31.78125 74.21875 
Q 42.671875 74.21875 48.875 69.140625 
Q 55.078125 64.0625 55.078125 55.328125 
Q 55.078125 49.078125 51.53125 44.71875 
Q 48 40.375 41.703125 38.8125 
Q 48.828125 37.15625 52.796875 32.3125 
Q 56.78125 27.484375 56.78125 20.515625 
Q 56.78125 9.90625 50.3125 4.234375 
Q 43.84375 -1.421875 31.78125 -1.421875 
Q 19.734375 -1.421875 13.25 4.234375 
Q 6.78125 9.90625 6.78125 20.515625 
Q 6.78125 27.484375 10.78125 32.3125 
Q 14.796875 37.15625 21.921875 38.8125 
z
M 18.3125 54.390625 
Q 18.3125 48.734375 21.84375 45.5625 
Q 25.390625 42.390625 31.78125 42.390625 
Q 38.140625 42.390625 41.71875 45.5625 
Q 45.3125 48.734375 45.3125 54.390625 
Q 45.3125 60.0625 41.71875 63.234375 
Q 38.140625 66.40625 31.78125 66.40625 
Q 25.390625 66.40625 21.84375 63.234375 
Q 18.3125 60.0625 18.3125 54.390625 
z
" id="DejaVuSans-56"/>
     </defs>
     <g transform="translate(183.65145 79.930142)scale(0.1 -0.1)">
      <use xlink:href="#DejaVuSans-49"/>
      <use x="63.623047" xlink:href="#DejaVuSans-46"/>
      <use x="95.410156" xlink:href="#DejaVuSans-56"/>
     </g>
    </g>
   </g>
  </g>
 </g>
 <defs>
  <clipPath id="p42fba78806">
   <rect height="106.666667" width="202.666667" x="0" y="0"/>
  </clipPath>
 </defs>
</svg>
