<?xml version="1.0" encoding="UTF-8"?>
<!DOCTYPE svg  PUBLIC '-//W3C//DTD SVG 1.1//EN'  'http://www.w3.org/Graphics/SVG/1.1/DTD/svg11.dtd'>
<svg width="1469.3pt" height="773.33pt" version="1.1" viewBox="0 0 1469.3 773.33" xmlns="http://www.w3.org/2000/svg" xmlns:xlink="http://www.w3.org/1999/xlink">
<defs>
<style type="text/css">*{stroke-linecap:butt;stroke-linejoin:round;}</style>
</defs>
<path d="m0 773.33h1469.3v-773.33h-1469.3z" fill="#fff"/>
<g fill="none" stroke="#000">
<path d="m557.53 35.152-474.98 471.25" clip-path="url(#a)"/>
<path d="m557.53 35.152-362.42 353.94" clip-path="url(#a)"/>
<path d="m557.53 35.152-17.304 236.24" clip-path="url(#a)"/>
<path d="m557.53 35.152 108.34 587.94" clip-path="url(#a)"/>
<path d="m557.53 35.152 126.97 236.24" clip-path="url(#a)"/>
<path d="m557.53 35.152 369.19 587.94" clip-path="url(#a)"/>
<path d="m557.53 35.152 445.7 118.24" clip-path="url(#a)"/>
<path d="m557.53 35.152-195.5 587.94" clip-path="url(#a)"/>
<path d="m82.553 506.4-15.765 116.69" clip-path="url(#a)"/>
<path d="m82.553 506.4-7.1661 116.69" clip-path="url(#a)"/>
<path d="m82.553 506.4 4.2996 116.69" clip-path="url(#a)"/>
<path d="m82.553 506.4 18.632 116.69" clip-path="url(#a)"/>
<path d="m195.11 389.09 126.79 117.3" clip-path="url(#a)"/>
<path d="m195.11 389.09-66.692 117.3" clip-path="url(#a)"/>
<path d="m195.11 389.09-33.728 234" clip-path="url(#a)"/>
<path d="m195.11 389.09-7.9305 234" clip-path="url(#a)"/>
<path d="m195.11 389.09 20.734 234" clip-path="url(#a)"/>
<path d="m195.11 389.09 87.617 117.3" clip-path="url(#a)"/>
<path d="m540.23 271.39 68.317 117.7" clip-path="url(#a)"/>
<path d="m540.23 271.39-76.438 117.7" clip-path="url(#a)"/>
<path d="m540.23 271.39 10.988 351.7" clip-path="url(#a)"/>
<path d="m540.23 271.39 65.45 351.7" clip-path="url(#a)"/>
<path d="m665.87 623.09v115.09" clip-path="url(#a)"/>
<path d="m684.5 271.39 173.42 117.7" clip-path="url(#a)"/>
<path d="m684.5 271.39 41.563 351.7" clip-path="url(#a)"/>
<path d="m684.5 271.39-41.563 117.7" clip-path="url(#a)"/>
<path d="m926.72 623.09v115.09" clip-path="url(#a)"/>
<path d="m1003.2 153.39 399.31 118" clip-path="url(#a)"/>
<path d="m1003.2 153.39-4.857 469.7" clip-path="url(#a)"/>
<path d="m1003.2 153.39 69.67 469.7" clip-path="url(#a)"/>
<path d="m1003.2 153.39-64.813 118" clip-path="url(#a)"/>
<path d="m998.38 623.09v115.09" clip-path="url(#a)"/>
<path d="m1072.9 623.09v115.09" clip-path="url(#a)"/>
<path d="m938.42 271.39 211.88 351.7" clip-path="url(#a)"/>
<path d="m938.42 271.39-211.88 117.7" clip-path="url(#a)"/>
<path d="m1150.3 623.09v115.09" clip-path="url(#a)"/>
<path d="m726.55 389.09 588.1 117.3" clip-path="url(#a)"/>
<path d="m726.55 389.09-588.1 234" clip-path="url(#a)" stroke-dasharray="3.7,1.6"/>
<path d="m1314.6 506.4-84.082 116.69" clip-path="url(#a)"/>
<path d="m1314.6 506.4-0.95548 116.69" clip-path="url(#a)"/>
<path d="m1314.6 506.4 85.037 116.69" clip-path="url(#a)"/>
<path d="m1230.6 623.09v115.09" clip-path="url(#a)"/>
<path d="m1313.7 623.09v115.09" clip-path="url(#a)"/>
<path d="m726.07 623.09v115.09" clip-path="url(#a)"/>
<path d="m642.94 389.09 146.19 234" clip-path="url(#a)"/>
<path d="m642.94 389.09-146.19 117.3" clip-path="url(#a)"/>
<path d="m789.13 623.09v115.09" clip-path="url(#a)"/>
<path d="m496.75 506.4 358.3 116.69" clip-path="url(#a)"/>
<path d="m496.75 506.4-358.3 116.69" clip-path="url(#a)" stroke-dasharray="3.7,1.6"/>
<path d="m855.06 623.09v115.09" clip-path="url(#a)"/>
<path d="m463.79 389.09-35.83 117.3" clip-path="url(#a)"/>
<path d="m463.79 389.09 35.83 234" clip-path="url(#a)"/>
<path d="m551.21 623.09v115.09" clip-path="url(#a)"/>
<path d="m605.68 623.09v115.09" clip-path="url(#a)"/>
<path d="m427.96 506.4-22.931 116.69" clip-path="url(#a)"/>
<path d="m427.96 506.4 22.931 116.69" clip-path="url(#a)"/>
<path d="m499.62 623.09v115.09" clip-path="url(#a)"/>
<path d="m405.03 623.09v115.09" clip-path="url(#a)"/>
<path d="m450.89 623.09v115.09" clip-path="url(#a)"/>
<path d="m128.42 506.4-10.033 116.69" clip-path="url(#a)"/>
<path d="m128.42 506.4 10.033 116.69" clip-path="url(#a)"/>
<path d="m161.38 623.09v115.09" clip-path="url(#a)"/>
<path d="m187.18 623.09v115.09" clip-path="url(#a)"/>
<path d="m215.84 623.09v115.09" clip-path="url(#a)"/>
<path d="m282.73 506.4-35.353 116.69" clip-path="url(#a)"/>
<path d="m282.73 506.4-0.95548 116.69" clip-path="url(#a)"/>
<path d="m282.73 506.4 36.308 116.69" clip-path="url(#a)"/>
<path d="m247.37 623.09v115.09" clip-path="url(#a)"/>
<path d="m281.77 623.09v115.09" clip-path="url(#a)"/>
<path d="m319.03 623.09v115.09" clip-path="url(#a)"/>
<path d="m118.38 623.09v115.09" clip-path="url(#a)"/>
<path d="m138.45 623.09v115.09" clip-path="url(#a)"/>
<path d="m66.788 623.09v115.09" clip-path="url(#a)"/>
<path d="m75.387 623.09v115.09" clip-path="url(#a)"/>
<path d="m86.853 623.09v115.09" clip-path="url(#a)"/>
<path d="m101.19 623.09v115.09" clip-path="url(#a)"/>
<path d="m272.63 153.39-190.08 353.01" clip-path="url(#a)"/>
<path d="m272.63 153.39-77.521 235.7" clip-path="url(#a)"/>
<path d="m272.63 153.39 267.6 118" clip-path="url(#a)"/>
<path d="m362.03 623.09v115.09" clip-path="url(#a)"/>
<path d="m1399.7 623.09v115.09" clip-path="url(#a)"/>
</g>
<path d="m322.88 276.8 3.1643-3.1395q1.7037-1.6904 0.013381-3.3941l-5.4531-5.4963q-1.6904-1.7037-3.3941-0.013381l-3.1643 3.1395q-1.7037 1.6904-0.013381 3.3941l5.4531 5.4963q1.6904 1.7037 3.3941 0.013382z" clip-path="url(#a)" fill="#fff" stroke="#fff"/>
<g clip-path="url(#a)">
<defs>
<path id="t" d="m9.8125 72.906h9.8594v-64.609h35.5v-8.2969h-45.359z"/>
</defs>
<g transform="translate(320.01 273.91) rotate(-44.774) scale(.08 -.08)">
<use xlink:href="#t"/>
</g>
</g>
<path d="m378.55 218.71 4.3042-4.2035q1.717-1.6769 0.040172-3.3939l-5.4096-5.5392q-1.6769-1.717-3.3939-0.040172l-4.3042 4.2035q-1.717 1.6769-0.040172 3.3939l5.4096 5.5392q1.6769 1.717 3.3939 0.040172z" clip-path="url(#a)" fill="#fff" stroke="#fff"/>
<g clip-path="url(#a)">
<defs>
<path id="ae" d="m9.8125 72.906h9.8594v-29.891h35.844v29.891h9.8594v-72.906h-9.8594v34.719h-35.844v-34.719h-9.8594z"/>
</defs>
<g transform="translate(375.71 215.8) rotate(-44.322) scale(.08 -.08)">
<use xlink:href="#ae"/>
</g>
</g>
<path d="m554.91 156.73 0.4395-6.0002q0.17533-2.3936-2.2183-2.5689l-7.7218-0.56561q-2.3936-0.17533-2.5689 2.2183l-0.4395 6.0002q-0.17533 2.3936 2.2183 2.5689l7.7218 0.56561q2.3936 0.17533 2.5689-2.2183z" clip-path="url(#a)" fill="#fff" stroke="#fff"/>
<g clip-path="url(#a)">
<g transform="translate(550.86 156.43) rotate(-85.811) scale(.08 -.08)">
<use xlink:href="#ae"/>
</g>
</g>
<path d="m605.13 328.07 0.8078 4.3837q0.43493 2.3603 2.7952 1.9253l7.6143-1.4031q2.3603-0.43493 1.9253-2.7952l-0.8078-4.3837q-0.43493-2.3603-2.7952-1.9253l-7.6143 1.4031q-2.3603 0.43493-1.9253 2.7952z" clip-path="url(#a)" fill="#fff" stroke="#fff"/>
<g clip-path="url(#a)">
<g transform="translate(609.13 327.33) rotate(79.559) scale(.08 -.08)">
<use xlink:href="#t"/>
</g>
</g>
<path d="m614.07 153.59 2.8482 5.2993q1.1362 2.114 3.2502 0.97778l6.8199-3.6655q2.114-1.1362 0.97778-3.2502l-2.8482-5.2993q-1.1362-2.114-3.2502-0.97778l-6.8199 3.6655q-2.114 1.1362-0.97778 3.2502z" clip-path="url(#a)" fill="#fff" stroke="#fff"/>
<g clip-path="url(#a)">
<g transform="translate(617.65 151.67) rotate(61.743) scale(.08 -.08)">
<use xlink:href="#ae"/>
</g>
</g>
<path d="m735.63 330.57 2.3704 3.775q1.2763 2.0325 3.3088 0.75623l6.557-4.1173q2.0325-1.2763 0.75623-3.3088l-2.3704-3.775q-1.2763-2.0325-3.3088-0.75623l-6.557 4.1173q-2.0325 1.2763-0.75623 3.3088z" clip-path="url(#a)" fill="#fff" stroke="#fff"/>
<g clip-path="url(#a)">
<g transform="translate(739.07 328.41) rotate(57.874) scale(.08 -.08)">
<use xlink:href="#t"/>
</g>
</g>
<path d="m775.87 99.561 5.8151 1.5427q2.3198 0.6154 2.9352-1.7044l1.9853-7.4836q0.6154-2.3198-1.7044-2.9352l-5.8151-1.5427q-2.3198-0.6154-2.9352 1.7044l-1.9853 7.4836q-0.6154 2.3198 1.7044 2.9352z" clip-path="url(#a)" fill="#fff" stroke="#fff"/>
<g clip-path="url(#a)">
<g transform="translate(776.91 95.633) rotate(14.858) scale(.08 -.08)">
<use xlink:href="#ae"/>
</g>
</g>
<path d="m464.81 333.88 1.8474-5.5559q0.75728-2.2774-1.5201-3.0347l-7.347-2.443q-2.2774-0.75728-3.0347 1.5201l-1.8474 5.5559q-0.75728 2.2774 1.5201 3.0347l7.347 2.443q2.2774 0.75728 3.0347-1.5201z" clip-path="url(#a)" fill="#fff" stroke="#fff"/>
<g clip-path="url(#a)">
<defs>
<path id="an" d="m8.6875 72.906h9.9219v-44.297q0-11.719 4.2344-16.875 4.25-5.1406 13.781-5.1406 9.4688 0 13.719 5.1406 4.25 5.1562 4.25 16.875v44.297h9.9062v-45.516q0-14.25-7.0625-21.531-7.0469-7.2812-20.812-7.2812-13.828 0-20.891 7.2812-7.0469 7.2812-7.0469 21.531z"/>
</defs>
<g transform="translate(460.95 332.6) rotate(-71.607) scale(.08 -.08)">
<use xlink:href="#an"/>
</g>
</g>
<path d="m80.513 568.34 0.74424-5.5087q0.32133-2.3784-2.0571-2.6997l-7.6728-1.0366q-2.3784-0.32133-2.6997 2.0571l-0.74424 5.5087q-0.32133 2.3784 2.0571 2.6997l7.6728 1.0366q2.3784 0.32133 2.6997-2.0571z" clip-path="url(#a)" fill="#fff" stroke="#fff"/>
<g clip-path="url(#a)">
<defs>
<path id="aa" d="m44.391 34.188q3.1719-1.0781 6.1719-4.5938t6.0312-9.6719l10.016-19.922h-10.609l-9.3125 18.703q-3.625 7.3281-7.0156 9.7188t-9.25 2.3906h-10.75v-30.812h-9.8594v72.906h22.266q12.5 0 18.656-5.2344 6.1562-5.2188 6.1562-15.766 0-6.8906-3.2031-11.438-3.2031-4.5312-9.2969-6.2812zm-24.719 30.609v-25.875h12.406q7.125 0 10.766 3.2969t3.6406 9.6875-3.6406 9.6406-10.766 3.25z"/>
</defs>
<g transform="translate(76.486 567.79) rotate(-82.306) scale(.08 -.08)">
<use xlink:href="#aa"/>
</g>
</g>
<path d="m85.075 567.65 0.30984-5.0455q0.14711-2.3955-2.2484-2.5426l-7.7279-0.47458q-2.3955-0.14711-2.5426 2.2484l-0.30984 5.0455q-0.14711 2.3955 2.2484 2.5426l7.7279 0.47458q2.3955 0.14711 2.5426-2.2484z" clip-path="url(#a)" fill="#fff" stroke="#fff"/>
<g clip-path="url(#a)">
<defs>
<path id="y" d="m9.8125 72.906h46.094v-8.3125h-36.234v-21.578h34.719v-8.2969h-34.719v-26.422h37.109v-8.2969h-46.969z"/>
</defs>
<g transform="translate(81.019 567.4) rotate(-86.486) scale(.08 -.08)">
<use xlink:href="#y"/>
</g>
</g>
<path d="m78.333 562.18 0.20569 5.5825q0.088371 2.3984 2.4867 2.31l7.7372-0.28509q2.3984-0.088371 2.31-2.4867l-0.20569-5.5825q-0.088371-2.3984-2.4867-2.31l-7.7372 0.28509q-2.3984 0.088371-2.31 2.4867z" clip-path="url(#a)" fill="#fff" stroke="#fff"/>
<g clip-path="url(#a)">
<defs>
<path id="s" d="m64.406 67.281v-10.391q-4.9844 4.6406-10.625 6.9219-5.6406 2.2969-11.984 2.2969-12.5 0-19.141-7.6406t-6.6406-22.094q0-14.406 6.6406-22.047t19.141-7.6406q6.3438 0 11.984 2.2969t10.625 6.9375v-10.312q-5.1719-3.5156-10.969-5.2812-5.7812-1.75-12.219-1.75-16.562 0-26.094 10.125-9.5156 10.141-9.5156 27.672 0 17.578 9.5156 27.703 9.5312 10.141 26.094 10.141 6.5312 0 12.312-1.7344 5.7969-1.7344 10.875-5.2031z"/>
</defs>
<g transform="translate(82.394 562.03) rotate(87.89) scale(.08 -.08)">
<use xlink:href="#s"/>
</g>
</g>
<path d="m85.238 562.99 0.87644 5.4892q0.37841 2.37 2.7484 1.9916l7.6457-1.2208q2.37-0.37841 1.9916-2.7484l-0.87644-5.4892q-0.37841-2.37-2.7484-1.9916l-7.6457 1.2208q-2.37 0.37841-1.9916 2.7484z" clip-path="url(#a)" fill="#fff" stroke="#fff"/>
<g clip-path="url(#a)">
<g transform="translate(89.251 562.35) rotate(80.928) scale(.08 -.08)">
<use xlink:href="#aa"/>
</g>
</g>
<path d="m252.24 450.49 4.017 3.7164q1.7617 1.6299 3.3916-0.13183l5.258-5.6833q1.6299-1.7617-0.13183-3.3916l-4.017-3.7164q-1.7617-1.6299-3.3916 0.13183l-5.258 5.6833q-1.6299 1.7617 0.13183 3.3916z" clip-path="url(#a)" fill="#fff" stroke="#fff"/>
<g clip-path="url(#a)">
<defs>
<path id="n" d="m34.188 63.188-13.391-36.281h26.812zm-5.5781 9.7188h11.188l27.781-72.906h-10.25l-6.6406 18.703h-32.859l-6.6406-18.703h-10.406z"/>
</defs>
<g transform="translate(255 447.51) rotate(42.774) scale(.08 -.08)">
<use xlink:href="#n"/>
</g>
</g>
<path d="m165.86 453.23 2.7048-4.7574q1.1862-2.0864-0.90018-3.2726l-6.7307-3.8267q-2.0864-1.1862-3.2726 0.90018l-2.7048 4.7574q-1.1862 2.0864 0.90018 3.2726l6.7307 3.8267q2.0864 1.1862 3.2726-0.90018z" clip-path="url(#a)" fill="#fff" stroke="#fff"/>
<g clip-path="url(#a)">
<g transform="translate(162.33 451.22) rotate(-60.38) scale(.08 -.08)">
<use xlink:href="#n"/>
</g>
</g>
<path d="m184.01 510.04 0.87882-6.097q0.3424-2.3754-2.0331-2.7178l-7.6633-1.1046q-2.3754-0.3424-2.7178 2.0331l-0.87882 6.097q-0.3424 2.3754 2.0331 2.7178l7.6633 1.1046q2.3754 0.3424 2.7178-2.0331z" clip-path="url(#a)" fill="#fff" stroke="#fff"/>
<g clip-path="url(#a)">
<defs>
<path id="au" d="m19.672 64.797v-56.688h11.922q15.094 0 22.094 6.8281 7 6.8438 7 21.594 0 14.641-7 21.453t-22.094 6.8125zm-9.8594 8.1094h20.266q21.188 0 31.094-8.8125 9.9219-8.8125 9.9219-27.562 0-18.859-9.9688-27.703-9.9531-8.8281-31.047-8.8281h-20.266z"/>
</defs>
<g transform="translate(179.99 509.46) rotate(-81.798) scale(.08 -.08)">
<use xlink:href="#au"/>
</g>
</g>
<path d="m197.33 508.6 0.15585-4.5986q0.081293-2.3986-2.3173-2.4799l-7.7381-0.26225q-2.3986-0.081293-2.4799 2.3173l-0.15585 4.5986q-0.081293 2.3986 2.3173 2.4799l7.7381 0.26225q2.3986 0.081293 2.4799-2.3173z" clip-path="url(#a)" fill="#fff" stroke="#fff"/>
<g clip-path="url(#a)">
<defs>
<path id="ap" d="m9.8125 72.906h41.891v-8.3125h-32.031v-21.484h28.906v-8.2969h-28.906v-34.812h-9.8594z"/>
</defs>
<g transform="translate(193.27 508.47) rotate(-88.059) scale(.08 -.08)">
<use xlink:href="#ap"/>
</g>
</g>
<path d="m199.02 504.24 0.42575 4.8049q0.21183 2.3906 2.6025 2.1788l7.7123-0.68337q2.3906-0.21183 2.1788-2.6025l-0.42575-4.8049q-0.21183-2.3906-2.6025-2.1788l-7.7123 0.68337q-2.3906 0.21183-2.1788 2.6025z" clip-path="url(#a)" fill="#fff" stroke="#fff"/>
<g clip-path="url(#a)">
<defs>
<path id="w" d="m19.672 64.797v-27.391h12.406q6.8906 0 10.641 3.5625 3.7656 3.5625 3.7656 10.156 0 6.5469-3.7656 10.109-3.75 3.5625-10.641 3.5625zm-9.8594 8.1094h22.266q12.266 0 18.531-5.5469 6.2812-5.5469 6.2812-16.234 0-10.797-6.2812-16.312-6.2656-5.5156-18.531-5.5156h-12.406v-29.297h-9.8594z"/>
</defs>
<g transform="translate(203.06 503.89) rotate(84.936) scale(.08 -.08)">
<use xlink:href="#w"/>
</g>
</g>
<path d="m232.26 449.31 3.2749 4.3845q1.4362 1.9228 3.359 0.48662l6.2031-4.6333q1.9228-1.4362 0.48662-3.359l-3.2749-4.3845q-1.4362-1.9228-3.359-0.48662l-6.2031 4.6333q-1.9228 1.4362-0.48662 3.359z" clip-path="url(#a)" fill="#fff" stroke="#fff"/>
<g clip-path="url(#a)">
<g transform="translate(235.51 446.88) rotate(53.243) scale(.08 -.08)">
<use xlink:href="#n"/>
</g>
</g>
<path d="m567.59 331.02 2.7471 4.733q1.2048 2.0757 3.2805 0.87094l6.6963-3.8866q2.0757-1.2048 0.87094-3.2805l-2.7471-4.733q-1.2048-2.0757-3.2805-0.87094l-6.6963 3.8866q-2.0757 1.2048-0.87094 3.2805z" clip-path="url(#a)" fill="#fff" stroke="#fff"/>
<g clip-path="url(#a)">
<g transform="translate(571.1 328.98) rotate(59.869) scale(.08 -.08)">
<use xlink:href="#n"/>
</g>
</g>
<path d="m505.78 335.95 2.9806-4.5896q1.3071-2.0128-0.70566-3.3199l-6.4934-4.2169q-2.0128-1.3071-3.3199 0.70566l-2.9806 4.5896q-1.3071 2.0128 0.70566 3.3199l6.4934 4.2169q2.0128 1.3071 3.3199-0.70566z" clip-path="url(#a)" fill="#fff" stroke="#fff"/>
<g clip-path="url(#a)">
<g transform="translate(502.37 333.74) rotate(-57) scale(.08 -.08)">
<use xlink:href="#n"/>
</g>
</g>
<path d="m539.38 445.14 0.14368 4.599q0.074945 2.3988 2.4738 2.3239l7.7387-0.24178q2.3988-0.074946 2.3239-2.4738l-0.14368-4.599q-0.074946-2.3988-2.4738-2.3239l-7.7387 0.24178q-2.3988 0.074946-2.3239 2.4738z" clip-path="url(#a)" fill="#fff" stroke="#fff"/>
<g clip-path="url(#a)">
<g transform="translate(543.44 445.01) rotate(88.211) scale(.08 -.08)">
<use xlink:href="#ap"/>
</g>
</g>
<path d="m566.35 446.02 0.88253 4.7423q0.43909 2.3595 2.7986 1.9204l7.6118-1.4165q2.3595-0.4391 1.9204-2.7986l-0.88253-4.7423q-0.4391-2.3595-2.7986-1.9204l-7.6118 1.4165q-2.3595 0.43909-1.9204 2.7986z" clip-path="url(#a)" fill="#fff" stroke="#fff"/>
<g clip-path="url(#a)">
<g transform="translate(570.34 445.27) rotate(79.458) scale(.08 -.08)">
<use xlink:href="#w"/>
</g>
</g>
<path d="m659.6 663.73v33.808q0 2.4 2.4 2.4h7.7425q2.4 0 2.4-2.4v-33.808q0-2.4-2.4-2.4h-7.7425q-2.4 0-2.4 2.4z" clip-path="url(#a)" fill="#fff" stroke="#fff"/>
<g clip-path="url(#a)">
<defs>
<path id="j" d="m-0.29688 72.906h61.672v-8.3125h-25.875v-64.594h-9.9062v64.594h-25.891z"/>
<path id="e" d="m56.203 29.594v-4.3906h-41.312q0.59375-9.2812 5.5938-14.141t13.938-4.8594q5.1719 0 10.031 1.2656t9.6562 3.8125v-8.5q-4.8438-2.0469-9.9219-3.125t-10.297-1.0781q-13.094 0-20.734 7.6094-7.6406 7.625-7.6406 20.625 0 13.422 7.25 21.297 7.25 7.8906 19.562 7.8906 11.031 0 17.453-7.1094 6.4219-7.0938 6.4219-19.297zm-8.9844 2.6406q-0.09375 7.3594-4.125 11.75-4.0312 4.4062-10.672 4.4062-7.5156 0-12.031-4.25t-5.2031-11.969z"/>
<path id="g" d="m41.109 46.297q-1.5156 0.875-3.2969 1.2812-1.7812 0.42188-3.9219 0.42188-7.625 0-11.703-4.9531t-4.0781-14.234v-28.812h-9.0312v54.688h9.0312v-8.5q2.8438 4.9844 7.375 7.3906 4.5469 2.4219 11.047 2.4219 0.92188 0 2.0469-0.125 1.125-0.10938 2.4844-0.35938z"/>
<path id="k" d="m52 44.188q3.375 6.0625 8.0625 8.9375t11.031 2.875q8.5469 0 13.188-5.9844 4.6406-5.9688 4.6406-17v-33.016h-9.0312v32.719q0 7.8594-2.7969 11.656-2.7812 3.8125-8.4844 3.8125-6.9844 0-11.047-4.6406-4.0469-4.625-4.0469-12.641v-30.906h-9.0312v32.719q0 7.9062-2.7812 11.688t-8.5938 3.7812q-6.8906 0-10.953-4.6562-4.0469-4.6562-4.0469-12.625v-30.906h-9.0312v54.688h9.0312v-8.5q3.0781 5.0312 7.375 7.4219t10.203 2.3906q5.9688 0 10.141-3.0312 4.1719-3.0156 6.1719-8.7812z"/>
<path id="i" d="m9.4219 54.688h8.9844v-54.688h-8.9844zm0 21.297h8.9844v-11.391h-8.9844z"/>
<path id="h" d="m54.891 33.016v-33.016h-8.9844v32.719q0 7.7656-3.0312 11.609-3.0312 3.8594-9.0781 3.8594-7.2812 0-11.484-4.6406-4.2031-4.625-4.2031-12.641v-30.906h-9.0312v54.688h9.0312v-8.5q3.2344 4.9375 7.5938 7.375 4.375 2.4375 10.094 2.4375 9.4219 0 14.25-5.8281 4.8438-5.8281 4.8438-17.156z"/>
<path id="f" d="m34.281 27.484q-10.891 0-15.094-2.4844t-4.2031-8.5q0-4.7812 3.1562-7.5938 3.1562-2.7969 8.5625-2.7969 7.4844 0 12 5.2969t4.5156 14.078v2zm17.922 3.7188v-31.203h-8.9844v8.2969q-3.0781-4.9688-7.6719-7.3438t-11.234-2.375q-8.3906 0-13.359 4.7188-4.9531 4.7188-4.9531 12.625 0 9.2188 6.1719 13.906 6.1875 4.6875 18.438 4.6875h12.609v0.89062q0 6.2031-4.0781 9.5938t-11.453 3.3906q-4.6875 0-9.1406-1.125-4.4375-1.125-8.5312-3.375v8.3125q4.9219 1.9062 9.5625 2.8438 4.6406 0.95312 9.0312 0.95312 11.875 0 17.734-6.1562 5.8594-6.1406 5.8594-18.641z"/>
<path id="l" d="m9.4219 75.984h8.9844v-75.984h-8.9844z"/>
</defs>
<g transform="translate(663.66 663.73) rotate(90) scale(.08 -.08)">
<use xlink:href="#j"/>
<use x="44.083984" xlink:href="#e"/>
<use x="105.607422" xlink:href="#g"/>
<use x="144.970703" xlink:href="#k"/>
<use x="242.382812" xlink:href="#i"/>
<use x="270.166016" xlink:href="#h"/>
<use x="333.544922" xlink:href="#f"/>
<use x="394.824219" xlink:href="#l"/>
</g>
</g>
<path d="m765.43 333.9 4.528 3.0733q1.9858 1.3478 3.3336-0.638l4.3481-6.4063q1.3478-1.9858-0.638-3.3336l-4.528-3.0733q-1.9858-1.3478-3.3336 0.638l-4.3481 6.4063q-1.3478 1.9858 0.638 3.3336z" clip-path="url(#a)" fill="#fff" stroke="#fff"/>
<g clip-path="url(#a)">
<g transform="translate(767.71 330.53) rotate(34.166) scale(.08 -.08)">
<use xlink:href="#n"/>
</g>
</g>
<path d="m698.77 445.58 0.56612 4.7904q0.28167 2.3834 2.6651 2.1017l7.689-0.90867q2.3834-0.28167 2.1017-2.6651l-0.56612-4.7904q-0.28167-2.3834-2.6651-2.1017l-7.689 0.90867q-2.3834 0.28167-2.1017 2.6651z" clip-path="url(#a)" fill="#fff" stroke="#fff"/>
<g clip-path="url(#a)">
<g transform="translate(702.81 445.11) rotate(83.26) scale(.08 -.08)">
<use xlink:href="#w"/>
</g>
</g>
<path d="m668.72 334.91 1.8222-5.1602q0.79913-2.2631-1.4639-3.0622l-7.3007-2.578q-2.263-0.79913-3.0622 1.4639l-1.8222 5.1602q-0.79913 2.2631 1.4639 3.0622l7.3007 2.578q2.263 0.79913 3.0622-1.4639z" clip-path="url(#a)" fill="#fff" stroke="#fff"/>
<g clip-path="url(#a)">
<g transform="translate(664.89 333.56) rotate(-70.551) scale(.08 -.08)">
<use xlink:href="#n"/>
</g>
</g>
<path d="m920.45 663.73v33.808q0 2.4 2.4 2.4h7.7425q2.4 0 2.4-2.4v-33.808q0-2.4-2.4-2.4h-7.7425q-2.4 0-2.4 2.4z" clip-path="url(#a)" fill="#fff" stroke="#fff"/>
<g clip-path="url(#a)">
<g transform="translate(924.51 663.73) rotate(90) scale(.08 -.08)">
<use xlink:href="#j"/>
<use x="44.083984" xlink:href="#e"/>
<use x="105.607422" xlink:href="#g"/>
<use x="144.970703" xlink:href="#k"/>
<use x="242.382812" xlink:href="#i"/>
<use x="270.166016" xlink:href="#h"/>
<use x="333.544922" xlink:href="#f"/>
<use x="394.824219" xlink:href="#l"/>
</g>
</g>
<path d="m1198.5 217.63 5.2481 1.5509q2.3016 0.68015 2.9818-1.6215l2.1942-7.4251q0.68015-2.3016-1.6215-2.9818l-5.2481-1.5509q-2.3016-0.68015-2.9818 1.6215l-2.1942 7.4251q-0.68015 2.3016 1.6215 2.9818z" clip-path="url(#a)" fill="#fff" stroke="#fff"/>
<g clip-path="url(#a)">
<g transform="translate(1199.6 213.73) rotate(16.463) scale(.08 -.08)">
<use xlink:href="#n"/>
</g>
</g>
<path d="m1007.1 390.72 0.049878-4.8235q0.024816-2.3999-2.3751-2.4247l-7.7421-0.080058q-2.3999-0.024816-2.4247 2.3751l-0.049878 4.8235q-0.024816 2.3999 2.3751 2.4247l7.7421 0.080059q2.3999 0.024816 2.4247-2.3751z" clip-path="url(#a)" fill="#fff" stroke="#fff"/>
<g clip-path="url(#a)">
<g transform="translate(1003 390.68) rotate(-89.408) scale(.08 -.08)">
<use xlink:href="#w"/>
</g>
</g>
<path d="m1031.5 386.45 0.80295 5.4133q0.35214 2.374 2.7262 2.0219l7.6587-1.136q2.374-0.35214 2.0219-2.7262l-0.80295-5.4133q-0.35214-2.374-2.7262-2.0219l-7.6587 1.136q-2.374 0.35214-2.0219 2.7262z" clip-path="url(#a)" fill="#fff" stroke="#fff"/>
<g clip-path="url(#a)">
<g transform="translate(1035.5 385.86) rotate(81.563) scale(.08 -.08)">
<use xlink:href="#n"/>
</g>
</g>
<path d="m975.01 217.81 2.6346-4.7966q1.1554-2.1036-0.94817-3.259l-6.7862-3.7274q-2.1036-1.1554-3.259 0.94817l-2.6346 4.7966q-1.1554 2.1036 0.94817 3.259l6.7862 3.7274q2.1036 1.1554 3.259-0.94817z" clip-path="url(#a)" fill="#fff" stroke="#fff"/>
<g clip-path="url(#a)">
<g transform="translate(971.45 215.85) rotate(-61.222) scale(.08 -.08)">
<use xlink:href="#n"/>
</g>
</g>
<path d="m992.11 663.73v33.808q0 2.4 2.4 2.4h7.7425q2.4 0 2.4-2.4v-33.808q0-2.4-2.4-2.4h-7.7425q-2.4 0-2.4 2.4z" clip-path="url(#a)" fill="#fff" stroke="#fff"/>
<g clip-path="url(#a)">
<g transform="translate(996.17 663.73) rotate(90) scale(.08 -.08)">
<use xlink:href="#j"/>
<use x="44.083984" xlink:href="#e"/>
<use x="105.607422" xlink:href="#g"/>
<use x="144.970703" xlink:href="#k"/>
<use x="242.382812" xlink:href="#i"/>
<use x="270.166016" xlink:href="#h"/>
<use x="333.544922" xlink:href="#f"/>
<use x="394.824219" xlink:href="#l"/>
</g>
</g>
<path d="m1066.6 663.73v33.808q0 2.4 2.4 2.4h7.7425q2.4 0 2.4-2.4v-33.808q0-2.4-2.4-2.4h-7.7425q-2.4 0-2.4 2.4z" clip-path="url(#a)" fill="#fff" stroke="#fff"/>
<g clip-path="url(#a)">
<g transform="translate(1070.7 663.73) rotate(90) scale(.08 -.08)">
<use xlink:href="#j"/>
<use x="44.083984" xlink:href="#e"/>
<use x="105.607422" xlink:href="#g"/>
<use x="144.970703" xlink:href="#k"/>
<use x="242.382812" xlink:href="#i"/>
<use x="270.166016" xlink:href="#h"/>
<use x="333.544922" xlink:href="#f"/>
<use x="394.824219" xlink:href="#l"/>
</g>
</g>
<path d="m1037.6 448.1 2.8685 4.7615q1.2385 2.0558 3.2942 0.8173l6.632-3.9954q2.0558-1.2385 0.8173-3.2942l-2.8685-4.7615q-1.2385-2.0558-3.2942-0.8173l-6.632 3.9954q-2.0558 1.2385-0.8173 3.2942z" clip-path="url(#a)" fill="#fff" stroke="#fff"/>
<g clip-path="url(#a)">
<g transform="translate(1041 446) rotate(58.934) scale(.08 -.08)">
<use xlink:href="#aa"/>
</g>
</g>
<path d="m833.09 337.08 4.8833-2.7128q2.098-1.1655 0.93251-3.2635l-3.7599-6.7682q-1.1655-2.098-3.2635-0.93251l-4.8833 2.7128q-2.098 1.1655-0.93251 3.2635l3.7599 6.7682q1.1655 2.098 3.2635 0.93251z" clip-path="url(#a)" fill="#fff" stroke="#fff"/>
<g clip-path="url(#a)">
<g transform="translate(831.11 333.53) rotate(-29.053) scale(.08 -.08)">
<use xlink:href="#s"/>
</g>
</g>
<path d="m1144 663.73v33.808q0 2.4 2.4 2.4h7.7425q2.4 0 2.4-2.4v-33.808q0-2.4-2.4-2.4h-7.7425q-2.4 0-2.4 2.4z" clip-path="url(#a)" fill="#fff" stroke="#fff"/>
<g clip-path="url(#a)">
<g transform="translate(1148.1 663.73) rotate(90) scale(.08 -.08)">
<use xlink:href="#j"/>
<use x="44.083984" xlink:href="#e"/>
<use x="105.607422" xlink:href="#g"/>
<use x="144.970703" xlink:href="#k"/>
<use x="242.382812" xlink:href="#i"/>
<use x="270.166016" xlink:href="#h"/>
<use x="333.544922" xlink:href="#f"/>
<use x="394.824219" xlink:href="#l"/>
</g>
</g>
<path d="m1016.9 453.4 4.9806 0.99346q2.3536 0.46946 2.8231-1.8842l1.5145-7.5929q0.46947-2.3536-1.8842-2.8231l-4.9806-0.99346q-2.3536-0.46947-2.8231 1.8842l-1.5145 7.5929q-0.46947 2.3536 1.8842 2.8231z" clip-path="url(#a)" fill="#fff" stroke="#fff"/>
<g clip-path="url(#a)">
<defs>
<path id="ao" d="m53.516 70.516v-9.625q-5.6094 2.6875-10.594 4-4.9844 1.3281-9.625 1.3281-8.0469 0-12.422-3.125t-4.375-8.8906q0-4.8438 2.9062-7.3125 2.9062-2.4531 11.016-3.9688l5.9531-1.2188q11.031-2.1094 16.281-7.4062t5.25-14.172q0-10.609-7.1094-16.078-7.0938-5.4688-20.812-5.4688-5.1719 0-11.016 1.1719-5.8281 1.1719-12.078 3.4688v10.156q6-3.3594 11.766-5.0781 5.7656-1.7031 11.328-1.7031 8.4375 0 13.031 3.3125 4.5938 3.3281 4.5938 9.4844 0 5.3594-3.2969 8.3906t-10.812 4.5469l-6.0156 1.1719q-11.031 2.1875-15.969 6.875-4.9219 4.6875-4.9219 13.047 0 9.6719 6.8125 15.234t18.766 5.5625q5.1406 0 10.453-0.9375 5.3281-0.92188 10.891-2.7656z"/>
</defs>
<g transform="translate(1017.7 449.41) rotate(11.28) scale(.08 -.08)">
<use xlink:href="#ao"/>
</g>
</g>
<path d="m432.27 512.93 5.0848-2.0232q2.23-0.88728 1.3427-3.1172l-2.8624-7.194q-0.88728-2.23-3.1172-1.3427l-5.0848 2.0232q-2.23 0.88728-1.3427 3.1172l2.8624 7.194q0.88727 2.23 3.1172 1.3427z" clip-path="url(#a)" fill="#fff" stroke="#fff"/>
<g clip-path="url(#a)">
<g transform="translate(430.77 509.16) rotate(-21.697) scale(.08 -.08)">
<use xlink:href="#n"/>
</g>
</g>
<path d="m1276.2 570.46 2.9551-4.1012q1.403-1.9472-0.54415-3.3502l-6.2817-4.5262q-1.9472-1.403-3.3502 0.54415l-2.9551 4.1012q-1.403 1.9472 0.54415 3.3502l6.2817 4.5262q1.9472 1.403 3.3502-0.54415z" clip-path="url(#a)" fill="#fff" stroke="#fff"/>
<g clip-path="url(#a)">
<g transform="translate(1272.9 568.09) rotate(-54.225) scale(.08 -.08)">
<use xlink:href="#y"/>
</g>
</g>
<path d="m1320.4 567.59 0.045739-5.5861q0.019651-2.3999-2.3803-2.4196l-7.7422-0.063393q-2.3999-0.019651-2.4196 2.3803l-0.045738 5.5861q-0.019651 2.3999 2.3803 2.4196l7.7422 0.063393q2.3999 0.019651 2.4196-2.3803z" clip-path="url(#a)" fill="#fff" stroke="#fff"/>
<g clip-path="url(#a)">
<g transform="translate(1316.3 567.56) rotate(-89.531) scale(.08 -.08)">
<use xlink:href="#s"/>
</g>
</g>
<path d="m1350.4 566.07 3.4483 4.7319q1.4135 1.9396 3.3531 0.52615l6.2573-4.5599q1.9396-1.4135 0.52615-3.3531l-3.4483-4.7319q-1.4135-1.9396-3.3531-0.52615l-6.2573 4.5599q-1.9396 1.4135-0.52615 3.3531z" clip-path="url(#a)" fill="#fff" stroke="#fff"/>
<g clip-path="url(#a)">
<g transform="translate(1353.7 563.68) rotate(53.918) scale(.08 -.08)">
<use xlink:href="#an"/>
</g>
</g>
<path d="m1224.3 663.73v33.808q0 2.4 2.4 2.4h7.7425q2.4 0 2.4-2.4v-33.808q0-2.4-2.4-2.4h-7.7425q-2.4 0-2.4 2.4z" clip-path="url(#a)" fill="#fff" stroke="#fff"/>
<g clip-path="url(#a)">
<g transform="translate(1228.4 663.73) rotate(90) scale(.08 -.08)">
<use xlink:href="#j"/>
<use x="44.083984" xlink:href="#e"/>
<use x="105.607422" xlink:href="#g"/>
<use x="144.970703" xlink:href="#k"/>
<use x="242.382812" xlink:href="#i"/>
<use x="270.166016" xlink:href="#h"/>
<use x="333.544922" xlink:href="#f"/>
<use x="394.824219" xlink:href="#l"/>
</g>
</g>
<path d="m1307.4 663.73v33.808q0 2.4 2.4 2.4h7.7425q2.4 0 2.4-2.4v-33.808q0-2.4-2.4-2.4h-7.7425q-2.4 0-2.4 2.4z" clip-path="url(#a)" fill="#fff" stroke="#fff"/>
<g clip-path="url(#a)">
<g transform="translate(1311.5 663.73) rotate(90) scale(.08 -.08)">
<use xlink:href="#j"/>
<use x="44.083984" xlink:href="#e"/>
<use x="105.607422" xlink:href="#g"/>
<use x="144.970703" xlink:href="#k"/>
<use x="242.382812" xlink:href="#i"/>
<use x="270.166016" xlink:href="#h"/>
<use x="333.544922" xlink:href="#f"/>
<use x="394.824219" xlink:href="#l"/>
</g>
</g>
<path d="m719.8 663.73v33.808q0 2.4 2.4 2.4h7.7425q2.4 0 2.4-2.4v-33.808q0-2.4-2.4-2.4h-7.7425q-2.4 0-2.4 2.4z" clip-path="url(#a)" fill="#fff" stroke="#fff"/>
<g clip-path="url(#a)">
<g transform="translate(723.86 663.73) rotate(90) scale(.08 -.08)">
<use xlink:href="#j"/>
<use x="44.083984" xlink:href="#e"/>
<use x="105.607422" xlink:href="#g"/>
<use x="144.970703" xlink:href="#k"/>
<use x="242.382812" xlink:href="#i"/>
<use x="270.166016" xlink:href="#h"/>
<use x="333.544922" xlink:href="#f"/>
<use x="394.824219" xlink:href="#l"/>
</g>
</g>
<path d="m709.38 507.27 2.6784 4.2871q1.2716 2.0354 3.3071 0.7638l6.5664-4.1023q2.0354-1.2716 0.7638-3.3071l-2.6784-4.2871q-1.2716-2.0354-3.3071-0.7638l-6.5664 4.1023q-2.0354 1.2716-0.7638 3.3071z" clip-path="url(#a)" fill="#fff" stroke="#fff"/>
<g clip-path="url(#a)">
<g transform="translate(712.82 505.12) rotate(58.005) scale(.08 -.08)">
<use xlink:href="#y"/>
</g>
</g>
<path d="m571.59 454.39 4.357-3.4961q1.8719-1.502 0.36985-3.3739l-4.8456-6.0387q-1.502-1.8719-3.3739-0.36985l-4.357 3.4961q-1.8719 1.502-0.36985 3.3739l4.8456 6.0387q1.502 1.8719 3.3739 0.36985z" clip-path="url(#a)" fill="#fff" stroke="#fff"/>
<g clip-path="url(#a)">
<g transform="translate(569.05 451.22) rotate(-38.744) scale(.08 -.08)">
<use xlink:href="#s"/>
</g>
</g>
<path d="m782.86 663.73v33.808q0 2.4 2.4 2.4h7.7425q2.4 0 2.4-2.4v-33.808q0-2.4-2.4-2.4h-7.7425q-2.4 0-2.4 2.4z" clip-path="url(#a)" fill="#fff" stroke="#fff"/>
<g clip-path="url(#a)">
<g transform="translate(786.92 663.73) rotate(90) scale(.08 -.08)">
<use xlink:href="#j"/>
<use x="44.083984" xlink:href="#e"/>
<use x="105.607422" xlink:href="#g"/>
<use x="144.970703" xlink:href="#k"/>
<use x="242.382812" xlink:href="#i"/>
<use x="270.166016" xlink:href="#h"/>
<use x="333.544922" xlink:href="#f"/>
<use x="394.824219" xlink:href="#l"/>
</g>
</g>
<path d="m671.55 569.92 4.8291 1.5727q2.282 0.74321 3.0252-1.5388l2.3976-7.3619q0.74321-2.282-1.5388-3.0252l-4.8291-1.5727q-2.282-0.74321-3.0252 1.5388l-2.3976 7.3619q-0.74321 2.282 1.5388 3.0252z" clip-path="url(#a)" fill="#fff" stroke="#fff"/>
<g clip-path="url(#a)">
<g transform="translate(672.81 566.06) rotate(18.039) scale(.08 -.08)">
<use xlink:href="#ao"/>
</g>
</g>
<path d="m316.94 571.56 5.2035-1.6947q2.282-0.74321 1.5388-3.0252l-2.3976-7.3619q-0.74321-2.282-3.0252-1.5388l-5.2035 1.6947q-2.282 0.74321-1.5388 3.0252l2.3976 7.3619q0.74321 2.282 3.0252 1.5388z" clip-path="url(#a)" fill="#fff" stroke="#fff"/>
<g clip-path="url(#a)">
<g transform="translate(315.68 567.69) rotate(-18.039) scale(.08 -.08)">
<use xlink:href="#n"/>
</g>
</g>
<path d="m848.79 663.73v33.808q0 2.4 2.4 2.4h7.7425q2.4 0 2.4-2.4v-33.808q0-2.4-2.4-2.4h-7.7425q-2.4 0-2.4 2.4z" clip-path="url(#a)" fill="#fff" stroke="#fff"/>
<g clip-path="url(#a)">
<g transform="translate(852.85 663.73) rotate(90) scale(.08 -.08)">
<use xlink:href="#j"/>
<use x="44.083984" xlink:href="#e"/>
<use x="105.607422" xlink:href="#g"/>
<use x="144.970703" xlink:href="#k"/>
<use x="242.382812" xlink:href="#i"/>
<use x="270.166016" xlink:href="#h"/>
<use x="333.544922" xlink:href="#f"/>
<use x="394.824219" xlink:href="#l"/>
</g>
</g>
<path d="m451.13 452 1.4767-4.8345q0.7011-2.2953-1.5942-2.9964l-7.4048-2.2618q-2.2953-0.7011-2.9964 1.5942l-1.4767 4.8345q-0.7011 2.2953 1.5942 2.9964l7.4048 2.2618q2.2953 0.7011 2.9964-1.5942z" clip-path="url(#a)" fill="#fff" stroke="#fff"/>
<g clip-path="url(#a)">
<g transform="translate(447.25 450.81) rotate(-73.015) scale(.08 -.08)">
<use xlink:href="#y"/>
</g>
</g>
<path d="m475.08 504.28 0.84553 5.5219q0.36326 2.3723 2.7356 2.0091l7.6533-1.1719q2.3723-0.36326 2.0091-2.7356l-0.84553-5.5219q-0.36326-2.3723-2.7356-2.0091l-7.6533 1.1719q-2.3723 0.36326-2.0091 2.7356z" clip-path="url(#a)" fill="#fff" stroke="#fff"/>
<g clip-path="url(#a)">
<g transform="translate(479.1 503.67) rotate(81.294) scale(.08 -.08)">
<use xlink:href="#s"/>
</g>
</g>
<path d="m544.94 663.73v33.808q0 2.4 2.4 2.4h7.7425q2.4 0 2.4-2.4v-33.808q0-2.4-2.4-2.4h-7.7425q-2.4 0-2.4 2.4z" clip-path="url(#a)" fill="#fff" stroke="#fff"/>
<g clip-path="url(#a)">
<g transform="translate(549.01 663.73) rotate(90) scale(.08 -.08)">
<use xlink:href="#j"/>
<use x="44.083984" xlink:href="#e"/>
<use x="105.607422" xlink:href="#g"/>
<use x="144.970703" xlink:href="#k"/>
<use x="242.382812" xlink:href="#i"/>
<use x="270.166016" xlink:href="#h"/>
<use x="333.544922" xlink:href="#f"/>
<use x="394.824219" xlink:href="#l"/>
</g>
</g>
<path d="m599.41 663.73v33.808q0 2.4 2.4 2.4h7.7425q2.4 0 2.4-2.4v-33.808q0-2.4-2.4-2.4h-7.7425q-2.4 0-2.4 2.4z" clip-path="url(#a)" fill="#fff" stroke="#fff"/>
<g clip-path="url(#a)">
<g transform="translate(603.47 663.73) rotate(90) scale(.08 -.08)">
<use xlink:href="#j"/>
<use x="44.083984" xlink:href="#e"/>
<use x="105.607422" xlink:href="#g"/>
<use x="144.970703" xlink:href="#k"/>
<use x="242.382812" xlink:href="#i"/>
<use x="270.166016" xlink:href="#h"/>
<use x="333.544922" xlink:href="#f"/>
<use x="394.824219" xlink:href="#l"/>
</g>
</g>
<path d="m422.16 568.43 0.97473-4.9601q0.46278-2.355-1.8922-2.8177l-7.5972-1.4929q-2.355-0.46278-2.8177 1.8922l-0.97473 4.9601q-0.46278 2.355 1.8922 2.8177l7.5972 1.4929q2.355 0.46278 2.8177-1.8922z" clip-path="url(#a)" fill="#fff" stroke="#fff"/>
<g clip-path="url(#a)">
<g transform="translate(418.17 567.65) rotate(-78.882) scale(.08 -.08)">
<use xlink:href="#y"/>
</g>
</g>
<path d="m432.73 563.21 1.0772 5.4814q0.46278 2.355 2.8177 1.8922l7.5972-1.4929q2.355-0.46278 1.8922-2.8177l-1.0772-5.4814q-0.46278-2.355-2.8177-1.8922l-7.5972 1.4929q-2.355 0.46278-1.8922 2.8177z" clip-path="url(#a)" fill="#fff" stroke="#fff"/>
<g clip-path="url(#a)">
<g transform="translate(436.72 562.43) rotate(78.882) scale(.08 -.08)">
<use xlink:href="#s"/>
</g>
</g>
<path d="m493.35 663.73v33.808q0 2.4 2.4 2.4h7.7425q2.4 0 2.4-2.4v-33.808q0-2.4-2.4-2.4h-7.7425q-2.4 0-2.4 2.4z" clip-path="url(#a)" fill="#fff" stroke="#fff"/>
<g clip-path="url(#a)">
<g transform="translate(497.41 663.73) rotate(90) scale(.08 -.08)">
<use xlink:href="#j"/>
<use x="44.083984" xlink:href="#e"/>
<use x="105.607422" xlink:href="#g"/>
<use x="144.970703" xlink:href="#k"/>
<use x="242.382812" xlink:href="#i"/>
<use x="270.166016" xlink:href="#h"/>
<use x="333.544922" xlink:href="#f"/>
<use x="394.824219" xlink:href="#l"/>
</g>
</g>
<path d="m398.76 663.73v33.808q0 2.4 2.4 2.4h7.7425q2.4 0 2.4-2.4v-33.808q0-2.4-2.4-2.4h-7.7425q-2.4 0-2.4 2.4z" clip-path="url(#a)" fill="#fff" stroke="#fff"/>
<g clip-path="url(#a)">
<g transform="translate(402.82 663.73) rotate(90) scale(.08 -.08)">
<use xlink:href="#j"/>
<use x="44.083984" xlink:href="#e"/>
<use x="105.607422" xlink:href="#g"/>
<use x="144.970703" xlink:href="#k"/>
<use x="242.382812" xlink:href="#i"/>
<use x="270.166016" xlink:href="#h"/>
<use x="333.544922" xlink:href="#f"/>
<use x="394.824219" xlink:href="#l"/>
</g>
</g>
<path d="m444.62 663.73v33.808q0 2.4 2.4 2.4h7.7425q2.4 0 2.4-2.4v-33.808q0-2.4-2.4-2.4h-7.7425q-2.4 0-2.4 2.4z" clip-path="url(#a)" fill="#fff" stroke="#fff"/>
<g clip-path="url(#a)">
<g transform="translate(448.68 663.73) rotate(90) scale(.08 -.08)">
<use xlink:href="#j"/>
<use x="44.083984" xlink:href="#e"/>
<use x="105.607422" xlink:href="#g"/>
<use x="144.970703" xlink:href="#k"/>
<use x="242.382812" xlink:href="#i"/>
<use x="270.166016" xlink:href="#h"/>
<use x="333.544922" xlink:href="#f"/>
<use x="394.824219" xlink:href="#l"/>
</g>
</g>
<path d="m129.43 567.8 0.433-5.0364q0.20558-2.3912-2.1856-2.5968l-7.714-0.66321q-2.3912-0.20558-2.5968 2.1856l-0.433 5.0364q-0.20558 2.3912 2.1856 2.5968l7.714 0.66321q2.3912 0.20558 2.5968-2.1856z" clip-path="url(#a)" fill="#fff" stroke="#fff"/>
<g clip-path="url(#a)">
<g transform="translate(125.38 567.45) rotate(-85.086) scale(.08 -.08)">
<use xlink:href="#y"/>
</g>
</g>
<path d="m126.94 562.5 0.47851 5.5657q0.20558 2.3912 2.5968 2.1856l7.714-0.66321q2.3912-0.20558 2.1856-2.5968l-0.47851-5.5657q-0.20558-2.3912-2.5968-2.1856l-7.714 0.66321q-2.3912 0.20558-2.1856 2.5968z" clip-path="url(#a)" fill="#fff" stroke="#fff"/>
<g clip-path="url(#a)">
<g transform="translate(130.99 562.15) rotate(85.086) scale(.08 -.08)">
<use xlink:href="#s"/>
</g>
</g>
<path d="m155.11 663.73v33.808q0 2.4 2.4 2.4h7.7425q2.4 0 2.4-2.4v-33.808q0-2.4-2.4-2.4h-7.7425q-2.4 0-2.4 2.4z" clip-path="url(#a)" fill="#fff" stroke="#fff"/>
<g clip-path="url(#a)">
<g transform="translate(159.17 663.73) rotate(90) scale(.08 -.08)">
<use xlink:href="#j"/>
<use x="44.083984" xlink:href="#e"/>
<use x="105.607422" xlink:href="#g"/>
<use x="144.970703" xlink:href="#k"/>
<use x="242.382812" xlink:href="#i"/>
<use x="270.166016" xlink:href="#h"/>
<use x="333.544922" xlink:href="#f"/>
<use x="394.824219" xlink:href="#l"/>
</g>
</g>
<path d="m180.91 663.73v33.808q0 2.4 2.4 2.4h7.7425q2.4 0 2.4-2.4v-33.808q0-2.4-2.4-2.4h-7.7425q-2.4 0-2.4 2.4z" clip-path="url(#a)" fill="#fff" stroke="#fff"/>
<g clip-path="url(#a)">
<g transform="translate(184.97 663.73) rotate(90) scale(.08 -.08)">
<use xlink:href="#j"/>
<use x="44.083984" xlink:href="#e"/>
<use x="105.607422" xlink:href="#g"/>
<use x="144.970703" xlink:href="#k"/>
<use x="242.382812" xlink:href="#i"/>
<use x="270.166016" xlink:href="#h"/>
<use x="333.544922" xlink:href="#f"/>
<use x="394.824219" xlink:href="#l"/>
</g>
</g>
<path d="m209.57 663.73v33.808q0 2.4 2.4 2.4h7.7425q2.4 0 2.4-2.4v-33.808q0-2.4-2.4-2.4h-7.7425q-2.4 0-2.4 2.4z" clip-path="url(#a)" fill="#fff" stroke="#fff"/>
<g clip-path="url(#a)">
<g transform="translate(213.63 663.73) rotate(90) scale(.08 -.08)">
<use xlink:href="#j"/>
<use x="44.083984" xlink:href="#e"/>
<use x="105.607422" xlink:href="#g"/>
<use x="144.970703" xlink:href="#k"/>
<use x="242.382812" xlink:href="#i"/>
<use x="270.166016" xlink:href="#h"/>
<use x="333.544922" xlink:href="#f"/>
<use x="394.824219" xlink:href="#l"/>
</g>
</g>
<path d="m270.25 569.22 1.6117-5.32q0.69586-2.2969-1.601-2.9928l-7.4099-2.2449q-2.2969-0.69586-2.9928 1.601l-1.6117 5.32q-0.69586 2.2969 1.601 2.9928l7.4099 2.2449q2.2969 0.69586 2.9928-1.601z" clip-path="url(#a)" fill="#fff" stroke="#fff"/>
<g clip-path="url(#a)">
<g transform="translate(266.36 568.04) rotate(-73.145) scale(.08 -.08)">
<use xlink:href="#aa"/>
</g>
</g>
<path d="m288.5 567.32 0.041389-5.0548q0.019651-2.3999-2.3803-2.4196l-7.7422-0.063394q-2.3999-0.019651-2.4196 2.3803l-0.041389 5.0548q-0.019651 2.3999 2.3803 2.4196l7.7422 0.063394q2.3999 0.019651 2.4196-2.3803z" clip-path="url(#a)" fill="#fff" stroke="#fff"/>
<g clip-path="url(#a)">
<g transform="translate(284.43 567.29) rotate(-89.531) scale(.08 -.08)">
<use xlink:href="#y"/>
</g>
</g>
<path d="m294.06 563.94 1.6597 5.334q0.71303 2.2916 3.0047 1.5786l7.3929-2.3003q2.2916-0.71303 1.5786-3.0047l-1.6597-5.334q-0.71303-2.2916-3.0047-1.5786l-7.3929 2.3003q-2.2916 0.71303-1.5786 3.0047z" clip-path="url(#a)" fill="#fff" stroke="#fff"/>
<g clip-path="url(#a)">
<g transform="translate(297.94 562.73) rotate(72.717) scale(.08 -.08)">
<use xlink:href="#s"/>
</g>
</g>
<path d="m241.1 663.73v33.808q0 2.4 2.4 2.4h7.7425q2.4 0 2.4-2.4v-33.808q0-2.4-2.4-2.4h-7.7425q-2.4 0-2.4 2.4z" clip-path="url(#a)" fill="#fff" stroke="#fff"/>
<g clip-path="url(#a)">
<g transform="translate(245.17 663.73) rotate(90) scale(.08 -.08)">
<use xlink:href="#j"/>
<use x="44.083984" xlink:href="#e"/>
<use x="105.607422" xlink:href="#g"/>
<use x="144.970703" xlink:href="#k"/>
<use x="242.382812" xlink:href="#i"/>
<use x="270.166016" xlink:href="#h"/>
<use x="333.544922" xlink:href="#f"/>
<use x="394.824219" xlink:href="#l"/>
</g>
</g>
<path d="m275.5 663.73v33.808q0 2.4 2.4 2.4h7.7425q2.4 0 2.4-2.4v-33.808q0-2.4-2.4-2.4h-7.7425q-2.4 0-2.4 2.4z" clip-path="url(#a)" fill="#fff" stroke="#fff"/>
<g clip-path="url(#a)">
<g transform="translate(279.56 663.73) rotate(90) scale(.08 -.08)">
<use xlink:href="#j"/>
<use x="44.083984" xlink:href="#e"/>
<use x="105.607422" xlink:href="#g"/>
<use x="144.970703" xlink:href="#k"/>
<use x="242.382812" xlink:href="#i"/>
<use x="270.166016" xlink:href="#h"/>
<use x="333.544922" xlink:href="#f"/>
<use x="394.824219" xlink:href="#l"/>
</g>
</g>
<path d="m312.76 663.73v33.808q0 2.4 2.4 2.4h7.7425q2.4 0 2.4-2.4v-33.808q0-2.4-2.4-2.4h-7.7425q-2.4 0-2.4 2.4z" clip-path="url(#a)" fill="#fff" stroke="#fff"/>
<g clip-path="url(#a)">
<g transform="translate(316.83 663.73) rotate(90) scale(.08 -.08)">
<use xlink:href="#j"/>
<use x="44.083984" xlink:href="#e"/>
<use x="105.607422" xlink:href="#g"/>
<use x="144.970703" xlink:href="#k"/>
<use x="242.382812" xlink:href="#i"/>
<use x="270.166016" xlink:href="#h"/>
<use x="333.544922" xlink:href="#f"/>
<use x="394.824219" xlink:href="#l"/>
</g>
</g>
<path d="m112.11 663.73v33.808q0 2.4 2.4 2.4h7.7425q2.4 0 2.4-2.4v-33.808q0-2.4-2.4-2.4h-7.7425q-2.4 0-2.4 2.4z" clip-path="url(#a)" fill="#fff" stroke="#fff"/>
<g clip-path="url(#a)">
<g transform="translate(116.18 663.73) rotate(90) scale(.08 -.08)">
<use xlink:href="#j"/>
<use x="44.083984" xlink:href="#e"/>
<use x="105.607422" xlink:href="#g"/>
<use x="144.970703" xlink:href="#k"/>
<use x="242.382812" xlink:href="#i"/>
<use x="270.166016" xlink:href="#h"/>
<use x="333.544922" xlink:href="#f"/>
<use x="394.824219" xlink:href="#l"/>
</g>
</g>
<path d="m132.18 663.73v33.808q0 2.4 2.4 2.4h7.7425q2.4 0 2.4-2.4v-33.808q0-2.4-2.4-2.4h-7.7425q-2.4 0-2.4 2.4z" clip-path="url(#a)" fill="#fff" stroke="#fff"/>
<g clip-path="url(#a)">
<g transform="translate(136.24 663.73) rotate(90) scale(.08 -.08)">
<use xlink:href="#j"/>
<use x="44.083984" xlink:href="#e"/>
<use x="105.607422" xlink:href="#g"/>
<use x="144.970703" xlink:href="#k"/>
<use x="242.382812" xlink:href="#i"/>
<use x="270.166016" xlink:href="#h"/>
<use x="333.544922" xlink:href="#f"/>
<use x="394.824219" xlink:href="#l"/>
</g>
</g>
<path d="m60.517 663.73v33.808q0 2.4 2.4 2.4h7.7425q2.4 0 2.4-2.4v-33.808q0-2.4-2.4-2.4h-7.7425q-2.4 0-2.4 2.4z" clip-path="url(#a)" fill="#fff" stroke="#fff"/>
<g clip-path="url(#a)">
<g transform="translate(64.58 663.73) rotate(90) scale(.08 -.08)">
<use xlink:href="#j"/>
<use x="44.083984" xlink:href="#e"/>
<use x="105.607422" xlink:href="#g"/>
<use x="144.970703" xlink:href="#k"/>
<use x="242.382812" xlink:href="#i"/>
<use x="270.166016" xlink:href="#h"/>
<use x="333.544922" xlink:href="#f"/>
<use x="394.824219" xlink:href="#l"/>
</g>
</g>
<path d="m69.116 663.73v33.808q0 2.4 2.4 2.4h7.7425q2.4 0 2.4-2.4v-33.808q0-2.4-2.4-2.4h-7.7425q-2.4 0-2.4 2.4z" clip-path="url(#a)" fill="#fff" stroke="#fff"/>
<g clip-path="url(#a)">
<g transform="translate(73.18 663.73) rotate(90) scale(.08 -.08)">
<use xlink:href="#j"/>
<use x="44.083984" xlink:href="#e"/>
<use x="105.607422" xlink:href="#g"/>
<use x="144.970703" xlink:href="#k"/>
<use x="242.382812" xlink:href="#i"/>
<use x="270.166016" xlink:href="#h"/>
<use x="333.544922" xlink:href="#f"/>
<use x="394.824219" xlink:href="#l"/>
</g>
</g>
<path d="m80.582 663.73v33.808q0 2.4 2.4 2.4h7.7425q2.4 0 2.4-2.4v-33.808q0-2.4-2.4-2.4h-7.7425q-2.4 0-2.4 2.4z" clip-path="url(#a)" fill="#fff" stroke="#fff"/>
<g clip-path="url(#a)">
<g transform="translate(84.645 663.73) rotate(90) scale(.08 -.08)">
<use xlink:href="#j"/>
<use x="44.083984" xlink:href="#e"/>
<use x="105.607422" xlink:href="#g"/>
<use x="144.970703" xlink:href="#k"/>
<use x="242.382812" xlink:href="#i"/>
<use x="270.166016" xlink:href="#h"/>
<use x="333.544922" xlink:href="#f"/>
<use x="394.824219" xlink:href="#l"/>
</g>
</g>
<path d="m94.914 663.73v33.808q0 2.4 2.4 2.4h7.7425q2.4 0 2.4-2.4v-33.808q0-2.4-2.4-2.4h-7.7425q-2.4 0-2.4 2.4z" clip-path="url(#a)" fill="#fff" stroke="#fff"/>
<g clip-path="url(#a)">
<g transform="translate(98.978 663.73) rotate(90) scale(.08 -.08)">
<use xlink:href="#j"/>
<use x="44.083984" xlink:href="#e"/>
<use x="105.607422" xlink:href="#g"/>
<use x="144.970703" xlink:href="#k"/>
<use x="242.382812" xlink:href="#i"/>
<use x="270.166016" xlink:href="#h"/>
<use x="333.544922" xlink:href="#f"/>
<use x="394.824219" xlink:href="#l"/>
</g>
</g>
<path d="m180.74 337.28 4.7486-8.8191q1.1378-2.1131-0.97533-3.251l-6.8171-3.6706q-2.1131-1.1378-3.251 0.97533l-4.7486 8.8191q-1.1378 2.1131 0.97533 3.251l6.8171 3.6706q2.1131 1.1378 3.251-0.97533z" clip-path="url(#a)" fill="#fff" stroke="#fff"/>
<g clip-path="url(#a)">
<g transform="translate(177.16 335.35) rotate(-61.7) scale(.08 -.08)">
<use xlink:href="#t"/>
<use x="55.712891" xlink:href="#aa"/>
</g>
</g>
<path d="m238.25 278 3.1586-9.6039q0.74983-2.2799-1.53-3.0297l-7.3549-2.419q-2.2799-0.74983-3.0297 1.53l-3.1586 9.6039q-0.74983 2.2799 1.53 3.0297l7.3549 2.419q2.2799 0.74983 3.0297-1.53z" clip-path="url(#a)" fill="#fff" stroke="#fff"/>
<g clip-path="url(#a)">
<g transform="translate(234.39 276.73) rotate(-71.794) scale(.08 -.08)">
<use xlink:href="#t"/>
<use x="57.962891" xlink:href="#n"/>
</g>
</g>
<path d="m399.27 216.09 9.2505 4.0792q2.196 0.96835 3.1643-1.2276l3.1239-7.0843q0.96835-2.196-1.2276-3.1643l-9.2505-4.0792q-2.196-0.96835-3.1643 1.2276l-3.1239 7.0843q-0.96835 2.196 1.2276 3.1643z" clip-path="url(#a)" fill="#fff" stroke="#fff"/>
<g clip-path="url(#a)">
<g transform="translate(400.91 212.37) rotate(23.796) scale(.08 -.08)">
<use xlink:href="#t"/>
<use x="57.962891" xlink:href="#n"/>
</g>
</g>
<path d="m355.76 663.73v33.808q0 2.4 2.4 2.4h7.7425q2.4 0 2.4-2.4v-33.808q0-2.4-2.4-2.4h-7.7425q-2.4 0-2.4 2.4z" clip-path="url(#a)" fill="#fff" stroke="#fff"/>
<g clip-path="url(#a)">
<g transform="translate(359.82 663.73) rotate(90) scale(.08 -.08)">
<use xlink:href="#j"/>
<use x="44.083984" xlink:href="#e"/>
<use x="105.607422" xlink:href="#g"/>
<use x="144.970703" xlink:href="#k"/>
<use x="242.382812" xlink:href="#i"/>
<use x="270.166016" xlink:href="#h"/>
<use x="333.544922" xlink:href="#f"/>
<use x="394.824219" xlink:href="#l"/>
</g>
</g>
<path d="m1393.4 663.73v33.808q0 2.4 2.4 2.4h7.7425q2.4 0 2.4-2.4v-33.808q0-2.4-2.4-2.4h-7.7425q-2.4 0-2.4 2.4z" clip-path="url(#a)" fill="#fff" stroke="#fff"/>
<g clip-path="url(#a)">
<g transform="translate(1397.5 663.73) rotate(90) scale(.08 -.08)">
<use xlink:href="#j"/>
<use x="44.083984" xlink:href="#e"/>
<use x="105.607422" xlink:href="#g"/>
<use x="144.970703" xlink:href="#k"/>
<use x="242.382812" xlink:href="#i"/>
<use x="270.166016" xlink:href="#h"/>
<use x="333.544922" xlink:href="#f"/>
<use x="394.824219" xlink:href="#l"/>
</g>
</g>
<defs>
<path id="b" d="m0 8.6603c2.2967 0 4.4997-0.9125 6.1237-2.5365 1.624-1.624 2.5365-3.827 2.5365-6.1237s-0.9125-4.4997-2.5365-6.1237c-1.624-1.624-3.827-2.5365-6.1237-2.5365s-4.4997 0.9125-6.1237 2.5365c-1.624 1.624-2.5365 3.827-2.5365 6.1237s0.9125 4.4997 2.5365 6.1237c1.624 1.624 3.827 2.5365 6.1237 2.5365z"/>
</defs>
<g clip-path="url(#a)">
<use x="66.787879" y="738.181818" fill="#ffffff" stroke="#ffffff" xlink:href="#b"/>
<use x="75.387176" y="738.181818" fill="#ffffff" stroke="#ffffff" xlink:href="#b"/>
<use x="86.852907" y="738.181818" fill="#ffffff" stroke="#ffffff" xlink:href="#b"/>
<use x="101.18507" y="738.181818" fill="#ffffff" stroke="#ffffff" xlink:href="#b"/>
<use x="118.383665" y="738.181818" fill="#ffffff" stroke="#ffffff" xlink:href="#b"/>
<use x="138.448693" y="738.181818" fill="#ffffff" stroke="#ffffff" xlink:href="#b"/>
<use x="161.380153" y="738.181818" fill="#ffffff" stroke="#ffffff" xlink:href="#b"/>
<use x="187.178047" y="738.181818" fill="#ffffff" stroke="#ffffff" xlink:href="#b"/>
<use x="215.842372" y="738.181818" fill="#ffffff" stroke="#ffffff" xlink:href="#b"/>
<use x="247.37313" y="738.181818" fill="#ffffff" stroke="#ffffff" xlink:href="#b"/>
<use x="281.770321" y="738.181818" fill="#ffffff" stroke="#ffffff" xlink:href="#b"/>
<use x="319.033945" y="738.181818" fill="#ffffff" stroke="#ffffff" xlink:href="#b"/>
<use x="362.030433" y="738.181818" fill="#ffffff" stroke="#ffffff" xlink:href="#b"/>
<use x="405.026922" y="738.181818" fill="#ffffff" stroke="#ffffff" xlink:href="#b"/>
<use x="450.889843" y="738.181818" fill="#ffffff" stroke="#ffffff" xlink:href="#b"/>
<use x="499.619196" y="738.181818" fill="#ffffff" stroke="#ffffff" xlink:href="#b"/>
<use x="551.214982" y="738.181818" fill="#ffffff" stroke="#ffffff" xlink:href="#b"/>
<use x="605.677201" y="738.181818" fill="#ffffff" stroke="#ffffff" xlink:href="#b"/>
<use x="665.872285" y="738.181818" fill="#ffffff" stroke="#ffffff" xlink:href="#b"/>
<use x="726.067369" y="738.181818" fill="#ffffff" stroke="#ffffff" xlink:href="#b"/>
<use x="789.128885" y="738.181818" fill="#ffffff" stroke="#ffffff" xlink:href="#b"/>
<use x="855.056834" y="738.181818" fill="#ffffff" stroke="#ffffff" xlink:href="#b"/>
<use x="926.717649" y="738.181818" fill="#ffffff" stroke="#ffffff" xlink:href="#b"/>
<use x="998.378463" y="738.181818" fill="#ffffff" stroke="#ffffff" xlink:href="#b"/>
<use x="1072.905709" y="738.181818" fill="#ffffff" stroke="#ffffff" xlink:href="#b"/>
<use x="1150.299389" y="738.181818" fill="#ffffff" stroke="#ffffff" xlink:href="#b"/>
<use x="1230.559501" y="738.181818" fill="#ffffff" stroke="#ffffff" xlink:href="#b"/>
<use x="1313.686045" y="738.181818" fill="#ffffff" stroke="#ffffff" xlink:href="#b"/>
<use x="1399.679022" y="738.181818" fill="#ffffff" stroke="#ffffff" xlink:href="#b"/>
<use x="1402.545455" y="271.391464" fill="#ffffff" stroke="#ffffff" xlink:href="#b"/>
<use x="857.923267" y="389.094759" fill="#ffffff" stroke="#ffffff" xlink:href="#b"/>
<use x="608.543634" y="389.094759" fill="#ffffff" stroke="#ffffff" xlink:href="#b"/>
<use x="321.900377" y="506.398819" fill="#ffffff" stroke="#ffffff" xlink:href="#b"/>
<use x="557.531087" y="35.151515" fill="#ffffff" stroke="#ffffff" xlink:href="#b"/>
<use x="82.553258" y="506.398819" fill="#ffffff" stroke="#ffffff" xlink:href="#b"/>
<use x="195.10851" y="389.094759" fill="#ffffff" stroke="#ffffff" xlink:href="#b"/>
<use x="540.226991" y="271.391464" fill="#ffffff" stroke="#ffffff" xlink:href="#b"/>
<use x="665.872285" y="623.09084" fill="#ffffff" stroke="#ffffff" xlink:href="#b"/>
<use x="684.504097" y="271.391464" fill="#ffffff" stroke="#ffffff" xlink:href="#b"/>
<use x="926.717649" y="623.09084" fill="#ffffff" stroke="#ffffff" xlink:href="#b"/>
<use x="1003.235473" y="153.390406" fill="#ffffff" stroke="#ffffff" xlink:href="#b"/>
<use x="998.378463" y="623.09084" fill="#ffffff" stroke="#ffffff" xlink:href="#b"/>
<use x="1072.905709" y="623.09084" fill="#ffffff" stroke="#ffffff" xlink:href="#b"/>
<use x="938.422248" y="271.391464" fill="#ffffff" stroke="#ffffff" xlink:href="#b"/>
<use x="1150.299389" y="623.09084" fill="#ffffff" stroke="#ffffff" xlink:href="#b"/>
<use x="726.545108" y="389.094759" fill="#ffffff" stroke="#ffffff" xlink:href="#b"/>
<use x="1314.641523" y="506.398819" fill="#ffffff" stroke="#ffffff" xlink:href="#b"/>
<use x="1230.559501" y="623.09084" fill="#ffffff" stroke="#ffffff" xlink:href="#b"/>
<use x="1313.686045" y="623.09084" fill="#ffffff" stroke="#ffffff" xlink:href="#b"/>
<use x="726.067369" y="623.09084" fill="#ffffff" stroke="#ffffff" xlink:href="#b"/>
<use x="642.940825" y="389.094759" fill="#ffffff" stroke="#ffffff" xlink:href="#b"/>
<use x="789.128885" y="623.09084" fill="#ffffff" stroke="#ffffff" xlink:href="#b"/>
<use x="496.752764" y="506.398819" fill="#ffffff" stroke="#ffffff" xlink:href="#b"/>
<use x="855.056834" y="623.09084" fill="#ffffff" stroke="#ffffff" xlink:href="#b"/>
<use x="463.788789" y="389.094759" fill="#ffffff" stroke="#ffffff" xlink:href="#b"/>
<use x="551.214982" y="623.09084" fill="#ffffff" stroke="#ffffff" xlink:href="#b"/>
<use x="605.677201" y="623.09084" fill="#ffffff" stroke="#ffffff" xlink:href="#b"/>
<use x="427.958382" y="506.398819" fill="#ffffff" stroke="#ffffff" xlink:href="#b"/>
<use x="499.619196" y="623.09084" fill="#ffffff" stroke="#ffffff" xlink:href="#b"/>
<use x="405.026922" y="623.09084" fill="#ffffff" stroke="#ffffff" xlink:href="#b"/>
<use x="450.889843" y="623.09084" fill="#ffffff" stroke="#ffffff" xlink:href="#b"/>
<use x="128.416179" y="506.398819" fill="#ffffff" stroke="#ffffff" xlink:href="#b"/>
<use x="161.380153" y="623.09084" fill="#ffffff" stroke="#ffffff" xlink:href="#b"/>
<use x="187.178047" y="623.09084" fill="#ffffff" stroke="#ffffff" xlink:href="#b"/>
<use x="215.842372" y="623.09084" fill="#ffffff" stroke="#ffffff" xlink:href="#b"/>
<use x="282.725799" y="506.398819" fill="#ffffff" stroke="#ffffff" xlink:href="#b"/>
<use x="247.37313" y="623.09084" fill="#ffffff" stroke="#ffffff" xlink:href="#b"/>
<use x="281.770321" y="623.09084" fill="#ffffff" stroke="#ffffff" xlink:href="#b"/>
<use x="319.033945" y="623.09084" fill="#ffffff" stroke="#ffffff" xlink:href="#b"/>
<use x="118.383665" y="623.09084" fill="#ffffff" stroke="#ffffff" xlink:href="#b"/>
<use x="138.448693" y="623.09084" fill="#ffffff" stroke="#ffffff" xlink:href="#b"/>
<use x="66.787879" y="623.09084" fill="#ffffff" stroke="#ffffff" xlink:href="#b"/>
<use x="75.387176" y="623.09084" fill="#ffffff" stroke="#ffffff" xlink:href="#b"/>
<use x="86.852907" y="623.09084" fill="#ffffff" stroke="#ffffff" xlink:href="#b"/>
<use x="101.18507" y="623.09084" fill="#ffffff" stroke="#ffffff" xlink:href="#b"/>
<use x="272.629586" y="153.390406" fill="#808080" stroke="#808080" xlink:href="#b"/>
<use x="362.030433" y="623.09084" fill="#ffffff" stroke="#ffffff" xlink:href="#b"/>
<use x="1399.679022" y="623.09084" fill="#ffffff" stroke="#ffffff" xlink:href="#b"/>
</g>
<g clip-path="url(#a)">
<defs>
<path id="at" d="m39.406 66.219q-10.75 0-17.078-8.0156-6.3125-8-6.3125-21.828 0-13.766 6.3125-21.781 6.3281-8 17.078-8 10.734 0 17.016 8 6.2812 8.0156 6.2812 21.781 0 13.828-6.2812 21.828-6.2812 8.0156-17.016 8.0156zm0 8q15.328 0 24.5-10.281 9.1875-10.281 9.1875-27.562 0-17.234-9.1875-27.516-9.1719-10.281-24.5-10.281-15.375 0-24.594 10.25-9.2031 10.266-9.2031 27.547t9.2031 27.562q9.2188 10.281 24.594 10.281z"/>
</defs>
<g transform="translate(59.683 740.94) scale(.1 -.1)">
<use xlink:href="#at"/>
<use x="78.710938" xlink:href="#h"/>
</g>
</g>
<g clip-path="url(#a)">
<defs>
<path id="m" d="m18.312 70.219v-15.531h18.5v-6.9844h-18.5v-29.688q0-6.6875 1.8281-8.5938t7.4531-1.9062h9.2188v-7.5156h-9.2188q-10.406 0-14.359 3.875-3.9531 3.8906-3.9531 14.141v29.688h-6.5938v6.9844h6.5938v15.531z"/>
<path id="v" d="m54.891 33.016v-33.016h-8.9844v32.719q0 7.7656-3.0312 11.609-3.0312 3.8594-9.0781 3.8594-7.2812 0-11.484-4.6406-4.2031-4.625-4.2031-12.641v-30.906h-9.0312v75.984h9.0312v-29.797q3.2344 4.9375 7.5938 7.375 4.375 2.4375 10.094 2.4375 9.4219 0 14.25-5.8281 4.8438-5.8281 4.8438-17.156z"/>
</defs>
<g transform="translate(67.182 740.94) scale(.1 -.1)">
<use xlink:href="#m"/>
<use x="39.208984" xlink:href="#v"/>
<use x="102.587891" xlink:href="#e"/>
</g>
</g>
<g clip-path="url(#a)">
<defs>
<path id="x" d="m30.609 48.391q-7.2188 0-11.422-5.6406t-4.2031-15.453 4.1719-15.453q4.1875-5.6406 11.453-5.6406 7.1875 0 11.375 5.6562 4.2031 5.6719 4.2031 15.438 0 9.7188-4.2031 15.406-4.1875 5.6875-11.375 5.6875zm0 7.6094q11.719 0 18.406-7.625 6.7031-7.6094 6.7031-21.078 0-13.422-6.7031-21.078-6.6875-7.6406-18.406-7.6406-11.766 0-18.438 7.6406-6.6562 7.6562-6.6562 21.078 0 13.469 6.6562 21.078 6.6719 7.625 18.438 7.625z"/>
<path id="ai" d="m37.109 75.984v-7.4844h-8.5938q-4.8281 0-6.7188-1.9531-1.875-1.9531-1.875-7.0312v-4.8281h14.797v-6.9844h-14.797v-47.703h-9.0312v47.703h-8.5938v6.9844h8.5938v3.8125q0 9.125 4.25 13.297 4.25 4.1875 13.469 4.1875z"/>
<path id="am" d="m48.781 52.594v-8.4062q-3.8125 2.1094-7.6406 3.1562t-7.7344 1.0469q-8.75 0-13.594-5.5469-4.8281-5.5312-4.8281-15.547t4.8281-15.562q4.8438-5.5312 13.594-5.5312 3.9062 0 7.7344 1.0469t7.6406 3.1562v-8.3125q-3.7656-1.75-7.7969-2.625-4.0156-0.89062-8.5625-0.89062-12.359 0-19.641 7.7656-7.2656 7.7656-7.2656 20.953 0 13.375 7.3438 21.031 7.3594 7.6719 20.156 7.6719 4.1406 0 8.0938-0.85938 3.9531-0.84375 7.6719-2.5469z"/>
</defs>
<g transform="translate(62.297 740.94) scale(.1 -.1)">
<use xlink:href="#x"/>
<use x="61.181641" xlink:href="#ai"/>
<use x="96.386719" xlink:href="#ai"/>
<use x="131.591797" xlink:href="#am"/>
<use x="186.572266" xlink:href="#v"/>
<use x="249.951172" xlink:href="#f"/>
<use x="311.230469" xlink:href="#h"/>
<use x="374.609375" xlink:href="#am"/>
<use x="429.589844" xlink:href="#e"/>
</g>
</g>
<g clip-path="url(#a)">
<g transform="translate(91.032 740.94) scale(.1 -.1)">
<use xlink:href="#m"/>
<use x="39.208984" xlink:href="#v"/>
<use x="102.587891" xlink:href="#f"/>
<use x="163.867188" xlink:href="#m"/>
</g>
</g>
<g clip-path="url(#a)">
<g transform="translate(110.18 740.94) scale(.1 -.1)">
<use xlink:href="#m"/>
<use x="39.208984" xlink:href="#v"/>
<use x="102.587891" xlink:href="#e"/>
</g>
</g>
<g clip-path="url(#a)">
<g transform="translate(121.5 740.94) scale(.1 -.1)">
<use xlink:href="#f"/>
<use x="61.279297" xlink:href="#h"/>
<use x="124.658203" xlink:href="#i"/>
<use x="152.441406" xlink:href="#k"/>
<use x="249.853516" xlink:href="#f"/>
<use x="311.132812" xlink:href="#l"/>
</g>
</g>
<g clip-path="url(#a)">
<defs>
<path id="ax" d="m45.406 27.984q0 9.7656-4.0312 15.125-4.0156 5.375-11.297 5.375-7.2188 0-11.25-5.375-4.0312-5.3594-4.0312-15.125 0-9.7188 4.0312-15.094t11.25-5.375q7.2812 0 11.297 5.375 4.0312 5.375 4.0312 15.094zm8.9844-21.203q0-13.953-6.2031-20.766-6.1875-6.8125-18.984-6.8125-4.7344 0-8.9375 0.70312t-8.1562 2.1719v8.7344q3.9531-2.1406 7.8125-3.1562 3.8594-1.0312 7.8594-1.0312 8.8438 0 13.234 4.6094t4.3906 13.938v4.4531q-2.7812-4.8438-7.125-7.2344t-10.406-2.3906q-10.047 0-16.203 7.6562-6.1562 7.6719-6.1562 20.328 0 12.688 6.1562 20.344 6.1562 7.6719 16.203 7.6719 6.0625 0 10.406-2.3906t7.125-7.2188v8.2969h8.9844z"/>
</defs>
<g transform="translate(146.82 740.94) scale(.1 -.1)">
<use xlink:href="#k"/>
<use x="97.412109" xlink:href="#i"/>
<use x="125.195312" xlink:href="#ax"/>
<use x="188.671875" xlink:href="#v"/>
<use x="252.050781" xlink:href="#m"/>
</g>
</g>
<g clip-path="url(#a)">
<defs>
<path id="as" d="m48.688 27.297q0 9.9062-4.0781 15.547t-11.203 5.6406q-7.1406 0-11.219-5.6406t-4.0781-15.547 4.0781-15.547 11.219-5.6406q7.125 0 11.203 5.6406t4.0781 15.547zm-30.578 19.094q2.8438 4.875 7.1562 7.2344 4.3281 2.375 10.328 2.375 9.9688 0 16.188-7.9062 6.2344-7.9062 6.2344-20.797t-6.2344-20.812q-6.2188-7.9062-16.188-7.9062-6 0-10.328 2.375-4.3125 2.375-7.1562 7.25v-8.2031h-9.0312v75.984h9.0312z"/>
</defs>
<g transform="translate(180.93 740.94) scale(.1 -.1)">
<use xlink:href="#as"/>
<use x="63.476562" xlink:href="#e"/>
</g>
</g>
<g clip-path="url(#a)">
<defs>
<path id="ah" d="m8.5 21.578v33.109h8.9844v-32.766q0-7.7656 3.0156-11.656 3.0312-3.875 9.0938-3.875 7.2656 0 11.484 4.6406 4.2344 4.6406 4.2344 12.656v31h8.9844v-54.688h-8.9844v8.4062q-3.2656-4.9844-7.5938-7.4062-4.3125-2.4219-10.031-2.4219-9.4219 0-14.312 5.8594-4.875 5.8594-4.875 17.141z"/>
<path id="aj" d="m45.406 46.391v29.594h8.9844v-75.984h-8.9844v8.2031q-2.8281-4.875-7.1562-7.25-4.3125-2.375-10.375-2.375-9.9062 0-16.141 7.9062-6.2188 7.9219-6.2188 20.812t6.2188 20.797q6.2344 7.9062 16.141 7.9062 6.0625 0 10.375-2.375 4.3281-2.3594 7.1562-7.2344zm-30.609-19.094q0-9.9062 4.0781-15.547t11.203-5.6406 11.219 5.6406q4.1094 5.6406 4.1094 15.547t-4.1094 15.547q-4.0938 5.6406-11.219 5.6406t-11.203-5.6406-4.0781-15.547z"/>
</defs>
<g transform="translate(201.51 740.94) scale(.1 -.1)">
<use xlink:href="#ai"/>
<use x="35.205078" xlink:href="#x"/>
<use x="96.386719" xlink:href="#ah"/>
<use x="159.765625" xlink:href="#h"/>
<use x="223.144531" xlink:href="#aj"/>
</g>
</g>
<g clip-path="url(#a)">
<g transform="translate(242.82 740.94) scale(.1 -.1)">
<use xlink:href="#i"/>
<use x="27.783203" xlink:href="#h"/>
</g>
</g>
<g clip-path="url(#a)">
<defs>
<path id="u" d="m44.281 53.078v-8.5q-3.7969 1.9531-7.9062 2.9219-4.0938 0.98438-8.5 0.98438-6.6875 0-10.031-2.0469t-3.3438-6.1562q0-3.125 2.3906-4.9062t9.625-3.3906l3.0781-0.6875q9.5625-2.0469 13.594-5.7812t4.0312-10.422q0-7.625-6.0312-12.078-6.0312-4.4375-16.578-4.4375-4.3906 0-9.1562 0.85938t-10.031 2.5625v9.2812q4.9844-2.5938 9.8125-3.8906 4.8281-1.2812 9.5781-1.2812 6.3438 0 9.75 2.1719 3.4219 2.1719 3.4219 6.125 0 3.6562-2.4688 5.6094-2.4531 1.9531-10.812 3.7656l-3.125 0.73438q-8.3438 1.75-12.062 5.3906-3.7031 3.6406-3.7031 9.9844 0 7.7188 5.4688 11.906 5.4688 4.2031 15.531 4.2031 4.9688 0 9.3594-0.73438 4.4062-0.71875 8.1094-2.1875z"/>
</defs>
<g transform="translate(267.88 740.94) scale(.1 -.1)">
<use xlink:href="#m"/>
<use x="39.208984" xlink:href="#v"/>
<use x="102.587891" xlink:href="#e"/>
<use x="164.111328" xlink:href="#u"/>
<use x="216.210938" xlink:href="#e"/>
</g>
</g>
<g clip-path="url(#a)">
<defs>
<path id="al" d="m4.2031 54.688h8.9844l11.234-42.672 11.172 42.672h10.594l11.234-42.672 11.188 42.672h8.9844l-14.312-54.688h-10.594l-11.766 44.828-11.812-44.828h-10.609z"/>
<path id="aq" d="m32.172-5.0781q-3.7969-9.7656-7.4219-12.734-3.6094-2.9844-9.6562-2.9844h-7.1875v7.5156h5.2812q3.7031 0 5.75 1.7656 2.0625 1.75 4.5469 8.2969l1.6094 4.0938-22.109 53.812h9.5156l17.094-42.766 17.094 42.766h9.5156z"/>
</defs>
<g transform="translate(292.07 740.94) scale(.1 -.1)">
<use xlink:href="#al"/>
<use x="81.787109" xlink:href="#f"/>
<use x="143.066406" xlink:href="#m"/>
<use x="182.275391" xlink:href="#e"/>
<use x="243.798828" xlink:href="#g"/>
<use x="284.912109" xlink:href="#al"/>
<use x="366.699219" xlink:href="#f"/>
<use x="427.978516" xlink:href="#aq"/>
<use x="487.158203" xlink:href="#u"/>
</g>
</g>
<g clip-path="url(#a)">
<defs>
<path id="av" d="m11.719 12.406h10.297v-8.4062l-8-15.625h-6.2969l4 15.625z"/>
</defs>
<g transform="translate(360.44 740.94) scale(.1 -.1)">
<use xlink:href="#av"/>
</g>
</g>
<g clip-path="url(#a)">
<g transform="translate(401.96 740.94) scale(.1 -.1)">
<use xlink:href="#f"/>
</g>
</g>
<g clip-path="url(#a)">
<g transform="translate(427.52 740.94) scale(.1 -.1)">
<use xlink:href="#m"/>
<use x="39.208984" xlink:href="#v"/>
<use x="102.587891" xlink:href="#x"/>
<use x="163.769531" xlink:href="#ah"/>
<use x="227.148438" xlink:href="#u"/>
<use x="279.248047" xlink:href="#f"/>
<use x="340.527344" xlink:href="#h"/>
<use x="403.90625" xlink:href="#aj"/>
</g>
</g>
<g clip-path="url(#a)">
<g transform="translate(477.71 740.94) scale(.1 -.1)">
<use xlink:href="#k"/>
<use x="97.412109" xlink:href="#e"/>
<use x="158.935547" xlink:href="#m"/>
<use x="198.144531" xlink:href="#v"/>
<use x="261.523438" xlink:href="#x"/>
<use x="322.705078" xlink:href="#aj"/>
<use x="386.181641" xlink:href="#u"/>
</g>
</g>
<g clip-path="url(#a)">
<g transform="translate(539.03 740.94) scale(.1 -.1)">
<use xlink:href="#al"/>
<use x="81.787109" xlink:href="#e"/>
<use x="143.310547" xlink:href="#g"/>
<use x="182.173828" xlink:href="#e"/>
</g>
</g>
<g clip-path="url(#a)">
<g transform="translate(593.65 740.94) scale(.1 -.1)">
<use xlink:href="#ah"/>
<use x="63.378906" xlink:href="#u"/>
<use x="115.478516" xlink:href="#e"/>
<use x="177.001953" xlink:href="#aj"/>
</g>
</g>
<g clip-path="url(#a)">
<g transform="translate(660.85 740.94) scale(.1 -.1)">
<use xlink:href="#m"/>
<use x="39.208984" xlink:href="#x"/>
</g>
</g>
<g clip-path="url(#a)">
<defs>
<path id="ar" d="m18.109 8.2031v-29h-9.0312v75.484h9.0312v-8.2969q2.8438 4.875 7.1562 7.2344 4.3281 2.375 10.328 2.375 9.9688 0 16.188-7.9062 6.2344-7.9062 6.2344-20.797t-6.2344-20.812q-6.2188-7.9062-16.188-7.9062-6 0-10.328 2.375-4.3125 2.375-7.1562 7.25zm30.578 19.094q0 9.9062-4.0781 15.547t-11.203 5.6406q-7.1406 0-11.219-5.6406t-4.0781-15.547 4.0781-15.547 11.219-5.6406q7.125 0 11.203 5.6406t4.0781 15.547z"/>
<path id="aw" d="m9.0781 75.984h9.0312v-44.875l26.812 23.578h11.469l-29-25.578 30.234-29.109h-11.719l-27.797 26.703v-26.703h-9.0312z"/>
</defs>
<g transform="translate(712.27 740.94) scale(.1 -.1)">
<use xlink:href="#u"/>
<use x="52.099609" xlink:href="#ar"/>
<use x="115.576172" xlink:href="#f"/>
<use x="176.855469" xlink:href="#g"/>
<use x="217.96875" xlink:href="#aw"/>
</g>
</g>
<g clip-path="url(#a)">
<g transform="translate(783.17 740.94) scale(.1 -.1)">
<use xlink:href="#i"/>
<use x="27.783203" xlink:href="#m"/>
<use x="66.992188" xlink:href="#u"/>
</g>
</g>
<g clip-path="url(#a)">
<g transform="translate(835.88 740.94) scale(.1 -.1)">
<use xlink:href="#i"/>
<use x="27.783203" xlink:href="#h"/>
<use x="91.162109" xlink:href="#m"/>
<use x="130.371094" xlink:href="#e"/>
<use x="191.894531" xlink:href="#g"/>
<use x="230.757812" xlink:href="#e"/>
<use x="292.28125" xlink:href="#u"/>
<use x="344.380859" xlink:href="#m"/>
</g>
</g>
<g clip-path="url(#a)">
<g transform="translate(921.6 740.94) scale(.1 -.1)">
<use xlink:href="#x"/>
<use x="61.181641" xlink:href="#g"/>
</g>
</g>
<g clip-path="url(#a)">
<g transform="translate(984.53 740.94) scale(.1 -.1)">
<use xlink:href="#g"/>
<use x="38.863281" xlink:href="#x"/>
<use x="100.044922" xlink:href="#ah"/>
<use x="163.423828" xlink:href="#u"/>
<use x="215.523438" xlink:href="#e"/>
</g>
</g>
<g clip-path="url(#a)">
<g transform="translate(1069.6 740.94) scale(.1 -.1)">
<use xlink:href="#i"/>
<use x="27.783203" xlink:href="#m"/>
</g>
</g>
<g clip-path="url(#a)">
<g transform="translate(1138.7 740.94) scale(.1 -.1)">
<use xlink:href="#ai"/>
<use x="35.205078" xlink:href="#g"/>
<use x="74.068359" xlink:href="#x"/>
<use x="135.25" xlink:href="#k"/>
</g>
</g>
<g clip-path="url(#a)">
<g transform="translate(1224.6 740.94) scale(.1 -.1)">
<use xlink:href="#i"/>
<use x="27.783203" xlink:href="#m"/>
<use x="66.992188" xlink:href="#u"/>
</g>
</g>
<g clip-path="url(#a)">
<g transform="translate(1296.3 740.94) scale(.1 -.1)">
<use xlink:href="#f"/>
<use x="61.279297" xlink:href="#ar"/>
<use x="124.755859" xlink:href="#f"/>
<use x="186.035156" xlink:href="#m"/>
<use x="225.244141" xlink:href="#v"/>
<use x="288.623047" xlink:href="#aq"/>
</g>
</g>
<g clip-path="url(#a)">
<defs>
<path id="d" d="m10.688 12.406h10.312v-12.406h-10.312z"/>
</defs>
<g transform="translate(1398.1 740.94) scale(.1 -.1)">
<use xlink:href="#d"/>
</g>
</g>
<g clip-path="url(#a)">
<defs>
<path id="r" d="m9.8125 72.906h9.8594v-72.906h-9.8594z"/>
<path id="ad" d="m9.8125 72.906h14.703l18.594-49.609 18.703 49.609h14.703v-72.906h-9.625v64.016l-18.797-50h-9.9062l-18.797 50v-64.016h-9.5781z"/>
</defs>
<g transform="translate(1381.5 274.15) scale(.1 -.1)">
<use xlink:href="#r"/>
<use x="29.492188" xlink:href="#ad"/>
<use x="115.771484" xlink:href="#w"/>
<use x="176.074219" xlink:href="#t"/>
<use x="231.787109" xlink:href="#r"/>
<use x="261.279297" xlink:href="#s"/>
<use x="331.103516" xlink:href="#r"/>
<use x="360.595703" xlink:href="#j"/>
</g>
</g>
<g clip-path="url(#a)">
<g transform="translate(836.84 391.85) scale(.1 -.1)">
<use xlink:href="#r"/>
<use x="29.492188" xlink:href="#ad"/>
<use x="115.771484" xlink:href="#w"/>
<use x="176.074219" xlink:href="#t"/>
<use x="231.787109" xlink:href="#r"/>
<use x="261.279297" xlink:href="#s"/>
<use x="331.103516" xlink:href="#r"/>
<use x="360.595703" xlink:href="#j"/>
</g>
</g>
<g clip-path="url(#a)">
<g transform="translate(587.46 391.85) scale(.1 -.1)">
<use xlink:href="#r"/>
<use x="29.492188" xlink:href="#ad"/>
<use x="115.771484" xlink:href="#w"/>
<use x="176.074219" xlink:href="#t"/>
<use x="231.787109" xlink:href="#r"/>
<use x="261.279297" xlink:href="#s"/>
<use x="331.103516" xlink:href="#r"/>
<use x="360.595703" xlink:href="#j"/>
</g>
</g>
<g clip-path="url(#a)">
<g transform="translate(300.82 509.16) scale(.1 -.1)">
<use xlink:href="#r"/>
<use x="29.492188" xlink:href="#ad"/>
<use x="115.771484" xlink:href="#w"/>
<use x="176.074219" xlink:href="#t"/>
<use x="231.787109" xlink:href="#r"/>
<use x="261.279297" xlink:href="#s"/>
<use x="331.103516" xlink:href="#r"/>
<use x="360.595703" xlink:href="#j"/>
</g>
</g>
<g clip-path="url(#a)">
<defs>
<path id="c" d="m12.406 8.2969h16.109v55.625l-17.531-3.5156v8.9844l17.438 3.5156h9.8594v-64.609h16.109v-8.2969h-41.984z"/>
</defs>
<g transform="translate(549.58 37.911) scale(.1 -.1)">
<use xlink:href="#c"/>
<use x="63.623047" xlink:href="#d"/>
<use x="95.410156" xlink:href="#c"/>
</g>
</g>
<g clip-path="url(#a)">
<defs>
<path id="q" d="m19.188 8.2969h34.422v-8.2969h-46.281v8.2969q5.6094 5.8125 15.297 15.594 9.7031 9.7969 12.188 12.641 4.7344 5.3125 6.6094 9 1.8906 3.6875 1.8906 7.25 0 5.8125-4.0781 9.4688-4.0781 3.6719-10.625 3.6719-4.6406 0-9.7969-1.6094-5.1406-1.6094-11-4.8906v9.9688q5.9531 2.3906 11.125 3.6094 5.1875 1.2188 9.4844 1.2188 11.328 0 18.062-5.6719 6.7344-5.6562 6.7344-15.125 0-4.5-1.6875-8.5312-1.6719-4.0156-6.125-9.4844-1.2188-1.4219-7.7656-8.1875-6.5312-6.7656-18.453-18.922z"/>
</defs>
<g transform="translate(74.602 509.16) scale(.1 -.1)">
<use xlink:href="#c"/>
<use x="63.623047" xlink:href="#d"/>
<use x="95.410156" xlink:href="#q"/>
</g>
</g>
<g clip-path="url(#a)">
<defs>
<path id="p" d="m40.578 39.312q7.0781-1.5156 11.047-6.3125 3.9844-4.7812 3.9844-11.812 0-10.781-7.4219-16.703-7.4219-5.9062-21.094-5.9062-4.5781 0-9.4375 0.90625t-10.031 2.7188v9.5156q4.0938-2.3906 8.9688-3.6094 4.8906-1.2188 10.219-1.2188 9.2656 0 14.125 3.6562t4.8594 10.641q0 6.4531-4.5156 10.078-4.5156 3.6406-12.562 3.6406h-8.5v8.1094h8.8906q7.2656 0 11.125 2.9062t3.8594 8.375q0 5.6094-3.9844 8.6094-3.9688 3.0156-11.391 3.0156-4.0625 0-8.7031-0.89062-4.6406-0.875-10.203-2.7188v8.7812q5.625 1.5625 10.531 2.3438t9.25 0.78125q11.234 0 17.766-5.1094 6.5469-5.0938 6.5469-13.781 0-6.0625-3.4688-10.234t-9.8594-5.7812z"/>
</defs>
<g transform="translate(187.16 391.85) scale(.1 -.1)">
<use xlink:href="#c"/>
<use x="63.623047" xlink:href="#d"/>
<use x="95.410156" xlink:href="#p"/>
</g>
</g>
<g clip-path="url(#a)">
<defs>
<path id="o" d="m37.797 64.312-24.906-38.922h24.906zm-2.5938 8.5938h12.406v-47.516h10.406v-8.2031h-10.406v-17.188h-9.8125v17.188h-32.906v9.5156z"/>
</defs>
<g transform="translate(532.28 274.15) scale(.1 -.1)">
<use xlink:href="#c"/>
<use x="63.623047" xlink:href="#d"/>
<use x="95.410156" xlink:href="#o"/>
</g>
</g>
<g clip-path="url(#a)">
<defs>
<path id="z" d="m10.797 72.906h38.719v-8.3125h-29.688v-17.859q2.1406 0.73438 4.2812 1.0938 2.1562 0.35938 4.3125 0.35938 12.203 0 19.328-6.6875 7.1406-6.6875 7.1406-18.109 0-11.766-7.3281-18.297-7.3281-6.5156-20.656-6.5156-4.5938 0-9.3594 0.78125-4.75 0.78125-9.8281 2.3438v9.9219q4.3906-2.3906 9.0781-3.5625t9.9062-1.1719q8.4531 0 13.375 4.4375 4.9375 4.4375 4.9375 12.062 0 7.6094-4.9375 12.047-4.9219 4.4531-13.375 4.4531-3.9531 0-7.8906-0.875-3.9219-0.875-8.0156-2.7344z"/>
</defs>
<g transform="translate(657.92 625.85) scale(.1 -.1)">
<use xlink:href="#c"/>
<use x="63.623047" xlink:href="#d"/>
<use x="95.410156" xlink:href="#z"/>
</g>
</g>
<g clip-path="url(#a)">
<defs>
<path id="ag" d="m33.016 40.375q-6.6406 0-10.531-4.5469-3.875-4.5312-3.875-12.438 0-7.8594 3.875-12.438 3.8906-4.5625 10.531-4.5625t10.516 4.5625q3.875 4.5781 3.875 12.438 0 7.9062-3.875 12.438-3.875 4.5469-10.516 4.5469zm19.578 30.922v-8.9844q-3.7188 1.75-7.5 2.6719-3.7812 0.9375-7.5 0.9375-9.7656 0-14.922-6.5938-5.1406-6.5938-5.875-19.922 2.875 4.25 7.2188 6.5156 4.3594 2.2656 9.5781 2.2656 10.984 0 17.359-6.6719 6.375-6.6562 6.375-18.125 0-11.234-6.6406-18.031-6.6406-6.7812-17.672-6.7812-12.656 0-19.344 9.6875-6.6875 9.7031-6.6875 28.109 0 17.281 8.2031 27.562t22.016 10.281q3.7188 0 7.5-0.73438t7.8906-2.1875z"/>
</defs>
<g transform="translate(676.55 274.15) scale(.1 -.1)">
<use xlink:href="#c"/>
<use x="63.623047" xlink:href="#d"/>
<use x="95.410156" xlink:href="#ag"/>
</g>
</g>
<g clip-path="url(#a)">
<defs>
<path id="ac" d="m8.2031 72.906h46.875v-4.2031l-26.469-68.703h-10.297l24.906 64.594h-35.016z"/>
</defs>
<g transform="translate(918.77 625.85) scale(.1 -.1)">
<use xlink:href="#c"/>
<use x="63.623047" xlink:href="#d"/>
<use x="95.410156" xlink:href="#ac"/>
</g>
</g>
<g clip-path="url(#a)">
<defs>
<path id="ab" d="m31.781 34.625q-7.0312 0-11.062-3.7656-4.0156-3.7656-4.0156-10.344 0-6.5938 4.0156-10.359 4.0312-3.7656 11.062-3.7656t11.078 3.7812q4.0625 3.7969 4.0625 10.344 0 6.5781-4.0312 10.344-4.0156 3.7656-11.109 3.7656zm-9.8594 4.1875q-6.3438 1.5625-9.8906 5.9062-3.5312 4.3594-3.5312 10.609 0 8.7344 6.2188 13.812 6.2344 5.0781 17.062 5.0781 10.891 0 17.094-5.0781t6.2031-13.812q0-6.25-3.5469-10.609-3.5312-4.3438-9.8281-5.9062 7.125-1.6562 11.094-6.5 3.9844-4.8281 3.9844-11.797 0-10.609-6.4688-16.281-6.4688-5.6562-18.531-5.6562-12.047 0-18.531 5.6562-6.4688 5.6719-6.4688 16.281 0 6.9688 4 11.797 4.0156 4.8438 11.141 6.5zm-3.6094 15.578q0-5.6562 3.5312-8.8281 3.5469-3.1719 9.9375-3.1719 6.3594 0 9.9375 3.1719 3.5938 3.1719 3.5938 8.8281 0 5.6719-3.5938 8.8438-3.5781 3.1719-9.9375 3.1719-6.3906 0-9.9375-3.1719-3.5312-3.1719-3.5312-8.8438z"/>
</defs>
<g transform="translate(995.28 156.15) scale(.1 -.1)">
<use xlink:href="#c"/>
<use x="63.623047" xlink:href="#d"/>
<use x="95.410156" xlink:href="#ab"/>
</g>
</g>
<g clip-path="url(#a)">
<g transform="translate(987.25 625.85) scale(.1 -.1)">
<use xlink:href="#c"/>
<use x="63.623047" xlink:href="#d"/>
<use x="95.410156" xlink:href="#c"/>
<use x="159.033203" xlink:href="#q"/>
</g>
</g>
<g clip-path="url(#a)">
<g transform="translate(1061.8 625.85) scale(.1 -.1)">
<use xlink:href="#c"/>
<use x="63.623047" xlink:href="#d"/>
<use x="95.410156" xlink:href="#c"/>
<use x="159.033203" xlink:href="#p"/>
</g>
</g>
<g clip-path="url(#a)">
<g transform="translate(927.29 274.15) scale(.1 -.1)">
<use xlink:href="#c"/>
<use x="63.623047" xlink:href="#d"/>
<use x="95.410156" xlink:href="#c"/>
<use x="159.033203" xlink:href="#o"/>
</g>
</g>
<g clip-path="url(#a)">
<g transform="translate(1139.2 625.85) scale(.1 -.1)">
<use xlink:href="#c"/>
<use x="63.623047" xlink:href="#d"/>
<use x="95.410156" xlink:href="#c"/>
<use x="159.033203" xlink:href="#z"/>
</g>
</g>
<g clip-path="url(#a)">
<g transform="translate(715.41 391.85) scale(.1 -.1)">
<use xlink:href="#c"/>
<use x="63.623047" xlink:href="#d"/>
<use x="95.410156" xlink:href="#c"/>
<use x="159.033203" xlink:href="#ag"/>
</g>
</g>
<g clip-path="url(#a)">
<g transform="translate(1303.5 509.16) scale(.1 -.1)">
<use xlink:href="#c"/>
<use x="63.623047" xlink:href="#d"/>
<use x="95.410156" xlink:href="#c"/>
<use x="159.033203" xlink:href="#ac"/>
</g>
</g>
<g clip-path="url(#a)">
<g transform="translate(1219.4 625.85) scale(.1 -.1)">
<use xlink:href="#c"/>
<use x="63.623047" xlink:href="#d"/>
<use x="95.410156" xlink:href="#c"/>
<use x="159.033203" xlink:href="#ab"/>
</g>
</g>
<g clip-path="url(#a)">
<defs>
<path id="af" d="m10.984 1.5156v8.9844q3.7188-1.7656 7.5156-2.6875 3.8125-0.92188 7.4844-0.92188 9.7656 0 14.906 6.5625 5.1562 6.5625 5.8906 19.953-2.8281-4.2031-7.1875-6.4531-4.3438-2.25-9.6094-2.25-10.938 0-17.312 6.6094-6.375 6.625-6.375 18.109 0 11.219 6.6406 18 6.6406 6.7969 17.672 6.7969 12.656 0 19.312-9.7031 6.6719-9.6875 6.6719-28.141 0-17.234-8.1875-27.516-8.1719-10.281-21.984-10.281-3.7188 0-7.5312 0.73438-3.7969 0.73438-7.9062 2.2031zm19.625 30.906q6.6406 0 10.516 4.5312 3.8906 4.5469 3.8906 12.469 0 7.8594-3.8906 12.422-3.875 4.5625-10.516 4.5625t-10.516-4.5625-3.875-12.422q0-7.9219 3.875-12.469 3.875-4.5312 10.516-4.5312z"/>
</defs>
<g transform="translate(1302.6 625.85) scale(.1 -.1)">
<use xlink:href="#c"/>
<use x="63.623047" xlink:href="#d"/>
<use x="95.410156" xlink:href="#c"/>
<use x="159.033203" xlink:href="#af"/>
</g>
</g>
<g clip-path="url(#a)">
<g transform="translate(714.93 625.85) scale(.1 -.1)">
<use xlink:href="#c"/>
<use x="63.623047" xlink:href="#d"/>
<use x="95.410156" xlink:href="#q"/>
<use x="159.033203" xlink:href="#c"/>
</g>
</g>
<g clip-path="url(#a)">
<g transform="translate(631.81 391.85) scale(.1 -.1)">
<use xlink:href="#c"/>
<use x="63.623047" xlink:href="#d"/>
<use x="95.410156" xlink:href="#q"/>
<use x="159.033203" xlink:href="#q"/>
</g>
</g>
<g clip-path="url(#a)">
<g transform="translate(778 625.85) scale(.1 -.1)">
<use xlink:href="#c"/>
<use x="63.623047" xlink:href="#d"/>
<use x="95.410156" xlink:href="#q"/>
<use x="159.033203" xlink:href="#p"/>
</g>
</g>
<g clip-path="url(#a)">
<g transform="translate(485.62 509.16) scale(.1 -.1)">
<use xlink:href="#c"/>
<use x="63.623047" xlink:href="#d"/>
<use x="95.410156" xlink:href="#q"/>
<use x="159.033203" xlink:href="#o"/>
</g>
</g>
<g clip-path="url(#a)">
<g transform="translate(843.92 625.85) scale(.1 -.1)">
<use xlink:href="#c"/>
<use x="63.623047" xlink:href="#d"/>
<use x="95.410156" xlink:href="#q"/>
<use x="159.033203" xlink:href="#z"/>
</g>
</g>
<g clip-path="url(#a)">
<g transform="translate(452.66 391.85) scale(.1 -.1)">
<use xlink:href="#c"/>
<use x="63.623047" xlink:href="#d"/>
<use x="95.410156" xlink:href="#q"/>
<use x="159.033203" xlink:href="#ac"/>
</g>
</g>
<g clip-path="url(#a)">
<g transform="translate(540.08 625.85) scale(.1 -.1)">
<use xlink:href="#c"/>
<use x="63.623047" xlink:href="#d"/>
<use x="95.410156" xlink:href="#q"/>
<use x="159.033203" xlink:href="#ab"/>
</g>
</g>
<g clip-path="url(#a)">
<g transform="translate(594.54 625.85) scale(.1 -.1)">
<use xlink:href="#c"/>
<use x="63.623047" xlink:href="#d"/>
<use x="95.410156" xlink:href="#q"/>
<use x="159.033203" xlink:href="#af"/>
</g>
</g>
<g clip-path="url(#a)">
<defs>
<path id="ak" d="m31.781 66.406q-7.6094 0-11.453-7.5-3.8281-7.4844-3.8281-22.531 0-14.984 3.8281-22.484 3.8438-7.5 11.453-7.5 7.6719 0 11.5 7.5 3.8438 7.5 3.8438 22.484 0 15.047-3.8438 22.531-3.8281 7.5-11.5 7.5zm0 7.8125q12.266 0 18.734-9.7031 6.4688-9.6875 6.4688-28.141 0-18.406-6.4688-28.109-6.4688-9.6875-18.734-9.6875-12.25 0-18.719 9.6875-6.4688 9.7031-6.4688 28.109 0 18.453 6.4688 28.141 6.4688 9.7031 18.719 9.7031z"/>
</defs>
<g transform="translate(416.83 509.16) scale(.1 -.1)">
<use xlink:href="#c"/>
<use x="63.623047" xlink:href="#d"/>
<use x="95.410156" xlink:href="#p"/>
<use x="159.033203" xlink:href="#ak"/>
</g>
</g>
<g clip-path="url(#a)">
<g transform="translate(488.49 625.85) scale(.1 -.1)">
<use xlink:href="#c"/>
<use x="63.623047" xlink:href="#d"/>
<use x="95.410156" xlink:href="#p"/>
<use x="159.033203" xlink:href="#c"/>
</g>
</g>
<g clip-path="url(#a)">
<g transform="translate(393.89 625.85) scale(.1 -.1)">
<use xlink:href="#c"/>
<use x="63.623047" xlink:href="#d"/>
<use x="95.410156" xlink:href="#p"/>
<use x="159.033203" xlink:href="#q"/>
</g>
</g>
<g clip-path="url(#a)">
<g transform="translate(439.76 625.85) scale(.1 -.1)">
<use xlink:href="#c"/>
<use x="63.623047" xlink:href="#d"/>
<use x="95.410156" xlink:href="#p"/>
<use x="159.033203" xlink:href="#p"/>
</g>
</g>
<g clip-path="url(#a)">
<g transform="translate(117.28 509.16) scale(.1 -.1)">
<use xlink:href="#c"/>
<use x="63.623047" xlink:href="#d"/>
<use x="95.410156" xlink:href="#p"/>
<use x="159.033203" xlink:href="#z"/>
</g>
</g>
<g clip-path="url(#a)">
<g transform="translate(150.25 625.85) scale(.1 -.1)">
<use xlink:href="#c"/>
<use x="63.623047" xlink:href="#d"/>
<use x="95.410156" xlink:href="#p"/>
<use x="159.033203" xlink:href="#ag"/>
</g>
</g>
<g clip-path="url(#a)">
<g transform="translate(176.05 625.85) scale(.1 -.1)">
<use xlink:href="#c"/>
<use x="63.623047" xlink:href="#d"/>
<use x="95.410156" xlink:href="#p"/>
<use x="159.033203" xlink:href="#ac"/>
</g>
</g>
<g clip-path="url(#a)">
<g transform="translate(204.71 625.85) scale(.1 -.1)">
<use xlink:href="#c"/>
<use x="63.623047" xlink:href="#d"/>
<use x="95.410156" xlink:href="#p"/>
<use x="159.033203" xlink:href="#ab"/>
</g>
</g>
<g clip-path="url(#a)">
<g transform="translate(271.59 509.16) scale(.1 -.1)">
<use xlink:href="#c"/>
<use x="63.623047" xlink:href="#d"/>
<use x="95.410156" xlink:href="#p"/>
<use x="159.033203" xlink:href="#af"/>
</g>
</g>
<g clip-path="url(#a)">
<g transform="translate(236.24 625.85) scale(.1 -.1)">
<use xlink:href="#c"/>
<use x="63.623047" xlink:href="#d"/>
<use x="95.410156" xlink:href="#o"/>
<use x="159.033203" xlink:href="#ak"/>
</g>
</g>
<g clip-path="url(#a)">
<g transform="translate(270.64 625.85) scale(.1 -.1)">
<use xlink:href="#c"/>
<use x="63.623047" xlink:href="#d"/>
<use x="95.410156" xlink:href="#o"/>
<use x="159.033203" xlink:href="#c"/>
</g>
</g>
<g clip-path="url(#a)">
<g transform="translate(307.9 625.85) scale(.1 -.1)">
<use xlink:href="#c"/>
<use x="63.623047" xlink:href="#d"/>
<use x="95.410156" xlink:href="#o"/>
<use x="159.033203" xlink:href="#q"/>
</g>
</g>
<g clip-path="url(#a)">
<g transform="translate(107.25 625.85) scale(.1 -.1)">
<use xlink:href="#c"/>
<use x="63.623047" xlink:href="#d"/>
<use x="95.410156" xlink:href="#o"/>
<use x="159.033203" xlink:href="#p"/>
</g>
</g>
<g clip-path="url(#a)">
<g transform="translate(127.32 625.85) scale(.1 -.1)">
<use xlink:href="#c"/>
<use x="63.623047" xlink:href="#d"/>
<use x="95.410156" xlink:href="#o"/>
<use x="159.033203" xlink:href="#o"/>
</g>
</g>
<g clip-path="url(#a)">
<g transform="translate(55.655 625.85) scale(.1 -.1)">
<use xlink:href="#c"/>
<use x="63.623047" xlink:href="#d"/>
<use x="95.410156" xlink:href="#o"/>
<use x="159.033203" xlink:href="#z"/>
</g>
</g>
<g clip-path="url(#a)">
<g transform="translate(64.254 625.85) scale(.1 -.1)">
<use xlink:href="#c"/>
<use x="63.623047" xlink:href="#d"/>
<use x="95.410156" xlink:href="#o"/>
<use x="159.033203" xlink:href="#ag"/>
</g>
</g>
<g clip-path="url(#a)">
<g transform="translate(75.72 625.85) scale(.1 -.1)">
<use xlink:href="#c"/>
<use x="63.623047" xlink:href="#d"/>
<use x="95.410156" xlink:href="#o"/>
<use x="159.033203" xlink:href="#ac"/>
</g>
</g>
<g clip-path="url(#a)">
<g transform="translate(90.052 625.85) scale(.1 -.1)">
<use xlink:href="#c"/>
<use x="63.623047" xlink:href="#d"/>
<use x="95.410156" xlink:href="#o"/>
<use x="159.033203" xlink:href="#ab"/>
</g>
</g>
<g clip-path="url(#a)">
<g transform="translate(261.5 156.15) scale(.1 -.1)">
<use xlink:href="#c"/>
<use x="63.623047" xlink:href="#d"/>
<use x="95.410156" xlink:href="#o"/>
<use x="159.033203" xlink:href="#af"/>
</g>
</g>
<g clip-path="url(#a)">
<g transform="translate(350.9 625.85) scale(.1 -.1)">
<use xlink:href="#c"/>
<use x="63.623047" xlink:href="#d"/>
<use x="95.410156" xlink:href="#z"/>
<use x="159.033203" xlink:href="#ak"/>
</g>
</g>
<g clip-path="url(#a)">
<g transform="translate(1388.5 625.85) scale(.1 -.1)">
<use xlink:href="#c"/>
<use x="63.623047" xlink:href="#d"/>
<use x="95.410156" xlink:href="#z"/>
<use x="159.033203" xlink:href="#c"/>
</g>
</g>
<defs>
<clipPath id="a">
<rect width="1469.3" height="773.33"/>
</clipPath>
</defs>
</svg>
