<?xml version="1.0" encoding="UTF-8"?>
<!DOCTYPE svg  PUBLIC '-//W3C//DTD SVG 1.1//EN'  'http://www.w3.org/Graphics/SVG/1.1/DTD/svg11.dtd'>
<svg width="709.33pt" height="373.33pt" version="1.1" viewBox="0 0 709.33 373.33" xmlns="http://www.w3.org/2000/svg" xmlns:xlink="http://www.w3.org/1999/xlink">
<defs>
<style type="text/css">*{stroke-linecap:butt;stroke-linejoin:round;white-space:pre;}</style>
</defs>
<path d="m0 373.33h709.33v-373.33h-709.33z" fill="#fff"/>
<g fill="none" stroke="#000">
<path d="m201.93 17.881v59.127" clip-path="url(#a)"/>
<path d="m201.93 77.008-144.48 169.34" clip-path="url(#a)"/>
<path d="m201.93 77.008-70.177 223.89" clip-path="url(#a)"/>
<path d="m201.93 77.008 214.66 57.659" clip-path="url(#a)"/>
<path d="m57.446 246.35-24.768 54.551" clip-path="url(#a)"/>
<path d="m57.446 246.35 24.768 54.551" clip-path="url(#a)"/>
<path d="m131.75 300.9v54.551" clip-path="url(#a)"/>
<path d="m416.59 134.67-136.23 56.375" clip-path="url(#a)"/>
<path d="m416.59 134.67 12.384 166.23" clip-path="url(#a)"/>
<path d="m416.59 134.67 160.99 111.68" clip-path="url(#a)"/>
<path d="m416.59 134.67-37.153 166.23" clip-path="url(#a)"/>
<path d="m280.36 191.04-49.537 55.31" clip-path="url(#a)"/>
<path d="m280.36 191.04 49.537 109.86" clip-path="url(#a)"/>
<path d="m428.97 300.9v54.551" clip-path="url(#a)"/>
<path d="m577.58 246.35-99.073 54.551" clip-path="url(#a)"/>
<path d="m577.58 246.35-49.537 54.551" clip-path="url(#a)"/>
<path d="m577.58 246.35v54.551" clip-path="url(#a)"/>
<path d="m577.58 246.35 49.537 54.551" clip-path="url(#a)"/>
<path d="m577.58 246.35 99.073 54.551" clip-path="url(#a)"/>
<path d="m478.51 300.9v54.551" clip-path="url(#a)"/>
<path d="m528.05 300.9v54.551" clip-path="url(#a)"/>
<path d="m577.58 300.9v54.551" clip-path="url(#a)"/>
<path d="m627.12 300.9v54.551" clip-path="url(#a)"/>
<path d="m230.82 246.35-49.537 54.551" clip-path="url(#a)"/>
<path d="m230.82 246.35v54.551" clip-path="url(#a)"/>
<path d="m230.82 246.35 49.537 54.551" clip-path="url(#a)"/>
<path d="m329.9 300.9v54.551" clip-path="url(#a)"/>
<path d="m181.29 300.9v54.551" clip-path="url(#a)"/>
<path d="m230.82 300.9v54.551" clip-path="url(#a)"/>
<path d="m280.36 300.9v54.551" clip-path="url(#a)"/>
<path d="m32.678 300.9v54.551" clip-path="url(#a)"/>
<path d="m82.215 300.9v54.551" clip-path="url(#a)"/>
<path d="m379.44 300.9v54.551" clip-path="url(#a)"/>
<path d="m676.66 300.9v54.551" clip-path="url(#a)"/>
</g>
<path d="m195.66 44.436v6.0162q0 2.4 2.4 2.4h7.7425q2.4 0 2.4-2.4v-6.0162q0-2.4-2.4-2.4h-7.7425q-2.4 0-2.4 2.4z" clip-path="url(#a)" fill="#fff" stroke="#fff"/>
<g clip-path="url(#a)">
<defs>
<path id="x" d="m9.8125 72.906h9.8594v-29.891h35.844v29.891h9.8594v-72.906h-9.8594v34.719h-35.844v-34.719h-9.8594z"/>
</defs>
<g transform="translate(199.72 44.436) rotate(90) scale(.08 -.08)">
<use xlink:href="#x"/>
</g>
</g>
<path d="m132.68 167.83 3.552-4.1632q1.5577-1.8258-0.26804-3.3835l-5.89-5.0253q-1.8258-1.5577-3.3835 0.26804l-3.552 4.1632q-1.5577 1.8258 0.26804 3.3835l5.89 5.0253q1.8258 1.5577 3.3835-0.26804z" clip-path="url(#a)" fill="#fff" stroke="#fff"/>
<g clip-path="url(#a)">
<defs>
<path id="y" d="m34.188 63.188-13.391-36.281h26.812zm-5.5781 9.7188h11.188l27.781-72.906h-10.25l-6.6406 18.703h-32.859l-6.6406-18.703h-10.406z"/>
</defs>
<g transform="translate(129.59 165.19) rotate(-49.53) scale(.08 -.08)">
<use xlink:href="#y"/>
</g>
</g>
<path d="m172.1 193.13 1.4427-4.6029q0.71782-2.2901-1.5723-3.008l-7.3881-2.3157q-2.2901-0.71782-3.008 1.5723l-1.4427 4.6029q-0.71782 2.2901 1.5723 3.008l7.3881 2.3157q2.2901 0.71782 3.008-1.5723z" clip-path="url(#a)" fill="#fff" stroke="#fff"/>
<g clip-path="url(#a)">
<defs>
<path id="ah" d="m19.672 64.797v-27.391h12.406q6.8906 0 10.641 3.5625 3.7656 3.5625 3.7656 10.156 0 6.5469-3.7656 10.109-3.75 3.5625-10.641 3.5625zm-9.8594 8.1094h22.266q12.266 0 18.531-5.5469 6.2812-5.5469 6.2812-16.234 0-10.797-6.2812-16.312-6.2656-5.5156-18.531-5.5156h-12.406v-29.297h-9.8594z"/>
</defs>
<g transform="translate(168.22 191.92) rotate(-72.597) scale(.08 -.08)">
<use xlink:href="#ah"/>
</g>
</g>
<path d="m304.99 111.18 5.2852 1.4196q2.3178 0.62259 2.9404-1.6952l2.0085-7.4774q0.62259-2.3178-1.6952-2.9404l-5.2852-1.4196q-2.3178-0.62259-2.9404 1.6952l-2.0085 7.4774q-0.62259 2.3178 1.6952 2.9404z" clip-path="url(#a)" fill="#fff" stroke="#fff"/>
<g clip-path="url(#a)">
<g transform="translate(306.04 107.26) rotate(15.035) scale(.08 -.08)">
<use xlink:href="#y"/>
</g>
</g>
<path d="m49.727 278.52 2.0899-4.6028q0.99222-2.1853-1.1931-3.1775l-7.0498-3.2009q-2.1853-0.99222-3.1775 1.1931l-2.0899 4.6028q-0.99222 2.1853 1.1931 3.1775l7.0498 3.2009q2.1853 0.99222 3.1775-1.1931z" clip-path="url(#a)" fill="#fff" stroke="#fff"/>
<g clip-path="url(#a)">
<defs>
<path id="o" d="m9.8125 72.906h46.094v-8.3125h-36.234v-21.578h34.719v-8.2969h-34.719v-26.422h37.109v-8.2969h-46.969z"/>
</defs>
<g transform="translate(46.027 276.84) rotate(-65.58) scale(.08 -.08)">
<use xlink:href="#o"/>
</g>
</g>
<path d="m62.965 273.68 2.3095 5.0865q0.99222 2.1853 3.1775 1.1931l7.0498-3.2009q2.1853-0.99222 1.1931-3.1775l-2.3095-5.0865q-0.99222-2.1853-3.1775-1.1931l-7.0498 3.2009q-2.1853 0.99222-1.1931 3.1775z" clip-path="url(#a)" fill="#fff" stroke="#fff"/>
<g clip-path="url(#a)">
<defs>
<path id="n" d="m64.406 67.281v-10.391q-4.9844 4.6406-10.625 6.9219-5.6406 2.2969-11.984 2.2969-12.5 0-19.141-7.6406t-6.6406-22.094q0-14.406 6.6406-22.047t19.141-7.6406q6.3438 0 11.984 2.2969t10.625 6.9375v-10.312q-5.1719-3.5156-10.969-5.2812-5.7812-1.75-12.219-1.75-16.562 0-26.094 10.125-9.5156 10.141-9.5156 27.672 0 17.578 9.5156 27.703 9.5312 10.141 26.094 10.141 6.5312 0 12.312-1.7344 5.7969-1.7344 10.875-5.2031z"/>
</defs>
<g transform="translate(66.666 272) rotate(65.58) scale(.08 -.08)">
<use xlink:href="#n"/>
</g>
</g>
<path d="m125.48 310.53v35.285q0 2.4 2.4 2.4h7.7425q2.4 0 2.4-2.4v-35.285q0-2.4-2.4-2.4h-7.7425q-2.4 0-2.4 2.4z" clip-path="url(#a)" fill="#fff" stroke="#fff"/>
<g clip-path="url(#a)">
<defs>
<path id="l" d="m-0.29688 72.906h61.672v-8.3125h-25.875v-64.594h-9.9062v64.594h-25.891z"/>
<path id="e" d="m56.203 29.594v-4.3906h-41.312q0.59375-9.2812 5.5938-14.141t13.938-4.8594q5.1719 0 10.031 1.2656t9.6562 3.8125v-8.5q-4.8438-2.0469-9.9219-3.125t-10.297-1.0781q-13.094 0-20.734 7.6094-7.6406 7.625-7.6406 20.625 0 13.422 7.25 21.297 7.25 7.8906 19.562 7.8906 11.031 0 17.453-7.1094 6.4219-7.0938 6.4219-19.297zm-8.9844 2.6406q-0.09375 7.3594-4.125 11.75-4.0312 4.4062-10.672 4.4062-7.5156 0-12.031-4.25t-5.2031-11.969z"/>
<path id="f" d="m41.109 46.297q-1.5156 0.875-3.2969 1.2812-1.7812 0.42188-3.9219 0.42188-7.625 0-11.703-4.9531t-4.0781-14.234v-28.812h-9.0312v54.688h9.0312v-8.5q2.8438 4.9844 7.375 7.3906 4.5469 2.4219 11.047 2.4219 0.92188 0 2.0469-0.125 1.125-0.10938 2.4844-0.35938z"/>
<path id="j" d="m52 44.188q3.375 6.0625 8.0625 8.9375t11.031 2.875q8.5469 0 13.188-5.9844 4.6406-5.9688 4.6406-17v-33.016h-9.0312v32.719q0 7.8594-2.7969 11.656-2.7812 3.8125-8.4844 3.8125-6.9844 0-11.047-4.6406-4.0469-4.625-4.0469-12.641v-30.906h-9.0312v32.719q0 7.9062-2.7812 11.688t-8.5938 3.7812q-6.8906 0-10.953-4.6562-4.0469-4.6562-4.0469-12.625v-30.906h-9.0312v54.688h9.0312v-8.5q3.0781 5.0312 7.375 7.4219t10.203 2.3906q5.9688 0 10.141-3.0312 4.1719-3.0156 6.1719-8.7812z"/>
<path id="g" d="m9.4219 54.688h8.9844v-54.688h-8.9844zm0 21.297h8.9844v-11.391h-8.9844z"/>
<path id="h" d="m54.891 33.016v-33.016h-8.9844v32.719q0 7.7656-3.0312 11.609-3.0312 3.8594-9.0781 3.8594-7.2812 0-11.484-4.6406-4.2031-4.625-4.2031-12.641v-30.906h-9.0312v54.688h9.0312v-8.5q3.2344 4.9375 7.5938 7.375 4.375 2.4375 10.094 2.4375 9.4219 0 14.25-5.8281 4.8438-5.8281 4.8438-17.156z"/>
<path id="i" d="m34.281 27.484q-10.891 0-15.094-2.4844t-4.2031-8.5q0-4.7812 3.1562-7.5938 3.1562-2.7969 8.5625-2.7969 7.4844 0 12 5.2969t4.5156 14.078v2zm17.922 3.7188v-31.203h-8.9844v8.2969q-3.0781-4.9688-7.6719-7.3438t-11.234-2.375q-8.3906 0-13.359 4.7188-4.9531 4.7188-4.9531 12.625 0 9.2188 6.1719 13.906 6.1875 4.6875 18.438 4.6875h12.609v0.89062q0 6.2031-4.0781 9.5938t-11.453 3.3906q-4.6875 0-9.1406-1.125-4.4375-1.125-8.5312-3.375v8.3125q4.9219 1.9062 9.5625 2.8438 4.6406 0.95312 9.0312 0.95312 11.875 0 17.734-6.1562 5.8594-6.1406 5.8594-18.641z"/>
<path id="k" d="m9.4219 75.984h8.9844v-75.984h-8.9844z"/>
</defs>
<g transform="translate(129.54 310.53) rotate(90) scale(.08 -.08)">
<use xlink:href="#l"/>
<use x="60.818359" xlink:href="#e"/>
<use x="122.341797" xlink:href="#f"/>
<use x="163.439453" xlink:href="#j"/>
<use x="260.851562" xlink:href="#g"/>
<use x="288.634766" xlink:href="#h"/>
<use x="352.013672" xlink:href="#i"/>
<use x="413.292969" xlink:href="#k"/>
</g>
</g>
<path d="m348.29 169.72 5.1617-2.1361q2.2176-0.91772 1.2999-3.1353l-2.9606-7.1541q-0.91772-2.2176-3.1353-1.2999l-5.1617 2.1361q-2.2176 0.91772-1.2999 3.1353l2.9606 7.1541q0.91772 2.2176 3.1353 1.2999z" clip-path="url(#a)" fill="#fff" stroke="#fff"/>
<g clip-path="url(#a)">
<g transform="translate(346.74 165.96) rotate(-22.481) scale(.08 -.08)">
<use xlink:href="#n"/>
</g>
</g>
<path d="m416.3 215.27 0.44464 5.9685q0.1783 2.3934 2.5717 2.2151l7.7211-0.57521q2.3934-0.1783 2.2151-2.5717l-0.44464-5.9685q-0.1783-2.3934-2.5717-2.2151l-7.7211 0.57521q-2.3934 0.1783-2.2151 2.5717z" clip-path="url(#a)" fill="#fff" stroke="#fff"/>
<g clip-path="url(#a)">
<defs>
<path id="ai" d="m9.8125 72.906h13.281l32.328-60.984v60.984h9.5625v-72.906h-13.281l-32.312 60.984v-60.984h-9.5781z"/>
</defs>
<g transform="translate(420.36 214.96) rotate(85.739) scale(.08 -.08)">
<use xlink:href="#ai"/>
</g>
</g>
<path d="m491.22 194.07 4.5899 3.1841q1.972 1.368 3.3399-0.60398l4.4132-6.3616q1.368-1.972-0.60398-3.3399l-4.5899-3.1841q-1.972-1.368-3.3399 0.60398l-4.4132 6.3616q-1.368 1.972 0.60398 3.3399z" clip-path="url(#a)" fill="#fff" stroke="#fff"/>
<g clip-path="url(#a)">
<g transform="translate(493.53 190.73) rotate(34.75) scale(.08 -.08)">
<use xlink:href="#n"/>
</g>
</g>
<path d="m403.49 222.01 1.2771-5.714q0.52347-2.3422-1.8187-2.8657l-7.5561-1.6887q-2.3422-0.52347-2.8657 1.8187l-1.2771 5.714q-0.52347 2.3422 1.8187 2.8657l7.5561 1.6887q2.3422 0.52347 2.8657-1.8187z" clip-path="url(#a)" fill="#fff" stroke="#fff"/>
<g clip-path="url(#a)">
<defs>
<path id="v" d="m8.6875 72.906h9.9219v-44.297q0-11.719 4.2344-16.875 4.25-5.1406 13.781-5.1406 9.4688 0 13.719 5.1406 4.25 5.1562 4.25 16.875v44.297h9.9062v-45.516q0-14.25-7.0625-21.531-7.0469-7.2812-20.812-7.2812-13.828 0-20.891 7.2812-7.0469 7.2812-7.0469 21.531z"/>
</defs>
<g transform="translate(399.53 221.12) rotate(-77.402) scale(.08 -.08)">
<use xlink:href="#v"/>
</g>
</g>
<path d="m258.58 224.76 3.3725-3.7655q1.6012-1.7878-0.1866-3.389l-5.7675-5.1655q-1.7878-1.6012-3.389 0.1866l-3.3725 3.7655q-1.6012 1.7878 0.1866 3.389l5.7675 5.1655q1.7878 1.6012 3.389-0.1866z" clip-path="url(#a)" fill="#fff" stroke="#fff"/>
<g clip-path="url(#a)">
<g transform="translate(255.55 222.05) rotate(-48.152) scale(.08 -.08)">
<use xlink:href="#o"/>
</g>
</g>
<path d="m298.26 246 2.2962 5.0925q0.98652 2.1879 3.1744 1.2013l7.0582-3.1826q2.1879-0.98652 1.2013-3.1744l-2.2962-5.0925q-0.98652-2.1879-3.1744-1.2013l-7.0582 3.1826q-2.1879 0.98652-1.2013 3.1744z" clip-path="url(#a)" fill="#fff" stroke="#fff"/>
<g clip-path="url(#a)">
<g transform="translate(301.97 244.33) rotate(65.729) scale(.08 -.08)">
<use xlink:href="#n"/>
</g>
</g>
<path d="m422.7 310.53v35.285q0 2.4 2.4 2.4h7.7425q2.4 0 2.4-2.4v-35.285q0-2.4-2.4-2.4h-7.7425q-2.4 0-2.4 2.4z" clip-path="url(#a)" fill="#fff" stroke="#fff"/>
<g clip-path="url(#a)">
<g transform="translate(426.76 310.53) rotate(90) scale(.08 -.08)">
<use xlink:href="#l"/>
<use x="60.818359" xlink:href="#e"/>
<use x="122.341797" xlink:href="#f"/>
<use x="163.439453" xlink:href="#j"/>
<use x="260.851562" xlink:href="#g"/>
<use x="288.634766" xlink:href="#h"/>
<use x="352.013672" xlink:href="#i"/>
<use x="413.292969" xlink:href="#k"/>
</g>
</g>
<path d="m528.64 280.46 4.8694-2.6811q2.1024-1.1576 0.94479-3.26l-3.7344-6.7824q-1.1576-2.1024-3.26-0.94479l-4.8694 2.6811q-2.1024 1.1576-0.94479 3.26l3.7344 6.7824q1.1576 2.1024 3.26 0.94479z" clip-path="url(#a)" fill="#fff" stroke="#fff"/>
<g clip-path="url(#a)">
<defs>
<path id="w" d="m44.391 34.188q3.1719-1.0781 6.1719-4.5938t6.0312-9.6719l10.016-19.922h-10.609l-9.3125 18.703q-3.625 7.3281-7.0156 9.7188t-9.25 2.3906h-10.75v-30.812h-9.8594v72.906h22.266q12.5 0 18.656-5.2344 6.1562-5.2188 6.1562-15.766 0-6.8906-3.2031-11.438-3.2031-4.5312-9.2969-6.2812zm-24.719 30.609v-25.875h12.406q7.125 0 10.766 3.2969t3.6406 9.6875-3.6406 9.6406-10.766 3.25z"/>
</defs>
<g transform="translate(526.68 276.9) rotate(-28.838) scale(.08 -.08)">
<use xlink:href="#w"/>
</g>
</g>
<path d="m555.76 279.71 3.3983-3.7423q1.6134-1.7767-0.16331-3.3902l-5.7319-5.205q-1.7767-1.6134-3.3902 0.16331l-3.3983 3.7423q-1.6134 1.7767 0.16331 3.3902l5.7319 5.205q1.7767 1.6134 3.3902-0.16331z" clip-path="url(#a)" fill="#fff" stroke="#fff"/>
<g clip-path="url(#a)">
<g transform="translate(552.75 276.98) rotate(-47.758) scale(.08 -.08)">
<use xlink:href="#o"/>
</g>
</g>
<path d="m571.31 271.1v5.055q0 2.4 2.4 2.4h7.7425q2.4 0 2.4-2.4v-5.055q0-2.4-2.4-2.4h-7.7425q-2.4 0-2.4 2.4z" clip-path="url(#a)" fill="#fff" stroke="#fff"/>
<g clip-path="url(#a)">
<g transform="translate(575.37 271.1) rotate(90) scale(.08 -.08)">
<use xlink:href="#o"/>
</g>
</g>
<path d="m595.83 275.77 3.7554 4.1356q1.6134 1.7767 3.3902 0.16331l5.7319-5.205q1.7767-1.6134 0.16331-3.3902l-3.7554-4.1356q-1.6134-1.7767-3.3902-0.16331l-5.7319 5.205q-1.7767 1.6134-0.16331 3.3902z" clip-path="url(#a)" fill="#fff" stroke="#fff"/>
<g clip-path="url(#a)">
<g transform="translate(598.84 273.04) rotate(47.758) scale(.08 -.08)">
<use xlink:href="#n"/>
</g>
</g>
<path d="m621.53 277.71 5.1289 2.824q2.1024 1.1576 3.26-0.94479l3.7344-6.7824q1.1576-2.1024-0.94479-3.26l-5.1289-2.824q-2.1024-1.1576-3.26 0.94479l-3.7344 6.7824q-1.1576 2.1024 0.94479 3.26z" clip-path="url(#a)" fill="#fff" stroke="#fff"/>
<g clip-path="url(#a)">
<g transform="translate(623.49 274.15) rotate(28.838) scale(.08 -.08)">
<use xlink:href="#v"/>
</g>
</g>
<path d="m472.24 310.53v35.285q0 2.4 2.4 2.4h7.7425q2.4 0 2.4-2.4v-35.285q0-2.4-2.4-2.4h-7.7425q-2.4 0-2.4 2.4z" clip-path="url(#a)" fill="#fff" stroke="#fff"/>
<g clip-path="url(#a)">
<g transform="translate(476.3 310.53) rotate(90) scale(.08 -.08)">
<use xlink:href="#l"/>
<use x="60.818359" xlink:href="#e"/>
<use x="122.341797" xlink:href="#f"/>
<use x="163.439453" xlink:href="#j"/>
<use x="260.851562" xlink:href="#g"/>
<use x="288.634766" xlink:href="#h"/>
<use x="352.013672" xlink:href="#i"/>
<use x="413.292969" xlink:href="#k"/>
</g>
</g>
<path d="m521.77 310.53v35.285q0 2.4 2.4 2.4h7.7425q2.4 0 2.4-2.4v-35.285q0-2.4-2.4-2.4h-7.7425q-2.4 0-2.4 2.4z" clip-path="url(#a)" fill="#fff" stroke="#fff"/>
<g clip-path="url(#a)">
<g transform="translate(525.84 310.53) rotate(90) scale(.08 -.08)">
<use xlink:href="#l"/>
<use x="60.818359" xlink:href="#e"/>
<use x="122.341797" xlink:href="#f"/>
<use x="163.439453" xlink:href="#j"/>
<use x="260.851562" xlink:href="#g"/>
<use x="288.634766" xlink:href="#h"/>
<use x="352.013672" xlink:href="#i"/>
<use x="413.292969" xlink:href="#k"/>
</g>
</g>
<path d="m571.31 310.53v35.285q0 2.4 2.4 2.4h7.7425q2.4 0 2.4-2.4v-35.285q0-2.4-2.4-2.4h-7.7425q-2.4 0-2.4 2.4z" clip-path="url(#a)" fill="#fff" stroke="#fff"/>
<g clip-path="url(#a)">
<g transform="translate(575.37 310.53) rotate(90) scale(.08 -.08)">
<use xlink:href="#l"/>
<use x="60.818359" xlink:href="#e"/>
<use x="122.341797" xlink:href="#f"/>
<use x="163.439453" xlink:href="#j"/>
<use x="260.851562" xlink:href="#g"/>
<use x="288.634766" xlink:href="#h"/>
<use x="352.013672" xlink:href="#i"/>
<use x="413.292969" xlink:href="#k"/>
</g>
</g>
<path d="m620.85 310.53v35.285q0 2.4 2.4 2.4h7.7425q2.4 0 2.4-2.4v-35.285q0-2.4-2.4-2.4h-7.7425q-2.4 0-2.4 2.4z" clip-path="url(#a)" fill="#fff" stroke="#fff"/>
<g clip-path="url(#a)">
<g transform="translate(624.91 310.53) rotate(90) scale(.08 -.08)">
<use xlink:href="#l"/>
<use x="60.818359" xlink:href="#e"/>
<use x="122.341797" xlink:href="#f"/>
<use x="163.439453" xlink:href="#j"/>
<use x="260.851562" xlink:href="#g"/>
<use x="288.634766" xlink:href="#h"/>
<use x="352.013672" xlink:href="#i"/>
<use x="413.292969" xlink:href="#k"/>
</g>
</g>
<path d="m209 279.71 3.3983-3.7423q1.6134-1.7767-0.16331-3.3902l-5.7319-5.205q-1.7767-1.6134-3.3902 0.16331l-3.3983 3.7423q-1.6134 1.7767 0.16331 3.3902l5.7319 5.205q1.7767 1.6134 3.3902-0.16331z" clip-path="url(#a)" fill="#fff" stroke="#fff"/>
<g clip-path="url(#a)">
<g transform="translate(205.99 276.98) rotate(-47.758) scale(.08 -.08)">
<use xlink:href="#o"/>
</g>
</g>
<path d="m224.55 270.83v5.5862q0 2.4 2.4 2.4h7.7425q2.4 0 2.4-2.4v-5.5862q0-2.4-2.4-2.4h-7.7425q-2.4 0-2.4 2.4z" clip-path="url(#a)" fill="#fff" stroke="#fff"/>
<g clip-path="url(#a)">
<g transform="translate(228.62 270.83) rotate(90) scale(.08 -.08)">
<use xlink:href="#n"/>
</g>
</g>
<path d="m249.08 275.78 3.737 4.1152q1.6134 1.7767 3.3902 0.16331l5.7319-5.205q1.7767-1.6134 0.16331-3.3902l-3.737-4.1152q-1.6134-1.7767-3.3902-0.16331l-5.7319 5.205q-1.7767 1.6134-0.16331 3.3902z" clip-path="url(#a)" fill="#fff" stroke="#fff"/>
<g clip-path="url(#a)">
<g transform="translate(252.09 273.05) rotate(47.758) scale(.08 -.08)">
<use xlink:href="#w"/>
</g>
</g>
<path d="m323.63 310.53v35.285q0 2.4 2.4 2.4h7.7425q2.4 0 2.4-2.4v-35.285q0-2.4-2.4-2.4h-7.7425q-2.4 0-2.4 2.4z" clip-path="url(#a)" fill="#fff" stroke="#fff"/>
<g clip-path="url(#a)">
<g transform="translate(327.69 310.53) rotate(90) scale(.08 -.08)">
<use xlink:href="#l"/>
<use x="60.818359" xlink:href="#e"/>
<use x="122.341797" xlink:href="#f"/>
<use x="163.439453" xlink:href="#j"/>
<use x="260.851562" xlink:href="#g"/>
<use x="288.634766" xlink:href="#h"/>
<use x="352.013672" xlink:href="#i"/>
<use x="413.292969" xlink:href="#k"/>
</g>
</g>
<path d="m175.02 310.53v35.285q0 2.4 2.4 2.4h7.7425q2.4 0 2.4-2.4v-35.285q0-2.4-2.4-2.4h-7.7425q-2.4 0-2.4 2.4z" clip-path="url(#a)" fill="#fff" stroke="#fff"/>
<g clip-path="url(#a)">
<g transform="translate(179.08 310.53) rotate(90) scale(.08 -.08)">
<use xlink:href="#l"/>
<use x="60.818359" xlink:href="#e"/>
<use x="122.341797" xlink:href="#f"/>
<use x="163.439453" xlink:href="#j"/>
<use x="260.851562" xlink:href="#g"/>
<use x="288.634766" xlink:href="#h"/>
<use x="352.013672" xlink:href="#i"/>
<use x="413.292969" xlink:href="#k"/>
</g>
</g>
<path d="m224.55 310.53v35.285q0 2.4 2.4 2.4h7.7425q2.4 0 2.4-2.4v-35.285q0-2.4-2.4-2.4h-7.7425q-2.4 0-2.4 2.4z" clip-path="url(#a)" fill="#fff" stroke="#fff"/>
<g clip-path="url(#a)">
<g transform="translate(228.62 310.53) rotate(90) scale(.08 -.08)">
<use xlink:href="#l"/>
<use x="60.818359" xlink:href="#e"/>
<use x="122.341797" xlink:href="#f"/>
<use x="163.439453" xlink:href="#j"/>
<use x="260.851562" xlink:href="#g"/>
<use x="288.634766" xlink:href="#h"/>
<use x="352.013672" xlink:href="#i"/>
<use x="413.292969" xlink:href="#k"/>
</g>
</g>
<path d="m274.09 310.53v35.285q0 2.4 2.4 2.4h7.7425q2.4 0 2.4-2.4v-35.285q0-2.4-2.4-2.4h-7.7425q-2.4 0-2.4 2.4z" clip-path="url(#a)" fill="#fff" stroke="#fff"/>
<g clip-path="url(#a)">
<g transform="translate(278.15 310.53) rotate(90) scale(.08 -.08)">
<use xlink:href="#l"/>
<use x="60.818359" xlink:href="#e"/>
<use x="122.341797" xlink:href="#f"/>
<use x="163.439453" xlink:href="#j"/>
<use x="260.851562" xlink:href="#g"/>
<use x="288.634766" xlink:href="#h"/>
<use x="352.013672" xlink:href="#i"/>
<use x="413.292969" xlink:href="#k"/>
</g>
</g>
<path d="m26.407 310.53v35.285q0 2.4 2.4 2.4h7.7425q2.4 0 2.4-2.4v-35.285q0-2.4-2.4-2.4h-7.7425q-2.4 0-2.4 2.4z" clip-path="url(#a)" fill="#fff" stroke="#fff"/>
<g clip-path="url(#a)">
<g transform="translate(30.47 310.53) rotate(90) scale(.08 -.08)">
<use xlink:href="#l"/>
<use x="60.818359" xlink:href="#e"/>
<use x="122.341797" xlink:href="#f"/>
<use x="163.439453" xlink:href="#j"/>
<use x="260.851562" xlink:href="#g"/>
<use x="288.634766" xlink:href="#h"/>
<use x="352.013672" xlink:href="#i"/>
<use x="413.292969" xlink:href="#k"/>
</g>
</g>
<path d="m75.943 310.53v35.285q0 2.4 2.4 2.4h7.7425q2.4 0 2.4-2.4v-35.285q0-2.4-2.4-2.4h-7.7425q-2.4 0-2.4 2.4z" clip-path="url(#a)" fill="#fff" stroke="#fff"/>
<g clip-path="url(#a)">
<g transform="translate(80.007 310.53) rotate(90) scale(.08 -.08)">
<use xlink:href="#l"/>
<use x="60.818359" xlink:href="#e"/>
<use x="122.341797" xlink:href="#f"/>
<use x="163.439453" xlink:href="#j"/>
<use x="260.851562" xlink:href="#g"/>
<use x="288.634766" xlink:href="#h"/>
<use x="352.013672" xlink:href="#i"/>
<use x="413.292969" xlink:href="#k"/>
</g>
</g>
<path d="m373.16 310.53v35.285q0 2.4 2.4 2.4h7.7425q2.4 0 2.4-2.4v-35.285q0-2.4-2.4-2.4h-7.7425q-2.4 0-2.4 2.4z" clip-path="url(#a)" fill="#fff" stroke="#fff"/>
<g clip-path="url(#a)">
<g transform="translate(377.23 310.53) rotate(90) scale(.08 -.08)">
<use xlink:href="#l"/>
<use x="60.818359" xlink:href="#e"/>
<use x="122.341797" xlink:href="#f"/>
<use x="163.439453" xlink:href="#j"/>
<use x="260.851562" xlink:href="#g"/>
<use x="288.634766" xlink:href="#h"/>
<use x="352.013672" xlink:href="#i"/>
<use x="413.292969" xlink:href="#k"/>
</g>
</g>
<path d="m670.38 310.53v35.285q0 2.4 2.4 2.4h7.7425q2.4 0 2.4-2.4v-35.285q0-2.4-2.4-2.4h-7.7425q-2.4 0-2.4 2.4z" clip-path="url(#a)" fill="#fff" stroke="#fff"/>
<g clip-path="url(#a)">
<g transform="translate(674.45 310.53) rotate(90) scale(.08 -.08)">
<use xlink:href="#l"/>
<use x="60.818359" xlink:href="#e"/>
<use x="122.341797" xlink:href="#f"/>
<use x="163.439453" xlink:href="#j"/>
<use x="260.851562" xlink:href="#g"/>
<use x="288.634766" xlink:href="#h"/>
<use x="352.013672" xlink:href="#i"/>
<use x="413.292969" xlink:href="#k"/>
</g>
</g>
<defs>
<path id="b" d="m0 8.6603c2.2967 0 4.4997-0.9125 6.1237-2.5365 1.624-1.624 2.5365-3.827 2.5365-6.1237s-0.9125-4.4997-2.5365-6.1237c-1.624-1.624-3.827-2.5365-6.1237-2.5365s-4.4997 0.9125-6.1237 2.5365c-1.624 1.624-2.5365 3.827-2.5365 6.1237s0.9125 4.4997 2.5365 6.1237c1.624 1.624 3.827 2.5365 6.1237 2.5365z"/>
</defs>
<g clip-path="url(#a)">
<use x="32.677876" y="355.452534" fill="#ffffff" stroke="#ffffff" xlink:href="#b"/>
</g>
<g clip-path="url(#a)">
<use x="82.214613" y="355.452534" fill="#ffffff" stroke="#ffffff" xlink:href="#b"/>
</g>
<g clip-path="url(#a)">
<use x="131.75135" y="355.452534" fill="#ffffff" stroke="#ffffff" xlink:href="#b"/>
</g>
<g clip-path="url(#a)">
<use x="181.288087" y="355.452534" fill="#ffffff" stroke="#ffffff" xlink:href="#b"/>
</g>
<g clip-path="url(#a)">
<use x="230.824824" y="355.452534" fill="#ffffff" stroke="#ffffff" xlink:href="#b"/>
</g>
<g clip-path="url(#a)">
<use x="280.361561" y="355.452534" fill="#ffffff" stroke="#ffffff" xlink:href="#b"/>
</g>
<g clip-path="url(#a)">
<use x="329.898298" y="355.452534" fill="#ffffff" stroke="#ffffff" xlink:href="#b"/>
</g>
<g clip-path="url(#a)">
<use x="379.435035" y="355.452534" fill="#ffffff" stroke="#ffffff" xlink:href="#b"/>
</g>
<g clip-path="url(#a)">
<use x="428.971772" y="355.452534" fill="#ffffff" stroke="#ffffff" xlink:href="#b"/>
</g>
<g clip-path="url(#a)">
<use x="478.508509" y="355.452534" fill="#ffffff" stroke="#ffffff" xlink:href="#b"/>
</g>
<g clip-path="url(#a)">
<use x="528.045246" y="355.452534" fill="#ffffff" stroke="#ffffff" xlink:href="#b"/>
</g>
<g clip-path="url(#a)">
<use x="577.581983" y="355.452534" fill="#ffffff" stroke="#ffffff" xlink:href="#b"/>
</g>
<g clip-path="url(#a)">
<use x="627.11872" y="355.452534" fill="#ffffff" stroke="#ffffff" xlink:href="#b"/>
</g>
<g clip-path="url(#a)">
<use x="676.655457" y="355.452534" fill="#ffffff" stroke="#ffffff" xlink:href="#b"/>
</g>
<g clip-path="url(#a)">
<use x="201.928394" y="17.880799" fill="#ffffff" stroke="#ffffff" xlink:href="#b"/>
</g>
<g clip-path="url(#a)">
<use x="201.928394" y="77.007642" fill="#ffffff" stroke="#ffffff" xlink:href="#b"/>
</g>
<g clip-path="url(#a)">
<use x="57.446245" y="246.351037" fill="#ffffff" stroke="#ffffff" xlink:href="#b"/>
</g>
<g clip-path="url(#a)">
<use x="131.75135" y="300.901786" fill="#ffffff" stroke="#ffffff" xlink:href="#b"/>
</g>
<g clip-path="url(#a)">
<use x="416.587588" y="134.666789" fill="#ffffff" stroke="#ffffff" xlink:href="#b"/>
</g>
<g clip-path="url(#a)">
<use x="280.361561" y="191.041427" fill="#ffffff" stroke="#ffffff" xlink:href="#b"/>
</g>
<g clip-path="url(#a)">
<use x="428.971772" y="300.901786" fill="#ffffff" stroke="#ffffff" xlink:href="#b"/>
</g>
<g clip-path="url(#a)">
<use x="577.581983" y="246.351037" fill="#ffffff" stroke="#ffffff" xlink:href="#b"/>
</g>
<g clip-path="url(#a)">
<use x="478.508509" y="300.901786" fill="#ffffff" stroke="#ffffff" xlink:href="#b"/>
</g>
<g clip-path="url(#a)">
<use x="528.045246" y="300.901786" fill="#ffffff" stroke="#ffffff" xlink:href="#b"/>
</g>
<g clip-path="url(#a)">
<use x="577.581983" y="300.901786" fill="#ffffff" stroke="#ffffff" xlink:href="#b"/>
</g>
<g clip-path="url(#a)">
<use x="627.11872" y="300.901786" fill="#ffffff" stroke="#ffffff" xlink:href="#b"/>
</g>
<g clip-path="url(#a)">
<use x="230.824824" y="246.351037" fill="#ffffff" stroke="#ffffff" xlink:href="#b"/>
</g>
<g clip-path="url(#a)">
<use x="329.898298" y="300.901786" fill="#ffffff" stroke="#ffffff" xlink:href="#b"/>
</g>
<g clip-path="url(#a)">
<use x="181.288087" y="300.901786" fill="#ffffff" stroke="#ffffff" xlink:href="#b"/>
</g>
<g clip-path="url(#a)">
<use x="230.824824" y="300.901786" fill="#ffffff" stroke="#ffffff" xlink:href="#b"/>
</g>
<g clip-path="url(#a)">
<use x="280.361561" y="300.901786" fill="#ffffff" stroke="#ffffff" xlink:href="#b"/>
</g>
<g clip-path="url(#a)">
<use x="32.677876" y="300.901786" fill="#ffffff" stroke="#ffffff" xlink:href="#b"/>
</g>
<g clip-path="url(#a)">
<use x="82.214613" y="300.901786" fill="#ffffff" stroke="#ffffff" xlink:href="#b"/>
</g>
<g clip-path="url(#a)">
<use x="379.435035" y="300.901786" fill="#ffffff" stroke="#ffffff" xlink:href="#b"/>
</g>
<g clip-path="url(#a)">
<use x="676.655457" y="300.901786" fill="#ffffff" stroke="#ffffff" xlink:href="#b"/>
</g>
<g clip-path="url(#a)">
<defs>
<path id="s" d="m8.5 21.578v33.109h8.9844v-32.766q0-7.7656 3.0156-11.656 3.0312-3.875 9.0938-3.875 7.2656 0 11.484 4.6406 4.2344 4.6406 4.2344 12.656v31h8.9844v-54.688h-8.9844v8.4062q-3.2656-4.9844-7.5938-7.4062-4.3125-2.4219-10.031-2.4219-9.4219 0-14.312 5.8594-4.875 5.8594-4.875 17.141z"/>
<path id="ap" d="m45.406 27.984q0 9.7656-4.0312 15.125-4.0156 5.375-11.297 5.375-7.2188 0-11.25-5.375-4.0312-5.3594-4.0312-15.125 0-9.7188 4.0312-15.094t11.25-5.375q7.2812 0 11.297 5.375 4.0312 5.375 4.0312 15.094zm8.9844-21.203q0-13.953-6.2031-20.766-6.1875-6.8125-18.984-6.8125-4.7344 0-8.9375 0.70312t-8.1562 2.1719v8.7344q3.9531-2.1406 7.8125-3.1562 3.8594-1.0312 7.8594-1.0312 8.8438 0 13.234 4.6094t4.3906 13.938v4.4531q-2.7812-4.8438-7.125-7.2344t-10.406-2.3906q-10.047 0-16.203 7.6562-6.1562 7.6719-6.1562 20.328 0 12.688 6.1562 20.344 6.1562 7.6719 16.203 7.6719 6.0625 0 10.406-2.3906t7.125-7.2188v8.2969h8.9844z"/>
</defs>
<g transform="translate(19.498 358.21) scale(.1 -.1)">
<use xlink:href="#x"/>
<use x="75.195312" xlink:href="#s"/>
<use x="138.574219" xlink:href="#ap"/>
<use x="202.050781" xlink:href="#e"/>
</g>
</g>
<g clip-path="url(#a)">
<defs>
<path id="u" d="m48.781 52.594v-8.4062q-3.8125 2.1094-7.6406 3.1562t-7.7344 1.0469q-8.75 0-13.594-5.5469-4.8281-5.5312-4.8281-15.547t4.8281-15.562q4.8438-5.5312 13.594-5.5312 3.9062 0 7.7344 1.0469t7.6406 3.1562v-8.3125q-3.7656-1.75-7.7969-2.625-4.0156-0.89062-8.5625-0.89062-12.359 0-19.641 7.7656-7.2656 7.7656-7.2656 20.953 0 13.375 7.3438 21.031 7.3594 7.6719 20.156 7.6719 4.1406 0 8.0938-0.85938 3.9531-0.84375 7.6719-2.5469z"/>
<path id="r" d="m30.609 48.391q-7.2188 0-11.422-5.6406t-4.2031-15.453 4.1719-15.453q4.1875-5.6406 11.453-5.6406 7.1875 0 11.375 5.6562 4.2031 5.6719 4.2031 15.438 0 9.7188-4.2031 15.406-4.1875 5.6875-11.375 5.6875zm0 7.6094q11.719 0 18.406-7.625 6.7031-7.6094 6.7031-21.078 0-13.422-6.7031-21.078-6.6875-7.6406-18.406-7.6406-11.766 0-18.438 7.6406-6.6562 7.6562-6.6562 21.078 0 13.469 6.6562 21.078 6.6719 7.625 18.438 7.625z"/>
<path id="t" d="m45.406 46.391v29.594h8.9844v-75.984h-8.9844v8.2031q-2.8281-4.875-7.1562-7.25-4.3125-2.375-10.375-2.375-9.9062 0-16.141 7.9062-6.2188 7.9219-6.2188 20.812t6.2188 20.797q6.2344 7.9062 16.141 7.9062 6.0625 0 10.375-2.375 4.3281-2.3594 7.1562-7.2344zm-30.609-19.094q0-9.9062 4.0781-15.547t11.203-5.6406 11.219 5.6406q4.1094 5.6406 4.1094 15.547t-4.1094 15.547q-4.0938 5.6406-11.219 5.6406t-11.203-5.6406-4.0781-15.547z"/>
<path id="q" d="m44.281 53.078v-8.5q-3.7969 1.9531-7.9062 2.9219-4.0938 0.98438-8.5 0.98438-6.6875 0-10.031-2.0469t-3.3438-6.1562q0-3.125 2.3906-4.9062t9.625-3.3906l3.0781-0.6875q9.5625-2.0469 13.594-5.7812t4.0312-10.422q0-7.625-6.0312-12.078-6.0312-4.4375-16.578-4.4375-4.3906 0-9.1562 0.85938t-10.031 2.5625v9.2812q4.9844-2.5938 9.8125-3.8906 4.8281-1.2812 9.5781-1.2812 6.3438 0 9.75 2.1719 3.4219 2.1719 3.4219 6.125 0 3.6562-2.4688 5.6094-2.4531 1.9531-10.812 3.7656l-3.125 0.73438q-8.3438 1.75-12.062 5.3906-3.7031 3.6406-3.7031 9.9844 0 7.7188 5.4688 11.906 5.4688 4.2031 15.531 4.2031 4.9688 0 9.3594-0.73438 4.4062-0.71875 8.1094-2.1875z"/>
</defs>
<g transform="translate(66.069 358.21) scale(.1 -.1)">
<use xlink:href="#u"/>
<use x="54.980469" xlink:href="#k"/>
<use x="82.763672" xlink:href="#r"/>
<use x="143.945312" xlink:href="#s"/>
<use x="207.324219" xlink:href="#t"/>
<use x="270.800781" xlink:href="#q"/>
</g>
</g>
<g clip-path="url(#a)">
<defs>
<path id="am" d="m2.9844 54.688h9.5156l17.094-45.891 17.094 45.891h9.5156l-20.516-54.688h-12.203z"/>
</defs>
<g transform="translate(111.6 358.21) scale(.1 -.1)">
<use xlink:href="#u"/>
<use x="54.980469" xlink:href="#r"/>
<use x="116.162109" xlink:href="#am"/>
<use x="175.341797" xlink:href="#e"/>
<use x="236.865234" xlink:href="#f"/>
<use x="277.947266" xlink:href="#e"/>
<use x="339.470703" xlink:href="#t"/>
</g>
</g>
<g clip-path="url(#a)">
<defs>
<path id="p" d="m18.312 70.219v-15.531h18.5v-6.9844h-18.5v-29.688q0-6.6875 1.8281-8.5938t7.4531-1.9062h9.2188v-7.5156h-9.2188q-10.406 0-14.359 3.875-3.9531 3.8906-3.9531 14.141v29.688h-6.5938v6.9844h6.5938v15.531z"/>
<path id="ag" d="m54.891 33.016v-33.016h-8.9844v32.719q0 7.7656-3.0312 11.609-3.0312 3.8594-9.0781 3.8594-7.2812 0-11.484-4.6406-4.2031-4.625-4.2031-12.641v-30.906h-9.0312v75.984h9.0312v-29.797q3.2344 4.9375 7.5938 7.375 4.375 2.4375 10.094 2.4375 9.4219 0 14.25-5.8281 4.8438-5.8281 4.8438-17.156z"/>
</defs>
<g transform="translate(173.08 358.21) scale(.1 -.1)">
<use xlink:href="#p"/>
<use x="39.208984" xlink:href="#ag"/>
<use x="102.587891" xlink:href="#e"/>
</g>
</g>
<g clip-path="url(#a)">
<g transform="translate(216.67 358.21) scale(.1 -.1)">
<use xlink:href="#j"/>
<use x="97.412109" xlink:href="#r"/>
<use x="158.59375" xlink:href="#r"/>
<use x="219.775391" xlink:href="#h"/>
</g>
</g>
<g clip-path="url(#a)">
<defs>
<path id="al" d="m17.922 72.906v-27.109h-8.2969v27.109z"/>
</defs>
<g transform="translate(276.38 358.21) scale(.1 -.1)">
<use xlink:href="#al"/>
<use x="27.490234" xlink:href="#q"/>
</g>
</g>
<g clip-path="url(#a)">
<defs>
<path id="ao" d="m9.0781 75.984h9.0312v-44.875l26.812 23.578h11.469l-29-25.578 30.234-29.109h-11.719l-27.797 26.703v-26.703h-9.0312z"/>
</defs>
<g transform="translate(319.84 358.21) scale(.1 -.1)">
<use xlink:href="#t"/>
<use x="63.476562" xlink:href="#g"/>
<use x="91.259766" xlink:href="#q"/>
<use x="143.359375" xlink:href="#ao"/>
</g>
</g>
<g clip-path="url(#a)">
<defs>
<path id="ak" d="m11.719 12.406h10.297v-8.4062l-8-15.625h-6.2969l4 15.625z"/>
</defs>
<g transform="translate(377.85 358.21) scale(.1 -.1)">
<use xlink:href="#ak"/>
</g>
</g>
<g clip-path="url(#a)">
<g transform="translate(417.6 358.21) scale(.1 -.1)">
<use xlink:href="#p"/>
<use x="39.208984" xlink:href="#ag"/>
<use x="102.587891" xlink:href="#e"/>
<use x="164.111328" xlink:href="#h"/>
</g>
</g>
<g clip-path="url(#a)">
<g transform="translate(473.95 358.21) scale(.1 -.1)">
<use xlink:href="#g"/>
<use x="27.783203" xlink:href="#h"/>
</g>
</g>
<g clip-path="url(#a)">
<g transform="translate(522.09 358.21) scale(.1 -.1)">
<use xlink:href="#g"/>
<use x="27.783203" xlink:href="#p"/>
<use x="66.992188" xlink:href="#q"/>
</g>
</g>
<g clip-path="url(#a)">
<defs>
<path id="aq" d="m37.109 75.984v-7.4844h-8.5938q-4.8281 0-6.7188-1.9531-1.875-1.9531-1.875-7.0312v-4.8281h14.797v-6.9844h-14.797v-47.703h-9.0312v47.703h-8.5938v6.9844h8.5938v3.8125q0 9.125 4.25 13.297 4.25 4.1875 13.469 4.1875z"/>
</defs>
<g transform="translate(567.81 358.21) scale(.1 -.1)">
<use xlink:href="#aq"/>
<use x="35.205078" xlink:href="#g"/>
<use x="62.988281" xlink:href="#f"/>
<use x="104.101562" xlink:href="#q"/>
<use x="156.201172" xlink:href="#p"/>
</g>
</g>
<g clip-path="url(#a)">
<defs>
<path id="an" d="m14.797 27.297q0-9.9062 4.0781-15.547t11.203-5.6406 11.219 5.6406q4.1094 5.6406 4.1094 15.547t-4.1094 15.547q-4.0938 5.6406-11.219 5.6406t-11.203-5.6406-4.0781-15.547zm30.609-19.094q-2.8281-4.875-7.1562-7.25-4.3125-2.375-10.375-2.375-9.9062 0-16.141 7.9062-6.2188 7.9219-6.2188 20.812t6.2188 20.797q6.2344 7.9062 16.141 7.9062 6.0625 0 10.375-2.375 4.3281-2.3594 7.1562-7.2344v8.2969h8.9844v-75.484h-8.9844z"/>
</defs>
<g transform="translate(608.56 358.21) scale(.1 -.1)">
<use xlink:href="#an"/>
<use x="63.476562" xlink:href="#s"/>
<use x="126.855469" xlink:href="#i"/>
<use x="188.134766" xlink:href="#f"/>
<use x="229.248047" xlink:href="#p"/>
<use x="268.457031" xlink:href="#e"/>
<use x="329.980469" xlink:href="#f"/>
</g>
</g>
<g clip-path="url(#a)">
<defs>
<path id="d" d="m10.688 12.406h10.312v-12.406h-10.312z"/>
</defs>
<g transform="translate(675.07 358.21) scale(.1 -.1)">
<use xlink:href="#d"/>
</g>
</g>
<g clip-path="url(#a)">
<defs>
<path id="c" d="m12.406 8.2969h16.109v55.625l-17.531-3.5156v8.9844l17.438 3.5156h9.8594v-64.609h16.109v-8.2969h-41.984z"/>
</defs>
<g transform="translate(193.98 20.64) scale(.1 -.1)">
<use xlink:href="#c"/>
<use x="63.623047" xlink:href="#d"/>
<use x="95.410156" xlink:href="#c"/>
</g>
</g>
<g clip-path="url(#a)">
<defs>
<path id="m" d="m19.188 8.2969h34.422v-8.2969h-46.281v8.2969q5.6094 5.8125 15.297 15.594 9.7031 9.7969 12.188 12.641 4.7344 5.3125 6.6094 9 1.8906 3.6875 1.8906 7.25 0 5.8125-4.0781 9.4688-4.0781 3.6719-10.625 3.6719-4.6406 0-9.7969-1.6094-5.1406-1.6094-11-4.8906v9.9688q5.9531 2.3906 11.125 3.6094 5.1875 1.2188 9.4844 1.2188 11.328 0 18.062-5.6719 6.7344-5.6562 6.7344-15.125 0-4.5-1.6875-8.5312-1.6719-4.0156-6.125-9.4844-1.2188-1.4219-7.7656-8.1875-6.5312-6.7656-18.453-18.922z"/>
</defs>
<g transform="translate(193.98 79.767) scale(.1 -.1)">
<use xlink:href="#c"/>
<use x="63.623047" xlink:href="#d"/>
<use x="95.410156" xlink:href="#m"/>
</g>
</g>
<g clip-path="url(#a)">
<defs>
<path id="ae" d="m37.797 64.312-24.906-38.922h24.906zm-2.5938 8.5938h12.406v-47.516h10.406v-8.2031h-10.406v-17.188h-9.8125v17.188h-32.906v9.5156z"/>
</defs>
<g transform="translate(49.495 249.11) scale(.1 -.1)">
<use xlink:href="#c"/>
<use x="63.623047" xlink:href="#d"/>
<use x="95.410156" xlink:href="#ae"/>
</g>
</g>
<g clip-path="url(#a)">
<defs>
<path id="ad" d="m10.797 72.906h38.719v-8.3125h-29.688v-17.859q2.1406 0.73438 4.2812 1.0938 2.1562 0.35938 4.3125 0.35938 12.203 0 19.328-6.6875 7.1406-6.6875 7.1406-18.109 0-11.766-7.3281-18.297-7.3281-6.5156-20.656-6.5156-4.5938 0-9.3594 0.78125-4.75 0.78125-9.8281 2.3438v9.9219q4.3906-2.3906 9.0781-3.5625t9.9062-1.1719q8.4531 0 13.375 4.4375 4.9375 4.4375 4.9375 12.062 0 7.6094-4.9375 12.047-4.9219 4.4531-13.375 4.4531-3.9531 0-7.8906-0.875-3.9219-0.875-8.0156-2.7344z"/>
</defs>
<g transform="translate(123.8 303.66) scale(.1 -.1)">
<use xlink:href="#c"/>
<use x="63.623047" xlink:href="#d"/>
<use x="95.410156" xlink:href="#ad"/>
</g>
</g>
<g clip-path="url(#a)">
<defs>
<path id="ac" d="m33.016 40.375q-6.6406 0-10.531-4.5469-3.875-4.5312-3.875-12.438 0-7.8594 3.875-12.438 3.8906-4.5625 10.531-4.5625t10.516 4.5625q3.875 4.5781 3.875 12.438 0 7.9062-3.875 12.438-3.875 4.5469-10.516 4.5469zm19.578 30.922v-8.9844q-3.7188 1.75-7.5 2.6719-3.7812 0.9375-7.5 0.9375-9.7656 0-14.922-6.5938-5.1406-6.5938-5.875-19.922 2.875 4.25 7.2188 6.5156 4.3594 2.2656 9.5781 2.2656 10.984 0 17.359-6.6719 6.375-6.6562 6.375-18.125 0-11.234-6.6406-18.031-6.6406-6.7812-17.672-6.7812-12.656 0-19.344 9.6875-6.6875 9.7031-6.6875 28.109 0 17.281 8.2031 27.562t22.016 10.281q3.7188 0 7.5-0.73438t7.8906-2.1875z"/>
</defs>
<g transform="translate(408.64 137.43) scale(.1 -.1)">
<use xlink:href="#c"/>
<use x="63.623047" xlink:href="#d"/>
<use x="95.410156" xlink:href="#ac"/>
</g>
</g>
<g clip-path="url(#a)">
<defs>
<path id="ab" d="m8.2031 72.906h46.875v-4.2031l-26.469-68.703h-10.297l24.906 64.594h-35.016z"/>
</defs>
<g transform="translate(272.41 193.8) scale(.1 -.1)">
<use xlink:href="#c"/>
<use x="63.623047" xlink:href="#d"/>
<use x="95.410156" xlink:href="#ab"/>
</g>
</g>
<g clip-path="url(#a)">
<defs>
<path id="aa" d="m31.781 34.625q-7.0312 0-11.062-3.7656-4.0156-3.7656-4.0156-10.344 0-6.5938 4.0156-10.359 4.0312-3.7656 11.062-3.7656t11.078 3.7812q4.0625 3.7969 4.0625 10.344 0 6.5781-4.0312 10.344-4.0156 3.7656-11.109 3.7656zm-9.8594 4.1875q-6.3438 1.5625-9.8906 5.9062-3.5312 4.3594-3.5312 10.609 0 8.7344 6.2188 13.812 6.2344 5.0781 17.062 5.0781 10.891 0 17.094-5.0781t6.2031-13.812q0-6.25-3.5469-10.609-3.5312-4.3438-9.8281-5.9062 7.125-1.6562 11.094-6.5 3.9844-4.8281 3.9844-11.797 0-10.609-6.4688-16.281-6.4688-5.6562-18.531-5.6562-12.047 0-18.531 5.6562-6.4688 5.6719-6.4688 16.281 0 6.9688 4 11.797 4.0156 4.8438 11.141 6.5zm-3.6094 15.578q0-5.6562 3.5312-8.8281 3.5469-3.1719 9.9375-3.1719 6.3594 0 9.9375 3.1719 3.5938 3.1719 3.5938 8.8281 0 5.6719-3.5938 8.8438-3.5781 3.1719-9.9375 3.1719-6.3906 0-9.9375-3.1719-3.5312-3.1719-3.5312-8.8438z"/>
</defs>
<g transform="translate(421.02 303.66) scale(.1 -.1)">
<use xlink:href="#c"/>
<use x="63.623047" xlink:href="#d"/>
<use x="95.410156" xlink:href="#aa"/>
</g>
</g>
<g clip-path="url(#a)">
<defs>
<path id="z" d="m10.984 1.5156v8.9844q3.7188-1.7656 7.5156-2.6875 3.8125-0.92188 7.4844-0.92188 9.7656 0 14.906 6.5625 5.1562 6.5625 5.8906 19.953-2.8281-4.2031-7.1875-6.4531-4.3438-2.25-9.6094-2.25-10.938 0-17.312 6.6094-6.375 6.625-6.375 18.109 0 11.219 6.6406 18 6.6406 6.7969 17.672 6.7969 12.656 0 19.312-9.7031 6.6719-9.6875 6.6719-28.141 0-17.234-8.1875-27.516-8.1719-10.281-21.984-10.281-3.7188 0-7.5312 0.73438-3.7969 0.73438-7.9062 2.2031zm19.625 30.906q6.6406 0 10.516 4.5312 3.8906 4.5469 3.8906 12.469 0 7.8594-3.8906 12.422-3.875 4.5625-10.516 4.5625t-10.516-4.5625-3.875-12.422q0-7.9219 3.875-12.469 3.875-4.5312 10.516-4.5312z"/>
</defs>
<g transform="translate(569.63 249.11) scale(.1 -.1)">
<use xlink:href="#c"/>
<use x="63.623047" xlink:href="#d"/>
<use x="95.410156" xlink:href="#z"/>
</g>
</g>
<g clip-path="url(#a)">
<g transform="translate(467.38 303.66) scale(.1 -.1)">
<use xlink:href="#c"/>
<use x="63.623047" xlink:href="#d"/>
<use x="95.410156" xlink:href="#c"/>
<use x="159.033203" xlink:href="#c"/>
</g>
</g>
<g clip-path="url(#a)">
<g transform="translate(516.91 303.66) scale(.1 -.1)">
<use xlink:href="#c"/>
<use x="63.623047" xlink:href="#d"/>
<use x="95.410156" xlink:href="#c"/>
<use x="159.033203" xlink:href="#m"/>
</g>
</g>
<g clip-path="url(#a)">
<defs>
<path id="af" d="m40.578 39.312q7.0781-1.5156 11.047-6.3125 3.9844-4.7812 3.9844-11.812 0-10.781-7.4219-16.703-7.4219-5.9062-21.094-5.9062-4.5781 0-9.4375 0.90625t-10.031 2.7188v9.5156q4.0938-2.3906 8.9688-3.6094 4.8906-1.2188 10.219-1.2188 9.2656 0 14.125 3.6562t4.8594 10.641q0 6.4531-4.5156 10.078-4.5156 3.6406-12.562 3.6406h-8.5v8.1094h8.8906q7.2656 0 11.125 2.9062t3.8594 8.375q0 5.6094-3.9844 8.6094-3.9688 3.0156-11.391 3.0156-4.0625 0-8.7031-0.89062-4.6406-0.875-10.203-2.7188v8.7812q5.625 1.5625 10.531 2.3438t9.25 0.78125q11.234 0 17.766-5.1094 6.5469-5.0938 6.5469-13.781 0-6.0625-3.4688-10.234t-9.8594-5.7812z"/>
</defs>
<g transform="translate(566.45 303.66) scale(.1 -.1)">
<use xlink:href="#c"/>
<use x="63.623047" xlink:href="#d"/>
<use x="95.410156" xlink:href="#c"/>
<use x="159.033203" xlink:href="#af"/>
</g>
</g>
<g clip-path="url(#a)">
<g transform="translate(615.99 303.66) scale(.1 -.1)">
<use xlink:href="#c"/>
<use x="63.623047" xlink:href="#d"/>
<use x="95.410156" xlink:href="#c"/>
<use x="159.033203" xlink:href="#ae"/>
</g>
</g>
<g clip-path="url(#a)">
<g transform="translate(219.69 249.11) scale(.1 -.1)">
<use xlink:href="#c"/>
<use x="63.623047" xlink:href="#d"/>
<use x="95.410156" xlink:href="#c"/>
<use x="159.033203" xlink:href="#ad"/>
</g>
</g>
<g clip-path="url(#a)">
<g transform="translate(318.77 303.66) scale(.1 -.1)">
<use xlink:href="#c"/>
<use x="63.623047" xlink:href="#d"/>
<use x="95.410156" xlink:href="#c"/>
<use x="159.033203" xlink:href="#ac"/>
</g>
</g>
<g clip-path="url(#a)">
<g transform="translate(170.16 303.66) scale(.1 -.1)">
<use xlink:href="#c"/>
<use x="63.623047" xlink:href="#d"/>
<use x="95.410156" xlink:href="#c"/>
<use x="159.033203" xlink:href="#ab"/>
</g>
</g>
<g clip-path="url(#a)">
<g transform="translate(219.69 303.66) scale(.1 -.1)">
<use xlink:href="#c"/>
<use x="63.623047" xlink:href="#d"/>
<use x="95.410156" xlink:href="#c"/>
<use x="159.033203" xlink:href="#aa"/>
</g>
</g>
<g clip-path="url(#a)">
<g transform="translate(269.23 303.66) scale(.1 -.1)">
<use xlink:href="#c"/>
<use x="63.623047" xlink:href="#d"/>
<use x="95.410156" xlink:href="#c"/>
<use x="159.033203" xlink:href="#z"/>
</g>
</g>
<g clip-path="url(#a)">
<defs>
<path id="aj" d="m31.781 66.406q-7.6094 0-11.453-7.5-3.8281-7.4844-3.8281-22.531 0-14.984 3.8281-22.484 3.8438-7.5 11.453-7.5 7.6719 0 11.5 7.5 3.8438 7.5 3.8438 22.484 0 15.047-3.8438 22.531-3.8281 7.5-11.5 7.5zm0 7.8125q12.266 0 18.734-9.7031 6.4688-9.6875 6.4688-28.141 0-18.406-6.4688-28.109-6.4688-9.6875-18.734-9.6875-12.25 0-18.719 9.6875-6.4688 9.7031-6.4688 28.109 0 18.453 6.4688 28.141 6.4688 9.7031 18.719 9.7031z"/>
</defs>
<g transform="translate(21.545 303.66) scale(.1 -.1)">
<use xlink:href="#c"/>
<use x="63.623047" xlink:href="#d"/>
<use x="95.410156" xlink:href="#m"/>
<use x="159.033203" xlink:href="#aj"/>
</g>
</g>
<g clip-path="url(#a)">
<g transform="translate(71.082 303.66) scale(.1 -.1)">
<use xlink:href="#c"/>
<use x="63.623047" xlink:href="#d"/>
<use x="95.410156" xlink:href="#m"/>
<use x="159.033203" xlink:href="#c"/>
</g>
</g>
<g clip-path="url(#a)">
<g transform="translate(368.3 303.66) scale(.1 -.1)">
<use xlink:href="#c"/>
<use x="63.623047" xlink:href="#d"/>
<use x="95.410156" xlink:href="#m"/>
<use x="159.033203" xlink:href="#m"/>
</g>
</g>
<g clip-path="url(#a)">
<g transform="translate(665.52 303.66) scale(.1 -.1)">
<use xlink:href="#c"/>
<use x="63.623047" xlink:href="#d"/>
<use x="95.410156" xlink:href="#m"/>
<use x="159.033203" xlink:href="#af"/>
</g>
</g>
<defs>
<clipPath id="a">
<rect width="709.33" height="373.33"/>
</clipPath>
</defs>
</svg>
