<?xml version="1.0" encoding="utf-8" standalone="no"?>
<!DOCTYPE svg PUBLIC "-//W3C//DTD SVG 1.1//EN"
  "http://www.w3.org/Graphics/SVG/1.1/DTD/svg11.dtd">
<!-- Created with matplotlib (https://matplotlib.org/) -->
<svg height="373.333333pt" version="1.1" viewBox="0 0 709.333333 373.333333" width="709.333333pt" xmlns="http://www.w3.org/2000/svg" xmlns:xlink="http://www.w3.org/1999/xlink">
 <defs>
  <style type="text/css">
*{stroke-linecap:butt;stroke-linejoin:round;}
  </style>
 </defs>
 <g id="figure_1">
  <g id="patch_1">
   <path d="M 0 373.333333 
L 709.333333 373.333333 
L 709.333333 0 
L 0 0 
z
" style="fill:#ffffff;"/>
  </g>
  <g id="axes_1">
   <g id="LineCollection_1">
    <path clip-path="url(#p23bac9a01b)" d="M 201.928394 17.880799 
L 201.928394 77.007642 
" style="fill:none;stroke:#000000;"/>
    <path clip-path="url(#p23bac9a01b)" d="M 201.928394 77.007642 
L 57.446245 246.351037 
" style="fill:none;stroke:#000000;"/>
    <path clip-path="url(#p23bac9a01b)" d="M 201.928394 77.007642 
L 131.75135 300.901786 
" style="fill:none;stroke:#000000;"/>
    <path clip-path="url(#p23bac9a01b)" d="M 201.928394 77.007642 
L 416.587588 134.666789 
" style="fill:none;stroke:#000000;"/>
    <path clip-path="url(#p23bac9a01b)" d="M 57.446245 246.351037 
L 32.677876 300.901786 
" style="fill:none;stroke:#000000;"/>
    <path clip-path="url(#p23bac9a01b)" d="M 57.446245 246.351037 
L 82.214613 300.901786 
" style="fill:none;stroke:#000000;"/>
    <path clip-path="url(#p23bac9a01b)" d="M 131.75135 300.901786 
L 131.75135 355.452534 
" style="fill:none;stroke:#000000;"/>
    <path clip-path="url(#p23bac9a01b)" d="M 416.587588 134.666789 
L 280.361561 191.041427 
" style="fill:none;stroke:#000000;"/>
    <path clip-path="url(#p23bac9a01b)" d="M 416.587588 134.666789 
L 428.971772 300.901786 
" style="fill:none;stroke:#000000;"/>
    <path clip-path="url(#p23bac9a01b)" d="M 416.587588 134.666789 
L 577.581983 246.351037 
" style="fill:none;stroke:#000000;"/>
    <path clip-path="url(#p23bac9a01b)" d="M 416.587588 134.666789 
L 379.435035 300.901786 
" style="fill:none;stroke:#000000;"/>
    <path clip-path="url(#p23bac9a01b)" d="M 280.361561 191.041427 
L 230.824824 246.351037 
" style="fill:none;stroke:#000000;"/>
    <path clip-path="url(#p23bac9a01b)" d="M 280.361561 191.041427 
L 329.898298 300.901786 
" style="fill:none;stroke:#000000;"/>
    <path clip-path="url(#p23bac9a01b)" d="M 428.971772 300.901786 
L 428.971772 355.452534 
" style="fill:none;stroke:#000000;"/>
    <path clip-path="url(#p23bac9a01b)" d="M 577.581983 246.351037 
L 478.508509 300.901786 
" style="fill:none;stroke:#000000;"/>
    <path clip-path="url(#p23bac9a01b)" d="M 577.581983 246.351037 
L 528.045246 300.901786 
" style="fill:none;stroke:#000000;"/>
    <path clip-path="url(#p23bac9a01b)" d="M 577.581983 246.351037 
L 577.581983 300.901786 
" style="fill:none;stroke:#000000;"/>
    <path clip-path="url(#p23bac9a01b)" d="M 577.581983 246.351037 
L 627.11872 300.901786 
" style="fill:none;stroke:#000000;"/>
    <path clip-path="url(#p23bac9a01b)" d="M 577.581983 246.351037 
L 676.655457 300.901786 
" style="fill:none;stroke:#000000;"/>
    <path clip-path="url(#p23bac9a01b)" d="M 478.508509 300.901786 
L 478.508509 355.452534 
" style="fill:none;stroke:#000000;"/>
    <path clip-path="url(#p23bac9a01b)" d="M 528.045246 300.901786 
L 528.045246 355.452534 
" style="fill:none;stroke:#000000;"/>
    <path clip-path="url(#p23bac9a01b)" d="M 577.581983 300.901786 
L 577.581983 355.452534 
" style="fill:none;stroke:#000000;"/>
    <path clip-path="url(#p23bac9a01b)" d="M 627.11872 300.901786 
L 627.11872 355.452534 
" style="fill:none;stroke:#000000;"/>
    <path clip-path="url(#p23bac9a01b)" d="M 230.824824 246.351037 
L 181.288087 300.901786 
" style="fill:none;stroke:#000000;"/>
    <path clip-path="url(#p23bac9a01b)" d="M 230.824824 246.351037 
L 230.824824 300.901786 
" style="fill:none;stroke:#000000;"/>
    <path clip-path="url(#p23bac9a01b)" d="M 230.824824 246.351037 
L 280.361561 300.901786 
" style="fill:none;stroke:#000000;"/>
    <path clip-path="url(#p23bac9a01b)" d="M 329.898298 300.901786 
L 329.898298 355.452534 
" style="fill:none;stroke:#000000;"/>
    <path clip-path="url(#p23bac9a01b)" d="M 181.288087 300.901786 
L 181.288087 355.452534 
" style="fill:none;stroke:#000000;"/>
    <path clip-path="url(#p23bac9a01b)" d="M 230.824824 300.901786 
L 230.824824 355.452534 
" style="fill:none;stroke:#000000;"/>
    <path clip-path="url(#p23bac9a01b)" d="M 280.361561 300.901786 
L 280.361561 355.452534 
" style="fill:none;stroke:#000000;"/>
    <path clip-path="url(#p23bac9a01b)" d="M 32.677876 300.901786 
L 32.677876 355.452534 
" style="fill:none;stroke:#000000;"/>
    <path clip-path="url(#p23bac9a01b)" d="M 82.214613 300.901786 
L 82.214613 355.452534 
" style="fill:none;stroke:#000000;"/>
    <path clip-path="url(#p23bac9a01b)" d="M 379.435035 300.901786 
L 379.435035 355.452534 
" style="fill:none;stroke:#000000;"/>
    <path clip-path="url(#p23bac9a01b)" d="M 676.655457 300.901786 
L 676.655457 355.452534 
" style="fill:none;stroke:#000000;"/>
   </g>
   <g id="text_1">
    <g id="patch_2">
     <path clip-path="url(#p23bac9a01b)" d="M 195.657144 44.436096 
L 195.657144 50.452346 
Q 195.657144 52.852346 198.057144 52.852346 
L 205.799644 52.852346 
Q 208.199644 52.852346 208.199644 50.452346 
L 208.199644 44.436096 
Q 208.199644 42.036096 205.799644 42.036096 
L 198.057144 42.036096 
Q 195.657144 42.036096 195.657144 44.436096 
z
" style="fill:#ffffff;stroke:#ffffff;stroke-linejoin:miter;"/>
    </g>
    <g clip-path="url(#p23bac9a01b)">
     <!-- H -->
     <defs>
      <path d="M 9.8125 72.90625 
L 19.671875 72.90625 
L 19.671875 43.015625 
L 55.515625 43.015625 
L 55.515625 72.90625 
L 65.375 72.90625 
L 65.375 0 
L 55.515625 0 
L 55.515625 34.71875 
L 19.671875 34.71875 
L 19.671875 0 
L 9.8125 0 
z
" id="DejaVuSans-72"/>
     </defs>
     <g transform="translate(199.720894 44.436096)rotate(-270)scale(0.08 -0.08)">
      <use xlink:href="#DejaVuSans-72"/>
     </g>
    </g>
   </g>
   <g id="text_2">
    <g id="patch_3">
     <path clip-path="url(#p23bac9a01b)" d="M 132.682132 167.83131 
L 136.234093 163.668158 
Q 137.791828 161.842382 135.966051 160.284646 
L 130.076019 155.259328 
Q 128.250242 153.701593 126.692507 155.527369 
L 123.140546 159.690521 
Q 121.582811 161.516298 123.408588 163.074033 
L 129.29862 168.099352 
Q 131.124397 169.657087 132.682132 167.83131 
z
" style="fill:#ffffff;stroke:#ffffff;stroke-linejoin:miter;"/>
    </g>
    <g clip-path="url(#p23bac9a01b)">
     <!-- A -->
     <defs>
      <path d="M 34.1875 63.1875 
L 20.796875 26.90625 
L 47.609375 26.90625 
z
M 28.609375 72.90625 
L 39.796875 72.90625 
L 67.578125 0 
L 57.328125 0 
L 50.6875 18.703125 
L 17.828125 18.703125 
L 11.1875 0 
L 0.78125 0 
z
" id="DejaVuSans-65"/>
     </defs>
     <g transform="translate(129.590673 165.193707)rotate(-49.529509)scale(0.08 -0.08)">
      <use xlink:href="#DejaVuSans-65"/>
     </g>
    </g>
   </g>
   <g id="text_3">
    <g id="patch_4">
     <path clip-path="url(#p23bac9a01b)" d="M 172.102684 193.131857 
L 173.545423 188.528916 
Q 174.263241 186.238777 171.973102 185.520959 
L 164.585017 183.205249 
Q 162.294878 182.487431 161.57706 184.777571 
L 160.134321 189.380512 
Q 159.416503 191.670651 161.706643 192.388469 
L 169.094727 194.704179 
Q 171.384866 195.421997 172.102684 193.131857 
z
" style="fill:#ffffff;stroke:#ffffff;stroke-linejoin:miter;"/>
    </g>
    <g clip-path="url(#p23bac9a01b)">
     <!-- P -->
     <defs>
      <path d="M 19.671875 64.796875 
L 19.671875 37.40625 
L 32.078125 37.40625 
Q 38.96875 37.40625 42.71875 40.96875 
Q 46.484375 44.53125 46.484375 51.125 
Q 46.484375 57.671875 42.71875 61.234375 
Q 38.96875 64.796875 32.078125 64.796875 
z
M 9.8125 72.90625 
L 32.078125 72.90625 
Q 44.34375 72.90625 50.609375 67.359375 
Q 56.890625 61.8125 56.890625 51.125 
Q 56.890625 40.328125 50.609375 34.8125 
Q 44.34375 29.296875 32.078125 29.296875 
L 19.671875 29.296875 
L 19.671875 0 
L 9.8125 0 
z
" id="DejaVuSans-80"/>
     </defs>
     <g transform="translate(168.224954 191.916427)rotate(-72.597)scale(0.08 -0.08)">
      <use xlink:href="#DejaVuSans-80"/>
     </g>
    </g>
   </g>
   <g id="text_4">
    <g id="patch_5">
     <path clip-path="url(#p23bac9a01b)" d="M 304.988572 111.183962 
L 310.273729 112.603597 
Q 312.591569 113.226187 313.214159 110.908347 
L 315.222661 103.430899 
Q 315.845251 101.113059 313.527411 100.490469 
L 308.242253 99.070835 
Q 305.924413 98.448245 305.301823 100.766084 
L 303.293322 108.243532 
Q 302.670732 110.561372 304.988572 111.183962 
z
" style="fill:#ffffff;stroke:#ffffff;stroke-linejoin:miter;"/>
    </g>
    <g clip-path="url(#p23bac9a01b)">
     <!-- A -->
     <g transform="translate(306.042759 107.259328)rotate(-344.964795)scale(0.08 -0.08)">
      <use xlink:href="#DejaVuSans-65"/>
     </g>
    </g>
   </g>
   <g id="text_5">
    <g id="patch_6">
     <path clip-path="url(#p23bac9a01b)" d="M 49.727349 278.52048 
L 51.817205 273.917706 
Q 52.809421 271.732413 50.624128 270.740197 
L 43.574281 267.539265 
Q 41.388988 266.547049 40.396771 268.732342 
L 38.306916 273.335116 
Q 37.314699 275.520409 39.499992 276.512626 
L 46.54984 279.713557 
Q 48.735133 280.705774 49.727349 278.52048 
z
" style="fill:#ffffff;stroke:#ffffff;stroke-linejoin:miter;"/>
    </g>
    <g clip-path="url(#p23bac9a01b)">
     <!-- E -->
     <defs>
      <path d="M 9.8125 72.90625 
L 55.90625 72.90625 
L 55.90625 64.59375 
L 19.671875 64.59375 
L 19.671875 43.015625 
L 54.390625 43.015625 
L 54.390625 34.71875 
L 19.671875 34.71875 
L 19.671875 8.296875 
L 56.78125 8.296875 
L 56.78125 0 
L 9.8125 0 
z
" id="DejaVuSans-69"/>
     </defs>
     <g transform="translate(46.027147 276.840431)rotate(-65.579924)scale(0.08 -0.08)">
      <use xlink:href="#DejaVuSans-69"/>
     </g>
    </g>
   </g>
   <g id="text_6">
    <g id="patch_7">
     <path clip-path="url(#p23bac9a01b)" d="M 62.965469 273.675845 
L 65.274956 278.762342 
Q 66.267172 280.947635 68.452465 279.955419 
L 75.502312 276.754487 
Q 77.687606 275.762271 76.695389 273.576978 
L 74.385902 268.49048 
Q 73.393686 266.305187 71.208392 267.297403 
L 64.158545 270.498335 
Q 61.973252 271.490551 62.965469 273.675845 
z
" style="fill:#ffffff;stroke:#ffffff;stroke-linejoin:miter;"/>
    </g>
    <g clip-path="url(#p23bac9a01b)">
     <!-- C -->
     <defs>
      <path d="M 64.40625 67.28125 
L 64.40625 56.890625 
Q 59.421875 61.53125 53.78125 63.8125 
Q 48.140625 66.109375 41.796875 66.109375 
Q 29.296875 66.109375 22.65625 58.46875 
Q 16.015625 50.828125 16.015625 36.375 
Q 16.015625 21.96875 22.65625 14.328125 
Q 29.296875 6.6875 41.796875 6.6875 
Q 48.140625 6.6875 53.78125 8.984375 
Q 59.421875 11.28125 64.40625 15.921875 
L 64.40625 5.609375 
Q 59.234375 2.09375 53.4375 0.328125 
Q 47.65625 -1.421875 41.21875 -1.421875 
Q 24.65625 -1.421875 15.125 8.703125 
Q 5.609375 18.84375 5.609375 36.375 
Q 5.609375 53.953125 15.125 64.078125 
Q 24.65625 74.21875 41.21875 74.21875 
Q 47.75 74.21875 53.53125 72.484375 
Q 59.328125 70.75 64.40625 67.28125 
z
" id="DejaVuSans-67"/>
     </defs>
     <g transform="translate(66.665671 271.995795)rotate(-294.420076)scale(0.08 -0.08)">
      <use xlink:href="#DejaVuSans-67"/>
     </g>
    </g>
   </g>
   <g id="text_7">
    <g id="patch_8">
     <path clip-path="url(#p23bac9a01b)" d="M 125.4801 310.53466 
L 125.4801 345.81966 
Q 125.4801 348.21966 127.8801 348.21966 
L 135.6226 348.21966 
Q 138.0226 348.21966 138.0226 345.81966 
L 138.0226 310.53466 
Q 138.0226 308.13466 135.6226 308.13466 
L 127.8801 308.13466 
Q 125.4801 308.13466 125.4801 310.53466 
z
" style="fill:#ffffff;stroke:#ffffff;stroke-linejoin:miter;"/>
    </g>
    <g clip-path="url(#p23bac9a01b)">
     <!-- Terminal -->
     <defs>
      <path d="M -0.296875 72.90625 
L 61.375 72.90625 
L 61.375 64.59375 
L 35.5 64.59375 
L 35.5 0 
L 25.59375 0 
L 25.59375 64.59375 
L -0.296875 64.59375 
z
" id="DejaVuSans-84"/>
      <path d="M 56.203125 29.59375 
L 56.203125 25.203125 
L 14.890625 25.203125 
Q 15.484375 15.921875 20.484375 11.0625 
Q 25.484375 6.203125 34.421875 6.203125 
Q 39.59375 6.203125 44.453125 7.46875 
Q 49.3125 8.734375 54.109375 11.28125 
L 54.109375 2.78125 
Q 49.265625 0.734375 44.1875 -0.34375 
Q 39.109375 -1.421875 33.890625 -1.421875 
Q 20.796875 -1.421875 13.15625 6.1875 
Q 5.515625 13.8125 5.515625 26.8125 
Q 5.515625 40.234375 12.765625 48.109375 
Q 20.015625 56 32.328125 56 
Q 43.359375 56 49.78125 48.890625 
Q 56.203125 41.796875 56.203125 29.59375 
z
M 47.21875 32.234375 
Q 47.125 39.59375 43.09375 43.984375 
Q 39.0625 48.390625 32.421875 48.390625 
Q 24.90625 48.390625 20.390625 44.140625 
Q 15.875 39.890625 15.1875 32.171875 
z
" id="DejaVuSans-101"/>
      <path d="M 41.109375 46.296875 
Q 39.59375 47.171875 37.8125 47.578125 
Q 36.03125 48 33.890625 48 
Q 26.265625 48 22.1875 43.046875 
Q 18.109375 38.09375 18.109375 28.8125 
L 18.109375 0 
L 9.078125 0 
L 9.078125 54.6875 
L 18.109375 54.6875 
L 18.109375 46.1875 
Q 20.953125 51.171875 25.484375 53.578125 
Q 30.03125 56 36.53125 56 
Q 37.453125 56 38.578125 55.875 
Q 39.703125 55.765625 41.0625 55.515625 
z
" id="DejaVuSans-114"/>
      <path d="M 52 44.1875 
Q 55.375 50.25 60.0625 53.125 
Q 64.75 56 71.09375 56 
Q 79.640625 56 84.28125 50.015625 
Q 88.921875 44.046875 88.921875 33.015625 
L 88.921875 0 
L 79.890625 0 
L 79.890625 32.71875 
Q 79.890625 40.578125 77.09375 44.375 
Q 74.3125 48.1875 68.609375 48.1875 
Q 61.625 48.1875 57.5625 43.546875 
Q 53.515625 38.921875 53.515625 30.90625 
L 53.515625 0 
L 44.484375 0 
L 44.484375 32.71875 
Q 44.484375 40.625 41.703125 44.40625 
Q 38.921875 48.1875 33.109375 48.1875 
Q 26.21875 48.1875 22.15625 43.53125 
Q 18.109375 38.875 18.109375 30.90625 
L 18.109375 0 
L 9.078125 0 
L 9.078125 54.6875 
L 18.109375 54.6875 
L 18.109375 46.1875 
Q 21.1875 51.21875 25.484375 53.609375 
Q 29.78125 56 35.6875 56 
Q 41.65625 56 45.828125 52.96875 
Q 50 49.953125 52 44.1875 
z
" id="DejaVuSans-109"/>
      <path d="M 9.421875 54.6875 
L 18.40625 54.6875 
L 18.40625 0 
L 9.421875 0 
z
M 9.421875 75.984375 
L 18.40625 75.984375 
L 18.40625 64.59375 
L 9.421875 64.59375 
z
" id="DejaVuSans-105"/>
      <path d="M 54.890625 33.015625 
L 54.890625 0 
L 45.90625 0 
L 45.90625 32.71875 
Q 45.90625 40.484375 42.875 44.328125 
Q 39.84375 48.1875 33.796875 48.1875 
Q 26.515625 48.1875 22.3125 43.546875 
Q 18.109375 38.921875 18.109375 30.90625 
L 18.109375 0 
L 9.078125 0 
L 9.078125 54.6875 
L 18.109375 54.6875 
L 18.109375 46.1875 
Q 21.34375 51.125 25.703125 53.5625 
Q 30.078125 56 35.796875 56 
Q 45.21875 56 50.046875 50.171875 
Q 54.890625 44.34375 54.890625 33.015625 
z
" id="DejaVuSans-110"/>
      <path d="M 34.28125 27.484375 
Q 23.390625 27.484375 19.1875 25 
Q 14.984375 22.515625 14.984375 16.5 
Q 14.984375 11.71875 18.140625 8.90625 
Q 21.296875 6.109375 26.703125 6.109375 
Q 34.1875 6.109375 38.703125 11.40625 
Q 43.21875 16.703125 43.21875 25.484375 
L 43.21875 27.484375 
z
M 52.203125 31.203125 
L 52.203125 0 
L 43.21875 0 
L 43.21875 8.296875 
Q 40.140625 3.328125 35.546875 0.953125 
Q 30.953125 -1.421875 24.3125 -1.421875 
Q 15.921875 -1.421875 10.953125 3.296875 
Q 6 8.015625 6 15.921875 
Q 6 25.140625 12.171875 29.828125 
Q 18.359375 34.515625 30.609375 34.515625 
L 43.21875 34.515625 
L 43.21875 35.40625 
Q 43.21875 41.609375 39.140625 45 
Q 35.0625 48.390625 27.6875 48.390625 
Q 23 48.390625 18.546875 47.265625 
Q 14.109375 46.140625 10.015625 43.890625 
L 10.015625 52.203125 
Q 14.9375 54.109375 19.578125 55.046875 
Q 24.21875 56 28.609375 56 
Q 40.484375 56 46.34375 49.84375 
Q 52.203125 43.703125 52.203125 31.203125 
z
" id="DejaVuSans-97"/>
      <path d="M 9.421875 75.984375 
L 18.40625 75.984375 
L 18.40625 0 
L 9.421875 0 
z
" id="DejaVuSans-108"/>
     </defs>
     <g transform="translate(129.54385 310.53466)rotate(-270)scale(0.08 -0.08)">
      <use xlink:href="#DejaVuSans-84"/>
      <use x="60.818359" xlink:href="#DejaVuSans-101"/>
      <use x="122.341797" xlink:href="#DejaVuSans-114"/>
      <use x="163.439453" xlink:href="#DejaVuSans-109"/>
      <use x="260.851562" xlink:href="#DejaVuSans-105"/>
      <use x="288.634766" xlink:href="#DejaVuSans-110"/>
      <use x="352.013672" xlink:href="#DejaVuSans-97"/>
      <use x="413.292969" xlink:href="#DejaVuSans-108"/>
     </g>
    </g>
   </g>
   <g id="text_8">
    <g id="patch_9">
     <path clip-path="url(#p23bac9a01b)" d="M 348.291729 169.716811 
L 353.453448 167.580729 
Q 355.671058 166.663011 354.753341 164.445401 
L 351.792747 157.291298 
Q 350.87503 155.073688 348.65742 155.991405 
L 343.495701 158.127488 
Q 341.278091 159.045205 342.195808 161.262815 
L 345.156402 168.416918 
Q 346.074119 170.634528 348.291729 169.716811 
z
" style="fill:#ffffff;stroke:#ffffff;stroke-linejoin:miter;"/>
    </g>
    <g clip-path="url(#p23bac9a01b)">
     <!-- C -->
     <g transform="translate(346.737824 165.961889)rotate(-22.481319)scale(0.08 -0.08)">
      <use xlink:href="#DejaVuSans-67"/>
     </g>
    </g>
   </g>
   <g id="text_9">
    <g id="patch_10">
     <path clip-path="url(#p23bac9a01b)" d="M 416.303441 215.265962 
L 416.74808 221.234423 
Q 416.926381 223.62779 419.319749 223.449489 
L 427.040853 222.874282 
Q 429.43422 222.69598 429.255919 220.302613 
L 428.81128 214.334152 
Q 428.632979 211.940785 426.239611 212.119086 
L 418.518508 212.694293 
Q 416.12514 212.872594 416.303441 215.265962 
z
" style="fill:#ffffff;stroke:#ffffff;stroke-linejoin:miter;"/>
    </g>
    <g clip-path="url(#p23bac9a01b)">
     <!-- N -->
     <defs>
      <path d="M 9.8125 72.90625 
L 23.09375 72.90625 
L 55.421875 11.921875 
L 55.421875 72.90625 
L 64.984375 72.90625 
L 64.984375 0 
L 51.703125 0 
L 19.390625 60.984375 
L 19.390625 0 
L 9.8125 0 
z
" id="DejaVuSans-78"/>
     </defs>
     <g transform="translate(420.355961 214.964057)rotate(-274.260554)scale(0.08 -0.08)">
      <use xlink:href="#DejaVuSans-78"/>
     </g>
    </g>
   </g>
   <g id="text_10">
    <g id="patch_11">
     <path clip-path="url(#p23bac9a01b)" d="M 491.215254 194.069632 
L 495.805199 197.253747 
Q 497.777161 198.621726 499.14514 196.649765 
L 503.558299 190.288135 
Q 504.926279 188.316174 502.954317 186.948194 
L 498.364372 183.764079 
Q 496.39241 182.3961 495.024431 184.368061 
L 490.611272 190.729691 
Q 489.243292 192.701653 491.215254 194.069632 
z
" style="fill:#ffffff;stroke:#ffffff;stroke-linejoin:miter;"/>
    </g>
    <g clip-path="url(#p23bac9a01b)">
     <!-- C -->
     <g transform="translate(493.531557 190.730649)rotate(-325.25037)scale(0.08 -0.08)">
      <use xlink:href="#DejaVuSans-67"/>
     </g>
    </g>
   </g>
   <g id="text_11">
    <g id="patch_12">
     <path clip-path="url(#p23bac9a01b)" d="M 403.493045 222.009146 
L 404.770098 216.295114 
Q 405.29357 213.952898 402.951353 213.429426 
L 395.395266 211.740684 
Q 393.05305 211.217213 392.529578 213.559429 
L 391.252525 219.273461 
Q 390.729053 221.615677 393.07127 222.139149 
L 400.627357 223.82789 
Q 402.969574 224.351362 403.493045 222.009146 
z
" style="fill:#ffffff;stroke:#ffffff;stroke-linejoin:miter;"/>
    </g>
    <g clip-path="url(#p23bac9a01b)">
     <!-- U -->
     <defs>
      <path d="M 8.6875 72.90625 
L 18.609375 72.90625 
L 18.609375 28.609375 
Q 18.609375 16.890625 22.84375 11.734375 
Q 27.09375 6.59375 36.625 6.59375 
Q 46.09375 6.59375 50.34375 11.734375 
Q 54.59375 16.890625 54.59375 28.609375 
L 54.59375 72.90625 
L 64.5 72.90625 
L 64.5 27.390625 
Q 64.5 13.140625 57.4375 5.859375 
Q 50.390625 -1.421875 36.625 -1.421875 
Q 22.796875 -1.421875 15.734375 5.859375 
Q 8.6875 13.140625 8.6875 27.390625 
z
" id="DejaVuSans-85"/>
     </defs>
     <g transform="translate(399.527136 221.122788)rotate(-77.401763)scale(0.08 -0.08)">
      <use xlink:href="#DejaVuSans-85"/>
     </g>
    </g>
   </g>
   <g id="text_12">
    <g id="patch_13">
     <path clip-path="url(#p23bac9a01b)" d="M 258.578468 224.762941 
L 261.950976 220.997411 
Q 263.552166 219.209622 261.764378 217.608432 
L 255.996896 212.442924 
Q 254.209108 210.841734 252.607917 212.629523 
L 249.235409 216.395053 
Q 247.634219 218.182842 249.422008 219.784032 
L 255.189489 224.94954 
Q 256.977278 226.55073 258.578468 224.762941 
z
" style="fill:#ffffff;stroke:#ffffff;stroke-linejoin:miter;"/>
    </g>
    <g clip-path="url(#p23bac9a01b)">
     <!-- E -->
     <g transform="translate(255.551332 222.051759)rotate(-48.151541)scale(0.08 -0.08)">
      <use xlink:href="#DejaVuSans-69"/>
     </g>
    </g>
   </g>
   <g id="text_13">
    <g id="patch_14">
     <path clip-path="url(#p23bac9a01b)" d="M 298.264864 246.003168 
L 300.561101 251.095661 
Q 301.547625 253.28353 303.735494 252.297005 
L 310.793651 249.114438 
Q 312.981519 248.127914 311.994995 245.940045 
L 309.698758 240.847552 
Q 308.712234 238.659683 306.524365 239.646207 
L 299.466209 242.828775 
Q 297.27834 243.815299 298.264864 246.003168 
z
" style="fill:#ffffff;stroke:#ffffff;stroke-linejoin:miter;"/>
    </g>
    <g clip-path="url(#p23bac9a01b)">
     <!-- C -->
     <g transform="translate(301.969427 244.332757)rotate(-294.270917)scale(0.08 -0.08)">
      <use xlink:href="#DejaVuSans-67"/>
     </g>
    </g>
   </g>
   <g id="text_14">
    <g id="patch_15">
     <path clip-path="url(#p23bac9a01b)" d="M 422.700522 310.53466 
L 422.700522 345.81966 
Q 422.700522 348.21966 425.100522 348.21966 
L 432.843022 348.21966 
Q 435.243022 348.21966 435.243022 345.81966 
L 435.243022 310.53466 
Q 435.243022 308.13466 432.843022 308.13466 
L 425.100522 308.13466 
Q 422.700522 308.13466 422.700522 310.53466 
z
" style="fill:#ffffff;stroke:#ffffff;stroke-linejoin:miter;"/>
    </g>
    <g clip-path="url(#p23bac9a01b)">
     <!-- Terminal -->
     <g transform="translate(426.764272 310.53466)rotate(-270)scale(0.08 -0.08)">
      <use xlink:href="#DejaVuSans-84"/>
      <use x="60.818359" xlink:href="#DejaVuSans-101"/>
      <use x="122.341797" xlink:href="#DejaVuSans-114"/>
      <use x="163.439453" xlink:href="#DejaVuSans-109"/>
      <use x="260.851562" xlink:href="#DejaVuSans-105"/>
      <use x="288.634766" xlink:href="#DejaVuSans-110"/>
      <use x="352.013672" xlink:href="#DejaVuSans-97"/>
      <use x="413.292969" xlink:href="#DejaVuSans-108"/>
     </g>
    </g>
   </g>
   <g id="text_15">
    <g id="patch_16">
     <path clip-path="url(#p23bac9a01b)" d="M 528.635341 280.460538 
L 533.504754 277.779396 
Q 535.607131 276.621808 534.449543 274.51943 
L 530.715116 267.737074 
Q 529.557528 265.634696 527.455151 266.792284 
L 522.585739 269.473427 
Q 520.483361 270.631015 521.640949 272.733392 
L 525.375376 279.515749 
Q 526.532964 281.618126 528.635341 280.460538 
z
" style="fill:#ffffff;stroke:#ffffff;stroke-linejoin:miter;"/>
    </g>
    <g clip-path="url(#p23bac9a01b)">
     <!-- R -->
     <defs>
      <path d="M 44.390625 34.1875 
Q 47.5625 33.109375 50.5625 29.59375 
Q 53.5625 26.078125 56.59375 19.921875 
L 66.609375 0 
L 56 0 
L 46.6875 18.703125 
Q 43.0625 26.03125 39.671875 28.421875 
Q 36.28125 30.8125 30.421875 30.8125 
L 19.671875 30.8125 
L 19.671875 0 
L 9.8125 0 
L 9.8125 72.90625 
L 32.078125 72.90625 
Q 44.578125 72.90625 50.734375 67.671875 
Q 56.890625 62.453125 56.890625 51.90625 
Q 56.890625 45.015625 53.6875 40.46875 
Q 50.484375 35.9375 44.390625 34.1875 
z
M 19.671875 64.796875 
L 19.671875 38.921875 
L 32.078125 38.921875 
Q 39.203125 38.921875 42.84375 42.21875 
Q 46.484375 45.515625 46.484375 51.90625 
Q 46.484375 58.296875 42.84375 61.546875 
Q 39.203125 64.796875 32.078125 64.796875 
z
" id="DejaVuSans-82"/>
     </defs>
     <g transform="translate(526.67528 276.900731)rotate(-28.837577)scale(0.08 -0.08)">
      <use xlink:href="#DejaVuSans-82"/>
     </g>
    </g>
   </g>
   <g id="text_16">
    <g id="patch_17">
     <path clip-path="url(#p23bac9a01b)" d="M 555.757137 279.713489 
L 559.155437 275.971219 
Q 560.768873 274.194474 558.992128 272.581038 
L 553.260274 267.376025 
Q 551.483529 265.762589 549.870093 267.539334 
L 546.471793 271.281603 
Q 544.858356 273.058348 546.635101 274.671785 
L 552.366955 279.876797 
Q 554.1437 281.490234 555.757137 279.713489 
z
" style="fill:#ffffff;stroke:#ffffff;stroke-linejoin:miter;"/>
    </g>
    <g clip-path="url(#p23bac9a01b)">
     <!-- E -->
     <g transform="translate(552.7487 276.981571)rotate(-47.757871)scale(0.08 -0.08)">
      <use xlink:href="#DejaVuSans-69"/>
     </g>
    </g>
   </g>
   <g id="text_17">
    <g id="patch_18">
     <path clip-path="url(#p23bac9a01b)" d="M 571.310733 271.098911 
L 571.310733 276.153911 
Q 571.310733 278.553911 573.710733 278.553911 
L 581.453233 278.553911 
Q 583.853233 278.553911 583.853233 276.153911 
L 583.853233 271.098911 
Q 583.853233 268.698911 581.453233 268.698911 
L 573.710733 268.698911 
Q 571.310733 268.698911 571.310733 271.098911 
z
" style="fill:#ffffff;stroke:#ffffff;stroke-linejoin:miter;"/>
    </g>
    <g clip-path="url(#p23bac9a01b)">
     <!-- E -->
     <g transform="translate(575.374483 271.098911)rotate(-270)scale(0.08 -0.08)">
      <use xlink:href="#DejaVuSans-69"/>
     </g>
    </g>
   </g>
   <g id="text_18">
    <g id="patch_19">
     <path clip-path="url(#p23bac9a01b)" d="M 595.829959 275.774574 
L 599.5854 279.910134 
Q 601.198836 281.686879 602.975582 280.073442 
L 608.707435 274.86843 
Q 610.484181 273.254993 608.870744 271.478248 
L 605.115303 267.342689 
Q 603.501867 265.565944 601.725122 267.17938 
L 595.993268 272.384393 
Q 594.216523 273.997829 595.829959 275.774574 
z
" style="fill:#ffffff;stroke:#ffffff;stroke-linejoin:miter;"/>
    </g>
    <g clip-path="url(#p23bac9a01b)">
     <!-- C -->
     <g transform="translate(598.838396 273.042657)rotate(-312.242129)scale(0.08 -0.08)">
      <use xlink:href="#DejaVuSans-67"/>
     </g>
    </g>
   </g>
   <g id="text_19">
    <g id="patch_20">
     <path clip-path="url(#p23bac9a01b)" d="M 621.529457 277.707951 
L 626.658381 280.531983 
Q 628.760758 281.689571 629.918346 279.587194 
L 633.652773 272.804837 
Q 634.810361 270.70246 632.707984 269.544872 
L 627.579059 266.720839 
Q 625.476682 265.563252 624.319094 267.665629 
L 620.584667 274.447986 
Q 619.427079 276.550363 621.529457 277.707951 
z
" style="fill:#ffffff;stroke:#ffffff;stroke-linejoin:miter;"/>
    </g>
    <g clip-path="url(#p23bac9a01b)">
     <!-- U -->
     <g transform="translate(623.489518 274.148144)rotate(-331.162423)scale(0.08 -0.08)">
      <use xlink:href="#DejaVuSans-85"/>
     </g>
    </g>
   </g>
   <g id="text_20">
    <g id="patch_21">
     <path clip-path="url(#p23bac9a01b)" d="M 472.237259 310.53466 
L 472.237259 345.81966 
Q 472.237259 348.21966 474.637259 348.21966 
L 482.379759 348.21966 
Q 484.779759 348.21966 484.779759 345.81966 
L 484.779759 310.53466 
Q 484.779759 308.13466 482.379759 308.13466 
L 474.637259 308.13466 
Q 472.237259 308.13466 472.237259 310.53466 
z
" style="fill:#ffffff;stroke:#ffffff;stroke-linejoin:miter;"/>
    </g>
    <g clip-path="url(#p23bac9a01b)">
     <!-- Terminal -->
     <g transform="translate(476.301009 310.53466)rotate(-270)scale(0.08 -0.08)">
      <use xlink:href="#DejaVuSans-84"/>
      <use x="60.818359" xlink:href="#DejaVuSans-101"/>
      <use x="122.341797" xlink:href="#DejaVuSans-114"/>
      <use x="163.439453" xlink:href="#DejaVuSans-109"/>
      <use x="260.851562" xlink:href="#DejaVuSans-105"/>
      <use x="288.634766" xlink:href="#DejaVuSans-110"/>
      <use x="352.013672" xlink:href="#DejaVuSans-97"/>
      <use x="413.292969" xlink:href="#DejaVuSans-108"/>
     </g>
    </g>
   </g>
   <g id="text_21">
    <g id="patch_22">
     <path clip-path="url(#p23bac9a01b)" d="M 521.773996 310.53466 
L 521.773996 345.81966 
Q 521.773996 348.21966 524.173996 348.21966 
L 531.916496 348.21966 
Q 534.316496 348.21966 534.316496 345.81966 
L 534.316496 310.53466 
Q 534.316496 308.13466 531.916496 308.13466 
L 524.173996 308.13466 
Q 521.773996 308.13466 521.773996 310.53466 
z
" style="fill:#ffffff;stroke:#ffffff;stroke-linejoin:miter;"/>
    </g>
    <g clip-path="url(#p23bac9a01b)">
     <!-- Terminal -->
     <g transform="translate(525.837746 310.53466)rotate(-270)scale(0.08 -0.08)">
      <use xlink:href="#DejaVuSans-84"/>
      <use x="60.818359" xlink:href="#DejaVuSans-101"/>
      <use x="122.341797" xlink:href="#DejaVuSans-114"/>
      <use x="163.439453" xlink:href="#DejaVuSans-109"/>
      <use x="260.851562" xlink:href="#DejaVuSans-105"/>
      <use x="288.634766" xlink:href="#DejaVuSans-110"/>
      <use x="352.013672" xlink:href="#DejaVuSans-97"/>
      <use x="413.292969" xlink:href="#DejaVuSans-108"/>
     </g>
    </g>
   </g>
   <g id="text_22">
    <g id="patch_23">
     <path clip-path="url(#p23bac9a01b)" d="M 571.310733 310.53466 
L 571.310733 345.81966 
Q 571.310733 348.21966 573.710733 348.21966 
L 581.453233 348.21966 
Q 583.853233 348.21966 583.853233 345.81966 
L 583.853233 310.53466 
Q 583.853233 308.13466 581.453233 308.13466 
L 573.710733 308.13466 
Q 571.310733 308.13466 571.310733 310.53466 
z
" style="fill:#ffffff;stroke:#ffffff;stroke-linejoin:miter;"/>
    </g>
    <g clip-path="url(#p23bac9a01b)">
     <!-- Terminal -->
     <g transform="translate(575.374483 310.53466)rotate(-270)scale(0.08 -0.08)">
      <use xlink:href="#DejaVuSans-84"/>
      <use x="60.818359" xlink:href="#DejaVuSans-101"/>
      <use x="122.341797" xlink:href="#DejaVuSans-114"/>
      <use x="163.439453" xlink:href="#DejaVuSans-109"/>
      <use x="260.851562" xlink:href="#DejaVuSans-105"/>
      <use x="288.634766" xlink:href="#DejaVuSans-110"/>
      <use x="352.013672" xlink:href="#DejaVuSans-97"/>
      <use x="413.292969" xlink:href="#DejaVuSans-108"/>
     </g>
    </g>
   </g>
   <g id="text_23">
    <g id="patch_24">
     <path clip-path="url(#p23bac9a01b)" d="M 620.84747 310.53466 
L 620.84747 345.81966 
Q 620.84747 348.21966 623.24747 348.21966 
L 630.98997 348.21966 
Q 633.38997 348.21966 633.38997 345.81966 
L 633.38997 310.53466 
Q 633.38997 308.13466 630.98997 308.13466 
L 623.24747 308.13466 
Q 620.84747 308.13466 620.84747 310.53466 
z
" style="fill:#ffffff;stroke:#ffffff;stroke-linejoin:miter;"/>
    </g>
    <g clip-path="url(#p23bac9a01b)">
     <!-- Terminal -->
     <g transform="translate(624.91122 310.53466)rotate(-270)scale(0.08 -0.08)">
      <use xlink:href="#DejaVuSans-84"/>
      <use x="60.818359" xlink:href="#DejaVuSans-101"/>
      <use x="122.341797" xlink:href="#DejaVuSans-114"/>
      <use x="163.439453" xlink:href="#DejaVuSans-109"/>
      <use x="260.851562" xlink:href="#DejaVuSans-105"/>
      <use x="288.634766" xlink:href="#DejaVuSans-110"/>
      <use x="352.013672" xlink:href="#DejaVuSans-97"/>
      <use x="413.292969" xlink:href="#DejaVuSans-108"/>
     </g>
    </g>
   </g>
   <g id="text_24">
    <g id="patch_25">
     <path clip-path="url(#p23bac9a01b)" d="M 208.999978 279.713489 
L 212.398278 275.971219 
Q 214.011714 274.194474 212.234969 272.581038 
L 206.503115 267.376025 
Q 204.72637 265.762589 203.112934 267.539334 
L 199.714633 271.281603 
Q 198.101197 273.058348 199.877942 274.671785 
L 205.609796 279.876797 
Q 207.386541 281.490234 208.999978 279.713489 
z
" style="fill:#ffffff;stroke:#ffffff;stroke-linejoin:miter;"/>
    </g>
    <g clip-path="url(#p23bac9a01b)">
     <!-- E -->
     <g transform="translate(205.991541 276.981571)rotate(-47.757871)scale(0.08 -0.08)">
      <use xlink:href="#DejaVuSans-69"/>
     </g>
    </g>
   </g>
   <g id="text_25">
    <g id="patch_26">
     <path clip-path="url(#p23bac9a01b)" d="M 224.553574 270.833286 
L 224.553574 276.419536 
Q 224.553574 278.819536 226.953574 278.819536 
L 234.696074 278.819536 
Q 237.096074 278.819536 237.096074 276.419536 
L 237.096074 270.833286 
Q 237.096074 268.433286 234.696074 268.433286 
L 226.953574 268.433286 
Q 224.553574 268.433286 224.553574 270.833286 
z
" style="fill:#ffffff;stroke:#ffffff;stroke-linejoin:miter;"/>
    </g>
    <g clip-path="url(#p23bac9a01b)">
     <!-- C -->
     <g transform="translate(228.617324 270.833286)rotate(-270)scale(0.08 -0.08)">
      <use xlink:href="#DejaVuSans-67"/>
     </g>
    </g>
   </g>
   <g id="text_26">
    <g id="patch_27">
     <path clip-path="url(#p23bac9a01b)" d="M 249.082044 275.784753 
L 252.818997 279.899954 
Q 254.432434 281.676699 256.209179 280.063263 
L 261.941033 274.85825 
Q 263.717778 273.244814 262.104342 271.468069 
L 258.367388 267.352868 
Q 256.753952 265.576123 254.977206 267.189559 
L 249.245353 272.394572 
Q 247.468607 274.008008 249.082044 275.784753 
z
" style="fill:#ffffff;stroke:#ffffff;stroke-linejoin:miter;"/>
    </g>
    <g clip-path="url(#p23bac9a01b)">
     <!-- R -->
     <g transform="translate(252.09048 273.052836)rotate(-312.242129)scale(0.08 -0.08)">
      <use xlink:href="#DejaVuSans-82"/>
     </g>
    </g>
   </g>
   <g id="text_27">
    <g id="patch_28">
     <path clip-path="url(#p23bac9a01b)" d="M 323.627048 310.53466 
L 323.627048 345.81966 
Q 323.627048 348.21966 326.027048 348.21966 
L 333.769548 348.21966 
Q 336.169548 348.21966 336.169548 345.81966 
L 336.169548 310.53466 
Q 336.169548 308.13466 333.769548 308.13466 
L 326.027048 308.13466 
Q 323.627048 308.13466 323.627048 310.53466 
z
" style="fill:#ffffff;stroke:#ffffff;stroke-linejoin:miter;"/>
    </g>
    <g clip-path="url(#p23bac9a01b)">
     <!-- Terminal -->
     <g transform="translate(327.690798 310.53466)rotate(-270)scale(0.08 -0.08)">
      <use xlink:href="#DejaVuSans-84"/>
      <use x="60.818359" xlink:href="#DejaVuSans-101"/>
      <use x="122.341797" xlink:href="#DejaVuSans-114"/>
      <use x="163.439453" xlink:href="#DejaVuSans-109"/>
      <use x="260.851562" xlink:href="#DejaVuSans-105"/>
      <use x="288.634766" xlink:href="#DejaVuSans-110"/>
      <use x="352.013672" xlink:href="#DejaVuSans-97"/>
      <use x="413.292969" xlink:href="#DejaVuSans-108"/>
     </g>
    </g>
   </g>
   <g id="text_28">
    <g id="patch_29">
     <path clip-path="url(#p23bac9a01b)" d="M 175.016837 310.53466 
L 175.016837 345.81966 
Q 175.016837 348.21966 177.416837 348.21966 
L 185.159337 348.21966 
Q 187.559337 348.21966 187.559337 345.81966 
L 187.559337 310.53466 
Q 187.559337 308.13466 185.159337 308.13466 
L 177.416837 308.13466 
Q 175.016837 308.13466 175.016837 310.53466 
z
" style="fill:#ffffff;stroke:#ffffff;stroke-linejoin:miter;"/>
    </g>
    <g clip-path="url(#p23bac9a01b)">
     <!-- Terminal -->
     <g transform="translate(179.080587 310.53466)rotate(-270)scale(0.08 -0.08)">
      <use xlink:href="#DejaVuSans-84"/>
      <use x="60.818359" xlink:href="#DejaVuSans-101"/>
      <use x="122.341797" xlink:href="#DejaVuSans-114"/>
      <use x="163.439453" xlink:href="#DejaVuSans-109"/>
      <use x="260.851562" xlink:href="#DejaVuSans-105"/>
      <use x="288.634766" xlink:href="#DejaVuSans-110"/>
      <use x="352.013672" xlink:href="#DejaVuSans-97"/>
      <use x="413.292969" xlink:href="#DejaVuSans-108"/>
     </g>
    </g>
   </g>
   <g id="text_29">
    <g id="patch_30">
     <path clip-path="url(#p23bac9a01b)" d="M 224.553574 310.53466 
L 224.553574 345.81966 
Q 224.553574 348.21966 226.953574 348.21966 
L 234.696074 348.21966 
Q 237.096074 348.21966 237.096074 345.81966 
L 237.096074 310.53466 
Q 237.096074 308.13466 234.696074 308.13466 
L 226.953574 308.13466 
Q 224.553574 308.13466 224.553574 310.53466 
z
" style="fill:#ffffff;stroke:#ffffff;stroke-linejoin:miter;"/>
    </g>
    <g clip-path="url(#p23bac9a01b)">
     <!-- Terminal -->
     <g transform="translate(228.617324 310.53466)rotate(-270)scale(0.08 -0.08)">
      <use xlink:href="#DejaVuSans-84"/>
      <use x="60.818359" xlink:href="#DejaVuSans-101"/>
      <use x="122.341797" xlink:href="#DejaVuSans-114"/>
      <use x="163.439453" xlink:href="#DejaVuSans-109"/>
      <use x="260.851562" xlink:href="#DejaVuSans-105"/>
      <use x="288.634766" xlink:href="#DejaVuSans-110"/>
      <use x="352.013672" xlink:href="#DejaVuSans-97"/>
      <use x="413.292969" xlink:href="#DejaVuSans-108"/>
     </g>
    </g>
   </g>
   <g id="text_30">
    <g id="patch_31">
     <path clip-path="url(#p23bac9a01b)" d="M 274.090311 310.53466 
L 274.090311 345.81966 
Q 274.090311 348.21966 276.490311 348.21966 
L 284.232811 348.21966 
Q 286.632811 348.21966 286.632811 345.81966 
L 286.632811 310.53466 
Q 286.632811 308.13466 284.232811 308.13466 
L 276.490311 308.13466 
Q 274.090311 308.13466 274.090311 310.53466 
z
" style="fill:#ffffff;stroke:#ffffff;stroke-linejoin:miter;"/>
    </g>
    <g clip-path="url(#p23bac9a01b)">
     <!-- Terminal -->
     <g transform="translate(278.154061 310.53466)rotate(-270)scale(0.08 -0.08)">
      <use xlink:href="#DejaVuSans-84"/>
      <use x="60.818359" xlink:href="#DejaVuSans-101"/>
      <use x="122.341797" xlink:href="#DejaVuSans-114"/>
      <use x="163.439453" xlink:href="#DejaVuSans-109"/>
      <use x="260.851562" xlink:href="#DejaVuSans-105"/>
      <use x="288.634766" xlink:href="#DejaVuSans-110"/>
      <use x="352.013672" xlink:href="#DejaVuSans-97"/>
      <use x="413.292969" xlink:href="#DejaVuSans-108"/>
     </g>
    </g>
   </g>
   <g id="text_31">
    <g id="patch_32">
     <path clip-path="url(#p23bac9a01b)" d="M 26.406626 310.53466 
L 26.406626 345.81966 
Q 26.406626 348.21966 28.806626 348.21966 
L 36.549126 348.21966 
Q 38.949126 348.21966 38.949126 345.81966 
L 38.949126 310.53466 
Q 38.949126 308.13466 36.549126 308.13466 
L 28.806626 308.13466 
Q 26.406626 308.13466 26.406626 310.53466 
z
" style="fill:#ffffff;stroke:#ffffff;stroke-linejoin:miter;"/>
    </g>
    <g clip-path="url(#p23bac9a01b)">
     <!-- Terminal -->
     <g transform="translate(30.470376 310.53466)rotate(-270)scale(0.08 -0.08)">
      <use xlink:href="#DejaVuSans-84"/>
      <use x="60.818359" xlink:href="#DejaVuSans-101"/>
      <use x="122.341797" xlink:href="#DejaVuSans-114"/>
      <use x="163.439453" xlink:href="#DejaVuSans-109"/>
      <use x="260.851562" xlink:href="#DejaVuSans-105"/>
      <use x="288.634766" xlink:href="#DejaVuSans-110"/>
      <use x="352.013672" xlink:href="#DejaVuSans-97"/>
      <use x="413.292969" xlink:href="#DejaVuSans-108"/>
     </g>
    </g>
   </g>
   <g id="text_32">
    <g id="patch_33">
     <path clip-path="url(#p23bac9a01b)" d="M 75.943363 310.53466 
L 75.943363 345.81966 
Q 75.943363 348.21966 78.343363 348.21966 
L 86.085863 348.21966 
Q 88.485863 348.21966 88.485863 345.81966 
L 88.485863 310.53466 
Q 88.485863 308.13466 86.085863 308.13466 
L 78.343363 308.13466 
Q 75.943363 308.13466 75.943363 310.53466 
z
" style="fill:#ffffff;stroke:#ffffff;stroke-linejoin:miter;"/>
    </g>
    <g clip-path="url(#p23bac9a01b)">
     <!-- Terminal -->
     <g transform="translate(80.007113 310.53466)rotate(-270)scale(0.08 -0.08)">
      <use xlink:href="#DejaVuSans-84"/>
      <use x="60.818359" xlink:href="#DejaVuSans-101"/>
      <use x="122.341797" xlink:href="#DejaVuSans-114"/>
      <use x="163.439453" xlink:href="#DejaVuSans-109"/>
      <use x="260.851562" xlink:href="#DejaVuSans-105"/>
      <use x="288.634766" xlink:href="#DejaVuSans-110"/>
      <use x="352.013672" xlink:href="#DejaVuSans-97"/>
      <use x="413.292969" xlink:href="#DejaVuSans-108"/>
     </g>
    </g>
   </g>
   <g id="text_33">
    <g id="patch_34">
     <path clip-path="url(#p23bac9a01b)" d="M 373.163785 310.53466 
L 373.163785 345.81966 
Q 373.163785 348.21966 375.563785 348.21966 
L 383.306285 348.21966 
Q 385.706285 348.21966 385.706285 345.81966 
L 385.706285 310.53466 
Q 385.706285 308.13466 383.306285 308.13466 
L 375.563785 308.13466 
Q 373.163785 308.13466 373.163785 310.53466 
z
" style="fill:#ffffff;stroke:#ffffff;stroke-linejoin:miter;"/>
    </g>
    <g clip-path="url(#p23bac9a01b)">
     <!-- Terminal -->
     <g transform="translate(377.227535 310.53466)rotate(-270)scale(0.08 -0.08)">
      <use xlink:href="#DejaVuSans-84"/>
      <use x="60.818359" xlink:href="#DejaVuSans-101"/>
      <use x="122.341797" xlink:href="#DejaVuSans-114"/>
      <use x="163.439453" xlink:href="#DejaVuSans-109"/>
      <use x="260.851562" xlink:href="#DejaVuSans-105"/>
      <use x="288.634766" xlink:href="#DejaVuSans-110"/>
      <use x="352.013672" xlink:href="#DejaVuSans-97"/>
      <use x="413.292969" xlink:href="#DejaVuSans-108"/>
     </g>
    </g>
   </g>
   <g id="text_34">
    <g id="patch_35">
     <path clip-path="url(#p23bac9a01b)" d="M 670.384207 310.53466 
L 670.384207 345.81966 
Q 670.384207 348.21966 672.784207 348.21966 
L 680.526707 348.21966 
Q 682.926707 348.21966 682.926707 345.81966 
L 682.926707 310.53466 
Q 682.926707 308.13466 680.526707 308.13466 
L 672.784207 308.13466 
Q 670.384207 308.13466 670.384207 310.53466 
z
" style="fill:#ffffff;stroke:#ffffff;stroke-linejoin:miter;"/>
    </g>
    <g clip-path="url(#p23bac9a01b)">
     <!-- Terminal -->
     <g transform="translate(674.447957 310.53466)rotate(-270)scale(0.08 -0.08)">
      <use xlink:href="#DejaVuSans-84"/>
      <use x="60.818359" xlink:href="#DejaVuSans-101"/>
      <use x="122.341797" xlink:href="#DejaVuSans-114"/>
      <use x="163.439453" xlink:href="#DejaVuSans-109"/>
      <use x="260.851562" xlink:href="#DejaVuSans-105"/>
      <use x="288.634766" xlink:href="#DejaVuSans-110"/>
      <use x="352.013672" xlink:href="#DejaVuSans-97"/>
      <use x="413.292969" xlink:href="#DejaVuSans-108"/>
     </g>
    </g>
   </g>
   <g id="PathCollection_1">
    <defs>
     <path d="M 0 8.660254 
C 2.296726 8.660254 4.499694 7.747755 6.123724 6.123724 
C 7.747755 4.499694 8.660254 2.296726 8.660254 0 
C 8.660254 -2.296726 7.747755 -4.499694 6.123724 -6.123724 
C 4.499694 -7.747755 2.296726 -8.660254 0 -8.660254 
C -2.296726 -8.660254 -4.499694 -7.747755 -6.123724 -6.123724 
C -7.747755 -4.499694 -8.660254 -2.296726 -8.660254 0 
C -8.660254 2.296726 -7.747755 4.499694 -6.123724 6.123724 
C -4.499694 7.747755 -2.296726 8.660254 0 8.660254 
z
" id="C0_0_3487f2b0af"/>
    </defs>
    <g clip-path="url(#p23bac9a01b)">
     <use style="fill:#ffffff;stroke:#ffffff;" x="32.677876" xlink:href="#C0_0_3487f2b0af" y="355.452534"/>
    </g>
    <g clip-path="url(#p23bac9a01b)">
     <use style="fill:#ffffff;stroke:#ffffff;" x="82.214613" xlink:href="#C0_0_3487f2b0af" y="355.452534"/>
    </g>
    <g clip-path="url(#p23bac9a01b)">
     <use style="fill:#ffffff;stroke:#ffffff;" x="131.75135" xlink:href="#C0_0_3487f2b0af" y="355.452534"/>
    </g>
    <g clip-path="url(#p23bac9a01b)">
     <use style="fill:#ffffff;stroke:#ffffff;" x="181.288087" xlink:href="#C0_0_3487f2b0af" y="355.452534"/>
    </g>
    <g clip-path="url(#p23bac9a01b)">
     <use style="fill:#ffffff;stroke:#ffffff;" x="230.824824" xlink:href="#C0_0_3487f2b0af" y="355.452534"/>
    </g>
    <g clip-path="url(#p23bac9a01b)">
     <use style="fill:#ffffff;stroke:#ffffff;" x="280.361561" xlink:href="#C0_0_3487f2b0af" y="355.452534"/>
    </g>
    <g clip-path="url(#p23bac9a01b)">
     <use style="fill:#ffffff;stroke:#ffffff;" x="329.898298" xlink:href="#C0_0_3487f2b0af" y="355.452534"/>
    </g>
    <g clip-path="url(#p23bac9a01b)">
     <use style="fill:#ffffff;stroke:#ffffff;" x="379.435035" xlink:href="#C0_0_3487f2b0af" y="355.452534"/>
    </g>
    <g clip-path="url(#p23bac9a01b)">
     <use style="fill:#ffffff;stroke:#ffffff;" x="428.971772" xlink:href="#C0_0_3487f2b0af" y="355.452534"/>
    </g>
    <g clip-path="url(#p23bac9a01b)">
     <use style="fill:#ffffff;stroke:#ffffff;" x="478.508509" xlink:href="#C0_0_3487f2b0af" y="355.452534"/>
    </g>
    <g clip-path="url(#p23bac9a01b)">
     <use style="fill:#ffffff;stroke:#ffffff;" x="528.045246" xlink:href="#C0_0_3487f2b0af" y="355.452534"/>
    </g>
    <g clip-path="url(#p23bac9a01b)">
     <use style="fill:#ffffff;stroke:#ffffff;" x="577.581983" xlink:href="#C0_0_3487f2b0af" y="355.452534"/>
    </g>
    <g clip-path="url(#p23bac9a01b)">
     <use style="fill:#ffffff;stroke:#ffffff;" x="627.11872" xlink:href="#C0_0_3487f2b0af" y="355.452534"/>
    </g>
    <g clip-path="url(#p23bac9a01b)">
     <use style="fill:#ffffff;stroke:#ffffff;" x="676.655457" xlink:href="#C0_0_3487f2b0af" y="355.452534"/>
    </g>
    <g clip-path="url(#p23bac9a01b)">
     <use style="fill:#ffffff;stroke:#ffffff;" x="201.928394" xlink:href="#C0_0_3487f2b0af" y="17.880799"/>
    </g>
    <g clip-path="url(#p23bac9a01b)">
     <use style="fill:#ffffff;stroke:#ffffff;" x="201.928394" xlink:href="#C0_0_3487f2b0af" y="77.007642"/>
    </g>
    <g clip-path="url(#p23bac9a01b)">
     <use style="fill:#ffffff;stroke:#ffffff;" x="57.446245" xlink:href="#C0_0_3487f2b0af" y="246.351037"/>
    </g>
    <g clip-path="url(#p23bac9a01b)">
     <use style="fill:#ffffff;stroke:#ffffff;" x="131.75135" xlink:href="#C0_0_3487f2b0af" y="300.901786"/>
    </g>
    <g clip-path="url(#p23bac9a01b)">
     <use style="fill:#ffffff;stroke:#ffffff;" x="416.587588" xlink:href="#C0_0_3487f2b0af" y="134.666789"/>
    </g>
    <g clip-path="url(#p23bac9a01b)">
     <use style="fill:#ffffff;stroke:#ffffff;" x="280.361561" xlink:href="#C0_0_3487f2b0af" y="191.041427"/>
    </g>
    <g clip-path="url(#p23bac9a01b)">
     <use style="fill:#ffffff;stroke:#ffffff;" x="428.971772" xlink:href="#C0_0_3487f2b0af" y="300.901786"/>
    </g>
    <g clip-path="url(#p23bac9a01b)">
     <use style="fill:#ffffff;stroke:#ffffff;" x="577.581983" xlink:href="#C0_0_3487f2b0af" y="246.351037"/>
    </g>
    <g clip-path="url(#p23bac9a01b)">
     <use style="fill:#ffffff;stroke:#ffffff;" x="478.508509" xlink:href="#C0_0_3487f2b0af" y="300.901786"/>
    </g>
    <g clip-path="url(#p23bac9a01b)">
     <use style="fill:#ffffff;stroke:#ffffff;" x="528.045246" xlink:href="#C0_0_3487f2b0af" y="300.901786"/>
    </g>
    <g clip-path="url(#p23bac9a01b)">
     <use style="fill:#ffffff;stroke:#ffffff;" x="577.581983" xlink:href="#C0_0_3487f2b0af" y="300.901786"/>
    </g>
    <g clip-path="url(#p23bac9a01b)">
     <use style="fill:#ffffff;stroke:#ffffff;" x="627.11872" xlink:href="#C0_0_3487f2b0af" y="300.901786"/>
    </g>
    <g clip-path="url(#p23bac9a01b)">
     <use style="fill:#ffffff;stroke:#ffffff;" x="230.824824" xlink:href="#C0_0_3487f2b0af" y="246.351037"/>
    </g>
    <g clip-path="url(#p23bac9a01b)">
     <use style="fill:#ffffff;stroke:#ffffff;" x="329.898298" xlink:href="#C0_0_3487f2b0af" y="300.901786"/>
    </g>
    <g clip-path="url(#p23bac9a01b)">
     <use style="fill:#ffffff;stroke:#ffffff;" x="181.288087" xlink:href="#C0_0_3487f2b0af" y="300.901786"/>
    </g>
    <g clip-path="url(#p23bac9a01b)">
     <use style="fill:#ffffff;stroke:#ffffff;" x="230.824824" xlink:href="#C0_0_3487f2b0af" y="300.901786"/>
    </g>
    <g clip-path="url(#p23bac9a01b)">
     <use style="fill:#ffffff;stroke:#ffffff;" x="280.361561" xlink:href="#C0_0_3487f2b0af" y="300.901786"/>
    </g>
    <g clip-path="url(#p23bac9a01b)">
     <use style="fill:#ffffff;stroke:#ffffff;" x="32.677876" xlink:href="#C0_0_3487f2b0af" y="300.901786"/>
    </g>
    <g clip-path="url(#p23bac9a01b)">
     <use style="fill:#ffffff;stroke:#ffffff;" x="82.214613" xlink:href="#C0_0_3487f2b0af" y="300.901786"/>
    </g>
    <g clip-path="url(#p23bac9a01b)">
     <use style="fill:#ffffff;stroke:#ffffff;" x="379.435035" xlink:href="#C0_0_3487f2b0af" y="300.901786"/>
    </g>
    <g clip-path="url(#p23bac9a01b)">
     <use style="fill:#ffffff;stroke:#ffffff;" x="676.655457" xlink:href="#C0_0_3487f2b0af" y="300.901786"/>
    </g>
   </g>
   <g id="text_35">
    <g clip-path="url(#p23bac9a01b)">
     <!-- Huge -->
     <defs>
      <path d="M 8.5 21.578125 
L 8.5 54.6875 
L 17.484375 54.6875 
L 17.484375 21.921875 
Q 17.484375 14.15625 20.5 10.265625 
Q 23.53125 6.390625 29.59375 6.390625 
Q 36.859375 6.390625 41.078125 11.03125 
Q 45.3125 15.671875 45.3125 23.6875 
L 45.3125 54.6875 
L 54.296875 54.6875 
L 54.296875 0 
L 45.3125 0 
L 45.3125 8.40625 
Q 42.046875 3.421875 37.71875 1 
Q 33.40625 -1.421875 27.6875 -1.421875 
Q 18.265625 -1.421875 13.375 4.4375 
Q 8.5 10.296875 8.5 21.578125 
z
M 31.109375 56 
z
" id="DejaVuSans-117"/>
      <path d="M 45.40625 27.984375 
Q 45.40625 37.75 41.375 43.109375 
Q 37.359375 48.484375 30.078125 48.484375 
Q 22.859375 48.484375 18.828125 43.109375 
Q 14.796875 37.75 14.796875 27.984375 
Q 14.796875 18.265625 18.828125 12.890625 
Q 22.859375 7.515625 30.078125 7.515625 
Q 37.359375 7.515625 41.375 12.890625 
Q 45.40625 18.265625 45.40625 27.984375 
z
M 54.390625 6.78125 
Q 54.390625 -7.171875 48.1875 -13.984375 
Q 42 -20.796875 29.203125 -20.796875 
Q 24.46875 -20.796875 20.265625 -20.09375 
Q 16.0625 -19.390625 12.109375 -17.921875 
L 12.109375 -9.1875 
Q 16.0625 -11.328125 19.921875 -12.34375 
Q 23.78125 -13.375 27.78125 -13.375 
Q 36.625 -13.375 41.015625 -8.765625 
Q 45.40625 -4.15625 45.40625 5.171875 
L 45.40625 9.625 
Q 42.625 4.78125 38.28125 2.390625 
Q 33.9375 0 27.875 0 
Q 17.828125 0 11.671875 7.65625 
Q 5.515625 15.328125 5.515625 27.984375 
Q 5.515625 40.671875 11.671875 48.328125 
Q 17.828125 56 27.875 56 
Q 33.9375 56 38.28125 53.609375 
Q 42.625 51.21875 45.40625 46.390625 
L 45.40625 54.6875 
L 54.390625 54.6875 
z
" id="DejaVuSans-103"/>
     </defs>
     <g transform="translate(19.498189 358.211909)scale(0.1 -0.1)">
      <use xlink:href="#DejaVuSans-72"/>
      <use x="75.195312" xlink:href="#DejaVuSans-117"/>
      <use x="138.574219" xlink:href="#DejaVuSans-103"/>
      <use x="202.050781" xlink:href="#DejaVuSans-101"/>
     </g>
    </g>
   </g>
   <g id="text_36">
    <g clip-path="url(#p23bac9a01b)">
     <!-- clouds -->
     <defs>
      <path d="M 48.78125 52.59375 
L 48.78125 44.1875 
Q 44.96875 46.296875 41.140625 47.34375 
Q 37.3125 48.390625 33.40625 48.390625 
Q 24.65625 48.390625 19.8125 42.84375 
Q 14.984375 37.3125 14.984375 27.296875 
Q 14.984375 17.28125 19.8125 11.734375 
Q 24.65625 6.203125 33.40625 6.203125 
Q 37.3125 6.203125 41.140625 7.25 
Q 44.96875 8.296875 48.78125 10.40625 
L 48.78125 2.09375 
Q 45.015625 0.34375 40.984375 -0.53125 
Q 36.96875 -1.421875 32.421875 -1.421875 
Q 20.0625 -1.421875 12.78125 6.34375 
Q 5.515625 14.109375 5.515625 27.296875 
Q 5.515625 40.671875 12.859375 48.328125 
Q 20.21875 56 33.015625 56 
Q 37.15625 56 41.109375 55.140625 
Q 45.0625 54.296875 48.78125 52.59375 
z
" id="DejaVuSans-99"/>
      <path d="M 30.609375 48.390625 
Q 23.390625 48.390625 19.1875 42.75 
Q 14.984375 37.109375 14.984375 27.296875 
Q 14.984375 17.484375 19.15625 11.84375 
Q 23.34375 6.203125 30.609375 6.203125 
Q 37.796875 6.203125 41.984375 11.859375 
Q 46.1875 17.53125 46.1875 27.296875 
Q 46.1875 37.015625 41.984375 42.703125 
Q 37.796875 48.390625 30.609375 48.390625 
z
M 30.609375 56 
Q 42.328125 56 49.015625 48.375 
Q 55.71875 40.765625 55.71875 27.296875 
Q 55.71875 13.875 49.015625 6.21875 
Q 42.328125 -1.421875 30.609375 -1.421875 
Q 18.84375 -1.421875 12.171875 6.21875 
Q 5.515625 13.875 5.515625 27.296875 
Q 5.515625 40.765625 12.171875 48.375 
Q 18.84375 56 30.609375 56 
z
" id="DejaVuSans-111"/>
      <path d="M 45.40625 46.390625 
L 45.40625 75.984375 
L 54.390625 75.984375 
L 54.390625 0 
L 45.40625 0 
L 45.40625 8.203125 
Q 42.578125 3.328125 38.25 0.953125 
Q 33.9375 -1.421875 27.875 -1.421875 
Q 17.96875 -1.421875 11.734375 6.484375 
Q 5.515625 14.40625 5.515625 27.296875 
Q 5.515625 40.1875 11.734375 48.09375 
Q 17.96875 56 27.875 56 
Q 33.9375 56 38.25 53.625 
Q 42.578125 51.265625 45.40625 46.390625 
z
M 14.796875 27.296875 
Q 14.796875 17.390625 18.875 11.75 
Q 22.953125 6.109375 30.078125 6.109375 
Q 37.203125 6.109375 41.296875 11.75 
Q 45.40625 17.390625 45.40625 27.296875 
Q 45.40625 37.203125 41.296875 42.84375 
Q 37.203125 48.484375 30.078125 48.484375 
Q 22.953125 48.484375 18.875 42.84375 
Q 14.796875 37.203125 14.796875 27.296875 
z
" id="DejaVuSans-100"/>
      <path d="M 44.28125 53.078125 
L 44.28125 44.578125 
Q 40.484375 46.53125 36.375 47.5 
Q 32.28125 48.484375 27.875 48.484375 
Q 21.1875 48.484375 17.84375 46.4375 
Q 14.5 44.390625 14.5 40.28125 
Q 14.5 37.15625 16.890625 35.375 
Q 19.28125 33.59375 26.515625 31.984375 
L 29.59375 31.296875 
Q 39.15625 29.25 43.1875 25.515625 
Q 47.21875 21.78125 47.21875 15.09375 
Q 47.21875 7.46875 41.1875 3.015625 
Q 35.15625 -1.421875 24.609375 -1.421875 
Q 20.21875 -1.421875 15.453125 -0.5625 
Q 10.6875 0.296875 5.421875 2 
L 5.421875 11.28125 
Q 10.40625 8.6875 15.234375 7.390625 
Q 20.0625 6.109375 24.8125 6.109375 
Q 31.15625 6.109375 34.5625 8.28125 
Q 37.984375 10.453125 37.984375 14.40625 
Q 37.984375 18.0625 35.515625 20.015625 
Q 33.0625 21.96875 24.703125 23.78125 
L 21.578125 24.515625 
Q 13.234375 26.265625 9.515625 29.90625 
Q 5.8125 33.546875 5.8125 39.890625 
Q 5.8125 47.609375 11.28125 51.796875 
Q 16.75 56 26.8125 56 
Q 31.78125 56 36.171875 55.265625 
Q 40.578125 54.546875 44.28125 53.078125 
z
" id="DejaVuSans-115"/>
     </defs>
     <g transform="translate(66.069301 358.211909)scale(0.1 -0.1)">
      <use xlink:href="#DejaVuSans-99"/>
      <use x="54.980469" xlink:href="#DejaVuSans-108"/>
      <use x="82.763672" xlink:href="#DejaVuSans-111"/>
      <use x="143.945312" xlink:href="#DejaVuSans-117"/>
      <use x="207.324219" xlink:href="#DejaVuSans-100"/>
      <use x="270.800781" xlink:href="#DejaVuSans-115"/>
     </g>
    </g>
   </g>
   <g id="text_37">
    <g clip-path="url(#p23bac9a01b)">
     <!-- covered -->
     <defs>
      <path d="M 2.984375 54.6875 
L 12.5 54.6875 
L 29.59375 8.796875 
L 46.6875 54.6875 
L 56.203125 54.6875 
L 35.6875 0 
L 23.484375 0 
z
" id="DejaVuSans-118"/>
     </defs>
     <g transform="translate(111.602131 358.211909)scale(0.1 -0.1)">
      <use xlink:href="#DejaVuSans-99"/>
      <use x="54.980469" xlink:href="#DejaVuSans-111"/>
      <use x="116.162109" xlink:href="#DejaVuSans-118"/>
      <use x="175.341797" xlink:href="#DejaVuSans-101"/>
      <use x="236.865234" xlink:href="#DejaVuSans-114"/>
      <use x="277.947266" xlink:href="#DejaVuSans-101"/>
      <use x="339.470703" xlink:href="#DejaVuSans-100"/>
     </g>
    </g>
   </g>
   <g id="text_38">
    <g clip-path="url(#p23bac9a01b)">
     <!-- the -->
     <defs>
      <path d="M 18.3125 70.21875 
L 18.3125 54.6875 
L 36.8125 54.6875 
L 36.8125 47.703125 
L 18.3125 47.703125 
L 18.3125 18.015625 
Q 18.3125 11.328125 20.140625 9.421875 
Q 21.96875 7.515625 27.59375 7.515625 
L 36.8125 7.515625 
L 36.8125 0 
L 27.59375 0 
Q 17.1875 0 13.234375 3.875 
Q 9.28125 7.765625 9.28125 18.015625 
L 9.28125 47.703125 
L 2.6875 47.703125 
L 2.6875 54.6875 
L 9.28125 54.6875 
L 9.28125 70.21875 
z
" id="DejaVuSans-116"/>
      <path d="M 54.890625 33.015625 
L 54.890625 0 
L 45.90625 0 
L 45.90625 32.71875 
Q 45.90625 40.484375 42.875 44.328125 
Q 39.84375 48.1875 33.796875 48.1875 
Q 26.515625 48.1875 22.3125 43.546875 
Q 18.109375 38.921875 18.109375 30.90625 
L 18.109375 0 
L 9.078125 0 
L 9.078125 75.984375 
L 18.109375 75.984375 
L 18.109375 46.1875 
Q 21.34375 51.125 25.703125 53.5625 
Q 30.078125 56 35.796875 56 
Q 45.21875 56 50.046875 50.171875 
Q 54.890625 44.34375 54.890625 33.015625 
z
" id="DejaVuSans-104"/>
     </defs>
     <g transform="translate(173.082618 358.211909)scale(0.1 -0.1)">
      <use xlink:href="#DejaVuSans-116"/>
      <use x="39.208984" xlink:href="#DejaVuSans-104"/>
      <use x="102.587891" xlink:href="#DejaVuSans-101"/>
     </g>
    </g>
   </g>
   <g id="text_39">
    <g clip-path="url(#p23bac9a01b)">
     <!-- moon -->
     <g transform="translate(216.667012 358.211909)scale(0.1 -0.1)">
      <use xlink:href="#DejaVuSans-109"/>
      <use x="97.412109" xlink:href="#DejaVuSans-111"/>
      <use x="158.59375" xlink:href="#DejaVuSans-111"/>
      <use x="219.775391" xlink:href="#DejaVuSans-110"/>
     </g>
    </g>
   </g>
   <g id="text_40">
    <g clip-path="url(#p23bac9a01b)">
     <!-- 's -->
     <defs>
      <path d="M 17.921875 72.90625 
L 17.921875 45.796875 
L 9.625 45.796875 
L 9.625 72.90625 
z
" id="DejaVuSans-39"/>
     </defs>
     <g transform="translate(276.382655 358.211909)scale(0.1 -0.1)">
      <use xlink:href="#DejaVuSans-39"/>
      <use x="27.490234" xlink:href="#DejaVuSans-115"/>
     </g>
    </g>
   </g>
   <g id="text_41">
    <g clip-path="url(#p23bac9a01b)">
     <!-- disk -->
     <defs>
      <path d="M 9.078125 75.984375 
L 18.109375 75.984375 
L 18.109375 31.109375 
L 44.921875 54.6875 
L 56.390625 54.6875 
L 27.390625 29.109375 
L 57.625 0 
L 45.90625 0 
L 18.109375 26.703125 
L 18.109375 0 
L 9.078125 0 
z
" id="DejaVuSans-107"/>
     </defs>
     <g transform="translate(319.835017 358.211909)scale(0.1 -0.1)">
      <use xlink:href="#DejaVuSans-100"/>
      <use x="63.476562" xlink:href="#DejaVuSans-105"/>
      <use x="91.259766" xlink:href="#DejaVuSans-115"/>
      <use x="143.359375" xlink:href="#DejaVuSans-107"/>
     </g>
    </g>
   </g>
   <g id="text_42">
    <g clip-path="url(#p23bac9a01b)">
     <!-- , -->
     <defs>
      <path d="M 11.71875 12.40625 
L 22.015625 12.40625 
L 22.015625 4 
L 14.015625 -11.625 
L 7.71875 -11.625 
L 11.71875 4 
z
" id="DejaVuSans-44"/>
     </defs>
     <g transform="translate(377.845973 358.211909)scale(0.1 -0.1)">
      <use xlink:href="#DejaVuSans-44"/>
     </g>
    </g>
   </g>
   <g id="text_43">
    <g clip-path="url(#p23bac9a01b)">
     <!-- then -->
     <g transform="translate(417.597553 358.211909)scale(0.1 -0.1)">
      <use xlink:href="#DejaVuSans-116"/>
      <use x="39.208984" xlink:href="#DejaVuSans-104"/>
      <use x="102.587891" xlink:href="#DejaVuSans-101"/>
      <use x="164.111328" xlink:href="#DejaVuSans-110"/>
     </g>
    </g>
   </g>
   <g id="text_44">
    <g clip-path="url(#p23bac9a01b)">
     <!-- in -->
     <g transform="translate(473.950697 358.211909)scale(0.1 -0.1)">
      <use xlink:href="#DejaVuSans-105"/>
      <use x="27.783203" xlink:href="#DejaVuSans-110"/>
     </g>
    </g>
   </g>
   <g id="text_45">
    <g clip-path="url(#p23bac9a01b)">
     <!-- its -->
     <g transform="translate(522.09134 358.211909)scale(0.1 -0.1)">
      <use xlink:href="#DejaVuSans-105"/>
      <use x="27.783203" xlink:href="#DejaVuSans-116"/>
      <use x="66.992188" xlink:href="#DejaVuSans-115"/>
     </g>
    </g>
   </g>
   <g id="text_46">
    <g clip-path="url(#p23bac9a01b)">
     <!-- first -->
     <defs>
      <path d="M 37.109375 75.984375 
L 37.109375 68.5 
L 28.515625 68.5 
Q 23.6875 68.5 21.796875 66.546875 
Q 19.921875 64.59375 19.921875 59.515625 
L 19.921875 54.6875 
L 34.71875 54.6875 
L 34.71875 47.703125 
L 19.921875 47.703125 
L 19.921875 0 
L 10.890625 0 
L 10.890625 47.703125 
L 2.296875 47.703125 
L 2.296875 54.6875 
L 10.890625 54.6875 
L 10.890625 58.5 
Q 10.890625 67.625 15.140625 71.796875 
Q 19.390625 75.984375 28.609375 75.984375 
z
" id="DejaVuSans-102"/>
     </defs>
     <g transform="translate(567.812452 358.211909)scale(0.1 -0.1)">
      <use xlink:href="#DejaVuSans-102"/>
      <use x="35.205078" xlink:href="#DejaVuSans-105"/>
      <use x="62.988281" xlink:href="#DejaVuSans-114"/>
      <use x="104.101562" xlink:href="#DejaVuSans-115"/>
      <use x="156.201172" xlink:href="#DejaVuSans-116"/>
     </g>
    </g>
   </g>
   <g id="text_47">
    <g clip-path="url(#p23bac9a01b)">
     <!-- quarter -->
     <defs>
      <path d="M 14.796875 27.296875 
Q 14.796875 17.390625 18.875 11.75 
Q 22.953125 6.109375 30.078125 6.109375 
Q 37.203125 6.109375 41.296875 11.75 
Q 45.40625 17.390625 45.40625 27.296875 
Q 45.40625 37.203125 41.296875 42.84375 
Q 37.203125 48.484375 30.078125 48.484375 
Q 22.953125 48.484375 18.875 42.84375 
Q 14.796875 37.203125 14.796875 27.296875 
z
M 45.40625 8.203125 
Q 42.578125 3.328125 38.25 0.953125 
Q 33.9375 -1.421875 27.875 -1.421875 
Q 17.96875 -1.421875 11.734375 6.484375 
Q 5.515625 14.40625 5.515625 27.296875 
Q 5.515625 40.1875 11.734375 48.09375 
Q 17.96875 56 27.875 56 
Q 33.9375 56 38.25 53.625 
Q 42.578125 51.265625 45.40625 46.390625 
L 45.40625 54.6875 
L 54.390625 54.6875 
L 54.390625 -20.796875 
L 45.40625 -20.796875 
z
" id="DejaVuSans-113"/>
     </defs>
     <g transform="translate(608.564033 358.211909)scale(0.1 -0.1)">
      <use xlink:href="#DejaVuSans-113"/>
      <use x="63.476562" xlink:href="#DejaVuSans-117"/>
      <use x="126.855469" xlink:href="#DejaVuSans-97"/>
      <use x="188.134766" xlink:href="#DejaVuSans-114"/>
      <use x="229.248047" xlink:href="#DejaVuSans-116"/>
      <use x="268.457031" xlink:href="#DejaVuSans-101"/>
      <use x="329.980469" xlink:href="#DejaVuSans-114"/>
     </g>
    </g>
   </g>
   <g id="text_48">
    <g clip-path="url(#p23bac9a01b)">
     <!-- . -->
     <defs>
      <path d="M 10.6875 12.40625 
L 21 12.40625 
L 21 0 
L 10.6875 0 
z
" id="DejaVuSans-46"/>
     </defs>
     <g transform="translate(675.066395 358.211909)scale(0.1 -0.1)">
      <use xlink:href="#DejaVuSans-46"/>
     </g>
    </g>
   </g>
   <g id="text_49">
    <g clip-path="url(#p23bac9a01b)">
     <!-- 1.1 -->
     <defs>
      <path d="M 12.40625 8.296875 
L 28.515625 8.296875 
L 28.515625 63.921875 
L 10.984375 60.40625 
L 10.984375 69.390625 
L 28.421875 72.90625 
L 38.28125 72.90625 
L 38.28125 8.296875 
L 54.390625 8.296875 
L 54.390625 0 
L 12.40625 0 
z
" id="DejaVuSans-49"/>
     </defs>
     <g transform="translate(193.976832 20.640174)scale(0.1 -0.1)">
      <use xlink:href="#DejaVuSans-49"/>
      <use x="63.623047" xlink:href="#DejaVuSans-46"/>
      <use x="95.410156" xlink:href="#DejaVuSans-49"/>
     </g>
    </g>
   </g>
   <g id="text_50">
    <g clip-path="url(#p23bac9a01b)">
     <!-- 1.2 -->
     <defs>
      <path d="M 19.1875 8.296875 
L 53.609375 8.296875 
L 53.609375 0 
L 7.328125 0 
L 7.328125 8.296875 
Q 12.9375 14.109375 22.625 23.890625 
Q 32.328125 33.6875 34.8125 36.53125 
Q 39.546875 41.84375 41.421875 45.53125 
Q 43.3125 49.21875 43.3125 52.78125 
Q 43.3125 58.59375 39.234375 62.25 
Q 35.15625 65.921875 28.609375 65.921875 
Q 23.96875 65.921875 18.8125 64.3125 
Q 13.671875 62.703125 7.8125 59.421875 
L 7.8125 69.390625 
Q 13.765625 71.78125 18.9375 73 
Q 24.125 74.21875 28.421875 74.21875 
Q 39.75 74.21875 46.484375 68.546875 
Q 53.21875 62.890625 53.21875 53.421875 
Q 53.21875 48.921875 51.53125 44.890625 
Q 49.859375 40.875 45.40625 35.40625 
Q 44.1875 33.984375 37.640625 27.21875 
Q 31.109375 20.453125 19.1875 8.296875 
z
" id="DejaVuSans-50"/>
     </defs>
     <g transform="translate(193.976832 79.767017)scale(0.1 -0.1)">
      <use xlink:href="#DejaVuSans-49"/>
      <use x="63.623047" xlink:href="#DejaVuSans-46"/>
      <use x="95.410156" xlink:href="#DejaVuSans-50"/>
     </g>
    </g>
   </g>
   <g id="text_51">
    <g clip-path="url(#p23bac9a01b)">
     <!-- 1.4 -->
     <defs>
      <path d="M 37.796875 64.3125 
L 12.890625 25.390625 
L 37.796875 25.390625 
z
M 35.203125 72.90625 
L 47.609375 72.90625 
L 47.609375 25.390625 
L 58.015625 25.390625 
L 58.015625 17.1875 
L 47.609375 17.1875 
L 47.609375 0 
L 37.796875 0 
L 37.796875 17.1875 
L 4.890625 17.1875 
L 4.890625 26.703125 
z
" id="DejaVuSans-52"/>
     </defs>
     <g transform="translate(49.494682 249.110412)scale(0.1 -0.1)">
      <use xlink:href="#DejaVuSans-49"/>
      <use x="63.623047" xlink:href="#DejaVuSans-46"/>
      <use x="95.410156" xlink:href="#DejaVuSans-52"/>
     </g>
    </g>
   </g>
   <g id="text_52">
    <g clip-path="url(#p23bac9a01b)">
     <!-- 1.5 -->
     <defs>
      <path d="M 10.796875 72.90625 
L 49.515625 72.90625 
L 49.515625 64.59375 
L 19.828125 64.59375 
L 19.828125 46.734375 
Q 21.96875 47.46875 24.109375 47.828125 
Q 26.265625 48.1875 28.421875 48.1875 
Q 40.625 48.1875 47.75 41.5 
Q 54.890625 34.8125 54.890625 23.390625 
Q 54.890625 11.625 47.5625 5.09375 
Q 40.234375 -1.421875 26.90625 -1.421875 
Q 22.3125 -1.421875 17.546875 -0.640625 
Q 12.796875 0.140625 7.71875 1.703125 
L 7.71875 11.625 
Q 12.109375 9.234375 16.796875 8.0625 
Q 21.484375 6.890625 26.703125 6.890625 
Q 35.15625 6.890625 40.078125 11.328125 
Q 45.015625 15.765625 45.015625 23.390625 
Q 45.015625 31 40.078125 35.4375 
Q 35.15625 39.890625 26.703125 39.890625 
Q 22.75 39.890625 18.8125 39.015625 
Q 14.890625 38.140625 10.796875 36.28125 
z
" id="DejaVuSans-53"/>
     </defs>
     <g transform="translate(123.799788 303.661161)scale(0.1 -0.1)">
      <use xlink:href="#DejaVuSans-49"/>
      <use x="63.623047" xlink:href="#DejaVuSans-46"/>
      <use x="95.410156" xlink:href="#DejaVuSans-53"/>
     </g>
    </g>
   </g>
   <g id="text_53">
    <g clip-path="url(#p23bac9a01b)">
     <!-- 1.6 -->
     <defs>
      <path d="M 33.015625 40.375 
Q 26.375 40.375 22.484375 35.828125 
Q 18.609375 31.296875 18.609375 23.390625 
Q 18.609375 15.53125 22.484375 10.953125 
Q 26.375 6.390625 33.015625 6.390625 
Q 39.65625 6.390625 43.53125 10.953125 
Q 47.40625 15.53125 47.40625 23.390625 
Q 47.40625 31.296875 43.53125 35.828125 
Q 39.65625 40.375 33.015625 40.375 
z
M 52.59375 71.296875 
L 52.59375 62.3125 
Q 48.875 64.0625 45.09375 64.984375 
Q 41.3125 65.921875 37.59375 65.921875 
Q 27.828125 65.921875 22.671875 59.328125 
Q 17.53125 52.734375 16.796875 39.40625 
Q 19.671875 43.65625 24.015625 45.921875 
Q 28.375 48.1875 33.59375 48.1875 
Q 44.578125 48.1875 50.953125 41.515625 
Q 57.328125 34.859375 57.328125 23.390625 
Q 57.328125 12.15625 50.6875 5.359375 
Q 44.046875 -1.421875 33.015625 -1.421875 
Q 20.359375 -1.421875 13.671875 8.265625 
Q 6.984375 17.96875 6.984375 36.375 
Q 6.984375 53.65625 15.1875 63.9375 
Q 23.390625 74.21875 37.203125 74.21875 
Q 40.921875 74.21875 44.703125 73.484375 
Q 48.484375 72.75 52.59375 71.296875 
z
" id="DejaVuSans-54"/>
     </defs>
     <g transform="translate(408.636025 137.426164)scale(0.1 -0.1)">
      <use xlink:href="#DejaVuSans-49"/>
      <use x="63.623047" xlink:href="#DejaVuSans-46"/>
      <use x="95.410156" xlink:href="#DejaVuSans-54"/>
     </g>
    </g>
   </g>
   <g id="text_54">
    <g clip-path="url(#p23bac9a01b)">
     <!-- 1.7 -->
     <defs>
      <path d="M 8.203125 72.90625 
L 55.078125 72.90625 
L 55.078125 68.703125 
L 28.609375 0 
L 18.3125 0 
L 43.21875 64.59375 
L 8.203125 64.59375 
z
" id="DejaVuSans-55"/>
     </defs>
     <g transform="translate(272.409999 193.800802)scale(0.1 -0.1)">
      <use xlink:href="#DejaVuSans-49"/>
      <use x="63.623047" xlink:href="#DejaVuSans-46"/>
      <use x="95.410156" xlink:href="#DejaVuSans-55"/>
     </g>
    </g>
   </g>
   <g id="text_55">
    <g clip-path="url(#p23bac9a01b)">
     <!-- 1.8 -->
     <defs>
      <path d="M 31.78125 34.625 
Q 24.75 34.625 20.71875 30.859375 
Q 16.703125 27.09375 16.703125 20.515625 
Q 16.703125 13.921875 20.71875 10.15625 
Q 24.75 6.390625 31.78125 6.390625 
Q 38.8125 6.390625 42.859375 10.171875 
Q 46.921875 13.96875 46.921875 20.515625 
Q 46.921875 27.09375 42.890625 30.859375 
Q 38.875 34.625 31.78125 34.625 
z
M 21.921875 38.8125 
Q 15.578125 40.375 12.03125 44.71875 
Q 8.5 49.078125 8.5 55.328125 
Q 8.5 64.0625 14.71875 69.140625 
Q 20.953125 74.21875 31.78125 74.21875 
Q 42.671875 74.21875 48.875 69.140625 
Q 55.078125 64.0625 55.078125 55.328125 
Q 55.078125 49.078125 51.53125 44.71875 
Q 48 40.375 41.703125 38.8125 
Q 48.828125 37.15625 52.796875 32.3125 
Q 56.78125 27.484375 56.78125 20.515625 
Q 56.78125 9.90625 50.3125 4.234375 
Q 43.84375 -1.421875 31.78125 -1.421875 
Q 19.734375 -1.421875 13.25 4.234375 
Q 6.78125 9.90625 6.78125 20.515625 
Q 6.78125 27.484375 10.78125 32.3125 
Q 14.796875 37.15625 21.921875 38.8125 
z
M 18.3125 54.390625 
Q 18.3125 48.734375 21.84375 45.5625 
Q 25.390625 42.390625 31.78125 42.390625 
Q 38.140625 42.390625 41.71875 45.5625 
Q 45.3125 48.734375 45.3125 54.390625 
Q 45.3125 60.0625 41.71875 63.234375 
Q 38.140625 66.40625 31.78125 66.40625 
Q 25.390625 66.40625 21.84375 63.234375 
Q 18.3125 60.0625 18.3125 54.390625 
z
" id="DejaVuSans-56"/>
     </defs>
     <g transform="translate(421.02021 303.661161)scale(0.1 -0.1)">
      <use xlink:href="#DejaVuSans-49"/>
      <use x="63.623047" xlink:href="#DejaVuSans-46"/>
      <use x="95.410156" xlink:href="#DejaVuSans-56"/>
     </g>
    </g>
   </g>
   <g id="text_56">
    <g clip-path="url(#p23bac9a01b)">
     <!-- 1.9 -->
     <defs>
      <path d="M 10.984375 1.515625 
L 10.984375 10.5 
Q 14.703125 8.734375 18.5 7.8125 
Q 22.3125 6.890625 25.984375 6.890625 
Q 35.75 6.890625 40.890625 13.453125 
Q 46.046875 20.015625 46.78125 33.40625 
Q 43.953125 29.203125 39.59375 26.953125 
Q 35.25 24.703125 29.984375 24.703125 
Q 19.046875 24.703125 12.671875 31.3125 
Q 6.296875 37.9375 6.296875 49.421875 
Q 6.296875 60.640625 12.9375 67.421875 
Q 19.578125 74.21875 30.609375 74.21875 
Q 43.265625 74.21875 49.921875 64.515625 
Q 56.59375 54.828125 56.59375 36.375 
Q 56.59375 19.140625 48.40625 8.859375 
Q 40.234375 -1.421875 26.421875 -1.421875 
Q 22.703125 -1.421875 18.890625 -0.6875 
Q 15.09375 0.046875 10.984375 1.515625 
z
M 30.609375 32.421875 
Q 37.25 32.421875 41.125 36.953125 
Q 45.015625 41.5 45.015625 49.421875 
Q 45.015625 57.28125 41.125 61.84375 
Q 37.25 66.40625 30.609375 66.40625 
Q 23.96875 66.40625 20.09375 61.84375 
Q 16.21875 57.28125 16.21875 49.421875 
Q 16.21875 41.5 20.09375 36.953125 
Q 23.96875 32.421875 30.609375 32.421875 
z
" id="DejaVuSans-57"/>
     </defs>
     <g transform="translate(569.630421 249.110412)scale(0.1 -0.1)">
      <use xlink:href="#DejaVuSans-49"/>
      <use x="63.623047" xlink:href="#DejaVuSans-46"/>
      <use x="95.410156" xlink:href="#DejaVuSans-57"/>
     </g>
    </g>
   </g>
   <g id="text_57">
    <g clip-path="url(#p23bac9a01b)">
     <!-- 1.11 -->
     <g transform="translate(467.375697 303.661161)scale(0.1 -0.1)">
      <use xlink:href="#DejaVuSans-49"/>
      <use x="63.623047" xlink:href="#DejaVuSans-46"/>
      <use x="95.410156" xlink:href="#DejaVuSans-49"/>
      <use x="159.033203" xlink:href="#DejaVuSans-49"/>
     </g>
    </g>
   </g>
   <g id="text_58">
    <g clip-path="url(#p23bac9a01b)">
     <!-- 1.12 -->
     <g transform="translate(516.912434 303.661161)scale(0.1 -0.1)">
      <use xlink:href="#DejaVuSans-49"/>
      <use x="63.623047" xlink:href="#DejaVuSans-46"/>
      <use x="95.410156" xlink:href="#DejaVuSans-49"/>
      <use x="159.033203" xlink:href="#DejaVuSans-50"/>
     </g>
    </g>
   </g>
   <g id="text_59">
    <g clip-path="url(#p23bac9a01b)">
     <!-- 1.13 -->
     <defs>
      <path d="M 40.578125 39.3125 
Q 47.65625 37.796875 51.625 33 
Q 55.609375 28.21875 55.609375 21.1875 
Q 55.609375 10.40625 48.1875 4.484375 
Q 40.765625 -1.421875 27.09375 -1.421875 
Q 22.515625 -1.421875 17.65625 -0.515625 
Q 12.796875 0.390625 7.625 2.203125 
L 7.625 11.71875 
Q 11.71875 9.328125 16.59375 8.109375 
Q 21.484375 6.890625 26.8125 6.890625 
Q 36.078125 6.890625 40.9375 10.546875 
Q 45.796875 14.203125 45.796875 21.1875 
Q 45.796875 27.640625 41.28125 31.265625 
Q 36.765625 34.90625 28.71875 34.90625 
L 20.21875 34.90625 
L 20.21875 43.015625 
L 29.109375 43.015625 
Q 36.375 43.015625 40.234375 45.921875 
Q 44.09375 48.828125 44.09375 54.296875 
Q 44.09375 59.90625 40.109375 62.90625 
Q 36.140625 65.921875 28.71875 65.921875 
Q 24.65625 65.921875 20.015625 65.03125 
Q 15.375 64.15625 9.8125 62.3125 
L 9.8125 71.09375 
Q 15.4375 72.65625 20.34375 73.4375 
Q 25.25 74.21875 29.59375 74.21875 
Q 40.828125 74.21875 47.359375 69.109375 
Q 53.90625 64.015625 53.90625 55.328125 
Q 53.90625 49.265625 50.4375 45.09375 
Q 46.96875 40.921875 40.578125 39.3125 
z
" id="DejaVuSans-51"/>
     </defs>
     <g transform="translate(566.449171 303.661161)scale(0.1 -0.1)">
      <use xlink:href="#DejaVuSans-49"/>
      <use x="63.623047" xlink:href="#DejaVuSans-46"/>
      <use x="95.410156" xlink:href="#DejaVuSans-49"/>
      <use x="159.033203" xlink:href="#DejaVuSans-51"/>
     </g>
    </g>
   </g>
   <g id="text_60">
    <g clip-path="url(#p23bac9a01b)">
     <!-- 1.14 -->
     <g transform="translate(615.985908 303.661161)scale(0.1 -0.1)">
      <use xlink:href="#DejaVuSans-49"/>
      <use x="63.623047" xlink:href="#DejaVuSans-46"/>
      <use x="95.410156" xlink:href="#DejaVuSans-49"/>
      <use x="159.033203" xlink:href="#DejaVuSans-52"/>
     </g>
    </g>
   </g>
   <g id="text_61">
    <g clip-path="url(#p23bac9a01b)">
     <!-- 1.15 -->
     <g transform="translate(219.692012 249.110412)scale(0.1 -0.1)">
      <use xlink:href="#DejaVuSans-49"/>
      <use x="63.623047" xlink:href="#DejaVuSans-46"/>
      <use x="95.410156" xlink:href="#DejaVuSans-49"/>
      <use x="159.033203" xlink:href="#DejaVuSans-53"/>
     </g>
    </g>
   </g>
   <g id="text_62">
    <g clip-path="url(#p23bac9a01b)">
     <!-- 1.16 -->
     <g transform="translate(318.765486 303.661161)scale(0.1 -0.1)">
      <use xlink:href="#DejaVuSans-49"/>
      <use x="63.623047" xlink:href="#DejaVuSans-46"/>
      <use x="95.410156" xlink:href="#DejaVuSans-49"/>
      <use x="159.033203" xlink:href="#DejaVuSans-54"/>
     </g>
    </g>
   </g>
   <g id="text_63">
    <g clip-path="url(#p23bac9a01b)">
     <!-- 1.17 -->
     <g transform="translate(170.155275 303.661161)scale(0.1 -0.1)">
      <use xlink:href="#DejaVuSans-49"/>
      <use x="63.623047" xlink:href="#DejaVuSans-46"/>
      <use x="95.410156" xlink:href="#DejaVuSans-49"/>
      <use x="159.033203" xlink:href="#DejaVuSans-55"/>
     </g>
    </g>
   </g>
   <g id="text_64">
    <g clip-path="url(#p23bac9a01b)">
     <!-- 1.18 -->
     <g transform="translate(219.692012 303.661161)scale(0.1 -0.1)">
      <use xlink:href="#DejaVuSans-49"/>
      <use x="63.623047" xlink:href="#DejaVuSans-46"/>
      <use x="95.410156" xlink:href="#DejaVuSans-49"/>
      <use x="159.033203" xlink:href="#DejaVuSans-56"/>
     </g>
    </g>
   </g>
   <g id="text_65">
    <g clip-path="url(#p23bac9a01b)">
     <!-- 1.19 -->
     <g transform="translate(269.228749 303.661161)scale(0.1 -0.1)">
      <use xlink:href="#DejaVuSans-49"/>
      <use x="63.623047" xlink:href="#DejaVuSans-46"/>
      <use x="95.410156" xlink:href="#DejaVuSans-49"/>
      <use x="159.033203" xlink:href="#DejaVuSans-57"/>
     </g>
    </g>
   </g>
   <g id="text_66">
    <g clip-path="url(#p23bac9a01b)">
     <!-- 1.20 -->
     <defs>
      <path d="M 31.78125 66.40625 
Q 24.171875 66.40625 20.328125 58.90625 
Q 16.5 51.421875 16.5 36.375 
Q 16.5 21.390625 20.328125 13.890625 
Q 24.171875 6.390625 31.78125 6.390625 
Q 39.453125 6.390625 43.28125 13.890625 
Q 47.125 21.390625 47.125 36.375 
Q 47.125 51.421875 43.28125 58.90625 
Q 39.453125 66.40625 31.78125 66.40625 
z
M 31.78125 74.21875 
Q 44.046875 74.21875 50.515625 64.515625 
Q 56.984375 54.828125 56.984375 36.375 
Q 56.984375 17.96875 50.515625 8.265625 
Q 44.046875 -1.421875 31.78125 -1.421875 
Q 19.53125 -1.421875 13.0625 8.265625 
Q 6.59375 17.96875 6.59375 36.375 
Q 6.59375 54.828125 13.0625 64.515625 
Q 19.53125 74.21875 31.78125 74.21875 
z
" id="DejaVuSans-48"/>
     </defs>
     <g transform="translate(21.545064 303.661161)scale(0.1 -0.1)">
      <use xlink:href="#DejaVuSans-49"/>
      <use x="63.623047" xlink:href="#DejaVuSans-46"/>
      <use x="95.410156" xlink:href="#DejaVuSans-50"/>
      <use x="159.033203" xlink:href="#DejaVuSans-48"/>
     </g>
    </g>
   </g>
   <g id="text_67">
    <g clip-path="url(#p23bac9a01b)">
     <!-- 1.21 -->
     <g transform="translate(71.081801 303.661161)scale(0.1 -0.1)">
      <use xlink:href="#DejaVuSans-49"/>
      <use x="63.623047" xlink:href="#DejaVuSans-46"/>
      <use x="95.410156" xlink:href="#DejaVuSans-50"/>
      <use x="159.033203" xlink:href="#DejaVuSans-49"/>
     </g>
    </g>
   </g>
   <g id="text_68">
    <g clip-path="url(#p23bac9a01b)">
     <!-- 1.22 -->
     <g transform="translate(368.302223 303.661161)scale(0.1 -0.1)">
      <use xlink:href="#DejaVuSans-49"/>
      <use x="63.623047" xlink:href="#DejaVuSans-46"/>
      <use x="95.410156" xlink:href="#DejaVuSans-50"/>
      <use x="159.033203" xlink:href="#DejaVuSans-50"/>
     </g>
    </g>
   </g>
   <g id="text_69">
    <g clip-path="url(#p23bac9a01b)">
     <!-- 1.23 -->
     <g transform="translate(665.522645 303.661161)scale(0.1 -0.1)">
      <use xlink:href="#DejaVuSans-49"/>
      <use x="63.623047" xlink:href="#DejaVuSans-46"/>
      <use x="95.410156" xlink:href="#DejaVuSans-50"/>
      <use x="159.033203" xlink:href="#DejaVuSans-51"/>
     </g>
    </g>
   </g>
  </g>
 </g>
 <defs>
  <clipPath id="p23bac9a01b">
   <rect height="373.333333" width="709.333333" x="0" y="0"/>
  </clipPath>
 </defs>
</svg>
