<?xml version="1.0" encoding="utf-8" standalone="no"?>
<!DOCTYPE svg PUBLIC "-//W3C//DTD SVG 1.1//EN"
  "http://www.w3.org/Graphics/SVG/1.1/DTD/svg11.dtd">
<!-- Created with matplotlib (https://matplotlib.org/) -->
<svg height="293.333333pt" version="1.1" viewBox="0 0 557.333333 293.333333" width="557.333333pt" xmlns="http://www.w3.org/2000/svg" xmlns:xlink="http://www.w3.org/1999/xlink">
 <defs>
  <style type="text/css">
*{stroke-linecap:butt;stroke-linejoin:round;}
  </style>
 </defs>
 <g id="figure_1">
  <g id="patch_1">
   <path d="M 0 293.333333 
L 557.333333 293.333333 
L 557.333333 0 
L 0 0 
z
" style="fill:#ffffff;"/>
  </g>
  <g id="axes_1">
   <g id="LineCollection_1">
    <path clip-path="url(#pcfc6d02818)" d="M 179.244687 14.434694 
L 179.244687 69.198728 
" style="fill:none;stroke:#000000;"/>
    <path clip-path="url(#pcfc6d02818)" d="M 179.244687 69.198728 
L 25.898921 227.086928 
" style="fill:none;stroke:#000000;"/>
    <path clip-path="url(#pcfc6d02818)" d="M 179.244687 69.198728 
L 76.45247 227.086928 
" style="fill:none;stroke:#000000;"/>
    <path clip-path="url(#pcfc6d02818)" d="M 179.244687 69.198728 
L 127.006019 227.086928 
" style="fill:none;stroke:#000000;"/>
    <path clip-path="url(#pcfc6d02818)" d="M 179.244687 69.198728 
L 236.538709 122.742749 
" style="fill:none;stroke:#000000;"/>
    <path clip-path="url(#pcfc6d02818)" d="M 179.244687 69.198728 
L 430.327314 175.275218 
" style="fill:none;stroke:#000000;"/>
    <path clip-path="url(#pcfc6d02818)" d="M 25.898921 227.086928 
L 25.898921 278.898639 
" style="fill:none;stroke:#000000;"/>
    <path clip-path="url(#pcfc6d02818)" d="M 76.45247 227.086928 
L 76.45247 278.898639 
" style="fill:none;stroke:#000000;"/>
    <path clip-path="url(#pcfc6d02818)" d="M 127.006019 227.086928 
L 127.006019 278.898639 
" style="fill:none;stroke:#000000;"/>
    <path clip-path="url(#pcfc6d02818)" d="M 236.538709 122.742749 
L 177.559568 227.086928 
" style="fill:none;stroke:#000000;"/>
    <path clip-path="url(#pcfc6d02818)" d="M 236.538709 122.742749 
L 253.389892 175.275218 
" style="fill:none;stroke:#000000;"/>
    <path clip-path="url(#pcfc6d02818)" d="M 236.538709 122.742749 
L 278.666667 227.086928 
" style="fill:none;stroke:#000000;"/>
    <path clip-path="url(#pcfc6d02818)" d="M 430.327314 175.275218 
L 329.220216 227.086928 
" style="fill:none;stroke:#000000;"/>
    <path clip-path="url(#pcfc6d02818)" d="M 430.327314 175.275218 
L 379.773765 227.086928 
" style="fill:none;stroke:#000000;"/>
    <path clip-path="url(#pcfc6d02818)" d="M 430.327314 175.275218 
L 430.327314 227.086928 
" style="fill:none;stroke:#000000;"/>
    <path clip-path="url(#pcfc6d02818)" d="M 430.327314 175.275218 
L 480.880863 227.086928 
" style="fill:none;stroke:#000000;"/>
    <path clip-path="url(#pcfc6d02818)" d="M 430.327314 175.275218 
L 531.434413 227.086928 
" style="fill:none;stroke:#000000;"/>
    <path clip-path="url(#pcfc6d02818)" d="M 329.220216 227.086928 
L 329.220216 278.898639 
" style="fill:none;stroke:#000000;"/>
    <path clip-path="url(#pcfc6d02818)" d="M 379.773765 227.086928 
L 379.773765 278.898639 
" style="fill:none;stroke:#000000;"/>
    <path clip-path="url(#pcfc6d02818)" d="M 430.327314 227.086928 
L 430.327314 278.898639 
" style="fill:none;stroke:#000000;"/>
    <path clip-path="url(#pcfc6d02818)" d="M 480.880863 227.086928 
L 480.880863 278.898639 
" style="fill:none;stroke:#000000;"/>
    <path clip-path="url(#pcfc6d02818)" d="M 177.559568 227.086928 
L 177.559568 278.898639 
" style="fill:none;stroke:#000000;"/>
    <path clip-path="url(#pcfc6d02818)" d="M 253.389892 175.275218 
L 278.666667 227.086928 
" style="fill:none;stroke:#000000;stroke-dasharray:3.7,1.6;stroke-dashoffset:0;"/>
    <path clip-path="url(#pcfc6d02818)" d="M 253.389892 175.275218 
L 228.113117 227.086928 
" style="fill:none;stroke:#000000;"/>
    <path clip-path="url(#pcfc6d02818)" d="M 278.666667 227.086928 
L 278.666667 278.898639 
" style="fill:none;stroke:#000000;"/>
    <path clip-path="url(#pcfc6d02818)" d="M 228.113117 227.086928 
L 228.113117 278.898639 
" style="fill:none;stroke:#000000;"/>
    <path clip-path="url(#pcfc6d02818)" d="M 531.434413 227.086928 
L 531.434413 278.898639 
" style="fill:none;stroke:#000000;"/>
   </g>
   <g id="text_1">
    <g id="patch_2">
     <path clip-path="url(#pcfc6d02818)" d="M 172.973437 38.808586 
L 172.973437 44.824836 
Q 172.973437 47.224836 175.373437 47.224836 
L 183.115937 47.224836 
Q 185.515937 47.224836 185.515937 44.824836 
L 185.515937 38.808586 
Q 185.515937 36.408586 183.115937 36.408586 
L 175.373437 36.408586 
Q 172.973437 36.408586 172.973437 38.808586 
z
" style="fill:#ffffff;stroke:#ffffff;stroke-linejoin:miter;"/>
    </g>
    <g clip-path="url(#pcfc6d02818)">
     <!-- H -->
     <defs>
      <path d="M 9.8125 72.90625 
L 19.671875 72.90625 
L 19.671875 43.015625 
L 55.515625 43.015625 
L 55.515625 72.90625 
L 65.375 72.90625 
L 65.375 0 
L 55.515625 0 
L 55.515625 34.71875 
L 19.671875 34.71875 
L 19.671875 0 
L 9.8125 0 
z
" id="DejaVuSans-72"/>
     </defs>
     <g transform="translate(177.037187 38.808586)rotate(-270)scale(0.08 -0.08)">
      <use xlink:href="#DejaVuSans-72"/>
     </g>
    </g>
   </g>
   <g id="text_2">
    <g id="patch_3">
     <path clip-path="url(#pcfc6d02818)" d="M 105.164109 154.474936 
L 108.976868 150.549235 
Q 110.648977 148.827594 108.927336 147.155484 
L 103.37325 141.761188 
Q 101.651608 140.089079 99.979498 141.81072 
L 96.16674 145.736421 
Q 94.49463 147.458062 96.216271 149.130172 
L 101.770358 154.524468 
Q 103.491999 156.196578 105.164109 154.474936 
z
" style="fill:#ffffff;stroke:#ffffff;stroke-linejoin:miter;"/>
    </g>
    <g clip-path="url(#pcfc6d02818)">
     <!-- A -->
     <defs>
      <path d="M 34.1875 63.1875 
L 20.796875 26.90625 
L 47.609375 26.90625 
z
M 28.609375 72.90625 
L 39.796875 72.90625 
L 67.578125 0 
L 57.328125 0 
L 50.6875 18.703125 
L 17.828125 18.703125 
L 11.1875 0 
L 0.78125 0 
z
" id="DejaVuSans-65"/>
     </defs>
     <g transform="translate(102.248976 151.643671)rotate(-45.836168)scale(0.08 -0.08)">
      <use xlink:href="#DejaVuSans-65"/>
     </g>
    </g>
   </g>
   <g id="text_3">
    <g id="patch_4">
     <path clip-path="url(#pcfc6d02818)" d="M 131.84893 153.492468 
L 134.359387 149.63642 
Q 135.668836 147.625116 133.657531 146.315667 
L 127.16898 142.091333 
Q 125.157675 140.781884 123.848227 142.793189 
L 121.337769 146.649236 
Q 120.028321 148.660541 122.039625 149.969989 
L 128.528177 154.194324 
Q 130.539481 155.503772 131.84893 153.492468 
z
" style="fill:#ffffff;stroke:#ffffff;stroke-linejoin:miter;"/>
    </g>
    <g clip-path="url(#pcfc6d02818)">
     <!-- F -->
     <defs>
      <path d="M 9.8125 72.90625 
L 51.703125 72.90625 
L 51.703125 64.59375 
L 19.671875 64.59375 
L 19.671875 43.109375 
L 48.578125 43.109375 
L 48.578125 34.8125 
L 19.671875 34.8125 
L 19.671875 0 
L 9.8125 0 
z
" id="DejaVuSans-70"/>
     </defs>
     <g transform="translate(128.44333 151.275272)rotate(-56.934089)scale(0.08 -0.08)">
      <use xlink:href="#DejaVuSans-70"/>
     </g>
    </g>
   </g>
   <g id="text_4">
    <g id="patch_5">
     <path clip-path="url(#pcfc6d02818)" d="M 158.321589 152.402506 
L 159.836788 147.822906 
Q 160.590658 145.54438 158.312132 144.79051 
L 150.961513 142.358495 
Q 148.682987 141.604625 147.929117 143.883151 
L 146.413917 148.46275 
Q 145.660047 150.741276 147.938573 151.495146 
L 155.289193 153.927162 
Q 157.567719 154.681032 158.321589 152.402506 
z
" style="fill:#ffffff;stroke:#ffffff;stroke-linejoin:miter;"/>
    </g>
    <g clip-path="url(#pcfc6d02818)">
     <!-- P -->
     <defs>
      <path d="M 19.671875 64.796875 
L 19.671875 37.40625 
L 32.078125 37.40625 
Q 38.96875 37.40625 42.71875 40.96875 
Q 46.484375 44.53125 46.484375 51.125 
Q 46.484375 57.671875 42.71875 61.234375 
Q 38.96875 64.796875 32.078125 64.796875 
z
M 9.8125 72.90625 
L 32.078125 72.90625 
Q 44.34375 72.90625 50.609375 67.359375 
Q 56.890625 61.8125 56.890625 51.125 
Q 56.890625 40.328125 50.609375 34.8125 
Q 44.34375 29.296875 32.078125 29.296875 
L 19.671875 29.296875 
L 19.671875 0 
L 9.8125 0 
z
" id="DejaVuSans-80"/>
     </defs>
     <g transform="translate(154.463522 151.126031)rotate(-71.692759)scale(0.08 -0.08)">
      <use xlink:href="#DejaVuSans-80"/>
     </g>
    </g>
   </g>
   <g id="text_5">
    <g id="patch_6">
     <path clip-path="url(#pcfc6d02818)" d="M 201.610598 98.684301 
L 205.608874 102.420882 
Q 207.362344 104.059584 209.001045 102.306114 
L 214.287566 96.649348 
Q 215.926268 94.895878 214.172798 93.257176 
L 210.174522 89.520595 
Q 208.421052 87.881893 206.78235 89.635362 
L 201.49583 95.292129 
Q 199.857128 97.045599 201.610598 98.684301 
z
" style="fill:#ffffff;stroke:#ffffff;stroke-linejoin:miter;"/>
    </g>
    <g clip-path="url(#pcfc6d02818)">
     <!-- A -->
     <g transform="translate(204.385295 95.715274)rotate(-316.937758)scale(0.08 -0.08)">
      <use xlink:href="#DejaVuSans-65"/>
     </g>
    </g>
   </g>
   <g id="text_6">
    <g id="patch_7">
     <path clip-path="url(#pcfc6d02818)" d="M 299.824874 126.948964 
L 304.865953 129.078701 
Q 307.07675 130.012711 308.01076 127.801913 
L 311.023915 120.669789 
Q 311.957925 118.458991 309.747127 117.524981 
L 304.706048 115.395244 
Q 302.495251 114.461234 301.561241 116.672032 
L 298.548086 123.804157 
Q 297.614076 126.014954 299.824874 126.948964 
z
" style="fill:#ffffff;stroke:#ffffff;stroke-linejoin:miter;"/>
    </g>
    <g clip-path="url(#pcfc6d02818)">
     <!-- A -->
     <g transform="translate(301.406366 123.205577)rotate(-337.097089)scale(0.08 -0.08)">
      <use xlink:href="#DejaVuSans-65"/>
     </g>
    </g>
   </g>
   <g id="text_7">
    <g id="patch_8">
     <path clip-path="url(#pcfc6d02818)" d="M 19.627671 235.350284 
L 19.627671 270.635284 
Q 19.627671 273.035284 22.027671 273.035284 
L 29.770171 273.035284 
Q 32.170171 273.035284 32.170171 270.635284 
L 32.170171 235.350284 
Q 32.170171 232.950284 29.770171 232.950284 
L 22.027671 232.950284 
Q 19.627671 232.950284 19.627671 235.350284 
z
" style="fill:#ffffff;stroke:#ffffff;stroke-linejoin:miter;"/>
    </g>
    <g clip-path="url(#pcfc6d02818)">
     <!-- Terminal -->
     <defs>
      <path d="M -0.296875 72.90625 
L 61.375 72.90625 
L 61.375 64.59375 
L 35.5 64.59375 
L 35.5 0 
L 25.59375 0 
L 25.59375 64.59375 
L -0.296875 64.59375 
z
" id="DejaVuSans-84"/>
      <path d="M 56.203125 29.59375 
L 56.203125 25.203125 
L 14.890625 25.203125 
Q 15.484375 15.921875 20.484375 11.0625 
Q 25.484375 6.203125 34.421875 6.203125 
Q 39.59375 6.203125 44.453125 7.46875 
Q 49.3125 8.734375 54.109375 11.28125 
L 54.109375 2.78125 
Q 49.265625 0.734375 44.1875 -0.34375 
Q 39.109375 -1.421875 33.890625 -1.421875 
Q 20.796875 -1.421875 13.15625 6.1875 
Q 5.515625 13.8125 5.515625 26.8125 
Q 5.515625 40.234375 12.765625 48.109375 
Q 20.015625 56 32.328125 56 
Q 43.359375 56 49.78125 48.890625 
Q 56.203125 41.796875 56.203125 29.59375 
z
M 47.21875 32.234375 
Q 47.125 39.59375 43.09375 43.984375 
Q 39.0625 48.390625 32.421875 48.390625 
Q 24.90625 48.390625 20.390625 44.140625 
Q 15.875 39.890625 15.1875 32.171875 
z
" id="DejaVuSans-101"/>
      <path d="M 41.109375 46.296875 
Q 39.59375 47.171875 37.8125 47.578125 
Q 36.03125 48 33.890625 48 
Q 26.265625 48 22.1875 43.046875 
Q 18.109375 38.09375 18.109375 28.8125 
L 18.109375 0 
L 9.078125 0 
L 9.078125 54.6875 
L 18.109375 54.6875 
L 18.109375 46.1875 
Q 20.953125 51.171875 25.484375 53.578125 
Q 30.03125 56 36.53125 56 
Q 37.453125 56 38.578125 55.875 
Q 39.703125 55.765625 41.0625 55.515625 
z
" id="DejaVuSans-114"/>
      <path d="M 52 44.1875 
Q 55.375 50.25 60.0625 53.125 
Q 64.75 56 71.09375 56 
Q 79.640625 56 84.28125 50.015625 
Q 88.921875 44.046875 88.921875 33.015625 
L 88.921875 0 
L 79.890625 0 
L 79.890625 32.71875 
Q 79.890625 40.578125 77.09375 44.375 
Q 74.3125 48.1875 68.609375 48.1875 
Q 61.625 48.1875 57.5625 43.546875 
Q 53.515625 38.921875 53.515625 30.90625 
L 53.515625 0 
L 44.484375 0 
L 44.484375 32.71875 
Q 44.484375 40.625 41.703125 44.40625 
Q 38.921875 48.1875 33.109375 48.1875 
Q 26.21875 48.1875 22.15625 43.53125 
Q 18.109375 38.875 18.109375 30.90625 
L 18.109375 0 
L 9.078125 0 
L 9.078125 54.6875 
L 18.109375 54.6875 
L 18.109375 46.1875 
Q 21.1875 51.21875 25.484375 53.609375 
Q 29.78125 56 35.6875 56 
Q 41.65625 56 45.828125 52.96875 
Q 50 49.953125 52 44.1875 
z
" id="DejaVuSans-109"/>
      <path d="M 9.421875 54.6875 
L 18.40625 54.6875 
L 18.40625 0 
L 9.421875 0 
z
M 9.421875 75.984375 
L 18.40625 75.984375 
L 18.40625 64.59375 
L 9.421875 64.59375 
z
" id="DejaVuSans-105"/>
      <path d="M 54.890625 33.015625 
L 54.890625 0 
L 45.90625 0 
L 45.90625 32.71875 
Q 45.90625 40.484375 42.875 44.328125 
Q 39.84375 48.1875 33.796875 48.1875 
Q 26.515625 48.1875 22.3125 43.546875 
Q 18.109375 38.921875 18.109375 30.90625 
L 18.109375 0 
L 9.078125 0 
L 9.078125 54.6875 
L 18.109375 54.6875 
L 18.109375 46.1875 
Q 21.34375 51.125 25.703125 53.5625 
Q 30.078125 56 35.796875 56 
Q 45.21875 56 50.046875 50.171875 
Q 54.890625 44.34375 54.890625 33.015625 
z
" id="DejaVuSans-110"/>
      <path d="M 34.28125 27.484375 
Q 23.390625 27.484375 19.1875 25 
Q 14.984375 22.515625 14.984375 16.5 
Q 14.984375 11.71875 18.140625 8.90625 
Q 21.296875 6.109375 26.703125 6.109375 
Q 34.1875 6.109375 38.703125 11.40625 
Q 43.21875 16.703125 43.21875 25.484375 
L 43.21875 27.484375 
z
M 52.203125 31.203125 
L 52.203125 0 
L 43.21875 0 
L 43.21875 8.296875 
Q 40.140625 3.328125 35.546875 0.953125 
Q 30.953125 -1.421875 24.3125 -1.421875 
Q 15.921875 -1.421875 10.953125 3.296875 
Q 6 8.015625 6 15.921875 
Q 6 25.140625 12.171875 29.828125 
Q 18.359375 34.515625 30.609375 34.515625 
L 43.21875 34.515625 
L 43.21875 35.40625 
Q 43.21875 41.609375 39.140625 45 
Q 35.0625 48.390625 27.6875 48.390625 
Q 23 48.390625 18.546875 47.265625 
Q 14.109375 46.140625 10.015625 43.890625 
L 10.015625 52.203125 
Q 14.9375 54.109375 19.578125 55.046875 
Q 24.21875 56 28.609375 56 
Q 40.484375 56 46.34375 49.84375 
Q 52.203125 43.703125 52.203125 31.203125 
z
" id="DejaVuSans-97"/>
      <path d="M 9.421875 75.984375 
L 18.40625 75.984375 
L 18.40625 0 
L 9.421875 0 
z
" id="DejaVuSans-108"/>
     </defs>
     <g transform="translate(23.691421 235.350284)rotate(-270)scale(0.08 -0.08)">
      <use xlink:href="#DejaVuSans-84"/>
      <use x="60.818359" xlink:href="#DejaVuSans-101"/>
      <use x="122.341797" xlink:href="#DejaVuSans-114"/>
      <use x="163.439453" xlink:href="#DejaVuSans-109"/>
      <use x="260.851562" xlink:href="#DejaVuSans-105"/>
      <use x="288.634766" xlink:href="#DejaVuSans-110"/>
      <use x="352.013672" xlink:href="#DejaVuSans-97"/>
      <use x="413.292969" xlink:href="#DejaVuSans-108"/>
     </g>
    </g>
   </g>
   <g id="text_8">
    <g id="patch_9">
     <path clip-path="url(#pcfc6d02818)" d="M 70.18122 235.350284 
L 70.18122 270.635284 
Q 70.18122 273.035284 72.58122 273.035284 
L 80.32372 273.035284 
Q 82.72372 273.035284 82.72372 270.635284 
L 82.72372 235.350284 
Q 82.72372 232.950284 80.32372 232.950284 
L 72.58122 232.950284 
Q 70.18122 232.950284 70.18122 235.350284 
z
" style="fill:#ffffff;stroke:#ffffff;stroke-linejoin:miter;"/>
    </g>
    <g clip-path="url(#pcfc6d02818)">
     <!-- Terminal -->
     <g transform="translate(74.24497 235.350284)rotate(-270)scale(0.08 -0.08)">
      <use xlink:href="#DejaVuSans-84"/>
      <use x="60.818359" xlink:href="#DejaVuSans-101"/>
      <use x="122.341797" xlink:href="#DejaVuSans-114"/>
      <use x="163.439453" xlink:href="#DejaVuSans-109"/>
      <use x="260.851562" xlink:href="#DejaVuSans-105"/>
      <use x="288.634766" xlink:href="#DejaVuSans-110"/>
      <use x="352.013672" xlink:href="#DejaVuSans-97"/>
      <use x="413.292969" xlink:href="#DejaVuSans-108"/>
     </g>
    </g>
   </g>
   <g id="text_9">
    <g id="patch_10">
     <path clip-path="url(#pcfc6d02818)" d="M 120.734769 235.350284 
L 120.734769 270.635284 
Q 120.734769 273.035284 123.134769 273.035284 
L 130.877269 273.035284 
Q 133.277269 273.035284 133.277269 270.635284 
L 133.277269 235.350284 
Q 133.277269 232.950284 130.877269 232.950284 
L 123.134769 232.950284 
Q 120.734769 232.950284 120.734769 235.350284 
z
" style="fill:#ffffff;stroke:#ffffff;stroke-linejoin:miter;"/>
    </g>
    <g clip-path="url(#pcfc6d02818)">
     <!-- Terminal -->
     <g transform="translate(124.798519 235.350284)rotate(-270)scale(0.08 -0.08)">
      <use xlink:href="#DejaVuSans-84"/>
      <use x="60.818359" xlink:href="#DejaVuSans-101"/>
      <use x="122.341797" xlink:href="#DejaVuSans-114"/>
      <use x="163.439453" xlink:href="#DejaVuSans-109"/>
      <use x="260.851562" xlink:href="#DejaVuSans-105"/>
      <use x="288.634766" xlink:href="#DejaVuSans-110"/>
      <use x="352.013672" xlink:href="#DejaVuSans-97"/>
      <use x="413.292969" xlink:href="#DejaVuSans-108"/>
     </g>
    </g>
   </g>
   <g id="text_10">
    <g id="patch_11">
     <path clip-path="url(#pcfc6d02818)" d="M 211.264905 180.201061 
L 213.752318 175.800402 
Q 214.933285 173.711069 212.843952 172.530101 
L 206.103674 168.72025 
Q 204.014341 167.539282 202.833373 169.628616 
L 200.34596 174.029275 
Q 199.164992 176.118609 201.254326 177.299576 
L 207.994603 181.109427 
Q 210.083937 182.290395 211.264905 180.201061 
z
" style="fill:#ffffff;stroke:#ffffff;stroke-linejoin:miter;"/>
    </g>
    <g clip-path="url(#pcfc6d02818)">
     <!-- E -->
     <defs>
      <path d="M 9.8125 72.90625 
L 55.90625 72.90625 
L 55.90625 64.59375 
L 19.671875 64.59375 
L 19.671875 43.015625 
L 54.390625 43.015625 
L 54.390625 34.71875 
L 19.671875 34.71875 
L 19.671875 8.296875 
L 56.78125 8.296875 
L 56.78125 0 
L 9.8125 0 
z
" id="DejaVuSans-69"/>
     </defs>
     <g transform="translate(207.727184 178.201412)rotate(-60.52328)scale(0.08 -0.08)">
      <use xlink:href="#DejaVuSans-69"/>
     </g>
    </g>
   </g>
   <g id="text_11">
    <g id="patch_12">
     <path clip-path="url(#pcfc6d02818)" d="M 238.220742 148.517805 
L 239.764774 153.331223 
Q 240.497845 155.616525 242.783147 154.883454 
L 250.155628 152.518535 
Q 252.44093 151.785464 251.707859 149.500162 
L 250.163827 144.686744 
Q 249.430756 142.401441 247.145454 143.134513 
L 239.772973 145.499431 
Q 237.487671 146.232503 238.220742 148.517805 
z
" style="fill:#ffffff;stroke:#ffffff;stroke-linejoin:miter;"/>
    </g>
    <g clip-path="url(#pcfc6d02818)">
     <!-- E -->
     <g transform="translate(242.090283 147.276547)rotate(-287.785022)scale(0.08 -0.08)">
      <use xlink:href="#DejaVuSans-69"/>
     </g>
    </g>
   </g>
   <g id="text_12">
    <g id="patch_13">
     <path clip-path="url(#pcfc6d02818)" d="M 250.741822 174.672664 
L 252.833195 179.852659 
Q 253.731704 182.078121 255.957166 181.179612 
L 263.1366 178.280985 
Q 265.362062 177.382476 264.463553 175.157014 
L 262.37218 169.977019 
Q 261.473671 167.751557 259.248209 168.650065 
L 252.068776 171.548693 
Q 249.843313 172.447202 250.741822 174.672664 
z
" style="fill:#ffffff;stroke:#ffffff;stroke-linejoin:miter;"/>
    </g>
    <g clip-path="url(#pcfc6d02818)">
     <!-- C -->
     <defs>
      <path d="M 64.40625 67.28125 
L 64.40625 56.890625 
Q 59.421875 61.53125 53.78125 63.8125 
Q 48.140625 66.109375 41.796875 66.109375 
Q 29.296875 66.109375 22.65625 58.46875 
Q 16.015625 50.828125 16.015625 36.375 
Q 16.015625 21.96875 22.65625 14.328125 
Q 29.296875 6.6875 41.796875 6.6875 
Q 48.140625 6.6875 53.78125 8.984375 
Q 59.421875 11.28125 64.40625 15.921875 
L 64.40625 5.609375 
Q 59.234375 2.09375 53.4375 0.328125 
Q 47.65625 -1.421875 41.21875 -1.421875 
Q 24.65625 -1.421875 15.125 8.703125 
Q 5.609375 18.84375 5.609375 36.375 
Q 5.609375 53.953125 15.125 64.078125 
Q 24.65625 74.21875 41.21875 74.21875 
Q 47.75 74.21875 53.53125 72.484375 
Q 59.328125 70.75 64.40625 67.28125 
z
" id="DejaVuSans-67"/>
     </defs>
     <g transform="translate(254.51004 173.151282)rotate(-291.985919)scale(0.08 -0.08)">
      <use xlink:href="#DejaVuSans-67"/>
     </g>
    </g>
   </g>
   <g id="text_13">
    <g id="patch_14">
     <path clip-path="url(#pcfc6d02818)" d="M 380.160262 208.029731 
L 385.107291 205.494657 
Q 387.243179 204.400134 386.148656 202.264245 
L 382.61768 195.37378 
Q 381.523157 193.237892 379.387268 194.332415 
L 374.440239 196.867489 
Q 372.304351 197.962012 373.398874 200.097901 
L 376.92985 206.988366 
Q 378.024373 209.124254 380.160262 208.029731 
z
" style="fill:#ffffff;stroke:#ffffff;stroke-linejoin:miter;"/>
    </g>
    <g clip-path="url(#pcfc6d02818)">
     <!-- R -->
     <defs>
      <path d="M 44.390625 34.1875 
Q 47.5625 33.109375 50.5625 29.59375 
Q 53.5625 26.078125 56.59375 19.921875 
L 66.609375 0 
L 56 0 
L 46.6875 18.703125 
Q 43.0625 26.03125 39.671875 28.421875 
Q 36.28125 30.8125 30.421875 30.8125 
L 19.671875 30.8125 
L 19.671875 0 
L 9.8125 0 
L 9.8125 72.90625 
L 32.078125 72.90625 
Q 44.578125 72.90625 50.734375 67.671875 
Q 56.890625 62.453125 56.890625 51.90625 
Q 56.890625 45.015625 53.6875 40.46875 
Q 50.484375 35.9375 44.390625 34.1875 
z
M 19.671875 64.796875 
L 19.671875 38.921875 
L 32.078125 38.921875 
Q 39.203125 38.921875 42.84375 42.21875 
Q 46.484375 45.515625 46.484375 51.90625 
Q 46.484375 58.296875 42.84375 61.546875 
Q 39.203125 64.796875 32.078125 64.796875 
z
" id="DejaVuSans-82"/>
     </defs>
     <g transform="translate(378.306983 204.413183)rotate(-27.132592)scale(0.08 -0.08)">
      <use xlink:href="#DejaVuSans-82"/>
     </g>
    </g>
   </g>
   <g id="text_14">
    <g id="patch_15">
     <path clip-path="url(#pcfc6d02818)" d="M 407.774035 207.369724 
L 411.30426 203.75164 
Q 412.980331 202.033855 411.262546 200.357784 
L 405.720901 194.950708 
Q 404.003116 193.274637 402.327045 194.992421 
L 398.796819 198.610506 
Q 397.120748 200.328291 398.838533 202.004362 
L 404.380178 207.411438 
Q 406.097963 209.087509 407.774035 207.369724 
z
" style="fill:#ffffff;stroke:#ffffff;stroke-linejoin:miter;"/>
    </g>
    <g clip-path="url(#pcfc6d02818)">
     <!-- E -->
     <g transform="translate(404.865431 204.531752)rotate(-45.704181)scale(0.08 -0.08)">
      <use xlink:href="#DejaVuSans-69"/>
     </g>
    </g>
   </g>
   <g id="text_15">
    <g id="patch_16">
     <path clip-path="url(#pcfc6d02818)" d="M 424.056064 198.653573 
L 424.056064 203.708573 
Q 424.056064 206.108573 426.456064 206.108573 
L 434.198564 206.108573 
Q 436.598564 206.108573 436.598564 203.708573 
L 436.598564 198.653573 
Q 436.598564 196.253573 434.198564 196.253573 
L 426.456064 196.253573 
Q 424.056064 196.253573 424.056064 198.653573 
z
" style="fill:#ffffff;stroke:#ffffff;stroke-linejoin:miter;"/>
    </g>
    <g clip-path="url(#pcfc6d02818)">
     <!-- E -->
     <g transform="translate(428.119814 198.653573)rotate(-270)scale(0.08 -0.08)">
      <use xlink:href="#DejaVuSans-69"/>
     </g>
    </g>
   </g>
   <g id="text_16">
    <g id="patch_17">
     <path clip-path="url(#pcfc6d02818)" d="M 449.164866 203.561521 
L 453.066096 207.559844 
Q 454.742168 209.277629 456.459953 207.601557 
L 462.001598 202.194482 
Q 463.719383 200.51841 462.043312 198.800625 
L 458.142081 194.802302 
Q 456.46601 193.084517 454.748225 194.760588 
L 449.206579 200.167664 
Q 447.488794 201.843736 449.164866 203.561521 
z
" style="fill:#ffffff;stroke:#ffffff;stroke-linejoin:miter;"/>
    </g>
    <g clip-path="url(#pcfc6d02818)">
     <!-- C -->
     <g transform="translate(452.073469 200.723548)rotate(-314.295819)scale(0.08 -0.08)">
      <use xlink:href="#DejaVuSans-67"/>
     </g>
    </g>
   </g>
   <g id="text_17">
    <g id="patch_18">
     <path clip-path="url(#pcfc6d02818)" d="M 475.415513 205.427104 
L 480.626191 208.097284 
Q 482.76208 209.191807 483.856603 207.055918 
L 487.387579 200.165453 
Q 488.482102 198.029565 486.346214 196.935042 
L 481.135536 194.264862 
Q 478.999647 193.170339 477.905124 195.306228 
L 474.374148 202.196693 
Q 473.279625 204.332581 475.415513 205.427104 
z
" style="fill:#ffffff;stroke:#ffffff;stroke-linejoin:miter;"/>
    </g>
    <g clip-path="url(#pcfc6d02818)">
     <!-- U -->
     <defs>
      <path d="M 8.6875 72.90625 
L 18.609375 72.90625 
L 18.609375 28.609375 
Q 18.609375 16.890625 22.84375 11.734375 
Q 27.09375 6.59375 36.625 6.59375 
Q 46.09375 6.59375 50.34375 11.734375 
Q 54.59375 16.890625 54.59375 28.609375 
L 54.59375 72.90625 
L 64.5 72.90625 
L 64.5 27.390625 
Q 64.5 13.140625 57.4375 5.859375 
Q 50.390625 -1.421875 36.625 -1.421875 
Q 22.796875 -1.421875 15.734375 5.859375 
Q 8.6875 13.140625 8.6875 27.390625 
z
" id="DejaVuSans-85"/>
     </defs>
     <g transform="translate(477.268791 201.810555)rotate(-332.867408)scale(0.08 -0.08)">
      <use xlink:href="#DejaVuSans-85"/>
     </g>
    </g>
   </g>
   <g id="text_18">
    <g id="patch_19">
     <path clip-path="url(#pcfc6d02818)" d="M 322.948966 235.350284 
L 322.948966 270.635284 
Q 322.948966 273.035284 325.348966 273.035284 
L 333.091466 273.035284 
Q 335.491466 273.035284 335.491466 270.635284 
L 335.491466 235.350284 
Q 335.491466 232.950284 333.091466 232.950284 
L 325.348966 232.950284 
Q 322.948966 232.950284 322.948966 235.350284 
z
" style="fill:#ffffff;stroke:#ffffff;stroke-linejoin:miter;"/>
    </g>
    <g clip-path="url(#pcfc6d02818)">
     <!-- Terminal -->
     <g transform="translate(327.012716 235.350284)rotate(-270)scale(0.08 -0.08)">
      <use xlink:href="#DejaVuSans-84"/>
      <use x="60.818359" xlink:href="#DejaVuSans-101"/>
      <use x="122.341797" xlink:href="#DejaVuSans-114"/>
      <use x="163.439453" xlink:href="#DejaVuSans-109"/>
      <use x="260.851562" xlink:href="#DejaVuSans-105"/>
      <use x="288.634766" xlink:href="#DejaVuSans-110"/>
      <use x="352.013672" xlink:href="#DejaVuSans-97"/>
      <use x="413.292969" xlink:href="#DejaVuSans-108"/>
     </g>
    </g>
   </g>
   <g id="text_19">
    <g id="patch_20">
     <path clip-path="url(#pcfc6d02818)" d="M 373.502515 235.350284 
L 373.502515 270.635284 
Q 373.502515 273.035284 375.902515 273.035284 
L 383.645015 273.035284 
Q 386.045015 273.035284 386.045015 270.635284 
L 386.045015 235.350284 
Q 386.045015 232.950284 383.645015 232.950284 
L 375.902515 232.950284 
Q 373.502515 232.950284 373.502515 235.350284 
z
" style="fill:#ffffff;stroke:#ffffff;stroke-linejoin:miter;"/>
    </g>
    <g clip-path="url(#pcfc6d02818)">
     <!-- Terminal -->
     <g transform="translate(377.566265 235.350284)rotate(-270)scale(0.08 -0.08)">
      <use xlink:href="#DejaVuSans-84"/>
      <use x="60.818359" xlink:href="#DejaVuSans-101"/>
      <use x="122.341797" xlink:href="#DejaVuSans-114"/>
      <use x="163.439453" xlink:href="#DejaVuSans-109"/>
      <use x="260.851562" xlink:href="#DejaVuSans-105"/>
      <use x="288.634766" xlink:href="#DejaVuSans-110"/>
      <use x="352.013672" xlink:href="#DejaVuSans-97"/>
      <use x="413.292969" xlink:href="#DejaVuSans-108"/>
     </g>
    </g>
   </g>
   <g id="text_20">
    <g id="patch_21">
     <path clip-path="url(#pcfc6d02818)" d="M 424.056064 235.350284 
L 424.056064 270.635284 
Q 424.056064 273.035284 426.456064 273.035284 
L 434.198564 273.035284 
Q 436.598564 273.035284 436.598564 270.635284 
L 436.598564 235.350284 
Q 436.598564 232.950284 434.198564 232.950284 
L 426.456064 232.950284 
Q 424.056064 232.950284 424.056064 235.350284 
z
" style="fill:#ffffff;stroke:#ffffff;stroke-linejoin:miter;"/>
    </g>
    <g clip-path="url(#pcfc6d02818)">
     <!-- Terminal -->
     <g transform="translate(428.119814 235.350284)rotate(-270)scale(0.08 -0.08)">
      <use xlink:href="#DejaVuSans-84"/>
      <use x="60.818359" xlink:href="#DejaVuSans-101"/>
      <use x="122.341797" xlink:href="#DejaVuSans-114"/>
      <use x="163.439453" xlink:href="#DejaVuSans-109"/>
      <use x="260.851562" xlink:href="#DejaVuSans-105"/>
      <use x="288.634766" xlink:href="#DejaVuSans-110"/>
      <use x="352.013672" xlink:href="#DejaVuSans-97"/>
      <use x="413.292969" xlink:href="#DejaVuSans-108"/>
     </g>
    </g>
   </g>
   <g id="text_21">
    <g id="patch_22">
     <path clip-path="url(#pcfc6d02818)" d="M 474.609613 235.350284 
L 474.609613 270.635284 
Q 474.609613 273.035284 477.009613 273.035284 
L 484.752113 273.035284 
Q 487.152113 273.035284 487.152113 270.635284 
L 487.152113 235.350284 
Q 487.152113 232.950284 484.752113 232.950284 
L 477.009613 232.950284 
Q 474.609613 232.950284 474.609613 235.350284 
z
" style="fill:#ffffff;stroke:#ffffff;stroke-linejoin:miter;"/>
    </g>
    <g clip-path="url(#pcfc6d02818)">
     <!-- Terminal -->
     <g transform="translate(478.673363 235.350284)rotate(-270)scale(0.08 -0.08)">
      <use xlink:href="#DejaVuSans-84"/>
      <use x="60.818359" xlink:href="#DejaVuSans-101"/>
      <use x="122.341797" xlink:href="#DejaVuSans-114"/>
      <use x="163.439453" xlink:href="#DejaVuSans-109"/>
      <use x="260.851562" xlink:href="#DejaVuSans-105"/>
      <use x="288.634766" xlink:href="#DejaVuSans-110"/>
      <use x="352.013672" xlink:href="#DejaVuSans-97"/>
      <use x="413.292969" xlink:href="#DejaVuSans-108"/>
     </g>
    </g>
   </g>
   <g id="text_22">
    <g id="patch_23">
     <path clip-path="url(#pcfc6d02818)" d="M 171.288318 235.350284 
L 171.288318 270.635284 
Q 171.288318 273.035284 173.688318 273.035284 
L 181.430818 273.035284 
Q 183.830818 273.035284 183.830818 270.635284 
L 183.830818 235.350284 
Q 183.830818 232.950284 181.430818 232.950284 
L 173.688318 232.950284 
Q 171.288318 232.950284 171.288318 235.350284 
z
" style="fill:#ffffff;stroke:#ffffff;stroke-linejoin:miter;"/>
    </g>
    <g clip-path="url(#pcfc6d02818)">
     <!-- Terminal -->
     <g transform="translate(175.352068 235.350284)rotate(-270)scale(0.08 -0.08)">
      <use xlink:href="#DejaVuSans-84"/>
      <use x="60.818359" xlink:href="#DejaVuSans-101"/>
      <use x="122.341797" xlink:href="#DejaVuSans-114"/>
      <use x="163.439453" xlink:href="#DejaVuSans-109"/>
      <use x="260.851562" xlink:href="#DejaVuSans-105"/>
      <use x="288.634766" xlink:href="#DejaVuSans-110"/>
      <use x="352.013672" xlink:href="#DejaVuSans-97"/>
      <use x="413.292969" xlink:href="#DejaVuSans-108"/>
     </g>
    </g>
   </g>
   <g id="text_23">
    <g id="patch_24">
     <path clip-path="url(#pcfc6d02818)" d="M 259.192254 201.471577 
L 261.591739 206.389984 
Q 262.644049 208.546983 264.801048 207.494673 
L 271.759616 204.099877 
Q 273.916615 203.047568 272.864305 200.890569 
L 270.464819 195.972162 
Q 269.41251 193.815163 267.255511 194.867473 
L 260.296943 198.262268 
Q 258.139944 199.314578 259.192254 201.471577 
z
" style="fill:#ffffff;stroke:#ffffff;stroke-linejoin:miter;"/>
    </g>
    <g clip-path="url(#pcfc6d02818)">
     <!-- A -->
     <g transform="translate(262.844547 199.689775)rotate(-296.00582)scale(0.08 -0.08)">
      <use xlink:href="#DejaVuSans-65"/>
     </g>
    </g>
   </g>
   <g id="text_24">
    <g id="patch_25">
     <path clip-path="url(#pcfc6d02818)" d="M 245.330271 206.098452 
L 247.445304 201.763109 
Q 248.497614 199.60611 246.340615 198.5538 
L 239.382047 195.159005 
Q 237.225048 194.106695 236.172738 196.263694 
L 234.057705 200.599037 
Q 233.005395 202.756036 235.162394 203.808346 
L 242.120962 207.203141 
Q 244.277961 208.255451 245.330271 206.098452 
z
" style="fill:#ffffff;stroke:#ffffff;stroke-linejoin:miter;"/>
    </g>
    <g clip-path="url(#pcfc6d02818)">
     <!-- P -->
     <g transform="translate(241.677978 204.31665)rotate(-63.99418)scale(0.08 -0.08)">
      <use xlink:href="#DejaVuSans-80"/>
     </g>
    </g>
   </g>
   <g id="text_25">
    <g id="patch_26">
     <path clip-path="url(#pcfc6d02818)" d="M 272.395417 235.350284 
L 272.395417 270.635284 
Q 272.395417 273.035284 274.795417 273.035284 
L 282.537917 273.035284 
Q 284.937917 273.035284 284.937917 270.635284 
L 284.937917 235.350284 
Q 284.937917 232.950284 282.537917 232.950284 
L 274.795417 232.950284 
Q 272.395417 232.950284 272.395417 235.350284 
z
" style="fill:#ffffff;stroke:#ffffff;stroke-linejoin:miter;"/>
    </g>
    <g clip-path="url(#pcfc6d02818)">
     <!-- Terminal -->
     <g transform="translate(276.459167 235.350284)rotate(-270)scale(0.08 -0.08)">
      <use xlink:href="#DejaVuSans-84"/>
      <use x="60.818359" xlink:href="#DejaVuSans-101"/>
      <use x="122.341797" xlink:href="#DejaVuSans-114"/>
      <use x="163.439453" xlink:href="#DejaVuSans-109"/>
      <use x="260.851562" xlink:href="#DejaVuSans-105"/>
      <use x="288.634766" xlink:href="#DejaVuSans-110"/>
      <use x="352.013672" xlink:href="#DejaVuSans-97"/>
      <use x="413.292969" xlink:href="#DejaVuSans-108"/>
     </g>
    </g>
   </g>
   <g id="text_26">
    <g id="patch_27">
     <path clip-path="url(#pcfc6d02818)" d="M 221.841867 235.350284 
L 221.841867 270.635284 
Q 221.841867 273.035284 224.241867 273.035284 
L 231.984367 273.035284 
Q 234.384367 273.035284 234.384367 270.635284 
L 234.384367 235.350284 
Q 234.384367 232.950284 231.984367 232.950284 
L 224.241867 232.950284 
Q 221.841867 232.950284 221.841867 235.350284 
z
" style="fill:#ffffff;stroke:#ffffff;stroke-linejoin:miter;"/>
    </g>
    <g clip-path="url(#pcfc6d02818)">
     <!-- Terminal -->
     <g transform="translate(225.905617 235.350284)rotate(-270)scale(0.08 -0.08)">
      <use xlink:href="#DejaVuSans-84"/>
      <use x="60.818359" xlink:href="#DejaVuSans-101"/>
      <use x="122.341797" xlink:href="#DejaVuSans-114"/>
      <use x="163.439453" xlink:href="#DejaVuSans-109"/>
      <use x="260.851562" xlink:href="#DejaVuSans-105"/>
      <use x="288.634766" xlink:href="#DejaVuSans-110"/>
      <use x="352.013672" xlink:href="#DejaVuSans-97"/>
      <use x="413.292969" xlink:href="#DejaVuSans-108"/>
     </g>
    </g>
   </g>
   <g id="text_27">
    <g id="patch_28">
     <path clip-path="url(#pcfc6d02818)" d="M 525.163163 235.350284 
L 525.163163 270.635284 
Q 525.163163 273.035284 527.563163 273.035284 
L 535.305663 273.035284 
Q 537.705663 273.035284 537.705663 270.635284 
L 537.705663 235.350284 
Q 537.705663 232.950284 535.305663 232.950284 
L 527.563163 232.950284 
Q 525.163163 232.950284 525.163163 235.350284 
z
" style="fill:#ffffff;stroke:#ffffff;stroke-linejoin:miter;"/>
    </g>
    <g clip-path="url(#pcfc6d02818)">
     <!-- Terminal -->
     <g transform="translate(529.226913 235.350284)rotate(-270)scale(0.08 -0.08)">
      <use xlink:href="#DejaVuSans-84"/>
      <use x="60.818359" xlink:href="#DejaVuSans-101"/>
      <use x="122.341797" xlink:href="#DejaVuSans-114"/>
      <use x="163.439453" xlink:href="#DejaVuSans-109"/>
      <use x="260.851562" xlink:href="#DejaVuSans-105"/>
      <use x="288.634766" xlink:href="#DejaVuSans-110"/>
      <use x="352.013672" xlink:href="#DejaVuSans-97"/>
      <use x="413.292969" xlink:href="#DejaVuSans-108"/>
     </g>
    </g>
   </g>
   <g id="PathCollection_1">
    <defs>
     <path d="M 0 8.660254 
C 2.296726 8.660254 4.499694 7.747755 6.123724 6.123724 
C 7.747755 4.499694 8.660254 2.296726 8.660254 0 
C 8.660254 -2.296726 7.747755 -4.499694 6.123724 -6.123724 
C 4.499694 -7.747755 2.296726 -8.660254 0 -8.660254 
C -2.296726 -8.660254 -4.499694 -7.747755 -6.123724 -6.123724 
C -7.747755 -4.499694 -8.660254 -2.296726 -8.660254 0 
C -8.660254 2.296726 -7.747755 4.499694 -6.123724 6.123724 
C -4.499694 7.747755 -2.296726 8.660254 0 8.660254 
z
" id="C0_0_285c7739fe"/>
    </defs>
    <g clip-path="url(#pcfc6d02818)">
     <use style="fill:#ffffff;stroke:#ffffff;" x="25.898921" xlink:href="#C0_0_285c7739fe" y="278.898639"/>
    </g>
    <g clip-path="url(#pcfc6d02818)">
     <use style="fill:#ffffff;stroke:#ffffff;" x="76.45247" xlink:href="#C0_0_285c7739fe" y="278.898639"/>
    </g>
    <g clip-path="url(#pcfc6d02818)">
     <use style="fill:#ffffff;stroke:#ffffff;" x="127.006019" xlink:href="#C0_0_285c7739fe" y="278.898639"/>
    </g>
    <g clip-path="url(#pcfc6d02818)">
     <use style="fill:#ffffff;stroke:#ffffff;" x="177.559568" xlink:href="#C0_0_285c7739fe" y="278.898639"/>
    </g>
    <g clip-path="url(#pcfc6d02818)">
     <use style="fill:#ffffff;stroke:#ffffff;" x="228.113117" xlink:href="#C0_0_285c7739fe" y="278.898639"/>
    </g>
    <g clip-path="url(#pcfc6d02818)">
     <use style="fill:#ffffff;stroke:#ffffff;" x="278.666667" xlink:href="#C0_0_285c7739fe" y="278.898639"/>
    </g>
    <g clip-path="url(#pcfc6d02818)">
     <use style="fill:#ffffff;stroke:#ffffff;" x="329.220216" xlink:href="#C0_0_285c7739fe" y="278.898639"/>
    </g>
    <g clip-path="url(#pcfc6d02818)">
     <use style="fill:#ffffff;stroke:#ffffff;" x="379.773765" xlink:href="#C0_0_285c7739fe" y="278.898639"/>
    </g>
    <g clip-path="url(#pcfc6d02818)">
     <use style="fill:#ffffff;stroke:#ffffff;" x="430.327314" xlink:href="#C0_0_285c7739fe" y="278.898639"/>
    </g>
    <g clip-path="url(#pcfc6d02818)">
     <use style="fill:#ffffff;stroke:#ffffff;" x="480.880863" xlink:href="#C0_0_285c7739fe" y="278.898639"/>
    </g>
    <g clip-path="url(#pcfc6d02818)">
     <use style="fill:#ffffff;stroke:#ffffff;" x="531.434413" xlink:href="#C0_0_285c7739fe" y="278.898639"/>
    </g>
    <g clip-path="url(#pcfc6d02818)">
     <use style="fill:#ffffff;stroke:#ffffff;" x="179.244687" xlink:href="#C0_0_285c7739fe" y="14.434694"/>
    </g>
    <g clip-path="url(#pcfc6d02818)">
     <use style="fill:#ffffff;stroke:#ffffff;" x="179.244687" xlink:href="#C0_0_285c7739fe" y="69.198728"/>
    </g>
    <g clip-path="url(#pcfc6d02818)">
     <use style="fill:#ffffff;stroke:#ffffff;" x="25.898921" xlink:href="#C0_0_285c7739fe" y="227.086928"/>
    </g>
    <g clip-path="url(#pcfc6d02818)">
     <use style="fill:#ffffff;stroke:#ffffff;" x="76.45247" xlink:href="#C0_0_285c7739fe" y="227.086928"/>
    </g>
    <g clip-path="url(#pcfc6d02818)">
     <use style="fill:#ffffff;stroke:#ffffff;" x="127.006019" xlink:href="#C0_0_285c7739fe" y="227.086928"/>
    </g>
    <g clip-path="url(#pcfc6d02818)">
     <use style="fill:#ffffff;stroke:#ffffff;" x="236.538709" xlink:href="#C0_0_285c7739fe" y="122.742749"/>
    </g>
    <g clip-path="url(#pcfc6d02818)">
     <use style="fill:#ffffff;stroke:#ffffff;" x="430.327314" xlink:href="#C0_0_285c7739fe" y="175.275218"/>
    </g>
    <g clip-path="url(#pcfc6d02818)">
     <use style="fill:#ffffff;stroke:#ffffff;" x="329.220216" xlink:href="#C0_0_285c7739fe" y="227.086928"/>
    </g>
    <g clip-path="url(#pcfc6d02818)">
     <use style="fill:#ffffff;stroke:#ffffff;" x="379.773765" xlink:href="#C0_0_285c7739fe" y="227.086928"/>
    </g>
    <g clip-path="url(#pcfc6d02818)">
     <use style="fill:#ffffff;stroke:#ffffff;" x="430.327314" xlink:href="#C0_0_285c7739fe" y="227.086928"/>
    </g>
    <g clip-path="url(#pcfc6d02818)">
     <use style="fill:#ffffff;stroke:#ffffff;" x="480.880863" xlink:href="#C0_0_285c7739fe" y="227.086928"/>
    </g>
    <g clip-path="url(#pcfc6d02818)">
     <use style="fill:#ffffff;stroke:#ffffff;" x="177.559568" xlink:href="#C0_0_285c7739fe" y="227.086928"/>
    </g>
    <g clip-path="url(#pcfc6d02818)">
     <use style="fill:#ffffff;stroke:#ffffff;" x="253.389892" xlink:href="#C0_0_285c7739fe" y="175.275218"/>
    </g>
    <g clip-path="url(#pcfc6d02818)">
     <use style="fill:#ffffff;stroke:#ffffff;" x="278.666667" xlink:href="#C0_0_285c7739fe" y="227.086928"/>
    </g>
    <g clip-path="url(#pcfc6d02818)">
     <use style="fill:#ffffff;stroke:#ffffff;" x="228.113117" xlink:href="#C0_0_285c7739fe" y="227.086928"/>
    </g>
    <g clip-path="url(#pcfc6d02818)">
     <use style="fill:#ffffff;stroke:#ffffff;" x="531.434413" xlink:href="#C0_0_285c7739fe" y="227.086928"/>
    </g>
   </g>
   <g id="text_28">
    <g clip-path="url(#pcfc6d02818)">
     <!-- Officers -->
     <defs>
      <path d="M 39.40625 66.21875 
Q 28.65625 66.21875 22.328125 58.203125 
Q 16.015625 50.203125 16.015625 36.375 
Q 16.015625 22.609375 22.328125 14.59375 
Q 28.65625 6.59375 39.40625 6.59375 
Q 50.140625 6.59375 56.421875 14.59375 
Q 62.703125 22.609375 62.703125 36.375 
Q 62.703125 50.203125 56.421875 58.203125 
Q 50.140625 66.21875 39.40625 66.21875 
z
M 39.40625 74.21875 
Q 54.734375 74.21875 63.90625 63.9375 
Q 73.09375 53.65625 73.09375 36.375 
Q 73.09375 19.140625 63.90625 8.859375 
Q 54.734375 -1.421875 39.40625 -1.421875 
Q 24.03125 -1.421875 14.8125 8.828125 
Q 5.609375 19.09375 5.609375 36.375 
Q 5.609375 53.65625 14.8125 63.9375 
Q 24.03125 74.21875 39.40625 74.21875 
z
" id="DejaVuSans-79"/>
      <path d="M 37.109375 75.984375 
L 37.109375 68.5 
L 28.515625 68.5 
Q 23.6875 68.5 21.796875 66.546875 
Q 19.921875 64.59375 19.921875 59.515625 
L 19.921875 54.6875 
L 34.71875 54.6875 
L 34.71875 47.703125 
L 19.921875 47.703125 
L 19.921875 0 
L 10.890625 0 
L 10.890625 47.703125 
L 2.296875 47.703125 
L 2.296875 54.6875 
L 10.890625 54.6875 
L 10.890625 58.5 
Q 10.890625 67.625 15.140625 71.796875 
Q 19.390625 75.984375 28.609375 75.984375 
z
" id="DejaVuSans-102"/>
      <path d="M 48.78125 52.59375 
L 48.78125 44.1875 
Q 44.96875 46.296875 41.140625 47.34375 
Q 37.3125 48.390625 33.40625 48.390625 
Q 24.65625 48.390625 19.8125 42.84375 
Q 14.984375 37.3125 14.984375 27.296875 
Q 14.984375 17.28125 19.8125 11.734375 
Q 24.65625 6.203125 33.40625 6.203125 
Q 37.3125 6.203125 41.140625 7.25 
Q 44.96875 8.296875 48.78125 10.40625 
L 48.78125 2.09375 
Q 45.015625 0.34375 40.984375 -0.53125 
Q 36.96875 -1.421875 32.421875 -1.421875 
Q 20.0625 -1.421875 12.78125 6.34375 
Q 5.515625 14.109375 5.515625 27.296875 
Q 5.515625 40.671875 12.859375 48.328125 
Q 20.21875 56 33.015625 56 
Q 37.15625 56 41.109375 55.140625 
Q 45.0625 54.296875 48.78125 52.59375 
z
" id="DejaVuSans-99"/>
      <path d="M 44.28125 53.078125 
L 44.28125 44.578125 
Q 40.484375 46.53125 36.375 47.5 
Q 32.28125 48.484375 27.875 48.484375 
Q 21.1875 48.484375 17.84375 46.4375 
Q 14.5 44.390625 14.5 40.28125 
Q 14.5 37.15625 16.890625 35.375 
Q 19.28125 33.59375 26.515625 31.984375 
L 29.59375 31.296875 
Q 39.15625 29.25 43.1875 25.515625 
Q 47.21875 21.78125 47.21875 15.09375 
Q 47.21875 7.46875 41.1875 3.015625 
Q 35.15625 -1.421875 24.609375 -1.421875 
Q 20.21875 -1.421875 15.453125 -0.5625 
Q 10.6875 0.296875 5.421875 2 
L 5.421875 11.28125 
Q 10.40625 8.6875 15.234375 7.390625 
Q 20.0625 6.109375 24.8125 6.109375 
Q 31.15625 6.109375 34.5625 8.28125 
Q 37.984375 10.453125 37.984375 14.40625 
Q 37.984375 18.0625 35.515625 20.015625 
Q 33.0625 21.96875 24.703125 23.78125 
L 21.578125 24.515625 
Q 13.234375 26.265625 9.515625 29.90625 
Q 5.8125 33.546875 5.8125 39.890625 
Q 5.8125 47.609375 11.28125 51.796875 
Q 16.75 56 26.8125 56 
Q 31.78125 56 36.171875 55.265625 
Q 40.578125 54.546875 44.28125 53.078125 
z
" id="DejaVuSans-115"/>
     </defs>
     <g transform="translate(6.567671 281.658014)scale(0.1 -0.1)">
      <use xlink:href="#DejaVuSans-79"/>
      <use x="78.710938" xlink:href="#DejaVuSans-102"/>
      <use x="113.916016" xlink:href="#DejaVuSans-102"/>
      <use x="149.121094" xlink:href="#DejaVuSans-105"/>
      <use x="176.904297" xlink:href="#DejaVuSans-99"/>
      <use x="231.884766" xlink:href="#DejaVuSans-101"/>
      <use x="293.408203" xlink:href="#DejaVuSans-114"/>
      <use x="334.521484" xlink:href="#DejaVuSans-115"/>
     </g>
    </g>
   </g>
   <g id="text_29">
    <g clip-path="url(#pcfc6d02818)">
     <!-- were -->
     <defs>
      <path d="M 4.203125 54.6875 
L 13.1875 54.6875 
L 24.421875 12.015625 
L 35.59375 54.6875 
L 46.1875 54.6875 
L 57.421875 12.015625 
L 68.609375 54.6875 
L 77.59375 54.6875 
L 63.28125 0 
L 52.6875 0 
L 40.921875 44.828125 
L 29.109375 0 
L 18.5 0 
z
" id="DejaVuSans-119"/>
     </defs>
     <g transform="translate(64.156376 281.658014)scale(0.1 -0.1)">
      <use xlink:href="#DejaVuSans-119"/>
      <use x="81.787109" xlink:href="#DejaVuSans-101"/>
      <use x="143.310547" xlink:href="#DejaVuSans-114"/>
      <use x="184.392578" xlink:href="#DejaVuSans-101"/>
     </g>
    </g>
   </g>
   <g id="text_30">
    <g clip-path="url(#pcfc6d02818)">
     <!-- probing -->
     <defs>
      <path d="M 18.109375 8.203125 
L 18.109375 -20.796875 
L 9.078125 -20.796875 
L 9.078125 54.6875 
L 18.109375 54.6875 
L 18.109375 46.390625 
Q 20.953125 51.265625 25.265625 53.625 
Q 29.59375 56 35.59375 56 
Q 45.5625 56 51.78125 48.09375 
Q 58.015625 40.1875 58.015625 27.296875 
Q 58.015625 14.40625 51.78125 6.484375 
Q 45.5625 -1.421875 35.59375 -1.421875 
Q 29.59375 -1.421875 25.265625 0.953125 
Q 20.953125 3.328125 18.109375 8.203125 
z
M 48.6875 27.296875 
Q 48.6875 37.203125 44.609375 42.84375 
Q 40.53125 48.484375 33.40625 48.484375 
Q 26.265625 48.484375 22.1875 42.84375 
Q 18.109375 37.203125 18.109375 27.296875 
Q 18.109375 17.390625 22.1875 11.75 
Q 26.265625 6.109375 33.40625 6.109375 
Q 40.53125 6.109375 44.609375 11.75 
Q 48.6875 17.390625 48.6875 27.296875 
z
" id="DejaVuSans-112"/>
      <path d="M 30.609375 48.390625 
Q 23.390625 48.390625 19.1875 42.75 
Q 14.984375 37.109375 14.984375 27.296875 
Q 14.984375 17.484375 19.15625 11.84375 
Q 23.34375 6.203125 30.609375 6.203125 
Q 37.796875 6.203125 41.984375 11.859375 
Q 46.1875 17.53125 46.1875 27.296875 
Q 46.1875 37.015625 41.984375 42.703125 
Q 37.796875 48.390625 30.609375 48.390625 
z
M 30.609375 56 
Q 42.328125 56 49.015625 48.375 
Q 55.71875 40.765625 55.71875 27.296875 
Q 55.71875 13.875 49.015625 6.21875 
Q 42.328125 -1.421875 30.609375 -1.421875 
Q 18.84375 -1.421875 12.171875 6.21875 
Q 5.515625 13.875 5.515625 27.296875 
Q 5.515625 40.765625 12.171875 48.375 
Q 18.84375 56 30.609375 56 
z
" id="DejaVuSans-111"/>
      <path d="M 48.6875 27.296875 
Q 48.6875 37.203125 44.609375 42.84375 
Q 40.53125 48.484375 33.40625 48.484375 
Q 26.265625 48.484375 22.1875 42.84375 
Q 18.109375 37.203125 18.109375 27.296875 
Q 18.109375 17.390625 22.1875 11.75 
Q 26.265625 6.109375 33.40625 6.109375 
Q 40.53125 6.109375 44.609375 11.75 
Q 48.6875 17.390625 48.6875 27.296875 
z
M 18.109375 46.390625 
Q 20.953125 51.265625 25.265625 53.625 
Q 29.59375 56 35.59375 56 
Q 45.5625 56 51.78125 48.09375 
Q 58.015625 40.1875 58.015625 27.296875 
Q 58.015625 14.40625 51.78125 6.484375 
Q 45.5625 -1.421875 35.59375 -1.421875 
Q 29.59375 -1.421875 25.265625 0.953125 
Q 20.953125 3.328125 18.109375 8.203125 
L 18.109375 0 
L 9.078125 0 
L 9.078125 75.984375 
L 18.109375 75.984375 
z
" id="DejaVuSans-98"/>
      <path d="M 45.40625 27.984375 
Q 45.40625 37.75 41.375 43.109375 
Q 37.359375 48.484375 30.078125 48.484375 
Q 22.859375 48.484375 18.828125 43.109375 
Q 14.796875 37.75 14.796875 27.984375 
Q 14.796875 18.265625 18.828125 12.890625 
Q 22.859375 7.515625 30.078125 7.515625 
Q 37.359375 7.515625 41.375 12.890625 
Q 45.40625 18.265625 45.40625 27.984375 
z
M 54.390625 6.78125 
Q 54.390625 -7.171875 48.1875 -13.984375 
Q 42 -20.796875 29.203125 -20.796875 
Q 24.46875 -20.796875 20.265625 -20.09375 
Q 16.0625 -19.390625 12.109375 -17.921875 
L 12.109375 -9.1875 
Q 16.0625 -11.328125 19.921875 -12.34375 
Q 23.78125 -13.375 27.78125 -13.375 
Q 36.625 -13.375 41.015625 -8.765625 
Q 45.40625 -4.15625 45.40625 5.171875 
L 45.40625 9.625 
Q 42.625 4.78125 38.28125 2.390625 
Q 33.9375 0 27.875 0 
Q 17.828125 0 11.671875 7.65625 
Q 5.515625 15.328125 5.515625 27.984375 
Q 5.515625 40.671875 11.671875 48.328125 
Q 17.828125 56 27.875 56 
Q 33.9375 56 38.28125 53.609375 
Q 42.625 51.21875 45.40625 46.390625 
L 45.40625 54.6875 
L 54.390625 54.6875 
z
" id="DejaVuSans-103"/>
     </defs>
     <g transform="translate(107.812269 281.658014)scale(0.1 -0.1)">
      <use xlink:href="#DejaVuSans-112"/>
      <use x="63.476562" xlink:href="#DejaVuSans-114"/>
      <use x="104.558594" xlink:href="#DejaVuSans-111"/>
      <use x="165.740234" xlink:href="#DejaVuSans-98"/>
      <use x="229.216797" xlink:href="#DejaVuSans-105"/>
      <use x="257" xlink:href="#DejaVuSans-110"/>
      <use x="320.378906" xlink:href="#DejaVuSans-103"/>
     </g>
    </g>
   </g>
   <g id="text_31">
    <g clip-path="url(#pcfc6d02818)">
     <!-- the -->
     <defs>
      <path d="M 18.3125 70.21875 
L 18.3125 54.6875 
L 36.8125 54.6875 
L 36.8125 47.703125 
L 18.3125 47.703125 
L 18.3125 18.015625 
Q 18.3125 11.328125 20.140625 9.421875 
Q 21.96875 7.515625 27.59375 7.515625 
L 36.8125 7.515625 
L 36.8125 0 
L 27.59375 0 
Q 17.1875 0 13.234375 3.875 
Q 9.28125 7.765625 9.28125 18.015625 
L 9.28125 47.703125 
L 2.6875 47.703125 
L 2.6875 54.6875 
L 9.28125 54.6875 
L 9.28125 70.21875 
z
" id="DejaVuSans-116"/>
      <path d="M 54.890625 33.015625 
L 54.890625 0 
L 45.90625 0 
L 45.90625 32.71875 
Q 45.90625 40.484375 42.875 44.328125 
Q 39.84375 48.1875 33.796875 48.1875 
Q 26.515625 48.1875 22.3125 43.546875 
Q 18.109375 38.921875 18.109375 30.90625 
L 18.109375 0 
L 9.078125 0 
L 9.078125 75.984375 
L 18.109375 75.984375 
L 18.109375 46.1875 
Q 21.34375 51.125 25.703125 53.5625 
Q 30.078125 56 35.796875 56 
Q 45.21875 56 50.046875 50.171875 
Q 54.890625 44.34375 54.890625 33.015625 
z
" id="DejaVuSans-104"/>
     </defs>
     <g transform="translate(169.3541 281.658014)scale(0.1 -0.1)">
      <use xlink:href="#DejaVuSans-116"/>
      <use x="39.208984" xlink:href="#DejaVuSans-104"/>
      <use x="102.587891" xlink:href="#DejaVuSans-101"/>
     </g>
    </g>
   </g>
   <g id="text_32">
    <g clip-path="url(#pcfc6d02818)">
     <!-- increasing -->
     <g transform="translate(202.274836 281.658014)scale(0.1 -0.1)">
      <use xlink:href="#DejaVuSans-105"/>
      <use x="27.783203" xlink:href="#DejaVuSans-110"/>
      <use x="91.162109" xlink:href="#DejaVuSans-99"/>
      <use x="146.142578" xlink:href="#DejaVuSans-114"/>
      <use x="187.224609" xlink:href="#DejaVuSans-101"/>
      <use x="248.748047" xlink:href="#DejaVuSans-97"/>
      <use x="310.027344" xlink:href="#DejaVuSans-115"/>
      <use x="362.126953" xlink:href="#DejaVuSans-105"/>
      <use x="389.910156" xlink:href="#DejaVuSans-110"/>
      <use x="453.289062" xlink:href="#DejaVuSans-103"/>
     </g>
    </g>
   </g>
   <g id="text_33">
    <g clip-path="url(#pcfc6d02818)">
     <!-- gloom -->
     <g transform="translate(263.114323 281.658014)scale(0.1 -0.1)">
      <use xlink:href="#DejaVuSans-103"/>
      <use x="63.476562" xlink:href="#DejaVuSans-108"/>
      <use x="91.259766" xlink:href="#DejaVuSans-111"/>
      <use x="152.441406" xlink:href="#DejaVuSans-111"/>
      <use x="213.623047" xlink:href="#DejaVuSans-109"/>
     </g>
    </g>
   </g>
   <g id="text_34">
    <g clip-path="url(#pcfc6d02818)">
     <!-- with -->
     <g transform="translate(318.613185 281.658014)scale(0.1 -0.1)">
      <use xlink:href="#DejaVuSans-119"/>
      <use x="81.787109" xlink:href="#DejaVuSans-105"/>
      <use x="109.570312" xlink:href="#DejaVuSans-116"/>
      <use x="148.779297" xlink:href="#DejaVuSans-104"/>
     </g>
    </g>
   </g>
   <g id="text_35">
    <g clip-path="url(#pcfc6d02818)">
     <!-- their -->
     <g transform="translate(368.123765 281.658014)scale(0.1 -0.1)">
      <use xlink:href="#DejaVuSans-116"/>
      <use x="39.208984" xlink:href="#DejaVuSans-104"/>
      <use x="102.587891" xlink:href="#DejaVuSans-101"/>
      <use x="164.111328" xlink:href="#DejaVuSans-105"/>
      <use x="191.894531" xlink:href="#DejaVuSans-114"/>
     </g>
    </g>
   </g>
   <g id="text_36">
    <g clip-path="url(#pcfc6d02818)">
     <!-- night -->
     <g transform="translate(417.466377 281.658014)scale(0.1 -0.1)">
      <use xlink:href="#DejaVuSans-110"/>
      <use x="63.378906" xlink:href="#DejaVuSans-105"/>
      <use x="91.162109" xlink:href="#DejaVuSans-103"/>
      <use x="154.638672" xlink:href="#DejaVuSans-104"/>
      <use x="218.017578" xlink:href="#DejaVuSans-116"/>
     </g>
    </g>
   </g>
   <g id="text_37">
    <g clip-path="url(#pcfc6d02818)">
     <!-- glasses -->
     <g transform="translate(462.362895 281.658014)scale(0.1 -0.1)">
      <use xlink:href="#DejaVuSans-103"/>
      <use x="63.476562" xlink:href="#DejaVuSans-108"/>
      <use x="91.259766" xlink:href="#DejaVuSans-97"/>
      <use x="152.539062" xlink:href="#DejaVuSans-115"/>
      <use x="204.638672" xlink:href="#DejaVuSans-115"/>
      <use x="256.738281" xlink:href="#DejaVuSans-101"/>
      <use x="318.261719" xlink:href="#DejaVuSans-115"/>
     </g>
    </g>
   </g>
   <g id="text_38">
    <g clip-path="url(#pcfc6d02818)">
     <!-- . -->
     <defs>
      <path d="M 10.6875 12.40625 
L 21 12.40625 
L 21 0 
L 10.6875 0 
z
" id="DejaVuSans-46"/>
     </defs>
     <g transform="translate(529.84535 281.658014)scale(0.1 -0.1)">
      <use xlink:href="#DejaVuSans-46"/>
     </g>
    </g>
   </g>
   <g id="text_39">
    <g clip-path="url(#pcfc6d02818)">
     <!-- 1.1 -->
     <defs>
      <path d="M 12.40625 8.296875 
L 28.515625 8.296875 
L 28.515625 63.921875 
L 10.984375 60.40625 
L 10.984375 69.390625 
L 28.421875 72.90625 
L 38.28125 72.90625 
L 38.28125 8.296875 
L 54.390625 8.296875 
L 54.390625 0 
L 12.40625 0 
z
" id="DejaVuSans-49"/>
     </defs>
     <g transform="translate(171.293124 17.194069)scale(0.1 -0.1)">
      <use xlink:href="#DejaVuSans-49"/>
      <use x="63.623047" xlink:href="#DejaVuSans-46"/>
      <use x="95.410156" xlink:href="#DejaVuSans-49"/>
     </g>
    </g>
   </g>
   <g id="text_40">
    <g clip-path="url(#pcfc6d02818)">
     <!-- 1.2 -->
     <defs>
      <path d="M 19.1875 8.296875 
L 53.609375 8.296875 
L 53.609375 0 
L 7.328125 0 
L 7.328125 8.296875 
Q 12.9375 14.109375 22.625 23.890625 
Q 32.328125 33.6875 34.8125 36.53125 
Q 39.546875 41.84375 41.421875 45.53125 
Q 43.3125 49.21875 43.3125 52.78125 
Q 43.3125 58.59375 39.234375 62.25 
Q 35.15625 65.921875 28.609375 65.921875 
Q 23.96875 65.921875 18.8125 64.3125 
Q 13.671875 62.703125 7.8125 59.421875 
L 7.8125 69.390625 
Q 13.765625 71.78125 18.9375 73 
Q 24.125 74.21875 28.421875 74.21875 
Q 39.75 74.21875 46.484375 68.546875 
Q 53.21875 62.890625 53.21875 53.421875 
Q 53.21875 48.921875 51.53125 44.890625 
Q 49.859375 40.875 45.40625 35.40625 
Q 44.1875 33.984375 37.640625 27.21875 
Q 31.109375 20.453125 19.1875 8.296875 
z
" id="DejaVuSans-50"/>
     </defs>
     <g transform="translate(171.293124 71.958103)scale(0.1 -0.1)">
      <use xlink:href="#DejaVuSans-49"/>
      <use x="63.623047" xlink:href="#DejaVuSans-46"/>
      <use x="95.410156" xlink:href="#DejaVuSans-50"/>
     </g>
    </g>
   </g>
   <g id="text_41">
    <g clip-path="url(#pcfc6d02818)">
     <!-- 1.4 -->
     <defs>
      <path d="M 37.796875 64.3125 
L 12.890625 25.390625 
L 37.796875 25.390625 
z
M 35.203125 72.90625 
L 47.609375 72.90625 
L 47.609375 25.390625 
L 58.015625 25.390625 
L 58.015625 17.1875 
L 47.609375 17.1875 
L 47.609375 0 
L 37.796875 0 
L 37.796875 17.1875 
L 4.890625 17.1875 
L 4.890625 26.703125 
z
" id="DejaVuSans-52"/>
     </defs>
     <g transform="translate(17.947358 229.846303)scale(0.1 -0.1)">
      <use xlink:href="#DejaVuSans-49"/>
      <use x="63.623047" xlink:href="#DejaVuSans-46"/>
      <use x="95.410156" xlink:href="#DejaVuSans-52"/>
     </g>
    </g>
   </g>
   <g id="text_42">
    <g clip-path="url(#pcfc6d02818)">
     <!-- 1.5 -->
     <defs>
      <path d="M 10.796875 72.90625 
L 49.515625 72.90625 
L 49.515625 64.59375 
L 19.828125 64.59375 
L 19.828125 46.734375 
Q 21.96875 47.46875 24.109375 47.828125 
Q 26.265625 48.1875 28.421875 48.1875 
Q 40.625 48.1875 47.75 41.5 
Q 54.890625 34.8125 54.890625 23.390625 
Q 54.890625 11.625 47.5625 5.09375 
Q 40.234375 -1.421875 26.90625 -1.421875 
Q 22.3125 -1.421875 17.546875 -0.640625 
Q 12.796875 0.140625 7.71875 1.703125 
L 7.71875 11.625 
Q 12.109375 9.234375 16.796875 8.0625 
Q 21.484375 6.890625 26.703125 6.890625 
Q 35.15625 6.890625 40.078125 11.328125 
Q 45.015625 15.765625 45.015625 23.390625 
Q 45.015625 31 40.078125 35.4375 
Q 35.15625 39.890625 26.703125 39.890625 
Q 22.75 39.890625 18.8125 39.015625 
Q 14.890625 38.140625 10.796875 36.28125 
z
" id="DejaVuSans-53"/>
     </defs>
     <g transform="translate(68.500907 229.846303)scale(0.1 -0.1)">
      <use xlink:href="#DejaVuSans-49"/>
      <use x="63.623047" xlink:href="#DejaVuSans-46"/>
      <use x="95.410156" xlink:href="#DejaVuSans-53"/>
     </g>
    </g>
   </g>
   <g id="text_43">
    <g clip-path="url(#pcfc6d02818)">
     <!-- 1.6 -->
     <defs>
      <path d="M 33.015625 40.375 
Q 26.375 40.375 22.484375 35.828125 
Q 18.609375 31.296875 18.609375 23.390625 
Q 18.609375 15.53125 22.484375 10.953125 
Q 26.375 6.390625 33.015625 6.390625 
Q 39.65625 6.390625 43.53125 10.953125 
Q 47.40625 15.53125 47.40625 23.390625 
Q 47.40625 31.296875 43.53125 35.828125 
Q 39.65625 40.375 33.015625 40.375 
z
M 52.59375 71.296875 
L 52.59375 62.3125 
Q 48.875 64.0625 45.09375 64.984375 
Q 41.3125 65.921875 37.59375 65.921875 
Q 27.828125 65.921875 22.671875 59.328125 
Q 17.53125 52.734375 16.796875 39.40625 
Q 19.671875 43.65625 24.015625 45.921875 
Q 28.375 48.1875 33.59375 48.1875 
Q 44.578125 48.1875 50.953125 41.515625 
Q 57.328125 34.859375 57.328125 23.390625 
Q 57.328125 12.15625 50.6875 5.359375 
Q 44.046875 -1.421875 33.015625 -1.421875 
Q 20.359375 -1.421875 13.671875 8.265625 
Q 6.984375 17.96875 6.984375 36.375 
Q 6.984375 53.65625 15.1875 63.9375 
Q 23.390625 74.21875 37.203125 74.21875 
Q 40.921875 74.21875 44.703125 73.484375 
Q 48.484375 72.75 52.59375 71.296875 
z
" id="DejaVuSans-54"/>
     </defs>
     <g transform="translate(119.054457 229.846303)scale(0.1 -0.1)">
      <use xlink:href="#DejaVuSans-49"/>
      <use x="63.623047" xlink:href="#DejaVuSans-46"/>
      <use x="95.410156" xlink:href="#DejaVuSans-54"/>
     </g>
    </g>
   </g>
   <g id="text_44">
    <g clip-path="url(#pcfc6d02818)">
     <!-- 1.7 -->
     <defs>
      <path d="M 8.203125 72.90625 
L 55.078125 72.90625 
L 55.078125 68.703125 
L 28.609375 0 
L 18.3125 0 
L 43.21875 64.59375 
L 8.203125 64.59375 
z
" id="DejaVuSans-55"/>
     </defs>
     <g transform="translate(228.587147 125.502124)scale(0.1 -0.1)">
      <use xlink:href="#DejaVuSans-49"/>
      <use x="63.623047" xlink:href="#DejaVuSans-46"/>
      <use x="95.410156" xlink:href="#DejaVuSans-55"/>
     </g>
    </g>
   </g>
   <g id="text_45">
    <g clip-path="url(#pcfc6d02818)">
     <!-- 1.8 -->
     <defs>
      <path d="M 31.78125 34.625 
Q 24.75 34.625 20.71875 30.859375 
Q 16.703125 27.09375 16.703125 20.515625 
Q 16.703125 13.921875 20.71875 10.15625 
Q 24.75 6.390625 31.78125 6.390625 
Q 38.8125 6.390625 42.859375 10.171875 
Q 46.921875 13.96875 46.921875 20.515625 
Q 46.921875 27.09375 42.890625 30.859375 
Q 38.875 34.625 31.78125 34.625 
z
M 21.921875 38.8125 
Q 15.578125 40.375 12.03125 44.71875 
Q 8.5 49.078125 8.5 55.328125 
Q 8.5 64.0625 14.71875 69.140625 
Q 20.953125 74.21875 31.78125 74.21875 
Q 42.671875 74.21875 48.875 69.140625 
Q 55.078125 64.0625 55.078125 55.328125 
Q 55.078125 49.078125 51.53125 44.71875 
Q 48 40.375 41.703125 38.8125 
Q 48.828125 37.15625 52.796875 32.3125 
Q 56.78125 27.484375 56.78125 20.515625 
Q 56.78125 9.90625 50.3125 4.234375 
Q 43.84375 -1.421875 31.78125 -1.421875 
Q 19.734375 -1.421875 13.25 4.234375 
Q 6.78125 9.90625 6.78125 20.515625 
Q 6.78125 27.484375 10.78125 32.3125 
Q 14.796875 37.15625 21.921875 38.8125 
z
M 18.3125 54.390625 
Q 18.3125 48.734375 21.84375 45.5625 
Q 25.390625 42.390625 31.78125 42.390625 
Q 38.140625 42.390625 41.71875 45.5625 
Q 45.3125 48.734375 45.3125 54.390625 
Q 45.3125 60.0625 41.71875 63.234375 
Q 38.140625 66.40625 31.78125 66.40625 
Q 25.390625 66.40625 21.84375 63.234375 
Q 18.3125 60.0625 18.3125 54.390625 
z
" id="DejaVuSans-56"/>
     </defs>
     <g transform="translate(422.375752 178.034593)scale(0.1 -0.1)">
      <use xlink:href="#DejaVuSans-49"/>
      <use x="63.623047" xlink:href="#DejaVuSans-46"/>
      <use x="95.410156" xlink:href="#DejaVuSans-56"/>
     </g>
    </g>
   </g>
   <g id="text_46">
    <g clip-path="url(#pcfc6d02818)">
     <!-- 1.9 -->
     <defs>
      <path d="M 10.984375 1.515625 
L 10.984375 10.5 
Q 14.703125 8.734375 18.5 7.8125 
Q 22.3125 6.890625 25.984375 6.890625 
Q 35.75 6.890625 40.890625 13.453125 
Q 46.046875 20.015625 46.78125 33.40625 
Q 43.953125 29.203125 39.59375 26.953125 
Q 35.25 24.703125 29.984375 24.703125 
Q 19.046875 24.703125 12.671875 31.3125 
Q 6.296875 37.9375 6.296875 49.421875 
Q 6.296875 60.640625 12.9375 67.421875 
Q 19.578125 74.21875 30.609375 74.21875 
Q 43.265625 74.21875 49.921875 64.515625 
Q 56.59375 54.828125 56.59375 36.375 
Q 56.59375 19.140625 48.40625 8.859375 
Q 40.234375 -1.421875 26.421875 -1.421875 
Q 22.703125 -1.421875 18.890625 -0.6875 
Q 15.09375 0.046875 10.984375 1.515625 
z
M 30.609375 32.421875 
Q 37.25 32.421875 41.125 36.953125 
Q 45.015625 41.5 45.015625 49.421875 
Q 45.015625 57.28125 41.125 61.84375 
Q 37.25 66.40625 30.609375 66.40625 
Q 23.96875 66.40625 20.09375 61.84375 
Q 16.21875 57.28125 16.21875 49.421875 
Q 16.21875 41.5 20.09375 36.953125 
Q 23.96875 32.421875 30.609375 32.421875 
z
" id="DejaVuSans-57"/>
     </defs>
     <g transform="translate(321.268653 229.846303)scale(0.1 -0.1)">
      <use xlink:href="#DejaVuSans-49"/>
      <use x="63.623047" xlink:href="#DejaVuSans-46"/>
      <use x="95.410156" xlink:href="#DejaVuSans-57"/>
     </g>
    </g>
   </g>
   <g id="text_47">
    <g clip-path="url(#pcfc6d02818)">
     <!-- 1.10 -->
     <defs>
      <path d="M 31.78125 66.40625 
Q 24.171875 66.40625 20.328125 58.90625 
Q 16.5 51.421875 16.5 36.375 
Q 16.5 21.390625 20.328125 13.890625 
Q 24.171875 6.390625 31.78125 6.390625 
Q 39.453125 6.390625 43.28125 13.890625 
Q 47.125 21.390625 47.125 36.375 
Q 47.125 51.421875 43.28125 58.90625 
Q 39.453125 66.40625 31.78125 66.40625 
z
M 31.78125 74.21875 
Q 44.046875 74.21875 50.515625 64.515625 
Q 56.984375 54.828125 56.984375 36.375 
Q 56.984375 17.96875 50.515625 8.265625 
Q 44.046875 -1.421875 31.78125 -1.421875 
Q 19.53125 -1.421875 13.0625 8.265625 
Q 6.59375 17.96875 6.59375 36.375 
Q 6.59375 54.828125 13.0625 64.515625 
Q 19.53125 74.21875 31.78125 74.21875 
z
" id="DejaVuSans-48"/>
     </defs>
     <g transform="translate(368.640953 229.846303)scale(0.1 -0.1)">
      <use xlink:href="#DejaVuSans-49"/>
      <use x="63.623047" xlink:href="#DejaVuSans-46"/>
      <use x="95.410156" xlink:href="#DejaVuSans-49"/>
      <use x="159.033203" xlink:href="#DejaVuSans-48"/>
     </g>
    </g>
   </g>
   <g id="text_48">
    <g clip-path="url(#pcfc6d02818)">
     <!-- 1.11 -->
     <g transform="translate(419.194502 229.846303)scale(0.1 -0.1)">
      <use xlink:href="#DejaVuSans-49"/>
      <use x="63.623047" xlink:href="#DejaVuSans-46"/>
      <use x="95.410156" xlink:href="#DejaVuSans-49"/>
      <use x="159.033203" xlink:href="#DejaVuSans-49"/>
     </g>
    </g>
   </g>
   <g id="text_49">
    <g clip-path="url(#pcfc6d02818)">
     <!-- 1.12 -->
     <g transform="translate(469.748051 229.846303)scale(0.1 -0.1)">
      <use xlink:href="#DejaVuSans-49"/>
      <use x="63.623047" xlink:href="#DejaVuSans-46"/>
      <use x="95.410156" xlink:href="#DejaVuSans-49"/>
      <use x="159.033203" xlink:href="#DejaVuSans-50"/>
     </g>
    </g>
   </g>
   <g id="text_50">
    <g clip-path="url(#pcfc6d02818)">
     <!-- 1.13 -->
     <defs>
      <path d="M 40.578125 39.3125 
Q 47.65625 37.796875 51.625 33 
Q 55.609375 28.21875 55.609375 21.1875 
Q 55.609375 10.40625 48.1875 4.484375 
Q 40.765625 -1.421875 27.09375 -1.421875 
Q 22.515625 -1.421875 17.65625 -0.515625 
Q 12.796875 0.390625 7.625 2.203125 
L 7.625 11.71875 
Q 11.71875 9.328125 16.59375 8.109375 
Q 21.484375 6.890625 26.8125 6.890625 
Q 36.078125 6.890625 40.9375 10.546875 
Q 45.796875 14.203125 45.796875 21.1875 
Q 45.796875 27.640625 41.28125 31.265625 
Q 36.765625 34.90625 28.71875 34.90625 
L 20.21875 34.90625 
L 20.21875 43.015625 
L 29.109375 43.015625 
Q 36.375 43.015625 40.234375 45.921875 
Q 44.09375 48.828125 44.09375 54.296875 
Q 44.09375 59.90625 40.109375 62.90625 
Q 36.140625 65.921875 28.71875 65.921875 
Q 24.65625 65.921875 20.015625 65.03125 
Q 15.375 64.15625 9.8125 62.3125 
L 9.8125 71.09375 
Q 15.4375 72.65625 20.34375 73.4375 
Q 25.25 74.21875 29.59375 74.21875 
Q 40.828125 74.21875 47.359375 69.109375 
Q 53.90625 64.015625 53.90625 55.328125 
Q 53.90625 49.265625 50.4375 45.09375 
Q 46.96875 40.921875 40.578125 39.3125 
z
" id="DejaVuSans-51"/>
     </defs>
     <g transform="translate(166.426756 229.846303)scale(0.1 -0.1)">
      <use xlink:href="#DejaVuSans-49"/>
      <use x="63.623047" xlink:href="#DejaVuSans-46"/>
      <use x="95.410156" xlink:href="#DejaVuSans-49"/>
      <use x="159.033203" xlink:href="#DejaVuSans-51"/>
     </g>
    </g>
   </g>
   <g id="text_51">
    <g clip-path="url(#pcfc6d02818)">
     <!-- 1.14 -->
     <g transform="translate(242.25708 178.034593)scale(0.1 -0.1)">
      <use xlink:href="#DejaVuSans-49"/>
      <use x="63.623047" xlink:href="#DejaVuSans-46"/>
      <use x="95.410156" xlink:href="#DejaVuSans-49"/>
      <use x="159.033203" xlink:href="#DejaVuSans-52"/>
     </g>
    </g>
   </g>
   <g id="text_52">
    <g clip-path="url(#pcfc6d02818)">
     <!-- 1.15 -->
     <g transform="translate(267.533854 229.846303)scale(0.1 -0.1)">
      <use xlink:href="#DejaVuSans-49"/>
      <use x="63.623047" xlink:href="#DejaVuSans-46"/>
      <use x="95.410156" xlink:href="#DejaVuSans-49"/>
      <use x="159.033203" xlink:href="#DejaVuSans-53"/>
     </g>
    </g>
   </g>
   <g id="text_53">
    <g clip-path="url(#pcfc6d02818)">
     <!-- 1.16 -->
     <g transform="translate(216.980305 229.846303)scale(0.1 -0.1)">
      <use xlink:href="#DejaVuSans-49"/>
      <use x="63.623047" xlink:href="#DejaVuSans-46"/>
      <use x="95.410156" xlink:href="#DejaVuSans-49"/>
      <use x="159.033203" xlink:href="#DejaVuSans-54"/>
     </g>
    </g>
   </g>
   <g id="text_54">
    <g clip-path="url(#pcfc6d02818)">
     <!-- 1.17 -->
     <g transform="translate(520.3016 229.846303)scale(0.1 -0.1)">
      <use xlink:href="#DejaVuSans-49"/>
      <use x="63.623047" xlink:href="#DejaVuSans-46"/>
      <use x="95.410156" xlink:href="#DejaVuSans-49"/>
      <use x="159.033203" xlink:href="#DejaVuSans-55"/>
     </g>
    </g>
   </g>
  </g>
 </g>
 <defs>
  <clipPath id="pcfc6d02818">
   <rect height="293.333333" width="557.333333" x="0" y="0"/>
  </clipPath>
 </defs>
</svg>
