<?xml version="1.0" encoding="UTF-8"?>
<!DOCTYPE svg  PUBLIC '-//W3C//DTD SVG 1.1//EN'  'http://www.w3.org/Graphics/SVG/1.1/DTD/svg11.dtd'>
<svg width="1925.3pt" height="1013.3pt" version="1.1" viewBox="0 0 1925.3 1013.3" xmlns="http://www.w3.org/2000/svg" xmlns:xlink="http://www.w3.org/1999/xlink">
<defs>
<style type="text/css">*{stroke-linecap:butt;stroke-linejoin:round;}</style>
</defs>
<path d="m0 1013.3h1925.3v-1013.3h-1925.3z" fill="#fff"/>
<g fill="none" stroke="#000">
<path d="m333.03 46.061v154.93" clip-path="url(#a)"/>
<path d="m333.03 200.99 329.44 154.62" clip-path="url(#a)"/>
<path d="m333.03 200.99-72.506 615.47" clip-path="url(#a)"/>
<path d="m333.03 200.99-43.297 615.47" clip-path="url(#a)"/>
<path d="m333.03 200.99-124.18 615.47" clip-path="url(#a)"/>
<path d="m333.03 200.99-99.469 615.47" clip-path="url(#a)"/>
<path d="m333.03 200.99-11.841 615.47" clip-path="url(#a)"/>
<path d="m333.03 200.99 21.862 615.47" clip-path="url(#a)"/>
<path d="m662.46 355.62-568.21 460.85" clip-path="url(#a)"/>
<path d="m662.46 355.62-535.44 154.23" clip-path="url(#a)"/>
<path d="m662.46 355.62-164.52 154.23" clip-path="url(#a)"/>
<path d="m662.46 355.62 96.861 460.85" clip-path="url(#a)"/>
<path d="m662.46 355.62 426.9 154.23" clip-path="url(#a)"/>
<path d="m662.46 355.62 683.29 460.85" clip-path="url(#a)"/>
<path d="m662.46 355.62 593.14 154.23" clip-path="url(#a)"/>
<path d="m662.46 355.62-574.95 460.85" clip-path="url(#a)"/>
<path d="m662.46 355.62 42.937 460.85" clip-path="url(#a)"/>
<path d="m260.52 816.46v150.81" clip-path="url(#a)"/>
<path d="m289.73 816.46v150.81" clip-path="url(#a)"/>
<path d="m94.256 816.46v150.81" clip-path="url(#a)"/>
<path d="m127.02 509.85 59.355 153.71" clip-path="url(#a)"/>
<path d="m127.02 509.85-23.779 306.62" clip-path="url(#a)"/>
<path d="m127.02 509.85-12.545 306.62" clip-path="url(#a)"/>
<path d="m127.02 509.85 0.93619 306.62" clip-path="url(#a)"/>
<path d="m127.02 509.85 35.388 153.71" clip-path="url(#a)"/>
<path d="m497.94 509.85-107.1 306.62" clip-path="url(#a)"/>
<path d="m497.94 509.85-68.904 306.62" clip-path="url(#a)"/>
<path d="m497.94 509.85-28.46 306.62" clip-path="url(#a)"/>
<path d="m497.94 509.85 14.23 306.62" clip-path="url(#a)"/>
<path d="m497.94 509.85 59.167 306.62" clip-path="url(#a)"/>
<path d="m497.94 509.85 131.07 153.71" clip-path="url(#a)"/>
<path d="m759.33 816.46v150.81" clip-path="url(#a)"/>
<path d="m1089.4 509.85-214.7 153.71" clip-path="url(#a)"/>
<path d="m1089.4 509.85-91.872 306.62" clip-path="url(#a)"/>
<path d="m1089.4 509.85-26.713 306.62" clip-path="url(#a)"/>
<path d="m1089.4 509.85 40.693 306.62" clip-path="url(#a)"/>
<path d="m1089.4 509.85 182.25 306.62" clip-path="url(#a)"/>
<path d="m1089.4 509.85 110.35 306.62" clip-path="url(#a)"/>
<path d="m1345.8 816.46v150.81" clip-path="url(#a)"/>
<path d="m1255.6 509.85 166.55 306.62" clip-path="url(#a)"/>
<path d="m1255.6 509.85 245.19 306.62" clip-path="url(#a)"/>
<path d="m1255.6 509.85 453.02 153.71" clip-path="url(#a)"/>
<path d="m1255.6 509.85-864.76 306.62" clip-path="url(#a)" stroke-dasharray="3.7,1.6"/>
<path d="m1422.1 816.46v150.81" clip-path="url(#a)"/>
<path d="m1500.8 816.46v150.81" clip-path="url(#a)"/>
<path d="m1708.6 663.56-126.95 152.91" clip-path="url(#a)"/>
<path d="m1708.6 663.56-43.814 152.91" clip-path="url(#a)"/>
<path d="m1708.6 663.56 41.567 152.91" clip-path="url(#a)"/>
<path d="m1708.6 663.56 129.19 152.91" clip-path="url(#a)"/>
<path d="m1581.7 816.46v150.81" clip-path="url(#a)"/>
<path d="m1664.8 816.46v150.81" clip-path="url(#a)"/>
<path d="m874.66 663.56-59.167 152.91" clip-path="url(#a)"/>
<path d="m874.66 663.56-0.74895 152.91" clip-path="url(#a)"/>
<path d="m874.66 663.56 59.916 152.91" clip-path="url(#a)"/>
<path d="m997.49 816.46v150.81" clip-path="url(#a)"/>
<path d="m1062.7 816.46v150.81" clip-path="url(#a)"/>
<path d="m1130.1 816.46v150.81" clip-path="url(#a)"/>
<path d="m1271.6 816.46v150.81" clip-path="url(#a)"/>
<path d="m815.5 816.46v150.81" clip-path="url(#a)"/>
<path d="m873.92 816.46v150.81" clip-path="url(#a)"/>
<path d="m934.58 816.46v150.81" clip-path="url(#a)"/>
<path d="m390.84 816.46v150.81" clip-path="url(#a)"/>
<path d="m429.04 816.46v150.81" clip-path="url(#a)"/>
<path d="m469.48 816.46v150.81" clip-path="url(#a)"/>
<path d="m512.17 816.46v150.81" clip-path="url(#a)"/>
<path d="m557.11 816.46v150.81" clip-path="url(#a)"/>
<path d="m629.01 663.56-24.715 152.91" clip-path="url(#a)"/>
<path d="m629.01 663.56 24.715 152.91" clip-path="url(#a)"/>
<path d="m604.29 816.46v150.81" clip-path="url(#a)"/>
<path d="m653.72 816.46v150.81" clip-path="url(#a)"/>
<path d="m103.24 816.46v150.81" clip-path="url(#a)"/>
<path d="m114.48 816.46v150.81" clip-path="url(#a)"/>
<path d="m127.96 816.46v150.81" clip-path="url(#a)"/>
<path d="m162.41 663.56 23.966 152.91" clip-path="url(#a)"/>
<path d="m162.41 663.56v152.91" clip-path="url(#a)"/>
<path d="m162.41 816.46-18.724 150.81" clip-path="url(#a)"/>
<path d="m162.41 816.46-0.74895 150.81" clip-path="url(#a)"/>
<path d="m162.41 816.46 19.473 150.81" clip-path="url(#a)"/>
<path d="m1230.2 355.62-140.88 154.23" clip-path="url(#a)"/>
<path d="m1230.2 355.62 115.52 460.85" clip-path="url(#a)"/>
<path d="m1230.2 355.62 25.36 154.23" clip-path="url(#a)"/>
<path d="m782.21 355.62-284.27 154.23" clip-path="url(#a)"/>
<path d="m782.21 355.62-22.885 460.85" clip-path="url(#a)"/>
<path d="m782.21 355.62 307.15 154.23" clip-path="url(#a)"/>
<path d="m239.74 355.62-145.48 460.85" clip-path="url(#a)"/>
<path d="m239.74 355.62-112.72 154.23" clip-path="url(#a)"/>
<path d="m239.74 355.62 258.2 154.23" clip-path="url(#a)"/>
<path d="m87.515 816.46v150.81" clip-path="url(#a)"/>
<path d="m208.85 816.46v150.81" clip-path="url(#a)"/>
<path d="m233.56 816.46v150.81" clip-path="url(#a)"/>
<path d="m321.19 816.46v150.81" clip-path="url(#a)"/>
<path d="m354.89 816.46v150.81" clip-path="url(#a)"/>
<path d="m705.4 816.46v150.81" clip-path="url(#a)"/>
<path d="m1199.7 816.46v150.81" clip-path="url(#a)"/>
<path d="m1750.2 816.46v150.81" clip-path="url(#a)"/>
<path d="m1837.8 816.46v150.81" clip-path="url(#a)"/>
</g>
<path d="m326.76 120.52v6.0162q0 2.4 2.4 2.4h7.7425q2.4 0 2.4-2.4v-6.0162q0-2.4-2.4-2.4h-7.7425q-2.4 0-2.4 2.4z" clip-path="url(#a)" fill="#fff" stroke="#fff"/>
<g clip-path="url(#a)">
<defs>
<path id="ac" d="m9.8125 72.906h9.8594v-29.891h35.844v29.891h9.8594v-72.906h-9.8594v34.719h-35.844v-34.719h-9.8594z"/>
</defs>
<g transform="translate(330.82 120.52) rotate(90) scale(.08 -.08)">
<use xlink:href="#ac"/>
</g>
</g>
<path d="m492.61 282.82 4.954 2.3252q2.1726 1.0197 3.1923-1.1529l3.2897-7.0089q1.0197-2.1726-1.1529-3.1923l-4.954-2.3252q-2.1726-1.0197-3.1923 1.1529l-3.2897 7.0089q-1.0197 2.1726 1.1529 3.1923z" clip-path="url(#a)" fill="#fff" stroke="#fff"/>
<g clip-path="url(#a)">
<defs>
<path id="m" d="m34.188 63.188-13.391-36.281h26.812zm-5.5781 9.7188h11.188l27.781-72.906h-10.25l-6.6406 18.703h-32.859l-6.6406-18.703h-10.406z"/>
</defs>
<g transform="translate(494.33 279.14) rotate(25.143) scale(.08 -.08)">
<use xlink:href="#m"/>
</g>
</g>
<path d="m302.68 512.18 0.64027-5.4349q0.28079-2.3835-2.1027-2.6643l-7.6893-0.90585q-2.3835-0.28079-2.6643 2.1027l-0.64027 5.4349q-0.28079 2.3835 2.1027 2.6643l7.6893 0.90585q2.3835 0.28079 2.6643-2.1027z" clip-path="url(#a)" fill="#fff" stroke="#fff"/>
<g clip-path="url(#a)">
<g transform="translate(298.65 511.7) rotate(-83.281) scale(.08 -.08)">
<use xlink:href="#m"/>
</g>
</g>
<path d="m317.47 511.58 0.3385-4.8119q0.16842-2.3941-2.2257-2.5625l-7.7234-0.54333q-2.3941-0.16842-2.5625 2.2257l-0.33851 4.8119q-0.16842 2.3941 2.2257 2.5625l7.7234 0.54333q2.3941 0.16842 2.5625-2.2257z" clip-path="url(#a)" fill="#fff" stroke="#fff"/>
<g clip-path="url(#a)">
<defs>
<path id="x" d="m19.672 64.797v-27.391h12.406q6.8906 0 10.641 3.5625 3.7656 3.5625 3.7656 10.156 0 6.5469-3.7656 10.109-3.75 3.5625-10.641 3.5625zm-9.8594 8.1094h22.266q12.266 0 18.531-5.5469 6.2812-5.5469 6.2812-16.234 0-10.797-6.2812-16.312-6.2656-5.5156-18.531-5.5156h-12.406v-29.297h-9.8594z"/>
</defs>
<g transform="translate(313.41 511.29) rotate(-85.976) scale(.08 -.08)">
<use xlink:href="#x"/>
</g>
</g>
<path d="m276.51 512.84 1.158-5.7393q0.47468-2.3526-1.8779-2.8273l-7.5896-1.5314q-2.3526-0.47468-2.8273 1.8779l-1.158 5.7393q-0.47468 2.3526 1.8779 2.8273l7.5895 1.5314q2.3526 0.47468 2.8273-1.8779z" clip-path="url(#a)" fill="#fff" stroke="#fff"/>
<g clip-path="url(#a)">
<defs>
<path id="t" d="m8.6875 72.906h9.9219v-44.297q0-11.719 4.2344-16.875 4.25-5.1406 13.781-5.1406 9.4688 0 13.719 5.1406 4.25 5.1562 4.25 16.875v44.297h9.9062v-45.516q0-14.25-7.0625-21.531-7.0469-7.2812-20.812-7.2812-13.828 0-20.891 7.2812-7.0469 7.2812-7.0469 21.531z"/>
</defs>
<g transform="translate(272.52 512.04) rotate(-78.593) scale(.08 -.08)">
<use xlink:href="#t"/>
</g>
</g>
<path d="m289.02 512.62 0.93413-5.78q0.3829-2.3693-1.9864-2.7522l-7.6433-1.2353q-2.3693-0.38291-2.7522 1.9864l-0.93413 5.78q-0.38291 2.3693 1.9864 2.7522l7.6433 1.2353q2.3693 0.3829 2.7522-1.9864z" clip-path="url(#a)" fill="#fff" stroke="#fff"/>
<g clip-path="url(#a)">
<g transform="translate(285.01 511.97) rotate(-80.82) scale(.08 -.08)">
<use xlink:href="#t"/>
</g>
</g>
<path d="m333.32 511.78 0.11262-5.8539q0.046166-2.3996-2.3534-2.4457l-7.7411-0.14893q-2.3996-0.046165-2.4457 2.3534l-0.11262 5.8539q-0.046166 2.3996 2.3534 2.4457l7.7411 0.14893q2.3996 0.046165 2.4457-2.3534z" clip-path="url(#a)" fill="#fff" stroke="#fff"/>
<g clip-path="url(#a)">
<g transform="translate(329.26 511.7) rotate(-88.898) scale(.08 -.08)">
<use xlink:href="#t"/>
</g>
</g>
<path d="m337.59 506.03 0.20784 5.8513q0.085195 2.3985 2.4837 2.3133l7.7376-0.27484q2.3985-0.085196 2.3133-2.4837l-0.20784-5.8513q-0.085195-2.3985-2.4837-2.3133l-7.7376 0.27484q-2.3985 0.085195-2.3133 2.4837z" clip-path="url(#a)" fill="#fff" stroke="#fff"/>
<g clip-path="url(#a)">
<g transform="translate(341.65 505.88) rotate(87.966) scale(.08 -.08)">
<use xlink:href="#t"/>
</g>
</g>
<path d="m380.58 592.31 3.462-2.8078q1.864-1.5118 0.3522-3.3758l-4.8771-6.0133q-1.5118-1.864-3.3758-0.3522l-3.462 2.8078q-1.864 1.5118-0.3522 3.3758l4.8771 6.0133q1.5118 1.864 3.3758 0.3522z" clip-path="url(#a)" fill="#fff" stroke="#fff"/>
<g clip-path="url(#a)">
<defs>
<path id="o" d="m9.8125 72.906h9.8594v-64.609h35.5v-8.2969h-45.359z"/>
</defs>
<g transform="translate(378.02 589.16) rotate(-39.044) scale(.08 -.08)">
<use xlink:href="#o"/>
</g>
</g>
<path d="m393.59 439.59 5.7812-1.6652q2.3062-0.6643 1.6419-2.9705l-2.1431-7.44q-0.6643-2.3062-2.9705-1.6419l-5.7812 1.6652q-2.3062 0.6643-1.6419 2.9705l2.1431 7.44q0.6643 2.3062 2.9705 1.6419z" clip-path="url(#a)" fill="#fff" stroke="#fff"/>
<g clip-path="url(#a)">
<g transform="translate(392.46 435.69) rotate(-16.069) scale(.08 -.08)">
<use xlink:href="#ac"/>
</g>
</g>
<path d="m582.3 439.36 4.3892-4.1146q1.7509-1.6414 0.10953-3.3923l-5.2953-5.6486q-1.6414-1.7509-3.3923-0.10953l-4.3892 4.1146q-1.7509 1.6414-0.10953 3.3923l5.2953 5.6486q1.6414 1.7509 3.3923 0.10953z" clip-path="url(#a)" fill="#fff" stroke="#fff"/>
<g clip-path="url(#a)">
<g transform="translate(579.52 436.4) rotate(-43.151) scale(.08 -.08)">
<use xlink:href="#ac"/>
</g>
</g>
<path d="m704.3 585.15 0.91685 4.3622q0.49365 2.3487 2.8423 1.855l7.577-1.5925q2.3487-0.49365 1.855-2.8423l-0.91685-4.3622q-0.49365-2.3487-2.8423-1.855l-7.577 1.5925q-2.3487 0.49365-1.855 2.8423z" clip-path="url(#a)" fill="#fff" stroke="#fff"/>
<g clip-path="url(#a)">
<g transform="translate(708.28 584.31) rotate(78.13) scale(.08 -.08)">
<use xlink:href="#o"/>
</g>
</g>
<path d="m870.95 437.61 5.6583 2.0442q2.2572 0.81549 3.0727-1.4417l2.6308-7.2818q0.81549-2.2572-1.4417-3.0727l-5.6583-2.0442q-2.2572-0.81549-3.0727 1.4417l-2.6308 7.2818q-0.81549 2.2572 1.4417 3.0727z" clip-path="url(#a)" fill="#fff" stroke="#fff"/>
<g clip-path="url(#a)">
<g transform="translate(872.34 433.79) rotate(19.864) scale(.08 -.08)">
<use xlink:href="#ac"/>
</g>
</g>
<path d="m998.76 589.99 3.6955 2.4925q1.9897 1.342 3.3317-0.64776l4.3293-6.419q1.342-1.9897-0.64776-3.3317l-3.6955-2.4925q-1.9897-1.342-3.3317 0.64776l-4.3293 6.419q-1.342 1.9897 0.64776 3.3317z" clip-path="url(#a)" fill="#fff" stroke="#fff"/>
<g clip-path="url(#a)">
<g transform="translate(1001 586.62) rotate(33.998) scale(.08 -.08)">
<use xlink:href="#o"/>
</g>
</g>
<path d="m954.54 438.04 5.8226 1.514q2.3228 0.60398 2.9267-1.7188l1.9485-7.4933q0.60398-2.3228-1.7188-2.9267l-5.8226-1.514q-2.3228-0.60398-2.9267 1.7188l-1.9485 7.4933q-0.60398 2.3228 1.7188 2.9267z" clip-path="url(#a)" fill="#fff" stroke="#fff"/>
<g clip-path="url(#a)">
<g transform="translate(955.57 434.11) rotate(14.576) scale(.08 -.08)">
<use xlink:href="#ac"/>
</g>
</g>
<path d="m376.63 592.76 4.5685-3.6619q1.8727-1.501 0.37164-3.3737l-4.8424-6.0413q-1.501-1.8727-3.3737-0.37164l-4.5685 3.6619q-1.8727 1.501-0.37164 3.3737l4.8424 6.0413q1.501 1.8727 3.3737 0.37164z" clip-path="url(#a)" fill="#fff" stroke="#fff"/>
<g clip-path="url(#a)">
<g transform="translate(374.09 589.59) rotate(-38.714) scale(.08 -.08)">
<use xlink:href="#t"/>
</g>
</g>
<path d="m677.42 583.71 0.54315 5.8298q0.22264 2.3897 2.6123 2.167l7.7091-0.71825q2.3896-0.22264 2.167-2.6123l-0.54315-5.8298q-0.22264-2.3897-2.6123-2.167l-7.7091 0.71825q-2.3897 0.22264-2.167 2.6123z" clip-path="url(#a)" fill="#fff" stroke="#fff"/>
<g clip-path="url(#a)">
<g transform="translate(681.46 583.33) rotate(84.677) scale(.08 -.08)">
<use xlink:href="#t"/>
</g>
</g>
<path d="m254.25 874.96v33.808q0 2.4 2.4 2.4h7.7425q2.4 0 2.4-2.4v-33.808q0-2.4-2.4-2.4h-7.7425q-2.4 0-2.4 2.4z" clip-path="url(#a)" fill="#fff" stroke="#fff"/>
<g clip-path="url(#a)">
<defs>
<path id="l" d="m-0.29688 72.906h61.672v-8.3125h-25.875v-64.594h-9.9062v64.594h-25.891z"/>
<path id="d" d="m56.203 29.594v-4.3906h-41.312q0.59375-9.2812 5.5938-14.141t13.938-4.8594q5.1719 0 10.031 1.2656t9.6562 3.8125v-8.5q-4.8438-2.0469-9.9219-3.125t-10.297-1.0781q-13.094 0-20.734 7.6094-7.6406 7.625-7.6406 20.625 0 13.422 7.25 21.297 7.25 7.8906 19.562 7.8906 11.031 0 17.453-7.1094 6.4219-7.0938 6.4219-19.297zm-8.9844 2.6406q-0.09375 7.3594-4.125 11.75-4.0312 4.4062-10.672 4.4062-7.5156 0-12.031-4.25t-5.2031-11.969z"/>
<path id="g" d="m41.109 46.297q-1.5156 0.875-3.2969 1.2812-1.7812 0.42188-3.9219 0.42188-7.625 0-11.703-4.9531t-4.0781-14.234v-28.812h-9.0312v54.688h9.0312v-8.5q2.8438 4.9844 7.375 7.3906 4.5469 2.4219 11.047 2.4219 0.92188 0 2.0469-0.125 1.125-0.10938 2.4844-0.35938z"/>
<path id="j" d="m52 44.188q3.375 6.0625 8.0625 8.9375t11.031 2.875q8.5469 0 13.188-5.9844 4.6406-5.9688 4.6406-17v-33.016h-9.0312v32.719q0 7.8594-2.7969 11.656-2.7812 3.8125-8.4844 3.8125-6.9844 0-11.047-4.6406-4.0469-4.625-4.0469-12.641v-30.906h-9.0312v32.719q0 7.9062-2.7812 11.688t-8.5938 3.7812q-6.8906 0-10.953-4.6562-4.0469-4.6562-4.0469-12.625v-30.906h-9.0312v54.688h9.0312v-8.5q3.0781 5.0312 7.375 7.4219t10.203 2.3906q5.9688 0 10.141-3.0312 4.1719-3.0156 6.1719-8.7812z"/>
<path id="h" d="m9.4219 54.688h8.9844v-54.688h-8.9844zm0 21.297h8.9844v-11.391h-8.9844z"/>
<path id="f" d="m54.891 33.016v-33.016h-8.9844v32.719q0 7.7656-3.0312 11.609-3.0312 3.8594-9.0781 3.8594-7.2812 0-11.484-4.6406-4.2031-4.625-4.2031-12.641v-30.906h-9.0312v54.688h9.0312v-8.5q3.2344 4.9375 7.5938 7.375 4.375 2.4375 10.094 2.4375 9.4219 0 14.25-5.8281 4.8438-5.8281 4.8438-17.156z"/>
<path id="i" d="m34.281 27.484q-10.891 0-15.094-2.4844t-4.2031-8.5q0-4.7812 3.1562-7.5938 3.1562-2.7969 8.5625-2.7969 7.4844 0 12 5.2969t4.5156 14.078v2zm17.922 3.7188v-31.203h-8.9844v8.2969q-3.0781-4.9688-7.6719-7.3438t-11.234-2.375q-8.3906 0-13.359 4.7188-4.9531 4.7188-4.9531 12.625 0 9.2188 6.1719 13.906 6.1875 4.6875 18.438 4.6875h12.609v0.89062q0 6.2031-4.0781 9.5938t-11.453 3.3906q-4.6875 0-9.1406-1.125-4.4375-1.125-8.5312-3.375v8.3125q4.9219 1.9062 9.5625 2.8438 4.6406 0.95312 9.0312 0.95312 11.875 0 17.734-6.1562 5.8594-6.1406 5.8594-18.641z"/>
<path id="k" d="m9.4219 75.984h8.9844v-75.984h-8.9844z"/>
</defs>
<g transform="translate(258.32 874.96) rotate(90) scale(.08 -.08)">
<use xlink:href="#l"/>
<use x="44.083984" xlink:href="#d"/>
<use x="105.607422" xlink:href="#g"/>
<use x="144.970703" xlink:href="#j"/>
<use x="242.382812" xlink:href="#h"/>
<use x="270.166016" xlink:href="#f"/>
<use x="333.544922" xlink:href="#i"/>
<use x="394.824219" xlink:href="#k"/>
</g>
</g>
<path d="m283.46 874.96v33.808q0 2.4 2.4 2.4h7.7425q2.4 0 2.4-2.4v-33.808q0-2.4-2.4-2.4h-7.7425q-2.4 0-2.4 2.4z" clip-path="url(#a)" fill="#fff" stroke="#fff"/>
<g clip-path="url(#a)">
<g transform="translate(287.52 874.96) rotate(90) scale(.08 -.08)">
<use xlink:href="#l"/>
<use x="44.083984" xlink:href="#d"/>
<use x="105.607422" xlink:href="#g"/>
<use x="144.970703" xlink:href="#j"/>
<use x="242.382812" xlink:href="#h"/>
<use x="270.166016" xlink:href="#f"/>
<use x="333.544922" xlink:href="#i"/>
<use x="394.824219" xlink:href="#k"/>
</g>
</g>
<path d="m87.984 874.96v33.808q0 2.4 2.4 2.4h7.7425q2.4 0 2.4-2.4v-33.808q0-2.4-2.4-2.4h-7.7425q-2.4 0-2.4 2.4z" clip-path="url(#a)" fill="#fff" stroke="#fff"/>
<g clip-path="url(#a)">
<g transform="translate(92.048 874.96) rotate(90) scale(.08 -.08)">
<use xlink:href="#l"/>
<use x="44.083984" xlink:href="#d"/>
<use x="105.607422" xlink:href="#g"/>
<use x="144.970703" xlink:href="#j"/>
<use x="242.382812" xlink:href="#h"/>
<use x="270.166016" xlink:href="#f"/>
<use x="333.544922" xlink:href="#i"/>
<use x="394.824219" xlink:href="#k"/>
</g>
</g>
<path d="m149.86 586.41 1.9713 5.1051q0.86454 2.2389 3.1034 1.3743l7.2227-2.789q2.2389-0.86454 1.3743-3.1034l-1.9713-5.1051q-0.86454-2.2389-3.1034-1.3743l-7.2227 2.789q-2.2389 0.86454-1.3743 3.1034z" clip-path="url(#a)" fill="#fff" stroke="#fff"/>
<g clip-path="url(#a)">
<g transform="translate(153.65 584.95) rotate(68.886) scale(.08 -.08)">
<use xlink:href="#m"/>
</g>
</g>
<path d="m121.15 666.73 0.4793-6.1802q0.18557-2.3928-2.2072-2.5784l-7.7193-0.59866q-2.3928-0.18557-2.5784 2.2072l-0.4793 6.1802q-0.18557 2.3928 2.2072 2.5784l7.7193 0.59866q2.3928 0.18557 2.5784-2.2072z" clip-path="url(#a)" fill="#fff" stroke="#fff"/>
<g clip-path="url(#a)">
<defs>
<path id="aw" d="m59.516 10.406v19.578h-16.109v8.1094h25.875v-31.312q-5.7031-4.0469-12.594-6.125-6.875-2.0781-14.688-2.0781-17.094 0-26.75 9.9844-9.6406 10-9.6406 27.812 0 17.875 9.6406 27.859 9.6562 9.9844 26.75 9.9844 7.125 0 13.547-1.7656 6.4219-1.75 11.844-5.1719v-10.5q-5.4688 4.6406-11.625 6.9844t-12.938 2.3438q-13.391 0-20.109-7.4688-6.7031-7.4688-6.7031-22.266 0-14.75 6.7031-22.219 6.7188-7.4688 20.109-7.4688 5.2188 0 9.3125 0.90625 4.1094 0.90625 7.375 2.8125z"/>
</defs>
<g transform="translate(117.09 666.42) rotate(-85.565) scale(.08 -.08)">
<use xlink:href="#aw"/>
</g>
</g>
<path d="m126.89 666.49 0.25182-6.1549q0.098112-2.398-2.2999-2.4961l-7.736-0.31651q-2.398-0.098112-2.4961 2.2999l-0.25182 6.1549q-0.098112 2.398 2.2999 2.4961l7.736 0.31651q2.398 0.098112 2.4961-2.2999z" clip-path="url(#a)" fill="#fff" stroke="#fff"/>
<g clip-path="url(#a)">
<defs>
<path id="ag" d="m19.672 64.797v-56.688h11.922q15.094 0 22.094 6.8281 7 6.8438 7 21.594 0 14.641-7 21.453t-22.094 6.8125zm-9.8594 8.1094h20.266q21.188 0 31.094-8.8125 9.9219-8.8125 9.9219-27.562 0-18.859-9.9688-27.703-9.9531-8.8281-31.047-8.8281h-20.266z"/>
</defs>
<g transform="translate(122.83 666.32) rotate(-87.657) scale(.08 -.08)">
<use xlink:href="#ag"/>
</g>
</g>
<path d="m121.21 660.76 0.014728 4.8237q0.007328 2.4 2.4073 2.3927l7.7425-0.02364q2.4-0.007328 2.3927-2.4073l-0.014728-4.8237q-0.007328-2.4-2.4073-2.3927l-7.7425 0.023641q-2.4 0.007327-2.3927 2.4073z" clip-path="url(#a)" fill="#fff" stroke="#fff"/>
<g clip-path="url(#a)">
<g transform="translate(125.28 660.75) rotate(89.825) scale(.08 -.08)">
<use xlink:href="#x"/>
</g>
</g>
<path d="m137.99 585.44 1.2278 5.333q0.53846 2.3388 2.8773 1.8004l7.5451-1.7371q2.3388-0.53846 1.8004-2.8773l-1.2278-5.333q-0.53846-2.3388-2.8773-1.8004l-7.5451 1.7371q-2.3388 0.53846-1.8004 2.8773z" clip-path="url(#a)" fill="#fff" stroke="#fff"/>
<g clip-path="url(#a)">
<g transform="translate(141.95 584.53) rotate(77.035) scale(.08 -.08)">
<use xlink:href="#m"/>
</g>
</g>
<path d="m449.41 667.81 1.8046-5.1664q0.79142-2.2658-1.4743-3.0572l-7.3094-2.5532q-2.2658-0.79142-3.0572 1.4743l-1.8046 5.1664q-0.79142 2.2658 1.4743 3.0572l7.3094 2.5532q2.2658 0.79142 3.0572-1.4743z" clip-path="url(#a)" fill="#fff" stroke="#fff"/>
<g clip-path="url(#a)">
<g transform="translate(445.57 666.47) rotate(-70.746) scale(.08 -.08)">
<use xlink:href="#m"/>
</g>
</g>
<path d="m469.07 666.91 1.0713-4.7674q0.52621-2.3416-1.8154-2.8678l-7.5541-1.6976q-2.3416-0.52621-2.8678 1.8154l-1.0713 4.7674q-0.52621 2.3416 1.8154 2.8678l7.5541 1.6976q2.3416 0.52621 2.8678-1.8154z" clip-path="url(#a)" fill="#fff" stroke="#fff"/>
<g clip-path="url(#a)">
<g transform="translate(465.11 666.02) rotate(-77.335) scale(.08 -.08)">
<use xlink:href="#l"/>
</g>
</g>
<path d="m489.67 666.8 0.56933-6.1336q0.22182-2.3897-2.1679-2.6115l-7.7094-0.71559q-2.3897-0.22182-2.6115 2.1679l-0.56933 6.1336q-0.22182 2.3897 2.1679 2.6115l7.7094 0.71559q2.3897 0.22182 2.6115-2.1679z" clip-path="url(#a)" fill="#fff" stroke="#fff"/>
<g clip-path="url(#a)">
<g transform="translate(485.62 666.43) rotate(-84.697) scale(.08 -.08)">
<use xlink:href="#ag"/>
</g>
</g>
<path d="m498.69 661.15 0.21332 4.5963q0.11126 2.3974 2.5087 2.2862l7.7342-0.35894q2.3974-0.11126 2.2862-2.5087l-0.21332-4.5963q-0.11126-2.3974-2.5087-2.2862l-7.7342 0.35894q-2.3974 0.11126-2.2862 2.5087z" clip-path="url(#a)" fill="#fff" stroke="#fff"/>
<g clip-path="url(#a)">
<defs>
<path id="am" d="m9.8125 72.906h41.891v-8.3125h-32.031v-21.484h28.906v-8.2969h-28.906v-34.812h-9.8594z"/>
</defs>
<g transform="translate(502.74 660.96) rotate(87.343) scale(.08 -.08)">
<use xlink:href="#am"/>
</g>
</g>
<path d="m520.91 661.98 0.91397 4.7364q0.45474 2.3565 2.8113 1.9018l7.6023-1.467q2.3565-0.45474 1.9018-2.8113l-0.91397-4.7364q-0.45474-2.3565-2.8113-1.9018l-7.6023 1.467q-2.3565 0.45474-1.9018 2.8113z" clip-path="url(#a)" fill="#fff" stroke="#fff"/>
<g clip-path="url(#a)">
<g transform="translate(524.9 661.21) rotate(79.078) scale(.08 -.08)">
<use xlink:href="#x"/>
</g>
</g>
<path d="m556.93 588.69 3.5508 4.1642q1.5572 1.8262 3.3834 0.26901l5.8915-5.0236q1.8262-1.5572 0.26901-3.3834l-3.5508-4.1642q-1.5572-1.8262-3.3834-0.26901l-5.8915 5.0236q-1.8262 1.5572-0.26901 3.3834z" clip-path="url(#a)" fill="#fff" stroke="#fff"/>
<g clip-path="url(#a)">
<g transform="translate(560.02 586.05) rotate(49.546) scale(.08 -.08)">
<use xlink:href="#m"/>
</g>
</g>
<path d="m753.05 874.96v33.808q0 2.4 2.4 2.4h7.7425q2.4 0 2.4-2.4v-33.808q0-2.4-2.4-2.4h-7.7425q-2.4 0-2.4 2.4z" clip-path="url(#a)" fill="#fff" stroke="#fff"/>
<g clip-path="url(#a)">
<g transform="translate(757.12 874.96) rotate(90) scale(.08 -.08)">
<use xlink:href="#l"/>
<use x="44.083984" xlink:href="#d"/>
<use x="105.607422" xlink:href="#g"/>
<use x="144.970703" xlink:href="#j"/>
<use x="242.382812" xlink:href="#h"/>
<use x="270.166016" xlink:href="#f"/>
<use x="333.544922" xlink:href="#i"/>
<use x="394.824219" xlink:href="#k"/>
</g>
</g>
<path d="m983.44 593.39 4.4497-3.1857q1.9514-1.3971 0.55436-3.3485l-4.5071-6.2954q-1.3971-1.9514-3.3485-0.55436l-4.4497 3.1857q-1.9514 1.3971-0.55436 3.3485l4.5071 6.2954q1.3971 1.9514 3.3485 0.55436z" clip-path="url(#a)" fill="#fff" stroke="#fff"/>
<g clip-path="url(#a)">
<g transform="translate(981.07 590.09) rotate(-35.6) scale(.08 -.08)">
<use xlink:href="#m"/>
</g>
</g>
<path d="m1048.6 667.91 1.7681-5.9008q0.68886-2.299-1.6102-2.9879l-7.4167-2.2223q-2.299-0.68886-2.9879 1.6102l-1.7681 5.9008q-0.68886 2.299 1.6102 2.9879l7.4167 2.2223q2.299 0.68886 2.9879-1.6102z" clip-path="url(#a)" fill="#fff" stroke="#fff"/>
<g clip-path="url(#a)">
<g transform="translate(1044.7 666.74) rotate(-73.32) scale(.08 -.08)">
<use xlink:href="#ag"/>
</g>
</g>
<path d="m1082.1 665.99 0.39935-4.5839q0.2083-2.3909-2.1826-2.5992l-7.7133-0.67199q-2.3909-0.2083-2.5992 2.1826l-0.39935 4.5839q-0.2083 2.3909 2.1826 2.5992l7.7133 0.67199q2.3909 0.2083 2.5992-2.1826z" clip-path="url(#a)" fill="#fff" stroke="#fff"/>
<g clip-path="url(#a)">
<g transform="translate(1078 665.64) rotate(-85.021) scale(.08 -.08)">
<use xlink:href="#am"/>
</g>
</g>
<path d="m1103.2 661.59 0.63463 4.7818q0.31575 2.3791 2.6949 2.0634l7.6752-1.0186q2.3791-0.31575 2.0634-2.6949l-0.63463-4.7818q-0.31575-2.3791-2.6949-2.0634l-7.6752 1.0186q-2.3791 0.31575-2.0634 2.6949z" clip-path="url(#a)" fill="#fff" stroke="#fff"/>
<g clip-path="url(#a)">
<g transform="translate(1107.2 661.06) rotate(82.44) scale(.08 -.08)">
<use xlink:href="#x"/>
</g>
</g>
<path d="m1173.7 664.01 2.7961 4.7043q1.2262 2.0631 3.2893 0.83683l6.6556-3.9559q2.0631-1.2262 0.83683-3.2893l-2.7961-4.7043q-1.2262-2.0631-3.2893-0.83683l-6.6556 3.9559q-2.0631 1.2262-0.83683 3.2893z" clip-path="url(#a)" fill="#fff" stroke="#fff"/>
<g clip-path="url(#a)">
<g transform="translate(1177.2 661.93) rotate(59.274) scale(.08 -.08)">
<use xlink:href="#m"/>
</g>
</g>
<path d="m1137.6 662.53 1.9826 5.5091q0.81269 2.2582 3.0709 1.4455l7.2851-2.6218q2.2582-0.81269 1.4455-3.0709l-1.9826-5.5091q-0.81269-2.2582-3.0709-1.4455l-7.2851 2.6218q-2.2582 0.81269-1.4455 3.0709z" clip-path="url(#a)" fill="#fff" stroke="#fff"/>
<g clip-path="url(#a)">
<g transform="translate(1141.5 661.15) rotate(70.207) scale(.08 -.08)">
<use xlink:href="#t"/>
</g>
</g>
<path d="m1339.5 874.96v33.808q0 2.4 2.4 2.4h7.7425q2.4 0 2.4-2.4v-33.808q0-2.4-2.4-2.4h-7.7425q-2.4 0-2.4 2.4z" clip-path="url(#a)" fill="#fff" stroke="#fff"/>
<g clip-path="url(#a)">
<g transform="translate(1343.5 874.96) rotate(90) scale(.08 -.08)">
<use xlink:href="#l"/>
<use x="44.083984" xlink:href="#d"/>
<use x="105.607422" xlink:href="#g"/>
<use x="144.970703" xlink:href="#j"/>
<use x="242.382812" xlink:href="#h"/>
<use x="270.166016" xlink:href="#f"/>
<use x="333.544922" xlink:href="#i"/>
<use x="394.824219" xlink:href="#k"/>
</g>
</g>
<path d="m1332.3 664.13 2.1962 4.0433q1.1456 2.109 3.2545 0.96341l6.8036-3.6956q2.109-1.1456 0.96341-3.2545l-2.1962-4.0433q-1.1456-2.109-3.2545-0.96341l-6.8036 3.6956q-2.109 1.1456-0.96341 3.2545z" clip-path="url(#a)" fill="#fff" stroke="#fff"/>
<g clip-path="url(#a)">
<g transform="translate(1335.8 662.19) rotate(61.49) scale(.08 -.08)">
<use xlink:href="#am"/>
</g>
</g>
<path d="m1371.4 664.67 3.8471 4.8109q1.4989 1.8744 3.3733 0.37552l6.0469-4.8355q1.8744-1.4989 0.37552-3.3733l-3.8471-4.8109q-1.4989-1.8744-3.3733-0.37551l-6.0469 4.8355q-1.8744 1.4989-0.37552 3.3733z" clip-path="url(#a)" fill="#fff" stroke="#fff"/>
<g clip-path="url(#a)">
<g transform="translate(1374.5 662.13) rotate(51.352) scale(.08 -.08)">
<use xlink:href="#ag"/>
</g>
</g>
<path d="m1477.7 591.83 4.8095 1.6318q2.2727 0.77113 3.0439-1.5016l2.4877-7.332q0.77113-2.2727-1.5016-3.0439l-4.8095-1.6318q-2.2727-0.77113-3.0439 1.5016l-2.4877 7.332q-0.77113 2.2727 1.5016 3.0439z" clip-path="url(#a)" fill="#fff" stroke="#fff"/>
<g clip-path="url(#a)">
<defs>
<path id="av" d="m53.516 70.516v-9.625q-5.6094 2.6875-10.594 4-4.9844 1.3281-9.625 1.3281-8.0469 0-12.422-3.125t-4.375-8.8906q0-4.8438 2.9062-7.3125 2.9062-2.4531 11.016-3.9688l5.9531-1.2188q11.031-2.1094 16.281-7.4062t5.25-14.172q0-10.609-7.1094-16.078-7.0938-5.4688-20.812-5.4688-5.1719 0-11.016 1.1719-5.8281 1.1719-12.078 3.4688v10.156q6-3.3594 11.766-5.0781 5.7656-1.7031 11.328-1.7031 8.4375 0 13.031 3.3125 4.5938 3.3281 4.5938 9.4844 0 5.3594-3.2969 8.3906t-10.812 4.5469l-6.0156 1.1719q-11.031 2.1875-15.969 6.875-4.9219 4.6875-4.9219 13.047 0 9.6719 6.8125 15.234t18.766 5.5625q5.1406 0 10.453-0.9375 5.3281-0.92188 10.891-2.7656z"/>
</defs>
<g transform="translate(1479 587.98) rotate(18.742) scale(.08 -.08)">
<use xlink:href="#av"/>
</g>
</g>
<path d="m822.74 669.98 5.1579-1.8288q2.262-0.80204 1.46-3.0641l-2.5874-7.2974q-0.80204-2.262-3.0641-1.46l-5.1579 1.8288q-2.262 0.80204-1.46 3.0641l2.5874 7.2974q0.80204 2.262 3.0641 1.46z" clip-path="url(#a)" fill="#fff" stroke="#fff"/>
<g clip-path="url(#a)">
<g transform="translate(821.38 666.15) rotate(-19.523) scale(.08 -.08)">
<use xlink:href="#m"/>
</g>
</g>
<path d="m1415.9 874.96v33.808q0 2.4 2.4 2.4h7.7425q2.4 0 2.4-2.4v-33.808q0-2.4-2.4-2.4h-7.7425q-2.4 0-2.4 2.4z" clip-path="url(#a)" fill="#fff" stroke="#fff"/>
<g clip-path="url(#a)">
<g transform="translate(1419.9 874.96) rotate(90) scale(.08 -.08)">
<use xlink:href="#l"/>
<use x="44.083984" xlink:href="#d"/>
<use x="105.607422" xlink:href="#g"/>
<use x="144.970703" xlink:href="#j"/>
<use x="242.382812" xlink:href="#h"/>
<use x="270.166016" xlink:href="#f"/>
<use x="333.544922" xlink:href="#i"/>
<use x="394.824219" xlink:href="#k"/>
</g>
</g>
<path d="m1494.5 874.96v33.808q0 2.4 2.4 2.4h7.7425q2.4 0 2.4-2.4v-33.808q0-2.4-2.4-2.4h-7.7425q-2.4 0-2.4 2.4z" clip-path="url(#a)" fill="#fff" stroke="#fff"/>
<g clip-path="url(#a)">
<g transform="translate(1498.6 874.96) rotate(90) scale(.08 -.08)">
<use xlink:href="#l"/>
<use x="44.083984" xlink:href="#d"/>
<use x="105.607422" xlink:href="#g"/>
<use x="144.970703" xlink:href="#j"/>
<use x="242.382812" xlink:href="#h"/>
<use x="270.166016" xlink:href="#f"/>
<use x="333.544922" xlink:href="#i"/>
<use x="394.824219" xlink:href="#k"/>
</g>
</g>
<path d="m1648.4 745.96 3.229-3.8893q1.5331-1.8465-0.31349-3.3796l-5.957-4.9457q-1.8465-1.5331-3.3796 0.31349l-3.229 3.8893q-1.5331 1.8465 0.31349 3.3796l5.957 4.9457q1.8465 1.5331 3.3796-0.31349z" clip-path="url(#a)" fill="#fff" stroke="#fff"/>
<g clip-path="url(#a)">
<defs>
<path id="af" d="m9.8125 72.906h46.094v-8.3125h-36.234v-21.578h34.719v-8.2969h-34.719v-26.422h37.109v-8.2969h-46.969z"/>
</defs>
<g transform="translate(1645.2 743.37) rotate(-50.3) scale(.08 -.08)">
<use xlink:href="#af"/>
</g>
</g>
<path d="m1692 744.42 1.5388-5.3701q0.66109-2.3072-1.6461-2.9682l-7.443-2.1327q-2.3072-0.66109-2.9682 1.6461l-1.5388 5.3701q-0.66109 2.3072 1.6461 2.9682l7.443 2.1327q2.3072 0.66109 2.9682-1.6461z" clip-path="url(#a)" fill="#fff" stroke="#fff"/>
<g clip-path="url(#a)">
<defs>
<path id="z" d="m64.406 67.281v-10.391q-4.9844 4.6406-10.625 6.9219-5.6406 2.2969-11.984 2.2969-12.5 0-19.141-7.6406t-6.6406-22.094q0-14.406 6.6406-22.047t19.141-7.6406q6.3438 0 11.984 2.2969t10.625 6.9375v-10.312q-5.1719-3.5156-10.969-5.2812-5.7812-1.75-12.219-1.75-16.562 0-26.094 10.125-9.5156 10.141-9.5156 27.672 0 17.578 9.5156 27.703 9.5312 10.141 26.094 10.141 6.5312 0 12.312-1.7344 5.7969-1.7344 10.875-5.2031z"/>
</defs>
<g transform="translate(1688.1 743.3) rotate(-74.011) scale(.08 -.08)">
<use xlink:href="#z"/>
</g>
</g>
<path d="m1722.6 738.83 1.5359 5.65q0.62958 2.316 2.9455 1.6864l7.4714-2.031q2.316-0.62958 1.6864-2.9455l-1.5359-5.65q-0.62958-2.316-2.9455-1.6864l-7.4714 2.031q-2.316 0.62958-1.6864 2.9455z" clip-path="url(#a)" fill="#fff" stroke="#fff"/>
<g clip-path="url(#a)">
<g transform="translate(1726.5 737.76) rotate(74.792) scale(.08 -.08)">
<use xlink:href="#t"/>
</g>
</g>
<path d="m1766.5 741.82 3.7788 4.4723q1.5489 1.8332 3.3822 0.28429l5.9141-4.997q1.8332-1.5489 0.28429-3.3822l-3.7788-4.4723q-1.5489-1.8332-3.3822-0.28429l-5.9141 4.997q-1.8332 1.5489-0.28429 3.3822z" clip-path="url(#a)" fill="#fff" stroke="#fff"/>
<g clip-path="url(#a)">
<g transform="translate(1769.6 739.2) rotate(49.805) scale(.08 -.08)">
<use xlink:href="#t"/>
</g>
</g>
<path d="m1575.4 874.96v33.808q0 2.4 2.4 2.4h7.7425q2.4 0 2.4-2.4v-33.808q0-2.4-2.4-2.4h-7.7425q-2.4 0-2.4 2.4z" clip-path="url(#a)" fill="#fff" stroke="#fff"/>
<g clip-path="url(#a)">
<g transform="translate(1579.5 874.96) rotate(90) scale(.08 -.08)">
<use xlink:href="#l"/>
<use x="44.083984" xlink:href="#d"/>
<use x="105.607422" xlink:href="#g"/>
<use x="144.970703" xlink:href="#j"/>
<use x="242.382812" xlink:href="#h"/>
<use x="270.166016" xlink:href="#f"/>
<use x="333.544922" xlink:href="#i"/>
<use x="394.824219" xlink:href="#k"/>
</g>
</g>
<path d="m1658.5 874.96v33.808q0 2.4 2.4 2.4h7.7425q2.4 0 2.4-2.4v-33.808q0-2.4-2.4-2.4h-7.7425q-2.4 0-2.4 2.4z" clip-path="url(#a)" fill="#fff" stroke="#fff"/>
<g clip-path="url(#a)">
<g transform="translate(1662.6 874.96) rotate(90) scale(.08 -.08)">
<use xlink:href="#l"/>
<use x="44.083984" xlink:href="#d"/>
<use x="105.607422" xlink:href="#g"/>
<use x="144.970703" xlink:href="#j"/>
<use x="242.382812" xlink:href="#h"/>
<use x="270.166016" xlink:href="#f"/>
<use x="333.544922" xlink:href="#i"/>
<use x="394.824219" xlink:href="#k"/>
</g>
</g>
<path d="m850.02 744.63 1.8242-4.7144q0.8661-2.2383-1.3722-3.1044l-7.2208-2.7941q-2.2383-0.8661-3.1044 1.3722l-1.8242 4.7144q-0.8661 2.2383 1.3722 3.1044l7.2208 2.7941q2.2383 0.8661 3.1044-1.3722z" clip-path="url(#a)" fill="#fff" stroke="#fff"/>
<g clip-path="url(#a)">
<g transform="translate(846.23 743.16) rotate(-68.846) scale(.08 -.08)">
<use xlink:href="#af"/>
</g>
</g>
<path d="m880.55 742.57 0.02476-5.0549q0.011755-2.4-2.3882-2.4117l-7.7424-0.037923q-2.4-0.011756-2.4117 2.3882l-0.024759 5.0549q-0.011756 2.4 2.3882 2.4117l7.7424 0.037923q2.4 0.011755 2.4117-2.3882z" clip-path="url(#a)" fill="#fff" stroke="#fff"/>
<g clip-path="url(#a)">
<g transform="translate(876.49 742.55) rotate(-89.719) scale(.08 -.08)">
<use xlink:href="#af"/>
</g>
</g>
<path d="m897.76 739.7 2.0381 5.2012q0.87561 2.2346 3.1102 1.359l7.2088-2.8248q2.2346-0.87561 1.359-3.1102l-2.0381-5.2012q-0.87561-2.2346-3.1102-1.359l-7.2088 2.8248q-2.2346 0.87561-1.359 3.1102z" clip-path="url(#a)" fill="#fff" stroke="#fff"/>
<g clip-path="url(#a)">
<g transform="translate(901.55 738.22) rotate(68.602) scale(.08 -.08)">
<use xlink:href="#z"/>
</g>
</g>
<path d="m991.22 874.96v33.808q0 2.4 2.4 2.4h7.7425q2.4 0 2.4-2.4v-33.808q0-2.4-2.4-2.4h-7.7425q-2.4 0-2.4 2.4z" clip-path="url(#a)" fill="#fff" stroke="#fff"/>
<g clip-path="url(#a)">
<g transform="translate(995.29 874.96) rotate(90) scale(.08 -.08)">
<use xlink:href="#l"/>
<use x="44.083984" xlink:href="#d"/>
<use x="105.607422" xlink:href="#g"/>
<use x="144.970703" xlink:href="#j"/>
<use x="242.382812" xlink:href="#h"/>
<use x="270.166016" xlink:href="#f"/>
<use x="333.544922" xlink:href="#i"/>
<use x="394.824219" xlink:href="#k"/>
</g>
</g>
<path d="m1056.4 874.96v33.808q0 2.4 2.4 2.4h7.7425q2.4 0 2.4-2.4v-33.808q0-2.4-2.4-2.4h-7.7425q-2.4 0-2.4 2.4z" clip-path="url(#a)" fill="#fff" stroke="#fff"/>
<g clip-path="url(#a)">
<g transform="translate(1060.4 874.96) rotate(90) scale(.08 -.08)">
<use xlink:href="#l"/>
<use x="44.083984" xlink:href="#d"/>
<use x="105.607422" xlink:href="#g"/>
<use x="144.970703" xlink:href="#j"/>
<use x="242.382812" xlink:href="#h"/>
<use x="270.166016" xlink:href="#f"/>
<use x="333.544922" xlink:href="#i"/>
<use x="394.824219" xlink:href="#k"/>
</g>
</g>
<path d="m1123.8 874.96v33.808q0 2.4 2.4 2.4h7.7425q2.4 0 2.4-2.4v-33.808q0-2.4-2.4-2.4h-7.7425q-2.4 0-2.4 2.4z" clip-path="url(#a)" fill="#fff" stroke="#fff"/>
<g clip-path="url(#a)">
<g transform="translate(1127.9 874.96) rotate(90) scale(.08 -.08)">
<use xlink:href="#l"/>
<use x="44.083984" xlink:href="#d"/>
<use x="105.607422" xlink:href="#g"/>
<use x="144.970703" xlink:href="#j"/>
<use x="242.382812" xlink:href="#h"/>
<use x="270.166016" xlink:href="#f"/>
<use x="333.544922" xlink:href="#i"/>
<use x="394.824219" xlink:href="#k"/>
</g>
</g>
<path d="m1265.3 874.96v33.808q0 2.4 2.4 2.4h7.7425q2.4 0 2.4-2.4v-33.808q0-2.4-2.4-2.4h-7.7425q-2.4 0-2.4 2.4z" clip-path="url(#a)" fill="#fff" stroke="#fff"/>
<g clip-path="url(#a)">
<g transform="translate(1269.4 874.96) rotate(90) scale(.08 -.08)">
<use xlink:href="#l"/>
<use x="44.083984" xlink:href="#d"/>
<use x="105.607422" xlink:href="#g"/>
<use x="144.970703" xlink:href="#j"/>
<use x="242.382812" xlink:href="#h"/>
<use x="270.166016" xlink:href="#f"/>
<use x="333.544922" xlink:href="#i"/>
<use x="394.824219" xlink:href="#k"/>
</g>
</g>
<path d="m809.23 874.96v33.808q0 2.4 2.4 2.4h7.7425q2.4 0 2.4-2.4v-33.808q0-2.4-2.4-2.4h-7.7425q-2.4 0-2.4 2.4z" clip-path="url(#a)" fill="#fff" stroke="#fff"/>
<g clip-path="url(#a)">
<g transform="translate(813.29 874.96) rotate(90) scale(.08 -.08)">
<use xlink:href="#l"/>
<use x="44.083984" xlink:href="#d"/>
<use x="105.607422" xlink:href="#g"/>
<use x="144.970703" xlink:href="#j"/>
<use x="242.382812" xlink:href="#h"/>
<use x="270.166016" xlink:href="#f"/>
<use x="333.544922" xlink:href="#i"/>
<use x="394.824219" xlink:href="#k"/>
</g>
</g>
<path d="m867.64 874.96v33.808q0 2.4 2.4 2.4h7.7425q2.4 0 2.4-2.4v-33.808q0-2.4-2.4-2.4h-7.7425q-2.4 0-2.4 2.4z" clip-path="url(#a)" fill="#fff" stroke="#fff"/>
<g clip-path="url(#a)">
<g transform="translate(871.71 874.96) rotate(90) scale(.08 -.08)">
<use xlink:href="#l"/>
<use x="44.083984" xlink:href="#d"/>
<use x="105.607422" xlink:href="#g"/>
<use x="144.970703" xlink:href="#j"/>
<use x="242.382812" xlink:href="#h"/>
<use x="270.166016" xlink:href="#f"/>
<use x="333.544922" xlink:href="#i"/>
<use x="394.824219" xlink:href="#k"/>
</g>
</g>
<path d="m928.31 874.96v33.808q0 2.4 2.4 2.4h7.7425q2.4 0 2.4-2.4v-33.808q0-2.4-2.4-2.4h-7.7425q-2.4 0-2.4 2.4z" clip-path="url(#a)" fill="#fff" stroke="#fff"/>
<g clip-path="url(#a)">
<g transform="translate(932.37 874.96) rotate(90) scale(.08 -.08)">
<use xlink:href="#l"/>
<use x="44.083984" xlink:href="#d"/>
<use x="105.607422" xlink:href="#g"/>
<use x="144.970703" xlink:href="#j"/>
<use x="242.382812" xlink:href="#h"/>
<use x="270.166016" xlink:href="#f"/>
<use x="333.544922" xlink:href="#i"/>
<use x="394.824219" xlink:href="#k"/>
</g>
</g>
<path d="m384.57 874.96v33.808q0 2.4 2.4 2.4h7.7425q2.4 0 2.4-2.4v-33.808q0-2.4-2.4-2.4h-7.7425q-2.4 0-2.4 2.4z" clip-path="url(#a)" fill="#fff" stroke="#fff"/>
<g clip-path="url(#a)">
<g transform="translate(388.63 874.96) rotate(90) scale(.08 -.08)">
<use xlink:href="#l"/>
<use x="44.083984" xlink:href="#d"/>
<use x="105.607422" xlink:href="#g"/>
<use x="144.970703" xlink:href="#j"/>
<use x="242.382812" xlink:href="#h"/>
<use x="270.166016" xlink:href="#f"/>
<use x="333.544922" xlink:href="#i"/>
<use x="394.824219" xlink:href="#k"/>
</g>
</g>
<path d="m422.77 874.96v33.808q0 2.4 2.4 2.4h7.7425q2.4 0 2.4-2.4v-33.808q0-2.4-2.4-2.4h-7.7425q-2.4 0-2.4 2.4z" clip-path="url(#a)" fill="#fff" stroke="#fff"/>
<g clip-path="url(#a)">
<g transform="translate(426.83 874.96) rotate(90) scale(.08 -.08)">
<use xlink:href="#l"/>
<use x="44.083984" xlink:href="#d"/>
<use x="105.607422" xlink:href="#g"/>
<use x="144.970703" xlink:href="#j"/>
<use x="242.382812" xlink:href="#h"/>
<use x="270.166016" xlink:href="#f"/>
<use x="333.544922" xlink:href="#i"/>
<use x="394.824219" xlink:href="#k"/>
</g>
</g>
<path d="m463.21 874.96v33.808q0 2.4 2.4 2.4h7.7425q2.4 0 2.4-2.4v-33.808q0-2.4-2.4-2.4h-7.7425q-2.4 0-2.4 2.4z" clip-path="url(#a)" fill="#fff" stroke="#fff"/>
<g clip-path="url(#a)">
<g transform="translate(467.27 874.96) rotate(90) scale(.08 -.08)">
<use xlink:href="#l"/>
<use x="44.083984" xlink:href="#d"/>
<use x="105.607422" xlink:href="#g"/>
<use x="144.970703" xlink:href="#j"/>
<use x="242.382812" xlink:href="#h"/>
<use x="270.166016" xlink:href="#f"/>
<use x="333.544922" xlink:href="#i"/>
<use x="394.824219" xlink:href="#k"/>
</g>
</g>
<path d="m505.9 874.96v33.808q0 2.4 2.4 2.4h7.7425q2.4 0 2.4-2.4v-33.808q0-2.4-2.4-2.4h-7.7425q-2.4 0-2.4 2.4z" clip-path="url(#a)" fill="#fff" stroke="#fff"/>
<g clip-path="url(#a)">
<g transform="translate(509.96 874.96) rotate(90) scale(.08 -.08)">
<use xlink:href="#l"/>
<use x="44.083984" xlink:href="#d"/>
<use x="105.607422" xlink:href="#g"/>
<use x="144.970703" xlink:href="#j"/>
<use x="242.382812" xlink:href="#h"/>
<use x="270.166016" xlink:href="#f"/>
<use x="333.544922" xlink:href="#i"/>
<use x="394.824219" xlink:href="#k"/>
</g>
</g>
<path d="m550.84 874.96v33.808q0 2.4 2.4 2.4h7.7425q2.4 0 2.4-2.4v-33.808q0-2.4-2.4-2.4h-7.7425q-2.4 0-2.4 2.4z" clip-path="url(#a)" fill="#fff" stroke="#fff"/>
<g clip-path="url(#a)">
<g transform="translate(554.9 874.96) rotate(90) scale(.08 -.08)">
<use xlink:href="#l"/>
<use x="44.083984" xlink:href="#d"/>
<use x="105.607422" xlink:href="#g"/>
<use x="144.970703" xlink:href="#j"/>
<use x="242.382812" xlink:href="#h"/>
<use x="270.166016" xlink:href="#f"/>
<use x="333.544922" xlink:href="#i"/>
<use x="394.824219" xlink:href="#k"/>
</g>
</g>
<path d="m622.44 743.51 0.80661-4.9902q0.38296-2.3692-1.9863-2.7522l-7.6433-1.2354q-2.3692-0.38296-2.7522 1.9863l-0.80661 4.9902q-0.38296 2.3692 1.9863 2.7522l7.6433 1.2354q2.3692 0.38296 2.7522-1.9863z" clip-path="url(#a)" fill="#fff" stroke="#fff"/>
<g clip-path="url(#a)">
<g transform="translate(618.43 742.86) rotate(-80.818) scale(.08 -.08)">
<use xlink:href="#af"/>
</g>
</g>
<path d="m634.73 738.25 0.89138 5.5147q0.38296 2.3692 2.7522 1.9863l7.6433-1.2354q2.3692-0.38296 1.9863-2.7522l-0.89138-5.5147q-0.38296-2.3692-2.7522-1.9863l-7.6433 1.2354q-2.3692 0.38296-1.9863 2.7522z" clip-path="url(#a)" fill="#fff" stroke="#fff"/>
<g clip-path="url(#a)">
<g transform="translate(638.74 737.61) rotate(80.818) scale(.08 -.08)">
<use xlink:href="#z"/>
</g>
</g>
<path d="m598.02 874.96v33.808q0 2.4 2.4 2.4h7.7425q2.4 0 2.4-2.4v-33.808q0-2.4-2.4-2.4h-7.7425q-2.4 0-2.4 2.4z" clip-path="url(#a)" fill="#fff" stroke="#fff"/>
<g clip-path="url(#a)">
<g transform="translate(602.09 874.96) rotate(90) scale(.08 -.08)">
<use xlink:href="#l"/>
<use x="44.083984" xlink:href="#d"/>
<use x="105.607422" xlink:href="#g"/>
<use x="144.970703" xlink:href="#j"/>
<use x="242.382812" xlink:href="#h"/>
<use x="270.166016" xlink:href="#f"/>
<use x="333.544922" xlink:href="#i"/>
<use x="394.824219" xlink:href="#k"/>
</g>
</g>
<path d="m647.45 874.96v33.808q0 2.4 2.4 2.4h7.7425q2.4 0 2.4-2.4v-33.808q0-2.4-2.4-2.4h-7.7425q-2.4 0-2.4 2.4z" clip-path="url(#a)" fill="#fff" stroke="#fff"/>
<g clip-path="url(#a)">
<g transform="translate(651.52 874.96) rotate(90) scale(.08 -.08)">
<use xlink:href="#l"/>
<use x="44.083984" xlink:href="#d"/>
<use x="105.607422" xlink:href="#g"/>
<use x="144.970703" xlink:href="#j"/>
<use x="242.382812" xlink:href="#h"/>
<use x="270.166016" xlink:href="#f"/>
<use x="333.544922" xlink:href="#i"/>
<use x="394.824219" xlink:href="#k"/>
</g>
</g>
<path d="m96.972 874.96v33.808q0 2.4 2.4 2.4h7.7425q2.4 0 2.4-2.4v-33.808q0-2.4-2.4-2.4h-7.7425q-2.4 0-2.4 2.4z" clip-path="url(#a)" fill="#fff" stroke="#fff"/>
<g clip-path="url(#a)">
<g transform="translate(101.04 874.96) rotate(90) scale(.08 -.08)">
<use xlink:href="#l"/>
<use x="44.083984" xlink:href="#d"/>
<use x="105.607422" xlink:href="#g"/>
<use x="144.970703" xlink:href="#j"/>
<use x="242.382812" xlink:href="#h"/>
<use x="270.166016" xlink:href="#f"/>
<use x="333.544922" xlink:href="#i"/>
<use x="394.824219" xlink:href="#k"/>
</g>
</g>
<path d="m108.21 874.96v33.808q0 2.4 2.4 2.4h7.7425q2.4 0 2.4-2.4v-33.808q0-2.4-2.4-2.4h-7.7425q-2.4 0-2.4 2.4z" clip-path="url(#a)" fill="#fff" stroke="#fff"/>
<g clip-path="url(#a)">
<g transform="translate(112.27 874.96) rotate(90) scale(.08 -.08)">
<use xlink:href="#l"/>
<use x="44.083984" xlink:href="#d"/>
<use x="105.607422" xlink:href="#g"/>
<use x="144.970703" xlink:href="#j"/>
<use x="242.382812" xlink:href="#h"/>
<use x="270.166016" xlink:href="#f"/>
<use x="333.544922" xlink:href="#i"/>
<use x="394.824219" xlink:href="#k"/>
</g>
</g>
<path d="m121.69 874.96v33.808q0 2.4 2.4 2.4h7.7425q2.4 0 2.4-2.4v-33.808q0-2.4-2.4-2.4h-7.7425q-2.4 0-2.4 2.4z" clip-path="url(#a)" fill="#fff" stroke="#fff"/>
<g clip-path="url(#a)">
<g transform="translate(125.75 874.96) rotate(90) scale(.08 -.08)">
<use xlink:href="#l"/>
<use x="44.083984" xlink:href="#d"/>
<use x="105.607422" xlink:href="#g"/>
<use x="144.970703" xlink:href="#j"/>
<use x="242.382812" xlink:href="#h"/>
<use x="270.166016" xlink:href="#f"/>
<use x="333.544922" xlink:href="#i"/>
<use x="394.824219" xlink:href="#k"/>
</g>
</g>
<path d="m167.77 738.28 0.84741 5.4065q0.37164 2.3711 2.7427 1.9994l7.6491-1.1989q2.3711-0.37164 1.9994-2.7427l-0.84741-5.4065q-0.37164-2.3711-2.7427-1.9994l-7.6491 1.1989q-2.3711 0.37164-1.9994 2.7427z" clip-path="url(#a)" fill="#fff" stroke="#fff"/>
<g clip-path="url(#a)">
<g transform="translate(171.79 737.65) rotate(81.092) scale(.08 -.08)">
<use xlink:href="#m"/>
</g>
</g>
<path d="m156.14 737.6v4.8238q0 2.4 2.4 2.4h7.7425q2.4 0 2.4-2.4v-4.8238q0-2.4-2.4-2.4h-7.7425q-2.4 0-2.4 2.4z" clip-path="url(#a)" fill="#fff" stroke="#fff"/>
<g clip-path="url(#a)">
<g transform="translate(160.2 737.6) rotate(90) scale(.08 -.08)">
<use xlink:href="#x"/>
</g>
</g>
<path d="m157.19 909.42 4.1654-33.55q0.2957-2.3817-2.086-2.6774l-7.6835-0.95395q-2.3817-0.2957-2.6774 2.086l-4.1654 33.55q-0.2957 2.3817 2.086 2.6774l7.6835 0.95395q2.3817 0.2957 2.6774-2.086z" clip-path="url(#a)" fill="#fff" stroke="#fff"/>
<g clip-path="url(#a)">
<g transform="translate(153.16 908.92) rotate(-82.923) scale(.08 -.08)">
<use xlink:href="#l"/>
<use x="44.083984" xlink:href="#d"/>
<use x="105.607422" xlink:href="#g"/>
<use x="144.970703" xlink:href="#j"/>
<use x="242.382812" xlink:href="#h"/>
<use x="270.166016" xlink:href="#f"/>
<use x="333.544922" xlink:href="#i"/>
<use x="394.824219" xlink:href="#k"/>
</g>
</g>
<path d="m168.22 908.8 0.16789-33.807q0.011919-2.4-2.3881-2.4119l-7.7424-0.03845q-2.4-0.011919-2.4119 2.3881l-0.16789 33.807q-0.011919 2.4 2.3881 2.4119l7.7424 0.03845q2.4 0.011919 2.4119-2.3881z" clip-path="url(#a)" fill="#fff" stroke="#fff"/>
<g clip-path="url(#a)">
<g transform="translate(164.16 908.78) rotate(-89.715) scale(.08 -.08)">
<use xlink:href="#l"/>
<use x="44.083984" xlink:href="#d"/>
<use x="105.607422" xlink:href="#g"/>
<use x="144.970703" xlink:href="#j"/>
<use x="242.382812" xlink:href="#h"/>
<use x="270.166016" xlink:href="#f"/>
<use x="333.544922" xlink:href="#i"/>
<use x="394.824219" xlink:href="#k"/>
</g>
</g>
<path d="m163.76 875.91 4.3294 33.529q0.30734 2.3802 2.6876 2.0729l7.6788-0.9915q2.3802-0.30734 2.0729-2.6876l-4.3294-33.529q-0.30734-2.3802-2.6876-2.0729l-7.6788 0.9915q-2.3802 0.30734-2.0729 2.6876z" clip-path="url(#a)" fill="#fff" stroke="#fff"/>
<g clip-path="url(#a)">
<g transform="translate(167.79 875.39) rotate(82.643) scale(.08 -.08)">
<use xlink:href="#l"/>
<use x="44.083984" xlink:href="#d"/>
<use x="105.607422" xlink:href="#g"/>
<use x="144.970703" xlink:href="#j"/>
<use x="242.382812" xlink:href="#h"/>
<use x="270.166016" xlink:href="#f"/>
<use x="333.544922" xlink:href="#i"/>
<use x="394.824219" xlink:href="#k"/>
</g>
</g>
<path d="m1161 440.69 6.8183-7.4648q1.6186-1.772-0.15345-3.3906l-5.7167-5.2217q-1.772-1.6186-3.3906 0.15345l-6.8183 7.4648q-1.6186 1.772 0.15345 3.3906l5.7167 5.2217q1.772 1.6186 3.3906-0.15345z" clip-path="url(#a)" fill="#fff" stroke="#fff"/>
<g clip-path="url(#a)">
<g transform="translate(1158 437.95) rotate(-47.591) scale(.08 -.08)">
<use xlink:href="#o"/>
<use x="57.962891" xlink:href="#m"/>
</g>
</g>
<path d="m1280.7 582.71 2.4353 9.7157q0.58353 2.328 2.9115 1.7445l7.5102-1.8825q2.328-0.58353 1.7445-2.9115l-2.4353-9.7157q-0.58353-2.328-2.9115-1.7445l-7.5102 1.8825q-2.328 0.58353-1.7445 2.9115z" clip-path="url(#a)" fill="#fff" stroke="#fff"/>
<g clip-path="url(#a)">
<defs>
<path id="al" d="m44.391 34.188q3.1719-1.0781 6.1719-4.5938t6.0312-9.6719l10.016-19.922h-10.609l-9.3125 18.703q-3.625 7.3281-7.0156 9.7188t-9.25 2.3906h-10.75v-30.812h-9.8594v72.906h22.266q12.5 0 18.656-5.2344 6.1562-5.2188 6.1562-15.766 0-6.8906-3.2031-11.438-3.2031-4.5312-9.2969-6.2812zm-24.719 30.609v-25.875h12.406q7.125 0 10.766 3.2969t3.6406 9.6875-3.6406 9.6406-10.766 3.25z"/>
</defs>
<g transform="translate(1284.6 581.72) rotate(75.928) scale(.08 -.08)">
<use xlink:href="#o"/>
<use x="55.712891" xlink:href="#al"/>
</g>
</g>
<path d="m1235.9 428.76 1.6404 9.976q0.3894 2.3682 2.7576 1.9788l7.6399-1.2562q2.3682-0.3894 1.9788-2.7576l-1.6404-9.976q-0.3894-2.3682-2.7576-1.9788l-7.6399 1.2562q-2.3682 0.3894-1.9788 2.7576z" clip-path="url(#a)" fill="#fff" stroke="#fff"/>
<g clip-path="url(#a)">
<g transform="translate(1239.9 428.1) rotate(80.662) scale(.08 -.08)">
<use xlink:href="#o"/>
<use x="57.962891" xlink:href="#m"/>
</g>
</g>
<path d="m638.62 440.66 8.8863-4.8213q2.1095-1.1445 0.96498-3.254l-3.6923-6.8054q-1.1445-2.1095-3.254-0.96499l-8.8863 4.8213q-2.1095 1.1445-0.96499 3.254l3.6923 6.8054q1.1445 2.1095 3.254 0.96499z" clip-path="url(#a)" fill="#fff" stroke="#fff"/>
<g clip-path="url(#a)">
<g transform="translate(636.69 437.08) rotate(-28.482) scale(.08 -.08)">
<use xlink:href="#o"/>
<use x="57.962891" xlink:href="#m"/>
</g>
</g>
<path d="m776.78 591.35 0.49677-10.004q0.11903-2.397-2.278-2.5161l-7.733-0.384q-2.397-0.11903-2.5161 2.278l-0.49677 10.004q-0.11903 2.397 2.278 2.5161l7.733 0.384q2.397 0.11903 2.5161-2.278z" clip-path="url(#a)" fill="#fff" stroke="#fff"/>
<g clip-path="url(#a)">
<g transform="translate(772.72 591.15) rotate(-87.157) scale(.08 -.08)">
<use xlink:href="#o"/>
<use x="55.712891" xlink:href="#al"/>
</g>
</g>
<path d="m928.46 436.07 9.0349 4.5367q2.1448 1.077 3.2218-1.0678l3.4743-6.9192q1.077-2.1448-1.0678-3.2218l-9.0349-4.5367q-2.1448-1.077-3.2218 1.0678l-3.4744 6.9192q-1.077 2.1448 1.0678 3.2218z" clip-path="url(#a)" fill="#fff" stroke="#fff"/>
<g clip-path="url(#a)">
<g transform="translate(930.28 432.44) rotate(26.663) scale(.08 -.08)">
<use xlink:href="#o"/>
<use x="57.962891" xlink:href="#m"/>
</g>
</g>
<path d="m171.47 592.7 3.0153-9.5516q0.7225-2.2887-1.5662-3.0112l-7.3833-2.3308q-2.2887-0.7225-3.0112 1.5662l-3.0153 9.5516q-0.7225 2.2887 1.5662 3.0112l7.3833 2.3308q2.2887 0.7225 3.0112-1.5662z" clip-path="url(#a)" fill="#fff" stroke="#fff"/>
<g clip-path="url(#a)">
<g transform="translate(167.6 591.48) rotate(-72.48) scale(.08 -.08)">
<use xlink:href="#o"/>
<use x="55.712891" xlink:href="#al"/>
</g>
</g>
<path d="m185.46 440.51 5.9654-8.1625q1.4161-1.9377-0.52156-3.3538l-6.251-4.5685q-1.9377-1.4161-3.3538 0.52156l-5.9654 8.1625q-1.4161 1.9377 0.52156 3.3538l6.251 4.5685q1.9377 1.4161 3.3538-0.52156z" clip-path="url(#a)" fill="#fff" stroke="#fff"/>
<g clip-path="url(#a)">
<g transform="translate(182.18 438.12) rotate(-53.84) scale(.08 -.08)">
<use xlink:href="#o"/>
<use x="57.962891" xlink:href="#m"/>
</g>
</g>
<path d="m361.28 435.52 8.6795 5.1845q2.0604 1.2307 3.2912-0.82966l3.9704-6.647q1.2307-2.0604-0.82966-3.2912l-8.6795-5.1845q-2.0604-1.2307-3.2911 0.82966l-3.9704 6.647q-1.2307 2.0604 0.82966 3.2912z" clip-path="url(#a)" fill="#fff" stroke="#fff"/>
<g clip-path="url(#a)">
<g transform="translate(363.37 432.04) rotate(30.851) scale(.08 -.08)">
<use xlink:href="#o"/>
<use x="57.962891" xlink:href="#m"/>
</g>
</g>
<path d="m81.244 874.96v33.808q0 2.4 2.4 2.4h7.7425q2.4 0 2.4-2.4v-33.808q0-2.4-2.4-2.4h-7.7425q-2.4 0-2.4 2.4z" clip-path="url(#a)" fill="#fff" stroke="#fff"/>
<g clip-path="url(#a)">
<g transform="translate(85.308 874.96) rotate(90) scale(.08 -.08)">
<use xlink:href="#l"/>
<use x="44.083984" xlink:href="#d"/>
<use x="105.607422" xlink:href="#g"/>
<use x="144.970703" xlink:href="#j"/>
<use x="242.382812" xlink:href="#h"/>
<use x="270.166016" xlink:href="#f"/>
<use x="333.544922" xlink:href="#i"/>
<use x="394.824219" xlink:href="#k"/>
</g>
</g>
<path d="m202.57 874.96v33.808q0 2.4 2.4 2.4h7.7425q2.4 0 2.4-2.4v-33.808q0-2.4-2.4-2.4h-7.7425q-2.4 0-2.4 2.4z" clip-path="url(#a)" fill="#fff" stroke="#fff"/>
<g clip-path="url(#a)">
<g transform="translate(206.64 874.96) rotate(90) scale(.08 -.08)">
<use xlink:href="#l"/>
<use x="44.083984" xlink:href="#d"/>
<use x="105.607422" xlink:href="#g"/>
<use x="144.970703" xlink:href="#j"/>
<use x="242.382812" xlink:href="#h"/>
<use x="270.166016" xlink:href="#f"/>
<use x="333.544922" xlink:href="#i"/>
<use x="394.824219" xlink:href="#k"/>
</g>
</g>
<path d="m227.29 874.96v33.808q0 2.4 2.4 2.4h7.7425q2.4 0 2.4-2.4v-33.808q0-2.4-2.4-2.4h-7.7425q-2.4 0-2.4 2.4z" clip-path="url(#a)" fill="#fff" stroke="#fff"/>
<g clip-path="url(#a)">
<g transform="translate(231.35 874.96) rotate(90) scale(.08 -.08)">
<use xlink:href="#l"/>
<use x="44.083984" xlink:href="#d"/>
<use x="105.607422" xlink:href="#g"/>
<use x="144.970703" xlink:href="#j"/>
<use x="242.382812" xlink:href="#h"/>
<use x="270.166016" xlink:href="#f"/>
<use x="333.544922" xlink:href="#i"/>
<use x="394.824219" xlink:href="#k"/>
</g>
</g>
<path d="m314.92 874.96v33.808q0 2.4 2.4 2.4h7.7425q2.4 0 2.4-2.4v-33.808q0-2.4-2.4-2.4h-7.7425q-2.4 0-2.4 2.4z" clip-path="url(#a)" fill="#fff" stroke="#fff"/>
<g clip-path="url(#a)">
<g transform="translate(318.98 874.96) rotate(90) scale(.08 -.08)">
<use xlink:href="#l"/>
<use x="44.083984" xlink:href="#d"/>
<use x="105.607422" xlink:href="#g"/>
<use x="144.970703" xlink:href="#j"/>
<use x="242.382812" xlink:href="#h"/>
<use x="270.166016" xlink:href="#f"/>
<use x="333.544922" xlink:href="#i"/>
<use x="394.824219" xlink:href="#k"/>
</g>
</g>
<path d="m348.62 874.96v33.808q0 2.4 2.4 2.4h7.7425q2.4 0 2.4-2.4v-33.808q0-2.4-2.4-2.4h-7.7425q-2.4 0-2.4 2.4z" clip-path="url(#a)" fill="#fff" stroke="#fff"/>
<g clip-path="url(#a)">
<g transform="translate(352.68 874.96) rotate(90) scale(.08 -.08)">
<use xlink:href="#l"/>
<use x="44.083984" xlink:href="#d"/>
<use x="105.607422" xlink:href="#g"/>
<use x="144.970703" xlink:href="#j"/>
<use x="242.382812" xlink:href="#h"/>
<use x="270.166016" xlink:href="#f"/>
<use x="333.544922" xlink:href="#i"/>
<use x="394.824219" xlink:href="#k"/>
</g>
</g>
<path d="m699.13 874.96v33.808q0 2.4 2.4 2.4h7.7425q2.4 0 2.4-2.4v-33.808q0-2.4-2.4-2.4h-7.7425q-2.4 0-2.4 2.4z" clip-path="url(#a)" fill="#fff" stroke="#fff"/>
<g clip-path="url(#a)">
<g transform="translate(703.19 874.96) rotate(90) scale(.08 -.08)">
<use xlink:href="#l"/>
<use x="44.083984" xlink:href="#d"/>
<use x="105.607422" xlink:href="#g"/>
<use x="144.970703" xlink:href="#j"/>
<use x="242.382812" xlink:href="#h"/>
<use x="270.166016" xlink:href="#f"/>
<use x="333.544922" xlink:href="#i"/>
<use x="394.824219" xlink:href="#k"/>
</g>
</g>
<path d="m1193.4 874.96v33.808q0 2.4 2.4 2.4h7.7425q2.4 0 2.4-2.4v-33.808q0-2.4-2.4-2.4h-7.7425q-2.4 0-2.4 2.4z" clip-path="url(#a)" fill="#fff" stroke="#fff"/>
<g clip-path="url(#a)">
<g transform="translate(1197.5 874.96) rotate(90) scale(.08 -.08)">
<use xlink:href="#l"/>
<use x="44.083984" xlink:href="#d"/>
<use x="105.607422" xlink:href="#g"/>
<use x="144.970703" xlink:href="#j"/>
<use x="242.382812" xlink:href="#h"/>
<use x="270.166016" xlink:href="#f"/>
<use x="333.544922" xlink:href="#i"/>
<use x="394.824219" xlink:href="#k"/>
</g>
</g>
<path d="m1743.9 874.96v33.808q0 2.4 2.4 2.4h7.7425q2.4 0 2.4-2.4v-33.808q0-2.4-2.4-2.4h-7.7425q-2.4 0-2.4 2.4z" clip-path="url(#a)" fill="#fff" stroke="#fff"/>
<g clip-path="url(#a)">
<g transform="translate(1748 874.96) rotate(90) scale(.08 -.08)">
<use xlink:href="#l"/>
<use x="44.083984" xlink:href="#d"/>
<use x="105.607422" xlink:href="#g"/>
<use x="144.970703" xlink:href="#j"/>
<use x="242.382812" xlink:href="#h"/>
<use x="270.166016" xlink:href="#f"/>
<use x="333.544922" xlink:href="#i"/>
<use x="394.824219" xlink:href="#k"/>
</g>
</g>
<path d="m1831.5 874.96v33.808q0 2.4 2.4 2.4h7.7425q2.4 0 2.4-2.4v-33.808q0-2.4-2.4-2.4h-7.7425q-2.4 0-2.4 2.4z" clip-path="url(#a)" fill="#fff" stroke="#fff"/>
<g clip-path="url(#a)">
<g transform="translate(1835.6 874.96) rotate(90) scale(.08 -.08)">
<use xlink:href="#l"/>
<use x="44.083984" xlink:href="#d"/>
<use x="105.607422" xlink:href="#g"/>
<use x="144.970703" xlink:href="#j"/>
<use x="242.382812" xlink:href="#h"/>
<use x="270.166016" xlink:href="#f"/>
<use x="333.544922" xlink:href="#i"/>
<use x="394.824219" xlink:href="#k"/>
</g>
</g>
<defs>
<path id="b" d="m0 8.6603c2.2967 0 4.4997-0.9125 6.1237-2.5365 1.624-1.624 2.5365-3.827 2.5365-6.1237s-0.9125-4.4997-2.5365-6.1237c-1.624-1.624-3.827-2.5365-6.1237-2.5365s-4.4997 0.9125-6.1237 2.5365c-1.624 1.624-2.5365 3.827-2.5365 6.1237s0.9125 4.4997 2.5365 6.1237c1.624 1.624 3.827 2.5365 6.1237 2.5365z"/>
</defs>
<g clip-path="url(#a)">
<use x="87.515152" y="967.272727" fill="#ffffff" stroke="#ffffff" xlink:href="#b"/>
</g>
<g clip-path="url(#a)">
<use x="94.255728" y="967.272727" fill="#ffffff" stroke="#ffffff" xlink:href="#b"/>
</g>
<g clip-path="url(#a)">
<use x="103.243163" y="967.272727" fill="#ffffff" stroke="#ffffff" xlink:href="#b"/>
</g>
<g clip-path="url(#a)">
<use x="114.477458" y="967.272727" fill="#ffffff" stroke="#ffffff" xlink:href="#b"/>
</g>
<g clip-path="url(#a)">
<use x="127.95861" y="967.272727" fill="#ffffff" stroke="#ffffff" xlink:href="#b"/>
</g>
<g clip-path="url(#a)">
<use x="143.686622" y="967.272727" fill="#ffffff" stroke="#ffffff" xlink:href="#b"/>
</g>
<g clip-path="url(#a)">
<use x="161.661493" y="967.272727" fill="#ffffff" stroke="#ffffff" xlink:href="#b"/>
</g>
<g clip-path="url(#a)">
<use x="181.883222" y="967.272727" fill="#ffffff" stroke="#ffffff" xlink:href="#b"/>
</g>
<g clip-path="url(#a)">
<use x="208.845528" y="967.272727" fill="#ffffff" stroke="#ffffff" xlink:href="#b"/>
</g>
<g clip-path="url(#a)">
<use x="233.560976" y="967.272727" fill="#ffffff" stroke="#ffffff" xlink:href="#b"/>
</g>
<g clip-path="url(#a)">
<use x="260.523282" y="967.272727" fill="#ffffff" stroke="#ffffff" xlink:href="#b"/>
</g>
<g clip-path="url(#a)">
<use x="289.732446" y="967.272727" fill="#ffffff" stroke="#ffffff" xlink:href="#b"/>
</g>
<g clip-path="url(#a)">
<use x="321.18847" y="967.272727" fill="#ffffff" stroke="#ffffff" xlink:href="#b"/>
</g>
<g clip-path="url(#a)">
<use x="354.891353" y="967.272727" fill="#ffffff" stroke="#ffffff" xlink:href="#b"/>
</g>
<g clip-path="url(#a)">
<use x="390.841094" y="967.272727" fill="#ffffff" stroke="#ffffff" xlink:href="#b"/>
</g>
<g clip-path="url(#a)">
<use x="429.037694" y="967.272727" fill="#ffffff" stroke="#ffffff" xlink:href="#b"/>
</g>
<g clip-path="url(#a)">
<use x="469.481153" y="967.272727" fill="#ffffff" stroke="#ffffff" xlink:href="#b"/>
</g>
<g clip-path="url(#a)">
<use x="512.171471" y="967.272727" fill="#ffffff" stroke="#ffffff" xlink:href="#b"/>
</g>
<g clip-path="url(#a)">
<use x="557.108647" y="967.272727" fill="#ffffff" stroke="#ffffff" xlink:href="#b"/>
</g>
<g clip-path="url(#a)">
<use x="604.292683" y="967.272727" fill="#ffffff" stroke="#ffffff" xlink:href="#b"/>
</g>
<g clip-path="url(#a)">
<use x="653.723577" y="967.272727" fill="#ffffff" stroke="#ffffff" xlink:href="#b"/>
</g>
<g clip-path="url(#a)">
<use x="705.40133" y="967.272727" fill="#ffffff" stroke="#ffffff" xlink:href="#b"/>
</g>
<g clip-path="url(#a)">
<use x="759.325942" y="967.272727" fill="#ffffff" stroke="#ffffff" xlink:href="#b"/>
</g>
<g clip-path="url(#a)">
<use x="815.497413" y="967.272727" fill="#ffffff" stroke="#ffffff" xlink:href="#b"/>
</g>
<g clip-path="url(#a)">
<use x="873.915743" y="967.272727" fill="#ffffff" stroke="#ffffff" xlink:href="#b"/>
</g>
<g clip-path="url(#a)">
<use x="934.580931" y="967.272727" fill="#ffffff" stroke="#ffffff" xlink:href="#b"/>
</g>
<g clip-path="url(#a)">
<use x="997.492979" y="967.272727" fill="#ffffff" stroke="#ffffff" xlink:href="#b"/>
</g>
<g clip-path="url(#a)">
<use x="1062.651885" y="967.272727" fill="#ffffff" stroke="#ffffff" xlink:href="#b"/>
</g>
<g clip-path="url(#a)">
<use x="1130.05765" y="967.272727" fill="#ffffff" stroke="#ffffff" xlink:href="#b"/>
</g>
<g clip-path="url(#a)">
<use x="1199.710273" y="967.272727" fill="#ffffff" stroke="#ffffff" xlink:href="#b"/>
</g>
<g clip-path="url(#a)">
<use x="1271.609756" y="967.272727" fill="#ffffff" stroke="#ffffff" xlink:href="#b"/>
</g>
<g clip-path="url(#a)">
<use x="1345.756098" y="967.272727" fill="#ffffff" stroke="#ffffff" xlink:href="#b"/>
</g>
<g clip-path="url(#a)">
<use x="1422.149298" y="967.272727" fill="#ffffff" stroke="#ffffff" xlink:href="#b"/>
</g>
<g clip-path="url(#a)">
<use x="1500.789357" y="967.272727" fill="#ffffff" stroke="#ffffff" xlink:href="#b"/>
</g>
<g clip-path="url(#a)">
<use x="1581.676275" y="967.272727" fill="#ffffff" stroke="#ffffff" xlink:href="#b"/>
</g>
<g clip-path="url(#a)">
<use x="1664.810052" y="967.272727" fill="#ffffff" stroke="#ffffff" xlink:href="#b"/>
</g>
<g clip-path="url(#a)">
<use x="1750.190687" y="967.272727" fill="#ffffff" stroke="#ffffff" xlink:href="#b"/>
</g>
<g clip-path="url(#a)">
<use x="1837.818182" y="967.272727" fill="#ffffff" stroke="#ffffff" xlink:href="#b"/>
</g>
<g clip-path="url(#a)">
<use x="186.37694" y="663.557073" fill="#ffffff" stroke="#ffffff" xlink:href="#b"/>
</g>
<g clip-path="url(#a)">
<use x="186.37694" y="816.463859" fill="#ffffff" stroke="#ffffff" xlink:href="#b"/>
</g>
<g clip-path="url(#a)">
<use x="333.029555" y="46.060606" fill="#ffffff" stroke="#ffffff" xlink:href="#b"/>
</g>
<g clip-path="url(#a)">
<use x="333.029555" y="200.994325" fill="#ffffff" stroke="#ffffff" xlink:href="#b"/>
</g>
<g clip-path="url(#a)">
<use x="662.464829" y="355.616401" fill="#ffffff" stroke="#ffffff" xlink:href="#b"/>
</g>
<g clip-path="url(#a)">
<use x="260.523282" y="816.463859" fill="#ffffff" stroke="#ffffff" xlink:href="#b"/>
</g>
<g clip-path="url(#a)">
<use x="289.732446" y="816.463859" fill="#ffffff" stroke="#ffffff" xlink:href="#b"/>
</g>
<g clip-path="url(#a)">
<use x="94.255728" y="816.463859" fill="#ffffff" stroke="#ffffff" xlink:href="#b"/>
</g>
<g clip-path="url(#a)">
<use x="127.022419" y="509.848305" fill="#ffffff" stroke="#ffffff" xlink:href="#b"/>
</g>
<g clip-path="url(#a)">
<use x="497.941365" y="509.848305" fill="#ffffff" stroke="#ffffff" xlink:href="#b"/>
</g>
<g clip-path="url(#a)">
<use x="759.325942" y="816.463859" fill="#ffffff" stroke="#ffffff" xlink:href="#b"/>
</g>
<g clip-path="url(#a)">
<use x="1089.36454" y="509.848305" fill="#ffffff" stroke="#ffffff" xlink:href="#b"/>
</g>
<g clip-path="url(#a)">
<use x="1345.756098" y="816.463859" fill="#ffffff" stroke="#ffffff" xlink:href="#b"/>
</g>
<g clip-path="url(#a)">
<use x="1255.600887" y="509.848305" fill="#ffffff" stroke="#ffffff" xlink:href="#b"/>
</g>
<g clip-path="url(#a)">
<use x="1422.149298" y="816.463859" fill="#ffffff" stroke="#ffffff" xlink:href="#b"/>
</g>
<g clip-path="url(#a)">
<use x="1500.789357" y="816.463859" fill="#ffffff" stroke="#ffffff" xlink:href="#b"/>
</g>
<g clip-path="url(#a)">
<use x="1708.623799" y="663.557073" fill="#ffffff" stroke="#ffffff" xlink:href="#b"/>
</g>
<g clip-path="url(#a)">
<use x="1581.676275" y="816.463859" fill="#ffffff" stroke="#ffffff" xlink:href="#b"/>
</g>
<g clip-path="url(#a)">
<use x="1664.810052" y="816.463859" fill="#ffffff" stroke="#ffffff" xlink:href="#b"/>
</g>
<g clip-path="url(#a)">
<use x="874.664696" y="663.557073" fill="#ffffff" stroke="#ffffff" xlink:href="#b"/>
</g>
<g clip-path="url(#a)">
<use x="997.492979" y="816.463859" fill="#ffffff" stroke="#ffffff" xlink:href="#b"/>
</g>
<g clip-path="url(#a)">
<use x="1062.651885" y="816.463859" fill="#ffffff" stroke="#ffffff" xlink:href="#b"/>
</g>
<g clip-path="url(#a)">
<use x="1130.05765" y="816.463859" fill="#ffffff" stroke="#ffffff" xlink:href="#b"/>
</g>
<g clip-path="url(#a)">
<use x="1271.609756" y="816.463859" fill="#ffffff" stroke="#ffffff" xlink:href="#b"/>
</g>
<g clip-path="url(#a)">
<use x="815.497413" y="816.463859" fill="#ffffff" stroke="#ffffff" xlink:href="#b"/>
</g>
<g clip-path="url(#a)">
<use x="873.915743" y="816.463859" fill="#ffffff" stroke="#ffffff" xlink:href="#b"/>
</g>
<g clip-path="url(#a)">
<use x="934.580931" y="816.463859" fill="#ffffff" stroke="#ffffff" xlink:href="#b"/>
</g>
<g clip-path="url(#a)">
<use x="390.841094" y="816.463859" fill="#ffffff" stroke="#ffffff" xlink:href="#b"/>
</g>
<g clip-path="url(#a)">
<use x="429.037694" y="816.463859" fill="#ffffff" stroke="#ffffff" xlink:href="#b"/>
</g>
<g clip-path="url(#a)">
<use x="469.481153" y="816.463859" fill="#ffffff" stroke="#ffffff" xlink:href="#b"/>
</g>
<g clip-path="url(#a)">
<use x="512.171471" y="816.463859" fill="#ffffff" stroke="#ffffff" xlink:href="#b"/>
</g>
<g clip-path="url(#a)">
<use x="557.108647" y="816.463859" fill="#ffffff" stroke="#ffffff" xlink:href="#b"/>
</g>
<g clip-path="url(#a)">
<use x="629.00813" y="663.557073" fill="#ffffff" stroke="#ffffff" xlink:href="#b"/>
</g>
<g clip-path="url(#a)">
<use x="604.292683" y="816.463859" fill="#ffffff" stroke="#ffffff" xlink:href="#b"/>
</g>
<g clip-path="url(#a)">
<use x="653.723577" y="816.463859" fill="#ffffff" stroke="#ffffff" xlink:href="#b"/>
</g>
<g clip-path="url(#a)">
<use x="103.243163" y="816.463859" fill="#ffffff" stroke="#ffffff" xlink:href="#b"/>
</g>
<g clip-path="url(#a)">
<use x="114.477458" y="816.463859" fill="#ffffff" stroke="#ffffff" xlink:href="#b"/>
</g>
<g clip-path="url(#a)">
<use x="127.95861" y="816.463859" fill="#ffffff" stroke="#ffffff" xlink:href="#b"/>
</g>
<g clip-path="url(#a)">
<use x="162.410446" y="663.557073" fill="#ffffff" stroke="#ffffff" xlink:href="#b"/>
</g>
<g clip-path="url(#a)">
<use x="162.410446" y="816.463859" fill="#ffffff" stroke="#ffffff" xlink:href="#b"/>
</g>
<g clip-path="url(#a)">
<use x="1230.240508" y="355.616401" fill="#808080" stroke="#808080" xlink:href="#b"/>
</g>
<g clip-path="url(#a)">
<use x="782.210616" y="355.616401" fill="#808080" stroke="#808080" xlink:href="#b"/>
</g>
<g clip-path="url(#a)">
<use x="239.739837" y="355.616401" fill="#808080" stroke="#808080" xlink:href="#b"/>
</g>
<g clip-path="url(#a)">
<use x="87.515152" y="816.463859" fill="#ffffff" stroke="#ffffff" xlink:href="#b"/>
</g>
<g clip-path="url(#a)">
<use x="208.845528" y="816.463859" fill="#ffffff" stroke="#ffffff" xlink:href="#b"/>
</g>
<g clip-path="url(#a)">
<use x="233.560976" y="816.463859" fill="#ffffff" stroke="#ffffff" xlink:href="#b"/>
</g>
<g clip-path="url(#a)">
<use x="321.18847" y="816.463859" fill="#ffffff" stroke="#ffffff" xlink:href="#b"/>
</g>
<g clip-path="url(#a)">
<use x="354.891353" y="816.463859" fill="#ffffff" stroke="#ffffff" xlink:href="#b"/>
</g>
<g clip-path="url(#a)">
<use x="705.40133" y="816.463859" fill="#ffffff" stroke="#ffffff" xlink:href="#b"/>
</g>
<g clip-path="url(#a)">
<use x="1199.710273" y="816.463859" fill="#ffffff" stroke="#ffffff" xlink:href="#b"/>
</g>
<g clip-path="url(#a)">
<use x="1750.190687" y="816.463859" fill="#ffffff" stroke="#ffffff" xlink:href="#b"/>
</g>
<g clip-path="url(#a)">
<use x="1837.818182" y="816.463859" fill="#ffffff" stroke="#ffffff" xlink:href="#b"/>
</g>
<g clip-path="url(#a)">
<defs>
<path id="aj" d="m17.922 72.906v-27.109h-8.2969v27.109zm18.453 0v-27.109h-8.2969v27.109z"/>
</defs>
<g transform="translate(85.215 970.03) scale(.1 -.1)">
<use xlink:href="#aj"/>
</g>
</g>
<g clip-path="url(#a)">
<defs>
<path id="w" d="m9.8125 72.906h9.8594v-72.906h-9.8594z"/>
<path id="bb" d="m37.109 75.984v-7.4844h-8.5938q-4.8281 0-6.7188-1.9531-1.875-1.9531-1.875-7.0312v-4.8281h14.797v-6.9844h-14.797v-47.703h-9.0312v47.703h-8.5938v6.9844h8.5938v3.8125q0 9.125 4.25 13.297 4.25 4.1875 13.469 4.1875z"/>
</defs>
<g transform="translate(91.021 970.03) scale(.1 -.1)">
<use xlink:href="#w"/>
<use x="29.492188" xlink:href="#bb"/>
</g>
</g>
<g clip-path="url(#a)">
<defs>
<path id="ae" d="m44.281 53.078v-8.5q-3.7969 1.9531-7.9062 2.9219-4.0938 0.98438-8.5 0.98438-6.6875 0-10.031-2.0469t-3.3438-6.1562q0-3.125 2.3906-4.9062t9.625-3.3906l3.0781-0.6875q9.5625-2.0469 13.594-5.7812t4.0312-10.422q0-7.625-6.0312-12.078-6.0312-4.4375-16.578-4.4375-4.3906 0-9.1562 0.85938t-10.031 2.5625v9.2812q4.9844-2.5938 9.8125-3.8906 4.8281-1.2812 9.5781-1.2812 6.3438 0 9.75 2.1719 3.4219 2.1719 3.4219 6.125 0 3.6562-2.4688 5.6094-2.4531 1.9531-10.812 3.7656l-3.125 0.73438q-8.3438 1.75-12.062 5.3906-3.7031 3.6406-3.7031 9.9844 0 7.7188 5.4688 11.906 5.4688 4.2031 15.531 4.2031 4.9688 0 9.3594-0.73438 4.4062-0.71875 8.1094-2.1875z"/>
<path id="v" d="m18.312 70.219v-15.531h18.5v-6.9844h-18.5v-29.688q0-6.6875 1.8281-8.5938t7.4531-1.9062h9.2188v-7.5156h-9.2188q-10.406 0-14.359 3.875-3.9531 3.8906-3.9531 14.141v29.688h-6.5938v6.9844h6.5938v15.531z"/>
</defs>
<g transform="translate(85.612 970.03) scale(.1 -.1)">
<use xlink:href="#j"/>
<use x="97.412109" xlink:href="#i"/>
<use x="158.691406" xlink:href="#ae"/>
<use x="210.791016" xlink:href="#v"/>
<use x="250" xlink:href="#d"/>
<use x="311.523438" xlink:href="#g"/>
</g>
</g>
<g clip-path="url(#a)">
<defs>
<path id="as" d="m4.2031 54.688h8.9844l11.234-42.672 11.172 42.672h10.594l11.234-42.672 11.188 42.672h8.9844l-14.312-54.688h-10.594l-11.766 44.828-11.812-44.828h-10.609z"/>
</defs>
<g transform="translate(106.22 970.03) scale(.1 -.1)">
<use xlink:href="#as"/>
<use x="81.787109" xlink:href="#h"/>
<use x="109.570312" xlink:href="#k"/>
<use x="137.353516" xlink:href="#k"/>
</g>
</g>
<g clip-path="url(#a)">
<defs>
<path id="aa" d="m18.109 8.2031v-29h-9.0312v75.484h9.0312v-8.2969q2.8438 4.875 7.1562 7.2344 4.3281 2.375 10.328 2.375 9.9688 0 16.188-7.9062 6.2344-7.9062 6.2344-20.797t-6.2344-20.812q-6.2188-7.9062-16.188-7.9062-6 0-10.328 2.375-4.3125 2.375-7.1562 7.25zm30.578 19.094q0 9.9062-4.0781 15.547t-11.203 5.6406q-7.1406 0-11.219-5.6406t-4.0781-15.547 4.0781-15.547 11.219-5.6406q7.125 0 11.203 5.6406t4.0781 15.547z"/>
</defs>
<g transform="translate(111.52 970.03) scale(.1 -.1)">
<use xlink:href="#aa"/>
<use x="63.476562" xlink:href="#d"/>
<use x="125" xlink:href="#g"/>
<use x="164.363281" xlink:href="#j"/>
<use x="261.775391" xlink:href="#h"/>
<use x="289.558594" xlink:href="#v"/>
</g>
</g>
<g clip-path="url(#a)">
<defs>
<path id="ar" d="m32.172-5.0781q-3.7969-9.7656-7.4219-12.734-3.6094-2.9844-9.6562-2.9844h-7.1875v7.5156h5.2812q3.7031 0 5.75 1.7656 2.0625 1.75 4.5469 8.2969l1.6094 4.0938-22.109 53.812h9.5156l17.094-42.766 17.094 42.766h9.5156z"/>
</defs>
<g transform="translate(135.86 970.03) scale(.1 -.1)">
<use xlink:href="#j"/>
<use x="97.412109" xlink:href="#ar"/>
</g>
</g>
<g clip-path="url(#a)">
<defs>
<path id="at" d="m45.406 27.984q0 9.7656-4.0312 15.125-4.0156 5.375-11.297 5.375-7.2188 0-11.25-5.375-4.0312-5.3594-4.0312-15.125 0-9.7188 4.0312-15.094t11.25-5.375q7.2812 0 11.297 5.375 4.0312 5.375 4.0312 15.094zm8.9844-21.203q0-13.953-6.2031-20.766-6.1875-6.8125-18.984-6.8125-4.7344 0-8.9375 0.70312t-8.1562 2.1719v8.7344q3.9531-2.1406 7.8125-3.1562 3.8594-1.0312 7.8594-1.0312 8.8438 0 13.234 4.6094t4.3906 13.938v4.4531q-2.7812-4.8438-7.125-7.2344t-10.406-2.3906q-10.047 0-16.203 7.6562-6.1562 7.6719-6.1562 20.328 0 12.688 6.1562 20.344 6.1562 7.6719 16.203 7.6719 6.0625 0 10.406-2.3906t7.125-7.2188v8.2969h8.9844z"/>
</defs>
<g transform="translate(145.3 970.03) scale(.1 -.1)">
<use xlink:href="#ae"/>
<use x="52.099609" xlink:href="#i"/>
<use x="113.378906" xlink:href="#ar"/>
<use x="172.558594" xlink:href="#h"/>
<use x="200.341797" xlink:href="#f"/>
<use x="263.720703" xlink:href="#at"/>
</g>
</g>
<g clip-path="url(#a)">
<defs>
<path id="u" d="m30.609 48.391q-7.2188 0-11.422-5.6406t-4.2031-15.453 4.1719-15.453q4.1875-5.6406 11.453-5.6406 7.1875 0 11.375 5.6562 4.2031 5.6719 4.2031 15.438 0 9.7188-4.2031 15.406-4.1875 5.6875-11.375 5.6875zm0 7.6094q11.719 0 18.406-7.625 6.7031-7.6094 6.7031-21.078 0-13.422-6.7031-21.078-6.6875-7.6406-18.406-7.6406-11.766 0-18.438 7.6406-6.6562 7.6562-6.6562 21.078 0 13.469 6.6562 21.078 6.6719 7.625 18.438 7.625z"/>
</defs>
<g transform="translate(176.22 970.03) scale(.1 -.1)">
<use xlink:href="#ae"/>
<use x="52.099609" xlink:href="#u"/>
</g>
</g>
<g clip-path="url(#a)">
<defs>
<path id="ai" d="m11.719 12.406h10.297v-8.4062l-8-15.625h-6.2969l4 15.625z"/>
</defs>
<g transform="translate(207.26 970.03) scale(.1 -.1)">
<use xlink:href="#ai"/>
</g>
</g>
<g clip-path="url(#a)">
<g transform="translate(231.26 970.03) scale(.1 -.1)">
<use xlink:href="#aj"/>
</g>
</g>
<g clip-path="url(#a)">
<g transform="translate(242.34 970.03) scale(.1 -.1)">
<use xlink:href="#z"/>
<use x="69.824219" xlink:href="#u"/>
<use x="131.005859" xlink:href="#f"/>
<use x="194.384766" xlink:href="#ae"/>
<use x="246.484375" xlink:href="#d"/>
<use x="308.007812" xlink:href="#h"/>
<use x="335.791016" xlink:href="#k"/>
</g>
</g>
<g clip-path="url(#a)">
<defs>
<path id="ab" d="m45.406 46.391v29.594h8.9844v-75.984h-8.9844v8.2031q-2.8281-4.875-7.1562-7.25-4.3125-2.375-10.375-2.375-9.9062 0-16.141 7.9062-6.2188 7.9219-6.2188 20.812t6.2188 20.797q6.2344 7.9062 16.141 7.9062 6.0625 0 10.375-2.375 4.3281-2.3594 7.1562-7.2344zm-30.609-19.094q0-9.9062 4.0781-15.547t11.203-5.6406 11.219 5.6406q4.1094 5.6406 4.1094 15.547t-4.1094 15.547q-4.0938 5.6406-11.219 5.6406t-11.203-5.6406-4.0781-15.547z"/>
</defs>
<g transform="translate(272.51 970.03) scale(.1 -.1)">
<use xlink:href="#g"/>
<use x="38.863281" xlink:href="#d"/>
<use x="100.386719" xlink:href="#aa"/>
<use x="163.863281" xlink:href="#k"/>
<use x="191.646484" xlink:href="#h"/>
<use x="219.429688" xlink:href="#d"/>
<use x="280.953125" xlink:href="#ab"/>
</g>
</g>
<g clip-path="url(#a)">
<g transform="translate(319.6 970.03) scale(.1 -.1)">
<use xlink:href="#ai"/>
</g>
</g>
<g clip-path="url(#a)">
<g transform="translate(352.59 970.03) scale(.1 -.1)">
<use xlink:href="#aj"/>
</g>
</g>
<g clip-path="url(#a)">
<g transform="translate(389.37 970.03) scale(.1 -.1)">
<use xlink:href="#w"/>
</g>
</g>
<g clip-path="url(#a)">
<defs>
<path id="ao" d="m2.9844 54.688h9.5156l17.094-45.891 17.094 45.891h9.5156l-20.516-54.688h-12.203z"/>
</defs>
<g transform="translate(414.7 970.03) scale(.1 -.1)">
<use xlink:href="#f"/>
<use x="63.378906" xlink:href="#d"/>
<use x="124.902344" xlink:href="#ao"/>
<use x="184.082031" xlink:href="#d"/>
<use x="245.605469" xlink:href="#g"/>
</g>
</g>
<g clip-path="url(#a)">
<defs>
<path id="az" d="m54.891 54.688-19.781-26.609 20.797-28.078h-10.594l-15.922 21.484-15.906-21.484h-10.609l21.25 28.609-19.438 26.078h10.594l14.5-19.484 14.5 19.484z"/>
<path id="ap" d="m48.781 52.594v-8.4062q-3.8125 2.1094-7.6406 3.1562t-7.7344 1.0469q-8.75 0-13.594-5.5469-4.8281-5.5312-4.8281-15.547t4.8281-15.562q4.8438-5.5312 13.594-5.5312 3.9062 0 7.7344 1.0469t7.6406 3.1562v-8.3125q-3.7656-1.75-7.7969-2.625-4.0156-0.89062-8.5625-0.89062-12.359 0-19.641 7.7656-7.2656 7.7656-7.2656 20.953 0 13.375 7.3438 21.031 7.3594 7.6719 20.156 7.6719 4.1406 0 8.0938-0.85938 3.9531-0.84375 7.6719-2.5469z"/>
</defs>
<g transform="translate(446.32 970.03) scale(.1 -.1)">
<use xlink:href="#d"/>
<use x="59.773438" xlink:href="#az"/>
<use x="118.953125" xlink:href="#aa"/>
<use x="182.429688" xlink:href="#d"/>
<use x="243.953125" xlink:href="#ap"/>
<use x="298.933594" xlink:href="#v"/>
<use x="338.142578" xlink:href="#d"/>
<use x="399.666016" xlink:href="#ab"/>
</g>
</g>
<g clip-path="url(#a)">
<g transform="translate(507.15 970.03) scale(.1 -.1)">
<use xlink:href="#v"/>
<use x="39.208984" xlink:href="#u"/>
</g>
</g>
<g clip-path="url(#a)">
<g transform="translate(548.46 970.03) scale(.1 -.1)">
<use xlink:href="#as"/>
<use x="81.787109" xlink:href="#h"/>
<use x="109.570312" xlink:href="#f"/>
</g>
</g>
<g clip-path="url(#a)">
<defs>
<path id="ak" d="m54.891 33.016v-33.016h-8.9844v32.719q0 7.7656-3.0312 11.609-3.0312 3.8594-9.0781 3.8594-7.2812 0-11.484-4.6406-4.2031-4.625-4.2031-12.641v-30.906h-9.0312v75.984h9.0312v-29.797q3.2344 4.9375 7.5938 7.375 4.375 2.4375 10.094 2.4375 9.4219 0 14.25-5.8281 4.8438-5.8281 4.8438-17.156z"/>
</defs>
<g transform="translate(594.14 970.03) scale(.1 -.1)">
<use xlink:href="#v"/>
<use x="39.208984" xlink:href="#ak"/>
<use x="102.587891" xlink:href="#i"/>
<use x="163.867188" xlink:href="#v"/>
</g>
</g>
<g clip-path="url(#a)">
<defs>
<path id="ay" d="m5.5156 54.688h42.672v-8.2031l-33.781-39.312h33.781v-7.1719h-43.891v8.2031l33.797 39.312h-32.578z"/>
</defs>
<g transform="translate(641.4 970.03) scale(.1 -.1)">
<use xlink:href="#aa"/>
<use x="63.476562" xlink:href="#g"/>
<use x="104.589844" xlink:href="#h"/>
<use x="132.373047" xlink:href="#ay"/>
<use x="184.863281" xlink:href="#d"/>
</g>
</g>
<g clip-path="url(#a)">
<g transform="translate(703.81 970.03) scale(.1 -.1)">
<use xlink:href="#ai"/>
</g>
</g>
<g clip-path="url(#a)">
<g transform="translate(749.92 970.03) scale(.1 -.1)">
<use xlink:href="#i"/>
<use x="61.279297" xlink:href="#f"/>
<use x="124.658203" xlink:href="#ab"/>
</g>
</g>
<g clip-path="url(#a)">
<g transform="translate(807.29 970.03) scale(.1 -.1)">
<use xlink:href="#v"/>
<use x="39.208984" xlink:href="#ak"/>
<use x="102.587891" xlink:href="#d"/>
</g>
</g>
<g clip-path="url(#a)">
<g transform="translate(859.47 970.03) scale(.1 -.1)">
<use xlink:href="#t"/>
<use x="73.193359" xlink:href="#f"/>
<use x="136.572266" xlink:href="#h"/>
<use x="164.355469" xlink:href="#u"/>
<use x="225.537109" xlink:href="#f"/>
</g>
</g>
<g clip-path="url(#a)">
<g transform="translate(904.1 970.03) scale(.1 -.1)">
<use xlink:href="#at"/>
<use x="63.476562" xlink:href="#u"/>
<use x="124.658203" xlink:href="#ao"/>
<use x="183.837891" xlink:href="#d"/>
<use x="245.361328" xlink:href="#g"/>
<use x="284.724609" xlink:href="#f"/>
<use x="348.103516" xlink:href="#j"/>
<use x="445.515625" xlink:href="#d"/>
<use x="507.039062" xlink:href="#f"/>
<use x="570.417969" xlink:href="#v"/>
</g>
</g>
<g clip-path="url(#a)">
<defs>
<path id="ba" d="m8.5 21.578v33.109h8.9844v-32.766q0-7.7656 3.0156-11.656 3.0312-3.875 9.0938-3.875 7.2656 0 11.484 4.6406 4.2344 4.6406 4.2344 12.656v31h8.9844v-54.688h-8.9844v8.4062q-3.2656-4.9844-7.5938-7.4062-4.3125-2.4219-10.031-2.4219-9.4219 0-14.312 5.8594-4.875 5.8594-4.875 17.141z"/>
</defs>
<g transform="translate(983.95 970.03) scale(.1 -.1)">
<use xlink:href="#ap"/>
<use x="54.980469" xlink:href="#u"/>
<use x="116.162109" xlink:href="#ba"/>
<use x="179.541016" xlink:href="#k"/>
<use x="207.324219" xlink:href="#ab"/>
</g>
</g>
<g clip-path="url(#a)">
<g transform="translate(1050.4 970.03) scale(.1 -.1)">
<use xlink:href="#ak"/>
<use x="63.378906" xlink:href="#i"/>
<use x="124.658203" xlink:href="#ao"/>
<use x="183.837891" xlink:href="#d"/>
</g>
</g>
<g clip-path="url(#a)">
<g transform="translate(1106.8 970.03) scale(.1 -.1)">
<use xlink:href="#aa"/>
<use x="63.476562" xlink:href="#g"/>
<use x="102.339844" xlink:href="#u"/>
<use x="163.521484" xlink:href="#j"/>
<use x="260.933594" xlink:href="#h"/>
<use x="288.716797" xlink:href="#ae"/>
<use x="340.816406" xlink:href="#d"/>
<use x="402.339844" xlink:href="#ab"/>
</g>
</g>
<g clip-path="url(#a)">
<defs>
<path id="ax" d="m33.797-14.703h-4.8906l-0.046875 14.703q-5.125 0.09375-10.25 1.1875-5.125 1.1094-10.312 3.3125v8.7812q4.9844-3.125 10.078-4.7188 5.1094-1.5781 10.531-1.625v22.266q-10.797 1.75-15.703 5.9531t-4.9062 11.531q0 7.9531 5.3281 12.531 5.3281 4.5938 15.281 5.2812v11.484h4.8906v-11.328q4.5312-0.20312 8.7812-0.96875 4.25-0.75 8.2969-2.0625v-8.5469q-4.0469 2.0469-8.3281 3.1719-4.2656 1.125-8.75 1.3125v-20.844q11.078-1.7031 16.297-6.1094 5.2344-4.3906 5.2344-12 0-8.25-5.5469-13.016t-15.984-5.5zm-4.8906 52.297v20.031q-5.6562-0.64062-8.6406-3.2344-2.9844-2.5781-2.9844-6.875 0-4.2031 2.75-6.5469 2.7656-2.3438 8.875-3.375zm4.8906-9.375v-21.141q6.1875 0.82812 9.3438 3.5156t3.1562 7.0781q0 4.2969-3.0156 6.8281-3 2.5469-9.4844 3.7188z"/>
</defs>
<g transform="translate(1196.5 970.03) scale(.1 -.1)">
<use xlink:href="#ax"/>
</g>
</g>
<g clip-path="url(#a)">
<defs>
<path id="c" d="m12.406 8.2969h16.109v55.625l-17.531-3.5156v8.9844l17.438 3.5156h9.8594v-64.609h16.109v-8.2969h-41.984z"/>
<path id="s" d="m31.781 66.406q-7.6094 0-11.453-7.5-3.8281-7.4844-3.8281-22.531 0-14.984 3.8281-22.484 3.8438-7.5 11.453-7.5 7.6719 0 11.5 7.5 3.8438 7.5 3.8438 22.484 0 15.047-3.8438 22.531-3.8281 7.5-11.5 7.5zm0 7.8125q12.266 0 18.734-9.7031 6.4688-9.6875 6.4688-28.141 0-18.406-6.4688-28.109-6.4688-9.6875-18.734-9.6875-12.25 0-18.719 9.6875-6.4688 9.7031-6.4688 28.109 0 18.453 6.4688 28.141 6.4688 9.7031 18.719 9.7031z"/>
<path id="e" d="m10.688 12.406h10.312v-12.406h-10.312z"/>
</defs>
<g transform="translate(1243 970.03) scale(.1 -.1)">
<use xlink:href="#c"/>
<use x="63.623047" xlink:href="#s"/>
<use x="127.246094" xlink:href="#s"/>
<use x="190.869141" xlink:href="#ai"/>
<use x="222.65625" xlink:href="#s"/>
<use x="286.279297" xlink:href="#s"/>
<use x="349.902344" xlink:href="#s"/>
<use x="413.525391" xlink:href="#e"/>
<use x="445.3125" xlink:href="#s"/>
<use x="508.935547" xlink:href="#s"/>
</g>
</g>
<g clip-path="url(#a)">
<g transform="translate(1336.3 970.03) scale(.1 -.1)">
<use xlink:href="#i"/>
<use x="61.279297" xlink:href="#f"/>
<use x="124.658203" xlink:href="#ab"/>
</g>
</g>
<g clip-path="url(#a)">
<defs>
<path id="au" d="m48.688 27.297q0 9.9062-4.0781 15.547t-11.203 5.6406q-7.1406 0-11.219-5.6406t-4.0781-15.547 4.0781-15.547 11.219-5.6406q7.125 0 11.203 5.6406t4.0781 15.547zm-30.578 19.094q2.8438 4.875 7.1562 7.2344 4.3281 2.375 10.328 2.375 9.9688 0 16.188-7.9062 6.2344-7.9062 6.2344-20.797t-6.2344-20.812q-6.2188-7.9062-16.188-7.9062-6 0-10.328 2.375-4.3125 2.375-7.1562 7.25v-8.2031h-9.0312v75.984h9.0312z"/>
</defs>
<g transform="translate(1409.7 970.03) scale(.1 -.1)">
<use xlink:href="#au"/>
<use x="63.476562" xlink:href="#d"/>
<use x="125" xlink:href="#d"/>
<use x="186.523438" xlink:href="#f"/>
</g>
</g>
<g clip-path="url(#a)">
<g transform="translate(1488.3 970.03) scale(.1 -.1)">
<use xlink:href="#f"/>
<use x="63.378906" xlink:href="#u"/>
<use x="124.560547" xlink:href="#f"/>
<use x="187.939453" xlink:href="#d"/>
</g>
</g>
<g clip-path="url(#a)">
<g transform="translate(1573.5 970.03) scale(.1 -.1)">
<use xlink:href="#v"/>
<use x="39.208984" xlink:href="#ak"/>
<use x="102.587891" xlink:href="#d"/>
</g>
</g>
<g clip-path="url(#a)">
<g transform="translate(1648.4 970.03) scale(.1 -.1)">
<use xlink:href="#aa"/>
<use x="63.476562" xlink:href="#u"/>
<use x="124.658203" xlink:href="#u"/>
<use x="185.839844" xlink:href="#g"/>
<use x="224.703125" xlink:href="#d"/>
<use x="286.226562" xlink:href="#g"/>
</g>
</g>
<g clip-path="url(#a)">
<g transform="translate(1748.6 970.03) scale(.1 -.1)">
<use xlink:href="#e"/>
</g>
</g>
<g clip-path="url(#a)">
<g transform="translate(1835.5 970.03) scale(.1 -.1)">
<use xlink:href="#aj"/>
</g>
</g>
<g clip-path="url(#a)">
<defs>
<path id="aq" d="m9.8125 72.906h14.703l18.594-49.609 18.703 49.609h14.703v-72.906h-9.625v64.016l-18.797-50h-9.9062l-18.797 50v-64.016h-9.5781z"/>
</defs>
<g transform="translate(165.29 666.32) scale(.1 -.1)">
<use xlink:href="#w"/>
<use x="29.492188" xlink:href="#aq"/>
<use x="115.771484" xlink:href="#x"/>
<use x="176.074219" xlink:href="#o"/>
<use x="231.787109" xlink:href="#w"/>
<use x="261.279297" xlink:href="#z"/>
<use x="331.103516" xlink:href="#w"/>
<use x="360.595703" xlink:href="#l"/>
</g>
</g>
<g clip-path="url(#a)">
<g transform="translate(165.29 819.22) scale(.1 -.1)">
<use xlink:href="#w"/>
<use x="29.492188" xlink:href="#aq"/>
<use x="115.771484" xlink:href="#x"/>
<use x="176.074219" xlink:href="#o"/>
<use x="231.787109" xlink:href="#w"/>
<use x="261.279297" xlink:href="#z"/>
<use x="331.103516" xlink:href="#w"/>
<use x="360.595703" xlink:href="#l"/>
</g>
</g>
<g clip-path="url(#a)">
<g transform="translate(325.08 48.82) scale(.1 -.1)">
<use xlink:href="#c"/>
<use x="63.623047" xlink:href="#e"/>
<use x="95.410156" xlink:href="#c"/>
</g>
</g>
<g clip-path="url(#a)">
<defs>
<path id="q" d="m19.188 8.2969h34.422v-8.2969h-46.281v8.2969q5.6094 5.8125 15.297 15.594 9.7031 9.7969 12.188 12.641 4.7344 5.3125 6.6094 9 1.8906 3.6875 1.8906 7.25 0 5.8125-4.0781 9.4688-4.0781 3.6719-10.625 3.6719-4.6406 0-9.7969-1.6094-5.1406-1.6094-11-4.8906v9.9688q5.9531 2.3906 11.125 3.6094 5.1875 1.2188 9.4844 1.2188 11.328 0 18.062-5.6719 6.7344-5.6562 6.7344-15.125 0-4.5-1.6875-8.5312-1.6719-4.0156-6.125-9.4844-1.2188-1.4219-7.7656-8.1875-6.5312-6.7656-18.453-18.922z"/>
</defs>
<g transform="translate(325.08 203.75) scale(.1 -.1)">
<use xlink:href="#c"/>
<use x="63.623047" xlink:href="#e"/>
<use x="95.410156" xlink:href="#q"/>
</g>
</g>
<g clip-path="url(#a)">
<defs>
<path id="p" d="m40.578 39.312q7.0781-1.5156 11.047-6.3125 3.9844-4.7812 3.9844-11.812 0-10.781-7.4219-16.703-7.4219-5.9062-21.094-5.9062-4.5781 0-9.4375 0.90625t-10.031 2.7188v9.5156q4.0938-2.3906 8.9688-3.6094 4.8906-1.2188 10.219-1.2188 9.2656 0 14.125 3.6562t4.8594 10.641q0 6.4531-4.5156 10.078-4.5156 3.6406-12.562 3.6406h-8.5v8.1094h8.8906q7.2656 0 11.125 2.9062t3.8594 8.375q0 5.6094-3.9844 8.6094-3.9688 3.0156-11.391 3.0156-4.0625 0-8.7031-0.89062-4.6406-0.875-10.203-2.7188v8.7812q5.625 1.5625 10.531 2.3438t9.25 0.78125q11.234 0 17.766-5.1094 6.5469-5.0938 6.5469-13.781 0-6.0625-3.4688-10.234t-9.8594-5.7812z"/>
</defs>
<g transform="translate(654.51 358.38) scale(.1 -.1)">
<use xlink:href="#c"/>
<use x="63.623047" xlink:href="#e"/>
<use x="95.410156" xlink:href="#p"/>
</g>
</g>
<g clip-path="url(#a)">
<defs>
<path id="r" d="m37.797 64.312-24.906-38.922h24.906zm-2.5938 8.5938h12.406v-47.516h10.406v-8.2031h-10.406v-17.188h-9.8125v17.188h-32.906v9.5156z"/>
</defs>
<g transform="translate(252.57 819.22) scale(.1 -.1)">
<use xlink:href="#c"/>
<use x="63.623047" xlink:href="#e"/>
<use x="95.410156" xlink:href="#r"/>
</g>
</g>
<g clip-path="url(#a)">
<defs>
<path id="n" d="m10.797 72.906h38.719v-8.3125h-29.688v-17.859q2.1406 0.73438 4.2812 1.0938 2.1562 0.35938 4.3125 0.35938 12.203 0 19.328-6.6875 7.1406-6.6875 7.1406-18.109 0-11.766-7.3281-18.297-7.3281-6.5156-20.656-6.5156-4.5938 0-9.3594 0.78125-4.75 0.78125-9.8281 2.3438v9.9219q4.3906-2.3906 9.0781-3.5625t9.9062-1.1719q8.4531 0 13.375 4.4375 4.9375 4.4375 4.9375 12.062 0 7.6094-4.9375 12.047-4.9219 4.4531-13.375 4.4531-3.9531 0-7.8906-0.875-3.9219-0.875-8.0156-2.7344z"/>
</defs>
<g transform="translate(281.78 819.22) scale(.1 -.1)">
<use xlink:href="#c"/>
<use x="63.623047" xlink:href="#e"/>
<use x="95.410156" xlink:href="#n"/>
</g>
</g>
<g clip-path="url(#a)">
<g transform="translate(83.123 819.22) scale(.1 -.1)">
<use xlink:href="#c"/>
<use x="63.623047" xlink:href="#e"/>
<use x="95.410156" xlink:href="#c"/>
<use x="159.033203" xlink:href="#s"/>
</g>
</g>
<g clip-path="url(#a)">
<g transform="translate(115.89 512.61) scale(.1 -.1)">
<use xlink:href="#c"/>
<use x="63.623047" xlink:href="#e"/>
<use x="95.410156" xlink:href="#c"/>
<use x="159.033203" xlink:href="#c"/>
</g>
</g>
<g clip-path="url(#a)">
<g transform="translate(486.81 512.61) scale(.1 -.1)">
<use xlink:href="#c"/>
<use x="63.623047" xlink:href="#e"/>
<use x="95.410156" xlink:href="#c"/>
<use x="159.033203" xlink:href="#q"/>
</g>
</g>
<g clip-path="url(#a)">
<g transform="translate(748.19 819.22) scale(.1 -.1)">
<use xlink:href="#c"/>
<use x="63.623047" xlink:href="#e"/>
<use x="95.410156" xlink:href="#c"/>
<use x="159.033203" xlink:href="#p"/>
</g>
</g>
<g clip-path="url(#a)">
<g transform="translate(1078.2 512.61) scale(.1 -.1)">
<use xlink:href="#c"/>
<use x="63.623047" xlink:href="#e"/>
<use x="95.410156" xlink:href="#c"/>
<use x="159.033203" xlink:href="#r"/>
</g>
</g>
<g clip-path="url(#a)">
<g transform="translate(1334.6 819.22) scale(.1 -.1)">
<use xlink:href="#c"/>
<use x="63.623047" xlink:href="#e"/>
<use x="95.410156" xlink:href="#c"/>
<use x="159.033203" xlink:href="#n"/>
</g>
</g>
<g clip-path="url(#a)">
<defs>
<path id="y" d="m33.016 40.375q-6.6406 0-10.531-4.5469-3.875-4.5312-3.875-12.438 0-7.8594 3.875-12.438 3.8906-4.5625 10.531-4.5625t10.516 4.5625q3.875 4.5781 3.875 12.438 0 7.9062-3.875 12.438-3.875 4.5469-10.516 4.5469zm19.578 30.922v-8.9844q-3.7188 1.75-7.5 2.6719-3.7812 0.9375-7.5 0.9375-9.7656 0-14.922-6.5938-5.1406-6.5938-5.875-19.922 2.875 4.25 7.2188 6.5156 4.3594 2.2656 9.5781 2.2656 10.984 0 17.359-6.6719 6.375-6.6562 6.375-18.125 0-11.234-6.6406-18.031-6.6406-6.7812-17.672-6.7812-12.656 0-19.344 9.6875-6.6875 9.7031-6.6875 28.109 0 17.281 8.2031 27.562t22.016 10.281q3.7188 0 7.5-0.73438t7.8906-2.1875z"/>
</defs>
<g transform="translate(1244.5 512.61) scale(.1 -.1)">
<use xlink:href="#c"/>
<use x="63.623047" xlink:href="#e"/>
<use x="95.410156" xlink:href="#c"/>
<use x="159.033203" xlink:href="#y"/>
</g>
</g>
<g clip-path="url(#a)">
<defs>
<path id="ad" d="m10.984 1.5156v8.9844q3.7188-1.7656 7.5156-2.6875 3.8125-0.92188 7.4844-0.92188 9.7656 0 14.906 6.5625 5.1562 6.5625 5.8906 19.953-2.8281-4.2031-7.1875-6.4531-4.3438-2.25-9.6094-2.25-10.938 0-17.312 6.6094-6.375 6.625-6.375 18.109 0 11.219 6.6406 18 6.6406 6.7969 17.672 6.7969 12.656 0 19.312-9.7031 6.6719-9.6875 6.6719-28.141 0-17.234-8.1875-27.516-8.1719-10.281-21.984-10.281-3.7188 0-7.5312 0.73438-3.7969 0.73438-7.9062 2.2031zm19.625 30.906q6.6406 0 10.516 4.5312 3.8906 4.5469 3.8906 12.469 0 7.8594-3.8906 12.422-3.875 4.5625-10.516 4.5625t-10.516-4.5625-3.875-12.422q0-7.9219 3.875-12.469 3.875-4.5312 10.516-4.5312z"/>
</defs>
<g transform="translate(1411 819.22) scale(.1 -.1)">
<use xlink:href="#c"/>
<use x="63.623047" xlink:href="#e"/>
<use x="95.410156" xlink:href="#c"/>
<use x="159.033203" xlink:href="#ad"/>
</g>
</g>
<g clip-path="url(#a)">
<g transform="translate(1489.7 819.22) scale(.1 -.1)">
<use xlink:href="#c"/>
<use x="63.623047" xlink:href="#e"/>
<use x="95.410156" xlink:href="#q"/>
<use x="159.033203" xlink:href="#s"/>
</g>
</g>
<g clip-path="url(#a)">
<g transform="translate(1697.5 666.32) scale(.1 -.1)">
<use xlink:href="#c"/>
<use x="63.623047" xlink:href="#e"/>
<use x="95.410156" xlink:href="#q"/>
<use x="159.033203" xlink:href="#c"/>
</g>
</g>
<g clip-path="url(#a)">
<g transform="translate(1570.5 819.22) scale(.1 -.1)">
<use xlink:href="#c"/>
<use x="63.623047" xlink:href="#e"/>
<use x="95.410156" xlink:href="#q"/>
<use x="159.033203" xlink:href="#q"/>
</g>
</g>
<g clip-path="url(#a)">
<g transform="translate(1653.7 819.22) scale(.1 -.1)">
<use xlink:href="#c"/>
<use x="63.623047" xlink:href="#e"/>
<use x="95.410156" xlink:href="#q"/>
<use x="159.033203" xlink:href="#p"/>
</g>
</g>
<g clip-path="url(#a)">
<g transform="translate(863.53 666.32) scale(.1 -.1)">
<use xlink:href="#c"/>
<use x="63.623047" xlink:href="#e"/>
<use x="95.410156" xlink:href="#q"/>
<use x="159.033203" xlink:href="#y"/>
</g>
</g>
<g clip-path="url(#a)">
<defs>
<path id="ah" d="m8.2031 72.906h46.875v-4.2031l-26.469-68.703h-10.297l24.906 64.594h-35.016z"/>
</defs>
<g transform="translate(986.36 819.22) scale(.1 -.1)">
<use xlink:href="#c"/>
<use x="63.623047" xlink:href="#e"/>
<use x="95.410156" xlink:href="#q"/>
<use x="159.033203" xlink:href="#ah"/>
</g>
</g>
<g clip-path="url(#a)">
<defs>
<path id="an" d="m31.781 34.625q-7.0312 0-11.062-3.7656-4.0156-3.7656-4.0156-10.344 0-6.5938 4.0156-10.359 4.0312-3.7656 11.062-3.7656t11.078 3.7812q4.0625 3.7969 4.0625 10.344 0 6.5781-4.0312 10.344-4.0156 3.7656-11.109 3.7656zm-9.8594 4.1875q-6.3438 1.5625-9.8906 5.9062-3.5312 4.3594-3.5312 10.609 0 8.7344 6.2188 13.812 6.2344 5.0781 17.062 5.0781 10.891 0 17.094-5.0781t6.2031-13.812q0-6.25-3.5469-10.609-3.5312-4.3438-9.8281-5.9062 7.125-1.6562 11.094-6.5 3.9844-4.8281 3.9844-11.797 0-10.609-6.4688-16.281-6.4688-5.6562-18.531-5.6562-12.047 0-18.531 5.6562-6.4688 5.6719-6.4688 16.281 0 6.9688 4 11.797 4.0156 4.8438 11.141 6.5zm-3.6094 15.578q0-5.6562 3.5312-8.8281 3.5469-3.1719 9.9375-3.1719 6.3594 0 9.9375 3.1719 3.5938 3.1719 3.5938 8.8281 0 5.6719-3.5938 8.8438-3.5781 3.1719-9.9375 3.1719-6.3906 0-9.9375-3.1719-3.5312-3.1719-3.5312-8.8438z"/>
</defs>
<g transform="translate(1051.5 819.22) scale(.1 -.1)">
<use xlink:href="#c"/>
<use x="63.623047" xlink:href="#e"/>
<use x="95.410156" xlink:href="#q"/>
<use x="159.033203" xlink:href="#an"/>
</g>
</g>
<g clip-path="url(#a)">
<g transform="translate(1118.9 819.22) scale(.1 -.1)">
<use xlink:href="#c"/>
<use x="63.623047" xlink:href="#e"/>
<use x="95.410156" xlink:href="#q"/>
<use x="159.033203" xlink:href="#ad"/>
</g>
</g>
<g clip-path="url(#a)">
<g transform="translate(1260.5 819.22) scale(.1 -.1)">
<use xlink:href="#c"/>
<use x="63.623047" xlink:href="#e"/>
<use x="95.410156" xlink:href="#p"/>
<use x="159.033203" xlink:href="#s"/>
</g>
</g>
<g clip-path="url(#a)">
<g transform="translate(804.36 819.22) scale(.1 -.1)">
<use xlink:href="#c"/>
<use x="63.623047" xlink:href="#e"/>
<use x="95.410156" xlink:href="#p"/>
<use x="159.033203" xlink:href="#q"/>
</g>
</g>
<g clip-path="url(#a)">
<g transform="translate(862.78 819.22) scale(.1 -.1)">
<use xlink:href="#c"/>
<use x="63.623047" xlink:href="#e"/>
<use x="95.410156" xlink:href="#p"/>
<use x="159.033203" xlink:href="#p"/>
</g>
</g>
<g clip-path="url(#a)">
<g transform="translate(923.45 819.22) scale(.1 -.1)">
<use xlink:href="#c"/>
<use x="63.623047" xlink:href="#e"/>
<use x="95.410156" xlink:href="#p"/>
<use x="159.033203" xlink:href="#r"/>
</g>
</g>
<g clip-path="url(#a)">
<g transform="translate(379.71 819.22) scale(.1 -.1)">
<use xlink:href="#c"/>
<use x="63.623047" xlink:href="#e"/>
<use x="95.410156" xlink:href="#p"/>
<use x="159.033203" xlink:href="#n"/>
</g>
</g>
<g clip-path="url(#a)">
<g transform="translate(417.9 819.22) scale(.1 -.1)">
<use xlink:href="#c"/>
<use x="63.623047" xlink:href="#e"/>
<use x="95.410156" xlink:href="#p"/>
<use x="159.033203" xlink:href="#y"/>
</g>
</g>
<g clip-path="url(#a)">
<g transform="translate(458.35 819.22) scale(.1 -.1)">
<use xlink:href="#c"/>
<use x="63.623047" xlink:href="#e"/>
<use x="95.410156" xlink:href="#p"/>
<use x="159.033203" xlink:href="#ah"/>
</g>
</g>
<g clip-path="url(#a)">
<g transform="translate(501.04 819.22) scale(.1 -.1)">
<use xlink:href="#c"/>
<use x="63.623047" xlink:href="#e"/>
<use x="95.410156" xlink:href="#p"/>
<use x="159.033203" xlink:href="#an"/>
</g>
</g>
<g clip-path="url(#a)">
<g transform="translate(545.98 819.22) scale(.1 -.1)">
<use xlink:href="#c"/>
<use x="63.623047" xlink:href="#e"/>
<use x="95.410156" xlink:href="#p"/>
<use x="159.033203" xlink:href="#ad"/>
</g>
</g>
<g clip-path="url(#a)">
<g transform="translate(617.88 666.32) scale(.1 -.1)">
<use xlink:href="#c"/>
<use x="63.623047" xlink:href="#e"/>
<use x="95.410156" xlink:href="#r"/>
<use x="159.033203" xlink:href="#s"/>
</g>
</g>
<g clip-path="url(#a)">
<g transform="translate(593.16 819.22) scale(.1 -.1)">
<use xlink:href="#c"/>
<use x="63.623047" xlink:href="#e"/>
<use x="95.410156" xlink:href="#r"/>
<use x="159.033203" xlink:href="#c"/>
</g>
</g>
<g clip-path="url(#a)">
<g transform="translate(642.59 819.22) scale(.1 -.1)">
<use xlink:href="#c"/>
<use x="63.623047" xlink:href="#e"/>
<use x="95.410156" xlink:href="#r"/>
<use x="159.033203" xlink:href="#q"/>
</g>
</g>
<g clip-path="url(#a)">
<g transform="translate(92.11 819.22) scale(.1 -.1)">
<use xlink:href="#c"/>
<use x="63.623047" xlink:href="#e"/>
<use x="95.410156" xlink:href="#r"/>
<use x="159.033203" xlink:href="#r"/>
</g>
</g>
<g clip-path="url(#a)">
<g transform="translate(103.34 819.22) scale(.1 -.1)">
<use xlink:href="#c"/>
<use x="63.623047" xlink:href="#e"/>
<use x="95.410156" xlink:href="#r"/>
<use x="159.033203" xlink:href="#n"/>
</g>
</g>
<g clip-path="url(#a)">
<g transform="translate(116.83 819.22) scale(.1 -.1)">
<use xlink:href="#c"/>
<use x="63.623047" xlink:href="#e"/>
<use x="95.410156" xlink:href="#r"/>
<use x="159.033203" xlink:href="#y"/>
</g>
</g>
<g clip-path="url(#a)">
<g transform="translate(151.28 666.32) scale(.1 -.1)">
<use xlink:href="#c"/>
<use x="63.623047" xlink:href="#e"/>
<use x="95.410156" xlink:href="#r"/>
<use x="159.033203" xlink:href="#ah"/>
</g>
</g>
<g clip-path="url(#a)">
<g transform="translate(151.28 819.22) scale(.1 -.1)">
<use xlink:href="#c"/>
<use x="63.623047" xlink:href="#e"/>
<use x="95.410156" xlink:href="#r"/>
<use x="159.033203" xlink:href="#ad"/>
</g>
</g>
<g clip-path="url(#a)">
<g transform="translate(1219.1 358.38) scale(.1 -.1)">
<use xlink:href="#c"/>
<use x="63.623047" xlink:href="#e"/>
<use x="95.410156" xlink:href="#n"/>
<use x="159.033203" xlink:href="#s"/>
</g>
</g>
<g clip-path="url(#a)">
<g transform="translate(771.08 358.38) scale(.1 -.1)">
<use xlink:href="#c"/>
<use x="63.623047" xlink:href="#e"/>
<use x="95.410156" xlink:href="#n"/>
<use x="159.033203" xlink:href="#c"/>
</g>
</g>
<g clip-path="url(#a)">
<g transform="translate(228.61 358.38) scale(.1 -.1)">
<use xlink:href="#c"/>
<use x="63.623047" xlink:href="#e"/>
<use x="95.410156" xlink:href="#n"/>
<use x="159.033203" xlink:href="#q"/>
</g>
</g>
<g clip-path="url(#a)">
<g transform="translate(76.382 819.22) scale(.1 -.1)">
<use xlink:href="#c"/>
<use x="63.623047" xlink:href="#e"/>
<use x="95.410156" xlink:href="#n"/>
<use x="159.033203" xlink:href="#p"/>
</g>
</g>
<g clip-path="url(#a)">
<g transform="translate(197.71 819.22) scale(.1 -.1)">
<use xlink:href="#c"/>
<use x="63.623047" xlink:href="#e"/>
<use x="95.410156" xlink:href="#n"/>
<use x="159.033203" xlink:href="#r"/>
</g>
</g>
<g clip-path="url(#a)">
<g transform="translate(222.43 819.22) scale(.1 -.1)">
<use xlink:href="#c"/>
<use x="63.623047" xlink:href="#e"/>
<use x="95.410156" xlink:href="#n"/>
<use x="159.033203" xlink:href="#n"/>
</g>
</g>
<g clip-path="url(#a)">
<g transform="translate(310.06 819.22) scale(.1 -.1)">
<use xlink:href="#c"/>
<use x="63.623047" xlink:href="#e"/>
<use x="95.410156" xlink:href="#n"/>
<use x="159.033203" xlink:href="#y"/>
</g>
</g>
<g clip-path="url(#a)">
<g transform="translate(343.76 819.22) scale(.1 -.1)">
<use xlink:href="#c"/>
<use x="63.623047" xlink:href="#e"/>
<use x="95.410156" xlink:href="#n"/>
<use x="159.033203" xlink:href="#ah"/>
</g>
</g>
<g clip-path="url(#a)">
<g transform="translate(694.27 819.22) scale(.1 -.1)">
<use xlink:href="#c"/>
<use x="63.623047" xlink:href="#e"/>
<use x="95.410156" xlink:href="#n"/>
<use x="159.033203" xlink:href="#an"/>
</g>
</g>
<g clip-path="url(#a)">
<g transform="translate(1188.6 819.22) scale(.1 -.1)">
<use xlink:href="#c"/>
<use x="63.623047" xlink:href="#e"/>
<use x="95.410156" xlink:href="#n"/>
<use x="159.033203" xlink:href="#ad"/>
</g>
</g>
<g clip-path="url(#a)">
<g transform="translate(1739.1 819.22) scale(.1 -.1)">
<use xlink:href="#c"/>
<use x="63.623047" xlink:href="#e"/>
<use x="95.410156" xlink:href="#y"/>
<use x="159.033203" xlink:href="#s"/>
</g>
</g>
<g clip-path="url(#a)">
<g transform="translate(1826.7 819.22) scale(.1 -.1)">
<use xlink:href="#c"/>
<use x="63.623047" xlink:href="#e"/>
<use x="95.410156" xlink:href="#y"/>
<use x="159.033203" xlink:href="#c"/>
</g>
</g>
<defs>
<clipPath id="a">
<rect width="1925.3" height="1013.3"/>
</clipPath>
</defs>
</svg>
